<svg xmlns="http://www.w3.org/2000/svg" width="38" height="41" fill="none" viewBox="0 0 38 41"><path fill="#f6f6f1" d="m22.6 20 13.5 14.9-5 4.5-13.5-15-6 10-9.4-32 31 12.6z"/><path fill="#0ba6e2" d="m29.5 18.8-.6.2-1.7.6c-1 .4-3.9 2-4.2 1.1V20c0-.2-.6-1.3-.2-1.5.4-.4 1.8-.7 2-.8l.7-.4 1.7-1.1h1l1.2-.4.4-.4 1-.3c.6-.3.6-.7 1-.9l.9-.4V16l-.5-.2h-.3v.4l-.5-.4-.6-.1-.6-.4-.4.1-1.3-.4c-.5-.2-.5-.5-.9-.6q-1.6-.7-3.3-1.1l-1.3-.6c1-.3-.4-1.4-.2-.3l-1.4-.4-.9-.6c-.8-.3-1.8-.3-1.7-1-1-.3-1.7-.8-2.2-.4-.3 0-.7-.6-1-.8l-3.5-1.6c-.3 0-.8.4-1.1-.5l-1.6-.7-.1-.2-.7-.2c-.4-.1-.5-.4-.6 0l-1-.3v-.3h-.5c.4-.3-.8-.5-.6 0l-1.4-1c.3-.5-1.1-.5-1.1-.2H3l-1.3-.7L3.4 2v.3c.1.7 0 .6-.1 1l.1.4c1 .6-.3.8.7 2-.3.6.2 1.6.6 2.3l.2.2c.1.2.2 1 .5.8v.8l.3.6h.2q0 .7.2 1.3L6 12l.2 1q.3 0 .5.2v1l.3 1c.2.4.4.2.7 1.4v.6c.2.3.7 1.2 1 1.2-.2.5.2 1.6.2 2v.4l.3 1.1v.7l.3.4.2 1.6c.2.7.8 1.2 1 1.7l.1.4 1.5 5.7.3 1.7-1.8-.2q.5-.8 0-.8c0-.4 1.4-2 1.6-2.4l.4-1c.5-.9 1-1.4 1.5-2.5l.2-.9.6-.5 1.3-2.2 1-1.7 1.3 1.5h.1v.5q.7 1.1 1.2.7.6 1.1 1.6 1.8c1.2 1.3 3.1 3.6 4.3 4.6.7.6.8.4 1.6 1.5l.6.9q.4 1.2 1.5 1.7.8 1 1.3 2h.3l.3.3-.2.3.9.7h-2l1-1.2c.8-.8 3-2.6 4-3.3v1.9l-.2-.2c-.3-.5-.5-.3-.4-.9l-.4-.2H34l-1.6-1.9c-.9-1-2.4-2.3-3.2-3.4l-.5-1c-.3-.3-.6-.2-1-.6-.8-.8-1.8-2.5-2.5-3.2l-.5-.4q-.8-.9-1.8-1.6c-.3-.8 0-1 .1-1.5l.3-1.5.5-.4q1 .9 1.4 2l3.2 3.4v.6q.5.6 1 .7c2.2 1.7 5.4 5.7 7.7 8.4l.7.8-.8.8-1 .9c-.5.5-2.2 2.2-2.7 2.4h-.4l-1 1-.7.7-.7-.7-1.6-1.6q-2.5-3-5.3-5.8l-6.8-7.3 2-.2-5.9 10-1.5 2.7-1-3-1-3.3q.1-.6-.3-1.4l.2-.1-.7-1.6-.7-2.5v-.5L7 23.6l-.3-1.8q-.9-2.2-1.6-4.5l-.2-1.1q0-.3-.3-.5c-.4-.8-.6-2.2-.8-3.1L1.2 4 1 2.8 0 0l2.8 1 4.8 2.1.4.5.7.1L13 5.4q.3 0 .4.3h.4l4.1 1.7 9.3 3.8q1 .6 1.1.8h.9c1.4.5 3.1 1.4 4.4 1.8l2.6 1-2.5 1.3h-.1l-2 1.4c-.5.2-1.7.7-1.8.9zm-9.4-7.7c.2-.3-.8-.4-.5 0zM11 29.3l.3-.1-.2-.4-.1.3z"/></svg>