<svg xmlns="http://www.w3.org/2000/svg" width="184" height="167" fill="none" viewBox="0 0 184 167"><path fill="#f6f6f1" d="M159.8 42 26 42.8l-1.3 82.1 131.9 2.4z"/><path fill="#82c6dd" d="M24 64v-1.9l.3-5.8c.1-3.4.1-13.6.9-13.5.2 0 .3.9.5 1 .1.1 1.2 0 1.2 1.3l-.3 7v2.3c.1 2.6 0 4 .2 6.4l-.4 3-.2 3.9v4.8c0 2.2.2 2.6.2 3.9v5.9l.2-.5-.1 2V88l.1 1.2v4.4c0 1.6-.2 1.8-.2 3.1v11l-.1 4.6c-.5-2.4-1 3-.1 1q-.2 2.3 0 4.5L26 121v4l-1.4-1.4q1.8 0 2.3.4c3.1 0 5.8.3 7-.3l3.6.4 12.3.4c1.1 0 2-.5 3.9.1 2.3 0 3.2 0 5.3.2l.7.1h2.1q2.2.2 2-.1l2.8-.1 1 .2 1.4-.2c-.6.4 2.9.2 1.8 0l5.3.3c-.3.5 3.9.2 3.5-.1h.6c1.8.2 3.4 0 5.6.2 2.2.1 2 .2 2.6.4H90c2.7-.6 2.2.5 6.8.1 1.5.5 5 .3 7.5.2h.6c1-.1 3.2 0 3.2-.2l2.4.2h2v-.3c1.2.3 3.3.2 4.3.3l.9.2h3l1-.3c1.6 0 2.1.3 3 .4h3.4c1.3 0 1-.3 4.8-.2l1.9.2c1.1 0 4.4-.2 4.7-.4 1.3.3 4.9.3 6 .4.3 0 .3.2 1.3.2h3.8l2 .2h4l-.9 1 .2-2.7q0-3.2-.2-6l.1-1.3.9-18.5c.1-2.7.8-9.5 0-7.7l.6-9.2v-3.4c.1-3.2.3-5.4.3-9.2v-2.6l.2-2.4.3-8.2.2-1c.3-2.2.4-4.6 0-4.2q.3-4 .2-7.7V42l1.5 1.4c-5.5 0-14 0-18.3.2-2.9.2-2.8.3-7.1.2h-3c-2.8-.2-5.3-.5-7.3 0-3-.2-5.4 0-7.7-.4l-.8.2h-1l-.4-.2c-2.7 0-6 .4-8.3.4-3.7 0-13.4 0-17-.2-1.8 0-2 .2-3-.2h-1.3q-.4.3-.8.3h-7.6c-4.2 0-10.5.2-14.7.1l-3.5-.1c-1.5 0-1.8.2-3.8.2l-12.5-.2-2 .2q-3.9 0-7.5.2c-2.8-.2-2.5-.6-3.4-.9l-3-1c-.1-.2.6-.4.3-.5 3.3-.2 4.7 0 7.4.2l15-.2 1.3.3c1.9.1 2.7-.1 3.7-.2 9.9-.6 29.3-.3 40.1-.3 2.3 0 10-.2 11.5 0l1 .2 11.9-.4c8 .2 16.5 0 24.6-.1l17.1-.2h1.1v1l-2 48.6-.5 13.7c-.1 1.7-.4 2.4-.3 4.7h-.2v5.5l-.3 8.4c0 .8-.2.5-.2 1.3v4.2h-4.1l-5.9-.2h-14.8c-1.4 0-3.2-.3-3.6-.3-.9 0-1.1.2-1.7.2l-10.2-.3-28.2-.5-20.9-.5c-1.1 0-.8-.2-1.8-.2h-2.2l-14.4-.1-1.5-.2H47c-5.3 0-9.1 0-14.3-.2l-8.2-.1h-1v-1.1c0-7.7.1-15.9.3-23.5q.2-3.5.4-4c0-.8-.2-1.2-.2-2.6l.2-15.5-.2-7.5c0-1.7.2-5.8 0-6.6zm1.8 58.5c-.3-.3-.1 3 0 1.7zm130.7-13-.2.1v1.3l.2-.7z"/><path fill="#1c1c1c" d="M57.7 110.2h2.5q.6 0 1-.3t.5-1l-.1-.6-.4-.4-.6-.2-.6-.1h-2.3zm-2.5-4.6h5.3l1.5.2 1.2.5q.4.3.7.9.2.5.2 1.3.1.8-.4 1.4-.3.6-1.1 1 1 .3 1.5 1t.6 1.9q0 .8-.4 1.5-.3.6-.9 1l-1.3.6-1.5.1h-5.5zm2.4 9.5H61l.6-.3.4-.5.2-.7q0-.9-.5-1.2a2 2 0 0 0-1.3-.4h-2.8zm10.5-3.7.1 1.4.5 1.3 1 .8q.6.4 1.4.4t1.5-.4l1-.8.5-1.2a6 6 0 0 0-.6-4.1q-.3-.6-1-1l-1.3-.3q-.8-.1-1.5.4l-1 .8-.5 1.3zm-2.5 0q0-1.2.3-2.3.5-1.2 1.2-2t1.7-1.2 2.4-.5 2.3.5a5 5 0 0 1 1.8 1.3q.7.8 1 2 .4 1 .4 2.3l-.4 2.3q-.3 1-1 1.9a5 5 0 0 1-4.2 1.6 5 5 0 0 1-5.2-3.6zm12.6-5.7h8v2.2h-5.6v2.6h4.8v2h-4.8v4.6h-2.5zm18.7 7.2q0 2.3-1.3 3.5-1.3 1-3.6 1t-3.6-1q-1.2-1.2-1.2-3.5v-7.1h2.5v8l.4.8.7.6 1.2.2q1.4 0 1.9-.6t.5-1.9v-7H97zm6.2-2.4h-1.3V109h1.3v-.6q0-1 .7-1.8.8-.7 2.1-.7h1.2v1.8l-.8-.1q-.6 0-.7.2l-.2.7v.5h1.5v1.6h-1.5v6.7H103zm5.2-1.5h2.3v8.3h-2.3zm2.3-1.2h-2.3v-1.9h2.3zm1.5 1.3h2.1v1.5l.5-.7.6-.5a3 3 0 0 1 1.6-.5h.5v2.2h-.4l-.5-.1q-.6 0-1 .2l-.7.5-.4.9-.1 1v3.7H112zm7.6 5.6v.6l.5.4.5.3h1.2q.3 0 .5-.2l.3-.3.2-.5q0-.5-.7-.7l-1.9-.6-1-.2-.8-.4-.6-.7-.2-.9q0-.8.3-1.3l.8-.8 1.2-.4a7 7 0 0 1 2.6 0l1.1.5q.6.3.8.8.4.5.4 1.2h-2.1q0-.6-.5-.8t-1-.3l-.9.1-.3.3-.1.4q0 .3.2.5l.6.3.8.2 1.9.5q.5 0 .8.4.4.3.6.7t.2 1q0 .8-.3 1.3t-.9.9l-1.2.4a7 7 0 0 1-2.7 0q-.8 0-1.3-.5-.5-.3-.8-.9-.4-.5-.4-1.3zm9.3-5.5h1.7v1.5H129v4q0 .6.2.8l.8.2h.7v1.7h-2.4q-.5 0-.8-.3l-.6-.6-.2-1v-4.8h-1.3V109h1.4v-2.4h2.2z"/><path fill="#82c6dd" d="M106 71.4c0-1.2-1-2.2-2.2-2.2H75.2a2.2 2.2 0 0 0-.3 4.4l10.6 14.2V92q0 .3.4.5l7 1.6h.1l.3-.1q.3-.1.2-.4v-5.7l10.6-14.2q1.7-.3 1.9-2.2m-7 7.3H80l-3.8-5.1h26.6zm-6.4 8.7V93l-6.1-1.4v-3.8l-.1-.3-5.7-7.7h17.6zm11.2-14.8H75.2a1.2 1.2 0 0 1 0-2.4h28.6a1.2 1.2 0 0 1 0 2.4"/><path fill="#82c6dd" d="M105.1 71.4q-.1-.6-.5-1l-.2-.1v-.2h-1.2l-.4-.1h-1v-.2c-.4.3-.5.2-1.1.2h-.3l-.5-.1h-5.4l-.5.1-1.6-.2q-.7.2-1.2 0H87v-.2l-.4.2v-.2q-.7.3-1.6.2h-.4c-.3 0-.8-.3-.6 0h-2.2q-.4 0-.5-.3l-.1.2-.8-.1-.2.1H79l-.1-.1-.8.1h-.2l-.4.1h-2.2l-.1-.1-.2.1q-1 .1-1.4 1.1s-.1-.3-.2.1h.1v.7h.2v.4q.3 0 .3.4.3.5 1 .5h.2l.2.2 2.5 3.5L79 78l.2.4s.5.3.3.6l.2.2v-.3l.8 1q.2 0 0 .2.2.1.3.4.2 0 .4.5l.2.3.2.3.4.4.3.5.6 1q.3 0 .5.5c.2.2.4 1 .7.9.1.4.2.3.5.7l1 1.5c.2.3.3 0 .4.2v.1l.2.2v1.6H86v.4c.4-.7 0 .6 0 1l.2 1.3-.2-.2.4.2 3.3.7.5.2h.6l.6.3q.1-.2.2 0 .1 0 0 0l1.4.3v.1-.8l-.1-.8v-.4l.2-1.4-.1-2.3v-.1l.1-.2 2.3-3.2V84l.2-.1.1-.3 1.1-1.4 1.8-2.5.1-.1 1.4-2 3-3.7q0-.5.4-.8l.1-.3h.8l-.4.2h-.2l-.1.2c-1.2 2.3-2.8 4.1-4.4 6.3-1.8 2.4-3.4 5.3-5.2 7.7l-.5.5v5.8l-.1.5v-.2l-.1.1h-.5l-4.8-1-.1-.2h-.5l-.4-.2h-.4l-.8-.2q-.4 0-.4-.3v-.1l.1-.8-.1-.7v-2.6L83 84.2l-.7-.7-.3-.6-.4-.6q-.3-.5-.6-.6l-.5-.8-.2-.4-.2-.1-.2-.4-.4-.3-.5-1-1.5-1.8c-.5-.4.2.5.3.5q0 .3.3.5c0 .5 1 1 .8 1.4q.5.2.6.6c.2.4.1 0 .3.3l.3.6.4.3.5 1h.2l.3.7v-.2l.2.2.3.7c.6.4.3.3.5.7l.6.6.5.7c.2.2.3.6.3.2l1.3 1.9.2.3-.2 1 .2.8v.4q0 .6-.3.8c.2.1.4.7.2.8l.1.2q0 .3.3.5l.1.2c.7-.2 1.7.3 2.5.5l.2-.1 1.3.6h.7l.7.2h.5l.2.2 1 .3.1-.1h.5q.3-.4.3-.7v-1.6q0-2.2.3-4l-.2.2.8-.9c.2-.2 0-.4.3-.6l.4-.3.3-.6h.2l1-1.7q.4-.3.2-.4l.3-.1q.2-.5.6-.9 0-.2.3-.5l-.2-.1.5-.5v-.3h.2c.6-.5.5-.5.5-1 0 0 .6-.5.6-.8l.1.2.4-.5h-.2l.6-1 .3-.2c.2-.6.5-.7.8-1.2l.5-.7q.2 0 .4-.6h.2c0-.7.2-.3.7-.8l.6-.9-.2.1q.6 0 .8-.3t.1-.2l.5-.3q0-.3.3-.7l.2-.2q-.2 0 0-.2l.2-.5c.1.2 0 1-.1 1.3q-.5 1-2 1.5l.5-.3A161 161 0 0 1 96 86.1l-.7.6q-.2.1 0 .3l-.5.5-.7.8.2-.5-.1 3.6v2.1a1.2 1.2 0 0 1-1.2 1.2h-.3l-1.4-.3L90 94l-1-.2q-.2 0-.3-.2h-.3l-.7-.2h-.3l-.2-.1H87l-1.4-.2a1 1 0 0 1-1-1.2l.2-2.6v-1.2l-.1-.3.1.4-.1-.1-.1-.4q-.2 0-.3-.2T84 87l-.6-.7-1.2-1.7-.6-.7q-.6-.7-1-1.5l-.1-.3-.3-.1-.2-.5-1.4-1.8-4.3-5.7.5.4a3 3 0 0 1-2.6-3 3 3 0 0 1 1.7-2.7l1-.2h.3q.3-.2.6 0v-.1h3.9l5 .1q.4-.2 1.2 0h2.2l1 .2-.1-.2h.5v.2l.3-.2c.2.3 0 .2.4.1h.6l.3-.1h.7c-.2.3.5.2.6 0h.2c0 .5.4.1.6 0l.2.1h9.9l.3.2c.3 0 .1 0 .2-.1l.5.1c.5 0 .4.2.9.3.2.4-.3 0-.4.1q-.2.3.1.6l.3.1.5 1c0 .3 0 0-.1 0v.3zm-31.6-.8c-.2-.6.7-1.6 1.7-1.5h.7c.8 0 1.4.4 1.3 0h-2.4l-.8.2-.3.1-.1.3-.8.7v1.2l.2.5v.4q.5.6 1.2.9c.3.1.1.2.3.3h.4-.1.1l.3.5 2 2.6-1.1-2c-.4-.3-.2-.2-.3-.4l-.5-.4-.3-.5v-.1h-.5q-1-.3-1.4-1.3v-1q.2-.3.1-.6zm16.2-1.3s.6.3.4 0Q89 69 87.7 69q.4.3 1.3.2zm9.2 10.2q-.2 0 0 0l-1 .2-.2-.2-.2.1v-.1h-1.8v-.2q-.2.3-.7.2h-.2l-.3-.2-.2.1H91l-1-.1q-.5.2-.7 0h-2.7V79l-.2.1V79q-.4.3-1 .2v-.1h-.2c-.2 0-.5-.3-.4 0h-1.3l-.3-.2-.1.1h-.5l-.1.1c0-.2-.6-.1-.7-.1h-.7l-.2.2h-1.2l-.2-.3-.2-.3v-.1h-.2q-.4-.8-.9-1.3.3 0 .1-.2h-.1l-.3-.3h-.1l-.2-.3q-.2 0-.2-.3l-1.7-2.3-.7-.9h3.3q.2-.2.3.1h.2l-.1-.1.7-.1h.1l.3.1h.9l.3-.1.4.1q.3-.1.7.1l.4-.2c.2 0 .6.3.7 0h.5l1.1.2q.3-.1.2-.2h.9v.2h.3c-.4-.4.4 0 .6 0l.8-.2h2.7l.4.1h3.5l.9.1 3.7-.1.2-.2.1.1h1.2l2-.1h1.9l-.8 1.2-.5.8L101 77q0 .5-.5.7 1-2.2 2.6-4l.3-.5h-.8l-5.7.4-.4-.2v.2h-3.8.1q-1.6-.3-3.4-.2v-.1l-.4.1h-7.5l-.5-.1-.5.1H80l-.2-.1-.2.1-.2-.1-.3.1-.7-.1-1.4.1c-.4.2.3 0 .3 0q.2.2.4 0c.2.4.8-.1 1 .3q.3-.3.5 0c.2 0 0-.2.2-.2l.4.1h1.6l.4.1c.4-.2.3 0 .5 0h.6l.5-.1q.4.2.2 0 .7-.2 1.4 0h.3l.6.1.5-.1h.2q.4 0 .5.2.2-.3.5-.1.1-.3.4-.2l.1.2c.4-.4 1-.1 1.5 0l.1-.2.9.3.4-.2.5.1.3-.1.1.1.6.1c0-.3.2 0 .3 0H94l3.2.3.4-.2.3.1h1.7l.2-.1.2.1h.6q.1-.2.4 0v-.3h.5l.1.1q.5.2.6-.1h.6v-.3h-.2l.2.4-.2-.5-.3.3h.2l-.3.7h-.3l.1.1-.5.7q0 .2-.3.5-.2 0-.2.3h-.2c0 .5-.1.2-.4.5l-.7.9v.2l-.1.2-.2.4h-.2q.2.1 0 .2l-.3.2.2-.7c.6-1.3 1.7-3.2 3-4.9l.7 1.6h-4.6l-.6-.2-.2.1-.3-.1-2.8-.2-.7.1h-2.1l-.8-.1H89l-1 .1-1.9-.2-.1.1h-1.6l-.6.1-1.3-.1-.6.1h-1q-.2 0-.2-.2l-.2.1h-1.8l-2.4.1.6-1.2 3.2 4.3.2.4c0 .1.4.1.3.4h.1l-.6-.4h2.3l3 .2q.3-.2.8 0v-.1l.5.1h.8l.6.1h.2v.1q.2 0 .2-.2 0 .5.3.2h.3l.2-.2.1.2.4-.1c-.2.2.2.1.3 0h.1c0 .5.2 0 .4 0h1.2l.2.1h2.3l.2-.1.5.1h1.7l.2.2q.2 0 .1-.1h.8c.2.2-.2.2-.2.3q0 .3.3.4h1v.1l.2.2c-.3.1 0 .3-.1.3m-20.3-2.2c.5 0 1.1.9 1.4 1.3.4 0 .8.4.7-.1H80l-.3-.4-.3-.5v-.1l-.2-.1-.2-.6h-.2l-.2-.4q-.2 0-.3-.2l-.1-.2-.6-.6v-.3l-.3-.1-.1-.3-1-1.1h.5-.7.1l.4.8c.3 0 .1 0 .2.2l.3.2.3.5h.2l.7 1v.3l.3.2q0 .3.3.3zm9.7 1.4s.4.3.3 0l-1.5-.1q.3.4.8.1v.1zm5 9.2.2-.2v.7l-.1.1v1.9h-.2q.3.1.1.5v.2l-.1.3v2.3l-.8-.2h-.8v-.2l-.2.1-.5-.2h-.3l-.8-.3q-.4 0-.6-.2l-2.3-.5v-.1h-.6L86 92v-1.2c0-.2.3-.5 0-.4v-1.2l.2-.3H86l.1-.5H86c.2 0 .1-.6.2-.7H86l-.1-.1v-.2h-.2l-.8-1q.2 0 0-.1l-.9-1.2q.3 0 0-.2l-.3-.3h-.1l-.1-.2q-.3 0-.2-.3l-2-2.6-.6-.7v-.2q-.3 0-.2-.4l-.1.1-.2-.2-.8-1h1.3l.3-.2.2.1.2.1h.8l.3-.1.3.1q.3-.1.7.1l.3-.2c.2 0 .6.3.6 0h.5c.2 0 .9.2 1 .1l.2-.1h.8v.2h.3c-.4-.4.3 0 .5 0l.8-.2h2.4l.3.1.3-.1.4.1V79l.1.1h1-.1 1.5l.8.1 3.1-.1h1.2l-.7 1-.1.1v.2h-.1v.3l-.7.7-1 1.4L96 84l-1.6 2q0 .6-.5.7c.4-1.5 1.5-2.5 2.4-3.8l1.9-3.1h-1.8q-1.5.2-3 0l-.5.2.1-.2-3-.1-.1-.1-.3.1h-2.1l-3.8-.1-.5.1h-.4l-.4-.1h-1.2l-.2.1-.2-.1-.2.1h-.1v.1l.3.6.8 1c.4.1 0-.3 0-.3q0-.2-.3-.3c.2-.4-.6-.5-.3-.9q-.4 0-.3-.2l-.1.2h.6l.3-.1.6.2.1-.2.4.2v-.2l.4.2c.4-.3.3 0 .5 0l.5-.1h.5q.3.1.1-.1H86v.1h.2l.6.1.4-.1h.3q.3 0 .4.2.2-.3.4-.1.1-.3.4-.2l.1.1c.3-.3 1 0 1.4 0v-.1h.1l.7.2h.8l.3-.1.1.1.6.1c0-.3.1 0 .2 0h1.2q1.5 0 2.8.3l.4-.2.3.1h.6l-.5-.9-.4.8c0 .1-.3.1 0 .2H97q0 .3-.3.6l-.2.3h.2l-.2.3v.2h-.2q-.3.2-.2.5c0 .1-.4.3-.3.5l-.1-.1-.3.2h.2l-.3.7h-.2l.1.1q-.2.4-.5.6 0 .2-.3.4l-.1.4h-.2c0 .4-.1 0-.4.3l-.6.9v.2l-.1.1-.1.4h-.2v.2l-.3.1.1-.6c.9-2 3.4-5.5 5-7.5l.7 1.5H98l-.5-.1h-.6l-2.5-.2-.6.1-.1-.1-1.7.1-.8-.1H80.6l.6-1 .2.2q2.3 2.8 4.3 5.6l.1.4q.4-.1.3.4l.2-.1.6.8.2.2.2 1v.3q0 1.4-.2 2.7.3.3.1.7l-.6-.7h.2l.4.2h.6l.6.4v-.2h.2v.2l.1-.1q0 .3.2.2h.9c-.2.3.3.3.3 0l.2.1c-.2.5.1.2.2.2h.2l.9.3h.2l.9.2-.8.6v-3.5h.2v-.4H92q.2-.2 0-.4c.2-.2.3.1.3.1q.3 0 .5-.2v-.8h.1l.4.2m-9-2.8c.6 0 1.1.8 1.4 1.2s.1.8.5.4l-.8-1-.2-.3v-.2H85l-.2-.6h-.2l-.2-.3-.3-.2V84l-.6-.5V83l-.3-.1v-.3l-1.3-1.4.6 1.1c.3.2.1.1.2.3l.3.1.2.5h.2l.6.9v.2l.3.2q0 .4.3.3zm4.2 7s.3.3.2 0l-1.2-.5q0 .5.6.3v.1zm15.3-18.6h-1.6q-.2 0-.1-.1l-.3.1h-.7l-.3-.1h-.7v-.2q-.2.3-.7.2h-.2l-.4-.2-.2.1h-3.7q-.6.1-1.1-.1-.5.2-.8 0h-3V73l-.2.1-1 .1v-.1h-.3q-.5-.2-.4 0h-1.5l-.4-.2v.2q-.4 0-.6-.2l-.1.2c0-.2-.6 0-.8 0v-.2l-.6.2h-3.8q.2-.1-.1-.1h-.6l-.1.2h-4.3l-.6-.2q-.8-.2-1.2-1v-.6q0-.3.2-.5v-.3l-.1.2q.3-.7.7-1l.3-.1h.5l.2-.1h1.5l.8.1.5-.1c.2 0 .7.2.7 0h1.9l.2-.1h1v.2h.3c-.5-.4.4 0 .7 0l.9-.2h.4l.3.1h4.9-.1H91l1 .1 4-.1.3-.1h1.5l2-.1.2.1h3.8q.8 0 1.4.7.6.3.5 1.2v.2l-.1-.2q-.5-1.5-1.8-1.5h-3.5c-2 0-4.2.4-6.3.4l-.5-.1h-3.6l-.6.2.1-.1-3.7-.2H74.8l-.1.1-.3.1-.2.3-.4.7v.1q0 .4.4.9l.6.3c.5 0-.2-.1-.3-.2q0-.2-.3-.3l-.2-.7q0-.2.3-.3c-.3-.2 0-.3.1-.4l.1-.2.4-.1.3-.2.8.2.1-.2.5.2v-.1q.3 0 .5.2c.5-.3.4 0 .6 0l.6-.2h.6q.4.2.2 0h1.8l.7.2.6-.2h.3q.4 0 .5.2s.4-.3.5 0q.1-.3.5-.3l.1.2q.8-.3 1.7 0l.1-.2v.1l1 .2.4-.1h1l.7.1c0-.3.2 0 .3 0h1.4q1.8 0 3.5.3l.5-.1h.8v.1l1.4-.1q.3.1.2-.1.2 0 .2.2.4-.2.8 0 0-.2.4-.1v-.3l.4.1h.2c.5.2.5.1.8-.1h.6v.1h.4v-.1l.7-.1.2.1v-.1h2l.2.1q.3-.2.4.3l.4.7v.4l-.1.2-.2.4h-.3q.2 0 0 .1l-.4-.1q.3-.1.5-.4v-.6q-.1-.4-.5-.4c-2.8.2-6.3.2-8.4.2l-.7-.2-.2.1h-.4l-3-.2h-4.7l-.2-.1H85l-1.2.1-2-.1H81l-.3.1-.3-.1h-.6l-.6.1H76l-.2-.1h-.6q-.3 0-.5.4v.2q0 .5.5.4H82q.3-.2.6.1v-.2h2.6l3.4.2q.3-.2.8 0l.2-.1.5.1s.6-.1.8 0l.7.1-.1-.1h.3v.1l.2-.1c.2.3 0 .2.3.1h.4l.2-.1h.5q0 .3.4 0h.1c0 .5.3.1.4 0l.2.1h3.9l.3-.1.6.1h1.9l.1.2.2-.1h.3q.2.2.5 0c.2.2-.2.2-.2.3q0 .3.3.4h1.1v.1h.1zM80.5 73c.4-.5 1.6-.4 2.2-.4.5 0 .9.4.8-.1h-2.1l-.2-.1-.1.1-.7-.2-.1.2H79l-.9.1-.2-.1-.4.1H75l.2.1 1.4.2c.3-.2.1 0 .3 0l.4-.2.6.1.2-.1h1.3l.2.1h.4q.3.2.5-.1zm11.4-.3s.5.3.3 0l-1.6-.1q.3.3.9.1v.1zM80.6 68a3.5 3.5 0 1 0 0-7 3.5 3.5 0 0 0 0 7m0-6a2.5 2.5 0 1 1 0 5 2.5 2.5 0 0 1 0-5"/><path fill="#82c6dd" d="M80.6 67h.3l.1.1V67h.5v.1q0-.2.2-.2h.2l.3-.2q.2 0 .2-.3l.1.1v-.1h.2v-.2l.2-.1q0-.2.2-.2l.3-.8h.1v-.4s.3-.1 0-.1v-.4l.2-.2h-.2l.1-.2h-.2q.2 0 .1-.2l-.1-.1h-.1L83 63q0-.4-.3-.4.2-.1 0-.2v.1l-.1-.1h-.1q-.2 0-.1-.1l-1-.6h-.3q-.2 0-.2-.2v.2h-.2l-.2-.1h-.2l-.1.1H80l-.2-.2v.3q-.2-.2-.3 0h-.1l-.4.1v.2l-.2.2v-.1h-.1c.3.2-.1 0-.2 0v.4h-.3l-.2.7h-.2v.2q0 .2-.2.3h.1l-.1.3v.4l-.1.1q0 .6.4 1.1h.2l.1.4.5.3v.1l.3.2.7.5q.2-.2.3 0c-.6.5-1.1 0-1.6-.3-.4-.4-1.2-.8-1.3-1.5v-.2q-.2-.3-.2-.7l.1-.5-.1-.3.1.1.6-1.1h.1v-.3h.1l.2-.3h.2v-.2q.7-.5 1.4-.6l.2-.2h.1l.2.1.2-.1h.2v.1l.1-.1.1.1.1-.1.3.1h.5-.1q0-.2-.2 0c0-.5-.3 0-.3-.4q0 .4-.2 0v.2l-.2-.2-.1.2q-.2 0-.3-.2v.2l-.2-.2v.2l-.2-.2c-.1.3-.1 0-.2 0l-.2.2-.2.1q-.2 0 0 .1-.2.3-.5.2h-.4v.3h-.2q0 .2-.2 0v.5h-.2c.2.2-.2.3-.3.4v.1l-.3.2v.2l-.1.1v.2l-.2.2c.3 0 0 0 0 .1v.5l-.1.3q-.2.5-.1 1l.2.2v.3q0 .3.3.5h.1v.2l.1.2h.5v.2q0 .2.2 0s0 .3.2.1l-.1.2v.1l.2-.1h.3v.2-.1q.2 0 .3.2h.2q0 .1.2 0v.2q.1-.3.2.2h.4v-.2l.2.1.2-.1v.1l.2.1-.3.2q-1 .4-2.3-.2a4 4 0 0 1-1.5-2v-1.8l-.1-.3h.1v-1l.3-.3.1-.3h.1v-.1l.2-.1V62l.2-.4.7-.4v-.1l.3-.1v-.2h.4q0-.2.2-.3h.5l.3-.2h1.4q1.8 0 3 1.7v.2s.3 0 0 .2h.2l.2.4.1.4.1.2v1l-.1.3q.2.3 0 .4l-.1.2v.4l-.3.2h.2v.1h-.2l.1.1h-.2v.5q-.4-.2-.1.1c-.5-.3-.3 0-.2.1h-.1v.1q0 .2-.3.3h-.1v.1q-.3.4-.8.6v.1h-.3v.1H82l-.4.1h-.2v.1q-.2-.2-.2 0-.2-.3 0-.3l-.2-.5v.1h-.3v-.1zm2.4-4.6q.7 0 .7.4c0 .2-.2.5.2.2l-.2-.4-.1-.2v-.1l-.1-.3H83v-.1l-.4-.1v-.2h-.1l-.8-.3.4.4h.2l.1.2.1-.1.4.3v.1h.1q0 .3.1.2zm.7 3.5s-.3 0 0 0q.2-.1.3-.4-.3 0-.3.2zM80.6 61h.5v.2l.1-.1h.3v.1l.2.1v.2q.1-.3.2 0l.1-.1v.2h.1l.3.2.4.2v.3h.3v.3c0 .2.3 0 .1.3l.4.8h-.2.1-.1q.3.1.2.3v.1s-.3.2 0 .1v.5h-.2v.2h.1q-.2 0-.1.3h-.1v.2h.1q0 .3-.2.5h-.1l-.2.4q-.2-.2-.2 0h.1l-.1.1v.1q0 .3-.2.1-.3.5-1 .6l-.3.2-.2-.1v.1l-.2.1-.2-.1h-.2l-.2.1v-.1q-.3 0-.3-.2l-.2.2s0-.4-.2-.1l-.1-.1-.3-.2h-.4l.1-.3c-.2.4-.2 0-.2-.1h-.4l.1-.1h-.1v-.2l-.5-.5.1-.2h-.1v-.2h-.1.1q-.1-.3 0-.4h-.2v-.6q.2 0 .1-.2l.2-1.2v-.2l.2-.3.4-.5.4-.3 1-.3q0-.4.3 0c-.5.6-.9.5-1.3.9q-.5.7-.5 1.5H78h.1v.9l.2.1h-.2q-.1.4.2.9v.2h.1l.2.2v.1h.2q.4.5 1 .7h.2l.2.1.1-.1h.2v.1l.1-.1v.1l.1-.1h.2l.4-.1q0-.2-.1 0 0-.2-.1 0c-.1-.4-.2.2-.3-.2q0 .3-.1 0v.2l-.2-.1v.1q-.2 0-.2-.2v.2l-.1-.2v.2l-.1-.3c-.2.3-.1 0-.2 0l-.1.1h-.2q0-.2 0 0l-.3-.1v-.1l-.1-.2H79q-.2 0 0-.3s-.3.2-.1 0h-.3.1q-.3 0-.2-.3h-.1v-.5h-.2.1l.1-.2c-.3 0 0 0 0 0l-.1-.4v-.1l.4-.6h-.1v-.2h.2v-.3l.1-.1v-.1l-.2-.2h.2q.2 0 0-.2l.1-.2.1.2h.1l-.1-.2v-.1h.2q0-.2.2-.1v-.1q.1.1.1-.1l.1.1c0-.3 0 0 .2 0h.2V62h.1l.1-.1v.1-.1l.2.2-.2.2-1.2 1.5H79h.1l-.1.1-.2.5v.1l.2.4-.1.2h.1v.3h.1l.2.1.1.4h.3v.1h.2l.2.2.1-.1h.2v.2-.1h.4q.8-.3 1.2-1h.1-.1V65l.1-.1.2-.4v-.2q-.2 0 0-.1v-.5.1h-.1q.4-.2 0-.2h-.1q.1-.3 0-.1H82c.4-.3.1-.2 0-.1V63h-.1q-.2 0-.4-.3v.1l-.1-.2v.1l-.1-.1-.2-.1v-.1h-.2v-.7h-.2v-.1zm2 5.1q-.2-.5.1-.6c0-.1.4 0 0-.2l-.2.3h-.2l.1.1h-.2v.4l-.2.2-.1-.1v.1l-.5.4h.4q0-.1.1 0v-.2h.2v-.1l.2-.3h.1s.3 0 0-.2zm.3-2.8q.2-.2 0 0v.4-.3M98.4 68a3.5 3.5 0 1 0 0-7 3.5 3.5 0 0 0 0 7m0-6a2.5 2.5 0 1 1 0 5 2.5 2.5 0 0 1 0-5"/><path fill="#82c6dd" d="M98.4 67h.4v.1l.1-.1h.5v.1l.1-.2h.2l.4-.2.2-.3v.1-.1h.2v-.2l.3-.1q-.1-.2.1-.2.3-.3.3-.8h.2l-.2-.3h.2v-.1q.2 0 0-.1v-.4l.1-.2h-.1v-.2h-.1q.2 0 0-.2h.1l-.2-.1-.1-.1-.2-.4h.1-.1q0-.4-.3-.4.2-.1.1-.2v.1l-.2-.1h-.1q-.2 0 0-.1l-1-.6H99l-.1-.2h-.1v.2h-.2l-.1-.1h-.3l-.1.1H98l-.3-.2v.3q-.2-.1-.2 0h-.2l-.4.1v.2l-.1.2-.1-.2c.2.3-.2.1-.3.2v.3h-.2l-.3.7h-.1v.1l-.1.1-.1.3v.5h-.1v.3q0 .6.4 1.1h.1l.2.4.4.3v.1l.3.2.8.5q.2-.2.2 0c-.6.5-1 0-1.5-.3-.5-.4-1.3-.8-1.4-1.5v-.2q-.3-.4-.1-.7v-.8.1l.6-1.1h.1v-.1h.1v-.2l.2-.3h.2v-.2q.7-.5 1.4-.6l.2-.2h.2l.1.1.2-.1h.2l.1.1v-.1l.2.1v-.1l.3.1h.5q.2 0 0 0-.1-.2-.2 0c0-.5-.4 0-.3-.4q-.2.4-.2 0l-.1.2-.2-.2v.2h-.1q-.2 0-.3-.2v.2l-.2-.2v.2l-.2-.2c0 .3 0 0-.2 0l-.1.2-.3.1v.1q-.2.3-.5.2h-.4v.3H96q0 .2-.3 0v.5h-.2q.2.3-.3.4l.1.1-.4.2v.5h-.1l-.2.2c.3 0 0 0 0 .1v.8q-.3.5-.2 1l.2.2v.3q0 .3.3.5h.2l-.1.2.2.2q.1 0 0 0h.4v.2q0 .2.2 0 0 .2.3.1l-.2.2.1.1.1-.1h.3v.2-.1q.2 0 .3.2h.2q0 .2.2 0v.2q.1-.3.2.2h.4l.1-.2.1.1.2-.1v.1l.2.1-.3.2q-1 .4-2.3-.2a4 4 0 0 1-1.5-2V64l.1-.9.3-.3v-.3h.2v-.1l.2-.1-.1-.1h.1V62l.2-.4.7-.4v-.1l.2-.1v-.2h.4l.2-.3h.6l.2-.2H99q1.8 0 3 1.7v.2s.3 0 0 .2h.2l.3.4v.4l.1.2v1.3q.2.3 0 .4l-.2.2v.4l-.3.2h.2v.2h-.2l-.1.2v.3q-.3-.2-.1.1c-.5-.3-.2 0-.2.1v.1l-.4.3v.1l-.9.6v.1h-.3v.1h-.2l-.5.1h-.2v.1q0-.2-.2 0V68l-.1-.5-.1.1h-.3zm2.5-4.6q.6 0 .6.4c.1.2-.2.5.3.2l-.3-.4v-.3h-.2V62h-.1l-.1-.1h-.2v-.1l-.3-.1v-.2h-.2l-.8-.3.4.4h.3v.2l.2-.1q.2 0 .3.3v.1h.1q0 .3.2.2zm.6 3.5s-.3 0 0 0q.2-.1.3-.4-.3 0-.2.2zm-3-4.8h.5v.2-.1h.3v.1l.3.1-.1.2q.2-.3.3 0v-.1.2h.2l.2.2q.3 0 .4.2v.1l.1.2h.2v.3c0 .2.3 0 .1.3l.4.8h-.2.2-.2l.3.3h-.1v.1s-.3.2 0 .1v.5h-.2.1l-.1.2h.1l-.1.3v.2l-.2.5-.3.4q0-.2-.1 0v.2h-.1q0 .3-.1.1-.4.5-1 .6l-.3.2H99l-.2-.1v.1l-.2.1-.1-.1h-.3l-.1.1-.1-.1q-.2 0-.2-.2l-.2.2s-.1-.4-.2-.1l-.2-.1-.3-.2h-.4v-.4H96v-.3l-.4-.5v-.2h-.1v-.6h-.1v-.8l.2-1.2v-.2l.3-.3q0-.3.3-.5h.1l.3-.3 1-.3q0-.4.3 0c-.4.6-.9.5-1.3.9s-.3 1-.5 1.5H96v.9l.2.1H96l.3.9h-.1.1v.2l.3.2v.1h.2q.3.5 1 .7h.2l.1.1.2-.1h.1l.1.1V67l.1.1V67h.3l.3-.1q0-.2 0 0-.1-.2-.2 0c0-.4-.1.2-.3-.2q0 .3 0 0l-.1.2-.1-.1v.1q-.2 0-.3-.2v.2-.2l-.1.2-.1-.3c-.2.3 0 0-.1 0l-.2.1h-.1q0-.2 0 0l-.4-.1v-.3h-.3V66q-.1.2-.1 0h-.2q-.3 0-.2-.3h-.1l.1-.3h-.1v-.2h-.1l.1-.2c-.3 0 0 0 0 0v-.5l.3-.6h-.1.1v-.2h.1v-.3h.1v-.2l-.1-.2h.1q.3 0 0-.2l.1-.2.2.2v-.3h.1q0-.2.2-.1v-.1q.2.1.2-.1v.1c0-.3.1 0 .2 0h.3V62l.2-.1v.1-.1l.1.2-.1.2-1.3 1.5h-.2.1v.1l-.3.5.1.1h-.1l.2.4v.5h.1l.2.1.2.4h.2v.1h.2l.2.2.2-.1h.2v.2-.1h.4q.7-.3 1-1h.2q-.2 0 0 0v-.4q.2 0 0 0l.2-.4.1-.2q-.2 0 0-.1h-.1v-.5.1h-.1q.4-.2.1-.2h-.2.1-.1q.3-.3 0-.1c.4-.3 0-.2 0-.1l-.1-.3h-.1l-.3-.3-.1.1v-.2l-.1.1v-.1l-.3-.1v-.1h-.1v-.7h-.3V61m2 5.1q-.2-.5 0-.6c.1-.1.5 0 0-.2l-.1.3h-.2v.1h-.2l.1.2v.2h-.1l-.1.2-.2-.1v.1l-.4.4h.4q0-.1 0 0v-.2h.2v-.1l.2-.3h.2q.1 0 0-.2zm.2-2.8q.2-.2 0 0v.4q.3-.2 0-.3h.1m-11.4 4.4.4.1.3-.1 3-3 .1-.3-.1-.4-3-3h-.7l-3 3-.1.4.1.3zm.4-5.6 2.2 2.3-2.2 2.2-2.3-2.2z"/><path fill="#82c6dd" d="M90 67.2q0-.3-.2-.3v.2l-.1-.1v.1h-.2.1l.2-.1h.1v-.2h.3v-.1l.3-.2.2-.4h.1l.2-.1v-.2h.3q0-.2.2-.2l.6-.7.1.1h.1l.1-.4v.1h.1c0-.1.3 0 0-.2h.4-.1v-.1h-.1v-.1h-.2v-.1h-.1L92 64v-.1l-.5-.3q.3-.2.1-.2v.1l-.2-.1q-.3 0-.2-.2-.5-.4-.8-.9H90V62q-.2 0 0-.2l-.1.1-.3-.1v-.2q.2 0 0-.1h.2v.2q-.3 0-.2.1l-.2.1-.3.2v.2l-.2.2-.1-.1c.3.2-.2.2-.2.2v.3h-.1v.1h-.2l-.4.6h-.2v.1h-.2v.2-.1l-.3.2-.2.2v.2h-.2v.1h-.1l.6.3h.2l.2.4.5.3v.1q0 .2.3.3l.7.8q.3 0 .2.3c-.8 0-1-.6-1.5-1l-1.6-1.1v-.2q-.3 0-.2-.2 0-.4.2-.4l.3-.3v-.3l.1.2 1-.8h.2v-.2l.1-.2h.2v-.3l1.2-.9V61h.2v.1h.4v.2h.2v.3l.5.2q.2 0 0-.1h-.1c.2-.4-.4-.1-.1-.5q-.2.1-.2 0h-.1V61H90l-.1-.3-.1.2-.2-.2v.1h-.2q0 .2-.2 0v.3l-.2.1q-.1 0 0 .1-.1.2-.4.3l-.3.1v.2h-.1q0 .3-.3 0 .2.4 0 .3v.2h.1q0 .2-.3.3v.1h-.4v.2h-.1v.2h-.4q.2.3 0 .2t-.3.3h-.2l-.4.7q0 .4.2.7h.1l.2.1v.2h.1v.1l.3.2q0 .2.2 0v.3h.2l.2-.1v.1h.1v.1q0 .2.2 0l.2.1-.1.2v.1l.1-.2.3.1v.2-.1q.2 0 .2.3h.2v.3c.3-.2 0 0 0 .2l.4.2.2-.1v.1h.2v.3H89c-1-.2-2.2-1.4-2.8-2v-.3H86v-.2q-.3-.4-.3-1l.5-.8v-.3h.2l.3-.5h.3l.1-.3h.4v-.2q0-.2.2-.3l.5-.3v-.1l.2-.1v-.2h.1l.1-.1V61q.3 0 .5-.3l.2-.3h.9v.1h.2l.1.2h.1q.3 0 .4.3l2 1.8v.1q.2 0 .1.2l.1-.1.3.2.2.2v.1l.2.1.3.9q0 .4-.5.9l-.2.1q0 .3-.2.2v.1H93l-.1.3h-.3.1v.2l-.2-.2.1.2q-.2-.3-.1 0h-.1v.2q-.3-.2-.1.2c-.4-.4-.2 0-.2 0l-.4.3v.1l-.6.5v.1H91v.1l-.2.1-.3.2h-.1v.1h-.2v.2q-.1-.2-.3 0V68l-.1-.4h-.2v-.1zm1.9-3.9q.6-.2.7.2t.3.1l-.4-.3v-.2h-.2v-.3l-.1.1-.1-.1h-.2v-.1l-.3-.1v-.2h-.1l-.6-.5.2.5q.2 0 0 0h.3v.2h.1l.4.3v.1q0 .3.2.1zm.2 2.4s-.3-.1 0 .1q.2 0 .4-.3-.3-.1-.3.1zm-1.7-4.1.2.1v.2h.2v.4q.1-.1.1 0h.1v.1l.1.2q.2 0 .3.2v.1h.2v.3q.1-.1 0 .1l.5.4-.1.1h.3v.2h.1l.4.3-.4.5-.1.2-.2-.1v.1H92l.1.1h-.2v.3l-.2.2h-.1l-.2.3-.1-.1v.2q0 .2-.1 0l-.6.6v.3h-.3.1v.2h-.2l-.3.5-.6-.4V67H89v-.3l-.2.1s.1-.3-.1-.1v-.1l-.2-.3-.1.1-.2-.1.2-.2c-.3.4-.1 0-.2 0H88v-.2l-.4-.3v-.1h-.1v-.2l-.1.1v-.2h-.1l-.1-.2h-.1l-.5-.3.4-.5h.1l.5-.7v-.2l.2-.1.2-.4h.1l.2-.2.5-.4q0-.3.2-.1c.1.7-.3.7-.6 1q-.2.6-.6 1.1h-.1v.1q0 .2-.2.3l.1.1h.2v.1q0 .4.3.6v.1h.1v.1h.3v.2h.1l.6.8h.1v.2h.3v.1h.3l-.1-.1h.1l.1-.1.2-.3q0-.2-.1 0c-.4-.2 0 .3-.4 0q.1.3 0 .2h-.1v.2-.3h-.1v-.1q-.2.1 0-.1h-.2q0-.3-.2 0l-.2-.3h.1v-.2h-.2v-.1q-.2 0 0-.2-.2.2-.1 0h-.3.1q-.2 0-.2-.2h-.1V65h-.1v-.1H88h.1v-.2q-.3.2-.1 0l-.2-.2v-.2.5l.5-.2v-.2h.2l.1-.3h.1l.1-.1v-.1l-.1-.2h.1q.2 0 0-.2.1 0 0-.1l.2.1h.1l-.2-.1v-.2h.2l.1-.1v-.2q.2 0 0 0h.2q-.2-.1.2 0v-.5h.2q-.1 0 0 0l.2.3c0 .8-.8 1.6-1.3 2h-.2l-.5.3v-1 .1h.2v.2l.3.2v.2h.2v.3h.4l.1.5h.3v.2h.2l.1.3h.2l.1.2v.2h.1-.9l.2-.3 1.1-1.3h.1q-.1-.1.1 0v-.3l.2-.1v-.1q.3 0 .5-.3v1-.2h-.3v-.2H91v-.3.1-.1q.3-.2 0 0v-.1h-.1q.1-.3-.2 0c.4-.5.1-.2 0-.2l-.1-.2h-.1l-.3-.4H90v-.2.1l-.1-.2-.1-.1v-.2h-.1q0-.2.2-.2l.2-.4-.1-.1V62zm.8 4q-.2-.4 0-.5.5.1.1-.2l-.2.3h-.3v.3l-.1.2h-.2v.1l-.2.4h.3v-.4h.2-.1q0-.2.2-.3t.1-.1zm.3-1.8q0-.2 0 0v.3q.2-.2 0-.2"/></svg>