<svg xmlns="http://www.w3.org/2000/svg" width="193" height="203" fill="none" viewBox="0 0 193 203"><path fill="#fc6b7e" stroke="#f6f6f1" stroke-width="1.5" d="m106 163.1-1.8 1.2q-.4 0-.8.3l-1 .3q-1.7.7-3 .6-1.5-.2-2.6-1l-2.4-1.8L92 161l-.4-.2a58 58 0 0 1-7.1-5l-7-5.6q-.3-.5-1-.8l-.9-.7q-.7-.5-.9-1.5v-.4l-.4-.2-4-3.2q-.5-.7-1.2-1l-1.4-1a4 4 0 0 1-1.7-2.2l-.1-.2-.2-.2L56 130l-3.6-2.7v-.1h-.2l-.8-.3c-1-1-2-2-3.3-2.7l.2-.3.3-.7-.2-.1-.5.5-.3.4-.4-.2-1.2-.5.1.9-.4.5.3.5 2.1 2.8.3.9.4 1v.3l.4.1v.6l.3.3.7.4h.2l-.1.4.2.4q1.5 1.4 1.7 3.2l.2 1.3v.3l.4.2.1.2.1.3h.2l1.3 1.4q.4.6.3 1.5v.3l.2.3q2.3 3.1 3 7v.3l.2.2q1.4 1.3 1.3 3.5v.2l.7 1.9.6 1.8.4 1.8.5 1.7a5 5 0 0 1-.2 3.2l-.1.2v.2l.2 2.3v1l-.2 1-.3 1.8a3 3 0 0 1-.9 1.3 4 4 0 0 1-1.8.8h-.2l-.2.2q-.8.6-1.3.7l-1.1-.1-1.3-.7-1-.6-.4-.2-2.9-2h.3l-.2-1.4H49v-.1h-1.6q-1.1-.7-2.1-1.8c.8.4 1.9 1.2 3.2 1h.3l-.3-1.5h-.8l-.8-.3-1-.6-.7 1.3-1.6-1.7v-.1l-.3-.3-.1-.2-.2-.1a88 88 0 0 1-19.7-15.4v-.1l-.8-.4q-1-.7-2-1-.8-.4-1.3-1l-.1-.1q-.6-1-.4-1.6 0-.7.8-1.6.3-.4.4-.3h.2q.3 0 .6.4l.3.3.3.3q2.2 1.9 4.3 3 2.2 1.4 3.4 3.5l.2.3h.3q2.3.8 4 2.6l1.9 1.8 1.9 1.9 2.1 1.7 2.1 1.6c2.6 1.7 5 3.2 7 5.4h.2l8.3 5.2.6.4.4-.6.7-1 .7-1 .2-.3-.2-.4q-.8-1.9.5-4v-.5l-.8-3.3-.8-2.4-.1-.4H58l-.5-3.8v-.1l-.4-1-.4-1-8.3-16.8q-.5-.9-1.1-1.3l-1-.8.6.4 1.4 1-.2-1.7-.3-.5-2.8-2-.9-1-.8-.7a2 2 0 0 1-.6-1.8v-.6l-.5-.2q-1.8-.8-2.2-2.4t-.4-3.6q0-1.6.8-2 .6-.5 2.4.1 2 1 3.8 2.5l.3.2H48l.6.6.6.9.8 1 .1.1c3.1 2 6 4 7.9 7l.1.2h.2q1.5.8 2.2 2v.3l.3.1q2.2 1.3 4 3.2l3.7 3.9h.1l1.2.9 1.1.7q1 .6 1.4 1.9v.2l.3.2.2.3v.2l.3.1q2 1.3 3.7 2.7 1.5 1 2.4 2.4l-1.3.6.6 1.4.8-.4q.5 0 .8-.3l.5.2q.8.2 1.2.8l.5.7.6.7.1.1 5 3.8 1.5 1v.1h.2a5 5 0 0 1 2.2 1.2q.8.7 1 2.2v.5l.5.1 7.4 2 .4.2.2-.3.2.1.4.2q.3.3 1.1.2.5-.1.8-.5zm-59.1-31.4Z"/><mask id="a" fill="#fff"><path d="M108 159c1.4-2.8 2.4-5.6.9-8.5-.3-1.5.7-3.3-1.2-4.4-.2-1 0-2.3-1-3.2l-.2-2.3q-.6-2.5-2.3-4.3l-.8-2q.1-2.2-1.9-3.3l-.9-2c-1.6-3.4-3.2-6.9-6.4-9.2-.5-3.1-3-4.8-4.5-7.3l-3.6-3.9c2.5 0 3.6 2 5.2 3.2 1.6.5 2.5 2.2 4.3 2.2l1.3.8c1.7 2.3 4.5 3 6.8 4.4q3.2 3.3 7.7 4.7c2 1.9 4.6 2.5 7 3.8q1.7 1.7 4 1l.6.2.8.6 3.9.7q2 1.5 3.7-.6l3.1-2.2a19 19 0 0 0 4.1-13c.2-2.9.3-5.7-1.5-8.2V105c.9-2.6-1.7-4-2-6.3.3-.9.5-1.8-.6-2.3l-.5-.7c.2-2-.8-3.4-1.7-5l-.4-1a48 48 0 0 0-7.8-13.2 27 27 0 0 0-6.2-9.4q-1.2-3.3-4-5.2a17 17 0 0 0-5.1-6.4l1-1.5.8.4c4.2 2.4 8 5.6 12.9 6.8q.5 1.4 2.1 1.5c4 3.3 8.6 5.5 13.2 7.7 1.2 1 2.4 2 4 2l.8.6c2.7 3.2 7 4 10.4 6l1.8 1.3.7-.8-.7.8c2.7 2 5.4 4 8.8 4.7l3.1 1.9 5 2.6c1.9 1 3.7 1.5 5.4-.2 1.5-1.8 1-3.6-.4-5.2.3-1.2-.7-1.6-1.2-2.3-1-2.2-1.7-4.5-3.4-6.2q-2.4-4.7-5.8-8.6l-2.8-3.5-1-.3-.9 1 .9-1 1 .3c-.3-1.7-1.8-2.5-2.8-3.6-.8-2.5-3-3.8-4.6-5.7a18 18 0 0 0-5.6-6.2c-.8-2.9-4.1-3.7-5.2-6.3l-2.6-2.3c-.8-2.3-3-3-4.6-4.5l-1.1-1.2-1.4 1.6 1.4-1.6c-.7-2-2.5-2.8-4-3.8l-1.3-1.2c-1.1-2.3-3.2-3.5-5.2-5l-.7-.5q-.2-.4-.5-.6c-1-2.5-3.4-3.5-5.3-5-1-.8-1.2-2.4-2.7-2.6l-.6-.2c-1.1-2.4-3.3-3.6-5.4-5l-2.7-2.3q0-.4-.4-.4c-.8-1.9-2.5-2.8-4-4l-1.7-1.3c-1-.5-1.8-2.2-3-1-1.1 1.5.1 2.5 1.3 3.2.8 1.8 1.8 3.2 4 3.1l.2.4.5 1.2c.2 1.4 1.4 2 2.4 2.7l.5-.6-.5-.5v-2 2l.5.5-.5.6c2.8 1.8 4.4 5 7.6 6.1 1.2 2.6 3.5 4.2 5.8 5.6q0 .4.4.5c.3 2 2.2 2.3 3.3 3.4l.7.7c3.4 3.3 6.4 7.1 10.2 10 1.7 2.1 3.1 4.4 5.6 5.8 0 1.6 1.5 2 2.5 2.7 1.6 3 4.6 4.9 6.6 7.5.2 2.3 2.7 2.5 3.6 4a22 22 0 0 0 6.8 7.4q0 .3.3.5c1.3 5 5 8.4 7.7 12.5l.7 1.9 3 3.4q-.6 1.2-2 1l-3.3-2.9-.8-.3c-3-1-5-3.4-8.2-4-1.5-1-2.5-3-4.7-2.8-1.7-.7-2.9-2.3-4.9-2.5l-1.4-.9c-1.5-1.5-3.1-2.9-5.4-3.1l-1.5-1c-1.7-1.9-4.1-2.4-6.2-3.6-1-.9-1.8-1.8-3.3-1.7a127 127 0 0 0-20-11.7c-1.2-1.7-3.2-1.7-4.9-2.5l-1.4-1c-.7-1.2-1.8-1-3-.7-.9-.3-1.6-1.3-2.7-.9-1.3-.2-2.6-.5-3.1 1.4-.5 1.5-.6 2.8.6 4q3.5 4 7.6 7.1c-.3 2 1.2 2.3 2.4 2.9l.5.7 16 21.6 1.2 2.9c0 2.6 2 3.8 3.5 5.4l.2 1.1q.7 4.4 2.9 8l.5-1.9-.5 2c0 1 0 2.3 1.2 3l.6 2 1.6 5.4c-.6 4.5 0 9.1-2.4 13.3l-.5.8-1.7 1.7c-1 0-2.2-.5-3.3.1h-1L113 120c-1.9-1.4-3.7-3-6.1-3.6l-1.5-1c-1-1-1.8-2-3.4-1.8l-.4-.4c-.5-1.5-1.3-2.5-3-2.1q-.6-2.1-2.8-2.1c-.7-1.2-2-1.4-3-2l-1.4-1.1c-3.6-2.8-6.9-6.1-11.3-7.8q0-.3-.3-.4A5 5 0 0 0 76 95c-2-1.3-3.5-3.4-6.1-3.5q-1.7-1.3-2.4.6c-.6 1.5-.6 3.3.8 4 3.7 2.3 5.8 6.2 9.3 8.5l1.5-.2 1.4.7-1.4-.7-1.5.2L88 116.2c.2 1.5 1.4 2 2.3 2.9.3 1.7 1.7 2.6 2.6 4 .4 1.3 2.4 1.4 2.4 3q1.4 4.1 4.4 7l1 1.8q0 .3.4.5c-.3 1.4.7 2.2 1.1 3.3q-.2 1.2 1 1.7c.2 1.5 0 3.1 1.1 4.3-.1 2.4 1.1 4.2 2.1 6.1-.5 3.7-.1 7.6-2.6 10.8l2.6.9zm60.4-86 2 4.4q-.8-2.3-2-4.4m-29.2-4.5.3 1.1 3.7.8-3.7-.8zm-32.9-16 .7.5c.5-.4 1-1.1 1.5-1.3-.6.2-1 1-1.5 1.3zm16.1 27.1q.4.5 1.3.2-.9.3-1.3-.2M100.1 115l-.8-.6zm-11.5-6.6c0-1.7-.5-2.1-1.2-2 .7-.1 1.2.3 1.2 2m-2.9.4h.2z"/></mask><path fill="#fc6b7e" d="M108 159c1.4-2.8 2.4-5.6.9-8.5-.3-1.5.7-3.3-1.2-4.4-.2-1 0-2.3-1-3.2l-.2-2.3q-.6-2.5-2.3-4.3l-.8-2q.1-2.2-1.9-3.3l-.9-2c-1.6-3.4-3.2-6.9-6.4-9.2-.5-3.1-3-4.8-4.5-7.3l-3.6-3.9c2.5 0 3.6 2 5.2 3.2 1.6.5 2.5 2.2 4.3 2.2l1.3.8c1.7 2.3 4.5 3 6.8 4.4q3.2 3.3 7.7 4.7c2 1.9 4.6 2.5 7 3.8q1.7 1.7 4 1l.6.2.8.6 3.9.7q2 1.5 3.7-.6l3.1-2.2a19 19 0 0 0 4.1-13c.2-2.9.3-5.7-1.5-8.2V105c.9-2.6-1.7-4-2-6.3.3-.9.5-1.8-.6-2.3l-.5-.7c.2-2-.8-3.4-1.7-5l-.4-1a48 48 0 0 0-7.8-13.2 27 27 0 0 0-6.2-9.4q-1.2-3.3-4-5.2a17 17 0 0 0-5.1-6.4l1-1.5.8.4c4.2 2.4 8 5.6 12.9 6.8q.5 1.4 2.1 1.5c4 3.3 8.6 5.5 13.2 7.7 1.2 1 2.4 2 4 2l.8.6c2.7 3.2 7 4 10.4 6l1.8 1.3.7-.8-.7.8c2.7 2 5.4 4 8.8 4.7l3.1 1.9 5 2.6c1.9 1 3.7 1.5 5.4-.2 1.5-1.8 1-3.6-.4-5.2.3-1.2-.7-1.6-1.2-2.3-1-2.2-1.7-4.5-3.4-6.2q-2.4-4.7-5.8-8.6l-2.8-3.5-1-.3-.9 1 .9-1 1 .3c-.3-1.7-1.8-2.5-2.8-3.6-.8-2.5-3-3.8-4.6-5.7a18 18 0 0 0-5.6-6.2c-.8-2.9-4.1-3.7-5.2-6.3l-2.6-2.3c-.8-2.3-3-3-4.6-4.5l-1.1-1.2-1.4 1.6 1.4-1.6c-.7-2-2.5-2.8-4-3.8l-1.3-1.2c-1.1-2.3-3.2-3.5-5.2-5l-.7-.5q-.2-.4-.5-.6c-1-2.5-3.4-3.5-5.3-5-1-.8-1.2-2.4-2.7-2.6l-.6-.2c-1.1-2.4-3.3-3.6-5.4-5l-2.7-2.3q0-.4-.4-.4c-.8-1.9-2.5-2.8-4-4l-1.7-1.3c-1-.5-1.8-2.2-3-1-1.1 1.5.1 2.5 1.3 3.2.8 1.8 1.8 3.2 4 3.1l.2.4.5 1.2c.2 1.4 1.4 2 2.4 2.7l.5-.6-.5-.5v-2 2l.5.5-.5.6c2.8 1.8 4.4 5 7.6 6.1 1.2 2.6 3.5 4.2 5.8 5.6q0 .4.4.5c.3 2 2.2 2.3 3.3 3.4l.7.7c3.4 3.3 6.4 7.1 10.2 10 1.7 2.1 3.1 4.4 5.6 5.8 0 1.6 1.5 2 2.5 2.7 1.6 3 4.6 4.9 6.6 7.5.2 2.3 2.7 2.5 3.6 4a22 22 0 0 0 6.8 7.4q0 .3.3.5c1.3 5 5 8.4 7.7 12.5l.7 1.9 3 3.4q-.6 1.2-2 1l-3.3-2.9-.8-.3c-3-1-5-3.4-8.2-4-1.5-1-2.5-3-4.7-2.8-1.7-.7-2.9-2.3-4.9-2.5l-1.4-.9c-1.5-1.5-3.1-2.9-5.4-3.1l-1.5-1c-1.7-1.9-4.1-2.4-6.2-3.6-1-.9-1.8-1.8-3.3-1.7a127 127 0 0 0-20-11.7c-1.2-1.7-3.2-1.7-4.9-2.5l-1.4-1c-.7-1.2-1.8-1-3-.7-.9-.3-1.6-1.3-2.7-.9-1.3-.2-2.6-.5-3.1 1.4-.5 1.5-.6 2.8.6 4q3.5 4 7.6 7.1c-.3 2 1.2 2.3 2.4 2.9l.5.7 16 21.6 1.2 2.9c0 2.6 2 3.8 3.5 5.4l.2 1.1q.7 4.4 2.9 8l.5-1.9-.5 2c0 1 0 2.3 1.2 3l.6 2 1.6 5.4c-.6 4.5 0 9.1-2.4 13.3l-.5.8-1.7 1.7c-1 0-2.2-.5-3.3.1h-1L113 120c-1.9-1.4-3.7-3-6.1-3.6l-1.5-1c-1-1-1.8-2-3.4-1.8l-.4-.4c-.5-1.5-1.3-2.5-3-2.1q-.6-2.1-2.8-2.1c-.7-1.2-2-1.4-3-2l-1.4-1.1c-3.6-2.8-6.9-6.1-11.3-7.8q0-.3-.3-.4A5 5 0 0 0 76 95c-2-1.3-3.5-3.4-6.1-3.5q-1.7-1.3-2.4.6c-.6 1.5-.6 3.3.8 4 3.7 2.3 5.8 6.2 9.3 8.5l1.5-.2 1.4.7-1.4-.7-1.5.2L88 116.2c.2 1.5 1.4 2 2.3 2.9.3 1.7 1.7 2.6 2.6 4 .4 1.3 2.4 1.4 2.4 3q1.4 4.1 4.4 7l1 1.8q0 .3.4.5c-.3 1.4.7 2.2 1.1 3.3q-.2 1.2 1 1.7c.2 1.5 0 3.1 1.1 4.3-.1 2.4 1.1 4.2 2.1 6.1-.5 3.7-.1 7.6-2.6 10.8l2.6.9zm60.4-86 2 4.4q-.8-2.3-2-4.4m-29.2-4.5.3 1.1 3.7.8-3.7-.8zm-32.9-16 .7.5c.5-.4 1-1.1 1.5-1.3-.6.2-1 1-1.5 1.3zm16.1 27.1q.4.5 1.3.2-.9.3-1.3-.2M100.1 115l-.8-.6zm-11.5-6.6c0-1.7-.5-2.1-1.2-2 .7-.1 1.2.3 1.2 2m-2.9.4h.2z"/><path fill="#fc6b7e" d="m157.2 80-.4.6h.2zm2.7 1-.2.6.5.2.3-.4zm-30-53.2h.8v-.4l-.3-.2zm7.2 78.4h-.7l-.2 1.6-.1 1.7h.7l.8.1.1-1.6.2-1.7zm19.4-26.7-.4.6.7.5.4-.6.4-.6-.6-.5zm.7.5-.2.7 2.7 1 .2-.8.3-.7-2.7-1zm2.7 1 .6.4 1.1-1.3-.4-.6-.4-.6-1.5 1.5zm-27.2-52.3.4-.6-2.2-1.4-.4.6-.4.6 2.2 1.4zM145 46.2l.6.5.6-.7-.5-.5-.6-.5-.6.7zm-18.8 80-.2-.7-1 .6.5.5.5.6.4-.3zm-22 18.5-.4.6.5.3.4.3.4-.6.4-.6-.4-.3q-.2 0-.5-.3zM130 27.8l.5-.6-.7-.4-.4.7-.3.6.5.3zm0 0h-.7q.3 2.5 1.7 3.6l.5-.5.5-.5a4 4 0 0 1-1.2-2.6zm8.9 40.6.2-.7q-.4 0-.8-.3l-.8-.3-.2.7-.3.7.8.3.9.3zm4.4 2-.6.3v.3h1.5l-.2-.9zm-41.9-22.8.6.4.3-.3.2-.4-.6-.4-.7-.4-.2.3-.2.4zM116 69.3l.7-.2q-.1-.7-.4-1l-.4-.7-.7.1-.7.2q.1.6.5 1.1l.3.8zm18.6 31.8-.7.2q.3 1.1 1 1.9l.6 1.5.7-.2.8-.1a6 6 0 0 0-.9-2q-.5-.8-.7-1.5zm-56.2-1.7-.7.3.4 1 .4.7.7-.2.7-.2-.4-1-.4-.8zM108 159l1.3.7zm.8-8.4-1.5.3v.2l.2.2zm-1.2-4.4-1.4.3v.7l.7.3zm-1-3.2-1.4.2v.5l.5.4zm-.2-2.3 1.4-.2zm-2.3-4.3-1.4.5v.2l.2.2zm-.8-2-1.4-.1v.7zm-1.9-3.3-1.3.6.2.3.3.3zm-.9-2 1.4-.6zm-6.4-9.2-1.5.2v.6l.6.4zm-4.5-7.3 1.3-.7v-.2l-.2-.1zm-3.6-3.9v-1.4l-3.3.1 2.2 2.4zm5.2 3.2-1 1.2.3.2h.3zm4.3 2.2.8-1.3-.4-.2h-.4zm1.3.8 1.2-1-.2-.2-.2-.1zm6.8 4.4 1-1v-.2h-.2zm7.7 4.7 1-1.1-.3-.2-.3-.1zm7 3.8 1-1.1-.2-.1-.1-.1zm4 1 1-1.2-.8-.6-.8.4zm.6.2 1-1.1-.4-.3h-.4zm.8.6-1 1.2.3.2h.4zm3.9.7 1-1.2-.4-.2h-.4zm3.7-.6-.9-1.2-.2.1-.1.2zm3.1-2.2.9 1.2.2-.1v-.2zm4.1-13H137zm-1.5-8.2h-1.4v.5l.2.4zm0-1.2-1.4-.5v.6zm-2-6.3-1.4-.3v.5zm-.6-2.3-1.3.7.2.4.5.2zm-.5-.7-1.5-.1v.7l.5.5zm-1.7-5-1.3.6v.1zm-.4-1 1.3-.6zm-7.3-12.5-1.5.3.1.4.3.3zm-.5-.7-1.4.5.2.6.5.2zm-6.2-9.4-1.4.5v.3l.3.2zm-4-5.2-1.3.6.1.4.4.2zm-5.1-6.4-1.2-.8-.8 1.1 1 .9zm1-1.5.7-1.3-1.1-.6-.8 1zm.8.4.8-1.3zm12.9 6.8 1.3-.6-.2-.7-.8-.2zm2.1 1.5 1-1.1-.4-.3h-.4zm13.2 7.7 1-1.2h-.2l-.2-.1zm4 2 .9-1.2-.4-.2h-.4zm.8.6 1.1-1-.1-.2h-.2zm10.4 6-.7 1.2L155 78zm-.5-.7 1.2-.8-2.5 1.6zm.5.7-1.1 1 .2.2zm1.8 1.3-.9 1.2zm.7-.8 1.2 1-2.3-2zm8.1 5.5.8-1.3-.2-.1h-.3zm3.1 1.9-.8 1.2h.1zm5 2.6.8-1.3zm5.4-.2-1.1-1zm-.4-5.2-1.4-.3-.2.7.5.5zm-1.2-2.3-1.4.6.1.2.1.2zm-3.4-6.2-1.3.7v.2l.2.2zm-5.8-8.6-1.2.9zm-3.8-3.8.4-1.4-1-.3-.6.8zm0 0 .4-1.4-1-.3-.6.8zm-1.8-3.3-1.5.4.2.4.2.2zm-4.6-5.7-1.2.8v.1zm-5.6-6.2-1.4.4.1.6.5.3zm-5.2-6.3 1.3-.6-.1-.3-.3-.2zm-2.6-2.3-1.4.5.1.4.3.2zM139 35l-1.1 1v.1h.1zm-2.5.4-1-1 2.1 2zm1.4-1.6 1.4-.4v-.1zm-4-3.8-1 1v.1l.2.1zm-1.3-1.2-1.3.7.1.2.2.2zm-5.2-5-1 1.2h.1zm-.7-.5-1.4.5.1.4.3.2zm-.5-.6-1.4.6.2.4.4.3zm-5.3-5 1-1.2h-.1zm-2.7-2.6-1 1.2.4.3h.4zm-.6-.2-1.3.6.3.7.8.2zm-5.4-5-1 1.1h.1v.1zm-2.7-2.3H108v.7l.5.5zm-.4-.4-1.4.6.4.8.9.1zm-4-4-1 1.2v.1zm-1.7-1.3-.7 1.3zm-3-1 1.2 1zm1.3 3.2 1.3-.6-.1-.4-.4-.2zm4 3.1 1.5-.1-.2-1.4h-1.3zm.2.4 1.4-.5-.1-.4-.4-.2zm.5 1.2 1.4-.3v-.2zm2.4 2.7-1 1.2h.2zm.5-.6 1.1.9.7-1-.7-.8zm-.5-.5h-1.5v.7l.5.4zm0-2h1.6l-3-.1zm0 2h-1.5v.7l.5.4zm7.6 7.2 1.4-.6-.3-.6-.6-.2zm5.8 5.6h1.5v-.8l-.7-.4zm.4.5.9-1.2-.3-.2h-.3zm0 0 1.5-.3-.1-.5-.5-.4zM126 27l-1 1.1zm.7.7 1-1v-.1zm10.2 10 1.2-.9-.1-.1-.2-.2zm5.6 5.8 1.2.9 1-1.4-1.5-.9zm0 0 1.5-.1-2.9-.5zm2.5 2.7 1.3-.7-.1-.3-.3-.2zm6.6 7.5 1.5-.1V53l-.3-.3zm3.6 4-1.2.8 2.7-1zm0 0 1.3-.8-2.7 1zm6.8 7.4 1.5-.2-.1-.7-.7-.4zm.3.5 1.5-.3-.2-.7-.6-.3zm7.7 12.5.9 1.2 1-.9-.7-1zm0 0-1-1.1-.9.7.4 1zm.7 1.9-1.4.6v.2l.3.2zm2.5 2.8 1.3-.7v-.2l-.2-.1zm1.3 1.6-1.3.6 2.7-1.3zm-2.8 0-1 1.2.4.3h.4zm-3.3-2.9 1-1.1-.1-.1-.2-.1zm-.8-.3-.4 1.4zm-8.2-4-.7 1.2.2.2h.2zm-4.7-2.8-.6 1.3.3.2h.4zm-4.9-2.5-.7 1.2.3.2h.3zm-1.4-.9-1 1 .1.2h.2zm-5.4-3-.9 1.2.3.2h.4zm-1.5-1-1 1v.1l.2.1zm-6.2-3.6-1 1 .1.2h.1zm-3.3-1.7-.8 1.2.4.3h.6zM112.5 50l-1 1 .1.2.3.2zm-.6-.2-1.3.8.6.8 1-.1zm-4.9-2.5-.8 1.2v.1h.2zm-1.4-1-1.2.8.1.2.3.2zm-3-.7-.4 1.4.4.1.4-.1zm-2.7-.9-.2 1.5h.8zm-3.1 1.4 1.4.4zm.6 4 1.1-1zm7.6 7.1 1.5.3.2-.9-.8-.5zm2.4 2.9 1.1-.9-.1-.3-.3-.1zm.5.7 1.2-1-.1-.1zm16 21.6 1.3-.6v-.2l-.2-.1zm1.2 2.9h1.5V85l-.1-.3zm3.5 5.4 1.5-.2v-.4l-.4-.4zm.2 1.1-1.5.3zm2.9 8-1.3.8.8 1.3 1.2-.7zm.5-1.9 1.4.4.2-.8-.6-.6zm-1-3 1.6.3-3-.5zm.5 5 1.5-.1v-2.5l-2.2 1.2zm1.2 3 1.5-.5-.2-.6-.6-.3zm.6 2-1.4.3zm1.6 5.4 1.4.1v-.5zm-2.4 13.3 1.2.8zm-.4 1.1-1.5.3 3-.5zm-1.8 1.4v1.5h.7l.4-.5zm-3.3.1-.2 1.5h.5l.4-.2zm-1 0-.6 1.3h.4zM113 120l-.8 1.2.2.1zm-6.1-3.6-.9 1.2.3.2h.2zm-1.5-1-1 1v.2h.2zm-3.4-1.8-1.3.7.5 1 1-.2zm-.4-.4-1.4.4.1.4.3.3zm-3-2.1-1.4.5.4 1.2 1.3-.2zm-2.8-2.1-1.3.7.5.8h.9zm-3-2-1 1.1.1.1zm-1.4-1.1 1-1.2zM80 98.2l-1.4-.2-.2 1.2 1 .4zm-.3-.4-1.3.6.3.7.7.1zM76 95l-.8 1.2.2.2h.4zm-6.1-3.5-1 1.1.4.4h.5zm-2.4.6 1.4.5zm.8 4-.8 1.3zm9.3 8.5-.8 1.2.5.3h.5zm1.5-.2.6-1.3-.4-.2h-.4zm1.4.7-.5 1.3 1.1-2.7zm-1.4-.7.6-1.3-.4-.2h-.4zm-1.5.2-.1-1.5-2.9.3 2 2.2zM88 116.2l1.4-.2v-.5l-.3-.3zm2.3 2.9 1.5-.3-.1-.5-.4-.3zm2.6 4 1.4-.4v-.2l-.2-.2zm2.4 3h-1.5v.5zm4.4 7 1.3-.6v-.2l-.2-.1zm1 1.8 1.4-.4v-.2l-.1-.1zm.4.5 1.4.4.3-1.1-1-.6zm1.1 3.3 1.5.3v-.5l-.1-.4zm1 1.7 1.4-.3-.1-.7-.7-.3zm1.1 4.3 1.5.1v-.6l-.4-.5zm2.1 6.1 1.5.2v-.4l-.2-.4zm-2.6 10.8-1.2-.9-1.3 1.7 2 .7zm2.6.9-.4 1.4 1.2.4.5-1.2zm62-89.5 1.3-.7-2.6 1.4zm2 4.4-1.3.6.2.6.7.2zm1.1.1.3 1.5-.5-3zm4.4 4-.6 1.4 1.2-2.7zm-36.7-13 1.5-.3-3 .5zm.3 1.1-1.5.3.2 1 1 .2zm0 0-1.5.3.2 1 1 .2zm-33.2-17 .8-1.3-1.6 2.5zm.7.4-.8 1.3.9.5.8-.6zm1.5-1.3.4 1.4-.8-2.8zM107 53l-.8 1.3.9.5.8-.6zm-4 .6-.9 1.1 1.9-2.3zm0 0 1-1.2-1.8 2.4zm.3.2-.7 1.3 1.4-2.7zM120 74.7l-1.4.6 2.7-1.3zm3.8 5.1 1-1.2-.7-.4-.7.2zm-10.6 40.6-1.4.5.1.4.4.3zm0 0 1.3-.6-2.8 1zm-13-5.5-.8 1.2 1.7-2.4zm-.8-.6.7-1.3-1.5 2.6zm-10.7-6 1.2.9.3-.5v-.5zm0 0-1.4.1 3-.2zm-1.2-2-.3-1.5.6 3zm-10-7.9 1.3-.5-2.8 1zm1 1-.5 1.4 1-2.8zm4.2 6.4.4 1.5-.8-2.9zm3.1 2.9-.1-1.5.3 3zm.2 0 .1 1.4-.3-3zm22.2 50.2 1.3.7c1.3-2.7 2.7-6.1.8-9.8l-1.3.7-1.3.7c1.1 2.2.4 4.3-.9 7.1zm.8-8.4 1.4-.3v-2.1l-.3-1.7q-.4-1-1.5-1.6l-.8 1.3-.7 1.3.3.3v1.5l.1 1.6zm-1.2-4.4 1.5-.2v-.8l-.2-1a4 4 0 0 0-1.2-2.3l-1 1.1-1 1 .3.8v.7l.2 1zm-1-3.2 1.6-.2-.2-1.2-.2-1.1-1.4.2-1.5.2.2 1.1.1 1.2zm-.2-2.3 1.4-.2a10 10 0 0 0-2.6-5l-1.1.9-1.2.9q1.6 1.8 2 3.6zm-2.3-4.3 1.4-.6-.8-1.9-1.4.6-1.4.5.8 1.9zm-.8-2 1.5.2q.2-1.6-.6-3a7 7 0 0 0-2-1.8l-.8 1.3-.8 1.2q.8.5 1 1 .3.3.3 1zm-1.9-3.3 1.4-.7-.5-1-.4-1-1.4.7-1.3.7.4 1 .5.9zm-.9-2 1.4-.6c-1.7-3.4-3.4-7.2-7-9.8l-.8 1.2-1 1.2c3 2 4.4 5.2 6 8.7zm-6.4-9.2 1.4-.2a9 9 0 0 0-2.1-4.6c-1-1.3-1.9-2.1-2.5-3.2l-1.3.7-1.3.7c.8 1.4 2 2.7 2.7 3.6q1.3 1.4 1.6 3.2zm-4.5-7.3 1.1-1-1.8-2-1.8-1.9-1 1-1.2 1 1.8 2 1.9 2zm-3.6-3.9v1.5q1.2 0 2 .7l1 1 1.3 1.2 1-1.2.9-1.1-1-1-1.3-1.2a6 6 0 0 0-4-1.3zm5.2 3.2-.4 1.4 1.6 1a5 5 0 0 0 3.1 1.3v-3q-.5 0-1.3-.6c-.5-.4-1.4-1.2-2.6-1.5zm4.3 2.2-.8 1.2 1.4.8.7-1.2.8-1.3-1.3-.8zm1.3.8-1.2.8q1.6 2.1 3.7 3 2 .9 3.5 1.8l.8-1.2.8-1.2q-2-1.2-3.7-2t-2.7-2.1zm6.8 4.4-1 1q3.5 3.5 8.2 5l.5-1.3.4-1.4q-4-1.4-7-4.3zm7.7 4.7-1 1q1.7 1.7 3.7 2.5t3.6 1.6l.7-1.3.7-1.3-3.7-1.7q-1.8-.8-3-2zm7 3.8-1 1.1q1 1 2.4 1.4 1.5.5 3.2-.2l-.6-1.4-.6-1.3q-.7.3-1.1 0l-1.4-.7zm4 1-1 1q.7.6 1.5.7l.1-1.5.2-1.5.1.1zm.6.2-.9 1.2.7.6 1-1.2 1-1.2-.8-.5zm.8.6-.3 1.5q1 0 2 .3l2 .3.2-1.4.2-1.5-2-.3-1.9-.4zm3.9.7-1 1.1q1.5 1.3 3.2 1 1.6-.5 2.6-1.7l-1.1-1-1.2-.9-.8.7-.8-.4zm3.7-.6.8 1.3 1.6-1.2 1.6-1-.9-1.3-.8-1.2-1.6 1.1-1.6 1.1zm3.1-2.2 1.2 1q4.8-6.4 4.4-14h-3q.3 6.8-3.7 12zm4.1-13h1.5c.1-2.7.3-6-1.7-9l-1.3.8-1.2.9c1.4 2 1.4 4.3 1.2 7.2zm-1.5-8.2h1.5V105h-3v1.3zm0-1.2 1.4.5a5 5 0 0 0-.7-4.5l-.8-1.4-.4-1-1.4.1-1.5.2q.1 1.2.7 2l.8 1.6q.8 1.1.5 2zm-2-6.3 1.5.3q.2-.5.2-1.8 0-.6-.5-1.2l-1.1-1-.7 1.4-.6 1.3v.1l-.2.6zm-.6-2.3 1.3-.7-.7-1-1 1-1.1 1 .2.4zm-.5-.7 1.5.2c.3-2.5-1.1-4.5-1.9-5.9l-1.3.8-1.3.7c1 1.7 1.7 2.7 1.5 4zm-1.7-5 1.4-.5-.5-1.1-1.3.5-1.4.6.5 1.1zm-.4-1 1.3-.7c-2-4.3-4-9-7.5-12.8l-1.1 1-1.1 1c3 3.4 5 7.6 7 12zm-7.3-12.5 1.5-.3q-.3-1-1.2-1.7l-.8 1.3-.7 1.3-.2-.1v-.2zm-.5-.7 1.4-.5c-1.4-4-3.9-7.1-6.6-10l-1 1-1.1 1q4 4 6 9zm-6.2-9.4 1.3-.6q-1.3-3.5-4.4-5.8l-.9 1.2-.8 1.2a10 10 0 0 1 3.4 4.5zm-4-5.2 1.4-.6a18 18 0 0 0-5.6-7l-.9 1.2-1 1.2a15 15 0 0 1 4.8 5.8zm-5.1-6.4 1.2.9.5-.8.6-.8-1.3-.8-1.2-.8-.5.7-.5.8zm1-1.5-.7 1.3.8.4.7-1.3.7-1.3-.8-.4zm.8.4-.7 1.3 3 1.9 3.1 2q3.3 2 7 3l.5-1.4.3-1.5a23 23 0 0 1-6.2-2.7l-3-2-3.2-1.9zm12.9 6.8-1.4.5q.4 1.2 1.4 1.8t2 .7l.1-1.5.2-1.5q-.6 0-.7-.2l-.3-.4zm2.1 1.5-1 1.1c4.2 3.5 9 5.7 13.6 8l.6-1.4.6-1.3c-4.6-2.3-9-4.4-12.8-7.5zm13.2 7.7-1 1.2c1.2.8 2.7 2.2 5 2.3v-1.4l.1-1.5q-1.4-.2-3.2-1.8zm4 2-.8 1.3.4.2.3.3.9-1.2.8-1.3-.4-.2-.3-.3zm.8.6-1.2 1q2.5 2.6 5.5 3.8t5.4 2.4l.7-1.2.7-1.3c-1.8-1-4-1.9-5.6-2.6q-2.6-1.1-4.4-3.1zm10.4 6 1.1-1-.4-.5-1.2.8-1.3.8.7.8zm-.5-.7-1.3.8.7.8 1.1-1 1.1-1-.4-.4zm.5.7-.9 1.2 1 .6.8.7 1-1.2.8-1.2-1-.7-.8-.6zm1.8 1.3 1.2 1 .7-.9-1.2-1-1.1-.9-.7.8zm.7-.8-1.1-1-.7.8 1.1 1 1.2 1 .7-.9zm-.7.8-.8 1.2c2.6 1.9 5.5 4.2 9.3 5l.3-1.5.3-1.5c-3-.6-5.4-2.4-8.2-4.4zm8.8 4.7-.7 1.3 3 1.8.8-1.2.8-1.3-3.1-1.9zm3.1 1.9-.7 1.3 5 2.6.8-1.3.7-1.3-5.1-2.7zm5 2.6-.7 1.3a8 8 0 0 0 3.4 1q2.1.2 3.8-1.5l-1.1-1-1.1-1q-.8.7-1.5.6-.8 0-2-.7zm5.4-.2 1 1q1.6-1.8 1.4-3.9a7 7 0 0 0-1.6-3.3l-1.2 1-1.1 1q.9 1 1 1.7t-.6 1.5zm-.4-5.2 1.5.3q.2-1.7-.7-2.6l-.5-.6-.3-.3-1.2 1-1.2.9.6.6.4.3q0 .1 0 0zm-1.2-2.3 1.4-.5c-.9-2-1.7-4.8-3.8-6.8l-1 1.1-1 1c1.4 1.5 2 3.4 3 5.8zm-3.4-6.2 1.3-.6a43 43 0 0 0-6-9l-1.2 1-1 1q3.2 3.7 5.6 8.3zm-5.8-8.6 1.1-1-1.3-1.7-1.4-1.8-1.2 1-1.1.9 1.3 1.7 1.4 1.8zm-2.8-3.5.4-1.5-.5-.1-.5-.1-.4 1.4-.3 1.4 1 .3zm-1-.3-1.2-1-.8 1.1 1.1 1 1.2 1 .9-1.2zm-.9 1 1.2 1 .9-1-1.2-1-1.2-1-.8 1.1zm.9-1-.4 1.4 1 .3.4-1.4.4-1.5-1-.2zm1 .3 1.5-.4q-.6-1.7-1.6-2.7l-1-.9-.7-.7-1 1-1 1.1.8.9.8.7q.6.6.8 1.3zm-2.8-3.6 1.4-.5a9 9 0 0 0-2.4-3.6q-1.4-1.3-2.4-2.5l-1.2 1-1.1.9q1.4 1.6 2.6 2.7t1.6 2.4zm-4.6-5.7 1.3-.8c-1.5-2.4-3.3-5-6.1-6.7l-.8 1.3-.8 1.3A17 17 0 0 1 156 55zm-5.6-6.2 1.4-.4c-.5-2-2-3.1-3-4q-1.7-1.3-2.3-2.5l-1.3.6-1.4.6c.7 1.7 2.1 2.8 3.1 3.6q1.7 1.2 2 2.5zm-5.2-6.3 1-1.1-2.6-2.3-1 1.1-1 1.1 2.6 2.3zm-2.6-2.3 1.4-.5a7 7 0 0 0-2.5-3.2l-1.4-1-1.1-.9-1 1.1-1 1.2 1.4 1 1.3 1a4 4 0 0 1 1.5 1.8zM139 35l1-1-1-1.2-1.1 1-1.1 1 1 1.2zm-1.1-1.2-1.1-1-1.4 1.6 1.1 1 1.1 1 1.4-1.6zm-1.4 1.6 1.1 1 1.4-1.6-1.1-1-1-1-1.5 1.6zm1.4-1.6 1.4-.4zl-1.4.4zm0 0 1.4-.5c-1-2.5-3.2-3.7-4.6-4.6L134 30l-.8 1.2c1.7 1.2 2.9 1.8 3.4 3.1zm-4-3.8 1-1.1-1.3-1.2-1 1.1-1 1.1L133 31zm-1.3-1.2 1.4-.6c-1.4-2.8-4-4.3-5.8-5.6l-.8 1.3-.9 1.2c2.1 1.5 3.9 2.5 4.8 4.4zm-5.2-5 1-1-.8-.6-1 1-1 1.2.8.6zm-.7-.5 1.4-.6q-.4-.8-1.2-1.3l-.7 1.3-.8 1.3-.1-.2zm-.5-.6 1.3-.6a9 9 0 0 0-2.7-3.4q-.7-.7-1.6-1.2l-1.4-1-1 1.1-.8 1.2 1.5 1.2 1.4 1q1.3 1 1.9 2.3zm-5.3-5 .9-1.3q-.2 0-.3-.3l-.6-.8a4 4 0 0 0-2.6-1.6l-.1 1.4-.2 1.5q.2-.1.5.4l.2.4.3.4 1 1zm-2.7-2.6.9-1.1q-.6-.5-1.3-.6l-.2 1.5-.2 1.5h-.1zm-.6-.2 1.3-.6c-1.3-2.9-4-4.4-5.8-5.6l-.9 1.2-.8 1.2c2.2 1.5 4 2.5 4.9 4.4zm-5.4-5 1-1.2-1.4-1-1.4-1.2-1 1.1-.9 1.2 1.4 1.1 1.4 1.1zm-2.7-2.3 1.5.1q0-.7-.5-1.3-.7-.6-1.3-.7l-.1 1.5-.1 1.5-.7-.4-.3-.7zm-.4-.4 1.4-.6c-1-2.4-3.3-3.6-4.6-4.5l-.9 1.2-.8 1.2c1.7 1.2 3 1.9 3.5 3.3zm-4-4 .9-1-.8-.8q-.4-.4-1.2-.8l-.6 1.3-.7 1.3.5.4.9.8zm-1.7-1.3.6-1.3-.3-.3-.8-.7q-.6-.5-1.7-.6-1.2.1-1.9 1l1.2 1 1 1q.3-.2-.1 0h-.3q.2 0 .6.4t1 .8zm-3-1-1-.9q-.7.8-.9 1.8 0 1 .4 1.8 1 1.2 2 1.8l.8-1.3.8-1.2-.7-.5-.3-.4zm1.3 3.2-1.4.6q.6 1.5 1.9 2.8a5 5 0 0 0 3.5 1.2v-3a2 2 0 0 1-1.5-.6 5 5 0 0 1-1.2-1.7zm4 3.1-1.5.2q0 .9.9 1.4l.8-1.2 1-1.1.3.6zm.2.4-1.4.6.5 1 1.4-.4 1.4-.5-.5-1.2zm.5 1.2-1.5.2a4 4 0 0 0 1.4 2.5l1 .7.6.5 1-1.2.8-1.2-.8-.6-.6-.4-.5-.8zm2.4 2.7 1.2.9.4-.6-1.1-.9-1.2-.9-.3.3-.2.3zm.5-.6 1.1-1-.7-.6-1 1.1-.9 1.1.3.3zm-.5-.5h1.5v-2H109l-1.5-.1-.1 2zm0-2-1.4-.1v1l-.1 1 1.5.1h1.5v-2zm0 2-1 1.1.3.3 1.2-.9 1.1-1-.7-.6zm.5.5-1.2-.9-.3.3-.2.3 1.2.9 1.2.9.2-.3.2-.3zm-.5.6-.8 1.2q1.7 1.3 3.4 3.1 1.7 2 4.5 3.2l.5-1.4.5-1.4a10 10 0 0 1-3.4-2.5c-1-1-2.3-2.5-3.9-3.5zm7.6 6.1-1.3.6a15 15 0 0 0 6.3 6.3l.8-1.3.8-1.2c-2.3-1.5-4.2-2.8-5.2-5zm5.8 5.6-1.5.1q0 .6.5 1.2t1.1.7l.3-1.5.3-1.5.5.4.3.6zm.4.5-1 1.2zl.9-1.2zm0 0-1.5.2a5 5 0 0 0 2 3l1 .7.8.6 1-1 1-1.1-1.1-1-1-.6q-.7-.4-.7-1zM126 27l-1 1.1.7.6 1-1 1-1.1-.6-.6zm.7.7-1 1 4.9 5.2q2.4 2.7 5.4 5l1-1.2.8-1.2q-2.7-2-5-4.7-2.6-2.5-5-5.2zm10.2 10-1.1 1c1.5 1.9 3.2 4.6 6 6l.7-1.2.7-1.4c-2.1-1-3.3-3-5.1-5.3zm5.6 5.8-1.2-1 .7-.5a1.5 1.5 0 0 1 2 1.7v.2h-.1v.1zL141 43v.3a1.5 1.5 0 0 0 2.6 1.2zm0 0H141q.1 2 1.5 2.8l1 .7.7.4.8-1.2.9-1.2q-.5-.5-1-.6l-.6-.4q-.3-.2-.3-.6zm2.5 2.7-1.3.7q1.5 2.5 3.4 4.3 2 1.7 3.3 3.4l1.2-.9 1.2-1q-1.8-2-3.6-3.7a15 15 0 0 1-2.8-3.5zm6.6 7.5-1.5.1a5 5 0 0 0 2.2 3.4l.6.4.5.4.6.5 1.2-.8 1.3-.8q-.7-.9-1.3-1.3l-.7-.5-.5-.3q-.9-.7-.9-1.2zm3.6 4 1.5-.2zl-1.4.2zm0 0-1.2.8c1.8 2.9 4 5.9 7.2 7.9l.8-1.3.7-1.3c-2.6-1.6-4.4-4-6.2-6.9zm6.8 7.4-1.5.1a2 2 0 0 0 1.2 1.8l.6-1.4.7-1.3.3.2.2.4zm.3.5-1.4.4q1.1 4 3.5 7 2.4 3.1 4.3 5.9l1.3-.8 1.2-.8-4.4-6q-2.1-2.8-3-6zm7.7 12.5-1-1.1zl.9 1.1zm0 0-1.5.6.8 1.9 1.4-.6 1.3-.6-.7-1.8zm.7 1.9-1.1 1 1.2 1.4 1.3 1.4 1.1-1 1.1-1-1.3-1.4-1.2-1.4zm2.5 2.8-1.3.7.8 1 1-1.1 1-1.1-.2-.2zm.5.6-.9 1.2.4.4 1.3-.6 1.4-.7q-.5-.8-1.3-1.5zm.8 1 1.4-.7q-.5-.8-1.3-1.5l-.9 1.2-.9 1.2.4.4zm-.8-1-1.2-.8-.4.4h-.2l-.2 1.5-.2 1.4q1.2.2 2.1-.4.9-.5 1.3-1.3zm-2 1 1-1-1.6-1.5-1.7-1.5-1 1.1-1 1.1 1.7 1.5 1.6 1.5zm-3.3-2.9.7-1.3-1.1-.4-.4 1.4-.4 1.4.6.2zm-.8-.3.5-1.4q-1.9-.6-3.7-2t-4.7-2.1l-.3 1.5-.3 1.4q1.9.5 3.7 1.7 1.8 1.4 4.4 2.3zm-8.2-4 .8-1.3-.9-.7-1-1c-.9-.7-2-1.4-3.7-1.3l.1 1.5v1.5q.8 0 1.7.6l1 1 1.3 1zm-4.7-2.8.6-1.4q-1-.4-2-1.3a7 7 0 0 0-3.3-1.3l-.2 1.5-.1 1.4q.8.2 1.8.9 1 .8 2.6 1.5zm-4.9-2.5.8-1.3-.7-.4-.7-.5-.8 1.3-.7 1.3.7.4.7.4zm-1.4-.9 1-1c-1.5-1.5-3.4-3.3-6.3-3.6L143 68l-.2 1.5c1.8.1 3 1.2 4.6 2.7zm-5.4-3 .8-1.2-.7-.5-.7-.5-.9 1.2-.8 1.2.7.5.7.5zm-1.5-1 1.1-1q-1.6-1.7-3.4-2.4L136 62l-.7 1.3-.8 1.3 3.4 1.6q1.6.6 2.5 1.7zm-6.2-3.6 1-1.2c-.7-.6-2.2-2.2-4.4-2l.1 1.5.2 1.5.8.2 1.3 1zm-3.3-1.7 1-1.2a129 129 0 0 0-19.8-11.6l-.7 1.3-.6 1.4c6.7 3.4 13.3 6.8 19.3 11.3zM112.5 50l1.1-1q-.8-.8-2-.6l.3 1.4.2 1.5h-.4l-.3-.3zm-.6-.2 1.2-.8q-1.4-1.7-3-2.2l-1.3-.4-1.1-.4-.7 1.3-.6 1.4 1.5.5 1.2.4q1.1.4 1.5 1zm-4.9-2.5 1-1.2-1.5-1-.9 1.2-.8 1.2 1.4 1zm-1.4-1 1.3-.8q-.9-1.5-2.4-1.6-1.4-.2-2.3.2l.4 1.5.4 1.4 1-.2h.2l.2.3zm-3-.7.4-1.5-.3-.1-.6-.4a3 3 0 0 0-2.7-.3l.5 1.4.5 1.4h.2l.6.4 1 .5zm-2.7-.9.3-1.4-1.1-.2h-1.4a3 3 0 0 0-1.5 1 4 4 0 0 0-.9 1.6l1.5.4 1.4.4.2-.5h.4l.9.2zm-3.1 1.4-1.5-.4Q95 47 95 48.5t1.3 2.8l1.1-1 1.1-1q-.5-.6-.5-1.1t.2-1.6zm.6 4-1.1 1q3.6 4 7.8 7.3l1-1.2.8-1.1a57 57 0 0 1-7.4-7zm7.6 7.1-1.4-.2q-.2 1 0 2l1 1.3 1.2.7.9.4.7-1.3.7-1.3-1-.5-.6-.4v-.4zm2.4 2.9-1.2.9.7.8 1-1 1-1.1q0-.2-.4-.5zm.5.7-1.2.8 8 10.8 8 10.8 1.1-.8 1.2-1-8-10.7-7.9-10.8zm16 21.6-1.4.6.6 1.4.6 1.5 1.4-.6 1.4-.6-.7-1.5-.6-1.4zm1.2 2.9h-1.5q.1 2.5 1.6 4l1.2 1.3 1.1 1.1 1.1-1 1.1-1-1.2-1.2-1-1a3 3 0 0 1-1-2.2zm3.5 5.4-1.5.2.1.6.1.6 1.5-.3 1.4-.2v-.5l-.1-.6zm.2 1.1-1.5.3a25 25 0 0 0 3.1 8.5l1.3-.7 1.3-.8a22 22 0 0 1-2.8-7.5zm2.9 8 1.4.4.3-1 .2-1-1.4-.3-1.5-.3-.2 1-.3.9zm.5-1.9 1-1q-.6-.7-.4-1.7l-1.5-.3-1.5-.2q-.5 2.3 1.3 4.3zm-1-3-1.4-.2q-.5 2.3 1.3 4.3l1-1 1.1-1.1q-.7-.7-.4-1.7zm1 3-1.5-.4-.5 2 1.5.4 1.4.3.5-2zm-.5 2 .7 1.3zl-.7-1.3zm0 0h-1.4l.1 2q.4 1.4 1.9 2.3l.6-1.4.7-1.3-.2-.1v-.2l-.1-.6v-.8zm1.2 3-1.4.3.6 2 1.4-.4 1.4-.4-.5-2zm.6 2-1.4.3.8 2.8.7 2.7 1.5-.4 1.4-.4-.8-2.8-.8-2.7zm1.6 5.4-1.5-.2-.3 3.5-.2 3.3q-.2 3.2-1.7 6l1.3.7 1.3.7q1.8-3.5 2-7.1l.3-3.5.2-3.3zm-2.4 13.3-1.2-.8-.6.8 1.3.8 1.2.8.5-.8zm-.5.8-1.4.5 1.5-.2 1.4-.2-.1-.6zm0 .3 1.5-.2-.1-.6-1.4.5-1.4.5zm0-.3-1.1-1-1.6 1.7 1 1 1.1 1 1.7-1.7zm-1.7 1.7v-1.5h-.6l-1-.2q-1-.1-2.5.6l.8 1.2.7 1.3.8-.1h.8l1 .2zm-3.3.1.2-1.4-1-.2-.2 1.5-.2 1.5 1 .1zm-1 0 .6-1.4-13.2-6.2-.7 1.4-.6 1.3 13.3 6.2zM113 120l1-1.2c-1.9-1.3-4-3.2-6.8-3.8l-.3 1.4-.4 1.4c2 .5 3.6 1.9 5.7 3.4zm-6.1-3.6.8-1.2-.7-.5-.7-.5-.9 1.2-.8 1.3 1.4 1zm-1.5-1 1-1c-.7-.8-2.2-2.6-4.6-2.3l.2 1.5.2 1.5c.7-.1 1 .2 2.2 1.4zm-3.4-1.8 1.3-.7-.6-.8-1 1-1 1.2zm-.4-.4 1.4-.5a5 5 0 0 0-1.5-2.4q-1.4-1-3.2-.7l.3 1.5.3 1.5q.7-.2.8 0l.5 1zm-3-2.1 1.4-.5q-.4-1.2-1.4-2.2-1.2-1-2.9-1l.1 1.6.1 1.5.7.1.6 1zm-2.8-2.1 1.3-.8q-1-1.4-2-1.7l-.9-.4-.6-.4-.8 1.3-.8 1.2 1 .6.8.3q.6.3.7.6zm-3-2 1-1.2-1.4-1-1 1-1 1.2 1.5 1.1zm-1.4-1.1 1-1.2-2.7-2.1-2.7-2.2q-3-2.2-6.3-3.7l-.6 1.4-.5 1.4q3 1.3 5.6 3.3l2.6 2 2.7 2.3zM80 98.2l1.5.2q0-.5-.3-1.3-.5-.7-1.1-.8l-.4 1.5-.3 1.4q-.2 0-.7-.5-.3-.5-.1-.7zm-.3-.4 1.4-.7a6 6 0 0 0-5-3.5l-.2 1.5-.2 1.5q2 .2 2.7 1.8zM76 95l.8-1.2-1.2-1-1.5-1.2q-1.6-1.3-4.2-1.6v3q1.2 0 2.4 1l1.3 1q.7.7 1.6 1.2zm-6.1-3.5 1-1.1q-1.1-1-2.7-.9-1.7.6-2.1 2l1.4.6 1.4.5.1-.3-.2.1h-.2.1l.2.2zm-2.4.6-1.4-.5q-.6 1.4-.4 3c.1 1 .7 2.2 1.8 2.8l.8-1.2.7-1.3q-.3-.1-.4-.7 0-.7.3-1.6zm.8 4-.8 1.3q2.4 1.6 4.4 4 2 2.3 5 4.4l.7-1.2.8-1.3q-2.2-1.5-4.3-4-2-2.4-5-4.4zm9.3 8.5.2 1.5.7-.1.7-.1-.1-1.5-.2-1.5-.7.1-.7.1zm1.5-.2-.6 1.4 1.5.6.5-1.3.6-1.4-1.4-.6zm1.4.7.6-1.4-1.4-.6-.6 1.3-.6 1.4 1.5.6zm-1.4-.7-.2-1.5-.7.1-.7.1.1 1.5.2 1.5.7-.1.7-.1zm-1.5.2-1 1 10.3 11.5 1-1 1.2-1-10.4-11.5zM88 116.2l-1.5.2q.3 1.8 1.4 2.5l.8.7.6.5 1-1 1-1.1-.8-.7-.6-.5-.5-.8zm2.3 2.9-1.5.2a6 6 0 0 0 1.4 2.8l1.4 1.7 1.3-.7 1.2-.8q-.8-1.3-1.6-2-.6-.8-.7-1.5zm2.6 4-1.5.4q.5 1 1 1.5l1 .7.4.4h3c0-1.6-1-2.4-1.7-2.8l-.7-.5-.1-.1zm2.4 3-1.4.5q1.5 4.5 4.8 7.6l1-1 1.1-1q-2.9-2.9-4-6.5zm4.4 7-1.3.8.5.8.5 1 1.3-.8 1.3-.7-.5-.9-.5-.8zm1 1.8-1.5.4q.3 1 1.2 1.4l.7-1.3.7-1.3.3.4zm.4.5-1.5-.3q-.2 1.7.4 2.7l.5.9.3.5 1.4-.5 1.4-.6-.5-1-.4-.6-.2-.7zm1.1 3.3-1.5-.3a3 3 0 0 0 .4 2.1q.5.9 1.4 1.2l.6-1.3.7-1.3-.2-.1zm1 1.7-1.5.3.1 1 .1 1.2q.2 1.5 1.4 2.9l1-1 1-1.1q-.4-.5-.4-1.2l-.1-1-.2-1.4zm1.1 4.3h-1.5q0 2.1.8 3.8l1.5 3 1.3-.7 1.3-.6-1.4-2.8q-.5-1.4-.5-2.6zm2.1 6.1-1.5-.2-.3 3-.2 2.6a10 10 0 0 1-1.8 4.5l1.2 1 1.1.9c1.5-2 2-4 2.4-6l.3-2.8q0-1.5.3-2.8zm-2.6 10.8-.5 1.5 2.7.8.4-1.4.4-1.5-2.6-.8zm2.6.9 1.3.6 1.8-3.5-1.3-.7-1.3-.6-1.8 3.5zm62-89.5-1.3.7 2 4.3 1.4-.6 1.3-.6-2.1-4.5zm2 4.4-.4 1.4q.8.3 1.8.2l-.3-1.5-.2-1.4h-.3zm1.1.1-.2-1.4h-.3l-.5 1.3-.5 1.4q.8.3 1.8.2zm-1 0 1.3-.7-2.1-4.5-1.3.7-1.3.7 2 4.3zm5.4 4 .6-1.3a4 4 0 0 0-2-.4l.2 1.4v1.5l.6.2zm-1.2-.3v1.5l.6.2.6-1.4.6-1.3q-.7-.4-2-.4zm-35.4-12.7-1.5.3.2 1.1 1.5-.3 1.4-.2-.2-1.2zm.2 1.1-.3 1.5 1.9.4 1.8.4.3-1.5.4-1.4-2-.4-1.8-.4zm3.7.8.4-1.4-3.8-.8-.3 1.4-.3 1.5 3.7.8zm-3.7-.8 1.4-.2-.2-1.2-1.4.3-1.5.2.2 1.2zm-33.2-17-.8 1.2.7.5.8-1.3.8-1.2-.7-.5zm.7.4 1 1.2.7-.7.1-.2q.4-.3.1-.2l-.4-1.4-.4-1.4q-1 .4-1.5 1l-.5.5zm1.5-1.3-.4-1.4q-1 .4-1.5 1l-.5.5 1 1.2.8 1.2.8-.7.1-.2q.4-.3.1-.2zM107 53l.8-1.2-.7-.5-.8 1.3-.8 1.2.7.5zm-4.4.1-1.1 1 .6.6 1-1.1.9-1.2-.2-.2zm.5.5.9-1.2-.2-.2-1.2 1-1.1.9.6.6zm0 0-1 1.2q.3 0 .5.3l.7-1.3.7-1.4zm.2.2.7-1.4-1 1.2-.8 1.2.4.3zM116 69.3l-.9 1.2q2.2 1.8 3.4 4.8l1.4-.6 1.3-.7c-1-2-2.1-4.2-4.3-5.9zm3.9 5.4 1.3-.7c-1-2-2.1-4.2-4.3-5.9l-.9 1.2-.9 1.2q2.2 1.8 3.4 4.8zm2.5 5-1 1q.4.5 1.3.7.8 0 1.5-.2l-.5-1.4-.4-1.4q-.3 0 0 0l.2.2zm1.3.1-.9 1.2.3.3 1.3-.8 1.3-.8q-.5-.7-1-1zm.7.7 1.3-.8q-.5-.7-1-1l-1 1.1-.9 1.2.3.3zm-.7-.7-.4-1.4q-.3 0 0 0l.2.2-1 1-1.1 1q.4.6 1.3.8.8 0 1.5-.2zm-10.6 40.6-1 1.2a2 2 0 0 0 1.8 0 2 2 0 0 0 .6-1.4v-.3zl-1.4.5v.1-.3a2 2 0 0 1 .6-1.4 2 2 0 0 1 1.8 0zm0 0-1.5.4v.1zl1.4-.5zm-13-5.5 1-1.2-1-.7-.8 1.3-.8 1.3.8.5zm-.8-.6-.8 1.3.8.5.9-1.2.8-1.2-1-.7zm-10.7-6-1.1-1v.1l-.2.2-.1.8zl1.5-.2-.3 1zm0 0 1.5-.1q0-1.4-.6-2.4a2 2 0 0 0-2.4-1l.3 1.5.3 1.4h-.3l-.4-.3v.2l.1.7zm-1.2-2 .3 1.4h-.3l-.4-.3v.2l.1.7h1.5l1.5-.1q0-1.4-.6-2.4a2 2 0 0 0-2.4-1zm-10-7.9-1.5.6q.5 1.3 2 1.8l.5-1.4.4-1.4-.1-.1zm1 1 .4-1.4-.1-.1-1.4.5-1.4.6q.5 1.3 2 1.8zm4 6.6.6 1.3-.4-1.5-.4-1.4-.5.2zm.2-.2-.4-1.4-.5.2.6 1.4.7 1.3zm3.1 2.9.2 1.5h.1l-.1-1.5-.2-1.5h-.1zm.2 0-.2-1.5h-.1l.1 1.5.2 1.5h.1z" mask="url(#a)"/></svg>