<svg width="406" height="60" viewBox="0 0 406 60" fill="none" xmlns="http://www.w3.org/2000/svg">
<path d="M1.90674 29.4818C1.90674 14.0178 14.4428 1.48175 29.9067 1.48175H375.907C391.371 1.48175 403.907 14.0178 403.907 29.4818C403.907 44.9457 391.371 57.4818 375.907 57.4818H29.9067C14.4428 57.4818 1.90674 44.9457 1.90674 29.4818Z" fill="#F6F6F1"/>
<path d="M0.00272524 27.9586C0.0298383 26.846 0.321834 25.3127 0.570549 24.0345C1.75233 18.7272 2.73804 16.8413 5.40336 12.7532C7.35807 9.71771 12.5877 4.39537 18.5479 2.16671C24.4275 -0.248395 29.9581 0.189189 29.9067 0.599473C29.9067 0.599495 29.9067 0.599517 29.9067 0.599539C29.9067 0.608131 29.9047 0.616823 29.9006 0.625618C29.8198 0.779907 28.0616 1.01767 27.8181 1.2395C27.5793 1.46426 27.8332 2.58748 25.5248 2.99615C22.0671 3.28321 14.5138 6.77287 13.2261 8.18595C12.2414 8.96807 11.16 10.0805 10.0955 11.2704C6.76412 15.1706 5.39554 17.674 4.30645 22.1356C3.64825 23.8567 3.1662 25.663 2.87458 27.5169C2.84954 28.117 2.82345 28.7805 2.81508 29.4818C2.76912 31.6348 3.01074 34.0273 3.26532 35.1231C3.53458 36.3167 3.84136 36.9728 4.24509 38.1722C4.70374 39.5091 5.39682 41.6096 6.78866 43.8082C9.16261 47.3459 10.0612 47.59 11.8816 49.3034C13.7972 51.0545 17.1384 53.4894 20.3264 54.5312C20.7303 54.6472 21.1328 54.7522 21.5394 54.8483C21.2818 54.6777 21.0292 54.5033 20.7808 54.3253C22.3478 54.8428 22.9911 55.191 24.4858 55.5201C26.2501 55.8756 27.1832 55.7964 28.3819 55.8758C28.8301 55.9016 29.3463 55.9458 29.9067 55.9737C30.6108 56.0072 31.3667 56.043 32.1042 56.0386C34.0765 56.0277 33.6453 55.8445 34.7066 55.8102C35.1301 55.7969 42.9594 55.6958 43.4011 55.6944C46.7604 55.6871 47.0529 55.9379 49.7316 55.9598C57.161 56.0196 64.7876 55.817 71.6598 55.7404C74.7284 55.7062 77.9302 55.7207 80.99 55.7608C76.1706 56.4026 86.8362 56.902 82.8474 55.8978C86.2517 56.0407 88.6655 55.7696 91.8928 55.8155C93.9802 55.8454 95.4248 55.9846 98.4054 55.9809C103.694 55.9736 109.479 55.5778 111 56.2932C117.208 56.1671 122.586 56.4265 124.823 55.795C126.424 55.7565 130.527 56.1326 132.322 56.1837C134.021 56.2318 147.05 56.4017 149.182 56.4112C151.313 56.4206 155.045 56.431 156.84 56.3755C159.095 56.307 160.671 55.6521 164.687 56.4178C169.355 56.3558 171.019 56.3778 175.361 56.4667C176.147 56.4828 176.236 56.5965 176.695 56.5966C177.641 56.5966 179.251 56.5126 180.94 56.5023C183.717 56.4856 185.302 56.7248 184.993 56.3594C186.824 56.2981 188.654 56.2369 190.485 56.1756C191.128 56.2461 191.77 56.3167 192.412 56.3872C193.391 56.3103 194.37 56.2335 195.349 56.1566C194.199 56.6853 201.089 56.3733 198.852 56.07C202.401 56.1794 205.951 56.2887 209.5 56.3981C209.005 56.999 217.293 56.4674 216.595 56.1407C217.001 56.1412 217.408 56.1417 217.814 56.1422C221.369 56.3019 224.634 56.1712 228.968 56.2784C233.302 56.3856 232.895 56.4441 234.213 56.7205C235.232 56.7047 236.252 56.6889 237.272 56.673C242.623 55.9153 241.677 57.2272 250.84 56.646C253.768 57.1222 260.984 56.872 265.769 56.7276C266.326 56.7109 266.335 56.6184 267.077 56.5899C268.89 56.5214 273.516 56.6402 273.358 56.3421C274.959 56.4283 276.56 56.5146 278.162 56.6009C279.471 56.5467 280.78 56.4924 282.089 56.4382C282.082 56.3452 282.075 56.2521 282.069 56.159C284.704 56.4762 288.846 56.3543 290.889 56.4302C291.296 56.4455 291.383 56.5739 292.647 56.6089C294.124 56.6505 296.877 56.6125 298.637 56.6526C299.321 56.5104 300.005 56.3682 300.689 56.226C303.837 56.1488 304.943 56.5242 306.791 56.5534C307.124 56.5584 313.195 56.5315 313.522 56.5235C316.201 56.4599 315.442 56.1401 323.187 56.2086C324.566 56.221 325.682 56.3317 326.928 56.3361C329.131 56.3442 335.767 56.0932 336.288 55.8613C338.959 56.1515 346.106 56.0329 348.211 56.1168C348.846 56.1425 348.99 56.3274 350.943 56.3668C352.526 56.3988 356.603 56.2508 358.611 56.2756C360.742 56.3026 361.503 56.4579 362.458 56.4689C363.36 56.4791 364.192 56.3537 365.421 56.3544C369.259 56.3588 372.734 56.5606 375.768 56.5643C375.814 56.5644 375.86 56.5644 375.907 56.5644C380.121 56.5558 383.708 55.2684 386.765 53.7202C387.561 53.3889 388.358 53.0747 389.148 52.6226C396.989 48.322 402.789 38.91 402.675 29.4818C402.691 27.019 402.371 24.6033 401.756 22.3191C401.144 19.763 399.309 15.4573 397.065 12.7146C394.872 9.93774 392.851 8.55987 393.901 10.0055C393.205 9.4381 390.386 6.91041 386.885 5.29241C383.428 3.58803 379.474 2.94733 378.223 2.86779C377.403 2.79595 376.639 2.78228 375.907 2.803C374.327 2.84626 372.918 2.91529 371.517 2.91679C365.246 2.92335 360.83 2.81473 353.197 2.94599C351.226 2.98031 349.114 3.15891 347.946 3.15683C346.54 3.15391 345.027 2.98119 343.205 2.97021C338.863 2.94542 330.77 3.00224 326.604 2.97235C325.843 2.96651 325.576 2.81485 324.488 2.76745C320.252 2.58223 315.503 2.5983 316.343 3.08252C310.913 2.80761 305.89 3.05837 300.858 3.07373C290.218 3.10509 270.837 2.99207 261.568 3.19553C255.723 3.32389 255.873 3.54106 247.268 3.35366C245.358 3.3121 243.456 3.25604 241.139 3.20645C235.709 3.08977 230.727 2.68857 226.588 3.17203C220.556 3.04664 215.753 3.13556 211.278 2.7221C210.75 2.82127 210.223 2.92043 209.695 3.0196C208.956 3.02205 208.217 3.0245 207.477 3.02696C207.246 2.93238 207.016 2.83781 206.785 2.74323C201.488 2.71776 194.767 3.10648 190.283 3.10365C182.766 3.09927 163.402 2.94825 156.274 2.82063C152.489 2.75286 152.285 2.95542 150.119 2.53904C149.272 2.56801 148.426 2.59698 147.579 2.62594C147.049 2.71711 146.52 2.80829 145.99 2.89946C141.134 2.90311 135.375 2.76149 130.75 2.76294C122.321 2.76586 109.664 3.01678 101.2 2.85197C99.0775 2.81041 96.4246 2.6224 94.3463 2.62452C91.3214 2.62743 90.5862 2.93945 86.7477 2.94528C80.132 2.95476 67.8113 2.59229 61.5582 2.62001C59.701 2.62803 58.8344 2.74413 57.552 2.75653C52.1745 2.80976 47.7596 2.80031 42.6032 2.97971C37.0666 2.68071 37.5449 2.29478 35.8291 1.90535C34.5287 1.61143 30.5414 0.930283 29.9753 0.672865C29.5778 0.492015 31.0622 0.259373 30.5051 0.0603029C37.1384 -0.0986724 39.9252 0.0763384 45.3115 0.356375C55.2586 0.345216 65.2057 0.334057 75.1529 0.322897C76.0578 0.43156 76.9628 0.540223 77.8678 0.648885C77.8678 0.649123 77.8678 0.64936 77.8678 0.649597C81.6878 0.775001 83.3069 0.495161 85.367 0.431639C105.09 -0.176568 143.91 0.299458 165.624 0.368009C170.303 0.382589 185.523 0.236166 188.734 0.412645C189.565 0.458606 189.796 0.62616 190.681 0.633452C198.582 0.533812 206.483 0.434172 214.384 0.334531C230.631 0.594877 247.428 0.379864 263.799 0.339755C301.455 0.247377 338.792 0.138075 375.907 0.132039C382.769 0.104195 389.599 2.60775 394.813 7.04135C400.934 11.9174 405.569 21.2855 405.306 29.4818C405.302 30.5533 405.238 31.5923 405.123 32.5897C404.606 36.1647 404.101 37.6037 402.383 41.9942C402.296 42.008 402.209 42.0214 402.123 42.0344C400.365 45.7166 398.948 48.0453 395.585 51.2295C392.977 54.2814 383.351 58.5984 379.8 58.5511C378.02 58.7423 378.674 58.5466 377.018 58.6381C376.69 58.6506 376.317 58.6619 375.907 58.6666C372.925 58.702 367.992 58.8483 364.67 58.8484C361.264 58.8484 355.524 58.6923 352.906 58.7149C343.478 58.7951 333.208 59.0264 323.161 58.9645C320.385 58.9469 316.815 58.7713 315.946 58.7762C314.248 58.7864 313.743 58.957 312.602 58.9789C306.809 59.0898 297.779 58.887 292.101 58.879C273.598 58.8527 253.997 58.9272 235.574 58.8958C223.934 58.8762 204.592 58.9062 193.846 58.7778C191.529 58.7501 192.146 58.5632 190.201 58.5632C188.043 58.5632 186.875 58.6895 185.867 58.6997C178.888 58.7712 163.482 58.8988 156.893 58.7698C155.638 58.745 154.727 58.5985 153.976 58.5991C153.596 58.5991 152.736 58.699 151.542 58.7092C141 58.7996 133.313 58.7414 122.982 58.7071C103.198 58.6422 80.2731 58.8281 59.4888 58.7275C54.9604 58.7056 51.855 58.4159 51.2182 58.4188C49.8209 58.4247 48.9263 58.6195 46.0962 58.6677C41.2474 58.7492 35.5325 58.7335 29.9067 58.7125C24.3625 58.7258 19.0269 56.9839 15.122 54.7066C11.0536 52.5133 6.29958 48.0048 4.0889 43.937C1.88945 40.8663 0.156905 32.2551 0.288491 30.6116C0.242662 30.1685 0.179289 29.8302 0.120798 29.4818C0.0502144 29.0554 -0.0148284 28.6156 0.00272524 27.9586ZM101.581 56.1436C100.961 56.4805 107.468 56.2005 105.027 56.0196C104.477 55.9789 101.741 56.0561 101.581 56.1436ZM400 42.2171C399.888 42.2232 399.776 42.2287 399.664 42.2336C399.31 42.9774 398.921 43.7057 398.498 44.4165C398.802 44.0618 399.099 43.6965 399.386 43.3244C399.599 42.9605 399.805 42.5901 400 42.2171Z" fill="#4A4A4A"/>
<path d="M19.8079 43.7513L30.7664 32.7928C31.6414 33.5383 32.6477 34.1152 33.7852 34.5235C34.9227 34.9318 36.066 35.136 37.2152 35.136C40.0128 35.136 42.3835 34.1642 44.3272 32.2205C46.2708 30.2757 47.2427 27.9044 47.2427 25.1068C47.2427 22.3091 46.2708 19.9384 44.3272 17.9948C42.3835 16.0511 40.0128 15.0787 37.2152 15.0775C34.4175 15.0763 32.0463 16.0488 30.1014 17.9948C28.1566 19.9408 27.1848 22.3114 27.1859 25.1068C27.1859 26.3224 27.4012 27.499 27.8317 28.6365C28.2622 29.774 28.828 30.747 29.5292 31.5555L18.5707 42.5123L19.8079 43.7513ZM37.2134 33.3843C34.8918 33.3843 32.9318 32.5851 31.3334 30.9868C29.7351 29.3884 28.9359 27.4278 28.9359 25.105C28.9359 22.7822 29.7351 20.8222 31.3334 19.225C32.9318 17.6278 34.8918 16.8287 37.2134 16.8275C39.5351 16.8263 41.4957 17.6255 43.0952 19.225C44.6947 20.8245 45.4938 22.7845 45.4927 25.105C45.4915 27.4255 44.6923 29.3855 43.0952 30.985C41.498 32.5845 39.538 33.3837 37.2152 33.3825" fill="#FC6B7E"/>
<path d="M36.7663 32.3832C36.5059 32.3449 36.1661 32.338 35.9043 32.3337C35.8222 32.3323 35.8541 32.3913 35.7966 32.3922C35.6841 32.3936 35.5879 32.3483 35.4763 32.3491C35.4391 32.3495 35.4653 32.4413 35.4264 32.4397C35.2123 32.43 35.0245 32.3578 34.816 32.311C33.7849 32.08 32.8412 31.5635 32.0072 30.8503C31.9163 30.7728 31.8157 30.6923 31.7135 30.6067C31.5071 30.4345 31.2965 30.2423 31.1538 30.0339C31.129 29.9974 31.2026 29.9709 31.2021 29.9606C31.1928 29.8018 31.1044 29.9289 31.0358 29.874C30.7649 29.6562 30.5438 29.342 30.4053 29.0453C30.347 28.919 30.5428 28.9672 30.4034 28.887C30.3938 28.8812 30.3425 28.95 30.3167 28.9208C30.2579 28.8543 30.1942 28.7019 30.1593 28.6446C30.091 28.534 30.0826 28.5141 30.031 28.403C29.9603 28.2517 29.8484 28.0808 29.8035 27.9048C29.7942 27.8673 29.8868 27.8876 29.8792 27.8259C29.8712 27.7643 29.8142 27.6148 29.7803 27.5685C29.7461 27.5224 29.6928 27.563 29.6761 27.558C29.5349 27.5163 29.6462 27.2867 29.6449 27.2633C29.6026 26.8228 29.4437 26.4708 29.3991 26.0545C29.3663 25.742 29.3818 25.4047 29.3784 25.105C29.3783 25.1028 29.3783 25.1005 29.3783 25.0983C29.3737 24.7392 29.347 24.4319 29.393 24.0859C29.3979 24.0494 29.4866 24.1029 29.4928 24.0587C29.5591 23.5913 29.6422 23.1352 29.7193 22.6674C29.7271 22.6204 29.6299 22.6543 29.6331 22.6054C29.6498 22.3095 29.6795 21.7981 30.0819 21.793C30.1495 21.61 30.2441 21.394 30.2676 21.2049C30.2833 21.0828 30.1495 21.1341 30.254 21.0311C30.2776 21.008 30.3246 21.0836 30.3547 21.0464C30.4809 20.8905 30.5785 20.6943 30.7261 20.5575C30.7561 20.53 30.8073 20.5802 30.8242 20.5785C30.9617 20.5633 30.9192 20.3373 30.9315 20.3017C31.0208 20.037 31.1766 19.9111 31.3416 19.7283C31.3801 19.6859 31.4039 19.8 31.4432 19.762C31.515 19.6922 31.5861 19.6216 31.6572 19.549C31.7878 19.4154 31.9143 19.2791 32.0319 19.1394C32.072 19.0915 31.9759 19.0679 31.9926 19.0418C32.0685 18.9265 32.1888 19.0254 32.2646 18.9207C32.2808 18.8989 32.2256 18.8543 32.2246 18.8453C32.2092 18.7041 32.3669 18.796 32.3841 18.7874C32.6083 18.6793 32.6337 18.4443 32.8497 18.3324C32.8753 18.3196 32.8694 18.4279 32.9382 18.3877C33.3973 18.1204 33.8838 17.851 34.3573 17.6034C34.431 17.5651 34.3534 17.5232 34.3554 17.5138C34.3934 17.365 34.5027 17.5077 34.5297 17.5053C34.7439 17.4814 34.8989 17.2893 35.0898 17.4495C35.7718 17.2153 36.4958 17.1961 37.2136 17.1291C37.3919 17.1125 37.5692 17.0929 37.7499 17.067C37.7615 17.0655 37.7455 16.9807 37.7688 16.9782C38.0498 16.9492 37.9884 17.0765 38.1516 17.252C38.1914 17.2959 38.3507 17.1211 38.3655 17.109C38.4169 17.0632 38.3861 16.9336 38.4025 16.9256C38.5394 16.8641 38.4636 17.2691 38.6253 17.2945C38.6306 17.2946 38.6211 17.2163 38.6361 17.211C38.683 17.1946 38.7207 17.2315 38.7671 17.2132C38.8728 17.1709 38.9483 16.9807 39.0736 17.1261C39.089 17.1451 39.0128 17.3669 39.1584 17.3887C39.217 17.3963 39.468 17.465 39.542 17.4717C39.6161 17.4774 39.5892 17.3911 39.595 17.3894C39.8148 17.3508 39.7542 17.29 39.8969 17.1803C40.0415 17.0728 39.9039 17.3968 39.9299 17.4468C39.9558 17.4964 40.1212 17.468 40.1656 17.4545C40.2097 17.4404 40.1838 17.3796 40.22 17.3759C40.4612 17.3553 40.2455 17.5722 40.2899 17.6494C40.3903 17.8318 40.6081 17.6436 40.7592 17.6865C40.7995 17.698 40.7437 17.737 40.7743 17.7577C40.8946 17.8394 41.0104 17.807 41.12 17.951C41.1387 17.9748 41.1757 18.1742 41.3064 18.1185C41.3253 18.1104 41.3282 18.0368 41.3889 18.056C41.4795 18.0841 41.6294 18.1613 41.7003 18.2346C41.7527 18.2886 41.6237 18.3308 41.7183 18.3543C41.7603 18.3649 41.7325 18.2706 41.8091 18.2953C41.8858 18.3195 42.0448 18.4368 42.1033 18.4842C42.1618 18.5309 42.0802 18.5709 42.0817 18.5789C42.092 18.6254 42.1798 18.7433 42.1891 18.751C42.4479 18.9634 42.711 19.1518 42.9597 19.3605C43.1771 19.543 43.3826 19.7405 43.5499 19.9775C43.5781 20.0173 43.4914 20.0463 43.495 20.0529C43.5706 20.2034 43.6657 19.9593 43.7986 20.0044C43.6518 20.0983 43.7199 20.1329 43.7752 20.2379C43.8017 20.2886 43.7295 20.3042 43.7271 20.3124C43.6948 20.4395 43.8341 20.4081 43.865 20.405C43.9779 20.3925 43.917 20.5097 43.9927 20.5029C44.0684 20.4972 44.0989 20.369 44.1625 20.4646C44.1288 20.5256 43.948 20.5473 43.9736 20.6324C44.0723 20.9473 44.4678 21.3999 44.5851 21.634C44.7045 21.8625 44.7236 21.9447 44.7996 22.0762C44.9335 22.3164 44.7855 22.2654 44.7877 22.4397C44.7875 22.6143 45.0436 22.4472 45.1118 22.4508C45.1798 22.4547 45.1254 22.4999 45.1678 22.5186C45.2101 22.5375 45.232 22.4613 45.2657 22.5266C45.3002 22.5927 45.2441 22.813 45.1855 22.8536C45.0622 22.9403 44.8987 22.8945 44.993 23.0582C44.9985 23.0677 45.066 23.0159 45.0832 23.0535C45.2173 23.3531 45.2799 23.6851 45.3705 24.0025C45.3831 24.0463 45.4644 23.9963 45.4727 24.0219C45.5571 24.2894 45.4011 24.2081 45.2522 24.3675C45.4642 24.3169 45.6044 24.3896 45.6168 24.6007C45.6237 24.7278 45.5283 24.7094 45.4648 24.7924C45.4456 24.8169 45.5124 24.9042 45.4683 24.9208C45.324 24.9757 45.162 24.8958 45.2275 25.1043C45.2275 25.1045 45.2277 25.1047 45.2278 25.1049C45.2297 25.1069 45.2369 25.1062 45.2464 25.1049C45.2654 25.1023 45.2935 25.097 45.307 25.1049C45.3111 25.1073 45.3138 25.1109 45.3146 25.1161C45.3446 25.3234 45.1928 25.3453 45.165 25.563C45.1434 25.7331 45.2103 26.0462 45.1992 26.2449C45.4409 26.27 45.3602 26.455 45.1827 26.5032C45.1696 26.6313 45.1356 26.7657 45.1331 26.8919C45.1321 26.9353 45.2065 26.9222 45.2129 26.9291C45.3121 27.036 45.1403 27.0569 45.128 27.082C44.9999 27.3594 45.0491 27.6321 44.8412 27.8655C44.8336 27.8739 44.6698 27.833 44.7599 27.9456C44.7661 27.9533 44.8707 27.8901 44.83 28.0191C44.79 28.147 44.7767 28.4211 44.6258 28.5602C44.5895 28.5945 44.4182 28.6374 44.4728 28.7665C44.4803 28.7839 44.5295 28.7935 44.5455 28.8216C44.5957 28.9123 44.4302 28.8618 44.5265 28.9893C44.6227 29.1165 44.647 29.3009 44.46 29.419C44.4542 29.423 44.3151 29.3928 44.2852 29.4452C44.2375 29.5293 44.1864 29.6601 44.1284 29.7436C44.1007 29.7834 44.049 29.7105 44.043 29.7165C43.8215 29.9548 43.7433 30.1809 43.5415 30.4684C43.5041 30.5219 43.2986 30.5822 43.2809 30.7329C43.259 30.8995 43.658 31.0812 43.3588 31.2459C43.3583 31.2462 43.3578 31.2465 43.3573 31.2467C43.2308 31.3122 42.7632 31.0473 42.777 31.3966C42.4044 31.6393 42.1601 32.0019 41.7316 32.166C41.7123 32.1734 41.5812 32.0844 41.5434 32.1102C41.4871 32.1491 41.4903 32.2267 41.45 32.256C41.2822 32.3797 41.0877 32.419 40.9144 32.5151C40.8482 32.5513 40.9028 32.6031 40.8225 32.6458C40.7415 32.6881 40.649 32.6288 40.5549 32.7182C40.4841 32.7857 40.469 32.9971 40.3579 33.0634C40.2863 32.8904 40.2084 32.9254 40.0502 32.9283C40.0199 32.9287 40.0277 32.8571 40.0123 32.8541C39.9497 32.8403 39.9186 32.9075 39.8576 32.8889C39.8428 32.8844 39.8227 32.8239 39.8097 32.8167C39.6993 32.7537 39.6038 32.9313 39.5858 32.9621C39.5194 33.0795 39.4537 33.0109 39.3922 33.0652C39.3299 33.1195 39.4487 33.1378 39.37 33.1809C39.2061 33.2703 38.9748 33.3083 38.7944 33.3419C38.7221 33.355 38.7574 33.2626 38.7467 33.2625C38.596 33.2662 38.456 33.3765 38.3531 33.218C38.3013 33.6658 38.2589 33.1877 38.0567 33.2947C38.041 33.3032 38.0364 33.5121 38.1053 33.5365C38.1748 33.5608 38.2672 33.4862 38.3644 33.5223C38.3868 33.5311 38.537 33.7077 38.5567 33.7167C38.7066 33.7885 38.6781 33.4782 38.6822 33.4605C38.7316 33.267 38.9148 33.4472 38.9585 33.4534C39.1534 33.4838 39.2982 33.4064 39.4606 33.4144C39.5666 33.419 39.629 33.6125 39.7071 33.5847C39.9681 33.4893 39.9646 33.1926 40.2859 33.3398C40.355 33.3702 40.3815 33.5985 40.5071 33.3638C40.5157 33.3489 40.5919 33.1471 40.7084 33.2071C40.7232 33.2147 40.7482 33.2744 40.7634 33.2739C40.865 33.2687 40.9024 33.1958 41.0068 33.1747C41.1112 33.1535 41.241 33.1313 41.3368 33.057C41.3951 33.0123 41.4186 32.8627 41.4336 32.8208C41.4755 32.7011 41.6327 32.7715 41.6316 32.6526C41.629 32.5338 41.4531 32.4558 41.5468 32.3219C41.6384 32.4629 41.739 32.6038 41.835 32.7432C42.1287 32.5573 42.3759 32.3185 42.6506 32.1119C42.6848 32.0863 42.7064 32.1844 42.7447 32.1585C42.9066 32.0479 42.9947 31.8889 43.1607 31.7742C43.2896 31.6854 43.4799 31.6371 43.6139 31.5375C43.6091 31.5223 43.6059 31.5075 43.604 31.4931C43.5803 31.3125 43.7701 31.1944 43.8669 31.062C43.9036 31.0122 43.8624 30.9811 43.8786 30.9375C43.9392 30.7742 44.0174 30.9427 44.0673 30.926C44.2817 30.8498 43.9967 30.5914 44.1414 30.4228C44.1488 30.4144 44.4009 30.4222 44.4237 30.4124C44.5684 30.3568 44.3793 30.3526 44.4149 30.2783C44.4791 30.1424 44.4966 30.0321 44.6417 29.9207C44.6839 29.889 44.8585 29.8536 44.8257 29.7171C44.8214 29.6993 44.7597 29.6702 44.7617 29.6593C44.801 29.4654 44.9862 29.5684 45.1035 29.5076C45.221 29.4462 45.1702 29.226 45.1472 29.1771C45.0897 29.0484 45.0746 29.2162 45.0625 29.2154C44.9231 29.2056 44.9987 29.1097 45.0295 29.023C44.8488 28.9179 44.9142 28.8119 45.0619 28.9334C45.078 28.947 45.0292 29.0024 45.0295 29.023C45.2485 29.0432 45.3376 28.9193 45.2254 28.6988C45.172 28.5959 45.0504 28.6179 45.169 28.4322C45.222 28.3472 45.3413 28.4361 45.4103 28.3673C45.5685 28.208 45.5279 27.9115 45.6063 27.7185C45.635 27.6477 45.6898 27.741 45.712 27.693C45.7712 27.5646 45.7452 27.4312 45.807 27.3028C45.8127 27.2911 45.8857 27.3404 45.8968 27.2981C45.9816 26.9762 45.9807 26.6825 46.0224 26.3426C46.0434 26.1783 46.1158 25.8871 46.1158 25.7147C46.1175 25.5222 46.071 25.3031 46.042 25.1053C46.026 24.9949 46.0157 24.8928 46.0235 24.8023C46.0369 24.6379 46.12 24.6709 46.173 24.5969C46.2759 24.4525 46.0621 24.2214 46.0287 24.1935C46.0278 24.1928 46.0201 24.3352 45.9717 24.2636C45.8803 24.2277 46.0284 24.1954 46.0287 24.1935C46.0083 24.1734 45.9599 23.8943 45.9671 23.8365C45.9717 23.8051 46.0514 23.812 46.0523 23.7957C46.0716 23.4071 46.016 23.0161 45.8791 22.6454C45.8758 22.6391 45.7941 22.6717 45.7874 22.6568C45.6911 22.4501 45.7507 22.2827 45.7501 22.0824C45.7491 21.8828 45.6735 21.7461 45.4933 21.6994C45.4586 21.5609 45.3163 21.4014 45.2308 21.3148C45.1457 21.2282 45.291 21.1397 45.2895 21.1288C45.2427 20.7919 45.0652 20.6709 44.8796 20.3967C44.7912 20.2656 44.6376 19.9919 44.5507 19.843C44.4827 19.7244 44.402 19.6841 44.3451 19.5703C44.3373 19.5549 44.4074 19.5215 44.4065 19.5156C44.3902 19.3494 44.2875 19.5179 44.2439 19.5162C44.0849 19.5111 43.9979 19.5051 43.9266 19.3362C43.9109 19.2981 44.0317 19.0323 43.9913 18.9653C43.9397 18.8798 43.8948 18.9718 43.8418 18.8817C43.8372 18.874 43.8813 18.8347 43.8357 18.7907C43.7849 18.7416 43.7314 18.6927 43.6762 18.644C43.5033 18.491 43.3157 18.3414 43.1438 18.1866C43.1125 18.1588 43.2144 18.1233 43.1697 18.0817C42.9605 17.8872 42.7085 17.6954 42.4549 17.5708C42.3922 17.5404 42.3901 17.6188 42.3668 17.6262C42.2262 17.6713 42.2157 17.4591 42.1988 17.4443C41.8129 17.0956 41.3937 17.0416 40.9522 16.764C40.9297 16.7487 40.7958 16.4927 40.6458 16.6034C40.6352 16.6104 40.489 16.7257 40.4481 16.5938C40.4454 16.5855 40.5308 16.5285 40.4289 16.5003C40.3276 16.4724 40.1831 16.3649 40.0183 16.4097C39.9654 16.4234 39.8202 16.5467 39.7248 16.3885C39.7206 16.3775 39.5864 16.0441 39.4656 16.2212C39.446 16.2505 39.4111 16.4579 39.2792 16.318C39.2537 16.2911 39.3183 16.2567 39.245 16.2111C39.132 16.1409 38.9604 16.1658 38.8238 16.0488C38.8007 16.0282 38.7075 15.8687 38.6007 15.9641C38.5843 15.9791 38.6016 16.0524 38.5531 16.0539C38.322 16.0615 38.0896 15.992 37.8563 16.0268C37.7743 16.0391 37.8092 16.1551 37.7242 16.1813C37.6391 16.2074 37.4718 16.2313 37.386 16.1783C37.2995 16.1251 37.398 15.9445 37.2648 15.929C37.2476 15.9271 37.2303 15.9253 37.213 15.9237C36.6489 15.8724 36.0913 16.0162 35.5382 16.1255C35.4532 16.1426 35.5129 16.0659 35.3864 16.0876C34.9207 16.1593 34.1003 16.3363 33.7695 16.6255C33.5076 16.851 33.9186 16.774 33.7077 16.9094C33.6081 16.974 33.4047 16.8346 33.3746 16.8412C33.0861 16.9001 32.9513 17.0756 32.715 17.1761C32.6661 17.1972 32.6689 17.097 32.6274 17.1161C32.4847 17.181 32.3652 17.2992 32.2375 17.3739C32.1801 17.4073 32.1544 17.3461 32.1058 17.3845C31.9898 17.4757 31.8988 17.5734 31.8211 17.7067C31.8141 17.7187 31.9318 17.7329 31.8478 17.7987C31.7119 17.9053 31.5832 18.0838 31.3933 18.1634C31.3369 18.1868 31.2363 18.0757 31.2092 18.2367C31.2035 18.2707 31.3479 18.3812 31.1356 18.3642C31.101 18.36 30.7742 18.3785 30.7816 18.5614C30.7826 18.5855 30.7944 18.6384 30.7979 18.6891C30.8014 18.7392 30.7968 18.7871 30.7643 18.8039C30.755 18.8081 30.7245 18.7246 30.6781 18.7609C30.5157 18.89 30.3756 19.0557 30.2182 19.2014C30.176 19.2405 30.168 19.1216 30.1068 19.1821C29.938 19.3487 29.7724 19.5967 29.6601 19.8006C29.6187 19.876 29.709 19.8673 29.7115 19.8767C29.7543 20.0272 29.587 19.9818 29.5602 20.0043C29.3974 20.144 29.379 20.3189 29.2655 20.4718C29.2344 20.5143 29.1855 20.4428 29.1741 20.4484C29.0603 20.5091 29.2228 20.5087 29.2023 20.576C29.1456 20.7646 29.0419 20.9498 28.9494 21.1208C28.9153 21.1837 28.8677 21.0721 28.838 21.1295C28.661 21.469 28.5238 21.8472 28.4604 22.216C28.4487 22.2854 28.5286 22.2643 28.5395 22.2829C28.6168 22.4097 28.4313 22.5053 28.4083 22.5348C28.3041 22.6654 28.3495 22.739 28.3072 22.8673C28.0958 23.4972 28.0484 24.3176 28.0682 24.9262C28.0697 24.9866 28.0719 25.0462 28.0747 25.105C28.112 25.8164 28.2203 26.3902 28.3432 27.084C28.352 27.1318 28.251 27.1026 28.2576 27.1443C28.3484 27.6851 28.542 28.1941 28.7287 28.7131C28.7444 28.7558 28.6376 28.7291 28.6603 28.7993C28.7065 28.9435 28.7908 29.1164 28.8836 29.2404C28.9286 29.3007 28.9524 29.1784 28.9962 29.2393C29.0983 29.3805 29.1905 29.5385 29.2666 29.6977C29.299 29.7657 29.1638 29.713 29.2125 29.7983C29.5441 30.3792 29.936 30.9219 30.4728 31.328C30.5097 31.3559 30.6701 31.2594 30.7099 31.3515C30.6782 31.3919 30.6349 31.4332 30.598 31.4732C30.6374 31.5166 30.6775 31.5595 30.7183 31.6019C31.3373 32.2457 32.0916 32.7526 32.8935 33.1704C32.9297 33.1892 32.8214 33.2416 32.8919 33.2787C33.2993 33.4918 33.7075 33.6966 34.1827 33.755C34.2298 33.7607 34.2611 33.5918 34.3807 33.6572C34.4015 33.6693 34.5886 33.7496 34.6294 33.7988C34.6349 33.8062 34.5772 33.8729 34.6403 33.8929C35.008 34.0075 35.4083 34.071 35.7903 34.0758C35.852 34.0764 35.7994 33.9833 35.8432 33.9828C36.1506 33.9802 36.4754 34.0728 36.7681 34.0077C36.9622 33.9632 36.896 33.8136 36.999 33.6717C37.0133 33.6518 37.1284 33.6502 37.1349 33.566C37.1511 33.3548 37.0998 33.1229 37.1237 32.8978C37.1286 32.8495 37.271 32.9021 37.1869 32.7847C37.1809 32.7769 37.079 32.7372 37.055 32.6968C37.0383 32.669 37.0706 32.5841 37.0365 32.5483C37.0027 32.5124 36.9621 32.5832 36.9057 32.5399C36.8497 32.4959 36.8789 32.4001 36.7663 32.3832ZM44.8388 20.9385C44.7173 20.8873 44.9702 20.7268 44.9634 20.8624C44.9628 20.8691 44.8449 20.9413 44.8388 20.9385ZM42.2373 32.1322C42.2679 31.9469 42.4577 32.0453 42.4422 32.1848C42.4242 32.3254 42.2268 32.189 42.2373 32.1322ZM40.9929 32.7691C41.0855 32.6072 41.3022 32.9727 41.1083 32.9735C41.0971 32.9737 40.9873 32.7785 40.9929 32.7691ZM36.5427 33.6105C36.5446 33.6067 36.6269 33.608 36.6287 33.612C36.6674 33.7096 36.5007 33.7069 36.5427 33.6105ZM39.6793 33.1624C39.7094 33.0944 39.861 33.1172 39.8246 33.2029C39.7945 33.2725 39.6408 33.2477 39.6793 33.1624ZM40.8253 17.5563C40.822 17.5596 40.7678 17.5386 40.7794 17.5163C40.8171 17.4442 40.8814 17.4998 40.8253 17.5563ZM37.4024 33.4887C37.7459 33.4648 37.9216 33.1005 37.5667 33.1574C37.5018 33.1671 37.7114 33.2634 37.6298 33.2984C37.4777 33.362 37.3728 33.1442 37.2181 33.2623C37.189 33.2842 37.3823 33.4912 37.403 33.4892C37.4028 33.489 37.4026 33.4889 37.4024 33.4887ZM44.4959 21.0606C44.4915 21.0607 44.449 20.9929 44.4514 20.9894C44.5123 20.9041 44.5991 21.0425 44.4959 21.0606ZM37.5439 16.9759C37.5393 16.9838 37.3564 16.9874 37.3507 16.98C37.2559 16.8225 37.6317 16.8146 37.5439 16.9759ZM45.2053 26.2487C45.0999 26.3211 45.0747 26.4173 45.1826 26.5028C45.1894 26.4184 45.2005 26.3336 45.2053 26.2487ZM21.142 43.817C21.5335 43.4623 22.0029 42.9536 22.3475 42.5549C22.4556 42.43 22.3592 42.4515 22.4321 42.3636C22.5748 42.1918 22.7397 42.0636 22.8777 41.8909C22.9233 41.8334 22.7998 41.8382 22.849 41.7793C23.1187 41.4571 23.4138 41.1923 23.7009 40.8798C25.1154 39.3409 26.5447 37.867 28.0124 36.3452C28.4964 35.8435 29.0416 35.1904 29.5743 34.7049C29.6365 34.6483 29.6532 34.7358 29.6688 34.7288C29.9119 34.6172 29.7477 34.571 29.8495 34.4412C30.2148 33.9763 30.6631 33.5104 31.0872 33.1136L30.4722 33.1381C30.5205 33.182 30.5685 33.2251 30.6159 33.2675C30.8259 33.4523 30.5149 33.3922 30.7888 33.5026C30.8076 33.5101 30.7993 33.4049 30.865 33.445C31.0131 33.5367 31.2728 33.7382 31.3888 33.8067C31.6115 33.9387 31.6473 33.9617 31.8574 34.0864C32.146 34.2554 32.5147 34.4043 32.8316 34.5669C32.8994 34.602 32.774 34.6337 32.8802 34.696C32.9862 34.7594 33.2892 34.8766 33.398 34.8967C33.5066 34.9178 33.4854 34.8421 33.5084 34.8354C33.5576 34.8202 33.6126 34.8277 33.669 34.8473C33.8296 34.9038 34.0028 35.0586 34.0362 35.0722C34.8503 35.4034 35.6189 35.4547 36.4332 35.5202C36.6887 35.5403 36.952 35.5562 37.2152 35.5623C37.5887 35.5711 37.9627 35.5635 38.3095 35.5287C39.0118 35.456 39.5946 35.3036 40.255 35.1224C40.3247 35.1028 40.2694 35.2174 40.3553 35.1931C41.2675 34.9338 42.1352 34.5183 42.8864 33.9524C42.9614 33.8956 42.8152 33.8924 42.8868 33.8317C43.3358 33.4645 43.8992 32.7794 44.388 32.8052C44.4714 32.7211 44.5577 32.6316 44.6437 32.5371C44.8409 32.321 45.0293 32.0829 45.1477 31.8678C45.2564 31.6681 45.0488 31.7751 45.2516 31.5913C45.297 31.5492 45.3078 31.6612 45.3714 31.5937C45.6395 31.3087 45.8675 30.9473 46.1081 30.6412C46.1572 30.5789 46.2058 30.6345 46.2286 30.6221C46.4184 30.5145 46.4268 30.1521 46.4467 30.0873C46.6106 29.5864 46.7959 29.2597 46.9635 28.8065C47.0015 28.7012 47.0454 28.8585 47.0851 28.7575C47.2894 28.232 47.4306 27.6602 47.4851 27.1132C47.4967 26.9916 47.3976 27.0878 47.3989 27.0293C47.4037 26.7731 47.563 26.739 47.5607 26.4904C47.56 26.4381 47.4877 26.4591 47.4812 26.4488C47.3793 26.2908 47.5592 26.1815 47.5663 26.1435C47.6435 25.7439 47.5344 25.4567 47.5119 25.1068C47.5075 25.0407 47.5059 24.9724 47.5086 24.9004C47.5107 24.8455 47.601 24.968 47.6013 24.813C47.6042 23.7795 47.4034 22.6754 47.0093 21.7269C46.9482 21.5796 46.9222 21.7086 46.9113 21.7016C46.7395 21.5907 46.8629 21.4363 46.8504 21.3848C46.7485 20.9831 46.4597 20.7008 46.5136 20.3619C45.9771 19.407 45.3377 18.5136 44.5602 17.7618C44.0999 17.316 43.5895 16.9185 43.0291 16.6109C43.0101 16.6003 42.994 16.6911 42.9566 16.6698C42.5023 16.4204 42.6573 16.3703 42.4385 16.0529C42.3818 15.9723 42.0543 16.0116 42.0279 16.0145C41.9285 16.0207 41.948 16.172 41.9183 16.1677C41.6775 16.132 41.8987 15.7795 41.6046 15.6409C41.5952 15.6373 41.6018 15.7239 41.5741 15.7195C41.4885 15.706 41.4252 15.6448 41.3398 15.6364C41.1429 15.6188 41.0114 15.7795 40.7901 15.573C40.7614 15.5472 40.8948 15.3436 40.6179 15.2608C40.5086 15.2255 40.0216 15.0782 39.8794 15.062C39.7378 15.0427 39.8148 15.1393 39.8041 15.14C39.4136 15.1507 39.5438 15.2245 39.3328 15.3308C39.1244 15.4398 39.2397 15.1057 39.1707 15.0532C39.1012 15.0002 38.8151 15.0386 38.7448 15.0588C38.6745 15.0781 38.7508 15.1367 38.6898 15.1449C38.2868 15.2015 38.5383 14.9511 38.4133 14.8809C38.1131 14.7178 37.8492 14.9621 37.5699 14.9788C37.4934 14.9835 37.5574 14.926 37.4892 14.9188C37.3875 14.9084 37.3006 14.9143 37.2152 14.9215C37.0747 14.9336 36.9415 14.949 36.7486 14.91C36.6993 14.8993 36.4389 14.7555 36.2847 14.8835C36.2634 14.9018 36.3328 14.961 36.2196 14.985C36.0498 15.0205 35.7459 15.0697 35.5602 15.0765C35.4231 15.0812 35.5615 14.9515 35.3962 15.0114C35.3229 15.0386 35.4729 15.0768 35.3352 15.1229C35.1988 15.1674 34.8424 15.2376 34.708 15.2693C34.5733 15.2996 34.6273 15.2033 34.6152 15.2006C34.5417 15.1854 34.2718 15.2179 34.249 15.2254C33.0859 15.5504 32.1506 16.1763 31.1985 16.8228C31.1234 16.8743 31.121 16.7697 31.109 16.7769C30.8378 16.9378 31.1708 16.9687 31.0482 17.1605C30.9655 17.0055 30.8838 17.1075 30.7042 17.2333C30.6178 17.2941 30.6181 17.2061 30.6063 17.207C30.4194 17.2322 30.4244 17.4049 30.4218 17.4433C30.4109 17.586 30.2499 17.5757 30.2438 17.6727C30.2384 17.7685 30.4208 17.729 30.2709 17.8705C30.1859 17.8665 30.185 17.6418 30.0522 17.7339C30.0133 17.761 29.9732 17.7917 29.9321 17.8255C29.4358 18.2197 28.8914 19.0726 28.6633 19.4536C28.4074 19.8641 28.3238 19.9965 28.207 20.2536C28.0069 20.7218 27.9868 20.5021 27.7996 20.7677C27.6177 21.0389 27.9537 21.0143 27.9934 21.0812C28.0345 21.1465 27.9556 21.1649 27.9671 21.2287C27.9789 21.2919 28.063 21.2006 28.0274 21.3225C27.9907 21.4426 27.7663 21.7291 27.6896 21.7524C27.5259 21.7994 27.4336 21.5988 27.3775 21.9472C27.3746 21.9672 27.4679 21.9283 27.4531 22.0034C27.3341 22.5976 27.2142 23.2112 27.1993 23.8104C27.1975 23.8925 27.2916 23.8296 27.2917 23.8771C27.2987 24.3716 27.1717 24.1827 26.9915 24.4468C27.2114 24.3981 27.3293 24.5549 27.3239 24.924C27.3228 25.024 27.3041 25.0715 27.2772 25.1067C27.2443 25.1497 27.1993 25.1739 27.1638 25.2548C27.1441 25.2992 27.2131 25.4569 27.1702 25.4873C27.0303 25.5888 26.8574 25.4433 26.9462 25.8361C26.9505 25.8531 27.0257 25.7926 27.0347 25.8518C27.0975 26.2324 26.9508 26.2942 26.9948 26.7159C27.029 27.0475 27.2454 27.603 27.3678 27.9547C27.5978 27.8809 27.6441 28.2235 27.5344 28.4132C27.5705 28.5091 27.6064 28.6086 27.6446 28.7073C27.6963 28.8412 27.752 28.9737 27.8162 29.0923C27.8546 29.1629 27.8988 29.0871 27.9097 29.0935C28.0789 29.1877 27.9728 29.3471 27.9888 29.3975C28.1694 29.9377 28.4975 30.2786 28.6923 30.7936C28.6992 30.8115 28.5764 30.9329 28.7609 30.9835C28.7731 30.986 28.7344 30.7965 28.8845 31.0011C29.0031 31.1618 29.2505 31.395 29.4402 31.6327L29.4459 31.4723C29.3848 31.5281 29.3216 31.5787 29.2568 31.6195C29.1844 31.6654 28.938 31.7183 28.8935 31.914C28.8877 31.9402 28.9394 31.9569 28.9353 31.999C28.9212 32.1342 28.76 32.0546 28.7746 32.2446C28.7891 32.4347 28.6831 32.6938 28.366 32.8698C28.3561 32.8756 28.2023 32.8385 28.1263 32.9175C28.005 33.0438 27.8491 33.2393 27.7193 33.368C27.657 33.4295 27.6374 33.3306 27.6256 33.3403C27.1763 33.7231 26.933 34.072 26.5101 34.5406C26.4327 34.6267 26.1171 34.7806 26.0228 35.0027C25.919 35.2463 26.3885 35.3588 25.9199 35.6887C25.7311 35.822 25.1582 35.6567 25.06 36.1373C24.4514 36.651 24.0302 37.2679 23.3997 37.7629C23.3714 37.7852 23.1884 37.7622 23.1303 37.8231C23.0442 37.9137 23.0439 38.0104 22.984 38.0766C22.7342 38.3554 22.4511 38.556 22.2027 38.8172C22.1083 38.9162 22.1919 38.9322 22.0793 39.0504C21.9667 39.1684 21.8242 39.1797 21.6996 39.3676C21.6057 39.5098 21.6217 39.7618 21.4807 39.934C21.3426 39.8078 21.2377 39.9181 21.0116 40.0744C20.968 40.1044 20.9615 40.019 20.9385 40.0308C20.844 40.0778 20.8166 40.1814 20.7236 40.2228C20.7011 40.233 20.6552 40.1886 20.6342 40.1943C20.4541 40.2415 20.3684 40.5302 20.354 40.58C20.2979 40.7704 20.1816 40.7692 20.1135 40.8902C20.0456 41.011 20.2197 40.9029 20.1255 41.0292C19.9302 41.2908 19.6293 41.5771 19.3993 41.8112C19.3073 41.9043 19.3102 41.7809 19.2957 41.7928C19.0889 41.9689 18.9594 42.2266 18.7332 42.2127C18.8662 42.5446 18.7183 42.4272 18.5469 42.4884L18.5231 42.5112L18.5468 42.5361C18.5673 42.5936 18.6079 42.6537 18.6921 42.7069C18.7187 42.7235 18.893 42.6042 18.8318 42.4999C18.8059 42.4557 18.7601 42.4158 18.7098 42.3733L18.7097 42.6513C18.7674 42.583 18.8301 42.5064 18.9155 42.4596C18.9506 42.4403 19.2439 42.4221 19.2735 42.4092C19.505 42.3078 19.3093 42.0649 19.3061 42.044C19.276 41.8142 19.6145 41.772 19.6749 41.7321C19.9511 41.5498 20.1151 41.3241 20.3403 41.1658C20.4874 41.0621 20.6433 41.1935 20.7374 41.0906C21.0504 40.7486 20.9643 40.4339 21.4466 40.2992C21.5498 40.2701 21.6411 40.4929 21.7547 40.1324C21.7618 40.1097 21.8249 39.8207 21.998 39.7905C22.0198 39.7867 22.0651 39.8329 22.0858 39.8199C22.2236 39.7319 22.2624 39.6202 22.4028 39.5147C22.5433 39.4092 22.7172 39.2874 22.842 39.1315C22.9174 39.0376 22.9407 38.8438 22.9603 38.7824C23.0146 38.608 23.2358 38.5839 23.2338 38.4403C23.2321 38.2957 22.9813 38.3242 23.1214 38.0896C23.2472 38.2015 23.3851 38.3076 23.5158 38.416C23.9222 38.0013 24.2878 37.5589 24.705 37.1523C24.7569 37.102 24.7685 37.2181 24.8258 37.1659C25.0669 36.945 25.2231 36.6977 25.4808 36.4764C25.6806 36.3052 25.9516 36.1696 26.1625 35.9928C26.1449 35.7383 26.4788 35.4968 26.6754 35.2754C26.7443 35.1979 26.7031 35.1665 26.7433 35.1026C26.8959 34.8623 26.9241 35.0746 26.9969 35.0396C27.3087 34.8894 27.0564 34.5975 27.3355 34.3318C27.3502 34.3177 27.6716 34.2863 27.7049 34.2711C27.9182 34.1756 27.68 34.195 27.7659 34.0877C27.9228 33.8918 28.0107 33.7346 28.2602 33.5701C28.3331 33.5223 28.5683 33.468 28.6155 33.2809C28.6218 33.2563 28.5653 33.2169 28.5749 33.2017C28.7528 32.9303 28.9093 33.075 29.0887 32.9977C29.2681 32.9203 29.3624 32.6181 29.3728 32.5478C29.4008 32.3647 29.2587 32.5955 29.2454 32.5936C29.0877 32.5702 29.2479 32.4412 29.3508 32.3231C29.2191 32.1594 29.3825 32.0137 29.458 32.2012C29.466 32.2219 29.3662 32.2942 29.3508 32.3231C29.5927 32.371 29.7811 32.2198 29.8332 31.8968C29.8352 31.8843 29.836 31.8729 29.8359 31.8623L30.1219 31.564L29.8569 31.2713C29.7438 31.2665 29.7186 31.3755 29.5359 31.0936C29.4475 30.9531 29.6002 30.9153 29.5457 30.7781C29.4237 30.4675 29.0824 30.1881 28.934 29.8797C28.8808 29.769 29.0077 29.8348 28.9741 29.7581C28.8868 29.5553 28.7456 29.4078 28.6779 29.1928C28.672 29.1734 28.7673 29.1828 28.7393 29.1201C28.6312 28.8751 28.5243 28.6481 28.4218 28.4132C28.3259 28.1934 28.2356 27.967 28.1609 27.7135C28.0841 27.4613 28.0213 26.995 27.9681 26.73C27.8687 26.2735 27.6988 25.7006 27.7227 25.291C27.7277 25.195 27.7428 25.1414 27.762 25.1068C27.7959 25.0447 27.8424 25.0423 27.879 24.9706C27.9883 24.7561 27.815 24.3656 27.7902 24.3089C27.7888 24.3073 27.7552 24.5341 27.7205 24.4097C27.637 24.333 27.7897 24.3112 27.7902 24.3089C27.7708 24.2731 27.796 23.8167 27.8262 23.7291C27.8412 23.6816 27.915 23.7191 27.9214 23.6944C28.0716 23.1054 28.2245 22.5332 28.3869 21.9507C28.3889 21.9401 28.3011 21.9268 28.3069 21.9021C28.3879 21.5549 28.5758 21.384 28.7528 21.1511C28.9313 20.9181 29.0177 20.7137 28.9718 20.4898C29.0948 20.3083 29.2055 20.007 29.2763 19.8325C29.3465 19.658 29.5016 19.7359 29.5131 19.7249C29.8898 19.388 29.9932 19.1083 30.3351 18.7156C30.3948 18.6477 30.48 18.561 30.5767 18.4698C30.7446 18.3109 30.944 18.1456 31.0788 18.0431C31.2463 17.9163 31.3183 17.8047 31.4851 17.7048C31.5078 17.6913 31.5339 17.7671 31.542 17.7645C31.7656 17.7051 31.572 17.6217 31.5871 17.5682C31.6432 17.3754 31.689 17.2598 31.9524 17.1493C32.0143 17.1227 32.3143 17.2451 32.418 17.2001C32.5542 17.1404 32.4574 17.0868 32.6034 17.0283C32.616 17.0233 32.6427 17.0755 32.7245 17.0264C33.1037 16.7999 33.5298 16.5651 33.9664 16.4138C34.0258 16.393 33.9818 16.508 34.0675 16.48C34.4695 16.349 34.915 16.2264 35.3155 16.1056C35.4142 16.0756 35.339 16.0233 35.3574 16C35.4727 15.8585 35.6957 15.9971 35.7269 15.9962C36.2685 15.9771 36.7136 15.8911 37.2148 15.8754C37.4255 15.8694 37.6418 15.8769 37.8738 15.9129C37.918 15.9189 38.2268 16.1264 38.3871 15.9881C38.3973 15.9786 38.5631 15.8359 38.6756 15.9632C38.6823 15.9712 38.582 16.04 38.7381 16.0544C38.8947 16.0691 39.1304 16.1667 39.3588 16.1246C39.4302 16.111 39.6289 15.9914 39.794 16.1688C39.8078 16.1807 40.0209 16.543 40.1852 16.3888C40.212 16.3636 40.2619 16.1552 40.4575 16.3388C40.4941 16.3743 40.3994 16.3898 40.5034 16.4592C40.6613 16.5655 40.912 16.6066 41.0792 16.7876C41.1092 16.8195 41.1963 17.0188 41.3638 16.9829C41.3903 16.9774 41.3867 16.8962 41.4539 16.9221C41.7748 17.0461 42.0577 17.2705 42.3718 17.4266C42.4832 17.4827 42.4962 17.3528 42.6209 17.4038C42.7454 17.4542 42.9766 17.5928 43.0508 17.7205C43.1246 17.8476 42.8953 17.8938 43.0414 18.0337C43.2529 18.2386 43.467 18.4383 43.6804 18.6415C44.1028 19.0438 44.5173 19.4558 44.8569 19.9293C44.9318 20.035 44.8187 19.9825 44.9226 20.1413C45.3225 20.7237 45.7542 21.8346 46.0389 22.3866C46.2778 22.8314 46.1932 22.2076 46.3369 22.5644C46.4055 22.7402 46.2423 22.9817 46.2444 23.025C46.2654 23.4568 46.3992 23.7379 46.4082 24.1299C46.4094 24.2104 46.3173 24.1398 46.3191 24.2076C46.3241 24.4396 46.3742 24.6807 46.3712 24.9047C46.3694 25.0046 46.3039 24.9869 46.3094 25.0787C46.3099 25.0881 46.3104 25.0974 46.311 25.1068C46.323 25.3156 46.3456 25.5011 46.3928 25.7099C46.3972 25.7301 46.4859 25.6017 46.4795 25.7658C46.4687 26.0306 46.4961 26.3677 46.3882 26.6599C46.3556 26.7465 46.2091 26.7251 46.2769 26.9316C46.2904 26.9746 46.4776 26.9587 46.2812 27.1497C46.2492 27.1845 45.9646 27.4971 46.0439 27.7057C46.0654 27.761 46.1719 27.922 46.1172 28.0191C46.1093 28.0319 46.0503 27.9525 46.0161 28.0347C45.8966 28.3243 45.7886 28.6329 45.6349 28.9144C45.5937 28.989 45.5702 28.8401 45.5112 28.9513C45.3493 29.2567 45.1624 29.6439 45.0015 29.945C44.9424 30.0561 45.0468 30.02 45.0483 30.0316C45.0704 30.2228 44.883 30.2057 44.8481 30.2399C44.629 30.4571 44.5504 30.6877 44.355 30.8937C44.3011 30.9503 44.2761 30.8577 44.2609 30.8651C44.1065 30.9431 44.2905 30.9428 44.2364 31.0304C44.1045 31.2433 43.9178 31.4455 43.7297 31.6234C43.7008 31.6507 43.6718 31.6776 43.6431 31.7038C43.564 31.7755 43.5866 31.6271 43.5166 31.6914C43.1007 32.0709 42.6578 32.4407 42.2329 32.7829C42.1528 32.8474 42.2449 32.8703 42.2358 32.8954C42.172 33.0717 41.9039 33.0561 41.8546 33.0677C41.6268 33.124 41.5807 33.2192 41.3982 33.3006C40.514 33.7023 39.3731 34.0703 38.448 34.1953C38.015 34.2586 37.6109 34.2946 37.2152 34.3099C36.5293 34.335 35.8733 34.2865 35.1525 34.1085C35.0809 34.0907 35.1745 34.0173 35.1136 34.0006C34.767 33.9071 34.4244 33.8055 34.0856 33.6865C33.6583 33.5365 33.2423 33.3591 32.8503 33.1327C32.793 33.0995 32.9183 33.067 32.8286 33.0113C32.645 32.8965 32.4095 32.7608 32.2122 32.6637C32.1159 32.6161 32.1935 32.7586 32.0968 32.7086C31.8714 32.5917 31.6482 32.4345 31.4561 32.2593C31.3749 32.1845 31.5599 32.2202 31.451 32.1288C31.428 32.1093 31.4051 32.0896 31.3824 32.0698L30.6875 31.5028L30.0949 32.1212C29.3513 32.8522 28.6179 33.5699 27.952 34.3957C27.9049 34.4542 27.9882 34.6301 27.8511 34.7175C27.8067 34.6899 27.7649 34.6472 27.7227 34.6124C26.593 35.7008 25.5401 36.8435 24.4349 37.9626C24.3883 38.0098 24.4007 37.8601 24.3101 37.951C23.7856 38.4775 23.2564 38.9687 22.7872 39.5744C22.7405 39.6344 22.8887 39.7278 22.7132 39.8667C22.6822 39.8911 22.4294 40.1117 22.342 40.1467C22.3297 40.151 22.3165 40.0515 22.2386 40.1261C21.7868 40.5608 21.3352 41.0381 20.9272 41.515C20.8615 41.5921 20.9975 41.5761 20.9512 41.6315C20.6223 42.0241 20.1843 42.3709 19.894 42.7702C19.7 43.0376 19.8892 43.056 19.8687 43.2808C19.8658 43.3125 19.7252 43.4577 19.7772 43.5245C19.9077 43.6929 20.1406 43.7874 20.2715 43.9751C20.2998 44.0154 20.0715 44.1698 20.2677 44.1394C20.2811 44.1371 20.4474 44.0258 20.5097 44.0198C20.553 44.0155 20.5705 44.1188 20.644 44.0951C20.7174 44.0715 20.72 43.9675 20.8298 43.9162C20.9398 43.8654 20.9732 43.9695 21.142 43.817ZM29.6292 19.056C29.6768 18.8691 29.922 19.0423 29.7496 19.1392C29.741 19.1437 29.6267 19.0655 29.6292 19.056ZM24.126 37.4017C24.1988 37.1424 24.4496 37.1659 24.4045 37.3551C24.3593 37.5442 24.1037 37.4806 24.126 37.4017ZM22.3358 39.0554C22.4563 38.7878 22.7868 39.0572 22.5182 39.2044C22.5027 39.2131 22.3287 39.071 22.3358 39.0554ZM20.4665 42.7412C20.4675 42.7458 20.3675 42.8512 20.3623 42.8509C20.2404 42.8384 20.4404 42.6276 20.4665 42.7412ZM20.5527 40.6899C20.5728 40.5888 20.794 40.4612 20.7692 40.5869C20.7492 40.6881 20.5277 40.8158 20.5527 40.6899ZM37.558 15.1245C37.561 15.12 37.6649 15.1196 37.6618 15.1448C37.6517 15.2254 37.5092 15.198 37.558 15.1245ZM19.6483 43.4388C19.2082 43.0207 18.7003 43.0079 19.1953 43.4476C19.2849 43.5272 19.0921 43.1862 19.222 43.2716C19.4597 43.4282 19.4348 43.7146 19.7192 43.8325C19.7708 43.8537 19.674 43.4621 19.6479 43.4377C19.648 43.4381 19.6482 43.4385 19.6483 43.4388ZM29.416 18.7495C29.415 18.7441 29.5048 18.6314 29.5102 18.6314C29.6323 18.6339 29.453 18.8587 29.416 18.7495ZM43.2991 16.9079C43.3112 16.9048 43.5837 17.1081 43.5865 17.1221C43.6259 17.3503 43.0844 16.946 43.2991 16.9079ZM27.3756 27.9585C27.3288 28.1396 27.3787 28.3308 27.534 28.4125C27.4761 28.2638 27.4264 28.111 27.3756 27.9585Z" fill="#FC6B7E"/>
</svg>
