<svg xmlns="http://www.w3.org/2000/svg" width="232" height="45" fill="none" viewBox="0 0 232 45"><path fill="#000" d="m7.2 23.8-1.2.1q-.9.3-1.3 1.2l-3.4-.2 1.4-10.5h10.5v3.2H5.4l-.7 4.1L6 21q1-.3 2-.3a6 6 0 0 1 4.2 1.6q1.7 1.6 1.7 4.6 0 2.7-1.7 4.8t-5 2q-2.8 0-4.5-1.4a6 6 0 0 1-2-4.2h3.8q.2 1.2.8 2 .6.6 1.9.6 1.4 0 2-1a4 4 0 0 0 .8-2.5q0-1.5-.7-2.4-.6-1-2.1-1m9.5 5.5h4v4h-4zM30 33.7q-3.7 0-5.1-2.5-1.5-2.6-1.5-7.3 0-4.8 1.5-7.3Q26.4 14 30 14t5.1 2.6a15 15 0 0 1 1.5 7.3q0 4.7-1.5 7.3T30 33.7m2.2-4.8q.5-1.7.5-5 0-3.4-.5-5.1T30 17t-2.2 1.7-.6 5 .6 5.1q.4 1.8 2.2 1.8 1.6 0 2.2-1.8"/><path fill="#ed2f24" d="m59.6 27.5 9.9 5.9-2.6-11.2 8.6-7.5-11.4-1-4.5-10.5-4.4 10.5-11.5 1 8.7 7.5-2.6 11.2zm38.2 0 9.8 5.9-2.6-11.2 8.7-7.5-11.4-1-4.5-10.5-4.5 10.5-11.4 1 8.7 7.5L88 33.4zm38.2 0 9.8 5.9-2.6-11.2 8.7-7.5-11.5-1L136 3.2l-4.5 10.5-11.4 1 8.6 7.5-2.6 11.2zm38.1 0 9.9 5.9-2.6-11.2 8.6-7.5-11.4-1-4.5-10.5-4.4 10.5-11.5 1 8.7 7.5-2.6 11.2zm38.2 0 9.8 5.9-2.6-11.2 8.7-7.5-11.4-1-4.5-10.5-4.5 10.5-11.4 1 8.7 7.5-2.6 11.2z"/></svg>