<svg xmlns="http://www.w3.org/2000/svg" width="783" height="171" fill="none" viewBox="0 0 783 171"><path fill="#000" d="M295.81 95.784c-.066 3.774.227 6.746.186 11.346s-.197 5.289-.162 10.558c.035 5.268-.072 10.539-.008 12.885s-.13 2.593-.087 5.925.018 5.349-.045 8.263-.116 11.863-.039 15.118c.077 3.254-.057 6.967-.089 9.199-.01.695-.023 1.243-.037 1.662-.006.178-.019.26-.031.26-.016 0-.031-.127-.033-.356a237 237 0 0 0-.09-4.723c-.104-3.65.011-4.049-.042-8.978s-.161-7.89-.092-13.69-.22-7.131-.056-15.318-.139-9.048-.179-17.206.127-18.455.113-23.373-.049-11.523-.009-18.494c.04-6.972-.061-15.578.01-23.273.072-7.695.162-18.575.222-23.601s.074-6.251.037-11.089c-.021-2.78-.001-6.612.077-9.848.039-1.628.093-1.259.119.38.039 2.397.013 4.365.081 5.6.137 2.468.189 3.516.11 6.632-.08 3.115.1 4.583.08 6.4-.021 1.815-.127 1.785-.045 11.02s.102 14.296.122 17.793-.073 10.799-.039 16.498.003 17.285.057 21.956c.055 4.67-.064 4.68-.131 8.454"/><path fill="#000" d="M438.59 84.19c17.283.066 30.888-.227 51.952-.186 21.065.041 24.22.197 48.344.162 24.123-.035 48.26.072 59.002.008 10.741-.064 11.874.13 27.127.086a4396 4396 0 0 1 37.836.046c13.341.063 54.324.116 69.226.039s31.9.057 42.122.089c3.184.01 5.69.023 7.611.037.814.006 1.19.019 1.19.031 0 .016-.583.03-1.629.033-5.077.01-12.665.034-21.629.09-16.713.104-18.54-.011-41.109.042s-36.129.16-62.685.092c-26.555-.07-32.654.22-70.139.056s-41.43.138-78.785.179-84.508-.127-107.025-.113-52.762.049-84.684.009-71.329.06-106.566-.01c-35.236-.072-85.053-.162-108.068-.222-23.014-.06-28.623-.074-50.775-.037-12.733.021-30.275.001-45.091-.077-7.457-.039-5.767-.093 1.738-.12 10.975-.038 19.985-.012 25.64-.08 11.3-.137 16.103-.189 30.369-.11 14.264.08 20.986-.1 29.302-.08s8.179.127 50.461.045c42.284-.081 65.463-.102 81.476-.122 16.012-.02 49.447.073 75.543.04 26.096-.034 79.149-.004 100.535-.058s21.43.064 38.711.13"/><path fill="#000" d="M543.81 96.224c-.066 3.752.227 6.706.186 11.279-.042 4.574-.197 5.259-.162 10.497s-.072 10.478-.008 12.81-.13 2.578-.087 5.889.018 5.319-.045 8.215-.116 11.794-.039 15.03-.057 6.926-.089 9.145c-.01.691-.023 1.236-.037 1.653-.006.176-.019.258-.031.258-.016 0-.031-.127-.033-.354a234 234 0 0 0-.09-4.696c-.104-3.628.011-4.025-.042-8.925s-.161-7.844-.092-13.61-.22-7.089-.056-15.228-.139-8.995-.179-17.105.127-18.348.113-23.237-.049-11.455-.009-18.386-.061-15.486.01-23.137c.072-7.65.162-18.466.222-23.463s.074-6.214.037-11.024a334 334 0 0 1 .077-9.79c.039-1.619.093-1.252.119.378.039 2.383.013 4.339.081 5.567.137 2.453.189 3.496.11 6.593-.08 3.097.1 4.556.08 6.362-.021 1.805-.127 1.776-.045 10.956s.102 14.213.122 17.69c.02 3.476-.073 10.735-.039 16.4.033 5.666.003 17.185.057 21.828.055 4.643-.064 4.653-.131 8.405"/></svg>