<svg xmlns="http://www.w3.org/2000/svg" width="483" height="74" fill="none" viewBox="0 0 483 74"><path fill="#0ba6e2" d="m482.993 29.832.007-.077c-1.246-.138-2.628-.066-3.94-.147l-.153-.123c-.109.038-.282.103-.417.133-.426.094-.713.078-1.234.074l-.326-.122c.073-.079.216-.196.206-.28-.02-.18-.268-.275-.721-.405a4.5 4.5 0 0 1-.894.237l-.331-.056.33-.25-.287-.032c-1.203.015-2.78.059-3.76.25-.298.059-.454.096-.784.14l-.382.052-.539-.02c-.486-.095-.969-.326-1.521-.383-1.087-.113-4.634.128-6.665-.18-.481-.073-.484-.099-.611-.229 1.207-.421 4.301-.218 5.769-.452a19 19 0 0 1-2.397-.565l.119-.09c.553-.054.799-.082 1.408-.065.458.013.843.02 1.303.018-.516-.054-.998-.085-1.362-.196 1.208-.127 2.948-.027 3.979-.191-.823-.139-2.486-.039-3.482-.06-.742-.014-1.069-.03-1.529-.183q-.076-.026-.148-.054a5 5 0 0 1-.898.198c-.912-.051-1.797-.098-2.667-.186l.267-.085 1.47.058c.496-.072.899-.09 1.471-.094q.09 0 .18.003l.05-.058c-.43-.201-1.035-.226-1.554-.403.372-.09.248-.084.648-.116.691-.055 1.377-.1 2.063-.163-.619-.093-1.83-.067-2.584-.061-.388.002-.625.015-.991-.025-.069-.007-.133-.017-.201-.027-.972.049-1.83.069-2.795.007l-.269-.2c-.219.054-.346.09-.609.136a5.8 5.8 0 0 1-1.346.08l-.106-.114c.104-.025.196-.054.311-.076.597-.116 1.076-.201 1.622-.341-.234-.065-1.22.03-1.818-.038l-.232-.421c.02-.137-.465-.167-.465-.318.448-.053.785-.089 1.099-.169l.064-.009-.013-.005q.072-.018.142-.04c-.14-.18-.191-.169-.782-.28l-.461-.002-.105-.078c2.564-.092 5.521-.187 6.476-.23-2.398-.102-4.756-.114-7.13-.13a3 3 0 0 0-.279-.086l-.221.047.052.036-.87-.008.039-.082-.456-.082-.057-.09c2.549-.132 5.165.041 7.74-.121l.255-.017c.951-.02 1.459-.014 2.332.088.276-.076.289-.108.701-.128.763-.037 1.295-.068 1.947-.176-.275-.12-.469-.114-.979-.143-1.334-.077-2.876.056-4.31.007l-.134-.075c.507-.094 8.935-.344 10.68-.424-3.637-.154-7.18-.101-10.83-.172-2.059-.04-4.166-.146-6.234-.165q.189-.04.375-.09a42 42 0 0 0-.966-.137c.465-.152 3.566-.193 4.511-.255 1.359-.09 4.598-.258 5.288-.55l-.106-.099c-2.209.011-5.77-.303-6.628-.278-.538.016-1.044.025-1.586.033l-.263-.193.888-.13c-.4-.057-.746-.114-1.103-.186-1.144-.233-2.561-.148-3.712-.376.621-.033 1.409-.034 1.863-.142-.621-.065-1.156-.12-1.678-.229.132-.102.152-.168.11-.275-1.159-.15-2.877-.115-4.154-.203-.935-.064-1.854-.192-2.721-.3l1.297-.405.897.004.256-.061c-.297-.154-1.513-.215-2.148-.306l.071-.102c2.123-.413 3.835-.04 6.054-.23l-.112-.203c.543-.078.256-.068.864-.03l.356.185c.507-.072.565-.162.81-.288l-.184-.078c-.547-.03-.295-.025-.841-.022-2.176.011-4.353-.022-6.537-.003-1.635.015-3.239.08-4.877.073l-.251-.077.352-.095c1.785-.084 3.649-.172 5.468-.181 1.23-.007 2.524.044 3.738.007 1.307-.04 2.376-.157 3.74-.148l1.019-.05.238-.099c-1.704-.264-3.551.236-5.345-.327-.784.027-1.751.087-2.519.049.653-.242 1.536-.029 1.374-.46.454-.004.695-.002 1.144.028-.089.092-.165.11-.409.18.437.058.546.064 1.034.026.298-.024.694-.094.95-.132.568.045.787.116 1.169.226.545-.026.26-.003.757-.062.849-.102 1.997-.075 2.683-.233-.077-.154-.248-.193-.627-.32l-.446-.014c-.347.07-.677.14-.994.219-.394-.12.153-.175-.479-.211l-.545.128a18 18 0 0 1-1.281-.076c-.649-.06-1.175-.043-1.851-.034-.434.007-.252.01-.668-.025.227-.105.73-.108.731-.2 3.502-.126 8.132.194 10.685-.261l-.105-.066-1.699.027a4.6 4.6 0 0 0-.784-.222l-.446.196-.343-.008-.443-.229-.144-.003a3.4 3.4 0 0 1-.86.285c-.582-.006-.887-.004-1.352-.099l.328-.208c-.608-.095-1.45-.045-2.135-.032l-.214.067.261.118c.308-.019.58-.04.875-.07l.276-.03c.057.133.128.113-.182.238-.202.015-.383.03-.588.039-.47.02-1.172.032-1.748.004.179-.015.338-.034.46-.06a1.3 1.3 0 0 0-.354-.148l.33-.017.146-.138c-.16-.149-.469-.276-.755-.411 1.064-.047 2.65-.058 3.536-.217l-1.33-.11c-.39-.142-.822-.316-1.397-.41-.606-.1-1.095-.075-1.767-.044-.651.031-1.183.05-1.844.048a6 6 0 0 1-.383-.073c.441-.014.85-.054 1.529-.123 1.885-.19 4.212-.014 6.104-.235q.018-.185.008-.37l.363-.06c.354-.062.567-.108.834-.19l-.269-.09q-.178.015-.358.028c-.539.04-.736.05-1.274.007a15 15 0 0 0-1.307-.037 1.2 1.2 0 0 0 .329-.117l-.492-.16c-.14.01-.276.025-.42.03-.532.018-.66 0-1.015-.097.606-.169 2.011-.098 2.912-.124.597-.017 1.185-.017 1.583-.136-.179-.056-.187-.065-.45-.114-1.492-.28-4.716-.098-6.387-.022a9 9 0 0 1-1.373-.011q-.229-.02-.456-.043l.259-.08c.249-.029.643-.066.87-.11.593-.117.469-.228.519-.402.91-.163 2.282-.13 3.366-.204l-.335-.155c.421-.07.826-.136 1.313-.172 1.486-.109 2.095.163 3.37.227 1.484.075 3.149-.335 4.713-.127l-.164.171.251.025.621-.198c.388.053.823.113 1.264.131a6.6 6.6 0 0 0 1.501-.088l-.876-.107.097-.08c.341-.015.691-.033 1.034-.043.678-.02.982-.03 1.519-.137.358-.071.566-.115 1.019-.144.459.1.218.063.709.118.552-.155 2.35-.663 2.091-.881-.029-.025-.502-.208-.506-.222-.024-.079.425-.127.473-.205-.506.005-.293.02-.654-.025l.054-.09c.866-.112 2.449-.044 3.441-.042l-.369-.126.149-.047c2.425.262 1.02.486 1.464.749.682.03 1.002.034 1.647-.033l.011-.102-.49-.096-.458.093-.387-.048.221-.191a9 9 0 0 1-.935-.39l.276-.082a19 19 0 0 0 2.565-.189l.007-.077c-1.246-.138-2.628-.066-3.94-.147l-.153-.123c-.109.038-.282.103-.417.133-.426.094-.713.078-1.234.074l-.326-.122c.073-.079.216-.196.206-.28-.02-.18-.267-.275-.721-.405a4.5 4.5 0 0 1-.894.237l-.331-.057.33-.25-.287-.032c-1.203.016-2.78.06-3.76.251-.297.059-.454.095-.784.14l-.382.051-.539-.02c-.486-.094-.969-.325-1.521-.382-1.087-.114-4.634.127-6.664-.18-.482-.073-.485-.099-.612-.23 1.207-.42 4.301-.218 5.769-.451a19 19 0 0 1-2.397-.565l.119-.09c.553-.055.8-.082 1.408-.065.458.013.843.02 1.303.018-.516-.055-.998-.085-1.362-.197 1.208-.126 2.948-.026 3.979-.19-.823-.14-2.486-.04-3.482-.06-.742-.015-1.069-.03-1.529-.184q-.076-.026-.148-.053c-.282.09-.509.139-.898.198-.912-.052-1.797-.099-2.667-.187l.267-.085 1.47.058a10 10 0 0 1 1.471-.094q.091.001.18.004l.05-.058c-.43-.202-1.035-.226-1.553-.403.371-.09.247-.084.648-.116.69-.056 1.376-.101 2.062-.163-.619-.094-1.83-.067-2.584-.062-.388.003-.625.016-.99-.024-.07-.008-.134-.018-.202-.027-.972.048-1.83.068-2.795.006l-.269-.2c-.219.054-.346.09-.609.136a5.8 5.8 0 0 1-1.346.08l-.106-.113c.104-.026.196-.055.311-.077.597-.115 1.076-.2 1.622-.341-.234-.065-1.219.03-1.818-.038l-.232-.421c.02-.137-.464-.167-.464-.318.54-.064.92-.098 1.292-.222-.141-.181-.192-.17-.783-.28l-.461-.003c-.268-.194-.459-.374-1.038-.524l-.221.047c.223.155.398.239.22.405l-.387.031-.57-.112c-.111-.105-.131-.165-.09-.275q.022-.051.049-.102l-.456-.082-.057-.09c2.549-.133 5.165.04 7.74-.122l.254-.017c.951-.02 1.459-.014 2.332.088.276-.076.29-.107.702-.127.763-.037 1.295-.068 1.946-.177-.275-.12-.469-.114-.979-.143-1.333-.076-2.876.057-4.309.007l-.135-.075c.508-.093 8.936-.343 10.68-.424-3.636-.154-7.18-.1-10.829-.171-2.256-.044-4.569-.173-6.824-.172-2.623 0-5.218.297-7.824.369-3.128.086-17.236.003-18.613.22-.41.066-.954.185-1.452.167-.514-.018-1.023-.124-1.523-.143-1.399-.053-2.551.423-4.127.303-.11-.147.107-.212.448-.326.149-.05.198-.06.354-.099l-.159-.028-.216.019c-.662.055-1.012.055-1.703.057-1.997.005-2.368.288-4.494-.018l-.059-.084 1.093-.116.107-.098-.328-.021-1.311.215c-1.327.221-3.301.361-4.849.27-.475-.027-.609-.014-.894-.114l.697-.102-.048-.036c-2.141-.098-4.629.507-5.944.336l-.242-.168c-.884-.046-1.577.256-2.648.23a1 1 0 0 1-.138-.21c-.905.044-1.686.166-2.53.068l-.485-.285c-.45-.034-.263-.042-.672.01-.856.108-1.901.557-2.683.569a1.6 1.6 0 0 1-.126-.504c-.783-.15-1.848-.09-2.815-.088l-.197.048c-.525.126-.827.205-1.573.232-1.004-.082-2.605-.315-3.642-.196-.296.033-.534.121-.736.183-.435-.095-.641-.207-.916-.333-.573-.012-.353-.035-.744.047-.32.067-.547.14-.806.222-.371.118-.592.162-1.178.205l-.399-.028-.084-.072c-.22-.182-.335-.301-.943-.425-.691-.041-1.049-.07-1.69.024-1.154.17-2.141.466-3.411.574q.144-.18.28-.363l-.309-.08a19 19 0 0 0-1.771.164 3.4 3.4 0 0 1-.622-.208c-3.608-.022-7.224.072-10.846.043-1.54-.013-3.083-.15-4.587-.146-.681.002-1.193.077-1.796.145q-.27.03-.543.057c-.943-.226-1.55-.208-2.786-.2-3.243.022-6.279.116-9.349.384-2.54-.25-4.613-.345-7.324-.388-.689.319-1.447.744-2.949.853a7 7 0 0 1-1.695-.082c-.97-.174-1.631-.51-2.82-.579-1.386.26-1.402.721-3.373.649l-.439-.105.359-.147-.338-.006c-.52.125-.856.248-1.562.29l-.155-.073c.261-.128.842-.326.764-.466l-.902.231-.425-.002.175-.214-.424.005-.145.205-.439.021a25 25 0 0 1-.524-.29c-2.124-.01-3.036.78-5.32.428.07-.108.588-.187.594-.204.035-.103-.822-.529-.922-.687-.761-.106-1.521-.072-2.327-.016-1.07.075-2.28.206-2.892.456-.079.032-.135.068-.204.101-.225.11-.427.16-.794.24l-.195.175c-.256-.166-.303-.281-.89-.387l-.647.014-.14.12c.537.107.691.094.832.272l-.295.073-.926-.239c-.233.087-.189.141-.223.244l-.347.011-1.235-.275-.279.01c-.043.099.033.154-.264.223-.979-.27-2.218-.7-3.772-.718a15.5 15.5 0 0 0-2.267.116c-.432.34.755.446-.77.697-.511-.11-.235-.295-.762-.329-.004.179.101.286-.273.443-.472-.022-.656-.146-.93-.243-.321.101-.272.174-.339.3l-.287-.02-.035-.125a.65.65 0 0 0-.195-.302c-.559.176-.95.478-1.706.587-.422-.065-.418-.08-.544-.199-.139-.13-.117-.275-.125-.41l-.291-.065c-.158.141-.187.26-.221.404l-.245.004-.431-.299c-.566.12-.325.439-.928.49l-.101.067.018-.283a3 3 0 0 0-.817.282c-.358-.024-.908-.313-1.12-.405l-.275.016-.231.17c-1.228-.095-2.073-.43-3.428-.295-.497.2-.441.49-1.155.618-1.726.013-3.694.069-5.397.011-1.042-.035-2.042-.126-3.071-.17-.721-.03-1.506.094-2.059.195-.078-.322 1.013-.279-.002-.66-.515-.056-.552-.064-1.093-.033-.697.326-.178.715-.879 1.025l-.558-.031-.078-.07a4 4 0 0 0-.296-.23c-.432-.054-.754-.124-1.251-.066-.19.022-.588.1-.764.133l-.527-.025c-.136-.113-.098-.15-.021-.263-.761-.105-16.8.232-19.595.247-2.001.012-3.982-.099-5.972-.137-2.773-.053-5.597-.055-8.378-.063-8.644-.024-17.166.152-25.785.254-7.15.084-14.268.01-21.41.052-7.304.043-14.642.23-21.943.13-3.55-.049-19.971-.44-22.227-.261-.436.035-.846.156-1.158.238l-.45.004-.09-.206c-2.208-.146-4.639.216-7.095.054-1.074-.07-1.616-.023-2.603.066-1.244.112-2.683-.244-4.338-.108.107.107.211.103.54.168-2.191.038-4.061-.446-5.601-.317.336.191.843.165 1.461.278a931 931 0 0 1-3.495-.083c.669-.13.95.044 1.709-.194l-.112-.068c-.587.02-1.166.042-1.758.047q-.291.152-.617.3c-1.071.053-3.291.013-3.946.246-.045.016-.078.034-.117.052l.159.113c-.521-.037-.534-.043-.868-.152.263-.217.878-.189.883-.43l-.392-.15h-.21q-.379.19-.715.384c-.324-.033-.446-.066-.693-.127a47 47 0 0 0-1.038.031l-.073-.074c-.159-.156-.235-.288-.709-.404-.534-.017-1.039.01-1.432.118-.092.025-.154.056-.231.084l.581.127-.354.12-.411-.002.07-.178-.323.021-.362.245-.311-.015-.087-.099a1.4 1.4 0 0 0-.295-.244l-.424-.008-.14.08a5 5 0 0 1-.471.225c-.659-.024-.587-.037-1.036-.147-.058-.297-1.064-.504-1.612-.778L97.15.88c-.07.197.291.352.602.526l-.126-.046-.243.008-.182-.034c-.54-.1-.891-.151-1.568-.18l.23.062c.352.097.223.059.54.181l-.255.096-.329-.01-.495-.28c-.544.011-.616-.012-1.036.086.402.104.173.071.666.11l-.122.114c-.131.126-.147.079-.102.147l-.553.052a7 7 0 0 1 1.284.04c-.433.07-.76.079-1.263.051-.69-.037-1.818-.202-2.487-.11-.24.033-.431.077-.638.12-.634.011-1.01.025-1.601-.047l-.288-.283-.328-.013-.336.099.186.171-.45.029-.356-.182c-.511.024-.733.079-1.116.165l-.392-.024-.06-.123c-.106-.205-.145-.464-.814-.605-.192-.04-.409-.07-.617-.105-.629-.103-.969-.255-1.733-.266l-.212.134c.989.265 1.17.033 2.255.454l-.12.164-.418.046c-.29-.164-.234-.195-.875-.263l-.42.02c-.034.08.01.16-.022.24-.009.022-.068.042-.102.063-.172-.097-.396-.185-.611-.277-.639-.054-.908-.015-1.55.027-2.787-.287-10.246-.31-13.28-.14-.258-.013-.578-.104-.75-.15l-.174-.05c-.387.06-1.031.195-1.442.225-.751.053-3.204-.072-4.328-.045-.559.137-.606.172-.825.363-.409-.016-.82-.016-1.232-.02-.409.094-.556.13-1.095.174l-.17-.155c-.87-.064-1.388-.038-2.268.015l-.314.02c-.8-.08-1.601-.102-2.37-.194-1.264.06-3.956.072-5.061-.095-.29-.044-.194-.045-.255-.143.88-.007 2.193.04 2.897-.083a8 8 0 0 0-.898-.025c-.72.023-1.202.024-1.91-.024-1.476-.1-2.708.007-4.17-.084L43.18.807c-.095.02-.202.037-.283.061-.113.033-.196.072-.294.108-.22-.135-.15-.14-.661-.226l-.728.07c-.333.11-.669.211-1.046.311-.54-.032-.546-.03-.884-.141l.454-.138-.1-.102c-.594-.011-.553-.041-1.047.061l.028.237-.289.07a50 50 0 0 0-1.418-.106c.333-.068.546-.121.768-.215-.432-.14-.94-.09-1.648-.193.029.11.033.22.031.33-.618.036-.326.048-.876-.037l.171-.21-.307-.023c-.328.122-.756.201-1.208.291l-.133-.03.513-.208-.08-.083c-1.598-.069-3.737.19-5.31.304l-.38-.128c-.415.128-.768.222-1.3.322l.072.117c.473.077.765.079 1.319.082.166.108.037.13-.106.237l.31.029.683-.266c.894-.025 1.789 0 2.693-.017l.493.07c-.087.113-.225.186-.452.285.419.006.177.006.723-.005l.052.082c-.663.078-1.148.073-1.853.067l-.548-.085-.03-.08c-.04-.098-.01-.06-.094-.135-.37.072-.497.126-.692.233-1.248.011-1.376-.068-2.28-.27l.109.173c-.634.125-2.137.125-2.927.089a4 4 0 0 1-.76-.105l-.44.17.133.102c1.017.091 2.019.05 2.987.172 2.046.257 5.904-.047 7.741.279.184.173.29.346.398.523-.49.112-.638.091-1.306.1l-.336-.044.282-.03c.309-.036.527-.072.792-.124l-.055-.147-.392-.04c-1.202.164-1.404-.034-2.914.222-.622.105-1.157.129-1.885.151l-.325.074.222.093h.422c1.17.001 2.479.12 3.613.195l-.156.136c2.398.043 4.848-.036 7.273-.01 4.29.045 8.5.196 12.77.279 1.51.029 3.222-.057 4.617.077.817.079 1.449.08 2.313.078 4.527-.016 8.801.183 13.263.267 1.983.038 4.014-.056 5.97.063.056.132-.072.152-.304.266-1.02.052-.963-.132-1.756-.168-.41-.019-2.582.174-3.166.192-.801.024-1.47-.054-2.24-.051-1.11.004-2.708.113-3.77.066-.55-.023-.323-.036-.765-.085-.12-.013-.452-.033-.599-.042l-.542.249-.245.004-.312-.163-.388-.013a.84.84 0 0 0-.294.278l-.476.02-.298-.066.103-.209c-.541-.07-.533-.052-1.099-.035-.18.147-.108.072-.214.225l-.438-.021-.431-.197-.96-.036c-.43.091-.347.08-.467.207-.684-.072-.239-.236-1.021-.225l-.33.198c-.292-.058-.345-.133-.49-.218a3.5 3.5 0 0 0-.405.326l-.458.042-.212-.084.206-.21-.322-.06-.195.066c-.425.14-.7.263-1.405.31l-.415-.038-.38-.275-.423-.049c-.222.13-.188.16-.128.297-.587-.079-.878-.182-1.304-.308l-.264.03.037.241c-.611.106-1.513.058-2.24.028-.63-.026-.88-.062-1.224-.195.003-.01.018-.019.01-.028-.027-.025-.077-.05-.115-.074l-.684.003c-.15.1-.207.165-.26.269l-.385.02q-.075-.048-.154-.094c-.209-.124-.102-.077-.382-.17-.213.098-.296.212-.746.244-.454.033-.806.017-1.264.003.067-.092.046-.146.001-.237-1.872-.154-5.76-.211-7.586-.034-.51-.073-.957-.176-1.546-.161-1.105.026-2.163-.106-3.243-.012l-.233.12c.193.124.386.191.748.286l-.103.097c-.966.104-1.706-.042-2.696.077l-.075.093c.735.203 2.158.263 3.125.386-1.289.009-.741-.119-2.08.082l-.104.046c.816.074 1.61.114 2.41.03q.082-.134.179-.265c1.331.137 1.364.445 2.992.301q.15.017.302.03c.405.035.552.029.949.002l.033.128c-.522.134-1.228.09-1.948.092.456.169 2.198.35 2.27.527-.922.123-2.201.093-3.22.069a9 9 0 0 0-.822.015l-.105.064.355.135c-.377.122-.453.11-1.037.135-.373.016-.27.009-.732-.016.182-.122.426-.146.817-.226-.29-.108-.786-.195-1.295-.225a7 7 0 0 0-1.94.125q-.1.02-.194.041c-1.366.055-2.65-.021-3.978-.101-.612-.037-.938-.011-1.552.016-.321.013-.714.009-1.037.01l.052.089-.442-.044.08.115c.084.135.005.223-.164.353l-.442.05-.48-.088a5 5 0 0 1 .89-.127c-.113-.079-.25-.087-.51-.135-.546-.003-.96-.003-1.496-.033q-.14.037-.282.07c-.404.1-.824.143-1.332.199l-.163.094 1.337.007c-.042.13-.53.228-.927.31-.58.118-1.124.129-1.83.125-.436-.056-.87-.112-1.32-.162.086.198.496.345 1.103.464.099.02.206.036.31.054.453-.04.422-.048.71-.136.706.2.685.245 1.756.295-.846.175-2.361.282-2.675.567.961.195 3.08.334 4.305.313.305-.006.355-.02.609-.052l.342-.042.266-.036.304.064c-.346.162-.99.236-1.586.329l.082.027c1.488-.042 2.96-.07 4.406-.171l.35.05-.05.115c-.998.13-2.523.062-3.632.047l.002-.002-.288.09a50 50 0 0 0 1.771.034c1.254 0 2.945.087 4.052.24-2.634.326-6.624-.47-8.833-.067l.565.2c1.445-.02 3.268-.114 4.628.009l.195.066-.21.036c-.317.055-.197.033-.518.1l.398.07q.166.031.326.065c-.504.089-2.522.076-3.176.042a18 18 0 0 1-.536-.051c.398-.098.634-.076 1.168-.091l-.073-.08c-.697-.024-1.526.077-2.1.175l.237.038c1.914.295 3.8.177 5.76.353.662.059 1.189.206 1.811.267.263.025.85.002 1.134-.004l.28.086c-.134.158-.137.181-.578.294l-.24-.036a36 36 0 0 0-.717-.099q-.168.028-.34.053c-.424.06-.597.067-1.061.066-.55.078-.735.139-1.05.277-.568-.011-.96-.06-1.485-.105-.643-.056-.959.036-1.502.098-.09.01-.19.013-.28.023l-.023.003c1.36.236 3.246.047 4.654.269-1.288.316-4.205.072-4.684.597 1.744.387 11.344-.313 12.706.52-.062.02-.12.04-.187.058q-.065.016-.125.028a331 331 0 0 0-3.505-.01c-3.111.01-6.34.094-9.44.03-2.353-.047-4.955-.657-7.159-.533.532.27 2.919.53 4.022.634.504.139.695.2.834.39-.508.034-.904-.032-1.39-.076.03.144.989.345 1.423.44.277.06.566.117.853.174-.243.217-.64.45-.51.674.712.121 1.587.24 2.052.422l-.057.134c-2.791.554-11.15.14-12.867.567 3.038.375 7.792-.178 11.167.623 2.5-.002 6.655-.064 8.793.304q.183.114.355.229l1.603-.032-.078.111a18 18 0 0 1-1.821.035c-1.523-.046-2.464.168-3.856.223-1.357.054-2.104-.22-3.716-.1 1.36.215 3.601.181 4.584.436l-.044.05-.823.058c-.08.24 1.319.455 1.405.736-1.194.223-2.738-.02-3.932.142l-.027.091c-.058.175.018.307-.628.413-.367.061-1.335.11-1.748.085-1.414-.086-2.185-.307-3.806-.334-2.416-.04-5.058-.14-7.414.033l-.473.109c-.012.098.222.136.454.212l-.084.01c.627.072 1.794.12 1.965.292.025.025.006.051.02.077.144.255 1.145.412 1.912.553l.085.118c-.362.043-1.188.108-1.353.193l.312.008c.426.012.844.03 1.266.049-.325.147-.303.143-.158.308l-.274.018c-.292.02-.564.043-.846.07.21.047.417.081.639.123.914.172.889.56 2.372.512.188-.006.538-.03.731-.042.59.044 1.08.064 1.466.193-.479.14-1.406.161-2.096.205.292.141.814.181 1.366.245.513-.004.462.014.876-.068a4 4 0 0 1 1.033-.097c.782.015 1.24.154 1.767.278q.123.03.247.057l.147.034.644-.172.343.024c.778.05 1.587.075 2.38.107l-.107.028.556-.002-.273.069-1.709.005-.125.06.393.07-.058.034.513.015c-.928.234-2.577.184-3.62.385.928.15 1.927-.069 2.841.108l-.296.038c-.403.054-.254.027-.565.102l.604.197-.139.102c-1.239.142-2.662.17-4.006.134l-.558-.09-.095-.215-.382-.037c-.36.178.17.269-.291.44l-.546.015c-.143-.108-.127-.05-.024-.17l-.244-.051-.302.055.031.21c-1.718.128-2.5-.27-3.986.244l.986.119.052.092c-1.969.115-8.235-.436-9.111-.239 1.77.263 9.243.413 10.007.594 1.003.238 3.435-.004 3.632.324l-.926-.028-.158.058.17.117c.574.015.328.032.726-.025.599-.086 1.07-.158 1.772-.178.044-.026.085-.053.133-.078.166-.089.286-.126.57-.188 1.142-.019 1.89.049 2.765.23.514.107.883.208 1.27.3-.71.093-2.008.091-2.725.058a4 4 0 0 1-.761-.105l-.44.17.133.102c1.018.09 2.02.05 2.988.172.51.063 1.132.093 1.808.105-.073.027-.117.062-.104.114 1.621.172 2.085.104 3.254.417a11 11 0 0 0-.748.103c-.621.106-1.157.13-1.884.152l-.326.073.222.095.423-.002c1.17.003 2.478.122 3.612.196l-.155.137c.987.018 1.982.013 2.982.005-.01.027.008.054.068.082.318-.003.591.02.798-.048.039-.013.066-.027.098-.041 1.093-.01 2.188-.02 3.279-.01l-.058.072c.736.203 2.159.263 3.125.386-1.288.009-.741-.119-2.08.082l-.104.046c.816.074 1.61.114 2.41.03q.081-.134.179-.266c1.331.138 1.364.446 2.992.302q.15.017.302.03c.405.035.552.029.949.002l.033.128c-.522.134-1.228.09-1.948.092.22.081.734.165 1.219.25a1.5 1.5 0 0 1-.39.07c-.454.033-.806.017-1.264.003.067-.092.045-.145.001-.237-1.872-.154-5.76-.211-7.586-.034-.511-.073-.957-.175-1.546-.161-1.105.026-2.163-.106-3.242-.012l-.234.121c.193.123.386.19.748.285l-.103.098c-.966.103-1.705-.043-2.695.076l-.076.094c.379.104.94.17 1.527.227-.47-.002-.858-.005-1.34-.032l-.282.071c-.404.099-.824.143-1.332.198l-.164.095 1.338.006c-.042.13-.531.228-.928.31-.578.118-1.124.13-1.83.126-.436-.057-.87-.112-1.32-.162.086.197.497.345 1.103.463.1.02.207.036.31.054.454-.04.423-.049.711-.136.592.168.68.225 1.322.27-1.06.005-2.086-.053-3.138-.117-.612-.037-.938-.01-1.552.016-.322.013-.714.009-1.037.01l.052.089-.442-.044.079.115c.084.135.005.223-.164.353l-.442.05-.48-.087c.353-.08.464-.093.89-.128-.113-.079-.25-.086-.509-.135-.547-.002-.96-.003-1.497-.032l-.281.07c-.404.099-.825.143-1.332.199l-.164.094 1.338.006c-.042.131-.531.228-.928.31-.578.118-1.124.13-1.83.126-.436-.056-.87-.112-1.32-.162.086.198.497.345 1.103.464q.152.028.31.053c.454-.04.423-.048.711-.135.705.2.685.244 1.755.294-.846.176-2.361.283-2.675.567.961.196 3.081.335 4.305.313.305-.005.355-.02.61-.052l.342-.042q.134-.017.265-.036l.305.065c-.346.161-.99.236-1.586.328l.081.027c1.488-.042 2.96-.069 4.407-.17l.35.05-.05.114c-.999.131-2.524.062-3.633.048l.002-.003-.288.09c.611.021 1.156.034 1.77.034 1.255 0 2.946.087 4.053.24-2.634.326-6.624-.47-8.833-.067l.565.2c1.445-.02 3.268-.114 4.628.009l.195.066-.21.036c-.318.055-.197.033-.518.1q.201.034.398.07c.112.02.217.043.326.064-.504.09-2.522.076-3.176.042-.095-.005-.434-.04-.536-.05.398-.099.634-.077 1.168-.092l-.074-.079c-.696-.024-1.525.077-2.099.174l.236.038c1.915.296 3.8.178 5.76.353.663.06 1.19.206 1.813.267.262.026.849.002 1.133-.003l.28.086c-.133.157-.137.181-.578.294l-.24-.037a36 36 0 0 0-.716-.098c-.114.017-.225.036-.342.052a6 6 0 0 1-.97.066c-.99-.106-1.958-.18-2.86-.13.266.136.99.268 1.786.38l-.066.027c-.568-.011-.96-.06-1.485-.105-.644-.056-.959.036-1.502.098-.09.01-.19.013-.28.023l-.023.003c1.36.236 3.245.047 4.654.269-1.288.316-4.205.072-4.684.597.87.193 3.693.115 6.475.093l.015.004c.277.06.565.117.852.174-.123.11-.286.225-.4.34-2.497.025-5.034.066-7.492.016-2.354-.048-4.956-.658-7.16-.534.532.27 2.919.53 4.022.634.504.139.695.2.835.39-.51.035-.904-.031-1.39-.075.028.143.988.345 1.423.439.276.06.565.117.852.174-.088.079-.197.16-.293.242-.8.033-1.428.085-1.779.172.477.059 1 .093 1.549.115a.18.18 0 0 0 .014.146c.712.121 1.586.24 2.051.422l-.057.135c-2.791.554-11.15.14-12.867.566 3.038.375 7.793-.178 11.168.623 2.5-.002 6.654-.064 8.792.304q.183.114.355.229.802-.014 1.603-.032l-.078.111c-.689.04-1.117.056-1.82.035-1.523-.046-2.465.168-3.856.223-1.358.054-2.104-.219-3.717-.1.978.155 2.408.18 3.5.278-2.193-.044-4.52-.106-6.622.048l-.474.108c-.011.099.223.136.455.213l-.085.01c.627.071 1.794.12 1.966.292.025.025.005.051.02.077.144.254 1.144.411 1.911.553l.085.117c-.361.044-1.188.109-1.353.194l.312.008c.272.007.54.02.808.031a12 12 0 0 1-1.735.084c-1.414-.087-2.186-.308-3.807-.335-2.416-.04-5.057-.139-7.413.033l-.474.109c-.011.098.222.136.455.212l-.085.01c.627.072 1.794.12 1.966.292.025.025.005.052.02.077.144.255 1.144.412 1.911.553l.085.118c-.36.043-1.188.108-1.353.193l.312.008c.426.012.844.03 1.266.049-.325.147-.303.143-.158.308l-.274.018c-.292.02-.564.043-.846.07.21.047.416.081.639.123.914.172.888.56 2.372.512.188-.006.538-.03.731-.042.59.043 1.08.064 1.466.193-.479.14-1.406.16-2.097.205.293.14.815.181 1.367.245.512-.005.462.013.876-.069a4 4 0 0 1 1.033-.096c.781.015 1.24.154 1.767.278l.247.057.146.034.645-.172.343.023c.778.05 1.587.076 2.38.107l-.107.028.556-.002-.273.07-1.277.003c-.622-.024-1.205-.003-1.976.264l.824.1c-.499.034-1.017.062-1.49.109-2.643-.08-6.714-.394-7.407-.237 1.463.217 6.82.357 9.066.501-.158.02-.125.019-.366.076l.604.197-.139.102c-1.239.142-2.662.17-4.007.134l-.557-.09-.095-.215-.382-.037c-.36.178.17.269-.291.44l-.547.015c-.143-.108-.126-.05-.023-.17l-.244-.051-.302.055.031.21c-1.718.127-2.5-.27-3.986.244l.987.119.051.093c-1.968.115-8.234-.437-9.111-.24 1.77.263 9.244.413 10.007.594 1.003.238 3.435-.004 3.632.324l-.926-.028-.158.058.17.117c.575.015.329.032.726-.025.599-.086 1.07-.158 1.773-.178.044-.026.085-.053.133-.078.165-.089.285-.126.57-.188 1.14-.02 1.89.049 2.764.23 1.165.242 1.583.46 3.156.586-.255.176-1.036.13-.986.33 1.74.184 2.145.092 3.52.49l.188-.037a9.5 9.5 0 0 1 1.686-.196c.676.065.72.074 1.128.223.059.154-.063.225.441.33l.81-.025c.264.202-.652.316-.326.472.318-.003.591.02.798-.048.313-.104.41-.24.542-.363 1.277-.38 3.1-.189 5.194-.843 1.375-.148 2.416.13 3.806.021.61-.048.895-.151 1.152-.25q.922-.007 1.84 0-.05.02-.162.074l1.387.07.325-.068-.1-.055.809.013-.004.075.26.01a21 21 0 0 1 2.2.194l.659-.06.223.072c-.292.215-.921.108-.463.354.156.084.389.138.652.2l.39-.005c.706-.218 1.264-.569 2.316-.7q.966.025 1.933.047l.274.065q.282.252.594.501l.422.047.37-.227c1.114-.079 2.94-.177 4.002-.048.38.11.623.197.84.332.51-.045.985-.098 1.472-.156l.54.022c.053.032.103.064.16.096.177.099.166.101.305.135l-.283.17c-.291-.059-.344-.134-.489-.22a3.5 3.5 0 0 0-.405.328l-.459.04-.212-.082.206-.211-.321-.06-.196.066c-.424.14-.699.264-1.404.31l-.416-.047-.38-.274-.423-.05c-.222.13-.189.162-.128.297-.587-.078-.878-.181-1.304-.307l-.265.029.038.241c-.612.106-1.513.058-2.24.028-.63-.026-.88-.062-1.224-.195.003-.01.018-.019.01-.028-.027-.025-.077-.049-.115-.074l-.684.003c-.15.1-.207.165-.26.269l-.385.02-.154-.094c-.209-.124-.103-.077-.382-.17-.213.098-.297.212-.746.244-.454.033-.806.017-1.264.003.067-.091.045-.146.001-.237-1.872-.154-5.76-.211-7.586-.034-.511-.073-.957-.175-1.546-.161-1.105.026-2.163-.106-3.243-.012l-.233.121c.192.123.385.19.747.285l-.102.098c-.967.103-1.706-.043-2.696.076l-.076.093c.736.203 2.16.264 3.126.387-1.289.008-.742-.12-2.08.082l-.104.046c.816.074 1.61.114 2.41.03q.08-.135.179-.266c1.331.138 1.364.446 2.992.302q.149.017.302.03c.404.035.552.029.949.002l.032.128c-.521.133-1.227.09-1.947.092.456.169 2.198.35 2.27.526-.922.124-2.202.093-3.22.07a9 9 0 0 0-.822.015l-.105.064.354.134c-.376.124-.452.11-1.036.136-.373.016-.271.008-.732-.016.181-.122.426-.146.817-.226-.29-.108-.786-.196-1.295-.225a7 7 0 0 0-1.94.125l-.194.04c-1.366.055-2.65-.02-3.979-.101-.61-.037-.937-.01-1.55.016-.323.013-.715.009-1.038.011l.052.088-.442-.045.08.116c.084.134.004.222-.164.352l-.442.05-.48-.086c.353-.08.463-.092.89-.128-.113-.079-.25-.087-.51-.135-.546-.002-.96-.003-1.496-.032l-.282.07c-.404.1-.824.143-1.332.199l-.163.094 1.337.006c-.042.131-.53.228-.927.31-.579.118-1.124.13-1.83.126-.437-.056-.87-.112-1.32-.162.085.198.496.345 1.102.464.1.02.207.036.31.053.454-.04.423-.048.712-.135.705.2.684.244 1.755.294-.847.176-2.362.283-2.675.568.96.195 3.08.334 4.305.312.305-.005.354-.02.609-.052q.172-.02.342-.042l.265-.035.304.064c-.345.162-.99.236-1.585.329l.081.027c1.488-.042 2.96-.07 4.407-.171l.35.05-.05.115c-.998.131-2.523.062-3.633.048l.003-.003-.288.09c.61.021 1.155.034 1.77.034 1.255 0 2.946.087 4.052.241-2.634.326-6.623-.47-8.832-.067l.564.2c1.446-.02 3.27-.114 4.629.008l.194.067-.21.036c-.317.055-.196.033-.517.1.132.023.268.045.398.07.111.02.217.042.326.064-.505.089-2.522.076-3.176.042a18 18 0 0 1-.537-.051c.397-.098.634-.076 1.168-.091l-.073-.08c-.697-.023-1.525.077-2.1.175l.237.038c1.915.296 3.8.178 5.76.353.662.059 1.19.206 1.812.267.263.026.85.002 1.134-.004l.28.086c-.134.158-.137.182-.578.294l-.24-.036a36 36 0 0 0-.717-.099c-.114.018-.224.037-.34.053-.424.06-.597.067-1.061.066-.55.078-.734.14-1.05.278-.567-.012-.96-.06-1.485-.106-.643-.056-.958.036-1.502.098-.09.01-.189.014-.28.023l-.022.004c1.36.236 3.245.047 4.654.268-1.288.317-4.206.072-4.685.597 1.744.387 11.344-.312 12.706.521-.063.019-.12.04-.188.057q-.064.017-.124.028a331 331 0 0 0-3.505-.01c-3.111.01-6.34.094-9.44.031-2.353-.048-4.956-.657-7.159-.534.532.271 2.918.53 4.021.635.505.138.695.199.835.39-.509.034-.904-.032-1.39-.076.029.143.988.345 1.423.439.277.06.566.117.852.174-.242.218-.64.45-.509.675.712.121 1.587.24 2.052.422l-.057.134c-2.792.554-11.151.14-12.867.567 3.038.375 7.792-.178 11.167.623 2.5-.002 6.655-.064 8.792.304q.184.114.355.229.803-.014 1.604-.032l-.079.11a18 18 0 0 1-1.82.035c-1.523-.045-2.464.169-3.856.224-1.357.053-2.104-.22-3.717-.1 1.361.215 3.602.18 4.585.435l-.045.051-.822.058c-.081.24 1.319.454 1.405.736-1.194.222-2.738-.02-3.932.142l-.028.09c-.057.176.019.308-.627.414-.367.06-1.335.11-1.748.085-1.414-.087-2.186-.307-3.806-.334-2.417-.04-5.058-.14-7.414.033l-.474.108c-.01.099.222.136.455.213l-.084.01c.627.071 1.794.12 1.965.292.025.024.006.052.02.077.144.254 1.145.411 1.911.553l.085.117c-.361.044-1.187.109-1.352.193l.311.008c.427.012.844.03 1.267.049-.326.147-.304.143-.159.308l-.273.018c-.292.02-.564.043-.846.07.21.047.416.081.638.123.914.172.889.56 2.372.512.189-.006.538-.03.732-.042.59.043 1.08.064 1.465.193-.479.14-1.405.161-2.096.205.292.142.814.182 1.366.245.513-.004.462.014.876-.068a4 4 0 0 1 1.034-.096c.78.015 1.239.154 1.766.278l.247.057.147.035.644-.172.344.023c.777.05 1.587.076 2.38.107l-.108.028.556-.002-.273.07-1.708.004-.126.061.393.07-.058.034.514.015c-.929.233-2.578.183-3.62.384.928.15 1.926-.068 2.84.108l-.296.038c-.403.054-.253.028-.565.103l.604.196-.138.102c-1.24.143-2.662.17-4.007.135l-.558-.09-.095-.215-.381-.037c-.36.177.169.268-.292.439l-.546.016c-.143-.108-.127-.052-.024-.17l-.244-.052-.302.056.032.21c-1.719.127-2.501-.27-3.986.243l.986.119.052.092c-1.969.115-8.235-.436-9.112-.239 1.77.262 9.244.413 10.007.594 1.003.238 3.436-.004 3.633.324l-.926-.028-.159.058.17.116c.575.016.329.033.727-.024.598-.086 1.07-.159 1.772-.178.044-.027.085-.053.133-.078.166-.09.285-.126.57-.189 1.141-.019 1.89.05 2.765.231 1.165.242 1.583.46 3.155.586-.255.176-1.036.13-.986.329 1.74.185 2.146.092 3.521.491l.187-.037a9.5 9.5 0 0 1 1.686-.196c.676.065.72.074 1.128.222.06.155-.063.226.441.33l.81-.024c.265.201-.652.316-.325.471.318-.003.59.022.798-.048.313-.104.409-.238.541-.362 1.278-.38 3.1-.19 5.194-.843 1.376-.148 2.417.13 3.807.02 1.275-.099 1.136-.442 2.271-.488l.652.095c.157.151.19.079-.094.217l1.388.07.324-.068c-.212-.115-.061-.059-.494-.163l.255-.074c.547-.007.496-.03.954.061l-.01.21.26.01c.846.035 1.457.088 2.2.194l.66-.06.222.07c-.292.216-.92.11-.462.355.155.084.388.138.651.2l.391-.005c.874-.27 1.51-.751 3.16-.755.711-.001.89.055 1.362.167q.284.252.594.502l.423.046.369-.227c1.114-.079 2.94-.177 4.002-.048.38.111.623.198.84.333.51-.045.985-.098 1.473-.156l.54.022c.053.032.103.064.16.096.246.138.123.087.558.197.612-.028.697-.071 1.156-.169.41.07.353.092.502.205l.385-.15.608.059.3.187c1.123-.036 5.772-.1 6.355-.258.267-.072.54-.139.832-.205 1.008.265 1.105 1.055 1.361 1.418l.25-.058c.895-.211 1.316-.382 1.77-.663.037-.023.079-.046.116-.07.261-.165.195-.314.12-.485l.19-.06c.818.112.008-.007.716.12.512.092.895.092 1.506.111-.06.103-.126.157-.289.25.507.082.544.075 1.155.064l.211-.068c.307-.096.18-.06.525-.15.425.054.837.11 1.245.17l.389-.036c.01-.13.012-.227.135-.354l.282.017c.098.128.195.251.234.38l.248.035c.467-.112.867-.22 1.263-.348l-.01-.004c.708.033 1.162.202 1.627.328.057-.087.102-.17.136-.258.808-.024 1.445.104 2.093.22l-.045-.052.32.095c.544-.053.71-.123 1.035-.24l.456.053c.439.05.826.08 1.307.1.546-.078.307-.03.723-.14l.604.078a9 9 0 0 0 .954-.377c.585-.036.954.02 1.474.077l1.008.108.236-.048-.132-.25c.354.087.691.175 1.023.267l.203-.046c.667-.146 1.296-.287 2.252-.265.387.008.556.056.86.109-.261.151-.741.35-.831.507l.39.062.255-.054-.011-.181.283.004.299.14c.456-.044.464-.08.734-.177.5.064.853.141 1.266.235.488-.03.438.002.634-.096.366-.18.087-.422-.054-.614.441.058.684.118 1.038.204l.607.002.513-.2c.166.189.141.269.708.405l.385-.024.198-.202c.438.049.352.012.483.102.135.091.19.18.25.275.439.073.81.13 1.364.114.688-.02.988-.12 1.391-.241 1.055.032 2.875.14 3.799-.011.079-.014.145-.03.217-.045.037-.136.115-.226-.189-.345a5 5 0 0 0-.486.22c-.282-.106-.307-.156-.291-.282.505-.055 1.835-.009 2.393.035.256.02.35.046.535.085-.287.121-.701.181-1.152.262.407.028.458.054.853.008.786-.09 1.092-.118 1.969-.075l.669.194.476-.03c-.503-.111-.929-.207-1.287-.35.358-.126.445-.106 1.011-.149l1.521.096.128.075-1.008.092c0 .154.065.138.425.253.916.073 1.089.07 1.692.266.015-.009.02-.018.044-.026.105-.033.228-.063.338-.095.158-.047.304-.096.455-.144 1.461-.11 3.034.088 4.527.091.94.003 1.612-.189 2.541-.142.433.116.871.228 1.33.338.375-.053.382-.075.599-.162l.35.093c-.129.114-.304.186-.563.283-.641.241-.662.399-.439.678l.196.038.677-.093c.46.151.637.284.847.462l-.22.091c-.239.101-.202.06-.237.12l.545.11c.379-.103.589-.171.81-.299.212-.123.337-.16.746-.242-.356-.136-.285-.312-.516-.47-.467.115-.172.328-.247.494l-.255-.01c-.388-.17-.398-.342-.171-.525.171-.14.367-.278.541-.416a5.2 5.2 0 0 1-1.078-.315l.162-.077q.537.055 1.061.117l.188-.033c.57-.099.963-.145 1.641-.177.373-.018.714-.05 1.068-.082l.405.028c.518.036 1.024.052 1.557.069.659.124 1.029.22 1.112.434.066.167-.037.326-.158.49l.79.121c.364-.244-.643-.322.609-.523 1.411.154 2.558.462 4.147.34 1.159-.281 1.699-.67 2.838-.945.52.064.948.134 1.41.22l.269-.029a23 23 0 0 1 1.999-.139c1.137.247.552 1.05 1.66 1.447 1.066-.39-.192-1.102 1.307-1.428l.528-.023c.446.127.536.445.852.492l.009.043c.397-.184.28-.315.926-.464.751-.016 1.259.004 1.854.127.736.154.944.374 1.238.59l.503.084a2.2 2.2 0 0 0 .592-.271c1.084-.005 2.005.237 3.215.263-.039.017-.082.033-.116.051-.168.088-.163.16-.177.256.661.033 1.145.005 1.786-.03.68.08 1.29.18 1.918.281.525-.088.418-.262.998-.272l.192.21c.423 0 .329.021.617-.057.405-.11.456-.204.598-.344l.456-.014c.469.185-.232.26.35.415.465-.056.547-.07.839-.175l-.462-.185.378-.04c.443.11.821.22 1.207.34.32-.279-.43-.642.32-.864l.77.016c.322.075.138.045.669.093l.429.037c.855-.096 2.087-.144 2.998-.068.811.068 1.156.26 1.4.444.157.118.27.237.382.358l.302.046c.542-.314.967-.68 1.862-.942.413-.035.375-.056.793-.006l.053.08c.116.166.212.403.729.529.091.022.213.034.32.052.511-.137.83-.293 1.633-.305 1.259-.018 2.51.074 3.814.046l.679.214.197-.037c.312-.057.192-.036.577-.088.348.334-.074.876 1.173 1.082l.222-.022-.343-.208.233-.075c.583.068.544.072.8.22-.22.16-.311.153-.907.24l-1.205.002.106.077a44 44 0 0 0 1.717.023c.323.101.312.115.82.168.32-.106.35-.2.428-.328.208.072.417.142.635.212.34-.066.512-.123.784-.205.999-.303 2.633-.685 4.34-.686.929 0 1.434.07 2.045.234l.305-.24c.661.18.983.489.938.731-.015.083-.13.142-.298.211-.652.036-.838-.023-1.408-.095l-.059.081c.623.15 1.41.253 2.297.242.44-.006.492-.047.792-.116.17-.197.127-.375.083-.575q.17.005.343.008h.453c.623-.179 1.217-.43 2.156-.485l.441.077c.073.168.065.32.035.487l.324.121.364-.018q.058-.027.119-.053c.191-.08.109-.05.406-.12.553.026.948.016 1.348.118.53.136.932.271 1.707.312.601-.058.975-.092 1.277-.241.152-.075.244-.177.336-.256l.321-.062.437.194c.89-.062.611-.363 1.507-.28l.953.294.269.006c-.065-.133-.246-.236-.456-.358l.194-.005c.548.215 1.106.428 1.643.644.664.046 1.453.136 2.124.073a6 6 0 0 0-.844-.185l.396-.04c.402.044.768.12 1.205.083.43-.036.585-.088.87-.17-.064-.17-.433-.202-.922-.312.37-.108.145-.066.682-.126l.038-.218.336-.035c.531.17.595.37.746.576l.356.102.233-.052c.346-.073.2-.047.626-.096.244.187.006.37-.141.557l.209.086c.531.006.771.008 1.219-.065l.074-.159-.291-.046-.534.048c.169-.127.239-.197.684-.278l.422.111 1.398.124c.712-.157.835-.334 1.41-.501.199-.058.135-.039.483-.045l.111.27.196.003a9 9 0 0 1 1.043-.222c-.131.094-.17.156-.149.255.482-.02.639-.316 1.387-.372.208.036.38.063.553.113.449.128.428.278.429.436l-.003.062.283.016.397-.125.598.053.147-.094c.675-.115 1.288-.237 2.097-.286-.237.14-.415.227-.416.382.603-.14.887-.233 1.029-.438.023-.034.037-.069.055-.103l.28.002c.54.194.262.406.181.636q.269-.093.548-.184l.526.165.39-.056-.064-.135.24-.05.166.156.245.003c.744-.112.838-.128 1.217-.32.571-.075 1.065-.047 1.681-.03l.289.008 1.429-.346c1.618.166 3.034.525 4.542.757l1.281-.286c-.34-.067-.42-.09-.642-.19.168-.008.333-.02.503-.024.681-.015 2.703.05 3.186.154.062.119.138.236.138.356l-.002.013.568-.065c.364-.229.348-.488.415-.732l.311-.066c.417.178.865.41 1.477.55.354.081.89.185 1.411.163.754-.033 1.336-.2 1.81-.336.296-.085.336-.112.766-.155.71.052 1.202.109 1.821.212.385.063.624.105 1.064.146.054-.171.043-.313.477-.456.578-.018.56-.016 1.048.064q.02.168.021.336l.3-.014c.256-.13.43-.257.958-.332l.361.1c.887.013.267-.17.983-.278.24.105.229.153.699.199l.635-.177.49.05.298-.045c.15-.127.318-.247.521-.369.903-.017 1.574.149 2.311.272.978-.137.455.071 1.289.058l.329-.184.39-.024c.464.124.854.22 1.428.315 1.003-.053.05-.371.565-.53.78.175 1.531.404 2.563.478l.095-.044-.31-.173c.451-.108.561-.1 1.193-.123l1.027.21c1.588-.003 2.325.03 3.72-.165.739.03 1.279.04 2.021.018.186-.106.223-.135.605-.208 2.184.178 4.571.29 6.816.415l.168-.058-.823-.151.258-.04c.615.002 1.091.003 1.67.056.351.033.596.053.978.07q.177.008.355.014l.418.156 1.133.045.205.022c1.992.214 3.514.653 5.885.435.298-.028.629-.092.885-.135-.238-.101-.374-.16-.806-.215-.758-.097-1.17-.153-1.712-.321l-.207-.067c-.435-.136-.729-.217-.769-.4.354-.144.477-.159 1.086-.24 2.424.095 1.458.892 3.352 1.148q.2.026.404.05l-.245-.253c.499-.165.583-.196 1.345-.273 1.017.053 1.223.109 2.003.265.267-.054.386-.091.489-.174.336-.27.533-.387 1.558-.543l.132.057c-.31.138-.739.273-.643.437.368.009.524-.022.859-.057l.374.088c.054.136.146.133-.175.256-.29-.049-.566-.093-.879-.133-.203-.025-1.224.184-1.767.23.858.026 1.832.038 2.618.133q.197.023.392.05l.183-.136.222.014.264.2h.413l.637-.21c.652.021 1.46-.005 2.042-.09.555-.08.694-.17.867-.313.163-.133.281-.197.695-.3l.369.007.275.108c-.041.197-.182.37-.373.56 2.864.128 5.899.179 8.805.21.977.011 1.937.107 2.721.253.658.124.587.154.683.348l.315.052.631-.057c.854-.21 1.16-.447 1.227-.74-.514-.035-.654.195-1.209.24-1.114-.411-1.307-.11-2.757-.302l.06-.085.563-.015c1.147-.025 2.002-.023 2.87-.238q.18-.045.354-.092c.577-.027.876.063 1.357.138l.008-.115.133.14.301-.006a.54.54 0 0 0 .241-.264l.406.062c-.064.107-.06.154.006.256.597.092 1.163.16 1.502.319-.105.134-.221.197-.571.303-.685.03-1.239.06-1.885.129.564.028.765.01 1.158.119-.279.13-.411.223-.483.37l.38.068c1.979-.045 1.157-.21 2.298-.463.039.178.026.338.371.499 1.506.06 2.051-.201 3.357-.3l.273-.019-.132-.073-.934-.063-.02-.076q.144-.013.284-.03c.794-.093.953-.243 1.259-.433l.11-.07c.578-.048.885-.111 1.461-.046.253.234.993.484 1.074.707.012.033.017.067.025.1.596.043 1.579-.031 2.16-.073-.176-.124-.472-.132-.916-.199l.192-.079.686.069.163-.095a10 10 0 0 0-.738-.235l-.284-.077.404-.058.62.049.43-.073-.035-.078-1.351-.053.071-.053c.583-.09.94-.084 1.598-.073.357.006.411-.025.698-.073l.175-.25.139.183.393.04.394-.114.318-.153 1.119-.014.111-.118c-.478-.105-.82-.124-1.471-.11-.437.008-1.217.029-1.472.12a2.3 2.3 0 0 0-.482.238l-.375.012-.544-.105c-.539.031-.902.09-1.365.163l-.354-.051-.135-.215c-.528.127-.508.214-.665.388l-.138-.07c-.456-.216-.733-.209-1.502-.328-.074-.011-.126-.03-.189-.044.565-.205 1.062-.28 1.945-.393l.049-.054c-2.009.05-2.024.555-4.615.356l.005-.067c1.649-.166 1.533.05 3.036-.35l1.144-.05.559-.208c1.271.038 1.553-.133 2.877.1l-.031.113-.467-.021-.506.126.133.041 1.504-.051.13.033-1.064.253c.377.053.5.049.91.012 1.856-.166 1.194-.408 3.806-.364 1.313.023 2.681-.003 3.714.227.182.153.182.18-.188.325-.328.13-.882.213-1.45.261-.378-.122-.387-.18-.488-.328l-.334-.063c-.56.053-.721.063-1.099.175l.105.449c.37-.035.72-.06 1.106-.081-.205.12-.264.197-.263.327.35.126.301.165.925.205l.981-.16.393.029c.048.13.072.175.335.295l.645-.013-.251-.188.266-.057c.335.023.554.034.909.037l.332-.103c-.375-.251-1.508-.344-2.044-.587.334-.139.37-.11.958-.156.613.067 1.218.091 1.873.12-.215-.228-.121-.25.219-.458a8 8 0 0 1 1.643-.01c.43.042.936.102 1.196.198-.274.089-.56.147-.626.26l.606.301.37.008c.617-.236.202-.464.817-.668.632-.003.854.027 1.368.116-.22.117-.449.148-.856.225-.041.074-.164.134.028.2.288.097.671.12 1.094.167.327.037.203.017.46.087l.401-.057-.08-.017c-.159-.114-.355-.197-.284-.317l.651-.02c.226.048.473.096.682.15.198-.272.44-.322 1.276-.498 1.166-.018 1.784.293 2.744.256l-.54-.111c.371-.156.794-.187 1.425-.273.711.01.998.092 1.488.218.513.132.962.28 1.166.457-.42.096-.217.06-.582.115l.06.074.437.067-.075.097a28 28 0 0 1-.982-.061l-.357.057c.108.126.239.225.47.34l.443.015.622-.132c.732.196 1.446.38 1.981.615.183.08-.015.152-.109.237l.009.009.375.004c.264-.033.45-.048.635-.106-.109-.083-.28-.183-.311-.269-.062-.172.15-.22.527-.355q.372.02.748.037c.652.025.682.033 1.192-.06l-.32-.126c.468-.21 1.79-.393 2.572-.537.034-.123.059-.15.311-.263.228.076.464.145.727.214.855-.135.92-.496 1.723-.69.813-.064 1.39-.108 2.244-.08.36.109.266.052.354.163-.472.13-.868.21-1.026.384l1.065.09c-.164.07-.255.118-.342.198l1.054.008c1.473.275 2.104.118 3.755.08l.525.111c.431-.048.398-.026.632-.098.6-.183.99-.403 1.867-.516l.364.03c-.139.24-1.052.304-1.267.54 1.327-.218 1.667.07 2.791-.044.315-.164.338-.236.223-.415-.471-.144-.674-.121-1.392-.147l-.058-.075c.267-.066.531-.136.81-.2.838-.19 1.192-.284 1.546-.562q.045-.036.087-.073c.634.05.735.073 1.194.194.064.2-.05.212-.502.383l.283.067.603-.016c.222-.068.414-.134.603-.207l.194-.077c.812-.068 1.518-.131 2.38-.134l-.063.127c-.546.165-1.179.217-1.963.298l-.351.036.19.084c.167-.013.618-.051.772-.06 1.585-.087 1.139-.356 2.277-.543.365.051.715.094 1.103.133l.123-.08c-.526-.163-1.078-.185-1.853-.26l-.086-.11.66-.085c.11-.119.235-.236.365-.354a10 10 0 0 1 1.398-.175c1.022.19.929.59 1.968.788.473.09.733.084 1.272.067.169-.062.345-.124.512-.187.642-.242 1.025-.285 2.146-.365-.284.154-.531.22-.421.393l.442.045.337-.198c.437.037.218.132.634.226.269-.159.046-.34-.033-.51l.261-.075c.581-.027.954.003 1.501.045.371.03.878-.112 1.422-.13-.256.09-.379.155-.487.262l.305.099c1.338.027 1.838-.303 2.99-.43l-.669.289.243.042c.618-.084.681-.172.992-.325l.428-.035c-.004.119-.086.172.169.276l.999-.096.711.097c.404-.079.546-.195.762-.309l.315-.001c.294.193.638.488 1.187.645.197.056.522.145.858.145.998.001 1.492-.18 2.088-.347.786-.219 1.175-.283 2.38-.296l.244-.002.167-.078-.441-.102.245-.072c.78.03.921.043 1.543.162 1.526.006 2.924-.16 4.396-.242.477-.027.613-.025 1.005.056.408.085.463.187.502.309.016.052.02.104.045.156.087.18.143.22.734.33 2.303.09 4.985-.18 7.149-.36-1.2-.02-2.544-.008-3.659-.125l-.111-.096.339-.094c.726-.018 1.635-.03 2.239-.145.522-.1.538-.159.555-.305-.27-.086-.44-.124-.513-.234.443-.025.612-.045.927-.126a34 34 0 0 0-.783-.191l-.254-.058c.761-.1 1.559-.035 2.246-.151l-.3-.125c.092-.212 1.686-.399 2.327-.557l-.548-.087a9 9 0 0 1-1.302-.006c-2.122-.161-5.162-.284-7.362-.245l-.275.006.077-.053-.409.043c1.465-.327 4.483-.29 6.442-.337l.787.168c1.12-.01 1.592-.374 2.777-.42l.062.063c-.189.021-.511.055-.673.083-.517.091-.521.17-.651.313.594-.142.938-.197 1.742-.247l1.955-.124.321-.1c-.482-.004-.819-.02-1.271-.062.29-.112.52-.14 1.007-.194l.5.12c.156-.012.408-.032.552-.039.684-.035 1.021-.045 1.624-.141.402-.064.718-.111 1.183-.146.144.115.04.062.304.159.68-.093.642-.103 1.03-.281-.151-.058-.822-.1-1.101-.128a10 10 0 0 0 .967-.203 49 49 0 0 0-.966-.137c.465-.152 3.566-.193 4.511-.255 1.359-.09 4.598-.258 5.287-.55l-.105-.098c-2.209.011-5.77-.303-6.628-.278-.538.016-1.045.025-1.586.032l-.264-.192.889-.13c-.4-.057-.747-.114-1.104-.187-1.143-.232-2.56-.147-3.711-.376.62-.033 1.409-.033 1.863-.141-.621-.065-1.156-.12-1.679-.229.133-.103.153-.168.111-.275-1.159-.15-2.877-.115-4.154-.203-.935-.065-1.854-.192-2.721-.3l1.297-.405.897.004.256-.062c-.298-.153-1.513-.214-2.148-.305l.071-.103c2.122-.412 3.835-.04 6.054-.229l-.112-.203c.543-.078.256-.068.863-.03l.357.185c.507-.072.565-.161.809-.288l-.183-.078c-.548-.03-.295-.025-.841-.022-2.176.012-4.353-.021-6.537-.002-1.635.015-3.24.08-4.877.073l-.251-.077.352-.095c1.785-.084 3.649-.172 5.468-.182 1.23-.006 2.524.045 3.738.008 1.307-.04 2.376-.157 3.74-.148l1.019-.05.238-.1c-1.704-.263-3.551.237-5.345-.327-.785.027-1.751.088-2.519.05.653-.242 1.536-.03 1.373-.46.455-.004.696-.002 1.145.028-.089.092-.165.11-.409.18.436.058.546.064 1.034.025.298-.023.693-.093.95-.131.568.044.787.116 1.169.226.545-.026.26-.004.757-.063.849-.1 1.997-.074 2.683-.232-.077-.155-.248-.193-.627-.32l-.446-.014q-.52.103-.994.218c-.394-.12.152-.174-.479-.21l-.545.129a18 18 0 0 1-1.281-.077c-.65-.06-1.175-.043-1.852-.034-.434.006-.251.011-.668-.025.228-.105.731-.108.732-.2 3.502-.125 8.132.194 10.685-.261l-.105-.066-1.699.027a4.7 4.7 0 0 0-.784-.222l-.447.196-.342-.008-.443-.23-.144-.002c-.258.117-.446.2-.86.285-.582-.007-.887-.005-1.352-.1l.328-.207c-.608-.095-1.45-.045-2.135-.032l-.214.067.261.118c.308-.019.58-.04.875-.07l.276-.031c.056.134.128.114-.182.239-.202.015-.383.03-.588.038a21 21 0 0 1-1.748.005 4 4 0 0 0 .46-.06 1.3 1.3 0 0 0-.354-.149l.33-.016.146-.138c-.161-.15-.469-.276-.755-.412 1.064-.046 2.65-.057 3.536-.216l-1.33-.111c-.39-.142-.822-.316-1.397-.41-.606-.1-1.095-.075-1.767-.043-.651.03-1.184.049-1.844.047a6 6 0 0 1-.383-.073c.441-.013.85-.054 1.529-.123 1.884-.19 4.212-.014 6.104-.235q.018-.184.008-.37l.363-.06c.354-.061.567-.108.834-.19l-.269-.089-.358.028c-.539.04-.736.049-1.275.007a15 15 0 0 0-1.306-.038 1.1 1.1 0 0 0 .329-.117l-.492-.16c-.14.01-.276.026-.42.03-.532.018-.66 0-1.015-.096.606-.17 2.011-.099 2.911-.125.598-.017 1.186-.017 1.583-.135-.178-.056-.186-.065-.449-.114-1.493-.28-4.716-.098-6.387-.022a9 9 0 0 1-1.373-.012q-.23-.02-.456-.042l.259-.08c.249-.03.643-.067.87-.111.593-.116.468-.227.519-.401.91-.163 2.282-.131 3.366-.205l-.335-.154c.421-.07.826-.137 1.313-.172 1.486-.11 2.095.163 3.37.227 1.484.075 3.149-.336 4.713-.127l-.164.17.251.026.621-.198c.388.053.823.113 1.264.132a6.6 6.6 0 0 0 1.501-.089l-.877-.107.098-.08c.341-.014.69-.032 1.034-.043.677-.02.982-.03 1.519-.137.358-.07.566-.115 1.019-.143.459.1.218.062.709.117.552-.154 2.35-.663 2.091-.88-.029-.025-.502-.208-.506-.222-.024-.079.425-.127.473-.205-.506.005-.293.02-.655-.026l.054-.09c.866-.112 2.45-.044 3.442-.042l-.369-.126.149-.047c2.425.262 1.02.486 1.464.749.682.03 1.002.034 1.647-.033l.011-.102-.491-.096-.457.093-.387-.048.221-.19a9 9 0 0 1-.935-.391l.276-.082a19 19 0 0 0 2.565-.189l.007-.076c-1.246-.138-2.628-.066-3.94-.147l-.153-.123c-.109.038-.282.103-.417.133-.426.094-.713.078-1.234.073l-.326-.12c.073-.08.216-.197.206-.28-.02-.18-.268-.277-.721-.406a4.5 4.5 0 0 1-.894.237l-.331-.057.329-.25-.286-.032c-1.203.015-2.78.06-3.76.25-.298.06-.454.096-.784.141l-.382.052-.539-.021c-.486-.094-.969-.325-1.521-.382-1.087-.113-4.634.128-6.665-.18-.481-.073-.484-.099-.611-.229 1.207-.421 4.3-.218 5.769-.452a19 19 0 0 1-2.397-.565l.119-.09c.553-.055.799-.082 1.408-.065.458.013.842.02 1.303.018-.516-.055-.998-.085-1.362-.196 1.208-.127 2.948-.027 3.979-.191-.823-.139-2.486-.039-3.482-.06-.742-.015-1.069-.03-1.529-.183l-.149-.054c-.281.09-.509.14-.897.198-.912-.051-1.797-.098-2.667-.187l.267-.085 1.47.058c.496-.071.899-.089 1.471-.093l.18.003.05-.058c-.43-.201-1.035-.226-1.554-.403.372-.09.248-.084.648-.116.691-.056 1.377-.101 2.063-.163-.619-.093-1.83-.067-2.584-.061-.388.002-.626.015-.991-.025q-.102-.012-.201-.027c-.972.048-1.83.068-2.795.007l-.269-.201c-.219.055-.346.09-.61.137a5.8 5.8 0 0 1-1.345.08l-.106-.114c.104-.025.196-.054.311-.077.597-.115 1.076-.2 1.622-.34-.234-.065-1.22.03-1.818-.038l-.232-.421c.02-.137-.465-.168-.465-.318.541-.064.921-.099 1.293-.222-.141-.181-.192-.17-.783-.28l-.461-.003c-.268-.194-.459-.374-1.038-.524l-.221.047c.223.155.398.239.22.405l-.387.031-.57-.113c-.111-.105-.131-.164-.09-.275.012-.034.032-.068.049-.102l-.457-.082-.056-.09c2.549-.132 5.165.041 7.74-.122l.254-.016c.951-.02 1.459-.014 2.332.088.276-.076.29-.108.702-.128.763-.037 1.294-.068 1.946-.176-.275-.12-.469-.114-.979-.144-1.334-.076-2.876.057-4.309.007l-.135-.075c.507-.093 8.936-.343 10.68-.424-3.636-.154-7.18-.1-10.83-.172-2.059-.04-4.165-.146-6.233-.164q.189-.041.375-.09-.25-.038-.503-.072c.375-.044.689-.124 1.017-.201l.561-.025c-.44.086-.455.164-.579.3.594-.143.938-.198 1.742-.248l1.955-.124.258-.08c1.243-.08 2.939-.195 3.857-.361.027.01.059.02.106.038.679-.093.641-.103 1.029-.281-.151-.058-.822-.1-1.1-.128a10 10 0 0 0 .966-.203 45 45 0 0 0-.966-.137c.465-.152 3.566-.193 4.511-.255 1.359-.09 4.598-.258 5.288-.55l-.106-.099c-2.209.011-5.77-.302-6.628-.278a92 92 0 0 1-1.586.033l-.263-.193.888-.129c-.4-.057-.747-.114-1.103-.187-1.144-.232-2.561-.147-3.712-.376.621-.033 1.409-.033 1.863-.141-.621-.065-1.156-.12-1.678-.229.132-.103.152-.168.11-.275-1.159-.15-2.877-.115-4.154-.203-.935-.065-1.854-.192-2.721-.3l1.297-.405.897.004.256-.062c-.224-.116-.972-.179-1.598-.242l.048-.02a7 7 0 0 0-.585-.062l.058-.084c2.122-.412 3.835-.04 6.054-.23l-.112-.202c.543-.078.256-.068.863-.03l.357.185c.507-.072.565-.162.81-.289l-.184-.077c-.548-.031-.295-.026-.841-.022-1.892.01-3.786-.012-5.684-.006-.101-.072-.26-.119-.526-.208l-.445-.014c-.347.07-.677.14-.994.219-.395-.12.152-.174-.479-.211l-.546.13a18 18 0 0 1-1.256-.075c1.352-.06 2.731-.11 4.084-.118 1.23-.006 2.524.045 3.738.008 1.307-.04 2.377-.157 3.741-.148l1.019-.051.238-.099c-1.317-.204-2.72.046-4.117-.089.056-.008.115-.016.169-.026l-.105-.065-.651.01a6 6 0 0 1-.642-.158l-.846.034a5 5 0 0 0-.344-.08l-.226.099q-.373.01-.725.005l-.144-.075c.609-.133 1.283-.012 1.139-.393.454-.004.695-.002 1.144.028-.089.092-.165.11-.408.18.436.058.546.064 1.034.025.298-.023.693-.093.949-.131.569.045.787.116 1.17.225.544-.026.26-.003.756-.062.85-.101 1.998-.075 2.683-.233-.077-.154-.247-.192-.627-.32l-.445-.013q-.52.103-.994.218c-.395-.12.152-.174-.479-.21l-.546.129a18 18 0 0 1-1.281-.077c-.649-.06-1.174-.043-1.851-.034-.434.007-.251.011-.668-.025.228-.105.731-.108.732-.2 3.502-.126 8.131.194 10.685-.261l-.106-.066-1.699.027a4.6 4.6 0 0 0-.783-.222l-.447.196-.342-.008-.444-.23-.144-.002c-.257.117-.445.2-.86.285-.581-.007-.886-.005-1.351-.1l.328-.207c-.609-.095-1.45-.045-2.135-.032l-.215.067.261.118c.309-.019.58-.04.876-.071l.276-.03c.056.134.127.114-.183.239-.201.014-.382.03-.588.038-.47.02-1.172.032-1.748.005a4 4 0 0 0 .46-.06 1.3 1.3 0 0 0-.354-.149l.331-.016.146-.138c-.161-.15-.469-.276-.755-.412 1.063-.046 2.649-.057 3.535-.216l-1.33-.11c-.389-.142-.821-.316-1.396-.411-.606-.1-1.095-.075-1.768-.043-.65.03-1.183.05-1.844.048a6 6 0 0 1-.382-.073c.441-.014.85-.054 1.528-.123 1.885-.19 4.213-.015 6.105-.236q.018-.184.007-.369l.363-.06c.355-.062.567-.109.835-.19l-.269-.09-.358.028c-.539.04-.736.05-1.275.007a15 15 0 0 0-1.307-.037c.113-.02.197-.053.33-.117l-.493-.16c-.139.01-.275.025-.419.03a8 8 0 0 1-.315.006l.602-.192c.388.053.823.113 1.264.131a6.6 6.6 0 0 0 1.501-.088l-.732-.09c.444-.012.856-.033 1.159-.124l-.062-.02c.599-.019.903-.033 1.409-.133.358-.071.566-.115 1.019-.144.459.1.217.063.708.118.552-.154 2.351-.663 2.092-.881-.025-.02-.37-.156-.475-.205.241.007.481.021.718.053l-.164.17.252.026.621-.198c.388.053.823.113 1.264.132a6.6 6.6 0 0 0 1.501-.089l-.877-.107.098-.08c.341-.014.69-.032 1.033-.043l.084-.002c-.034.108-.201.217-.004.334.682.03 1.002.034 1.647-.033l.011-.102-.491-.096-.457.093-.387-.049.195-.168c.32-.017.572-.045.922-.115.358-.07.566-.114 1.019-.143.459.1.217.062.708.118.552-.155 2.351-.663 2.092-.881-.029-.025-.502-.208-.507-.222-.024-.079.425-.127.474-.205-.506.005-.293.02-.655-.025l.054-.09c.866-.113 2.449-.045 3.441-.043l-.368-.126.148-.047c2.425.262 1.021.486 1.464.749.683.03 1.002.034 1.648-.033l.011-.102-.491-.096-.457.093-.387-.048.221-.19a9 9 0 0 1-.936-.391l.276-.082a19 19 0 0 0 2.566-.185m-61.614-17.214c.488.099.842.181 1.487.2.475.015.357.005.786-.07l.076-.243.357-.076.743.03.309.224.581.037c-.155-.074-.236-.158-.339-.237l.195-.066c.517.005.821.033 1.273.092.488.064.658.086 1.221.052 1.159-.07 2.519-.17 3.694-.086.077.09.153.15.302.234 1.02-.142 2.209-.357 3.411-.31 1.928.073 11.66-.025 15.821-.143-1.994.174-4.067.482-5.788.559-.497.022-1.13.044-1.807.06l-.407-.043c-.04.02-.085.037-.126.056-.345.007-.695.012-1.04.015-.045-.026-.086-.051-.142-.078l-.266.027-.03.053c-.773.002-1.497-.01-2.048-.041-.723-.042-.431-.301-1.274-.233-.112.01-.526.076-.637.093l-.486-.015c-.955-.03-1.926-.093-2.823.016a1.1 1.1 0 0 0-.489.345 8 8 0 0 1-.415.076c-.616-.047-1.177-.12-1.867-.1l-.253.082.06.027c-.442-.029-.896-.066-1.35-.101a11 11 0 0 0-.436-.067 7 7 0 0 0-.629 0c-.437-.02-.86-.028-1.249-.006-.289.069-.557.14-.82.211a6 6 0 0 1-.986-.018l-.31-.24-.301-.022c-.054.024-.132.047-.162.074a.14.14 0 0 0-.043.078c-.3-.06-.573-.115-.87-.106l-.477.104-.445-.095a4 4 0 0 0-.778.254l-.2-.025-.057-.201c-.238.05-.477.093-.73.136a.8.8 0 0 0-.292-.07.56.56 0 0 0 .074-.326zM29.684 26.158l-.335-.045q.142-.014.282-.03a9 9 0 0 0 .791-.123l-.054-.147-.392-.04c-.567.077-.911.074-1.275.076a10 10 0 0 1 1.249-.117c.549.053.682.07.931.154q.056.085.109.171c-.49.113-.638.092-1.306.1m-1.053 2.505-.04.004-.043-.008zm.59-.264a.2.2 0 0 1-.024.06l-.206-.011c-.083-.055-.18-.075-.33-.1zm32.891 21.206c-.37-.039-.41-.104-.492-.154.338-.029.471-.071.833-.148.247.043.324.067.38.105l-.253-.01c-.431.091-.348.08-.468.207m1.858.026-.431-.196-.362-.014.162-.062.609.058.3.187.197-.006-.037.056zm1.946.107-.298-.066.05-.103.87-.02a.8.8 0 0 0-.146.169zm1.47-.122-.16-.085q.311-.008.619-.018l-.213.098zm2.151-.126a4 4 0 0 1-.372-.025c.71-.033 1.26-.072 1.438-.12.267-.072.54-.139.832-.205.272.071.474.183.634.312-.88.031-1.824.069-2.532.038m6.01-.016c-.15.004-.29.003-.432 0a.7.7 0 0 0-.064-.192l.19-.06c.819.113.008-.006.716.12.201.037.383.056.567.071-.418.03-.784.055-.977.06m377.668 7.74c-1.994.173-4.066.481-5.788.558-.497.022-1.13.044-1.807.06l-.407-.043c-.04.02-.085.037-.126.056-.345.007-.695.012-1.04.015-.045-.026-.086-.051-.142-.078l-.265.027-.031.053c-.773.002-1.497-.01-2.047-.042-.724-.042-.431-.3-1.275-.232-.112.009-.525.075-.637.093l-.486-.016c-.955-.03-1.925-.093-2.823.016a1.1 1.1 0 0 0-.489.345 8 8 0 0 1-.414.077c-.617-.048-1.178-.12-1.867-.1l-.254.081.061.028c-.442-.03-.896-.067-1.35-.102a10 10 0 0 0-.437-.067 7 7 0 0 0-.628-.001c-.437-.02-.86-.028-1.249-.005-.289.069-.557.14-.82.211a6 6 0 0 1-.987-.018l-.309-.24-.301-.022c-.054.025-.132.047-.162.075a.13.13 0 0 0-.043.078c-.3-.061-.573-.116-.87-.107l-.477.105-.446-.096c-.348.076-.555.16-.778.254l-.199-.024-.057-.202a16 16 0 0 1-.73.136.8.8 0 0 0-.292-.07.56.56 0 0 0 .074-.327l-.019-.115c.488.098.842.18 1.487.2.476.014.358.005.787-.071l.075-.242.357-.077.743.03.31.224.581.037c-.155-.073-.237-.157-.34-.236l.196-.066c.517.004.82.033 1.272.091.488.064.658.087 1.221.053 1.159-.07 2.519-.17 3.694-.086.078.088.153.148.302.233 1.021-.142 2.209-.356 3.411-.31 1.929.074 11.661-.024 15.821-.142m-1.244-22.667c-1.587-.212-4.531-.049-6.102.023-.392.018-.678.026-1.008.012-.164-.056-.225-.13-.419-.162.24-.026.538-.058.726-.095.204-.04.319-.079.389-.12 3.724-.02 8.684-.087 11.353-.163-1.677.146-3.407.387-4.939.505m6.143-1.053-.164.171.169.017a2.3 2.3 0 0 1-.598-.1c.154-.043.359-.07.593-.088"/></svg>