<svg width="483" height="74" viewBox="0 0 483 74" fill="none" xmlns="http://www.w3.org/2000/svg">
<path d="M482.993 29.8322L483 29.7548C481.754 29.6169 480.372 29.6894 479.06 29.6082L478.907 29.4854C478.798 29.5232 478.625 29.5882 478.49 29.6179C478.064 29.7121 477.777 29.6959 477.256 29.6915L476.93 29.5703C477.003 29.4913 477.146 29.3744 477.136 29.2906C477.116 29.1104 476.868 29.0146 476.415 28.8852C476.138 28.9881 475.924 29.0508 475.521 29.1223L475.19 29.066L475.52 28.8154L475.233 28.7835C474.03 28.7992 472.453 28.843 471.473 29.0346C471.175 29.093 471.019 29.1298 470.689 29.1748L470.307 29.2256L469.768 29.2051C469.282 29.1114 468.799 28.8804 468.247 28.823C467.16 28.7099 463.613 28.9507 461.582 28.6434C461.101 28.5703 461.098 28.5443 460.971 28.4145C462.178 27.9929 465.272 28.1958 466.74 27.9621C465.776 27.8003 465.094 27.6195 464.343 27.3971L464.462 27.3078C465.015 27.2526 465.261 27.225 465.87 27.2424C466.328 27.2553 466.713 27.2629 467.173 27.2602C466.657 27.2056 466.175 27.1753 465.811 27.0638C467.019 26.9372 468.759 27.0373 469.79 26.8728C468.967 26.7342 467.304 26.8343 466.308 26.8138C465.566 26.7986 465.239 26.7835 464.779 26.6298C464.727 26.6125 464.68 26.5941 464.631 26.5762C464.349 26.6666 464.122 26.7153 463.733 26.7743C462.821 26.7229 461.936 26.6758 461.066 26.5876L461.333 26.5026L462.803 26.5605C463.299 26.4891 463.702 26.4712 464.274 26.4669C464.335 26.4664 464.394 26.4691 464.454 26.4702L464.504 26.4123C464.074 26.2109 463.469 26.1861 462.95 26.0091C463.322 25.9187 463.198 25.9252 463.598 25.8933C464.289 25.8376 464.975 25.7921 465.661 25.7304C465.042 25.6368 463.831 25.6633 463.077 25.6687C462.689 25.6714 462.452 25.6844 462.086 25.6444C462.017 25.6368 461.953 25.6265 461.885 25.6173C460.913 25.6655 460.055 25.6855 459.09 25.6238L458.821 25.4231C458.602 25.4783 458.475 25.5134 458.212 25.56C457.778 25.6368 457.378 25.6628 456.866 25.6395L456.76 25.5264C456.864 25.501 456.956 25.4718 457.071 25.4496C457.668 25.3343 458.147 25.2488 458.693 25.1087C458.459 25.0437 457.473 25.139 456.875 25.0708L456.643 24.6498C456.663 24.5129 456.178 24.4826 456.178 24.3321C456.626 24.2791 456.963 24.2434 457.277 24.1633C457.299 24.16 457.319 24.1579 457.341 24.1541C457.336 24.1519 457.333 24.1508 457.328 24.1492C457.375 24.1362 457.424 24.1254 457.47 24.1097C457.33 23.929 457.279 23.9403 456.688 23.8294L456.227 23.8267C456.191 23.8007 456.156 23.7748 456.122 23.7493C458.686 23.6573 461.643 23.5621 462.598 23.5183C460.2 23.4171 457.842 23.4052 455.468 23.3889C455.384 23.3597 455.295 23.3305 455.189 23.3034L454.968 23.35C454.986 23.3624 455.003 23.3738 455.02 23.3857C454.73 23.3835 454.44 23.3803 454.15 23.3776C454.163 23.3505 454.176 23.3235 454.189 23.2964L453.733 23.2141L453.676 23.1248C456.225 22.9923 458.841 23.1654 461.416 23.0026C461.501 22.9972 461.586 22.9912 461.671 22.9858C462.622 22.9652 463.13 22.9717 464.003 23.074C464.279 22.9977 464.292 22.9663 464.704 22.9463C465.467 22.9095 465.999 22.8781 466.651 22.7699C466.376 22.6503 466.182 22.6557 465.672 22.6265C464.338 22.5502 462.796 22.6833 461.362 22.6335L461.228 22.5588C461.735 22.4652 470.163 22.2152 471.908 22.1346C468.271 21.9809 464.728 22.0339 461.078 21.963C459.019 21.923 456.912 21.8169 454.844 21.7985C454.971 21.7709 455.094 21.7417 455.219 21.7082C454.901 21.6589 454.583 21.6146 454.253 21.5707C454.718 21.4187 457.819 21.3781 458.764 21.3158C460.123 21.2266 463.362 21.0583 464.052 20.7655L463.946 20.667C461.737 20.6784 458.176 20.3645 457.318 20.3894C456.78 20.4051 456.274 20.4143 455.732 20.4219L455.469 20.2292L456.357 20.0994C455.957 20.042 455.611 19.9852 455.254 19.9127C454.11 19.6805 452.693 19.765 451.542 19.5366C452.163 19.5036 452.951 19.503 453.405 19.3953C452.784 19.3304 452.249 19.2752 451.727 19.1665C451.859 19.0636 451.879 18.9982 451.837 18.891C450.678 18.7417 448.96 18.7763 447.683 18.6881C446.748 18.6237 445.829 18.496 444.962 18.3888L446.259 17.9835L447.156 17.9873L447.412 17.9256C447.115 17.772 445.899 17.7113 445.264 17.6204L445.335 17.5176C447.458 17.1053 449.17 17.4781 451.389 17.2887L451.277 17.0853C451.82 17.0073 451.533 17.0171 452.141 17.055L452.497 17.24C453.004 17.168 453.062 17.0782 453.307 16.9516L453.123 16.8742C452.576 16.8434 452.828 16.8488 452.282 16.8515C450.106 16.8634 447.929 16.8298 445.745 16.8493C444.11 16.8639 442.506 16.9283 440.868 16.9224L440.617 16.845L440.969 16.7503C442.754 16.6659 444.618 16.5782 446.437 16.5685C447.667 16.562 448.961 16.6128 450.175 16.576C451.482 16.5365 452.551 16.4191 453.915 16.4283L454.934 16.3774L455.172 16.279C453.468 16.0149 451.621 16.5149 449.827 15.9516C449.043 15.9786 448.076 16.0392 447.308 16.0008C447.961 15.7589 448.844 15.9721 448.682 15.5409C449.136 15.5371 449.377 15.5392 449.826 15.569C449.737 15.661 449.661 15.6799 449.417 15.7492C449.854 15.8071 449.963 15.813 450.451 15.7746C450.749 15.7508 451.145 15.681 451.401 15.6431C451.969 15.688 452.188 15.7595 452.57 15.8688C453.115 15.8428 452.83 15.8655 453.327 15.8065C454.176 15.7054 455.324 15.7319 456.01 15.5739C455.933 15.4196 455.762 15.3812 455.383 15.2541L454.937 15.24C454.59 15.3103 454.26 15.3801 453.943 15.4586C453.549 15.339 454.096 15.2844 453.464 15.2476L452.919 15.3763C452.437 15.3639 452.085 15.3412 451.638 15.3C450.989 15.2405 450.463 15.2568 449.787 15.266C449.353 15.2725 449.535 15.2768 449.119 15.2411C449.346 15.1361 449.849 15.1328 449.85 15.0408C453.352 14.9153 457.982 15.2346 460.535 14.7795L460.43 14.714L458.731 14.7411C458.471 14.6474 458.305 14.5912 457.947 14.5192L457.501 14.7151L457.158 14.707L456.715 14.4781L456.571 14.4754C456.313 14.5928 456.126 14.6756 455.711 14.76C455.129 14.7535 454.824 14.7557 454.359 14.661L454.687 14.4532C454.079 14.3579 453.237 14.4083 452.552 14.4212L452.338 14.4883L452.599 14.6063C452.907 14.5874 453.179 14.5663 453.474 14.5354C453.567 14.5257 453.658 14.5154 453.75 14.5051C453.807 14.6393 453.878 14.6193 453.568 14.7443C453.366 14.7589 453.185 14.7741 452.98 14.7827C452.51 14.8022 451.808 14.8146 451.232 14.787C451.411 14.7724 451.57 14.7535 451.692 14.7264C451.565 14.6518 451.473 14.615 451.338 14.5787C451.429 14.5738 451.532 14.569 451.668 14.5625L451.814 14.424C451.654 14.2751 451.345 14.148 451.059 14.0127C452.123 13.9661 453.709 13.9553 454.595 13.7962L453.265 13.6858C452.875 13.5441 452.443 13.3698 451.868 13.2751C451.262 13.1755 450.773 13.2005 450.101 13.2324C449.45 13.2632 448.918 13.2816 448.257 13.28C448.076 13.2497 447.96 13.228 447.874 13.2069C448.315 13.1934 448.724 13.1528 449.403 13.0841C451.288 12.8936 453.615 13.0695 455.507 12.8487C455.519 12.7259 455.522 12.6025 455.515 12.4796C455.636 12.4596 455.759 12.4396 455.878 12.419C456.232 12.3573 456.445 12.3108 456.712 12.2297L456.443 12.1398C456.324 12.149 456.205 12.1588 456.085 12.1674C455.546 12.2069 455.349 12.2167 454.811 12.1744C454.394 12.142 453.955 12.1322 453.504 12.1366C453.617 12.116 453.701 12.0841 453.833 12.0197L453.341 11.8601C453.201 11.8698 453.065 11.8849 452.921 11.8898C452.389 11.9077 452.261 11.8893 451.906 11.7935C452.512 11.6241 453.917 11.6945 454.818 11.6685C455.415 11.6517 456.003 11.6517 456.401 11.5332C456.222 11.4769 456.214 11.4683 455.951 11.419C454.459 11.1398 451.235 11.3211 449.564 11.3974C449.036 11.4217 448.7 11.4288 448.191 11.3855C448.038 11.3725 447.887 11.3573 447.735 11.3433L447.994 11.2637C448.243 11.234 448.637 11.1966 448.864 11.1522C449.457 11.0364 449.333 10.925 449.383 10.7507C450.293 10.5884 451.665 10.6209 452.749 10.5467L452.414 10.3919C452.835 10.3221 453.24 10.2556 453.727 10.2199C455.213 10.1111 455.822 10.3828 457.097 10.4472C458.581 10.5224 460.246 10.1116 461.81 10.32L461.646 10.491L461.897 10.5164L462.518 10.3178C462.906 10.3708 463.341 10.4309 463.782 10.4493C464.325 10.472 464.847 10.4466 465.283 10.3611L464.407 10.254L464.504 10.1733C464.845 10.1593 465.195 10.1414 465.538 10.1311C466.216 10.1106 466.52 10.1003 467.057 9.99368C467.415 9.92279 467.623 9.87896 468.076 9.85028C468.535 9.94985 468.294 9.91251 468.785 9.96824C469.337 9.81348 471.135 9.30481 470.876 9.08674C470.847 9.06238 470.374 8.87948 470.37 8.86541C470.346 8.78641 470.795 8.73825 470.843 8.66032C470.337 8.66519 470.55 8.68035 470.189 8.63489L470.243 8.54506C471.109 8.43304 472.692 8.50068 473.684 8.50285L473.315 8.3773L473.464 8.33022C475.889 8.59213 474.484 8.81618 474.928 9.07863C475.61 9.10839 475.93 9.1127 476.575 9.04614L476.586 8.94387L476.096 8.84809L475.638 8.94116L475.251 8.89301L475.472 8.70199C475.116 8.57374 474.819 8.45198 474.537 8.31128L474.813 8.23011C475.836 8.21713 476.48 8.16031 477.378 8.04126L477.385 7.96387C476.139 7.82588 474.757 7.8984 473.445 7.81723L473.292 7.6944C473.183 7.73227 473.01 7.79721 472.875 7.82697C472.449 7.92113 472.162 7.9049 471.641 7.90057L471.315 7.77936C471.388 7.70036 471.531 7.58346 471.521 7.49958C471.501 7.31938 471.254 7.2236 470.8 7.09427C470.523 7.19709 470.309 7.25987 469.906 7.33075L469.575 7.27447L469.905 7.02392L469.618 6.992C468.415 7.00769 466.838 7.05152 465.858 7.24308C465.561 7.30152 465.404 7.33832 465.074 7.38324L464.692 7.43412L464.153 7.41354C463.667 7.31992 463.184 7.08886 462.632 7.0315C461.545 6.91841 457.998 7.15921 455.968 6.85185C455.486 6.77879 455.483 6.75336 455.356 6.62294C456.563 6.2014 459.657 6.40433 461.125 6.17056C460.161 6.00876 459.479 5.82801 458.728 5.60561L458.847 5.51633C459.4 5.46114 459.647 5.43354 460.255 5.45085C460.713 5.46384 461.098 5.47141 461.558 5.4687C461.042 5.41405 460.56 5.38374 460.196 5.27227C461.404 5.14564 463.144 5.24576 464.175 5.08125C463.352 4.94272 461.689 5.04284 460.693 5.02228C459.951 5.00713 459.624 4.99196 459.164 4.83828C459.112 4.82096 459.065 4.80256 459.016 4.78471C458.734 4.87508 458.507 4.92379 458.118 4.98278C457.206 4.93137 456.321 4.88429 455.451 4.79608L455.718 4.71112L457.188 4.76902C457.684 4.69759 458.087 4.67973 458.659 4.6754C458.72 4.67486 458.78 4.67757 458.839 4.67865L458.889 4.62075C458.459 4.41945 457.854 4.39456 457.336 4.21761C457.707 4.12724 457.583 4.13372 457.984 4.1018C458.674 4.04606 459.36 4.00061 460.046 3.93892C459.427 3.8453 458.216 3.87181 457.462 3.87722C457.074 3.87993 456.837 3.89292 456.472 3.85288C456.402 3.8453 456.338 3.83503 456.27 3.82583C455.298 3.87399 454.44 3.89401 453.475 3.83232L453.206 3.63156C452.987 3.68621 452.86 3.72192 452.597 3.76846C452.163 3.8453 451.763 3.87128 451.251 3.84801L451.145 3.73492C451.249 3.70949 451.341 3.68025 451.456 3.65806C452.053 3.5428 452.532 3.45731 453.078 3.31662C452.844 3.25168 451.859 3.34692 451.26 3.27873L451.028 2.85774C451.048 2.72083 450.564 2.69052 450.564 2.54009C451.104 2.47624 451.484 2.4416 451.856 2.31768C451.715 2.13694 451.664 2.1483 451.073 2.03737L450.612 2.03466C450.344 1.84147 450.153 1.66129 449.574 1.51139L449.353 1.55793C449.576 1.71323 449.751 1.79656 449.573 1.96323L449.186 1.99408L448.616 1.88152C448.505 1.77708 448.485 1.71702 448.526 1.60663C448.539 1.57254 448.558 1.53899 448.575 1.5049L448.119 1.42264L448.062 1.33335C450.611 1.20023 453.227 1.37341 455.802 1.21107C455.887 1.20565 455.972 1.1997 456.056 1.19429C457.007 1.17372 457.515 1.18021 458.388 1.28249C458.664 1.20619 458.678 1.17481 459.09 1.15479C459.853 1.11799 460.385 1.08659 461.036 0.978365C460.761 0.858774 460.567 0.864194 460.057 0.834973C458.724 0.758672 457.181 0.891792 455.748 0.842008L455.613 0.767331C456.121 0.673714 464.549 0.423712 466.293 0.343083C462.657 0.1894 459.113 0.242423 455.464 0.171534C453.208 0.127702 450.895 -0.000539428 448.64 1.70734e-06C446.017 0.000542842 443.422 0.297085 440.816 0.368514C437.688 0.454555 423.58 0.372301 422.203 0.589837C421.793 0.654773 421.249 0.773826 420.751 0.755969C420.237 0.73757 419.728 0.632045 419.228 0.613105C417.829 0.559533 416.677 1.03573 415.101 0.916139C414.991 0.768951 415.208 0.704016 415.549 0.589837C415.698 0.540052 415.747 0.530308 415.903 0.491347L415.744 0.462662C415.672 0.469155 415.6 0.475651 415.528 0.481603C414.866 0.53734 414.516 0.53735 413.825 0.538973C411.828 0.544385 411.457 0.8274 409.331 0.520577L409.272 0.43723L410.365 0.320888L410.472 0.223487L410.144 0.201837L408.833 0.417215C407.506 0.637998 405.532 0.778152 403.984 0.687782C403.509 0.660184 403.375 0.673168 403.09 0.573058L403.787 0.471331L403.739 0.434521C401.598 0.336576 399.11 0.941566 397.795 0.770567L397.553 0.603362C396.669 0.556824 395.976 0.859321 394.905 0.832264C394.849 0.762458 394.801 0.694811 394.767 0.623922C393.862 0.667213 393.081 0.788981 392.237 0.691035L391.752 0.406398C391.302 0.371765 391.489 0.364188 391.08 0.415596C390.224 0.524364 389.179 0.972966 388.397 0.984871C388.323 0.815496 388.286 0.651532 388.271 0.481075C387.488 0.331722 386.423 0.390692 385.456 0.392856C385.39 0.40909 385.325 0.425335 385.259 0.441028C384.734 0.567112 384.432 0.645569 383.686 0.673167C382.682 0.591456 381.081 0.358223 380.044 0.476732C379.748 0.510282 379.51 0.598498 379.308 0.660187C378.873 0.564947 378.667 0.452934 378.392 0.326849C377.819 0.314944 378.039 0.291662 377.648 0.373915C377.328 0.441015 377.101 0.514074 376.842 0.596327C376.471 0.714294 376.25 0.757584 375.664 0.801416L375.265 0.772731L375.181 0.700762C374.961 0.518941 374.846 0.399889 374.238 0.275969C373.547 0.234843 373.189 0.205084 372.548 0.299783C371.394 0.469699 370.407 0.765702 369.137 0.873929C369.233 0.753256 369.326 0.632047 369.417 0.510833L369.108 0.43074C368.419 0.461043 367.954 0.516244 367.337 0.594708C367.051 0.52382 366.915 0.472952 366.715 0.386911C363.107 0.364725 359.491 0.458888 355.869 0.429666C354.329 0.41722 352.786 0.27922 351.282 0.283549C350.601 0.285714 350.089 0.360938 349.486 0.429121C349.307 0.449684 349.124 0.467535 348.943 0.486475C348 0.26028 347.393 0.277596 346.157 0.285713C342.914 0.307899 339.878 0.401527 336.808 0.66993C334.268 0.420467 332.195 0.324681 329.484 0.281931C328.795 0.600659 328.037 1.02599 326.535 1.1353C325.926 1.17967 325.348 1.14395 324.84 1.05304C323.87 0.879337 323.209 0.543305 322.02 0.47404C320.634 0.733785 320.618 1.19536 318.647 1.12285L318.208 1.01841L318.567 0.870676L318.229 0.864731C317.709 0.989733 317.373 1.11256 316.667 1.15531L316.512 1.08227C316.773 0.954023 317.354 0.755971 317.276 0.616358L316.374 0.847408L315.949 0.845244L316.124 0.630957L315.7 0.636374L315.555 0.841463L315.116 0.862023C314.937 0.765701 314.762 0.669377 314.592 0.572513C312.468 0.561691 311.556 1.35283 309.272 1.00001C309.342 0.892329 309.86 0.812791 309.866 0.796016C309.901 0.692659 309.044 0.267316 308.944 0.108764C308.183 0.0027013 307.423 0.0367973 306.617 0.0930753C305.547 0.167752 304.337 0.299241 303.725 0.549245C303.646 0.581172 303.59 0.616893 303.521 0.650444C303.296 0.760835 303.094 0.809542 302.727 0.889089L302.532 1.06549C302.276 0.899365 302.229 0.78356 301.642 0.678039L300.995 0.692109L300.855 0.811704C301.392 0.91939 301.546 0.90586 301.687 1.08443L301.392 1.15749L300.466 0.918303C300.233 1.00543 300.277 1.05899 300.243 1.16235L299.896 1.17318L298.661 0.897743L298.382 0.908014C298.339 1.00704 298.415 1.06171 298.118 1.13097C297.139 0.861487 295.9 0.431828 294.346 0.412888C293.511 0.402606 292.819 0.432904 292.079 0.528685C291.647 0.8696 292.834 0.975122 291.309 1.22621C290.798 1.11582 291.074 0.931289 290.547 0.897198C290.543 1.07577 290.648 1.18291 290.274 1.33984C289.802 1.3182 289.618 1.19429 289.344 1.09689C289.023 1.19808 289.072 1.27113 289.005 1.39776L288.718 1.37718L288.683 1.25164C288.652 1.14666 288.597 1.0525 288.488 0.950225C287.929 1.12609 287.538 1.42752 286.782 1.53737C286.36 1.47243 286.364 1.45673 286.238 1.33822C286.099 1.20727 286.121 1.06333 286.113 0.928591L285.822 0.863113C285.664 1.00435 285.635 1.12232 285.601 1.2668L285.356 1.27113L284.925 0.97242C284.359 1.09201 284.6 1.41073 283.997 1.4616L283.896 1.5287L283.914 1.24622C283.513 1.33172 283.337 1.4102 283.097 1.52762C282.739 1.50381 282.189 1.21538 281.977 1.12339L281.702 1.13855L281.471 1.30847C280.243 1.21431 279.398 0.879338 278.043 1.01354C277.546 1.2143 277.602 1.50381 276.888 1.63151C275.162 1.64504 273.194 1.70078 271.491 1.64342C270.449 1.60825 269.449 1.51734 268.42 1.47296C267.699 1.44212 266.914 1.56659 266.361 1.66833C266.283 1.34581 267.374 1.38909 266.359 1.00867C265.844 0.95239 265.807 0.944279 265.266 0.974583C264.569 1.30089 265.088 1.6905 264.387 2.00003L263.829 1.96865L263.751 1.8983C263.663 1.82038 263.563 1.7457 263.455 1.6694C263.023 1.61474 262.701 1.54494 262.204 1.60285C262.014 1.62503 261.616 1.70296 261.44 1.73597L260.913 1.71106C260.777 1.59797 260.815 1.56171 260.892 1.44808C260.131 1.3431 244.092 1.67968 241.297 1.69538C239.296 1.70674 237.315 1.59635 235.325 1.55793C232.552 1.5049 229.728 1.50273 226.947 1.49516C218.303 1.47081 209.781 1.64667 201.162 1.74895C194.012 1.83336 186.894 1.75815 179.752 1.8009C172.448 1.84419 165.11 2.03142 157.809 1.93077C154.259 1.88207 137.838 1.49083 135.582 1.66994C135.146 1.70458 134.736 1.82633 134.424 1.90804L133.974 1.91183L133.884 1.70566C131.676 1.5601 129.245 1.92211 126.789 1.76031C125.715 1.68942 125.173 1.73704 124.186 1.82579C122.942 1.9378 121.503 1.58173 119.848 1.7181C119.955 1.82524 120.059 1.82091 120.388 1.88585C118.197 1.92427 116.327 1.43996 114.787 1.56929C115.123 1.76031 115.63 1.73434 116.248 1.84689C115.082 1.82146 113.917 1.79385 112.753 1.76409C113.422 1.63368 113.703 1.80848 114.462 1.57038L114.35 1.50219C113.763 1.52276 113.184 1.54386 112.592 1.54873C112.398 1.65046 112.192 1.75002 111.975 1.84851C110.904 1.90208 108.684 1.86151 108.029 2.09474C107.984 2.11097 107.951 2.12936 107.912 2.14667L108.071 2.25978C107.55 2.22298 107.537 2.21703 107.203 2.10826C107.466 1.89073 108.081 1.9194 108.086 1.6786L107.694 1.52817L107.484 1.5287C107.233 1.65586 106.992 1.78196 106.769 1.91237C106.445 1.87882 106.323 1.84634 106.076 1.7852C105.72 1.79169 105.393 1.80197 105.038 1.81604L104.965 1.74246C104.806 1.58607 104.73 1.45402 104.256 1.33768C103.722 1.32145 103.217 1.34797 102.824 1.45566C102.732 1.48055 102.67 1.51194 102.593 1.54008L103.174 1.66723L102.82 1.78736L102.409 1.78467L102.479 1.60663L102.156 1.62828L101.794 1.87287L101.483 1.85825L101.396 1.75924C101.315 1.67211 101.23 1.59743 101.101 1.51517L100.677 1.50706L100.537 1.58607C100.393 1.66507 100.24 1.73758 100.066 1.81172C99.4074 1.78845 99.4789 1.77492 99.0303 1.66507C98.9719 1.36799 97.9659 1.16127 97.4181 0.887454L97.1502 0.879346C97.0792 1.07578 97.4412 1.23109 97.7519 1.40479L97.626 1.35933L97.3828 1.36745C97.3224 1.35609 97.262 1.34417 97.2006 1.33281C96.6603 1.23324 96.3099 1.18183 95.6332 1.15315C95.7097 1.17371 95.7878 1.19428 95.8633 1.21485C96.2147 1.31171 96.0858 1.27383 96.403 1.39612L96.1478 1.4919L95.819 1.48216L95.3241 1.20187C94.7803 1.21323 94.7083 1.18995 94.2884 1.28843C94.6896 1.39233 94.4606 1.35934 94.954 1.39776L94.8316 1.51246C94.7007 1.63801 94.6851 1.59093 94.7299 1.65911L94.1766 1.71052C94.7732 1.68671 94.8905 1.69646 95.461 1.75111C95.028 1.82038 94.7002 1.82957 94.1982 1.80197C93.5075 1.76464 92.3796 1.60013 91.7105 1.69212C91.4708 1.72513 91.28 1.76898 91.0726 1.81281C90.4387 1.82309 90.0626 1.83661 89.4715 1.76518L89.1835 1.48216L88.8557 1.46864L88.5199 1.56767L88.7062 1.7392L88.2565 1.76789L87.9001 1.58552C87.389 1.60987 87.167 1.66453 86.7838 1.75111L86.3921 1.7273L86.3312 1.60392C86.2255 1.39937 86.1867 1.13964 85.5181 0.998941C85.3257 0.958356 85.1092 0.929122 84.9013 0.894489C84.2724 0.791133 83.932 0.639071 83.1682 0.628249L82.9558 0.762459C83.9446 1.02653 84.1259 0.795462 85.2114 1.21647L85.0906 1.37989L84.6732 1.42643C84.3837 1.26192 84.4391 1.23054 83.7976 1.16289L83.3772 1.18345C83.344 1.26246 83.3878 1.34309 83.3561 1.4221C83.347 1.44483 83.2881 1.46486 83.2539 1.48596C83.0822 1.38856 82.8576 1.30088 82.6426 1.20943C82.0042 1.15478 81.7353 1.19429 81.0939 1.2365C78.3065 0.948613 70.8473 0.925335 67.8123 1.09525C67.5545 1.08335 67.2353 0.991891 67.0631 0.945353C67.0037 0.929119 66.9473 0.912354 66.8894 0.895579C66.5017 0.956186 65.8577 1.09146 65.4469 1.12068C64.6957 1.17426 62.2426 1.04871 61.1188 1.07631C60.5605 1.21322 60.5126 1.2484 60.2936 1.43942C59.8853 1.42319 59.4744 1.42318 59.0621 1.41885C58.6532 1.513 58.5062 1.54981 57.9665 1.59256L57.7973 1.43833C56.9263 1.37394 56.4087 1.39992 55.5286 1.45295L55.2149 1.47243C54.4154 1.39343 53.6138 1.37123 52.8455 1.27924C51.5807 1.33876 48.8895 1.35067 47.7839 1.184C47.4939 1.14017 47.5895 1.13908 47.5286 1.04113C48.4087 1.03356 49.7223 1.08065 50.4262 0.95835C50.111 0.936704 49.8562 0.922636 49.528 0.932918C48.8085 0.955645 48.3261 0.95672 47.6182 0.908559C46.142 0.808449 44.9099 0.916136 43.4478 0.824684C43.3582 0.819273 43.2696 0.812785 43.1805 0.806832C43.0863 0.827396 42.9791 0.844174 42.8975 0.867984C42.7852 0.900994 42.7021 0.939942 42.6045 0.975656C42.3849 0.840914 42.4544 0.836589 41.9429 0.750007L41.2148 0.820902C40.8825 0.930212 40.5462 1.0314 40.1686 1.13097C39.6288 1.09904 39.6228 1.1012 39.2854 0.989726L39.7391 0.851751L39.6384 0.750007C39.0453 0.738643 39.0856 0.708885 38.5916 0.811159L38.6198 1.04817L38.3313 1.11798C37.853 1.07414 37.4054 1.04385 36.913 1.01247C37.2463 0.943742 37.4593 0.890705 37.6808 0.797089C37.2488 0.657476 36.7413 0.707264 36.0334 0.603907C36.0616 0.714298 36.0661 0.823059 36.0641 0.933991C35.4458 0.969706 35.7383 0.981611 35.1875 0.896653L35.3592 0.687237L35.0521 0.663969C34.7243 0.786265 34.2958 0.865268 33.8437 0.955096L33.7113 0.924264L34.2243 0.716996L34.1433 0.633665C32.5457 0.565482 30.4074 0.82468 28.834 0.938318L28.4548 0.809541C28.0394 0.93779 27.6855 1.03195 27.1538 1.13152L27.2258 1.24893C27.6991 1.32577 27.9911 1.32794 28.545 1.33064C28.7106 1.43941 28.5817 1.46107 28.4392 1.56767L28.7484 1.59688L29.4321 1.33064C30.3258 1.30629 31.2205 1.33064 32.1248 1.31387L32.6182 1.38369C32.5306 1.49678 32.3931 1.57037 32.1656 1.6694C32.5845 1.67535 32.3433 1.6748 32.8891 1.66398L32.9409 1.74624C32.2778 1.82362 31.7935 1.8193 31.0881 1.81281L30.5403 1.72784L30.5101 1.64884C30.4693 1.55035 30.5005 1.58877 30.4159 1.51301C30.0459 1.58498 29.9185 1.63855 29.7236 1.74569C28.4755 1.75706 28.3476 1.67751 27.4443 1.47513L27.5526 1.64938C26.9187 1.77384 25.4163 1.77438 24.6263 1.73759C24.3015 1.72243 24.1067 1.68618 23.8655 1.63315L23.4255 1.80252L23.5589 1.90534C24.5764 1.99625 25.5779 1.95511 26.5461 2.07687C28.5923 2.33391 32.45 2.0298 34.2873 2.35556C34.4711 2.52872 34.5763 2.70189 34.6845 2.87884C34.1951 2.99086 34.0466 2.97029 33.3785 2.97841L33.0431 2.93458C33.1373 2.92484 33.232 2.9151 33.3251 2.90428C33.6337 2.8691 33.8518 2.83338 34.1166 2.78143L34.0617 2.63424L33.67 2.59312C32.4682 2.75762 32.2663 2.55957 30.7558 2.81553C30.1345 2.92105 29.5988 2.94486 28.8712 2.96705L28.546 3.04063L28.768 3.13425C28.909 3.13371 29.0495 3.13316 29.1904 3.13316C30.36 3.13533 31.6686 3.25439 32.803 3.32852L32.6474 3.46543C35.045 3.50818 37.4945 3.42918 39.9203 3.45461C44.2096 3.49952 48.4193 3.65104 52.6904 3.73383C54.2009 3.76305 55.9117 3.67701 57.3069 3.81121C58.1241 3.88968 58.756 3.89185 59.6205 3.8886C64.1468 3.87345 68.421 4.07204 72.8834 4.15646C74.8662 4.1938 76.8968 4.10018 78.8538 4.21868C78.9092 4.35072 78.7808 4.37075 78.5487 4.48493C77.5296 4.53742 77.586 4.35343 76.7935 4.31717C76.3822 4.29823 74.2106 4.49142 73.6271 4.50874C72.826 4.53255 72.1579 4.45517 71.3876 4.45787C70.2774 4.4622 68.6788 4.57096 67.6174 4.52443C67.0661 4.50062 67.2937 4.48818 66.8521 4.43893C66.7328 4.42595 66.4005 4.40592 66.2535 4.39672L65.7112 4.64564L65.4665 4.64997L65.1538 4.48654L64.7661 4.47356C64.608 4.57476 64.5401 4.64618 64.4721 4.75224L63.9958 4.77282L63.6977 4.70625L63.8009 4.49738C63.2597 4.42703 63.2677 4.44489 62.7023 4.4622C62.5221 4.60885 62.5941 4.53362 62.4878 4.68731L62.0498 4.66566L61.6188 4.46924L60.6592 4.43297C60.2292 4.52442 60.3117 4.51307 60.1924 4.6397C59.5082 4.56772 59.9533 4.4043 59.1708 4.41512L58.8405 4.61317C58.549 4.55473 58.4962 4.48006 58.3512 4.39456C58.1976 4.50333 58.0621 4.60993 57.9463 4.72141L57.4877 4.76253L57.2757 4.6792L57.4816 4.46869L57.1599 4.40916L56.9645 4.47464C56.5401 4.61425 56.2652 4.73817 55.5603 4.78471L55.1454 4.74684L54.7653 4.47247L54.3418 4.42323C54.1198 4.55256 54.1535 4.58395 54.214 4.71977C53.6274 4.64131 53.3359 4.53795 52.9104 4.41241L52.6456 4.4411L52.6828 4.68298C52.0716 4.78904 51.1704 4.74142 50.4438 4.71112C49.8129 4.6846 49.5627 4.64943 49.2188 4.51577C49.2218 4.50657 49.2375 4.49738 49.2284 4.48818C49.2022 4.46274 49.1524 4.43892 49.1141 4.41403L48.4299 4.41674C48.2808 4.51739 48.2229 4.58179 48.1706 4.68569L47.7849 4.7057C47.7335 4.67432 47.6837 4.64294 47.6308 4.61156C47.4224 4.48818 47.5286 4.53471 47.2492 4.4411C47.0357 4.53958 46.9526 4.65431 46.503 4.68623C46.0488 4.7187 45.6974 4.70299 45.2392 4.68892C45.3062 4.59693 45.2845 4.54336 45.2402 4.45191C43.3677 4.29769 39.4798 4.24086 37.6541 4.41836C37.1431 4.34476 36.6975 4.2425 36.1084 4.25657C35.0027 4.28254 33.9454 4.15051 32.8654 4.24521L32.6318 4.36587C32.8246 4.48925 33.0175 4.55636 33.3795 4.65106L33.2768 4.74846C32.3106 4.85181 31.5714 4.70624 30.5811 4.82475L30.5055 4.91783C31.2412 5.12075 32.6645 5.18137 33.6307 5.30421C32.3423 5.31287 32.8896 5.18516 31.5513 5.38592L31.4471 5.43246C32.2632 5.50605 33.0578 5.54609 33.8563 5.46167C33.9122 5.37292 33.9706 5.28472 34.036 5.19652C35.3673 5.33397 35.4 5.64186 37.0278 5.49846C37.1285 5.5082 37.2272 5.52011 37.3299 5.52877C37.7347 5.56286 37.8822 5.55692 38.279 5.5304L38.3117 5.6581C37.7901 5.79177 37.0837 5.74848 36.3642 5.75011C36.8198 5.91894 38.5619 6.10076 38.6334 6.27663C37.712 6.4 36.4327 6.3697 35.4146 6.34589C35.1175 6.33885 34.8829 6.34427 34.5924 6.36105L34.4872 6.42543L34.8416 6.55963C34.4655 6.68247 34.3885 6.67002 33.8049 6.69546C33.4323 6.71115 33.5341 6.70357 33.0734 6.67922C33.2546 6.55693 33.4988 6.53312 33.89 6.45303C33.5995 6.3448 33.1041 6.25769 32.595 6.22793C31.8005 6.18193 31.285 6.23279 30.6546 6.35347C30.5876 6.36591 30.5252 6.38051 30.4607 6.39404C29.0953 6.44924 27.8109 6.37295 26.4827 6.29286C25.8714 6.25606 25.5451 6.28203 24.9314 6.30855C24.6097 6.32208 24.2169 6.31774 23.8942 6.31991L23.9461 6.40758L23.504 6.36374C23.5307 6.40216 23.5594 6.44059 23.5835 6.47901C23.6681 6.61375 23.5891 6.70196 23.4199 6.83183L22.9778 6.8816L22.4985 6.79449C22.851 6.71603 22.9617 6.70249 23.3877 6.66732C23.2749 6.58831 23.138 6.58021 22.8787 6.5315C22.3319 6.52934 21.918 6.52878 21.3818 6.49902C21.2881 6.52283 21.1955 6.54665 21.1003 6.56992C20.6965 6.6684 20.2761 6.71223 19.7681 6.76797L19.605 6.86213L20.9422 6.86862C20.9004 6.99958 20.4116 7.09698 20.0148 7.17815C19.4358 7.29666 18.891 7.30802 18.1851 7.30423C17.7486 7.24796 17.3151 7.19223 16.8655 7.14244C16.9505 7.3405 17.3614 7.48714 17.9676 7.60619C18.0668 7.62567 18.174 7.64191 18.2772 7.65977C18.7314 7.61972 18.7002 7.6116 18.9887 7.52394C19.6941 7.72416 19.6734 7.76854 20.7439 7.81886C19.898 7.99419 18.3825 8.10132 18.0688 8.38596C19.03 8.58131 21.1497 8.72038 22.3737 8.69874C22.6788 8.69332 22.7286 8.67873 22.9829 8.6468C23.0967 8.63273 23.212 8.6192 23.3253 8.60459C23.4149 8.59322 23.5025 8.58077 23.5911 8.56887L23.8952 8.63326C23.5493 8.79452 22.9048 8.86921 22.3092 8.96174L22.3908 8.98879C23.8786 8.94658 25.3503 8.91952 26.7973 8.81779L27.1478 8.86758L27.0974 8.98285C26.0995 9.1138 24.5744 9.04453 23.4647 9.03046L23.4672 9.02775L23.1792 9.11758C23.7905 9.13923 24.3348 9.15221 24.95 9.15221C26.2042 9.15221 27.8954 9.23934 29.0021 9.39248C26.3679 9.71824 22.3782 8.92169 20.1694 9.32484L20.7338 9.52451C22.1793 9.50503 24.0025 9.41087 25.3624 9.53371L25.5567 9.60028L25.3468 9.636C25.0296 9.69119 25.1504 9.66899 24.8292 9.73663C24.9621 9.7599 25.0975 9.78156 25.2274 9.80591C25.3387 9.82647 25.4445 9.8492 25.5532 9.87084C25.0487 9.95959 23.0312 9.9466 22.3772 9.91251C22.282 9.90764 21.9432 9.87247 21.841 9.86164C22.2387 9.7637 22.4749 9.78589 23.0091 9.77073L22.9356 9.69173C22.2392 9.66738 21.4105 9.76803 20.8365 9.86597C20.915 9.87842 20.9931 9.89141 21.0726 9.90385C22.9874 10.1993 24.8725 10.0813 26.8326 10.2567C27.4947 10.3156 28.0218 10.4628 28.6441 10.524C28.907 10.5494 29.4935 10.5256 29.778 10.5202L30.0574 10.6062C29.9245 10.7637 29.921 10.7875 29.4799 10.9001L29.2398 10.8638C29.0056 10.8286 28.765 10.7967 28.5233 10.7653C28.4095 10.7826 28.2987 10.8016 28.1824 10.8178C27.7595 10.8774 27.5863 10.8849 27.1216 10.8839C26.5718 10.9623 26.3875 11.0229 26.0718 11.1615C25.5044 11.1495 25.1116 11.1014 24.587 11.0559C23.9435 10.9997 23.6284 11.0916 23.0851 11.1539C22.9955 11.1642 22.8958 11.1674 22.8051 11.1771C22.7971 11.1782 22.79 11.1793 22.7825 11.1804C24.1424 11.4158 26.0275 11.2275 27.4363 11.4488C26.1483 11.7653 23.2306 11.5208 22.7518 12.0462C24.4959 12.4326 34.0959 11.7334 35.4579 12.5668C35.3955 12.5857 35.3386 12.6063 35.2706 12.6241C35.2273 12.6355 35.187 12.6431 35.1457 12.6517C33.9746 12.6431 32.8045 12.6382 31.6409 12.642C28.5298 12.6523 25.3015 12.7362 22.2015 12.6728C19.8481 12.6247 17.2456 12.0154 15.0423 12.1387C15.574 12.4099 17.9606 12.6696 19.0637 12.773C19.5677 12.9115 19.7585 12.9721 19.8985 13.1631C19.3895 13.1972 18.9942 13.1312 18.5084 13.0873C18.5371 13.2308 19.4967 13.4321 19.9312 13.5262C20.2081 13.5863 20.4966 13.6436 20.7836 13.7005C20.5409 13.9185 20.1437 14.1501 20.2746 14.3753C20.9865 14.4965 21.8611 14.6144 22.3258 14.7968L22.2689 14.9315C19.4776 15.4851 11.1181 15.0711 9.4017 15.4981C12.4398 15.8731 17.1942 15.3201 20.5691 16.1209C23.069 16.1188 27.2238 16.0571 29.3616 16.4251C29.484 16.5008 29.6023 16.5771 29.7166 16.654C30.2513 16.6442 30.7855 16.6334 31.3197 16.622L31.2417 16.733C30.5529 16.7736 30.1244 16.7887 29.421 16.7676C27.8985 16.7222 26.9569 16.9359 25.5653 16.9911C24.2079 17.0447 23.4612 16.7719 21.8485 16.8915C23.2095 17.1058 25.45 17.0723 26.4328 17.3266L26.3885 17.3775L25.5658 17.4348C25.4852 17.6745 26.8849 17.8899 26.971 18.1713C25.7773 18.3937 24.233 18.1507 23.0388 18.3131L23.0116 18.404C22.9542 18.5793 23.0302 18.7108 22.3842 18.8174C22.0167 18.878 21.0495 18.9278 20.6361 18.9024C19.2223 18.8158 18.4505 18.595 16.8297 18.568C14.4135 18.5274 11.7721 18.4289 9.4163 18.601L8.94251 18.7097C8.93144 18.8082 9.16506 18.8456 9.39717 18.9224L9.31308 18.9321C9.93993 19.0036 11.107 19.0517 11.2782 19.2238C11.3034 19.2487 11.2838 19.2752 11.2984 19.3012C11.4418 19.5555 12.4428 19.7125 13.2096 19.8542L13.2947 19.9717C12.9332 20.015 12.107 20.0799 11.9418 20.1649L12.254 20.173C12.6804 20.1849 13.0978 20.2033 13.5203 20.2217C13.195 20.3689 13.2167 20.3651 13.3617 20.5301C13.2705 20.5361 13.1789 20.5415 13.0883 20.548C12.7962 20.568 12.5244 20.5907 12.2424 20.6178C12.4529 20.6649 12.6588 20.699 12.8808 20.7406C13.7952 20.9127 13.7695 21.3002 15.2528 21.2531C15.4411 21.2471 15.791 21.2233 15.9843 21.2109C16.5744 21.2547 17.0643 21.2747 17.45 21.404C16.9712 21.5431 16.0443 21.5653 15.3535 21.6091C15.646 21.7504 16.1681 21.7904 16.7199 21.8543C17.2325 21.8499 17.1817 21.8678 17.596 21.7856C17.9434 21.7168 18.174 21.6806 18.6292 21.6892C19.4106 21.7044 19.8683 21.8435 20.3959 21.9674C20.4775 21.9863 20.5611 22.0047 20.6432 22.0242L20.7897 22.0583L21.4341 21.8862L21.7775 21.9095C22.5549 21.9603 23.3645 21.9852 24.1575 22.0166L24.0498 22.0448L24.6061 22.0426L24.3327 22.1119L22.6244 22.1167L22.4985 22.1779L22.8917 22.2471L22.8338 22.2812L23.3474 22.2964C22.419 22.5296 20.77 22.4798 19.7273 22.6806C20.6552 22.831 21.6537 22.6124 22.568 22.7888C22.4693 22.8018 22.3696 22.8137 22.272 22.8267C21.8687 22.8808 22.0182 22.8543 21.707 22.9295L22.3112 23.1259L22.1723 23.2277C20.9332 23.3705 19.5103 23.3981 18.1655 23.3624L17.6076 23.272L17.5129 23.0572L17.1313 23.0204C16.7708 23.1979 17.3005 23.2888 16.8398 23.4593L16.2935 23.4755C16.1505 23.3673 16.1671 23.4241 16.2698 23.3051L16.0261 23.2536L15.724 23.3094L15.7553 23.5199C14.0368 23.6465 13.2544 23.2488 11.7691 23.7629L12.7555 23.8819L12.8068 23.9744C10.8382 24.0892 4.57221 23.5377 3.69563 23.7353C5.4654 23.9977 12.9392 24.1481 13.7025 24.3294C14.7055 24.5675 17.1378 24.3251 17.3347 24.653L16.4088 24.6249L16.2507 24.6833L16.4204 24.7997C16.9954 24.8154 16.7492 24.8321 17.1469 24.7753C17.7456 24.6893 18.2163 24.6168 18.9192 24.5967C18.9635 24.5708 19.0043 24.5443 19.0521 24.5188C19.2178 24.4301 19.3376 24.3933 19.6221 24.3305C20.7635 24.3121 21.5127 24.3798 22.3867 24.5616C22.9008 24.6682 23.2699 24.7694 23.6561 24.8608C22.9476 24.9539 21.6491 24.9523 20.9322 24.9187C20.6074 24.9036 20.4126 24.8673 20.1709 24.8143L19.7308 24.9837L19.8643 25.0859C20.8818 25.1768 21.8833 25.1357 22.8515 25.2575C23.3615 25.3213 23.9843 25.3506 24.6605 25.3635C24.5865 25.3901 24.5427 25.4252 24.5558 25.4766C26.1775 25.6492 26.6413 25.5811 27.8104 25.8938C27.5989 25.9155 27.3557 25.9474 27.0622 25.9972C26.4409 26.1027 25.9051 26.1265 25.1776 26.1487L24.8523 26.2223L25.0744 26.3165C25.2149 26.3159 25.3558 26.3149 25.4968 26.3154C26.6664 26.3176 27.975 26.4366 29.1094 26.5107L28.9538 26.6476C29.9406 26.6655 30.9365 26.6606 31.9355 26.6531C31.9264 26.6796 31.944 26.7066 32.0039 26.7353C32.3216 26.7321 32.595 26.7559 32.802 26.6871C32.8407 26.6742 32.8679 26.6596 32.9002 26.646C33.9932 26.6357 35.0883 26.626 36.1789 26.6368L36.121 26.7077C36.8566 26.9106 38.28 26.9712 39.2462 27.0941C37.9577 27.1027 38.505 26.975 37.1667 27.1758L37.062 27.2223C37.8782 27.2959 38.6727 27.336 39.4712 27.2515C39.5266 27.1628 39.585 27.0746 39.651 26.9864C40.9822 27.1238 41.0149 27.4317 42.6427 27.2883C42.7434 27.2986 42.8421 27.31 42.9448 27.3186C43.3496 27.3527 43.4971 27.3468 43.8939 27.3203L43.9266 27.448C43.405 27.5816 42.6986 27.5384 41.9791 27.54C42.1981 27.6212 42.7132 27.705 43.1976 27.79C43.1039 27.8219 42.9846 27.8479 42.8079 27.8603C42.3537 27.8928 42.0023 27.8771 41.5441 27.863C41.6111 27.771 41.5894 27.7175 41.5451 27.626C39.6726 27.4718 35.7847 27.415 33.959 27.5925C33.448 27.5189 33.0024 27.4166 32.4133 27.4307C31.3081 27.4566 30.2503 27.3246 29.1708 27.4193L28.9372 27.54C29.13 27.6634 29.3234 27.7305 29.6849 27.8252L29.5821 27.9226C28.6159 28.0259 27.8768 27.8804 26.8865 27.9994L26.8109 28.0925C27.1896 28.1969 27.751 28.2635 28.338 28.3203C27.8678 28.3181 27.4796 28.3154 26.9972 28.2884C26.9036 28.3122 26.8109 28.336 26.7158 28.3592C26.312 28.4577 25.8916 28.5016 25.3835 28.5573L25.2204 28.6515L26.5577 28.658C26.5159 28.7889 26.027 28.8863 25.6302 28.9675C25.0517 29.086 24.5064 29.0979 23.8006 29.0936C23.364 29.0373 22.9305 28.9816 22.4809 28.9318C22.566 29.1293 22.9768 29.2765 23.583 29.395C23.6822 29.4145 23.7895 29.4307 23.8927 29.4486C24.3468 29.4085 24.3156 29.4004 24.6041 29.3127C25.1957 29.4805 25.2843 29.5384 25.9258 29.5828C24.8664 29.5876 23.8398 29.5297 22.7875 29.4659C22.1763 29.4291 21.85 29.4551 21.2363 29.4816C20.9145 29.4951 20.5218 29.4908 20.1991 29.4929L20.2509 29.5806L19.8089 29.5368C19.8351 29.5752 19.8638 29.6136 19.8879 29.652C19.9725 29.7868 19.8935 29.875 19.7243 30.0049L19.2822 30.0546L18.8029 29.9675C19.1553 29.8885 19.2661 29.8755 19.6921 29.8403C19.5793 29.7613 19.4423 29.7538 19.183 29.7051C18.6362 29.7029 18.2224 29.7023 17.6861 29.6726C17.5925 29.6964 17.4999 29.7202 17.4047 29.7435C17.0009 29.842 16.5805 29.8858 16.0725 29.9415L15.9093 30.0357L17.2466 30.0422C17.2048 30.1731 16.7159 30.27 16.3192 30.3517C15.7407 30.4702 15.1954 30.4821 14.4895 30.4778C14.053 30.4215 13.6194 30.3658 13.1698 30.316C13.2549 30.5135 13.6658 30.6607 14.272 30.7798C14.3712 30.7992 14.4784 30.8155 14.5816 30.8333C15.0358 30.7933 15.0046 30.7852 15.2931 30.6975C15.9984 30.8977 15.9778 30.9421 17.0482 30.9924C16.2019 31.1677 14.6868 31.2749 14.3732 31.5595C15.3343 31.7549 17.454 31.8939 18.678 31.8723C18.9831 31.8669 19.033 31.8523 19.2873 31.8203C19.401 31.8063 19.5163 31.7928 19.6296 31.7782C19.7192 31.7668 19.8069 31.7543 19.8955 31.7424L20.1996 31.8068C19.8537 31.9681 19.2092 32.0428 18.6136 32.1353L18.6951 32.1624C20.183 32.1201 21.6547 32.0931 23.1017 31.9914L23.4516 32.0411L23.4013 32.1564C22.4034 32.2873 20.8783 32.2181 19.7686 32.204L19.7711 32.2008L19.4831 32.2906C20.0944 32.3123 20.6386 32.3252 21.2539 32.3252C22.5081 32.3252 24.1993 32.4124 25.306 32.5655C22.6717 32.8913 18.6821 32.0947 16.4732 32.4979L17.0377 32.6975C18.4832 32.678 20.3063 32.5839 21.6663 32.7067L21.8606 32.7733L21.6506 32.809C21.3334 32.8642 21.4543 32.842 21.1331 32.9091C21.266 32.9324 21.4014 32.9546 21.5313 32.9784C21.6426 32.9989 21.7483 33.0217 21.8571 33.0433C21.3531 33.1321 19.3351 33.1191 18.681 33.085C18.5859 33.0801 18.247 33.0449 18.1448 33.0341C18.5426 32.9362 18.7787 32.9584 19.3129 32.9432L19.2394 32.8642C18.5431 32.8399 17.7143 32.9405 17.1404 33.0384C17.2189 33.0509 17.297 33.0639 17.3765 33.0763C19.2913 33.3718 21.1764 33.2538 23.1369 33.4292C23.799 33.4881 24.3262 33.6353 24.9485 33.6965C25.2113 33.7224 25.7979 33.6981 26.0824 33.6927L26.3618 33.7787C26.2289 33.9362 26.2254 33.9605 25.7843 34.0726L25.5441 34.0363C25.31 34.0011 25.0694 33.9692 24.8277 33.9378C24.7139 33.9551 24.6031 33.9741 24.4863 33.9903C24.0951 34.0455 23.9083 34.0558 23.5161 34.0558C22.5262 33.9497 21.5575 33.8761 20.6568 33.9265C20.9216 34.0617 21.6456 34.1938 22.4421 34.3052C22.4205 34.3144 22.3988 34.3236 22.3757 34.3334C21.8082 34.3215 21.4155 34.2733 20.8909 34.2279C20.2474 34.1716 19.9322 34.2636 19.389 34.3258C19.2993 34.3361 19.1996 34.3393 19.109 34.3491C19.101 34.3502 19.0939 34.3512 19.0864 34.3523C20.4463 34.5883 22.3314 34.3994 23.7401 34.6207C22.4522 34.9373 19.5345 34.6927 19.0556 35.2181C19.9257 35.4108 22.7493 35.3334 25.5306 35.3112C25.5351 35.3123 25.5411 35.3134 25.5457 35.3145C25.8226 35.3745 26.1111 35.4319 26.3981 35.4887C26.2747 35.5991 26.1121 35.7138 25.9988 35.8291C23.5015 35.854 20.9644 35.8951 18.5058 35.8448C16.1525 35.7966 13.55 35.1873 11.3467 35.3107C11.8784 35.5818 14.2649 35.8415 15.3681 35.9454C15.8721 36.084 16.0629 36.1446 16.2029 36.3356C15.6938 36.3697 15.2986 36.3037 14.8127 36.2598C14.8414 36.4032 15.8011 36.6045 16.2356 36.6987C16.5125 36.7588 16.801 36.8161 17.088 36.8729C16.9999 36.9519 16.8911 37.0336 16.795 37.1154C15.9959 37.1478 15.3666 37.1998 15.0161 37.2869C15.4929 37.3459 16.0156 37.38 16.5649 37.4022C16.5508 37.4509 16.5508 37.5001 16.579 37.5483C17.2909 37.6695 18.165 37.7874 18.6302 37.9698L18.5733 38.1046C15.7819 38.6587 7.42247 38.2442 5.70607 38.6711C8.74414 39.0461 13.4986 38.4931 16.8735 39.294C19.3734 39.2918 23.5282 39.2301 25.666 39.5981C25.7883 39.6738 25.9067 39.7501 26.021 39.827C26.5557 39.8172 27.0899 39.8064 27.6241 39.795L27.546 39.906C26.8572 39.9466 26.4288 39.9617 25.7254 39.9406C24.2028 39.8952 23.2608 40.1089 21.8697 40.1641C20.5122 40.2177 19.7656 39.945 18.1529 40.0645C19.1307 40.2188 20.5606 40.2447 21.6537 40.3416C19.4599 40.2978 17.1323 40.2361 15.0307 40.3898L14.5569 40.4985C14.5459 40.597 14.7795 40.6344 15.0116 40.7112L14.9275 40.7209C15.5544 40.7924 16.7215 40.8405 16.8926 41.0126C16.9178 41.0375 16.8982 41.064 16.9128 41.09C17.0568 41.3443 18.0572 41.5013 18.824 41.643L18.9091 41.7605C18.5476 41.8038 17.7214 41.8687 17.5562 41.9536L17.8679 41.9618C18.1398 41.9693 18.4072 41.9818 18.6755 41.9931C18.2999 42.0527 17.3493 42.1014 16.9405 42.0765C15.5267 41.9899 14.7548 41.7691 13.1341 41.7421C10.7178 41.7015 8.07651 41.603 5.72067 41.7751L5.24689 41.8838C5.23581 41.9823 5.46943 42.0197 5.70154 42.0965L5.61746 42.1063C6.2443 42.1777 7.4114 42.2264 7.58258 42.3979C7.60776 42.4228 7.58812 42.4499 7.60272 42.4753C7.74672 42.7296 8.74716 42.8866 9.51398 43.0283L9.59907 43.1458C9.23806 43.1891 8.41133 43.254 8.24619 43.339L8.55785 43.3471C8.9843 43.359 9.4017 43.3774 9.82413 43.3958C9.49887 43.543 9.52052 43.5392 9.66553 43.7042C9.5744 43.7102 9.48276 43.7156 9.39213 43.7221C9.10011 43.7421 8.82822 43.7648 8.54627 43.7919C8.75673 43.839 8.96215 43.873 9.18469 43.9147C10.099 44.0868 10.0734 44.4743 11.5566 44.4272C11.7455 44.4212 12.0949 44.3974 12.2882 44.385C12.8783 44.4283 13.3682 44.4488 13.7539 44.5776C13.2751 44.7172 12.3481 44.7389 11.6573 44.7827C11.9499 44.9239 12.472 44.964 13.0238 45.0278C13.5364 45.0235 13.4855 45.0414 13.8999 44.9591C14.2473 44.8904 14.4779 44.8536 14.9331 44.8628C15.7145 44.8779 16.1722 45.017 16.6998 45.1409C16.7814 45.1599 16.865 45.1783 16.947 45.1977L17.0935 45.2319L17.738 45.0598L18.0814 45.083C18.8588 45.1339 19.6684 45.1588 20.4614 45.1902L20.3536 45.2183L20.91 45.2161L20.6366 45.2854L19.3598 45.2892C18.7379 45.2654 18.1554 45.286 17.3841 45.5527L18.2083 45.6523C17.7093 45.6869 17.1912 45.7145 16.7179 45.7616C14.0746 45.6815 10.0044 45.3682 9.31057 45.5246C10.7737 45.7416 16.1309 45.8817 18.3769 46.0262C18.2193 46.0468 18.2516 46.0446 18.0109 46.1025L18.6151 46.299L18.4761 46.4007C17.237 46.5435 15.8142 46.5712 14.4693 46.5354L13.9115 46.4451L13.8168 46.2302L13.4352 46.1934C13.0747 46.3709 13.6043 46.4618 13.1436 46.6323L12.5974 46.6485C12.4544 46.5403 12.471 46.5971 12.5737 46.4781L12.33 46.4267L12.0279 46.4824L12.0591 46.6929C10.3407 46.8195 9.55828 46.4218 8.07349 46.9359L9.05983 47.0549L9.11118 47.1475C7.14253 47.2627 0.876579 46.7108 0 46.9083C1.76977 47.1707 9.2436 47.3212 10.0069 47.5024C11.0099 47.7405 13.4422 47.4981 13.6391 47.826L12.7132 47.7979L12.5551 47.8563L12.7247 47.9727C13.2997 47.9884 13.0535 48.0052 13.4513 47.9483C14.0499 47.8623 14.5207 47.7898 15.2236 47.7698C15.2679 47.7438 15.3087 47.7173 15.3565 47.6918C15.5221 47.6031 15.6415 47.5663 15.9264 47.5035C17.0679 47.4846 17.8171 47.5528 18.6911 47.7346C19.8562 47.9765 20.2741 48.194 21.8465 48.3201C21.5917 48.496 20.8108 48.45 20.8607 48.6491C22.6007 48.8342 23.0065 48.7416 24.3816 49.1405C24.444 49.128 24.5059 49.1156 24.5689 49.1031C25.163 48.9879 25.5114 48.9386 26.2551 48.9072C26.9308 48.9722 26.9741 48.9814 27.3829 49.1296C27.4418 49.2839 27.32 49.3553 27.824 49.4592L28.6341 49.4354C28.8984 49.6367 27.982 49.7509 28.3083 49.9067C28.626 49.9035 28.8994 49.9273 29.1063 49.8585C29.419 49.7546 29.5152 49.6199 29.6481 49.4965C30.9255 49.1156 32.7481 49.3071 34.8416 48.6534C36.2172 48.5052 37.2584 48.7828 38.648 48.674C39.2572 48.6264 39.5432 48.523 39.8 48.4234C40.4138 48.4197 41.0275 48.4186 41.6403 48.424C41.606 48.4391 41.5542 48.4608 41.4776 48.4981L42.8653 48.5685L43.1895 48.5003C43.1412 48.4738 43.1125 48.457 43.0908 48.4446C43.3602 48.4489 43.6296 48.4527 43.8989 48.4576L43.8954 48.5333C43.982 48.5365 44.0686 48.5398 44.1547 48.5436C45.0011 48.5793 45.6118 48.6323 46.355 48.7373L47.014 48.6772L47.2366 48.7487C46.9446 48.9635 46.3157 48.8575 46.7744 49.1031C46.9299 49.1865 47.1626 49.2411 47.4259 49.3033L47.8166 49.2979C48.5215 49.0798 49.0799 48.7292 50.1322 48.5977C50.7756 48.6145 51.4206 48.6296 52.0651 48.6453C52.1486 48.6648 52.2362 48.6859 52.339 48.7102C52.5273 48.878 52.7251 49.0447 52.9326 49.2113L53.3555 49.2579L53.7246 49.0312C54.8388 48.9521 56.6655 48.8542 57.7268 48.9825C58.1075 49.0934 58.3496 49.18 58.5672 49.3153C59.0767 49.2698 59.552 49.2173 60.0394 49.1589L60.5791 49.181C60.6325 49.213 60.6823 49.2454 60.7392 49.2774C60.9159 49.3758 60.9054 49.378 61.0443 49.4121L60.7614 49.5815C60.4699 49.523 60.417 49.4484 60.272 49.3629C60.1184 49.4716 59.983 49.5782 59.8672 49.6897L59.4085 49.7308L59.1965 49.6475L59.4024 49.437L59.0807 49.3775L58.8854 49.4429C58.4609 49.5826 58.186 49.7065 57.4811 49.753L57.0652 49.7065L56.6851 49.4321L56.2617 49.3829C56.0396 49.5122 56.0734 49.5436 56.1338 49.6794C55.5472 49.601 55.2557 49.4976 54.8302 49.3721L54.5654 49.4007L54.6027 49.6421C53.9914 49.7482 53.0902 49.7005 52.3636 49.6702C51.7328 49.6437 51.4825 49.6085 51.1386 49.4749C51.1417 49.4657 51.1573 49.4565 51.1482 49.4473C51.122 49.4218 51.0722 49.398 51.0339 49.3731L50.3497 49.3759C50.2006 49.4765 50.1427 49.5409 50.0904 49.6448L49.7047 49.6648C49.6533 49.6334 49.6035 49.602 49.5506 49.5707C49.3422 49.4473 49.4484 49.4938 49.169 49.4002C48.9555 49.4987 48.8724 49.6134 48.4228 49.6453C47.9687 49.6778 47.6172 49.6621 47.159 49.648C47.226 49.5566 47.2044 49.5025 47.16 49.411C45.2876 49.2568 41.3996 49.2 39.5739 49.3775C39.0629 49.3039 38.6173 49.2016 38.0282 49.2157C36.9225 49.2417 35.8652 49.1096 34.7852 49.2043L34.5516 49.325C34.7444 49.4484 34.9373 49.5155 35.2993 49.6102L35.1966 49.7076C34.2304 49.8109 33.4913 49.6654 32.5009 49.7844L32.4254 49.8775C33.161 50.0804 34.5843 50.141 35.5505 50.2639C34.2621 50.2725 34.8094 50.1448 33.4711 50.3456L33.3669 50.3921C34.1831 50.4657 34.9776 50.5058 35.7761 50.4213C35.8315 50.3326 35.8904 50.2444 35.9558 50.1562C37.2871 50.2936 37.3198 50.6015 38.9476 50.4581C39.0483 50.4679 39.147 50.4798 39.2497 50.4884C39.6545 50.5231 39.802 50.5166 40.1988 50.49L40.2315 50.6177C39.7099 50.7514 39.0035 50.7081 38.284 50.7097C38.7397 50.8786 40.4817 51.0604 40.5532 51.2363C39.6318 51.3596 38.3525 51.3294 37.3344 51.3055C37.0373 51.2985 36.8027 51.3039 36.5122 51.3207L36.407 51.3851L36.7614 51.5193C36.3853 51.6427 36.3088 51.6297 35.7247 51.6551C35.3522 51.6708 35.4539 51.6632 34.9932 51.6389C35.1744 51.5166 35.4186 51.4928 35.8098 51.4127C35.5193 51.3045 35.0239 51.2173 34.5149 51.1876C33.7203 51.1416 33.2048 51.1924 32.5744 51.3131C32.5074 51.3256 32.445 51.3402 32.3806 51.3532C31.0151 51.4084 29.7307 51.3321 28.4025 51.252C27.7912 51.2152 27.465 51.2412 26.8512 51.2677C26.5295 51.2812 26.1368 51.2769 25.814 51.279L25.8659 51.3667L25.4238 51.3223C25.45 51.3607 25.4792 51.3992 25.5034 51.4376C25.5879 51.5723 25.5084 51.6605 25.3397 51.7904L24.8977 51.8402L24.4183 51.7536C24.7708 51.6746 24.8815 51.6616 25.3075 51.6264C25.1947 51.5474 25.0578 51.5393 24.7985 51.4911C24.2517 51.489 23.8378 51.4884 23.3016 51.4587C23.2079 51.4825 23.1153 51.5063 23.0201 51.5296C22.6163 51.6281 22.1959 51.6719 21.6879 51.7276L21.5248 51.8218L22.862 51.8283C22.8203 51.9592 22.3314 52.0561 21.9346 52.1378C21.3561 52.2563 20.8108 52.2682 20.1049 52.2639C19.6684 52.2076 19.2349 52.1519 18.7853 52.1021C18.8704 52.2996 19.2812 52.4468 19.8874 52.5658C19.9866 52.5853 20.0938 52.6016 20.1971 52.6194C20.6512 52.5794 20.62 52.5713 20.9085 52.4836C21.6139 52.6838 21.5932 52.7282 22.6637 52.7785C21.8173 52.9538 20.3023 53.061 19.9886 53.3456C20.9498 53.541 23.0695 53.68 24.2935 53.6584C24.5986 53.653 24.6484 53.6384 24.9027 53.6064C25.0165 53.5924 25.1318 53.5788 25.2446 53.5642C25.3342 53.5529 25.4218 53.5404 25.5104 53.5285L25.8145 53.5935C25.4686 53.7547 24.8242 53.8294 24.2285 53.9219L24.3101 53.949C25.7979 53.9068 27.2696 53.8797 28.7171 53.778L29.0671 53.8278L29.0167 53.943C28.0188 54.074 26.4937 54.0047 25.384 53.9906L25.3866 53.988L25.0986 54.0778C25.7098 54.0994 26.2541 54.1124 26.8693 54.1124C28.1235 54.1124 29.8148 54.1995 30.9214 54.3532C28.2872 54.679 24.2975 53.8824 22.0887 54.2856L22.6531 54.4852C24.0986 54.4658 25.9223 54.3716 27.2817 54.4944L27.476 54.561L27.2661 54.5967C26.9489 54.6519 27.0697 54.6297 26.7485 54.6968C26.8814 54.7201 27.0169 54.7423 27.1468 54.7661C27.258 54.7867 27.3638 54.8094 27.4725 54.831C26.968 54.9198 24.9505 54.9068 24.2965 54.8727C24.2013 54.8678 23.8625 54.8327 23.7603 54.8218C24.1575 54.7239 24.3942 54.7461 24.9284 54.7309L24.8549 54.6519C24.1585 54.6276 23.3298 54.7282 22.7558 54.8262C22.8343 54.8386 22.9124 54.8516 22.9919 54.864C24.9067 55.1595 26.7918 55.0415 28.7519 55.2169C29.414 55.2758 29.9411 55.423 30.564 55.4842C30.8268 55.5096 31.4133 55.4858 31.6978 55.4804L31.9773 55.5664C31.8443 55.7239 31.8408 55.7483 31.3997 55.8603L31.1596 55.824C30.9255 55.7888 30.6848 55.7569 30.4431 55.7255C30.3293 55.7429 30.2186 55.7618 30.1023 55.778C29.6793 55.8375 29.5061 55.8451 29.0419 55.844C28.4921 55.9225 28.3078 55.9831 27.9921 56.1216C27.4247 56.1097 27.032 56.0616 26.5073 56.0161C25.8639 55.9598 25.5487 56.0518 25.0054 56.1141C24.9158 56.1243 24.8161 56.1276 24.7255 56.1373C24.7174 56.1384 24.7104 56.1395 24.7028 56.1406C26.0627 56.3765 27.9478 56.1877 29.3566 56.409C28.0686 56.7256 25.1509 56.481 24.6721 57.0064C26.4162 57.3928 36.0163 56.6942 37.3777 57.527C37.3153 57.5459 37.2584 57.5665 37.1904 57.5843C37.1466 57.5957 37.1068 57.6033 37.0655 57.6119C35.8944 57.6033 34.7243 57.5984 33.5607 57.6022C30.4497 57.6125 27.2213 57.6963 24.1213 57.633C21.768 57.5849 19.1654 56.9756 16.9621 57.0989C17.4938 57.37 19.8804 57.6298 20.9835 57.7337C21.4875 57.8722 21.6783 57.9328 21.8183 58.1238C21.3093 58.1579 20.914 58.0919 20.4282 58.0481C20.4569 58.1915 21.4165 58.3928 21.851 58.4869C22.1285 58.547 22.4165 58.6044 22.7034 58.6612C22.4608 58.8793 22.0635 59.1109 22.1944 59.336C22.9064 59.4572 23.7809 59.5752 24.2456 59.7575L24.1887 59.8923C21.3974 60.4459 13.0379 60.0319 11.3215 60.4588C14.3596 60.8338 19.1141 60.2808 22.489 61.0817C24.9888 61.0795 29.1436 61.0178 31.2814 61.3858C31.4038 61.4616 31.5221 61.5379 31.6364 61.6147C32.1711 61.605 32.7053 61.5941 33.2395 61.5828L33.1615 61.6937C32.4727 61.7343 32.0442 61.7494 31.3408 61.7283C29.8183 61.6829 28.8768 61.8966 27.4851 61.9518C26.1277 62.0054 25.381 61.7327 23.7683 61.8523C25.1293 62.0666 27.3698 62.0324 28.3526 62.2873L28.3083 62.3382L27.4856 62.3956C27.405 62.6353 28.8048 62.8501 28.8909 63.132C27.6971 63.3544 26.1529 63.1115 24.9586 63.2738L24.9314 63.3647C24.874 63.5401 24.95 63.6716 24.304 63.7782C23.9365 63.8388 22.9688 63.8886 22.5559 63.8631C21.1421 63.7765 20.3703 63.5557 18.7495 63.5287C16.3333 63.4881 13.6919 63.3896 11.3361 63.5617L10.8623 63.6705C10.8513 63.769 11.0844 63.8063 11.317 63.8831L11.2329 63.8929C11.8597 63.9643 13.0268 64.0125 13.198 64.1846C13.2232 64.2094 13.2036 64.2365 13.2182 64.2619C13.3622 64.5163 14.3626 64.6732 15.1294 64.815L15.2145 64.9324C14.853 64.9757 14.0268 65.0406 13.8616 65.125L14.1733 65.1332C14.5997 65.1451 15.0171 65.1635 15.4396 65.1819C15.1143 65.329 15.136 65.3253 15.281 65.4903C15.1898 65.4963 15.0982 65.5017 15.0076 65.5082C14.7155 65.5277 14.4437 65.5509 14.1617 65.578C14.3722 65.6251 14.5776 65.6591 14.8001 65.7008C15.7145 65.8729 15.6888 66.2603 17.1721 66.2133C17.3609 66.2073 17.7103 66.1835 17.9037 66.171C18.4937 66.2143 18.9836 66.2349 19.3693 66.3643C18.8905 66.5033 17.9636 66.5255 17.2728 66.5693C17.5653 66.7106 18.0874 66.7506 18.6393 66.8145C19.1518 66.8101 19.101 66.828 19.5153 66.7463C19.8627 66.6776 20.0933 66.6408 20.5485 66.65C21.3299 66.6651 21.7876 66.8042 22.3153 66.9281C22.3968 66.947 22.4804 66.9654 22.5625 66.9849L22.709 67.0196L23.3534 66.8475L23.6968 66.8707C24.4742 66.9216 25.2838 66.9465 26.0768 66.9779L25.9691 67.006L26.5254 67.0039L26.2521 67.0731L24.5437 67.078L24.4178 67.1391L24.8111 67.2084L24.7532 67.2425L25.2667 67.2576C24.3383 67.4909 22.6893 67.4411 21.6466 67.6419C22.5745 67.7923 23.573 67.5737 24.4873 67.7501C24.3886 67.7625 24.2889 67.775 24.1913 67.788C23.788 67.8421 23.9375 67.8161 23.6263 67.8908L24.2305 68.0872L24.0916 68.1889C22.8525 68.3318 21.4296 68.3594 20.0848 68.3237L19.5269 68.2333L19.4323 68.0185L19.0506 67.9817C18.6901 68.1592 19.2198 68.2496 18.7591 68.4206L18.2128 68.4368C18.0698 68.3286 18.0864 68.3854 18.1891 68.2663L17.9454 68.2149L17.6434 68.2707L17.6746 68.4812C15.9562 68.6078 15.1737 68.2101 13.6889 68.7236L14.6753 68.8426L14.7266 68.9352C12.758 69.0504 6.49202 68.4985 5.61544 68.696C7.38522 68.9584 14.859 69.1089 15.6223 69.2902C16.6253 69.5283 19.0577 69.2858 19.2545 69.6138L18.3286 69.5856L18.1705 69.6441L18.3402 69.7604C18.9152 69.7761 18.669 69.7929 19.0667 69.7361C19.6654 69.65 20.1361 69.5775 20.839 69.5575C20.8833 69.5315 20.9241 69.505 20.9719 69.4796C21.1376 69.3908 21.2569 69.354 21.5419 69.2912C22.6833 69.2723 23.4325 69.3405 24.3066 69.5223C25.4716 69.7642 25.8895 69.9817 27.4619 70.1078C27.2072 70.2837 26.4263 70.2377 26.4761 70.4368C28.2162 70.6219 28.622 70.5294 29.997 70.9282C30.0595 70.9157 30.1214 70.9033 30.1843 70.8908C30.7784 70.7756 31.1269 70.7263 31.8705 70.695C32.5462 70.7599 32.5895 70.7691 32.9983 70.9173C33.0572 71.0716 32.9354 71.143 33.4394 71.2469L34.2495 71.2231C34.5138 71.4244 33.5975 71.5386 33.9238 71.6944C34.2415 71.6912 34.5149 71.7155 34.7218 71.6463C35.0345 71.5424 35.1306 71.4076 35.2635 71.2842C36.5409 70.9033 38.3635 71.0949 40.4571 70.4412C41.8326 70.2929 42.8738 70.5705 44.2635 70.4617C45.5388 70.3622 45.4003 70.0191 46.5352 69.9731L47.1872 70.0678C47.3443 70.2193 47.3771 70.1468 47.0931 70.2853L48.4807 70.3556L48.805 70.2875C48.593 70.1717 48.744 70.2285 48.311 70.1241L48.5658 70.0499C49.1126 70.0434 49.0617 70.0196 49.5204 70.1111L49.5108 70.3205C49.5975 70.3237 49.684 70.327 49.7701 70.3308C50.6165 70.3665 51.2273 70.4195 51.9704 70.5245L52.6295 70.4644L52.852 70.5359C52.56 70.7507 51.9311 70.6446 52.3898 70.8903C52.5454 70.9736 52.778 71.0283 53.0413 71.0905L53.432 71.0851C54.3061 70.8145 54.9415 70.334 56.592 70.3302C57.3034 70.3286 57.4826 70.3849 57.9544 70.4974C58.1427 70.6652 58.3406 70.8324 58.548 70.9985L58.971 71.0451L59.34 70.8183C60.4542 70.7393 62.2809 70.6414 63.3423 70.7702C63.7229 70.8811 63.9651 70.9677 64.1826 71.103C64.6921 71.0575 65.1674 71.005 65.6548 70.9466L66.1945 70.9688C66.2479 71.0007 66.2978 71.0332 66.3547 71.0651C66.6009 71.2025 66.4785 71.1522 66.913 71.2615C67.5253 71.2339 67.6099 71.1906 68.069 71.0932C68.4794 71.1636 68.422 71.1852 68.571 71.2978L68.9557 71.1484L69.5644 71.2069L69.8645 71.3935C70.9868 71.3578 75.636 71.294 76.2191 71.136C76.4864 71.0635 76.7593 70.9974 77.0513 70.9309C78.0588 71.196 78.1565 71.9861 78.4123 72.3487C78.4953 72.3297 78.5799 72.3108 78.662 72.2913C79.5572 72.0797 79.9776 71.9093 80.4323 71.6279C80.4695 71.6046 80.5108 71.5819 80.5476 71.5586C80.8094 71.393 80.7434 71.2442 80.6674 71.0727L80.8572 71.0126C81.6764 71.1252 80.8663 71.0056 81.5737 71.1327C82.0858 71.2247 82.4694 71.2253 83.0801 71.2442C83.0207 71.3475 82.9538 71.4011 82.7911 71.4947C83.2977 71.5765 83.3354 71.5694 83.9462 71.5581L84.1571 71.4904C84.4637 71.3936 84.3369 71.4309 84.6823 71.3394C85.1072 71.3936 85.5186 71.4493 85.9269 71.5104L86.3156 71.4736C86.3262 71.3438 86.3282 71.2469 86.4505 71.1203L86.7325 71.1371C86.8312 71.2648 86.9278 71.3881 86.9671 71.5175L87.2148 71.5521C87.6821 71.4401 88.0818 71.3324 88.4781 71.2036L88.4685 71.1998C89.1759 71.2328 89.6296 71.4022 90.0953 71.5278C90.1522 71.4412 90.1965 71.3578 90.2307 71.2702C91.0388 71.2464 91.6757 71.3741 92.3242 71.4893L92.2794 71.4379L92.5992 71.5332C93.1434 71.4796 93.3091 71.4098 93.6338 71.2924L94.09 71.3459C94.529 71.3968 94.9162 71.4255 95.3971 71.446C95.9428 71.3681 95.7042 71.4157 96.1201 71.3059L96.7238 71.3843C97.0978 71.261 97.3853 71.1419 97.6779 71.0066C98.2634 70.9709 98.6325 71.0277 99.1516 71.084C99.4884 71.1197 99.8248 71.156 100.16 71.1923L100.396 71.1441L100.264 70.8941C100.618 70.9807 100.955 71.0694 101.287 71.1609L101.49 71.1154C102.157 70.9693 102.786 70.8281 103.742 70.8497C104.129 70.8584 104.298 70.906 104.602 70.959C104.341 71.11 103.861 71.3091 103.771 71.4661L104.161 71.5283L104.416 71.4736L104.405 71.2929L104.688 71.2972L104.987 71.4363C105.443 71.393 105.451 71.3562 105.721 71.2599C106.221 71.3243 106.574 71.4011 106.987 71.4953C107.475 71.465 107.425 71.4969 107.621 71.3995C107.987 71.2188 107.708 70.9774 107.567 70.7848C108.008 70.8432 108.251 70.9027 108.605 70.9888L109.212 70.991L109.725 70.7918C109.891 70.9796 109.866 71.0597 110.433 71.196L110.818 71.1722L111.016 70.9704C111.454 71.0186 111.368 70.9823 111.499 71.0716C111.634 71.163 111.689 71.2512 111.749 71.347C112.188 71.4201 112.559 71.4769 113.113 71.4607C113.801 71.4406 114.101 71.3411 114.504 71.2199C115.559 71.2518 117.379 71.3605 118.303 71.2085C118.382 71.1955 118.448 71.1787 118.52 71.1636C118.557 71.0283 118.635 70.9379 118.331 70.8194C118.147 70.893 117.996 70.9606 117.845 71.0391C117.563 70.933 117.538 70.8833 117.554 70.7572C118.059 70.702 119.389 70.748 119.947 70.7923C120.203 70.8124 120.297 70.8378 120.482 70.8768C120.195 70.998 119.781 71.0581 119.33 71.1387C119.737 71.1668 119.788 71.1928 120.183 71.1473C120.969 71.0564 121.275 71.0294 122.152 71.0716L122.821 71.2664L123.297 71.2355C122.794 71.1246 122.368 71.0294 122.01 70.8854C122.368 70.7604 122.455 70.7799 123.021 70.7372L124.542 70.8329L124.67 70.9076L123.662 70.9996C123.662 71.1544 123.727 71.1381 124.087 71.2529C125.003 71.3259 125.176 71.3221 125.779 71.5191C125.794 71.5104 125.799 71.5007 125.823 71.4931C125.928 71.4601 126.051 71.4303 126.161 71.3979C126.319 71.3513 126.465 71.3021 126.616 71.2539C128.077 71.1441 129.65 71.3416 131.143 71.3454C132.083 71.3476 132.755 71.1565 133.684 71.2025C134.117 71.3194 134.555 71.4309 135.014 71.5413C135.389 71.4883 135.396 71.4661 135.613 71.3789L135.963 71.4715C135.834 71.5862 135.659 71.6576 135.4 71.755C134.759 71.9964 134.738 72.1538 134.961 72.4325L135.157 72.4709L135.834 72.3779C136.294 72.5294 136.471 72.662 136.681 72.8395L136.461 72.9315C136.222 73.0321 136.259 72.9904 136.224 73.0516L136.769 73.1614C137.148 73.0581 137.358 72.9899 137.579 72.8622C137.791 72.7394 137.916 72.702 138.325 72.6203C137.969 72.4839 138.04 72.3081 137.809 72.1495C137.342 72.2653 137.637 72.478 137.562 72.6441L137.307 72.6338C136.919 72.4639 136.909 72.2918 137.136 72.1089C137.307 71.9699 137.503 71.8313 137.677 71.6928C137.172 71.597 136.936 71.5083 136.599 71.3779L136.761 71.301C137.119 71.3378 137.472 71.3768 137.822 71.4184C137.884 71.4071 137.946 71.3963 138.01 71.3849C138.58 71.2864 138.973 71.2399 139.651 71.2079C140.024 71.1901 140.365 71.1582 140.719 71.1257L141.124 71.1544C141.642 71.1901 142.148 71.2063 142.681 71.2226C143.34 71.347 143.71 71.4439 143.793 71.6566C143.859 71.8238 143.756 71.9834 143.635 72.1468L144.425 72.268C144.789 72.024 143.782 71.9461 145.034 71.7447C146.445 71.899 147.592 72.2074 149.181 72.0846C150.34 71.8037 150.88 71.4147 152.019 71.1403C152.539 71.2036 152.967 71.274 153.429 71.3595L153.698 71.3313C154.393 71.2594 154.947 71.2085 155.697 71.1923C156.834 71.4385 156.249 72.2415 157.357 72.6392C158.423 72.2496 157.165 71.5375 158.664 71.2112L159.192 71.1879C159.638 71.3151 159.728 71.6333 160.044 71.6803L160.053 71.7231C160.45 71.5391 160.333 71.4082 160.979 71.2588C161.73 71.2426 162.238 71.2626 162.833 71.3865C163.569 71.5397 163.777 71.7599 164.071 71.9763L164.574 72.0597C164.856 71.972 165.002 71.893 165.166 71.7886C166.25 71.7843 167.171 72.0256 168.381 72.0516C168.342 72.0689 168.299 72.0851 168.265 72.103C168.097 72.1912 168.102 72.2637 168.088 72.3589C168.749 72.3919 169.233 72.3643 169.874 72.3292C170.554 72.4082 171.164 72.5088 171.792 72.61C172.317 72.5218 172.21 72.3476 172.79 72.3378L172.982 72.5483C173.405 72.5489 173.311 72.5694 173.599 72.491C174.004 72.3811 174.055 72.287 174.197 72.1468L174.653 72.1333C175.122 72.3178 174.421 72.393 175.003 72.5483C175.468 72.492 175.55 72.478 175.842 72.373L175.38 72.1879L175.758 72.1479C176.201 72.2572 176.579 72.3671 176.965 72.4877C177.285 72.209 176.535 71.8459 177.285 71.6241L178.055 71.6403C178.377 71.715 178.193 71.6847 178.724 71.7328C178.866 71.7458 179.01 71.7577 179.153 71.7696C180.008 71.6744 181.24 71.6257 182.151 71.702C182.962 71.7696 183.307 71.9628 183.551 72.1463C183.708 72.2637 183.821 72.3833 183.933 72.504L184.235 72.5505C184.777 72.2361 185.202 71.8708 186.097 71.6084C186.51 71.5732 186.472 71.5521 186.89 71.6019L186.943 71.682C187.059 71.8476 187.155 72.0846 187.672 72.2107C187.763 72.2329 187.885 72.2453 187.992 72.2626C188.503 72.1257 188.822 71.9704 189.625 71.9585C190.884 71.9401 192.135 72.0321 193.439 72.004L194.118 72.2182C194.184 72.2058 194.249 72.1934 194.315 72.1815C194.627 72.1241 194.507 72.1452 194.892 72.0932C195.24 72.4271 194.818 72.9688 196.065 73.1755L196.287 73.1533L195.944 72.9455L196.177 72.8703C196.76 72.9379 196.721 72.9423 196.977 73.0906C196.757 73.2497 196.666 73.2432 196.07 73.3303L194.865 73.3319L194.971 73.4093C195.559 73.4266 196.094 73.4374 196.688 73.4325C197.011 73.5332 197 73.5473 197.508 73.6003C197.828 73.4937 197.858 73.4006 197.936 73.2718C198.144 73.3438 198.353 73.4141 198.571 73.484C198.911 73.4179 199.083 73.3611 199.355 73.2789C200.354 72.9764 201.988 72.5938 203.695 72.5927C204.624 72.5922 205.129 72.6625 205.74 72.827L206.045 72.5868C206.706 72.7675 207.028 73.0759 206.983 73.3184C206.968 73.4012 206.853 73.4596 206.685 73.5294C206.033 73.5646 205.847 73.5056 205.277 73.4336L205.218 73.5154C205.841 73.6642 206.628 73.7681 207.515 73.7567C207.955 73.7513 208.007 73.7096 208.307 73.6409C208.477 73.4445 208.434 73.2664 208.39 73.0662C208.504 73.0689 208.618 73.0732 208.733 73.0743C208.884 73.0759 209.035 73.0749 209.186 73.0749C209.809 72.8952 210.403 72.6436 211.342 72.5889L211.783 72.6663C211.856 72.8335 211.848 72.9861 211.818 73.1533L212.142 73.274L212.506 73.2561C212.545 73.2383 212.584 73.2204 212.625 73.2031C212.816 73.1236 212.734 73.1528 213.031 73.0835C213.584 73.109 213.979 73.0992 214.379 73.2015C214.909 73.3368 215.311 73.4721 216.086 73.5126C216.687 73.4553 217.061 73.4206 217.363 73.2718C217.515 73.1972 217.607 73.0949 217.699 73.0159L218.02 72.9536L218.457 73.1479C219.347 73.0857 219.068 72.7848 219.964 72.8671L220.917 73.1625L221.186 73.1679C221.121 73.0354 220.94 72.932 220.73 72.8097L220.924 72.8048C221.472 73.0197 222.03 73.2329 222.567 73.4488C223.231 73.4948 224.02 73.5846 224.691 73.5224C224.417 73.4374 224.203 73.3985 223.847 73.3373L224.243 73.2967C224.645 73.3405 225.011 73.4163 225.448 73.3801C225.878 73.3444 226.033 73.2924 226.318 73.2101C226.254 73.0408 225.885 73.0083 225.396 72.8979C225.766 72.7897 225.541 72.8324 226.078 72.7718L226.116 72.5543L226.452 72.5191C226.983 72.689 227.047 72.8898 227.198 73.0954L227.554 73.1966C227.632 73.1793 227.708 73.162 227.787 73.1452C228.133 73.0721 227.987 73.0976 228.413 73.0494C228.657 73.2361 228.419 73.419 228.272 73.6063L228.481 73.6923C229.012 73.6977 229.252 73.7004 229.7 73.6268L229.774 73.4683L229.483 73.4217L228.949 73.4699C229.118 73.3427 229.188 73.2729 229.633 73.1917L230.055 73.3032L231.453 73.4266C232.165 73.2702 232.288 73.0933 232.863 72.926C233.062 72.8681 232.998 72.8871 233.346 72.8811L233.457 73.1512L233.653 73.1539C234.004 73.063 234.26 72.9986 234.696 72.9315C234.565 73.0256 234.526 73.0878 234.547 73.1874C235.029 73.1674 235.186 72.8708 235.934 72.8146C236.142 72.8514 236.314 72.8784 236.487 72.9277C236.936 73.0559 236.915 73.2058 236.916 73.3644C236.916 73.3849 236.914 73.4055 236.913 73.4261L237.196 73.4417L237.593 73.3173L238.191 73.3698L238.338 73.2762C239.013 73.1609 239.626 73.0391 240.435 72.9904C240.198 73.1301 240.02 73.2166 240.019 73.3719C240.622 73.2318 240.906 73.1393 241.048 72.9336C241.071 72.8995 241.085 72.8654 241.103 72.8308L241.383 72.833C241.923 73.0272 241.645 73.2388 241.564 73.4688C241.743 73.4071 241.926 73.346 242.112 73.2854L242.638 73.4499L243.028 73.3941L242.964 73.2594L243.204 73.2091L243.37 73.3649L243.615 73.3682C244.359 73.2556 244.453 73.2404 244.832 73.0478C245.403 72.9731 245.897 73.0013 246.513 73.0175L246.802 73.0256L248.231 72.6804C249.849 72.8465 251.265 73.2053 252.773 73.4374L254.054 73.1506C253.714 73.0835 253.634 73.0602 253.412 72.9612C253.58 72.9531 253.745 72.9412 253.915 72.9374C254.596 72.9222 256.618 72.9861 257.101 73.0911C257.163 73.2096 257.239 73.327 257.239 73.4466C257.239 73.4509 257.237 73.4553 257.237 73.4601L257.805 73.3952C258.169 73.1663 258.153 72.9066 258.22 72.6631L258.531 72.5965C258.948 72.7745 259.396 73.0067 260.008 73.1468C260.362 73.228 260.898 73.3324 261.419 73.3097C262.173 73.2772 262.755 73.11 263.229 72.9737C263.525 72.8887 263.565 72.8622 263.995 72.8194C264.705 72.8714 265.197 72.9277 265.816 73.0305C266.201 73.0943 266.44 73.1365 266.88 73.1766C266.934 73.0056 266.923 72.8644 267.357 72.7215C267.935 72.7031 267.917 72.7053 268.405 72.7848C268.418 72.8968 268.425 73.0088 268.426 73.1209L268.726 73.1073C268.982 72.9769 269.156 72.8503 269.684 72.7745L270.045 72.8757C270.932 72.8876 270.312 72.7042 271.028 72.5965C271.268 72.702 271.257 72.7496 271.727 72.7956L272.362 72.6192L272.852 72.6685L273.15 72.6241C273.3 72.4969 273.468 72.3773 273.671 72.255C274.574 72.2383 275.245 72.4038 275.982 72.5272C276.96 72.3898 276.437 72.5981 277.271 72.5851L277.6 72.4006L277.99 72.3768C278.454 72.5007 278.844 72.597 279.418 72.6917C280.421 72.6393 279.468 72.3205 279.983 72.162C280.763 72.3368 281.514 72.5662 282.546 72.6403L282.641 72.596L282.331 72.4228C282.782 72.3146 282.892 72.3232 283.524 72.3005L284.551 72.5104C286.139 72.5072 286.876 72.5402 288.271 72.3454C289.01 72.3752 289.55 72.3855 290.292 72.3633C290.478 72.2572 290.515 72.228 290.897 72.1549C293.081 72.3335 295.468 72.445 297.713 72.5705L297.881 72.5121L297.058 72.3606L297.316 72.3211C297.931 72.3227 298.407 72.3238 298.986 72.3773C299.337 72.4098 299.582 72.4298 299.964 72.4471C300.082 72.4526 300.2 72.4563 300.319 72.4612L300.737 72.6165L301.87 72.662L302.075 72.6836C304.067 72.8979 305.589 73.3368 307.96 73.1187C308.258 73.0911 308.589 73.0272 308.845 72.9845C308.607 72.8827 308.471 72.8243 308.039 72.7686C307.281 72.6717 306.869 72.6165 306.327 72.4477C306.257 72.426 306.19 72.4033 306.12 72.3811C305.685 72.2453 305.391 72.1641 305.351 71.9812C305.705 71.8367 305.828 71.8221 306.437 71.741C308.861 71.8357 307.895 72.6327 309.789 72.8887C309.922 72.9066 310.058 72.9228 310.193 72.9396L309.948 72.6858C310.447 72.5213 310.531 72.4904 311.293 72.413C312.31 72.4655 312.516 72.5218 313.296 72.6782C313.563 72.6241 313.682 72.5868 313.785 72.504C314.121 72.2334 314.318 72.117 315.343 71.9607L315.475 72.018C315.165 72.1555 314.736 72.2913 314.832 72.4547C315.2 72.4639 315.356 72.4331 315.691 72.3984L316.065 72.4856C316.119 72.6225 316.211 72.6192 315.89 72.7421C315.6 72.6934 315.324 72.649 315.011 72.6095C314.808 72.5841 313.787 72.7935 313.244 72.8389C314.102 72.8654 315.076 72.8773 315.862 72.9715C315.994 72.9872 316.123 73.005 316.254 73.0218L316.437 72.886L316.659 72.9001L316.923 73.1008L317.336 73.0998L317.973 72.8892C318.625 72.9114 319.433 72.8849 320.015 72.8005C320.57 72.7199 320.709 72.6295 320.882 72.4872C321.045 72.3535 321.163 72.2897 321.577 72.1874L321.946 72.1939L322.221 72.3021C322.18 72.4986 322.039 72.6722 321.848 72.8627C324.712 72.9899 327.747 73.0408 330.653 73.0727C331.63 73.0835 332.59 73.1788 333.374 73.3254C334.032 73.4488 333.961 73.4791 334.057 73.6728L334.372 73.7248L335.003 73.6679C335.857 73.458 336.163 73.2215 336.23 72.9288C335.716 72.8925 335.576 73.123 335.021 73.1674C333.907 72.7567 333.714 73.0575 332.264 72.866L332.324 72.7805C332.511 72.7756 332.699 72.7702 332.887 72.7659C334.034 72.741 334.889 72.7426 335.757 72.5278C335.878 72.498 335.994 72.4672 336.111 72.4363C336.688 72.4093 336.987 72.4991 337.468 72.5743L337.476 72.4591L337.609 72.5981L337.91 72.5927C338.06 72.4964 338.107 72.426 338.151 72.3286L338.557 72.3914C338.493 72.498 338.497 72.5451 338.563 72.6474C339.16 72.7388 339.726 72.8064 340.065 72.9655C339.96 73.0997 339.844 73.1625 339.494 73.2691C338.809 73.2989 338.255 73.3297 337.609 73.3979C338.173 73.4255 338.374 73.4071 338.767 73.517C338.488 73.6479 338.356 73.7399 338.284 73.8871L338.664 73.9553C340.643 73.9104 339.821 73.7459 340.962 73.4921C341.001 73.6696 340.988 73.8303 341.333 73.991C342.839 74.0516 343.384 73.7897 344.69 73.6912C344.78 73.6842 344.872 73.6788 344.963 73.6723L344.831 73.5992L343.897 73.5359L343.877 73.4596C343.972 73.4499 344.069 73.4417 344.161 73.4304C344.955 73.3373 345.114 73.1869 345.42 72.9969L345.53 72.9277C346.108 72.8795 346.415 72.8157 346.991 72.8806C347.244 73.1155 347.984 73.3654 348.065 73.5884C348.077 73.6214 348.082 73.6549 348.09 73.6885C348.686 73.7307 349.669 73.6566 350.25 73.6155C350.074 73.4905 349.778 73.4829 349.334 73.4163L349.526 73.3373L350.212 73.406L350.375 73.3108C350.143 73.2264 349.913 73.1522 349.637 73.0759C349.544 73.05 349.448 73.0245 349.353 72.9991L349.757 72.9407L350.377 72.9899L350.807 72.9174L350.772 72.8389L349.421 72.7859L349.492 72.7334C350.075 72.6425 350.432 72.6495 351.09 72.6603C351.447 72.6663 351.501 72.6355 351.788 72.5868L351.963 72.3373L352.102 72.5197L352.495 72.5602L352.889 72.4461L353.207 72.2929L354.326 72.2794L354.437 72.1614C353.959 72.0559 353.617 72.0375 352.966 72.0505C352.529 72.0592 351.749 72.0797 351.494 72.1701C351.277 72.2475 351.152 72.3227 351.012 72.4093L350.637 72.4206L350.093 72.3156C349.554 72.347 349.191 72.4055 348.728 72.4791L348.374 72.4277L348.239 72.2128C347.711 72.34 347.731 72.4266 347.574 72.6014C347.528 72.5781 347.484 72.5543 347.436 72.5316C346.98 72.3151 346.703 72.3221 345.934 72.2031C345.86 72.1917 345.808 72.1739 345.745 72.1587C346.31 71.9542 346.807 71.8789 347.69 71.7664L347.739 71.7123C345.73 71.7626 345.715 72.2669 343.124 72.0678L343.129 72.0007C344.778 71.8351 344.662 72.0505 346.165 71.6517L347.309 71.6003C347.497 71.5315 347.684 71.4628 347.868 71.393C349.139 71.4314 349.421 71.2604 350.745 71.4926L350.714 71.6057L350.247 71.5846L349.741 71.7107L349.874 71.7523L351.378 71.7009L351.508 71.7339L350.444 71.9872C350.821 72.0402 350.944 72.0359 351.354 71.9991C353.21 71.833 352.548 71.5905 355.16 71.6354C356.473 71.6576 357.841 71.6322 358.874 71.8616C359.056 72.0153 359.056 72.0413 358.686 72.1874C358.358 72.3173 357.804 72.4001 357.236 72.4482C356.858 72.3259 356.849 72.268 356.748 72.1198L356.414 72.057C355.854 72.11 355.693 72.1198 355.315 72.2318L355.42 72.6809C355.79 72.6463 356.14 72.6208 356.526 72.5997C356.321 72.7193 356.262 72.7967 356.263 72.9271C356.613 73.0532 356.564 73.0922 357.188 73.1322L358.169 72.9715L358.562 73.0007C358.61 73.1317 358.634 73.1761 358.897 73.2956L359.542 73.2832L359.291 73.0954L359.557 73.0381C359.892 73.0613 360.111 73.0716 360.466 73.0754L360.798 72.972C360.423 72.721 359.29 72.6279 358.754 72.3849C359.088 72.2464 359.124 72.2745 359.712 72.2291C360.325 72.2962 360.93 72.32 361.585 72.3487C361.37 72.1214 361.464 72.0981 361.804 71.8909C362.381 71.8346 362.863 71.8254 363.447 71.8817C363.877 71.9233 364.383 71.9829 364.643 72.0786C364.369 72.1679 364.083 72.2258 364.017 72.3384L364.623 72.6403L364.993 72.6479C365.61 72.412 365.195 72.1841 365.81 71.9796C366.442 71.9774 366.664 72.0072 367.178 72.0959C366.958 72.2134 366.729 72.2437 366.322 72.3211C366.281 72.3947 366.158 72.4553 366.35 72.5202C366.638 72.6176 367.021 72.6403 367.444 72.6879C367.771 72.7247 367.647 72.7053 367.904 72.7745L368.305 72.7182L368.225 72.7009C368.066 72.5873 367.87 72.5045 367.941 72.3844L368.592 72.3633C368.818 72.412 369.065 72.4601 369.274 72.5132C369.472 72.2415 369.714 72.1917 370.55 72.0164C371.716 71.998 372.334 72.3092 373.294 72.2718L372.754 72.1609C373.125 72.005 373.548 71.9742 374.179 71.8876C374.89 71.8974 375.177 71.9801 375.667 72.1062C376.18 72.2383 376.629 72.3855 376.833 72.5629C376.413 72.6593 376.616 72.6236 376.251 72.6782L376.311 72.7518L376.748 72.8194L376.673 72.9158C376.319 72.8995 376.03 72.8817 375.691 72.8546L375.334 72.9125C375.442 73.0381 375.573 73.1366 375.804 73.2518L376.247 73.267L376.869 73.1355C377.601 73.3314 378.315 73.5159 378.85 73.7502C379.033 73.8297 378.835 73.9017 378.741 73.9867L378.75 73.9959L379.125 73.9997C379.389 73.9672 379.575 73.952 379.76 73.8936C379.651 73.8113 379.48 73.7107 379.449 73.6252C379.387 73.4531 379.599 73.405 379.976 73.2697C380.224 73.2827 380.473 73.2967 380.724 73.307C381.376 73.3324 381.406 73.34 381.916 73.2469L381.596 73.1209C382.064 72.9109 383.386 72.728 384.168 72.5835C384.202 72.4612 384.227 72.4342 384.479 72.3211C384.707 72.3974 384.943 72.4661 385.206 72.5353C386.061 72.4001 386.126 72.0391 386.929 71.8443C387.742 71.781 388.319 71.7372 389.173 71.7653C389.533 71.8735 389.439 71.8167 389.527 71.9282C389.055 72.0581 388.659 72.1371 388.501 72.3124L389.566 72.4011C389.402 72.4726 389.311 72.5197 389.224 72.6003L390.278 72.6084C391.751 72.8827 392.382 72.7258 394.033 72.6885L394.558 72.7994C394.989 72.7513 394.956 72.7729 395.19 72.7015C395.79 72.518 396.18 72.2983 397.057 72.1852L397.421 72.2155C397.282 72.4547 396.369 72.5191 396.154 72.7556C397.481 72.537 397.821 72.8243 398.945 72.7112C399.26 72.5467 399.283 72.4753 399.168 72.2956C398.697 72.1522 398.494 72.1749 397.776 72.1495L397.718 72.0743C397.985 72.0083 398.249 71.9379 398.528 71.8746C399.366 71.6841 399.72 71.59 400.074 71.3124C400.105 71.288 400.132 71.2637 400.161 71.2393C400.795 71.2896 400.896 71.3118 401.355 71.4325C401.419 71.6327 401.305 71.6446 400.853 71.8162L401.136 71.8833L401.739 71.867C401.961 71.7994 402.153 71.7334 402.342 71.6598L402.536 71.5829C403.348 71.5153 404.054 71.452 404.916 71.4493L404.853 71.5765C404.307 71.741 403.674 71.7929 402.89 71.8741L402.539 71.9098L402.729 71.9942C402.896 71.9807 403.347 71.9428 403.501 71.9347C405.086 71.8465 404.64 71.5775 405.778 71.3914C406.143 71.4422 406.493 71.4855 406.881 71.524L407.004 71.4439C406.478 71.2815 405.926 71.2588 405.151 71.1836L405.065 71.0743L405.725 70.9888C405.835 70.8703 405.96 70.7528 406.09 70.6354C406.57 70.5434 406.902 70.4996 407.488 70.4601C408.51 70.6506 408.417 71.0494 409.456 71.248C409.929 71.3384 410.189 71.3324 410.728 71.3151C410.897 71.2529 411.073 71.1912 411.24 71.1284C411.882 70.8865 412.265 70.8432 413.386 70.7631C413.102 70.9168 412.855 70.9839 412.965 71.156L413.407 71.2015L413.744 71.0029C414.181 71.0397 413.962 71.1354 414.378 71.2291C414.647 71.07 414.424 70.8892 414.345 70.7188L414.606 70.6435C415.187 70.617 415.56 70.6473 416.107 70.6895C416.478 70.7182 416.985 70.577 417.529 70.5591C417.273 70.649 417.15 70.7144 417.042 70.821L417.347 70.9195C418.685 70.9466 419.185 70.617 420.337 70.4904L419.668 70.7788L419.911 70.821C420.529 70.7372 420.592 70.6489 420.903 70.4958L421.331 70.4612C421.327 70.5797 421.245 70.6333 421.5 70.7366L422.499 70.6408L423.21 70.7382C423.614 70.6592 423.756 70.5429 423.972 70.4293L424.287 70.4276C424.581 70.6213 424.925 70.9157 425.474 71.0732C425.671 71.1295 425.996 71.2177 426.332 71.2182C427.33 71.2193 427.824 71.0375 428.42 70.8714C429.206 70.6522 429.595 70.5883 430.8 70.5748C430.882 70.5737 430.963 70.5737 431.044 70.5732L431.211 70.4947L430.77 70.393L431.015 70.321C431.795 70.3502 431.936 70.3638 432.558 70.4834C434.084 70.4888 435.482 70.3226 436.954 70.2409C437.431 70.2144 437.567 70.216 437.959 70.2972C438.367 70.3816 438.422 70.4844 438.461 70.6057C438.477 70.6576 438.481 70.7101 438.506 70.7615C438.593 70.9428 438.649 70.9812 439.24 71.0916C441.543 71.1814 444.225 70.9125 446.389 70.7312C445.189 70.7117 443.845 70.7242 442.73 70.6067L442.619 70.511L442.958 70.4174C443.684 70.399 444.593 70.387 445.197 70.2723C445.719 70.1728 445.735 70.1132 445.752 69.9666C445.482 69.8811 445.312 69.8432 445.239 69.7333C445.682 69.7085 445.851 69.6884 446.166 69.6067C445.91 69.5412 445.652 69.4779 445.383 69.4157L445.129 69.3578C445.89 69.2571 446.688 69.3232 447.375 69.2068L447.075 69.0824C447.167 68.8697 448.761 68.683 449.402 68.525L448.854 68.4379C448.344 68.4644 448.061 68.4703 447.552 68.4319C445.43 68.2707 442.39 68.1484 440.19 68.1873C440.097 68.189 440.006 68.1911 439.915 68.1933L439.992 68.1402L439.583 68.1835C441.048 67.8556 444.066 67.8935 446.025 67.8459L446.812 68.0142C447.932 68.0044 448.404 67.6402 449.589 67.5948L449.651 67.657C449.462 67.6781 449.14 67.7117 448.978 67.7404C448.461 67.8313 448.457 67.9103 448.327 68.0531C448.921 67.9108 449.265 67.8556 450.069 67.8058L452.024 67.6824L452.345 67.5818C451.863 67.5775 451.526 67.5623 451.074 67.5201C451.364 67.4076 451.594 67.38 452.081 67.3258L452.581 67.446C452.737 67.4341 452.989 67.414 453.133 67.407C453.817 67.3718 454.154 67.3616 454.757 67.2658C455.159 67.2019 455.475 67.1548 455.94 67.1197C456.084 67.2355 455.98 67.1824 456.244 67.2788C456.924 67.1862 456.886 67.176 457.274 66.9979C457.123 66.94 456.452 66.8978 456.173 66.8702C456.545 66.808 456.836 66.749 457.14 66.6673C456.821 66.618 456.504 66.5742 456.174 66.5298C456.639 66.3778 459.74 66.3372 460.685 66.275C462.044 66.1857 465.283 66.0174 465.972 65.7252L465.867 65.6267C463.658 65.638 460.097 65.3242 459.239 65.3491C458.701 65.3648 458.194 65.374 457.653 65.3815L457.389 65.1889L458.278 65.059C457.878 65.0017 457.531 64.9448 457.174 64.8723C456.031 64.6402 454.614 64.7246 453.463 64.4962C454.083 64.4632 454.872 64.4627 455.326 64.355C454.705 64.2901 454.17 64.2349 453.647 64.1261C453.78 64.0233 453.8 63.9578 453.758 63.8507C452.599 63.7013 450.881 63.7359 449.604 63.6477C448.669 63.5833 447.75 63.4556 446.883 63.3485L448.18 62.9432L449.077 62.947L449.333 62.8853C449.035 62.7316 447.82 62.671 447.185 62.5801L447.256 62.4773C449.378 62.0649 451.091 62.4372 453.31 62.2484L453.198 62.0454C453.741 61.9675 453.454 61.9773 454.061 62.0151L454.418 62.2002C454.925 62.1282 454.983 62.0389 455.227 61.9118L455.044 61.8344C454.496 61.8036 454.749 61.809 454.203 61.8122C452.027 61.8241 449.85 61.7906 447.666 61.8101C446.031 61.8247 444.426 61.8891 442.789 61.8831L442.538 61.8057L442.89 61.711C444.675 61.6266 446.539 61.5389 448.358 61.5292C449.588 61.5227 450.882 61.5736 452.096 61.5368C453.403 61.4973 454.472 61.3799 455.836 61.3891L456.855 61.3382L457.093 61.2397C455.389 60.9756 453.542 61.4756 451.748 60.9123C450.963 60.9394 449.997 61 449.229 60.9616C449.882 60.7197 450.765 60.9329 450.602 60.5016C451.057 60.4978 451.298 60.5 451.747 60.5297C451.658 60.6217 451.582 60.6407 451.338 60.7099C451.774 60.7678 451.884 60.7738 452.372 60.7354C452.67 60.7121 453.065 60.6417 453.322 60.6039C453.89 60.6482 454.109 60.7202 454.491 60.8295C455.036 60.8035 454.751 60.8263 455.248 60.7673C456.097 60.6661 457.245 60.6926 457.931 60.5346C457.854 60.3804 457.683 60.342 457.304 60.2148L456.858 60.2007C456.511 60.2711 456.181 60.3409 455.864 60.4193C455.47 60.2997 456.016 60.2451 455.385 60.2083L454.84 60.3376C454.358 60.3252 454.006 60.3025 453.559 60.2613C452.909 60.2018 452.384 60.218 451.707 60.2272C451.273 60.2332 451.456 60.238 451.039 60.2023C451.267 60.0974 451.77 60.0941 451.771 60.0021C455.273 59.8766 459.903 60.1958 462.456 59.7408L462.351 59.6753L460.652 59.7023C460.392 59.6087 460.226 59.5524 459.868 59.4799L459.421 59.6758L459.079 59.6677L458.636 59.4388L458.492 59.4361C458.234 59.553 458.046 59.6363 457.632 59.7207C457.05 59.7142 456.745 59.7164 456.28 59.6217L456.608 59.4139C456 59.3187 455.158 59.369 454.473 59.382L454.259 59.4491L454.52 59.567C454.828 59.5481 455.1 59.527 455.395 59.4962C455.488 59.4864 455.579 59.4761 455.671 59.4659C455.727 59.6001 455.799 59.58 455.489 59.705C455.287 59.7197 455.106 59.7348 454.901 59.7435C454.43 59.7635 453.728 59.7754 453.153 59.7478C453.332 59.7332 453.491 59.7142 453.613 59.6872C453.485 59.6125 453.394 59.5757 453.259 59.5395C453.349 59.5346 453.453 59.5297 453.589 59.5232L453.735 59.3847C453.574 59.2359 453.266 59.1087 452.98 58.9734C454.044 58.9269 455.63 58.9161 456.516 58.757L455.186 58.646C454.796 58.5043 454.364 58.33 453.789 58.2353C453.183 58.1357 452.694 58.1606 452.022 58.1926C451.371 58.2234 450.838 58.2418 450.178 58.2402C449.997 58.2099 449.881 58.1882 449.795 58.1671C450.236 58.1536 450.645 58.113 451.324 58.0443C453.208 57.8538 455.536 58.0297 457.428 57.8089C457.44 57.6861 457.443 57.5627 457.436 57.4398C457.557 57.4198 457.679 57.3998 457.799 57.3792C458.153 57.3176 458.366 57.271 458.633 57.1898L458.364 57.1C458.245 57.1092 458.126 57.119 458.006 57.1276C457.467 57.1671 457.27 57.1769 456.731 57.1347C456.314 57.1022 455.876 57.0924 455.425 57.0973C455.537 57.0768 455.622 57.0448 455.754 56.9804L455.262 56.8208C455.122 56.8305 454.986 56.8457 454.842 56.8505C454.31 56.8684 454.182 56.85 453.827 56.7542C454.433 56.5849 455.838 56.6552 456.738 56.6292C457.336 56.6124 457.924 56.6124 458.321 56.4939C458.143 56.4377 458.135 56.429 457.872 56.3798C456.379 56.1005 453.156 56.2818 451.485 56.3581C450.957 56.3825 450.621 56.3895 450.112 56.3462C449.958 56.3332 449.808 56.3181 449.656 56.304L449.915 56.2245C450.164 56.1947 450.558 56.1574 450.785 56.113C451.378 55.9972 451.253 55.8857 451.304 55.7115C452.214 55.5491 453.586 55.581 454.67 55.5075L454.335 55.3527C454.756 55.2829 455.161 55.2163 455.648 55.1806C457.134 55.0718 457.743 55.3435 459.018 55.4079C460.502 55.4831 462.167 55.0724 463.731 55.2807L463.567 55.4517L463.818 55.4771L464.439 55.2791C464.827 55.3321 465.262 55.3922 465.703 55.4106C466.246 55.4333 466.767 55.4079 467.204 55.3224L466.327 55.2152L466.425 55.1346C466.766 55.1205 467.115 55.1027 467.459 55.0924C468.136 55.0718 468.441 55.0616 468.978 54.955C469.336 54.8841 469.544 54.8402 469.997 54.8115C470.456 54.9111 470.215 54.8738 470.706 54.9295C471.258 54.7748 473.056 54.2661 472.797 54.0486C472.768 54.0242 472.295 53.8413 472.291 53.8272C472.267 53.7482 472.716 53.7001 472.764 53.6216C472.258 53.6265 472.471 53.6416 472.109 53.5962L472.163 53.5063C473.029 53.3943 474.613 53.462 475.605 53.4641L475.236 53.338L475.385 53.2915C477.81 53.5529 476.405 53.7774 476.849 54.0399C477.531 54.0697 477.851 54.074 478.496 54.0074L478.507 53.9052L478.016 53.8094L477.559 53.9024L477.172 53.8543L477.393 53.6633C477.037 53.535 476.74 53.4133 476.458 53.2726L476.734 53.1914C477.757 53.1784 478.401 53.1216 479.299 53.0025L479.306 52.9257C478.06 52.7877 476.678 52.8602 475.366 52.7791L475.213 52.6562C475.104 52.6941 474.931 52.759 474.796 52.7888C474.37 52.883 474.083 52.8667 473.562 52.8624L473.236 52.7412C473.309 52.6622 473.452 52.5453 473.442 52.4614C473.422 52.2812 473.174 52.1854 472.721 52.0561C472.444 52.1589 472.23 52.2217 471.827 52.2926L471.496 52.2363L471.825 51.9857L471.539 51.9538C470.336 51.9695 468.759 52.0133 467.779 52.2049C467.481 52.2634 467.325 52.3001 466.995 52.3451L466.613 52.3965L466.074 52.3759C465.588 52.2823 465.105 52.0512 464.553 51.9939C463.466 51.8808 459.919 52.1216 457.888 51.8142C457.407 51.7412 457.404 51.7152 457.277 51.5853C458.484 51.1638 461.577 51.3667 463.046 51.1329C462.081 50.9711 461.4 50.7904 460.649 50.568L460.768 50.4787C461.321 50.4235 461.567 50.3959 462.176 50.4132C462.634 50.4262 463.018 50.4338 463.479 50.4311C462.963 50.3764 462.481 50.3461 462.117 50.2346C463.325 50.108 465.065 50.2081 466.096 50.0436C465.273 49.9051 463.61 50.0052 462.614 49.9846C461.872 49.9695 461.545 49.9543 461.085 49.8006C461.033 49.7833 460.986 49.7649 460.936 49.7471C460.655 49.8374 460.427 49.8861 460.039 49.9451C459.127 49.8937 458.242 49.8466 457.372 49.7584L457.639 49.6735L459.109 49.7314C459.605 49.66 460.008 49.6421 460.58 49.6378C460.64 49.6372 460.7 49.6399 460.76 49.641L460.81 49.5831C460.38 49.3818 459.775 49.3569 459.256 49.18C459.628 49.0896 459.504 49.0961 459.904 49.0642C460.595 49.0084 461.281 48.963 461.967 48.9013C461.348 48.8077 460.137 48.8342 459.383 48.8396C458.995 48.8423 458.757 48.8553 458.392 48.8152C458.323 48.8077 458.258 48.7974 458.191 48.7882C457.219 48.8363 456.361 48.8564 455.396 48.7947L455.127 48.5939C454.908 48.6486 454.781 48.6843 454.517 48.7308C454.083 48.8077 453.684 48.8336 453.172 48.8104L453.066 48.6973C453.17 48.6718 453.262 48.6426 453.377 48.6204C453.974 48.5052 454.453 48.4197 454.999 48.2795C454.765 48.2146 453.779 48.3098 453.181 48.2416L452.949 47.8206C452.969 47.6837 452.484 47.6534 452.484 47.503C453.025 47.4391 453.405 47.4045 453.777 47.2806C453.636 47.0998 453.585 47.1112 452.994 47.0003L452.533 46.9976C452.265 46.8044 452.074 46.6242 451.495 46.4743L451.274 46.5208C451.497 46.6761 451.672 46.7595 451.494 46.9261L451.107 46.957L450.537 46.8439C450.426 46.7394 450.406 46.6799 450.447 46.569C450.459 46.5349 450.479 46.5013 450.496 46.4673L450.039 46.385L449.983 46.2957C452.532 46.1626 455.148 46.3363 457.723 46.1734C457.808 46.168 457.892 46.1621 457.977 46.1566C458.928 46.1361 459.436 46.1426 460.309 46.2448C460.585 46.1685 460.599 46.1372 461.011 46.1171C461.774 46.0803 462.305 46.049 462.957 45.9407C462.682 45.8211 462.488 45.8265 461.978 45.7973C460.644 45.721 459.102 45.8541 457.669 45.8038L457.534 45.7291C458.041 45.6355 466.47 45.3855 468.214 45.3049C464.578 45.1512 461.034 45.2042 457.384 45.1334C455.325 45.0933 453.219 44.9872 451.151 44.9688C451.278 44.9412 451.401 44.912 451.526 44.8785C451.36 44.853 451.19 44.8303 451.023 44.8071C451.398 44.7632 451.712 44.6831 452.04 44.6058C452.222 44.5971 452.409 44.589 452.601 44.5814C452.161 44.6669 452.146 44.7448 452.022 44.8801C452.616 44.7378 452.96 44.6826 453.764 44.6328L455.719 44.5094L455.977 44.4283C457.22 44.3498 458.916 44.234 459.834 44.0679C459.861 44.0776 459.893 44.0884 459.94 44.1057C460.619 44.0132 460.581 44.0029 460.969 43.8249C460.818 43.767 460.147 43.7248 459.869 43.6972C460.24 43.635 460.531 43.576 460.835 43.4943C460.517 43.445 460.199 43.4006 459.869 43.3568C460.334 43.2047 463.435 43.1642 464.38 43.1019C465.739 43.0127 468.978 42.8444 469.668 42.5516L469.562 42.4531C467.353 42.4645 463.792 42.1506 462.934 42.1755C462.396 42.1912 461.89 42.2009 461.348 42.208L461.085 42.0153L461.973 41.886C461.573 41.8286 461.226 41.7718 460.87 41.6993C459.726 41.4672 458.309 41.5516 457.158 41.3232C457.779 41.2902 458.567 41.2897 459.021 41.182C458.4 41.1171 457.865 41.0619 457.343 40.9531C457.475 40.8503 457.495 40.7848 457.453 40.6776C456.294 40.5283 454.576 40.5629 453.299 40.4747C452.364 40.4103 451.445 40.2826 450.578 40.1755L451.875 39.7702L452.772 39.774L453.028 39.7123C452.804 39.5965 452.056 39.5332 451.43 39.4704L451.478 39.4504C451.285 39.4206 451.09 39.4011 450.893 39.3881L450.951 39.3043C453.073 38.8919 454.786 39.2642 457.005 39.0748L456.893 38.8719C457.436 38.794 457.149 38.8037 457.756 38.8416L458.113 39.0266C458.62 38.9547 458.678 38.8649 458.923 38.7382L458.739 38.6608C458.191 38.63 458.444 38.6354 457.898 38.6386C456.006 38.6489 454.112 38.6268 452.214 38.6333C452.113 38.5613 451.954 38.5142 451.688 38.4255L451.243 38.4114C450.896 38.4817 450.566 38.5515 450.249 38.63C449.854 38.5104 450.401 38.4557 449.77 38.4189L449.224 38.5483C448.751 38.5358 448.403 38.5137 447.968 38.4742C449.32 38.4141 450.699 38.3632 452.052 38.3562C453.282 38.3497 454.576 38.4006 455.79 38.3638C457.097 38.3243 458.167 38.2068 459.531 38.2155L460.55 38.1646L460.788 38.0661C459.471 37.8621 458.068 38.1121 456.671 37.9774C456.727 37.9687 456.786 37.9612 456.84 37.9514L456.735 37.8859L456.084 37.8962C455.87 37.8562 455.655 37.8053 455.442 37.7382C455.177 37.7474 454.889 37.7599 454.596 37.7718C454.498 37.7452 454.392 37.7193 454.252 37.6911L454.026 37.7907C453.777 37.7972 453.536 37.7988 453.301 37.7956L453.157 37.7214C453.766 37.5878 454.44 37.709 454.296 37.3275C454.75 37.3237 454.991 37.3259 455.44 37.3556C455.351 37.4476 455.275 37.4666 455.032 37.5358C455.468 37.5937 455.578 37.5997 456.066 37.5613C456.364 37.538 456.759 37.4676 457.015 37.4298C457.584 37.4747 457.802 37.5461 458.185 37.6554C458.729 37.6294 458.445 37.6522 458.941 37.5932C459.791 37.492 460.939 37.5185 461.624 37.3605C461.547 37.2063 461.377 37.1678 460.997 37.0407L460.552 37.0266C460.205 37.097 459.875 37.1668 459.558 37.2452C459.163 37.1256 459.71 37.071 459.079 37.0342L458.533 37.1635C458.052 37.1511 457.7 37.1283 457.252 37.0872C456.603 37.0277 456.078 37.0439 455.401 37.0531C454.967 37.0596 455.15 37.064 454.733 37.0282C454.961 36.9233 455.464 36.92 455.465 36.828C458.967 36.7025 463.596 37.0218 466.15 36.5667L466.044 36.5012L464.345 36.5282C464.086 36.4346 463.92 36.3783 463.562 36.3058L463.115 36.5017L462.773 36.4936L462.329 36.2647L462.185 36.262C461.928 36.3794 461.74 36.4622 461.325 36.5466C460.744 36.5401 460.439 36.5423 459.974 36.4476L460.302 36.2398C459.693 36.1446 458.852 36.1949 458.167 36.2079L457.952 36.275L458.213 36.3929C458.522 36.374 458.793 36.3529 459.089 36.322C459.181 36.3123 459.272 36.302 459.365 36.2917C459.421 36.4259 459.492 36.4059 459.182 36.5309C458.981 36.5455 458.8 36.5607 458.594 36.5693C458.124 36.5894 457.422 36.6013 456.846 36.5737C457.025 36.5596 457.185 36.5401 457.306 36.5131C457.179 36.4384 457.087 36.4016 456.952 36.3653C457.043 36.3605 457.147 36.3556 457.283 36.3491L457.429 36.2106C457.268 36.0618 456.96 35.9346 456.674 35.7993C457.737 35.7528 459.323 35.742 460.209 35.5829L458.879 35.4725C458.49 35.3307 458.058 35.1565 457.483 35.0618C456.877 34.9622 456.388 34.9871 455.715 35.019C455.065 35.0498 454.532 35.0688 453.871 35.0666C453.691 35.0363 453.574 35.0147 453.489 34.9936C453.93 34.98 454.339 34.9395 455.017 34.8707C456.902 34.6803 459.23 34.8561 461.122 34.6353C461.134 34.5125 461.136 34.3891 461.129 34.2663C461.25 34.2463 461.373 34.2262 461.492 34.2057C461.847 34.144 462.059 34.0975 462.327 34.0163L462.058 33.9265C461.938 33.9357 461.82 33.9454 461.7 33.9541C461.161 33.9936 460.964 34.0033 460.425 33.9611C460.008 33.9286 459.57 33.9189 459.118 33.9238C459.231 33.9032 459.315 33.8713 459.448 33.8069L458.955 33.6472C458.816 33.657 458.68 33.6721 458.536 33.677C458.411 33.6813 458.31 33.6835 458.221 33.6829L458.823 33.4908C459.211 33.5439 459.646 33.6039 460.087 33.6223C460.63 33.6451 461.151 33.6196 461.588 33.5341L460.856 33.4448C461.3 33.4324 461.712 33.4107 462.015 33.3204C461.989 33.3123 461.972 33.3069 461.953 33.3004C462.552 33.2814 462.856 33.2668 463.362 33.1667C463.72 33.0958 463.928 33.052 464.381 33.0233C464.84 33.1229 464.598 33.0855 465.089 33.1413C465.641 32.9865 467.44 32.4778 467.181 32.2598C467.156 32.2392 466.811 32.1039 466.706 32.0552C466.947 32.0622 467.187 32.0763 467.424 32.1077L467.26 32.2787L467.512 32.3041L468.133 32.1061C468.521 32.1591 468.956 32.2192 469.397 32.2376C469.94 32.2603 470.461 32.2343 470.898 32.1494L470.021 32.0422L470.119 31.9616C470.46 31.9475 470.809 31.9297 471.152 31.9194C471.183 31.9183 471.208 31.9178 471.236 31.9167C471.202 32.0249 471.035 32.1342 471.232 32.2506C471.914 32.2803 472.234 32.2847 472.879 32.2181L472.89 32.1158L472.399 32.02L471.942 32.1131L471.555 32.0644L471.75 31.8961C472.07 31.8788 472.322 31.8507 472.672 31.7814C473.03 31.7105 473.238 31.6667 473.691 31.638C474.15 31.7376 473.908 31.7002 474.399 31.756C474.951 31.6012 476.75 31.0925 476.491 30.8745C476.462 30.8501 475.989 30.6672 475.984 30.6531C475.96 30.5741 476.409 30.526 476.458 30.448C475.952 30.4529 476.165 30.4681 475.803 30.4226L475.857 30.3322C476.723 30.2202 478.306 30.2879 479.298 30.29L478.93 30.1639L479.078 30.1174C481.503 30.3788 480.099 30.6033 480.542 30.8658C481.225 30.8956 481.544 30.8999 482.19 30.8333L482.201 30.731L481.71 30.6353L481.253 30.7284L480.866 30.6802L481.087 30.4892C480.731 30.3609 480.433 30.2392 480.151 30.0985L480.427 30.0173C481.451 30.0076 482.095 29.9507 482.993 29.8322ZM421.379 12.6182C421.867 12.7167 422.221 12.7995 422.866 12.8189C423.341 12.833 423.223 12.8233 423.652 12.7475L423.728 12.5051L424.085 12.4288L424.828 12.4585L425.137 12.6831L425.718 12.7199C425.563 12.6463 425.482 12.5624 425.379 12.4834L425.574 12.4174C426.091 12.4217 426.395 12.4504 426.847 12.5089C427.335 12.5727 427.505 12.5954 428.068 12.5614C429.227 12.4916 430.587 12.3914 431.762 12.4753C431.839 12.5641 431.915 12.6241 432.064 12.7091C433.084 12.5668 434.273 12.3525 435.475 12.3985C437.403 12.4721 447.135 12.3741 451.296 12.2562C449.302 12.4299 447.229 12.7383 445.508 12.8146C445.011 12.8368 444.378 12.859 443.701 12.8758L443.294 12.8325C443.254 12.8514 443.209 12.8693 443.168 12.8877C442.823 12.8947 442.473 12.9001 442.128 12.9028C442.083 12.8774 442.042 12.852 441.986 12.8254L441.72 12.852L441.69 12.905C440.917 12.9071 440.193 12.8958 439.642 12.8639C438.919 12.8217 439.211 12.563 438.368 12.6312C438.256 12.6404 437.842 12.7069 437.731 12.7243L437.245 12.7085C436.29 12.6782 435.319 12.616 434.422 12.7248C434.139 12.8384 434.048 12.9402 433.933 13.0695C433.777 13.102 433.646 13.1269 433.518 13.1463C432.902 13.0987 432.341 13.0262 431.651 13.0462L431.398 13.1279L431.458 13.1555C431.016 13.1263 430.562 13.089 430.108 13.0538C429.973 13.0305 429.831 13.0078 429.672 12.9867C429.441 12.9764 429.235 12.978 429.043 12.9862C428.606 12.9661 428.183 12.9586 427.794 12.9807C427.505 13.05 427.237 13.1204 426.974 13.1923C426.65 13.2107 426.328 13.2107 425.988 13.1745L425.678 12.9331L425.377 12.9115C425.323 12.9364 425.245 12.9586 425.215 12.9862C425.186 13.0116 425.179 13.0376 425.172 13.0641C424.872 13.0035 424.599 12.9488 424.302 12.958L423.825 13.0625L423.38 12.9667C423.032 13.043 422.824 13.1263 422.602 13.221L422.402 13.1961L422.345 12.9948C422.107 13.0457 421.868 13.0884 421.615 13.1306C421.552 13.0998 421.478 13.0754 421.323 13.0608C421.376 12.9515 421.413 12.8471 421.397 12.7345L421.379 12.6182ZM29.6839 26.1574L29.349 26.1135C29.4432 26.1038 29.5378 26.0941 29.631 26.0832C29.9396 26.0481 30.1576 26.0124 30.4225 25.9604L30.3676 25.8132L29.9759 25.7721C29.4089 25.85 29.0646 25.8468 28.7005 25.8489C29.0726 25.7878 29.4054 25.7553 29.9497 25.7321C30.4985 25.7851 30.6319 25.8019 30.8812 25.8857C30.9184 25.9426 30.9547 25.9999 30.9899 26.0573C30.5005 26.1698 30.352 26.1487 29.6839 26.1574ZM28.6305 28.6628L28.5918 28.6672L28.548 28.659C28.5757 28.6607 28.6029 28.6617 28.6305 28.6628ZM29.2216 28.3993C29.2166 28.4193 29.2106 28.4404 29.197 28.4599C29.1159 28.455 29.0505 28.4507 28.991 28.4475C28.908 28.3928 28.8108 28.3733 28.6618 28.3473C28.8511 28.3652 29.0384 28.382 29.2216 28.3993ZM62.1122 49.6053C61.7427 49.5663 61.7024 49.5009 61.6203 49.4505C61.9582 49.4224 62.0911 49.3796 62.4526 49.3028C62.7003 49.3455 62.7768 49.3704 62.8322 49.4078L62.5795 49.398C62.149 49.4895 62.2316 49.4787 62.1122 49.6053ZM63.9696 49.6313L63.5386 49.4348L63.1771 49.4213L63.3392 49.3585L63.948 49.417L64.248 49.6037C64.3034 49.602 64.3734 49.5999 64.4449 49.5983C64.4353 49.6129 64.4243 49.6296 64.4077 49.6535L63.9696 49.6313ZM65.9156 49.7384L65.6175 49.6719L65.6684 49.569C65.9418 49.5631 66.2353 49.5561 66.5379 49.549C66.4765 49.6021 66.4332 49.654 66.3919 49.7178L65.9156 49.7384ZM67.3868 49.6156L67.2257 49.5312C67.4331 49.5257 67.6396 49.5198 67.845 49.5133L67.6315 49.6112L67.3868 49.6156ZM69.5372 49.49C69.3248 49.4808 69.2286 49.4733 69.1646 49.4646C69.8751 49.4321 70.4259 49.3932 70.6026 49.345C70.87 49.2725 71.1429 49.2065 71.4349 49.1399C71.7073 49.2113 71.9092 49.3228 72.0693 49.4521C71.1887 49.483 70.2446 49.5209 69.5372 49.49ZM75.5469 49.4738C75.3979 49.4781 75.2569 49.4765 75.1154 49.4749C75.1079 49.4126 75.0802 49.3493 75.0505 49.2822L75.2403 49.2222C76.0595 49.3347 75.2493 49.2157 75.9567 49.3423C76.1581 49.3786 76.3404 49.398 76.5237 49.4132C76.1063 49.443 75.7397 49.4678 75.5469 49.4738ZM453.215 57.2131C451.221 57.3868 449.149 57.6953 447.427 57.7716C446.93 57.7937 446.297 57.8159 445.62 57.8327L445.213 57.7894C445.173 57.8084 445.128 57.8262 445.087 57.8446C444.742 57.8516 444.392 57.8571 444.047 57.8598C444.002 57.8343 443.961 57.8089 443.905 57.7824L443.64 57.8089L443.609 57.8619C442.836 57.8641 442.112 57.8527 441.562 57.8203C440.838 57.7781 441.131 57.5194 440.287 57.5876C440.175 57.5968 439.762 57.6633 439.65 57.6806L439.164 57.665C438.209 57.6347 437.239 57.5724 436.341 57.6812C436.058 57.7948 435.967 57.8966 435.852 58.0259C435.696 58.0584 435.565 58.0832 435.438 58.1027C434.821 58.0551 434.26 57.9826 433.571 58.0026L433.317 58.0843L433.378 58.1119C432.936 58.0827 432.482 58.0454 432.028 58.0102C431.893 57.9864 431.751 57.9637 431.591 57.9426C431.36 57.9323 431.155 57.9339 430.963 57.942C430.526 57.922 430.103 57.9144 429.714 57.9366C429.425 58.0059 429.157 58.0762 428.894 58.1482C428.57 58.166 428.248 58.1666 427.907 58.1303L427.598 57.8895L427.297 57.8679C427.243 57.8928 427.165 57.915 427.135 57.9426C427.106 57.968 427.098 57.994 427.092 58.0205C426.792 57.9599 426.519 57.9052 426.222 57.9144L425.745 58.0189L425.299 57.9231C424.951 57.9994 424.744 58.0827 424.521 58.1774L424.322 58.1525L424.265 57.9512C424.027 58.0021 423.788 58.0454 423.535 58.0865C423.472 58.0557 423.398 58.0313 423.243 58.0167C423.296 57.9074 423.333 57.8029 423.317 57.6904L423.298 57.5746C423.786 57.6731 424.14 57.7559 424.785 57.7754C425.261 57.7894 425.143 57.7797 425.572 57.7039L425.647 57.4615L426.004 57.3852L426.747 57.4149L427.057 57.6395L427.638 57.6763C427.483 57.6027 427.401 57.5189 427.298 57.4398L427.494 57.3738C428.011 57.3782 428.314 57.4068 428.766 57.4653C429.254 57.5286 429.424 57.5519 429.987 57.5178C431.146 57.448 432.506 57.3479 433.681 57.4317C433.759 57.5205 433.834 57.5805 433.983 57.6655C435.004 57.5232 436.192 57.3089 437.394 57.3549C439.323 57.429 449.055 57.3311 453.215 57.2131ZM451.971 34.5471C450.384 34.3345 447.44 34.4984 445.869 34.5704C445.477 34.5883 445.191 34.5964 444.861 34.5823C444.697 34.5255 444.636 34.4514 444.442 34.4205C444.682 34.394 444.98 34.3621 445.168 34.3253C445.372 34.2858 445.487 34.2463 445.557 34.2046C449.281 34.1857 454.241 34.118 456.91 34.0423C455.233 34.1884 453.503 34.4286 451.971 34.5471ZM458.114 33.4941L457.95 33.6651L458.119 33.6819C457.896 33.6748 457.758 33.6456 457.521 33.5817C457.675 33.539 457.88 33.5114 458.114 33.4941Z" fill="#82C6DD"/>
</svg>
