<svg width="203" height="185" viewBox="0 0 203 185" fill="none" xmlns="http://www.w3.org/2000/svg">
<mask id="path-1-inside-1_5_312" fill="white">
<path d="M-97.8566 56.7121C-94.1806 54.7958 -90.6786 57.3501 -87.0043 57.2074C-85.7692 55.6226 -84.6183 56.8054 -83.4289 56.7324C-80.7224 54.0735 -78.1295 58.3778 -75.5539 55.7687C-73.745 55.5585 -71.8211 57.3535 -70.1236 55.4498C-69.2152 55.0888 -68.8031 57.8958 -67.7413 56.4602C-66.5158 55.0409 -65.3582 53.7276 -64.265 56.1258C-64.0687 56.5559 -63.211 56.7847 -62.9163 56.4815C-61.5058 55.0255 -60.2681 56.0824 -58.9563 55.9909C-58.002 55.9238 -57.1482 56.9265 -56.0709 55.7719C-55.241 54.882 -54.2752 56.1856 -53.5836 55.6106C-52.8853 55.0296 -52.1566 55.022 -51.4312 54.3622C-50.2192 48.5831 -50.1817 42.263 -48.1993 36.7845C-47.1512 35.115 -47.3994 32.8294 -46.926 30.8569C-45.9311 30.1499 -45.8069 28.8088 -45.6158 27.5164C-42.8884 24.0499 -44.5349 16.9714 -42.0343 13.299C-41.3787 11.6633 -41.2365 9.21004 -40.7971 7.36389C-39.1925 5.85743 -40.198 3.04248 -38.3182 1.78417C-37.244 2.74602 -35.6182 3.61545 -36.1563 6.12497C-36.7739 8.85969 -36.6552 11.5995 -38.1142 14.0683C-38.9092 15.3466 -38.3 17.734 -39.6261 19.162C-40.3928 21.7677 -40.7237 25.221 -41.1439 28.0341C-41.3046 29.6338 -42.5479 30.2623 -42.5998 31.958C-43.2002 40.0011 -46.7956 47.5002 -46.7969 55.5991C-45.6221 54.0294 -44.2526 55.1771 -42.9549 55.1046C-42.0376 53.7936 -41.0193 54.0719 -40.1445 54.4563C-39.1154 54.9087 -38.285 53.3787 -37.2967 53.6654C-34.0733 54.6631 -30.7259 54.4657 -27.498 53.9308C-26.085 52.5105 -26.5537 54.5554 -25.5059 54.3962C-22.6548 51.8187 -20.0223 56.4202 -17.3878 52.2536C-14.1932 52.2113 -10.7176 54.7384 -7.59939 52.4635C-5.64455 50.8944 -3.73247 52.5372 -1.77089 52.4123C-1.18263 52.4707 -0.706738 51.069 -0.065296 51.5789C1.59539 54.562 4.33147 52.8867 6.58792 51.4798C7.0597 51.349 7.80813 51.9997 7.94967 51.2212C8.17897 49.9614 9.12229 49.5884 9.26704 48.5026C9.43192 47.2688 10.0455 45.9465 9.39392 44.777C9.25664 35.9956 14.1818 27.3555 13.4977 18.7062C13.1552 17.456 13.6365 16.2515 14.4505 15.3741C15.2094 14.5551 16.046 14.4268 16.7249 15.4865C21.3775 18.4374 14.6277 30.8019 16.5106 36.4334C16.0024 38.1413 16.4891 40.2474 15.1053 41.6414C14.2332 44.2533 14.0227 48.0884 13.515 50.4728C13.8471 51.5011 14.0476 52.122 14.2478 52.742C15.2322 51.2613 16.3906 52.1216 17.535 51.9159C18.3315 50.5962 19.1824 51.1909 20.0049 51.3C21.3631 51.4803 22.7875 51.4528 24.044 52.0131C25.3097 52.5775 26.4293 51.0626 27.6356 51.3125C28.5468 51.5011 29.5321 52.2427 30.4611 50.7134C34.3764 51.1778 38.3767 51.9943 42.2404 52.5061C43.4278 50.3522 44.8809 52.8706 46.122 51.1974C47.9029 49.2469 48.2684 54.2385 49.906 51.6346C51.8819 51.8745 54.6193 49.2904 55.978 52.3173C56.0647 52.6132 56.6554 52.5438 57.0238 52.5672C59.7622 50.6606 62.7774 53.6678 65.5424 51.1438C65.5459 48.8868 67.7171 47.4079 67.0599 45.1508C66.1614 43.338 67.4538 41.9073 68.0948 40.3047C68.6036 38.2114 68.3542 35.7814 69.8506 34.1392C70.9395 29.1974 70.7344 24.0827 72.8822 19.4574C73.8254 17.788 72.9764 14.9123 74.6367 13.3147C75.2625 9.57593 75.8893 5.83815 76.4744 2.09284C78.7581 -1.71319 79.9443 2.44194 81.1847 5.50921C80.8125 6.82931 81.2216 9.08399 79.7157 10.5381C79.2416 12.6785 78.9929 15.0414 78.5974 17.2491C76.0536 20.454 77.4269 26.8239 75.0529 30.1637C73.9694 34.0612 74.6003 38.6353 72.3871 41.9556C71.8514 45.3145 71.3158 48.6733 70.7843 52.0062C72.4724 52.7202 72.4712 52.7386 73.9265 52.1607C75.1805 51.5011 76.6277 52.4358 77.9415 52.4004C80.6713 49.6064 83.6223 54.2861 86.5501 51.5113C87.7727 51.6443 88.9958 51.7775 90.2192 51.9098C92.3998 49.3173 99.1977 54.3815 101.449 51.6835C103.119 51.2815 104.858 53.0993 106.526 51.6789C107.235 50.7883 107.965 51.5599 108.676 51.6069C109.43 51.6573 109.936 50.2932 110.782 50.7023C112.866 50.8869 115.242 52.333 117.34 50.9867C119.249 49.9576 121.676 52.7623 123.453 50.6802C124.394 50.5827 125.444 51.2842 126.312 50.3128C126.997 49.559 127.45 49.8055 127.821 50.6808C128.433 52.1233 129.073 50.9434 129.703 50.3125C130.441 50.4294 131.179 50.547 131.919 50.6651C132.674 49.8339 133.43 49.0004 134.19 48.1638C134.563 42.7426 137.044 44.5735 134.732 40.1442C135.222 38.1585 135.052 35.1796 136.389 33.5898C136.711 33.168 136.827 32.1821 136.844 31.4783C136.865 30.6256 136.154 30.1028 136.498 29.0029C136.728 28.2694 136.643 27.6314 136.38 26.9511C136.002 25.9676 136.174 24.7013 136.835 23.965C137.906 22.7748 137.576 21.1941 137.94 19.8224C137.037 18.6367 137.561 16.9906 137.93 15.6744C138.391 14.0255 137.342 13.0915 137.742 11.4813C138.074 10.1416 138.662 8.52955 137.797 7.2978C138.31 4.7099 137.92 1.09918 140.154 0.0715015C140.704 -0.247472 140.97 0.56328 141.21 1.16487C141.899 2.1388 140.916 3.91586 142.311 3.8651C142.459 3.87542 142.674 4.3801 142.643 4.64406C142.455 6.26591 141.891 7.94266 142.658 9.3755C142.163 13.0096 141.218 16.7922 141.66 20.2716C141.511 24.38 139.264 29.2431 140.384 32.8935C140.101 34.7628 139.818 36.6329 139.535 38.5022C140.716 41.5291 138.835 45.4126 138.64 48.8559C139.173 50.1143 140.211 49.4512 140.983 49.7989C143.041 47.7432 145.058 49.9086 147.131 49.5635C149.33 47.8114 151.733 49.613 154.112 49.5829C155.491 47.9158 155.989 46.8845 157.331 48.692C158.527 47.5289 159.938 48.1165 161.241 48.1599C162.067 46.8219 162.902 47.6511 163.724 47.6671C164.566 47.683 165.263 46.2934 166.199 46.8388C166.849 47.2185 167.663 47.0954 168.394 47.2509C169.139 47.4095 169.697 45.7988 170.485 46.4153C171.341 47.085 172.007 44.9876 172.961 45.5987C173.562 45.9837 174.28 45.7003 175.08 45.1947C175.929 44.6589 177.016 45.5034 177.976 45.2206C180.648 43.7084 183.012 45.2924 185.828 45.4037C186.287 44.7721 186.875 43.9621 187.328 43.3368C188.795 43.5706 190.024 43.7666 191.264 43.9643C191.795 43.37 192.333 42.7695 193.075 41.9408C196.375 43.4231 200.024 39.6959 202.478 44.5297C203.745 47.2175 198.733 49.9959 197.353 49.5796C195.763 48.3913 194.316 50.2546 192.683 49.9888C191.976 49.7391 191.213 49.7262 190.475 49.6085C189.267 51.0844 188.099 50.2288 186.909 50.2256C185.899 50.718 184.846 51.2955 183.818 51.9239C181.882 52.4807 179.557 50.2293 177.64 51.5471C176.867 52.5052 176.185 51.5308 175.507 52.0221C174.055 53.7007 172.373 51.9018 170.809 52.312C169.758 52.4185 168.691 53.4483 167.615 52.9C166.878 52.5252 166.347 54.1746 165.516 53.7573C164.845 53.4203 164.054 53.4773 163.316 53.3596C162.069 55.5147 160.422 52.8981 159.101 54.9467C158.908 55.244 157.906 55.0515 157.75 54.6349C156.733 52.0029 155.722 54.4609 154.618 55.437C153.493 55.4116 151.775 54.577 150.723 55.213C149.169 56.4198 147.857 55.2025 146.347 55.3083C145.67 55.8547 145.098 56.8051 144.456 55.669C143.736 54.0245 142.447 57.9033 141.233 54.6183C139.78 55.1701 139.054 58.2359 137.294 57.293C136.508 62.2238 135.846 66.7226 135.052 71.1943C134.709 73.1257 134.973 75.4111 133.455 76.8332C133.146 78.701 132.816 80.5664 132.55 82.4393C133.097 83.7203 133.271 85.5581 132.068 86.7688C131.461 87.6084 131.562 89.4099 132.483 88.1242C136.147 85.5269 139.09 86.3562 142.518 86.9683C143.329 87.0604 144.165 87.7765 145.011 86.462C146.42 86.1182 147.974 86.8629 149.4 86.9321C150.608 85.5074 151.786 86.1798 152.963 86.3551C153.811 86.4815 154.494 85.0209 155.438 85.5269C156.212 85.9412 157.142 85.8579 158.003 85.9953C158.792 84.157 159.895 85.715 160.789 84.8912C161.099 84.6063 161.577 84.197 161.791 84.3435C162.705 84.9677 163.444 83.2789 164.262 83.5491C165.568 83.9794 166.872 83.6974 168.199 83.0035C169.477 83.9192 170.847 81.7766 172.131 82.4758C172.916 81.545 173.738 81.3561 174.588 81.7128C176.229 79.6991 178.211 81.5751 179.987 81.4188C181.573 79.141 183.605 79.5437 186.139 77.8158C186.319 77.7339 186.731 78.0233 186.723 78.1715C186.608 80.4434 187.77 81.597 188.34 83.2531C187.484 84.5298 187.019 86.0482 185.996 86.8895C184.919 86.189 183.881 87.8105 182.812 87.6428C180.839 86.8779 179.057 87.7027 177.126 88.9387C176.569 89.4043 175.652 88.944 174.956 88.6651C174.064 88.308 173.427 90.0749 172.47 89.5208C170.965 88.9183 169.005 89.0487 167.48 88.6606C166.803 89.405 166.262 89.9996 165.645 90.6768C164.124 90.6896 162.58 89.4203 161.02 90.9905C160.523 91.5427 159.688 90.4775 158.916 91.5225C158.216 92.4711 157.226 90.8956 156.467 92.3672C155.604 91.7865 154.892 90.2928 153.753 91.7001C152.86 92.6356 151.765 91.246 150.972 92.8713C149.479 93.0418 148.098 91.6922 146.622 92.9734C145.109 93.9224 143.452 92.5944 141.882 92.6615C140.668 94.4707 139.506 93.0687 138.318 93.2692C136.841 94.4246 134.967 93.8516 133.564 93.6447C132.608 94.6957 131.858 95.5196 131.055 96.4014C130.138 100.117 130.408 104.983 128.607 108.252C128.28 108.631 127.974 109.868 128.125 110.279C128.904 112.401 128.032 114.579 127.814 116.729C125.937 120.148 126.055 124.202 125.272 127.968C125.011 129.226 123.927 129.768 123.937 131.33C123.731 133.421 122.564 138.128 125.269 135.045C126.287 137.841 126.917 138.337 128.854 135.751C130.01 135.595 131.266 136.327 132.415 136.108C133.224 135.929 134.015 134.923 134.873 135.418C136.475 133.186 138.301 136.205 139.792 133.946C140.538 136.039 142.145 135.133 143.341 135.618C143.898 135.006 144.439 134.411 145.178 133.599C147.35 134.656 149.402 131.753 151.724 132.259C152.743 132.495 153.756 133.163 154.967 132.189C156.063 131.308 157.133 132.21 158.225 132.216C159.879 130.031 161.314 132.391 163.362 131.261C163.109 131.539 163.325 131.302 163.584 131.018C165.06 132.815 165.363 131.859 166.825 130.243C167.803 129.835 168.698 131.175 169.705 129.873C170.462 128.895 171.409 130.448 172.151 129.033C174.381 128.981 176.288 126.559 178.502 127.353C179.099 127.336 179.712 125.819 180.177 126.548C180.959 127.547 182.002 127.962 182.409 129.541C181.229 132.102 179.073 132.06 177.675 134.065C177.072 134.368 176.085 133.382 175.578 134.579C174.547 136.736 172.88 134.96 171.804 136.692C169.41 135.749 167.479 137.809 164.976 136.758C164.586 137.348 164.023 138.2 163.596 138.847C162.086 138.606 160.862 138.411 159.637 138.216C157.978 140.381 156.548 138.019 154.995 138.786C153.914 139.703 152.847 139.649 151.776 139.251C150.084 139.466 148.589 141.625 146.85 140.821C146.047 140.398 145.331 142.132 144.383 141.616C142.989 141.393 139.72 139.948 138.618 141.735C137.543 140.854 136.499 142.774 135.431 142.452C132.714 144.685 129.272 141.91 126.41 142.153C125.384 143.214 124.524 144.755 123.262 143.96C120.243 146.155 121.135 152.855 119.867 156.87C119.612 158.258 120.632 158.97 120.119 160.491C118.816 164.901 119.225 169.275 118.738 173.631C119.885 175.53 118.036 178.036 119.277 179.73C118.805 182.692 118.326 185.694 117.846 188.706C118.175 189.43 118.507 190.16 118.967 191.173C118.565 193.001 118.088 196.866 119.485 197.629C119.95 197.607 120.107 198.055 120.028 198.676C119.902 200.102 117.794 201.947 117.558 200.189C117.79 197.822 116.401 196.071 117.053 193.56C115.493 188.965 115.13 183.938 115.691 178.423C114.203 172.849 116.362 170.226 115.657 165.3C115.232 164.069 116.494 162.085 115.579 160.602C116.095 155.93 117.173 150.814 117.875 145.823C117.675 145.285 116.843 143.96 116.426 144.068C114.583 146.329 112.428 143.245 110.704 144.681C109.718 145.903 108.698 144.226 107.87 145.768C105.215 146.845 102.649 143.662 99.9319 146.012C98.2968 145.663 96.4705 146.041 95.3473 143.954C94.3132 145.198 93.3847 146.314 92.6784 147.164C90.7503 147.238 89.6349 145.727 87.9556 147.215C87.3302 148.109 86.5514 146.731 85.8431 147.712C85.5588 148.107 85.3638 148.246 85.0214 147.736C84.0757 146.147 82.6503 146.809 81.3665 147.648C80.1425 147.593 78.9255 147.473 77.706 147.375C76.4287 148.941 75.2771 147.745 74.121 147.595C73.1119 147.464 72.2939 148.924 71.2693 148.422C70.4849 148.038 69.5639 148.111 68.7038 147.98C67.339 149.789 66.0755 148.43 64.7702 148.474C61.5934 149.663 58.6058 147.803 55.309 149.602C55.0034 151.519 54.6822 153.533 54.519 154.557C54.0461 156.05 53.1211 156.021 53.6211 157.062C54.1019 158.062 53.9033 159.457 53.3684 160.082C52.0708 161.597 52.4435 163.585 51.9559 165.298C52.7115 167.141 52.3279 170.855 50.8478 172.246C50.7776 174.038 49.9388 175.725 50.4545 177.681C50.8889 179.326 50.3009 180.829 49.2788 183.281C49.0151 183.913 48.656 184.914 48.7973 185.347C49.5389 187.711 48.0395 200.231 45.9602 193.4C46.084 191.512 47.18 189.085 46.1227 187.636C46.5098 186.554 45.8305 185.982 45.8 185.159C46.2413 182.559 46.1487 179.309 47.7565 177.281C47.6636 172.463 48.6033 167.073 49.4546 161.901C48.2852 158.578 50.2327 158.276 50.5791 154.948C48.6228 151.925 52.8726 149.989 50.9057 148.596C50.1869 148.491 49.4063 147.909 48.9633 149.429C44.6263 148.403 40.6507 149.873 36.3971 148.601C34.4704 149.899 32.719 150.827 30.7462 150.012C29.6879 149.994 28.6587 149.023 27.5175 150.455C25.0774 151.12 22.2346 148.331 19.8961 150.46C19.776 150.632 19.0973 150.372 19.0017 150.048C18.6249 148.773 17.7637 149.209 17.096 148.969C15.0475 151.104 12.4203 148.919 10.2177 148.989C9.2252 148.736 8.43806 150.594 7.35695 149.799C-0.955629 147.799 -3.06352 148.22 -5.01213 161.864C-3.47746 165.986 -7.82504 175.271 -6.32027 179.207C-6.70487 181.135 -6.38029 183.37 -7.89136 184.828C-8.04015 184.972 -8.14733 185.812 -8.07333 185.875C-6.86707 186.91 -8.44943 189.265 -7.47388 190.37C-6.28669 196.874 -5.36488 205.367 -1.68525 209.254C-1.09763 209.825 -0.372347 209.941 -0.744971 211.434C-0.772585 211.546 -0.620336 211.865 -0.560821 211.848C0.697833 211.494 1.15368 213.437 2.23744 213.562C2.71793 213.616 3.28791 213.553 3.21644 214.605C2.49496 217.795 0.229316 216.682 -1.19525 216.478C-1.9805 212.919 -5.80087 213.309 -5.85584 210.201C-5.63016 207.201 -8.23094 207.842 -7.46533 205.72C-8.09164 204.061 -9.06522 202.77 -9.09268 200.641C-9.29612 198.838 -11.1653 197.758 -10.3808 195.419C-10.2405 193.565 -11.9613 192.726 -11.0916 190.496C-11.7298 183.518 -11.3467 175.759 -9.81895 168.476C-9.41323 167.16 -10.2996 166.548 -10.1217 165.432C-9.09614 161.651 -9.67083 156.49 -7.48301 153.631C-6.76326 151.389 -7.84104 150.014 -8.49664 148.244C-9.14905 149.689 -10.2824 148.815 -10.9097 150.027C-12.3439 149.919 -13.8164 150.207 -14.8003 148.73C-15.4702 149.888 -16.2958 149.636 -16.8915 149.254C-17.8478 148.639 -18.457 150.635 -19.3854 150.125C-20.262 149.829 -21.3945 149.298 -22.239 150.378C-24.1793 151.318 -23.3805 147.258 -26.3804 150.114C-29.2219 150.904 -31.8604 150.555 -34.7147 150.183C-35.5386 151.529 -36.3801 150.728 -37.1924 150.656C-37.8693 150.478 -38.5012 148.44 -39.2264 149.65C-40.6435 150.69 -41.9039 151.222 -43.4722 150.861C-44.1886 150.887 -44.8929 150.125 -45.6205 151.046C-47.201 152.208 -49.0232 150.782 -50.5721 150.874C-52.4811 152.428 -52.6882 155.74 -52.2074 158.413C-51.8888 159.498 -52.962 161.234 -52.2055 162.615C-52.0013 162.988 -52.2969 164.027 -52.3994 164.757C-52.687 166.27 -52.113 167.85 -51.8661 169.232C-51.4035 170.267 -52.3878 171.518 -51.846 172.376C-51.3468 173.168 -51.8195 174.168 -51.7047 174.945C-51.7851 176.729 -50.6323 178.66 -51.2281 180.339C-52.5704 181.76 -51.4828 181.529 -50.9825 182.121C-49.3315 183.889 -50.5277 187.676 -49.5051 189.822C-48.9714 191.32 -48.9232 193.126 -48.8082 194.775C-49.0108 203.027 -43.0926 200.725 -44.9026 206.881C-46.4011 207.442 -48.0895 206.46 -49.5955 206.45C-50.0053 202.837 -51.8324 200.389 -53.0032 197.31C-52.8331 196.04 -52.4918 194.737 -53.2248 193.729C-54.1421 190.235 -54.5033 186.218 -55.2209 182.533C-55.448 181.213 -55.8835 179.931 -55.3309 178.378C-55.3255 175.589 -56.2383 172.809 -56.3912 169.926C-57.3191 169.025 -56.1694 167.303 -56.6572 166.396C-57.221 165.349 -56.9014 164.272 -56.6665 163.246C-56.3135 161.709 -57.3121 160.67 -56.815 159.068C-56.4957 158.04 -57.4919 157.351 -57.0886 156.04C-56.7684 154.999 -56.7045 153.827 -56.5418 152.807C-58.2674 148.467 -57.3449 153.053 -62.7249 151.244C-63.996 152.865 -64.1012 152.27 -65.0857 151.095C-66.8092 153.212 -68.6349 149.877 -70.4136 152.264C-73.0814 152.336 -75.8037 150.502 -78.4435 151.791C-80.4485 153.089 -81.3327 150.178 -83.0703 150.384C-84.5627 152.772 -86.229 152.276 -87.9896 151.817C-88.8507 151.616 -89.5077 153.094 -90.4706 152.673C-91.3148 152.304 -92.3548 151.725 -93.2803 153.246C-94.1506 152.852 -95.2778 153.614 -95.9371 152.151C-96.3429 151.25 -97.2334 151.084 -97.8857 151.878C-98.682 152.848 -99.3272 152.035 -100.062 152.36C-101.052 154.324 -100.961 157.106 -101.483 159.379C-100.54 160.98 -101.458 162.884 -101.549 164.659C-101.099 168.236 -100.18 170.799 -100.909 174.805C-100.569 175.296 -100.066 176.024 -99.7893 176.424C-99.8312 178.587 -100.744 180.363 -99.7476 181.708C-100.56 184.403 -99.1137 186.275 -99.3155 188.903C-98.9602 195.583 -98.0996 202.78 -95.977 208.402C-94.3962 212.529 -94.1866 218.266 -91.088 220.967C-90.4152 221.425 -90.355 222.959 -89.353 223.291C-88.3753 223.615 -87.7639 221.677 -86.884 222.364C-85.2114 220.289 -83.1936 222.946 -81.2977 221.234C-81.0572 222.513 -81.5458 223.771 -81.7052 224.996C-82.4789 225.846 -83.2344 226.676 -83.9999 227.518C-85.0502 227.453 -86.116 226.718 -87.18 228.164C-88.6441 227.902 -90.1081 227.64 -91.5722 227.378C-92.1345 225.569 -93.8581 226.102 -94.4935 224.119C-95.9 220.298 -97.7034 216.637 -99.3961 213.12C-100.798 209.633 -100.048 204.708 -101.783 201.495C-101.976 201.267 -102.032 200.391 -101.881 200.028C-101.264 198.547 -102.344 197.821 -102.185 196.409C-102.045 195.164 -103.505 194.455 -103.004 192.607C-102.604 191.129 -103.925 190.053 -103.094 188.454C-103.41 187.531 -103.727 186.609 -104.127 185.444C-103.711 183.934 -103.687 181.988 -104.094 180.492C-104.597 177.991 -103.974 175.393 -104.999 173.011C-105.084 172.542 -105.034 171.909 -104.901 171.411C-104.351 169.358 -105.361 167.647 -104.91 165.635C-105.841 164.735 -104.66 162.993 -105.178 162.111C-105.692 161.237 -105.154 159.929 -105.726 159.135C-105.807 156.965 -105.287 154.563 -106.035 152.485C-106.595 150.407 -107.808 150.852 -108.185 152.906C-112.417 153.142 -116.771 151.562 -121.108 151.17C-126.11 157.489 -126.046 151.177 -127.521 152.858C-128.591 154.063 -129.443 152.996 -130.396 153.128C-131.258 150.755 -133.249 151.949 -134.789 151.298C-134.47 148.382 -136.479 147.87 -133.712 145.696C-131.602 145.732 -129.466 147.166 -127.251 146.061C-126.159 145.182 -125.085 146.081 -123.993 146.092C-123.213 144.255 -122.109 145.793 -121.21 144.952C-119.142 142.652 -117.737 147.365 -115.943 145.617C-113.31 142.968 -110.657 146.336 -108.501 143.968C-107.946 144.199 -107.24 143.766 -106.809 144.583C-106.656 144.873 -106.62 145.824 -106.099 145.013C-105.416 143.595 -106.746 142.578 -106.125 140.932C-105.104 138.403 -106.551 136.9 -105.857 134.536C-106.63 133.554 -106.341 132.174 -106.001 130.951C-105.643 129.66 -106.565 129.119 -106.333 127.903C-106.136 126.867 -105.685 125.752 -106.144 124.684C-106.688 123.263 -105.731 121.342 -105.819 119.83C-105.862 118.824 -106.421 118.001 -106.049 116.783C-105.696 115.626 -106.741 115.051 -106.345 113.742C-105.774 111.203 -105.544 108.472 -105.06 105.876C-106.105 103.371 -106.105 103.371 -105.855 100.973C-107.536 99.5721 -109.962 100.133 -111.927 99.5254C-112.7 100.661 -113.606 100.046 -114.367 100.415C-115.362 100.897 -115.264 97.8004 -116.385 99.6987C-118.254 100.143 -120.018 98.3422 -121.801 100.035C-121.834 100.08 -122.095 99.744 -122.243 99.5728C-124.106 97.118 -126.486 100.003 -128.532 99.1809C-129.599 99.2061 -130.619 98.2769 -131.762 99.7712C-132.018 100.105 -133.018 99.9343 -133.144 99.541C-133.584 98.1648 -134.476 98.2975 -135.268 98.0351C-136.191 95.1678 -139.843 98.5276 -135.251 91.6569C-133.681 89.8645 -133.266 93.498 -132.179 92.0176C-129.496 90.9944 -126.968 94.1176 -124.23 91.8051C-123.056 91.9904 -121.668 91.9111 -120.568 92.4545C-119.498 93.0132 -118.66 91.5579 -117.721 91.6882C-115.16 91.5934 -112.606 93.5836 -110.05 91.9503C-109.526 91.4714 -108.717 91.795 -108.139 92.6919C-106.238 95.2907 -103.991 90.5785 -105.212 87.9919C-105.099 86.5553 -104.447 85.0101 -105.33 83.8373C-104.928 82.4768 -105.128 80.9974 -104.184 79.6783C-103.314 78.4624 -103.471 76.5061 -103.177 74.902C-103.52 74.14 -103.848 73.4075 -104.225 72.5684C-103.826 70.0676 -103.411 67.4651 -102.935 64.4771C-103.439 63.7706 -104.039 62.9312 -104.846 61.8025C-105.078 61.8477 -105.542 62.8799 -106.266 63.486C-109.375 63.404 -112.501 61.5136 -115.699 62.6582C-116.78 63.5318 -117.861 62.5434 -118.959 62.6626C-119.395 62.7099 -119.874 64.0527 -120.281 63.5139C-122.101 61.1059 -124.667 62.1344 -126.833 61.3611C-127.794 59.517 -129.393 59.9385 -130.77 59.5544C-132.97 57.8985 -134.702 55.7183 -135.878 52.4314C-135.702 51.3276 -135.524 50.2066 -135.341 49.064C-132.127 45.1296 -132.653 50.0126 -130.639 50.3674C-130.023 53.2555 -128.166 52.9539 -126.502 53.4756C-126.155 54.2986 -125.558 55.9351 -124.852 55.8584C-123.606 54.4636 -122.454 55.4362 -121.265 55.2588C-119.343 54.0664 -117.435 54.88 -115.503 55.0855C-114.577 58.078 -113.93 55.0826 -112.408 55.5738C-110.585 55.5684 -108.745 56.8698 -106.926 55.914C-105.124 53.9358 -105.036 57.2757 -103.308 56.918C-101.937 49.1137 -102.042 41.8885 -100.449 34.1221C-100.154 30.8611 -98.6946 27.5779 -99.6258 24.338C-99.0327 20.6188 -98.4396 16.8995 -97.8675 13.3121C-97.0365 12.7496 -96.1514 12.8218 -95.9721 13.3368C-95.4991 14.6953 -94.5463 14.3582 -93.8105 14.8434C-93.4466 15.6981 -93.8687 16.6477 -94.0198 17.5185C-94.3092 19.1808 -93.326 20.4306 -93.95 22.272C-95.9357 30.8202 -95.8961 39.3411 -97.302 47.7934C-97.4397 49.0351 -98.0723 50.4065 -97.2676 51.4447C-97.4467 53.0874 -97.6334 54.7351 -97.8566 56.7121ZM105.714 97.1035C103.223 97.5454 101.024 95.4306 98.4117 97.2008C97.2432 97.492 95.5913 96.7926 94.3886 96.5928C93.5586 96.1094 93.0311 97.601 92.2882 97.4622C90.1254 97.4418 87.8522 95.9306 85.7167 96.8661C83.9263 98.1307 82.3185 96.4003 80.6443 96.8964C79.6122 97.0404 78.0862 99.3994 77.6125 97.5651C76.0852 97.4745 74.6623 95.9141 72.9977 97.7638C72.1408 97.6528 71.2849 97.5287 70.4257 97.4359C69.5933 97.3456 68.8988 98.7567 67.954 98.2514C67.1814 97.8373 66.1724 98.161 65.4122 97.7232C64.4471 97.1678 63.8224 99.3478 62.9427 98.5983C60.6772 102.497 60.3783 107.752 59.6818 112.37C59.4133 114.675 58.141 117.12 59.2911 119.329C58.6931 123.079 58.0953 126.828 57.4974 130.577C56.3124 131.051 55.5589 136.415 55.9153 137.79C57.4756 137.608 56.6986 140.02 56.5057 141.571C56.4151 142.252 57.1584 143.102 57.3779 142.659C58.2467 140.904 59.3412 142.508 60.1833 141.541C62.0869 140.196 64.0412 141.806 65.9338 141.744C66.7824 140.264 67.2092 141.713 67.9838 142.05C68.617 142.408 69.541 141.833 69.9201 143.01C70.1644 143.768 70.4331 143.103 70.7353 143C71.7333 142.659 72.5965 141.953 73.4251 140.973C75.4646 139.935 74.4028 144.37 77.4294 140.256C78.2682 140.39 79.0922 140.521 79.8846 140.647C79.941 141.468 79.9869 142.144 80.0387 142.902C80.4345 142.496 80.8704 141.808 81.0451 141.909C84.0605 142.168 87.1567 138.345 90.265 139.876C92.3186 140.65 94.196 137.53 96.2913 138.471C97.8069 139.289 100.105 138.034 101 140.367C101.532 141.479 102.922 138.53 103.217 138.529C106.142 138.721 108.582 140.208 111.163 137.56C112.237 137.335 113.351 137.682 114.433 137.67C116.241 135.54 117.656 138.885 119.466 135.87C119.762 133.313 120.582 130.262 120.727 127.677C120.666 125.875 121.977 125.234 122.159 123.749C122.823 120.515 122.772 116.879 124.399 114.179C123.979 107.911 126.37 101.291 126.453 94.8212C126.027 94.7533 125.402 94.3379 125.101 94.6623C123.973 95.8812 122.951 95.346 121.883 95.257C121.286 95.2069 120.435 94.8723 120.118 95.3257C119.116 96.755 117.803 94.7628 116.976 96.7745C114.76 96.4211 112.557 96.0698 110.338 95.7159C109.847 96.3432 109.458 97.0002 108.947 95.816C108.714 95.2766 107.887 95.371 107.435 95.214C106.743 95.973 106.203 96.5668 105.714 97.1035ZM-6.43146 142.327C-5.81042 138.433 -5.13341 134.187 -4.49546 130.187C-2.3067 127.744 -3.65861 123.566 -1.6202 121.167C-1.30907 120.681 -1.05853 119.386 -1.24422 119.056C-2.28365 115.597 -0.368477 111.356 -0.124752 107.527C-0.30316 107.119 -0.536766 106.733 -0.634605 106.241C0.374873 104.945 0.390695 104.948 0.839321 101.088C0.362366 99.7497 -0.0174239 98.6863 -0.373451 97.6878C-2.36212 99.7308 -4.54906 97.6701 -6.66469 97.8633C-7.54767 97.7667 -7.701 95.9675 -8.7209 96.6095C-9.18852 96.9249 -9.57958 97.5549 -10.0292 97.9793C-10.665 98.5791 -11.5114 98.2213 -12.056 99.2849C-12.3587 97.6176 -14.0432 97.8804 -15.0062 97.6384C-16.3946 97.8326 -16.1653 99.2265 -17.3601 97.3231C-18.5848 97.6362 -19.705 99.1271 -20.583 97.1496C-20.767 96.8276 -21.3961 96.5787 -21.484 96.7265C-22.0851 97.7333 -22.9087 97.3526 -23.5496 97.9843C-25.3604 99.9443 -25.4405 96.6836 -26.6078 97.5992C-27.8158 98.1016 -28.7691 98.2529 -29.3116 97.2972C-30.0454 96.0032 -31.0818 96.4958 -31.9578 96.1156C-33.2341 97.9184 -34.5664 96.6157 -35.88 96.6352C-36.4027 96.4201 -36.8039 96.9406 -37.2747 97.2033C-38.3065 97.7603 -39.488 96.6859 -40.4582 97.9398C-40.7174 98.1585 -41.2792 98.1378 -41.4282 97.8691C-42.5501 95.8474 -44.2836 96.6391 -45.8 96.4398C-47.3124 98.1935 -48.8519 96.4748 -50.5272 96.618C-51.1778 98.8663 -50.8679 101.349 -52.3442 102.963C-52.573 103.213 -52.7267 104.206 -52.6016 104.577C-51.9429 106.535 -52.9455 109.489 -51.3439 110.684C-51.971 114.616 -52.5674 118.356 -53.1642 122.099C-52.7874 122.988 -52.415 123.868 -52.0615 124.704C-52.1511 126.19 -52.9705 127.719 -52.1551 128.999C-52.3019 130.283 -52.4124 131.572 -52.6052 132.85C-52.8254 134.311 -51.8334 135.353 -52.4642 137.023C-53.3521 139.276 -52.9347 141.633 -52.3634 143.663C-50.8712 143.901 -49.3657 143.989 -47.9367 144.423C-47.0153 144.704 -46.4098 142.988 -45.4527 143.546C-44.6955 143.988 -43.7546 143.882 -42.8955 144.019C-40.1632 142.227 -37.5228 143.891 -35.0166 144.346C-34.7044 144.678 -34.6241 145.737 -34.0121 144.761C-33.5342 143.999 -32.8925 144.783 -32.3545 143.779C-31.0753 140.711 -30.5969 143.607 -30.1839 144.892C-29.6983 144.969 -29.5536 145.071 -29.4559 144.996C-27.0603 142.913 -24.5647 143.248 -22.1876 143.858C-21.4582 143.057 -20.9183 142.464 -20.352 141.842C-19.1507 142.279 -17.4266 141.782 -16.4856 142.824C-16.5224 143.858 -16.5592 144.891 -16.6013 146.078C-15.5232 144.639 -14.6238 144.03 -13.4649 143.497C-12.4932 142.478 -11.5562 143.95 -10.6721 142.368C-9.89779 143.924 -8.72365 143.693 -7.72194 143.75C-7.20585 143.178 -6.88191 142.822 -6.43146 142.327ZM8.0193 143.991C8.60685 143.16 9.46159 143.412 10.0005 142.766C10.7947 141.813 11.4913 142.722 12.1336 142.278C12.7224 141.871 13.204 141.268 13.8763 141.504C15.3094 141.415 15.7598 143.558 17.4214 143.007C19.2574 141.227 21.0844 143.797 23.0988 141.88C26.5238 141.821 30.2396 144.172 33.644 142.403C34.6406 142.416 35.671 142.479 36.5811 142.893C37.609 143.36 38.4311 141.817 39.4268 142.094C40.4525 142.379 41.5301 142.847 42.6333 141.537C44.7992 142.406 43.1583 146.367 47.7646 141.172C48.9763 141.28 50.0292 141.669 51.2106 141.531C52.6533 132.484 54.0411 123.69 55.4718 114.904C55.6999 113.502 55.5509 111.799 56.7837 110.938C56.6359 110.498 56.4875 110.058 56.3125 109.538C56.6069 106.184 57.9826 102.151 57.6955 98.9685C54.9626 98.5327 52.1722 98.0877 49.4382 97.6517C47.3634 101.197 45.8609 97.7427 43.8098 100.075C43.6919 100.244 43.1674 100.163 43.1172 99.9801C42.7268 98.121 38.7603 97.6211 37.8052 99.1577C36.6245 99.0782 35.3051 98.5344 34.1466 98.7078C32.0239 100.617 29.7982 98.5467 27.6116 98.6905C25.5825 98.6499 22.5575 102.099 20.9883 99.3454C22.1458 97.9789 21.4863 97.8879 20.8935 96.5165C20.4242 97.0314 19.992 97.5054 19.5698 97.9687C19.7427 98.4004 19.9154 98.8302 20.1532 99.4252C18.3773 100.436 18.4804 96.5508 16.6765 99.2528C15.9008 98.6392 15.3416 100.383 14.5906 100.077C13.8222 99.7632 12.8308 100.284 12.3629 98.839C11.8412 97.2508 10.3273 100.62 9.80864 99.0419C9.41855 97.8062 8.63894 98.0391 8.62891 98.0366C7.21946 99.0242 6.27271 99.6885 5.77882 100.034C5.11801 102.092 5.41011 103.847 4.15975 104.687C3.78678 106.924 3.41396 109.16 3.04156 111.397C4.14333 113.455 2.73899 116.435 2.59882 118.921C1.77079 122.096 2.25804 126.065 0.346717 128.532C0.0662388 128.786 -0.156722 130.289 0.038901 130.633C0.913008 132.086 -0.505819 140.464 -1.61382 141.738C-2.65813 144.692 -0.911617 143.524 0.358023 142.868C1.22297 142.907 2.07045 143.107 3.4513 143.327C3.72594 142.83 4.24593 141.888 4.5727 141.296C5.60819 141.462 6.32647 141.576 6.98044 141.68C7.35752 142.518 7.68613 143.249 8.0193 143.991ZM-59.6007 98.6002C-59.9976 97.7746 -60.3961 96.9471 -60.787 96.1349C-62.3853 95.9552 -62.3852 95.9552 -63.1209 97.8611C-64.2917 98.0608 -65.4146 97.8587 -66.2423 96.6125C-66.9784 98.1063 -68.0548 96.6374 -68.648 97.5005C-69.532 98.7876 -70.3978 97.446 -71.1186 98.2949C-73.7654 99.8527 -76.4545 97.7517 -79.1412 97.8256C-79.7884 98.5041 -80.4351 99.1826 -81.0542 99.8302C-84.4829 99.7707 -87.8457 97.6064 -91.2825 99.3531C-91.6274 99.8445 -93.5967 98.6046 -94.332 98.9083C-96.4166 100.978 -98.0535 98.4528 -100.256 99.5137C-100.563 103.08 -102.041 106.685 -101.266 110.249C-101.037 111.051 -101.662 112.457 -101.712 113.568C-101.758 114.589 -101.478 115.571 -101.485 116.596C-101.494 118.172 -102.474 119.922 -101.51 121.322C-101.702 122.625 -101.906 123.928 -102.084 125.233C-102.256 126.494 -101.311 127.387 -101.885 128.828C-102.079 129.313 -102.261 130.335 -102.142 130.44C-100.943 131.509 -102.465 133.738 -101.583 134.989C-101.066 135.723 -102.099 137.143 -101.527 138.078C-100.875 139.546 -101.853 141.656 -101.937 143.274C-101.016 145.115 -101.015 145.115 -98.912 145.409C-97.5919 143.935 -96.0082 142.293 -95.031 144.739C-94.8702 145.163 -94.1484 145.137 -93.6663 145.134C-92.4655 145.128 -91.3837 146.067 -90.0491 145.106C-88.6668 144.11 -87.4079 145.33 -86.0603 145.17C-84.3621 143.35 -84.2851 144.437 -83.8801 146.659C-83.0799 147.474 -81.967 146.198 -81.0907 146.053C-79.7424 146.056 -78.4102 146.52 -77.0478 146.558C-76.2555 144.941 -75.1938 146.216 -74.2648 145.421C-73.1883 144.501 -72.0761 144.69 -71.318 145.919C-70.9593 146.501 -70.7512 146.184 -70.4917 145.84C-69.9727 145.151 -69.3131 145.78 -68.753 144.939C-68.3308 144.305 -67.8339 143.428 -66.8287 143.667C-67.0039 145.464 -65.2996 144.43 -65.0088 146.034C-63.6547 146.924 -62.5209 143.63 -61.2739 146.761C-61.0282 147.299 -60.2005 146.986 -60.0633 146.231C-59.6339 144.069 -58.4649 145.629 -57.3106 143.421C-56.3648 140.917 -57.4896 139.04 -56.9955 136.636C-56.7061 135.359 -56.5919 134.211 -57.1048 132.986C-57.3895 132.307 -56.6763 130.997 -57.1661 129.881C-57.5275 127.466 -56.3138 124.282 -56.1495 121.627C-57.1753 120.289 -55.8257 118.234 -56.2624 116.997C-56.9218 115.127 -56.1296 113.406 -56.0238 111.63C-56.994 108.315 -55.3532 104.495 -55.0986 101.081C-56.7047 97.9302 -56.6097 94.5391 -59.6007 98.6002ZM63.4534 93.2326C64.9306 91.3035 65.4935 92.4438 66.7532 92.1592C69.2903 90.53 71.5738 92.1781 74.0169 92.2317C78.1926 93.6041 78.5652 89.5234 83.713 91.4691C85.8712 88.8501 88.0046 92.7247 90.1203 90.2236C90.2238 90.0836 90.7178 90.5426 91.002 90.7887C91.1757 90.9393 91.3949 91.4323 91.4231 91.4014C92.9632 89.6707 94.3117 91.1768 95.7433 91.1115C98.4292 91.9872 100.987 90.34 103.7 90.9602C104.67 89.51 105.6 90.5504 106.785 90.4768C107.224 89.8819 107.816 89.0814 108.289 88.4415C109.539 88.7576 110.753 88.4357 111.36 90.0799C111.426 90.2566 111.931 90.2779 112.045 90.1025C113.593 88.2747 115.44 90.0134 117.105 89.8678C118.45 88.4922 119.731 89.2175 121.033 89.3313C121.92 88.6018 122.638 87.8904 123.464 88.6349C124.416 89.2402 125.061 87.2315 125.942 87.8009C126.779 88.342 127.339 87.1943 128.105 86.4455C128.092 82.9868 134.529 54.5626 131.752 56.4886C129.591 59.2081 128.751 54.9074 126.492 55.6985C125.306 57.1762 123.915 58.5629 122.957 56.5753C122.742 56.204 122.713 56.1013 122.416 56.4262C121.163 57.9003 119.849 55.9443 118.56 57.7274C117.896 57.9957 117.295 55.5874 116.528 56.4962C114.922 58.0298 113.115 56.6355 111.464 56.6145C108.337 58.0355 104.417 59.3416 101.734 56.6147C101.551 56.169 101.477 56.12 101.183 56.5622C100.518 57.5624 99.515 57.0478 98.8142 58.2076C97.1379 61.0795 96.9266 55.5651 95.0936 58.6454C87.1492 57.3139 79.0951 59.2977 71.0921 57.1266C70.0454 58.9148 69.0444 60.7289 69.045 63.0475C69.0456 64.4324 67.9839 64.7035 67.8178 65.8398C67.4703 67.1789 67.6302 69.1887 66.8717 70.1288C66.1591 70.6466 66.4324 71.1137 66.6692 71.766C66.9766 73.764 65.1487 73.8828 65.2926 77.7558C66.2311 81.539 63.8448 88.1176 63.4534 93.2326ZM29.0347 93.1405C30.7086 94.2669 32.0484 92.2142 33.648 92.709C36.7622 92.8872 40.0504 94.7354 43.0965 93.0839C44.4487 93.0838 45.7006 94.0076 47.0797 92.9374C48.1778 92.1831 50.0072 93.574 51.0283 93.0011C53.4714 91.2048 55.6383 93.8637 58.1657 91.7748C61.0539 85.6653 61.153 77.5422 62.4793 70.6177C62.5241 68.9155 63.8355 68.3271 63.9326 66.6969C64.021 65.2087 64.3943 63.7039 64.613 62.2019C64.8222 60.7665 63.8565 59.6778 64.4857 58.0291C64.7165 57.4248 63.9976 56.7168 63.5058 57.1725C61.6543 59.3151 59.7758 56.1682 57.8367 58.4641C57.7623 58.5486 57.5842 58.476 57.4768 58.4119C55.6634 55.3833 56.2152 58.4911 53.6641 57.8384C51.8695 59.5622 49.46 58.1593 47.5442 57.9351C46.6977 57.5225 46.1966 58.9829 45.4418 58.8236C44.3497 58.592 43.2403 58.4575 42.1618 58.2856C41.3077 55.6964 40.8753 57.6082 39.4385 57.7973C38.1529 55.6239 36.6636 58.7307 34.9993 58.3327C32.7358 58.199 30.3677 56.777 28.0809 57.8873C24.6592 59.8043 25.8762 53.8925 22.4332 58.6039C20.7348 58.0705 18.9273 58.7293 17.7242 57.2163C17.2713 56.3271 16.7386 56.3349 16.176 57.1445C15.3162 58.3816 14.4158 58.8022 13.3988 58.3172C12.9667 58.7921 12.535 59.2662 12.1471 59.6925C11.7784 61.365 11.4216 62.9804 11.0655 64.5957C9.93542 65.5942 10.2092 67.28 9.85757 68.6599C10.929 70.4534 9.79206 72.535 9.67317 74.4835C7.33989 77.9315 7.48448 86.532 6.25704 91.2377C6.55301 91.8968 6.81559 92.4817 7.08675 93.0855C7.80968 93.2008 8.54347 93.3178 9.41335 93.4566C11.9865 90.0928 11.4127 91.5576 13.1471 93.8822C14.6158 92.4867 16.3359 93.4472 17.7494 93.9424C18.2667 95.5219 19.4524 94.8603 20.341 95.2196C20.985 94.5432 21.6319 93.8638 22.2528 93.2121C23.03 93.336 23.8139 93.2912 24.4918 93.6124C25.4385 93.9349 26.4798 91.587 27.0705 93.3967C27.1656 93.923 26.5915 94.8342 27.3568 94.9854C27.91 94.3768 28.45 93.783 29.0347 93.1405ZM0.452112 92.0461C2.52456 90.837 1.53565 87.8718 3.23699 86.1004C3.52248 85.8586 3.779 84.3308 3.59006 84C2.83174 82.6747 3.25356 81.1918 3.56614 79.7915C4.03347 77.6969 3.69025 75.2122 5.28347 73.6137C5.63917 69.8203 7.09289 65.5485 6.79626 61.9641C5.8977 60.5696 7.25846 59.8917 7.49735 58.8952C5.73646 57.6745 3.36751 58.1544 0.962688 57.4897C0.445472 60.0715 -0.0195211 55.7582 -1.30025 57.7488C-2.97334 60.7422 -4.74429 57.3781 -6.5221 59.7598C-9.73624 59.5506 -7.06801 56.6998 -11.3832 59.5461C-12.988 61.3222 -14.0688 57.1601 -15.5559 58.6746C-16.577 60.0549 -17.8686 58.1263 -18.6971 60.127C-19.544 59.8293 -20.3768 59.8203 -21.1536 60.8902C-22.9016 60.3187 -25.0842 60.9425 -26.5208 59.4948C-26.425 58.632 -25.7111 56.1806 -26.8635 57.0792C-27.8882 62.1454 -30.9777 57.4993 -33.0268 60.1136C-33.2311 59.7193 -33.4354 59.3242 -33.6904 58.8334C-33.9621 59.509 -34.2151 60.1389 -34.4685 60.7688C-35.9019 61.4961 -37.7848 59.972 -39.1931 60.4761C-41.9532 62.6498 -44.5558 59.0452 -47.3538 62.0052C-49.1776 71.1734 -49.0106 79.8747 -50.9111 89.059C-49.6851 92.6634 -48.0469 90.1436 -45.9385 89.4399C-44.6011 92.3237 -41.2453 89.4349 -39.9675 92.7505C-39.1631 91.9078 -38.5151 91.2286 -37.8694 90.5525C-34.9995 90.9217 -32.3481 92.0493 -29.4925 90.6866C-28.1097 91.1928 -26.5424 91.0872 -25.0906 91.3241C-24.5502 90.7302 -24.0097 90.1364 -23.4686 89.5419C-22.4671 90.1561 -22.8523 91.9172 -22.3788 93.0883C-21.4202 91.3364 -20.0493 91.0996 -18.8226 90.3164C-18.4937 91.0488 -18.1641 91.7814 -17.8359 92.5146C-15.9576 90.248 -15.5295 92.9063 -14.0892 93.0918C-13.2892 91.8222 -12.4179 92.6014 -11.6154 92.2536C-10.2821 91.5112 -8.83039 89.7655 -7.56647 91.1078C-6.79137 92.3606 -3.64133 93.2865 -2.49893 91.5746C-1.51612 91.7322 -0.531959 91.8891 0.452112 92.0461ZM-97.6579 92.5638C-96.2988 92.8876 -94.0162 92.9058 -92.5585 93.4327C-91.6268 93.8448 -90.9029 92.6303 -90.096 92.6476C-89.1008 92.6693 -88.1295 92.9285 -87.1472 93.0852C-86.0427 93.2613 -84.912 93.3196 -83.8416 93.6477C-82.8497 93.9517 -82.0115 92.316 -81.0055 92.8806C-79.7233 93.5997 -78.3779 92.7548 -77.161 91.8188C-75.1008 89.7271 -74.7225 94.581 -73.0289 91.9967C-72.0514 92.111 -71.0741 92.2262 -70.0971 92.3405C-68.066 89.9116 -65.7195 93.2349 -63.6583 91.7951C-62.1614 90.4332 -60.9406 92.3734 -59.7145 91.2992C-58.2391 90.0834 -57.1303 90.5378 -56.2139 92.2164C-54.9838 93.0661 -54.3807 89.1724 -55.3369 88.3391C-55.098 86.8412 -54.901 85.3331 -54.6085 83.8481C-54.2828 82.1908 -55.1971 80.975 -54.6863 79.1129C-54.0237 76.35 -53.5622 72.9696 -53.2548 70.2022C-54.7859 68.278 -50.5816 58.6475 -54.6421 62.4771C-55.4741 62.3444 -56.4003 62.424 -57.1744 62.0149C-58.1151 61.5174 -58.813 62.8766 -59.6426 62.8301C-60.8255 62.7644 -61.9931 61.9459 -63.1986 63.4214C-63.7465 63.1863 -64.4737 63.5956 -64.826 62.6498C-65.8282 60.2882 -67.6562 65.1458 -68.8003 61.4095C-69.4288 62.0688 -70.057 62.7264 -70.7042 63.4049C-71.6696 63.251 -72.6485 63.0949 -73.6281 62.9387C-75.7675 65.0584 -77.9402 62.8718 -80.1321 63.0307C-83.2198 65.6155 -86.0796 61.2616 -89.0844 63.9118C-90.4342 63.6966 -91.777 63.425 -93.1399 63.3102C-96.331 66.4781 -95.7897 59.9076 -98.4107 64.331C-98.6901 67.889 -100.311 71.3419 -99.3379 74.7714C-99.5768 76.2693 -99.8926 77.7665 -100.032 79.2652C-100.162 80.6602 -99.38 81.785 -99.9219 83.4308C-100.318 84.6347 -100.385 86.0301 -100.583 87.3417C-100.774 88.6102 -99.9263 89.4511 -100.353 90.9464C-100.664 93.3419 -99.2112 93.9051 -97.6579 92.5638Z"/>
</mask>
<path d="M-97.8566 56.7121C-94.1806 54.7958 -90.6786 57.3501 -87.0043 57.2074C-85.7692 55.6226 -84.6183 56.8054 -83.4289 56.7324C-80.7224 54.0735 -78.1295 58.3778 -75.5539 55.7687C-73.745 55.5585 -71.8211 57.3535 -70.1236 55.4498C-69.2152 55.0888 -68.8031 57.8958 -67.7413 56.4602C-66.5158 55.0409 -65.3582 53.7276 -64.265 56.1258C-64.0687 56.5559 -63.211 56.7847 -62.9163 56.4815C-61.5058 55.0255 -60.2681 56.0824 -58.9563 55.9909C-58.002 55.9238 -57.1482 56.9265 -56.0709 55.7719C-55.241 54.882 -54.2752 56.1856 -53.5836 55.6106C-52.8853 55.0296 -52.1566 55.022 -51.4312 54.3622C-50.2192 48.5831 -50.1817 42.263 -48.1993 36.7845C-47.1512 35.115 -47.3994 32.8294 -46.926 30.8569C-45.9311 30.1499 -45.8069 28.8088 -45.6158 27.5164C-42.8884 24.0499 -44.5349 16.9714 -42.0343 13.299C-41.3787 11.6633 -41.2365 9.21004 -40.7971 7.36389C-39.1925 5.85743 -40.198 3.04248 -38.3182 1.78417C-37.244 2.74602 -35.6182 3.61545 -36.1563 6.12497C-36.7739 8.85969 -36.6552 11.5995 -38.1142 14.0683C-38.9092 15.3466 -38.3 17.734 -39.6261 19.162C-40.3928 21.7677 -40.7237 25.221 -41.1439 28.0341C-41.3046 29.6338 -42.5479 30.2623 -42.5998 31.958C-43.2002 40.0011 -46.7956 47.5002 -46.7969 55.5991C-45.6221 54.0294 -44.2526 55.1771 -42.9549 55.1046C-42.0376 53.7936 -41.0193 54.0719 -40.1445 54.4563C-39.1154 54.9087 -38.285 53.3787 -37.2967 53.6654C-34.0733 54.6631 -30.7259 54.4657 -27.498 53.9308C-26.085 52.5105 -26.5537 54.5554 -25.5059 54.3962C-22.6548 51.8187 -20.0223 56.4202 -17.3878 52.2536C-14.1932 52.2113 -10.7176 54.7384 -7.59939 52.4635C-5.64455 50.8944 -3.73247 52.5372 -1.77089 52.4123C-1.18263 52.4707 -0.706738 51.069 -0.065296 51.5789C1.59539 54.562 4.33147 52.8867 6.58792 51.4798C7.0597 51.349 7.80813 51.9997 7.94967 51.2212C8.17897 49.9614 9.12229 49.5884 9.26704 48.5026C9.43192 47.2688 10.0455 45.9465 9.39392 44.777C9.25664 35.9956 14.1818 27.3555 13.4977 18.7062C13.1552 17.456 13.6365 16.2515 14.4505 15.3741C15.2094 14.5551 16.046 14.4268 16.7249 15.4865C21.3775 18.4374 14.6277 30.8019 16.5106 36.4334C16.0024 38.1413 16.4891 40.2474 15.1053 41.6414C14.2332 44.2533 14.0227 48.0884 13.515 50.4728C13.8471 51.5011 14.0476 52.122 14.2478 52.742C15.2322 51.2613 16.3906 52.1216 17.535 51.9159C18.3315 50.5962 19.1824 51.1909 20.0049 51.3C21.3631 51.4803 22.7875 51.4528 24.044 52.0131C25.3097 52.5775 26.4293 51.0626 27.6356 51.3125C28.5468 51.5011 29.5321 52.2427 30.4611 50.7134C34.3764 51.1778 38.3767 51.9943 42.2404 52.5061C43.4278 50.3522 44.8809 52.8706 46.122 51.1974C47.9029 49.2469 48.2684 54.2385 49.906 51.6346C51.8819 51.8745 54.6193 49.2904 55.978 52.3173C56.0647 52.6132 56.6554 52.5438 57.0238 52.5672C59.7622 50.6606 62.7774 53.6678 65.5424 51.1438C65.5459 48.8868 67.7171 47.4079 67.0599 45.1508C66.1614 43.338 67.4538 41.9073 68.0948 40.3047C68.6036 38.2114 68.3542 35.7814 69.8506 34.1392C70.9395 29.1974 70.7344 24.0827 72.8822 19.4574C73.8254 17.788 72.9764 14.9123 74.6367 13.3147C75.2625 9.57593 75.8893 5.83815 76.4744 2.09284C78.7581 -1.71319 79.9443 2.44194 81.1847 5.50921C80.8125 6.82931 81.2216 9.08399 79.7157 10.5381C79.2416 12.6785 78.9929 15.0414 78.5974 17.2491C76.0536 20.454 77.4269 26.8239 75.0529 30.1637C73.9694 34.0612 74.6003 38.6353 72.3871 41.9556C71.8514 45.3145 71.3158 48.6733 70.7843 52.0062C72.4724 52.7202 72.4712 52.7386 73.9265 52.1607C75.1805 51.5011 76.6277 52.4358 77.9415 52.4004C80.6713 49.6064 83.6223 54.2861 86.5501 51.5113C87.7727 51.6443 88.9958 51.7775 90.2192 51.9098C92.3998 49.3173 99.1977 54.3815 101.449 51.6835C103.119 51.2815 104.858 53.0993 106.526 51.6789C107.235 50.7883 107.965 51.5599 108.676 51.6069C109.43 51.6573 109.936 50.2932 110.782 50.7023C112.866 50.8869 115.242 52.333 117.34 50.9867C119.249 49.9576 121.676 52.7623 123.453 50.6802C124.394 50.5827 125.444 51.2842 126.312 50.3128C126.997 49.559 127.45 49.8055 127.821 50.6808C128.433 52.1233 129.073 50.9434 129.703 50.3125C130.441 50.4294 131.179 50.547 131.919 50.6651C132.674 49.8339 133.43 49.0004 134.19 48.1638C134.563 42.7426 137.044 44.5735 134.732 40.1442C135.222 38.1585 135.052 35.1796 136.389 33.5898C136.711 33.168 136.827 32.1821 136.844 31.4783C136.865 30.6256 136.154 30.1028 136.498 29.0029C136.728 28.2694 136.643 27.6314 136.38 26.9511C136.002 25.9676 136.174 24.7013 136.835 23.965C137.906 22.7748 137.576 21.1941 137.94 19.8224C137.037 18.6367 137.561 16.9906 137.93 15.6744C138.391 14.0255 137.342 13.0915 137.742 11.4813C138.074 10.1416 138.662 8.52955 137.797 7.2978C138.31 4.7099 137.92 1.09918 140.154 0.0715015C140.704 -0.247472 140.97 0.56328 141.21 1.16487C141.899 2.1388 140.916 3.91586 142.311 3.8651C142.459 3.87542 142.674 4.3801 142.643 4.64406C142.455 6.26591 141.891 7.94266 142.658 9.3755C142.163 13.0096 141.218 16.7922 141.66 20.2716C141.511 24.38 139.264 29.2431 140.384 32.8935C140.101 34.7628 139.818 36.6329 139.535 38.5022C140.716 41.5291 138.835 45.4126 138.64 48.8559C139.173 50.1143 140.211 49.4512 140.983 49.7989C143.041 47.7432 145.058 49.9086 147.131 49.5635C149.33 47.8114 151.733 49.613 154.112 49.5829C155.491 47.9158 155.989 46.8845 157.331 48.692C158.527 47.5289 159.938 48.1165 161.241 48.1599C162.067 46.8219 162.902 47.6511 163.724 47.6671C164.566 47.683 165.263 46.2934 166.199 46.8388C166.849 47.2185 167.663 47.0954 168.394 47.2509C169.139 47.4095 169.697 45.7988 170.485 46.4153C171.341 47.085 172.007 44.9876 172.961 45.5987C173.562 45.9837 174.28 45.7003 175.08 45.1947C175.929 44.6589 177.016 45.5034 177.976 45.2206C180.648 43.7084 183.012 45.2924 185.828 45.4037C186.287 44.7721 186.875 43.9621 187.328 43.3368C188.795 43.5706 190.024 43.7666 191.264 43.9643C191.795 43.37 192.333 42.7695 193.075 41.9408C196.375 43.4231 200.024 39.6959 202.478 44.5297C203.745 47.2175 198.733 49.9959 197.353 49.5796C195.763 48.3913 194.316 50.2546 192.683 49.9888C191.976 49.7391 191.213 49.7262 190.475 49.6085C189.267 51.0844 188.099 50.2288 186.909 50.2256C185.899 50.718 184.846 51.2955 183.818 51.9239C181.882 52.4807 179.557 50.2293 177.64 51.5471C176.867 52.5052 176.185 51.5308 175.507 52.0221C174.055 53.7007 172.373 51.9018 170.809 52.312C169.758 52.4185 168.691 53.4483 167.615 52.9C166.878 52.5252 166.347 54.1746 165.516 53.7573C164.845 53.4203 164.054 53.4773 163.316 53.3596C162.069 55.5147 160.422 52.8981 159.101 54.9467C158.908 55.244 157.906 55.0515 157.75 54.6349C156.733 52.0029 155.722 54.4609 154.618 55.437C153.493 55.4116 151.775 54.577 150.723 55.213C149.169 56.4198 147.857 55.2025 146.347 55.3083C145.67 55.8547 145.098 56.8051 144.456 55.669C143.736 54.0245 142.447 57.9033 141.233 54.6183C139.78 55.1701 139.054 58.2359 137.294 57.293C136.508 62.2238 135.846 66.7226 135.052 71.1943C134.709 73.1257 134.973 75.4111 133.455 76.8332C133.146 78.701 132.816 80.5664 132.55 82.4393C133.097 83.7203 133.271 85.5581 132.068 86.7688C131.461 87.6084 131.562 89.4099 132.483 88.1242C136.147 85.5269 139.09 86.3562 142.518 86.9683C143.329 87.0604 144.165 87.7765 145.011 86.462C146.42 86.1182 147.974 86.8629 149.4 86.9321C150.608 85.5074 151.786 86.1798 152.963 86.3551C153.811 86.4815 154.494 85.0209 155.438 85.5269C156.212 85.9412 157.142 85.8579 158.003 85.9953C158.792 84.157 159.895 85.715 160.789 84.8912C161.099 84.6063 161.577 84.197 161.791 84.3435C162.705 84.9677 163.444 83.2789 164.262 83.5491C165.568 83.9794 166.872 83.6974 168.199 83.0035C169.477 83.9192 170.847 81.7766 172.131 82.4758C172.916 81.545 173.738 81.3561 174.588 81.7128C176.229 79.6991 178.211 81.5751 179.987 81.4188C181.573 79.141 183.605 79.5437 186.139 77.8158C186.319 77.7339 186.731 78.0233 186.723 78.1715C186.608 80.4434 187.77 81.597 188.34 83.2531C187.484 84.5298 187.019 86.0482 185.996 86.8895C184.919 86.189 183.881 87.8105 182.812 87.6428C180.839 86.8779 179.057 87.7027 177.126 88.9387C176.569 89.4043 175.652 88.944 174.956 88.6651C174.064 88.308 173.427 90.0749 172.47 89.5208C170.965 88.9183 169.005 89.0487 167.48 88.6606C166.803 89.405 166.262 89.9996 165.645 90.6768C164.124 90.6896 162.58 89.4203 161.02 90.9905C160.523 91.5427 159.688 90.4775 158.916 91.5225C158.216 92.4711 157.226 90.8956 156.467 92.3672C155.604 91.7865 154.892 90.2928 153.753 91.7001C152.86 92.6356 151.765 91.246 150.972 92.8713C149.479 93.0418 148.098 91.6922 146.622 92.9734C145.109 93.9224 143.452 92.5944 141.882 92.6615C140.668 94.4707 139.506 93.0687 138.318 93.2692C136.841 94.4246 134.967 93.8516 133.564 93.6447C132.608 94.6957 131.858 95.5196 131.055 96.4014C130.138 100.117 130.408 104.983 128.607 108.252C128.28 108.631 127.974 109.868 128.125 110.279C128.904 112.401 128.032 114.579 127.814 116.729C125.937 120.148 126.055 124.202 125.272 127.968C125.011 129.226 123.927 129.768 123.937 131.33C123.731 133.421 122.564 138.128 125.269 135.045C126.287 137.841 126.917 138.337 128.854 135.751C130.01 135.595 131.266 136.327 132.415 136.108C133.224 135.929 134.015 134.923 134.873 135.418C136.475 133.186 138.301 136.205 139.792 133.946C140.538 136.039 142.145 135.133 143.341 135.618C143.898 135.006 144.439 134.411 145.178 133.599C147.35 134.656 149.402 131.753 151.724 132.259C152.743 132.495 153.756 133.163 154.967 132.189C156.063 131.308 157.133 132.21 158.225 132.216C159.879 130.031 161.314 132.391 163.362 131.261C163.109 131.539 163.325 131.302 163.584 131.018C165.06 132.815 165.363 131.859 166.825 130.243C167.803 129.835 168.698 131.175 169.705 129.873C170.462 128.895 171.409 130.448 172.151 129.033C174.381 128.981 176.288 126.559 178.502 127.353C179.099 127.336 179.712 125.819 180.177 126.548C180.959 127.547 182.002 127.962 182.409 129.541C181.229 132.102 179.073 132.06 177.675 134.065C177.072 134.368 176.085 133.382 175.578 134.579C174.547 136.736 172.88 134.96 171.804 136.692C169.41 135.749 167.479 137.809 164.976 136.758C164.586 137.348 164.023 138.2 163.596 138.847C162.086 138.606 160.862 138.411 159.637 138.216C157.978 140.381 156.548 138.019 154.995 138.786C153.914 139.703 152.847 139.649 151.776 139.251C150.084 139.466 148.589 141.625 146.85 140.821C146.047 140.398 145.331 142.132 144.383 141.616C142.989 141.393 139.72 139.948 138.618 141.735C137.543 140.854 136.499 142.774 135.431 142.452C132.714 144.685 129.272 141.91 126.41 142.153C125.384 143.214 124.524 144.755 123.262 143.96C120.243 146.155 121.135 152.855 119.867 156.87C119.612 158.258 120.632 158.97 120.119 160.491C118.816 164.901 119.225 169.275 118.738 173.631C119.885 175.53 118.036 178.036 119.277 179.73C118.805 182.692 118.326 185.694 117.846 188.706C118.175 189.43 118.507 190.16 118.967 191.173C118.565 193.001 118.088 196.866 119.485 197.629C119.95 197.607 120.107 198.055 120.028 198.676C119.902 200.102 117.794 201.947 117.558 200.189C117.79 197.822 116.401 196.071 117.053 193.56C115.493 188.965 115.13 183.938 115.691 178.423C114.203 172.849 116.362 170.226 115.657 165.3C115.232 164.069 116.494 162.085 115.579 160.602C116.095 155.93 117.173 150.814 117.875 145.823C117.675 145.285 116.843 143.96 116.426 144.068C114.583 146.329 112.428 143.245 110.704 144.681C109.718 145.903 108.698 144.226 107.87 145.768C105.215 146.845 102.649 143.662 99.9319 146.012C98.2968 145.663 96.4705 146.041 95.3473 143.954C94.3132 145.198 93.3847 146.314 92.6784 147.164C90.7503 147.238 89.6349 145.727 87.9556 147.215C87.3302 148.109 86.5514 146.731 85.8431 147.712C85.5588 148.107 85.3638 148.246 85.0214 147.736C84.0757 146.147 82.6503 146.809 81.3665 147.648C80.1425 147.593 78.9255 147.473 77.706 147.375C76.4287 148.941 75.2771 147.745 74.121 147.595C73.1119 147.464 72.2939 148.924 71.2693 148.422C70.4849 148.038 69.5639 148.111 68.7038 147.98C67.339 149.789 66.0755 148.43 64.7702 148.474C61.5934 149.663 58.6058 147.803 55.309 149.602C55.0034 151.519 54.6822 153.533 54.519 154.557C54.0461 156.05 53.1211 156.021 53.6211 157.062C54.1019 158.062 53.9033 159.457 53.3684 160.082C52.0708 161.597 52.4435 163.585 51.9559 165.298C52.7115 167.141 52.3279 170.855 50.8478 172.246C50.7776 174.038 49.9388 175.725 50.4545 177.681C50.8889 179.326 50.3009 180.829 49.2788 183.281C49.0151 183.913 48.656 184.914 48.7973 185.347C49.5389 187.711 48.0395 200.231 45.9602 193.4C46.084 191.512 47.18 189.085 46.1227 187.636C46.5098 186.554 45.8305 185.982 45.8 185.159C46.2413 182.559 46.1487 179.309 47.7565 177.281C47.6636 172.463 48.6033 167.073 49.4546 161.901C48.2852 158.578 50.2327 158.276 50.5791 154.948C48.6228 151.925 52.8726 149.989 50.9057 148.596C50.1869 148.491 49.4063 147.909 48.9633 149.429C44.6263 148.403 40.6507 149.873 36.3971 148.601C34.4704 149.899 32.719 150.827 30.7462 150.012C29.6879 149.994 28.6587 149.023 27.5175 150.455C25.0774 151.12 22.2346 148.331 19.8961 150.46C19.776 150.632 19.0973 150.372 19.0017 150.048C18.6249 148.773 17.7637 149.209 17.096 148.969C15.0475 151.104 12.4203 148.919 10.2177 148.989C9.2252 148.736 8.43806 150.594 7.35695 149.799C-0.955629 147.799 -3.06352 148.22 -5.01213 161.864C-3.47746 165.986 -7.82504 175.271 -6.32027 179.207C-6.70487 181.135 -6.38029 183.37 -7.89136 184.828C-8.04015 184.972 -8.14733 185.812 -8.07333 185.875C-6.86707 186.91 -8.44943 189.265 -7.47388 190.37C-6.28669 196.874 -5.36488 205.367 -1.68525 209.254C-1.09763 209.825 -0.372347 209.941 -0.744971 211.434C-0.772585 211.546 -0.620336 211.865 -0.560821 211.848C0.697833 211.494 1.15368 213.437 2.23744 213.562C2.71793 213.616 3.28791 213.553 3.21644 214.605C2.49496 217.795 0.229316 216.682 -1.19525 216.478C-1.9805 212.919 -5.80087 213.309 -5.85584 210.201C-5.63016 207.201 -8.23094 207.842 -7.46533 205.72C-8.09164 204.061 -9.06522 202.77 -9.09268 200.641C-9.29612 198.838 -11.1653 197.758 -10.3808 195.419C-10.2405 193.565 -11.9613 192.726 -11.0916 190.496C-11.7298 183.518 -11.3467 175.759 -9.81895 168.476C-9.41323 167.16 -10.2996 166.548 -10.1217 165.432C-9.09614 161.651 -9.67083 156.49 -7.48301 153.631C-6.76326 151.389 -7.84104 150.014 -8.49664 148.244C-9.14905 149.689 -10.2824 148.815 -10.9097 150.027C-12.3439 149.919 -13.8164 150.207 -14.8003 148.73C-15.4702 149.888 -16.2958 149.636 -16.8915 149.254C-17.8478 148.639 -18.457 150.635 -19.3854 150.125C-20.262 149.829 -21.3945 149.298 -22.239 150.378C-24.1793 151.318 -23.3805 147.258 -26.3804 150.114C-29.2219 150.904 -31.8604 150.555 -34.7147 150.183C-35.5386 151.529 -36.3801 150.728 -37.1924 150.656C-37.8693 150.478 -38.5012 148.44 -39.2264 149.65C-40.6435 150.69 -41.9039 151.222 -43.4722 150.861C-44.1886 150.887 -44.8929 150.125 -45.6205 151.046C-47.201 152.208 -49.0232 150.782 -50.5721 150.874C-52.4811 152.428 -52.6882 155.74 -52.2074 158.413C-51.8888 159.498 -52.962 161.234 -52.2055 162.615C-52.0013 162.988 -52.2969 164.027 -52.3994 164.757C-52.687 166.27 -52.113 167.85 -51.8661 169.232C-51.4035 170.267 -52.3878 171.518 -51.846 172.376C-51.3468 173.168 -51.8195 174.168 -51.7047 174.945C-51.7851 176.729 -50.6323 178.66 -51.2281 180.339C-52.5704 181.76 -51.4828 181.529 -50.9825 182.121C-49.3315 183.889 -50.5277 187.676 -49.5051 189.822C-48.9714 191.32 -48.9232 193.126 -48.8082 194.775C-49.0108 203.027 -43.0926 200.725 -44.9026 206.881C-46.4011 207.442 -48.0895 206.46 -49.5955 206.45C-50.0053 202.837 -51.8324 200.389 -53.0032 197.31C-52.8331 196.04 -52.4918 194.737 -53.2248 193.729C-54.1421 190.235 -54.5033 186.218 -55.2209 182.533C-55.448 181.213 -55.8835 179.931 -55.3309 178.378C-55.3255 175.589 -56.2383 172.809 -56.3912 169.926C-57.3191 169.025 -56.1694 167.303 -56.6572 166.396C-57.221 165.349 -56.9014 164.272 -56.6665 163.246C-56.3135 161.709 -57.3121 160.67 -56.815 159.068C-56.4957 158.04 -57.4919 157.351 -57.0886 156.04C-56.7684 154.999 -56.7045 153.827 -56.5418 152.807C-58.2674 148.467 -57.3449 153.053 -62.7249 151.244C-63.996 152.865 -64.1012 152.27 -65.0857 151.095C-66.8092 153.212 -68.6349 149.877 -70.4136 152.264C-73.0814 152.336 -75.8037 150.502 -78.4435 151.791C-80.4485 153.089 -81.3327 150.178 -83.0703 150.384C-84.5627 152.772 -86.229 152.276 -87.9896 151.817C-88.8507 151.616 -89.5077 153.094 -90.4706 152.673C-91.3148 152.304 -92.3548 151.725 -93.2803 153.246C-94.1506 152.852 -95.2778 153.614 -95.9371 152.151C-96.3429 151.25 -97.2334 151.084 -97.8857 151.878C-98.682 152.848 -99.3272 152.035 -100.062 152.36C-101.052 154.324 -100.961 157.106 -101.483 159.379C-100.54 160.98 -101.458 162.884 -101.549 164.659C-101.099 168.236 -100.18 170.799 -100.909 174.805C-100.569 175.296 -100.066 176.024 -99.7893 176.424C-99.8312 178.587 -100.744 180.363 -99.7476 181.708C-100.56 184.403 -99.1137 186.275 -99.3155 188.903C-98.9602 195.583 -98.0996 202.78 -95.977 208.402C-94.3962 212.529 -94.1866 218.266 -91.088 220.967C-90.4152 221.425 -90.355 222.959 -89.353 223.291C-88.3753 223.615 -87.7639 221.677 -86.884 222.364C-85.2114 220.289 -83.1936 222.946 -81.2977 221.234C-81.0572 222.513 -81.5458 223.771 -81.7052 224.996C-82.4789 225.846 -83.2344 226.676 -83.9999 227.518C-85.0502 227.453 -86.116 226.718 -87.18 228.164C-88.6441 227.902 -90.1081 227.64 -91.5722 227.378C-92.1345 225.569 -93.8581 226.102 -94.4935 224.119C-95.9 220.298 -97.7034 216.637 -99.3961 213.12C-100.798 209.633 -100.048 204.708 -101.783 201.495C-101.976 201.267 -102.032 200.391 -101.881 200.028C-101.264 198.547 -102.344 197.821 -102.185 196.409C-102.045 195.164 -103.505 194.455 -103.004 192.607C-102.604 191.129 -103.925 190.053 -103.094 188.454C-103.41 187.531 -103.727 186.609 -104.127 185.444C-103.711 183.934 -103.687 181.988 -104.094 180.492C-104.597 177.991 -103.974 175.393 -104.999 173.011C-105.084 172.542 -105.034 171.909 -104.901 171.411C-104.351 169.358 -105.361 167.647 -104.91 165.635C-105.841 164.735 -104.66 162.993 -105.178 162.111C-105.692 161.237 -105.154 159.929 -105.726 159.135C-105.807 156.965 -105.287 154.563 -106.035 152.485C-106.595 150.407 -107.808 150.852 -108.185 152.906C-112.417 153.142 -116.771 151.562 -121.108 151.17C-126.11 157.489 -126.046 151.177 -127.521 152.858C-128.591 154.063 -129.443 152.996 -130.396 153.128C-131.258 150.755 -133.249 151.949 -134.789 151.298C-134.47 148.382 -136.479 147.87 -133.712 145.696C-131.602 145.732 -129.466 147.166 -127.251 146.061C-126.159 145.182 -125.085 146.081 -123.993 146.092C-123.213 144.255 -122.109 145.793 -121.21 144.952C-119.142 142.652 -117.737 147.365 -115.943 145.617C-113.31 142.968 -110.657 146.336 -108.501 143.968C-107.946 144.199 -107.24 143.766 -106.809 144.583C-106.656 144.873 -106.62 145.824 -106.099 145.013C-105.416 143.595 -106.746 142.578 -106.125 140.932C-105.104 138.403 -106.551 136.9 -105.857 134.536C-106.63 133.554 -106.341 132.174 -106.001 130.951C-105.643 129.66 -106.565 129.119 -106.333 127.903C-106.136 126.867 -105.685 125.752 -106.144 124.684C-106.688 123.263 -105.731 121.342 -105.819 119.83C-105.862 118.824 -106.421 118.001 -106.049 116.783C-105.696 115.626 -106.741 115.051 -106.345 113.742C-105.774 111.203 -105.544 108.472 -105.06 105.876C-106.105 103.371 -106.105 103.371 -105.855 100.973C-107.536 99.5721 -109.962 100.133 -111.927 99.5254C-112.7 100.661 -113.606 100.046 -114.367 100.415C-115.362 100.897 -115.264 97.8004 -116.385 99.6987C-118.254 100.143 -120.018 98.3422 -121.801 100.035C-121.834 100.08 -122.095 99.744 -122.243 99.5728C-124.106 97.118 -126.486 100.003 -128.532 99.1809C-129.599 99.2061 -130.619 98.2769 -131.762 99.7712C-132.018 100.105 -133.018 99.9343 -133.144 99.541C-133.584 98.1648 -134.476 98.2975 -135.268 98.0351C-136.191 95.1678 -139.843 98.5276 -135.251 91.6569C-133.681 89.8645 -133.266 93.498 -132.179 92.0176C-129.496 90.9944 -126.968 94.1176 -124.23 91.8051C-123.056 91.9904 -121.668 91.9111 -120.568 92.4545C-119.498 93.0132 -118.66 91.5579 -117.721 91.6882C-115.16 91.5934 -112.606 93.5836 -110.05 91.9503C-109.526 91.4714 -108.717 91.795 -108.139 92.6919C-106.238 95.2907 -103.991 90.5785 -105.212 87.9919C-105.099 86.5553 -104.447 85.0101 -105.33 83.8373C-104.928 82.4768 -105.128 80.9974 -104.184 79.6783C-103.314 78.4624 -103.471 76.5061 -103.177 74.902C-103.52 74.14 -103.848 73.4075 -104.225 72.5684C-103.826 70.0676 -103.411 67.4651 -102.935 64.4771C-103.439 63.7706 -104.039 62.9312 -104.846 61.8025C-105.078 61.8477 -105.542 62.8799 -106.266 63.486C-109.375 63.404 -112.501 61.5136 -115.699 62.6582C-116.78 63.5318 -117.861 62.5434 -118.959 62.6626C-119.395 62.7099 -119.874 64.0527 -120.281 63.5139C-122.101 61.1059 -124.667 62.1344 -126.833 61.3611C-127.794 59.517 -129.393 59.9385 -130.77 59.5544C-132.97 57.8985 -134.702 55.7183 -135.878 52.4314C-135.702 51.3276 -135.524 50.2066 -135.341 49.064C-132.127 45.1296 -132.653 50.0126 -130.639 50.3674C-130.023 53.2555 -128.166 52.9539 -126.502 53.4756C-126.155 54.2986 -125.558 55.9351 -124.852 55.8584C-123.606 54.4636 -122.454 55.4362 -121.265 55.2588C-119.343 54.0664 -117.435 54.88 -115.503 55.0855C-114.577 58.078 -113.93 55.0826 -112.408 55.5738C-110.585 55.5684 -108.745 56.8698 -106.926 55.914C-105.124 53.9358 -105.036 57.2757 -103.308 56.918C-101.937 49.1137 -102.042 41.8885 -100.449 34.1221C-100.154 30.8611 -98.6946 27.5779 -99.6258 24.338C-99.0327 20.6188 -98.4396 16.8995 -97.8675 13.3121C-97.0365 12.7496 -96.1514 12.8218 -95.9721 13.3368C-95.4991 14.6953 -94.5463 14.3582 -93.8105 14.8434C-93.4466 15.6981 -93.8687 16.6477 -94.0198 17.5185C-94.3092 19.1808 -93.326 20.4306 -93.95 22.272C-95.9357 30.8202 -95.8961 39.3411 -97.302 47.7934C-97.4397 49.0351 -98.0723 50.4065 -97.2676 51.4447C-97.4467 53.0874 -97.6334 54.7351 -97.8566 56.7121ZM105.714 97.1035C103.223 97.5454 101.024 95.4306 98.4117 97.2008C97.2432 97.492 95.5913 96.7926 94.3886 96.5928C93.5586 96.1094 93.0311 97.601 92.2882 97.4622C90.1254 97.4418 87.8522 95.9306 85.7167 96.8661C83.9263 98.1307 82.3185 96.4003 80.6443 96.8964C79.6122 97.0404 78.0862 99.3994 77.6125 97.5651C76.0852 97.4745 74.6623 95.9141 72.9977 97.7638C72.1408 97.6528 71.2849 97.5287 70.4257 97.4359C69.5933 97.3456 68.8988 98.7567 67.954 98.2514C67.1814 97.8373 66.1724 98.161 65.4122 97.7232C64.4471 97.1678 63.8224 99.3478 62.9427 98.5983C60.6772 102.497 60.3783 107.752 59.6818 112.37C59.4133 114.675 58.141 117.12 59.2911 119.329C58.6931 123.079 58.0953 126.828 57.4974 130.577C56.3124 131.051 55.5589 136.415 55.9153 137.79C57.4756 137.608 56.6986 140.02 56.5057 141.571C56.4151 142.252 57.1584 143.102 57.3779 142.659C58.2467 140.904 59.3412 142.508 60.1833 141.541C62.0869 140.196 64.0412 141.806 65.9338 141.744C66.7824 140.264 67.2092 141.713 67.9838 142.05C68.617 142.408 69.541 141.833 69.9201 143.01C70.1644 143.768 70.4331 143.103 70.7353 143C71.7333 142.659 72.5965 141.953 73.4251 140.973C75.4646 139.935 74.4028 144.37 77.4294 140.256C78.2682 140.39 79.0922 140.521 79.8846 140.647C79.941 141.468 79.9869 142.144 80.0387 142.902C80.4345 142.496 80.8704 141.808 81.0451 141.909C84.0605 142.168 87.1567 138.345 90.265 139.876C92.3186 140.65 94.196 137.53 96.2913 138.471C97.8069 139.289 100.105 138.034 101 140.367C101.532 141.479 102.922 138.53 103.217 138.529C106.142 138.721 108.582 140.208 111.163 137.56C112.237 137.335 113.351 137.682 114.433 137.67C116.241 135.54 117.656 138.885 119.466 135.87C119.762 133.313 120.582 130.262 120.727 127.677C120.666 125.875 121.977 125.234 122.159 123.749C122.823 120.515 122.772 116.879 124.399 114.179C123.979 107.911 126.37 101.291 126.453 94.8212C126.027 94.7533 125.402 94.3379 125.101 94.6623C123.973 95.8812 122.951 95.346 121.883 95.257C121.286 95.2069 120.435 94.8723 120.118 95.3257C119.116 96.755 117.803 94.7628 116.976 96.7745C114.76 96.4211 112.557 96.0698 110.338 95.7159C109.847 96.3432 109.458 97.0002 108.947 95.816C108.714 95.2766 107.887 95.371 107.435 95.214C106.743 95.973 106.203 96.5668 105.714 97.1035ZM-6.43146 142.327C-5.81042 138.433 -5.13341 134.187 -4.49546 130.187C-2.3067 127.744 -3.65861 123.566 -1.6202 121.167C-1.30907 120.681 -1.05853 119.386 -1.24422 119.056C-2.28365 115.597 -0.368477 111.356 -0.124752 107.527C-0.30316 107.119 -0.536766 106.733 -0.634605 106.241C0.374873 104.945 0.390695 104.948 0.839321 101.088C0.362366 99.7497 -0.0174239 98.6863 -0.373451 97.6878C-2.36212 99.7308 -4.54906 97.6701 -6.66469 97.8633C-7.54767 97.7667 -7.701 95.9675 -8.7209 96.6095C-9.18852 96.9249 -9.57958 97.5549 -10.0292 97.9793C-10.665 98.5791 -11.5114 98.2213 -12.056 99.2849C-12.3587 97.6176 -14.0432 97.8804 -15.0062 97.6384C-16.3946 97.8326 -16.1653 99.2265 -17.3601 97.3231C-18.5848 97.6362 -19.705 99.1271 -20.583 97.1496C-20.767 96.8276 -21.3961 96.5787 -21.484 96.7265C-22.0851 97.7333 -22.9087 97.3526 -23.5496 97.9843C-25.3604 99.9443 -25.4405 96.6836 -26.6078 97.5992C-27.8158 98.1016 -28.7691 98.2529 -29.3116 97.2972C-30.0454 96.0032 -31.0818 96.4958 -31.9578 96.1156C-33.2341 97.9184 -34.5664 96.6157 -35.88 96.6352C-36.4027 96.4201 -36.8039 96.9406 -37.2747 97.2033C-38.3065 97.7603 -39.488 96.6859 -40.4582 97.9398C-40.7174 98.1585 -41.2792 98.1378 -41.4282 97.8691C-42.5501 95.8474 -44.2836 96.6391 -45.8 96.4398C-47.3124 98.1935 -48.8519 96.4748 -50.5272 96.618C-51.1778 98.8663 -50.8679 101.349 -52.3442 102.963C-52.573 103.213 -52.7267 104.206 -52.6016 104.577C-51.9429 106.535 -52.9455 109.489 -51.3439 110.684C-51.971 114.616 -52.5674 118.356 -53.1642 122.099C-52.7874 122.988 -52.415 123.868 -52.0615 124.704C-52.1511 126.19 -52.9705 127.719 -52.1551 128.999C-52.3019 130.283 -52.4124 131.572 -52.6052 132.85C-52.8254 134.311 -51.8334 135.353 -52.4642 137.023C-53.3521 139.276 -52.9347 141.633 -52.3634 143.663C-50.8712 143.901 -49.3657 143.989 -47.9367 144.423C-47.0153 144.704 -46.4098 142.988 -45.4527 143.546C-44.6955 143.988 -43.7546 143.882 -42.8955 144.019C-40.1632 142.227 -37.5228 143.891 -35.0166 144.346C-34.7044 144.678 -34.6241 145.737 -34.0121 144.761C-33.5342 143.999 -32.8925 144.783 -32.3545 143.779C-31.0753 140.711 -30.5969 143.607 -30.1839 144.892C-29.6983 144.969 -29.5536 145.071 -29.4559 144.996C-27.0603 142.913 -24.5647 143.248 -22.1876 143.858C-21.4582 143.057 -20.9183 142.464 -20.352 141.842C-19.1507 142.279 -17.4266 141.782 -16.4856 142.824C-16.5224 143.858 -16.5592 144.891 -16.6013 146.078C-15.5232 144.639 -14.6238 144.03 -13.4649 143.497C-12.4932 142.478 -11.5562 143.95 -10.6721 142.368C-9.89779 143.924 -8.72365 143.693 -7.72194 143.75C-7.20585 143.178 -6.88191 142.822 -6.43146 142.327ZM8.0193 143.991C8.60685 143.16 9.46159 143.412 10.0005 142.766C10.7947 141.813 11.4913 142.722 12.1336 142.278C12.7224 141.871 13.204 141.268 13.8763 141.504C15.3094 141.415 15.7598 143.558 17.4214 143.007C19.2574 141.227 21.0844 143.797 23.0988 141.88C26.5238 141.821 30.2396 144.172 33.644 142.403C34.6406 142.416 35.671 142.479 36.5811 142.893C37.609 143.36 38.4311 141.817 39.4268 142.094C40.4525 142.379 41.5301 142.847 42.6333 141.537C44.7992 142.406 43.1583 146.367 47.7646 141.172C48.9763 141.28 50.0292 141.669 51.2106 141.531C52.6533 132.484 54.0411 123.69 55.4718 114.904C55.6999 113.502 55.5509 111.799 56.7837 110.938C56.6359 110.498 56.4875 110.058 56.3125 109.538C56.6069 106.184 57.9826 102.151 57.6955 98.9685C54.9626 98.5327 52.1722 98.0877 49.4382 97.6517C47.3634 101.197 45.8609 97.7427 43.8098 100.075C43.6919 100.244 43.1674 100.163 43.1172 99.9801C42.7268 98.121 38.7603 97.6211 37.8052 99.1577C36.6245 99.0782 35.3051 98.5344 34.1466 98.7078C32.0239 100.617 29.7982 98.5467 27.6116 98.6905C25.5825 98.6499 22.5575 102.099 20.9883 99.3454C22.1458 97.9789 21.4863 97.8879 20.8935 96.5165C20.4242 97.0314 19.992 97.5054 19.5698 97.9687C19.7427 98.4004 19.9154 98.8302 20.1532 99.4252C18.3773 100.436 18.4804 96.5508 16.6765 99.2528C15.9008 98.6392 15.3416 100.383 14.5906 100.077C13.8222 99.7632 12.8308 100.284 12.3629 98.839C11.8412 97.2508 10.3273 100.62 9.80864 99.0419C9.41855 97.8062 8.63894 98.0391 8.62891 98.0366C7.21946 99.0242 6.27271 99.6885 5.77882 100.034C5.11801 102.092 5.41011 103.847 4.15975 104.687C3.78678 106.924 3.41396 109.16 3.04156 111.397C4.14333 113.455 2.73899 116.435 2.59882 118.921C1.77079 122.096 2.25804 126.065 0.346717 128.532C0.0662388 128.786 -0.156722 130.289 0.038901 130.633C0.913008 132.086 -0.505819 140.464 -1.61382 141.738C-2.65813 144.692 -0.911617 143.524 0.358023 142.868C1.22297 142.907 2.07045 143.107 3.4513 143.327C3.72594 142.83 4.24593 141.888 4.5727 141.296C5.60819 141.462 6.32647 141.576 6.98044 141.68C7.35752 142.518 7.68613 143.249 8.0193 143.991ZM-59.6007 98.6002C-59.9976 97.7746 -60.3961 96.9471 -60.787 96.1349C-62.3853 95.9552 -62.3852 95.9552 -63.1209 97.8611C-64.2917 98.0608 -65.4146 97.8587 -66.2423 96.6125C-66.9784 98.1063 -68.0548 96.6374 -68.648 97.5005C-69.532 98.7876 -70.3978 97.446 -71.1186 98.2949C-73.7654 99.8527 -76.4545 97.7517 -79.1412 97.8256C-79.7884 98.5041 -80.4351 99.1826 -81.0542 99.8302C-84.4829 99.7707 -87.8457 97.6064 -91.2825 99.3531C-91.6274 99.8445 -93.5967 98.6046 -94.332 98.9083C-96.4166 100.978 -98.0535 98.4528 -100.256 99.5137C-100.563 103.08 -102.041 106.685 -101.266 110.249C-101.037 111.051 -101.662 112.457 -101.712 113.568C-101.758 114.589 -101.478 115.571 -101.485 116.596C-101.494 118.172 -102.474 119.922 -101.51 121.322C-101.702 122.625 -101.906 123.928 -102.084 125.233C-102.256 126.494 -101.311 127.387 -101.885 128.828C-102.079 129.313 -102.261 130.335 -102.142 130.44C-100.943 131.509 -102.465 133.738 -101.583 134.989C-101.066 135.723 -102.099 137.143 -101.527 138.078C-100.875 139.546 -101.853 141.656 -101.937 143.274C-101.016 145.115 -101.015 145.115 -98.912 145.409C-97.5919 143.935 -96.0082 142.293 -95.031 144.739C-94.8702 145.163 -94.1484 145.137 -93.6663 145.134C-92.4655 145.128 -91.3837 146.067 -90.0491 145.106C-88.6668 144.11 -87.4079 145.33 -86.0603 145.17C-84.3621 143.35 -84.2851 144.437 -83.8801 146.659C-83.0799 147.474 -81.967 146.198 -81.0907 146.053C-79.7424 146.056 -78.4102 146.52 -77.0478 146.558C-76.2555 144.941 -75.1938 146.216 -74.2648 145.421C-73.1883 144.501 -72.0761 144.69 -71.318 145.919C-70.9593 146.501 -70.7512 146.184 -70.4917 145.84C-69.9727 145.151 -69.3131 145.78 -68.753 144.939C-68.3308 144.305 -67.8339 143.428 -66.8287 143.667C-67.0039 145.464 -65.2996 144.43 -65.0088 146.034C-63.6547 146.924 -62.5209 143.63 -61.2739 146.761C-61.0282 147.299 -60.2005 146.986 -60.0633 146.231C-59.6339 144.069 -58.4649 145.629 -57.3106 143.421C-56.3648 140.917 -57.4896 139.04 -56.9955 136.636C-56.7061 135.359 -56.5919 134.211 -57.1048 132.986C-57.3895 132.307 -56.6763 130.997 -57.1661 129.881C-57.5275 127.466 -56.3138 124.282 -56.1495 121.627C-57.1753 120.289 -55.8257 118.234 -56.2624 116.997C-56.9218 115.127 -56.1296 113.406 -56.0238 111.63C-56.994 108.315 -55.3532 104.495 -55.0986 101.081C-56.7047 97.9302 -56.6097 94.5391 -59.6007 98.6002ZM63.4534 93.2326C64.9306 91.3035 65.4935 92.4438 66.7532 92.1592C69.2903 90.53 71.5738 92.1781 74.0169 92.2317C78.1926 93.6041 78.5652 89.5234 83.713 91.4691C85.8712 88.8501 88.0046 92.7247 90.1203 90.2236C90.2238 90.0836 90.7178 90.5426 91.002 90.7887C91.1757 90.9393 91.3949 91.4323 91.4231 91.4014C92.9632 89.6707 94.3117 91.1768 95.7433 91.1115C98.4292 91.9872 100.987 90.34 103.7 90.9602C104.67 89.51 105.6 90.5504 106.785 90.4768C107.224 89.8819 107.816 89.0814 108.289 88.4415C109.539 88.7576 110.753 88.4357 111.36 90.0799C111.426 90.2566 111.931 90.2779 112.045 90.1025C113.593 88.2747 115.44 90.0134 117.105 89.8678C118.45 88.4922 119.731 89.2175 121.033 89.3313C121.92 88.6018 122.638 87.8904 123.464 88.6349C124.416 89.2402 125.061 87.2315 125.942 87.8009C126.779 88.342 127.339 87.1943 128.105 86.4455C128.092 82.9868 134.529 54.5626 131.752 56.4886C129.591 59.2081 128.751 54.9074 126.492 55.6985C125.306 57.1762 123.915 58.5629 122.957 56.5753C122.742 56.204 122.713 56.1013 122.416 56.4262C121.163 57.9003 119.849 55.9443 118.56 57.7274C117.896 57.9957 117.295 55.5874 116.528 56.4962C114.922 58.0298 113.115 56.6355 111.464 56.6145C108.337 58.0355 104.417 59.3416 101.734 56.6147C101.551 56.169 101.477 56.12 101.183 56.5622C100.518 57.5624 99.515 57.0478 98.8142 58.2076C97.1379 61.0795 96.9266 55.5651 95.0936 58.6454C87.1492 57.3139 79.0951 59.2977 71.0921 57.1266C70.0454 58.9148 69.0444 60.7289 69.045 63.0475C69.0456 64.4324 67.9839 64.7035 67.8178 65.8398C67.4703 67.1789 67.6302 69.1887 66.8717 70.1288C66.1591 70.6466 66.4324 71.1137 66.6692 71.766C66.9766 73.764 65.1487 73.8828 65.2926 77.7558C66.2311 81.539 63.8448 88.1176 63.4534 93.2326ZM29.0347 93.1405C30.7086 94.2669 32.0484 92.2142 33.648 92.709C36.7622 92.8872 40.0504 94.7354 43.0965 93.0839C44.4487 93.0838 45.7006 94.0076 47.0797 92.9374C48.1778 92.1831 50.0072 93.574 51.0283 93.0011C53.4714 91.2048 55.6383 93.8637 58.1657 91.7748C61.0539 85.6653 61.153 77.5422 62.4793 70.6177C62.5241 68.9155 63.8355 68.3271 63.9326 66.6969C64.021 65.2087 64.3943 63.7039 64.613 62.2019C64.8222 60.7665 63.8565 59.6778 64.4857 58.0291C64.7165 57.4248 63.9976 56.7168 63.5058 57.1725C61.6543 59.3151 59.7758 56.1682 57.8367 58.4641C57.7623 58.5486 57.5842 58.476 57.4768 58.4119C55.6634 55.3833 56.2152 58.4911 53.6641 57.8384C51.8695 59.5622 49.46 58.1593 47.5442 57.9351C46.6977 57.5225 46.1966 58.9829 45.4418 58.8236C44.3497 58.592 43.2403 58.4575 42.1618 58.2856C41.3077 55.6964 40.8753 57.6082 39.4385 57.7973C38.1529 55.6239 36.6636 58.7307 34.9993 58.3327C32.7358 58.199 30.3677 56.777 28.0809 57.8873C24.6592 59.8043 25.8762 53.8925 22.4332 58.6039C20.7348 58.0705 18.9273 58.7293 17.7242 57.2163C17.2713 56.3271 16.7386 56.3349 16.176 57.1445C15.3162 58.3816 14.4158 58.8022 13.3988 58.3172C12.9667 58.7921 12.535 59.2662 12.1471 59.6925C11.7784 61.365 11.4216 62.9804 11.0655 64.5957C9.93542 65.5942 10.2092 67.28 9.85757 68.6599C10.929 70.4534 9.79206 72.535 9.67317 74.4835C7.33989 77.9315 7.48448 86.532 6.25704 91.2377C6.55301 91.8968 6.81559 92.4817 7.08675 93.0855C7.80968 93.2008 8.54347 93.3178 9.41335 93.4566C11.9865 90.0928 11.4127 91.5576 13.1471 93.8822C14.6158 92.4867 16.3359 93.4472 17.7494 93.9424C18.2667 95.5219 19.4524 94.8603 20.341 95.2196C20.985 94.5432 21.6319 93.8638 22.2528 93.2121C23.03 93.336 23.8139 93.2912 24.4918 93.6124C25.4385 93.9349 26.4798 91.587 27.0705 93.3967C27.1656 93.923 26.5915 94.8342 27.3568 94.9854C27.91 94.3768 28.45 93.783 29.0347 93.1405ZM0.452112 92.0461C2.52456 90.837 1.53565 87.8718 3.23699 86.1004C3.52248 85.8586 3.779 84.3308 3.59006 84C2.83174 82.6747 3.25356 81.1918 3.56614 79.7915C4.03347 77.6969 3.69025 75.2122 5.28347 73.6137C5.63917 69.8203 7.09289 65.5485 6.79626 61.9641C5.8977 60.5696 7.25846 59.8917 7.49735 58.8952C5.73646 57.6745 3.36751 58.1544 0.962688 57.4897C0.445472 60.0715 -0.0195211 55.7582 -1.30025 57.7488C-2.97334 60.7422 -4.74429 57.3781 -6.5221 59.7598C-9.73624 59.5506 -7.06801 56.6998 -11.3832 59.5461C-12.988 61.3222 -14.0688 57.1601 -15.5559 58.6746C-16.577 60.0549 -17.8686 58.1263 -18.6971 60.127C-19.544 59.8293 -20.3768 59.8203 -21.1536 60.8902C-22.9016 60.3187 -25.0842 60.9425 -26.5208 59.4948C-26.425 58.632 -25.7111 56.1806 -26.8635 57.0792C-27.8882 62.1454 -30.9777 57.4993 -33.0268 60.1136C-33.2311 59.7193 -33.4354 59.3242 -33.6904 58.8334C-33.9621 59.509 -34.2151 60.1389 -34.4685 60.7688C-35.9019 61.4961 -37.7848 59.972 -39.1931 60.4761C-41.9532 62.6498 -44.5558 59.0452 -47.3538 62.0052C-49.1776 71.1734 -49.0106 79.8747 -50.9111 89.059C-49.6851 92.6634 -48.0469 90.1436 -45.9385 89.4399C-44.6011 92.3237 -41.2453 89.4349 -39.9675 92.7505C-39.1631 91.9078 -38.5151 91.2286 -37.8694 90.5525C-34.9995 90.9217 -32.3481 92.0493 -29.4925 90.6866C-28.1097 91.1928 -26.5424 91.0872 -25.0906 91.3241C-24.5502 90.7302 -24.0097 90.1364 -23.4686 89.5419C-22.4671 90.1561 -22.8523 91.9172 -22.3788 93.0883C-21.4202 91.3364 -20.0493 91.0996 -18.8226 90.3164C-18.4937 91.0488 -18.1641 91.7814 -17.8359 92.5146C-15.9576 90.248 -15.5295 92.9063 -14.0892 93.0918C-13.2892 91.8222 -12.4179 92.6014 -11.6154 92.2536C-10.2821 91.5112 -8.83039 89.7655 -7.56647 91.1078C-6.79137 92.3606 -3.64133 93.2865 -2.49893 91.5746C-1.51612 91.7322 -0.531959 91.8891 0.452112 92.0461ZM-97.6579 92.5638C-96.2988 92.8876 -94.0162 92.9058 -92.5585 93.4327C-91.6268 93.8448 -90.9029 92.6303 -90.096 92.6476C-89.1008 92.6693 -88.1295 92.9285 -87.1472 93.0852C-86.0427 93.2613 -84.912 93.3196 -83.8416 93.6477C-82.8497 93.9517 -82.0115 92.316 -81.0055 92.8806C-79.7233 93.5997 -78.3779 92.7548 -77.161 91.8188C-75.1008 89.7271 -74.7225 94.581 -73.0289 91.9967C-72.0514 92.111 -71.0741 92.2262 -70.0971 92.3405C-68.066 89.9116 -65.7195 93.2349 -63.6583 91.7951C-62.1614 90.4332 -60.9406 92.3734 -59.7145 91.2992C-58.2391 90.0834 -57.1303 90.5378 -56.2139 92.2164C-54.9838 93.0661 -54.3807 89.1724 -55.3369 88.3391C-55.098 86.8412 -54.901 85.3331 -54.6085 83.8481C-54.2828 82.1908 -55.1971 80.975 -54.6863 79.1129C-54.0237 76.35 -53.5622 72.9696 -53.2548 70.2022C-54.7859 68.278 -50.5816 58.6475 -54.6421 62.4771C-55.4741 62.3444 -56.4003 62.424 -57.1744 62.0149C-58.1151 61.5174 -58.813 62.8766 -59.6426 62.8301C-60.8255 62.7644 -61.9931 61.9459 -63.1986 63.4214C-63.7465 63.1863 -64.4737 63.5956 -64.826 62.6498C-65.8282 60.2882 -67.6562 65.1458 -68.8003 61.4095C-69.4288 62.0688 -70.057 62.7264 -70.7042 63.4049C-71.6696 63.251 -72.6485 63.0949 -73.6281 62.9387C-75.7675 65.0584 -77.9402 62.8718 -80.1321 63.0307C-83.2198 65.6155 -86.0796 61.2616 -89.0844 63.9118C-90.4342 63.6966 -91.777 63.425 -93.1399 63.3102C-96.331 66.4781 -95.7897 59.9076 -98.4107 64.331C-98.6901 67.889 -100.311 71.3419 -99.3379 74.7714C-99.5768 76.2693 -99.8926 77.7665 -100.032 79.2652C-100.162 80.6602 -99.38 81.785 -99.9219 83.4308C-100.318 84.6347 -100.385 86.0301 -100.583 87.3417C-100.774 88.6102 -99.9263 89.4511 -100.353 90.9464C-100.664 93.3419 -99.2112 93.9051 -97.6579 92.5638Z" fill="#82C6DD" stroke="#282828" mask="url(#path-1-inside-1_5_312)"/>
</svg>
