<svg xmlns="http://www.w3.org/2000/svg" width="203" height="185" fill="none" viewBox="0 0 203 185"><mask id="a" fill="#fff"><path d="M-97.857 56.712c3.676-1.916 7.178.638 10.853.495 1.235-1.584 2.386-.402 3.575-.475 2.707-2.658 5.3 1.646 7.875-.963 1.809-.21 3.733 1.584 5.43-.32.909-.36 1.32 2.447 2.383 1.011 1.225-1.42 2.383-2.732 3.476-.334.196.43 1.054.659 1.349.355 1.41-1.456 2.648-.399 3.96-.49.954-.067 1.808.935 2.885-.22.83-.889 1.796.415 2.487-.16.699-.581 1.427-.589 2.153-1.249 1.212-5.779 1.25-12.099 3.232-17.577 1.048-1.67.8-3.956 1.273-5.928.995-.707 1.12-2.048 1.31-3.34 2.728-3.467 1.081-10.546 3.582-14.218.655-1.636.797-4.089 1.237-5.935 1.604-1.507.599-4.322 2.479-5.58 1.074.962 2.7 1.831 2.162 4.341-.618 2.735-.5 5.475-1.958 7.943-.795 1.279-.186 3.666-1.512 5.094-.767 2.606-1.098 6.059-1.518 8.872-.16 1.6-1.404 2.228-1.456 3.924-.6 8.043-4.196 15.542-4.197 23.641 1.175-1.57 2.544-.422 3.842-.494.917-1.311 1.936-1.033 2.81-.649 1.03.453 1.86-1.077 2.848-.79 3.224.997 6.571.8 9.799.265 1.413-1.42.944.624 1.992.465 2.851-2.577 5.484 2.024 8.118-2.142 3.195-.043 6.67 2.484 9.789.21 1.954-1.57 3.867.073 5.828-.052.588.059 1.064-1.343 1.706-.833 1.66 2.983 4.396 1.308 6.653-.1.472-.13 1.22.52 1.362-.258.229-1.26 1.172-1.633 1.317-2.718.165-1.234.779-2.556.127-3.726-.137-8.781 4.788-17.421 4.104-26.07-.343-1.251.139-2.456.953-3.333.758-.819 1.595-.947 2.274.112 4.653 2.951-2.097 15.316-.214 20.947-.509 1.708-.022 3.814-1.406 5.208-.872 2.612-1.082 6.447-1.59 8.832l.733 2.269c.984-1.48 2.143-.62 3.287-.826.796-1.32 1.647-.725 2.47-.616 1.358.18 2.783.153 4.039.713 1.266.565 2.385-.95 3.592-.7.91.188 1.896.93 2.825-.6 3.915.465 7.916 1.281 11.78 1.793 1.187-2.154 2.64.365 3.881-1.309 1.78-1.95 2.146 3.041 3.784.438 1.976.24 4.713-2.345 6.072.682.087.296.677.227 1.046.25 2.738-1.906 5.753 1.1 8.518-1.423.004-2.257 2.175-3.736 1.518-5.993-.899-1.813.394-3.244 1.035-4.846.509-2.094.26-4.524 1.756-6.166 1.088-4.942.883-10.056 3.031-14.682.943-1.669.094-4.545 1.755-6.142.626-3.74 1.252-7.477 1.837-11.222 2.284-3.806 3.47.349 4.71 3.416-.371 1.32.038 3.575-1.468 5.03-.474 2.14-.723 4.502-1.119 6.71-2.543 3.205-1.17 9.575-3.544 12.915-1.084 3.897-.453 8.471-2.666 11.792l-1.603 10.05c1.688.714 1.687.733 3.142.155 1.254-.66 2.702.275 4.016.24 2.73-2.795 5.68 1.885 8.608-.89l3.67.399c2.18-2.593 8.978 2.472 11.229-.226 1.67-.402 3.409 1.415 5.077-.005.709-.89 1.439-.12 2.15-.072.754.05 1.26-1.314 2.106-.905 2.084.185 4.46 1.631 6.558.285 1.909-1.03 4.336 1.775 6.113-.307.941-.097 1.991.604 2.859-.367.685-.754 1.138-.508 1.509.368.612 1.442 1.252.262 1.882-.368l2.216.352 2.271-2.501c.373-5.421 2.854-3.59.542-8.02.49-1.986.32-4.964 1.657-6.554.322-.422.438-1.408.455-2.112.021-.852-.69-1.375-.346-2.475.23-.734.145-1.372-.118-2.052-.378-.983-.206-2.25.455-2.986 1.071-1.19.741-2.77 1.105-4.143-.903-1.185-.379-2.831-.01-4.148.461-1.649-.588-2.582-.188-4.193.332-1.34.92-2.951.055-4.183.513-2.588.123-6.199 2.357-7.226.55-.32.816.491 1.056 1.093.689.974-.294 2.75 1.101 2.7.148.01.363.515.332.78-.188 1.62-.752 3.298.015 4.73-.495 3.635-1.44 7.417-.998 10.897-.149 4.108-2.396 8.971-1.276 12.622l-.849 5.608c1.181 3.027-.7 6.91-.895 10.354.533 1.258 1.571.595 2.343.943 2.058-2.056 4.075.11 6.148-.236 2.199-1.752 4.602.05 6.981.02 1.379-1.667 1.877-2.698 3.219-.891 1.196-1.163 2.607-.575 3.91-.532.826-1.338 1.661-.509 2.483-.493.842.016 1.539-1.374 2.475-.828.65.38 1.464.256 2.195.412.745.159 1.303-1.452 2.091-.836.856.67 1.522-1.427 2.476-.816.601.385 1.319.101 2.119-.404.849-.536 1.936.308 2.896.026 2.672-1.513 5.036.071 7.852.183l1.5-2.067 3.936.627 1.811-2.023c3.3 1.482 6.949-2.245 9.403 2.589 1.267 2.688-3.745 5.466-5.125 5.05-1.59-1.189-3.037.675-4.67.409-.707-.25-1.47-.263-2.208-.38-1.208 1.475-2.376.62-3.566.617a38 38 0 0 0-3.091 1.698c-1.936.557-4.261-1.695-6.178-.377-.773.958-1.455-.016-2.133.475-1.452 1.679-3.134-.12-4.698.29-1.051.107-2.118 1.136-3.194.588-.737-.375-1.268 1.275-2.099.857-.671-.337-1.462-.28-2.2-.397-1.247 2.155-2.894-.462-4.215 1.587-.193.297-1.195.104-1.351-.312-1.017-2.632-2.028-.174-3.132.802-1.125-.025-2.843-.86-3.895-.224-1.554 1.207-2.866-.01-4.376.095-.677.547-1.249 1.497-1.891.361-.72-1.644-2.009 2.234-3.223-1.05-1.453.551-2.179 3.617-3.939 2.674-.786 4.93-1.448 9.43-2.242 13.901-.343 1.932-.079 4.217-1.597 5.64-.309 1.867-.639 3.732-.905 5.605.547 1.281.721 3.12-.482 4.33-.607.84-.506 2.64.415 1.355 3.664-2.597 6.607-1.768 10.035-1.156.811.092 1.647.808 2.493-.506 1.409-.344 2.963.4 4.389.47 1.208-1.425 2.386-.752 3.563-.577.848.126 1.531-1.334 2.475-.828.774.414 1.704.33 2.565.468.789-1.838 1.892-.28 2.786-1.104.31-.285.788-.694 1.002-.547.914.624 1.653-1.065 2.471-.795 1.306.43 2.61.148 3.937-.546 1.278.916 2.648-1.226 3.932-.527.785-.931 1.607-1.12 2.457-.763 1.641-2.014 3.623-.138 5.399-.294 1.586-2.278 3.618-1.875 6.152-3.603.18-.082.592.207.584.355-.115 2.272 1.047 3.426 1.617 5.082-.856 1.277-1.321 2.795-2.344 3.636-1.077-.7-2.115.922-3.184.754-1.973-.765-3.755.06-5.686 1.296-.557.465-1.474.005-2.17-.274-.892-.357-1.529 1.41-2.486.856-1.505-.603-3.465-.472-4.99-.86l-1.835 2.016c-1.521.013-3.065-1.257-4.625.313-.497.553-1.332-.512-2.104.532-.7.95-1.69-.626-2.449.845-.863-.58-1.575-2.074-2.714-.667-.893.936-1.988-.454-2.781 1.171-1.493.17-2.874-1.179-4.35.102-1.513.95-3.17-.379-4.74-.311-1.214 1.809-2.376.407-3.564.607-1.477 1.156-3.351.583-4.754.376l-2.509 2.756c-.917 3.716-.647 8.582-2.448 11.851-.327.379-.633 1.616-.482 2.027.779 2.122-.093 4.3-.311 6.45-1.877 3.419-1.759 7.473-2.542 11.239-.261 1.258-1.345 1.8-1.335 3.362-.206 2.091-1.373 6.798 1.332 3.715 1.018 2.796 1.648 3.292 3.585.706 1.156-.156 2.412.576 3.561.357.809-.179 1.6-1.185 2.458-.69 1.602-2.232 3.428.787 4.919-1.472.746 2.093 2.353 1.187 3.549 1.672l1.837-2.019c2.172 1.057 4.224-1.846 6.546-1.34 1.019.236 2.032.904 3.243-.07 1.096-.881 2.166.021 3.258.027 1.654-2.185 3.089.175 5.137-.955l.222-.243c1.476 1.797 1.779.841 3.241-.775.978-.408 1.873.932 2.88-.37.757-.978 1.704.575 2.446-.84 2.23-.052 4.137-2.474 6.351-1.68.597-.017 1.21-1.534 1.675-.805.782.999 1.825 1.414 2.232 2.993-1.18 2.561-3.336 2.519-4.734 4.524-.603.303-1.59-.683-2.097.514-1.031 2.157-2.698.381-3.774 2.113-2.394-.943-4.325 1.117-6.828.066l-1.38 2.089-3.959-.631c-1.659 2.165-3.089-.197-4.642.57-1.081.917-2.148.863-3.219.465-1.692.215-3.187 2.374-4.926 1.57-.803-.423-1.519 1.311-2.467.795-1.394-.223-4.663-1.668-5.765.119-1.075-.881-2.119 1.039-3.187.717-2.717 2.233-6.159-.542-9.021-.299-1.026 1.061-1.886 2.602-3.148 1.807-3.019 2.195-2.127 8.895-3.395 12.91-.255 1.388.765 2.1.252 3.621-1.303 4.41-.894 8.784-1.381 13.14 1.147 1.899-.702 4.405.539 6.099l-1.431 8.976 1.121 2.467c-.402 1.828-.879 5.693.518 6.456.465-.022.622.426.543 1.047-.126 1.426-2.234 3.271-2.47 1.513.232-2.367-1.157-4.118-.505-6.629-1.56-4.595-1.923-9.622-1.362-15.137-1.488-5.574.671-8.197-.034-13.123-.425-1.231.837-3.215-.078-4.698.516-4.672 1.594-9.788 2.296-14.779-.2-.538-1.032-1.863-1.449-1.755-1.843 2.261-3.998-.823-5.722.613-.986 1.222-2.006-.455-2.834 1.087-2.655 1.077-5.221-2.106-7.938.244-1.635-.349-3.462.029-4.585-2.058l-2.669 3.21c-1.928.074-3.043-1.437-4.722.051-.626.894-1.405-.484-2.113.497-.284.395-.48.534-.822.024-.945-1.589-2.37-.927-3.654-.088-1.225-.055-2.442-.175-3.661-.273-1.277 1.566-2.429.37-3.585.22-1.01-.131-1.827 1.329-2.852.827-.784-.384-1.705-.311-2.565-.442-1.365 1.809-2.628.45-3.934.494-3.177 1.189-6.164-.671-9.461 1.128l-.79 4.955c-.473 1.493-1.398 1.464-.898 2.505.48 1 .282 2.395-.253 3.02-1.297 1.515-.925 3.503-1.412 5.216.755 1.843.372 5.557-1.108 6.948-.07 1.792-.91 3.479-.393 5.435.434 1.645-.154 3.148-1.176 5.6-.264.632-.623 1.633-.482 2.066.742 2.364-.758 14.884-2.837 8.053.124-1.888 1.22-4.315.163-5.764.387-1.082-.292-1.654-.323-2.477.441-2.6.349-5.85 1.957-7.878-.093-4.818.846-10.208 1.698-15.38-1.17-3.323.778-3.625 1.124-6.953-1.956-3.023 2.294-4.959.327-6.352-.72-.105-1.5-.687-1.943.833-4.337-1.026-8.312.444-12.566-.828-1.927 1.298-3.678 2.226-5.65 1.411-1.06-.018-2.088-.989-3.23.443-2.44.665-5.282-2.124-7.62.005-.121.172-.8-.088-.895-.412-.377-1.275-1.238-.839-1.906-1.079-2.049 2.135-4.676-.05-6.878.02-.993-.253-1.78 1.605-2.861.81-8.313-2-10.42-1.579-12.37 12.065 1.536 4.122-2.812 13.407-1.307 17.343-.385 1.928-.06 4.163-1.571 5.621-.15.144-.256.984-.182 1.047 1.206 1.035-.376 3.39.6 4.495 1.186 6.504 2.108 14.997 5.788 18.884.587.571 1.313.687.94 2.18-.028.112.125.431.184.414 1.259-.354 1.715 1.589 2.798 1.714.48.054 1.05-.009.98 1.043-.722 3.19-2.988 2.077-4.412 1.873-.785-3.559-4.606-3.169-4.66-6.277.225-3-2.376-2.359-1.61-4.481-.627-1.659-1.6-2.95-1.628-5.079-.203-1.803-2.072-2.883-1.288-5.222.14-1.854-1.58-2.693-.71-4.923-.639-6.978-.256-14.737 1.272-22.02.406-1.316-.48-1.928-.303-3.044 1.026-3.781.451-8.942 2.639-11.801.72-2.242-.358-3.617-1.014-5.387-.652 1.445-1.785.571-2.413 1.783-1.434-.108-2.906.18-3.89-1.297-.67 1.158-1.496.906-2.091.524-.957-.615-1.566 1.381-2.494.871-.877-.296-2.01-.827-2.854.253-1.94.94-1.142-3.12-4.141-.264-2.842.79-5.48.441-8.335.069-.824 1.346-1.665.545-2.477.473-.677-.178-1.31-2.216-2.034-1.006-1.418 1.04-2.678 1.572-4.246 1.211-.717.026-1.42-.736-2.148.185-1.581 1.162-3.403-.264-4.952-.172-1.91 1.554-2.116 4.866-1.635 7.539.318 1.085-.755 2.821.002 4.202.204.373-.092 1.412-.194 2.142-.288 1.513.286 3.093.533 4.475.462 1.035-.522 2.286.02 3.144.5.792.026 1.792.141 2.569-.08 1.784 1.073 3.715.477 5.394-1.342 1.421-.255 1.19.245 1.782 1.651 1.768.455 5.555 1.478 7.701.534 1.498.582 3.304.697 4.953-.203 8.252 5.715 5.95 3.905 12.106-1.498.561-3.187-.421-4.693-.431-.41-3.613-2.236-6.061-3.407-9.14.17-1.27.511-2.573-.222-3.581-.917-3.494-1.278-7.511-1.996-11.196-.227-1.32-.663-2.602-.11-4.155.006-2.789-.907-5.569-1.06-8.452-.928-.901.222-2.623-.266-3.53-.564-1.047-.244-2.124-.01-3.15.354-1.537-.645-2.576-.148-4.178.32-1.028-.677-1.717-.274-3.028.32-1.041.384-2.213.547-3.233-1.725-4.34-.803.246-6.183-1.563-1.271 1.621-1.376 1.026-2.36-.149-1.724 2.117-3.55-1.218-5.329 1.169-2.667.072-5.39-1.762-8.03-.473-2.004 1.298-2.889-1.613-4.626-1.407-1.493 2.388-3.159 1.892-4.92 1.433-.86-.201-1.518 1.277-2.48.856-.845-.369-1.885-.948-2.81.573-.87-.394-1.998.368-2.657-1.095-.406-.901-1.296-1.067-1.949-.273-.796.97-1.441.157-2.176.482-.99 1.964-.899 4.746-1.421 7.019.943 1.601.025 3.505-.066 5.28.45 3.577 1.369 6.14.64 10.146l1.12 1.619c-.042 2.163-.955 3.939.041 5.284-.812 2.695.634 4.567.433 7.195.355 6.68 1.215 13.877 3.338 19.499 1.58 4.127 1.79 9.864 4.889 12.565.673.458.733 1.992 1.735 2.324.978.324 1.59-1.614 2.469-.927 1.673-2.075 3.69.582 5.586-1.13.24 1.279-.248 2.537-.407 3.762L-84 227.518c-1.05-.065-2.116-.8-3.18.646l-4.392-.786c-.562-1.809-2.286-1.276-2.921-3.259-1.407-3.821-3.21-7.482-4.903-10.999-1.402-3.487-.652-8.412-2.387-11.625-.193-.228-.249-1.104-.098-1.467.617-1.481-.463-2.207-.304-3.619.14-1.245-1.32-1.954-.819-3.802.4-1.478-.921-2.554-.09-4.153l-1.033-3.01c.416-1.51.44-3.456.033-4.952-.503-2.501.12-5.099-.905-7.481-.085-.469-.035-1.102.098-1.6.55-2.053-.46-3.764-.009-5.776-.931-.9.25-2.642-.268-3.524-.514-.874.024-2.182-.548-2.976-.081-2.17.439-4.572-.309-6.65-.56-2.078-1.773-1.633-2.15.421-4.232.236-8.586-1.344-12.923-1.736-5.002 6.319-4.938.007-6.413 1.688-1.07 1.205-1.922.138-2.875.27-.862-2.373-2.853-1.179-4.393-1.83.319-2.916-1.69-3.428 1.077-5.602 2.11.036 4.246 1.47 6.461.365 1.092-.879 2.166.02 3.258.031.78-1.837 1.884-.299 2.783-1.14 2.068-2.3 3.473 2.413 5.267.665 2.633-2.649 5.286.719 7.442-1.649.555.231 1.261-.202 1.692.615.153.29.189 1.241.71.43.683-1.418-.647-2.435-.026-4.081 1.021-2.529-.426-4.032.268-6.396-.773-.982-.484-2.362-.144-3.585.358-1.291-.564-1.832-.332-3.048.197-1.036.648-2.151.189-3.219-.544-1.421.413-3.342.325-4.854-.043-1.006-.602-1.829-.23-3.047.353-1.157-.692-1.732-.296-3.041.571-2.539.801-5.27 1.285-7.866-1.045-2.505-1.045-2.505-.795-4.903-1.681-1.4-4.107-.84-6.072-1.448-.773 1.136-1.679.521-2.44.89-.995.482-.897-2.615-2.018-.716-1.869.444-3.633-1.357-5.416.336-.033.045-.294-.291-.442-.462-1.863-2.455-4.243.43-6.289-.392-1.067.025-2.087-.904-3.23.59-.256.334-1.256.163-1.382-.23-.44-1.376-1.332-1.243-2.124-1.506-.923-2.867-4.575.493.017-6.378 1.57-1.792 1.985 1.841 3.072.36 2.683-1.023 5.211 2.1 7.949-.212 1.174.185 2.562.106 3.662.65 1.07.558 1.908-.897 2.847-.767 2.561-.095 5.115 1.896 7.671.262.524-.479 1.333-.155 1.911.742 1.901 2.599 4.148-2.113 2.927-4.7.113-1.437.765-2.982-.118-4.155.402-1.36.202-2.84 1.146-4.159.87-1.216.713-3.172 1.007-4.776l-1.048-2.334 1.29-8.09-1.911-2.675c-.232.045-.696 1.077-1.42 1.683-3.109-.082-6.235-1.972-9.433-.828-1.081.874-2.162-.115-3.26.005-.436.047-.915 1.39-1.322.85-1.82-2.407-4.386-1.379-6.552-2.152-.961-1.844-2.56-1.422-3.937-1.807-2.2-1.656-3.932-3.836-5.108-7.123l.537-3.367c3.214-3.934 2.688.949 4.702 1.303.616 2.889 2.473 2.587 4.137 3.109.347.823.944 2.46 1.65 2.382 1.246-1.394 2.398-.422 3.587-.6 1.922-1.192 3.83-.378 5.762-.172.926 2.992 1.573-.003 3.095.488 1.823-.006 3.663 1.296 5.482.34 1.802-1.978 1.89 1.362 3.618 1.004 1.371-7.804 1.266-15.03 2.859-22.796.295-3.26 1.754-6.544.823-9.784l1.758-11.026c.831-.562 1.717-.49 1.896.025.473 1.358 1.426 1.021 2.161 1.506.364.855-.058 1.805-.209 2.675-.29 1.663.694 2.913.07 4.754-1.986 8.548-1.946 17.07-3.352 25.521-.138 1.242-.77 2.614.034 3.652-.179 1.642-.365 3.29-.589 5.267m203.571 40.391c-2.491.442-4.69-1.672-7.302.098-1.169.291-2.82-.408-4.023-.608-.83-.484-1.358 1.008-2.1.87-2.164-.021-4.437-1.532-6.572-.597-1.79 1.265-3.398-.466-5.073.03-1.032.144-2.558 2.503-3.032.67-1.527-.091-2.95-1.652-4.614.198-.857-.111-1.713-.235-2.572-.328-.833-.09-1.527 1.32-2.472.815-.773-.414-1.782-.09-2.542-.528-.965-.555-1.59 1.625-2.47.875-2.265 3.899-2.564 9.154-3.26 13.772-.269 2.305-1.541 4.75-.39 6.959l-1.795 11.248c-1.185.474-1.938 5.838-1.582 7.213 1.56-.182.784 2.23.59 3.781-.09.681.653 1.531.873 1.088.869-1.755 1.963-.151 2.805-1.118 1.904-1.345 3.858.265 5.75.203.85-1.48 1.276-.031 2.05.306.634.358 1.558-.217 1.937.96.244.758.513.093.815-.01.998-.341 1.862-1.047 2.69-2.027 2.04-1.038.978 3.397 4.004-.717l2.456.391.154 2.255c.395-.406.831-1.094 1.006-.993 3.016.259 6.112-3.564 9.22-2.033 2.054.774 3.931-2.346 6.026-1.405 1.516.818 3.814-.437 4.709 1.896.532 1.112 1.922-1.837 2.217-1.838 2.925.192 5.365 1.679 7.946-.969 1.074-.225 2.188.122 3.27.11 1.808-2.13 3.223 1.215 5.033-1.8.296-2.557 1.116-5.608 1.261-8.193-.061-1.802 1.25-2.443 1.432-3.928.664-3.234.613-6.87 2.24-9.57-.42-6.268 1.971-12.888 2.054-19.358-.426-.068-1.051-.483-1.352-.159-1.128 1.22-2.15.684-3.218.595-.597-.05-1.448-.385-1.765.069-1.002 1.429-2.315-.563-3.142 1.449l-6.638-1.06c-.491.628-.88 1.285-1.391.101-.233-.54-1.06-.445-1.512-.602zM-6.431 142.328l1.936-12.14c2.188-2.443.836-6.621 2.875-9.02.31-.486.561-1.781.376-2.111-1.04-3.459.876-7.7 1.12-11.529-.18-.408-.413-.794-.51-1.286 1.009-1.296 1.025-1.293 1.473-5.153l-1.212-3.4c-1.99 2.043-4.176-.018-6.292.175-.883-.096-1.036-1.895-2.056-1.254-.468.316-.859.946-1.308 1.37-.636.6-1.482.242-2.027 1.306-.303-1.667-1.987-1.405-2.95-1.647-1.389.195-1.16 1.588-2.354-.315-1.225.313-2.345 1.804-3.223-.173-.184-.322-.813-.571-.901-.424-.601 1.007-1.425.627-2.066 1.258-1.81 1.96-1.89-1.3-3.058-.385-1.208.503-2.161.654-2.704-.302-.733-1.294-1.77-.801-2.646-1.181-1.276 1.802-2.608.5-3.922.52-.523-.216-.924.305-1.395.567-1.032.557-2.213-.517-3.183.737-.26.219-.821.198-.97-.07-1.122-2.023-2.856-1.23-4.372-1.43-1.512 1.754-3.052.035-4.727.178-.65 2.248-.34 4.731-1.817 6.345-.229.25-.383 1.243-.258 1.614.66 1.958-.344 4.912 1.258 6.107l-1.82 11.415 1.102 2.605c-.09 1.486-.909 3.015-.093 4.295-.147 1.284-.257 2.573-.45 3.851-.22 1.461.772 2.503.14 4.173-.887 2.253-.47 4.61.102 6.64 1.492.238 2.997.326 4.426.76.922.281 1.527-1.435 2.484-.877.758.442 1.698.336 2.558.473 2.732-1.792 5.372-.128 7.878.327.313.332.393 1.391 1.005.415.478-.762 1.12.022 1.657-.982 1.28-3.068 1.758-.172 2.171 1.113.486.077.63.179.728.104 2.396-2.083 4.891-1.748 7.268-1.138l1.836-2.016c1.201.437 2.925-.06 3.866.982l-.115 3.254c1.078-1.439 1.977-2.048 3.136-2.581.972-1.019 1.909.453 2.793-1.129.774 1.556 1.948 1.325 2.95 1.382.516-.572.84-.928 1.29-1.423m14.45 1.664c.588-.831 1.443-.579 1.982-1.225.794-.953 1.49-.044 2.133-.488.588-.407 1.07-1.01 1.742-.774 1.433-.089 1.884 2.054 3.545 1.503 1.836-1.78 3.663.79 5.678-1.127 3.425-.059 7.14 2.292 10.545.523.997.013 2.027.076 2.937.49 1.028.467 1.85-1.076 2.846-.799 1.026.285 2.103.753 3.206-.557 2.166.869.525 4.83 5.132-.365 1.211.108 2.264.497 3.446.359 1.442-9.047 2.83-17.841 4.26-26.627.229-1.402.08-3.105 1.313-3.966l-.471-1.4c.294-3.354 1.67-7.387 1.383-10.57l-8.258-1.316c-2.075 3.545-3.577.09-5.628 2.423-.118.169-.643.088-.693-.095-.39-1.859-4.357-2.359-5.312-.822-1.18-.08-2.5-.624-3.658-.45-2.123 1.909-4.349-.161-6.535-.017-2.03-.041-5.054 3.408-6.624.654 1.158-1.366.498-1.457-.095-2.829L19.57 97.97l.583 1.456c-1.776 1.011-1.673-2.874-3.476-.172-.776-.614-1.335 1.13-2.086.824-.769-.314-1.76.207-2.228-1.238-.522-1.588-2.036 1.781-2.554.203-.39-1.236-1.17-1.003-1.18-1.005l-2.85 1.997c-.661 2.058-.369 3.813-1.62 4.653l-1.117 6.71c1.101 2.058-.303 5.038-.443 7.524-.828 3.175-.341 7.144-2.252 9.611-.28.254-.504 1.757-.308 2.101.874 1.453-.545 9.831-1.653 11.105-1.044 2.954.702 1.786 1.972 1.13.865.039 1.712.239 3.093.459l1.122-2.031 2.407.384zm-67.62-45.39-1.186-2.466c-1.598-.18-1.598-.18-2.334 1.726-1.17.2-2.294-.002-3.121-1.249-.736 1.494-1.813.025-2.406.889-.884 1.287-1.75-.055-2.47.794-2.647 1.558-5.337-.543-8.023-.47-.647.68-1.294 1.358-1.913 2.005-3.429-.06-6.792-2.224-10.228-.477-.345.492-2.315-.748-3.05-.445-2.085 2.07-3.722-.455-5.924.606-.307 3.566-1.785 7.171-1.01 10.735.229.802-.396 2.208-.446 3.319-.046 1.021.234 2.003.227 3.028-.009 1.576-.989 3.326-.025 4.726-.192 1.303-.396 2.606-.574 3.911-.172 1.261.773 2.154.199 3.595-.194.485-.376 1.507-.257 1.612 1.199 1.069-.323 3.298.559 4.549.517.734-.516 2.154.056 3.089.652 1.468-.326 3.578-.41 5.196.921 1.841.922 1.841 3.025 2.135 1.32-1.474 2.904-3.116 3.881-.67.16.424.883.398 1.365.395 1.2-.006 2.282.933 3.617-.028 1.382-.996 2.641.224 3.989.064 1.698-1.82 1.775-.733 2.18 1.489.8.815 1.913-.461 2.79-.606 1.348.003 2.68.467 4.042.505.793-1.617 1.854-.342 2.783-1.137 1.077-.92 2.189-.731 2.947.498.359.582.567.265.826-.079.52-.689 1.179-.06 1.739-.901.422-.634.92-1.511 1.924-1.272-.175 1.797 1.53.763 1.82 2.367 1.354.89 2.488-2.404 3.735.727.246.538 1.074.225 1.21-.53.43-2.162 1.6-.602 2.753-2.81.946-2.504-.179-4.381.316-6.785.289-1.277.403-2.425-.11-3.65-.285-.679.429-1.989-.061-3.105-.362-2.415.852-5.599 1.016-8.254-1.025-1.338.324-3.393-.112-4.63-.66-1.87.132-3.591.238-5.367-.97-3.315.67-7.135.925-10.549-1.606-3.15-1.51-6.542-4.502-2.48m123.054-5.368c1.478-1.93 2.04-.79 3.3-1.074 2.537-1.629 4.82.02 7.264.073 4.176 1.372 4.548-2.709 9.696-.763 2.158-2.619 4.292 1.256 6.407-1.245.104-.14.598.319.882.565.174.15.393.643.421.612 1.54-1.73 2.889-.224 4.32-.29 2.686.876 5.244-.771 7.957-.15.97-1.451 1.9-.41 3.085-.484l1.504-2.035c1.25.316 2.464-.006 3.071 1.638.066.177.571.198.685.023 1.548-1.828 3.395-.09 5.06-.235 1.345-1.376 2.626-.65 3.928-.537.887-.73 1.605-1.44 2.431-.696.952.605 1.597-1.404 2.478-.834.837.541 1.397-.607 2.163-1.356-.013-3.458 6.424-31.882 3.647-29.956-2.161 2.72-3.001-1.582-5.26-.79-1.186 1.477-2.577 2.864-3.535.876-.215-.371-.244-.474-.541-.149-1.253 1.474-2.567-.482-3.856 1.301-.664.269-1.265-2.14-2.032-1.23-1.606 1.533-3.413.139-5.064.117-3.127 1.422-7.047 2.728-9.73 0-.183-.445-.257-.494-.551-.052-.665 1-1.668.486-2.369 1.646-1.676 2.872-1.887-2.643-3.72.437-7.945-1.331-15.999.653-24.002-1.518-1.047 1.788-2.048 3.602-2.047 5.92 0 1.385-1.061 1.657-1.227 2.793-.348 1.339-.188 3.349-.946 4.289-.713.518-.44.985-.203 1.637.308 1.998-1.52 2.117-1.376 5.99.938 3.783-1.448 10.362-1.84 15.477m-34.418-.093c1.674 1.127 3.013-.926 4.613-.431 3.114.178 6.402 2.026 9.448.375 1.353 0 2.605.924 3.984-.147 1.098-.754 2.927.637 3.948.064 2.443-1.796 4.61.863 7.138-1.226 2.888-6.11 2.987-14.233 4.313-21.157.045-1.703 1.357-2.29 1.454-3.921.088-1.488.461-2.993.68-4.495.21-1.435-.757-2.524-.127-4.173.23-.604-.488-1.312-.98-.857-1.852 2.143-3.73-1.004-5.67 1.292-.074.085-.252.012-.36-.052-1.813-3.029-1.26.08-3.812-.574-1.794 1.724-4.204.321-6.12.097-.846-.413-1.347 1.048-2.102.889-1.092-.232-2.202-.366-3.28-.538-.854-2.59-1.287-.678-2.724-.489-1.285-2.173-2.774.934-4.439.536-2.263-.134-4.631-1.556-6.918-.446-3.422 1.917-2.205-3.995-5.648.717-1.698-.533-3.506.125-4.709-1.388-.453-.889-.985-.881-1.548-.072-.86 1.238-1.76 1.658-2.777 1.173l-1.252 1.376-1.082 4.903c-1.13.998-.856 2.684-1.207 4.064 1.071 1.793-.066 3.875-.185 5.824-2.333 3.448-2.189 12.048-3.416 16.754l.83 1.847 2.326.372c2.573-3.364 2-1.9 3.734.425 1.469-1.395 3.189-.435 4.602.06.518 1.58 1.703.918 2.592 1.278l1.912-2.008c.777.124 1.56.08 2.239.4.947.323 1.988-2.025 2.578-.215.096.526-.479 1.437.287 1.588zM.452 92.047c2.073-1.209 1.084-4.174 2.785-5.946.285-.241.542-1.77.353-2.1-.758-1.325-.336-2.808-.024-4.209.467-2.094.124-4.579 1.717-6.177.356-3.794 1.81-8.065 1.513-11.65-.898-1.394.462-2.072.701-3.069-1.76-1.22-4.13-.74-6.534-1.405-.518 2.581-.983-1.732-2.263.259-1.673 2.993-3.444-.37-5.222 2.01-3.214-.208-.546-3.06-4.861-.213-1.605 1.776-2.686-2.386-4.173-.871-1.021 1.38-2.313-.549-3.141 1.452-.847-.298-1.68-.307-2.457.763-1.748-.571-3.93.053-5.367-1.395.096-.863.81-3.314-.342-2.416-1.025 5.066-4.115.42-6.164 3.035-.204-.395-.408-.79-.663-1.28l-.779 1.935c-1.433.727-3.316-.797-4.724-.293-2.76 2.174-5.363-1.43-8.16 1.53-1.825 9.167-1.658 17.869-3.558 27.053 1.226 3.604 2.864 1.085 4.973.38 1.337 2.885 4.693-.004 5.97 3.312l2.099-2.199c2.87.37 5.52 1.497 8.377.135 1.382.506 2.95.4 4.401.637l1.622-1.782c1.002.614.617 2.375 1.09 3.546.959-1.752 2.33-1.988 3.556-2.772q.495 1.099.987 2.199c1.878-2.267 2.306.391 3.747.577.8-1.27 1.671-.49 2.474-.838 1.333-.743 2.785-2.489 4.049-1.146.775 1.253 3.925 2.178 5.067.467zm-98.11.518c1.36.324 3.642.342 5.1.869.931.412 1.655-.803 2.462-.785.995.021 1.967.28 2.949.437 1.104.176 2.235.235 3.305.563.992.304 1.83-1.332 2.837-.767 1.282.719 2.627-.126 3.844-1.062 2.06-2.092 2.439 2.762 4.132.178l2.932.344c2.031-2.43 4.377.894 6.439-.546 1.497-1.362 2.717.578 3.944-.496 1.475-1.216 2.584-.761 3.5.917 1.23.85 1.833-3.044.877-3.877.239-1.498.436-3.006.729-4.49.325-1.658-.59-2.874-.078-4.736.662-2.763 1.124-6.143 1.431-8.91-1.53-1.925 2.673-11.556-1.387-7.726-.832-.133-1.758-.053-2.532-.462-.941-.498-1.639.862-2.469.815-1.182-.066-2.35-.884-3.556.591-.547-.235-1.275.175-1.627-.771-1.002-2.362-2.83 2.496-3.974-1.24l-1.904 1.995-2.924-.466c-2.14 2.12-4.312-.067-6.504.092-3.088 2.584-5.948-1.77-8.952.88-1.35-.214-2.693-.486-4.056-.6-3.191 3.167-2.65-3.403-5.27 1.02-.28 3.558-1.901 7.01-.928 10.44-.239 1.498-.555 2.995-.694 4.494-.13 1.395.652 2.52.11 4.166-.396 1.204-.463 2.6-.661 3.91-.191 1.27.657 2.11.23 3.605-.311 2.396 1.142 2.96 2.695 1.618"/></mask><path fill="#82c6dd" stroke="#282828" d="M-97.857 56.712c3.676-1.916 7.178.638 10.853.495 1.235-1.584 2.386-.402 3.575-.475 2.707-2.658 5.3 1.646 7.875-.963 1.809-.21 3.733 1.584 5.43-.32.909-.36 1.32 2.447 2.383 1.011 1.225-1.42 2.383-2.732 3.476-.334.196.43 1.054.659 1.349.355 1.41-1.456 2.648-.399 3.96-.49.954-.067 1.808.935 2.885-.22.83-.889 1.796.415 2.487-.16.699-.581 1.427-.589 2.153-1.249 1.212-5.779 1.25-12.099 3.232-17.577 1.048-1.67.8-3.956 1.273-5.928.995-.707 1.12-2.048 1.31-3.34 2.728-3.467 1.081-10.546 3.582-14.218.655-1.636.797-4.089 1.237-5.935 1.604-1.507.599-4.322 2.479-5.58 1.074.962 2.7 1.831 2.162 4.341-.618 2.735-.5 5.475-1.958 7.943-.795 1.279-.186 3.666-1.512 5.094-.767 2.606-1.098 6.059-1.518 8.872-.16 1.6-1.404 2.228-1.456 3.924-.6 8.043-4.196 15.542-4.197 23.641 1.175-1.57 2.544-.422 3.842-.494.917-1.311 1.936-1.033 2.81-.649 1.03.453 1.86-1.077 2.848-.79 3.224.997 6.571.8 9.799.265 1.413-1.42.944.624 1.992.465 2.851-2.577 5.484 2.024 8.118-2.142 3.195-.043 6.67 2.484 9.789.21 1.954-1.57 3.867.073 5.828-.052.588.059 1.064-1.343 1.706-.833 1.66 2.983 4.396 1.308 6.653-.1.472-.13 1.22.52 1.362-.258.229-1.26 1.172-1.633 1.317-2.718.165-1.234.779-2.556.127-3.726-.137-8.781 4.788-17.421 4.104-26.07-.343-1.251.139-2.456.953-3.333.758-.819 1.595-.947 2.274.112 4.653 2.951-2.097 15.316-.214 20.947-.509 1.708-.022 3.814-1.406 5.208-.872 2.612-1.082 6.447-1.59 8.832l.733 2.269c.984-1.48 2.143-.62 3.287-.826.796-1.32 1.647-.725 2.47-.616 1.358.18 2.783.153 4.039.713 1.266.565 2.385-.95 3.592-.7.91.188 1.896.93 2.825-.6 3.915.465 7.916 1.281 11.78 1.793 1.187-2.154 2.64.365 3.881-1.309 1.78-1.95 2.146 3.041 3.784.438 1.976.24 4.713-2.345 6.072.682.087.296.677.227 1.046.25 2.738-1.906 5.753 1.1 8.518-1.423.004-2.257 2.175-3.736 1.518-5.993-.899-1.813.394-3.244 1.035-4.846.509-2.094.26-4.524 1.756-6.166 1.088-4.942.883-10.056 3.031-14.682.943-1.669.094-4.545 1.755-6.142.626-3.74 1.252-7.477 1.837-11.222 2.284-3.806 3.47.349 4.71 3.416-.371 1.32.038 3.575-1.468 5.03-.474 2.14-.723 4.502-1.119 6.71-2.543 3.205-1.17 9.575-3.544 12.915-1.084 3.897-.453 8.471-2.666 11.792l-1.603 10.05c1.688.714 1.687.733 3.142.155 1.254-.66 2.702.275 4.016.24 2.73-2.795 5.68 1.885 8.608-.89l3.67.399c2.18-2.593 8.978 2.472 11.229-.226 1.67-.402 3.409 1.415 5.077-.005.709-.89 1.439-.12 2.15-.072.754.05 1.26-1.314 2.106-.905 2.084.185 4.46 1.631 6.558.285 1.909-1.03 4.336 1.775 6.113-.307.941-.097 1.991.604 2.859-.367.685-.754 1.138-.508 1.509.368.612 1.442 1.252.262 1.882-.368l2.216.352 2.271-2.501c.373-5.421 2.854-3.59.542-8.02.49-1.986.32-4.964 1.657-6.554.322-.422.438-1.408.455-2.112.021-.852-.69-1.375-.346-2.475.23-.734.145-1.372-.118-2.052-.378-.983-.206-2.25.455-2.986 1.071-1.19.741-2.77 1.105-4.143-.903-1.185-.379-2.831-.01-4.148.461-1.649-.588-2.582-.188-4.193.332-1.34.92-2.951.055-4.183.513-2.588.123-6.199 2.357-7.226.55-.32.816.491 1.056 1.093.689.974-.294 2.75 1.101 2.7.148.01.363.515.332.78-.188 1.62-.752 3.298.015 4.73-.495 3.635-1.44 7.417-.998 10.897-.149 4.108-2.396 8.971-1.276 12.622l-.849 5.608c1.181 3.027-.7 6.91-.895 10.354.533 1.258 1.571.595 2.343.943 2.058-2.056 4.075.11 6.148-.236 2.199-1.752 4.602.05 6.981.02 1.379-1.667 1.877-2.698 3.219-.891 1.196-1.163 2.607-.575 3.91-.532.826-1.338 1.661-.509 2.483-.493.842.016 1.539-1.374 2.475-.828.65.38 1.464.256 2.195.412.745.159 1.303-1.452 2.091-.836.856.67 1.522-1.427 2.476-.816.601.385 1.319.101 2.119-.404.849-.536 1.936.308 2.896.026 2.672-1.513 5.036.071 7.852.183l1.5-2.067 3.936.627 1.811-2.023c3.3 1.482 6.949-2.245 9.403 2.589 1.267 2.688-3.745 5.466-5.125 5.05-1.59-1.189-3.037.675-4.67.409-.707-.25-1.47-.263-2.208-.38-1.208 1.475-2.376.62-3.566.617a38 38 0 0 0-3.091 1.698c-1.936.557-4.261-1.695-6.178-.377-.773.958-1.455-.016-2.133.475-1.452 1.679-3.134-.12-4.698.29-1.051.107-2.118 1.136-3.194.588-.737-.375-1.268 1.275-2.099.857-.671-.337-1.462-.28-2.2-.397-1.247 2.155-2.894-.462-4.215 1.587-.193.297-1.195.104-1.351-.312-1.017-2.632-2.028-.174-3.132.802-1.125-.025-2.843-.86-3.895-.224-1.554 1.207-2.866-.01-4.376.095-.677.547-1.249 1.497-1.891.361-.72-1.644-2.009 2.234-3.223-1.05-1.453.551-2.179 3.617-3.939 2.674-.786 4.93-1.448 9.43-2.242 13.901-.343 1.932-.079 4.217-1.597 5.64-.309 1.867-.639 3.732-.905 5.605.547 1.281.721 3.12-.482 4.33-.607.84-.506 2.64.415 1.355 3.664-2.597 6.607-1.768 10.035-1.156.811.092 1.647.808 2.493-.506 1.409-.344 2.963.4 4.389.47 1.208-1.425 2.386-.752 3.563-.577.848.126 1.531-1.334 2.475-.828.774.414 1.704.33 2.565.468.789-1.838 1.892-.28 2.786-1.104.31-.285.788-.694 1.002-.547.914.624 1.653-1.065 2.471-.795 1.306.43 2.61.148 3.937-.546 1.278.916 2.648-1.226 3.932-.527.785-.931 1.607-1.12 2.457-.763 1.641-2.014 3.623-.138 5.399-.294 1.586-2.278 3.618-1.875 6.152-3.603.18-.082.592.207.584.355-.115 2.272 1.047 3.426 1.617 5.082-.856 1.277-1.321 2.795-2.344 3.636-1.077-.7-2.115.922-3.184.754-1.973-.765-3.755.06-5.686 1.296-.557.465-1.474.005-2.17-.274-.892-.357-1.529 1.41-2.486.856-1.505-.603-3.465-.472-4.99-.86l-1.835 2.016c-1.521.013-3.065-1.257-4.625.313-.497.553-1.332-.512-2.104.532-.7.95-1.69-.626-2.449.845-.863-.58-1.575-2.074-2.714-.667-.893.936-1.988-.454-2.781 1.171-1.493.17-2.874-1.179-4.35.102-1.513.95-3.17-.379-4.74-.311-1.214 1.809-2.376.407-3.564.607-1.477 1.156-3.351.583-4.754.376l-2.509 2.756c-.917 3.716-.647 8.582-2.448 11.851-.327.379-.633 1.616-.482 2.027.779 2.122-.093 4.3-.311 6.45-1.877 3.419-1.759 7.473-2.542 11.239-.261 1.258-1.345 1.8-1.335 3.362-.206 2.091-1.373 6.798 1.332 3.715 1.018 2.796 1.648 3.292 3.585.706 1.156-.156 2.412.576 3.561.357.809-.179 1.6-1.185 2.458-.69 1.602-2.232 3.428.787 4.919-1.472.746 2.093 2.353 1.187 3.549 1.672l1.837-2.019c2.172 1.057 4.224-1.846 6.546-1.34 1.019.236 2.032.904 3.243-.07 1.096-.881 2.166.021 3.258.027 1.654-2.185 3.089.175 5.137-.955l.222-.243c1.476 1.797 1.779.841 3.241-.775.978-.408 1.873.932 2.88-.37.757-.978 1.704.575 2.446-.84 2.23-.052 4.137-2.474 6.351-1.68.597-.017 1.21-1.534 1.675-.805.782.999 1.825 1.414 2.232 2.993-1.18 2.561-3.336 2.519-4.734 4.524-.603.303-1.59-.683-2.097.514-1.031 2.157-2.698.381-3.774 2.113-2.394-.943-4.325 1.117-6.828.066l-1.38 2.089-3.959-.631c-1.659 2.165-3.089-.197-4.642.57-1.081.917-2.148.863-3.219.465-1.692.215-3.187 2.374-4.926 1.57-.803-.423-1.519 1.311-2.467.795-1.394-.223-4.663-1.668-5.765.119-1.075-.881-2.119 1.039-3.187.717-2.717 2.233-6.159-.542-9.021-.299-1.026 1.061-1.886 2.602-3.148 1.807-3.019 2.195-2.127 8.895-3.395 12.91-.255 1.388.765 2.1.252 3.621-1.303 4.41-.894 8.784-1.381 13.14 1.147 1.899-.702 4.405.539 6.099l-1.431 8.976 1.121 2.467c-.402 1.828-.879 5.693.518 6.456.465-.022.622.426.543 1.047-.126 1.426-2.234 3.271-2.47 1.513.232-2.367-1.157-4.118-.505-6.629-1.56-4.595-1.923-9.622-1.362-15.137-1.488-5.574.671-8.197-.034-13.123-.425-1.231.837-3.215-.078-4.698.516-4.672 1.594-9.788 2.296-14.779-.2-.538-1.032-1.863-1.449-1.755-1.843 2.261-3.998-.823-5.722.613-.986 1.222-2.006-.455-2.834 1.087-2.655 1.077-5.221-2.106-7.938.244-1.635-.349-3.462.029-4.585-2.058l-2.669 3.21c-1.928.074-3.043-1.437-4.722.051-.626.894-1.405-.484-2.113.497-.284.395-.48.534-.822.024-.945-1.589-2.37-.927-3.654-.088-1.225-.055-2.442-.175-3.661-.273-1.277 1.566-2.429.37-3.585.22-1.01-.131-1.827 1.329-2.852.827-.784-.384-1.705-.311-2.565-.442-1.365 1.809-2.628.45-3.934.494-3.177 1.189-6.164-.671-9.461 1.128l-.79 4.955c-.473 1.493-1.398 1.464-.898 2.505.48 1 .282 2.395-.253 3.02-1.297 1.515-.925 3.503-1.412 5.216.755 1.843.372 5.557-1.108 6.948-.07 1.792-.91 3.479-.393 5.435.434 1.645-.154 3.148-1.176 5.6-.264.632-.623 1.633-.482 2.066.742 2.364-.758 14.884-2.837 8.053.124-1.888 1.22-4.315.163-5.764.387-1.082-.292-1.654-.323-2.477.441-2.6.349-5.85 1.957-7.878-.093-4.818.846-10.208 1.698-15.38-1.17-3.323.778-3.625 1.124-6.953-1.956-3.023 2.294-4.959.327-6.352-.72-.105-1.5-.687-1.943.833-4.337-1.026-8.312.444-12.566-.828-1.927 1.298-3.678 2.226-5.65 1.411-1.06-.018-2.088-.989-3.23.443-2.44.665-5.282-2.124-7.62.005-.121.172-.8-.088-.895-.412-.377-1.275-1.238-.839-1.906-1.079-2.049 2.135-4.676-.05-6.878.02-.993-.253-1.78 1.605-2.861.81-8.313-2-10.42-1.579-12.37 12.065 1.536 4.122-2.812 13.407-1.307 17.343-.385 1.928-.06 4.163-1.571 5.621-.15.144-.256.984-.182 1.047 1.206 1.035-.376 3.39.6 4.495 1.186 6.504 2.108 14.997 5.788 18.884.587.571 1.313.687.94 2.18-.028.112.125.431.184.414 1.259-.354 1.715 1.589 2.798 1.714.48.054 1.05-.009.98 1.043-.722 3.19-2.988 2.077-4.412 1.873-.785-3.559-4.606-3.169-4.66-6.277.225-3-2.376-2.359-1.61-4.481-.627-1.659-1.6-2.95-1.628-5.079-.203-1.803-2.072-2.883-1.288-5.222.14-1.854-1.58-2.693-.71-4.923-.639-6.978-.256-14.737 1.272-22.02.406-1.316-.48-1.928-.303-3.044 1.026-3.781.451-8.942 2.639-11.801.72-2.242-.358-3.617-1.014-5.387-.652 1.445-1.785.571-2.413 1.783-1.434-.108-2.906.18-3.89-1.297-.67 1.158-1.496.906-2.091.524-.957-.615-1.566 1.381-2.494.871-.877-.296-2.01-.827-2.854.253-1.94.94-1.142-3.12-4.141-.264-2.842.79-5.48.441-8.335.069-.824 1.346-1.665.545-2.477.473-.677-.178-1.31-2.216-2.034-1.006-1.418 1.04-2.678 1.572-4.246 1.211-.717.026-1.42-.736-2.148.185-1.581 1.162-3.403-.264-4.952-.172-1.91 1.554-2.116 4.866-1.635 7.539.318 1.085-.755 2.821.002 4.202.204.373-.092 1.412-.194 2.142-.288 1.513.286 3.093.533 4.475.462 1.035-.522 2.286.02 3.144.5.792.026 1.792.141 2.569-.08 1.784 1.073 3.715.477 5.394-1.342 1.421-.255 1.19.245 1.782 1.651 1.768.455 5.555 1.478 7.701.534 1.498.582 3.304.697 4.953-.203 8.252 5.715 5.95 3.905 12.106-1.498.561-3.187-.421-4.693-.431-.41-3.613-2.236-6.061-3.407-9.14.17-1.27.511-2.573-.222-3.581-.917-3.494-1.278-7.511-1.996-11.196-.227-1.32-.663-2.602-.11-4.155.006-2.789-.907-5.569-1.06-8.452-.928-.901.222-2.623-.266-3.53-.564-1.047-.244-2.124-.01-3.15.354-1.537-.645-2.576-.148-4.178.32-1.028-.677-1.717-.274-3.028.32-1.041.384-2.213.547-3.233-1.725-4.34-.803.246-6.183-1.563-1.271 1.621-1.376 1.026-2.36-.149-1.724 2.117-3.55-1.218-5.329 1.169-2.667.072-5.39-1.762-8.03-.473-2.004 1.298-2.889-1.613-4.626-1.407-1.493 2.388-3.159 1.892-4.92 1.433-.86-.201-1.518 1.277-2.48.856-.845-.369-1.885-.948-2.81.573-.87-.394-1.998.368-2.657-1.095-.406-.901-1.296-1.067-1.949-.273-.796.97-1.441.157-2.176.482-.99 1.964-.899 4.746-1.421 7.019.943 1.601.025 3.505-.066 5.28.45 3.577 1.369 6.14.64 10.146l1.12 1.619c-.042 2.163-.955 3.939.041 5.284-.812 2.695.634 4.567.433 7.195.355 6.68 1.215 13.877 3.338 19.499 1.58 4.127 1.79 9.864 4.889 12.565.673.458.733 1.992 1.735 2.324.978.324 1.59-1.614 2.469-.927 1.673-2.075 3.69.582 5.586-1.13.24 1.279-.248 2.537-.407 3.762L-84 227.518c-1.05-.065-2.116-.8-3.18.646l-4.392-.786c-.562-1.809-2.286-1.276-2.921-3.259-1.407-3.821-3.21-7.482-4.903-10.999-1.402-3.487-.652-8.412-2.387-11.625-.193-.228-.249-1.104-.098-1.467.617-1.481-.463-2.207-.304-3.619.14-1.245-1.32-1.954-.819-3.802.4-1.478-.921-2.554-.09-4.153l-1.033-3.01c.416-1.51.44-3.456.033-4.952-.503-2.501.12-5.099-.905-7.481-.085-.469-.035-1.102.098-1.6.55-2.053-.46-3.764-.009-5.776-.931-.9.25-2.642-.268-3.524-.514-.874.024-2.182-.548-2.976-.081-2.17.439-4.572-.309-6.65-.56-2.078-1.773-1.633-2.15.421-4.232.236-8.586-1.344-12.923-1.736-5.002 6.319-4.938.007-6.413 1.688-1.07 1.205-1.922.138-2.875.27-.862-2.373-2.853-1.179-4.393-1.83.319-2.916-1.69-3.428 1.077-5.602 2.11.036 4.246 1.47 6.461.365 1.092-.879 2.166.02 3.258.031.78-1.837 1.884-.299 2.783-1.14 2.068-2.3 3.473 2.413 5.267.665 2.633-2.649 5.286.719 7.442-1.649.555.231 1.261-.202 1.692.615.153.29.189 1.241.71.43.683-1.418-.647-2.435-.026-4.081 1.021-2.529-.426-4.032.268-6.396-.773-.982-.484-2.362-.144-3.585.358-1.291-.564-1.832-.332-3.048.197-1.036.648-2.151.189-3.219-.544-1.421.413-3.342.325-4.854-.043-1.006-.602-1.829-.23-3.047.353-1.157-.692-1.732-.296-3.041.571-2.539.801-5.27 1.285-7.866-1.045-2.505-1.045-2.505-.795-4.903-1.681-1.4-4.107-.84-6.072-1.448-.773 1.136-1.679.521-2.44.89-.995.482-.897-2.615-2.018-.716-1.869.444-3.633-1.357-5.416.336-.033.045-.294-.291-.442-.462-1.863-2.455-4.243.43-6.289-.392-1.067.025-2.087-.904-3.23.59-.256.334-1.256.163-1.382-.23-.44-1.376-1.332-1.243-2.124-1.506-.923-2.867-4.575.493.017-6.378 1.57-1.792 1.985 1.841 3.072.36 2.683-1.023 5.211 2.1 7.949-.212 1.174.185 2.562.106 3.662.65 1.07.558 1.908-.897 2.847-.767 2.561-.095 5.115 1.896 7.671.262.524-.479 1.333-.155 1.911.742 1.901 2.599 4.148-2.113 2.927-4.7.113-1.437.765-2.982-.118-4.155.402-1.36.202-2.84 1.146-4.159.87-1.216.713-3.172 1.007-4.776l-1.048-2.334 1.29-8.09-1.911-2.675c-.232.045-.696 1.077-1.42 1.683-3.109-.082-6.235-1.972-9.433-.828-1.081.874-2.162-.115-3.26.005-.436.047-.915 1.39-1.322.85-1.82-2.407-4.386-1.379-6.552-2.152-.961-1.844-2.56-1.422-3.937-1.807-2.2-1.656-3.932-3.836-5.108-7.123l.537-3.367c3.214-3.934 2.688.949 4.702 1.303.616 2.889 2.473 2.587 4.137 3.109.347.823.944 2.46 1.65 2.382 1.246-1.394 2.398-.422 3.587-.6 1.922-1.192 3.83-.378 5.762-.172.926 2.992 1.573-.003 3.095.488 1.823-.006 3.663 1.296 5.482.34 1.802-1.978 1.89 1.362 3.618 1.004 1.371-7.804 1.266-15.03 2.859-22.796.295-3.26 1.754-6.544.823-9.784l1.758-11.026c.831-.562 1.717-.49 1.896.025.473 1.358 1.426 1.021 2.161 1.506.364.855-.058 1.805-.209 2.675-.29 1.663.694 2.913.07 4.754-1.986 8.548-1.946 17.07-3.352 25.521-.138 1.242-.77 2.614.034 3.652-.179 1.642-.365 3.29-.589 5.267Zm203.571 40.391c-2.491.442-4.69-1.672-7.302.098-1.169.291-2.82-.408-4.023-.608-.83-.484-1.358 1.008-2.1.87-2.164-.021-4.437-1.532-6.572-.597-1.79 1.265-3.398-.466-5.073.03-1.032.144-2.558 2.503-3.032.67-1.527-.091-2.95-1.652-4.614.198-.857-.111-1.713-.235-2.572-.328-.833-.09-1.527 1.32-2.472.815-.773-.414-1.782-.09-2.542-.528-.965-.555-1.59 1.625-2.47.875-2.265 3.899-2.564 9.154-3.26 13.772-.269 2.305-1.541 4.75-.39 6.959l-1.795 11.248c-1.185.474-1.938 5.838-1.582 7.213 1.56-.182.784 2.23.59 3.781-.09.681.653 1.531.873 1.088.869-1.755 1.963-.151 2.805-1.118 1.904-1.345 3.858.265 5.75.203.85-1.48 1.276-.031 2.05.306.634.358 1.558-.217 1.937.96.244.758.513.093.815-.01.998-.341 1.862-1.047 2.69-2.027 2.04-1.038.978 3.397 4.004-.717l2.456.391.154 2.255c.395-.406.831-1.094 1.006-.993 3.016.259 6.112-3.564 9.22-2.033 2.054.774 3.931-2.346 6.026-1.405 1.516.818 3.814-.437 4.709 1.896.532 1.112 1.922-1.837 2.217-1.838 2.925.192 5.365 1.679 7.946-.969 1.074-.225 2.188.122 3.27.11 1.808-2.13 3.223 1.215 5.033-1.8.296-2.557 1.116-5.608 1.261-8.193-.061-1.802 1.25-2.443 1.432-3.928.664-3.234.613-6.87 2.24-9.57-.42-6.268 1.971-12.888 2.054-19.358-.426-.068-1.051-.483-1.352-.159-1.128 1.22-2.15.684-3.218.595-.597-.05-1.448-.385-1.765.069-1.002 1.429-2.315-.563-3.142 1.449l-6.638-1.06c-.491.628-.88 1.285-1.391.101-.233-.54-1.06-.445-1.512-.602zM-6.431 142.328l1.936-12.14c2.188-2.443.836-6.621 2.875-9.02.31-.486.561-1.781.376-2.111-1.04-3.459.876-7.7 1.12-11.529-.18-.408-.413-.794-.51-1.286 1.009-1.296 1.025-1.293 1.473-5.153l-1.212-3.4c-1.99 2.043-4.176-.018-6.292.175-.883-.096-1.036-1.895-2.056-1.254-.468.316-.859.946-1.308 1.37-.636.6-1.482.242-2.027 1.306-.303-1.667-1.987-1.405-2.95-1.647-1.389.195-1.16 1.588-2.354-.315-1.225.313-2.345 1.804-3.223-.173-.184-.322-.813-.571-.901-.424-.601 1.007-1.425.627-2.066 1.258-1.81 1.96-1.89-1.3-3.058-.385-1.208.503-2.161.654-2.704-.302-.733-1.294-1.77-.801-2.646-1.181-1.276 1.802-2.608.5-3.922.52-.523-.216-.924.305-1.395.567-1.032.557-2.213-.517-3.183.737-.26.219-.821.198-.97-.07-1.122-2.023-2.856-1.23-4.372-1.43-1.512 1.754-3.052.035-4.727.178-.65 2.248-.34 4.731-1.817 6.345-.229.25-.383 1.243-.258 1.614.66 1.958-.344 4.912 1.258 6.107l-1.82 11.415 1.102 2.605c-.09 1.486-.909 3.015-.093 4.295-.147 1.284-.257 2.573-.45 3.851-.22 1.461.772 2.503.14 4.173-.887 2.253-.47 4.61.102 6.64 1.492.238 2.997.326 4.426.76.922.281 1.527-1.435 2.484-.877.758.442 1.698.336 2.558.473 2.732-1.792 5.372-.128 7.878.327.313.332.393 1.391 1.005.415.478-.762 1.12.022 1.657-.982 1.28-3.068 1.758-.172 2.171 1.113.486.077.63.179.728.104 2.396-2.083 4.891-1.748 7.268-1.138l1.836-2.016c1.201.437 2.925-.06 3.866.982l-.115 3.254c1.078-1.439 1.977-2.048 3.136-2.581.972-1.019 1.909.453 2.793-1.129.774 1.556 1.948 1.325 2.95 1.382.516-.572.84-.928 1.29-1.423Zm14.45 1.664c.588-.831 1.443-.579 1.982-1.225.794-.953 1.49-.044 2.133-.488.588-.407 1.07-1.01 1.742-.774 1.433-.089 1.884 2.054 3.545 1.503 1.836-1.78 3.663.79 5.678-1.127 3.425-.059 7.14 2.292 10.545.523.997.013 2.027.076 2.937.49 1.028.467 1.85-1.076 2.846-.799 1.026.285 2.103.753 3.206-.557 2.166.869.525 4.83 5.132-.365 1.211.108 2.264.497 3.446.359 1.442-9.047 2.83-17.841 4.26-26.627.229-1.402.08-3.105 1.313-3.966l-.471-1.4c.294-3.354 1.67-7.387 1.383-10.57l-8.258-1.316c-2.075 3.545-3.577.09-5.628 2.423-.118.169-.643.088-.693-.095-.39-1.859-4.357-2.359-5.312-.822-1.18-.08-2.5-.624-3.658-.45-2.123 1.909-4.349-.161-6.535-.017-2.03-.041-5.054 3.408-6.624.654 1.158-1.366.498-1.457-.095-2.829L19.57 97.97l.583 1.456c-1.776 1.011-1.673-2.874-3.476-.172-.776-.614-1.335 1.13-2.086.824-.769-.314-1.76.207-2.228-1.238-.522-1.588-2.036 1.781-2.554.203-.39-1.236-1.17-1.003-1.18-1.005l-2.85 1.997c-.661 2.058-.369 3.813-1.62 4.653l-1.117 6.71c1.101 2.058-.303 5.038-.443 7.524-.828 3.175-.341 7.144-2.252 9.611-.28.254-.504 1.757-.308 2.101.874 1.453-.545 9.831-1.653 11.105-1.044 2.954.702 1.786 1.972 1.13.865.039 1.712.239 3.093.459l1.122-2.031 2.407.384zm-67.62-45.39-1.186-2.466c-1.598-.18-1.598-.18-2.334 1.726-1.17.2-2.294-.002-3.121-1.249-.736 1.494-1.813.025-2.406.889-.884 1.287-1.75-.055-2.47.794-2.647 1.558-5.337-.543-8.023-.47-.647.68-1.294 1.358-1.913 2.005-3.429-.06-6.792-2.224-10.228-.477-.345.492-2.315-.748-3.05-.445-2.085 2.07-3.722-.455-5.924.606-.307 3.566-1.785 7.171-1.01 10.735.229.802-.396 2.208-.446 3.319-.046 1.021.234 2.003.227 3.028-.009 1.576-.989 3.326-.025 4.726-.192 1.303-.396 2.606-.574 3.911-.172 1.261.773 2.154.199 3.595-.194.485-.376 1.507-.257 1.612 1.199 1.069-.323 3.298.559 4.549.517.734-.516 2.154.056 3.089.652 1.468-.326 3.578-.41 5.196.921 1.841.922 1.841 3.025 2.135 1.32-1.474 2.904-3.116 3.881-.67.16.424.883.398 1.365.395 1.2-.006 2.282.933 3.617-.028 1.382-.996 2.641.224 3.989.064 1.698-1.82 1.775-.733 2.18 1.489.8.815 1.913-.461 2.79-.606 1.348.003 2.68.467 4.042.505.793-1.617 1.854-.342 2.783-1.137 1.077-.92 2.189-.731 2.947.498.359.582.567.265.826-.079.52-.689 1.179-.06 1.739-.901.422-.634.92-1.511 1.924-1.272-.175 1.797 1.53.763 1.82 2.367 1.354.89 2.488-2.404 3.735.727.246.538 1.074.225 1.21-.53.43-2.162 1.6-.602 2.753-2.81.946-2.504-.179-4.381.316-6.785.289-1.277.403-2.425-.11-3.65-.285-.679.429-1.989-.061-3.105-.362-2.415.852-5.599 1.016-8.254-1.025-1.338.324-3.393-.112-4.63-.66-1.87.132-3.591.238-5.367-.97-3.315.67-7.135.925-10.549-1.606-3.15-1.51-6.542-4.502-2.48Zm123.054-5.368c1.478-1.93 2.04-.79 3.3-1.074 2.537-1.629 4.82.02 7.264.073 4.176 1.372 4.548-2.709 9.696-.763 2.158-2.619 4.292 1.256 6.407-1.245.104-.14.598.319.882.565.174.15.393.643.421.612 1.54-1.73 2.889-.224 4.32-.29 2.686.876 5.244-.771 7.957-.15.97-1.451 1.9-.41 3.085-.484l1.504-2.035c1.25.316 2.464-.006 3.071 1.638.066.177.571.198.685.023 1.548-1.828 3.395-.09 5.06-.235 1.345-1.376 2.626-.65 3.928-.537.887-.73 1.605-1.44 2.431-.696.952.605 1.597-1.404 2.478-.834.837.541 1.397-.607 2.163-1.356-.013-3.458 6.424-31.882 3.647-29.956-2.161 2.72-3.001-1.582-5.26-.79-1.186 1.477-2.577 2.864-3.535.876-.215-.371-.244-.474-.541-.149-1.253 1.474-2.567-.482-3.856 1.301-.664.269-1.265-2.14-2.032-1.23-1.606 1.533-3.413.139-5.064.117-3.127 1.422-7.047 2.728-9.73 0-.183-.445-.257-.494-.551-.052-.665 1-1.668.486-2.369 1.646-1.676 2.872-1.887-2.643-3.72.437-7.945-1.331-15.999.653-24.002-1.518-1.047 1.788-2.048 3.602-2.047 5.92 0 1.385-1.061 1.657-1.227 2.793-.348 1.339-.188 3.349-.946 4.289-.713.518-.44.985-.203 1.637.308 1.998-1.52 2.117-1.376 5.99.938 3.783-1.448 10.362-1.84 15.477Zm-34.418-.093c1.674 1.127 3.013-.926 4.613-.431 3.114.178 6.402 2.026 9.448.375 1.353 0 2.605.924 3.984-.147 1.098-.754 2.927.637 3.948.064 2.443-1.796 4.61.863 7.138-1.226 2.888-6.11 2.987-14.233 4.313-21.157.045-1.703 1.357-2.29 1.454-3.921.088-1.488.461-2.993.68-4.495.21-1.435-.757-2.524-.127-4.173.23-.604-.488-1.312-.98-.857-1.852 2.143-3.73-1.004-5.67 1.292-.074.085-.252.012-.36-.052-1.813-3.029-1.26.08-3.812-.574-1.794 1.724-4.204.321-6.12.097-.846-.413-1.347 1.048-2.102.889-1.092-.232-2.202-.366-3.28-.538-.854-2.59-1.287-.678-2.724-.489-1.285-2.173-2.774.934-4.439.536-2.263-.134-4.631-1.556-6.918-.446-3.422 1.917-2.205-3.995-5.648.717-1.698-.533-3.506.125-4.709-1.388-.453-.889-.985-.881-1.548-.072-.86 1.238-1.76 1.658-2.777 1.173l-1.252 1.376-1.082 4.903c-1.13.998-.856 2.684-1.207 4.064 1.071 1.793-.066 3.875-.185 5.824-2.333 3.448-2.189 12.048-3.416 16.754l.83 1.847 2.326.372c2.573-3.364 2-1.9 3.734.425 1.469-1.395 3.189-.435 4.602.06.518 1.58 1.703.918 2.592 1.278l1.912-2.008c.777.124 1.56.08 2.239.4.947.323 1.988-2.025 2.578-.215.096.526-.479 1.437.287 1.588zM.452 92.047c2.073-1.209 1.084-4.174 2.785-5.946.285-.241.542-1.77.353-2.1-.758-1.325-.336-2.808-.024-4.209.467-2.094.124-4.579 1.717-6.177.356-3.794 1.81-8.065 1.513-11.65-.898-1.394.462-2.072.701-3.069-1.76-1.22-4.13-.74-6.534-1.405-.518 2.581-.983-1.732-2.263.259-1.673 2.993-3.444-.37-5.222 2.01-3.214-.208-.546-3.06-4.861-.213-1.605 1.776-2.686-2.386-4.173-.871-1.021 1.38-2.313-.549-3.141 1.452-.847-.298-1.68-.307-2.457.763-1.748-.571-3.93.053-5.367-1.395.096-.863.81-3.314-.342-2.416-1.025 5.066-4.115.42-6.164 3.035-.204-.395-.408-.79-.663-1.28l-.779 1.935c-1.433.727-3.316-.797-4.724-.293-2.76 2.174-5.363-1.43-8.16 1.53-1.825 9.167-1.658 17.869-3.558 27.053 1.226 3.604 2.864 1.085 4.973.38 1.337 2.885 4.693-.004 5.97 3.312l2.099-2.199c2.87.37 5.52 1.497 8.377.135 1.382.506 2.95.4 4.401.637l1.622-1.782c1.002.614.617 2.375 1.09 3.546.959-1.752 2.33-1.988 3.556-2.772q.495 1.099.987 2.199c1.878-2.267 2.306.391 3.747.577.8-1.27 1.671-.49 2.474-.838 1.333-.743 2.785-2.489 4.049-1.146.775 1.253 3.925 2.178 5.067.467zm-98.11.518c1.36.324 3.642.342 5.1.869.931.412 1.655-.803 2.462-.785.995.021 1.967.28 2.949.437 1.104.176 2.235.235 3.305.563.992.304 1.83-1.332 2.837-.767 1.282.719 2.627-.126 3.844-1.062 2.06-2.092 2.439 2.762 4.132.178l2.932.344c2.031-2.43 4.377.894 6.439-.546 1.497-1.362 2.717.578 3.944-.496 1.475-1.216 2.584-.761 3.5.917 1.23.85 1.833-3.044.877-3.877.239-1.498.436-3.006.729-4.49.325-1.658-.59-2.874-.078-4.736.662-2.763 1.124-6.143 1.431-8.91-1.53-1.925 2.673-11.556-1.387-7.726-.832-.133-1.758-.053-2.532-.462-.941-.498-1.639.862-2.469.815-1.182-.066-2.35-.884-3.556.591-.547-.235-1.275.175-1.627-.771-1.002-2.362-2.83 2.496-3.974-1.24l-1.904 1.995-2.924-.466c-2.14 2.12-4.312-.067-6.504.092-3.088 2.584-5.948-1.77-8.952.88-1.35-.214-2.693-.486-4.056-.6-3.191 3.167-2.65-3.403-5.27 1.02-.28 3.558-1.901 7.01-.928 10.44-.239 1.498-.555 2.995-.694 4.494-.13 1.395.652 2.52.11 4.166-.396 1.204-.463 2.6-.661 3.91-.191 1.27.657 2.11.23 3.605-.311 2.396 1.142 2.96 2.695 1.618Z" mask="url(#a)"/></svg>