<svg width="59" height="59" viewBox="0 0 59 59" fill="none" xmlns="http://www.w3.org/2000/svg">
<path d="M36.8714 42.5189C36.8286 42.544 36.9997 42.3482 36.999 42.3281C36.9979 42.2423 37.109 42.099 37.1418 41.9876C37.1907 41.8222 36.7766 41.8904 38.051 40.616C38.051 40.616 38.051 40.616 38.0511 40.6159C38.0636 40.6034 38.0762 40.5908 38.089 40.5781C38.3324 40.3359 38.6122 40.0856 38.8889 39.8132C39.1658 39.5407 40.9373 37.7658 41.0579 37.687C41.2196 37.586 40.8376 38.1133 40.8739 38.1093C40.8988 38.1065 41.0736 37.9589 41.1164 37.9444C41.2542 37.8977 41.1601 38.0394 41.639 37.6425C41.4247 37.8897 41.2103 38.1368 40.996 38.384C41.1244 38.2984 40.8525 38.6352 40.8823 38.6315C40.9067 38.6283 41.0955 38.4521 41.1151 38.4548C41.1381 38.4567 40.9603 38.6728 41.0127 38.6658C41.0976 38.6553 41.5802 38.1859 41.663 38.1478C41.7487 38.1084 41.526 38.4031 41.723 38.2651C41.7791 38.2165 41.8351 38.1678 41.8912 38.1191C42.007 37.9981 42.1228 37.877 42.2385 37.7559C42.3085 37.7156 42.0722 37.9647 42.0815 37.9828C42.0923 38.0042 42.3306 37.7823 42.3404 37.7942C42.3481 37.8041 42.1757 38.0006 42.1987 38.0006C42.2314 38.0014 42.4941 37.7314 42.553 37.6905C42.5759 37.6748 42.7895 37.5943 42.7953 37.5959C42.8344 37.614 42.4723 37.9811 42.4631 38.0357C42.4393 38.1858 42.7987 37.956 42.9685 37.903C43.0444 37.8793 43.0504 37.9277 43.0181 38.012C42.0439 38.9043 41.4083 39.7212 42.8346 38.227C42.6558 38.4637 43.0705 38.09 43.0313 38.1841C43.0056 38.2453 42.8154 38.46 42.846 38.4801C42.9016 38.5143 43.5263 37.9879 42.499 39.0411C42.7351 38.9105 42.4035 39.3335 43.3408 38.4342C43.4105 38.3917 42.8984 38.9735 42.8393 39.0631C42.7838 39.1475 42.6475 39.5052 42.6518 39.5371C42.6561 39.569 42.6729 39.6157 42.7687 39.5504C42.8875 39.4699 43.8533 38.5309 42.7739 39.6785C42.9037 39.6281 42.8859 39.6741 42.7935 39.8404C42.7768 39.8704 42.6122 40.0365 42.616 40.0406C42.624 40.0486 42.7598 39.9401 42.7891 39.9396C42.8371 39.9388 42.5027 40.3001 43.0314 39.7662C43.136 39.6926 43.2407 39.6191 43.3453 39.5456C43.2482 39.6536 43.1511 39.7616 43.054 39.8696C43.1741 39.7662 43.2942 39.6627 43.4142 39.5593C42.6356 40.3184 43.1479 39.9232 43.57 39.463C43.4411 39.6523 43.3122 39.8415 43.1833 40.0307C42.3053 40.9003 43.1487 40.1977 43.6179 39.7167C43.6207 39.7208 43.6234 39.725 43.6262 39.7291C43.4241 39.9916 43.6418 39.8294 43.5228 40.0221C43.4037 40.2148 43.3152 40.2964 42.9245 40.7095C42.9561 40.6952 42.9878 40.6808 43.0195 40.6665C44.1668 39.6101 42.2511 41.5098 43.1742 40.7424C42.5065 41.4598 42.9316 41.1574 43.1822 40.988C43.2114 40.9684 43.3459 40.834 43.3936 40.7989C43.5087 40.7146 43.3752 40.9267 43.8074 40.4918C43.6956 40.6309 43.5838 40.7699 43.4719 40.909C43.5619 40.8413 43.6518 40.7735 43.7418 40.7058C43.8771 40.5704 44.0124 40.435 44.1477 40.2996C43.7088 40.7833 43.9212 40.6412 43.8283 40.7689C43.8094 40.7947 43.6235 40.9821 43.5833 41.0438C43.5354 41.1168 43.614 41.0849 43.5706 41.1582C43.7833 40.9572 43.9959 40.7562 44.2085 40.5552C44.3474 40.4698 43.8109 41.0251 43.7842 41.0832C43.7797 41.0934 43.8705 41.1058 43.8849 41.0969C44.0001 41.0273 44.4587 40.5557 44.4249 40.7212C44.4186 40.7509 44.2671 40.9213 44.2713 40.9384C44.2783 40.9687 44.6997 40.6602 45.0413 40.3274C44.642 40.7721 44.8752 40.6603 44.7711 40.8002C44.739 40.8431 44.4714 41.1131 44.4308 41.187C44.3976 41.2471 44.6475 41.0665 44.6285 41.1195C44.6074 41.1769 44.388 41.4092 44.3802 41.4333C44.373 41.4558 44.5624 41.2805 44.5718 41.292C44.598 41.331 44.3341 41.654 44.3545 41.6852C44.3833 41.7309 44.956 41.2241 45.2268 41.0156C45.1996 41.0583 45.0913 41.1818 45.0984 41.191C45.1818 41.3083 45.1956 41.5211 45.1807 41.7373C45.1744 41.8372 44.5579 42.6861 45.7495 41.4326C45.9798 41.2347 45.605 41.8457 45.6201 41.8756C45.6352 41.9054 45.8722 41.704 45.8931 41.7184C45.9559 41.7622 45.8355 41.9577 46.0912 41.8316C46.1579 41.7985 46.4356 41.5567 46.4425 41.5697C46.4502 41.5859 46.2118 41.8499 46.2114 41.8813C46.2122 41.9543 46.3636 41.9404 46.3555 42.0193C46.3535 42.0342 46.1352 42.2571 46.0755 42.3352C45.8422 42.6406 45.9059 42.6576 46.6029 41.9463C46.2493 42.3922 46.6566 42.0702 46.7217 42.0906C46.8577 42.1354 46.8581 42.4645 47.2327 42.2474C47.469 42.1104 47.7836 41.7933 47.5842 42.1389C47.54 42.2156 47.4746 42.3133 47.4222 42.4051C47.2986 42.6209 46.7575 43.2466 47.4958 42.5788C47.3647 42.8124 47.5348 42.7239 46.9716 43.3631C47.1203 43.2234 47.2689 43.0837 47.4176 42.944C47.4275 42.9467 47.4373 42.9494 47.4472 42.9521C47.3116 43.0916 47.176 43.2311 47.0405 43.3706C47.0484 43.4526 47.6708 42.9445 47.7048 42.9867C47.7623 43.0569 47.7072 43.4411 47.5822 43.6872C47.5158 43.8179 47.8121 43.5251 47.225 44.149C47.2744 44.1141 47.3237 44.0792 47.373 44.0442C47.5101 43.9162 47.6472 43.7881 47.7842 43.66C47.8308 43.6959 47.6738 43.9508 47.7152 43.988C47.7911 44.0554 48.2635 43.798 48.0958 44.1096C48.0534 44.1881 47.8025 44.4841 47.8232 44.4986C47.8532 44.5201 48.3132 44.0726 48.3543 44.0967C48.4243 44.1392 48.0019 44.771 48.0953 44.7838C48.1227 44.7879 48.2989 44.6264 48.3279 44.6193C48.451 44.5876 48.4747 44.6389 48.7794 44.4218C48.3917 44.9036 47.8264 45.4608 47.2747 46.0417C46.8583 46.4801 45.9016 47.5046 45.5321 47.8837C45.2725 48.1501 44.9216 48.4758 44.6368 48.77C44.3493 48.9448 44.5801 48.6666 44.9416 48.2136C44.8408 48.1453 44.7401 48.077 44.6393 48.0088C44.7896 47.843 44.94 47.6773 45.0903 47.5116C45.0906 47.5113 45.091 47.5109 45.0913 47.5106C45.2412 47.2958 44.8205 47.689 44.7107 47.7638C43.6586 48.4807 44.021 47.4586 43.9362 47.1744C43.9176 47.1134 43.5753 47.197 43.8047 46.9131C43.8645 46.8392 44.1062 46.5936 44.1093 46.5755C43.8972 46.6532 43.6852 46.731 43.4732 46.8088C43.7137 46.2921 43.2583 46.4621 43.0609 46.3813C42.5265 46.1629 41.9618 45.9824 41.6499 45.5539C41.5901 45.4706 41.3167 45.5624 41.3644 45.3746C41.384 45.2966 41.7631 44.8931 41.433 45.1464C41.5381 45.0405 41.6431 44.9347 41.7481 44.8289C41.5873 44.9226 41.326 45.1411 41.2641 45.1279C41.2123 45.1164 41.1129 45.0484 41.1252 44.9801C41.1309 44.9455 41.3333 44.7539 41.3188 44.7414C41.2924 44.7214 40.9706 44.9443 40.9387 44.9123C40.9097 44.8834 41.0879 44.6077 41.0328 44.6183C40.836 44.6549 40.4124 44.904 40.4171 44.7285C40.4191 44.6794 40.6441 44.3936 40.6296 44.3934C40.6004 44.3938 40.3479 44.6376 40.3064 44.6598C40.0959 44.7718 40.3141 44.4002 40.2775 44.3403C40.1585 44.1449 39.8836 44.0866 39.7727 43.8844C39.7024 43.7569 39.4944 43.6362 39.5897 43.3583C39.6103 43.2983 39.8874 43.0317 39.8709 43.0152C39.8525 42.9969 39.6589 43.1706 39.6355 43.1769C39.4723 43.2215 39.1557 43.2762 39.2875 43.0325C39.3128 42.9858 39.5181 42.7651 39.5109 42.7595C39.5077 42.7563 39.355 42.8943 39.33 42.899C39.1089 42.941 39.1284 42.7909 39.0905 42.6533C39.0167 42.3908 38.5515 42.4664 38.5213 42.1434C38.5146 42.0731 38.9095 41.6255 38.8998 41.6243C38.8795 41.6209 38.5885 41.8967 38.4945 41.9426C38.1844 42.0927 38.3791 41.6827 38.161 41.7487C38.0535 41.7811 37.6421 42.0891 37.5256 42.1318C37.4324 42.1659 37.5038 41.955 37.3328 42.0998C37.2294 42.1873 36.9193 42.4901 36.8714 42.5189ZM42.6365 38.7435C42.1412 39.2282 42.6037 38.8763 42.846 38.5926C42.9005 38.5287 42.765 38.6177 42.6365 38.7435ZM44.3748 42.1833C44.5142 42.0429 44.6536 41.9024 44.7931 41.762C44.7276 41.8129 44.6621 41.8639 44.5966 41.9149C44.5166 42.0031 44.4365 42.0913 44.3564 42.1795C44.3626 42.1808 44.3687 42.182 44.3748 42.1833ZM53.1614 19.594C53.2094 19.7153 52.95 19.8864 52.9363 20.0295C52.8763 20.6288 52.6965 20.8508 52.5945 21.393C52.443 22.197 52.784 24.5829 50.9818 24.583C50.9817 24.583 50.9817 24.583 50.9816 24.583C50.964 24.583 50.9461 24.5828 50.928 24.5823C50.5847 24.574 50.2099 24.371 49.8216 24.3409C49.4331 24.3108 46.9254 24.3334 46.7844 24.0451C46.5987 23.6272 47.2416 22.6247 47.2132 22.4018C47.1935 22.2494 46.9655 22.0618 46.9251 21.8669C46.7946 21.2387 46.9613 20.9099 46.3421 20.3439C46.6684 20.1175 46.9947 19.8911 47.3211 19.6646C47.1698 19.3692 47.6001 18.9215 47.5764 18.742C47.5569 18.5948 47.2989 18.5085 47.2869 18.3551C47.2734 18.1991 47.5009 17.9674 47.5124 17.6923C47.5136 17.6634 47.5125 17.6342 47.5086 17.6047C47.441 17.0922 46.7677 17.003 46.6812 16.7019C46.5917 16.3899 46.9542 15.9036 46.707 15.535C46.6317 15.4894 46.5563 15.4452 46.4808 15.4023C46.3145 15.4402 46.1481 15.4778 45.9816 15.5153C45.8983 15.3377 46.2384 15.247 46.237 15.0874C46.235 14.8999 45.9038 14.8327 45.8967 14.725C45.891 14.6362 46.1393 14.4942 46.11 14.395C46.0684 14.2557 45.6998 14.3455 45.6208 14.298C45.6057 14.2888 45.5271 14.1892 45.4609 14.1626C45.3935 14.1307 45.349 14.1687 45.3487 14.1702C45.3476 14.1774 45.3791 14.1723 45.4245 14.1547C45.5265 14.0433 45.7699 13.8719 45.7519 13.7808C45.6698 13.4251 45.1114 13.5058 44.86 13.5625C44.8578 13.5628 44.8557 13.5631 44.8535 13.5634C44.8507 13.6365 44.8689 13.6001 44.7558 13.4934C45.3335 12.2631 44.773 11.1119 44.7152 13.1994C44.5478 12.8748 44.2813 13.4091 44.0001 13.2982C43.8105 13.2261 43.6774 12.9335 43.3618 12.9331C42.7966 12.9348 42.1295 13.7495 41.9555 12.2777C41.7241 12.3601 41.5067 12.3622 41.3006 12.3687C40.8659 12.3827 40.5165 12.4172 40.3378 13.3018C40.1501 13.3812 39.6692 12.6076 39.4587 12.5025C39.2596 12.4035 37.7322 12.0542 37.4823 12.0347C37.2324 12.0152 36.795 11.994 36.5845 12.108C36.3201 12.249 36.1354 13.5958 35.6647 12.0211C35.1173 12.1485 34.9223 12.1034 34.4133 11.9205C34.3211 11.8874 34.3107 11.6536 34.2569 11.6534C34.146 11.6534 33.9573 11.8262 33.7593 11.8472C33.4337 11.8817 33.2479 11.3898 33.2842 12.1412C33.0696 12.2672 32.855 12.3931 32.6403 12.5191C32.565 12.3741 32.4897 12.2291 32.4144 12.0841C32.2997 12.2421 32.1849 12.4001 32.0701 12.5582C32.2049 11.4709 31.3972 12.1125 31.6595 12.7364C31.2434 12.5115 30.8273 12.2865 30.4113 12.0616C30.4693 10.8258 29.4977 11.919 29.5795 12.5909C29.5319 12.5899 29.4843 12.5889 29.4366 12.588C29.0198 12.2595 28.6371 12.5282 28.129 12.3077C27.621 12.0872 27.6687 11.9669 27.5142 11.3985C27.3947 11.4311 27.2751 11.4636 27.1556 11.4962C26.5283 13.0544 26.6392 10.3565 25.565 11.5518C25.2218 10.5725 24.3758 11.0869 23.8149 11.3839C23.7496 11.4183 23.7485 11.6084 23.6616 11.6671C23.4491 11.808 22.9067 11.5637 22.9253 12.1768C22.7376 11.9994 22.5498 11.822 22.3621 11.6446C22.2087 11.7561 22.0552 11.8676 21.9018 11.9791C21.9026 12.1705 21.9033 12.3619 21.9041 12.5533C21.5951 11.9009 21.1096 12.1516 20.8701 11.9957C20.8225 11.9641 20.8122 11.7 20.664 11.628C20.4909 11.5425 20.1682 11.6206 19.9619 11.5382C19.8817 11.8306 19.8015 12.1231 19.7212 12.4156C19.3523 12.5742 19.2226 11.8022 19.0059 11.7423C18.9669 11.7318 18.2552 11.7873 18.2168 11.8038C18.0048 11.892 17.9765 12.2208 17.7007 12.3814C17.5661 12.4586 17.3781 12.4969 17.0862 12.4515C16.9282 12.4262 16.7981 12.1989 16.6543 12.1904C16.3962 12.1736 15.664 12.6999 15.6288 13.1795C15.3195 12.5862 14.6315 12.8686 14.4671 12.7203C14.4108 12.6737 14.3513 12.2962 14.1835 12.2391C14.034 12.1927 13.8478 12.5481 13.7751 12.5244C13.6809 12.4988 13.5262 12.2199 13.4746 12.2197C13.4701 12.2196 13.4668 12.222 13.4646 12.2265C13.427 12.2758 13.4823 12.4826 13.4239 12.5156C13.2252 12.6216 12.784 12.4432 12.6148 12.5999C12.3664 12.8315 12.8268 13.5159 13.0529 13.8117C13.0207 13.8183 12.9625 13.812 12.9095 13.8109C12.8644 13.7967 12.8236 13.7883 12.8185 13.7978C12.6455 13.9291 12.4176 15.6252 12.2686 16.9509C12.2458 17.1389 12.1379 17.4153 12.0434 17.6997C11.821 18.3671 11.6723 19.0675 12.8858 18.7671C13.1886 18.9912 12.4915 20.6209 12.481 20.9309C12.4706 21.2408 12.7806 21.4865 12.7852 21.7301C12.7987 22.4652 12.5753 22.9828 12.8453 23.8776C12.9159 24.1087 13.2831 24.3564 13.2789 24.4932C13.2729 24.6581 12.9177 24.8355 12.8951 25.049C12.8441 25.5581 12.9609 26.5068 12.8995 26.9951C12.8875 27.0843 12.5756 27.1156 12.4781 27.2432C12.0972 27.7398 12.1302 28.2965 13.126 28.198C12.5607 28.8345 13.0764 29.4234 13.108 30.0133C13.1725 31.2606 12.94 33.5327 13.3585 34.6193C13.6224 35.3044 14.0691 35.2869 13.6837 36.2956C13.5982 36.5196 13.4829 36.7425 13.3809 37.0141C13.141 37.6507 12.3159 38.2347 13.3101 38.7199C13.0523 39.427 13.2351 39.9901 12.3848 40.5147C12.5888 40.5765 12.7927 40.6383 12.9967 40.7002C13.0017 40.7869 13.0067 40.8736 13.0118 40.9602C12.8173 40.9873 12.6228 41.0143 12.4283 41.0414C12.4213 41.1248 12.4296 41.2112 12.4493 41.2997C12.5761 41.8718 13.1748 42.5111 13.1755 42.9341C13.1765 43.2869 13.1256 43.8892 13.0822 44.3695C13.0396 44.8738 12.9988 45.086 12.9199 45.183C12.9174 45.2582 12.9159 45.3283 12.912 45.3892C12.9095 45.6408 13.2334 45.3723 12.656 46.0196C12.7372 46.0234 12.8174 46.0234 12.8962 46.0197C13.0542 45.9137 13.2078 45.8021 13.3565 45.6852C13.4909 45.8088 13.5573 46.0965 13.726 46.2606C13.74 46.2855 13.7574 46.304 13.7818 46.3132C13.9537 46.4299 15.3038 46.0121 16.2516 46.3445C16.4881 46.4322 16.7911 46.8199 17.0325 46.8159C17.3164 46.8114 17.4246 46.3955 17.6933 46.2265C17.7583 46.1854 17.8324 46.1589 17.9206 46.1565C18.6961 46.137 20.1405 46.8824 20.8735 46.8255C21.0912 46.8089 21.1928 46.5702 21.3432 46.5447C21.9736 46.4352 22.4911 46.4547 23.0956 46.0857C23.7446 46.7006 23.6886 47.4943 23.8897 48.2952C24.0422 48.8996 24.5096 50.3005 24.5759 50.8299C24.6226 51.2018 24.4485 51.6802 24.5138 52.0896C23.7362 52.4166 23.4095 52.0566 22.7781 51.4807C21.612 51.5037 20.4459 51.5266 19.2798 51.5496C19.1737 51.3261 19.0677 51.1026 18.9616 50.8792C18.9616 50.8787 18.9616 50.8782 18.9616 50.8777C18.5138 50.6198 18.324 51.1953 18.0824 51.326C17.9589 51.3928 17.829 51.4533 17.6933 51.5078C16.2491 51.9274 14.5547 52.4942 11.3052 51.0068C9.81931 50.1441 8.80484 48.7752 8.28294 47.5452C8.11592 47.1692 8.002 46.806 7.92108 46.485C7.63517 45.5811 7.28061 43.564 7.64455 43.1942C7.7374 43.0897 8.08159 43.0587 8.09525 42.95C7.96866 42.3911 7.8492 41.8451 7.72889 41.2997C7.64415 40.9166 7.55941 40.5336 7.47466 40.1506C8.01008 38.2459 7.56789 36.2769 7.48541 34.3577C7.26194 29.1653 6.99032 24.0247 7.07281 18.9173C7.07912 18.5399 7.04528 18.1238 7.01038 17.6997C6.95413 17.0147 6.89403 16.2941 7.00946 15.655C7.08932 15.2147 7.64208 15.07 7.27042 14.4258C7.41961 14.4297 7.5688 14.4337 7.71797 14.4378C7.58377 13.8853 7.26925 13.4749 7.41937 12.6771C7.47789 12.3851 7.62335 11.8317 7.91 11.2646C8.2097 10.6532 8.64457 10.0806 8.88655 9.84683C9.11091 9.62839 9.24297 9.89985 9.43127 9.69484C9.73409 9.3458 10.3025 8.37128 10.9288 8.03379C11.0227 7.98037 11.1334 7.93104 11.2544 7.88686C11.948 7.60768 12.8 7.61804 13.1337 7.52037C14.6497 7.08911 15.8781 6.67265 17.0822 6.784C17.2877 6.80604 17.5227 6.95277 17.7007 7.05906C17.8089 7.12462 17.8938 7.1748 17.9327 7.17095C18.1317 7.14996 18.191 6.79907 18.3247 6.75396C19.0038 6.52601 20.0624 6.94298 20.7281 6.95953C22.8971 7.01352 25.195 6.86037 27.3547 6.92486C28.7191 6.96535 30.9866 6.9036 32.2464 7.16754C32.518 7.22453 32.4456 7.60894 32.6737 7.60894C32.9266 7.60886 33.0636 7.34917 33.1818 7.32818C33.9999 7.1812 35.8059 6.91869 36.5783 7.18414C36.7255 7.2351 36.8322 7.53631 36.9203 7.53521C36.9649 7.53521 37.0656 7.32966 37.2056 7.30865C38.4415 7.12268 39.3426 7.24255 40.5536 7.31304C40.7988 7.32715 41.048 7.33549 41.3006 7.33938C43.0292 7.48512 44.6233 6.76258 47.6735 8.03192C48.3352 8.37262 48.9357 8.82509 49.4285 9.35395C49.993 9.96287 49.8047 10.7657 49.8658 10.837C50.002 11.0171 50.4275 10.9176 50.7533 11.3116C50.777 11.3408 50.8003 11.3707 50.8232 11.4013C51.9996 13.1863 51.4494 14.9511 51.6982 15.9774C51.8004 16.4994 52.2743 17.1859 52.4105 17.6923C52.4159 17.7123 52.4208 17.7321 52.4251 17.7515C52.515 18.159 52.3155 19.1212 52.5388 19.3017C52.6738 19.4116 53.1072 19.4624 53.1614 19.594ZM43.0235 12.5922C43.1045 11.8995 42.3634 12.4687 42.6363 12.8429C42.6977 12.9269 43.004 12.7716 43.0235 12.5922ZM11.4452 14.5914C11.6429 14.6015 11.8407 14.6119 12.0384 14.6227C11.9632 14.5339 11.889 14.4459 11.8161 14.358C11.6928 14.3894 11.5697 14.4221 11.4466 14.4595C11.4459 14.5026 11.4454 14.5463 11.4452 14.5914ZM37.0085 45.1922C36.9323 45.2669 36.7297 45.0575 36.6219 45.0744C36.1643 45.1411 35.9574 45.0044 35.543 44.9859C34.9506 44.9924 33.1569 45.4339 33.1882 43.6058C33.1882 43.6057 33.1882 43.6057 33.1882 43.6057C33.1882 43.588 33.1883 43.5701 33.1886 43.552C33.1955 43.2089 33.3169 42.8332 33.3266 42.4445C33.3362 42.0558 33.2942 39.5491 33.3949 39.405C33.5377 39.2182 33.9835 39.8217 34.0813 39.777C34.1414 39.749 34.1824 39.5124 34.2502 39.4598C34.4648 39.2903 34.6408 39.4206 34.6837 38.7692C34.8462 39.0635 35.0215 39.3527 35.2092 39.6358C35.2777 39.4565 35.5954 39.8006 35.6633 39.7492C35.7166 39.7081 35.6567 39.4545 35.7108 39.4197C35.7699 39.3797 35.9827 39.5928 36.089 39.4978C36.2632 39.342 35.9914 38.7228 36.0531 38.5943C36.1142 38.4625 36.4657 38.6832 36.4747 38.397C36.4516 38.324 36.4279 38.2513 36.4035 38.1789C36.3015 38.0453 36.2005 37.9111 36.1004 37.7763C36.1156 37.6742 36.3284 37.945 36.3879 37.9124C36.4578 37.874 36.3021 37.5853 36.3426 37.5581C36.3757 37.536 36.5767 37.7121 36.6114 37.6649C36.6618 37.5977 36.4153 37.3118 36.4028 37.2319C36.4018 37.2002 36.4848 36.8574 36.4911 36.8449C36.5681 36.7545 36.9307 37.1208 37.0393 37.0776C37.0486 37.0738 37.0575 37.0697 37.0661 37.0651C37.3357 36.9191 37.227 36.4334 37.2419 36.1534C37.2508 36.022 37.3385 35.9465 37.4682 35.8956C38.4676 36.7849 39.5999 36.9117 37.7444 35.9852C38.0667 36.0211 37.6306 35.6598 37.7678 35.6021C37.858 35.5624 38.1401 35.6401 38.1847 35.5279C38.2677 35.3153 37.576 34.8416 38.981 35.2815C38.8271 34.9476 39.4054 34.8464 38.1679 34.4419C38.1046 34.3711 38.8944 34.3856 39.0132 34.3229C39.1297 34.2806 39.555 33.7446 39.5747 33.6384C39.6017 33.5418 39.6299 33.3667 39.5166 33.2827C39.4715 33.2484 39.2996 33.217 39.1413 33.1872C38.8102 33.1202 38.5394 33.0835 39.5987 32.9194C39.4609 32.7087 39.5 32.6381 39.6588 32.4134C39.6872 32.3729 39.9186 32.3392 39.9159 32.3167C39.9099 32.27 39.7281 32.2167 39.6946 32.1412C39.6399 32.0188 40.1074 31.85 39.3724 32.006C39.233 31.9477 39.0929 31.8946 38.9524 31.8467C39.0875 31.7871 39.2218 31.7255 39.3555 31.662C39.1913 31.6563 39.0274 31.6539 38.864 31.6549C39.9288 31.4223 39.2208 31.2817 38.6525 31.5622C38.8263 31.3577 38.9898 31.1382 39.1411 30.9046C40.3054 30.4818 39.1276 30.4946 38.5323 30.8166C38.5262 30.8005 38.52 30.7844 38.5138 30.7683C38.748 30.4907 38.444 30.4806 38.5463 30.2105C38.6433 29.9335 38.7535 29.8876 39.207 29.5379C39.1522 29.5104 39.0973 29.4837 39.0423 29.458C37.6043 30.1079 39.8581 28.611 38.6047 28.9363C39.2842 28.2119 38.612 28.2158 38.2347 28.2595C38.1901 28.2633 38.0542 28.3962 37.9871 28.4117C37.9777 28.4138 37.969 28.4147 37.9607 28.4146C37.8267 28.4137 37.8052 28.1421 37.4203 28.5741C37.4868 28.3943 37.5478 28.2112 37.6033 28.0252C37.4819 28.0681 37.3624 28.1138 37.2447 28.1621C37.1247 28.3112 37.0047 28.4603 36.8847 28.6094C37.2045 28.0282 36.8913 28.1065 36.9071 27.9276C36.9098 27.8909 37.0588 27.6726 37.0483 27.5778C37.0363 27.4655 36.8794 27.4555 36.8492 27.3396C36.665 27.5694 36.4844 27.8017 36.3074 28.0365C36.112 28.104 36.4524 27.4104 36.3999 27.3129C36.3911 27.2944 36.1045 27.2091 36.0831 27.2188C35.9089 27.2818 35.6683 27.8882 35.4176 27.6319C35.3723 27.5863 35.4077 27.3561 35.3574 27.3277C35.2644 27.2735 34.825 27.6749 34.6793 28.1309C34.7478 27.5265 34.3899 27.6896 34.3426 27.5063C34.327 27.4491 34.3962 27.0748 34.3225 26.9788C34.2607 26.8998 34.0321 27.172 33.953 27.1115C33.8671 27.0449 33.8652 26.724 33.8221 26.6969C33.7812 26.6719 33.7199 26.9252 33.6649 26.9195C33.4955 26.8975 33.3461 26.4776 33.1949 26.4698C33.1927 26.4697 33.1904 26.4696 33.1882 26.4697C32.9709 26.474 32.821 27.2343 32.7082 27.5806C32.6673 27.5344 32.6144 27.3749 32.5736 27.3777C32.076 27.4043 31.4928 27.3986 30.9387 27.4418C30.7025 27.4415 29.6339 26.8269 30.5965 28.2768C30.6785 28.5673 29.8417 28.2611 29.7305 28.3362C29.6301 28.3951 29.7465 28.6961 29.684 28.7513C29.5138 28.9024 29.2601 28.8851 29.1863 29.1853C29.1786 29.2182 29.1734 29.2548 29.1713 29.2955C29.165 29.4033 29.3801 29.7122 29.3489 29.7407C29.3102 29.7748 29.0039 29.5853 28.9386 29.628C28.7843 29.7295 28.6857 30.0597 28.5464 30.1654C28.5198 30.1843 28.2517 30.0244 28.144 30.0124C27.7217 29.9664 27.6401 30.1853 28.5335 30.6274C27.932 30.5481 28.2997 30.9756 28.2596 31.1573C28.1542 31.5419 27.746 32.2523 28.1371 32.6483C28.38 32.8927 28.8239 32.8897 28.4337 33.1742C28.428 33.1785 28.4223 33.1828 28.4164 33.1872C28.3331 33.249 28.2272 33.3146 28.1353 33.3978C27.902 33.5912 27.1071 33.9191 28.1154 33.9382C27.8954 34.2074 28.1096 34.3328 27.3349 34.7305C27.5379 34.7008 27.7406 34.6689 27.9427 34.6347C27.9553 34.6614 27.9681 34.688 27.9811 34.7145C27.7971 34.7779 27.6133 34.8423 27.4298 34.9076C27.4489 35.1569 28.2969 35.1396 28.3557 35.2863C28.4453 35.5507 28.5563 36.3531 28.5518 36.7558C28.5431 36.9713 28.8665 36.7071 28.2726 37.332C28.3435 37.3237 28.4141 37.3144 28.4841 37.304C28.641 37.1985 28.7965 37.0913 28.9508 36.9825C29.0191 37.0533 29.0422 37.1782 29.0699 37.3055C29.0979 37.4361 29.1306 37.5687 29.2074 37.6354C29.4955 37.8892 30.2042 37.7628 30.3326 38.2197C30.3656 38.3369 30.2872 38.7336 30.3753 38.7729C30.503 38.8296 30.8066 38.2639 30.9506 38.3145C31.1821 38.4016 31.4552 39.278 31.7656 39.2868C31.8521 39.2899 31.9399 39.0643 31.9989 39.0503C32.2453 38.9883 32.4381 39.0351 32.681 38.6874C32.8513 39.3189 32.8028 40.1083 32.8566 40.9131C32.8918 41.5208 33.1306 42.9263 33.183 43.4549C33.2147 43.8269 33.0957 44.305 33.1382 44.7145C32.5786 45.0354 32.3319 44.6547 31.973 44.0379C31.1891 43.9733 30.4097 43.8233 29.6532 43.5904C29.6569 43.3557 29.6651 43.1217 29.6776 42.8885C29.6778 42.8881 29.6779 42.8876 29.6781 42.8872C29.5033 42.5487 29.1841 43.0382 28.9818 43.095C27.7249 43.4734 26.1634 42.3903 25.2577 41.1176C24.7608 40.4491 24.4119 39.753 24.1251 39.2332C23.9344 38.9291 23.0867 37.9919 23.3286 37.6021C23.3883 37.5039 23.6968 37.3494 23.6844 37.283C23.262 36.8206 22.8723 36.3056 22.5268 35.7435C22.6733 34.8414 22.5071 34.0435 22.3928 33.1872C22.3338 32.7453 22.291 32.2944 22.3173 31.8499C22.4525 29.416 23.4341 26.9721 25.1604 25.1594C25.9178 24.3593 26.8115 23.6845 27.7903 23.1854C28.3975 22.8702 29.1297 22.2859 29.8408 22.2473C30.1387 22.2302 30.3833 22.7348 30.6395 22.2496C30.6771 22.3939 30.7146 22.5383 30.7518 22.6827C31.01 22.4393 31.1489 22.0655 31.5042 21.9759C31.8005 21.8945 32.6107 21.8033 32.8824 21.8606C33.0231 21.8858 32.9761 22.1653 33.103 22.1625C33.1283 22.1618 33.1568 22.156 33.1882 22.1464C33.4233 22.0719 33.8389 21.7862 34.1156 21.8102C34.4008 21.8312 34.8228 22.2103 35.0346 22.201C35.7998 22.1598 36.78 21.933 37.5306 22.373C37.7378 22.4941 37.86 22.9455 37.9263 22.9657C38.0599 23.0048 38.2497 22.7072 38.3568 22.7094C38.908 22.7216 39.3657 23.4764 39.7321 23.7578C40.2702 24.1597 40.8097 24.5875 41.3129 25.0625C41.9612 25.6732 42.5485 26.3665 42.9732 27.122C43.4704 27.9495 44.1587 29.4411 44.0995 30.3682C44.0909 30.5659 43.7051 30.6078 43.74 30.7562C43.7776 30.9199 44.0499 30.9579 44.0865 31.034C44.3275 31.4979 44.6725 32.5807 44.5016 33.1872C44.4856 33.248 44.4651 33.3036 44.44 33.3526C44.3875 33.4547 44.0841 33.5188 44.0831 33.5775C44.082 33.6072 44.285 33.6836 44.3008 33.7814C44.4354 34.6442 44.2141 35.2663 43.9379 36.049C43.4237 37.5295 42.8779 39.4026 41.5842 40.5485C41.3048 40.7983 40.7049 40.5543 40.6773 40.5914C40.6642 40.608 40.6629 40.6342 40.6684 40.6674C40.6908 40.8019 40.8262 41.054 40.748 41.2369C40.4133 42.0075 39.3248 42.2833 38.8145 42.804C38.5631 43.068 38.3465 43.7524 38.0451 44.0091C37.8082 44.2207 37.0795 44.2826 37.025 44.5316C36.9916 44.6852 37.0901 45.1092 37.0085 45.1922ZM38.5433 35.5473C39.1682 35.8508 38.7508 35.3566 38.3648 35.316C38.2793 35.3044 38.3822 35.4674 38.5433 35.5473ZM31.6496 26.3017C31.6957 26.4942 31.7416 26.6867 31.7873 26.8793C31.8084 26.7903 31.8311 26.7012 31.8554 26.6123C31.8089 26.5003 31.7612 26.3887 31.7124 26.2775C31.6914 26.2854 31.6705 26.2935 31.6496 26.3017Z" fill="#FC6B7E"/>
</svg>
