<svg xmlns="http://www.w3.org/2000/svg" width="59" height="59" fill="none" viewBox="0 0 59 59"><path fill="#fc6b7e" d="M36.871 42.519c-.042.025.129-.17.128-.19-.001-.087.11-.23.143-.341.049-.166-.365-.098.909-1.372l.038-.038c.243-.242.523-.492.8-.765.277-.272 2.048-2.047 2.169-2.126.162-.101-.22.426-.184.422.025-.003.2-.15.242-.165.138-.046.044.095.523-.302l-.643.742c.128-.086-.144.251-.114.248.025-.004.214-.18.233-.177.023.002-.155.218-.102.21.085-.01.567-.48.65-.517.086-.04-.137.255.06.117l.168-.146.348-.363c.07-.04-.167.209-.157.227.01.021.249-.2.258-.189.008.01-.164.207-.141.207.032 0 .295-.27.354-.31a2 2 0 0 1 .242-.095c.04.018-.323.385-.332.44-.024.15.336-.08.505-.133.076-.024.082.025.05.109-.974.892-1.61 1.71-.183.215-.18.237.236-.137.196-.043-.025.061-.216.276-.185.296.056.034.68-.492-.347.561.236-.13-.096.293.842-.607.07-.042-.443.54-.502.63a2.4 2.4 0 0 0-.187.473c.004.032.02.079.117.013.119-.08 1.084-1.02.005.129.13-.05.112-.005.02.161-.017.03-.182.196-.178.2.008.009.144-.1.173-.1.048-.001-.286.36.242-.174l.314-.22-.291.324.36-.31c-.778.758-.266.363.156-.097l-.387.568c-.878.87-.034.167.435-.314l.008.012c-.202.263.016.1-.103.293-.12.193-.208.274-.599.688l.096-.044c1.147-1.056-.769.844.154.076-.667.718-.242.415.008.246.03-.02.164-.154.212-.19.115-.083-.019.129.413-.306l-.335.417.27-.203.406-.406c-.44.483-.227.341-.32.469-.019.026-.205.213-.245.275-.048.073.031.04-.012.114l.638-.603c.138-.085-.398.47-.425.528-.004.01.087.023.1.014.116-.07.575-.541.54-.376-.005.03-.157.2-.153.217.007.03.429-.278.77-.61-.399.444-.166.332-.27.472-.032.043-.3.313-.34.387-.033.06.217-.12.198-.067-.022.057-.241.29-.249.313-.007.023.182-.152.192-.141.026.039-.238.362-.218.393.03.046.602-.46.873-.67-.027.043-.136.167-.129.176.084.117.098.33.083.546-.007.1-.623.95.569-.304.23-.198-.145.413-.13.443s.252-.172.273-.158c.063.044-.057.24.198.114.067-.034.345-.275.352-.262.007.016-.231.28-.232.311.001.073.153.06.145.138-.003.015-.22.238-.28.316-.234.306-.17.323.527-.389-.354.446.054.124.119.145.136.044.136.373.51.156.237-.137.552-.454.352-.108-.044.077-.11.174-.162.266-.123.216-.664.842.074.174-.131.233.039.145-.524.784l.446-.419.03.008-.407.419c.007.082.63-.427.664-.384.057.07.002.454-.123.7-.066.13.23-.162-.357.462l.148-.105.411-.384c.047.036-.11.29-.069.328.076.067.548-.19.38.122-.042.078-.292.374-.272.389.03.021.49-.426.531-.402.07.042-.352.674-.259.687.028.004.204-.158.233-.165.123-.031.147.02.451-.197-.387.482-.953 1.039-1.504 1.62-.417.438-1.373 1.463-1.743 1.842-.26.266-.61.592-.895.886-.288.175-.057-.103.305-.556l-.303-.205.451-.497.001-.001c.15-.215-.27.178-.38.253-1.052.717-.69-.305-.775-.59-.018-.06-.36.023-.131-.26.06-.075.301-.32.304-.339l-.636.234c.24-.517-.215-.347-.412-.428-.535-.218-1.1-.399-1.411-.827-.06-.083-.333.008-.286-.18.02-.077.4-.48.069-.228l.315-.317c-.16.094-.422.312-.484.299-.052-.012-.151-.08-.139-.148.006-.034.208-.226.194-.239-.027-.02-.348.203-.38.171-.03-.029.149-.304.094-.294-.197.037-.62.286-.616.11.002-.049.227-.334.213-.335-.03 0-.282.245-.324.267-.21.112.008-.26-.028-.32-.12-.195-.394-.253-.505-.456-.07-.127-.279-.248-.183-.526.02-.06.297-.326.28-.343s-.211.156-.234.162c-.164.044-.48.1-.349-.145.026-.046.231-.267.224-.272-.003-.004-.156.134-.181.139-.221.042-.202-.108-.24-.246-.073-.262-.539-.187-.569-.51-.006-.07.389-.517.379-.519-.02-.003-.311.273-.405.319-.31.15-.116-.26-.334-.194-.108.032-.519.34-.635.383-.094.034-.022-.177-.193-.032-.104.087-.414.39-.462.419m5.765-3.776c-.495.485-.032.133.21-.15.055-.064-.081.025-.21.15m1.739 3.44.418-.421-.196.153-.24.264zm8.786-22.589c.048.121-.211.292-.225.435-.06.6-.24.822-.342 1.364-.151.804.19 3.19-1.612 3.19h-.054c-.343-.009-.718-.212-1.106-.242s-2.897-.008-3.038-.296c-.185-.418.458-1.42.43-1.643-.02-.153-.248-.34-.289-.535-.13-.628.036-.957-.583-1.523l.98-.68c-.152-.295.278-.742.254-.922-.02-.147-.277-.233-.29-.387-.013-.156.215-.388.226-.663l-.003-.087c-.068-.513-.741-.602-.828-.903-.09-.312.273-.798.026-1.167l-.226-.133-.5.113c-.083-.177.257-.268.256-.428-.002-.187-.333-.254-.34-.362-.006-.089.242-.23.213-.33-.042-.14-.41-.05-.49-.097-.014-.01-.093-.109-.16-.135-.066-.032-.111.006-.111.007-.001.007.03.002.076-.015.102-.112.345-.283.327-.374-.082-.356-.64-.275-.892-.219l-.007.001c-.002.073.016.037-.097-.07.578-1.23.017-2.381-.04-.294-.168-.324-.435.21-.716.1-.19-.073-.323-.365-.638-.366-.565.002-1.233.816-1.407-.655-.23.082-.448.084-.654.09-.435.015-.785.05-.963.934-.188.08-.669-.694-.88-.8-.198-.099-1.726-.448-1.976-.467s-.687-.041-.898.073c-.264.141-.449 1.488-.92-.087-.547.127-.742.082-1.25-.1-.093-.034-.103-.267-.157-.268-.111 0-.3.173-.498.194-.325.035-.511-.457-.475.294l-.644.378-.226-.435-.344.474c.135-1.087-.673-.445-.41.178l-1.249-.674c.058-1.236-.913-.143-.832.529l-.142-.003c-.417-.328-.8-.06-1.308-.28s-.46-.341-.615-.91l-.358.098c-.628 1.558-.517-1.14-1.591.056-.343-.98-1.19-.465-1.75-.168-.065.034-.067.224-.153.283-.213.141-.755-.103-.737.51l-.563-.532-.46.334.002.574c-.309-.652-.794-.401-1.034-.557-.047-.032-.058-.296-.206-.368-.173-.085-.496-.007-.702-.09l-.24.878c-.37.158-.5-.614-.716-.674a8 8 0 0 0-.79.062c-.211.088-.24.417-.515.577-.135.078-.323.116-.615.07-.158-.025-.288-.252-.432-.26-.258-.017-.99.509-1.025.989-.31-.594-.997-.311-1.162-.46-.056-.046-.116-.424-.284-.48-.149-.047-.335.308-.408.284-.094-.025-.249-.304-.3-.304q-.007 0-.01.006c-.038.05.017.257-.041.29-.199.106-.64-.073-.81.084-.248.232.213.916.439 1.212-.032.006-.09 0-.144-.001-.045-.014-.085-.023-.09-.013-.174.131-.401 1.827-.55 3.153-.023.188-.131.464-.226.749-.222.667-.37 1.367.843 1.067.303.224-.394 1.854-.405 2.164-.01.31.3.555.304.8.014.734-.21 1.252.06 2.147.07.23.438.478.434.615-.006.165-.361.343-.384.556-.05.51.066 1.458.005 1.946-.013.09-.324.12-.422.248-.38.497-.348 1.054.648.955-.565.636-.05 1.225-.018 1.815.064 1.248-.168 3.52.25 4.606.264.685.711.668.326 1.677-.086.224-.201.447-.303.718-.24.637-1.065 1.22-.07 1.706-.259.707-.076 1.27-.926 1.795l.612.185.015.26-.584.081a1 1 0 0 0 .021.259c.127.572.726 1.211.726 1.634.002.353-.05.955-.093 1.436-.042.504-.083.716-.162.813q-.003.114-.008.206c-.003.252.321-.017-.256.63q.121.006.24 0 .237-.158.46-.334c.135.124.201.411.37.576a.1.1 0 0 0 .056.052c.172.117 1.522-.3 2.47.031.236.088.54.476.78.472.284-.005.393-.42.661-.59a.44.44 0 0 1 .228-.07c.775-.019 2.22.726 2.953.67.217-.017.319-.256.47-.281.63-.11 1.147-.09 1.752-.46.649.616.593 1.41.794 2.21.152.605.62 2.005.686 2.535.047.372-.128.85-.062 1.26-.778.327-1.104-.033-1.736-.61l-3.498.07-.318-.67v-.002c-.448-.258-.638.317-.88.448a4 4 0 0 1-.389.182c-1.444.42-3.138.986-6.388-.501-1.486-.863-2.5-2.232-3.022-3.462a6.6 6.6 0 0 1-.362-1.06c-.286-.904-.64-2.921-.276-3.29.092-.105.437-.136.45-.245-.126-.559-.246-1.105-.366-1.65l-.254-1.15c.535-1.904.093-3.873.01-5.792-.223-5.193-.495-10.333-.412-15.44.006-.378-.028-.794-.063-1.218-.056-.685-.116-1.406 0-2.045.08-.44.632-.585.26-1.23l.448.013c-.134-.553-.449-.963-.299-1.76.059-.293.204-.846.491-1.413.3-.612.735-1.184.977-1.418.224-.219.356.053.544-.152.303-.35.872-1.324 1.498-1.661q.142-.081.325-.147c.694-.28 1.546-.269 1.88-.367 1.516-.43 2.744-.847 3.948-.736.206.022.44.169.619.275.108.066.193.116.232.112.199-.021.258-.372.392-.417.679-.228 1.737.189 2.403.206 2.17.054 4.467-.1 6.627-.035 1.364.04 3.632-.021 4.891.243.272.057.2.44.428.44.253 0 .39-.259.508-.28.818-.147 2.624-.41 3.396-.144.147.051.254.352.342.351.045 0 .146-.205.286-.226 1.235-.186 2.137-.066 3.348.004q.367.02.747.026c1.728.146 3.322-.576 6.372.693.662.34 1.263.793 1.755 1.322.565.609.377 1.412.438 1.483.136.18.562.08.887.475q.036.043.07.09c1.177 1.784.626 3.55.875 4.575.102.522.576 1.209.712 1.715l.015.06c.09.407-.11 1.37.114 1.55.135.11.568.16.622.292m-10.138-7.002c.081-.693-.66-.123-.387.25.062.085.368-.07.387-.25m-31.578 2 .593.03-.222-.264a8 8 0 0 0-.37.101zm25.563 30.6c-.076.075-.278-.135-.386-.118-.458.067-.665-.07-1.079-.088-.592.006-2.386.448-2.355-1.38v-.054c.008-.343.129-.719.139-1.108.01-.388-.033-2.895.068-3.039.143-.187.588.417.686.372.06-.028.101-.265.17-.317.214-.17.39-.04.433-.69q.244.44.525.866c.069-.18.386.165.454.113.054-.04-.006-.294.048-.33.059-.04.272.174.378.079.174-.156-.098-.775-.036-.904.061-.132.413.09.422-.197l-.072-.218-.303-.403c.016-.102.228.169.288.136.07-.038-.086-.327-.045-.354.033-.022.234.154.268.107.05-.067-.196-.353-.208-.433a5 5 0 0 1 .088-.387c.077-.09.44.276.548.233l.027-.013c.27-.146.161-.632.176-.912.009-.131.097-.206.226-.257 1 .889 2.132 1.016.276.09.323.035-.113-.326.024-.384.09-.04.372.038.417-.074.083-.213-.609-.686.796-.246-.154-.334.424-.436-.813-.84-.063-.07.726-.056.845-.12.117-.041.542-.577.562-.684.027-.096.055-.271-.058-.355-.046-.035-.217-.066-.376-.096-.33-.067-.602-.103.458-.268-.138-.21-.099-.28.06-.506.028-.04.26-.074.257-.096-.006-.047-.188-.1-.221-.176-.055-.122.412-.291-.323-.135a7 7 0 0 0-.42-.16q.204-.088.404-.184a12 12 0 0 0-.492-.007c1.065-.233.357-.373-.211-.093q.26-.307.488-.657c1.164-.423-.013-.41-.609-.088l-.018-.049c.234-.277-.07-.287.032-.558.097-.277.208-.322.661-.672l-.165-.08c-1.438.65.816-.847-.437-.522.68-.724.007-.72-.37-.677-.045.004-.18.137-.248.153l-.026.003c-.134-.001-.156-.273-.54.16q.1-.27.182-.55-.181.065-.358.137l-.36.447c.32-.58.006-.503.022-.681.003-.037.152-.255.141-.35-.012-.113-.169-.122-.199-.238q-.276.345-.542.697c-.195.067.145-.627.093-.724a1.2 1.2 0 0 0-.317-.094c-.174.063-.415.67-.665.413-.046-.046-.01-.276-.06-.304-.094-.055-.533.347-.679.803.069-.605-.29-.441-.336-.625-.016-.057.053-.431-.02-.527-.062-.08-.29.193-.37.133-.086-.067-.088-.388-.13-.415-.042-.025-.103.228-.158.223-.17-.023-.319-.442-.47-.45h-.007c-.217.004-.367.764-.48 1.11-.04-.046-.094-.205-.134-.202-.498.026-1.081.02-1.635.064-.236 0-1.305-.615-.343.835.082.29-.754-.016-.866.06-.1.058.017.36-.046.414-.17.151-.424.134-.498.434a1 1 0 0 0-.015.11c-.006.108.21.417.178.446-.039.034-.345-.156-.41-.113-.155.102-.253.432-.393.537-.026.02-.294-.14-.402-.153-.422-.046-.504.173.39.615-.602-.079-.234.349-.274.53-.106.385-.514 1.095-.123 1.491.243.245.687.242.297.526l-.018.013c-.083.062-.189.128-.28.21-.234.194-1.029.522-.02.541-.22.27-.006.395-.781.792q.305-.045.608-.095l.038.08q-.276.094-.551.193c.019.249.867.232.926.378.09.265.2 1.067.196 1.47-.009.215.314-.049-.28.576q.107-.013.212-.028.236-.158.467-.322c.068.071.091.196.119.324.028.13.06.263.137.33.288.253.997.127 1.126.584.033.117-.046.514.042.553.128.057.432-.51.576-.459.231.088.504.964.815.973.086.003.174-.223.233-.237.246-.062.44-.015.682-.363.17.632.122 1.421.176 2.226.035.608.274 2.013.326 2.542.032.372-.087.85-.045 1.26-.56.32-.806-.06-1.165-.677a11 11 0 0 1-2.32-.448q.006-.351.025-.702c-.175-.34-.494.15-.696.207-1.257.378-2.819-.705-3.724-1.977-.497-.669-.846-1.365-1.133-1.885-.19-.304-1.038-1.241-.796-1.63.06-.1.368-.254.355-.32a10 10 0 0 1-1.157-1.54c.146-.902-.02-1.7-.134-2.556a7 7 0 0 1-.076-1.337c.136-2.434 1.117-4.878 2.843-6.69a9.7 9.7 0 0 1 2.63-1.975c.608-.315 1.34-.9 2.05-.938.299-.017.543.488.8.003l.112.433c.258-.244.397-.617.752-.707.296-.081 1.107-.173 1.378-.115.141.025.094.304.221.302a.3.3 0 0 0 .085-.017c.235-.074.65-.36.928-.336.285.021.707.4.919.391.765-.041 1.745-.268 2.496.172.207.121.329.572.395.593.134.039.324-.259.43-.257.552.013 1.01.767 1.376 1.049.538.402 1.078.83 1.58 1.305.65.61 1.236 1.303 1.661 2.059.497.828 1.186 2.32 1.127 3.246-.01.198-.395.24-.36.388.038.164.31.202.346.278.242.464.587 1.547.416 2.153a1 1 0 0 1-.062.166c-.052.102-.356.166-.357.224-.001.03.202.107.218.204.134.863-.087 1.485-.363 2.268-.514 1.48-1.06 3.354-2.354 4.5-.28.25-.88.005-.907.042q-.018.026-.009.076c.023.135.158.387.08.57-.335.77-1.423 1.046-1.933 1.567-.252.264-.468.948-.77 1.205-.237.212-.965.274-1.02.523-.033.153.065.577-.017.66m1.535-9.645c.625.304.208-.19-.178-.231-.086-.012.017.151.178.231m-6.893-9.245.137.577q.032-.134.068-.267l-.143-.334z"/></svg>