<svg width="55" height="55" viewBox="0 0 55 55" fill="none" xmlns="http://www.w3.org/2000/svg">
<path d="M27.5 50.4163C26.2396 50.4163 25.161 49.9679 24.2642 49.0711C23.3674 48.1743 22.9182 47.0949 22.9167 45.833H32.0833C32.0833 47.0934 31.6349 48.1728 30.7381 49.0711C29.8413 49.9695 28.7619 50.4179 27.5 50.4163ZM20.625 43.5413C19.9757 43.5413 19.4318 43.3213 18.9933 42.8813C18.5549 42.4413 18.3349 41.8974 18.3333 41.2497C18.3318 40.6019 18.5518 40.058 18.9933 39.618C19.4349 39.178 19.9788 38.958 20.625 38.958H34.375C35.0243 38.958 35.569 39.178 36.009 39.618C36.449 40.058 36.6682 40.6019 36.6667 41.2497C36.6651 41.8974 36.4451 42.4421 36.0067 42.8836C35.5682 43.3252 35.0243 43.5444 34.375 43.5413H20.625ZM18.9063 36.6663C16.2708 35.1004 14.1793 32.9997 12.6317 30.3643C11.084 27.7288 10.311 24.8643 10.3125 21.7705C10.3125 16.9962 11.9839 12.9384 15.3267 9.59718C18.6694 6.25593 22.7272 4.58454 27.5 4.58301C32.2728 4.58148 36.3313 6.25287 39.6756 9.59718C43.0199 12.9415 44.6906 16.9993 44.6875 21.7705C44.6875 24.8643 43.9145 27.7288 42.3683 30.3643C40.8222 32.9997 38.7307 35.1004 36.0938 36.6663H18.9063ZM20.2813 32.083H34.7188C36.4375 30.8608 37.7651 29.3521 38.7017 27.557C39.6382 25.7618 40.1057 23.833 40.1042 21.7705C40.1042 18.2566 38.8819 15.2775 36.4375 12.833C33.9931 10.3886 31.0139 9.16634 27.5 9.16634C23.9861 9.16634 21.0069 10.3886 18.5625 12.833C16.1181 15.2775 14.8958 18.2566 14.8958 21.7705C14.8958 23.833 15.3641 25.7618 16.3006 27.557C17.2372 29.3521 18.564 30.8608 20.2813 32.083Z" fill="#FC6B7E"/>
<path d="M27.4987 51.1831C27.3201 51.2763 27.131 51.308 26.946 51.2498C26.9037 51.2366 26.9151 51.1653 26.8989 51.1519C26.8695 51.1273 26.807 51.1982 26.7991 51.1972C26.7518 51.1923 26.7863 51.0695 26.7806 51.0639C26.7185 51.0041 26.7193 51.1492 26.6497 51.1529C26.5594 51.1576 26.451 51.1126 26.3479 51.0836C26.3118 51.0729 26.3482 50.983 26.2687 50.9732C26.2138 50.9671 26.0136 51.0283 25.9693 50.8923C25.9814 50.8499 26.0048 50.8061 26.0216 50.7636C25.8619 50.9075 25.8197 50.8866 25.6823 50.7896C25.6607 50.7742 25.611 50.8364 25.5782 50.7938C25.5457 50.751 25.5869 50.6426 25.5042 50.6097C25.4748 50.5982 25.4246 50.6661 25.3778 50.6492C25.2427 50.6023 25.0534 50.3893 24.9598 50.3291C24.7736 50.2119 24.5937 50.2602 24.4593 50.1032C24.4491 50.0914 24.5291 50.0384 24.5078 50.0206C24.4866 50.0029 24.3918 50.0808 24.3844 50.0788C24.3041 50.0576 24.2808 49.834 24.2382 49.8229C24.1316 49.7947 24.1727 49.8994 24.0517 49.8244C23.9545 49.7634 23.9192 49.5841 23.8725 49.4628C23.8635 49.4396 23.8539 49.4185 23.8431 49.4005C23.7666 49.2711 23.5656 49.3847 23.667 49.1442C23.3981 48.8589 23.16 48.5357 22.9621 48.1868C23.0041 48.1658 23.0462 48.145 23.0883 48.1242C23.0452 48.1122 23.0021 48.0996 22.9593 48.086C22.9926 48.0745 23.0258 48.0627 23.0587 48.0512C22.8735 47.9836 22.7519 47.8861 22.7219 47.7095C22.7213 47.7061 22.8116 47.6802 22.8128 47.6767C22.8151 47.6345 22.7325 47.6195 22.7366 47.5813C22.7453 47.4885 22.8977 47.2957 22.6792 47.4306C22.6681 47.2336 22.5305 47.0359 22.5432 46.8457C22.5486 46.764 22.6907 46.7159 22.6931 46.6788C22.6956 46.6417 22.5732 46.6802 22.5663 46.668C22.5254 46.5941 22.5142 46.4619 22.6543 46.4329C22.5961 46.424 22.5372 46.4137 22.4786 46.4034C22.6352 46.3957 22.5495 46.1626 22.5518 46.098C22.5519 46.0863 22.6209 46.0815 22.6198 46.073C22.607 45.9779 22.4983 45.9569 22.4613 45.8727C22.4498 45.8464 22.5456 45.8793 22.529 45.8335L22.502 45.4761L22.9167 45.4453C22.9218 45.4433 22.9281 45.4397 22.9357 45.434C22.9418 45.4294 22.9385 45.32 23.0221 45.3207C23.1555 45.3217 23.4108 45.2783 23.5697 45.3323C23.5827 45.3365 23.5431 45.4558 23.6026 45.428C23.6242 45.4181 23.6138 45.3334 23.6661 45.3327C23.8687 45.3292 24.0848 45.4266 24.2914 45.3458C24.2839 45.4414 24.2103 45.5487 24.3209 45.4887C24.3386 45.4788 24.3254 45.3934 24.3333 45.3902C24.3976 45.3655 24.4533 45.4265 24.5229 45.3937C24.5434 45.3838 24.5485 45.3168 24.5742 45.3009C24.612 45.2773 24.6287 45.3729 24.6727 45.3323C24.7414 45.2684 24.752 45.1778 24.8372 45.3556C25.3201 45.3443 25.8008 45.2942 26.282 45.3726C26.4212 45.3218 26.5495 45.265 26.6946 45.2456C26.7373 45.2399 26.7455 45.3613 26.8136 45.3211C26.8288 45.3123 26.9377 45.182 26.9536 45.4273C26.9839 45.4061 27.003 45.4054 27.029 45.3923C27.0093 45.3563 26.9889 45.3199 26.97 45.2836C27.0799 45.3228 27.1696 45.2363 27.2668 45.1954C27.3384 45.1654 27.2876 45.2706 27.3315 45.26C27.3754 45.2498 27.3954 45.2261 27.4503 45.3521C27.4934 45.2067 27.5221 45.3087 27.6016 45.3125C27.6102 45.3129 27.6596 45.2565 27.7009 45.2678C27.7305 45.2759 27.7393 45.3665 27.7865 45.3525C27.7942 45.3504 27.8939 45.2381 27.9257 45.2278C27.9751 45.2116 28.0536 45.3278 28.0632 45.3292C28.2021 45.3496 28.2557 45.2349 28.3543 45.4237C28.3742 45.3115 28.4566 45.2459 28.5231 45.2568C28.6071 45.2705 28.7755 45.5 28.7985 45.2575C28.8957 45.3655 28.8852 45.2989 29.0005 45.2967C29.1054 45.2946 29.3833 45.3873 29.4684 45.374C29.5534 45.3609 29.512 45.2261 29.5457 45.2081C29.601 45.1782 29.5711 45.2776 29.609 45.2762C29.716 45.272 29.8089 45.253 29.911 45.2096C29.9165 45.2794 29.9224 45.3496 29.9281 45.4195C29.9334 45.3962 29.9387 45.3729 29.944 45.3496C29.9659 45.3503 29.9906 45.3489 30.0109 45.351C29.8393 45.0444 30.1767 45.3737 30.278 45.3814C30.3634 45.3878 30.5056 45.2424 30.5994 45.211C30.6222 45.2032 30.6065 45.2787 30.6112 45.277C30.6661 45.2554 30.6744 45.2039 30.7483 45.211C30.7873 45.2148 30.8272 45.3094 30.8652 45.3111C31.1445 45.3239 31.414 45.2289 31.6915 45.2186C31.7387 45.2169 31.7794 45.3323 31.8191 45.3348C31.8758 45.3383 31.9116 45.2438 31.9649 45.2424C32.0003 45.2414 32.0461 45.2913 32.0833 45.3195L32.5561 45.2844L32.5968 45.833C32.5827 45.8535 32.5739 45.8715 32.5795 45.8847C32.596 45.9245 32.7063 45.8575 32.6753 45.9304C32.6609 45.9636 32.5805 45.9034 32.5773 45.9443C32.5676 46.0705 32.6579 46.2611 32.5462 46.3891C32.571 46.3856 32.5936 46.3795 32.6175 46.3742C32.5935 46.5208 32.5178 46.642 32.4827 46.7889C32.4705 46.8399 32.5214 46.9485 32.5092 47.0004C32.4972 47.0521 32.4161 47.0572 32.404 47.0971C32.3988 47.1134 32.4679 47.1239 32.4637 47.1349C32.409 47.2723 32.2683 47.3122 32.2347 47.4569C32.1093 47.991 31.8662 48.5221 31.5504 48.991C31.5378 49.0097 31.5989 49.0785 31.5878 49.1132C31.5707 49.1667 31.5075 49.1172 31.501 49.1206C31.4588 49.1433 31.5274 49.1773 31.4878 49.2233C31.4124 49.3114 31.2566 49.4069 31.1587 49.491C31.1437 49.504 31.1301 49.5168 31.1183 49.5294C30.9133 49.7481 30.7633 49.9689 30.5352 50.1774C30.5189 50.1925 30.4687 50.0967 30.4372 50.1172C30.2133 50.2565 30.2202 50.3775 29.9095 50.513C29.6001 50.6528 28.9848 50.8114 28.606 50.8657C28.606 50.8655 28.6059 50.8652 28.6059 50.865C28.5279 51.0844 28.352 51.0642 28.206 50.9313C28.8556 50.353 29.5087 50.3459 30.1486 49.9043C30.4208 49.7123 30.6403 49.4406 30.8227 49.1555C31.0771 48.7601 31.2599 48.3445 31.4911 47.9824C31.5285 47.9236 31.6419 47.9505 31.6482 47.8857C31.6492 47.8749 31.5598 47.8589 31.5657 47.8275C31.6447 47.4088 31.9669 47.045 31.9809 46.6153C31.9838 46.502 31.8896 46.4716 31.876 46.3738C31.9197 46.3956 31.966 46.4124 32.01 46.4331C32.0976 46.2418 32.1323 46.0376 32.1397 45.833L32.1352 45.7728L32.0833 45.7767C31.8302 45.7674 31.5763 45.782 31.3207 45.7707C31.2999 45.7696 31.2973 45.6746 31.2755 45.6711C31.232 45.6637 31.1903 45.7682 31.1523 45.7717C31.1027 45.7763 31.0941 45.7008 31.0483 45.7057C31.026 45.7083 31.0326 45.7808 30.9841 45.7685C30.98 45.7675 30.9773 45.6913 30.945 45.7011C30.8565 45.7283 30.6757 45.7922 30.6025 45.8113C30.5089 45.8356 30.4338 45.7209 30.3984 45.7134C30.3028 45.6933 30.3048 45.8108 30.2239 45.8108C29.6478 45.8115 29.0971 45.6779 28.5074 45.6789C28.4704 45.679 28.3333 45.8098 28.2648 45.8045C28.2418 45.8024 28.1217 45.7679 28.1037 45.765C28.0307 45.7541 27.9676 45.675 27.9273 45.6584C27.8492 45.626 27.7619 45.7495 27.7194 45.7618C27.6447 45.7837 27.5122 45.7674 27.4808 45.7643C27.4051 45.7565 27.4301 45.6037 27.3758 45.6394C27.3598 45.65 27.3766 45.7671 27.3201 45.7671C27.2727 45.7667 27.2535 45.6786 27.2212 45.6627C27.1889 45.6469 27.1295 45.7833 27.1094 45.7799C27.004 45.7608 26.9574 45.6714 26.8426 45.6668C26.7474 45.6633 26.307 45.7258 26.2704 45.758C26.1065 45.9014 26.3795 45.8371 26.3949 45.8419C26.4781 45.8698 26.4659 45.9248 26.5489 45.8197C26.6232 46.144 26.8819 45.639 26.9483 46.0237C27.0168 45.7675 27.0744 45.8967 27.1466 45.9482C27.2464 46.0194 27.1704 45.8701 27.2432 45.869C27.2719 45.8688 27.3551 45.9851 27.3982 45.9689C27.4413 45.9526 27.4595 45.8634 27.5172 45.8585C27.6204 45.8493 27.7034 45.891 27.79 45.9979C27.8059 45.9506 27.8207 45.9033 27.8363 45.856C27.8961 45.9068 27.9562 45.9573 28.016 46.0078C28.0064 45.9665 27.9968 45.9249 27.9873 45.8836C28.0048 45.8776 28.0223 45.8719 28.0398 45.8663C28.098 45.9284 28.1535 45.9859 28.2133 46.0501C28.3758 45.8113 28.3287 46.018 28.419 46.049C28.5093 46.08 28.5615 45.9418 28.6313 45.941C28.7253 45.94 28.7684 45.9227 28.8632 45.9326C28.9181 45.9382 29.0113 46.0717 28.9348 45.8603C29.1063 45.8433 29.3411 45.7844 29.4944 45.8701C29.5397 45.8951 29.4793 45.9617 29.4871 45.97C29.5255 46.0091 29.5579 45.9012 29.5975 45.9167C29.6634 45.9424 29.7918 46.0265 29.8437 46.0462C29.9183 46.0748 30.0357 45.935 30.0477 45.9248C30.1148 45.868 30.1327 45.9841 30.1543 45.9761C30.2769 45.9295 30.304 45.8807 30.3427 46.1256C30.3744 46.0197 30.5074 45.8416 30.5396 46.0198C30.5404 45.8589 30.6508 45.886 30.7188 45.8458C30.7314 45.8923 30.7442 45.9386 30.7568 45.9856C30.8986 45.6976 31.1809 45.9068 31.3675 45.941C31.3721 45.9417 31.3805 45.8211 31.4086 45.8483C31.4104 45.8505 31.4075 45.9047 31.4263 45.9118C31.4883 45.9344 31.7251 46.0697 31.7523 46.0709C31.8526 46.0755 31.8701 45.9855 31.9311 45.977C32.0054 45.9666 32.021 46.0353 32.0833 46.0365L31.8799 45.833C31.8798 45.8379 31.8801 45.8431 31.881 45.8487C31.8861 45.883 31.9928 45.9159 31.9762 45.9711C31.9665 46.0037 31.8824 46.004 31.8747 46.029C31.8468 46.1174 31.8951 46.1883 31.7792 46.2575C32.0434 46.302 31.8436 46.3235 31.8193 46.3593C31.7211 46.5063 31.7988 46.7174 31.7436 46.847C31.5716 47.248 31.2826 47.5216 31.0596 47.8353C31.0229 47.8862 31.1298 47.9688 31.0863 48.0225C31.0665 48.0465 30.9681 48.0202 30.94 48.0599C30.9171 48.0918 30.9256 48.1664 30.8959 48.2069C30.8881 48.2176 30.8138 48.1651 30.802 48.18C30.7124 48.2931 30.6731 48.4438 30.6047 48.5864C30.579 48.6395 30.4672 48.5822 30.6272 48.7185C30.5746 48.6994 30.5275 48.6839 30.4769 48.6632C30.4969 48.7318 30.4753 48.758 30.442 48.7756C30.404 48.7958 30.3517 48.8041 30.3238 48.8554C30.319 48.8657 30.3586 49.0272 30.2544 48.9795C30.3018 49.0374 30.3494 49.0801 30.3936 49.1315C30.378 49.1839 30.2672 49.1652 30.2383 49.1778C30.2093 49.1906 30.2549 49.2789 30.2481 49.2857C30.2217 49.3103 30.148 49.2054 30.1446 49.2055C29.9413 49.2105 30.0001 49.2496 30.0311 49.4645C30.0379 49.5202 29.819 49.4997 29.8714 49.6447C29.8368 49.5936 29.8155 49.5427 29.7858 49.4917C29.7349 49.5056 29.6837 49.5181 29.6328 49.5299C29.6721 49.5755 29.7138 49.6197 29.7532 49.6656C29.6371 49.6755 29.6286 49.8398 29.5468 49.877C29.5004 49.8976 29.4472 49.7776 29.4341 49.8161C29.4315 49.8237 29.4795 49.8987 29.4672 49.9127C29.3651 50.0259 29.2688 49.9662 29.1344 50.0008C29.072 50.0161 29.0713 50.1882 28.9468 50.1183C28.9342 50.1122 28.8073 50.0033 28.8102 50.2153C28.7745 50.1584 28.75 50.1301 28.7225 50.0814C28.6919 50.4043 28.6416 50.1108 28.4809 50.0751C28.3981 50.058 28.1502 50.1538 28.067 50.1942C28.0185 50.2197 28.0318 50.3381 28.0229 50.3439C27.9693 50.377 27.9584 50.2617 27.9092 50.285C27.8599 50.3082 27.8021 50.4431 27.7465 50.4336C27.7045 50.4262 27.7313 50.2813 27.673 50.3335C27.6607 50.3447 27.7009 50.4657 27.6347 50.4197C27.6235 50.4128 27.5202 50.2821 27.5002 50.2532C27.5542 50.1773 27.6995 50.0738 27.7519 50.0394C28.4891 49.6114 29.4679 49.1367 30.1195 48.4535C30.3042 48.273 30.46 48.1004 30.5838 47.9512C30.636 47.888 30.7705 47.9119 30.81 47.8705C30.8488 47.8294 30.7266 47.8077 30.7605 47.771C30.7944 47.7346 30.8827 47.7447 30.9122 47.707C31.1096 47.4558 31.2795 47.1711 31.3811 46.8616C31.4074 46.7807 31.3304 46.6953 31.3446 46.622C31.3501 46.5935 31.4688 46.6144 31.4716 46.593C31.5029 46.3613 31.4064 46.14 31.4247 45.914C31.4269 45.8876 31.4362 45.8606 31.4487 45.833L32.0833 46.4677C32.0025 46.4354 31.9199 46.3806 31.8423 46.3737C31.7536 46.3656 31.6617 46.4351 31.5819 46.4366C31.5386 46.4376 31.5158 46.3457 31.5002 46.3385C31.4456 46.3145 31.4647 46.4267 31.4368 46.4267C31.36 46.4263 31.3217 46.2908 31.2497 46.3014C31.2214 46.3057 31.2251 46.392 31.184 46.4055C31.132 46.4224 31.1512 46.3427 31.1141 46.3399C31.1118 46.3395 31.1191 46.4013 31.0994 46.4038C30.9725 46.42 30.814 46.4687 30.6915 46.4644C30.4383 46.456 30.1883 46.337 29.9523 46.3137C29.8927 46.3081 29.9085 46.3886 29.8896 46.3924C29.7985 46.4108 29.766 46.3145 29.6706 46.3491C29.6547 46.3547 29.5908 46.4662 29.5298 46.4379C29.4969 46.4227 29.4594 46.3532 29.4314 46.337C29.4033 46.3208 29.3988 46.4231 29.3651 46.4232C29.3037 46.4235 29.3215 46.3526 29.2337 46.3653C29.1983 46.3702 29.0801 46.4672 28.989 46.4598C28.8401 46.4478 28.6555 46.3592 28.48 46.3578C28.4198 46.3571 28.3424 46.4623 28.2491 46.4634C28.1349 46.4648 27.9247 46.4408 27.8077 46.4394C27.7479 46.4387 27.7436 46.3286 27.7365 46.324C27.6907 46.2933 27.7092 46.4164 27.6785 46.4116C27.6364 46.4049 27.5971 46.314 27.5589 46.3081C27.5345 46.3042 27.5306 46.3949 27.5253 46.3956C27.3297 46.4256 27.1568 46.4172 26.9623 46.427C25.9194 46.4793 24.8665 46.5957 23.8256 46.5431C23.7384 46.5389 23.7351 46.4245 23.6584 46.4425C23.5817 46.4602 23.5076 46.7072 23.4446 46.4344C23.4425 46.4895 23.4427 46.5287 23.4407 46.5788C23.2822 46.5012 23.1238 46.5816 22.9688 46.5914C22.9511 46.5926 22.9338 46.5933 22.9167 46.5938L23.6774 45.8321C23.68 45.9129 23.675 45.9866 23.674 46.0632C23.6729 46.1426 23.577 46.1443 23.7074 46.2025C23.6596 46.5519 23.7493 46.8796 23.7477 47.2448C23.9677 47.2468 23.874 47.3603 23.8935 47.4753C23.8957 47.4893 23.9574 47.4447 23.9686 47.4834C23.9831 47.5314 23.892 47.6063 23.9385 47.6809C23.9509 47.7023 24.143 47.7849 24.121 47.8704C24.0988 47.9578 24.1182 48.0562 24.1066 48.1474C24.1411 48.1112 24.1727 48.0745 24.2066 48.0385C24.2321 48.0605 24.2579 48.0826 24.2838 48.1038C24.239 48.1424 24.1942 48.1811 24.1493 48.2201C24.2062 48.2027 24.2622 48.1852 24.3191 48.1662C24.1035 48.3826 24.1561 48.2898 24.275 48.3173C24.3341 48.3305 24.3172 48.3934 24.3722 48.4111C24.3923 48.4173 24.4673 48.3679 24.4883 48.3748C24.5396 48.3919 24.4292 48.452 24.449 48.4736C24.4696 48.4953 24.5974 48.4361 24.5886 48.5146C24.374 48.637 24.5446 48.704 24.6829 48.5775C24.6958 48.5901 24.7014 48.606 24.7183 48.617C24.7189 48.6175 24.7197 48.6179 24.7204 48.6184C24.6929 48.6437 24.6695 48.666 24.6498 48.6855C24.6458 48.6895 24.6419 48.6933 24.6382 48.6971C24.4298 48.9081 24.6901 48.7723 24.7552 48.7533C24.8281 48.7335 24.7403 48.8246 24.7506 48.8275C24.7796 48.8356 24.801 48.7838 24.8159 48.7951C24.9131 48.8701 24.9511 49.0038 25.0438 49.0851C25.0571 49.0967 25.0887 49.0306 25.1004 49.0485C25.112 49.0663 25.0844 49.1349 25.1119 49.1493C25.1192 49.1531 25.1587 49.1041 25.1688 49.1114C25.3771 49.2677 25.5628 49.4417 25.8035 49.5624C25.8254 49.5732 25.8885 49.4792 25.9284 49.5008C25.968 49.5223 25.9947 49.6423 26.047 49.6703C26.0608 49.6778 26.0972 49.592 26.1151 49.6012C26.1758 49.6323 26.2078 49.7232 26.2741 49.7565C26.3866 49.8127 26.5242 49.789 26.6356 49.8676C26.6569 49.8824 26.6381 49.9579 26.6687 49.986C26.7221 50.0343 26.7195 49.9185 26.7341 49.9057C26.7811 49.8642 26.7689 50.0147 26.8138 49.9825C26.8205 49.9775 26.8257 49.8879 26.8311 49.8873C26.9126 49.8837 26.8909 50.0919 26.9921 49.9907C27.058 50.1189 26.9214 50.1453 26.8985 50.2063C26.8435 50.3558 26.9146 50.549 26.968 50.6131C27.0133 50.6683 27.022 50.5719 27.0416 50.5736C27.1465 50.583 27.3016 50.5721 27.3807 50.6192C27.4286 50.6478 27.34 50.6861 27.3641 50.7184C27.3885 50.7507 27.4056 50.6784 27.4302 50.7581C27.4543 50.8379 27.5089 51.0716 27.4987 51.1831ZM24.2037 45.5864C24.0487 45.9675 23.6376 45.9277 23.4169 45.8914C23.2339 45.861 23.076 45.5674 23.1139 45.9929C23.3118 45.9958 23.4719 45.9531 23.6811 45.9661C23.7029 45.9675 23.8327 46.007 23.8779 46.0141C23.9033 46.018 23.9041 46.0883 23.9387 46.0876C23.9462 46.0872 23.9879 45.9954 24.0032 45.9979C24.0555 46.006 24.2109 46.147 24.2326 46.1429C24.2928 46.1309 24.2697 46.0217 24.2957 46.0018C24.3829 45.9362 24.3925 46.1003 24.479 46.047C24.4944 46.0375 24.5457 45.8945 24.6098 45.9132C24.6358 45.9209 24.6802 45.9948 24.7001 45.9912C24.8087 45.9722 24.93 45.8744 25.0294 45.8906C25.111 45.904 25.0891 46.0144 25.1322 46.0293C25.1753 46.0437 25.2274 45.9157 25.2569 45.9082C25.304 45.8966 25.3614 45.9693 25.3761 45.9683C25.6645 45.9467 25.921 45.8624 26.1993 45.8321C26.0103 45.7816 25.8215 45.7353 25.6338 45.6831C25.5272 45.7974 25.5803 45.6902 25.5101 45.6546C25.4546 45.6263 25.4411 45.82 25.3681 45.7985C25.3682 45.7985 25.3683 45.7985 25.3683 45.7985C25.3307 45.7873 25.2491 45.6531 25.169 45.7092C25.1661 45.7114 25.159 45.8119 25.099 45.8154C24.9641 45.8232 24.7575 45.8747 24.6057 45.8532C24.5612 45.8469 24.5703 45.7413 24.5176 45.7283C24.4791 45.7188 24.4346 45.8164 24.3745 45.7946C24.299 45.7667 24.2628 45.5988 24.2109 45.8321C24.2066 45.7488 24.2088 45.6676 24.2037 45.5864ZM23.7553 48.5514C23.7529 48.5645 23.6372 48.8403 23.8297 48.6347C23.8074 48.4109 23.6434 48.2783 23.6007 48.0724C23.3985 48.2708 23.5553 48.3199 23.652 48.4239C23.652 48.424 23.652 48.424 23.6521 48.4241C23.6567 48.4291 23.5814 48.4467 23.6142 48.471C23.6304 48.4833 23.7607 48.4767 23.7553 48.5514ZM20.6224 44.3081C20.2719 44.4018 19.8667 44.3864 19.5019 44.209C19.4193 44.1684 19.4545 44.1039 19.425 44.0795C19.3719 44.0351 19.237 44.0572 19.222 44.0493C19.1321 44.0051 19.2259 43.9108 19.2163 43.9006C19.1157 43.7875 19.0812 43.9334 18.953 43.8702C18.7869 43.7865 18.616 43.6204 18.4699 43.4665C18.4551 43.4508 18.4522 43.4358 18.4528 43.42C18.4544 43.3807 18.4761 43.3381 18.3964 43.2594C18.317 43.1881 18.0088 42.9632 18.0312 42.7567C18.069 42.7339 18.1212 42.7269 18.1645 42.7106C17.8963 42.6087 17.851 42.5135 17.7898 42.1901C17.7813 42.1393 17.694 42.1121 17.6988 42.0155C17.7054 41.9196 17.8154 41.8917 17.7864 41.7217C17.7769 41.6614 17.6901 41.6344 17.6778 41.5387C17.6677 41.459 17.6689 41.3576 17.6798 41.2512C17.7029 40.9947 17.7967 40.7018 17.8369 40.5509C17.9476 40.1343 17.9374 39.8359 18.2092 39.5272C18.23 39.5045 18.2641 39.611 18.2978 39.5674C18.3312 39.5244 18.2735 39.4051 18.2805 39.392C18.321 39.3127 18.448 39.235 18.5572 39.1804C18.6398 39.1383 18.7132 39.1061 18.734 39.077C18.856 38.9138 18.6652 38.9959 18.8796 38.8053C19.0928 38.6204 19.5099 38.5891 19.7603 38.5506C20.0482 38.5045 20.1217 38.2706 20.3642 38.4827C20.4514 38.4739 20.5385 38.469 20.625 38.4676C21.1876 38.4564 21.7517 38.4486 22.3144 38.438C22.3126 38.4849 22.3105 38.5318 22.3083 38.5787C22.3587 38.5463 22.409 38.5138 22.4593 38.4817C22.4517 38.5166 22.4445 38.5515 22.4369 38.5861C22.6733 38.4513 22.884 38.3818 23.1602 38.4188C23.1656 38.4195 23.1514 38.5131 23.1559 38.5155C23.2182 38.5332 23.2878 38.4612 23.3424 38.4781C23.4746 38.5187 23.6991 38.7227 23.6002 38.4732C23.9084 38.5247 24.2704 38.4404 24.564 38.4887C24.6911 38.5095 24.7292 38.6574 24.79 38.6659C24.8507 38.6744 24.8198 38.5473 24.8414 38.5424C24.971 38.5142 25.1843 38.5194 25.2068 38.6616C25.2329 38.6048 25.2604 38.5473 25.2869 38.4902C25.2714 38.6479 25.6719 38.5827 25.777 38.5865C25.7962 38.5872 25.7989 38.6564 25.8134 38.6557C25.9748 38.6468 26.0142 38.5385 26.1525 38.5025C26.201 38.4898 26.1258 38.6116 26.2503 38.559C26.2612 38.5544 26.2554 38.445 26.4042 38.4457C26.6418 38.4467 27.0961 38.4033 27.3789 38.4573C27.4021 38.4615 27.3315 38.5808 27.4375 38.553C27.4759 38.5431 27.4575 38.4584 27.5506 38.4577C27.9112 38.4542 28.2957 38.5516 28.6636 38.4708C28.6502 38.5664 28.5192 38.6737 28.7161 38.6137C28.7476 38.6038 28.7241 38.5184 28.7382 38.5152C28.8526 38.4905 28.9518 38.5515 29.0756 38.5187C29.1122 38.5088 29.1213 38.4418 29.1669 38.4259C29.2342 38.4023 29.264 38.4979 29.3422 38.4573C29.4645 38.3934 29.4834 38.3028 29.6351 38.4806C30.4947 38.4693 31.3502 38.4192 32.2069 38.4976C32.4546 38.4468 32.6831 38.39 32.9412 38.3706C33.0173 38.3649 33.0318 38.4863 33.1531 38.4461C33.1802 38.4373 33.374 38.307 33.4022 38.5523C33.4562 38.5311 33.4903 38.5304 33.5366 38.5173C33.5015 38.4813 33.4652 38.4449 33.4316 38.4086C33.6271 38.4478 33.7867 38.3613 33.9598 38.3204C34.0872 38.2904 33.9968 38.3956 34.0749 38.385C34.1531 38.3748 34.1887 38.3511 34.2865 38.4771C34.3176 38.4181 34.3445 38.3998 34.375 38.3992C34.4287 38.3985 34.4898 38.4358 34.5899 38.4445C34.6076 38.4458 34.7187 38.3976 34.8076 38.4215C34.8715 38.4388 34.8754 38.5303 34.9769 38.5359C34.9918 38.5347 35.232 38.4772 35.306 38.4928C35.4211 38.5109 35.5409 38.6877 35.5572 38.6978C35.8202 38.8437 35.9896 38.8258 36.0438 39.1028C36.1423 39.0403 36.3205 39.1025 36.4169 39.21C36.4196 39.213 36.4223 39.216 36.4248 39.219C36.5561 39.3622 36.5816 39.7827 36.8076 39.6959C36.8282 39.9384 36.8754 39.8795 36.9841 40.115C37.0982 40.3325 37.1191 40.9448 37.1232 41.1152C37.1383 41.2597 37.2289 41.2276 37.2722 41.2511C37.2814 41.2563 37.2884 41.2642 37.2914 41.2773C37.3191 41.3983 37.2212 41.3308 37.2192 41.4117C37.2112 41.6416 37.1993 41.8456 37.1793 42.0812C37.1087 42.0745 37.0376 42.0676 36.9672 42.0594C36.9864 42.0767 37.0055 42.0942 37.0244 42.1121C37.0097 42.1574 36.9938 42.2086 36.9765 42.2494C37.3941 41.9863 36.8331 42.605 36.6909 42.7522C36.6055 42.8777 36.5369 43.1294 36.4318 43.3058C36.412 43.3397 36.3916 43.3706 36.3704 43.3975C36.3384 43.4379 36.3127 43.3586 36.3063 43.3669C36.2314 43.4632 36.2509 43.5169 36.1126 43.6133C36.0379 43.664 35.9106 43.6354 35.8383 43.6768C35.385 43.9408 34.8796 44.1231 34.3722 44.146C34.3016 44.1507 34.2279 44.1542 34.154 44.1557C34.07 44.1575 33.9975 44.0421 33.9269 44.0396C33.8259 44.0361 33.7622 44.1305 33.6673 44.132C33.5728 44.1334 33.4366 44.0205 33.3725 44.0378C33.3084 44.0547 33.4181 44.1641 33.3008 44.1341C33.2469 44.1203 33.3421 44.0389 33.2755 44.0364C33.0677 44.0286 32.7744 44.1295 32.5532 44.0318C32.5629 44.0561 32.5763 44.078 32.5882 44.1013C32.3525 44.0918 32.1443 44.0332 31.901 44.0247C31.8159 44.0216 31.6624 44.0931 31.5788 44.0928C31.4952 44.0924 31.4571 44.0148 31.3902 44.0127C31.3626 44.0116 31.3734 44.0812 31.3549 44.0798C31.124 44.0614 30.9972 43.9376 30.7554 43.9517C29.8694 44.0032 28.9558 44.0477 28.056 44.0943C28.0198 44.0961 27.9955 44.1867 27.9426 44.2001C27.8612 44.2209 27.8573 44.1408 27.8464 44.138C27.7755 44.1203 27.8044 44.1945 27.7092 44.1945C27.4995 44.1945 27.1613 44.1288 26.9524 44.1344C26.4708 44.1475 26.066 44.2181 25.5939 44.2537C25.5599 44.2566 25.5829 44.1493 25.5239 44.1479C25.108 44.1366 25.0199 44.2393 24.5022 44.2104C23.9844 44.1814 23.0071 44.1165 22.401 44.1016C22.401 44.1014 22.401 44.1011 22.401 44.1009C22.2102 44.2992 21.9633 44.2499 21.7584 44.0999C22.9402 43.6108 24.071 43.8285 25.3332 43.8091C26.6599 43.789 28.0741 43.4336 29.4185 43.4819C29.5449 43.4865 29.5957 43.5994 29.7021 43.5758C29.7201 43.5718 29.6735 43.4848 29.7289 43.4759C30.4892 43.3574 31.2999 43.5557 32.0465 43.5007C32.2478 43.4859 32.2794 43.3888 32.4565 43.3638C32.4253 43.4096 32.405 43.4576 32.3778 43.5038C33.0413 43.6214 33.7055 43.5994 34.375 43.5991C34.5238 43.5998 34.6735 43.59 34.8225 43.5687C34.8597 43.5634 34.882 43.6559 34.9235 43.6512C35.0076 43.6416 35.0576 43.5205 35.1218 43.4968C35.2063 43.465 35.247 43.5305 35.326 43.4938C35.364 43.4751 35.3244 43.4142 35.4101 43.3882C35.4172 43.3859 35.4547 43.4531 35.5052 43.4164C35.6476 43.3199 35.878 43.0701 35.9555 42.9636C35.9759 42.9381 35.9982 42.917 36.0218 42.8987C36.1203 42.8226 36.2421 42.7941 36.2806 42.7552C36.4061 42.6241 36.3062 42.5591 36.3814 42.4362C36.5942 42.0755 36.7102 41.6669 36.7361 41.2498C36.7856 40.6466 36.5945 39.9723 36.1179 39.509C36.1134 39.5045 36.1088 39.4999 36.1042 39.4954C36.0538 39.4418 35.7772 39.3757 35.6786 39.3079C35.6478 39.281 35.4755 39.1418 35.445 39.1267C35.3309 39.0579 35.2472 38.9436 35.1776 38.9038C35.0413 38.8249 34.8507 38.9139 34.7746 38.9158C34.6562 38.9152 34.4646 38.8949 34.375 38.8913C34.3604 38.8904 34.3487 38.8897 34.3408 38.8893C34.2061 38.8815 34.2506 38.7287 34.1539 38.7644C34.1253 38.775 34.1552 38.8921 34.0546 38.8921C33.9703 38.8917 33.9362 38.8036 33.8786 38.7877C33.8211 38.7719 33.7155 38.9083 33.6796 38.9049C33.492 38.8858 33.409 38.7964 33.2048 38.7918C33.0352 38.7883 32.2514 38.8508 32.1862 38.883C31.8944 39.0264 32.3805 38.9621 32.4079 38.9669C32.5559 38.9948 32.5343 39.0498 32.682 38.9447C32.8142 39.269 33.2748 38.764 33.3928 39.1487C33.5148 38.8925 33.6173 39.0217 33.7459 39.0732C33.9235 39.1444 33.7883 38.9951 33.9179 38.994C33.969 38.9938 34.117 39.1101 34.1938 39.0939C34.2623 39.0794 34.2954 39.0066 34.375 38.9877C34.3844 38.9855 34.3945 38.984 34.4054 38.9836C34.5871 38.9767 34.7355 39.0363 34.8547 39.1696C34.8899 39.1286 34.9249 39.0879 34.9629 39.0485C35.0533 39.1227 35.1353 39.2023 35.2068 39.2858C35.2079 39.2417 35.208 39.197 35.207 39.1525C35.2376 39.1576 35.2681 39.1638 35.2985 39.1707C35.3676 39.268 35.424 39.3623 35.4722 39.4671C35.827 39.4146 35.6495 39.5491 35.7391 39.6617C35.7772 39.7121 35.8253 39.7341 35.8764 39.7506C35.9452 39.7727 36.0189 39.7846 36.0635 39.8366C36.1655 39.9585 36.2228 40.0095 36.2955 40.1537C36.3384 40.2384 36.2812 40.4377 36.4171 40.2293C36.5717 40.4852 36.7155 40.9061 36.6289 41.1806C36.6052 41.2599 36.5369 41.1564 36.5287 41.1704C36.5129 41.1985 36.523 41.2234 36.5386 41.2494C36.5598 41.2844 36.5911 41.3206 36.5805 41.3597C36.5522 41.4748 36.4394 41.6761 36.3999 41.7509C36.3495 41.8589 36.4164 42.0838 36.4155 42.1094C36.4236 42.2386 36.3026 42.2165 36.2945 42.2512C36.241 42.4521 36.2423 42.5237 36.0097 42.4303C36.0735 42.5288 36.0558 42.8256 35.8872 42.7388C35.9088 42.7603 35.9211 42.7818 35.9259 42.8034C35.9473 42.8967 35.8325 42.9879 35.7755 43.0721C35.7293 43.0492 35.6838 43.0254 35.6392 42.9999C35.6159 43.3919 35.0181 43.4278 34.7157 43.4124C34.708 43.4126 34.7085 43.5346 34.6556 43.5128C34.6523 43.5108 34.6517 43.4566 34.6188 43.4526C34.5734 43.4473 34.4748 43.4248 34.3757 43.3933C34.2288 43.3504 34.074 43.3041 34.0457 43.3034C33.8672 43.2988 33.836 43.3888 33.7274 43.3973C33.5844 43.4086 33.5637 43.3274 33.4276 43.339C33.3639 43.3443 33.3059 43.4512 33.2057 43.4361C33.1463 43.4273 33.1404 43.3433 33.0934 43.3365C32.9262 43.3122 32.8033 43.3652 32.6548 43.2558C32.6161 43.5229 32.5452 43.326 32.4717 43.3059C32.1733 43.2237 31.8015 43.3365 31.5455 43.3122C30.7468 43.2356 30.0385 43.0709 29.2582 43.0338C29.1315 43.0278 29.101 43.1619 28.9681 43.1535C28.9084 43.1495 28.8468 43.0524 28.749 43.051C28.6705 43.0496 28.5579 43.099 28.4598 43.0987C28.4338 43.0987 28.4315 43.0076 28.3931 43.0069C28.102 43.0016 27.8177 43.0663 27.5237 43.1107C27.4148 43.1273 27.3474 43.0066 27.3659 43.2166C27.3242 43.1651 27.2837 43.1202 27.2446 43.0694C27.0947 43.2017 26.9723 43.0638 26.7695 43.0977C26.7477 43.1017 26.5946 43.2469 26.5077 43.1421C26.5016 43.2169 26.5151 43.2804 26.5125 43.3482C26.4267 43.3768 26.2949 43.2904 26.237 43.2815C26.1791 43.2727 26.1404 43.3699 26.123 43.3708C26.0567 43.3733 26.0721 43.2455 26.0671 43.2434C25.7583 43.121 25.7908 43.189 25.6043 43.3806C25.5576 43.429 25.2406 43.2886 25.1764 43.4399C25.1736 43.3782 25.1912 43.3239 25.1963 43.265C25.1011 43.2491 25.0051 43.2328 24.9095 43.2169C24.9298 43.2762 24.9541 43.3355 24.9726 43.3952C24.7775 43.3437 24.6152 43.4834 24.4556 43.4788C24.3643 43.476 24.3754 43.345 24.3218 43.3736C24.3114 43.3793 24.3291 43.4678 24.298 43.4749C24.0442 43.5324 23.933 43.4389 23.6788 43.4212C23.5597 43.4128 23.4554 43.5737 23.2845 43.4678C23.2689 43.4579 23.1013 43.3151 22.9978 43.5197C22.9648 43.4551 22.9358 43.4212 22.9111 43.3669C22.7015 43.6707 22.7594 43.3729 22.4759 43.3024C22.3292 43.2657 21.8357 43.3189 21.6761 43.3514C21.581 43.3712 21.5827 43.4906 21.5657 43.4954C21.4644 43.5229 21.4643 43.4071 21.3706 43.4262C21.2768 43.4452 21.1583 43.5762 21.062 43.5642C20.9882 43.5549 21.0464 43.4111 20.9374 43.4612C20.9148 43.472 20.9793 43.5941 20.8644 43.5462C20.8463 43.5388 20.6627 43.4068 20.625 43.3782C20.7217 43.3016 21.0019 43.2017 21.1073 43.1707C22.9217 42.6343 26.5766 42.6287 28.5141 42.6961C28.6941 42.7021 28.8117 42.8277 28.929 42.8387C29.0463 42.8496 28.9471 42.7345 29.0536 42.744C29.16 42.7539 29.2376 42.8351 29.3372 42.8422C30.0084 42.8902 30.6848 42.941 31.3506 42.9632C31.5233 42.9689 31.6614 42.8753 31.8185 42.8753C31.8797 42.8754 31.8815 42.996 31.925 42.9949C32.3931 42.9854 32.8262 42.8693 33.2918 42.8834C33.4852 42.8894 33.6941 42.9911 33.8856 43.0006C34.0434 43.0087 34.2071 42.9392 34.349 42.9378C34.3582 42.9377 34.3668 42.9389 34.375 42.9411C34.4253 42.9576 34.4548 43.0286 34.4751 43.0342C34.5552 43.0545 34.5207 42.9436 34.5587 42.9409C34.6611 42.9321 34.7342 43.058 34.8334 43.0259C34.8713 43.0127 34.8463 42.9303 34.8946 42.9032C34.955 42.8678 34.9543 42.9511 35.0032 42.9379C35.0061 42.9373 34.9771 42.8821 35.0004 42.8712C35.1531 42.8009 35.2997 42.6594 35.4224 42.5625C35.4703 42.5255 35.5193 42.4882 35.5692 42.4492C35.787 42.2802 36 42.0923 36.0995 41.8395C36.1291 41.7613 36.0444 41.761 36.0475 41.7356C36.0584 41.6146 36.1615 41.5856 36.1415 41.4456C36.1383 41.4219 36.0384 41.3307 36.0601 41.2482C36.0606 41.2464 36.0611 41.2446 36.0617 41.2428C36.077 41.1971 36.1447 41.1417 36.1582 41.1001C36.1715 41.0583 36.0691 41.0603 36.0642 41.0153C36.0534 40.9334 36.1287 40.9459 36.0931 40.8297C36.0787 40.7804 35.9461 40.6578 35.907 40.5543C35.8511 40.3938 35.7952 40.1645 35.6367 39.9902C35.6248 39.977 35.6126 39.9643 35.5999 39.9522C35.5377 39.8923 35.3914 39.9057 35.2942 39.8435C35.1761 39.7613 34.9419 39.6367 34.7888 39.607C34.7131 39.5903 34.7243 39.4819 34.7151 39.4754C34.6554 39.4352 34.6639 39.561 34.6232 39.5509C34.5678 39.5375 34.5188 39.4428 34.462 39.4347C34.426 39.4296 34.4185 39.5204 34.4111 39.5209C34.3991 39.522 34.3871 39.5232 34.375 39.5243C34.045 39.5499 33.7489 39.5426 33.4178 39.552C31.5614 39.6043 29.6872 39.7207 27.8345 39.6681C27.6791 39.6639 27.6733 39.5495 27.5368 39.5675C27.4003 39.5852 27.2684 39.8322 27.1562 39.5594C27.1526 39.6145 27.1529 39.6537 27.1493 39.7038C26.8672 39.6262 26.5852 39.7066 26.3093 39.7164C26.1051 39.7238 25.924 39.7151 25.7354 39.7091C25.5682 39.7034 25.5826 39.6075 25.4379 39.7327C24.7184 39.6543 23.9912 39.6734 23.2779 39.5432C23.1106 39.7482 22.9503 39.619 22.7189 39.5887C22.6903 39.5848 22.721 39.6597 22.6363 39.6533C22.5299 39.6455 22.4748 39.5312 22.2957 39.5375C22.2483 39.5393 21.8969 39.666 21.767 39.6011C21.637 39.5361 21.4487 39.498 21.3136 39.4359C21.3328 39.485 21.3571 39.5319 21.3785 39.5802C21.3111 39.5887 21.2434 39.5969 21.1761 39.6053C21.1663 39.5464 21.1565 39.4874 21.1471 39.4281C21.108 39.4842 21.0689 39.5397 21.0294 39.5965C20.9443 39.2937 21.0316 39.3925 20.8422 39.469C20.7643 39.5003 20.6996 39.4703 20.625 39.4755C20.6117 39.4767 20.598 39.4796 20.5841 39.4853C20.5555 39.4972 20.5411 39.5869 20.5125 39.5998C20.4428 39.6317 20.4759 39.5065 20.4301 39.5109C20.3821 39.5165 20.3383 39.657 20.2533 39.6126C20.2943 39.3582 20.0526 39.4909 20.1032 39.6754C20.0778 39.6835 20.054 39.6831 20.028 39.698C19.8983 39.2426 19.8565 39.6162 19.8425 39.6983C19.8208 39.7813 19.7642 39.6688 19.7538 39.6799C19.7253 39.7116 19.7766 39.7431 19.7538 39.7582C19.6315 39.8394 19.487 39.8878 19.3583 39.9842C19.3307 40.0049 19.3047 40.0272 19.2809 40.0517C19.2617 40.0716 19.3312 40.1012 19.3054 40.1198C19.28 40.1383 19.2055 40.1162 19.1802 40.157C19.1734 40.1679 19.2212 40.2089 19.2101 40.224C18.9937 40.5135 18.8469 40.8373 18.8333 41.2485C18.8323 41.2827 18.8322 41.3167 18.8332 41.3506C18.8346 41.3912 18.9475 41.4139 18.9516 41.4847C18.9554 41.5547 18.8752 41.6811 18.8929 41.7732C18.8974 41.7974 18.9886 41.7776 18.9951 41.8069C19.0178 41.9065 18.9823 42.0194 19.0252 42.1261C19.0893 42.2832 19.2276 42.3991 19.3339 42.5419C19.3496 42.563 19.3644 42.5845 19.3785 42.6071C19.3998 42.6405 19.3428 42.6942 19.3727 42.7487C19.4262 42.842 19.4678 42.7287 19.4923 42.729C19.5706 42.7272 19.4991 42.8612 19.5737 42.8642C19.5849 42.8644 19.6226 42.7824 19.6302 42.7857C19.7409 42.8365 19.6519 43.0272 19.8283 42.9856C19.8983 43.1467 19.6837 43.0992 19.6313 43.1408C19.5033 43.2489 19.5684 43.4908 19.6541 43.5865C19.7245 43.6682 19.7578 43.5761 19.792 43.588C19.9773 43.654 20.2622 43.6838 20.4054 43.7374C20.4936 43.7714 20.3276 43.7994 20.3711 43.8346C20.4158 43.8701 20.4498 43.7994 20.4944 43.8808C20.5372 43.9626 20.6417 44.1968 20.6224 44.3081ZM28.5075 38.7114C28.2316 39.0925 27.4999 39.0527 27.107 39.0164C26.7811 38.986 26.5002 38.6924 26.5676 39.1179C26.9198 39.1208 27.2048 39.0781 27.5773 39.0911C27.6161 39.0925 27.8471 39.132 27.9275 39.1391C27.9728 39.143 27.9742 39.2133 28.0358 39.2126C28.0492 39.2122 28.1234 39.1204 28.1506 39.1229C28.2436 39.131 28.5203 39.272 28.5589 39.2679C28.666 39.2559 28.6249 39.1467 28.6711 39.1268C28.8265 39.0612 28.8436 39.2253 28.9975 39.172C29.025 39.1625 29.1162 39.0195 29.2303 39.0382C29.2767 39.0459 29.3556 39.1198 29.3911 39.1162C29.5844 39.0972 29.8002 38.9994 29.9773 39.0156C30.1224 39.029 30.0834 39.1394 30.1602 39.1543C30.2369 39.1687 30.3296 39.0407 30.3821 39.0332C30.4661 39.0216 30.5682 39.0943 30.5943 39.0933C31.1077 39.0717 31.5643 38.9874 32.0596 38.9571C31.7232 38.9066 31.3872 38.8603 31.053 38.8081C30.8633 38.9224 30.9577 38.8152 30.8329 38.7796C30.734 38.7513 30.7101 38.945 30.5802 38.9235C30.5803 38.9235 30.5804 38.9235 30.5805 38.9235C30.5135 38.9123 30.3683 38.7781 30.2257 38.8342C30.2206 38.8364 30.2079 38.9369 30.1011 38.9404C29.861 38.9482 29.4932 38.9997 29.2231 38.9782C29.1438 38.9719 29.16 38.8663 29.0662 38.8533C28.9978 38.8438 28.9185 38.9414 28.8114 38.9196C28.6771 38.8917 28.6126 38.7238 28.5203 38.9571C28.5127 38.8738 28.5165 38.7926 28.5075 38.7114ZM21.0877 38.9144C21.0688 38.9051 20.8161 38.6448 20.8911 38.9228C21.2307 39.0435 21.5979 38.9835 21.9553 39.0513C21.8332 38.7764 21.6268 38.8847 21.3762 38.9049C21.3761 38.9049 21.376 38.9049 21.3759 38.9049C21.3641 38.9058 21.4135 38.8339 21.3463 38.847C21.3137 38.8533 21.1887 38.9634 21.0877 38.9144ZM18.5098 37.3227C17.8268 37.0249 17.1813 36.6398 16.5971 36.1414C16.4643 36.0277 16.5218 35.9806 16.4727 35.9274C16.3827 35.8299 16.1625 35.7513 16.1385 35.7313C15.9894 35.6098 16.1282 35.5605 16.1113 35.5404C15.9249 35.3169 15.895 35.48 15.6777 35.3092C15.3955 35.0859 15.0749 34.7524 14.776 34.44C14.6716 34.3296 14.7861 34.3119 14.5551 34.0816C14.3907 33.9213 13.8338 33.461 13.719 33.1313C13.7519 33.1018 13.8156 33.1026 13.8616 33.0868C13.4261 32.8435 13.3218 32.7046 12.9702 32.1424C12.9153 32.0533 12.7957 32.0154 12.7142 31.8471C12.6335 31.6781 12.7243 31.6082 12.5232 31.2997C12.4522 31.19 12.34 31.1669 12.2317 30.9969C12.1777 30.912 12.1193 30.8117 12.0587 30.7007C11.7699 30.1801 11.4666 29.4265 11.3112 29.0732C10.9382 28.2308 10.6306 27.8035 10.4271 27.0003C10.4118 26.9387 10.5387 27.045 10.5063 26.9337C10.4738 26.8219 10.3253 26.7383 10.3145 26.7111C10.1942 26.4185 10.1928 25.7402 10.1405 25.5767C10.0084 25.1754 10.0371 25.5929 9.90497 25.0225C9.78082 24.4763 9.83875 23.6935 9.83165 23.1485C9.82374 22.5173 9.59575 22.3151 9.82673 21.8362C9.82648 21.8142 9.82627 21.7923 9.8261 21.7703C9.81186 20.1278 10.0009 18.4675 10.4299 16.8662C10.4739 16.8832 10.5177 16.901 10.5614 16.9189C10.565 16.7831 10.57 16.6475 10.5773 16.5113C10.605 16.5405 10.6331 16.5687 10.6606 16.5975C10.7082 15.9672 10.8276 15.4104 11.1467 14.7523C11.1529 14.7394 11.2243 14.8106 11.2311 14.8006C11.3113 14.6572 11.32 14.4608 11.396 14.3369C11.5769 14.0348 12.0294 13.6087 11.6888 13.7243C12.1011 13.0262 12.5317 12.1704 13.0253 11.5722C13.2379 11.3138 13.4175 11.3248 13.5201 11.2049C13.6235 11.0852 13.4741 11.0707 13.505 11.0231C13.6899 10.7373 14.0574 10.3143 14.204 10.3647C14.2055 10.2765 14.2098 10.1847 14.2132 10.0949C14.2909 10.2099 14.7938 9.6111 15.065 9.33544C15.1055 9.29325 15.1401 9.25812 15.1661 9.23323C15.2022 9.1986 15.2556 9.24311 15.282 9.21634C15.5764 8.91899 15.5779 8.77085 15.824 8.50116C15.9107 8.40757 15.8435 8.62815 16.0533 8.37482C16.0721 8.35334 15.9873 8.2777 16.2873 8.02757C16.7623 7.62336 17.7079 6.87924 18.3788 6.54505C18.433 6.51721 18.3365 6.71456 18.5601 6.54744C18.6417 6.48776 18.5564 6.43843 18.7684 6.31529C19.5936 5.8371 20.5515 5.50091 21.435 5.10183C21.4333 5.2042 21.1483 5.41955 21.6123 5.19097C21.6868 5.15478 21.601 5.09405 21.6349 5.07901C21.9119 4.95831 22.1786 4.93808 22.4815 4.81754C22.5711 4.78194 22.5761 4.71082 22.6885 4.66399C22.8542 4.59536 22.9538 4.66834 23.1442 4.5805C23.442 4.44508 23.4758 4.34358 23.9022 4.44032C25.0901 4.20439 26.2966 4.0826 27.4998 4.07976C28.5416 4.07708 29.5861 4.16383 30.6095 4.36868C31.2589 4.42459 31.8626 4.49764 32.5265 4.66364C32.7219 4.71373 32.7245 4.83945 33.0412 4.89681C33.1113 4.90767 33.6417 4.95048 33.6272 5.20838C33.7674 5.23684 33.8513 5.26774 33.9696 5.29943C33.8965 5.23251 33.8201 5.16478 33.749 5.09991C34.2196 5.31558 34.6404 5.39994 35.0756 5.55755C35.3947 5.67565 35.1322 5.66701 35.3232 5.74782C35.5132 5.83023 35.6097 5.85215 35.7786 6.08422C36.0254 6.05204 36.0975 6.20552 36.4169 6.39696C36.4512 6.41735 36.6802 6.48785 36.8388 6.60104C36.9529 6.68261 36.9391 6.78053 37.131 6.88979C37.1628 6.90651 37.6128 7.07655 37.7405 7.15756C37.9402 7.27916 38.1647 7.59566 38.1982 7.62412C38.6968 8.03882 38.9629 8.11993 39.1814 8.56557C39.3256 8.54335 39.6558 8.75526 39.8712 8.98093C39.9296 9.04175 39.9938 9.12284 40.0606 9.21222C40.3065 9.5388 40.5699 9.97413 40.7677 9.91025C40.9904 10.3222 41.0088 10.2387 41.3557 10.6536C41.6803 11.0265 42.361 12.14 42.5724 12.4756C42.7931 12.8065 42.8058 12.5718 42.904 12.6988C43.0631 12.9083 42.9056 12.8373 42.9961 12.9905C43.2504 13.4254 43.4682 13.8053 43.712 14.2243C43.6596 14.2774 43.6076 14.332 43.5553 14.3854C43.5867 14.3981 43.6182 14.4108 43.6496 14.4237C43.6916 14.5178 43.7396 14.6228 43.7754 14.7112C43.7315 13.847 44.074 15.437 44.1984 15.8887C44.3244 16.2664 44.6537 16.8652 44.7876 17.2901C44.8206 17.3928 44.7297 17.3387 44.7366 17.3598C44.8171 17.6054 44.8775 17.6335 44.9412 17.9757C44.9742 18.1576 44.9156 18.3589 44.9437 18.5348C45.1179 19.6215 45.2644 20.6834 45.2914 21.7709C45.2965 21.976 45.2969 22.182 45.2918 22.3888C45.2862 22.6115 45.1611 22.7965 45.1466 22.981C45.1254 23.2454 45.2052 23.4206 45.1811 23.6707C45.1576 23.9201 44.9988 24.262 44.9905 24.4305C44.9819 24.6001 45.1342 24.3301 45.0569 24.6323C45.0206 24.7706 44.9802 24.5099 44.9498 24.6826C44.857 25.2196 44.7895 26.0017 44.5343 26.5375C44.5647 26.5193 44.5952 26.4913 44.6261 26.467C44.4503 27.0656 44.2212 27.5694 43.9797 28.1616C43.8959 28.3686 43.804 28.7691 43.7114 28.9701C43.6196 29.1713 43.5063 29.2285 43.4277 29.3856C43.395 29.4501 43.4698 29.4554 43.4471 29.4984C43.2052 29.9497 42.9744 30.1846 42.7248 30.5734C42.6766 30.6478 42.6275 30.7278 42.5768 30.8157C41.4264 32.825 39.8198 34.6761 37.9313 36.113C37.8555 36.1709 37.8569 36.2821 37.7505 36.3743C37.5861 36.516 37.5314 36.4553 37.5064 36.4694C37.3418 36.5608 37.4473 36.5795 37.2375 36.7195C37.016 36.8665 36.7173 37.0384 36.4118 37.202L36.2749 37.2864L36.0938 37.2893C35.7294 37.2729 35.3615 37.2565 35.0833 37.2594C33.8521 37.2725 32.8172 37.3431 31.6101 37.3787C31.523 37.3816 31.582 37.2743 31.4312 37.2729C30.3677 37.2616 30.1425 37.3643 28.8188 37.3354C27.495 37.3064 24.9964 37.2415 23.4468 37.2266C23.4468 37.2264 23.4468 37.2261 23.4468 37.2259C22.959 37.4242 22.3279 37.3749 21.8039 37.2249C24.8255 36.7358 27.7165 36.9535 30.9436 36.9341C32.6217 36.9241 34.3547 36.8321 36.0938 36.7475L36.1174 36.7471L36.1352 36.7361C37.6273 35.7516 38.9652 34.5654 40.1439 33.3003C40.3626 33.0648 40.5328 33.0398 40.6903 32.8155C40.7167 32.7776 40.5738 32.8132 40.6572 32.6991C41.2149 31.9353 41.7854 31.1496 42.3003 30.3243C42.841 29.4597 43.314 28.5487 43.6245 27.6225C43.785 27.1342 43.7166 27.0268 43.8232 26.5916C43.8447 26.6802 43.8754 26.7436 43.8991 26.8234C44.5203 25.2291 44.7472 23.4957 44.7453 21.7705C44.7455 21.4059 44.7371 21.0432 44.7207 20.6779C44.7165 20.5834 44.8106 20.5656 44.8077 20.466C44.802 20.2651 44.6822 20.0841 44.6621 19.9115C44.6353 19.686 44.7061 19.6401 44.6762 19.4314C44.6609 19.33 44.5936 19.3692 44.5759 19.1484C44.5743 19.1299 44.6485 19.107 44.6171 18.9616C44.5354 18.5628 44.3105 17.7644 44.2079 17.4468C44.0833 17.0395 44.0956 16.6803 44.055 16.5218C43.9432 16.0974 43.8332 16.143 43.7105 15.7959C42.86 13.4421 41.5956 11.3163 39.7841 9.48867C39.6989 9.40274 39.6127 9.31782 39.5256 9.23394C39.4039 9.11345 38.8553 8.78457 38.6205 8.58035C38.5441 8.5091 38.1421 8.13442 38.078 8.08305C37.8229 7.86778 37.6368 7.63325 37.496 7.51205C37.222 7.27492 36.8184 7.15736 36.6481 7.06481C36.3502 6.89805 35.8329 6.58326 35.7073 6.51405C35.4066 6.34367 35.5777 6.2621 35.339 6.1796C35.2682 6.15612 35.2847 6.29401 35.0529 6.18024C34.8586 6.08571 34.816 5.96926 34.687 5.89319C34.5576 5.81669 34.2535 5.83478 34.1702 5.79718C33.7324 5.59831 33.5628 5.43867 33.0634 5.26732C32.6556 5.09326 30.6681 4.70672 30.4949 4.74049C29.7351 4.76792 30.9727 4.89484 31.0391 4.92255C31.405 5.02469 31.3374 5.06635 31.7288 5.04925C31.9756 5.42918 33.2462 5.28403 33.4015 5.76097C33.7798 5.62557 33.9823 5.84346 34.2609 6.0179C34.6457 6.2631 34.3913 5.98781 34.6931 6.12274C34.8128 6.17632 35.1011 6.44428 35.2801 6.5195C35.46 6.59438 35.5752 6.5537 35.8072 6.67665C36.2205 6.89724 36.522 7.1331 36.7887 7.4371C36.8743 7.4371 36.9566 7.4353 37.0419 7.43616C37.2379 7.63081 37.4292 7.82994 37.6147 8.03258C37.605 7.97362 37.5951 7.9143 37.5848 7.85527C37.6523 7.89777 37.7194 7.94117 37.7859 7.98469C37.9584 8.19432 38.1185 8.39565 38.2842 8.61751C38.9973 8.91095 38.7002 8.93257 38.9794 9.22719C39.1943 9.45914 39.3992 9.5505 39.5867 9.68609C39.6406 9.72516 39.6927 9.7677 39.7422 9.81805C40.0389 10.1216 40.1854 10.2539 40.4618 10.5817C40.6229 10.7726 40.7883 11.1817 40.7286 10.7808C41.2481 11.3592 41.9261 12.198 42.215 12.84C42.3011 13.0279 42.1012 12.8299 42.1125 12.8643C42.1702 13.0317 42.3382 13.1016 42.415 13.265C42.5452 13.5356 42.7411 14.0862 42.8232 14.3047C42.9466 14.6158 43.2842 15.0439 43.3138 15.0918C43.4831 15.3509 43.4029 15.4704 43.4455 15.5577C43.6844 16.0583 43.7641 16.1652 43.5861 16.4048C43.7326 16.5036 44.0739 17.0352 43.9357 17.2221C44.0932 17.1839 44.191 17.6764 44.2919 17.9707C44.2582 18.0363 44.2245 18.1025 44.1897 18.1675C44.6089 18.7414 44.5698 20.0591 44.561 20.8991C44.5611 20.9201 44.6835 20.9528 44.6608 21.0814C44.6588 21.0896 44.6044 21.0783 44.6 21.1639C44.5944 21.2774 44.5729 21.5155 44.5433 21.7704C44.5004 22.1509 44.4337 22.561 44.429 22.6338C44.4007 23.0827 44.4814 23.1682 44.4654 23.4434C44.4407 23.8058 44.3536 23.8481 44.3192 24.1901C44.3019 24.3497 44.3862 24.5116 44.3277 24.7605C44.2928 24.9075 44.2073 24.907 44.1785 25.0222C44.0742 25.4312 44.0549 25.7472 43.8544 26.081C44.0877 26.244 43.8501 26.3676 43.7786 26.5384C43.4922 27.2348 43.2615 28.1469 42.9654 28.7247C42.6995 29.2506 42.4079 29.7404 42.0979 30.2056C41.345 31.3322 40.5031 32.3157 39.5413 33.2904C39.3195 33.5126 39.3612 33.6613 39.1168 33.8871C39.0062 33.9879 38.8285 34.0229 38.6478 34.1846C38.5024 34.3144 38.3238 34.5357 38.1349 34.6914C38.0848 34.7328 38.0226 34.6663 37.9484 34.7258C37.3855 35.1761 36.8488 35.6387 36.2496 36.0669C36.0271 36.2257 35.82 36.2067 35.9674 36.3636C35.9503 36.365 35.9334 36.3665 35.9166 36.368L36.0938 36.3193C36.0037 36.2768 35.9158 36.2378 35.8305 36.1944C35.4472 36.3267 35.1342 36.1888 34.6158 36.2227C34.5599 36.2267 34.1685 36.3719 33.9465 36.2671C33.9307 36.3419 33.9652 36.4054 33.9587 36.4732C33.7394 36.5018 33.4023 36.4154 33.2542 36.4065C33.1062 36.3977 33.0072 36.4949 32.9627 36.4958C32.7933 36.4983 32.8328 36.3705 32.8198 36.3684C32.0303 36.246 32.1134 36.314 31.6367 36.5056C31.5172 36.554 30.7067 36.4136 30.5428 36.5649C30.5354 36.5032 30.5806 36.4489 30.5935 36.39C30.3501 36.3741 30.1047 36.3578 29.8603 36.3419C29.9122 36.4012 29.9744 36.4605 30.0216 36.5202C29.5227 36.4687 29.1079 36.6084 28.6997 36.6038C28.4664 36.601 28.4949 36.47 28.3579 36.4986C28.331 36.5043 28.3764 36.5928 28.2969 36.5999C27.6479 36.6574 27.3636 36.5639 26.7137 36.5462C26.4092 36.5378 26.1427 36.6987 25.7058 36.5928C25.6659 36.5829 25.2373 36.4401 24.9726 36.6447C24.8884 36.5801 24.8141 36.5462 24.7511 36.4919C24.2151 36.7957 24.3632 36.4979 23.6384 36.4274C23.2633 36.3907 22.0017 36.4439 21.5935 36.4764C21.3504 36.4962 21.3548 36.6156 21.3114 36.6204C21.0523 36.6479 21.052 36.5321 20.8124 36.5512C20.5726 36.5702 20.2697 36.7012 20.0235 36.6892C19.8349 36.6799 19.9835 36.5361 19.705 36.5862C19.6473 36.597 19.8121 36.7191 19.5183 36.6712C19.472 36.6638 19.0025 36.5318 18.9063 36.5032C19.1534 36.4266 19.87 36.3267 20.1393 36.2957C23.9596 35.8539 30.9714 35.7722 36.0938 35.7947L35.6487 35.9169C36.5524 35.3865 37.3359 34.824 37.9793 34.2968C38.3168 34.0194 38.6124 33.9173 38.8292 33.7267C39.0441 33.5352 38.7897 33.6215 38.9819 33.4467C39.173 33.2712 39.3632 33.1913 39.5352 33.0172C40.4115 32.1293 41.1941 31.1321 41.8518 30.0612C42.0623 29.7187 42.2593 29.3691 42.4412 29.0136C42.6353 28.6327 42.6888 28.2837 42.835 27.9277C42.8915 27.789 43.0051 27.8289 43.0434 27.7285C43.4542 26.6433 43.6213 25.5801 43.8184 24.4568C43.9001 23.9901 44.0599 23.4892 44.1029 23.0155C44.1391 22.6254 44.0835 22.2174 44.0837 21.8671C44.0837 21.832 44.0867 21.7999 44.0917 21.7705C44.1139 21.6391 44.1752 21.5608 44.1804 21.504C44.2006 21.2623 44.0895 21.3489 44.0866 21.2257C44.0768 20.8874 44.2034 20.711 44.1709 20.3927C44.1574 20.2677 44.0729 20.2902 44.0441 20.1115C44.0064 19.8844 44.0934 19.9612 44.0796 19.7973C44.0789 19.7874 44.021 19.8258 44.0092 19.7398C43.9342 19.1845 43.774 18.5057 43.6615 17.9819C43.434 16.8991 43.1963 15.817 42.7871 14.8563C42.6831 14.6145 42.6385 14.7124 42.5998 14.6388C42.4106 14.2868 42.4312 14.1147 42.1993 13.7618C42.1605 13.7026 41.9272 13.5134 41.8127 13.2707C41.7513 13.1396 41.723 12.9633 41.6694 12.8501C41.6159 12.7373 41.5195 12.7766 41.4374 12.6534C41.2858 12.4302 41.3905 12.4539 41.1551 12.1454C41.0607 12.0206 40.6722 11.6619 40.4231 11.3505C40.0994 10.9409 39.7254 10.4363 39.2974 9.9754C39.1895 9.85905 39.0796 9.74656 38.9668 9.63877C38.7732 9.45365 38.4521 9.30044 38.1391 9.03568C37.76 8.70761 37.0394 8.13006 36.6098 7.84845C36.3919 7.70278 36.4347 7.60142 36.4108 7.58022C36.2565 7.44573 36.2598 7.59366 36.1481 7.51836C35.9951 7.41588 35.892 7.2491 35.7485 7.15991C35.6567 7.10299 35.5972 7.17395 35.5766 7.16316C34.8121 6.771 34.1257 6.44644 33.3223 6.16135C31.4669 5.50489 29.4827 5.2313 27.5002 5.26155C24.8735 5.29277 22.2847 5.87325 19.9798 7.0342C19.6417 7.20588 19.5744 7.11331 19.2907 7.29509C19.0062 7.47924 18.8673 7.8571 18.4887 7.7797C18.5115 7.83059 18.5339 7.86289 18.554 7.90961C17.9343 8.22489 17.4277 8.70962 16.9213 9.15488C16.5458 9.48537 16.2142 9.78209 15.881 10.105C15.8729 10.1129 15.8649 10.1206 15.8572 10.1279C15.5845 10.3888 15.5381 10.3117 15.39 10.6475C14.1281 11.8891 13.1311 13.3819 12.2971 14.9279C12.3173 15.3862 12.0494 15.6933 11.8333 16.2222C11.807 16.2873 11.9013 16.2402 11.8297 16.4347C11.7421 16.6793 11.5897 16.7741 11.4779 17.2023C11.4432 17.316 11.3653 18.1832 11.2498 18.4857C11.1263 18.7878 11.0181 19.2432 10.9179 19.5697C10.9722 19.528 11.0262 19.4739 11.0808 19.4278C11.0681 19.5939 11.0574 19.7605 11.0494 19.9267C10.9883 19.9449 10.9273 19.9634 10.866 19.9812C10.9126 20.0841 10.9595 20.1846 11.0085 20.2864C10.6914 20.4735 10.8022 20.2672 10.8507 20.741C10.8764 20.9795 10.8168 21.1634 10.8428 21.4073C10.8525 21.4947 10.9409 21.5515 10.9517 21.6474C10.9588 21.7118 10.9551 21.7484 10.9458 21.7705C10.921 21.8292 10.8561 21.7859 10.8571 21.8916C10.8591 22.0386 10.9968 22.2444 10.9476 22.5069C10.6947 22.242 10.8107 23.0347 11.004 23.0564C11.0112 23.1495 11.0099 23.2285 11.0244 23.3309C10.5453 23.2768 10.9254 23.7424 11.0159 23.9248C11.1047 24.1095 10.979 24.1186 10.99 24.1634C11.0223 24.2918 11.0607 24.1893 11.0758 24.2802C11.1763 24.8804 11.2166 25.4588 11.3646 26.0453C11.3861 26.1294 11.4352 26.0366 11.4548 26.1358C11.4746 26.2348 11.4321 26.3477 11.4795 26.4902C11.4922 26.5285 11.556 26.5225 11.5742 26.5821C11.9487 27.8145 12.4006 28.966 13.0609 30.1122C13.0703 30.1285 13.0798 30.1449 13.0893 30.1612C13.151 30.2664 13.2951 30.2907 13.4153 30.4908C13.5352 30.6908 13.6454 31.0437 13.8066 31.2877C13.8493 31.3525 13.9375 31.3161 13.9946 31.4006C14.1897 31.6878 14.3103 31.9729 14.5284 32.2636C14.8975 32.7549 15.3686 33.193 15.7713 33.669C15.8482 33.7591 15.78 33.8015 15.8881 33.9362C16.0764 34.1676 16.0737 34.0078 16.1274 34.0377C16.3031 34.1339 16.2472 34.2864 16.4147 34.3835C16.4403 34.3981 16.4686 34.3039 16.4889 34.32C16.7994 34.5702 16.6821 34.7456 17.0857 34.9275C17.3095 35.2586 16.7846 34.8947 16.694 34.8991C16.4696 34.9144 16.6836 35.3309 16.8522 35.5349C16.9961 35.7106 17.0542 35.6321 17.1241 35.6851C17.4939 35.967 18.0758 36.3403 18.3514 36.5657C18.5181 36.7034 18.1696 36.5308 18.2452 36.6162C18.3203 36.7016 18.4184 36.6773 18.4722 36.8037C18.5249 36.9299 18.6042 37.2492 18.5098 37.3227ZM21.1357 5.4693C20.5933 6.05882 18.929 6.84187 18.086 7.39519C17.381 7.82764 16.6394 8.06029 17.0382 8.28422C17.7416 7.73571 18.3153 7.28991 19.1422 6.83127C19.2275 6.78148 19.7613 6.53871 19.9476 6.45774C20.052 6.41062 20.0859 6.47196 20.2252 6.40472C20.2551 6.38982 20.3863 6.22742 20.4503 6.20154C20.668 6.10707 21.3668 5.97677 21.4559 5.94294C21.7035 5.83839 21.5699 5.77173 21.6731 5.71345C22.0235 5.52194 22.1158 5.66458 22.4709 5.50096C22.534 5.47227 22.7169 5.26874 23.0033 5.21419C23.1195 5.19188 23.3319 5.21625 23.4182 5.19289C23.8895 5.06304 24.4136 4.86839 24.8637 4.82196C25.2317 4.78531 25.147 4.90905 25.3418 4.90051C25.5347 4.89259 25.7577 4.74285 25.89 4.7246C26.1026 4.69475 26.3665 4.75174 26.4322 4.74733C26.7974 4.72134 27.1501 4.70142 27.5 4.68794C28.3957 4.65417 29.2573 4.65945 30.1629 4.76518C29.3188 4.59424 28.4592 4.4893 27.5987 4.43329C27.5618 4.44172 27.5291 4.44902 27.5 4.45524C27.1431 4.53353 27.3287 4.43757 27.0305 4.4101C26.7732 4.38882 26.7208 4.58356 26.3869 4.57986C26.3872 4.57984 26.3874 4.57983 26.3877 4.57981C26.2171 4.57778 25.8338 4.46909 25.4726 4.56417C25.4596 4.56805 25.4384 4.66963 25.167 4.70598C24.5565 4.78466 23.6415 5.00382 22.9705 5.16078C22.7735 5.20615 22.7854 5.09311 22.5496 5.146C22.3776 5.18547 22.2107 5.33687 21.9439 5.40175C21.6098 5.48347 21.3931 5.38486 21.2545 5.68686C21.2065 5.61604 21.1867 5.53665 21.1357 5.4693ZM10.3408 20.0841C10.3247 20.1289 10.0221 20.7629 10.3123 20.587C10.4837 19.729 10.5443 18.7917 10.8038 17.9156C10.4693 18.1614 10.471 18.7098 10.4102 19.3476C10.4102 19.3478 10.4101 19.3481 10.4101 19.3484C10.4072 19.3787 10.3518 19.2433 10.3432 19.4167C10.3386 19.5017 10.4113 19.8308 10.3408 20.0841ZM20.2851 31.3162C20.8042 31.2231 21.3225 31.1833 21.8564 31.2238C21.9781 31.233 21.9666 31.305 22.0166 31.3167C22.1086 31.3382 22.2628 31.2605 22.2845 31.2605C22.4187 31.2595 22.3662 31.3855 22.3843 31.3904C22.5857 31.4415 22.5277 31.298 22.7202 31.2842C22.971 31.2662 23.2927 31.2919 23.5948 31.2989C23.7009 31.3017 23.6537 31.3977 23.8827 31.3896C24.0449 31.384 24.5425 31.2746 24.7716 31.3914C24.7729 31.4355 24.744 31.4842 24.7318 31.5297C25.0603 31.3459 25.1778 31.354 25.6435 31.3988C25.7171 31.4059 25.7869 31.3303 25.9167 31.3582C26.0464 31.3861 26.0519 31.5025 26.3127 31.5011C26.4052 31.5003 26.4614 31.4182 26.6032 31.4147C27.0067 31.4045 27.7752 31.5065 28.1064 31.51C28.7586 31.517 29.1134 31.3769 29.6926 31.4256C29.7372 31.4291 29.6393 31.5191 29.721 31.5209C29.8035 31.5226 29.8894 31.4034 29.9096 31.4006C30.1286 31.3699 30.5913 31.5296 30.7131 31.5103C31.0091 31.463 30.7174 31.4105 31.1276 31.3879C31.5183 31.3664 32.0576 31.5216 32.4449 31.552C32.8936 31.5872 33.0383 31.3618 33.3763 31.5971C33.8232 31.592 34.2709 31.5875 34.7188 31.5834L34.4292 31.6758C35.0087 31.2555 35.5547 30.7918 36.0536 30.2855C36.0844 30.3211 36.1147 30.3571 36.145 30.3932C36.1868 30.306 36.2275 30.2184 36.2672 30.1311C36.2828 30.1651 36.2989 30.1988 36.3141 30.2328C36.5152 29.8307 36.7095 29.5078 37.0431 29.143C37.0496 29.1359 37.1077 29.2135 37.1145 29.2087C37.1977 29.1311 37.216 28.9878 37.2876 28.9192C37.4617 28.755 37.8577 28.5307 37.551 28.539C37.8361 28.1948 38.058 27.734 38.2721 27.3329C38.325 27.2344 38.3777 27.1395 38.4318 27.0504C38.5501 26.8545 38.7121 26.8528 38.7657 26.7551C38.8185 26.6572 38.6793 26.6575 38.6905 26.6198C38.7603 26.3949 38.9033 26.0406 39.0501 26.051C39.0135 25.9866 38.9767 25.92 38.939 25.8561C39.0818 25.9378 39.2507 25.2267 39.2984 25.0437C39.3083 25.0105 39.3762 25.024 39.3825 24.9983C39.4494 24.7118 39.3601 24.6163 39.3785 24.3663C39.384 24.2783 39.476 24.4364 39.4696 24.2053C39.4684 24.1851 39.3615 24.174 39.4093 23.9126C39.49 23.4939 39.5341 22.683 39.5974 22.1773C39.6028 22.1357 39.7187 22.2667 39.6959 22.0743C39.6873 22.0047 39.6027 22.0359 39.6036 21.869C39.6036 21.8364 39.6038 21.8037 39.6041 21.7709C39.6104 21.1497 39.6512 20.4822 39.4859 19.8694C39.5838 19.8796 39.7238 20.1014 39.6136 19.7547C39.5953 19.6997 39.5172 19.7547 39.5102 19.73C39.4545 19.5307 39.4836 19.3437 39.4069 19.131C39.3839 19.0685 39.3151 19.0666 39.2822 18.9902C39.2332 18.8779 39.3145 18.8046 39.2417 18.6777C39.1259 18.4802 39.0317 18.4752 39.1269 18.1655C38.6794 16.6867 37.8999 15.3541 36.9822 14.1168C36.6662 13.8113 36.3555 13.5516 36.023 13.2475C36.0157 13.2408 36.0084 13.2341 36.001 13.2273C35.9001 13.1355 35.9671 13.03 35.7804 12.9086C35.7387 12.8798 35.3964 12.7443 35.5195 12.5275C35.4326 12.4794 35.3849 12.4393 35.3128 12.3953C35.3378 12.4636 35.3637 12.5339 35.3853 12.6009C35.1462 12.3409 34.8674 12.2285 34.5982 12.078C34.3987 11.9678 34.5901 11.9782 34.4714 11.9049C34.3521 11.832 34.2881 11.8156 34.2139 11.6134C34.0187 11.6578 34.001 11.5226 33.7872 11.3858C33.7643 11.3712 33.6013 11.3379 33.494 11.2633C33.4168 11.2097 33.4369 11.1164 33.2982 11.0564C33.2755 11.0453 32.9434 10.9971 32.8495 10.9636C32.7038 10.9086 32.5269 10.6999 32.4989 10.6864C32.101 10.4889 31.9037 10.5389 31.6706 10.2548C31.5728 10.3389 31.3063 10.3174 31.1081 10.2476C30.8622 10.1557 30.3891 9.80572 30.2644 10.0292C29.9849 9.86023 30.0033 9.93037 29.6416 9.87086C29.315 9.81097 28.4373 9.63231 28.1611 9.64057C27.8877 9.64223 28.016 9.78272 27.9078 9.79707C27.7308 9.82251 27.8285 9.72533 27.7077 9.72461C27.637 9.72447 27.568 9.72551 27.5 9.72774C27.2399 9.7364 27.0007 9.76175 26.7452 9.80986C26.724 9.74105 26.7012 9.67202 26.6789 9.60335C26.6632 9.62757 26.6477 9.65184 26.6323 9.67612C26.5623 9.6797 26.4831 9.68669 26.4179 9.68965C26.9865 9.95577 25.8908 9.70197 25.5635 9.75363C25.2899 9.78511 24.8693 10.0107 24.5904 10.1097C24.5224 10.1336 24.5531 10.0489 24.5391 10.0539C24.3747 10.1156 24.3619 10.1711 24.1356 10.2252C24.0163 10.2541 23.8687 10.1989 23.7524 10.2333C22.8992 10.4862 22.153 10.9238 21.4087 11.3772C21.282 11.4545 21.1121 11.4244 21.0038 11.4909C20.8498 11.586 20.8079 11.7282 20.6709 11.8254C20.5344 11.922 20.2715 11.9764 20.1908 12.0607C20.1103 12.1443 20.3319 12.1108 20.1484 12.2155C20.0641 12.2642 20.1479 12.0947 20.0524 12.1667C19.7522 12.3918 19.4251 12.8118 19.0729 13.0189C19.1025 13.0241 19.1349 13.0233 19.1664 13.0254C19.0936 13.0921 19.0211 13.1562 18.9489 13.2194C18.7143 13.425 18.4839 13.6179 18.2593 13.8665C18.1554 13.9803 18.0349 14.2378 17.9431 14.3546C17.8502 14.4718 17.7476 14.4786 17.6736 14.5738C17.6431 14.6129 17.7105 14.6388 17.6897 14.6645C17.4323 14.9859 17.2011 15.1062 16.9845 15.4863C16.1959 16.8772 15.7039 18.4686 15.5532 20.0716C15.547 20.136 15.6316 20.1905 15.6346 20.2847C15.6397 20.4301 15.5599 20.4295 15.5551 20.4486C15.5257 20.5735 15.6038 20.5283 15.5901 20.697C15.5665 20.9864 15.508 21.4155 15.4941 21.7705C15.4899 21.8703 15.4889 21.9633 15.4919 22.0454C15.5262 22.9046 15.6826 23.6135 15.8969 24.4146C15.9129 24.4723 15.799 24.4565 15.8216 24.5588C15.9933 25.2775 16.1279 25.3991 16.4337 26.2585C16.5369 26.5352 16.6806 26.8879 16.8615 27.2643C17.2343 28.0567 17.7984 28.9289 18.2685 29.4904C18.2683 29.4905 18.2681 29.4907 18.2679 29.4909C18.638 29.6227 18.8899 29.9671 19.0482 30.3304C17.9265 29.6483 17.1052 28.6147 16.5115 27.4469C16.1204 26.6794 15.8206 25.8527 15.5771 24.9744C15.2944 23.9575 15.0815 22.8809 15.0072 21.7705C14.9072 20.3393 15.0262 18.8481 15.5195 17.5092C15.6021 17.2863 15.7413 17.2376 15.7915 17.0449C15.8002 17.0122 15.687 17.0612 15.7173 16.9615C16.1385 15.5769 17.1504 14.3787 18.0441 13.3191C18.2723 13.0484 18.2615 12.9365 18.4407 12.7112C18.4522 12.6968 18.4646 12.682 18.4779 12.6667C18.4744 12.6936 18.4731 12.7188 18.4727 12.7432C18.472 12.7862 18.4741 12.8268 18.4722 12.8706C18.4954 12.8512 18.5186 12.8318 18.5418 12.8123C19.6786 11.8613 20.843 10.9399 22.2114 10.333C22.2743 10.3054 22.3214 10.3883 22.3878 10.3626C22.5207 10.3116 22.6064 10.1622 22.7221 10.1118C22.8729 10.0467 22.9266 10.1071 23.0655 10.0501C23.1336 10.0226 23.088 9.96116 23.2436 9.91949C23.2567 9.91614 23.2898 9.98486 23.3871 9.94163C23.652 9.81972 24.2106 9.59772 24.4446 9.52729C24.7426 9.43271 25.0094 9.50074 25.1244 9.48795C25.4379 9.45487 25.4134 9.3407 25.6796 9.3042C26.2894 9.22431 26.8961 9.20202 27.5 9.22059C28.773 9.26071 30.0233 9.47845 31.2781 9.85792C31.3936 9.89082 31.8644 9.9089 32.0755 9.99736C32.147 10.0248 32.502 10.2069 32.5545 10.2347C32.7719 10.3408 32.9253 10.5022 33.0358 10.5753C33.2498 10.7166 33.5588 10.7452 33.6878 10.805C33.914 10.9061 34.2768 11.1545 34.3602 11.2154C34.5642 11.3612 34.4086 11.4409 34.575 11.513C34.6239 11.5347 34.647 11.4065 34.7984 11.5155C34.9249 11.6081 34.9226 11.7171 34.9969 11.7937C35.0713 11.87 35.3088 11.8845 35.3586 11.9298C35.6165 12.1661 35.674 12.3337 35.9477 12.5917C36.0155 12.656 36.1597 12.7847 36.3284 12.9421C36.7289 13.3074 37.2352 13.848 37.3044 13.9019C37.7574 14.2349 37.1379 13.57 37.1025 13.5322C36.9415 13.307 37.0073 13.2978 36.7432 13.1677C36.7676 13.021 36.6546 12.8903 36.504 12.7665C36.2416 12.5488 35.8719 12.3679 35.9268 12.0914C35.5851 12.1321 35.5256 11.9131 35.3676 11.721C35.1482 11.458 35.257 11.7321 35.064 11.5854C34.9885 11.5278 34.8323 11.2694 34.7027 11.2003C34.5743 11.1315 34.4742 11.171 34.3106 11.0705C34.017 10.892 33.8019 10.7179 33.5967 10.4841C33.5273 10.5001 33.4612 10.5184 33.393 10.5359C33.2406 10.3981 33.0826 10.2635 32.9209 10.133C32.9328 10.184 32.9442 10.2353 32.9554 10.2863C32.9001 10.2667 32.8446 10.2472 32.7892 10.2282C32.6385 10.0914 32.4894 9.96524 32.3251 9.83087C31.7285 9.85749 31.9512 9.72366 31.6708 9.59421C31.3891 9.46918 31.1801 9.55324 30.9548 9.49331C30.6499 9.4146 30.5049 9.39857 30.1963 9.32536C30.0172 9.28291 29.7327 9.0995 29.9479 9.35168C29.3818 9.26244 28.6034 9.24362 28.0974 9.14119C27.9477 9.1104 28.1513 9.05158 28.126 9.04241C27.9991 8.99794 27.8862 9.10256 27.755 9.08481C27.6862 9.07555 27.5966 9.06074 27.5 9.04497C27.2893 9.01011 27.0478 8.97264 26.9272 8.96395C26.6731 8.94346 26.2886 9.11314 26.251 9.12762C26.0329 9.20399 25.9616 9.09627 25.8905 9.11205C25.4861 9.2065 25.408 9.27241 25.2398 9.05039C25.1472 9.17052 24.7462 9.42725 24.6043 9.27778C24.6347 9.43502 24.2693 9.48872 24.0616 9.58755C24.009 9.55339 23.9553 9.52003 23.9019 9.4862C23.5221 9.88293 22.5817 9.99596 21.9982 10.2447C21.9836 10.2509 22.0105 10.3714 21.9149 10.3879C21.9086 10.3886 21.8934 10.3355 21.8338 10.3572C21.6366 10.4213 20.875 10.697 20.7974 10.751C20.506 10.9273 20.5076 11.0371 20.3429 11.159C20.1276 11.322 20.0488 11.279 19.8484 11.4432C19.7554 11.5202 19.7333 11.6717 19.5777 11.7775C19.4855 11.8408 19.4234 11.7834 19.3505 11.8351C19.0913 12.0202 18.9536 12.2146 18.6735 12.3274C18.803 12.5723 18.5719 12.5206 18.4577 12.6052C18.4344 12.6224 18.4113 12.6402 18.3882 12.6587C17.9528 13.0058 17.5915 13.5706 17.2915 13.9203C16.3023 15.0663 15.498 16.2197 14.998 17.6595C14.9187 17.8937 15.0307 17.9879 14.9554 18.2324C14.9222 18.342 14.7979 18.4339 14.7535 18.6185C14.7174 18.7671 14.7204 18.9902 14.6856 19.1766C14.6765 19.2259 14.586 19.214 14.5723 19.2874C14.4689 19.8451 14.4721 20.4024 14.4863 20.9687C14.4918 21.1791 14.3684 21.3037 14.5791 21.2753C14.525 21.353 14.4783 21.4302 14.4262 21.5041C14.4667 21.5964 14.4808 21.6826 14.4824 21.7705C14.4861 21.9582 14.432 22.1541 14.4674 22.42C14.4728 22.4631 14.6342 22.7462 14.5449 22.9205C14.6204 22.9259 14.6815 22.8949 14.7494 22.894C14.7909 23.0532 14.7321 23.3104 14.7376 23.4217C14.7426 23.5324 14.8493 23.5921 14.8548 23.6244C14.8752 23.7479 14.7449 23.7382 14.7442 23.7481C14.7175 24.3507 14.7808 24.2836 15.0409 24.5875C15.1032 24.6623 15.1169 25.2809 15.3004 25.3541C15.2427 25.3768 15.1812 25.36 15.1219 25.3671C15.1574 25.5461 15.197 25.7262 15.2409 25.9047C15.2845 25.8489 15.3261 25.7861 15.3719 25.7344C15.4389 26.1022 15.6798 26.3403 15.7903 26.6169C15.8542 26.7755 15.7264 26.8084 15.7933 26.8899C15.8065 26.9057 15.8738 26.8394 15.9041 26.8899C16.0739 27.1714 16.1343 27.3635 16.2226 27.5977C16.2632 27.7047 16.3102 27.82 16.3788 27.9539C16.4825 28.1548 16.7178 28.2398 16.8001 28.5659C16.8061 28.595 16.8619 28.9418 17.1426 28.9831C17.1252 29.0707 17.1294 29.135 17.1126 29.2046C17.5926 29.3425 17.2809 29.4318 17.5668 29.8973C17.7099 30.1424 18.3903 30.7962 18.637 30.974C18.7813 31.0837 18.8606 30.9931 18.8871 31.0114C19.0452 31.1192 18.9681 31.2053 19.1133 31.308C19.259 31.4105 19.5129 31.4524 19.6448 31.5734C19.7467 31.6663 19.5717 31.7119 19.764 31.7986C19.8042 31.8157 19.7832 31.6461 19.9242 31.8143C19.9455 31.8411 20.1437 32.1517 20.1867 32.2159C19.9929 32.1752 19.5063 31.9317 19.3309 31.8257C18.1366 31.1394 16.641 29.7731 15.6046 27.9201C14.527 26.0667 13.9938 23.7438 14.0221 21.7705C14.0245 20.7379 14.1411 19.7854 14.3101 18.9965C14.3853 18.6453 14.5632 18.4462 14.6316 18.2256C14.7018 18.0046 14.5394 18.164 14.605 17.9624C14.6722 17.7611 14.7953 17.6375 14.8633 17.4531C15.3239 16.2063 15.9961 15.0392 16.7866 14.008C16.9911 13.741 17.0866 13.4716 17.2858 13.2359C17.3636 13.1445 17.4577 13.2205 17.5122 13.1563C17.7275 12.9046 17.9348 12.6583 18.1469 12.4174C18.5163 11.9981 18.9006 11.5945 19.3628 11.2422C19.6653 11.0116 20.0573 10.8554 20.3747 10.6605C20.6363 10.4994 20.8752 10.2759 21.119 10.1397C21.251 10.0657 21.3647 10.11 21.4159 10.0913C21.5945 10.0257 21.4849 9.95635 21.5718 9.91242C21.8131 9.79306 21.9908 9.86009 22.2136 9.75061C22.3016 9.708 22.2558 9.63327 22.3828 9.5658C22.5444 9.4814 22.5121 9.58062 22.633 9.53596C22.6404 9.53348 22.5942 9.48511 22.6574 9.45797C23.0632 9.28231 23.5775 9.06747 23.9939 8.96563C24.8558 8.75064 25.7361 8.74315 26.5443 8.71563C26.7486 8.70892 26.6904 8.63227 26.7555 8.62491C27.0658 8.59288 27.1806 8.68396 27.5 8.65139C27.5036 8.65104 27.5073 8.65067 27.511 8.65028C27.5658 8.64452 27.7863 8.53402 27.9981 8.56939C28.1117 8.58819 28.2375 8.66344 28.333 8.68502C28.4285 8.70671 28.4496 8.60534 28.5667 8.61335C28.7796 8.62926 28.7108 8.69341 29.0147 8.71032C29.1353 8.71679 29.5557 8.66855 29.8683 8.72942C30.3801 8.82537 30.9869 9.05257 31.5663 9.23629C31.7646 9.29896 32.0547 9.28444 32.361 9.4012C32.7368 9.53893 33.3967 9.86764 33.7533 10.0668C33.9369 10.1669 33.8953 10.2716 33.9146 10.2874C34.037 10.3921 34.0426 10.2537 34.1326 10.3116C34.2563 10.3917 34.3252 10.5402 34.4336 10.6156C34.5027 10.6638 34.5629 10.5949 34.5787 10.6042C35.1667 10.9486 35.6424 11.321 36.1571 11.7569C36.401 11.9644 36.6377 12.1793 36.8683 12.4022C39.2781 14.651 40.814 18.0014 40.8079 21.3216C40.8109 21.5657 40.7365 21.6212 40.7168 21.7705C40.7118 21.8073 40.71 21.8503 40.7132 21.9034C40.7287 22.1673 40.965 22.4415 40.6788 22.6455C40.7333 22.656 40.7725 22.6578 40.8221 22.6681C40.7096 23.2171 40.72 23.7767 40.627 24.3175C40.5581 24.7166 40.4654 25.0646 40.3579 25.4227C40.2597 25.7401 40.1764 25.682 40.2063 25.9937C39.9498 26.6414 39.6617 27.2768 39.3232 27.8812C38.9673 28.5174 38.5532 29.1216 38.0691 29.6528C38.0344 30.0384 37.7328 30.2102 37.4099 30.5271C37.3696 30.5662 37.466 30.5718 37.3489 30.6909C37.2005 30.8398 37.0453 30.8407 36.8025 31.0913C36.742 31.1593 36.3244 31.7232 36.084 31.8356C35.8487 31.9514 35.5391 32.1498 35.2928 32.2557C35.3517 32.2728 35.4177 32.2817 35.4802 32.2949C35.3808 32.3813 35.2796 32.4666 35.1782 32.5502C35.1282 32.5136 35.0784 32.4768 35.0291 32.4391C35.0232 32.4575 35.0172 32.4759 35.0112 32.4943L34.8685 32.591L34.7188 32.5876C34.6607 32.6321 34.6026 32.6763 34.544 32.7215C34.3852 32.4187 34.5481 32.5175 34.1946 32.594C34.0176 32.6322 33.877 32.5793 33.6952 32.61C33.6297 32.6212 33.5878 32.7104 33.5155 32.7218C33.3385 32.7493 33.4417 32.6266 33.3323 32.6273C33.2221 32.6283 33.064 32.7631 32.8666 32.7031C33.0727 32.4628 32.4772 32.5412 32.4488 32.7279C32.3779 32.7282 32.3185 32.7205 32.2401 32.7257C32.3125 32.2543 31.9412 32.5889 31.7939 32.6534C31.6466 32.7179 31.6526 32.5912 31.6181 32.5962C31.5189 32.61 31.5912 32.6626 31.5216 32.6643C31.0606 32.6749 30.6266 32.5976 30.1718 32.5905C30.1063 32.5895 30.1644 32.6611 30.0881 32.6541C30.0117 32.647 29.9385 32.5758 29.8256 32.5807C29.7954 32.5819 29.7858 32.6448 29.7387 32.6449C28.7499 32.6421 27.811 32.5885 26.8026 32.5804C26.7114 32.5797 26.6397 32.6915 26.4633 32.6876C26.287 32.6837 26.0193 32.5828 25.8004 32.575C25.7423 32.5729 25.7265 32.6661 25.6494 32.6636C25.3872 32.6551 25.1614 32.5793 24.889 32.5669C24.4288 32.5461 23.947 32.6029 23.48 32.5479C23.3915 32.5377 23.4057 32.46 23.278 32.4381C23.0577 32.4003 23.1406 32.5136 23.096 32.5288C22.95 32.5778 22.9042 32.4273 22.763 32.466C22.7414 32.472 22.7722 32.5612 22.7528 32.5626C22.4527 32.5782 22.437 32.3689 22.118 32.4811C21.8343 32.3608 22.3081 32.3198 22.3568 32.256C22.4756 32.1007 22.1615 31.9183 21.9763 31.8597C21.8168 31.8092 21.818 31.9059 21.7545 31.9059C21.4186 31.9063 20.9184 31.9247 20.6629 31.8788C20.5082 31.8513 20.7871 31.811 20.7081 31.7793C20.6297 31.7475 20.5789 31.8202 20.4985 31.7408C20.4181 31.6614 20.254 31.4277 20.2851 31.3162ZM39.7613 20.119C40.05 20.416 40.1791 21.1171 40.1839 21.7705C40.1887 22.1175 40.1613 22.4496 40.1307 22.7036C40.0589 23.3158 39.68 23.7837 40.1211 23.7241C40.2203 23.0648 40.2195 22.524 40.2372 21.8229C40.2375 21.8123 40.2385 21.7942 40.2401 21.7704C40.2505 21.6295 40.2732 21.2913 40.2729 21.1613C40.2732 21.0762 40.3435 21.0695 40.3365 20.9527C40.3349 20.9269 40.2348 20.7929 40.2334 20.7414C40.2322 20.5665 40.3178 20.0295 40.3018 19.9553C40.2634 19.7541 40.1652 19.847 40.1334 19.7629C40.0254 19.483 40.1819 19.4239 40.0758 19.1458C40.0564 19.0954 39.8838 18.9555 39.8542 18.743C39.8427 18.6567 39.8792 18.4944 39.8589 18.4301C39.7504 18.0792 39.5377 17.7205 39.4415 17.4035C39.3616 17.1429 39.4893 17.1732 39.4512 17.0317C39.4118 16.89 39.2262 16.7768 39.1805 16.6897C39.108 16.5496 39.0934 16.345 39.0711 16.3007C38.6356 15.4324 38.1022 14.7474 37.5095 14.0394C37.8582 14.5642 38.1684 15.109 38.4252 15.6713C38.6949 15.9224 38.5173 15.822 38.5929 16.0413C38.6503 16.2152 38.8443 16.1683 38.9287 16.3968C38.9286 16.3966 38.9285 16.3964 38.9284 16.3963C38.9719 16.5149 38.9594 16.8126 39.1085 17.0352C39.1137 17.0432 39.217 17.027 39.2913 17.2121C39.4596 17.6255 39.711 18.2705 39.7988 18.7695C39.825 18.9156 39.7158 18.9089 39.7381 19.0811C39.7539 19.2068 39.8776 19.3331 39.8887 19.5344C39.9012 19.7865 39.7497 19.9245 40.0024 20.066C39.9214 20.0901 39.8399 20.0928 39.7613 20.119ZM34.6528 32.0394C34.6176 32.0301 34.1459 31.7698 34.2858 32.0478C34.4278 32.0748 34.5724 32.0928 34.7188 32.1052L34.7253 32.1053L34.7316 32.1011C35.1713 31.8412 35.5722 31.4922 35.9947 31.184C35.6413 31.1315 35.4273 31.4608 35.0673 31.7604C35.0671 31.7606 35.0669 31.7607 35.0668 31.7608C35.0499 31.7748 35.0793 31.6622 34.988 31.7479C34.9491 31.7846 34.85 31.9675 34.6998 32.0564L34.7188 32.0503C34.6964 32.0485 34.6743 32.045 34.6528 32.0394Z" fill="#FC6B7E"/>
</svg>
