<svg xmlns="http://www.w3.org/2000/svg" width="55" height="55" fill="none" viewBox="0 0 55 55"><path fill="#fc6b7e" d="M27.5 50.416q-1.89 0-3.236-1.345-1.345-1.345-1.347-3.238h9.166q0 1.89-1.345 3.238T27.5 50.416m-6.875-6.875q-.974 0-1.632-.66t-.66-1.631.66-1.632 1.632-.66h13.75q.974 0 1.634.66t.658 1.632q-.003.97-.66 1.634-.658.662-1.632.657zm-1.719-6.875a17.57 17.57 0 0 1-6.274-6.302q-2.322-3.953-2.32-8.594 0-7.161 5.015-12.173Q20.34 4.586 27.5 4.583q7.159-.002 12.176 5.014 5.017 5.017 5.011 12.173 0 4.641-2.319 8.594a17.54 17.54 0 0 1-6.274 6.302zm1.375-4.583H34.72q2.577-1.832 3.983-4.526a12.3 12.3 0 0 0 1.402-5.786q0-5.271-3.666-8.938T27.5 9.166t-8.937 3.667-3.667 8.937q0 3.094 1.405 5.787 1.404 2.693 3.98 4.526"/><path fill="#fc6b7e" d="M27.499 51.183a.7.7 0 0 1-.553.067c-.042-.013-.03-.085-.047-.098-.03-.025-.092.046-.1.045-.047-.005-.013-.128-.018-.133-.062-.06-.062.085-.131.089-.09.005-.199-.04-.302-.07-.036-.01 0-.1-.08-.11-.054-.006-.254.055-.299-.08.012-.043.036-.087.053-.13-.16.145-.202.124-.34.027-.021-.016-.071.046-.104.004-.032-.043.009-.151-.074-.184-.03-.012-.08.056-.126.04-.135-.048-.325-.26-.418-.32-.186-.118-.366-.07-.5-.227-.01-.012.07-.065.048-.082-.021-.018-.116.06-.124.058-.08-.021-.103-.245-.146-.256-.106-.028-.065.076-.186.001-.098-.06-.133-.24-.18-.361a.4.4 0 0 0-.029-.062c-.076-.13-.277-.016-.176-.257a5 5 0 0 1-.705-.957l.126-.063-.129-.038.1-.035c-.186-.067-.307-.165-.337-.342 0-.003.09-.029.09-.032.003-.042-.08-.057-.075-.096.008-.093.16-.285-.058-.15-.01-.197-.148-.395-.136-.585.006-.082.148-.13.15-.167s-.12.001-.127-.011c-.04-.074-.052-.206.088-.235l-.175-.03c.156-.007.07-.24.073-.305 0-.012.069-.017.068-.025-.013-.095-.122-.116-.159-.2-.011-.027.085.006.068-.04l-.027-.357.415-.03.019-.012c.006-.005.003-.114.086-.113.134 0 .389-.043.548.011.013.005-.027.124.033.096.021-.01.01-.095.063-.095.203-.004.419.094.625.013-.007.095-.08.203.03.143.018-.01.004-.096.012-.099.065-.025.12.036.19.004.02-.01.026-.077.051-.093.038-.024.055.072.099.031.068-.064.079-.154.164.024.483-.012.964-.062 1.445.017.14-.051.267-.108.413-.127.042-.006.05.115.119.075.015-.009.124-.139.14.106.03-.02.049-.022.075-.035l-.059-.108c.11.039.2-.048.297-.089.071-.03.02.076.064.065s.064-.034.12.092c.042-.145.071-.043.15-.04.01 0 .059-.055.1-.044.03.008.038.099.085.084.008-.002.108-.114.14-.124.05-.016.128.1.137.101.14.02.193-.094.291.095.02-.112.103-.178.17-.167.083.014.252.243.274 0 .098.108.087.042.203.04.104-.002.382.09.467.077s.044-.148.078-.166c.055-.03.025.07.063.068a.8.8 0 0 0 .302-.066l.017.21.016-.07c.022 0 .047-.001.067.001-.172-.307.166.023.267.03.085.007.228-.139.321-.17.023-.008.008.068.012.066.055-.022.063-.073.137-.066.04.004.08.098.117.1.28.013.549-.082.827-.092.047-.002.087.113.127.116.057.003.093-.091.146-.093.035 0 .081.05.118.078l.473-.036.04.549c-.013.02-.022.038-.016.052.016.04.126-.027.095.045-.014.034-.094-.027-.098.014-.01.127.08.317-.03.445q.036-.006.07-.015c-.023.147-.1.268-.134.415-.012.05.038.16.026.211-.012.052-.093.057-.105.097-.005.016.064.027.06.038-.055.137-.196.177-.23.322a4.7 4.7 0 0 1-.684 1.534c-.012.019.049.087.038.122-.017.054-.08.004-.087.008-.042.022.026.056-.013.102-.076.088-.231.184-.33.268l-.04.038c-.205.22-.355.44-.583.648-.016.016-.066-.08-.098-.06-.224.14-.217.26-.527.396-.31.14-.925.298-1.304.353v-.001c-.078.22-.254.2-.4.066.65-.578 1.303-.585 1.943-1.027.272-.192.491-.463.674-.748.254-.396.437-.812.668-1.174.038-.058.15-.032.157-.096.001-.011-.088-.027-.082-.059.079-.418.4-.782.415-1.212.003-.113-.091-.143-.105-.241.044.022.09.038.134.06.088-.192.122-.396.13-.601l-.005-.06-.052.004c-.253-.01-.507.005-.762-.006-.021-.001-.024-.096-.046-.1-.043-.007-.085.097-.123.1-.05.005-.058-.07-.104-.065-.022.002-.015.075-.064.063-.004-.002-.007-.078-.039-.068-.088.027-.27.091-.343.11-.093.025-.168-.09-.204-.098-.095-.02-.093.098-.174.098-.576 0-1.127-.133-1.717-.132-.037 0-.174.13-.242.125-.023-.002-.143-.036-.161-.039-.073-.01-.136-.09-.177-.107-.078-.032-.165.091-.208.104-.074.022-.207.005-.238.002-.076-.008-.05-.16-.105-.125-.016.011 0 .128-.056.128-.047 0-.067-.088-.099-.104s-.091.12-.112.117c-.105-.02-.152-.109-.266-.113-.096-.004-.536.059-.573.091-.163.143.11.08.125.084.083.028.07.083.154-.022.074.324.333-.181.4.204.068-.257.125-.127.198-.076.1.071.023-.078.096-.079.029 0 .112.116.155.1s.061-.106.12-.11c.102-.01.185.032.272.139l.046-.142.18.152-.029-.124.053-.018.173.184c.163-.239.116-.032.206-.001s.142-.107.212-.108c.094-.001.137-.018.232-.008.055.005.148.139.072-.073.171-.017.406-.076.56.01.045.025-.016.092-.008.1.039.04.07-.069.11-.053.066.025.195.11.247.13.074.028.192-.112.204-.122.067-.057.085.06.106.051.123-.047.15-.095.189.15.031-.106.164-.284.197-.106 0-.161.11-.134.179-.174l.038.14c.142-.288.424-.08.61-.045.005 0 .014-.12.042-.093.001.002-.002.057.017.064.062.022.3.158.326.159.1.005.118-.085.18-.094.073-.01.089.058.151.06l-.203-.204.001.016c.005.034.112.067.095.122-.01.033-.094.033-.101.058-.028.088.02.16-.096.228.264.045.065.067.04.102-.098.147-.02.358-.075.488-.172.401-.461.675-.684.988-.037.051.07.134.026.188-.02.023-.118-.003-.146.037-.023.032-.014.106-.044.147-.008.01-.082-.042-.094-.027-.09.113-.129.264-.197.406-.026.053-.138-.004.022.133-.052-.02-.1-.035-.15-.056.02.069-.002.095-.035.113-.038.02-.09.028-.118.08-.005.01.035.171-.07.123.048.058.095.101.14.153-.016.052-.127.033-.156.046s.017.1.01.108c-.026.024-.1-.08-.103-.08-.204.005-.145.044-.114.258.007.056-.212.036-.16.18-.034-.05-.055-.101-.085-.152q-.076.02-.153.038l.12.136c-.116.01-.124.174-.206.211-.047.02-.1-.1-.113-.06-.003.007.046.082.033.096-.102.113-.198.053-.333.088-.062.015-.063.187-.187.117-.013-.006-.14-.115-.137.097-.035-.057-.06-.085-.087-.134-.031.323-.081.03-.242-.006-.083-.017-.33.079-.414.12-.049.025-.035.143-.044.149-.054.033-.065-.082-.114-.059-.05.023-.107.158-.162.149-.043-.008-.016-.153-.074-.1-.012.01.028.132-.038.086a2 2 0 0 1-.135-.167c.054-.076.2-.18.252-.214.737-.428 1.716-.902 2.367-1.586.185-.18.341-.353.465-.502.052-.063.186-.04.226-.08.039-.042-.083-.063-.05-.1.034-.036.123-.026.152-.064.198-.251.367-.536.47-.845.025-.081-.052-.167-.037-.24.005-.029.124-.008.127-.029.03-.232-.066-.453-.047-.679a.3.3 0 0 1 .024-.081l.634.635c-.08-.033-.163-.087-.24-.094-.09-.008-.181.061-.261.063-.043 0-.066-.091-.082-.098-.054-.024-.035.088-.063.088-.077 0-.115-.136-.187-.126-.029.005-.025.091-.066.105-.052.016-.033-.063-.07-.066-.002 0 .005.061-.015.064-.127.016-.285.065-.407.06-.254-.008-.504-.127-.74-.15-.06-.006-.044.075-.062.078-.091.019-.124-.078-.22-.043-.015.006-.08.117-.14.089-.033-.015-.07-.085-.099-.101s-.032.086-.066.086c-.061 0-.043-.07-.131-.058-.036.005-.154.102-.245.095-.149-.012-.334-.1-.509-.102-.06 0-.138.104-.23.105-.115.002-.325-.022-.442-.024-.06 0-.064-.11-.072-.115-.045-.03-.027.092-.058.088-.042-.007-.08-.098-.12-.104-.023-.004-.027.087-.033.088-.195.03-.368.021-.563.031-1.043.052-2.096.169-3.136.116-.088-.004-.09-.118-.168-.1-.076.017-.15.264-.213-.009-.003.056-.002.095-.004.145-.159-.078-.317.003-.472.012l-.052.003.76-.762c.003.08-.002.155-.003.231-.001.08-.097.081.033.14-.047.349.042.677.04 1.042.22.002.127.115.146.23.003.014.064-.03.076.008.014.048-.077.123-.03.198.012.021.204.104.182.19s-.003.185-.014.276l.1-.108.077.065-.135.116.17-.054c-.215.217-.163.124-.044.151.06.014.042.076.097.094.02.006.095-.043.116-.036.052.017-.059.077-.039.099.02.021.148-.038.14.04-.215.123-.044.19.094.063.013.013.018.029.035.04l.002.001-.07.067-.012.012c-.208.211.052.075.117.056.073-.02-.015.072-.004.075.029.008.05-.044.065-.033.097.075.135.209.228.29.013.012.045-.054.056-.037s-.016.087.012.101c.007.004.047-.045.057-.038.208.157.394.33.634.451.022.011.085-.083.125-.061.04.021.067.141.119.17.014.007.05-.079.068-.07.06.031.093.122.16.156.112.056.25.032.36.11.022.015.003.09.034.119.053.048.05-.067.065-.08.047-.042.035.109.08.077.006-.005.012-.095.017-.096.082-.003.06.205.161.104.066.128-.07.154-.094.215a.49.49 0 0 0 .07.407c.045.055.054-.041.074-.04.104.01.26 0 .339.046.048.029-.041.067-.017.1.024.032.042-.04.066.04.024.079.079.313.069.424m-3.295-5.597c-.155.382-.566.342-.787.305-.183-.03-.341-.324-.303.102.198.003.358-.04.567-.027.022.002.152.041.197.048.025.004.026.074.06.074.008 0 .05-.093.065-.09.052.008.208.149.23.145.06-.012.037-.121.063-.141.087-.066.096.098.183.045.015-.01.067-.152.13-.134.027.008.071.082.091.078.109-.019.23-.117.33-.1.081.013.06.123.102.138.043.015.095-.113.125-.12.047-.012.104.06.12.06.288-.022.544-.107.822-.137q-.284-.073-.565-.149c-.107.114-.054.007-.124-.028-.055-.029-.069.165-.142.143-.037-.01-.119-.145-.199-.089-.003.002-.01.103-.07.106-.135.008-.341.06-.493.038-.045-.006-.036-.112-.088-.125-.039-.01-.083.088-.143.067-.076-.028-.112-.196-.164.037-.004-.083-.002-.164-.007-.246m-.449 2.965c-.002.014-.118.29.075.084-.023-.224-.187-.357-.23-.563-.202.199-.045.248.052.352.005.005-.07.023-.038.047.016.012.147.006.141.08m-3.133-4.243c-.35.094-.755.078-1.12-.099-.083-.04-.047-.105-.077-.13-.053-.044-.188-.022-.203-.03-.09-.044.004-.138-.006-.148-.1-.114-.135.032-.263-.03-.166-.085-.337-.25-.483-.404a.06.06 0 0 1-.017-.047c.001-.04.023-.082-.057-.16-.079-.072-.387-.297-.365-.503.038-.023.09-.03.134-.046-.269-.102-.314-.197-.375-.52-.009-.052-.096-.079-.091-.175s.116-.124.087-.294c-.01-.06-.096-.088-.108-.183-.01-.08-.01-.181.002-.288.023-.256.117-.55.157-.7.11-.417.1-.715.372-1.024.021-.023.055.084.089.04.033-.043-.024-.162-.017-.175.04-.08.167-.157.276-.212.083-.042.156-.074.177-.103.122-.163-.069-.081.146-.272.213-.185.63-.216.88-.254.288-.047.362-.28.604-.068q.13-.014.261-.015.845-.017 1.69-.03l-.007.14.151-.096-.022.104c.236-.135.447-.204.723-.167.006 0-.009.094-.004.097.062.017.132-.055.186-.038.133.04.357.245.258-.005.308.052.67-.033.964.016.127.02.165.168.226.177.06.008.03-.119.051-.124.13-.028.343-.023.366.12l.08-.172c-.016.158.385.093.49.096.02.001.022.07.036.07.162-.01.201-.117.34-.154.048-.012-.027.11.097.057.011-.005.005-.114.154-.113.238 0 .692-.043.975.011.023.005-.048.124.058.096.039-.01.02-.095.114-.095.36-.004.745.094 1.113.013-.014.095-.145.203.052.143.032-.01.008-.096.022-.099.115-.025.214.036.338.004.036-.01.045-.077.09-.093.068-.024.098.072.176.031.123-.064.141-.154.293.024.86-.012 1.715-.062 2.572.017.248-.051.476-.108.734-.127.076-.006.09.115.212.075.027-.009.221-.139.25.106.053-.02.087-.022.134-.035q-.054-.054-.105-.108c.195.039.355-.048.528-.089.127-.03.037.076.115.065s.114-.034.211.092c.032-.059.058-.077.089-.078.054 0 .115.037.215.045.018.002.129-.046.218-.023.063.018.067.11.169.115.015-.001.255-.059.329-.043.115.018.235.195.251.205.263.146.433.128.487.405.098-.063.277 0 .373.107l.008.009c.131.143.157.564.383.477.02.242.067.184.176.419.114.218.135.83.14 1 .014.145.105.113.148.136q.014.007.02.026c.027.121-.07.054-.073.135-.008.23-.02.434-.04.67q-.105-.01-.212-.023l.057.053c-.014.045-.03.097-.047.137.417-.263-.144.356-.286.503-.086.126-.154.377-.26.554a1 1 0 0 1-.06.092c-.033.04-.058-.04-.065-.031-.075.096-.055.15-.193.246-.075.051-.202.022-.275.064-.453.264-.958.446-1.466.469q-.106.007-.218.01c-.084.002-.157-.114-.227-.116-.101-.004-.165.09-.26.092-.094.001-.23-.111-.294-.094-.065.017.045.126-.072.096-.054-.014.041-.095-.026-.098-.207-.007-.5.093-.722-.004q.016.035.035.07c-.236-.01-.444-.069-.687-.077-.085-.003-.239.068-.322.068s-.122-.078-.189-.08c-.027-.001-.017.068-.035.067-.231-.019-.358-.142-.6-.128-.886.051-1.8.096-2.699.142-.036.002-.06.093-.113.106-.082.02-.086-.06-.097-.062-.07-.018-.042.056-.137.056-.21 0-.548-.065-.757-.06-.481.014-.886.084-1.358.12-.034.003-.011-.105-.07-.106-.416-.011-.504.091-1.022.062s-1.495-.093-2.101-.108V44.1c-.19.198-.438.149-.643-.001 1.182-.49 2.313-.272 3.575-.29 1.327-.021 2.741-.376 4.086-.328.126.005.177.117.283.094.018-.004-.029-.091.027-.1.76-.119 1.57.08 2.318.025.2-.015.232-.112.41-.137-.032.046-.052.094-.08.14.664.117 1.328.095 1.998.095q.224 0 .447-.03c.038-.006.06.087.101.082.085-.01.135-.13.199-.154.084-.032.125.034.204-.003.038-.019-.002-.08.084-.106.007-.002.045.065.095.028.143-.096.373-.346.45-.452a.4.4 0 0 1 .067-.065c.098-.076.22-.105.259-.144.125-.13.025-.196.1-.319.213-.36.33-.77.355-1.186.05-.603-.142-1.278-.618-1.741l-.014-.014c-.05-.053-.327-.12-.425-.187a3 3 0 0 0-.234-.181c-.114-.07-.198-.183-.267-.223-.137-.08-.327.01-.403.012-.119 0-.31-.021-.4-.025l-.034-.002c-.135-.008-.09-.16-.187-.125-.029.011.001.128-.1.128-.084 0-.118-.088-.175-.104-.058-.016-.163.12-.2.117-.187-.02-.27-.109-.474-.113-.17-.004-.954.059-1.019.091-.292.143.194.08.222.084.148.028.126.083.274-.022.132.324.593-.181.71.204.123-.257.225-.127.354-.076.177.071.042-.078.172-.079.051 0 .199.116.276.1.068-.015.101-.087.181-.106l.03-.004a.54.54 0 0 1 .45.186q.052-.062.108-.122.136.112.244.238v-.133q.046.007.091.018c.07.097.126.191.174.296.355-.052.178.082.267.195.038.05.086.072.137.089.07.022.143.034.188.086.102.121.159.172.231.317.043.084-.014.284.122.075.155.256.298.677.212.952-.024.079-.092-.025-.1-.01-.016.028-.006.052.01.078.02.035.052.072.041.11-.028.116-.14.317-.18.392-.05.108.016.333.016.358.008.13-.113.108-.121.142-.054.201-.053.273-.285.18.064.098.046.395-.123.308a.13.13 0 0 1 .039.064c.021.094-.093.185-.15.27a3 3 0 0 1-.137-.073c-.023.392-.62.428-.923.412-.008 0-.008.123-.06.1-.004-.001-.004-.055-.037-.06a2 2 0 0 1-.243-.059c-.147-.043-.302-.089-.33-.09-.179-.004-.21.086-.319.094-.143.012-.163-.07-.3-.058-.063.005-.121.112-.221.097-.06-.009-.066-.093-.113-.1-.167-.024-.29.03-.438-.08-.039.267-.11.07-.183.05-.299-.082-.67.03-.927.006-.798-.076-1.507-.241-2.287-.278-.127-.006-.157.128-.29.12-.06-.005-.121-.102-.219-.103-.078-.001-.191.048-.29.048-.025 0-.027-.091-.066-.092-.291-.005-.575.06-.87.104-.108.016-.176-.104-.157.106-.042-.052-.082-.097-.121-.148-.15.133-.273-.005-.476.029-.021.004-.174.149-.261.044-.006.075.007.138.005.206-.086.029-.218-.058-.276-.066-.058-.01-.097.088-.114.089-.066.002-.05-.126-.056-.128-.309-.122-.276-.054-.463.138-.046.048-.363-.092-.428.059-.002-.062.015-.116.02-.175l-.287-.048c.02.06.045.119.064.178-.195-.051-.358.088-.517.084-.092-.003-.08-.134-.134-.105-.01.005.007.094-.024.1-.254.058-.365-.035-.62-.053-.118-.008-.223.153-.393.047-.016-.01-.184-.153-.287.052-.033-.065-.062-.099-.087-.153-.21.304-.152.006-.435-.065-.147-.036-.64.017-.8.05-.095.02-.093.139-.11.143-.102.028-.102-.088-.195-.069-.094.02-.213.15-.309.138-.074-.01-.016-.153-.125-.103-.022.011.042.133-.073.085a5 5 0 0 1-.239-.168c.097-.076.377-.176.482-.207 1.815-.537 5.47-.542 7.407-.475.18.006.298.132.415.143s.018-.105.125-.095c.106.01.184.091.283.098.671.048 1.348.099 2.014.121.172.006.31-.088.468-.088.06 0 .063.121.106.12.468-.01.901-.126 1.367-.112.193.006.402.108.594.118.157.008.321-.062.463-.063q.014 0 .026.003c.05.017.08.088.1.093.08.02.046-.09.084-.093.102-.009.175.117.274.085.038-.013.013-.096.062-.123.06-.035.06.048.108.035.003 0-.026-.056-.003-.067.153-.07.3-.212.422-.309l.147-.113c.218-.169.431-.357.53-.61.03-.078-.055-.078-.051-.103.01-.121.113-.15.093-.29-.003-.024-.103-.115-.08-.198v-.005c.016-.046.084-.101.097-.143.014-.042-.089-.04-.094-.085-.01-.082.065-.07.03-.185-.015-.05-.148-.172-.187-.276-.056-.16-.112-.39-.27-.564l-.037-.038c-.062-.06-.209-.046-.306-.108a1.7 1.7 0 0 0-.505-.237c-.076-.017-.065-.125-.074-.132-.06-.04-.051.086-.092.076-.055-.014-.104-.108-.161-.116-.036-.005-.044.085-.05.086l-.037.003c-.33.026-.626.019-.957.028-1.857.052-3.73.169-5.584.116-.155-.004-.16-.118-.297-.1s-.269.264-.38-.009c-.004.056-.004.095-.008.145-.282-.078-.564.003-.84.012-.204.008-.385 0-.574-.007-.167-.006-.152-.102-.297.024-.72-.079-1.447-.06-2.16-.19-.167.205-.328.076-.56.046-.028-.004.003.07-.082.064-.106-.008-.161-.122-.34-.115-.048.001-.4.128-.529.063-.13-.065-.318-.103-.453-.165q.03.073.064.144l-.202.025-.029-.177-.118.169c-.085-.303.003-.205-.187-.128-.078.031-.142.001-.217.006a.1.1 0 0 0-.04.01c-.03.012-.044.102-.073.115-.07.032-.036-.093-.082-.09-.048.007-.092.147-.177.103.041-.255-.2-.122-.15.062-.025.009-.049.008-.075.023-.13-.455-.171-.082-.185 0-.022.083-.079-.03-.09-.018-.028.032.024.063 0 .078-.122.081-.266.13-.395.226a1 1 0 0 0-.077.068c-.02.02.05.05.024.068-.025.018-.1-.004-.125.037-.007.01.041.052.03.067a1.75 1.75 0 0 0-.377 1.127c.002.04.115.063.119.134.003.07-.077.196-.06.288.005.024.097.005.103.034.023.1-.013.212.03.32.064.156.203.272.309.415l.044.065c.022.034-.035.087-.005.142.053.093.095-.02.12-.02.078-.002.006.132.08.135.012 0 .05-.082.057-.078.11.05.022.241.198.2.07.16-.144.113-.197.155-.128.108-.063.35.023.446.07.081.104-.01.138.001.185.066.47.096.613.15.089.033-.077.061-.034.097.045.035.079-.036.123.046.043.082.148.316.128.427m7.886-5.597c-.276.382-1.008.342-1.401.305-.326-.03-.607-.324-.54.102.353.003.638-.04 1.01-.027.04.002.27.041.35.048.046.004.047.074.109.074.013 0 .087-.093.115-.09.093.008.37.149.408.145.107-.012.066-.121.112-.141.155-.066.173.098.326.045.028-.01.12-.152.233-.134.047.008.126.082.161.078.193-.019.41-.117.586-.1.145.013.106.123.183.138s.17-.113.222-.12c.084-.012.186.06.212.06.514-.022.97-.107 1.466-.137q-.506-.073-1.007-.149c-.19.114-.095.007-.22-.028-.099-.029-.123.165-.253.143-.066-.01-.212-.145-.354-.089-.005.002-.018.103-.125.106-.24.008-.608.06-.878.038-.08-.006-.063-.112-.157-.125-.068-.01-.147.088-.255.067-.134-.028-.198-.196-.29.037-.008-.083-.005-.164-.014-.246m-7.42.203c-.02-.009-.272-.27-.197.009.34.12.707.06 1.064.128-.122-.275-.328-.166-.579-.146-.012 0 .037-.071-.03-.058-.032.006-.157.116-.258.067m-2.578-1.591a7.6 7.6 0 0 1-1.913-1.182c-.133-.113-.075-.16-.124-.214-.09-.097-.31-.176-.334-.196-.15-.121-.01-.17-.028-.19-.186-.224-.216-.061-.433-.232-.283-.223-.603-.557-.902-.869-.104-.11.01-.128-.22-.358-.165-.16-.722-.621-.837-.95.033-.03.097-.03.143-.045-.436-.244-.54-.382-.892-.945-.055-.089-.174-.127-.256-.295-.08-.169.01-.239-.19-.547-.072-.11-.184-.133-.292-.303a5 5 0 0 1-.173-.296c-.29-.52-.592-1.274-.748-1.628-.373-.842-.68-1.27-.884-2.073-.015-.061.112.045.08-.066-.033-.112-.182-.196-.192-.223-.12-.292-.122-.97-.175-1.134-.132-.402-.103.016-.235-.555-.124-.546-.066-1.328-.073-1.873-.008-.632-.236-.834-.005-1.313v-.066a18.4 18.4 0 0 1 .603-4.904l.131.053q.006-.203.016-.408l.084.087c.047-.63.167-1.188.486-1.846.006-.013.077.059.084.049.08-.144.089-.34.165-.464.18-.302.633-.728.293-.613.412-.698.843-1.554 1.336-2.152.213-.258.393-.247.495-.367.104-.12-.046-.134-.015-.182.185-.286.552-.709.699-.658l.01-.27c.077.115.58-.484.851-.76q.061-.064.101-.102c.036-.034.09.01.116-.017.294-.297.296-.445.542-.715.087-.093.02.127.23-.126.018-.022-.067-.097.233-.347.475-.405 1.42-1.149 2.092-1.483.054-.028-.043.17.181.002.082-.06-.004-.109.208-.232.826-.478 1.784-.814 2.667-1.213-.002.102-.287.318.177.089.075-.036-.011-.097.023-.112.277-.12.544-.14.846-.261.09-.036.095-.107.207-.154.166-.069.266.004.456-.083.298-.136.332-.237.758-.14a18.7 18.7 0 0 1 3.599-.36 15.6 15.6 0 0 1 3.11.289c.649.056 1.253.129 1.916.295.196.05.198.175.515.233.07.01.6.053.586.311.14.029.224.06.343.091-.073-.066-.15-.134-.221-.2.47.217.891.3 1.327.459.319.118.056.109.247.19.19.082.287.104.456.336.246-.032.318.122.638.313.034.02.263.09.422.204.114.082.1.18.292.289.032.017.482.187.61.268.2.121.424.438.457.466.499.415.765.496.983.942.145-.023.475.19.69.415.059.06.123.142.19.231.245.327.509.762.707.698.222.412.24.329.588.744.324.373 1.005 1.486 1.216 1.822.221.33.234.096.332.223.16.21.002.138.092.292.254.434.472.814.716 1.233l-.157.161.095.039c.042.094.09.199.125.287-.044-.864.299.726.423 1.178.126.377.456.976.59 1.401.033.103-.058.049-.051.07.08.245.14.274.204.616.033.182-.025.383.003.559.174 1.087.32 2.148.347 3.236q.009.308 0 .618c-.005.223-.13.408-.144.592-.022.264.058.44.034.69-.023.25-.182.591-.19.76-.01.17.143-.1.066.201-.036.139-.077-.122-.107.05-.093.538-.16 1.32-.416 1.856.03-.019.061-.047.092-.071-.176.599-.405 1.102-.646 1.695-.084.207-.176.607-.269.808-.091.201-.205.259-.283.416-.033.064.042.07.02.112-.243.452-.474.687-.723 1.075a6 6 0 0 0-.148.243 17.9 17.9 0 0 1-4.646 5.297c-.075.058-.074.17-.18.261-.165.142-.22.081-.245.095-.164.092-.059.11-.269.25-.221.148-.52.32-.825.483l-.137.084-.181.003a20 20 0 0 0-1.01-.03c-1.232.014-2.267.084-3.474.12-.087.003-.028-.105-.179-.106-1.063-.011-1.289.091-2.612.062s-3.823-.093-5.372-.108v-.001c-.488.198-1.12.149-1.643-.001 3.022-.49 5.913-.272 9.14-.29 1.678-.01 3.41-.103 5.15-.187h.023l.018-.012c1.492-.984 2.83-2.17 4.009-3.436.219-.235.389-.26.546-.484.027-.038-.116-.003-.033-.117.558-.764 1.128-1.55 1.643-2.375.541-.864 1.014-1.775 1.325-2.702.16-.488.092-.595.198-1.03.022.088.052.152.076.231.621-1.594.848-3.327.846-5.053q0-.545-.024-1.092c-.004-.095.09-.112.087-.212-.006-.2-.126-.382-.146-.555-.027-.225.044-.27.014-.48-.015-.101-.082-.062-.1-.283-.002-.018.072-.041.041-.186a20 20 0 0 0-.41-1.515c-.124-.407-.111-.767-.152-.925-.112-.425-.222-.379-.344-.726-.851-2.354-2.115-4.48-3.927-6.307q-.128-.129-.258-.255c-.122-.12-.67-.45-.906-.654a29 29 0 0 0-.542-.497c-.255-.215-.441-.45-.582-.57-.274-.238-.678-.356-.848-.448-.298-.167-.815-.482-.94-.551-.301-.17-.13-.252-.369-.334-.07-.024-.054.114-.286 0-.194-.094-.237-.21-.366-.287-.13-.076-.433-.058-.517-.096-.438-.199-.607-.358-1.107-.53-.407-.174-2.395-.56-2.568-.527-.76.028.478.155.544.183.366.102.298.143.69.126.247.38 1.517.235 1.672.712.379-.135.581.082.86.257.385.245.13-.03.432.105.12.053.408.321.587.396.18.075.295.035.527.158.413.22.715.456.982.76q.127-.002.253 0 .294.291.573.596l-.03-.178.2.13c.173.21.334.41.5.633.712.293.415.315.694.61.215.231.42.322.608.458q.081.059.155.132c.297.304.443.436.72.764.16.19.326.6.267.199.52.578 1.197 1.417 1.486 2.059.086.188-.114-.01-.103.024.058.168.226.238.303.401.13.27.326.821.408 1.04.124.31.461.739.49.787.17.259.09.378.133.466.238.5.318.607.14.847.147.099.488.63.35.817.157-.038.255.454.356.749l-.102.197c.419.573.38 1.891.371 2.731 0 .021.123.054.1.182-.002.009-.057-.003-.061.083-.006.113-.027.351-.057.606-.043.38-.11.791-.114.864-.028.449.052.534.036.81-.024.362-.111.404-.146.746-.017.16.067.322.009.57-.035.147-.12.147-.15.262-.104.41-.123.725-.324 1.059.234.163-.004.287-.075.457-.287.697-.518 1.609-.814 2.187a14 14 0 0 1-.867 1.48c-.753 1.127-1.595 2.11-2.557 3.085-.221.223-.18.371-.424.597-.11.1-.288.136-.47.298-.145.13-.323.35-.512.506-.05.042-.112-.025-.187.035-.562.45-1.1.913-1.698 1.34-.223.16-.43.14-.283.298l-.05.004.177-.049q-.135-.061-.264-.125c-.383.133-.696-.005-1.214.029-.056.004-.447.149-.67.044-.015.075.02.138.013.206-.22.029-.557-.058-.705-.066-.148-.01-.247.088-.291.089-.17.002-.13-.126-.143-.128-.79-.122-.707-.054-1.183.138-.12.048-.93-.092-1.094.059-.008-.062.038-.116.05-.175l-.733-.048c.052.06.114.119.162.178-.5-.051-.914.088-1.322.084-.234-.003-.205-.134-.342-.105-.027.005.018.094-.061.1-.65.058-.933-.035-1.583-.053-.305-.008-.571.153-1.008.047-.04-.01-.469-.153-.733.052-.085-.065-.159-.099-.222-.153-.536.304-.388.006-1.113-.065-.375-.036-1.636.017-2.045.05-.243.02-.238.139-.282.143-.259.028-.259-.088-.499-.069-.24.02-.542.15-.789.138-.188-.01-.04-.153-.318-.103-.058.011.107.133-.187.085-.046-.007-.515-.14-.612-.168.247-.076.964-.176 1.233-.207 3.82-.442 10.832-.524 15.955-.501l-.445.122a18.4 18.4 0 0 0 2.33-1.62c.338-.278.633-.38.85-.57.215-.192-.04-.105.153-.28.191-.176.381-.256.553-.43a16.6 16.6 0 0 0 2.317-2.956q.315-.514.59-1.047c.193-.381.247-.73.393-1.086.056-.139.17-.1.208-.2.411-1.085.578-2.148.775-3.271.082-.467.242-.968.285-1.442.036-.39-.02-.798-.02-1.148q0-.052.009-.097c.022-.13.083-.21.088-.266.02-.242-.09-.155-.093-.278-.01-.339.116-.515.084-.833-.014-.125-.098-.103-.127-.282-.038-.227.05-.15.036-.314-.001-.01-.059.029-.07-.057-.076-.555-.236-1.234-.349-1.758-.227-1.083-.465-2.165-.874-3.126-.104-.242-.148-.144-.187-.217-.19-.352-.169-.524-.4-.877-.04-.06-.273-.249-.387-.491-.062-.131-.09-.308-.144-.42-.053-.114-.15-.074-.232-.198-.151-.223-.046-.2-.282-.508-.094-.124-.483-.483-.732-.794-.324-.41-.698-.915-1.126-1.376a8 8 0 0 0-.33-.336c-.194-.185-.515-.339-.828-.603-.379-.328-1.1-.906-1.53-1.188-.217-.145-.174-.247-.198-.268-.154-.134-.151.014-.263-.062-.153-.102-.256-.269-.4-.358-.091-.057-.15.014-.171.003-.765-.392-1.451-.717-2.255-1.002-1.855-.656-3.84-.93-5.822-.9-2.626.032-5.215.612-7.52 1.773-.338.172-.406.08-.69.261-.284.184-.423.562-.801.485.023.05.045.083.065.13-.62.315-1.126.8-1.633 1.245a29 29 0 0 0-1.064.973c-.272.26-.319.184-.467.52-1.262 1.241-2.259 2.734-3.093 4.28.02.458-.248.765-.464 1.294-.026.065.068.018-.003.213-.088.244-.24.34-.352.767-.035.114-.113.981-.228 1.284-.124.302-.232.757-.332 1.084.054-.042.108-.096.163-.142q-.02.249-.032.499l-.183.054q.07.154.143.305c-.318.188-.207-.019-.158.455.025.239-.034.422-.008.666.01.088.098.145.109.24a.3.3 0 0 1-.006.123c-.025.06-.09.016-.089.122.002.147.14.352.09.615-.252-.265-.136.528.057.55.007.093.006.172.02.274-.479-.054-.099.411-.008.594.089.184-.037.194-.026.238.032.129.07.026.086.117.1.6.14 1.179.289 1.765.021.084.07-.008.09.09.02.1-.023.213.024.355.013.039.077.033.095.092.375 1.232.827 2.384 1.487 3.53l.028.05c.062.104.206.129.326.329s.23.553.392.797c.042.064.13.028.188.113.195.287.315.572.533.863.37.49.84.929 1.243 1.405.077.09.009.133.117.267.188.232.186.072.24.102.175.096.12.248.287.346.025.014.054-.08.074-.064.31.25.193.426.597.608.224.33-.301-.033-.392-.029-.224.015-.01.432.158.636.144.176.202.097.272.15.37.282.952.655 1.227.88.167.138-.181-.034-.106.051.075.086.173.061.227.188.053.126.132.445.038.519m2.626-31.854c-.543.59-2.207 1.373-3.05 1.926-.705.433-1.447.665-1.048.89.704-.55 1.277-.995 2.104-1.454.085-.05.62-.292.806-.373.104-.047.138.014.277-.053.03-.015.161-.178.225-.203.218-.095.917-.225 1.006-.26.247-.104.114-.17.217-.229.35-.191.443-.048.798-.212.063-.029.246-.232.532-.287.116-.022.329.002.415-.021.472-.13.996-.325 1.446-.371.368-.037.283.087.478.079.193-.008.416-.158.548-.176.213-.03.476.027.542.022.365-.026.718-.046 1.068-.06.896-.033 1.757-.028 2.663.078a19 19 0 0 0-2.564-.332l-.099.022c-.357.079-.171-.017-.47-.045-.257-.021-.31.174-.643.17-.17-.002-.553-.11-.914-.016-.013.004-.035.106-.306.142-.61.079-1.526.298-2.197.455-.197.045-.185-.068-.42-.015-.172.04-.34.19-.606.256-.334.081-.55-.017-.69.285-.048-.071-.067-.15-.118-.218M10.34 20.084c-.016.045-.319.679-.029.503.172-.858.232-1.795.492-2.671-.335.245-.333.794-.394 1.432-.003.03-.058-.105-.067.069-.004.085.068.414-.002.667m9.944 11.232a6.2 6.2 0 0 1 1.571-.092c.122.009.11.081.16.093.093.021.247-.056.269-.056.134-.002.081.125.1.13.2.05.143-.093.335-.107.251-.018.573.008.875.015.106.003.059.099.288.09.162-.005.66-.114.889.002 0 .045-.028.093-.04.139.328-.184.446-.176.912-.131.073.007.143-.069.273-.04.13.027.135.143.396.142.092 0 .148-.083.29-.086.404-.01 1.172.091 1.503.095.653.007 1.007-.133 1.587-.084.044.003-.054.093.028.095s.168-.118.189-.12c.219-.031.681.129.803.11.296-.048.004-.1.415-.123.39-.022.93.134 1.317.164.449.035.593-.19.931.045l1.343-.014-.29.093c.58-.42 1.126-.884 1.625-1.39l.091.107q.063-.131.122-.262l.047.102a4.4 4.4 0 0 1 .73-1.09c.006-.007.064.07.07.066.084-.078.102-.221.174-.29.174-.164.57-.388.263-.38.285-.344.507-.805.721-1.206a6 6 0 0 1 .16-.283c.118-.195.28-.197.334-.295s-.087-.098-.075-.135c.07-.225.212-.58.36-.569l-.112-.195c.143.082.312-.63.36-.812.01-.034.077-.02.084-.046.066-.286-.023-.382-.005-.632.006-.088.098.07.092-.16-.002-.02-.108-.032-.06-.293.08-.42.124-1.23.187-1.736.006-.041.122.09.099-.103-.009-.07-.093-.038-.092-.205v-.098c.006-.621.047-1.289-.118-1.902.098.01.238.232.128-.114-.019-.055-.097 0-.104-.025-.055-.2-.026-.386-.103-.599-.023-.062-.092-.064-.125-.14-.049-.113.033-.186-.04-.313-.116-.198-.21-.203-.115-.512-.448-1.48-1.227-2.812-2.145-4.05-.316-.305-.626-.564-.959-.868l-.022-.02c-.1-.092-.034-.198-.22-.32-.042-.028-.385-.164-.261-.38-.087-.049-.135-.089-.207-.133q.038.104.072.206c-.239-.26-.518-.373-.787-.523-.2-.11-.008-.1-.127-.173s-.183-.09-.257-.292c-.195.045-.213-.09-.427-.227-.023-.015-.186-.048-.293-.123-.077-.053-.057-.147-.196-.207-.023-.01-.355-.059-.449-.092-.145-.055-.322-.264-.35-.278-.398-.197-.595-.147-.828-.431-.098.084-.365.062-.563-.007-.246-.092-.719-.442-.844-.219-.28-.169-.26-.099-.622-.158-.327-.06-1.205-.239-1.48-.23-.274.001-.146.142-.254.156-.177.026-.08-.072-.2-.072q-.106 0-.208.003c-.26.008-.5.034-.755.082l-.066-.207-.047.073-.214.014c.569.266-.527.012-.854.064-.274.031-.695.257-.974.356-.068.024-.037-.061-.05-.056-.165.062-.178.117-.404.171-.12.03-.267-.026-.384.008-.853.253-1.599.69-2.343 1.144-.127.077-.297.047-.405.114-.154.095-.196.237-.333.334s-.4.151-.48.236c-.08.083.14.05-.043.155-.084.048 0-.121-.096-.05-.3.226-.627.646-.98.853.03.005.063.004.094.006q-.108.1-.217.194c-.235.206-.465.399-.69.648-.104.113-.224.37-.316.488-.093.117-.195.124-.27.219-.03.039.038.065.017.09-.258.322-.489.442-.706.822a11.6 11.6 0 0 0-1.43 4.586c-.007.064.078.119.08.213.006.145-.074.145-.079.164-.03.124.049.08.035.248-.024.29-.082.719-.096 1.073q-.006.151-.002.275c.034.86.19 1.568.405 2.37.016.057-.098.041-.075.144.171.718.306.84.612 1.7.103.276.247.629.427 1.005.373.793.937 1.665 1.407 2.226.37.133.622.477.78.84-1.121-.682-1.943-1.715-2.536-2.883a13 13 0 0 1-.935-2.473 16 16 0 0 1-.57-3.204c-.1-1.43.02-2.922.513-4.26.082-.224.221-.272.271-.465.01-.033-.104.016-.074-.084.422-1.384 1.433-2.582 2.327-3.642.228-.27.218-.383.397-.608l.037-.044-.005.076v.128l.069-.059c1.137-.95 2.301-1.872 3.67-2.479.062-.028.11.055.176.03.133-.051.218-.2.334-.251.15-.065.205-.005.343-.062.069-.027.023-.089.179-.13.013-.004.046.065.143.022.265-.122.824-.344 1.058-.415.298-.094.564-.026.68-.039.313-.033.288-.147.555-.184.61-.08 1.216-.102 1.82-.083 1.273.04 2.523.257 3.778.637.116.033.586.05.797.14.072.027.427.209.48.237.217.106.37.267.48.34.215.142.524.17.653.23.226.101.589.35.672.41.204.146.049.226.215.298.049.022.072-.107.223.002.127.093.125.202.199.279.074.076.312.09.362.136.258.236.315.404.589.662.068.064.212.193.38.35.4.365.907.906.976.96.453.333-.166-.332-.202-.37-.16-.225-.095-.234-.359-.364.025-.147-.088-.278-.239-.401-.262-.218-.632-.4-.577-.676-.342.041-.401-.178-.56-.37-.219-.263-.11.011-.303-.136-.075-.057-.232-.316-.361-.385-.129-.068-.229-.029-.392-.13a2.9 2.9 0 0 1-.714-.586q-.104.024-.204.052a11 11 0 0 0-.472-.403l.034.153-.166-.058c-.15-.137-.3-.263-.464-.397-.597.026-.374-.107-.654-.237-.282-.125-.49-.04-.716-.1-.305-.08-.45-.095-.759-.169-.179-.042-.463-.225-.248.027-.566-.09-1.345-.108-1.85-.21-.15-.032.053-.09.028-.1-.127-.044-.24.06-.371.043l-.255-.04a8 8 0 0 0-.573-.081c-.254-.02-.638.15-.676.164-.218.076-.29-.032-.36-.016-.405.095-.483.16-.651-.062-.093.12-.494.377-.636.228.03.157-.335.21-.542.31l-.16-.102c-.38.397-1.32.51-1.904.759-.014.006.012.126-.083.143-.006 0-.022-.053-.081-.03-.197.063-.959.339-1.037.393-.291.176-.29.286-.454.408-.215.163-.294.12-.495.284-.093.077-.115.229-.27.335-.093.063-.155.005-.227.057-.26.185-.397.38-.677.492.129.245-.102.194-.216.278l-.07.054c-.435.347-.797.912-1.097 1.261-.989 1.146-1.793 2.3-2.293 3.74-.08.234.033.328-.043.572-.033.11-.157.202-.201.387-.037.148-.034.371-.068.558-.01.049-.1.037-.114.11-.103.558-.1 1.115-.086 1.682.006.21-.118.335.093.306-.054.078-.1.155-.153.23.04.091.055.178.056.265.004.188-.05.384-.015.65.006.043.167.326.078.5.075.006.136-.025.204-.026.042.16-.017.416-.011.528.005.11.111.17.117.202.02.124-.11.114-.11.124-.027.603.036.536.296.84.062.074.076.693.26.766-.058.023-.12.006-.18.013q.054.27.12.538c.043-.056.085-.119.13-.17.068.367.309.605.42.882.063.159-.065.191.002.273.014.016.08-.05.111 0 .17.281.23.473.319.708.04.107.087.222.156.356.104.2.339.286.421.612.006.029.062.376.343.417-.018.088-.014.152-.03.222.48.138.168.227.454.692.143.245.823.9 1.07 1.077.144.11.224.02.25.037.158.108.081.194.226.297s.4.144.532.265c.102.093-.073.139.119.226.04.017.02-.153.16.015.021.027.22.338.263.402-.194-.04-.68-.284-.856-.39-1.194-.687-2.69-2.053-3.726-3.906-1.078-1.853-1.611-4.176-1.583-6.15a13.6 13.6 0 0 1 .288-2.773c.075-.352.253-.55.322-.771.07-.221-.093-.062-.027-.264.067-.2.19-.325.258-.509a13.3 13.3 0 0 1 1.924-3.445c.204-.267.3-.536.499-.772.078-.091.172-.016.226-.08.215-.251.423-.498.635-.739.37-.419.754-.822 1.216-1.175.302-.23.694-.387 1.012-.582.261-.16.5-.384.744-.52.132-.074.246-.03.297-.049.178-.065.069-.135.156-.179.241-.119.419-.052.642-.161.088-.043.042-.118.169-.185.161-.085.13.015.25-.03.007-.003-.039-.05.024-.078.406-.176.92-.39 1.337-.492.862-.215 1.742-.223 2.55-.25.205-.007.146-.084.212-.091.31-.032.425.059.744.026h.011c.055-.006.275-.117.487-.082.114.02.24.094.335.116s.117-.08.234-.072c.213.016.144.08.448.097.12.007.54-.041.853.02.512.095 1.119.323 1.698.506.199.063.489.048.795.165.376.138 1.036.467 1.392.666.184.1.142.205.162.22.122.105.128-.033.218.025.123.08.192.228.3.304.07.048.13-.021.146-.012.588.345 1.063.717 1.578 1.153q.365.31.711.645c2.41 2.249 3.946 5.6 3.94 8.92.003.244-.072.3-.091.448a1 1 0 0 0-.004.133c.016.264.252.539-.034.742.054.011.093.013.143.023-.112.55-.102 1.109-.195 1.65a9 9 0 0 1-.27 1.105c-.097.317-.18.259-.15.57a16 16 0 0 1-.884 1.888 9.5 9.5 0 0 1-1.254 1.772c-.035.385-.336.557-.66.874-.04.04.057.045-.06.164-.148.149-.304.15-.546.4-.061.068-.479.632-.719.745-.235.115-.545.314-.791.42.059.017.125.026.187.039q-.15.13-.302.255l-.149-.11-.018.054-.143.097-.15-.003-.174.133c-.159-.302.004-.203-.35-.127-.176.038-.317-.015-.499.016-.065.011-.107.1-.18.112-.176.027-.073-.095-.183-.095-.11.001-.268.136-.465.076.206-.24-.39-.162-.418.025-.071 0-.13-.008-.209-.002.072-.472-.299-.137-.446-.073s-.141-.062-.176-.057c-.1.014-.027.067-.096.068-.461.01-.895-.066-1.35-.074-.066 0-.008.071-.084.064s-.15-.078-.262-.073c-.03 0-.04.064-.087.064-.99-.003-1.928-.056-2.936-.065-.092 0-.163.111-.34.108-.176-.004-.444-.105-.663-.113-.058-.002-.073.091-.15.089-.263-.009-.489-.085-.761-.097-.46-.02-.942.036-1.409-.02-.088-.01-.074-.087-.202-.109-.22-.038-.137.076-.182.09-.146.05-.192-.1-.333-.062-.022.006.01.095-.01.097-.3.015-.316-.194-.635-.082-.284-.12.19-.161.239-.225.119-.155-.195-.338-.38-.396-.16-.05-.159.046-.223.046-.335 0-.836.019-1.091-.027-.155-.028.124-.068.045-.1-.078-.032-.13.041-.21-.038-.08-.08-.244-.313-.213-.425M39.761 20.12c.289.297.418.998.423 1.651.005.348-.023.68-.053.934-.072.612-.451 1.08-.01 1.02.1-.66.098-1.2.116-1.901l.003-.053c.01-.14.033-.479.033-.609 0-.085.07-.091.063-.208-.001-.026-.101-.16-.103-.212 0-.174.085-.712.069-.786-.039-.2-.137-.108-.169-.192-.108-.28.049-.34-.057-.617-.02-.05-.192-.19-.222-.403-.011-.086.025-.249.005-.313-.109-.35-.321-.71-.418-1.026-.08-.261.048-.23.01-.372-.04-.142-.225-.255-.27-.342-.073-.14-.088-.345-.11-.39-.435-.868-.969-1.553-1.561-2.26.348.524.658 1.069.915 1.631.27.251.092.151.168.37.057.174.251.127.336.356.043.118.03.416.18.638.005.008.108-.008.182.177.169.413.42 1.058.508 1.558.026.146-.083.139-.06.311.015.126.139.252.15.453.012.253-.14.39.113.532-.08.024-.162.027-.24.053m-5.108 11.92c-.035-.009-.507-.27-.367.009q.213.04.433.057h.006l.007-.004c.44-.26.84-.609 1.263-.917-.354-.053-.568.277-.928.576-.017.015.012-.098-.079-.012-.039.037-.138.22-.288.308l.019-.006a.4.4 0 0 1-.066-.01"/></svg>