<svg width="55" height="55" viewBox="0 0 55 55" fill="none" xmlns="http://www.w3.org/2000/svg">
<path d="M51.0101 14.4384C51.0731 14.5737 50.8754 14.8031 50.8827 14.9682C50.9074 15.6653 50.7649 15.9327 50.6931 16.5511C50.6817 16.6427 50.6742 16.7521 50.6673 16.8749C50.6047 17.7727 50.7046 19.5571 49.2852 19.5572C49.2852 19.5572 49.2852 19.5572 49.2851 19.5572C49.2697 19.5572 49.254 19.557 49.2382 19.5565C48.9378 19.5488 48.6098 19.3615 48.2701 19.3337C47.9302 19.3059 45.7359 19.3267 45.6126 19.0606C45.45 18.6748 46.0126 17.7493 45.9877 17.5435C45.9705 17.4028 45.771 17.2296 45.7356 17.0497C45.7236 16.9886 45.7144 16.9305 45.7071 16.8749C45.6431 16.4805 45.6954 16.2167 45.178 15.8815C45.4461 15.6861 45.7088 15.4773 45.9651 15.2554C45.8019 15.0424 46.1053 14.6196 46.0522 14.4757C46.0099 14.3602 45.7741 14.3419 45.7351 14.2249C45.6901 14.0949 45.8723 13.8237 45.7627 13.5867C45.5816 13.1989 44.9974 13.3256 44.8471 13.1313C44.6917 12.9331 44.838 12.4504 44.5125 12.2522C44.4371 12.2445 44.3618 12.2377 44.2866 12.2315C44.1672 12.3209 44.0473 12.4093 43.9267 12.4967C43.801 12.3937 44.0407 12.202 43.9803 12.0744C43.9089 11.9247 43.619 11.9898 43.5675 11.8963C43.5256 11.8197 43.661 11.5993 43.5872 11.5063C43.4807 11.3713 43.2212 11.5792 43.122 11.5382C43.0855 11.516 42.5697 11.0934 42.5436 11.0718C42.3692 10.8642 42.7061 10.5647 42.59 10.3625C42.4386 10.1037 42.1946 9.91525 41.9288 9.76879C41.6239 9.60031 41.2918 9.48739 41.0137 9.35378C40.7807 9.24172 40.5915 9.0651 40.4266 8.86179C41.4469 8.1656 41.1513 6.86884 40.4389 8.57108C40.3395 8.19451 39.9048 8.49922 39.7185 8.29727C39.5953 8.16571 39.6069 7.88547 39.375 7.77593C38.9501 7.57659 38.259 8.07089 38.5848 6.81959C37.9954 6.83939 37.6373 6.26379 37.179 7.32147C37.0404 7.35713 36.8445 6.62234 36.697 6.50376C36.5761 6.37667 35.4338 5.94143 35.2286 5.93403C35.1204 5.92046 34.9667 5.90704 34.8227 5.91712C34.6865 5.92514 34.5579 5.94608 34.4712 5.9906C34.2271 6.11395 34.0565 7.29246 33.622 5.91455C33.1167 6.02605 32.9367 5.98662 32.4668 5.82653C32.3817 5.79759 32.3721 5.59301 32.3224 5.59283C32.22 5.59283 32.0458 5.74401 31.863 5.76245C31.5625 5.79263 31.3909 5.36219 31.4244 6.01965C31.2263 6.12988 31.0281 6.24011 30.83 6.35034C30.7605 6.22345 30.691 6.09655 30.6214 5.96966C30.5155 6.10795 30.4096 6.24623 30.3036 6.38452C30.428 5.43313 29.6824 5.99456 29.9245 6.54046C29.5404 6.34365 29.1563 6.14683 28.7722 5.95001C28.8258 4.86872 27.9288 5.82523 28.0043 6.41315C27.9603 6.41229 27.9164 6.41144 27.8724 6.41058C27.4876 6.12319 27.1343 6.35825 26.6653 6.16534C26.1963 5.97244 26.2403 5.86716 26.0977 5.36981C25.9873 5.39829 25.877 5.42677 25.7666 5.45526C25.1875 6.81873 25.2899 4.45806 24.2982 5.50396C23.9814 4.64703 23.2004 5.09715 22.6826 5.35699C22.6223 5.38717 22.6213 5.55351 22.541 5.60479C22.3448 5.72814 21.8442 5.51432 21.8613 6.05084C21.688 5.89561 21.5147 5.74037 21.3414 5.58514C21.1998 5.6827 21.0581 5.78025 20.9164 5.8778C20.9172 6.04529 20.9179 6.21277 20.9186 6.38025C20.9044 6.35187 20.8898 6.32545 20.8749 6.30084C20.6364 5.82907 20.2823 6.03548 20.0984 5.91979C20.0591 5.89497 20.0344 5.66466 19.9091 5.61191C19.7622 5.5488 19.5088 5.64497 19.3329 5.59687C19.3027 5.8593 19.2771 6.12168 19.2557 6.38393C19.0046 6.56411 18.7848 5.92004 18.6004 5.90383C18.5666 5.89784 18.0219 6.07685 17.9975 6.10203C17.7853 6.28213 18.0092 6.80054 17.323 6.90475C17.2005 6.92476 17.0365 6.7737 16.9274 6.80779C16.7279 6.86531 16.3687 7.52403 16.5218 7.91776C16.087 7.54258 15.6349 8.0371 15.4062 8.0069C15.3346 7.99687 15.148 7.71987 14.9592 7.75736C14.8032 7.78791 14.6504 8.21709 14.4822 8.28891C14.3004 8.36423 14.0736 8.18815 13.9914 8.22798C13.9139 8.26624 13.9966 8.48957 13.9104 8.55996C13.6402 8.77589 13.1576 8.72908 12.9476 8.92908C12.9445 8.9321 12.9413 8.93516 12.9383 8.93828C12.6474 9.23481 12.8975 9.94366 12.9298 10.3674C12.8466 10.4006 12.6857 10.3722 12.6328 10.4378C11.974 11.239 11.2889 12.21 10.7889 13.1696C10.542 13.5813 9.36322 14.6326 10.9196 14.633C11.1271 14.8338 10.3472 15.919 10.3394 16.1747C10.3148 16.4104 10.5805 16.6037 10.5828 16.7817C10.5832 16.8133 10.583 16.8443 10.5824 16.8749C10.5729 17.4938 10.4124 17.963 10.6349 18.741C10.6966 18.9544 11.018 19.183 11.0143 19.3093C11.009 19.4615 10.6982 19.6253 10.6785 19.8224C10.6339 20.2924 10.7361 21.1681 10.6823 21.619C10.6718 21.7013 10.3989 21.7302 10.3136 21.848C9.9803 22.3065 10.0092 22.8204 10.8806 22.7294C10.3859 23.3171 10.8371 23.8607 10.8647 24.4053C10.9212 25.5568 10.7178 27.6543 11.0839 28.6574C11.3149 29.2899 11.7057 29.2737 11.3685 30.205C11.2983 30.3991 11.205 30.5923 11.1201 30.8227C11.1145 30.8341 11.1091 30.8456 11.1036 30.8573C10.8937 31.2888 10.2112 31.8138 11.1194 32.0571C10.9608 32.5902 11.1971 32.9367 10.5749 33.5026C10.7595 33.5034 10.9438 33.5017 11.1277 33.4977C11.1486 33.5571 11.17 33.6163 11.192 33.6752C11.0343 33.7421 10.8769 33.8099 10.7198 33.8786C10.8139 34.3584 11.6799 34.6527 11.8292 34.9825C12.0495 35.5661 12.7098 37.0858 12.9854 37.6991C13.1175 38.0329 13.3923 37.789 12.9873 38.4502C13.0593 38.4657 13.1312 38.4805 13.2031 38.4945C13.2228 38.4983 13.2425 38.5021 13.2621 38.5058C13.4119 38.4232 13.5602 38.3388 13.7072 38.2526C14.0107 38.5385 14.233 39.06 14.5685 39.3046C15.1834 39.767 16.348 39.9075 16.9083 40.4465C17.0491 40.5859 17.153 40.987 17.3352 41.0457C17.5999 41.1299 17.831 40.6155 18.1486 40.6945C18.6782 40.8385 19.6569 41.6596 20.2502 41.6313C20.4206 41.6263 20.5063 41.4199 20.6204 41.4006C20.7081 41.3852 20.7925 41.3724 20.8749 41.3597C21.3245 41.3027 21.727 41.2659 22.1831 41.002C22.7823 41.5401 22.7305 42.2346 22.9162 42.9353C23.057 43.4642 23.4885 44.69 23.5497 45.1532C23.5928 45.4786 23.4321 45.8972 23.4924 46.2555C22.7745 46.5415 22.4729 46.2266 21.89 45.7227C21.5516 45.729 21.2133 45.7353 20.8749 45.7416C20.0195 45.7554 19.1618 45.6955 18.3144 45.5622C18.2357 45.3501 18.1617 45.1375 18.0923 44.9245C18.0924 44.924 18.0925 44.9236 18.0925 44.9232C17.6894 44.6119 17.3899 45.0534 17.1097 45.0991C15.043 45.4975 11.8877 43.5933 10.2325 41.4651C9.7069 40.8349 9.27871 40.2132 8.92544 39.6883C8.57457 39.2314 7.37048 37.6967 7.51133 37.1802C7.54164 37.051 7.80311 36.8984 7.77064 36.7959C7.21077 36 6.72301 35.1318 6.32368 34.2059C6.3213 33.0557 6.19271 31.9557 6.12678 30.8227C6.07342 30.0175 5.97743 29.2121 5.94499 28.4159C5.78692 24.5407 5.60131 20.6967 5.57413 16.8749C5.56755 15.7988 5.68414 14.7224 5.92223 13.6762C6.15155 12.6272 6.38782 11.23 6.98494 10.3252C7.23406 9.94619 7.73836 10.0157 7.70424 9.34131C7.82049 9.40082 7.93666 9.46048 8.05275 9.52027C8.16122 9.01919 8.0816 8.58548 8.38201 8.1008C8.62423 7.68738 9.41543 6.69184 9.7512 6.42745C9.92004 6.2854 10.0395 6.5131 10.1785 6.36865C10.2061 6.33988 10.2343 6.30431 10.2634 6.26339C10.48 5.95267 10.7687 5.33079 11.103 5.05772C11.4422 4.77167 12.1995 4.56355 12.4515 4.34992C13.3509 3.56661 14.3745 2.56984 15.6619 2.23217C16.0167 2.13759 16.5506 2.30628 16.6529 2.26862C16.8557 2.19139 16.8386 1.87863 16.9737 1.80249C17.6652 1.40804 18.9071 1.57027 19.6308 1.53605C20.0415 1.51089 20.4568 1.49658 20.8749 1.49589C22.5609 1.4925 24.2994 1.40864 25.9504 1.45537C27.2101 1.4908 29.3033 1.43677 30.4663 1.66771C30.7171 1.71758 30.6502 2.05394 30.8608 2.05394C31.0943 2.05387 31.2207 1.82665 31.3298 1.80828C32.0851 1.67967 33.7524 1.44997 34.4655 1.68224C34.6013 1.72683 34.6998 1.99039 34.7811 1.98943C34.7917 1.98943 34.8056 1.97763 34.8227 1.95976C34.8801 1.90789 34.9696 1.80516 35.0826 1.79342C36.4263 1.66393 37.4118 1.9089 38.6602 2.29144C41.0097 2.99966 43.7716 4.17048 45.5157 6.18185C45.5345 6.20322 45.5532 6.22465 45.5717 6.24614C45.9521 6.6877 45.8095 7.32778 45.8629 7.38056C45.9814 7.50349 46.3224 7.36032 46.6131 7.58751C47.5947 8.35148 48.1004 9.94547 48.6888 10.9086C48.9909 11.3824 49.6759 11.9736 49.9291 12.5061C50.1441 12.9271 50.2004 14.0237 50.4187 14.192C50.5559 14.2944 50.9399 14.2921 51.0101 14.4384ZM39.2545 7.39254C39.5613 6.86331 38.8164 7.08552 38.8894 7.47283C38.9035 7.55795 39.1741 7.52799 39.2545 7.39254ZM10.9364 11.05C11.0887 11.1326 11.2409 11.2154 11.393 11.2985C11.371 11.1938 11.3504 11.0883 11.3314 10.9819C11.219 10.9658 11.1062 10.9508 10.993 10.937C10.974 10.9746 10.9551 11.0123 10.9364 11.05Z" fill="#FC6B7E"/>
<path d="M39.5524 35.883C39.4765 35.9379 39.3231 35.7331 39.2236 35.7372C38.9347 35.7477 38.7611 35.6884 38.5541 35.6418L38.9326 35.555C38.9421 35.5154 38.9497 35.4768 38.9595 35.4428C38.9755 35.3822 39.0407 35.3567 39.0479 35.2753C39.0675 35.1295 38.8336 34.9574 37.8813 34.7333C37.8812 34.7333 37.8812 34.7333 37.8812 34.7333C37.8663 34.7289 37.8513 34.7245 37.8362 34.7199C37.5465 34.6383 37.2586 34.4621 36.9481 34.3237C36.6397 34.1855 34.5542 33.4636 34.5984 33.0589C34.6434 32.6607 35.2685 32.1534 35.7098 31.9414C35.896 31.8431 36.0451 31.7773 36.1003 31.7227C36.224 31.5993 36.289 31.3052 36.4801 31.1504C36.8396 30.8618 37.1597 30.7611 37.4614 30.5876C37.5132 30.5777 37.6638 30.5325 37.7165 30.5291C37.8378 30.4527 37.9528 30.326 38.0764 30.0783C38.2769 30.3348 38.4775 30.5913 38.678 30.8478C38.858 30.6841 39.2242 31.0057 39.3432 30.9652C39.4408 30.9319 39.4632 30.6995 39.5661 30.672C39.6814 30.6399 39.901 30.8509 40.1085 30.7797C40.4489 30.6641 40.416 30.0726 40.6139 29.9643C40.8191 29.8523 41.2095 30.1127 41.4538 29.8627C41.4782 29.793 41.5025 29.7234 41.5269 29.6537C41.4782 29.5132 41.4296 29.3726 41.3809 29.2321C41.5098 29.1419 41.6186 29.4284 41.748 29.4127C41.9004 29.3944 41.9315 29.1007 42.0336 29.0854C42.1172 29.073 42.2672 29.2798 42.373 29.248C42.5275 29.2027 42.4397 28.883 42.5146 28.8083C42.5445 28.7791 43.141 28.497 43.1758 28.4887C43.4423 28.4318 43.5386 28.8733 43.7591 28.8771C43.9408 28.8798 44.1171 28.841 44.289 28.7793L44.109 28.815C44.0572 28.7455 43.89 28.586 43.7448 28.5842C43.7011 28.5822 43.6696 28.6014 43.6539 28.6318C43.6377 28.663 43.6378 28.7059 43.6535 28.7504C44.6095 29.4042 45.4829 29.6828 43.8541 28.8965C44.0745 29.0281 43.6105 28.8765 43.6744 28.9657C43.7074 28.9977 43.8432 29.0316 43.9164 29.0474C43.9458 29.0543 43.965 29.0589 43.9633 29.0645C43.9564 29.0765 43.7801 29.1304 43.7714 29.17C43.7614 29.2054 43.9123 29.1903 44.4924 28.9108C44.4252 28.9196 44.4115 28.9129 44.3989 28.9032C44.3748 28.8859 44.3211 28.8312 43.8228 29.4738C43.819 29.5606 44.2289 29.0155 44.2366 28.9145C44.2449 28.8915 44.2556 28.85 44.256 28.7996C43.9447 28.5625 43.4496 28.22 43.3364 28.1678C43.1789 28.0951 42.8995 27.9785 42.7294 28.025C42.5164 28.0817 42.0095 29.1532 42.1538 27.7448C41.76 27.7262 41.6456 27.6448 41.3658 27.3783C41.3152 27.3301 41.3754 27.1344 41.3403 27.1221C41.2679 27.097 41.0952 27.197 40.9599 27.1696C40.7375 27.1244 40.7573 26.6757 40.5655 27.305C40.3892 27.3606 40.213 27.4161 40.0368 27.4716C40.0292 27.3347 40.0216 27.1977 40.0141 27.0608C39.8938 27.1655 39.7736 27.2701 39.6534 27.3748C40.0532 26.5065 39.3419 26.854 39.3342 27.4291C39.1271 27.1489 38.92 26.8688 38.7129 26.5886C39.1052 25.5802 38.1574 26.2638 38.0181 26.8377C37.9873 26.8262 37.9565 26.8146 37.9257 26.803C37.7478 26.4371 37.4209 26.5725 37.1525 26.2751C36.8841 25.9778 36.9497 25.8892 37.0119 25.3843C36.9245 25.3842 36.8372 25.384 36.7498 25.3838C35.8934 26.5299 36.7395 24.3248 35.6955 25.0696C35.7524 24.1823 35.0526 24.416 34.6012 24.5344C34.5488 24.5481 34.4935 24.705 34.4199 24.7338C34.2408 24.8022 33.9569 24.4774 33.7931 24.9884C33.7214 24.7993 33.6498 24.6101 33.5781 24.4209C33.446 24.4783 33.3138 24.5358 33.1817 24.5932C33.1273 24.7516 33.0729 24.91 33.0185 25.0684C33.0039 24.4591 32.6151 24.5564 32.5035 24.3732C32.4814 24.3363 32.5504 24.1157 32.4744 24.0226C32.3859 23.9127 32.1528 23.9043 32.0418 23.7893C31.9056 24.013 31.7693 24.2366 31.6331 24.4602C31.3467 24.5078 31.4835 23.8402 31.3592 23.7416C31.3367 23.7241 30.8562 23.6088 30.8265 23.6137C30.5841 23.6506 30.4535 24.2144 29.9012 23.8923C29.803 23.8347 29.7829 23.6169 29.6901 23.5763C29.5263 23.5041 28.8705 23.7546 28.6937 24.135C28.6605 23.5707 28.0437 23.5826 27.932 23.3842C27.8986 23.3235 27.9967 23.0054 27.8705 22.8866C27.7683 22.79 27.3689 22.9335 27.2299 22.838C27.1424 22.7772 27.1187 22.6521 27.0999 22.5514C27.094 22.5486 27.0752 22.5433 27.0694 22.5405C27.083 22.4808 27.0919 22.4301 27.0862 22.4199C27.0707 22.3956 26.9946 22.6087 26.9794 22.604C26.9399 22.5855 26.8756 22.2173 26.7781 22.2214C26.7494 22.2223 26.7265 22.2624 26.716 22.3259C26.6732 22.5331 26.805 22.9663 26.9306 23.156C26.9135 23.1159 26.8372 22.9943 26.8333 22.9953C26.8272 22.9954 26.8193 22.9939 26.8088 22.9924C26.7794 22.9879 26.7255 22.9848 26.6625 23.0145C26.613 23.0374 26.5599 23.081 26.52 23.1441C26.5105 23.159 26.4725 23.1862 26.432 23.2255C26.4331 23.2296 26.4382 23.2414 26.4392 23.2456C26.4029 23.7932 26.2919 24.5515 27.3648 23.9183C27.6662 23.976 27.4668 25.241 27.5296 25.446C27.5925 25.6509 27.9048 25.7204 27.9648 25.8778C28.1453 26.3527 28.0804 26.755 28.5093 27.2591C28.6208 27.389 28.9808 27.4431 29.0088 27.5335C29.0419 27.6426 28.7897 27.8619 28.8204 28.0076C28.8956 28.354 29.2107 28.9379 29.2725 29.274C29.2832 29.3355 29.0331 29.447 28.9821 29.5585C28.7824 29.9932 28.9379 30.3461 29.7367 29.9913C29.417 30.571 29.9781 30.804 30.1402 31.179C30.4808 31.9727 30.8128 33.5205 31.4084 34.1062C31.7841 34.4754 32.1484 34.3337 32.063 35.1032C32.0441 35.274 32.0004 35.4529 31.9789 35.6596C31.9277 36.1443 31.3817 36.7655 32.3137 36.7914C32.2639 37.3272 32.5446 37.6406 31.9641 38.2305C32.1466 38.2113 32.329 38.192 32.5115 38.1728C32.5357 38.2278 32.5598 38.2828 32.5839 38.3378C32.4297 38.4121 32.2755 38.4865 32.1213 38.5609C32.2212 38.9807 33.0623 39.2605 33.1786 39.6046C33.2032 39.677 33.2289 39.765 33.2549 39.8648L33.2389 39.8205C33.1831 39.7646 33.0387 39.7477 32.9474 39.828C32.8825 39.8806 32.8487 39.9666 32.8391 40.0485C32.8437 40.172 32.8432 39.8074 32.8462 40.5572C32.8594 40.518 32.8701 40.4783 32.8784 40.4385C32.881 40.4257 32.8834 40.4129 32.8856 40.4001C32.8829 40.2359 32.8718 40.072 32.8523 39.9091C32.8263 39.9077 32.9312 40.1467 32.9681 40.12C32.9711 40.1175 32.9727 40.1128 32.9728 40.1066C32.9834 40.0438 32.8273 39.9248 32.7946 39.9443L32.7373 40.1984C32.7673 39.9597 32.8287 39.7385 32.9477 39.5564C33.0506 39.3997 33.4205 39.2454 33.4454 39.0789C33.4818 38.8365 32.9386 38.6825 32.9811 38.3743C33.0553 37.8433 33.8676 36.9706 33.9044 36.463C33.9158 36.3123 33.7218 36.2077 33.7175 36.1015C33.697 35.656 33.7746 35.3065 33.5274 34.84C34.1338 34.4895 34.8116 34.6456 35.5258 34.6277C36.0649 34.6137 37.3276 34.5036 37.7919 34.5371C38.1181 34.5607 38.5102 34.7503 38.8709 34.7666C39.0616 35.3447 38.7129 35.5137 38.1422 35.858C38.0251 36.6555 37.908 37.4529 37.791 38.2503C37.5858 38.2893 37.3807 38.3283 37.1755 38.3674C37.1751 38.3673 37.1747 38.3672 37.1743 38.3672C36.8993 38.6337 37.3733 38.8485 37.4576 39.0324C37.7204 39.6054 37.7516 40.3049 37.6596 41.0468C37.656 41.0963 37.6139 41.2387 37.6053 41.2876C37.3655 42.2563 36.7331 43.1816 35.885 43.7805C35.0316 44.395 33.9882 44.6673 33.0546 44.6307C32.0733 44.5989 31.2276 44.2545 30.6091 43.8619C30.5441 43.821 30.4615 43.7719 30.3673 43.7131C29.7006 43.3713 28.6792 42.2418 28.6248 41.5379C28.6219 41.5321 28.6164 41.5131 28.6136 41.5071C28.6151 41.4409 28.628 41.3836 28.6554 41.3383C28.7109 41.2472 28.9889 41.129 28.9774 41.0571C28.5949 40.5136 28.2124 39.97 27.8299 39.4265C27.8325 38.0296 27.0139 36.8761 26.5035 35.65C25.1224 32.333 23.7135 29.0638 22.6044 25.7129C22.5035 25.4076 22.3388 25.0816 22.1838 24.7513L22.1927 24.776C21.8709 24.0282 21.7696 23.171 21.9332 22.4801C21.9772 22.2892 22.077 22.15 22.1769 22.0237C22.3678 21.7846 22.5369 21.6066 22.5031 21.0988C22.6251 21.1455 22.7469 21.1927 22.8685 21.2405C22.9639 20.6724 22.9334 20.1588 23.401 19.6258C23.4074 19.6188 23.414 19.6116 23.4207 19.6043C23.7944 19.1025 25.165 18.3414 25.6969 18.3239C25.7558 18.3149 25.7998 18.3213 25.8346 18.3358C25.9587 18.3883 25.9692 18.5355 26.152 18.5038C26.533 18.4192 27.4552 18.0807 28.0613 18.2484C28.2141 18.2858 28.3892 18.3611 28.5623 18.4587L28.5245 18.4453C28.7328 18.6017 28.9529 18.8203 29.1052 18.8425C29.874 18.9564 30.7964 18.8358 31.5287 19.2079C31.7307 19.3115 31.9003 19.7048 31.9697 19.7196C32.1057 19.7473 32.245 19.4707 32.3452 19.4636C32.8539 19.429 33.4253 20.0134 33.8551 20.1779C35.2556 20.7138 36.7995 21.1076 38.1908 21.65C39.0699 21.9925 40.5678 22.455 41.3144 22.9585C41.4754 23.0671 41.3179 23.3685 41.4668 23.4201C41.6319 23.4773 41.7958 23.2937 41.879 23.3031C42.4552 23.3669 43.7094 23.5589 44.1375 23.9533C44.2189 24.0287 44.2022 24.3019 44.26 24.3209C44.2891 24.331 44.4138 24.1839 44.5112 24.1982C44.9802 24.267 45.3582 24.3885 45.7298 24.5386C46.324 24.7628 46.876 25.119 47.3807 25.6278C47.6241 25.874 47.848 26.1465 48.0444 26.4429C48.5851 27.2539 48.9115 28.2625 48.8853 29.3032C48.8654 30.3143 48.5001 31.3427 47.8426 32.1352C47.2824 32.8182 46.5148 33.3185 45.7014 33.5442C45.5339 33.5912 45.3684 33.5956 45.2192 33.5748C45.1921 33.584 45.1068 33.5952 45.0792 33.6026C44.8276 33.4787 44.6309 33.2143 44.5933 33.2245C44.4833 33.2531 44.4685 33.6109 44.2563 33.7334C43.5501 34.1376 42.4766 33.9343 41.7896 34.225C41.4502 34.3683 41.0364 34.8871 40.7045 35.0413C40.4394 35.1645 39.7551 35.0997 39.6636 35.3127C39.6078 35.4415 39.6344 35.8214 39.5524 35.883ZM44.2552 29.0492C44.8577 28.9736 44.3471 28.9859 44.0366 29.0915C43.9641 29.1041 44.0981 29.0629 44.2552 29.0492ZM25.8562 22.5525C26.0121 22.6278 26.1677 22.7039 26.3227 22.781C26.2662 22.7331 26.213 22.6802 26.1638 22.6226C26.0683 22.5792 25.9705 22.5401 25.8707 22.5054C25.8655 22.5211 25.8606 22.5367 25.8562 22.5525Z" fill="#FC6B7E"/>
</svg>
