<svg xmlns="http://www.w3.org/2000/svg" width="55" height="55" fill="none" viewBox="0 0 55 55"><path fill="#fc6b7e" d="M51.01 14.438c.063.136-.135.365-.127.53.024.697-.118.965-.19 1.583a5 5 0 0 0-.026.324c-.062.898.038 2.682-1.382 2.682h-.047c-.3-.008-.628-.195-.968-.223s-2.534-.007-2.657-.273c-.163-.386.4-1.312.375-1.517-.017-.141-.217-.314-.252-.494a3 3 0 0 1-.029-.175c-.064-.395-.012-.658-.529-.993q.402-.294.787-.627c-.163-.213.14-.635.087-.78-.042-.115-.278-.133-.317-.25-.045-.13.137-.401.028-.638-.181-.388-.766-.261-.916-.456-.155-.198-.009-.68-.334-.879l-.226-.02-.36.265c-.126-.103.114-.295.053-.423-.071-.15-.361-.084-.412-.178-.042-.076.093-.297.02-.39-.107-.135-.367.073-.466.032a30 30 0 0 1-.578-.466c-.175-.208.162-.507.046-.71-.151-.258-.395-.447-.661-.593-.305-.169-.637-.282-.915-.415a1.74 1.74 0 0 1-.587-.492c1.02-.696.724-1.993.012-.29-.1-.377-.534-.073-.72-.275-.124-.131-.112-.412-.344-.521-.425-.2-1.116.295-.79-.956-.59.02-.948-.556-1.406.501-.139.036-.335-.699-.482-.817-.12-.127-1.263-.563-1.468-.57a2 2 0 0 0-.406-.017.9.9 0 0 0-.352.074c-.244.123-.414 1.301-.849-.076-.505.111-.685.072-1.155-.088-.085-.03-.095-.234-.145-.234-.102 0-.276.151-.459.17-.3.03-.472-.4-.439.257l-.594.33-.209-.38-.317.415c.124-.952-.622-.39-.38.155l-1.152-.59c.054-1.081-.843-.125-.768.463l-.132-.002c-.384-.288-.738-.053-1.207-.246s-.425-.298-.567-.795l-.331.085c-.58 1.364-.477-.997-1.469.049-.317-.857-1.098-.407-1.615-.147-.06.03-.062.197-.142.248-.196.123-.697-.09-.68.446l-.52-.466-.425.293.003.502-.044-.08c-.239-.47-.593-.265-.777-.38-.039-.025-.064-.255-.189-.308-.147-.063-.4.033-.576-.015q-.045.394-.077.787c-.251.18-.471-.464-.656-.48a4 4 0 0 0-.603.198c-.212.18.012.699-.674.803-.122.02-.287-.131-.396-.097-.2.057-.558.716-.405 1.11-.435-.375-.887.12-1.116.089-.071-.01-.258-.287-.447-.25-.156.03-.309.46-.477.532-.182.075-.408-.1-.49-.061-.078.038.005.262-.082.332-.27.216-.752.17-.962.37l-.01.008c-.29.297-.04 1.006-.008 1.43-.083.033-.244.004-.297.07-.659.801-1.344 1.772-1.844 2.732-.247.411-1.426 1.463.13 1.463.208.2-.572 1.286-.58 1.542-.024.235.242.429.244.607v.093c-.01.619-.17 1.088.052 1.866.062.213.383.442.38.568-.006.152-.317.316-.337.513-.044.47.058 1.346.004 1.797-.01.082-.283.111-.368.229-.334.459-.305.972.567.881-.495.588-.044 1.132-.016 1.676.056 1.152-.147 3.25.219 4.252.23.633.622.617.284 1.548-.07.194-.163.387-.248.618l-.016.034c-.21.432-.893.957.015 1.2-.158.533.078.88-.544 1.446q.276 0 .553-.005.03.09.064.177l-.472.204c.094.48.96.774 1.11 1.104.22.583.88 2.103 1.155 2.716.133.334.407.09.002.751l.275.056q.225-.124.445-.253c.304.285.526.807.861 1.052.615.462 1.78.602 2.34 1.142.141.139.245.54.427.599.265.084.496-.43.814-.352.53.145 1.508.966 2.101.937.17-.005.256-.211.37-.23q.131-.024.255-.041c.45-.057.852-.094 1.308-.358.6.538.547 1.233.733 1.933.141.53.572 1.755.634 2.218.043.326-.118.744-.058 1.102-.718.286-1.02-.028-1.602-.532l-1.015.019a15 15 0 0 1-2.56-.18 17 17 0 0 1-.223-.637v-.002c-.403-.311-.702.13-.982.176-2.067.399-5.222-1.506-6.877-3.634a21 21 0 0 1-1.308-1.777c-.35-.457-1.555-1.991-1.414-2.508.03-.129.292-.282.26-.384a14.5 14.5 0 0 1-1.447-2.59c-.003-1.15-.131-2.25-.197-3.383-.054-.806-.15-1.61-.182-2.407-.158-3.875-.344-7.72-.37-11.541-.007-1.076.11-2.153.347-3.199.23-1.049.466-2.446 1.063-3.35.25-.38.753-.31.72-.985l.348.18c.108-.502.029-.936.329-1.42.242-.414 1.033-1.41 1.37-1.674.168-.142.287.086.426-.058a1 1 0 0 0 .085-.106c.217-.31.506-.932.84-1.205.34-.286 1.097-.494 1.348-.708.9-.783 1.923-1.78 3.21-2.118.356-.094.89.074.992.037.203-.078.186-.39.32-.467.692-.394 1.934-.232 2.658-.266q.616-.039 1.244-.04c1.686-.004 3.424-.087 5.075-.04 1.26.035 3.353-.02 4.516.212.251.05.184.386.395.386.233 0 .36-.227.469-.246.755-.128 2.422-.358 3.136-.126.135.045.234.308.315.307q.016 0 .042-.03c.057-.051.147-.154.26-.166 1.343-.13 2.329.116 3.577.498 2.35.709 5.112 1.88 6.856 3.89l.056.065c.38.442.237 1.082.29 1.135.12.122.46-.02.751.207.982.763 1.487 2.357 2.076 3.32.302.474.987 1.066 1.24 1.598.215.421.271 1.518.49 1.686.137.102.52.1.591.246M39.255 7.393c.306-.53-.439-.307-.366.08.014.085.285.055.365-.08M10.936 11.05l.457.248q-.033-.157-.062-.316l-.338-.045z"/><path fill="#fc6b7e" d="M39.552 35.883c-.075.055-.229-.15-.328-.146-.29.01-.463-.049-.67-.095l.379-.087.026-.112c.016-.06.082-.086.089-.168.02-.145-.214-.318-1.167-.542l-.045-.013c-.29-.082-.577-.258-.888-.396-.308-.139-2.394-.86-2.35-1.265.045-.398.67-.906 1.112-1.118.186-.098.335-.164.39-.218.124-.124.189-.418.38-.573.36-.288.68-.389.981-.562.052-.01.203-.056.256-.059.12-.076.236-.203.36-.45l.601.769c.18-.164.546.158.665.117.098-.033.12-.265.223-.293.115-.032.335.179.542.108.34-.116.308-.707.506-.816.205-.112.596.149.84-.101l.073-.21-.146-.42c.129-.091.238.195.367.18.152-.019.184-.312.286-.328.083-.012.233.195.339.163.155-.045.067-.365.142-.44.03-.029.626-.311.66-.32.267-.056.364.385.584.39.182.002.358-.037.53-.099l-.18.036c-.052-.07-.219-.229-.364-.23-.044-.003-.075.016-.091.047s-.016.074 0 .118c.955.654 1.829.933.2.146.22.132-.243-.02-.18.07.033.032.17.066.242.081.03.007.049.012.047.017-.007.012-.183.066-.192.106-.01.035.141.02.721-.26-.067.01-.08.003-.093-.007-.024-.017-.078-.072-.576.57-.004.088.406-.457.414-.558a.4.4 0 0 0 .019-.115c-.311-.238-.806-.58-.92-.632-.157-.073-.436-.19-.607-.143-.213.057-.72 1.128-.575-.28-.394-.019-.508-.1-.788-.367-.05-.048.01-.244-.026-.256-.072-.025-.245.075-.38.048-.223-.046-.203-.494-.395.135l-.528.167-.023-.411-.36.314c.4-.869-.312-.521-.32.054l-.621-.84c.392-1.009-.556-.325-.695.249l-.092-.035c-.178-.366-.505-.23-.773-.528-.269-.297-.203-.386-.141-.89l-.262-.001c-.857 1.146-.01-1.06-1.054-.314.056-.888-.643-.654-1.095-.536-.052.014-.108.171-.181.2-.18.068-.463-.257-.627.254l-.215-.567-.396.172q-.083.238-.163.475c-.015-.609-.404-.512-.515-.695-.023-.037.046-.257-.03-.35-.088-.11-.321-.119-.432-.234l-.409.671c-.286.048-.15-.62-.274-.718a4 4 0 0 0-.533-.128c-.242.037-.373.6-.925.278-.098-.057-.118-.275-.21-.316-.165-.072-.82.179-.997.559-.034-.564-.65-.552-.762-.75-.033-.062.065-.38-.061-.498-.103-.097-.502.046-.641-.049-.088-.06-.111-.186-.13-.287l-.03-.01a.4.4 0 0 0 .016-.121c-.015-.024-.091.189-.107.184-.04-.018-.103-.387-.2-.383-.03.001-.052.041-.063.105-.043.207.089.64.215.83a1 1 0 0 0-.098-.16l-.024-.004a.25.25 0 0 0-.146.023.35.35 0 0 0-.143.13c-.01.014-.047.041-.088.08l.007.02c-.036.548-.147 1.306.926.673.301.058.102 1.323.165 1.528s.375.274.435.432c.18.475.115.877.544 1.381.112.13.472.184.5.274.033.11-.22.329-.189.475.076.346.39.93.453 1.266.01.061-.24.173-.29.284-.2.435-.045.788.754.433-.32.58.241.813.403 1.188.34.794.673 2.342 1.268 2.927.376.37.74.228.655.997-.019.171-.063.35-.084.557-.051.484-.597 1.106.335 1.131-.05.536.23.85-.35 1.44l.547-.058.073.165-.463.223c.1.42.941.7 1.058 1.044q.036.109.076.26l-.016-.044c-.056-.056-.2-.073-.292.007a.33.33 0 0 0-.108.22c.005.124.004-.24.007.51a1 1 0 0 0 .04-.158 5 5 0 0 0-.034-.49c-.026-.002.08.237.116.21q.005-.004.005-.013c.01-.063-.146-.182-.178-.163l-.058.254c.03-.238.092-.46.21-.642.104-.156.473-.31.498-.477.037-.242-.506-.397-.464-.705.074-.53.887-1.403.923-1.911.012-.15-.182-.255-.187-.361-.02-.446.058-.795-.19-1.262.607-.35 1.285-.194 1.999-.212.539-.014 1.802-.124 2.266-.09.326.023.718.212 1.079.229.19.578-.158.747-.729 1.091l-.351 2.392-.615.117h-.002c-.275.267.2.482.284.665.262.573.294 1.273.202 2.015-.004.05-.046.192-.055.24a4.43 4.43 0 0 1-1.72 2.494 4.62 4.62 0 0 1-2.83.85 4.9 4.9 0 0 1-2.446-.77l-.242-.148c-.666-.342-1.688-1.471-1.742-2.175l-.011-.03a.34.34 0 0 1 .041-.17c.056-.09.334-.209.322-.28l-1.147-1.632c.003-1.396-.816-2.55-1.326-3.776-1.382-3.317-2.79-6.586-3.9-9.937-.1-.305-.265-.631-.42-.962l.009.025c-.322-.748-.423-1.605-.26-2.296.044-.19.144-.33.244-.456.19-.24.36-.417.326-.925l.366.142c.095-.569.064-1.082.532-1.615l.02-.022c.373-.502 1.744-1.263 2.276-1.28a.25.25 0 0 1 .138.012c.124.052.134.2.317.168.381-.085 1.303-.423 1.91-.256.152.038.327.113.5.21l-.038-.013c.209.157.429.375.581.398.769.113 1.691-.007 2.424.365.202.104.371.497.44.512.137.027.276-.25.376-.256.509-.035 1.08.55 1.51.714 1.4.536 2.945.93 4.336 1.472.879.343 2.377.805 3.123 1.309.161.108.004.41.153.461.165.057.329-.126.412-.117.576.064 1.83.256 2.259.65.08.076.064.349.122.368.03.01.154-.137.251-.123.47.069.847.19 1.219.34a4.6 4.6 0 0 1 1.65 1.09q.368.37.664.815c.541.81.867 1.82.841 2.86a4.63 4.63 0 0 1-1.042 2.832 4.3 4.3 0 0 1-2.142 1.41 1.2 1.2 0 0 1-.482.03c-.027.009-.112.02-.14.028-.251-.124-.448-.389-.486-.379-.11.03-.125.387-.337.51-.706.404-1.78.2-2.466.491-.34.143-.754.662-1.085.816-.266.123-.95.059-1.041.272-.056.128-.03.508-.112.57m4.703-6.834c.603-.075.092-.063-.218.043-.073.012.061-.03.218-.043m-18.399-6.497.467.229q-.085-.072-.16-.158a3 3 0 0 0-.292-.118z"/></svg>