<svg xmlns="http://www.w3.org/2000/svg" width="55" height="55" fill="none" viewBox="0 0 55 55"><path fill="#fc6b7e" fill-rule="evenodd" d="M24.92 41.246a9.172 9.172 0 0 1-18.045-2.288 9.166 9.166 0 0 1 6.88-8.877l-.005-.29a11.46 11.46 0 0 1 6.944-10.534 13.75 13.75 0 1 1 15.05 15.052 11.46 11.46 0 0 1-10.824 6.937m.577-22.908a11.46 11.46 0 0 1 11.165 11.165 9.17 9.17 0 0 0-2.287-18.044 9.17 9.17 0 0 0-8.878 6.88m-.58 18.322q.145.007.291.007a6.875 6.875 0 1 0-6.868-6.584 9.19 9.19 0 0 1 6.577 6.577m-8.875 6.882a4.584 4.584 0 1 0 0-9.168 4.584 4.584 0 0 0 0 9.168" clip-rule="evenodd"/><path fill="#f6f6f1" d="M33.248 36.153c-.263.117.328-.501-.176-.179q.091-.15.178-.303.117.03.235.058-.113.214-.237.424m.584.767c-.06-.26.195-.68-.287-.386q.045.117.088.238-.245.161-.494.308l-.076.203q-.225-.04-.448-.09.098-.056.194-.117c.125-.28.274-.486.502-.8l-.134.022q.244-.177.48-.371c-.06.168-.132.355-.197.509.32-.075.505-.517.6-.737.129-.3.168-.189.26-.414.015-.036-.047-.078-.01-.143.192-.324.549-.974.512-.507-.305.553-.474 1.093-.887 1.572.26-.018.126.297-.103.713m9.437-7.035c-.07.204-.388.441-.634.558h-.001c-.054.027-.237.01-.09-.106.238-.19.486-.14.511-.352q.105-.046.214-.1m.464-.486c.165-.105.221.063.025.21-.083.06-.031-.166-.195.176-.12-.015-.232-.027-.347-.044l.177-.183c.07.154.175-.055.34-.16m-8.848 4.91c-.116-.088-.167.026-.348.168q.138-.26.262-.526.046.177.086.357m-2.868 3.678-.11.176-.186-.046q-.229.268-.477.524c-.063-.142.29-.36.4-.585.292-.17.472-.21.575-.125zM23.594 12.4l-.044.273c.08-.076.156-.152.24-.224a1 1 0 0 1 .013-.095c.05-.232.186-.196.394-.456.732-.87.336-.871 1.38-1.258-.624.539-.254.473-.49.923-.156-.008.002-.542-.271-.344-.275.432-.516.856-.78 1.317l-.125.22.082-.007.151-.258a10 10 0 0 0-.067.351c-.015-.183-.17.136-.255.016-.038-.054-.015-.231-.005-.342-.172.17-.342.353-.506.537q.046-.199.097-.398.09-.128.184-.253zm-2.71 33.307a1 1 0 0 1-.13.181c-.198.223-.533.407-.784.394a8 8 0 0 0 .913-.575m11.423-7.71-.124.008q.125-.195.24-.395l.21.098q-.16.147-.326.289m7.805-5.64c-.096.053-.106.055-.234.103-.05.022-.479.164-.454.092.204-.087.42-.185.625-.285.022.03.04.062.063.09m-2.48.883h-.002c-.08.012-.16.014-.242.03.272-.155.357-.017.61-.135.253-.12.383-.253.674-.127-.072.059-.147.132-.222.196-.403.038-.48.142-.768.305zm-10-23.88c.01-.129.136-.082.143-.085.532-.412-.048.088.509-.196q-.104.101-.204.202c-.148.025-.304.048-.448.08m18.483 5.41-.074.06c-.162-.34-.314-.364-.371-.688q.231.306.446.628m-4.242 16.82c-.317.287-.575.477-.975.597-.024.007.043-.105.008-.104-.068.05-.136.105-.204.155q-.053-.06-.103-.12.32-.147.634-.315l-.137-.022q.244-.174.479-.359-.016.164-.036.327.168-.077.334-.158m.423-21.842c.035.067-.1.039-.032.124s.26.152.166.2c-.12-.076-.247-.151-.37-.223.272.402.716.57.588.737-.3-.317-.605-.512-.983-.7.107-.13.542-.002.41-.287zM27.195 42.585c-.303.039-.998.182-1.39.097-.097-.018-.416-.322-.414-.364.009-.137.376-.164-.02-.246q.196-.006.391-.02l-.08-.275q-.234.03-.469.051l-.023-.092c.56-.006.228-.12.51-.24a11 11 0 0 1-.783-.16c.149.01.324.016.455.022.015-.157-.294-.118-.346-.15-.294-.154 1.217-.1 1.31-.366a12 12 0 0 1-.725-.025q.102-.046.202-.094c.549.128 1.171.108 1.823.065l.165-.058-.097-.196q.123-.041.247-.086c-.191.287.151.208.612.215-.2.149-.493.174-.435.317.752-.313 1.704-.503 2.348-.989.157-.12.066-.29.464-.499-.002.027.015.062.021.092q.19-.147.351-.277c.426-.347.758-.612 1.3-.975l-.244-.072q-.16.205-.33.403c-.164-.024-.056-.163-.462.132-.337.235-.107.138-.18.23-.051.063-.118.093-.186.124a.5.5 0 0 0-.19.126c-.088.1.081.114-.22.262.054-.176.104-.357.148-.534l.148-.032.097-.023-.149.214a11 11 0 0 0 .598-.622c.03.203.236-.032.35-.15.18-.187.087.048.205-.075.117-.124.165-.345.406-.527-.065.17.147.073.167.157s-.215.317.075.165c.4-.462-.27-.217-.012-.528.298-.373.712-.152.684.026-.022.14-.32.418-.355.555.627-.413.418-.623.463-.747.147-.465.352.11.548-.428.07.07.135.132.202.2.045-.086.066-.15.124-.25-.358.147-.181-.064-.098-.174.131-.176-.147.037-.131-.024.043-.162.209-.341.053-.27.07-.031.145-.067.217-.101.112-.24.075-.948-.154-.443-.099-.128.059-.233.151-.338s.008-.154.084-.248c.302-.38.293-.028.365.108.236-.615-.105-.08.254-.936-.059-.124-.342.205-.247-.136.121.013.258-.052.405-.215l.096-.21.212-.016q.192.046.484.041.066-.073.13-.147c.302.125.196.328.672.022-.204.435-.061.162.439.213.102.01-.1.138.042.148.065.004.197-.09.356-.082.077.006.455.06.667-.081-.222-.13.16-.414-.252-.452.683-.168 1.12-.436.453.073q.285-.004.573-.022.156-.13.308-.265c.075.135.077.19.528-.04q-.276.185-.564.359c.004.032-.013.073.005.099.236-.15.923-.488 1.068-.612.147-.119-.178.03-.148-.03.246-.491.322-.258.572-.458.144-.118-.257.06-.178 0 .293-.218.525-.15.803-.319q-.225-.036-.445-.083a5.5 5.5 0 0 0 .839-.566c.092-.079-.026-.088-.012-.103a8 8 0 0 1 .393-.368c.068-.051.122-.084.17-.108.13-.063.216-.06.391-.2-.087.083-.17.161-.258.241a18 18 0 0 1 .177.496l.07-.05q.348-.251.68-.523-.315.166-.634.316.29-.492.53-.994.283-.094.563-.203c.332-.373.011-.528.387-.503q.119-.188.23-.378.03.063.056.128.143-.227.275-.458c-.231.054-.465.093-.69.134.192-.276.29-.204.347-.223.15-.052.223-.331.347-.37.044-.014-.092.302.054.268.027-.003.585-.162.684-.456-.056-.031-.133-.056-.197-.085.185-.342.569-.338.621-.245.059-.214.21-.485.142-.573q.077-.142.15-.286c.165.22.34-.207.16-.329q-.133.243-.274.482c-.166-.252-.553.171.186-.739.22-.138-.191.343-.02.228.195-.254.275-.542.48-.78.25-.3.194.172.364-.702-.71 1.115-.513.569-.27-.159.114-.357.225-.767.263-1.056.42-.133.743-.87.753-1.936-.114.098-.104.432-.169.614-.064.182-.091-.03-.179.194-.086.223-.254.694-.384.903 0-.207.052-1.187.089-.523.196-.452.342-.663.431-1.265-.143-.198-.236-.193-.204-.773.205.36.397-.302.62-.145-.074.427-.288.174-.411.41-.011.024.011.418-.005.508.244-.37.326-.513.547-.241.004-.29.042-.469-.071-.501l.158-.173c.003-.095 0-.18.004-.28-.177.133-.063-.131-.143-.32-.08-.188-.21.063-.225-.446-.035.17-.068.326-.107.489q-.066-.49-.167-.969c-.087.235-.231.723-.373.711.053-.146-.064-.636-.074-.688-.03-.207.067-.101.068-.117.017-.333-.047-.599.068-.742-.093-.24-.089-.43-.14-.69-.03-.143-.121-.096-.12-.183a1 1 0 0 1 .034-.28c.04-.14.097-.076-.293-.805a11 11 0 0 1-.095.432q-.083-.165-.17-.328l-.035-.241.427-.127-.062-.27q.096.218.184.439l.087.019q-.041-.357-.101-.714l-.15.038c-.113-.522-.08-.556-.409-.964-.155-.357-.49-.544-.671-.694l-.035-.251-.186-.07q.004-.176.004-.351c-.146.02-.192.017-.043.377-.208-.036-.49-.649-.603-.908-.083-.198.165-.084.164-.115 0-.107-.245-.366-.281-.43-.153-.276-.294-.444-.451-.682-.03-.046-.062-.222-.07-.234a9 9 0 0 0-.21-.328c-.244-.293-.383-.41-.458-.447-.223-.104.077.46-.639-.256q-.006.097-.016.192l-.233-.198c-.069-.117.1-.074-.135-.194l.161-.11-.323-.138c.002-.286-.508-.729-.323-.906.064-.064.511.16.36-.07-.16-.142-.107.028-.18-.02-.526-.33-.42-.424-.655-.533l-.205.094q-.105-.1-.215-.198-.06.037-.123.073c.075.048.16.103.227.149-.18.067-1.114-.37-.703-.3.169.028.415.199.347-.062a15 15 0 0 0-.831-.348l.03-.123c-.374-.15-.115.156-.156.235l-.248-.11q-.025-.079-.055-.157c-.03.057-.135.17-.359.014-.145-.1.17-.143-.147-.249-.014.102.05.256-.3.153.004-.11-.01-.217.002-.329-.466-.065-.616-.285-1.17-.323-.217-.014-.494.036-.703-.022a.4.4 0 0 1-.29-.284c-.245-.058-.185.056-.262.064-.36.043-.589-.178-.654-.198-.406-.123-.6-.073-.935-.185.014.075.02.146.03.219.316-.09.476-.072.905.006a14 14 0 0 0-.44-.005l.051.186c1.355-.06.978.256-.115.21q-.128-.18-.26-.359c-.655.126-.948-.03-1.685-.035-.088-.001-.4.083-.535.1h.007c-.074.112.043.15.064.243l-.212.055c-.168-.054-.118-.121-.434-.064q.078.097.154.197c-.34.045-.577.004-.888.096l.145-.109c-.705.066-.24-.456-.726-.137l-.125-.083q.326-.092.656-.168l-.015-.155q-.357.09-.708.2.248-.114.502-.218-.426.048-.851.122c.34.108-.032.23.088.393-.383-.017-.727-.065-1.161.076a2.3 2.3 0 0 0-.483.227c-.133.083-.004.168-.468.195.179.149-.269.462-.119.614.128-.072.264-.14.39-.208-.175.002-.281-.16-.073-.313.268-.197.756-.237.665-.428l.108-.03q.127-.038.255-.072l-.093.199c.308-.194.533-.232.732-.152a14 14 0 0 0-1.157.487l.182-.041c-.244.24.099.237-.421.483l-.064-.175c-.133.231-.647.475-.4.569-.18.021-.228.005-.269.14-.465.074-.814.07-.778-.202q-.202.175-.394.354h.348q-.388.22-.76.467c-.124-.133.451-.36.22-.397-.047-.008-.147.137-.192.146-.482.09.185-.187-.006-.237-.587.34-.29-.178-.926.55l-.153-.077c-.262.201-.17.275-.371.471-.125.123-.427.119-.478.353-.007.043.391.002-.106.46-.38.364-.348.088-.593.253-.25.168-.492.824-.824.806.123-.096.262-.233.394-.341l.014-.258c-.16.26-.384.475-.504.694a.7.7 0 0 0-.073.19c-.471.293-.638.887-.368.875.066-.157-.115-.059.066-.218l.168.027c-.228.32-.369.555-.405.318l-.107.15q.135.104.272.205l-.08.204-.185.17c-.1-.182-.015-.355-.405.144l.16.093c-.31.421-.456.368-.72.974.008-.555.481-.637.094-.827q.126-.155.254-.306l-.137-.14c-.32.639-.38 1.845-.776 2.19.013.063.023.125.039.19-.297.383.003.67-.313 1.058-.031.041-.353-.143-.468.459.047-.006.122.002.18.001a17 17 0 0 0-.157.368l.111.093q.081-.324.177-.643a14 14 0 0 0-.068.55c.11-.223.134-.326.212-.165q-.05.303-.085.609l.074.074q.144-.128.292-.251c-.096.313-.151.607-.226.878l-.014.116-.1.04a3 3 0 0 1-.49.08c-.074.007.098-.201-.283.098-.032-.048-.065-.083-.097-.127-.443.417-.622.466-1.198.708.39-.129.056.007.006.112-.034.071.184-.083.182-.031-.004.051-.19.382.062.235.414-.68.792-.437 1.54-.978q-.166.15-.323.304l.214-.006c-.48.164-.242.095-.4.237a10 10 0 0 1-.657.517c-.064.046-.036-.065-.189.027-.106.063-.309.345-.45.282-.094-.038.206-.562-.404-.108-.166.02.141-.182.142-.194-.006-.124-.436.101-.554.304-.01.016.174-.031.05.112-.29.34-.533.445-.828.56.078.127-.061.505-.4.813l.05.134.09-.202c.07-.04.14-.088.213-.122-.282.36-.166.543-.245.752-.25.722-.402.058-.388-.109.09-.053.181-.1.272-.15l-.137-.072c-.699.888-.37-.073-.798.34.063.154.018.335-.108.534a2.7 2.7 0 0 1-.417.484l-.089.16c.027.027.075.054.088.08-.276.591-.659.54-.722.583-.268.193-.149.49-.178.566-.123.329-.252.392-.32.726-.067.358.082.145.114.27.024.098-.044.37-.018.495-.033-.055-.063-.116-.095-.173-.158.34-.288.624-.379 1.04.246.52-.35.848.121.74.078-.388.17-.597.322-.78q-.05.38-.073.76c-.059.068-.114.115-.174.198.085.201.011.637.04.813.021.147.048.259.074.348.04.129.075.212.096.284l-.002.223-.205.048c-.133.079-.233.079-.673.046.328-.13.424-.228.603-.317a1 1 0 0 1-.036-.284l.002-.11a.3.3 0 0 0-.061.11c-.042.117-.053.233-.149.105q.009.113.022.187l.168-.22c-.273.12-.153.187-.293.317-.142.132-.466.25-.409.351-.053-.047-.1-.094-.155-.14q-.47.177-.917.403.147-.183.306-.36-.165.033-.33.073c-.674.516-2.035 1.113-1.533 1.373-.295.26-.369.248-.595.323.01.045.014.084.026.131-.213.147-.246.388-.424.526-.176.139-.316.095-.163.268-.141.066-.273.142-.41.219l-.004.003a8 8 0 0 0-.032.301 9 9 0 0 0-.3.287c.05.12-.27.545-.312.788-.205.14-.545-.035-.708.492l.27.072q-.098.154-.194.315l-.091-.014.096-.163-.203.094q.002.306.023.607.198-.332.42-.64c-.056.31-.192.49-.202.767-.19.184-.236.084-.339-.051q-.023.134-.043.268c-.114-.094-.245.028-.073-.476l-.146.068c-.02.086-.07.131-.082.23-.035.267.157.518.243.52.045.002.025-.263.084-.237.142.067-.07.588.291-.152.02.284-.066.32-.16.602q.082-.017.165-.032a9 9 0 0 0-.151.383c-.227-.246-.497.779-.565-.199a10 10 0 0 0-.159.838l-.06-.184q.043-.19.095-.378a9 9 0 0 0-.208.435c.022.369.111.516.22.682.106-.405-.018-.278-.01-.602.071.02.14.012.214.047-.172.148-.09.694-.08.815a1 1 0 0 1-.002.125c-.015.18-.128-.006-.127.212.003.257.114.547-.01.77.082-.012.165-.038.24-.06.07.383-.032.32-.04.361-.107.679.145 1.005.397 1.7l-.018-.294c.342.473.16.135.09-.337.103.435.333.626.486.894.151.27.31.775.353.975-.298-.348-.441-.82-.63-1.28-.06.082-.11.159-.176.248.275.227.237.43.257.535.062.304.197.227.131.463.047-.032.087-.058.13-.089.252.558.548 1.18.958 1.368-.086.11-.172.213-.254.332.191.116.274.285.383.429a1 1 0 0 0 .101.112c.171.149.192.012.404.169.04.028.063.148.184.193.124.052.693.048.522.332.169.142.327.28.5.41a9 9 0 0 1-.536-.343q.132.265.285.527l.183-.133c.446.212.684.497 1.136.704.075.033-.032-.177.275.016.307.186.458.55 1.092.657.033.005.267-.13.442.064.041.044-.18.03-.077.103.101.076.61.232.634.334.001-.035-.024-.078-.033-.116q.14.004.279.004l-.007.187c.189-.017.347-.055.503-.09.299-.068.585-.12 1.082-.062a9 9 0 0 1-.619-.298q-.093.088-.188.174a9 9 0 0 1-1.016-.236q-.104.087-.214.172a9 9 0 0 1-.264-.094l.107-.133a9 9 0 0 1-.535-.115c.436-.173.988.289 1 .027q.104.083.214.163c.056-.114.206-.051.484.005l.01.002-.01-.011c-.055-.066-.114-.132-.161-.198q.078.038.178.066c.269.08.63.105.86.137.127.018-.002.105.035.116.197.063.567-.103.643-.096.46.05.815.312 1.291.025-.53.044-.243.014-.444-.065-.064-.025-.736-.012.1-.09.095.023 1.643-.165 1.195.115.233-.119.404-.237.603-.366.683.183.351-.11.123-.25.084-.033.163-.068.249-.105-.098.295.86-.121 1.094-.412.08-.091-.234.01-.022-.154.116-.052.249-.11.37-.17-.163-.009-.081-.129-.043-.242.019-.053.028-.105 0-.142.265-.026.581.077.56.278q.197-.256.37-.523a8 8 0 0 1-.283.1c.583-.336 1.005-1.098 1.32-1.004q.085-.102.167-.208l-.07-.16q.424-.417.793-.895c-.16.319-.148.434-.416.703a10 10 0 0 0 .397-.256c.175-.572.134-.674.54-1.417.022-.03.389-.576.404-.596.091-.076.12.1.163.067.13-.084.563-.786.584-.769.421.304-.677 2.948-1.212 3.522a9.8 9.8 0 0 1-2.501 2.506c-2.035 1.415-4.603 2.011-7.037 1.673a10.26 10.26 0 0 1-6.339-3.428 10.45 10.45 0 0 1-2.344-4.727c-.016-.079-.066-.033-.075-.067-.056-.21.002-.432-.006-.51-.015-.17-.085-.066-.101-.19q-.074-.613-.065-1.216c.014-.854.136-1.686.342-2.53.02-.082.063.017.089-.127.013-.074-.02-.33.031-.494.182-.572.405-1.027.693-1.587.157-.308.43-.748.65-1.065.096-.14.162-.312.264-.447l.033-.041c.12-.135.16-.053.185-.077.12-.108.054-.191.156-.307.192-.212.252-.177.497-.44.173-.19.569-.63.816-.846.638-.423 1.43-.954 2.066-1.278.375-.193.452-.113.608-.178.454-.183.805-.383 1.224-.526l-.822 1.079a4 4 0 0 1-.017-.27v-.036c-.003-.734.133-1.376.254-2.07.02-.114-.072-.103-.054-.216.067-.418.18-.949.302-1.306.136-.4.309-.502.428-.892.035-.114-.058-.188.006-.381.103-.308.346-.587.457-.78.154-.266-.075-.084.137-.443.009-.015.111-.03.152-.108.12-.23.049-.243.256-.563.008-.012.067-.08.137-.16.106-.12.24-.262.258-.286.168-.242.554-.69.655-.832.36-.509-.053-.228.5-.436a9 9 0 0 1 .36-.644c-.08.155.468-.238.502-.269.265-.286.018-.22.416-.518-.358.595.515-.372.765-.527.668-.471 1.36-.83 2.083-1.125l-.668.91a18 18 0 0 1 .274-1.624c.093-.449.203-1.059.358-1.522.035-.108.063-.009.096-.103s-.064-.01-.024-.117c.255-.665.58-1.12.73-1.768.034-.019.049-.01.094-.046.11-.542.797-1.332 1.037-1.625.314-.4.378-.583.564-.835q.048-.066.11-.138c.376-.439 1.1-.936.62-.859.262-.297.532-.57.844-.82.035-.028.064.048.078.037.09-.068.072-.142.127-.195.149-.143-.05.14.156-.071.11-.11.135-.215.472-.487a14.6 14.6 0 0 1 4.254-2.35 15 15 0 0 1 3.12-.732c.181-.022.053-.08.282-.101.801-.087 2.23.035 2.909.095.683.052.542-.067.977-.05.084.004.007.053.082.066.288.05.601.144.888.239.21.07.406.14.571.19.258.08.263-.016.445.03.273.071.515.256.654.308.653.249 1.128.369 1.698.695-.013-.03-.02-.056-.03-.084q1.045.523 1.996 1.202l-.056-.11c.74.541.516.658.725.257.063.029.13.059.19.088-.16.164.175.63.642 1.149.034.036.436.118.226.278a7 7 0 0 0 .27.039q.073.242.137.484l.186.152c.046-.025.08-.067.134-.082.258.269.685.902.86 1.135.442.572.953 1.14 1.09 1.711.144.236.106-.055.283.318l-.074.191c.35.201.26.327.397.766.09.297.216.466.307.747.023.072-.044.084-.025.132.065.157.301.595.336.712q.15.471.253.924c.161.702.254 1.38.294 2.111.006.112.06-.038.066.078.009.188-.1.085-.098.193.003.301.112.299.124.723.04 1.397-.257 2.99-.684 4.374-.013.043.048.059.034.106-.067.227-.184.44-.282.643a3 3 0 0 0-.096.22c-.17.451-.232.821-.44 1.255-.41.845-.88 1.544-1.448 2.318a15 15 0 0 1-1.518 1.77 17 17 0 0 1-1.288 1.149c-2.156 1.74-4.849 2.937-7.654 3.181l.976-.715q-.276.625-.625 1.208c-.051.084-.08.022-.092.05-.122.258-.074.318-.26.323-.165.322-.13.485-.393.84-.144.187-.183-.06-.348.31-.16.328.184.102-.601.837-.022.019-.196.046-.329.223-.136.177.107.054-.265.445-.495.513-1.149 1.018-1.865 1.458a17 17 0 0 1-1.738.92c-.08.046-.886.427-1.048.501-.308.156-.215.216-.642.358-.331.106-.63.082-1.024.177-.046.01-.107.122-.412.157m-4.186-29.007c.042.113.267.399-.034.72-.029.032-.128-.28-.279-.087.092-.22.203-.425.313-.633m2.01 26.948q.478.034.96.027a11 11 0 0 1-.66.153q-.152-.089-.3-.18m20.115-27.535a13 13 0 0 0-.73-.728l.145.02q.318.264.62.55zm1.65 2.212c.053.222-.03.197-.043.334-.002.036.04.18.058.235q.045-.054.088-.112c.292.458.265 1.512-.293.347l.167-.002c-.235-.595-.45-1.298.022-.802M21.327 18.47c.053.376.083.576.045.855l-.052.415-.358.144c-.135.053-.296.1-.515.162q.093-.127.191-.25.143-.001.287.002l.309-.124.044-.358.036-.063-.147-.082q.07-.354.16-.7M39.51 33.024c-.273-.258-.153-.087.217-.332.127-.086-.032-.08.05-.128.433-.259.569-.08.52.079a13 13 0 0 1-.786.38zm-10.78 7.398h-.002c-.038-.075.15-.16-.095-.162q.252-.082.499-.175l-.14.076.16.032c.025-.111.1-.08.284-.12q-.129-.113-.256-.228.312-.073.62-.166l.04.067q.09-.097.174-.193l.099.053q.114-.097.226-.195c.061.05-.112.182.213-.016a10 10 0 0 1-.204.369q-.785.392-1.619.658m14.156-9.557c-.16.14-.259.212-.315.24-.077.04-.076-.005-.067-.085q.008-.054.013-.124a12 12 0 0 0 .37-.031m-8.661-23.7q-.277.175-.546.357c-.364.083-.755-.085-.482-.194.334-.13.696-.036 1.028-.164m-8.01 2.818c.401-.236.134.135.104.26-.178-.024-.31.095-.537.266.197-.178.365-.487.433-.527m15.069-.761c.16.092.332.164.448.288-.102.064-.323-.197-.214.067q-.15-.091-.3-.178c.098-.02.04-.114.066-.177m5.156 16.72c.262-.277.238-.366.28-.735.12-.012.133.46.058.73zM16.706 47.56c-.072.146-.71.19-1.023.131l.114-.057q.459-.012.91-.074m8.968-36.97.108-.082a.6.6 0 0 1-.108.082M14.286 25.944c-.066-.192-.268.24-.024-.285.167-.344.208-.418.362-.734.095.185-.133.843.292-.02.006-.012-.094-.03-.014-.165.025-.04.163-.142.293-.334.042-.062.331-.54-.03.13.111.032.195.122.294.171-.103.269-.401.373-.52.662-.174.43-.032.724-.342.708.053-.393.325-1.015.525-1.014.162-.334.085-.499-.117-.257-.452 1.232-.373.235-.665 1.365.034.026.062.085.101.09-.246.29-.134-.248-.155-.317m1.502-2.33q-.075.354-.124.705c-.123-.07-.177-.241-.055-.587zM7.11 39.174c.078.031.151.113.228.17-.094.068.073 1.65-.11.86-.034-.12.036-.84-.118-1.03m38.216-11q.224-.188.44-.386-.19.395-.407.782-.013-.2-.033-.396M31.131 7.42c.079-.016-.156.15.148.06-.214.12-.412.232-.613.357q-.12-.044-.241-.086l-.126.141q.01-.118.025-.238c.419.036.454-.158.807-.234M42.4 9.295c-.035.17-.555-.078-.111.264-.148.024-.316-.03-.59-.199l-.068-.185c-.063.087-.155.075-.348.047-.423-.244-.382-.254-.4-.467.407.342.497.213.855.324.245.078.496.287.662.216M7.23 37.471c.078.383.24.072.028.693l-.09-.135q.022-.279.062-.558m36.25-26.594c.141-.207.005-.59-.304-.325.196.283.227.006.305.325M26.11 9.578c.546-.385.6-.073.464.191l-.188-.05q-.117.128-.232.26a15 15 0 0 1-.045-.4m21.87 11.475c-.161-.504-.118.534-.215.181-.074-.277.103-.638.214-.5q.003.148 0 .318m-.268-2.882c-.172.114-.135-.013-.038.369.034.109.063 1.001.177.613-.035-.319-.08-.654-.14-.982M21.77 15.729c-.083-.023.02-.737.102-.8.21-.168-.071.505.21.284-.413.583-.135.91-.564.7.127-.397.15-.177.252-.184m2 27.905c-.026.04-.333.293-.343.23.275-.358.303-.254.396-.683q.07.002.142 0c-.058.16-.06.267-.195.454M7.165 40.93c-.06-.161-.03-.482-.062-.67.421.54.309 1.3.062.67m5.89-10.352a.14.14 0 0 1-.056-.042l-.001-.005q.026.024.057.047m8.292-13.484c-.188.25-.105-.733.051-1.016.042.038.085.057.126.124-.215.195-.15.853-.177.892M38.441 7.71c-.727-.223.36-.367.286-.006a3 3 0 0 1-.285.006m-14.38 4.135c.023-.235-.263.034.17-.42l.152-.008q-.166.211-.322.428m9.454-5.325c-.994.133-1.879.455-1.2.718l.21-.067c-.014-.183.267-.124.657-.152.05-.078.267-.111.304-.175.073-.125-.189-.193.03-.324m4.075 27.56.023-.101q.21-.105.415-.218l-.023.194q-.206.066-.414.126zM16.02 22.624c.222.282.342 0 .63-.583q-.325.279-.63.583m30.62-8.73-.228.195c.245.242.317.14.356-.064zm1.599 4.556c-.002-.142-.07-.059-.07-.073-.018-.353.01-.413-.14-.82l-.001-.004-.098-.14a.4.4 0 0 0-.07.183c-.02.146.047.295.015.605q.084-.129.167-.261.045.349.074.699l.076.073c.016-.086.035-.176.047-.262m-12.41 15.844-.087.006q-.135.273-.272.532l.125.089q.087-.303.157-.608l-.008.006zm-21.731-7.448.04.063q-.032-.012-.04-.063m10.206 16.407c.154-.214.292-.564.404-.826-.121-.024-.38.646-.573.828 0 .046.105.088.17-.002M26.871 9.06l.06-.264q.206-.117.416-.227l-.067-.142c-.569.418-.504.21-.882.28q.24.174.473.353m4.478 30.788q.123-.087.208-.16c.23-.196.248-.291-.009-.27a11 11 0 0 1-.393.373q.097.03.194.057M8.855 33.024a1 1 0 0 1-.183.223c-.131.116-.252.143-.35.429a9 9 0 0 1 .484-.462q.023-.094.05-.19M20.1 18.231c-.096.164.154.515-.073.96l.403-.551h-.092c-.083.12-.123.217-.187.33-.09-.048-.188-.092-.277-.138-.413.236-.09.19-.063.27.012.034-.322.141-.19.16.223.025.813-.336.881-.184-.242.046-.643.295-.47.33.147.031.367-.189.603-.29l-.09.124a.6.6 0 0 1 .048-.191c-.303.37-.129-.45.088-.509-.072-.5-.215-.074-.268.425-.114-.322-.087.135-.22.196-.055-.327.195-1.404-.093-.932M37.638 6.812l-.146-.034c-.32-.083-.731-.207-.947-.127-.143.053.366.194-.01.253.323.04.404.012.368-.1q.114 0 .228.006l.09.08.142-.1.23.077c.014-.019.033-.033.044-.055M8.414 44.272q-.08-.112-.16-.228l-.045.071-.037.056c.027-.087-.105-.524-.262-.649-.08-.064-.098.197-.312-.15.144.258.299.484.463.717l-.145.003q.065.131.135.258.183-.036.363-.078m38.262-30.713c-.232-.238-.325-.304-.359-.109v.001q.166.106.33.22zm-33.39 15.94c.479.69.225-.839.05-.565-.011.013.003.503-.05.566M25.919 9.53q.217-.172.442-.337l-.212-.075q-.12.206-.23.412m7.354 29.161c.242-.03.656-.364.719-.653q-.156.127-.315.25.246-.284.475-.58c-.134-.137-.238.155-.58.424-.054.044-.519.164-.509.39.003.05.354-.24.194.052.108-.088.194-.172.29-.26l.117.076q-.192.155-.39.301m2.41-32.183c-.465-.051-.528.027-.63.156q.322-.008.645 0zm.21 28.866c.14-.222-.01-.172.018-.274.066-.246.16-.42.248-.613l-.37.272c.12-.01.243-.025.38-.06l-.066.07h.001c1.822-.197.83-.258-.236-.09l-.087-.113-.012.003.214-.157c-.122.468-.27.891-.09.962M14.957 23.66c-.032.005-.08-.234-.187.097.073.348.188-.089.323-.133l-.08.267c.328-.426.331-.517.079-.444-.018.006-.103.207-.135.213m-1.461 3.254c.317.153.34-.537.234-.546-.03.09.006.177-.046.266-.051.091-.137.095-.188.28m9.931-15.435c-.014.014-.255.077-.153.134.364-.022.556-.503.43-.503-.106.127-.148.237-.277.369m7.318 29.06c.014.007.491-.184.52-.267.016-.08.005-.15.007-.226-.206.195-.726.414-.526.493m-3.9-27.056c-.198.012.2-.276-.168-.184l.112-.175.196.122zm.605.726c-.108-.199.022-.417-.304-.36l.118.196a8 8 0 0 0-.31.09l-.002.13a17 17 0 0 0-.374-.15l.117-.052c.02-.183.09-.305.22-.47l-.104-.021q.165-.066.332-.123c-.029.1-.059.212-.082.304.236.04.317-.2.377-.315.081-.156.12-.061.182-.174.01-.017-.038-.074-.01-.101.142-.14.461-.352.402-.077-.259.19-.362.476-.615.66.2.083.133.245.053.463m4.622-3.397c-.074.117-.275.127-.424.1-.033-.007-.135-.112-.038-.134.159-.035.284.144.332-.01zm.336-.085c.106.03.091.19-.035.172-.052-.006.02-.146-.132.013-.057-.086-.112-.163-.17-.245l.13-.034c.003.16.101.064.207.094m-4.326 2.189c-.078-.12-.127-.08-.275-.083q.125-.097.252-.187.01.135.023.27m-1.677 1.712-.006.12-.158-.04a9 9 0 0 0-.087.374c-.121-.099.02-.261.004-.42.142-.117.265-.128.376-.057zm16.687 9.33.08.151c.036-.04.068-.08.107-.12-.128-.189.03-.143.076-.312.13-.521-.192-.45.338-.814-.114.373.115.277.197.552-.125.014-.314-.283-.41-.146.044.292.07.58.034.897l.066-.003.016-.152q.048.102.095.207c-.09-.108-.089.08-.211.006-.055-.032-.108-.134-.149-.197q-.104.144-.215.285l-.072-.22.047-.133zm-15.064-4.402c.161-.107.398-.061.463.131q-.23-.07-.463-.13m-1.402-4.894-.089-.006.03-.261.194.1zm3.601-2.98c-.047.027-.052.027-.117.047-.026.008-.245.07-.248.01.1-.052.208-.103.312-.152l.053.096m-1.163.6c-.04.015-.081.022-.118.042.08-.156.184-.037.277-.146s.126-.227.332-.098c-.021.049-.038.111-.057.165-.208.023-.212.12-.295.273zm15.008 9.467c-.1-.048.007-.077.008-.082-.065-.333.056.05.1-.257l.069.144c-.058.066-.123.133-.177.195m-4.155-9.184.044-.082c.149.112.26.043.319.225a10 10 0 0 0-.363-.143M31.17 11.54c-.17.123-.297.2-.511.187-.013 0 .012-.08-.008-.09-.033.024-.066.054-.099.08l-.076-.135a10 10 0 0 1 .339-.091l-.081-.065q.13-.076.262-.15-.006.138-.008.274.09-.006.182-.01m10.698 3.345c.007-.046.088-.033.08-.09s-.112-.09-.025-.131q.079.067.158.138c.003-.281-.26-.357-.1-.493.096.202.223.324.394.46-.14.09-.378.014-.428.21zM27.162 17.99c-.047.09-.054.325-.183.417-.032.022-.36.037-.4.027-.132-.04-.113-.176-.24-.06q.018-.073.033-.143l-.274-.054-.01.188-.09-.015c.058-.215-.091-.12-.165-.264q-.126.133-.25.273c.023-.06.048-.131.07-.183-.149-.05-.149.091-.182.107-.197.085.067-.542-.126-.667q-.09.147-.174.303l-.053-.12c.227-.202.374-.453.576-.69l.012-.08-.206-.06.025-.124c.169.203.23.045.441-.073.031.128-.064.224.08.277.03-.372.364-.663.42-1.023.015-.09-.157-.19-.033-.356.015.017.047.04.07.058.105-.346.185-.562.485-.796l-.209-.079a8 8 0 0 0-.055.255c-.126-.025-.123-.121-.259.075-.11.163 0 .096-.001.159 0 .085-.113.087-.11.18.003.072.119.07.017.187q-.113-.179-.222-.364.068-.027.135-.05l.02.15a9 9 0 0 1 .08-.438c.121.142.15-.016.18-.093.046-.12.083.04.114-.038.031-.076-.026-.232.09-.329.014.112.137.073.182.136s-.035.19.119.128c.126-.255-.286-.197-.2-.376.109-.217.494.049.525.163.025.09-.1.216-.072.306.307-.153.101-.332.097-.41-.014-.282.287.17.305-.129l.197.202c.014-.04.014-.076.037-.12-.237-.031-.151-.109-.11-.152.066-.069-.103-.03-.103-.064 0-.094.099-.151-.009-.163l.15.017c.041-.111-.043-.599-.174-.359-.089-.127.024-.133.088-.16.065-.029-.002-.1.053-.126.221-.101.218.126.28.246.163-.264-.1-.118.195-.444-.034-.11-.266-.067-.172-.223q.164.144.4.098a1 1 0 0 0 .147-.046l-.02-.144c.208.06.253.244.328-.067.118.394.048.136.31.151.053.004.017.125.088.127.033 0 .053-.086.133-.081.039.002.24.053.29-.059-.162-.123-.074-.363-.301-.41.295-.13.443-.312.262.085a9 9 0 0 1 .29.034q.039-.099.082-.196c.08.134.09.175.27.056a8 8 0 0 0-.196.224c.012.029.016.063.033.089.069-.106.341-.268.395-.336.053-.07-.088-.018-.084-.063.033-.38.122-.151.223-.257.06-.062-.13-.02-.096-.05.126-.112.262.023.392-.025l-.25-.226c.142-.052.3-.11.423-.186.048-.03-.016-.086-.009-.094.034-.04.198-.136.217-.142.14-.044.174.053.312.02q-.076.034-.149.069.037.249.077.498.194-.041.389-.073a8 8 0 0 0-.325-.082q.162-.26.347-.512.15.09.295.186c.21-.066.106-.386.263-.117l.181-.107-.007.129q.11-.057.222-.112a10 10 0 0 0-.318-.405c.156-.059.178.067.206.094.075.073.185-.055.244.016.02.024-.124.126-.058.214.014.016.255.34.37.249-.007-.064-.024-.14-.036-.209.172-.055.283.272.266.367.085-.072.216-.084.23-.186l.14-.012c-.041.249.146.2.157-.014l-.24-.01c.052-.262-.2-.419.324-.183l.002.003c.03.042.022.055 0 .056-.045.003-.151-.043-.097.025a.4.4 0 0 0 .097.026c.103.018.203.008.3.083.157.126-.048.227.334.1-.814-.418.13-.264.546-.318.065.385.359.54.82.533-.022-.111-.173-.09-.247-.14-.075-.049.025-.092-.068-.16-.093-.067-.302-.168-.4-.255.099-.048.571-.106.247.007.203.14.282.261.54.34.116-.138.135-.24.398-.175-.21.176.038.406-.09.612-.158-.1-.002-.291-.079-.423-.008-.014-.19-.001-.229-.014.125.238.157.325 0 .534.119.008.18.057.222-.052l.03.165c.037.009.071.014.11.026-.005-.182.068-.05.165-.102.098-.051.04-.215.247-.149-.056-.062-.11-.115-.166-.173q.224-.001.452.01c-.058-.135-.222-.356-.175-.487.05.07.304.061.33.067.101.021.019.085.025.09.133.095.265.115.269.261.131-.01.2.056.314.104.063.026.092-.068.121-.034.19.228-.098.223.47.244q-.034-.135-.072-.27.098.005.195.013l.088.09-.215.389.099.082-.21-.065-.054.06q.112.127.216.258l.083-.131c.17.182.148.22.416.222.146.096.385 0 .523-.013l.04.136.135-.06q.005.114.007.228c.102-.092.14-.117.019-.267.152-.099.374.166.44.296.051.099-.125.134-.126.156-.005.07.153.139.173.17q.023.034.045.063c.068.088.133.147.194.24.014.021.004.135.006.14.023.044.075.156.083.166.42.532.202-.264.606.238l.076-.144.106.106c.008.075-.1.068.028.122l-.159.103q.09.026.18.057c-.112.204.035.474-.183.611-.074.046-.27-.062-.277.081.04.08.085-.03.111-.005.188.186.06.26.153.323l.184-.066.024.132.12-.046-.059-.102c.163-.055.477.297.265.223-.086-.03-.137-.15-.253.023.09.085.186.186.275.28l-.1.074c.109.133.173-.084.249-.13l.066.1-.08.105c.057-.03.197-.084.207.047.005.085-.193.057-.105.173.083-.056.165-.162.27-.03-.085.062-.159.125-.25.186.18.133.074.283.275.447.127.104.448.203.108.438.03.104.11.037.142.06.154.107.01.278.009.307-.012.192.074.25.028.414l.203-.078c-.144-.1-.158-.164-.195-.35l.102.166.162-.083c-.414-.485-.015-.488.223-.025q-.14.113-.282.223c.242.229.137.402.17.723.004.038.095.163.108.222l.001-.003c.11.018.149-.041.24-.065l.053.093c-.058.087-.12.07-.08.212q.101-.044.202-.092c.022.123-.01.22-.003.324a.4.4 0 0 0 .02.102l-.09-.066c-.03.334-.477.119-.245.338l-.105.055a9 9 0 0 0-.057-.29l-.155.014q.042.15.078.303l-.125-.214a9 9 0 0 1-.043.359c.181-.14.216.022.402-.021-.143.23-.341.395-.21.722.025.065.158.034-.008.215.212-.04.3.203.5.183q-.006-.104-.018-.205c-.072.073-.263.076-.316-.035-.067-.141.064-.345-.148-.335.01-.055.014-.107.021-.16l.16.062c-.086-.153-.064-.249.064-.331q.06.276.105.559l.026-.084c.135.144.265-.006.29.27l-.186-.01c.164.102.149.377.343.3-.063.08-.101.095-.002.15-.16.212-.357.327-.566.23l.079.246q.097-.057.193-.117-.028.209-.065.415c-.175-.014-.016-.272-.183-.213-.033.011.024.093.003.11-.22.172-.036-.122-.191-.083-.09.288-.294.012-.16.447l-.157.002c-.03.135.085.147.08.27-.003.078-.221.122-.108.235.02.021.297-.058.209.232-.072.224-.213.082-.307.183-.093.097.044.447-.244.432.056-.048.102-.12.153-.178l-.124-.131c.015.176-.118.305-.038.452-.258.132-.188.42.04.448 0-.08-.12-.044-.024-.113l.154.03c-.074.159-.123.27-.233.133l-.043.069.303.153-.007.106-.116.068c-.14-.123-.108-.197-.319.003l.164.085c-.176.171-.309.105-.444.355-.079-.293.31-.217-.07-.418l.148-.104-.156-.106c-.09.262.016.891-.323.909.016.037.027.073.044.113-.058.016-.087.043-.102.076-.048.106.048.278-.171.302-.03.003-.284-.233-.42-.034.04.023.101.066.15.097q-.082.039-.166.073l.08.1q.105-.09.207-.186-.052.106-.107.208c.115-.036.144-.073.192.043l-.152.22.047.075q.137.029.277.056c-.204.143-.345.297-.588.318-.041.003-.046-.15-.117.069-.044-.038-.082-.066-.122-.1-.06.292-.157.32-.427.412.198-.035.04.015.046.088.005.05.087-.034.106.006.02.039.017.268.13.193 0-.472.351-.236.517-.658q-.015.116-.034.233l.128-.006c-.212.127-.101.072-.131.18a1.2 1.2 0 0 1-.205.359c-.024.03-.048-.054-.115-.002-.045.036-.088.228-.205.15-.075-.05-.05-.393-.306-.17-.104-.024.036-.109.032-.12-.046-.095-.25-.02-.273.1-.002.01.108.023.064.1-.104.181-.252.18-.426.154.077.124.046.365-.157.438l.045.121q.023-.054.043-.109c.044.002.086-.005.132 0-.152.151-.066.333-.113.452-.168.406-.266-.16-.265-.27l.175.026-.096-.12c-.43.28-.243-.232-.507-.177.077.245-.077.367-.36.34l-.069.04c.014.035.04.084.044.108-.238.172-.452-.154-.49-.175-.173-.096-.161.143-.193.159-.13.066-.207-.009-.318.082-.12.097.001.13-.016.21-.015.065-.124.116-.152.186l.01-.15c-.168-.004-.306-.02-.478.018-.093.38-.414-.119-.223.304.172-.015.277.006.402.089q-.157.074-.316.141c-.046-.04-.081-.08-.132-.12a.2.2 0 0 1-.056.068l-.081.017.002-.076c-.041-.094-.024-.223-.052-.281-.167-.347-.34-.216-.065-.566.052.23.2.218.195.453.103-.056.072-.175.205-.106-.048-.228-.157-.145-.264-.224-.093-.068-.114-.218-.226-.197.06-.022.119-.04.179-.063q-.025-.218-.058-.435.11.078.219.16l.052-.153c-.247-.33-.022-1.02-.495-.811-.055-.165.001-.2.072-.315-.04-.001-.074-.003-.118-.002.011-.119-.15-.163-.141-.267s.132-.167-.091-.115c.045-.08.078-.156.118-.235l-.183-.06.02-.196c-.113.005-.146-.23-.252-.3.075-.132.423-.266.272-.46l-.249.121-.009-.17.08-.043.006.086.112-.125q-.152-.069-.306-.134-.01.186-.026.369c-.115-.099-.091-.212-.209-.288.074-.146.155-.144.299-.162l-.081-.092c.135-.035.183-.132.269.084q.044-.045.087-.092c-.021-.033-.002-.07-.033-.101-.087-.087-.343-.059-.416-.015-.038.024.086.086.027.109-.144.055-.187-.196-.174.191-.138-.065-.082-.12-.115-.249l-.124.095q-.007-.096-.017-.192c.274-.042.15-.496.545-.233q-.068-.174-.14-.344l.107.028.041.169q.02-.122.037-.246c-.129-.109-.242-.115-.377-.119.015.198.087.09.175.201-.067.031-.124.07-.197.096.1-.136-.113-.286-.147-.328-.103-.13.091-.096.037-.192-.055-.098-.2-.16-.124-.317-.07.046-.138.099-.198.145-.116-.128-.016-.153-.015-.175.016-.353-.22-.383-.432-.628q.006.072.016.143c-.287-.087-.144.01-.068.213-.101-.169-.29-.166-.408-.245s-.206-.305-.217-.41c.202.087.287.293.44.45.053-.072.095-.135.152-.212-.223.002-.178-.131-.188-.182-.03-.145-.145-.044-.07-.21l-.114.107c-.154-.22-.28-.506-.552-.488.087-.105.173-.204.26-.314-.102-.008-.135-.073-.17-.132a.2.2 0 0 0-.068-.077c-.087-.052-.136.053-.247.005-.02-.009-.006-.09-.078-.088-.074 0-.467.154-.264-.107-.07-.065-.132-.134-.2-.2l.245.14a11 11 0 0 0-.022-.338l-.163.144c-.218-.071-.264-.259-.452-.369-.032-.018-.05.145-.155.02-.104-.122-.046-.408-.332-.48-.015-.003-.193.119-.197-.05-.002-.04.103-.027.083-.09-.02-.064-.197-.217-.16-.31-.017.031-.024.07-.037.104l-.127-.02.086-.165c-.272.004-.485.15-.74-.076q.06.185.113.37l.16-.128q.179.146.35.298l.178-.142.088.09-.11.113q.11.048.22.1c-.302.163-.363-.267-.483-.04l-.027-.157c-.078.098-.12.03-.22-.051q-.006.101-.018.202c-.06-.137-.252-.237-.348-.326-.042-.039.05-.092.04-.109-.05-.09-.267-.026-.291-.052-.146-.156-.144-.485-.431-.4.191.14.085.07.114.203.009.042.244.232-.076.046-.033-.025-.577-.476-.312-.536-.123.004-.225.026-.339.04-.088-.476-.142-.08-.15.146q-.055-.017-.112-.037c.16-.183-.264-.348-.445-.281-.06.021.055.132-.067.13-.048-.031-.103-.069-.155-.102.042.16-.133.167-.17.308-.064-.152-.074-.439.022-.567q-.153.052-.305.108l.095.13c-.259-.162-.663-.03-.665-.34l-.116-.016-.062.147a11 11 0 0 0-.495-.211c.158-.012.206-.079.36.005l-.163-.204c-.27.124-.312.222-.677.14a4 4 0 0 1-.296-.17c-.041-.062.031-.145.013-.176-.049-.089-.385-.313-.38-.344.091-.404 1.308-.319 1.633-.27 2.656.248 5.08 1.64 6.88 3.515.52.539.996 1.119 1.433 1.731.02.028.06-.017.07-.006.064.068.04.194.055.224.033.064.081-.015.11.03.3.462.512.939.763 1.426.016.032-.06.028-.022.08.02.026.156.074.188.14.11.233.164.444.263.695.054.138.122.35.175.506.024.068.092.126.116.195.033.097-.065.105-.065.122-.005.073.098.052.114.116.03.119-.035.144.011.29.034.106.15.337.196.47-.005.336.1.731.168 1.03.04.176-.055.206-.045.278.032.254.173.438.194.682.013.17-.001.332-.019.491l-1.338-1.006c.117-.01.234-.023.35-.056.04-.011.004-.094.041-.108.139-.052.312-.13.439-.166.141-.04.241.06.365-.023.036-.024.002-.133.06-.175.093-.067.247-.03.324-.056.103-.035-.033-.096.103-.149.006-.002.064.061.09.043.075-.053.036-.106.155-.166.011-.005.204-.026.22-.036.09-.052.281-.142.323-.191.15-.174-.067-.176.243-.063.03-.103.056-.205.086-.309-.01.084.23.008.24-.008.08-.122-.05-.15.094-.248-.02.334.193-.122.26-.195.335-.35.678-.635.976-1.026.084-.11.158-.275.236-.41l.045-.072c.022-.034.054.023.074-.006.02-.03-.055-.032-.03-.064.153-.197.36-.31.335-.586.025 0 .04.009.07.004-.031-.228.286-.475.363-.596.12-.185.053-.27.124-.41.095-.184.357-.432.032-.386a2 2 0 0 1 .129-.398c.007-.014.077.015.08.01.02-.037-.042-.066-.038-.093.009-.074.06.062.062-.046 0-.057-.049-.1-.02-.25a8.6 8.6 0 0 0 .089-2.859c-.01-.064-.075-.01-.084-.091-.027-.279-.028-.804-.12-1.036-.09-.23-.175-.143-.267-.271-.018-.025.048-.023.04-.048-.055-.17-.047-.403-.093-.544-.03-.093-.115-.047-.148-.104-.05-.086-.008-.22-.03-.27-.1-.232-.252-.344-.338-.565l-.04.051a8 8 0 0 0-.453-.69l-.024.065c-.184-.262-.002-.361-.329-.066l-.08-.023c.183-.135.191-.393.064-.62-.01-.017-.255.042-.055-.126-.069.02-.114.036-.174.055q.032-.139.058-.28l-.087-.037c-.039.033-.074.073-.116.102-.085-.075-.21-.255-.3-.346l-.042-.038c-.21-.162-.5-.213-.577-.452-.089-.046-.068.093-.18-.002l.046-.153c-.228.12-.168-.008-.283-.138-.078-.087-.17-.077-.256-.14-.022-.017.015-.072-.002-.08-.058-.026-.257-.03-.297-.048-.359-.163-.662-.308-1.006-.462-.037-.016-.01.064-.049.047-.06-.027.01-.109-.025-.127-.099-.048-.134.052-.279.011-.475-.133-1.018-.333-1.539-.397-.016-.002-.022.06-.04.059-.113-.01-.222-.104-.328-.11-.175-.01-.308.074-.479.072h-.029c-.317-.003-.611-.029-.945.008-.28.031-.521.08-.823.146-1.154.257-2.182.906-3.114 1.594l-.428.32c-.027.02-.054-.03-.06-.021-.059.085-.014.145-.146.055-.073.11-.02.222-.134.323-.06.055-.148-.116-.177.05-.024.15.14.113-.18.32-.01.005-.125-.032-.153.046s.089.06-.01.218c-.228.369-.616.768-.83 1.23a2.3 2.3 0 0 0-.098.392c0 .126.084.139.043.28-.03.11-.153.161-.184.293-.004.016.076.074.03.163m15.871 6.592c.072.07.361.275.171.422-.017.013-.184-.188-.269-.101.028-.112.067-.214.098-.32M24.81 18.12q.085-.226.183-.447.01.176.027.35-.105.046-.21.097m15.847-4.89a9 9 0 0 1 .462.234l-.106.036a9 9 0 0 0-.395-.145zm-1.238-.488c-.065-.088-.009-.13-.023-.215-.004-.022-.056-.071-.078-.087l-.036.122c-.25-.036-.5-.584.118-.394l-.104.12c.276.146.494.431.123.454m2.443 14.014c-.036.312-.069.407-.375.565l-.014-.198.216-.02-.096-.127q.135-.107.27-.22m-11.83-14.577c-.222-.27-.114-.104.04-.266.054-.057-.036-.079 0-.108.201-.157.314.045.315.175a11 11 0 0 0-.356.2m-4.183 4.424c-.078-.029-.057-.127-.175-.06q.054-.115.111-.227l-.013.077.106-.02c-.072-.07-.01-.07.059-.132l-.306-.075q.111-.12.227-.234l.07.034-.03-.15.095.018.01-.157c.072.026.047.13.124-.036l.112.26q-.21.343-.39.702m5.895-5.213c-.284.098-.22.025-.2-.158zm11.805 7.067q.198.086.39.185c.1.167-.077.381-.181.264-.126-.139-.052-.325-.209-.449m.134 3.968c.092-.202.19.022.258.087-.138.035-.143.12-.187.249.02-.127-.087-.303-.072-.336m-1.406-7.179c-.052-.07-.128-.122-.142-.208.104-.046.113.141.181-.045l.104.135c-.076.008-.09.076-.143.118m-7.647-4.349c.169.136.2.082.381.003.017.108-.2.271-.326.307zm-4.57 9.084c.093-.106.352.006.454.11l-.073.029a11 11 0 0 0-.382-.139m13.67 2.84.024-.06a.14.14 0 0 1-.024.06m-5.92 6.17c.013-.143-.187-.106.054-.153.16-.034.195-.04.334-.094.023.17-.235.355.166.204.005-.002-.048-.085.019-.102.02-.006.116.036.218.01.032-.009.266-.103-.036.056.061.097.097.209.148.307-.11.092-.302-.064-.429 0-.188.096-.203.346-.355.088.138-.134.408-.261.522-.12.158-.073.134-.226-.02-.23-.493.333-.232-.123-.653.182.01.04.007.09.024.124-.198-.077.004-.22.008-.271m1.23-.256a10 10 0 0 1-.144.38.37.37 0 0 1 .023-.411zm-4.23-4.757c-.073.027-.153.032-.23.048.046-.06-.29-.678-.039-.417.038.039.092.377.27.369m-1.374-12.922q.141.064.276.133a8 8 0 0 0-.39.136zm10.2 8.819c0-.037.116.076.087-.067.077.102.142.2.212.304l-.146.104.1.071-.221-.035c.148-.184-.032-.216-.032-.377m-2.062-4.665c.108-.121.336.027.207-.19.112-.024.203.005.297.122l-.056.127c.09-.059.144-.05.255-.023.134.187.095.196-.023.337-.046-.255-.187-.173-.356-.249-.116-.052-.176-.184-.325-.124m-6.394 9.423c-.194-.08-.236.106-.245-.21l.116-.001q.066.105.129.211M41.47 14.23c-.169.18-.212.421.11.181-.042-.173-.162.036-.11-.181m1.845 8.055c.061-.281.326-.188.442-.041l-.159.03.04.166zm-6.392-10.598c.267-.106-.21-.161-.027-.223.149-.05.26.17.166.257zm1.243.402c.043-.187.07-.116-.11-.157-.05-.013-.406-.23-.302-.021.135.053.275.114.412.178m4.198 13.44c-.069-.041-.068-.397-.011-.41.16-.033.012.261.23.22-.288.202-.038.469-.425.2.079-.167.116-.043.206-.01m-15.717-6.973c.02.006.168.148.142.186-.192-.062-.149-.136-.347-.029l-.016-.127c.076-.016.123-.062.22-.03m7.879 4.69c.06.048.064.21.115.277-.43-.03-.356-.468-.115-.277m1.804 5.364a.2.2 0 0 1 .056-.023h.005zm5.696-2.522c-.108.025-.104-.15-.063-.303a.44.44 0 0 1 .1-.204c.039.037.078.063.116.115-.073.009-.105.076-.121.153-.023.108-.016.235-.032.239m.807-9.445c.14.311-.453.102-.137-.068a.7.7 0 0 1 .137.069m.384 7.015c-.102-.127-.19.027-.082-.229l.116-.014zm-.26-4.765c.156.379.332.765.67.44l-.049-.092c-.183.022-.1-.11-.126-.283-.076-.012-.11-.102-.175-.108-.124-.01-.186.111-.32.043m-13.552-5.869-.035-.09q.055-.099.114-.197l.068.17zm9.782 15.168c.153.311.239.185.361-.113q-.18.06-.36.113m.42-14.77.152-.254c-.178-.002-.22.107-.24.251zm-1.775-.962c.046.041.05-.043.055-.04.119.098.122.139.31.163l.088-.03c.014-.221-.09-.148-.206-.332l.002.233a9 9 0 0 0-.256-.16l-.058.046zm-9.105.94q-.125.081-.247.167l.09.124q.075-.147.157-.291m8.743 15.817-.002.058a.1.1 0 0 1 .002-.058M26.42 18.25c-.109-.047-.274-.039-.397-.055 0 .127.316.117.417.207.02-.02.026-.132-.02-.152m16.97 3.642-.177-.107.044-.195-.155-.022c.034.294-.108.21-.273.327q.28 0 .56-.003m-16.483-6.004c.083-.194.073-.294-.123-.28l-.033.249zm9.41 10.537c-.109-.157.089-.225-.08-.36q-.008.156-.02.31zm4.582-.468c-.1.006.078.335-.247.316.026.086.06.157.086.238l-.23-.111c-.103.15.05.135.11.197.025.026-.113.083-.028.107.149.04.283-.219.404-.112-.106.04-.206.21-.088.243.131.035.11-.237.26-.26-.305-.045-.02-.25.159-.156.011-.256-.154-.148-.284.012-.033-.195-.091 0-.207-.062.03-.144.35-.44.065-.412m1.51-8.652c.063.123.056.353.209.398.09.028.07-.199.232-.095-.057-.127-.112-.14-.2-.081l-.068-.074.04-.062q-.068 0-.135.002l-.014-.101c-.02.005-.04.006-.063.012m-8.702 4.59.084.087.047-.063.038-.05c-.037.067.002.292.113.302.057.006.1-.157.233-.039-.088-.093-.18-.17-.273-.254q.057-.03.115-.058L34 21.703zm5.876-8.25c.152.013.214.008.244-.134q-.113.023-.223.049zm-2.467 15.521c-.512-.27-.175.38-.012.25.008-.007-.04-.219.012-.25m6.039-6.858.029-.232-.19.023q.081.103.16.21M27.61 15.286c.156.022.318-.097.27-.268l-.14.085q.074-.13.154-.258c-.139-.13-.134.028-.287.129-.023.014-.319.002-.216.161.02.032.155-.096.159.07.04-.038.07-.077.107-.114l.112.077zm15.084 2.766c.045.183.122.185.263.187a9 9 0 0 0-.12-.245zM28.79 14.118c.092-.05-.012-.105.006-.147.057-.13.155-.159.239-.235q.03-.027.058-.064l.013.066c.626-.345.212-.34-.116-.06l-.026.024-.1-.076c-.113.18-.207.35-.074.492m9.735 14.125c-.019-.019-.035-.194-.114-.065.019.258.115.073.197.131q-.031.057-.064.112c.226-.047.224-.113.07-.224-.01-.007-.069.064-.089.046m-1.33.468c.088.339.296.096.246-.002-.036.01-.043.075-.09.065-.046-.011-.083-.084-.155-.063m5.323-5.24c-.004.008-.169.034-.058.065.29-.002.188-.253.086-.247-.015.064.01.118-.029.183M26.993 16.34c.01.001.16-.136.127-.186-.041-.05-.092-.094-.137-.14-.01.123-.16.292.01.326M22.42 34.205c-.058.147-.153-.126-.205.14l-.1-.064.159-.16zm.799-.497c-.204.082-.346-.011-.4.246l.203-.096-.032.248.106.007q-.134.143-.27.282l.006-.09a.47.47 0 0 1-.3-.16l-.052.08.007-.245c.074.013.157.03.226.044.11-.187-.072-.242-.153-.275-.11-.047-.022-.088-.102-.123-.013-.006-.071.04-.088.022-.083-.09-.216-.297.009-.306.12.17.343.22.43.416.124-.166.246-.122.41-.05m-3.322-2.048c.1-.057.194.039.234.14.01.022-.02.155-.069.12-.08-.055-.024-.257-.136-.16q-.013-.05-.029-.1m-.198-.088c-.033-.072.06-.198.111-.125.022.03-.09.109.07.052l-.066.277-.075-.033c.09-.131-.008-.1-.04-.171m2.545 1.75c-.112.087-.083.117-.112.233l-.118-.151q.114-.043.23-.083m.91 1.242.09.02-.11.112q.12.06.239.125c-.14.068-.185-.062-.316-.07q-.023-.174.138-.286zM27.155 23l.119-.1c-.032-.03-.064-.054-.096-.087-.149.152-.113-.01-.247-.03-.336-.05-.359.152-.513-.039a2 2 0 0 1-.133-.19.3.3 0 0 0 .165.002c.108-.038.103-.18.263-.264.014.121-.215.345-.105.422.228-.08.455-.145.71-.154l-.004-.064-.121.005.164-.122c-.086.103.065.076.007.205-.026.058-.107.125-.156.173q.115.082.227.168l-.174.102zm.095 14.232c.076-.171.265-.254.424-.137q-.21.075-.424.138m-3.967-2.832-.046.067-.194-.048.165-.141zm-2.168-2.232c.031.018.032.022.061.057.012.013.102.136.055.17q-.087-.069-.177-.136zm.64.572c.013.025.02.054.038.075-.131-.003-.037-.128-.133-.155-.097-.027-.193.004-.113-.208.043-.006.096-.02.142-.03.042.15.12.112.255.121zm3.644-10.443c-.031.105-.06 0-.064 0v-.001c-.255.096.034-.06-.207-.076l.107-.08c.056.05.112.109.164.157m-6.796 3.929-.084-.037c.075-.125-.01-.218.146-.267a8 8 0 0 0-.061.304m2.126 5.403c.149.026.251.063.307.216.003.01-.064.041-.065.06l.088.019-.08.132-.164-.168-.023.094-.187-.069.196-.175zm-.438-7.055c-.04-.008-.046-.08-.094-.075s-.055.1-.109.02l.088-.139c-.244-.007-.257.228-.41.082.159-.083.24-.195.323-.35.105.13.088.343.267.392zm5.837 10.946c.023.103.162.313.105.469-.014.039-.284.226-.324.236-.134.033-.186-.082-.237.072q-.021-.064-.044-.126l-.26.1.083.141-.087.032c-.051-.182-.136-.043-.268-.105q-.044.15-.092.297c-.006-.05-.016-.108-.02-.152-.153.037-.09.126-.114.151-.132.137-.188-.37-.421-.337q0 .125-.003.251l-.1-.042c.1-.216.09-.429.107-.664l-.039-.048-.193.091-.054-.071c.248-.006.205-.113.281-.303.106.041.095.15.235.088-.207-.208-.184-.567-.423-.746-.059-.043-.234.046-.288-.094.022-.006.057-.024.084-.034-.207-.187-.332-.29-.394-.57l-.156.152q.09.043.18.089c-.082.093-.154.07-.07.213.068.118.073.022.122.038.066.02.006.105.078.127.056.018.12-.068.15.042q-.2.028-.4.063l.038-.11.126.021a8 8 0 0 0-.293-.154c.172-.064.063-.117.016-.152-.072-.055.072-.058.025-.095s-.197-.013-.225-.112c.096 0 .117-.1.188-.129s.143.055.154-.078c-.162-.135-.28.203-.391.117-.133-.099.223-.395.333-.411.087-.012.15.11.237.1-.02-.284-.253-.127-.32-.13-.247-.006.24-.232-.02-.265l.232-.16c-.033-.016-.065-.018-.1-.04-.086.205-.134.126-.163.09-.044-.058-.05.089-.082.088-.083-.003-.109-.084-.146.007q.027-.064.05-.128c-.091-.039-.532.073-.353.162-.13.083-.108-.008-.12-.058-.01-.05-.085.012-.097-.03-.047-.167.146-.197.263-.26-.21-.106-.115.09-.365-.1-.098.051-.09.23-.212.186.123-.14.163-.294.089-.46l-.127.054c.036-.116.111-.196.096-.233-.01-.022-.051-.029-.153-.017.34-.213.12-.08.115-.305-.002-.046.108-.052.103-.114-.002-.027-.08-.018-.086-.087-.002-.034.01-.225-.099-.225-.08.18-.299.202-.306.403-.15-.182-.337-.219.032-.244l-.03-.249-.185.023c.092-.125.125-.156-.026-.239q.12.024.243.052c.022-.023.05-.042.067-.067-.109-.013-.329-.15-.404-.154s.015.077-.023.098c-.315.177-.16-.01-.28-.026-.069-.008.03.106-.006.099-.128-.028-.074-.203-.163-.267q-.036.158-.077.313a.9.9 0 0 0-.293-.164c-.04-.01-.055.068-.063.069a.7.7 0 0 1-.184-.037c-.09-.053-.04-.142-.125-.198l.113.037q.15-.2.304-.4a9 9 0 0 0-.258-.19q.063.128.119.258a9 9 0 0 0-.503.18 10 10 0 0 0-.045-.303c-.159-.056-.275.262-.217-.037l-.163.005.072-.105-.192-.002c-.004.16-.015.327-.024.482-.112-.017-.063-.132-.065-.168-.006-.094-.131-.026-.133-.11 0-.03.134-.062.137-.164.002-.02-.002-.404-.126-.366-.022.06-.044.135-.066.2-.133-.011-.078-.345-.029-.426-.09.036-.19.005-.238.096q-.051-.016-.104-.028c.117-.223-.044-.23-.12-.03l.171.076c-.13.232-.006.438-.29.088-.029-.152.118.058.092-.057-.08-.089-.19-.07-.259-.19-.087-.148.092-.217-.232-.15.355.365.152.333-.104.293l-.135-.046.003-.118c-.018-.127-.033-.27-.069-.37.374-.085.493-.317.42-.667-.107.024-.065.138-.104.198s-.095-.013-.149.063-.128.244-.202.326c-.06-.07-.178-.43-.024-.19.111-.166.222-.236.263-.439-.153-.08-.256-.088-.23-.296.204.152.393-.052.615.036-.074.126-.286.017-.405.083-.012.008.027.147.02.177.217-.11.298-.138.527-.031-.01-.09.029-.14-.084-.166l.157-.03c.003-.029.003-.055.009-.085-.179.012-.06-.05-.126-.121-.066-.073-.217-.02-.186-.183-.051.046-.095.089-.143.135a7 7 0 0 1-.063-.35c-.122.05-.312.188-.448.157.062-.042.012-.242.013-.264.005-.08.08-.017.084-.023.07-.108.068-.213.21-.221-.034-.104.019-.16.045-.253.014-.05-.082-.072-.055-.096.187-.157.234.076.15-.383q-.122.03-.246.063l-.022-.159.07-.073.41.17.06-.08-.023.17.068.042a6 6 0 0 1 .204-.176l-.14-.066c.14-.139.18-.12.129-.34.06-.118-.077-.316-.116-.432l.118-.033-.083-.113.21-.004c-.105-.087-.136-.12-.25-.018-.06-.064-.042-.143.007-.213a.6.6 0 0 1 .178-.158c.08-.042.148.109.168.11.066.005.096-.129.12-.145.097-.07.138-.138.224-.2.017-.012.12-.002.126-.003.034-.02.123-.062.13-.069.384-.354-.275-.18.085-.526l-.142-.07.072-.092c.065-.006.08.09.101-.023l.123.143q.005-.078.013-.158c.201.103.404-.022.566.177.055.067.005.24.128.25.06-.033-.043-.077-.028-.1.12-.163.21-.045.243-.127l-.094-.169.106-.018-.064-.11-.074.05c-.08-.148.155-.429.135-.235-.009.078-.1.121.07.23.053-.078.117-.165.179-.245l.08.095c.088-.098-.103-.162-.157-.233l.07-.06.102.076c-.036-.053-.107-.184 0-.191.068-.004.083.18.162.1-.062-.078-.165-.155-.077-.252.068.08.134.15.2.236.075-.165.217-.065.312-.253.06-.119.085-.426.331-.101.078-.027.01-.105.023-.136.048-.121.167-.05.219-.02q.016.01.023.011c.153.01.184-.073.32-.03l-.093-.197c-.055.142-.103.156-.244.192l.114-.099-.092-.157q-.06.072-.104.112c-.176.162-.226-.011-.089-.196a.6.6 0 0 1 .138-.13q.113.133.221.27c.142-.239.295-.14.539-.18.029-.005.113-.098.157-.113h-.003c0-.11-.052-.146-.082-.235l.065-.055c.075.054.07.116.176.071l-.098-.196c.123-.034.221.023.33-.035l-.041.092c.262.015.148.467.29.226l.054.103-.214.07.028.152q.11-.048.221-.091-.076.066-.148.134.14.01.276.025c-.125-.172-.006-.216-.06-.398.192.129.335.317.57.164.047-.03.012-.16.163-.01-.047-.207.13-.314.1-.512q-.08.014-.156.035c.062.066.08.255 0 .317-.102.078-.27-.038-.242.171q-.061-.006-.123-.01l.032-.163c-.109.095-.183.08-.26-.043q.205-.077.418-.14l-.066-.021c.098-.145-.03-.263.181-.308l.009.186c.064-.171.279-.179.203-.366.068.056.082.093.117-.01.177.14.279.326.219.543q.09-.053.183-.101l-.102-.182q.163.009.324.024c-.001.176-.209.043-.154.204.01.032.07-.033.084-.015.145.202-.09.049-.053.2.225.059.024.29.35.11l.008.156c.103.014.108-.1.203-.11.06-.006.1.204.183.078.014-.02-.037-.222.1-.24a.2.2 0 0 1 .073.005c.175.041.068.199.148.278.076.079.347-.104.337.178-.038-.047-.093-.082-.139-.124l-.1.14c.136-.04.236.072.35-.027.103.231.328.118.353-.106-.063.012-.036.122-.09.04l.024-.153c.126.047.213.077.105.205l.053.03.125-.316.085-.009.053.1c-.1.154-.158.136-.002.306l.072-.171c.135.14.079.278.277.364-.238.125-.169-.257-.338.138l-.08-.125-.086.167c.202.043.716-.165.72.148l.093-.06c.045.212.286-.075.302.184 0 .028-.205.305-.048.392.021-.04.06-.105.088-.154q.029.068.053.136l.088-.09-.146-.156.17.06c-.026-.099-.055-.118.044-.184q.09.048.179.099l.066-.057.059-.262c.113.16.24.26.246.475.001.036-.13.069.054.093l-.092.127c.249-.002.27.08.336.3-.02-.167.016-.038.08-.057.044-.013-.025-.07.01-.094s.239-.064.178-.149c-.416.086-.192-.268-.55-.342q.098-.007.2-.01v-.115c.1.168.058.078.15.085a.8.8 0 0 1 .308.118c.024.017-.05.053-.007.103.017.02.078.028.115.054.028.02.042.05.01.1-.05.074-.352.116-.167.298-.027.095-.095-.011-.105-.006-.087.058-.031.221.074.22.01-.001.027-.098.093-.075.157.057.149.186.117.338.116-.088.333-.104.39.055l.114-.059-.098-.017c.003-.038 0-.072.006-.112.13.103.302-.002.41.018.37.075-.16.252-.26.27l.031-.152-.114.102c.239.314-.225.245-.187.456.23-.107.337.002.3.24l.035.048c.033-.016.08-.046.103-.054.153.168-.163.393-.185.428-.097.154.13.106.144.129.058.093-.016.166.068.24.09.081.125-.02.201-.018.061.002.108.08.174.093l-.143.013c-.008.134-.027.245.007.374.368.022-.122.337.293.134a.41.41 0 0 1 .091-.327q.068.113.134.23c-.039.041-.079.075-.118.12.123.026.125.184.172.232.217.225.373.105.136.425-.072-.172-.215-.133-.243-.31-.092.067-.047.146-.185.124.073.153.17.073.284.113.098.036.129.15.238.12q-.087.038-.173.072v.002q.036.164.064.33l-.216-.107-.054.117c.25.236-.083.732.416.621.025.133-.038.155-.131.23l.114.02c-.037.087.108.15.07.228-.036.078-.173.094.056.109-.067.049-.122.097-.185.143l.151.095q-.044.069-.09.136c.109.032.047.212.11.301-.126.065-.493.017-.451.196l.275.026-.075.113-.09-.008.037-.056-.159.028q.097.108.19.22a6 6 0 0 0 .213-.223c.05.118-.03.181.027.289-.14.057-.207.01-.336-.047l.017.094c-.132-.047-.221-.016-.178-.178l-.123.011c.001.028-.035.038-.026.07.025.087.247.202.332.216.044.006-.021-.094.04-.077.148.039.039.22.25-.028.076.113-.001.12-.052.216l.155.01-.104.129c-.24-.125-.42.179-.567-.174a6 6 0 0 1-.104.247l-.062-.075.072-.102q-.09.049-.18.094c.03.12.106.189.201.273.12-.1-.003-.093.004-.196.07.024.136.038.207.068-.16.009-.106.206-.113.247-.018.124-.128-.015-.158.06s.02.198-.143.205c.078.03.16.056.233.079a.2.2 0 0 1-.021.06c-.034.048-.087.01-.1.017-.274.112-.157.283-.248.51q.055-.023.107-.05c.074.244.083.111.207-.012-.082.13.01.277-.003.397s-.177.248-.264.274c-.002-.184.136-.298.193-.465-.085-.022-.157-.038-.248-.064.109.174-.026.17-.063.188-.108.051.024.126-.147.093l.138.075c-.126.167-.33.29-.238.521-.117-.068-.23-.137-.35-.206.034.128-.093.123-.117.193s.08.117.06.21c-.004.017-.078-.002-.063.06.016.061.206.421-.055.217-.05.055-.105.098-.158.147l.099-.192a7 7 0 0 1-.295-.03l.142.161c-.045.176-.21.178-.307.307-.016.022.128.081.015.137-.115.056-.352-.084-.44.12-.003.01.076.206-.068.141-.032-.015-.007-.094-.062-.103-.055-.01-.207.062-.275-.01.022.027.051.05.077.076l-.04.09-.114-.146c-.02.092-.019.189-.034.276-.018.112-.063.207-.203.242q.158.061.322.115l-.057-.19.04-.015a7 7 0 0 0 .285-.121l-.084-.206q.044-.014.087-.032l.077.137q.06-.07.117-.142c.097.318-.285.188-.119.383l-.137-.048c.063.108-.004.113-.097.152l.161.112a.3.3 0 0 0-.12.014c-.091.027-.181.081-.253.099-.045.01-.055-.09-.072-.091-.084-.012-.113.187-.143.19-.18.017-.404-.2-.467.051.18-.036.085-.011.191.056.034.022.275-.026 0 .084-.034.018-.597.05-.504-.165-.055.079-.091.158-.143.236-.325-.317-.124.023.007.202-.03.013-.056.026-.087.037-.018-.233-.34-.128-.42.013-.026.049.103.084.025.144l-.151-.01c.106.117-.008.208.033.347-.122-.1-.252-.35-.247-.506q-.075.114-.156.226l.12.077c-.242-.032-.498.224-.595-.07l-.088.02-.004.157a7 7 0 0 1-.423-.085c.118-.043.137-.119.268-.075a5 5 0 0 1-.162-.16c-.167.176-.19.286-.478.25a2 2 0 0 1-.237-.145c-.025-.046-.001-.107.004-.147v-.025l-.001-.004c-.043-.083-.269-.302-.26-.335.026-.135.13-.22.261-.28.25-.109.597-.145.723-.176.903-.21 1.752-.526 2.52-1.007.915-.57 1.708-1.402 2.13-2.427.008-.019-.049-.034-.047-.043.008-.055.112-.07.123-.088.023-.035-.053-.045-.052-.071l.001-.005c.121-.3.26-.583.317-.907.004-.021.064.015.06-.025-.001-.02-.09-.1-.083-.143.023-.15.075-.27.092-.43.009-.086.03-.216.033-.314.002-.044-.042-.09-.042-.133 0-.06.094-.045.1-.055.027-.04-.077-.048-.074-.087.005-.071.075-.076.068-.168-.005-.066-.066-.215-.088-.295.068-.198.006-.442-.052-.613-.035-.102.058-.13.05-.174a.3.3 0 0 0-.02-.06c-.054-.118-.168-.195-.204-.312-.056-.18-.031-.366-.093-.542-.01-.03-.09.01-.103-.017-.047-.097-.116-.217-.145-.309-.033-.102.065-.195-.007-.279-.021-.024-.126.02-.163-.017-.059-.061-.016-.189-.037-.245-.027-.075-.091.043-.133-.055-.002-.004.06-.061.045-.079-.046-.05-.096-.01-.145-.094-.004-.008-.012-.159-.02-.17-.042-.063-.112-.202-.154-.227-.147-.09-.163.089-.04-.19l-.27-.01c.073-.009.022-.195.009-.2-.103-.044-.137.072-.212-.03.235-.04.03-.109-.09-.154a.3.3 0 0 1-.061-.029c-.278-.218-.494-.464-.796-.658-.101-.065-.264-.103-.373-.164-.026-.014.021-.054-.001-.068-.023-.013-.028.058-.052.04-.149-.104-.231-.278-.446-.206 0-.023.008-.04.005-.067-.177.07-.357-.19-.449-.246-.14-.086-.204-.008-.31-.056-.137-.064-.325-.287-.288.025a1 1 0 0 1-.295-.073c-.01-.005.01-.078.005-.08-.028-.016-.048.05-.067.05-.055 0 .044-.067-.035-.056-.043.006-.073.06-.184.05a6.2 6.2 0 0 0-2.08.118c-.045.011.003.074-.055.085-.2.034-.592.04-.753.128-.104.055-.105.11-.117.164a.17.17 0 0 1-.043.09c-.015.017-.025-.045-.043-.038-.12.05-.301.038-.402.078-.067.027-.014.107-.053.138-.057.044-.17.001-.206.02-.163.087-.222.223-.382.293q.027.019.05.039a6 6 0 0 0-.468.377l.06.023c-.177.151-.303-.013.02.286l-.001.069a.426.426 0 0 0-.542-.085c-.012.008.095.221-.096.042.033.06.057.1.087.15a7 7 0 0 0-.257-.06l-.014.072c.039.035.082.066.117.103-.055.08-.225.202-.263.27-.058.1-.076.225-.123.319a.24.24 0 0 1-.16.137c-.022.07.1.058.038.144l-.15-.04c.159.185.029.134-.068.223-.065.06-.037.132-.079.198-.01.017-.07-.012-.074.001-.012.045.023.2.014.23-.082.276-.165.506-.254.767-.01.028.063.007.054.035-.016.047-.108-.004-.12.023-.03.075.074.098.058.207-.052.355-.172.763-.175 1.147 0 .012.063.01.063.024.003.059-.037.12-.058.178l-.78-.966a.3.3 0 0 0 .084.04c.161.043.307-.006.466.044.31.1.567.243.872.374.25.109.468.201.733.34.916.475 1.857 1.006 2.61 1.761q.293.292.534.624c.02.028-.031.053-.023.06.081.058.145.018.046.144.102.075.219.033.305.157.046.067-.135.13.021.18.14.048.144-.121.273.236.003.01-.06.112.005.157.066.047.083-.07.205.07.287.332.477.858.714 1.3.016.026.195.28.243.326.094.087.161.033.237.169.058.105.006.23.07.354.008.015.108.008.13.112m1.524-12.556c.055-.08.222-.39.342-.23.01.016-.154.207-.085.275-.09-.009-.172-.03-.258-.044m-3.44 13.85a8 8 0 0 0-.035-.316l.182.175zm-5.144-11.209q.053-.197.12-.395l.053.093q-.03.17-.051.337zm-.202 1.034c-.07.053-.12.007-.198.019-.02.003-.056.046-.067.065l.122.028c.015.203-.46.414-.395-.094l.133.084c.087-.228.31-.408.405-.102m10.553-2.934c.266-.023.348-.008.473.24l-.173.049-.008-.193-.113.11a7 7 0 0 0-.179-.206m-7.872 8.345c-.173.298-.06.133-.221.105-.055-.01-.054.067-.084.057-.163-.056-.039-.247.063-.32a8 8 0 0 1 .242.158m2.706 3.46c-.075.036-.122-.018-.164.084l-.068-.161.041.038.06-.077c-.095.02-.052-.02-.048-.09l-.259.173q0-.114-.005-.229l.068-.035-.123-.029.073-.06-.106-.054c.062-.042.123.006.049-.097l.257.001q.121.264.225.536m-3.858-4.12c.188.094.108.11-.019.232zm2.509-8.38q.038-.196.09-.386c.118-.104.31.062.232.169-.092.128-.248.061-.322.218m3.039-.394c-.161-.07.008-.191.056-.266.034.133.1.128.202.157-.1-.005-.232.12-.258.11zm-5.426 1.595c-.05.046-.08.114-.15.125-.06-.095.099-.1-.075-.165l.095-.093c.023.07.084.084.13.133m-2.014 6.505c-.076-.159-.115-.112-.252-.055.01-.108.196-.242.295-.253zm10.311 5.522c-.037-.133.154-.264.273-.293l-.003.074a7 7 0 0 1-.27.22M26.25 22.524l-.048-.016q.027.001.048.016m5.006 4.257c-.137.012-.108.165-.145-.02-.027-.122-.032-.15-.078-.253.162-.046.33.134.2-.167-.002-.004-.083.052-.097 0-.004-.015.04-.1.018-.18-.007-.025-.087-.201.052.02.093-.065.2-.112.295-.17.083.076-.07.259-.013.352.085.138.325.114.073.275-.125-.09-.237-.29-.098-.406-.066-.119-.21-.074-.22.053.3.349-.126.208.153.5.04-.015.086-.02.12-.038-.08.17-.21.029-.26.034m-.198-.962q.176.024.351.057c-.12.076-.251.106-.385.048zm.855 6.337c.069.036.125.089.187.135-.032.001-.105.113-.172.201-.08.104-.148.176-.119.018a.2.2 0 0 1 .035-.052c.06-.075.165-.213.069-.302m-12.599-1.277-.116-.213q.153.005.307.015-.097.098-.19.198m4.678-8.006c-.028.002.046-.12-.06-.083.069-.082.138-.152.21-.227l.096.138.045-.103-.005.222c-.157-.137-.163.044-.286.053m-3.361 1.975c-.127-.1-.047-.302-.206-.19-.044-.102-.037-.184.043-.267l.12.054c-.067-.083-.072-.132-.07-.233.132-.12.148-.084.29.027-.206.038-.109.167-.139.319-.02.104-.12.155-.038.29m11.457 6.727c.096.16.25.082.047.268l-.085-.072zm-12.29-6.66c.195.152.415.197.137-.094-.143.034.065.144-.137.094m6.053-1.92c-.217-.03-.16-.303-.053-.435l.031.155.127-.057zm-7.56 5.646c-.145-.202-.127.171-.216.033-.071-.113.127-.21.228-.142zm.186-.987c-.188-.03-.124-.052-.132.09-.004.041-.154.329.031.24q.045-.163.1-.33m9.93-4.204c-.037.073-.326.132-.334.08-.025-.146.212-.055.184-.254.157.238.384-.043.152.367-.134-.046-.031-.102-.002-.193m-2.584 13.317c.015.002.16.109.148.151-.166-.019-.141-.1-.282.04l-.033-.123c.058-.028.086-.08.166-.069m5.71-4.109c.004-.06.128-.122.148-.186.232.332-.17.435-.148.186m.653-4.42a.2.2 0 0 1-.054.026l-.005.001q.03-.012.059-.027m-3.326-4.567c.025.148-.348.138-.419.054.031-.043.054-.084.098-.129.011.158.315.048.32.075m-7.287.041c.227-.13.167.428-.03.13a.6.6 0 0 1 .03-.13m5.342-.79c-.097.116.024.182-.177.11l-.013-.111zm-3.59.657c.267-.161.54-.354.25-.675l-.066.053c.04.18-.072.103-.203.134.002.075-.064.112-.059.176.01.122.112.18.078.312m-.963 8.626-.076.058-.184-.024.14-.118zm8.198-6.417c.294-.182.18-.233-.085-.283q.046.142.085.283m-11.101.701-.265-.128c.034.147.143.181.281.201zm-.564 1.419c.032-.036-.05-.038-.048-.042.073-.095.112-.097.1-.246l-.044-.069c-.215-.007-.126.074-.283.17l.225-.007a6 6 0 0 0-.11.204l.056.043c.034-.018.072-.035.104-.053m3.824 4.78.134.182.119-.095-.253-.088m8.742-5.67.057-.007a.1.1 0 0 1-.057.006m-5.856 9.486c-.086-.03-.204-.002-.296-.009.01.128.243.086.331.157.012-.024 0-.135-.035-.148m-.057-13.541-.071.186-.15-.025-.007.156c.219-.062.165.087.26.24q-.014-.279-.032-.558M24.4 34.468c-.112-.134-.2-.152-.288.006l.179.105zm7.529-4.537c.055.138-.154.13-.045.267q.065-.102.125-.207zm-3.231-5.202c0 .088.285-.134.25.16.075-.039.137-.083.208-.122q-.053.114-.108.225c.12.063.118-.07.174-.135.024-.027.065.084.09.004.043-.139-.171-.21-.073-.338.027.087.169.145.203.033.037-.124-.197-.054-.21-.186-.053.284-.213.066-.124-.115-.216.037-.133.169-.004.255-.166.067-.005.083-.064.198-.12.002-.35-.232-.342.021m-6.518-.61c.087-.058.268-.05.278-.197.006-.086-.17-.067-.115-.223-.09.055-.091.108-.03.192l-.046.065-.057-.04.026.13-.077.012c.008.02.012.04.021.06m8.585 9.467.047-.077-.07-.033-.056-.028c.07.028.25-.026.215-.12-.017-.045-.17-.061-.126-.18-.04.08-.069.161-.107.24l-.091-.087q-.036.03-.072.056zm-11.098-7.073c-.02-.125-.037-.177-.174-.204q.044.093.092.185zm11.686 1.465c.538.065.106-.313-.028-.17-.006.006.076.136.028.17m-5.479-4.826-.178-.004.027.186q.074-.092.151-.182m-1.663 10.551c.08-.13.02-.308-.15-.293l.032.14-.186-.178c-.158.107-.011.121.027.272.006.024-.114.27.062.215.036-.01-.026-.153.121-.121-.018-.044-.042-.077-.063-.117l.108-.083zm-1.495-9.855c.135-.045.124-.12.104-.257l-.172.118zm.667 8.683c-.042-.08-.1.02-.138.008-.146-.047-.15-.166-.276-.226l.062-.025a1.4 1.4 0 0 0-.144-.176c-.132-.132-.146-.049-.078.078.04.072.104.16.19.233l-.071.102c.162.07.314.139.455.006m7.192-6.207c-.018.019-.182.063-.065.104.241-.06.073-.106.131-.183l.102.033c-.034-.176-.095-.164-.206-.019-.007.01.056.046.038.065m.393.981c.33-.117.1-.245.006-.191.007.027.07.023.059.06-.012.039-.083.079-.065.131m-4.19-3.675c.006.003.026.16.049.047-.003-.282-.195-.148-.19-.05.05.007.091-.024.14.003m-1.97 10.955c.008-.007-.019-.188-.078-.182-.063.013-.125.035-.188.053.097.055.142.245.266.13m-11.655 9.396c.005.16-.193-.059-.133.21l-.124-.025.091-.207zm.518-.784c-.137.169-.284.149-.256.393q.07-.087.138-.175.023.111.052.221l.086-.05q-.056.187-.107.375l-.034-.08c-.123.054-.206.042-.319 0l-.016.094a5 5 0 0 1-.08-.224l.212-.054c.034-.21-.13-.179-.21-.18-.109-.003-.04-.072-.118-.076-.012-.001-.055.06-.074.048-.096-.057-.243-.217-.04-.282.13.123.33.089.447.22.066-.196.177-.207.32-.23m-2.577-1.846c.111.008.125.123.102.222-.005.022-.1.119-.122.066-.036-.086.127-.216-.018-.197l.038-.09m-.093-.172c.024-.07.175-.108.164-.03-.004.032-.138.032.016.072l-.223.175-.037-.067c.15-.05.057-.079.08-.15m1.78 2.043c-.093.108-.065.128-.073.245l-.132-.12q.103-.06.205-.125m1.139.69q.04-.019.077-.04l-.027.154q.12-.029.237-.062c-.06.143-.164.077-.266.152-.076-.081-.082-.183-.035-.305zm3.093-9.626.085-.113c-.022-.025-.045-.045-.067-.073-.106.169-.08.006-.174.001-.29-.008-.234.291-.454-.154.207.037.144-.168.295-.305.011.12-.144.366-.067.43a1.5 1.5 0 0 1 .5-.24l-.001-.062-.087.022.119-.142c-.063.113.046.066.003.2-.019.06-.077.137-.113.191q.082.065.16.132l-.125.125zm.7 9.833c.036-.164.162-.235.296-.114q-.146.061-.296.114m-3.77-.41-.004.08q-.083.038-.17.074l.07-.205zm-2.067-1.516c.022.02.021.024.037.06.005.013.052.135.001.16-.04-.047-.082-.1-.121-.15zm.457.56c.01.022.013.049.028.067-.093.004-.056-.068-.072-.11q-.005-.02-.034-.029c-.084-.022-.181 0-.067-.191.04-.005.09-.017.133-.026.007.094.048.105.112.102.027 0 .059-.005.094-.006zm3.44-8.992c-.014.106-.042.004-.044.003-.171.11.02-.061-.152-.064q.034-.044.07-.087c.043.048.087.103.126.148m-4.522 3.137-.087-.032c.047-.09-.051-.166.085-.197l.002.23zm.518 4.753c.108.06.172.11.157.248-.002.01-.071.023-.08.038.02.013.046.022.068.033l-.119.099q-.038-.09-.074-.182l-.059.075-.13-.112.244-.091q-.005-.055-.007-.108m.636-5.945c-.037-.01-.058-.07-.097-.07-.039.001-.024.08-.088.009l.044-.11c-.209-.025-.17.17-.333.037.118-.058.162-.146.2-.271.117.119.15.297.312.352zm3.324 6.332c.04.017.137-.044.185.055.011.024.048.337.048.378-.004.138-.068.155-.003.247-.023 0-.045.005-.068.006l.002.278.09-.04.003.093c-.108-.002-.047.118-.109.227q.078.086.164.17c-.033-.007-.071-.012-.1-.02-.007.157.064.12.076.15.068.166-.282.075-.329.297q.086.044.179.086l-.057.082c-.133-.164-.28-.233-.42-.352l-.044.014-.018.212-.07.015c.1-.221.009-.231-.065-.39.068-.071.124-.012.143-.164-.198.088-.366-.12-.568-.04-.05.019-.108.209-.206.158.01-.02.023-.056.034-.083-.202.033-.335.043-.473-.122l-.055.21.158-.05c-.017.119-.077.152.044.197.1.035.058-.035.097-.058.051-.032.052.067.108.03.043-.028.041-.13.11-.083q-.104.167-.216.331l-.031-.101.091-.074a5 5 0 0 1-.269.093c.089-.16-.009-.125-.057-.122-.075.005.026-.088-.022-.086s-.148.112-.209.05c.073-.055.05-.145.092-.208.042-.062.12-.045.085-.15-.159-.007-.134.319-.248.316-.14-.008.049-.432.125-.505.059-.057.134-.002.191-.062-.082-.195-.207.05-.259.085-.186.125.127-.305-.069-.197l.145-.242c-.026.006-.05.02-.077.02-.035.203-.081.167-.108.151-.042-.024-.025.095-.048.11-.064.037-.097-.018-.111.073l.02-.126c-.072.014-.42.279-.258.285-.093.122-.093.035-.11-.005-.016-.039-.07.042-.086.01-.063-.131.101-.22.19-.318-.18-.016-.088.124-.31.034-.084.07-.063.229-.175.221.098-.158.126-.303.068-.43l-.11.074c.056-.177.202-.284-.033-.21.31-.245.107-.091.136-.281.007-.038.098-.063.104-.113.004-.023-.062-.001-.053-.058.003-.013.017-.06.02-.1.005-.042-.002-.077-.046-.07-.108.158-.296.196-.346.369-.09-.148-.23-.172.083-.211q.021-.104.045-.204-.078.014-.156.025c.115-.105.15-.129.062-.194q.086.019.173.035c.025-.02.053-.036.075-.057-.08-.002-.2-.107-.255-.113-.056-.006-.02.06-.058.076-.32.126-.123-.017-.209-.039-.051-.014-.023.088-.047.078-.092-.036.03-.169-.008-.228q-.103.115-.204.234a.6.6 0 0 0-.156-.189c-.026-.018-.077.04-.084.038a.4.4 0 0 1-.126-.08c-.04-.069.048-.12.017-.19l.064.064q.226-.105.452-.215a4 4 0 0 1-.063-.19 4 4 0 0 0-.077.207 5 5 0 0 1-.471-.027q.081-.114.168-.224c-.067-.093-.365.059-.117-.108l-.108-.067.122-.033-.116-.086c-.124.092-.254.19-.37.288-.063-.072.055-.119.08-.142.065-.06-.063-.086 0-.137.022-.017.128.033.208-.026.015-.014.312-.227.217-.261-.06.02-.133.049-.199.073-.065-.077.242-.214.335-.229-.075-.025-.098-.087-.199-.07l-.024-.068c.246-.036.18-.116-.03-.076l.014.123c-.26.034-.386.197-.211-.124.122-.079.001.093.092.03.042-.082-.02-.138.06-.221.104-.103.231-.02.054-.184-.302.483-.27-.017-.4-.221.325-.081.444-.217.393-.404l-.029-.075c-.06.012-.068.044-.07.075-.001.023 0 .045-.014.063-.034.043-.096-.003-.143.052-.048.055-.108.175-.177.238-.063-.043-.21-.281-.038-.128.073-.092.15-.145.193-.224a.3.3 0 0 0 .03-.092c-.16-.046-.262-.046-.26-.19.22.094.385-.053.615-.003-.06.087-.282.024-.393.074-.01.006.043.098.038.119.205-.087.282-.107.521-.05-.019-.057.014-.091-.101-.103l.152-.027c0-.018-.004-.035-.001-.054-.175.013-.065-.031-.14-.076-.074-.047-.217-.007-.206-.117-.045.032-.083.062-.125.095a4 4 0 0 1-.107-.238c-.113.037-.284.138-.422.121.056-.031-.02-.17-.02-.186-.007-.056.076-.014.078-.018.055-.078.038-.152.175-.159-.047-.072-.004-.113.007-.178.006-.036-.091-.051-.068-.069.156-.112.24.058.083-.274l-.228.043-.047-.116.055-.053.424.131.043-.056.008.121.072.032q.082-.061.165-.119l-.146-.052c.108-.095.149-.079.06-.24.034-.085-.135-.238-.194-.327l.104-.02-.1-.089q.098.002.194.008c-.115-.072-.15-.099-.237-.027-.138-.103.012-.238.097-.275.064-.028.158.093.177.095.061.007.06-.094.078-.105.074-.048.096-.098.16-.14.012-.01.107.007.111.006.026-.013.096-.039.1-.044.258-.251-.28-.163-.043-.416l-.14-.069.043-.07c.055 0 .09.08.083-.011l.138.128-.024-.13c.197.102.339.015.52.195.062.062.061.198.167.218.042-.02-.055-.067-.047-.084.06-.123.162-.017.17-.081l-.118-.15.064-.005h.019l-.078-.1-.024.017-.025.02a.2.2 0 0 1-.034-.079c-.024-.122.067-.245.089-.11.011.065-.052.094.11.203.025-.062.057-.13.087-.194l.087.09c.046-.077-.12-.15-.18-.216l.043-.047.098.075c-.04-.048-.127-.17-.044-.167.054.003.107.166.15.102-.065-.074-.164-.15-.116-.23.07.077.138.145.21.227.02-.141.151-.039.183-.201.018-.102-.025-.383.227-.067.052-.02-.014-.096-.011-.124.014-.132.16.005.177.008.113.02.12-.057.225-.009l-.104-.19c-.013.13-.045.14-.141.166l.064-.086-.098-.152c-.153.356-.286-.002-.082-.205q.11.132.214.266c.059-.218.19-.117.355-.147.02-.003.064-.09.093-.104h-.002c-.018-.106-.06-.142-.097-.229l.038-.051c.063.053.069.113.137.072l-.1-.192c.084-.032.162.025.23-.03l-.015.089c.187.017.169.459.234.224l.05.1-.137.067.042.15q.068-.045.138-.088l-.082.13q.096.012.19.027c-.108-.17-.034-.212-.093-.392.148.126.264.312.404.155.028-.031-.008-.16.108-.014-.052-.205.058-.318.02-.514q-.054.018-.104.04c.049.064.078.252.03.316-.06.08-.186-.031-.144.176l-.084-.008.003-.162c-.063.096-.114.08-.182-.04q.13-.076.27-.145l-.048-.02c.052-.145-.048-.259.094-.31l.024.184c.028-.171.177-.188.108-.371.053.053.065.089.081-.016.137.132.22.31.194.53l.117-.112-.082-.174q.112 0 .226.003c.009.175-.142.056-.094.213.01.031.046-.038.057-.02.11.19-.06.055-.024.202.108.03.08.162.126.165.019.002.05-.02.113-.08q.008.076.012.154c.07.005.068-.11.131-.129.04-.01.072.194.125.06.01-.024-.043-.277.113-.251.12.022.049.19.103.259.051.068.237-.146.228.132-.025-.042-.062-.068-.093-.104q-.036.075-.068.15c.09-.055.157.04.237-.073.065.212.22.067.245-.154-.044.022-.028.124-.063.053l.02-.153c.087.027.148.043.068.183l.036.022.098-.325.061-.023.035.089c-.077.164-.117.157-.013.294l.058-.176c.09.113.043.254.18.3-.177.162-.107-.215-.247.191l-.05-.106-.068.175c.134.006.517-.284.498.008l.073-.075c.016.188.216-.124.208.111-.002.024-.179.322-.072.366l.08-.158q.015.056.026.112l.076-.1-.095-.11q.06.008.121.019c-.01-.085-.03-.097.05-.176q.065.024.128.051l.056-.064q.035-.123.069-.25c.074.123.165.187.15.375-.003.032-.11.09.034.07l-.086.132c.197-.056.207.012.237.185.001-.138.016-.035.07-.066.038-.021-.012-.055.02-.083.03-.029.2-.106.159-.166-.347.163-.132-.192-.41-.183q.078-.027.16-.051l.01-.102c.066.128.04.057.114.044a.46.46 0 0 1 .239.04c.019.01-.046.057-.015.09.021.024.161-.008.089.107-.05.074-.302.176-.168.29-.032.087-.077.012-.085.019-.078.068-.05.193.037.168.008-.002.032-.088.085-.082.116.012.108.107.071.226l-.009.028c.107-.098.294-.157.328-.04l.104-.072-.083.007c.006-.032.007-.06.016-.094.103.057.262-.064.355-.07.32-.013-.164.238-.252.274l.04-.13q-.052.054-.108.107c.177.203-.22.246-.21.404.212-.134.296-.069.24.122l.027.031c.03-.02.075-.052.097-.063.122.099-.185.334-.208.364-.104.135.107.052.118.066.045.058-.03.126.04.164.076.041.118-.04.189-.053.056-.01.094.04.155.036l-.135.037c-.018.099-.045.182-.022.267.348-.047-.138.258.27.045-.005-.092.022-.157.107-.25q.059.07.114.144c-.04.036-.08.066-.12.105.116-.001.111.112.154.138.201.127.359.024.118.28-.066-.11-.206-.063-.226-.182-.092.06-.052.108-.185.113.065.095.162.026.272.038.095.011.122.088.23.052l-.172.073q.031.11.058.22l-.211-.047-.055.085c.241.133-.082.496.413.379.028.089-.035.108-.125.165l.114.005c-.035.062.113.096.079.15-.034.056-.17.074.06.071-.065.038-.118.073-.179.107l.157.057-.082.096c.11.018.06.143.13.202-.12.047-.49.022-.433.14l.276.014-.066.078-.09-.005.032-.038-.155.02q.107.071.21.148.097-.074.19-.153c.06.08-.012.124.054.199-.134.039-.204.006-.338-.033q.014.03.027.063c-.135-.033-.22-.013-.195-.12l-.12.006c.004.018-.03.025-.018.046.034.058.266.139.35.15.045.005-.03-.064.031-.053.151.028.062.154.244-.017.088.08.012.084-.028.15l.154.01-.088.088c-.25-.09-.391.112-.577-.132a3 3 0 0 1-.071.165l-.071-.053.057-.067q-.08.03-.163.057c.044.082.128.132.232.194.104-.064-.015-.065-.023-.134.072.018.138.03.212.053-.156.001-.076.138-.077.167 0 .086-.127-.016-.145.035-.017.05.048.139-.107.134a7 7 0 0 0 .235.07c-.001.091-.09.042-.104.047-.244.061-.104.19-.15.348q.047-.013.092-.028c.112.185.097.088.194.007-.056.09.056.205.064.294.008.09-.122.173-.197.185-.035-.14.072-.213.097-.333-.083-.023-.153-.04-.244-.067.133.137.007.123-.024.133-.091.028.045.096-.119.055l.141.069c-.086.114-.245.187-.118.375-.119-.065-.232-.13-.354-.197.056.102-.058.084-.064.135-.007.052.093.1.095.17 0 .014-.068-.009-.043.042.027.049.265.361-.003.167-.032.038-.07.067-.106.1l.045-.144a6 6 0 0 1-.259-.06l.156.148c-.003.138-.142.12-.195.215-.01.016.123.083.04.116a.15.15 0 0 1-.076 0c-.102-.017-.237-.078-.259.048 0 .008.103.186-.026.113-.028-.017-.025-.082-.07-.097-.047-.015-.152.029-.22-.044q.036.039.076.076l-.012.074-.12-.141c.01.175.102.401-.078.43q.134.073.271.14l-.08-.176q.114-.039.228-.083l-.109-.19q.032-.007.063-.017l.09.128.065-.108c.142.285-.19.13-.019.319l-.119-.058c.072.102.019.099-.046.124l.149.116c-.107-.026-.196.05-.272.062-.033.005-.06-.086-.073-.09-.068-.02-.053.158-.076.158-.134-.002-.34-.225-.342.001.127-.017.06-.002.152.07.03.023.204.002.015.078-.025.013-.435-.006-.402-.2-.026.069-.04.14-.064.21-.284-.327-.087.012.036.192l-.058.03c-.05-.225-.263-.149-.299-.016-.012.045.084.086.037.14q-.053-.007-.109-.019c.09.12.022.202.068.34a1.1 1.1 0 0 1-.238-.504 5 5 0 0 1-.082.213l.093.08c-.173-.042-.325.205-.42-.087l-.059.018.011.155q-.151-.039-.296-.088c.077-.042.084-.118.177-.073a4 4 0 0 1-.124-.16c-.098.175-.107.283-.304.252a1 1 0 0 1-.166-.139c-.025-.059.005-.147-.006-.176-.032-.083-.188-.292-.183-.325.043-.386.479-.42.595-.468.7-.245 1.348-.532 1.901-1.01.377-.328.693-.75.855-1.235.003-.012-.053-.027-.053-.033-.002-.037.094-.037.101-.048.017-.023-.067-.036-.061-.055.064-.187.158-.36.176-.563 0-.013.065.01.057-.014-.005-.014-.1-.065-.099-.091.007-.092.047-.166.05-.265.003-.053.014-.133.012-.194 0-.026-.047-.053-.05-.08-.003-.036.092-.031.098-.037.025-.027-.08-.026-.078-.05.003-.044.072-.05.062-.107-.007-.04-.07-.127-.094-.175.066-.127.006-.273-.046-.373-.03-.06.061-.09.054-.117-.027-.093-.167-.124-.2-.204-.042-.106-.004-.232-.047-.34-.007-.017-.086.024-.096.01-.035-.057-.087-.124-.104-.18-.019-.064.081-.15.024-.194-.016-.012-.116.043-.145.024-.045-.03.008-.13-.003-.166-.015-.048-.086.052-.11-.01-.002-.002.06-.058.049-.067-.034-.027-.083.015-.114-.035-.002-.005.01-.115.006-.122-.028-.037-.07-.127-.1-.136-.111-.034-.148.11-.01-.137l-.181.048-.038.01c.06-.025.045-.16.035-.162-.076-.01-.12.093-.165.03.238-.113-.056-.092-.093-.113-.185-.111-.312-.27-.505-.375-.065-.035-.175-.034-.243-.066-.016-.008.02-.054.006-.062-.014-.007-.024.059-.04.048-.09-.065-.132-.212-.28-.102.003-.023.009-.04.009-.065-.121.102-.22-.117-.277-.157-.087-.06-.13.024-.195-.007-.085-.042-.202-.24-.18.063a.35.35 0 0 1-.182-.036c-.007-.004.005-.079.002-.08-.017-.013-.028.054-.04.056-.034.006.026-.07-.023-.051-.026.01-.043.068-.11.066l-.13-.001c-.371 0-.768.047-1.128.162-.028.009.014.072-.021.08-.12.023-.378.002-.47.07-.09.066-.017.149-.052.22-.007.014-.028-.044-.039-.04-.07.035-.2.005-.264.03-.041.017.016.094-.004.117-.03.032-.124-.019-.145-.006-.099.057-.108.166-.212.205l.048.04a3 3 0 0 0-.267.248l.055.027c-.102.097-.249-.049.093.229l.018.052c-.17-.15-.353-.192-.469-.135-.01.005.137.18-.07.021.042.05.073.082.112.125a6 6 0 0 0-.235-.076l.006.053c.042.03.087.058.126.09-.026.053-.144.123-.162.169-.046.112.027.276-.146.295-.005.047.105.048.067.102l-.148-.04c.188.139.057.093-.015.146-.048.036-.007.087-.033.128-.006.01-.069-.012-.07-.004-.002.03.062.133.059.152a3 3 0 0 1-.117.48c-.005.018.064.005.059.023-.009.028-.107-.003-.114.014-.02.047.086.06.085.127-.002.11-.024.228-.043.349s-.034.243-.026.36c.001.007.063 0 .065.008.008.05-.069.112-.061.16.013.077.11.119.125.192.03.144.023.285.071.432.04.12.088.219.146.344.172.365.48.65.774.905.151.13.3.257.443.4.011.011-.025.053-.02.054.05.005.094-.055.02.084.066.006.144-.083.196-.042.028.022-.088.165.013.116.09-.046.084-.162.178.004.002.004-.03.113.015.102.043-.01.043-.098.126-.085.191.03.381.202.605.228a.6.6 0 0 0 .186-.049c.058-.042.063-.125.127-.135.048-.007.073.09.133.08.006-.002.028-.096.068-.08m1.636-7.858c.042-.086.172-.41.255-.274.007.012-.119.223-.07.277-.066.006-.124-.003-.185-.003m-1.347 10.083a5 5 0 0 1-.263-.06 4 4 0 0 0 .184-.119q.038.09.079.18m-4.461-7.817q.008-.15.024-.304l.069.077q.009.133.025.262zm.02.77c-.056.036-.113 0-.184.006-.018.002-.045.033-.052.046l.122.025c.053.146-.367.291-.394-.082l.142.066c.043-.166.218-.29.366-.06m7.067-2.653c.21-.073.277-.074.357.122l-.143.078.01-.17-.1.12zm-6.355 7.57c-.235.25-.091.115-.223.076-.046-.014-.068.054-.091.04-.129-.073.048-.22.16-.27zm2.817 1.579c-.013.082-.069.094-.026.182l-.133-.029.044-.013-.015-.092c-.036.09-.04.033-.077-.01l-.031.308-.144-.13.018-.075-.087.08.008-.094-.093.046c.014-.073.076-.088-.023-.099q.077-.096.15-.193.2.068.409.119m-3.473-2.351c.09.134.023.122-.143.171q.07-.087.143-.171m2.474-6.872a5 5 0 0 1 .001-.369c.07-.097.235.067.196.17-.045.121-.17.052-.197.2m2.062-.45c-.114-.055-.004-.19.027-.27.03.13.075.12.147.14-.07.004-.156.14-.174.13m-3.658 1.379-.005.006c-.027.036-.038.085-.091.088-.072-.085.06-.077-.1-.146l.059-.072c.022.04.054.061.086.084zm-1.53 4.495c.11-.116.053-.12-.05-.202.102-.028.294.054.345.112zm7.759 3.367c-.052-.126.072-.227.16-.242l.011.067q-.082.09-.171.175m-2.363-9.36-.034-.012q.018 0 .034.012m3.52 2.794c-.127.035-.113.142-.131.014-.014-.086-.016-.105-.048-.174.151-.068.288.037.197-.167-.002-.002-.08.056-.088.02-.002-.01.045-.084.033-.141-.004-.019-.06-.14.044.005.091-.07.192-.128.283-.191.07.043-.086.214-.041.274.067.09.291.027.046.195-.11-.045-.195-.174-.058-.29-.05-.08-.185-.016-.205.083.244.208-.135.184.098.348.037-.018.082-.03.114-.05-.087.14-.198.06-.243.074m-.09-.697q.152-.017.308-.026c-.114.084-.235.133-.35.116zm.858 4.285c.072.03.134.07.2.106-.065.001-.255.355-.248.144 0-.029.187-.16.048-.25m-9.412.21q.052-.09.107-.18.078.088.16.171zm3.602-6.137c-.02.002.017-.117-.053-.081.037-.08.077-.15.119-.225l.083.136.019-.103.023.22c-.125-.134-.107.045-.19.053m-2.103 1.59c-.13-.095-.109-.257-.216-.178-.06-.089-.074-.157-.025-.22q.056.026.112.056a.35.35 0 0 1-.108-.19q0-.008-.004-.015c.083-.092.104-.06.245.047-.105.01-.094.066-.07.138.011.038.026.08.03.122.008.086-.064.12.036.24m8.01 3.933c.113.114.253.064.078.19l-.092-.053zm-8.704-3.95c.204.138.403.194.098-.066-.117.016.089.122-.098.065m4.065-1.524a.1.1 0 0 1-.082-.056c-.04-.074-.032-.206 0-.309l.025-.064.029.152q.04-.034.084-.067-.03.172-.056.344m-4.792 4.192c-.167-.133-.107.123-.21.032-.084-.076.101-.15.209-.107zm.049-.684c-.188-.021-.13-.037-.116.064.003.028-.103.23.066.167q.02-.114.05-.231m6.512-3.413c-.032.075-.246.183-.248.135-.01-.135.157-.09.147-.274.102.199.288-.108.09.32-.095-.018-.016-.09.01-.181m-1.234 9.109c.01.002.118.108.113.15-.116-.018-.104-.1-.192.041l-.03-.122c.038-.029.053-.081.109-.07m3.718-2.986c-.006-.044.102-.08.112-.125.272.255-.093.305-.112.124m.329-3.032a.4.4 0 0 1-.054.025l-.004.001zm-2.49-2.97c.008.132-.27.196-.316.13.026-.046.046-.088.081-.138-.003.146.232-.015.235.008m-4.967.423c.147-.1.222.399.004.114a.6.6 0 0 1-.004-.114m3.597-.824c-.067.127.016.177-.122.132l-.01-.109zm-2.342.81c.155-.143.315-.33.065-.646l-.038.05c.056.176-.034.1-.122.126.013.072-.027.106-.013.167.028.118.108.177.108.303m-1.568 7.166-.072.06-.142.003h-.007l.044-.036.095-.08zm6.437-6.116c.276-.209.18-.226-.043-.209q.024.105.043.209m-7.272 1.039q-.135-.057-.272-.111c.062.11.171.142.303.165zm-.273.97c.025-.024-.055-.025-.053-.028.056-.064.093-.065.057-.167l-.054-.048c-.21-.008-.11.049-.247.114l.217-.003-.074.139.06.03q.048-.02.094-.036m1.347 4.434q.052.057.106.112l.095-.118a4 4 0 0 1-.201.006m6.896-5.693.053-.015a.1.1 0 0 1-.053.015m-3.577 6.519c-.059-.03-.136 0-.197-.004.012.127.167.08.23.15.007-.024-.008-.134-.033-.146m-.575-8.954-.036.191-.1-.016.006.156c.139-.075.114.077.183.223a28 28 0 0 0-.053-.554M14.69 43c-.109 0-.168.047-.163.214q.072-.03.144-.064.008-.075.02-.15m5.779-4.214c.06.087-.137.094-.04.174l.01.006.005-.007.108-.137zm-2.467-3.149c-.01.078.228-.181.17.085.06-.051.112-.104.17-.154q-.052.112-.108.221c.085.026.1-.088.15-.158.022-.028.04.059.07-.016.048-.13-.11-.145-.021-.28.012.07.116.09.155-.015.04-.117-.149-.005-.145-.12-.07.264-.17.105-.085-.076-.168.079-.117.18-.027.229-.134.096-.013.075-.07.189-.093.03-.238-.13-.26.095m-4.203-.156c.052-.046.185-.024.16-.158-.012-.08-.137-.075-.13-.215-.055.045-.044.093.02.176q-.012.027-.021.055l-.05-.04q.022.06.047.12l-.055.005zm6.036 5.781.027-.053-.07-.033-.056-.027c.068.029.222.006.172-.067-.024-.036-.167-.065-.15-.147-.021.055-.031.112-.05.167l-.1-.075-.053.033zM12.3 37.17c-.046-.092-.072-.132-.204-.161q.06.072.124.142zm7.606.378c.517-.037.118-.234-.017-.112-.006.005.065.081.017.112m-3.76-2.969-.105.01h-.013l.013.084.014.1zm-1.782 8.05c.02-.14-.039-.224-.148-.114l.043.08q-.075-.006-.15-.019c-.093.167.01.097.063.182.007.013-.013.265.09.116.02-.031-.053-.092.05-.162-.022-.019-.044-.027-.065-.042l.054-.125zm-.235-7.357c.087-.033.064-.105.023-.235l-.1.1zm-.432 6.918c-.026-.047-.074.054-.102.059-.109.016-.102-.078-.191-.088l.05-.038c-.207-.3-.236.009-.038.118l-.064.104c.123.008.236.004.345-.155m5.631-5.677c-.018.018-.167.088-.07.093.222-.098.078-.097.137-.168q.044 0 .087.004c-.012-.129-.067-.106-.18.03-.008.009.044.022.026.04m.26.636c.317-.145.114-.195.021-.137.005.018.064.003.05.032s-.084.072-.072.105m-2.839-2.194c.004.002.015.153.032.04.002-.276-.128-.12-.124-.024.032 0 .06-.036.092-.016m-1.808 7.8c0-.01-.07-.092-.099-.044-.028.056-.053.117-.08.175.07-.04.16.034.179-.13"/></svg>