<svg xmlns="http://www.w3.org/2000/svg" width="126" height="19" fill="none" viewBox="0 0 126 19"><g clip-path="url(#a)"><path fill="#0ba6e2" d="M20.466 0H10.368a.6.6 0 0 0-.412.163L.163 9.686c-.353.344-.095.924.413.924h9.454v7.845c0 .48.612.725.975.39l10.051-9.272a.53.53 0 0 0 .172-.39V.724c0-.402-.344-.725-.765-.725z"/><path fill="url(#b)" d="M10.03 10.61v7.845c0 .48.612.725.975.39l10.051-9.272a.53.53 0 0 0 .172-.39V.724c0-.402-.344-.725-.766-.725H10.365c-.154 0-.412.061-.412.309"/><path fill="#fff" d="M28.366 12.75V.72h5.364q.185-.001.498.011.315.013.56.055 1.139.166 1.867.711.73.543 1.07 1.367a4.7 4.7 0 0 1 .345 1.835q0 1.012-.348 1.835A3.3 3.3 0 0 1 36.646 7.9q-.728.542-1.858.711a7 7 0 0 1-.566.05 10 10 0 0 1-.495.017h-2.965v4.079h-2.399zm2.4-6.198h2.857q.184 0 .406-.018.22-.018.406-.067.484-.125.75-.422.263-.296.366-.662.102-.362.102-.69c0-.219-.034-.446-.102-.69a1.7 1.7 0 0 0-.366-.662q-.264-.296-.75-.422a2.3 2.3 0 0 0-.406-.067 5 5 0 0 0-.406-.018h-2.858v3.718M42.41 3.726h-2.398v9.022h2.399zm0-2.17h-.005C42.377.953 41.854.469 41.21.469s-1.165.48-1.193 1.087h-.006v.052h.006c.028.603.55 1.087 1.193 1.087s1.166-.481 1.194-1.087h.006zm11.153 4.229a4.25 4.25 0 0 0-1.575-1.69q-1.015-.62-2.38-.62c-.91 0-1.667.21-2.286.63a2 2 0 0 0-.169.122v-.501h-2.116v13.033h2.415V12.43q.928.568 2.275.568c.899 0 1.643-.207 2.301-.626a4.3 4.3 0 0 0 1.54-1.704c.367-.717.551-1.53.551-2.43s-.184-1.739-.56-2.453zm-2.218 3.837q-.24.62-.732.99c-.329.245-.756.37-1.27.37s-.963-.113-1.283-.343c-.323-.23-.55-.548-.692-.962q-.212-.617-.212-1.436t.212-1.436q.212-.62.677-.961.465-.344 1.212-.344c.538 0 .975.125 1.32.373q.518.372.762.993.25.624.25 1.375c0 .501-.08.967-.24 1.384zm13.459-.749q.151-1.637-.354-2.846c-.332-.81-.852-1.436-1.55-1.879q-1.049-.669-2.55-.67-1.41.002-2.494.606a4.35 4.35 0 0 0-1.7 1.702q-.62 1.093-.619 2.572 0 1.353.63 2.4a4.43 4.43 0 0 0 1.748 1.65q1.117.593 2.58.593 1.375 0 2.534-.684a4.05 4.05 0 0 0 1.698-1.923l-2.399-.65q-.268.554-.766.845c-.335.195-.741.294-1.209.294q-1.12 0-1.697-.69-.422-.503-.538-1.317h6.69zm-6.622-1.686q.14-.63.468-1.032.58-.707 1.805-.707 1.047-.002 1.513.606.302.398.41 1.13h-4.199zm16.19 1.107q.833-.35 1.326-1.014.794-1.074.794-2.584 0-1.01-.345-1.832a3.2 3.2 0 0 0-1.07-1.367c-.483-.364-1.107-.597-1.864-.71a4 4 0 0 0-.56-.056Q72.34.718 72.155.72h-5.364v12.032h2.399v-4.08h2.676l2.088 4.079h2.716l-2.294-4.457zM69.187 2.84h2.857q.184 0 .403.018.222.015.406.067.484.126.75.422c.179.198.3.42.367.658q.103.363.105.69c0 .22-.034.447-.105.691q-.1.36-.366.659c-.179.198-.425.338-.75.422a2 2 0 0 1-.407.067 5 5 0 0 1-.403.018h-2.857zm13.707 10.161q-1.44-.001-2.522-.608a4.35 4.35 0 0 1-1.689-1.684q-.604-1.074-.603-2.468c0-.929.206-1.77.619-2.485a4.4 4.4 0 0 1 1.704-1.675q1.084-.603 2.497-.603c.941 0 1.802.204 2.528.61a4.37 4.37 0 0 1 1.698 1.683q.609 1.075.608 2.467c0 .93-.202 1.763-.611 2.477a4.33 4.33 0 0 1-1.704 1.678q-1.088.605-2.519.605zm0-2.12q1.153-.001 1.725-.74.57-.74.57-1.9c0-.772-.195-1.442-.579-1.922q-.578-.718-1.716-.72-.785-.001-1.29.335a1.97 1.97 0 0 0-.743.926q-.244.596-.243 1.378 0 1.212.578 1.926.577.713 1.698.714zm10.975 2.12q-1.48-.001-2.54-.626a4.2 4.2 0 0 1-1.624-1.704q-.565-1.08-.566-2.433c0-.903.197-1.73.587-2.447q.585-1.08 1.655-1.695 1.067-.616 2.522-.618 1.686 0 2.826.807c.76.54 1.25 1.27 1.462 2.203l-2.4.6q-.212-.703-.738-1.096a1.93 1.93 0 0 0-1.187-.393q-.76.001-1.243.347-.485.345-.713.944-.23.598-.23 1.348 0 1.18.55 1.909t1.636.73q.811.001 1.237-.352.424-.35.633-1.002l2.451.484q-.405 1.436-1.535 2.214-1.13.777-2.786.777zm6.069-.251L99.956.72h2.433v7.352l3.229-4.343h2.965l-3.438 4.512 3.669 4.513h-3.122l-3.3-4.344v4.344h-2.451zm18.321-3.877q.148-1.637-.353-2.846-.504-1.215-1.551-1.879-1.049-.669-2.55-.67-1.41.002-2.497.606a4.4 4.4 0 0 0-1.701 1.702q-.614 1.093-.615 2.572 0 1.353.631 2.4.626 1.051 1.747 1.65 1.115.593 2.577.593c.916 0 1.765-.227 2.537-.684a4.07 4.07 0 0 0 1.698-1.923l-2.402-.65q-.265.554-.766.845c-.332.195-.738.294-1.206.294q-1.125 0-1.697-.69-.424-.503-.539-1.317h6.69zm-6.625-1.686q.141-.63.471-1.032.575-.707 1.802-.707 1.052-.002 1.513.606.304.398.409 1.13h-4.198zm11.571-1.704v3.309q0 .527.015.95c.006.28.068.506.179.67q.315.477 1.014.518.696.044 1.544-.067v1.888a10 10 0 0 1-1.934.154q-.95-.021-1.695-.317a2.2 2.2 0 0 1-1.135-.956 2.7 2.7 0 0 1-.369-1.258 49 49 0 0 1-.018-1.451V5.48h-1.624V3.726h1.624V1.22h2.399v2.505h2.752V5.48h-2.752z"/></g><defs><linearGradient id="b" x1="9.953" x2="21.231" y1="9.5" y2="9.5" gradientUnits="userSpaceOnUse"><stop stop-color="#ff0025"/><stop offset="1" stop-color="#ff0025"/></linearGradient><clipPath id="a"><path fill="#fff" d="M0 0h126v19H0z"/></clipPath></defs></svg>