<svg xmlns="http://www.w3.org/2000/svg" width="207" height="144" fill="none" viewBox="0 0 207 144"><path fill="#b8b8b8" d="M206.719 59.93c.001 4.221-.008 8.178-.019 13.175v.008l-.004 2.21c-.013 6.123-.029 14.078-.037 26.073-.01 13.254-.045 23.777-.078 30.203-.007 1.198-.01 2.439-.013 5.567l-.005 6.192v.343h-.344l-2.638-.002-7.509-.005c-9.603-.007-24.654-.004-38.523-.002-8.417.001-16.401.002-22.465.001-8.868-.001-17.425-.008-26.728-.015-8.519-.006-17.664-.013-28.245-.016-8.119-.003-16.007-.029-24.023-.057l-3.07-.011c-7.073-.025-14.304-.051-22.124-.066-11.374-.022-20.873-.018-30.675-.01H.06v-.16l-.007-6.701c-.004-4.817-.01-9.817-.012-15.239-.005-8.575-.004-20.902-.003-33.28v-3.18c.002-11.33.003-22.45 0-30.61C.034 41.384.024 36.506.016 32.438l-.009-4.634C-.002 21.725 0 12.55.001 3.247V3.14C.001 1.596.03.35.064.358.1.365.127 1.623.126 3.167v14.04c.029.223.052 1.382.051 2.772 0 3.478.022 14.131.059 30.804l.015-2.937.016-2.386c.009-1.35.015-2.25.019-3.845.005-3.695.006-9.502.007-15.613 0-1.543.028-2.79.063-2.783.034.008.062 1.266.062 2.81v.09a15732 15732 0 0 1-.012 18.37L.4 46.225v.005a56 56 0 0 1-.015 1.06v.127l-.013 1.856C.357 51.834.338 55.891.317 64.34.298 72.109.29 85.243.29 101.632A20141 20141 0 0 0 .33 81.47l.005-3.536v-.008l.012-6.646c.004-2.258.008-4.477.015-7.032l.009-1.677.004-.623v-.08l.004-.64.004-.593v-.005a539 539 0 0 0 .009-3.06l.001-.897.002-.916v-.932c.001-.72.008-1.41.02-1.917s.027-.789.044-.786.031.293.043.804.018 1.205.019 1.926v.945l.001.961-.002 4.1-.005 1.638-.003.754v.077l-.003.612-.003 1.124C.504 67.18.504 69.8.504 72.297v.935l.002 4.912v20.641a16795 16795 0 0 1-.014 17.294 3970 3970 0 0 1-.028 9.44v.01l-.01 2.703a7015 7015 0 0 0-.034 15.126l-.2-.201 1.827.002 5.698.002 7.727-.003 7.836-.005 2.756-.001h.01l5.116-.004 7.932-.004q3.979-.003 8.004-.003c2.683 0 5.438 0 8.206.002l7.392.006 1.927.002 8.92.006a8585 8585 0 0 0 17.67-.016c3.006-.004 5.974-.01 9.002-.016l9.08-.02 5.213-.011 5.129-.008 2.047-.003 2.934-.004 4.761-.009a3002 3002 0 0 0 8.694-.027 3682 3682 0 0 1 9.801-.024l8.859-.012 8.808-.006h8.781a12803 12803 0 0 1 17.531.011l5.046.007 4.862.009 4.43.006-.323.324.001-.163.003-4.319c.001-1.406 0-2.781-.001-4.157a3028 3028 0 0 0-.013-7.04l-.009-4.316-.011-4.292-.004-1.406a5737 5737 0 0 0-.024-8.419l-.014-4.154a2880 2880 0 0 1-.016-6.627l-.005-5.72-.001-1.028-.003-4.356-.006-5.227a8774 8774 0 0 0-.033-15.832l-.016-6.041a6358 6358 0 0 1-.021-12.467l-.003-6.18v-6.132a30466 30466 0 0 1 .009-19.113l.005-9.516.004-6.495.481.48-3.012-.001-2.101-.002-7.387-.004h-.05L174.237.82l-3.265.001-3.062.002h-.295l-3.773.001a31183 31183 0 0 0-19.675 0l-3.882.001-16.128.002A21964 21964 0 0 1 92.813.804 117744 117744 0 0 1 52.766.749l-3.384.009c-8.005.02-13.793.035-21.43.045-.73.001-1.326.003-2.05.006l-.434.001c-.945.004-2.032.007-3.544.01C18.91.824 14.289.823 8.316.794 6.807.786 5.847.754 6.172.719 6.401.696 7.202.678 8.18.672L2.775.66A90 90 0 0 1 .905.638C.427.626.183.61.224.594S.59.563 1.129.552 2.374.535 3.094.535l5.722.002A30056 30056 0 0 0 31.673.536L35.12.535h1.254l1.03-.001A156169 156169 0 0 0 81.86.514l19.651-.01 3.32-.01c3.182-.009 6.369-.02 9.508-.031-5.587.006-10.076.014-14.349.022l-1.71.004c-5.791.01-11.386.02-18.912.018C57.965.501 45.554.497 37.82.489A2097 2097 0 0 1 23.666.445C19.285.412 10.829.393 6.58.392 5.036.392 3.79.363 3.797.329 3.805.294 5.062.266 6.607.267c4.486 0 13.636.02 18.85.06 2.323.017 4.994.029 12.609.037s19.91.012 41.356.018c7.255.002 12.64-.007 18.37-.018L99.49.361h.011c5.264-.01 10.995-.022 18.724-.026C136.039.323 160.001.3 165.69.289l3.333-.008c4.369-.01 9.644-.024 21.531-.033 2.599-.002 5.645-.003 8.967-.003 2.279-.008 4.527-.016 6.698-.022h.135v.135c.008 2.58.015 5.053.02 7.34.008 3.632.023 6.983.039 10.23l.014 2.813c.012 2.266.024 4.532.033 6.74.007 1.76.015 3.603.025 5.551.033 7.097.073 15.601.073 26.683.001 11.747-.006 21.805-.013 30.48.008-6.371.017-11.289.026-15.385l.005-2.227c.011-5.034.019-8.695.018-12.618-.001-18.738-.012-25.766-.043-33.696-.008-2.088-.018-4.39-.03-6.872-.023-4.96-.05-10.632-.065-16.727L206.45.358V.126h-.231c-5.069.014-10.613.032-16.44.051h-.008q-1.974.008-3.986.013a20533 20533 0 0 1-28.358.078c-7.11.016-19.592.045-34.835.027-3.348-.004-6.827-.013-10.797-.023l-3.776-.01C102.36.25 95.484.236 86.329.227 78.773.219 69.565.216 60.003.212L45.771.206A92222 92222 0 0 1 5.35.176h-.008C3.8.177 2.59.147 2.644.113 2.7.077 3.994.05 5.536.052c13.068.01 26.113.022 40.342.029l14.104.005c9.608.004 18.945.008 26.57.015 9.312.009 16.313.023 22.05.037l3.914.01c3.926.01 7.19.018 10.366.022 14.759.018 26.77-.01 33.906-.027l3.326-.007a20296 20296 0 0 0 28.807-.082h.008c6.081-.02 11.948-.04 17.29-.053l.357-.001v.358l.005 1.681c.014 5.87.038 10.988.061 15.776l.033 7.488c.032 8.412.043 15.83.044 34.628M10.973.679c3.713.016 6.739.02 8.992.018zM199.977.37l-1.816.006 5.035-.003 3.023-.002-.014-.013.002 3.15V.359l.012.012zm6.456 59.372c0-10.451-.037-18.261-.07-25.304l-.027-5.94-.01-2.426-.006 12.645c-.005 10.628-.016 16.676-.025 21.991l-.008 4.524c.004 1.248.009 2.543.012 3.853l.015 5.7.011 5.707.008 5.671.006 5.235v.293l.006 5.165c.003 1.64.006 3.003.011 4.213l.016 4.593.015 4.585.012 4.553.004 1.488.002.671.002-9.223c.002-4.596.006-9.502.01-14.914.008-9.232.017-19.936.016-33.08m-18.751 83.812 5.611-.002 1.818-.001h-.045l-4.604-.009-8.27-.012-8.265-.008-8.268-.005-8.254-.001-2.638.001 6.161.009 5.405.007 2.618.004c4.043.008 10.388.019 18.731.017m-54.898-.002-1.904.002-5.243.003-3.557.002h-1.475l-2.437.001c5.655.004 11.182.007 16.943.008h.229z"/></svg>