<svg xmlns="http://www.w3.org/2000/svg" width="15" height="14" fill="none" viewBox="0 0 15 14"><circle cx="7.683" cy="6.63" r="5" fill="#0ba6e2"/><path fill="#0ba6e2" d="M1.47 12.43c-.222-.234-.373-.505-.535-.852l-.07-.155c-.187-.429-.42-.98-.69-1.813-.295-.93-.168-1.737.02-2.188.036-.085.05-.17.06-.38.005-.105.01-.237.023-.412a8 8 0 0 1 .078-.669c.096-.627.294-1.61.681-2.446a6.5 6.5 0 0 1 .754-1.277 5.8 5.8 0 0 1 1.28-1.197A8.6 8.6 0 0 1 4.672.167C5.157-.036 5.703-.03 6.22.059q.1.015.197.037c.435.09.85.225 1.267.33l.046.012c.766.196 1.355.236 2.034.383.263.06.535.138.816.262.445.192 1.031.589 1.518 1.09l.124.13c.438.467.779.997 1.008 1.395.361.638.492.893.62 1.1.047.079.09.153.13.245.144.33.228.873.229 1.417v.007c0 .09-.197.164-.44.163-.241-.002-.436-.066-.436-.143 0-.25-.018-.496-.055-.712-.207.02-.371-.01-.381-.076-.026-.158-.268-.66-.82-1.212a1 1 0 0 1-.045.162q-.03.083-.057.136c-.036.077-.06.127-.065.199.023.153.092.377.14.619.013.062-.17.151-.407.2-.237.047-.436.047-.445-.001v-.003c-.038-.193-.095-.379-.107-.51l-.002-.087a.2.2 0 0 1 .011-.06l.007-.011c.003-.004.014-.02.042-.044l.04-.032.003-.006q.025-.046.048-.094c.057-.127.12-.321.064-.675-.053-.322-.333-.803-.86-1.213a17 17 0 0 1 .242.434 8 8 0 0 1 .15.308 5 5 0 0 1 .125.31l.021.064c.027.084.052.167.058.272a.3.3 0 0 1-.018.083l-.011.033-.002.004-.01.034-.01.03a.2.2 0 0 0-.008.092.4.4 0 0 0 .01.063l.009.031.008.032c.006.024-.026.067-.092.12a2 2 0 0 1-.54.276c-.078.025-.128.03-.14.016l-.011-.012-.006-.007-.016-.02a.3.3 0 0 1-.028-.043.14.14 0 0 1-.013-.056l.002-.026.005-.029.008-.028v-.003l.006-.023.004-.022v-.017a.6.6 0 0 0-.106-.164l-.016-.02a2 2 0 0 0-.157-.168 6 6 0 0 0-.166-.16l-.169-.157a5 5 0 0 1-.168-.164 2 2 0 0 1-.162-.191 1 1 0 0 1-.098-.19l-.048-.11v-.001l-.046-.095a1 1 0 0 0-.114-.179.8.8 0 0 0-.3-.236 1 1 0 0 0-.176-.057 1.5 1.5 0 0 0-.25-.028 3 3 0 0 0-.345.013 4 4 0 0 0-.417.058l-.249.045a2 2 0 0 1-.256.031l-.237.013-.063.006a1.2 1.2 0 0 0-.283.057.9.9 0 0 0-.248.137 1.3 1.3 0 0 0-.209.206 2 2 0 0 0-.169.25q-.074.133-.129.276-.031.08-.064.154l-.064.143-.025.055-.033.08a1 1 0 0 0-.04.137.6.6 0 0 0 .013.296c.022.126.018.186.015.253l-.002.04a2.3 2.3 0 0 1-.195.792 4 4 0 0 1-.15.302l-.047.08-.018.034a1 1 0 0 0-.052.113.4.4 0 0 0-.024.11.3.3 0 0 0 .014.103.3.3 0 0 0 .053.097 1.6 1.6 0 0 0 .261.262 1.2 1.2 0 0 0 .213.13q.058.027.121.048a.4.4 0 0 1 .148.08q.046.042.08.082l.072.075a.57.57 0 0 0 .428.15l.148-.005q.071-.002.13.003.055.005.102.019a.4.4 0 0 1 .148.085l.096.092a3 3 0 0 0 .211.178 2 2 0 0 0 .247.151h.001a1 1 0 0 0 .191.072.5.5 0 0 0 .108.013.3.3 0 0 0 .106-.02.2.2 0 0 1 .059-.01.7.7 0 0 0 .298-.056 1 1 0 0 0 .139-.063q.068-.035.139-.065.07-.03.148-.053.077-.024.165-.043.096-.02.2-.049a2.4 2.4 0 0 0 .626-.28q.062-.04.123-.083L9.67 7.57c-.06-.203-.125-.33-.16-.472a.2.2 0 0 0-.035-.044l-.01-.009a.2.2 0 0 1-.05-.069c-.02-.054-.003-.113.209-.201.053-.022.287-.03.523-.01.165.013.287.04.326.068l.093-.136c.012-.018.067-.035.153-.048.087-.013.198-.02.31-.02a1.4 1.4 0 0 1 .296.031c.076.018.118.043.115.068l-.023.193a17 17 0 0 1-.056.38 7 7 0 0 1-.102.491l-.01.042-.01.033a4.3 4.3 0 0 1-.263.712 4.1 4.1 0 0 1-.646.974 5 5 0 0 1-.21.225 2 2 0 0 1-.057.123c-.059.117-.114.248-.177.377a1.8 1.8 0 0 0 .389-.495c.115-.196.213-.377.4-.57.526-.558.707-.985.859-1.227.145-.25.25-.352.44-.436.267-.117.449-.464.46-.647.006-.066.205-.112.447-.105s.435.076.428.155c-.013.228-.212.68-.543.852-.147.077-.247.178-.41.481-.172.295-.383.814-1.02 1.503-.217.228-.343.431-.49.654l-.044.066c-.14.203-.31.423-.606.629-.668.502-1.79.866-2.068.953l-.162.067c-.08.033-.17.068-.283.099-.185.05-.434.095-.819.08a3 3 0 0 1-.463-.06c-.28.059-.563.087-.802.069-.207-.016-.417.007-.634.03l-.19.018a3 3 0 0 1-.458.008l-.38-.029c-.489-.042-1.122-.165-1.633-.702a5.5 5.5 0 0 1-1.08-1.688 19 19 0 0 0 .435 1.107c.142.318.265.545.45.74.902.915 1.402 1.081 1.953 1.167.148.02.316.024.494.021.358-.005.751-.043 1.131-.034a4.3 4.3 0 0 0 1.151-.15q.117-.03.233-.065.311-.095.612-.212c.25-.096.49-.199.718-.293q.066-.028.154-.073c.346-.172.874-.49 1.589-.708.159-.049.338-.08.544-.129q.094-.02.196-.05c.29-.086.642-.225 1.029-.53a4.7 4.7 0 0 0 .94-1.057c.142-.213.273-.44.39-.67a7 7 0 0 0 .699-2.129c.013-.085.218-.15.46-.142.24.008.428.095.414.194a7.8 7.8 0 0 1-.772 2.433c-.13.26-.278.52-.438.763-.327.5-.714.934-1.078 1.23a3.6 3.6 0 0 1-1.18.645q-.12.04-.228.069c-.23.063-.421.103-.595.16-.798.263-1.398.593-1.799.776q-.105.048-.186.08c-.273.103-.558.214-.857.315a9 9 0 0 1-.907.258 5 5 0 0 1-1.308.128c-.411-.02-.803.004-1.181-.001a4 4 0 0 1-.59-.044c-.642-.118-1.22-.328-2.227-1.352m8.955-5.53c-.118.081-.152.144-.154.199a6 6 0 0 0 .154-.2m-3.85 4.52.087-.025a4 4 0 0 1-.488-.086q.207.071.4.111m-3.633-.349c.425.446.956.53 1.397.55l.366.011q.072.003.148-.002a5 5 0 0 1-.526-.386 2.8 2.8 0 0 1-.711-.87l-.109-.203a2 2 0 0 1-.186-.094 2.4 2.4 0 0 1-.482-.369 3 3 0 0 1-.2-.223 4 4 0 0 1-.166-.222l-.01-.013q-.08-.119-.156-.227a1 1 0 0 0-.154-.179 3 3 0 0 1-.37-.4 3 3 0 0 1-.203-.297l-.02-.034q.054.246.13.508c.072.251.148.523.257.816.186.498.467 1.074.995 1.634M1.393 5.572a4 4 0 0 0-.031.425v-.002l.091-.254a18 18 0 0 1 .335-.874q.088-.215.179-.423.09-.209.183-.416l.06-.132a4 4 0 0 0-.198.284q-.078.122-.16.261l-.08.128a2.5 2.5 0 0 0-.379 1.003m1.271-2.847.056-.095q.083-.13.175-.246a5 5 0 0 1 .188-.221l.094-.105c-.251.21-.479.44-.685.705l-.008.01z"/></svg>