<svg width="35" height="21" viewBox="0 0 35 21" fill="none" xmlns="http://www.w3.org/2000/svg">
<path d="M4.64307 16.1982V3.81729H30.6431V14.7697L4.64307 16.1982Z" fill="white"/>
<path d="M0.378951 9.6493C0.389944 9.69594 0.363206 9.88352 0.367842 9.96472C0.251585 9.87267 0.339035 9.48109 0.378951 9.6493ZM6.1918 11.9288C6.1261 11.9612 6.06041 11.9936 5.99471 12.026C6.18691 12.0341 6.44273 11.9989 6.62164 12.0164C6.65091 12.0194 6.5802 12.1066 6.64906 12.1066C6.71794 12.1065 6.69846 11.9937 6.79767 11.976C6.90898 11.9566 7.42633 12.0075 7.60389 11.9958C8.26794 11.9517 8.93455 11.85 9.60295 11.8606C8.9202 11.9823 9.61754 12.0298 9.80807 11.9828C9.85026 11.972 9.83185 11.7613 10.5244 11.7766C10.9645 11.7862 10.5763 12.1103 11.2993 11.9189C10.7254 11.7386 11.2792 11.7231 11.7197 11.6918C11.7956 11.6864 12.4111 11.6844 12.6817 11.6601C12.7743 11.6518 12.9096 11.5335 13.0325 11.5238C13.117 11.5172 13.1844 11.5742 13.31 11.5642C13.8954 11.5183 14.4716 11.482 15.0599 11.4701C14.7324 11.7732 15.3359 11.5764 15.3641 11.5885C15.5083 11.658 14.8768 11.7147 15.1297 11.7492C15.4788 11.7212 15.828 11.6932 16.1772 11.6652C15.8883 11.646 16.544 11.405 16.6719 11.4912C16.604 11.2431 18.2776 11.6222 18.5239 11.5246C18.5751 11.504 18.2263 11.3987 19.0227 11.4119C19.109 11.4135 19.0807 11.491 19.1253 11.4815C19.1521 11.4757 19.3022 11.226 19.4835 11.3495C19.5497 11.3945 19.1519 11.575 20.0411 11.4624C19.6721 11.2369 21.2718 11.2617 21.5683 11.307C21.5079 11.2773 21.4475 11.2476 21.3872 11.2178C21.6818 11.2907 21.7296 11.2045 21.7951 11.2055C22.0592 11.2093 22.4255 11.2734 22.6702 11.2523C22.9565 11.2277 22.9491 11.0752 23.2867 11.1161C23.2055 11.0869 23.1243 11.0576 23.0432 11.0283C23.2745 11.0237 23.5059 11.0191 23.7372 11.0146C23.2136 11.2457 23.8531 11.0178 23.8957 11.0111C23.9636 11 23.87 11.088 23.9837 11.0715C23.9954 11.0691 23.9741 10.9923 24.1497 10.9739C24.5166 10.9357 24.4638 11.0367 24.6182 11.0271C24.6323 11.0258 24.5789 10.9584 24.8448 10.9272C25.6899 10.8278 24.8436 10.9811 24.8116 10.9926C24.7695 11.0077 25.0764 11.2846 24.3504 11.2203C24.594 11.2401 24.6255 11.3683 24.6529 11.3701C24.6772 11.3714 25.0952 11.3301 25.118 11.3244C25.3216 11.2691 25.1355 11.1905 25.1748 11.1724C25.2069 11.1578 25.7181 11.2454 25.8218 10.9726C26.0768 11.205 25.695 11.2034 25.2921 11.2634C25.2357 11.3171 25.6833 11.3417 25.7066 11.3402C26.2804 11.3083 25.9516 11.1236 26.0699 10.9876C26.1321 10.9164 26.3735 11.0414 26.1477 10.872C26.6674 10.8243 26.3573 10.9467 26.3918 10.9604C26.4438 10.9804 26.6232 10.9184 26.6464 10.9241C26.6804 10.9325 26.5675 11.0016 26.7007 11.0165C26.7228 11.0185 26.9296 10.8989 26.6525 10.8623C27.0198 10.8575 26.9845 10.7671 27.119 10.9458C27.3521 10.581 27.3135 11.1432 27.414 11.1574C27.6811 11.1947 27.5893 10.9234 27.6025 10.9092C27.6939 10.8178 28.4306 10.8723 28.6096 10.8226C28.549 11.025 28.0298 10.8566 27.9182 10.9014C27.5462 11.0503 28.4579 10.9713 28.1963 11.2358C28.308 11.1609 28.4196 11.0861 28.5313 11.0113C28.7517 11.16 28.4553 11.2464 29.0216 11.1565C29.1071 11.013 28.6202 11.2005 28.7136 11.086C28.7687 11.0188 29.0982 10.9869 29.1028 10.9528C29.1071 10.9119 28.8113 10.9764 28.8549 10.9114C28.9502 10.771 30.0458 10.8395 29.2212 10.9585C29.4522 10.9435 29.586 11.205 29.7818 11.1105C29.9085 11.0492 29.159 10.719 30.2566 10.7268C30.2869 10.8521 29.8213 10.7882 29.8099 10.7985C29.7939 10.8134 29.8929 11.0945 29.9081 11.1078C29.932 11.1273 30.166 11.0954 30.4396 11.0657L26.9335 14.7697C26.9153 14.4287 26.9038 14.0272 26.9834 13.8963C26.8181 13.9899 26.9539 13.0509 26.9035 12.9487C26.8896 12.9214 26.7884 13.0232 26.7776 12.9941C26.7138 12.8125 26.8946 12.3214 26.8993 12.0936C26.9046 11.8386 26.8172 11.8709 26.8173 11.8566C26.8222 11.7444 26.8815 11.8341 26.8813 11.7655C26.881 11.6619 26.8932 10.9499 26.8808 10.9141C26.8769 10.9037 26.777 11.0199 26.7581 10.8647C26.7548 10.8378 26.8732 10.8548 26.8221 10.3952C26.7605 9.84155 26.6748 10.7796 26.5507 10.5496C26.7273 10.194 26.5523 10.2055 26.566 10.1091C26.5711 10.0757 26.7199 9.82719 26.7105 9.55731C26.7346 9.75101 26.7588 9.9447 26.7829 10.1384C26.809 9.94799 26.7767 9.5782 26.8062 9.42131C26.8206 9.34479 26.9428 9.40785 26.9395 9.24161C26.9381 9.20632 26.6403 9.06632 26.7739 9.50182C26.6676 9.53664 26.7368 9.3294 26.7068 9.23327C26.7021 9.21873 26.5244 9.16139 26.6348 9.03862C26.662 9.00915 27.1803 9.33008 26.8051 8.50239C26.7931 8.47573 26.7281 8.56841 26.7147 8.54235C26.7056 8.52454 26.7318 8.31325 26.7226 8.2899C26.7127 8.26603 26.6419 8.36807 26.6279 8.33965C26.5561 8.19392 26.8371 8.00262 26.8157 8.30313C26.8505 8.20269 26.8852 8.10225 26.9199 8.00181C26.7081 8.1093 26.8603 7.84405 26.8538 7.70508C26.8121 6.81439 26.6744 7.41082 26.6031 7.25769C26.4886 7.01139 26.8511 7.1995 26.7422 6.83388C26.732 6.80006 26.5781 7.24203 26.665 6.37902C26.671 6.50639 26.677 6.63377 26.683 6.76114C26.8878 6.68769 26.6689 6.3012 26.666 6.27148C26.6379 5.9326 26.7118 6.1617 26.6062 5.65848C26.5968 5.61353 26.6473 5.51565 26.6221 5.41955C26.5182 5.02119 26.5591 5.94518 26.4761 5.97045C26.4355 5.98241 26.4457 4.98873 26.465 4.95462C26.5506 4.80977 26.5027 5.40508 26.6089 5.2916C26.6394 5.25807 26.5944 4.32264 26.5982 3.81729L30.6431 7.86218C30.5245 7.8613 30.4296 7.85773 30.3756 7.84988C30.0477 7.80178 29.9001 7.524 29.898 7.83612C29.8054 7.52975 29.7237 7.73878 29.6818 7.73667C29.1747 7.70831 29.1738 7.70522 28.739 7.73456C28.643 7.74093 28.5619 7.64798 28.5279 7.66367C28.5082 7.67315 28.5451 7.77263 28.4483 7.80333C28.3138 7.84532 27.5055 7.743 27.4454 7.68801C27.3853 7.63301 27.7867 7.66416 27.7148 7.57374C27.4242 7.5646 27.1456 7.58698 26.8531 7.57745C26.7316 7.57322 26.794 7.50994 26.7415 7.50868C26.7192 7.5079 26.2997 7.56363 26.3174 7.58697C26.3591 7.64125 27.6546 7.60476 27.3134 7.71551C27.2476 7.73691 27.0151 7.59109 27.0521 7.76841C25.8947 7.72821 24.7373 7.68801 23.5799 7.6478C24.2449 7.51517 24.9933 7.63379 25.6898 7.62135C25.7852 7.61982 26.108 7.63692 26.0687 7.54729C25.4764 7.52409 24.7401 7.57079 24.1714 7.51238C24.1531 7.51045 24.22 7.42992 24.1518 7.41716C24.0244 7.39335 23.6094 7.52322 23.5397 7.48963C23.5277 7.48181 23.7639 7.37565 23.6921 7.30819C23.5077 7.13506 23.4609 7.51851 23.3025 7.51397C23.1799 7.51029 22.3563 7.32489 22.1512 7.44203C21.9331 7.56688 22.7582 7.51451 22.6972 7.61659C22.139 7.71918 21.5737 7.60963 21.0463 7.62241C21.037 7.62274 21.1177 7.70273 21 7.71393C20.7952 7.73341 20.7414 7.61993 20.6417 7.60178C20.5342 7.58246 20.154 7.59872 20.1032 7.55735C20.0967 7.55192 20.1737 7.43937 20.1854 7.43621C20.351 7.38982 20.4098 7.5359 20.4249 7.53777C20.4815 7.54331 20.5372 7.48736 20.5888 7.49069C20.6738 7.49625 20.7207 7.54801 20.8329 7.55258C20.9104 7.55593 20.8356 7.45652 20.9103 7.46107C20.9377 7.46314 21.2332 7.69013 21.2608 7.45842C21.2693 7.38537 18.8525 7.29155 18.6109 7.34998C18.8181 7.37784 19.0253 7.4057 19.2326 7.43356C18.8118 7.36574 18.3063 7.55088 18.2705 7.27698C16.7101 7.25459 15.1497 7.23219 13.5893 7.2098C13.3107 7.18646 13.4635 7.01045 13.0051 7.06168C13.1235 7.11775 13.242 7.17383 13.3604 7.2299C13.1255 7.19056 12.0844 7.11371 11.9159 7.15002C11.8941 7.15478 11.8638 7.31408 11.6037 7.32776C11.3728 7.33985 11.3358 7.22049 11.2124 7.19763C11.1087 7.17877 10.9924 7.21004 10.9616 7.20345C10.938 7.19817 10.9287 7.12519 10.8719 7.11246C10.6927 7.07311 10.838 7.27861 10.66 7.04264C10.7033 7.03364 10.7467 7.02465 10.79 7.01566C10.5737 6.9815 10.2781 6.87437 10.5968 6.82152C10.6515 6.81239 10.6045 6.883 10.6454 6.88288C12.2454 6.86976 10.9677 6.7325 10.407 6.84215C10.263 6.73753 9.45595 6.8014 9.42913 6.78079C9.39183 6.75092 9.52994 6.66731 9.34891 6.59511C9.31083 6.57983 8.23177 6.63841 8.62032 6.49936C8.70051 6.47068 9.21785 6.50081 9.34259 6.49672C9.04914 6.27497 8.36126 6.59267 8.28392 6.58453C7.9719 6.54997 8.88335 6.39235 8.18041 6.36659C7.6399 6.34681 8.14735 6.49488 7.93947 6.55808C7.82264 6.59354 7.21095 6.43043 7.22756 6.64166C7.0176 6.66422 7.14047 6.55237 7.11456 6.54433C7.08921 6.53725 6.67639 6.60049 6.54239 6.55596C6.52613 6.55043 6.57731 6.44063 6.5605 6.43165C6.52781 6.41627 6.12968 6.43822 6.11369 6.44752C6.10351 6.45398 6.19843 6.55011 6.1594 6.57342C6.11393 6.6003 5.73083 6.57768 5.70971 6.60516C5.67988 6.64671 6.15283 6.61934 6.07401 6.72683C5.85601 6.69976 5.50082 6.77148 5.35692 6.85802C5.39219 6.83328 5.60357 6.82972 5.67694 6.83845C5.6424 6.99588 5.18853 6.99373 5.3437 6.86913C5.24508 6.93605 5.31241 6.97155 5.25686 7.0347C5.2423 7.0507 5.10216 7.05399 5.07515 7.08125C5.07164 7.08668 5.21623 7.14608 5.18728 7.17806C5.13486 7.23584 4.70998 7.22284 4.6752 7.20768C4.57735 7.16472 4.92377 7.11274 4.95266 7.04634C4.95676 7.03614 4.66213 6.90601 4.65766 6.89452C4.64043 6.77121 4.96831 6.86007 4.93081 6.74905C4.84973 6.72559 4.76865 6.70214 4.68757 6.67869C5.00032 6.56626 5.57892 6.62407 5.72812 6.49619C5.26442 6.53424 4.77914 6.52974 4.78015 6.24174C4.78048 6.12045 4.98053 6.04935 4.97279 6.01851C4.9433 5.90816 4.66557 6.02804 4.65536 6.02221C4.64692 6.01549 4.64307 6.00894 4.64307 6.00257C4.64307 6.00256 4.64307 6.00256 4.64307 6.00256C4.64308 5.93795 5.03895 5.89143 5.05876 5.86193C5.09207 5.80952 4.91588 5.59383 4.91615 5.54612C4.92229 5.53654 5.2042 5.48549 5.10908 5.40223C5.01283 5.31814 4.76608 5.31628 4.75743 5.30754C4.71031 5.25724 5.14192 5.21135 5.1548 5.18164C5.16158 5.16662 4.92979 5.07434 4.92305 5.04781C4.91727 5.02119 5.09342 4.96309 5.16285 4.87906C5.2146 4.81663 5.06389 4.76877 5.09039 4.75898C5.10933 4.75249 5.51715 4.75356 5.5372 4.74258C5.56706 4.72635 5.47154 4.65174 5.48545 4.63308C5.50517 4.60625 5.63686 4.63318 5.61972 4.60557C5.60684 4.585 5.09629 4.32779 5.09959 4.25908C5.10543 4.1419 5.6461 4.41152 5.143 3.94909C5.13949 3.94606 5.01702 3.97892 5.01362 3.97607C4.93805 3.89099 5.33063 3.76011 4.85059 3.78299C5.74355 3.63522 4.96171 3.60684 5.09384 3.40952C5.14486 3.33368 5.49102 3.30241 5.49264 3.29103C5.45899 3.19482 5.3487 3.26944 5.31121 3.22226C5.29058 3.1959 5.60028 3.09417 5.53059 3.02812C5.49455 2.99408 5.16578 3.0062 5.15221 2.99956C5.0221 2.93693 5.18165 2.86947 5.15307 2.82499C5.13408 2.79516 4.93569 2.7928 4.93052 2.78743C4.92217 2.77626 5.19155 2.65575 5.24766 2.61339C5.29032 2.5808 5.13021 2.52974 5.15997 2.51553C5.33931 2.43056 5.72085 2.64726 5.35319 2.34361C5.33074 2.32498 5.19166 2.33251 5.18757 2.32879C5.10162 2.24271 5.35769 2.23527 5.4035 2.16481C5.48215 2.04338 5.1141 2.11108 5.42018 2.02568C5.19057 1.94627 5.06263 1.94959 4.79395 1.97172C5.53789 1.90997 5.80045 1.59563 4.97452 1.60355C5.23725 1.60845 5.20811 1.43104 5.28648 1.42792C5.33522 1.42619 5.71617 1.60258 5.54151 1.2068C5.51959 1.15736 5.28819 1.22018 5.36066 1.11899C5.91606 1.14481 5.37244 1.05461 5.37188 1.04123C5.37906 0.808096 6.73618 0.999043 6.96936 0.97246C7.23995 0.941626 7.48042 0.757922 7.53923 0.757689C7.73274 0.757608 7.57216 0.850883 7.61543 0.885176C7.65929 0.919156 8.20958 0.740469 8.23705 0.750283C8.34365 0.789702 8.23546 0.900227 8.24654 0.905807C8.37852 0.973535 9.11757 0.886991 9.32447 0.912684C9.31807 0.840982 8.90266 0.835293 9.16202 0.720131C9.46403 0.585865 9.48132 0.901949 9.48922 0.915858C10.873 0.91286 12.2567 0.909863 13.6405 0.906865C13.6233 0.738701 12.7186 0.86552 12.698 0.843386C12.5771 0.7123 14.1054 0.714712 14.2929 0.774088C14.1505 0.737764 14.008 0.70144 13.8656 0.665116C14.1088 0.471783 14.647 0.722964 14.9988 0.637608C15.1124 0.609938 14.8942 0.535318 14.8987 0.530223C15.0264 0.455136 15.2313 0.512985 15.0781 0.613804C15.3899 0.517206 15.3443 0.623786 15.5836 0.631789C15.5959 0.632125 15.4932 0.554107 15.6825 0.521759C15.7712 0.506667 16.2442 0.506417 16.3076 0.438179C16.3336 0.409448 16.0937 0.106898 16.064 0.367294C15.5495 0.240361 15.8996 0.485953 15.6997 0.479969C15.6691 0.478606 15.7396 0.333261 15.2363 0.401678C15.3321 0.139575 15.9118 0.335566 16.0111 0.303815C16.216 0.238556 15.3716 0.103204 15.2167 0.307518C15.2891 0.102981 15.1568 0.279953 14.9686 0.271546C14.7625 0.262427 14.8523 0.201521 14.7409 0.20119C14.436 0.199667 14.5624 0.344044 14.311 0.213886C14.5561 0.616828 13.8807 0.267056 13.6839 0.161516C14.0041 0.141062 14.3243 0.120607 14.6445 0.100153C14.6262 0.0789933 14.6079 0.0578337 14.5896 0.036674C14.674 0.0396717 14.7583 0.0426693 14.8426 0.0456669C14.8291 0.0659449 14.8156 0.0862229 14.8021 0.106501C15.237 -0.0253429 15.3431 0.122839 15.3786 0.124487C15.8351 0.141676 16.3624 0.140401 16.824 0.140885C16.8932 0.140958 16.8457 0.0090723 17.3504 0.11232C17.5114 0.145198 17.3594 0.247797 17.5419 0.232401C17.7702 -0.046391 17.7659 0.175976 17.8337 0.176328C18.0285 0.176292 18.1476 0.107229 18.1656 0.106501C18.4062 0.0957241 18.7586 0.107255 19.0229 0.0969789C19.0279 0.0959272 18.8904 0.0102718 19.0621 0.0356159C19.1224 0.0446658 19.6632 0.410301 20.136 0.291119C20.013 0.266433 19.89 0.241746 19.7671 0.21706C19.9117 0.251558 20.9248 0.159411 20.6771 0.0615366C20.5252 0.00171709 20.1545 0.237393 20.1138 0.0107534C20.451 0.0785849 22.313 -0.0228639 22.458 0.0297971C22.4781 0.037312 22.3547 0.11085 22.3824 0.120255C22.4038 0.127421 22.8304 0.109998 22.887 0.13824C22.9207 0.15502 22.7322 0.20009 22.7475 0.226582C22.761 0.24547 23.2936 0.27696 23.324 0.184792C23.1932 0.22179 22.8256 0.189481 23.0184 0.111791C23.0432 0.102143 23.1717 0.161591 23.2018 0.149349C23.4814 0.0364161 22.646 0.0635247 22.5167 0.0625947C23.0414 -0.0548306 23.8531 0.0835962 24.4612 0.00705051C24.7069 0.0837655 24.0969 0.124406 24.3749 0.187966C24.9516 0.31971 24.5284 0.0818806 24.5463 0.0721164C24.6895 -0.00528026 25.1774 0.409513 25.1777 0.0938051C25.3868 0.14133 25.3191 0.181134 25.6142 0.139827C25.5753 0.117962 25.5365 0.0960975 25.4977 0.0742323C25.8253 -0.108643 26.5186 0.35273 26.4667 0.387924C26.3269 0.482115 25.9659 0.335193 25.935 0.338728C25.8894 0.343956 25.7632 0.664316 25.2637 0.377873C25.0591 0.592739 26.0554 0.522894 25.6021 0.669348C25.9082 0.645314 27.1678 0.794866 27.3491 0.700558C27.3707 0.688246 27.2699 0.474158 27.5811 0.583122C27.7288 0.63501 27.3726 0.637501 27.4402 0.686275C27.6175 0.813891 29.6999 0.763108 30.6431 0.740457L34.0289 1.12978L33.7199 3.81729C33.7238 3.9804 33.7269 4.10943 33.7281 4.18866C33.7283 4.22352 33.6619 4.21074 33.6625 4.24501C33.6643 4.35029 33.7634 4.73399 33.7328 4.92242C33.8558 4.53201 33.8654 5.29022 33.8518 5.48309C33.8312 5.77583 33.7143 5.75772 33.6894 5.88419C33.5936 6.37162 33.8712 7.12687 33.6117 7.50554C33.8693 7.48482 33.4854 8.1605 33.4831 8.46788C33.4813 8.70864 33.6517 9.05796 33.7556 8.73298C33.7437 9.14859 33.7918 9.58608 33.8074 9.97595C33.81 10.0404 33.7339 9.95167 33.7408 10.0616C33.7419 10.0716 33.8166 10.0854 33.8243 10.1798C33.8894 10.9592 33.7308 10.58 33.6842 10.7258C33.658 10.8074 33.6451 10.8676 33.6408 10.9118C33.6262 10.4575 33.5969 9.9335 33.5948 9.79337C33.4299 9.9129 33.6264 10.8003 33.5821 11.0602C33.5804 11.0692 33.4896 11.0378 33.489 11.047C33.489 11.0472 33.489 11.0474 33.489 11.0475C33.482 11.1449 33.5155 11.7652 33.6238 11.6375C33.6528 11.6033 33.6527 11.3178 33.6429 10.9791C33.6632 11.0708 33.765 11.0023 33.7693 11.0185C33.8196 11.2146 33.7203 11.6951 33.7069 11.8656C33.704 11.9045 33.7692 11.9017 33.7693 11.9081C33.7545 12.0631 33.5683 11.9995 33.7603 12.1585C33.5283 12.4393 33.7259 11.6325 33.5752 11.6893C33.4592 11.733 33.5215 13.525 33.7043 13.5197C33.6847 13.5259 33.6604 13.5505 33.6328 13.6011C33.5715 13.7131 33.5907 14.2119 33.6244 14.298C33.631 14.3125 33.8084 14.3067 33.8101 14.3247C33.8124 14.3501 33.7691 14.555 33.7498 14.7697L33.3755 18.0246L30.8135 17.8717C30.6468 17.8659 30.475 17.8747 30.3783 17.9258C30.5025 17.9439 30.6266 17.9619 30.7508 17.98C30.0094 18.0223 30.1269 18.0687 30.3768 18.1081C30.3892 18.1079 30.4016 18.114 30.4134 18.114C30.5686 18.137 30.7584 18.1571 30.83 18.1713L33.6394 18.3389L34.0498 14.7697C34.0543 14.7521 34.058 14.7418 34.0608 14.7411C34.0659 14.7397 34.0708 14.7501 34.0753 14.7697L33.6619 18.3657L30.8314 18.1968C30.6491 18.2496 29.6421 18.315 29.8527 18.1544C29.8852 18.1301 30.4712 18.1713 30.1766 18.0698C30.1251 18.0521 29.7531 18.1061 29.7328 18.0942C29.5967 18.0155 30.4066 17.8565 30.3002 17.7399C30.1084 17.867 29.8508 17.8198 29.6253 17.8623C29.5226 17.8815 29.5021 17.9717 29.4895 17.9741C29.3001 18.0078 29.402 17.9088 29.3385 17.9146C29.3044 17.9181 28.9397 18.1369 28.9957 17.8598C27.7691 18.1288 28.6643 18.0794 29.4227 18.0223C29.1883 18.1349 28.7153 18.1127 28.5055 18.1474C28.4303 18.1599 28.4802 18.2486 28.3532 18.2739C28.092 18.3258 26.8293 18.2902 26.5005 18.2835C26.6998 18.2402 26.6356 18.1442 26.4807 18.1595C26.3258 18.175 26.4635 18.3004 26.434 18.3163C26.4024 18.3328 25.6706 18.3103 25.5504 18.3341C26.0961 18.256 25.9669 18.1637 25.501 18.1789C25.5667 18.1467 25.6324 18.1145 25.6981 18.0823C25.4275 18.1374 24.8458 18.0178 24.6905 18.0714C24.6662 18.08 24.7596 18.1584 24.746 18.1632C24.6096 18.2062 24.1344 18.1471 24.1141 18.1767C24.0968 18.2014 24.3013 18.2602 24.2287 18.2986C24.2136 18.3067 24.0139 18.2048 23.8249 18.243C23.7547 18.257 23.8016 18.3334 23.784 18.339C23.6377 18.385 23.718 18.2476 23.4479 18.2838C23.2499 18.3105 23.109 18.4483 22.8319 18.4204C23.743 18.5361 22.981 18.5088 22.6066 18.5796C22.5466 18.5909 22.6062 18.731 22.2413 18.6812C22.9956 18.3805 22.0146 18.5566 21.8124 18.5649C21.8013 18.5646 21.7923 18.4706 21.6931 18.4745C21.6848 18.4751 21.7003 18.5381 21.6085 18.548C20.7376 18.6421 21.2921 18.5394 21.1227 18.4857C21.0506 18.4628 20.6308 18.5763 20.5166 18.5847C20.4903 18.5864 20.4987 18.5195 20.3971 18.5277C20.2173 18.5424 20.0599 18.6217 19.9413 18.6338C19.9275 18.6349 19.9212 18.5305 19.6977 18.5767C19.6349 18.5897 19.5658 18.6307 19.6575 18.6558C19.9612 18.7381 20.5178 18.5361 20.8604 18.6162C21.1728 18.689 20.2037 18.7508 20.1532 18.7541C20.1348 18.7554 20.3213 18.6932 20.1283 18.6935C19.9636 18.694 19.6732 18.8909 19.4262 18.865C19.4074 18.8631 19.2033 18.7209 19.2119 18.7115C19.2197 18.7045 19.5183 18.6548 19.4722 18.613C19.4668 18.6082 19.2759 18.6197 19.2492 18.5881C19.2164 18.5497 19.1125 18.1605 19.0712 18.1529C18.9652 18.1343 19.0382 18.2203 18.9702 18.2178C18.8244 18.2126 18.3146 18.1238 18.3057 18.2612C18.3893 18.2647 18.4729 18.2682 18.5565 18.2718C18.0946 18.3112 18.295 18.3585 18.2309 18.3877C18.1618 18.4192 18.1751 18.2982 18.0185 18.2955C17.9844 18.2949 17.3332 18.3558 17.3478 18.4055C17.7043 18.3055 17.5786 18.4611 17.5954 18.4628C17.6592 18.469 17.7354 18.3814 17.8203 18.3784C18.4177 18.3587 17.8232 18.523 17.9659 18.549C18.015 18.5577 18.1077 18.4814 18.1285 18.4839C18.196 18.492 18.2022 18.5849 18.2463 18.5749C18.3494 18.5517 18.2207 18.4269 18.2286 18.4196C18.317 18.3322 18.6871 18.4146 18.4681 18.5701C18.6071 18.6142 18.6135 18.4394 18.7253 18.503C18.9475 18.6289 18.624 18.6112 18.5381 18.6389C18.23 18.7385 18.1337 18.6768 17.6924 18.724C17.5335 18.7408 17.3494 18.8357 17.2758 18.8444C17.2293 18.8499 16.7735 18.5801 16.7858 19.0408C16.6124 19.0057 16.3276 18.7173 16.1522 18.7408C15.9948 18.7622 16.054 18.9221 16.0396 18.9293C16.0175 18.9404 15.8256 18.9381 15.7622 18.9646C15.6879 18.996 15.7292 19.056 15.6103 19.0879C15.3146 19.1672 15.3133 19.0006 15.282 18.9915C14.9181 18.8864 15.0874 19.1141 15.0092 19.1374C14.9365 19.1589 13.8981 19.1247 13.6838 19.1964C13.7705 19.1583 13.8572 19.1202 13.9439 19.082C13.7798 18.9871 13.6211 19.1653 13.608 18.9797C13.5923 19.2815 13.2543 19.0989 13.1565 19.112C13.118 19.1173 13.1239 19.1683 13.0755 19.1732C12.8868 19.1925 12.4578 19.1753 12.3566 19.2068C11.9188 19.3428 13.0642 19.4661 13.1542 19.4724C12.9751 19.4789 11.9667 19.6017 12.4398 19.7204C12.513 19.7387 12.633 19.5974 12.6731 19.59C12.9446 19.5404 12.7362 19.6725 12.7583 19.6828C12.7957 19.6992 12.9692 19.5731 13.0175 19.5843C13.0336 19.5879 12.9376 19.7024 13.1984 19.6904C13.076 19.803 12.3384 19.7573 12.2437 19.7873C12.2099 19.7981 12.437 20.012 11.7978 19.8272C11.8062 19.8478 11.8146 19.8683 11.8231 19.8889C11.4743 19.9167 11.1256 19.9445 10.7769 19.9723C10.8122 19.9219 11.0029 19.8142 10.7571 19.8484C10.6156 19.8681 10.7267 19.9698 10.7139 19.9736C10.588 20.0102 8.32792 20.0985 7.89097 20.1346C7.74233 20.1467 7.33214 20.2559 7.30059 20.2592C7.11188 20.2782 6.43886 20.2588 6.30588 20.2784C6.22286 20.2908 6.30714 20.3763 6.23236 20.3762C6.16284 20.3759 6.22985 20.2851 6.20908 20.2826C6.08436 20.2666 5.37405 20.3593 4.87321 20.3869L-3.05176e-05 20.0962L0.448103 16.1982C0.448061 16.0072 0.45577 15.847 0.478401 15.7621C0.469201 15.8324 0.487684 16.0074 0.517651 16.1982L0.0769472 20.0316L4.8694 20.3174C5.18621 20.2497 5.54543 20.1472 5.5315 20.1095C5.52696 20.1013 5.29538 20.0478 5.25013 20.0826C5.18436 20.0256 5.00721 20.1718 4.86361 20.2122L0.193634 19.9336L0.623075 16.1982C0.615172 16.1627 0.613453 16.1296 0.622287 16.1011C0.627403 16.0846 0.756047 16.1493 0.779397 15.89C0.787376 15.8007 0.687101 15.5668 0.799499 15.3314C0.745492 14.9905 0.912328 13.1987 0.774107 13.0757C0.76681 13.0721 0.719216 13.3244 0.66249 13.1539C0.587091 12.9273 0.841069 13.1308 0.862978 12.8667C0.866312 12.8269 0.840609 12.092 0.824891 12.068C0.68235 11.8454 0.624571 12.4875 0.608004 12.4785C0.566279 12.4561 0.541034 11.9226 0.550873 11.9009C0.56111 11.8803 0.749978 12.3154 0.67836 11.7925C0.65579 11.8524 0.63322 11.9123 0.610649 11.9722C0.566692 11.7263 0.697356 11.7029 0.705339 11.6433C0.73061 11.4581 0.532137 11.2577 0.777282 10.961C0.84234 10.8825 0.914585 11.0128 0.924341 11.003C1.01191 10.9087 0.777661 10.7885 0.952378 10.6467C0.965409 10.6361 1.07008 10.9659 1.07034 10.3894C1.05359 10.4291 1.03684 10.4687 1.02009 10.5084C0.982689 10.4271 0.960466 9.84342 0.969306 9.76489C0.995145 9.53548 1.1154 9.73554 1.10102 9.50497C0.936227 9.65285 0.914721 8.95169 1.05659 8.99202C0.87841 8.89409 1.01586 8.29846 1.02009 8.01847C1.02263 7.8418 0.944871 7.48144 0.953965 7.4253C0.965109 7.35692 1.08666 7.3777 1.11372 7.25423C1.12144 7.21902 1.03233 6.85145 1.15816 6.5288C1.1824 6.46627 1.38858 6.33495 1.44011 6.45117C1.52829 6.6501 1.36219 7.02642 1.48401 7.02162C1.61434 7.01598 1.53683 6.50911 1.55384 6.37268C1.63251 5.74282 1.77105 6.10653 1.81305 6.09033C1.91496 6.04832 1.9118 5.70417 1.92096 5.68981C1.96166 5.63029 2.04232 5.87417 2.10452 5.87785C2.18551 5.88229 2.33167 5.55056 2.35897 5.62598C2.39773 5.73393 2.27591 6.0388 2.28173 6.05813C2.36031 6.30974 2.54741 5.96485 2.63933 5.8698C2.66761 5.84098 2.71409 5.95579 2.72238 5.9319C2.84824 5.56722 2.45942 5.85503 2.48539 5.61246C2.50854 5.39605 2.63149 5.6745 2.63827 5.66623C2.64572 5.65555 2.65243 5.39679 2.69593 5.35628C2.71772 5.33632 2.95688 6.00887 3.06411 5.98078C3.04048 5.76619 3.01686 5.5516 2.99323 5.33702C3.13304 5.32019 3.03012 5.62884 3.04454 5.66077C3.07347 5.72504 3.14422 5.54583 3.18842 5.55352C3.21654 5.55765 3.31687 5.76798 3.35823 5.57796C3.37251 5.51266 3.27448 5.37561 3.37463 5.13776C3.50254 5.9655 3.58113 5.39189 3.63066 5.36749C3.68018 5.34359 3.79675 5.73876 3.77613 5.2591C4.04823 5.2383 3.86214 5.26944 3.90997 5.40573C3.96875 5.5727 4.05835 5.18681 3.99038 5.79705C4.11777 5.76234 4.10876 5.27184 4.11892 5.24587C4.12813 5.22345 4.19079 5.33248 4.21202 5.2936C4.45818 4.83377 4.34577 5.1496 4.50297 5.01643C4.51701 5.00458 4.57529 4.56997 4.59819 4.90084C4.63981 5.50363 4.45928 5.75556 4.84523 5.85686C5.01288 5.41099 4.76375 4.87076 4.75953 4.73523C4.75345 4.52777 4.83216 4.74268 4.85422 4.71711C4.86134 4.70823 4.85484 4.52946 4.8611 4.52706C5.15546 4.39958 4.86598 5.32291 4.91717 5.61361C4.96125 5.53569 5.00533 5.45778 5.04942 5.37986C5.05118 5.48557 5.05294 5.59128 5.05471 5.697C5.14332 5.19338 5.08826 5.67924 5.32661 5.80482C5.38016 5.83301 5.28832 5.50215 5.43717 5.87957C5.47153 5.60121 5.52022 5.68999 5.45304 5.43794C5.54857 5.44444 5.65634 6.01156 5.70537 6.23524C5.81273 5.44503 5.4623 5.89566 5.64771 5.21252C5.52941 5.08584 5.55244 5.41191 5.53291 5.38532C5.46271 5.28992 5.57419 5.06629 5.32819 4.79647C5.28781 4.75254 5.16349 4.93843 5.1695 4.66335C5.17035 4.63292 5.27659 4.45764 5.28429 4.46007C5.36749 4.4833 5.33631 4.65676 5.37104 4.66392C5.40392 4.67064 5.38415 4.47712 5.39326 4.47646C5.4975 4.47051 5.4331 4.63792 5.46573 4.6136C5.5367 4.56109 5.76102 3.86501 5.69532 4.77347C5.57747 4.0189 5.58022 4.67686 5.62549 4.97071C5.63684 5.04565 5.6991 5.06462 5.72071 5.1714C5.74869 5.30875 5.7188 5.46951 5.73023 5.54058C5.74282 5.61702 5.89 5.1827 5.84608 5.81086C5.99247 5.49117 5.83639 4.92648 5.93918 4.61245C6.14689 3.97889 6.19148 5.0542 6.21161 5.16623C6.21706 5.19607 6.30115 5.09601 6.3063 5.11591C6.3142 5.14844 6.27533 5.75873 6.34492 5.81891C6.41444 5.87892 6.34171 5.59537 6.41421 5.57652C6.46302 5.56375 6.5496 6.29997 6.58296 5.90143C6.60583 5.62673 6.40965 5.1204 6.62052 5.03512C6.63798 5.43909 6.65543 5.84306 6.67289 6.24703C6.75312 6.02592 6.83335 5.80482 6.91358 5.58371C6.93903 6.03713 6.84845 6.42911 6.96331 6.85974C7.2204 5.82493 7.16848 7.19573 7.19977 7.21081C7.21848 7.21585 7.42715 6.80855 7.46532 6.74301C7.5456 7.10393 7.58482 8.20064 7.84249 7.559C7.78431 7.67546 7.92793 7.95749 7.93877 7.95377C8.0526 7.91796 7.97878 7.30284 8.0816 7.40316C8.2009 7.51942 8.03905 7.68233 8.05197 7.86119C8.11936 8.77898 8.71361 8.52719 8.61958 9.44746C8.64074 9.42916 8.6619 9.41085 8.68306 9.39254C8.64938 10.3928 8.6157 11.3931 8.58202 12.3934C8.76349 12.7848 8.874 13.8264 8.85392 14.338C8.85001 14.441 8.75477 14.9467 8.73807 14.9849C8.70607 15.0556 8.69386 14.667 8.63386 14.8426C8.62155 14.8796 8.58153 15.7359 8.68306 15.6747C8.69483 15.5787 8.64379 15.2784 8.66772 15.2293C8.75016 15.0626 8.761 15.5917 8.75791 16.1982L4.41732 12.0896C5.06637 12.0573 5.80514 12.036 5.87072 11.9968C5.81054 11.967 5.75035 11.9373 5.69017 11.9076C5.85738 11.9147 6.02459 11.9217 6.1918 11.9288ZM0.666722 10.3247C0.564846 10.2247 0.641362 9.97418 0.612765 9.82613C0.572719 9.62159 0.180424 9.27389 0.57362 9.4236C0.604654 9.72396 0.635688 10.0243 0.666722 10.3247ZM0.514902 14.7146C0.569622 14.5132 0.789222 14.6694 0.697933 14.8345C0.687558 14.8528 0.44125 14.9871 0.514902 14.7146ZM0.619113 12.603C0.622021 12.6115 0.616209 12.7856 0.612765 12.7917C0.524595 12.9477 0.542616 12.423 0.619113 12.603ZM11.453 19.7413C11.2319 19.7629 11.4033 19.9534 11.5366 19.8638C11.545 19.8581 11.4675 19.74 11.453 19.7413ZM11.2951 19.7446C11.1132 19.5756 10.7864 19.9564 11.06 19.9048C11.0865 19.8997 11.3035 19.7529 11.2951 19.7446ZM0.602185 13.9967C0.670702 14.0193 0.637619 14.2271 0.621229 14.3158C0.558675 14.3134 0.609843 14.0837 0.602185 13.9967ZM7.92525 20.0458C7.9311 19.9915 7.21021 20.0341 7.16499 20.1077C7.27714 20.0714 7.91962 20.0946 7.92525 20.0458ZM9.77026 19.8687C9.75147 19.8604 9.50315 19.8882 9.51302 19.9353C9.63804 19.9908 9.85487 19.9062 9.77026 19.8687ZM13.4458 19.6699C13.4586 19.6572 13.2555 19.3655 13.7085 19.54C13.7749 19.5655 13.5475 19.6572 13.5711 19.6667C13.6206 19.6852 13.6593 19.693 13.6901 19.693C13.4856 19.7294 13.2724 19.7529 13.2507 19.7357C13.1488 19.6545 13.4401 19.6752 13.4458 19.6699ZM15.3629 19.3389C15.4027 19.2873 15.675 19.2987 15.7377 19.3156C15.7485 19.3189 15.7095 19.4509 15.831 19.4345C15.9284 19.4211 15.7749 19.2965 15.9668 19.3073C16.1607 19.318 15.9084 19.4266 15.9256 19.4325C15.9486 19.4401 16.2436 19.3641 16.2385 19.4418C16.2347 19.4993 15.9132 19.4782 15.8348 19.4947C15.7345 19.5158 15.8624 19.6042 15.6922 19.5931C15.5853 19.5862 15.635 19.4156 15.6121 19.4084C15.5929 19.4026 15.2269 19.5193 15.3636 19.3394C15.3634 19.3392 15.3632 19.339 15.3629 19.3389ZM13.7454 19.6826C13.7302 19.6891 13.7122 19.6931 13.6901 19.693C13.7086 19.6897 13.7271 19.6861 13.7454 19.6826ZM0.740252 10.9066C0.688562 11.0113 0.622284 10.7006 0.689998 10.5829C0.744605 10.5809 0.748299 10.89 0.740252 10.9066ZM13.9288 19.5358C14.2369 19.5609 14.0152 19.6309 13.7454 19.6826C13.8299 19.6463 13.8253 19.5275 13.9288 19.5358ZM5.25013 20.0826C5.26371 20.0944 5.27296 20.1134 5.27575 20.1453C5.23993 20.1122 5.23586 20.0936 5.25013 20.0826ZM5.96668 20.1004C6.2059 19.9896 5.70921 20.0209 5.71618 20.0904C5.71911 20.1166 5.95711 20.1049 5.96668 20.1004ZM11.7377 19.7351C11.7148 19.7268 12.0462 19.4137 11.5537 19.6621C11.825 19.6819 11.5426 19.7296 11.5482 19.7551C11.5633 19.8285 12.0118 19.7325 12.1137 19.759C12.1848 19.6222 11.8133 19.7625 11.7383 19.7351C11.7381 19.7351 11.7379 19.7351 11.7377 19.7351ZM18.8444 19.2191C18.7874 19.3001 18.5915 19.2858 18.46 19.2884C18.5171 19.2075 18.7129 19.2217 18.8444 19.2191ZM19.2288 0.0107534C20.1294 -0.0611022 20.246 0.255397 19.422 0.130306C19.4059 0.127678 19.1741 0.0428345 19.2288 0.0107534ZM26.9575 0.092747C27.0423 0.23069 26.7615 0.252872 26.5771 0.1959C26.5353 0.183087 26.381 0.0433645 26.5572 0.0160434C26.5516 0.183244 26.8241 0.247114 26.9575 0.092747ZM14.0968 19.4381C14.1808 19.3414 14.4585 19.3917 14.6037 19.3975C14.5197 19.478 14.2261 19.4598 14.0968 19.4381ZM22.188 0.175799C22.2829 0.186244 22.347 0.0662313 22.3306 0.0562468C22.2573 0.0104451 22.0799 0.107478 22.188 0.175799ZM13.2112 19.4725C13.1956 19.4183 13.5558 19.3455 13.5885 19.4798C13.5104 19.4743 13.2221 19.5064 13.2112 19.4725ZM18.5947 19.1915C18.5368 19.1667 18.8259 19.1007 18.9157 19.1235C18.9119 19.1823 18.6326 19.2076 18.5947 19.1915ZM23.7162 0.135067C23.8012 0.145491 24.0136 0.148669 24.0371 0.100153C24.0663 0.0395105 23.7549 0.0601788 23.7162 0.135067ZM7.90065 0.239807C7.88992 0.218012 8.21881 0.0609317 8.365 0.100682C8.64264 0.176739 7.91227 0.2552 7.90065 0.239807ZM21.2895 0.237691C21.0214 0.123552 21.3191 0.23409 21.3073 0.113907C21.1269 0.109578 20.6782 0.10365 20.9867 0.221821C21.0468 0.244683 21.2054 0.22991 21.2895 0.237691ZM21.5368 0.277894C21.5655 0.23896 21.7587 0.116222 21.5917 0.125015C21.5145 0.129267 21.39 0.265647 21.5368 0.277894ZM9.93833 0.186378C10.1786 0.292777 9.07723 0.235692 9.04557 0.21706C9.02884 0.207217 9.01788 0.19794 9.01164 0.190082C8.9712 0.223802 8.76316 0.22988 8.73907 0.144588C8.80145 0.151629 8.97175 0.144128 8.99152 0.153581C9.00005 0.157605 9.0064 0.161381 9.01078 0.165219C9.08419 0.0911784 9.89228 0.166205 9.93833 0.186378ZM11.7633 0.29588C11.4883 0.452842 11.4397 0.185975 11.4634 0.177386C11.7626 0.0681622 11.5675 0.264972 11.5766 0.274191C11.5976 0.289527 11.8102 0.198208 11.7624 0.29588C11.7627 0.29588 11.763 0.29588 11.7633 0.29588ZM10.3124 0.230285C10.3011 0.233761 10.0703 0.225504 10.0608 0.221292C9.87166 0.131604 10.5247 0.154573 10.3124 0.230285ZM16.8071 19.0725C16.9736 19.0899 16.8171 19.1969 16.7055 19.1676C16.6963 19.1646 16.6603 19.0571 16.8071 19.0725ZM21.6687 0.251445C21.7071 0.269996 22.6871 0.339958 22.6282 0.191669C22.545 0.209169 21.431 0.132841 21.6687 0.251445ZM28.9929 0.287416C28.82 0.286268 29.0085 0.146413 29.1007 0.198545C29.1349 0.217912 29.0364 0.287617 28.9929 0.287416ZM12.7147 19.3726C12.5398 19.4592 12.5627 19.1997 12.7229 19.2794C12.7291 19.2826 12.7216 19.3692 12.7147 19.3726ZM27.6122 0.207009C28.2082 0.122254 28.067 0.565641 27.2921 0.415961C27.3164 0.396212 27.3406 0.376463 27.3649 0.356714C26.4705 0.290202 27.3037 0.325464 27.5227 0.300641C27.606 0.291206 27.5362 0.217195 27.6116 0.20648C27.6118 0.206656 27.612 0.206833 27.6122 0.207009ZM29.9017 0.29588C30.4757 0.610583 29.3799 0.405645 29.0656 0.446642C29.3703 0.316687 29.767 0.336354 29.2275 0.203306C30.0163 0.177578 29.6879 0.302917 29.7194 0.313337C29.7567 0.325022 29.8772 0.282368 29.9017 0.29588ZM28.3876 0.297996C28.3544 0.307175 28.1045 0.243111 28.0144 0.253561C28.1403 0.146055 28.6079 0.235561 28.3876 0.297996ZM13.6764 0.222879C13.6557 0.30711 13.6043 0.369154 13.407 0.33767C13.468 0.295346 13.594 0.258943 13.6764 0.222879ZM1.11002 10.1349C1.11606 9.99906 1.1478 9.7285 1.05923 9.81147C1.05169 9.82055 1.06031 10.1345 1.11002 10.1349ZM24.5152 0.319685C24.5441 0.330041 25.2915 0.336992 25.0334 0.244039C24.9555 0.216008 24.2755 0.227912 24.5152 0.319685ZM20.6452 0.309105C20.7077 0.309985 20.9618 0.294118 20.9672 0.274191C20.9844 0.20532 20.6725 0.243184 20.6452 0.309105ZM1.19624 9.44947C1.20498 9.43158 1.1895 9.01656 1.14863 9.06218C1.07135 9.14878 1.16614 9.51081 1.19624 9.44947ZM17.3966 18.8425C17.4311 18.8375 17.4819 18.9263 17.4939 18.9267C17.5222 18.9264 18.1544 18.8565 17.9185 18.9871C17.8792 19.0089 16.9644 19.014 16.8451 19.009C16.7923 18.8861 17.1886 18.984 17.2827 18.9658C17.2993 18.9625 17.3042 18.857 17.3963 18.8431C17.3964 18.8429 17.3965 18.8427 17.3966 18.8425ZM12.6485 0.311749C12.6205 0.391605 11.8739 0.444482 11.8826 0.347721C12.1379 0.335731 12.3932 0.32374 12.6485 0.311749ZM13.0278 0.324974C13.1871 0.381464 12.814 0.400152 12.704 0.375228C12.7029 0.321507 13.0046 0.316712 13.0278 0.324974ZM22.0612 0.607456C22.1362 0.587927 21.9055 0.471408 21.9571 0.448758C21.9902 0.434652 22.1578 0.478326 22.2113 0.441881C22.2265 0.4303 22.0555 0.320772 22.006 0.325503C21.9358 0.331822 22.0039 0.418016 21.9272 0.418606C21.6727 0.420459 21.447 0.358984 21.2084 0.360417C21.1869 0.360714 21.354 0.421583 21.1702 0.420722C21.1418 0.420707 20.9711 0.330046 20.7513 0.343489C20.2657 0.624259 19.9091 0.348577 19.2929 0.449816C19.3162 0.476258 19.777 0.547174 19.8042 0.549796C20.3192 0.595967 21.242 0.601037 21.7815 0.601637C21.9199 0.60188 21.8527 0.542452 21.9123 0.540274C21.9594 0.538668 21.9034 0.648707 22.0612 0.607456ZM1.17085 10.2071C1.28076 10.1423 1.2112 9.91517 1.21687 9.77006C1.11773 9.82114 1.19521 10.0653 1.17085 10.2071ZM16.3797 0.410142C16.4525 0.405899 16.678 0.439002 16.6966 0.40591C16.7206 0.362697 16.3951 0.33544 16.3797 0.410142ZM20.9737 18.6772C20.9806 18.6738 21.1556 18.6701 21.1624 18.6732C21.3234 18.7527 20.7983 18.7635 20.9737 18.6772ZM25.1541 18.4687C25.2858 18.4479 25.4176 18.4063 25.467 18.4929C25.3818 18.4839 25.142 18.5316 25.1541 18.4687ZM34.0328 14.679C33.916 14.7064 33.9916 14.307 34.0021 14.2316C34.054 14.2595 34.1169 14.6589 34.0328 14.679ZM13.7052 0.58947C13.461 0.582562 13.5126 0.759455 13.3576 0.679399C13.3323 0.665868 13.2505 0.297522 13.5189 0.435534C13.5672 0.460342 13.3782 0.547879 13.7052 0.58947ZM27.1659 0.412258C27.1038 0.489514 26.9098 0.466584 26.7786 0.460396C26.808 0.402998 27.0726 0.417768 27.1659 0.412258ZM1.28458 8.6999C1.39365 8.58539 1.31274 8.05633 1.24068 8.18724C1.23128 8.20586 1.28871 8.62568 1.28458 8.6999ZM14.6973 19.0523C14.9099 18.9546 14.4583 18.9528 14.3208 19.0444C14.3848 19.0353 14.6829 19.0587 14.6973 19.0523ZM29.5312 18.162C29.5414 18.1579 29.7723 18.1535 29.7829 18.1572C29.9767 18.2363 29.3233 18.2492 29.5312 18.162ZM23.772 18.4027C23.8512 18.3275 24.4002 18.3545 24.5265 18.4184C24.4144 18.5281 23.6738 18.4965 23.772 18.4027ZM14.7098 0.539216C14.5356 0.542876 14.3704 0.521107 14.2104 0.490549C14.244 0.431043 14.6914 0.494767 14.7098 0.539216ZM30.3768 18.1081C30.3892 18.1079 30.4016 18.114 30.4134 18.114C30.401 18.1122 30.3888 18.11 30.3768 18.1081ZM18.6083 0.581006C18.7543 0.604511 18.724 0.495476 18.715 0.492136C18.6052 0.456824 18.4431 0.554478 18.6083 0.581006ZM1.33272 10.0403C1.43112 9.98974 1.3548 9.74424 1.37822 9.60301C1.3005 9.64398 1.3224 9.92658 1.33272 10.0403ZM30.5164 0.497426C30.6998 0.604113 29.9537 0.728048 29.7965 0.659297C29.7849 0.59338 30.4896 0.482824 30.5164 0.497426ZM14.0142 18.942C13.9954 18.8658 13.6877 18.9759 13.7561 19.0086C13.7995 19.0295 14.0256 18.9893 14.0142 18.942ZM29.4213 0.614333C29.3512 0.637863 29.1878 0.561777 29.2453 0.515411C29.3192 0.455974 29.4394 0.607596 29.4213 0.614333ZM23.1317 0.676225C23.1623 0.688004 23.5745 0.608866 23.4042 0.530223C23.2861 0.475569 23.2673 0.587023 23.2395 0.587354C23.2084 0.586999 22.5467 0.450604 23.1317 0.676225ZM33.8958 7.86954C33.8661 7.71404 33.9005 7.52598 33.8984 7.36321C33.9461 7.42952 33.9591 7.80339 33.8958 7.86954ZM15.2195 18.8551C15.18 18.8261 14.1516 18.8637 14.7405 18.9275C14.7749 18.9311 15.3392 18.9431 15.2195 18.8551ZM13.7052 0.58947C13.736 0.590341 13.7715 0.594021 13.8127 0.601637C13.7718 0.598638 13.7362 0.593414 13.7052 0.58947ZM16.4781 0.601108C16.4219 0.657236 16.705 0.67224 16.7886 0.642369C16.8143 0.573796 16.4858 0.593261 16.4781 0.601108ZM33.8201 7.35085C33.788 7.25707 33.8223 7.08686 33.8185 6.97074C33.8707 6.99039 33.8731 7.3103 33.8201 7.35085ZM33.7614 13.9366C33.7924 13.7504 33.7781 13.5212 33.7143 13.5177C33.7243 13.5138 33.7349 13.5048 33.7455 13.4898C33.7561 13.4746 33.7264 13.2751 33.7482 13.1885C33.8776 12.6695 33.8242 15.1924 33.6439 13.7302C33.6831 13.799 33.7222 13.8678 33.7614 13.9366ZM23.0251 18.2933C22.9153 18.2215 22.625 18.3349 22.7034 18.3613C22.758 18.3793 23.135 18.3656 23.0251 18.2933ZM27.0837 18.0242C27.0514 18.012 26.7658 18.0822 26.7606 18.1235C26.9289 18.1574 27.231 18.0806 27.0837 18.0242ZM22.2088 18.247C22.1419 18.2389 22.0642 18.3687 22.0723 18.3737C22.1421 18.4156 22.3238 18.3105 22.2088 18.247ZM14.2109 0.926967C14.3097 0.962842 14.6243 0.872163 14.6928 0.789429C14.7056 0.805425 14.74 0.826288 14.803 0.851321C14.8028 0.851321 14.8026 0.851321 14.8024 0.851321C14.8874 0.884739 17.4307 0.921251 15.7248 0.761921C15.6713 0.756816 15.7443 0.831079 15.5269 0.817994C15.5126 0.817041 15.5054 0.756407 15.4611 0.753457C15.359 0.747051 14.8153 0.708894 14.7061 0.757689C14.7051 0.746451 14.6981 0.735759 14.6831 0.72595C14.5491 0.638506 14.1344 0.899305 14.2109 0.926967ZM27.6553 17.9816C27.596 17.9624 27.4133 17.9938 27.3972 18.0483C27.4898 18.0694 27.793 18.0266 27.6553 17.9816ZM15.1755 18.6377C15.0548 18.6002 14.7594 18.6988 14.8525 18.7375C14.9095 18.7613 15.3148 18.6806 15.1755 18.6377ZM25.8155 18.1113C26.4974 18.1372 25.9771 18.0973 26.0767 18.0133C25.9896 18.046 25.9026 18.0786 25.8155 18.1113ZM11.066 0.724363C11.1744 0.742418 11.047 0.897244 10.9277 0.813233C10.8903 0.786554 11.0054 0.714553 11.066 0.724363ZM6.1732 0.772501C6.26569 0.90979 5.81402 0.829123 5.99005 0.734943C5.99823 0.731769 6.16659 0.767277 6.1732 0.772501ZM9.59216 0.828574C9.6657 0.735096 9.7136 0.724009 9.9208 0.747109C9.61407 0.773444 9.89854 0.856117 9.59216 0.828574ZM33.7043 13.5197C33.708 13.5185 33.7108 13.5175 33.7143 13.5177C33.7109 13.519 33.7076 13.5196 33.7043 13.5197ZM21.5722 18.3063C21.4829 18.2319 21.2452 18.2508 21.3205 18.3265C21.3277 18.3335 21.5406 18.3667 21.5722 18.3063ZM14.6928 0.789429C14.6815 0.775243 14.6873 0.766071 14.7061 0.757689C14.7069 0.768269 14.7021 0.778258 14.6928 0.789429ZM22.8468 18.1717C22.8415 18.2311 23.2051 18.2342 23.2192 18.2264C23.4215 18.1127 22.9962 18.1599 22.8468 18.1717ZM12.7755 18.6864C12.7571 18.6935 12.886 18.8392 12.9566 18.7755C13.0113 18.726 12.8442 18.6591 12.7755 18.6864ZM8.88858 0.866662C8.77369 0.866558 8.61192 0.866627 8.58208 0.79419C8.65907 0.80531 8.89096 0.813506 8.88858 0.866662ZM6.35003 0.871952C6.48584 0.786791 6.79602 0.787032 6.99409 0.801067C6.99774 0.913164 6.47748 0.845592 6.35003 0.871952ZM13.8993 0.885176C13.9087 0.889736 14.1968 0.923182 14.1575 0.848147C14.1 0.738112 13.818 0.84437 13.8993 0.885176ZM13.3386 18.7365C13.4644 18.6778 13.1597 18.5355 13.0306 18.6655C12.9644 18.732 13.3174 18.7463 13.3386 18.7365ZM20.8232 18.2436C20.6558 18.2963 21.0808 18.3504 21.1353 18.2689C21.0568 18.2669 20.8827 18.225 20.8232 18.2436ZM26.5954 17.847C26.048 17.6505 26.362 18.0467 26.455 18.0052C26.468 17.9993 26.6088 17.8516 26.5954 17.847ZM1.73687 7.37039C1.70543 7.29453 1.59153 7.57732 1.66652 7.61392C1.71344 7.63653 1.75691 7.4189 1.73687 7.37039ZM33.6408 10.9118C33.6415 10.9345 33.6422 10.9569 33.6429 10.9791C33.6392 10.9625 33.638 10.9405 33.6408 10.9118ZM19.2655 18.0257C19.6596 18.324 19.6066 18.0803 19.6393 18.0798C19.7103 18.0794 19.8793 18.1566 20.0118 18.1351C19.8612 18.1794 19.7105 18.2237 19.5598 18.268C19.6817 18.2844 20.7356 18.3443 20.7547 18.2914C20.7821 18.216 20.4538 18.2572 20.4438 18.2512C20.4295 18.2428 20.3667 18.0408 20.3357 18.0347C20.2848 18.025 19.4086 18.0689 19.2655 18.0257ZM25.4786 17.9439C25.5659 17.9635 25.5949 18.0433 25.6337 18.0217C25.647 18.0143 25.6449 17.9368 25.6903 17.9142C25.6197 17.9241 25.5492 17.934 25.4786 17.9439ZM18.6069 18.3495C18.4951 18.2608 18.975 18.2705 18.9909 18.2802C19.0762 18.3398 18.6982 18.422 18.6069 18.3495ZM22.6621 18.1129C22.6444 18.1084 22.2757 18.099 22.2815 18.1513C22.3808 18.186 22.8723 18.1707 22.6621 18.1129ZM25.7474 17.9058C25.8769 17.9077 26.125 17.9723 26.0906 17.8573C26.0904 17.8573 26.0902 17.8573 26.09 17.8573C25.9758 17.8735 25.8616 17.8896 25.7474 17.9058ZM13.7655 18.4661C13.5163 18.2937 13.6424 18.522 13.8573 18.5702C13.9168 18.4834 13.8063 18.4942 13.7655 18.4661ZM12.9931 18.3698C12.9248 18.34 12.2416 18.4143 12.3515 18.5067C12.3906 18.5397 12.7798 18.4298 12.7983 18.4356C12.8264 18.4441 12.7067 18.5597 12.9156 18.5266C12.9013 18.4905 13.0165 18.3797 12.9931 18.3698ZM13.5612 18.3582C13.3159 18.23 13.2769 18.4933 13.4555 18.4842C13.5253 18.4809 13.5962 18.3767 13.5612 18.3582ZM14.5325 18.327C14.4456 18.307 14.2161 18.2835 14.0639 18.3787C14.2743 18.3746 14.4846 18.3705 14.695 18.3663C14.7165 18.3159 14.6084 18.3446 14.5319 18.3271C14.5321 18.3271 14.5323 18.3271 14.5325 18.327ZM4.92075 1.54007C5.10973 1.61401 4.67436 1.64235 4.65594 1.62418C4.60126 1.56387 4.83626 1.50704 4.92075 1.54007ZM4.1057 5.89424C4.13517 5.84173 4.23215 5.8074 4.18134 5.69182C4.10975 5.80808 4.03816 5.92433 3.96657 6.04059C4.13061 6.13093 4.07318 5.95163 4.1057 5.89424ZM4.70504 5.4503C4.70902 5.46672 4.96125 5.37701 4.79286 5.58917C4.67915 5.73252 4.56834 4.953 4.68018 4.81228C4.73215 4.96776 4.67266 5.30894 4.70504 5.4503ZM5.79688 4.08485C5.817 4.07586 5.8465 4.37202 5.83232 4.4063C5.75757 4.5863 5.68911 4.13348 5.79688 4.08485ZM5.74874 5.02965C5.79773 4.89076 5.8293 5.19845 5.80111 5.29015C5.75416 5.29904 5.74161 5.05111 5.74874 5.02965ZM6.83451 5.19328C6.98481 5.36471 7.11924 4.99567 6.88799 5.07003C6.87696 5.07353 6.82811 5.18489 6.83451 5.19328ZM6.05133 4.37438C6.00234 4.51328 5.97077 4.20559 5.99896 4.11389C6.04586 4.10536 6.05849 4.35324 6.05133 4.37438ZM6.94032 5.60166C7.13993 5.72502 7.06964 5.311 7.04469 5.29432C6.94194 5.22843 6.58963 5.39093 6.51766 5.43133C7.04498 5.3692 6.84634 5.54353 6.94032 5.60166ZM7.86097 5.35304C8.04615 5.30887 7.5729 5.22439 7.48259 5.33981C7.57463 5.33429 7.8083 5.36581 7.86097 5.35304ZM8.9849 5.48581C9.08447 5.50064 9.38061 5.53615 9.43028 5.471C9.32158 5.4828 9.02693 5.41878 8.9849 5.48581ZM9.21032 5.68101C9.36596 5.76953 9.40329 5.51162 9.22384 5.58844C9.21687 5.59141 9.20461 5.67609 9.21032 5.68101ZM10.0853 5.77412C10.1874 5.87668 10.3039 5.62691 10.1385 5.62018C10.0893 5.61864 10.0744 5.76236 10.0853 5.77412ZM7.19018 6.04707C7.33638 6.09112 7.52475 5.91225 7.2126 5.89261C7.32224 5.86528 7.43189 5.83795 7.54153 5.81062C7.13266 5.71036 7.16266 5.95841 7.04527 5.94815C6.88122 5.93358 6.89416 5.72889 6.92709 5.66461C6.79258 5.79002 6.22113 5.79203 5.89086 5.81591C6.18112 5.86853 6.65216 5.95977 6.9386 5.99312C7.02038 6.00277 7.09975 5.94664 7.16948 5.95291C7.28127 5.96328 7.18198 6.04411 7.1896 6.04707C7.18979 6.04707 7.18999 6.04707 7.19018 6.04707ZM11.2354 5.77782C11.5355 5.894 11.3457 5.64316 11.1761 5.68789C11.1689 5.69133 11.2279 5.77498 11.2354 5.77782ZM6.8136 3.97645C6.70875 4.37739 6.56979 4.08596 6.78081 4.92471C6.63142 4.57233 6.67337 4.90522 6.61312 4.83644C6.56544 4.78126 6.60492 4.57451 6.5089 4.69469C6.61341 4.53672 6.58451 3.8509 6.60148 3.82033C6.60148 3.82061 6.60148 3.8209 6.60148 3.82119C6.61153 3.80282 6.84695 3.84851 6.8136 3.97645ZM8.98634 6.14176C9.08643 6.44613 9.12569 5.96304 9.32246 6.21529C9.58444 5.84898 8.59878 6.21524 8.47944 5.90583C9.54989 5.94179 7.77221 5.59925 8.5194 6.06242C7.90385 5.89431 8.3177 6.11978 8.22268 6.17879C8.12103 6.24166 7.77285 6.17334 7.79053 6.28671C7.79072 6.28671 7.79091 6.28671 7.7911 6.28671C8.00406 6.27877 8.21702 6.27084 8.42998 6.2629C8.22154 6.01835 8.65673 6.09168 8.80434 6.29094C8.86501 6.24121 8.92568 6.19149 8.98634 6.14176ZM7.78104 5.91218C7.80202 5.91778 8.26524 5.88351 8.23533 5.83442C8.17348 5.80311 7.51607 5.84065 7.78104 5.91218ZM5.74249 5.96561C5.9088 5.96621 6.16597 6.01392 6.25659 5.9217C6.09024 5.92108 5.83305 5.87335 5.74249 5.96561ZM14.3064 5.98307C14.5184 5.9074 13.8657 5.88498 14.0545 5.9746C14.0638 5.97882 14.296 5.9866 14.3064 5.98307ZM9.46852 6.09574C9.68406 6.18876 9.58219 5.89269 9.42252 5.96984C9.41328 5.97439 9.45856 6.0915 9.46852 6.09574ZM6.84957 4.30135C6.92211 4.31577 6.87116 4.8975 6.87179 5.00061C6.80437 4.94203 6.76642 4.28481 6.84957 4.30135ZM5.4498 6.23698C5.78071 6.49781 6.22977 6.19654 6.27902 6.20313C6.32797 6.20984 6.25117 6.32385 6.26234 6.32691C6.28779 6.33331 6.80927 6.32374 6.83451 6.3158C6.85257 6.30961 6.75822 6.14939 6.86585 6.09892C6.65589 6.18996 5.70252 6.133 5.65307 6.15076C5.61474 6.16493 5.90364 6.33319 5.45037 6.23698C5.45018 6.23698 5.44998 6.23698 5.4498 6.23698ZM6.40208 6.23804C6.2718 6.17088 6.63714 6.16247 6.72554 6.18726C6.92199 6.24272 6.41878 6.246 6.40208 6.23804ZM7.28075 6.29993C7.32247 6.315 7.69899 6.32868 7.73101 6.25391C7.55279 6.15692 7.1861 6.26483 7.28075 6.29993ZM11.4706 6.28988C11.5683 6.2803 11.8373 6.33776 11.8527 6.27242C11.7548 6.28195 11.4859 6.22454 11.4706 6.28988ZM7.41983 6.28613C7.4745 6.12367 7.49683 6.50008 7.47061 6.60989C7.42703 6.61584 7.41513 6.29996 7.41983 6.28613ZM9.50503 6.72048C9.56293 6.74035 10.7442 6.69077 10.9099 6.66018C10.7478 6.61077 9.57713 6.60697 9.52401 6.63108C9.5085 6.6383 9.49765 6.71735 9.50503 6.72048ZM6.95038 6.75063C6.84207 6.84685 6.7714 6.73145 6.75774 6.73C6.62381 6.71528 6.34606 6.73697 6.40696 6.64431C6.64331 6.68169 7.16599 6.55957 6.95038 6.75063ZM11.5545 6.72524C11.9556 6.68954 11.1852 6.58817 11.2862 6.68874C11.2928 6.69482 11.513 6.72899 11.5545 6.72524ZM9.37306 6.74852C9.2846 6.82626 8.10298 6.75921 7.9133 6.7591C8.08322 6.6157 8.22015 6.72462 8.44838 6.71731C8.50997 6.71516 8.49352 6.65551 8.50014 6.65541C8.60678 6.65265 8.52696 6.72155 8.59272 6.7226C8.63425 6.72307 9.49757 6.63898 9.37306 6.74852ZM6.88857 6.81729C6.8225 6.87244 6.08472 6.89595 6.05503 6.88129C5.83299 6.77228 6.83123 6.79809 6.88857 6.81729ZM9.48146 6.876C9.35441 7.04266 8.76758 6.93105 9.16921 6.84797C9.20757 6.84041 9.36998 6.91265 9.48146 6.876ZM11.5117 6.88394C11.5314 6.88884 11.9495 6.92215 11.957 6.86913C11.8966 6.84852 11.2871 6.83003 11.5117 6.88394ZM11.2949 7.06327C11.305 7.062 11.2069 6.95987 11.403 6.97281C11.4193 6.97403 11.4498 7.08893 11.6963 7.04687C11.7463 7.03821 11.8238 6.96219 11.8182 6.95747C11.5615 6.77715 10.7886 7.12251 11.2949 7.06327ZM6.87505 6.91039C6.91481 6.95889 6.81892 7.10284 6.73244 7.02994C6.69537 6.99846 6.76453 6.91207 6.87505 6.91039ZM12.8377 6.93049C12.5947 7.01779 13.3578 7.0343 13.3967 7.01196C13.3722 6.95757 12.862 6.92196 12.8377 6.93049ZM8.09376 6.66653C8.09376 6.66634 8.09376 6.66614 8.09376 6.66595C8.07398 6.87045 8.00135 6.74378 7.99907 6.75336C7.8924 7.18894 8.05689 7.0734 8.07631 7.14152C8.11829 7.28757 7.91825 7.26404 8.00119 7.51041C7.87871 7.10317 7.93006 7.47386 7.85889 7.4854C7.56846 7.53104 7.99488 6.94318 7.93401 6.74013C7.92558 6.71184 7.83289 6.92073 7.80652 6.84824C7.72108 6.61257 8.16941 5.88185 8.09376 6.66653ZM6.66573 7.04264C6.5709 7.12794 5.85131 7.0452 6.04209 6.97493C6.07277 6.96366 6.80515 6.9183 6.66573 7.04264ZM27.2918 13.4544C27.218 13.2815 27.1312 13.6823 27.1887 13.7566C27.2173 13.7935 27.3242 13.5304 27.2918 13.4544ZM28.9491 11.1902C28.7448 11.2164 28.5453 11.5357 28.798 11.474C28.8248 11.4673 28.975 11.2315 28.9491 11.1902ZM29.5964 7.32618C29.8109 7.4362 29.7982 7.23178 29.6406 7.23466C29.585 7.23565 29.5896 7.32269 29.5964 7.32618ZM27.1606 10.9604C27.1535 10.9819 27.1665 11.23 27.2135 11.2209C27.2417 11.1292 27.2096 10.8215 27.1606 10.9604ZM29.5282 7.35527C29.6555 7.31843 29.4365 7.17057 29.281 7.31507C29.3599 7.30322 29.5151 7.35903 29.5282 7.35527ZM9.92482 7.32776C10.0314 7.24382 10.3328 7.26919 10.5059 7.25476C10.5246 7.36351 10.0485 7.30805 9.92482 7.32776ZM29.827 11.2659C29.6369 11.3531 30.0565 11.3929 30.0128 11.2938C30.0072 11.2886 29.8344 11.2622 29.827 11.2659ZM22.6734 7.36638C22.8148 7.30151 22.3658 7.21427 22.4893 7.32829C22.4954 7.33294 22.6656 7.36999 22.6734 7.36638ZM20.7127 7.32882C20.82 7.3507 21.2775 7.34397 21.0994 7.28068C21.0718 7.27096 20.7208 7.2694 20.7127 7.32882ZM8.1546 7.15359C8.26631 7.09579 8.23972 7.43132 8.22019 7.47936C8.21207 7.49823 8.00925 7.22899 8.1546 7.15359ZM27.1167 4.16422C27.1307 4.27524 27.1041 4.5632 27.1627 4.61391C27.1506 4.47809 27.2335 4.1277 27.1167 4.16422ZM27.0993 14.5053C27.0432 14.5836 27.0155 14.6876 27.0177 14.7697L30.4442 11.1498C30.3489 11.1576 30.2855 11.204 30.3286 11.2871C30.3932 11.2814 30.4297 11.2722 30.4503 11.2618L27.1299 14.7697C27.0936 14.6862 27.0248 14.8456 27.0993 14.5053ZM28.8131 7.48593C28.9022 7.49519 28.9704 7.34287 28.9604 7.3357C28.8639 7.26742 28.7247 7.42667 28.8131 7.48593ZM27.0998 8.66857C27.0347 8.67372 27.0642 8.95911 27.1061 8.92102C27.1202 8.90852 27.1525 8.66442 27.0998 8.66857ZM13.6626 7.36479C13.7934 7.42421 13.394 7.48229 13.2759 7.41293C13.2185 7.31299 13.6461 7.35797 13.6626 7.36479ZM26.3442 7.44784C26.3309 7.54444 26.777 7.48983 26.6012 7.40976C26.5572 7.38972 26.3488 7.41554 26.3442 7.44784ZM22.0736 7.56369C22.3728 7.4485 21.1163 7.36671 21.4465 7.51027C21.4701 7.52049 22.0475 7.57342 22.0736 7.56369ZM20.0215 7.49175C20.0731 7.50444 20.0474 7.82905 19.8338 7.70388C19.8057 7.68764 19.9369 7.60183 19.914 7.58221C19.9005 7.57102 19.436 7.52543 19.4146 7.53301C19.3915 7.54162 19.4186 7.64566 19.3953 7.65732C19.369 7.67037 19.083 7.57897 18.9332 7.57798C18.651 7.57626 18.6205 7.66286 18.5974 7.66314C18.53 7.66372 18.4167 7.60223 18.28 7.60231C17.5911 7.603 16.5374 7.6764 15.9913 7.49281C16.4773 7.56653 16.9404 7.48831 17.424 7.46424C17.2824 7.645 18.1355 7.32497 17.6365 7.53354C17.8662 7.4883 19.8523 7.45212 20.0209 7.49175C20.0211 7.49175 20.0213 7.49175 20.0215 7.49175ZM28.1343 11.1438C28.2542 11.0262 27.6088 11.0867 27.561 11.2177C27.6473 11.2308 28.1193 11.1572 28.1343 11.1438ZM26.6147 14.0873C26.5956 14.0271 26.3789 13.97 26.4888 13.6545C26.4888 13.6542 26.4888 13.654 26.4888 13.6537C26.5209 13.5614 26.5737 13.6665 26.5925 13.6496C26.6002 13.6435 26.7079 13.3558 26.7253 13.5947C26.7519 13.9591 26.5641 13.629 26.5618 13.8233C26.5616 13.8471 26.6789 14.2147 26.7046 14.1934C26.7076 14.1911 26.6828 14.0805 26.6935 14.0622C26.7337 13.9932 26.8014 14.0268 26.8046 14.0171C26.8129 13.9853 26.6976 13.4038 26.7983 13.3193C26.8307 13.2918 26.9056 14.2462 26.8887 14.2833C26.8781 14.3069 26.6903 14.297 26.6718 14.3213C26.6626 14.3338 26.733 14.7177 26.7157 14.7675C26.7155 14.7683 26.7153 14.769 26.715 14.7697L30.4276 10.8475C30.4139 10.8435 30.4033 10.839 30.3953 10.8352C30.4565 10.89 30.1092 10.9049 30.1162 10.8389C30.1208 10.8128 30.3606 10.8146 30.3694 10.8186C30.3732 10.8203 30.3766 10.8228 30.3798 10.8244C30.3701 10.8121 30.3886 10.8007 30.4244 10.7897L26.6571 14.7697C26.6161 14.6051 26.6027 14.0872 26.5163 14.2304C26.4586 13.9956 26.6709 14.2638 26.6147 14.0873ZM26.4989 12.9584C26.5186 12.9827 26.5384 13.0069 26.5581 13.0312C26.5098 12.6201 26.6048 12.1457 26.6041 11.6721C26.6041 11.5519 26.4833 11.6901 26.5163 11.5326C26.5428 11.4064 26.6548 11.2668 26.6798 11.3354C26.686 11.3521 26.613 11.609 26.6205 11.7376C26.6427 12.1172 26.7463 12.0213 26.7491 12.0435C26.752 12.068 26.6792 12.307 26.6824 12.4374C26.6908 12.7655 26.7544 12.9154 26.6713 13.3636C26.6031 13.1049 26.4548 13.2466 26.4989 12.9584ZM24.46 7.74091C24.4444 7.8061 24.1754 7.74826 24.0776 7.75783C24.093 7.69248 24.3622 7.75049 24.46 7.74091ZM7.50193 12.0269C7.42528 12.1382 8.04517 12.1307 7.8773 12.0507C7.84015 12.033 7.57967 12.0234 7.50193 12.0269ZM10.2837 11.9392C10.3648 11.9051 10.0274 11.8465 10.0326 11.9291C10.0345 11.9556 10.2732 11.9436 10.2837 11.9392ZM26.6041 7.64412C26.6008 7.62845 26.6246 7.40055 26.6301 7.3934C26.7436 7.24241 26.678 7.99256 26.6041 7.64412ZM13.6538 11.6221C13.3693 11.708 14.2389 11.6906 13.9688 11.6159C13.9553 11.6123 13.6675 11.6179 13.6538 11.6221ZM14.8591 11.5363C14.7902 11.5438 14.4813 11.5259 14.4791 11.5587C14.4758 11.6117 14.8291 11.6283 14.8591 11.5363ZM28.7531 7.89008C28.7864 8.01062 28.3811 7.91934 28.2401 7.93452C28.2066 7.81389 28.6122 7.9053 28.7531 7.89008ZM26.4814 4.48596C26.4661 4.21021 26.4599 3.98876 26.4599 3.81729L30.6431 8.00041C29.9813 8.00031 30.0641 7.90813 30.6431 7.89634L26.564 3.81729C26.5681 4.01796 26.5625 4.27822 26.5401 4.58774C26.4628 4.5898 26.4874 4.59381 26.4814 4.48596ZM29.1234 7.96467C29.1855 7.88744 29.3796 7.91034 29.5107 7.91653C29.4871 7.97022 29.218 7.95079 29.1234 7.96467ZM6.75646 11.902C6.85812 11.7987 7.33863 11.8928 7.25658 11.9376C7.23744 11.9473 6.7201 11.9577 6.75646 11.902ZM26.501 7.50094C26.3837 7.54074 26.4316 7.02756 26.4576 6.98828C26.5623 6.82991 26.4751 7.45938 26.501 7.50094ZM26.3275 7.99323C26.2369 8.08506 25.9795 8.03783 25.814 8.03661C25.8894 7.95809 26.187 7.99158 26.3275 7.99323ZM27.5225 8.06518C27.5121 8.0687 27.2812 8.06041 27.2709 8.05618C27.0817 7.9665 27.7348 7.98947 27.5225 8.06518ZM8.97559 6.38303C8.97855 6.39072 8.97269 6.56555 8.96924 6.57164C8.88108 6.72769 8.8991 6.20297 8.97559 6.38303Z" fill="white"/>
</svg>
