<svg xmlns="http://www.w3.org/2000/svg" width="9" height="15" fill="none" viewBox="0 0 9 15"><path fill="#0ba6e2" d="M2.004 8.915q.03.967.593 1.531.577.563 1.444.708V7.326q-.765-.188-1.329-.404a3.8 3.8 0 0 1-.924-.535 1.94 1.94 0 0 1-.535-.765q-.173-.448-.173-1.084 0-.65.231-1.184a2.9 2.9 0 0 1 1.56-1.575 3.7 3.7 0 0 1 1.17-.274V.552h.795v.967q1.17.145 1.863.867t.982 1.993H6.453q-.289-1.43-1.617-1.675v3.553l.866.231q.29.072.68.26.39.174.75.491.36.318.607.795.26.477.26 1.14 0 .71-.246 1.258-.23.548-.65.953-.419.39-.996.621-.58.23-1.271.289v1.184H4.04v-1.184q-1.444-.144-2.297-.997-.852-.867-.967-2.383zm2.832 2.239q.405-.03.736-.145a1.7 1.7 0 0 0 .592-.332q.261-.231.39-.563.145-.347.145-.81 0-.418-.145-.692a1.5 1.5 0 0 0-.39-.492 2 2 0 0 0-.592-.332 7 7 0 0 0-.736-.26zM4.04 2.66a2.07 2.07 0 0 0-1.184.506q-.477.42-.477 1.242 0 .375.116.65.13.26.346.448.23.174.535.303.303.13.664.231z"/><path fill="#0ba6e2" d="M2.33 11.045c-.027-.106.178.114.085-.085l.108.059-.038.105a2 2 0 0 1-.154-.079m-.357.288c.115-.035.272.057.18-.141q-.052.026-.105.048a3 3 0 0 1-.079-.167l-.013-.034-.08-.027q.037-.096.079-.19.014.039.032.078.058.024.108.054c.055.03.11.072.181.124v-.056q.055.096.119.19a3 3 0 0 1-.195-.061c.01.136.182.197.265.226.115.04.069.065.155.093.014.004.033-.026.057-.013.121.066.37.19.187.202-.212-.105-.424-.15-.599-.31-.007.114-.13.07-.292-.016m2.423 1.635c.047.08.028.243-.004.353-.007.025-.07.08-.067 0 .004-.128.102-.191.036-.259zm-.005-.281c.024-.08.098-.043.078.056-.009.041-.067-.04-.008.109l-.133.09-.002-.108c.076.026.04-.068.065-.147m-1.4-1.02c.036-.06-.008-.075-.06-.15q.099.047.2.087zM1.674 10.59l-.065-.046.04-.074a3 3 0 0 1-.179-.196c.072-.021.128.122.215.167.041.116.04.188-.008.23zm5.9-6.268-.083-.078q.003.064.003.13a.2.2 0 0 1 .042.04l.145-.182c-.072.033-.1-.021-.224-.016-.458.017-.336.156-.75-.048.332.01.204-.086.405-.16.041.056-.157.183-.023.21.195-.05.384-.098.592-.135l-.29.363-.045-.106-.023.028.035.086.323-.405-.025.004.025-.015-.334.418-.084-.083c.07.038.006-.086.075-.085.032 0 .087.05.124.078a5 5 0 0 0-.029-.287q.055.06.109.124zm-4.497 6.952c.159.001.39.076.498.186a3 3 0 0 1-.498-.186m-1.439-.566.01-.051q.072.051.147.095l-.063.088a3 3 0 0 1-.094-.133m2.735 2.411c-.002-.045 0-.049.004-.104.002-.022.022-.208.049-.187v.284zm-.54-1.2c-.03-.008-.058-.02-.09-.028.12-.022.128.054.236.046.037-.002.07-.009.1-.011l.343.044-.009.326c.01.06.005.112-.062.175-.016-.036-.038-.074-.056-.111l.013-.064.007-.234-.247-.032c-.104-.027-.152 0-.261.019zm2.654-8.363c-.061-.007-.036-.065-.038-.069-.201-.243.054.019-.107-.237l.108.09c.017.073.027.148.037.216m.978 4.61-.036.028c-.062-.125-.13-.123-.145-.246a3 3 0 0 1 .181.219m-3.007 5.09a1 1 0 0 1-.417.007l.218.217.01-.045c.004-.01.035.036.042.024q-.007-.052-.017-.103l.074-.014-.01.138-.317-.317.152.011-.044-.043.247-.023q-.045.062-.086.123zm1.26-6.616c.02.023-.032.036.002.06.033.023.11.017.08.055a2 2 0 0 0-.156-.025c.135.118.318.114.284.21a.75.75 0 0 0-.312-.107l-.127-.016c.028-.076.213-.1.127-.2l.05.011zM1.203 8.2c.105.005.348-.028.481.02a.6.6 0 0 1 .142.18c-.003.067-.137.076.006.12q-.072 0-.142.004l.025.133.175-.02.008.045c-.209 0-.085.057-.194.11l.3.08c-.057-.003-.125-.005-.176-.009-.007.076.115.058.135.072.117.08-.478.04-.526.15l.291.036-.083.04c-.22-.075-.468-.102-.725-.15l-.07.01.02.102-.093.01.217-.234.002.011-.014-.01-.205.222c.033-.042.028-.066 0-.085l.12-.13c-.023.041-.033.128-.06.227-.05-.086-.035-.201-.108-.188.08.31.064.693.215.973.038.068.126.04.176.207-.012-.002-.03.003-.044.004.15.27.252.417.385.703l.056-.1a3 3 0 0 1-.144-.14c.028-.067.078-.02-.01-.19-.067-.142-.05-.047-.083-.079-.045-.044-.023-.11-.07-.158-.036-.039-.061.028-.094-.098q.111.044.226.08l-.004.098-.08-.066c.068.09.135.171.213.254-.095.008-.012.096.028.143.064.075-.03.035.011.085.043.049.135.068.19.167-.067-.026-.045.062-.083.07-.039.01-.12-.09-.08.033.166.167.12-.115.232-.01.132.118.006.301-.07.293-.059-.008-.156-.134-.214-.149.13.27.24.175.29.192l.009.003c.172.051-.077.156.14.226l-.097.096c.035.018.061.025.1.048-.044-.156.038-.083.08-.05.068.052-.008-.065.017-.06.066.013.134.08.112.013q.014.046.032.094c.097.04.388-.014.19-.091.057-.051.093.014.132.05s.062-.005.098.024c.144.116.004.133-.054.173.245.074.035-.052.373.062.05-.035-.077-.146.056-.123-.01.09.059.19.241.276l.073-.043c.081.107.009.18.23.125-.148.159-.05.062.118.171.035.022-.059.044-.01.073.023.014.086-.005.141.026.026.016.154.107.252.082-.037-.06.02-.105.035-.153l.014.002v.014q.014.003.028 0v-.038l-.04-.005c-.002-.021-.017-.043-.054-.067l.06.01.093.012-.003.088c-.01.244.02.389-.095.1l-.082.212.064.149c-.074.007-.095 0-.082.194l-.054-.253c-.015-.003-.03-.014-.045-.012.029.104.041.396.061.467.02.07.025-.066.045-.046.159.17.041.156.069.278.016.072.033-.099.04-.06a.3.3 0 0 1-.014.155c.05.013.1.039.17.04l-.132-.146c.132.003.279.004.401-.012.048-.006.012-.042.02-.044.039-.012.197-.032.214-.032.055 0 .086.01.115.02l-.175.174c.014-.037.03-.068.032-.138l.012.138.13-.13h-.002l-.064.24.067.004.116-.004-.003-.11.014-.294-.08.265-.195-.414.12-.215c-.01-.195-.172-.156-.03-.248l-.036-.173.06.025-.023-.13.001-.054.05-.003.077-.02-.084-.072-.132.008-.004.14q-.071.07-.138.14c-.01-.09.012-.122.033-.14l.007-.24.225-.012.023.025c.055.036.152-.029.197.003.015.01-.108.065-.059.106.008.008.208.155.317.095-.008-.03-.023-.066-.033-.098.144-.044.255.093.245.142.075-.049.192-.082.195-.134l.12-.04c-.007.129.159.053.135-.049q-.104.033-.209.059c.016-.14-.21-.139.247-.171.104.032-.146.043-.064.065.063-.006.12-.027.176-.045a.7.7 0 0 1 .172-.04c.156-.012.023.122.293-.106-.755.173.055-.127.274-.398.084.038.187.029.298-.03.13-.074.27-.219.375-.422-.065.008-.122.127-.183.174-.06.046-.031-.034-.109.02-.044.03-.113.08-.183.122a1 1 0 0 1-.143.069c.014-.025.054-.079.09-.128.06-.088.119-.164.047-.016.162-.096.263-.13.406-.318-.026-.102-.065-.12.04-.312.031.169.22-.024.293.076-.103.14-.153.004-.245.06-.008.006-.065.149-.088.176.166-.072.227-.11.273.04.054-.106.1-.164.057-.199l.098-.031q.024-.05.047-.104c-.096.015-.011-.056-.012-.138l-.001-.004c-.006-.085-.102-.018-.03-.206q-.058.078-.116.148l-.007.008.003-.01q.046-.182.066-.366c-.072.072-.207.215-.268.183.045-.039.06-.226.062-.245.013-.076.043-.025.046-.03.051-.113.055-.216.126-.253-.014-.098.01-.166.017-.267.003-.056-.045-.048-.034-.08.05-.152.091-.09.07-.198a2 2 0 0 0-.068-.223q-.044.077-.092.15l-.044-.13.01-.089.213-.02-.002-.106q.024.088.042.177l.038.014q.02-.14.025-.28l-.075.007c-.006-.205.01-.223-.118-.38a.37.37 0 0 0-.174-.182q-.064-.04-.109-.065l-.008-.099-.083-.015q.007-.07.01-.142c-.066.02-.086.023-.028.155-.092 0-.202-.216-.252-.307-.036-.07.071-.053.071-.065 0-.044-.11-.122-.127-.143l-.05-.06c-.056-.06-.107-.103-.165-.162-.015-.015-.037-.085-.04-.089a3 3 0 0 0-.107-.107c-.449-.294-.091.086-.411-.07l-.084-.04.01.085-.109-.045c-.037-.038.033-.049-.07-.06l.054-.076-.138-.004c-.025-.125-.262-.224-.215-.336.016-.04.217-.023.13-.097-.08-.033-.037.031-.072.024l-.07-.016c-.161-.041-.146-.093-.234-.1l-.07.076-.1-.054-.04.052.1.031c-.062.064-.465-.007-.298-.031.068-.01.177.03.13-.077l-.346-.05.006-.061-.017-.003.073.095c-.016-.116-.08-.018-.122 0v.018l.017.005v.012l-.002-.001-.027-.008v-.026l-.003-.104q.03-.022.058-.045c-.03-.001-.102-.02-.075-.126.017-.068.094.039.084-.09-.048.01-.106.056-.122-.088.05-.014.096-.034.148-.045-.048-.18.03-.26-.026-.47-.036-.134-.16-.317.032-.403.005-.097-.043-.066-.054-.095-.05-.136.04-.238.046-.263.035-.162.003-.234.046-.366-.036.007-.07.01-.104.017.053.12.05.182.04.351l-.023-.17-.086.027c.114.524-.067.402-.106-.038l.16-.114c-.08-.254-.01-.373.007-.66.002-.034-.029-.159-.03-.212l-.001.003c-.05-.033-.074.012-.12.017l-.016-.087c.034-.065.063-.042.054-.169l-.103.051c-.001-.14.036-.23.02-.36l.04.065c.024-.213.146-.137.16-.18v-.01l.011.002c.013.007.04.005.096-.008l.028.061-.13-.02.028-.024.007.131.075.005-.011-.136-.112.092q.072.007.14.018l-.144.006.14-.116.014.06.007-.06-.165.137q.122.038.237.086c-.08-.118.06-.09.061-.183.166.133.253.266.518.374.051.023.073-.047.143.118.038-.105.225.012.276-.07a2 2 0 0 0-.146-.125c.03.072-.027.143-.118.1-.114-.056-.235-.204-.28-.112a2 2 0 0 0-.117-.076q.042-.022.086-.041c-.14-.03-.212-.07-.255-.153q.246.063.474.191l-.057-.053c.146.02.068-.117.285.033l-.06.066c.125-.007.308.19.317.067.035.08.03.104.098.11.08.216.057.37-.066.364q.077.078.146.164.012-.075.018-.152.091.174.154.357c-.073.039-.115-.218-.157-.12-.008.019.048.068.046.088-.023.204-.061-.088-.109-.01.072.257-.104.088.088.407l-.065.045c.008.04.019.064.031.083l.019.08.076-.003c.043-.016.063-.044.135-.05.069-.007.154.09.23.024.013-.012-.114-.131.153-.126.207.004.12.088.232.118s.368-.087.443.045c-.058-.017-.133-.027-.198-.041l-.078.077c.109-.025.22-.01.311-.025l.153-.004-.037-.141a.24.24 0 0 0-.051-.083c.044-.22-.109-.414-.191-.324.033.058.057-.023.055.073l-.064.047c-.039-.147-.075-.248.02-.205l-.018-.07-.16.041-.044-.072.001-.1c.095.009.127.077.081-.167l-.083.031c-.045-.199.02-.237-.104-.464.187.128.065.308.253.22q.014.079.024.157l.092-.013c-.118-.26-.51-.55-.512-.768q-.038-.014-.078-.026c-.043-.178-.206-.144-.267-.294l-.014-.04c-.007-.02.147-.113-.046-.278-.01.02-.03.05-.045.074a3 3 0 0 0-.097-.133l-.06.03q.1.09.19.19a3 3 0 0 0-.182-.128c.055.085.085.113.008.117a3 3 0 0 0-.197-.139l-.043.02q.014.081.022.162c-.14-.144-.289-.23-.396-.368-.02-.023.09-.033-.098-.064l.02-.074c-.244-.015-.3-.057-.52-.171.137.088.011.021-.034.04-.03.012.072.034.056.05-.017.017-.164.065-.057.1.312-.088.328.118.675.195a3 3 0 0 0-.174-.01l.05.07c-.161-.108-.086-.05-.167-.057a3 3 0 0 1-.315-.047c-.03-.006.011-.033-.054-.054-.045-.014-.179.013-.195-.056-.013-.045.22-.12-.07-.174-.05-.05.09-.013.093-.017.036-.044-.142-.114-.232-.087-.007.003.054.05-.02.055l-.016.001-.022-.003v-.02a.5.5 0 0 1 .071-.37c-.07-.013-.153-.158-.127-.34l-.06-.027.031.084Q4.71.913 4.69.961C4.672.778 4.576.752 4.54.665a.4.4 0 0 1-.03-.113l.327.326c-.095.007-.05-.088 0-.155L4.664.552A.3.3 0 0 1 4.719.6l-.056.115.073-.013q0-.101.01-.151l.09.09C4.64.605 4.884.485 4.69.446c-.058.12-.225.132-.438.056l-.071.001c-.004.018-.004.045-.01.056a.4.4 0 0 1-.13-.01c-.04.145-.16.178-.174.198-.078.108.03.192.03.223.004.134-.043.173-.023.3.022.138.059.044.091.086.02.026.028.097.043.148l.03-.032A.2.2 0 0 0 4 1.49q.017-.025.036-.049l-.059.063-.02-.017q0 .008-.003.017l.08-.086a1.5 1.5 0 0 0-.42-.013c-.153.19-.368-.03-.252.167.154-.023.244-.013.332.029q-.144.035-.285.08c-.034-.016-.06-.034-.1-.049-.058.069-.227.1-.285.14a1 1 0 0 0-.118.091c-.11.11-.075.125-.332.133.156-.103.146-.164.29-.232l.05-.02a.14.14 0 0 0-.063-.01c-.046 0-.083.008-.056-.05-.183.1-.097.123-.145.202-.04.067-.154.138-.119.181l-.08-.055q-.164.104-.314.23.033-.09.075-.178l-.125.052c-.056.081-.136.16-.216.238-.203.197-.39.408-.209.453-.08.13-.113.13-.196.18l.033.051c-.065.078-.037.177-.09.247-.033.046-.072.06-.072.08q-.002.014.049.042-.075.057-.142.125.018.06.04.119a3 3 0 0 0-.08.141c.042.04-.02.236.005.33-.066.078-.248.06-.227.276l.134-.01-.031.14-.044.009.014-.073-.074.063.006.01q.051.106.108.207a4 4 0 0 1 .079-.292q.01.046.013.085c.006.08-.003.146.028.222-.056.094-.093.065-.162.03l.025.104C1.01 4.876.973 4.94.967 4.73l-.054.046c.005.034-.01.058 0 .095.028.104.155.167.194.155.021-.006-.03-.1 0-.099.075.004.063.223.107-.097.056.1.022.125.024.24l.07-.036a3 3 0 0 0-.008.158c-.142-.053-.1.363-.287.018q.022.168.065.334l-.058-.057A3 3 0 0 1 1 5.333q-.015.096-.022.197a.44.44 0 0 0 .215.208l-.02-.086c-.02-.058-.05-.04-.088-.13.035-.007.065-.022.103-.023-.021.036-.012.09.01.144.029.071.08.137.095.161.078.127-.04.057.008.147.05.091.153.162.15.272.03-.026.058-.057.083-.084.107.109.055.115.06.132a.5.5 0 0 0 .127.191c.112.097.24.139.413.234l-.076-.088c.23.04.087-.01-.05-.137.14.105.263.091.378.129s.285.158.345.215c-.18-.026-.338-.137-.51-.224-.002.047 0 .087-.003.138.148-.016.182.065.213.093.091.082.119.013.151.114l.024-.072.106.055c.184.087.372.17.522.13q-.012.097-.02.198c.114-.017.184.056.27.07.087.012.07-.048.172-.04.019 0 .048.043.098.03.052-.01.26-.145.242.014l.043.011a3 3 0 0 0-.014.202l-.022-.208.028.036-.038-.005.032.03-.047-.061-.095.171.103.027c.042.189-.014.325 0 .516.002.032.07-.043.052.098-.017.14-.144.246-.095.486.003.012.1.083.033.17-.016.02-.038-.063-.058-.018s-.037.246-.085.261c.017-.002.035-.014.052-.02l.024.103-.089.01c.07.197.182.3.145.591l.13-.246-.092-.067.037-.404-.104-.066.013-.107.075.027-.018-.212c.147.143-.013.4.11.382l-.057.095c.06.014.042.079.033.193l.088-.08c-.042.111-.037.308-.053.423-.008.05-.05 0-.056.015-.027.077.05.223.043.254-.035.184-.179.303-.084.503.023-.206.013-.094.066-.167.016-.023.05-.29.035.044-.002.04-.1.646-.177.447.024.098.052.175.078.265-.068.075-.09.115-.088.134l.112-.095c-.02 0-.02.032-.012.072l-.027.023a1 1 0 0 0 .107-.054v.054l-.003.102-.095-.019-.054-.009c.094-.09-.292-.176-.437-.177-.05.002.062.078-.046.058a3 3 0 0 1-.145-.085c.047.095-.109.057-.137.12-.07-.101-.073-.254.007-.292a2 2 0 0 1-.253-.046q.035.053.073.103c-.185-.147-.456-.286-.48-.421a.1.1 0 0 1 .008-.058l-.073-.075-.078.023a2 2 0 0 1-.206-.442c.077.12.122.13.18.266a2 2 0 0 1-.016-.185c-.166-.149-.24-.164-.308-.493a2 2 0 0 1 .019-.282c.023-.042.072.01.084-.009.03-.053.114-.333.132-.327.095.031.149.266.23.488.078.225.193.428.255.506q.078.101.172.189c.32.292.722.469 1.174.541l-.618.524c-.005-1.28.02-2.553.037-3.828l.376.48A13 13 0 0 1 2.54 7.37l-.014-.005a4.5 4.5 0 0 1-1.041-.602l-.016-.014-.01-.008c-.026-.023-.033.008-.045-.002-.075-.058-.108-.156-.13-.183-.047-.057-.05 0-.085-.041a2.3 2.3 0 0 1-.411-.713 3.5 3.5 0 0 1-.176-.774c-.004-.033.032-.003.02-.06-.006-.03-.063-.12-.066-.188a3 3 0 0 1-.004-.242c.004-.143.017-.284.035-.448a4 4 0 0 1 .1-.502c.017-.068.017-.145.04-.212.031-.095.068-.06.076-.073.035-.058-.008-.085.018-.144l.005-.01c.044-.09.075-.087.135-.214.043-.094.14-.317.213-.432.121-.137.256-.296.397-.44a5 5 0 0 1 .297-.282c.132-.112.174-.08.231-.12.202-.136.339-.276.55-.372l.007-.003c.28-.12.55-.157.835-.209.046-.008.027-.048.073-.057a4 4 0 0 1 .43-.06l-.508.545q0-.052.002-.097c.007-.15.069-.204.056-.35-.004-.043-.058-.056-.065-.128-.011-.114.037-.24.042-.32.003-.037-.002-.05-.01-.058L3.508.048l.534-.016c.015-.014.006-.036.104-.031.006 0 .028.04.06.038.093-.005.083-.037.219-.034.013 0 .192.039.21.039.052 0 .129.003.202.006l.486-.014.015.516a2 2 0 0 0 0 .177c.03.222.09.047-.04.236.031.084.063.166.094.254-.029-.059-.07.18-.068.197.011.07.03.084.044.103L4.901.992c.022-.012.05-.019.147 0-.276.077.249.05.366.084.555.121 1.05.385 1.493.78l.177.16c.105.1.212.212.29.316.03.039-.014.026.01.06s.022-.022.049.018c.164.251.221.476.4.683-.004.016-.012.019-.014.043.155.17.209.589.236.735.042.206.09.266.12.396l.155.6-.649.02-.047-.002c-.209-.012-.521-.098-.382.045-.143.004-.28.005-.425-.008-.016-.001-.005-.038-.011-.038-.04-.006-.054.027-.081.028-.075.004.047-.035-.06-.024-.053.006-.085.032-.222.035l-.428.012-.104-.448-.004-.018c-.135-.67-.51-1.123-1.179-1.24l.632-.525-.002.447c0 .066.034.023.032.106-.008.288-.067.803-.059 1.052.008.248.06.192.081.347.004.03-.025.006-.025.033-.003.183-.049.4-.056.548-.004.098.042.09.045.158.005.101-.042.205-.043.26-.006.23.025.395.016.602l-.389-.505.06.02-.016-.035.812.221-.03-.037.053.017c.31.1.233.168.27-.033l.09.007c-.046.1.144.253.376.397l.007.001-.014-.006c.04.003.188-.013.122.083l.12-.026q.059.096.108.193l.093.04c.018-.018.029-.041.051-.055.11.067.284.225.389.327l.067.063c.237.21.486.438.546.682.065.097.05-.028.13.128l-.033.072-.005-.01-.006.014c.168.085.127.15.176.35.03.136.078.216.1.345.005.032-.027.034-.022.055.019.072.088.275.091.327q.015.147.016.283a3.3 3.3 0 0 1-.135 1c-.014.047.033-.005.018.043-.024.077-.057.017-.073.061-.046.121.004.14-.063.312l-.025.06.005-.011a3.2 3.2 0 0 1-.79 1.112q-.185.164-.369.29c-.015.012.003.036-.014.048-.112.08-.251.116-.357.174-.154.084-.264.17-.413.239l-.07.029c-.361.136-.7.194-1.08.245a7 7 0 0 1-.277.03l.472-.512.002.593q0 .295.005.591l.015.507-.536.015q-.398.006-.795.018l-.523.015-.016-.555c-.01-.394-.023-.789-.03-1.184l.512.566c-.572-.047-1.165-.189-1.697-.484-.036-.02-.009-.036-.02-.04-.11-.045-.137-.021-.135-.107-.136-.064-.208-.041-.356-.152-.078-.06.033-.085-.124-.151-.133-.064-.06.075-.313-.223l-.033-.041c-.008-.01-.01-.088-.08-.148-.07-.062-.032.048-.183-.122-.357-.406-.596-1.049-.731-1.616C.3 9.742.208 9.4.189 9.333c-.043-.13-.08-.097-.106-.27a1 1 0 0 1-.006-.095L0 8.236l.777-.023c.086.009.169.033.276.026.016 0 .044-.047.15-.04m6.145-4.34c-.053-.012-.224-.005-.236-.174-.002-.017.137.02.12-.073.045.08.08.164.116.247M1.971 9.262l-.399-.025.275-.06zm5.092-1.72a3 3 0 0 0-.326-.197l.06-.013a3 3 0 0 1 .278.141zm.691.765c.012.086-.026.077-.041.13a.4.4 0 0 0 .009.088q.025-.019.05-.041c.103.186-.017.564-.166.124l.078.003c-.054-.221-.123-.482.07-.304M6.21 2.292c-.213-.05-.265-.064-.46-.22l.125-.018q.039.06.073.12l.058-.052q.108.08.204.17M4.2 12.785c.165-.062.07-.044.107.133.012.062.041.002.046.04.026.207-.084.223-.141.177zM.935 9.212c.039-.01.06.067.086-.027q.012.101.03.203l-.02-.058-.033.06c.05.016.027.043.026.117l.133-.086q0 .124.01.249l-.036.011.069.078-.036.036.064.097c-.03.021-.071-.052-.018.084a3 3 0 0 1-.145-.098 4.4 4.4 0 0 1-.13-.666m3.691 4.141q.003.085 0 .126l.21-.21c-.097-.007-.045-.037 0-.098l-.308.308-.002-.001zm.073-9.581-.164-.225c-.031-.152.07-.303.11-.19.047.138-.006.281.054.415m1.89.46c-.024-.196.086-.035.133.002a.17.17 0 0 0-.03.097l-.238-.195c.041.01.092.01.156.014a.6.6 0 0 0-.156.034l.191.157c-.028-.053-.055-.092-.057-.11M5.264 6.579c.072.017.147.021.207.057-.033.046-.15-.035-.078.065l-.138-.032c.037-.024.005-.058.009-.09m.84 5.132c.148.003.163-.034.26-.136.043.035-.062.19-.152.25zm-1.817-1.675c-.066-.035-.074-.293-.055-.422l.03.046zm-.305-8.848c-.062-.061-.082.12-.058-.1.016-.146.02-.178.025-.313.079.048.107.322.123-.055 0-.005-.047.004-.04-.056.001-.014.025-.053.04-.112L4.04.584l.056.01c.03.004.25.016-.05.017.007.046-.003.093-.006.138l.2-.197h.026c.015.118-.093.208-.09.331.004.185.113.278-.03.314-.035-.155-.036-.42.05-.456.001-.15-.07-.192-.104-.072.044.518-.105.142-.048.595.02.005.041.024.06.021-.07.138-.098-.076-.12-.097m.503-.543L4.22.772c0-.069.049-.13.19-.169zm-3 5.205c.04-.008.085.002.126.001-.034.047.347.502.118.303-.04-.029-.146-.277-.243-.304m3.722 6.18q.113.02.228.033-.16.06-.325.107.05-.07.097-.14m-.195-9.36c-.032-.01.088-.033-.042-.056.103-.01.201-.01.307-.005l.058.1.082-.016-.079.08c-.122-.13-.189-.06-.326-.103m.69 3.752c.007.08-.215.068-.02.133l.01.003-.012.008c-.053.031-.124.036-.24.01l-.046-.072c-.016.049-.053.059-.132.076-.19-.047-.175-.061-.199-.155.189.1.214.026.363.018.102-.005.221.041.276-.02M1.258 5.245c.096.122.118-.014.122.236l-.061-.03a2 2 0 0 1-.06-.206M6.28 6.918c.038-.114-.05-.256-.149-.088.102.089.09-.037.15.088m.112-2.704c-.064-.247.071-.248.17-.158l-.055.07q.034.063.067.129a3 3 0 0 0-.182-.041m1.232 6.342c.007-.208-.134.162-.122.02.01-.11.142-.202.17-.133zm.272-1.075c-.093.023-.06-.02-.061.131.004.045-.097.37.005.246.025-.12.045-.25.056-.377M7.01 2.964c.033-.026.244.166.24.21-.01.109-.15-.137-.163.01-.068-.27-.264-.238-.063-.35.097.13.014.091-.014.13m-4.835 6.99zc.004.017.029.184.003.178-.078-.18-.026-.162-.153-.306l.046-.048c.036.062.072.088.104.176m-.313-3.55a.2.2 0 0 1-.053-.044c-.04-.047-.08-.114-.116-.151a.5.5 0 0 1 .183.077c.127.078.158.208-.014.118m.698-4.318a.1.1 0 0 1-.027-.016v-.002zm4.11.448c-.033-.122.283.102.333.222-.026.007-.045.019-.08.02-.003-.12-.247-.226-.252-.242M4.736 5.469c.001-.3.218.09.045.106a1 1 0 0 1-.045-.106m2.74-1.188c-.076.066.078.083-.168.072l-.043-.051zM5.02 3.505c-.037-.378-.101-.738-.283-.493l.017.086c.089.005.04.11.038.264.035.022.043.108.073.124.058.031.098-.067.155.019m-1.341 8.782.025-.042q.093-.01.184-.024l-.04.082zM4.929.57c-.167-.034-.136.085-.052.328zM7.73 7.78l-.109.094c.107.086.143.042.165-.046zm.377 1.866c.016-.055-.025-.03-.024-.036.035-.137.054-.157.032-.33l-.03-.063c-.1.077-.046.135-.117.293l.108-.08q-.02.137-.05.272l.026.037q.029-.046.055-.093m-5.09 2.43a4 4 0 0 1-.242-.105l-.037.064q.14.026.279.041M4 1.491l-.017.027q0-.016.017-.027M2.21 9.689c-.017-.097-.063-.227-.078-.332-.062.02.017.282.02.385.016.01.064-.013.057-.053m4.074-5.814-.113-.031a2 2 0 0 0-.068-.16l-.068.033c.143.204.049.188.027.322q.113-.079.222-.164M.911 10.274c.09.182.151.229.174.098a4 4 0 0 1-.126-.174q-.025.037-.048.076m.302-6.875c-.033.164-.13.137-.12.31q.061-.12.131-.23zM6.58 1.816c-.044-.076-.247-.02-.373-.228-.062.008-.106.025-.16.038l-.02-.14c-.183-.066-.087.03-.108.066-.008.014-.127-.065-.1-.014.046.084.31.172.272.243-.071-.07-.252-.126-.222-.056.03.075.227.065.298.165-.075-.19.195.015.166.118.198.054.078-.08-.098-.183.144.002-.031-.06-.029-.127.138.024.486.326.374.118m-1.53 3.26c-.005-.128.037-.33-.025-.417-.036-.052-.064.15-.121.01.005.126.028.155.077.133L5 4.888l-.03.04.062.045-.012.091q.015.008.03.012M3.058 7.12l-.103-.033v.07c-.009-.04-.15-.151-.231-.142-.033.004-.003.066-.072.064a.3.3 0 0 1-.07-.017l.061.023c.09.03.173.054.258.078l-.047.047.1.05zm4.693.517c-.106-.087-.148-.107-.164-.022q.075.033.15.071zM2.9 1.525c-.164.318.346-.027.218-.064-.007-.003-.185.078-.218.064m3.43 2.752a3 3 0 0 0-.061-.197l-.07.071q.066.06.131.126m-5.09 6.834c-.008.105.112.29.235.316a3 3 0 0 1-.087-.138 3 3 0 0 0 .224.206c.027-.024.024-.046.006-.071-.03-.04-.098-.092-.154-.181-.016-.024-.03-.224-.13-.22-.023 0 .077.153-.04.082.03.047.06.085.092.127l-.043.051a3 3 0 0 1-.103-.172m3.801-6.784c.005-.177-.031-.198-.096-.235l.022.246zM2.55 12.198c.09.053.071-.013.113-.006.159.027.245.098.399.122l-.037.02c.694.23.346.03-.067-.082l-.01-.065c-.19-.03-.366-.077-.398.011M4.3.318c-.008-.012.06-.09-.066-.054-.1.114.063.058.104.101l-.102.033c.203.032.232.005.158-.078C4.39.314 4.31.33 4.301.318m-.409.909c-.006.093.069.104.136.09l-.176.188c-.009-.053-.037-.103-.06-.099-.002.035.025.062.014.099l.219-.235h-.002c-.041-.01-.055-.048-.13-.043m3.633 3.4c.008.002.083.072.076.017-.094-.13-.281-.047-.249-.001.063-.002.104-.022.173-.015M.66 9.998c-.005.004.03.207.065.223.036.01.069.01.103.014C.762 10.14.72 9.92.66 9.996m3.593.377c-.065.021-.022-.05-.12-.003l-.02-.03.108-.007zm.451.018c-.103-.012-.13-.05-.225-.01q.052.006.106.01l-.082.044.04.016-.184.02.027-.018c-.05-.023-.063-.044-.072-.075l-.044.008.074-.048.074.042c.096-.02.042-.056.022-.075-.027-.026.019-.02 0-.039-.003-.003-.04-.003-.04-.01-.003-.03.016-.088.1-.054-.01.05.056.092.032.141.096-.013.13.013.172.048m-.308-.913c.047.015.028.046-.004.067-.007.004-.07.015-.067 0 .004-.025.102-.036.036-.05q.018-.007.035-.017m-.005-.053c.024-.015.098-.008.078.01-.009.009-.067-.007-.008.021l-.133.017-.002-.02c.076.005.04-.013.065-.028m.067.752c-.068-.002-.068.008-.115.024l.007-.047zm-.01.371.032.016-.073.009.069.055c-.075-.002-.063-.035-.115-.053q.034-.04.129-.042zM6.15 7.994l.053-.038-.005-.038c-.072.058-.026-.007-.055-.02-.089-.04-.138.095-.105-.124.054.044.081-.052.158-.09-.023.052-.126.136-.117.174a.6.6 0 0 1 .212-.04l.013-.027-.032-.001.07-.045c-.046.04 0 .033-.044.084-.02.023-.056.048-.08.067l.022.073-.069.038zm-.762 3.488c.01-.074.052-.096.097-.027q-.048.015-.097.027m-.846-.95-.036.008-.066-.034.103-.007zm-.039-.74c.003.01.001.01-.003.02-.002.005-.022.04-.049.036v-.054zm-.015.205c-.004.006-.012.012-.014.019-.042-.024.033-.027.012-.049-.021-.02-.063-.034.04-.052.015.007.037.014.055.02-.04.031-.002.04.039.063zm1.408-2.396c-.028.043-.013-.005-.013-.006-.072.018.019-.023-.028-.053l.038-.025zm-1.364.598-.045.001c.004-.029-.055-.036-.002-.06zm.08 1.447c.027.033.04.056-.005.087-.003.002-.034-.006-.042-.004l.018.02-.075.002.021-.055-.043.009-.022-.047.122.016zm.082-1.93c-.017.004-.044-.005-.058.003-.013.008.017.022-.029.019l-.02-.033c-.082.035-.007.07-.109.07.027-.033.014-.06-.014-.093.08.001.15.034.226.013zm.858 3.287c-.006.02.027.065-.02.09a2 2 0 0 1-.181.027c-.067 0-.076-.025-.12.001q0-.013-.003-.026l-.134.004.02.033-.044.002c0-.04-.058-.016-.11-.037l-.081.057q.004-.018.01-.033c-.076-.002-.058.021-.072.025-.08.022-.04-.09-.15-.099l-.036.055-.041-.016c.076-.041.103-.088.15-.136l-.01-.013-.102.004-.012-.02c.113.02.111-.008.18-.04.04.017.016.038.09.037-.057-.06.023-.129-.041-.187-.016-.014-.111-.014-.102-.047.01 0 .029 0 .043.002-.046-.059-.073-.094-.027-.155l-.102.01.051.04c-.056.008-.081-.005-.08.034 0 .03.025.012.041.02.023.012-.022.023.004.035.02.01.066 0 .054.024l-.184-.03.041-.019.049.019-.087-.065c.088.007.055-.016.044-.029-.016-.02.044-.002.034-.015s-.077-.027-.062-.05c.038.012.073-.005.11-.002.035.004.043.028.082.005-.03-.046-.166.003-.188-.027-.027-.037.196-.046.243-.035.038.008.03.038.068.047.068-.053-.066-.054-.092-.063-.095-.033.159-.01.067-.05l.136.002q-.015-.008-.027-.02c-.093.025-.089.005-.089-.005 0-.016-.045.008-.057.004-.031-.011-.017-.03-.058-.018l.057-.016c-.024-.018-.222-.062-.182-.02-.074-.005-.038-.018-.027-.029.011-.01-.036-.01-.027-.02.034-.036.115-.012.178-.006-.044-.049-.072-.001-.101-.071-.052-.007-.106.025-.136-.002q.136-.007.183-.063l-.062-.012c.082-.02.168-.01.066-.05.188.022.067.007.144-.028.015-.007.054.01.074 0 .009-.005-.02-.016.002-.027.011-.005.084-.03.05-.048-.092.013-.169-.02-.244.008.018-.052-.025-.089.099-.03l.082-.04-.065-.028c.075-.001.096 0 .083-.037l.053.048q.022.002.046.002c-.03-.02-.042-.074-.061-.087-.02-.014-.026.012-.045.008-.159-.032-.042-.03-.069-.052-.016-.014-.034.018-.04.011-.026-.026.059-.039.06-.062l-.145.024c.002-.024.003-.052-.013-.075-.006-.01-.041-.002-.044-.004a.1.1 0 0 1-.032-.04c0-.024.05-.025.052-.048l.012.027.24.012.018-.068-.08.05-.195-.078.12-.04c-.01-.037-.172-.03-.03-.047l-.036-.033.06.005-.037-.04-.216.042c-.016-.026.045-.027.06-.03.04-.01-.014-.03.023-.039.013-.002.053.023.099.014.009-.002.178-.035.139-.057l-.102.003c-.018-.029.142-.044.186-.04-.031-.015-.034-.038-.083-.04q0-.013-.003-.024c.12.008.097-.025-.005-.027l-.008.04c-.126-.01-.202.031-.085-.054.065-.016-.01.029.04.016.028-.024.005-.045.05-.067.057-.028.112.006.04-.058-.182.14-.123-.019-.18-.085.18-.018.236-.074.183-.15-.05.007-.024.032-.04.045-.017.014-.047 0-.07.017s-.055.054-.09.071c-.028-.014-.095-.088-.015-.04.05-.036.1-.053.11-.097-.078-.014-.127-.013-.129-.057.108.026.183-.024.295-.013-.026.031-.135.014-.187.032-.005.002.023.03.02.038a.44.44 0 0 1 .25-.022c-.01-.02.005-.033-.05-.035l.072-.013-.003-.02c-.083.01-.032-.01-.07-.023s-.104.005-.105-.032l-.054.036-.065-.072c-.051.016-.127.053-.194.052.025-.011-.02-.049-.022-.053-.006-.016.036-.007.037-.009.02-.025.006-.045.07-.055-.029-.019-.012-.033-.014-.053 0-.011-.048-.009-.039-.015.06-.043.121-.002.005-.085l-.1.03-.037-.028.018-.019h.214l.011-.02.022.035.037.003.059-.052-.075-.001c.035-.04.056-.04-.013-.078.001-.029-.102-.052-.146-.069l.042-.018-.062-.011.086-.023c-.065-.004-.086-.007-.108.023-.081-.01-.046-.062-.019-.084.021-.016.089.002.097 0 .028-.007.004-.033.008-.039.02-.023.016-.04.031-.061.003-.004.046-.016.047-.017.008-.008.029-.026.03-.029.031-.11-.155.008-.135-.095l-.073.009-.005-.024c.02-.01.058.002.028-.017l.09.004-.048-.026c.104-.014.128-.064.251-.06.042.001.085.037.13.018.008-.015-.042-.005-.044-.011-.018-.045.052-.043.033-.06l-.091-.01.026-.02-.06-.006-.004.02c-.078-.008-.113-.085-.047-.055.027.011.016.033.108.02l-.04-.066.06-.002q-.004-.008-.014-.01l-.111.082a.1.1 0 0 0 .015-.051l.043-.032c-.024.003-.05.008-.068.008l-.002-.008.008-.053.039.018.012.002-.009.058c.01-.03.033-.097.045-.066.007.02-.034.089-.008.086.012-.047.02-.105.051-.112l-.035.144c.046-.036.037.043.092.001.034-.026.106-.134.061.054.016.011.026-.036.034-.045.04-.04.03.053.032.06.018.042.04.016.05.065l.031-.1c-.039.043-.049.037-.075.016l.037-.01.024-.084c-.13.076-.052-.087.04-.097l-.031.159c.072-.06.07.013.115.048.005.004.038-.017.048-.015.023-.046.024-.07.038-.114l.022-.01c0 .037-.015.062.011.063l.028-.1c.025.009.028.05.058.044l-.026.032c.038.05-.076.223-.002.144l-.012.052-.05-.006-.029.07.057-.002-.054.032.043.056c.014-.093.044-.093.073-.18.004.054 0 .115.017.143.013.016.028.02.054.006.015-.008.034-.069.033.014.031-.096.087-.124.12-.214l-.037-.002c-.001.036-.035.121-.062.14-.035.023-.044-.049-.079.047l-.016-.016-.007-.006.021-.035q.01-.015.018-.031l-.007.005q-.048.03-.03-.06l.102-.006-.008-.017c.046-.052.045-.119.094-.114l-.034.082c.045-.067.09-.048.112-.138.002.032-.002.05.025.008a.4.4 0 0 1-.063.259l.057-.029.016-.088.064.037c-.037.077-.053.003-.075.077-.004.015.022-.009.021 0-.011.099-.03.014-.052.083.035.042-.056.129.05.072l-.03.067c.019.013.044-.037.067-.036.014.001-.022.092.024.043.008-.01.048-.124.09-.093.032.025-.028.087-.027.123 0 .035.106-.033.04.082.002-.02-.004-.035-.005-.054l-.055.056c.04-.013.04.034.09-.004-.029.095.054.05.113-.038-.02.004-.038.048-.033.015l.042-.062c.014.014.026.025.016.044a.1.1 0 0 1-.022.026l-.014.014.001.002.005.01.107-.124.025-.002-.008.04c-.064.059-.075.053-.073.119l.06-.066c.004.055-.045.107-.01.138-.098.049.015-.096-.128.054l.01-.047-.063.064c.04.014.237-.066.161.046l.043-.022c-.04.074.105-.029.045.06-.007.01-.142.107-.116.132l.067-.053q-.008.023-.018.044l.051-.032-.006-.048.038.017c.017-.032.013-.039.061-.061l.034.03.036-.019q.043-.042.085-.087c-.002.054.016.086-.035.153-.009.012-.063.023-.005.029l-.064.04c.088-.004.075.023.045.086.03-.043.019-.02.034-.017h.01q.01-.004.012-.01c.002-.007.003-.014.014-.018.007-.003.024-.006.043-.011.025-.008.054-.018.057-.032q.003.001.002-.001c-.173.026-.005-.081-.112-.104l.072-.004.029-.036c-.006.053.001.024.032.027a.15.15 0 0 1 .082.038c.006.005-.03.016-.027.03q.002.005.012.008c.014.003.037.012-.003.037-.037.022-.16.035-.134.088-.033.028-.033-.003-.037-.001-.047.018-.066.062-.026.061.004 0 .034-.027.053-.02.046.017.013.053-.037.092.067-.023.156-.022.142.022l.06-.012-.036-.008.029-.03c.028.032.122.01.161.021.135.037-.124.058-.168.06l.048-.038-.07.022c.023.087-.15.054-.184.105.12-.018.138.013.07.065l.004.013.055-.008c.028.046-.154.079-.17.085-.076.027.032.028.034.034.006.023-.04.034-.019.054.024.022.06.003.093.009.026.004.032.023.059.03l-.066-.006c-.029.027-.057.048-.064.077.086.015.05.033.03.042-.018.008-.024.012.08.007l.004-.007c.016-.024.04-.04.092-.055l.02.055.002.003-.073.016c.052.015.03.048.044.061.069.063.157.051.006.1-.011-.042-.083-.046-.072-.084-.051.007-.041.026-.102.011.014.037.069.028.116.046.042.015.042.041.097.043l-.09.001-.005.074-.09-.04-.038.02c.091.07-.1.142.143.166.002.03-.029.03-.077.036l.053.015c-.023.015.042.044.02.057-.02.013-.085.002.022.03-.034.003-.062.008-.093.01l.067.038-.046.02c.05.02.016.053.044.081-.06 0-.229-.057-.21-.012l.126.041-.035.017-.042-.014.018-.008-.073-.015q.045.037.087.077.049-.011.098-.025c.022.035-.014.04.011.073-.064-.006-.093-.026-.153-.057l.008.02v.004q-.042-.018-.067-.029c-.017-.011-.024-.02-.014-.037L6.4 10.03c.001.006-.015.003-.01.012l.003.005a.5.5 0 0 0 .149.092c.02.008-.011-.025.017-.013.065.028.024.056.102.03q.003.001.01-.002l.01.013c.018.02-.01.016-.03.031l.07.023-.044.019c-.11-.063-.184-.016-.259-.12l-.039.043-.03-.027.029-.014-.077-.004c.018.032.054.06.099.095.049-.006-.005-.023-.006-.047l.094.047c-.07-.021-.04.035-.04.045-.004.029-.057-.024-.067-.01s.017.054-.051.03l.102.058c-.003.031-.04.002-.047 0-.11-.016-.05.05-.074.098l.04.005c.044.083.04.047.084.033-.027.023.019.082.02.116 0 .034-.057.044-.09.037-.01-.058.037-.067.05-.107l-.102-.062c.053.07 0 .045-.013.043-.04-.005.017.042-.052 0l.058.049c-.039.028-.105.027-.056.12l-.141-.135c.02.048-.025.021-.028.04q0 .006.005.017c.01.019.031.043.031.064 0 .005-.027-.016-.017.008s.098.187-.004.064q-.022.013-.043.022l.02-.049-.1-.07.058.086c-.003.055-.056.023-.078.053-.003.005.045.054.014.054-.033 0-.113-.1-.125-.036 0 .003.034.095-.011.043-.01-.012-.008-.039-.025-.053-.016-.014-.055-.012-.078-.054l.026.045-.005.03-.04-.08c0 .076.029.187-.035.174q.045.052.094.1l-.026-.088h.084l-.037-.097q.012 0 .023.003l.03.068.027-.035c.047.143-.072.024-.013.132l-.042-.043c.024.055.005.045-.02.045l.052.074c-.038-.028-.071-.009-.098-.015-.012-.002-.02-.046-.025-.05-.023-.019-.021.062-.029.059-.047-.02-.115-.148-.12-.047.045.01.022.007.052.052.01.014.071.029.004.036a.2.2 0 0 1-.038-.015c-.044-.021-.106-.068-.098-.125-.01.028-.015.06-.024.089-.095-.18-.03-.004.012.092l-.02.007c-.016-.108-.089-.095-.1-.036-.005.02.027.048.011.069l-.036-.018c.03.063.008.096.023.164a.8.8 0 0 1-.08-.255l-.027.095.032.044c-.058-.032-.106.077-.14-.066l-.02.006.006.075-.098-.051c.024-.02.025-.055.057-.03l-.044-.08c-.03.08-.03.132-.095.116l-.058-.067c-.01-.027-.003-.07-.007-.084-.013-.04-.072-.138-.072-.153 0-.188.158-.207.198-.224.135-.052.262-.09.385-.13.169-.052.319-.104.444-.197a.6.6 0 0 0 .164-.181c.002-.003-.023-.017-.023-.02 0-.01.04.005.044.003.007-.005-.029-.022-.026-.027.028-.046.074-.083.09-.14 0-.004.029.012.026.003l-.012-.011.004-.01c-.013-.01-.03-.024-.029-.03.008-.025.03-.04.039-.069.004-.015.015-.037.02-.055 0-.008-.019-.022-.018-.03.002-.011.046.002.05 0 .013-.004-.035-.017-.033-.024.006-.012.039-.006.04-.024 0-.013-.02-.047-.025-.064.044-.031.036-.084.026-.121-.005-.023.041-.02.042-.03.002-.032-.057-.06-.058-.09 0-.03.022-.057.034-.086a.1.1 0 0 0 .008-.028c0-.006-.043-.004-.044-.01-.005-.022-.013-.048-.009-.067.006-.02.067-.034.053-.053-.005-.005-.06-.002-.067-.01-.013-.014.033-.036.037-.047.005-.015-.048.005-.044-.014 0-.001.04-.01.037-.014-.008-.01-.038-.004-.038-.02 0-.002.032-.03.032-.033-.002-.013.004-.04-.005-.045-.035-.016-.086.022.031-.038q-.05.001-.098.005c.029-.004.059-.042.056-.043-.026-.005-.07.023-.068.005.111-.026.013-.028 0-.03l-.005-.01-.002-.002c-.04-.048-.044-.109-.08-.157-.013-.017-.05-.022-.062-.038-.003-.003.02-.019.018-.023-.003-.003-.023.021-.025.016-.011-.029.012-.089-.06-.056q.01-.01.019-.024c-.045.023-.042-.019-.042-.053q0-.02-.003-.031c-.011-.033-.044-.002-.056-.022-.015-.026-.004-.123-.067.007a.07.07 0 0 1-.044-.036c-.001-.003.019-.033.019-.034-.003-.008-.021.02-.025.019-.01-.002.023-.027.005-.025-.01 0-.028.023-.047.013a3 3 0 0 0-.238-.114l-.018-.008-.173-.076c-.01-.004-.016.032-.028.024-.044-.025-.109-.11-.153-.117-.043-.007-.05.045-.083.057-.006.002.007-.024.003-.026-.03-.013-.052-.068-.074-.083-.015-.01-.028.035-.04.034-.019 0-.022-.05-.03-.055-.035-.016-.07 0-.1-.012l.673-.503-.005.02.03-.005-.006.159.028-.008c-.005.062-.105.055.107.05l.023.013c-.11-.002-.19.036-.217.083-.002.004.104.027-.022.025l.08.015-.114.03.017.017.074.002c.004.025-.027.077-.023.097.007.05.074.1.002.138.007.02.056 0 .05.028l-.074.01c.11.023.043.027.02.059-.015.02.012.035.006.055 0 .005-.033.004-.032.008.003.012.048.045.049.053a.6.6 0 0 1-.005.21c-.002.008.03-.001.029.006-.002.013-.051.006-.053.013-.007.02.045.02.047.05.01.094-.03.203-.033.302 0 .003.03.003.03.006.002.022-.039.045-.038.064 0 .033.043.058.042.09 0 .065-.021.122-.023.187 0 .054.003.1.003.16 0 .256.095.518.044.777 0 .007-.028.004-.026.006.011.019.047.02-.028.027.015.025.071.032.067.062-.002.015-.09.004-.044.03.04.024.088-.002.04.069-.002.002-.055.011-.041.026s.052-.002.063.033c.027.084-.02.19-.005.288 0 .006.03.065.043.077.025.022.065.018.075.047.007.023-.038.041-.029.068.001.003.047.008.041.028m.736-3.015c.034-.03.151-.15.15-.084-.001.005-.092.078-.089.106-.023-.005-.04-.015-.06-.021m-1.8 3.16.025-.075.06.051zm.08-3.105-.065-.079.047.008.075.062zm.167.207c-.019.016-.05.012-.081.022-.008.002-.015.013-.016.018l.059-.006c.048.04-.123.116-.192.017l.075.004c-.007-.049.048-.104.155-.055m1.911.022c.096-.006.122.001.105.082l-.073.015.045-.063-.067.036zm-1.97 1.584c-.164.011-.069.008-.106-.026-.013-.011-.042 0-.046-.007-.026-.039.084-.042.14-.033zm.034 1.007c-.04.002-.05-.014-.089.004v-.04q.007.005.012.011l.041-.01c-.046-.005-.019-.01-.004-.024l-.147.012.044-.05h.037l-.048-.018.045-.005-.034-.023c.036-.002.051.014.042-.015l.11.027zm-.085-1.311c.007.048-.019.034-.1.023zm.694-2.01.098-.139c.038-.019.03.087-.004.116-.041.035-.049-.024-.094.023m.629.239c-.021-.04.041-.082.068-.111-.02.059-.005.061.013.08-.022-.008-.078.037-.081.03M4.635 7.63c.002.014.018.027-.001.04-.053-.004-.005-.029-.084-.01l-.004-.028c.033.006.057-.002.09-.002m-.072 1.455c.063-.028.036-.033-.008-.06a.27.27 0 0 1 .156.05zm1.173 2.127c-.015-.063.03-.09.062-.083l.003.03zm.3-3.453-.007-.01q.006.003.007.01m.598 1.37c-.062-.005-.08.029-.06-.012.013-.027.017-.034.019-.058.08-.002.114.048.12-.026 0-.001-.045.007-.04-.005 0-.004.038-.02.046-.04.003-.005.007-.05.017.008q.082-.013.163-.023c.019.022-.085.055-.08.08.008.035.118.046-.023.065-.038-.028-.045-.078.04-.097-.003-.03-.074-.028-.106 0 .057.095-.1.038-.036.118h.06c-.067.03-.098-.008-.12-.01m.12-.225.136.031a.3.3 0 0 1-.173-.007zm-.188 1.448q.046.031.086.065c-.03-.009-.126.089-.116.015.001-.01.089-.03.03-.08M4.62 9.275l.075-.043.048.066zm.897-1.588c-.005-.004.033-.044.008-.045q.04-.034.083-.065l-.013.073.03-.038-.048.095c.002-.081-.037-.004-.06-.02m-.615.015c-.077.005-.122-.037-.135.004q-.075-.01-.08-.044l.057-.012a.3.3 0 0 1-.108-.02c-.003-.037.014-.035.099-.044-.048.04.03.04.075.067.032.018.018.042.092.049m1.726 2.525c.047.054.113.056.027.075l-.04-.03zm-1.99-2.389c.119-.003.211-.029.018-.033-.04.025.07.013-.018.033m1.21.1c-.039-.027.03-.142.08-.192l-.026.07.04-.017zm-1.08.76c-.084-.038-.047.04-.1.014-.042-.021.044-.049.097-.038zm-.024-.216c-.09.006-.064-.003-.048.027.005.008-.029.075.046.047zm1.644-.301c-.03.026-.128.049-.117.03.028-.056.075-.021.115-.096-.012.09.125-.014-.045.136-.028-.016.016-.037.047-.07m-1.35 3.014c.004.001.041.054.04.075-.037-.012-.035-.051-.06.015l-.013-.059c.011-.013.015-.038.034-.031m1.389-.768c-.002-.016.047-.012.053-.027.112.13-.05.094-.053.027m.397-.927-.029.001h-.002zm-.352-1.24c-.03.051-.142.05-.142.02.02-.015.037-.03.061-.046-.036.057.085.016.081.026M5 7.473c.054.019-.082.204-.033.037zm1.108.482c-.05.045-.035.076-.067.04l.021-.047zm-.852-.093c.077-.01.163-.046.186-.232l-.022.01c-.032.083-.034.03-.06.017-.016.032-.034.034-.047.06-.026.053-.023.097-.057.145m-.38 2.153-.045-.003-.051-.034.086.006zM6.558 8.88c.162-.034.127-.052.033-.07zm-1.606-.72-.141.004c.05.025.103.02.166.008zm.02.35c.01-.01-.028-.005-.027-.007.02-.025.037-.029.009-.06l-.031-.011c-.099.014-.045.025-.103.055l.102-.016-.022.05.032.007zm-.14 1.636-.011.05.073.002zm.147.922c-.02-.014-.045 0-.065-.002.007.06.057.038.08.073.001-.011-.006-.065-.015-.07m.813-3.164-.053.076-.025-.023-.033.067c.056-.01.016.051.003.125zm-.8 2.768c-.018-.036-.05-.049-.124-.028l.051.038zm1.576-.839c.02.036-.077.011-.03.053l.066-.031zm-.417-1.216c-.023.027.126-.049.039.042l.1-.042-.095.07c.025.015.059-.024.095-.044.015-.009 0 .023.03 0 .05-.043-.005-.061.06-.103-.012.027.022.042.062.008.044-.039-.054-.014-.024-.056-.09.09-.087.025-.013-.035-.08.015-.086.057-.066.081-.072.025-.023.027-.072.063-.04.004-.052-.064-.116.016m-1.177-.82c.024.002.045.054.08 0 .021-.031-.005-.07.037-.115-.024-.003-.036.017-.048.065l-.02.012.002-.03-.027.056-.012-.017zm1.21 2.766.012-.015-.029-.024-.022-.02c.027.022.091.04.072.005-.01-.017-.069-.052-.06-.078q-.013.025-.023.051l-.04-.044-.022.003q.057.06.112.122M5.046 8.139c-.04-.023-.06-.03-.123-.02l.084.026zm1.426 1.243c.239.054.095-.056.012-.036-.003 0 .015.033-.012.036m-.65-1.375-.037-.013-.033.083zM5.1 10.513c.066-.014.09-.05.018-.068l-.025.028-.025-.053c-.092 0-.039.02-.064.05-.004.005-.118.035-.032.046.018.002.03-.03.08-.008.005-.01.004-.018.006-.027l.066-.002zm.006-2.68c.029.015.045-.019.073-.077l-.05.005zm.015 2.383c.01-.018-.042-.01-.052-.018-.038-.028 0-.047-.024-.074l.03.005c.044-.13-.075-.061-.056.016l-.059.006a.19.19 0 0 0 .16.065M6.44 9c-.012.003-.09.007-.051.02.115-.004.055-.02.096-.035l.035.011c.026-.04-.002-.04-.081-.011-.005.002.013.011.001.015m-.032.22c.167-.003.09-.044.038-.039-.002.006.027.01.014.016-.012.007-.05.01-.052.022m-.491-.976c0 .001-.03.066 0 .02.064-.115-.012-.065-.032-.024.01.004.026-.008.031.004m-.778 2.488c.005 0 .033-.036.007-.04l-.092-.009c.029.02.007.06.085.05m-.515-7.356c.065-.02.022.046.12.002l.02.027-.109.007zm-.452-.016c.103.01.13.046.225.008l-.105-.01.082-.04-.04-.013.184-.018-.028.016c.05.021.064.04.073.069l.043-.008-.074.044-.073-.039c-.096.02-.043.052-.023.07.028.023-.018.018.001.035.003.003.039.003.04.009.002.027-.017.081-.1.05.01-.046-.057-.085-.032-.13-.097.012-.13-.011-.173-.043m.308.837c-.047-.014-.028-.042.005-.061.007-.004.07-.014.067 0-.005.022-.103.033-.036.045zm.006.048c-.024.014-.098.008-.078-.01.008-.006.067.008.007-.018l.133-.016q0 .01.003.02c-.076-.005-.041.01-.065.024m-.068-.69c.069.003.068-.006.116-.021l-.007.043zm.011-.34-.032-.014.073-.009-.069-.05c.075.002.062.032.114.049q-.033.035-.128.038zM2.88 5.645l-.05.042.005.036c.067-.063.025.004.051.014.082.032.13-.102.094.113-.048-.04-.076.056-.148.099.023-.052.12-.142.112-.177a.6.6 0 0 1-.196.056l-.013.027.03-.002-.065.05c.043-.043 0-.032.042-.085.018-.024.052-.052.074-.072l-.02-.068.064-.044zm.623-3.29c-.004.074-.042.098-.09.032zm.83.876.036-.008.067.032-.104.007zm.04.678c-.003-.008-.002-.008.003-.018.002-.004.022-.036.049-.032v.049zm.015-.187c.004-.006.012-.011.014-.017.041.021-.034.024-.012.044.021.02.062.032-.04.048l-.056-.019c.041-.028.003-.035-.038-.057zM3.105 6.014c.027-.043.011.004.012.005.067-.02-.019.023.022.051l-.036.026zm1.24-.642.044-.001c-.003.026.055.033.002.055zm-.08-1.328c-.028-.03-.04-.052.005-.08.003-.002.034.006.041.004q-.007-.009-.017-.018l.074-.002-.02.05.043-.008.022.043-.122-.015zm-.082 1.772c.016-.005.043.004.057-.004.014-.007-.016-.02.03-.017l.019.03c.082-.032.008-.064.11-.065-.027.031-.015.056.013.086-.08-.001-.15-.03-.226-.012zm-.859-3.017c.007-.018-.026-.06.02-.083a2 2 0 0 1 .182-.025c.066 0 .075.024.119 0l.004.024.134-.005-.02-.03.044-.001c0 .036.057.015.11.033l.08-.052q-.003.016-.009.03c.076.002.058-.019.072-.022.08-.02.04.082.15.09l.036-.05.04.015c-.075.038-.102.08-.15.125l.01.012.102-.004.012.018c-.112-.017-.11.007-.18.037-.04-.016-.015-.035-.089-.034.057.054-.023.118.04.171.017.013.112.013.103.044L4.09 3.09c.045.054.073.086.026.141l.103-.01q-.026-.016-.051-.034c.056-.008.081.003.08-.032 0-.029-.025-.011-.042-.02-.023-.01.022-.02-.003-.03-.02-.01-.066 0-.055-.023l.184.028-.04.017-.049-.017.086.06c-.087-.007-.054.014-.044.026.016.018-.044.002-.034.014s.077.025.063.046c-.039-.011-.074.004-.11.001-.035-.003-.043-.025-.082-.004.03.042.166-.003.188.025.027.034-.196.042-.244.032-.038-.008-.03-.035-.067-.043-.068.049.065.05.092.058.095.03-.16.01-.067.046l-.136-.002c.008.006.02.01.027.018.092-.023.088-.004.089.005 0 .015.045-.008.057-.004.03.01.017.027.058.017l-.057.014c.023.017.222.057.182.019.073.004.038.016.027.026s.035.01.027.018c-.035.033-.115.011-.178.006.043.045.072 0 .1.065.052.007.107-.023.137.002-.09.004-.154.022-.183.058l.061.01c-.082.02-.167.01-.065.046-.188-.02-.068-.006-.144.026-.016.007-.055-.009-.074 0-.01.005.02.015-.003.025-.01.005-.083.028-.049.044.091-.012.169.018.244-.008-.019.049.025.082-.1.028l-.081.037.064.026c-.074.001-.095 0-.082.033l-.054-.043-.045-.003c.029.018.041.069.061.081s.025-.011.045-.008c.159.03.041.027.069.048.016.012.033-.017.04-.01.025.024-.06.035-.06.057l.145-.023c-.003.023-.003.048.012.07.006.008.042.002.044.003a.1.1 0 0 1 .032.037c0 .022-.049.022-.052.044l-.012-.025-.24-.01-.017.062.08-.046.194.071-.12.037c.011.034.173.027.031.043l.036.03-.06-.004.037.036.216-.038c.015.024-.045.024-.06.028-.04.01.014.028-.023.035-.013.003-.053-.02-.1-.013-.008.002-.177.033-.138.053l.101-.003c.019.026-.141.04-.186.036.032.015.034.035.083.038l.004.022c-.12-.008-.098.022.005.024l.008-.037c.125.01.201-.028.085.05-.066.015.009-.027-.04-.014-.029.02-.005.04-.05.061-.057.025-.112-.006-.04.053.182-.13.123.017.18.078-.18.017-.237.068-.183.138.05-.007.024-.03.04-.042.017-.013.046.001.07-.015.023-.016.055-.05.09-.066.028.014.095.081.015.037-.05.033-.1.049-.11.09.078.012.126.011.129.051-.109-.023-.184.022-.296.012.026-.028.135-.012.187-.029.005-.002-.022-.028-.02-.034a.5.5 0 0 1-.25.02c.01.018-.004.03.051.032l-.072.012q.002.008.002.018c.084-.01.032.008.07.02s.104-.004.105.03q.029-.015.055-.032l.065.066c.05-.016.127-.05.194-.048-.025.01.02.045.021.048.007.015-.035.007-.036.008-.021.023-.007.042-.07.051.028.017.012.03.013.049.001.01.048.008.04.014-.06.04-.121.002-.005.078l.1-.028.037.026-.018.017h-.214l-.012.018-.021-.032q-.019 0-.038-.003l-.058.048.074.001c-.034.036-.055.037.013.072 0 .026.103.048.147.063l-.042.016.062.011-.086.021c.065.004.085.006.108-.021.081.009.045.057.018.076-.02.015-.088-.001-.096 0-.028.007-.004.031-.009.036-.02.022-.016.037-.03.057-.004.003-.046.014-.048.015l-.029.026c-.032.102.154-.007.135.088l.073-.008.004.021c-.02.01-.057-.002-.027.016l-.09-.003.048.023c-.105.013-.128.059-.252.056-.041-.002-.084-.034-.129-.017-.009.014.041.005.044.01.018.042-.052.04-.033.056l.09.008-.026.02q.03 0 .06.004l.005-.018c.078.007.113.077.046.05-.027-.01-.015-.03-.107-.018l.04.06-.06.002c.013.027.092.003.135.003l.003.018-.058.008c.031 0 .102.003.076.022-.017.01-.088-.006-.085.012l.037-.027h-.003c-.011.046-.02.104-.048.112.012-.048.02-.093.033-.144-.042.038-.034-.04-.085.003-.031.027-.1.137-.056-.051-.014-.01-.024.037-.032.046-.038.042-.026-.05-.029-.057-.015-.041-.037-.015-.045-.063l-.03.1c.037-.045.046-.039.07-.02l-.035.013-.022.083c.121-.08.047.086-.04.099q.014-.08.032-.16c-.068.064-.065-.01-.106-.042-.005-.004-.036.018-.045.016-.023.046-.023.07-.038.114l-.02.01c0-.036.014-.061-.01-.061l-.027.1c-.024-.008-.026-.049-.054-.042l.025-.032c-.035-.05.076-.223.005-.143l.013-.052.046.004.028-.07-.053.005.051-.034-.038-.054c-.016.092-.043.094-.073.18-.003-.08.01-.175-.05-.15l-.009.004c-.014.008-.035.068-.03-.014-.034.095-.087.124-.122.213l.034.001c.003-.035.039-.12.065-.138.015-.01.024-.002.033.003.011.004.022.003.043-.05l.018.02-.038.067q.054-.041.032.054l-.096.006.007.017c-.025.027-.037.058-.05.081-.011.02-.023.034-.044.032l.037-.082c-.046.067-.086.049-.111.138 0-.031.004-.049-.023-.007a.45.45 0 0 1 .072-.256l-.055.03-.018.086-.057-.034c.037-.076.049-.004.072-.077.004-.015-.02.009-.02 0 .015-.097.028-.015.052-.083-.03-.04.057-.129-.045-.07l.031-.067c-.017-.01-.043.039-.064.039-.013 0 .023-.092-.021-.04-.009.008-.049.123-.087.094-.03-.022.027-.086.027-.121s-.1.04-.038-.078c-.001.02.004.035.005.053l.052-.058c-.038.015-.037-.032-.085.01.026-.096-.053-.045-.107.046.018-.005.035-.05.03-.017l-.038.063c-.02-.018-.036-.029.018-.082l-.007-.012-.098.13-.024.006.002-.009-.008-.006.008-.03c.063-.06.073-.054.074-.118l-.06.066c-.001-.053.048-.105.016-.134.095-.05-.019.094.124-.057l-.011.046.063-.064c-.037-.012-.23.073-.153-.037l-.042.023c.042-.072-.102.032-.04-.055.006-.01.14-.108.116-.13l-.067.053.02-.042-.052.032.005.045-.037-.014c-.017.031-.013.037-.061.06l-.031-.027-.036.02q-.044.042-.086.086c.004-.05-.013-.08.039-.146.009-.01.062-.024.005-.027l.064-.04c-.086.007-.074-.018-.042-.078-.034.046-.015.01-.043.017-.019.005-.008.02-.027.027-.019.008-.102.023-.1.046.17-.032.003.076.107.093l-.071.007-.03.036c.008-.051 0-.024-.03-.025a.14.14 0 0 1-.08-.032c-.005-.004.03-.016.027-.03-.002-.007-.036-.008-.03-.023l-.007-.014q.002-.007.024-.019c.015-.008.043-.013.071-.021a.1.1 0 0 0 .06-.02q.014-.018.008-.037c.035-.024.032.004.037.002.047-.015.07-.056.03-.056-.003 0-.035.024-.054.018-.044-.017-.008-.049.043-.085-.067.02-.155.019-.139-.02l-.06.01.035.007-.03.027c-.026-.029-.12-.01-.16-.018-.131-.033.126-.054.17-.055l-.049.035.07-.02c-.02-.08.151-.05.187-.098-.119.017-.137-.011-.068-.06l-.003-.011-.056.007c-.027-.042.156-.074.172-.08.075-.026-.033-.026-.034-.03-.006-.022.04-.032.019-.05-.024-.02-.06-.003-.093-.007-.026-.004-.032-.022-.06-.028l.067.005c.029-.025.057-.045.063-.071-.162-.027.11-.056-.11-.044-.015.027-.04.042-.096.058l-.022-.053.072-.015-.025-.012c-.018-.015-.007-.035-.019-.044-.07-.058-.157-.045-.008-.09.013.037.084.04.074.075.05-.007.04-.025.102-.012-.014-.033-.07-.025-.117-.04-.042-.014-.043-.038-.097-.04l.089-.001q0-.034.004-.068l.091.036.037-.018c-.093-.064.096-.132-.147-.152-.004-.028.027-.027.075-.033q-.025-.008-.053-.014c.022-.014-.044-.04-.023-.052s.086-.003-.022-.027l.092-.011-.07-.035.046-.018c-.05-.018-.019-.049-.048-.075.06 0 .23.052.21.01l-.128-.037.034-.015.042.012-.017.008.073.013-.09-.07-.096.022c-.024-.032.012-.036-.015-.067.063.005.094.024.154.053l-.01-.023c.062.027.102.033.086.061l.055.013c0-.006.015-.003.01-.01a.6.6 0 0 0-.155-.09c-.02-.008.011.023-.017.011-.068-.028-.022-.055-.113-.026-.037-.035-.002-.027.02-.042l-.071-.023.043-.017c.112.06.182.019.26.117l.037-.039.03.026-.027.011.075.006c-.018-.03-.055-.057-.1-.09-.049.004.005.021.007.043q-.047-.02-.095-.046c.071.022.038-.031.039-.04.001-.027.056.023.065.01.008-.013-.02-.05.049-.025l-.103-.058c.002-.03.04 0 .046 0 .107.019.046-.043.067-.089l-.04-.006c-.046-.08-.04-.045-.083-.033.025-.021-.022-.079-.024-.111-.002-.033.054-.041.085-.033.013.056-.032.063-.044.1l.103.063c-.055-.068-.002-.043.01-.041.039.006-.018-.04.05.001L2.72 3.29c.036-.025.1-.021.049-.112q.07.065.141.134c-.023-.046.022-.019.024-.036.002-.013-.02-.036-.03-.058l-.007-.022c0-.005.026.016.016-.008-.01-.023-.104-.182 0-.062.012-.009.027-.013.04-.02l-.016.047.1.068-.062-.084c0-.052.052-.022.07-.051.003-.005-.047-.053-.017-.053s.115.095.121.033c0-.003-.042-.092.006-.043.011.012.012.038.029.05.016.014.052.011.079.05l-.03-.042.003-.029.046.076c-.01-.075-.048-.182.013-.172l-.099-.095.034.086-.078.003.044.094-.022-.002-.035-.066-.02.035c-.06-.137.064-.025-.003-.129l.044.041c-.028-.052-.01-.044.013-.045l-.057-.07c.039.026.068.005.094.01.011.002.023.044.028.047.024.018.013-.061.02-.058.046.016.124.138.116.038-.042-.006-.02-.005-.054-.048-.01-.013-.069-.023-.007-.035.008-.003.144.047.141.131l.013-.089c.105.174.027.003-.02-.09q.008-.005.018-.008c.025.106.09.09.097.03.002-.02-.03-.046-.018-.067l.035.016c-.033-.062-.015-.095-.035-.162a.8.8 0 0 1 .096.249l.017-.095-.033-.043c.056.03.092-.081.135.06l.017-.007-.01-.074.093.047c-.021.02-.02.056-.05.032l.045.079c.022-.082.02-.133.08-.12.003.001.055.06.057.065.01.028.005.07.01.084.014.04.071.136.071.151.007.189-.126.21-.16.228-.26.13-.503.186-.731.353a.5.5 0 0 0-.147.16c-.001.004.023.018.024.02.001.01-.04-.007-.043-.005-.007.004.03.022.027.026-.024.04-.066.072-.079.123 0 .004-.03-.011-.026-.004.001.005.044.03.043.037-.006.024-.027.038-.034.064-.004.014-.014.034-.017.05-.001.008.02.02.018.027-.001.01-.045-.001-.048 0-.014.004.035.016.032.022-.004.012-.037.006-.038.023 0 .012.022.042.028.058-.044.028-.034.076-.024.11.007.021-.04.02-.04.028-.002.03.057.055.059.082 0 .02-.01.037-.02.055-.01.016-.02.032-.02.049 0 .005.042.003.043.008.005.02.014.044.01.062-.006.019-.068.031-.053.049.004.005.059.001.067.009.012.012-.034.034-.038.044-.005.015.049-.005.044.013 0 .001-.04.01-.037.013.007.01.038.004.038.02l-.033.031c.002.012-.005.04.004.044.035.017.087-.02-.032.037q.05 0 .098-.002c-.029.003-.06.04-.057.042.025.006.07-.02.068 0-.087.014-.048.023-.02.028l-.014-.03c.01.001.02.003.022.005.038.042.039.098.072.141.012.014.046.017.057.032.003.003-.02.019-.018.022s.023-.02.025-.016c.01.026-.016.085.053.05q-.009.01-.018.024c.03-.016.036-.003.038.017l-.03-.023c.005.022.004.053.008.064.013.032.045 0 .057.02.017.024.008.121.067-.01q.03.006.045.035c.002.003-.018.033-.018.034.003.008.02-.02.025-.02.01.003-.023.028-.005.026.01-.001.027-.024.046-.014l.2.101q.092.044.185.082c.01.004.016-.031.027-.024.038.022.095.104.135.109.04.004.047-.047.076-.06.006-.003-.007.024-.003.025.026.012.046.065.066.079.014.009.026-.036.037-.036.016 0 .02.049.027.053a.1.1 0 0 0 .04.005l-.65.494c-.009-.023-.02-.045-.007-.07l-.03.003.005-.145-.028.007c.005-.057.106-.05-.106-.045l-.023-.013c.109.002.189-.033.217-.076.002-.004-.105-.025.021-.023L3.5 5.665q.057-.016.114-.028l-.017-.015q-.038 0-.075-.002c-.003-.023.027-.07.024-.09-.008-.045-.075-.091-.002-.127-.008-.017-.056 0-.05-.025l.073-.009c-.11-.02-.043-.025-.02-.054.016-.02-.011-.032-.006-.05.001-.005.034-.005.033-.008-.004-.01-.048-.041-.05-.049a.5.5 0 0 1 .006-.193c.001-.007-.03.002-.03-.005.003-.012.052-.005.054-.012.006-.019-.045-.019-.048-.045-.009-.087.03-.187.034-.278 0-.003-.03-.003-.03-.006-.002-.02.038-.04.038-.058 0-.03-.043-.053-.043-.083 0-.059.022-.111.023-.171.001-.05-.003-.092-.003-.146 0-.236-.095-.477-.044-.714.002-.006.028-.004.027-.005-.012-.018-.047-.02.028-.026-.015-.022-.072-.029-.068-.056.003-.014.09-.004.045-.028-.04-.022-.089.002-.04-.063.002-.002.055-.01.041-.024-.014-.013-.052.002-.063-.03-.027-.077.019-.175.005-.265a.3.3 0 0 0-.043-.07c-.026-.02-.065-.016-.075-.043-.007-.02.038-.038.029-.062-.002-.003-.048-.008-.042-.026m-.572 2.865c-.021.022-.075.086-.11.108l-.018-.015c-.018.01-.03.009-.028-.012 0-.006.09-.08.088-.106l.034.01.01.008zm1.636-2.998-.025.069-.06-.047zm-.079 2.85.065.071-.048-.007-.075-.057zm-.168-.19c.02-.016.051-.012.082-.02a.03.03 0 0 0 .016-.018l-.06.005c-.047-.035.124-.105.193-.015l-.076-.004c.007.045-.047.096-.155.051M2.406 5.4c-.093.01-.118.005-.1-.073q.036-.007.072-.017l-.045.061.066-.036zm1.795-1.548c.164-.011.069-.008.106.023.012.01.041 0 .046.007.026.035-.084.038-.141.03zm-.034-.925c.04-.001.05.013.088-.003v.037l-.011-.01-.042.009c.046.004.02.008.004.021l.148-.01-.044.045h-.037l.047.017-.044.005.034.02c-.036.002-.052-.013-.042.014l-.11-.025zM4.25 4.13c-.007-.044.02-.031.1-.021zm-.607 1.93-.093.142c-.037.02-.028-.085.005-.115.04-.037.046.022.088-.027m-.58-.22c.019.038-.04.081-.066.111.02-.059.007-.06-.009-.077.02.006.073-.04.076-.035m1.177.054c-.001-.013-.017-.025.002-.037.053.004.005.027.083.01l.004.025c-.032-.006-.056.001-.089.002m.073-1.335c-.063.025-.036.03.007.055a.3.3 0 0 1-.155-.045zM3.199 2.643c.022.062-.017.09-.047.085l-.006-.03zm-.217 3.222.007.009q-.005-.002-.007-.009m-.536-1.268c.062.005.08-.027.06.011a.1.1 0 0 0-.02.054c-.079.002-.113-.043-.12.025 0 0 .046-.007.04.004 0 .003-.037.019-.046.037-.003.005-.008.046-.017-.007q-.083.013-.163.023c-.019-.02.086-.052.08-.074-.007-.033-.117-.041.024-.06.038.025.044.07-.04.089.002.028.073.025.105-.001-.055-.086.1-.036.037-.109l-.06.001c.067-.03.098.006.12.007m-.124.208-.133-.027a.34.34 0 0 1 .172.006zm.154-1.336q-.046-.03-.088-.063c.03.009.12-.082.114-.012 0 .01-.086.026-.026.075m1.782.915-.075.04-.048-.06zm-.795 1.54c.005.003-.032.043-.008.044l-.08.067.014-.073L3.361 6l.047-.096c-.004.08.034.004.055.018m.513-.096c.076-.005.122.034.134-.004q.075.009.081.04l-.057.011c.051 0 .07.007.107.02.004.033-.013.031-.098.04.048-.037-.03-.038-.076-.062-.031-.017-.017-.039-.091-.045M2.42 3.585c-.048-.051-.114-.054-.03-.071l.04.03zm1.817 2.118c-.118.003-.21.026-.018.03.04-.023-.07-.011.018-.03M3.163 5.68c.036.026-.032.141-.08.191l.025-.069-.037.018zm.945-.767c.085.035.047-.037.1-.013.042.02-.043.044-.097.035zm.024.198c.09-.006.064.003.048-.024-.004-.008.03-.07-.046-.044zm-1.478.364c.03-.026.124-.052.113-.033-.03.054-.072.023-.113.096.014-.086-.122.019.048-.132.026.014-.017.036-.048.07m1.198-2.85a.2.2 0 0 1-.041-.074c.036.011.036.05.056-.017l.014.058c-.01.014-.012.039-.03.033M2.609 3.4c.002.016-.046.011-.05.024-.116-.126.043-.087.05-.024m-.034 2.003c.03-.05.14-.054.138-.025l-.06.047c.037-.056-.082-.012-.078-.022m1.365.712c-.05-.016.076-.205.03-.038zM2.92 5.68c.047-.048.034-.077.064-.045l-.021.047zm.788.062c-.071.013-.152.05-.177.236l.02-.011c.032-.083.032-.031.057-.02.015-.031.032-.034.045-.06.024-.053.022-.097.055-.145m.293-2.037.045.003.051.031-.087-.005zM2.518 4.828c-.163.032-.128.048-.036.065q.017-.033.036-.065m1.406.58q.071 0 .142-.004c-.05-.022-.104-.018-.166-.007zm-.02-.32c-.01.009.028.004.028.005-.02.024-.038.027-.01.056l.032.01c.099-.013.045-.023.103-.05l-.102.014.021-.046-.031-.006zm.14-1.502.012-.046-.074-.001zm-.13-.836c.019.015.04 0 .06.001-.01-.06-.055-.037-.077-.07-.001.01.009.064.017.07m-.7 2.964.053-.076.023.023.033-.068c-.053.01-.012-.05.001-.123zm.671-2.61c.017.033.049.044.124.026l-.052-.036zm-1.387.848c-.022-.033.076-.01.028-.049l-.064.029zm.4 1.1c.024-.026-.123.053-.035-.037l-.1.044.095-.07c-.023-.012-.057.025-.093.047-.015.008 0-.023-.029.002-.05.041.002.055-.063.098.014-.026-.02-.039-.06-.005-.043.039.053.011.023.052.09-.09.085-.028.01.032.078-.017.086-.057.067-.08.071-.026.024-.025.073-.062.04-.006.048.058.112-.02m1.068.743c-.022-.001-.041-.051-.074.003-.02.032.005.07-.035.116.022.001.033-.018.045-.067l.019-.012-.002.03.025-.057.011.016zm-1.13-2.513-.01.014.029.024.022.019c-.027-.022-.09-.042-.07-.008.011.017.07.052.063.077l.019-.048.04.044.02-.001zm.995 2.145c.039.02.06.028.122.018L3.87 5.42zM2.606 4.364c-.24-.047-.094.052-.012.034.004-.001-.015-.03.012-.034m.584 1.248.034.012.034-.082zm.587-2.364c-.066.013-.09.047-.018.063l.025-.026.025.048c.091.001.038-.017.063-.046.005-.004.118-.032.033-.041-.018-.002-.03.027-.081.007-.004.009-.003.017-.006.025l-.065.002zm.068 2.517c-.026-.014-.041.02-.068.078l.046-.007zm-.09-2.244c-.01.017.043.01.053.016.037.026 0 .043.023.068l-.03-.005c-.044.12.076.057.056-.014l.06-.005c-.035-.032-.068-.061-.161-.06M2.639 4.715c.012-.003.09-.007.052-.018-.115.004-.055.018-.097.032l-.035-.01c-.026.037.002.037.081.01.005-.001-.013-.01 0-.014m.034-.203c-.168.004-.09.04-.038.035.002-.005-.027-.008-.015-.014.012-.007.051-.01.053-.021m.43.872c-.001-.001.028-.067-.001-.02-.06.117.011.063.03.022-.008-.003-.024.01-.03-.002m.635-2.337c-.005 0-.033.033-.007.037q.046.006.092.008c-.028-.018-.006-.054-.085-.045"/></svg>