<svg xmlns="http://www.w3.org/2000/svg" width="183" height="2" fill="none" viewBox="0 0 183 2"><path fill="#b8b8b8" d="M69.299 0c1.101 0 2.134.016 3.438.038h.002l.577.01c1.597.025 3.673.056 6.803.073 3.459.02 6.204.09 7.881.156.313.013.637.02 1.453.026l2.304.013 1.96.01c2.505.014 6.433.01 10.052.006 2.196-.002 4.279-.005 5.862-.003 2.314.003 4.547.015 6.974.03 2.223.012 4.609.025 7.371.033 2.118.006 4.176.057 6.268.113l.801.022c1.846.05 3.733.103 5.773.132 3.637.053 6.54.031 9.753.007 1.257-.01 2.562-.02 3.976-.025 2.238-.01 5.455-.007 8.685-.005h.829c2.957.003 5.859.006 7.988 0 3.383-.008 4.656-.028 5.717-.045.399-.006.769-.012 1.209-.017 1.586-.017 3.981-.013 6.408-.01h.028c.403 0 .728.057.726.126s-.33.125-.733.124c-1.286-.002-2.54-.003-3.664-.002-.058.06-.36.104-.723.104-.907-.001-3.687.043-8.038.117.298.01.548.02.766.03l.623.031c.352.018.587.03 1.003.04.964.01 2.48.011 4.075.013.402 0 .727.057.726.126-.002.07-.331.125-.733.124h-.024a536 536 0 0 1-4.151-.014 94 94 0 0 1-1.032-.019l-.063-.003h-.002c-.015 0-.095-.006-.179-.016l-.097-.014-.034-.001-.484-.024c-.668-.03-1.727-.07-3.931-.11-2.028-.038-5.455-.055-9.732-.055a718 718 0 0 0 3.898.06l1.363.019.923.012h.002l1.734.023c.59.008 1.169.016 1.835.031l.438.017.163.008.021.001.166.008.155.006h.002a17 17 0 0 0 .571.016 56 56 0 0 0 .7.008l.243.002c.188.002.368.016.501.04.132.023.205.054.205.086-.001.033-.077.064-.21.087a3 3 0 0 1-.503.038h-.154l-.092.001-.251.002-.787-.001a34 34 0 0 1-.71-.014l-.197-.006h-.02l-.16-.005-.293-.007c-.553-.004-1.236-.004-1.888-.003h-.244l-1.282.003-.931.001a2101 2101 0 0 1-4.455 0q-1.117 0-2.242-.008a306 306 0 0 1-2.271-.02c-.55-.008-1.114-.022-1.636-.035l-.827-.022h-.002l-.706-.02a238 238 0 0 0-2.949-.058 211 211 0 0 0-2.961-.017 2056 2056 0 0 0-4.061.015q-.36 0-.719.003h-.003l-1.335.007a1803 1803 0 0 1-4.158.014c-.7 0-1.419 0-2.142-.004l-1.928-.013q-.252 0-.503-.003a275 275 0 0 0-4.617-.004q-1.15.008-2.322.023a738 738 0 0 0-4.718.073 354 354 0 0 1-2.699.038l-.534.006-.766.009a327 327 0 0 0-2.413.039c-.39.009-.712.018-1.098.032-.937.026-1.519.034-2.164.043l-.393.005a415 415 0 0 1-4.61.035 561 561 0 0 1-9.09-.047l-.361-.005a371 371 0 0 0-2.326-.022 114 114 0 0 0-2.921.028l-2.247.04-.367.008a534 534 0 0 0-3.28.077c-.62.017-1.211.025-1.73.03-.525.006-1.015.01-1.492.012l-.268.002-1.137.006a454 454 0 0 0-4.058.048c-.46.008-.926.018-1.437.03l-1.577.032A267 267 0 0 1 64.52 2h-1.6a1898 1898 0 0 1-4.987-.018l-4.964-.023q-.275 0-.548-.003l-1.928-.009h-.013l-4.206-.016h-1.717l-.798.003h-.078c-.308.002-.658.003-.984.002a1059 1059 0 0 0-5.134 0l-1.013.002-1.584.003a1086 1086 0 0 1-5.26-.006 745 745 0 0 1-2.633-.016 2351 2351 0 0 1-5.816-.054 5379 5379 0 0 1-7.544-.08l-.883.017c-2.09.04-3.6.07-5.592.09-.191.002-.346.007-.535.012l-.113.003c-.247.007-.53.014-.925.018-.787.009-1.993.007-3.551-.051-.394-.015-.644-.082-.56-.15.06-.047.27-.082.524-.094l-1.41-.024a3 3 0 0 1-.488-.044c-.125-.025-.189-.056-.178-.089s.096-.062.236-.084a3.4 3.4 0 0 1 .513-.033l1.493.004a1015 1015 0 0 0 4.472 0c.501 0 .993-.002 1.492-.003.3 0 .603 0 .9-.002h.327l.27-.001a5400 5400 0 0 0 8.7-.028l8.027-.034.867-.018c.83-.017 1.662-.04 2.48-.062-1.457.011-2.628.028-3.743.045l-.447.006c-1.51.022-2.97.041-4.935.037-5.585-.012-8.823-.02-10.841-.036-2.018-.017-2.885-.04-3.694-.088-1.143-.067-3.35-.105-4.458-.106-.403 0-.728-.057-.726-.126.002-.07.33-.125.733-.125 1.17.002 3.558.04 4.919.12.606.036 1.303.059 3.29.075 1.987.015 5.195.024 10.791.036 1.893.004 3.298-.014 4.794-.036l.443-.007h.003c1.373-.02 2.869-.042 4.886-.052 4.648-.022 10.9-.066 12.385-.09l.87-.017a359 359 0 0 1 5.618-.066c.678-.004 1.473-.006 2.34-.007 1.3-.034 2.564-.065 3.663-.084.948-.016 1.823-.046 2.67-.078l.734-.029A217 217 0 0 1 60.831.52l1.45-.05c1.851-.067 4.07-.147 6.962-.148 3.065 0 5.69.014 7.953.028a593 593 0 0 1-4.595-.063A189 189 0 0 0 69.308.25c-4.89.003-6.723.025-8.793.086-.544.016-1.145.038-1.793.06-1.294.047-2.774.1-4.365.13-1.48.028-3.138.07-4.893.114h-.002l-1.04.026a700 700 0 0 1-7.4.154c-1.855.033-5.112.091-9.09.054C31.058.866 30.151.85 29.115.83l-.986-.02A483 483 0 0 0 22.47.737C20.499.722 18.096.716 15.6.708A3738 3738 0 0 1 1.34.638h-.002C.934.636.619.578.633.508.647.44.985.387 1.387.389c3.41.022 6.814.044 10.527.058 1.215.005 2.456.008 3.68.012 2.508.007 4.944.014 6.934.029 2.43.017 4.257.047 5.754.074l1.02.02c1.025.02 1.877.036 2.706.043 3.851.036 6.985-.02 8.847-.052l.868-.015A692 692 0 0 0 49.24.392h.002c1.755-.044 3.442-.086 4.95-.115C55.725.248 57.06.2 58.31.155c.67-.024 1.317-.047 1.954-.066C62.458.024 64.393.003 69.3 0M2.806 1.641c.969.032 1.758.038 2.346.036zm49.319-.617-.474.013 1.314-.006 1.611-.006zM69.25.573c-2.727 0-4.765.074-6.603.14a342 342 0 0 1-2.183.074l3.3.012c2.773.01 4.351.031 5.738.05l1.18.015a229 229 0 0 1 2.493-.052 356 356 0 0 1 2.97-.04l1.365-.01h.077l1.347-.013c.428-.005.784-.012 1.1-.02a341 341 0 0 1 3.971-.096q.088 0 .175-.003L81.773.625c-1.199-.003-2.479-.012-3.891-.02C75.472.588 72.68.57 69.25.572m26.656.033-1.464.006-.475.002h.012a398 398 0 0 0 3.36.04 661 661 0 0 0 7.156.027l-1.608-.017-2.093-.024C99.738.626 98.083.602 95.906.606m14.325.006A208 208 0 0 1 112.096.6l.928-.002.385-.001.636-.002c-1.476-.008-2.918-.014-4.421-.016h-.06z"/></svg>