<svg xmlns="http://www.w3.org/2000/svg" width="165" height="62" fill="none" viewBox="0 0 165 62"><path fill="#0ba6e2" d="M154.902 13.932c.446-.18-.58.81.284.306l-.328.497-.383-.125zm-.963-1.281c.116.414-.306 1.063.48.64l-.152-.39.774-.48.094-.327.742.108-.299.21c-.166.465-.396.811-.776 1.313l.222-.03-.812.567.346-.808c-.518.1-.841.771-1.03 1.104-.257.452-.304.262-.498.595-.031.053.06.138-.016.231a8 8 0 0 1-.186.221l-.492.554-.661-.017c-.615-.013-1.392-.097-.804-.345.278.01.544 0 .804-.019l.502.014.373-.42c.397-.548.728-1.104 1.228-1.604-.422-.017-.178-.484.161-1.117m-17.576 3.505c.301-.163.916-.097 1.332.016h.001c.092.024.299.24 0 .231-.487-.015-.723-.354-.979-.124-.114-.043-.235-.08-.354-.123m-1.06.02c-.299-.083-.163-.34.211-.27.156.028-.15.23.41.025.114.16.227.305.34.46-.137.003-.262.007-.406.009.097-.263-.256-.141-.555-.224m15.063-.234c-.047.236.15.235.485.399l-.948-.024zm6.28-5.132zl.115-.31.312.021.527-.996c.168.2-.287.676-.382 1.07-.407.362-.688.465-.878.35q.153-.065.305-.135M78.02 34.36l-.168.39c.15-.07.295-.146.45-.213.164-.504.358-.306.801-.654 1.358-1.067.704-1.186 2.378-1.537-1.03.713-.445.696-.903 1.348-.24-.065.103-.86-.36-.635-.582.682-1.146 1.333-1.849 2.012l.128.032.333-.323-.24.51c.05-.29-.32.123-.4-.11-.035-.103.073-.362.128-.526-.327.172-.658.353-.987.528l.314-.54.373-.28zM9.39 61.731c.463-.243 1.305-.283 1.748-.013zm146.79-50.874.195-.04-.273.68-.361-.126zm-13.535 4.928c.17-.007.185-.003.396.014h-.001c.084.006.784.076.706.168h-1.074c-.011-.06-.013-.12-.027-.182m4.091.054h.002c.126.014.246.043.377.048-.47.145-.545-.115-.972-.041s-.691.217-1.053-.139c.135-.053.28-.13.419-.192.606.143.769.009 1.255-.131zM84.645 30.403c-.011-.21.195-.148.207-.154.732-.737-.05.158.747-.392l-.266.362c-.228.062-.468.12-.689.184m30.535-4.28.121.1c-.458.36-.445.61-.936.774zm24.533-10.71c.645-.098 1.122-.141 1.742.014h.002c.035.01-.138.117-.091.144.128-.016.26-.04.389-.06l.052.257-1.093-.073.163.15-.928.078.322-.422zm-32.386 16.412c.114-.022.027.17.18.108.154-.064.314-.33.361-.165l-.465.468c.723-.224 1.102-.867 1.333-.601-.533.327-.916.678-1.319 1.113l-.469.363-.518-.091-.154-.001c.02-.084.099-.155.188-.223l.425.075.384-.298c.021-.25.086-.526-.248-.486.099-.086.203-.178.301-.26zM159.571 1.39c.273-.291.774-1.064 1.223-1.345.11-.07.773-.051.824-.006.168.158-.132.564.33.247-.115.14-.222.28-.335.421l.416.225.37-.55.138.075c-.507.605-.056.375-.178.807.314-.228.629-.46.942-.687-.148.159-.319.349-.452.487.184.188.43-.201.517-.23.494-.16-1.055 1.467-.881 1.853.263-.247.536-.508.804-.761l-.095.333c-.737.467-1.408 1.12-2.157 1.755l-.143.221.32.171-.224.331c-.048-.549-.391-.133-.992.212.118-.353.456-.626.242-.768-.614 1.035-1.722 1.922-2.296 2.949-.143.255.11.466-.348.963-.013-.04-.06-.086-.087-.128-.63.994-1.013 1.597-1.917 2.421l.407.07.36-.705c.262-.008.162.245.654-.344.404-.482.097-.251.163-.42.088-.228.338-.283.431-.53.072-.192-.186-.136.169-.494l.094.877-.346.19.111-.39-.608 1.187c-.137-.307-.35.123-.486.34-.211.337-.153-.055-.293.165s-.141.584-.48.91c.058-.279-.253-.096-.306-.226s.245-.526-.165-.25c-.509.765.491.31.153.832-.407.627-1.11.265-1.095-.01.012-.217.417-.658.43-.876-.868.67-.52.974-.569 1.173-.176.721-.561-.187-.825.62-.116-.116-.222-.22-.333-.334-.065.124-.092.218-.18.36.557-.165.292.13.161.286-.205.246.233-.033.209.058-.064.245-.335.49-.084.412-.114.034-.234.074-.35.11-.179.34-.22 1.455.213.725.145.224-.123.352-.289.49-.165.136-.039.238-.181.36a1 1 0 0 1-.267.18l-.262.295-.353-.009c-.153-.085-.092-.196 0-.31l.217.006.161-.182c-.018-.093-.028-.197-.057-.27l-.087.15-.1.112-.134-.004c-.689.134.057.227-1.257.32-.136.178.514.368-.028.47-.099-.308-.498-.53-1.275-.632q-.114.106-.226.213c-.425-.284-.208-.58-.993-.227.421-.65.132-.234-.572-.499-.142-.053.188-.188-.012-.256-.09-.03-.31.07-.53-.008-.108-.039-.612-.289-.961-.17.256.315-.407.582.162.843-1.051-.065-1.786.086-.609-.343l-.8-.284-.561.224c-.028-.259 0-.331-.732-.286l.953-.184c.011-.053.055-.107.045-.158-.391.1-1.492.142-1.759.211s.249.088.172.155c-.64.55-.589.144-1.048.239-.27.055.374.116.23.14-.535.087-.783-.205-1.257-.21q.254.25.5.503c-.497-.009-1.051-.01-1.513.043-.182.021-.045.145-.074.153-.147.042-.745.11-.809.11-.476 0-.49-.17-.953-.18l.531-.041.244-.832-1.364-.06 1 .277-1.56.673-.811-.413c-.736.036-.588.595-.936.106l-.651.123.093-.21-.784.13c.275.247.544.507.816.747-.514.054-.524-.156-.601-.208-.203-.139-.607.048-.769-.08-.054-.044.45-.182.276-.341-.034-.031-.709-.617-1.139-.482.008.106.041.236.059.352-.579.064-.875-.49-.798-.645-.308.109-.759.118-.823.288l-.471.012c.164-.413-.493-.338-.536.018l.812.027c-.205.435.618.698-1.094.295-.327-.227.582.03.315-.14-.463-.098-.898-.015-1.339-.173-.461-.166-.056-.327-.679-.224l-.118.004-.077.066c-.078.09-.178.208-.309.367q.248-.125.435-.213l.028-.023.041-.002c1.02.26.707.336 0 .377l.17-.06c-.47.432-1.205 1.044-1.605 1.483-.675-.25-1.664.305-2.738 1.422.234.032.552-.343.804-.476s.083.138.403-.02c.32-.157.961-.54 1.31-.668-.168.265-1.16 1.375-.583.544-.67.327-1.046.407-1.762.952-.038.379.084.496-.59 1.058.164-.619-.772-.19-.847-.628.538-.324.507.187.9.099.04-.01.428-.45.537-.53-.667.11-.903.14-.879-.399-.298.29-.529.413-.437.585q-.18-.014-.357-.03c-.103.087-.192.17-.303.259.335.1-.073.203-.199.476s.3.22-.274.693c.235-.104.447-.203.673-.305l-.972 1.085c.372-.076 1.104-.335 1.235-.142-.226.072-.714.67-.774.728-.233.221-.191-.003-.212.01-.435.263-.724.565-1.013.514-.23.317-.487.454-.794.712-.169.142-.032.242-.152.3-.796.384-.296-.298-1.325 1.063q.341-.058.683-.113l-.352.455-.33.19-.462-.58-.345.23.502-.504-.034-.14-.941.507.148.212c-.687.408-.747.363-1.178 1.021-.449.364-.586.94-.749 1.269l-.371.116-.043.312-.544.06c.077.229.088.31.598-.004.02.346-.868.912-1.257 1.109-.295.15-.166-.259-.215-.255-.166.01-.525.412-.622.47-.408.248-.657.467-1.02.697-.071.045-.345.077-.363.086-.135.078-.474.262-.509.288-1.791 1.322.456.316-1.188 1.572.102.027.199.056.3.083l-.354.31c-.198.07-.095-.181-.333.148l-.138-.292c-.097.152-.189.3-.289.455-.442-.107-1.271.465-1.485.09-.073-.128.383-.693-.006-.575-.255.17.014.173-.076.259a3 3 0 0 1-.442.353l.317-.087c-.329-.093-.359-.21-.627-.203l-.223.285-.399-.152-.129.192c.129.024.274.05.392.073-.206.243-1.742.136-1.129-.005.25-.058.676.046.45-.31-.413-.016-.881-.038-1.316-.056l-.008-.21c-.583-.043-.1.308-.122.454l-.399-.048c-.046-.074-.089-.151-.138-.224-.021.104-.131.337-.511.188-.244-.097.194-.302-.293-.337.011.169.155.394-.389.367-.028-.179-.078-.346-.093-.532-.692.064-.956-.245-1.768-.17-.515.046-1.26.373-1.482-.336-.36-.071-.27.11-.383.131-.534.1-.865-.27-.957-.303-.585-.208-.872-.14-1.341-.36.008.125.005.243.009.366.477-.116.704-.074 1.33.06l-.647-.02.058.312c2.012-.1 1.464.45-.194.341-.114-.205-.233-.41-.345-.615-.987.137-1.396-.17-2.458-.388-.126-.026-.605.01-.805-.014l.01.004c-.15.155.006.26.003.418l-.332.01c-.224-.154-.125-.239-.603-.282l.138.382c-.52-.073-.841-.252-1.333-.269l.263-.097c-1.036-.271-.095-.838-.942-.612q-.06-.103-.123-.204l.989.102q.03-.126.057-.253l-1.065-.08.795-.057-1.2-.305c.384.379-.181.334-.123.66-.68-.366-1.195-.791-2.342-.74-.228.011-.14.246-.728-.112.1.369-.71.414-.659.758.221.017.45.04.664.053-.224-.15-.217-.47.163-.509.485-.049 1.135.27 1.16-.082.183.044.355.08.534.12l-.26.227c.536-.058.853.034 1.069.29l-1.864-.126.266.085c-.498.153-.05.435-.924.353l.06-.303c-.356.225-1.22.094-.991.449-.108-.06-.178-.106-.236-.127l.755-.187c-.072.034-.102.084-.113.21-.704.218-1.245.236-1.26-.203l-.521.6.538-.026-1.102.784c-.208-.211.647-.583.28-.64-.074-.012-.202.222-.271.236-.731.137.255-.298-.05-.38-.851.53-.45-.276-1.355.817q-.122-.07-.24-.142c-.388.278-.244.41-.554.682-.194.17-.653.09-.747.442-.016.064.613.114-.209.693-.637.449-.547.023-.948.188-.4.166-.94 1.061-1.44.86.214-.081.46-.22.687-.326l.081-.388c-.384.424-.931.657-1.11 1.05-.795.18-1.292.917-.893 1.08.167-.189-.143-.16.193-.28l.237.144c-.475.335-.8.576-.74.21l-.229.144q.15.241.297.484l-.224.242-.365.113c-.044-.337.174-.51-.666-.1l.175.254c-.698.348-.862.159-1.636.737.387-.726 1.088-.454.663-1.031l.535-.216-.118-.301c-.773.634-1.706 2.165-2.513 2.194-.033.092-.07.179-.101.276-.69.165-.555.828-1.3.935-.077.01-.303-.54-.988-.013.062.048.145.143.215.21l-.534.216.04.229.82-.5-.601.529c.346-.114.472-.205.411.065l-.707.56.008.167.598.076c-.698.371-1.251.768-1.897.903-.11.023.076-.336-.39.207-.066-.07-.127-.122-.19-.186a5 5 0 0 1-.216.276l.077-.025c-.61.148-.926.065-1.687-.1.576.18.062.063-.085.16-.1.066.292.056.248.126-.045.07-.555.35-.119.383.709-.38 1.076-.207 1.643-.127l.093.002.091-.063c.257-.137.541-.325.86-.674l-.382.555.328-.055c-.685.362-.341.2-.543.458l-.029.036-.206.142-.212-.005a8 8 0 0 1-1.228.176c-.121.008.007-.121-.266-.133-.186-.009-.694.182-.812-.043-.076-.146.74-.55-.389-.548-.212-.144.329-.1.34-.117.099-.17-.595-.299-.915-.168-.026.01.227.144-.049.196-.653.125-1.03-.028-1.453-.234-.046.242-.596.531-1.28.442l-.104.209.32-.11c.115.044.238.075.351.127-.688.06-.786.393-1.116.515-1.129.417-.445-.465-.24-.617.146.061.288.13.434.195l-.048-.255c-1.69.003-.257-.547-1.115-.704-.221.415-.852.455-1.654.192l-.267.005c-.015.06-.015.153-.04.193-.966.07-1.139-.569-1.23-.63-.407-.268-.724.104-.844.107-.505.013-.652-.152-1.133-.081-.517.076-.163.203-.32.316-.127.09-.535.106-.703.2.067-.077.141-.152.208-.228-.536-.104-.974-.206-1.583-.231-.687.558-1.271-.383-1.035.38.577.052.9.14 1.208.334l-1.136.074c-.11-.084-.188-.166-.32-.251-.282.178-.938.102-1.195.154-1.206.245-.833.548-1.933.038.793-.05.792-.297 1.578-.263-.17-.177-.57-.14-.31-.353-.762.052-.516.242-.812.41-.255.145-.77.153-.74.341-.053-.103-.094-.203-.146-.307l-1.48.002.631-.324-.477-.122c-1.212.336-3.303-.28-2.969.565l-.162.004.116-.047c-.313.309-.446.299-.75.397.02.07.032.132.057.208-.316.216-.353.59-.634.78-.281.188-.5.084-.266.39-.23.074-.447.159-.671.236l-.094.456-.528.328c.05.206-.57.707-.734 1.04-.376.092-.803-.356-1.283.272l.366.286-.452.31-.128-.086.228-.158-.346-.017-.321.846.992-.576c-.252.406-.562.553-.762.926-.4.095-.392-.083-.452-.347l-.24.317c-.1-.224-.353-.167.204-.69-.083-.01-.165-.017-.25-.03-.082.096-.178.113-.259.228-.218.312-.14.801-.022.884.062.044.226-.317.29-.231.153.208-.532.72.52.047-.175.4-.326.376-.678.656q.127.054.252.11l-.526.353c-.102-.515-1.308.44-.595-.799l-.91.811.084-.272.44-.334-.633.278c-.292.43-.324.681-.355.983.522-.315.248-.317.55-.668.075.099.17.164.231.284-.348-.013-.774.664-.893.8-.366.411-.233-.068-.5.185-.265.255-.47.665-.858.699.101.095.219.18.323.255-.377.434-.41.237-.467.264-.919.414-1.078.984-1.825 1.768q.192-.1.382-.204c-.376.782-.047.332.527-.095-.495.444-.59.89-.872 1.272-.282.381-.946.853-1.226.988.367-.587.958-1.02 1.46-1.574-.16-.041-.303-.069-.474-.118-.116.53-.442.572-.577.65-.394.225-.205.397-.586.388.073.06.134.11.204.165-.674.608-1.488 1.175-1.665 1.836-.197-.123-.379-.25-.585-.371-.154.39-.51.497-.713.752-.202.254.014.298-.207.614-.04.058-.225.079-.289.26-.065.183-.08 1.082-.521.743-.234.226-.467.427-.7.643l.597-.716-.844.269.18.325c-.406.602-.91.825-1.39 1.361-.063.071.152.067.038.225a1 1 0 0 1-.237-.005c-.532-.06-.927-.499-1.833-.33-.046.01-.314.346-.639.113-.074-.053.237-.13.067-.2s-.927-.126-.986-.291c.008.058.055.119.078.178l-.39.083-.037-.308c-.744.24-1.128.63-2.23.501l.928.45.253-.317 1.525.126.25-.358.402.046-.103.258.8-.064c-.54.51-1.51-.043-1.44.384l-.359-.2c-.053.207-.296.147-.726.115.099.102.207.202.297.305-.417-.144-1.158-.13-1.59-.185-.19-.024 0-.174-.057-.192-.29-.092-.843.17-.96.149-.691-.123-1.141-.62-1.897-.292.78.08.355.046.633.228.087.057 1.095.176-.167.123-.148-.007-2.438-.35-1.685-.612-.37.084-.66.18-1 .27-.83-.693-.543-.042-.301.316-.137.001-.266.005-.406.005.298-.376-1.22-.4-1.734-.21-.172.063.31.184-.089.24-.19-.026-.405-.06-.606-.09.291.239-.28.33-.272.572-.365-.215-.644-.673-.443-.92l-.907.301.422.172c-.986-.152-2.254.194-2.46-.315l-.393.01-.12.258-1.773-.224c.527-.053.652-.175 1.204-.076-.213-.099-.43-.198-.638-.297-.831.266-.945.441-2.196.362a16 16 0 0 1-1.035-.249c-.148-.099.077-.243.011-.293-.183-.141-1.296-.495-1.275-.548.272-.654 4.018-.663 5.031-.696 6.418-.213 12.75-.122 19.085-.037l-1.224.5c2.916-2.791 5.833-5.586 8.709-8.458.075-.076-.026-.112.004-.147.186-.217.49-.305.57-.374.168-.148-.017-.16.1-.276 1.21-1.187 2.407-2.25 3.6-3.456.077-.079.075.08.2-.07.063-.078.167-.42.326-.58.557-.56 1.068-.986 1.66-1.571.323-.32.82-.79 1.182-1.148.16-.158.272-.378.428-.536.222-.224.287-.066.329-.093.182-.118.081-.263.228-.401.274-.258.37-.19.703-.53.223-.23.672-.785.963-1.117l.478-.495.782-.02.081-.006c1.005.134 2.272.08 3.21.036.554-.026.605.136.832.136.797-.003 1.402-.21 2.151-.218.994-.008 1.875.129 2.838.139.156.001.12-.148.274-.151.567-.014 1.292-.041 1.797-.02.563.023.77.24 1.322.195.161-.013.209-.202.48-.227.432-.038.906.13 1.207.148.414.025.054-.168.612-.143.023.002.106.14.226.133.35-.019.314-.127.825-.117.049.002.726.133.793.133.396.003 1.194.049 1.428.02.838-.099.178-.306.89.144.315-.11.626-.222.959-.329-.222.1.678.244.742.235.524-.075.212-.25.876-.221-.877.404.856.052 1.243.041a45 45 0 0 1 1.648-.01l-1.11.362c1.016-.729 2.029-1.41 3.082-2.184.505-.37 1.132-.935 1.668-1.325.125-.091.087.055.198-.024.11-.079-.075-.077.053-.163.8-.54 1.528-.821 2.09-1.547.057.004.073.028.154.019.448-.61 1.75-1.185 2.197-1.46.698-.43.776-.678 1.274-1.003.658-.431 1.786-.886 1.069-.974.426-.33.841-.64 1.308-.925.052-.031.092.095.114.082.134-.076.108-.196.189-.262.218-.177-.072.203.229-.064.159-.142.197-.292.67-.64 1.125-.83 2.293-1.68 3.475-2.538l.57-.442.816.1c2.213.34 4.46.692 6.631 1.026.246.038.102-.107.41-.053 1.07.187 2.962.676 3.892.787s.748-.097 1.338-.084c.114.002.007.089.108.105.68.111 1.468.389 2.016.495.363.07.357-.092.612-.066.379.04.743.258.944.293.942.163 1.612.132 2.485.33-.029-.04-.047-.076-.071-.115l2.896.449-1.471.405.187-.151-.176.018c.971-.772 1.082-.413.532-.912.054-.077.109-.161.16-.234.213.315.969.054 1.769-.476.059-.04.189-.622.425-.253.028-.16.038-.263.059-.401l.72-.08.218-.254c-.042-.076-.108-.137-.134-.224.384-.331 1.255-.907 1.558-1.169.752-.65 1.389-1.47 2.146-1.767.275-.258-.121-.15.326-.49.103.026.201.052.307.077.114-.583.334-.465.87-.8.363-.228.519-.476.843-.717.082-.062.142.034.194-.014.174-.157.595-.7.721-.808A72 72 0 0 1 119.425 19c.122-.094-.102-.053.024-.15.202-.157.193.07.313-.018.334-.245.223-.384.664-.757 1.449-1.225 3.223-2.504 4.765-3.75.048-.04-.021-.118.031-.161.336-.282.769-.454 1.077-.708q.091-.075.173-.15l.429-.37.658-.018c.553-.029 1.007-.142 1.583-.142 1.277 0 2.418.076 3.732.08 1.075.004 2.008-.01 3.187-.01 5.149.002 10.403-.329 15.586-.153q.016 0 .028.003l-1.484.69c.074-.063.106.02.128-.01.215-.319.142-.425.429-.362.274-.406.224-.65.613-1.09.208-.236.289.138.511-.369.2-.457-.267-.16.78-1.14.027-.027.288-.05.442-.308s-.168-.08.263-.654c1.012-1.347 2.505-2.875 3.726-4.403.076-.096.761-1.063.876-1.27.222-.403.057-.42.408-.89.271-.362.631-.548.949-.975.037-.05-.018-.232.255-.525M76.628 35.764c.003.192.183.776-.46 1.029-.06.024-.02-.499-.354-.332.267-.247.542-.465.813-.697m87.626-34.218-1.033 1.093q.254-.464.505-.927zM112.68 28.009l-1.079 1.17.024-.232.798-.988zm2.844-3.078c.301-.162.307-.025.518-.059.055-.01.246-.134.316-.186-.068-.033-.143-.06-.214-.09.5-.625 2.06-1.136.677.304l-.097-.257c-.746.642-1.716 1.192-1.2.288M70.387 40.644c-.51.726-.693.934-1.63 1.379l.205-.451.552-.099h.001l-.072-.27zm73.516-25.455c.234.568.167.238-.502.366-.232.044-.006.144-.15.16-.779.09-.841-.29-.667-.488.44-.014.885-.026 1.318-.038zm16.101-9.782.001-.001c.119.074-.055.338.274.152l-.523.617.125-.208-.245.069c.061.176-.067.184-.29.366l.541.15-.751.657-.107-.073-.112.39-.181-.023-.2.419c-.124-.045.047-.332-.305.136l.055-.658zm-22.189 9.957c.966-.024.694.066.47.347zM94.236 30.405q-.458.224-.923.436c-.58.022-1.094-.409-.649-.481.536-.086 1.043.175 1.572.045m-11.742.986c.616-.34.22.232.172.432-.283-.058-.489.116-.853.352.32-.251.578-.728.68-.784m22.833.888c.278.035.561.023.799.125-.101.17-.572-.069-.258.253l-.533-.065c.129-.095-.009-.2-.007-.313zm23.13-16.7c-.429-.169-.587-.15-.898-.061l.559-.2c-.053.075-.111.162-.184.265-.086-.043-.049-.225.044-.436l-.419.15c.208-.106.478-.197.686-.23q.104.256.212.513M16.721 61.183c.132-.225 1.105-.255 1.59-.188l-.174.101zm64.917-28.898q.093-.056.175-.109a1 1 0 0 1-.175.11m-26.47 9.122c.23-.213-.454-.284.377-.2v-.001c.55.055.671.07 1.18.086-.183.273-1.216.37.208.427.019 0-.019-.162.209-.14.07.007.295.14.637.179.11.012.94.054-.191.056.033.19-.028.383-.025.568-.442.054-.78-.32-1.248-.31-.694.015-1.047.392-1.18-.103.583-.122 1.585-.125 1.715.173.565.004.727-.24.272-.36-1.95.152-.535-.363-2.242-.168-.02.069-.09.143-.08.208-.52-.243.286-.339.368-.415m4.076.526-1.007.438c0-.237.184-.45.715-.583zm-24.546 8.533c.056.126.047.301.066.454-.15-.005-1.952 1.62-1.147.68.117-.137 1.056-.74 1.081-1.134m97.575-35.08-.854-.259q.656-.081 1.313-.167zm-42.602 14.11c.119.023-.303.139.17.181-.366.06-.709.106-1.067.16l-.272-.294-.265.123c.066-.113.127-.225.196-.34.538.345.714.071 1.238.17m16.995 1.943c.135.075.034.303.02.417l-.04.032-.045-.008c-.039.027-.053.053-.012.08l.078.015.071-.055c.049-.012.139-.065.293-.178a.7.7 0 0 1-.133.373l-.165.128-.182-.032c-.146.022-.329.02-.562-.007l-.202-.232c-.037.175-.171.222-.46.308l-.001-.001c-.733-.096-.68-.149-.813-.465.75.28.813.018 1.364-.061.247-.036.531.003.747-.03l-.039.01c.064-.098.1-.194.081-.294M36.539 48.652c-.238.547.263.348-.605.867l.017-.255zm72.817-18.24c-.309-.278-.915-.195-.561.378.48-.216.048-.352.561-.378m-27.05.32c.8-.562.924-.079.737.345l-.298-.095q-.172.198-.347.396zm40.089-11.571c-.392.7.727-.384.439.088-.229.377-.841.495-.797.22.108-.095.23-.2.357-.308zm-3.289 2.8c.293.164.099.206.519-.211.12-.12 1.231-.876.631-.721-.37.303-.764.619-1.15.931M73.469 37.77c-.088-.105.566-.956.717-.973.408-.047-.451.619.095.567-.989.417-.888 1.083-1.294.406.476-.391.337-.089.482 0M3.937 60.54h-.001c.069.006.639.206.57.276-.686-.06-.564-.192-1.202.025-.035-.07-.065-.138-.103-.208.254-.041.394-.125.736-.094m28.7-8.433c.154-.202.585-.419.784-.626-.253 1.045-1.403 1.433-.785.626M153.938 12.65v.002l-.001-.001zM47.814 42.06a.24.24 0 0 1-.058-.097v-.008q.027.052.058.105m23.951-2.992c-.459.1.516-.989.932-1.204.025.09.068.156.066.281-.434.039-.921.907-.998.923m28.817-7.845c-1.117-.172.449-.698.421-.096a3 3 0 0 1-.421.096M78.91 33.74c.098-.353-.404-.06.365-.575l.235.047zm14.495-4.585c-1.425-.084-2.804-.064-1.98.693l.33-.01c.06-.301.429-.077 1.003.018.1-.108.423-.088.498-.181.145-.18-.2-.374.15-.52m53.698-14.657-.068.156-.675.177.109-.301.633-.033zm-86.472 26.79c-.13.574.322.468 1.238.178zm53.009-15.785.379.322c.269-.44.081-.527-.237-.547zm5.377-4.49c-.177.102-.014.139-.032.15-.439.27-.533.268-.955.742q-.056.113-.11.227c.441.082.486-.195 1.088-.428l-.48-.063.837-.59.025-.16c-.123.04-.253.08-.373.122m30.688-6.367.996.041.035-.254zM53.827 41.548q-.04.045-.075.09c.002-.036.031-.066.075-.09M3.063 60.077c-.376-.06-.918-.02-1.33-.033.033.212 1.08.153 1.448.282.06-.038.04-.224-.118-.25m80.344-30.129q.021-.21.04-.421l.573-.377-.137-.221c-.748.686-.707.348-1.255.445q.39.286.779.574m73.374-22.22c-.424.594-.507.863-.044.715l.361-.707zM41.121 43.248c-.366.497-.617.256-.906.812l.817-.532zm28.073-4.318c-.279.055-.327.803-1.162.888-.064.204-.08.365-.126.553-.149-.058-.309-.11-.454-.17h-.001c-.503.425-.06.31.013.435.03.052-.422.26-.223.274.343.024 1.06-.659 1.222-.442-.33.132-.83.59-.563.618.293.03.61-.612 1.032-.718-.722-.007.322-.606.628-.418.415-.62-.167-.324-.74.11.204-.464-.236.029-.447-.079.29-.37 1.606-1.203.821-1.05m30.086-9.004c-.482-.056-1.21-.311-1.57-.148-.21.095.527.303-.02.42.47.051.588-.009.534-.191l.33-.013.134.122.198-.185.334.093c.019-.034.046-.06.06-.098M28.644 55.535l.282-.288q-.061-.03-.125-.057l-.098-.047c.14.032.74-.273.842-.556.05-.142-.332-.09.05-.523-.289.302-.543.595-.818.894l-.068-.224h-.001l-.322.251zm84.486-30.033c-.27.395-.345.547-.039.579l.001-.001.214-.55q-.087-.015-.176-.028M49.87 40.828c-.977.829 1.223.32.804.038-.02-.013-.713.053-.804-.038M82.01 30.63l.64-.491-.332-.136zm72.441-20.718c-.356.07-.886.57-.924 1.001l.426-.37c-.205.286-.404.573-.612.86.231.22.353-.211.815-.625.072-.064.765-.276.673-.627-.02-.072-.468.396-.314-.062-.137.142-.244.273-.37.41l-.2-.114zM96.483 29.534c-.656-.115-.756-.002-.927.199l.931.062zm54.637-15.886c-.364-.037-.208.146-.355.18-.555.13-.933 0-1.482.082l.105-.102h-.001c-2.596-.154-1.232.26.321.192l.107.203c.695-.118 1.336-.232 1.305-.555M58.547 40.799c-.03-.042.222-.312-.25-.186-.375.394.239.199.393.35l-.386.112c.765.111.877.018.598-.27-.02-.02-.326.036-.355-.006m-5.029-.194c-.105.58.86.32.826.14-.134-.008-.237.09-.379.047-.143-.044-.179-.18-.447-.187m24.532-7.724c-.025.015-.398-.014-.263.123.551.157.95-.496.758-.55-.184.145-.27.292-.496.427m79.124-26.42c-.021 0-.552.48-.541.609.03.123.09.223.134.334.176-.362.743-.92.406-.941z"/></svg>