<svg xmlns="http://www.w3.org/2000/svg" width="35" height="21" fill="none" viewBox="0 0 35 21"><path fill="#fff" d="M4.643 16.198V3.818h26V14.77z"/><path fill="#fff" d="M.379 9.65c.01.046-.016.234-.011.315-.116-.092-.029-.484.011-.316m5.813 2.279-.197.097c.192.008.448-.027.627-.01.029.003-.042.09.027.09s.05-.112.149-.13c.111-.02.628.031.806.02.664-.044 1.33-.146 1.999-.135-.683.121.015.169.205.122.042-.011.024-.222.716-.206.44.01.052.333.775.142-.574-.18-.02-.196.42-.227.077-.006.692-.008.963-.032.092-.008.228-.127.35-.136.085-.007.152.05.278.04a30 30 0 0 1 1.75-.094c-.328.303.276.106.304.118.144.07-.487.127-.234.161l1.047-.084c-.289-.019.367-.26.495-.174-.068-.248 1.606.131 1.852.034.051-.021-.298-.126.499-.113.086.002.058.079.102.07.027-.006.177-.256.358-.132.067.045-.331.225.558.112-.369-.225 1.23-.2 1.527-.155l-.18-.09c.294.074.342-.013.407-.011.264.003.63.067.875.046.286-.024.28-.177.617-.136l-.244-.088.694-.013c-.523.23.116.003.159-.004.068-.011-.026.077.088.06.011-.002-.01-.079.166-.097.367-.038.314.063.468.053.014-.001-.04-.069.227-.1.845-.1-.001.054-.033.066-.043.015.264.292-.462.227.244.02.275.148.303.15.024.001.442-.04.465-.046.204-.055.018-.133.057-.152.032-.014.543.073.647-.2.255.233-.127.231-.53.291-.056.054.391.079.415.077.573-.032.245-.216.363-.352.062-.072.303.053.078-.116.52-.048.21.075.244.088.052.02.231-.042.254-.036.034.008-.079.078.055.093.022.002.229-.118-.049-.155.368-.005.332-.095.467.084.233-.365.195.197.295.211.267.038.175-.234.188-.248.092-.091.829-.037 1.008-.086-.061.202-.58.034-.692.078-.372.15.54.07.278.335l.335-.225c.22.149-.076.235.49.146.086-.144-.4.043-.307-.071.055-.067.384-.1.389-.133.004-.041-.292.023-.248-.042.095-.14 1.19-.072.366.048.231-.015.365.246.56.152.128-.062-.622-.392.476-.384.03.125-.436.061-.447.072-.016.014.083.296.098.309.024.02.258-.013.532-.042l-3.507 3.704c-.018-.341-.03-.743.05-.874-.165.094-.03-.845-.08-.947-.013-.028-.115.074-.125.045-.064-.181.117-.673.121-.9.006-.255-.082-.223-.082-.237.005-.113.064-.023.064-.091 0-.104.012-.816 0-.852-.004-.01-.104.106-.123-.05-.003-.026.115-.01.064-.469-.061-.553-.147.385-.271.155.176-.356.001-.344.015-.44.005-.034.154-.283.145-.553l.072.581c.026-.19-.006-.56.023-.717.015-.076.137-.013.133-.18 0-.035-.299-.175-.165.26-.106.036-.037-.172-.067-.268-.005-.014-.183-.072-.072-.194.027-.03.545.291.17-.537-.012-.026-.077.066-.09.04-.01-.017.017-.229.008-.252-.01-.024-.081.078-.095.05-.072-.146.21-.337.188-.037l.104-.301c-.212.107-.06-.158-.066-.297-.042-.89-.18-.294-.25-.447-.115-.247.247-.059.138-.424-.01-.034-.164.408-.077-.455l.018.382c.205-.073-.014-.46-.017-.49-.028-.338.046-.11-.06-.613-.01-.044.041-.142.016-.238-.104-.399-.063.525-.146.55-.04.012-.03-.981-.011-1.015.086-.145.038.45.144.337.03-.034-.015-.97-.01-1.475l4.044 4.045c-.119 0-.213-.004-.267-.012-.328-.048-.476-.326-.478-.014-.093-.306-.174-.097-.216-.1-.507-.028-.508-.03-.943-.001-.096.006-.177-.087-.211-.071-.02.01.017.109-.08.14-.134.041-.942-.061-1.003-.116s.342-.024.27-.114c-.29-.01-.57.013-.862.003-.121-.004-.059-.067-.112-.068-.022-.001-.441.055-.424.078.042.054 1.338.018.996.129-.065.02-.298-.125-.26.052l-3.473-.12c.665-.133 1.413-.014 2.11-.027.095-.001.418.016.379-.074-.593-.023-1.329.024-1.898-.035-.018-.002.049-.082-.02-.095-.127-.024-.542.106-.611.073-.012-.008.224-.114.152-.182-.184-.173-.231.21-.39.206-.122-.004-.946-.19-1.15-.072-.219.125.606.073.545.175-.558.102-1.123-.007-1.65.005-.01 0 .07.08-.047.092-.205.02-.259-.094-.358-.112-.108-.02-.488-.003-.539-.045a.4.4 0 0 1 .082-.12c.166-.047.225.099.24.1.056.006.112-.05.164-.046.085.005.132.057.244.062.077.003.003-.096.077-.092.028.002.323.23.35-.003.01-.073-2.408-.166-2.65-.108l.623.084c-.421-.068-.927.117-.963-.157l-4.68-.067c-.28-.024-.127-.2-.585-.148l.355.168c-.234-.04-1.276-.116-1.444-.08-.022.005-.052.164-.312.178-.231.012-.268-.108-.392-.13-.103-.02-.22.012-.25.005-.024-.005-.033-.078-.09-.09-.18-.04-.034.166-.212-.07l.13-.027c-.216-.035-.512-.142-.193-.194.055-.01.008.061.048.06 1.6-.012.323-.15-.238-.04-.144-.104-.951-.04-.978-.061-.037-.03.1-.114-.08-.186-.038-.015-1.117.043-.729-.096.08-.028.598.002.723-.002-.294-.222-.982.096-1.06.088-.311-.035.6-.193-.103-.218-.54-.02-.033.128-.24.191-.117.036-.729-.128-.712.084-.21.022-.088-.09-.113-.098-.026-.007-.439.056-.573.012-.016-.006.035-.115.019-.124-.033-.016-.431.006-.447.016-.01.006.084.102.045.125-.045.027-.428.005-.45.032-.03.042.444.014.365.122-.218-.027-.573.044-.717.131.035-.025.247-.028.32-.02-.035.158-.488.156-.333.031-.099.067-.032.103-.087.166-.015.016-.155.019-.182.046-.003.006.141.065.112.097-.052.058-.477.045-.512.03-.098-.043.249-.095.278-.162.004-.01-.29-.14-.295-.151-.018-.124.31-.035.273-.146l-.243-.07c.312-.113.89-.055 1.04-.183-.464.038-.949.034-.948-.254 0-.122.2-.193.193-.223-.03-.11-.307.009-.318.003q-.012-.01-.012-.02c0-.064.396-.11.416-.14.033-.052-.143-.268-.143-.316.006-.01.288-.06.193-.144-.096-.084-.343-.086-.352-.094-.047-.05.385-.097.398-.126.007-.015-.225-.108-.232-.134-.006-.027.17-.085.24-.169.052-.062-.1-.11-.073-.12.02-.007.427-.005.447-.016.03-.017-.065-.091-.052-.11.02-.027.152 0 .135-.027-.013-.021-.524-.278-.52-.347.005-.117.546.153.043-.31-.004-.003-.126.03-.13.027-.075-.085.318-.216-.162-.193.893-.148.11-.176.243-.373.05-.076.397-.108.399-.119-.034-.096-.144-.022-.182-.069-.02-.026.29-.128.22-.194-.036-.034-.365-.022-.379-.028-.13-.063.03-.13.001-.175-.019-.03-.217-.032-.222-.038-.009-.01.26-.131.317-.174.042-.032-.118-.083-.088-.097.18-.085.56.131.193-.172-.022-.019-.161-.011-.165-.015-.086-.086.17-.094.216-.164.078-.122-.29-.054.016-.14-.23-.079-.357-.075-.626-.053.744-.062 1.006-.376.18-.368.263.004.234-.173.312-.176.05-.002.43.175.256-.221-.022-.05-.254.013-.181-.088.555.026.011-.064.01-.078C5.38.808 6.737 1 6.97.972c.271-.03.511-.214.57-.214.194 0 .033.093.076.127C7.66.92 8.21.74 8.237.75c.107.04-.002.15.01.156.132.068.87-.019 1.077.007C9.318.84 8.903.835 9.162.72c.302-.134.32.182.327.196l4.151-.01c-.017-.167-.921-.04-.942-.063-.12-.13 1.407-.128 1.595-.069l-.427-.109c.243-.193.781.058 1.133-.027.113-.028-.105-.103-.1-.108.127-.075.332-.017.18.084.31-.097.265.01.505.018.012 0-.09-.078.098-.11.09-.015.562-.016.626-.084.026-.029-.214-.331-.244-.07C15.55.24 15.9.485 15.7.48c-.03-.001.04-.147-.464-.078.096-.262.676-.066.775-.098.205-.065-.64-.2-.794.004.072-.205-.06-.028-.248-.036-.207-.01-.117-.07-.228-.07-.305-.002-.179.142-.43.012.245.403-.43.053-.627-.052l.96-.062-.054-.063.253.009-.04.06c.434-.131.54.017.576.018.456.018.983.016 1.445.017.07 0 .022-.132.526-.029.161.033.01.136.192.12.228-.278.224-.056.292-.056.195 0 .314-.069.332-.07.24-.01.593.001.857-.009.005-.001-.133-.087.04-.061.06.009.6.374 1.073.255l-.369-.074c.145.035 1.158-.058.91-.155-.152-.06-.523.175-.563-.051.337.068 2.199-.034 2.344.019.02.007-.103.08-.076.09.022.007.448-.01.505.018.034.017-.155.062-.14.089.014.018.547.05.577-.042-.13.037-.498.004-.306-.073.025-.01.154.05.184.037.28-.113-.556-.085-.685-.086.524-.118 1.336.02 1.944-.056.246.077-.364.117-.086.181.577.132.153-.106.171-.116.143-.077.631.338.632.022.209.047.141.087.436.046l-.116-.066c.327-.183 1.02.279.969.314-.14.094-.501-.053-.532-.05-.046.006-.172.326-.671.04-.205.215.791.145.338.291.306-.024 1.566.126 1.747.032.022-.013-.08-.227.232-.118.148.052-.208.055-.14.103.177.128 2.259.077 3.202.054l3.386.39-.31 2.687.01.372c0 .035-.067.022-.066.056.001.105.1.489.07.677.123-.39.132.368.119.561-.02.293-.138.275-.163.401-.095.488.182 1.243-.077 1.622.257-.021-.127.655-.129.962-.002.24.169.59.273.265-.012.416.036.853.051 1.243.003.064-.073-.024-.066.086 0 .01.076.023.083.118.065.78-.093.4-.14.546a1 1 0 0 0-.043.186c-.015-.455-.044-.979-.046-1.119-.165.12.031 1.007-.013 1.267-.002.01-.092-.022-.093-.013-.007.098.027.718.135.59.029-.034.029-.32.019-.658.02.092.122.023.126.04.05.196-.049.676-.062.847-.003.039.062.036.062.042-.014.155-.2.091-.009.25-.232.281-.034-.525-.185-.469-.116.044-.053 1.836.13 1.83-.02.007-.045.031-.072.082-.062.112-.042.61-.009.697.007.014.184.009.186.027.002.025-.04.23-.06.445l-.374 3.255-2.562-.153c-.167-.006-.339.003-.436.054l.373.054c-.742.042-.624.089-.374.128.012 0 .025.006.036.006.156.023.345.043.417.057l2.81.168.41-3.57q.006-.026.01-.028.008 0 .015.029l-.413 3.596-2.83-.17c-.183.054-1.19.119-.98-.042.033-.024.62.017.325-.084-.052-.018-.424.036-.444.024-.136-.079.674-.238.567-.354-.192.127-.45.08-.675.122-.102.02-.123.11-.136.112-.189.034-.087-.065-.15-.06-.035.004-.4.223-.343-.054-1.227.269-.332.22.427.162-.235.113-.708.09-.917.125-.076.013-.026.102-.153.127-.261.052-1.524.016-1.853.01.2-.044.136-.14-.02-.124-.154.015-.017.14-.046.156-.032.017-.763-.006-.884.018.546-.078.417-.17-.049-.155l.197-.097c-.27.055-.852-.064-1.008-.01-.024.008.07.086.056.091-.136.043-.612-.016-.632.014-.017.024.187.083.115.122-.015.008-.215-.094-.404-.056-.07.014-.023.09-.041.096-.146.046-.066-.091-.336-.055-.198.027-.339.164-.616.136.911.116.149.089-.225.16-.06.01 0 .151-.366.101.755-.3-.226-.124-.429-.116-.01 0-.02-.094-.119-.09-.008 0 .007.063-.085.073-.87.094-.316-.009-.485-.062-.072-.023-.492.09-.606.099-.027.001-.018-.066-.12-.057-.18.014-.337.094-.456.106-.014 0-.02-.104-.243-.057-.063.013-.132.054-.04.079.303.082.86-.12 1.202-.04.313.073-.656.135-.707.138-.018.001.168-.06-.025-.06-.164 0-.455.197-.702.171-.019-.002-.223-.144-.214-.153.008-.008.306-.057.26-.099-.005-.005-.196.007-.223-.025-.033-.038-.136-.428-.178-.435-.106-.019-.033.067-.1.065-.147-.005-.656-.094-.665.043l.25.01c-.461.04-.261.087-.325.117-.07.031-.056-.09-.213-.093-.034 0-.685.06-.67.11.356-.1.23.056.247.058.064.006.14-.082.225-.085.598-.02.003.145.146.171.049.009.142-.068.162-.065.068.008.074.1.118.09.103-.022-.025-.147-.017-.154.088-.088.458-.005.24.15.138.044.144-.13.256-.067.223.126-.101.108-.187.136-.308.1-.404.038-.846.085-.159.017-.343.112-.416.12-.047.006-.503-.264-.49.197-.174-.035-.458-.324-.634-.3-.157.021-.098.181-.112.188-.023.011-.214.01-.278.036-.074.031-.033.091-.152.123-.295.08-.297-.087-.328-.097-.364-.105-.195.123-.273.146-.072.022-1.11-.012-1.325.06l.26-.115c-.164-.095-.323.083-.336-.102-.016.302-.354.119-.452.132-.038.005-.032.056-.08.061-.19.02-.618.002-.72.034-.437.136.708.26.798.265-.179.007-1.187.13-.714.248.073.019.193-.123.233-.13.272-.05.063.082.085.093.038.016.211-.11.26-.099.016.004-.08.118.18.106-.122.113-.86.067-.954.097-.034.011.193.225-.446.04l.025.062-1.046.083c.035-.05.226-.158-.02-.124-.141.02-.03.122-.043.126-.126.036-2.386.125-2.823.16-.149.013-.559.122-.59.125-.19.02-.862 0-.995.02-.083.012.001.097-.074.097-.07 0-.002-.09-.023-.093-.125-.016-.835.076-1.336.104L0 20.097l.448-3.899c0-.19.008-.351.03-.436-.009.07.01.245.04.436l-.441 3.834 4.792.285c.317-.067.676-.17.663-.207-.005-.009-.237-.062-.282-.027-.066-.057-.243.089-.386.13l-4.67-.28.43-3.735a.2.2 0 0 1-.002-.097c.005-.016.134.048.157-.211.008-.09-.092-.323.02-.559-.054-.34.113-2.132-.025-2.255-.007-.004-.055.248-.112.078-.075-.227.18-.023.201-.287.003-.04-.022-.775-.038-.799-.143-.223-.2.42-.217.41-.042-.022-.067-.555-.057-.577.01-.02.199.414.127-.108l-.067.18c-.044-.247.086-.27.094-.33.026-.185-.173-.385.072-.682.065-.079.138.052.147.042.088-.094-.146-.214.028-.356.013-.01.118.319.118-.258l-.05.12c-.037-.082-.06-.666-.05-.744.025-.23.145-.03.131-.26-.165.148-.186-.553-.044-.513-.179-.098-.041-.694-.037-.974.003-.176-.075-.537-.066-.593.011-.068.133-.047.16-.17.007-.036-.082-.404.044-.726.024-.063.23-.194.282-.078.088.2-.078.575.044.57.13-.005.053-.512.07-.648.079-.63.217-.266.259-.283.102-.042.099-.386.108-.4.04-.06.121.184.184.188.08.004.227-.327.254-.252.039.108-.083.413-.077.432.078.252.265-.093.357-.188.029-.029.075.086.083.062.126-.365-.263-.077-.237-.32.024-.216.146.063.153.054s.014-.27.058-.31c.022-.02.26.653.368.625l-.07-.644c.139-.017.036.292.05.324.03.064.1-.115.144-.107.029.004.129.214.17.024.015-.065-.084-.202.017-.44.128.827.206.254.256.23s.166.37.145-.109c.272-.02.086.01.134.147.059.167.148-.22.08.391.128-.035.119-.525.129-.551.01-.023.072.086.093.048.246-.46.134-.144.291-.278.014-.011.072-.446.095-.115.042.603-.139.855.247.956.168-.446-.081-.986-.085-1.122-.007-.207.072.008.094-.018.007-.009 0-.188.007-.19.294-.127.005.796.056 1.087l.132-.234.006.317c.088-.504.033-.018.272.108.053.028-.039-.303.11.075.035-.279.083-.19.016-.442.096.006.203.574.252.797.108-.79-.243-.34-.057-1.022-.119-.127-.096.199-.115.172-.07-.095.041-.319-.205-.589-.04-.043-.165.142-.159-.133a.8.8 0 0 1 .115-.203c.083.023.052.197.087.204.033.007.013-.187.022-.188.104-.005.04.162.073.138.07-.053.295-.749.23.16-.119-.755-.116-.097-.07.197.01.075.073.094.095.2.028.138-.002.299.01.37.012.076.159-.358.115.27.146-.32-.01-.885.093-1.199.208-.633.252.442.273.554.005.03.09-.07.094-.05.008.032-.03.643.039.703.07.06-.003-.224.07-.242.048-.013.135.723.168.324.023-.274-.173-.78.038-.866l.052 1.212.24-.663c.026.453-.065.845.05 1.276.257-1.035.205.336.237.35.018.006.227-.401.265-.467.08.36.12 1.458.377.816-.058.116.086.398.097.395.114-.036.04-.651.143-.55.119.115-.043.278-.03.457.067.918.662.666.568 1.586l.063-.054-.101 3c.181.392.292 1.433.272 1.945a6 6 0 0 1-.116.647c-.032.07-.044-.318-.104-.142-.012.037-.052.893.05.832.01-.096-.04-.397-.016-.446.082-.166.093.363.09.97l-4.34-4.11c.648-.032 1.387-.053 1.453-.092l-.18-.09zM.667 10.325c-.102-.1-.026-.35-.054-.499-.04-.204-.433-.552-.04-.402zm-.152 4.39c.055-.202.274-.046.183.12-.01.018-.257.152-.183-.12m.104-2.112a2 2 0 0 1-.006.189c-.088.156-.07-.369.006-.189m10.834 7.138c-.221.022-.05.212.084.123a.34.34 0 0 0-.084-.123m-.158.004c-.182-.17-.509.211-.235.16.026-.005.243-.152.235-.16M.602 13.997c.069.022.036.23.02.319-.063-.003-.012-.232-.02-.32m7.323 6.049c.006-.055-.715-.012-.76.062.112-.037.755-.013.76-.062m1.845-.177c-.019-.009-.267.02-.257.066.125.056.342-.029.257-.066m3.676-.2c.013-.012-.19-.303.263-.129.066.026-.162.117-.138.127q.074.026.12.026c-.205.036-.419.06-.44.043-.102-.082.19-.06.195-.066m1.917-.33c.04-.052.312-.04.375-.023.01.003-.028.135.093.119.097-.014-.056-.138.136-.128.194.011-.059.12-.041.126.023.007.318-.069.312.009-.003.057-.325.036-.403.053-.1.02.027.11-.143.098-.107-.007-.057-.177-.08-.185-.02-.005-.385.111-.248-.069zm-1.618.344a.14.14 0 0 1-.055.01zM.74 10.907c-.051.104-.118-.206-.05-.324.055-.002.058.307.05.324m13.189 8.629c.308.025.086.095-.184.147.085-.037.08-.155.184-.147m-8.679.547q.021.015.026.062c-.036-.033-.04-.051-.026-.062m.717.017c.239-.11-.258-.08-.25-.01.002.027.24.015.25.01m5.77-.365c-.022-.008.31-.321-.183-.073.271.02-.011.068-.006.093.015.073.464-.022.566.004.07-.137-.3.003-.376-.024m7.107-.516c-.057.081-.253.067-.384.07.057-.082.253-.067.384-.07M19.23.011c.9-.072 1.017.244.193.12-.016-.003-.248-.088-.193-.12m7.729.082c.084.138-.196.16-.38.103-.043-.013-.197-.153-.02-.18-.006.167.266.231.4.077M14.096 19.438c.084-.097.362-.046.507-.04-.084.08-.378.062-.507.04M22.188.176c.095.01.159-.11.143-.12-.074-.046-.251.051-.143.12m-8.977 19.297c-.015-.055.345-.127.377.007-.078-.006-.366.026-.377-.008m5.384-.281c-.058-.025.23-.091.32-.069-.003.06-.282.085-.32.069M23.716.135c.085.01.298.014.321-.035.03-.06-.282-.04-.32.035M7.901.24C7.89.218 8.219.06 8.365.1c.278.077-.453.155-.464.14M21.29.238c-.269-.114.03-.004.017-.124-.18-.004-.629-.01-.32.108.06.023.218.008.303.016m.247.04c.029-.039.222-.162.055-.153-.077.004-.202.14-.055.153M9.938.186c.24.107-.86.05-.892.031A.1.1 0 0 1 9.012.19c-.04.034-.249.04-.273-.045.062.007.233 0 .253.009l.019.011c.073-.074.881.001.927.021m1.825.11c-.275.157-.323-.11-.3-.119.3-.109.105.088.114.097.02.016.233-.076.185.022zM10.313.23a3 3 0 0 1-.252-.009c-.19-.09.464-.066.251.01m6.494 18.843c.167.017.01.124-.101.095-.01-.003-.046-.11.101-.095M21.67.25c.038.019 1.018.089.96-.06-.084.018-1.198-.058-.96.06m7.324.036c-.173 0 .016-.14.108-.088.034.019-.065.089-.108.088M12.715 19.373c-.175.086-.152-.173.008-.094a.2.2 0 0 1-.008.094M27.612.207c.596-.085.455.359-.32.209l.073-.06c-.894-.066-.061-.03.158-.055.083-.01.013-.084.089-.095zm2.29.089c.574.315-.522.11-.836.15.304-.13.701-.11.162-.243.788-.025.46.1.491.11.038.012.158-.03.183-.017m-1.514.002c-.034.01-.284-.055-.374-.044.126-.108.594-.018.374.044M13.676.223c-.02.084-.072.146-.269.115.061-.043.187-.08.27-.115M1.11 10.135c.006-.136.038-.406-.05-.324-.008.01 0 .323.05.324M24.515.32c.03.01.776.017.518-.076-.078-.028-.758-.016-.518.076m-3.87-.01c.063 0 .317-.016.322-.036.017-.069-.294-.03-.322.035M1.196 9.45c.009-.018-.006-.433-.047-.388-.078.087.017.449.047.387m16.2 9.393c.035-.006.086.083.098.084.028 0 .66-.07.425.06-.04.022-.955.027-1.074.022-.053-.123.344-.025.438-.043.016-.004.021-.109.113-.123M12.649.312c-.027.08-.774.132-.765.036zm.38.013c.16.056-.214.075-.324.05-.001-.053.3-.058.324-.05m9.033.282c.075-.02-.155-.136-.104-.158.033-.014.2.03.254-.007.016-.012-.155-.121-.205-.116-.07.006-.002.092-.079.093-.254.001-.48-.06-.719-.059-.021 0 .146.062-.038.06-.028 0-.199-.09-.419-.077-.485.281-.842.006-1.458.107.023.026.484.097.511.1.515.046 1.438.051 1.978.052.138 0 .07-.06.13-.062.047-.001-.009.109.15.067m-20.89 9.6c.11-.065.04-.292.046-.437-.1.051-.022.295-.046.437M16.38.41c.073-.004.298.029.317-.004.024-.043-.302-.07-.317.004m4.594 18.267a2 2 0 0 1 .188-.004c.161.08-.364.09-.188.004m4.18-.208c.132-.021.264-.063.313.024-.085-.01-.325.039-.313-.024m8.879-3.79c-.117.027-.041-.372-.03-.447.051.027.114.427.03.447M13.705.589c-.244-.006-.192.17-.347.09-.026-.013-.107-.381.16-.243.05.024-.14.112.187.153m13.46-.177c-.061.078-.255.055-.386.048.029-.057.294-.042.387-.048M1.286 8.7c.109-.115.028-.644-.044-.513-.01.019.048.439.044.513m13.412 10.352c.213-.097-.239-.1-.376-.008.064-.009.362.015.376.008m14.834-.89c.01-.004.241-.008.252-.005.194.08-.46.092-.252.005m-5.759.24c.08-.075.628-.047.755.016-.113.11-.853.079-.755-.015M14.71.54a2.4 2.4 0 0 1-.5-.048c.034-.06.481.004.5.048m15.667 17.57c.012-.001.025.005.036.005zM18.608.58c.146.024.116-.086.107-.089-.11-.035-.272.062-.107.089M1.333 10.04c.098-.051.022-.297.045-.438-.077.041-.056.324-.045.437M30.516.496c.184.107-.562.231-.72.162-.011-.066.694-.176.72-.162M14.014 18.942c-.019-.076-.326.034-.258.067.043.02.27-.02.258-.067M29.421.614c-.07.024-.233-.052-.176-.099.074-.059.194.093.176.1m-6.29.062c.031.012.444-.067.273-.146-.118-.054-.137.057-.165.057-.03 0-.692-.136-.107.09M33.897 7.87c-.03-.156.005-.344.002-.507.048.067.061.44-.002.507M15.22 18.855c-.04-.029-1.068.009-.48.072.035.004.6.016.48-.072M13.705.59q.046.001.108.013-.061-.006-.108-.013m2.773.012c-.056.056.227.071.31.041.026-.068-.302-.049-.31-.04m17.342 6.75c-.032-.094.002-.264-.002-.38.053.02.055.34.002.38m-.059 6.586c.031-.187.017-.416-.047-.42a.1.1 0 0 0 .032-.027c.01-.015-.02-.215.002-.302.13-.519.076 2.004-.104.542zm-10.736 4.356c-.11-.072-.4.042-.322.068.055.018.432.005.322-.068m4.059-.269c-.033-.012-.318.058-.323.1.168.033.47-.043.323-.1m-4.875.223c-.067-.008-.145.122-.137.127.07.042.252-.063.137-.127M14.21.927c.099.036.413-.055.482-.138a.3.3 0 0 0 .11.062c.084.034 2.628.07.922-.09-.054-.004.02.07-.198.057-.014-.001-.022-.062-.066-.065-.102-.006-.646-.044-.755.005q0-.018-.023-.032c-.134-.087-.549.173-.472.201m13.444 17.055c-.059-.02-.242.012-.258.066.093.021.396-.021.258-.066m-12.48.656c-.12-.038-.416.06-.323.1.057.023.463-.057.323-.1m10.64-.527c.682.026.162-.014.262-.098zM11.067.724c.108.018-.019.173-.138.09-.038-.027.077-.1.138-.09M6.173.773c.093.137-.359.056-.183-.038.008-.003.177.032.183.038m3.42.056c.073-.094.12-.105.328-.082-.307.026-.022.11-.329.082m24.111 12.69.01-.001zm-12.132 4.787c-.09-.074-.327-.055-.252.02.008.008.22.04.252-.02M14.692.79q-.015-.02.014-.031 0 .015-.013.031m8.155 17.383c-.006.06.358.062.372.054.203-.113-.223-.066-.372-.054m-10.072.514c-.018.008.111.153.182.09.054-.05-.113-.117-.182-.09M8.89.866c-.115 0-.277 0-.307-.072.077.011.309.02.307.073M6.35.873c.136-.085.446-.085.644-.07.004.111-.517.044-.644.07m7.55.013c.009.005.297.038.258-.037-.058-.11-.34-.004-.259.037m-.561 17.851c.125-.058-.18-.2-.308-.07-.067.066.286.08.308.07m7.484-.492c-.167.052.258.106.312.025-.078-.002-.252-.044-.312-.025m5.772-.397c-.547-.197-.233.2-.14.158.013-.006.154-.153.14-.158M1.737 7.37c-.032-.075-.145.207-.07.244.046.023.09-.195.07-.244m31.904 3.542.002.067a.2.2 0 0 1-.002-.067m-14.375 7.114c.394.298.34.054.373.054.071 0 .24.077.373.055l-.452.133c.122.016 1.176.076 1.195.023.027-.075-.301-.034-.311-.04-.014-.008-.077-.21-.108-.216-.051-.01-.927.034-1.07-.01m6.213-.082c.087.02.116.1.155.078.013-.008.01-.085.056-.108zm-6.872.406c-.112-.09.368-.08.384-.07.085.06-.293.142-.384.07m4.055-.237c-.018-.005-.386-.014-.38.038.099.035.59.02.38-.038m3.085-.207c.13.002.378.066.344-.049h-.001zm-11.981.56c-.25-.172-.124.056.091.104.06-.087-.05-.076-.091-.104m-.773-.096c-.068-.03-.751.044-.642.137.04.033.429-.077.447-.071.028.008-.091.124.118.09-.015-.035.1-.146.077-.156m.568-.012c-.245-.128-.284.135-.105.126.07-.003.14-.107.105-.126m.972-.031c-.087-.02-.317-.044-.47.052l.632-.013c.021-.05-.087-.021-.163-.039M4.92 1.54c.189.074-.247.102-.265.084-.055-.06.18-.117.265-.084m-.815 4.354c.03-.052.126-.087.075-.202l-.214.349c.164.09.106-.09.139-.147m.599-.444c.004.017.256-.073.088.14-.114.143-.225-.637-.113-.778.052.156-.007.497.025.638m1.092-1.365c.02-.01.05.287.035.321-.074.18-.143-.273-.035-.321m-.048.945c.049-.14.08.168.052.26-.047.009-.06-.239-.052-.26m1.086.163c.15.172.284-.197.053-.123a.3.3 0 0 0-.053.123m-.784-.819c-.049.14-.08-.168-.052-.26.047-.009.06.24.052.26m.89 1.228c.199.123.129-.291.104-.308-.103-.066-.455.097-.527.137.527-.062.328.113.422.17m.92-.249c.185-.044-.288-.129-.378-.013.092-.006.325.026.378.013m1.124.133c.1.015.396.05.445-.015-.108.012-.403-.052-.445.015m.225.195c.156.089.193-.17.014-.093a.2.2 0 0 0-.014.093m.875.093c.102.103.219-.147.053-.154-.049-.001-.064.142-.053.154m-2.895.273c.146.044.335-.135.023-.154l.329-.082c-.41-.1-.38.147-.497.137-.164-.014-.15-.22-.118-.283-.134.125-.706.127-1.036.15.29.054.761.145 1.048.178.081.01.16-.046.23-.04.112.01.013.091.02.094zm4.045-.27c.3.117.11-.134-.059-.09-.007.004.052.088.06.09m-4.421-1.8c-.105.4-.244.109-.033.948-.15-.353-.108-.02-.168-.089-.048-.055-.008-.261-.104-.141.104-.158.076-.844.092-.875v.001c.01-.018.246.028.213.155M8.985 6.14c.1.304.14-.179.336.073.262-.366-.723 0-.843-.31 1.07.037-.707-.306.04.157-.615-.168-.201.058-.296.117-.102.063-.45-.006-.432.108l.639-.024c-.208-.245.227-.171.374.028zM7.78 5.91c.021.006.484-.028.454-.078-.062-.03-.719.007-.454.078m-2.039.054c.167 0 .424.048.515-.044-.167 0-.424-.049-.515.044m8.564.017c.212-.076-.44-.098-.251-.008.009.004.241.012.251.008m-4.837.113c.215.093.113-.203-.046-.126-.01.004.036.122.046.126M6.849 4.3c.073.015.022.596.023.7-.068-.059-.106-.716-.022-.7m-1.4 1.936c.332.26.78-.04.83-.034.049.007-.028.12-.017.124.026.006.547-.003.573-.011.018-.006-.077-.167.03-.217-.21.091-1.162.034-1.212.052-.038.014.25.182-.203.086m.953.001c-.13-.067.235-.076.324-.05.196.055-.307.058-.324.05m.879.062c.041.015.418.029.45-.046-.178-.097-.545.01-.45.046m4.19-.01c.097-.01.366.048.382-.018-.098.01-.367-.047-.382.018M7.42 6.286c.054-.162.077.214.05.324-.043.006-.055-.31-.05-.324m2.085.434c.058.02 1.24-.03 1.405-.06-.162-.05-1.333-.053-1.386-.029-.015.007-.026.086-.019.09m-2.555.03c-.108.097-.179-.019-.192-.02-.134-.015-.412.007-.351-.086.236.038.759-.084.543.107m4.605-.025c.4-.035-.37-.137-.269-.036.007.006.227.04.269.036m-2.182.024c-.088.077-1.27.01-1.46.01.17-.143.307-.034.535-.042.062-.002.046-.061.052-.062.107-.002.027.067.093.068.041 0 .905-.084.78.026m-2.484.068c-.067.055-.804.079-.834.064-.222-.109.776-.083.834-.064m2.592.059c-.127.167-.713.055-.312-.028.039-.008.201.065.312.028m2.03.008c.02.005.439.038.446-.015-.06-.02-.67-.039-.445.015m-.216.18c.01-.002-.088-.104.108-.091.016.001.047.116.293.074.05-.009.128-.085.122-.09-.256-.18-1.03.166-.523.106m-4.42-.154c.04.049-.056.193-.143.12-.037-.032.033-.118.143-.12m5.963.02c-.243.088.52.104.559.082-.025-.054-.535-.09-.56-.082m-4.744-.263v-.001c-.02.204-.093.078-.095.087-.107.436.058.32.077.389.042.146-.158.122-.075.368-.122-.407-.07-.036-.142-.025-.29.046.136-.542.075-.745-.008-.028-.101.18-.127.108-.086-.235.362-.966.287-.181m-1.428.376c-.095.085-.815.002-.624-.068.03-.011.763-.057.624.068m20.626 6.411c-.074-.173-.16.228-.103.303.028.037.135-.227.103-.303m1.657-2.264c-.204.026-.404.346-.151.284.027-.007.177-.242.151-.284m.647-3.864c.215.11.202-.094.045-.091-.056 0-.051.088-.045.091m-2.435 3.634c-.008.022.005.27.052.26.029-.09-.003-.399-.052-.26m2.367-3.605c.128-.037-.091-.184-.247-.04.079-.012.234.044.247.04M9.925 7.328c.106-.084.408-.059.58-.073.02.109-.457.053-.58.073m19.902 3.938c-.19.087.23.127.186.028a1.3 1.3 0 0 0-.186-.028m-7.154-3.9c.142-.064-.307-.152-.184-.038.006.005.177.042.184.038m-1.96-.037c.107.022.564.015.386-.048-.027-.01-.378-.012-.386.048M8.155 7.154c.111-.058.085.277.065.325-.008.02-.21-.25-.065-.325m18.962-2.99c.014.111-.013.4.046.45-.012-.136.07-.486-.046-.45m-.018 10.341a.46.46 0 0 0-.081.265l3.426-3.62c-.095.008-.159.054-.115.137a.4.4 0 0 0 .121-.025l-3.32 3.508c-.036-.084-.105.076-.03-.265m1.714-7.02c.09.01.157-.142.147-.15-.096-.068-.235.092-.147.15M27.1 8.67c-.065.005-.036.29.006.252.014-.012.046-.257-.006-.252M13.663 7.365c.13.06-.269.117-.387.048-.057-.1.37-.055.387-.048m12.681.083c-.013.096.433.042.257-.038-.044-.02-.252.006-.257.038m-4.27.116c.299-.115-.958-.197-.628-.054.024.01.601.063.628.054m-2.053-.072c.052.012.026.337-.187.212-.028-.016.103-.102.08-.122a4 4 0 0 0-.5-.049c-.023.009.005.113-.019.124-.026.013-.312-.078-.462-.079-.282-.002-.312.085-.336.085-.067 0-.18-.06-.317-.06-.689 0-1.743.073-2.289-.11.486.074.95-.005 1.433-.029-.142.181.712-.139.213.07.23-.046 2.215-.082 2.384-.042m8.113 3.652c.12-.118-.525-.057-.573.074.086.013.558-.06.573-.074m-1.52 2.943c-.018-.06-.235-.117-.125-.432v-.001c.032-.093.085.012.104-.004.007-.007.115-.294.132-.055.027.364-.16.034-.163.228 0 .024.117.392.143.37.003-.002-.022-.112-.011-.13.04-.07.107-.036.11-.046.009-.032-.106-.613-.006-.698.033-.027.108.927.09.964-.01.024-.198.014-.216.038-.01.013.061.397.044.447l-.001.002 3.713-3.922-.033-.013c.061.055-.286.07-.279.004.005-.026.245-.024.253-.02l.01.005c-.009-.012.01-.023.045-.034l-3.767 3.98c-.04-.165-.054-.683-.14-.54-.058-.234.154.034.098-.143m-.115-1.129.06.073c-.05-.41.046-.885.045-1.359 0-.12-.12.018-.088-.14.027-.126.139-.265.164-.197.006.017-.067.274-.06.403.023.38.126.283.13.306.002.024-.07.263-.068.393.009.329.072.478-.01.927-.069-.26-.217-.117-.173-.406m-2.04-5.217c-.016.065-.285.007-.382.017.015-.066.284-.008.382-.017M7.502 12.027c-.077.111.543.104.375.024-.037-.018-.297-.028-.375-.024m2.782-.088c.08-.034-.257-.092-.251-.01.002.027.24.015.25.01m16.32-4.295a2 2 0 0 1 .026-.25c.114-.152.048.599-.026.25m-12.95 3.978c-.285.086.585.069.315-.006a4 4 0 0 0-.315.006m1.205-.086c-.069.008-.378-.01-.38.023-.003.053.35.07.38-.023M28.753 7.89c.033.12-.372.03-.513.045-.033-.121.372-.03.513-.045m-2.272-3.404a12 12 0 0 1-.021-.669L30.643 8c-.662 0-.579-.092 0-.104l-4.079-4.079a9 9 0 0 1-.024.77c-.077.003-.053.007-.059-.101m2.642 3.479c.063-.078.257-.055.388-.048-.024.053-.293.034-.388.048M6.756 11.902c.102-.103.583-.01.5.036-.019.01-.536.02-.5-.036m19.745-4.401c-.117.04-.07-.473-.043-.513.104-.158.017.471.043.513m-.174.492c-.09.092-.348.045-.513.044.075-.079.373-.045.514-.044m1.195.072a3 3 0 0 1-.251-.009c-.19-.09.464-.067.252.01M8.977 6.383c.003.008-.003.183-.007.189-.088.156-.07-.369.007-.189"/></svg>