<svg width="13" height="64" viewBox="0 0 13 64" fill="none" xmlns="http://www.w3.org/2000/svg">
<path d="M1.25677 58.0951C0.670525 58.2382 1.05482 57.7604 0.17931 58.0777C0.120157 58.0115 0.0591497 57.945 -2.54262e-06 57.8788C0.32424 57.862 0.647692 57.8448 0.971934 57.828C1.06741 57.9169 1.16288 58.0058 1.25836 58.0951C1.25783 58.0951 1.2573 58.0951 1.25677 58.0951ZM5.31748 58.2164C4.39267 58.135 4.1461 57.8763 3.29268 58.1558C3.61007 58.178 3.92739 58.2007 4.24478 58.223C3.99862 58.32 3.75252 58.4176 3.5077 58.5147C3.6287 58.5496 3.74984 58.5844 3.8695 58.6193C3.31796 58.6637 2.76493 58.7078 2.21205 58.7522C2.29277 58.7128 2.3749 58.6728 2.45563 58.6333C2.00774 58.4773 1.88525 58.3385 1.80185 58.1268C1.67134 58.1454 1.54199 58.164 1.41149 58.1826C1.63346 58.0751 1.85599 57.9677 2.07796 57.8607C2.29585 57.9536 2.53817 58.0575 2.74126 58.1437C3.60604 58.0058 3.12474 57.7627 2.94437 57.6361C2.69817 57.4638 3.10937 57.5028 2.93723 57.3749C2.91032 57.3545 2.58802 57.3522 2.58257 57.3118C2.55701 57.1082 2.72785 56.7127 3.47993 56.944C3.38306 57.2791 3.987 57.565 3.76635 57.8938C4.63597 57.8068 4.93189 57.98 5.31748 58.2164ZM2.54846 52.0593C2.97081 52.1609 2.80036 52.3677 2.5072 52.5079C2.5072 52.508 2.5072 52.5082 2.5072 52.5083C2.44262 52.5392 1.88133 52.609 1.9042 52.5083C1.9434 52.3442 2.82694 52.2648 2.22712 52.1787C2.33878 52.1401 2.43814 52.0996 2.54846 52.0593ZM2.49609 51.7026C2.71269 51.6019 3.37845 51.6475 3.19826 51.7736C3.19879 51.7736 3.19932 51.7736 3.19985 51.7736C3.12451 51.8262 2.59829 51.7229 3.13241 51.9116C2.71687 51.9502 2.33882 51.9881 1.93673 52.0262C1.93001 51.98 1.9191 51.9378 1.91372 51.8894C2.59675 51.922 2.28118 51.8032 2.49609 51.7026ZM3.10385 56.7738C2.48938 56.758 2.49326 56.8243 2.06685 56.9372C2.08703 56.8306 2.10856 56.724 2.12874 56.6179C2.45418 56.6701 2.7784 56.7217 3.10385 56.7738ZM3.00864 59.2774C3.00864 59.2776 3.00864 59.2777 3.00864 59.2779C3.1055 59.3128 3.20272 59.3478 3.29823 59.3823C3.07893 59.4032 2.86059 59.4238 2.64128 59.4447C2.84713 59.568 3.05296 59.692 3.26015 59.8154C2.59026 59.8004 2.69926 59.579 2.23109 59.457C2.43291 59.2756 2.82175 59.1882 3.38948 59.1764C3.26306 59.2099 3.13505 59.2434 3.00864 59.2774ZM5.67928 29.6098C5.49367 29.5685 5.30791 29.5278 5.1223 29.4865C5.03759 29.5414 4.97293 29.5958 4.87476 29.6511C5.68189 29.7957 4.96793 29.8093 5.01757 29.9989C5.17094 30.5798 6.42456 30.4257 4.58833 30.9504C4.67568 30.5291 3.81288 30.691 3.14828 30.437C3.65415 30.3844 4.79506 30.6361 5.03185 30.4656C4.49647 30.1717 3.99783 29.8891 3.6521 29.5631C3.56466 29.5726 3.47692 29.5821 3.38948 29.5916C3.44464 29.6433 3.50014 29.6946 3.5553 29.7463C3.3212 29.6905 3.08913 29.636 2.85234 29.5793C3.38371 29.651 3.0868 29.4683 3.69733 29.4928C3.9691 29.5037 4.34613 29.5844 4.60579 29.632C4.74703 29.5091 4.8764 29.3831 5.01361 29.2588C5.23013 29.3232 5.44689 29.3875 5.66341 29.4515C5.67014 29.504 5.67494 29.5562 5.68166 29.6088C5.68087 29.6091 5.68008 29.6094 5.67928 29.6098ZM2.85392 3.16085C3.48626 3.31686 3.59089 3.60037 2.88725 3.74959C2.87648 3.55321 2.86469 3.35722 2.85392 3.16085ZM3.85759 59.1646C3.7501 59.1822 3.64376 59.1993 3.53626 59.217C3.33719 59.139 3.13948 59.0606 2.9404 58.9826C3.25106 58.9676 3.56177 58.9523 3.87108 58.9369C3.86705 59.0126 3.86163 59.0888 3.85759 59.1646ZM3.51166 54.1747C3.53046 54.2318 3.52028 54.2369 3.47596 54.3079C3.47622 54.3078 3.47649 54.3078 3.47675 54.3077C3.4602 54.3358 3.27875 54.5715 3.03958 54.5453C3.03554 54.4282 3.03958 54.3034 3.03958 54.1837C3.19691 54.1801 3.35299 54.1793 3.51166 54.1747ZM3.37202 55.5521C3.37149 55.5523 3.37096 55.5524 3.37044 55.5526C3.3341 55.5952 3.26014 55.6355 3.24666 55.6795C2.87023 55.5212 3.54559 55.4962 3.35457 55.3525C3.16219 55.2087 2.78956 55.1199 3.71478 54.9979C3.85335 55.0433 4.0516 55.0921 4.21305 55.1388C3.8431 55.3429 4.19125 55.3978 4.5558 55.5615C4.16031 55.5584 3.76751 55.5553 3.37202 55.5521ZM3.80761 32.1963C4.265 32.2353 3.81619 32.2787 3.81078 32.2833C3.81025 32.2832 3.80973 32.2831 3.8092 32.283C4.23279 32.6285 3.55601 32.2381 3.48469 32.5641C3.37037 32.5156 3.24966 32.4679 3.134 32.4198C3.35458 32.3455 3.60453 32.2688 3.80761 32.1963ZM3.76477 43.4208C3.63157 43.424 3.49808 43.4278 3.36488 43.4309C3.39583 43.235 2.87149 43.1851 3.34901 43.0222C3.48891 43.1551 3.62781 43.2879 3.76635 43.4208C3.76582 43.4208 3.76529 43.4208 3.76477 43.4208ZM4.48043 53.1872C4.73471 53.4045 4.84675 53.5652 4.44314 53.7738C4.44261 53.7739 4.44208 53.7741 4.44155 53.7743C4.41671 53.7863 4.13805 53.7281 4.06785 53.7438C4.10953 53.7869 4.1736 53.8313 4.22336 53.8748C4.00021 53.8807 3.77711 53.8863 3.5553 53.8922C3.61853 53.7698 3.6817 53.6473 3.74493 53.5244C3.61443 53.5425 3.48507 53.5611 3.35457 53.5792C3.28731 53.4749 3.2203 53.371 3.15304 53.2667C3.51886 53.303 3.88476 53.3392 4.25192 53.375C4.32858 53.3125 4.40243 53.2498 4.48043 53.1872ZM5.22227 40.159C5.07697 40.1935 4.83326 40.1297 4.70814 40.1832C4.5846 40.2367 4.85576 40.3354 4.44552 40.3122C4.3904 40.2402 4.32719 40.1645 4.26938 40.0911C3.52962 40.3274 4.19902 40.5631 3.28554 40.5667C3.52232 40.34 3.41232 40.1535 3.15939 39.934C3.88449 39.9431 4.51143 40.1626 5.19212 40.0244C5.20154 40.0688 5.2153 40.1155 5.22069 40.1585C5.22122 40.1587 5.22174 40.1588 5.22227 40.159ZM12.9502 62.3383C12.895 62.4726 13.1909 62.7802 12.7685 62.9498C12.6644 62.9915 11.3158 63.1306 11.138 63.1299C10.5393 63.1258 10.4578 62.956 10.0677 63.1378C10.0636 63.0767 10.0411 63.0173 10.0304 62.9566C9.62811 62.9674 9.2269 62.9783 8.82598 62.9887C8.88652 63.0626 8.94737 63.1367 9.00925 63.2106C8.87606 63.2142 8.74257 63.2178 8.60937 63.2215C8.60668 62.9557 8.0926 63.1126 7.61363 62.9747C7.37151 63.1017 7.13057 63.2296 6.88845 63.3561C6.91804 63.2831 6.93996 63.1969 6.97493 63.1325C6.29288 63.1239 6.45549 63.2775 6.32909 63.3039C5.61474 63.4522 5.97528 62.6972 4.98266 62.6354C4.87236 62.756 4.76472 62.8825 4.65577 63.0059C4.53335 62.9705 4.41085 62.9347 4.28842 62.8993C4.97304 62.6195 5.21558 62.3057 5.64199 61.9797C5.61376 61.9502 5.58478 61.9207 5.55789 61.8917C5.24991 61.9003 4.94312 61.9085 4.63514 61.9171C4.59882 61.8726 4.56277 61.8276 4.52645 61.7832C5.54077 61.9142 5.52695 61.7328 6.14581 61.5137C6.50228 61.6303 6.28616 61.774 6.95034 61.7641C6.43933 61.3641 7.1615 60.8957 6.58457 60.5066C6.44198 60.41 5.58519 60.4103 5.66421 60.1833C5.75838 60.191 5.92841 60.1923 6.05219 60.1973C5.64184 59.8045 5.39654 59.5662 5.81496 59.158C5.50701 59.1816 5.19778 59.2048 4.88983 59.2284C5.04321 59.315 5.19902 59.4018 5.35239 59.4879C4.84388 59.5469 4.61945 59.4598 4.62483 59.7183C4.62887 59.9301 4.8534 59.804 5.00408 59.8616C5.2098 59.9396 4.80511 60.008 5.03503 60.0919C5.21127 60.1567 5.63085 60.0866 5.52456 60.2558C4.98102 60.1877 4.41977 60.1183 3.8695 60.0498C3.99193 60.0086 4.11624 59.9676 4.24002 59.9263C4.38533 59.9681 4.52872 60.0091 4.67402 60.0508C4.41303 59.9039 4.16687 59.765 3.89647 59.6131C4.68219 59.6626 4.3876 59.5055 4.29477 59.4203C4.14962 59.2874 4.69037 59.4012 4.60023 59.3142C4.5087 59.2271 3.90458 59.1332 4.03373 58.9758C4.38348 59.0601 4.69711 58.9454 5.01995 58.9676C5.34278 58.9898 5.41426 59.1563 5.76656 58.9963C5.49883 58.6889 4.26941 59.0225 4.07023 58.8148C3.83077 58.5654 5.83482 58.5061 6.26562 58.5804C6.60466 58.6389 6.53647 58.8402 6.87417 58.8992C7.4836 58.5386 6.28049 58.5355 6.04505 58.4738C5.1881 58.2498 7.47535 58.4003 6.64804 58.135C7.07577 58.14 7.46047 58.144 7.8707 58.149C7.79268 58.1032 7.68899 58.0728 7.62712 58.0175C6.79373 58.1806 6.82945 58.0471 6.82815 57.9786C6.82546 57.8707 6.41896 58.0374 6.31402 58.0088C6.03319 57.9317 6.16071 57.8098 5.79353 57.8846C5.9644 57.851 6.13577 57.8147 6.30529 57.7802C6.09239 57.6541 4.30715 57.3577 4.66767 57.6398C4.00439 57.6135 4.32319 57.5222 4.42409 57.451C4.52491 57.3798 4.10249 57.3812 4.18052 57.3186C4.49266 57.0696 5.21524 57.2325 5.78163 57.2719C5.39149 56.9431 5.13337 57.265 4.87238 56.7912C4.41091 56.7454 3.91849 56.9643 3.6521 56.782C4.4538 56.7485 5.02971 56.6142 5.29606 56.3526C5.11174 56.3272 4.92578 56.3018 4.74146 56.2764C5.48143 56.1336 6.2509 56.2066 5.33335 55.9422C7.02179 56.0841 5.94161 55.9865 6.629 55.7498C6.76758 55.7017 7.11788 55.8128 7.29547 55.7457C7.37556 55.7153 7.11114 55.6414 7.31531 55.5671C7.4162 55.5308 8.06724 55.3612 7.75804 55.2437C6.94003 55.3299 6.24415 55.1067 5.56741 55.2981C5.73424 54.9443 5.34149 54.6968 6.45683 55.0931C6.70438 55.0033 6.95088 54.9135 7.19709 54.8237C7.00201 54.7611 6.80846 54.698 6.61472 54.6349C7.28702 54.6254 7.47562 54.635 7.35736 54.3884C7.51604 54.4954 7.67735 54.6019 7.83738 54.7094C7.97314 54.713 8.11424 54.7279 8.24599 54.7243C7.98777 54.5928 7.87664 54.2222 7.69774 54.1325C7.5188 54.0427 7.46982 54.2161 7.29627 54.1902C5.8651 53.9748 6.92064 53.9919 6.67502 53.8374C6.52972 53.7466 6.37194 53.9632 6.31005 53.9147C6.08322 53.7348 6.84384 53.6513 6.85354 53.4917C6.4218 53.5484 5.98335 53.6046 5.54757 53.66C5.57045 53.4926 5.57428 53.306 5.4357 53.1505C5.3816 53.0894 5.06051 53.1356 5.03899 53.1256C4.92867 53.0761 4.75391 52.8748 4.75257 52.8535C4.75001 52.693 5.19475 52.6884 5.2191 52.5325C5.25675 52.5937 5.29069 52.6513 5.327 52.7111C6.04805 52.7383 6.76906 52.7661 7.49145 52.7933C7.54391 52.6405 7.59529 52.4876 7.64775 52.3343C7.40696 52.4463 7.16732 52.5587 6.92653 52.6707C6.344 52.4957 5.76013 52.3206 5.17625 52.1456C5.53411 52.0544 5.89189 51.9636 6.24975 51.8725C6.15535 51.6249 4.70269 51.6748 5.97523 51.5573C5.86765 51.4843 5.76013 51.4113 5.65389 51.3383C5.83546 51.3488 6.0174 51.3591 6.19897 51.3695C6.0873 51.2815 5.97637 51.1936 5.86335 51.1056C5.22033 51.1981 4.54367 51.2888 3.91948 51.3804C3.77975 51.2073 4.32525 51.2039 4.46139 51.1781C4.82195 51.1096 4.3356 50.9737 4.66926 50.9193C4.78381 50.9009 5.14292 51.0705 5.5571 51.0121C5.63738 51.0006 7.15985 50.7735 6.80831 50.6285C6.53251 50.6312 6.19432 50.6425 5.8943 50.6483C5.72678 50.4534 7.16645 50.354 7.57 50.3798C7.28748 50.276 7.26388 50.1242 6.8226 50.1029C6.81183 50.0498 6.80162 49.9971 6.79086 49.9441C7.86559 49.9994 7.66907 49.778 6.74484 49.7635C6.72197 49.8547 6.69789 49.946 6.67502 50.0371C5.54221 49.9682 4.85844 50.2452 5.90779 49.6688C6.49707 49.5586 5.8275 49.8647 6.26879 49.7749C6.52564 49.6189 6.31073 49.4724 6.72104 49.3242C7.2336 49.1396 7.72659 49.3667 7.07411 48.9367C5.43948 49.885 5.96985 48.8067 5.46268 48.3613C7.07716 48.2388 7.58854 47.8627 7.10823 47.3448C6.65889 47.3987 6.89039 47.5617 6.74246 47.6556C6.59449 47.7494 6.32791 47.6479 6.11804 47.7648C5.90822 47.8818 5.62298 48.1302 5.30558 48.2487C5.05127 48.1484 4.45003 47.6533 5.17229 47.9806C5.61752 47.7363 6.07504 47.6215 6.15851 47.3187C5.45758 47.228 5.02113 47.2347 5.00091 46.9395C5.97491 47.1141 6.65183 46.7786 7.65807 46.8525C7.4237 47.0618 6.44571 46.9448 5.97761 47.0659C5.93082 47.0783 6.17599 47.2733 6.15851 47.3187C7.03705 47.1218 7.36406 47.0538 8.40943 47.1749C8.31794 47.0356 8.44919 46.949 7.95004 46.9363C8.16658 46.9073 8.38331 46.8781 8.59985 46.8496C8.59446 46.8042 8.57441 46.7635 8.57843 46.7154C7.8255 46.7816 8.289 46.6533 7.94766 46.5622C7.60593 46.471 7.01157 46.5933 7.0035 46.343C6.82725 46.4264 6.67603 46.5027 6.5092 46.5835C6.31548 46.422 6.12054 46.2601 5.92683 46.0986C5.46678 46.212 4.78343 46.4577 4.17814 46.451C4.40666 46.3767 4.00503 46.1219 3.98851 46.094C3.92662 45.9861 4.30836 46.0449 4.31778 46.0368C4.50328 45.8672 4.37331 45.7275 4.95172 45.6631C4.69074 45.5357 4.83953 45.4396 4.82477 45.3045C4.8167 45.2301 4.39186 45.2446 4.47249 45.201C5.01062 44.9117 5.55962 45.1874 4.51454 44.6292C4.21859 44.6968 3.91583 44.7634 3.61719 44.831C3.50552 44.768 3.39324 44.7053 3.28157 44.6423C3.33539 44.6001 3.38961 44.5583 3.44343 44.5161C4.08512 44.517 4.72816 44.5181 5.36985 44.519C5.40483 44.4727 5.43881 44.4263 5.47379 44.38C5.53702 44.4594 5.60018 44.539 5.66341 44.6183C5.77633 44.6256 5.88929 44.6323 6.0022 44.6396C6.1771 44.5217 6.35358 44.4042 6.52983 44.2863C6.3066 44.284 6.08182 44.2817 5.85859 44.2795C6.16937 44.0137 6.35834 44.0074 5.74355 43.7548C5.75028 43.5602 4.81695 43.4018 4.4241 43.2893C4.54919 43.249 4.67588 43.2085 4.80097 43.1677C4.6153 43.1419 4.43045 43.1158 4.24478 43.0899C4.50307 43.0387 4.76142 42.9867 5.01836 42.9355C4.43209 42.9069 4.24905 42.8921 4.04325 43.0921C3.31408 43.0236 3.63574 42.6716 3.8806 42.5282C4.06641 42.4195 4.67462 42.5402 4.7486 42.5266C4.99994 42.4812 4.78307 42.302 4.82477 42.2643C4.99831 42.1051 4.96793 41.9936 5.10247 41.8498C5.12939 41.8219 5.51485 41.7436 5.52695 41.737C5.59287 41.6853 5.78022 41.5577 5.7856 41.5431C6.07333 40.7945 4.40102 41.5944 4.57722 40.8983C4.35669 40.9192 4.13763 40.9383 3.9171 40.9588C3.90366 40.9062 3.89088 40.853 3.87743 40.8004C4.06174 40.7338 4.39694 40.8144 4.12656 40.682C4.39832 40.6906 4.6702 40.6993 4.94061 40.7084C4.79396 40.6508 4.6485 40.5952 4.50185 40.5363C5.44494 40.4438 5.65912 40.106 6.76626 40.13C7.14298 40.1382 7.52952 40.3776 7.93179 40.2511C8.01098 40.1483 7.56107 40.2179 7.53747 40.1759C7.37333 39.873 8.00396 39.8906 7.83579 39.7668C7.56552 39.7473 7.28995 39.7268 7.01698 39.7068C7.09632 39.6601 7.17567 39.6133 7.25501 39.5662C7.07338 39.5553 6.89156 39.5439 6.70993 39.5331C6.69782 39.577 6.68554 39.6266 6.67343 39.667C5.96995 39.6107 5.65395 39.0938 6.25372 39.2909C6.4972 39.3712 6.39376 39.5182 7.22486 39.4253C7.10513 39.2869 6.98279 39.13 6.86306 38.9844C7.042 38.9799 7.22127 38.9757 7.4002 38.9711C7.28437 38.7749 6.56894 38.9534 6.18548 38.953C6.17473 38.9081 6.1653 38.8628 6.15454 38.8179C6.32792 38.7989 6.50939 38.7808 6.6774 38.7609C6.40148 38.7591 5.76016 38.7339 5.99824 38.6002C6.1532 38.5141 6.84931 38.6496 6.75278 38.4856C6.32233 38.4979 5.79807 38.5571 5.65945 38.3744C6.1087 38.3563 6.52026 38.3312 6.99239 38.3171C6.5608 38.09 7.25456 37.9866 6.75278 37.7199C6.43525 37.5508 5.30812 37.3191 7.04475 37.2098C7.09047 37.086 6.658 37.1253 6.56077 37.0887C6.10064 36.9159 6.92412 36.7874 6.97255 36.7551C7.28303 36.5498 6.99798 36.4577 7.38672 36.2904C7.06517 36.2995 6.76079 36.3044 6.44731 36.3117C6.92896 36.4649 6.90636 36.5426 6.80276 36.7576C6.7382 36.6855 6.67214 36.6133 6.60758 36.5413C6.34664 36.553 6.08566 36.5647 5.82606 36.5761C6.85395 37.2409 5.22994 37.0858 4.87476 36.5284C5.35766 36.4804 5.83929 36.4306 6.32354 36.383C5.59167 36.061 6.22701 35.9094 6.37908 35.5453C6.39647 35.502 6.11829 35.3443 6.10455 35.2765C6.1027 35.2776 6.10085 35.2788 6.099 35.2799C5.64298 35.2377 5.4331 35.2948 5.02551 35.3017C4.97439 35.2649 4.92349 35.2282 4.87238 35.1914C5.18308 35.1094 5.43828 35.1383 5.3643 34.9768C5.05489 34.9986 4.7454 35.0201 4.436 35.0418C4.42523 34.865 4.76141 34.7492 4.6161 34.5846C4.73315 34.6123 4.85054 34.6396 4.96759 34.6672C5.26627 34.3089 7.08539 34.5941 6.17993 34.3233C6.33863 34.3061 6.49887 34.2893 6.65757 34.2721C6.69658 34.3836 6.7344 34.4952 6.7734 34.6063C6.998 34.6086 7.22163 34.611 7.44622 34.6129C7.37895 34.4936 7.30958 34.3737 7.24231 34.2544C7.393 34.3415 7.54388 34.4291 7.69456 34.5162C7.80218 34.3779 7.90987 34.2395 8.01748 34.1012C7.19161 34.2481 7.09061 34.0577 6.27276 34.0935C6.95353 33.8486 7.85092 33.6562 7.27643 33.2766C7.16199 33.2013 6.59046 33.2422 7.28595 33.0286C6.37659 33.0803 5.94986 32.8127 5.08501 32.8471C5.12671 32.9215 5.15293 32.9986 5.20403 33.0707C5.50403 32.9886 6.32934 32.975 6.57426 33.0997C6.88637 33.2589 6.31439 33.491 7.23041 33.4815C7.18738 33.545 7.16199 33.604 7.12568 33.6657C6.89845 33.6403 6.66978 33.6155 6.44255 33.5905C6.7988 33.766 6.68295 33.8762 6.11011 33.9606C5.97828 33.7515 5.84785 33.5429 5.71737 33.3339C5.67841 33.3647 5.63915 33.3959 5.60153 33.4267C5.01628 33.2684 4.46194 33.4317 4.33682 33.1364C4.60449 33.1382 4.87233 33.1397 5.14135 33.1415C4.42559 33.034 4.42947 32.7397 3.60608 32.8336C3.85899 32.7447 4.01896 32.7266 3.57514 32.6762C4.20075 32.4418 4.99188 32.2912 5.93635 32.3746C5.78435 32.2876 5.63213 32.2005 5.48013 32.1138C5.22187 32.1642 4.96481 32.2146 4.70655 32.2649C4.7227 32.1134 4.73857 31.9608 4.75336 31.8098C5.51744 31.7953 4.98517 32.1014 5.66817 32.0131C5.80527 31.9954 5.51161 31.9139 5.58883 31.8925C6.42425 31.6666 5.82068 32.0212 6.4608 31.9546C6.65857 31.618 7.73116 31.8874 6.82974 31.4238C7.05033 31.4116 7.27537 31.3984 7.49462 31.3871C7.50787 31.2262 7.00959 31.2392 6.91543 31.1009C6.85685 31.0143 7.73182 30.9056 7.136 30.81C7.02615 30.7929 5.95672 30.9538 6.00379 30.6156C6.04027 30.3532 6.79602 30.4624 7.0638 30.3206C7.33153 30.1786 6.28362 29.8538 7.47161 29.7582C7.31426 29.8325 7.22938 29.9272 7.10029 30.0097C7.33167 30.0433 7.56054 30.076 7.79057 30.1091C7.49191 29.9204 7.84391 29.7254 7.2923 29.5984C8.13586 29.3467 7.35304 29.0652 6.4005 29.1414C6.53784 29.2242 6.95319 29.1341 6.68851 29.2492C6.46652 29.261 6.24562 29.2734 6.02363 29.2852C6.05053 29.0892 6.0443 28.9532 6.72104 29.0425C6.73718 29.0121 6.75329 28.982 6.76944 28.9517C6.27971 28.9462 5.78817 28.9414 5.29844 28.9359C5.24328 28.8997 5.18857 28.8632 5.13341 28.8269C5.24098 28.7866 5.3498 28.7462 5.45871 28.7054C6.23366 28.7603 6.25926 28.8537 6.69248 28.5444C6.42474 28.5435 6.15807 28.5422 5.89033 28.5413C6.2307 28.2823 6.87926 28.2755 6.85513 27.9504C7.78468 28.1998 6.13692 28.3363 8.00162 28.3354C7.87918 28.3979 7.75511 28.461 7.63268 28.5236C7.9031 28.5332 8.17392 28.5426 8.44434 28.5517C8.3017 28.2156 6.52324 27.6574 7.7025 27.4324C7.55859 27.4052 7.43349 27.3779 7.27881 27.3503C7.99053 27.1298 6.39267 27.0347 7.31293 26.8111C7.40951 26.788 8.91071 26.8363 8.85692 26.5452C8.66181 26.5525 8.33342 26.5562 8.0873 26.5621C8.207 26.4991 8.33227 26.4364 8.45466 26.3739C8.27445 26.3625 8.09431 26.3506 7.91275 26.3393C7.84279 26.4468 7.77166 26.554 7.7017 26.6615C7.63984 26.5721 7.57791 26.4823 7.51604 26.3929C7.22151 26.5095 7.21838 26.562 6.74643 26.4918C6.71818 26.3907 6.6882 26.2894 6.65995 26.1882C6.53902 26.1778 6.41669 26.1675 6.29577 26.1571C5.93523 26.206 5.58264 26.2555 5.21672 26.3045C5.51135 26.041 5.52735 25.8119 6.23626 25.6096C6.35599 25.5752 6.82571 25.6971 6.40209 25.4622C6.65086 25.4586 6.85286 25.4523 7.08284 25.4482C6.38592 25.1607 6.59394 25.0662 7.09712 24.7664C6.62757 24.9605 6.93296 24.7873 6.68137 24.7379C6.50804 24.704 6.53364 24.8362 6.3521 24.8213C6.17183 24.8063 5.44391 24.6345 5.35636 24.7814C6.84841 25.1415 5.06453 25.2396 5.78163 25.7022C5.58924 25.631 5.39642 25.5593 5.20403 25.4881C5.07363 25.5216 4.95532 25.5516 4.81684 25.5879C5.10873 25.3299 4.9191 25.4554 4.6891 25.3494C4.45903 25.2432 4.26359 25.0503 4.20035 24.9211C4.18049 24.8804 4.51513 24.9233 4.54628 24.8314C4.56781 24.7688 4.07171 24.5978 4.65657 24.5583C5.03728 24.5325 6.08563 24.8072 6.08313 24.4273C6.45637 24.3558 6.34045 24.538 6.38542 24.5419C6.82941 24.575 7.16323 24.3414 6.82418 24.2335C6.79494 24.2248 6.44897 24.31 6.31322 24.2173C5.98898 23.9973 6.38575 23.8703 6.92257 23.7279C6.29292 23.7125 5.54094 23.5274 5.7737 23.297C5.59351 23.2852 5.41174 23.274 5.23021 23.2622C5.32558 23.2979 5.41967 23.3337 5.51505 23.3695C5.40203 23.4085 5.31977 23.4498 5.18657 23.4879C5.03173 23.2562 4.16397 23.2234 3.84649 23.1123C2.76193 22.7321 5.05613 22.9625 5.45157 23.0311C5.29147 23.0806 5.11275 23.1284 4.94458 23.1773C5.16388 23.1719 5.38485 23.1664 5.60549 23.1614C5.59879 22.5922 7.02905 23.0747 7.4367 22.7858C6.35776 22.7114 6.25377 22.4993 6.93844 22.229C6.93305 22.199 6.93168 22.169 6.92495 22.1391C6.76763 22.1341 6.52716 22.1342 6.42351 22.126C6.24053 21.8004 7.90212 21.7424 8.05954 21.7115C8.75768 21.5746 7.79171 21.4679 7.78343 21.4276C7.74979 21.2575 8.17871 21.2081 7.99448 21.0462C7.7954 20.8721 7.46629 20.9911 7.1717 20.9381C6.93776 20.8957 6.89609 20.7583 6.6536 20.7015C6.85193 20.7241 7.04642 20.7491 7.24549 20.7716C7.51586 20.5912 7.7794 20.4437 7.84531 20.2387C6.39415 20.0074 8.84208 19.8106 6.85671 19.8904C6.72083 20.0846 6.49459 20.1931 5.98872 20.297C5.92415 20.1695 5.86127 20.042 5.79671 19.9146C6.01461 19.8774 6.22696 19.851 6.4489 19.8071C5.98617 19.7118 6.18474 19.4911 6.04902 19.4044C5.41265 18.9985 4.62337 19.1241 5.94984 18.7536C6.07909 19.0206 6.72333 19.0202 6.63456 19.285C7.09467 19.2279 6.99934 19.0933 7.55095 19.1804C7.41509 18.9242 6.92261 19.007 6.4854 18.9073C6.10848 18.8213 6.08738 18.6481 5.59756 18.6579C5.86687 18.6402 6.12758 18.6264 6.39653 18.6088C6.39384 18.4428 6.39367 18.2769 6.39098 18.1109C6.67213 18.1817 6.95379 18.2524 7.23359 18.3231C7.33978 18.2697 7.44556 18.2161 7.55175 18.1626C6.67725 17.7545 8.27998 17.0506 6.08313 17.163C6.01318 16.9662 6.28871 16.9416 6.70438 16.8346C6.5376 16.8228 6.39888 16.8113 6.21325 16.7995C6.38784 16.6726 5.76168 16.5751 5.92445 16.4631C6.08596 16.3511 6.67741 16.3233 5.68325 16.307C5.96842 16.2344 6.20531 16.1623 6.47032 16.0902C6.24447 16.0467 6.02122 16.0032 5.79671 15.9602C5.91509 15.8922 6.03298 15.824 6.15137 15.756C5.6768 15.7196 5.88136 15.4521 5.56265 15.3342C6.07421 15.2223 7.68486 15.2254 7.39624 14.962C6.99676 14.9688 6.59845 14.9755 6.19897 14.9823C6.28237 14.922 6.3655 14.8616 6.4489 14.8008C6.57928 14.7972 6.70967 14.7941 6.84005 14.7904C6.7997 14.8213 6.75956 14.8517 6.71787 14.8825C6.93851 14.8558 7.15814 14.8295 7.37878 14.8032C7.05191 14.7112 6.725 14.619 6.39812 14.5265C6.15063 14.6512 5.90297 14.7759 5.65548 14.9006C5.36218 14.7442 5.65473 14.6353 5.3278 14.4992C5.87932 14.3809 6.19712 14.4246 6.79562 14.4726C6.74452 14.4286 6.69518 14.3842 6.64408 14.3402C7.24267 14.3692 7.59934 14.2948 7.55096 14.5519C7.72169 14.5342 7.88447 14.5162 8.06192 14.499C8.03501 14.4568 8.17933 14.4294 8.11349 14.3832C7.9332 14.2571 6.88181 14.1604 6.51316 14.1691C6.32006 14.1737 6.68935 14.298 6.41637 14.293C5.75067 14.2807 6.04955 13.9956 5.38096 14.4069C4.95716 14.2704 5.27677 14.2399 5.39921 14.0893C5.17737 14.1011 4.95695 14.1125 4.73512 14.1239C4.83732 14.054 4.93917 13.9841 5.04138 13.9143C6.18087 14.0114 6.60887 13.4966 7.6057 13.96C7.65681 13.8231 7.7082 13.6866 7.762 13.5501C7.87903 13.5782 7.99488 13.6063 8.1119 13.6345C8.05002 13.6961 7.98916 13.7574 7.92862 13.8191C8.14247 13.7466 8.35506 13.6739 8.56891 13.6013C8.30386 13.4299 7.89623 13.3627 7.39306 13.2843C7.02588 13.4838 7.52744 13.4186 7.62712 13.574C7.30847 13.5686 7.01537 13.5758 6.68058 13.5622C7.34062 13.4819 6.86044 13.2198 6.82815 13.1591C6.73011 12.9741 7.37863 13.1191 7.39227 12.9954C7.40573 12.8716 7.01972 12.7256 7.66283 12.6245C7.30237 12.6263 6.92944 12.6344 6.60123 12.6416C6.48284 12.4489 6.90866 12.4873 6.96383 12.4674C7.87059 12.149 7.10506 11.9762 7.01222 11.612C6.90058 11.6583 6.79978 11.705 6.69486 11.7517C5.92954 11.477 6.16388 11.6621 5.91096 11.9006C5.98765 11.677 5.33588 11.549 5.14214 11.3911C4.94873 11.2333 5.28348 10.9627 5.5444 10.8638C5.96417 11.0901 5.68735 11.3342 5.80306 11.5855C6.17025 11.5569 6.48102 11.5291 6.88448 11.4997C6.1138 11.3468 6.62911 11.2583 6.73135 11.208C7.03123 11.0601 6.36976 11.0648 7.08125 10.9755C6.83649 10.9791 6.63069 10.9817 6.40209 10.9854C6.50433 10.6801 6.93704 10.3509 6.03315 10.1523C6.62103 10.1341 7.18741 10.1204 7.78739 10.0996C7.34486 9.97035 7.79803 9.85967 7.69456 9.75084C7.59097 9.64244 7.11587 9.68371 6.93288 9.55628C6.89925 9.5327 7.19661 9.48358 6.97731 9.42553C6.75686 9.36691 5.11766 9.15073 6.54966 9.12488C6.5564 9.01559 6.60876 8.91215 6.63297 8.80513C6.71369 8.90943 6.79187 9.01378 6.87258 9.11763C7.21965 9.02875 7.56568 8.94041 7.91275 8.85153C7.60331 8.8402 7.28827 8.82882 6.98287 8.81794C6.60616 8.57848 7.1121 8.4047 6.99239 8.16298C6.97221 8.12261 6.36041 8.21784 6.51634 8.03875C6.6724 7.85962 7.81428 7.72668 7.37323 7.42149C7.35036 7.40607 6.47582 7.31569 7.08125 7.20639C7.21847 7.18152 7.42151 7.2862 7.60173 7.22911C7.78202 7.17196 7.93026 6.91699 8.35945 6.89704C8.20746 6.89976 8.04998 6.91567 7.8953 6.92338C7.82267 6.87985 7.74998 6.83588 7.6787 6.7919C7.94639 6.78782 8.21449 6.78342 8.48084 6.77934C7.85795 6.52899 6.84184 6.39962 7.17805 6.02867C6.78926 6.13297 6.39892 6.23731 6.01014 6.34116C6.28326 6.36974 6.55821 6.39836 6.83133 6.42648C6.72237 6.59743 6.61419 6.76886 6.50523 6.93981C6.81602 6.96793 7.12592 6.99556 7.4367 7.02368C7.39635 7.06902 7.35725 7.11392 7.3169 7.15926C7.09223 7.14793 6.86875 7.13649 6.64408 7.1247C6.69923 7.21448 6.75555 7.30437 6.8107 7.3937C5.48453 7.21184 6.9235 6.88585 5.81416 6.90936C5.98628 6.86902 6.1596 6.82862 6.33306 6.78828C5.79516 6.77059 5.94997 6.68855 6.03473 6.54394C5.76969 6.57704 5.50826 6.61361 5.24052 6.64399C5.6145 6.50339 5.57818 6.254 5.72213 6.10842C5.78535 6.04448 6.17534 6.10835 6.22119 6.08933C6.46067 5.99182 5.78018 5.80544 5.834 5.76644C6.15426 5.53334 7.44436 5.38185 6.59409 5.12743C6.38421 5.39002 6.47285 5.24717 6.00062 5.34059C5.85256 5.36984 5.54369 5.70908 5.68087 5.28428C5.69804 5.23448 6.5894 4.46367 7.27247 4.71705C7.05451 4.59233 6.80249 4.49467 6.57108 4.38038C8.37123 4.101 6.68012 4.19769 5.7491 4.27887C5.74507 4.23307 5.73562 4.18949 5.73562 4.14232C6.71372 4.24256 6.77446 3.73191 6.28069 3.55866C6.11656 3.50061 5.80348 3.66293 5.65548 3.52869C5.72407 3.46477 5.81289 3.39225 5.88954 3.32471C5.2707 3.42266 5.03222 3.23042 4.40267 3.23311C4.96366 3.11021 6.15272 3.01621 6.79721 3.08375C6.53625 2.98218 6.27561 2.88007 6.01331 2.7785C5.86398 2.82567 5.71595 2.87345 5.56662 2.92061C5.96217 2.58862 5.0621 2.16175 6.38463 2.09236C6.37521 2.04837 6.36707 2.00391 6.35766 1.95992C6.13432 1.94631 5.91055 1.93316 5.68722 1.91956C5.88091 1.7205 6.07589 1.5219 6.26959 1.32284C6.40818 1.50008 6.72607 1.54227 6.46794 1.72814C6.7248 1.65652 6.98308 1.58356 7.23994 1.51329C6.54841 1.23346 6.09392 1.19529 6.29974 0.773976C6.30915 0.754927 6.88907 0.436594 6.94558 0.42571C7.20387 0.375841 7.57911 0.45154 7.70964 0.429335C8.07559 0.367654 8.99445 -0.00715223 9.13303 0.000104372C10.8336 0.0917198 10.8562 1.35277 10.9436 1.69382C11.8504 5.23137 10.6372 8.69102 10.8444 12.2063C10.8476 12.2425 11.0987 12.2267 11.1094 12.2421C11.1725 12.3378 10.7812 12.4318 10.7651 12.4671C10.7318 12.5427 11.0933 12.5011 11.0936 12.5563C11.0895 13.1269 10.877 13.6653 10.9388 14.2362C10.9429 14.2734 10.6537 14.2355 10.7048 14.3008C10.7328 14.3345 11.1765 14.44 11.1832 14.5161C11.2061 14.7819 11.0638 15.0051 11.0706 15.2854C11.0746 15.4387 11.0369 15.6687 11.0436 15.8401C11.0464 15.9158 11.2494 15.9946 11.2562 16.0694C11.2656 16.1755 10.8541 16.1539 10.8286 16.1702C10.7169 16.2419 11.1686 16.2518 11.1578 16.3198C11.1363 16.4463 10.8348 16.4532 10.8603 16.6137C10.8791 16.7284 11.1172 16.9911 11.1872 17.1357C10.8374 17.4741 10.9763 17.9004 11.092 18.2161C11.1606 18.4029 10.7384 18.4202 10.7397 18.4964C10.7479 18.7649 11.2871 18.9686 11.3046 19.2207C11.3274 19.5554 10.9708 19.8519 10.9452 20.1761C10.9412 20.2287 11.328 20.2166 11.3379 20.2682C11.3743 20.4591 11.4447 20.7033 11.3895 20.8734C11.3289 21.0629 10.7674 21.1328 10.8817 21.3183C10.9157 21.3727 11.408 21.3886 11.4712 21.4798C11.5706 21.6253 11.1365 21.7849 11.088 21.8865C11.0234 22.0257 11.525 21.9047 11.4577 22.0924C11.4548 22.1001 11.0963 22.1282 11.1134 22.1686C11.1618 22.286 11.4442 22.2744 11.4173 22.4462C11.4136 22.4627 11.0719 22.6907 11.0706 22.7133C11.0652 22.8466 10.9456 23.1151 11.0182 23.194C11.2765 23.4761 11.8158 23.254 10.6453 23.4939C10.9318 23.5996 11.2222 23.7044 11.5006 23.8164C11.2409 23.7416 10.8662 24.0449 10.8904 24.0663C11.0856 24.2426 11.541 24.1376 11.4657 24.3611C10.4136 24.0659 11.3301 24.6495 11.357 24.7797C11.4874 25.4065 11.2249 25.9762 11.2316 26.6061C11.2344 26.817 11.4568 27.0996 11.4514 27.3227C11.4511 27.3747 11.2021 27.3354 11.1967 27.3812C11.193 27.4268 11.4725 27.3762 11.4577 27.4283C11.3608 27.7526 10.8334 28.0066 11.4927 28.3037C11.3973 28.3182 11.322 28.3177 11.2173 28.3416C11.8079 28.5847 11.0137 29.0529 10.9047 29.2289C10.7353 29.5041 11.1345 29.5744 11.0539 29.7743C10.9463 30.0387 10.1664 30.4357 11.4538 30.2584C11.4941 30.4398 11.5053 30.6144 11.3855 30.7976C11.372 30.818 11.0448 30.804 11.038 30.8121C10.991 30.8638 11.284 30.8807 11.2975 30.9156C11.3337 31.0103 10.9829 30.8557 11.0809 30.9907C11.1333 31.0619 11.3889 31.1024 11.3943 31.3001C11.4225 32.492 11.331 33.7859 11.288 35.0078C11.2853 35.0917 11.6017 35.0364 11.5815 35.1417C11.5115 35.5072 10.979 36.1615 11.0515 36.4767C11.1242 36.7919 11.5869 36.7208 11.7807 36.918C11.8183 36.9561 11.5546 36.9249 11.5506 36.9594C11.5263 37.1911 11.115 37.4674 11.0531 37.6552C11.0116 37.7793 11.4265 37.7694 11.4562 37.8555C11.4992 37.9839 11.08 38.116 11.0666 38.1845C11.0075 38.5064 11.3451 38.7278 11.1729 39.0284C11.2642 39.0167 11.3487 39.0089 11.4387 38.9989C11.4239 39.3549 11.4091 39.7105 11.3943 40.0665C11.4777 40.0497 11.5618 40.0335 11.6466 40.0167C11.6008 40.4343 10.6967 40.3867 12.6058 40.3499C12.6731 40.3803 12.751 40.4125 12.8129 40.4415C11.8295 40.4298 11.1098 40.6824 10.8595 41.0039C10.8407 41.0275 11.7995 41.1858 10.6667 41.1685C10.9438 41.2098 11.1349 41.2344 11.3784 41.2693C11.0354 41.3373 10.6965 41.4063 10.3549 41.4743C10.406 41.511 10.4553 41.5482 10.5064 41.585C10.7284 41.5904 10.9589 41.5862 11.1769 41.598C11.2105 41.7685 10.9361 42.1182 10.9642 42.253C11.0355 42.5877 11.6357 42.9284 10.9872 43.1888C11.0534 43.3156 11.4891 43.1896 11.4339 43.3782C11.2133 43.3996 11.0019 43.4196 10.7746 43.4418C11.7602 43.596 11.1606 43.6282 10.9547 43.8394C10.8148 43.9822 11.0557 44.0758 11.0087 44.2118C10.9966 44.2463 10.7073 44.2414 10.7167 44.265C10.7465 44.344 11.1447 44.5693 11.1555 44.6251C11.2604 45.1303 11.2157 45.5643 11.1094 46.0455C11.0987 46.0972 11.3842 46.0301 11.3721 46.0837C11.353 46.1697 10.9144 46.1191 10.8928 46.169C10.8353 46.3081 11.2979 46.3092 11.3221 46.5032C11.4014 47.1422 11.0539 47.8769 11.0229 48.5445C11.0229 48.5653 11.294 48.5641 11.2967 48.5868C11.3099 48.7346 10.9436 48.8842 10.9476 49.0184C10.953 49.2411 11.3337 49.4085 11.3324 49.6284C11.331 50.0584 11.1361 50.4425 11.1253 50.8847C11.1159 51.2466 11.152 51.5609 11.1507 51.9578C11.1453 53.6912 12.0056 55.46 11.5482 57.2052C11.5361 57.2496 11.2966 57.2316 11.307 57.2451C11.4106 57.3739 11.7337 57.3854 11.0571 57.4312C11.1904 57.5953 11.6988 57.6471 11.6624 57.8452C11.6434 57.9508 10.8555 57.872 11.2618 58.0506C11.629 58.212 12.0608 58.0339 11.6196 58.5137C11.6075 58.5264 11.1272 58.5889 11.2522 58.6887C11.376 58.7889 11.7199 58.6729 11.8235 58.9142C12.0657 59.4806 11.6505 60.1976 11.7783 60.8561C11.7864 60.8974 12.0431 61.2948 12.1615 61.3733C12.3916 61.5251 12.7484 61.4934 12.8359 61.6906C12.9032 61.843 12.4989 61.9687 12.5796 62.1479C12.5894 62.1688 13.0053 62.2037 12.9502 62.3383ZM4.87317 28.9521C4.46517 28.9149 2.9634 28.8478 3.42042 28.623C3.46347 28.6016 4.49622 28.7167 4.66053 28.5925C4.76951 28.7141 4.8048 28.8324 4.87476 28.9521C4.87423 28.9521 4.8737 28.9521 4.87317 28.9521ZM3.3744 63.3131C3.44975 63.1448 3.52439 62.9759 3.59973 62.8077C3.78136 62.9238 3.96263 63.0401 4.1456 63.1557C3.88868 63.2083 3.63132 63.2604 3.3744 63.3131ZM4.08769 42.3673C4.08769 42.3674 4.08769 42.3676 4.08769 42.3678C3.89395 42.1909 3.69985 42.0139 3.50611 41.837C3.64872 41.8556 3.79194 41.8743 3.93456 41.8929C4.15919 42.0325 4.38353 42.1723 4.60817 42.3115C4.43465 42.33 4.2612 42.3487 4.08769 42.3673ZM5.59756 43.7647C5.42804 43.8776 5.14215 43.85 4.86365 43.9121C4.86418 43.9121 4.86471 43.9121 4.86524 43.9121C4.79273 43.9285 4.7293 44.0049 4.71845 44.0344C4.89739 44.0235 5.07404 44.0095 5.25163 43.9977C5.68485 44.2612 4.14538 44.7765 3.52515 44.1093C3.75113 44.1193 3.97596 44.1288 4.20194 44.1388C4.13871 43.8073 4.62888 43.4377 5.59756 43.7647ZM4.22257 26.2864C3.4826 26.0034 3.32658 25.9126 3.83379 25.5693C4.04353 25.6178 4.25324 25.6663 4.46297 25.7148C4.24906 25.7715 4.0366 25.8278 3.82269 25.8844C3.82269 25.8846 3.82269 25.8848 3.82269 25.8849C4.04735 25.8963 4.27242 25.9076 4.49709 25.9185C4.40561 26.041 4.31405 26.1639 4.22257 26.2864ZM5.0628 54.5979C3.58492 54.6768 4.44395 54.6541 4.11069 54.4288C3.99499 54.3507 3.73641 54.4268 3.69336 54.3782C3.45819 54.1162 4.44837 54.0952 4.96362 54.1537C4.9986 54.302 5.03051 54.4519 5.0628 54.5975C5.0628 54.5976 5.0628 54.5978 5.0628 54.5979ZM5.36985 61.3972C5.36985 61.3974 5.36985 61.3975 5.36985 61.3977C5.00937 61.4045 4.91241 61.2989 4.57088 61.418C4.57222 61.3274 4.57509 61.2367 4.57643 61.1456C4.61001 61.1724 4.64202 61.1996 4.67561 61.2264C4.79938 61.2028 4.92474 61.1791 5.04851 61.1555C4.63417 61.1233 4.87502 61.0934 5.0136 60.9982C4.57098 61.0245 4.12804 61.0507 3.68542 61.077C3.81724 60.9664 3.94952 60.8553 4.08134 60.7447C4.19288 60.7433 4.30461 60.7419 4.41616 60.7406C4.2736 60.6989 4.12948 60.6576 3.98692 60.6159C4.12009 60.6045 4.25205 60.5936 4.38522 60.5823C4.28435 60.5319 4.18355 60.4815 4.08134 60.4312C4.40392 60.4159 4.54333 60.5268 4.46138 60.3302C4.79231 60.3905 5.12223 60.4507 5.45316 60.5115C5.42625 60.8067 5.3981 61.102 5.36985 61.3972ZM4.60817 52.5482C4.67005 52.8734 4.43626 52.7818 3.70446 52.7065C4.00574 52.6539 4.30689 52.6008 4.60817 52.5482ZM5.25956 35.7952C4.76042 35.7008 4.26625 35.6061 3.7846 35.5095C3.5061 35.3172 4.41587 35.1248 4.77241 35.2695C5.2002 35.4437 4.72141 35.6256 5.25956 35.7952ZM5.03741 31.4154C4.80595 31.6507 4.21285 31.4293 3.86712 31.3762C4.42277 31.3111 4.37376 31.2204 4.43838 31.0746C4.4744 31.2115 5.07671 31.3765 5.03899 31.4154C5.03847 31.4154 5.03794 31.4154 5.03741 31.4154ZM4.69862 39.5814C4.71355 39.6757 4.85295 39.7695 4.68354 39.8538C4.20626 39.8283 4.64049 39.6597 3.93297 39.7803C3.92086 39.72 3.90913 39.6596 3.89568 39.5998C4.18882 39.6378 4.40791 39.5866 4.69703 39.5816C4.69756 39.5816 4.69809 39.5815 4.69862 39.5814ZM4.04563 49.3976C4.6107 49.2126 4.36891 49.1775 3.9774 48.9911C4.43748 48.9649 5.20813 49.1871 5.37778 49.3263C4.93384 49.3499 4.48958 49.3736 4.04563 49.3976ZM4.28128 5.6294C4.86771 5.67384 4.94419 6.00162 4.77082 6.16449C4.68384 6.1451 4.59571 6.12564 4.50741 6.10625C4.43206 5.94751 4.35662 5.78814 4.28128 5.6294ZM4.47805 31.0052C4.46087 31.0296 4.44806 31.0528 4.43838 31.0746C4.43199 31.0503 4.44198 31.0269 4.47805 31.0052ZM7.02333 21.1532C7.57623 21.2308 7.76199 21.0003 7.5454 21.2801C7.54593 21.2801 7.54646 21.2801 7.54699 21.2801C7.40438 21.4652 7.3663 21.506 7.32324 21.6775C6.61298 21.6157 6.3591 21.2679 6.21246 21.7473C6.21181 21.7536 6.63444 21.741 6.57664 21.8176C6.55867 21.8413 6.21181 21.9169 6.1109 22.032C6.07861 22.0692 5.97164 22.3487 5.96491 21.9677C5.46981 21.9791 4.96867 21.9586 4.48836 21.9595C4.34877 21.8108 5.31826 21.6965 5.29448 21.5392C5.2568 21.3056 4.27644 21.1868 5.56265 21.1419C5.87866 21.3383 5.88625 21.6755 5.11278 21.7195C5.10337 21.9095 5.73707 21.9641 6.0506 21.8109C5.65236 21.1546 6.99125 21.6307 6.4854 21.0561C6.30652 21.0493 6.11401 21.0257 5.94587 21.0293C6.57537 20.8539 6.82558 21.1256 7.02333 21.1532ZM5.65548 22.5255C5.27742 22.4121 4.89633 22.2991 4.51693 22.1862C5.1331 22.1862 5.68604 22.2485 6.03315 22.4272C5.90678 22.4598 5.7805 22.4929 5.65548 22.5255ZM5.49362 12.9877C5.15863 12.9714 4.85164 12.9279 4.53279 12.8961C4.81532 12.8616 5.08636 12.0453 5.3635 12.4606C5.40386 12.5209 4.8115 12.8888 5.49362 12.9877ZM4.55025 50.6824C4.77493 50.5863 4.99997 50.4905 5.22465 50.3948C5.36718 50.5421 5.51344 50.6895 5.65865 50.8369C5.28927 50.7852 4.91963 50.734 4.55025 50.6824ZM5.84749 34.23C5.83491 34.2706 5.3742 34.1358 5.44681 34.2958C5.15217 34.1765 4.90278 34.0648 4.62562 33.9482C4.84358 33.9133 5.06065 33.878 5.27861 33.8431C5.13868 33.8159 4.9996 33.7881 4.85968 33.7609C5.1772 33.7773 5.4873 33.7918 5.8102 33.809C5.12942 34.0054 5.9013 34.0504 5.84749 34.23ZM7.08918 40.0694C6.39913 40.1047 5.98877 39.8203 5.87843 40.1C5.42506 40.047 5.18726 39.9617 5.1469 39.7979C5.32028 39.7717 5.49241 39.7454 5.66579 39.7192C5.20182 39.7155 5.02937 39.6734 4.69862 39.5814C4.69915 39.5813 4.69968 39.5812 4.7002 39.5812C4.66662 39.3322 4.82131 39.3471 5.58407 39.2873C5.15354 39.5508 5.85044 39.5587 6.26482 39.7382C6.54977 39.8616 6.42072 40.0226 7.08918 40.0694ZM5.50156 13.8575C4.91905 13.6712 4.37573 13.8384 4.99456 13.5078C5.14256 13.5291 5.2893 13.5505 5.43729 13.5719C5.46016 13.6671 5.48138 13.7623 5.50156 13.8575ZM4.72401 40.989C5.79219 40.9676 6.62368 40.7922 4.88586 40.7623C4.53203 40.9332 5.5164 40.8497 4.72401 40.989ZM6.70993 31.4956C6.66009 31.8244 5.45447 31.7622 4.85175 31.6271C5.07105 31.6062 5.29074 31.5854 5.5087 31.565C5.40914 31.5074 5.30938 31.4498 5.21117 31.3922C5.71031 31.4266 6.21079 31.4611 6.70993 31.4956ZM5.89747 46.7853C5.13463 46.534 5.47322 47.0565 4.99694 46.881C4.61624 46.7408 5.38488 46.5561 5.86653 46.626C5.87998 46.6745 5.8894 46.7285 5.89747 46.7848C5.89747 46.7849 5.89747 46.7851 5.89747 46.7853ZM5.67928 45.3313C4.86423 45.3725 5.10181 45.3131 5.24846 45.5116C5.29016 45.5683 4.98405 46.0188 5.65945 45.8296C5.65945 45.6687 5.67121 45.4986 5.67928 45.3313ZM5.51743 27.6951C5.87236 27.6921 6.65174 28.039 6.45683 28.0835C6.45736 28.0835 6.45789 28.0835 6.45842 28.0835C5.92699 28.2037 5.85148 27.8378 5.1223 27.9965C5.76395 27.645 4.21192 27.5399 6.25689 27.5644C6.3466 27.7714 5.92506 27.6734 5.51743 27.6951ZM5.95222 1.3255C5.95222 1.32534 5.95222 1.32518 5.95222 1.32502C5.93553 1.34831 5.41461 1.54025 5.23418 1.51691C5.38888 1.28609 5.73177 1.32722 5.16832 1.11233C5.3498 1.10055 5.52582 1.09046 5.70864 1.07777C5.81627 1.16304 6.03429 1.2103 5.95222 1.3255ZM6.20929 12.1051C6.30212 12.1899 5.91745 12.3447 5.94032 12.4413C4.46309 12.1338 5.84062 11.7663 6.20929 12.1051ZM5.31907 58.2172C5.31854 58.2169 5.31801 58.2167 5.31748 58.2164C5.31828 58.2165 5.31906 58.2166 5.31986 58.2167C5.3196 58.2168 5.31933 58.217 5.31907 58.2172ZM5.32304 18.6772C5.41893 18.6663 5.50223 18.6601 5.57535 18.6579C5.58222 18.6579 5.5891 18.6579 5.59597 18.6579C5.50619 18.6638 5.41538 18.6701 5.32304 18.6772ZM5.41031 26.9742C5.90532 26.8297 6.69228 27.3111 6.50444 27.4667C6.2785 27.4559 6.07367 27.4542 5.81416 27.4288C6.39924 27.3032 5.3269 26.9982 5.41031 26.9742ZM5.59201 37.9491C5.60546 37.5685 7.55994 38.0638 6.00062 38.0842C5.97041 38.0834 5.59467 37.9589 5.59201 37.9491ZM5.61502 29.9749C6.20675 30.0719 6.36389 29.8771 6.26165 30.1886C6.10838 30.2067 5.95474 30.2248 5.80147 30.243C5.7396 30.1537 5.67689 30.0643 5.61502 29.9749ZM8.15792 35.4563C7.82831 34.9774 7.24682 34.5194 5.61502 34.8313C5.66743 34.8676 5.71811 34.9043 5.77053 34.9406C6.56664 34.946 6.13207 35.0798 6.10614 35.2756C6.42221 35.3035 6.49529 35.412 6.76388 35.4324C7.28307 35.4718 7.64809 35.3471 8.15792 35.4563ZM6.86227 55.6754C6.72638 55.6677 6.58978 55.6601 6.45524 55.6524C6.30187 55.5767 6.14923 55.5007 5.99585 55.425C6.25663 55.4372 6.51739 55.4495 6.77816 55.4617C6.8064 55.5329 6.83482 55.6037 6.86306 55.6749C6.8628 55.675 6.86253 55.6752 6.86227 55.6754ZM7.33514 22.9922C5.83947 22.9487 6.11494 23.1007 6.871 23.4091C7.02571 23.2703 7.18043 23.131 7.33514 22.9922ZM7.55175 43.152C7.12683 43.162 6.70322 43.1718 6.27831 43.1822C6.72095 43.346 7.20756 43.3156 7.76994 43.2371C7.69736 43.2086 7.62433 43.1806 7.55175 43.152ZM7.73265 45.5104C7.82129 45.4425 7.47822 45.4771 7.4851 45.47C7.66538 45.2981 7.82276 45.2739 7.56444 45.063C7.47432 45.0372 7.37955 45.0118 7.28675 44.9859C6.39637 45.0834 6.88165 45.1542 6.35845 45.3605C6.66385 45.3233 6.96968 45.2863 7.27643 45.2491C7.21187 45.3638 7.14819 45.4781 7.08363 45.5928C7.17781 45.6064 7.27112 45.62 7.36529 45.6336C7.48634 45.5928 7.62237 45.5507 7.73265 45.5104ZM6.47587 56.5512C6.44089 56.6628 6.40453 56.7749 6.36955 56.8864C6.58884 56.8905 6.8096 56.8944 7.02888 56.8985C6.84461 56.7829 6.66015 56.6668 6.47587 56.5512ZM6.6536 20.7015C6.57581 20.6927 6.49755 20.6841 6.41795 20.6764C6.51496 20.6771 6.59068 20.6868 6.6536 20.7015ZM7.15504 1.03113C7.30839 0.904613 7.2077 0.722302 7.23994 0.583529C6.68982 0.594439 6.84188 0.94715 6.5084 1.07101C6.60711 1.09091 7.09051 1.08461 7.15504 1.03113ZM6.66153 31.9505C6.93596 31.9822 7.20909 32.0139 7.48351 32.0452C7.45391 32.1219 7.42266 32.1987 7.39306 32.2758C7.61775 32.278 7.84437 32.2803 8.06906 32.2825C7.77716 31.9429 8.42505 32.0212 9.064 31.8531C8.26364 31.8857 7.46324 31.9178 6.66153 31.9505ZM7.90085 60.1011C7.74882 59.8557 7.46487 59.7687 6.79086 59.907C6.94553 59.9936 7.10034 60.0807 7.25501 60.1673C7.47022 60.1451 7.68564 60.1228 7.90085 60.1011ZM7.16139 16.233C6.90954 16.0277 7.81411 16.0243 7.30896 15.8236C7.14217 15.9311 6.97352 16.0385 6.80673 16.1456C6.92466 16.1745 7.04344 16.2041 7.16139 16.233ZM9.64558 26.303C9.96026 26.2164 8.46442 26.0545 9.56862 25.811C9.23906 25.7529 8.92428 25.7166 8.60144 25.6667C8.95259 25.6377 9.30823 25.6047 9.65668 25.577C9.65668 25.5769 9.65668 25.5767 9.65668 25.5765C9.53829 25.3557 9.09789 25.4989 8.72521 25.4939C8.57072 25.4915 8.82898 25.3276 8.49274 25.3788C7.91556 25.4673 8.24746 25.7977 7.54381 25.7986C7.77378 25.6825 7.58161 25.4558 7.11219 25.5229C6.59695 25.5964 7.46044 25.81 7.03285 25.9461C8.15747 25.7511 7.81009 26.1538 6.94637 26.1996C7.60964 26.4359 7.88021 26.2187 7.84928 25.9765C8.5112 26.1244 8.15358 25.9067 8.70379 25.8709C9.03592 26.0234 8.75906 26.5466 9.64558 26.303ZM8.42609 37.451C8.38341 37.2876 8.76175 37.0325 8.20314 36.9207C7.87769 36.8556 7.62567 37.1113 7.11457 36.935C7.1644 37.0941 7.36405 37.1304 7.81199 37.1032C7.86577 37.1394 7.91823 37.1761 7.97067 37.2124C7.88327 37.2292 7.79704 37.2464 7.70964 37.2632C7.89394 37.2822 8.07677 37.3014 8.26106 37.32C8.22477 37.3585 8.18842 37.3974 8.15078 37.436C8.24345 37.4405 8.3241 37.4482 8.42609 37.451ZM7.13362 10.3376C7.139 10.383 7.14435 10.4279 7.15107 10.4732C7.26017 10.4682 7.37377 10.4623 7.4859 10.4566C7.57449 10.4524 7.66309 10.4483 7.75169 10.4442C7.43515 10.4705 6.90903 10.6865 7.24708 10.7775C7.41666 10.8233 8.01871 10.7192 8.1238 10.9131C8.09284 10.7725 8.01068 10.6423 7.95957 10.5059C8.1385 10.5181 8.31936 10.5299 8.4983 10.5421C8.49856 10.542 8.49882 10.5419 8.49909 10.5419C8.53944 10.4965 8.58172 10.4507 8.62207 10.4053C8.12561 10.3826 7.63007 10.3603 7.13362 10.3376ZM8.39198 43.0191C8.04083 42.8644 7.85847 42.8127 7.29071 42.8857C7.29045 42.8859 7.29018 42.886 7.28992 42.8862C7.54146 42.9438 7.79291 43.0014 8.04446 43.059C8.16016 43.0458 8.27627 43.0327 8.39198 43.0191ZM8.52765 19.3694C6.37104 19.0406 7.69308 19.781 8.42768 19.6401C8.46132 19.6337 8.28952 19.4002 8.52765 19.3694ZM7.37323 31.4352C7.39072 31.5255 7.40652 31.6159 7.42401 31.7066C7.68905 31.6857 7.95317 31.6644 8.21822 31.6435C7.93703 31.5741 7.65442 31.5046 7.37323 31.4352ZM8.87993 59.0328C9.47191 58.9378 9.68639 58.694 9.04258 58.5748C8.96724 58.6374 8.8918 58.7001 8.81645 58.7626C8.74249 58.6443 8.66106 58.5273 8.59112 58.4081C7.76639 58.4017 8.24486 58.5391 8.01748 58.746C7.98082 58.778 6.95709 58.9827 7.72868 59.0534C7.88727 59.0676 7.99511 58.8498 8.45624 59.0012C8.49253 58.935 8.48448 58.8779 8.50464 58.8153C8.70107 58.8108 8.89772 58.8063 9.09415 58.8013C9.02303 58.8787 8.95105 58.9555 8.87993 59.0328ZM8.36183 36.5002C8.40734 36.2758 8.0778 36.2481 7.49542 36.2014C7.56134 36.3058 7.62626 36.4101 7.69218 36.5144C7.91494 36.5095 8.13774 36.5051 8.36183 36.5002ZM9.06876 57.0278C9.16402 56.905 8.68997 56.9576 8.59985 56.9082C8.26087 56.7214 8.59967 56.5939 8.38722 56.4094C8.4787 56.4216 8.56421 56.4328 8.65301 56.4446C8.65301 56.4445 8.65301 56.4443 8.65301 56.4442C9.05255 55.5702 7.97746 56.0293 8.15236 56.5522C7.97612 56.5644 7.79964 56.5762 7.62474 56.5884C7.93282 56.8225 8.22927 57.0383 9.06876 57.0278ZM8.60144 22.2906C8.71176 22.2806 9.41284 22.3654 9.08463 22.2063C8.06101 22.0802 8.56907 22.2869 8.17537 22.3387C8.07716 22.2956 7.98161 22.2515 7.8834 22.2089C7.59414 22.4665 7.83753 22.5041 8.58557 22.4102C8.63584 22.4035 8.49147 22.3006 8.60144 22.2906ZM9.10605 20.5976C7.59786 20.5622 8.27605 20.8873 8.74426 20.8755C8.76292 20.8307 8.50756 20.7958 8.62048 20.7482C8.73348 20.7001 9.08576 20.6878 9.10605 20.5976ZM8.73711 29.9119C8.74384 29.9023 9.37772 29.8067 8.88152 29.8162C7.70698 29.9345 8.46299 30.173 8.87199 30.1313C8.85177 30.0524 8.67552 29.9998 8.7387 29.9119C8.73817 29.9119 8.73764 29.9119 8.73711 29.9119ZM9.23538 60.5124C9.27746 60.5079 9.53224 60.2692 9.29568 60.2384C9.02934 60.213 8.74389 60.2004 8.46814 60.1813C8.72377 60.3128 8.52904 60.5791 9.23538 60.5119C9.23538 60.5121 9.23538 60.5123 9.23538 60.5124Z" fill="#82C6DD"/>
</svg>
