<svg xmlns="http://www.w3.org/2000/svg" width="13" height="49" fill="none" viewBox="0 0 13 49"><path fill="#82c6dd" d="M1.257 44.378c-.586.11-.202-.255-1.078-.013L0 44.213l.972-.039.286.204zm4.06.093c-.924-.062-1.17-.26-2.024-.046l.952.05-.737.224.361.08-1.657.101.244-.09c-.448-.12-.57-.226-.654-.388l-.39.043.666-.246.663.216c.865-.105.384-.29.203-.387-.246-.132.165-.102-.007-.2-.027-.016-.349-.017-.354-.048-.026-.156.145-.458.897-.281-.097.256.507.474.286.725.87-.066 1.166.066 1.551.247m-2.769-4.703c.423.077.252.235-.04.342-.065.024-.627.078-.604 0 .04-.125.923-.185.323-.251.112-.03.211-.06.321-.092m-.052-.273c.217-.077.882-.042.702.054H3.2c-.075.04-.602-.038-.068.106l-1.195.087c-.007-.035-.018-.067-.023-.104.683.025.367-.066.582-.143m.608 3.874c-.615-.012-.61.038-1.037.125l.062-.244zm-.095 1.912.29.08-.658.048q.308.142.62.283c-.67-.011-.562-.18-1.03-.273.202-.139.59-.206 1.158-.215zm2.67-22.662-.557-.095c-.084.042-.15.084-.247.126.807.11.093.121.143.266.153.444 1.407.326-.43.727.088-.322-.775-.198-1.44-.393.506-.04 1.647.153 1.884.022-.536-.224-1.034-.44-1.38-.69l-.263.023.166.118-.703-.128c.532.055.235-.084.845-.066.272.009.65.07.909.107.141-.094.27-.19.408-.285l.65.147.018.12zM2.854 2.415c.632.119.737.335.033.45zm1.004 42.78-.322.04-.596-.179.931-.035zm-.346-3.812c.018.044.008.048-.036.102a.57.57 0 0 1-.436.181c-.004-.089 0-.184 0-.276q.234-.002.472-.007m-.14 1.053H3.37c-.036.032-.11.063-.123.097-.377-.12.299-.14.108-.25-.193-.11-.565-.178.36-.27.138.034.337.071.498.107-.37.156-.022.198.343.323zm.436-17.842c.457.03.008.063.003.067h-.002c.424.263-.253-.035-.324.214l-.351-.11c.22-.057.47-.115.674-.17m-.043 8.575-.4.007c.03-.15-.494-.187-.016-.312zm.715 7.46c.255.166.367.289-.037.448h-.001c-.025.01-.304-.035-.374-.023.042.033.106.067.155.1l-.668.014.19-.281-.39.042-.202-.24q.549.043 1.099.084c.077-.048.15-.096.228-.144m.742-9.952c-.145.026-.389-.022-.514.018-.123.041.148.117-.262.1-.056-.056-.119-.114-.177-.17-.74.18-.07.36-.983.363.236-.173.126-.315-.127-.483.725.007 1.352.175 2.033.07.01.033.023.069.029.102zM12.95 47.62c-.055.102.24.337-.181.467-.105.031-1.453.138-1.631.137-.599-.003-.68-.133-1.07.006-.004-.046-.027-.092-.038-.138l-1.204.024.183.17-.4.008c-.002-.203-.516-.083-.995-.188l-.726.291c.03-.056.052-.122.087-.17-.682-.007-.52.11-.646.13-.714.113-.354-.463-1.346-.51q-.164.14-.327.282l-.368-.08c.685-.215.928-.454 1.354-.703l-.084-.068-.923.02q-.054-.052-.109-.102c1.015.1 1.001-.039 1.62-.206.356.089.14.198.804.19-.51-.305.212-.662-.365-.96-.143-.073-1-.073-.92-.247.093.006.263.007.387.011-.41-.3-.655-.482-.237-.794l-.925.054.462.198c-.508.045-.733-.021-.727.176.004.162.228.066.38.11.205.06-.2.111.03.175.176.05.596-.003.49.126l-1.656-.158.371-.094.434.095-.778-.334c.786.038.492-.082.399-.147-.145-.102.395-.015.305-.082-.091-.066-.695-.138-.566-.258.35.064.663-.023.986-.006s.394.144.747.022c-.268-.235-1.498.02-1.697-.139-.24-.19 1.765-.236 2.196-.18.339.046.27.2.608.244.61-.275-.594-.277-.829-.325-.857-.17 1.43-.056.603-.258l1.223.01c-.078-.035-.182-.058-.244-.1-.833.124-.798.023-.799-.03-.003-.082-.409.045-.514.023-.28-.059-.153-.152-.52-.095q.256-.038.511-.08c-.213-.096-1.998-.322-1.637-.107-.664-.02-.345-.09-.244-.144s-.322-.053-.243-.101c.312-.19 1.034-.066 1.6-.036-.39-.25-.648-.005-.909-.367-.461-.035-.954.132-1.22-.007.802-.026 1.378-.128 1.644-.328l-.555-.058c.74-.11 1.51-.053.592-.255 1.689.108.609.033 1.296-.147.139-.037.489.048.666-.004.08-.023-.184-.08.02-.136.101-.028.752-.157.443-.247-.818.066-1.514-.105-2.19.042.166-.27-.227-.46.889-.157l.74-.206-.582-.144c.672-.007.86 0 .742-.188l.48.245c.136.003.277.014.409.011-.258-.1-.37-.383-.548-.452-.18-.068-.228.064-.402.044-1.43-.164-.375-.151-.621-.27-.145-.069-.303.097-.365.06-.227-.138.534-.201.544-.323l-1.306.128c.022-.128.026-.27-.112-.389-.054-.047-.375-.011-.397-.019a.9.9 0 0 1-.286-.208c-.003-.122.442-.126.466-.245l.108.136 2.164.063.157-.35-.721.257-1.75-.402 1.073-.208c-.095-.19-1.547-.151-.275-.24l-.321-.168.545.024-.336-.202c-.643.07-1.32.14-1.944.21-.14-.132.406-.135.542-.155.36-.052-.125-.156.208-.197.115-.014.474.115.888.07.08-.008 1.603-.182 1.251-.292-.275.002-.614.01-.914.015-.167-.15 1.272-.225 1.676-.205-.283-.08-.306-.196-.747-.212l-.032-.121c1.075.042.878-.127-.046-.138l-.07.209c-1.133-.053-1.817.159-.767-.282.59-.084-.08.15.36.081.258-.119.043-.23.453-.344.513-.14 1.006.033.353-.296-1.635.725-1.104-.1-1.611-.44 1.614-.093 2.126-.38 1.645-.776-.45.041-.218.166-.366.238s-.414-.006-.624.083-.495.28-.812.37c-.255-.077-.856-.455-.134-.205.446-.187.903-.275.987-.506-.701-.07-1.138-.064-1.158-.29.974.134 1.65-.122 2.657-.066-.234.16-1.212.07-1.68.163-.047.01.198.159.18.193.879-.15 1.206-.202 2.251-.11-.091-.106.04-.172-.459-.182l.65-.066c-.006-.035-.026-.066-.022-.103-.752.05-.289-.047-.63-.117-.342-.07-.936.024-.945-.167-.176.064-.327.122-.494.184l-.582-.37c-.46.086-1.144.273-1.749.268.229-.056-.173-.251-.19-.272-.061-.083.32-.038.33-.044.185-.13.055-.236.634-.285-.261-.098-.112-.171-.127-.274-.008-.057-.433-.046-.353-.08.539-.22 1.088-.01.043-.436l-.898.154-.335-.144.161-.097 1.927.003.104-.107.19.182.338.017.528-.27-.671-.005c.31-.203.5-.208-.115-.401.006-.149-.927-.27-1.32-.356q.189-.045.377-.093l-.556-.06.773-.117c-.586-.022-.769-.033-.975.12-.729-.053-.407-.322-.162-.431.185-.083.794.009.868-.001.25-.035.034-.172.076-.2.173-.122.143-.208.277-.317.027-.022.413-.082.425-.087.066-.04.253-.137.259-.148.287-.572-1.385.04-1.209-.492l-.66.046-.04-.121c.185-.05.52.01.25-.09l.814.02-.44-.132c.944-.07 1.158-.328 2.265-.31.377.006.764.189 1.166.092.079-.078-.37-.025-.395-.057-.164-.232.467-.218.299-.313l-.819-.045.238-.108-.545-.025c-.012.034-.024.071-.037.102-.703-.043-1.019-.438-.42-.287.244.061.14.174.972.102-.12-.105-.242-.225-.362-.336l.537-.01c-.116-.15-.831-.014-1.215-.014l-.03-.103.522-.044c-.276-.001-.917-.02-.679-.123.155-.066.851.038.755-.087-.43.01-.955.054-1.094-.085.45-.014.861-.033 1.333-.044-.431-.174.263-.253-.24-.456-.317-.13-1.444-.306.293-.39.045-.094-.387-.064-.484-.092-.46-.132.363-.23.412-.255.31-.157.025-.227.414-.355-.322.007-.626.01-.94.016.482.117.46.177.356.34l-.195-.165-.782.027c1.028.508-.596.39-.951-.036l1.449-.111c-.732-.246-.097-.362.055-.64.017-.033-.26-.154-.274-.206l-.006.003c-.456-.032-.666.011-1.073.017l-.154-.085c.311-.062.566-.04.492-.164l-.928.05c-.01-.135.325-.224.18-.35l.352.064c.298-.274 2.117-.056 1.212-.263l.478-.039.115.255.673.005-.204-.273.453.2.322-.318c-.825.113-.926-.033-1.744-.005.68-.187 1.578-.334 1.003-.624-.114-.058-.686-.027.01-.19-.91.04-1.336-.165-2.201-.139.042.057.068.116.119.171.3-.062 1.125-.073 1.37.023.312.121-.26.298.656.291-.043.049-.068.094-.104.14l-.683-.057c.356.135.24.219-.333.283l-.393-.479-.115.071c-.586-.12-1.14.004-1.265-.221l.804.003c-.715-.082-.712-.306-1.535-.235.253-.068.413-.081-.03-.12a6.9 6.9 0 0 1 2.36-.23l-.456-.2-.773.116.046-.348c.764-.01.232.223.915.155.137-.013-.156-.075-.08-.092.836-.172.233.099.873.048.198-.257 1.27-.052.369-.406.22-.009.445-.02.665-.028.013-.123-.485-.113-.58-.218-.058-.066.817-.15.221-.223-.11-.013-1.18.11-1.132-.148.036-.2.792-.117 1.06-.226.268-.108-.78-.356.408-.43-.158.058-.243.13-.372.193l.69.076c-.298-.144.054-.293-.498-.39.844-.192.061-.407-.891-.35.137.064.552-.005.288.083l-.665.028c.027-.15.02-.254.697-.186l.048-.07-1.47-.011-.166-.083.326-.093c.775.042.8.113 1.233-.123l-.802-.003c.34-.197.99-.203.965-.451.93.19-.718.295 1.147.294l-.37.144.812.021c-.142-.256-1.92-.683-.742-.855-.143-.02-.269-.041-.423-.062.712-.169-.886-.242.034-.412.097-.018 1.598.019 1.544-.203-.195.005-.524.008-.77.013q.182-.073.368-.144l-.542-.027-.211.246-.186-.205c-.294.09-.298.13-.77.076l-.086-.232-.364-.024-1.08.113c.295-.202.311-.377 1.02-.531.12-.026.59.067.166-.113.249-.002.45-.007.68-.01-.696-.22-.488-.292.015-.521-.47.148-.164.016-.416-.022-.173-.026-.147.075-.329.064-.18-.012-.908-.143-.996-.03 1.492.274-.291.35.426.703l-.578-.164-.387.076c.292-.197.102-.1-.128-.182s-.425-.228-.489-.327c-.02-.031.315.002.346-.069.022-.047-.474-.178.11-.208.381-.02 1.43.19 1.427-.1.373-.055.257.084.302.087.444.026.778-.153.44-.235-.03-.007-.376.058-.512-.013-.324-.168.073-.265.61-.373-.63-.012-1.382-.154-1.15-.33l-.543-.026.285.082c-.113.03-.195.061-.328.09-.155-.177-1.023-.202-1.34-.287-1.085-.29 1.21-.114 1.605-.062-.16.038-.34.075-.507.112l.66-.012c-.006-.435 1.424-.067 1.832-.287-1.08-.057-1.183-.22-.499-.425-.005-.023-.006-.046-.013-.07-.157-.003-.398-.003-.501-.01-.183-.248 1.478-.292 1.636-.316.698-.104-.268-.186-.277-.217-.033-.13.396-.167.211-.291-.199-.133-.528-.042-.822-.083-.234-.032-.276-.137-.518-.18l.591.053c.27-.138.534-.25.6-.407-1.45-.177.997-.327-.988-.266-.136.148-.362.231-.868.31l-.192-.291c.218-.029.43-.049.652-.083-.463-.072-.264-.241-.4-.307-.636-.31-1.426-.214-.1-.497.13.204.774.203.686.406.46-.044.364-.147.916-.08-.136-.196-.628-.133-1.066-.209-.377-.066-.398-.198-.887-.19.269-.014.53-.024.799-.038l-.006-.38.843.162.318-.123c-.875-.312.728-.85-1.469-.763-.07-.15.206-.17.621-.251-.166-.01-.305-.018-.49-.027.174-.097-.452-.171-.29-.257s.753-.107-.24-.12c.284-.055.521-.11.786-.165l-.673-.1.354-.155c-.474-.028-.27-.232-.588-.322.511-.086 2.122-.084 1.833-.285l-1.197.016.25-.139.391-.008-.122.07.66-.06-.98-.211-.743.285c-.293-.12 0-.202-.327-.306.551-.09.87-.057 1.468-.02l-.152-.102c.599.022.955-.034.907.162l.51-.04c-.026-.033.118-.053.052-.089-.18-.096-1.231-.17-1.6-.163-.193.003.176.098-.097.094-.665-.01-.366-.227-1.035.087-.424-.104-.104-.127.018-.242l-.664.026.306-.16c1.14.074 1.568-.32 2.565.035q.075-.157.156-.313l.35.064-.183.141.64-.166c-.265-.131-.673-.182-1.176-.242-.367.152.134.102.234.221-.319-.004-.612.001-.946-.009.66-.061.18-.261.147-.308-.098-.141.55-.03.564-.125s-.372-.206.27-.283c-.36.001-.733.007-1.06.013-.12-.147.307-.118.362-.133.907-.244.141-.375.048-.654-.111.036-.212.071-.317.107-.765-.21-.531-.068-.784.114.077-.171-.575-.269-.769-.39-.193-.12.141-.327.402-.402.42.173.143.36.26.551.366-.022.677-.043 1.08-.066-.77-.116-.255-.184-.153-.222.3-.113-.361-.11.35-.178l-.679.008c.102-.234.535-.485-.369-.637.588-.014 1.154-.024 1.754-.04-.442-.099.011-.183-.092-.266-.104-.083-.58-.052-.762-.15-.034-.017.264-.055.044-.099s-1.86-.21-.427-.23c.006-.083.059-.162.083-.244l.24.239 1.04-.203c-.31-.01-.625-.018-.93-.026-.377-.183.13-.316.01-.5-.02-.031-.633.042-.477-.095s1.298-.239.857-.472c-.023-.012-.897-.08-.292-.164.137-.02.34.06.52.017.181-.043.33-.238.758-.253-.152.002-.309.014-.464.02l-.216-.1.802-.01c-.623-.192-1.64-.29-1.303-.574l-1.168.239.821.065-.326.392.932.064-.12.104-.673-.027q.083.104.167.206c-1.326-.139.112-.388-.997-.37l.52-.093c-.539-.013-.384-.076-.3-.186q-.394.04-.793.076c.373-.107.337-.298.481-.409.063-.049.453 0 .5-.014.239-.075-.442-.217-.388-.247.32-.178 1.61-.294.76-.488-.21.2-.121.091-.593.163-.148.022-.457.281-.32-.043.017-.038.908-.627 1.591-.434-.217-.095-.47-.17-.7-.257 1.8-.213.108-.14-.823-.077-.004-.035-.013-.069-.013-.105.978.077 1.038-.313.545-.446-.164-.044-.478.08-.626-.022.07-.05.158-.105.235-.156-.62.075-.858-.072-1.487-.07.56-.094 1.75-.166 2.394-.114l-.784-.234-.446.109c.395-.254-.505-.58.818-.633l-.027-.1-.67-.032.582-.455c.138.135.456.167.198.31q.386-.084.772-.165C6.548.942 6.094.913 6.3.591c.01-.014.59-.257.646-.266.258-.038.633.02.764.003C8.076.281 8.994-.005 9.133 0c1.7.07 1.723 1.033 1.81 1.294.907 2.702-.306 5.345-.099 8.03.004.028.255.016.265.028.063.073-.328.144-.344.172-.033.057.328.025.329.068-.005.435-.217.847-.155 1.283.004.028-.285 0-.234.05.028.025.472.106.478.164.023.203-.12.373-.112.587.004.117-.034.293-.027.424.002.058.205.118.212.175.01.081-.402.065-.427.077-.112.055.34.063.329.114-.022.097-.323.102-.298.225.02.088.257.288.327.399-.35.258-.21.584-.095.825.069.143-.354.156-.352.214.008.205.547.36.565.553.022.256-.334.483-.36.73-.004.04.383.031.393.07.036.147.107.333.052.463-.061.145-.623.198-.508.34.034.041.526.053.59.123.099.111-.335.233-.384.31-.065.107.437.015.37.158-.003.006-.362.027-.345.058.049.09.331.081.304.212-.003.013-.345.187-.346.204-.006.102-.125.307-.053.368.258.215.798.046-.373.229.287.08.577.16.856.246-.26-.057-.635.175-.61.19.195.136.65.055.575.226-1.052-.225-.136.22-.109.32.13.479-.132.914-.125 1.395.002.161.225.377.22.547 0 .04-.25.01-.255.045-.004.035.276-.004.26.036-.096.248-.624.442.036.669-.096.01-.171.01-.276.029.59.186-.203.543-.312.678-.17.21.23.264.149.416-.108.202-.888.506.4.37.04.139.051.272-.069.412-.013.016-.34.005-.347.011-.047.04.246.052.26.08.036.071-.315-.047-.217.056.052.055.308.086.313.237.028.91-.063 1.899-.106 2.832-.003.064.314.022.293.102-.07.28-.602.78-.53 1.02.073.24.536.187.73.337.037.03-.226.005-.23.032-.025.177-.436.388-.498.531-.041.095.373.088.403.153.043.098-.376.2-.39.252-.059.246.28.415.107.644.091-.009.176-.014.266-.022l-.045.815.253-.038c-.046.32-.95.283.959.255l.207.07c-.984-.01-1.703.184-1.953.43-.02.017.94.138-.193.125.277.032.468.05.711.077l-1.023.157.151.084c.222.004.453.001.67.01.034.13-.24.398-.212.5.072.256.672.517.023.715.066.097.502.001.447.145l-.66.049c.986.117.387.142.18.303-.14.11.102.181.055.285-.012.026-.302.022-.292.04.03.06.428.233.438.276.105.386.06.717-.046 1.085-.01.04.275-.012.263.029-.019.066-.458.027-.48.065-.057.106.406.107.43.255.08.488-.268 1.05-.3 1.56 0 .016.272.015.275.032.013.113-.353.227-.35.33.006.17.387.298.385.466-.001.328-.196.621-.207.96-.01.276.027.516.026.819-.006 1.324.855 2.675.397 4.008-.012.034-.251.02-.241.03.104.1.427.108-.25.143.133.125.642.165.605.316-.019.081-.807.02-.4.157.367.123.799-.013.358.354-.012.01-.493.057-.368.134.124.076.468-.012.571.172.243.433-.173.98-.045 1.483.008.032.265.335.383.395.23.116.587.092.675.243.067.116-.337.212-.256.35.01.015.425.042.37.145M4.873 22.116c-.408-.028-1.91-.08-1.453-.251.043-.016 1.076.071 1.24-.023.11.092.145.183.215.274zM3.374 48.364l.226-.386q.271.134.546.266zm.714-16-.582-.405.429.043.673.32zm1.51 1.067c-.17.087-.456.066-.734.113h.001a.24.24 0 0 0-.147.093q.268-.013.534-.028c.433.202-1.107.595-1.727.086l.677.022c-.063-.253.427-.535 1.396-.286M4.223 20.08c-.74-.216-.896-.286-.39-.548l.63.111-.64.13.674.026zm.84 21.627c-1.478.06-.619.043-.952-.13-.116-.06-.375-.001-.418-.038-.235-.2.755-.216 1.27-.172q.053.171.1.34M5.37 46.9c-.36.005-.458-.076-.8.015l.006-.207.1.061.373-.054c-.415-.025-.174-.047-.035-.12l-1.329.06.396-.254q.168 0 .335-.003l-.43-.095.4-.026-.305-.115c.323-.012.462.073.38-.077l.992.138zm-.762-6.76c.062.248-.172.178-.904.12zm.652-12.797q-.752-.109-1.475-.219c-.279-.147.63-.294.987-.183.428.133-.05.272.488.401m-.223-3.346c-.231.18-.824.01-1.17-.03.556-.05.507-.12.571-.23.036.104.639.23.601.26zm-.337 6.24c.015.072.154.143-.015.208-.478-.02-.044-.148-.751-.056l-.037-.138c.293.029.512-.01.801-.014zm-.653 7.498c.565-.141.323-.168-.069-.31.46-.02 1.231.15 1.4.256zM4.28 4.3c.587.034.663.285.49.409l-.264-.045zm.197 19.385a.3.3 0 0 0-.04.053c-.006-.019.004-.037.04-.053m2.545-7.526c.553.059.739-.117.522.097h.002c-.143.141-.18.172-.224.303-.71-.047-.964-.313-1.11.053-.001.005.421-.004.364.054-.018.018-.365.076-.466.164-.032.028-.14.242-.146-.05-.495.01-.996-.006-1.477-.005-.14-.114.83-.201.806-.321-.037-.179-1.018-.27.269-.304.316.15.323.408-.45.441-.01.145.624.187.938.07-.399-.501.94-.138.434-.577-.178-.005-.371-.023-.54-.02.63-.134.88.074 1.078.095m-1.368 1.048-1.138-.26c.616 0 1.169.048 1.516.185zm-.161-7.286c-.335-.012-.642-.046-.961-.07.282-.026.553-.65.83-.332.04.046-.552.327.13.402M4.55 38.716l.675-.22q.214.169.434.338zm1.297-12.568c-.012.031-.473-.072-.4.05-.295-.091-.544-.176-.821-.265l.653-.08-.42-.063.951.036c-.68.15.091.185.037.322m1.242 4.46c-.69.027-1.1-.19-1.21.024-.454-.04-.692-.106-.732-.23l.519-.061a4 4 0 0 1-.967-.105H4.7c-.033-.19.121-.18.884-.225-.43.201.266.207.68.345.286.094.157.217.825.252M5.502 10.587c-.583-.143-1.126-.015-.507-.268l.442.05q.034.108.065.218M4.724 31.31c1.068-.016 1.9-.15.162-.173-.354.13.63.067-.162.173m1.986-7.252c-.05.251-1.256.204-1.858.1l.657-.047-.298-.132zm-.813 11.68c-.762-.192-.424.207-.9.073-.38-.107.388-.248.87-.195a1 1 0 0 1 .03.121m-.218-1.11c-.815.03-.577-.015-.43.137.041.043-.265.387.41.243 0-.123.012-.253.02-.38m-.162-13.473c.355-.002 1.135.263.94.297h.001c-.531.091-.607-.188-1.336-.067.642-.268-.91-.349 1.135-.33.09.158-.332.083-.74.1m.435-20.143c-.016.017-.537.164-.718.146.155-.177.498-.145-.066-.31.182-.008.358-.016.54-.026.108.065.326.102.244.19m.257 8.234c.093.065-.292.183-.269.257-1.477-.235-.1-.516.27-.257M5.32 44.47h-.002zm.004-30.204q.144-.012.252-.014h.021zm.087 6.338c.495-.11 1.282.258 1.094.377-.225-.009-.43-.01-.69-.03.585-.095-.487-.328-.404-.347m.182 8.384c.013-.29 1.968.087.409.103a4 4 0 0 1-.409-.103m.023-6.091c.592.074.749-.075.647.163l-.46.041zm2.543 4.187c-.33-.366-.911-.716-2.543-.478l.156.084c.796.004.361.106.335.256.316.02.39.104.658.12.52.03.884-.066 1.394.018M6.862 42.53l-.407-.018-.46-.173.783.028.085.162m.473-24.966c-1.496-.034-1.22.082-.464.318zm.217 15.4-1.274.022c.443.126.93.102 1.492.042zm.18 1.8c.09-.051-.254-.025-.247-.03.18-.131.338-.15.08-.31l-.278-.06c-.89.075-.405.129-.929.286l.918-.085-.192.263.281.031c.121-.031.257-.063.368-.094M6.477 43.2l-.106.256.659.01q-.277-.135-.553-.266m.178-27.385-.236-.02q.144.002.236.02m.5-15.027c.153-.097.053-.236.085-.342-.55.008-.398.278-.732.372.1.015.583.01.647-.03m-.493 23.619.822.072-.09.176.675.005c-.292-.26.356-.2.995-.328zM7.9 45.91c-.152-.188-.436-.254-1.11-.149l.464.2zM7.16 12.4c-.251-.158.653-.16.148-.313l-.502.245zm2.485 7.692c.314-.067-1.182-.19-.077-.376-.33-.045-.645-.072-.968-.11.352-.023.707-.048 1.056-.069-.119-.17-.56-.06-.932-.064-.154-.001.104-.127-.232-.087-.577.067-.246.32-.95.32.23-.088.039-.262-.43-.21-.516.056.347.219-.08.323 1.124-.149.777.159-.087.194.664.18.934.014.903-.17.662.112.305-.054.855-.082.332.117.055.517.942.33m-1.22 8.515c-.043-.124.336-.32-.223-.405-.325-.05-.577.146-1.088.011.05.122.249.15.697.129q.08.04.159.083l-.261.039q.276.023.551.043l-.11.089c.092.003.173.01.275.011M7.134 7.897q.007.052.017.103l.335-.012.266-.01c-.317.02-.843.185-.505.255.17.035.772-.045.877.103-.031-.107-.113-.206-.164-.31l.538.027H8.5l.123-.104zm1.258 24.965c-.351-.118-.534-.158-1.101-.102H7.29l.754.132zm.136-18.066c-2.157-.251-.835.315-.1.207.033-.005-.138-.183.1-.207m-1.155 9.217.051.207.794-.048zM8.88 45.094c.592-.072.806-.258.163-.35l-.227.144c-.074-.09-.155-.18-.225-.27-.825-.006-.346.1-.574.257-.036.025-1.06.181-.288.235.158.011.266-.155.727-.04.037-.05.028-.094.049-.142l.59-.01zm-.518-17.212c.045-.171-.284-.192-.867-.228l.197.239zm.707 15.68c.095-.093-.379-.053-.47-.09-.338-.143 0-.24-.212-.382l.266.027c.4-.667-.676-.317-.5.083l-.528.027c.308.179.604.344 1.444.336M8.6 17.029c.11-.008.812.057.484-.065-1.024-.096-.516.062-.91.101l-.292-.099c-.289.197-.045.226.703.154.05-.005-.095-.084.015-.091m.505-1.294c-1.508-.027-.83.222-.362.213.019-.035-.236-.061-.124-.098.113-.036.466-.046.486-.115m-.369 7.115c.007-.007.64-.08.145-.073-1.175.09-.419.273-.01.241-.02-.06-.196-.1-.133-.168zm.498 23.376c.042-.004.297-.186.06-.21-.266-.019-.551-.029-.827-.043.256.1.061.304.767.252"/></svg>