<svg xmlns="http://www.w3.org/2000/svg" width="13" height="118" fill="none" viewBox="0 0 13 118"><path fill="#0ba6e2" d="M1.257 108.201c-.586.267-.202-.623-1.078-.032l-.179-.37.972-.095zm4.06.226c-.924-.151-1.17-.633-2.024-.113l.952.126q-.37.27-.737.543l.361.195-1.657.247.244-.221c-.448-.291-.57-.549-.654-.944l-.39.104.666-.599c.218.173.46.367.663.527.865-.257.384-.71.203-.945-.246-.321.165-.249-.007-.487-.027-.038-.349-.042-.354-.117-.026-.38.145-1.116.897-.685-.097.624.507 1.156.286 1.769.87-.162 1.166.16 1.551.6M2.548 96.96c.423.189.252.574-.04.835v.001c-.065.058-.627.188-.604 0 .04-.306.923-.453.323-.614.112-.072.211-.147.321-.222m-.052-.664c.217-.188.882-.103.702.132H3.2c-.075.098-.602-.095-.068.257-.415.072-.793.142-1.195.213-.007-.086-.018-.164-.023-.255.683.061.367-.16.582-.347m.608 9.445c-.615-.03-.61.094-1.037.304l.062-.595zm-.095 4.663.29.195-.658.116q.308.346.62.691c-.67-.028-.562-.441-1.03-.668.202-.338.59-.501 1.158-.523zm2.67-55.256-.557-.23c-.084.102-.15.204-.247.307.807.27.093.295.143.648.153 1.082 1.407.794-.43 1.772.088-.785-.775-.483-1.44-.956.506-.098 1.647.37 1.884.053-.536-.547-1.034-1.074-1.38-1.681l-.263.053.166.288-.703-.31c.532.133.235-.207.845-.162.272.02.65.17.909.26.141-.23.27-.464.408-.696l.65.359.018.293zM2.854 5.887c.632.29.737.819.033 1.097zm1.004 104.306-.322.098-.596-.437q.467-.041.931-.085zm-.346-9.293c.018.106.008.116-.036.248v-.001c-.016.053-.197.492-.436.443-.004-.218 0-.45 0-.673.157-.007.313-.009.472-.017m-.14 2.565-.002.001c-.036.079-.11.155-.123.236-.377-.294.299-.341.108-.609-.193-.267-.565-.433.36-.66.138.085.337.175.498.262-.37.381-.022.483.343.788zm.436-43.5c.457.073.008.154.003.162h-.002c.424.643-.253-.084-.324.523-.115-.09-.235-.179-.351-.268.22-.139.47-.282.674-.417m-.043 20.906-.4.019c.03-.365-.494-.458-.016-.761q.21.37.417.742zm.715 18.19c.255.404.367.703-.037 1.092l-.001.001c-.025.022-.304-.086-.374-.057.042.08.106.163.155.244l-.668.033.19-.685-.39.102-.202-.582 1.099.201c.077-.116.15-.233.228-.35m.742-24.265c-.145.064-.389-.055-.514.045-.123.1.148.283-.262.24-.056-.134-.119-.275-.177-.412-.74.44-.07.88-.983.886.236-.422.126-.77-.127-1.178.725.017 1.352.425 2.033.168.01.083.023.17.029.25zm7.728 41.308c-.055.251.24.823-.181 1.139-.105.078-1.453.337-1.631.336-.599-.008-.68-.324-1.07.015-.004-.114-.027-.225-.038-.338l-1.204.06.183.413-.4.02c-.002-.495-.516-.203-.995-.459l-.726.71c.03-.136.052-.296.087-.416-.682-.016-.52.27-.646.319-.714.276-.354-1.13-1.346-1.245-.11.224-.218.46-.327.69l-.368-.199c.685-.521.928-1.105 1.354-1.713l-.084-.163-.923.047-.109-.249c1.015.244 1.001-.094 1.62-.502.356.217.14.484.804.466-.51-.745.212-1.617-.365-2.342-.143-.18-1-.179-.92-.602.093.014.263.016.387.026-.41-.732-.655-1.176-.237-1.936l-.925.131.462.484c-.508.109-.733-.053-.727.429.004.394.228.159.38.267.205.145-.2.272.03.428.176.121.596-.009.49.306l-1.656-.384.371-.23.434.232-.778-.815c.786.092.492-.201.399-.359-.145-.248.395-.036.305-.198s-.695-.337-.566-.63c.35.157.663-.057.986-.016.323.042.394.352.747.054-.268-.573-1.498.049-1.697-.338-.24-.465 1.765-.575 2.196-.437.339.109.27.484.608.594.61-.671-.594-.677-.829-.792-.857-.417 1.43-.137.603-.631l1.223.026c-.078-.085-.182-.142-.244-.245-.833.304-.798.055-.799-.072-.003-.201-.41.109-.514.056-.28-.144-.153-.371-.52-.232.17-.062.342-.13.511-.194-.213-.235-1.998-.787-1.637-.262-.664-.049-.345-.219-.244-.351.1-.133-.322-.13-.243-.247.312-.463 1.034-.16 1.6-.087-.39-.612-.648-.013-.909-.895-.461-.085-.954.322-1.22-.017.802-.063 1.378-.313 1.644-.8l-.555-.142c.74-.266 1.51-.13.592-.622 1.689.264.609.082 1.296-.359.139-.089.489.118.666-.007.08-.057-.184-.194.02-.333.101-.067.752-.383.443-.602-.818.16-1.514-.255-2.19.101.166-.659-.227-1.12.889-.382l.74-.502-.582-.351c.672-.018.86 0 .742-.459q.24.297.48.598c.136.006.277.034.409.027-.258-.245-.37-.935-.548-1.102-.18-.167-.228.156-.402.108-1.43-.401-.375-.37-.621-.658-.145-.168-.303.235-.365.145-.227-.336.534-.491.544-.788q-.65.158-1.306.313c.022-.312.026-.66-.112-.949-.054-.114-.375-.028-.397-.046-.11-.092-.285-.467-.286-.507-.003-.299.442-.307.466-.598l.108.333 2.164.153.157-.855-.721.627-1.75-.978 1.073-.51c-.095-.46-1.547-.367-.275-.586l-.321-.408.545.058q-.167-.246-.336-.491c-.643.172-1.32.34-1.944.511-.14-.322.406-.328.542-.376.36-.128-.125-.381.208-.482.115-.035.474.281.888.172.08-.02 1.603-.444 1.251-.714-.276.005-.614.026-.914.037-.167-.363 1.272-.548 1.676-.5-.283-.194-.306-.476-.747-.516l-.032-.296c1.075.103.878-.309-.046-.336l-.07.51c-1.133-.129-1.817.387-.767-.686.59-.206-.08.364.36.197.258-.29.043-.563.453-.84.513-.343 1.006.08.353-.72-1.635 1.765-1.104-.243-1.611-1.073 1.614-.228 2.126-.928 1.645-1.893-.45.1-.218.404-.366.579s-.414-.014-.624.203-.495.681-.812.902c-.255-.187-.856-1.11-.134-.5.446-.455.903-.668.987-1.233-.701-.168-1.138-.156-1.158-.706.974.325 1.65-.3 2.657-.162-.234.39-1.212.172-1.68.398-.047.023.198.386.18.47.879-.366 1.206-.493 2.251-.267-.091-.26.04-.421-.459-.445l.65-.161c-.006-.085-.026-.16-.022-.25-.752.123-.289-.116-.63-.285-.342-.17-.936.058-.945-.409-.176.156-.327.298-.494.448l-.582-.903c-.46.211-1.144.669-1.749.656.229-.138-.173-.612-.19-.664-.061-.201.32-.092.33-.107.185-.316.055-.576.634-.696-.261-.237-.112-.416-.127-.668-.008-.139-.433-.112-.353-.193.539-.539 1.088-.025.043-1.065-.296.126-.6.25-.898.376l-.335-.351.161-.235 1.927.005.104-.259.19.444.338.04q.263-.33.528-.658l-.671-.013c.31-.495.5-.507-.115-.977.006-.363-.927-.658-1.32-.867q.189-.112.377-.227l-.556-.145.773-.287c-.586-.053-.769-.08-.975.292-.729-.128-.407-.784-.162-1.05.185-.203.794.022.868-.004.25-.084.034-.418.076-.488.173-.297.143-.504.277-.772.027-.052.413-.198.425-.21.066-.097.253-.334.259-.361.287-1.395-1.385.095-1.209-1.201l-.66.112-.04-.295c.185-.124.52.026.25-.22l.814.049c-.147-.107-.292-.21-.44-.32.944-.173 1.158-.802 2.265-.757.377.015.764.46 1.166.225.079-.191-.37-.062-.395-.14-.164-.564.467-.531.299-.762l-.819-.111.238-.262-.545-.062c-.012.082-.024.174-.037.25-.703-.106-1.019-1.068-.42-.701.244.15.14.423.972.25-.12-.258-.242-.55-.362-.82q.268-.014.537-.026c-.116-.365-.831-.033-1.215-.033l-.03-.252c.173-.035.354-.07.522-.106-.276-.004-.917-.05-.679-.3.155-.16.851.092.755-.213-.43.023-.955.133-1.094-.207.45-.034.861-.08 1.333-.107-.431-.423.263-.615-.24-1.112-.317-.315-1.444-.747.293-.95.045-.23-.387-.158-.484-.226-.46-.322.363-.561.412-.62.31-.383.025-.555.414-.867-.322.017-.626.026-.94.04.482.286.46.43.356.83l-.195-.402-.782.064c1.028 1.239-.596.95-.951-.088.483-.09.964-.183 1.449-.271-.732-.6-.097-.882.055-1.56.017-.08-.26-.375-.274-.5l-.006.005c-.456-.078-.666.028-1.074.04l-.153-.204c.311-.153.566-.1.492-.4l-.928.121c-.01-.33.325-.545.18-.852l.352.154c.298-.667 2.117-.136 1.212-.64l.478-.096.115.623.673.012-.204-.667.453.487.322-.773c-.825.274-.926-.081-1.744-.014.68-.456 1.578-.815 1.003-1.522-.114-.14-.686-.064.01-.462-.91.097-1.336-.402-2.201-.338.042.139.068.282.119.417.3-.153 1.125-.178 1.37.054.312.296-.26.729.656.711-.043.118-.068.228-.104.343l-.683-.14c.356.327.24.532-.333.69l-.393-1.168q-.059.086-.115.173c-.586-.295-1.14.01-1.265-.54l.804.009c-.715-.2-.712-.749-1.535-.574.253-.165.413-.2-.03-.293.625-.437 1.416-.717 2.36-.562l-.456-.485-.773.281.046-.848c.764-.027.232.544.915.379.137-.033-.156-.185-.08-.225.836-.42.233.24.873.116.198-.627 1.27-.125.369-.988.22-.023.445-.048.665-.069.013-.3-.485-.275-.58-.533-.058-.161.817-.364.221-.542-.11-.032-1.18.268-1.132-.362.036-.489.792-.285 1.06-.55.268-.264-.78-.868.408-1.047-.158.139-.243.315-.372.469l.69.185c-.298-.352.054-.715-.498-.951.844-.47.061-.993-.891-.852.137.155.552-.013.288.201l-.665.067c.027-.365.02-.618.697-.452l.048-.169-1.47-.03-.166-.202.326-.226c.775.102.8.276 1.233-.3q-.4-.004-.802-.006c.34-.483.99-.495.965-1.1.93.464-.718.718 1.147.716l-.37.351.812.052c-.142-.626-1.92-1.665-.742-2.084-.143-.051-.269-.102-.423-.153.712-.411-.886-.588.034-1.005.097-.043 1.598.047 1.544-.495-.195.014-.524.02-.77.032q.182-.177.368-.351l-.542-.064-.211.6-.186-.5c-.294.217-.298.315-.77.184l-.086-.566-.364-.058c-.36.092-.713.184-1.08.275.295-.49.311-.918 1.02-1.294.12-.065.59.163.166-.275.249-.007.45-.018.68-.026-.696-.535-.488-.712.015-1.27-.47.362-.164.04-.416-.053-.173-.063-.147.183-.329.155-.18-.027-.908-.347-.996-.074 1.492.67-.291.853.426 1.715l-.578-.399-.387.186c.292-.48.102-.247-.128-.444-.23-.198-.425-.557-.489-.798-.02-.076.315.004.346-.167.022-.116-.474-.435.11-.508.381-.049 1.43.463 1.427-.244.373-.134.257.206.302.213.444.062.778-.373.44-.574-.03-.017-.376.142-.512-.03-.324-.41.073-.647.61-.912-.63-.029-1.382-.373-1.15-.803l-.543-.065.285.2c-.113.073-.195.15-.328.221-.155-.432-1.023-.493-1.34-.7-1.085-.708 1.21-.279 1.605-.15-.16.091-.34.18-.507.271l.66-.03c-.006-1.06 1.424-.16 1.832-.699-1.08-.138-1.183-.533-.499-1.037-.005-.056-.006-.112-.013-.167-.157-.01-.398-.01-.501-.025-.183-.606 1.478-.714 1.636-.772.698-.255-.268-.453-.277-.528-.033-.317.396-.41.211-.71-.199-.325-.528-.103-.822-.202-.234-.08-.276-.335-.518-.44.198.041.392.088.591.13.27-.336.534-.61.6-.993-1.45-.43.997-.797-.988-.648-.136.361-.362.563-.868.757l-.192-.712c.218-.07.43-.119.652-.2-.463-.178-.264-.59-.4-.75-.636-.756-1.426-.523-.1-1.213.13.498.774.497.686.99.46-.106.364-.357.916-.195-.136-.477-.628-.323-1.066-.508-.377-.16-.398-.483-.887-.465.269-.033.53-.058.799-.091l-.006-.928.843.396.318-.3c-.875-.76.728-2.07-1.469-1.861-.07-.367.206-.412.621-.612-.166-.022-.305-.043-.49-.065.174-.237-.452-.418-.29-.627.162-.208.753-.26-.24-.29.284-.136.521-.27.786-.404l-.673-.242.354-.38c-.474-.068-.27-.567-.588-.786.511-.209 2.122-.203 1.833-.693l-1.197.037q.125-.167.25-.338l.391-.019-.122.171.66-.147-.98-.516-.743.697c-.293-.291 0-.494-.327-.747.551-.22.87-.14 1.468-.05l-.152-.247c.599.054.955-.084.907.395.17-.033.333-.067.51-.099-.026-.078.118-.13.052-.216-.18-.234-1.231-.414-1.6-.398-.193.008.176.24-.097.23-.665-.022-.366-.553-1.035.213-.424-.255-.104-.311.018-.592l-.664.064.306-.39c1.14.181 1.568-.778 2.565.085q.075-.382.156-.763l.35.157-.183.344.64-.406c-.265-.319-.673-.444-1.176-.59-.367.371.134.25.234.54-.319-.01-.612.003-.946-.023.66-.15.18-.637.147-.75-.098-.345.55-.075.564-.305s-.372-.503.27-.691c-.36.003-.733.018-1.06.032-.12-.36.307-.288.362-.325.907-.593.141-.914.048-1.593-.111.087-.212.174-.317.26-.765-.511-.531-.166-.784.278.077-.417-.575-.655-.769-.95-.193-.293.141-.797.402-.981.42.421.143.876.26 1.344.366-.053.677-.105 1.08-.16-.77-.285-.255-.45-.153-.543.3-.276-.361-.267.35-.433l-.679.018c.102-.568.535-1.181-.369-1.552.588-.033 1.154-.059 1.754-.098-.442-.24.011-.447-.092-.65-.104-.201-.58-.124-.762-.361-.034-.044.264-.136.044-.244-.22-.11-1.86-.512-.427-.56.006-.204.059-.396.083-.596l.24.582 1.04-.495-.93-.063c-.377-.446.13-.77.01-1.22-.02-.075-.633.103-.477-.23.156-.335 1.298-.582.857-1.15-.023-.03-.897-.198-.292-.401.137-.046.34.148.52.042.181-.106.33-.581.758-.618-.152.005-.309.034-.464.049l-.216-.245.802-.024c-.623-.466-1.64-.707-1.303-1.398q-.585.293-1.168.582l.821.16-.326.955.932.156-.12.253-.673-.064.167.5c-1.326-.338.112-.945-.997-.901l.52-.226c-.539-.033-.384-.186-.3-.455-.264.062-.526.13-.793.186.373-.261.337-.726.481-.997.063-.12.453 0 .5-.036.239-.181-.442-.528-.388-.601.32-.434 1.61-.716.76-1.19-.21.489-.121.223-.593.397-.148.054-.457.686-.32-.105.017-.093.908-1.528 1.591-1.057-.217-.232-.47-.414-.7-.627 1.8-.52.108-.34-.823-.189-.004-.085-.013-.166-.013-.254.978.187 1.038-.764.545-1.087-.164-.108-.478.194-.626-.056.07-.119.158-.254.235-.38-.62.183-.858-.175-1.487-.17.56-.23 1.75-.404 2.394-.279q-.39-.284-.784-.568l-.446.265c.395-.619-.505-1.414.818-1.543l-.027-.247-.67-.075.582-1.111c.138.33.456.408.198.755.257-.134.515-.27.772-.4-.692-.522-1.146-.593-.94-1.377.01-.036.59-.629.646-.65.258-.092.633.049.764.008.366-.115 1.284-.813 1.423-.8 1.7.17 1.723 2.52 1.81 3.155.907 6.588-.306 13.032-.099 19.58.004.067.255.037.265.066.063.178-.328.353-.344.419-.033.14.328.063.329.166-.005 1.063-.217 2.065-.155 3.129.004.07-.285-.002-.234.12.028.063.472.26.478.401.023.495-.12.91-.112 1.433.004.285-.034.714-.027 1.033.002.14.205.288.212.427.01.198-.402.157-.427.188-.112.133.34.152.329.278-.022.236-.323.249-.298.548.02.213.257.703.327.972-.35.63-.21 1.424-.095 2.012.069.348-.354.38-.352.522.008.5.547.88.565 1.35.022.623-.334 1.175-.36 1.779-.004.098.383.075.393.171.036.356.107.81.052 1.127-.061.354-.623.484-.508.83.034.1.526.13.59.3.099.27-.335.568-.384.757-.065.26.437.034.37.384-.003.014-.362.067-.345.142.049.218.331.197.304.517-.003.03-.345.455-.346.497-.006.249-.125.749-.053.896.258.525.798.111-.373.558.287.197.577.392.856.6-.26-.139-.635.426-.61.466.195.328.65.133.575.55-1.052-.55-.136.537-.109.779.13 1.167-.132 2.228-.125 3.402.002.392.225.919.22 1.334 0 .097-.25.024-.255.11-.004.084.276-.01.26.087-.096.604-.624 1.077.036 1.63-.096.027-.171.026-.276.071.59.453-.203 1.325-.312 1.652-.17.513.23.644.149 1.016-.108.493-.888 1.232.4.902.04.338.051.663-.069 1.004-.013.038-.34.012-.347.027-.047.096.246.128.26.193.036.176-.315-.111-.217.14.052.133.308.208.313.576.028 2.22-.063 4.63-.106 6.906-.003.156.314.053.293.249-.07.68-.602 1.9-.53 2.487.073.587.536.454.73.821.037.071-.226.013-.23.077-.025.432-.436.947-.498 1.296-.041.232.373.213.403.373.043.24-.376.486-.39.613-.059.6.28 1.012.107 1.572.091-.022.176-.036.266-.055l-.045 1.988.253-.092c-.046.777-.95.689.959.62.067.057.145.117.207.17-.984-.021-1.703.45-1.953 1.048-.02.044.94.339-.193.307.277.077.468.123.711.188-.343.126-.681.255-1.023.381l.151.206c.222.01.453.003.67.025.034.317-.24.969-.212 1.22.072.623.672 1.258.023 1.743.066.236.502.001.447.353-.22.04-.432.076-.66.118.986.287.387.347.18.74-.14.266.102.44.055.694-.012.064-.302.055-.292.1.03.146.428.566.438.67.105.94.06 1.749-.046 2.645-.01.097.275-.028.263.071-.019.16-.458.066-.48.16-.057.258.406.26.43.622.08 1.19-.268 2.558-.3 3.802 0 .038.272.036.275.078.013.276-.353.554-.35.804.006.415.387.727.385 1.136-.001.801-.196 1.517-.207 2.34-.01.674.027 1.26.026 1.999-.006 3.228.855 6.523.397 9.773-.012.083-.251.049-.241.074.104.24.427.262-.25.347.133.306.642.402.605.771-.019.197-.807.05-.4.383.367.3.799-.031.358.862-.012.024-.493.14-.368.326.124.187.468-.029.571.42.243 1.055-.173 2.39-.045 3.617.008.077.265.817.383.963.23.283.587.224.675.591.067.284-.337.518-.256.852.01.039.425.104.37.354m-8.077-62.18c-.408-.07-1.91-.194-1.453-.613.043-.04 1.076.175 1.24-.057.11.227.145.447.215.67zM3.374 117.92l.226-.941.546.648zm.714-39.011-.582-.988.429.104.673.78zm1.51 2.602c-.17.21-.456.16-.734.275h.001c-.072.03-.136.173-.147.228.18-.02.356-.047.534-.069.433.491-1.107 1.45-1.727.208l.677.055c-.063-.617.427-1.306 1.396-.697M4.223 48.958c-.74-.527-.896-.696-.39-1.335l.63.27-.64.316v.001l.674.063zm.84 52.73c-1.478.147-.619.105-.952-.315-.116-.145-.375-.004-.418-.094-.235-.488.755-.527 1.27-.418.036.276.067.555.1.826zm.307 12.664c-.36.012-.458-.185-.8.037q.004-.252.006-.507l.1.15.373-.131c-.415-.06-.174-.116-.035-.294l-1.329.147.396-.619.335-.007-.43-.233.4-.062-.305-.282c.323-.028.462.179.38-.188l.992.338zm-.762-16.481c.062.605-.172.434-.904.294zm.652-31.203q-.752-.263-1.475-.532c-.279-.358.63-.716.987-.447.428.325-.05.663.488.98m-.223-8.157c-.231.438-.824.026-1.17-.073.556-.121.507-.29.571-.562.036.255.639.562.601.635zM4.7 73.72c.015.175.154.35-.015.507-.478-.047-.044-.361-.751-.137l-.037-.336c.293.071.512-.024.801-.034zm-.653 18.283c.565-.345.323-.41-.069-.758.46-.049 1.231.365 1.4.625zm.235-81.518c.587.083.663.693.49.996l-.264-.108zm.197 47.262a1 1 0 0 0-.04.13.15.15 0 0 1 .04-.13m2.545-18.35c.553.145.739-.284.522.237h.002c-.143.345-.18.42-.224.74-.71-.115-.964-.763-1.11.13-.001.012.421-.011.364.131-.018.044-.365.185-.466.4-.032.069-.14.59-.146-.12-.495.02-.996-.017-1.477-.016-.14-.277.83-.49.806-.782-.037-.435-1.018-.657.269-.74.316.365.323.993-.45 1.075-.01.354.624.456.938.17-.399-1.222.94-.335.434-1.405-.178-.013-.371-.057-.54-.05.63-.327.88.18 1.078.23m-1.368 2.557q-.568-.318-1.138-.632c.616 0 1.169.115 1.516.448zM5.494 24.19c-.335-.03-.642-.112-.961-.171.282-.064.553-1.585.83-.811.04.112-.552.797.13.982M4.55 94.395l.675-.535q.214.412.434.823-.555-.143-1.109-.288m1.297-30.642c-.012.076-.473-.175-.4.123-.295-.223-.544-.43-.821-.648l.653-.196-.42-.153c.318.03.628.058.951.09-.68.366.091.45.037.784M7.09 74.63c-.69.066-1.1-.464-1.21.057-.454-.099-.692-.258-.732-.563l.519-.147c-.464-.006-.637-.085-.967-.256-.033-.464.121-.436.884-.548-.43.49.266.506.68.84.286.23.157.53.825.617M5.502 25.81c-.583-.347-1.126-.035-.507-.65l.442.118q.034.267.065.532m-.778 50.533c1.068-.04 1.9-.367.162-.423-.354.319.63.163-.162.422M6.71 58.66c-.05.613-1.256.497-1.858.245l.657-.116-.298-.321zm-.813 28.477c-.762-.468-.424.505-.9.178-.38-.26.388-.605.87-.475q.019.137.03.296zm-.218-2.708c-.815.077-.577-.034-.43.336.041.105-.265.945.41.592 0-.3.012-.616.02-.928m-.162-32.847c.355-.006 1.135.64.94.723h.001c-.531.224-.607-.457-1.336-.162.642-.654-.91-.85 1.135-.805.09.386-.332.203-.74.244m.435-49.113zc-.016.043-.537.4-.718.357.155-.43.498-.353-.066-.753.182-.022.358-.041.54-.065.108.16.326.247.244.462m.257 20.077c.093.157-.292.446-.269.626-1.477-.573-.1-1.257.27-.626m-.89 85.883-.002-.002zm.004-73.643q.144-.03.252-.036h.021zM5.41 50.24c.495-.269 1.282.628 1.094.918-.225-.02-.43-.024-.69-.071.585-.234-.487-.802-.404-.847m.182 20.44c.013-.708 1.968.214.409.252a2.7 2.7 0 0 1-.409-.251m.023-14.851c.592.18.749-.182.647.398l-.46.101zm2.543 10.209c-.33-.892-.911-1.745-2.543-1.164l.156.203c.796.01.361.26.335.624.316.052.39.254.658.293.52.073.884-.16 1.394.044m-1.296 37.658-.407-.043-.46-.424.783.069.085.397zm.473-60.872c-1.496-.081-1.22.202-.464.776zm.217 37.547-1.274.056c.443.305.93.249 1.492.103zm.18 4.393c.09-.127-.254-.062-.247-.076.18-.32.338-.365.08-.758q-.137-.072-.278-.143c-.89.181-.405.313-.929.698l.918-.208-.192.64.281.076c.121-.076.257-.154.368-.23m-1.256 20.563-.106.624.659.023zm.178-66.77-.236-.046a.6.6 0 0 1 .236.046m.5-36.637c.153-.235.053-.575.085-.833-.55.02-.398.677-.732.908.1.037.583.025.647-.075m-.493 57.587q.41.09.822.177-.046.214-.09.43l.675.012c-.292-.633.356-.487.995-.8zM7.9 111.938c-.152-.457-.436-.619-1.11-.362l.464.485zm-.74-81.704c-.251-.383.653-.389.148-.763l-.502.6zm2.485 18.755c.314-.161-1.182-.463-.077-.916-.33-.108-.645-.176-.968-.27.352-.053.707-.114 1.056-.166v-.001c-.119-.411-.56-.145-.932-.154-.154-.004.104-.31-.232-.214-.577.164-.246.78-.95.782.23-.216.039-.639-.43-.514-.516.137.347.535-.08.788 1.124-.363.777.387-.087.473.664.44.934.035.903-.416.662.275.305-.13.855-.197.332.284.055 1.259.942.805m-1.22 20.763c-.043-.304.336-.78-.223-.988-.325-.12-.577.355-1.088.027.05.296.249.364.697.313l.159.204-.261.094.551.106-.11.216c.092.008.173.023.275.028M7.134 19.254q.007.126.017.252l.335-.03.266-.024c-.317.05-.843.451-.505.621.17.085.772-.109.877.253-.031-.262-.113-.505-.164-.759l.538.068H8.5l.123-.255zm1.258 60.869c-.351-.288-.534-.385-1.101-.249l-.001.001.754.322zm.136-44.048c-2.157-.612-.835.767-.1.504.033-.011-.138-.446.1-.504M7.373 58.548l.051.505.794-.117zm1.507 51.4c.592-.177.806-.631.163-.853l-.227.35c-.074-.221-.155-.439-.225-.661-.825-.011-.346.245-.574.63-.036.059-1.06.441-.288.572.158.027.266-.379.727-.097.037-.123.028-.23.049-.346l.59-.026zm-.518-41.967c.045-.418-.284-.47-.867-.556l.197.583zm.707 38.233c.095-.229-.379-.131-.47-.223-.338-.348 0-.585-.212-.929l.266.066v-.001c.4-1.628-.676-.773-.5.201l-.528.067c.308.436.604.838 1.444.819M8.6 41.516c.11-.019.812.14.484-.157-1.024-.235-.516.15-.91.247q-.145-.122-.292-.242c-.289.48-.045.55.703.375.05-.013-.095-.204.015-.223m.505-3.153c-1.508-.066-.83.54-.362.517.019-.083-.236-.148-.124-.237.113-.09.466-.112.486-.28M8.737 55.71c.007-.018.64-.196.145-.179-1.175.22-.419.665-.01.587-.02-.147-.196-.245-.133-.408zm.498 56.993c.042-.009.297-.453.06-.511-.266-.047-.551-.07-.827-.106.256.245.061.741.767.616z"/></svg>