<svg xmlns="http://www.w3.org/2000/svg" width="64" height="40" fill="none" viewBox="0 0 64 40"><path fill="#0ba6e2" d="M3.978 28.253V3.08H59.98v25.173H36.788l-5.657 6.505-5.94-6.505z"/><path fill="#0ba6e2" d="M7.937 4.682c.105.942-.007 2.178-.16 3.117-.047.294-.26.145-.301.348-.083.397.021.767-.077 1.16-.034.13-.37-.032-.397.104-.148.748-.063 1.455-.134 2.213-.353 3.73-.479 7.397-.632 11.173-.05 1.244-.355 2.758-.221 4.044.015.15.31.06.335.09.372.447-.224.298-.303.59a8 8 0 0 0-.157.732L3.978 26.34c.954.16 1.951.158 2.838.068.476-.05 0-.635.478-.306.033.022-.088.335.043.368.295.076.856.02 1.085.044.442.05.515.047.932.05.571.008 1.25.163 1.863.092.13-.016-.043-.337.166-.391.209-.055.76-.027.947.048.186.076.107.328.14.386.27.488.91-.188.992-.205 1.498-.284 2.783.1 4.19.1 1.067-.002 2.208-.13 3.224-.112 1.21.022 2.236.196 3.412.166.124-.003-.021-.38.13-.384q.387-.01.773-.014l.786-.038.692.69c.919.989 1.778 2.024 2.528 3.163.09.136-.295.206-.22.356.461.91 1.028 2.5 2.487 1.958.294.383.637.82.876 1.274l-2.445.03a3 3 0 0 1 .5-.28c.394-.168.421.35.615-.107.044-.103-.286-.205-.202-.344.354-.583.914-1.07 1.227-1.679.063-.124-.175-.282-.188-.345-.1-.514.766-.47.88-.526.864-.429 1.18-1.015 1.731-1.635.128-.143-.308-.221-.195-.369.357-.461.748-.912 1.166-1.328l.454-.576.904-.043q.574.04 1.129.139c.209.038.016.362.116.397.441.15.539-.462.961-.33.09.028.04.305.056.335.254.479.475-.199.54-.214.828-.204 1.357.503 2.157.403.095-.013-.12-.364.149-.378 1.79-.097 3.685 0 5.459.28.275.043.079.307.096.34.283.508.466-.173.555-.199.71-.184 1.372.387 1.854-.424 3.003.281 5.993-.174 8.972.552.038.009-.03.344.045.36.768.158.764-.188 1.104-.682l-1.221 1.222a2.4 2.4 0 0 1-.289-.233c-.16-.152.61-.613.666-.654.208-.149.706.005.746-.044.316-.412-1.333-.345-1.333-.901.003-.017.306.056.336.009.095-.145-.026-.289.079-.43.242-.325 1.043-.44.577-.937-.06-.062-.996.033-.952-.463.018-.198.002-1.074.063-1.319.06-.245.362-.077.375-.094.398-.66.564-.41 1.154-.741.588-.331-.814-.24-.971-.374-.156-.136.173-.62.287-.739s.306.03.37-.076c.424-.702-.695-.308-.918-.54-.527-.544.513-.968.615-1.467.028-.135-.21-.025-.231-.145-.085-.476.24-.762-.058-1.304-.048-.088-.674-.526-.215-.81.066-.04.325.075.383-.128.088-.303.144-.85.058-1.175-.064-.24-.491.035-.359-.268.06-.134.31.115.4-.137s.079-.895.07-1.14c-.008-.243-.332-.11-.354-.13-.125-.119-.281-.587-.28-.629-.04-2.088.505-4.014.325-6.048-.014-.16-.355-.053-.361-.078-.143-.546.765-.115 1.069-.497-.693.055-.568-.17-.644-.555-.037-.185-.305-.084-.333-.101-.407-.275.12-.467.227-.516.396-.182-.072-.38.193-.504.263-.124.652.161.647-.208-.248-.104-.896.17-1.001-.11-.17-.449-.175-1.064-.12-1.687l1 1c-.844-.072-1.704-.253-2.193-.284-.848-.052-1.122-.007-1.617-.096-.893-.162-.566.319-1.12.539-.556.22-.286-.963-.366-1.218-.078-.254-.164.008-.261-.132-.098-.14.113-.313-.116-.365-.229-.053-.855.4-.936.666-.172.563.11 1.155-.495.947-.035-.013.078-.324-.055-.355-1.06-.24-2.16-.255-3.22-.466-.145-.03-.015-.376-.1-.397-.881-.222-.566.362-1.05 1.01.109-.863-.158-1.39-.828-1.396-.402-.003-.333.374-.593.64-.078.08-.363-.18-.415-.002-.17.58.098 1.228-.592.97-.03-.013.066-.33-.038-.349-.677-.126-.758.48-1.489.554-.573.057-1.592-.312-2.245-.372.014-.97-.602-.748-.852-.08-.424-.027-.881.011-1.29-.081-.141-.032-.049-.313-.067-.343-.272-.476-.456.175-.547.2-.991.248-1.798-.245-2.744.237-.033.017-.088.691-.34.2-.017-.035.295-.341-.15-.365s-1.283-.385-1.9-.073c-.15.075-.528.622-.831.195-.04-.058.004-.251-.055-.359-.188-.343-.291.338-.513-.24s-.683-1.012-1.306-.613c-.02.012-.167.551-.363.543-.312-.014-.756-.127-1.083-.123-.156.002-.056.337-.083.343-1.051.188-1.8-.11-2.925-.24-.206-.025-.8.432-1.2.07-.438-.395.013-2.04-.995-1.649-.407.157-.922 2.245-1.653 1.163-1.418.268-2.729-.285-4.15.098-.064.017-.267.6-.417.591-.223-.013-.345-.285-.505-.303-.667-.082-1.278.151-1.922.115-.244-.013-.159-.295-.45-.31s-.486.355-.88.176c-.299-.137-.597-.895-.992-.983-.015.747-.287.732-.77.93-.093.038.006.298-.037.33-.18.134-.345-.082-.514.064-.042.035-.044.29-.077.333-.287.376-.76-.198-.841-.298-.312-.38-.457-.048-.696-.197s.118-.337-.16-.427c-.577-.188-1.319-.147-1.905-.159-.234-.003-.074.338-.108.346-.483.086-.973-.277-1.24.402-.336-1.755-.292.17-.984-.18-.054-.03-.123-.86.086-.981.209-.122.526.138.816-.052.069-.045.462-.823.516-.87.42-.368.48.872.502.94.252.736.733-.102.86-.16.579-.266 1.071-.091 1.555-.28.317-.123.348-.936.597-.91.827.081 1.116 1.215 1.895.232.168-.21.001-1.098.6-.4.038.045.483.684.74.28.032-.051.03-.31.073-.332.285-.14.475.066.786-.033.31-.099.684-.246 1.039-.158.213.052.488.534.59.652.289.34.599-.217.778.195.18.414-.173 1.042.3 1.31.018-.673.058-1.363.086-2.04 1.038.024 2.058.242 3.099.212.129-.004-.003-.366.135-.38.583-.057 1.093.2 1.698.098.469-.08.982-.464 1.472-.56.3.77 1.026.508 1.554.579.185.024.172.23.304.296.496.248.264-.432.4-.539.583-.456.633 1.083 1.321 1.045.037-.002.482-.822.544-.873.39-.333.064.285.308.346.446.11.756.307 1.278.066.153-.07.518-.582.814-.187.04.052.018.323.05.34.567.264.582-.588.906-.877.324-.288.825.3.927.47.267.438-.205.187-.219.23-.17.512.196.424.475.467.04.836.43.786.29.042-.017-.082-.234-.004-.29-.042.245-.82.674-.925 1.148-.158.221.359.012.777.685.624.306-.07.188-.644.458-.801.616-.358 1.417.179 2.053.094.23-.03.006-.346.163-.377.419-.086.788.15 1.208.03.038-.012-.055-.342.076-.346.99-.038 1.852.173 2.887.179.5.003 1.393-.18 1.91-.143.897.062 2.001.541 2.767.425.5-.075.39-.405.605-.63.413-.435 1.145.345 1.243.466.003.004-.427.082-.197.251.133.353.192-.25.197-.251.065.078.924.153 1.095.09.092-.035.04-.347.089-.36a9.5 9.5 0 0 1 3.465-.212c.02.006-.01.356.038.366.674.156 1.106-.272 1.663-.526.556-.253.997-.168 1.326.432.42-.076 1.022.19 1.369.35.346.161.395-.52.425-.533.674-.305 1.147-.198 1.716-.088l2.911.138-.126 2.647a6 6 0 0 0-.108.771c-.03.47.069 1.4.143 1.907.06.402-.1.644.003 1.013.013.05.316 0 .328.015.362.413-.378.215-.51.3-.481.309-.737.5-.511 1.028.052.122 1.118.477 1.18.7.08.289-.303.18-.21.482.007.026.243.02.233.207-.046.867-.183 1.812-.16 2.713.003.123.377-.035.387.143.044.834.03 1.748-.145 2.561-.044.2-.306.075-.384.118-.47.267.213.645.226.707.329 1.488-.29 2.627.005 4.143.017.083.75.718.121 1.002-.041.02-.684.3-.245.548.028.015.359-.16.325.145s.187.796-.176 1.216c-.115.132-.756.446-.245.842.036.026 1.191.637.394.855-.131.036-.975-.002-.542.471.084.09.272-.074.39.164.18.365-.046.848.33 1.296.067.078.64.41.205.677-.068.042-.35-.037-.382.103-.077.343-.065.694-.062 1.046l-.167 3.527-3.208-.152c-.336.003-.674 0-1.006-.096-.241-.069-.118-.524-.37-.646-.25-.122-.756-.24-1.02-.031-.262.208.025.934-.369.992-1.712.252-3.408-.174-5.118-.236-.253-.01-.043.25-.417.255-1.377.02-3.756.263-4.951-.289-.958-.442.247-.778-.485-.958-.353-.086-.735.758-.82.785-.833.27-1.412-.104-2.162.01-.154.024-.003.366-.134.383-.45.059-.923-.094-1.353-.066-.193.013-.158.275-.335.255a2.86 2.86 0 0 1-1.215-.4c-.038-.023.217-.348-.097-.36-.509-.018-1.14-.26-1.725-.01-.174.075-.18.672-.554.26-.078-.087.021-.804-.413-.184-.046.063-.343.409-.648.534l2.696-1.229c-.065.192-.194.331-.438.3-.17-.022-.77-.225-.838-.006-.007.03.309.155.22.306-.322.53-.767.989-1.102 1.528-.09.144.324.174.184.382-.387.572-1.012 1.163-1.53 1.6-.192.161-.288-.148-.322-.154-.557-.101-.174.459-.208.557-.218.6-.75.741-1.049 1.21-.083.129.224.253.225.294 0 .416-.271-.13-.448-.02-.178.108-.341.24-.493.385l-2.734 2.857-2.32-2.796a7 7 0 0 0-.764-.824c-.15-.142-.262.274-.394.144-.786-.768-1.53-1.634-2.103-2.56-.108-.174.184-.27.203-.343.135-.515-.602-.418-.71-.45-.495-.15-.43-.444-.728-.702a19 19 0 0 1-1.623-1.606l2.68 1.182c-1.324 0-2.676-.088-3.809-.152-2.356-.13-4.184-.396-6.43-.327-.144.004 0 .376-.123.384-1.59.09-3.154-.055-4.746.052-.13.008.058.36-.152.386-.43.054-.975.034-1.41-.078-.213-.054.072-.357-.142-.405a4.7 4.7 0 0 0-1.54-.082c-.218.024.11.385-.173.39-.9.016-1.794.038-2.689.01L0 31.869l.172-3.616c.033-1.017.131-2.036.38-3.07.032-.134.765-.25.624-.534-.203-.022-.442-.02-.66-.03-.117-2.801.137-5.574.176-8.384.002-.118-.386.086-.385-.143.005-1.327-.102-2.616.284-3.974.038-.135.72-.065.617-.462-.018-.07-.11-.668-.258-.823-.022-.02-.341.088-.35-.104a16 16 0 0 1 .219-3.411c.032-.18.372.012.397-.117.18-.911-.078-1.902.23-2.773.208-.583.795-.367 1.373-.677.082-.044.095-.405.431-.424.845-.047 1.771.127 2.672.056.194-.016-.015-.499.454-.213.032.02.188.37.347.457.11.06.452-.048.592.074.141.123-.146.258.02.461.167.203.556.114.602.52M59.4 1.635c.321.327.368-.87.021-.583-.016.015-.037.567-.02.583m-38.822.19c.42.527.707-.249.41-.656-.295-.408-.538.495-.41.655m-4.35.385c.49.416.568-1.28.043-.938-.03.02-.071.913-.043.938M2.984 5.187a.8.8 0 0 0 .015-.27c-.38-.138-.41.38-.015.27M11.91 2.63c.153.23.594-.035.403-.32-.153-.23-.594.035-.403.32m48.237 16.608c-.018.005-.034.19.067.187.324-.013.233-.272-.067-.187M4.575 2.649c1.083.063 1.74 1.465.56 1.307-.214-.029.46-.447.189-.574-.498-.23-.829.65-1.337.179-.091-.087.526-.92.59-.914q-.002 0-.002.002m55.009.423a.8.8 0 0 0 .27.016c.14-.38-.38-.41-.27-.016M58.142 27.68c-.015-.033-.612-.065-.632-.034-.311.621.897.687.632.034m-15.9-23.732c-.282.382-.618.427-.842-.053.28.026.56.03.841.053"/></svg>