<svg width="64" height="40" viewBox="0 0 64 40" fill="none" xmlns="http://www.w3.org/2000/svg">
<path d="M3.97815 28.2526V3.07983H59.9804V28.2526H36.7875L31.1308 34.7579L25.1911 28.2526H3.97815Z" fill="#0BA6E2"/>
<path d="M7.93747 4.68179C8.04168 5.62424 7.93025 6.85964 7.77731 7.79854C7.72988 8.09278 7.51785 7.94379 7.47556 8.14691C7.39312 8.54418 7.49711 8.91428 7.3989 9.30687C7.36531 9.43697 7.02945 9.27502 7.00193 9.41144C6.8535 10.159 6.93904 10.8663 6.86765 11.6236C6.51541 15.3538 6.38933 19.0206 6.2363 22.7965C6.18613 24.0415 5.88133 25.555 6.01462 26.841C6.03049 26.9911 6.32529 26.9016 6.34958 26.9301C6.72155 27.3781 6.12641 27.2292 6.04734 27.5217C5.98306 27.7607 5.93087 28.0052 5.8895 28.2526L3.97815 26.3412C4.93234 26.5008 5.9291 26.4993 6.81631 26.409C7.29162 26.3597 6.81506 25.7741 7.29364 26.1028C7.32688 26.125 7.20628 26.4381 7.33663 26.4715C7.63223 26.5466 8.19306 26.4906 8.42216 26.5154C8.86369 26.5648 8.93674 26.5616 9.35436 26.5652C9.92527 26.5728 10.6043 26.7284 11.2168 26.6575C11.3476 26.6414 11.1745 26.3205 11.383 26.2659C11.5917 26.2114 12.1438 26.2386 12.33 26.3142C12.5162 26.3899 12.4369 26.6422 12.4698 26.7C12.7409 27.188 13.3796 26.5121 13.4617 26.4954C14.9599 26.2106 16.2448 26.5956 17.6511 26.5945C18.7188 26.5929 19.8604 26.4657 20.8763 26.4832C22.0866 26.5052 23.1124 26.6791 24.2882 26.6492C24.4123 26.6464 24.2669 26.2691 24.4184 26.2649C24.6763 26.2579 24.9338 26.253 25.1911 26.2509L25.977 26.2135L26.6693 26.9029C27.5877 27.892 28.4468 28.9269 29.1968 30.0655C29.2861 30.2017 28.9017 30.272 28.9763 30.4215C29.4384 31.3313 30.0047 32.9215 31.4637 32.3803C31.7578 32.7627 32.1012 33.2006 32.34 33.6538L29.8951 33.6834C30.0583 33.5718 30.2255 33.4754 30.3955 33.4033C30.7888 33.2361 30.8163 33.7546 31.0098 33.2973C31.0538 33.1944 30.7244 33.0915 30.8084 32.953C31.1622 32.3698 31.7216 31.883 32.0348 31.274C32.0979 31.1497 31.8599 30.9917 31.8466 30.9293C31.7463 30.4153 32.6133 30.4586 32.7275 30.403C33.5907 29.9741 33.9074 29.388 34.4583 28.7682C34.5863 28.6245 34.15 28.5465 34.2628 28.3993C34.6204 27.9376 35.0106 27.4874 35.4286 27.0709L35.8834 26.4947L36.7875 26.4517C37.1684 26.479 37.5462 26.5243 37.9155 26.5906C38.1247 26.6291 37.9324 26.9531 38.0323 26.9881C38.473 27.1383 38.5707 26.5262 38.9934 26.6585C39.0825 26.6856 39.0323 26.963 39.0486 26.9934C39.3029 27.4717 39.524 26.794 39.5894 26.7791C40.4171 26.5747 40.9461 27.2821 41.7457 27.1819C41.8414 27.1692 41.6257 26.8182 41.8946 26.804C43.6859 26.7071 45.5805 26.8035 47.3537 27.0842C47.6294 27.1274 47.4326 27.3911 47.4499 27.4236C47.7327 27.9315 47.9156 27.251 48.0055 27.2254C48.7147 27.0409 49.3772 27.6116 49.859 26.801C52.8624 27.0823 55.8521 26.6272 58.8307 27.3533C58.8686 27.3617 58.8007 27.6968 58.8763 27.7122C59.6435 27.8709 59.6395 27.5253 59.9804 27.031L58.7589 28.2526C58.6671 28.1892 58.5701 28.114 58.4703 28.0197C58.3103 27.868 59.0794 27.4067 59.1358 27.3659C59.3436 27.2172 59.8422 27.3714 59.8824 27.3216C60.1983 26.9096 58.5494 26.9767 58.5489 26.4209C58.5516 26.4035 58.8551 26.4765 58.8853 26.4298C58.9801 26.2849 58.8595 26.1412 58.9639 25.9993C59.2057 25.6747 60.0069 25.5591 59.5406 25.0633C59.4801 25.0005 58.5448 25.0964 58.5889 24.6001C58.6073 24.4022 58.5913 23.5265 58.6519 23.281C58.7125 23.0359 59.0139 23.2042 59.0269 23.1867C59.4255 22.5262 59.5907 22.7766 60.1807 22.4457C60.7686 22.1148 59.3665 22.2066 59.21 22.0717C59.054 21.9365 59.3828 21.4522 59.4971 21.3332C59.6115 21.2143 59.803 21.3626 59.8677 21.2569C60.2906 20.5555 59.1718 20.949 58.9493 20.7179C58.4224 20.1731 59.4621 19.7488 59.564 19.25C59.5915 19.1151 59.3547 19.2252 59.3326 19.105C59.248 18.6291 59.5724 18.3428 59.275 17.8014C59.2265 17.7128 58.6014 17.2751 59.0601 16.9917C59.1263 16.9516 59.3854 17.0656 59.4434 16.8628C59.5305 16.5597 59.5872 16.0138 59.5006 15.688C59.4365 15.4476 59.0095 15.7232 59.1422 15.4205C59.2014 15.286 59.4511 15.5353 59.5416 15.2826C59.632 15.0312 59.621 14.3884 59.6124 14.1438C59.6036 13.8996 59.2797 14.0333 59.2579 14.0135C59.1329 13.8941 58.9767 13.4256 58.9771 13.3842C58.9376 11.2956 59.4835 9.36959 59.3028 7.33608C59.2891 7.1765 58.9476 7.2828 58.942 7.25845C58.7989 6.71213 59.7069 7.14287 60.0108 6.76124C59.3178 6.8164 59.4433 6.59111 59.3673 6.20628C59.3301 6.02083 59.0617 6.12183 59.0342 6.10491C58.6267 5.8299 59.1531 5.63841 59.2608 5.58909C59.657 5.40695 59.1889 5.20877 59.4537 5.08482C59.7165 4.96095 60.1061 5.24601 60.1011 4.87695C59.8531 4.77345 59.2048 5.04746 59.0997 4.76724C58.9308 4.31803 58.9255 3.70341 58.9793 3.07983L59.9804 4.08089C59.1363 4.00803 58.2758 3.82688 57.7869 3.79649C56.9386 3.7437 56.6646 3.78947 56.1702 3.69981C55.2772 3.5377 55.6045 4.0187 55.05 4.23887C54.4939 4.45901 54.7643 3.27552 54.6843 3.0211C54.6058 2.7668 54.5202 3.02858 54.4226 2.88878C54.3253 2.74901 54.5359 2.57603 54.3071 2.52354C54.0781 2.47111 53.4522 2.92353 53.371 3.18956C53.1995 3.75315 53.4815 4.34466 52.8757 4.13682C52.8409 4.12449 52.954 3.81329 52.8206 3.78184C51.7609 3.54227 50.6601 3.52742 49.6018 3.31553C49.4563 3.28591 49.5864 2.93972 49.5017 2.91856C48.6196 2.69713 48.9349 3.28086 48.4515 3.9293C48.56 3.06636 48.2927 2.53841 47.6232 2.53331C47.2208 2.52994 47.29 2.90683 47.0297 3.17247C46.9517 3.25254 46.6669 2.99376 46.6153 3.171C46.4451 3.7504 46.7134 4.39899 46.0231 4.14073C45.9928 4.12845 46.0893 3.8113 45.9846 3.79209C45.3082 3.66637 45.2273 4.27241 44.4962 4.3458C43.9231 4.40339 42.9039 4.03384 42.2513 3.97373C42.2651 3.00354 41.6487 3.2257 41.3987 3.89463C40.9752 3.86725 40.5178 3.90506 40.1085 3.8126C39.9676 3.78108 40.0602 3.50018 40.0424 3.46983C39.77 2.99371 39.5859 3.64451 39.4945 3.67002C38.5038 3.91804 37.6966 3.42479 36.7512 3.90684C36.7176 3.9242 36.6632 4.59813 36.4105 4.10606C36.3941 4.07214 36.7064 3.76551 36.2616 3.7418C35.8168 3.71804 34.9782 3.35676 34.3607 3.66905C34.2112 3.74423 33.8332 4.29132 33.5298 3.86387C33.4894 3.80583 33.5336 3.61254 33.4753 3.50499C33.2867 3.16227 33.1837 3.84345 32.962 3.26475C32.7404 2.68609 32.2793 2.25271 31.6564 2.65196C31.6366 2.66357 31.4892 3.20347 31.2933 3.19493C30.9807 3.18084 30.5368 3.06837 30.2104 3.07188C30.054 3.07376 30.1541 3.40901 30.1269 3.41514C29.076 3.603 28.3279 3.30413 27.202 3.17442C26.9956 3.14998 26.4025 3.60714 26.0029 3.24571C25.5642 2.85005 26.015 1.20418 25.0066 1.5963C24.5998 1.75314 24.0849 3.84122 23.3539 2.75938C21.9362 3.02746 20.6252 2.47377 19.2036 2.85655C19.1397 2.87351 18.9375 3.45628 18.7872 3.44835C18.5641 3.43544 18.4416 3.16307 18.2823 3.14512C17.6147 3.06308 17.0038 3.29612 16.3601 3.25987C16.1158 3.2467 16.2012 2.96507 15.9098 2.94932C15.6185 2.93385 15.4243 3.3047 15.0295 3.12559C14.7314 2.98907 14.4334 2.23104 14.0377 2.14269C14.0226 2.89039 13.7508 2.87499 13.2678 3.07237C13.1749 3.11067 13.2745 3.37091 13.2306 3.40245C13.0518 3.53658 12.8864 3.32089 12.7167 3.4669C12.6754 3.50197 12.6734 3.75731 12.6397 3.8004C12.3527 4.17644 11.8798 3.60206 11.7986 3.50206C11.4873 3.12225 11.3419 3.45436 11.1031 3.30479C10.8648 3.15525 11.2212 2.9683 10.9427 2.87755C10.3656 2.68984 9.62406 2.73108 9.03791 2.71934C8.80404 2.71624 8.9636 3.05709 8.93013 3.06456C8.44651 3.15101 7.95747 2.78844 7.68933 3.46739C7.35403 1.71188 7.3977 3.63766 6.70644 3.28624C6.652 3.25781 6.58272 2.42765 6.79177 2.30577C7.00081 2.18401 7.3178 2.44351 7.60785 2.25353C7.67653 2.20894 8.06999 1.43102 8.12367 1.3839C8.54417 1.01562 8.60377 2.25619 8.62602 2.32433C8.87831 3.05965 9.3591 2.22159 9.48573 2.16368C10.0649 1.89834 10.5571 2.07281 11.0415 1.88341C11.3584 1.761 11.3894 0.948381 11.6382 0.973256C12.4653 1.05547 12.754 2.18908 13.5334 1.20617C13.7005 0.996529 13.5344 0.108361 14.1333 0.806753C14.1709 0.85078 14.6155 1.48968 14.8723 1.08556C14.9046 1.03461 14.9036 0.775763 14.9461 0.754018C15.2313 0.613366 15.4214 0.819578 15.732 0.720815C16.0426 0.622053 16.4161 0.474819 16.7707 0.562613C16.9845 0.615111 17.2587 1.09737 17.361 1.21544C17.6499 1.55557 17.9596 0.997904 18.1386 1.40978C18.319 1.82373 17.9662 2.45237 18.4395 2.71983C18.457 2.04734 18.4973 1.35709 18.5254 0.680776C19.5626 0.704454 20.583 0.921911 21.6236 0.892202C21.7526 0.887846 21.6207 0.526309 21.759 0.51232C22.3424 0.454884 22.8521 0.712611 23.4572 0.609976C23.9256 0.529147 24.4392 0.146357 24.929 0.0499191C25.2281 0.819444 25.9549 0.558208 26.4828 0.628531C26.6678 0.652829 26.6554 0.858354 26.7869 0.925405C27.2831 1.17338 27.0506 0.493361 27.1866 0.386344C27.7702 -0.0703902 27.8202 1.4688 28.5083 1.43077C28.5447 1.42928 28.9903 0.608823 29.0517 0.55773C29.4416 0.224566 29.1162 0.8433 29.3603 0.90392C29.8059 1.0147 30.1155 1.21064 30.6383 0.970326C30.7907 0.899147 31.1564 0.387764 31.4524 0.783315C31.4914 0.835111 31.4699 1.1063 31.5012 1.12218C32.0686 1.38692 32.0835 0.534799 32.4077 0.246207C32.732 -0.0423207 33.2329 0.545909 33.3348 0.715444C33.6015 1.15402 33.1305 0.902875 33.116 0.945912C32.9464 1.4581 33.3117 1.36992 33.5908 1.4132C33.6312 2.24871 34.0215 2.19856 33.8801 1.4547C33.864 1.37345 33.6468 1.45137 33.5908 1.4132C33.8358 0.593446 34.2648 0.48846 34.7386 1.25451C34.9603 1.61354 34.7507 2.03216 35.4244 1.87901C35.7302 1.80988 35.612 1.23459 35.8818 1.07775C36.4983 0.719891 37.2993 1.25654 37.9349 1.17199C38.1655 1.14129 37.9408 0.826377 38.0985 0.794546C38.5168 0.709086 38.8857 0.94537 39.3059 0.824331C39.3439 0.812964 39.2509 0.483318 39.3816 0.479117C40.3721 0.440834 41.2345 0.651975 42.2687 0.657827C42.7683 0.660505 43.6616 0.478697 44.1792 0.51525C45.0764 0.576656 46.18 1.05601 46.9463 0.939565C47.4462 0.865024 47.3365 0.535309 47.5507 0.31066C47.964 -0.1248 48.6956 0.65521 48.7941 0.775991C48.7971 0.779988 48.367 0.857716 48.5965 1.02697C48.7299 1.37963 48.7892 0.77752 48.7941 0.775991C48.8587 0.854016 49.718 0.928863 49.8886 0.865834C49.9813 0.831391 49.9294 0.519003 49.9778 0.506949C51.1267 0.227393 52.2776 0.147996 53.4429 0.294059C53.4634 0.30037 53.4325 0.649793 53.4807 0.660269C54.1553 0.815631 54.5873 0.388177 55.1437 0.134392C55.7 -0.119281 56.1411 -0.0343187 56.4704 0.565542C56.8902 0.490015 57.4924 0.755212 57.8389 0.916127C58.1854 1.07704 58.2338 0.39686 58.2643 0.383414C58.9384 0.0783179 59.4109 0.18515 59.9804 0.294789L62.8913 0.433254L62.7654 3.07983C62.7204 3.31368 62.6749 3.56386 62.6573 3.85108C62.6273 4.32015 62.726 5.25059 62.8004 5.75846C62.8603 6.15985 62.7009 6.40165 62.8028 6.7715C62.8164 6.82154 63.1193 6.77099 63.1309 6.78626C63.4933 7.19902 62.7529 7.00066 62.6207 7.08587C62.1398 7.39484 61.8837 7.58573 62.1099 8.11431C62.1617 8.23623 63.2278 8.59137 63.2901 8.81362C63.3692 9.10258 62.9871 8.99352 63.0796 9.29608C63.0872 9.32196 63.323 9.31658 63.3126 9.50331C63.2674 10.3701 63.1302 11.3151 63.1539 12.2159C63.1562 12.3389 63.5301 12.1812 63.5396 12.3589C63.5839 13.1931 63.5701 14.1074 63.3951 14.9201C63.3508 15.1201 63.089 14.9947 63.0113 15.0381C62.5409 15.3047 63.2243 15.6828 63.2374 15.7451C63.5658 17.2331 62.9473 18.3719 63.2418 19.8884C63.259 19.9709 63.9917 20.6064 63.3633 20.8899C63.3215 20.9093 62.6787 21.1898 63.1182 21.4378C63.1457 21.4532 63.4767 21.2784 63.4429 21.5834C63.4093 21.8884 63.6303 22.3793 63.2667 22.7986C63.1521 22.9313 62.5109 23.245 63.022 23.6409C63.0577 23.6667 64.2135 24.278 63.4161 24.4962C63.2848 24.5315 62.4409 24.4945 62.8736 24.9671C62.9575 25.0573 63.1457 24.8934 63.2632 25.1313C63.4444 25.4957 63.2184 25.9786 63.5943 26.4266C63.6608 26.5048 64.2336 26.8373 63.7989 27.1041C63.7308 27.1459 63.4491 27.0665 63.4175 27.2074C63.3402 27.5499 63.3517 27.9006 63.3553 28.2526L63.1875 31.78L59.9804 31.6275C59.6439 31.6309 59.3063 31.6273 58.9738 31.532C58.7329 31.4635 58.856 31.008 58.6049 30.886C58.3537 30.764 57.8476 30.6466 57.5848 30.8547C57.3219 31.063 57.6091 31.7888 57.2152 31.8469C55.5031 32.0992 53.8071 31.6734 52.0974 31.6111C51.8439 31.6018 52.0541 31.8615 51.6804 31.8665C50.3028 31.8858 47.9242 32.1293 46.7288 31.5774C45.771 31.1353 46.9763 30.7988 46.2444 30.6189C45.8912 30.5331 45.5091 31.377 45.4238 31.4036C44.5909 31.6734 44.0121 31.2996 43.2624 31.4143C43.1076 31.4381 43.2594 31.7802 43.1277 31.7966C42.6776 31.856 42.2046 31.7033 41.7746 31.7312C41.5817 31.7445 41.6172 32.0058 41.4397 31.9856C41.0149 31.9404 40.6393 31.8305 40.2252 31.5857C40.1875 31.5634 40.4419 31.2384 40.1277 31.2263C39.619 31.2077 38.9877 30.9661 38.4025 31.2156C38.2289 31.2906 38.2221 31.8877 37.8488 31.4753C37.7705 31.3892 37.8704 30.6723 37.4356 31.2918C37.3903 31.3555 37.0927 31.7006 36.7875 31.8258L39.4839 30.5972C39.4189 30.789 39.2896 30.9285 39.0456 30.8969C38.8766 30.8753 38.2755 30.6724 38.2081 30.8905C38.2006 30.9215 38.517 31.0463 38.4271 31.1974C38.1059 31.7262 37.6608 32.186 37.3255 32.7247C37.2365 32.8689 37.6504 32.8987 37.5097 33.1067C37.1231 33.6791 36.4976 34.2697 35.9793 34.7074C35.7877 34.8684 35.6924 34.5591 35.658 34.553C35.101 34.452 35.4844 35.012 35.4503 35.1096C35.2316 35.7106 34.7005 35.8512 34.401 36.3201C34.3177 36.4489 34.6247 36.5731 34.6259 36.6143C34.6261 37.0299 34.3549 36.4846 34.1779 36.5937C34.0004 36.7023 33.8369 36.8339 33.6846 36.9786L30.9512 39.8361L28.6315 37.0398C28.4039 36.7372 28.1296 36.4658 27.8668 36.2162C27.7163 36.0739 27.6047 36.4901 27.4728 36.3596C26.6869 35.5917 25.9436 34.7261 25.3696 33.8005C25.262 33.6258 25.554 33.5309 25.5728 33.4568C25.7076 32.9417 24.9714 33.0393 24.8626 33.0063C24.3675 32.8572 24.4338 32.5631 24.1354 32.3046C23.5899 31.8345 23.0428 31.2811 22.5116 30.6991L25.1911 31.8809C23.8682 31.8807 22.5163 31.7927 21.3832 31.7292C19.0271 31.599 17.1988 31.333 14.9521 31.4021C14.8093 31.4061 14.9533 31.7781 14.8302 31.7864C13.2409 31.8761 11.6763 31.7307 10.0838 31.8381C9.95315 31.8463 10.1415 32.1989 9.93178 32.2239C9.50156 32.2775 8.95659 32.2584 8.52161 32.1458C8.30944 32.0915 8.59402 31.7889 8.38046 31.7405C7.8832 31.627 7.35018 31.6019 6.83941 31.6585C6.62205 31.6833 6.94999 32.0439 6.66747 32.0481C5.76653 32.0648 4.87314 32.0874 3.97815 32.0587L-7.39098e-06 31.8694L0.172037 28.2526C0.204641 27.2357 0.303355 26.2169 0.551751 25.1825C0.583827 25.0492 1.31683 24.9322 1.17626 24.6487C0.972834 24.6274 0.73354 24.6285 0.516107 24.6192C0.398979 21.8176 0.653088 19.0446 0.692376 16.2352C0.693949 16.1167 0.305568 16.3214 0.306635 16.0921C0.312377 14.7648 0.204784 13.4759 0.590814 12.1182C0.628567 11.9835 1.31182 12.0526 1.20849 11.6557C1.18963 11.5856 1.09851 10.9877 0.950188 10.8332C0.927815 10.8122 0.608898 10.9212 0.599603 10.7286C0.551174 9.60897 0.623982 8.43568 0.818841 7.318C0.850899 7.13762 1.19052 7.32971 1.2163 7.20123C1.39658 6.28988 1.13841 5.29857 1.44677 4.42773C1.65439 3.84481 2.24146 4.06062 2.81932 3.75087C2.90085 3.70706 2.91377 3.3461 3.24999 3.32744C4.09543 3.27951 5.02118 3.45435 5.92234 3.38261C6.11644 3.36745 5.90738 2.88404 6.37644 3.17025C6.40783 3.19025 6.56351 3.54073 6.72263 3.62705C6.83264 3.68715 7.17457 3.57885 7.3154 3.70147C7.4561 3.82409 7.16947 3.95882 7.33493 4.16212C7.50244 4.36532 7.89142 4.27597 7.93747 4.68179ZM59.3992 1.63536C59.7201 1.96201 59.7674 0.765633 59.4204 1.05187C59.4036 1.06712 59.3827 1.61934 59.3992 1.63536ZM20.5772 1.82433C20.9967 2.35201 21.2837 1.5761 20.9878 1.16857C20.6919 0.76147 20.4494 1.66437 20.5772 1.82433ZM16.2273 2.20958C16.7176 2.62564 16.7948 0.929125 16.2697 1.27208C16.2391 1.29146 16.1987 2.18542 16.2273 2.20958ZM2.98387 5.18735C2.99976 5.18292 3.01524 4.92345 2.9995 4.91725C2.61953 4.77908 2.58883 5.29792 2.98387 5.18735ZM11.9109 2.62901C12.0639 2.8585 12.5046 2.59358 12.3144 2.30821C12.1613 2.07864 11.7202 2.34354 11.9109 2.62901ZM60.148 19.2366C60.1302 19.2416 60.1141 19.4276 60.2149 19.4239C60.5395 19.4113 60.4479 19.1524 60.148 19.2366ZM4.57451 2.64854C5.65841 2.7124 6.31561 4.1138 5.13524 3.95567C4.92149 3.92706 5.59592 3.50877 5.32386 3.38243C4.82604 3.15225 4.49549 4.03216 3.98747 3.56065C3.89551 3.47435 4.51268 2.64179 4.57643 2.64659C4.57579 2.64724 4.57515 2.64789 4.57451 2.64854ZM59.584 3.07237C59.5904 3.08819 59.8479 3.10319 59.8541 3.08751C59.9935 2.70769 59.4748 2.67725 59.584 3.07237ZM58.1417 27.6804C58.1275 27.6467 57.5299 27.6152 57.5104 27.6463C57.1986 28.2674 58.4068 28.3329 58.1417 27.6804ZM42.2411 3.94786C41.9601 4.32995 41.624 4.37494 41.4 3.89512C41.6792 3.92059 41.9603 3.92435 42.2411 3.94786Z" fill="#0BA6E2"/>
</svg>
