<svg xmlns="http://www.w3.org/2000/svg" width="21" height="14" fill="none" viewBox="0 0 21 14"><path fill="#fff" d="M1.043 4.8a4.6 4.6 0 0 1 .176-1.6q.225-.737.688-1.265.48-.543 1.184-.848.705-.303 1.6-.304.737 0 1.376.224.656.209 1.136.624.48.4.752 1.008.288.609.288 1.408 0 .752-.24 1.328-.224.576-.608 1.04-.384.449-.88.816-.495.368-1.024.704l-1.056.64a8 8 0 0 0-.976.656q-.431.353-.752.768a2.14 2.14 0 0 0-.4.928h5.824v1.2H.723q.08-1.008.352-1.712.288-.72.72-1.248.433-.528.976-.928.545-.4 1.136-.752.72-.447 1.264-.816.545-.384.896-.768.369-.384.544-.832.192-.447.192-1.04 0-.463-.176-.832a2 2 0 0 0-.48-.656 1.95 1.95 0 0 0-.688-.416 2.5 2.5 0 0 0-.848-.144q-.591 0-1.024.256-.415.24-.688.64-.271.4-.4.912-.111.497-.096 1.008zm15.531 3.47V2.72h-.032l-3.776 5.552zm1.28 0h1.536v1.2h-1.536v2.656h-1.28V9.471h-4.976V8.16L16.766.783h1.088z"/><path fill="#fff" d="M3.492 1.387c-.208-.016.398-.183-.041-.162q.119-.063.243-.114.053.061.104.126a3 3 0 0 0-.305.15m.134.625c.002-.163.259-.304-.075-.309a3 3 0 0 0-.004.164q-.082.007-.166.024-.073.01-.152.029l-.059.107a3 3 0 0 0-.27-.114q.066-.03.13-.053a.9.9 0 0 1 .208-.226 1.4 1.4 0 0 1 .25-.154l-.087-.026q.206-.04.404-.043a2.4 2.4 0 0 0-.277.21c.197.054.42-.088.556-.138.18-.069.147.001.28-.038.022-.006.02-.056.064-.06.054-.003.12-.004.183 0 .2.01.386.068.2.14a1 1 0 0 0-.2-.004c-.26.016-.494.096-.768.15.126.105-.04.188-.217.341m3.548 3.29c-.013-.13.082-.33.158-.47.017-.03.118-.089.09.02-.048.18-.207.22-.152.342q-.047.055-.096.108m-.151.34c-.084.078-.146-.015-.06-.118.035-.045.06.09.073-.127.075-.011.145-.026.219-.043l-.059.143c-.08-.077-.09.064-.173.145M4.99 1.483c.028-.091-.041-.1-.16-.175q.175.016.348.052-.098.059-.188.123m-2.416.932-.033.116-.121-.003a3 3 0 0 0-.12.382c-.084-.06.037-.25.059-.398v-.009c.143-.15.256-.182.33-.135q-.058.022-.115.047m4.297 8.639-.107.085q.07.018.143.038c.125-.124.137-.014.301-.022.504-.023.37-.216.826.067-.366-.014-.225.119-.446.221-.045-.078.173-.253.025-.29-.255.083-.5.16-.783.213l.025.04.134-.026-.145.108c.063-.081-.096-.035-.075-.13.01-.041.08-.1.121-.14l-.324-.062.167-.1zM2.163 2.515a.32.32 0 0 1 .108-.26.24.24 0 0 1 .157-.063 2.6 2.6 0 0 0-.265.323m.589-.109-.073.01q.044-.125.103-.248l.135.07q-.087.08-.165.168m4.332.688a1 1 0 0 1-.052-.128c-.007-.028-.106-.262-.062-.256a2.5 2.5 0 0 1 .177.346q-.032.018-.063.038M6.187 1.96c-.036-.031-.067-.065-.107-.091.18.043.143.146.283.22.052.028.1.051.14.079l-.011-.01c.066.044.111.103.101.224-.048-.021-.106-.036-.157-.051l-.043-.062c-.088-.118-.171-.123-.316-.164zm1.53 9.952c.07.033.001.071 0 .075.053.242-.005.068-.035.14l.45-.449a.3.3 0 0 0-.104-.014l.103-.045-.508.508-.01-.021c.034-.065.073-.131.104-.194M1.6 10.267l.06.019c-.071.138-.012.206-.129.297q.03-.16.07-.316m5.514-6.15L7.1 4.031a1.8 1.8 0 0 1-.027-.491c.002-.013.055.037.063.02q-.024-.065-.053-.128l.095-.043q.035.196.039.39l.053-.065q.034.16.048.317l.001.012a5 5 0 0 0-.17-.108 3 3 0 0 1-.035.182M1.44 11.931c-.03-.023.025-.06-.021-.08-.046-.018-.132.023-.112-.04l.192-.027c-.205-.114-.41-.01-.413-.151.197.036.359.02.55-.02-.009.112-.2.208-.08.313zm.487-6.14c-.116-.008-.383.038-.53-.027-.036-.016-.157-.224-.156-.251.003-.092.15-.105-.007-.165q.079-.002.157-.006l-.028-.185-.192.028-.01-.061c.23 0 .095-.08.214-.153l-.33-.112c.063.005.137.008.193.013.008-.105-.126-.08-.148-.099-.129-.11.526-.054.58-.207l-.322-.05q.046-.03.093-.057c.242.105.515.143.797.208l.077-.013-.022-.142.111-.016-.302.313-.001-.005.006.005.297-.307c-.048.07-.04.107 0 .136l-.16.166c.031-.05.052-.144.105-.244.052.103.022.228.124.216-.08-.311.038-.665.06-.977l.005-.098c.003-.085-.128-.125-.045-.315.011.011.035.022.052.033.047-.252.109-.436.242-.617q.076-.104.196-.202-.075-.023-.15-.042a2 2 0 0 0-.09.24c-.095.004-.085-.088-.21.127-.096.18-.008.09-.013.148-.004.08-.087.112-.085.199.002.066.084.03.015.168a3 3 0 0 1-.165-.276l.102-.087q.005.07.012.137c.018-.144.046-.283.09-.434.066.087.104-.009.138-.087l.018-.04c.06-.121.06.02.1-.057.04-.076.03-.212.161-.313-.023.099.093.052.112.103.018.051-.08.169.061.101.18-.225-.181-.15-.047-.311.18-.196.402.04.383.13-.014.071-.156.172-.156.245.285-.124.19-.26.216-.325.022-.048.044-.068.065-.07.074-.01.125.174.24.01l.066.177c.027-.025.042-.049.08-.073-.168-.071-.068-.107-.012-.126.087-.03-.068-.043-.051-.066.049-.065.162-.076.08-.111l.112.05c.09-.06.34-.37.075-.273.007-.105.108-.072.179-.064s.064-.056.127-.048c.248.038.086.155.057.243a1 1 0 0 0 .12-.036c.092-.038-.03-.086.33-.087.054-.066-.156-.164.03-.186.02.128.14.225.364.328l.093-.062c.055.083.044.148.072.18.022.027.068.03.194.018-.225.187-.067.064.066.255.025.039-.082.04-.047.092.015.022.089.018.122.078.018.03.063.186.16.211.03-.142.248-.088.189-.282l.058.059c.196.2.314.296-.017.165q.042.124.067.246.083.032.165.076c-.083.065-.105.069.006.235a2 2 0 0 0-.196-.18c-.018.01-.043.014-.057.028.065.04.166.172.229.272q.04.063.063.089c.05.055.008-.074.04-.066.27.085.113.135.18.248.041.072.02-.117.039-.079.074.148-.03.242-.02.373q.094-.08.182-.17c.015.113.022.237.03.351l.011.116c.007.056.058.016.06.025.017.046.029.237.025.257-.018.152-.087.146-.12.287a3 3 0 0 0 .015-.166 7 7 0 0 0-.32-.12 2.3 2.3 0 0 1-.1.36 2 2 0 0 0 .171-.245c.063.16.112.335.137.523l-.087.061a4 4 0 0 1-.161.1c-.083.2.124.276-.097.267q-.03.096-.07.191l-.051-.071a3 3 0 0 1-.104.217c.13 0 .264-.003.396-.023-.085.154-.156.102-.187.108-.083.016-.113.163-.187.165-.024 0 .042-.154-.042-.156-.007 0-.071 0-.144.007-.092.01-.199.033-.227.103.031.028.074.059.11.088-.107.14-.32.03-.345-.03-.036.09-.133.176-.104.24l-.104.09c-.065-.16-.193-.022-.12.1q.098-.067.194-.136c.061.171.32.11-.183.288-.131-.016.145-.092.041-.1-.07.027-.126.066-.185.102a.5.5 0 0 1-.175.066c-.177.023-.054-.149-.31.14.825-.244.001.206-.286.478-.15-.103-.344-.087-.56.025a1.5 1.5 0 0 0-.324.227c.076.033.178-.072.26-.095.081-.023.027.058.13.034l.031-.008c.11-.032.29-.097.393-.11-.052.08-.37.387-.186.142q-.089.021-.163.035a1.1 1.1 0 0 0-.406.137c-.008.134.032.186-.176.327.042-.208-.257-.133-.29-.297.172-.072.17.11.297.112.013 0 .134-.123.169-.142-.216-.022-.295-.03-.293-.223-.096.079-.17.105-.137.175l-.12-.04c-.033.023-.061.046-.096.07.114.062-.02.067-.056.157-.035.089.104.101-.072.23l.214-.06a13 13 0 0 0-.285.318c.036 0 .083-.005.132-.007.112-.007.233-.008.268.047-.04.005-.101.061-.15.114-.036.04-.065.078-.072.085-.062.06-.061-.014-.067-.011-.127.062-.2.152-.298.121-.052.1-.125.137-.203.218-.042.044.013.081-.021.098-.215.113-.144-.096-.302.31l-.012.036.045-.009.165-.028-.056.148-.08.06-.233-.181-.082.083q.046-.09.097-.177l-.03-.046a4 4 0 0 0-.246.195l.082.063c-.165.16-.195.155-.218.388-.081.145-.009.329.009.436l-.094.068.054.092-.155.071c.063.044.09.064.144-.005l.04-.055q.029.032.024.085c-.002.103-.092.264-.143.342-.05.076-.115-.042-.129-.035-.048.025-.053.177-.065.206-.056.122-.07.215-.111.33-.009.022-.078.078-.08.083a3 3 0 0 0-.064.158c-.113.602.182.038.136.49l-.297-.32.075.002-.053-.102.138-.006c.057.028-.013.08.102.038l-.023.125.15-.067c.08.145.373.178.352.348-.007.058-.215.118-.105.18.09.012.029-.057.065-.061.263-.025.248.072.355.046l.052-.126.122.036.029-.083-.116-.006c.049-.108.497-.157.326-.065-.07.038-.197.022-.116.15.12-.019.256-.037.382-.056l.012.083c.17-.018.015-.128.015-.187l.117-.005q.025.042.05.08c.002-.042.023-.14.14-.104.074.024-.044.131.099.116-.01-.066-.062-.147.096-.168.016.07.038.133.05.205.197-.066.287.04.518-.037.147-.049.348-.222.443.045.107.007.073-.06.105-.074.15-.071.261.056.289.063.178.048.258.004.403.064l-.018-.145c-.133.074-.2.07-.387.055l.188-.03-.03-.12c-.577.158-.443-.092.04-.147l.127.223c.28-.112.41-.015.727.009.037.002.174-.04.233-.043h-.003c.036-.07-.013-.103-.019-.166l.096-.023c.07.048.046.087.186.076l-.057-.143c.154-.002.254.05.397.027l-.072.055c.311.046.064.325.299.186l.044.074-.29.017-.005.104.31-.031-.227.07.36.049c-.127-.127.038-.143.007-.269.213.105.38.243.709.155.065-.018.03-.106.215.001-.045-.14.187-.205.157-.338q-.098.008-.194.018c.072.046.083.173-.025.21-.138.049-.34-.04-.331.102l-.16-.016.065-.106c-.152.055-.247.037-.32-.05l.543-.061-.08-.018c.137-.09-.005-.175.251-.194l-.004.123c.093-.11.349-.11.267-.236.077.039.093.064.137-.005a.8.8 0 0 1 .2.128l-.322.322c.07-.074.148-.104.236-.06l-.07-.227-.12.131.008-.395c.117-.012.035.253.14.177.021-.016-.024-.086-.012-.105.129-.196.036.112.134.054.03-.292.196-.058.057-.46q.052-.018.102-.032c.002-.14-.074-.129-.089-.249a.1.1 0 0 1 .004-.034l-.002-.07-.066.002c-.068-.021-.147-.108-.218-.03-.015.017.125.182-.169.175-.227-.006-.132-.122-.256-.163-.123-.042-.404.12-.487-.063.064.024.146.037.218.057l.086-.106c-.164.046-.333-.008-.443.077-.218-.13-.463-.01-.397.137.072-.021-.006-.085.094-.045l.031.103c-.17-.005-.288-.003-.21-.108l-.08-.007-.013.226-.094.026-.106-.05c.048-.12.129-.124-.14-.19l-.002.123c-.225-.052-.23-.152-.513-.148.217-.143.335.11.334-.177q.082.03.164.057l.024-.125c-.292.022-.776.296-.971.114l-.071.065c-.192-.109-.274.137-.468-.005-.02-.015.022-.245-.23-.237.005.03.009.08.014.118l-.163-.056-.03.083.279.032-.233.029c.101.045.147.046.086.118l-.264.014-.027.056.128.166c-.228-.046-.427-.048-.602-.157-.03-.018.075-.09-.128-.026l-.013-.104c-.249.107-.33.075-.591-.002.168.072.018.025-.025.063-.03.027.086.023.073.051s-.162.14-.035.153c.312-.23.397.045.799-.065l-.186.089.087.06c-.224-.046-.115-.016-.207.019s-.26.065-.372.075c-.035.003.002-.048-.078-.053-.054-.003-.202.073-.237-.017-.022-.059.216-.22-.113-.22-.062-.057.096-.04.1-.046.02-.049-.077-.089-.169-.089l.07.084a.2.2 0 0 0-.001-.1c-.003-.008-.07.053-.074-.03-.004-.201.098-.295.22-.37-.084-.047-.121-.258.03-.416l-.05-.074-.02.108c-.034.021-.065.048-.1.07.07-.161.035-.256.031-.352q-.002-.037.006-.07c.102-.388.23.012.24.095l-.14.054q-.002.003-.005.003l.09.05c.321-.394.217.076.425-.07-.083-.156.036-.31.28-.388l.055-.053c-.012-.02-.037-.049-.042-.065a.3.3 0 0 1 .144-.092c.145-.036.261.065.288.068.155.018.141-.153.17-.175.115-.086.186-.054.285-.152.108-.104-.004-.093.01-.156.012-.05.11-.117.133-.174l-.005.11.168-.047c.092-.03.18-.06.277-.112.055-.295.397-.062.18-.287-.156.07-.254.088-.372.068l.269-.197c.045.012.081.028.131.038.034-.104.214-.177.267-.234a1 1 0 0 0 .143-.188c.056-.102.061-.12.323-.125-.144.114-.14.19-.233.272a.5.5 0 0 1-.097.064c.079.035.17-.038.15.074l.02-.016c.153-.126.06-.153.095-.252.03-.09.153-.175.104-.233.036.026.068.053.104.078q.179-.12.354-.246l-.076.212.143-.04c.068-.101.179-.186.289-.264.239-.167.464-.32.261-.446.118-.12.161-.104.273-.124l-.032-.075c.097-.058.084-.185.166-.24.053-.034.107-.03.11-.052 0-.012-.013-.032-.052-.07q.106-.03.209-.072l-.02-.15q.07-.055.14-.115c-.044-.064.096-.244.094-.355.11-.05.34.057.389-.181l-.178-.051.093-.133.06.013-.047.069.12-.03a3 3 0 0 0-.068-.28 3 3 0 0 1-.21.263c.006-.135.076-.206.057-.328.106-.072.146-.029.224.036l.005-.119c.083.046.156-.007.089.218l.088-.026c.007-.04.034-.059.034-.103 0-.123-.145-.237-.202-.239-.03-.001.006.116-.035.103-.098-.033-.005-.253-.176.059-.039-.124.014-.136.053-.256l-.106.012q.037-.08.07-.162c.166.107.276-.342.387.085q.034-.183.053-.368l.05.079-.04.167q.058-.095.112-.194a.46.46 0 0 0-.177-.292l-.018.078c-.012.085.043.068.051.183-.049-.007-.094-.002-.145-.016.048-.031.06-.099.056-.167-.005-.079-.03-.158-.034-.186-.024-.162.083-.04.078-.15-.007-.113-.082-.232 0-.339-.055.011-.11.028-.159.042-.047-.162.021-.142.026-.16.068-.283-.066-.417-.203-.65l-.038-.069L8 2.62l.002.047-.039-.03c-.1-.079-.096-.05-.07.03.016.043.036.1.048.164a.4.4 0 0 0-.084-.144c-.067-.079-.146-.123-.203-.187a1.2 1.2 0 0 1-.187-.39c.168.107.244.305.35.485.04-.046.073-.089.116-.14-.166-.064-.137-.165-.148-.212-.032-.135-.114-.072-.072-.2l-.079.068c-.12-.19-.263-.408-.447-.46a.3.3 0 0 0-.086-.013c.046-.08.091-.155.134-.239-.135-.02-.176-.134-.27-.176-.092-.04-.099.042-.21.01-.021-.006-.037-.068-.1-.062-.064.003-.333.156-.266-.053-.087-.038-.168-.078-.256-.111q.135.026.27.062a3 3 0 0 0-.167-.235L6.16.96 6.085.95c-.17-.032-.29-.127-.48-.15-.034-.005.028.103-.12.05C5.339.8 5.24.606 4.961.656c-.015.003-.1.133-.193.039-.022-.022.072-.051.022-.08a.5.5 0 0 0-.099-.03c-.084-.02-.19-.04-.204-.084.004.023.02.047.027.07l-.117.04-.019-.123C4.152.6 4.061.762 3.73.776q.156.059.3.129L4.085.77q.227-.004.45.015l.07-.145.122.018-.031.103q.118-.012.235-.02c-.072.084-.16.091-.24.087-.105-.006-.193-.033-.178.064L4.405.817c-.01.084-.08.063-.205.063.032.037.067.074.095.113-.121-.048-.33-.015-.453-.012-.054.001-.014-.068-.03-.072-.092-.02-.221.12-.254.122-.172.005-.341-.097-.487.01a.3.3 0 0 0-.066.07l.086-.025c.101-.024.034.005.118.036.032.01.313-.044-.025.063l-.046.01c-.154.023-.622.165-.503-.01-.08.086-.13.166-.191.253-.366-.075-.136.081.005.153l-.089.072c-.028-.177-.379.112-.415.28-.013.053.108-.013.059.077L2 2.026l-.137.109c.125-.005.057.142.138.197-.126.024-.323-.007-.373-.112q-.025.145-.036.288.06-.036.12-.068c-.204.207-.206.592-.415.578l-.033.11.088.064-.022.041q-.106.207-.187.43c.007-.154-.032-.202.047-.348q-.082.075-.16.154c.054.267.113.303.048.662a9 9 0 0 1-.112.298c-.04.044-.097-.024-.118-.005-.06.053-.19.402-.21.398-.294-.058-.241-1.318-.12-1.655q.018-.084.041-.169c.144-.547.41-1.093.8-1.544C1.752.994 2.264.639 2.8.413 3.418.149 4.073.06 4.691.069a4.9 4.9 0 0 1 1.604.288l-.02-.006c.488.161.966.42 1.367.774l-.01-.008c.406.34.723.785.93 1.25l-.005-.012q.117.248.195.506c.011.037.043.01.05.026.037.097 0 .208.005.244.011.078.057.025.068.082.054.287.067.565.06.834a6 6 0 0 1-.088.876c-.007.038-.043-.01-.049.058-.002.035.04.159.018.239-.04.153-.093.29-.156.429l.006-.016a9 9 0 0 1-.149.324 5 5 0 0 1-.283.495c-.042.066-.063.151-.108.215-.064.09-.101.032-.115.044-.058.047-.01.098-.056.152l-.008.009-.008.01c-.079.082-.118.062-.22.175-.073.085-.232.292-.332.394-.15.096-.308.216-.462.332-.127.097-.248.195-.353.28-.132.105-.183.06-.239.099-.18.124-.286.275-.446.395l-.014.008-.05.034c-.247.153-.495.24-.738.382-.04.023 0 .069-.037.093l-.222.146-.015.008a4 4 0 0 1-.205.12c-.132.072-.226.03-.338.127-.033.029 0 .098-.054.147-.084.078-.223.1-.291.143a.1.1 0 0 0-.027.022l.01-.008c-.033.04.04.05-.056.12-.005.003-.057-.025-.077-.003-.06.064-.025.09-.118.174-.01.007-.163.09-.174.102-.063.065-.187.189-.224.25l-.004.008c-.06.157.084.088-.144.116q.013.114.039.224c-.022-.057-.138.09-.136.107.001.11.08.067.048.187l-.753-.901h.011l-.01.008.744.892c-.047-.075-.064-.063-.069-.013l-.676-.81c.103-.007.308-.057.375-.06.543-.02 1.038.02 1.584.02.183-.001.428-.035.622-.034.045 0 .01.038.05.039.04 0-.004-.043.041-.04.282.015.502.096.76-.006.012.015.012.026.033.043.21-.091.617.03.77.048.238.026.3-.036.473-.023.229.016.573.136.42-.062.157-.006.308-.008.467.01.018.003.006.053.013.054.045.007.06-.038.09-.04.082-.005-.052.049.065.034q.03-.006.061-.017l.695-.025.027.746c.014.041.03.095.031.207q.002.487 0 .993l.026.724-.779.029c-.738-.003-1.495-.012-2.223-.016-.073 0-.025.048-.116.045-.317-.01-.885-.093-1.158-.081-.274.01-.212.082-.383.112-.033.006-.006-.035-.036-.036-.201-.003-.44-.067-.604-.076-.108-.007-.099.057-.174.062-.111.006-.226-.058-.285-.06-.28-.01-.471.043-.732.016q.014.02.025.041l-.926-.007.043.04c-.362-.008-.32-.147-.289.147l-.08.032c.01-.149-.199-.258-.47-.299l-.703.026.032-.752.004-.018c.005-.021-.129-.183.043-.15-.038-.042-.065-.069-.099-.105l.179-.173-.01-.105c-.032-.01-.068-.011-.1-.027.016-.162.12-.485.148-.613.049-.248.07-.52.176-.731a.6.6 0 0 1 .11-.158c.04-.117-.072-.031.014-.198l.118-.013c-.07-.202.028-.193.158-.36.089-.111.106-.21.188-.32.021-.028.055.001.067-.019.04-.068.126-.287.162-.332l.03-.04a4.7 4.7 0 0 1 .967-.935c.042-.03-.038-.024.005-.055.07-.05.07.035.112.008a.3.3 0 0 0 .046-.036c.055-.055.047-.11.165-.199.3-.222.652-.43 1.007-.622l-.012.007q.284-.159.548-.323c.015-.01-.008-.044.008-.055.105-.07.242-.092.338-.155.134-.09.216-.195.333-.289l-.012.009.058-.046c.271-.197.518-.362.734-.592l.006-.006.01-.012a1.8 1.8 0 0 0 .392-.601l.009-.02c.09-.211.125-.474.114-.759a1.1 1.1 0 0 0-.13-.502l-.005-.012a1.2 1.2 0 0 0-.31-.387l-.016-.014a1.3 1.3 0 0 0-.418-.239 2 2 0 0 0-.618-.117c-.027 0-.017-.038-.025-.036-.08.02-.079.07-.116-.03-.097.031-.111.112-.209.132-.05.012-.052-.116-.118-.026-.046.075.03.099-.105.133-.029.012-.054.02-.084.03-.006.002-.077-.04-.111.01-.031.05.047.05-.037.145a3 3 0 0 0-.18.228 1.9 1.9 0 0 0-.303.641l.005-.018a2 2 0 0 0-.029.163c-.006.028 0 .304.019.358.03.104.085.084.098.214a.3.3 0 0 1 0 .065l.065.965-1.038.038c-.097-.011-.19-.047-.312-.037-.018.001-.048.065-.165.057m4.375 5.387c-.032.062-.09.293-.285.223-.019-.006.081-.165-.027-.19.106-.017.208-.023.312-.034m-5.22-6.86.438.035-.302.084zm.188 6.716a6 6 0 0 0-.001.438l-.057-.056a6 6 0 0 1-.03-.357zm.209-1.147c.069-.07.096-.028.158-.05a.3.3 0 0 0 .071-.075l-.085-.017c.062-.231.49-.418.272.065l-.075-.076c-.135.224-.337.465-.341.153m2.51 1.39c-.245.115-.324.139-.621.06l.126-.096.147.098.03-.104zm2.689-8.449c.146-.188.054-.104.21.07.054.063.053-.025.082.017a.4.4 0 0 1 .054.103c.054.156-.06.202-.137.182l-.049-.1a2 2 0 0 0-.16-.272M2.233 4.451c-.056.004-.065-.095-.123.013q.005-.127.02-.253l.008.076.063-.06c-.06-.035-.02-.06.013-.143q-.107.021-.213.047.05-.156.11-.304l.052.006-.04-.127.002-.01.067-.017-.005-.152c.052 0 .04.107.085-.075q.045.106.096.206l-.026.094a4 4 0 0 0-.109.699m4.792.27c.049-.309.064-.22.166-.128q-.082.068-.166.128m-1.8 7.216q.123-.116.248-.227c.166-.043.333.097.208.152-.151.065-.309-.008-.456.075m2.681-.703c-.035.204-.127.012-.18-.034.086-.056.078-.135.088-.261.006.118.098.261.093.295m-5.966.616c-.082.002-.163.024-.236-.002.022-.074.168-.007.064-.116l.156-.005c-.033.045.012.079.016.123m3.343-4.799c-.183.018-.188.066-.292.206-.058-.047.04-.252.126-.341zM3.52 1.291c.004-.097.26-.18.396-.174l-.038.048a3 3 0 0 0-.358.127m4.563 9.947.05.006-.317-.317h-.001l.317.318a.2.2 0 0 1-.049-.007m-4.03-2.332c-.009.107.17.023-.046.127-.143.07-.175.086-.297.167-.023-.119.2-.33-.15-.101-.004.003.043.048-.015.082-.012.006-.054.008-.106.023a.4.4 0 0 0-.085.038c-.028.017-.226.165.03-.054-.057-.052-.092-.123-.14-.18l.02-.018c.1-.08.257-.035.36-.113.165-.125.172-.308.314-.165-.12.134-.357.307-.46.237-.137.101-.113.208.023.164.428-.39.206.019.577-.322-.01-.027-.009-.063-.025-.083.18 0 .002.159 0 .198m-1.067.58q.045-.17.103-.339c.063.071.076.171 0 .319zm5.09-5.759c-.052-.01-.102-.04-.153-.06.056-.032-.043-.687.072-.368.02.05-.025.355.082.428M6.15 6.25a4 4 0 0 1-.262.105q.126-.158.238-.324.015.108.024.22m.433 5.777c-.036-.002.081-.073-.057-.062.103-.045.2-.083.301-.126l.091.1.072-.064-.042.146c-.17-.105-.21.014-.365.006m-5.066.191c-.03-.106.216-.17-.027-.186.046-.07.12-.107.262-.113l.069.08c.003-.071.04-.098.12-.149.215-.005.202.02.254.136-.228-.066-.235.041-.391.105-.107.044-.247.024-.287.127M8.07 4.453c-.076-.163-.166-.027-.06-.293l.067.055q0 .12-.007.238M.996 12.145l-.028.002-.245-.265c.031.15.168.25.193-.003-.147-.054-.078.093-.193-.02l.268.29zm7.168-.841c-.008.285-.193.231-.286.114l.1-.054-.045-.15zM3.217 8.037c-.112.218.23-.076.146.069-.066.115-.263.108-.256.013q.05-.039.11-.082m-.949.798c.114.065.05.073.156-.058.028-.04.346-.247.158-.224a6 6 0 0 0-.314.282m2.943 2.243c-.003-.054.298-.174.337-.144.104.082-.213.093-.076.205-.305-.098-.396.14-.375-.174.18-.014.095.05.114.114M1.192 3.67c.005-.02.117-.161.14-.135-.062.181-.108.142-.05.33l-.086.018c-.006-.073-.034-.118-.004-.213m6.85-.69c.037.065.015.208.035.286-.273-.193-.185-.532-.035-.286m-4.417-.966zm2.11 5.547a.1.1 0 0 1 .035.023l.002.003zm-1.15 3.535c-.125-.076.293-.197.428-.168-.01.034-.011.066-.033.106-.11-.09-.374.075-.395.062m-1.229.893c.33.002-.1.302-.117.063a1 1 0 0 1 .117-.063m3.833-.925c.084-.09-.085-.115.185-.099l.047.07zm-1.67 1.32c.415-.051.813-.14.542-.392l-.095.024c-.005.123-.12.056-.29.052-.025.048-.119.06-.136.1-.035.08.074.137-.021.215m.279-10.035q.024-.023.049-.043.102.021.206.056l-.098.077a2 2 0 0 0-.157-.09M2.904 9.96c-.106-.122-.166-.098-.215.026a1 1 0 0 0-.049.213q.07-.075.145-.14zm-1.929.275.19.053c-.005-.156-.082-.165-.19-.136zM2.162 8.5c-.054.031.005.048 0 .052-.13.086-.164.085-.264.25l-.015.08c.159.028.146-.07.33-.138l-.169-.031q.118-.099.24-.19l-.002-.056q-.062.014-.12.033M5.12 2.03a3 3 0 0 0-.287-.057l-.019.1q.15-.03.306-.043m-.768 6.622V8.61q.01.02 0 .042M.97 3.894c-.037.109-.035.272-.045.395.083-.007.08-.317.149-.417-.013-.02-.088-.024-.104.022m7.186 7.804.127.083-.014.2.104.005c-.045-.294.055-.226.153-.372zm-5.318-8.25c.055-.19.056-.275-.09-.217q-.016.116-.022.23.056-.008.112-.013m4.691 2.964c.08-.167.196-.09.231-.285a4 4 0 0 1-.227.19q0 .047-.004.095m-3.526 4.031c-.075-.048-.216.182-.427.012-.05.051-.082.1-.125.15-.025-.055-.054-.11-.078-.163-.192.018-.068.086-.072.143-.002.024-.144-.016-.1.036.077.089.364.037.364.146-.1-.036-.297-.006-.239.066.064.08.25-.053.367.012-.169-.173.18-.12.22.014.205-.102.017-.144-.193-.14.128-.101-.06-.046-.092-.13.132-.052.586-.01.375-.146m-.215 1.98c.142-.006.363.052.46-.034.057-.05-.165-.088-.012-.167-.138.008-.17.038-.146.107l-.095.025-.044-.04-.049.084q-.05-.007-.1-.017-.008.02-.014.043M7.333 1.615l.091.082.025-.048.02-.037c-.013.052.063.246.153.276.047.016.057-.121.184.013a2.4 2.4 0 0 0-.273-.272l.083-.034-.082-.106q-.102.06-.2.126M.81 10.296v.013c-.002.147.014.194.115.163l-.038-.13-.014-.06zM5.49 8.3c.073-.431-.371.076-.208.109.007.002.167-.126.209-.109m2.776 2.951.008.236.122-.055zM3.398 2.845c.113.012.25-.062.263-.19a2 2 0 0 0-.128.053q.088-.095.192-.176c-.06-.111-.115.002-.26.072-.02.007-.252.003-.205.13.01.022.14-.082.107.049.04-.03.07-.06.106-.088l.067.063a2 2 0 0 0-.142.087m1.215 9.569c.195.007.219-.044.26-.133l-.272.03zM4.695 2.38c.09.019.055-.056.093-.067.148-.04.237.027.38.028l-.036.034q.134.047.21.077c.195.08.17.014.026-.071a.9.9 0 0 0-.3-.1l-.012-.084c-.195.01-.366.054-.361.183M3.443 9.673c.018.008.04.132.1.01-.029-.186-.102-.016-.173-.031l.048-.106c-.188.112-.181.164-.047.192.01.002.054-.072.072-.065m1.176-.74c-.091-.217-.275.014-.227.07.033-.017.038-.066.08-.071.044-.006.08.035.147 0m2.515 1.65c-.008 0-.091-.098-.083-.022.103.18.31.064.273.001-.068.004-.114.03-.19.02zM2.928 3.816c.006-.003.097-.16.072-.192-.032-.032-.07-.056-.104-.085-.002.108-.087.297.032.277m12.308 5.262c.037.09-.085.031-.004.166l-.05.027q-.008-.075-.013-.15zm.031-.625c-.02.143-.086.18-.015.312l.017-.147.074.114.027-.056.034.255-.03-.037c-.04.068-.076.087-.13.1l.015.06-.082-.102.072-.102c-.035-.133-.097-.06-.13-.032-.043.038-.033-.025-.066.001-.005.005-.005.054-.016.055-.051.004-.152-.022-.093-.138.085.015.158-.078.241-.044-.022-.134.022-.18.082-.239m-1.565.426c.026-.065.079-.038.114.007.008.01.026.096 0 .092-.042-.006-.062-.142-.084-.05zm-.09.008c-.026-.033-.015-.135.018-.108.013.012-.013.093.035.01l.029.184-.035.004c.008-.105-.022-.057-.048-.09m1.289-.093c-.004.094.013.094.041.16l-.081-.01zm.636.014.027-.044.016.101.094-.095c-.004.103-.06.086-.091.158q-.068-.045-.072-.178zm-.192-4.553-.054-.074q-.025.007-.055.013c.082.1-.01.042-.031.086-.064.135.118.211-.19.163.07-.081-.062-.122-.11-.233.071.033.18.185.235.17a1.2 1.2 0 0 1-.047-.31l-.037-.017-.001.047-.066-.096c.058.061.046-.003.12.055.033.026.07.076.096.108l.105-.043.055.097zm1.79 3.213c-.097-.04-.114-.112-.005-.15zm-1.627 1.21.014.05-.06.091-.011-.143zm-1.268.053c.014-.003.016-.001.034.006.007.002.067.03.06.067h-.092zm.35.022c.011.005.021.017.032.019-.04.058-.046-.046-.083-.017-.036.03-.059.087-.09-.055.012-.021.024-.052.036-.077.052.057.066.004.107-.053zm.147-4.116c.052.048-.01.018-.012.019.004.109-.026-.032-.082.03l-.024-.06c.039.003.082.009.118.011m-1.61 2.356-.053-.033c.032-.038-.027-.094.057-.087zm.862 1.59c.055-.04.096-.057.149.005.003.004-.012.047-.008.058l.034-.024.004.102-.093-.029.014.06-.08.031.028-.169zm-.21-2.15c-.024-.005-.046-.04-.07-.04-.023.001-.002.046-.051.005l.009-.061c-.128-.015-.077.093-.193.014.062-.027.075-.075.074-.143.091.064.14.165.246.194q-.007.016-.016.031m2.536.846c.034.008.113-.037.156.028.01.016.046.223.046.25-.002.093-.045.105.002.165l-.047.006.009.186.056-.029.003.062c-.068 0-.028.08-.063.153l.097.112q-.03-.006-.057-.014c-.002.105.037.08.044.1.037.11-.154.054-.17.207l.094.05-.027.057c-.071-.106-.151-.143-.234-.209l-.022.013.006.142-.034.017c.033-.156-.013-.154-.068-.25.03-.054.066-.02.063-.123-.101.079-.22-.032-.32.056-.024.022-.024.154-.082.142l.004-.06c-.1.063-.16.101-.264.037l.018.142.066-.071c.015.078-.007.113.058.112.054 0 .022-.035.037-.059.02-.031.037.031.058-.004.017-.027-.001-.092.042-.076l-.053.255-.03-.057.03-.067-.11.12c.012-.121-.028-.076-.05-.061-.033.022-.004-.061-.027-.047-.022.014-.046.107-.086.087.022-.054-.007-.102-.002-.152.006-.05.048-.06.008-.115-.079.041.006.23-.046.261-.064.037-.079-.271-.06-.338.015-.052.066-.041.081-.093-.092-.094-.093.091-.108.127-.057.132-.019-.22-.086-.092 0-.066.002-.125.003-.189-.011.012-.02.028-.033.038.041.128.007.123-.01.123-.027 0 .015.063.008.079-.02.043-.051.024-.032.08l-.027-.079c-.032.033-.107.308-.035.252-.007.102-.03.053-.048.038-.018-.016-.018.05-.034.037-.063-.048-.022-.159-.012-.246-.083.06-.002.1-.122.14-.012.07.044.146-.002.187-.009-.123-.043-.211-.11-.252l-.019.085c-.036-.114-.018-.232-.085-.091.036-.26.011-.094-.049-.2-.012-.02.016-.075 0-.102-.008-.012-.027.028-.046-.003-.01-.016-.053-.116-.082-.068.022.126-.035.233.013.337-.09-.026-.152.035-.052-.137l-.068-.114-.048.09c-.002-.104 0-.133-.063-.115l.082-.073c0-.021.005-.043.004-.063-.034.04-.128.057-.15.084-.024.028.02.035.014.062-.055.22-.05.058-.09.095-.023.023.032.047.02.057-.046.034-.067-.083-.108-.084l.043.2a.23.23 0 0 0-.13.018c-.015.008-.003.058-.006.061a.2.2 0 0 1-.069.044c-.04 0-.042-.068-.082-.072l.046-.016.02-.333-.116-.024.086.11-.134.27-.07-.165c-.062.014-.05.238-.08.042l-.055.05.008-.084-.067.051c.023.1.046.203.07.3-.044.02-.045-.063-.052-.084-.017-.055-.052.02-.066-.032-.004-.018.039-.073.024-.137-.003-.012-.06-.246-.098-.192l.005.14c-.05.026-.074-.195-.068-.257-.026.043-.065.047-.07.115l-.04.005c.013-.166-.043-.136-.046.007l.069.01c-.018.175.053.28-.094.118-.028-.09.05.013.027-.055-.04-.04-.077-.007-.114-.07-.047-.079.01-.154-.099-.054.239.249-.026.172-.142.245l-.31-.031.18-.214v-.005c.223.114.342.08.355-.071-.065-.028-.059.027-.091.034s-.052-.038-.095-.031-.115.034-.173.031c-.018-.043-.023-.2.022-.068.091-.013.166.003.22-.054-.076-.08-.133-.116-.093-.18.099.121.233.11.35.212-.06.024-.167-.085-.244-.1-.008-.002-.005.06-.013.068.14.035.191.049.307.165.008-.037.037-.044-.025-.09l.095.038.017-.03c-.105-.051-.028-.038-.058-.087s-.124-.074-.09-.128l-.096.008-.005-.152c-.075-.016-.197-.024-.273-.077.04.004.025-.085.027-.092.007-.028.048.018.05.017.048-.02.051-.06.134-.024-.015-.05.018-.057.035-.086.01-.017-.046-.05-.03-.053.11-.014.14.092.087-.116l-.143-.035-.016-.07.04-.012.244.168.033-.02-.01.066.04.034.118-.029-.085-.06c.078-.028.103-.013.06-.12.03-.04-.067-.154-.1-.212l.065.007-.06-.064.12.034c-.07-.056-.091-.075-.146-.051-.083-.078.008-.124.06-.133.04-.007.1.071.11.075.04.012.037-.044.048-.049.045-.018.057-.044.094-.063.008-.003.068.014.07.013.016-.005.058-.015.061-.018.144-.132-.183-.109-.061-.24l-.093-.044.018-.037c.033.002.064.048.048-.004l.1.076-.031-.074c.133.062.209.01.346.11.047.035.062.119.13.127.026-.015-.042-.039-.039-.05.023-.078.1-.02.097-.06l-.096-.083.05-.01-.064-.054-.024.025c-.081-.072-.047-.208 0-.115.02.038-.014.06.105.112l.017-.124.07.044c.014-.051-.103-.076-.152-.109l.016-.03.074.032c-.034-.024-.113-.085-.063-.092.032-.005.101.084.112.041-.056-.035-.131-.068-.123-.118.06.035.116.065.178.103-.023-.085.08-.047.055-.146-.016-.063-.127-.21.11-.082.023-.022-.037-.051-.044-.067-.034-.076.089-.032.1-.035.069-.016.045-.06.119-.062l-.123-.076c.04.073.026.088-.018.124l.006-.062-.105-.06c.036.228-.148.055-.114-.093l.205.095c-.047-.131.056-.108.127-.171.008-.008-.004-.065.004-.08h-.002c-.052-.049-.086-.055-.14-.089l-.003-.036c.051.01.08.038.093-.003l-.127-.066c.024-.038.083-.034.088-.08l.033.047c.09-.05.28.168.204.032l.068.031-.034.08.085.06.026-.093.02.094.1-.06c-.126-.04-.112-.089-.22-.152.12.008.262.045.244-.085-.004-.025-.083-.066.036-.051-.123-.068-.139-.161-.254-.229q-.01.029-.017.058c.05.008.157.077.17.124.018.06-.088.06.03.137l-.04.03-.076-.075c.02.068-.01.081-.096.05l.04-.167-.028.01c-.052-.084-.146-.098-.12-.17l.102.07c-.075-.084-.033-.146-.151-.197.045.003.068.013.019-.036a.53.53 0 0 1 .343.14l-.02-.094-.12-.035.07-.091c.1.063-.012.081.088.122.02.008-.006-.035.007-.033.138.025.01.047.102.089.073-.054.171.096.123-.08l.09.05c.024-.033-.041-.073-.033-.11.005-.024.132.03.07-.042-.012-.013-.171-.072-.117-.14.042-.051.123.037.177.03s-.032-.165.133-.082c-.031.002-.056.014-.084.02l.074.08c-.011-.065.062-.075.01-.15.143.02.083-.106-.049-.173.006.03.072.047.022.048l-.09-.05c.031-.039.05-.068.123.01l.02-.016-.185-.13-.006-.037.059.002c.09.079.08.1.18.073l-.102-.07c.08-.025.164.03.208-.04.082.132-.147.018.09.18l-.074.007.1.076c.03-.083-.117-.354.065-.3l-.042-.053c.122.015-.067-.143.082-.11.015.003.2.143.234.077-.026-.015-.068-.043-.1-.063l.073-.008-.064-.054-.073.05.015-.073c-.054-.001-.062.01-.112-.046l.033-.071-.042-.038-.159-.063c.076-.03.11-.076.23-.057.02.003.062.069.042-.017l.088.056c-.047-.12-.007-.123.1-.142-.088 0-.024-.01-.05-.042-.017-.022-.032.008-.053-.011s-.089-.118-.121-.095c.138.205-.103.071-.078.23l-.043-.094-.063-.013c.074-.029.032-.019.018-.061a.24.24 0 0 1-.001-.132c.003-.01.04.027.057.01.011-.01-.027-.09.053-.047.052.027.146.176.2.096.058.017.017.045.022.05.052.045.128.025.1-.027-.003-.004-.059-.016-.063-.047-.01-.075.06-.067.148-.05-.078-.058-.147-.162-.085-.19l-.064-.055.02.047c-.019-.001-.035 0-.058-.003.014-.062-.092-.144-.117-.195-.083-.174.176.073.216.122l-.085-.013.086.053c.08-.12.194.105.287.08-.127-.11-.11-.163.016-.16l.011-.02-.062-.046q.008-.024.033-.028a.2.2 0 0 1 .032.065l-.065-.065c-.07.021-.16.028-.175.033-.107.035.041.062.043.072.005.043-.061.056-.033.097.03.044.081.014.127.027.036.011.042.046.08.06l-.092-.017c-.041.046-.082.083-.092.135.223.06-.153.11.152.089.021-.05.056-.077.134-.104l.03.098c-.034.01-.067.016-.101.027.071.024.04.08.061.102.098.104.22.072.016.166-.02-.068-.12-.068-.106-.135-.07.014-.056.048-.14.026.02.065.096.044.163.07.058.022.061.066.137.063l-.123.013v.126l-.129-.054-.049.041c.135.104-.112.283.226.254.01.05-.032.056-.096.084l.076.009c-.027.032.07.057.045.085s-.116.036.037.04c-.044.018-.08.037-.122.055l.104.033-.054.052c.073.01.041.077.09.107-.078.029-.326.028-.282.095l.184-.005-.038.046-.06.002.019-.023-.102.02.15.07.115-.095c.045.04 0 .068.05.102-.085.03-.133.02-.226.007l.024.034c-.092-.008-.147.011-.14-.054l-.078.013c.004.011-.018.018-.008.03.027.032.19.056.246.054.03 0-.027-.032.015-.031.102.003.056.075.16-.03.064.036.015.043-.004.082l.103-.01-.048.054c-.175-.025-.24.106-.394-.012l-.024.105-.054-.022.028-.047-.098.056c.04.043.103.06.18.08.057-.05-.02-.034-.035-.073.049 0 .094 0 .145.003-.101.02-.027.087-.023.102.016.047-.084.01-.086.042-.002.031.057.068-.042.094q.086-.001.163-.004c.019.049-.047.039-.055.044-.14.08-.022.125-.008.217l.049-.035c.118.07.082.023.12-.038-.011.057.09.09.119.13.03.04-.022.108-.062.134-.065-.058-.022-.12-.04-.184l-.166.022c.118.039.04.061.023.074-.046.038.056.036-.053.06l.104-.003c-.016.077-.082.16.057.211l-.27.014c.068.033-.002.06.014.088s.09.018.117.05c.006.006-.04.018-.007.033.035.015.287.07.066.077 0 .027-.009.054-.012.08l-.037-.079-.16.068.143.009c.058.06-.02.105-.002.166.003.01.098-.014.073.032-.024.045-.2.08-.131.157.003.004.138.027.045.054-.022.007-.053-.02-.08-.005s-.051.079-.117.084q.035-.002.071-.007l.034.034-.124.003c.096.064.252.096.2.19l.18-.079-.126-.021.05-.13-.143-.022.018-.035.104.01-.026-.07c.204.047-.017.13.154.124l-.08.03c.082.005.059.026.046.063l.122-.026c-.058.036-.052.1-.074.136-.01.017-.07 0-.077.005-.037.025.068.072.06.082-.05.06-.248.098-.117.163.032-.067.018-.03.09-.054.024-.008.071-.094.05.014-.003.013-.14.209-.245.144.034.032.072.057.108.086-.277.07-.017.046.127.026l.002.034c-.15-.025-.16.105-.084.149.025.014.073-.027.096.007l-.036.052c.095-.025.132.024.229.023a.9.9 0 0 1-.369.038l.12.078.07-.036c-.061.084.077.193-.126.21l.004.034.103.01-.09.152c-.02-.045-.07-.056-.03-.103l-.119.055c.107.07.177.08.145.188a1 1 0 0 1-.1.088c-.04.013-.097-.006-.117 0-.056.015-.198.11-.22.108-.26-.023-.264-.344-.278-.43-.14-.9.047-1.78.016-2.673 0-.009-.04-.005-.041-.009-.01-.024.05-.048.053-.057.005-.02-.05-.009-.05-.023 0-.145.033-.282.023-.427 0-.01.044 0 .036-.016-.004-.009-.072-.036-.073-.055-.004-.068.018-.124.017-.195 0-.04.005-.098.004-.142 0-.019-.032-.039-.033-.058-.001-.027.062-.021.066-.025.017-.019-.052-.021-.05-.038.003-.033.05-.034.045-.075-.003-.03-.04-.096-.05-.133.054-.086.032-.194.014-.275-.01-.047.055-.051.055-.07-.002-.069-.085-.12-.087-.185-.004-.085.051-.16.055-.243 0-.013-.059-.01-.06-.023-.006-.049-.017-.11-.008-.154.01-.048.096-.066.078-.113-.005-.014-.081-.018-.09-.041-.014-.032.033-.066.052-.092l.712.713-.012-.007c-.014-.004-.018.006-.02.02l.6-.318c.013.013.034.028.012.048-.001.001-.05-.024-.054-.014-.01.03.027.051-.001.085-.003.003-.08.021-.082.026-.02.028-.074.074-.076.097-.007.081.093.081-.09.03l.063.142c-.023-.038-.114-.007-.114 0 0 .054.073.071.031.112-.091-.153-.058.049-.073.078-.073.143-.188.24-.278.373-.03.045-.041.123-.074.17-.008.01-.034-.019-.04-.01-.008.01.035.023.026.033-.06.06-.162.067-.121.187-.014-.005-.024-.012-.04-.016.04.102-.128.132-.167.16-.061.043-.02.092-.06.127-.05.046-.207.062-.018.136a.26.26 0 0 1-.085.108c-.005.003-.044-.028-.046-.027-.014.006.021.035.018.044-.01.023-.032-.04-.039-.003-.003.02.024.05-.004.092-.167.253-.363.517-.544.77-.012.018.036.033.019.054-.062.07-.223.162-.259.235-.035.072.034.097.03.155 0 .012-.03-.018-.035-.01-.036.046-.128.068-.163.102-.023.023.031.057.023.077-.013.031-.085.023-.097.036-.053.062-.042.138-.107.186l.038.017-.158.22.039.012c-.066.084-.174-.004.074.153l.014.037c-.124-.087-.252-.096-.33-.05-.005.003.094.12-.047.018l.076.082-.16-.045.004.036.083.061c-.02.039-.105.089-.12.12-.04.076-.012.2-.131.198-.01.032.063.044.03.078l-.094-.043c.104.117.023.072-.034.099-.038.018-.02.058-.046.083-.007.006-.043-.02-.045-.014-.007.019.011.1.005.113a1.3 1.3 0 0 1-.21.295c-.008.01.038.02.029.03-.015.017-.064-.031-.074-.023-.027.025.032.065.007.108-.074.13-.206.244-.304.369l-.577-1.09.043.002c.005 0 .005-.042.01-.043.038-.002.076.055.11.054.057 0 .1-.06.155-.06.11.001.207.031.32.033.091.001.171-.004.272-.004.441 0 .89-.132 1.334-.061.012.002.007.038.01.037.033-.016.036-.066.048.038.042-.02.055-.098.105-.093.027.003.007.124.052.062.041-.057-.004-.123.118-.055.003.002.02.075.044.056.026-.019-.004-.072.058-.088.144-.037.326.027.493.007a.6.6 0 0 0 .132-.059c.038-.035.03-.09.08-.103.04-.01.071.051.117.039.005-.001.014-.065.048-.057m-.979-3.232c-.046-.043-.228-.187-.138-.195.009 0 .124.113.162.101-.003.035-.015.063-.024.094m1.227 4.705-.128-.034.088-.084zM13.318 6.8l.002-.161.047.048.025.147zm-.007.425c-.038.009-.07-.022-.115-.033-.011-.002-.03.008-.036.013l.073.039c.018.093-.252.068-.235-.126l.082.065c.039-.076.154-.11.23.042m2.323-3.793c-.053-.124-.06-.156.053-.185l.06.085-.106-.02.081.066zm-1.287 5.061c.02.228.015.096-.042.147-.02.018-.001.058-.013.064-.067.036-.072-.116-.057-.195zm1.729-.047c.002.056-.025.07.005.123h-.069l.02-.016-.017-.057c-.009.063-.016.026-.04.005l.02.204-.085-.06v-.052l-.033.066-.008-.061-.039.046c-.004-.05.025-.07-.025-.058l.046-.153zm-2.25.117c.083-.01.06.027.04.14zm.581-3.043q-.076-.094-.147-.187c-.008-.065.136-.027.16.035.03.073-.057.07-.013.152m.598-.94c-.063.03-.107-.068-.143-.11.08.035.086.012.115-.013-.015.032.038.119.028.123m-1.21 1.688c-.012.02-.008.052-.042.056-.057-.047.023-.045-.085-.08l.022-.042c.031.033.067.042.104.066m-.77 2.382c-.047-.087-.056-.05-.103.01a.33.33 0 0 1 .085-.215zm3.89-1.809c-.09-.011-.102-.094-.075-.136l.04.015zM14.99 4.446l-.015.01a.02.02 0 0 1 .015-.01m1.502-1.551c-.086-.02-.114.039-.08-.032h-.001c.022-.048.028-.058.034-.101.11.015.149.104.171-.018 0-.002-.065.001-.056-.018l.008-.006a.2.2 0 0 0-.028-.046l-.018-.002-.02.022-.021.007c-.01.005-.063.054-.01-.026a2 2 0 0 1-.113-.078l.094-.107.088.01.001-.09q.016-.006.031.016l.325.04-.031.254c-.035.025-.111.048-.109.077.006.059.157.09-.04.1-.05-.05-.05-.135.068-.146q0-.02-.016-.03l.021-.17-.218-.028c-.02.027-.021.081 0 .118l.088.01-.008.07-.01.007c.06.166-.146.045-.068.191.028.002.057.008.083.007-.097.045-.135-.024-.165-.031m-.14-.13-.096-.17c.079.054.14.114.159.182zm.375 2.206c.051.004.099.015.148.023-.044.009-.085.216-.128.11-.006-.015.085-.108-.02-.133M13.352 8.57l-.073-.103.112-.067zm1.354-3.33c-.008.008-.047-.06-.06-.02-.021-.051-.037-.096-.056-.145l.098.035-.041-.054.114.092c-.115-.017-.023.059-.055.092m-.677 1.335c-.093-.052-.105-.148-.159-.098q-.076-.073-.05-.127l.078.028a.3.3 0 0 1-.104-.112c.032-.056.05-.039.155.014-.092.019-.005.08.022.154.019.05-.02.073.058.141m2.699-1.828c.09.048.173.005.078.09l-.069-.017zm-3.132 1.817c.14.088.27.123.053-.034-.07.005.068.073-.053.034m1.61-1.824c-.053.065-.198-.053-.255-.133l.092.044-.013-.063zm-2.29 3.144c-.06-.12-.092.02-.127-.058-.029-.063.095-.035.147.021zm.181-.325c-.11-.062-.07-.054-.08 0-.003.016-.107.084.006.103zm2.5-3.721c.046.03.096.17.065.163-.085-.02-.042-.104-.158-.134.132-.018-.05-.175.207.007-.019.052-.058-.005-.113-.036m1.061 4.095c.003-.005.083-.054.11-.048-.023.058-.076.048.01.103l-.082.008c-.017-.021-.05-.033-.038-.063m-.04-2.74c-.014-.022.046-.06.042-.085.227.078.015.171-.041.085m.137-1.671-.039.005h-.003zm-1.068.155c.084.012.115.182.069.198-.027-.022-.053-.04-.082-.067.092.024 0-.133.013-.131M14.143 6c.056-.08.234.194.033.063A.4.4 0 0 1 14.143 6m1.143-1.674c.062.071.11.044.052.1L15.27 4.4zm-.46 1.372c.027-.13.018-.276-.234-.352l.004.037c.1.07.026.06-.005.1.036.032.03.062.061.09.06.052.125.058.174.125m-.203 2.517-.005.062-.058.07.01-.12zm1.88-5.209c-.184-.138-.17-.082-.118.048zm-2.854 4.257-.167-.104c.033.073.1.109.182.14zm-.314.511c.02-.006-.028-.029-.026-.03.047-.02.07-.011.068-.078l-.024-.04c-.127-.057-.076 0-.172-.002l.133.056-.074.056.03.033zm1.511.5.085.016.003-.101zm1.629-.266c-.023.032-.008.079-.013.114.085-.003.061-.092.113-.124-.015-.005-.09-.003-.1.01m-1.338-3.177.091.091-.045.041.086.06c.011-.097.082-.024.188-.004zm.611 3.224c-.062.023-.084.067-.049.17l.066-.07zm.726-3.911c.039.052-.1.053-.023.104l.078-.082zm-.15-.242c.052.01-.115-.154.06-.11-.033-.04-.068-.075-.102-.114l.147.073c.017-.057-.06-.065-.106-.098-.02-.014.037-.026-.014-.045-.086-.031-.09.067-.18.006.046-.004.053-.068-.016-.095-.076-.029.003.09-.07.082.17.057.069.111-.048.046.051.107.117.085.147.031.063.089.049.012.124.052.02.06-.09.147.058.172M14.575 6.14c.018-.038.103-.059.047-.13-.032-.042-.1-.01-.14-.092-.016.038.004.063.065.096l.004.037-.04-.012.062.06-.03.014q.014.014.032.027m1.904-.498-.003-.034-.052.004-.04.003c.048-.006.13-.061.077-.085-.026-.011-.119.015-.135-.034.005.036.018.069.025.104l-.082-.01-.02.035zM13.773 7.31c-.023-.063-.039-.09-.121-.124l.07.102zm2.489-3.962c.332.084.128-.104.015-.069-.005.002.022.061-.015.07m-.963 1.439-.032.061.11.055zm.176 3.12c-.024-.092-.086-.125-.117-.026l.048.035-.09.035c-.002.127.033.053.086.088.008.006.06.163.078.044.004-.024-.052-.04-.013-.112-.017-.005-.032-.004-.047-.007l-.004-.09zm-.774-1.97c.038-.043 0-.078-.068-.138l-.02.083zm.264 1.94c-.031-.014-.018.058-.03.072-.048.052-.08 0-.127.033l.009-.04c-.222-.062-.106.103.027.076l.01.081c.059-.047.114-.093.111-.222m1.798-4.906c.015.007.092.085.073.024-.112-.115-.077-.028-.134-.051l-.019-.053c-.073.03-.048.058.06.103.008.003.004-.03.02-.023m-.59.065c.232.009.128-.074.056-.07-.003.01.036.02.019.032-.018.012-.072.015-.075.038m-.482 1.548c.002-.001.096.034.031-.007-.166-.077-.104.039-.046.065.009-.018-.006-.044.015-.058m.16 3.268c-.001-.007-.062-.046-.07-.01q-.008.063-.014.128c.033-.04.101-.01.084-.118m1.196-2.464c-.09.079-.03-.183-.165-.01l-.028-.109.15-.027zm.625.067c-.142-.045-.18-.187-.312-.034l.147.037-.113.16.055.057-.255.073.038-.065a.47.47 0 0 1-.1-.278l-.06.031q.05-.089.102-.176l.102.155c.133-.076.059-.21.031-.279-.038-.094.025-.073-.001-.143-.004-.011-.054-.012-.055-.034-.004-.112.023-.329.138-.202-.014.184.078.34.044.52.134-.047.18.048.24.178m-.426-3.376c.065.056.039.17-.006.246-.01.017-.097.055-.093 0 .006-.09.142-.133.05-.18l.05-.066m-.008-.196c.033-.055.136-.03.108.04-.011.028-.092-.028-.01.075l-.184.063-.004-.075c.105.018.057-.047.09-.103m.093 2.78c-.094-.008-.093.028-.159.09l.01-.175zm-.014 1.373.044.058-.1.034.095.203c-.104-.008-.087-.13-.159-.196.031-.1.091-.148.178-.154zM11.726 9.08l.086.068c.013-.03.023-.06.038-.09-.124-.08-.014-.087-.022-.191-.024-.319-.216-.234.066-.522-.013.231.12.142.222.282-.078.028-.254-.11-.29-.016.082.161.159.316.212.495l.04-.016-.025-.085.108.092c-.082-.04-.036.06-.13.047-.042-.006-.1-.05-.14-.076l-.062.204-.1-.105zm7.105-.61c.097.086.113.241.005.323zM17.45 5.975l-.05.03-.092-.13.143-.024zm-.054-2.735c.003.031.002.034-.005.073-.003.015-.03.144-.067.13v-.198zm-.021.755c-.006.024-.018.046-.02.07-.057-.087.046-.1.017-.18-.03-.078-.087-.127.055-.194.022.025.052.052.077.077-.057.112-.003.142.053.232zm-5.15 3.995c-.045-.058.026-.038.028-.04v.001c.055-.192.018.043.13-.098q-.003.048-.002.096c-.051.014-.107.026-.155.041m3.537-5.036.054.03c-.066.086-.015.155-.127.186zm1.783-.256c.04.12.057.208-.005.322-.005.007-.047-.025-.058-.016q.01.035.024.071l-.103.01.03-.202-.06.03-.032-.171.17.06q.015-.053.034-.104M14.553 4.29c.029-.003.04.048.072.035.032-.014.03-.082.074-.035l-.048.115c.168-.041.158-.206.274-.127a.55.55 0 0 0-.183.295c-.089-.068-.099-.222-.228-.22zm4.295 3.425c-.008.074.037.243-.028.336a1 1 0 0 1-.25.098c-.093-.002-.105-.095-.165.005l-.006-.1-.185.018.028.122-.061.006c0-.146-.08-.06-.154-.136l-.111.21c.004-.04.008-.088.013-.123-.105-.005-.08.08-.1.094-.11.081-.054-.333-.207-.367l-.05.203-.056-.058c.105-.153.142-.325.208-.504l-.013-.048-.142.013-.017-.073c.156.072.154-.028.25-.148.054.064.021.143.123.138-.078-.22.033-.477-.056-.69-.022-.053-.154-.053-.142-.177.015.004.041.005.06.008-.063-.216-.1-.346-.036-.57l-.143.038.071.143c-.078.032-.112-.016-.111.126 0 .116.035.047.058.079.032.042-.03.08.005.126.027.035.091-.003.075.09l-.255-.113.057-.068.067.068-.12-.24c.121.027.076-.059.062-.105-.023-.073.06-.01.047-.059-.014-.047-.107-.099-.087-.185.053.046.102-.017.151-.005.05.013.06.104.115.016-.041-.168-.23.015-.26-.1-.038-.136.27-.169.337-.128.052.032.042.143.093.175.094-.198-.09-.2-.127-.233-.132-.123.22-.04.093-.186l.188.008c-.012-.025-.028-.042-.038-.072-.128.089-.122.016-.123-.022 0-.059-.062.032-.079.017-.043-.042-.023-.11-.08-.068l.079-.058c-.033-.069-.307-.231-.252-.077-.102-.014-.053-.064-.037-.103.015-.04-.05-.038-.038-.073.048-.136.16-.047.247-.025-.06-.18-.1-.004-.14-.264-.071-.025-.147.095-.188-.005.123-.018.212-.092.253-.235l-.086-.042c.114-.078.233-.038.091-.183.26.078.094.024.2-.106.021-.026.075.035.102-.002.013-.017-.028-.057.003-.098.016-.02.116-.113.069-.177-.126.047-.233-.075-.337.03.025-.194-.035-.33.136-.113l.114-.147-.09-.104c.104-.005.133 0 .115-.135l.074.176c.02.002.042.01.063.008-.04-.072-.057-.275-.085-.324-.027-.05-.035.045-.061.031-.22-.118-.058-.108-.096-.193-.022-.05-.047.069-.056.042-.035-.098.082-.144.083-.232l-.2.093a1 1 0 0 0-.018-.28c-.008-.033-.058-.008-.06-.013a.7.7 0 0 1-.045-.15c0-.088.068-.09.072-.176l.017.098.332.045.025-.251-.111.184-.27-.288.166-.15c-.015-.135-.238-.108-.043-.172l-.05-.12.085.017-.052-.145c-.099.05-.203.1-.299.15-.021-.094.062-.096.083-.11.056-.038-.019-.112.032-.142.018-.01.073.083.137.05.012-.005.247-.13.192-.21-.042.002-.094.008-.14.011-.026-.106.195-.16.258-.147-.044-.057-.047-.14-.115-.152L17.901.92c.165.03.135-.09-.007-.099l-.011.15c-.171-.037-.276.11-.126-.186l.099.1-.016-.009c-.027-.04-.008-.042.016-.038l-.053-.053c-.005.03-.02.07.017.043a.2.2 0 0 0 .015-.043l.021.021c-.07-.016-.137-.002-.205-.055-.101-.079.023-.154-.212-.054.52.252-.072.17-.316.248a.35.35 0 0 0-.355-.28l-.07.004-.028.047a.7.7 0 0 0-.095.181c.074.016.096-.078.144-.107.037-.022.047.013.078.015l-.029.015a.1.1 0 0 0 .028.024c.064.032.2.076.265.125-.055.04-.326.132-.146.02-.058-.029-.102-.058-.147-.084l.098-.05a.5.5 0 0 0-.18.138c.06.102.118.138.027.272-.067-.164-.258-.073-.362-.195.096-.074.182.065.28.052.009-.001.04-.11.056-.13-.173.012-.235.013-.329-.133-.032.07-.076.097-.017.147l-.11-.018c-.013.02-.023.04-.039.062.116.037.017.053.031.124.015.071.128.069.05.182l.138-.064-.079.269c.094-.01.257-.06.331-.004-.052.013-.081.163-.088.177-.026.054-.056-.006-.06-.003-.076.06-.104.134-.197.112-.007.08-.056.11-.097.172-.022.034.036.065.012.077-.159.083-.141-.09-.185.253l.177-.011-.018.114-.06.043-.242-.172-.056.054.05-.124-.035-.04-.178.112.083.063c-.123.092-.149.078-.151.245-.062.087.006.24.02.326l-.086.021.046.084-.146.001c.065.065.083.088.172.016.07.095-.081.225-.157.268-.058.032-.096-.076-.11-.076-.046-.002-.075.098-.092.11-.072.057-.103.11-.165.162-.013.01-.086.012-.09.014-.024.017-.088.058-.093.064-.272.31.19.099-.05.396l.101.031-.044.075c-.045.013-.061-.052-.069.03l-.094-.083v.116c-.147-.042-.28.091-.412-.017-.045-.037-.018-.179-.109-.158-.042.04.036.048.026.069-.074.15-.148.087-.166.157l.084.1-.074.042q.03.03.058.063l.047-.057c.07.087-.052.347-.066.206-.005-.058.054-.115-.08-.146-.028.072-.062.154-.093.23l-.072-.042c-.047.098.1.081.148.115l-.039.064-.084-.02c.034.024.107.092.035.131-.046.025-.091-.097-.13-.015.057.033.142.052.102.147-.062-.032-.122-.057-.186-.092-.017.14-.137.125-.158.289-.013.104.056.308-.197.203-.045.052.022.072.023.097.003.119-.14.104-.157.114-.104.065-.097.131-.198.172l.125.073c-.013-.111.015-.144.095-.231l-.043.114.11.053c.079-.389.235-.176.104.106l-.228-.063c-.01.21-.137.221-.27.371-.017.018-.031.114-.05.145h.001c.044.058.089.051.142.084l-.015.063c-.065.01-.088-.026-.13.053l.138.053c-.055.08-.133.103-.167.19l-.018-.069c-.15.135-.29-.154-.261.048l-.076-.02.09-.16-.083-.062-.087.179.026-.158-.171.158c.15.007.103.102.217.158-.163.05-.336.057-.383.278-.01.044.075.076-.08.11.131.057.1.215.22.276q.03-.056.056-.11c-.064.01-.172-.057-.164-.135.011-.099.156-.152.038-.23q.037-.036.07-.073.033.047.063.095c.01-.11.06-.15.159-.137l-.148.316.044-.032c.024.123.145.099.068.242l-.1-.073c.056.111-.037.243.097.274-.06.017-.086.011-.046.073-.153.05-.3.048-.392-.073l-.025.158h.145l-.149.2c-.1-.06.063-.151-.051-.172-.023-.004-.012.059-.028.061-.177.028.011-.078-.09-.105-.131.134-.182-.082-.214.206l-.095-.042a.1.1 0 0 0-.021.053l-.027.045.002.035c.022.035.065.047.075.102.01.047-.126.107-.034.16.017.008.182-.08.174.106-.005.144-.122.084-.163.161-.04.078.12.256-.062.309.024-.041.037-.093.057-.138l-.107-.055c.046.104-.008.21.077.28-.13.138-.01.293.137.25-.02-.045-.085.005-.044-.058l.102-.02c-.004.107-.003.182-.107.133l-.008.05.227.009.01.023-.195-.195.036-.015.067.05c-.03.12-.082.123.088.19l.002-.123c.141.052.145.152.323.148-.136.143-.211-.11-.21.176l-.104-.056-.015.124c.184-.021.49-.295.613-.114l.046-.065c.12.11.172-.136.295.005.013.015-.014.246.146.238-.004-.03-.006-.08-.01-.118l.104.056.019-.083-.177-.033.147-.028c-.064-.046-.092-.046-.054-.119l.167-.013q.007-.028.017-.056l-.081-.166c.144.045.27.048.38.157.02.018-.047.09.082.025l.007.105c.158-.107.21-.075.374.002-.106-.072-.011-.025.016-.064.018-.026-.054-.022-.046-.05s.102-.14.022-.154c-.198.23-.251-.044-.505.066l.117-.089-.054-.06c.141.045.072.016.13-.02a.7.7 0 0 1 .235-.074c.023-.004-.001.048.05.053.034.003.128-.073.15.017.013.058-.137.22.07.22.04.057-.06.039-.062.046-.018.068.11.12.17.067.004-.004-.043-.058.008-.078.12-.05.19.01.268.093.009-.097.11-.212.237-.176l.019-.084-.06.044c-.02-.018-.043-.03-.064-.05.127-.025.145-.158.206-.207.208-.167.082.186.044.247l-.08-.078.009.102c.312-.001.047.219.206.281.04-.166.157-.182.305-.076l.05-.002c.002-.024.002-.061.007-.077.178-.029.21.227.227.251.075.108.133-.04.155-.042.094-.005.12.06.21.032.095-.03.03-.081.059-.126.023-.036.099-.043.13-.08l-.039.091c.1.042.18.082.292.092.127-.223.235.154.191-.152a.32.32 0 0 1-.223-.133l.21-.03c.019.031.033.062.054.093l.016.001v.014l-.008.005c.071.053.04.174.061.221.098.223.22.154.016.357-.02-.146-.12-.146-.106-.291-.07.03-.056.105-.14.057.02.14.096.095.163.15.058.047.061.142.137.136l-.123.027v.273l-.129-.116-.049.088c.135.224-.112.61.226.548.01.108-.032.121-.096.18l.076.02c-.027.069.07.122.045.184-.025.061-.116.076.037.085-.044.04-.08.08-.122.12l.104.07-.054.112c.073.02.041.167.09.232-.078.06-.32.06-.283.198l.008.147.131-.007.005-.002-.005-.086-.048.002-.003-.054.097-.006-.002.006-.044-.044.094.037.005.06-.05-.02.043.102.152-.15-.205-.115c.086-.045.145 0 .22-.05.065.085.04.134.015.226l.072-.024c-.016.093.025.148-.116.14l.03.079c.022-.005.037.018.063.008.069-.028.122-.19.117-.247-.003-.03-.07.027-.068-.014.007-.103.163-.057-.062-.16.074-.065.091-.016.174.003l-.02-.102.116.047c-.054.175.229.241-.025.394l.224.024-.046.054-.101-.028.12.099c.093-.041.13-.104.173-.181-.11-.057-.074.02-.159.036.003-.05 0-.094.007-.146.044.102.187.028.22.023.102-.015.023.084.09.087.066.002.142-.053.197.03l.177-.01-.01-.158.012-.006q-.066 0-.13.006l.003.047-.052.003q0-.018-.003-.034h.003l.016-.001v-.015c-.018-.102.047-.082.055-.093.14-.174.022-.269.008-.469l-.049.077c-.118-.15-.082-.049-.12.082.011-.123-.09-.193-.119-.28-.03-.086.022-.235.062-.289.064.124.022.258.04.396l.166-.047c-.118-.084-.04-.132-.023-.16.046-.081-.056-.079.053-.127l-.104.005c.016-.167.082-.348-.057-.457q.134-.013.27-.029c-.068-.07.002-.131-.014-.19-.016-.06-.09-.038-.117-.107-.006-.013.04-.04.006-.072s-.286-.15-.065-.165c0-.06.009-.117.012-.175l.037.171.16-.146-.143-.018c-.058-.132.02-.227.002-.36-.003-.022-.098.03-.073-.067.01-.047.056-.088.094-.136l-.097.097c.053.042.115.073.203.038.009-.004.058-.138.118-.045.014.02-.044.052-.012.08.031.028.17.05.182.116-.002-.023-.01-.047-.015-.071l.072-.033.007.123c.138-.096.209-.252.412-.2l-.172-.18-.046.126-.282-.05-.046.143-.074-.018.019-.103-.147.025c.1-.204.278.018.265-.153l.066.08c.01-.083.055-.06.134-.046l-.055-.122c.078.057.214.052.294.074.035.01 0 .07.01.076.054.037.156-.067.178-.06.127.05.21.249.35.118-.144-.032-.066-.019-.117-.091-.016-.023-.202-.07.03-.05a1 1 0 0 1 .162.057l-.07.07c.051-.115.126-.234.189-.15-.034-.069-.073-.122-.108-.185.277-.153.017-.1-.127-.056l-.002-.075c.15.055.16-.225.084-.32-.025-.031-.073.058-.096-.016l.036-.112c-.095.054-.132-.052-.229-.05.087-.068.27-.119.369-.082l-.112-.155.066.066-.013.01.013.01-.086-.086-.058.066a.3.3 0 0 0 .014-.066l.13.13c-.169-.02-.355.068-.389-.112l-.073.004-.022.103-.327-.09c.097-.02.12-.07.222-.03l-.117-.118c-.154.106-.175.176-.406.144a2 2 0 0 1-.19-.1c-.028-.039.014-.097.001-.117-.034-.056-.239-.197-.235-.219.05-.261.742-.265.929-.278q.303-.022.607-.034l.674-.039.043.756q.022.602.018 1.2l.04.691-.775.045a65 65 0 0 1-1.536-.032l.704-.704c-.024.805-.049 1.61-.036 2.42 0 .02.04.011.041.02.01.052-.05.104-.053.123-.005.042.05.019.05.05v.043l.039.664-.745.043c-.297-.004-.579-.033-.877-.024-.02 0 0-.044-.035-.036-.019.005-.077.073-.118.074-.088.002-.167-.005-.25-.01l-.667.038-.043-.749a2 2 0 0 0 .007-.172c0-.084.005-.21.004-.304 0-.041-.032-.085-.033-.126-.001-.058.062-.046.066-.055.017-.04-.052-.045-.05-.082.003-.07.05-.073.045-.16-.003-.064-.04-.208-.05-.287.054-.186.032-.42.014-.592-.01-.103.055-.112.055-.154-.002-.147-.085-.259-.087-.397-.002-.114.018-.22.035-.327l.704.705a2 2 0 0 0-.197-.02c-.03-.001-.023.058-.05.06-.106.005-.24.016-.333.008-.104-.01-.142-.096-.244-.079-.03.006-.038.081-.088.091-.08.015-.167-.051-.223-.059-.076-.01-.01.067-.113.057-.004 0-.02-.056-.042-.053-.064.008-.058.051-.152.047-.009 0-.134-.053-.146-.053-.074-.001-.22-.02-.264-.009-.155.04-.033.123-.164-.057q-.086.067-.177.132c.04-.04-.125-.098-.137-.094-.097.03-.04.1-.162.088.162-.162-.158-.02-.23-.016-.343.02-.655-.02-1-.02-.116 0-.271.035-.393.034-.029 0-.007-.038-.032-.04-.025 0 .002.043-.026.041-.178-.015-.317-.096-.48.005-.008-.014-.008-.026-.021-.042-.078.053-.197.034-.302.005l-.686.04-.045-.77c.02-.076.046-.145.053-.185.026-.151-.035-.19-.023-.3.017-.144.137-.362-.061-.265a1.2 1.2 0 0 1 .01-.295c.002-.011.053-.004.054-.008.007-.028-.038-.038-.04-.057-.006-.052.048.033.033-.041-.008-.038-.045-.06-.048-.162l-.011-.193.147-.239.005-.006c.371-.538.79-1.11 1.18-1.656.026-.037-.03-.04.005-.086.124-.158.397-.404.487-.552s.009-.157.046-.263c.008-.02.031.017.042.002.076-.102.215-.19.282-.269.044-.052-.011-.084.012-.125.035-.062.13-.084.153-.113.109-.14.136-.269.252-.389q-.022-.003-.043-.01l.342-.475h-.048c.137-.184.236-.083-.016-.235l.003-.059c.12.092.29.042.423-.08.01-.009-.061-.165.076-.057l-.058-.108.194-.002.015-.063c-.026-.022-.056-.04-.08-.065.05-.08.194-.212.233-.275.096-.157.128-.363.291-.422.032-.063-.063-.045.004-.125l.103.03c-.076-.156.01-.118.102-.195.063-.051.062-.115.11-.172.013-.014.048.014.054.002.021-.038.042-.174.058-.2.146-.236.288-.427.453-.634.017-.022-.04-.017-.021-.04.029-.037.068.024.087.004.05-.057-.007-.099.05-.188.115-.175.258-.352.401-.53l.174-.282.414-.024q.233.017.456.023c.011 0 .01-.042.023-.043.08-.002.163.055.236.054.123 0 .214-.06.335-.06l.038.001.698-.04.045.783c-.003.22-.03.422-.031.651-.002.198.004.37.004.588-.001.95.131 1.92.06 2.877-.001.025-.038.015-.037.022.017.07.066.077-.038.102.02.09.099.118.093.227-.003.058-.124.015-.061.113.056.088.122-.01.055.254-.002.007-.076.04-.057.096.02.054.072-.01.088.123.037.31-.027.704-.007 1.065.001.022.04.24.059.283.035.084.09.066.104.174.01.084-.052.153-.04.251.002.011.066.03.057.104m-7 1.725c.023.007.07.017.115.032l-.365-.364c.026-.078.07-.154.148-.11.011.007-.052.166.016.191-.055.014-.11.02-.164.028l.255.255zm5.525-1.191.035-.277.084.19zm-1.985-4.851-.093.29-.037-.064.047-.247zm.25-.761c.056-.036.084.002.138-.001.014-.002.046-.03.057-.043l-.079-.03c.029-.157.385-.252.253.102l-.076-.073c-.096.155-.274.277-.293.045M13.026 9.12c.155-.114.205-.138.393-.06l-.08.097-.093-.099-.019.104zm4.606-5.651c-.227.043-.095.03-.147-.093-.017-.043-.057-.001-.064-.028-.036-.143.116-.155.196-.123zm.047 3.727c-.055.004-.07-.053-.123.012l.001-.15.015.045.058-.04c-.064-.017-.027-.033-.006-.085l-.204.043.06-.182.052-.003-.066-.068.062-.018-.047-.083c.05-.009.071.052.058-.056l.153.1zm-.117-4.851c.01.178-.026.128-.14.087zm-4.39 3.898q.05.13.096.259c-.026.11-.2.117-.2.02 0-.116.118-.155.104-.279m-1.35 1.986c.103-.085.108.067.135.121a.13.13 0 0 0-.081.004l.062-.196c-.018.03-.018.068-.024.116a.3.3 0 0 0-.052-.116l-.048.153c.001-.041 0-.075.008-.082m2.612-3.636c.027-.044.04-.098.087-.121.053.053-.055.09.072.099l-.052.084c-.025-.043-.069-.04-.107-.062m3.254-3.433c-.101-.087-.12-.05-.223.01-.014-.07.108-.189.184-.215zm1.35 7.969c-.024.09-.203.102-.293.075l.032-.04zm-3.198.422c-.043.085.084.114-.07.08-.101-.022-.123-.027-.218-.034.034-.11.225-.148-.038-.17-.003-.001.004.064-.038.055-.013-.003-.055-.056-.118-.072-.02-.004-.173-.02.035-.022-.006-.076.005-.153.005-.227.081-.022.144.128.23.124.128-.006.194-.157.218.041-.107.049-.292.05-.316-.07-.105 0-.135.097-.05.145.36-.061.098.145.413.067.004-.027.017-.057.015-.083.096.097-.053.135-.068.166m-.752-.21.186-.176c0 .095-.034.18-.133.234zm2.573 2.63c.009-.051.032-.098.05-.147.007.016.073.032.142.048l-.255.254c.027-.116.053-.24.08-.096.003.013-.01.051-.02.096l.195-.194c-.071-.015-.16-.025-.192.04m-.108-10.649.104-.158.066.243zm-4.947 5.572c.014-.017.03.084.07.006 0 .08-.003.152-.005.228l-.116-.01.027.074-.104-.106c.147-.028.064-.116.128-.192m1.68-2.732c.098.046.06.21.162.094.04.063.044.123-.003.2l-.09-.01c.058.042.066.076.079.147-.075.114-.09.094-.204.053.137-.08.051-.145.056-.262.003-.08.07-.142 0-.222m2.898 7.81c.102-.089.01-.173.192-.077l-.036.068zm-2.31-8.014c-.142-.084-.302-.079-.092.088.098-.046-.052-.095.091-.088m-3.237 4.088c.11-.144.242-.01.275.105l-.102-.03-.017.103zm4.912-6.794c.017.18.139-.084.143.037.004.096-.15.111-.19.037zm-.43.672c.116.054.067.06.111-.043.013-.029.193-.204.048-.179q-.077.11-.159.222M12.254 9.32c.002.055-.188.175-.213.145-.065-.082.135-.093.048-.206.193.1.25-.14.237.175-.113.014-.06-.051-.072-.114m6.327-.964c.012.002.117.082.105.11-.127-.024-.104-.076-.222.01l-.02-.083c.048-.016.073-.05.137-.037m-.772 3.48c.014.046-.045.131-.041.184-.227-.168-.015-.37.041-.184m-1.054-1.74a.2.2 0 0 1-.039.01h-.003zm-4.105-.792c.079.076-.185.197-.27.168.006-.035.006-.066.02-.106.07.09.236-.075.25-.062m1.159-4.056c-.122.17-.212-.226-.01-.097a.5.5 0 0 1 .01.097m-2.075 3.63c-.09-.053-.115.054-.1-.117l.071-.03zm.967-2.738c-.109.244-.18.501.124.505l.015-.062c-.099-.073-.002-.095.063-.18-.031-.04-.006-.096-.034-.129-.053-.063-.138-.04-.168-.134m5.209-2.08-.063-.012-.07-.125.12.02zM14.833 9.6c.024-.23-.06-.188-.229-.072zm.365-6.862.17.1c-.004-.113-.075-.143-.17-.157zm.72-1.074c-.033.022.021.037.018.04-.077.06-.104.058-.138.175l.01.06c.144.034.105-.04.236-.087l-.151-.03.132-.138-.022-.043q-.044.01-.085.023M17.85 4.54l-.016.183.101.007zm-1.76 4.955.013-.036a.06.06 0 0 1-.013.036m2.33-1.324c-.07-.024-.169-.009-.245-.013.006.084.2.06.267.112.011-.015.008-.09-.022-.1m-6.632-.324-.074-.116.084-.095-.083-.063c-.07.178-.127.086-.26.105zm6.283-1.36c-.024-.135-.068-.182-.171-.107l.071.143zm-1.598 4.949c.039.112-.1.114-.023.224l.078-.176zm-3.454-1.48c.047.048.136-.182.27-.013.031-.05.051-.099.079-.148l.049.162c.121-.018.043-.086.045-.143.002-.024.091.016.063-.036-.048-.089-.23-.038-.23-.146.064.035.188.006.151-.066-.04-.08-.157.053-.232-.013.107.173-.114.12-.139-.013-.13.102-.01.144.123.139-.081.102.038.047.058.131-.084.051-.37.009-.237.145m.277-4.735c-.046.077-.174.158-.139.258.02.058.133-.035.142.09.044-.076.03-.11-.035-.138l.014-.063h.05l-.053-.074.05-.042c-.01-.01-.017-.02-.03-.03m4.656 5.646.003.074.052-.009.04-.007c-.048.015-.13.133-.077.183.026.025.119-.032.135.074-.005-.077-.018-.148-.026-.223l.083.02.02-.075zm-2.9-8.143c-.005.1.002.14.097.157l-.04-.144zm1.211 6.992c.332.18.128-.225.015-.148-.005.003.022.131-.015.148m-4.727-1.7.079-.127-.12-.042zM18.22 5.9c.091-.052.124-.186.025-.25l-.035.102-.034-.194c-.127-.004-.054.072-.089.185-.005.017-.163.13-.044.168.024.008.041-.111.112-.028.005-.036.004-.068.007-.102l.091-.008zm-5.216-.247c-.076.096-.044.138.015.21l.074-.158zm5.245-.852c.015-.067-.058-.039-.072-.066-.052-.102 0-.172-.033-.273l.041.02v-.001c.062-.48-.104-.227-.077.06q-.04.008-.081.02c.047.127.093.246.222.24m-3.032 4.993c.006.017-.04.124.047.074.069-.157-.045-.08-.073-.14l.071-.045c-.141-.044-.162-.007-.11.108.004.008.06-.014.065.003m.929.077c.019-.232-.16-.127-.153-.055.025.002.044-.037.07-.02.026.018.033.072.083.075m-4.892-.96c-.001.006-.099.058-.022.053.18-.065.064-.196.001-.173.003.043.03.072.02.12m7.02-2.2c.007-.002.046-.133.01-.15-.04-.014-.085-.02-.127-.031.04.072.01.218.118.181"/></svg>