<svg xmlns="http://www.w3.org/2000/svg" width="50" height="25" fill="none" viewBox="0 0 50 25"><g fill="#fff" filter="url(#a)"><path d="M13.259 5.077q-.151-1.455-1.06-2.1-.888-.66-2.287-.66-.567 0-1.116.113a3.1 3.1 0 0 0-.983.378 2.1 2.1 0 0 0-.68.718q-.247.435-.246 1.097 0 .624.359 1.021.378.378.983.624.624.246 1.4.416.775.15 1.569.34.813.19 1.588.454.775.246 1.38.68.624.435.984 1.098.378.66.378 1.664 0 1.077-.492 1.853-.473.756-1.229 1.248a5.4 5.4 0 0 1-1.702.68 8 8 0 0 1-4.009-.057 5.5 5.5 0 0 1-1.777-.85 4.3 4.3 0 0 1-1.21-1.475q-.435-.908-.435-2.137h1.702q0 .85.321 1.475.34.605.87 1.002.549.397 1.267.586.719.19 1.475.19.605 0 1.21-.114a3.8 3.8 0 0 0 1.116-.378q.492-.284.794-.757.303-.472.303-1.21 0-.699-.379-1.134-.36-.435-.983-.7a6.6 6.6 0 0 0-1.38-.454q-.776-.17-1.589-.34a32 32 0 0 1-1.569-.416 6.5 6.5 0 0 1-1.4-.624 3.2 3.2 0 0 1-.983-1.002q-.359-.624-.359-1.55 0-1.022.416-1.76a3.56 3.56 0 0 1 1.097-1.228 4.8 4.8 0 0 1 1.57-.719A6.8 6.8 0 0 1 9.987.803q1.04 0 1.928.246.89.246 1.55.775.682.529 1.06 1.343.397.794.435 1.91zm13.566 5.691 1.796 1.437q.795-.794 1.172-1.928a7.7 7.7 0 0 0 .379-2.402 7.7 7.7 0 0 0-.265-2.004 5.5 5.5 0 0 0-.832-1.796 4.16 4.16 0 0 0-1.456-1.267q-.89-.492-2.118-.492-1.23 0-2.118.492a4.2 4.2 0 0 0-1.456 1.267 5.5 5.5 0 0 0-.832 1.796 7.7 7.7 0 0 0-.264 2.004q0 1.021.264 2.023a5.5 5.5 0 0 0 .832 1.778q.567.795 1.456 1.286.89.472 2.118.472.964 0 1.872-.378l-1.494-1.191zm3.97 5.011-2.06-1.645q-1.362.794-3.234.794-1.607 0-2.817-.567a5.95 5.95 0 0 1-2.024-1.57 6.9 6.9 0 0 1-1.229-2.25 9 9 0 0 1-.397-2.666 8.8 8.8 0 0 1 .397-2.647 6.8 6.8 0 0 1 1.23-2.269 5.95 5.95 0 0 1 2.023-1.57Q23.893.805 25.5.804q1.607 0 2.817.587 1.21.585 2.024 1.569a6.6 6.6 0 0 1 1.21 2.269q.416 1.267.416 2.647a8.5 8.5 0 0 1-.51 2.95q-.512 1.4-1.532 2.42l1.777 1.4zm5.442-14.654h1.796v11.988h7.148v1.513h-8.944z"/><path d="M12.303 2.047c.088.138-.307-.103-.085.143a4 4 0 0 0-.183-.048q.006-.079.009-.157.13.026.26.061m.39-.505c-.15.082-.417.003-.199.249q.065-.05.131-.098.119.124.222.255l.125.015a4 4 0 0 1-.032.289l-.077-.1c-.171-.032-.298-.086-.496-.168q.014.039.024.079a3 3 0 0 0-.255-.225c.101.003.215.012.31.024-.073-.186-.351-.216-.488-.23-.132-.013-.143-.04-.187-.06a.3.3 0 0 0-.086-.017c-.022-.002-.037.045-.08.036-.215-.054-.646-.148-.372-.22.198.043.384.062.568.094.157.028.313.067.463.144-.041-.158.158-.138.43-.067M6.342 2.835c.012-.121.177-.263.311-.322.03-.015.138.006.063.068-.119.1-.272.07-.26.195q-.056.026-.114.06m-.201.299c-.082.07-.148-.023-.052-.12.04-.04.046.094.09-.113.076.005.145.01.217.018l-.077.11c-.067-.088-.097.036-.178.105m4.895-1.736c-.031.092.043.1.153.186a6 6 0 0 0-.344-.06q.094-.064.191-.126m2.395 1.11zq.055.022.107.047-.014.059-.032.115.16.11.307.243c-.093.043-.21-.15-.346-.192-.095-.154-.12-.256-.07-.328q.02.057.034.115m-8.584 8.43.105.131q.003-.097.012-.194c-.141-.154-.035-.182-.054-.4a4 4 0 0 0-.032-.293l-.203.203c.36-.052.329-.14.85.091-.51-.013-.314.12-.622.222-.063-.078.241-.254.035-.29l-.263.06.286-.286c.06.255.126.503.202.768l.036-.036-.044-.168q.062.087.128.17c-.092-.067-.019.125-.115.113-.043-.006-.114-.087-.16-.137q-.006.216.008.433a5 5 0 0 1-.14-.202l-.029-.184m6.2-9.07c-.232.047-.6.018-.794-.098.263.013.528.043.794.099m2.39.465.007.074a3 3 0 0 0-.243-.094q.029-.07.053-.142.095.078.184.162m-5.31-.794c.06-.02.066-.02.144-.034l.02-.004c.078-.014.278-.037.26 0a8 8 0 0 0-.394.105zm1.533-.246c.049.003.094.013.144.014-.175.064-.208-.038-.368.004-.16.044-.247.113-.404-.008.047-.028.098-.066.149-.098.239.03.294-.028.48-.094zM6.02 10.906c.078.04.022.11.022.117.175.445-.064-.052.052.39a4 4 0 0 1-.11-.181c.006-.11.022-.223.036-.326m5.237-2.588.002-.062c.243.064.328.005.51.137a8 8 0 0 0-.512-.074M7.06 1.842c.191-.158.354-.257.596-.29.015-.001-.03.064-.01.067l.129-.077.054.09q-.195.057-.384.132l.08.028a4 4 0 0 0-.287.183q.01-.103.023-.206a5 5 0 0 0-.201.073m6.86 9.375c.025-.043.057.042.081-.027.024-.07-.016-.2.046-.168.008.095.012.197.012.296a.9.9 0 0 0 .077-.342c.01-.177-.015-.309.072-.323 0 .117 0 .222-.002.323-.003.188.003.37-.007.584-.104-.037-.166-.34-.291-.17q.009-.087.012-.173m.571-5.148c-.162-.008-.535.037-.74-.028-.05-.016-.22-.223-.218-.25.005-.093.21-.105-.01-.165l.22-.006-.04-.185-.268.028-.013-.062c.322 0 .132-.08.299-.153l-.462-.111c.088.004.193.007.27.013.011-.105-.175-.08-.207-.1-.18-.11.735-.054.81-.207l-.45-.05.13-.056c.339.105.719.142 1.114.208l.035-.005-.137.141-.011-.07-.14.036-.025-.153c.163.142.155-.067.218-.338.072.132.051.31.152.29-.108-.476-.114-1.071-.386-1.48-.05-.073-.127-.063-.207-.149a.6.6 0 0 1-.087-.14c.017 0 .04-.01.06-.013-.276-.384-.462-.578-.761-.957l-.04.16q.13.075.254.166c-.018.103-.101.046.073.274.136.193.084.059.14.1.075.057.062.156.139.222.059.052.08-.051.154.132a3 3 0 0 0-.333-.085l-.02-.145q.064.04.128.084a3 3 0 0 0-.367-.332c.13-.032-.013-.141-.087-.2-.114-.092.031-.057-.045-.117-.078-.06-.214-.065-.331-.188.105.018.039-.1.089-.123.05-.024.205.095.098-.067a.3.3 0 0 0-.109-.052c-.148-.031-.047.225-.217.126-.236-.13-.137-.422-.025-.431.087-.007.273.139.363.15h.005l-.003-.003c-.296-.342-.414-.177-.49-.186-.296-.019.033-.242-.315-.276l.097-.162c-.057-.014-.099-.016-.166-.036.132.201-.017.126-.094.094-.121-.051.041.086.002.087-.101.002-.229-.068-.167.017q-.042-.06-.088-.118c-.159-.026-.562.143-.238.184-.06.086-.14.013-.213-.024l-.003-.002c-.075-.036-.09.027-.157-.002-.266-.112-.062-.179.006-.252-.394-.024-.03.083-.583.03-.061.062.174.175-.037.184-.02-.127-.162-.24-.468-.305l-.095.079c-.16-.123-.072-.24-.39-.106.149-.22.084-.133-.116-.17a1 1 0 0 1-.115-.03c-.059-.02.076-.076-.007-.102-.037-.012-.127.031-.22.004-.044-.014-.263-.1-.405-.037.118.114-.138.249.1.329-.42.018-.705.136-.26-.108A6 6 0 0 0 8.74.81a7 7 0 0 0-.208.132C8.498.845 8.5.81 8.21.902A7 7 0 0 1 8.58.74c0-.021.015-.046.006-.065-.096.044-.305.108-.471.17a1.5 1.5 0 0 0-.224.094c-.1.06.11.002.086.038-.188.288-.214.128-.38.23-.094.06.16-.01.108.02-.19.107-.327.04-.505.124q.139.045.268.097a2.3 2.3 0 0 0-.521.29c-.057.045.015.059.007.068-.03.033-.142.128-.2.18l-.036.03c-.144.106-.19.056-.328.17a3 3 0 0 1 .146-.144 7 7 0 0 1-.124-.324q-.24.164-.453.365a4 4 0 0 1 .386-.203q-.167.31-.258.628-.164.065-.326.151c-.155.256.076.32-.164.34a4 4 0 0 0-.075.25l-.06-.068q-.045.153-.073.307a3 3 0 0 1 .394-.165c-.058.172-.133.146-.163.164-.08.05-.056.216-.12.26-.024.015-.021-.184-.101-.14-.016.003-.32.207-.295.399.042.004.096 0 .142 0-.014.228-.24.327-.3.29.03.134.027.322.095.35l.004.194c-.167-.067-.129.214.017.22a4 4 0 0 1 0-.334c.113.054.198-.064.198.03.002.052-.026.163-.06.407-.08.14-.007-.233-.066-.121-.027.19.03.36.007.55-.017.236-.186-.004.09.473-.076-.956.044-.276.328.178.077.11.163.211.24.281-.097.23.097.61.57.88q.095.049.195.09c-.014-.054-.084-.099-.157-.145a1 1 0 0 1-.137-.107c-.079-.087.043-.045-.047-.156-.092-.11-.274-.343-.323-.478.099.071.575.365.227.204.119.179.19.3.344.437q.076.063.192.133c.147-.044.167-.102.48.042-.251.05.071.31-.07.416-.223-.14-.028-.217-.129-.344-.01-.012-.235-.084-.281-.114.143.231.205.314-.006.389.164.068.256.13.302.067l.06.136.158.063c-.034-.139.089-.01.215-.02.124-.01.014-.145.304-.047a8 8 0 0 1-.25-.17q.202.044.403.075l.179.023c-.039-.036-.094-.082-.149-.13-.097-.091-.189-.195-.163-.25.035.032.133.057.223.073l.176.022c.127.026.043.063.052.067.188.083.355.108.406.214.159 0 .264.052.422.09.087.02.086-.047.134-.022.24.124.102.156.324.164.065 0 .172-.003.339-.007l-.212-.185.235-.004.145.056-.065.29.161.05-.288-.031-.036.045.402.169.03-.1c.304.115.305.145.625.117.08.018.159.018.234.009.142-.017.272-.062.371-.076l.133.096.118-.055.15.172c.062-.074.091-.097-.144-.202.116-.086.537.109.692.22.118.082-.062.106-.05.124.022.034.109.07.184.1a1 1 0 0 1 .11.044c.176.112.305.182.45.306.028.025.073.134.078.14.048.049.15.18.16.194.069.072.119.132.159.178.17.201.174.14.206.092.02-.042.11-.072.267.354q.034-.058.064-.12.048.112.081.226c-.003.103-.078-.001.002.178l-.13-.012q.056.107.102.224c-.053.057-.086.16-.124.26-.057.146-.122.285-.223.258-.054-.016-.104-.294-.17-.15-.018.115.055.04.056.088-.005.35-.112.31-.115.447q.053.046.103.099a2 2 0 0 1-.088.14q.032.033.063.068c.022-.047.045-.102.061-.147.057.06-.008.34-.088.453-.042.064-.07.078-.049-.014l.004-.015c.03-.102.102-.235-.053-.197a2 2 0 0 1-.056.128c-.054.11-.121.22-.194.32l-.071-.044c-.143.173.077.105.122.143a2 2 0 0 1-.115.12l-.106-.013c.027.032.07.133-.088.204-.101.042-.027-.138-.181-.016.045.046.153.075-.016.204l-.018.012c-.053-.05-.109-.093-.156-.15-.217.178-.37.125-.652.286-.1.056-.222.151-.343.18a.23.23 0 0 1-.264-.102c-.147.014-.092.073-.134.094-.2.097-.368-.02-.406-.025-.185-.024-.291-.007-.417-.021a.7.7 0 0 1-.137-.03c.01.05.014.096.022.144q.063-.023.115-.038c.121-.033.221-.029.422-.03a6 6 0 0 1-.259.043l.046.119c.798-.213.645.058-.055.148a7 7 0 0 1-.182-.222c-.396.106-.583-.004-1.013-.1-.05-.011-.248-.008-.329-.027l.004.002c-.067.056-.006.104-.012.167l-.14-.01-.018-.016c-.066-.062-.04-.087-.223-.133q.017.081.037.161c-.221-.066-.343-.168-.547-.236l.12-.006c-.398-.236.055-.326-.304-.36q-.01-.047-.017-.094.177.095.364.17l.05-.092a4 4 0 0 1-.386-.166q.15.049.3.084a3 3 0 0 1-.384-.28c.07.2-.122.09-.159.217l-.057-.083c-.145-.235-.233-.44-.534-.703-.064-.06-.116.029-.161-.24-.052.074-.152.02-.244-.02-.063-.032-.121-.055-.162-.016l.042.074q.06.096.12.175c-.017-.115.085-.19.197-.084.14.135.254.403.353.3.044.061.089.114.136.169l-.138.01c.187.115.274.207.301.342a3.2 3.2 0 0 1-.592-.51q.029.052.06.102c-.196-.101-.14.125-.382-.184l.107-.064c-.085-.026-.178-.123-.252-.196l-.006-.01c-.073-.078-.13-.13-.16-.043-.017-.131-.001-.162-.091-.204-.027-.346.065-.559.228-.489a3 3 0 0 1-.13-.308 3 3 0 0 0-.085.212 4 4 0 0 1-.062-.59c.112-.023.065.37.16.248.018-.024-.036-.122-.026-.15.112-.287.046.157.14.066.001-.308.11-.201.095-.364l-.003-.107-.102.003c-.055.003-.14.019-.278.053l-.045-.102c-.195-.002-.179.075-.347.09-.104.008-.236-.126-.352-.035-.02.017.174.182-.235.175-.318-.006-.186-.122-.358-.164a.3.3 0 0 0-.087-.006l-.096.002.003.091c.003.198.116.493-.029.607.016-.094.02-.211.036-.314l-.11-.119c.05.233.019.48.124.627-.091.331.118.655.236.525-.043-.093-.081.028-.072-.118l.091-.063c.043.23.094.385-.036.31l.023.108.222-.047q.03.056.063.112v.149c-.131-.018-.185-.125-.103.249l.114-.046q.018.072.028.129c.042.192.006.284.193.561-.293-.18-.148-.458-.4-.319a5 5 0 0 1-.057-.243l-.129.017q.033.066.078.134c.253.376.753.711.807.997q.058.016.118.03c.112.262.346.182.476.41q.015.02.025.041c.017.028-.175.186.148.385.008-.03.03-.075.044-.111q.086.087.177.172l.079-.05a5 5 0 0 1-.328-.24q.148.081.3.153c-.103-.113-.155-.148-.044-.164q.161.09.328.17l.06-.033a4 4 0 0 1-.077-.228c.248.188.494.297.683.483.033.031-.13.052.16.084-.009.037-.011.07-.018.104.124.004.217.01.299.025.162.027.28.09.51.19-.218-.12-.02-.029.046-.056.046-.018-.112-.046-.089-.07.025-.022.246-.092.078-.14a.63.63 0 0 1-.512-.044c-.137-.067-.28-.15-.552-.197q.135.004.268.003l-.09-.095c.267.142.14.066.268.07a6 6 0 0 1 .497.055c.046.007-.014.047.09.074.07.02.278-.02.309.077.022.062-.332.168.119.24.077.07-.138.02-.144.025-.052.061.224.157.361.12.011-.004-.085-.069.029-.076.268-.02.414.049.584.14.02-.08.18-.166.39-.175a1 1 0 0 1 .133.005l.04-.084-.127.046-.046-.016q-.048-.015-.094-.035a1 1 0 0 0 .094-.014c.19-.043.23-.153.34-.2.42-.193.187.175.107.241q-.09-.031-.176-.07l.023.102c.676-.043.116.216.473.25.076-.175.322-.216.665-.174q.054-.01.108-.023c.001-.025-.006-.06 0-.079a.6.6 0 0 1 .325-.012c.134.042.198.136.225.145.196.062.286-.122.332-.138.2-.07.283-.03.462-.133.19-.113.032-.101.075-.169.034-.053.184-.13.228-.196-.01.04-.025.08-.036.12.18-.05.335-.098.51-.187q.059-.031.116-.068c.106-.343.523-.219.252-.386-.196.139-.326.186-.472.19q.181-.138.344-.295c.055-.003.1.001.163-.009.039-.128.243-.293.294-.387.2-.374.072-.389.297-.542l.136-.096a2 2 0 0 0-.062.142c-.065.165-.04.246-.21.443.1-.009.188-.153.191-.015.173-.274.046-.233.057-.37q0-.015.004-.032c.021-.115.092-.27.025-.292.046 0 .09.004.136.003q.13-.272.206-.563.03.141.047.288.057-.087.108-.179c.015-.352.14-.843.097-1.101-.019-.126-.07-.188-.18-.14-.02-.234.017-.265.067-.401-.027-.012-.05-.023-.08-.033.007-.156-.11-.253-.117-.385-.008-.133.066-.193-.085-.165.017-.094.022-.187.025-.283a2 2 0 0 0-.159-.096q-.014-.06-.033-.122l-.035-.116c-.082-.001-.23-.28-.359-.352-.024-.146.167-.321-.11-.519q-.051.078-.104.153a3 3 0 0 0-.141-.17l.027-.055.076.086-.012-.141a3 3 0 0 0-.364-.079 4 4 0 0 1 .286.358c-.112-.056-.182-.122-.266-.174a.5.5 0 0 0-.139-.065c-.068-.146-.002-.161.098-.206q-.074-.035-.149-.066c.078-.06.031-.16.296.024l-.012-.102c-.047-.026-.064-.064-.12-.087-.152-.062-.336.023-.354.078-.009.028.15.054.123.087-.066.08-.329-.128.033.207-.17-.029-.173-.088-.32-.187l-.012.109a5 5 0 0 0-.195-.15c.185-.11-.368-.429.219-.333a6 6 0 0 0-.465-.221q.06-.008.119-.013.105.055.205.115a5 5 0 0 0-.22-.196.7.7 0 0 0-.339.008l-.092.034.071.041c.132.065.114-.004.277.04-.023.044-.03.09-.064.132-.029-.065-.128-.107-.228-.132-.095-.026-.193-.037-.228-.046-.219-.055-.02-.096-.164-.143-.144-.048-.33-.04-.423-.17a1 1 0 0 0-.024.163c-.23-.045-.168-.095-.19-.11a1.1 1.1 0 0 0-.555-.193c-.13-.015-.275-.025-.452-.059q.076.044.154.085c-.35.041-.123.055.148.159-.26-.074-.434-.01-.625-.021a1.9 1.9 0 0 1-.61-.192c.28-.01.56.094.86.143-.02-.062-.043-.116-.065-.185-.206.076-.293-.024-.35-.052-.166-.082-.181.019-.265-.11l-.01.104c-.126-.032-.255-.07-.38-.101-.23-.063-.444-.114-.619-.07.003-.093.011-.182.013-.277-.167.023-.272-.084-.399-.11-.126-.027-.104.059-.257.032-.024-.004-.055-.049-.11-.06a.1.1 0 0 0-.033-.003c-.073.01-.43.118-.353-.094a2.5 2.5 0 0 1-.32-.215q.163.095.336.167a3 3 0 0 1-.179-.297l-.113.095a.85.85 0 0 1-.308-.242c-.07-.092-.125-.195-.19-.313-.022-.042-.067.104-.123-.108-.038-.179.057-.33.06-.557a1 1 0 0 0-.01-.173c-.003-.016-.132-.137-.02-.253.024-.025.039.098.075.037.031-.063.12-.33.193-.324-.023-.005-.051.004-.076.005q.005-.072.017-.145l.119.036.005-.163c.019-.195.043-.403.325-.596q-.196.047-.39.142.015.081.036.16a1.7 1.7 0 0 0-.322.52q.054.07.112.133a2 2 0 0 0-.05.147l-.094-.059a3 3 0 0 0-.015.322c-.199-.243.124-.595-.043-.61q.062-.062.128-.116c-.053-.04-.028-.104.036-.2l.066-.09-.15.04-.022.01.012-.013c.136-.138.323-.384.475-.49.067-.048.047.052.07.04.088-.043.182-.19.249-.256a.2.2 0 0 1 .041-.033c.286-.104.516.014.768-.195-.313.061-.143.024-.276-.007-.041-.01-.458.104.05-.07.027-.009.243-.049.44-.046.236.002.44.044.287.124.14-.056.252-.108.387-.155.35.254.222.004.115-.134q.082-.006.168-.01c-.051.067.038.102.17.118.172.02.42.02.543-.01.074-.018-.121-.086.047-.092.078.02.165.045.246.07-.106-.113.138-.11.155-.204.143.116.207.323.105.4q.191-.017.39-.012a4 4 0 0 0-.148-.12c.38.163.92.327.873.55a3 3 0 0 1 .133.09q.05-.026.103-.051c.182.18.33.387.44.608-.142-.168-.21-.174-.339-.361q.053.135.085.267c.275.191.389.206.546.698.013.023.03.417.02.43-.027.067-.102-.008-.116.022-.033.084-.113.522-.14.515-.135-.038-.236-.4-.387-.726-.146-.332-.357-.598-.466-.69a1.6 1.6 0 0 0-.204-.158l-.013-.01c-.507-.352-1.167-.49-1.873-.485q-.49.003-.967.1c-.276.056-.53.15-.752.282l.012-.008c-.18.112-.328.264-.45.465-.098.162-.158.43-.161.734-.004.254.05.42.165.556l-.023-.025c.187.195.447.359.748.485.402.164.838.293 1.287.394l-.015-.003a53 53 0 0 1 1.863.408c.044.01.034-.031.053-.028.12.02.22.109.261.123.091.03.055-.038.122-.02.329.092.643.197.955.31l-.015-.005c.377.128.745.29 1.112.492.045.026-.023.038.059.076.042.02.203.039.293.099q.066.044.128.089l-.008-.006a4.1 4.1 0 0 1 1.185 1.354l-.007-.013c.059.095.135.186.18.286.066.152-.008.144-.002.168.021.107.091.098.121.197.05.184.01.205.06.432.038.162.115.528.13.73l-.015.198c-.027.429-.077.935-.184 1.326-.074.267-.151.266-.193.37-.082.191-.148.364-.228.53a2 2 0 0 1-.238.414c-.294.382-.645.64-1.016.902-.06.043-.012.082-.072.125l-.086.06-.011.007a4 4 0 0 1-.649.355c-.244.1-.364.054-.596.153-.068.029-.065.108-.182.154-.174.068-.382.062-.518.077l.016-.004-.03.005c-.182.032-.008.073-.254.115-.01.002-.057-.044-.109-.032-.15.037-.127.078-.354.11-.022.004-.328-.008-.357-.006-.176.02-.53.024-.635.037-.31.041-.158.1-.283.017a2 2 0 0 0-.111-.07 6 6 0 0 1-.426.118c.1-.034-.293-.117-.32-.118-.234.006-.105.092-.397.043.407-.109-.374-.07-.546-.11a6 6 0 0 1-.557-.128 6.5 6.5 0 0 1-1.734-.801c-.084-.055-.18-.115-.277-.18l-.017-.012a4 4 0 0 1-.524-.435c-.052-.053.015-.04-.03-.087-.044-.048-.026.034-.075-.022-.303-.355-.437-.692-.728-1.005.003-.024.014-.03.012-.066a1 1 0 0 1-.08-.103l-.008-.017c-.206-.317-.271-.877-.296-1.087-.052-.377-.12-.463-.136-.736-.011-.222.03-.507.021-.637l-.016-.633.667-.018c.074-.006.095-.035.012-.111.22-.006.431-.008.653.01.025.003.008.053.018.054.062.007.083-.038.125-.04.115-.006-.072.048.091.033.086-.008.135-.047.375-.048h.428l.734-.02.02.773c0 .416.07.81.234 1.131l-.013-.024q.257.465.662.776l-.01-.008c.255.188.545.33.857.43.08.024.04-.038.14-.006l.033.01c.34.111.926.25 1.276.244l.076-.001c.34-.02.26-.091.465-.138.04-.01.01.034.048.03.153-.012.327-.012.487-.02q.145-.007.252-.027c.122-.025.095-.085.173-.113.116-.044.256-.031.318-.056q.095-.04.173-.087l-.018.01c.163-.106.262-.22.404-.35q-.024-.004-.047-.01.082-.09.15-.195a1.25 1.25 0 0 0 .176-.544l-.044.039c.024-.166.053-.259.056-.297.004-.039-.03-.018-.186-.002l-.033-.068c.15.01.264-.215.21-.432-.005-.022-.178-.029-.025-.11a1 1 0 0 0-.126.01l.02-.084-.012-.013q.004-.065.003-.134l-.085-.05c-.027.021-.049.05-.078.068-.098-.093-.342-.295-.468-.343a1 1 0 0 0-.098-.038l-.024-.01c-.294-.114-.611-.153-.831-.307-.137-.027-.021.073-.218.013l-.045-.115a.3.3 0 0 1-.15.049c-.089-.002-.15-.066-.313-.123-.164-.058-.282-.045-.44-.087-.04-.01-.026-.052-.054-.057-.094-.015-.373-.012-.439-.024l-.333-.063-.02-.005a16 16 0 0 1-1.36-.37c-.062-.018.006.047-.057.027-.102-.033-.023-.08-.081-.1a.4.4 0 0 0-.094-.023l-.015-.004c-.095-.015-.152.013-.342-.052a5.8 5.8 0 0 1-1.227-.6l-.022-.015a4.2 4.2 0 0 1-1.064-1.07c-.017-.025-.05 0-.07-.027a1 1 0 0 1-.072-.123l-.014-.023c-.081-.168-.123-.346-.179-.497-.115-.319-.223-.553-.26-.872q-.03-.284-.022-.547c.01-.397.06-.793.177-1.229a4 4 0 0 1 .353-.88 4.4 4.4 0 0 1 1.304-1.475A5.7 5.7 0 0 1 7.98.31l-.01.003A7.2 7.2 0 0 1 9.987.007a7 7 0 0 1 1.806.211c.059.015.027.046.045.048.173.025.201-.017.234.1l.031.004c.2.032.298-.013.548.086.139.059-.01.126.245.17.228.05.043-.144.61.263.015.012.051.12.179.187.124.067.03-.07.292.11l-.01-.007.023.016c.507.356.982.973 1.27 1.63l-.01-.02c.118.242.212.49.29.733.025.056.19.602.217.71.065.207.116.157.156.433.016.126.003.24-.007.364l.057.953-1.003.026a1.2 1.2 0 0 0-.239-.012c-.025.002-.068.066-.23.057m-9.368 5.592c.074.024.31.023.332.268.003.025-.193-.034-.164.104a3 3 0 0 1-.168-.372m8.188-7.065.612.035-.422.084zm-.79 4.207.007.002-.013-.005c.228.064.456.151.678.273l-.102.01a3 3 0 0 0-.546-.182l-.033-.094.013.005zm-1.738-.302c-.129-.055-.086-.09-.151-.148a.6.6 0 0 0-.14-.054l.026.09c-.326-.002-.889-.364-.077-.288l-.057.094c.396.075.818.245.399.306m-3.725 5.348c.337.049.427.067.762.276l-.189.033a5 5 0 0 1-.14-.165l-.077.08a5 5 0 0 1-.356-.224M8.539 1.185c.14.203.083.076-.156.188-.082.04.012.057-.04.077l-.054.02c-.231.073-.288-.048-.25-.138q.095-.031.191-.06a7 7 0 0 1 .31-.087m6.19 3.25c-.053.016-.086-.102-.118.041a5 5 0 0 0-.053-.305q.018.043.033.087.021-.045.04-.091c-.07-.023-.04-.064-.045-.175q-.088.068-.178.134a4 4 0 0 0-.04-.367l.048-.02-.109-.108.044-.056a3 3 0 0 0-.107-.134c.038-.036.11.065.006-.125q.113.055.223.123c.129.316.21.653.257.996M6.468 2.244c.271-.24.216-.14.221-.004q-.108-.002-.22.004m3.08 11.334a4 4 0 0 1-.395.167c-.257-.004-.462-.206-.27-.213.228-.013.442.1.665.046m-3.46-3.17c.285.035.017.126-.047.18-.079-.086-.189-.079-.365-.089.165-.005.365-.098.412-.092m7.752 1.578c.046-.124.06-.253.108-.359.067.05-.06.264.09.126q-.03.128-.073.252c-.023-.068-.08-.01-.125-.02m-8.314-6.56c-.044.21.004.248.126.407-.057.054-.252-.133-.31-.288q.09-.061.184-.119M7.846 2.4c-.006.046-.079.11-.171.182-.132.102-.287.228-.387.309l.03-.085a2.3 2.3 0 0 1 .528-.406m5.111 12.133c-.06.113.22.04-.12.13-.225.053-.275.061-.482.11.049-.126.438-.273-.124-.145-.007.001.023.061-.07.074q-.016 0-.057-.006a1 1 0 0 0-.21-.006c-.046.005-.377.058.07-.039-.03-.071-.024-.152-.042-.223a.3.3 0 0 1 .112-.019c.132.002.263.061.4.019.263-.084.335-.277.455-.11-.197.133-.588.243-.666.138a.5.5 0 0 0-.158.064c-.052.039-.048.078.019.093a.4.4 0 0 0 .067.008c.74-.264.257.102.886-.209-.003-.028.012-.067-.002-.089.232.007-.055.17-.078.21m-1.657.193q.188-.115.365-.24c.018.093-.037.193-.24.28zm1.022-7.235c-.034.043-.097.073-.148.109-.023-.06-.955-.353-.464-.266.072.011.469.22.612.157M5.458 4.005a4 4 0 0 0-.15.308 4 4 0 0 1 .021-.516q.061.108.129.208M7.73 12.89c.043.028-.14 0 .04.095a3 3 0 0 1-.357-.111l-.09-.038a3 3 0 0 1-.041-.165l-.123-.022.144-.068a.37.37 0 0 0 .18.193c.073.035.15.05.247.116m5.894-1.587c.112-.035.13.326.19-.019.062.073.09.189.047.402l-.104.078c.067.025.08.085.082.223-.117.293-.161.29-.265.293h-.037l.014-.015c.218-.256.119-.327.124-.549 0-.156.047-.347-.05-.413m-.327-3.466c-.238-.003-.084.145-.408-.079l.094-.038q.158.053.314.117m.543 2.273c-.132.1-.19.331.077.31-.013-.247-.12-.084-.077-.31m-7.656.04a.7.7 0 0 1 .192.027c-.043.162-.157.12-.233.006l.233.233-.032.02-.076-.1-.209.045zm1.072-2.527c.32.007-.269-.187-.049-.172.171.013.33.199.227.239a4 4 0 0 1-.178-.067m1.676.48c-.017-.134.044-.08-.193-.118-.068-.01-.579-.2-.387-.039.187.052.385.106.58.157m-3.224 4.875c-.042.042-.384-.227-.384-.294-.009-.163.237.193.228-.025.15.397.428.327.166.51-.17-.182-.042-.132-.01-.191m7.13-9.459c-.01-.025-.095-.269-.057-.263.166.256.086.235.3.437l-.054.077c-.064-.089-.12-.124-.189-.251m-1.51 3.583c.103.01.27.113.382.14-.253.075-.488-.006-.546-.073q-.032-.038.014-.059a.35.35 0 0 1 .15-.008m1.367-5.559h-.001M15 12.472a.1.1 0 0 1 .044-.002l.003.002zm-8.696 1.095c.083.172-.438-.113-.538-.284.035-.014.06-.034.11-.038.033.176.415.3.428.322m5.89-.279c-.449.143.032-.325.135-.118.002.005-.123.114-.135.118m-7.377-2.781c-.095-.112-.113.123-.107-.253l.07-.065q.015.159.037.318m4.398 2.565-.326-.038c-.402-.048-.712-.09-.5.214l.136.023c.038-.094.132-.032.294.026q.054.02.118.037c.044-.039.175-.021.208-.057.061-.07-.07-.154.07-.205M9.782.751l-.026.063q-.136.04-.27.085l.036-.123q.129-.016.26-.025m.982 14.289c.036-.235-.137-.173-.512-.055q.255.036.512.055m.666-6.074.018-.198c-.21.012-.19.096-.124.203zm-2.787-.612c.077.034.05-.028.057-.025.196.08.219.11.478.133l.1-.019c-.082-.161-.183-.108-.406-.248l.097.17-.397-.133-.06.029c.044.03.088.064.131.093m2.2-7.503q.2.03.399.07l.03-.097a7 7 0 0 0-.43.027m2.596 13.405.01-.046q.01.02-.01.046m-.587-10.338c.044.142.132.336.17.495.083-.036-.072-.429-.101-.581-.025-.015-.087.026-.069.086m-6.436 6.62q.067.052.137.1.009.132.028.265l.104-.013c-.11-.369.01-.3.092-.489q-.182.064-.361.138m8.178-7.713c-.175-.263-.278-.32-.27-.122q.115.115.222.243zm.84 6.814c-.118-.213-.015-.281-.167-.45l-.026-.027.012.038q.06.176.093.356zm-8.796 4.93c.08.1.365-.006.588.272.09-.018.152-.045.229-.069.015.064.036.13.052.193.28.078.124-.048.15-.1.01-.02.196.082.15.012-.081-.114-.488-.215-.446-.318.12.09.397.156.342.06-.058-.103-.351-.073-.478-.204.151.258-.29 0-.274-.149-.305-.05-.093.123.187.247-.212.013.06.08.069.175-.205-.02-.78-.392-.569-.118m4.872-1.548-.044.009c-.187.034-.449.024-.56.114-.072.057.233.065.033.165.188-.027.226-.066.185-.13q.063-.02.124-.042l.065.031.052-.095.136-.007c.003-.015.01-.029.01-.045M9.273 6.5l.158.037-.007-.055-.005-.043c.013.037.123.112.23.148a.3.3 0 0 0 .141.013c.06-.015-.046-.13.189-.1a8 8 0 0 0-.306-.046l-.175-.029.06-.07v-.001l-.151-.056zm2.269 2.636c.187.002.254-.002.201-.113a6 6 0 0 0-.23.048zm3.386 4.314c.016-.528-.441.3-.25.249.01 0 .198-.24.25-.25M6.11 10.048l.265-.007.137-.003.004.144.002.062.101-.062-.006-.25-.238.006-.012-.02zm7.723-8.397a.44.44 0 0 0-.1-.17c-.09-.111-.245-.21-.369-.212q.095.083.185.17a5 5 0 0 0-.408-.226c-.072.106.122.127.318.313.016.015.056.1.107.173.046.063.102.118.171.104.032-.007-.176-.2.021-.13a2 2 0 0 0-.104-.09l-.078-.064.04-.083a4 4 0 0 1 .216.215m-3.416 11.496q-.063 0-.109.002c-.161.009-.192.054-.242.127a6 6 0 0 0 .37-.026zM11.488.544c-.153-.043-.1.041-.163.044-.242.013-.394-.058-.63-.046l.049-.037h-.001c-1.1-.118-.523.057.128.09l.036.086c.293-.016.569-.008.58-.137m.167 14.583c.016.014-.071.14.119.053.126-.185-.115-.058-.19-.107l.152-.073c-.322.014-.364.053-.23.15.01.006.134-.037.15-.023m2.076-.598c-.07-.222-.389.054-.349.111.054-.021.078-.076.14-.088s.103.03.208-.023M4.342 10.61c0 .012-.088.143-.013.124.166-.164.042-.455-.02-.403.006.1.036.167.033.28M15.01 3.215a1.2 1.2 0 0 0-.086-.247l.006.011c-.022-.048-.046-.087-.062-.093-.052-.013-.099-.008-.148-.01.034.04.068.096.1.154.078.129.143.272.19.184m12.629 9.022c-.009-.123.171.097.111-.124l.108.05-.07.136zm-.445.444c.126-.082.267-.018.222-.221l-.122.09-.061-.195-.083.006.099-.247.03.072a.5.5 0 0 1 .293.105l.012-.067.083.196-.192-.022c-.02.154.136.184.21.208l.036.014.727.64-.86.311c-.057.035-.066-.008-.123.039-.01.008.006.055-.018.066-.122.052-.374.105-.269-.05.138-.036.244-.117.357-.182l.649-.234-.549-.482a.6.6 0 0 1-.145-.117c-.044.136-.151.11-.296.07m-3.111 1.195c.081-.046.205.01.288.07.018.014.048.108-.017.092-.108-.027-.13-.172-.206-.095zm-.231-.057c-.055-.052.006-.14.076-.09.03.02-.058.08.084.035.007.068.016.13.026.197l-.09-.02c.049-.096-.042-.07-.096-.122m3.24-.105c.02.093.06.08.151.119q-.102.03-.204.054l.054-.173m-.158-1.695-.075-.003.034-.101-.227-.06c.07-.075.16.018.261.006q.092.133.017.24zm-3.443-9.41.03-.109q-.053.006-.108.01c-.02.128-.064.079-.139.101a.1.1 0 0 0-.038.017c-.299.198-.104.305-.53.255.222-.139.064-.19.148-.366.068.05.03.281.138.256q.098-.152.219-.29.072-.085.17-.167l-.034-.028-.08.068.052-.146c-.008.094.082 0 .107.093.01.04-.011.115-.02.164q.119-.022.237-.039l-.067.139zm4.417 9.744c.131-.02.27.071.27.21zm-1.004-.19.007-.058.164.013-.069.128zm-1.458 1.73a.2.2 0 0 1 .055.002l.028.005c.018.002.169.027.154.064a4 4 0 0 1-.232.003zm.875-.041c.028.002.056.008.084.006-.091.074-.123-.027-.21.015s-.14.104-.23-.03c.026-.024.054-.057.08-.085.133.042.163-.016.254-.087zM22.033 3.304c.033.066-.036.038-.038.04-.103.206-.01-.05-.16.1l.023-.106c.058-.013.12-.023.175-.034m-1.39 6.525-.058.02c-.023-.117-.108-.13-.058-.244q.057.113.117.224m4.2 3.881c.138-.024.234-.034.359.034.007.004-.03.046-.021.057l.081-.02.008.102a6 6 0 0 1-.229-.041l.03.062q-.099.009-.2.015.044-.081.084-.162zm-4.209-5.857c-.022.02-.06-.018-.08.014l-.003.008c-.01.033.022.082-.036.07l-.015-.07-.012-.064a.3.3 0 0 0-.039.064c-.05.12.01.224-.11.229a.6.6 0 0 0 .013-.229 1 1 0 0 0-.034-.162c.111.008.206.141.312.06zm5.053 2.715c.057-.053.14-.218.253-.25a1 1 0 0 1 .258.084c.069.062.014.145.128.104q-.033.041-.064.083l.152.107.063-.116.05.036c-.1.117.02.1.023.208l.23-.095c-.032.03-.067.065-.096.09.077.072.116-.012.14-.01.14.006-.188.302-.096.429l.179-.13.002.083c-.186.055-.333.168-.506.269l-.024.047.117.082-.038.07c-.068-.16-.136-.079-.29-.045.002-.087.082-.128 0-.19-.065.16-.215.274-.326.409l-.033.042.04.029c.056.043.116.08.184.1.057.018.14-.085.235.007-.012.008-.03.028-.044.041.218.093.35.15.495.348l.057-.137-.162-.038c.022-.083.083-.078-.035-.171-.097-.076-.06-.004-.102-.006-.055-.004-.047-.077-.107-.08-.047-.002-.055.074-.122 0l.253-.125.02.09-.098.007.274.065c-.098.076.001.097.049.117.074.03-.03.055.019.075.048.02.149-.018.208.055-.072.011-.05.09-.091.121s-.124-.02-.085.08c.165.079.132-.19.245-.139.137.062-.029.325-.104.35-.059.019-.144-.062-.203-.043.105.204.222.06.273.054.184-.022-.104.2.096.196l-.124.142c.028.007.052.005.083.018.006-.16.063-.107.095-.082.049.039.012-.07.035-.073.062-.006.105.054.106-.017l-.001.099a.4.4 0 0 0 .181-.035l.223.196-.264.095c-.008.069 0 .127.046.11l.447-.162-.378-.332a.1.1 0 0 0-.034-.018c.033-.031.054-.035.069-.025l.45.395-.532.192c-.021.011-.054.005-.08.006-.046.001-.022.062-.063.064-.161.01-.104-.13-.114-.22-.164.123.034.098-.227.227-.007.076.147.107.05.18-.057-.11-.162-.17-.324-.17l-.024.095c-.113-.09-.093-.215-.218-.044.03-.272.005-.095-.15-.174-.03-.016.022-.08-.02-.1-.02-.01-.054.038-.1.013-.024-.011-.131-.097-.19-.042.065.119-.053.24.072.33-.213 0-.352.069-.135-.122l-.164-.1-.103.095c-.01-.103-.006-.131-.144-.11q.09-.038.177-.08c0-.02.008-.043.005-.063-.05.031-.17.053-.253.07a.3.3 0 0 0-.074.02c-.051.028.047.036.032.063-.126.219-.115.056-.204.09-.054.02.07.05.043.058-.107.031-.15-.088-.24-.096l.084.207c-.1-.01-.21-.02-.305-.01-.037.005-.015.057-.021.06a.7.7 0 0 1-.17.022c-.098-.015-.09-.083-.182-.104q.056.003.11.003l.1-.321a4 4 0 0 1-.249-.07q.082.073.166.144a4 4 0 0 1-.358.202 4 4 0 0 1-.116-.201c-.142-.027-.184.193-.19-.015l-.14.004.047-.073-.164-.008c.013.113.028.23.05.34-.111-.018-.082-.098-.09-.123-.019-.067-.127-.031-.137-.093-.003-.02.115-.03.107-.102-.004-.015-.028-.281-.124-.27-.017.039-.035.088-.052.131-.038-.01-.058-.04-.066-.078a.32.32 0 0 1 .051-.222c-.072.01-.148-.032-.194.02l-.08-.045c.115-.123-.003-.164-.09-.052q.061.049.126.095c-.126.126-.048.306-.245-.02-.002-.111.089.076.083-.01-.053-.084-.142-.107-.172-.21-.035-.127.113-.103-.139-.18.273.536-.175.096-.416-.046.122-.23.034-.426-.202-.613-.036.066.05.118.067.174s-.052.037-.033.11c.02.074.087.213.103.298-.071-.014-.343-.18-.126-.104-.049-.157-.038-.253-.136-.402-.087.016-.139.044-.203 0a.3.3 0 0 1-.074-.08c.182 0 .156-.222.31-.272.036.118-.125.149-.144.248q.001.006.02.023c.03.026.08.065.09.081.023-.103.041-.165.086-.207a.2.2 0 0 1 .037-.026.4.4 0 0 1 .108-.038l-.022-.023c-.039-.044-.054-.076-.112-.044l.056-.096c-.014-.02-.03-.037-.043-.06-.077.095-.056-.003-.127-.018-.072-.016-.114.092-.189-.03q.002.08.008.158a5 5 0 0 1-.222-.198c-.03.092-.044.274-.125.32.006-.058-.126-.163-.137-.178-.04-.054.029-.05.027-.055-.025-.105-.082-.173-.02-.248-.07-.051-.075-.115-.11-.188-.02-.041-.076-.007-.076-.036.008-.197.148-.068-.125-.328q-.043.082-.084.166l-.09-.092-.004-.083.28-.098-.013-.084.075.124.053-.006.009-.222-.1.029c-.002-.165.026-.174-.106-.292l-.006-.02c-.041-.098-.188-.151-.258-.201l.04-.084-.093-.028.097-.115c-.092.001-.122-.002-.127.123-.12-.017-.114-.24-.09-.332.016-.07.12-.014.13-.024.034-.033-.016-.134-.013-.157.012-.099-.002-.164.008-.252.002-.017.055-.07.057-.074.006-.032.027-.11.027-.118.007-.444-.214.05-.214-.37l-.1.043-.01-.096c.026-.042.08.005.035-.074l.125.011-.07-.1c.098-.042.143-.148.217-.206a.17.17 0 0 1 .129-.038c.02.001.04.02.06.038.039.037.079.078.119.03q.005-.025-.008-.03c-.017-.009-.05.005-.053-.012-.024-.173.074-.16.05-.23l-.125-.04.04-.078-.083-.023-.009.077c-.108-.036-.137-.344-.052-.222.034.05.013.133.144.087a6 6 0 0 1-.037-.257h.083c-.007-.113-.126-.022-.185-.028l.003-.079q.042-.011.083-.024c-.042-.006-.139-.031-.093-.105.03-.047.127.044.124-.052-.067-.002-.152.023-.159-.087.07 0 .135-.006.208-.004-.046-.14.068-.181.02-.346-.03-.104-.17-.276.104-.278.023-.068-.047-.061-.056-.085-.046-.115.096-.156.108-.172l.017-.025c.056-.087.04-.145.117-.213l-.142-.03c.042.097.032.14-.006.235l-.011.028v-.03l.003-.099-.12-.012.006.08c.016.274-.127.196-.143-.038a.6.6 0 0 1 .003-.11l.238-.02c-.053-.214.069-.271.166-.46.012-.022.007-.123.02-.161l-.001.002c-.055-.05-.098-.032-.157-.053l.004-.07c.064-.027.092.005.122-.088l-.146-.023c.044-.1.121-.141.147-.24l.025.069c.14-.172.308.111.261-.095l.079.01q-.04.089-.076.178l.091.05q.032-.097.068-.193l-.01.163q.077-.091.156-.179c-.15.008-.11-.093-.23-.139.165-.071.334-.085.386-.31.01-.045-.074-.08.085-.112-.13-.061-.085-.225-.2-.294q-.038.06-.07.119c.067-.012.171.06.158.14a.2.2 0 0 1-.048.094c-.04.051-.075.095.003.144q-.038.039-.072.078l-.064-.094c-.01.115-.058.159-.159.155q.07-.173.152-.342l-.046.035c-.015-.1-.093-.104-.088-.172a.2.2 0 0 1 .033-.086l.097.077c-.05-.12.068-.264-.068-.298.067-.02.092-.012.061-.08.172-.054.324-.034.396.1q.027-.08.057-.16-.075-.01-.15-.017.1-.1.207-.193c.085.08-.105.15.007.188.022.007.026-.059.043-.06.186.003-.03.08.066.123.165-.11.156.116.267-.16q.041.031.08.065c.072-.055.02-.11.073-.17.035-.037.163.037.155-.07 0-.019-.174-.101-.004-.207.134-.078.141.055.232.048.058-.004.113-.103.184-.134.038-.017.08-.015.125.034a.5.5 0 0 0-.1.01l-.053.007.003.12a.3.3 0 0 1 .08-.068c.06-.038.12-.062.138-.134.18.056.276-.11.184-.23-.037.037.035.076-.041.064l-.06-.086c.11-.042.184-.069.172.047l.052-.011-.068-.216q.026-.024.054-.046.043.01.086.024c.005.124-.044.142.147.153l-.033-.119c.162.009.19.104.37.06-.107.169-.243-.056-.17.222l-.115-.027.02.124c.159-.074.421-.404.576-.24l.037-.07c.135.093.166-.157.305-.025.014.014.003.244.16.229-.005-.03-.01-.08-.014-.118l.106.053.017-.084-.181-.026.15-.034c-.068-.043-.098-.042-.06-.117q.087-.01.175-.016l.018-.056-.089-.166q.05.014.098.024c.117.027.222.05.31.14.02.02-.055.088.085.031l.001.105c.172-.094.229-.056.386.045-.1-.088-.008-.027.026-.061.023-.024-.053-.031-.04-.057.011-.027.13-.122.045-.149-.242.199-.269-.081-.553.014q.065-.042.132-.082l-.056-.063c.153.055.079.021.146-.01a.8.8 0 0 1 .27-.046c.026 0-.007.047.049.06.037.008.155-.05.163.043.004.06-.182.19.038.23.03.065-.07.027-.074.034-.03.063.09.138.161.1.006-.003-.03-.065.027-.074.136-.02.196.06.25.162.035-.09.176-.17.295-.089l.048-.07-.076.018c-.016-.024-.036-.044-.051-.071.14.023.207-.093.292-.112.294-.058.013.207-.046.248l-.054-.106-.028.098c.316.131-.036.22.09.345.088-.112.19-.102.27.004q.023.03.045.072l.046.024c.014-.02.032-.052.044-.064.18.072.07.308.07.337.004.13.134.04.154.052.08.05.063.12.15.151.094.035.074-.045.126-.062.041-.013.106.032.155.026l-.09.043c.051.098.084.182.158.268.251-.065.051.276.245.035a.37.37 0 0 1-.07-.262q.092.067.18.141c-.01.04-.023.073-.031.115.09-.007.152.113.2.14.146.082.22.061.244.116.013.03.011.082-.005.185a.3.3 0 0 0-.132-.087.23.23 0 0 1-.135-.104c-.035.07.021.122-.076.133.04.04.07.052.095.053.042 0 .075-.028.13-.023.076.008.135.091.195.045l-.088.092q.08.12.152.247l-.173-.04.004.103c.239.135.18.606.462.41.056.102.022.132-.014.214.027-.004.049-.005.078-.01.002.079.113.098.112.17-.002.07-.083.115.065.074-.027.055-.049.107-.075.16l.122.041-.019.131c.038 0 .06.04.08.087s.039.101.071.13c-.06.083-.301.138-.225.274l.177-.05-.015.11-.058.019.008-.056-.09.065q.09.063.178.128.037-.118.07-.238c.063.081.031.154.095.224-.07.084-.124.066-.22.056l.037.07c-.094 0-.14.051-.159-.094q-.034.023-.071.044c.008.022-.011.041.003.065.04.065.208.094.263.08.03-.007-.038-.069.003-.073.102-.01.085.164.146-.093.078.069.033.096.028.187l.098-.036-.029.13c-.18-.03-.207.272-.394.03q.005.116.005.233l-.059-.041.015-.107q-.04.068-.083.133c.052.09.117.122.199.16.045-.12-.028-.075-.053-.161.05-.002.094-.012.146-.01-.096.058-.008.2 0 .235.022.105-.083.029-.08.1.002.07.066.151-.03.213.055-.004.112-.01.162-.017.023.111-.044.091-.052.103a.28.28 0 0 0-.061.22c.011.078.048.159.052.272l.051-.08c.113.163.081.056.122-.084-.013.13.084.21.11.305.025.096-.039.254-.084.308-.053-.138-.001-.278-.014-.427-.057.014-.105.029-.168.043.115.094.032.142.015.17-.052.081.05.087-.063.13l.104.002c-.03.177-.118.355.003.49l-.272-.009c.057.083-.022.134-.017.197s.081.053.096.13c.002.015-.048.034-.022.073s.247.217.029.184c-.015.061-.037.118-.056.177l.006-.184-.19.11.134.054c.022.148-.08.225-.102.362-.004.024.102-.002.049.09a.2.2 0 0 1-.078.07c-.075.048-.165.092-.164.221 0 .009.107.108-.004.13-.024.005-.03-.062-.069-.042-.037.02-.115.14-.18.123.022.008.048.01.071.016v.08l-.115-.046c.028.163.133.305-.018.463q.123-.03.245-.07l-.088-.103q.09-.12.175-.245l-.112-.102.048-.063.087.059q.019-.077.035-.154c.152.175-.13.264.031.32q-.051.017-.102.031c.07.045.028.08-.022.15h.136c-.088.051-.153.185-.215.25-.028.027-.061-.035-.073-.03-.06.031-.027.179-.047.195-.117.092-.327.048-.308.243.116-.104.056-.045.147-.048.029 0 .183-.14.021.056-.017.029-.407.295-.395.112-.02.076-.026.143-.044.216-.312-.07-.085.067.053.13l-.054.06c-.034-.072-.102-.057-.165-.012h.011a.35.35 0 0 0-.209-.113c-.042-.002.002.095-.073.064-.023-.031-.047-.068-.07-.102-.015.11-.125.069-.185.145-.001-.112.07-.289.163-.342l-.214-.016.021.105c-.112-.168-.392-.215-.297-.399l-.062-.045-.083.066-.215-.286c.094.048.144.025.203.123l-.023-.17c-.193-.019-.254.022-.426-.156a2 2 0 0 1-.095-.204c.002-.049.072-.066.075-.09.007-.067-.075-.313-.058-.327.205-.171.779.284.942.397q.544.379 1.06.783l-.978.055a4.6 4.6 0 0 0 1.025-1.632 6.1 6.1 0 0 0 .376-2.244c0-.019-.04-.01-.041-.018-.01-.05.049-.102.05-.12.004-.041-.05-.017-.052-.046-.01-.3-.005-.588-.063-.885-.004-.02.044-.007.03-.04-.007-.017-.084-.06-.092-.1-.03-.136-.033-.255-.069-.4l-.036-.149-.035-.134c-.012-.037-.053-.067-.066-.103-.017-.05.046-.06.047-.07.005-.04-.062-.022-.072-.056-.018-.062.025-.08-.008-.156-.023-.055-.107-.165-.146-.227-.02-.179-.139-.364-.235-.49-.056-.075-.006-.116-.027-.15-.052-.08-.13-.123-.199-.174a.4.4 0 0 1-.077-.072c-.1-.125-.152-.268-.26-.382-.018-.019-.055.028-.074.012-.069-.06-.162-.128-.22-.186-.063-.064-.038-.153-.122-.192-.024-.012-.074.045-.116.029-.065-.027-.093-.124-.132-.157-.053-.043-.042.053-.115-.002-.003-.002.012-.057-.006-.064-.042-.017-.061.005-.102-.006l-.01-.006a.1.1 0 0 1-.038-.017c-.005-.004-.075-.098-.085-.103-.055-.028-.165-.094-.204-.096-.14-.01-.066.105-.116-.103l-.185.08c.045-.029-.08-.123-.092-.12-.09.009-.056.088-.159.054.174-.13-.134-.049-.196-.051-.23-.019-.446-.051-.679-.062a3 3 0 0 0-.236 0c-.107.005-.245.051-.353.064-.025.003-.011-.037-.034-.035-.022.003.008.042-.017.043-.157.007-.3-.047-.412.086-.01-.012-.013-.024-.028-.036-.088.115-.33.07-.415.088-.13.027-.134.098-.222.129l-.07.018-.01.006c-.119.026-.248.044-.104.147a1.2 1.2 0 0 1-.224.13c-.01.004-.032-.04-.036-.04-.025.009-.006.05-.018.062-.034.03-.005-.056-.049-.006-.023.027-.016.07-.089.128-.236.19-.458.417-.648.676-.17.233-.32.483-.44.74-.019.039.037.033.013.08-.085.16-.273.446-.305.607-.013.061-.01.096 0 .122.015.047.046.065.048.131 0 .02-.035-.005-.04.012-.033.116-.125.245-.153.34-.019.064.045.07.041.115-.005.067-.08.125-.087.161-.034.167.004.289-.037.443q.022-.007.042-.011a7 7 0 0 0-.034.558l.039-.026a.5.5 0 0 1-.014.094c-.029.116-.08.097.161.079l.033.046c-.151-.004-.26.13-.289.304-.002.013.15.086-.024.09l.113.044q-.074.06-.147.122l.03.057c.033 0 .068-.007.102-.004.014.089-.004.277.012.348.038.175.163.331.096.487.025.063.075-.017.09.082l-.091.057c.129.033.107.063.09.13a.2.2 0 0 0-.012.063c0 .076.05.112.064.18.003.018-.04.029-.035.04.017.038.113.127.124.152.105.235.189.435.291.655.011.024.033-.027.045-.002.018.039-.053.05-.044.073.028.066.09.03.143.111l.167.258c.122.192.26.39.42.547.008.007.036-.024.044-.017.053.047.07.137.122.178.085.07.185.072.272.133.118.083.225.167.346.244l-.01-.006q.074.049.16.088c.154.07.296.116.48.167.355.096.745.113 1.139.09.483-.028.941-.136 1.404-.265.021-.006.026.031.032.028.054-.038.04-.086.1.002a.2.2 0 0 0 .052-.06l-.176 1.257c-.052-.005-.102-.005-.159-.054-.046-.04.066-.107-.055-.123-.108-.014-.069.102-.244-.124-.005-.007.013-.087-.044-.108-.058-.021-.038.062-.158-.013-.28-.176-.566-.486-.877-.709l-.003-.002-.65-.463.54-.702c.023-.033.135-.219.15-.263.03-.09-.023-.112.042-.207.05-.074.145-.089.203-.176.007-.01-.028-.067.03-.12M23.812 2.34c0-.066-.036-.3.127-.278.015.003-.007.176.075.177-.068.038-.136.066-.202.102m3.36 8.762-.217.2.068-.208zM20.566 9.19a8 8 0 0 1-.134-.309l.07.026q.067.12.138.237zm.403.77c-.007.072-.054.068-.084.116-.008.013-.005.06 0 .077l.071-.044c.107.127-.013.508-.234.143l.105-.014a.5.5 0 0 1-.031-.259c.016-.065.061-.092.144-.04zm4.444-7.994.089-.056c.113-.063.186-.066.356.006q-.049.045-.095.092l-.102-.102-.023.103a6 6 0 0 0-.225-.043m.292 11.686c.058.224.04.094-.1.149-.048.019 0 .058-.03.065a.2.2 0 0 1-.073.004c-.095-.018-.096-.134-.066-.2l.066-.003zm.51-1.908c.044.033.016.089.1.07l-.104.12.02-.046-.07-.006c.035.056-.004.045-.056.073l.184.099-.11.068-.053-.565.04.06-.03.042.098-.007-.024.06.098.018c-.024.045-.087.021.01.083l-.178.053-.156-.13.022.237zm-1.758 1.89c.2.025.14.05.074.154zM21.073 5.3a4 4 0 0 1-.15-.244c.005-.128.181-.182.197-.079.019.123-.09.198-.047.323m1.448-2.189c-.134.065-.09-.092-.095-.155.086.04.125 0 .204-.047-.066.055-.088.192-.11.202m-1.96 4.393c0 .057.02.114-.007.164-.073-.017-.003-.118-.114-.048l-.002-.11c.044.025.079-.005.124-.006m2.063 5.416c-.04-.14-.078-.122-.207-.151.033-.064.214-.068.296-.04zm6.892-1.28c-.059-.073.036-.248.108-.322l.017.051q-.058.137-.125.27M28.16 3.247c-.087.042 0 .142-.106.022-.071-.078-.087-.096-.164-.155.088-.073.281.008.059-.165-.003-.002-.032.056-.065.025-.01-.01-.02-.078-.07-.126-.016-.015-.151-.112.044 0 .033-.069.084-.129.121-.192.091.03.07.193.15.243.12.074.27 0 .172.173-.123-.034-.288-.142-.247-.257-.098-.063-.175.004-.124.093.358.163.01.172.324.308.02-.02.05-.034.064-.056.02.14-.128.071-.158.087m-.568-.6.132-.029a2 2 0 0 1 .131-.029.25.25 0 0 1-.19.133.2.2 0 0 1-.048.003zm2.716 4.694c.052.007.101.03.151.046-.038.024-.067.512-.116.266-.006-.035.075-.26-.035-.312m-6.957 5.94a3 3 0 0 1-.113-.176l.057.016q.109.03.215.048a4 4 0 0 1-.16.113m-1.808-8.79c-.013.02-.036-.085-.073.004-.005-.084-.004-.162-.003-.245l.119-.002q-.015-.037-.028-.076l.108.102c-.151.044-.063.13-.123.217m-.621 3.311c-.107.02-.168-.148-.187.016-.07-.031-.106-.083-.11-.18l.082-.045c-.071-.004-.097-.03-.145-.088.002-.15.027-.14.146-.167-.076.152.031.163.09.27.042.073.02.166.124.194m9.334-.973c.102.098.174-.01.102.197l-.072-.03zM20.57 8.35c.163-.023.286-.13.018-.137-.05.105.1.047-.018.137m2.077-5.01c-.147.116-.247-.04-.245-.167l.095.052.05-.102zm-.907 8.227c-.18-.06.036.172-.084.125-.096-.038-.057-.197.029-.201zm-.446-.737c-.104.074-.086.027-.015.126.02.028.102.29.142.142a5 5 0 0 1-.127-.268m3.282-8.59c.01.052-.167.208-.197.186-.088-.064.122-.122.006-.212.227.054.252-.187.286.125-.117.033-.072-.04-.095-.1m2.796 9.074c.009.01.046.143.018.156-.09-.103-.038-.129-.19-.14q.019-.037.036-.077c.05.018.092.01.136.061m2.843-3.451c-.014-.05.044-.14.039-.197.095.071.115.153.102.208-.02.078-.102.104-.137 0zm-.882-3.733a.1.1 0 0 1-.027.031l-.002.002q.015-.015.028-.033m-4.33-1.962c.09.068-.179.214-.27.2.001-.035-.003-.066.007-.108.084.078.245-.104.262-.092M20.8 6.549c.04-.22.286.117.049.09a.5.5 0 0 1-.05-.09m2.49-3.85c-.007.107.105.072-.062.148l-.063-.045q.061-.053.125-.103m-1.734 2.575c.05-.263.094-.539-.213-.486l-.006.069c.11.055.016.097-.033.202.038.034.024.096.059.123.065.05.143.006.193.092m4.749 8.033-.003.064-.12.09.003-.122zm.93-10.545c.114-.2.01-.203-.195-.152q.1.074.194.152M21.171 9.54l-.188.06c.088.078.157.042.23-.02zm.45 1.248c-.005-.04-.044 0-.045-.004-.016-.1 0-.12-.082-.214l-.057-.024c-.105.104-.02.112-.045.254l.103-.116q.026.095.055.19l.05.002zm5.188 2.465q.096-.02.191-.042l-.025-.098q-.081.07-.166.14m1.583-9.89.035-.018a.06.06 0 0 1-.035.018m-1.042 7.698c-.042-.065-.135-.119-.195-.173-.047.07.127.18.151.265.019-.005.062-.065.044-.092M22.448 3.51q.023.065.05.128l-.1.083.072.074c.097-.165.14-.064.271-.053a13 13 0 0 0-.293-.232m3.643 8.8c.126.07.193.067.194-.064l-.162-.038zm3.61-6.772c.074.1-.059.142.048.23q.012-.1.02-.2zM25.415 2.8c.02.021.048-.013.086-.042.046-.036.107-.064.177.032.032-.05.054-.097.084-.146l.04.165c.117-.01.047-.083.053-.14.003-.024.088.022.065-.031-.042-.094-.229-.052-.225-.16.064.038.192.016.16-.058-.039-.082-.166.045-.242-.022.086.142-.044.13-.112.052a.15.15 0 0 1-.034-.066c-.101.078-.053.12.034.134q.043.006.092.005c-.083.101.039.048.056.133-.032.018-.092.023-.148.03-.092.013-.17.03-.087.114m-4.13 3.552c.012-.091.1-.216.033-.297-.04-.048-.113.083-.165-.033-.014.09.012.118.082.118l.01.066-.046.02.076.049-.03.06q.018.009.04.017m8.726 2.522.006-.077-.052.003-.041.002c.05-.008.144-.123.097-.18-.023-.028-.12.021-.127-.089-.002.08.003.154.002.231l-.08-.03-.028.074zm-8.725.567c-.07-.073-.104-.097-.181-.04v.001q.066.037.133.072zM28.703 4.1c.375-.062-.046-.26-.081-.122-.002.005.1.086.08.122m-5.963-.702-.11.105.107.068q0-.086.003-.173m3.742 9.417c-.014.106.076.22.192.185l-.063-.095.182.101c.082-.096-.026-.089-.098-.19-.011-.017-.006-.214-.112-.147-.022.014.067.106-.046.107.027.028.053.048.08.073l-.05.076zm-5.08-6.98c.041-.117-.002-.146-.08-.198q-.012.089-.02.178zm5.546 6.962c-.067.007-.017.067-.038.088-.081.082-.163.052-.251.11l.008-.045c-.473.05-.197.16.077.058l.042.073c.113-.082.21-.165.162-.284m.55-9.686c-.003.018-.094.09.005.087.136-.104 0-.09.004-.157l.084-.005a.4.4 0 0 0-.064-.055c-.058-.037-.08 0-.088.095 0 .004.012.008.025.012.02.008.037.014.035.023m.694.577c.169-.16-.036-.199-.076-.137.017.017.056-.001.064.029s-.022.075.012.108m-4.636-.581c.005-.002.095.06.054-.005q-.053-.048-.091-.048c-.078-.002-.099.098-.061.13.033-.022.046-.057.086-.072zm2.22 9.215c-.002.007.082.124.119.107.037-.023.07-.053.105-.08-.084-.016-.186-.136-.224-.027m3.74.187c-.13.008.123-.182-.115-.12l.065-.114.134.074zm.398.49c-.061-.143.032-.301-.197-.246l.074.135-.171.052-.345.318.383.328.025.055.097.006-.079.262-.047-.085a.6.6 0 0 1-.152-.04l-.607-.52.546-.502c.03-.059.07-.114.122-.18l-.07-.014a6 6 0 0 0 .221-.091c-.016.07-.036.147-.054.212.163.021.222-.158.255-.243.047-.116.079-.055.113-.141.005-.014-.033-.046-.017-.068.083-.112.258-.322.262-.124-.146.182-.199.399-.379.553.142.04.096.165.02.332m1.388-4.128c.056.078.01.221-.05.31v.001c-.013.02-.106.054-.092-.014.024-.111.166-.148.082-.22zm.018-.25c.039-.068.138-.028.102.06-.015.036-.088-.045-.02.096l-.191.06.007-.095c.102.033.063-.054.102-.122m-1.027 3.361c-.073-.062-.098-.023-.195.002l.128-.174zm-.204 2.076.09.015-.026.108.28.099c-.073.074-.194-.043-.311-.043-.089-.11-.104-.198-.057-.272zM20.976 2.791l.002.124c.037-.02.07-.043.109-.062-.017-.162.069-.094.161-.195.29-.302.092-.384.565-.396-.248.175-.074.208-.142.399-.08-.034-.057-.285-.174-.233-.108.202-.2.396-.315.599l.043.013.056-.096q-.002.079 0 .158c-.027-.092-.079.032-.137-.043-.026-.034-.03-.115-.036-.168q-.114.076-.226.16l.017-.172zm8.301 11.059a.38.38 0 0 1-.242-.092l-.234-.203-.309.163a.24.24 0 0 1-.193.023l.154-.089.359-.19.27.236q.098.075.195.152m.826.052v.064l-.196-.038.062-.134zm1.026-3.539c-.01.04-.012.043-.034.089-.008.018-.09.168-.119.137q.043-.119.082-.242.035.009.071.016m-.378.898c-.018.025-.04.046-.056.072-.003-.124.098-.095.114-.2.015-.104-.015-.182.15-.208.008.038.022.082.032.123-.11.111-.078.168-.078.299zm-8.126-9.376c-.009-.076.051-.03.054-.03.189-.17-.01.048.2-.045l-.067.094c-.061-.007-.127-.016-.187-.02m7.282 1.212-.042.046c-.087-.105-.169-.074-.194-.205q.12.075.236.16m1.552 6.618c.003.162-.009.283-.11.412-.006.008-.036-.044-.05-.036l-.002.098-.102-.017q.05-.122.097-.247l-.068.023q.014-.11.023-.223l.147.115zm-3.287-8.177c.013.03-.044.045-.018.079a.1.1 0 0 0 .042.025c.028.01.051.02.024.051l-.154-.043q.038.06.081.093c.097.08.202.095.153.191a.7.7 0 0 0-.189-.116 1 1 0 0 0-.213-.056c.048-.1.23-.125.183-.26q.046.016.09.036zm3.88 14.26c-.07.074-.18.284-.312.344-.032.014-.26-.033-.28-.05-.07-.06 0-.169-.133-.099q.042-.055.081-.11l-.16-.097-.082.148-.053-.032c.125-.157-.011-.114-.004-.241l-.267.155c.038-.04.082-.089.116-.123-.078-.07-.13.036-.158.039-.156.019.244-.392.154-.524l-.215.187.007-.098c.214-.1.391-.262.597-.413l.031-.06-.123-.074.05-.09c.06.175.144.067.322-.003-.012.103-.106.167-.021.225.033-.075.08-.145.132-.213l.024-.033-.03-.022c-.189-.144-.358-.331-.568-.414-.071-.028-.153.076-.28-.04.014-.008.03-.027.045-.04-.272-.134-.437-.216-.64-.457l-.046.144.198.066c-.013.089-.086.075.068.195.126.099.072.013.121.022.066.011.068.092.14.104.055.009.053-.075.144.017l-.28.104-.038-.103.115.006-.334-.11c.104-.073-.017-.11-.077-.14-.092-.044.027-.056-.034-.086-.06-.03-.173 0-.255-.09.084-.002.045-.094.09-.123.043-.028.149.041.087-.076-.208-.112-.126.193-.269.12-.17-.088-.015-.358.07-.375.067-.014.18.089.247.075-.156-.242-.272-.098-.331-.098l-.029-.002-.076-.065.069-.063c.035-.153.195.131.24-.092l.13.136c.015-.034.02-.062.041-.1-.18.006-.105-.066-.071-.105.054-.061-.077-.009-.074-.036.007-.072.081-.127.002-.122l.11-.008c.04-.095-.04-.435-.125-.242-.067-.08.012-.098.056-.129.044-.03-.008-.07.03-.098.145-.113.165.046.216.123.096-.232-.073-.063.091-.369-.04-.066-.19.02-.152-.11.115.049.245.018.38-.125l-.045-.092c.15-.032.229.071.199-.168.177.216.067.076.243-.034.036-.023.045.077.093.043.021-.015.01-.084.064-.121.026-.018.173-.095.167-.199-.142.01-.172-.188-.325-.1.13-.228.14-.426.187-.085q.092-.072.182-.147l-.033-.167q.042.014.07.018c.046.004.069-.025.1-.157l-.013.258c.018.01.035.029.055.033q0-.033.007-.08c.02-.13.068-.322.063-.382-.006-.075-.053.05-.073.023-.16-.222-.01-.16-.013-.285-.003-.072-.071.079-.07.04.004-.139.133-.169.165-.286a6 6 0 0 1-.227.071c.036-.119.07-.254.073-.37.002-.047-.054-.024-.055-.032a1.3 1.3 0 0 1-.004-.204c.022-.116.09-.107.112-.22l-.006.133.317.12q.044-.171.081-.345-.073.12-.15.237a8 8 0 0 0-.208-.43q.095-.088.188-.183c.003-.187-.224-.167-.021-.24l-.039-.166.082.029-.042-.2c-.101.065-.208.126-.308.187-.014-.126.069-.125.09-.143.058-.048-.013-.15.039-.188.018-.013.07.113.135.072.012-.007.233-.161.201-.273l-.005-.013c-.036.002-.08.009-.121.013h-.02c-.023-.143.194-.222.256-.204-.045-.08-.053-.195-.122-.208l-.011-.12c.168.032.127-.137-.016-.137l.002.208c-.178-.043-.267.17-.136-.27.083-.089-.001.148.061.076.03-.12-.012-.227.038-.346.06-.148.16.013.015-.3-.159.746-.169-.077-.32-.383.226-.137.245-.445.059-.804-.054.06.015.168.011.243-.003.075-.063.011-.071.105-.009.093-.009.283-.039.38-.052-.067-.229-.396-.063-.19.023-.19.07-.293.017-.515-.098-.026-.157-.016-.213-.113a1 1 0 0 1-.043-.104c.183.078.204-.193.367-.19.017.165-.154.125-.196.234l.005.015c.018.038.073.13.08.158.085-.18.115-.249.297-.208l-.027-.064c-.022-.06-.037-.099-.095-.088l.073-.096c-.012-.033-.026-.063-.038-.099-.092.088-.057-.031-.132-.08-.074-.048-.125.072-.196-.106l-.006.198a7 7 0 0 0-.217-.306c-.031.107-.063.312-.153.34.015-.063-.112-.209-.123-.225-.039-.067.031-.052.03-.058-.022-.123-.084-.205-.024-.286-.077-.066-.088-.138-.137-.223-.027-.047-.08-.007-.084-.04-.031-.22.144-.099-.206-.356q-.018.098-.04.195l-.114-.084-.028-.087.248-.163-.044-.094.122.13.052-.015a6 6 0 0 0-.082-.265l-.087.055c-.076-.188-.059-.212-.25-.3a.2.2 0 0 0-.05-.046c-.098-.066-.241-.063-.324-.079l-.017-.103-.1.019.007-.163c-.079.05-.104.062-.029.185-.113.042-.251-.163-.303-.258-.038-.072.088-.085.088-.1.002-.051-.118-.11-.135-.133-.072-.094-.138-.14-.21-.22-.013-.015-.024-.097-.027-.102-.025-.03-.086-.108-.094-.115-.44-.34-.083.19-.498-.095l-.014.11-.1-.052c-.027-.047.048-.065-.055-.074q.037-.05.077-.1h-.142c.005-.091-.06-.177-.103-.26-.031-.061-.05-.123-.012-.186.016-.027.08-.032.125-.046.038-.012.065-.03.036-.076-.068-.046-.048.04-.08.03-.223-.076-.174-.157-.274-.17l-.09.1-.088-.073-.053.07.094.041c-.08.082-.457.007-.29-.034.07-.017.17.035.145-.11a7 7 0 0 0-.34-.048q.008-.04.013-.082c-.15-.023-.046.12-.064.176l-.099-.021-.021-.089c-.012.041-.054.132-.142.073-.058-.037.066-.12-.06-.132-.004.067.021.154-.116.148.001-.07-.005-.136-.002-.21-.182.033-.243-.085-.455-.035-.136.031-.32.189-.383-.084-.094-.013-.068.055-.097.068-.134.063-.225-.066-.25-.074C25.648.696 25.58.71 25.5.697a.4.4 0 0 1-.094-.03q.01.074.017.145A1 1 0 0 1 25.5.77c.074-.03.139-.025.262-.01l-.165.027.025.12c.505-.141.372.101-.037.147L25.5.877l-.023-.046c-.24.114-.354.02-.631.017-.033 0-.148.053-.197.06l.002.001c-.024.073.022.1.034.163l-.078.032c-.065-.04-.05-.082-.166-.055l.067.135c-.126.019-.217-.019-.33.025l.049-.064c-.266.003-.116-.311-.286-.134L23.89.948a6 6 0 0 1 .245-.069L24.12.777a7 7 0 0 0-.264.086q.09-.056.183-.11a6 6 0 0 0-.327.021c.141.097.001.147.059.262-.202-.056-.392-.149-.64.035-.049.037.013.106-.18.067.088.115-.071.253.007.365l.143-.08c-.073-.02-.132-.133-.058-.203.095-.09.291-.064.24-.195l.14-.028-.024.117c.11-.092.198-.097.282-.029q-.22.09-.428.196l.07-.005c-.079.123.06.162-.13.254l-.041-.116c-.034.13-.223.212-.112.301-.072-.01-.094-.027-.097.05l-.083-.012c-.15-.025-.263-.085-.272-.219l-.138.153.153.052q-.147.074-.29.156c-.07-.096.166-.138.057-.197-.021-.012-.051.058-.07.055-.21-.025.064-.08-.028-.139-.233.103-.149-.145-.372.164l-.08-.07c-.105.069-.053.126-.13.2-.048.045-.197-.012-.199.107.001.02.195.075-.006.228-.153.121-.166-.02-.275.021-.112.043-.176.33-.357.255.058-.024.119-.067.178-.097l-.017-.13c-.076.134-.22.206-.226.336-.157.038-.232.171-.21.263a.12.12 0 0 0 .084.09l.004-.017c.002-.043-.064-.038.014-.074l.096.045-.062.069c-.063.067-.107.095-.137.004l-.05.05.172.148-.03.08-.093.04c-.071-.103-.033-.165-.224-.014l.099.074c-.153.128-.241.077-.37.29-.02-.24.252-.186.013-.346l.13-.089-.088-.09c-.144.233-.128.74-.366.805.01.03.016.057.028.087-.177.102.013.275-.187.37-.02.011-.217-.12-.3.096.03.007.077.023.114.034q-.055.057-.108.115l.067.056a7 7 0 0 1 .126-.219l-.054.203c.076-.067.092-.103.139-.026l-.072.22.044.041q.096-.023.194-.043c-.09.133-.145.263-.241.367a1 1 0 0 1-.076.07c-.025.019-.069-.09-.056.098-.038-.008-.069-.011-.104-.018.044.24-.004.298-.13.504.103-.128.028-.01.058.035.02.03.038-.068.063-.05.024.017.106.166.143.062-.163-.314.12-.32.113-.678q.018.09.04.178l.077-.054c-.096.17-.042.09-.03.174.014.084.008.227-.004.32-.004.03-.047-.012-.067.052-.013.044.035.181-.058.191-.062.009-.18-.226-.234.053-.067.042-.023-.09-.03-.093-.062-.039-.147.127-.109.217.003.007.067-.047.076.025.021.172-.052.256-.148.353.094.025.191.175.14.343l.08.033-.035-.084c.02-.027.035-.056.059-.082.006.173.138.209.18.292.148.284-.193.098-.25.042q.041-.052.085-.102l-.102.003c-.028.424-.224.05-.3.266.164.066.172.223.066.427v.041l.002.028c.024.004.061.004.077.01.03.244-.221.297-.245.322-.103.11.05.187.053.217.013.13-.05.174-.01.297.043.131.085.035.134.07.039.03.057.133.099.171l-.097-.042c-.025.142-.05.26-.035.419.248.137-.092.353.196.236-.007-.149.014-.236.08-.325q.036.14.077.277c-.028.034-.056.06-.083.098.083.057.088.225.124.284.168.273.26.145.14.467-.075-.186-.17-.16-.207-.359-.058.06-.018.156-.117.112.07.186.127.104.212.159.073.047.114.17.184.141l-.107.071.003.009q.057.173.123.345l-.178-.106-.003.133c.23.244.248.835.513.605.076.127.048.162.031.264.027-.005.05-.007.079-.014.023.097.143.112.165.196s-.043.15.093.079c-.009.069-.01.134-.013.202l.14.023.043.156c.075-.02.169.158.263.195-.006.064-.07.14-.094.22-.02.06-.016.122.058.177l.128-.133q.03.063.063.127l-.04.047-.033-.065-.034.114q.128.027.255.05a5 5 0 0 1-.108-.283c.11.056.133.145.24.18 0 .122-.056.135-.147.174l.088.054c-.08.05-.078.132-.213-.016l-.027.085c.026.02.026.052.059.07.09.05.256-.018.29-.064.017-.024-.09-.047-.059-.075.079-.067.198.11.05-.174.118.024.099.074.168.162l.05-.092.082.136c-.172.084.087.39-.285.275q.113.114.23.222l-.084.001-.095-.114q.034.093.071.186a.4.4 0 0 0 .308.007c-.09-.137-.096-.045-.2-.107.033-.036.056-.075.096-.11-.015.12.192.181.233.203.124.068-.024.087.054.143s.204.065.219.19c.028-.048.052-.1.074-.146.134.06.076.101.085.117.119.204.265.21.458.268q.058.016.12.04l-.077-.089c.194-.017.135-.037.03-.102a1 1 0 0 1-.078-.055.4.4 0 0 0 .087.037c.11.027.21-.004.302.008.117.016.284.13.342.19-.18.01-.336-.094-.513-.152l-.006.179c.153-.065.185.032.216.06.09.083.12-.015.149.11l.026-.1c.212.089.441.217.617.114q-.011.135-.019.272c.112-.045.183.04.269.04.086-.002.066-.08.167-.092.018-.002.05.049.098.022.05-.027.24-.258.235-.037.082.01.16.025.24.035l-.24.015q.091.09.189.178l.037-.14c.186-.044.314.04.499.025.03-.002-.04-.097.095-.072a.3.3 0 0 1 .073.027c.104.054.211.16.4.096.012-.004.074-.141.163-.054.02.02-.058.056-.013.081s.245.032.268.095c-.005-.023-.02-.046-.028-.069l.098-.043.024.121c.186-.118.26-.284.547-.285a6 6 0 0 1-.264-.136l-.045.135a7 7 0 0 1-.392-.003l-.052.148-.105-.01.019-.105-.202.038c.125-.21.385-.01.352-.18l.099.07c.004-.083.067-.066.176-.067q-.047-.055-.09-.112c.11.045.293.012.403.013.049.001.013.069.028.073.08.023.195-.109.225-.107.178.01.345.171.493-.011-.2.026-.092.008-.18-.042-.027-.016-.281.004.027-.06.035.001.626-.063.484.099.079-.065.134-.129.2-.195.307.167.132-.04.019-.147l.091-.043c-.006.17.351.009.425-.125.025-.044-.103-.026-.028-.095l.03-.01.078-.04.06.051.078.1c.002-.121.138-.06.197-.136.019.125-.04.313-.142.358l.256.05-.041-.12c.158.203.497.297.41.488l.082.06.088-.062.297.351c-.118-.067-.174-.048-.259-.167l.053.194c.232.05.298.012.527.236.01.01.143.23.144.242.005.054-.076.064-.075.09.001.073.134.36.117.374-.218.16-.965-.431-1.175-.582q-.554-.397-1.088-.81l.822.06c-1.107.671-2.399.892-3.601.865-1.036-.02-2.106-.205-3.1-.665a9 9 0 0 1-.329-.166c-.026-.014-.033.026-.045.021-.076-.03-.114-.122-.138-.14-.052-.036-.05.03-.09.006-.411-.249-.758-.55-1.116-.872-.023-.021.031-.032-.014-.064-.024-.016-.135-.03-.182-.075-.141-.14-.244-.278-.369-.434l-.052-.064a9 9 0 0 1-.276-.372c-.037-.052-.1-.088-.136-.14-.051-.073.012-.093.008-.106-.018-.06-.08-.029-.11-.078-.053-.092-.017-.12-.088-.234-.051-.08-.189-.254-.253-.357-.081-.276-.24-.59-.347-.83-.063-.141-.006-.176-.026-.236l-.03-.077-.004-.01c-.069-.167-.17-.294-.217-.468-.07-.266-.065-.515-.105-.775-.006-.043-.063-.024-.071-.065a4 4 0 0 1-.073-.49c-.007-.156.074-.22.046-.369-.008-.043-.085-.051-.099-.125-.022-.119.04-.252.046-.334.008-.113-.068-.013-.06-.167.001-.006.056-.03.053-.062v-.006c-.008-.09-.05-.083-.044-.22 0-.015.059-.199.06-.217.005-.108.038-.325.033-.39-.019-.232-.119-.061.08-.237a4 4 0 0 1-.098-.277c.03.066.123-.171.122-.189-.006-.146-.09-.074-.046-.253.116.267.063-.227.085-.334.049-.264.121-.51.206-.752.082-.231.173-.452.271-.684.068-.162.137-.39.225-.557.02-.039.04.008.058-.025.018-.034-.04-.016-.017-.054.143-.234.321-.371.376-.635.019-.002.028.005.053-.003.034-.198.308-.415.443-.526l.043-.038c.17-.16.166-.244.293-.358.168-.152.498-.283.254-.33a2 2 0 0 1 .359-.29c.015-.009.036.038.043.035.038-.021.022-.066.045-.085.06-.053-.012.069.07-.012.044-.042.048-.096.186-.192a7 7 0 0 1 .932-.54A6.6 6.6 0 0 1 24.34.144c.07-.009.017-.051.106-.06.288-.028.784.018 1.054.021h.052c.258-.009.201-.08.366-.104.032-.004.005.035.033.037.192.013.416.096.57.125.1.018.1-.046.173-.04.108.008.207.09.263.103.263.057.458.05.697.145-.006-.017-.009-.03-.013-.047q.439.128.86.321l-.024-.053a1 1 0 0 1 .176.105c.108.085.073.093.15-.114l.085.007c-.077.13.064.324.274.494.015.012.206-.043.102.097l.13-.047q.03.114.057.226l.09.033c.022-.025.04-.056.067-.078.123.077.332.292.42.362.224.171.5.31.579.541.08.072.057-.053.16.073l-.04.107c.125 0 .152.033.176.097.014.037.027.084.058.142.057.107.134.148.195.244.016.025-.023.048-.01.063.042.05.199.172.225.211a4.8 4.8 0 0 1 .557 1.053c.016.04.034-.03.05.013.025.067-.053.055-.04.094.036.11.102.084.164.235q.088.218.154.461l-.003-.012c.113.38.188.79.255 1.17.003.017.044.008.047.027.024.12-.012.25.004.358.026.18.1.31.115.49.025.287.016.55.008.832l-.005.195a10.6 10.6 0 0 1-.494 3.02c-.224.684-.56 1.351-1.024 1.913-.024.029-.044-.006-.05.005-.052.096-.02.134-.125.1-.07.12-.037.204-.152.328-.061.066-.107-.064-.161.089-.049.13.087.082-.183.284l-.07-1.19.036.04c.006.008-.002.095.069.127s.035-.064.188.036c.36.236.746.621 1.15.914.025.018.286.173.343.195a.3.3 0 0 0 .048.015l.697.502-.552.752c-.015.072.014.1-.055.205-.064.096-.172.131-.246.245-.01.013.024.074-.046.148M20.756 3.238c.033.06.186.237.037.322-.015.008-.094-.152-.168-.095.038-.08.086-.153.131-.228m9.683 12.215.266-.276-.099.258zM29.414 2.541a5 5 0 0 0-.347-.163l.071-.029q.15.048.297.106zm.868.564c.032.082-.016.093-.022.155a.3.3 0 0 0 .037.084l.049-.071c.174.118.185.552-.165.223l.097-.045c-.087-.108-.161-.238-.156-.31.003-.033.023-.055.066-.055q.036-.001.094.02M19.899 4.957c.028.19.035.268-.047.407l-.063.097-.062-.13.011-.007.12-.075-.09-.057q.063-.119.13-.235m11.357 5.773-.078-.007c-.053-.005-.064-.008-.06-.022.007-.017.04-.053.041-.136.002-.059-.054-.02-.049-.055.026-.189.174-.159.237-.094a8 8 0 0 1-.09.314m.317 4.034c-.03.047-.102.009-.063.106l-.162-.128.058.026-.007-.079c-.059.036-.053-.008-.097-.069l-.08.198-.16-.204.03-.042-.115-.007.018-.063-.118-.034c.021-.047.1-.012-.024-.094l.202-.035zm-.007-5.503c-.03.236-.055.162-.156.09zm-6.521-8.254q-.099.12-.192.24c-.131.054-.284-.068-.187-.134.12-.08.26-.017.378-.106M22.047 2.01c.163-.064.077.1.077.165-.086-.045-.136-.002-.226.051.075-.062.122-.205.15-.216m5.709-.56c.064.021.135.026.181.073-.045.061-.13-.045-.092.088l-.12-.04c.041-.034.02-.078.031-.12zm3.787 5.523c.071-.143.03-.166-.047-.29.067-.03.207.115.245.215zm-4.39 7.427c-.008.096-.24.16-.361.154l.034-.048q.166-.048.327-.106m-8.168-5.746c-.09-.052-.104.127-.088-.09.012-.144.016-.176.017-.307.111.043.162.302.169-.06 0-.004-.065.007-.058-.05.003-.019.054-.077.069-.164.004-.028.02-.238.023.048.076-.01.153.004.227.002.024.108-.123.197-.113.314.015.173.173.247-.022.297-.061-.142-.075-.396.044-.432-.004-.14-.101-.18-.147-.063.083.488-.143.144-.032.571.027.003.059.018.084.013-.084.14-.142-.06-.173-.079m.182-1.04q.084.129.171.253c-.094 0-.18-.045-.231-.18zm2.807 6.162c.04-.036.092-.058.138-.086-.009.055.485.392.201.276-.043-.017-.221-.235-.339-.19m9.693-5.874.013-.027.089-.185a11 11 0 0 1 .067.328zm-7.783-6.826c.03-.005-.051.087.061.05-.075.063-.145.12-.215.182l-.1-.076-.04.078q-.005-.074-.007-.15c.168.062.169-.06.301-.084m4.346.173c-.02.107-.239.078-.056.179-.065.047-.136.054-.248.015l-.024-.095c-.029.065-.067.078-.147.103-.17-.057-.152-.073-.157-.2.162.125.201.027.35.016.104-.007.207.06.282-.018m-6.766 12.14c.163.02.119-.122.247.102l-.079.024a5 5 0 0 1-.168-.125m7.205-11.5c.072-.15.02-.327-.13-.104.08.108.104-.053.13.103m-6.715-.126c.216-.129.27.059.237.188l-.093-.06-.08.107zm9.439 3.278c-.172-.137.002.211-.11.112-.086-.078-.022-.245.065-.222q.023.05.044.11m-.462-.977c-.096.086-.084.029.003.148.027.034.124.353.16.183a8 8 0 0 0-.163-.331M20.16 3.945c-.05-.024-.018-.31.027-.323.116-.032-.018.205.14.164-.221.17-.047.357-.314.188.065-.143.085-.046.147-.029m9.905 11.143c-.012-.013-.076-.166-.045-.177.122.128.065.15.246.183l-.032.082c-.06-.028-.11-.024-.17-.088m-7.584-.88c-.063-.017-.136-.125-.2-.158.308-.083.45.223.2.158m-2.894-3.777a.1.1 0 0 1-.033.025l-.003.001zm.341-6.006c-.116.065-.068-.315.017-.405.026.024.053.04.08.076-.126.04-.079.319-.096.329m6.71-3.4c-.282-.042.131-.287.109-.046a1 1 0 0 1-.11.046m-5.466 1.58c-.012-.116-.135-.033.046-.182l.078.025zM24.756.58c-.372.083-.698.238-.426.446l.077-.036c-.014-.122.096-.07.242-.083.015-.05.096-.07.107-.112.024-.082-.078-.13 0-.215m6.438 10.998-.049-.043q.007-.093.01-.185l.098.076zM18.926 7.25c.228.048.19-.066.098-.31a9 9 0 0 0-.098.31m11.277-4.691-.127.151c.133.044.174-.022.196-.126zm1.072 1.48c-.012-.054-.047-.005-.048-.01-.037-.131-.025-.16-.14-.283l-.068-.03c-.08.133.012.143.016.319l.083-.142q.05.123.097.248l.052.008zm-.46 8.09q-.074.104-.153.203l.078.065q.04-.134.075-.267M19.077 8.99l.038.014a.05.05 0 0 1-.038-.014m11.046 6.381c.06.079.178.152.257.222.046-.072-.177-.22-.218-.318-.022.002-.064.063-.039.096M22.253 1.59l.002-.146.163-.073-.044-.094c-.213.165-.206.05-.372.032q.128.14.252.28m8.791 12.262c-.16-.096-.239-.102-.221.044l.199.066zm-10.936-1.643c.118.11.005.191.158.274a7 7 0 0 1-.076-.247zm-.983-7.564c-.07.05.1.247-.122.376q.028.049.057.088l.048.07-.176.021c-.032.175.065.084.12.104.021.008-.052.121.009.096.074-.03.107-.17.159-.237q.032-.047.075-.034a.2.2 0 0 0-.029.047c-.038.085-.04.2.03.176.05-.017.048-.08.053-.149.004-.06.012-.121.057-.156-.213.086-.06-.193.078-.178-.03-.205-.13-.066-.189.114-.057-.143-.062.036-.151.035-.013-.131.18-.505-.018-.373M26.313.546c-.127-.007-.325-.078-.416.004-.053.048.142.096.003.168.122-.002.152-.03.135-.1l.087-.019.036.043.05-.08.09.025q.009-.02.015-.041m-2.63 14.27-.102-.023v.053l-.002.042c-.008-.052-.145-.175-.227-.146-.042.014.009.128-.142.096.107.03.209.048.314.068l-.05.073.1.046zm6.54-12.423c-.125-.05-.173-.056-.194.046q.09.006.178.014zM18.974 10.05c.381.169.054-.338-.032-.21-.004.006.062.178.032.21m2.887-8.348.172-.12-.106-.077zm8.641 11.53c0-.116-.124-.256-.256-.234l.09.116-.21-.125.03.485.017-.022c-.028-.03-.049-.037-.07-.03l-.022-.375c.019.04.1.07.169.155.015.02.04.24.155.18.024-.013-.096-.128.038-.113-.036-.035-.07-.061-.106-.093l.048-.078zM25.57.517h-.068c-.114.009-.134.058-.163.135L25.58.62zm5.37 12.143c.069-.072-.015-.08-.004-.12.04-.151.14-.207.188-.349l.02.045c.401-.572.081-.33-.11.031l-.084-.02c-.058.18-.12.344-.01.413M18.71 7.785c-.017.008-.124-.06-.074.066q.026.017.045.024c.026.01.04.009.05 0 .024-.024.006-.1.045-.127l.044.101c.046-.198.011-.228-.106-.157-.008.005.013.086-.004.093m.002 1.332c.233-.003.1-.24.03-.224 0 .035.042.058.03.097-.014.04-.066.056-.06.127m2.087-6.82c-.006.004-.13-.01-.07.038.194.059.248-.152.182-.176-.044.046-.055.094-.112.137m10.615 11.586c.002-.008-.116-.15-.157-.136-.04.02-.075.049-.112.073.102.031.242.18.27.062m5.628-9.03c.09-.102.032.237.166.012l.028.14-.15.037zm-.624-.087c.142.058.18.241.311.043l-.146-.047.113-.207-.056-.074.255-.094-.037.084c.069.11.088.209.1.359l.06-.04q-.05.115-.102.228l-.102-.2c-.133.098-.059.27-.031.36.038.122-.026.094 0 .185.005.014.055.016.055.044.004.145-.022.425-.138.261.015-.237-.078-.44-.044-.673-.133.062-.179-.061-.238-.229m.426 4.363c-.065-.072-.04-.219.006-.318.01-.022.096-.072.093 0-.006.116-.142.172-.05.233zm.008.253c-.034.071-.136.039-.108-.05.011-.038.092.035.01-.098l.184-.082q0 .048.003.097c-.105-.023-.056.061-.09.133m-.094-3.593c.095.01.094-.036.16-.116l-.01.226zm.015-1.774-.045-.075.101-.044-.095-.263c.103.011.087.168.159.254-.032.129-.091.19-.179.2zm8.28 9.145-.046-.047.173.173-.04.039.04.013-.225-.225-.025.077c.124.102.014.112.022.246.023.412.216.302-.067.674.014-.298-.119-.184-.221-.364.078-.037.253.141.29.02a4 4 0 0 1-.212-.639l-.041.02.026.11-.109-.118c.046.028.052 0 .064-.026l.498.497c-.022-.01-.044-.024-.036-.066a.2.2 0 0 1 .036-.065l-.366-.366c.026.02.053.045.074.063l.015-.063.277.276-.202-.047.137-.1.065-.002-.127-.127zm-7.581-11.59c.097.11.114.311.005.417zm-.829 2.527.05-.038.091.167-.143.032zm.053 3.535c-.002-.04 0-.044.006-.094.002-.02.03-.187.067-.168v.256zm.022-.976c.006-.03.017-.059.02-.09.057.112-.047.13-.017.232.03.101.087.164-.056.25-.021-.031-.052-.066-.076-.099.056-.145.003-.184-.053-.3zm8.095 7.557c-.027.07-.058.002-.061 0-.245.066.032-.038-.2-.05l.103-.053c.053.034.107.072.158.103m-7.952-.006-.008-.062c.14.005.175-.076.29-.002zm-.313-5.875c-.04-.154-.057-.268.005-.416.004-.009.047.032.058.021q-.01-.046-.024-.092l.103-.013-.03.26.06-.038.032.221-.17-.076zm2.624 6.1c-.025-.023.02-.06-.017-.08-.038-.019-.108.023-.092-.04l.157-.027c-.168-.114-.335-.011-.337-.152.16.037.292.02.448-.02-.006.112-.162.209-.064.313zM35.244 1.845c.009-.095-.037-.313.028-.433.016-.03.224-.128.251-.128.092.003.105.123.165-.006q.001.065.006.129l.185-.023-.028-.157.061-.008c0 .189.08.077.153.175l.112-.27c-.005.052-.008.113-.013.158.105.006.08-.103.1-.121.109-.105.053.43.206.473l.05-.262.057.075c-.105.199-.143.421-.208.652l.013.062.142-.018.016.095c-.156-.093-.154.036-.249.191-.055-.082-.021-.184-.123-.177.078.283-.033.615.056.89.022.07.154.069.141.23-.014-.006-.04-.007-.06-.01.064.278.102.447.037.736l.142-.05-.07-.183c.078-.042.112.02.111-.164 0-.15-.035-.06-.058-.101-.032-.055.03-.104-.005-.163-.027-.046-.092.003-.075-.117q.126.074.255.146l-.058.088-.066-.088.12.31c-.122-.035-.076.076-.062.136.022.095-.06.014-.047.076.014.061.107.128.087.24-.054-.06-.102.02-.151.005-.05-.016-.061-.133-.115-.02.04.218.23-.019.26.128.037.177-.27.22-.337.167-.052-.042-.042-.185-.094-.226-.094.255.091.257.128.301.132.159-.22.052-.093.24l-.188-.01c.012.033.028.054.037.093.129-.115.123-.02.123.028 0 .076.063-.042.08-.022.043.055.023.142.08.089l-.08.073c.034.09.308.3.253.1.102.019.053.083.037.134-.015.05.05.05.038.094-.048.176-.16.06-.247.033.06.233.1.004.14.34.071.033.147-.122.188.007-.123.023-.212.119-.253.304l.085.054c-.113.101-.232.05-.09.237-.26-.1-.094-.032-.2.136-.021.034-.075-.045-.103.003-.012.022.029.074-.003.127-.015.025-.115.145-.068.229.126-.061.233.097.337-.039-.025.25.035.426-.137.145l-.114.191.09.134c-.103.007-.132 0-.114.175l-.074-.228c-.02-.002-.043-.013-.063-.01.04.093.057.355.084.419s.036-.06.062-.04c.22.152.058.14.096.25.022.063.047-.09.056-.056.035.128-.082.187-.084.3l.201-.12c-.003.12-.004.252.017.362.009.043.058.01.062.017.016.035.043.178.044.193 0 .114-.068.117-.072.228l-.017-.127-.333-.058-.024.325.111-.238.27.372-.166.193c.015.176.238.14.043.224l.049.155-.084-.022.052.187c.099-.066.203-.13.299-.195.021.123-.063.125-.084.143-.055.049.02.145-.032.184-.017.013-.072-.108-.136-.066-.012.008-.247.169-.193.272.043-.002.095-.01.14-.014.027.138-.195.208-.257.19.044.073.047.181.115.196l.005.113c-.165-.04-.135.117.007.127l.01-.193c.175.049.28-.148.119.26-.09.079.012-.138-.056-.075-.04.111-.006.215-.07.32-.078.13-.154-.03-.054.274.252-.672.17.092.248.408-.248.087-.327.353-.253.72.07-.038.034-.153.056-.22.023-.067.064.005.096-.077.033-.083.077-.26.125-.343.04.07.132.422.021.19-.069.173-.139.254-.152.469.108.064.175.06.178.268-.15-.123-.254.114-.408.062.036-.148.186-.065.258-.151.007-.009-.03-.147-.028-.18-.135.14-.185.188-.346.103.014.098-.006.16.07.169l-.1.061q.004.046.004.095c.116-.047.044.044.097.109.053.064.144-.022.145.155l.076-.17.09.343c.07-.08.176-.254.269-.25-.035.053.027.234.03.253.009.077-.05.035-.052.041-.028.12-.008.22-.097.265.04.09.017.158.02.254 0 .053.066.042.054.073-.083.205-.168.01-.007.405l.138-.143.052.134-.025.09-.296-.003-.016.099-.03-.169-.052-.015-.077.24.011.004.005-.103c.188.048.193.077.372-.018.138.001.25-.142.33-.203l.086.058.055-.085.11.119c.02-.09.03-.119-.111-.15.048-.112.297-.063.399-.025.077.028-.009.122.001.133.032.039.16.005.186.012.113.027.192.022.294.043.02.004.075.063.08.065.036.01.127.039.137.04.53.044-.036-.213.457-.186l-.043-.102.112-.006c.047.029-.01.08.084.039l-.019.125.122-.068c.066.145.305.178.288.349-.006.058-.175.117-.086.179.073.012.024-.057.054-.06.214-.026.202.071.29.045l.042-.126.1.037.023-.084-.095-.006c.04-.108.406-.156.267-.064-.057.037-.161.021-.096.15.098-.02.21-.038.313-.056l.01.082c.138-.018.012-.128.012-.187l.096-.005.04.081c.002-.043.02-.141.114-.104.061.023-.035.13.081.116-.008-.067-.05-.147.079-.169.013.07.03.133.04.205.162-.066.235.04.424-.036.12-.05.284-.223.361.045.088.006.06-.06.086-.075.122-.07.213.056.236.063.146.048.211.004.33.064q-.009-.073-.015-.144c-.11.074-.164.07-.316.054l.153-.03-.025-.12c-.47.158-.361-.092.034-.146q.052.11.103.223c.228-.113.335-.015.594.008.03.003.142-.04.19-.042l-.002-.001c.03-.07-.011-.103-.016-.165l.078-.024c.058.048.038.087.152.076l-.046-.143c.126-.002.208.05.324.028l-.058.054c.253.046.051.326.243.186l.037.074-.237.018-.005.103.254-.031-.185.07.294.05c-.104-.128.03-.143.005-.27.174.105.31.244.579.155.053-.018.024-.105.176.002-.037-.14.153-.206.128-.339q-.08.007-.158.018c.058.046.068.173-.02.211-.114.048-.278-.04-.271.101l-.13-.016.052-.105c-.124.055-.202.037-.262-.051l.444-.06-.065-.019c.112-.09-.004-.175.205-.194l-.003.124c.076-.11.284-.11.218-.236.063.038.076.063.111-.005.166.096.273.218.214.363l.185-.07-.107-.12.322.008c.01.118-.206.036-.144.14.013.022.07-.023.086-.011.16.128-.092.035-.044.134.167.021.123.109.196.111l.11-.005-.005-.1a.5.5 0 0 0-.055-.18l.103-.027c.002-.114-.075-.104-.09-.202-.008-.062.126-.139.034-.206-.017-.012-.181.102-.174-.138.006-.186.122-.109.163-.21s-.12-.33.063-.398c-.024.053-.037.12-.057.179l.106.07c-.046-.134.008-.272-.076-.362l.024-.039-.007-.153-.14.007c-.166-.088-.334.025-.284.161.059-.02-.005-.085.076-.044l.026.102c-.139-.004-.235-.003-.172-.107l-.064-.008-.011.227-.078.025-.086-.05c.039-.12.105-.123-.114-.19l-.002.124c-.184-.053-.188-.152-.419-.149.177-.143.274.11.273-.176l.133.057.02-.125c-.238.022-.633.295-.793.114l-.058.065c-.156-.11-.224.136-.382-.005-.016-.015.018-.246-.188-.238.005.03.007.08.011.119l-.133-.057-.024.084.228.032-.19.029c.082.045.12.045.07.118l-.215.013-.023.056.105.166c-.187-.045-.349-.047-.492-.157-.025-.018.062-.09-.105-.025-.002-.038-.007-.07-.01-.105-.203.107-.27.075-.483-.002.138.072.015.025-.02.064-.024.027.07.023.06.05-.011.029-.133.14-.03.154.256-.23.326.045.653-.066l-.151.09.07.059c-.182-.045-.094-.016-.169.02a1.1 1.1 0 0 1-.303.075c-.029.003.001-.049-.064-.053-.044-.004-.165.073-.193-.017-.019-.059.176-.22-.093-.22-.05-.057.078-.04.081-.046.024-.069-.142-.12-.218-.068-.006.005.054.058-.012.079-.156.05-.246-.011-.347-.094-.01.097-.142.213-.305.177l-.025.083.077-.043c.027.017.056.03.083.05-.164.024-.187.157-.266.206-.27.167-.106-.186-.057-.247q.052.038.103.078l-.011-.101c-.403 0-.061-.22-.266-.282-.053.166-.203.182-.395.077l-.063.002c-.004.024-.004.06-.01.077-.23.028-.271-.228-.293-.252-.097-.107-.173.041-.201.043-.12.005-.156-.061-.27-.033-.124.03-.04.081-.077.127-.03.036-.128.042-.168.08l.05-.092c-.128-.041-.233-.082-.378-.092-.164.223-.303-.153-.246.152.137.021.214.056.288.134l-.271.03c-.027-.034-.045-.067-.077-.101-.056.06-.176.048-.249.055l-.065-.003.002-.06-.006-.036c-.098-.288-.22-.199-.016-.461.02.19.12.189.106.376.07-.04.056-.135.14-.074-.02-.181-.096-.123-.163-.193-.058-.061-.061-.184-.137-.177l.123-.035v-.352l.129.15.049-.114c-.135-.289.112-.788-.226-.708-.01-.14.032-.157.096-.233l-.076-.025c.027-.09-.07-.159-.044-.238.024-.08.115-.099-.038-.11.044-.052.08-.103.122-.154l-.104-.092.055-.145c-.074-.026-.042-.215-.091-.299.079-.08.326-.077.282-.264l-.184.015.038-.129.06-.007-.018.065.101-.056-.15-.196-.115.265c-.045-.11 0-.188-.05-.284.085-.084.133-.053.226-.02l-.024-.093c.092.02.147-.032.14.15l.078-.038c-.004-.03.018-.049.008-.082-.027-.089-.19-.157-.246-.151-.03.003.027.091-.015.087-.102-.008-.056-.21-.16.081-.064-.097-.015-.118.004-.225l-.102.025.047-.149c.175.069.24-.296.394.033l.024-.29.054.059-.028.13.098-.154a.4.4 0 0 0-.18-.224c-.057.141.02.095.035.205-.049-.004-.094.001-.145-.008.101-.057.028-.243.023-.286-.016-.131.084-.028.086-.116s-.057-.191.042-.263a2 2 0 0 0-.163.012c-.019-.136.047-.109.055-.123.14-.226.022-.348.008-.606l-.049.099c-.118-.195-.082-.064-.12.105.011-.158-.089-.249-.119-.36-.03-.112.022-.304.062-.374.065.16.022.333.04.511.056-.02.104-.04.166-.06-.118-.109-.039-.172-.023-.207.046-.105-.056-.102.053-.165l-.104.007c.016-.216.082-.45-.057-.59l.27-.038c-.068-.091.002-.17-.014-.247s-.09-.047-.117-.138c-.006-.016.04-.051.006-.092-.033-.042-.286-.195-.065-.213 0-.078.009-.151.013-.227l.036.222.16-.189-.143-.024c-.058-.17.02-.293.002-.464-.003-.028-.097.039-.073-.088s.2-.221.131-.437c-.003-.011-.138-.075-.044-.153.02-.017.052.057.08.016.027-.04.05-.22.116-.235-.023.002-.047.013-.071.019l-.034-.093.124-.01c-.096-.177-.252-.268-.2-.531l-.18.221.126.06-.05.365.143.059-.018.096-.104-.024.026.19c-.204-.129.017-.36-.153-.343l.08-.086c-.083-.012-.06-.07-.047-.173q-.06.038-.122.07c.058-.099.052-.275.074-.379.01-.045.07 0 .077-.013.037-.07-.068-.201-.06-.229.05-.165.248-.272.118-.453-.033.186-.02.085-.092.151-.023.021-.07.262-.049-.04.003-.035.14-.58.245-.401-.034-.089-.072-.158-.108-.239.277-.198.017-.13-.126-.072l-.002-.097c.15.071.16-.29.083-.413-.025-.041-.073.074-.096-.021l.036-.145c-.095.07-.132-.067-.229-.065.087-.087.27-.153.369-.106l-.12-.216-.07.1a1 1 0 0 0 .014-.272l.13.13c-.152.008-.283.016-.314-.112l-.094.004-.028.103-.423-.09c.126-.021.156-.07.287-.03l-.152-.119c-.198.106-.225.176-.524.145a3 3 0 0 1-.247-.1c-.035-.04.019-.097.003-.117-.044-.057-.31-.198-.304-.22.065-.26.958-.264 1.2-.278q.299-.016.596-.027l.678-.03.033.74c.084 2.3-.072 4.56-.042 6.853 0 .026.039.014.04.025.01.068-.05.135-.053.16-.005.053.05.024.05.063 0 .404-.032.786-.023 1.19 0 .027-.044 0-.036.046.004.024.073.099.074.153.003.188-.019.346-.018.545 0 .108-.005.271-.004.393 0 .053.032.11.033.162.001.075-.062.06-.066.072-.017.05.052.057.05.106-.003.09-.049.094-.045.208.003.081.04.267.05.37-.054.24-.032.541-.014.765.01.132-.055.145-.055.199.002.19.085.334.087.513q.002.085-.006.166l-.733-.733c.173.014.336.046.51.05.038 0 .03-.06.066-.061.135-.006.308-.017.429-.008.134.01.184.095.315.078.039-.005.05-.081.115-.09.103-.016.216.05.288.058.098.01.013-.067.146-.057.005 0 .025.056.054.053.083-.007.075-.05.196-.046.012 0 .173.053.19.053.094 0 .284.019.34.008.2-.04.043-.123.213.057q.11-.066.228-.131c-.053.04.162.097.177.094.125-.03.05-.1.21-.089-.21.162.203.02.296.017.444-.02.847.02 1.294.019.15 0 .35-.035.507-.034.037 0 .01.039.042.04.032 0-.004-.043.033-.04.23.014.41.095.62-.006.01.014.01.026.027.042.173-.09.504.032.629.048a.6.6 0 0 0 .223-.008l.654-.029.031.715c.01.05.021.097.015.164-.016.187-.136.469.062.343.006.128.008.252-.01.382-.003.014-.053.004-.054.01-.008.037.038.049.04.073.005.067-.049-.042-.034.054.008.05.048.079.049.219v.268l.032.718-.785.035c-.769.001-1.585-.01-2.36-.017-.06 0-.02.049-.094.045-.26-.01-.723-.092-.946-.081-.224.011-.173.082-.313.112-.027.006-.005-.035-.03-.035-.164-.004-.36-.067-.492-.077-.088-.006-.081.058-.142.062-.091.007-.185-.058-.233-.06-.228-.009-.385.043-.598.017l.02.04-.756-.006.035.039c-.295-.008-.262-.147-.236.147l-.065.032c.009-.151-.17-.262-.398-.3-.017-.004-.129.144-.117-.03-.029.042-.046.072-.071.11l-.145-.158-.079.023c-.004.034 0 .07-.009.103-.12.005-.369-.037-.464-.033-.237.011-.479.104-.663.004-.09.01 0 .077-.134.069l-.045-.102c-.11.152-.132.06-.282.028-.101-.021-.167.015-.264.008-.024-.002-.02-.046-.038-.045l-.025.005-.623.027-.03-.68c-.015-.069-.062-.195-.064-.23-.016-.358-.009-.665.008-1.006.001-.037-.043.01-.04-.027.002-.061.07-.025.073-.06.009-.1-.062-.1-.066-.238-.012-.452.041-.973.046-1.446 0-.015-.042-.014-.042-.03-.002-.104.054-.21.053-.306 0-.157-.059-.276-.059-.432 0-.304.03-.577.032-.89.002-.256-.004-.479-.004-.76.001-1.228-.131-2.482-.06-3.718.001-.032.038-.019.036-.028-.016-.092-.065-.1.039-.132-.02-.117-.1-.153-.093-.294.003-.074.124-.019.061-.145-.056-.114-.123.012-.055-.328.002-.01.076-.054.057-.124-.02-.071-.072.011-.088-.16-.038-.401.026-.91.007-1.376a4 4 0 0 0-.06-.366c-.035-.108-.09-.085-.103-.225-.01-.108.052-.197.04-.324-.002-.015-.066-.04-.058-.135m9.518 11.517c-.026.063-.074.294-.233.224-.015-.007.066-.166-.022-.191.086-.017.17-.022.255-.033M36.718 1.155l-.035.358-.084-.246zm.889 13.1.376-.09-.04.066-.296.104zm-.99.232c-.08-.026-.06-.07-.105-.113a.2.2 0 0 0-.086-.022l.026.082a.3.3 0 0 1-.215-.021l.213.213c.048-.101.139-.153.205 0l-.418-.418a.7.7 0 0 1 .136-.04l-.021.104c.235-.01.497.066.265.215m6.256-1.024c-.2.114-.265.138-.508.06l.103-.097.12.099.024-.104zM36.458 7.33c.227-.056.095-.04.146.12.018.055.058.001.065.036.036.186-.117.2-.196.159zm-.047-4.817c.055-.005.07.07.122-.015v.193l-.016-.057-.057.05c.064.023.027.044.005.111l.205-.055-.061.235-.052.003.066.088-.06.024.046.107c-.05.011-.071-.068-.059.072l-.152-.129zm.117 6.27c-.01-.23.026-.166.139-.113zm5.736 5.652q.099-.116.202-.227c.136-.043.272.097.17.152-.123.066-.252-.008-.373.075m2.692.005c-.036.166-.127.01-.18-.028.085-.046.077-.11.087-.214.006.097.099.214.093.242m-5.375-.091c-.067.002-.133.023-.193-.003.018-.073.137-.006.052-.115l.128-.006c-.027.045.01.079.013.123m-2.967-3.334c-.087.13-.05.156.01.288-.07.018-.189-.14-.215-.238zm1.078-7.698c.09.032.102.264.075.38l-.04-.042zm1.544 9.716c.055-.086-.108-.114.09-.08v-.001c.131.022.16.028.282.034-.044.11-.29.149.05.171.004 0-.005-.065.049-.056.017.003.07.056.152.072.026.005.224.021-.046.022.008.076-.006.154-.006.227-.105.022-.186-.127-.297-.124-.166.006-.25.157-.282-.04.14-.05.378-.05.41.068.134.002.173-.096.064-.144-.465.061-.127-.145-.535-.067-.004.028-.021.057-.019.083-.124-.097.069-.135.088-.165m.973.21-.24.175c0-.095.043-.18.17-.233zm-2.33-4.712c-.052-.012-.1-.043-.149-.065.044-.025.086-.603.128-.309.007.043-.085.304.02.374m-1.342 1.573-.104.204-.067-.313zm6.835 4.421c-.028-.002.067-.072-.046-.061.084-.046.163-.084.246-.127l.075.1.058-.064-.034.147c-.14-.105-.171.014-.299.005m-4.137.191c-.025-.106.177-.169-.022-.186.038-.07.098-.106.214-.112q.03.04.056.08c.003-.072.033-.099.098-.15.176-.004.166.02.208.137-.186-.066-.192.04-.32.104-.087.044-.2.024-.234.127m-1.355-5.57c-.09-.131-.174-.013-.079-.247l.069.046zm.704 5.206c.015.165.139.293.16.025-.12-.054-.062.097-.16-.025m6.629.144a.22.22 0 0 1-.037.13c-.058-.054-.042-.143.005-.21l-.211.21a.3.3 0 0 1-.043-.036l.101-.044-.046-.123zm-8.883-1.63c.117.178.065-.192.138-.068.059.1-.06.23-.134.18zm.033 1.03c.125-.03.089.013.066-.128-.006-.04.041-.36-.063-.225zm7.508-.632c-.002-.054.244-.174.276-.144.085.081-.175.093-.062.205-.25-.099-.324.14-.306-.175.146-.013.077.051.092.114M37.176 1.21c.016.003.152.083.136.11-.164-.023-.135-.076-.287.01L37 1.248c.06-.017.094-.05.176-.038m.812 6.696c.015.06-.044.17-.041.238-.227-.217-.015-.478.041-.238m-1.57-3.14v.001m1.434 7.797a.1.1 0 0 1 .039-.014h.003zm5.509.719c-.103-.077.238-.198.349-.169-.008.035-.01.067-.027.107-.09-.09-.306.074-.322.062m-2.624 1.205c.27.002-.08.303-.095.063a.5.5 0 0 1 .095-.063m4.307-1.067c.092.069.116-.07.1.151l-.07.039zm-2.54 1.462c.339-.051.663-.14.442-.392q-.038.013-.077.024c-.004.123-.099.056-.237.052-.02.049-.097.06-.111.101-.028.08.06.136-.017.215M36.18 6.567l.063.016.07.161-.12-.026zm4.358 6.418c-.03.23.077.187.296.07zm-3.488 1.803-.021-.196c-.116.068-.095.143-.04.229zm-1.004-1.02c-.014.05.04.024.038.03-.028.121-.052.139-.012.288l.043.054c.137-.069.062-.119.142-.265l-.14.08.029-.244-.043-.03zm.194-7.822.016-.237-.102-.009zm2.675 7.143-.018.037a.05.05 0 0 1 .018-.037M36.967 1.024c-.09-.024-.218-.008-.317-.013.008.085.258.061.346.113.014-.016.01-.09-.029-.1m8.02 13.627-.067.126-.163-.014-.005.104c.24-.045.185.055.305.153zM36.022 3.43c.024.174.067.236.171.138l-.071-.185zm2.114 7.399c-.039-.146.1-.148.023-.29l-.078.228zm4.75 1.799c-.061-.048-.176.182-.349.012-.04.05-.067.099-.102.149-.02-.054-.044-.11-.063-.163-.157.018-.056.086-.06.144-.001.023-.117-.016-.08.035.062.09.296.038.297.146-.083-.035-.243-.005-.196.067.052.08.204-.054.3.012-.138-.173.147-.12.18.013.167-.102.013-.143-.158-.139.104-.101-.05-.046-.075-.131.108-.051.478-.009.306-.145m-1.795 2.293c.116-.007.297.052.376-.034.046-.05-.135-.09-.01-.168-.113.008-.139.039-.12.107l-.077.025-.036-.04-.04.085-.082-.017q-.007.02-.01.042m-2.96-8.269.003.096.052-.012.04-.008c-.048.018-.129.171-.077.236.026.032.119-.042.135.096-.005-.1-.017-.192-.025-.289l.082.026.02-.097zm-.985 8.264c.11-.054.146-.082.095-.17l-.123.116zm1.2-1.865c-.175-.123-.201-.035-.17.061l-.142-.142c.086-.028.178-.101.131-.155-.003-.003-.075.007-.13.004l.292.293c.001-.029.007-.053.019-.06m6.97 1.402.007.172.006.134-.147.007h-.02l.02.056.206-.009-.009-.188.067-.025zM35.87 4.188c-.092.067-.125.24-.025.324l.034-.133.035.252c.127.004.053-.093.088-.24.006-.022.163-.168.045-.218-.025-.01-.041.145-.112.037-.006.047-.005.088-.008.132l-.09.01zm5.893 10.724c.159.007.179-.044.212-.133l-.222.03zM35.842 5.61c-.015.087.058.05.072.084.052.133 0 .223.032.354l-.04-.025c-.062.62.104.294.077-.076l.08-.026c-.047-.166-.092-.319-.221-.311m4.2 7.18c-.007-.016.053-.124-.06-.074-.089.158.057.08.094.14l-.092.045c.183.045.21.007.143-.108-.005-.008-.078.015-.085-.002m-1.2-.077c-.024.232.206.128.197.056-.031-.003-.056.036-.09.019-.034-.018-.042-.072-.106-.075m6.683.662c0-.007.098-.074.022-.068-.18.084-.064.253-.002.224-.003-.056-.03-.093-.02-.156M35.815 3.14c-.005.003-.045.172-.008.194.04.018.084.027.127.04-.04-.093-.01-.282-.118-.234"/></g><defs><filter id="a" width="49.966" height="24.144" x="0" y="0" color-interpolation-filters="sRGB" filterUnits="userSpaceOnUse"><feFlood flood-opacity="0" result="BackgroundImageFix"/><feColorMatrix in="SourceAlpha" result="hardAlpha" values="0 0 0 0 0 0 0 0 0 0 0 0 0 0 0 0 0 0 127 0"/><feOffset dy="4"/><feGaussianBlur stdDeviation="2"/><feComposite in2="hardAlpha" operator="out"/><feColorMatrix values="0 0 0 0 0 0 0 0 0 0 0 0 0 0 0 0 0 0 0.25 0"/><feBlend in2="BackgroundImageFix" result="effect1_dropShadow_287_1664"/><feBlend in="SourceGraphic" in2="effect1_dropShadow_287_1664" result="shape"/></filter></defs></svg>