<svg width="13" height="118" viewBox="0 0 13 118" fill="none" xmlns="http://www.w3.org/2000/svg">
<path d="M1.25677 108.201C0.670523 108.468 1.05482 107.578 0.179308 108.169C0.120155 108.046 0.0591474 107.922 -4.72468e-06 107.799C0.324238 107.767 0.64769 107.735 0.971932 107.704C1.06741 107.87 1.16288 108.035 1.25836 108.201C1.25783 108.201 1.2573 108.201 1.25677 108.201ZM5.31748 108.427C4.39267 108.276 4.1461 107.794 3.29268 108.314C3.61007 108.356 3.92739 108.398 4.24478 108.44C3.99862 108.62 3.75251 108.802 3.50769 108.983C3.6287 109.048 3.74983 109.113 3.86949 109.178C3.31795 109.261 2.76493 109.343 2.21204 109.425C2.29277 109.352 2.3749 109.277 2.45562 109.204C2.00774 108.913 1.88525 108.655 1.80185 108.26C1.67134 108.295 1.54199 108.33 1.41149 108.364C1.63346 108.164 1.85599 107.964 2.07796 107.765C2.29585 107.938 2.53817 108.132 2.74125 108.292C3.60604 108.035 3.12474 107.582 2.94437 107.347C2.69817 107.026 3.10937 107.098 2.93723 106.86C2.91032 106.822 2.58802 106.818 2.58257 106.743C2.55701 106.363 2.72784 105.627 3.47993 106.058C3.38306 106.682 3.987 107.214 3.76635 107.827C4.63596 107.665 4.93188 107.987 5.31748 108.427ZM2.54845 96.9599C2.97081 97.149 2.80036 97.5343 2.5072 97.7953C2.5072 97.7956 2.5072 97.7959 2.5072 97.7962C2.44262 97.8536 1.88133 97.9837 1.9042 97.7962C1.94339 97.4905 2.82694 97.3427 2.22712 97.1822C2.33878 97.1104 2.43814 97.035 2.54845 96.9599ZM2.49609 96.2955C2.71269 96.1079 3.37844 96.193 3.19826 96.4278C3.19879 96.4278 3.19932 96.4278 3.19985 96.4278C3.12451 96.5258 2.59828 96.3334 3.13241 96.6848C2.71687 96.7566 2.33882 96.8273 1.93673 96.8982C1.93 96.8121 1.9191 96.7337 1.91372 96.6434C2.59675 96.7042 2.28118 96.4829 2.49609 96.2955ZM3.10385 105.741C2.48937 105.711 2.49325 105.835 2.06685 106.045C2.08703 105.846 2.10856 105.648 2.12873 105.45C2.45418 105.547 2.7784 105.644 3.10385 105.741ZM3.00863 110.404C3.00863 110.404 3.00863 110.404 3.00863 110.404C3.1055 110.469 3.20272 110.535 3.29823 110.599C3.07893 110.638 2.86058 110.676 2.64128 110.715C2.84713 110.945 3.05296 111.176 3.26015 111.406C2.59026 111.378 2.69926 110.965 2.23109 110.738C2.43291 110.4 2.82175 110.237 3.38948 110.215C3.26306 110.278 3.13505 110.34 3.00863 110.404ZM5.67928 55.1479C5.49367 55.071 5.30791 54.9951 5.1223 54.9183C5.03759 55.0205 4.97293 55.1218 4.87476 55.2248C5.68189 55.4943 4.96793 55.5196 5.01757 55.8726C5.17094 56.9546 6.42456 56.6675 4.58833 57.6447C4.67568 56.8602 3.81287 57.1617 3.14828 56.6887C3.65415 56.5907 4.79506 57.0594 5.03185 56.7418C4.49647 56.1945 3.99783 55.6682 3.6521 55.061C3.56466 55.0787 3.47692 55.0964 3.38948 55.1141C3.44464 55.2104 3.50014 55.3059 3.5553 55.4022C3.3212 55.2983 3.08913 55.1967 2.85233 55.0911C3.38371 55.2246 3.0868 54.8845 3.69732 54.93C3.9691 54.9503 4.34612 55.1006 4.60579 55.1893C4.74702 54.9604 4.8764 54.7257 5.0136 54.4943C5.23013 54.6142 5.44689 54.734 5.66341 54.853C5.67014 54.9509 5.67494 55.0481 5.68166 55.1461C5.68087 55.1467 5.68007 55.1473 5.67928 55.1479ZM2.85392 5.88704C3.48626 6.17762 3.59089 6.70566 2.88725 6.98357C2.87648 6.61781 2.86469 6.25279 2.85392 5.88704ZM3.85759 110.193C3.75009 110.226 3.64376 110.258 3.53626 110.291C3.33718 110.146 3.13948 110 2.9404 109.854C3.25106 109.827 3.56177 109.798 3.87108 109.769C3.86704 109.91 3.86163 110.052 3.85759 110.193ZM3.51166 100.9C3.53046 101.006 3.52028 101.016 3.47596 101.148C3.47622 101.148 3.47649 101.148 3.47675 101.147C3.4602 101.2 3.27875 101.639 3.03958 101.59C3.03554 101.372 3.03958 101.14 3.03958 100.917C3.19691 100.91 3.35299 100.908 3.51166 100.9ZM3.37202 103.465C3.37149 103.466 3.37096 103.466 3.37043 103.466C3.3341 103.545 3.26014 103.621 3.24666 103.702C2.87023 103.408 3.54559 103.361 3.35457 103.093C3.16218 102.826 2.78956 102.66 3.71478 102.433C3.85335 102.518 4.0516 102.608 4.21304 102.695C3.8431 103.076 4.19124 103.178 4.5558 103.483C4.16031 103.477 3.76751 103.471 3.37202 103.465ZM3.80761 59.9652C4.265 60.0378 3.81619 60.1188 3.81078 60.1272C3.81025 60.1271 3.80972 60.1269 3.8092 60.1268C4.23279 60.7702 3.55601 60.043 3.48469 60.6503C3.37037 60.5599 3.24966 60.4711 3.134 60.3816C3.35458 60.2431 3.60452 60.1003 3.80761 59.9652ZM3.76476 80.8707C3.63157 80.8766 3.49808 80.8837 3.36488 80.8896C3.39582 80.5247 2.87148 80.4317 3.34901 80.1285C3.4889 80.3759 3.6278 80.6233 3.76635 80.8707C3.76582 80.8707 3.76529 80.8707 3.76476 80.8707ZM4.48043 99.0606C4.7347 99.4652 4.84675 99.7645 4.44313 100.153C4.44261 100.153 4.44208 100.154 4.44155 100.154C4.41671 100.176 4.13804 100.068 4.06785 100.097C4.10953 100.177 4.1736 100.26 4.22336 100.341C4.00021 100.352 3.77711 100.363 3.5553 100.374C3.61853 100.146 3.6817 99.9175 3.74493 99.6886C3.61443 99.7224 3.48506 99.757 3.35457 99.7907C3.28731 99.5965 3.22029 99.403 3.15304 99.2087C3.51885 99.2763 3.88476 99.3437 4.25192 99.4104C4.32857 99.2939 4.40242 99.1772 4.48043 99.0606ZM5.22227 74.7957C5.07697 74.8599 4.83326 74.7411 4.70814 74.8407C4.5846 74.9404 4.85576 75.1242 4.44552 75.0811C4.39039 74.9469 4.32719 74.806 4.26938 74.6692C3.52962 75.1093 4.19901 75.5483 3.28554 75.5551C3.52232 75.1328 3.41232 74.7855 3.15939 74.3767C3.88449 74.3935 4.51143 74.8025 5.19212 74.545C5.20154 74.6277 5.2153 74.7147 5.22069 74.7948C5.22121 74.7951 5.22174 74.7954 5.22227 74.7957ZM12.9502 116.104C12.895 116.355 13.1909 116.927 12.7685 117.243C12.6644 117.321 11.3158 117.58 11.138 117.579C10.5393 117.571 10.4578 117.255 10.0677 117.594C10.0636 117.48 10.0411 117.369 10.0304 117.256C9.6281 117.276 9.2269 117.296 8.82597 117.316C8.88652 117.453 8.94736 117.591 9.00925 117.729C8.87606 117.736 8.74256 117.743 8.60937 117.749C8.60668 117.254 8.09259 117.546 7.61363 117.29C7.37151 117.526 7.13057 117.764 6.88845 118C6.91804 117.864 6.93996 117.704 6.97493 117.584C6.29288 117.568 6.45549 117.854 6.32909 117.903C5.61473 118.179 5.97528 116.773 4.98266 116.658C4.87236 116.882 4.76472 117.118 4.65577 117.348C4.53334 117.282 4.41084 117.215 4.28842 117.149C4.97304 116.628 5.21557 116.044 5.64199 115.436C5.61376 115.382 5.58477 115.327 5.55789 115.273C5.24991 115.289 4.94312 115.304 4.63514 115.32C4.59882 115.237 4.56277 115.153 4.52644 115.071C5.54077 115.315 5.52695 114.977 6.14581 114.569C6.50227 114.786 6.28616 115.053 6.95033 115.035C6.43933 114.29 7.1615 113.418 6.58457 112.693C6.44198 112.513 5.58519 112.514 5.6642 112.091C5.75838 112.105 5.92841 112.107 6.05219 112.117C5.64184 111.385 5.39653 110.941 5.81495 110.181C5.50701 110.225 5.19777 110.268 4.88983 110.312C5.0432 110.474 5.19902 110.635 5.35239 110.796C4.84387 110.905 4.61945 110.743 4.62483 111.225C4.62886 111.619 4.8534 111.384 5.00408 111.492C5.20979 111.637 4.80511 111.764 5.03502 111.92C5.21127 112.041 5.63085 111.911 5.52456 112.226C4.98102 112.099 4.41976 111.97 3.86949 111.842C3.99192 111.765 4.11624 111.689 4.24002 111.612C4.38532 111.69 4.52872 111.766 4.67402 111.844C4.41303 111.57 4.16687 111.312 3.89647 111.029C4.68219 111.121 4.3876 110.828 4.29476 110.67C4.14962 110.422 4.69036 110.634 4.60023 110.472C4.5087 110.31 3.90458 110.135 4.03373 109.842C4.38348 109.999 4.69711 109.785 5.01995 109.826C5.34278 109.868 5.41426 110.178 5.76655 109.88C5.49883 109.307 4.2694 109.929 4.07023 109.542C3.83077 109.077 5.83481 108.967 6.26561 109.105C6.60466 109.214 6.53647 109.589 6.87417 109.699C7.4836 109.028 6.28049 109.022 6.04504 108.907C5.1881 108.49 7.47534 108.77 6.64804 108.276C7.07577 108.285 7.46047 108.293 7.8707 108.302C7.79268 108.217 7.68898 108.16 7.62712 108.057C6.79373 108.361 6.82945 108.112 6.82815 107.985C6.82546 107.784 6.41895 108.094 6.31401 108.041C6.03319 107.897 6.1607 107.67 5.79353 107.809C5.9644 107.747 6.13576 107.679 6.30529 107.615C6.09238 107.38 4.30714 106.828 4.66767 107.353C4.00439 107.304 4.32319 107.134 4.42409 107.002C4.5249 106.869 4.10249 106.872 4.18051 106.755C4.49266 106.292 5.21523 106.595 5.78163 106.668C5.39149 106.056 5.13336 106.655 4.87237 105.773C4.41091 105.688 3.91849 106.095 3.6521 105.756C4.45379 105.693 5.0297 105.443 5.29606 104.956C5.11174 104.909 4.92578 104.862 4.74146 104.814C5.48143 104.548 6.2509 104.684 5.33335 104.192C7.02179 104.456 5.94161 104.274 6.629 103.833C6.76758 103.744 7.11788 103.951 7.29547 103.826C7.37556 103.769 7.11114 103.632 7.31531 103.493C7.4162 103.426 8.06724 103.11 7.75803 102.891C6.94003 103.051 6.24415 102.636 5.56741 102.992C5.73424 102.333 5.34149 101.872 6.45683 102.61C6.70438 102.443 6.95088 102.276 7.19709 102.108C7.002 101.992 6.80846 101.874 6.61472 101.757C7.28702 101.739 7.47562 101.757 7.35736 101.298C7.51604 101.497 7.67735 101.695 7.83738 101.896C7.97314 101.902 8.11424 101.93 8.24599 101.923C7.98777 101.678 7.87664 100.988 7.69773 100.821C7.51879 100.654 7.46982 100.977 7.29626 100.929C5.8651 100.528 6.92064 100.559 6.67502 100.271C6.52971 100.103 6.37193 100.506 6.31005 100.416C6.08322 100.08 6.84384 99.925 6.85354 99.6278C6.4218 99.7334 5.98334 99.8381 5.54757 99.9411C5.57044 99.6294 5.57428 99.2819 5.4357 98.9922C5.3816 98.8785 5.06051 98.9644 5.03899 98.9458C4.92867 98.8537 4.75391 98.4787 4.75257 98.439C4.75 98.1401 5.19475 98.1316 5.2191 97.8412C5.25675 97.9552 5.29069 98.0624 5.327 98.1739C6.04805 98.2245 6.76905 98.2762 7.49145 98.3269C7.54391 98.0423 7.59529 97.7576 7.64775 97.4721C7.40696 97.6807 7.16732 97.8901 6.92653 98.0987C6.344 97.7727 5.76013 97.4466 5.17625 97.1206C5.53411 96.9508 5.89189 96.7817 6.24975 96.6119C6.15535 96.1508 4.70268 96.2437 5.97522 96.0249C5.86764 95.889 5.76013 95.753 5.65389 95.6171C5.83546 95.6365 6.0174 95.6558 6.19897 95.6752C6.0873 95.5113 5.97637 95.3475 5.86335 95.1836C5.22033 95.3559 4.54366 95.5248 3.91948 95.6954C3.77975 95.373 4.32525 95.3668 4.46138 95.3187C4.82195 95.1911 4.3356 94.9379 4.66926 94.8366C4.78381 94.8023 5.14292 95.1183 5.55709 95.0094C5.63737 94.9882 7.15985 94.565 6.80831 94.2951C6.5325 94.3001 6.19432 94.321 5.8943 94.332C5.72677 93.9689 7.16645 93.7838 7.56999 93.8319C7.28748 93.6385 7.26387 93.3557 6.82259 93.316C6.81183 93.2172 6.80162 93.1191 6.79086 93.0203C7.86558 93.1233 7.66907 92.7111 6.74484 92.684C6.72197 92.8538 6.69789 93.0238 6.67502 93.1936C5.54221 93.0652 4.85844 93.5811 5.90778 92.5076C6.49707 92.3023 5.8275 92.8724 6.26879 92.7052C6.52564 92.4146 6.31073 92.1419 6.72104 91.8657C7.2336 91.522 7.72659 91.9449 7.07411 91.1441C5.43948 92.9104 5.96985 90.9019 5.46268 90.0724C7.07716 89.8443 7.58853 89.1438 7.10822 88.1791C6.65889 88.2796 6.89039 88.5831 6.74246 88.758C6.59449 88.9328 6.32791 88.7436 6.11804 88.9614C5.90822 89.1793 5.62298 89.642 5.30558 89.8626C5.05127 89.6758 4.45003 88.7538 5.17229 89.3634C5.61751 88.9083 6.07504 88.6946 6.1585 88.1305C5.45758 87.9615 5.02113 87.9741 5.00091 87.4242C5.9749 87.7494 6.65183 87.1246 7.65806 87.2622C7.4237 87.6521 6.44571 87.4342 5.9776 87.6597C5.93082 87.6828 6.17599 88.0461 6.1585 88.1305C7.03705 87.7639 7.36405 87.6371 8.40943 87.8627C8.31794 87.6033 8.44919 87.442 7.95004 87.4184C8.16658 87.3643 8.38331 87.31 8.59985 87.2568C8.59446 87.1724 8.57441 87.0964 8.57843 87.007C7.8255 87.1302 8.289 86.8913 7.94766 86.7216C7.60593 86.5518 7.01157 86.7796 7.00349 86.3133C6.82725 86.4687 6.67602 86.6108 6.50919 86.7612C6.31548 86.4605 6.12054 86.1589 5.92683 85.8582C5.46677 86.0694 4.78342 86.527 4.17813 86.5145C4.40666 86.376 4.00503 85.9016 3.98851 85.8497C3.92662 85.6486 4.30836 85.7582 4.31778 85.743C4.50328 85.4271 4.37331 85.167 4.95172 85.0471C4.69074 84.8097 4.83953 84.6308 4.82477 84.3791C4.8167 84.2405 4.39186 84.2675 4.47249 84.1864C5.01061 83.6475 5.55962 84.1609 4.51454 83.1214C4.21859 83.2472 3.91583 83.3714 3.61719 83.4973C3.50552 83.3798 3.39324 83.2631 3.28157 83.1457C3.33539 83.0671 3.38961 82.9893 3.44343 82.9107C4.08512 82.9124 4.72816 82.9145 5.36985 82.9161C5.40483 82.83 5.4388 82.7435 5.47379 82.6573C5.53702 82.8051 5.60018 82.9533 5.66341 83.1012C5.77632 83.1147 5.88929 83.1273 6.0022 83.1408C6.1771 82.9211 6.35358 82.7023 6.52982 82.4827C6.3066 82.4784 6.08182 82.4743 5.85859 82.4701C6.16937 81.9751 6.35834 81.9633 5.74355 81.4928C5.75027 81.1304 4.81695 80.8354 4.42409 80.6259C4.54918 80.5507 4.67588 80.4754 4.80097 80.3994C4.6153 80.3513 4.43045 80.3027 4.24478 80.2545C4.50307 80.1591 4.76142 80.0623 5.01836 79.9669C4.43209 79.9137 4.24905 79.8861 4.04325 80.2586C3.31407 80.131 3.63574 79.4753 3.8806 79.2084C4.06641 79.0059 4.67462 79.2306 4.7486 79.2052C4.99994 79.1207 4.78307 78.7869 4.82477 78.7169C4.99831 78.4204 4.96793 78.2126 5.10247 77.9449C5.12939 77.8927 5.51485 77.747 5.52694 77.7347C5.59287 77.6384 5.78022 77.4007 5.7856 77.3736C6.07333 75.9794 4.40102 77.4692 4.57722 76.1727C4.35669 76.2115 4.13763 76.2472 3.9171 76.2852C3.90365 76.1873 3.89087 76.0883 3.87743 75.9904C4.06174 75.8662 4.39694 76.0164 4.12656 75.7698C4.39832 75.7859 4.6702 75.802 4.94061 75.8189C4.79396 75.7116 4.6485 75.6082 4.50185 75.4984C5.44494 75.3261 5.65912 74.697 6.76626 74.7417C7.14298 74.7569 7.52952 75.2029 7.93179 74.9672C8.01098 74.7757 7.56107 74.9054 7.53746 74.8272C7.37333 74.263 8.00396 74.2958 7.83579 74.0652C7.56551 74.0289 7.28995 73.9907 7.01698 73.9535C7.09632 73.8666 7.17567 73.7794 7.25501 73.6916C7.07338 73.6713 6.89156 73.6502 6.70993 73.6299C6.69782 73.7118 6.68554 73.8041 6.67343 73.8793C5.96995 73.7744 5.65395 72.8117 6.25372 73.1789C6.4972 73.3283 6.39375 73.6022 7.22486 73.4291C7.10513 73.1715 6.98279 72.8792 6.86306 72.6081C7.042 72.5997 7.22126 72.5918 7.4002 72.5833C7.28437 72.2179 6.56894 72.5502 6.18548 72.5496C6.17472 72.466 6.1653 72.3815 6.15454 72.2979C6.32791 72.2625 6.50939 72.2288 6.6774 72.1917C6.40148 72.1883 5.76015 72.1415 5.99823 71.8924C6.15319 71.7322 6.84931 71.9844 6.75277 71.679C6.32233 71.7019 5.79807 71.8122 5.65945 71.4719C6.10869 71.4382 6.52026 71.3914 6.99239 71.3653C6.5608 70.9422 7.25456 70.7496 6.75277 70.253C6.43524 69.9379 5.30812 69.5063 7.04475 69.3028C7.09047 69.0723 6.658 69.1454 6.56077 69.0772C6.10064 68.7554 6.92412 68.516 6.97255 68.4561C7.28303 68.0736 6.99797 67.9021 7.38672 67.5904C7.06516 67.6073 6.76079 67.6165 6.44731 67.6301C6.92896 67.9156 6.90636 68.0602 6.80276 68.4606C6.7382 68.3263 6.67214 68.192 6.60758 68.0577C6.34664 68.0796 6.08565 68.1014 5.82606 68.1225C6.85395 69.3608 5.22994 69.072 4.87476 68.0338C5.35766 67.9443 5.83929 67.8515 6.32354 67.7628C5.59167 67.1631 6.22701 66.8809 6.37908 66.2027C6.39647 66.1221 6.11829 65.8284 6.10455 65.7021C6.1027 65.7042 6.10085 65.7063 6.099 65.7084C5.64298 65.6299 5.4331 65.7363 5.0255 65.7489C4.97439 65.6805 4.92349 65.6121 4.87238 65.5437C5.18307 65.3909 5.43828 65.4446 5.36429 65.144C5.05489 65.1845 4.7454 65.2245 4.436 65.2651C4.42523 64.9356 4.76141 64.72 4.6161 64.4134C4.73315 64.4649 4.85054 64.5158 4.96759 64.5674C5.26626 63.9 7.08538 64.4311 6.17993 63.9268C6.33862 63.8947 6.49887 63.8635 6.65756 63.8314C6.69657 64.0392 6.73439 64.247 6.7734 64.4539C6.998 64.4581 7.22163 64.4627 7.44622 64.4661C7.37895 64.2439 7.30958 64.0207 7.24231 63.7985C7.393 63.9607 7.54388 64.1238 7.69456 64.286C7.80218 64.0284 7.90987 63.7707 8.01748 63.5131C7.1916 63.7867 7.09061 63.432 6.27276 63.4987C6.95353 63.0426 7.85092 62.6843 7.27643 61.9773C7.16199 61.8371 6.59046 61.9132 7.28595 61.5154C6.37659 61.6117 5.94986 61.1134 5.08501 61.1774C5.1267 61.3159 5.15293 61.4595 5.20402 61.5938C5.50403 61.4409 6.32933 61.4155 6.57426 61.6478C6.88637 61.9442 6.31439 62.3767 7.23041 62.359C7.18738 62.4772 7.16199 62.5872 7.12568 62.702C6.89845 62.6547 6.66978 62.6084 6.44255 62.562C6.7988 62.8888 6.68295 63.0941 6.11011 63.2512C5.97828 62.8618 5.84785 62.4733 5.71736 62.084C5.67841 62.1413 5.63915 62.1994 5.60153 62.2568C5.01628 61.962 4.46194 62.2661 4.33682 61.7162C4.60448 61.7196 4.87233 61.7223 5.14134 61.7257C4.42559 61.5255 4.42947 60.9773 3.60608 61.1522C3.85899 60.9866 4.01896 60.9529 3.57514 60.8592C4.20075 60.4224 4.99188 60.142 5.93635 60.2974C5.78435 60.1352 5.63213 59.973 5.48013 59.8117C5.22187 59.9054 4.96481 59.9993 4.70655 60.093C4.7227 59.8109 4.73856 59.5267 4.75336 59.2454C5.51744 59.2184 4.98517 59.7885 5.66817 59.624C5.80527 59.5911 5.51161 59.4392 5.58883 59.3994C6.42425 58.9787 5.82068 59.6391 6.4608 59.5151C6.65857 58.8883 7.73116 59.3899 6.82974 58.5266C7.05033 58.5038 7.27537 58.4792 7.49462 58.4581C7.50786 58.1585 7.00958 58.1828 6.91543 57.9252C6.85685 57.7639 7.73182 57.5614 7.136 57.3832C7.02615 57.3515 5.95672 57.6512 6.00379 57.0213C6.04027 56.5325 6.79602 56.7359 7.0638 56.4717C7.33153 56.2073 6.28362 55.6025 7.47161 55.4242C7.31426 55.5627 7.22938 55.7391 7.10029 55.8928C7.33166 55.9553 7.56054 56.0162 7.79057 56.0778C7.49191 55.7264 7.84391 55.3632 7.2923 55.1267C8.13586 54.6579 7.35304 54.1336 6.4005 54.2755C6.53783 54.4298 6.95319 54.2619 6.68851 54.4763C6.46652 54.4982 6.24562 54.5214 6.02362 54.5433C6.05053 54.1784 6.0443 53.925 6.72104 54.0914C6.73718 54.0348 6.75329 53.9787 6.76944 53.9221C6.27971 53.912 5.78817 53.903 5.29844 53.8929C5.24328 53.8253 5.18857 53.7574 5.13341 53.6899C5.24098 53.6147 5.3498 53.5394 5.45871 53.4635C6.23366 53.5657 6.25926 53.7398 6.69248 53.1637C6.42474 53.162 6.15807 53.1595 5.89033 53.1578C6.2307 52.6755 6.87926 52.6628 6.85513 52.0572C7.78468 52.5218 6.13692 52.776 8.00162 52.7743C7.87918 52.8909 7.75511 53.0084 7.63268 53.125C7.9031 53.1427 8.17392 53.1603 8.44434 53.1772C8.3017 52.5513 6.52324 51.5116 7.7025 51.0926C7.55859 51.0419 7.43349 50.9911 7.27881 50.9396C7.99053 50.529 6.39267 50.3517 7.31293 49.9353C7.40951 49.8923 8.91071 49.9823 8.85692 49.4402C8.66181 49.4537 8.33342 49.4607 8.0873 49.4717C8.207 49.3543 8.33227 49.2375 8.45466 49.121C8.27445 49.0999 8.09431 49.0778 7.91275 49.0566C7.84279 49.2568 7.77166 49.4565 7.7017 49.6567C7.63984 49.4903 7.57791 49.3229 7.51604 49.1566C7.22151 49.3736 7.21838 49.4715 6.74643 49.3407C6.71817 49.1523 6.6882 48.9637 6.65995 48.7753C6.53902 48.7559 6.41669 48.7366 6.29577 48.7172C5.93523 48.8085 5.58264 48.9006 5.21672 48.9918C5.51135 48.5011 5.52735 48.0744 6.23626 47.6977C6.35599 47.6335 6.82571 47.8605 6.40209 47.4231C6.65085 47.4163 6.85286 47.4046 7.08284 47.397C6.38592 46.8615 6.59394 46.6855 7.09712 46.1272C6.62757 46.4887 6.93296 46.1661 6.68137 46.0741C6.50804 46.011 6.53364 46.2572 6.3521 46.2294C6.17183 46.2015 5.44391 45.8815 5.35636 46.1551C6.84841 46.8258 5.06453 47.0085 5.78163 47.8701C5.58924 47.7375 5.39642 47.6039 5.20402 47.4713C5.07363 47.5337 4.95532 47.5896 4.81684 47.6572C5.10873 47.1766 4.9191 47.4104 4.6891 47.2129C4.45903 47.0152 4.26358 46.656 4.20035 46.4153C4.18048 46.3394 4.51513 46.4194 4.54628 46.2483C4.5678 46.1317 4.07171 45.8131 4.65657 45.7396C5.03728 45.6915 6.08563 46.2032 6.08313 45.4956C6.45637 45.3624 6.34045 45.7017 6.38542 45.709C6.82941 45.7707 7.16322 45.3357 6.82418 45.1346C6.79494 45.1184 6.44897 45.2771 6.31322 45.1045C5.98898 44.6948 6.38575 44.4582 6.92257 44.193C6.29292 44.1642 5.54094 43.8195 5.7737 43.3904C5.59351 43.3684 5.41174 43.3475 5.23021 43.3255C5.32558 43.3922 5.41967 43.4588 5.51504 43.5254C5.40203 43.598 5.31976 43.675 5.18657 43.746C5.03173 43.3144 4.16397 43.2534 3.84649 43.0465C2.76193 42.3383 5.05613 42.7675 5.45157 42.8952C5.29147 42.9873 5.11275 43.0763 4.94458 43.1675C5.16388 43.1574 5.38485 43.1471 5.60549 43.1378C5.59879 42.0778 7.02905 42.9764 7.4367 42.4383C6.35776 42.2998 6.25377 41.9046 6.93844 41.4012C6.93305 41.3455 6.93167 41.2895 6.92495 41.2338C6.76763 41.2245 6.52716 41.2246 6.42351 41.2095C6.24053 40.603 7.90212 40.4949 8.05953 40.4375C8.75768 40.1824 7.79171 39.9838 7.78343 39.9086C7.74979 39.5918 8.17871 39.4998 7.99447 39.1983C7.7954 38.874 7.46629 39.0957 7.1717 38.9971C6.93776 38.9179 6.89609 38.6621 6.6536 38.5564C6.85193 38.5984 7.04642 38.6451 7.24549 38.6869C7.51586 38.3508 7.7794 38.0761 7.84531 37.6944C6.39415 37.2636 8.84208 36.8971 6.85671 37.0457C6.72083 37.4073 6.49459 37.6094 5.98871 37.8029C5.92415 37.5655 5.86127 37.3281 5.79671 37.0907C6.0146 37.0215 6.22696 36.9724 6.4489 36.8904C5.98617 36.7131 6.18474 36.3019 6.04901 36.1405C5.41265 35.3845 4.62337 35.6184 5.94984 34.9283C6.07908 35.4257 6.72333 35.4249 6.63456 35.9181C7.09467 35.8117 6.99934 35.5611 7.55095 35.7232C7.41509 35.246 6.92261 35.4003 6.48539 35.2146C6.10848 35.0544 6.08738 34.7318 5.59756 34.75C5.86687 34.7171 6.12758 34.6916 6.39653 34.6587C6.39384 34.3496 6.39367 34.0405 6.39098 33.7314C6.67212 33.8632 6.95379 33.9949 7.23359 34.1266C7.33978 34.027 7.44556 33.9273 7.55175 33.8277C6.67725 33.0675 8.27998 31.7566 6.08313 31.966C6.01318 31.5994 6.28871 31.5536 6.70438 31.3542C6.5376 31.3323 6.39888 31.3109 6.21325 31.289C6.38784 31.0525 5.76168 30.871 5.92445 30.6624C6.08596 30.4538 6.67741 30.402 5.68325 30.3716C5.96842 30.2365 6.20531 30.1021 6.47032 29.9678C6.24447 29.8868 6.02122 29.8058 5.79671 29.7257C5.91509 29.599 6.03298 29.472 6.15137 29.3453C5.6768 29.2776 5.88136 28.7794 5.56265 28.5598C6.07421 28.3513 7.68486 28.3571 7.39624 27.8666C6.99676 27.8793 6.59845 27.8918 6.19897 27.9044C6.28237 27.7921 6.3655 27.6795 6.4489 27.5664C6.57928 27.5596 6.70967 27.5538 6.84005 27.547C6.7997 27.6044 6.75956 27.6611 6.71787 27.7185C6.93851 27.6687 7.15814 27.6199 7.37878 27.5709C7.05191 27.3994 6.725 27.2278 6.39812 27.0555C6.15063 27.2877 5.90297 27.52 5.65548 27.7523C5.36218 27.4609 5.65473 27.258 5.3278 27.0046C5.87932 26.7842 6.19711 26.8656 6.79562 26.9551C6.74452 26.8732 6.69518 26.7903 6.64408 26.7084C7.24267 26.7624 7.59934 26.6239 7.55095 27.1027C7.72169 27.0698 7.88447 27.0362 8.06192 27.0042C8.03501 26.9256 8.17933 26.8747 8.11349 26.7885C7.9332 26.5537 6.8818 26.3737 6.51316 26.3897C6.32006 26.3984 6.68935 26.6299 6.41637 26.6206C5.75067 26.5977 6.04955 26.0666 5.38096 26.8327C4.95716 26.5784 5.27677 26.5216 5.39921 26.2412C5.17737 26.2631 4.95695 26.2844 4.73512 26.3055C4.83732 26.1755 4.93917 26.0453 5.04137 25.9153C6.18087 26.096 6.60886 25.1373 7.6057 26.0004C7.65681 25.7453 7.7082 25.4911 7.762 25.2369C7.87903 25.2893 7.99488 25.3417 8.1119 25.394C8.05002 25.5089 7.98916 25.6231 7.92862 25.7379C8.14247 25.6028 8.35506 25.4675 8.56891 25.3324C8.30386 25.0131 7.89623 24.8879 7.39306 24.7418C7.02588 25.1134 7.52744 24.992 7.62712 25.2815C7.30847 25.2714 7.01536 25.2847 6.68058 25.2594C7.34062 25.1098 6.86043 24.6218 6.82815 24.5086C6.73011 24.1642 7.37863 24.4343 7.39227 24.2039C7.40573 23.9733 7.01972 23.7013 7.66283 23.5129C7.30237 23.5163 6.92944 23.5314 6.60123 23.5449C6.48284 23.1859 6.90866 23.2575 6.96383 23.2203C7.87059 22.6274 7.10506 22.3056 7.01222 21.6273C6.90058 21.7135 6.79978 21.8005 6.69486 21.8875C5.92954 21.3758 6.16388 21.7205 5.91096 22.1648C5.98765 21.7483 5.33588 21.5098 5.14214 21.2159C4.94873 20.922 5.28348 20.4179 5.5444 20.2337C5.96417 20.6552 5.68735 21.1098 5.80306 21.5778C6.17025 21.5246 6.48102 21.4729 6.88448 21.418C6.1138 21.1334 6.62911 20.9684 6.73135 20.8747C7.03123 20.5994 6.36976 20.608 7.08125 20.4417C6.83649 20.4484 6.63069 20.4534 6.40209 20.4601C6.50433 19.8917 6.93704 19.2785 6.03315 18.9085C6.62103 18.8747 7.18741 18.8492 7.78739 18.8104C7.34486 18.5697 7.79803 18.3635 7.69456 18.1608C7.59097 17.959 7.11587 18.0358 6.93288 17.7985C6.89925 17.7546 7.19661 17.6631 6.97731 17.555C6.75685 17.4458 5.11766 17.0431 6.54966 16.995C6.5564 16.7914 6.60876 16.5988 6.63297 16.3995C6.71369 16.5937 6.79187 16.7881 6.87258 16.9815C7.21965 16.8159 7.56569 16.6514 7.91275 16.4859C7.60331 16.4648 7.28827 16.4436 6.98287 16.4233C6.60616 15.9773 7.1121 15.6537 6.99239 15.2035C6.97221 15.1283 6.36041 15.3056 6.51634 14.9721C6.6724 14.6384 7.81428 14.3908 7.37323 13.8224C7.35036 13.7937 6.47582 13.6254 7.08125 13.4218C7.21847 13.3755 7.42151 13.5705 7.60173 13.4641C7.78202 13.3577 7.93026 12.8828 8.35945 12.8457C8.20746 12.8507 8.04998 12.8804 7.8953 12.8947C7.82267 12.8137 7.74998 12.7318 7.6787 12.6498C7.94639 12.6422 8.21449 12.634 8.48084 12.6264C7.85795 12.1602 6.84184 11.9192 7.17805 11.2283C6.78926 11.4226 6.39892 11.6169 6.01014 11.8103C6.28326 11.8636 6.55821 11.9169 6.83133 11.9692C6.72237 12.2876 6.61419 12.6069 6.50523 12.9253C6.81602 12.9777 7.12591 13.0292 7.4367 13.0815C7.39635 13.166 7.35725 13.2496 7.3169 13.334C7.09223 13.3129 6.86875 13.2916 6.64408 13.2697C6.69923 13.4369 6.75555 13.6043 6.8107 13.7707C5.48453 13.432 6.9235 12.8248 5.81416 12.8686C5.98628 12.7935 6.1596 12.7182 6.33306 12.6431C5.79516 12.6101 5.94997 12.4573 6.03473 12.188C5.76969 12.2497 5.50826 12.3178 5.24052 12.3744C5.6145 12.1125 5.57818 11.648 5.72213 11.3769C5.78535 11.2578 6.17534 11.3767 6.22119 11.3413C6.46067 11.1597 5.78018 10.8126 5.834 10.7399C6.15426 10.3058 7.44436 10.0236 6.59409 9.54978C6.38421 10.0389 6.47285 9.77279 6.00062 9.94679C5.85256 10.0013 5.54369 10.6331 5.68087 9.84191C5.69804 9.74915 6.5894 8.31354 7.27247 8.78545C7.05451 8.55316 6.80249 8.37128 6.57108 8.15841C8.37123 7.63807 6.68012 7.81816 5.7491 7.96936C5.74507 7.88404 5.73562 7.80288 5.73562 7.71503C6.71372 7.90171 6.77446 6.95064 6.28069 6.62796C6.11656 6.51985 5.80348 6.82216 5.65548 6.57214C5.72407 6.45309 5.81289 6.31803 5.88954 6.19223C5.2707 6.37467 5.03222 6.01662 4.40267 6.02163C4.96366 5.79274 6.15272 5.61765 6.79721 5.74345C6.53625 5.55427 6.27561 5.36411 6.01331 5.17493C5.86398 5.26278 5.71595 5.35176 5.56662 5.43961C5.96217 4.82128 5.0621 4.02624 6.38463 3.897C6.37521 3.81507 6.36707 3.73226 6.35766 3.65033C6.13432 3.62499 5.91055 3.6005 5.68722 3.57515C5.88091 3.20442 6.07589 2.83451 6.26959 2.46377C6.40819 2.79388 6.72607 2.87246 6.46794 3.21865C6.7248 3.08524 6.98308 2.94935 7.23994 2.81848C6.54841 2.29731 6.09392 2.22621 6.29974 1.44152C6.30915 1.40604 6.88907 0.813152 6.94558 0.792879C7.20387 0.7 7.57911 0.840988 7.70964 0.799631C8.07559 0.684751 8.99445 -0.0133213 9.13303 0.000194047C10.8336 0.170827 10.8562 2.51951 10.9436 3.15473C11.8504 9.74338 10.6372 16.1869 10.8444 22.7342C10.8476 22.8015 11.0987 22.7721 11.1094 22.8008C11.1725 22.979 10.7812 23.154 10.7651 23.2199C10.7318 23.3606 11.0933 23.2831 11.0936 23.386C11.0895 24.4486 10.877 25.4514 10.9388 26.5149C10.9429 26.5841 10.6537 26.5134 10.7048 26.635C10.7328 26.6978 11.1765 26.8944 11.1832 27.0361C11.2061 27.5311 11.0638 27.9469 11.0706 28.4689C11.0746 28.7544 11.0369 29.1827 11.0436 29.5019C11.0464 29.6429 11.2494 29.7898 11.2562 29.9291C11.2656 30.1268 10.8541 30.0864 10.8286 30.1168C10.7169 30.2503 11.1686 30.2688 11.1578 30.3955C11.1363 30.6311 10.8348 30.6438 10.8603 30.9428C10.8791 31.1565 11.1172 31.6456 11.1872 31.9151C10.8374 32.5453 10.9763 33.3393 11.092 33.9272C11.1606 34.2752 10.7384 34.3075 10.7397 34.4494C10.7479 34.9494 11.2871 35.3288 11.3046 35.7984C11.3274 36.4216 10.9708 36.974 10.9452 37.5778C10.9412 37.6757 11.328 37.6532 11.3379 37.7493C11.3743 38.1049 11.4447 38.5597 11.3895 38.8764C11.3289 39.2295 10.7674 39.3597 10.8817 39.7051C10.9157 39.8064 11.408 39.8361 11.4712 40.0058C11.5706 40.2769 11.1365 40.5742 11.088 40.7634C11.0234 41.0227 11.525 40.7972 11.4577 41.1469C11.4548 41.1613 11.0963 41.2136 11.1134 41.2887C11.1618 41.5075 11.4442 41.4857 11.4173 41.8059C11.4136 41.8366 11.0719 42.2611 11.0706 42.3033C11.0652 42.5516 10.9456 43.0516 11.0182 43.1986C11.2765 43.724 11.8158 43.3104 10.6453 43.7572C10.9318 43.954 11.2222 44.1491 11.5006 44.3577C11.2409 44.2185 10.8662 44.7834 10.8904 44.8231C11.0856 45.1515 11.541 44.9559 11.4657 45.3723C10.4136 44.8224 11.3301 45.9095 11.357 46.1519C11.4874 47.3193 11.2249 48.3804 11.2316 49.5536C11.2344 49.9464 11.4568 50.4727 11.4514 50.8882C11.4511 50.9851 11.2021 50.9119 11.1967 50.9972C11.193 51.0822 11.4725 50.9879 11.4577 51.0849C11.3608 51.6889 10.8334 52.1621 11.4927 52.7153C11.3973 52.7423 11.322 52.7414 11.2173 52.786C11.8079 53.2388 11.0137 54.1107 10.9047 54.4384C10.7353 54.9511 11.1345 55.082 11.0539 55.4544C10.9463 55.9468 10.1664 56.6862 11.4538 56.356C11.4941 56.6938 11.5053 57.0191 11.3855 57.3603C11.372 57.3982 11.0447 57.3721 11.038 57.3873C10.991 57.4835 11.284 57.5149 11.2975 57.5799C11.3337 57.7563 10.9829 57.4685 11.0809 57.7199C11.1333 57.8525 11.3889 57.9278 11.3943 58.2961C11.4225 60.516 11.331 62.926 11.288 65.2016C11.2853 65.3579 11.6017 65.255 11.5815 65.451C11.5115 66.1318 10.979 67.3504 11.0515 67.9375C11.1242 68.5245 11.5869 68.3921 11.7807 68.7594C11.8183 68.8304 11.5546 68.7722 11.5506 68.8364C11.5263 69.2681 11.115 69.7827 11.0531 70.1323C11.0116 70.3636 11.4265 70.3451 11.4562 70.5055C11.4992 70.7446 11.08 70.9906 11.0666 71.1181C11.0075 71.7178 11.3451 72.13 11.1729 72.69C11.2642 72.6681 11.3487 72.6536 11.4387 72.6351C11.4239 73.2981 11.4091 73.9603 11.3943 74.6233C11.4777 74.5921 11.5618 74.5619 11.6466 74.5306C11.6008 75.3085 10.6967 75.2198 12.6058 75.1513C12.6731 75.2079 12.751 75.2679 12.8129 75.3219C11.8295 75.3 11.1098 75.7706 10.8595 76.3694C10.8407 76.4133 11.7995 76.708 10.6667 76.6759C10.9438 76.7528 11.1349 76.7986 11.3784 76.8636C11.0354 76.9903 10.6965 77.1187 10.3549 77.2454C10.406 77.3138 10.4553 77.3831 10.5064 77.4515C10.7284 77.4617 10.9589 77.4539 11.1769 77.4758C11.2105 77.7934 10.9361 78.4448 10.9642 78.6957C11.0355 79.3191 11.6357 79.9537 10.9872 80.4386C11.0534 80.6748 11.4891 80.4402 11.4339 80.7915C11.2133 80.8312 11.0019 80.8685 10.7746 80.9099C11.7602 81.197 11.1606 81.257 10.9547 81.6504C10.8148 81.9164 11.0557 82.0906 11.0087 82.344C10.9966 82.4082 10.7073 82.3991 10.7167 82.4431C10.7465 82.5902 11.1447 83.0099 11.1554 83.1138C11.2604 84.0547 11.2157 84.863 11.1094 85.7592C11.0987 85.8555 11.3842 85.7306 11.3721 85.8303C11.353 85.9907 10.9143 85.8963 10.8928 85.9892C10.8353 86.2483 11.2979 86.2503 11.3221 86.6117C11.4014 87.8019 11.0539 89.1702 11.0229 90.4136C11.0229 90.4524 11.294 90.4501 11.2967 90.4923C11.3099 90.7676 10.9436 91.0463 10.9476 91.2963C10.953 91.711 11.3337 92.0227 11.3324 92.4324C11.331 93.2332 11.1361 93.9487 11.1253 94.7722C11.1159 95.4463 11.152 96.0317 11.1507 96.7708C11.1453 99.9993 12.0056 103.294 11.5482 106.544C11.5361 106.627 11.2966 106.593 11.307 106.618C11.4106 106.858 11.7337 106.88 11.0571 106.965C11.1904 107.271 11.6988 107.367 11.6624 107.736C11.6434 107.933 10.8555 107.786 11.2618 108.119C11.629 108.419 12.0608 108.088 11.6196 108.981C11.6075 109.005 11.1272 109.121 11.2522 109.307C11.376 109.494 11.7199 109.278 11.8235 109.727C12.0657 110.782 11.6505 112.117 11.7783 113.344C11.7864 113.421 12.0431 114.161 12.1615 114.307C12.3916 114.59 12.7484 114.531 12.8359 114.898C12.9032 115.182 12.4989 115.416 12.5796 115.75C12.5894 115.789 13.0053 115.854 12.9502 116.104ZM4.87317 53.923C4.46517 53.8538 2.9634 53.7288 3.42042 53.31C3.46347 53.2703 4.49622 53.4846 4.66053 53.2532C4.7695 53.4796 4.8048 53.7001 4.87476 53.923C4.87423 53.923 4.8737 53.923 4.87317 53.923ZM3.3744 117.92C3.44974 117.606 3.52439 117.292 3.59973 116.979C3.78136 117.195 3.96263 117.411 4.1456 117.627C3.88868 117.725 3.63132 117.822 3.3744 117.92ZM4.08768 78.9086C4.08768 78.9089 4.08768 78.9092 4.08768 78.9095C3.89395 78.5801 3.69985 78.2504 3.50611 77.921C3.64872 77.9556 3.79194 77.9904 3.93455 78.025C4.15919 78.2851 4.38353 78.5453 4.60817 78.8046C4.43465 78.8392 4.2612 78.874 4.08768 78.9086ZM5.59756 81.5113C5.42804 81.7216 5.14215 81.6701 4.86365 81.7859C4.86418 81.7859 4.8647 81.7859 4.86523 81.7859C4.79273 81.8164 4.7293 81.9586 4.71845 82.0136C4.89739 81.9933 5.07403 81.9672 5.25163 81.9452C5.68485 82.436 4.14538 83.3957 3.52515 82.1532C3.75113 82.1717 3.97596 82.1895 4.20194 82.2081C4.13871 81.5906 4.62887 80.9022 5.59756 81.5113ZM4.22257 48.9581C3.4826 48.431 3.32658 48.262 3.83379 47.6225C4.04353 47.7128 4.25324 47.8032 4.46297 47.8935C4.24906 47.9991 4.0366 48.1039 3.82268 48.2095C3.82268 48.2098 3.82268 48.2101 3.82268 48.2104C4.04735 48.2315 4.27242 48.2527 4.49709 48.273C4.40561 48.501 4.31404 48.73 4.22257 48.9581ZM5.06279 101.688C3.58492 101.835 4.44395 101.793 4.11069 101.373C3.99499 101.228 3.73641 101.369 3.69335 101.279C3.45819 100.791 4.44836 100.752 4.96362 100.861C4.9986 101.137 5.0305 101.416 5.06279 101.687C5.06279 101.687 5.06279 101.688 5.06279 101.688ZM5.36985 114.352C5.36985 114.352 5.36985 114.352 5.36985 114.353C5.00937 114.365 4.91241 114.168 4.57087 114.39C4.57222 114.222 4.57508 114.053 4.57643 113.883C4.61001 113.933 4.64202 113.984 4.67561 114.033C4.79938 113.99 4.92473 113.945 5.04851 113.902C4.63417 113.842 4.87502 113.786 5.0136 113.608C4.57098 113.657 4.12804 113.706 3.68542 113.755C3.81724 113.549 3.94952 113.342 4.08134 113.136C4.19288 113.134 4.30461 113.131 4.41616 113.129C4.2736 113.051 4.12948 112.974 3.98692 112.896C4.12009 112.875 4.25205 112.855 4.38521 112.834C4.28434 112.74 4.18355 112.646 4.08134 112.552C4.40392 112.524 4.54333 112.731 4.46138 112.364C4.79231 112.477 5.12223 112.589 5.45315 112.702C5.42625 113.252 5.3981 113.802 5.36985 114.352ZM4.60817 97.8705C4.67005 98.4761 4.43626 98.3055 3.70446 98.1653C4.00574 98.0674 4.30689 97.9684 4.60817 97.8705ZM5.25956 66.6681C4.76042 66.4924 4.26625 66.316 3.7846 66.1361C3.5061 65.7779 4.41587 65.4196 4.7724 65.6891C5.20019 66.0135 4.72141 66.3522 5.25956 66.6681ZM5.03741 58.5108C4.80595 58.949 4.21285 58.5367 3.86712 58.4379C4.42277 58.3167 4.37376 58.1476 4.43838 57.8761C4.4744 58.1311 5.0767 58.4383 5.03899 58.5108C5.03846 58.5108 5.03794 58.5108 5.03741 58.5108ZM4.69862 73.7199C4.71354 73.8955 4.85294 74.0702 4.68354 74.2272C4.20625 74.1798 4.64048 73.8658 3.93297 74.0904C3.92086 73.9781 3.90913 73.8656 3.89568 73.7541C4.18882 73.825 4.40791 73.7297 4.69703 73.7204C4.69756 73.7202 4.69809 73.72 4.69862 73.7199ZM4.04563 92.0025C4.6107 91.6579 4.36891 91.5926 3.9774 91.2454C4.43748 91.1965 5.20813 91.6104 5.37778 91.8698C4.93383 91.9137 4.48958 91.9578 4.04563 92.0025ZM4.28128 10.4847C4.86771 10.5675 4.94419 11.178 4.77082 11.4813C4.68384 11.4452 4.59571 11.4089 4.50741 11.3728C4.43206 11.0772 4.35662 10.7804 4.28128 10.4847ZM4.47805 57.7469C4.46087 57.7924 4.44805 57.8355 4.43838 57.8761C4.43199 57.8309 4.44197 57.7873 4.47805 57.7469ZM7.02333 39.3977C7.57623 39.5421 7.76199 39.1129 7.5454 39.634C7.54593 39.634 7.54646 39.634 7.54699 39.634C7.40437 39.9786 7.3663 40.0547 7.32324 40.374C6.61298 40.2591 6.3591 39.6113 6.21246 40.5041C6.21181 40.5159 6.63444 40.4925 6.57664 40.6351C6.55866 40.6791 6.21181 40.82 6.1109 41.0344C6.07861 41.1036 5.97164 41.6241 5.96491 40.9146C5.4698 40.9357 4.96867 40.8976 4.48836 40.8993C4.34877 40.6224 5.31826 40.4095 5.29447 40.1165C5.2568 39.6815 4.27644 39.4601 5.56265 39.3765C5.87866 39.7423 5.88625 40.3704 5.11278 40.4523C5.10337 40.8062 5.73707 40.9078 6.0506 40.6225C5.65236 39.4002 6.99125 40.2869 6.48539 39.2167C6.30652 39.2041 6.11401 39.16 5.94587 39.1668C6.57537 38.8401 6.82558 39.3462 7.02333 39.3977ZM5.65548 41.9535C5.27742 41.7424 4.89633 41.5319 4.51692 41.3216C5.1331 41.3216 5.68604 41.4375 6.03315 41.7703C5.90678 41.8311 5.7805 41.8928 5.65548 41.9535ZM5.49362 24.1895C5.15863 24.1591 4.85164 24.078 4.53279 24.0189C4.81532 23.9547 5.08636 22.4342 5.3635 23.2077C5.40386 23.3201 4.8115 24.0053 5.49362 24.1895ZM4.55025 94.3954C4.77493 94.2164 4.99997 94.038 5.22465 93.8598C5.36718 94.1341 5.51344 94.4087 5.65865 94.6831C5.28927 94.5869 4.91962 94.4916 4.55025 94.3954ZM5.84749 63.7531C5.83491 63.8287 5.3742 63.5775 5.44681 63.8755C5.15217 63.6533 4.90278 63.4453 4.62562 63.2282C4.84358 63.1632 5.06065 63.0974 5.27861 63.0324C5.13868 62.9817 4.9996 62.93 4.85968 62.8793C5.1772 62.9098 5.4873 62.9368 5.8102 62.9689C5.12942 63.3347 5.9013 63.4186 5.84749 63.7531ZM7.08918 74.6287C6.39913 74.6945 5.98876 74.1649 5.87843 74.6859C5.42506 74.5871 5.18726 74.4282 5.1469 74.1232C5.32028 74.0743 5.49241 74.0254 5.66579 73.9765C5.20182 73.9697 5.02937 73.8913 4.69862 73.7199C4.69915 73.7198 4.69967 73.7196 4.7002 73.7195C4.66661 73.2559 4.82131 73.2836 5.58407 73.1721C5.15354 73.6629 5.85044 73.6776 6.26482 74.0121C6.54977 74.2418 6.42072 74.5418 7.08918 74.6287ZM5.50156 25.8095C4.91905 25.4625 4.37573 25.7739 4.99456 25.1582C5.14256 25.1979 5.2893 25.2377 5.43729 25.2774C5.46016 25.4548 5.48138 25.6322 5.50156 25.8095ZM4.72401 76.3415C5.79219 76.3018 6.62368 75.975 4.88586 75.9193C4.53203 76.2377 5.51639 76.0822 4.72401 76.3415ZM6.70993 58.6602C6.66009 59.2726 5.45447 59.1568 4.85175 58.9051C5.07105 58.8663 5.29074 58.8275 5.5087 58.7894C5.40914 58.6822 5.30938 58.5749 5.21116 58.4676C5.7103 58.5318 6.21079 58.5961 6.70993 58.6602ZM5.89747 87.137C5.13463 86.6691 5.47321 87.6422 4.99694 87.3153C4.61623 87.0543 5.38488 86.7103 5.86653 86.8404C5.87998 86.9308 5.8894 87.0314 5.89747 87.1361C5.89747 87.1364 5.89747 87.1367 5.89747 87.137ZM5.67928 84.429C4.86423 84.5059 5.1018 84.3951 5.24845 84.7648C5.29016 84.8704 4.98405 85.7095 5.65944 85.3572C5.65944 85.0574 5.67121 84.7407 5.67928 84.429ZM5.51742 51.5819C5.87236 51.5763 6.65174 52.2223 6.45683 52.3053C6.45736 52.3053 6.45789 52.3053 6.45842 52.3053C5.92699 52.5291 5.85148 51.8476 5.1223 52.1432C5.76394 51.4886 4.21192 51.2928 6.25689 51.3384C6.3466 51.724 5.92505 51.5414 5.51742 51.5819ZM5.95222 2.46873C5.95222 2.46843 5.95222 2.46813 5.95222 2.46783C5.93553 2.51121 5.41461 2.8687 5.23418 2.82523C5.38888 2.39533 5.73177 2.47194 5.16832 2.07171C5.3498 2.04977 5.52582 2.03097 5.70864 2.00734C5.81627 2.16614 6.03429 2.25417 5.95222 2.46873ZM6.20929 22.5456C6.30212 22.7035 5.91745 22.9918 5.94032 23.1717C4.46309 22.599 5.84062 21.9146 6.20929 22.5456ZM5.31907 108.429C5.31854 108.428 5.31801 108.428 5.31748 108.427C5.31828 108.428 5.31906 108.428 5.31986 108.428C5.3196 108.428 5.31933 108.429 5.31907 108.429ZM5.32304 34.7861C5.41893 34.7657 5.50223 34.7542 5.57534 34.75C5.58222 34.75 5.5891 34.75 5.59597 34.75C5.50619 34.7611 5.41538 34.7728 5.32304 34.7861ZM5.41031 50.2391C5.90532 49.9701 6.69228 50.8666 6.50444 51.1565C6.2785 51.1363 6.07367 51.1331 5.81416 51.0858C6.39924 50.8518 5.3269 50.2839 5.41031 50.2391ZM5.592 70.6797C5.60546 69.971 7.55994 70.8933 6.00061 70.9313C5.9704 70.9299 5.59466 70.698 5.592 70.6797ZM5.61501 55.828C6.20675 56.0086 6.36388 55.6457 6.26165 56.2259C6.10838 56.2597 5.95474 56.2934 5.80147 56.3272C5.7396 56.1608 5.67689 55.9944 5.61501 55.828ZM8.15792 66.037C7.82831 65.1451 7.24682 64.292 5.61501 64.873C5.66743 64.9405 5.71811 65.0089 5.77052 65.0765C6.56664 65.0866 6.13207 65.3357 6.10614 65.7003C6.4222 65.7523 6.49529 65.9545 6.76388 65.9925C7.28307 66.0659 7.64809 65.8335 8.15792 66.037ZM6.86226 103.695C6.72638 103.68 6.58978 103.666 6.45524 103.652C6.30187 103.511 6.14923 103.369 5.99585 103.228C6.25663 103.251 6.51739 103.274 6.77816 103.297C6.8064 103.429 6.83482 103.561 6.86306 103.694C6.86279 103.694 6.86253 103.694 6.86226 103.695ZM7.33514 42.8227C5.83947 42.7417 6.11494 43.0249 6.871 43.5992C7.02571 43.3407 7.18043 43.0812 7.33514 42.8227ZM7.55175 80.3702C7.12683 80.3888 6.70322 80.407 6.27831 80.4265C6.72095 80.7314 7.20756 80.6748 7.76994 80.5286C7.69736 80.4755 7.62432 80.4234 7.55175 80.3702ZM7.73264 84.7626C7.82129 84.6361 7.47821 84.7007 7.4851 84.6874C7.66538 84.3673 7.82276 84.3222 7.56444 83.9294C7.47432 83.8813 7.37955 83.8339 7.28674 83.7858C6.39637 83.9674 6.88165 84.0993 6.35845 84.4835C6.66385 84.4142 6.96968 84.3453 7.27643 84.276C7.21187 84.4897 7.14819 84.7024 7.08363 84.9161C7.17781 84.9414 7.27111 84.9668 7.36529 84.9922C7.48634 84.9162 7.62237 84.8377 7.73264 84.7626ZM6.47587 105.326C6.44089 105.534 6.40453 105.743 6.36955 105.95C6.58883 105.958 6.8096 105.965 7.02888 105.973C6.84461 105.758 6.66015 105.541 6.47587 105.326ZM6.6536 38.5564C6.57581 38.5399 6.49755 38.5238 6.41795 38.5096C6.51496 38.511 6.59068 38.529 6.6536 38.5564ZM7.15504 1.92046C7.30839 1.68483 7.2077 1.34528 7.23994 1.08682C6.68981 1.10714 6.84188 1.76406 6.5084 1.99474C6.60711 2.0318 7.09051 2.02007 7.15504 1.92046ZM6.66153 59.5074C6.93596 59.5665 7.20909 59.6256 7.48351 59.6839C7.45391 59.8266 7.42266 59.9697 7.39306 60.1133C7.61775 60.1175 7.84437 60.1217 8.06905 60.1259C7.77715 59.4933 8.42505 59.6392 9.064 59.326C8.26364 59.3868 7.46324 59.4466 6.66153 59.5074ZM7.90085 111.938C7.74882 111.481 7.46487 111.319 6.79086 111.576C6.94553 111.737 7.10034 111.9 7.25501 112.061C7.47022 112.02 7.68564 111.978 7.90085 111.938ZM7.16139 30.2339C6.90954 29.8515 7.81411 29.8451 7.30896 29.4713C7.14217 29.6715 6.97352 29.8716 6.80673 30.0709C6.92466 30.1248 7.04344 30.18 7.16139 30.2339ZM9.64558 48.9891C9.96026 48.8278 8.46442 48.5262 9.56861 48.0727C9.23906 47.9646 8.92427 47.8968 8.60144 47.8039C8.95259 47.7499 9.30822 47.6885 9.65668 47.6369C9.65668 47.6366 9.65668 47.6363 9.65668 47.636C9.53829 47.2247 9.09789 47.4914 8.72521 47.4821C8.57072 47.4777 8.82897 47.1724 8.49274 47.2678C7.91556 47.4325 8.24746 48.048 7.54381 48.0497C7.77378 47.8335 7.58161 47.4112 7.11219 47.5361C6.59695 47.6729 7.46043 48.0709 7.03285 48.3243C8.15747 47.9611 7.81009 48.7112 6.94637 48.7965C7.60964 49.2366 7.88021 48.8321 7.84928 48.381C8.5112 48.6564 8.15358 48.251 8.70379 48.1843C9.03592 48.4682 8.75906 49.4427 9.64558 48.9891ZM8.42609 69.752C8.38341 69.4478 8.76175 68.9726 8.20314 68.7644C7.87769 68.6431 7.62567 69.1194 7.11457 68.791C7.1644 69.0873 7.36405 69.1549 7.81199 69.1042C7.86577 69.1718 7.91823 69.2402 7.97067 69.3077C7.88327 69.339 7.79703 69.371 7.70964 69.4022C7.89393 69.4377 8.07676 69.4734 8.26106 69.508C8.22476 69.5798 8.18842 69.6523 8.15078 69.7241C8.24345 69.7325 8.3241 69.7469 8.42609 69.752ZM7.13362 19.2538C7.139 19.3382 7.14435 19.4218 7.15107 19.5063C7.26017 19.497 7.37377 19.4859 7.48589 19.4752C7.57449 19.4676 7.66309 19.4599 7.75169 19.4523C7.43515 19.5012 6.90903 19.9035 7.24708 20.073C7.41666 20.1582 8.01871 19.9643 8.1238 20.3255C8.09284 20.0637 8.01068 19.8212 7.95956 19.567C8.1385 19.5899 8.31936 19.6118 8.4983 19.6346C8.49856 19.6344 8.49882 19.6343 8.49909 19.6341C8.53944 19.5497 8.58172 19.4642 8.62207 19.3798C8.12562 19.3376 7.63007 19.296 7.13362 19.2538ZM8.39197 80.1226C8.04082 79.8346 7.85847 79.7382 7.29071 79.8741C7.29045 79.8744 7.29018 79.8747 7.28992 79.875C7.54146 79.9823 7.79291 80.0896 8.04446 80.1969C8.16016 80.1724 8.27627 80.1479 8.39197 80.1226ZM8.52765 36.0752C6.37104 35.4629 7.69308 36.842 8.42768 36.5794C8.46132 36.5676 8.28951 36.1327 8.52765 36.0752ZM7.37323 58.5477C7.39072 58.7158 7.40652 58.8843 7.42401 59.0532C7.68905 59.0144 7.95317 58.9746 8.21822 58.9357C7.93703 58.8065 7.65442 58.677 7.37323 58.5477ZM8.87993 109.948C9.47191 109.771 9.68639 109.317 9.04258 109.095C8.96723 109.212 8.8918 109.328 8.81645 109.445C8.74248 109.224 8.66106 109.006 8.59112 108.784C7.76639 108.773 8.24485 109.029 8.01748 109.414C7.98081 109.473 6.95709 109.855 7.72868 109.986C7.88727 110.013 7.9951 109.607 8.45624 109.889C8.49253 109.766 8.48448 109.659 8.50464 109.543C8.70107 109.534 8.89772 109.526 9.09415 109.517C9.02303 109.661 8.95105 109.804 8.87993 109.948ZM8.36183 67.9812C8.40734 67.5634 8.0778 67.5118 7.49541 67.4248C7.56134 67.6191 7.62626 67.8134 7.69218 68.0077C7.91493 67.9985 8.13774 67.9904 8.36183 67.9812ZM9.06876 106.214C9.16402 105.985 8.68997 106.083 8.59985 105.991C8.26087 105.643 8.59966 105.406 8.38721 105.062C8.4787 105.085 8.56421 105.106 8.65301 105.128C8.65301 105.127 8.65301 105.127 8.65301 105.127C9.05255 103.499 7.97746 104.354 8.15236 105.328C7.97611 105.351 7.79964 105.373 7.62474 105.395C7.93282 105.831 8.22927 106.233 9.06876 106.214ZM8.60144 41.516C8.71176 41.4974 9.41284 41.6554 9.08463 41.3589C8.06101 41.1241 8.56907 41.5092 8.17537 41.6056C8.07716 41.5253 7.98161 41.4433 7.8834 41.3639C7.59413 41.8436 7.83753 41.9137 8.58557 41.7388C8.63584 41.7263 8.49147 41.5346 8.60144 41.516ZM9.10605 38.3628C7.59786 38.2969 8.27605 38.9024 8.74425 38.8805C8.76292 38.7969 8.50756 38.7319 8.62048 38.6433C8.73348 38.5537 9.08576 38.5308 9.10605 38.3628ZM8.73711 55.7105C8.74384 55.6928 9.37771 55.5146 8.88151 55.5323C7.70698 55.7527 8.46299 56.1969 8.87199 56.1192C8.85176 55.9723 8.67552 55.8743 8.7387 55.7105C8.73817 55.7105 8.73764 55.7105 8.73711 55.7105ZM9.23538 112.704C9.27746 112.695 9.53224 112.251 9.29568 112.193C9.02934 112.146 8.74389 112.123 8.46814 112.087C8.72377 112.332 8.52904 112.828 9.23538 112.703C9.23538 112.703 9.23538 112.703 9.23538 112.704Z" fill="#0BA6E2"/>
</svg>
