<svg width="13" height="49" viewBox="0 0 13 49" fill="none" xmlns="http://www.w3.org/2000/svg">
<path d="M1.25677 44.3782C0.670525 44.4875 1.05482 44.1225 0.17931 44.3649C0.120157 44.3144 0.0591496 44.2635 -2.54262e-06 44.213C0.32424 44.2001 0.647692 44.187 0.971934 44.1742C1.06741 44.2421 1.16288 44.31 1.25836 44.3782C1.25783 44.3782 1.2573 44.3782 1.25677 44.3782ZM5.31748 44.4709C4.39267 44.4087 4.1461 44.211 3.29268 44.4245C3.61007 44.4415 3.92739 44.4589 4.24478 44.4759C3.99862 44.55 3.75252 44.6246 3.5077 44.6987C3.6287 44.7254 3.74984 44.752 3.8695 44.7786C3.31796 44.8126 2.76493 44.8462 2.21205 44.8802C2.29277 44.85 2.3749 44.8195 2.45563 44.7894C2.00774 44.6702 1.88525 44.5642 1.80185 44.4024C1.67134 44.4166 1.54199 44.4308 1.41149 44.445C1.63346 44.3629 1.85599 44.2809 2.07796 44.1991C2.29585 44.2701 2.53817 44.3495 2.74126 44.4153C3.60604 44.31 3.12474 44.1243 2.94437 44.0276C2.69817 43.896 3.10937 43.9257 2.93723 43.828C2.91032 43.8125 2.58802 43.8107 2.58257 43.7799C2.55701 43.6243 2.72785 43.3222 3.47993 43.4989C3.38306 43.7549 3.987 43.9732 3.76635 44.2244C4.63597 44.158 4.93189 44.2903 5.31748 44.4709ZM2.54846 39.7675C2.97081 39.8451 2.80036 40.0031 2.5072 40.1102C2.5072 40.1103 2.5072 40.1104 2.5072 40.1105C2.44262 40.1341 1.88133 40.1875 1.9042 40.1105C1.9434 39.9852 2.82694 39.9245 2.22712 39.8587C2.33878 39.8293 2.43814 39.7983 2.54846 39.7675ZM2.49609 39.495C2.71269 39.4181 3.37845 39.453 3.19826 39.5493C3.19879 39.5493 3.19932 39.5493 3.19985 39.5493C3.12451 39.5895 2.59829 39.5106 3.13241 39.6547C2.71687 39.6841 2.33882 39.7131 1.93673 39.7422C1.93001 39.7069 1.9191 39.6747 1.91372 39.6377C2.59675 39.6626 2.28118 39.5719 2.49609 39.495ZM3.10385 43.3689C2.48938 43.3568 2.49326 43.4074 2.06685 43.4937C2.08703 43.4123 2.10856 43.3309 2.12874 43.2498C2.45418 43.2896 2.7784 43.3291 3.10385 43.3689ZM3.00864 45.2814C3.00864 45.2815 3.00864 45.2816 3.00864 45.2817C3.1055 45.3084 3.20272 45.3352 3.29823 45.3615C3.07893 45.3774 2.86059 45.3932 2.64128 45.4091C2.84713 45.5034 3.05296 45.5981 3.26015 45.6923C2.59026 45.6809 2.69926 45.5117 2.23109 45.4185C2.43291 45.28 2.82175 45.2132 3.38948 45.2042C3.26306 45.2298 3.13505 45.2554 3.00864 45.2814ZM5.67928 22.6186C5.49367 22.587 5.30791 22.5559 5.1223 22.5244C5.03759 22.5663 4.97293 22.6079 4.87476 22.6501C5.68189 22.7606 4.96793 22.771 5.01757 22.9158C5.17094 23.3596 6.42456 23.2419 4.58833 23.6427C4.67568 23.3209 3.81288 23.4445 3.14828 23.2505C3.65415 23.2103 4.79506 23.4026 5.03185 23.2723C4.49647 23.0478 3.99783 22.832 3.6521 22.5829C3.56466 22.5902 3.47692 22.5974 3.38948 22.6047C3.44464 22.6442 3.50014 22.6834 3.5553 22.7229C3.3212 22.6803 3.08913 22.6386 2.85234 22.5953C3.38371 22.65 3.0868 22.5105 3.69733 22.5292C3.9691 22.5375 4.34613 22.5992 4.60579 22.6356C4.74703 22.5417 4.8764 22.4454 5.01361 22.3505C5.23013 22.3997 5.44689 22.4488 5.66341 22.4976C5.67014 22.5378 5.67494 22.5777 5.68166 22.6178C5.68087 22.6181 5.68008 22.6183 5.67928 22.6186ZM2.85392 2.41453C3.48626 2.53371 3.59089 2.75029 2.88725 2.86427C2.87648 2.71426 2.86469 2.56455 2.85392 2.41453ZM3.85759 45.1951C3.7501 45.2086 3.64376 45.2217 3.53626 45.2352C3.33719 45.1756 3.13948 45.1157 2.9404 45.0561C3.25106 45.0447 3.56177 45.033 3.87108 45.0212C3.86705 45.0791 3.86163 45.1373 3.85759 45.1951ZM3.51166 41.3835C3.53046 41.4271 3.52028 41.4309 3.47596 41.4852C3.47622 41.4852 3.47649 41.4851 3.47675 41.485C3.4602 41.5065 3.27875 41.6866 3.03958 41.6665C3.03554 41.5771 3.03958 41.4818 3.03958 41.3903C3.19691 41.3875 3.35299 41.387 3.51166 41.3835ZM3.37202 42.4356C3.37149 42.4358 3.37096 42.4359 3.37044 42.436C3.3341 42.4685 3.26014 42.4994 3.24666 42.5329C2.87023 42.4121 3.54559 42.3929 3.35457 42.2831C3.16219 42.1733 2.78956 42.1055 3.71478 42.0123C3.85335 42.047 4.0516 42.0843 4.21305 42.1199C3.8431 42.2758 4.19125 42.3178 4.5558 42.4428C4.16032 42.4404 3.76751 42.4381 3.37202 42.4356ZM3.80761 24.5944C4.265 24.6242 3.81619 24.6574 3.81078 24.6608C3.81025 24.6608 3.80973 24.6607 3.8092 24.6606C4.23279 24.9245 3.55601 24.6263 3.48469 24.8754C3.37037 24.8383 3.24966 24.8019 3.134 24.7651C3.35458 24.7083 3.60453 24.6498 3.80761 24.5944ZM3.76477 33.1687C3.63157 33.1711 3.49808 33.174 3.36488 33.1764C3.39583 33.0267 2.87149 32.9886 3.34901 32.8642C3.48891 32.9657 3.62781 33.0672 3.76635 33.1687C3.76582 33.1687 3.76529 33.1687 3.76477 33.1687ZM4.48043 40.6291C4.73471 40.7951 4.84675 40.9178 4.44314 41.0772C4.44261 41.0773 4.44208 41.0774 4.44155 41.0776C4.41671 41.0868 4.13805 41.0423 4.06785 41.0543C4.10953 41.0872 4.1736 41.1211 4.22336 41.1544C4.00021 41.1589 3.77711 41.1632 3.5553 41.1677C3.61853 41.0741 3.6817 40.9806 3.74493 40.8867C3.61443 40.9005 3.48507 40.9147 3.35457 40.9286C3.28731 40.8489 3.2203 40.7695 3.15304 40.6899C3.51886 40.7176 3.88476 40.7452 4.25192 40.7726C4.32858 40.7248 4.40243 40.6769 4.48043 40.6291ZM5.22227 30.677C5.07697 30.7034 4.83326 30.6546 4.70814 30.6955C4.5846 30.7364 4.85576 30.8117 4.44552 30.7941C4.39039 30.739 4.32719 30.6812 4.26938 30.6251C3.52962 30.8056 4.19902 30.9857 3.28554 30.9885C3.52232 30.8153 3.41232 30.6728 3.15939 30.5051C3.88449 30.5121 4.51143 30.6798 5.19212 30.5742C5.20154 30.6081 5.2153 30.6438 5.22069 30.6767C5.22122 30.6768 5.22174 30.6769 5.22227 30.677ZM12.9502 47.6196C12.895 47.7221 13.1909 47.9571 12.7685 48.0867C12.6644 48.1185 11.3158 48.2247 11.138 48.2242C10.5393 48.2211 10.4578 48.0914 10.0677 48.2303C10.0636 48.1836 10.0411 48.1382 10.0304 48.0918C9.62811 48.1001 9.2269 48.1084 8.82598 48.1164C8.88652 48.1728 8.94737 48.2294 9.00925 48.2859C8.87606 48.2886 8.74257 48.2914 8.60937 48.2942C8.60668 48.0911 8.0926 48.211 7.61363 48.1057C7.37151 48.2027 7.13057 48.3004 6.88845 48.397C6.91804 48.3412 6.93996 48.2754 6.97493 48.2262C6.29288 48.2196 6.45549 48.337 6.32909 48.3571C5.61474 48.4704 5.97528 47.8937 4.98266 47.8465C4.87236 47.9386 4.76472 48.0353 4.65577 48.1295C4.53335 48.1025 4.41085 48.0751 4.28842 48.0481C4.97304 47.8343 5.21558 47.5947 5.64199 47.3456C5.61376 47.3231 5.58478 47.3005 5.55789 47.2784C5.24991 47.285 4.94312 47.2912 4.63514 47.2978C4.59882 47.2638 4.56277 47.2294 4.52645 47.1955C5.54077 47.2956 5.52695 47.157 6.14581 46.9896C6.50228 47.0787 6.28616 47.1885 6.95034 47.1809C6.43933 46.8754 7.1615 46.5176 6.58457 46.2203C6.44198 46.1466 5.58519 46.1468 5.66421 45.9733C5.75838 45.9792 5.92841 45.9802 6.05219 45.984C5.64184 45.684 5.39654 45.502 5.81496 45.1902C5.50701 45.2082 5.19778 45.2259 4.88983 45.2439C5.04321 45.3101 5.19902 45.3763 5.35239 45.4422C4.84388 45.4872 4.61945 45.4206 4.62483 45.6181C4.62887 45.7799 4.8534 45.6836 5.00408 45.7276C5.2098 45.7872 4.80511 45.8395 5.03503 45.9035C5.21127 45.9531 5.63085 45.8995 5.52456 46.0287C4.98102 45.9767 4.41977 45.9237 3.8695 45.8714C3.99193 45.8399 4.11624 45.8086 4.24002 45.7771C4.38533 45.8089 4.52872 45.8403 4.67402 45.8721C4.41303 45.7599 4.16687 45.6539 3.89647 45.5378C4.68219 45.5756 4.3876 45.4556 4.29477 45.3905C4.14962 45.289 4.69037 45.3759 4.60023 45.3094C4.5087 45.2429 3.90458 45.1712 4.03373 45.051C4.38348 45.1154 4.69711 45.0277 5.01995 45.0447C5.34278 45.0616 5.41426 45.1888 5.76656 45.0667C5.49883 44.8318 4.26941 45.0866 4.07023 44.928C3.83077 44.7375 5.83482 44.6921 6.26562 44.7489C6.60466 44.7936 6.53647 44.9474 6.87417 44.9924C7.4836 44.717 6.28049 44.7146 6.04505 44.6675C5.1881 44.4964 7.47535 44.6113 6.64804 44.4087C7.07577 44.4125 7.46047 44.4156 7.8707 44.4194C7.79268 44.3844 7.68899 44.3612 7.62712 44.3189C6.79373 44.4435 6.82945 44.3416 6.82815 44.2892C6.82546 44.2068 6.41896 44.3341 6.31402 44.3123C6.03319 44.2534 6.16071 44.1603 5.79353 44.2174C5.9644 44.1918 6.13577 44.164 6.30529 44.1376C6.09239 44.0413 4.30715 43.8149 4.66767 44.0304C4.00439 44.0103 4.32319 43.9406 4.42409 43.8862C4.52491 43.8318 4.10249 43.8328 4.18052 43.785C4.49266 43.5949 5.21524 43.7192 5.78163 43.7494C5.39149 43.4982 5.13337 43.7441 4.87238 43.3822C4.41091 43.3472 3.91849 43.5144 3.6521 43.3752C4.4538 43.3495 5.02971 43.247 5.29606 43.0471C5.11174 43.0277 4.92578 43.0083 4.74146 42.9889C5.48143 42.8798 6.2509 42.9356 5.33335 42.7336C7.02179 42.842 5.94161 42.7675 6.629 42.5867C6.76758 42.5499 7.11788 42.6348 7.29547 42.5835C7.37556 42.5603 7.11114 42.5038 7.31531 42.4471C7.4162 42.4194 8.06724 42.2898 7.75804 42.2001C6.94003 42.2659 6.24415 42.0954 5.56741 42.2416C5.73424 41.9714 5.34149 41.7822 6.45683 42.085C6.70438 42.0164 6.95088 41.9478 7.19709 41.8792C7.00201 41.8314 6.80846 41.7832 6.61472 41.735C7.28702 41.7277 7.47562 41.735 7.35736 41.5467C7.51604 41.6284 7.67735 41.7098 7.83738 41.7919C7.97314 41.7946 8.11424 41.8061 8.24599 41.8033C7.98777 41.7028 7.87664 41.4198 7.69774 41.3512C7.5188 41.2826 7.46982 41.4151 7.29627 41.3953C5.8651 41.2308 6.92064 41.2438 6.67502 41.1258C6.52972 41.0565 6.37194 41.2219 6.31005 41.1848C6.08322 41.0474 6.84384 40.9836 6.85354 40.8618C6.4218 40.905 5.98335 40.948 5.54757 40.9902C5.57045 40.8624 5.57428 40.7199 5.4357 40.6011C5.3816 40.5544 5.06051 40.5897 5.03899 40.5821C4.92867 40.5443 4.75391 40.3905 4.75257 40.3742C4.75001 40.2516 5.19475 40.2481 5.2191 40.129C5.25675 40.1758 5.29069 40.2197 5.327 40.2654C6.04805 40.2862 6.76906 40.3074 7.49145 40.3282C7.54391 40.2115 7.59529 40.0947 7.64775 39.9776C7.40696 40.0632 7.16732 40.149 6.92653 40.2346C6.344 40.1009 5.76013 39.9671 5.17625 39.8334C5.53411 39.7638 5.89189 39.6944 6.24975 39.6248C6.15535 39.4357 4.70269 39.4738 5.97523 39.3841C5.86765 39.3283 5.76013 39.2725 5.65389 39.2168C5.83546 39.2248 6.0174 39.2326 6.19897 39.2406C6.0873 39.1734 5.97637 39.1062 5.86335 39.039C5.22033 39.1097 4.54367 39.1789 3.91948 39.2489C3.77975 39.1167 4.32525 39.1141 4.46139 39.0944C4.82195 39.0421 4.3356 38.9382 4.66926 38.8967C4.78381 38.8826 5.14292 39.0122 5.5571 38.9676C5.63738 38.9588 7.15985 38.7853 6.80831 38.6746C6.53251 38.6766 6.19432 38.6852 5.8943 38.6897C5.72678 38.5408 7.16645 38.4648 7.57 38.4846C7.28748 38.4053 7.26388 38.2893 6.8226 38.273C6.81183 38.2325 6.80162 38.1923 6.79086 38.1517C7.86559 38.194 7.66907 38.0249 6.74484 38.0138C6.72197 38.0834 6.69789 38.1532 6.67502 38.2228C5.54221 38.1701 4.85844 38.3818 5.90779 37.9414C6.49707 37.8573 5.8275 38.0911 6.26879 38.0225C6.52564 37.9033 6.31073 37.7915 6.72104 37.6782C7.2336 37.5372 7.72659 37.7106 7.07411 37.3822C5.43948 38.1066 5.96985 37.2829 5.46268 36.9427C7.07716 36.8491 7.58854 36.5618 7.10823 36.1661C6.65889 36.2074 6.89039 36.3318 6.74246 36.4036C6.59449 36.4753 6.32791 36.3977 6.11804 36.487C5.90822 36.5764 5.62298 36.7662 5.30558 36.8566C5.05127 36.78 4.45003 36.4018 5.17229 36.6519C5.61751 36.4652 6.07504 36.3775 6.15851 36.1462C5.45758 36.0769 5.02113 36.082 5.00091 35.8565C5.97491 35.9899 6.65183 35.7336 7.65807 35.7901C7.4237 35.95 6.44571 35.8606 5.97761 35.9531C5.93082 35.9626 6.17599 36.1116 6.15851 36.1462C7.03705 35.9958 7.36406 35.9438 8.40943 36.0364C8.31794 35.93 8.44919 35.8638 7.95004 35.8541C8.16658 35.832 8.38331 35.8097 8.59985 35.7879C8.59446 35.7532 8.57441 35.7221 8.57843 35.6854C7.8255 35.7359 8.289 35.638 7.94766 35.5683C7.60593 35.4987 7.01157 35.5921 7.0035 35.4009C6.82725 35.4646 6.67603 35.5229 6.5092 35.5846C6.31549 35.4613 6.12054 35.3376 5.92683 35.2142C5.46678 35.3009 4.78343 35.4885 4.17814 35.4834C4.40666 35.4266 4.00503 35.232 3.98851 35.2107C3.92662 35.1283 4.30836 35.1732 4.31778 35.167C4.50328 35.0374 4.37331 34.9307 4.95172 34.8816C4.69074 34.7842 4.83953 34.7108 4.82477 34.6076C4.8167 34.5508 4.39186 34.5618 4.47249 34.5286C5.01062 34.3075 5.55962 34.5181 4.51454 34.0918C4.21859 34.1434 3.91583 34.1943 3.61719 34.2459C3.50552 34.1977 3.39324 34.1499 3.28157 34.1017C3.33539 34.0695 3.38961 34.0376 3.44343 34.0054C4.08512 34.006 4.72816 34.0069 5.36985 34.0076C5.40483 33.9722 5.43881 33.9368 5.47379 33.9014C5.53702 33.962 5.60018 34.0228 5.66341 34.0834C5.77633 34.089 5.88929 34.0942 6.0022 34.0997C6.17711 34.0096 6.35358 33.9199 6.52983 33.8298C6.3066 33.828 6.08182 33.8263 5.85859 33.8246C6.16937 33.6216 6.35834 33.6168 5.74355 33.4238C5.75028 33.2752 4.81695 33.1541 4.4241 33.0682C4.54919 33.0374 4.67588 33.0065 4.80097 32.9754C4.6153 32.9556 4.43045 32.9357 4.24478 32.9159C4.50307 32.8768 4.76142 32.8371 5.01836 32.7979C4.43209 32.7761 4.24905 32.7648 4.04325 32.9176C3.31407 32.8653 3.63574 32.5963 3.8806 32.4869C4.06642 32.4038 4.67462 32.496 4.7486 32.4856C4.99994 32.4509 4.78307 32.314 4.82477 32.2853C4.99831 32.1636 4.96793 32.0785 5.10247 31.9686C5.12939 31.9472 5.51485 31.8875 5.52695 31.8824C5.59287 31.8429 5.78022 31.7454 5.7856 31.7343C6.07333 31.1625 4.40103 31.7735 4.57722 31.2418C4.35669 31.2577 4.13763 31.2724 3.9171 31.2879C3.90365 31.2478 3.89088 31.2072 3.87743 31.167C4.06174 31.1161 4.39694 31.1777 4.12656 31.0765C4.39832 31.0831 4.6702 31.0897 4.94061 31.0967C4.79396 31.0527 4.6485 31.0103 4.50185 30.9652C5.44494 30.8946 5.65912 30.6365 6.76626 30.6549C7.14298 30.6611 7.52952 30.844 7.93179 30.7474C8.01098 30.6688 7.56107 30.722 7.53747 30.69C7.37333 30.4585 8.00396 30.472 7.83579 30.3774C7.56552 30.3625 7.28995 30.3468 7.01698 30.3316C7.09632 30.2959 7.17567 30.2602 7.25501 30.2242C7.07338 30.2158 6.89156 30.2072 6.70993 30.1989C6.69782 30.2325 6.68554 30.2703 6.67343 30.3011C5.96995 30.2581 5.65395 29.8633 6.25372 30.0139C6.4972 30.0752 6.39376 30.1875 7.22486 30.1165C7.10513 30.0109 6.98279 29.891 6.86306 29.7798C7.042 29.7763 7.22127 29.7731 7.4002 29.7696C7.28437 29.6198 6.56894 29.7561 6.18548 29.7558C6.17473 29.7215 6.1653 29.6869 6.15454 29.6526C6.32792 29.638 6.50939 29.6242 6.6774 29.609C6.40148 29.6076 5.76016 29.5884 5.99824 29.4862C6.1532 29.4205 6.84931 29.524 6.75278 29.3987C6.32233 29.4081 5.79807 29.4533 5.65945 29.3138C6.1087 29.2999 6.52026 29.2808 6.99239 29.27C6.5608 29.0965 7.25456 29.0175 6.75278 28.8138C6.43525 28.6846 5.30812 28.5076 7.04475 28.4241C7.09047 28.3296 6.658 28.3596 6.56077 28.3316C6.10064 28.1996 6.92412 28.1014 6.97255 28.0768C7.28303 27.92 6.99798 27.8496 7.38672 27.7218C7.06517 27.7288 6.76079 27.7325 6.44731 27.7381C6.92896 27.8552 6.90636 27.9145 6.80276 28.0787C6.7382 28.0236 6.67214 27.9685 6.60758 27.9135C6.34664 27.9225 6.08566 27.9314 5.82606 27.94C6.85395 28.4479 5.22994 28.3295 4.87476 27.9037C5.35766 27.867 5.83929 27.8289 6.32354 27.7925C5.59167 27.5466 6.22701 27.4308 6.37908 27.1526C6.39647 27.1196 6.11829 26.9991 6.10455 26.9473C6.1027 26.9482 6.10085 26.9491 6.099 26.9499C5.64298 26.9177 5.4331 26.9613 5.02551 26.9665C4.97439 26.9385 4.92349 26.9104 4.87238 26.8824C5.18308 26.8197 5.43828 26.8417 5.3643 26.7184C5.05489 26.735 4.7454 26.7515 4.436 26.7681C4.42523 26.633 4.76141 26.5445 4.6161 26.4188C4.73315 26.4399 4.85054 26.4608 4.96759 26.4819C5.26627 26.2082 7.08539 26.426 6.17993 26.2192C6.33863 26.206 6.49887 26.1932 6.65757 26.1801C6.69658 26.2653 6.7344 26.3505 6.7734 26.4354C6.998 26.4371 7.22163 26.439 7.44622 26.4404C7.37895 26.3493 7.30959 26.2577 7.24231 26.1666C7.393 26.2331 7.54388 26.3 7.69456 26.3665C7.80218 26.2609 7.90987 26.1552 8.01748 26.0495C7.19161 26.1617 7.09061 26.0163 6.27276 26.0436C6.95353 25.8566 7.85092 25.7096 7.27643 25.4196C7.16199 25.3621 6.59046 25.3934 7.28595 25.2302C6.37659 25.2697 5.94986 25.0653 5.08501 25.0915C5.12671 25.1483 5.15293 25.2073 5.20403 25.2623C5.50403 25.1996 6.32934 25.1892 6.57426 25.2845C6.88637 25.4061 6.31439 25.5834 7.23041 25.5762C7.18738 25.6247 7.16199 25.6698 7.12568 25.7169C6.89845 25.6975 6.66978 25.6785 6.44255 25.6594C6.7988 25.7935 6.68295 25.8777 6.11011 25.9421C5.97828 25.7824 5.84785 25.6231 5.71737 25.4634C5.67841 25.4869 5.63915 25.5107 5.60153 25.5343C5.01628 25.4134 4.46194 25.5381 4.33682 25.3125C4.60449 25.3139 4.87233 25.315 5.14135 25.3164C4.42559 25.2343 4.42947 25.0095 3.60608 25.0812C3.85899 25.0133 4.01896 24.9995 3.57514 24.961C4.20075 24.7819 4.99188 24.6669 5.93635 24.7306C5.78435 24.6641 5.63213 24.5976 5.48013 24.5314C5.22187 24.5699 4.96481 24.6083 4.70655 24.6468C4.7227 24.5311 4.73856 24.4145 4.75336 24.2992C5.51744 24.2881 4.98517 24.5219 5.66817 24.4544C5.80527 24.4409 5.51161 24.3787 5.58883 24.3623C6.42425 24.1898 5.82068 24.4606 6.4608 24.4097C6.65857 24.1527 7.73116 24.3584 6.82974 24.0043C7.05033 23.995 7.27537 23.9849 7.49462 23.9763C7.50787 23.8533 7.00959 23.8633 6.91543 23.7577C6.85685 23.6915 7.73182 23.6085 7.136 23.5354C7.02615 23.5224 5.95672 23.6453 6.00379 23.387C6.04027 23.1865 6.79602 23.2699 7.0638 23.1615C7.33153 23.0531 6.28362 22.805 7.47161 22.7319C7.31426 22.7887 7.22938 22.8611 7.10029 22.9241C7.33167 22.9497 7.56054 22.9747 7.79057 23C7.49191 22.8559 7.84391 22.7069 7.2923 22.6099C8.13586 22.4176 7.35304 22.2026 6.4005 22.2608C6.53784 22.3241 6.95319 22.2552 6.68851 22.3431C6.46652 22.3521 6.24562 22.3616 6.02363 22.3706C6.05053 22.221 6.0443 22.117 6.72104 22.1853C6.73718 22.1621 6.75329 22.1391 6.76944 22.1158C6.27971 22.1117 5.78817 22.108 5.29844 22.1038C5.24328 22.0761 5.18857 22.0483 5.13341 22.0206C5.24098 21.9898 5.3498 21.9589 5.45871 21.9277C6.23366 21.9696 6.25926 22.041 6.69248 21.8048C6.42474 21.8041 6.15807 21.8031 5.89033 21.8024C6.2307 21.6046 6.87926 21.5993 6.85513 21.351C7.78468 21.5415 6.13692 21.6458 8.00162 21.6451C7.87918 21.6929 7.75511 21.7411 7.63268 21.7889C7.9031 21.7962 8.17392 21.8034 8.44434 21.8103C8.3017 21.5536 6.52324 21.1272 7.7025 20.9553C7.55859 20.9345 7.43349 20.9137 7.27881 20.8926C7.99053 20.7242 6.39267 20.6515 7.31293 20.4807C7.40951 20.4631 8.91071 20.4999 8.85692 20.2776C8.66181 20.2831 8.33342 20.286 8.0873 20.2905C8.207 20.2424 8.33227 20.1945 8.45466 20.1467C8.27445 20.138 8.09431 20.129 7.91275 20.1203C7.84279 20.2024 7.77166 20.2843 7.7017 20.3664C7.63984 20.2982 7.57791 20.2295 7.51604 20.1613C7.22151 20.2503 7.21838 20.2904 6.74643 20.2368C6.71818 20.1595 6.6882 20.0822 6.65995 20.0049C6.53902 19.9969 6.41669 19.989 6.29577 19.9811C5.93523 20.0185 5.58264 20.0563 5.21672 20.0937C5.51135 19.8924 5.52735 19.7174 6.23626 19.5629C6.35599 19.5366 6.82571 19.6297 6.40209 19.4503C6.65086 19.4475 6.85286 19.4427 7.08284 19.4396C6.38592 19.2199 6.59394 19.1478 7.09712 18.9188C6.62757 19.0671 6.93296 18.9348 6.68137 18.897C6.50804 18.8711 6.53364 18.9721 6.3521 18.9607C6.17183 18.9493 5.44391 18.818 5.35636 18.9302C6.84841 19.2053 5.06453 19.2803 5.78163 19.6336C5.58924 19.5792 5.39642 19.5245 5.20403 19.4701C5.07363 19.4957 4.95532 19.5186 4.81684 19.5463C5.10873 19.3492 4.9191 19.4451 4.6891 19.3641C4.45903 19.283 4.26359 19.1357 4.20035 19.0369C4.18048 19.0058 4.51513 19.0386 4.54628 18.9685C4.56781 18.9206 4.07171 18.79 4.65657 18.7598C5.03728 18.7401 6.08563 18.95 6.08313 18.6598C6.45637 18.6051 6.34045 18.7443 6.38542 18.7473C6.82941 18.7726 7.16323 18.5942 6.82418 18.5117C6.79494 18.505 6.44897 18.5701 6.31322 18.4993C5.98898 18.3313 6.38575 18.2343 6.92257 18.1255C6.29292 18.1137 5.54094 17.9723 5.7737 17.7963C5.59351 17.7873 5.41174 17.7787 5.23021 17.7697C5.32558 17.797 5.41967 17.8244 5.51505 17.8517C5.40203 17.8815 5.31977 17.9131 5.18657 17.9422C5.03173 17.7652 4.16397 17.7401 3.84649 17.6553C2.76193 17.3648 5.05613 17.5408 5.45157 17.5932C5.29147 17.631 5.11275 17.6675 4.94458 17.7049C5.16388 17.7008 5.38485 17.6965 5.60549 17.6927C5.59879 17.258 7.02905 17.6265 7.4367 17.4058C6.35776 17.349 6.25377 17.1869 6.93844 16.9805C6.93305 16.9576 6.93168 16.9347 6.92495 16.9118C6.76763 16.908 6.52716 16.908 6.42351 16.9018C6.24053 16.6531 7.90212 16.6088 8.05954 16.5852C8.75768 16.4806 7.79171 16.3991 7.78343 16.3683C7.74979 16.2384 8.17871 16.2006 7.99448 16.0769C7.7954 15.9439 7.46629 16.0349 7.1717 15.9944C6.93776 15.962 6.89609 15.857 6.6536 15.8137C6.85193 15.8309 7.04642 15.85 7.24549 15.8672C7.51586 15.7294 7.7794 15.6167 7.84531 15.4601C6.39415 15.2835 8.84208 15.1331 6.85671 15.1941C6.72083 15.3424 6.49459 15.4253 5.98872 15.5046C5.92415 15.4073 5.86127 15.3099 5.79671 15.2126C6.01461 15.1842 6.22696 15.164 6.4489 15.1304C5.98617 15.0577 6.18474 14.889 6.04902 14.8228C5.41265 14.5127 4.62337 14.6087 5.94984 14.3256C6.07909 14.5296 6.72334 14.5293 6.63456 14.7316C7.09467 14.688 6.99934 14.5852 7.55095 14.6517C7.41509 14.456 6.92261 14.5192 6.4854 14.4431C6.10848 14.3774 6.08738 14.2451 5.59756 14.2525C5.86687 14.239 6.12758 14.2285 6.39653 14.2151C6.39384 14.0883 6.39367 13.9615 6.39098 13.8347C6.67213 13.8888 6.95379 13.9428 7.23359 13.9968C7.33978 13.956 7.44556 13.9151 7.55175 13.8742C6.67725 13.5624 8.27998 13.0248 6.08313 13.1107C6.01318 12.9603 6.28871 12.9415 6.70438 12.8598C6.5376 12.8508 6.39888 12.842 6.21325 12.833C6.38784 12.736 5.76168 12.6616 5.92445 12.576C6.08596 12.4904 6.67741 12.4692 5.68325 12.4567C5.96842 12.4013 6.20531 12.3462 6.47032 12.2911C6.24447 12.2579 6.02122 12.2247 5.79671 12.1918C5.91509 12.1398 6.03298 12.0878 6.15137 12.0358C5.6768 12.008 5.88136 11.8037 5.56265 11.7136C6.07421 11.6281 7.68486 11.6305 7.39624 11.4293C6.99676 11.4345 6.59845 11.4396 6.19897 11.4448C6.28237 11.3988 6.3655 11.3526 6.4489 11.3062C6.57928 11.3034 6.70967 11.301 6.84005 11.2982C6.7997 11.3218 6.75956 11.345 6.71787 11.3686C6.93851 11.3481 7.15814 11.3281 7.37878 11.308C7.05191 11.2377 6.725 11.1673 6.39812 11.0966C6.15063 11.1919 5.90297 11.2872 5.65548 11.3824C5.36218 11.2629 5.65473 11.1797 5.3278 11.0758C5.87932 10.9854 6.19711 11.0188 6.79562 11.0555C6.74452 11.0219 6.69518 10.9879 6.64408 10.9543C7.24267 10.9765 7.59934 10.9196 7.55096 11.116C7.72169 11.1025 7.88447 11.0887 8.06192 11.0756C8.03501 11.0434 8.17933 11.0225 8.11349 10.9872C7.9332 10.8908 6.88181 10.817 6.51316 10.8236C6.32006 10.8271 6.68935 10.9221 6.41637 10.9183C5.75067 10.9089 6.04955 10.6911 5.38096 11.0053C4.95716 10.901 5.27677 10.8777 5.39921 10.7627C5.17737 10.7717 4.95695 10.7804 4.73512 10.7891C4.83732 10.7357 4.93917 10.6823 5.04138 10.629C6.18087 10.7031 6.60886 10.3099 7.6057 10.6639C7.65681 10.5593 7.7082 10.455 7.762 10.3508C7.87903 10.3723 7.99488 10.3937 8.1119 10.4152C8.05002 10.4623 7.98916 10.5092 7.92862 10.5563C8.14247 10.5008 8.35506 10.4453 8.56891 10.3899C8.30386 10.259 7.89623 10.2076 7.39306 10.1477C7.02588 10.3001 7.52744 10.2503 7.62712 10.3691C7.30847 10.3649 7.01537 10.3704 6.68058 10.36C7.34062 10.2986 6.86044 10.0985 6.82815 10.0521C6.73011 9.9108 7.37863 10.0216 7.39227 9.92708C7.40573 9.8325 7.01972 9.72094 7.66283 9.64368C7.30237 9.64507 6.92944 9.65125 6.60123 9.65679C6.48284 9.50955 6.90866 9.53893 6.96383 9.52368C7.87059 9.28048 7.10506 9.14851 7.01222 8.87031C6.90058 8.90565 6.79978 8.94134 6.69486 8.97702C5.92954 8.76714 6.16388 8.90853 5.91096 9.09075C5.98765 8.91995 5.33588 8.82214 5.14214 8.70157C4.94873 8.58102 5.28348 8.37429 5.5444 8.29873C5.96417 8.47161 5.68735 8.65807 5.80306 8.85001C6.17025 8.82818 6.48102 8.80698 6.88448 8.78447C6.1138 8.66773 6.62911 8.60008 6.73135 8.56163C7.03123 8.44871 6.36976 8.45226 7.08125 8.38403C6.83649 8.3868 6.63069 8.38882 6.40209 8.39159C6.50433 8.15845 6.93704 7.90696 6.03315 7.75521C6.62103 7.74135 7.18741 7.7309 7.78739 7.71496C7.34486 7.61624 7.79803 7.53169 7.69456 7.44856C7.59097 7.36576 7.11587 7.39728 6.93288 7.29994C6.89925 7.28192 7.19662 7.24441 6.97731 7.20006C6.75686 7.15528 5.11766 6.99014 6.54966 6.97039C6.5564 6.88691 6.60876 6.8079 6.63297 6.72614C6.71369 6.80582 6.79187 6.88552 6.87258 6.96485C7.21965 6.89696 7.56569 6.82948 7.91275 6.76159C7.60331 6.75293 7.28827 6.74424 6.98287 6.73593C6.60616 6.553 7.1121 6.42026 6.99239 6.23561C6.97221 6.20477 6.36041 6.27751 6.51634 6.14071C6.6724 6.00387 7.81428 5.90232 7.37323 5.66919C7.35036 5.65741 6.47582 5.58838 7.08125 5.50488C7.21847 5.48588 7.42151 5.56585 7.60173 5.52224C7.78202 5.47858 7.93026 5.28381 8.35945 5.26857C8.20746 5.27065 8.04998 5.2828 7.8953 5.28869C7.82267 5.25544 7.74998 5.22186 7.6787 5.18826C7.94639 5.18514 8.21449 5.18178 8.48084 5.17866C7.85795 4.98743 6.84184 4.8886 7.17805 4.60523C6.78926 4.68491 6.39892 4.76461 6.01014 4.84394C6.28326 4.86577 6.55821 4.88763 6.83133 4.90912C6.72237 5.03971 6.61419 5.17066 6.50523 5.30125C6.81602 5.32273 7.12592 5.34383 7.4367 5.36531C7.39635 5.39995 7.35725 5.43425 7.3169 5.46888C7.09223 5.46022 6.86875 5.45149 6.64408 5.44248C6.69923 5.51106 6.75555 5.57973 6.8107 5.64796C5.48453 5.50904 6.9235 5.26002 5.81416 5.27798C5.98628 5.24717 6.1596 5.21631 6.33306 5.18549C5.79516 5.17197 5.94997 5.10931 6.03473 4.99884C5.76969 5.02413 5.50826 5.05206 5.24052 5.07527C5.6145 4.96787 5.57818 4.77736 5.72213 4.66616C5.78535 4.61731 6.17534 4.6661 6.22119 4.65157C6.46067 4.57708 5.78018 4.43471 5.834 4.40492C6.15426 4.22685 7.44436 4.11114 6.59409 3.91678C6.38421 4.11738 6.47285 4.00825 6.00062 4.07962C5.85256 4.10196 5.54369 4.36111 5.68087 4.0366C5.69804 3.99856 6.5894 3.40975 7.27247 3.6033C7.05451 3.50803 6.80249 3.43343 6.57108 3.34613C8.37123 3.13271 6.68012 3.20657 5.7491 3.26859C5.74507 3.23359 5.73562 3.20031 5.73562 3.16428C6.71372 3.24084 6.77446 2.85076 6.28069 2.71842C6.11656 2.67408 5.80348 2.79807 5.65548 2.69553C5.72407 2.6467 5.81289 2.5913 5.88954 2.53971C5.2707 2.61453 5.03222 2.46768 4.40267 2.46974C4.96366 2.37586 6.15272 2.30405 6.79721 2.35564C6.53625 2.27805 6.27561 2.20006 6.01331 2.12247C5.86398 2.1585 5.71595 2.19499 5.56662 2.23102C5.96217 1.97742 5.0621 1.65134 6.38463 1.59833C6.37521 1.56473 6.36707 1.53077 6.35766 1.49716C6.13432 1.48677 5.91055 1.47672 5.68722 1.46633C5.88091 1.31427 6.07589 1.16256 6.26959 1.0105C6.40819 1.14589 6.72607 1.17813 6.46794 1.32011C6.7248 1.26539 6.98308 1.20966 7.23994 1.15598C6.54841 0.942227 6.09392 0.913067 6.29974 0.591232C6.30915 0.576681 6.88907 0.33351 6.94558 0.325195C7.20387 0.287101 7.57911 0.344926 7.70964 0.327964C8.07559 0.280847 8.99445 -0.00546328 9.13303 7.9946e-05C10.8336 0.0700641 10.8562 1.03336 10.9436 1.29389C11.8504 3.99619 10.6372 6.63897 10.8444 9.32429C10.8476 9.3519 11.0987 9.33985 11.1094 9.35162C11.1725 9.4247 10.7812 9.49648 10.7651 9.5235C10.7318 9.58123 11.0933 9.54944 11.0936 9.59162C11.0895 10.0275 10.877 10.4387 10.9388 10.8749C10.9429 10.9033 10.6537 10.8743 10.7048 10.9242C10.7328 10.95 11.1765 11.0306 11.1832 11.0887C11.2061 11.2917 11.0638 11.4622 11.0706 11.6763C11.0746 11.7934 11.0369 11.9691 11.0436 12.1C11.0464 12.1579 11.2494 12.2181 11.2562 12.2753C11.2656 12.3563 10.8541 12.3398 10.8286 12.3522C10.7169 12.407 11.1686 12.4146 11.1578 12.4665C11.1363 12.5632 10.8348 12.5684 10.8603 12.691C10.8791 12.7787 11.1172 12.9793 11.1872 13.0898C10.8374 13.3482 10.9763 13.6739 11.092 13.915C11.1606 14.0578 10.7384 14.071 10.7397 14.1292C10.7479 14.3343 11.2871 14.4899 11.3046 14.6825C11.3274 14.9381 10.9708 15.1647 10.9452 15.4123C10.9412 15.4525 11.328 15.4432 11.3379 15.4826C11.3743 15.6285 11.4447 15.815 11.3895 15.9449C11.3289 16.0897 10.7674 16.1431 10.8817 16.2848C10.9157 16.3264 11.408 16.3385 11.4712 16.4081C11.5706 16.5193 11.1365 16.6413 11.088 16.7189C11.0234 16.8252 11.525 16.7327 11.4577 16.8762C11.4548 16.8821 11.0963 16.9035 11.1134 16.9343C11.1618 17.024 11.4442 17.0151 11.4173 17.1464C11.4136 17.159 11.0719 17.3331 11.0706 17.3504C11.0652 17.4523 10.9456 17.6574 11.0182 17.7177C11.2765 17.9331 11.8158 17.7635 10.6453 17.9468C10.9318 18.0275 11.2222 18.1075 11.5006 18.193C11.2409 18.136 10.8662 18.3677 10.8904 18.3839C11.0856 18.5186 11.541 18.4384 11.4657 18.6092C10.4136 18.3836 11.3301 18.8295 11.357 18.9289C11.4874 19.4077 11.2249 19.8429 11.2316 20.3241C11.2344 20.4852 11.4568 20.7011 11.4514 20.8715C11.4511 20.9112 11.2021 20.8812 11.1967 20.9162C11.193 20.9511 11.4725 20.9124 11.4577 20.9522C11.3608 21.1999 10.8334 21.394 11.4927 21.6209C11.3973 21.6319 11.322 21.6316 11.2173 21.6499C11.8079 21.8356 11.0137 22.1932 10.9047 22.3276C10.7353 22.5378 11.1345 22.5916 11.0539 22.7443C10.9463 22.9463 10.1664 23.2495 11.4538 23.1141C11.4941 23.2526 11.5053 23.386 11.3855 23.526C11.372 23.5416 11.0448 23.5308 11.038 23.537C10.991 23.5765 11.284 23.5894 11.2975 23.6161C11.3337 23.6884 10.9829 23.5704 11.0809 23.6735C11.1333 23.7279 11.3889 23.7588 11.3943 23.9098C11.4225 24.8203 11.331 25.8087 11.288 26.742C11.2853 26.8061 11.6017 26.7639 11.5815 26.8443C11.5115 27.1236 10.979 27.6234 11.0515 27.8642C11.1242 28.1049 11.5869 28.0506 11.7807 28.2013C11.8183 28.2304 11.5546 28.2065 11.5506 28.2328C11.5263 28.4099 11.115 28.6209 11.0531 28.7644C11.0116 28.8592 11.4265 28.8516 11.4562 28.9174C11.4992 29.0155 11.08 29.1164 11.0666 29.1687C11.0075 29.4146 11.3451 29.5837 11.1729 29.8134C11.2642 29.8044 11.3487 29.7985 11.4387 29.7909C11.4239 30.0628 11.4091 30.3344 11.3943 30.6063C11.4777 30.5935 11.5618 30.5811 11.6466 30.5683C11.6008 30.8874 10.6967 30.8509 12.6058 30.8229C12.6731 30.8461 12.751 30.8707 12.8129 30.8928C11.8295 30.8838 11.1098 31.0769 10.8595 31.3225C10.8407 31.3405 11.7995 31.4614 10.6667 31.4482C10.9438 31.4797 11.1349 31.4985 11.3784 31.5252C11.0354 31.5771 10.6965 31.6298 10.3549 31.6817C10.406 31.7098 10.4553 31.7382 10.5064 31.7663C10.7284 31.7704 10.9589 31.7672 11.1769 31.7763C11.2105 31.9065 10.9361 32.1736 10.9642 32.2766C11.0355 32.5323 11.6357 32.7926 10.9872 32.9914C11.0534 33.0883 11.4891 32.9921 11.4339 33.1362C11.2133 33.1524 11.0019 33.1678 10.7746 33.1847C11.7602 33.3025 11.1606 33.3271 10.9547 33.4884C10.8148 33.5975 11.0557 33.669 11.0087 33.7729C10.9966 33.7992 10.7073 33.7955 10.7167 33.8135C10.7465 33.8739 11.1447 34.046 11.1555 34.0886C11.2604 34.4745 11.2157 34.8061 11.1094 35.1736C11.0987 35.2131 11.3842 35.1619 11.3721 35.2028C11.353 35.2686 10.9144 35.2299 10.8928 35.268C10.8353 35.3742 11.2979 35.3751 11.3221 35.5233C11.4014 36.0114 11.0539 36.5726 11.0229 37.0826C11.0229 37.0985 11.294 37.0976 11.2967 37.1149C11.3099 37.2278 10.9436 37.3421 10.9476 37.4446C10.953 37.6147 11.3337 37.7426 11.3324 37.9106C11.331 38.239 11.1361 38.5325 11.1253 38.8703C11.1159 39.1467 11.152 39.3868 11.1507 39.69C11.1453 41.0141 12.0056 42.3653 11.5482 43.6984C11.5361 43.7324 11.2966 43.7185 11.307 43.7289C11.4106 43.8273 11.7337 43.8361 11.0571 43.8711C11.1904 43.9964 11.6988 44.036 11.6624 44.1873C11.6434 44.268 10.8555 44.2077 11.2618 44.3442C11.629 44.4675 12.0608 44.3315 11.6196 44.698C11.6075 44.7077 11.1272 44.7554 11.2522 44.8316C11.376 44.9082 11.7199 44.8196 11.8235 45.0039C12.0657 45.4366 11.6505 45.9843 11.7783 46.4873C11.7864 46.5188 12.0431 46.8225 12.1615 46.8824C12.3916 46.9984 12.7484 46.9741 12.8359 47.1248C12.9032 47.2412 12.4989 47.3372 12.5796 47.4741C12.5894 47.49 13.0053 47.5167 12.9502 47.6196ZM4.87317 22.1162C4.46517 22.0878 2.9634 22.0365 3.42042 21.8648C3.46347 21.8485 4.49622 21.9364 4.66053 21.8415C4.76951 21.9344 4.8048 22.0248 4.87476 22.1162C4.87423 22.1162 4.8737 22.1162 4.87317 22.1162ZM3.3744 48.3641C3.44975 48.2356 3.52439 48.1066 3.59973 47.9781C3.78136 48.0668 3.96263 48.1556 4.1456 48.244C3.88868 48.2841 3.63132 48.324 3.3744 48.3641ZM4.08769 32.3639C4.08769 32.364 4.08769 32.3641 4.08769 32.3643C3.89395 32.2291 3.69985 32.094 3.50611 31.9588C3.64872 31.973 3.79194 31.9873 3.93456 32.0015C4.15919 32.1082 4.38353 32.2149 4.60817 32.3213C4.43465 32.3355 4.2612 32.3497 4.08769 32.3639ZM5.59756 33.4314C5.42804 33.5176 5.14215 33.4965 4.86365 33.544C4.86418 33.544 4.86471 33.544 4.86524 33.544C4.79273 33.5565 4.7293 33.6149 4.71845 33.6374C4.89739 33.6291 5.07404 33.6183 5.25163 33.6093C5.68485 33.8106 4.14538 34.2043 3.52515 33.6946C3.75113 33.7023 3.97596 33.7095 4.20194 33.7172C4.13871 33.4639 4.62888 33.1816 5.59756 33.4314ZM4.22257 20.0799C3.4826 19.8637 3.32658 19.7944 3.83379 19.5321C4.04353 19.5691 4.25324 19.6062 4.46297 19.6432C4.24906 19.6865 4.0366 19.7295 3.82269 19.7728C3.82269 19.773 3.82269 19.7731 3.82269 19.7732C4.04735 19.7819 4.27242 19.7906 4.49709 19.7989C4.40561 19.8924 4.31405 19.9863 4.22257 20.0799ZM5.0628 41.7068C3.58492 41.767 4.44395 41.7496 4.11069 41.5775C3.99499 41.5179 3.73641 41.576 3.69336 41.5389C3.45819 41.3388 4.44837 41.3227 4.96362 41.3674C4.9986 41.4807 5.03051 41.5952 5.0628 41.7064C5.0628 41.7065 5.0628 41.7066 5.0628 41.7068ZM5.36985 46.9007C5.36985 46.9008 5.36985 46.9009 5.36985 46.901C5.00937 46.9062 4.91241 46.8255 4.57088 46.9165C4.57222 46.8473 4.57509 46.7781 4.57643 46.7085C4.61001 46.7289 4.64202 46.7497 4.67561 46.7701C4.79938 46.7521 4.92474 46.7341 5.04851 46.716C4.63417 46.6914 4.87502 46.6686 5.0136 46.5959C4.57098 46.6159 4.12804 46.6359 3.68542 46.656C3.81724 46.5715 3.94952 46.4867 4.08134 46.4022C4.19288 46.4011 4.30461 46.4001 4.41616 46.3991C4.2736 46.3672 4.12948 46.3357 3.98692 46.3038C4.12009 46.2951 4.25205 46.2868 4.38522 46.2781C4.28435 46.2397 4.18355 46.2012 4.08134 46.1627C4.40392 46.151 4.54333 46.2358 4.46138 46.0856C4.79231 46.1316 5.12223 46.1776 5.45316 46.224C5.42625 46.4496 5.3981 46.6751 5.36985 46.9007ZM4.60817 40.141C4.67005 40.3894 4.43626 40.3194 3.70446 40.2619C4.00574 40.2218 4.30689 40.1812 4.60817 40.141ZM5.25956 27.3435C4.76042 27.2715 4.26626 27.1991 3.7846 27.1253C3.5061 26.9784 4.41587 26.8315 4.77241 26.942C5.2002 27.075 4.72141 27.214 5.25956 27.3435ZM5.03741 23.9979C4.80595 24.1776 4.21285 24.0085 3.86712 23.968C4.42277 23.9182 4.37376 23.8489 4.43838 23.7375C4.4744 23.8421 5.07671 23.9681 5.03899 23.9979C5.03847 23.9979 5.03794 23.9979 5.03741 23.9979ZM4.69862 30.2358C4.71355 30.3078 4.85295 30.3794 4.68354 30.4439C4.20626 30.4244 4.64049 30.2956 3.93297 30.3877C3.92086 30.3417 3.90913 30.2955 3.89568 30.2498C4.18882 30.2789 4.40791 30.2398 4.69703 30.236C4.69756 30.2359 4.69809 30.2359 4.69862 30.2358ZM4.04563 37.7343C4.6107 37.5929 4.36891 37.5662 3.9774 37.4238C4.43748 37.4037 5.20813 37.5735 5.37778 37.6798C4.93384 37.6978 4.48958 37.7159 4.04563 37.7343ZM4.28128 4.30024C4.86771 4.33418 4.94419 4.58457 4.77082 4.70899C4.68384 4.69417 4.59571 4.67931 4.50741 4.66449C4.43206 4.54324 4.35662 4.4215 4.28128 4.30024ZM4.47805 23.6846C4.46087 23.7032 4.44806 23.7209 4.43838 23.7375C4.43199 23.719 4.44198 23.7011 4.47805 23.6846ZM7.02333 16.1587C7.57623 16.2179 7.76199 16.0419 7.5454 16.2557C7.54593 16.2557 7.54646 16.2557 7.54699 16.2557C7.40438 16.397 7.3663 16.4282 7.32324 16.5592C6.61298 16.512 6.3591 16.2463 6.21246 16.6125C6.21181 16.6173 6.63444 16.6077 6.57664 16.6662C6.55867 16.6843 6.21181 16.7421 6.1109 16.83C6.07861 16.8584 5.97164 17.0719 5.96491 16.7809C5.4698 16.7896 4.96867 16.7739 4.48836 16.7746C4.34877 16.661 5.31826 16.5737 5.29448 16.4536C5.2568 16.2751 4.27644 16.1843 5.56265 16.15C5.87866 16.3001 5.88625 16.5577 5.11278 16.5913C5.10337 16.7364 5.73707 16.7781 6.0506 16.6611C5.65236 16.1598 6.99125 16.5235 6.4854 16.0845C6.30652 16.0793 6.11401 16.0613 5.94587 16.064C6.57537 15.93 6.82558 16.1376 7.02333 16.1587ZM5.65548 17.207C5.27742 17.1204 4.89633 17.0341 4.51693 16.9478C5.1331 16.9478 5.68604 16.9954 6.03315 17.1319C5.90678 17.1568 5.7805 17.1821 5.65548 17.207ZM5.49362 9.92117C5.15863 9.9087 4.85164 9.87545 4.53279 9.8512C4.81532 9.82487 5.08636 9.20124 5.3635 9.51851C5.40387 9.56459 4.8115 9.84564 5.49362 9.92117ZM4.55025 38.7157C4.77493 38.6423 4.99997 38.5691 5.22465 38.496C5.36718 38.6086 5.51344 38.7212 5.65865 38.8337C5.28927 38.7943 4.91963 38.7552 4.55025 38.7157ZM5.84749 26.1479C5.83491 26.179 5.3742 26.0759 5.44681 26.1982C5.15217 26.107 4.90278 26.0217 4.62562 25.9327C4.84358 25.906 5.06065 25.879 5.27861 25.8524C5.13868 25.8316 4.9996 25.8104 4.85968 25.7896C5.1772 25.8021 5.4873 25.8132 5.8102 25.8263C5.12942 25.9763 5.9013 26.0107 5.84749 26.1479ZM7.08918 30.6085C6.39913 30.6355 5.98877 30.4183 5.87843 30.632C5.42506 30.5914 5.18726 30.5263 5.1469 30.4012C5.32028 30.3811 5.49241 30.3611 5.66579 30.341C5.20182 30.3382 5.02937 30.3061 4.69862 30.2358C4.69915 30.2357 4.69968 30.2357 4.7002 30.2356C4.66662 30.0455 4.82131 30.0568 5.58407 30.0111C5.15354 30.2124 5.85044 30.2184 6.26482 30.3556C6.54977 30.4498 6.42072 30.5729 7.08918 30.6085ZM5.50156 10.5856C4.91905 10.4433 4.37573 10.571 4.99456 10.3185C5.14256 10.3348 5.2893 10.3511 5.43729 10.3674C5.46016 10.4401 5.48138 10.5129 5.50156 10.5856ZM4.72401 31.311C5.79219 31.2947 6.62368 31.1607 4.88586 31.1378C4.53203 31.2684 5.5164 31.2047 4.72401 31.311ZM6.70993 24.0592C6.66009 24.3103 5.45447 24.2628 4.85175 24.1596C5.07105 24.1437 5.29074 24.1277 5.5087 24.1121C5.40914 24.0681 5.30938 24.0241 5.21117 23.9801C5.71031 24.0065 6.21079 24.0328 6.70993 24.0592ZM5.89747 35.7387C5.13463 35.5468 5.47322 35.9459 4.99694 35.8119C4.61624 35.7048 5.38488 35.5637 5.86653 35.6171C5.87998 35.6541 5.8894 35.6954 5.89747 35.7384C5.89747 35.7385 5.89747 35.7386 5.89747 35.7387ZM5.67928 34.6281C4.86423 34.6596 5.10181 34.6142 5.24846 34.7658C5.29016 34.8091 4.98405 35.1532 5.65945 35.0088C5.65945 34.8858 5.67121 34.7559 5.67928 34.6281ZM5.51743 21.156C5.87236 21.1537 6.65174 21.4187 6.45683 21.4527C6.45736 21.4527 6.45789 21.4527 6.45842 21.4527C5.92699 21.5445 5.85148 21.265 5.1223 21.3862C5.76395 21.1177 4.21192 21.0374 6.25689 21.0561C6.3466 21.2143 5.92505 21.1394 5.51743 21.156ZM5.95222 1.01253C5.95222 1.01241 5.95222 1.01229 5.95222 1.01216C5.93553 1.02996 5.41461 1.17658 5.23418 1.15875C5.38888 0.982429 5.73177 1.01385 5.16832 0.849699C5.3498 0.8407 5.52582 0.83299 5.70864 0.823299C5.81627 0.888431 6.03429 0.924535 5.95222 1.01253ZM6.20929 9.24694C6.30212 9.31172 5.91745 9.42995 5.94032 9.50374C4.46309 9.26885 5.84062 8.98816 6.20929 9.24694ZM5.31907 44.4714C5.31854 44.4713 5.31801 44.4711 5.31748 44.4709C5.31829 44.4709 5.31906 44.471 5.31986 44.4711C5.3196 44.4712 5.31933 44.4713 5.31907 44.4714ZM5.32304 14.2673C5.41893 14.2589 5.50223 14.2542 5.57535 14.2525C5.58222 14.2525 5.5891 14.2525 5.59597 14.2525C5.50619 14.257 5.41538 14.2619 5.32304 14.2673ZM5.41031 20.6053C5.90532 20.4949 6.69228 20.8626 6.50444 20.9815C6.2785 20.9732 6.07367 20.9719 5.81416 20.9526C6.39924 20.8566 5.3269 20.6236 5.41031 20.6053ZM5.59201 28.9889C5.60546 28.6982 7.55994 29.0765 6.00062 29.0921C5.97041 29.0915 5.59467 28.9964 5.59201 28.9889ZM5.61502 22.8975C6.20675 22.9716 6.36388 22.8228 6.26165 23.0607C6.10838 23.0746 5.95474 23.0884 5.80147 23.1023C5.7396 23.034 5.67689 22.9658 5.61502 22.8975ZM8.15792 27.0847C7.82831 26.7189 7.24682 26.369 5.61502 26.6073C5.66743 26.635 5.71811 26.663 5.77053 26.6907C6.56664 26.6949 6.13207 26.797 6.10614 26.9466C6.42221 26.9679 6.49529 27.0509 6.76388 27.0664C7.28307 27.0965 7.64809 27.0012 8.15792 27.0847ZM6.86227 42.5298C6.72638 42.5239 6.58978 42.5181 6.45524 42.5123C6.30187 42.4544 6.14923 42.3964 5.99585 42.3385C6.25663 42.3479 6.51739 42.3572 6.77816 42.3666C6.8064 42.421 6.83482 42.4751 6.86306 42.5294C6.8628 42.5295 6.86253 42.5297 6.86227 42.5298ZM7.33514 17.5635C5.83947 17.5303 6.11494 17.6464 6.871 17.882C7.02571 17.776 7.18043 17.6695 7.33514 17.5635ZM7.55175 32.9634C7.12683 32.971 6.70322 32.9785 6.27831 32.9864C6.72095 33.1115 7.20756 33.0883 7.76994 33.0283C7.69736 33.0065 7.62433 32.9852 7.55175 32.9634ZM7.73265 34.7649C7.82129 34.713 7.47822 34.7395 7.4851 34.734C7.66538 34.6027 7.82276 34.5842 7.56444 34.4231C7.47432 34.4034 7.37955 34.384 7.28675 34.3643C6.39637 34.4387 6.88165 34.4928 6.35845 34.6504C6.66385 34.622 6.96968 34.5937 7.27643 34.5653C7.21187 34.6529 7.14819 34.7402 7.08363 34.8278C7.17781 34.8382 7.27112 34.8486 7.36529 34.859C7.48634 34.8279 7.62237 34.7957 7.73265 34.7649ZM6.47587 43.1989C6.44089 43.2841 6.40453 43.3697 6.36955 43.4549C6.58884 43.458 6.8096 43.461 7.02888 43.4642C6.84461 43.3758 6.66015 43.2872 6.47587 43.1989ZM6.6536 15.8137C6.57581 15.8069 6.49755 15.8003 6.41795 15.7945C6.51496 15.795 6.59068 15.8024 6.6536 15.8137ZM7.15504 0.787667C7.30839 0.691024 7.2077 0.551759 7.23994 0.445752C6.68982 0.454085 6.84188 0.723518 6.5084 0.818129C6.60711 0.833332 7.09051 0.828518 7.15504 0.787667ZM6.66153 24.4066C6.93596 24.4309 7.20909 24.4551 7.48351 24.479C7.45392 24.5375 7.42266 24.5962 7.39306 24.6551C7.61775 24.6568 7.84437 24.6585 8.06906 24.6603C7.77716 24.4008 8.42505 24.4606 9.064 24.3322C8.26364 24.3571 7.46324 24.3817 6.66153 24.4066ZM7.90085 45.9105C7.74882 45.7231 7.46487 45.6566 6.79086 45.7623C6.94553 45.8284 7.10034 45.895 7.25501 45.9611C7.47022 45.9442 7.68564 45.9272 7.90085 45.9105ZM7.16139 12.4002C6.90954 12.2434 7.81411 12.2408 7.30896 12.0875C7.14217 12.1696 6.97352 12.2517 6.80673 12.3334C6.92466 12.3555 7.04344 12.3782 7.16139 12.4002ZM9.64558 20.0926C9.96026 20.0264 8.46442 19.9027 9.56862 19.7167C9.23906 19.6724 8.92428 19.6446 8.60144 19.6065C8.95259 19.5843 9.30823 19.5591 9.65668 19.538C9.65668 19.5379 9.65668 19.5378 9.65668 19.5376C9.53829 19.3689 9.09789 19.4783 8.72521 19.4745C8.57072 19.4727 8.82898 19.3475 8.49274 19.3866C7.91556 19.4542 8.24746 19.7066 7.54381 19.7073C7.77378 19.6186 7.58161 19.4454 7.11219 19.4966C6.59695 19.5528 7.46044 19.716 7.03285 19.8199C8.15747 19.671 7.81009 19.9786 6.94637 20.0136C7.60964 20.1941 7.88021 20.0282 7.84928 19.8432C8.5112 19.9561 8.15358 19.7899 8.70379 19.7625C9.03592 19.879 8.75906 20.2786 9.64558 20.0926ZM8.42609 28.6084C8.38341 28.4836 8.76175 28.2887 8.20314 28.2033C7.87769 28.1536 7.62567 28.3489 7.11457 28.2142C7.1644 28.3358 7.36405 28.3635 7.81199 28.3427C7.86577 28.3704 7.91823 28.3985 7.97067 28.4261C7.88327 28.439 7.79703 28.4521 7.70964 28.4649C7.89394 28.4795 8.07677 28.4941 8.26106 28.5083C8.22477 28.5377 8.18842 28.5675 8.15078 28.5969C8.24345 28.6004 8.3241 28.6063 8.42609 28.6084ZM7.13362 7.89681C7.139 7.93145 7.14435 7.96575 7.15107 8.00039C7.26017 7.99657 7.37377 7.99203 7.4859 7.98765C7.57449 7.98451 7.66309 7.98137 7.75169 7.97823C7.43515 7.99831 6.90903 8.16331 7.24708 8.23282C7.41666 8.26777 8.01871 8.18824 8.1238 8.33639C8.09284 8.22902 8.01068 8.12957 7.95957 8.02531C8.1385 8.03466 8.31936 8.04365 8.4983 8.053C8.49856 8.05294 8.49882 8.05288 8.49909 8.05282C8.53944 8.01819 8.58172 7.98314 8.62207 7.94851C8.12562 7.93119 7.63007 7.91414 7.13362 7.89681ZM8.39198 32.8618C8.04083 32.7437 7.85847 32.7041 7.29071 32.7599C7.29045 32.76 7.29018 32.7602 7.28992 32.7603C7.54146 32.8043 7.79291 32.8483 8.04446 32.8923C8.16016 32.8822 8.27627 32.8722 8.39198 32.8618ZM8.52765 14.796C6.37104 14.5449 7.69308 15.1105 8.42768 15.0028C8.46132 14.998 8.28952 14.8196 8.52765 14.796ZM7.37323 24.013C7.39072 24.0819 7.40652 24.151 7.42401 24.2203C7.68905 24.2044 7.95317 24.1881 8.21822 24.1721C7.93703 24.1191 7.65442 24.066 7.37323 24.013ZM8.87993 45.0945C9.47191 45.022 9.68639 44.8357 9.04258 44.7447C8.96724 44.7925 8.8918 44.8403 8.81645 44.8881C8.74249 44.7977 8.66106 44.7084 8.59112 44.6173C7.76639 44.6124 8.24486 44.7174 8.01748 44.8754C7.98082 44.8998 6.95709 45.0562 7.72868 45.1102C7.88727 45.1211 7.99511 44.9547 8.45624 45.0703C8.49253 45.0198 8.48448 44.9762 8.50464 44.9284C8.70107 44.9249 8.89772 44.9215 9.09415 44.9177C9.02303 44.9768 8.95105 45.0354 8.87993 45.0945ZM8.36183 27.8821C8.40734 27.7107 8.0778 27.6896 7.49542 27.6539C7.56134 27.7336 7.62626 27.8133 7.69218 27.893C7.91494 27.8892 8.13774 27.8859 8.36183 27.8821ZM9.06876 43.5629C9.16402 43.4691 8.68997 43.5093 8.59985 43.4715C8.26087 43.3288 8.59967 43.2315 8.38722 43.0905C8.4787 43.0998 8.56421 43.1084 8.65301 43.1174C8.65301 43.1173 8.65301 43.1172 8.65301 43.1171C9.05255 42.4495 7.97746 42.8001 8.15236 43.1996C7.97612 43.2089 7.79964 43.2179 7.62474 43.2273C7.93282 43.406 8.22927 43.5709 9.06876 43.5629ZM8.60144 17.0275C8.71176 17.0199 9.41284 17.0847 9.08463 16.9631C8.06101 16.8668 8.56907 17.0247 8.17537 17.0643C8.07716 17.0314 7.98161 16.9977 7.8834 16.9651C7.59413 17.1619 7.83753 17.1906 8.58557 17.1189C8.63584 17.1138 8.49147 17.0352 8.60144 17.0275ZM9.10605 15.7343C7.59786 15.7073 8.27605 15.9556 8.74426 15.9466C8.76292 15.9123 8.50756 15.8857 8.62048 15.8493C8.73348 15.8126 9.08576 15.8032 9.10605 15.7343ZM8.73711 22.8493C8.74384 22.8421 9.37772 22.769 8.88152 22.7762C7.70698 22.8667 8.46299 23.0488 8.87199 23.017C8.85177 22.9567 8.67552 22.9165 8.7387 22.8493C8.73817 22.8493 8.73764 22.8493 8.73711 22.8493ZM9.23538 46.2248C9.27746 46.2213 9.53224 46.0389 9.29568 46.0154C9.02934 45.996 8.74389 45.9864 8.46814 45.9718C8.72377 46.0723 8.52904 46.2757 9.23538 46.2244C9.23538 46.2245 9.23538 46.2247 9.23538 46.2248Z" fill="#82C6DD"/>
</svg>
