<svg xmlns="http://www.w3.org/2000/svg" width="246" height="194" fill="none" viewBox="0 0 246 194"><path fill="#b8b8b8" d="M245.719 88.623c.001 5.297-.008 10.263-.019 16.535v.01l-.004 2.774c-.013 7.683-.029 17.667-.037 32.721-.01 16.634-.045 29.841-.078 37.905-.007 1.504-.01 3.061-.013 6.987l-.005 7.77v.344h-.344l-3.311-.002-9.423-.005c-12.053-.007-30.942-.005-48.348-.003-10.564.002-20.583.003-28.193.002-11.13-.002-21.869-.008-33.544-.015-10.692-.006-22.169-.013-35.449-.017a12004 12004 0 0 1-34.001-.067c-8.878-.026-17.953-.052-27.766-.066-9.033-.014-17.124-.018-24.965-.016H.065v-.155c-.001-7.343-.007-14.468-.013-21.942-.004-6.045-.01-12.32-.012-19.125-.005-10.762-.004-26.233-.003-41.768v-3.989c.002-14.22.003-28.177 0-38.416-.004-16.271-.014-22.393-.022-27.5l-.009-5.814C-.002 27.142 0 15.625.001 3.951v-.134C.001 1.88.03.317.064.325.1.335.127 1.913.126 3.851v17.62c.029.28.052 1.735.051 3.48 0 4.365.022 17.734.059 38.66l.015-3.687.016-2.994c.009-1.695.015-2.823.019-4.825.005-4.638.006-11.926.007-19.596 0-1.937.028-3.5.063-3.492.034.01.062 1.589.062 3.525v.114A24780 24780 0 0 1 .406 55.71L.4 57.896a88 88 0 0 1-.015 1.33v.16l-.013 2.33C.357 64.93.338 70.02.317 80.622.298 90.373.29 106.858.29 127.426a31495 31495 0 0 0 .04-25.303l.005-4.438v-.01l.012-8.34c.004-2.835.008-5.62.015-8.826l.009-2.105.004-.782v-.1l.004-.803.004-.745v-.006a849 849 0 0 0 .009-3.84l.001-1.126.002-1.15v-1.17c.001-.903.008-1.77.02-2.405.012-.636.027-.99.044-.986s.031.367.043 1.01c.011.641.018 1.511.019 2.415v1.187l.001 1.206-.002 5.146-.005 2.055-.003.946v.097l-.003.768-.003 1.41c-.002 2.66-.002 5.946-.002 9.08v1.173l.002 6.165v25.905a26447 26447 0 0 1-.014 21.704 6250 6250 0 0 1-.028 11.846v.014l-.01 3.391a11058 11058 0 0 0-.036 21.277 11863 11863 0 0 0-.001 11.239l-.198-.197 5.61-.002 9.834-.005 3.459-.002h.013l6.42-.003 9.955-.005a33383 33383 0 0 1 20.344 0c3.099.001 6.222.004 9.276.006l2.42.002a14269 14269 0 0 0 33.37-.01l11.298-.016 11.395-.02 6.543-.011 6.436-.008 2.57-.003 3.682-.004 11.606-.02c1.879-.005 3.427-.009 5.28-.016a5800 5800 0 0 1 12.3-.024 21208 21208 0 0 1 22.172-.018l11.021-.001a40363 40363 0 0 1 22.002.012l6.332.007 4.365.006 1.737.002 5.56.007-.323.323.001-.204.003-5.42c.001-1.764 0-3.49-.001-5.217a4771 4771 0 0 0-.013-8.835l-.009-5.417-.011-5.387-.004-1.764a9006 9006 0 0 0-.024-10.566l-.014-5.213c-.009-2.976-.013-5.824-.016-8.318l-.005-7.178-.001-1.29-.003-5.467-.006-6.559a13823 13823 0 0 0-.033-19.87l-.016-7.582a10016 10016 0 0 1-.021-15.646l-.003-7.756V57.94a47986 47986 0 0 1 .009-23.987l.005-11.943.006-11.933.002-2.636.003-7.116.474.474h-2.218l-24.387-.01-4.097.001-3.843.002h-5.106a49109 49109 0 0 0-24.692 0l-4.872.002-20.241.002A34577 34577 0 0 1 116.425.77 185959 185959 0 0 1 66.166.717L61.92.726C51.873.746 44.61.76 35.025.77l-2.573.007-.544.001c-1.188.004-2.551.007-4.448.01-3.784.004-9.585.003-17.08-.026C8.487.754 7.282.72 7.69.687 7.977.663 8.983.646 10.21.64L3.426.628C2.526.626 1.681.618 1.08.606.48.593.173.578.225.56S.685.531 1.361.52 2.923.502 3.827.503l7.182.002A47341 47341 0 0 0 39.694.504L44.02.503h1.574l1.293-.001a245017 245017 0 0 0 55.793-.02l24.661-.011 4.168-.01c3.993-.008 7.993-.02 11.933-.03-7.013.005-12.646.014-18.009.022l-2.145.004c-7.269.01-14.291.02-23.736.018C72.691.469 57.115.465 47.41.457S33.536.437 29.645.413C24.147.379 13.535.36 8.202.36 6.264.36 4.7.33 4.71.297 4.719.262 6.297.234 8.235.235c5.631 0 17.115.02 23.66.06 2.914.017 6.266.029 15.822.037C57.274.339 72.706.344 99.62.35c9.105.002 15.863-.007 23.054-.018l2.132-.003h.013c6.607-.01 13.799-.022 23.499-.027 22.357-.01 52.43-.033 59.569-.045l4.184-.008a16590 16590 0 0 1 33.148-.036h.112v.112l.001 5.127c.017 6.258.033 12.334.042 17.618.008 4.56.023 8.764.039 12.838l.014 3.532c.012 2.843.024 5.687.033 8.458.007 2.21.015 4.523.025 6.968.033 8.906.073 19.579.073 33.487.001 14.743-.006 27.365-.013 38.252.008-7.995.017-14.167.026-19.308l.005-2.794c.011-6.319.019-10.913.018-15.836-.001-23.517-.012-32.337-.043-42.29-.008-2.62-.018-5.51-.03-8.624-.023-6.224-.05-13.343-.065-20.992-.01-5.093-.023-10.616-.038-16.436V.127h-.199l-7.1.018h-.01l-5.002.013a32339 32339 0 0 1-35.589.077c-8.924.017-24.589.046-43.719.027-4.202-.004-8.568-.012-13.551-.022L135.51.23c-7.103-.013-15.732-.028-27.222-.036C98.806.187 87.249.184 75.249.179L57.388.174C39.47.167 23.048.156 6.658.144h-.01C4.71.145 3.195.115 3.263.08 3.33.045 4.956.018 6.892.02c16.4.01 32.772.021 50.63.028 5.84.003 11.812.005 17.7.006C87.281.058 98.998.061 108.57.07c11.685.008 20.472.023 27.672.037l4.913.01c4.927.01 9.023.018 13.009.021 18.523.018 33.596-.01 42.553-.026l4.173-.007a31968 31968 0 0 0 36.154-.082h.01L245.219 0h.325v.325c.014 5.495.027 10.762.037 15.644.014 7.366.038 13.79.061 19.799l.033 9.397c.032 10.558.043 19.866.044 43.458M13.715.646c4.66.016 8.458.019 11.285.018zm231.492 5.378-.006-2.28.003 6.32.003 7.75zm.226 82.362c0-13.116-.037-22.917-.07-31.756l-.027-7.455-.01-3.044L245.32 62c-.005 13.337-.016 20.928-.025 27.598l-.008 5.678c.004 1.566.009 3.192.012 4.835l.015 7.155.011 7.161.008 7.118.006 6.569v.368l.006 6.483c.003 2.057.006 3.768.011 5.286l.016 5.765.015 5.754.012 5.714.004 1.868.002.842.002-11.575c.002-5.768.006-11.925.01-18.717.008-11.587.017-25.02.016-41.517m-23.478 105.136 7.041-.002 2.282-.001-.056-.001-5.778-.008-10.379-.012-10.373-.008-10.376-.005-10.359-.001-3.312.001 7.733.008 6.784.008 3.284.004c5.075.008 13.038.019 23.509.017m-68.899-.003-2.389.003-6.58.003-4.464.001-1.851.001-3.058.001c7.096.004 14.034.007 21.263.008h.287z"/></svg>