<svg width="13" height="92" viewBox="0 0 13 92" fill="none" xmlns="http://www.w3.org/2000/svg">
<path d="M1.25677 83.9152C0.670525 84.1219 1.05482 83.4317 0.179309 83.89C0.120156 83.7944 0.059149 83.6983 -3.13997e-06 83.6027C0.324239 83.5785 0.647691 83.5536 0.971934 83.5294C1.06741 83.6577 1.16288 83.7861 1.25836 83.9152C1.25783 83.9152 1.2573 83.9152 1.25677 83.9152ZM5.31748 84.0904C4.39267 83.9728 4.1461 83.599 3.29268 84.0028C3.61007 84.0349 3.92739 84.0677 4.24478 84.0998C3.99862 84.24 3.75251 84.381 3.5077 84.5212C3.6287 84.5716 3.74983 84.6219 3.86949 84.6723C3.31796 84.7365 2.76493 84.8002 2.21205 84.8643C2.29277 84.8074 2.3749 84.7496 2.45562 84.6926C2.00774 84.4673 1.88525 84.2668 1.80185 83.9609C1.67134 83.9878 1.54199 84.0147 1.41149 84.0415C1.63346 83.8863 1.85599 83.7311 2.07796 83.5765C2.29585 83.7108 2.53817 83.8609 2.74126 83.9853C3.60604 83.7862 3.12474 83.435 2.94437 83.2522C2.69817 83.0033 3.10937 83.0595 2.93723 82.8748C2.91032 82.8454 2.58802 82.842 2.58257 82.7837C2.55701 82.4896 2.72785 81.9183 3.47993 82.2524C3.38306 82.7365 3.987 83.1494 3.76635 83.6244C4.63597 83.4987 4.93189 83.7489 5.31748 84.0904ZM2.54845 75.1968C2.97081 75.3435 2.80036 75.6422 2.5072 75.8447C2.5072 75.8449 2.5072 75.8451 2.5072 75.8454C2.44262 75.8899 1.88133 75.9908 1.9042 75.8454C1.94339 75.6083 2.82694 75.4937 2.22712 75.3692C2.33878 75.3135 2.43814 75.255 2.54845 75.1968ZM2.49609 74.6815C2.71269 74.5361 3.37845 74.602 3.19826 74.7841C3.19879 74.7841 3.19932 74.7841 3.19985 74.7841C3.12451 74.8601 2.59829 74.7109 3.13241 74.9835C2.71687 75.0391 2.33882 75.0939 1.93673 75.1489C1.93001 75.0822 1.9191 75.0213 1.91372 74.9513C2.59675 74.9985 2.28118 74.8269 2.49609 74.6815ZM3.10385 82.0066C2.48938 81.9838 2.49326 82.0795 2.06685 82.2426C2.08703 82.0887 2.10856 81.9347 2.12874 81.7815C2.45418 81.8568 2.7784 81.9313 3.10385 82.0066ZM3.00864 85.6229C3.00864 85.6232 3.00864 85.6234 3.00864 85.6236C3.1055 85.6741 3.20272 85.7247 3.29823 85.7745C3.07893 85.8046 2.86059 85.8344 2.64128 85.8645C2.84713 86.0427 3.05296 86.2218 3.26015 86.4C2.59026 86.3784 2.69926 86.0585 2.23109 85.8823C2.43291 85.6203 2.82175 85.494 3.38948 85.477C3.26306 85.5255 3.13505 85.5738 3.00864 85.6229ZM5.67928 42.7697C5.49367 42.71 5.30791 42.6512 5.1223 42.5916C5.03759 42.6708 4.97293 42.7495 4.87476 42.8293C5.68189 43.0383 4.96793 43.0579 5.01757 43.3317C5.17094 44.1709 6.42456 43.9482 4.58833 44.7061C4.67568 44.0976 3.81288 44.3315 3.14828 43.9646C3.65415 43.8886 4.79506 44.2521 5.03185 44.0058C4.49647 43.5814 3.99783 43.1732 3.6521 42.7023C3.56466 42.716 3.47692 42.7297 3.38948 42.7435C3.44464 42.8181 3.50014 42.8922 3.5553 42.9669C3.3212 42.8863 3.08913 42.8076 2.85234 42.7257C3.38371 42.8292 3.0868 42.5654 3.69732 42.6007C3.9691 42.6164 4.34613 42.733 4.60579 42.8018C4.74703 42.6243 4.8764 42.4422 5.0136 42.2628C5.23013 42.3558 5.44689 42.4487 5.66341 42.541C5.67014 42.6169 5.67494 42.6923 5.68166 42.7683C5.68087 42.7687 5.68008 42.7692 5.67928 42.7697ZM2.85392 4.56567C3.48626 4.79102 3.59089 5.20054 2.88725 5.41607C2.87648 5.13241 2.86469 4.84932 2.85392 4.56567ZM3.85759 85.4599C3.75009 85.4854 3.64376 85.5101 3.53626 85.5357C3.33718 85.423 3.13948 85.3097 2.9404 85.197C3.25106 85.1754 3.56177 85.1533 3.87108 85.1311C3.86705 85.2404 3.86163 85.3505 3.85759 85.4599ZM3.51166 78.2524C3.53046 78.3348 3.52028 78.3421 3.47596 78.4448C3.47622 78.4447 3.47649 78.4445 3.47675 78.4444C3.4602 78.4851 3.27875 78.8255 3.03958 78.7876C3.03554 78.6186 3.03958 78.4383 3.03958 78.2653C3.19691 78.2601 3.35299 78.259 3.51166 78.2524ZM3.37202 80.2419C3.37149 80.2422 3.37096 80.2424 3.37044 80.2426C3.3341 80.3042 3.26014 80.3624 3.24666 80.4259C2.87023 80.1973 3.54559 80.1612 3.35457 79.9536C3.16218 79.7459 2.78956 79.6176 3.71478 79.4415C3.85335 79.5069 4.0516 79.5775 4.21305 79.645C3.8431 79.9397 4.19124 80.0191 4.5558 80.2555C4.16031 80.251 3.76751 80.2465 3.37202 80.2419ZM3.80761 46.5057C4.265 46.562 3.81619 46.6249 3.81078 46.6314C3.81025 46.6313 3.80973 46.6312 3.8092 46.631C4.23279 47.13 3.55601 46.5661 3.48469 47.037C3.37037 46.967 3.24966 46.898 3.134 46.8286C3.35458 46.7212 3.60453 46.6105 3.80761 46.5057ZM3.76476 62.7189C3.63157 62.7235 3.49808 62.729 3.36488 62.7336C3.39583 62.4506 2.87149 62.3784 3.34901 62.1432C3.48891 62.3352 3.62781 62.527 3.76635 62.7189C3.76582 62.7189 3.76529 62.7189 3.76476 62.7189ZM4.48043 76.826C4.73471 77.1398 4.84675 77.3719 4.44314 77.6733C4.44261 77.6735 4.44208 77.6737 4.44155 77.674C4.41671 77.6913 4.13805 77.6073 4.06785 77.63C4.10953 77.6921 4.1736 77.7564 4.22336 77.8192C4.00021 77.8277 3.77711 77.8358 3.5553 77.8443C3.61853 77.6675 3.6817 77.4905 3.74493 77.313C3.61443 77.3392 3.48507 77.366 3.35457 77.3922C3.28731 77.2416 3.2203 77.0915 3.15304 76.9408C3.51886 76.9932 3.88476 77.0455 4.25192 77.0973C4.32858 77.0069 4.40243 76.9164 4.48043 76.826ZM5.22227 58.0075C5.07697 58.0573 4.83326 57.9651 4.70814 58.0424C4.5846 58.1197 4.85576 58.2622 4.44552 58.2288C4.39039 58.1247 4.32719 58.0154 4.26938 57.9094C3.52962 58.2507 4.19902 58.5912 3.28554 58.5964C3.52232 58.2689 3.41232 57.9995 3.15939 57.6825C3.88449 57.6955 4.51143 58.0127 5.19212 57.813C5.20154 57.8772 5.2153 57.9446 5.22069 58.0068C5.22121 58.007 5.22174 58.0072 5.22227 58.0075ZM12.9502 90.0443C12.895 90.2382 13.1909 90.6825 12.7685 90.9275C12.6644 90.9878 11.3158 91.1886 11.138 91.1876C10.5393 91.1817 10.4578 90.9364 10.0677 91.1991C10.0636 91.1107 10.0411 91.025 10.0304 90.9373C9.62811 90.953 9.2269 90.9686 8.82597 90.9837C8.88652 91.0905 8.94737 91.1974 9.00925 91.3042C8.87606 91.3094 8.74257 91.3146 8.60937 91.3199C8.60668 90.936 8.0926 91.1626 7.61363 90.9635C7.37151 91.1469 7.13057 91.3316 6.88845 91.5143C6.91804 91.4089 6.93996 91.2844 6.97493 91.1914C6.29288 91.179 6.45549 91.4009 6.32909 91.4389C5.61474 91.6531 5.97528 90.5626 4.98266 90.4733C4.87236 90.6476 4.76472 90.8303 4.65577 91.0085C4.53335 90.9574 4.41084 90.9056 4.28842 90.8545C4.97304 90.4504 5.21558 89.9972 5.64199 89.5262C5.61376 89.4837 5.58478 89.4411 5.55789 89.3991C5.24991 89.4116 4.94312 89.4234 4.63514 89.4358C4.59882 89.3716 4.56277 89.3066 4.52644 89.2424C5.54077 89.4317 5.52695 89.1696 6.14581 88.8532C6.50227 89.0215 6.28616 89.2291 6.95034 89.2148C6.43933 88.6371 7.1615 87.9605 6.58457 87.3985C6.44198 87.259 5.58519 87.2594 5.66421 86.9314C5.75838 86.9425 5.92841 86.9444 6.05219 86.9516C5.64184 86.3843 5.39653 86.0401 5.81495 85.4505C5.50701 85.4845 5.19778 85.518 4.88983 85.5521C5.04321 85.6772 5.19902 85.8025 5.35239 85.927C4.84388 86.0122 4.61945 85.8863 4.62483 86.2597C4.62886 86.5656 4.8534 86.3835 5.00408 86.4667C5.2098 86.5794 4.80511 86.6782 5.03503 86.7994C5.21127 86.8931 5.63085 86.7917 5.52456 87.0361C4.98102 86.9378 4.41976 86.8376 3.86949 86.7387C3.99193 86.6791 4.11624 86.6199 4.24002 86.5603C4.38532 86.6205 4.52872 86.6798 4.67402 86.7401C4.41303 86.5278 4.16687 86.3273 3.89647 86.1078C4.68219 86.1792 4.3876 85.9524 4.29477 85.8293C4.14962 85.6374 4.69037 85.8018 4.60023 85.676C4.5087 85.5502 3.90458 85.4146 4.03373 85.1873C4.38348 85.3091 4.69711 85.1434 5.01995 85.1754C5.34278 85.2075 5.41426 85.4479 5.76656 85.2169C5.49883 84.7728 4.26941 85.2548 4.07023 84.9548C3.83077 84.5945 5.83482 84.5088 6.26562 84.6161C6.60466 84.7006 6.53647 84.9914 6.87417 85.0766C7.4836 84.5558 6.28049 84.5513 6.04505 84.4622C5.1881 84.1386 7.47534 84.3559 6.64804 83.9728C7.07577 83.98 7.46047 83.9858 7.8707 83.993C7.79268 83.9269 7.68898 83.883 7.62712 83.8031C6.79373 84.0387 6.82945 83.8458 6.82815 83.7469C6.82546 83.591 6.41896 83.8318 6.31401 83.7905C6.03319 83.6791 6.1607 83.503 5.79353 83.6111C5.9644 83.5626 6.13577 83.5101 6.30529 83.4603C6.09239 83.2781 4.30715 82.85 4.66767 83.2574C4.00439 83.2195 4.32319 83.0877 4.42409 82.9848C4.5249 82.882 4.10249 82.8839 4.18051 82.7935C4.49266 82.4339 5.21523 82.6691 5.78163 82.7261C5.39149 82.2512 5.13337 82.7162 4.87237 82.0318C4.41091 81.9656 3.91849 82.2818 3.6521 82.0185C4.45379 81.97 5.0297 81.7761 5.29606 81.3981C5.11174 81.3615 4.92578 81.3249 4.74146 81.2882C5.48143 81.0818 6.2509 81.1873 5.33335 80.8054C7.02179 81.0104 5.94161 80.8694 6.629 80.5275C6.76758 80.4581 7.11788 80.6185 7.29547 80.5216C7.37556 80.4776 7.11114 80.3709 7.31531 80.2636C7.4162 80.2112 8.06724 79.9662 7.75803 79.7965C6.94003 79.921 6.24415 79.5986 5.56741 79.875C5.73424 79.364 5.34149 79.0064 6.45683 79.579C6.70438 79.4493 6.95088 79.3195 7.19709 79.1898C7.00201 79.0993 6.80846 79.0082 6.61472 78.9171C7.28702 78.9034 7.47562 78.9172 7.35736 78.561C7.51604 78.7155 7.67735 78.8694 7.83738 79.0246C7.97314 79.0299 8.11424 79.0515 8.24599 79.0463C7.98777 78.8562 7.87664 78.321 7.69774 78.1913C7.5188 78.0616 7.46982 78.3121 7.29627 78.2748C5.8651 77.9637 6.92064 77.9883 6.67502 77.7651C6.52972 77.6341 6.37194 77.9469 6.31005 77.8768C6.08322 77.6169 6.84384 77.4963 6.85354 77.2659C6.4218 77.3477 5.98334 77.4289 5.54757 77.5088C5.57045 77.2671 5.57428 76.9976 5.4357 76.7729C5.3816 76.6847 5.06051 76.7514 5.03899 76.737C4.92867 76.6655 4.75391 76.3747 4.75257 76.3439C4.75001 76.1121 5.19475 76.1055 5.2191 75.8803C5.25675 75.9687 5.29069 76.0518 5.327 76.1383C6.04805 76.1776 6.76906 76.2177 7.49145 76.257C7.54391 76.0362 7.59529 75.8154 7.64775 75.594C7.40696 75.7558 7.16732 75.9182 6.92653 76.08C6.344 75.8271 5.76013 75.5742 5.17625 75.3214C5.53411 75.1897 5.89189 75.0586 6.24975 74.9269C6.15535 74.5693 4.70269 74.6413 5.97523 74.4717C5.86764 74.3663 5.76013 74.2608 5.65389 74.1554C5.83546 74.1704 6.0174 74.1854 6.19897 74.2004C6.0873 74.0733 5.97637 73.9463 5.86335 73.8192C5.22033 73.9528 4.54367 74.0838 3.91948 74.2161C3.77975 73.9661 4.32525 73.9612 4.46138 73.9239C4.82195 73.825 4.3356 73.6287 4.66926 73.5501C4.78381 73.5235 5.14292 73.7686 5.55709 73.6841C5.63737 73.6676 7.15985 73.3395 6.80831 73.1301C6.53251 73.134 6.19432 73.1502 5.8943 73.1587C5.72678 72.8771 7.16645 72.7335 7.57 72.7709C7.28748 72.6208 7.26388 72.4016 6.8226 72.3708C6.81183 72.2942 6.80162 72.2181 6.79086 72.1414C7.86559 72.2213 7.66907 71.9016 6.74484 71.8807C6.72197 72.0124 6.69789 72.1442 6.67502 72.2758C5.54221 72.1763 4.85844 72.5764 5.90779 71.7438C6.49707 71.5846 5.8275 72.0268 6.26879 71.8971C6.52564 71.6717 6.31073 71.4602 6.72104 71.246C7.2336 70.9795 7.72659 71.3074 7.07411 70.6864C5.43948 72.0562 5.96985 70.4985 5.46268 69.8552C7.07716 69.6783 7.58854 69.135 7.10823 68.3869C6.65889 68.4648 6.89039 68.7002 6.74246 68.8358C6.59449 68.9714 6.32791 68.8247 6.11804 68.9936C5.90822 69.1626 5.62298 69.5215 5.30558 69.6925C5.05127 69.5476 4.45003 68.8326 5.17229 69.3054C5.61751 68.9524 6.07504 68.7866 6.15851 68.3492C5.45758 68.2182 5.02113 68.2279 5.00091 67.8014C5.97491 68.0536 6.65183 67.5691 7.65806 67.6758C7.4237 67.9781 6.44571 67.8092 5.97761 67.984C5.93082 68.002 6.17599 68.2837 6.15851 68.3492C7.03705 68.0649 7.36406 67.9666 8.40943 68.1415C8.31794 67.9404 8.44919 67.8152 7.95004 67.7969C8.16658 67.755 8.38331 67.7128 8.59985 67.6716C8.59446 67.6061 8.57441 67.5472 8.57843 67.4778C7.8255 67.5734 8.289 67.3882 7.94766 67.2565C7.60593 67.1248 7.01157 67.3015 7.0035 66.9399C6.82725 67.0604 6.67603 67.1706 6.5092 67.2872C6.31548 67.054 6.12054 66.8201 5.92683 66.5869C5.46678 66.7507 4.78343 67.1056 4.17813 67.0959C4.40666 66.9885 4.00503 66.6206 3.98851 66.5803C3.92662 66.4244 4.30836 66.5093 4.31778 66.4976C4.50328 66.2526 4.37331 66.0509 4.95172 65.9579C4.69074 65.7738 4.83953 65.635 4.82477 65.4398C4.8167 65.3324 4.39186 65.3532 4.47249 65.2904C5.01062 64.8724 5.55962 65.2706 4.51454 64.4644C4.21859 64.562 3.91583 64.6583 3.61719 64.7559C3.50552 64.6648 3.39324 64.5743 3.28157 64.4833C3.33539 64.4223 3.38961 64.3619 3.44343 64.301C4.08512 64.3024 4.72816 64.3039 5.36985 64.3052C5.40483 64.2384 5.43881 64.1713 5.47379 64.1045C5.53702 64.2191 5.60018 64.334 5.66341 64.4487C5.77633 64.4592 5.88929 64.4689 6.0022 64.4794C6.1771 64.3091 6.35358 64.1394 6.52982 63.969C6.3066 63.9658 6.08182 63.9625 5.85859 63.9593C6.16937 63.5754 6.35834 63.5662 5.74355 63.2014C5.75028 62.9203 4.81695 62.6915 4.42409 62.529C4.54919 62.4707 4.67588 62.4123 4.80097 62.3534C4.6153 62.3161 4.43045 62.2783 4.24478 62.241C4.50307 62.167 4.76142 62.0919 5.01836 62.0179C4.43209 61.9767 4.24905 61.9553 4.04325 62.2441C3.31407 62.1452 3.63574 61.6367 3.8806 61.4297C4.06641 61.2727 4.67462 61.4469 4.7486 61.4272C4.99994 61.3617 4.78307 61.1028 4.82477 61.0485C4.99831 60.8185 4.96793 60.6574 5.10247 60.4498C5.12939 60.4093 5.51485 60.2963 5.52695 60.2867C5.59287 60.2121 5.78022 60.0277 5.7856 60.0068C6.07333 58.9254 4.40102 60.0809 4.57722 59.0754C4.35669 59.1055 4.13763 59.1332 3.9171 59.1626C3.90365 59.0867 3.89087 59.0099 3.87743 58.934C4.06174 58.8377 4.39694 58.9542 4.12656 58.7629C4.39832 58.7754 4.6702 58.7879 4.94061 58.801C4.79396 58.7178 4.6485 58.6376 4.50185 58.5524C5.44494 58.4188 5.65912 57.9309 6.76626 57.9656C7.14298 57.9774 7.52952 58.3233 7.93179 58.1405C8.01098 57.992 7.56107 58.0925 7.53747 58.0319C7.37333 57.5943 8.00396 57.6197 7.83579 57.4409C7.56552 57.4127 7.28995 57.3831 7.01698 57.3543C7.09632 57.2869 7.17567 57.2192 7.25501 57.1511C7.07338 57.1354 6.89156 57.119 6.70993 57.1033C6.69782 57.1669 6.68554 57.2384 6.67343 57.2967C5.96995 57.2154 5.65395 56.4688 6.25372 56.7535C6.4972 56.8695 6.39375 57.0818 7.22486 56.9476C7.10513 56.7478 6.98279 56.5211 6.86306 56.3109C7.042 56.3043 7.22127 56.2982 7.4002 56.2917C7.28437 56.0083 6.56894 56.266 6.18548 56.2655C6.17473 56.2006 6.1653 56.1351 6.15454 56.0703C6.32792 56.0428 6.50939 56.0167 6.6774 55.9879C6.40148 55.9853 5.76016 55.949 5.99824 55.7558C6.15319 55.6316 6.84931 55.8272 6.75278 55.5903C6.32233 55.608 5.79807 55.6936 5.65945 55.4297C6.1087 55.4035 6.52026 55.3673 6.99239 55.347C6.5608 55.0189 7.25456 54.8695 6.75278 54.4844C6.43525 54.24 5.30812 53.9053 7.04475 53.7474C7.09047 53.5687 6.658 53.6254 6.56077 53.5725C6.10064 53.3229 6.92412 53.1373 6.97255 53.0908C7.28303 52.7941 6.99798 52.6611 7.38672 52.4194C7.06516 52.4325 6.76079 52.4397 6.44731 52.4502C6.92896 52.6716 6.90636 52.7837 6.80276 53.0943C6.7382 52.9901 6.67214 52.8859 6.60758 52.7818C6.34664 52.7988 6.08566 52.8157 5.82606 52.8321C6.85395 53.7925 5.22994 53.5684 4.87476 52.7633C5.35766 52.6939 5.83929 52.6219 6.32354 52.5532C5.59167 52.0881 6.22701 51.8692 6.37908 51.3432C6.39647 51.2806 6.11829 51.0529 6.10455 50.955C6.1027 50.9566 6.10085 50.9583 6.099 50.9599C5.64298 50.899 5.4331 50.9815 5.02551 50.9913C4.97439 50.9382 4.92349 50.8851 4.87238 50.8321C5.18308 50.7136 5.43828 50.7553 5.3643 50.5221C5.05489 50.5535 4.7454 50.5846 4.436 50.616C4.42523 50.3605 4.76141 50.1933 4.6161 49.9555C4.73315 49.9955 4.85054 50.0349 4.96759 50.0749C5.26627 49.5574 7.08538 49.9692 6.17993 49.5781C6.33863 49.5532 6.49887 49.529 6.65757 49.5041C6.69658 49.6653 6.7344 49.8264 6.7734 49.9869C6.998 49.9902 7.22163 49.9937 7.44622 49.9964C7.37895 49.8241 7.30958 49.6509 7.24231 49.4786C7.393 49.6044 7.54388 49.7309 7.69456 49.8567C7.80218 49.6569 7.90987 49.4571 8.01748 49.2573C7.19161 49.4695 7.09061 49.1944 6.27276 49.2461C6.95353 48.8924 7.85092 48.6145 7.27643 48.0662C7.16199 47.9575 6.59046 48.0165 7.28595 47.708C6.37659 47.7827 5.94986 47.3962 5.08501 47.4458C5.1267 47.5532 5.15293 47.6646 5.20402 47.7688C5.50403 47.6502 6.32933 47.6305 6.57426 47.8106C6.88637 48.0406 6.31439 48.3759 7.23041 48.3622C7.18738 48.4539 7.16199 48.5392 7.12568 48.6282C6.89845 48.5916 6.66978 48.5557 6.44255 48.5197C6.7988 48.7731 6.68295 48.9323 6.11011 49.0541C5.97828 48.7522 5.84785 48.4509 5.71737 48.1489C5.67841 48.1934 5.63915 48.2385 5.60153 48.283C5.01628 48.0543 4.46194 48.2902 4.33682 47.8637C4.60448 47.8663 4.87233 47.8684 5.14134 47.871C4.42559 47.7158 4.42947 47.2907 3.60608 47.4263C3.85899 47.2979 4.01896 47.2717 3.57514 47.199C4.20075 46.8603 4.99188 46.6428 5.93635 46.7633C5.78435 46.6376 5.63213 46.5118 5.48013 46.3867C5.22187 46.4594 4.96481 46.5322 4.70655 46.6049C4.7227 46.3861 4.73856 46.1656 4.75336 45.9475C5.51744 45.9265 4.98517 46.3687 5.66817 46.2411C5.80527 46.2156 5.51161 46.0978 5.58883 46.0669C6.42425 45.7407 5.82068 46.2528 6.4608 46.1566C6.65857 45.6705 7.73116 46.0595 6.82974 45.39C7.05033 45.3723 7.27537 45.3533 7.49462 45.3369C7.50787 45.1045 7.00959 45.1234 6.91543 44.9236C6.85685 44.7985 7.73182 44.6415 7.136 44.5033C7.02615 44.4786 5.95672 44.7111 6.00379 44.2226C6.04027 43.8435 6.79602 44.0013 7.0638 43.7964C7.33153 43.5913 6.28362 43.1222 7.47161 42.984C7.31426 43.0914 7.22938 43.2282 7.10029 43.3474C7.33166 43.3959 7.56054 43.4431 7.79057 43.4909C7.49191 43.2184 7.84391 42.9367 7.2923 42.7532C8.13586 42.3897 7.35304 41.983 6.4005 42.0931C6.53783 42.2128 6.95319 42.0826 6.68851 42.2488C6.46652 42.2658 6.24562 42.2838 6.02363 42.3008C6.05053 42.0178 6.0443 41.8213 6.72104 41.9503C6.73718 41.9064 6.75329 41.8629 6.76944 41.8191C6.27971 41.8112 5.78817 41.8042 5.29844 41.7964C5.24328 41.744 5.18857 41.6913 5.13341 41.6389C5.24098 41.5807 5.3498 41.5223 5.45871 41.4633C6.23366 41.5426 6.25926 41.6776 6.69248 41.2308C6.42474 41.2295 6.15807 41.2276 5.89033 41.2263C6.2307 40.8522 6.87926 40.8424 6.85513 40.3727C7.78468 40.733 6.13692 40.9302 8.00162 40.9289C7.87918 41.0193 7.75511 41.1104 7.63268 41.2008C7.9031 41.2146 8.17392 41.2282 8.44434 41.2413C8.3017 40.7559 6.52324 39.9496 7.7025 39.6246C7.55859 39.5853 7.43349 39.5459 7.27881 39.5059C7.99053 39.1875 6.39267 39.0501 7.31293 38.7271C7.40951 38.6938 8.91071 38.7635 8.85692 38.3431C8.66181 38.3536 8.33342 38.359 8.0873 38.3675C8.207 38.2765 8.33227 38.1859 8.45466 38.0956C8.27445 38.0792 8.09431 38.062 7.91275 38.0456C7.84279 38.2009 7.77166 38.3557 7.7017 38.511C7.63984 38.382 7.57791 38.2522 7.51604 38.1231C7.22151 38.2915 7.21838 38.3674 6.74643 38.2659C6.71818 38.1198 6.6882 37.9735 6.65995 37.8275C6.53902 37.8124 6.41669 37.7975 6.29577 37.7824C5.93523 37.8532 5.58264 37.9246 5.21672 37.9954C5.51135 37.6148 5.52735 37.2839 6.23626 36.9917C6.35599 36.9419 6.82571 37.118 6.40209 36.7788C6.65086 36.7735 6.85286 36.7644 7.08284 36.7585C6.38592 36.3432 6.59394 36.2067 7.09712 35.7737C6.62757 36.0541 6.93296 35.8039 6.68137 35.7325C6.50804 35.6836 6.53364 35.8746 6.3521 35.853C6.17183 35.8313 5.44391 35.5832 5.35636 35.7954C6.84841 36.3155 5.06453 36.4572 5.78163 37.1254C5.58924 37.0226 5.39642 36.919 5.20403 36.8161C5.07363 36.8646 4.95532 36.9079 4.81684 36.9603C5.10873 36.5876 4.9191 36.7689 4.6891 36.6157C4.45903 36.4624 4.26359 36.1838 4.20035 35.9971C4.18048 35.9383 4.51513 36.0003 4.54628 35.8676C4.56781 35.7772 4.07171 35.5302 4.65657 35.4731C5.03728 35.4358 6.08563 35.8327 6.08313 35.2839C6.45637 35.1806 6.34045 35.4437 6.38542 35.4494C6.82941 35.4972 7.16323 35.1599 6.82418 35.0039C6.79494 34.9913 6.44897 35.1144 6.31322 34.9806C5.98898 34.6628 6.38575 34.4793 6.92257 34.2736C6.29292 34.2514 5.54094 33.984 5.7737 33.6512C5.59351 33.6342 5.41174 33.6179 5.23021 33.6009C5.32558 33.6526 5.41967 33.7042 5.51504 33.7559C5.40203 33.8123 5.31977 33.8719 5.18657 33.927C5.03173 33.5923 4.16397 33.545 3.84649 33.3845C2.76193 32.8353 5.05613 33.1681 5.45157 33.2672C5.29147 33.3386 5.11275 33.4076 4.94458 33.4784C5.16388 33.4705 5.38485 33.4626 5.60549 33.4553C5.59879 32.6332 7.02905 33.3301 7.4367 32.9128C6.35776 32.8054 6.25377 32.4989 6.93844 32.1085C6.93305 32.0653 6.93168 32.0219 6.92495 31.9787C6.76763 31.9715 6.52716 31.9716 6.42351 31.9598C6.24053 31.4894 7.90212 31.4057 8.05953 31.3611C8.75768 31.1633 7.79171 31.0092 7.78343 30.9509C7.74979 30.7053 8.17871 30.6339 7.99448 30.4C7.7954 30.1485 7.46629 30.3205 7.1717 30.244C6.93776 30.1826 6.89609 29.9842 6.6536 29.9022C6.85193 29.9348 7.04642 29.971 7.24549 30.0035C7.51586 29.7428 7.7794 29.5297 7.84531 29.2337C6.39415 28.8996 8.84208 28.6154 6.85671 28.7306C6.72083 29.011 6.49459 29.1678 5.98872 29.3178C5.92415 29.1338 5.86127 28.9496 5.79671 28.7655C6.01461 28.7119 6.22696 28.6737 6.4489 28.6102C5.98617 28.4727 6.18474 28.1538 6.04902 28.0286C5.41265 27.4423 4.62337 27.6237 5.94984 27.0885C6.07909 27.4742 6.72334 27.4736 6.63456 27.8561C7.09467 27.7736 6.99934 27.5792 7.55095 27.705C7.41509 27.3349 6.92261 27.4545 6.4854 27.3105C6.10848 27.1863 6.08738 26.9361 5.59756 26.9502C5.86687 26.9247 6.12758 26.9049 6.39653 26.8794C6.39384 26.6397 6.39367 26.3999 6.39098 26.1602C6.67213 26.2624 6.95379 26.3646 7.23359 26.4667C7.33978 26.3895 7.44556 26.3122 7.55175 26.2349C6.67725 25.6454 8.27998 24.6286 6.08313 24.7911C6.01318 24.5068 6.28871 24.4712 6.70438 24.3166C6.5376 24.2996 6.39888 24.283 6.21325 24.266C6.38784 24.0826 5.76168 23.9419 5.92445 23.7801C6.08596 23.6183 6.67741 23.5781 5.68325 23.5546C5.96842 23.4497 6.20531 23.3456 6.47032 23.2414C6.24447 23.1786 6.02122 23.1158 5.79671 23.0536C5.91509 22.9553 6.03298 22.8569 6.15137 22.7586C5.6768 22.7061 5.88136 22.3197 5.56265 22.1494C6.07421 21.9877 7.68486 21.9922 7.39624 21.6118C6.99676 21.6216 6.59845 21.6313 6.19897 21.6411C6.28237 21.554 6.3655 21.4667 6.4489 21.379C6.57928 21.3737 6.70967 21.3692 6.84005 21.364C6.7997 21.4085 6.75956 21.4524 6.71787 21.497C6.93851 21.4583 7.15814 21.4205 7.37878 21.3825C7.05191 21.2495 6.725 21.1164 6.39812 20.9827C6.15063 21.1628 5.90297 21.343 5.65548 21.5231C5.36218 21.2971 5.65473 21.1398 5.3278 20.9433C5.87932 20.7723 6.19711 20.8355 6.79562 20.9049C6.74452 20.8414 6.69518 20.7771 6.64408 20.7136C7.24267 20.7555 7.59934 20.648 7.55095 21.0194C7.72169 20.9939 7.88447 20.9678 8.06192 20.9429C8.03501 20.882 8.17933 20.8425 8.11349 20.7757C7.9332 20.5936 6.88181 20.454 6.51316 20.4664C6.32006 20.4731 6.68935 20.6527 6.41637 20.6455C5.75067 20.6277 6.04955 20.2158 5.38096 20.8099C4.95716 20.6127 5.27677 20.5687 5.39921 20.3512C5.17737 20.3682 4.95695 20.3848 4.73512 20.4011C4.83732 20.3003 4.93917 20.1993 5.04138 20.0985C6.18087 20.2387 6.60886 19.4951 7.6057 20.1645C7.65681 19.9667 7.7082 19.7695 7.762 19.5724C7.87903 19.613 7.99488 19.6536 8.1119 19.6942C8.05002 19.7833 7.98916 19.8718 7.92862 19.9609C8.14247 19.8561 8.35506 19.7512 8.56891 19.6464C8.30386 19.3988 7.89623 19.3017 7.39306 19.1884C7.02588 19.4765 7.52744 19.3824 7.62712 19.6069C7.30847 19.5991 7.01537 19.6095 6.68058 19.5898C7.34062 19.4738 6.86044 19.0953 6.82815 19.0075C6.73011 18.7404 7.37863 18.9499 7.39227 18.7712C7.40573 18.5924 7.01972 18.3814 7.66283 18.2353C7.30237 18.238 6.92944 18.2496 6.60123 18.2601C6.48284 17.9817 6.90866 18.0372 6.96383 18.0084C7.87059 17.5485 7.10506 17.299 7.01222 16.773C6.90058 16.8398 6.79978 16.9073 6.69486 16.9747C5.92954 16.5779 6.16388 16.8452 5.91096 17.1898C5.98765 16.8668 5.33588 16.6819 5.14214 16.4539C4.94873 16.2259 5.28348 15.835 5.5444 15.6921C5.96417 16.019 5.68735 16.3716 5.80306 16.7346C6.17025 16.6933 6.48102 16.6532 6.88448 16.6106C6.1138 16.3899 6.62911 16.262 6.73135 16.1893C7.03123 15.9757 6.36976 15.9825 7.08125 15.8534C6.83649 15.8587 6.63069 15.8625 6.40209 15.8677C6.50433 15.4269 6.93704 14.9513 6.03315 14.6644C6.62103 14.6382 7.18741 14.6184 7.78739 14.5883C7.34486 14.4016 7.79803 14.2418 7.69456 14.0845C7.59097 13.928 7.11587 13.9876 6.93288 13.8035C6.89925 13.7695 7.19662 13.6985 6.97731 13.6147C6.75685 13.53 5.11766 13.2177 6.54966 13.1804C6.5564 13.0225 6.60876 12.8731 6.63297 12.7185C6.71369 12.8692 6.79187 13.0199 6.87258 13.1699C7.21965 13.0415 7.56569 12.9139 7.91275 12.7855C7.60331 12.7692 7.28827 12.7527 6.98287 12.737C6.60616 12.3911 7.1121 12.1401 6.99239 11.791C6.97221 11.7327 6.36041 11.8702 6.51634 11.6115C6.6724 11.3528 7.81428 11.1608 7.37323 10.7199C7.35036 10.6977 6.47582 10.5671 7.08125 10.4092C7.21847 10.3733 7.42151 10.5245 7.60173 10.442C7.78202 10.3595 7.93026 9.99121 8.35945 9.96239C8.20746 9.96631 8.04998 9.9893 7.8953 10.0004C7.82267 9.93757 7.74998 9.87405 7.6787 9.81053C7.94639 9.80463 8.21449 9.79827 8.48084 9.79237C7.85795 9.43077 6.84184 9.2439 7.17805 8.70807C6.78926 8.85873 6.39892 9.00945 6.01014 9.15946C6.28326 9.20073 6.55821 9.24207 6.83133 9.28269C6.72237 9.52962 6.61419 9.77724 6.50523 10.0242C6.81602 10.0648 7.12592 10.1047 7.4367 10.1453C7.39635 10.2108 7.35725 10.2757 7.3169 10.3412C7.09223 10.3248 6.86875 10.3083 6.64408 10.2912C6.69923 10.4209 6.75555 10.5508 6.8107 10.6798C5.48453 10.4171 6.9235 9.94622 5.81416 9.98019C5.98628 9.92192 6.1596 9.86356 6.33306 9.80529C5.79516 9.77973 5.94997 9.66124 6.03473 9.45235C5.76969 9.50018 5.50826 9.55299 5.24052 9.59688C5.6145 9.3938 5.57818 9.03356 5.72213 8.82328C5.78535 8.73092 6.17534 8.82317 6.22119 8.7957C6.46067 8.65485 5.78018 8.38564 5.834 8.3293C6.15426 7.99259 7.44436 7.77379 6.59409 7.40628C6.38421 7.78559 6.47285 7.57924 6.00062 7.71419C5.85256 7.75644 5.54369 8.24646 5.68087 7.63285C5.69804 7.56091 6.5894 6.44752 7.27247 6.81351C7.05451 6.63336 6.80249 6.49231 6.57108 6.32722C8.37123 5.92367 6.68012 6.06333 5.7491 6.1806C5.74507 6.11443 5.73562 6.05149 5.73562 5.98336C6.71372 6.12813 6.77446 5.39054 6.28069 5.14028C6.11656 5.05644 5.80348 5.29089 5.65548 5.09699C5.72407 5.00466 5.81289 4.89992 5.88954 4.80236C5.2707 4.94385 5.03222 4.66616 4.40267 4.67005C4.96366 4.49253 6.15272 4.35674 6.79721 4.4543C6.53625 4.30759 6.27561 4.16011 6.01331 4.01339C5.86398 4.08152 5.71595 4.15053 5.56662 4.21866C5.96217 3.73912 5.0621 3.12253 6.38463 3.0223C6.37521 2.95876 6.36707 2.89454 6.35766 2.83099C6.13432 2.81134 5.91055 2.79235 5.68722 2.77269C5.88091 2.48517 6.07589 2.19829 6.26959 1.91077C6.40819 2.16678 6.72607 2.22773 6.46794 2.49621C6.7248 2.39275 6.98308 2.28736 7.23994 2.18586C6.54841 1.78166 6.09392 1.72653 6.29974 1.11797C6.30915 1.09045 6.88907 0.630636 6.94558 0.614914C7.20387 0.542882 7.57911 0.652224 7.70964 0.62015C8.07559 0.531055 8.99445 -0.0103312 9.13303 0.000150524C10.8336 0.132484 10.8562 1.95399 10.9436 2.44664C11.8504 7.55643 10.6372 12.5537 10.8444 17.6314C10.8476 17.6836 11.0987 17.6608 11.1094 17.6831C11.1725 17.8213 10.7812 17.957 10.7651 18.0081C10.7318 18.1172 11.0933 18.0571 11.0936 18.1369C11.0895 18.961 10.877 19.7387 10.9388 20.5635C10.9429 20.6172 10.6537 20.5623 10.7048 20.6567C10.7328 20.7054 11.1765 20.8578 11.1832 20.9677C11.2061 21.3516 11.0638 21.6741 11.0706 22.0789C11.0746 22.3003 11.0369 22.6325 11.0436 22.8801C11.0464 22.9894 11.2494 23.1034 11.2562 23.2114C11.2656 23.3647 10.8541 23.3334 10.8286 23.357C10.7169 23.4605 11.1686 23.4748 11.1578 23.5731C11.1363 23.7558 10.8348 23.7657 10.8603 23.9976C10.8791 24.1633 11.1172 24.5426 11.1872 24.7516C10.8374 25.2403 10.9763 25.8561 11.092 26.3121C11.1606 26.582 10.7384 26.607 10.7397 26.717C10.7479 27.1048 11.2871 27.3991 11.3046 27.7633C11.3274 28.2466 10.9708 28.675 10.9452 29.1433C10.9412 29.2192 11.328 29.2018 11.3379 29.2763C11.3743 29.5521 11.4447 29.9048 11.3895 30.1504C11.3289 30.4242 10.7674 30.5252 10.8817 30.7931C10.9157 30.8717 11.408 30.8947 11.4712 31.0263C11.5706 31.2366 11.1365 31.4671 11.088 31.6138C11.0234 31.815 11.525 31.6401 11.4577 31.9113C11.4548 31.9224 11.0963 31.963 11.1134 32.0212C11.1618 32.1909 11.4442 32.1741 11.4173 32.4224C11.4136 32.4462 11.0719 32.7754 11.0706 32.8081C11.0652 33.0007 10.9456 33.3885 11.0182 33.5025C11.2765 33.91 11.8158 33.5892 10.6453 33.9357C10.9318 34.0883 11.2222 34.2396 11.5006 34.4014C11.2409 34.2934 10.8662 34.7316 10.8904 34.7624C11.0856 35.0171 11.541 34.8654 11.4657 35.1883C10.4136 34.7618 11.3301 35.6049 11.357 35.7929C11.4874 36.6982 11.2249 37.5212 11.2316 38.4311C11.2344 38.7357 11.4568 39.1439 11.4514 39.4661C11.4511 39.5413 11.2021 39.4845 11.1967 39.5506C11.193 39.6166 11.4725 39.5434 11.4577 39.6187C11.3608 40.0871 10.8334 40.454 11.4927 40.8831C11.3973 40.904 11.322 40.9033 11.2173 40.9379C11.8079 41.2891 11.0137 41.9653 10.9047 42.2195C10.7353 42.617 11.1345 42.7186 11.0539 43.0074C10.9463 43.3893 10.1664 43.9627 11.4538 43.7066C11.4941 43.9686 11.5053 44.2209 11.3855 44.4855C11.372 44.5149 11.0448 44.4946 11.038 44.5064C10.991 44.5811 11.284 44.6054 11.2975 44.6558C11.3337 44.7926 10.9829 44.5694 11.0809 44.7644C11.1333 44.8673 11.3889 44.9257 11.3943 45.2113C11.4225 46.9329 11.331 48.8019 11.288 50.5668C11.2853 50.688 11.6017 50.6082 11.5815 50.7602C11.5115 51.2882 10.979 52.2333 11.0515 52.6886C11.1242 53.1439 11.5869 53.0412 11.7807 53.3261C11.8183 53.3811 11.5546 53.336 11.5506 53.3858C11.5263 53.7205 11.115 54.1196 11.0531 54.3908C11.0116 54.5702 11.4265 54.5558 11.4562 54.6802C11.4992 54.8656 11.08 55.0564 11.0666 55.1553C11.0075 55.6204 11.3451 55.9401 11.1729 56.3744C11.2642 56.3574 11.3487 56.3462 11.4387 56.3318C11.4239 56.846 11.4091 57.3596 11.3943 57.8738C11.4777 57.8495 11.5618 57.8261 11.6466 57.8019C11.6008 58.4052 10.6967 58.3363 12.6058 58.2833C12.6731 58.3271 12.751 58.3737 12.8129 58.4156C11.8295 58.3985 11.1098 58.7635 10.8595 59.2279C10.8407 59.262 11.7995 59.4905 10.6667 59.4657C10.9438 59.5253 11.1349 59.5608 11.3784 59.6112C11.0354 59.7095 10.6965 59.809 10.3549 59.9073C10.406 59.9603 10.4553 60.0141 10.5064 60.0672C10.7284 60.075 10.9589 60.069 11.1769 60.086C11.2105 60.3323 10.9361 60.8374 10.9642 61.0321C11.0355 61.5155 11.6357 62.0077 10.9872 62.3838C11.0534 62.5669 11.4891 62.385 11.4339 62.6575C11.2133 62.6883 11.0019 62.7172 10.7746 62.7493C11.7602 62.9719 11.1606 63.0185 10.9547 63.3235C10.8148 63.5299 11.0557 63.665 11.0087 63.8615C10.9966 63.9113 10.7073 63.9042 10.7167 63.9383C10.7465 64.0524 11.1447 64.3779 11.1555 64.4585C11.2604 65.1882 11.2157 65.8151 11.1094 66.5101C11.0987 66.5848 11.3842 66.488 11.3721 66.5653C11.353 66.6896 10.9144 66.6165 10.8928 66.6885C10.8353 66.8895 11.2979 66.891 11.3221 67.1713C11.4014 68.0943 11.0539 69.1555 11.0229 70.1198C11.0229 70.1499 11.294 70.1482 11.2967 70.1809C11.3099 70.3944 10.9436 70.6105 10.9476 70.8044C10.953 71.1261 11.3337 71.3678 11.3324 71.6855C11.331 72.3065 11.1361 72.8614 11.1253 73.5001C11.1159 74.0229 11.152 74.4769 11.1507 75.0501C11.1453 77.554 12.0056 80.1089 11.5482 82.6298C11.5361 82.6939 11.2966 82.6678 11.307 82.6874C11.4106 82.8734 11.7337 82.89 11.0571 82.9562C11.1904 83.1932 11.6988 83.268 11.6624 83.5542C11.6434 83.7067 10.8555 83.5928 11.2618 83.8509C11.629 84.0839 12.0608 83.8268 11.6196 84.5198C11.6075 84.5381 11.1272 84.6284 11.2522 84.7725C11.376 84.9173 11.7199 84.7497 11.8235 85.0982C12.0657 85.9165 11.6505 86.9521 11.7783 87.9033C11.7864 87.9629 12.0431 88.537 12.1615 88.6503C12.3916 88.8696 12.7484 88.8238 12.8359 89.1087C12.9032 89.3288 12.4989 89.5104 12.5796 89.7692C12.5894 89.7993 13.0053 89.8498 12.9502 90.0443ZM4.87317 41.8198C4.46517 41.766 2.9634 41.6691 3.42042 41.3443C3.46347 41.3135 4.49622 41.4797 4.66053 41.3003C4.76951 41.4759 4.8048 41.6468 4.87476 41.8198C4.87423 41.8198 4.8737 41.8198 4.87317 41.8198ZM3.3744 91.4522C3.44974 91.2092 3.52439 90.9653 3.59973 90.7222C3.78136 90.8899 3.96263 91.0579 4.1456 91.2249C3.88868 91.3009 3.63132 91.3762 3.3744 91.4522ZM4.08769 61.1972C4.08769 61.1974 4.08769 61.1977 4.08769 61.1979C3.89395 60.9424 3.69985 60.6868 3.50611 60.4313C3.64872 60.4581 3.79194 60.4851 3.93456 60.5119C4.15919 60.7136 4.38353 60.9155 4.60817 61.1166C4.43465 61.1434 4.2612 61.1703 4.08769 61.1972ZM5.59756 63.2157C5.42804 63.3788 5.14215 63.3389 4.86365 63.4286C4.86418 63.4286 4.86471 63.4286 4.86523 63.4286C4.79273 63.4523 4.7293 63.5626 4.71845 63.6053C4.89739 63.5896 5.07404 63.5692 5.25163 63.5522C5.68485 63.9328 4.14538 64.6771 3.52515 63.7135C3.75113 63.7279 3.97596 63.7417 4.20194 63.7561C4.13871 63.2772 4.62888 62.7434 5.59756 63.2157ZM4.22257 37.9692C3.4826 37.5604 3.32658 37.4293 3.83379 36.9334C4.04353 37.0035 4.25324 37.0735 4.46297 37.1436C4.24906 37.2255 4.0366 37.3068 3.82269 37.3886C3.82269 37.3889 3.82269 37.3891 3.82269 37.3893C4.04735 37.4057 4.27242 37.4221 4.49709 37.4379C4.40561 37.6147 4.31405 37.7923 4.22257 37.9692ZM5.0628 78.8637C3.58492 78.9776 4.44395 78.9448 4.11069 78.6193C3.99499 78.5066 3.73641 78.6165 3.69336 78.5464C3.45819 78.1678 4.44837 78.1376 4.96362 78.222C4.9986 78.4363 5.03051 78.6527 5.0628 78.863C5.0628 78.8632 5.0628 78.8634 5.0628 78.8637ZM5.36985 88.6849C5.36985 88.6851 5.36985 88.6853 5.36985 88.6856C5.00937 88.6954 4.91241 88.5428 4.57088 88.7149C4.57222 88.584 4.57508 88.4531 4.57643 88.3215C4.61001 88.3601 4.64202 88.3995 4.67561 88.4381C4.79938 88.404 4.92474 88.3699 5.04851 88.3358C4.63417 88.2893 4.87502 88.2461 5.0136 88.1085C4.57098 88.1465 4.12804 88.1843 3.68542 88.2223C3.81724 88.0625 3.94952 87.9021 4.08134 87.7423C4.19288 87.7403 4.30461 87.7384 4.41616 87.7364C4.2736 87.6761 4.12948 87.6165 3.98692 87.5563C4.12009 87.5399 4.25205 87.5241 4.38522 87.5077C4.28435 87.4351 4.18355 87.3622 4.08134 87.2895C4.40392 87.2674 4.54333 87.4276 4.46138 87.1436C4.79231 87.2307 5.12223 87.3177 5.45316 87.4054C5.42625 87.8319 5.3981 88.2584 5.36985 88.6849ZM4.60817 75.903C4.67005 76.3727 4.43626 76.2404 3.70446 76.1316C4.00574 76.0557 4.30689 75.979 4.60817 75.903ZM5.25956 51.7041C4.76042 51.5679 4.26625 51.431 3.7846 51.2915C3.5061 51.0137 4.41587 50.7359 4.77241 50.9449C5.2002 51.1964 4.72141 51.4591 5.25956 51.7041ZM5.03741 45.3778C4.80595 45.7176 4.21285 45.3979 3.86712 45.3212C4.42277 45.2272 4.37376 45.0961 4.43838 44.8855C4.4744 45.0833 5.0767 45.3216 5.03899 45.3778C5.03847 45.3778 5.03794 45.3778 5.03741 45.3778ZM4.69862 57.1731C4.71354 57.3093 4.85295 57.4448 4.68354 57.5666C4.20626 57.5298 4.64049 57.2862 3.93297 57.4604C3.92086 57.3733 3.90913 57.2861 3.89568 57.1997C4.18882 57.2546 4.40791 57.1807 4.69703 57.1735C4.69756 57.1734 4.69809 57.1732 4.69862 57.1731ZM4.04563 71.3521C4.6107 71.0849 4.36891 71.0342 3.9774 70.7649C4.43748 70.727 5.20813 71.0481 5.37778 71.2491C4.93383 71.2832 4.48958 71.3174 4.04563 71.3521ZM4.28128 8.13136C4.86771 8.19554 4.94419 8.66902 4.77082 8.90427C4.68384 8.87626 4.59571 8.84814 4.50741 8.82013C4.43206 8.59084 4.35662 8.36065 4.28128 8.13136ZM4.47805 44.7854C4.46087 44.8206 4.44806 44.854 4.43838 44.8855C4.43199 44.8505 4.44198 44.8166 4.47805 44.7854ZM7.02333 30.5547C7.57623 30.6667 7.76199 30.3338 7.5454 30.738C7.54593 30.738 7.54646 30.738 7.54699 30.738C7.40437 31.0052 7.3663 31.0642 7.32324 31.3119C6.61298 31.2227 6.3591 30.7204 6.21246 31.4128C6.21181 31.4219 6.63444 31.4037 6.57664 31.5144C6.55867 31.5485 6.21181 31.6578 6.1109 31.824C6.07861 31.8777 5.97164 32.2814 5.96491 31.7311C5.4698 31.7475 4.96867 31.718 4.48836 31.7193C4.34877 31.5045 5.31826 31.3394 5.29447 31.1122C5.2568 30.7748 4.27644 30.6031 5.56265 30.5383C5.87866 30.822 5.88625 31.3091 5.11278 31.3726C5.10337 31.6471 5.73707 31.7259 6.0506 31.5046C5.65236 30.5566 6.99125 31.2444 6.4854 30.4143C6.30652 30.4045 6.11401 30.3704 5.94587 30.3756C6.57537 30.1222 6.82558 30.5147 7.02333 30.5547ZM5.65548 32.5369C5.27742 32.3731 4.89633 32.2099 4.51693 32.0467C5.1331 32.0467 5.68604 32.1367 6.03315 32.3948C5.90678 32.4419 5.7805 32.4897 5.65548 32.5369ZM5.49362 18.76C5.15863 18.7364 4.85164 18.6736 4.53279 18.6277C4.81532 18.5779 5.08636 17.3987 5.3635 17.9986C5.40387 18.0858 4.8115 18.6172 5.49362 18.76ZM4.55025 73.2079C4.77493 73.0691 4.99997 72.9307 5.22465 72.7925C5.36718 73.0053 5.51344 73.2182 5.65865 73.431C5.28927 73.3565 4.91963 73.2825 4.55025 73.2079ZM5.84749 49.4434C5.83491 49.502 5.3742 49.3072 5.44681 49.5383C5.15217 49.366 4.90278 49.2047 4.62562 49.0363C4.84358 48.9859 5.06065 48.9349 5.27861 48.8845C5.13868 48.8452 4.9996 48.8051 4.85968 48.7658C5.1772 48.7894 5.4873 48.8103 5.8102 48.8352C5.12942 49.1189 5.9013 49.184 5.84749 49.4434ZM7.08918 57.878C6.39913 57.929 5.98877 57.5182 5.87843 57.9223C5.42506 57.8456 5.18726 57.7224 5.1469 57.4859C5.32028 57.448 5.49241 57.4101 5.66579 57.3721C5.20182 57.3669 5.02937 57.306 4.69862 57.1731C4.69915 57.173 4.69968 57.1729 4.7002 57.1728C4.66662 56.8132 4.82131 56.8347 5.58407 56.7483C5.15354 57.1289 5.85044 57.1403 6.26482 57.3997C6.54977 57.5779 6.42072 57.8105 7.08918 57.878ZM5.50156 20.0164C4.91905 19.7473 4.37573 19.9888 4.99456 19.5113C5.14256 19.5421 5.2893 19.573 5.43729 19.6038C5.46016 19.7413 5.48138 19.8789 5.50156 20.0164ZM4.72401 59.2063C5.79219 59.1755 6.62368 58.9221 4.88586 58.8788C4.53203 59.1258 5.5164 59.0052 4.72401 59.2063ZM6.70993 45.4937C6.66009 45.9686 5.45447 45.8788 4.85175 45.6836C5.07105 45.6535 5.29074 45.6233 5.5087 45.5939C5.40914 45.5107 5.30938 45.4275 5.21117 45.3443C5.7103 45.3941 6.21079 45.4439 6.70993 45.4937ZM5.89747 67.5787C5.13463 67.2158 5.47321 67.9705 4.99694 67.717C4.61624 67.5145 5.38488 67.2478 5.86653 67.3487C5.87998 67.4188 5.8894 67.4968 5.89747 67.578C5.89747 67.5783 5.89747 67.5785 5.89747 67.5787ZM5.67928 65.4785C4.86423 65.5381 5.10181 65.4522 5.24846 65.739C5.29016 65.8208 4.98405 66.4716 5.65945 66.1984C5.65945 65.9659 5.67121 65.7202 5.67928 65.4785ZM5.51742 40.0041C5.87236 39.9997 6.65174 40.5008 6.45683 40.5651C6.45736 40.5651 6.45789 40.5651 6.45842 40.5651C5.92699 40.7387 5.85148 40.2102 5.1223 40.4394C5.76395 39.9317 4.21192 39.7799 6.25689 39.8152C6.3466 40.1143 5.92505 39.9727 5.51742 40.0041ZM5.95222 1.91461C5.95222 1.91438 5.95222 1.91414 5.95222 1.91391C5.93553 1.94756 5.41461 2.22481 5.23418 2.1911C5.38888 1.85768 5.73177 1.9171 5.16832 1.6067C5.3498 1.58969 5.52582 1.57511 5.70864 1.55678C5.81627 1.67994 6.03429 1.74821 5.95222 1.91461ZM6.20929 17.4851C6.30212 17.6076 5.91745 17.8312 5.94032 17.9707C4.46309 17.5266 5.84062 16.9958 6.20929 17.4851ZM5.31907 84.0914C5.31854 84.0911 5.31801 84.0907 5.31748 84.0904C5.31828 84.0905 5.31906 84.0907 5.31986 84.0907C5.3196 84.091 5.31933 84.0912 5.31907 84.0914ZM5.32304 26.9782C5.41893 26.9624 5.50223 26.9534 5.57534 26.9502C5.58222 26.9502 5.5891 26.9502 5.59597 26.9502C5.50619 26.9588 5.41538 26.9679 5.32304 26.9782ZM5.41031 38.9627C5.90532 38.754 6.69228 39.4494 6.50444 39.6742C6.2785 39.6585 6.07367 39.656 5.81416 39.6194C6.39924 39.4379 5.3269 38.9974 5.41031 38.9627ZM5.59201 54.8153C5.60546 54.2657 7.55994 54.981 6.00062 55.0105C5.97041 55.0094 5.59467 54.8295 5.59201 54.8153ZM5.61502 43.2971C6.20675 43.4372 6.36388 43.1558 6.26165 43.6057C6.10838 43.6319 5.95474 43.6581 5.80147 43.6843C5.7396 43.5553 5.67689 43.4262 5.61502 43.2971ZM8.15792 51.2147C7.82831 50.523 7.24682 49.8613 5.61502 50.3119C5.66743 50.3643 5.71811 50.4174 5.77052 50.4697C6.56664 50.4776 6.13207 50.6708 6.10614 50.9536C6.42221 50.9939 6.49529 51.1507 6.76388 51.1801C7.28307 51.2371 7.64809 51.0569 8.15792 51.2147ZM6.86227 80.42C6.72638 80.4088 6.58978 80.3979 6.45524 80.3868C6.30187 80.2774 6.14923 80.1677 5.99585 80.0583C6.25663 80.076 6.51739 80.0937 6.77816 80.1114C6.8064 80.2142 6.83482 80.3165 6.86306 80.4193C6.8628 80.4195 6.86253 80.4197 6.86227 80.42ZM7.33514 33.211C5.83947 33.1481 6.11494 33.3677 6.871 33.8132C7.02571 33.6127 7.18043 33.4114 7.33514 33.211ZM7.55175 62.3307C7.12683 62.3451 6.70322 62.3593 6.27831 62.3744C6.72095 62.6108 7.20756 62.5669 7.76994 62.4536C7.69736 62.4124 7.62433 62.3719 7.55175 62.3307ZM7.73265 65.7372C7.82129 65.6391 7.47822 65.6892 7.4851 65.6789C7.66538 65.4306 7.82276 65.3957 7.56444 65.091C7.47432 65.0537 7.37955 65.017 7.28675 64.9797C6.39637 65.1205 6.88165 65.2228 6.35845 65.5208C6.66385 65.467 6.96968 65.4136 7.27643 65.3598C7.21187 65.5256 7.14819 65.6906 7.08363 65.8563C7.17781 65.8759 7.27112 65.8956 7.36529 65.9153C7.48634 65.8563 7.62237 65.7955 7.73265 65.7372ZM6.47587 81.6851C6.44089 81.8463 6.40453 82.0081 6.36955 82.1693C6.58884 82.1752 6.8096 82.1809 7.02888 82.1868C6.84461 82.0198 6.66015 81.8521 6.47587 81.6851ZM6.6536 29.9022C6.57581 29.8894 6.49755 29.877 6.41795 29.8659C6.51496 29.867 6.59068 29.881 6.6536 29.9022ZM7.15504 1.48941C7.30839 1.30666 7.2077 1.04332 7.23994 0.842875C6.68982 0.858634 6.84188 1.36811 6.5084 1.54701C6.60711 1.57575 7.09051 1.56665 7.15504 1.48941ZM6.66153 46.1507C6.93596 46.1965 7.20909 46.2423 7.48351 46.2875C7.45391 46.3983 7.42266 46.5092 7.39306 46.6206C7.61775 46.6238 7.84437 46.6271 8.06906 46.6303C7.77716 46.1397 8.42505 46.2529 9.064 46.01C8.26364 46.0572 7.46324 46.1035 6.66153 46.1507ZM7.90085 86.8127C7.74882 86.4583 7.46487 86.3326 6.79086 86.5323C6.94553 86.6574 7.10034 86.7832 7.25501 86.9083C7.47022 86.8762 7.68564 86.8441 7.90085 86.8127ZM7.16139 23.4477C6.90954 23.1512 7.81411 23.1462 7.30896 22.8564C7.14217 23.0116 6.97352 23.1668 6.80673 23.3214C6.92466 23.3631 7.04344 23.406 7.16139 23.4477ZM9.64558 37.9933C9.96026 37.8682 8.46442 37.6343 9.56862 37.2825C9.23906 37.1987 8.92427 37.1461 8.60144 37.0741C8.95259 37.0322 9.30823 36.9846 9.65668 36.9446C9.65668 36.9444 9.65668 36.9441 9.65668 36.9439C9.53829 36.6249 9.09789 36.8317 8.72521 36.8245C8.57072 36.8211 8.82898 36.5843 8.49274 36.6583C7.91556 36.7861 8.24746 37.2634 7.54381 37.2647C7.77378 37.097 7.58161 36.7695 7.11219 36.8664C6.59695 36.9725 7.46043 37.2811 7.03285 37.4777C8.15747 37.196 7.81009 37.7777 6.94637 37.8439C7.60964 38.1852 7.88021 37.8715 7.84928 37.5216C8.5112 37.7352 8.15358 37.4209 8.70379 37.3691C9.03592 37.5893 8.75906 38.345 9.64558 37.9933ZM8.42609 54.0958C8.38341 53.8599 8.76175 53.4914 8.20314 53.3299C7.87769 53.2358 7.62567 53.6052 7.11457 53.3505C7.1644 53.5803 7.36405 53.6328 7.81199 53.5935C7.86577 53.6458 7.91823 53.6989 7.97067 53.7513C7.88327 53.7755 7.79703 53.8003 7.70964 53.8246C7.89393 53.8521 8.07676 53.8798 8.26106 53.9066C8.22477 53.9622 8.18842 54.0185 8.15078 54.0742C8.24345 54.0807 8.3241 54.0919 8.42609 54.0958ZM7.13362 14.9322C7.139 14.9976 7.14435 15.0625 7.15107 15.128C7.26017 15.1208 7.37377 15.1122 7.4859 15.1039C7.57449 15.098 7.66309 15.092 7.75169 15.0861C7.43515 15.1241 6.90903 15.4361 7.24708 15.5675C7.41666 15.6336 8.01871 15.4832 8.1238 15.7634C8.09284 15.5603 8.01068 15.3723 7.95957 15.1751C8.1385 15.1928 8.31936 15.2098 8.4983 15.2275C8.49856 15.2274 8.49882 15.2273 8.49909 15.2271C8.53944 15.1617 8.58172 15.0954 8.62207 15.0299C8.12562 14.9971 7.63007 14.9649 7.13362 14.9322ZM8.39198 62.1387C8.04083 61.9153 7.85847 61.8405 7.29071 61.946C7.29045 61.9462 7.29018 61.9465 7.28992 61.9467C7.54146 62.0299 7.79291 62.1131 8.04446 62.1963C8.16016 62.1773 8.27627 62.1584 8.39198 62.1387ZM8.52765 27.978C6.37104 27.503 7.69308 28.5726 8.42768 28.369C8.46132 28.3598 8.28952 28.0225 8.52765 27.978ZM7.37323 45.4064C7.39072 45.5368 7.40652 45.6674 7.42401 45.7984C7.68905 45.7683 7.95317 45.7375 8.21822 45.7073C7.93703 45.6071 7.65442 45.5066 7.37323 45.4064ZM8.87993 85.2697C9.47191 85.1324 9.68639 84.7802 9.04258 84.6081C8.96724 84.6985 8.8918 84.789 8.81645 84.8794C8.74249 84.7085 8.66106 84.5394 8.59112 84.3672C7.76639 84.3581 8.24486 84.5566 8.01748 84.8553C7.98081 84.9015 6.95709 85.1972 7.72868 85.2993C7.88727 85.3199 7.99511 85.0053 8.45624 85.2239C8.49253 85.1283 8.48448 85.0458 8.50464 84.9555C8.70107 84.9489 8.89772 84.9424 9.09415 84.9352C9.02303 85.047 8.95105 85.1579 8.87993 85.2697ZM8.36183 52.7225C8.40734 52.3984 8.0778 52.3584 7.49541 52.291C7.56134 52.4417 7.62626 52.5924 7.69218 52.7431C7.91494 52.7359 8.13774 52.7296 8.36183 52.7225ZM9.06876 82.3735C9.16402 82.1961 8.68997 82.2721 8.59985 82.2007C8.26087 81.9309 8.59967 81.7468 8.38721 81.4802C8.4787 81.4979 8.56421 81.5141 8.65301 81.5312C8.65301 81.5309 8.65301 81.5307 8.65301 81.5305C9.05255 80.2681 7.97746 80.9312 8.15236 81.6865C7.97612 81.7042 7.79964 81.7212 7.62474 81.7389C7.93282 82.0769 8.22927 82.3886 9.06876 82.3735ZM8.60144 32.1975C8.71176 32.1831 9.41284 32.3056 9.08463 32.0757C8.06101 31.8936 8.56907 32.1922 8.17537 32.267C8.07716 32.2048 7.98161 32.1411 7.8834 32.0795C7.59413 32.4516 7.83753 32.506 8.58557 32.3703C8.63584 32.3607 8.49147 32.212 8.60144 32.1975ZM9.10605 29.7521C7.59786 29.701 8.27605 30.1706 8.74425 30.1536C8.76292 30.0887 8.50756 30.0383 8.62048 29.9696C8.73348 29.9002 9.08576 29.8824 9.10605 29.7521ZM8.73711 43.206C8.74384 43.1923 9.37772 43.0541 8.88152 43.0678C7.70698 43.2388 8.46299 43.5833 8.87199 43.523C8.85176 43.4091 8.67552 43.3331 8.7387 43.206C8.73817 43.206 8.73764 43.206 8.73711 43.206ZM9.23538 87.4068C9.27746 87.4003 9.53224 87.0555 9.29568 87.011C9.02934 86.9743 8.74389 86.9561 8.46814 86.9286C8.72377 87.1186 8.52904 87.5031 9.23538 87.4061C9.23538 87.4064 9.23538 87.4066 9.23538 87.4068Z" fill="#82C6DD"/>
</svg>
