<svg xmlns="http://www.w3.org/2000/svg" width="56" height="71" fill="none" viewBox="0 0 56 71"><path fill="#0ba6e2" d="M21.312 51.247c.03.47-.279 1.054.011 1.46.859.793 1.28 2.336 2.633 2.264.893.828 1.405 2.49 2.797 2.46l1.12 1.375.908.162c.5.547.411.816 1.397.953.446.262.706.637 1.289.57.82.61.702 1.112 1.977 1.059.697-.139.725.45 1.29.568.467-.08.729.21.988.518.564.132 1.261.01 1.762.279.317.538.868.416 1.343.467.41.044.796.077 1.016.488 1.227.529 1.233.524 1.654 1.068.885.17 1.802.094 2.666.379.495.72 1.297.348 1.94.539.604.938 2.029.174 2.586 1.126 1.193.322 2.837-.19 3.73.757 3.017.973 3.397-1.837 2.82 2.107-.531.618-1.302.162-1.997.196-.788.522-1.684.255-2.588.16-.308-.038-.397-.43-.688-.49-.62-.173-2.418-.035-2.608-.481-.273-.43-.76-.168-1.078-.37-.299-.43-.768-.493-1.28-.585-.452-.902-2.702-.266-3.04-.854-.5-.599-1.113-.034-1.502-.865-.755-.057-1.656.046-2.167-.611-.73.056-.954-.515-1.588-.614-.404-.015-.819-.03-1.205-.132-.262-.069-.339-.474-.69-.49-.303-.012-.605-.053-.907-.088-.64.126-.726-.517-1.29-.57-.189.009-.381-.074-.571-.115-.25-.57-.907-.302-1.261-.61-.305-.496-.955-.239-1.278-.587-.254-.422-.696-.296-1.06-.412-.365-.364-.717-.576-1.301-.55-1.104-1.731-1.243-.258-2.432-1.975-1.673.152-1.815-2.519-3.426-2.514-1.24-.81-1.087-1.93-2.82-2.449-.55-.197-.649-1.168-1.36-.949-.297.356-.679.358-1.091.282-.306-.096-.48.338-.773.344-1.75-.32-3.776.04-5.222-.958-.554-.125-1.313.102-1.69-.413-.276-.461-.969-.054-1.277-.592-1.102-1.807-3.44-3.215-3.581-5.37-.427-.656-1.283-1.157-.981-2.05-.272-.44-.425-.841-.297-1.378-.465-.822-.871-.753-.68-1.843-.083-.266-.444-.406-.344-.78.05-.188.097-.424.027-.588-.369-.376-.32-.856-.312-1.373-.36-.3-.326-.69-.26-1.095-.66-1.234-.009-2.727-.006-4.098.035-.381.197-.778-.153-1.129-.315-.592.222-2.683.215-3.58-.338-.291-.485-.634-.316-1.067.116-.436-.468-.61-.343-1.081.45-3.705.766-7.462 1.18-11.176 1.09-.81.155-2.612 1.22-3.495.28-.963-.172-2.247.774-2.867.215-.95-.193-2.367.798-3 .399-.263.378-.296.42-.726-.008-.89.224-1.555 1.024-2.002l.141-.891L8.876.278l.887.053c.45-.55 1.085-.253 1.733-.235.242.392 1.116.947.615 1.45-1.173.969-2.344 1.941-3.543 2.878-.423.33-.722.676-.679 1.236-.341.388-.596.734-.573 1.29-.042.175-.333.276-.407.414-.086.511-.07 1.008-.61 1.27l-.129.889c-.868.569-.435 1.912-.714 2.81-1.246 1.318-.17 3.697-1.252 5.073-.27.455-.403 1.233-.054 1.67.275.335.247.46-.066.76-.883 1.86-.523 4.423-.934 6.518.649 1.124.06 2.527.027 3.795-.053.343.29.5.344.775.037.19-.045.4-.049.603-.007.39-.192.781-.004 1.172.524.484-.063 1.161.512 1.603.116 1.188-.375 2.394-.22 3.58.364.307.283.706.238 1.103-.002.296.39.472.346.772.001.775-.013.787.457 1.324.542.84-.136 1.97.01 2.92.676 1.114 1.832 1.509 1.812 2.98.437 1.066 1.499 1.893 2.161 2.866.24.296.239.297 1.223.69.779.391 1.22 2.22 2.226 1.087l3.326.336c1.834-1.103-1.884-2.389-1.27-3.884.284-1.004-.219-1.447-.804-2.096-.472-.493.098-1.192-.513-1.607.056-.52.14-.996-.317-1.355.05-.814.332-1.62-.193-2.3l.655-6.3c.565-.518.929-.497 1.01-1.421.051-.324.405-.418.498-.689.092-1.429 1.906-1.976 2.797-2.967.147-.122.19-.324.171-.544.12-.867 1.27-1.288 1.855-1.867 1.211.136 1.864-.804 2.779-1.495l.919.035c.47-.345.862-.958 1.523-.694.718.122 1.126-1.296 1.764-.524.316.539.912.132 1.285.585.36.488.738.968 1.152 1.409.436.579-.153 1.092.499 1.617.08 1.526-.89 3.413-.061 4.745-.122 1.169-.26 2.374-.366 3.581-.785 1.03-.692 2.416-.808 3.709.024.485-.544.55-.562.989-.021.5-.117.996-.181 1.493-.5.254-.465.784-.601 1.273-.667.312-.215 1.147-.837 1.465-.494.273-.67.695-.678 1.233-.089.275-.446.365-.499.689-.054 1.386-1.75 1.258-1.571 2.664zm-5.51-13.526c.023.723-.396 1.65-.07 2.319.437.535.014 1.38.053 2.031-.017.381-.207.78.15 1.127.348.418-.181.976.324 1.363.67.452.495 1.848.903 2.065.507.889 1.811 1.611 1.754 2.685-.076.272-.036.395.179.414.75-.148 1.277-.98 1.933-1.378.394-.33.047-.998.594-1.278.846-.29.432-1.212 1.07-1.655.066-.038.098-.16.118-.25-.01-1.028 1.076-1.028 1.065-1.971-.071-.388.309-.478.48-.699.196-.753-.027-1.686.692-2.18.042-.402.133-.807.112-1.206-.024-.47.495-.619.537-.988.108-2.668 1.068-5.466.398-8.014.032-.838.56-1.942-.128-2.584l-2.09-.24c-.528.31-.953.747-1.438 1.115l-.923-.032-1.386 1.128-.129.9c-.777.631-1.56 1.27-2.337 1.902.013.576-.144.938-.561 1.3-.072.38-.027.767-.406 1.067-.658.842.15 2.423-.895 3.06"/></svg>