<svg width="141" height="141" viewBox="0 0 141 141" fill="none" xmlns="http://www.w3.org/2000/svg">
<path d="M35.8555 23.0215C35.6821 22.6472 35.7419 23.2901 35.6926 22.7932C35.7928 22.819 35.8807 22.8734 35.8555 23.0215Z" fill="#FC6B7E"/>
<path d="M69.5724 127.684C68.6267 126.604 68.6379 124.775 67.8492 123.512C67.7742 123.359 68.1582 123.458 67.9695 123.118C67.1197 121.921 66.6912 119.742 66.4897 118.015L66.6047 118.086C66.5651 117.757 66.1667 117.47 66.0994 117.13C66.1541 117.109 66.2122 117.209 66.2634 117.108C66.0697 117.08 65.9949 116.542 65.8253 116.443C65.8489 116.292 65.9855 116.262 66.0046 116.071L65.7535 115.945C65.1324 115.571 65.3761 114.669 64.9123 114.034C64.9676 114.054 65.0246 114.113 65.0491 114.043C64.405 112.99 63.9945 111.546 63.4806 110.302C63.5642 110.331 63.7023 110.339 63.7535 110.239C63.5328 110.241 63.3543 109.863 63.2045 109.534C63.361 109.313 62.8264 109.008 62.8107 108.57L62.8677 108.59C62.5559 108.363 62.8497 108.109 62.5131 107.952L62.6144 107.712C62.2818 107.676 62.6261 107.234 62.3996 107.037L62.3423 107.064C62.1968 106.856 62.3033 106.688 62.1856 106.49L62.2131 106.459C61.974 105.982 62.0413 105.638 61.8191 105.723C61.9431 105.489 62.0589 106.183 62.2336 105.821C61.4663 104.245 60.9612 102.529 60.4199 100.868C60.4498 100.65 60.4385 100.521 60.5104 100.451C60.4112 100.3 60.2668 99.8386 60.1023 99.7252C60.1245 99.7794 60.1834 99.5806 60.1663 99.4891C60.1541 99.1589 59.8104 99.2395 59.8046 98.8747C59.9078 98.9871 59.9952 99.0085 60.0655 98.9369C59.7972 98.7106 59.7029 98.3232 59.5372 98.0069C59.5923 98.0466 59.6412 98.1203 59.7082 98.0846C59.3895 97.7834 59.5347 97.403 59.3042 97.123L59.474 97.201C59.4658 96.6329 59.1511 97.1369 59.1005 96.6599C59.1766 96.7538 59.2156 96.6993 59.275 96.7016C58.9021 96.3621 58.7628 95.6628 58.5478 95.2726C58.5739 95.2916 58.6072 95.2737 58.6072 95.2737C58.431 94.8304 58.3519 94.3333 58.0871 93.8685C58.0869 93.6684 58.4259 93.8246 58.2227 93.3606C57.9655 93.4633 57.8513 92.582 57.6458 92.9608C57.5566 92.5374 57.4455 91.8579 57.2681 91.6139C57.4277 91.7655 57.5245 91.3105 57.6572 91.6432L57.7329 91.3346C57.8528 91.338 57.782 91.6111 57.8912 91.4858C57.8257 91.3182 57.5606 90.8551 57.5541 90.6887C57.2906 90.4252 56.8967 90.2321 56.6979 89.7311C56.8783 89.9385 56.9431 89.5005 57.0414 89.6497L56.3073 89.0986C56.2398 88.9324 56.5027 88.9944 56.3544 88.7706C56.289 88.8063 56.2118 88.7128 56.1313 88.6559C56.1404 88.5826 55.837 87.9696 56.0715 87.8121C56.1492 87.7045 56.216 88.0719 56.2467 87.8536C56.1421 87.5399 56.0496 87.5549 55.944 87.2416L55.9767 87.2243C55.9478 87.0042 55.6684 86.6481 55.5988 86.92C55.637 87.0672 55.7365 86.8149 55.7306 87.053C55.5329 86.9554 55.373 86.6037 55.2685 86.2904C55.3453 86.384 55.4098 86.3487 55.497 86.3682C55.1568 86.0114 54.948 85.5844 54.7105 85.1401C54.5849 85.1725 54.991 85.2437 54.9483 85.3341C54.923 84.6742 54.3029 84.1637 54.3893 83.5799C54.4379 83.6552 54.2292 83.6809 54.2617 83.6641C54.1831 83.3678 54.3653 83.3233 54.2378 83.1551C54.3365 83.1024 54.1274 82.9273 54.0324 82.7422C53.9236 82.666 54.0668 82.6748 54.1336 82.8412C53.9564 82.5979 53.4434 81.5605 53.3926 80.8823C53.3271 80.9168 53.0134 80.5777 52.9746 80.4311L53.155 80.4353C53.2089 80.2721 52.9841 79.9554 53.1151 79.8865C52.8187 79.641 53.6675 81.0217 53.3798 80.6531C53.4801 80.5014 52.934 80.1546 53.1837 80.1735C53.0839 79.8844 52.8107 79.662 52.8724 79.3356C52.8723 79.4247 53.1727 79.4988 53.0858 79.2677C52.9234 78.8645 52.9707 79.1752 52.8083 78.8579L52.6742 78.6694C52.5121 78.7062 52.5761 78.2934 52.4495 78.504C52.5634 78.4113 52.1754 77.9297 52.4507 77.8876L52.6748 77.8784C52.6019 77.7049 52.3633 77.6562 52.2267 77.5456C52.2386 77.5159 52.2645 77.4556 52.3011 77.4539C51.9768 77.5271 52.1894 77.0193 51.8774 76.8861C51.8657 76.4763 51.5793 75.9317 51.7189 75.6911C51.5303 75.4343 51.3317 75.2084 51.2935 74.858C51.344 74.914 51.3823 75.0009 51.4562 74.9973C51.4823 74.7614 51.3827 74.7373 51.2708 74.5655C51.3315 74.5924 51.3215 74.0937 51.3593 73.8286C51.1727 73.573 51.0345 73.726 50.9212 73.731C51.1473 73.369 50.4598 72.9885 50.6355 72.5697C50.7108 72.6548 50.923 72.9376 50.9243 72.6745C51.1497 72.3127 50.5241 72.2215 50.5371 71.7517L50.3127 71.9388C50.412 71.6995 49.9627 71.3667 50.2395 71.3245C50.1007 71.2134 50.1637 70.8001 49.9276 70.9281C49.9163 70.1667 49.2549 69.2856 49.5677 68.7142C49.4936 68.6287 49.4566 68.367 49.3435 68.4595C49.2566 68.6697 49.5185 68.6574 49.4424 68.7496C49.4059 68.6633 49.3309 68.6661 49.2931 68.6677C49.2811 68.4335 49.2445 68.2585 49.5194 68.3944C49.5203 67.8652 48.9321 68.0386 48.8332 67.3978C48.9462 67.3918 48.9708 67.3326 48.8965 67.1596L48.6087 66.8789C48.5226 66.4713 48.7731 66.5787 48.9465 66.5117C48.848 66.3109 48.7734 66.0501 48.6105 65.9972L48.7497 65.6696C48.6492 65.9077 48.5874 65.5305 48.5118 65.4455L48.5874 65.5305C48.6491 65.4675 48.5244 65.2389 48.4627 65.1232C48.3626 65.1872 48.3989 65.4504 48.4113 65.5964C48.2989 65.5136 48.2629 65.3407 48.1255 65.2276C48.3138 65.2187 48.1376 64.8445 48.1016 64.6712C48.0769 64.4669 47.8763 64.5052 47.8644 64.4469C47.9527 64.4129 47.7779 64.1285 47.9519 64.2376C48.0018 64.2938 47.9129 64.4156 48.0269 64.4983C48.0528 64.35 48.2137 64.3144 48.0152 64.0885C47.8655 63.9184 47.69 64.2496 47.678 63.8391C47.7531 63.9239 47.828 63.9196 47.9146 63.976L47.8909 63.5955L47.7286 63.6316C47.7532 63.5712 47.7772 63.5994 47.7914 63.5706C47.5916 63.5199 47.5669 63.0506 47.3546 63.0313C47.2809 62.8589 47.3429 62.6226 47.3061 62.4473L47.3304 62.4754C47.3562 62.2384 47.2061 61.9832 47.0436 61.8434L47.0809 61.8415C47.0568 61.7246 46.9456 61.4654 46.8071 61.3538C46.8335 61.0294 47.3709 61.0652 47.0706 60.8136C46.9715 60.5254 46.6348 60.4525 46.5717 60.6019C46.5098 60.0465 46.0613 59.5384 46.1497 58.9766C46.0618 58.9225 46.0371 58.9825 45.95 58.8402C45.7649 58.0549 45.2409 57.2857 45.3537 56.5769C45.4917 56.7774 45.516 56.5408 45.6044 56.5071C45.4044 56.3697 45.6799 56.24 45.4165 56.2524C45.2802 56.3168 45.2049 56.3209 45.2169 56.5551C44.9929 56.1236 44.7687 55.4303 44.8197 55.1335C44.7945 55.2816 44.7193 55.1976 44.6445 55.1116C44.8821 55.0715 44.808 54.7237 44.6457 54.4951L44.4953 54.5039L44.5841 54.2926C44.5082 54.2089 44.259 54.2785 44.3104 53.9828C44.3596 53.9524 44.4094 53.9203 44.4337 53.8612C44.2355 53.634 43.9237 53.3252 43.9481 53.0015L44.0745 52.7022C44.0127 52.5873 43.8249 52.4213 43.836 52.655C43.8001 52.1283 43.7136 51.8087 43.8381 51.5976C43.1404 50.8956 42.7292 49.6823 42.4441 48.6955L42.5571 48.6906C42.5693 48.397 42.3319 48.6133 42.3445 48.4068C42.4707 48.4598 42.4943 48.1375 42.6824 48.3045C42.6705 47.894 42.3467 47.8791 42.2206 47.6501C42.0728 47.6573 42.3711 47.8181 42.1831 47.8268C42.1208 47.8009 42.1214 47.2733 41.8966 47.2815C41.9468 47.1613 42.1223 47.1855 42.2219 47.2092L42.0479 47.0121C42.1979 46.654 42.6841 47.512 42.8852 47.1221L42.7846 46.9209C42.935 46.6498 43.2089 47.4013 43.111 46.847C42.9349 46.6494 42.5729 46.5491 42.5483 46.7838C42.3365 46.3234 41.9857 46.7207 41.836 46.1999C41.9115 46.0199 41.9984 46.6028 42.1362 46.4488C42.2237 46.1523 41.8859 45.9914 41.8742 45.7571C41.8739 46.0219 41.6003 45.8868 41.5127 45.7439C41.5248 45.4503 41.7626 45.8507 41.6635 45.473C41.5248 45.4503 41.3257 45.1378 41.3382 45.4594C41.0255 45.4124 41.2879 45.0488 41.0138 44.9146C41.164 44.7323 41.5759 45.155 41.5386 44.7168C41.3762 44.8408 41.1274 44.2938 40.926 44.597C40.927 44.42 41.0653 44.3569 41.2151 44.4371C41.2534 44.1722 40.7027 43.991 41.0407 43.7984L40.8285 43.7807C40.8663 43.6895 40.8788 43.5724 40.9419 43.423C40.88 43.2206 40.4796 42.8564 40.7672 42.7837C40.7173 42.7283 40.5816 42.2652 40.4436 42.5057C40.417 42.8297 40.6923 42.7876 40.4801 43.0321C40.6302 42.7612 40.3191 42.6296 40.1938 42.4875L40.2941 42.4254C40.2198 42.3407 40.1704 42.1069 40.0327 42.0838C40.1196 42.1386 40.181 42.0757 40.1821 41.9886L39.9828 41.9393C39.7708 41.5665 40.2441 41.7512 40.0702 41.3778L40.2945 41.6313C40.2459 41.5755 40.3578 41.3931 40.2464 41.2239C40.0712 41.2008 39.8461 41.1235 39.7082 41.0996C39.5712 40.902 39.8471 40.9464 39.622 40.7812L39.8956 41.0046C39.9592 41.031 40.0842 40.7333 39.9857 40.4419C39.8729 40.272 39.5603 40.0525 39.5729 40.3744C39.5233 40.2283 39.5488 39.9929 39.6969 40.0736C39.5373 39.7578 39.5482 40.1698 39.3612 39.9132C39.4241 39.7631 39.4497 39.3514 39.5252 39.0834L39.8751 39.301L39.8128 39.101C40.0994 39.2933 39.9261 38.9206 40.1867 38.9965C40.1768 38.8496 40.0503 38.7088 39.9523 38.5954C39.7383 39.104 39.3396 38.3014 39.064 38.518C38.803 38.0008 39.7145 37.9315 39.0412 37.5214C38.9899 37.6408 38.6654 37.4495 38.8663 37.7637C38.7914 37.4138 38.4782 37.6347 38.4785 37.1933C38.7028 37.448 38.6929 36.7733 39.0174 37.1406C38.9044 37.1455 39.0156 37.4046 39.0666 37.4609C39.141 37.2824 39.3901 37.3879 39.278 37.0411C39.1796 36.8395 39.0797 36.5512 38.9304 36.6457C38.7543 36.7128 39.0541 36.9629 38.8294 36.8859C38.6307 36.4842 38.8802 36.3261 38.5066 36.2538C38.6172 36.5124 38.4543 36.6386 38.3304 36.6736L38.1554 36.3877L38.2938 36.4094C38.2189 35.8852 38.0305 36.3327 37.9066 35.8407L38.0687 35.5393C38.3079 35.5886 38.2052 36.2684 38.507 36.0762C38.4196 35.7589 38.2183 35.7094 38.2082 35.3867C38.2578 35.4434 38.2949 35.5303 38.3452 35.5855C38.3199 35.4698 38.7206 35.2171 38.3204 34.8535C38.1464 34.6553 38.1832 34.8307 38.0582 34.8648C37.8583 34.3748 37.6842 34.2657 37.5604 33.9481C37.8229 33.9366 37.3985 33.3691 37.7603 33.6465C37.6727 33.8566 37.921 34.5785 38.2086 34.6821C38.4343 34.407 38.2961 35.0893 38.6199 35.1042C38.496 34.699 38.7832 34.6276 38.9463 34.5033C38.9229 34.3874 38.8104 34.3042 38.7598 34.247C38.5712 34.256 38.6212 34.4009 38.4456 34.4671C38.3473 34.0024 38.1103 33.6009 37.8621 33.4076C37.8992 33.2298 38.0873 33.2214 38.1614 33.3937C37.9371 32.8755 37.776 32.2963 37.6642 31.7718C37.4879 32.1912 37.4145 31.2267 37.2523 31.5266C37.2769 31.8193 37.1512 32.1183 36.976 32.0093C36.9393 31.8331 37.1016 31.9745 37.1389 31.8843C36.9145 31.7176 37.2773 31.4673 36.9651 31.3337C37.2144 31.7926 37.3403 31.3176 37.5908 31.3355C37.352 31.0237 37.7531 31.2994 37.6406 30.9515C37.4037 30.6399 37.1674 30.2402 36.9933 29.8653C37.0448 29.3076 36.5959 28.6229 36.4458 28.1878C36.4836 27.9227 36.7843 27.9967 36.7471 27.7343C36.648 27.4446 36.5468 28.0383 36.522 27.569L36.5853 27.5943C36.4848 27.4829 36.4993 26.748 36.0983 26.7361L36.4129 26.7818C36.4113 26.6936 36.3251 26.6386 36.2749 26.5813C36.362 26.5496 36.412 26.4298 36.5121 26.5421C36.6128 26.2152 36.3011 25.9923 36.2 25.7052L36.1 25.9436C35.8139 25.488 35.8651 25.1048 35.6542 24.6437L35.8159 24.607L35.6299 24.3521C35.8041 24.3724 35.818 24.079 35.6418 23.9695L36.266 24.587C36.2399 24.8229 36.0035 24.4232 35.8907 24.6024C35.7913 24.7557 35.9771 25.1863 36.1514 25.2092C36.1138 25.0338 36.0767 25.0364 35.9775 24.923C36.178 24.796 36.2526 25.0569 36.4398 25.1375C36.4022 25.0515 36.4277 24.9033 36.3526 24.9065C36.5159 25.0464 36.5896 25.2176 36.6888 25.5073C36.5399 25.3373 36.5882 25.6583 36.5014 25.6038C36.7015 25.5649 36.8502 25.8241 36.9131 26.201C36.774 26.5301 37.2743 26.8308 37.3484 27.2678C37.099 27.1615 36.8731 26.9961 36.7121 26.7679C36.6987 27.0611 36.8116 27.0574 36.7982 27.3519C36.9846 27.4315 37.2365 27.4501 37.4354 27.763L37.2977 27.8279C37.4709 28.1144 37.6839 28.0455 37.7713 28.4523C37.9193 29.1503 38.1438 29.8447 38.2924 30.3658L38.1554 30.4316C38.5549 30.6191 38.5776 31.3506 38.8389 31.6918C38.9133 32.3933 39.4371 33.0737 39.2989 33.4902C39.7837 34.6133 40.2192 35.5913 40.5547 36.8088L40.2806 36.6746C40.5038 36.8401 40.2059 36.8532 40.3044 37.0539C40.3932 36.7578 40.6155 37.2762 40.7915 37.3839C40.8022 37.9707 41.2007 38.5998 41.5005 39.0263L41.3628 39.0912C41.7873 39.4828 41.7358 40.1312 41.8848 40.7417C41.8475 40.8296 41.7472 40.9813 41.821 41.1537C42.1579 41.4024 42.1959 41.577 42.4945 42.0046C42.6066 42.3511 42.7309 42.9325 42.7545 43.3138C43.5022 44.5125 43.7248 45.9116 44.3591 47.2033L44.222 47.3559C45.0076 48.5534 45.2029 50.2755 45.7504 51.3377L45.427 51.3227C45.4518 51.7028 45.762 52.0998 45.9376 51.9441C45.9634 52.3251 46.3622 52.7786 46.1974 53.0789C46.261 53.4567 46.4732 53.4772 46.609 53.764C46.733 54.521 46.8448 54.7808 47.1184 55.4433L47.082 55.269C46.9945 55.2148 46.8695 55.2478 46.9059 55.4232C47.0679 55.6508 47.1302 56.3816 47.3925 56.0176C47.4281 56.8083 48.1024 57.659 48.0622 58.4523C48.1372 58.3616 48.2126 58.5342 48.3002 58.5887C48.5101 59.2245 48.5353 59.9564 48.8594 60.4133C48.8452 60.5301 48.6476 60.3036 48.7212 60.5663C48.8067 60.7083 48.8452 60.5301 48.959 60.7021C49.4684 61.6776 49.4538 62.8508 49.8031 63.775C50.5243 65.385 50.9955 67.1551 51.543 68.7443L51.468 68.7482C51.9052 69.1982 51.6035 70.0917 52.1394 70.3903C52.1141 70.538 52.2646 70.8838 52.1011 70.8327C52.4255 71.1988 52.3114 72.0836 52.7474 72.6232C52.7358 72.5644 52.7112 72.5368 52.66 72.4811C52.709 73.1524 53.0956 73.6345 53.17 74.336C53.1187 74.2791 53.0575 74.1648 52.9827 74.1679C52.9323 74.4641 53.4691 74.6748 53.1805 74.9221C53.2307 75.0666 53.3814 74.9717 53.3425 74.8854C53.6784 76.3662 54.3875 77.8327 54.9476 79.3048C55.0954 80.4423 54.4079 79.5517 54.9301 80.3179C54.888 80.4077 55.0736 80.3266 55.0089 80.3608C55.2078 80.6581 54.8014 80.9908 55.0498 81.1619C55.224 81.0019 55.213 81.276 55.3395 81.2429C55.4188 81.9416 55.2767 82.133 55.5995 82.6005L55.4793 82.5964C55.9796 83.105 56.0441 83.8606 56.5608 84.2591C57.7067 87.5851 58.939 90.7295 60.0345 93.9791C61.0106 97.2259 62.1896 100.332 63.0625 103.668C63.0272 104.527 63.0536 104.582 63.4412 105.387C63.3842 105.368 63.3567 105.318 63.3322 105.389C63.5774 105.357 63.5458 105.975 63.7937 105.984C64.1419 107.21 64.5659 108.304 64.9705 109.549C64.882 109.36 64.6603 109.323 64.7512 109.552L64.9785 109.749L64.9269 109.81C65.0129 109.959 65.1838 110.096 65.2047 109.907C66.4174 112.972 66.9474 116.202 67.9956 119.248C68.1341 120.008 68.5583 121.015 68.8615 121.79C69.31 124.235 69.7434 126.428 70.7305 128.74C70.7291 128.739 70.0287 128.622 69.5724 127.684Z" fill="#FC6B7E"/>
<path d="M36.0288 23.4829C35.9397 23.604 35.9645 23.897 35.7389 23.7299C35.8392 23.6678 35.9158 23.4878 36.0288 23.4829Z" fill="#FC6B7E"/>
<path d="M37.1895 31.1479C37.2268 31.146 37.176 31.2668 37.164 31.2961C37.1264 31.209 37.0012 31.1568 37.039 31.0656C37.0772 31.1537 37.1273 31.1223 37.1895 31.1479Z" fill="#FC6B7E"/>
<path d="M37.7218 33.0312C37.6091 33.0368 37.3989 32.665 37.3102 32.4341L37.7218 33.0312Z" fill="#FC6B7E"/>
<path d="M37.8553 34.9027C37.8167 35.08 37.7558 35.0538 37.6938 34.8524C37.7436 34.8204 37.7924 34.8776 37.8553 34.9027Z" fill="#FC6B7E"/>
<path d="M38.1323 34.9502C38.1812 35.0939 38.1433 35.1847 38.1073 35.2741C38.194 35.2398 37.9435 34.9585 38.1323 34.9502Z" fill="#FC6B7E"/>
<path d="M39.0493 38.8119C39.0868 38.8999 39.2361 39.0678 39.1484 39.1896C39.1982 39.0691 38.875 38.7913 39.0493 38.8119Z" fill="#FC6B7E"/>
<path d="M39.769 40.5114C39.7805 40.5699 39.7689 40.5989 39.8189 40.655C39.8055 40.7732 39.695 40.6888 39.657 40.6048L39.769 40.5114Z" fill="#FC6B7E"/>
<path d="M50.4837 72.2238L50.3727 72.0522L50.483 72.0472L50.4837 72.2238Z" fill="#FC6B7E"/>
<path d="M55.0023 86.1789C55.1278 86.3458 54.9483 86.3409 54.9432 86.3768C54.8778 86.2107 55.09 86.3985 55.0023 86.1789Z" fill="#FC6B7E"/>
<path d="M57.952 93.5365L57.9313 93.4807L58.1472 93.4322L57.952 93.5365Z" fill="#FC6B7E"/>
<path d="M71.2473 11.5767C71.0738 11.2024 71.1336 11.8453 71.0843 11.3483C71.1845 11.3742 71.2725 11.4286 71.2473 11.5767Z" fill="#FC6B7E"/>
<path d="M104.968 116.239C104.023 115.159 104.034 113.33 103.245 112.067C103.17 111.914 103.554 112.014 103.365 111.673C102.516 110.476 102.087 108.297 101.886 106.57L102.001 106.642C101.961 106.313 101.563 106.025 101.495 105.685C101.55 105.664 101.608 105.764 101.659 105.664C101.466 105.635 101.391 105.097 101.221 104.998C101.245 104.847 101.381 104.818 101.4 104.627L101.149 104.501C100.528 104.126 100.772 103.225 100.308 102.589C100.363 102.609 100.42 102.668 100.445 102.598C99.8009 101.545 99.3904 100.101 98.8765 98.8573C98.9601 98.8862 99.0982 98.8939 99.1493 98.7945C98.9286 98.7962 98.7502 98.4185 98.6003 98.0893C98.7569 97.8686 98.2223 97.5634 98.2066 97.1256L98.2636 97.1447C97.9518 96.9179 98.2455 96.6646 97.909 96.5076L98.0103 96.2673C97.6776 96.231 98.022 95.7897 97.7955 95.592L97.7382 95.6192C97.5927 95.4109 97.6992 95.2436 97.5815 95.0451L97.6089 95.014C97.3698 94.537 97.4372 94.1927 97.215 94.2782C97.339 94.0438 97.4547 94.7378 97.6295 94.3764C96.8622 92.8005 96.3571 91.0839 95.8158 89.4232C95.8457 89.2051 95.8344 89.0759 95.9063 89.0057C95.8071 88.8549 95.6627 88.3937 95.4982 88.2804C95.5204 88.3346 95.5792 88.1358 95.5622 88.0443C95.55 87.714 95.2062 87.7947 95.2005 87.4299C95.3037 87.5423 95.3911 87.5637 95.4614 87.4921C95.1931 87.2657 95.0987 86.8784 94.9331 86.5621C94.9882 86.6018 95.037 86.6755 95.104 86.6397C94.7854 86.3386 94.9305 85.9582 94.7 85.6782L94.8699 85.7561C94.8617 85.188 94.547 85.6921 94.4963 85.2151C94.5724 85.309 94.6115 85.2545 94.6709 85.2568C94.298 84.9173 94.1586 84.218 93.9437 83.8278C93.9698 83.8467 94.0031 83.8289 94.0031 83.8289C93.8269 83.3855 93.7478 82.8884 93.483 82.4237C93.4828 82.2236 93.8218 82.3798 93.6186 81.9158C93.3613 82.0185 93.2472 81.1372 93.0417 81.516C92.9524 81.0925 92.8414 80.4131 92.6639 80.169C92.8236 80.3207 92.9204 79.8656 93.053 80.1984L93.1287 79.8897C93.2487 79.8932 93.1779 80.1663 93.2871 80.041C93.2216 79.8734 92.9565 79.4103 92.95 79.2439C92.6865 78.9804 92.2925 78.7872 92.0938 78.2863C92.2742 78.4937 92.339 78.0557 92.4373 78.2049L91.7031 77.6538C91.6357 77.4876 91.8985 77.5496 91.7503 77.3258C91.6848 77.3614 91.6077 77.2679 91.5272 77.2111C91.5363 77.1378 91.2329 76.5248 91.4673 76.3673C91.5451 76.2597 91.6119 76.627 91.6426 76.4088C91.538 76.0951 91.4455 76.1101 91.3399 75.7967L91.3726 75.7795C91.3437 75.5594 91.0643 75.2033 90.9947 75.4752C91.0329 75.6224 91.1323 75.3701 91.1264 75.6081C90.9288 75.5106 90.7689 75.1589 90.6644 74.8455C90.7412 74.9391 90.8056 74.9038 90.8929 74.9233C90.5527 74.5666 90.3439 74.1396 90.1064 73.6953C89.9808 73.7277 90.3869 73.7989 90.3442 73.8893C90.3189 73.2294 89.6987 72.7189 89.7851 72.135C89.8337 72.2104 89.6251 72.2361 89.6576 72.2193C89.5789 71.923 89.7612 71.8785 89.6337 71.7102C89.7324 71.6576 89.5233 71.4825 89.4282 71.2974C89.3195 71.2211 89.4627 71.23 89.5294 71.3964C89.3522 71.1531 88.8393 70.1157 88.7884 69.4375C88.723 69.472 88.4092 69.1328 88.3705 68.9863L88.5508 68.9905C88.6048 68.8272 88.38 68.5106 88.511 68.4416C88.2146 68.1962 89.0634 69.5769 88.7757 69.2082C88.876 69.0566 88.3299 68.7097 88.5795 68.7287C88.4798 68.4396 88.2066 68.2172 88.2683 67.8907C88.2682 67.9799 88.5685 68.054 88.4817 67.8229C88.3192 67.4196 88.3665 67.7304 88.2041 67.4131L88.0701 67.2246C87.908 67.2614 87.9719 66.8486 87.8454 67.0592C87.9592 66.9665 87.5713 66.4848 87.8465 66.4427L88.0707 66.4336C87.9978 66.2601 87.7592 66.2114 87.6226 66.1008C87.6345 66.0711 87.6603 66.0108 87.6969 66.0091C87.3727 66.0823 87.5853 65.5745 87.2733 65.4413C87.2615 65.0315 86.9752 64.4869 87.1147 64.2463C86.9261 63.9895 86.7276 63.7636 86.6893 63.4132C86.7399 63.4692 86.7782 63.5561 86.8521 63.5525C86.8782 63.3166 86.7785 63.2925 86.6667 63.1207C86.7274 63.1476 86.7174 62.6489 86.7552 62.3837C86.5685 62.1282 86.4304 62.2812 86.317 62.2862C86.5432 61.9241 85.8557 61.5437 86.0314 61.1249C86.1066 61.21 86.3189 61.4928 86.3202 61.2297C86.5456 60.8679 85.92 60.7766 85.933 60.3068L85.7085 60.494C85.8078 60.2547 85.3585 59.9218 85.6353 59.8796C85.4966 59.7685 85.5596 59.3553 85.3234 59.4833C85.3122 58.7219 84.6508 57.8408 84.9636 57.2693C84.8894 57.1839 84.8525 56.9222 84.7393 57.0147C84.6525 57.2249 84.9144 57.2126 84.8382 57.3048C84.8017 57.2185 84.7268 57.2212 84.689 57.2229C84.677 56.9887 84.6403 56.8137 84.9153 56.9496C84.9162 56.4204 84.328 56.5938 84.2291 55.953C84.342 55.9469 84.3667 55.8878 84.2924 55.7148L84.0046 55.4341C83.9185 55.0265 84.169 55.1339 84.3424 55.0668C84.2439 54.8661 84.1693 54.6053 84.0064 54.5524L84.1455 54.2248C84.0451 54.4629 83.9833 54.0857 83.9077 54.0007L83.9833 54.0857C84.045 54.0227 83.9203 53.7941 83.8586 53.6784C83.7585 53.7424 83.7947 54.0055 83.8072 54.1516C83.6948 54.0687 83.6588 53.8959 83.5214 53.7828C83.7096 53.7739 83.5335 53.3996 83.4974 53.2264C83.4728 53.0221 83.2721 53.0604 83.2603 53.0021C83.3486 52.968 83.1738 52.6837 83.3478 52.7928C83.3976 52.849 83.3088 52.9708 83.4228 53.0535C83.4487 52.9052 83.6095 52.8696 83.411 52.6437C83.2614 52.4736 83.0859 52.8048 83.0739 52.3943C83.149 52.479 83.2239 52.4748 83.3105 52.5312L83.2868 52.1507L83.1245 52.1868C83.1491 52.1264 83.1731 52.1546 83.1872 52.1258C82.9875 52.0751 82.9628 51.6058 82.7505 51.5864C82.6768 51.414 82.7388 51.1778 82.702 51.0025L82.7263 51.0306C82.7521 50.7935 82.6019 50.5383 82.4395 50.3986L82.4768 50.3967C82.4526 50.2798 82.3415 50.0206 82.2029 49.909C82.2294 49.5846 82.7667 49.6203 82.4665 49.3687C82.3674 49.0806 82.0307 49.0077 81.9676 49.1571C81.9057 48.6017 81.4571 48.0936 81.5456 47.5317C81.4577 47.4777 81.433 47.5377 81.3459 47.3954C81.1607 46.6101 80.6368 45.8409 80.7496 45.132C80.8875 45.3325 80.9119 45.096 81.0003 45.0623C80.8003 44.9249 81.0757 44.7951 80.8124 44.8076C80.6761 44.872 80.6007 44.8761 80.6128 45.1102C80.3888 44.6788 80.1646 43.9855 80.2156 43.6887C80.1904 43.8368 80.1151 43.7528 80.0404 43.6668C80.278 43.6267 80.2039 43.2789 80.0416 43.0503L79.8912 43.059L79.98 42.8478C79.904 42.764 79.6549 42.8337 79.7062 42.538C79.7554 42.5076 79.8052 42.4754 79.8295 42.4164C79.6314 42.1892 79.3196 41.8804 79.3439 41.5566L79.4704 41.2573C79.4086 41.1425 79.2208 40.9764 79.2319 41.2102C79.196 40.6834 79.1095 40.3639 79.234 40.1528C78.5363 39.4508 78.1251 38.2374 77.84 37.2507L77.953 37.2458C77.9651 36.9522 77.7278 37.1685 77.7404 36.962C77.8666 37.015 77.8902 36.6926 78.0783 36.8597C78.0663 36.4492 77.7425 36.4343 77.6165 36.2053C77.4687 36.2125 77.7669 36.3732 77.579 36.382C77.5167 36.356 77.5173 35.8285 77.2924 35.8367C77.3427 35.7165 77.5182 35.7406 77.6177 35.7643L77.4438 35.5673C77.5938 35.2092 78.08 36.0672 78.2811 35.6773L78.1805 35.476C78.3309 35.205 78.6048 35.9565 78.5068 35.4022C78.3308 35.2046 77.9688 35.1043 77.9442 35.339C77.7324 34.8786 77.3816 35.2758 77.2319 34.7551C77.3074 34.5751 77.3943 35.158 77.5321 35.0039C77.6196 34.7075 77.2818 34.5466 77.2701 34.3123C77.2697 34.5771 76.9962 34.4419 76.9085 34.2991C76.9207 34.0054 77.1585 34.4059 77.0594 34.0282C76.9207 34.0054 76.7215 33.693 76.7341 34.0146C76.4214 33.9676 76.6837 33.604 76.4097 33.4698C76.5599 33.2875 76.9718 33.7102 76.9345 33.2719C76.7721 33.396 76.5233 32.849 76.3219 33.1522C76.3229 32.9752 76.4612 32.9121 76.611 32.9923C76.6493 32.7273 76.0985 32.5462 76.4365 32.3536L76.2244 32.3358C76.2621 32.2447 76.2747 32.1276 76.3378 31.9782C76.2759 31.7758 75.8755 31.4116 76.1631 31.3389C76.1131 31.2835 75.9774 30.8203 75.8394 31.0608C75.8129 31.3849 76.0882 31.3428 75.876 31.5873C76.026 31.3163 75.7149 31.1848 75.5896 31.0427L75.6899 30.9806C75.6157 30.8959 75.5662 30.6621 75.4286 30.639C75.5155 30.6938 75.5769 30.6309 75.578 30.5437L75.3787 30.4944C75.1667 30.1217 75.64 30.3063 75.4661 29.933L75.6904 30.1865C75.6418 30.1306 75.7537 29.9483 75.6423 29.779C75.4671 29.7559 75.2419 29.6786 75.1041 29.6548C74.967 29.4572 75.2429 29.5016 75.0179 29.3363L75.2915 29.5598C75.3551 29.5861 75.4801 29.2885 75.3816 28.9971C75.2687 28.8271 74.9562 28.6077 74.9688 28.9296C74.9192 28.7834 74.9447 28.5481 75.0928 28.6288C74.9332 28.3129 74.9441 28.725 74.7571 28.4684C74.82 28.3183 74.8456 27.9066 74.9211 27.6386L75.271 27.8562L75.2087 27.6562C75.4953 27.8485 75.3219 27.4757 75.5826 27.5517C75.5726 27.4048 75.4462 27.2639 75.3481 27.1506C75.1342 27.6592 74.7355 26.8566 74.4599 27.0731C74.1988 26.5559 75.1104 26.4867 74.4371 26.0766C74.3858 26.196 74.0612 26.0047 74.2621 26.3189C74.1873 25.969 73.8741 26.1899 73.8744 25.7485C74.0986 26.0031 74.0888 25.3284 74.4132 25.6958C74.3003 25.7006 74.4115 25.9598 74.4625 26.016C74.5369 25.8376 74.786 25.9431 74.6739 25.5962C74.5754 25.3947 74.4756 25.1064 74.3263 25.2008C74.1502 25.2679 74.45 25.5181 74.2253 25.4411C74.0266 25.0393 74.2761 24.8813 73.9025 24.809C74.0131 25.0676 73.8502 25.1937 73.7262 25.2287L73.5513 24.9429L73.6897 24.9646C73.6147 24.4403 73.4264 24.8879 73.3025 24.3959L73.4646 24.0945C73.7038 24.1438 73.6011 24.8236 73.9029 24.6314C73.8155 24.314 73.6142 24.2646 73.6041 23.9419C73.6537 23.9985 73.6908 24.0854 73.7411 24.1407C73.7158 24.025 74.1164 23.7722 73.7162 23.4087C73.5423 23.2105 73.5791 23.3858 73.4541 23.42C73.2541 22.9299 73.0801 22.8209 72.9562 22.5032C73.2188 22.4918 72.7944 21.9242 73.1562 22.2017C73.0686 22.4118 73.3169 23.1337 73.6045 23.2373C73.8302 22.9622 73.692 23.6445 74.0158 23.6594C73.8918 23.2542 74.1791 23.1828 74.3422 23.0585C74.3188 22.9426 74.2063 22.8593 74.1557 22.8022C73.9671 22.8112 74.0171 22.9561 73.8414 23.0223C73.7432 22.5576 73.5062 22.1561 73.258 21.9627C73.2951 21.785 73.4832 21.7765 73.5572 21.9488C73.333 21.4307 73.1719 20.8514 73.0601 20.327C72.8838 20.7464 72.8103 19.7819 72.6481 20.0818C72.6728 20.3745 72.5471 20.6735 72.3719 20.5644C72.3352 20.3882 72.4975 20.5297 72.5347 20.4394C72.3104 20.2728 72.6732 20.0225 72.361 19.8889C72.6102 20.3478 72.7361 19.8728 72.9866 19.8906C72.7478 19.5789 73.1489 19.8546 73.0364 19.5067C72.7996 19.1951 72.5632 18.7954 72.3892 18.4205C72.4407 17.8628 71.9917 17.1781 71.8417 16.743C71.8795 16.4779 72.1801 16.5519 72.143 16.2895C72.0438 15.9998 71.9426 16.5935 71.9179 16.1242L71.9812 16.1494C71.8807 16.0381 71.8952 15.3032 71.4942 15.2913L71.8088 15.337C71.8072 15.2487 71.721 15.1937 71.6708 15.1365C71.7579 15.1048 71.8079 14.985 71.908 15.0973C72.0086 14.7704 71.6969 14.5475 71.5959 14.2604L71.4959 14.4988C71.2098 14.0432 71.261 13.66 71.0501 13.1989L71.2118 13.1622L71.0258 12.9073C71.2 12.9276 71.2138 12.6342 71.0377 12.5246L71.6619 13.1421C71.6358 13.3781 71.3994 12.9784 71.2865 13.1576C71.1872 13.3109 71.3729 13.7414 71.5473 13.7644C71.5097 13.5889 71.4726 13.5915 71.3734 13.4782C71.5739 13.3512 71.6485 13.6121 71.8356 13.6927C71.7981 13.6067 71.8236 13.4585 71.7484 13.4617C71.9117 13.6016 71.9855 13.7728 72.0846 14.0625C71.9358 13.8925 71.9841 14.2134 71.8973 14.159C72.0974 14.1201 72.2461 14.3793 72.309 14.7561C72.1699 15.0853 72.6702 15.386 72.7442 15.8229C72.4949 15.7167 72.269 15.5513 72.108 15.3231C72.0946 15.6163 72.2075 15.6126 72.1941 15.907C72.3805 15.9867 72.6324 16.0053 72.8313 16.3182L72.6936 16.3831C72.8667 16.6695 73.0798 16.6006 73.1672 17.0075C73.3151 17.7055 73.5397 18.3999 73.6883 18.921L73.5512 18.9868C73.9508 19.1742 73.9735 19.9057 74.2348 20.247C74.3091 20.9485 74.833 21.6289 74.6948 22.0454C75.1796 23.1685 75.615 24.1465 75.9505 25.364L75.6765 25.2298C75.8997 25.3953 75.6017 25.4084 75.7003 25.6091C75.789 25.313 76.0114 25.8314 76.1873 25.9391C76.1981 26.5259 76.5966 27.155 76.8964 27.5815L76.7586 27.6464C77.1832 28.038 77.1317 28.6864 77.2807 29.2969C77.2434 29.3848 77.1431 29.5364 77.2169 29.7088C77.5537 29.9576 77.5918 30.1321 77.8904 30.5598C78.0024 30.9063 78.1267 31.4876 78.1504 31.869C78.8981 33.0677 79.1207 34.4668 79.755 35.7585L79.6178 35.9111C80.4034 37.1085 80.5988 38.8307 81.1463 39.8929L80.8229 39.8778C80.8477 40.258 81.1578 40.6549 81.3334 40.4992C81.3593 40.8802 81.7581 41.3337 81.5933 41.6341C81.6569 42.0119 81.8691 42.0324 82.0049 42.3192C82.1289 43.0762 82.2406 43.336 82.5143 43.9984L82.4779 43.8241C82.3904 43.7699 82.2654 43.8029 82.3018 43.9784C82.4637 44.2059 82.5261 44.9367 82.7884 44.5728C82.824 45.3635 83.4982 46.2142 83.4581 47.0075C83.5331 46.9167 83.6085 47.0894 83.6961 47.1439C83.906 47.7797 83.9312 48.5116 84.2553 48.9685C84.2411 49.0853 84.0435 48.8588 84.1171 49.1215C84.2025 49.2635 84.2411 49.0853 84.3549 49.2572C84.8643 50.2328 84.8497 51.406 85.1989 52.3302C85.9201 53.9401 86.3913 55.7103 86.9389 57.2994L86.8639 57.3033C87.3011 57.7534 86.9994 58.6469 87.5353 58.9454C87.51 59.0932 87.6605 59.4389 87.497 59.3878C87.8214 59.754 87.7072 60.6388 88.1433 61.1784C88.1317 61.1196 88.1071 61.092 88.0559 61.0362C88.1049 61.7076 88.4914 62.1897 88.5658 62.8912C88.5146 62.8343 88.4534 62.72 88.3785 62.7231C88.3281 63.0193 88.865 63.2299 88.5763 63.4773C88.6266 63.6217 88.7773 63.5269 88.7384 63.4405C89.0742 64.9214 89.7834 66.3879 90.3435 67.86C90.4913 68.9974 89.8037 68.1068 90.326 68.873C90.2839 68.9629 90.4695 68.8817 90.4047 68.916C90.6037 69.2132 90.1972 69.546 90.4457 69.717C90.6199 69.5571 90.6088 69.8312 90.7353 69.7981C90.8147 70.4968 90.6725 70.6882 90.9954 71.1557L90.8752 71.1516C91.3755 71.6602 91.44 72.4157 91.9567 72.8143C93.1026 76.1403 94.3349 79.2847 95.4304 82.5343C96.4065 85.7811 97.5854 88.8876 98.4584 92.2229C98.4231 93.0818 98.4495 93.137 98.837 93.9425C98.78 93.9234 98.7526 93.8736 98.7281 93.9441C98.9733 93.9117 98.9416 94.5306 99.1896 94.5395C99.5377 95.7647 99.9617 96.8594 100.366 98.1046C100.278 97.9154 100.056 97.878 100.147 98.1071L100.374 98.3045L100.323 98.365C100.409 98.5138 100.58 98.6517 100.601 98.4624C101.813 101.527 102.343 104.757 103.392 107.803C103.53 108.563 103.954 109.57 104.257 110.346C104.706 112.79 105.139 114.984 106.126 117.295C106.125 117.294 105.425 117.177 104.968 116.239Z" fill="#FC6B7E"/>
<path d="M71.4247 12.0381C71.3356 12.1592 71.3604 12.4522 71.1347 12.2851C71.235 12.223 71.3117 12.043 71.4247 12.0381Z" fill="#FC6B7E"/>
<path d="M72.5851 19.7032C72.6224 19.7013 72.5716 19.8221 72.5596 19.8514C72.522 19.7642 72.3969 19.7121 72.4346 19.6209C72.4729 19.709 72.5229 19.6775 72.5851 19.7032Z" fill="#FC6B7E"/>
<path d="M73.1155 21.5865C73.0027 21.5921 72.7926 21.2202 72.7039 20.9894L73.1155 21.5865Z" fill="#FC6B7E"/>
<path d="M73.2471 23.4579C73.2084 23.6351 73.1475 23.609 73.0855 23.4076C73.1353 23.3755 73.1842 23.4328 73.2471 23.4579Z" fill="#FC6B7E"/>
<path d="M73.5241 23.5054C73.5729 23.6491 73.535 23.7399 73.499 23.8293C73.5857 23.795 73.3352 23.5137 73.5241 23.5054Z" fill="#FC6B7E"/>
<path d="M74.443 27.3671C74.4805 27.4551 74.6298 27.623 74.5421 27.7448C74.5919 27.6243 74.2687 27.3465 74.443 27.3671Z" fill="#FC6B7E"/>
<path d="M75.1646 29.0667C75.1761 29.1251 75.1645 29.1541 75.2145 29.2102C75.2011 29.3284 75.0907 29.2441 75.0526 29.16L75.1646 29.0667Z" fill="#FC6B7E"/>
<path d="M85.8774 60.7789L85.7664 60.6073L85.8766 60.6024L85.8774 60.7789Z" fill="#FC6B7E"/>
<path d="M90.396 74.7341C90.5215 74.901 90.342 74.8961 90.3368 74.932C90.2715 74.7658 90.4837 74.9536 90.396 74.7341Z" fill="#FC6B7E"/>
<path d="M93.3457 82.0917L93.325 82.0359L93.5408 81.9874L93.3457 82.0917Z" fill="#FC6B7E"/>
<path d="M117.488 35.8556C117.862 35.6822 117.219 35.7419 117.716 35.6926C117.69 35.7928 117.636 35.8808 117.488 35.8556Z" fill="#FC6B7E"/>
<path d="M12.8265 69.5722C13.9061 68.6266 15.7354 68.6378 16.9982 67.849C17.1515 67.7741 17.0521 68.158 17.3925 67.9694C18.5891 67.1195 20.7687 66.6911 22.4955 66.4895L22.424 66.6045C22.7529 66.565 23.0408 66.1666 23.3806 66.0993C23.4014 66.154 23.3014 66.2121 23.402 66.2632C23.4304 66.0695 23.9688 65.9947 24.0676 65.8252C24.2183 65.8488 24.248 65.9854 24.4391 66.0045L24.5651 65.7534C24.9396 65.1323 25.8406 65.3761 26.4763 64.9121C26.4563 64.9675 26.3973 65.0244 26.4674 65.0491C27.5199 64.405 28.9645 63.9945 30.2079 63.4806C30.1791 63.5642 30.1714 63.7023 30.2708 63.7534C30.269 63.5327 30.6467 63.3543 30.9759 63.2044C31.1966 63.361 31.5018 62.8264 31.9396 62.8107L31.9205 62.8677C32.1473 62.5559 32.4006 62.8496 32.5576 62.5131L32.798 62.6144C32.8342 62.2817 33.2755 62.6261 33.4728 62.3997L33.4457 62.3424C33.6539 62.1969 33.8213 62.3034 34.0197 62.1857L34.0509 62.2131C34.5279 61.9741 34.8722 62.0414 34.7866 61.8192C35.021 61.9432 34.327 62.0589 34.6885 62.2337C36.264 61.4665 37.981 60.9613 39.6417 60.42C39.8597 60.4499 39.989 60.4386 40.0592 60.5105C40.21 60.4113 40.6711 60.2669 40.7845 60.1024C40.7303 60.1246 40.9291 60.1835 41.0205 60.1664C41.3508 60.1542 41.2702 59.8105 41.635 59.8047C41.5225 59.9079 41.5012 59.9953 41.5728 60.0656C41.7991 59.7973 42.1865 59.7029 42.5028 59.5373C42.4631 59.5924 42.3894 59.6412 42.4251 59.7083C42.7263 59.3896 43.1067 59.5348 43.3867 59.3043L43.3087 59.4741C43.8768 59.4659 43.3728 59.1512 43.8497 59.1006C43.7559 59.1767 43.8104 59.2157 43.8081 59.2751C44.1476 58.9022 44.8468 58.7629 45.2371 58.5479C45.2181 58.574 45.2359 58.6073 45.2359 58.6073C45.6793 58.4311 46.1764 58.352 46.6412 58.0872C46.8413 58.087 46.6851 58.426 47.1491 58.2228C47.0463 57.9656 47.9277 57.8514 47.5489 57.6459C47.9723 57.5566 48.6518 57.4456 48.8958 57.2682C48.7442 57.4278 49.1992 57.5246 48.8664 57.6572L49.1748 57.7331C49.1713 57.853 48.8983 57.7822 49.0238 57.8913C49.1915 57.8258 49.6546 57.5607 49.8206 57.5543C50.0841 57.2908 50.2773 56.8969 50.7783 56.6981C50.5708 56.8786 51.0088 56.9433 50.8596 57.0416L51.4107 56.3075C51.5769 56.24 51.5146 56.503 51.7387 56.3547C51.7031 56.2892 51.7966 56.212 51.8537 56.1314C51.9271 56.1405 52.54 55.8371 52.6976 56.0715C52.8052 56.1493 52.4378 56.2161 52.6561 56.2468C52.9698 56.1422 52.9548 56.0497 53.2681 55.9441L53.2854 55.9768C53.5055 55.9479 53.8616 55.6685 53.5897 55.5989C53.4425 55.6371 53.6947 55.7366 53.4567 55.7307C53.5542 55.533 53.906 55.3731 54.2193 55.2686C54.1257 55.3454 54.161 55.4099 54.1415 55.4971C54.4983 55.1569 54.9253 54.9481 55.3696 54.7106C55.3372 54.585 55.266 54.9911 55.1756 54.9484C55.8355 54.9231 56.346 54.3029 56.9298 54.3893C56.8545 54.438 56.8288 54.2293 56.8456 54.2618C57.1419 54.1832 57.1863 54.3654 57.3546 54.2379C57.4073 54.3366 57.5824 54.1275 57.7675 54.0325C57.8437 53.9237 57.8349 54.0669 57.6685 54.1337C57.9118 53.9565 58.9491 53.4435 59.6274 53.3927C59.5929 53.3272 59.932 53.0135 60.0786 52.9747L60.0744 53.1551C60.2376 53.209 60.5543 52.9842 60.6232 53.1152C60.8687 52.8188 59.488 53.6676 59.8566 53.3799C60.0083 53.4802 60.3551 52.9341 60.3362 53.1838C60.6253 53.084 60.8477 52.8108 61.1741 52.8725C61.085 52.8724 61.0109 53.1728 61.242 53.0859C61.6452 52.9234 61.3345 52.9708 61.6518 52.8083L61.8403 52.6743C61.8035 52.5122 62.2163 52.5762 62.0057 52.4496C62.0984 52.5635 62.58 52.1755 62.6221 52.4508L62.6313 52.6749C62.8048 52.602 62.8535 52.3634 62.9641 52.2268C62.9937 52.2387 63.0541 52.2646 63.0558 52.3012C62.9826 51.9769 63.4903 52.1895 63.6236 51.8775C64.0334 51.8658 64.5783 51.5793 64.8186 51.719C65.0754 51.5303 65.3013 51.3318 65.6517 51.2936C65.5957 51.3441 65.5088 51.3824 65.5123 51.4563C65.7483 51.4824 65.7724 51.3827 65.9442 51.2709C65.9173 51.3316 66.416 51.3216 66.6811 51.3594C66.9366 51.1728 66.7837 51.0346 66.7787 50.9213C67.1407 51.1474 67.5212 50.4599 67.94 50.6356C67.8549 50.7108 67.5721 50.9231 67.8352 50.9244C68.197 51.1498 68.2882 50.5242 68.758 50.5372L68.5709 50.3128C68.8102 50.4121 69.143 49.9628 69.1852 50.2396C69.2963 50.1008 69.7096 50.1638 69.5816 49.9277C70.343 49.9164 71.2241 49.255 71.7955 49.5678C71.881 49.4937 72.1427 49.4567 72.0502 49.3436C71.84 49.2567 71.8523 49.5186 71.7601 49.4425C71.8464 49.406 71.8436 49.331 71.8416 49.2933C72.0758 49.2813 72.2508 49.2447 72.115 49.5196C72.6442 49.5205 72.4708 48.9323 73.1115 48.8334C73.1176 48.9464 73.1768 48.971 73.3498 48.8967L73.6304 48.6089C74.038 48.5228 73.9306 48.7734 73.9977 48.9467C74.1984 48.8482 74.4593 48.7736 74.5121 48.6107L74.8398 48.7499C74.6016 48.6494 74.9788 48.5876 75.0639 48.512L74.9788 48.5876C75.0418 48.6493 75.2704 48.5246 75.3861 48.4629C75.3221 48.3629 75.059 48.3991 74.9129 48.4115C74.9958 48.2991 75.1687 48.2631 75.2818 48.1257C75.2907 48.314 75.6649 48.1378 75.8381 48.1018C76.0424 48.0771 76.0045 47.8763 76.0624 47.8646C76.0965 47.9529 76.3808 47.7781 76.2717 47.9521C76.2155 48.002 76.0938 47.9131 76.011 48.0271C76.1593 48.053 76.1949 48.2139 76.4208 48.0154C76.5909 47.8657 76.2597 47.6902 76.6702 47.6782C76.5855 47.7533 76.5897 47.8282 76.5333 47.9149L76.9138 47.8911L76.8778 47.7288C76.9381 47.7535 76.9099 47.7774 76.9387 47.7916C76.9894 47.5918 77.4588 47.5671 77.4781 47.3548C77.6505 47.2811 77.8867 47.3431 78.062 47.3063L78.0339 47.3307C78.271 47.3564 78.5262 47.2063 78.6659 47.0438L78.6679 47.0811C78.7848 47.057 79.0439 46.9458 79.1555 46.8073C79.4799 46.8337 79.4442 47.3711 79.6958 47.0708C79.9839 46.9718 80.0568 46.6351 79.9074 46.572C80.4628 46.51 80.971 46.0615 81.5328 46.1499C81.5869 46.0621 81.5269 46.0373 81.6691 45.9502C82.4544 45.7651 83.2236 45.2411 83.9325 45.3539C83.732 45.4919 83.9685 45.5162 84.0022 45.6046C84.1396 45.4046 84.2694 45.6801 84.2569 45.4167C84.1925 45.2804 84.1885 45.2051 83.9543 45.2171C84.3857 44.9931 85.079 44.7689 85.3758 44.8199C85.2277 44.7947 85.3117 44.7195 85.3978 44.6447C85.4379 44.8823 85.786 44.8081 86.0142 44.6459L86.0055 44.4955L86.2167 44.5843C86.3005 44.5084 86.2308 44.2592 86.5266 44.3106C86.5569 44.3598 86.5891 44.4096 86.6481 44.4339C86.8753 44.2357 87.1842 43.9239 87.5079 43.9483L87.8072 44.0747C87.9221 44.0129 88.0881 43.8251 87.8544 43.8362C88.3811 43.8004 88.7006 43.7138 88.9117 43.8383C89.6137 43.1406 90.8271 42.7294 91.8138 42.4443L91.8187 42.5573C92.1123 42.5695 91.896 42.3322 92.1026 42.3447C92.0496 42.4709 92.3719 42.4945 92.2048 42.6826C92.6153 42.6707 92.6302 42.3469 92.8592 42.2208C92.852 42.073 92.6913 42.3713 92.6825 42.1834C92.7085 42.121 93.236 42.1216 93.2278 41.8968C93.348 41.947 93.3239 42.1225 93.3002 42.2221L93.4972 42.0481C93.8553 42.1981 92.9974 42.6843 93.3873 42.8854L93.5885 42.7848C93.8596 42.9352 93.108 43.2091 93.6624 43.1112C93.8599 42.9351 93.9602 42.5731 93.7259 42.5484C94.1863 42.3366 93.789 41.9858 94.3098 41.8361C94.4898 41.9116 93.9069 41.9985 94.0609 42.1363C94.3574 42.2238 94.5183 41.886 94.7526 41.8743C94.4878 41.874 94.6233 41.6003 94.7658 41.5128C95.0594 41.5249 94.659 41.7627 95.0366 41.6636C95.0594 41.5249 95.3719 41.3258 95.0503 41.3383C95.0973 41.0256 95.4609 41.288 95.5951 41.0139C95.7774 41.1641 95.3547 41.576 95.7929 41.5387C95.6689 41.3763 96.2158 41.1275 95.9126 40.9261C96.0897 40.9271 96.1528 41.0654 96.0726 41.2152C96.3375 41.2535 96.5187 40.7027 96.7112 41.0408L96.729 40.8286C96.8202 40.8664 96.9372 40.8789 97.0867 40.942C97.2891 40.8801 97.6533 40.4797 97.726 40.7673C97.7814 40.7174 98.2445 40.5817 98.004 40.4436C97.68 40.4171 97.7221 40.6924 97.4776 40.4802C97.7485 40.6303 97.8801 40.3191 98.0222 40.1939L98.0843 40.2942C98.169 40.2199 98.4028 40.1705 98.4259 40.0328C98.3711 40.1197 98.434 40.1811 98.5211 40.1822L98.5704 39.9829C98.9432 39.7709 98.7589 40.2441 99.1319 40.0703L98.8784 40.2946C98.9342 40.246 99.1166 40.3579 99.2858 40.2465C99.3089 40.0713 99.3862 39.8462 99.41 39.7083C99.6077 39.5712 99.5632 39.8472 99.7285 39.6221L99.505 39.8957C99.4787 39.9593 99.7764 40.0843 100.068 39.9858C100.238 39.873 100.458 39.5603 100.135 39.573C100.282 39.5233 100.517 39.5489 100.436 39.697C100.752 39.5374 100.34 39.5483 100.596 39.3613C100.747 39.4242 101.158 39.4498 101.426 39.5253L101.209 39.8752L101.409 39.8129C101.216 40.0995 101.589 39.926 101.514 40.1867C101.66 40.1769 101.801 40.0503 101.915 39.9522C101.406 39.7383 102.209 39.3396 101.992 39.064C102.509 38.803 102.579 39.7145 102.989 39.0412C102.869 38.9899 103.061 38.6653 102.746 38.8662C103.096 38.7914 102.875 38.4782 103.317 38.4785C103.062 38.7028 103.737 38.6929 103.369 39.0173C103.365 38.9044 103.105 39.0156 103.049 39.0666C103.228 39.141 103.122 39.3901 103.469 39.278C103.671 39.1795 103.959 39.0797 103.864 38.9304C103.797 38.7543 103.547 39.0541 103.624 38.8294C104.026 38.6307 104.184 38.8802 104.256 38.5066C103.998 38.6172 103.871 38.4543 103.836 38.3304L104.122 38.1554L104.101 38.2938C104.625 38.2189 104.177 38.0305 104.669 37.9066L104.971 38.0687C104.921 38.3079 104.242 38.2052 104.434 38.507C104.751 38.4196 104.801 38.2183 105.123 38.2082C105.067 38.2578 104.98 38.2949 104.925 38.3452C105.04 38.3199 105.293 38.7205 105.657 38.3203C105.855 38.1464 105.679 38.1832 105.645 38.0582C106.135 37.8582 106.244 37.6842 106.562 37.5604C106.573 37.8229 107.141 37.3985 106.864 37.7603C106.653 37.6727 105.932 37.921 105.828 38.2086C106.103 38.4343 105.421 38.2961 105.406 38.6199C105.811 38.4959 105.882 38.7832 106.007 38.9463C106.123 38.9229 106.206 38.8104 106.263 38.7598C106.254 38.5712 106.109 38.6212 106.043 38.4455C106.508 38.3473 106.909 38.1103 107.102 37.8621C107.28 37.8992 107.289 38.0873 107.116 38.1613C107.635 37.9371 108.214 37.776 108.738 37.6642C108.319 37.4879 109.283 37.4145 108.983 37.2523C108.691 37.2769 108.392 37.1512 108.501 36.976C108.677 36.9393 108.536 37.1016 108.626 37.1388C108.792 36.9145 109.043 37.2773 109.176 36.9651C108.717 37.2144 109.192 37.3402 109.175 37.5907C109.486 37.3519 109.211 37.753 109.559 37.6405C109.87 37.4037 110.27 37.1673 110.645 36.9933C111.202 37.0448 111.887 36.5958 112.322 36.4458C112.587 36.4836 112.513 36.7843 112.776 36.7471C113.065 36.6479 112.472 36.5467 112.941 36.522L112.916 36.5853C113.027 36.4848 113.762 36.4993 113.774 36.0983L113.728 36.4129C113.816 36.4113 113.871 36.3251 113.929 36.2749C113.96 36.362 114.08 36.412 113.968 36.5121C114.295 36.6127 114.518 36.301 114.805 36.2L114.566 36.1C115.022 35.8139 115.405 35.8651 115.866 35.6542L115.903 35.8159L116.158 35.6299C116.138 35.8041 116.431 35.8179 116.541 35.6418L115.923 36.2664C115.687 36.2402 116.087 36.0039 115.908 35.891C115.754 35.7916 115.324 35.9774 115.301 36.1517C115.476 36.1141 115.474 36.0771 115.587 35.9779C115.714 36.1784 115.453 36.253 115.373 36.4401C115.459 36.4025 115.607 36.4281 115.604 36.3529C115.464 36.5162 115.293 36.5899 115.003 36.6891C115.173 36.5403 114.852 36.5886 114.906 36.5018C114.945 36.7019 114.686 36.8506 114.309 36.9134C113.98 36.7744 113.679 37.2746 113.242 37.3487C113.349 37.0993 113.514 36.8733 113.743 36.7124C113.449 36.6989 113.453 36.8119 113.159 36.7984C113.079 36.9848 113.06 37.2367 112.747 37.4357L112.683 37.2979C112.396 37.4711 112.465 37.6841 112.058 37.7715C111.36 37.9195 110.665 38.1441 110.145 38.2926L110.079 38.1556C109.892 38.555 109.16 38.5779 108.819 38.8391C108.117 38.9135 107.437 39.4373 107.02 39.2991C105.897 39.7839 104.919 40.2194 103.702 40.5549L103.836 40.2808C103.67 40.504 103.657 40.2061 103.456 40.3047C103.752 40.3935 103.234 40.6159 103.126 40.7918C102.539 40.8025 101.91 41.2011 101.484 41.5008L101.419 41.3631C101.027 41.7876 100.379 41.7362 99.7684 41.8851C99.6806 41.8479 99.5289 41.7476 99.3565 41.8213C99.1078 42.1582 98.9332 42.1963 98.5055 42.4949C98.1591 42.6069 97.5777 42.7312 97.1964 42.7548C95.9976 43.5025 94.5986 43.7251 93.3069 44.3594L93.1542 44.2223C91.9568 45.0079 90.235 45.2031 89.1728 45.7507L89.1879 45.4272C88.8077 45.452 88.4107 45.7622 88.5664 45.9378C88.1854 45.9637 87.7319 46.3625 87.4316 46.1977C87.0538 46.2612 87.0333 46.4735 86.7465 46.6092C85.9895 46.7332 85.7297 46.845 85.0673 47.1186L85.2416 47.0822C85.2957 46.9947 85.2627 46.8697 85.0873 46.9062C84.8597 47.0681 84.129 47.1305 84.4929 47.3927C83.7022 47.4283 82.8515 48.1026 82.0582 48.0624C82.149 48.1375 81.9763 48.2128 81.9218 48.3004C81.286 48.5104 80.5541 48.5355 80.0972 48.8596C79.9804 48.8454 80.2069 48.6478 79.9442 48.7214C79.8022 48.8069 79.9804 48.8454 79.8084 48.9593C78.8332 49.4685 77.6597 49.454 76.7359 49.8032C75.1259 50.5244 73.3554 50.9957 71.7666 51.5431L71.7627 51.4681C71.3126 51.9053 70.4191 51.6036 70.1206 52.1395C69.9729 52.1142 69.6271 52.2647 69.6782 52.1012C69.3121 52.4256 68.4272 52.3115 67.8876 52.7475C67.9464 52.7359 67.9741 52.7113 68.0298 52.6601C67.3581 52.7092 66.8763 53.0957 66.1748 53.1701C66.2321 53.1187 66.3461 53.0576 66.343 52.9828C66.0468 52.9324 65.8361 53.4692 65.5887 53.1806C65.4443 53.2308 65.5392 53.3815 65.6255 53.3426C64.1446 53.6785 62.6782 54.3876 61.2061 54.9477C60.0689 55.0954 60.9592 54.408 60.193 54.9302C60.1032 54.8881 60.1843 55.0737 60.1501 55.009C59.8528 55.2079 59.52 54.8015 59.349 55.0499C59.509 55.2241 59.2349 55.2131 59.268 55.3396C58.5692 55.4189 58.3778 55.2768 57.9103 55.5996L57.9145 55.4794C57.4058 55.9797 56.6503 56.0442 56.2517 56.5609C52.9261 57.7067 49.7814 58.9391 46.5317 60.0346C43.2849 61.0107 40.1784 62.1897 36.8431 63.0627C35.9842 63.0273 35.929 63.0537 35.1236 63.4413C35.1427 63.3843 35.1924 63.3568 35.122 63.3323C35.1543 63.5775 34.5354 63.5459 34.5269 63.7937C33.3017 64.1419 32.207 64.5658 30.9618 64.9705C31.151 64.882 31.1884 64.6603 30.9593 64.7512L30.7619 64.9785L30.7014 64.9269C30.5526 65.0129 30.4147 65.1838 30.604 65.2046C27.5393 66.4174 24.3097 66.9474 21.2629 67.9956C20.5036 68.1341 19.4965 68.5583 18.7209 68.8615C16.2764 69.31 14.0828 69.7434 11.7715 70.7305C11.7714 70.7289 11.8881 70.0286 12.8265 69.5722Z" fill="#FC6B7E"/>
<path d="M117.023 36.0302C116.902 35.9411 116.609 35.9659 116.776 35.7402C116.839 35.8405 117.019 35.9172 117.023 36.0302Z" fill="#FC6B7E"/>
<path d="M109.36 37.19C109.361 37.2274 109.241 37.1765 109.211 37.1645C109.298 37.127 109.351 37.0017 109.442 37.0395C109.354 37.0778 109.385 37.1278 109.36 37.19Z" fill="#FC6B7E"/>
<path d="M107.479 37.7222C107.473 37.6095 107.845 37.3994 108.076 37.3106L107.479 37.7222Z" fill="#FC6B7E"/>
<path d="M105.608 37.8568C105.43 37.8182 105.456 37.7574 105.658 37.6953C105.69 37.7451 105.633 37.7939 105.608 37.8568Z" fill="#FC6B7E"/>
<path d="M105.559 38.1326C105.415 38.1814 105.325 38.1436 105.235 38.1076C105.27 38.1943 105.551 37.9438 105.559 38.1326Z" fill="#FC6B7E"/>
<path d="M101.697 39.0495C101.609 39.0869 101.44 39.2363 101.319 39.1486C101.439 39.1983 101.717 38.8751 101.697 39.0495Z" fill="#FC6B7E"/>
<path d="M99.9985 39.7709C99.9401 39.7825 99.9111 39.7709 99.855 39.8209C99.7368 39.8074 99.8211 39.697 99.9052 39.6589L99.9985 39.7709Z" fill="#FC6B7E"/>
<path d="M68.2849 50.4852L68.4565 50.3742L68.4615 50.4844L68.2849 50.4852Z" fill="#FC6B7E"/>
<path d="M54.33 55.0039C54.1631 55.1294 54.168 54.9499 54.1321 54.9448C54.2983 54.8794 54.1105 55.0916 54.33 55.0039Z" fill="#FC6B7E"/>
<path d="M46.9726 57.9535L47.0284 57.9327L47.0769 58.1486L46.9726 57.9535Z" fill="#FC6B7E"/>
<path d="M128.934 71.2466C129.308 71.0732 128.665 71.1329 129.162 71.0836C129.137 71.1838 129.082 71.2718 128.934 71.2466Z" fill="#FC6B7E"/>
<path d="M24.2721 104.963C25.3517 104.018 27.1809 104.029 28.4438 103.24C28.597 103.165 28.4976 103.549 28.8381 103.36C30.0347 102.511 32.2143 102.082 33.9411 101.881L33.8696 101.996C34.1985 101.956 34.4864 101.558 34.8262 101.49C34.847 101.545 34.747 101.603 34.8475 101.654C34.876 101.461 35.4143 101.386 35.5131 101.216C35.6638 101.24 35.6935 101.376 35.8846 101.395L36.0106 101.144C36.3852 100.523 37.2863 100.767 37.9215 100.303C37.9015 100.359 37.8425 100.416 37.9126 100.44C38.9651 99.7961 40.4097 99.3856 41.6535 98.8716C41.6246 98.9552 41.6169 99.0933 41.7163 99.1445C41.7145 98.9238 42.0923 98.7453 42.4215 98.5955C42.6422 98.752 42.9474 98.2174 43.3852 98.2017L43.3661 98.2587C43.5929 97.9469 43.8462 98.2407 44.0032 97.9041L44.2435 98.0054C44.2798 97.6728 44.7211 98.0171 44.9184 97.7907L44.8913 97.7334C45.0995 97.5879 45.2668 97.6944 45.4653 97.5767L45.4964 97.6042C45.9734 97.3651 46.3177 97.4324 46.2322 97.2103C46.4666 97.3342 45.7726 97.45 46.134 97.6247C47.7099 96.8575 49.4265 96.3524 51.0872 95.811C51.3053 95.841 51.4345 95.8296 51.5047 95.9016C51.6556 95.8023 52.1167 95.6579 52.23 95.4934C52.1758 95.5157 52.3747 95.5745 52.4661 95.5574C52.7964 95.5452 52.7157 95.2015 53.0805 95.1957C52.9681 95.2989 52.9467 95.3864 53.0183 95.4566C53.2447 95.1884 53.6321 95.094 53.9483 94.9284C53.9087 94.9834 53.8349 95.0323 53.8707 95.0993C54.1718 94.7806 54.5522 94.9258 54.8323 94.6953L54.7543 94.8651C55.3224 94.8569 54.8183 94.5422 55.2953 94.4916C55.2015 94.5677 55.2559 94.6067 55.2536 94.6661C55.5932 94.2932 56.2924 94.1539 56.6826 93.9389C56.6637 93.965 56.6815 93.9983 56.6815 93.9983C57.1249 93.8221 57.622 93.7431 58.0867 93.4782C58.2868 93.478 58.1306 93.817 58.5946 93.6138C58.4919 93.3566 59.3732 93.2424 58.9944 93.0369C59.4179 92.9477 60.0973 92.8366 60.3414 92.6592C60.1897 92.8189 60.6448 92.9156 60.312 93.0483L60.6203 93.1241C60.6169 93.244 60.3438 93.1732 60.4694 93.2823C60.637 93.2168 61.1001 92.9517 61.2662 92.9453C61.5297 92.6818 61.7228 92.2879 62.2238 92.0891C62.0164 92.2696 62.4544 92.3343 62.3052 92.4326L62.8563 91.6985C63.0225 91.6311 62.9605 91.8939 63.1843 91.7457C63.1486 91.6802 63.2421 91.603 63.2993 91.5224C63.3726 91.5315 63.9856 91.2281 64.1431 91.4626C64.2507 91.5403 63.8834 91.6072 64.1017 91.6378C64.4154 91.5332 64.4007 91.4406 64.7137 91.3351L64.7309 91.3679C64.951 91.3389 65.3071 91.0596 65.0352 90.99C64.8881 91.0282 65.1403 91.1276 64.9023 91.1217C64.9998 90.924 65.3515 90.7641 65.6649 90.6597C65.5713 90.7365 65.6066 90.8009 65.5871 90.8881C65.9438 90.5479 66.3708 90.3391 66.8151 90.1016C66.7827 89.976 66.7116 90.3822 66.6211 90.3395C67.281 90.3141 67.7915 89.694 68.3754 89.7804C68.3 89.829 68.2744 89.6203 68.2911 89.6528C68.5874 89.5742 68.6319 89.7564 68.8002 89.6289C68.8528 89.7276 69.028 89.5185 69.213 89.4235C69.2893 89.3148 69.2805 89.458 69.114 89.5247C69.3573 89.3475 70.3947 88.8345 71.0729 88.7837C71.0385 88.7182 71.3776 88.4045 71.5241 88.3657L71.5199 88.5461C71.6832 88.6 71.9998 88.3753 72.0688 88.5062C72.3142 88.2099 70.9335 89.0586 71.3022 88.7709C71.4538 88.8712 71.8007 88.3251 71.7817 88.5748C72.0708 88.475 72.2932 88.2018 72.6197 88.2635C72.5305 88.2634 72.4564 88.5638 72.6875 88.4769C73.0908 88.3145 72.7801 88.3618 73.0974 88.1994L73.2862 88.0652C73.2494 87.9031 73.6622 87.9671 73.4516 87.8405C73.5443 87.9544 74.0259 87.5664 74.068 87.8417L74.0772 88.0658C74.2507 87.9929 74.2994 87.7544 74.41 87.6177C74.4397 87.6296 74.5 87.6555 74.5017 87.6921C74.4285 87.3678 74.9366 87.5803 75.0695 87.2684C75.4793 87.2567 76.0242 86.9702 76.2645 87.1099C76.5213 86.9213 76.7472 86.7227 77.0976 86.6845C77.0416 86.735 76.9547 86.7733 76.9583 86.8472C77.1942 86.8733 77.2183 86.7737 77.3901 86.6618C77.3632 86.7225 77.8619 86.7125 78.127 86.7503C78.3826 86.5637 78.2296 86.4255 78.2246 86.3122C78.5866 86.5383 78.9671 85.8508 79.3859 86.0265C79.3008 86.1018 79.018 86.314 79.2811 86.3153C79.6429 86.5408 79.7341 85.9151 80.204 85.9281L80.0168 85.7037C80.2561 85.803 80.5893 85.3536 80.6311 85.6305C80.7422 85.4917 81.1555 85.5547 81.0275 85.3186C81.7889 85.3073 82.67 84.6459 83.2414 84.9587C83.3269 84.8846 83.5886 84.8476 83.4961 84.7345C83.2859 84.6476 83.2982 84.9095 83.206 84.8334C83.2923 84.7969 83.2896 84.7219 83.2875 84.6842C83.5217 84.6722 83.6967 84.6356 83.5609 84.9105C84.0901 84.9114 83.9167 84.3232 84.5578 84.2242C84.5638 84.3372 84.623 84.3618 84.796 84.2875L85.0767 83.9997C85.4843 83.9136 85.3769 84.1641 85.4436 84.3377C85.6443 84.2391 85.9052 84.1645 85.958 84.0016L86.2857 84.1408C86.0476 84.0403 86.4248 83.9785 86.5098 83.9029L86.4248 83.9785C86.4877 84.0402 86.7163 83.9155 86.832 83.8538C86.768 83.7538 86.5049 83.79 86.3588 83.8024C86.4417 83.69 86.6146 83.654 86.7277 83.5166C86.7366 83.7049 87.1108 83.5288 87.284 83.4927C87.4883 83.468 87.4504 83.2673 87.5084 83.2555C87.5424 83.3438 87.8267 83.169 87.7176 83.3431C87.6614 83.3929 87.5397 83.3041 87.4569 83.418C87.6052 83.4439 87.6412 83.6047 87.8667 83.4063C88.0368 83.2566 87.7056 83.0811 88.1161 83.0692C88.0314 83.1443 88.0356 83.2191 87.9792 83.3058L88.3597 83.282L88.3237 83.1197C88.384 83.1444 88.3558 83.1683 88.3843 83.1826C88.435 82.9829 88.9047 82.958 88.9236 82.7459C89.096 82.6721 89.3322 82.7341 89.5076 82.6973L89.4795 82.7217C89.7165 82.7475 89.9717 82.5973 90.1115 82.4348L90.1131 82.4722C90.23 82.4481 90.4891 82.3369 90.6007 82.1984C90.9251 82.2249 90.8894 82.7622 91.141 82.4619C91.4291 82.3629 91.502 82.0262 91.3526 81.9631C91.908 81.9011 92.4162 81.4526 92.978 81.541C93.0321 81.4532 92.9721 81.4284 93.1143 81.3414C93.8996 81.1562 94.6688 80.6323 95.3777 80.7451C95.1772 80.883 95.4137 80.9074 95.4474 80.9958C95.5848 80.7957 95.7146 81.0712 95.7021 80.8079C95.6377 80.6715 95.6337 80.5962 95.3995 80.6082C95.8309 80.3843 96.5243 80.16 96.821 80.2111C96.6729 80.1858 96.7569 80.1106 96.843 80.0359C96.8831 80.2735 97.2312 80.1992 97.4594 80.0371L97.4507 79.8866L97.6619 79.9755C97.7457 79.8995 97.676 79.6503 97.9718 79.7017C98.0021 79.7509 98.0343 79.8007 98.0933 79.825C98.3205 79.6268 98.6294 79.3151 98.9531 79.3394L99.2524 79.4658C99.3673 79.404 99.5333 79.2163 99.2996 79.2273C99.8263 79.1915 100.146 79.105 100.357 79.2294C101.059 78.5317 102.272 78.1206 103.259 77.8355L103.264 77.9484C103.558 77.9606 103.341 77.7233 103.548 77.7359C103.495 77.8621 103.817 77.8857 103.65 78.0738C104.061 78.0618 104.075 77.738 104.304 77.612C104.298 77.464 104.136 77.7624 104.128 77.5745C104.154 77.5121 104.681 77.5128 104.673 77.2879C104.793 77.3382 104.769 77.5137 104.745 77.6132L104.942 77.4392C105.301 77.5892 104.443 78.0755 104.832 78.2766L105.034 78.1759C105.305 78.3263 104.553 78.6003 105.108 78.5023C105.305 78.3262 105.405 77.9643 105.171 77.9396C105.631 77.7277 105.234 77.3769 105.755 77.2273C105.935 77.3028 105.352 77.3896 105.506 77.5275C105.803 77.6149 105.963 77.2771 106.198 77.2655C105.933 77.2651 106.068 76.9915 106.211 76.9039C106.505 76.9161 106.104 77.1538 106.482 77.0548C106.505 76.9161 106.817 76.7169 106.495 76.7294C106.543 76.4167 106.906 76.6791 107.04 76.4051C107.223 76.5553 106.8 76.9672 107.238 76.9298C107.114 76.7674 107.661 76.5186 107.358 76.3172C107.535 76.3182 107.598 76.4565 107.518 76.6064C107.783 76.6446 107.964 76.0939 108.156 76.4319L108.174 76.2197C108.265 76.2575 108.382 76.2701 108.532 76.3332C108.734 76.2712 109.098 75.8708 109.171 76.1585C109.227 76.1085 109.69 75.9728 109.449 75.8348C109.125 75.8082 109.167 76.0835 108.923 75.8713C109.194 76.0214 109.325 75.7103 109.467 75.585L109.53 75.6853C109.614 75.611 109.848 75.5616 109.871 75.4239C109.816 75.5108 109.879 75.5722 109.966 75.5734L110.016 75.3741C110.388 75.162 110.204 75.6352 110.577 75.4614L110.324 75.6857C110.379 75.6372 110.562 75.749 110.731 75.6376C110.754 75.4624 110.831 75.2373 110.856 75.0993C111.053 74.9623 111.009 75.2382 111.174 75.0131L110.951 75.2867C110.924 75.3503 111.222 75.4753 111.513 75.3768C111.683 75.264 111.903 74.9513 111.581 74.9641C111.727 74.9144 111.962 74.94 111.882 75.088C112.197 74.9284 111.785 74.9393 112.042 74.7524C112.192 74.8152 112.604 74.8408 112.872 74.9164L112.654 75.2662L112.854 75.2039C112.662 75.4905 113.035 75.3171 112.959 75.5777C113.106 75.5679 113.247 75.4413 113.36 75.3433C112.852 75.1293 113.654 74.7306 113.438 74.4551C113.955 74.194 114.024 75.1055 114.434 74.4322C114.315 74.3809 114.506 74.0564 114.192 74.2573C114.542 74.1824 114.321 73.8692 114.762 73.8695C114.508 74.0938 115.182 74.0839 114.815 74.4084C114.81 74.2954 114.551 74.4066 114.495 74.4576C114.673 74.532 114.568 74.7811 114.915 74.669C115.116 74.5706 115.404 74.4707 115.31 74.3214C115.243 74.1453 114.993 74.4451 115.07 74.2204C115.471 74.0217 115.63 74.2712 115.702 73.8976C115.443 74.0082 115.317 73.8453 115.282 73.7214L115.568 73.5464L115.546 73.6848C116.07 73.6099 115.623 73.4215 116.115 73.2976L116.416 73.4597C116.367 73.6989 115.687 73.5962 115.879 73.898C116.197 73.8106 116.246 73.6093 116.569 73.5992C116.512 73.6488 116.425 73.6859 116.37 73.7362C116.486 73.7109 116.739 74.1116 117.102 73.7117C117.3 73.5378 117.125 73.5745 117.091 73.4495C117.581 73.2496 117.69 73.0756 118.008 72.9517C118.019 73.2143 118.587 72.7899 118.309 73.1517C118.099 73.0641 117.377 73.3124 117.274 73.6C117.549 73.8257 116.866 73.6875 116.852 74.0113C117.257 73.8873 117.328 74.1746 117.452 74.3377C117.568 74.3143 117.652 74.2017 117.709 74.1512C117.7 73.9626 117.555 74.0125 117.489 73.8369C117.953 73.7386 118.355 73.5017 118.548 73.2535C118.726 73.2906 118.734 73.4786 118.562 73.5527C119.08 73.3285 119.659 73.1674 120.184 73.0556C119.764 72.8793 120.729 72.8058 120.429 72.6436C120.136 72.6683 119.837 72.5426 119.946 72.3675C120.122 72.3308 119.981 72.493 120.071 72.5302C120.238 72.3059 120.488 72.6686 120.622 72.3565C120.163 72.6056 120.638 72.7315 120.62 72.9821C120.932 72.7433 120.656 73.1444 121.004 73.0319C121.316 72.7951 121.715 72.5587 122.09 72.3844C122.648 72.4362 123.333 71.9872 123.768 71.8368C124.033 71.8746 123.959 72.1753 124.221 72.1381C124.511 72.039 123.917 71.9378 124.387 71.913L124.361 71.9763C124.473 71.8758 125.208 71.8903 125.219 71.4893L125.174 71.8039C125.262 71.8023 125.317 71.7161 125.374 71.6659C125.406 71.753 125.526 71.8031 125.413 71.9031C125.74 72.0038 125.963 71.6921 126.25 71.591L126.012 71.491C126.468 71.2049 126.851 71.2561 127.312 71.0452L127.349 71.2069L127.603 71.0209C127.583 71.1951 127.877 71.209 127.986 71.0328L127.369 71.657C127.133 71.6309 127.532 71.3945 127.353 71.2817C127.2 71.1823 126.769 71.368 126.746 71.5424C126.922 71.5048 126.919 71.4677 127.033 71.3685C127.16 71.5691 126.899 71.6436 126.818 71.8308C126.904 71.7932 127.052 71.8188 127.049 71.7436C126.909 71.9069 126.738 71.9806 126.448 72.0798C126.618 71.931 126.297 71.9792 126.352 71.8928C126.391 72.0929 126.132 72.2416 125.754 72.3042C125.425 72.1652 125.125 72.6658 124.688 72.7395C124.794 72.4901 124.959 72.2642 125.188 72.1031C124.894 72.0897 124.898 72.2026 124.604 72.1892C124.524 72.3756 124.505 72.6275 124.193 72.8264L124.128 72.6887C123.841 72.8619 123.91 73.0749 123.503 73.1623C122.806 73.3101 122.111 73.5348 121.59 73.6834L121.524 73.5464C121.337 73.9458 120.605 73.9686 120.264 74.2299C119.562 74.3043 118.882 74.8281 118.465 74.6899C117.342 75.1747 116.364 75.6102 115.147 75.9457L115.281 75.6716C115.116 75.8948 115.102 75.5969 114.901 75.6955C115.197 75.7843 114.679 76.0066 114.571 76.1826C113.985 76.1933 113.355 76.5918 112.929 76.8916L112.864 76.7539C112.472 77.1784 111.824 77.1269 111.214 77.2759C111.126 77.2387 110.974 77.1384 110.802 77.2121C110.553 77.549 110.378 77.5871 109.951 77.8856C109.604 77.9977 109.023 78.122 108.641 78.1456C107.443 78.8933 106.044 79.1159 104.752 79.7502L104.599 79.6131C103.402 80.3987 101.68 80.5939 100.618 81.1414L100.633 80.818C100.253 80.8428 99.8558 81.153 100.012 81.3286C99.6305 81.3544 99.177 81.7532 98.8767 81.5884C98.4989 81.652 98.4784 81.8642 98.1916 82C97.4346 82.124 97.1748 82.2358 96.5123 82.5094L96.6866 82.473C96.7408 82.3855 96.7078 82.2605 96.5324 82.2969C96.3048 82.4589 95.574 82.5212 95.938 82.7835C95.1473 82.8191 94.2966 83.4934 93.5033 83.4532C93.5941 83.5282 93.4214 83.6036 93.3669 83.6912C92.7311 83.9011 91.9992 83.9263 91.5423 84.2504C91.4255 84.2362 91.652 84.0386 91.3893 84.1122C91.2473 84.1976 91.4255 84.2362 91.2535 84.35C90.2783 84.8593 89.1048 84.8448 88.181 85.194C86.571 85.9152 84.8005 86.3865 83.2117 86.9339L83.2078 86.8589C82.7577 87.2961 81.8642 86.9944 81.5657 87.5303C81.4179 87.505 81.0722 87.6555 81.1233 87.492C80.7571 87.8164 79.8723 87.7023 79.3327 88.1383C79.3915 88.1267 79.4192 88.1021 79.4753 88.0508C78.8035 88.0999 78.3218 88.4863 77.6203 88.5607C77.6772 88.5095 77.7911 88.4484 77.7884 88.3734C77.4922 88.323 77.2815 88.8599 77.0342 88.5712C76.8897 88.6215 76.9846 88.7722 77.0709 88.7333C75.5901 89.0691 74.1236 89.7783 72.6515 90.3384C71.5144 90.4861 72.4046 89.7986 71.6384 90.3209C71.5486 90.2788 71.6297 90.4644 71.5955 90.3996C71.2982 90.5986 70.9655 90.1921 70.7945 90.4406C70.9544 90.6148 70.6803 90.6037 70.7134 90.7303C70.015 90.8095 69.8233 90.6674 69.3558 90.9903L69.3599 90.8701C68.8513 91.3704 68.0958 91.4349 67.6972 91.9516C64.3716 93.0974 61.2268 94.3298 57.9772 95.4253C54.7304 96.4014 51.6239 97.5803 48.2886 98.4533C47.4293 98.4181 47.3745 98.4444 46.569 98.8319C46.5881 98.775 46.6379 98.7475 46.5674 98.723C46.5998 98.9682 45.9809 98.9365 45.9723 99.1844C44.7471 99.5325 43.6525 99.9565 42.4073 100.361C42.5964 100.273 42.6338 100.051 42.4048 100.142L42.2074 100.369L42.1469 100.318C41.998 100.404 41.8602 100.574 42.0495 100.595C38.9848 101.808 35.7551 102.338 32.7084 103.386C31.949 103.525 30.942 103.949 30.1663 104.252C27.7219 104.701 25.5282 105.134 23.217 106.121C23.217 106.12 23.3337 105.42 24.2721 104.963Z" fill="#FC6B7E"/>
<path d="M128.471 71.4212C128.35 71.3321 128.057 71.3569 128.224 71.1313C128.287 71.2316 128.467 71.3082 128.471 71.4212Z" fill="#FC6B7E"/>
<path d="M120.81 72.581C120.812 72.6183 120.691 72.5675 120.661 72.5555C120.748 72.518 120.801 72.3927 120.892 72.4301C120.804 72.4688 120.835 72.5188 120.81 72.581Z" fill="#FC6B7E"/>
<path d="M118.927 73.1133C118.921 73.0006 119.293 72.7904 119.524 72.7016L118.927 73.1133Z" fill="#FC6B7E"/>
<path d="M117.052 73.2477C116.874 73.2091 116.901 73.1482 117.102 73.0861C117.134 73.136 117.077 73.1848 117.052 73.2477Z" fill="#FC6B7E"/>
<path d="M117.007 73.5237C116.863 73.5725 116.773 73.5346 116.683 73.4986C116.718 73.5853 116.999 73.3348 117.007 73.5237Z" fill="#FC6B7E"/>
<path d="M113.143 74.4406C113.055 74.478 112.886 74.6274 112.765 74.5396C112.886 74.5894 113.163 74.2662 113.143 74.4406Z" fill="#FC6B7E"/>
<path d="M111.445 75.162C111.386 75.1735 111.357 75.1619 111.301 75.2119C111.183 75.1985 111.267 75.0881 111.351 75.05L111.445 75.162Z" fill="#FC6B7E"/>
<path d="M79.731 85.8763L79.9025 85.7652L79.9075 85.8755L79.731 85.8763Z" fill="#FC6B7E"/>
<path d="M65.7778 90.395C65.6109 90.5205 65.6157 90.341 65.5799 90.3359C65.746 90.2705 65.5582 90.4827 65.7778 90.395Z" fill="#FC6B7E"/>
<path d="M58.4204 93.3445L58.4762 93.3238L58.5246 93.5396L58.4204 93.3445Z" fill="#FC6B7E"/>
</svg>
