<svg width="465" height="7" viewBox="0 0 465 7" fill="none" xmlns="http://www.w3.org/2000/svg">
<path d="M464.986 3.28428C465.158 3.01743 463.679 3.18353 462.966 3.12539C462.591 2.94088 462.215 2.75672 461.84 2.5722C462.265 0.850859 462.265 0.850853 458.846 1.36036C458.505 1.33978 458.163 1.31919 457.822 1.2986C456.528 1.1177 455.527 1.23253 454.772 1.59543C452.202 1.61313 450.938 0.247468 447.728 0.942578C446.171 1.23687 445.069 0.956646 443.795 0.69774C441.727 0.277425 441.319 0.691253 441.396 1.25203C441.138 1.2477 440.885 1.25816 440.64 1.28379C438.546 0.628044 436.492 0.428724 434.532 1.33435C434.728 0.153569 432.834 0.201953 430.296 0.627324C430.008 0.62913 429.752 0.658394 429.529 0.715086C427.462 0.635644 425.507 -0.33391 423.308 0.63852C422.987 0.617216 422.691 0.635279 422.419 0.692693C421.542 0.458342 420.581 0.29873 419.376 0.355422C417.056 -0.230275 415.053 -0.0450335 413.241 0.602772C411.936 0.534525 410.319 0.595186 409.385 0.373473C406.642 -0.277944 406.321 0.442089 405.511 0.941123C403.706 -0.32524 401.952 0.555477 400.188 0.954126C399.393 0.254684 399.131 0.2312 397.411 0.706402C397.233 0.780427 397.117 0.862769 397.064 0.954126C395.91 1.20798 394.899 1.35386 394.975 0.681497C393.602 0.0149147 391.224 0.0109508 389.036 0.671756L388.96 0.641055C387.293 0.709663 385.304 0.361557 384.085 1.01008C380.605 1.18558 377.555 -0.00820667 373.909 0.697013C372.663 0.384304 371.422 0.0658347 369.726 0.420792C368.46 0.0676402 367.18 -0.215472 365.735 0.344226C365.373 0.359031 365.01 0.373831 364.648 0.388636C364.033 0.36372 363.417 0.338807 362.802 0.314253C359.853 -0.0782584 357.002 -0.23967 354.608 0.659458C353.55 0.716872 352.609 -0.0544097 351.464 0.615423C348.37 -0.0702979 346.147 0.852304 343.525 1.03755C342.474 0.928495 341.876 0.480726 340.471 0.634553C338.463 -0.0948601 337.8 0.325819 337.418 0.98518C336 0.977958 336.073 0.254325 334.401 0.369153C332.583 -0.25482 331.809 0.336645 330.814 0.671381C330.378 0.524415 329.539 0.316785 329.297 0.47675C328.959 0.699907 329.297 1.02345 329.346 1.30438C328.057 1.16716 326.897 0.805722 325.37 1.07799C322.813 0.482903 322.144 1.17765 321.192 1.67812C320.201 1.65899 319.209 1.6402 318.219 1.62106C317.955 1.19461 319.386 0.599525 317.169 0.371313C315.223 0.171266 316.783 1.05524 315.268 1.03863C314.233 0.990239 313.328 0.484329 312.145 0.950864C309.86 0.539938 309.536 1.12709 308.931 1.57088C304.683 1.10723 300.431 0.670299 295.951 1.30041C294.303 1.25708 292.571 0.160439 291.02 1.33869C290.947 1.41886 290.893 1.50009 290.861 1.58278C289.184 1.50226 287.457 0.864574 285.853 1.62649C283.909 1.27622 282.496 1.83158 280.807 1.91644C280.604 1.5149 279.563 1.64382 278.79 1.60374C277.172 0.321852 274.632 1.61962 272.639 1.3878C271.992 1.37516 271.345 1.36288 270.699 1.35024C268.875 1.59001 267.254 0.727347 265.378 1.25455C265.084 1.23108 264.833 1.25383 264.624 1.32316C262.599 1.37696 260.532 0.398749 258.543 1.34771C256.453 1.035 255.668 1.61205 254.502 1.92909V1.93486C252.235 1.17331 249.19 1.01226 242.342 1.29175C238.887 0.417898 236.311 1.63262 233.239 1.66693C231.641 1.37986 230.023 1.22531 228.325 1.59363C228.152 1.21447 228.287 0.776833 226.448 0.750834C224.883 0.728446 225.169 1.0361 225.319 1.32931C224.935 1.66837 224.04 1.62251 223.186 1.60771C221.655 1.07581 220.614 1.16717 220.038 1.85036C219.287 1.88647 219.02 1.46579 218.111 1.64958C216.529 1.34301 214.888 1.13034 212.985 1.33219C212.692 1.53693 212.399 1.74202 212.106 1.94676C212.39 2.03668 212.673 2.12659 212.956 2.21651C212.672 2.12659 212.39 2.03669 212.105 1.94641C212.399 1.74167 212.692 1.53692 212.985 1.33182C210.801 1.17041 208.906 1.51238 206.906 1.6727C203.685 1.06101 193.863 1.22493 190.753 1.94207C190.45 1.30943 189.278 1.07329 187.748 1.51743C186.228 1.95905 184.426 1.86625 182.75 2.00925C181.129 1.58351 180.022 2.10458 178.697 2.22446L178.641 2.24974C176.432 1.74674 173.986 1.85361 171.533 1.97747C169.308 1.6207 168.916 3.00334 166.531 2.49456C165.194 1.64634 163.282 2.00672 161.423 2.25552C158.089 1.62288 154.586 1.97242 151.123 2.07966C151.139 2.02911 151.192 1.97639 151.159 1.92909C151.133 1.89334 150.938 1.83484 150.921 1.83809C149.49 2.11866 148.049 2.38406 146.246 2.2324C143.455 1.73445 141.325 1.91752 139.911 2.83615C141.682 3.06905 143.455 3.30232 145.228 3.53487C145.591 3.64717 145.953 3.75947 146.315 3.87141C145.953 3.75911 145.59 3.64718 145.228 3.53524C143.455 3.30234 141.684 3.06905 139.911 2.83615L139.447 2.84192C139.119 1.3004 136.436 1.95291 134.104 2.27934C133.11 2.25479 132.114 2.23023 131.118 2.20531C129.295 1.59036 127.735 2.25624 126.047 2.30716C125.73 2.27285 125.405 2.25154 125.071 2.24251C122.23 1.53874 119.474 2.1609 116.688 2.2945C115.085 1.63695 113.495 1.928 111.908 2.30173C108.512 1.94244 105.114 1.61565 101.632 2.21254C100.996 2.22121 100.361 2.22987 99.7248 2.23817C99.3893 2.24792 99.055 2.25768 98.7196 2.26779C97.56 2.19377 96.5479 2.27646 95.7087 2.54439C94.7174 2.43787 93.96 2.07533 92.6897 2.27321C91.9566 2.27971 91.2224 2.2862 90.4881 2.2927C89.1821 2.26598 87.9025 2.27897 86.7694 2.52416C86.5919 2.62165 86.3268 2.66174 85.974 2.6444C86.5677 3.35829 86.2588 3.71938 85.1003 3.74936C86.2576 3.71938 86.5666 3.35831 85.9695 2.6437C86.3268 2.66139 86.593 2.62165 86.7694 2.52416C83.8046 1.59145 81.1073 2.2111 78.3799 2.66464C76.78 1.62974 74.8261 3.17558 73.1628 2.59457C71.4867 1.33254 68.6902 2.18258 66.3156 2.23855C65.9848 2.26021 65.654 2.28224 65.3232 2.30427C62.7019 2.92752 60.717 1.98289 58.3309 2.02622C56.6779 2.07605 55.0249 2.12589 53.3719 2.17536C51.2901 1.5225 50.1627 1.99481 49.0906 2.53176C48.8105 2.56101 48.5259 2.56497 48.2388 2.54439C48.7437 1.53621 46.6608 1.87166 45.0792 1.94749C43.7363 1.76189 43.2176 2.28801 42.088 2.28692C40.6494 2.43317 41.137 1.17727 38.9549 1.8648C38.9791 1.99154 39.0021 2.11829 39.0264 2.24467C39.7076 2.55991 40.39 2.87551 41.0713 3.19074C40.39 2.87551 39.7076 2.55991 39.0252 2.24467C39.001 2.11829 38.9779 1.99154 38.9537 1.8648C35.9797 1.86299 33.0115 2.20604 30.0317 1.87961C29.8207 1.72253 29.777 1.49323 28.9021 1.62034C27.5903 1.59903 26.2785 1.57774 24.9667 1.5568C22.6809 1.02779 20.1138 1.41019 17.6873 1.33689C17.3599 1.29753 17.0441 1.30546 16.7397 1.35998C15.0672 1.41379 13.4799 0.595916 11.7416 1.31161L11.7197 1.31522C9.6183 1.29067 7.44543 1.1455 5.66795 1.66728C3.75214 1.7182 4.84146 2.3548 3.84552 2.58518C3.45359 2.85384 3.95851 3.28643 2.76084 3.39476C-2.61657 3.87935 1.30034 4.71168 2.54527 5.06302C4.9821 5.75055 7.15152 6.57276 11.6794 6.28641C14.0551 6.1362 17.0153 5.82999 19.7691 6.08059C23.2273 5.69963 26.6393 5.85852 30.004 6.19217C35.7031 6.75801 41.3698 6.7934 47.0296 6.15173C47.7777 6.52294 49.1045 6.3276 50.0981 6.45868C52.1488 7.07326 52.392 6.3767 53.1425 6.04702L53.1298 6.01127C55.1989 6.72841 57.4375 7.11731 60.2628 6.37418L60.2616 6.37453C63.6241 7.19349 66.9992 6.32361 70.3674 6.38211C76.0031 7.05844 81.8335 6.6114 87.5763 6.67748C88.9192 6.90461 90.2575 7.22201 91.6327 6.69445C92.4857 6.44205 93.477 6.31098 94.6678 6.35286C94.9122 6.68507 95.8148 6.66882 96.6055 6.71107C98.3784 7.08661 99.9404 7.20759 100.717 6.37779C101.726 6.35974 102.736 6.34202 103.744 6.32397C104.406 6.44963 105.066 6.57494 105.727 6.7006C107.711 7.42893 108.555 6.52185 109.954 6.41136L109.855 6.39185C110.868 6.45396 111.61 6.83566 112.84 6.63922C114.118 6.81472 113.72 5.54365 115.85 6.32542C117.659 6.98912 119.9 6.66269 121.983 6.38753C124.031 6.7869 125.753 6.59552 127.308 6.09974C128.234 6.16257 129.158 6.22577 130.084 6.2886C129.93 6.19435 129.897 6.09577 129.982 5.99322C131.445 5.48624 132.872 5.32626 134.262 5.53606C132.872 5.32626 131.445 5.48623 129.984 5.99393C129.897 6.09576 129.93 6.19399 130.084 6.2886C131.849 6.96673 133.854 7.06423 136.57 6.79449C137.934 6.65908 139.279 6.42292 141.067 6.45253C144.146 6.5038 147.18 6.89956 150.309 6.64427C152.701 6.74177 154.163 5.61768 156.552 6.0528C162.306 7.09997 167.891 6.76018 173.557 6.05676C173.611 6.23984 173.664 6.42292 173.717 6.60564C175.76 6.03366 178.893 6.87754 180.757 6.07338C181.962 5.97913 183.166 5.88489 184.371 5.79101C187.28 6.59373 190.202 6.78727 193.148 5.80798C194.049 5.67799 194.95 5.54797 195.852 5.41762C197.492 6.64173 199.296 6.21493 201.131 5.46855C201.305 5.48047 201.481 5.48875 201.658 5.49381C202.033 5.45553 202.407 5.41726 202.783 5.37898C202.764 5.33312 202.707 5.28546 202.639 5.23707C202.708 5.28582 202.765 5.3335 202.784 5.37936C202.409 5.41763 202.033 5.45553 201.658 5.49381C203.757 6.14089 206.378 6.0806 208.996 6.02355C210.672 5.9145 212.348 5.80509 214.024 5.69604C215.555 5.79931 217.103 5.93761 218.345 5.47794C222.413 5.09229 226.353 5.23889 230.203 5.75815C232.939 6.44098 232.834 5.28945 234.279 5.13851C236.349 5.09698 237.984 5.9394 240.284 5.42881C244.005 5.52486 247.726 5.62129 251.447 5.71771C252.457 6.18424 253.47 6.10516 254.486 5.71987C256.698 5.26958 259.343 5.84516 261.569 5.42593C263.243 5.56134 264.894 6.11491 266.612 5.45374C267.288 5.42232 267.962 5.39091 268.638 5.3595C270.54 5.64296 272.632 6.3525 273.864 5.13128C274.423 5.2183 274.982 5.30532 275.541 5.39198C276.671 5.49995 277.802 5.60757 278.931 5.71517C280.709 5.84192 282.22 4.92942 284.642 5.74947C285.433 6.01704 290.918 6.36477 292.938 5.12332C293.596 5.13343 294.253 5.14319 294.911 5.1533C296.944 5.34107 298.976 5.52921 301.008 5.71698C304.677 5.49093 308.798 6.14307 312.077 5.15764C312.715 5.40029 313.764 5.29378 314.275 5.35192C316.713 5.6296 318.526 4.34661 319.488 4.87093C321.412 5.91883 323.202 5.24827 325.136 5.13236C327.568 5.51693 329.953 4.88284 332.377 5.09842C336.776 5.56748 341.033 4.20074 345.457 4.99948C347.52 5.18292 349.597 5.10239 351.674 5.03342C355.393 5.48479 358.799 4.01477 362.583 4.85938C362.616 4.80774 362.648 4.75609 362.682 4.70481C366.432 5.23599 370.089 5.20566 373.642 4.52861C374.844 5.07711 376.086 5.52596 377.848 4.69653C377.405 4.47084 376.9 4.39898 376.368 4.39392C376.9 4.39862 377.405 4.47084 377.848 4.69653C378.21 4.69725 378.572 4.69796 378.934 4.69869C379.265 4.72794 379.597 4.75718 379.928 4.78643C381.492 5.30677 383.283 4.72576 384.921 4.8879C386.815 5.44434 387.28 4.7644 388.239 4.51164C388.519 4.5398 388.782 4.52789 389.025 4.47589L388.931 4.51091C390.289 5.18002 392.52 4.40801 394.037 4.81424C396.909 5.10781 399.83 5.53714 402.236 4.52607C406.805 5.16593 411.568 4.48491 416.197 4.72829C417.613 4.846 419.03 4.96373 420.447 5.08145C422.308 4.92473 423.973 4.39573 426.152 5.00345C426.952 5.22625 428.215 4.88284 428.629 4.49863C429.905 4.39247 431.267 4.71782 432.507 4.42317C434.477 5.26236 436.998 5.09482 439.587 4.80269C441.416 5.20784 443.293 5.52162 445.561 5.12405C447.247 5.86141 449.029 5.44362 450.8 5.1663C451.071 5.12694 451.354 5.11178 451.652 5.12081C452.952 5.9683 455.23 5.09697 456.834 5.40968C458.275 6.47528 460.551 5.46348 462.353 5.62706C462.146 5.45445 461.938 5.28186 461.732 5.10961C461.742 4.75682 462.213 4.61129 463.416 4.52138C465.467 4.37008 464.714 3.70676 464.986 3.28428ZM21.9385 1.93341C21.7979 1.88286 21.6411 1.8446 21.4717 1.81426C21.6411 1.84423 21.7979 1.88286 21.9385 1.93341ZM39.0321 3.53886C38.1215 3.49191 37.7538 3.39079 37.6489 3.26405C37.7526 3.39079 38.1215 3.49155 39.0321 3.53886ZM43.0009 2.85131C44.0568 2.76898 45.1127 2.68629 46.1686 2.60396C46.1686 2.60432 46.1294 2.58195 46.0994 2.5657C46.1294 2.58231 46.1697 2.60434 46.1697 2.60434C46.1397 2.80186 46.1109 2.999 46.081 3.19652C46.1109 2.999 46.1397 2.80184 46.1686 2.60396C45.1127 2.68629 44.0568 2.76898 43.0009 2.85131C43.0009 2.85167 43.0009 2.85167 43.0009 2.85131ZM50.0485 2.89718C50.0278 3.00695 50.0059 3.11636 49.9852 3.22614C50.0071 3.11636 50.0266 3.00695 50.0485 2.89718C50.165 2.83759 50.2976 2.78922 50.4428 2.75094C50.2964 2.78922 50.165 2.83759 50.0485 2.89718ZM57.1435 2.62058C56.8876 2.60939 56.6317 2.60867 56.3747 2.61842C56.1949 2.84158 55.9505 3.03908 55.5851 3.18893C55.9493 3.03908 56.1937 2.84156 56.3735 2.61804C56.6305 2.60866 56.8876 2.60939 57.1435 2.62058ZM99.6637 2.55594C100.233 2.56858 100.702 2.60433 101.088 2.65994C100.702 2.60469 100.233 2.56858 99.6637 2.55594ZM107.862 5.42954C107.713 5.39921 107.561 5.37392 107.408 5.3537C107.562 5.37392 107.713 5.39885 107.862 5.42954ZM102.836 3.88765C102.488 3.97432 102.14 4.06063 101.793 4.14693C102.141 4.06099 102.489 3.97432 102.836 3.88765C104.512 3.79449 106.269 3.87755 107.963 3.82447C106.27 3.87755 104.513 3.79485 102.836 3.88765ZM115.908 2.63863C116.158 2.5285 116.409 2.41801 116.66 2.30716C116.409 2.41765 116.158 2.52813 115.908 2.63863ZM123.965 2.53176C123.31 2.65706 122.657 2.78271 122.003 2.90837C122.658 2.78271 123.312 2.65706 123.965 2.53176ZM161.434 3.20844C161.178 3.39513 160.88 3.52765 160.545 3.61467C160.881 3.52801 161.179 3.39513 161.434 3.20844ZM193.801 3.23517C193.747 3.54283 193.329 3.72373 192.583 3.79198C193.329 3.72409 193.748 3.54283 193.801 3.23517ZM198.841 3.2236C198.192 3.36299 197.55 3.33158 196.909 3.2767C197.55 3.33158 198.192 3.36262 198.841 3.2236C200.86 3.1846 202.867 3.12755 204.798 2.96506C202.868 3.12755 200.862 3.1846 198.841 3.2236ZM210.023 5.41762C210.132 5.39595 210.248 5.37573 210.37 5.35551C210.249 5.37573 210.132 5.39631 210.023 5.41762ZM211.239 5.21975C211.536 5.1728 211.815 5.12406 212.026 5.06809C211.816 5.12406 211.536 5.1728 211.239 5.21975ZM216.987 2.86504C217.308 2.6881 217.613 2.50972 217.827 2.3234C217.613 2.51008 217.31 2.68847 216.987 2.86504ZM259.581 1.96266C260.761 1.96482 262.004 2.0161 263.014 1.88646C262.004 2.01646 260.761 1.96518 259.581 1.96266ZM271.496 2.61046C270.872 2.69929 270.248 2.78849 269.623 2.87732C270.248 2.78849 270.872 2.6993 271.498 2.61011C271.896 2.70291 272.298 2.79498 272.698 2.88706C272.299 2.79498 271.898 2.7029 271.496 2.61046ZM280.823 2.64478C278.845 2.87769 276.927 3.31207 274.845 3.20375C276.927 3.31171 278.844 2.87767 280.823 2.6444C281.698 2.61949 282.573 2.59423 283.448 2.56859C282.573 2.59386 281.698 2.6195 280.823 2.64478ZM291.897 2.85854C290.53 2.94412 289.354 2.90513 288.548 2.62311C289.353 2.90477 290.53 2.94376 291.897 2.85854C291.905 2.6556 291.913 2.45268 291.921 2.24974C291.913 2.45268 291.905 2.65524 291.897 2.85854ZM301.1 2.60215C303.28 2.69351 305.461 2.8015 307.639 2.81305C305.462 2.8015 303.281 2.69351 301.1 2.60215ZM313.162 2.55702C313.187 2.44147 313.212 2.32592 313.236 2.21073C313.211 2.32628 313.187 2.44183 313.162 2.55702ZM331.365 2.24721C331.409 2.18979 331.499 2.13094 331.586 2.07208C331.497 2.13094 331.409 2.18979 331.365 2.24721ZM341.524 4.12418C338.332 3.75948 335.213 3.74358 332.035 3.9281C335.213 3.74358 338.332 3.75911 341.524 4.12418ZM345.544 4.4665C346.207 4.49178 346.908 4.47805 347.602 4.46974C346.908 4.47768 346.208 4.49178 345.544 4.4665ZM356.669 2.03596C356.018 1.91174 355.367 1.78788 354.715 1.66367C355.367 1.78752 356.018 1.91174 356.669 2.03596C356.735 1.95616 356.772 1.8807 356.783 1.80884C356.772 1.8807 356.735 1.9558 356.669 2.03596C357.885 2.31617 358.999 2.0681 360.137 1.95219C358.998 2.06774 357.885 2.31617 356.669 2.03596ZM384.036 2.23998C382.333 1.6875 380.627 2.49203 378.924 2.2389C376.524 2.24215 374.122 2.24577 371.723 2.24974C374.122 2.24613 376.524 2.24251 378.924 2.2389C380.627 2.49203 382.333 1.6875 384.036 2.23998C385.357 2.23998 386.677 2.24035 387.997 2.24035C386.677 2.24071 385.357 2.24034 384.036 2.23998ZM389.368 1.95869C389.874 1.85469 390.38 1.75034 390.886 1.64634L390.889 1.64599C390.38 1.75035 389.874 1.85433 389.368 1.95869ZM403.265 1.65428C401.565 2.08326 400.524 2.11252 399.792 1.95472C400.525 2.11216 401.565 2.08326 403.265 1.65428ZM447.684 2.55882C446.846 2.63863 446.009 2.67692 445.171 2.67656C446.009 2.67692 446.846 2.63827 447.684 2.55882ZM453.791 4.47662C453.088 4.40043 452.384 4.32387 451.675 4.24732C452.385 4.32423 453.088 4.40043 453.791 4.47662ZM456.915 2.60253C457.209 2.58917 457.497 2.56749 457.78 2.53824C458.159 2.33747 458.284 2.17823 458.116 2.06701C458.284 2.17823 458.159 2.33712 457.78 2.53861C457.497 2.5675 457.209 2.58917 456.915 2.60253Z" fill="#0BA6E2"/>
</svg>
