<svg xmlns="http://www.w3.org/2000/svg" width="465" height="7" fill="none" viewBox="0 0 465 7"><path fill="#0ba6e2" d="M465 3.3c.2-.3-1.3-.1-2-.2l-1.2-.5c.5-1.7.5-1.7-3-1.2l-1-.1q-2-.2-3 .3c-2.6 0-3.9-1.4-7-.7q-2.2.3-4-.2c-2-.4-2.5 0-2.4.6h-.8q-3-1.2-6 0c.1-1.1-1.8-1.1-4.3-.7l-.8.1c-2 0-4-1-6.2 0h-.9q-1.3-.4-3-.3-3.4-.8-6.2.2c-1.3 0-2.9 0-3.8-.2-2.8-.7-3 0-3.9.5-1.8-1.2-3.5-.3-5.3 0-.8-.6-1-.7-2.8-.2q-.3 0-.3.3c-1.2.2-2.2.4-2.1-.3a9 9 0 0 0-6 0c-1.7 0-3.7-.3-5 .3-3.4.2-6.4-1-10-.3q-1.9-.6-4.3-.3c-1.2-.3-2.5-.6-4 0h-2.9q-4.6-.9-8.2.3c-1 0-2-.8-3.1 0-3.1-.8-5.4.2-8 .3-1 0-1.6-.5-3-.4-2-.7-2.7-.3-3 .4-1.5 0-1.4-.7-3.1-.6-1.8-.7-2.6 0-3.6.3-.4-.2-1.3-.4-1.5-.2-.3.2 0 .5 0 .8-1.2-.1-2.4-.5-4-.2-2.5-.6-3.2 0-4.1.6h-3c-.2-.5 1.2-1.1-1-1.3-2-.2-.4.7-2 .6-1 0-1.9-.5-3 0-2.3-.5-2.7.1-3.3.6a47 47 0 0 0-13-.3c-1.6 0-3.3-1.1-4.9 0l-.1.3c-1.7-.1-3.4-.7-5 0-2-.3-3.4.2-5 .3-.3-.4-1.3-.3-2.1-.3-1.6-1.3-4.2 0-6.2-.2h-1.9c-1.8.2-3.4-.7-5.3-.1h-.8c-2 0-4-.9-6 0-2.1-.3-3 .3-4.1.6-2.3-.7-5.3-.9-12.2-.6-3.4-.9-6 .3-9 .4q-2.5-.6-5-.1c-.1-.4 0-.8-1.9-.8-1.5 0-1.2.2-1 .5q-.9.4-2.2.3-2.3-.7-3.2.3c-.7 0-1-.4-1.9-.3q-2.3-.5-5.1-.3l-.9.6.9.3-.9-.3.9-.6q-3.2 0-6 .4c-3.3-.6-13.1-.5-16.2.2q-.7-1-3-.4-2.5.5-5 .5c-1.7-.4-2.8.1-4.1.2q-3.5-.5-7.2-.2c-2.2-.4-2.6 1-5 .5-1.3-.9-3.2-.5-5-.2-3.4-.7-7-.3-10.4-.2v-.2h-.2a16 16 0 0 1-4.7.3q-4.1-.7-6.3.6l5.3.7 1.1.4-1-.4-5.4-.7h-.5c-.3-1.5-3-.8-5.3-.5h-3c-1.8-.7-3.4 0-5 0h-1c-2.9-.8-5.6-.1-8.4 0-1.6-.7-3.2-.4-4.8 0a37 37 0 0 0-10.3 0h-1.9l-4 .2c-1 0-1.7-.4-3-.2h-2.2a16 16 0 0 0-4.5.3q.9 1.1-.9 1.1 1.8 0 .9-1 .5 0 .8-.2c-3-1-5.7-.3-8.4.2-1.6-1-3.6.5-5.2-.1-1.7-1.3-4.5-.4-6.9-.4l-1 .1c-2.6.6-4.6-.3-7-.3l-5 .2a5 5 0 0 0-4.2.3h-.9c.5-1-1.5-.6-3.1-.6-1.4-.1-1.9.4-3 .4-1.5.1-1-1.1-3.1-.4v.3l2 1-2-1V2c-3 0-6 .3-9 0-.2-.2-.2-.4-1.1-.3h-4c-2.2-.6-4.8-.2-7.2-.3h-1c-1.6.1-3.2-.7-5 0-2 0-4.3-.2-6 .4-2 0-.9.7-1.9.9-.3.3.2.7-1 .8-5.4.5-1.5 1.3-.3 1.7 2.5.7 4.7 1.5 9.2 1.2q3.8-.5 8-.2A49 49 0 0 1 30 6q8.6 1 17 0c.8.4 2.1.2 3.1.4 2 .6 2.3-.1 3-.5q3 1.3 7.2.4c3.3.8 6.7 0 10 0 5.7.7 11.5.2 17.3.3 1.3.2 2.7.5 4 0q1.4-.4 3-.3.6.4 2 .3 2.8.8 4.1-.3h3q1 0 2 .3c2 .7 2.9-.2 4.3-.3h-.1c1 0 1.7.4 3 .2 1.2.2.8-1 3-.3 1.8.7 4 .4 6 0q3.2.7 5.4-.2l2.8.2q-.3-.1-.1-.3v.3q2.6 1 6.6.5 1.9-.3 4.5-.3c3 0 6 .4 9.2.1 2.4.1 3.9-1 6.3-.5a57 57 0 0 0 17 0l.1.5c2-.6 5.2.3 7-.5l3.7-.3q4.4 1.3 8.7 0l2.8-.4c1.6 1.2 3.4.8 5.2 0h1.6v-.2.2h-1c2 .7 4.7.7 7.3.6q2.5 0 5-.3 2.4.3 4.3-.2 6.1-.6 11.9.3c2.7.6 2.6-.5 4-.7 2.1 0 3.8.8 6 .3l11.2.3q1.5.7 3 0c2.3-.4 5 .1 7.2-.3 1.6.2 3.3.7 5 0h2c2 .2 4 1 5.3-.3l1.6.3 3.4.3c1.8.1 3.3-.8 5.7 0 .8.3 6.3.7 8.3-.6h2l6.1.6c3.7-.2 7.8.4 11-.5.7.2 1.8 0 2.3.2 2.4.2 4.2-1 5.2-.5 2 1 3.7.3 5.6.2 2.5.4 4.9-.2 7.3 0 4.4.5 8.6-.9 13-.1q3.1.2 6.3 0c3.7.5 7.1-1 10.9-.1v-.2q5.7.8 11-.2c1.2.6 2.5 1 4.2.2h2.1c1.6.6 3.4 0 5 .2 2 .5 2.4-.1 3.3-.4h.8c1.3.7 3.5 0 5 .3 3 .3 5.8.7 8.2-.3 4.6.7 9.4 0 14 .2l4.2.4c2-.2 3.6-.7 5.8-.1.8.2 2-.1 2.4-.5 1.3-.1 2.7.2 4 0 1.9.8 4.4.6 7 .3q2.6.8 6 .3c1.6.8 3.4.3 5.2 0h.9c1.3.9 3.5 0 5.1.3 1.5 1 3.8 0 5.6.2l-.7-.5q0-.4 1.7-.6c2-.1 1.3-.8 1.6-1.2M39 3.5q-1.2 0-1.4-.2zm4-.6 3.2-.3H46v.6-.6zm7 0v.3zm7.1-.3h-.7zM103 4l-1.1.2zh5.2zm13-1.3q.4 0 .8-.3zm8 0-1.9.3zm69.9.6q0 .4-1.2.6 1 0 1.2-.6M259.6 2h3.4zm11.9.7-1.9.3zl1.2.3zm9.3 0q-3 .6-6 .6 3 0 6-.6h2.6zM292 3v-.7zm9.2-.3 6.5.2zm12 0 .1-.4zm18.3-.4.2-.1zm14.1 2.3h2.1zM356.7 2q-1 0-2-.3 1 0 2 .3c1.2.3 2.3 0 3.4 0-1.1 0-2.2.3-3.4 0m27.3.2c-1.7-.5-3.4.3-5 0h-7.3 7.2c1.7.3 3.4-.5 5.1 0h4zm5.4-.2 1.5-.4zm64.3 2.5-2-.3zm3.2-1.9h.9q.6-.4.3-.5.2 0-.3.4z"/></svg>