<svg xmlns="http://www.w3.org/2000/svg" width="566" height="83" fill="none" viewBox="0 0 566 83"><path fill="#fc6b7e" d="M326.8 38.4q-1.3-.2-2.7-.2V38l-.3.1h-1.1l.1-.3q0-.3-.4-.4l-.6.2h-.3l.3-.3h-.2q-1.5 0-2.6.2l-.5.2h-.6l-1-.4c-.8-.1-3.2.1-4.6-.2q-.4 0-.4-.2c.8-.4 3-.2 4-.5l-1.7-.5v-.1l1-.1h1q-.6 0-1-.2c.8-.1 2 0 2.7-.2h-2.4q-.6 0-1-.2h-.1l-.6.1-1.8-.2h2.2l.1-.1-1-.4.4-.2 1.4-.1h-1.8l-.6-.1h-2.1l-.1-.2-.5.1h-.9l.2-.1 1-.4h-1.2l-.1-.4-.3-.3.7-.2h.1q.1-.2-.5-.3h-.3v-.1l4.3-.3h-4.8l-.2-.2h-.2v.1h-.5l-.3-.2 5.2-.2h2.2l1.4-.2-.7-.2h-3l7.2-.5-7.3-.1-4.2-.2h.2l-.6-.2c.3-.2 2.4-.2 3-.3 1 0 3.1-.2 3.6-.5v-.1c-1.6 0-4-.3-4.6-.3h-1l-.2-.2.6-.1-.8-.2-2.5-.4 1.3-.1q-.6 0-1.1-.3v-.2c-.8-.2-2-.1-2.8-.2l-1.8-.3.9-.4h.6l.1-.1c-.2-.2-1-.2-1.4-.3 1.5-.4 2.6 0 4.1-.2v-.3h.5l.3.2q.4 0 .5-.3h-8.4l-.2-.1h.3q1.8-.3 3.7-.3h2.5l2.5-.1h.7l.2-.2c-1.2-.2-2.4.3-3.6-.3h-1.7c.4-.2 1 0 .9-.4h.8l-.3.2h.7l.6-.1.8.2h.5q1 0 1.9-.3l-.5-.3h-.3l-.6.2c-.3-.1 0-.2-.4-.2l-.3.1h-2.2l-.4-.1.5-.2c2.4-.1 5.5.2 7.2-.3h-1.2l-.5-.2-.3.2h-.3l-.3-.3-.6.3-1-.1.3-.2H306l.1.1h.8l-.1.2h-1.6.3l-.2-.2h.2l.1-.1-.5-.5c.7 0 1.8 0 2.4-.2h-1q-.3-.3-.9-.5H303l1-.2 4.2-.2v-.4h.3l.5-.3h-2l.2-.2-.4-.1h-.2l-.7-.1q.8-.2 2-.1l1-.2h-.3c-1-.4-3.2-.2-4.3 0l-1-.1h-.2l.1-.1.6-.1.4-.4 2.2-.3-.2-.1 1-.2 2.2.2c1 .1 2.1-.3 3.2 0h-.1l.1.1.5-.2.8.1h1l-.6-.1.1-.1h.7l1-.2.7-.2.5.2c.4-.2 1.6-.7 1.4-1l-.3-.2q.2 0 .3-.2h-.5q1.2-.2 2.4-.1l-.2-.1c1.7.2.8.4 1 .7h1.2v-.2h-.9l.1-.2-.6-.4h.2l1.7-.3-2.6-.2-.2-.1-.2.1H319l.1-.3q0-.3-.4-.4l-.6.2h-.3l.3-.3h-.2q-1.5 0-2.6.2l-.5.2h-.6l-1-.4c-.8-.1-3.2.1-4.6-.2q-.4 0-.4-.2c.8-.4 3-.2 4-.5l-1.7-.5v-.1l1-.1h1q-.6 0-1-.2c.8-.1 2 0 2.7-.2h-2.4q-.6 0-1-.2h-.1l-.6.1-1.8-.2h2.2l.1-.1-1-.4.4-.2 1.4-.1h-1.8l-.6-.1h-2.1l-.1-.2-.5.1h-.9l.2-.1 1-.4h-1.2l-.1-.4-.3-.3q.5 0 .8-.3l-.5-.2h-.3l-.7-.6h-.2q.3.3.2.5h-.3l-.3-.1-.1-.3-.3-.2 5.2-.2h2.2l1.4-.2-.7-.2h-3l7.2-.5-7.3-.1-4.6-.2q-2.7.1-5.3.4c-2.1 0-11.7 0-12.6.2l-1 .2-1-.2c-1 0-1.8.4-2.8.3q-.2-.2.3-.3l.2-.1H280c-1.3 0-1.6.3-3 0l.7-.2-.2-.1-.9.2q-1.5.4-3.2.3l-.7-.1.5-.1c-1.5-.2-3.1.5-4 .3l-.2-.2q-.7.2-1.8.2V9l-1.8.1-.3-.3h-.5c-.6.1-1.3.6-1.8.6v-.5q-1-.2-2-.1h-.1q-.5.3-1 .3l-2.5-.2-.5.2-.7-.4h-.5l-.5.3-.8.2h-.3q-.2-.4-.7-.5h-1.1q-1.1.4-2.3.6l.2-.4h-.2l-1.2.1-.5-.2h-7.3l-3.1-.1-1.2.1h-.4l-1.9-.1q-3.2 0-6.3.4l-5-.4q-.6.6-2 .8h-1.1q-.8-.4-2-.6c-.8.2-.9.7-2.2.6h-.3l.3-.2h-.3l-1 .3-.1-.1.5-.5-.6.3h-.3l.1-.3h-.3v.2h-.4L213 9c-1.5 0-2 .8-3.6.4l.4-.2-.7-.7h-1.5q-1.3 0-2 .5h-.1l-.6.3-.1.2q-.1-.3-.6-.4h-.4l-.1.1q.4 0 .5.3h-.2l-.6-.2q-.2.1-.1.3h-.3l-.8-.3h-.2q0 .2-.2.2c-.6-.2-1.5-.7-2.5-.7l-1.6.1c-.3.4.5.5-.5.7-.3 0-.1-.3-.5-.3q0 .3-.2.5-.4 0-.6-.3-.2.1-.2.3h-.2v-.1l-.2-.3-1.2.6-.3-.2-.1-.5h-.2l-.2.4h-.1l-.3-.3c-.4.1-.2.4-.6.5h-.1v-.2q-.4 0-.5.2-.6-.1-.8-.4h-.2l-.1.2c-.9 0-1.4-.4-2.4-.3q-.3.4-.7.6h-3.7l-2-.1q-.9 0-1.5.2c0-.3.7-.3 0-.7h-.7c-.5.3-.1.7-.6 1h-.4l-.2-.3h-1.8v-.2c-.5-.1-11.3.2-13.2.2l-4-.1h-5.7q-8.8-.1-17.5.2h-14.5q-7.5.2-14.8.1c-2.4 0-13.5-.4-15-.2l-.8.2h-.3l-.1-.2c-1.5-.1-3.1.2-4.8 0l-1.8.1c-.8.2-1.8-.2-3 0l.5.1c-1.5 0-2.8-.4-3.8-.3q.3.2 1 .3l-2.4-.1 1.1-.2h-1.2l-.4.3c-.8 0-2.3 0-2.7.2v.2l-.6-.2.6-.4-.2-.2h-.2l-.5.4-.4-.1H71q-.2-.3-.6-.4h-1v.2h.3l-.2.2h-.3V10H69l-.2.3h-.2V10l-.3-.3H68v.1l-.4.2-.7-.1c0-.3-.7-.5-1-.8h-.3q0 .3.4.5h-.3l-1-.2.4.2-.1.1h-.3l-.3-.3-.7.1.4.1v.1l-.1.2h-.4.9l-.9.1c-.4 0-1.2-.2-1.6 0h-1.5l-.3-.3H60l.1.3h-.3l-.2-.2q-.5 0-.8.2h-.2v-.2l-.6-.6-.5-.1-1.1-.3-.2.2c.7.2.8 0 1.6.4l-.1.2h-.3q-.1-.2-.6-.2h-.3v.3l-.5-.3h-1a58 58 0 0 0-9 0l-.5-.2-.1-.1-1 .2h-3q-.4.1-.5.4H40l-.8.1v-.1h-1.8l-1.6-.2-3.5-.1q-.2 0-.1-.1l2-.1h-2L29.4 9H29l-.2.2q0-.2-.4-.2h-.5l-.7.3-.6-.1.3-.1V9H26v.3h-1l.6-.3-1.1-.2v.3h-.6L24 9h-.2l-.8.3.3-.3H23c-1-.1-2.5.1-3.6.2h-.2l-1 .2.1.2h1q0 .2-.2.3h.3l.4-.3h1.8l.4.1-.3.3h.5l-1.3.1h-.3V10l-.1-.2-.5.3c-.8 0-1-.1-1.5-.3v.2H16l-.2.1v.1l2 .2c1.4.3 4 0 5.3.3l.3.5-1 .1h-.1.1l.6-.2V11h-.3c-.8 0-1-.1-2 .1l-1.3.2h-.2l.2.2h.3l2.4.2-.1.1h5l8.6.3h3l1.6.1q4.6 0 9 .3h4q0 .2-.2.3l-1.1-.1-2.2.2-1.5-.1h-3.5l-.3.2h-.2l-.2-.2h-.3l-.2.3H43v-.3h-.7l-.1.2H42l-.3-.2H41q-.2 0-.3.2c-.4 0-.1-.3-.7-.2l-.2.2-.3-.3-.3.4h-.4v-.3h-.3q-.2.3-1 .3h-.2l-.2-.3h-.3q-.3 0-.1.3l-.9-.3h-.2v.2h-1.5l-.8-.1v-.1h-.5l-.2.2h-.3l-.3-.2-.5.2h-.9v-.2c-1.3-.2-3.9-.2-5.1 0l-1-.2h-2.3l-.1.1.5.3-2 .2 2.2.5c-1 0-.5-.2-1.5 0q.7.3 1.6.1l.1-.3c1 .2 1 .5 2 .4h.9v.1l-1.3.1 1.5.5q-1 .2-2.1.1h-.6l.2.2-.7.2h-.5l.5-.3-.8-.2-1.4.1h-4.8v.5h-.7l.6-.2-.3-.1h-1.2l-1 .2v.1h.9q-.1.3-.7.3l-1.2.2-.9-.2q0 .3.8.5h.2l.4-.1 1.2.3c-.5.2-1.6.3-1.8.6.7.2 2.1.3 3 .3h.4l.2-.1h.4q-.5.3-1.1.3l3-.1h.3v.2h-2.5l-.2.1h1.2c.8 0 2 .1 2.7.3-1.8.3-4.5-.5-6 0l.4.1h3.2v.1l-.4.1.3.1h.2-2.5.8V18q-.9 0-1.5.2h.2q1.9.3 3.9.4l1.2.2h.7l.2.1q.1.2-.4.3h-.1l-.5-.1h-.9l-.8.4-1-.1h-1.2c1 .3 2.2.1 3.2.4-1 .3-2.9 0-3.2.6 1.2.4 7.7-.4 8.6.5h-2.6q-3.2.1-6.4 0c-1.6 0-3.3-.6-4.8-.4.3.2 2 .5 2.7.6q.4.1.6.4h-1l1 .4.6.1q-.4.4-.4.7l1.4.4v.2c-2 .5-7.6.1-8.7.5 2 .4 5.2-.1 7.5.7 1.7 0 4.5 0 6 .3l.2.2h1l-1.2.1q-1.4 0-2.6.3c-1 0-1.4-.3-2.5-.1.9.2 2.4.1 3 .4l-.5.1c0 .2.9.5 1 .7-.9.3-1.9 0-2.7.2q.1.4-.5.5H14c-1 0-1.5-.2-2.6-.3h-5l-.3.2.3.2h-.1c.4 0 1.2.1 1.3.3q.3.4 1.3.6l.1.2c-.2 0-.8 0-1 .2h1.1q-.3.2 0 .3h-.2l-.6.1.4.1c.6.2.6.6 1.6.6h.5l1 .1-1.4.2q.3.2 1 .3l.5-.1.7-.1q.7 0 1.2.3h.2l.5-.1h.2l1.6.1h.3l-.1.1h-1.2l.2.2h.3l-2.5.4 2 .1H15l-.4.1.4.2-.1.1q-1.3.3-2.7.2l-.4-.1v-.2h-.3c-.3.1.1.2-.2.4H11v-.2h-.4v.2c-1.1.2-1.6-.2-2.6.3l.6.1v.1c-1.3.1-5.5-.4-6.1-.2 1.2.2 6.3.4 6.8.6.7.2 2.3 0 2.4.3H11l.1.1h.5l1.2-.2.5-.2q1 0 1.8.2l1 .3h-2.5l-.2.1v.1l2 .2 1.3.1v.1c1 .2 1.3.1 2.1.4l-.5.1-1.3.2h-.2l.2.2h.3l2.4.2-.1.1h4.9c.4.3 1.4.3 2 .5-.8 0-.4-.2-1.4 0q.7.3 1.6.1l.1-.3c1 .2 1 .5 2 .3h.9v.2l-1.3.1.8.3h-1.1v-.2c-1.3-.2-3.9-.2-5.1 0l-1-.2h-2.3l-.1.1.5.3c-.7.2-1.2 0-2 .2l1 .3h-1l-1 .2v.1h.9q-.1.3-.7.3l-1.2.2-.9-.2q0 .3.8.5h.2l.4-.1 1 .3q-1.2 0-2.2-.2h-1.7v.2h-.3v.4h-.7l.6-.2-.3-.1h-1.2l-1 .2v.1h.9q-.1.3-.7.3l-1.2.2-.9-.2q0 .3.8.5h.2l.4-.1 1.2.3c-.5.2-1.6.3-1.8.6.7.2 2.1.3 3 .3h.4l.2-.1h.4l-1.1.3 3-.1h.3v.2h-2.5l-.2.1h1.2c.8 0 2 .1 2.7.3-1.8.3-4.5-.5-6 0l.4.1h3.2v.1l-.4.1h.3l.2.2h-2.5q.3-.2.8-.1v-.1q-.9 0-1.5.2h.2q1.9.3 3.9.3l1.2.3h.7l.2.1q.1.2-.4.3h-.1l-.5-.1h-2.9l1.3.3h-2.3c1 .3 2.2.1 3.2.3-1 .4-2.9.1-3.2.7h4.4l.6.2-.3.4h-5c-1.7 0-3.4-.7-5-.6.4.3 2 .6 2.8.7q.5.1.6.4l-1-.1 1.5.6-.1.3-1.2.1 1 .2v.1l1.4.4v.2c-2 .5-7.6.1-8.7.5 2 .4 5.2-.1 7.5.7 1.7 0 4.5-.1 6 .3l.2.2h1l-1.2.1-2.6.2c-1 .1-1.4-.2-2.5 0l2.4.2h-4.5l-.4.2.4.2H10c.4 0 1.2.1 1.3.3.1.3.8.5 1.3.6v.2c-.1 0-.7 0-.8.2h.7-1.1c-1 0-1.5-.2-2.6-.3h-5l-.3.2.3.2h-.1c.4 0 1.2.1 1.3.3.1.3.8.5 1.3.6l.1.2-1 .1h.3l.8.1q-.3.2 0 .3h-.2l-.6.1.4.1c.6.2.6.6 1.6.5h.5q.6 0 1 .2l-1.4.2 1 .3.5-.1.7-.1q.7 0 1.2.3h.2l.5-.1h.2l1.6.1h.3l-.1.1H13q-.6 0-1.3.3h.5l-1 .2c-1.8 0-4.5-.4-5-.2 1 .2 4.6.3 6.1.5h-.2l.4.2-.1.1q-1.3.3-2.7.2l-.4-.1V55H9c-.3.1.1.2-.2.4h-.4v-.2H8v.2c-1.1.2-1.6-.2-2.6.3l.6.1c-1.3.2-5.5-.3-6.1-.1 1.2.2 6.3.4 6.8.6s2.3 0 2.4.3h-.7l.1.1H9l1.2-.2.5-.2q1 0 1.8.2l2.2.6c-.2.2-.7.1-.7.3 1.2.2 1.5.1 2.4.5h.1l1.2-.2q.5 0 .7.2 0 .2.3.3h.6c.2.2-.5.3-.2.5h.5l.4-.4c.8-.4 2-.2 3.5-.9h2.6q.6 0 .7-.2h1.3-.1l.9.1h.2v-.1h.5l.2.1q.8 0 1.5.2h.6c-.2.2-.7.1-.4.4l.5.2h.3q.5-.5 1.5-.7h1.5l.4.6h.3l.3-.2c.7 0 2-.2 2.7 0q.3 0 .5.3l1-.2h.4l.1.1.2.2-.2.2-.3-.3-.3.4H40v-.3h-.3q-.2.3-1 .3h-.2l-.2-.3H38q-.3 0-.1.2-.5 0-.9-.3h-.2v.3h-1.5q-.5 0-.8-.2H34l-.2.2h-.3l-.3-.2-.5.2h-.9v-.2c-1.3-.2-3.9-.2-5.1 0l-1-.2h-2.4q.1.3.5.4l-2 .2c.5.3 1.5.3 2.2.4l-1.5.1q.7.2 1.6.1l.1-.3c1 .2 1 .5 2 .3h.9v.2H26c.3.3 1.5.4 1.5.6h-2.1l-.6.1.2.2-.7.1h-.5l.5-.2-.8-.2-1.4.1h-4.8v.5h-.7l.6-.2-.3-.1h-1.2l-1 .2v.1h.9q-.1.2-.7.3l-1.2.2-.9-.2q0 .3.8.5h.2l.4-.1 1.2.3c-.5.2-1.6.3-1.8.6l3 .3h.4l.2-.1h.4l-1.1.3 3-.1h.3v.2H17l1.2.1c.8 0 2 .1 2.7.3-1.8.3-4.5-.5-6-.1l.4.2h3.2v.1l-.4.1h.3l.2.1H16h.8v-.1l-1.5.1h.2q1.9.4 3.9.4l1.2.3h.9q.1.3-.4.4H21l-.5-.1h-.9l-.8.4-1-.2-1 .1h-.2c1 .3 2.2.1 3.2.3-1 .4-2.9.1-3.2.6 1.2.4 7.7-.3 8.6.6h-9c-1.6 0-3.3-.6-4.8-.5.3.3 2 .6 2.7.7q.5.1.6.4l-1-.1 1 .4.6.2q-.4.3-.4.7l1.4.4v.2c-2 .5-7.6.1-8.7.5 2 .4 5.2-.1 7.5.7 1.7 0 4.5-.1 6 .3l.2.2h1l-1.2.1-2.6.2c-1 0-1.4-.2-2.5 0 .9.2 2.4.1 3 .4h-.5c0 .3.9.5 1 .8-.9.3-1.9 0-2.7.2q.1.3-.5.5h-1.1c-1 0-1.5-.2-2.6-.3h-5l-.4.2.4.2h-.1c.4 0 1.2.1 1.3.3.1.3.8.5 1.3.6v.1l-.8.2h.2l.8.1q-.3 0 0 .3h-.2l-.6.1.4.1c.6.2.6.6 1.6.5h.5q.6 0 1 .2l-1.4.2 1 .2h.5l.7-.1q.7 0 1.2.3h.2l.5-.1h.2l1.6.1h.3l-.1.1h-1.2l.2.1h.3l-2.5.5h2l-.2.1-.4.1.4.2-.1.1q-1.3.3-2.7.2l-.4-.1V77h-.3c-.3.1.1.2-.2.4h-.4v-.2H12v.2c-1.1.2-1.6-.2-2.6.3h.6v.2c-1.3.1-5.5-.5-6.1-.3 1.2.3 6.3.5 6.8.6.6.3 2.3 0 2.4.4h-.7l.1.1h.5l1.2-.2.5-.3q1 0 1.8.3l2.2.6q-.5 0-.7.3c1.2.2 1.5.1 2.4.5l1.3-.2q.5 0 .7.2l.3.3h.6c.2.2-.5.3-.2.5h.5l.4-.4c.8-.4 2-.2 3.5-.9H30c.8 0 .7-.4 1.5-.5l.4.1q.2.1 0 .3H33q0-.2-.3-.2h.8v.2l1.7.2h.6c-.2.2-.7.1-.4.4l.5.2h.3q.6-.6 2-.8.7 0 1 .2l.4.5h.3l.3-.2c.7 0 2-.2 2.7 0q.3 0 .5.3l1-.2h.4l.1.1.4.2.8-.1q.2 0 .3.2l.3-.2h.4l.2.3c.7 0 3.9-.1 4.3-.3l.5-.2q.9.6 1 1.4h.1l1.2-.7h.1q.2-.3 0-.6h.2l.5.1 1 .1-.2.3h.9l.4-.2.8.2h.3l.1-.4h.2l.1.4h.2l.9-.3q.6 0 1 .3l.2-.3q.8 0 1.4.3h.2l.7-.2h.3l.8.1.5-.1h.4q.4 0 .7-.3h1l.7.2h.1v-.3l.6.2h.2q.5-.3 1.5-.3l.6.1-.6.5.3.1h.2v-.2h.1l.2.1q.4 0 .5-.2l.9.3.4-.1c.3-.2 0-.5 0-.6q.4 0 .7.2h.4l.3-.2.5.4h.3l.1-.3.3.1.2.3q.4.2 1 .1.5 0 .9-.2h2.7l-.1-.4-.4.2q-.2 0-.2-.3h1.7l.3.1-.8.3h2l.4.1h.3l-.8-.3q.2-.2.6-.2l1 .1h.2l-.7.2.3.2 1.1.3.3-.1.3-.2 3 .1 1.8-.1.9.3.4-.1h.2q0 .2-.4.3-.5.3-.3.7h.6l.6.4-.2.1-.1.1.3.2.6-.3q.1-.2.5-.3l-.4-.5c-.3.1 0 .4-.1.5h-.2q-.4-.2-.1-.5l.4-.4-.8-.3.1-.1h.8l1.2-.1.7-.1h.3l1 .1q.7.1.8.4l-.1.5.5.2c.3-.3-.4-.4.4-.6q1.4.4 2.8.4l2-1 1 .2h.1l1.3-.1c.8.2.4 1 1.2 1.4.7-.4-.2-1 .9-1.4h.3q.4.2.6.5c.3-.2.2-.3.6-.5q.7 0 1.3.2.6.1.8.6h.4l.4-.2 2.1.2-.2.3h1.2q.8 0 1.3.3c.4 0 .3-.3.7-.3l.1.2h.5l.4-.4h.3c.3.2-.2.3.2.4l.6-.1-.3-.2h.2q.5 0 .8.3c.3-.3-.2-.7.3-.9h.5l.4.1h2.3q.8 0 1 .4l.3.4h.2l1.2-1h.6v.2q0 .3.5.5h.2l1.1-.3h2.6l.4.3h.2l.4-.1c.2.3 0 .9.8 1h.1l-.2-.2h.1q.5 0 .6.2l-.6.2h-.8v.1h1.2l.5.2q.4-.1.3-.3l.5.2.5-.2q1.1-.6 3-.7.8 0 1.3.2l.2-.2q.7.4.7.7l-.2.2h-1q.7.3 1.5.3.3 0 .5-.2t.1-.5h.5q.7-.4 1.5-.5h.3v.5l.2.2h.3v-.1l.3-.1h1q.4.3 1.1.4.6 0 .9-.2l.2-.3h.2l.3.1c.6 0 .4-.3 1-.2l.7.3h.2q0-.3-.3-.4l1.2.6 1.4.1-.5-.2h1l.6-.1q0-.2-.6-.3l.5-.1v-.3h.2q.5.3.5.6h.9q.1.2-.1.5h.9v-.1h-.5q.1-.2.5-.3l.3.1 1 .1.9-.5h.3v.2h.2l.7-.2-.1.3 1-.4.3.1q.4.2.3.5h.9v-.1l1.5-.3q-.3.1-.3.4.6-.2.7-.5h.2c.4.1.2.3.2.6l.3-.2.4.1h.2v-.1l.2-.1v.2h.2l.9-.4h1.3l1-.3 3 .7.9-.3-.4-.1h2.5v.4h.4q.4-.4.3-.7l.2-.1 1 .5 1 .2q.8 0 1.2-.3l.5-.2 1.3.2.7.2q0-.2.3-.5h.7v.4h.2q.2-.2.7-.3h.2c.6 0 .2-.1.7-.2l.5.2.4-.2h.5l.4-.4q.8 0 1.5.3h1l.1-.1h.3l1 .3c.6 0 0-.4.3-.6q.8.4 1.8.5l-.2-.2.8-.1.7.2c1.1 0 1.6 0 2.6-.2h1.3l.4-.2 4.6.5.2-.1-.6-.2h1.3l.7.1h.2l.3.2h.8q2 .6 4 .5l.7-.1-.6-.2-1.1-.4h-.2l-.5-.4.7-.3c1.7.1 1 1 2.3 1.2h.3l-.2-.2 1-.3q.7 0 1.3.3.2 0 .3-.2.2-.4 1-.6l.2.1-.5.4h.9q0 .2-.2.3l-.6-.1-1.1.2 1.7.2h.3l.1-.1h.2l.1.2h.3l.5-.2 1.3-.1q.5 0 .6-.3t.5-.3h.4l-.2.7 7.8.4q.5.1.4.4h.7q.9-.3.8-.8-.3 0-.8.3c-.8-.5-.9-.2-1.9-.3v-.1h.4q1.2 0 2-.3h1.4q.2 0 .2-.2h.3v.3q.7.1 1 .4l-.4.3h-1.3l.8.2q-.3.1-.3.4h.3c1.3 0 .7-.2 1.5-.4q0 .3.3.5c1 0 1.3-.2 2.2-.3h.2v-.1h-.7v-.1h.2l.8-.5h.1q.5-.2 1-.1c.2.2.7.5.7.7h1.5l-.6-.2h.6v-.1l-.4-.2-.2-.1h1v-.2h-1l1.2-.2h.4l.2-.3v.2h.6l.2-.2h.8V81h-2l-.3.3h-.2l-.4-.1-1 .2h-.2v-.3q-.5.1-.5.4h-.1q-.3-.3-1-.4h-.2q.5-.3 1.4-.5c-1.4 0-1.4.6-3.1.3 1-.2 1 0 2-.4h.8l.4-.2c.8 0 1-.2 2 0v.2h-.8l.1.1h1.1l-.7.3h.6c1.3-.2.8-.4 2.6-.4q1.4 0 2.5.2.2.2-.1.4l-1 .2q-.2 0-.3-.3h-.2l-.8.1v.5l.8-.1-.1.3q.1.2.6.2l.7-.1h.2q0 .2.2.3h.5l-.2-.2h.8l.2-.1c-.2-.3-1-.4-1.4-.6q.3-.2.7-.2l1.3.1q-.2-.2.1-.4h1.1q.6 0 .8.2l-.4.2.4.3h.3c.4-.2.1-.4.5-.6h1l-.6.3v.2l.7.2h.6q-.3-.1-.2-.3h.4l.5.1q.1-.3.8-.5l1.9.3-.4-.2 1-.2q.6 0 1 .2l.8.4-.4.2.3.1v.1h-.9l.3.3h.7l1.3.5v.3h.2l.5-.1-.3-.3q0-.2.4-.3h1.3l-.2-.2c.3-.2 1.2-.4 1.7-.5q0-.2.3-.3l.4.2c.6-.1.7-.5 1.2-.7h1.5l.3.1q-.6.1-.7.4h.7l-.2.3h.7c1 .3 1.4.1 2.5 0l.4.2.4-.1q.5-.3 1.3-.5h.2c0 .2-.7.3-.8.5.8-.2 1 .1 1.8 0q.4-.2.2-.4-.4-.2-1-.2l.6-.2q.7-.2 1-.6l.9.1q.1.2-.4.4h.6q.3 0 .4-.2h.2l1.6-.2v.2l-1.4.3h-.2.6c1.1 0 .8-.3 1.6-.5l.7.1q-.4-.3-1.2-.3V80h.4l.3-.4 1-.2c.6.2.5.6 1.3.8q.3.1.8 0l.4-.1 1.4-.4-.3.4h.3l.3-.1c.3 0 .1.1.4.2v-.5h1.1l1-.2-.3.3h.2c.9.1 1.2-.2 2-.3l-.4.2h.1q.5 0 .7-.2h.3l.1.2h1.2q.3 0 .5-.3h.2q.2.4.8.6l.6.2q.9 0 1.4-.4l1.6-.3h.2l-.2-.1.1-.1q.7 0 1 .2 1.6 0 3-.3h.7q.4.2.4.4v.1q0 .3.5.4 2.6 0 4.8-.4l-2.4-.1-.1-.1.2-.1q.8 0 1.5-.2.5 0 .4-.3-.3 0-.3-.2l.6-.1-.5-.2h-.2q.7-.2 1.5-.2l-.2-.2c0-.2 1.1-.4 1.6-.5l-.4-.1h-.9l-5.1-.3h-.3c1-.3 3-.3 4.4-.3l.5.2c.8 0 1.1-.4 2-.5v.1h-.5q-.5.3-.4.4l1.1-.3h1.4l.2-.2h-.9q.3-.3.7-.2h.7l1.1-.1.8-.1.2.1c.5 0 .4 0 .7-.3l-.7-.1.6-.2-.6-.1c.3-.2 2.4-.2 3-.3 1 0 3.1-.3 3.6-.6-1.6 0-4-.4-4.6-.3h-1l-.2-.2.6-.1-.8-.2-2.5-.4 1.3-.1-1.1-.3v-.2l-2.8-.3-1.8-.3.9-.4h.7c-.2-.2-1-.2-1.4-.3v-.1c1.5-.4 2.6 0 4.1-.3V71h.5l.3.2q.4 0 .5-.3h-.1l-.6-.1h-7.9l.3-.1 3.7-.2h2.5l2.5-.1h.7l.2-.2c-1.2-.2-2.4.3-3.6-.3H304c.4-.2 1 0 .9-.4h.8l-.3.2h.7l.6-.1q.6 0 .8.2h.5l1.9-.3-.5-.3h-.3l-.6.2c-.3-.1 0-.2-.4-.2l-.3.1h-1l-1.2-.1h-.4l.5-.2c2.4-.2 5.5.2 7.2-.3h-1.2l-.5-.3-.3.2h-.3l-.3-.2-.7.3-.9-.1.3-.2h-1.6l.1.1h.8l-.1.2h-1.6.3l-.2-.2h.2l.1-.2-.5-.4c.7 0 1.8 0 2.4-.2l-.9-.1-1-.4h-2.7l1-.2 4.2-.2v-.4h.3l.5-.3h-2.1l.2-.2-.4-.1h-.2l-.7-.1q.8-.2 2-.1l1-.2h-.3c-1-.4-3.2-.2-4.3-.1h-1.2l.1-.1.6-.2q.4 0 .4-.4l2.2-.2-.2-.1 1-.2c1-.1 1.3.2 2.2.2 1 .1 2.1-.3 3.2-.1l-.1.2h.1l.5-.2.8.1h1l-.6-.2h.8l1-.2.7-.2.5.1c.4-.1 1.6-.6 1.4-.8l-.3-.3q.2 0 .3-.2h-.5q1.2-.2 2.4-.1l-.2-.2c1.7.3.8.5 1 .8h1.2v-.2h-.9l.1-.2-.6-.4.2-.1q1 0 1.7-.2-1.3-.2-2.7-.2v-.1h-.3q-.4.3-.9.2l-.2-.2.1-.2q0-.2-.4-.5l-.6.3h-.3l.3-.3h-.2q-1.5 0-2.6.2l-.5.1h-.6l-1-.3c-.8-.1-3.2.1-4.6-.2q-.4 0-.4-.2c.8-.5 3-.2 4-.5q-1-.1-1.7-.6l1-.1h1q-.6 0-1-.2c.8-.1 2 0 2.7-.2H313q-.6 0-1-.2h-.1l-.6.1-1.8-.2h2.2l.1-.1-1-.5h.4l1.4-.2-1.8-.1h-2.7l-.1-.2h-.5q-.4.3-.9.2v-.1l.2-.1 1-.4h-1.2l-.1-.4-.3-.3q.5 0 .8-.3.1-.2-.5-.3h-.3l-.7-.5h-.2q.3.3.2.5h-.3l-.4-.1v-.3l-.3-.2c1.7-.2 3.5 0 5.2-.2h2.2l1.4-.2-.7-.2h-3l7.2-.5-7.3-.1-4.2-.2.2-.1h-.3l.7-.3h.3q-.4 0-.3.3l1.1-.2 1.4-.2h.1q1.5-.1 2.6-.4h.1c.5 0 .4 0 .7-.3h-.7l.6-.3-.6-.1c.3-.2 2.4-.2 3-.3 1 0 3.1-.3 3.6-.5v-.1c-1.6 0-4-.4-4.6-.3h-1l-.2-.2.6-.1-.8-.2-2.5-.4 1.3-.1q-.6 0-1.1-.3v-.2l-2.8-.2-1.8-.3.9-.5h.7l-1-.3h-.4V48c1.5-.4 2.6 0 4.1-.3v-.2h.5l.3.2q.4 0 .5-.3h-.1l-.6-.1H306l-.4-.2h-.3l-.6.2c-.3-.1 0-.2-.4-.2l-.3.1h-.9l2.8-.2h2.5l2.5-.1h.7l.2-.2H309h.1v-.2h-.5l-.4-.1h-1.5c.3-.2.8 0 .7-.4h.8l-.3.2h.7l.6-.1.8.2h.5l1.9-.3-.5-.3h-.3l-.6.2c-.3-.1 0-.2-.4-.2l-.3.1h-1l-1.2-.1h-.4l.5-.2c2.4-.2 5.5.2 7.2-.3h-1.2l-.5-.3-.3.2h-.3l-.3-.2-.7.3-.9-.1.3-.2h-1.6l.1.1h.8l-.1.2h-1.6.3l-.2-.2h.2l.1-.1-.5-.5c.7 0 1.8 0 2.4-.2h-1q-.3-.3-.9-.5h-2.7l1-.2c1.4-.2 3 0 4.2-.2v-.4h.3l.5-.3h-2.1l.2-.2-.4-.1h-.5l.5-.2.8.1h1l-.5-.1q.5 0 .8-.2l1-.1.6-.2.5.2c.4-.2 1.6-.7 1.4-1l-.3-.1h.5l-.1.2h.1l.5-.2.8.1h1l-.6-.2h.8v.3h1.2v-.2h-.9l.1-.2.6-.1.7-.2.5.2c.4-.2 1.6-.7 1.4-1l-.3-.2q.2 0 .3-.2h-.5q1.2-.2 2.4-.1l-.2-.2c1.7.3.8.5 1 .8h1.2v-.2h-.9l.1-.2-.6-.4.2-.1q1 0 1.7-.2M285.1 21l1 .2h.6v-.3h.8l.2.2h.4l-.3-.2h4.3l.3.2 2.3-.3 10.7-.1-4 .5-1.2.1h-2.7c-.5 0-.3-.3-.9-.2H294l-.3.4h-2.9q-.2-.2-.4 0l-.8-.1-.6.2h-.7l-.2-.2h-1.5l-.6.2-.1-.2-.5.2-.2-.1zm-265 13.7H20zl.6-.2v-.1h-1.2l.9-.1.6.1v.2zm-.3 2.3h-.4zM42 58.4q-.2 0-.3-.2l.6-.1h.2-.2zm1.3 0-.3-.2h-.3.6l.2.2h.1zm1.3.1h-.2v-.2h.6v.2zm1-.1-.1-.1h.4-.3m1.5-.1h-.3l1-.2.5-.2q.3 0 .5.3zm4 0h-.3V58h.1l.5.1h.4zM306.7 66l-4 .5h-1.5l-.7.1h-1.7c-.5 0-.3-.3-.9-.3l-.4.1h-2.3l-.3.4h-2.6l-.3-.1h-1.2l-.6.2h-.7l-.2-.3h-.2l-.1.2-.6-.1h-.6l-.6.2-.1-.2-.5.1h-.2v-.4l1 .1h.6v-.3h.8l.2.2h.4l-.3-.2h4.3l.2.2 2.4-.3zm-.9-23c-1-.1-3 0-4.1.1h-.7l-.3-.2h.5q.2 0 .3-.2l7.7-.1zm4.2-1-.1.2-.3-.1z"/><path fill="#fc6b7e" d="m340.2 30.1-2.6-.2-.2-.1-.2.1H336l.1-.3q0-.3-.4-.4l-.6.2h-.3l.3-.3h-.2q-1.5 0-2.6.2l-.5.2h-.6l-1-.4c-.8-.1-3.2.1-4.6-.2q-.4 0-.4-.2c.8-.4 3-.2 4-.5l-1.7-.5v-.1l1-.1h1q-.6 0-1-.2c.8-.1 2 0 2.7-.2h-2.4q-.6 0-1-.2h-.1l-.6.1-1.8-.2h2.2l.1-.1-1-.4.4-.2 1.4-.1h-1.8l-.6-.1h-2l-.1-.2-.5.1h-.9l.2-.1 1-.4h-1.2l-.1-.4-.3-.3.7-.2h.1q.1-.2-.5-.3h-.3V24l4.3-.3h-4.8l-.2-.2h-.1v.1h-.6l-.3-.2 5.2-.2h2.2l1.4-.2-.7-.2h-3l7.2-.5-7.3-.1-4.2-.2h.2l-.6-.2c.3-.2 2.4-.2 3-.3 1 0 3.1-.2 3.6-.5v-.1c-1.6 0-4-.3-4.6-.3h-1l-.2-.2.6-.1-.8-.2-2.5-.4 1.3-.1q-.6 0-1.1-.3v-.2l-2.8-.2-1.8-.3.9-.4h.6l.1-.1c-.2-.2-1-.2-1.4-.3v-.1c1.5-.4 2.6 0 4.1-.2v-.3h.5l.3.2q.4 0 .5-.3h-8.4l-.2-.1h.3l3.7-.3h2.5l2.5-.1h.7l.2-.2c-1.2-.2-2.4.3-3.6-.3H316c.4-.2 1 0 .9-.4h.8l-.3.2h.7l.6-.1.8.2h.5q1 0 1.9-.3l-.5-.3h-.3l-.6.2c-.3-.1 0-.2-.4-.2l-.3.1h-2.2l-.4-.1.5-.2c2.4-.1 5.5.2 7.2-.3h-1.2l-.5-.2-.3.2h-.3l-.3-.3-.6.3-1-.1.3-.2h-1.6l.1.1h.8l-.1.2h-1.6.3l-.2-.2h.2l.1-.1-.5-.5c.7 0 1.8 0 2.4-.2h-.9l-1-.5h-2.7l1-.2 4.2-.2v-.4h.3l.5-.3h-2.1l.2-.2-.4-.1h-.9q.8-.3 2-.2.6 0 1-.2h-.3c-1-.4-3.2-.2-4.3 0l-1-.1h-.2l.1-.1.6-.1.4-.4 2.2-.3-.2-.1 1-.2 2.2.2c1 .1 2.1-.3 3.2 0h-.1l.1.1.5-.2.8.1h1l-.6-.1.1-.1h.7l1-.2.7-.2.5.2c.4-.2 1.6-.7 1.4-1l-.3-.2q.2 0 .3-.2h-.5q1.2-.2 2.4-.1l-.2-.1c1.7.2.8.4 1 .7h1.2V9h-.9l.1-.2-.6-.4h.2l1.7-.3-2.6-.2-.2-.1-.2.1h-1.1l.2-.3q0-.3-.5-.4l-.6.2h-.3l.3-.3h-.2q-1.5 0-2.6.2l-.5.2h-.6l-1-.4c-.8-.1-3.2.1-4.6-.2q-.4 0-.4-.2c.8-.4 3-.2 4-.5l-1.7-.5v-.1l1-.1h1q-.6 0-1-.2c.8-.1 2 0 2.7-.2H325q-.6 0-1-.2h-.1l-.6.1-1.8-.2h2.2l.1-.1-1-.4.4-.2 1.4-.1h-1.8l-.6-.1h-2.1l-.1-.2-.5.1h-.9l.2-.1 1-.4h-1.2l-.1-.4-.3-.3q.5 0 .8-.3l-.5-.2h-.3l-.7-.6h-.1q.2.3.1.5h-.5l-.1-.3-.3-.2 5.2-.2h2.2l1.4-.2-.7-.2h-3l7.2-.5-7.3-.1L317 0q-2.7.1-5.3.4c-2.1 0-11.7 0-12.6.2l-1 .2-1-.2c-1 0-1.8.4-2.8.3q-.1-.2.3-.3l.2-.1h-1.4c-1.3 0-1.6.3-3 0l.7-.2-.2-.1-.9.2q-1.5.4-3.2.3l-.7-.1.5-.1c-1.5-.2-3.1.5-4 .3l-.2-.2q-.8.2-1.8.2V.6l-1.8.1-.3-.3h-.5c-.6.1-1.3.6-1.8.6V.5q-1-.2-2-.1h-.1q-.5.3-1 .3l-2.5-.2-.5.2-.7-.4h-.5l-.5.3-.8.2h-.3q-.2-.4-.7-.5h-1.1q-1.1.4-2.3.6l.2-.4h-.2l-1.2.1-.5-.2h-7.3l-3.1-.1-1.2.1h-.4l-1.9-.1q-3.2 0-6.3.4l-5-.4q-.5.5-2 .8h-1.1q-.8-.4-2-.6c-.8.2-.9.7-2.2.6h-.3l.3-.2h-.3l-1 .3-.1-.1.5-.5-.6.3h-.3l.1-.3h-.3v.2h-.4l-.3-.2c-1.5 0-2 .8-3.6.4l.4-.2-.7-.7H221q-1.3 0-2 .5h-.1l-.6.3v.2q-.3-.3-.7-.4h-.4l-.1.1q.4 0 .5.3h-.2l-.6-.2-.1.3h-.3l-.8-.3h-.2q0 .2-.2.2-1-.5-2.5-.7l-1.6.1c-.3.4.5.5-.5.7-.3 0-.1-.3-.5-.3l-.2.5q-.4 0-.6-.3l-.2.3h-.2v-.1l-.2-.3-1.2.6-.3-.2-.1-.5h-.2l-.2.4h-.1l-.3-.3c-.4.1-.2.4-.6.5h-.1v-.2q-.4 0-.5.2-.5-.1-.8-.4h-.2l-.1.2c-.9 0-1.4-.4-2.4-.3q-.3.4-.7.6H197l-2-.1q-.8 0-1.5.2c0-.3.7-.3 0-.7h-.7c-.5.3-.1.7-.6 1h-.4l-.2-.3h-1.8v-.2c-.5-.1-11.3.2-13.2.2l-4-.1H167q-8.8-.1-17.5.2H135q-7.5.2-14.8.1c-2.4 0-13.5-.4-15-.2l-.8.2h-.3l-.1-.2c-1.5-.1-3.1.2-4.8 0l-1.8.1c-.8.2-1.8-.2-2.9 0l.4.1c-1.5 0-2.8-.4-3.8-.3q.3.2 1 .3l-2.4-.1 1.2-.2h-1.3l-.4.3c-.8 0-2.3 0-2.7.2v.2L86 2q.5-.2.6-.4l-.2-.2H86l-.5.4-.4-.1h-.7q-.2-.3-.6-.4h-1v.2h.3l-.2.2h-.3v-.2h-.2l-.2.3H82v-.1l-.3-.3h-.3v.1l-.4.2-.7-.1c0-.3-.7-.5-1-.8H79q0 .2.4.5h-.3l-1-.2.4.2-.1.1h-.3l-.3-.3-.7.1.5.1-.1.1-.1.2H77h.9l-.9.1q-.8-.1-1.6 0H74l-.3-.3h-.4l.1.3h-.3l-.2-.2q-.5 0-.8.2H72v-.2l-.6-.6-.5-.1-1.1-.3-.2.2c.7.2.8 0 1.6.4l-.1.2h-.3q-.2-.2-.6-.2h-.3v.3l-.5-.3h-1a58 58 0 0 0-9 0l-.5-.2-.1-.1-1 .2h-3q-.4.1-.5.4h-.8l-.8.1v-.1h-1.8l-1.6-.2-3.5-.1q-.2 0-.1-.1l2-.1h-2c-1-.2-1.8 0-2.8-.2h-.4l-.2.2q0-.2-.4-.2h-.5l-.7.3H40l.3-.1V.8h-.8v.3h-1.2l.6-.3-1.1-.2V1h-.6l.1-.2h-.2l-.8.3.3-.3h-.1c-1-.1-2.5.1-3.6.2h-.2l-1 .2.1.2h1q0 .2-.2.3h.3l.4-.3h1.8l.4.1-.3.3h.5l-1.3.1h-.3v-.1l-.1-.2-.5.3c-.8 0-1-.1-1.5-.3v.2h-2.4l-.3.1V2l2 .2c1.4.3 4 0 5.3.3l.3.5-1 .1h-.1.2l.5-.2v-.1h-.3c-.8 0-1-.1-2 .1L33 3h-.2l.2.2h.3l2.4.2-.1.1h5l8.6.3h3l1.6.1q4.6 0 9 .3h4q.1.2-.1.3l-1.2-.1-2.2.2-1.5-.1h-3.5l-.3.2h-.2l-.2-.2h-.3l-.2.3h-.5v-.3h-.7l-.1.2h-.3l-.3-.2h-.7q-.2 0-.3.2c-.4 0-.1-.3-.7-.2l-.2.2-.3-.3-.3.4h-.4l.1-.3H52q-.2.3-.9.3h-.3l-.2-.3h-.3q-.3 0-.1.3l-.9-.3H49v.2h-1.5l-.8-.1v-.1h-.5l-.2.2h-.3l-.3-.2-.5.2H44v-.2c-1.3-.2-3.9-.2-5.1 0l-1-.2h-2.3l-.1.1.5.3-2 .2 2.2.5c-1 0-.5-.2-1.4 0h-.1q.7.3 1.6.1l.1-.3c1 .2 1 .5 2 .4h.9v.1l-1.3.1 1.5.5q-1 .2-2.1.1h-.6l.2.2-.7.2h-.5l.5-.3-.8-.2-1.4.1h-4.8v.5h-.7l.6-.2-.3-.1h-1.2l-1 .2V7h.9q-.1.3-.7.3l-1.2.2-.9-.2q0 .3.8.5h.2l.5-.1 1.1.3c-.5.2-1.6.3-1.8.6.7.2 2.1.3 3 .3h.4l.2-.1h.4q-.5.3-1.1.3l3-.1h.3v.2h-2.5l-.2.1h1.2c.8 0 2 .1 2.7.3-1.8.3-4.5-.5-6 0l.4.1h3.2v.1l-.4.1.3.1h.2-2.5.8v-.1q-.8 0-1.5.2h.2q1.9.3 3.9.4l1.2.2h.8l.1.1q.1.2-.4.3h-.1l-.5-.1h-.9l-.8.4-1-.1h-1.2c1 .3 2.2.1 3.2.4-.9.3-2.9 0-3.2.6 1.2.4 7.7-.4 8.6.5h-2.6q-3.1.1-6.4 0c-1.6 0-3.3-.6-4.8-.4.3.2 2 .5 2.7.6q.4.1.6.4h-1l1 .4.6.1q-.4.4-.4.7l1.4.4v.2c-2 .5-7.6.1-8.7.5 2 .4 5.2-.1 7.5.7 1.7 0 4.5 0 6 .3l.2.2h1l-1.2.1q-1.4 0-2.6.3c-1 0-1.4-.3-2.5-.1 1 .2 2.4.1 3 .4l-.5.1c0 .2.9.5 1 .7-.9.3-1.9 0-2.7.2q.1.4-.5.5h-1.1c-1 0-1.5-.2-2.6-.3h-5l-.3.2.3.2h-.1c.4 0 1.2.1 1.3.3q.4.4 1.3.6l.1.2-1 .2h1.2q-.4.2-.2.3h-.1l-.6.1.4.1c.6.2.6.6 1.6.6h.5l1 .1-1.4.2q.3.2 1 .3l.5-.1.7-.1q.7 0 1.2.3h.2l.5-.1h.2l1.6.1h.4l-.2.1h-1.2l.2.2h.3l-2.4.4 1.9.1h-.2l-.4.1.4.2-.1.1q-1.3.2-2.7.2l-.4-.1v-.2H25c-.2.1.1.2-.2.4h-.4v-.2H24v.2c-1.1.2-1.6-.2-2.6.3l.6.1v.1c-1.3.1-5.5-.4-6.1-.2 1.2.2 6.3.4 6.8.6.7.2 2.3 0 2.4.3h-.7l.1.1h.5l1.2-.2.5-.2q1.1 0 1.9.2l.8.3h-2.3l-.3.1v.1l2 .2 1.3.1v.1c1 .2 1.3.1 2.1.4l-.5.1-1.3.2h-.2l.2.2h.3l2.4.2-.1.1h4.9c.4.3 1.4.3 2 .5-.8 0-.4-.2-1.3 0h-.1q.7.3 1.6.1l.1-.3c1 .2 1 .5 2 .3h.9v.2l-1.3.1.8.3h-1.1V28c-1.3-.2-3.9-.2-5.1 0l-1-.2H33l-.1.1.5.3-2 .2 1 .3h-1l-1 .2v.1h.9q-.1.3-.7.3l-1.2.2-.9-.2q0 .3.8.5h.2l.5-.1.8.3-2-.2H27v.2h-.3v.4H26l.6-.2-.3-.1h-1.2l-1 .2v.1h.9q-.1.3-.7.3l-1.2.2-.9-.2q0 .3.8.5h.2l.5-.1 1.1.3c-.5.2-1.6.3-1.8.6.7.2 2.1.3 3 .3h.4l.2-.1h.4l-1.1.3 3-.1h.3v.2h-2.5l-.2.1h1.2c.8 0 2 .1 2.7.3-1.8.3-4.5-.5-6 0l.4.1H28v.1l-.4.1h.3l.2.2h-2.5q.2-.2.8-.1v-.1q-.9 0-1.5.2h.2q1.9.3 3.9.3l1.2.3h.8l.1.1q.1.2-.4.3h-.1l-.5-.1h-2.9l1.3.3h-2.3c1 .3 2.2.1 3.2.3-1 .4-2.9.1-3.2.7h4.4l.6.2-.3.4h-5c-1.7 0-3.4-.7-5-.6.4.3 2 .6 2.8.7q.5.1.6.4l-1-.1 1.5.6-.1.3-1.2.1 1 .2v.1l1.4.4v.2c-2 .5-7.6.1-8.7.5 2 .4 5.2-.1 7.5.7 1.7 0 4.5-.1 6 .3l.2.2h1l-1.2.1-2.6.2c-1 .1-1.4-.2-2.5 0l2.4.2h-4.5l-.3.2.3.2h-.1c.4 0 1.2.1 1.3.3q.4.4 1.3.6l.1.2-1 .2h.8-.9c-1 0-1.5-.2-2.6-.3h-5l-.3.2.3.2h-.1c.4 0 1.2.1 1.3.3q.4.4 1.3.6l.1.2-1 .1h.3l.8.1q-.3.2 0 .3h-.2l-.6.1.4.1c.6.2.6.6 1.6.5h.5q.6 0 1 .2l-1.4.2 1 .3.5-.1.7-.1q.7 0 1.2.3h.2l.5-.1h.2l1.6.1h.4l-.2.1h-.9q-.6 0-1.3.3h.5l-1 .2c-1.8 0-4.5-.4-5-.2 1 .2 4.6.3 6.1.5h-.2l.4.2-.1.1q-1.3.3-2.7.2l-.4-.1v-.2h-.3c-.3.1.1.2-.2.4H22V47h-.4v.2c-1.1.2-1.6-.2-2.6.3l.6.1c-1.3.2-5.5-.3-6.1-.1 1.2.2 6.3.4 6.8.6.7.2 2.3 0 2.4.3H22l.1.1h.5l1.2-.2.5-.2q1.1 0 1.8.2l2.2.6-.7.3c1.2.2 1.5.1 2.4.5h.1l1.2-.2q.5 0 .7.2 0 .2.3.3h.6c.2.2-.5.3-.2.5h.5l.4-.4c.8-.4 2-.2 3.5-.9h2.6q.6 0 .7-.2h1.3-.1l1 .1h.1V49h.5l.2.1q.8 0 1.5.2h.6c-.2.2-.7.1-.3.4l.4.2h.3q.5-.5 1.5-.7h1.5l.4.6h.3l.3-.2c.7 0 2-.2 2.7 0q.3 0 .5.3l1-.2h.4l.1.1.2.2-.2.2-.3-.3-.3.4h-.4l.1-.3h-.4q-.2.3-.9.3H52l-.2-.3h-.3q-.3 0-.1.2-.5 0-.9-.3h-.2v.3h-1.5q-.5 0-.8-.2h-.5l-.2.2H47l-.3-.2-.5.2h-.9V50c-1.3-.2-3.9-.2-5.1 0l-1-.2h-2.4q.1.3.5.4c-.7.2-1.2 0-2 .2q1 .3 2.2.4l-1.4.1H36q.7.2 1.6.1l.1-.3c1 .2 1 .5 2 .3h.9v.2h-1.3c.3.3 1.5.4 1.5.6h-2.1l-.6.1.2.2-.7.1H37l.5-.2-.8-.2-1.4.1h-4.8v.5h-.7l.6-.2-.3-.1H29l-1 .2v.1h.9q-.1.2-.7.3l-1.2.2-.9-.2q0 .3.8.5h.2l.4-.1 1.2.3c-.5.2-1.6.3-1.8.6l3 .3h.4l.2-.1h.4l-1.1.3 3-.1h.3v.2h-2.7l1.2.1c.8 0 2 .1 2.7.3-1.8.3-4.5-.5-6-.1l.4.2h3.2v.1l-.4.1h.3l.2.1h-2.5.8v-.1l-1.5.1h.2q1.9.4 3.9.4l1.2.3h.9q.1.3-.4.4h-.1l-.5-.1h-.9l-.8.4-1-.2-1 .1h-.2c1 .3 2.2.1 3.2.3-1 .4-2.9.1-3.2.6 1.2.4 7.7-.3 8.6.6h-9.1c-1.6 0-3.3-.6-4.8-.5.3.3 2 .6 2.7.7q.5.1.6.4l-1-.1 1 .4.6.2q-.4.3-.4.7l1.4.4v.2c-2 .5-7.6.1-8.7.5 2 .4 5.2-.1 7.5.7 1.7 0 4.5-.1 6 .3l.2.2h1l-1.2.1-2.6.2c-1 0-1.4-.2-2.5 0 1 .2 2.4.1 3 .4H32c0 .3.9.5 1 .8-.9.3-1.9 0-2.7.2q.1.3-.5.5h-1.1c-1 0-1.5-.2-2.6-.3h-5l-.3.2.3.2H21c.4 0 1.2.1 1.3.3.1.3.8.5 1.3.6l.1.1-1 .2h.3l.8.1q-.3 0 0 .3h-.2l-.6.1.4.1c.6.2.6.6 1.6.5h.5q.6 0 1 .2l-1.4.2 1 .2h.5l.7-.1q.7 0 1.2.3h.2l.5-.1h.2l1.6.1h.4l-.2.1H30l.2.1h.3l-2.5.5h2l-.2.1-.4.1.4.2-.1.1q-1.3.3-2.7.2l-.4-.1v-.2h-.3c-.3.1.1.2-.2.4h-.4V69h-.4v.2c-1.1.2-1.6-.2-2.6.3h.6v.2c-1.3.1-5.5-.5-6.1-.3 1.2.3 6.3.5 6.8.6.7.3 2.3 0 2.4.4h-.7l.1.1h.5l1.2-.2.5-.3q1.1 0 1.8.3l2.2.6c-.2.1-.7.1-.7.3 1.2.2 1.5.1 2.4.5h.1q.5-.3 1.2-.2.5 0 .7.2l.3.3h.6c.2.2-.5.3-.2.5h.5l.4-.4c.8-.4 2-.2 3.5-.9h2.6c.8 0 .7-.4 1.5-.5l.4.1q.2.1 0 .3h1.1q0-.2-.3-.2h.8v.2l1.7.2h.6c-.2.2-.7.1-.3.4l.4.2h.3q.6-.6 2-.8.7 0 1 .2l.4.5h.3l.3-.2c.7 0 2-.2 2.7 0q.3 0 .5.3l1-.2h.4l.1.1.4.2.8-.1q.2 0 .3.2l.3-.2h.4l.2.3c.7 0 3.9-.1 4.3-.3l.5-.2q.9.6 1 1.4h.1l1.2-.7h.1q.2-.3 0-.6h.2l.5.1 1 .1-.2.3h.9l.4-.2.8.2h.3l.1-.4h.2l.1.4h.2l.9-.3q.6 0 1 .3l.2-.3q.8 0 1.4.3h.2l.7-.2h.3l.9.1.4-.1h.4q.4 0 .7-.3h1l.7.2h.1v-.3l.6.2h.2q.6-.3 1.5-.3l.6.1-.6.5.3.1h.2V72h.1l.2.1q.4 0 .5-.2l.9.3.4-.1c.3-.2 0-.5 0-.6l.7.2h.4l.3-.2.5.4h.3l.1-.3.3.1.2.3q.4.2 1 .1.5 0 .9-.2h2.7l-.1-.4-.4.2q-.2 0-.2-.3h1.7l.3.1q-.2.2-.8.3h2l.4.1h.3l-.8-.3q.2-.2.6-.2l1 .1h.2l-.7.2.3.2 1.1.3.3-.1.3-.2 3 .1 1.8-.1.9.3.4-.1h.2q0 .2-.4.3-.5.3-.3.7h.6l.6.4-.2.1-.1.1.3.2.6-.3q.1-.2.5-.3l-.4-.5c-.3.1 0 .4-.1.5h-.2q-.4-.2-.1-.5l.4-.4-.8-.3.1-.1h.8l1.2-.1.7-.1h.3l1 .1q.7.1.8.4l-.1.5.5.2c.3-.3-.4-.4.4-.6q1.4.4 2.8.4l2-1 1 .2h.1l1.4-.1c.7.2.3 1 1 1.4.8-.4 0-1 1-1.4h.3q.4.2.6.5c.3-.2.2-.3.6-.5q.7 0 1.3.2.6.1.8.6h.4l.4-.2 2.1.2-.2.3h1.2q.8 0 1.3.3c.4 0 .3-.3.7-.3l.1.2h.5l.4-.4h.3c.3.2-.2.3.2.4l.6-.1-.3-.2h.2q.5 0 .8.3c.3-.3-.2-.7.3-.9h.5l.4.1h2.3q.8 0 1 .4l.3.4h.2l1.2-1h.6v.2q0 .3.5.5h.2l1.1-.3h2.6l.4.3h.2l.4-.1c.2.3 0 .9.8 1h.1l-.2-.2h.1q.5 0 .6.2l-.6.2h-.8v.1h1.2l.5.2q.4-.1.3-.3l.5.2.5-.2q1.1-.6 3-.7.8 0 1.3.2l.2-.2q.7.4.7.7l-.2.2h-1q.7.3 1.5.3.3 0 .5-.2t.1-.5h.5q.7-.4 1.5-.5h.3v.5l.2.2h.3v-.1l.3-.1h1q.4.3 1.1.4.6 0 .9-.2l.2-.3h.2l.3.1c.6 0 .4-.3 1-.2l.7.3h.2q0-.3-.3-.4l1.2.6 1.4.1-.5-.2h1l.6-.1q0-.2-.6-.3l.5-.1v-.3h.2q.5.3.5.6h.9q.1.2-.1.5h.9v-.1h-.5q.1-.2.5-.3l.3.1 1 .1.9-.5h.3v.2h.2l.7-.2v.3l.8-.4.4.1q.4.2.3.5h.9V74l1.5-.3q-.3.1-.3.4.6-.2.7-.5h.2c.4.1.2.3.2.6l.3-.2.4.1h.2V74l.2-.1v.2h.2l.9-.4h1.3l1-.3 3 .7.9-.3-.4-.1h2.5v.4h.4q.4-.4.3-.7l.2-.1 1 .5 1 .2q.8 0 1.2-.3l.5-.2 1.3.2.7.2q0-.2.3-.5h.7v.4h.2q.2-.2.7-.3h.2c.6 0 .2-.1.7-.2l.5.2.4-.2h.5l.4-.4q.8 0 1.5.3h1l.1-.1h.3l1 .3c.6 0 0-.4.3-.6q.8.4 1.8.5l-.2-.2.8-.1.7.2c1.1 0 1.6 0 2.6-.2h1.3l.4-.2 4.6.5.2-.1-.6-.2h1.3l.7.1h.2l.3.2h.9q1.8.6 4 .5l.6-.1-.6-.2-1.1-.4h-.2l-.5-.4.7-.3c1.7.1 1 1 2.3 1.2h.3l-.2-.2 1-.3q.7 0 1.3.3.3 0 .3-.2.2-.4 1-.6l.2.1-.5.4h.9q0 .2-.2.3l-.5-.1-1.2.2 1.7.2h.3l.1-.1h.2l.1.2h.3l.5-.2 1.3-.1q.5 0 .6-.3t.5-.3h.4q0 .4-.2.7l7.8.4q.5.1.4.4h.7q.9-.3.8-.8-.3 0-.8.3c-.8-.5-.9-.2-1.9-.3v-.1h.4q1.2 0 2-.3h1.4q.2 0 .2-.2h.3v.3q.7.1 1 .4l-.4.3h-1.3l.8.2q-.3.1-.3.4h.3c1.3 0 .7-.2 1.5-.4q0 .3.3.5c1 0 1.3-.2 2.2-.3h.2v-.1h-.7v-.1h.2l.8-.5h.1q.5-.2 1-.1l.7.7h1.5l-.6-.2h.6V74l-.4-.2-.2-.1h1v-.2h-1l1.2-.2h.4l.2-.3v.2h.6l.2-.2h.8v-.2h-2l-.3.3h-.2l-.4-.1-1 .2h-.2v-.3q-.5.1-.5.4h-.1q-.4-.3-1-.4h-.2l1.4-.5c-1.4 0-1.4.6-3.1.3 1-.2 1 0 2-.4h.8l.4-.2c.8 0 1-.2 2 0v.2h-.7v.1h1.1l-.7.3h.6c1.3-.2.8-.4 2.6-.4q1.5 0 2.5.2.3.2-.1.4l-1 .2q-.2 0-.3-.3h-.2l-.8.1v.5l.8-.1-.1.3q.1.2.6.2l.7-.1h.2l.2.3h.5l-.2-.2h.8l.2-.1c-.2-.3-1-.4-1.4-.6q.3-.2.7-.2l1.3.1q-.2-.2.1-.4h1.1q.6 0 .8.2l-.4.2.4.3h.3c.4-.2.1-.4.5-.6h1l-.6.3v.2l.7.2h.6q-.3-.2-.2-.3h.4l.5.1q.1-.3.8-.5l1.9.3-.4-.2 1-.2q.6 0 1 .2l.8.4-.4.2.3.1v.1h-.9l.3.3h.7l1.3.5v.3h.2l.5-.1-.2-.3q0-.2.3-.3h1.3l-.2-.2c.3-.2 1.2-.4 1.7-.5q0-.2.3-.3l.4.2c.6-.1.7-.5 1.2-.7h1.5l.3.1q-.5.1-.7.4h.7l-.2.3h.7c1 .3 1.4.1 2.5 0l.4.2.4-.1q.5-.3 1.3-.5h.2c0 .2-.7.3-.8.5.9-.2 1 .1 1.8 0q.4-.2.2-.4-.4-.2-1-.2l.6-.2q.7-.2 1-.6l.9.1q.1.2-.4.4h.6q.3 0 .4-.2h.2l1.6-.2v.2l-1.4.3h-.2.6c1.1 0 .8-.3 1.6-.5l.7.1h.1q-.5-.3-1.3-.3v-.2h.4l.3-.4 1-.2c.6.2.6.6 1.3.8q.4.1.8 0l.4-.1 1.4-.4-.3.4h.3l.3-.1c.3 0 .1.1.4.2v-.5h1.1l1-.2-.3.3h.2c.9.1 1.2-.2 2-.3l-.4.2h.1q.5 0 .7-.2h.3l.1.2h1.2q.3 0 .5-.3h.2q.2.4.8.6l.6.2q.9 0 1.4-.4l1.6-.3h.2l-.2-.1.1-.1q.7 0 1 .2 1.6 0 3-.3h.7q.4.2.4.4v.1q0 .3.5.4 2.6 0 4.8-.4l-2.4-.1-.1-.1.2-.1q.8 0 1.5-.2.5 0 .4-.3-.3 0-.3-.2l.6-.1-.5-.2h-.2q.7-.2 1.5-.2l-.2-.2c0-.2 1.2-.4 1.6-.5l-.4-.1h-.9l-5.1-.3h-.3c1-.3 3-.3 4.4-.3l.5.2c.8 0 1.1-.4 2-.5v.1h-.5q-.5.3-.4.4l1.1-.3h1.4l.2-.2h-.9q.3-.2.7-.2h.7l1.1-.1.8-.1.2.1c.5 0 .4 0 .7-.3l-.7-.1.6-.2-.6-.1c.3-.2 2.4-.2 3-.3 1 0 3.1-.3 3.6-.6-1.6 0-4-.4-4.6-.3h-1l-.2-.2.6-.1-.8-.2-2.5-.4 1.3-.1-1.1-.3v-.2q-1.4-.3-2.8-.2l-1.8-.4.9-.4h.7c-.2-.2-1-.2-1.4-.3V63c1.5-.4 2.6 0 4.1-.3v-.2h.5l.3.2q.4 0 .5-.3h-.1l-.6-.1h-7.9l.3-.1 3.7-.2h2.5l2.5-.1h.7l.2-.2c-1.2-.2-2.4.3-3.6-.3h-1.7c.4-.2 1 0 .9-.4h.8l-.3.2h.7l.6-.1q.6 0 .8.2h.5l1.9-.3-.5-.3h-.3l-.6.2c-.3-.1 0-.2-.4-.2l-.3.1h-.9l-1.3-.1h-.4l.5-.2c2.4-.2 5.5.2 7.2-.3H325l-.5-.3-.3.2h-.3l-.3-.2-.6.3-1-.1.3-.2h-1.6l.1.1h.8l-.1.2H320h.3l-.2-.2h.2l.1-.2-.5-.4c.7 0 1.8 0 2.4-.2l-.9-.1-1-.4h-2.7l1-.2c1.4-.2 3 0 4.2-.2V58h.3l.5-.3h-2.1l.2-.2-.4-.1h-.2l-.7-.1q.8-.2 2-.1.6 0 1-.2h-.3c-1-.4-3.2-.2-4.3-.1h-1.2l.1-.1.6-.2q.4 0 .4-.4l2.2-.2-.2-.1 1-.2c1-.1 1.3.2 2.2.2 1 .1 2.1-.3 3.2-.1l-.1.2h.1l.5-.2.8.1h1l-.6-.2h.8l1-.2.7-.2.5.1c.4-.1 1.6-.6 1.4-.8l-.3-.3q.2 0 .3-.2h-.5q1.2-.2 2.4-.1l-.2-.2c1.7.3.8.5 1 .8h1.2v-.2h-.9l.1-.2-.6-.4.2-.1q1 0 1.7-.2l-2.6-.2-.2-.1h-.2q-.4.3-.9.2l-.2-.2.1-.2q0-.2-.4-.5l-.6.3h-.3l.3-.3h-.2q-1.5 0-2.6.2l-.5.1h-.6l-1-.3c-.8-.1-3.2.1-4.6-.2q-.4 0-.4-.2c.8-.5 3-.2 4-.5q-1-.1-1.7-.6l1-.1h1q-.6 0-1-.2c.8-.1 2 0 2.7-.2h-2.4q-.6 0-1-.2h-.1l-.6.1-1.8-.2h2.2l.1-.1-1-.5h.4l1.4-.2-1.8-.1h-2.7l-.1-.2h-.5q-.3.3-.9.2v-.1l.2-.1 1-.4H320l-.1-.4-.3-.3q.5 0 .8-.3.1-.2-.5-.3h-.3l-.7-.5h-.1q.2.3.1.5h-.3l-.3-.1-.1-.3-.3-.2 5.2-.2h2.2l1.4-.2-.7-.2h-3l7.2-.5-7.3-.1-4.2-.2.2-.1h-.3l.7-.3h.3q-.3 0-.3.3l1.1-.2 1.4-.2h.1q1.5-.1 2.6-.4h.1c.5 0 .4 0 .7-.3h-.7l.6-.3-.6-.1c.3-.2 2.4-.2 3-.3 1 0 3.1-.3 3.6-.5v-.1c-1.6 0-4-.4-4.6-.3h-1l-.2-.2.6-.1-.8-.2-2.5-.4 1.3-.1q-.6 0-1.1-.3v-.2l-2.8-.2-1.8-.3.9-.5h.7l-1-.3h-.4v-.1c1.5-.4 2.6 0 4.1-.3v-.2h.5l.3.2q.4 0 .5-.3h-.1l-.6-.1h-3.8l-.4-.2h-.3l-.6.2c-.3-.1 0-.2-.4-.2l-.3.1h-.9l2.8-.2h2.5l2.5-.1h.7l.2-.2q-1.4-.2-2.8 0h.1v-.2h-.5l-.4-.1H320c.3-.2.8 0 .7-.4h.8l-.3.2h.7l.6-.1.8.2h.5l1.9-.3-.5-.3h-.3l-.6.2c-.3-.1 0-.2-.4-.2l-.3.1h-.9l-1.3-.1h-.4l.5-.2c2.4-.2 5.5.2 7.2-.3h-1.2l-.5-.3-.3.2h-.3l-.3-.2-.6.3-1-.1.3-.2h-1.6l.1.1h.8l-.1.2h-1.6.3l-.2-.2h.2l.1-.1-.5-.5c.7 0 1.8 0 2.4-.2h-.9l-1-.5h-2.7l1-.2c1.4-.2 3 0 4.2-.2v-.4h.3l.5-.3H324l.2-.2-.4-.1h-.4l.4-.2.8.1h1l-.5-.1q.5 0 .8-.2l1-.1.6-.2.5.2c.4-.2 1.6-.7 1.4-1l-.3-.1h.5l-.1.2h.1l.5-.2.8.1h1l-.6-.2h.8v.3h1.2v-.2h-.9l.1-.2.6-.1.7-.2.5.2c.4-.2 1.6-.7 1.4-1l-.3-.2q.2 0 .3-.2h-.5q1.2-.2 2.4-.1l-.2-.2c1.7.3.8.5 1 .8h1.2V31h-.9l.1-.2-.6-.4.2-.1q1 0 1.7-.2m-41.7-17.4 1 .2h.6v-.3h.8l.2.2h.4l-.3-.2h4.3l.3.2 2.3-.3 10.7-.1-4 .5-1.2.1H311c-.5 0-.3-.3-.9-.2h-2.7l-.3.4h-2.9q-.2-.1-.4 0l-.8-.1-.6.2h-.7l-.2-.2H300l-.5.2h-.2v-.2l-.5.2-.2-.1v-.5m-265 13.7h-.2zl.5-.2v-.1h-1.2l.9-.1.6.1v.2zm-.3 2.3h-.4zM55.4 50q-.2 0-.3-.2l.6-.1h.2-.2zm1.3 0-.3-.2h-.2.5l.2.2h.1zm1.3.1h-.2V50h.6v.2zm1-.1-.1-.1h.4-.3m1.5-.1h-.3l1-.2.5-.2q.3 0 .5.3zm4 0h-.3v-.3h.1l.5.1h.4zm255.6 7.8-4 .5h-1.5l-.7.1h-1.7c-.5 0-.3-.3-.9-.3l-.4.1h-2.3l-.3.4h-2.6l-.3-.1h-1.2l-.6.2h-.7l-.2-.3h-.2l-.1.2-.6-.1h-.6l-.6.2-.1-.2-.5.1h-.2V58l1 .1h.6V58h.8l.2.2h.4l-.3-.2h4.3l.3.2 2.3-.3zm-.9-23c-1-.1-3 0-4.1.1h-.7l-.3-.2h.5q.2 0 .3-.2l7.7-.1zm4.2-1-.1.2-.3-.1z"/><path fill="#fc6b7e" d="M478.4 30.1q-1.3-.2-2.7-.2l-.1-.1-.3.1h-1l.1-.3q0-.3-.5-.4l-.6.2h-.2l.2-.3h-.2q-1.4 0-2.5.2l-.6.2h-.6l-1-.4c-.8-.1-3.2.1-4.5-.2q-.5 0-.4-.2c.8-.4 2.9-.2 3.9-.5l-1.7-.5.1-.1 1-.1h.9q-.6 0-1-.2 1.5 0 2.7-.2h-2.3q-.7 0-1-.2h-.2l-.6.1-1.8-.2h2.3v-.1q-.4-.3-1-.4l.4-.2 1.4-.1H465l-.7-.1h-2.1v-.2l-.5.1h-1l.2-.1 1.1-.4h-1.2l-.2-.4-.3-.3.8-.2q.1-.2-.4-.3h-.4V24l4.4-.3h-4.9l-.2-.2h-.1v.1h-.6l-.2-.2 5.2-.2h2.2l1.3-.2-.7-.2h-2.9l7.2-.5-7.4-.1-4.2-.2h.3l-.7-.2c.3-.2 2.4-.2 3-.3 1 0 3.2-.2 3.6-.5v-.1l-4.5-.3h-1l-.3-.2.6-.1-.7-.2-2.5-.4 1.2-.1q-.5 0-1.1-.3.2 0 0-.2c-.7-.2-1.9-.1-2.7-.2l-1.9-.3 1-.4h.5l.2-.1c-.2-.2-1-.2-1.5-.3v-.1c1.5-.4 2.7 0 4.2-.2l-.1-.3h.6l.2.2q.4 0 .6-.3H450l-.2-.1h.2l3.7-.3h2.6l2.5-.1h.7l.1-.2c-1.1-.2-2.4.3-3.6-.3h-1.7c.5-.2 1 0 1-.4h.7l-.3.2h.7l.7-.1.8.2h.5q1 0 1.8-.3l-.4-.3h-.3l-.7.2c-.3-.1.1-.2-.3-.2l-.4.1H456l-.5-.1.5-.2c2.4-.1 5.5.2 7.3-.3H462q-.1-.2-.5-.2l-.3.2h-.2l-.3-.3h-.1l-.6.3-1-.1.3-.2h-1.6l.2.1h.8l-.1.2H457h.3l-.3-.2h.3v-.1l-.4-.5q1.2 0 2.3-.2h-.9q-.3-.3-.9-.5h-2.7l1-.2 4.2-.2v-.4h.2l.6-.3h-2.2l.2-.2-.3-.1h-1c.4-.3 1.4-.2 2-.2q.6 0 1-.2h-.2c-1-.4-3.2-.2-4.4 0l-.9-.1h-.3l.2-.1.6-.1q.4-.3.3-.4l2.3-.3-.2-.1.9-.2 2.2.2c1 .1 2.2-.3 3.2 0v.1l.5-.2.9.1h1l-.6-.1v-.1h.8l1-.2.7-.2.4.2c.4-.2 1.6-.7 1.5-1l-.4-.2q.2 0 .3-.2h-.4c.6-.2 1.7-.1 2.4-.1l-.3-.1h.1c1.7.2.7.4 1 .7h1.1V9h-.9l.2-.2-.7-.4h.2l1.8-.3q-1.3-.2-2.7-.2l-.1-.1-.3.1h-1l.1-.3q0-.3-.5-.4l-.6.2h-.2l.2-.3h-.2q-1.4 0-2.5.2l-.6.2h-.6l-1-.4c-.8-.1-3.2.1-4.5-.2q-.5 0-.4-.2c.8-.4 2.9-.2 3.9-.5l-1.7-.5.1-.1 1-.1h.9q-.6 0-1-.2 1.5 0 2.7-.2h-2.3q-.7 0-1-.2h-.2l-.6.1-1.8-.2h2.3v-.1q-.4-.3-1-.4l.4-.2 1.4-.1h-1.7l-.7-.1h-2.1v-.2l-.5.1h-1l.2-.1 1.1-.4H457l-.2-.4-.3-.3.9-.3-.5-.2h-.3l-.8-.6h-.1q.3.3.1.5h-.8v-.3l-.3-.2 5.2-.2h2.2l1.3-.2-.7-.2H460l7.2-.5-7.4-.1-4.6-.2-5.3.4c-2 0-11.6 0-12.6.2l-1 .2-1-.2c-1 0-1.7.4-2.8.3l.3-.3.3-.1h-1.4c-1.4 0-1.6.3-3 0h-.1l.7-.2-.1-.1-1 .2c-.8.2-2.2.4-3.2.3l-.6-.1.5-.1c-1.5-.2-3.2.5-4 .3l-.3-.2q-.7.2-1.7.2l-.1-.2-1.7.1-.4-.3h-.4c-.6.1-1.3.6-1.8.6l-.1-.5q-1-.2-2-.1-.5.3-1.1.3c-.7-.1-1.8-.3-2.5-.2l-.5.2-.6-.4h-.5l-.6.3-.8.2h-.2q-.2-.4-.7-.5h-1.2q-1 .4-2.3.6l.2-.4h-.2l-1.2.1-.4-.2h-7.4l-3-.1-1.3.1h-.3l-2-.1q-3.1 0-6.3.4l-5-.4q-.5.5-1.9.8h-1.2q-.7-.4-1.9-.6c-.9.2-1 .7-2.2.6h-.3l.2-.2h-.2l-1 .3-.2-.1q.5-.2.5-.5l-.6.3h-.3l.2-.3h-.3l-.1.2h-.3l-.4-.2c-1.4 0-2 .8-3.6.4l.4-.2-.6-.7H359q-1.1 0-2 .5l-.6.3-.1.2q-.1-.3-.6-.4h-.5v.1q.4 0 .5.3h-.2l-.6-.2q-.3.2-.2.3h-.2l-.9-.3h-.2l-.1.2q-1-.5-2.6-.7l-1.5.1c-.3.4.5.5-.5.7-.4 0-.2-.3-.6-.3q.1.2-.1.5-.5 0-.7-.3l-.2.3h-.2v-.1l-.1-.3-1.2.6-.4-.2V.9h-.3l-.1.4h-.2l-.3-.3c-.3.1-.2.4-.6.5v-.2l-.6.2-.8-.4h-.1l-.2.2c-.8 0-1.4-.4-2.3-.3-.4.2-.3.5-.8.6h-3.6l-2.1-.1q-.8 0-1.4.2c0-.3.7-.3 0-.7h-.8c-.4.3 0 .7-.6 1h-.3l-.3-.3h-1.7v-.2c-.5-.1-11.4.2-13.3.2l-4-.1H305q-8.7-.1-17.4.2h-14.5q-7.5.2-14.9.1c-2.4 0-13.5-.4-15-.2l-.8.2h-.3v-.2c-1.6-.1-3.2.2-4.9 0l-1.7.1c-.9.2-1.8-.2-3 0l.4.1c-1.5 0-2.7-.4-3.8-.3q.3.2 1 .3l-2.4-.1 1.2-.2h-1.3l-.4.3c-.7 0-2.2 0-2.7.2v.2q-.3 0-.5-.2l.6-.4-.3-.2h-.1l-.5.4-.5-.1h-.7q-.1-.3-.5-.4h-1l-.1.2h.4l-.3.2h-.3v-.2h-.1l-.3.3h-.2v-.1l-.2-.3h-.3l-.1.1-.3.2-.7-.1c0-.3-.8-.5-1.1-.8h-.2q0 .2.4.5h-.3l-1.1-.2h.1l.4.2-.2.1h-.2l-.3-.3-.7.1.4.1v.1l-.2.2h-.3.8l-.8.1H212l-.2-.3h-.5l.2.3h-.3l-.3-.2q-.4 0-.7.2h-.3v-.2q0-.3-.6-.6h-.3l-1.2-.3-.1.2c.7.2.8 0 1.5.4v.2h-.4q-.1-.2-.5-.2h-.3v.2l-.1.1-.4-.3h-1a58 58 0 0 0-9 0l-.6-.2V.9l-1 .2h-3q-.4.1-.6.4h-.8l-.7.1-.1-.1h-1.8l-1.6-.2-3.4-.1-.2-.1 2-.1h-1.9c-1-.2-1.9 0-2.9-.2h-.3l-.2.2q-.1-.2-.5-.2h-.5l-.7.3-.6-.1.3-.1V.8h-.7v.3h-1.2l.5-.3-1-.2V1h-.6V.7h-.1q-.4 0-.8.3h-.1l.3-.3c-1.1-.1-2.6.1-3.6.2h-.3l-.9.2v.2h1l-.1.3h.2l.5-.3h1.8l.3.1-.3.3h.5l-1.2.1h-.4v-.3l-.5.3c-.9 0-1-.1-1.6-.3v.2h-2.4l-.3.1V2q1.2 0 2.1.2c1.4.3 4 0 5.3.3l.2.5-.9.1h-.2.2l.5-.2v-.1h-.3c-.8 0-1-.1-2 .1l-1.2.2h-.2l.1.2h.3q1.3 0 2.4.2v.1h4.9q4.3 0 8.6.3h3.1l1.6.1 9 .3h4q0 .2-.2.3l-1.2-.1-2.1.2-1.5-.1h-3.5l-.4.2h-.2l-.2-.2h-.2l-.2.3h-.5v-.3h-.7l-.2.2h-.3l-.3-.2h-.6q-.3 0-.3.2c-.5 0-.2-.3-.7-.2l-.2.2-.4-.3-.2.4h-.4v-.3h-.3q-.4.3-1 .3h-.2l-.3-.3h-.3v.3l-1-.3h-.1v.2h-1.5l-.8-.1-.1-.1h-.5l-.2.2h-.3l-.3-.2-.5.2h-.8v-.2c-1.3-.2-4-.2-5.2 0l-1-.2h-2.2l-.2.1.5.3-1.9.2c.5.3 1.5.3 2.1.5-.9 0-.5-.2-1.4 0q.7.3 1.6.1v-.3c1 .2 1 .5 2.1.4h.9v.1l-1.3.1 1.5.5q-1 .2-2.2.1h-.6l.2.2-.7.2h-.5l.6-.3-.9-.2-1.3.1h-4.8v.1l-.1.4h-.6l.6-.2-.4-.1h-1.2l-.9.2V7h.8q0 .3-.6.3l-1.2.2-1-.2q.2.3.8.5h.2l.5-.1 1.2.3c-.6.2-1.6.3-1.8.6.6.2 2 .3 2.9.3h.4l.2-.1h.4q-.4.3-1 .3l3-.1h.2v.2h-2.5l-.2.1h1.2q1.5 0 2.8.3c-1.8.3-4.5-.5-6 0l.4.1h3.2l-.1.1-.3.1.2.1h.2-2.5.8v-.1q-.8 0-1.4.2h.1l4 .4 1.1.2h.8l.2.1q0 .2-.4.3h-.2l-.4-.1h-1l-.7.4-1-.1H167c.9.3 2.2.1 3.1.4-.9.3-2.8 0-3.2.6 1.2.4 7.7-.4 8.6.5H173q-3.2.1-6.4 0c-1.6 0-3.4-.6-4.9-.4.4.2 2 .5 2.8.6q.4.1.5.4h-1l1 .4.6.1q-.4.4-.3.7l1.4.4v.2c-2 .5-7.6.1-8.8.5 2 .4 5.3-.1 7.6.7 1.7 0 4.5 0 6 .3l.2.2h1l-1.2.1q-1.3 0-2.7.3c-.9 0-1.4-.3-2.5-.1 1 .2 2.5.1 3.1.4l-.6.1c0 .2 1 .5 1 .7-.8.3-1.9 0-2.7.2q.1.4-.4.5h-1.2c-1 0-1.5-.2-2.6-.3h-5l-.3.2.3.2c.4 0 1.2.1 1.3.3 0 .3.8.5 1.3.6v.2c-.2 0-.8 0-.9.2h1.1q-.3.2-.1.3h-.2l-.6.1.5.1c.6.2.6.6 1.6.6h.5l1 .1-1.5.2q.3.2 1 .3l.6-.1.7-.1q.7 0 1.2.3h.2l.5-.1h.2l1.6.1h.3l-.2.1h-1.2l.2.2h.3l-2.4.4 2 .1h-.3l-.4.1.4.2v.1q-1.3.2-2.8.2l-.3-.1-.1-.2h-.3c-.2.1.2.2-.2.4h-.3q-.2 0 0-.2h-.4v.2c-1.2.2-1.7-.2-2.7.3l.7.1v.1c-1.3.1-5.6-.4-6.1-.2 1.1.2 6.2.4 6.7.6.7.2 2.3 0 2.5.3h-.8l.2.1h.5l1.2-.2.4-.2q1.1 0 1.9.2l.9.3h-2.4l-.3.1v.1q1.2 0 2.1.2l1.2.1v.1c1 .2 1.4.1 2.2.4l-.5.1-1.3.2h-.2l.1.2h.3q1.3 0 2.4.2v.1h4.8c.5.3 1.5.3 2.1.5-.9 0-.5-.2-1.4 0q.7.3 1.6.1v-.3c1 .2 1 .5 2.1.3h.9v.2l-1.3.1.8.3h-1.1V28c-1.3-.2-4-.2-5.2 0l-1-.2h-2.2l-.2.1.5.3-1.9.2q.3.2 1 .3h-1.1l-.9.2v.1h.8q0 .3-.6.3l-1.2.2-1-.2q.2.3.8.5h.2l.5-.1.9.3-2.1-.2h-1.8v.2h-.2l-.1.4h-.6l.6-.2-.4-.1h-1.2l-.9.2v.1h.8q0 .3-.6.3l-1.2.2-1-.2q.2.3.8.5h.2l.5-.1 1.2.3c-.6.2-1.6.3-1.8.6.6.2 2 .3 2.9.3h.4l.2-.1h.4l-1 .3 3-.1h.2v.2h-2.5l-.2.1h1.2q1.5 0 2.8.3c-1.8.3-4.5-.5-6 0l.4.1h3.2l-.1.1-.3.1h.2l.2.2h-2.5q.4-.2.8-.1v-.1l-1.5.2h.2q2 .3 4 .3l1.1.3h.8l.2.1q0 .2-.4.3h-.2l-.5-.1h-2.8l1.2.3h-2.2c.9.3 2.2.1 3.1.3-.9.4-2.8.1-3.2.7h4.4l.6.2-.3.4h-5c-1.6 0-3.4-.7-4.9-.6.4.3 2 .6 2.7.7q.5.1.6.4l-1-.1 1.5.6v.3l-1.3.1 1 .2v.1l1.5.4v.2c-2 .5-7.6.1-8.8.5 2 .4 5.3-.1 7.6.7 1.7 0 4.5-.1 6 .3l.2.2h1l-1.2.1-2.7.2c-.9.1-1.4-.2-2.5 0l2.4.2h-4.5l-.3.2.3.2c.4 0 1.2.1 1.3.3 0 .3.8.5 1.3.6v.2c-.2 0-.8 0-.9.2h.8-1.2c-1 0-1.5-.2-2.6-.3h-5l-.3.2.3.2c.4 0 1.2.1 1.3.3 0 .3.8.5 1.3.6v.2l-.9.1h.2l.9.1q-.3.2-.1.3h-.2l-.6.1.5.1c.6.2.6.6 1.6.5h.5q.6 0 1 .2l-1.5.2 1 .3.6-.1.7-.1q.7 0 1.2.3h.2l.5-.1h.2l1.6.1h.3l-.2.1h-.8q-.7 0-1.4.3h.6l-1 .2c-1.8 0-4.6-.4-5-.2 1 .2 4.6.3 6 .5h-.2l.4.2v.1q-1.3.3-2.8.2l-.3-.1-.1-.2h-.3c-.2.1.2.2-.2.4h-.3q-.2 0 0-.2h-.4v.2c-1.2.2-1.7-.2-2.7.3l.7.1c-1.3.2-5.6-.3-6.1-.1 1.1.2 6.2.4 6.7.6.7.2 2.3 0 2.5.3h-.8l.2.1h.5l1.2-.2.4-.2q1.1 0 1.9.2c.8.2 1 .4 2.1.6-.1.2-.7.1-.6.3 1.1.2 1.4.1 2.3.5h.2l1.1-.2q.5 0 .8.2 0 .2.3.3h.5c.2.2-.4.3-.2.5h.5l.4-.4c.9-.4 2.1-.2 3.5-.9h2.6l.8-.2h1.2l.9.1h.2V49h.5l1.6.3h.6c-.2.2-.6.1-.3.4l.4.2h.3q.7-.5 1.6-.7h1.5q0 .3.4.6h.3l.2-.2c.8 0 2-.2 2.7 0q.4 0 .6.3l1-.2h.3l.1.1.3.2-.2.2-.4-.3-.2.4h-.4V50h-.3q-.3.3-1 .3h-.2l-.3-.3h-.3q-.2 0 0 .2-.7 0-1-.3h-.1v.3H187q-.6 0-.8-.2h-.6l-.2.2h-.3l-.3-.2-.5.2h-.8V50c-1.3-.2-4-.2-5.2 0l-1-.2h-2.4l.5.4c-.7.2-1.2 0-1.9.2.5.3 1.5.3 2.1.4l-1.4.1q.7.2 1.6.1v-.3c1 .2 1 .5 2.1.3h.9v.2h-1.3c.3.3 1.4.4 1.5.6h-2.2l-.5.1h-.1l.2.2-.7.1h-.5l.6-.2-.9-.2-1.3.1h-4.8v.1l-.1.4h-.6l.6-.2-.4-.1h-1.2l-.9.2v.1h.8q0 .2-.6.3l-1.2.2-1-.2q.2.3.8.5h.2l.5-.1 1.2.3c-.6.2-1.6.3-1.8.6l2.9.3h.4l.2-.1h.4l-1 .3 3-.1h.2v.2h-2.7l1.2.1q1.5 0 2.8.3c-1.8.3-4.5-.5-6-.1l.4.2h3.2l-.1.1-.3.1h.2l.2.1h-2.5.8v-.1l-1.5.1h.2q2 .4 4 .4l1.1.3h1q0 .3-.4.4h-.2l-.4-.1h-1l-.7.4-1-.2-1 .1h-.2c.9.3 2.2.1 3.1.3-.9.4-2.8.1-3.2.6 1.2.4 7.7-.3 8.6.6h-8.9c-1.6 0-3.4-.6-4.9-.5.4.3 2 .6 2.7.7q.5.1.6.4l-1-.1 1 .4.6.2q-.4.3-.3.7l1.4.4v.2c-2 .5-7.6.1-8.8.5 2 .4 5.3-.1 7.6.7 1.7 0 4.5-.1 6 .3l.2.2h1l-1.2.1-2.7.2c-.9 0-1.4-.2-2.5 0 1 .2 2.5.1 3.1.4h-.6c0 .3 1 .5 1 .8-.8.3-1.9 0-2.7.2q.1.3-.4.5h-1.2c-1 0-1.5-.2-2.6-.3h-5l-.3.2.3.2c.4 0 1.2.1 1.3.3 0 .3.8.5 1.3.6v.1l-.9.2h.2l.9.1q-.3 0-.1.3h-.2l-.6.1.5.1c.6.2.6.6 1.6.5h.5q.6 0 1 .2l-1.5.2 1 .2h.6l.7-.1q.7 0 1.2.3h.2l.5-.1h.2l1.6.1h.3l-.2.1h-1.2l.2.1h.3c-.6.3-1.7.3-2.4.5h2l-.3.1-.4.1.4.2v.1q-1.3.3-2.8.2l-.3-.1-.1-.2h-.3c-.2.1.2.2-.2.4h-.3q-.2 0 0-.2h-.4v.2c-1.2.2-1.7-.2-2.7.3h.7v.2c-1.3.1-5.6-.5-6.2-.3 1.2.3 6.3.5 6.8.6.7.3 2.3 0 2.5.4h-.8l.2.1h.5l1.2-.2.4-.3q1.1 0 1.9.3c.8.2 1 .4 2.1.6-.1.1-.7.1-.6.3 1.1.2 1.4.1 2.3.5l1.3-.2q.5 0 .8.2l.3.3h.5c.2.2-.4.3-.2.5h.5l.4-.4c.9-.4 2.1-.2 3.5-.9h2.6c.9 0 .8-.4 1.5-.5l.5.1v.3h1.1l-.4-.2h.9v.2h.1q.8 0 1.5.2h.6c-.2.2-.6.1-.3.4l.4.2h.3c.6-.3 1-.8 2.1-.8q.6 0 1 .2l.4.5h.3l.2-.2c.8 0 2-.2 2.7 0q.4 0 .6.3l1-.2h.3l.1.1.4.2.8-.1q.3 0 .3.2l.3-.2h.4l.2.3c.8 0 4-.1 4.3-.3l.6-.2c.7.3.7 1 1 1.4l1.3-.7q.3-.3.1-.6h.2l.4.1 1 .1-.1.3h.8l.4-.2.9.2h.3v-.4h.2l.2.4h.2q.5 0 .8-.3.7 0 1.1.3l.1-.3q.8 0 1.4.3h.2q.5 0 .7-.2h.3l.9.1.5-.1h.4q.4 0 .6-.3h1l.7.2h.2l-.1-.3.7.2h.1q.7-.3 1.5-.3l.6.1-.5.5.2.1h.2V72h.2l.2.1q.3 0 .5-.2l.8.3.5-.1q.2-.4 0-.6l.6.2h.4l.4-.2q0 .2.5.4h.2l.2-.3.3.1.2.3q.4.2.9.1.6 0 1-.2h2.6v-.4l-.4.2q-.2 0-.2-.3h1.6l.4.1-.8.3h1.9l.5.1h.3l-.9-.3q.2-.2.7-.2l1 .1h.1l-.7.2.3.2 1.2.3.2-.1.3-.2 3 .1 1.8-.1 1 .3.3-.1h.2q0 .2-.3.3-.7.3-.3.7h.6q.4.1.5.4l-.1.1-.2.1.4.2.5-.3.5-.3-.3-.5c-.3.1-.1.4-.2.5h-.1q-.4-.2-.2-.5l.4-.4-.7-.3V72h.9l1.1-.1.8-.1h.2l1 .1q.8.1.8.4v.5l.5.2c.2-.3-.5-.4.4-.6q1.3.4 2.8.4c.8-.3 1.1-.7 2-1l.9.2h.1l1.4-.1c.8.2.4 1 1.1 1.4.7-.4-.1-1 1-1.4h.3l.5.5c.3-.2.2-.3.7-.5q.7 0 1.2.2.7.1.9.6h.3l.4-.2 2.2.2h-.1l-.1.3h1.2q.7 0 1.3.3l.7-.3.1.2h.4q.4-.1.4-.4h.3c.3.2-.1.3.3.4l.5-.1-.3-.2h.3q.4 0 .8.3c.2-.3-.3-.7.2-.9h.5l.5.1h2.3q.8 0 1 .4l.2.4h.2l1.3-1h.5v.2q.1.3.5.5h.3l1-.3h2.6l.5.3h.1l.4-.1c.3.3 0 .9.8 1h.2l-.3-.2h.2q.5 0 .5.2l-.6.2h-.8v.1h1.2l.6.2.3-.3.4.2.5-.2q1.1-.6 3-.7.9 0 1.4.2l.2-.2q.6.4.6.7t-.2.2h-1q.6.3 1.6.3.3 0 .5-.2v-.5h.6q.5-.4 1.5-.5h.3v.5l.2.2h.2l.1-.1.3-.1h1q.4.3 1 .4.7 0 1-.2 0-.2.2-.3h.2l.3.1c.6 0 .4-.3 1-.2l.6.3h.2q0-.3-.3-.4h.1l1.1.6 1.5.1-.6-.2h1.1l.6-.1q0-.2-.6-.3l.4-.1v-.3h.3q.4.3.5.6h.8v.5h.9v-.1h-.5q0-.2.4-.3l.3.1 1 .1 1-.5h.2l.1.2h.1l.8-.2q-.2.2-.1.3l.9-.4.4.1q.4.2.3.5h.8l.1-.1 1.4-.3-.2.4q.6-.2.7-.5h.2q.4.2.1.6l.4-.2.3.1h.3V74l.1-.1.1.2h.2l.8-.4h1.3l1-.3 3 .7 1-.3-.5-.1h2.5l.1.4h.4l.3-.7.2-.1 1 .5 1 .2 1.2-.3.5-.2 1.2.2.7.2q-.1-.2.4-.5h.7v.4h.2l.6-.3h.3c.6 0 .2-.1.6-.2l.5.2.4-.2h.6l.3-.4q.8 0 1.6.3h.9l.2-.1h.2q.5 0 1 .3c.7 0 0-.4.4-.6q.7.4 1.7.5h.1l-.2-.2.8-.1.7.2q1.3 0 2.5-.2h1.4l.4-.2 4.6.5.1-.1-.5-.2h1.3l.6.1h.3l.2.2h.9c1.4.3 2.4.7 4 .5l.6-.1q-.1-.2-.5-.2l-1.2-.4h-.1l-.5-.4q.2-.2.7-.3c1.6.1 1 1 2.3 1.2h.2l-.1-.2.9-.3c.7 0 .8.1 1.3.3l.4-.2q.1-.4 1-.6l.1.1q-.4.2-.4.4h.8q.1.2-.1.3l-.6-.1-1.2.2 1.8.2h.2l.2-.1h.1l.2.2h.3l.4-.2 1.4-.1q.5 0 .6-.3t.4-.3h.5q0 .4-.3.7l7.8.4q.6.1.5.4h.6q.8-.3.9-.8-.4 0-.9.3c-.7-.5-.8-.2-1.8-.3v-.1h.4q1 0 2-.3h1.4l.2-.2h.2v.3q.7.1 1 .4l-.3.3H380l.8.2-.4.4h.3c1.3 0 .8-.2 1.6-.4q0 .3.2.5c1 0 1.4-.2 2.3-.3h.2l-.1-.1h-.7v-.1h.2q.8-.2.9-.5.5-.2 1-.1l.8.7h1.4l-.6-.2h.6l.1-.1-.5-.2-.2-.1h1v-.2h-1 .1q.5-.2 1.1-.2h.5l.1-.3.1.2h.5l.2-.2h.8v-.2h-2l-.2.3h-.3l-.4-.1q-.5 0-.9.2h-.2l-.1-.3q-.5.1-.5.4l-1-.4h-.2q.5-.3 1.3-.5c-1.3 0-1.3.6-3 .3 1-.2 1 0 2-.4h.8l.3-.2c.9 0 1-.2 2 0v.2h-.7v.1h1.1l-.6.3h.6c1.2-.2.8-.4 2.6-.4q1.4 0 2.5.2.2.2-.1.4l-1 .2q-.4 0-.4-.3h-.2l-.7.1v.5l.8-.1-.2.3q.1.2.6.2l.7-.1h.3l.2.3h.4l-.1-.2h.8l.2-.1q-.6-.4-1.4-.6.1-.2.6-.2l1.3.1q-.1-.2.2-.4h1q.6 0 .9.2l-.4.2.4.3h.2c.4-.2.2-.4.6-.6h.9l-.6.3v.2l.8.2h.6-.1l-.2-.3h.5l.4.1q0-.3.9-.5l1.8.3-.3-.2 1-.2 1 .2.7.4-.4.2.4.1v.1h-1l.3.3h.8l1.3.5v.3h.2l.4-.1-.2-.3q0-.2.4-.3h1.3l-.2-.2c.3-.2 1.2-.4 1.7-.5q0-.2.2-.3l.5.2c.6-.1.6-.5 1.2-.7h1.5l.2.1q-.5.1-.7.4h.7q0 .2-.2.3h.7c1 .3 1.4.1 2.6 0l.3.2.5-.1q.4-.3 1.2-.5h.3c-.1.2-.8.3-.9.5.9-.2 1.1.1 1.9 0q.3-.2.1-.4-.3-.2-.9-.2l.5-.2q.8-.2 1-.6h.1l.8.1q0 .2-.3.4h.6l.4-.2h.1l1.6-.2v.2l-1.3.3h-.3.7c1 0 .7-.3 1.5-.5l.8.1q-.4-.3-1.2-.3v-.2h.4l.2-.4 1-.2c.7.2.6.6 1.3.8h.9l.3-.1q.4-.3 1.5-.4-.4.3-.3.4h.3l.2-.1q.3 0 .4.2.2-.2 0-.5h1.2l1-.2-.4.3h.2c1 .1 1.3-.2 2-.3l-.4.2h.2q.4 0 .6-.2h.3l.2.2h1.1q.4 0 .5-.3h.2q.3.4.8.6l.6.2q1 0 1.4-.4l1.6-.3h.3l-.3-.1.2-.1q.6 0 1 .2l3-.3h.7q.4.2.3.4v.1q0 .3.6.4 2.4 0 4.8-.4l-2.5-.1v-.1l.2-.1q.8 0 1.5-.2.4 0 .4-.3l-.4-.2.6-.1-.5-.2h-.2l1.6-.2-.2-.2c0-.2 1.1-.4 1.5-.5l-.3-.1h-1l-5-.3h-.3c1-.3 3-.3 4.3-.3l.6.2c.7 0 1-.4 1.9-.5v.1h-.5l-.4.4 1.2-.3h1.3l.2-.2h-.8q.2-.2.6-.2h.8l1-.1.9-.1.2.1q.4 0 .7-.3l-.8-.1.7-.2-.7-.1c.3-.2 2.4-.2 3-.3 1 0 3.2-.3 3.6-.6-1.5 0-4-.4-4.5-.3h-1l-.3-.2.6-.1-.7-.2-2.5-.4 1.2-.1-1.1-.3q.2 0 0-.2c-.7-.2-1.9-.2-2.7-.2l-1.9-.4 1-.4h.7c-.2-.2-1-.2-1.5-.3V63c1.5-.4 2.7 0 4.2-.3l-.1-.2h.6l.2.2q.4 0 .6-.3h-.2l-.5-.1H451l.2-.1 3.7-.2h2.6l2.5-.1h.7l.1-.2c-1.1-.2-2.4.3-3.6-.3h-1.7c.5-.2 1 0 1-.4h.7l-.3.2h.7l.7-.1q.5 0 .8.2h.5l1.8-.3-.4-.3h-.3l-.7.2c-.3-.1.1-.2-.3-.2l-.4.1h-.9l-1.2-.1h-.5l.5-.2c2.4-.2 5.5.2 7.3-.3h-1.3l-.5-.3-.3.2h-.2l-.3-.2h-.1l-.6.3-1-.1.3-.2H459l.2.1h.8l-.1.2h-1.6.3l-.3-.2h.3v-.2l-.4-.4q1.2 0 2.3-.2l-.9-.1-.9-.4H456l1-.2c1.3-.2 2.9 0 4.2-.2V58h.2l.6-.3h-2.2l.2-.2-.3-.1h-.3l-.7-.1c.4-.2 1.4-.1 2-.1q.6 0 1-.2h-.2c-1-.4-3.2-.2-4.4-.1h-1.2l.2-.1.6-.2q.5 0 .3-.4l2.3-.2-.2-.1.9-.2c1-.1 1.4.2 2.2.2 1 .1 2.2-.3 3.2-.1v.2l.5-.2.9.1h1l-.6-.2h.8l1-.2.7-.2.4.1c.4-.1 1.6-.6 1.5-.8l-.4-.3.3-.2h-.4c.6-.2 1.7-.1 2.4-.1l-.3-.2h.1c1.7.3.7.5 1 .8h1.1v-.2h-.9l.2-.2-.7-.4.2-.1q1 0 1.8-.2-1.3-.2-2.7-.2l-.1-.1h-.3q-.4.3-.8.2l-.2-.2.1-.2q0-.2-.5-.5l-.6.3h-.2l.2-.3h-.2q-1.4 0-2.5.2l-.6.1h-.6l-1-.3c-.8-.1-3.2.1-4.5-.2q-.5 0-.4-.2c.8-.5 2.9-.2 3.9-.5q-1-.1-1.7-.6h.1l1-.1h.9q-.6 0-1-.2 1.5 0 2.7-.2h-2.3q-.7 0-1-.2h-.2l-.6.1-1.8-.2h2.3V50l-1-.5h.4l1.4-.2-1.7-.1h-2.8V49h-.5q-.4.3-1 .2v-.1l.2-.1 1.1-.4h-1.2l-.2-.4-.3-.3.9-.3q0-.2-.5-.3h-.3l-.8-.5h-.1q.4.3.1.5h-.2l-.4-.1V47l-.3-.2 5.2-.2h2.2l1.3-.2-.7-.2h-2.9l7.2-.5-7.4-.1-4.2-.2.3-.1h-.4l.7-.3h.4q-.4 0-.4.3l1.2-.2 1.3-.2h.2c.8-.1 2-.2 2.6-.4.5 0 .5 0 .8-.3h-.8l.7-.3-.7-.1c.3-.2 2.4-.2 3-.3 1 0 3.2-.3 3.6-.5v-.1c-1.5 0-4-.4-4.5-.3h-1l-.3-.2.6-.1-.7-.2-2.5-.4 1.2-.1q-.5 0-1.1-.3.2 0 0-.2c-.7-.2-1.9-.2-2.7-.2l-1.9-.3 1-.5h.7l-1.1-.3h-.4v-.1c1.5-.4 2.7 0 4.2-.3l-.1-.2h.6l.2.2q.4 0 .6-.3h-.2l-.5-.1h-3.9l-.3-.2h-.3l-.7.2c-.3-.1.1-.2-.3-.2l-.4.1h-.8l2.7-.2h2.6l2.5-.1h.7l.1-.2q-1.4-.2-2.7 0v-.2h-.4l-.5-.1h-1.5c.4-.2.8 0 .7-.4h.8l-.3.2h.7l.7-.1.8.2h.5l1.8-.3-.4-.3h-.3l-.7.2c-.3-.1.1-.2-.3-.2l-.4.1h-.9l-1.2-.1h-.5l.5-.2c2.4-.2 5.5.2 7.3-.3h-1.3l-.5-.3-.3.2h-.2l-.3-.2h-.1l-.6.3-1-.1.3-.2h-1.6l.2.1h.8l-.1.2h-1.6.3l-.3-.2h.3v-.1l-.4-.5q1.2 0 2.3-.2h-.9q-.3-.3-.9-.5h-2.7l1-.2c1.3-.2 2.9 0 4.2-.2v-.4h.2l.6-.3h-2.2l.2-.2-.3-.1h-.5l.4-.2.9.1h1l-.5-.1q.5 0 .8-.2l.9-.1.7-.2.4.2c.4-.2 1.6-.7 1.5-1l-.4-.1h.5v.2l.5-.2.9.1h1l-.6-.2h.8v.3h1.1v-.2h-.9l.2-.2.6-.1.7-.2.4.2c.4-.2 1.6-.7 1.5-1l-.4-.2.3-.2h-.4c.6-.2 1.7-.1 2.4-.1l-.3-.2h.1c1.7.3.7.5 1 .8h1.1V31h-.9l.2-.2-.7-.4.2-.1q1 0 1.8-.2m-41.7-17.4 1 .2h.5v-.3h.8l.2.2h.4l-.2-.2h4.3l.2.2 2.3-.3 10.7-.1-3.9.5-1.2.1H449c-.5 0-.3-.3-.8-.2h-2.7l-.3.4h-2.9q-.3-.1-.4 0l-.9-.1-.5.2h-.7l-.2-.2H438l-.5.2h-.1v-.2l-.6.2-.2-.1v-.5m-265 13.7h-.3l.7-.2v-.1h-1l.8-.1.6.1.1.2zm-.4 2.3h-.4zM193.6 50q-.4 0-.4-.2l.6-.1h.3-.2zm1.2 0-.3-.2h-.2.5l.2.2h.2zm1.4.1h-.2V50h.6l-.1.2zm1-.1-.2-.1h.5-.4m1.4-.1h-.2l1-.2.5-.2q.3 0 .4.3zm4 0h-.2v-.3l.5.1h.4zm255.6 7.8-3.9.5h-1.5l-.8.1h-1.7c-.5 0-.3-.3-.8-.3l-.5.1h-2.2q-.3.1-.3.4h-2.6l-.3-.1h-1.3l-.5.2h-.7l-.2-.3h-.3v.2l-.7-.1h-.6l-.5.2h-.1v-.2l-.6.1h-.2V58l1 .1h.6V58h.8l.2.2h.4l-.2-.2h4.3l.2.2 2.3-.3zm-.8-23c-1.1-.1-3 0-4.2.1h-.6q-.2 0-.3-.2h.5l.2-.2 7.7-.1zm4.1-1v.2l-.4-.1z"/><path fill="#fc6b7e" d="M555.7 30.1q-1.3-.2-2.7-.2v-.1l-.4.1h-1l.1-.3q0-.3-.5-.4l-.6.2h-.2l.2-.3h-.2q-1.3 0-2.5.2l-.5.2h-.7l-1-.4c-.7-.1-3.1.1-4.5-.2q-.3 0-.4-.2c.8-.4 2.9-.2 3.9-.5q-1-.2-1.6-.5v-.1l1-.1h.9q-.6 0-1-.2 1.5 0 2.8-.2h-2.4q-.7 0-1-.2h-.1l-.6.1q-1 0-1.8-.2h2.2v-.1q-.4-.3-1-.4l.5-.2 1.4-.1h-1.8l-.7-.1h-2l-.2-.2-.4.1h-.9l.1-.1 1.1-.4H538l-.1-.4-.4-.3.8-.2h.1q0-.2-.5-.3h-.3l-.1-.1 4.4-.3H537l-.2-.2h-.2v.1h-.5l-.3-.2 5.2-.2h2.2l1.3-.2-.6-.2h-3l7.2-.5-7.3-.1-4.3-.2h.3l-.7-.2c.4-.2 2.5-.2 3-.3 1 0 3.2-.2 3.7-.5l-.1-.1-4.5-.3h-1l-.2-.2.6-.1-.8-.2-2.5-.4 1.3-.1q-.7 0-1.2-.3l.1-.2c-.8-.2-2-.1-2.8-.2l-1.8-.3.8-.4h.6l.2-.1c-.2-.2-1-.2-1.4-.3v-.1c1.4-.4 2.6 0 4.1-.2v-.3h.5l.3.2q.3 0 .5-.3h-8.4l-.2-.1h.3l3.7-.3h2.5l2.5-.1h.7l.2-.2c-1.2-.2-2.4.3-3.7-.3h-1.7c.5-.2 1 0 1-.4h.7l-.2.2h.7l.6-.1.8.2h.5q1 0 1.8-.3l-.4-.3h-.3l-.7.2c-.2-.1.1-.2-.3-.2l-.4.1h-2.1l-.4-.1.5-.2c2.3-.1 5.5.2 7.2-.3h-1.2l-.6-.2-.3.2h-.2l-.3-.3-.7.3-.9-.1.2-.2H535l.2.1h.8l-.1.2h-1.6.3l-.2-.2h.2v-.1q0-.2-.4-.5c.7 0 1.8 0 2.4-.2h-1q-.3-.3-.9-.5H532l1-.2c1.3-.2 3 0 4.2-.2v-.4h.2l.6-.3h-2.2l.3-.2-.4-.1h-.9q.8-.3 2-.2l1-.2h-.3c-1-.4-3.2-.2-4.3 0l-1-.1h-.3l.2-.1.6-.1q.4-.3.3-.4l2.3-.3-.2-.1.9-.2 2.3.2c1 .1 2.1-.3 3.2 0h-.2l.2.1.4-.2.9.1h1l-.6-.1v-.1h.8l1-.2.7-.2.5.2c.3-.2 1.6-.7 1.4-1L547 9l.4-.2h-.5c.6-.2 1.7-.1 2.4-.1l-.3-.1h.1c1.7.2.7.4 1 .7h1.1V9h-.9l.2-.2-.6-.4h.2l1.7-.3q-1.3-.2-2.7-.2v-.1l-.4.1h-1l.1-.3q0-.3-.5-.4l-.6.2h-.2l.2-.3h-.2q-1.3 0-2.5.2l-.5.2h-.7l-1-.4c-.7-.1-3.1.1-4.5-.2q-.4 0-.4-.2c.8-.4 2.9-.2 3.9-.5q-1-.2-1.6-.5v-.1l1-.1h.9q-.6 0-1-.2 1.5 0 2.8-.2h-2.4q-.7 0-1-.2h-.1l-.6.1q-1 0-1.8-.2h2.2v-.1q-.4-.3-1-.4l.5-.2 1.4-.1h-1.8l-.7-.1h-2l-.2-.2-.4.1h-.9l.1-.1 1.1-.4h-1.2l-.1-.4-.4-.3q.6 0 1-.3l-.6-.2h-.3l-.7-.6h-.2q.3.3.2.5h-.3l-.4-.1v-.3l-.3-.2 5.2-.2h2.2l1.3-.2-.6-.2h-3l7.2-.5-7.3-.1-4.7-.2-5.3.4c-2 0-11.6 0-12.5.2l-1 .2-1-.2c-1 0-1.8.4-2.9.3q0-.2.4-.3l.2-.1h-1.4c-1.4 0-1.6.3-3 0l.6-.2h.1l-.2-.1-.9.2q-1.5.4-3.3.3l-.6-.1.5-.1c-1.5-.2-3.2.5-4 .3l-.2-.2q-.7.2-1.8.2l-.1-.2-1.7.1-.4-.3h-.4c-.6.1-1.3.6-1.8.6l-.1-.5q-.9-.2-2-.1-.5.3-1.1.3-1.2-.2-2.5-.2l-.5.2-.6-.4h-.5l-.5.3-.8.2h-.3q-.2-.4-.7-.5h-1q-1.1.4-2.4.6l.2-.4h-.2l-1.2.1-.4-.2h-7.3l-3.1-.1-1.2.1H463q-3.2 0-6.3.4l-5-.4q-.6.5-2 .8h-1.1q-.8-.4-2-.6c-.9.2-.9.7-2.2.6h-.3l.2-.2h-.2l-1 .3-.2-.1q.4-.2.6-.5l-.7.3h-.2V.6h-.2l-.1.2h-.3l-.4-.2c-1.4 0-2 .8-3.6.4l.4-.2-.6-.7h-1.6q-1.1 0-2 .5l-.6.3-.1.2q-.1-.3-.6-.4h-.5v.1q.4 0 .5.3h-.2l-.6-.2-.2.3h-.2l-.8-.3h-.2q0 .2-.2.2-1-.5-2.6-.7l-1.5.1c-.3.4.5.5-.5.7-.4 0-.2-.3-.5-.3l-.2.5q-.5 0-.6-.3l-.3.3h-.2v-.1L424 1l-1.2.6-.3-.2-.1-.5h-.2l-.2.4h-.1l-.3-.3c-.4.1-.3.4-.7.5v-.2l-.6.2-.7-.4h-.2l-.2.2c-.8 0-1.4-.4-2.3-.3q-.2.4-.8.6h-3.6l-2.1-.1q-.8 0-1.4.2c0-.3.7-.3 0-.7h-.7c-.5.3-.2.7-.6 1h-.4l-.3-.3h-1.7v-.2c-.5-.1-11.4.2-13.3.2l-4-.1h-5.7q-8.7-.1-17.4.2h-14.5q-7.5.2-14.8.1c-2.4 0-13.6-.4-15-.2l-.9.2h-.3v-.2c-1.5-.1-3.2.2-4.8 0l-1.8.1c-.8.2-1.8-.2-3 0l.4.1c-1.4 0-2.7-.4-3.8-.3l1 .3-2.3-.1 1.1-.2H305q-.2 0-.5.3c-.7 0-2.2 0-2.6.2h-.1l.1.2q-.4 0-.6-.2l.6-.4-.3-.2-.6.4-.4-.1h-.8q-.1-.3-.5-.4h-1l-.1.2h.4l-.3.2h-.2v-.2h-.2l-.2.3h-.3v-.1l-.2-.3h-.3l-.1.1-.3.2-.7-.1c0-.3-.7-.5-1.1-.8h-.2q0 .2.4.5h-.4q-.4-.2-1-.2h.1l.4.2-.2.1h-.2l-.3-.3-.7.1.4.1v.1l-.1.2h-.4.9l-.9.1h-3.1l-.3-.3h-.4l.1.3h-.3l-.2-.2q-.5 0-.8.2h-.3v-.2q0-.3-.6-.6l-.4-.1-1.1-.3-.2.2c.7.2.8 0 1.5.4v.2h-.3q-.1-.2-.6-.2h-.3v.3l-.5-.3h-1a58 58 0 0 0-9 0l-.5-.2-.2-.1-1 .2h-2.9q-.4.1-.5.4h-.9l-.7.1-.1-.1h-1.8l-1.6-.2-3.4-.1-.2-.1 2-.1H261l-2.8-.2h-.4l-.2.2q0-.2-.4-.2h-.5l-.7.3-.6-.1.3-.1-.1-.1h-.7v.3h-1.2l.6-.3-1.1-.2V1h-.6l.1-.2h-.2l-.8.3h-.1l.3-.3-3.6.2h-.3l-.8.2v.2h.9v.3h.1l.5-.3h1.8l.3.1-.3.3h.5l-1.2.1h-.4v-.3l-.5.3c-.9 0-1-.1-1.6-.3l.1.2H245l-.3.1.1.1 2 .2c1.4.3 4 0 5.3.3l.2.5-.8.1h-.3.2l.6-.2v-.1h-.3c-.9 0-1-.1-2 .1l-1.3.2h-.2l.1.2h.3q1.3 0 2.5.2l-.1.1h4.9q4.3 0 8.6.3h3.2l1.5.1 9 .3h4q0 .2-.2.3l-1.2-.1-2.1.2-1.5-.1h-3.5l-.4.2h-.1l-.2-.2h-.3l-.2.3h-.5v-.3h-.7l-.1.2h-.3l-.3-.2h-.7q-.3 0-.3.2c-.5 0-.2-.3-.7-.2l-.2.2-.3-.3-.3.4h-.5l.2-.3h-.4q-.4.3-1 .3h-.2l-.3-.3h-.3v.3l-1-.3h-.1v.2H263l-.8-.1v-.1h-.6l-.1.2h-.3l-.4-.2-.5.2h-.8v-.2c-1.3-.2-4-.2-5.1 0l-1-.2H251l-.1.1.5.3h-.1l-1.8.2c.4.3 1.4.3 2 .5-.8 0-.5-.2-1.4 0q.7.3 1.6.1l.1-.3c1 .2 1 .5 2 .4h.9v.1l-1.3.1 1.5.5q-1 .2-2.2.1h-.5l.2.2-.7.2h-.5q0-.2.5-.3l-.9-.2-1.3.1h-4.8V7h-.7l.6-.2-.3-.1h-1.2l-1 .2V7h.8q0 .3-.6.3l-1.2.2-1-.2q.2.3.8.5h.2l.5-.1 1.2.3c-.6.2-1.6.3-1.8.6.7.2 2 .3 3 .3h.3l.3-.1h.3q-.3.3-1 .3l3-.1h.2v.2h-2.4l-.2.1h1.2c.8 0 2 .1 2.7.3-1.8.3-4.5-.5-6 0l.4.1h3.3l-.2.1-.3.1.2.1h.3-2.5.7v-.1q-.8 0-1.4.2h.1l4 .4 1.2.2h.7l.2.1q.1.2-.4.3h-.1l-.5-.1h-1l-.7.4-1-.1h-1.2c1 .3 2.2.1 3.1.4-.8.3-2.8 0-3.1.6 1.2.4 7.6-.4 8.6.5h-2.6q-3.2.1-6.4 0c-1.6 0-3.4-.6-4.8-.4.3.2 2 .5 2.7.6q.4.1.5.4h-.9l1 .4.5.1q-.3.4-.3.7l1.4.4v.2c-2 .5-7.6.1-8.8.5 2 .4 5.3-.1 7.6.7 1.7 0 4.5 0 6 .3l.2.2h1l-1.2.1q-1.4 0-2.6.3c-1 0-1.4-.3-2.5-.1.9.2 2.4.1 3 .4l-.5.1c0 .2.9.5 1 .7-.9.3-2 0-2.7.2q.1.4-.5.5h-1.2c-1 0-1.4-.2-2.5-.3h-5l-.4.2.3.2c.4 0 1.2.1 1.3.3.1.3.8.5 1.3.6v.2q-.5 0-.8.2h1q-.3.2 0 .3h-.3l-.5.1.4.1c.6.2.6.6 1.6.6h.5l1 .1-1.4.2.9.3.6-.1.7-.1q.7 0 1.2.3h.2l.5-.1h.2l1.6.1h.3l-.2.1H244l.3.2h.3l-2.5.4 2 .1h-.3l-.3.1.4.2-.1.1-2.7.2-.4-.1v-.2h-.3c-.3.1 0 .2-.2.4h-.4v-.2h-.4v.2c-1.1.2-1.7-.2-2.7.3l.7.1v.1c-1.3.1-5.5-.4-6.1-.2 1.2.2 6.2.4 6.7.6.7.2 2.4 0 2.5.3h-.7v.1h.6l1.2-.2.5-.2q1 0 1.8.2l.9.3h-2.4l-.3.1.1.1 2 .2 1.3.1-.1.1c1 .2 1.4.1 2.2.4l-.5.1-1.3.2h-.2l.1.2h.3q1.3 0 2.5.2l-.1.1h4.9c.4.3 1.4.3 2 .5-.8 0-.5-.2-1.4 0q.7.3 1.6.1l.1-.3c1 .2 1 .5 2 .3h.9v.2l-1.3.1.8.3h-1V28c-1.3-.2-4-.2-5.1 0l-1-.2h-2.3l-.1.1.5.3h-.1l-1.8.2q.3.2 1 .3H247l-1 .2v.1h.8q0 .3-.6.3l-1.2.2-1-.2q.2.3.8.5h.2l.5-.1 1 .3q-1.2 0-2.2-.2h-1.8v.2h-.2v.4h-.7l.6-.2-.3-.1h-1.2l-1 .2v.1h.8q0 .3-.6.3l-1.2.2-1-.2q.2.3.8.5h.2l.5-.1 1.2.3c-.6.2-1.6.3-1.8.6.7.2 2 .3 3 .3h.3l.3-.1h.3q-.3.2-1 .3l3-.1h.2v.2h-2.4l-.2.1h1.2c.8 0 2 .1 2.7.3-1.8.3-4.5-.5-6 0l.4.1h3.3l-.2.1-.3.1h.2l.3.2h-2.5q.3-.2.7-.1v-.1q-.8 0-1.4.2h.1q2 .3 4 .3l1.2.3h.7l.2.1q.1.2-.4.3h-.1l-.5-.1h-2.9l1.3.3h-2.3c1 .3 2.2.1 3.1.3-.8.4-2.8.1-3.1.7h4.4l.5.2-.2.4h-5.1c-1.6 0-3.4-.7-4.8-.6.3.3 2 .6 2.7.7q.4.1.5.4l-.9-.1 1.5.6q0 .2-.2.3l-1.2.1 1 .2v.1q1 .1 1.5.4v.2c-2 .5-7.6.1-8.8.5 2 .4 5.3-.1 7.6.7 1.7 0 4.5-.1 6 .3l.2.2h1l-1.2.1-2.6.2c-1 .1-1.4-.2-2.5 0l2.3.2H239l-.3.2.3.2c.4 0 1.2.1 1.3.3.1.3.8.5 1.3.6v.2q-.5 0-.8.2h.7-1.2c-1 0-1.4-.2-2.5-.3h-5l-.4.2.3.2c.4 0 1.2.1 1.3.3q.3.4 1.3.6v.2l-.8.1h.2l.8.1q-.3.2 0 .3h-.3l-.5.1.4.1c.6.2.6.6 1.6.5h.5q.6 0 1 .2l-1.4.2.9.3.6-.1.7-.1q.7 0 1.2.3h.2l.5-.1h.2l1.6.1h.3l-.2.1h-.8q-.6 0-1.4.3h.6l-1 .2c-1.8 0-4.6-.4-5-.2 1 .2 4.6.3 6.1.5h-.2l.4.2-.1.1q-1.4.3-2.7.2l-.4-.1v-.2h-.3c-.3.1 0 .2-.2.4h-.4V47h-.4v.2c-1.1.2-1.7-.2-2.7.3l.7.1c-1.3.2-5.5-.3-6.1-.1 1.2.2 6.2.4 6.7.6.7.2 2.4 0 2.5.3h-.7v.1h.6l1.2-.2.5-.2q1 0 1.8.2c.8.2 1 .4 2.2.6-.2.2-.7.1-.7.3 1.2.2 1.4.1 2.4.5h.1l1.1-.2c.5 0 .5 0 .8.2q0 .2.3.3h.6c.1.2-.5.3-.3.5h.6l.3-.4c.9-.4 2.1-.2 3.6-.9h2.5l.8-.2h1.3-.2l1 .1h.2V49h.5l1.6.3h.6c-.2.2-.6.1-.3.4l.5.2h.2q.6-.5 1.6-.7h1.5l.4.6h.3l.2-.2c.8 0 2-.2 2.7 0q.4 0 .6.3l1-.2h.4v.1l.3.2-.2.2-.3-.3-.3.4h-.5l.2-.3h-.4q-.4.3-1 .3h-.2l-.3-.3h-.3v.2q-.5 0-1-.3h-.1v.3h-1.5q-.5 0-.8-.2h-.6l-.1.2h-.4q0-.2-.3-.2l-.5.2h-.8V50c-1.3-.2-4-.2-5.1 0l-1-.2h-2.4q0 .3.5.4h-.1c-.7.2-1.2 0-1.8.2.4.3 1.4.3 2 .4l-1.4.1q.7.2 1.6.1l.1-.3c1 .2 1 .5 2 .3h.9v.2h-1.3c.3.3 1.5.4 1.5.6h-2.2l-.5.1.2.2-.7.1h-.5l.5-.2-.9-.2-1.3.1h-4.8v.5h-.7l.6-.2-.3-.1h-1.2l-1 .2v.1h.8q0 .2-.6.3l-1.2.2-1-.2q.2.3.8.5h.2l.5-.1 1.2.3c-.6.2-1.6.3-1.8.6l3 .3h.3l.3-.1h.3q-.3.2-1 .3l3-.1h.2v.2H246l1.2.1c.8 0 2 .1 2.7.3-1.8.3-4.5-.5-6-.1l.4.2h3.3l-.2.1-.3.1h.2l.3.1H245h.7v-.1l-1.4.1h.1q2 .4 4 .4l1.2.3h.9q.1.3-.4.4h-.1l-.5-.1h-1l-.7.4-1-.2-1 .1h-.2c1 .3 2.2.1 3.1.3-.8.4-2.8.1-3.1.6 1.2.4 7.6-.3 8.6.6h-9c-1.6 0-3.4-.6-4.8-.5.3.3 2 .6 2.7.7q.4.1.5.4l-.9-.1 1 .4.5.2q-.3.3-.3.7l1.4.4v.2c-2 .5-7.6.1-8.8.5 2 .4 5.3-.1 7.6.7 1.7 0 4.5-.1 6 .3l.2.2h1l-1.2.1-2.6.2c-1 0-1.4-.2-2.5 0 .9.2 2.4.1 3 .4h-.5c0 .3.9.5 1 .8-.9.3-2 0-2.7.2q.1.3-.5.5h-1.2c-1 0-1.4-.2-2.5-.3h-5l-.4.2.3.2c.4 0 1.2.1 1.3.3q.3.5 1.3.6v.1l-.8.2h.2l.8.1q-.3 0 0 .3h-.3l-.5.1.4.1c.6.2.6.6 1.6.5h.5q.6 0 1 .2l-1.4.2.9.2h.6l.7-.1q.7 0 1.2.3h.2l.5-.1h.2l1.6.1h.3l-.2.1h-1.2l.3.1h.3c-.7.3-1.8.3-2.5.5h2l-.3.1-.3.1.4.2-.1.1q-1.4.3-2.7.2l-.4-.1v-.2h-.3c-.3.1 0 .2-.2.4h-.4V69h-.4v.2c-1.1.2-1.7-.2-2.7.3h.7v.2c-1.3.1-5.5-.5-6.1-.3 1.2.3 6.2.5 6.7.6.7.3 2.4 0 2.5.4h-.7v.1h.6l1.2-.2.5-.3q1 0 1.8.3c.8.2 1 .4 2.2.6-.2.1-.7.1-.7.3 1.2.2 1.4.1 2.4.5l1.2-.2q.5 0 .8.2l.3.3h.6c.1.2-.5.3-.3.5h.6l.3-.4c.9-.4 2.1-.2 3.6-.9h2.5c.9 0 .8-.4 1.6-.5l.4.1v.3h1.1q0-.2-.3-.2h.8v.2h.2q.8 0 1.4.2h.6c-.2.2-.6.1-.3.4l.5.2h.2c.6-.3 1-.8 2.2-.8q.5 0 .9.2l.4.5h.3l.2-.2c.8 0 2-.2 2.7 0q.4 0 .6.3l1-.2h.4v.1q.2.2.5.2l.7-.1q.4 0 .4.2l.2-.2h.4l.3.3c.7 0 3.9-.1 4.3-.3l.5-.2q.9.6 1 1.4h.1l1.2-.7q.3-.3.2-.6l.6.1 1 .1-.2.3h.9l.4-.2.8.2h.3v-.4h.3l.1.4h.2q.5 0 .8-.3.7 0 1.1.3l.1-.3q.9 0 1.4.3h.2q.5 0 .7-.2h.3l1 .1.4-.1h.4q.4 0 .7-.3h1l.6.2h.2v-.3l.6.2h.1q.7-.3 1.6-.3l.6.1-.6.5.3.1h.1V72h.2l.2.1q.3 0 .5-.2l.9.3.4-.1v-.6l.7.2h.4l.3-.2.5.4h.3v-.3l.4.1.2.3q.4.2 1 .1.5 0 .9-.2h2.7q0-.3-.2-.4l-.3.2q-.2 0-.2-.3h1.6l.4.1-.8.3h1.9l.5.1h.3l-.9-.3q.3-.2.7-.2l1 .1h.1l-.6.2.2.2 1.2.3.2-.1.4-.2 3 .1 1.7-.1 1 .3.3-.1h.3q-.1.2-.4.3-.6.3-.3.7h.6l.6.4-.2.1-.1.1.3.2.6-.3q.1-.2.5-.3-.3-.2-.4-.5c-.3.1 0 .4-.1.5h-.2q-.4-.2-.1-.5l.3-.4-.7-.3.1-.1h.9l1-.1.8-.1h.3l1 .1q.7.1.8.4l-.1.5.5.2c.2-.3-.4-.4.4-.6q1.3.4 2.8.4l2-1 .9.2h.2l1.3-.1c.8.2.4 1 1.2 1.4.7-.4-.2-1 .8-1.4h.4q.4.2.6.5l.6-.5q.7 0 1.3.2.6.1.8.6h.3l.4-.2 2.2.2-.2.3h1.2q.7 0 1.3.3c.4 0 .3-.3.7-.3l.1.2h.4q.4-.1.4-.4h.4c.3.2-.2.3.2.4l.6-.1-.4-.2h.3q.5 0 .8.3c.2-.3-.3-.7.2-.9h.6l.4.1h2.3q.8 0 1 .4l.2.4h.2l1.3-1h.5v.2q0 .3.6.5h.2l1-.3h2.7l.4.3h.2l.3-.1c.3.3 0 .9.8 1h.2l-.2-.2h.1q.4 0 .6.2l-.7.2h-.8l.1.1h1.2l.5.2.3-.3.4.2.6-.2q1-.6 2.9-.7.9 0 1.4.2l.2-.2q.7.4.6.7t-.2.2h-1q.7.3 1.6.3.3 0 .5-.2v-.5h.6q.5-.4 1.5-.5h.3v.5l.2.2h.3v-.1l.3-.1h1q.4.3 1 .4.7 0 1-.2l.2-.3h.2l.3.1c.6 0 .4-.3 1-.2l.7.3h.1q0-.3-.3-.4h.2l1 .6 1.5.1-.6-.2h1.1l.6-.1q0-.2-.6-.3l.5-.1v-.3h.2q.5.3.5.6h.8v.5h.9v-.1h-.5q.1-.2.5-.3l.2.1 1 .1 1-.5h.3v.2h.2l.7-.2-.1.3 1-.4.3.1q.4.2.3.5h.8l.1-.1 1.5-.3q-.3.1-.3.4.6-.2.7-.5h.2q.4.2.1.6l.4-.2.4.1h.2V74l.1-.1.2.2h.1l.8-.4h1.4l1-.3 3 .7.9-.3-.5-.1h2.5l.1.4h.4q.4-.4.3-.7l.2-.1 1 .5 1 .2q.8 0 1.2-.3l.5-.2 1.2.2.8.2q0-.2.3-.5h.7v.4h.2q.2-.2.7-.3h.2c.6 0 .2-.1.7-.2l.4.2.5-.2h.5l.4-.4q.8 0 1.5.3h.9l.2-.1h.3l1 .3c.6 0 0-.4.3-.6q.8.4 1.8.5l-.2-.2.8-.1.7.2q1.3 0 2.5-.2h1.4l.4-.2 4.6.5.1-.1-.5-.2h1.2l.7.1h.3l.3.2h.9c1.3.3 2.3.7 4 .5l.6-.1-.6-.2-1.2-.4-.6-.4q.2-.2.7-.3c1.7.1 1 1 2.3 1.2h.3l-.2-.2q.3-.2 1-.3c.6 0 .7.1 1.3.3l.3-.2q.2-.4 1-.6l.1.1q-.4.2-.4.4h.8v.3l-.7-.1-1.2.2q1 0 1.8.2h.3v-.1h.2l.2.2h.3l.4-.2 1.4-.1q.5 0 .6-.3t.5-.3h.4l-.2.7 7.8.4q.4.1.4.4h.7q.7-.3.8-.8-.5 0-.8.3c-.8-.5-1-.2-1.9-.3v-.1h.4q1.1 0 2-.3h1.4q.2 0 .2-.2h.3v.3l1 .4-.4.3h-1.3l.8.2q-.3.1-.3.4h.2c1.4 0 .8-.2 1.6-.4q0 .3.2.5c1 0 1.4-.2 2.3-.3h.2l-.1-.1h-.6v-.1h.1q.8-.2.9-.5.7-.2 1-.1l.8.7h1.5l-.7-.2h.6l.2-.1-.5-.2-.2-.1h.9v-.2h-.9q.5-.2 1.1-.2h.5l.1-.3.1.2h.6l.2-.2h.7l.1-.2h-2l-.3.3h-.3l-.3-.1-1 .2h-.2v-.3q-.5.1-.5.4h-.1q-.3-.3-1-.4h-.2q.5-.3 1.3-.5c-1.3 0-1.3.6-3 .3 1-.2 1 0 2-.4h.8l.4-.2c.8 0 1-.2 1.9 0v.2h-.7l.1.1h1.1l-.7.3h.6c1.3-.2.8-.4 2.6-.4q1.4 0 2.5.2.2.2-.1.4l-1 .2q-.4 0-.3-.3h-.3l-.7.1v.5l.8-.1-.2.3c.3.1.2.2.7.2l.6-.1h.3l.2.3h.5l-.2-.2h.8l.2-.1c-.2-.3-1-.4-1.4-.6q.2-.2.7-.2l1.2.1q-.1-.2.2-.4h1.1q.5 0 .8.2l-.4.2.4.3h.2c.5-.2.2-.4.6-.6h1l-.7.3v.2l.8.2h.6l-.3-.3h.5l.4.1q.1-.3.9-.5l1.9.3-.4-.2 1-.2 1 .2.8.4-.4.2.3.1v.1h-1l.4.3h.7l1.3.5v.3h.2l.4-.1-.2-.3q0-.2.4-.3h1.3l-.2-.2c.3-.2 1.2-.4 1.7-.5q0-.2.2-.3l.5.2c.6-.1.6-.5 1.2-.7h1.5l.2.1q-.4.1-.6.4h.7l-.3.3h.8c1 .3 1.4.1 2.5 0l.3.2.5-.1q.4-.3 1.2-.5h.3c-.1.2-.7.3-.9.5 1-.2 1.2.1 2 0q.2-.2 0-.4t-.9-.2l.5-.2q.8-.2 1-.6h.1l.8.1q0 .2-.3.4h.6q.3 0 .4-.2h.1l1.7-.2v.2l-1.4.3h-.3.7c1 0 .8-.3 1.5-.5l.8.1q-.4-.3-1.2-.3v-.2h.4q0-.3.3-.4l.9-.2c.7.2.6.6 1.3.8h.9l.3-.1c.5-.2.7-.3 1.5-.4q-.4.3-.3.4h.3l.2-.1q.3 0 .5.2v-.5h1.1l1-.2-.3.3h.2c.9.1 1.2-.2 2-.3l-.5.2h.2q.5 0 .7-.2h.3v.2h1.2q.4 0 .6-.3h.2q.3.4.8.6l.5.2q.9 0 1.5-.4l1.6-.3h.2l-.2-.1.1-.1q.6 0 1 .2l3-.3h.7l.4.4v.1q-.1.3.5.4c1.5 0 3.4-.2 4.8-.4l-2.5-.1v-.1l.2-.1q.8 0 1.5-.2.5 0 .4-.3l-.4-.2.7-.1-.6-.2h-.1l1.5-.2-.2-.2c0-.2 1.1-.4 1.6-.5l-.4-.1h-.9l-5.2-.3h-.2c1-.3 3-.3 4.4-.3l.5.2c.8 0 1-.4 1.9-.5v.1h-.4l-.5.4 1.2-.3h1.3l.3-.2h-1q.3-.2.8-.2h.7l1-.1.9-.1.2.1q.4 0 .7-.3l-.8-.1.7-.2-.7-.1c.4-.2 2.5-.2 3-.3 1 0 3.2-.3 3.7-.6h-.1c-1.5 0-3.9-.4-4.5-.3h-1l-.2-.2.6-.1-.8-.2-2.5-.4 1.3-.1-1.2-.3.1-.2c-.8-.2-2-.2-2.8-.2l-1.8-.4.8-.4h.8c-.2-.2-1-.2-1.4-.3V63c1.4-.4 2.6 0 4.1-.3v-.2h.5l.3.2q.3 0 .5-.3h-.1l-.6-.1h-7.9l.3-.1 3.7-.2h2.5l2.5-.1h.7l.2-.2c-1.2-.2-2.4.3-3.7-.3h-1.7c.5-.2 1 0 1-.4h.7l-.2.2h.7l.6-.1q.5 0 .8.2h.5l1.8-.3q0-.2-.4-.3h-.3l-.7.2c-.2-.1.1-.2-.3-.2l-.4.1h-.8l-1.3-.1h-.4l.5-.2c2.3-.2 5.5.2 7.2-.3h-1.2l-.6-.3-.3.2h-.2l-.3-.2-.7.3-.9-.1.2-.2h-1.6l.2.1h.8l-.1.2h-1.6.3l-.2-.2h.2v-.2l-.4-.4c.7 0 1.8 0 2.4-.2l-1-.1-.9-.4h-2.7l1-.2c1.3-.2 3 0 4.2-.2V58h.2l.6-.3H537l.3-.2-.4-.1h-.3l-.6-.1q.8-.2 2-.1l1-.2h-.3c-1-.4-3.2-.2-4.3-.1H533l.2-.1.6-.2q.5 0 .3-.4 1.2 0 2.3-.2l-.2-.1.9-.2c1-.1 1.4.2 2.3.2 1 .1 2.1-.3 3.2-.1l-.2.2h.2l.4-.2.9.1h1l-.6-.2h.8l1-.2.7-.2.5.1c.3-.1 1.6-.6 1.4-.8l-.4-.3.4-.2h-.5c.6-.2 1.7-.1 2.4-.1l-.3-.2h.1c1.7.3.7.5 1 .8h1.1v-.2h-.9l.2-.2-.6-.4.2-.1 1.7-.2q-1.3-.2-2.7-.2v-.1h-.4q-.2.3-.8.2l-.2-.2.1-.2q0-.2-.5-.5l-.6.3h-.2l.2-.3h-.2q-1.3 0-2.5.2l-.5.1h-.7l-1-.3c-.7-.1-3.1.1-4.5-.2q-.3 0-.4-.2c.8-.5 2.9-.2 3.9-.5q-1-.1-1.6-.6l1-.1h.9q-.6 0-1-.2 1.5 0 2.8-.2h-2.4q-.7 0-1-.2h-.1l-.6.1q-1 0-1.8-.2h2.2V50l-1-.5h.5l1.4-.2-1.8-.1H537l-.2-.2h-.4q-.4.3-.9.2v-.1l.1-.1 1.1-.4h-1.2l-.1-.4-.4-.3q.6 0 1-.3l-.6-.3h-.3l-.7-.5h-.2q.3.3.2.5h-.3l-.4-.1V47l-.3-.2 5.2-.2h2.2l1.3-.2-.6-.2h-3l7.2-.5-7.3-.1-4.3-.2.3-.1h-.3l.6-.3h.4q-.3 0-.4.3l1.2-.2 1.3-.2h.2c.8-.1 2-.2 2.6-.4q.5 0 .8-.3h-.8l.7-.3-.7-.1c.4-.2 2.5-.2 3-.3 1 0 3.2-.3 3.7-.5l-.1-.1c-1.5 0-3.9-.4-4.5-.3h-1l-.2-.2.6-.1-.8-.2-2.5-.4 1.3-.1q-.7 0-1.2-.3l.1-.2c-.8-.2-2-.2-2.8-.2l-1.8-.3.8-.5h.8l-1-.3h-.4v-.1c1.4-.4 2.6 0 4.1-.3v-.2h.5l.3.2q.3 0 .5-.3h-.1l-.6-.1H535l-.4-.2h-.3l-.7.2c-.2-.1.1-.2-.3-.2l-.4.1h-.8l2.8-.2h2.5l2.5-.1h.7l.2-.2q-1.5-.2-2.8 0v-.2h-.4l-.5-.1h-1.5c.4-.2.9 0 .8-.4h.7l-.2.2h.7l.6-.1.8.2h.5l1.8-.3q0-.2-.4-.3h-.3l-.7.2c-.2-.1.1-.2-.3-.2l-.4.1h-.8l-1.3-.1h-.4l.5-.2c2.3-.2 5.5.2 7.2-.3H543l-.6-.3-.3.2h-.2l-.3-.2-.7.3-.9-.1.2-.2h-1.6l.2.1h.8l-.1.2H538h.3l-.2-.2h.2v-.1q0-.2-.4-.5c.7 0 1.8 0 2.4-.2h-1q-.3-.3-.9-.5h-2.7l1-.2c1.3-.2 3 0 4.2-.2v-.4h.2l.6-.3h-2.2l.3-.2-.4-.1h-.5l.4-.2.9.1h1l-.5-.1q.5 0 .8-.2l.9-.1.7-.2.5.2c.3-.2 1.6-.7 1.4-1l-.3-.1h.5l-.2.2h.2l.4-.2.9.1h1l-.6-.2h.8v.3h1.1v-.2h-.9l.2-.2.6-.1.7-.2.5.2c.3-.2 1.6-.7 1.4-1l-.4-.2.4-.2h-.5c.6-.2 1.7-.1 2.4-.1l-.3-.2h.1c1.7.3.7.5 1 .8h1.1V31h-.9l.2-.2-.6-.4.2-.1zM514 12.7l1 .2h.5v-.3h.8l.2.2h.4l-.2-.2h4.3l.2.2 2.3-.3 10.7-.1-3.9.5-1.2.1h-2.7c-.5 0-.3-.3-1-.2h-2.6l-.3.4h-2.9q-.2-.1-.4 0l-.9-.1-.5.2h-.7l-.2-.2h-1.5l-.6.2h-.1v-.2l-.5.2-.2-.1zM249 26.4h-.3zl.6-.2v-.1h-1.2l.8-.1.7.1v.2zm-.4 2.3h-.3zM271 50q-.3 0-.3-.2l.5-.1h.3-.2zm1.3 0-.3-.2h-.3.5zh.2zm1.3.1h-.2V50h.6l-.1.2zm1-.1-.1-.1h.4-.3m1.4-.1h-.2l1-.2.5-.2q.3 0 .4.3zm4.1 0h-.3v-.3l.6.1h.4zm255.5 7.8-3.9.5h-1.5l-.8.1h-1.6c-.5 0-.3-.3-1-.3l-.3.1H524q-.2.1-.3.4h-2.6l-.3-.1h-1.3l-.5.2h-.7l-.2-.3h-.3v.2l-.6-.1h-.7l-.5.2h-.1v-.2l-.5.1h-.2V58l1 .1h.5V58h.8l.2.2h.4l-.2-.2h4.3l.2.2 2.3-.3zm-.8-23c-1-.1-3 0-4.1.1h-.7l-.3-.2h.5l.3-.2 7.6-.1zm4.2-1-.2.2h.2l-.4-.1z"/><path fill="#fc6b7e" d="M478.4 38.4q-1.3-.2-2.7-.2l-.1-.1-.3.1h-1l.1-.3q0-.3-.5-.4l-.6.2h-.2l.2-.3h-.2q-1.4 0-2.5.2l-.6.2h-.6l-1-.4c-.8-.1-3.2.1-4.5-.2q-.5 0-.4-.2c.8-.4 2.9-.2 3.9-.5l-1.7-.5.1-.1 1-.1h.9q-.6 0-1-.2 1.5 0 2.7-.2h-2.3q-.7 0-1-.2h-.2l-.6.1-1.8-.2h2.3V35q-.4-.3-1-.4l.4-.2 1.4-.1H465l-.7-.1h-2.1V34l-.5.1h-1l.2-.1 1.1-.4h-1.2l-.2-.4-.3-.3.8-.2q.1-.2-.4-.3h-.4v-.1l4.4-.3h-4.9l-.2-.2h-.1v.1h-.6l-.2-.2 5.2-.2h2.2l1.3-.2-.7-.2h-2.9l7.2-.5-7.4-.1-4.2-.2h.3l-.7-.2c.3-.2 2.4-.2 3-.3 1 0 3.2-.2 3.6-.5v-.1l-4.5-.3h-1l-.3-.2.6-.1-.7-.2-2.5-.4 1.2-.1q-.5 0-1.1-.3.2 0 0-.2c-.7-.2-1.9-.1-2.7-.2l-1.9-.3 1-.4h.5l.2-.1c-.2-.2-1-.2-1.5-.3V26c1.5-.4 2.7 0 4.2-.2l-.1-.3h.6l.2.2q.4 0 .6-.3H450l-.2-.1h.2l3.7-.3h2.6l2.5-.1h.7l.1-.2c-1.1-.2-2.4.3-3.6-.3h-1.7c.5-.2 1 0 1-.4h.7l-.3.2h.7l.7-.1.8.2h.5q1 0 1.8-.3l-.4-.3h-.3l-.7.2c-.3-.1.1-.2-.3-.2l-.4.1H456l-.5-.1.5-.2c2.4-.1 5.5.2 7.3-.3H462q-.1-.2-.5-.2l-.3.2h-.2l-.3-.3h-.1l-.6.3-1-.1.3-.2h-1.6l.2.1h.8l-.1.2H457h.3l-.3-.2h.3v-.1l-.4-.5q1.2 0 2.3-.2h-.9q-.3-.3-.9-.5h-2.7l1-.2 4.2-.2v-.4h.2l.6-.3h-2.2l.2-.2-.3-.1h-.3l-.7-.1c.4-.2 1.4-.1 2-.1q.6 0 1-.2h-.2c-1-.4-3.2-.2-4.4 0l-.9-.1h-.3l.2-.1.6-.1q.4-.3.3-.4l2.3-.3-.2-.1.9-.2 2.2.2c1 .1 2.2-.3 3.2 0v.1l.5-.2.9.1h1l-.6-.1v-.1h.8l1-.2.7-.2.4.2c.4-.2 1.6-.7 1.5-1l-.4-.2q.2 0 .3-.2h-.4c.6-.2 1.7-.1 2.4-.1l-.3-.1h.1c1.7.2.7.4 1 .7h1.1v-.2h-.9l.2-.2-.7-.4h.2l1.8-.3q-1.3-.2-2.7-.2l-.1-.1-.3.1h-1l.1-.3q0-.3-.5-.4l-.6.2h-.2l.2-.3h-.2q-1.4 0-2.5.2l-.6.2h-.6l-1-.4c-.8-.1-3.2.1-4.5-.2q-.5 0-.4-.2c.8-.4 2.9-.2 3.9-.5L462 14l.1-.1 1-.1h.9q-.6 0-1-.2 1.5 0 2.7-.2h-2.3q-.7 0-1-.2h-.2l-.6.1-1.8-.2h2.3V13q-.4-.3-1-.4l.4-.2 1.4-.1h-1.7l-.7-.1h-2.1V12l-.5.1h-1l.2-.1 1.1-.4H457l-.2-.4-.3-.3.9-.3-.5-.2h-.3l-.8-.6h-.1q.3.3.1.5h-.2l-.4-.1v-.3l-.3-.2 5.2-.2h2.2l1.3-.2-.7-.2H460l7.2-.5-7.4-.1-4.6-.2-5.3.4c-2 0-11.6 0-12.6.2l-1 .2-1-.2c-1 0-1.7.4-2.8.3l.3-.3.3-.1h-1.4c-1.4 0-1.6.3-3 0h-.1l.7-.2-.1-.1-1 .2c-.8.2-2.2.4-3.2.3l-.6-.1.5-.1c-1.5-.2-3.2.5-4 .3l-.3-.2q-.7.2-1.7.2l-.1-.2-1.7.1-.4-.3h-.4c-.6.1-1.3.6-1.8.6l-.1-.5q-1-.2-2-.1-.5.3-1.1.3c-.7-.1-1.8-.3-2.5-.2l-.5.2-.6-.4h-.5l-.6.3-.8.2h-.2q-.2-.4-.7-.5h-1.2q-1 .4-2.3.6l.2-.4h-.2l-1.2.1-.4-.2h-7.4l-3-.1-1.3.1h-.3l-2-.1q-3.1 0-6.3.4l-5-.4q-.5.6-1.9.8h-1.2q-.7-.4-1.9-.6c-.9.2-1 .7-2.2.6h-.3l.2-.2h-.2l-1 .3-.2-.1q.5-.2.5-.5l-.6.3h-.3l.2-.3h-.3l-.1.2h-.3l-.4-.2c-1.4 0-2 .8-3.6.4l.4-.2-.6-.7H359q-1.1 0-2 .5l-.6.3-.1.2q-.1-.3-.6-.4h-.5v.1q.4 0 .5.3h-.2l-.6-.2q-.3.1-.2.3h-.2l-.9-.3h-.2l-.1.2c-.7-.2-1.5-.7-2.6-.7l-1.5.1c-.3.4.5.5-.5.7-.4 0-.2-.3-.6-.3q.1.3-.1.5-.5 0-.7-.3-.2.1-.2.3h-.2v-.1l-.1-.3-1.2.6-.4-.2v-.5h-.3l-.1.4h-.2l-.3-.3c-.3.1-.2.4-.6.5v-.2l-.6.2-.8-.4h-.1l-.2.2c-.8 0-1.4-.4-2.3-.3-.4.2-.3.5-.8.6h-3.6l-2.1-.1q-.8 0-1.4.2c0-.3.7-.3 0-.7h-.8c-.4.3 0 .7-.6 1h-.3l-.3-.3h-1.7v-.2c-.5-.1-11.4.2-13.3.2l-4-.1H305q-8.7-.1-17.4.2h-14.5c-5 0-10 .3-14.9.1-2.4 0-13.5-.4-15-.2l-.8.2h-.3V10c-1.6-.1-3.2.2-4.9 0l-1.7.1c-.9.2-1.8-.2-3 0l.4.1c-1.5 0-2.7-.4-3.8-.3q.3.2 1 .3l-2.4-.1 1.2-.2h-1.3l-.4.3c-.7 0-2.2 0-2.7.2v.2q-.3 0-.5-.2l.6-.4-.3-.2h-.1l-.5.4-.5-.1h-.7q-.1-.3-.5-.4h-1l-.1.2h.4l-.3.2h-.3v-.2h-.1l-.3.3h-.2V10l-.2-.3h-.3l-.1.1-.3.2-.7-.1c0-.3-.8-.5-1.1-.8h-.2q0 .3.4.5h-.3l-1.1-.2h.1l.4.2-.2.1h-.2l-.3-.3-.7.1.4.1v.1l-.2.2h-.3.8l-.8.1H212l-.2-.3h-.5l.2.3h-.3l-.3-.2q-.4 0-.7.2h-.3v-.2q0-.3-.6-.6l-.4-.1-1.2-.3-.1.2c.7.2.8 0 1.5.4v.2h-.4q-.1-.2-.5-.2h-.3v.2l-.1.1-.4-.3h-1a58 58 0 0 0-9 0l-.6-.2v-.1l-1 .2h-3q-.4.1-.6.4h-.8l-.7.1-.1-.1h-1.8l-1.6-.2-3.4-.1-.2-.1 2-.1h-1.9l-2.9-.2h-.3l-.2.2q-.1-.2-.5-.2h-.5l-.7.3-.6-.1.3-.1V9h-.7v.3h-1.2l.5-.3-1-.2v.3h-.6V9h-.1q-.4 0-.8.3h-.1l.3-.3c-1.1-.1-2.6.1-3.6.2h-.3l-.9.2v.2h1l-.1.3h.2l.5-.3h1.8l.3.1-.3.3h.5l-1.2.1h-.4v-.3l-.5.3c-.9 0-1-.1-1.6-.3v.2h-2.4l-.3.1v.1q1.2 0 2.1.2c1.4.3 4 0 5.3.3l.2.5-.9.1h-.2.2l.5-.2V11h-.3c-.8 0-1-.1-2 .1l-1.2.2h-.2l.1.2h.3q1.3 0 2.4.2v.1h4.9q4.3 0 8.6.3h3.1l1.6.1 9 .3h4q0 .2-.2.3l-1.2-.1-2.1.2-1.5-.1h-3.5l-.4.2h-.2l-.2-.2h-.2l-.2.3h-.5v-.3h-.7l-.2.2h-.3l-.3-.2h-.6q-.3 0-.3.2c-.5 0-.2-.3-.7-.2l-.2.2-.4-.3-.2.4h-.4v-.3h-.3q-.4.3-1 .3h-.2l-.3-.3h-.3v.3l-1-.3h-.1v.2h-1.5l-.8-.1-.1-.1h-.5l-.2.2h-.3l-.3-.2-.5.2h-.8v-.2c-1.3-.2-4-.2-5.2 0l-1-.2h-2.2l-.2.1.5.3-1.9.2c.5.3 1.5.3 2.1.5-.9 0-.5-.2-1.4 0q.7.3 1.6.1v-.3c1 .2 1 .5 2.1.4h.9v.1l-1.3.1 1.5.5q-1 .2-2.2.1h-.6l.2.2-.7.2h-.5l.6-.3-.9-.2-1.3.1h-4.8v.1l-.1.4h-.6l.6-.2-.4-.1h-1.2l-.9.2v.1h.8q0 .3-.6.3l-1.2.2-1-.2q.2.3.8.5h.2l.5-.1 1.2.3c-.6.2-1.6.3-1.8.6.6.2 2 .3 2.9.3h.4l.2-.1h.4q-.4.3-1 .3l3-.1h.2v.2h-2.5l-.2.1h1.2q1.5 0 2.8.3c-1.8.3-4.5-.5-6 0l.4.1h3.2l-.1.1-.3.1.2.1h.2-2.5.8V18q-.8 0-1.4.2h.1l4 .4 1.1.2h.8l.2.1q0 .2-.4.3h-.2l-.4-.1h-1l-.7.4-1-.1H167c.9.3 2.2.1 3.1.4-.9.3-2.8 0-3.2.6 1.2.4 7.7-.4 8.6.5H173q-3.2.1-6.4 0c-1.6 0-3.4-.6-4.9-.4.4.2 2 .5 2.8.6q.4.1.5.4h-1l1 .4.6.1q-.4.4-.3.7l1.4.4v.2c-2 .5-7.6.1-8.8.5 2 .4 5.3-.1 7.6.7 1.7 0 4.5 0 6 .3l.2.2h1l-1.2.1q-1.3 0-2.7.3c-.9 0-1.4-.3-2.5-.1 1 .2 2.5.1 3.1.4l-.6.1c0 .2 1 .5 1 .7-.8.3-1.9 0-2.7.2q.1.4-.4.5h-1.2c-1 0-1.5-.2-2.6-.3h-5l-.3.2.3.2c.4 0 1.2.1 1.3.3 0 .3.8.5 1.3.6v.2c-.2 0-.8 0-.9.2h1.1q-.3.2-.1.3h-.2l-.6.1.5.1c.6.2.6.6 1.6.6h.5l1 .1-1.5.2q.3.2 1 .3l.6-.1.7-.1q.7 0 1.2.3h.2l.5-.1h.2l1.6.1h.3l-.2.1h-1.2l.2.2h.3l-2.4.4 2 .1h-.3l-.4.1.4.2v.1q-1.3.3-2.8.2l-.3-.1-.1-.2h-.3c-.2.1.2.2-.2.4h-.3q-.2 0 0-.2h-.4v.2c-1.2.2-1.7-.2-2.7.3l.7.1v.1c-1.3.1-5.6-.4-6.1-.2 1.1.2 6.2.4 6.7.6.7.2 2.3 0 2.5.3h-.8l.2.1h.5l1.2-.2.4-.2q1.1 0 1.9.2l.9.3h-2.4l-.3.1v.1q1.2 0 2.1.2l1.2.1v.1c1 .2 1.4.1 2.2.4l-.5.1-1.3.2h-.2l.1.2h.3q1.3 0 2.4.2v.1h4.8c.5.3 1.5.3 2.1.5-.9 0-.5-.2-1.4 0q.7.3 1.6.1v-.3c1 .2 1 .5 2.1.3h.9v.2l-1.3.1.8.3h-1.1v-.2c-1.3-.2-4-.2-5.2 0l-1-.2h-2.2l-.2.1.5.3c-.7.2-1.2 0-1.9.2q.3.2 1 .3h-1.1l-.9.2v.1h.8q0 .3-.6.3l-1.2.2-1-.2q.2.3.8.5h.2l.5-.1.9.3-2.1-.2h-1.8v.2h-.2l-.1.4h-.6l.6-.2-.4-.1h-1.2l-.9.2v.1h.8q0 .3-.6.3l-1.2.2-1-.2q.2.3.8.5h.2l.5-.1 1.2.3c-.6.2-1.6.3-1.8.6.6.2 2 .3 2.9.3h.4l.2-.1h.4l-1 .3 3-.1h.2v.2h-2.5l-.2.1h1.2q1.5 0 2.8.3c-1.8.3-4.5-.5-6 0l.4.1h3.2l-.1.1-.3.1h.2l.2.2h-2.5q.4-.2.8-.1v-.1l-1.5.2h.2q2 .3 4 .3l1.1.3h.8l.2.1q0 .2-.4.3h-.2l-.5-.1h-2.8l1.2.3h-2.2c.9.3 2.2.1 3.1.3-.9.4-2.8.1-3.2.7h4.4l.6.2-.3.4h-5c-1.6 0-3.4-.7-4.9-.6.4.3 2 .6 2.7.7q.5.1.6.4l-1-.1 1.5.6v.3l-1.3.1 1 .2v.1l1.5.4v.2c-2 .5-7.6.1-8.8.5 2 .4 5.3-.1 7.6.7 1.7 0 4.5-.1 6 .3l.2.2h1l-1.2.1-2.7.2c-.9.1-1.4-.2-2.5 0l2.4.2h-4.5l-.3.2.3.2c.4 0 1.2.1 1.3.3 0 .3.8.5 1.3.6v.2c-.2 0-.8 0-.9.2h.8-1.2c-1 0-1.5-.2-2.6-.3h-5l-.3.2.3.2c.4 0 1.2.1 1.3.3 0 .3.8.5 1.3.6v.2l-.9.1h.2l.9.1q-.3.2-.1.3h-.2l-.6.1.5.1c.6.2.6.6 1.6.5h.5q.6 0 1 .2l-1.5.2 1 .3.6-.1.7-.1q.7 0 1.2.3h.2l.5-.1h.2l1.6.1h.3l-.2.1h-.8q-.7 0-1.4.3h.6l-1 .2c-1.8 0-4.6-.4-5-.2 1 .2 4.6.3 6 .5h-.2l.4.2v.1q-1.3.3-2.8.2l-.3-.1-.1-.2h-.3c-.2.1.2.2-.2.4h-.3q-.2 0 0-.2h-.4v.2c-1.2.2-1.7-.2-2.7.3l.7.1c-1.3.2-5.6-.3-6.1-.1 1.1.2 6.2.4 6.7.6.7.2 2.3 0 2.5.3h-.8l.2.1h.5l1.2-.2.4-.2q1.1 0 1.9.2c.8.2 1 .4 2.1.6-.1.2-.7.1-.6.3 1.1.2 1.4.1 2.3.5h.2l1.1-.2q.5 0 .8.2 0 .2.3.3h.5c.2.2-.4.3-.2.5h.5l.4-.4c.9-.4 2.1-.2 3.5-.9h2.6l.8-.2h1.2l.9.1h.2v-.1h.5l1.6.3h.6c-.2.2-.6.1-.3.4l.4.2h.3q.7-.5 1.6-.7h1.5q0 .3.4.6h.3l.2-.2c.8 0 2-.2 2.7 0q.4 0 .6.3l1-.2h.3l.1.1.3.2-.2.2-.4-.3-.2.4h-.4v-.3h-.3q-.3.3-1 .3h-.2l-.3-.3h-.3q-.2 0 0 .2-.7 0-1-.3h-.1v.3H187q-.6 0-.8-.2h-.6l-.2.2h-.3l-.3-.2-.5.2h-.8v-.2c-1.3-.2-4-.2-5.2 0l-1-.2h-2.4l.5.4-1.9.2c.5.3 1.5.3 2.1.4l-1.4.1q.7.2 1.6.1v-.3c1 .2 1 .5 2.1.3h.9v.2h-1.3c.3.3 1.4.4 1.5.6h-2.2l-.5.1h-.1l.2.2-.7.1h-.5l.6-.2-.9-.2-1.3.1h-4.8v.1l-.1.4h-.6l.6-.2-.4-.1h-1.2l-.9.2v.1h.8q0 .2-.6.3l-1.2.2-1-.2q.2.3.8.5h.2l.5-.1 1.2.3c-.6.2-1.6.3-1.8.6l2.9.3h.4l.2-.1h.4l-1 .3 3-.1h.2v.2h-2.7l1.2.1q1.5 0 2.8.3c-1.8.3-4.5-.5-6-.1l.4.2h3.2l-.1.1-.3.1h.2l.2.1h-2.5.8v-.1l-1.5.1h.2q2 .4 4 .4l1.1.3h1q0 .3-.4.4h-.2l-.4-.1h-1l-.7.4-1-.2-1 .1h-.2c.9.3 2.2.1 3.1.3-.9.4-2.8.1-3.2.6 1.2.4 7.7-.3 8.6.6h-8.9c-1.6 0-3.4-.6-4.9-.5.4.3 2 .6 2.7.7q.5.1.6.4l-1-.1 1 .4.6.2q-.4.3-.3.7l1.4.4v.2c-2 .5-7.6.1-8.8.5 2 .4 5.3-.1 7.6.7 1.7 0 4.5-.1 6 .3l.2.2h1l-1.2.1-2.7.2c-.9 0-1.4-.2-2.5 0 1 .2 2.5.1 3.1.4h-.6c0 .3 1 .5 1 .8-.8.3-1.9 0-2.7.2q.1.3-.4.5h-1.2c-1 0-1.5-.2-2.6-.3h-5l-.3.2.3.2c.4 0 1.2.1 1.3.3 0 .3.8.5 1.3.6v.1l-.9.2h.2l.9.1q-.3 0-.1.3h-.2l-.6.1.5.1c.6.2.6.6 1.6.5h.5q.6 0 1 .2l-1.5.2 1 .2h.6l.7-.1q.7 0 1.2.3h.2l.5-.1h.2l1.6.1h.3l-.2.1h-1.2l.2.1h.3c-.6.3-1.7.3-2.4.5h2l-.3.1-.4.1.4.2v.1q-1.3.3-2.8.2l-.3-.1-.1-.2h-.3c-.2.1.2.2-.2.4h-.3q-.2 0 0-.2h-.4v.2c-1.2.2-1.7-.2-2.7.3h.7v.2c-1.3.1-5.6-.5-6.2-.3 1.2.3 6.3.5 6.8.6.7.3 2.3 0 2.5.4h-.8l.2.1h.5l1.2-.2.4-.3q1.1 0 1.9.3c.8.2 1 .4 2.1.6-.1.1-.7.1-.6.3 1.1.2 1.4.1 2.3.5l1.3-.2q.5 0 .8.2l.3.3h.5c.2.2-.4.3-.2.5h.5l.4-.4c.9-.4 2.1-.2 3.5-.9h2.6c.9 0 .8-.4 1.5-.5l.5.1v.3h1.1l-.4-.2h.9v.2l1.6.2h.6c-.2.2-.6.1-.3.4l.4.2h.3c.6-.3 1-.8 2.1-.8q.6 0 1 .2l.4.5h.3l.2-.2c.8 0 2-.2 2.7 0q.4 0 .6.3l1-.2h.3l.1.1.4.2.8-.1q.3 0 .3.2l.3-.2h.4l.2.3c.8 0 4-.1 4.3-.3l.6-.2c.7.3.7 1 1 1.4l1.3-.7q.3-.3.1-.6h.2l.4.1 1 .1-.1.3h.8l.4-.2.9.2h.3V80h.2l.2.4h.2q.5 0 .8-.3.7 0 1.1.3l.1-.3q.8 0 1.4.3h.2q.5 0 .7-.2h.3l.9.1.5-.1h.4q.4 0 .6-.3h1l.7.2h.2l-.1-.3.7.2h.1q.7-.3 1.5-.3l.6.1-.5.5.2.1h.2v-.2h.2l.2.1q.3 0 .5-.2l.8.3.5-.1q.2-.4 0-.6l.6.2h.4l.4-.2q0 .2.5.4h.2l.2-.3.3.1.2.3q.4.2.9.1.6 0 1-.2h2.6v-.4l-.4.2q-.2 0-.2-.3h1.6l.4.1-.8.3h1.9l.5.1h.3l-.9-.3q.2-.2.7-.2l1 .1h.1l-.7.2.3.2 1.2.3.2-.1.3-.2 3 .1 1.8-.1 1 .3.3-.1h.2q0 .2-.3.3-.7.3-.3.7h.6q.4.1.5.4l-.1.1-.2.1.4.2.5-.3.5-.3-.3-.5c-.3.1-.1.4-.2.5h-.1q-.4-.2-.2-.5l.4-.4-.7-.3v-.1h.9l1.1-.1.8-.1h.2l1 .1q.8.1.8.4v.5l.5.2c.2-.3-.5-.4.4-.6q1.3.4 2.8.4c.8-.3 1.1-.7 2-1l.9.2h.1l1.4-.1c.8.2.4 1 1.1 1.4.7-.4-.1-1 1-1.4h.3l.5.5c.3-.2.2-.3.7-.5q.7 0 1.2.2.7.1.9.6h.3l.4-.2 2.2.2h-.1l-.1.3h1.2q.7 0 1.3.3l.7-.3.1.2h.4q.4-.1.4-.4h.3c.3.2-.1.3.3.4l.5-.1-.3-.2h.3q.4 0 .8.3c.2-.3-.3-.7.2-.9h.5l.5.1h2.3q.8 0 1 .4l.2.4h.2l1.3-1h.5v.2q.1.3.5.5h.3l1-.3h2.6l.5.3h.1l.4-.1c.3.3 0 .9.8 1h.2l-.3-.2h.2q.5 0 .5.2l-.6.2h-.8v.1h1.2l.6.2.3-.3.4.2.5-.2q1.1-.6 3-.7.9 0 1.4.2l.2-.2q.6.4.6.7t-.2.2h-1q.6.3 1.6.3.3 0 .5-.2V82h.6q.5-.4 1.5-.5h.3v.5l.2.2h.2l.1-.1.3-.1h1q.4.3 1 .4.7 0 1-.2l.2-.3h.2l.3.1c.6 0 .4-.3 1-.2l.6.3h.2q0-.3-.3-.4h.1l1.1.6 1.5.1-.6-.2h1.1l.6-.1q0-.2-.6-.3l.4-.1v-.3h.3q.4.3.5.6h.8v.5h.9v-.1h-.5q0-.2.4-.3l.3.1 1 .1 1-.5h.2l.1.2h.1l.8-.2q-.2.2-.1.3l.9-.4.4.1q.4.2.3.5h.8l.1-.1 1.4-.3-.2.4q.6-.2.7-.5h.2q.4.2.1.6l.4-.2.3.1h.3v-.1l.1-.1.1.2h.2l.8-.4h1.3l1-.3 3 .7 1-.3-.5-.1h2.5l.1.4h.4l.3-.7.2-.1 1 .5 1 .2 1.2-.3.5-.2 1.2.2.7.2q-.1-.2.4-.5h.7v.4h.2l.6-.3h.3c.6 0 .2-.1.6-.2l.5.2.4-.2h.6l.3-.4q.8 0 1.6.3h.9l.2-.1h.2q.5 0 1 .3c.7 0 0-.4.4-.6q.7.4 1.7.5h.1l-.2-.2.8-.1.7.2q1.3 0 2.5-.2h1.4l.4-.2 4.6.5.1-.1-.5-.2h1.3l.6.1h.3l.2.2h.9c1.4.3 2.4.7 4 .5l.6-.1q-.1-.2-.5-.2l-1.2-.4h-.1l-.5-.4q.2-.2.7-.3c1.6.1 1 1 2.3 1.2h.2l-.1-.2.9-.3c.7 0 .8.1 1.3.3l.4-.2q.1-.4 1-.6l.1.1q-.4.2-.4.4h.8q.1.2-.1.3l-.6-.1-1.2.2 1.8.2h.2l.2-.1h.1l.2.2h.3l.4-.2 1.4-.1q.5 0 .6-.3t.4-.3h.5q0 .4-.3.7l7.8.4q.6.1.5.4h.6q.8-.3.9-.8-.4 0-.9.3c-.7-.5-.8-.2-1.8-.3v-.1h.4q1 0 2-.3h1.4l.2-.2h.2v.3q.7.1 1 .4l-.3.3H380l.8.2-.4.4h.3c1.3 0 .8-.2 1.6-.4q0 .3.2.5c1 0 1.4-.2 2.3-.3h.2l-.1-.1h-.7v-.1h.2q.8-.2.9-.5.5-.2 1-.1l.8.7h1.4l-.6-.2h.6l.1-.1-.5-.2-.2-.1h1v-.2h-1 .1q.5-.2 1.1-.2h.5l.1-.3.1.2h.5l.2-.2h.8V81h-2l-.2.3h-.3l-.4-.1q-.5 0-.9.2h-.2l-.1-.3q-.5.1-.5.4l-1-.4h-.2q.5-.3 1.3-.5c-1.3 0-1.3.6-3 .3 1-.2 1 0 2-.4h.8l.3-.2c.9 0 1-.2 2 0v.2h-.7v.1h1.1l-.6.3h.6c1.2-.2.8-.4 2.6-.4q1.4 0 2.5.2.2.2-.1.4l-1 .2q-.4 0-.4-.3h-.2l-.7.1v.5l.8-.1-.2.3q.1.2.6.2l.7-.1h.3q0 .2.2.3h.4l-.1-.2h.8l.2-.1q-.6-.4-1.4-.6.1-.2.6-.2l1.3.1q-.1-.2.2-.4h1q.6 0 .9.2l-.4.2.4.3h.2c.4-.2.2-.4.6-.6h.9l-.6.3v.2l.8.2h.6-.1l-.2-.3h.5l.4.1q0-.3.9-.5l1.8.3-.3-.2 1-.2 1 .2.7.4-.4.2.4.1v.1h-1l.3.3h.8l1.3.5v.3h.2l.4-.1-.2-.3q0-.2.4-.3h1.3l-.2-.2c.3-.2 1.2-.4 1.7-.5q0-.2.2-.3l.5.2c.6-.1.6-.5 1.2-.7h1.5l.2.1q-.5.1-.7.4h.7q0 .2-.2.3h.7c1 .3 1.4.1 2.6 0l.3.2.5-.1q.4-.3 1.2-.5h.3c-.1.2-.8.3-.9.5.9-.2 1.1.1 1.9 0q.3-.2.1-.4-.3-.2-.9-.2l.5-.2q.8-.2 1-.6h.1l.8.1q0 .2-.3.4h.6l.4-.2h.1l1.6-.2v.2l-1.3.3h-.3.7c1 0 .7-.3 1.5-.5l.8.1q-.4-.3-1.2-.3V80h.4l.2-.4 1-.2c.7.2.6.6 1.3.8h.9l.3-.1q.4-.3 1.5-.4-.4.3-.3.4h.3l.2-.1q.3 0 .4.2.2-.2 0-.5h1.2l1-.2-.4.3h.2c1 .1 1.3-.2 2-.3l-.4.2h.2q.4 0 .6-.2h.3l.2.2h1.1q.4 0 .5-.3h.2q.3.4.8.6l.6.2q1 0 1.4-.4l1.6-.3h.3l-.3-.1.2-.1q.6 0 1 .2l3-.3h.7q.4.2.3.4v.1q0 .3.6.4 2.4 0 4.8-.4l-2.5-.1v-.1l.2-.1q.8 0 1.5-.2.4 0 .4-.3l-.4-.2.6-.1-.5-.2h-.2l1.6-.2-.2-.2c0-.2 1.1-.4 1.5-.5l-.3-.1h-1l-5-.3h-.3c1-.3 3-.3 4.3-.3l.6.2c.7 0 1-.4 1.9-.5v.1h-.5l-.4.4 1.2-.3h1.3l.2-.2h-.8q.2-.3.6-.2h.8l1-.1.9-.1.2.1q.4 0 .7-.3l-.8-.1.7-.2-.7-.1c.3-.2 2.4-.2 3-.3 1 0 3.2-.3 3.6-.6-1.5 0-4-.4-4.5-.3h-1l-.3-.2.6-.1-.7-.2-2.5-.4 1.2-.1-1.1-.3q.2 0 0-.2c-.7-.2-1.9-.2-2.7-.3q-1 0-1.9-.3l1-.4h.7c-.2-.2-1-.2-1.5-.3v-.1c1.5-.4 2.7 0 4.2-.3l-.1-.2h.6l.2.2q.4 0 .6-.3h-.2l-.5-.1H451l.2-.1 3.7-.2h2.6l2.5-.1h.7l.1-.2c-1.1-.2-2.4.3-3.6-.3h-1.7c.5-.2 1 0 1-.4h.7l-.3.2h.7l.7-.1q.5 0 .8.2h.5l1.8-.3-.4-.3h-.3l-.7.2c-.3-.1.1-.2-.3-.2l-.4.1h-.9l-1.2-.1h-.5l.5-.2c2.4-.2 5.5.2 7.3-.3h-1.3l-.5-.3-.3.2h-.2l-.3-.2h-.1l-.6.3-1-.1.3-.2H459l.2.1h.8l-.1.2h-1.6.3l-.3-.2h.3v-.2l-.4-.4q1.2 0 2.3-.2l-.9-.1-.9-.4H456l1-.2 4.2-.2v-.4h.2l.6-.3h-2.2l.2-.2-.3-.1h-.3l-.7-.1c.4-.2 1.4-.1 2-.1q.6 0 1-.2h-.2c-1-.4-3.2-.2-4.4-.1h-1.2l.2-.1.6-.2q.5 0 .3-.4l2.3-.2-.2-.1.9-.2c1-.1 1.4.2 2.2.2 1 .1 2.2-.3 3.2-.1v.2l.5-.2.9.1h1l-.6-.2h.8l1-.2.7-.2.4.1c.4-.1 1.6-.6 1.5-.8l-.4-.3.3-.2h-.4c.6-.2 1.7-.1 2.4-.1l-.3-.2h.1c1.7.3.7.5 1 .8h1.1v-.2h-.9l.2-.2-.7-.4.2-.1q1 0 1.8-.2-1.3-.2-2.7-.2l-.1-.1h-.3q-.4.3-.8.2l-.2-.2.1-.2q0-.2-.5-.5l-.6.3h-.2l.2-.3h-.2q-1.4 0-2.5.2l-.6.1h-.6l-1-.3c-.8-.1-3.2.1-4.5-.2q-.5 0-.4-.2c.8-.5 2.9-.2 3.9-.5q-1-.1-1.7-.6h.1l1-.1h.9q-.6 0-1-.2 1.5 0 2.7-.2h-2.3q-.7 0-1-.2h-.2l-.6.1-1.8-.2h2.3v-.1l-1-.5h.4l1.4-.2-1.7-.1h-2.8v-.2h-.5q-.4.3-1 .2v-.1l.2-.1 1.1-.4h-1.2l-.2-.4-.3-.3.9-.3q0-.2-.5-.3h-.3l-.8-.5h-.1q.4.3.1.5h-.2l-.4-.1v-.3l-.3-.2 5.2-.2h2.2l1.3-.2-.7-.2h-2.9l7.2-.5-7.4-.1-4.2-.2.3-.1h-.4l.7-.3h.4q-.4 0-.4.3l1.2-.2 1.3-.2h.2c.8-.1 2-.2 2.6-.4.5 0 .5 0 .8-.3h-.8l.7-.3-.7-.1c.3-.2 2.4-.2 3-.3 1 0 3.2-.3 3.6-.5v-.1c-1.5 0-4-.4-4.5-.3h-1l-.3-.2.6-.1-.7-.2-2.5-.4 1.2-.1q-.5 0-1.1-.3.2 0 0-.2c-.7-.2-1.9-.2-2.7-.2l-1.9-.3 1-.5h.7L457 48h-.4c1.5-.4 2.7 0 4.2-.3l-.1-.2h.6l.2.2q.4 0 .6-.3h-.2l-.5-.1h-3.9l-.3-.2h-.3l-.7.2c-.3-.1.1-.2-.3-.2l-.4.1h-.8l2.7-.2h2.6l2.5-.1h.7l.1-.2h-2.7v-.2h-.4l-.5-.1h-1.5c.4-.2.8 0 .7-.4h.8l-.3.2h.7l.7-.1.8.2h.5l1.8-.3-.4-.3h-.3l-.7.2c-.3-.1.1-.2-.3-.2l-.4.1h-.9l-1.2-.1h-.5l.5-.2c2.4-.2 5.5.2 7.3-.3h-1.3l-.5-.3-.3.2h-.2l-.3-.2h-.1l-.6.3-1-.1.3-.2h-1.6l.2.1h.8l-.1.2h-1.6.3l-.3-.2h.3v-.1l-.4-.5q1.2 0 2.3-.2h-.9q-.3-.3-.9-.5h-2.7l1-.2c1.3-.2 2.9 0 4.2-.2v-.4h.2l.6-.3h-2.2l.2-.2-.3-.1h-.5l.4-.2.9.1h1l-.5-.1q.5 0 .8-.2l.9-.1.7-.2.4.2c.4-.2 1.6-.7 1.5-1l-.4-.1h.5v.2l.5-.2.9.1h1l-.6-.2h.8v.3h1.1v-.2h-.9l.2-.2.6-.1.7-.2.4.2c.4-.2 1.6-.7 1.5-1l-.4-.2.3-.2h-.4c.6-.2 1.7-.1 2.4-.1l-.3-.2h.1c1.7.3.7.5 1 .8h1.1v-.2h-.9l.2-.2-.7-.4.2-.1q1 0 1.8-.2M436.7 21l1 .2h.5v-.3h.8l.2.2h.4l-.2-.2h4.3l.2.2 2.3-.3 10.7-.1-3.9.5-1.2.1H449c-.5 0-.3-.3-.8-.2h-2.7l-.3.4h-2.9q-.3-.2-.4 0l-.9-.1-.5.2h-.7l-.2-.2H438l-.5.2h-.1v-.2l-.6.2-.2-.1V21m-265 13.7h-.3zl.5-.2v-.1H171l.8-.1.6.1.1.2zm-.4 2.3h-.4zm22.3 21.4q-.4 0-.4-.2l.6-.1h.3-.2zm1.2 0-.3-.2h-.2.5l.2.2h.2zm1.4.1h-.2v-.2h.6l-.1.2zm1-.1-.2-.1h.5-.4m1.4-.1h-.2l1-.2.5-.2q.3 0 .4.3zm4 0h-.2V58l.5.1h.4zM458.3 66l-3.9.5h-1.5l-.8.1h-1.7c-.5 0-.3-.3-.8-.3l-.5.1h-2.2q-.3.1-.3.4H444l-.3-.1h-1.3l-.5.2h-.7l-.2-.3h-.3v.2l-.7-.1h-.6l-.5.2h-.1v-.2l-.6.1h-.2v-.4l1 .1h.6v-.3h.8l.2.2h.4l-.2-.2h4.3l.2.2 2.3-.3zm-.8-23c-1.1-.1-3 0-4.2.1h-.6q-.2 0-.3-.2h.5l.2-.2 7.7-.1zm4.1-1v.2l-.4-.1z"/><path fill="#fc6b7e" d="M566 38.4q-1.3-.2-2.7-.2V38l-.4.1h-1l.1-.3q0-.3-.5-.4l-.6.2h-.2l.2-.3h-.2q-1.3 0-2.5.2l-.5.2h-.7l-1-.4c-.7-.1-3.1.1-4.5-.2q-.3 0-.4-.2c.8-.4 2.9-.2 3.9-.5q-1-.2-1.6-.5v-.1l1-.1h.9q-.6 0-1-.2 1.5 0 2.8-.2h-2.4q-.7 0-1-.2h-.1l-.6.1q-1 0-1.8-.2h2.3l-1-.4.4-.2 1.4-.1h-1.8l-.6-.1h-2.1l-.2-.2-.4.1h-.9l.2-.1 1-.4h-1.2l-.1-.4-.3-.3.7-.2h.1q0-.2-.5-.3h-.3v-.1l4.3-.3h-4.8l-.2-.2h-.2v.1h-.5l-.3-.2 5.2-.2h2.2l1.3-.2-.6-.2h-3l7.2-.5-7.3-.1-4.2-.2h.2l-.7-.2c.4-.2 2.5-.2 3.1-.3 1 0 3.1-.2 3.6-.5v-.1c-1.6 0-4-.3-4.6-.3h-1l-.2-.2.6-.1-.8-.2-2.5-.4 1.3-.1-1.2-.3.1-.2c-.8-.2-2-.1-2.8-.2l-1.8-.3.8-.4h.6l.2-.1c-.2-.2-1-.2-1.4-.3V26c1.5-.4 2.6 0 4.1-.2v-.3h.5l.3.2q.3 0 .5-.3h-8.4l-.2-.1h.3l3.7-.3h2.5l2.5-.1h.7l.2-.2c-1.2-.2-2.4.3-3.6-.3h-1.7c.4-.2 1 0 .9-.4h.8l-.3.2h.7l.6-.1.8.2h.5q1 0 1.8-.3l-.4-.3h-.3l-.7.2c-.2-.1.1-.2-.3-.2l-.4.1h-2.1l-.4-.1.5-.2c2.3-.1 5.5.2 7.2-.3h-1.2l-.6-.2-.3.2h-.2l-.3-.3-.7.3-.9-.1.2-.2h-1.5l.1.1h.8l-.1.2h-1.6.3l-.2-.2h.2l.1-.1-.5-.5c.7 0 1.8 0 2.4-.2h-1q-.3-.3-.9-.5h-2.7l1-.2c1.3-.2 3 0 4.2-.2v-.4h.2l.6-.3H546l.3-.2-.4-.1h-.3l-.6-.1q.8-.2 2-.1l1-.2h-.3c-1-.4-3.2-.2-4.3 0l-1-.1h-.3l.2-.1.6-.1.4-.4 2.2-.3-.2-.1.9-.2 2.3.2c1 .1 2.1-.3 3.2 0h-.1l.1.1.4-.2.9.1h1l-.6-.1v-.1h.8l1-.2.7-.2.5.2c.4-.2 1.6-.7 1.4-1l-.3-.2.3-.2h-.5q1.2-.2 2.4-.1l-.3-.1h.1c1.7.2.7.4 1 .7h1.2v-.2h-.9l.1-.2-.6-.4h.2l1.7-.3q-1.3-.2-2.7-.2V16l-.4.1h-1l.1-.3q0-.3-.5-.4l-.6.2h-.2l.2-.3h-.2q-1.3 0-2.5.2l-.5.2h-.7l-1-.4c-.7-.1-3.1.1-4.5-.2q-.3 0-.4-.2c.8-.4 3-.2 3.9-.5q-1-.2-1.6-.5v-.1l1-.1h.9q-.6 0-1-.2 1.5 0 2.8-.2h-2.4q-.7 0-1-.2h-.1l-.6.1q-1 0-1.8-.2h2.3l-1-.4.4-.2 1.4-.1h-1.8l-.6-.1H546l-.2-.2-.4.1h-.9l.2-.1 1-.4h-1.2l-.1-.4-.3-.3q.5 0 .8-.3l-.5-.2h-.3l-.7-.6h-.2q.3.3.2.5h-.3l-.4-.1v-.3l-.3-.2 5.2-.2h2.2l1.3-.2-.6-.2h-3l7.2-.5-7.3-.1-4.6-.2q-2.7.1-5.3.4c-2.2 0-11.7 0-12.6.2l-1 .2-1-.2c-1 0-1.8.4-2.8.3q-.2-.2.3-.3l.2-.1h-1.4c-1.4 0-1.6.3-3 0l.7-.2-.2-.1-.9.2q-1.5.4-3.3.3l-.6-.1.5-.1c-1.5-.2-3.2.5-4 .3l-.2-.2q-.7.2-1.8.2l-.1-.2-1.7.1-.3-.3h-.5c-.6.1-1.3.6-1.8.6l-.1-.5q-.8-.2-1.9-.1h-.1q-.5.3-1.1.3-1.2-.2-2.5-.2l-.5.2-.6-.4h-.5l-.5.3-.8.2h-.3q-.2-.4-.7-.5h-1.1q-1.1.4-2.3.6l.1-.4h-.2l-1.2.1-.4-.2H480l-3.1-.1-1.2.1h-.4l-1.9-.1q-3.2 0-6.3.4l-5-.4q-.5.6-2 .8H459q-.9-.4-2-.6c-.9.2-.9.7-2.2.6h-.3l.2-.2h-.2l-1 .3-.2-.1q.4-.2.6-.5l-.6.3h-.3v-.3h-.2l-.1.2h-.3l-.3-.2c-1.5 0-2.1.8-3.7.4l.5-.2-.7-.7h-1.5q-1.3 0-2 .5h-.1l-.6.3-.1.2q-.1-.3-.6-.4h-.4l-.1.1q.4 0 .5.3h-.2l-.6-.2q-.2.1-.2.3h-.2l-.8-.3h-.2q0 .2-.2.2-1-.5-2.5-.7l-1.6.1c-.3.4.5.5-.5.7-.4 0-.2-.3-.5-.3q0 .3-.2.5-.4 0-.6-.3-.3.1-.3.3h-.2v-.1l-.1-.3-1.2.6-.3-.2-.1-.5h-.2l-.2.4h-.1l-.3-.3c-.4.1-.2.4-.7.5v-.2l-.6.2-.7-.4h-.2l-.2.2c-.8 0-1.4-.4-2.3-.3q-.2.4-.8.6H423l-2-.1q-.9 0-1.5.2c0-.3.7-.3 0-.7h-.7c-.5.3-.1.7-.6 1h-.4l-.3-.3h-1.7v-.2c-.5-.1-11.4.2-13.2.2l-4-.1h-5.8q-8.7-.1-17.4.2h-14.5c-5 0-9.9.3-14.8.1-2.4 0-13.5-.4-15-.2l-.9.2h-.3V10c-1.5-.1-3.2.2-4.8 0l-1.8.1c-.8.2-1.8-.2-3 0l.4.1c-1.4 0-2.7-.4-3.7-.3q.3.2 1 .3l-2.4-.1 1.1-.2h-1.2q-.3 0-.4.3c-.8 0-2.3 0-2.7.2h-.1l.1.2q-.4 0-.6-.2l.6-.4-.2-.2h-.2l-.5.4-.4-.1h-.7q-.1-.3-.6-.4h-1l-.1.2h.4l-.2.2h-.3v-.2h-.2l-.2.3h-.2l-.1-.1-.2-.3h-.3v.1l-.4.2-.7-.1c0-.3-.7-.5-1.1-.8h-.2q0 .3.4.5h-.3q-.5-.2-1.1-.2h.2l.3.2-.2.1h-.2l-.3-.3-.7.1.4.1v.1l-.1.2h-.4.9l-.9.1h-3.1l-.3-.3h-.4l.1.3h-.3l-.2-.2q-.5 0-.8.2h-.3v-.2q0-.3-.6-.6l-.4-.1-1.1-.3-.2.2c.7.2.8 0 1.5.4v.2h-.3q-.1-.2-.6-.2h-.3v.3l-.5-.3h-1a58 58 0 0 0-9 0l-.5-.2-.2-.1-1 .2h-2.9q-.4.1-.5.4h-.9l-.7.1-.1-.1h-1.8l-1.6-.2-3.4-.1-.2-.1 2-.1h-1.9l-2.8-.2h-.4l-.2.2q0-.2-.4-.2h-.5l-.7.3-.6-.1.3-.1V9h-.8v.3h-1.2l.6-.3-1.1-.2v.3h-.6l.1-.2h-.2l-.8.3h-.1l.3-.3c-1-.1-2.5.1-3.6.2h-.3l-.8.2v.2h.9v.3h.1l.5-.3h1.8l.4.1-.4.3h.5l-1.2.1h-.3l-.1-.2-.5.3c-.8 0-1-.1-1.5-.3v.2h-2.5l-.3.1.1.1 2 .2c1.4.3 4 0 5.3.3l.3.5-1 .1h-.2.2l.6-.2V11h-.3c-.8 0-1-.1-2 .1l-1.3.2h-.2l.2.2h.2q1.3 0 2.5.2l-.1.1h4.9q4.3 0 8.6.3h3.2l1.5.1 9 .3h4q0 .2-.2.3l-1.2-.1-2.1.2-1.5-.1H284l-.4.2h-.1l-.2-.2h-.3l-.2.3h-.5v-.3h-.7l-.1.2h-.3l-.3-.2h-.7q-.3 0-.3.2c-.4 0-.1-.3-.7-.2l-.2.2-.3-.3-.3.4h-.5l.2-.3h-.4q-.3.3-1 .3h-.2l-.3-.3h-.2q-.3 0-.1.3l-1-.3v.2h-1.6l-.8-.1v-.1h-.5l-.2.2h-.3l-.3-.2-.5.2h-.9v-.2c-1.3-.2-3.9-.2-5.1 0l-1-.2h-2.3l-.1.1.5.3h-.1l-1.8.2c.4.3 1.4.3 2 .5-.8 0-.5-.2-1.4 0q.7.3 1.6.1l.1-.3c1 .2 1 .5 2 .4h.9v.1l-1.3.1 1.5.5q-1 .2-2.2.1h-.5l.2.2-.7.2h-.5q.1-.2.5-.3l-.9-.2-1.3.1h-4.8v.5h-.7l.6-.2-.3-.1h-1.2l-1 .2v.1h.9q-.1.3-.7.3l-1.2.2-.9-.2q0 .3.7.5h.3l.4-.1 1.2.3c-.6.2-1.6.3-1.8.6.7.2 2.1.3 3 .3h.3l.3-.1h.4q-.5.3-1.1.3l3-.1h.3v.2H255l-.2.1h1.2c.8 0 2 .1 2.7.3-1.8.3-4.5-.5-6 0l.4.1h3.3l-.2.1-.3.1.3.1h.2-2.5.8V18q-.9 0-1.5.2h.1l4 .4 1.2.2h.7l.2.1q.1.2-.4.3h-.1l-.5-.1h-1l-.7.4-1-.1h-1.2c1 .3 2.2.1 3.2.4-1 .3-2.9 0-3.2.6 1.2.4 7.7-.4 8.6.5h-2.6q-3.2.1-6.4 0c-1.6 0-3.3-.6-4.8-.4.3.2 2 .5 2.7.6q.5.1.6.4h-1l1 .4.5.1q-.3.4-.3.7l1.4.4v.2c-2 .5-7.6.1-8.8.5 2.1.4 5.3-.1 7.6.7 1.7 0 4.5 0 6 .3l.2.2h1l-1.2.1q-1.4 0-2.6.3c-1 0-1.4-.3-2.5-.1.9.2 2.4.1 3 .4l-.5.1c0 .2.9.5 1 .7-.9.3-2 0-2.7.2q.1.4-.5.5H253c-1 0-1.4-.2-2.5-.3h-5l-.4.2.3.2c.4 0 1.2.1 1.3.3.1.3.8.5 1.3.6v.2q-.5 0-.8.2h1q-.3.2 0 .3h-.3l-.5.1.4.1c.6.2.6.6 1.6.6h.5l1 .1-1.4.2.9.3.6-.1.7-.1q.7 0 1.2.3h.2l.5-.1h.2l1.6.1h.3l-.2.1h-1.1l.2.2h.3c-.6.2-1.8.2-2.5.4l2 .1h-.2l-.4.1.4.2-.1.1q-1.3.3-2.7.2l-.4-.1v-.2h-.3c-.3.1 0 .2-.2.4h-.4v-.2h-.4v.2c-1.1.2-1.6-.2-2.7.3l.7.1v.1c-1.3.1-5.5-.4-6.1-.2 1.2.2 6.2.4 6.8.6s2.3 0 2.4.3h-.7l.1.1h.5l1.2-.2.5-.2q1 0 1.8.2l.9.3h-2.4l-.3.1.1.1 2 .2 1.3.1-.1.1c1.1.2 1.4.1 2.2.4l-.5.1-1.3.2h-.2l.2.2h.2q1.3 0 2.5.2l-.1.1h4.9c.4.3 1.4.3 2 .5-.8 0-.5-.2-1.4 0q.7.3 1.6.1l.1-.3c1 .2 1 .5 2 .3h.9v.2l-1.3.1.8.3h-1.1v-.2c-1.3-.2-3.9-.2-5.1 0l-1-.2h-2.3l-.1.1.5.3h-.1c-.7.2-1.2 0-1.8.2l1 .3h-1.1l-1 .2v.1h.9q-.1.3-.7.3l-1.2.2-.9-.2q0 .3.7.5h.3l.4-.1 1 .3q-1.2 0-2.2-.2h-1.7v.2h-.3v.4h-.7l.6-.2-.3-.1H251l-1 .2v.1h.9q-.1.3-.7.3l-1.2.2-.9-.2q0 .3.7.5h.3l.4-.1 1.2.3c-.6.2-1.6.3-1.8.6.7.2 2.1.3 3 .3h.3l.3-.1h.4l-1.1.3 3-.1h.3v.2h-2.5l-.2.1h1.2c.8 0 2 .1 2.7.3-1.8.3-4.5-.5-6 0l.4.1h3.3l-.2.1-.3.1h.3l.2.2h-2.5q.2-.2.8-.1l-.1-.1q-.8 0-1.4.2h.1q2 .3 4 .3l1.2.3h.7l.2.1q.1.2-.4.3h-.1l-.5-.1h-3l1.3.3H252c1 .3 2.2.1 3.1.3-.8.4-2.8.1-3.1.7h4.4l.5.2-.2.4h-5c-1.7 0-3.4-.7-5-.6.4.3 2 .6 2.8.7q.5.1.5.4l-.9-.1 1.5.6-.1.3-1.3.1 1 .2.1.1 1.4.4v.2c-2 .5-7.6.1-8.8.5 2.1.4 5.3-.1 7.6.7 1.7 0 4.5-.1 6 .3l.2.2h1l-1.2.1-2.6.2c-1 .1-1.4-.2-2.5 0l2.3.2h-4.4l-.4.2.3.2c.4 0 1.2.1 1.3.3q.3.4 1.3.6v.2q-.5 0-.8.2h.7-1.2c-1 0-1.4-.2-2.5-.3h-5l-.4.2.3.2c.4 0 1.2.1 1.3.3.1.3.8.5 1.3.6v.2l-.8.1h.2l.8.1q-.3.2 0 .3h-.3l-.5.1.4.1c.6.2.6.6 1.6.5h.5q.6 0 1 .2l-1.4.2.9.3.6-.1.7-.1q.7 0 1.2.3h.2l.5-.1h.2l1.6.1h.3l-.2.1h-.8q-.6 0-1.4.3h.6l-1 .2c-1.8 0-4.5-.4-5-.2 1 .2 4.6.3 6.1.5h-.2l.4.2-.1.1q-1.4.3-2.7.2l-.4-.1V55h-.3c-.3.1 0 .2-.2.4h-.4v-.2h-.4v.2c-1.1.2-1.6-.2-2.7.3l.7.1c-1.3.2-5.5-.3-6.1-.1 1.2.2 6.2.4 6.8.6s2.3 0 2.4.3h-.7l.1.1h.5l1.2-.2.5-.2q1 0 1.8.2l2.2.6c-.2.2-.7.1-.7.3 1.2.2 1.5.1 2.4.5h.1l1.2-.2q.4 0 .7.2 0 .2.3.3h.6c.1.2-.5.3-.3.5h.6l.3-.4c1-.4 2.1-.2 3.6-.9h2.5l.8-.2h1.3-.1l.9.1h.2v-.1h.5l.2.1q.8 0 1.5.2h.5c-.2.2-.6.1-.3.4l.5.2h.2q.6-.5 1.6-.7h1.5l.4.6h.3l.2-.2c.8 0 2-.2 2.7 0q.4 0 .6.3l1-.2h.4v.1l.3.2-.2.2-.3-.3-.3.4h-.5l.2-.3h-.4q-.3.3-1 .3h-.2l-.3-.3h-.2q-.3 0-.1.2-.5 0-1-.3v.3h-1.6q-.6 0-.8-.2h-.5l-.2.2h-.3l-.3-.2-.6.2h-.8v-.2c-1.3-.2-3.9-.2-5.1 0l-1-.2h-2.4q0 .3.5.4h-.1l-1.8.2c.4.3 1.4.3 2 .4l-1.4.1q.7.2 1.6.1l.1-.3c1 .2 1 .5 2 .3h.9v.2H265c.3.3 1.5.4 1.5.6h-2.2l-.5.1.2.2-.7.1h-.5l.5-.2-.9-.2-1.3.1h-4.8v.5h-.7l.6-.2-.3-.1h-1.2l-1 .2v.1h.9q-.1.2-.7.3l-1.2.2-.9-.2q0 .3.7.5h.3l.4-.1 1.2.3c-.6.2-1.6.3-1.8.6l3 .3h.3l.3-.1h.4l-1.1.3 3-.1h.3v.2h-2.7l1.2.1c.8 0 2 .1 2.7.3-1.8.3-4.5-.5-6-.1l.4.2h3.3l-.2.1-.3.1h.3l.2.1h-2.5.8l-.1-.1-1.4.1h.1q2 .4 4 .4l1.2.3h.9q.1.3-.4.4h-.1l-.5-.1h-1l-.7.4-1-.2-1 .1h-.2c1 .3 2.2.1 3.1.3-.8.4-2.8.1-3.1.6 1.2.4 7.7-.3 8.6.6h-9c-1.6 0-3.3-.6-4.8-.5.3.3 2 .6 2.7.7q.5.1.5.4l-.9-.1 1 .4.5.2q-.3.3-.3.7l1.4.4v.2c-2 .5-7.6.1-8.8.5 2.1.4 5.3-.1 7.6.7 1.7 0 4.5-.1 6 .3l.2.2h1l-1.2.1-2.6.2c-1 0-1.4-.2-2.5 0 .9.2 2.4.1 3 .4h-.5c0 .3.9.5 1 .8-.9.3-2 0-2.7.2q.1.3-.5.5h-1.2c-1 0-1.4-.2-2.5-.3h-5l-.4.2.3.2c.4 0 1.2.1 1.3.3.1.3.8.5 1.3.6v.1l-.8.2h.2l.8.1q-.3 0 0 .3h-.3l-.5.1.4.1c.6.2.6.6 1.6.5h.5q.6 0 1 .2l-1.4.2.9.2h.6l.7-.1q.7 0 1.2.3h.2l.5-.1h.2l1.6.1h.3l-.2.1h-1.1l.2.1h.3c-.6.3-1.8.3-2.5.5h2l-.2.1-.4.1.4.2-.1.1q-1.4.3-2.7.2l-.4-.1V77h-.3c-.3.1 0 .2-.2.4h-.4v-.2h-.4v.2c-1.1.2-1.6-.2-2.7.3h.7v.2c-1.3.1-5.5-.5-6.1-.3 1.2.3 6.2.5 6.8.6.6.3 2.3 0 2.4.4h-.7v.1h.6l1.2-.2.5-.3q1 0 1.8.3l2.2.6q-.5 0-.7.3c1.2.2 1.5.1 2.4.5h.1q.5-.3 1.1-.2t.8.2l.3.3h.6c.1.2-.5.3-.3.5h.6l.3-.4c1-.4 2.1-.2 3.6-.9h2.5c.9 0 .8-.4 1.6-.5l.4.1v.3h1.1q0-.2-.3-.2h.8v.2l1.7.2h.5c-.1.2-.6.1-.3.4l.5.2h.2c.6-.3 1-.8 2.2-.8q.6 0 .9.2l.4.5h.3l.2-.2c.8 0 2-.2 2.7 0q.4 0 .6.3l1-.2h.4v.1l.5.2.7-.1q.4 0 .4.2l.2-.2h.5l.2.3c.7 0 3.9-.1 4.3-.3l.5-.2q.9.6 1 1.4h.1l1.2-.7q.3-.3.2-.6h.1l.5.1 1 .1-.2.3h.9l.4-.2.8.2h.3V80h.3l.1.4h.2l.9-.3q.6 0 1 .3l.1-.3q.8 0 1.5.3h.1q.5 0 .7-.2h.4l.8.1.5-.1h.4q.4 0 .7-.3h1l.7.2h.1v-.3l.6.2h.2q.5-.3 1.5-.3l.6.1-.6.5.3.1h.1v-.2h.2l.2.1q.3 0 .5-.2l.9.3.4-.1c.3-.2 0-.5 0-.6l.7.2h.4l.3-.2.5.4h.3l.1-.3.3.1.2.3q.4.2 1 .1.5 0 .9-.2h2.7l-.1-.4-.4.2q-.2 0-.2-.3h1.6l.4.1-.8.3h1.9l.5.1h.3l-.9-.3q.3-.2.7-.2l1 .1h.1l-.6.2.2.2 1.2.3.3-.1.3-.2 3 .1 1.7-.1 1 .3.3-.1h.3q-.1.2-.4.3-.5.3-.3.7h.6l.6.4-.2.1-.1.1.3.2.6-.3q.1-.2.5-.3-.3-.2-.4-.5c-.3.1 0 .4-.1.5h-.2q-.4-.2-.1-.5l.3-.4-.7-.3.1-.1h.9l1-.1.8-.1h.3l1 .1q.7.1.8.4l-.1.5.5.2c.3-.3-.4-.4.4-.6q1.4.4 2.8.4l2-1 .9.2h.2l1.3-.1c.8.2.4 1 1.2 1.4.7-.4-.2-1 .8-1.4h.4q.4.2.6.5c.3-.2.2-.3.6-.5q.7 0 1.3.2.6.1.8.6h.3l.4-.2 2.2.2-.2.3h1.2q.7 0 1.3.3c.4 0 .3-.3.7-.3l.1.2h.4q.4-.1.5-.4h.3c.3.2-.2.3.2.4l.6-.1-.3-.2h.2q.5 0 .8.3c.2-.3-.3-.7.2-.9h.6l.4.1h2.3q.8 0 1 .4l.2.4h.2l1.3-1h.5v.2q.1.3.6.5h.2l1-.3h2.7l.4.3h.2l.4-.1c.2.3 0 .9.8 1h.1l-.2-.2h.1q.4 0 .6.2l-.6.2h-.9l.1.1h1.2l.5.2.3-.3.4.2.6-.2q1.1-.6 3-.7.7 0 1.3.2l.2-.2q.7.4.6.7t-.2.2h-1q.7.3 1.6.3.3 0 .5-.2V82h.6q.6-.4 1.5-.5h.3v.5l.2.2h.3v-.1l.3-.1h1q.4.3 1.1.4.6 0 .9-.2l.2-.3h.2l.3.1c.6 0 .4-.3 1-.2l.7.3h.1q0-.3-.3-.4h.2l1 .6 1.5.1-.6-.2h1.1l.6-.1q0-.2-.6-.3l.5-.1v-.3h.2q.5.3.5.6h.8v.5h1v-.1h-.6q.1-.2.5-.3l.2.1 1 .1 1-.5h.3v.2h.2l.7-.2-.1.3 1-.4.3.1q.4.2.3.5h.9v-.1l1.5-.3q-.3.1-.3.4.6-.2.7-.5h.2q.4.2.1.6l.4-.2.4.1h.2v-.1l.1-.1.2.2h.1l.8-.4h1.4l1-.3 3 .7.9-.3-.4-.1h2.4l.1.4h.4q.4-.4.3-.7l.2-.1 1 .5 1 .2q.8 0 1.2-.3l.5-.2 1.2.2.8.2q0-.2.3-.5h.7v.4h.2q.2-.2.7-.3h.2c.6 0 .2-.1.7-.2l.4.2.5-.2h.5l.4-.4q.8 0 1.5.3h.9l.2-.1h.3l1 .3c.6 0 0-.4.3-.6q.8.4 1.8.5l-.2-.2.8-.1.7.2c1.1 0 1.6 0 2.5-.2h1.4l.4-.2 4.6.5.1-.1-.5-.2h1.2l.8.1h.2l.3.2h.9q1.8.6 4 .5l.6-.1-.6-.2-1.1-.4h-.2l-.5-.4q.2-.2.7-.3c1.7.1 1 1 2.3 1.2h.3l-.2-.2q.3-.2 1-.3c.6 0 .7.1 1.3.3q.2 0 .3-.2.2-.4 1-.6l.1.1q-.4.2-.4.4h.8v.3l-.7-.1-1.2.2q1 0 1.8.2h.3l.1-.1h.1l.2.2h.3l.4-.2 1.4-.1q.5 0 .6-.3t.5-.3h.4l-.2.7 7.8.4q.5.1.4.4h.7q.7-.3.8-.8-.5 0-.8.3c-.8-.5-1-.2-1.9-.3v-.1h.4q1.1 0 2-.3h1.4q.2 0 .2-.2h.3v.3q.7.1 1 .4l-.4.3h-1.3l.8.2q-.3.1-.3.4h.2c1.4 0 .8-.2 1.6-.4q0 .3.2.5c1 0 1.4-.2 2.3-.3h.2v-.1h-.7v-.1h.2l.8-.5q.7-.2 1-.1l.8.7h1.5l-.6-.2h.6v-.1l-.6-.3h1v-.2h-1l1.1-.2h.5l.1-.3.1.2h.6l.2-.2h.7l.1-.2h-2l-.3.3h-.3l-.3-.1-1 .2h-.2v-.3q-.5.1-.5.4h-.1q-.4-.3-1-.4h-.2q.5-.3 1.3-.5c-1.3 0-1.3.6-3 .3 1-.2 1 0 2-.4h.8l.4-.2c.8 0 1-.2 2 0l-.1.2h-.7l.1.1h1.1l-.7.3h.6c1.3-.2.8-.4 2.6-.4q1.4 0 2.5.2.2.2-.1.4l-1 .2q-.4 0-.3-.3h-.3l-.7.1v.5l.8-.1-.2.3c.3.1.2.2.7.2l.6-.1h.3q0 .2.2.3h.5l-.2-.2h.8l.2-.1c-.2-.3-1-.4-1.4-.6q.3-.2.7-.2l1.2.1q-.1-.2.2-.4h1.1q.5 0 .8.2l-.4.2.4.3h.3c.4-.2 0-.4.5-.6h1l-.6.3q-.2 0 0 .2l.7.2h.6l-.3-.3h.5l.4.1q.1-.3 1-.5l1.8.3-.4-.2 1-.2q.6 0 1 .2l.8.4-.4.2.3.1v.1h-.9l.3.3h.7l1.3.5v.3h.2l.4-.1-.2-.3q0-.2.4-.3h1.3l-.2-.2c.3-.2 1.2-.4 1.7-.5q0-.2.2-.3l.5.2c.6-.1.7-.5 1.2-.7h1.5l.3.1q-.6.1-.7.4h.7l-.3.3h.8c1 .3 1.4.1 2.5 0l.4.2.4-.1 1.2-.5h.3c-.1.2-.7.3-.9.5 1-.2 1.2.1 2 0q.2-.2 0-.4t-.9-.2l.5-.2q.9-.2 1-.6h.1l.9.1q.1.2-.4.4h.6q.3 0 .4-.2h.2l1.6-.2v.2l-1.4.3h-.2.6c1 0 .8-.3 1.5-.5l.8.1q-.5-.3-1.2-.3V80h.4q0-.3.3-.4l1-.2c.6.2.5.6 1.2.8h.9l.3-.1c.5-.2.7-.3 1.5-.4q-.4.3-.3.4h.3l.2-.1q.3 0 .5.2.2-.2 0-.5h1.1l1-.2-.3.3h.2c.9.1 1.2-.2 2-.3l-.5.2h.2q.5 0 .7-.2h.3v.2h1.2q.4 0 .6-.3h.2q.3.4.8.6l.6.2q.9 0 1.4-.4l1.6-.3h.3l-.3-.1.1-.1c.6 0 .6 0 1 .2q1.6 0 3-.3h.7l.4.4v.1q-.1.3.5.4c1.5 0 3.4-.2 4.8-.4l-2.4-.1-.1-.1.2-.1q.8 0 1.5-.2.5 0 .4-.3-.3 0-.3-.2l.6-.1-.6-.2h-.1l1.5-.2-.2-.2c0-.2 1.1-.4 1.6-.5l-.4-.1h-.9l-5.2-.3h.1-.3c1-.3 3-.3 4.4-.3l.5.2c.8 0 1-.4 1.9-.5v.1h-.4l-.5.4 1.2-.3h1.3l.3-.2h-.9q.3-.3.7-.2h.7l1-.1.9-.1.2.1c.5 0 .4 0 .7-.3l-.8-.1.7-.2-.7-.1c.4-.2 2.5-.2 3.1-.3 1 0 3.1-.3 3.6-.6-1.6 0-4-.4-4.6-.3h-1l-.2-.2.6-.1-.8-.2-2.5-.4 1.3-.1-1.2-.3.1-.2c-.8-.2-2-.2-2.8-.3q-1 0-1.8-.3l.8-.4h.8c-.2-.2-1-.2-1.4-.3v-.1c1.5-.4 2.6 0 4.1-.3V71h.5l.3.2q.3 0 .5-.3h-.1l-.6-.1h-7.9l.3-.1 3.7-.2h2.5l2.5-.1h.7l.2-.2c-1.2-.2-2.4.3-3.6-.3h-1.7c.4-.2 1 0 .9-.4h.8l-.3.2h.7l.6-.1q.6 0 .8.2h.5l1.8-.3-.4-.3h-.3l-.7.2c-.2-.1.1-.2-.3-.2l-.4.1h-.8l-1.3-.1h-.4l.5-.2c2.3-.2 5.5.2 7.2-.3h-1.2l-.6-.3-.3.2h-.2l-.3-.2-.7.3-.9-.1.2-.2h-1.5l.1.1h.8l-.1.2h-1.6.3l-.2-.2h.2l.1-.2-.5-.4c.7 0 1.8 0 2.4-.2l-1-.1-.9-.4h-2.7l1-.2c1.3-.2 3 0 4.2-.2v-.4h.2l.6-.3h-2.2l.3-.2-.4-.1h-.3l-.6-.1q.8-.2 2-.1l1-.2h-.3c-1-.4-3.2-.2-4.3-.1h-1.3l.2-.1.6-.2q.4 0 .4-.4l2.2-.2-.2-.1.9-.2c1-.1 1.4.2 2.3.2 1 .1 2.1-.3 3.2-.1l-.1.2h.1l.4-.2.9.1h1l-.6-.2h.8l1-.2.7-.2.5.1c.4-.1 1.6-.6 1.4-.8l-.3-.3.3-.2h-.5q1.2-.2 2.4-.1l-.3-.2h.1c1.7.3.7.5 1 .8h1.2v-.2h-.9l.1-.2-.6-.4.2-.1c.7 0 1 0 1.7-.2q-1.3-.2-2.7-.2v-.1h-.4q-.2.3-.8.2l-.2-.2.1-.2q0-.2-.5-.5-.1.2-.6.3h-.2l.2-.3h-.2q-1.3 0-2.5.2l-.5.1h-.7l-1-.3c-.7-.1-3.1.1-4.5-.2q-.3 0-.4-.2c.8-.5 2.9-.2 3.9-.5q-1-.1-1.6-.6l1-.1h.9q-.6 0-1-.2 1.5 0 2.8-.2h-2.4q-.6 0-1-.2h-.1l-.6.1q-1 0-1.8-.2h2.3v-.1l-1-.5h.4l1.4-.2-1.8-.1h-2.7l-.2-.2h-.4q-.4.3-.9.2v-.1l.2-.1 1-.4h-1.2l-.1-.4-.3-.3q.5 0 .8-.3 0-.2-.5-.3h-.3l-.7-.5h-.2q.3.3.2.5h-.3l-.4-.1v-.3l-.3-.2c1.7-.2 3.5 0 5.2-.2h2.2l1.3-.2-.6-.2h-3l7.2-.5-7.3-.1-4.2-.2.2-.1h-.3l.7-.3h.3q-.3 0-.4.3l1.2-.2 1.3-.2h.2q1.5-.1 2.6-.4h.1c.5 0 .4 0 .7-.3h-.8l.7-.3-.7-.1c.4-.2 2.5-.2 3.1-.3 1 0 3.1-.3 3.6-.5v-.1c-1.6 0-4-.4-4.6-.3h-1l-.2-.2.6-.1-.8-.2-2.5-.4 1.3-.1-1.2-.3.1-.2c-.8-.2-2-.2-2.8-.2L544 49l.8-.5h.8l-1-.3h-.4V48c1.5-.4 2.6 0 4.1-.3v-.2h.5l.3.2q.3 0 .5-.3h-.1l-.6-.1h-3.8l-.4-.2h-.3l-.7.2c-.2-.1.1-.2-.3-.2l-.4.1h-.8l2.8-.2h2.5l2.5-.1h.7l.2-.2h-2.8.1v-.2h-.5l-.4-.1h-1.5c.3-.2.8 0 .7-.4h.8l-.3.2h.7l.6-.1.8.2h.5l1.8-.3q0-.2-.4-.3h-.3l-.7.2c-.2-.1.1-.2-.3-.2l-.4.1h-.8l-1.3-.1h-.4l.5-.2c2.3-.2 5.5.2 7.2-.3h-1.2l-.6-.3-.3.2h-.2l-.3-.2-.7.3-.9-.1.2-.2H549l.1.1h.8l-.1.2h-1.6.3l-.2-.2h.2l.1-.1-.5-.5c.7 0 1.8 0 2.4-.2h-1q-.3-.3-.9-.5H546l1-.2c1.3-.2 3 0 4.2-.2v-.4h.2l.6-.3h-2.2l.3-.2-.4-.1h-.5l.4-.2.9.1h1l-.5-.1q.5 0 .8-.2l1-.1.6-.2.5.2c.4-.2 1.6-.7 1.4-1l-.3-.1h.5l-.1.2h.1l.4-.2.9.1h1l-.6-.2h.8v.3h1.2v-.2h-.9v-.2l.7-.1.7-.2.5.2c.4-.2 1.6-.7 1.4-1l-.3-.2.3-.2h-.5q1.2-.2 2.4-.1l-.3-.2h.1c1.7.3.7.5 1 .8h1.2v-.2h-.9l.1-.2-.6-.4.2-.1c.7 0 1 0 1.7-.2M524.3 21l1 .2h.5l.1-.3h.7l.2.2h.4l-.2-.2h4.3l.2.2 2.3-.3 10.7-.1-3.9.5-1.2.1h-2.7c-.5 0-.3-.3-.9-.2h-2.7l-.3.4h-2.9q-.2-.2-.4 0l-.9-.1-.5.2h-.7l-.2-.2h-1.5l-.6.2h-.1v-.2l-.5.2-.2-.1zm-265 13.7h-.3zl.6-.2v-.1h-1.2l.9-.1.6.1v.2zM259 37h-.4zm22.2 21.4q-.3 0-.3-.2l.5-.1h.3-.2zm1.3 0-.3-.2h-.3.6l.2.2zm1.3.1h-.2v-.2h.6v.2zm1-.1-.1-.1h.4-.3m1.4-.1h-.2l1-.2.5-.2q.3 0 .4.3zm4.1 0h-.3V58h.1l.5.1h.4zM545.8 66l-3.9.5h-1.5l-.8.1H538c-.5 0-.3-.3-.9-.3l-.4.1h-2.3q-.2.1-.3.4h-2.6l-.3-.1H530l-.5.2h-.7l-.2-.3h-.3v.2l-.6-.1h-.6l-.6.2h-.1v-.2l-.5.1h-.2v-.4l1 .1h.5v-.3h.8l.2.2h.4l-.2-.2h4.3l.2.2 2.3-.3zm-.8-23c-1-.1-3 0-4.1.1h-.7l-.3-.2h.5l.3-.2 7.6-.1zm4.2-1-.1.2-.3-.1z"/></svg>