<svg xmlns="http://www.w3.org/2000/svg" width="83" height="165" fill="none" viewBox="0 0 83 165"><path fill="#0ba6e2" d="M-1 149.5c-1-1.3-1-3.4-2-5 0-.1.4 0 .2-.4a14 14 0 0 1-1.7-6l.1.1c0-.4-.5-.7-.6-1l.2-.1c-.2 0-.3-.7-.5-.8l.2-.4-.3-.2c-.7-.4-.4-1.5-1-2.2h.2c-.8-1.2-1.2-3-1.8-4.4h.3q-.4-.1-.7-.9c.2-.2-.4-.6-.4-1.1-.3-.3 0-.5-.4-.7l.2-.3c-.4 0 0-.6-.3-.8l-.3-.6q-.1-1-.4-1c.2-.2.3.6.5.2q-1.3-2.9-2.1-5.8v-.5q0-.4-.4-.9v-.2c0-.4-.3-.3-.3-.8q0 .3.3.1l-.7-1h.2q-.3-.5-.4-1.1h.2c0-.6-.4 0-.5-.6l.2.1q-.6-.8-.8-1.7-.1-.7-.5-1.6c0-.3.3 0 .1-.6-.3.1-.4-1-.7-.5q0-1-.4-1.6c.2.2.3-.3.4 0l.1-.3.2.2c0-.2-.4-.7-.4-1q-.5-.3-1-1c.2.2.3-.3.4-.2l-.8-.6c-.1-.2.2-.1 0-.4l-.2-.1c0-.1-.4-.8-.1-1 0-.1.2.3.2 0l-.4-.7c0-.3-.3-.7-.4-.4 0 .2.2 0 .2.2q-.3-.2-.5-.9l.2.1-.9-1.4c-.1 0 .3 0 .3.2 0-.8-.8-1.4-.7-2h-.1v-.6l-.3-.4q-.1-.1.1 0c-.2-.2-.8-1.4-.8-2.2l-.5-.5h.2v-.7c-.4-.3.6 1.3.2 1 .2-.3-.5-.7-.2-.6l-.4-1s.4.2.3-.1l-.3-.5-.2-.2c-.2 0-.1-.5-.2-.2 0-.1-.4-.7 0-.7h.2q-.1-.3-.5-.4v-.1c-.3 0 0-.5-.4-.7 0-.5-.4-1.1-.2-1.4q-.4-.4-.5-1l.2.2q0-.3-.2-.5v-.9q-.2-.3-.4 0c.2-.5-.6-1-.4-1.5.1.1.4.5.4.2.2-.5-.5-.6-.5-1.1l-.3.2c.2-.3-.4-.7 0-.7-.2-.1-.1-.6-.4-.5 0-.9-.8-1.9-.4-2.6-.1 0-.2-.4-.3-.3l.1.4-.1-.1q-.1-.5.2-.3c0-.7-.7-.5-.8-1.2q.3 0 0-.3l-.2-.3q-.1-.6.4-.4l-.4-.6.1-.4c-.1.3-.2-.2-.3-.3l.1.1-.1-.5v.6l-.4-.4c.2 0 0-.5 0-.7l-.3-.3v-.2l.2.3q.2-.2 0-.5c-.2-.2-.4.2-.4-.3l.2.2v-.5h-.2.1c-.2 0-.3-.6-.5-.6V73l-.4-.7-.3-.6c0-.4.7-.3.4-.6q-.4-.5-.6-.3c-.1-.6-.6-1.2-.5-1.9l-.3-.1c-.2-1-.8-1.8-.7-2.7.2.3.2 0 .3 0-.2-.2.1-.4-.2-.4q-.2 0-.2.4-.5-1-.5-1.7 0 .2-.2 0 .4-.1 0-.7h-.2l.1-.2-.3-.4.2-.2q-.5-.4-.6-1l.1-.3q-.1-.3-.2 0v-1.3a8 8 0 0 1-1.7-3.4h.2c0-.3-.3 0-.3-.3.2 0 .2-.4.4-.2q-.2-.5-.5-.7c-.2 0 .2.2 0 .2-.1 0-.1-.7-.4-.7h.4l-.2-.3c.2-.4.7.6 1 .2l-.2-.3c.2-.3.5.6.4 0q-.4-.5-.6-.1c-.3-.6-.7-.1-.9-.7.1-.2.2.5.4.3q-.1-.6-.3-.8-.1.3-.5 0c0-.4.3 0 .2-.4-.1 0-.4-.4-.4 0-.3 0 0-.5-.3-.6.1-.2.6.3.6-.3-.2.2-.5-.5-.7-.1q0-.3.3-.2c0-.3-.6-.5-.2-.7h-.3l.2-.5c0-.2-.6-.6-.2-.7 0 0-.2-.6-.4-.3 0 .3.3.3 0 .6q.2-.4-.3-.7h.1q0-.3-.3-.4l.2-.1-.2-.1c-.3-.4.3-.2 0-.7l.3.3v-.4l-.7-.2c-.1-.2.2-.2 0-.4l.3.3v-.7q-.2-.5-.4 0l.1-.4c-.2-.4-.2.1-.4-.2l.2-1 .4.3v-.2c.3.2 0-.2.4-.2l-.3-.4c-.2.6-.7-.4-1-.1-.3-.6.7-.7 0-1.2-.1.2-.5 0-.2.3-.1-.4-.5-.1-.5-.7.3.3.2-.5.6 0v.4c.2-.3.5-.1.3-.5q0-.6-.4-.5c-.2 0 .2.4 0 .3-.3-.5 0-.7-.5-.8q.2.5-.2.5l-.2-.3h.2c-.1-.6-.3 0-.5-.6l.2-.4c.3 0 .2.9.5.6l-.3-.8.1.3c0-.2.5-.5 0-.9q-.2-.2-.3 0-.3-.7-.6-1c.3 0-.2-.7.3-.4-.1.2.1 1 .5 1.2.2-.3 0 .5.5.5-.2-.5.2-.6.3-.7l-.2-.3-.3.2q-.3-.8-.7-1.2 0-.3.3 0l-.6-2c-.2.6-.2-.5-.4-.2q0 .6-.4.6c0-.2.2 0 .2-.2-.2-.2.2-.5-.2-.6.3.5.5 0 .8 0-.3-.4.1 0 0-.5l-.7-1.2q-.2-1.2-.7-2c0-.3.4-.2.4-.5-.1-.4-.3.3-.3-.2 0-.1 0-1-.5-1h.4l-.2-.2h.3q0-.6-.4-1v.3l-.6-1.6h.2l-.2-.3q.3-.1 0-.4l.7.7c0 .3-.3-.2-.4 0q-.1.5.3.7 0-.2-.2-.3.3-.1.5.2v-.2l.3.7c-.2-.2-.1.1-.2 0q.3 0 .5.8c-.2.4.4.7.5 1.2q-.5-.2-.8-.6l.1.7q.3 0 .8.5h-.2c.2.4.5.3.6.8q.2 1.3.6 2.2l-.2.1c.5.2.5 1.1.8 1.5.1.8.7 1.6.6 2.1l1.4 3.9-.3-.2c.3.2 0 .2 0 .5.1-.4.4.2.6.4q.2 1 .8 1.9h-.1c.5.5.4 1.3.6 2q-.2.1 0 .5l.7 1 .3 1.5c.9 1.4 1.1 3 1.9 4.6l-.2.1c1 1.4 1.2 3.5 1.8 4.7h-.4q.1.8.6.7c0 .5.5 1 .3 1.3l.5.8.6 2v-.2q-.3 0-.2.2c.2.2.2 1.1.5.7 0 .9.9 1.9.8 2.8l.3.2q.2 1.2.6 2.1c0 .2-.2-.1-.1.2 0 .2.1 0 .3.2.6 1.1.5 2.5 1 3.6l2 5.8h-.1c.5.5.2 1.5.8 1.9v.5c.3.4.2 1.5.7 2.1l-.1-.2c0 .8.5 1.4.6 2.2l-.2-.2c0 .4.5.6.2.9q.1.2.2 0 .7 2.6 1.9 5.1c.1 1.4-.7.3 0 1.2.3.4-.2.8 0 1q.4-.1.4.1c.1.8 0 1 .3 1.6h-.1c.6.6.7 1.5 1.3 2l4 11.3q2 5.6 3.6 11.4c0 1 0 1 .4 2h-.1c.3 0 .2.7.5.7l1.4 4.1q-.3-.3-.2 0l.2.3q.1.4.3.2c1.4 3.5 2 7.3 3.2 10.9l1 3q.7 4.1 2.3 8.1s-.9-.1-1.4-1.2M1 13.6l-.1-.3.2.3M40.5 136c-1-1.2-1-3.3-2-4.8 0-.2.4 0 .1-.5-1-1.4-1.4-4-1.7-6l.2.1c0-.3-.6-.7-.6-1l.2-.1c-.3 0-.4-.7-.6-.8l.2-.4-.2-.2c-.8-.4-.5-1.5-1-2.2h.1c-.7-1.2-1.2-3-1.8-4.4h.3q-.4-.2-.6-.9c.2-.2-.5-.6-.5-1.1-.3-.2 0-.5-.3-.7v-.3c-.3 0 0-.6-.2-.8l-.2-.6-.4-1c.1-.2.2.6.4.2q-1.3-2.9-2-5.8v-.5l-.5-.9.1-.2c0-.4-.4-.3-.4-.8q.1.3.3.1-.4-.4-.6-1h.2c-.4-.3-.2-.8-.5-1.1h.2c0-.6-.4 0-.4-.5h.2q-.6-.8-.9-1.7-.1-.7-.5-1.6c0-.2.4 0 .1-.6-.3.1-.4-1-.6-.5q-.2-1-.5-1.6c.2.2.3-.3.5 0v-.3l.3.2q-.3-.4-.4-1-.7-.3-1-1c.2.2.2-.3.4-.2L25 91q.2-.1 0-.4l-.2-.1c0-.1-.4-.8 0-1 0-.1 0 .3.1 0l-.3-.7c0-.2-.3-.7-.4-.3 0 .1.1-.2.1.1q-.3-.2-.5-.9l.2.1-.9-1.4c-.1 0 .4 0 .3.2 0-.8-.7-1.4-.6-2h-.2V84l-.3-.4q0-.1.2 0c-.3-.2-.9-1.4-1-2.2l-.4-.5h.2v-.7c-.4-.3.6 1.3.3 1 0-.3-.6-.7-.3-.6 0-.4-.4-.6-.3-1q.2.2.2-.1l-.3-.5-.2-.2c-.1 0 0-.4-.2-.2.1-.1-.3-.7 0-.7h.2q-.1-.3-.5-.4l.1-.1c-.4 0-.1-.5-.5-.7l-.2-1.4-.5-1 .2.2q0-.3-.2-.5l.1-.9c-.2-.3-.4 0-.5 0 .3-.5-.5-1-.3-1.4 0 0 .3.4.3 0 .3-.3-.5-.5-.5-1l-.2.2c.1-.3-.4-.7-.1-.7-.2-.1 0-.6-.4-.5 0-.9-.8-1.9-.4-2.6 0 0-.1-.4-.3-.3l.2.4-.2-.1q0-.5.3-.3c0-.7-.7-.5-.9-1.2q.3 0 .1-.3L16 65q0-.6.4-.4-.1-.5-.4-.6l.2-.4c-.2.3-.2-.2-.3-.3v.1-.5q-.3.2-.1.6l-.4-.4c.2 0 0-.5 0-.7l-.3-.3.1-.2.1.3v-.5c-.2-.2-.4.2-.4-.3l.3.2V61H15c-.2 0-.2-.6-.5-.6v-.7l-.3-.7-.3-.6c0-.4.6-.3.3-.6q-.3-.5-.6-.3c0-.6-.6-1.2-.5-1.9l-.2-.1c-.2-1-.9-1.8-.7-2.7.1.3.2 0 .3 0-.3-.2 0-.4-.3-.3q-.2 0-.2.3-.4-1-.4-1.7 0 .2-.3 0 .4-.1 0-.7h-.1v-.2q-.2 0-.2-.4l.1-.1-.6-1 .2-.4q-.2-.3-.3 0V47a8 8 0 0 1-1.6-3.4h.1c0-.3-.3 0-.2-.3q0-.2.3-.2-.1-.4-.5-.7c-.2 0 .2.2 0 .2-.1 0-.1-.7-.4-.6q.1-.3.4-.1l-.2-.3c.2-.4.8.6 1 .2l-.1-.3c.1-.3.5.6.4 0q-.6-.5-.7-.1c-.3-.6-.7-.1-.8-.7 0-.2.1.5.3.3.1-.4-.3-.6-.3-.8q-.1.3-.4 0c0-.4.3 0 .2-.4-.2 0-.4-.4-.4 0-.4 0 0-.5-.4-.6.2-.2.7.3.6-.3-.2.2-.5-.4-.7 0q0-.5.3-.3c0-.3-.6-.5-.2-.7H7l.1-.5c0-.2-.5-.6-.2-.7 0 0-.2-.6-.4-.3 0 .3.3.3 0 .6q.2-.4-.3-.7h.2q-.1-.3-.4-.4l.2-.1-.2-.1c-.3-.4.3-.2 0-.7l.4.3-.1-.4-.6-.2c-.2-.2.1-.2-.1-.4l.3.3v-.7c0-.2-.4-.4-.4 0q0-.4.2-.4c-.2-.4-.2.1-.4-.2l.2-1 .4.3-.1-.2c.3.2.1-.2.4-.1l-.2-.5c-.3.6-.8-.4-1-.1-.4-.6.7-.7-.1-1.2 0 .2-.5 0-.2.3-.1-.4-.5-.1-.5-.7.3.3.3-.4.7 0q-.2.1 0 .4c.1-.3.4-.1.3-.5q-.3-.6-.4-.5c-.2 0 .1.4-.2.3-.2-.5.1-.7-.3-.8q0 .5-.2.5l-.3-.3H4c0-.6-.3 0-.4-.6l.1-.4c.3 0 .2.9.6.6q-.3-.3-.4-.8l.2.3c0-.2.4-.5 0-.9q-.3-.1-.4 0l-.5-1c.3 0-.2-.7.2-.4-.1.2.2 1 .5 1.2.3-.3.1.5.5.5q-.1-.7.4-.7l-.2-.3q-.3 0-.4.3-.2-.9-.7-1.3.1-.3.4 0-.5-1-.6-1.9c-.2.5-.3-.6-.5-.3q0 .7-.3.6l.2-.2c-.3-.2.1-.5-.2-.6.2.5.4 0 .7 0-.3-.4.2 0 0-.5l-.7-1.2q-.2-1.1-.7-2l.4-.5c-.1-.4-.2.3-.3-.2H2c-.1-.1 0-1-.6-1h.4l-.2-.2h.3q0-.6-.3-1l-.2.3-.5-1.5H1L.8 15q.3-.1 0-.4l.7.7c0 .3-.3-.2-.4 0s.1.7.3.7q0-.2-.2-.3.2-.1.5.2v-.2l.3.7c-.1-.2 0 .1-.2 0q.3 0 .5.8c-.2.4.4.7.5 1.2q-.5-.2-.7-.6v.7q.5 0 .8.5h-.2c.2.4.5.3.6.8l.6 2.2-.2.1c.5.2.5 1.1.8 1.5.1.8.8 1.6.6 2.1l1.5 3.9-.4-.2c.3.2 0 .2 0 .5.2-.4.4.2.6.4q.1 1.1.9 1.9h-.2c.5.5.4 1.3.6 2v.5l.7 1q.3.7.3 1.5c1 1.4 1.2 3 2 4.6l-.2.1c.9 1.4 1.1 3.5 1.7 4.7h-.3q.2.8.6.7c0 .5.5 1 .3 1.3q.1.5.4.8l.6 2v-.2q-.2 0-.2.2c.2.2.3 1.1.6.7 0 .9.8 1.9.7 2.8l.3.2.7 2.1c0 .2-.3-.1-.2.2l.3.2c.6 1.1.6 2.5 1 3.6.8 1.8 1.4 4 2 5.8.4.5 0 1.6.7 1.9q.2.5 0 .5c.4.4.2 1.5.7 2.1v-.2l.5 2.2-.2-.2c0 .4.6.6.2 1q.3 0 .2-.1.8 2.6 2 5.1c0 1.4-.7.3-.1 1.2q.2 0 0 0c.3.4-.2.8.1 1q.2-.1.4.1c0 .8-.1 1 .3 1.6H24c.6.6.7 1.5 1.3 2l4 11.3q2 5.6 3.7 11.5c0 1 0 1 .4 2 .2 0 .2.7.5.7l1.3 4.1q-.2-.3-.2 0l.2.3q.1.4.3.2c1.4 3.5 2 7.3 3.3 10.9q.3 1.4 1 3 .6 4.1 2.2 8.1s-.8-.1-1.4-1.2M1.3 14c-.1.2-.1.6-.4.4q.1-.2.4-.3"/><path fill="#0ba6e2" d="M2.6 23v.2l-.2-.2zm.6 2.3-.4-.7zm.2 2.2q0 .3-.2-.1zm.3 0v.4s-.2-.4 0-.4M4.8 32l.1.5q-.2-.4-.1-.5m.8 2 .1.2h-.2zm12.6 37.1L18 71zm5.3 16.4q.1.3-.1.2.2-.1 0-.2m3.6 8.6h-.1zM55.2 42c.4-.2-.3-.2.3-.2q0 .2-.3.2M-67.3 81.4c1.2-1 3.4-1 4.9-2 .1 0 0 .4.4.2 1.4-1 4-1.5 6-1.8l-.1.2c.4 0 .7-.5 1.1-.6v.2c0-.3.7-.3.8-.5l.5.2.1-.3c.4-.8 1.5-.5 2.2-1v.1q2.1-1 4.4-1.8v.3q.1-.3 1-.6c.2.2.5-.5 1-.5.3-.3.6 0 .8-.3l.2.1c0-.4.6 0 .8-.3l.7-.2q1-.3.9-.4c.2.1-.6.2-.1.5q2.8-1.3 5.8-2.2l.4.1.9-.4h.3c.4 0 .3-.4.7-.4q-.2.1 0 .3.4-.4 1-.6v.2c.3-.4.7-.2 1-.5v.2c.6 0 0-.4.6-.4v.2c.3-.4 1.2-.6 1.6-.9v.1l1.7-.6c.2 0 0 .4.5.2 0-.3 1-.5.5-.7l1.6-.5c-.2.2.3.3 0 .5h.3l-.2.3 1-.4q.3-.6 1.1-1c-.2.2.3.3 0 .4l.7-.9q.2.2.4 0l.2-.2s.8-.3 1 0c0 0-.4.1-.1.1s.3-.2.7-.3.7-.3.4-.4c-.2 0 .1.1-.2.1q.3-.3 1-.5-.2 0-.2.3.7-.6 1.5-1c0-.1-.2.4-.3.3.8 0 1.4-.7 2.1-.6l-.1-.2h.6l.5-.2q0-.2-.1 0c.2-.1 1.5-.7 2.3-.8l.5-.5v.2h.6c.3-.4-1.3.6-.9.3.2.1.6-.5.6-.2q.4-.4 1-.4-.2.2 0 .2c.5-.1.2 0 .5-.3l.2-.1c0-.2.5-.2.2-.3.1.1.7-.3.8 0v.3l.4-.6v.1c0-.4.6-.1.7-.5l1.4-.2 1-.5-.2.2q.3 0 .5-.2l1 .1q.2-.3 0-.5c.4.3.9-.5 1.4-.3q-.3.1-.1.3c.4.3.5-.5 1-.4l-.2-.3c.3.1.7-.4.7 0 .2-.3.7-.2.5-.5.9 0 2-.7 2.6-.4q.3 0 .3-.2c-.3-.1-.2.2-.3 0v-.1q.5 0 .4.3c.6 0 .4-.7 1.1-.8h.3l.3-.3q.6 0 .5.4.4-.1.6-.4l.4.2c-.3-.2.1-.2.2-.3h.4q-.2-.2-.6-.1l.5-.4c0 .3.4 0 .6 0l.3-.3c0 .1.4 0 .2.1l-.3.1h.5c.2-.2-.2-.4.3-.4q0 .2-.2.3h.5v-.2c0-.2.6-.2.6-.5H9q.5 0 .7-.3.4 0 .6-.3c.4 0 .4.7.6.3q.6-.3.3-.6c.6 0 1.2-.6 1.9-.5l.2-.2c.9-.2 1.8-.8 2.6-.7v.3c.2-.2.4 0 .4-.2q0-.3-.4-.3 1-.4 1.7-.4-.1-.1 0-.2.2.3.7 0V52h.3q0-.2.3-.2l.2.1q.4-.5 1-.6l.3.2q.4-.2.1-.3h1.2c.9-.8 2.3-1.3 3.4-1.6v.1c.4 0 .1-.2.4-.2 0 .1.3.1 0 .4.6 0 .6-.4.9-.6 0-.1-.2.2-.3 0 0 0 .7 0 .7-.4q.2.2 0 .4l.3-.2c.4.2-.6.8-.1 1l.2-.1c.3.2-.6.5 0 .4q.5-.5.2-.7c.5-.2 0-.7.7-.8.2 0-.5.2-.3.3s.5-.3.8-.3q-.4-.1 0-.4c.3 0-.1.3.3.2 0-.2.4-.4 0-.4 0-.4.5 0 .7-.4.2.2-.3.7.2.6-.2-.2.5-.5.1-.7q.3 0 .2.3c.3 0 .5-.6.8-.2v-.2l.4.1c.2 0 .7-.5.8-.2 0 0 .6-.2.3-.4-.4 0-.4.3-.6 0 .3.3.4-.1.6-.2q.3 0 .5-.2v.1l.1-.2c.5-.2.3.3.7.1l-.3.3h.5l.1-.7c.3-.2.2.1.4-.1l-.3.3.7.1q.5-.3 0-.5.4 0 .4.2c.4-.2 0-.2.2-.4l1 .2-.3.4h.3c-.3.2.2 0 0 .3l.6-.2c-.6-.3.3-.7 0-1 .7-.4.7.7 1.2-.1-.1 0 .1-.4-.3-.2.4 0 .2-.5.7-.5-.3.3.5.3 0 .7h-.3c.2.1 0 .4.5.3q.4-.2.4-.4c0-.2-.3.1-.2-.1.4-.3.6 0 .7-.4q-.5.1-.5-.2l.3-.2v.1c.6 0 .1-.3.7-.4l.3.2c0 .2-.8.1-.6.5l.8-.4-.2.2c.1 0 .4.4.8 0 .3-.2 0-.2 0-.3l1.1-.6c0 .3.7-.2.3.2-.2-.1-1 .2-1.2.5.4.3-.4.1-.5.5q.6 0 .7.4l.3-.2-.2-.4q.8-.2 1.2-.7.3.1 0 .4 1-.5 2-.6c-.5-.2.6-.3.2-.5q-.6 0-.5-.3l.1.2c.2-.3.5.1.7-.2-.6.3 0 .4 0 .7.3-.3 0 .2.4 0l1.3-.7c.6 0 1.4-.5 2-.6.2 0 .2.4.5.3s-.4-.2.2-.2c0 0 1 0 1-.5l-.1.3.2-.1q.2 0 0 .2c.4.2.7-.2 1-.3l-.2-.1c.5-.4 1-.3 1.5-.6v.2l.3-.2q.1.3.5 0l-.7.8c-.3 0 .1-.4 0-.5q-.5 0-.8.3l.4-.2q0 .3-.3.6l.3-.1-.7.3c.2-.1-.2 0-.1-.2q0 .4-.7.5c-.4-.2-.8.4-1.3.5q.2-.4.6-.7h-.7q0 .5-.5.8v-.1c-.4.2-.3.4-.8.5l-2.2.6v-.1c-.3.4-1.2.5-1.6.8-.8 0-1.6.7-2 .5l-4 1.5.2-.3c-.2.2-.2-.1-.4 0 .3 0-.3.3-.4.6q-1.2.1-2 .8v-.2q-.8.6-2 .6H34q-.3.4-1 .7t-1.6.3c-1.4 1-3 1.2-4.5 2l-.2-.2c-1.4.9-3.4 1.1-4.7 1.8v-.4q-.8.1-.7.6c-.4 0-1 .5-1.3.3q-.5.1-.8.5c-.9.1-1.2.2-2 .6h.2q.1-.3-.1-.3c-.3.2-1.2.3-.7.6-1 0-2 .8-2.9.8l-.1.2-2.2.7q0-.2-.2-.2l-.1.3c-1.2.6-2.5.6-3.6 1l-5.8 2c-.6.5-1.6.1-2 .7h-.5c-.4.4-1.4.2-2 .7-.7 0-1.3.5-2 .5l.1-.2c-.3 0-.6.6-.9.3v.1q-2.5.8-5.1 2c-1.3.1-.3-.7-1.2-.1q0 .2 0 0c-.4.3-.8-.1-1 .1.2.2-.1.2 0 .4-.9 0-1.1 0-1.7.3v-.2c-.5.6-1.4.7-1.9 1.3q-5.8 2.2-11.4 4-5.6 2-11.3 3.6c-1 0-1 0-2 .5V74c0 .3-.7.3-.7.6l-4.2 1.4q.4-.3 0-.3l-.2.3-.1-.1q-.4.2-.1.3c-3.6 1.4-7.4 2-11 3.3l-3 1q-4.2.6-8 2.2s0-.8 1.2-1.4M54.6 42.2q-.3 0-.2-.4z"/><path fill="#0ba6e2" d="M45.7 43.5h-.2l.3-.1zm-2.2.7q.1-.3.7-.5zm-2.2.1q-.3 0 0-.2zm-.1.3h-.4c0 .1.4-.2.4 0m-4.5 1.1-.4.1c.1 0 .4-.3.4 0m-2 .8h-.2l.1-.2zm33.9 36.8c.4-.2-.3-.1.2-.2q0 .2-.2.2M-54 122.9c1.3-1.1 3.5-1.1 5-2 .1-.1 0 .3.4 0 1.4-.9 4-1.4 6-1.6l-.1.1c.4 0 .7-.5 1.1-.6v.2c0-.2.7-.3.8-.5l.5.2.1-.3c.4-.7 1.5-.4 2.2-1v.2q2.1-1.1 4.4-1.9v.4q.1-.4 1-.7c.2.2.5-.4 1-.4.3-.3.6 0 .8-.4l.2.1c0-.4.6 0 .8-.2s.4-.1.7-.3q1-.1.9-.4c.2.1-.6.3-.1.5q2.8-1.3 5.8-2.1h.4c.2 0 .8-.2.9-.4h.3c.4 0 .3-.4.7-.4q-.2.3 0 .3.4-.4 1-.6v.2l1-.5v.2c.6 0 0-.3.6-.4v.2q.6-.5 1.6-.8l1.6-.6c.3 0 .1.4.6.2 0-.3 1-.5.5-.7q1-.1 1.6-.4c-.2.2.3.3 0 .4l.3.1-.2.2 1-.4q.3-.6 1-1c-.2.2.4.3.2.4l.6-.9q.2.2.4.1l.2-.3s.8-.3 1 0c0 0-.4.1-.1.2.4-.2.3-.3.7-.4q.6-.1.4-.4c-.2 0 .1.2-.2.2q.3-.5 1-.6l-.2.3 1.5-1-.3.4c.8 0 1.4-.8 2-.7v-.2q.4.2.6 0l.5-.2-.1.1c.2-.2 1.5-.8 2.3-.9l.5-.5v.3H2c.3-.4-1.3.6-.9.2.2.1.6-.5.6-.2q.4-.3 1-.4c-.1 0-.2.4 0 .3.5-.2.1-.2.5-.4l.2-.1c0-.2.5-.1.2-.3.1.2.7-.3.8 0v.3l.4-.5c0-.3.6 0 .7-.4.5 0 1.1-.4 1.4-.2q.4-.4 1-.5l-.2.2q.3 0 .5-.3l1 .1v-.5c.4.3.9-.5 1.4-.3-.1 0-.4.3-.1.3.4.3.5-.4 1-.4l-.2-.3c.3.1.7-.4.7 0 .2-.2.7-.1.5-.4.9 0 2-.8 2.6-.4q.3-.1.3-.3l-.3.1v-.2q.5 0 .4.3c.6 0 .4-.7 1.1-.8q0 .2.3 0l.3-.3q.5 0 .5.4.4 0 .6-.4l.4.2c-.3-.1.1-.2.2-.3v.1l.4-.1q-.1-.2-.6-.1l.5-.3h.6q.3-.1.3-.3s.4-.1.2 0l-.3.1c.2 0 .2.3.5 0 .2-.1-.2-.3.3-.4l-.2.3h.5v-.2c0-.2.6-.2.6-.4h.7q.5 0 .7-.4.4 0 .6-.3c.4 0 .3.7.6.3.4 0 .5-.5.3-.6.6 0 1.2-.6 1.9-.4q0-.2.2-.3c.9-.2 1.8-.8 2.6-.7q-.2.2 0 .3c.2-.2.4.1.4-.2q0-.3-.4-.2 1-.5 1.7-.5-.1 0 0-.2.2.4.7 0v-.2l.3.1s0-.4.3-.3l.2.1q.4-.5 1-.5l.3.1q.5-.1 0-.3h1.3q1.6-1.2 3.4-1.6v.1c.4 0 .1-.2.4-.2-.1.1.3.2 0 .4.6 0 .6-.4.9-.5 0-.2-.2.1-.3 0 0-.2.7-.2.7-.4q.1 0 0 .4l.3-.2c.4.1-.6.7-.1 1l.2-.2c.3.2-.6.5 0 .4q.5-.4.2-.7c.5-.2 0-.6.6-.8.3 0-.4.2-.2.4l.8-.4q-.4-.1 0-.4c.3 0-.1.3.3.2 0-.2.4-.4 0-.4 0-.3.5 0 .7-.4.2.2-.3.7.2.7-.2-.2.5-.5.1-.8q.3 0 .2.4c.3 0 .5-.6.8-.2v-.3l.4.2c.2-.1.7-.6.7-.2.1-.1.7-.3.4-.4-.4 0-.4.3-.6 0 .3.2.4-.2.6-.3v.1q.3 0 .5-.3v.2l.1-.3c.5-.2.3.3.7.1l-.3.3h.5l.1-.7c.3-.1.2.2.4 0l-.3.2q0 .3.7.1c.2-.1.4-.5 0-.4q.4-.1.4.1c.4-.2 0-.2.2-.4l1 .2-.3.4h.3c-.3.3.2 0 0 .4q.4 0 .6-.3c-.6-.3.3-.7 0-1 .6-.3.7.7 1.2 0-.1-.1 0-.5-.3-.3.4 0 .2-.4.7-.4-.3.2.5.2 0 .6h-.3c.2.1 0 .4.5.3q.4-.1.4-.4c0-.2-.3.1-.2-.1.4-.3.6 0 .7-.4q-.5.1-.5-.2l.3-.2v.2c.6-.1.1-.4.7-.5l.3.2c0 .3-.8.2-.6.5l.8-.3-.2.1c.1 0 .4.5.8 0 .3-.2 0-.2 0-.3l1-.6c.1.3.8-.2.4.2-.2 0-1 .2-1.2.6.4.2-.4 0-.5.4q.7 0 .7.4.3 0 .3-.2l-.2-.4q.8-.2 1.2-.6.3 0 0 .3 1-.5 2-.6c-.6-.2.6-.3.2-.5q-.6 0-.5-.3l.1.2c.2-.3.5.2.7-.2-.6.3 0 .4 0 .7.3-.2 0 .2.4 0l1.3-.7 2-.6c.2 0 .2.4.5.3.3 0-.4-.2.2-.2 0 0 1 0 1-.5l-.1.4.2-.2q.2 0 0 .3.6-.1 1-.4l-.2-.1 1.5-.5v.2l.3-.3q.1.4.5 0l-.7.8c-.3 0 .1-.3 0-.5-.2 0-.8.1-.8.3l.4-.2q0 .4-.3.6l.3-.1-.7.4c.2-.2-.2-.1-.1-.2q0 .3-.7.4c-.4-.1-.8.5-1.3.5l.6-.7-.7.1q0 .3-.5.8V85c-.4.2-.3.4-.8.5l-2.2.7V86c-.3.5-1.2.5-1.6.8-.8 0-1.6.7-2 .5q-2 .9-4 1.5l.2-.3c-.2.2-.2-.1-.4 0 .3.1-.3.4-.4.6q-1.1.2-2 .8v-.2q-.8.6-2 .7l-.4-.1-1 .8-1.6.3c-1.4.9-3 1.1-4.5 1.9l-.2-.2c-1.4 1-3.4 1.1-4.7 1.8v-.4q-.8.2-.7.6c-.4 0-1 .5-1.3.3q-.5.1-.8.5c-.9.1-1.2.3-2 .6h.2q.1-.3-.1-.3c-.3.2-1.2.3-.7.6-1 0-2 .8-2.9.8l-.2.3q-1.2.2-2 .6c-.2 0 0-.2-.3-.1l-.1.2c-1.2.6-2.5.6-3.6 1q-3 1.2-5.8 2c-.6.5-1.6.1-2 .8h-.5c-.4.3-1.4.2-2 .7v-.1c-.7 0-1.3.5-2 .6l.1-.2c-.3-.1-.6.5-.9.2v.2q-2.6.8-5.1 1.8c-1.3.2-.3-.6-1.2 0v.1c-.4.3-.8-.2-1 0 .2.3-.1.3 0 .4-.9.1-1.1 0-1.7.3v-.1c-.5.6-1.4.6-1.9 1.2l-11.4 4.1-11.3 3.5c-1 0-1 0-2 .5v-.1c0 .3-.7.2-.7.5l-4.2 1.4q.4-.3 0-.3l-.2.3h-.1q-.3 0-.1.3c-3.6 1.4-7.4 2-11 3.2l-3 1c-2.8.6-5.4 1-8 2.2 0 0 0-.8 1.2-1.3M68 83.6q-.3 0-.2-.3z"/><path fill="#0ba6e2" d="M59 85q.1-.2.3-.2zm-2.1.6.7-.5zm-2.2.1q-.3 0 0-.1zm-.1.3h-.4c0 .1.4-.2.4 0m-4.5 1.1-.4.2c.1 0 .4-.4.4-.2m-2 .9H48zM11 100.5l.2-.1v.1z"/></svg>