<svg xmlns="http://www.w3.org/2000/svg" width="305" height="49" fill="none" viewBox="0 0 305 49"><path fill="#000" d="M113.997 5.743c1.462.046 3.134-.007 4.612-.02-.081 1.21-.081 11.837.195 12.596.997.26 1.2-.746 1.812-1.343 5.722-5.611 16.109-1.075 16.794 6.7.426 4.835.409 7.629-2.571 11.614-1.933 2.295-5.35 3.64-8.311 3.5-2.388-.113-3.801-1-5.845-2.023-.378-.762-.719-1.678-1.617-1.906-.816.564-.085 2.376-.654 3.1-.931.268-3.376.202-4.474.226.142-1.645.149-3.637.109-5.293-.217-8.96.332-18.221-.05-27.15m11.857 29.05c5.894-.78 7.666-4.845 6.914-10.24-.262-1.88-1.253-3.416-2.778-4.507a8.18 8.18 0 0 0-4.514-1.508c-5.549 1.064-7.753 4.863-6.779 10.335.696 3.916 3.469 5.456 7.157 5.92"/><path fill="#000" fill-opacity=".988" d="M198.396 5.157q.432-.037.864-.052c3.409-.136 7.5.478 10.059 2.915 2.796 2.663 2.716 5.427 2.857 8.91-1.544-.12-3.475-.119-5.049-.16a307 307 0 0 0-.129-4.07c-.469-.753-1.19-1.527-1.781-2.206-3.929-1.275-5.579-1.723-9.662.096-1.539 2.42-2.416 5.542.823 7.154 4.271 2.127 9.602 1.956 13.563 4.967 3.94 2.995 4.037 8.372.992 12.017-2.5 3.015-5.655 3.684-9.328 4.125q-.121.001-.242-.001c-4.529-.088-9.439-1.768-11.668-5.946-1.271-2.38-1.282-3.82-1.224-6.387q2.395-.07 4.79-.057c-.131 8.159 7.452 9.862 13.472 6.25 1.519-2.557 2.203-5.806-1.127-7.352-4.053-1.881-8.707-1.772-12.621-4.261-4.167-2.651-4.953-7.71-2.308-11.726 1.961-2.925 4.466-3.571 7.719-4.216"/><path fill="#000" d="M290.734 14.604c.591-.031 1.188-.063 1.781-.044 14.408.455 7.023 16.536 9.789 19.352.449.46 2.024.335 2.652.344a34 34 0 0 0 .043 3.82c-1.448.017-5.178.26-6.232-1.013-.516-.622-.38-2.068-1.806-2.066-.478.317-.728 1.077-.975 1.635-2.57 1.664-4.175 2.481-7.446 2.107-1.927-.22-4.511-1.33-5.702-2.91-1.274-1.628-1.484-3.893-1.16-5.81.9-5.275 6.687-5.825 11.017-5.62 1.568.075 2.919-.032 4.511.236-.114-1.238.008-2.808-.681-3.862-2.915-4.46-8.588-2.569-9.937 2.1-.798-.323-3.91-1.365-4.291-1.865.816-1.263.949-2.25 2.078-3.393 1.802-1.823 3.936-2.565 6.359-3.011m2.273 20.075c.971-.445 2.351-1.396 3.16-2.11.615-1.83.807-2.532 1.175-4.377-2.362.061-4.713-.04-7.057.031-7.898.681-3.709 8.59 2.722 6.456"/><path fill="#000" fill-opacity=".988" d="M235.279 14.604c4.559-.288 8.804 1.324 10.987 5.586 1.304 2.55 1.295 5.05 1.487 7.8-5.157-.023-12.857.234-17.742-.12.084.71.184 1.926.449 2.558 2.271 5.437 10.25 6.191 12.583.3.921.274 2.963 1.473 3.903 1.992q-.265.477-.555.936c-1.657 2.58-3.999 4.232-6.995 4.886-3.169.675-6.476.07-9.199-1.685-2.067-1.337-4.117-3.902-4.488-6.367-1.238-8.24.909-14.133 9.57-15.886m-5.32 9.774 6.929.018c1.88.004 4.283-.05 6.121.043-.097-.48-.188-.972-.301-1.448-.755-3.192-3.874-4.58-6.867-4.446-3.405.73-5.112 2.506-5.882 5.833M150.543 14.62q.512-.032 1.024-.05c2.913-.099 6.071.893 8.184 2.94 3.013 2.917 3.37 6.524 3.489 10.42-5.695-.143-12.423.241-17.942-.115q.091.666.216 1.324c1.118 5.684 8.921 7.944 12.374 2.585 1.149-1.692 3.13.172 4.404 1.09-1.303 2.875-4.255 5.018-7.304 5.708-3.198.7-6.544.105-9.305-1.654-2.034-1.312-4.169-4-4.537-6.46-1.185-7.912.892-14.04 9.397-15.789m-5.307 9.809q3.635-.037 7.272-.038c1.875.004 4.155-.045 5.992.045-.349-1.386-.68-2.155-1.102-3.454-2.025-1.614-3.18-2.572-5.966-2.427-3.633.647-4.949 2.57-6.196 5.874M69.047 5.148c5.453-.417 10.505.747 12.979 6.072 1.055 2.272 1.02 3.68 1.196 6.138-1.604-.07-3.147-.02-4.75.02-.176-2.517-.923-6.03-3.39-7.022-7.4-2.978-12.524 1.556-12.047 9.217.2 2.487-.312 5.504.119 7.918 1.258 7.04 7.669 8.504 13.221 5.104 1.643-2.684 1.928-3.372 2.138-6.477 1.223-.108 3.294-.064 4.58-.076.032 3.002-.04 5.122-1.739 7.696-5.348 8.355-21.299 5.935-22.83-4.269-.458-3.05-.543-12.387.091-15.283a12.7 12.7 0 0 1 1.882-4.34c2.224-3.262 4.935-4.003 8.55-4.698"/><path fill="#000" d="M103.842 15.22c1.503.058 3.19.025 4.708.03-.487 9.104.497 19.63-.22 28.85-.018.237-.266.976-.344 1.22-1.607 2.231-3.75 2.107-6.234 2.132-3.997.04-8.03-.137-12.02.029.059-1.457.112-2.508-.023-3.953 4.672-.154 9.412.095 14.04-.113a236 236 0 0 0 .071-9.062c-.945.743-1.634 1.93-2.44 2.523-4.703 3.459-12.939 1.183-13.97-4.93-.566-3.352-.19-7.36-.282-10.816-.04-1.53-.108-4.418.114-5.857l4.323.002a394 394 0 0 0-.061 8.724c-.002 2.037-.088 4.113.222 6.13.721 4.693 6.919 5.764 10.015 2.74a6.95 6.95 0 0 0 1.875-3.348c.408-1.715.225-11.876.226-14.3M17.809.034c.265.04.27.074.508.208.103.728-.37 2.81-.456 3.704-.513 5.303-1.167 10.904-.896 16.228-3.145-2.439-6.82-5.693-9.977-8.28 1.504 2.576 4.13 5.387 6.032 7.743.553.684 1.759 1.65 2.101 2.177l-.261.235c-2.114.039-4.375.285-6.495.462-2.797.234-5.654.268-8.365.987.225-1.467.124-4.335.115-5.912L.05 7.456C5.572 4.891 12.035 2.747 17.81.033M19.543 0c1.102.141 9.76 3.992 11.366 4.638 1.698.683 5.129 2.022 6.917 2.75.036 2.261.22 14.189-.206 15.733-1.367.243-10.752-.857-12.86-.983-.573-.008-1.389.052-1.828-.258.075-.397 1.533-1.587 2.029-2.184 2.032-2.444 4.364-5.02 5.986-7.752-.79.567-1.842 1.57-2.683 2.236-2.52 2-5.012 3.934-7.274 6.228.166-5.23-.371-15.233-1.447-20.408M37.193 24.834l.387.015.207.342c-.045 4.237-.265 6.242-2.296 10.093-3.13 5.931-9.75 10.955-16.104 12.895.919-3.079 1.27-9.16 1.558-12.515.051-2.4.16-5.088.074-7.462 1.24.758 2.182 1.75 3.287 2.651 2.122 1.73 4.574 3.885 6.934 5.238-2.512-2.623-5.833-7.92-8.78-9.736 3.935.109 10.747-1.003 14.733-1.521M.206 24.733c5.154.726 9.82 1.423 15.053 1.688-2.213 1.527-6.51 7.389-8.49 9.756 2.59-1.622 5.024-3.755 7.328-5.753.966-.838 1.675-1.515 2.837-2.096-.095 2.124.021 4.194.13 6.311.186 3.215.476 10.858 1.647 13.524-7.16-1.905-14.494-8.262-17.274-15.098C.235 30.108.12 27.875.206 24.733M261.325 15.16l3.212-.021c-.039 1.517-.084 2.73.058 4.236-3.667-.102-4.116-.12-7.369 1.565-1.578 4.272-.961 12.505-.956 17.26-1.599-.082-3.102-.038-4.698-.003-.178-.676-.076-4.735-.097-5.673-.131-5.647.225-11.66.012-17.277l4.773.027c-.025.727-.179 1.899.145 2.473 1.139-.16 1.444-2.074 4.92-2.588M177.008 15.162l3.164-.043c.018 1.114.034 2.235.047 3.346.041.083-.052.633-.156.658-2.666.64-7.29-.147-7.891 3.621-.338 2.119-.236 4.477-.236 6.647l-.042 8.822c-1.594-.09-2.75-.076-4.351-.018-.525-.686-.313-5.755-.313-6.946l.046-15.981c1.353-.07 3.198-.013 4.586-.011-.034.738-.213 1.913.206 2.476 1.278-.173 1.261-2.01 4.94-2.571M277.232 15.153c1.029-.027 2.158-.005 3.194-.006-.007 1.439-.037 2.774.127 4.21-3.287-.048-4.153-.255-7.018 1.487-1.451 2.403-1.32 4.021-1.333 6.735-.016 3.545 0 7.093-.009 10.639-1.451-.102-2.834-.071-4.287-.053-.041-.032-.086-.061-.125-.096-.487-.437-.244-20.43-.211-22.876 1.429.078 3.049.046 4.495.048.001.95-.115 1.838.279 2.668l.331.093c.553-.248.737-.822 1.018-1.386 1.31-.757 2.074-1.163 3.539-1.463M220.539 15.195c.161-.014.35.08.517.14.232.447.145 20.978.145 22.831a104 104 0 0 0-4.179.002c-.091 0-.375-.067-.481-.089-.281-.61-.143-20.646-.15-22.909 1.177.094 2.925.033 4.148.025"/><path fill="#000" fill-opacity=".988" d="M217.501 5.863c2.659-.279 5.171.342 4.484 3.929-.229 1.196-1.22 1.806-2.256 2.35-4.447 0-5.934-4.3-2.228-6.28"/></svg>