<svg width="145" height="73" viewBox="0 0 145 73" fill="none" xmlns="http://www.w3.org/2000/svg">
<path d="M31.5324 128.534L32.2625 129.118C30.4104 128.126 30.9712 128.337 31.5324 128.534ZM95.6463 87.4716C95.8128 87.0143 95.7416 87.0158 95.5958 87.1707C95.5412 87.5191 95.0547 88.4836 94.4692 89.5651C94.7263 89.3131 95.081 88.7963 95.6463 87.4716ZM93.2868 91.6682C93.2723 91.7102 93.2629 91.7404 93.2557 91.7771C92.0471 93.7601 92.483 93.0604 93.2868 91.6682ZM29.1254 3.92255C29.4167 3.13331 30.0329 2.05511 30.72 1.00977C30.9684 1.16129 31.2322 1.32243 31.5013 1.48727C31.2686 1.37584 31.0289 1.26251 30.7599 1.13467C30.2984 2.00008 29.7713 2.91295 29.1254 3.92255ZM102.01 35.3811C102.971 35.7582 104.94 36.421 105.497 36.9896C104.219 36.9178 103.514 36.2957 102.01 35.3811ZM136.331 65.7627L138.736 63.0809C136.648 66.9163 134.635 69.3228 137.027 66.9028C136.801 66.5354 137.561 65.2374 138.673 63.6083C138.951 63.2007 139.248 62.7709 139.56 62.3322C140.017 61.6995 140.484 61.0466 140.957 60.3922C142.127 58.7711 143.307 57.1331 144.39 55.6341C142.505 54.7243 140.801 53.9302 139.535 53.4082C138.902 53.1473 138.377 52.9539 137.988 52.8456C137.792 52.7909 137.63 52.7573 137.503 52.7462C137.409 52.7506 137.352 52.7785 137.304 52.8174L135.323 51.5361C135.916 51.8461 136.045 51.8285 136.637 52.1371C132.82 49.5668 133.201 51.4281 128.018 48.643C126.227 47.6431 125.03 46.8435 126.345 47.3352L122.123 45.5715C120.945 44.9573 121.333 44.9088 122.505 45.5212L116.23 42.5007L116.292 42.4908C115.317 42.2225 113.167 41.4861 112.125 41.1094C110.622 40.1605 112.978 41.388 112.643 41.0473L109.059 39.5955C107.797 38.6056 110.795 39.7519 113.16 40.9832C110.492 38.2644 110.156 39.8347 103.525 35.7147L106.855 37.2C105.072 35.5208 102.415 34.4811 98.9276 32.2489C99.6981 32.8904 105.806 36.9209 101.922 35.3285C100.909 34.7186 99.5386 33.9842 97.4061 33.2002C97.5839 32.7946 95.5637 31.9071 93.0845 30.6981L93.5163 30.2593C90.7719 29.0789 90.8487 29.45 89.1596 28.9027C86.212 27.3665 85.7983 26.6529 85.2701 25.962C80.5504 23.5028 88.2335 28.2538 82.5472 25.5394C78.686 23.3623 75.7982 22.1885 70.9047 20.1384C68.2219 18.5743 71.5488 20.0594 70.6276 19.4123L67.9627 18.6044C67.3655 18.2942 67.6242 18.263 67.7561 18.2479C65.6039 17.3755 67.3243 18.6867 63.9956 17.2034C62.831 17.3431 57.7351 13.0245 53.3782 11.6695C52.4593 11.0244 54.0192 11.5887 53.8157 11.2329C48.0739 8.90559 48.9229 9.18145 44.0924 7.49414L40.3979 5.22045C43.0434 7.03197 39.181 5.68711 35.8078 4.48087C36.7231 5.17464 37.4984 5.77033 38.0383 6.13876L35.4312 5.01252L34.1257 4.44916L33.5438 4.20272L33.0248 3.9873C32.5538 3.6456 32.9238 3.60469 33.8092 3.77327C33.4622 3.65436 33.1449 3.54903 32.9077 3.48049C32.0928 2.95328 31.8199 2.66177 31.9726 2.56766C32.1196 2.46996 32.7021 2.57539 33.4988 2.78998C33.6691 2.90769 33.8358 3.0237 34.0035 3.13989C34.1678 3.25589 34.3347 3.37274 34.466 3.47142C34.7419 3.67831 35.0186 3.88427 35.2899 4.08774C36.7007 4.39401 38.0503 4.62647 37.9421 4.18967C37.5821 4.08544 36.9227 3.82175 36.2085 3.50141C36.5801 3.57953 36.8274 3.60631 36.7021 3.47793C36.5587 3.33772 35.9697 3.18905 35.075 2.90866L34.8578 2.61761C34.8196 2.56805 34.7944 2.52633 34.744 2.46939L34.573 2.29348C34.3453 2.05767 34.0952 1.81143 33.8291 1.55664C33.6691 1.57319 33.5147 1.59292 33.3655 1.615L30.407 -1.07946e-06L28.4655 3.28526L27.9637 4.13445L27.837 4.34896L27.7523 4.48968L27.5819 4.7667L26.8988 5.87713C24.9251 10.8894 23.5522 15.436 19.744 23.0265C20.3286 20.948 19.2744 22.2577 18.836 21.8904C20.4639 20.1379 21.7459 15.9899 23.9492 12.1797C22.7984 14.1668 22.8029 13.5955 22.9993 13.0378L19.738 20.1943C19.4165 19.819 18.6411 21.4955 17.4954 23.206C19.036 22.278 15.2419 28.6362 13.9655 31.5748C13.6025 31.6035 13.6921 30.7817 15.6134 27.3928C12.963 30.8447 13.9074 32.7837 11.3874 36.2152C11.8344 35.3756 12.1192 34.9478 12.1614 34.5425C11.3402 36.6243 8.56287 41.2959 8.93821 40.0459L9.38591 39.2099C6.28075 44.7082 0.220725 56.1031 0.45274 57.2998C0.333441 57.3071 0.0265927 56.1285 0.0716077 55.7184L-3.00933 66.8608C-3.12081 65.6716 -6.32729 68.2681 -4.16158 63.4862C-4.96157 64.7622 -5.9449 66.3454 -7.24729 69.2435C-6.67538 68.3869 -5.18533 67.4537 -5.80115 68.7136C-7.04316 70.2285 -7.44582 70.7691 -7.89471 71.4127C-8.11596 71.7365 -8.3545 72.0824 -8.7034 72.5958C-8.88381 72.8477 -9.08958 73.1441 -9.33891 73.4972C-9.37221 73.5488 -9.39137 73.5698 -9.44225 73.6458C-9.48624 73.716 -9.53409 73.7867 -9.58192 73.8574C-9.67679 74.0036 -9.77487 74.1553 -9.88 74.3131C-10.0921 74.638 -10.3227 74.9885 -10.5733 75.369C-10.0014 74.444 -9.75804 74.5207 -9.76175 75.0476C-9.76354 75.3113 -9.81791 75.6775 -9.93124 76.0993C-10.0422 76.5217 -10.2064 76.9933 -10.4501 77.5125C-10.2153 77.6445 -9.98068 77.7835 -9.75089 77.9303C-10.0283 77.8473 -10.2887 77.9892 -10.602 78.0906C-10.9184 78.1896 -11.3012 78.2407 -11.9355 77.9098C-11.9355 77.9098 -11.934 77.9071 -11.9321 77.9039L-11.9355 77.9098C-10.4344 78.6488 -9.05671 79.3106 -7.80174 79.8942L-7.56828 80.0043L-7.45195 80.0574L-7.36135 80.0956L-7.00907 80.2422L-6.30657 80.5283L-4.89936 81.1088C-6.2665 80.4711 -5.58834 81.7082 -4.60599 82.667C-5.02708 82.1662 -0.218444 85.4427 1.18966 86.2028L-0.839201 84.6514C4.81886 88.3831 5.60089 86.9801 11.266 90.597C10.4634 90.3444 8.86857 90.6397 11.6969 92.5656C13.304 92.9506 18.9193 94.1023 24.1733 96.9168L24.9809 97.7779L29.0278 99.9134C26.198 99.0759 18.5584 96.255 14.525 94.4906C16.5448 96.0413 14.9326 95.1669 18.1639 97.1626C19.1513 98.1137 16.1831 96.4247 15.23 95.8462L22.6202 100.698C22.6147 99.9691 28.6783 103.769 28.6625 103.153L20.1897 98.593C20.1872 97.8654 25.8217 100.062 31.0709 103.484C32.2897 104.536 29.4781 103.776 29.4802 104.021C30.2833 104.273 34.732 106.837 35.1402 107.271L32.7117 106.137C35.5443 108.188 37.9675 108.47 41.2046 111.196C42.4103 111.997 44.443 114.162 44.8482 113.987C43.2229 112.135 43.9871 110.048 45.5975 110.44C46.0041 110.748 51.6771 115.042 52.8918 116.216C54.6169 117.948 49.1656 115.429 50.6322 116.906C50.7957 116.81 52.0192 117.333 52.5196 117.57C53.73 118.497 51.7093 117.676 54.5479 119.365C55.3446 119.13 60.2058 122.977 56.1504 119.747C58.9791 121.313 58.9885 121.679 62.2148 123.672C61.4053 122.686 65.8278 124.316 68.6623 125.885C68.4151 125.919 68.9209 126.479 69.1692 126.746C70.4396 127.557 71.555 128.285 72.6149 128.989C73.7284 129.727 74.7566 130.412 75.7603 131.08C76.4626 129.79 77.1466 128.538 77.8689 127.214C78.5463 125.963 79.2485 124.637 80.0222 123.128C80.4164 122.687 81.9451 120.099 81.6001 121.357C81.91 120.512 82.0974 119.685 82.9579 117.971C85.1239 114.909 81.0846 121.815 82.9463 119.589C82.7354 119.21 84.7629 114.947 85.8057 112.413C84.9282 112.908 82.8382 117.984 81.7899 120.52C81.1023 120.183 82.5548 115.578 85.2008 109.632C87.384 104.947 86.6617 107.864 86.9732 107.016C91.511 98.4405 89.544 99.049 93.7071 92.1291C95.5997 89.5061 94.6381 92.4424 95.2739 91.9719C93.5245 95.8031 92.0562 97.5815 90.7745 100.129L92.5811 97.1094C92.116 98.3749 90.9449 100.93 90.1221 102.229C91.7337 100.044 97.6631 87.6768 101.433 81.1966C101.893 79.939 102.788 77.8183 102.117 78.6957L101.1 80.8344C99.7587 82.594 102.645 76.6194 101.117 79.2047C102.316 76.2497 103.549 72.8819 105.786 69.0018L106.666 68.5081C106.475 68.5183 105.038 70.9593 104.616 72.155C105.245 70.3826 108.412 66.3938 108.691 64.2418L106.919 66.8572C107.416 65.6392 107.919 64.2815 108.481 62.8674C108.62 62.5226 108.76 62.1728 108.901 61.8192C108.954 61.6479 109.012 61.4767 109.066 61.3028C109.176 60.9736 109.286 60.6747 109.428 60.3742C109.143 60.2496 108.891 60.1219 108.641 59.967C108.722 60.2261 108.744 60.2906 108.822 60.338C108.891 60.3823 108.996 60.4004 109.079 60.4928C108.977 60.6096 108.781 60.8156 108.473 61.0209C108.785 60.851 108.87 60.8965 108.789 61.1652C108.75 61.2938 108.672 61.4641 108.584 61.6534C108.34 62.1294 108.076 62.6494 107.816 63.1595C106.742 65.2494 105.758 67.1774 107.027 65.6228C105.045 67.8558 104.466 69.9313 102.177 73.0045C102.395 72.9843 103.099 71.9724 101.503 74.8933C101.482 75.052 101.382 75.3993 101.316 75.6179C101.265 75.7062 101.244 75.7359 101.201 75.8118C101.239 75.7564 101.267 75.7145 101.304 75.6576C101.264 75.7997 101.262 75.8133 101.343 75.6014C101.775 74.9318 102.153 74.4039 102.362 74.2174C101.986 75.8807 99.5638 80.5846 98.9435 82.277C97.966 83.995 99.1329 81.4466 98.4662 82.3166L97.539 84.8437C97.0546 84.8936 94.5484 89.2061 96.4525 84.956L94.5293 88.6755C93.2032 90.7651 91.5764 93.7418 90.7782 95.6811C89.8004 97.399 88.9076 100.326 89.4073 98.6494L86.6416 104.609L86.5241 104.618C83.5277 110.36 81.0507 116.796 77.0215 123.053C76.5982 123.985 76.1716 124.938 75.6556 126.019C75.5995 126.134 75.5417 126.252 75.485 126.375C75.4611 126.428 75.436 126.484 75.4091 126.543C75.3545 126.655 75.2985 126.771 75.2369 126.894C75.1157 127.134 74.9769 127.389 74.8228 127.642C74.767 127.599 74.6952 127.547 74.6213 127.494C74.5199 127.288 74.4343 127.096 74.3742 126.918C74.2124 126.852 73.9964 126.71 73.7889 126.555C73.0205 126.038 72.2017 125.487 71.4183 124.965C69.8503 123.911 68.4333 122.991 67.8295 122.829C65.7962 120.425 56.5117 115.484 52.4608 112.744L52.0584 113.04C49.2237 111.231 46.4199 109.626 42.7821 107.565L42.7811 108.051C39.5535 106.424 35.0963 102.884 30.2484 99.8952C30.6592 99.9667 31.8605 100.769 32.6763 101.392C27.4047 96.9914 20.1561 94.3366 15.2888 90.4824C13.9055 89.7934 12.989 89.1581 12.1311 88.4982C12.2532 88.5715 12.366 88.6367 12.465 88.6828C12.3344 88.5933 12.1371 88.4696 11.9347 88.3421C11.3969 87.9217 10.8461 87.4806 10.2399 87.0217C10.7312 87.4499 11.2121 87.8471 11.6451 88.1644C10.6377 87.5404 9.08682 86.6271 7.5365 85.7782L7.13502 85.0071C7.01059 84.9317 6.91114 84.8743 6.78257 84.8C5.40471 83.7433 5.49328 84.239 6.09915 85.0075C5.31058 84.5984 4.57243 84.2396 3.98363 83.9941C3.1713 82.6439 -0.0616248 81.74 -1.28494 80.0781C-1.76836 79.9513 -3.09711 79.2046 -4.58511 78.3702C-4.95967 78.1645 -5.34293 77.9503 -5.72383 77.7374C-5.95339 77.6084 -6.00808 77.5874 -6.12564 77.5304C-6.23492 77.4779 -6.34598 77.4279 -6.45001 77.3784C-6.88702 77.1712 -7.34499 76.9706 -7.79322 76.8077C-7.72451 76.4833 -7.72413 76.2269 -7.83176 76.1115C-7.69478 76.0676 -7.47542 75.761 -7.77671 76.3301C-7.59511 76.0398 -7.41398 75.7503 -7.23642 75.4615C-7.1529 75.3229 -7.06921 75.184 -6.98585 75.0457L-6.83321 74.7813L-6.65713 74.4642C-6.19405 73.6191 -5.77434 72.7782 -5.44814 71.9454L-4.55837 71.4714L-3.15486 67.314C-1.60418 65.1668 -0.912708 64.3031 -1.77767 66.7999C0.642672 60.9486 0.437402 62.1882 2.41555 57.1676L2.61019 57.5704C3.50861 55.8804 4.54384 52.9602 5.35614 52.0865C7.99692 48.6469 15.5376 33.5004 21.3349 24.1378C19.3862 25.5078 24.1871 19.8708 23.6746 19.0987C24.2002 18.6544 25.0543 17.3745 24.396 19.0431C26.8529 13.9926 28.7645 11.822 30.0008 8.08687C30.527 7.64158 29.7521 9.31696 30.1551 8.88554C30.3217 8.46427 30.8124 7.21451 31.2212 6.77236C31.6244 6.34068 31.0153 7.59501 30.6888 8.42839C31.0679 7.71734 31.3848 7.0889 31.6497 6.53259L31.6936 6.4402L31.7007 6.40798L31.719 6.34594C31.7308 6.30237 31.7411 6.26037 31.7531 6.22146C31.7732 6.13822 31.7903 6.05332 31.8055 5.96653C31.8677 5.62245 31.9005 5.24447 31.9134 4.85185C32.0772 4.62921 32.1495 4.29799 32.2121 3.9721C32.6767 4.3006 33.0339 4.54774 33.3553 4.74916C33.4404 4.8018 33.5021 4.84096 33.5966 4.89482C33.7165 4.95982 33.8358 5.0252 33.9507 5.08691C34.1817 5.20794 34.4073 5.31952 34.6281 5.42236C35.5199 5.83461 36.366 6.1095 37.4037 6.35967C38.1961 7.02268 39.5813 7.99338 36.3795 6.49094C38.1437 7.41047 47.0933 12.2293 47.536 11.7957C48.0265 12.2065 50.0054 13.0762 50.5034 13.2492C54.4807 15.2737 54.8082 15.4955 58.7524 17.4023L57.7085 16.7738C59.5723 16.9154 61.0385 18.2596 64.2374 19.7611L64.1134 19.7808C71.1326 23.8527 67.3513 21.1232 74.2415 25.212L74.049 24.6243C75.1388 24.1128 80.1363 28.2857 84.446 30.0327L83.0613 29.0612C85.472 29.9027 88.8199 33.3708 91.0444 34.6128C91.5029 34.9343 90.2019 34.3396 89.4809 34.0485C95.1913 37.5206 90.5112 33.919 95.0108 36.0152C95.692 36.7018 93.6028 36.1942 96.5664 37.7378C97.9426 38.7058 105.684 41.1623 109.496 43.7298C108.705 43.0679 107.918 42.4079 110.061 43.277C113.26 44.7773 118.204 48.3514 121.396 49.1011C121.769 49.3606 121.891 49.4917 121.881 49.5529C124.385 50.5851 129.879 53.1832 131.518 53.5442C131.901 54.1528 133.027 54.8765 134.493 55.639C134.859 55.829 135.248 56.0224 135.65 56.2165C135.719 56.2487 135.788 56.2809 135.856 56.3125L136.026 56.3887C136.146 56.441 136.264 56.4924 136.384 56.5447C136.875 56.7547 137.417 56.9728 137.996 57.2069C137.727 57.6602 137.438 58.1442 137.139 58.6143C136.991 58.8499 136.841 59.0811 136.693 59.2999C136.468 59.6295 136.238 59.9491 136.029 60.2327C135.186 61.3727 134.55 62.0428 134.275 61.8214L129.387 68.6152L129.402 68.3541C126.165 72.6138 125.317 74.3372 124.474 76.0514C123.666 76.992 124.095 76.1877 124.098 76.0624C119.251 82.2009 118.838 82.8617 115.525 88.5583L114.757 88.8405C113.921 90.4292 107.508 97.5359 103.401 104.031C103.405 103.94 103.428 103.76 103.737 103.231C99.0639 110.501 90.5248 119.146 89.9789 122.667L86.9395 127.497C91.3946 121.632 86.8652 128.805 88.8766 126.522C87.2409 128.912 84.0512 132.267 86.0874 129.346L86.4823 128.947C86.5673 127.383 80.8274 136.155 80.4794 135.636C79.4176 137.082 78.3375 138.479 77.1891 139.778C76.0389 141.067 74.8259 142.277 73.5018 143.261C72.1822 144.251 70.7654 145.037 69.2813 145.523C67.7889 145.987 66.2355 146.162 64.678 146.049C61.5502 145.83 58.4887 144.57 55.5871 143.021C54.1299 142.242 52.7015 141.384 51.2755 140.496C49.835 139.597 48.4006 138.706 46.9766 137.817L47.9468 139.201L43.9656 136.705C42.9946 135.927 42.8274 135.393 45.6689 137.172C44.3665 135.926 40.7132 134.497 40.5543 134.571C35.1063 130.901 43.1488 135.247 41.4412 134.18L39.0878 132.79L39.5717 133.182C37.5402 132.253 37.2225 132.397 33.8043 130.258C31.7028 128.808 32.9085 129.223 32.0678 128.673C32.0956 128.636 31.8213 128.44 30.7653 127.85L25.7516 124.699L27.4925 126.391C25.1197 125.236 22.764 123.449 24.7775 125.392C21.8441 122.503 6.13816 113.541 4.19153 112.005C0.858533 110.409 -2.22868 108.502 -6.03197 106.109C-5.13922 106.787 -4.87974 107.646 -8.14521 105.552C-6.29483 105.249 -13.9101 101.381 -16.1178 98.9859C-14.0413 100.953 -25.5803 93.3358 -22.274 96.3473C-24.9698 94.5696 -22.2165 95.849 -24.1226 94.3251C-25.7802 93.4214 -27.4324 92.3684 -28.8896 91.0692C-30.3549 89.7822 -31.5784 88.2122 -32.203 86.4452C-32.513 85.5647 -32.6886 84.6388 -32.6843 83.6853C-32.6803 82.7331 -32.5243 81.7586 -32.2441 80.7776C-31.687 78.8122 -30.641 76.8496 -29.4492 74.8939C-29.5047 74.6822 -30.5477 75.8707 -29.6803 74.0591C-28.5602 72.8269 -27.3672 71.6331 -26.1739 70.402C-25.1428 68.8111 -25.9181 68.4452 -23.4691 65.9426C-23.8608 66.2628 -24.4454 66.7427 -23.7549 65.6746C-12.2709 50.7952 -2.11084 33.978 10.0984 19.255C8.35428 21.1858 9.32298 19.7619 10.4522 18.1441C9.65201 19.1496 10.1469 17.8918 9.82452 17.9721L14.9288 11.8035C15.2771 10.2671 19.8387 4.79017 19.8498 3.77647L18.4759 5.90158C19.8648 2.76394 14.5269 8.86923 14.1008 7.96441C12.5552 11.4839 7.43528 15.4076 4.76702 21.089C3.83693 22.1012 5.2128 19.9787 4.62509 20.4561C4.02478 21.951 2.99533 23.5389 0.836096 26.3044L0.990225 25.9277C-4.62123 34.0176 -7.36161 37.2491 -13.9488 46.1369L-13.1261 45.7166C-14.5456 47.6239 -14.9431 47.9549 -15.6728 48.8012C-16.7175 51.404 -11.7898 43.3713 -12.6379 45.8165C-15.1713 47.8841 -22.3277 59.4921 -24.3712 60.6549C-26.4843 63.6374 -23.3439 60.0693 -25.4588 63.049L-26.2385 63.6838L-26.4887 64.6395C-27.9205 66.5626 -28.8947 67.3573 -29.1328 67.2977C-28.7735 66.8383 -28.2309 65.9107 -27.8852 65.3913C-28.9127 66.5711 -30.1528 68.3614 -31.2346 69.9927C-32.3335 71.6354 -33.2103 73.185 -33.5336 73.6536C-32.8497 72.6138 -32.1341 71.624 -31.405 70.6702C-32.7974 72.8093 -34.2992 75.1609 -35.3712 77.9573C-35.897 79.3535 -36.3002 80.8761 -36.418 82.4853C-36.5414 84.088 -36.346 85.773 -35.8029 87.3168C-35.2712 88.8688 -34.4262 90.2583 -33.4579 91.442C-32.4844 92.6276 -31.3897 93.6227 -30.2781 94.4904C-28.0481 96.2217 -25.7365 97.4791 -23.6479 98.6106L-24.1596 98.0547C-17.7377 101.561 -19.291 101.313 -12.367 105.367L-12.6385 105.256C-11.1665 105.923 -9.28426 106.96 -7.42581 108.128C-9.27783 107.27 -4.42296 110.521 -6.82577 109.356C0.136399 113.161 -3.32042 111.137 1.5343 113.231L2.3847 114.152C4.06617 114.827 4.27675 114.765 7.73736 116.788C4.78464 115.315 9.64429 118.569 6.30672 116.969C13.079 122.008 17.3347 122.872 20.0522 125.819C23.833 127.039 14.1266 121.562 16.0746 122.522C14.6921 121.311 19.1571 123.593 21.3566 125.056C23.6343 126.48 24.6156 128.471 30.3815 131.998C29.8111 131.64 29.7347 131.676 29.1646 131.323C31.1934 132.851 33.5534 133.642 35.9938 135.597C37.772 136.025 39.4079 137.737 40.2118 137.381L34.8466 134.275C37.9389 135.955 41.1892 136.961 45.9047 140.342C45.4414 140.23 43.8745 139.491 42.8117 138.962C44.1416 140.033 45.6621 140.551 47.0433 141.655C46.2348 142.014 40.5415 137.846 37.0456 136.345C38.4344 137.557 43.3868 139.626 41.3651 139.304C42.7843 139.591 44.185 140.492 45.7684 141.536C46.5624 142.059 47.3972 142.618 48.3043 143.156C49.2166 143.696 50.2134 144.219 51.3179 144.638L50.8322 144.862C51.5145 145.171 52.9401 145.768 54.1732 146.396C53.3434 146.184 52.5233 145.951 51.7031 145.71C53.4885 146.441 55.0965 147.383 56.8017 148.23C58.4997 149.07 60.3261 149.821 62.3578 150.018C61.3146 149.842 60.5229 149.645 59.9302 149.458C59.3296 149.288 58.9281 149.123 58.6479 149.001C58.0897 148.755 58.0401 148.66 58.1313 148.6C58.2223 148.54 58.4531 148.514 58.4658 148.419C58.4789 148.325 58.2702 148.165 57.5284 147.783C59.8391 148.532 61.3985 148.855 62.5512 149.125C63.1321 149.245 63.6039 149.38 64.0458 149.463C64.486 149.555 64.8755 149.68 65.29 149.744C66.1141 149.899 67.0132 150.062 68.4574 149.905C69.1798 149.836 70.043 149.668 71.0452 149.32C71.2975 149.229 71.5603 149.131 71.832 149.03C72.0958 148.907 72.3708 148.78 72.6581 148.647C72.9506 148.517 73.2343 148.353 73.5311 148.178C73.8302 148.006 74.144 147.83 74.4428 147.616C74.1272 147.859 73.6022 148.128 73.0637 148.406C72.7876 148.538 72.4948 148.651 72.2167 148.763C72.0762 148.819 71.9413 148.871 71.8101 148.922C71.6768 148.966 71.5437 149.001 71.4217 149.037C70.9313 149.173 70.5638 149.257 70.4623 149.226C70.3623 149.2 70.5338 149.084 71.102 148.81C71.6467 148.641 72.1944 148.39 72.7693 148.151C73.0494 148.024 73.3233 147.883 73.6014 147.746C73.8802 147.615 74.144 147.467 74.4007 147.32C75.4496 146.752 76.326 146.147 76.9136 145.802C77.6303 145.173 78.118 144.687 78.4451 144.332C78.7766 143.977 78.9623 143.757 79.0409 143.633C79.1979 143.385 78.9745 143.548 78.6426 143.79C77.9752 144.279 76.9025 145.084 77.9327 143.905C79.0078 143.219 79.5587 142.5 80.0904 141.683C80.6047 140.851 81.1001 139.904 81.9549 138.635L82.317 138.886C83.5775 137.333 84.1953 136.428 84.5395 135.848C84.883 135.267 84.931 135.013 84.9668 134.776C85.0385 134.306 85.0561 133.918 87.2718 131.182L86.0041 133.941L88.0462 130.89L87.9986 131.796C90.0604 128.359 90.8716 127.414 93.295 124.343C92.5091 124.892 92.955 123.459 94.991 120.66C96.5955 118.91 94.5445 121.973 97.3931 117.978C96.9617 119.035 96.5206 120.217 94.9336 121.7C94.9191 121.961 94.5094 122.743 94.4915 123.01C96.2346 121.136 98.3218 117.897 99.3676 116.462C98.9493 117.003 98.4475 117.649 98.1511 117.951L101.864 111.854C102.66 111.05 102.241 111.844 101.825 112.629C102.638 111.439 103.065 110.517 104.286 108.785C104.25 109.439 104.623 109.551 102.987 112.069L106.674 106.369C107.066 106.096 109.071 103.817 108.658 104.605C111.047 101.698 113.548 96.7611 116.713 92.908C116.811 92.6584 117.066 92.2012 117.649 91.3168C120.48 87.5884 123.283 84.503 126.17 79.7388L128.545 77.5783C130.998 73.9891 125.38 80.5399 129.461 74.5609C132.326 70.309 131.03 73.341 132.235 71.9983C133.482 69.7531 135.57 65.7913 138.772 62.3055C137.949 63.6308 137.151 64.5597 136.331 65.7627Z" fill="#FC6B7E"/>
</svg>
