<svg xmlns="http://www.w3.org/2000/svg" width="134" height="116" fill="none" viewBox="0 0 134 116"><path fill="#82c6dd" d="M94.197 44.832c2.626-2.047 2.626-2.047 4.94-10.513-2.508 3.05-5.598 5.824-4.94 10.512M50.26-32.625c-.739-.347-2.248.275-2.604 1.77-.28 1.18-1.714 1.864-1.572 3.288-.93 1.965-2.155 3.805-2.544 6a.44.44 0 0 0-.194.515c-2.364 4.4-4.97 8.681-6.543 13.466-.093.994-1.363 1.754-.581 2.92-.049.501-1.485.35-.604 1.286-3.3 4.725-4.683 10.286-6.79 15.532-1.549 1.977-2.682 4.11-2.527 6.728-1.566 1.644-2.435 3.545-2.16 5.866-.466.32-1.208.266-1.361 1.007-.466 2.126-2.326 3.74-2.235 6.073-.508 1.365-2.412 2.38-1.053 4.212-.27.768-1.734 1.722-.654 2.212 1.325.6 1.06-1.186 1.473-1.948 1.38-1.173.843-2.769.933-4.227.384-1.132 2.86-.865 1.925-2.88 2.24-2.174 2.887-5.089 3.685-7.932l.723-1.946c1.199-1.545 1.631-3.406 2.157-5.23 2.693-.735 1.87-3.386 2.666-5.11C34.473 4.483 37.401.372 38.545-4.54c2.012-.782.336-1.98.338-2.99.887-.235 1.445-.74 1.427-1.725 1.24-1.024 2.104-2.202 1.608-3.935.16-1.475 2.37-2.151 1.575-4 1.122-.62 1.407-1.522.9-2.689l1.02-1.807c1.774-.44 1.108-2.15 1.673-3.219l.666-1.242c1.424-.931 1.524-2.591 2.111-3.964.344-.802 1.878-1.82.398-2.515M128.526 63.182c-1.84 2.452-3.933 4.809-3.342 8.16 1.763-2.48 3.364-5.02 3.342-8.16M133.283 53.323c.216-.464.663-1.37-.477-1.635-.915-.212-1.305.327-1.499 1.056-.567 2.128-1.094 4.267-1.636 6.401-.535.954-1.132 1.893-1.055 3.157 2.007-.363 1.142-1.99 1.744-2.848 1.795-1.647 1.965-4.08 2.923-6.131M42.24-40.263c-.492-.842-.308-2.366-1.534-2.413-1.496-.058-.879 1.482-1.184 2.328-.355.981-.718 1.96-1.078 2.94q-.896 1.974-1.791 3.95l.108 1.378c-2.148 2.624-2.42 6.1-4.068 8.95-2.017.679.17 2.723-1.176 3.619-1.918 2.803-3.616 5.68-3.095 9.295h.006l.064.025c-2.733.856-1.909 3.97-3.516 5.542-.396 1.793-2.962 2.87-1.77 5.166 1.567-.776 1.803-3.096 3.94-3.228.441-.027.896-.594.453-1.011-.33-.31-.983-.276-1.492-.395.506-1.671 3.214-1.964 2.682-4.286 1.03-.24 1.075-1.119 1.246-1.917-.176-1.451 2.84-2.111.986-3.978 1.016-.56 2.036-1.117 1.557-2.58l.516-1.3c.962-1.142.506-3.295 2.593-3.636l-.494-1.171c.598-.344 1.534-.437 1.128-1.524.571-2.066 2.2-3.855 1.63-6.22l.299-.666 1.259-3.31c.96-.873.965-2.153 1.387-3.255 1.126-.365 2.343-.59 1.343-2.303M60.852 10.93c.58-.6.735-1.314.567-2.115.36-.893 1.534-1.647.61-2.76-.357-.429-.852-.044-1.247.208-1.268.808-.31 1.599.013 2.395-.71.71-3.924-.456-1.792 2.388-1.933 1.286-.226 3.918-1.955 5.28-.774 1.238-1.566 2.474-.267 4.113.03-1.7 1.275-2.767 1.727-4.218.52-1.88 2.405-3.154 2.344-5.29M121.733 80.392c-.167-.493-.725-.373-1.198-.15-2.302 1.088-.372 2.94-.81 4.358-.034.113-.058.229-.088.343-1.44.12-2.188 2.652-1.389 4.8 1-1.407 2.178-2.7 1.889-4.606 1.129-1.385 2.254-2.8 1.596-4.745M123.841 73.748c-1.148.295-1.777 1.102-2.146 2.169l1.467-.441-.761 3.635c1.301-1.484 2.09-3.127 2.572-4.855.441-1.58-.386-1.138-1.132-.508M136.26 43.613c-.863 2.373-1.829 4.692-2.903 7.088 1.975-1.849 2.908-4.27 2.903-7.089M54.882 22.425c-2.182-.418-1.703 2.727-2.63 4.218-.62.947-.95 1.913-.277 3.162 1.225-.621 1.398-1.645 1.634-2.63.386-1.701 2.355-4.543 1.273-4.75M115.365 96.374c2.228-1.6 1.855-3.941 2.245-5.949-1.18 1.715-2.431 3.41-2.245 5.95M18.713 38.928c-2.237 1.6-1.857 4.003-3.146 5.45-.445 1.128-1.318 2.242.01 3.58.661-.999 1.299-1.9.861-3.16 1.275-1.557 2.255-3.222 2.275-5.87M133.204 8.685l.003-.001.002-.006-.004.002zM131.142 13.968c2.263-1.147 1.5-3.473 2.06-5.284-2.664.99-1.81 3.353-2.06 5.284M105.47 16.45c1.403-1.278 2.336-2.576 2.69-4.238.148-.691-.154-1.163-.814-1.275-.238-.04-.537.282-.808.439 1.179 1.95-1.512 2.974-1.068 5.073M.978 54.332c1.035-2.096 1.138-2.73.88-4.043-.444 1.431-1.257 2.593-.88 4.043M21.208 5.602c-.104-.158-1.174.09-1.309.757-.143.713-.257 1.592.412 2.046.21.142.933-.474 1.514-.796-.203-.76-.266-1.48-.617-2.007M135.892 3.692c-2.187 1.579-2.365 3.314-2.683 4.985 1.778-1.01 1.718-2.854 2.683-4.985M48.582 33.187c.154 1.193.733 1.726 1.517 1.944.098.028.779-1.029.645-1.372-.355-.915-1.312-.466-2.162-.572M13.116 20.322c.731 2.08-1.052 2.86-.014 4.503.666-1.324 1.69-2.245.014-4.503M63.256 2.612c2.07-.218 2.116-1.563 2.57-2.572l-1.307-.666zM67.513-6.238c-2.264.114-.22 1.9-1.005 2.589L64.52-.627l1.307.666c.826-1.779 2.345-3.25 2.401-5.372.517-1.127 1.123-2.223 1.524-3.39.377-1.1-.331-1.022-1.032-.824-.091 1.216-.11 2.457-1.206 3.31M17.619 13.273c-.588-.344-1.091-.17-1.395.468-.16.506-.03.993.49 1.064.572.078 1.187-.14 1.354-.791.052-.203-.22-.608-.45-.741M131.139 13.977l.003-.002.001-.007-.005.002z"/><path fill="#82c6dd" d="M129.787 16.61c1.405-.514 1.53-1.504 1.352-2.634-1.243.473-1.524 1.391-1.352 2.634M48.767 36.946c-.966.117-1.61.436-1.598 1.438-.801.894-2.362 1.956-1.063 3.021.898.737 1.415-1.046 1.995-1.818 1.218-.656.023-1.821.666-2.641M44.12 45.557c-2.201.697-1.672 2.919-2.462 4.405-.688 1.646-2.102 3.18-.736 5.753l1.787-4.582 1.813-4.63c.438-1.227 1.438-2.298 1.203-3.834-1.565.538-1.09 1.967-1.605 2.888M116.788 48.775l-.009.032.026-.01z"/><path fill="#82c6dd" d="M115.448 51.716c1.702-.505 1.009-1.926 1.331-2.91-1.517.461-1.532 1.581-1.331 2.91M101.123 26.833c-.183.371-.38.912.238 1.093.23.067.554-.188.759-.266.184-.579.251-1.06-.287-1.242-.179-.06-.604.2-.71.415M7.594 37.142a.73.73 0 0 0-1.147.273c-.137.373.109.887.186 1.339l1.164-.546c.582-.418.086-.821-.203-1.066M116.791 48.775l.016.02q.015-.02.028-.04-.022.01-.044.02M117.716 46.138c-1.113.776-.353 1.89-.884 2.617 1.268-.498 1.395-1.348.884-2.617M88.51 59.978c-.407-.226-.932-.225-.994.391-.023.231.337.5.587.842.32-.178.742-.28.789-.474.053-.219-.165-.638-.382-.759M8.213 34.762c.588.17.626-.407.868-.865l-.175-.724c-.327.26-.729.471-.95.802-.1.153.096.74.257.787M109.351 8.951l-.073-.92c-.378.155-.877.216-1.094.496-.181.233-.029.723-.023 1.1zM11.948 25.466c-.335.463-.64.701-.666.967-.026.278.136.686.357.85.308.229.716.03.713-.355-.002-.415-.216-.828-.404-1.462"/></svg>