<svg xmlns="http://www.w3.org/2000/svg" width="145" height="73" fill="none" viewBox="0 0 145 73"><path fill="#fc6b7e" d="m31.532 128.534.73.584c-1.852-.992-1.29-.781-.73-.584m64.114-41.062c.167-.458.096-.456-.05-.301-.055.348-.541 1.313-1.127 2.394.257-.252.612-.769 1.177-2.093m-2.36 4.196a1 1 0 0 0-.03.11c-1.209 1.982-.773 1.282.03-.11M29.127 3.923c.29-.79.907-1.868 1.594-2.913l.781.477-.741-.352a40 40 0 0 1-1.635 2.788M102.01 35.38c.961.377 2.93 1.04 3.487 1.609-1.278-.072-1.983-.694-3.487-1.609m34.321 30.382 2.405-2.682c-2.088 3.835-4.101 6.242-1.709 3.822-.226-.368.534-1.666 1.646-3.295.278-.407.575-.837.887-1.276.457-.633.924-1.285 1.397-1.94 1.17-1.62 2.35-3.259 3.433-4.758-1.885-.91-3.589-1.704-4.855-2.226-.633-.26-1.158-.454-1.547-.562a3 3 0 0 0-.485-.1.32.32 0 0 0-.199.071l-1.981-1.28c.593.31.722.291 1.314.6-3.817-2.57-3.436-.709-8.619-3.494-1.791-1-2.988-1.8-1.673-1.308l-4.222-1.764c-1.178-.614-.79-.662.382-.05l-6.275-3.02.062-.01c-.975-.269-3.125-1.005-4.167-1.382-1.503-.949.853.279.518-.062l-3.584-1.451c-1.262-.99 1.736.156 4.101 1.387-2.668-2.719-3.004-1.148-9.635-5.268l3.33 1.485c-1.783-1.68-4.44-2.719-7.927-4.951.77.641 6.878 4.672 2.994 3.08-1.013-.61-2.383-1.345-4.516-2.129.178-.405-1.842-1.293-4.321-2.502l.431-.439c-2.744-1.18-2.667-.809-4.356-1.356-2.948-1.537-3.362-2.25-3.89-2.941-4.72-2.46 2.964 2.292-2.723-.423-3.861-2.177-6.749-3.35-11.642-5.4-2.683-1.565.644-.08-.277-.727l-2.665-.808c-.597-.31-.339-.341-.207-.356-2.152-.873-.432.439-3.76-1.045-1.165.14-6.26-4.178-10.618-5.533-.919-.646.641-.081.438-.437-5.742-2.327-4.893-2.052-9.724-3.739L40.398 5.22c2.645 1.812-1.217.467-4.59-.74.915.695 1.69 1.29 2.23 1.659l-2.607-1.126-1.305-.564-.582-.246-.52-.216c-.47-.341-.1-.382.785-.214a21 21 0 0 0-.901-.293c-.815-.527-1.088-.818-.935-.912.147-.098.73.007 1.526.222l.505.35c.164.116.33.233.462.331l.824.617c1.41.306 2.76.538 2.652.102-.36-.105-1.02-.368-1.733-.689.371.079.618.105.493-.023-.143-.14-.732-.289-1.627-.57l-.217-.29c-.038-.05-.064-.092-.114-.149l-.171-.176a27 27 0 0 0-.744-.736q-.24.024-.464.058L30.408 0l-1.942 3.285-.501.85-.127.214-.085.14-.17.278-.683 1.11c-1.974 5.012-3.347 9.559-7.155 17.15.585-2.079-.47-.77-.908-1.137 1.628-1.752 2.91-5.9 5.113-9.71-1.15 1.987-1.146 1.415-.95.858l-3.261 7.156c-.322-.375-1.097 1.302-2.243 3.012 1.541-.928-2.253 5.43-3.53 8.369-.363.029-.273-.793 1.648-4.182-2.65 3.452-1.706 5.39-4.226 8.822.447-.84.732-1.267.774-1.673-.82 2.082-3.598 6.754-3.223 5.504l.448-.836C6.28 44.708.22 56.103.453 57.3c-.12.007-.426-1.171-.381-1.582L-3.01 66.861c-.112-1.19-3.318 1.407-1.153-3.375-.8 1.276-1.783 2.86-3.085 5.758.572-.857 2.062-1.79 1.446-.53-1.242 1.514-1.645 2.055-2.094 2.699-.221.324-.46.67-.808 1.183-.18.252-.387.548-.636.901-.033.052-.052.073-.103.149q-.067.105-.14.211-.142.22-.298.456-.318.486-.693 1.056c.572-.925.815-.848.811-.321-.002.263-.056.63-.17 1.051a8.3 8.3 0 0 1-.518 1.413q.354.199.7.418c-.278-.083-.539.06-.852.16-.316.1-.7.15-1.333-.18l.003-.006-.003.006q2.25 1.108 4.133 1.984l.234.11.116.053.09.039.353.146.702.286 1.408.58c-1.367-.637-.69.6.293 1.559-.421-.5 4.388 2.776 5.796 3.536L-.84 84.65c5.659 3.732 6.44 2.33 12.106 5.946-.803-.253-2.397.043.43 1.969 1.608.385 7.223 1.536 12.477 4.35l.808.862 4.047 2.135c-2.83-.837-10.47-3.658-14.503-5.422 2.02 1.55.408.676 3.639 2.672.987.95-1.98-.738-2.934-1.317l7.39 4.852c-.005-.729 6.058 3.071 6.043 2.455l-8.473-4.56c-.003-.728 5.632 1.469 10.88 4.891 1.22 1.052-1.592.292-1.59.537.803.252 5.252 2.816 5.66 3.25l-2.428-1.134c2.832 2.051 5.255 2.333 8.493 5.059 1.205.801 3.238 2.966 3.643 2.791-1.625-1.852-.86-3.939.75-3.547.406.308 6.08 4.602 7.294 5.776 1.725 1.732-3.726-.787-2.26.69.164-.096 1.387.427 1.888.664 1.21.927-.81.106 2.028 1.795.797-.235 5.658 3.612 1.602.382 2.83 1.566 2.839 1.932 6.065 3.925-.81-.986 3.613.644 6.447 2.213-.247.034.259.594.507.861 1.27.811 2.386 1.539 3.446 2.243 1.113.738 2.142 1.423 3.145 2.091l2.109-3.866c.677-1.251 1.38-2.577 2.153-4.086.394-.441 1.923-3.029 1.578-1.771.31-.845.497-1.672 1.358-3.386 2.166-3.062-1.873 3.844-.012 1.618-.21-.379 1.817-4.642 2.86-7.176-.878.495-2.968 5.571-4.016 8.107-.688-.337.765-4.942 3.41-10.888 2.184-4.685 1.462-1.768 1.773-2.616 4.538-8.576 2.571-7.967 6.734-14.887 1.893-2.623.931.313 1.567-.157-1.75 3.831-3.218 5.61-4.5 8.157l1.807-3.02c-.465 1.266-1.636 3.821-2.459 5.12 1.612-2.185 7.541-14.552 11.311-21.032.46-1.258 1.355-3.379.684-2.501l-1.017 2.138c-1.341 1.76 1.545-4.215.017-1.63 1.199-2.954 2.432-6.322 4.669-10.202l.88-.494c-.191.01-1.628 2.451-2.05 3.647.629-1.772 3.796-5.761 4.075-7.913l-1.772 2.615c.497-1.218 1-2.576 1.562-3.99q.208-.517.42-1.048c.053-.171.111-.342.165-.516.11-.33.22-.628.362-.929a6 6 0 0 1-.787-.407c.081.26.103.324.181.371.069.044.174.062.257.155a3 3 0 0 1-.606.528c.312-.17.397-.124.316.144a4 4 0 0 1-.205.488c-.244.476-.508.996-.768 1.507-1.074 2.09-2.058 4.017-.789 2.463-1.982 2.233-2.561 4.308-4.85 7.381.218-.02.922-1.032-.674 1.89a7 7 0 0 1-.187.724c-.051.088-.072.118-.115.194l.103-.154c-.04.142-.042.155.039-.057.432-.67.81-1.197 1.019-1.384-.376 1.664-2.798 6.368-3.418 8.06-.978 1.718.189-.83-.478.04l-.927 2.527c-.484.05-2.99 4.362-1.087.112l-1.923 3.72c-1.326 2.09-2.953 5.066-3.75 7.005-.979 1.718-1.871 4.645-1.372 2.968l-2.765 5.96-.118.009c-2.996 5.742-5.473 12.178-9.502 18.435-.424.932-.85 1.885-1.366 2.966q-.085.172-.171.356l-.076.168q-.08.167-.172.351c-.121.24-.26.495-.414.748a8 8 0 0 0-.202-.148 5 5 0 0 1-.247-.576c-.162-.066-.378-.208-.585-.363-.769-.517-1.587-1.068-2.37-1.59-1.569-1.054-2.986-1.974-3.59-2.136-2.033-2.404-11.317-7.345-15.368-10.085l-.403.296c-2.834-1.809-5.638-3.414-9.276-5.475v.486c-3.228-1.627-7.686-5.167-12.534-8.156.411.072 1.612.874 2.428 1.497-5.271-4.4-12.52-7.055-17.387-10.91a18 18 0 0 1-3.158-1.984c.122.073.235.139.334.185-.13-.09-.328-.213-.53-.34-.538-.421-1.089-.862-1.695-1.321.491.428.972.825 1.405 1.142a95 95 0 0 0-4.108-2.386l-.402-.77c-.124-.076-.224-.134-.352-.208-1.378-1.057-1.29-.561-.684.207a30 30 0 0 0-2.115-1.013c-.813-1.35-4.046-2.254-5.269-3.916-.483-.127-1.812-.873-3.3-1.708-.375-.206-.758-.42-1.139-.633-.23-.129-.284-.15-.402-.207-.109-.052-.22-.102-.324-.152a16 16 0 0 0-1.343-.57c.068-.325.069-.581-.039-.697.137-.043.357-.35.055.22q.274-.436.54-.87l.251-.415.153-.265.176-.317c.463-.845.883-1.686 1.209-2.519l.89-.474 1.403-4.157c1.55-2.147 2.242-3.01 1.377-.514 2.42-5.851 2.215-4.612 4.194-9.632l.194.402c.899-1.69 1.934-4.61 2.746-5.483 2.64-3.44 10.182-18.587 15.979-27.95-1.949 1.37 2.852-4.266 2.34-5.038.525-.445 1.38-1.724.721-.056 2.457-5.05 4.369-7.221 5.605-10.956.526-.445-.249 1.23.154.799.167-.422.657-1.671 1.066-2.114.403-.431-.206.823-.532 1.656.379-.71.696-1.34.96-1.895l.045-.093.007-.032.018-.062q.017-.066.034-.125.03-.125.052-.254c.063-.345.096-.723.108-1.115.164-.223.237-.554.3-.88.464.329.82.576 1.142.777.085.053.147.092.242.146l.354.192q.345.181.677.335c.892.413 1.738.688 2.776.938.792.663 2.177 1.633-1.025.13 1.765.92 10.714 5.74 11.157 5.306.49.41 2.47 1.28 2.967 1.453 3.978 2.025 4.305 2.246 8.25 4.153l-1.044-.628c1.863.141 3.33 1.486 6.528 2.987l-.124.02c7.02 4.072 3.238 1.342 10.129 5.431l-.193-.588c1.09-.511 6.087 3.662 10.397 5.409l-1.385-.972c2.411.842 5.759 4.31 7.983 5.552.459.321-.842-.273-1.563-.565 5.71 3.473 1.03-.129 5.53 1.967.681.687-1.408.18 1.555 1.723 1.377.968 9.118 3.424 12.93 5.992-.791-.662-1.578-1.322.565-.453 3.199 1.5 8.143 5.074 11.335 5.824.373.26.495.39.485.452 2.504 1.032 7.998 3.63 9.637 3.991.383.609 1.509 1.333 2.975 2.095a45 45 0 0 0 1.363.673l.17.077.358.156c.491.21 1.033.428 1.612.662-.269.453-.558.937-.857 1.407q-.223.356-.446.686c-.225.33-.455.65-.664.933-.843 1.14-1.479 1.81-1.754 1.588l-4.888 6.794.015-.26c-3.237 4.259-4.085 5.982-4.928 7.696-.808.941-.379.137-.376.011-4.847 6.139-5.26 6.8-8.573 12.496l-.768.282c-.836 1.59-7.249 8.696-11.356 15.191.004-.091.027-.271.336-.8-4.673 7.27-13.212 15.915-13.758 19.436l-3.04 4.83c4.456-5.865-.074 1.308 1.938-.975-1.636 2.39-4.826 5.745-2.79 2.824l.395-.399c.085-1.564-5.655 7.208-6.003 6.689-1.061 1.446-2.141 2.843-3.29 4.142-1.15 1.289-2.363 2.499-3.687 3.483-1.32.99-2.737 1.776-4.22 2.262a12.4 12.4 0 0 1-4.604.526c-3.128-.219-6.19-1.479-9.09-3.028-1.458-.779-2.886-1.637-4.312-2.525q-2.162-1.347-4.3-2.679l.97 1.384-3.98-2.496c-.971-.778-1.139-1.312 1.703.467-1.302-1.246-4.956-2.675-5.115-2.601-5.448-3.67 2.595.676.887-.391l-2.353-1.39.484.392c-2.032-.929-2.35-.785-5.768-2.924-2.101-1.45-.896-1.035-1.736-1.585.028-.037-.247-.233-1.303-.823l-5.013-3.151 1.74 1.692c-2.372-1.155-4.728-2.942-2.715-.999-2.933-2.889-18.639-11.851-20.585-13.387-3.333-1.596-6.42-3.503-10.224-5.896.893.678 1.152 1.537-2.113-.557 1.85-.303-5.765-4.171-7.973-6.566 2.077 1.967-9.462-5.65-6.156-2.639-2.696-1.777.058-.498-1.849-2.022-1.657-.904-3.31-1.957-4.767-3.256-1.465-1.287-2.688-2.857-3.313-4.624a8.2 8.2 0 0 1-.481-2.76c.004-.952.16-1.926.44-2.907.557-1.966 1.603-3.928 2.795-5.884-.056-.212-1.099.977-.231-.835 1.12-1.232 2.313-2.426 3.506-3.657 1.031-1.59.256-1.957 2.705-4.46-.392.32-.976.8-.286-.267 11.484-14.88 21.644-31.697 33.853-46.42-1.744 1.93-.775.507.354-1.11-.8 1.005-.305-.253-.627-.173l5.104-6.169c.348-1.536 4.91-7.013 4.92-8.027l-1.373 2.126c1.389-3.138-3.95 2.967-4.375 2.062-1.546 3.52-6.666 7.444-9.334 13.125-.93 1.012.446-1.11-.142-.633-.6 1.495-1.63 3.083-3.789 5.848l.154-.376c-5.611 8.09-8.352 11.321-14.939 20.209l.823-.42c-1.42 1.907-1.817 2.238-2.547 3.084-1.045 2.603 3.883-5.43 3.035-2.985-2.533 2.068-9.69 13.676-11.733 14.839-2.113 2.982 1.027-.586-1.088 2.394l-.78.635-.25.956c-1.431 1.923-2.406 2.717-2.644 2.658.36-.46.902-1.387 1.248-1.907-1.028 1.18-2.268 2.97-3.35 4.602-1.099 1.642-1.975 3.192-2.299 3.66.684-1.04 1.4-2.029 2.129-2.983-1.392 2.14-2.894 4.49-3.966 7.287-.526 1.397-.93 2.92-1.047 4.528a11.95 11.95 0 0 0 .615 4.832c.532 1.552 1.377 2.941 2.345 4.125.974 1.186 2.068 2.18 3.18 3.048 2.23 1.732 4.541 2.99 6.63 4.12l-.512-.555c6.422 3.506 4.869 3.258 11.793 7.312l-.271-.111c1.472.667 3.354 1.704 5.212 2.872-1.852-.858 3.003 2.393.6 1.228 6.962 3.805 3.506 1.781 8.36 3.875l.85.921c1.682.675 1.893.613 5.353 2.636-2.952-1.473 1.907 1.781-1.43.181 6.772 5.039 11.028 5.903 13.745 8.85 3.781 1.22-5.925-4.257-3.977-3.297-1.383-1.211 3.082 1.071 5.282 2.534 2.277 1.424 3.259 3.415 9.025 6.942-.57-.358-.647-.322-1.217-.675 2.028 1.528 4.388 2.319 6.829 4.274 1.778.428 3.414 2.14 4.218 1.784l-5.365-3.106c3.092 1.68 6.342 2.686 11.058 6.067-.464-.112-2.03-.851-3.093-1.38 1.33 1.071 2.85 1.589 4.231 2.693-.808.359-6.501-3.809-9.997-5.31 1.388 1.212 6.34 3.281 4.32 2.959 1.418.287 2.819 1.188 4.402 2.232.794.523 1.63 1.082 2.536 1.62.913.54 1.91 1.063 3.014 1.482l-.486.224c.682.309 2.108.906 3.341 1.534-.83-.212-1.65-.445-2.47-.686 1.785.731 3.393 1.673 5.099 2.52 1.698.84 3.524 1.591 5.556 1.788a18 18 0 0 1-2.428-.56 10 10 0 0 1-1.282-.457c-.558-.246-.608-.341-.517-.401s.322-.086.335-.181c.013-.094-.196-.254-.938-.636 2.311.749 3.87 1.072 5.023 1.342.581.12 1.053.255 1.495.338.44.092.83.217 1.244.281.824.155 1.723.318 3.167.161a11 11 0 0 0 2.588-.585q.379-.137.787-.29l.826-.383c.293-.13.576-.294.873-.469.3-.172.613-.348.912-.562-.316.243-.84.512-1.38.79-.275.132-.568.245-.846.357q-.21.083-.407.159c-.133.044-.266.079-.388.115-.49.136-.858.22-.96.189-.1-.026.072-.142.64-.416.545-.169 1.092-.42 1.667-.659.28-.127.554-.268.832-.405.28-.131.543-.279.8-.426 1.049-.568 1.925-1.173 2.513-1.518a20 20 0 0 0 1.531-1.47c.332-.355.517-.575.596-.699.157-.248-.066-.085-.398.157-.668.489-1.74 1.294-.71.115 1.075-.686 1.626-1.405 2.157-2.222.515-.832 1.01-1.779 1.865-3.048l.362.251c1.26-1.553 1.878-2.458 2.223-3.038.343-.581.391-.835.427-1.072.072-.47.09-.858 2.305-3.594l-1.268 2.759 2.042-3.051-.047.906c2.061-3.437 2.873-4.382 5.296-7.453-.786.549-.34-.884 1.696-3.683 1.605-1.75-.447 1.313 2.402-2.682-.431 1.057-.872 2.239-2.46 3.722-.014.261-.424 1.043-.442 1.31 1.744-1.874 3.83-5.113 4.877-6.548-.419.541-.92 1.187-1.217 1.489l3.713-6.097c.796-.804.377-.01-.039.775.813-1.19 1.24-2.112 2.461-3.844-.036.654.337.766-1.299 3.284l3.687-5.7c.392-.273 2.397-2.552 1.984-1.764 2.389-2.907 4.89-7.844 8.055-11.697.098-.25.353-.707.936-1.591 2.831-3.729 5.634-6.814 8.521-11.578l2.375-2.16c2.453-3.59-3.165 2.96.916-3.018 2.865-4.252 1.569-1.22 2.774-2.563 1.247-2.245 3.335-6.207 6.537-9.693-.823 1.326-1.621 2.255-2.441 3.458"/></svg>