<svg xmlns="http://www.w3.org/2000/svg" width="39" height="110" fill="none" viewBox="0 0 39 110"><path fill="#82c6dd" d="M37.1 45.8q6-3.3 2-8.8c0-3.7-2.7-2.1-4.5-2.2 0-.6 0-1.4-.7-1.5q-1.2 0-1.6 1.3-1.2.5-.6 1.6c.1 1.5-.7 3.2.6 4.5.4 1.2.4 2.6 1 3.6.9 1.2 2 2.5 3.8 1.5M5 72.7c-2.2-2.1-2.7 0-3.4 1.4C-.6 75.5 0 77.6.5 79.6c-.9 1.3 0 2.6 0 3.8.4 1.4.8 3 2.9 2.2l1.5.9q.3 1.5 1.4.4C10.4 83.5 9.8 77 5 72.7m7.8-67.1c-2-.4-4.9.7-5 2.5.9 1.5-3 3.1.2 4.5.7 1.3-.4 3.5 3 3.3 1.6-.1 1.7 1.3 3-.3.8-2.2 1.6-4.4.8-6.8-.7-1 .2-2.7-2-3.2M11.5 14l.5 1.2zm.2-6c-.9.4-1.8-.3-2.7-.3 1 0 1.8.7 2.7.3q.8-.7 1.1-.5-.3-.2-1.1.5M24 72.7c4 1.5 4.8 1.1 4.6-2.2L24 71.9l4.6-1.4c-.6-3-.7-6.1-3-8.4 0-2.1-1.4-1.4-2.5-1.5-2.4-1.3-2.6-1.2-3.8 2.2q-.7 0-.6.9l-.2-.2c-2 0-1.4 1.7-1.6 2.8 0 .3.3 2 1.7 1 1 .3.9 1 .6 1.7-.7 1.7 1 0 1 .7l.6.8c.4 1.7 1 3 3.1 2.2m18.4 11.4-.3 1.6zc-.6-3-3.6-5.1-6.5-4-2.5 1-2.5 3.9-1.8 6.4v.7c.8 2.6-1 6.2 2.9 7.7l.1 1.4c1 1.1 2 2.1 3 0l.8-.6c3.2-.5 4.4-2 2.2-5-.2-2.2 1.3-4.6-.7-6.6M27.6 17.8c.5 1 1.6-.1 2.4 0 2.2.7 3.6-.3 4.7-2 3 .1 2.8-2 2.8-4-.8-2-.7-4.3-2.2-6 0-1 .5-2.2-1-2.7l-.5 1c-1.2.1-1.7-2-3.1-1-.3.2.1 1.3.2 2l-.1-.2c-.6-.1-1.3-.7-1.7-.5-.9.6 0 1.3 0 2-1.6 2.3-1.6 6.3 0 7q0 .4.3.7c-.8 1.2-2.5 2-1.8 3.7m4-1.5c0-1.3.8-1.8 1.6-2.3-.8.5-1.6 1-1.7 2.3l-1.3.8zM30 98.6c-.9-2.6-2.7-1.9-4.5-1.4h-.8l-2.7-1c-1.8-1.2-1 .4-1 1-.7 1.3 1 2.3.5 3.7-1.8 2.4-1.2 4.4.9 6.2-.3.8-1.1 1.5 0 2.5 1.5 1.5 1-2 2.2-.9.6 2.2 2.6.9 2.8.5 1-1.6 2.6-3 1.9-5.2v-.8c.9-.6.5-1.5.8-2.2.5.1 1.3.6 1.5.4.5-.5-.2-1-.4-1.5l-1.3-1.3M10.4 41.5v-.7H7.3l-.7.1-.6 1.4.6-1.4h4c1-.4.5-1 .4-1.6q0-.9-.7-.7v-.2c-1-.3-2-2.7-3 0v.2C6.5 40 3 37.1 3.7 40.8l-.2.7c-.9.3-.8 1-.7 1.6-.5 2.7-.9 5.4 3 6 1.6.4 3 .5 3.8-1.5l.6-.7c.3-.8 1-1.4.8-2.3.9-1.2 1.4-2.4-.5-3.1M7 47.6h-.3zm2.6-2.9v-2z" opacity=".9"/></svg>