<svg xmlns="http://www.w3.org/2000/svg" width="46" height="71" fill="none" viewBox="0 0 46 71"><path fill="#fc6b7e" d="M11.1 51.2v1.4c1 .8 1.4 2.3 2.7 2.3.9.8 1.4 2.4 2.8 2.4l1.2 1.4.9.1c.5.6.4.8 1.4 1q.5.5 1.3.5c.8.6.7 1.1 2 1 .6 0 .7.5 1.2.6q.7 0 1 .5c.6.2 1.3 0 1.8.3q.6.6 1.3.4.7 0 1 .5c1.3.5 1.3.5 1.7 1l2.7.4c.5.8 1.3.4 2 .6.6.9 2 .1 2.5 1 1.2.4 2.9-.1 3.8.8 3 1 3.4-1.9 2.8 2-.5.7-1.3.3-2 .3-.8.5-1.7.3-2.6.2-.3 0-.4-.5-.7-.5-.6-.2-2.4 0-2.6-.5s-.7-.1-1-.3q-.6-.6-1.3-.6c-.5-1-2.7-.3-3-.8-.6-.6-1.2 0-1.6-.9q-1.3.2-2.2-.6c-.7 0-1-.5-1.6-.6l-1.2-.1c-.2 0-.3-.5-.7-.5h-.9c-.6 0-.7-.6-1.3-.6l-.5-.1c-.3-.6-1-.3-1.3-.6-.3-.5-1-.3-1.3-.6q-.4-.4-1-.4-.6-.6-1.4-.6c-1-1.7-1.2-.2-2.4-2-1.7.3-1.8-2.4-3.5-2.4-1.2-.8-1-2-2.8-2.4-.5-.2-.6-1.2-1.4-1q-.4.5-1 .3l-.8.4c-1.8-.3-3.8 0-5.2-1-.6 0-1.4.2-1.7-.3s-1 0-1.3-.6c-1.1-1.8-3.5-3.2-3.6-5.4-.5-.6-1.3-1.1-1-2q-.5-.5-.4-1.4c-.4-.8-.8-.7-.6-1.8-.1-.3-.5-.4-.4-.8v-.6q-.4-.6-.3-1.3-.4-.5-.3-1.1c-.6-1.3 0-2.8 0-4.1q.2-.6-.2-1.2c-.3-.6.2-2.7.2-3.5q-.5-.5-.3-1.1c.1-.5-.5-.6-.4-1L-9.3 16c1.1-.8.2-2.6 1.2-3.5.3-1-.2-2.2.8-2.9.2-1-.2-2.3.7-3q.5-.2.5-.7-.1-1.3 1-2L-5 3-1.7.3h.9C-.4-.2.2.1.9.1c.2.4 1.1 1 .6 1.4l-3.5 3q-.7.4-.7 1.2-.6.5-.5 1.3l-.4.4c-.1.5 0 1-.6 1.3l-.2.9c-.8.5-.4 1.9-.6 2.8-1.3 1.3-.2 3.7-1.3 5q-.4 1 0 1.7.5.5 0 .8c-1 1.9-.5 4.4-1 6.5.7 1.1.1 2.5.1 3.8q.1.5.4.8v.6c0 .4-.3.8 0 1.2.5.4-.1 1.1.5 1.6 0 1.1-.4 2.4-.2 3.5q.4.5.2 1.1l.4.8c0 .8 0 .8.4 1.3.6.9 0 2 0 3 .8 1 2 1.4 2 3 .4 1 1.4 1.8 2 2.8.3.3.3.3 1.3.6.8.4 1.3 2.2 2.3 1.1l3.3.3c1.8-1.1-2-2.4-1.3-3.9q.3-1.3-.8-2c-.5-.5 0-1.2-.6-1.6 0-.6.2-1-.3-1.4 0-.8.3-1.6-.2-2.3l.6-6.3c.6-.5 1-.5 1-1.4q.2-.5.5-.7c0-1.5 1.9-2 2.8-3l.1-.6c.1-.8 1.3-1.3 1.9-1.8 1.2 0 1.8-.9 2.7-1.6h1c.4-.3.8-.9 1.5-.6.7 0 1-1.3 1.7-.6.4.6 1 .1 1.3.6l1.2 1.4c.4.6-.2 1 .5 1.6 0 1.5-.9 3.4 0 4.8l-.4 3.5c-.7 1-.6 2.5-.7 3.8 0 .4-.6.5-.6 1l-.2 1.4c-.5.3-.4.8-.6 1.3-.6.3-.2 1.2-.8 1.5q-.7.5-.6 1.2l-.5.7c0 1.4-1.8 1.3-1.6 2.7zM5.5 37.7c0 .7-.4 1.6 0 2.3.4.5 0 1.4 0 2q-.2.6.2 1.2c.3.4-.2 1 .3 1.3.7.5.5 1.9 1 2 .5 1 1.8 1.7 1.7 2.7q0 .4.2.5c.8-.2 1.3-1 2-1.4.3-.4 0-1 .5-1.3.9-.3.4-1.2 1-1.7l.2-.2c0-1 1-1 1-2q.1-.5.5-.7c.2-.8 0-1.7.7-2.2V39c0-.5.6-.6.6-1 0-2.7 1-5.5.3-8 0-.9.6-2-.1-2.6l-2.1-.2-1.4 1.1h-1l-1.3 1.1-.2 1-2.3 1.8q0 .9-.5 1.3.1.6-.4 1.1c-.7.9.1 2.4-.9 3"/></svg>