<svg width="39" height="110" viewBox="0 0 39 110" fill="none" xmlns="http://www.w3.org/2000/svg">
<g opacity="0.9">
<path d="M37.1361 45.7983C41.054 43.6589 41.7073 40.6218 39.1335 36.9817C39.0334 33.349 36.424 34.8638 34.5985 34.7711C34.5459 34.1856 34.693 33.4197 33.8699 33.3184C33.0271 33.2143 32.5751 33.8151 32.3228 34.5606C31.4279 34.8548 31.4217 35.4759 31.7181 36.2078C31.8256 37.7329 31.0133 39.3853 32.3426 40.7423C32.6515 41.9314 32.6865 43.3071 33.3382 44.2613C34.1511 45.451 35.3723 46.7611 37.1361 45.7983Z" fill="#82C6DD"/>
<path d="M4.92931 72.7347V72.7369C2.78597 70.5925 2.33626 72.6521 1.63256 74.0799C-0.648233 75.5393 -0.0293653 77.6051 0.479741 79.6478C-0.391962 80.9007 0.489936 82.1577 0.471835 83.4123C0.922677 84.8452 1.28807 86.3923 3.40029 85.6049C3.9077 85.8928 4.41512 86.1807 4.9231 86.4687C5.09732 87.5599 5.50575 87.6322 6.34294 86.9218C10.4073 83.4717 9.77827 77.0044 4.92931 72.7347Z" fill="#82C6DD"/>
<path d="M12.8096 5.62125C10.8281 5.20548 7.90467 6.31648 7.87073 8.147C8.65984 9.60587 4.88228 11.2378 8.03987 12.6068C8.68474 13.9208 7.64446 16.136 10.9582 15.9109C12.5845 15.8006 12.6773 17.1757 14.0004 15.6456C14.777 13.4315 15.6046 11.2231 14.8019 8.82354C14.1214 7.79627 14.9643 6.07323 12.8096 5.62125ZM11.0125 13.354C10.5034 13.4151 10.0203 13.3716 9.55643 13.2533C10.0203 13.3716 10.5034 13.4146 11.0125 13.354ZM11.5289 13.9429C11.7128 14.3123 11.8242 14.7535 12.046 15.085C11.8242 14.7541 11.7128 14.3123 11.5289 13.9429ZM11.6873 7.90998C10.8349 8.32179 9.91225 7.60736 9.03263 7.58247C9.91225 7.60679 10.8343 8.32122 11.6867 7.90884C12.2355 7.37258 12.585 7.26287 12.8221 7.39354C12.5856 7.26344 12.236 7.37372 11.6873 7.90998Z" fill="#82C6DD"/>
<path d="M23.9374 72.6559C28.0441 74.1889 28.7767 73.8489 28.5747 70.5018C27.0378 70.9561 25.5009 71.4103 23.9639 71.8662C23.9639 71.8657 23.9639 71.8651 23.9639 71.8646C25.5009 71.4103 27.0378 70.9561 28.5747 70.5013C27.9938 67.5315 27.9287 64.3767 25.5444 62.0541C25.6887 59.9814 24.1704 60.7372 23.15 60.6467L23.103 60.6331C20.6949 59.2783 20.4686 59.409 19.3056 62.8172C18.8927 62.9439 18.4888 63.0779 18.6721 63.6555L18.4962 63.5373C16.5553 63.5786 17.0718 65.2213 16.9145 66.2508C16.8659 66.5687 17.2098 68.3879 18.6353 67.2419C19.6134 67.6039 19.4708 68.3336 19.1732 69.0458C18.4775 70.71 20.1705 69.0277 20.1332 69.745C20.3442 70.0086 20.5558 70.2722 20.7673 70.5358C21.1882 72.1932 21.8698 73.4609 23.9374 72.6559ZM23.986 71.2559C24.0047 70.042 23.861 68.8608 23.4175 67.7227C23.861 68.8608 24.0052 70.042 23.986 71.2559Z" fill="#82C6DD"/>
<path d="M42.2792 84.1358C42.1972 84.6687 42.1152 85.2022 42.0332 85.735C42.1152 85.2022 42.1972 84.6693 42.2792 84.1358C41.683 81.1915 38.6996 78.9786 35.7808 80.1637C33.2573 81.1876 33.2567 83.9616 33.9898 86.4597C33.9774 86.7182 33.9644 86.9773 33.9525 87.2358C34.7925 89.8328 33.0938 93.3993 36.8629 94.8769C36.9099 95.3645 36.958 95.8527 37.0055 96.3403C37.9999 97.423 38.9932 98.4418 39.9181 96.2781C40.1981 96.0936 40.4781 95.9098 40.7581 95.7259C44.0187 95.205 45.2247 93.7416 43.0497 90.7282C42.8353 88.5266 44.323 86.1248 42.2792 84.1358ZM42.1078 91.0235C42.2883 90.1394 42.3437 89.2569 42.3166 88.3762C42.3443 89.2575 42.2888 90.1394 42.1078 91.0235Z" fill="#82C6DD"/>
<path d="M27.6376 17.7973C28.1014 18.7901 29.218 17.674 30.0468 17.7786C32.2444 18.531 33.6399 17.467 34.7294 15.7105C37.7722 15.9063 37.5312 13.7777 37.4995 11.7967C36.7324 9.8072 36.8241 7.50717 35.3222 5.78356C35.2164 4.78854 35.7799 3.55141 34.3493 3.07172C34.2978 3.05475 33.9906 3.80141 33.8028 4.19229C32.6047 4.21039 32.0741 2.15759 30.6865 3.12036C30.4359 3.29459 30.8076 4.3654 30.8919 5.02271L30.7589 4.94976C30.2034 4.7529 29.459 4.22964 29.1275 4.42141C28.1964 4.95936 29.1015 5.72358 29.175 6.40296C27.5108 8.67527 27.4927 12.6616 29.1428 13.4173C29.1592 13.664 29.2401 13.8874 29.3855 14.0876C28.6071 15.2518 26.8513 16.1144 27.6376 17.7973ZM31.5237 16.2615C31.6205 15.0295 32.3745 14.4853 33.227 14.0447C32.3745 14.4853 31.6205 15.0295 31.5243 16.2621C31.0921 16.5449 30.6599 16.8289 30.2283 17.1123C30.6599 16.8289 31.0921 16.5449 31.5237 16.2615Z" fill="#82C6DD"/>
<path d="M29.9089 98.6299C29.122 95.9616 27.2536 96.7287 25.4678 97.2321C25.2375 97.0703 24.9954 97.0511 24.7426 97.1744C23.8369 96.8373 22.8515 96.6314 22.0415 96.1375C20.1866 95.0068 21.0838 96.5969 20.9452 97.1704C20.3292 98.5168 22.0177 99.5389 21.4667 100.877C19.6572 103.254 20.2607 105.271 22.3882 107.061C22.1088 107.906 21.2818 108.644 22.3379 109.631C23.9156 111.105 23.3069 107.617 24.6119 108.711C25.2256 110.898 27.1755 109.601 27.429 109.174C28.3561 107.61 30.0056 106.168 29.3002 103.984C29.3285 103.736 29.3568 103.488 29.3851 103.24C30.1691 102.646 29.8014 101.713 30.0537 100.963C30.5758 101.142 31.3813 101.619 31.5674 101.443C32.1224 100.917 31.409 100.378 31.1534 99.9208C30.8722 99.4156 30.3348 99.0542 29.9089 98.6299Z" fill="#82C6DD"/>
<path d="M10.3838 41.4876C10.3668 41.2653 10.4041 41.0526 10.4941 40.8484C9.41025 40.8416 8.32643 40.8348 7.2426 40.828C7.00501 40.9021 6.76175 40.9332 6.51286 40.9219C6.31261 41.3959 6.11294 41.8694 5.91269 42.3434C6.11294 41.8694 6.31262 41.3954 6.5123 40.9208C6.7612 40.9338 7.00443 40.9027 7.24201 40.828C8.32641 40.8353 9.41025 40.8416 10.4941 40.8484C11.4919 40.5463 11.0122 39.8573 10.9087 39.2667C10.9777 38.7316 10.7384 38.5104 10.2118 38.5811L10.2763 38.3746C9.23432 38.0777 8.17256 35.7222 7.15887 38.4035L7.25164 38.64C6.4037 40.0061 2.99662 37.0515 3.57135 40.8195C3.43276 41.0384 3.36377 41.2777 3.36264 41.5368C2.5475 41.7761 2.63575 42.4277 2.66856 43.0539C2.16059 45.8218 1.80025 48.5149 5.71075 49.037C7.2969 49.4624 8.77614 49.6039 9.46852 47.6348C9.68518 47.3774 9.90181 47.1205 10.119 46.8637C10.3939 46.0984 11.1293 45.4869 10.8889 44.5501C11.7516 43.3588 12.3314 42.2145 10.3838 41.4876ZM4.95725 44.3516C5.08 44.3708 5.18012 44.3442 5.26101 44.2803C5.18012 44.3442 5.08057 44.3708 4.95725 44.3516ZM7.06441 47.5714C6.9377 47.5833 6.81209 47.598 6.68538 47.611C6.81153 47.598 6.93713 47.5833 7.06441 47.5714ZM9.56468 44.7238C9.57995 44.0823 9.41928 43.3961 9.51092 42.7733C9.41928 43.3956 9.57938 44.0817 9.56468 44.7238Z" fill="#82C6DD"/>
</g>
</svg>
