<svg xmlns="http://www.w3.org/2000/svg" width="4" height="100" fill="none" viewBox="0 0 4 100"><path fill="#0ba6e2" d="M3.98.953c.052.56-.004 1.294-.08 1.853-.024.175-.13.086-.151.207-.042.236.01.456-.039.69-.016.077-.184-.02-.198.062-.074.444-.032.865-.067 1.315-.176 2.218-.24 4.398-.316 6.643-.025.74-.177 1.64-.11 2.405.007.09.155.036.167.053.186.267-.112.178-.151.352-.157.69-.17 1.458-.113 2.122.024.283.317 0 .153.284-.011.02-.168-.052-.184.025-.038.176-.01.51-.022.646-.025.262-.024.306-.025.554-.004.34-.082.743-.046 1.107.008.078.168-.025.195.1.028.123.014.452-.024.562s-.164.064-.193.084c-.244.16.094.54.103.59.142.89-.05 1.654-.05 2.49 0 .635.064 1.314.056 1.918-.011.72-.098 1.33-.083 2.029.001.073.19-.013.192.077.022.957.001 1.908-.126 2.861-.013.096-.179-.027-.202.068-.136.585-.463 1.51.258 1.858-.028.396-.057.877-.202 1.231-.094.229-.274.007-.197.287.017.064.175-.019.189.076.058.4.006.837.088 1.232.017.08.159.058.184.081.207.192-.135.51-.16.58-.185.53-.112.916-.116 1.409-.001.114.189-.021.194.09.028.57.011 1.162-.073 1.72-.02.125-.181.01-.199.07-.075.262.231.32.165.572-.014.053-.152.023-.167.032-.24.152.1.283.107.322.102.492-.252.807-.202 1.282.007.057.182-.071.19.089.048 1.065 0 2.191-.14 3.246-.022.164-.154.046-.17.057-.254.168.086.277.099.33.092.422-.193.816.212 1.102-.14 1.786.087 3.564-.276 5.335-.005.022-.172-.018-.18.027-.094.54.167.437.485.795.08.09-.305.364-.333.388-.104.089-.353-.003-.373.027-.158.245.666.205.667.535-.002.01-.153-.033-.168-.005-.048.086.012.172-.04.256-.12.193-.521.262-.288.556.03.038.498-.02.476.276-.01.118-.001.638-.032.784-.03.146-.18.046-.187.056-.2.393-.282.244-.577.44-.294.198.407.143.485.223s-.086.369-.143.44c-.058.07-.153-.018-.186.045-.211.417.348.183.46.32.263.324-.257.577-.308.873-.014.08.105.015.116.086.042.283-.12.453.029.775.024.053.337.313.107.482-.033.024-.162-.044-.192.077-.043.18-.071.504-.028.698.032.143.245-.02.18.159-.03.08-.155-.068-.2.082s-.04.532-.036.677.166.066.177.078c.063.07.14.35.14.374.02 1.242-.253 2.387-.162 3.596.007.095.177.032.18.046.072.325-.382.069-.534.296.346-.033.284.1.322.33.018.11.152.05.166.06.204.163-.06.277-.113.307-.198.108.036.226-.097.3-.131.073-.326-.096-.323.123.124.062.448-.101.5.065.2.629-.055 1.802-.082 2.308-.026.504-.003.667-.048.961-.081.531.16.337.27.666.11.33-.482.17-.61.218-.127.046.004.097-.066.155s-.156-.067-.182.069.2.508.333.556c.282.103.577-.065.474.295-.007.02-.162-.047-.178.033-.12.63-.127 1.284-.233 1.914-.015.086-.188.009-.199.06-.11.524.182.336.506.624-.432-.065-.696.094-.698.492-.002.24.186.198.32.353.04.046-.09.216-.001.246.29.102.614-.058.484.353-.006.017-.164-.04-.174.022-.063.403.24.45.277.885.029.341-.156.947-.186 1.335-.485-.008-.374.359-.04.507-.013.252.006.524-.04.767-.016.084-.157.029-.172.04-.238.162.087.271.1.325.124.59-.123 1.07.119 1.631.008.02.345.053.1.203-.018.01-.171-.176-.183.089-.012.264-.193.763-.036 1.13.037.089.31.314.097.494-.029.024-.126-.002-.18.032-.17.112.17.174-.12.305-.289.132-.506.406-.306.777.006.012.276.1.272.216-.007.186-.064.45-.062.644.001.093.169.033.172.05.094.624-.056 1.069-.12 1.738-.013.123.216.476.035.713-.198.261-1.02-.007-.825.593.079.242 1.123.548.582.982.134.843-.143 1.623.048 2.468.009.038.3.158.296.248-.006.132-.142.205-.151.3-.041.397.075.76.057 1.143-.007.145-.147.094-.155.268-.008.173.177.288.088.523-.068.177-.447.354-.492.59.374.009.367.17.465.457.02.056.15-.004.165.023.067.106-.04.204.033.305.017.025.145.026.166.046.188.17-.099.452-.149.5-.19.185-.024.272-.099.414-.074.141-.168-.07-.213.095-.094.343-.073.784-.08 1.133 0 .139.17.044.173.064.044.287-.138.578.202.737-.878.2.085.174-.09.585-.015.032-.43.073-.491-.051-.06-.124.069-.313-.026-.485-.022-.041-.411-.275-.435-.307-.184-.25.436-.285.47-.299.368-.15-.051-.436-.08-.51-.133-.345-.046-.638-.14-.926-.061-.188-.468-.207-.455-.355.04-.491.608-.663.116-1.126-.105-.1-.549-.001-.2-.357.022-.023.342-.287.14-.44-.026-.019-.155-.018-.166-.043-.07-.17.033-.283-.017-.468-.049-.184-.123-.406-.079-.617.027-.127.268-.29.327-.351.17-.172-.109-.356.097-.463s.521.103.655-.178c-.336-.011-.681-.035-1.02-.052.012-.616.121-1.223.106-1.842-.002-.076-.183.002-.19-.08-.028-.347.1-.65.05-1.01-.041-.279-.233-.584-.281-.875.385-.178.254-.61.29-.924.012-.11.114-.103.148-.18.124-.296-.216-.158-.27-.238-.228-.347.541-.377.522-.786 0-.022-.41-.287-.436-.324-.167-.231.143-.038.173-.183.055-.265.153-.449.033-.76-.035-.09-.291-.308-.093-.484.026-.023.161-.01.17-.029.132-.337-.295-.346-.439-.539s.15-.49.235-.551c.22-.159.094.121.115.13.256.1.212-.116.234-.282.417-.024.392-.257.02-.172-.04.01-.001.138-.02.172-.41-.146-.463-.401-.08-.683.18-.132.39-.007.313-.408-.035-.181-.323-.111-.401-.272-.179-.366.09-.842.047-1.22-.015-.137-.173-.004-.189-.098-.042-.248.076-.468.015-.718-.005-.022-.17.033-.172-.044-.02-.59.086-1.102.089-1.717.001-.297-.09-.828-.071-1.136.03-.534.27-1.19.212-1.645-.037-.298-.202-.232-.315-.36-.217-.245.173-.68.233-.74.002 0 .04.255.126.118.176-.079-.125-.114-.126-.117.04-.038.077-.55.045-.65-.017-.056-.173-.025-.18-.054a6.7 6.7 0 0 1-.106-2.06c.003-.012.178.006.183-.023.078-.4-.136-.658-.263-.989s-.084-.593.216-.788c-.038-.25.095-.608.175-.814s-.26-.235-.266-.253c-.215-.565-.02-.892.01-1.479.015-.279-.035-.832-.072-1.134-.03-.239.05-.382-.001-.602-.007-.03-.158 0-.164-.01-.181-.245.189-.127.255-.177.24-.184.368-.297.255-.612-.026-.072-.559-.283-.59-.416-.04-.171.152-.107.105-.286-.003-.016-.121-.013-.116-.124.022-.515.091-1.077.08-1.612-.002-.074-.189.02-.194-.086-.022-.496-.015-1.04.073-1.522.022-.12.153-.045.192-.07.235-.16-.107-.384-.113-.421-.165-.885.145-1.562-.003-2.463-.008-.05-.375-.427-.06-.596.02-.012.342-.178.122-.326-.014-.009-.18.095-.162-.086.017-.182-.094-.474.088-.723.057-.079.378-.265.122-.5-.018-.016-.596-.38-.197-.51.066-.02.488.002.271-.28-.042-.053-.136.044-.194-.097-.091-.217.022-.504-.166-.77-.033-.047-.32-.244-.102-.403.034-.025.175.022.19-.061.076-.399-.018-.816.08-1.22.034-.144.261-.07.322-.22.061-.149.12-.45.016-.606-.104-.157-.467.014-.496-.22-.126-1.018.087-2.026.118-3.043.004-.15-.125-.026-.128-.248-.01-.819-.131-2.233.145-2.944.22-.57.389.147.479-.288.043-.21-.38-.437-.393-.488-.134-.495.052-.84-.005-1.285-.012-.092-.183-.002-.191-.08-.03-.268.047-.549.033-.805-.007-.114-.138-.093-.128-.199a1.9 1.9 0 0 1 .2-.722c.012-.022.174.129.18-.058.01-.302.13-.678.005-1.026-.037-.103-.336-.107-.13-.329.044-.047.402.013.092-.246-.051-.043-.469-.477-.2-.69.071-.057.365-.2.319-.324-.008-.017-.168.05-.184-.053C.363 36.9.38 36.52.33 36.147c-.014-.1-.18.049-.195-.1-.042-.407 0-.916.052-1.314.02-.147.157-.046.172-.057.243-.172-.085-.273-.104-.33-.115-.355.04-.626-.001-.953-.011-.09-.168-.026-.182-.044-.136-.186.145-.048.176-.166.088-.33.075-.699.055-1.033-.007-.123-.189.015-.194-.095a10 10 0 0 1 .086-1.967c.02-.12.16-.044.191-.07.224-.172-.08-.424-.11-.482-.132-.264-.009-.366-.032-.6-.115-1.139-.033-2.545.018-3.62.065-1.4.198-2.488.163-3.824-.002-.085-.188.001-.192-.072-.045-.945.028-1.875-.026-2.822-.004-.078-.18.034-.193-.09a2.9 2.9 0 0 1 .04-.84c.027-.125.178.044.202-.083.057-.296.07-.613.041-.916-.012-.13-.193.066-.195-.102-.018-1.145-.049-2.269.185-3.425.016-.08.382-.149.312-.317-.102-.013-.221-.012-.33-.018-.059-1.666.068-3.315.088-4.985 0-.07-.193.051-.193-.085.003-.79-.05-1.556.142-2.363.02-.08.36-.039.31-.275-.01-.042-.056-.397-.13-.489-.011-.012-.17.052-.175-.062-.024-.666.012-1.363.11-2.028.015-.107.185.007.198-.07C.71 1.91.58 1.32.734.802.838.455 1.132.583 1.421.4c.04-.026.047-.24.215-.252.423-.028.886.076 1.336.033.097-.009-.007-.296.227-.126.016.012.094.22.173.271.055.036.226-.028.297.045s-.073.153.01.274c.083.12.278.067.3.309M1.278 67.047c.163-.19-.435-.219-.292-.012.008.01.284.022.292.012m.094 23.083c.264-.249-.124-.42-.328-.244-.203.176.248.32.328.244m.193 2.587c.208-.292-.64-.338-.469-.025.01.018.457.042.469.025M1.503 1.253a.6.6 0 0 0 .008-.16c-.19-.083-.206.226-.008.16m.272 94.03c.114-.09-.018-.353-.16-.24-.116.091.017.354.16.24m.141-38.188c.01-.003.017-.114-.033-.111-.163.007-.117.161.033.111m-.132 42.55c.032-.644.733-1.035.654-.333-.014.127-.224-.274-.287-.112-.115.296.325.492.09.794-.044.055-.46-.312-.458-.35zm.212-32.708a.6.6 0 0 0 .008-.16c-.19-.083-.205.225-.008.16m.29-16.296c.017-.008.033-.364.017-.375-.31-.186-.343.533-.017.375m.148 26.608c.191.167.214.367-.026.5.012-.166.014-.333.026-.5"/></svg>