<svg xmlns="http://www.w3.org/2000/svg" width="53" height="101" fill="none" viewBox="0 0 53 101"><path fill="#fc6b7e" d="M35.033 65.237c.01.57.392 1.151.118 1.74-.847 1.263-1.16 3.254-2.613 3.668-.88 1.316-1.28 3.482-2.771 3.961l-1.075 2.05-.957.529c-.485.835-.367 1.124-1.409 1.651-.453.476-.698 1.02-1.327 1.155-.822 1.028-.652 1.582-2.02 1.99-.757.093-.735.805-1.328 1.154-.508.078-.761.52-1.012.982-.59.366-1.348.477-1.859.983-.29.758-.89.817-1.394 1.053-.434.203-.844.386-1.043.956-1.265 1.083-1.271 1.08-1.674 1.882-.93.531-1.918.78-2.817 1.437-.465 1.04-1.355.895-2.027 1.36-.561 1.339-2.154.957-2.664 2.295-1.247.826-3.051.825-3.922 2.281-3.14 2.274-3.796-.929-2.827 3.55.623.539 1.407-.289 2.153-.506.89.33 1.824-.32 2.782-.767.326-.16.385-.659.691-.838.648-.434 2.584-.935 2.747-1.536.253-.612.798-.481 1.12-.839.28-.621.777-.87 1.316-1.17.403-1.24 2.866-1.316 3.176-2.14.48-.897 1.186-.452 1.528-1.584.802-.348 1.775-.559 2.263-1.53.785-.202.974-.965 1.643-1.317.431-.168.873-.338 1.277-.603.274-.179.32-.69.694-.837.323-.127.643-.288.963-.442.695-.087.73-.882 1.329-1.156.202-.058.4-.228.6-.347.215-.77.943-.695 1.294-1.191.281-.704 1-.638 1.314-1.172.234-.596.718-.61 1.096-.882.359-.568.716-.95 1.343-1.136 1.026-2.468 1.306-.766 2.424-3.249 1.803-.438 1.716-3.668 3.44-4.258 1.254-1.422.99-2.7 2.797-3.956.57-.438.59-1.63 1.37-1.633.35.313.758.175 1.192-.069.318-.226.543.225.857.124 1.843-1.028 4.042-1.35 5.499-3.071.581-.354 1.413-.364 1.77-1.116.254-.651 1.031-.424 1.313-1.177 1.017-2.558 3.392-5.098 3.35-7.713.398-.939 1.268-1.851.866-2.802.252-.623.379-1.158.194-1.749.425-1.15.865-1.218.562-2.445.066-.346.44-.647.3-1.054-.072-.206-.142-.47-.082-.69.36-.583.265-1.137.21-1.748.358-.49.288-.942.182-1.4.594-1.712-.235-3.248-.36-4.877-.071-.44-.28-.853.063-1.4.283-.82-.477-3.11-.55-4.18.335-.471.462-.933.243-1.386-.164-.475.446-.898.27-1.413-.813-4.24-1.485-8.593-2.26-12.86-1.238-.56-.4-3.049-1.617-3.706-.386-1.042-.017-2.737-1.084-3.123-.315-1.05-.005-2.888-1.121-3.274-.45-.166-.43-.214-.513-.71-.072-1.061-.38-1.767-1.275-2.002l-.23-1.008L43.78 0l-.945.392c-.53-.489-1.182.1-1.873.361-.224.556-1.11 1.54-.53 1.953 1.342.718 2.681 1.442 4.047 2.113.482.237.833.537.836 1.22.4.334.703.652.729 1.321.06.193.38.207.472.343.137.577.164 1.173.766 1.286l.217 1.009c.979.355.636 2.114 1.014 3.08 1.45 1.106.513 4.334 1.793 5.571.328.442.54 1.317.206 1.967-.264.5-.222.64.139.88 1.11 1.886.954 5.068 1.581 7.408-.594 1.577.161 3.029.31 4.525.087.389-.267.702-.3 1.05-.022.24.085.46.107.698.043.462.276.859.11 1.393-.518.77.17 1.359-.405 2.097-.018 1.456.615 2.71.555 4.178-.362.5-.24.943-.156 1.4.028.351-.375.705-.3 1.046.066.922.083.932-.372 1.745-.504 1.199.322 2.291.25 3.476-.623 1.575-1.824 2.473-1.671 4.216-.372 1.43-1.434 2.807-2.055 4.21-.23.44-.23.44-1.246 1.271-.799.755-1.108 3.094-2.284 2.118l-3.528 1.63c-2.059-.633 1.803-3.538 1.012-5.09-.393-1.09.105-1.803.673-2.792.461-.76-.211-1.382.405-2.101-.106-.598-.238-1.133.218-1.729-.126-.95-.5-1.804.001-2.807l-1.263-7.254c-.65-.406-1.038-.247-1.207-1.316-.084-.367-.47-.348-.595-.636-.225-1.665-2.214-1.645-3.255-2.495-.168-.09-.232-.315-.232-.584-.205-.986-1.473-1.063-2.15-1.535-1.283.61-2.066-.266-3.105-.75l-.98.381c-.534-.237-1.008-.82-1.691-.261-.757.41-1.32-1.126-1.933.028-.29.758-.963.495-1.323 1.172a27 27 0 0 1-1.105 2.102c-.415.85.26 1.242-.39 2.109.051 1.844 1.256 3.73.49 5.622.234 1.345.488 2.728.71 4.125.932.935.956 2.618 1.196 4.112.017.587.63.454.69.97.067.586.214 1.14.327 1.71.556.117.567.76.756 1.291.74.125.332 1.285 1.025 1.434.553.142.78.579.835 1.216.12.293.51.269.596.634.181 1.63 1.984.85 1.918 2.589q1.077.568 2.162 1.135m4.685-18.13c.04.87.57 1.817.282 2.733-.42.798.108 1.648.124 2.436.052.447.291.851-.059 1.396-.335.626.28 1.094-.225 1.742-.676.784-.365 2.381-.781 2.79-.463 1.245-1.793 2.587-1.637 3.844.106.295.074.457-.154.559-.815.1-1.453-.695-2.19-.925-.451-.248-.14-1.17-.75-1.3-.93-.032-.57-1.283-1.291-1.574-.075-.021-.12-.154-.149-.253-.081-1.227-1.243-.826-1.315-1.952.041-.488-.373-.454-.575-.653-.278-.824-.122-2.017-.935-2.337-.081-.463-.215-.911-.228-1.394-.016-.569-.585-.553-.663-.977-.354-3.134-1.63-6.107-1.14-9.387-.11-.985-.773-2.103-.094-3.122l2.213-1.059c.592.176 1.086.537 1.637.796l.985-.38 1.582.83c.072.336.143.672.219 1.021l2.669 1.4c.038.69.237 1.062.716 1.34.11.424.097.9.53 1.118.778.758.056 2.938 1.23 3.309"/></svg>