<svg xmlns="http://www.w3.org/2000/svg" width="30" height="110" fill="none" viewBox="0 0 30 110"><g fill="#82c6dd" opacity=".9"><path d="M21.307 53.945c.199.65-1.649 2.36.853 2.024l1.153 1.352.363-1.335 1.444-.128c1.177.323.5-1.557 1.59-1.337.382.497 1.19 1.728 1.258 1.127.245-2.144 2.85-4.245.43-6.527 1.467-2.61.125-5.003-.591-7.437-.46-1.562-1.068-3.359-2.985-3.16-1.608.167-2.916 1.379-3.38 3.145-1.128 1.343-4.284 2.298-.864 4.512-1.323 2.726-.037 5.25.729 7.764M3.101 28.603c.6 1.311.912 3.023 3.05 2.18 4.164 1.444 3.298-1.4 3.126-3.652 3.765-1.273 1.521-2.615.035-3.948.227-1.415.11-2.697-1.7-3.7 1.494 1.853-.235 2.102-.89 2.862-1.257-.051-1.248-1.003-1.34-1.883-.905 1.306-2.423.4-3.53.977 1.279 2.237-1.327 5.153 1.25 7.164m5.299-.025c.029-.261.058-.523.137-.755-.079.232-.108.494-.137.755q-.362.007-.725.012zM4.596 61.33l-.723-.724zc.947-2.175 1.884-4.351 1.507-6.819-.148-1.497 1.073-3.222-.74-4.442a1.3 1.3 0 0 0-.728-.125c-.75-1.04-1.53-.819-2.321-.054-.615 1.288-3.266-.137-3.036 2.277-3.483 2.174-1.949 5.276-2.102 8.368-.118 2.383 1.212 2.332 2.097 3.253 1.459-1.5 4.961 1.42 5.323-2.458M-5.186 11.444c-.072.582.517 1.163 1.226.449.156-.158.167-.459.245-.694 1.44-.636 1.239 1.367 2.26 1.406 1.687-1.034.65-2.802 1.123-4.163l-1.03.28q-.041-.718-.081-1.438C1.015 4.756-4.001 3.176-1.176 0c-2.291 1-3.414 1.924-4.51 1.893-5.22-.144-3.138 2.887-2.482 5.34-2.13 3.57 3.28 1.823 2.982 4.211M27.495 74.252c-.815-.546 2.038-2.373-.776-2.22-2.51.675-4.29 2.543-6.373 3.915-.28 1.426-.034 2.718.972 3.817-.467 1.926 1.128 2.26 2.272 2.942 2.82 1.782 4.296 1.23 4.042-2.327v-1.244c.969-.23 1.214-.978 1.31-1.832 1.643-2.025-.608-2.203-1.447-3.05M12.405 80.268c1.637-1.269.377-3.734.084-3.519-2.516 1.844-2.958-2.267-4.857-1.45-.906-.09-1.715-.634-2.102 1.041-.836 3.623-2.43 7.121-.764 10.899-.384.736-.015 1.563-.56 2.387-.997 1.51-1.076 3.066 1.054 3.819-.215.452-.868.716-.587 1.38.945 3.102 3.548.883 5.227 1.628 2.229.105 1.642-2 2.396-3.053.926-.764.563-1.571.077-2.382-.291-2.522 2.438-5.13-.22-7.584l.25-.744c.762-.815 2.482-1.64.002-2.422"/></g></svg>