<svg xmlns="http://www.w3.org/2000/svg" width="296" height="54" fill="none" viewBox="0 0 296 54"><path fill="#000" d="M6.504 0c.661.412.972.802 1.45 1.404.246 7.748.02 16.92.026 24.763h31.13l.024-24.036c.39-.486.941-.99 1.396-1.431.577.508.844.848 1.33 1.45.255 9.43.022 20.127.023 29.65l.001 12.833c0 1.395.252 6.892-.413 7.73-.357.33-.507.51-.991.613-.505-.058-.966-.624-1.346-1.003-.242-7.177-.024-15.774-.007-23.064-4.019-.129-8.452-.047-12.502-.047l-18.656.034-.015 22.991c-.378.446-.886.921-1.31 1.338-.4-.351-.927-.917-1.315-1.309-.139-2.71-.055-6.043-.053-8.791l.002-15.18-.008-16.938c-.001-3.115-.08-6.687.056-9.768C5.609.897 6.178.34 6.504 0M155.795 15.48c4.06.11 10.379-.716 13.483 1.638a6.4 6.4 0 0 1 2.519 4.36c.51 3.905-2.012 7.019-5.883 7.517 1.59 2.101 5.952 6.943 7.036 8.818-.824.017-1.751.213-2.273-.445-2.014-2.174-4.624-5.682-6.568-8.082a345 345 0 0 0-6.534-.046c-.079 2.782-.015 5.757-.058 8.573A9.7 9.7 0 0 1 156 37.71c-.396-.45-.213-19.785-.205-22.23m1.709 12.364c3.655 0 8.314.621 11.117-1.637 1.048-1.328 1.686-2.604 1.472-4.35-.769-6.255-8.106-4.556-12.609-4.735.008 3.38.122 7.396.02 10.722M228.139 15.479c3.695.106 10.595-.706 13.462 1.653 4.428 3.644 2.913 11.042-3.418 11.851.958 1.31 6.696 7.778 6.688 8.612-.737.53-1.513.233-2.047-.378-1.402-1.58-5.204-6.253-6.372-7.956l-6.581-.025c-.002 1.057.08 8.015-.141 8.459-.484.088-.916.05-1.405.031-.328-.454-.273-1.514-.256-2.096.186-6.69-.145-13.472.07-20.151m1.686 12.365c3.222.005 8.838.578 11.096-1.673l.023-.025c2.472-3.101 1.896-7.415-2.211-8.715-2.229-.706-6.445-.222-8.925-.305zM108.629 15.484c3.717.088 11.522-.863 14.211 2.098 4.458 4.909 1.861 12.378-5.347 12.578l-7.092.01c.015 1.466.139 6.33-.063 7.45-.366.207-1.191.175-1.654.187-.188-7.124.278-15.366-.055-22.323m1.783 13.14c3.671.023 8.774.74 11.382-1.803.811-.97 1.611-2.59 1.562-3.86-.286-7.495-8.319-5.678-12.948-5.83z"/><path fill="#000" d="M10.455 3.954c.333.164 2.285 2.145 2.688 2.542.099 4.813.015 9.924.019 14.762 6.216-.242 14.43-.089 20.742-.008l.03-13.916a26 26 0 0 1 2.76-2.688c-.033.798-.023 1.735-.032 2.544l-.01 16.863c-8.556-.173-17.622-.022-26.218-.02zM10.411 31.103c8.725.004 17.55.07 26.266-.028-.023.712-.021 1.466-.012 2.18.072 5.366-.122 10.793.034 16.155-.989-.89-1.839-1.766-2.767-2.72-.062-3.382-.01-6.972-.012-10.367l-.003-2.46c-6.746-.126-13.999-.047-20.764.006l-.005 12.917c-.743.789-1.873 1.814-2.681 2.622-.147-6.021.011-12.247-.056-18.305M44.297 4.537c.771.435 2.336 2.513 2.763 3.326.23 12.674.017 26.077.02 38.824-.465.372-.984.931-1.41 1.366-.521.572-.73.725-1.367 1.172zM262.152 15.222c5.233-.475 8.521 1.853 10.816 6.447-1.2-.016-1.709.117-2.417-.988-1.42-2.191-2.463-3.08-5.056-3.62-9.815-2.04-14.885 8.683-9.582 16.053 3.998 5.556 14.535 3.75 15.818-3.378.111-.617.234-1.237.334-1.865-1.49-.214-7.918.237-8.575-.288-.043-.338-.14-.895-.072-1.208.593-.256 9.005-.167 10.416-.171-.138 3.033-.463 5.554-2.389 8.005-3.628 4.618-10.766 5.028-15.266 1.512-4.872-3.808-5.372-11.702-1.73-16.477 1.896-2.486 4.688-3.656 7.703-4.022M2.507 3.995l.237.247c-.031 15.052.042 30.106-.014 45.159-.328-.406-.74-.819-1.104-1.2-.491-.433-1.02-.988-1.49-1.456-.128-2.103-.1-4.481-.063-6.592.197-11.189-.28-22.548.043-33.718.616-.71 1.665-1.65 2.391-2.44M57.582 15.47c.535.015 1.157-.004 1.7-.007q.038 4.887.009 9.772c4.281-.073 8.774-.002 13.073-.002l.011-9.72 1.742-.043c.13 4.717-.011 9.678.043 14.417.017 1.459.088 6.562-.11 7.753-.357.214-1.202.145-1.66.14l-.003-10.93c-3.605.201-9.307.013-13.104.003.074 3.118-.032 6.327.057 9.453.016.55-.216 1.226-.641 1.597-.485.143-.301.163-.736-.069-.678-.894-.418-6.414-.418-7.794zM205.794 15.48c4.182.128 8.517-.079 12.729.064.212.23.18 1.17.191 1.545-3.509-.118-7.623-.023-11.176-.023l-.014 8.452c1.17-.073 10.119-.193 10.501.135.018.414.059.794-.058 1.193-.779.2-9.105.095-10.429.091l-.017 9.14 11.27.007-.061 1.681q-6.459-.035-12.918.013c-.244-6.897-.062-15.302-.018-22.298M282.543 15.469c4.022.125 8.299-.153 12.326.123.406.028.43.158.635.463-.08 1.52-3.069 1.017-4.221 1.014l-7.138-.007c.038 2.795.006 5.668.011 8.47 1.224-.07 10.273-.232 10.696.105-.009.502.082.902-.176 1.225-1.09.174-3.096.091-4.258.083l-6.201.002c-.219.73-.064 8.039-.061 9.132l11.247-.002c-.003.663.002.96-.14 1.605-1.072.358-10.631-.008-12.715.15-.171-7.192-.012-15.116-.005-22.363M133.612 15.48c3.377.098 6.82.007 10.202.03.831.005 1.594-.13 2.42.049.155.563.202.703.095 1.288l-.241.255c-2.793-.05-8.355-.08-10.873.032-.066 2.705-.023 5.591-.029 8.31 3.034.157 7.694-.226 10.511.095.279.452.229.934-.005 1.381-.766.081-2.702.02-3.535.018l-6.987-.006c.068 2.982.017 6.138.017 9.134 3.726.056 7.562.017 11.295.019.003.552.055 1.08-.174 1.578-.642.234-11.228.1-12.709.119-.161-7.075-.078-15.194.013-22.302M195.702 15.455c.579.033 1.275.021 1.864.027-.336.69-.699 1.746-.98 2.487-.111.227-.232.467-.33.7-2.776 6.557-5.318 13.253-8.233 19.748-.823-1.405-1.551-3.327-2.197-4.868l-3.239-7.793c-.941-2.267-3.611-8.304-4.11-10.254.383-.01 1.667-.11 1.843.258.955 1.988 1.749 4.142 2.568 6.19a865 865 0 0 0 5.167 12.706c1.017-3.072 2.651-6.922 3.865-9.958 1.157-2.894 2.501-6.498 3.782-9.243M98.632 15.496l1.969-.034c-1.241 2.191-2.908 4.656-4.29 6.8-1.248 2.028-2.611 4.09-3.904 6.096-.208 3.01-.022 6.444-.128 9.542-.547-.125-1.125-.103-1.688-.105-.053-3.108.001-6.215-.064-9.344a643 643 0 0 0-5.393-8.375c-.776-1.198-2.252-3.357-2.825-4.572l1.833.017c2.09 2.685 5.317 8.08 7.244 11.106.73-.86 2.022-2.995 2.686-4.036a708 708 0 0 1 4.56-7.095"/></svg>