<svg xmlns="http://www.w3.org/2000/svg" width="262" height="56" fill="none" viewBox="0 0 262 56"><path fill="#141314" d="M113.737 19.629c1.549.043 2.807.143 4.223.842 2.224 1.099 4.202 3.162 4.945 5.57 1.819 5.893.606 14.082-6.071 16.244-2.901.94-5.944.638-8.412-1.244-.392-.301-.555-.71-1.027-.948-.415.488-.169 5.007-.147 6.031-.003 1.203.144 2.878-.092 4.01-.103.495-4.304.28-4.805.052-.76-.873-.002-25.893-.311-30.093 1.569-.094 3.3-.084 4.884-.103.021.637.046 2.317.388 2.824.257-.088 1.275-1.55 1.649-1.836 1.413-1.084 3.095-1.176 4.776-1.35m.535 18.584c5.426-1.146 5.741-10.638 1.635-13.41-1.365-.922-2.968-.883-4.538-.732-1.697.737-3.113 1.71-3.773 3.563-1.615 4.534-.113 11.27 5.875 10.793.225-.017.582-.137.801-.214M174.331 12.188c6.436-.52 12.588 2.593 12.469 9.737-1.399.014-3.748.09-5.056-.08-.509-1.359-.855-2.414-1.871-3.52-1.784-1.937-7.211-1.942-8.84.169-4.502 5.983 6.713 6.492 9.958 7.731 3.8 1.366 6.569 3.246 6.604 7.608.054 6.727-5.144 9.268-11.125 9.376-7.197.154-12.272-2.446-12.568-10.18 1.34-.068 4.065-.063 5.357.077.237 1.31.678 2.988 1.733 3.86 2.322 1.921 6.285 2.106 8.897.684.878-.478 1.38-1.055 2.02-1.787.073-.817.036-1.77.022-2.601-1.96-2.702-4.779-2.823-7.803-3.561-2.676-.654-4.856-1.269-7.146-2.88-3.146-2.216-3.317-7.514-1.103-10.416 2.318-3.08 4.792-3.69 8.452-4.217M71.092 12.18c1.886-.2 3.697-.232 5.578.023-.332 2.169-.212 6.474-.21 8.825l-.007 14.836c-.003 1.37.155 5.067-.052 6.11-.236.334-.423.366-.807.495-1.395-.007-3.01.026-4.381-.11-.071-1.463.168-12.6-.119-13.143-.73-.32-3.708-.249-4.185-.184-1.452.198-8.99-.545-9.624.493-.468.767.468 11.397-.28 12.683-.498.348-3.934.266-4.913.33-.224-1.642-.153-3.622-.15-5.306l.01-7.629-.002-11.431c-.002-1.832-.082-4.157.002-5.945l.227-.151c1.46-.042 3.808-.136 5.205.098-.252 3.591-.157 8.18-.217 11.87 3.121.706 8.07-.002 11.387.268.722.059 2.133.003 2.617-.556.155-.836.043-10.536-.08-11.575M213.438 19.742c1.486-.333 3.711.043 5.185.457 6.269 1.765 5.329 8.154 5.278 13.258-.024 2.417.385 7.091-.326 9.235-1.42-.24-2.96-.062-4.468-.246-.057-.66.129-2.062-.274-2.504-.633.227-1.776 1.63-2.442 1.935-3.837 1.753-8.355 1.193-10.747-2.395-.789-1.435-1.026-3.687-.635-5.27 1.32-5.353 7.477-4.95 11.797-5.12.695-.028 1.375.006 1.989-.392.196-.334.179-.556.14-.932-.325-3.198-2.423-4.373-5.448-4.046-2.327.252-2.541 1.426-3.796 3.038-3.329-.355-5.826.226-2.572-3.976 1.731-2.235 3.576-2.822 6.319-3.042m-2.036 18.415c3.685 1.318 8.194-.798 7.421-5.154-.051-.282-.565-.325-.783-.345-1.984.17-6.224-.05-7.604 1.505-.903 1.018-.668 2.71.441 3.627q.246.206.525.367M135.657 19.615q.161-.023.321-.032c2.533-.146 5.273.691 7.141 2.421 3.145 2.915 3.153 6.088 3.359 10.011-2.491.247-5.12-.017-7.614.078-2.684.101-6.031-.267-8.634.187.765 3.844 2.496 6.496 6.866 6.025 2.359-.255 2.942-1.29 4.306-3.045l2.144.545c.789.16 1.581.229 2.382.313-.408 1.116-.996 2.538-1.766 3.476-3.185 3.882-10.742 4.246-14.546 1.182-2.46-1.98-4.002-4.205-4.238-7.364-.266-3.55-.095-7.07 2.342-9.902 2.332-2.773 4.54-3.546 7.937-3.895m-5.006 8.78c2.132.313 4.636.202 6.824.169.833.038 2.927.282 3.504-.207.63-1.098-.872-3.333-1.925-3.845-1.552-.757-2.664-.716-4.324-.576-2.289.433-3.622 2.288-4.079 4.458"/><path fill="#000" d="M28.125 31.19c-1.37 2.182-2 11.088-4.338 11.355-2.237-.49-2.75-9.874-3.971-11.008-1.699-1.577-9.003-1.877-10.867-3.604-.28-.312-.383-.74-.343-1.138.102-1.017 1.11-.777 1.774-1.096 1.374-.66 8.32-1.832 9.086-2.567 1.725-1.659 1.972-8.804 3.547-10.951.166-.276 1.712-.272 1.88.072 1.594 3.281 1.604 7.405 3.17 10.694.263.553 2.148.867 2.739.943l2.78.778c1.662.409 3.464.763 5.053 1.395.994.395.537 2.074-.31 2.421-1.059.434-2.237.59-3.339.902-2.279.613-4.596 1.14-6.861 1.803"/><path fill="#141314" d="M80.486 20.005c1.175-.028 2.239 0 3.41.039 1.54 4.197 4.437 10.436 5.455 14.466 1.369-1.894 2.109-4.37 2.957-6.6a284 284 0 0 0 2.906-7.819c1.097-.076 4.368-.184 5.324.062.197.462-6.481 16.978-7.208 18.786-1.187 2.914-2.081 5.89-3.707 8.601-1.865 3.11-7.508 4.276-10.464 2.318-.052-1.118.063-3.053.099-4.228 1.943.307 2.89.364 4.85.268 1.335-.784 3.157-2.86 2.738-4.587-.236-.972-.89-2.352-1.28-3.304a314 314 0 0 0-2.837-6.768c-1.566-3.662-3.002-7.561-4.772-11.139zM248.551 13.745a25 25 0 0 1 2.4.027c.066 1.23-.003 3.572-.103 4.795-.441.369-.847.602-.868 1.194.535.345 5.901.23 6.775.224l-.004 4.021c-1.759-.028-4.07-.096-5.798.128-.115 1.031-.018 3.27-.032 4.416.071 2.009-.122 4.071.04 6.072.335 4.145 3.126 3.497 5.972 3.218.097 1.011.288 3.663-.24 4.526-2.24.76-5.976.702-7.975-.727-3.362-2.402-2.789-7.303-2.78-10.898q.01-3.343-.012-6.686c-1.316-.028-2.612-.043-3.924-.155a52 52 0 0 0-.092-3.815c1.72-.077 2.974.137 3.982-1.447.113-1.559-.026-3.213.063-4.824.814-.05 1.77-.05 2.596-.069M193.16 13.744c1.344-.097 3.27.034 4.642.093-.069 1.186.079 2.557-.071 3.702-.041.316-.862 1.492-1.06 2.005.647.668 5.357.456 6.776.551-.084 1.445-.064 2.37.014 3.79-1.335.134-4.687-.045-5.574.314-.412.722-.1 8.66-.144 10.15-.128 4.388 2.929 3.717 6.031 3.591-.101.88-.066 1.442-.024 2.331l-.113 2.036c-4.096 1.367-9.489.474-10.651-4.381-.366-1.53-.191-4.287-.184-5.914q.015-3.942-.012-7.883c-.952-.137-2.906-.135-3.967-.193a49 49 0 0 0-.135-3.855c.868-.042 1.802-.127 2.675-.189.356-.358.915-1.045 1.261-1.447.261-1.606.026-2.928.239-4.468.016-.114.164-.158.297-.233M160.212 19.615c3.461-.23 2.173 2.063 2.403 4.441-1.088.034-3.096-.236-4.008-.078-4.968.861-4.49 6.171-4.485 9.606q-.007 2.88.049 5.76c.02.842.221 2.35-.278 2.963-.791.388-3.904.138-4.814-.083-.184-1.46-.093-5.471-.094-7.136q.027-7.496-.044-14.992c1.686-.085 3.276-.082 4.965-.078.005.696-.055 2.07.387 2.55.381-.125.765-.803 1.078-1.147 1.372-1.511 2.978-1.65 4.841-1.806M232.678 20.111c-.143.834-.284 1.59-.34 2.434.712.362 1.611-1.004 2.111-1.354 1.86-1.307 3.836-1.215 5.992-1.113a26 26 0 0 0 .06 3.831c-2.389.133-4.494-.071-6.335 1.774-1.796 1.8-1.53 4.88-1.512 7.271.003 2 .138 7.77-.117 9.532-1.067.128-3.518.108-4.679.131-.233-1.32-.1-5.307-.117-6.893-.052-5.19.107-10.458-.042-15.647l1.433-.071c1.238 0 2.312.038 3.546.105"/><path fill="#000" d="M0 12.015c1.977-.011 4.068-.057 6.033.041l.02 19.182c0 .804.28 10.744-.492 11.324-.178.135-3.995-.008-4.768-.058q-.398-.028-.793-.082z"/></svg>