<svg width="43" height="59" viewBox="0 0 43 59" fill="none" xmlns="http://www.w3.org/2000/svg">
<path d="M60.8649 26.8996C60.7861 26.1074 60.3511 26.6243 60.0452 26.6672C59.5334 26.5642 59.0221 26.4606 58.5102 26.3576C58.0675 26.2852 57.406 25.6386 57.4272 26.7878C56.1394 26.4723 54.8466 26.3446 53.5425 26.6948C53.515 26.6111 53.4941 26.4579 53.4587 26.4543C51.628 26.2669 49.7983 25.8494 47.9585 26.387C47.8785 26.3572 47.7973 26.3324 47.7143 26.3115C47.6111 25.6753 47.3374 25.6265 46.9205 26.0719C46.0242 26.5405 45.1762 25.7785 44.2909 25.9676C43.1045 26.1578 42 25.7509 40.8709 25.5022C40.7331 25.4716 40.556 25.6257 40.3968 25.6944C40.079 25.5965 39.7669 25.4637 39.4415 25.4086C38.8158 25.3028 39.3885 25.7139 39.2781 25.8383C38.7616 25.8138 38.2457 25.7898 37.7293 25.7652C37.3035 25.0478 36.7391 25.2039 36.1511 25.5042C35.4995 25.4291 34.8141 25.4707 34.2949 24.9406C34.4171 24.506 34.9196 24.4951 35.1294 24.1579C35.2964 23.8782 35.464 23.5979 35.631 23.3182C35.6188 22.9155 35.8507 22.7956 36.1972 22.8083C36.4528 22.2002 37.5418 22.2495 37.3466 21.2862C37.5051 21.2727 37.6636 21.2586 37.8221 21.2445C38.3143 21.4168 38.2729 20.7704 38.6115 20.7065C39.2186 21.0671 39.5501 21.0042 39.3886 20.1799C39.2224 20.1971 39.0568 20.2149 38.8905 20.2327C38.8243 20.312 38.7575 20.3912 38.6913 20.4699C38.7575 20.3906 38.8237 20.3125 38.8905 20.2327C39.0562 20.2155 39.223 20.1972 39.3886 20.1799C39.6628 19.6843 39.9188 20.1072 40.1818 20.1949C40.5759 20.2957 40.779 20.1494 40.7673 19.7233C40.9023 19.4841 41.219 19.4459 41.349 19.2985C41.8321 18.7521 41.1741 19.0146 41.0296 18.9014C41.0893 18.4318 42.03 18.8711 41.8092 18.1123C41.9591 18.0674 42.1409 18.0589 42.1209 17.8226C42.5095 17.9261 42.6266 17.6825 42.6844 17.3623C43.3207 17.4348 43.9087 17.4315 43.929 16.5347C44.0391 16.4437 44.1498 16.3521 44.26 16.2611C44.2126 16.6011 44.2538 16.8885 44.6601 16.9584C44.9902 16.6056 44.5315 15.8066 45.3304 15.7186C45.4155 15.7401 45.5012 15.7623 45.5863 15.7838C46.2416 16.2296 46.133 15.4529 46.389 15.2595C46.4336 14.7823 47.2613 14.6983 46.9702 14.0527C47.3153 13.9678 47.8873 14.4741 47.952 13.6586C48.0563 13.5591 48.1607 13.4601 48.265 13.3606C48.5926 13.4386 48.7255 13.2166 48.8426 12.9691C49.6362 12.8314 49.9025 12.0441 50.4518 11.6051C50.7931 11.334 51.1344 11.0623 51.4758 10.7912L51.4926 10.7949C52.6003 11.0002 53.0094 10.6075 53.1201 9.2335C53.2889 9.22079 53.4577 9.20864 53.6265 9.19594C54.2399 9.34262 54.1108 8.62558 54.4513 8.45477C54.8869 8.55431 55.0999 8.2885 55.2604 7.93784C55.7313 7.83813 56.3814 7.97732 56.2908 7.12966C56.3298 7.052 56.3404 6.96977 56.3239 6.8841C56.598 6.52834 57.2976 6.76457 57.3562 6.10941C57.4716 5.93492 57.5876 5.76043 57.703 5.5865C58.3362 5.24151 58.4289 4.11842 59.8584 4.59663C59.2365 4.10029 59.0026 3.91358 58.7687 3.72688C58.6657 3.35769 59.0159 2.89729 58.5517 2.60144C58.6079 1.77344 58.1189 2.17871 57.7797 2.24533C57.0561 2.03248 56.6904 2.34482 56.6124 3.07811C55.6853 2.9379 55.5136 3.92145 54.9306 4.30943C53.4815 5.27263 52.1654 6.44576 50.7957 7.53458C50.1101 7.90173 49.2933 8.0796 48.9151 8.89159C47.8583 8.97458 47.5242 10.2943 46.4722 10.3846C45.7639 10.3572 45.4894 10.7982 45.3904 11.4295C45.1036 11.4511 44.8299 11.4903 44.8461 11.8881C44.4958 12.1724 43.7821 12.0256 43.8317 12.7831C43.2879 12.7406 43.2748 13.3807 42.8743 13.5501C41.5906 14.0925 40.6214 15.105 39.5336 15.9408C38.8898 15.9539 38.6144 16.2974 38.6765 16.942C38.267 17.0755 37.7604 17.0958 37.465 17.3619C35.919 18.7531 34.1771 19.8726 32.5642 21.168C32.3194 20.9325 32.0747 20.6965 31.83 20.4611C31.9747 20.0632 32.6362 19.7685 32.0671 19.2277C32.4098 18.3463 32.6125 17.4605 32.1613 16.5513C32.5767 16.4458 32.8665 16.2532 32.6933 15.7396C32.8252 14.5049 32.9576 13.2696 33.0895 12.0349C33.3983 11.7329 33.475 11.4421 33.0488 11.1772C32.8602 10.1662 33.6456 9.24572 33.3166 8.22184C33.7722 7.82302 33.1536 7.36856 33.24 7.22347C34.0899 5.79457 33.1644 4.27718 33.5273 2.84561C33.6324 2.57947 33.9989 2.32567 33.5652 2.03389C33.45 1.85447 33.3354 1.67562 33.2202 1.4962C33.4049 0.860755 33.4823 0.383828 32.6425 0.0573108C32.0616 -0.168858 31.7647 0.342979 31.7486 0.426198C31.5692 1.33989 30.7491 2.04661 30.9245 3.06238C31.1233 3.41713 31.2513 3.77019 30.9066 4.11535C30.9295 4.57126 30.5536 5.01265 30.8561 5.47911C30.8143 6.11182 30.7726 6.7451 30.7308 7.37782C30.3367 8.0774 29.8947 8.77695 30.7023 9.49229C29.8456 10.6346 30.1991 11.9834 30.0833 13.252C29.7616 13.3407 29.907 13.6039 29.8853 13.8046C29.8329 13.9644 29.7806 14.1243 29.7283 14.2841C29.1011 14.6721 29.7762 15.0449 29.7398 15.4258C29.1689 16.2483 29.4485 17.1734 29.4322 18.0631C29.1581 18.9473 28.8742 19.8306 29.1928 20.7695C28.767 21.5659 28.3752 21.8052 28.0049 20.724C27.9616 20.5981 27.735 20.5376 27.5899 20.4477C27.7512 19.8134 27.3163 19.6849 26.8725 19.5629C26.8146 19.2906 26.9194 18.9665 26.6313 18.7679C26.4808 19.0385 26.268 19.2949 26.2776 19.6028C26.268 19.2949 26.4803 19.0385 26.6302 18.7668C26.207 18.8331 25.8721 18.9951 25.7749 19.4158C25.8721 18.9951 26.207 18.8331 26.6291 18.7656C26.4419 18.4987 26.2541 18.2317 26.0668 17.9642C25.8096 16.2135 24.0671 15.4074 23.5485 13.8233C22.8669 13.4521 23.0275 12.5469 22.4921 12.0827C22.3252 11.7833 22.1583 11.4839 21.9915 11.184C22.0129 11.0179 21.941 10.922 21.7814 10.8914C21.7113 10.7181 21.7367 10.479 21.4803 10.4339C21.4392 10.3504 21.374 10.3182 21.2846 10.3379C21.1184 9.96437 21.436 9.34045 20.7425 9.23923C20.9577 8.39829 20.1812 8.00194 19.8655 7.44822C19.1054 6.11423 18.729 4.51237 17.4532 3.50833C17.3044 3.15979 17.0945 2.90287 16.6733 2.95695C16.3481 2.45819 15.8582 2.58197 15.8814 3.02506C15.9056 3.47709 15.4608 3.90236 15.8213 4.33898C15.293 5.20258 15.7478 5.84488 16.2778 6.47057C15.7201 7.4232 16.8066 7.96905 16.8222 8.77981C16.9784 8.75009 17.134 8.7209 17.2901 8.69117C17.3125 8.75859 17.3327 8.82707 17.3501 8.89603C17.3671 9.42035 17.1672 10.0304 17.8746 10.2807C17.9548 10.7385 18.1551 11.1212 18.537 11.3911C18.5034 11.6328 18.5393 11.8437 18.7803 11.9632L18.7662 12.0732L18.7958 12.1798C18.7171 12.2582 18.6389 12.3366 18.5601 12.415C18.6179 12.8505 18.8799 13.0245 19.2899 13.0097C18.7751 14.1278 19.7381 14.4338 20.3115 14.9536C20.8327 15.4202 20.7015 16.4209 21.5909 16.5864C21.6645 16.7481 21.7386 16.9098 21.8122 17.0721C21.378 17.5801 21.4189 17.9472 22.109 18.1219C22.2818 18.8144 23.2416 18.772 23.3558 19.5188C23.0922 19.6167 23.0289 19.9418 23.1438 20.0416C23.9144 20.7059 24.1333 21.891 25.1798 22.2826C25.1337 22.6627 24.8525 23.0874 25.374 23.3601C25.2414 23.8658 25.8473 23.8228 25.9887 24.1389C25.6228 24.4579 25.214 24.3551 24.8421 24.4187C24.5694 24.0081 24.2894 23.6292 23.7956 24.1647C23.4436 24.1959 23.1128 23.8659 22.7489 24.1014C22.3456 23.6069 22.0337 24.0604 21.6926 24.2084C21.142 24.1997 20.6626 23.5345 20.0576 24.024C19.9023 24.1089 19.747 24.1933 19.5918 24.2782C19.5862 24.2134 19.5779 24.1491 19.5669 24.0848C18.9614 23.1948 18.1443 23.7522 17.4084 23.7587C15.9459 23.633 14.4834 23.508 13.021 23.3823C12.4117 22.9292 11.751 23.3282 11.1182 23.2657C10.9671 23.1975 10.8165 23.1293 10.6655 23.061C9.55143 22.8004 8.43071 22.5921 7.28102 22.6154C6.902 22.087 6.36583 22.6165 5.93939 22.408C5.61157 22.4559 5.40572 22.2136 5.16056 22.0651C5.06038 21.8743 4.50122 21.8799 4.33148 21.8625C3.78526 21.8055 3.23313 21.7913 2.68391 21.7916C1.88656 21.7916 0.019269 21.6719 -0.000849191 22.9305C-0.0016555 22.9873 0.00349379 23.046 0.0301269 23.0956C0.0510159 23.1346 0.0835647 23.1649 0.116697 23.1936C0.196829 23.264 0.891246 23.6021 0.895302 23.615C0.988014 23.8904 1.16395 23.9687 1.42419 23.85C1.86366 23.8549 1.97091 24.5051 2.46298 24.4076C2.82941 24.6169 3.10935 24.0372 3.48076 24.2896C3.58862 24.6389 3.82442 24.47 4.02879 24.4303C4.37341 24.5477 4.65097 24.8709 5.06329 24.7787C5.15132 24.8611 5.23141 25.0023 5.32923 25.0169C8.56659 25.5008 11.8053 25.973 15.0446 26.4463C15.7544 26.7781 16.4605 26.7876 17.1624 26.4192C18.8052 26.7358 20.4447 27.1014 22.1337 26.8039C22.5015 27.3231 23.0322 26.9099 23.4669 27.0462C23.5582 27.0618 23.65 27.0773 23.7412 27.0929C24.1753 27.4382 24.6111 26.7039 25.0458 27.0933C25.2067 27.1149 25.3682 27.1366 25.5291 27.1583C25.5521 27.4988 25.3817 27.7132 25.1444 27.9461C23.9181 29.1498 22.4575 30.1161 21.5384 31.6325C20.5093 31.8823 20.2917 33.0303 19.4676 33.6048C18.776 34.0872 18.1132 34.8946 17.5026 35.6208C16.0046 37.4027 14.2409 38.9119 12.6119 40.5597C12.2653 40.8245 11.9186 41.09 11.5725 41.3548L11.554 41.3778C11.1391 42.1287 10.0638 42.2118 9.83636 43.1522C9.06965 43.7443 8.19406 44.2357 7.56399 44.9531C6.74389 45.8861 5.91524 46.7665 4.85091 47.3972C3.91463 47.9869 3.18794 48.7766 2.67829 49.7733C2.51778 51.1562 2.96044 51.485 4.96402 51.4697C4.946 51.9062 5.02938 52.0464 5.47715 51.7711C6.12529 51.3719 6.32061 50.5895 6.90527 50.1537C7.34087 50.2064 7.48004 49.9957 7.39334 49.5823C7.5778 49.4167 7.76172 49.2511 7.94619 49.0855C8.82347 48.9124 9.03165 47.8411 9.85713 47.5987C10.3941 47.4237 11.1287 47.4044 10.7074 46.4736C10.7957 46.4779 10.8566 46.4381 10.8902 46.3548C11.7113 46.0449 12.5495 45.7511 12.5215 44.6112C12.9843 44.5971 13.2443 44.3291 13.3751 43.8997C13.954 43.8421 14.2793 43.3939 14.6578 43.0284C14.8523 43.0135 15.2107 43.3074 15.1259 42.7681C15.2453 42.6561 15.3652 42.5441 15.4846 42.4322C16.145 42.2979 16.5176 41.8102 16.8484 41.2713C17.0078 41.1753 17.1671 41.0799 17.3265 40.9839C18.0299 41.1489 18.0724 40.6255 18.1606 40.1488C18.1365 40.0607 18.1124 39.9726 18.0884 39.8846C18.321 39.5507 19.1921 39.9822 18.9756 39.1109C19.2277 38.9647 19.4957 39.4599 19.6969 39.1208C19.7594 39.0153 19.5762 38.7579 19.506 38.57C19.7272 38.4427 19.9484 38.3147 20.1696 38.1873C19.314 37.3103 20.6266 37.8666 20.5866 37.5284C20.9138 37.418 21.3538 37.6269 21.5583 37.1692C21.4196 37.109 21.2809 37.0489 21.1421 36.9882C21.0896 36.3761 21.9802 36.5383 21.9571 35.9508C22.3773 35.8025 22.1169 35.4017 22.2451 35.1451C22.7114 34.8251 23.5148 35.1435 23.7218 34.3313C23.8467 34.2613 23.971 34.1918 24.096 34.1217C24.1831 34.0341 24.2709 33.9459 24.358 33.8582C24.2718 33.5842 24.1856 33.3096 24.0994 33.0356L24.092 32.959C24.0951 32.9909 24.0994 33.0356 24.0994 33.0356C24.1856 33.3096 24.2718 33.5842 24.358 33.8582C25.2486 33.8833 24.4502 33.283 24.645 33.0502C25.0403 32.9654 25.5284 33.0785 25.7057 32.5292C26.07 32.0017 26.4348 31.4748 26.7992 30.9473C27.2936 31.2561 27.8687 29.8914 28.3239 31.022C28.3496 31.1792 28.3748 31.337 28.4005 31.4942C28.6231 31.9738 27.3298 32.3482 28.3064 32.8803C28.3052 33.3217 28.3034 33.7637 28.3022 34.2051C28.2257 34.9005 28.1006 35.5959 28.0906 36.2923C28.0838 36.762 27.9932 37.3819 28.7414 37.4526C28.6515 37.6333 28.5616 37.8145 28.4711 37.9952C28.0006 38.2655 28.0177 38.7385 28.0119 39.1893C27.9996 40.2078 28.0043 41.2262 28.0019 42.245C27.7785 42.3734 27.8946 42.5841 27.8821 42.7633C27.8756 43.1755 26.9942 43.29 27.5163 43.8821C27.6335 44.5041 27.8754 45.1085 27.771 45.762C27.5909 45.9957 27.2236 46.3977 27.2575 46.4375C28.0181 47.3173 27.0209 48.1302 27.1913 48.968C26.6943 49.3185 27.2901 49.6977 27.1632 50.0581C26.9447 51.1954 26.7284 52.3329 26.7182 53.4981C25.5916 54.0849 26.2934 55.0981 26.1746 55.9202C26.1873 56.4662 26.1999 57.0116 26.2126 57.5575C26.1795 58.0104 25.8849 58.563 26.4493 58.8406C27.0601 59.1416 27.3319 58.5344 27.6921 58.2035L27.6868 58.1744L28.8514 58.0282C29.3124 57.8419 29.3123 57.8419 29.1216 57.0783C29.105 56.4469 29.1047 55.8182 29.3377 55.2168C29.4495 54.9631 30.1399 54.9444 29.6397 54.4426L29.6329 54.4302C29.5073 54.0471 29.2033 53.6436 29.8793 53.4267C30.0211 53.381 29.8809 53.1324 29.6817 53.0898C29.6713 51.8087 30.4325 50.6441 30.227 49.3339C30.6329 48.823 30.3481 48.2555 30.355 47.7117C29.9106 47.2057 31.4881 46.8057 30.4292 46.2677C30.4481 45.8624 30.467 45.4577 30.4859 45.0524C30.5513 45.098 30.6168 45.0978 30.6823 45.0509C31.289 44.4902 30.774 43.7623 30.9563 43.1385C30.9763 43.0531 30.9963 42.9683 31.0163 42.8835C31.2385 42.6229 31.3534 42.3559 31.0631 42.0653C31.0351 41.8891 31.0076 41.7123 30.9797 41.5361C31.0693 41.1168 30.9901 40.6864 31.298 40.284C31.7702 39.6677 31.2141 39.6823 30.8246 39.6396C31.3085 39.1049 31.4776 38.4847 31.3097 37.774C31.4956 36.9725 31.5001 36.1661 31.3743 35.3561C31.764 34.7673 31.5751 34.4083 30.9452 34.2239C30.9209 33.8499 31.911 34.1622 31.4287 33.478C31.4527 33.1146 31.5471 32.8337 31.9982 32.9715C32.1306 33.226 31.8661 33.5937 32.2193 33.7855C32.5294 33.9812 31.5142 34.6532 32.5009 34.6053C32.6624 34.6939 32.8234 34.7825 32.9849 34.871C33.1768 35.4446 32.9511 36.2235 33.7495 36.4988C33.2704 37.61 34.4425 37.5849 34.8117 38.112C34.9371 38.4366 34.6044 38.874 35.0484 39.1203C35.4206 39.157 35.7742 39.2418 36.0426 39.5369C36.0881 39.9638 36.2706 40.3154 36.5957 40.5884C36.7893 41.2089 36.9829 41.8293 37.1759 42.4498C37.2563 43.1718 37.8112 43.5066 38.3032 43.8929C38.659 44.1376 38.4894 45.007 39.3585 44.6966C39.7887 44.543 39.7974 45.1156 39.8537 45.4558C39.4873 45.7503 39.4435 46.1449 39.9506 46.1286C40.6012 46.1073 40.4989 46.5089 40.5722 46.8662C40.5257 47.491 40.6761 47.9555 41.4122 47.9402C41.7421 48.2886 40.9411 48.8291 41.6034 49.1207C41.7789 49.4248 42.0439 49.586 42.3826 49.6297C42.5271 49.9514 41.9996 50.4171 42.5795 50.6377C42.7595 50.706 42.9067 50.641 42.8803 50.3957C42.9041 50.3583 42.9216 50.3136 42.9538 50.2865C42.9789 50.2648 43.022 50.2647 43.0566 50.255C43.1175 51.2022 44.5623 51.6134 44.0004 52.8095C43.9367 52.9445 44.1099 52.9325 44.1686 52.9868C45.0407 53.7884 45.4821 54.9732 46.4587 55.6881C46.0593 56.6819 46.5191 57.6671 47.5308 58.2173C48.3288 58.6515 48.5191 58.2842 48.5553 57.5661C48.6373 57.5586 48.7183 57.5432 48.798 57.5206C50.0814 57.375 49.9143 56.5161 49.6894 55.6295C49.855 54.2629 48.5925 53.7085 48.104 52.7137C47.7411 51.5786 46.6572 50.8773 46.3711 49.6962C46.4126 49.2808 46.1626 49.0597 45.8511 48.8796C45.377 47.8584 44.5617 47.0748 44.0307 46.0567C43.6165 45.2632 43.3032 44.2671 42.5626 43.6447C41.1638 42.4705 40.2817 40.8277 39.4093 39.3277C37.9616 36.8387 36.1335 34.5931 34.9215 31.9614C34.3302 31.2785 34.309 30.1951 33.4165 29.7235C33.2243 29.3695 33.032 29.0149 32.8402 28.6609C32.9505 27.4652 33.6023 28.5168 33.9667 28.3761C34.1405 28.3819 34.3144 28.3877 34.4888 28.3936C35.8937 28.4387 37.2992 28.4838 38.7041 28.5284C39.1566 29.0413 39.7651 28.6595 40.2806 28.8133C42.4166 28.8731 44.5747 28.7572 46.6814 29.0392C49.018 29.3517 51.3501 29.2583 53.6819 29.3851C54.1441 29.4898 54.5906 29.4747 55.0028 29.202C56.6514 29.9663 58.3696 29.612 60.0572 29.4643C61.2213 29.3649 61.6506 27.8697 60.8649 26.8996ZM56.84 5.52473C56.84 5.52529 56.84 5.52529 56.84 5.52473V5.52473ZM51.7534 10.2834C51.826 10.3754 51.8382 10.4353 51.8186 10.4783C51.8382 10.4353 51.8254 10.3748 51.7534 10.2834ZM47.4728 11.8386C47.3143 12.104 47.2482 12.4541 47.2451 12.8598C47.2487 12.4536 47.3143 12.104 47.4728 11.8386ZM40.5205 18.2678C40.5204 18.2979 40.5196 18.328 40.5196 18.328L40.5205 18.2678ZM35.4463 22.5324C35.354 22.5352 35.2612 22.5386 35.169 22.5419C35.2612 22.5386 35.3535 22.5357 35.4463 22.5324ZM20.6443 12.4969C20.7342 12.4984 20.8247 12.5 20.9152 12.5016C20.8252 12.5006 20.7348 12.4984 20.6443 12.4969ZM25.6523 21.7722C25.4135 21.402 25.1747 21.0318 24.9364 20.6622C25.1752 21.0324 25.4129 21.4025 25.6523 21.7722ZM5.7767 23.4469C5.86687 23.3248 5.84768 23.0997 5.62369 22.8865C5.84822 23.0997 5.86743 23.3242 5.7767 23.4469ZM8.7826 47.7415C8.94284 47.6311 8.99495 47.4813 9.01783 47.3218C8.99495 47.4813 8.9434 47.6305 8.7826 47.7415ZM9.77546 47.1576C9.78578 46.9984 9.79667 46.8387 9.80701 46.6796C9.79613 46.8387 9.78634 46.9979 9.77546 47.1576ZM11.9925 44.0379C11.7557 43.9509 11.5166 43.8672 11.1382 44.0694C11.1325 44.0798 11.1268 44.0909 11.1211 44.1002C11.1268 44.0903 11.1309 44.0804 11.136 44.0705C11.1366 44.0699 11.1371 44.0699 11.1382 44.0694C11.1496 44.0479 11.1605 44.0259 11.1703 44.0022C11.1813 43.9762 11.2659 43.8612 11.2394 43.8037C11.2484 43.7922 11.2569 43.7807 11.2658 43.7703C11.5081 43.8597 11.7503 43.9491 11.9925 44.0379ZM15.5101 40.9028C15.3255 41.1665 15.1409 41.4297 14.9568 41.6934C15.1414 41.4297 15.326 41.166 15.5101 40.9028ZM27.1922 25.0158C27.204 24.9325 27.218 24.8492 27.2341 24.7665C27.2185 24.8492 27.2046 24.9319 27.1922 25.0158ZM27.6326 28.5348C27.7218 28.3625 27.8108 28.2442 27.9215 28.1989C27.8113 28.2448 27.7223 28.363 27.6326 28.5348ZM27.4231 48.9707C27.4236 48.9702 27.4236 48.9707 27.4231 48.9707V48.9707ZM29.5398 46.1006C29.6478 45.9621 29.7365 45.8115 29.7989 45.6424C29.7365 45.8115 29.6473 45.9627 29.5398 46.1006ZM41.4296 47.1408C41.6138 47.236 41.7986 47.3318 41.9829 47.4276C42.2152 47.5212 42.2358 47.7324 42.2575 47.943C42.4683 48.0461 42.684 47.8049 42.8716 47.8043C42.684 47.8054 42.4683 48.0461 42.2569 47.9435C42.2358 47.7324 42.2152 47.5212 41.9823 47.4282C41.7986 47.3324 41.6144 47.2366 41.4296 47.1408ZM40.1576 45.497C40.5377 45.4971 40.6431 45.882 40.9008 46.0525C40.6426 45.8814 40.5383 45.4971 40.1576 45.497ZM37.8802 41.1546C38.0002 41.1329 38.132 41.048 38.2595 40.9852C38.132 41.048 37.9996 41.1334 37.8802 41.1546ZM35.0897 37.7547C35.1616 37.9414 35.5682 37.95 35.7512 38.0775C35.5677 37.9494 35.161 37.9414 35.0897 37.7547ZM32.7124 25.7111C32.7119 25.7111 32.7119 25.7111 32.7124 25.7111V25.7111ZM30.8811 42.882C30.9041 42.9026 30.9267 42.9137 30.9496 42.9137C30.9267 42.9137 30.9035 42.9031 30.8811 42.882ZM31.3144 8.98126C31.2849 8.50235 31.2423 8.02369 31.2275 7.54402C31.2423 8.02313 31.2843 8.50178 31.3144 8.98126C31.6501 8.98981 31.9854 8.99778 32.3206 9.00631C31.9848 8.99777 31.6496 8.98924 31.3144 8.98126ZM32.9337 25.4182C32.868 25.245 32.8024 25.0718 32.7361 24.8991C32.8018 25.0723 32.868 25.245 32.9337 25.4182ZM33.0254 24.0872C33.0974 24.0872 33.1693 24.0917 33.2405 24.099C33.1698 24.0912 33.0979 24.0873 33.0254 24.0872ZM36.507 25.9502C36.6924 25.9529 36.8762 25.9991 37.0606 26.0403C36.8767 25.9991 36.6929 25.9535 36.507 25.9502ZM37.1502 26.0575C37.3363 26.0964 37.5227 26.1248 37.7111 26.0914C37.5222 26.1254 37.3363 26.0964 37.1502 26.0575Z" fill="#FC6B7E"/>
</svg>
