<svg xmlns="http://www.w3.org/2000/svg" width="83" height="141" fill="none" viewBox="0 0 83 141"><path fill="#82c6dd" d="M11.346 127.685c-.945-1.08-.934-2.909-1.723-4.172-.075-.153.31-.054.12-.394-.85-1.197-1.278-3.377-1.48-5.103l.116.071c-.04-.329-.438-.617-.506-.957.055-.02.113.08.164-.021-.193-.028-.268-.567-.438-.666.024-.15.16-.18.18-.371l-.251-.126c-.622-.375-.378-1.276-.842-1.911.056.02.113.079.137.008-.644-1.052-1.054-2.497-1.568-3.74.083.029.221.036.272-.063-.22.002-.399-.376-.548-.705.156-.221-.379-.526-.394-.964l.057.019c-.312-.227-.018-.48-.355-.637l.101-.24c-.332-.037.012-.478-.214-.675l-.058.027c-.145-.209-.039-.376-.156-.574l.027-.032c-.239-.477-.172-.821-.394-.735.124-.235.24.459.415.098-.768-1.576-1.273-3.293-1.814-4.953.03-.218.019-.348.09-.418-.099-.151-.243-.612-.408-.725.023.054.081-.145.064-.236-.012-.33-.356-.25-.361-.615q.155.17.26.063c-.268-.227-.362-.614-.528-.93.055.04.104.113.171.077-.318-.3-.173-.681-.404-.961l.17.078c-.008-.569-.323-.064-.373-.541.076.093.115.039.174.041-.373-.34-.512-1.038-.727-1.429.026.02.06.001.06.001-.177-.443-.256-.94-.52-1.405-.001-.2.338-.044.135-.508-.257.103-.372-.778-.577-.4-.09-.423-.2-1.102-.378-1.346.16.151.257-.304.39.029l.075-.309c.12.004.05.277.158.152-.065-.168-.33-.631-.337-.798-.263-.263-.657-.456-.856-.957.18.207.245-.23.343-.082l-.734-.55c-.067-.167.196-.105.048-.329-.066.036-.143-.058-.224-.114.01-.074-.294-.687-.06-.844.078-.108.145.26.176.041-.105-.314-.197-.298-.303-.612l.033-.017c-.03-.22-.309-.576-.378-.304.038.147.138-.105.132.133-.198-.098-.358-.45-.462-.763.076.094.14.058.228.078-.34-.357-.549-.784-.786-1.228-.126.032.28.103.237.194-.025-.66-.645-1.17-.559-1.754.049.075-.16.1-.127.084-.079-.297.103-.341-.024-.51.099-.052-.11-.227-.206-.412-.108-.076.035-.068.102.099-.178-.243-.69-1.28-.741-1.959-.066.034-.38-.305-.418-.451l.18.004c.054-.163-.17-.48-.04-.549-.296-.245.553 1.135.265.767.1-.152-.446-.499-.196-.48-.1-.289-.373-.511-.312-.838 0 .09.3.163.214-.068-.163-.403-.115-.092-.278-.41l-.134-.188c-.162.037-.098-.376-.224-.165.113-.093-.275-.575 0-.617l.225-.009c-.073-.173-.312-.222-.448-.333.012-.03.038-.09.074-.091-.324.073-.112-.435-.424-.568-.011-.41-.298-.955-.158-1.195-.189-.257-.387-.483-.425-.833.05.056.088.143.162.139.026-.236-.073-.26-.185-.432.06.027.05-.472.088-.737-.186-.255-.324-.102-.438-.097.226-.362-.461-.743-.285-1.162.075.086.287.368.288.105.226-.362-.4-.453-.387-.923l-.224.187c.099-.239-.35-.572-.073-.614-.14-.111-.076-.524-.312-.396-.012-.762-.673-1.643-.36-2.214-.074-.086-.111-.347-.224-.255-.087.21.175.198.098.29-.036-.086-.111-.083-.149-.082-.012-.234-.048-.409.226-.273.001-.53-.587-.356-.686-.996.113-.007.138-.066.064-.239l-.288-.28c-.086-.408.164-.3.338-.368-.099-.2-.174-.461-.336-.514l.139-.328c-.1.238-.163-.139-.238-.224l.075.085c.062-.063-.063-.291-.124-.407-.1.064-.064.327-.052.473-.112-.083-.148-.256-.286-.369.189-.009.013-.383-.023-.556-.025-.204-.226-.166-.237-.224.088-.034-.087-.319.087-.21.05.056-.039.178.075.261.026-.148.187-.184-.012-.41-.15-.17-.325.161-.337-.25.075.086.15.081.237.138l-.024-.38-.162.035c.024-.06.048-.032.062-.06-.2-.051-.224-.52-.436-.54-.074-.172-.012-.409-.049-.584l.024.028c.026-.237-.124-.492-.286-.632l.037-.002c-.024-.117-.135-.376-.274-.487.027-.325.564-.29.264-.54-.1-.289-.436-.362-.5-.212-.061-.556-.51-1.064-.421-1.626-.088-.054-.113.006-.2-.136-.185-.785-.709-1.555-.596-2.264.138.201.162-.035.25-.07-.2-.137.076-.266-.187-.254-.137.065-.212.069-.2.303-.224-.432-.448-1.125-.397-1.422-.025.148-.1.064-.175-.022.237-.04.163-.388 0-.616l-.15.008.09-.21c-.077-.084-.326-.015-.275-.31.05-.03.1-.063.124-.122-.198-.227-.51-.536-.486-.86l.127-.3c-.062-.114-.25-.28-.239-.046-.036-.527-.122-.847.002-1.058-.698-.702-1.109-1.915-1.394-2.902l.113-.005c.012-.293-.225-.077-.212-.284.126.053.15-.269.338-.102-.013-.41-.336-.425-.462-.654-.148.007.15.168-.038.176-.062-.026-.062-.553-.286-.545.05-.12.225-.096.325-.072l-.174-.197c.15-.358.636.5.837.11l-.1-.201c.15-.272.424.48.326-.074-.176-.198-.538-.298-.563-.063-.211-.46-.562-.064-.712-.584.076-.18.162.402.3.248.088-.296-.25-.457-.262-.691 0 .265-.274.13-.361-.014.012-.293.25.107.15-.27-.138-.023-.337-.335-.325-.014-.312-.047-.05-.41-.324-.545.15-.182.562.24.525-.198-.163.125-.412-.422-.613-.12.001-.176.14-.24.29-.16.037-.264-.513-.445-.175-.638l-.212-.018c.037-.09.05-.208.113-.357-.062-.203-.462-.567-.175-.64-.05-.055-.185-.518-.323-.278-.027.324.248.282.036.527.15-.271-.16-.403-.286-.545l.1-.062c-.074-.085-.124-.318-.261-.342.087.055.148-.008.15-.095l-.2-.05c-.212-.372.261-.187.087-.56l.224.253c-.048-.056.064-.238-.048-.407-.175-.024-.4-.1-.538-.125-.137-.197.14-.153-.086-.318l.274.223c.063.027.188-.271.09-.562-.113-.17-.426-.39-.413-.068-.05-.146-.024-.382.124-.3-.16-.317-.149.095-.336-.161.063-.15.089-.562.164-.83l.35.218-.062-.2c.286.192.113-.18.374-.105-.01-.147-.137-.288-.235-.4-.214.508-.612-.295-.888-.078-.261-.518.65-.587-.023-.997-.051.12-.376-.072-.175.242-.075-.35-.388-.129-.387-.57.224.255.214-.42.538-.053-.113.005-.001.264.05.32.074-.178.323-.072.211-.42-.098-.2-.198-.49-.348-.395-.176.067.124.318-.1.24-.2-.401.05-.56-.323-.632.11.26-.053.385-.177.42l-.174-.286.138.022c-.075-.524-.263-.077-.387-.569l.162-.301c.239.05.136.729.438.537-.087-.317-.289-.367-.299-.69.05.057.087.144.137.2-.025-.117.376-.37-.025-.733-.174-.198-.137-.023-.262.011-.2-.49-.374-.599-.498-.916.263-.012-.161-.58.2-.302-.087.21.161.932.449 1.036.225-.275.087.407.411.422-.124-.405.163-.477.326-.601-.023-.116-.136-.2-.186-.256-.189.009-.139.154-.314.22-.099-.465-.336-.866-.584-1.06.037-.178.225-.186.3-.014a9 9 0 0 1-.498-1.621c-.176.419-.25-.546-.412-.246.025.293-.1.592-.276.483-.037-.176.126-.035.163-.125-.224-.167.138-.417-.174-.55.25.458.375-.017.626.001-.239-.312.162-.036.05-.384a6.2 6.2 0 0 1-.648-1.086c.052-.558-.397-1.242-.547-1.677.038-.266.338-.192.301-.454-.099-.29-.2.304-.225-.165l.063.025c-.1-.111-.086-.846-.487-.858l.315.045c-.002-.088-.088-.143-.138-.2.087-.032.137-.152.237-.04.1-.326-.21-.549-.312-.836l-.1.238c-.286-.455-.235-.838-.446-1.3l.162-.036-.186-.255c.174.02.188-.273.012-.383l.624.618c-.026.236-.262-.164-.375.015-.1.153.086.584.26.607-.037-.176-.074-.173-.173-.286.2-.127.275.134.462.214-.038-.086-.012-.234-.087-.23.163.14.237.31.336.6-.149-.17-.1.15-.187.097.2-.04.348.22.411.597-.139.329.361.63.435 1.066a1.5 1.5 0 0 1-.636-.5c-.013.294.1.29.086.584.187.08.439.099.637.412l-.137.065c.173.286.386.217.473.624.148.698.373 1.392.521 1.913l-.137.066c.4.188.423.92.684 1.26.074.702.598 1.382.46 1.799.485 1.123.92 2.1 1.256 3.318l-.274-.134c.223.166-.075.179.023.38.09-.297.312.222.488.33.01.586.409 1.215.709 1.642l-.138.065c.424.392.373 1.04.522 1.65-.037.088-.138.24-.064.412.337.25.375.424.674.851.112.347.236.928.26 1.31.747 1.198.97 2.597 1.604 3.889l-.137.153c.786 1.197.98 2.92 1.528 3.981l-.323-.015c.025.38.335.777.51.622.027.38.425.834.26 1.135.064.377.276.398.412.685.124.757.236 1.017.51 1.679l-.037-.174c-.088-.055-.212-.022-.176.154.162.227.224.958.487.594.035.79.71 1.642.67 2.435.074-.09.15.082.237.136.21.636.235 1.368.56 1.825-.015.117-.212-.11-.139.153.086.142.124-.036.238.136.51.975.495 2.148.844 3.073.721 1.61 1.193 3.38 1.74 4.969l-.075.004c.437.45.136 1.343.671 1.642-.025.148.126.493-.038.442.325.367.21 1.251.646 1.79-.011-.058-.036-.086-.087-.141.05.671.436 1.153.51 1.855-.051-.057-.112-.172-.187-.168-.05.296.486.506.198.754.05.144.2.05.162-.037.335 1.48 1.045 2.947 1.605 4.42.147 1.137-.54.246-.018 1.013-.042.09.144.008.079.043.199.297-.208.63.04.8.175-.16.164.115.29.082.08.698-.062.89.26 1.357l-.12-.004c.5.509.565 1.264 1.082 1.663 1.146 3.326 2.378 6.47 3.474 9.72.976 3.247 2.155 6.353 3.028 9.688-.036.859-.01.914.378 1.72-.057-.019-.084-.069-.109.002.245-.033.214.586.462.595.348 1.225.772 2.32 1.177 3.565-.089-.189-.31-.226-.22.003l.228.197-.052.06c.086.149.257.287.278.098 1.212 3.065 1.742 6.294 2.79 9.341.14.759.563 1.766.867 2.542.448 2.444.881 4.638 1.869 6.949-.002 0-.702-.117-1.159-1.055M13.02 11.576c-.173-.374-.114.269-.163-.228.1.025.188.08.163.228M46.74 116.238c-.945-1.079-.934-2.909-1.722-4.171-.075-.154.309-.054.12-.395-.85-1.196-1.278-3.376-1.48-5.103l.115.072c-.04-.329-.438-.617-.505-.957.055-.021.113.079.164-.021-.194-.029-.269-.567-.438-.666.023-.151.16-.18.18-.371l-.252-.126c-.621-.375-.377-1.276-.841-1.912.055.02.112.079.137.009-.644-1.052-1.055-2.497-1.569-3.74.084.028.222.036.273-.063-.22.001-.4-.376-.549-.706.157-.22-.378-.525-.394-.963l.057.019c-.312-.227-.018-.48-.354-.637l.101-.24c-.333-.037.012-.478-.215-.676l-.057.027c-.146-.208-.04-.375-.157-.574l.028-.03c-.24-.478-.172-.822-.394-.737.124-.234.24.46.414.099-.767-1.576-1.272-3.293-1.813-4.954.03-.218.018-.347.09-.417-.1-.151-.244-.612-.408-.725.022.054.08-.145.064-.237-.012-.33-.356-.25-.362-.614q.155.169.261.062c-.268-.226-.363-.613-.528-.93.055.04.104.114.17.078-.318-.301-.173-.682-.403-.962l.17.078c-.009-.568-.323-.064-.374-.54.076.093.115.039.175.041-.373-.34-.513-1.039-.728-1.429.026.019.06.001.06.001-.176-.443-.256-.94-.52-1.405 0-.2.338-.044.135-.508-.257.103-.371-.779-.577-.4-.089-.423-.2-1.103-.377-1.347.16.152.256-.303.389.03l.075-.31c.12.004.05.277.159.152-.066-.167-.33-.63-.337-.797-.264-.263-.658-.457-.856-.958.18.208.245-.23.343-.08l-.734-.552c-.068-.166.195-.104.047-.328-.066.036-.143-.058-.223-.115.009-.073-.294-.686-.06-.843.078-.108.145.26.175.04-.104-.313-.197-.298-.302-.611l.032-.017c-.029-.22-.308-.576-.378-.305.039.147.138-.105.132.133-.197-.097-.357-.449-.462-.762.077.093.141.058.229.078-.34-.357-.55-.784-.787-1.228-.126.032.28.103.238.194-.025-.66-.646-1.17-.56-1.755.05.076-.16.101-.127.085-.078-.297.104-.341-.024-.51.1-.052-.11-.227-.205-.412-.109-.077.034-.068.101.099-.177-.244-.69-1.281-.74-1.96-.066.035-.38-.304-.419-.45l.18.004c.055-.164-.17-.48-.04-.55-.296-.245.553 1.136.265.767.1-.151-.445-.498-.196-.48-.1-.288-.373-.51-.311-.837 0 .09.3.163.213-.068-.162-.403-.115-.093-.277-.41l-.134-.188c-.162.037-.098-.376-.225-.166.114-.092-.274-.574.001-.616l.224-.01c-.073-.173-.311-.221-.448-.332.012-.03.038-.09.075-.092-.325.074-.112-.434-.424-.567-.012-.41-.298-.955-.159-1.195-.188-.257-.387-.483-.425-.834.05.056.089.143.163.14.026-.236-.074-.26-.186-.432.061.027.051-.472.089-.737-.187-.256-.325-.103-.438-.098.226-.362-.462-.742-.286-1.16.075.084.288.367.289.104.225-.362-.4-.453-.387-.923l-.225.187c.1-.24-.35-.572-.073-.614-.139-.111-.076-.524-.312-.396-.011-.762-.672-1.643-.36-2.214-.074-.086-.11-.348-.224-.255-.087.21.175.198.099.29-.037-.086-.111-.084-.15-.082-.011-.234-.048-.41.227-.273 0-.53-.587-.356-.686-.997.113-.006.137-.065.063-.238l-.288-.28c-.086-.408.165-.3.338-.368-.098-.2-.173-.462-.336-.514l.14-.328c-.101.238-.163-.14-.239-.224l.076.085c.062-.063-.063-.292-.125-.407-.1.064-.064.327-.051.473-.112-.083-.148-.256-.286-.369.188-.009.012-.383-.024-.556-.024-.205-.225-.166-.237-.225.088-.034-.087-.318.087-.209.05.056-.039.178.075.26.026-.148.187-.183-.011-.41-.15-.17-.325.162-.337-.248.075.084.15.08.236.136l-.023-.38-.163.036c.025-.06.049-.032.063-.061-.2-.05-.225-.52-.437-.54-.073-.172-.011-.408-.048-.583l.024.028c.026-.237-.124-.492-.287-.632l.038-.002c-.025-.117-.136-.376-.274-.488.026-.324.563-.288.263-.54-.099-.288-.436-.361-.499-.212-.062-.555-.51-1.063-.422-1.625-.088-.054-.112.006-.2-.136-.185-.786-.708-1.555-.596-2.264.138.2.163-.036.251-.07-.2-.137.076-.267-.188-.254-.136.064-.212.068-.2.302-.224-.431-.448-1.124-.397-1.421-.025.148-.1.064-.175-.022.238-.04.164-.388.001-.616l-.15.008.089-.211c-.076-.084-.325-.014-.274-.31.05-.03.099-.062.123-.121-.198-.228-.51-.536-.485-.86l.126-.3c-.062-.114-.25-.28-.238-.047-.036-.526-.123-.846.002-1.057-.698-.702-1.11-1.915-1.394-2.902l.113-.005c.012-.294-.226-.077-.213-.284.126.053.15-.27.338-.102-.012-.41-.336-.425-.462-.654-.148.007.15.167-.037.176-.063-.026-.062-.553-.287-.545.05-.12.226-.096.325-.072l-.174-.198c.15-.358.637.5.838.11l-.1-.2c.15-.272.424.48.325-.075-.175-.197-.538-.298-.562-.063-.212-.46-.563-.063-.712-.584.075-.18.162.403.3.25.087-.297-.25-.458-.262-.692 0 .264-.274.13-.362-.014.012-.293.25.107.151-.27-.139-.023-.338-.336-.325-.014-.313-.047-.05-.41-.325-.545.15-.182.563.24.525-.198-.162.124-.411-.423-.612-.12 0-.177.139-.24.289-.16.038-.264-.513-.446-.175-.638l-.212-.018c.038-.091.05-.208.113-.358-.061-.202-.462-.566-.174-.639-.05-.055-.186-.518-.324-.278-.026.324.249.282.037.527.15-.271-.161-.403-.287-.545l.1-.062c-.074-.085-.123-.319-.26-.342.086.055.148-.008.149-.095l-.2-.05c-.212-.372.262-.187.088-.56l.224.253c-.049-.056.063-.239-.048-.408-.175-.023-.4-.1-.538-.124-.137-.198.139-.153-.086-.319l.273.224c.064.026.189-.271.09-.563-.113-.17-.425-.39-.413-.067-.05-.146-.024-.382.125-.301-.16-.316-.15.096-.336-.16.063-.15.088-.562.164-.83l.35.217-.063-.2c.287.193.114-.18.374-.104-.01-.147-.136-.288-.234-.401-.214.508-.613-.294-.888-.078-.261-.517.65-.586-.023-.996-.052.12-.376-.072-.175.242-.075-.35-.388-.129-.388-.57.224.254.214-.42.539-.053-.113.005-.002.264.05.32.074-.178.323-.073.21-.42-.098-.201-.198-.49-.347-.395-.176.067.124.317-.101.24-.199-.402.05-.56-.323-.632.11.259-.052.385-.176.42l-.175-.286.138.022c-.075-.524-.263-.077-.387-.569l.162-.301c.24.049.137.729.439.537-.088-.318-.29-.367-.3-.69.05.057.088.144.138.199-.025-.116.375-.369-.025-.732-.174-.198-.137-.023-.262.011-.2-.49-.374-.599-.498-.917.263-.011-.162-.579.2-.301-.088.21.16.932.448 1.035.226-.275.088.408.412.423-.124-.406.163-.477.326-.601-.023-.116-.136-.2-.187-.257-.188.01-.138.154-.314.22-.098-.464-.335-.866-.583-1.06.037-.177.225-.185.299-.013a9 9 0 0 1-.497-1.622c-.177.42-.25-.545-.412-.245.024.293-.101.592-.276.483-.037-.177.125-.035.162-.125-.224-.167.139-.417-.173-.55.249.458.375-.017.625 0-.239-.31.163-.035.05-.383a6.2 6.2 0 0 1-.647-1.086c.051-.558-.398-1.243-.548-1.678.038-.265.339-.191.302-.453-.1-.29-.2.304-.225-.166l.063.026c-.1-.112-.086-.847-.487-.859l.315.046c-.002-.088-.088-.143-.139-.2.088-.032.138-.152.238-.04.1-.326-.211-.55-.312-.836l-.1.238c-.287-.456-.235-.839-.446-1.3l.162-.037-.186-.255c.174.02.188-.273.011-.382l.625.617c-.027.236-.263-.163-.376.016-.1.153.087.584.261.607-.038-.176-.075-.173-.174-.287.2-.127.275.134.462.215-.037-.086-.012-.234-.087-.231.163.14.237.311.336.6-.148-.17-.1.152-.187.097.2-.039.349.22.412.597-.14.33.36.63.435 1.067a1.5 1.5 0 0 1-.636-.5c-.014.294.1.29.086.584.186.08.438.098.637.411l-.138.065c.174.287.386.218.474.625.148.698.372 1.392.521 1.913l-.137.066c.4.187.422.919.684 1.26.074.702.598 1.382.46 1.799.484 1.123.92 2.1 1.255 3.318l-.274-.134c.223.166-.075.179.024.38.089-.297.311.222.487.33.01.586.41 1.215.71 1.642l-.139.065c.425.391.373 1.04.522 1.65-.037.088-.137.24-.063.412.337.249.375.423.673.851.112.346.236.928.26 1.31.748 1.198.97 2.597 1.605 3.889l-.137.152c.785 1.198.98 2.92 1.528 3.982l-.323-.015c.024.38.334.777.51.621.026.381.425.835.26 1.135.064.378.276.399.412.685.124.757.235 1.017.509 1.68l-.036-.175c-.088-.054-.213-.02-.177.155.162.227.225.958.487.594.036.79.71 1.641.67 2.435.075-.091.15.082.238.136.21.636.235 1.368.559 1.825-.014.116-.212-.11-.138.153.085.142.124-.037.238.135.509.976.494 2.15.844 3.073.72 1.61 1.192 3.38 1.74 4.97l-.075.004c.437.45.135 1.343.671 1.642-.025.147.125.493-.038.442.324.366.21 1.251.646 1.79-.012-.058-.036-.086-.087-.142.049.672.435 1.154.51 1.855-.052-.056-.113-.17-.188-.168-.05.297.487.507.198.755.05.144.201.05.162-.037.336 1.48 1.045 2.947 1.605 4.42.148 1.137-.54.246-.017 1.012-.042.09.143.009.078.043.2.297-.207.63.041.801.175-.16.163.114.29.081.08.699-.063.89.26 1.358l-.12-.004c.5.508.565 1.264 1.081 1.663 1.146 3.326 2.379 6.47 3.474 9.72.976 3.246 2.155 6.353 3.028 9.688-.035.859-.009.914.379 1.72-.057-.02-.085-.07-.11.001.246-.032.214.587.462.596.348 1.225.772 2.32 1.177 3.565-.088-.19-.31-.227-.22.002l.228.198-.051.06c.086.149.256.287.277.097 1.213 3.065 1.743 6.295 2.791 9.342.139.759.563 1.766.866 2.542.448 2.444.882 4.638 1.869 6.949-.001-.001-.702-.117-1.158-1.056M13.2 12.037c-.09.121-.065.414-.29.247.1-.062.176-.242.29-.247"/><path fill="#82c6dd" d="M14.358 19.703c.037-.002-.014.119-.026.148-.037-.087-.162-.14-.125-.23.039.088.089.056.15.082M14.888 21.586c-.113.005-.323-.367-.411-.598zM15.022 23.458c-.039.177-.1.15-.162-.05.05-.033.099.025.162.05M15.299 23.505c.049.144.01.235-.025.324.086-.034-.164-.316.025-.324M16.216 27.366c.037.088.186.256.099.378.05-.12-.274-.398-.1-.378M16.937 29.066c.012.058 0 .087.05.143-.013.119-.124.034-.162-.05zM27.65 60.778l-.11-.171.11-.005zM32.17 74.733c.126.167-.053.162-.059.198-.065-.166.147.022.06-.198M35.118 82.091l-.02-.056.215-.048zM59.26 35.857c.375-.174-.268-.114.229-.163-.026.1-.08.188-.228.163M-45.4 69.573c1.08-.945 2.91-.934 4.172-1.723.154-.075.054.31.395.12 1.196-.85 3.376-1.278 5.103-1.48l-.072.116c.329-.04.617-.438.957-.506.02.055-.08.113.021.164.029-.193.567-.268.666-.438.15.024.18.16.371.18l.126-.252c.375-.62 1.276-.377 1.911-.84-.02.055-.079.111-.009.136 1.053-.644 2.497-1.054 3.741-1.568-.029.083-.037.221.063.273-.002-.221.376-.4.705-.55.22.157.526-.377.964-.393l-.02.057c.227-.312.48-.018.638-.355l.24.101c.036-.332.478.012.675-.214l-.027-.058c.208-.145.375-.039.574-.156l.03.027c.478-.239.822-.172.737-.394.234.124-.46.24-.099.415 1.576-.767 3.293-1.273 4.954-1.814.218.03.347.019.417.09.151-.099.612-.243.726-.408-.055.023.144.081.236.064.33-.012.25-.355.614-.361q-.169.155-.062.26c.226-.268.614-.362.93-.528-.04.055-.114.104-.078.171.301-.318.682-.173.962-.404l-.078.17c.568-.008.064-.323.54-.373-.093.076-.039.115-.04.174.339-.373 1.038-.512 1.428-.727-.019.026-.001.06-.001.06.443-.177.94-.256 1.405-.52.2-.001.044.338.508.135-.103-.257.779-.372.4-.577.423-.09 1.103-.2 1.347-.378-.152.16.303.257-.03.39l.309.075c-.004.12-.277.05-.151.158.168-.065.63-.33.797-.337.263-.263.456-.657.957-.856-.207.18.23.245.082.344l.55-.734c.167-.068.105.195.329.047-.036-.066.058-.143.115-.224.073.01.686-.294.844-.06.107.078-.26.145-.042.176.314-.105.299-.197.612-.303l.017.033c.22-.03.577-.308.305-.378-.147.038.105.138-.133.132.097-.198.449-.358.762-.462-.093.076-.058.14-.077.228.356-.34.783-.549 1.228-.786-.033-.126-.104.28-.194.237.66-.025 1.17-.645 1.754-.559-.075.049-.101-.16-.084-.127.296-.079.34.104.509-.024.052.099.227-.11.413-.206.076-.108.067.035-.1.102.244-.177 1.281-.69 1.96-.741-.035-.066.304-.38.45-.418l-.004.18c.164.054.48-.17.55-.04.245-.296-1.136.553-.767.265.151.1.498-.446.48-.196.288-.1.51-.373.837-.311-.089 0-.163.3.068.213.403-.163.093-.115.41-.278l.188-.134c-.036-.162.376-.098.166-.224.092.114.574-.275.616 0l.01.225c.173-.073.222-.312.332-.448.03.012.09.038.092.074-.073-.324.434-.111.568-.423.41-.012.954-.299 1.195-.159.256-.189.482-.387.833-.425-.056.05-.143.088-.14.162.236.026.26-.073.432-.185-.027.06.472.05.737.088.256-.186.103-.324.098-.438.362.227.742-.461 1.161-.285-.085.075-.368.287-.105.288.362.226.453-.4.923-.387l-.187-.224c.24.1.572-.35.614-.073.111-.14.525-.076.397-.312.761-.012 1.642-.673 2.214-.36.085-.074.347-.111.254-.224-.21-.087-.198.175-.29.099.086-.037.084-.112.082-.15.234-.012.409-.048.273.227.53 0 .356-.588.997-.687.006.113.065.138.238.064l.28-.288c.408-.086.3.164.368.338.2-.099.461-.173.514-.336l.328.139c-.238-.1.139-.162.224-.238l-.085.076c.063.061.291-.063.407-.125-.064-.1-.327-.064-.473-.051.083-.113.256-.149.369-.286.009.188.383.012.556-.024.205-.025.167-.226.225-.237.034.088.318-.087.209.087-.056.05-.178-.039-.261.075.148.026.184.187.41-.012.17-.15-.161-.325.25-.337-.085.075-.081.15-.138.237l.38-.024-.035-.162c.06.025.032.049.06.063.052-.2.52-.225.54-.437.172-.074.409-.012.584-.049l-.028.025c.237.026.492-.125.632-.287l.002.037c.117-.024.376-.135.488-.274.324.027.288.564.54.264.288-.1.36-.436.211-.499.556-.062 1.064-.51 1.626-.422.054-.088-.006-.113.136-.2.785-.185 1.555-.709 2.263-.596-.2.138.037.162.07.25.138-.2.267.076.255-.187-.064-.137-.069-.212-.303-.2.432-.224 1.125-.448 1.422-.397-.148-.025-.064-.1.022-.175.04.237.388.163.616.001l-.009-.15.212.088c.084-.076.014-.325.31-.273.03.049.062.099.121.123.227-.198.536-.51.86-.486l.3.127c.114-.062.28-.25.046-.239.527-.036.847-.122 1.058.002.702-.697 1.915-1.108 2.902-1.394l.005.113c.293.013.077-.225.284-.212-.053.126.269.15.102.338.41-.012.425-.336.654-.462-.007-.148-.168.15-.177-.038.026-.062.554-.061.546-.286.12.05.096.226.072.325l.197-.174c.358.15-.5.636-.11.837l.201-.1c.272.15-.48.424.074.326.198-.176.298-.538.064-.562.46-.212.063-.563.584-.713.18.076-.403.162-.249.3.296.088.457-.25.692-.262-.265 0-.13-.274.013-.361.294.012-.107.25.27.15.023-.138.336-.337.014-.325.047-.312.41-.05.545-.324.182.15-.24.562.198.525-.124-.163.423-.411.12-.613.177.001.24.14.16.29.265.038.446-.513.638-.175l.018-.212c.091.037.208.05.358.113.202-.062.566-.462.639-.175.055-.05.519-.185.278-.323-.324-.027-.282.248-.526.036.27.15.402-.16.544-.286l.062.1c.085-.074.319-.123.342-.261-.055.087.008.148.095.15l.05-.2c.372-.212.188.261.56.087l-.252.225c.055-.049.238.063.407-.048.023-.176.1-.4.124-.539.198-.137.153.14.319-.086l-.224.274c-.026.063.271.188.563.09.17-.113.39-.426.067-.413.147-.05.382-.024.301.124.316-.16-.096-.149.16-.336.15.063.562.089.83.164l-.217.35.2-.062c-.193.286.18.113.105.374.146-.01.287-.137.4-.235-.508-.214.295-.612.078-.888.517-.261.587.65.997-.023-.12-.051.072-.376-.243-.175.35-.075.13-.388.57-.387-.254.224.42.214.053.538-.004-.113-.264-.001-.32.05.179.074.073.323.42.211.202-.098.49-.198.395-.348-.067-.176-.317.124-.24-.1.402-.2.56.05.632-.323-.258.11-.385-.053-.42-.177l.286-.175-.021.139c.524-.075.076-.263.568-.387l.302.162c-.05.239-.73.136-.537.438.317-.087.367-.289.69-.299-.057.05-.144.087-.2.137.116-.025.369.376.733-.025.198-.174.022-.137-.012-.262.49-.2.6-.374.917-.498.011.263.579-.161.302.2-.21-.087-.932.161-1.036.449.275.225-.407.087-.422.411.405-.124.477.163.6.326.117-.023.2-.136.257-.186-.009-.189-.154-.139-.22-.314.465-.099.866-.336 1.06-.584.177.037.186.225.013.3a8.8 8.8 0 0 1 1.622-.498c-.42-.176.545-.25.245-.412-.292.025-.591-.1-.482-.276.176-.037.035.126.125.163.166-.224.417.138.55-.174-.459.25.017.375-.001.626.311-.239.036.162.384.05a6.2 6.2 0 0 1 1.086-.648c.558.052 1.242-.397 1.677-.547.265.038.191.338.454.301.29-.099-.304-.2.165-.225l-.025.063c.111-.1.846-.086.858-.487l-.046.315c.088-.002.143-.088.2-.138.032.087.152.137.04.237.327.1.55-.21.837-.312l-.239-.1c.456-.286.84-.235 1.3-.446l.037.162.255-.186c-.02.174.273.188.383.012l-.618.624c-.236-.026.164-.262-.015-.375-.154-.1-.584.086-.607.26.175-.037.173-.074.286-.173.127.2-.134.275-.214.462.086-.037.234-.012.23-.087-.14.163-.31.237-.6.336.17-.149-.151-.1-.097-.187.04.2-.22.349-.597.411-.329-.139-.63.362-1.066.436.106-.25.271-.476.5-.637-.294-.013-.29.1-.584.087-.08.186-.099.438-.411.637l-.065-.138c-.287.173-.218.386-.625.474-.698.147-1.392.372-1.913.52l-.066-.136c-.187.4-.919.422-1.26.683-.702.075-1.382.598-1.799.46-1.123.485-2.1.92-3.318 1.256l.134-.274c-.166.223-.179-.075-.38.024.296.089-.222.31-.33.487-.587.01-1.216.41-1.642.709l-.065-.138c-.392.425-1.04.373-1.65.522-.088-.037-.24-.137-.413-.064-.248.337-.423.375-.85.674a6.4 6.4 0 0 1-1.31.26c-1.198.748-2.597.97-3.89 1.605l-.152-.138c-1.197.786-2.919.981-3.981 1.529l.015-.324c-.38.025-.777.335-.622.51-.38.027-.834.425-1.134.26-.378.064-.399.276-.686.412-.756.124-1.016.236-1.679.51l.175-.037c.054-.087.02-.212-.155-.176-.227.162-.958.225-.594.487-.79.035-1.641.71-2.435.67.091.075-.082.15-.136.237-.636.21-1.368.236-1.825.56-.117-.014.11-.212-.153-.139-.142.086.036.124-.136.238-.975.51-2.148.495-3.072.844-1.61.721-3.38 1.193-4.97 1.74l-.003-.075c-.45.437-1.344.136-1.642.672-.148-.026-.494.125-.443-.039-.366.325-1.25.21-1.79.647.058-.012.086-.037.142-.088-.672.05-1.154.436-1.855.51.057-.051.171-.112.168-.187-.296-.05-.507.486-.754.198-.145.05-.05.2.037.162-1.481.335-2.948 1.045-4.42 1.605-1.137.147-.247-.54-1.013-.018-.09-.042-.009.144-.043.079-.297.199-.63-.207-.8.04.159.175-.115.164-.082.29-.699.08-.89-.062-1.358.26l.005-.12c-.51.5-1.265.565-1.663 1.082-3.326 1.146-6.47 2.378-9.72 3.474-3.247.976-6.353 2.155-9.689 3.028-.859-.036-.914-.01-1.72.378.02-.057.07-.084-.001-.109.032.246-.587.214-.595.462-1.225.348-2.32.772-3.565 1.177.189-.089.226-.31-.003-.22l-.197.228-.06-.052c-.15.086-.287.257-.098.278-3.065 1.212-6.294 1.742-9.341 2.79-.76.14-1.766.563-2.542.867-2.444.448-4.638.881-6.95 1.868 0-.001.117-.701 1.056-1.158M58.798 36.031c-.121-.089-.414-.064-.247-.29.062.1.242.177.247.29"/><path fill="#82c6dd" d="M51.134 37.191c.002.037-.119-.014-.148-.026.087-.037.14-.162.23-.124-.088.038-.056.088-.082.15M49.255 37.723c-.005-.112.367-.322.597-.411zM47.382 37.858c-.177-.039-.151-.1.05-.162.032.05-.025.099-.05.162M47.336 38.134c-.144.048-.235.01-.324-.026.034.087.315-.163.324.026M43.471 39.051c-.088.037-.256.187-.377.099.12.05.398-.273.377-.099M41.775 39.772c-.058.011-.087 0-.143.05-.119-.014-.034-.124.05-.162zM10.06 50.486l.17-.11.006.11zM70.706 71.247c.374-.173-.269-.113.228-.163-.025.1-.08.189-.228.163M-33.954 104.964c1.08-.946 2.909-.935 4.172-1.723.153-.075.053.309.394.12 1.197-.85 3.376-1.278 5.103-1.48l-.072.115c.33-.039.617-.438.957-.505.02.055-.08.113.021.164.029-.194.567-.269.666-.438.15.023.18.16.371.179l.126-.251c.375-.621 1.276-.377 1.911-.841-.02.055-.079.112-.009.137 1.053-.644 2.497-1.055 3.741-1.569-.029.084-.036.222.063.273-.002-.22.376-.399.705-.549.221.157.526-.378.964-.394l-.02.057c.228-.311.481-.018.638-.354l.24.101c.037-.333.478.012.675-.215l-.027-.057c.208-.145.376-.039.574-.157l.031.028c.477-.24.822-.172.736-.394.234.124-.46.24-.098.414 1.576-.767 3.292-1.272 4.953-1.813.218.03.347.018.418.09.15-.099.611-.243.725-.408-.054.022.144.081.236.064.33-.012.25-.356.614-.362q-.168.156-.062.261c.227-.268.614-.362.93-.528-.04.055-.113.104-.078.17.302-.318.682-.173.962-.403l-.078.17c.568-.008.064-.323.541-.374-.094.076-.04.115-.042.175.34-.373 1.04-.513 1.43-.727-.02.026-.002.059-.002.059.444-.176.94-.255 1.406-.52.2 0 .043.339.507.136-.102-.258.779-.372.4-.577.424-.09 1.103-.2 1.347-.378-.151.16.304.256-.03.389l.31.076c-.004.12-.277.049-.152.158.168-.066.63-.33.797-.337.263-.263.457-.657.958-.856-.208.18.23.245.081.343l.551-.734c.166-.067.104.195.328.047-.036-.065.058-.142.115-.223.073.01.686-.294.844-.06.108.078-.26.145-.042.175.314-.104.3-.197.612-.302l.018.032c.22-.028.576-.308.304-.377-.147.038.105.137-.133.131.098-.197.45-.357.763-.462-.094.077-.059.142-.078.229.357-.34.784-.55 1.228-.787-.032-.125-.104.28-.194.238.66-.025 1.17-.645 1.754-.559-.075.049-.1-.16-.084-.128.296-.078.34.104.509-.023.053.098.228-.11.413-.206.076-.109.067.035-.1.101.244-.177 1.281-.69 1.96-.74-.035-.066.304-.38.45-.419l-.003.18c.163.055.48-.17.549-.04.245-.296-1.136.553-.767.266.152.1.498-.446.48-.197.289-.1.511-.373.838-.31-.09 0-.164.3.067.213.404-.163.093-.116.41-.278l.189-.134c-.037-.162.376-.098.165-.225.093.114.575-.274.617.001l.009.225c.173-.073.222-.312.333-.449.03.012.09.038.091.075-.073-.325.435-.112.568-.424.41-.012.955-.298 1.195-.159.257-.188.483-.387.833-.425-.056.05-.142.089-.139.163.236.026.26-.074.432-.186-.027.061.472.051.737.089.255-.187.102-.325.097-.438.362.226.743-.462 1.162-.286-.085.075-.368.288-.105.289.362.225.453-.4.923-.387l-.187-.225c.239.1.572-.35.614-.073.111-.139.524-.076.396-.312.762-.011 1.643-.672 2.214-.36.086-.074.347-.11.255-.224-.21-.087-.198.175-.29.099.086-.037.083-.111.081-.15.235-.011.41-.048.274.227.529.001.355-.587.997-.686.006.113.065.138.238.063l.28-.288c.408-.086.3.165.367.338.201-.098.462-.173.515-.336l.328.14c-.239-.101.139-.163.224-.238l-.085.075c.063.062.291-.063.407-.124-.064-.1-.327-.064-.473-.052.082-.112.255-.148.369-.286.008.189.383.012.556-.024.204-.024.166-.225.224-.237.034.088.319-.086.21.088-.057.05-.178-.04-.261.075.148.026.184.186.41-.012.17-.15-.162-.325.249-.337-.085.075-.08.15-.137.236l.38-.023-.035-.163c.06.025.032.049.06.063.05-.2.52-.224.54-.437.172-.073.408-.011.583-.048l-.028.024c.237.026.492-.124.632-.286l.002.037c.117-.024.376-.135.487-.274.325.026.29.564.54.264.289-.1.362-.436.212-.5.556-.061 1.064-.51 1.626-.421.054-.088-.006-.113.136-.2.785-.185 1.555-.71 2.264-.596-.201.138.035.162.07.25.137-.2.266.076.254-.187-.065-.137-.069-.212-.303-.2.432-.224 1.125-.448 1.422-.397-.148-.026-.064-.1.022-.175.04.237.388.163.616 0l-.008-.15.21.09c.084-.077.015-.326.31-.275.03.05.063.1.122.124.227-.198.536-.51.86-.486l.3.126c.114-.061.28-.25.046-.238.527-.036.847-.122 1.058.002.702-.698 1.915-1.109 2.902-1.394l.005.113c.293.012.077-.225.284-.212-.053.126.269.15.102.337.41-.011.425-.335.654-.461-.007-.148-.168.15-.177-.038.026-.062.554-.062.546-.286.12.05.096.225.072.325l.197-.174c.358.15-.5.636-.11.837l.201-.1c.272.15-.48.424.074.326.198-.176.298-.538.064-.563.46-.212.063-.562.584-.712.18.075-.403.162-.25.3.297.088.458-.25.693-.262-.265 0-.13-.274.013-.361.293.012-.107.25.27.15.023-.138.336-.337.014-.325.047-.313.41-.05.545-.324.182.15-.24.562.198.524-.124-.162.423-.41.12-.612.177 0 .24.14.16.289.264.038.446-.513.638-.174l.018-.213c.091.038.208.05.358.114.202-.062.566-.463.639-.175.055-.05.519-.186.278-.324-.324-.026-.282.25-.526.037.27.15.402-.161.544-.286l.062.1c.085-.074.319-.124.342-.261-.055.087.008.148.095.149l.05-.2c.372-.211.188.262.56.088l-.253.224c.056-.048.239.064.408-.048.023-.175.1-.4.124-.538.198-.137.154.139.319-.086l-.224.273c-.026.064.272.189.563.09.17-.112.39-.425.068-.412.146-.05.381-.024.3.124.316-.16-.096-.149.16-.336.151.063.563.088.83.164l-.217.35.2-.062c-.192.286.18.113.105.373.146-.01.288-.136.401-.234-.509-.214.294-.613.077-.888.518-.261.587.65.997-.023-.12-.051.072-.376-.242-.175.35-.075.129-.388.57-.388-.255.224.42.215.053.539-.005-.113-.264-.002-.32.05.178.074.073.323.42.21.2-.098.49-.198.395-.347-.067-.176-.318.124-.24-.1.401-.2.56.05.632-.324-.259.11-.385-.052-.42-.176l.286-.175-.022.139c.524-.076.077-.264.569-.388l.301.162c-.05.24-.729.137-.537.439.318-.088.367-.289.69-.3-.057.05-.144.087-.2.138.117-.025.37.375.733-.025.198-.174.023-.137-.011-.262.49-.2.599-.374.916-.498.012.263.58-.162.302.2-.21-.087-.932.161-1.036.449.276.225-.407.087-.422.411.406-.124.477.163.601.326.116-.023.2-.136.257-.186-.01-.189-.154-.139-.22-.314.464-.099.866-.336 1.059-.584.178.037.186.225.014.3a8.8 8.8 0 0 1 1.622-.498c-.42-.176.545-.25.245-.412-.293.025-.592-.1-.483-.276.176-.036.035.126.125.163.167-.225.417.138.55-.174-.458.25.017.375-.001.626.312-.239.036.162.384.05a6.2 6.2 0 0 1 1.086-.648c.558.052 1.243-.397 1.678-.548.265.038.19.339.453.302.29-.1-.304-.2.165-.225l-.025.063c.111-.1.846-.086.858-.487l-.045.315c.088-.002.143-.088.2-.138.032.087.152.137.04.237.326.1.55-.211.836-.312l-.238-.1c.455-.286.839-.235 1.3-.446l.036.162.255-.186c-.02.174.273.188.383.011l-.618.625c-.236-.026.164-.263-.015-.376-.153-.099-.584.087-.607.261.176-.038.173-.075.286-.174.127.2-.133.275-.214.462.086-.037.234-.012.23-.087-.139.163-.31.237-.6.336.17-.148-.15-.1-.096-.186.039.2-.22.348-.598.41-.33-.138-.63.362-1.067.436.106-.25.272-.475.5-.636-.293-.014-.289.1-.584.086-.08.186-.098.438-.41.637l-.066-.138c-.286.174-.217.387-.624.474-.698.148-1.392.373-1.913.521l-.066-.137c-.187.4-.92.422-1.26.684-.702.074-1.382.598-1.799.46-1.123.484-2.1.92-3.318 1.255l.134-.274c-.166.224-.179-.075-.38.024.296.089-.222.311-.33.487-.587.011-1.216.41-1.642.71l-.065-.139c-.392.425-1.04.374-1.65.523-.088-.038-.24-.138-.413-.064-.248.337-.423.375-.85.673a6.4 6.4 0 0 1-1.31.26c-1.198.748-2.597.97-3.89 1.605l-.152-.137c-1.197.785-2.92.98-3.981 1.528l.015-.323c-.38.025-.777.335-.622.51-.38.026-.834.425-1.134.26-.378.064-.399.276-.686.412-.757.124-1.016.235-1.679.51l.174-.037c.055-.088.022-.213-.154-.176-.227.162-.958.224-.594.486-.79.036-1.642.71-2.435.67.09.075-.082.15-.136.238-.636.21-1.368.235-1.825.56-.117-.015.11-.213-.153-.14-.142.086.036.125-.136.239-.975.509-2.148.494-3.072.844-1.61.72-3.38 1.192-4.97 1.74l-.003-.075c-.45.437-1.344.135-1.642.671-.148-.025-.494.125-.443-.038-.366.324-1.25.21-1.79.646.058-.012.086-.036.142-.088-.672.05-1.153.436-1.855.51.057-.05.171-.112.168-.187-.296-.05-.507.487-.754.198-.144.05-.05.2.037.162-1.481.336-2.948 1.045-4.42 1.605-1.137.148-.247-.54-1.013-.017-.09-.043-.009.143-.043.078-.297.2-.63-.207-.8.041.16.174-.115.163-.082.29-.698.08-.89-.063-1.357.26l.004-.12c-.509.5-1.264.565-1.663 1.081-3.326 1.146-6.47 2.378-9.72 3.474-3.247.976-6.353 2.155-9.689 3.028-.859-.035-.914-.009-1.72.379.02-.057.07-.085 0-.11.032.246-.587.214-.596.462-1.225.348-2.32.772-3.565 1.177.19-.089.227-.31-.002-.219l-.198.227-.06-.052c-.15.086-.287.257-.098.278-3.064 1.213-6.294 1.743-9.34 2.791-.76.138-1.767.563-2.543.866-2.444.448-4.638.882-6.95 1.869 0-.001.117-.702 1.056-1.158M70.247 71.422c-.12-.09-.414-.065-.247-.29.062.1.242.177.247.29"/><path fill="#82c6dd" d="M62.584 72.582c.001.037-.12-.014-.149-.026.087-.037.14-.163.23-.125-.087.038-.056.088-.081.15M60.7 73.114c-.005-.113.367-.323.598-.412zM58.827 73.248c-.177-.038-.15-.1.05-.161.033.05-.025.099-.05.161M58.781 73.524c-.144.05-.234.011-.324-.025.034.087.316-.163.324.025M54.917 74.442c-.089.037-.257.186-.378.099.12.05.398-.274.377-.1M53.22 75.162c-.058.012-.087 0-.143.05-.118-.013-.034-.124.05-.162zM21.505 85.877l.171-.111.005.11zM7.554 90.396c-.167.125-.163-.054-.198-.06.166-.065-.022.148.198.06M.196 93.345l.056-.02.048.215z"/></svg>