<svg xmlns="http://www.w3.org/2000/svg" width="43" height="59" fill="none" viewBox="0 0 43 59"><path fill="#fc6b7e" d="M60.865 26.9c-.079-.793-.514-.276-.82-.233l-1.535-.31c-.442-.072-1.104-.718-1.083.43-1.288-.315-2.58-.442-3.885-.092-.027-.084-.048-.237-.083-.24-1.831-.188-3.66-.606-5.5-.068a2 2 0 0 0-.245-.076c-.103-.636-.377-.684-.794-.24-.896.47-1.744-.293-2.63-.103-1.185.19-2.29-.217-3.42-.466-.137-.03-.314.124-.473.192-.318-.098-.63-.23-.956-.285-.625-.106-.053.305-.163.43l-1.549-.074c-.425-.717-.99-.561-1.578-.26-.652-.076-1.337-.034-1.856-.564.122-.435.625-.446.834-.783l.502-.84c-.012-.402.22-.522.566-.51.256-.608 1.345-.558 1.15-1.522q.238-.02.475-.042c.492.173.45-.474.79-.538.607.361.938.298.777-.526l-.498.053-.2.237q.1-.118.2-.237l.498-.053c.274-.496.53-.073.793.015.394.1.597-.046.585-.472.135-.239.452-.277.582-.424.483-.547-.175-.284-.32-.398.06-.47 1.001-.03.78-.789.15-.045.332-.053.312-.29.389.104.506-.14.563-.46.637.073 1.225.07 1.245-.827l.331-.274c-.047.34-.006.628.4.697.33-.352-.128-1.151.67-1.24l.256.066c.656.446.547-.331.803-.525.045-.477.872-.56.581-1.206.345-.085.917.421.982-.394l.313-.298c.328.078.46-.144.578-.392.793-.138 1.06-.925 1.609-1.364l1.024-.814.017.004c1.107.205 1.516-.187 1.627-1.562l.507-.037c.613.147.484-.57.824-.741.436.1.649-.166.81-.517.47-.1 1.12.04 1.03-.808a.38.38 0 0 0 .033-.246c.274-.356.974-.12 1.032-.775l.347-.522c.633-.345.726-1.469 2.155-.99-.621-.497-.855-.683-1.09-.87-.102-.37.248-.83-.216-1.126.056-.828-.433-.422-.772-.356-.724-.213-1.09.1-1.168.833-.927-.14-1.098.843-1.681 1.231-1.45.964-2.766 2.137-4.135 3.226-.686.367-1.503.545-1.88 1.357-1.058.083-1.392 1.402-2.444 1.493-.708-.028-.983.413-1.082 1.045-.286.021-.56.06-.544.458-.35.284-1.064.138-1.014.895-.544-.042-.557.598-.958.767-1.283.542-2.253 1.555-3.34 2.39-.644.014-.92.357-.858 1.002-.409.134-.916.154-1.211.42-1.546 1.391-3.288 2.51-4.9 3.806q-.368-.353-.735-.707c.145-.398.806-.692.237-1.233.343-.882.545-1.768.094-2.677.416-.105.706-.298.532-.811l.397-3.705c.308-.302.385-.593-.041-.858-.189-1.01.597-1.931.268-2.955.455-.399-.163-.853-.077-.999.85-1.428-.076-2.946.287-4.377.105-.267.472-.52.038-.812l-.345-.538c.185-.635.262-1.112-.578-1.439-.58-.226-.877.286-.893.37-.18.913-1 1.62-.825 2.635.2.355.327.708-.017 1.053.023.456-.353.898-.05 1.364l-.126 1.899c-.394.7-.836 1.399-.029 2.114-.856 1.143-.503 2.491-.619 3.76-.321.089-.176.352-.198.553l-.157.48c-.627.387.048.76.012 1.14-.571.823-.291 1.748-.308 2.638-.274.884-.558 1.768-.24 2.707-.425.796-.817 1.035-1.187-.046-.043-.126-.27-.186-.415-.276.161-.635-.274-.763-.718-.885-.057-.272.047-.596-.24-.795-.151.27-.364.527-.354.835-.01-.308.202-.565.352-.836-.423.066-.758.228-.855.649.097-.42.432-.583.854-.65l-.562-.802c-.257-1.75-2-2.557-2.518-4.14-.682-.372-.521-1.277-1.057-1.741l-.5-.899q.03-.248-.21-.293c-.07-.173-.045-.412-.302-.457q-.06-.126-.195-.096c-.167-.374.151-.998-.543-1.099.216-.84-.56-1.237-.876-1.79-.76-1.335-1.137-2.937-2.413-3.94-.149-.35-.358-.606-.78-.552-.325-.499-.815-.375-.792.068.025.452-.42.877-.06 1.314-.528.864-.073 1.506.457 2.132-.558.952.529 1.498.544 2.309l.468-.089q.034.102.06.205c.017.524-.183 1.134.525 1.385.08.457.28.84.662 1.11-.034.242.002.453.243.572l-.014.11.03.107-.236.235c.058.436.32.61.73.595-.515 1.118.448 1.424 1.021 1.944.522.466.39 1.467 1.28 1.632l.221.486c-.434.508-.393.875.297 1.05.173.692 1.133.65 1.247 1.397-.264.098-.327.423-.212.523.77.664.99 1.849 2.036 2.24-.046.38-.328.805.194 1.078-.133.506.473.463.615.779-.366.319-.775.216-1.147.28-.273-.41-.553-.79-1.046-.254-.352.03-.683-.3-1.047-.064-.403-.494-.715-.04-1.056.107-.551-.008-1.03-.673-1.635-.184l-.466.254a2 2 0 0 0-.025-.193c-.606-.89-1.423-.333-2.159-.326l-4.387-.377c-.61-.453-1.27-.054-1.903-.116l-.453-.205c-1.114-.26-2.234-.469-3.384-.446-.379-.528-.915.002-1.342-.207-.327.048-.533-.194-.778-.343-.1-.19-.66-.185-.83-.203a16 16 0 0 0-1.647-.07c-.797 0-2.665-.12-2.685 1.138 0 .057.004.116.031.166a.4.4 0 0 0 .087.098c.08.07.774.408.778.421q.139.413.53.235c.439.005.546.655 1.038.558.366.209.646-.37 1.018-.118.108.349.343.18.548.14.344.118.622.44 1.034.349.088.082.168.223.266.238 3.238.484 6.476.956 9.716 1.43.71.331 1.415.34 2.117-.028 1.643.317 3.283.682 4.972.385.367.52.898.106 1.333.242l.274.047c.434.345.87-.39 1.305 0l.483.065c.023.34-.147.555-.385.788-1.226 1.204-2.686 2.17-3.606 3.686-1.029.25-1.246 1.398-2.07 1.973-.692.482-1.355 1.29-1.965 2.016-1.498 1.782-3.262 3.29-4.891 4.939l-1.04.795-.018.023c-.415.75-1.49.834-1.718 1.774-.766.592-1.642 1.084-2.272 1.801-.82.933-1.649 1.813-2.713 2.444a5.97 5.97 0 0 0-2.173 2.376c-.16 1.383.282 1.712 2.286 1.697-.018.436.065.576.513.301.648-.4.844-1.181 1.428-1.617.436.052.575-.158.488-.572l.553-.496c.877-.174 1.086-1.245 1.911-1.487.537-.175 1.272-.195.85-1.125q.134.006.183-.12c.821-.31 1.66-.603 1.631-1.743.463-.014.723-.282.854-.711.579-.058.904-.506 1.283-.872.194-.014.553.28.468-.26l.359-.336c.66-.134 1.033-.622 1.363-1.16l.479-.288c.703.165.745-.358.834-.835l-.073-.264c.233-.334 1.104.097.888-.774.252-.146.52.349.72.01.063-.106-.12-.363-.19-.551l.664-.383c-.856-.877.457-.32.417-.659.327-.11.767.099.971-.359l-.416-.18c-.052-.613.838-.45.815-1.038.42-.148.16-.55.288-.806.466-.32 1.27-.002 1.477-.814l.374-.21.262-.263-.259-.822-.007-.077.007.077.259.822c.89.025.092-.575.287-.808.395-.085.883.029 1.06-.52l1.094-1.583c.495.31 1.07-1.056 1.525.075l.076.472c.223.48-1.07.854-.094 1.386q-.001.663-.004 1.325c-.076.696-.201 1.39-.211 2.087-.007.47-.098 1.09.65 1.16l-.27.543c-.47.27-.453.744-.46 1.194-.011 1.019-.007 2.037-.01 3.056-.223.128-.106.34-.119.518-.006.413-.888.527-.366 1.12.118.621.36 1.225.255 1.879-.18.234-.547.636-.514.675.761.88-.236 1.693-.066 2.531-.497.35.1.73-.028 1.09-.218 1.137-.435 2.275-.445 3.44-1.126.587-.425 1.6-.543 2.422l.038 1.637c-.034.453-.328 1.006.236 1.284.611.3.883-.307 1.243-.638l-.005-.029 1.164-.146c.461-.186.461-.186.27-.95-.016-.631-.016-1.26.217-1.861.111-.254.802-.273.302-.774l-.007-.013c-.126-.383-.43-.786.246-1.003.142-.046.002-.295-.197-.337-.01-1.281.75-2.446.545-3.756.406-.511.121-1.079.128-1.622-.444-.506 1.133-.906.074-1.444l.057-1.216q.097.07.196-.001c.607-.56.092-1.289.274-1.913l.06-.255c.223-.26.337-.527.047-.818l-.083-.529c.09-.42.01-.85.318-1.252.472-.616-.084-.602-.473-.644.483-.535.653-1.155.485-1.866.186-.802.19-1.608.064-2.418.39-.589.201-.948-.429-1.132-.024-.374.966-.062.484-.746.024-.363.118-.644.57-.507.132.255-.133.623.22.815.31.195-.705.867.282.82l.484.265c.192.574-.034 1.352.764 1.628-.479 1.111.694 1.086 1.063 1.613.125.325-.208.762.236 1.008.373.037.726.122.995.417q.067.641.553 1.051l.58 1.862c.08.722.635 1.057 1.127 1.443.356.245.186 1.114 1.056.804.43-.154.438.419.495.759-.367.294-.41.689.097.673.65-.022.548.38.621.737-.046.625.104 1.09.84 1.074.33.349-.47.89.191 1.18.176.305.44.466.78.51.144.321-.383.787.197 1.008.18.068.327.003.3-.242.024-.038.042-.082.074-.11.025-.021.068-.021.103-.031.06.947 1.505 1.358.943 2.554-.063.136.11.123.169.178.872.801 1.313 1.986 2.29 2.701-.4.994.06 1.98 1.072 2.53.798.433.988.066 1.024-.652q.123-.011.243-.045c1.283-.146 1.116-1.005.891-1.892.166-1.366-1.096-1.92-1.585-2.915-.363-1.135-1.447-1.837-1.733-3.018.042-.415-.208-.636-.52-.816-.474-1.022-1.29-1.805-1.82-2.823-.414-.794-.728-1.79-1.468-2.412-1.4-1.175-2.281-2.817-3.154-4.317-1.447-2.49-3.276-4.735-4.487-7.367-.592-.682-.613-1.766-1.505-2.237l-.577-1.063c.11-1.196.762-.144 1.127-.285l.522.018 4.215.134c.453.513 1.061.132 1.577.285 2.136.06 4.294-.056 6.4.226 2.337.313 4.67.22 7 .346.463.105.91.09 1.322-.183 1.648.764 3.367.41 5.054.262 1.164-.1 1.594-1.594.808-2.564m-9.112-16.617c.073.092.085.152.066.195.02-.043.006-.103-.066-.195m-4.28 1.556c-.159.265-.225.615-.228 1.02.004-.405.07-.755.228-1.02m-6.953 6.429v.06zm-5.074 4.264-.277.01zM20.644 12.497l.271.005zm5.008 9.275-.716-1.11q.359.555.716 1.11M5.777 23.447c.09-.122.07-.347-.153-.56.224.213.243.437.153.56m3.006 24.295c.16-.11.212-.26.235-.42-.023.16-.075.308-.235.42m.992-.584.032-.478q-.014.238-.032.478m2.217-3.12c-.236-.087-.475-.17-.854.031l-.017.031.015-.03h.002l.032-.068c.011-.026.096-.14.07-.198l.026-.034q.363.136.726.268m3.518-3.135-.553.79zm12.122-12.368c.09-.172.179-.29.29-.336-.11.046-.2.164-.29.336M41.43 47.14q.277.142.553.287c.232.093.253.304.275.515.21.103.426-.138.614-.139-.188.001-.404.242-.615.14-.021-.212-.042-.423-.275-.516zm-1.272-1.644c.38 0 .485.385.743.556-.258-.172-.363-.556-.743-.556m-2.278-4.342c.12-.022.252-.107.38-.17-.128.063-.26.148-.38.17m-2.79-3.4c.072.186.478.195.661.322-.183-.128-.59-.136-.661-.322m-4.208 5.127q.033.031.068.032a.1.1 0 0 1-.069-.032m.432-33.9c-.03-.48-.072-.958-.087-1.438.015.48.057.958.087 1.437l1.007.025zm1.62 16.436-.198-.519zm3.573.532c.185.003.37.05.554.09-.184-.04-.368-.087-.554-.09m.643.108c.186.038.373.067.561.033-.189.034-.375.005-.56-.034"/></svg>