<svg xmlns="http://www.w3.org/2000/svg" width="61" height="141" fill="none" viewBox="0 0 61 141"><path fill="#fc6b7e" d="M35.9 23c-.2-.4-.2.3-.2-.2zm33.7 104.7c-1-1-1-3-1.8-4.2 0-.1.4 0 .2-.4-.9-1.2-1.3-3.4-1.5-5h.1l-.5-1h.2c-.2 0-.3-.6-.5-.7l.2-.3-.2-.2c-.7-.3-.4-1.2-.9-1.9h.1q-.8-1.7-1.5-3.7h.3q-.4-.1-.6-.8c.2-.2-.4-.5-.4-1-.2-.1 0-.4-.3-.5l.1-.3c-.3 0 0-.5-.2-.7q-.2-.2-.2-.5-.2-.9-.4-.8c.1-.2.3.5.4.1q-1-2.4-1.8-5l.1-.3q0-.5-.4-.8v-.2l-.3-.6h.3q-.4-.4-.6-.9h.2q-.3-.4-.4-.9l.2.1c0-.6-.3 0-.4-.5h.2q-.5-.6-.8-1.4h.1l-.5-1.4c0-.2.3 0 .1-.5-.2 0-.3-.8-.6-.4q0-.8-.3-1.4c.1.2.2-.3.4 0v-.3l.2.2-.3-.8q-.5-.4-.9-1c.2.2.2-.2.3 0l-.7-.6q.2-.1 0-.3l-.2-.1c0-.1-.3-.7 0-.9 0 0 .1.3.1 0s-.1-.2-.3-.6c0-.2-.2-.6-.3-.3l.1.2q-.3-.2-.4-.8h.2q-.5-.4-.8-1.2c-.1 0 .3.1.2.2 0-.6-.6-1.1-.5-1.7h-.1v-.4l-.3-.5.1.1c-.1-.2-.7-1.2-.7-2q-.2 0-.4-.4h.2v-.5c-.4-.3.5 1.1.2.8 0-.2-.5-.5-.2-.5q-.3-.4-.3-.9.2.2.2 0l-.3-.4-.1-.2c-.2 0-.1-.4-.2-.2 0 0-.3-.6 0-.6h.2l-.5-.4h.1c-.3 0-.1-.5-.4-.6l-.2-1.2q-.4-.4-.4-.8l.2.1-.2-.4v-.8q-.2-.2-.4 0c.2-.4-.4-.8-.3-1.2.1 0 .3.3.3 0 .3-.3-.4-.4-.4-.8l-.2.1c.1-.2-.3-.5 0-.6-.2 0-.1-.5-.4-.4 0-.7-.6-1.6-.3-2.2q0-.2-.3-.2l.1.3-.1-.1q0-.5.2-.3c0-.5-.6-.4-.7-1q.2 0 .1-.2l-.3-.3q0-.4.3-.4 0-.3-.3-.5l.2-.3c-.2.2-.2-.2-.3-.3v.1-.4.5l-.4-.4v-.5l-.2-.3v-.2l.1.3q.1-.1 0-.4c-.1-.2-.3.2-.3-.3l.2.2v-.4h-.2c-.1 0-.1-.5-.3-.6v-.6q0-.3-.4-.6l-.2-.4c0-.4.6-.3.3-.6q-.3-.4-.5-.2c0-.6-.5-1-.4-1.6q-.2 0-.2-.2c-.2-.7-.8-1.5-.6-2.2q0 .2.2 0-.1-.4-.2-.3-.2 0-.2.3l-.4-1.5q0 .2-.2 0 .4-.1 0-.6h-.1v-.2l-.2-.3.1-.1q-.4-.5-.5-.9l.2-.3q-.1-.3-.3 0v-1.1a7 7 0 0 1-1.4-2.9h.2c0-.3-.3 0-.3-.3.2 0 .2-.3.4 0q-.2-.6-.5-.7c-.1 0 .2.1 0 .1 0 0 0-.5-.3-.5h.3L42 47c.2-.3.7.5.9.1l-.1-.2c.1-.2.4.5.3 0q-.4-.3-.6-.1c-.2-.5-.5 0-.7-.6.1-.2.2.4.3.2l-.2-.6q-.1.1-.4 0c0-.3.3 0 .2-.3-.2 0-.4-.4-.4 0-.3 0 0-.5-.3-.6.2-.2.6.3.5-.2-.1.1-.4-.4-.6-.1q0-.2.3-.2c0-.2-.5-.4-.2-.6h-.2l.1-.4c0-.2-.4-.5-.1-.6 0 0-.2-.5-.4-.3 0 .3.3.3 0 .5q.2-.3-.2-.5 0-.3-.2-.4l.2-.1H40c-.2-.4.2-.2 0-.6l.3.2v-.4l-.6-.1v-.3l.2.2q.2 0 0-.6-.1-.3-.3 0 0-.4.1-.3c-.2-.3-.2 0-.3-.2l.1-.8.4.2v-.2c.2.2 0-.2.3-.1l-.2-.4c-.3.5-.7-.3-1 0-.2-.6.7-.7 0-1q-.2-.1-.1.2c-.1-.4-.4-.2-.4-.6.2.2.2-.4.5 0v.3q.3-.1.3-.5-.1-.4-.4-.4c-.1.1.2.4 0 .3-.3-.4 0-.6-.4-.6q.1.3-.2.4l-.1-.3c0-.5-.2 0-.3-.6l.2-.3c.2 0 .1.8.4.6l-.3-.7.1.2c0-.1.4-.4 0-.7q-.2-.2-.2 0l-.5-1c.2 0-.2-.5.2-.3-.1.3.1 1 .4 1 .2-.2.1.5.4.5q0-.5.3-.6l-.1-.3q-.2 0-.4.3-.1-.8-.5-1 0-.4.3-.1-.4-.8-.5-1.6c-.2.4-.3-.6-.4-.3q0 .5-.3.5l.1-.1c-.2-.2.2-.4-.1-.6.2.5.3 0 .6 0-.2-.3.2 0 0-.3l-.6-1.1q-.1-1-.6-1.7c0-.3.4-.2.3-.5 0-.3-.2.3-.2-.1 0-.1 0-.9-.4-.9h.3l-.1-.1q0-.2.2 0 0-.5-.3-.9l-.1.2q-.3-.6-.4-1.3h.1l-.2-.2q.3-.1 0-.4l.7.6c0 .2-.3-.2-.4 0q-.2.5.3.6 0-.2-.2-.3.3 0 .4.2V25l.3.6c-.2-.2-.1.2-.2.1q.4 0 .4.6c-.1.3.4.6.4 1q-.3 0-.6-.4l.1.6q.3-.1.6.4h-.1c.2.3.4.2.5.7l.5 1.9h-.1c.4.2.4 1 .6 1.3.1.7.6 1.4.5 1.8q.8 1.5 1.3 3.3l-.3-.1q.2.1 0 .4c0-.3.3.2.5.3q.1 1 .7 1.6h-.1c.4.5.3 1.1.5 1.7q-.2.2 0 .5t.6.8l.3 1.3q.9 1.9 1.6 3.9l-.2.2c.8 1.2 1 2.9 1.6 4h-.4q.2.6.5.5c0 .4.5.9.3 1.2q.1.4.4.7.1.9.5 1.6v-.1l-.2.1c.2.3.2 1 .5.6 0 .8.7 1.7.7 2.5h.2q.2 1.2.6 2-.2-.1-.2 0t.3.2c.5 1 .5 2.2.8 3q1 2.6 1.7 5c.4.5.1 1.4.6 1.7 0 .1.2.5 0 .4.3.4.2 1.3.6 1.8v-.1l.5 1.8-.2-.1c0 .3.5.5.2.7q.1.2.1 0 .6 2.3 1.6 4.4c.2 1.1-.5.3 0 1h.1c.2.4-.2.7 0 .9h.3q0 1 .3 1.4h-.1c.5.5.5 1.3 1 1.7L60 94q1.7 4.7 3 9.7c0 .8 0 .9.4 1.7.2 0 .1.6.4.6q.5 1.8 1.2 3.5-.2-.2-.2 0l.2.3q.1.3.2.1c1.2 3 1.7 6.3 2.8 9.3q.3 1.3.9 2.6.4 3.5 1.8 7s-.7-.2-1.1-1.1M36 23.5q0 .3-.3.2z"/><path fill="#fc6b7e" d="M37.2 31.1v.2l-.2-.2zm.5 1.9-.4-.6zm.2 1.9q0 .3-.2 0zm.2.1v.3zm.9 3.8.1.4c.1-.1-.2-.4 0-.4m.7 1.7v.2l-.1-.1M55 86.2v.2c-.1-.2 0 0 0-.2m3 7.3h.1zM12.8 69.6c1.1-1 3-1 4.2-1.8.2 0 0 .4.4.2 1.2-.9 3.4-1.3 5-1.5v.1l1-.5v.2c0-.2.6-.3.7-.5l.3.2.2-.2c.3-.7 1.2-.4 1.9-.9v.1q1.7-.8 3.7-1.5v.3q.1-.4.8-.6c.2.2.5-.4 1-.4.1-.2.4 0 .6-.3l.2.1c0-.3.5 0 .7-.2l.5-.2q.9-.2.8-.4c.2.1-.5.3-.1.4q2.4-1 5-1.8l.4.1q.3 0 .7-.4h.2l.6-.3v.3q.4-.4.9-.6v.2q.4-.3.9-.4v.2c.5 0 0-.3.4-.4v.2q.6-.5 1.4-.8v.1l1.4-.5c.2 0 0 .3.5.1 0-.2.8-.3.4-.6q1 0 1.4-.3c-.2.1.3.2 0 .4h.3l-.2.2.8-.3q.3-.5 1-.9c-.2.2.2.2 0 .3l.6-.7h.3l.2-.2s.6-.3.8 0c.1 0-.3.1 0 .1q.3 0 .6-.3c.2 0 .6-.2.3-.3l-.1.1q.1-.3.7-.4v.2q.4-.5 1.2-.8c0-.1-.1.3-.2.2.6 0 1.1-.6 1.7-.5v-.1h.5l.4-.3-.1.1c.2-.1 1.2-.7 2-.7q0-.2.4-.4v.2q.3-.2.5 0c.3-.4-1.1.5-.7.2.1 0 .5-.5.4-.2q.4-.3.9-.3-.2.2 0 .2l.5-.3.1-.1c0-.2.4-.1.2-.2.1 0 .6-.3.6 0v.2l.4-.5v.1c0-.3.5-.1.6-.4l1.2-.2q.4-.4.9-.4-.2 0-.2.2l.4-.2h.8q.2-.2 0-.4c.4.2.8-.4 1.2-.3 0 .1-.3.3 0 .3.3.3.4-.4.9-.4l-.2-.2c.2.1.5-.3.6 0 0-.2.5-.1.4-.4.7 0 1.6-.6 2.2-.3q.2 0 .2-.3l-.2.1v-.1q.5 0 .3.2c.5 0 .4-.6 1-.7q0 .2.2.1l.3-.3q.4 0 .4.3.4 0 .5-.3l.3.2c-.2-.1.2-.2.3-.3H75q.1.1.4 0h-.5l.4-.4q.2.2.5 0l.3-.2h.2l-.3.1q.2.2.4 0c.2-.1-.1-.3.3-.3l-.2.2h.4v-.2c0-.1.6-.1.6-.3h.6q.3 0 .6-.4l.5-.2c.3 0 .2.6.5.3q.5-.3.2-.5c.6 0 1-.5 1.6-.4q0-.2.2-.2c.8-.2 1.5-.8 2.2-.6q-.2 0 .1.2l.3-.2q0-.2-.3-.2.7-.4 1.4-.4-.2 0 0-.2.2.4.6 0v-.1h.2l.3-.2.1.1q.4-.4 1-.5l.2.2q.3-.1 0-.3H89a7 7 0 0 1 3-1.4v.2c.2 0 0-.3.2-.3q.2.2.1.4l.7-.5c0-.1-.2.2-.2 0 0 0 .5 0 .5-.3l.1.3.2-.2c.4.2-.5.7-.1.9l.2-.1c.3.1-.5.4 0 .3q.5-.4.1-.6c.5-.2 0-.5.6-.7.2.1-.4.2-.2.3q.4 0 .7-.2-.4-.1 0-.4c.3 0-.1.3.2.2 0-.2.4-.4 0-.4.1-.3.5 0 .6-.3.2.2-.2.6.2.5-.1-.1.4-.4.1-.6q.3 0 .2.3c.2 0 .4-.5.6-.2v-.2l.4.1c.2 0 .6-.4.6-.1 0 0 .5-.2.3-.4-.3 0-.3.3-.5 0q.3.2.5-.2v.1q.3 0 .4-.3l.1.2V40c.4-.2.3.2.6 0l-.2.3h.4l.1-.6h.3l-.2.2h.6c.1 0 .4-.3 0-.3q.4 0 .3.1c.4-.2 0-.2.2-.3l.8.1-.2.4h.2c-.2.2.2 0 .1.3l.4-.2c-.5-.3.3-.7 0-1 .6-.2.7.7 1 0q.2-.2-.2-.1c.4-.1.2-.4.6-.4-.2.2.4.2 0 .5h-.3c.2.1.1.4.5.3q.4-.1.4-.4c-.1-.1-.4.2-.3 0 .4-.3.6 0 .7-.4q-.4.1-.5-.2l.3-.1c.5 0 0-.2.6-.3l.3.2c0 .2-.8.1-.6.4l.7-.3-.2.1c.1 0 .4.4.8 0q.2-.2 0-.2l.9-.5c0 .2.5-.2.3.2-.2-.1-1 .1-1 .4.2.2-.5.1-.5.4q.5 0 .6.3l.3-.1q0-.2-.3-.4.8-.1 1.1-.5.3 0 0 .3.8-.4 1.6-.5c-.4-.2.6-.3.3-.4q-.5 0-.5-.3l.1.1c.2-.2.4.2.6-.1-.5.2 0 .3 0 .6.3-.2 0 .2.4 0l1-.6q1-.1 1.7-.6c.3 0 .2.4.5.3.3 0-.3-.2.1-.2.1 0 .9 0 .9-.4v.3l.1-.1q.1 0 0 .2.5 0 .9-.3l-.2-.1q.6-.3 1.3-.4v.1l.3-.2q0 .3.3 0l-.6.7c-.2 0 .2-.3 0-.4-.1-.1-.6 0-.6.3q.2 0 .3-.2 0 .3-.2.4h.2l-.6.3c.2-.2-.1-.1 0-.2q0 .4-.7.4c-.3-.1-.6.4-1 .4q0-.3.4-.6l-.5.1q0 .3-.5.6v-.1c-.3.2-.2.4-.6.5l-2 .5v-.1c-.2.4-1 .4-1.3.6-.7.1-1.4.6-1.8.5q-1.5.8-3.3 1.3l.1-.3h-.3c.3 0-.3.3-.4.5q-1 .1-1.6.7v-.1c-.5.4-1.1.3-1.7.5q-.2-.1-.4 0l-.9.6-1.3.3q-1.9.9-3.9 1.6l-.1-.2c-1.2.8-3 1-4 1.6v-.4q-.7.2-.6.5c-.4 0-.9.5-1.2.3q-.4.1-.7.4-.9.1-1.6.5h.1l-.1-.2c-.2.2-1 .2-.6.5-.8 0-1.6.7-2.4.7l-.2.2q-1 .2-1.8.6 0-.2-.2-.2v.3q-1.6.6-3.2.8-2.4 1-5 1.7c-.4.4-1.3.1-1.6.6-.1 0-.5.2-.4 0-.4.3-1.3.2-1.8.6h.1l-1.8.5.1-.2c-.3 0-.5.5-.7.2q-.2.1 0 .1-2.3.6-4.4 1.6c-1.1.2-.2-.5-1 0v.1c-.3.2-.7-.2-.9 0v.3q-1 0-1.4.3v-.1c-.5.5-1.3.5-1.6 1L46.5 60q-4.7 1.6-9.7 3c-.8 0-.9 0-1.7.4 0 .2-.6.1-.6.4L31 65q.2-.2 0-.2l-.2.2h-.1q-.3.1-.1.2c-3 1.2-6.3 1.7-9.3 2.8q-1.3.3-2.6.9-3.5.5-7 1.8s.2-.7 1.1-1.1M54.3 55h-.2zM47 58v.1zm-22.7 47c1-1 2.9-1 4.1-1.8q.1.2.4.2c1.2-.9 3.4-1.3 5.1-1.5v.1l1-.5q-.2 0 0 .2c0-.2.5-.3.6-.5l.4.2.1-.3c.4-.6 1.3-.3 2-.8q-.2 0 0 .1 1.6-.8 3.7-1.5v.2q.1-.3.7-.5c.2.2.5-.4 1-.4.2-.3.4 0 .6-.3l.2.1c0-.3.5 0 .7-.2l.6-.2q.8-.2.7-.4c.3.1-.4.3 0 .4q2.3-1 4.9-1.8l.4.1q.4-.1.7-.4h.3c.3 0 .2-.3.6-.3q-.2.2 0 .3.3-.4.8-.6v.2l1-.4-.1.2c.5 0 0-.4.5-.4v.2q.6-.5 1.4-.8v.1l1.4-.5c.2 0 0 .3.5.1-.1-.2.8-.4.4-.6l1.3-.3c-.1.1.3.2 0 .3l.3.1q-.2 0-.1.2l.8-.4q.2-.4 1-.8c-.3.2.2.2 0 .3l.6-.7h.3l.1-.2s.7-.3.8 0c.2 0-.2.1 0 .1q.3 0 .6-.3.6 0 .3-.3l-.1.1q.3-.3.8-.4l-.1.2q.5-.5 1.2-.8c0-.1 0 .3-.2.2.7 0 1.2-.6 1.8-.5l-.1-.1h.5l.4-.3v.1c.2-.2 1.2-.7 1.9-.7l.4-.4v.1h.6c.2-.3-1.2.6-.8.3.2 0 .5-.5.5-.2q.4-.3.8-.3v.2l.5-.3.2-.1c0-.2.4-.1.2-.3 0 .2.5-.2.6 0v.3l.3-.5h.1c0-.2.4 0 .6-.3l1.2-.2q.3-.3.8-.4l-.1.1.4-.1h.7q.3-.2.1-.4c.4.2.8-.4 1.2-.3-.1.1-.4.3-.1.3.3.2.4-.4.9-.4l-.2-.2c.3.1.6-.3.6 0 .1-.2.6-.1.4-.4.8 0 1.7-.7 2.2-.3q.3-.1.3-.3l-.3.1v-.1q.5 0 .4.2c.5 0 .3-.6 1-.7q0 .2.2 0l.3-.2q.5 0 .3.3.4 0 .6-.3l.3.1c-.3 0 .1-.1.2-.2h.3l-.4-.1.3-.3q.2.2.6 0 .3-.1.2-.2h.2l-.2.1q0 .2.4 0c.1-.1-.2-.3.2-.3l-.1.2h.4V83c0-.1.5-.1.5-.4h.6q.4 0 .6-.3.3 0 .5-.2c.3 0 .3.6.5.3q.5-.3.3-.5l1.6-.5.1-.2c.8-.1 1.6-.7 2.3-.6v.3l.3-.2q0-.2-.3-.2l1.4-.4v-.2q.1.4.7 0v.1h.2l.3-.2v.1q.4-.4 1-.5l.3.2q.2-.2 0-.3h1a7 7 0 0 1 3-1.4v.1c.3 0 0-.2.2-.2l.2.4q.5-.2.6-.5c0-.1-.2.2-.2 0 0 0 .6 0 .6-.3v.3l.2-.2c.4.2-.5.7 0 .9l.1-.1c.3.1-.4.4.1.3q.4-.4 0-.6c.5-.2.1-.5.7-.7.1.1-.4.2-.3.3q.4 0 .7-.2-.3-.1 0-.4c.3 0 0 .3.3.2 0-.2.3-.4 0-.4 0-.3.4 0 .5-.3.2.2-.2.6.2.5 0-.1.5-.4.2-.6q.2 0 .1.3c.3 0 .5-.5.7-.2v-.2l.3.1c.2 0 .6-.4.7-.1 0 0 .5-.2.3-.4-.4 0-.3.3-.6 0q.4.2.6-.2l.4-.2v.2l.1-.2c.4-.2.2.2.6 0l-.3.3h.4l.2-.6h.3l-.2.2q0 .2.5 0 .5-.1 0-.3h.4c.3 0-.1 0 .1-.2l.9.1-.2.4.2-.1c-.2.3.1.1 0 .4q.3 0 .5-.3c-.5-.2.3-.6 0-.8.6-.3.6.6 1 0q.1-.3-.2-.2c.3-.1.1-.4.6-.4-.3.2.4.2 0 .5h-.3c.2.1 0 .4.4.3q.4-.1.4-.4c0-.2-.3.1-.2 0 .4-.3.5 0 .6-.4q-.4.1-.4-.2l.3-.2v.2c.5 0 0-.3.5-.4l.3.2c0 .2-.7.1-.5.4l.7-.3-.2.1s.3.4.7 0q.1-.2 0-.2l1-.5c0 .2.5-.2.2.2-.2-.1-1 .1-1 .4.2.2-.4 0-.4.4q.5 0 .6.3l.2-.1-.2-.4q.8-.1 1-.5.3 0 0 .3 1-.4 1.7-.5c-.4-.2.5-.3.2-.5q-.5 0-.5-.2l.2.1c.1-.2.4.2.5-.1-.4.2 0 .3 0 .6.3-.3 0 .1.4 0l1-.6q1-.2 1.8-.6c.2 0 .2.4.4.3.3 0-.3-.2.2-.2 0 0 .8 0 .8-.4v.3l.2-.1v.2q.4 0 .9-.3l-.3-.1c.5-.3.9-.2 1.3-.5v.2l.3-.2q.1.3.4 0l-.6.7c-.3 0 .1-.3 0-.4q-.4-.1-.7.2l.3-.1q.1.2-.2.4h.2l-.6.3c.2-.2-.1-.1 0-.2q0 .3-.6.4c-.4-.1-.7.4-1.1.4q.1-.3.5-.6h-.6q.1.4-.4.7v-.1c-.4.2-.3.4-.7.5l-2 .5v-.2c-.2.4-.9.5-1.2.7-.7.1-1.4.6-1.8.5q-1.6.8-3.4 1.2l.2-.2c-.2.2-.2-.1-.4 0 .3 0-.2.3-.3.5q-1 .1-1.7.7v-.1c-.4.4-1 .3-1.7.5q0-.2-.4 0l-.8.6-1.4.2c-1.2.8-2.6 1-3.8 1.7l-.2-.2c-1.2.8-3 1-4 1.5v-.3q-.6.2-.6.5c-.4 0-.8.5-1.1.3q-.4.1-.7.4c-.8.1-1 .2-1.7.5h.2q0-.2-.2-.2c-.2.2-1 .2-.6.5-.8 0-1.6.7-2.4.7l-.1.2q-1.1.2-1.9.6.2-.2-.1-.2l-.1.3c-1 .5-2.2.4-3.1.8q-2.5 1-5 1.7c-.4.4-1.3 0-1.6.6q-.4.2-.5 0c-.3.3-1.2.2-1.8.6h.2l-1.9.5.2-.2c-.3 0-.5.5-.8.2v.1q-2.2.7-4.3 1.6c-1.2.2-.3-.5-1 0l-.1.1c-.3.2-.6-.2-.8 0 .2.2-.1.2 0 .3-.8.1-1 0-1.4.3V91c-.5.5-1.3.5-1.7 1L58 95.5q-4.8 1.7-9.7 3c-.9 0-1 0-1.7.4 0 .2-.6.1-.6.4l-3.6 1.2q.3-.2 0-.3l-.2.3q-.3.1-.2.2c-3 1.2-6.2 1.7-9.3 2.8q-1.3.2-2.5.9-3.6.5-7 1.8s.1-.7 1-1.1m34.2-11.8.1.2z"/></svg>