<svg xmlns="http://www.w3.org/2000/svg" width="214" height="58" fill="none" viewBox="0 0 214 58"><mask id="a" width="26" height="44" x="7" y="7" maskUnits="userSpaceOnUse" style="mask-type:luminance"><path fill="#fff" d="M32.415 7.598H7.598v42.63h24.817z"/></mask><g fill="#ed2da0" mask="url(#a)"><path d="m24.984 8.4.005.007a2.015 2.015 0 0 1-.4 2.815L9.094 22.886a.286.286 0 0 1-.4-.057l-.522-.697a2.88 2.88 0 0 1 .57-4.02L22.178 7.999a2.003 2.003 0 0 1 2.807.4M15.067 49.427l-.005-.007a2.014 2.014 0 0 1 .4-2.814L30.918 34.97a.286.286 0 0 1 .4.057l.522.696a2.88 2.88 0 0 1-.57 4.02L17.874 49.829a2.003 2.003 0 0 1-2.808-.4M17.003 33.448l2.758-2.073a.29.29 0 0 0 .057-.402l-5.9-7.89a.286.286 0 0 0-.401-.057l-2.758 2.072a.29.29 0 0 0-.057.402l5.9 7.89a.286.286 0 0 0 .401.058M26.502 34.816l2.756-2.075a.29.29 0 0 0 .057-.402l-5.907-7.887a.286.286 0 0 0-.4-.058L20.25 26.47a.29.29 0 0 0-.057.402l5.907 7.887a.286.286 0 0 0 .401.058M29.035 13.86l.006.008a2.015 2.015 0 0 1-.4 2.814l-9.967 7.505a.377.377 0 0 1-.528-.075l-1.961-2.617a.38.38 0 0 1 .075-.53l9.967-7.505a2.003 2.003 0 0 1 2.808.4M10.974 43.967l-.006-.008a2.014 2.014 0 0 1 .4-2.814l9.966-7.505a.377.377 0 0 1 .53.075l1.96 2.617a.38.38 0 0 1-.076.53l-9.967 7.505a2.003 2.003 0 0 1-2.807-.4"/></g><mask id="b" width="166" height="37" x="41" y="12" maskUnits="userSpaceOnUse" style="mask-type:luminance"><path fill="#fff" d="M206.365 12.24H41.066v35.794h165.299z"/></mask><g fill="#000" mask="url(#b)"><path d="M45.406 38.295q-1.953-.886-3.092-2.406t-1.248-3.366h5.1q.143 1.16 1.139 1.918.994.76 2.476.76c.989 0 1.718-.193 2.26-.579q.814-.579.814-1.484 0-.977-.995-1.465-.994-.489-3.163-1.068-2.243-.544-3.67-1.122a6.37 6.37 0 0 1-2.46-1.774q-1.03-1.195-1.03-3.22 0-1.665.958-3.04.959-1.375 2.748-2.172 1.79-.796 4.213-.796 3.58 0 5.714 1.791 2.133 1.792 2.35 4.832h-4.845q-.108-1.194-.994-1.9-.887-.706-2.37-.706-1.373 0-2.115.507-.741.507-.741 1.412 0 1.013 1.012 1.538 1.012.524 3.147 1.067 2.17.544 3.58 1.123 1.41.58 2.44 1.79 1.03 1.214 1.067 3.204 0 1.737-.958 3.112-.959 1.376-2.748 2.153t-4.177.778c-1.591 0-3.11-.296-4.412-.887M67.13 23.298v9.7q0 1.013.488 1.465.489.453 1.645.452h2.351v4.27h-3.182q-6.4 0-6.4-6.224v-9.663h-2.387v-4.162h2.386v-4.958h5.099v4.958h4.484v4.162zM78.376 37.897q-2.315-1.284-3.634-3.637-1.32-2.352-1.32-5.429 0-3.076 1.356-5.428a9.43 9.43 0 0 1 3.706-3.637q2.35-1.285 5.244-1.285t5.243 1.285a9.43 9.43 0 0 1 3.707 3.637q1.356 2.353 1.356 5.428 0 3.076-1.392 5.429a9.64 9.64 0 0 1-3.761 3.637q-2.37 1.285-5.297 1.285c-1.953 0-3.665-.428-5.208-1.285m7.793-3.8q1.21-.67 1.935-2.008.722-1.34.722-3.258 0-2.858-1.5-4.397-1.5-1.538-3.67-1.538t-3.635 1.538q-1.464 1.54-1.464 4.397 0 2.86 1.428 4.397t3.598 1.538a5.26 5.26 0 0 0 2.586-.67zM104.838 19.798q1.573-.904 3.598-.904v5.32h-1.338q-2.386 0-3.598 1.122t-1.211 3.908v9.989h-5.062v-20.05h5.062v3.113a7.1 7.1 0 0 1 2.549-2.498M131.128 18.713l-12.403 29.531h-5.388l4.339-9.988-8.028-19.544h5.678l5.171 14.006 5.243-14.006h5.389zM138.559 12.452v26.78h-5.063v-26.78zM141.942 23.696q1.21-2.353 3.29-3.62t4.647-1.266q2.242 0 3.924.904 1.682.905 2.694 2.28v-2.859h5.098v20.05h-5.098v-2.931q-.976 1.41-2.694 2.334-1.719.923-3.96.923-2.532 0-4.611-1.303-2.08-1.302-3.29-3.673-1.212-2.37-1.212-5.447c0-2.05.404-3.824 1.212-5.392m13.832 2.298q-.724-1.32-1.953-2.027a5.2 5.2 0 0 0-2.64-.705q-1.41 0-2.603.687t-1.935 2.009q-.741 1.32-.741 3.13t.741 3.167q.74 1.358 1.953 2.081a4.95 4.95 0 0 0 2.585.724c.917 0 1.82-.235 2.64-.706q1.229-.705 1.952-2.027.723-1.32.723-3.166t-.723-3.167zM182.012 21.155q2.206 2.263 2.206 6.316v11.762h-5.063V28.158q0-2.388-1.193-3.673t-3.255-1.285c-1.374 0-2.501.43-3.308 1.285q-1.213 1.285-1.212 3.673v11.075h-5.062v-20.05h5.062v2.498q1.012-1.303 2.586-2.046 1.573-.741 3.453-.741 3.58 0 5.786 2.261M206.222 30.352h-14.646q.18 2.171 1.519 3.402 1.338 1.23 3.291 1.23 2.82 0 4.014-2.425h5.46q-.867 2.896-3.327 4.76t-6.038 1.863q-2.894 0-5.19-1.284t-3.58-3.637-1.284-5.43c0-2.05.422-3.895 1.266-5.464q1.266-2.352 3.544-3.62 2.278-1.266 5.244-1.266c1.977 0 3.609.41 5.117 1.23a8.66 8.66 0 0 1 3.507 3.493q1.248 2.262 1.248 5.193 0 1.086-.145 1.955m-5.1-3.402q-.036-1.955-1.41-3.131-1.375-1.176-3.363-1.176-1.881 0-3.164 1.14t-1.573 3.167z"/></g></svg>