<svg xmlns="http://www.w3.org/2000/svg" width="31" height="59" fill="none" viewBox="0 0 31 59"><path fill="#82c6dd" d="M30.6 26.9c0-.8-.5-.3-.8-.2l-1.6-.3c-.4-.1-1-.8-1 .4a8 8 0 0 0-4-.1v-.2c-1.8-.2-3.7-.7-5.5-.1h-.2q-.2-1-.8-.3c-1 .4-1.8-.3-2.7-.1q-1.8.1-3.4-.5l-.5.2-1-.3c-.5-.1 0 .3 0 .4H7.4c-.5-.8-1-.6-1.6-.3q-1 .2-1.9-.6l.9-.7.5-.9q0-.6.5-.5c.3-.6 1.4-.6 1.2-1.5h.5c.5.1.4-.5.7-.6q1 .6.8-.5h-.5l-.2.3.2-.3H9c.3-.5.6 0 .8 0q.6.2.6-.5l.6-.4c.5-.5-.2-.3-.3-.4 0-.5 1 0 .7-.8q.3 0 .4-.3.5.1.5-.4c.7 0 1.2 0 1.3-.9l.3-.2q-.1.5.4.7c.3-.4-.1-1.2.7-1.3h.2c.7.5.6-.2.8-.4 0-.5.9-.6.6-1.2.4-.1 1 .4 1-.4l.3-.3q.4 0 .6-.4c.8-.2 1-1 1.6-1.4l1-.8q1.5.4 1.7-1.6h.5c.6.1.4-.6.8-.7q.6 0 .8-.6 1 .2 1-.8V7c.3-.4 1-.1 1-.8l.4-.5c.7-.4.8-1.5 2.2-1l-1-.9c-.2-.3.2-.8-.3-1.1 0-.8-.4-.4-.8-.4q-1-.3-1.1.9c-1-.2-1.1.8-1.7 1.2q-2.2 1.5-4.2 3.2-1.2.4-1.8 1.4c-1.1 0-1.4 1.4-2.5 1.5q-1 0-1 1-.6-.1-.6.5c-.4.3-1 .1-1 .9-.6 0-.6.6-1 .7q-1.8 1-3.3 2.4-1 0-.9 1l-1.2.5q-2.4 2-4.9 3.8l-.7-.7c.1-.4.8-.7.2-1.3q.6-1.3.1-2.6.7-.2.5-.9l.4-3.7q.5-.5 0-.8c-.2-1 .6-2 .3-3 .4-.4-.2-.8-.1-1 .8-1.4-.1-3 .3-4.4 0-.2.4-.5 0-.8L3 1.5C3 .9 3.2.4 2.4.1a1 1 0 0 0-1 .3c0 1-1 1.6-.7 2.7q.4.5 0 1c0 .5-.4 1-.1 1.4L.5 7.4c-.4.7-.9 1.4 0 2-1 1.2-.6 2.6-.7 3.9q-.3.1-.2.5l-.1.5c-.7.4 0 .7 0 1.1-.6.8-.3 1.8-.3 2.7q-.6 1.2-.3 2.7-.6 1.3-1.2 0 0-.3-.4-.4.2-.8-.7-.8 0-.5-.2-.8-.3.3-.4.8 0-.5.4-.8-.7 0-.9.6.2-.6.9-.6l-.6-.8c-.3-1.8-2-2.6-2.5-4.2-.7-.3-.5-1.3-1-1.7l-.6-1-.2-.2q0-.3-.3-.5H-9c-.1-.4.2-1-.5-1.2.2-.8-.6-1.2-.9-1.8-.8-1.3-1.1-2.9-2.4-3.9q-.2-.6-.8-.5-.6-.7-.8 0c0 .5-.4.9 0 1.3-.6.9-.1 1.5.4 2.2-.5 1 .5 1.5.6 2.3l.4-.1v.2c.1.5 0 1.1.6 1.4q0 .7.7 1 0 .4.2.7v.2l-.2.2q0 .6.7.6c-.5 1.1.5 1.4 1 2 .6.4.4 1.4 1.3 1.6l.3.5q-.7.7.2 1c.2.7 1.2.7 1.3 1.4q-.4.3-.2.5c.8.7 1 1.9 2 2.3 0 .4-.3.8.2 1-.1.6.5.5.6.8q-.5.4-1.1.3c-.3-.4-.6-.8-1-.2-.4 0-.7-.3-1.1-.1-.4-.5-.7 0-1 .1-.6 0-1.1-.7-1.7-.2l-.5.3V24c-.6-1-1.4-.3-2.2-.3l-4.3-.4c-.7-.5-1.3 0-2-.1l-.4-.2q-1.6-.5-3.4-.5c-.4-.5-.9 0-1.3-.2q-.6 0-.8-.3c-.1-.2-.7-.2-.8-.2l-1.7-.1c-.8 0-2.6-.1-2.7 1.1v.2h.2c0 .2.7.5.7.5q.2.5.6.2c.4 0 .5.7 1 .6.4.2.6-.4 1-.1q.2.3.6.1.4.4 1 .4l.3.2 9.7 1.4q1 .6 2.1 0 2.4.6 5 .4c.3.5.9.1 1.3.2h.3c.4.4.8-.3 1.3 0l.5.2q0 .4-.4.7C-6.3 29-7.8 30-8.7 31.5c-1 .3-1.3 1.4-2 2q-1.2.9-2 2-2.4 2.6-5 5l-1 .8c-.4.7-1.5.8-1.7 1.8q-1.3.7-2.3 1.8-1.1 1.4-2.7 2.4a6 6 0 0 0-2.2 2.4c-.1 1.4.3 1.7 2.3 1.7q-.1.6.5.3l1.4-1.6q.7 0 .5-.6l.6-.5c.9-.2 1-1.3 1.9-1.5.5-.2 1.3-.2.8-1.1l.2-.1c.8-.4 1.7-.6 1.7-1.8q.6 0 .8-.7.9-.2 1.3-.9c.2 0 .5.3.5-.2l.3-.4q1-.2 1.4-1.1l.5-.3q.8 0 .8-.9c.2-.3 1 0 .8-.8.3-.1.5.4.7 0q.1-.1-.2-.5l.7-.4c-.8-.9.5-.3.4-.7q.7.1 1-.3l-.4-.2c0-.6.8-.5.8-1 .4-.2.2-.6.3-.9.4-.3 1.3 0 1.5-.8l.3-.2.3-.2-.3-.9.3.9c.9 0 0-.6.3-.9q.7.1 1-.5l1.1-1.6c.5.4 1.1-1 1.6.1v.5c.3.5-1 .8 0 1.4v1.3l-.3 2q-.2 1 .7 1.3l-.3.5q-.6.4-.4 1.2v3q-.3.3-.2.6c0 .4-.9.5-.3 1l.2 2-.5.6c.8 1-.2 1.7 0 2.6-.6.3 0 .7-.1 1l-.4 3.5c-1.2.6-.5 1.6-.6 2.4v1.7c0 .4-.3 1 .3 1.2.6.3.9-.3 1.2-.6l1.2-.2c.5-.2.5-.2.3-1l.2-1.8c0-.2.8-.3.3-.8-.2-.4-.5-.8.2-1q.2-.1-.2-.3c0-1.3.8-2.5.6-3.8.4-.5 0-1 0-1.6-.4-.5 1.2-.9.2-1.4V45h.2c.6-.6.1-1.3.3-2l.1-1v-.6l.2-1.2c.5-.6 0-.6-.4-.7a2 2 0 0 0 .4-1.8q.3-1.2.1-2.4.5-.9-.4-1.2c0-.4 1 0 .5-.7q-.1-.7.5-.5c.2.2-.1.6.3.8.3.2-.7.9.2.8q.3 0 .5.3c.2.5 0 1.3.8 1.6-.5 1.1.7 1 1 1.6.2.3-.2.8.3 1q.6 0 1 .4 0 .7.5 1l.6 2q.2 1 1.1 1.4c.4.2.2 1.1 1.1.8.4-.2.4.4.5.8q-.6.5 0 .6c.7 0 .6.4.7.8q-.2 1 .9 1c.3.4-.5 1 .1 1.2q.3.5.8.5c.2.4-.4.8.2 1q.3.1.3-.2v-.1h.2c0 .9 1.5 1.3 1 2.5q-.1.1.1.2c.9.8 1.3 2 2.3 2.7q-.6 1.6 1 2.5c.9.5 1 0 1-.6h.3c1.3-.2 1.2-1 1-2 0-1.3-1.2-1.9-1.7-2.9-.3-1.1-1.4-1.8-1.7-3q0-.5-.5-.8L13.8 46q-.5-1.3-1.5-2.5-2-1.8-3.2-4.3-2.3-3.5-4.4-7.2c-.6-.7-.7-1.8-1.5-2.3l-.6-1c0-1.2.7-.2 1.1-.3h.5l4.2.1c.5.5 1.1.2 1.6.3q3.3 0 6.4.2 3.6.4 7 .4.8 0 1.3-.2c1.7.8 3.4.4 5.1.3 1.2-.1 1.6-1.6.8-2.6m-9.1-16.6v.2zM5.2 22.5h-.3zm-14.8-10h.3zm5 9.3-.7-1.1zm-19.9 1.6-.1-.5q.3.3.1.5m3 24.3q.2 0 .3-.4 0 .3-.3.4m1-.5v-.5zm2.2-3.2h-.8v.1-.3h.1zm3.5-3.1-.5.8zm12.2-12.4q0-.2.3-.3-.2 0-.3.3m13.8 18.6.5.3q.4.2.3.5l.6-.1-.6.1q0-.3-.3-.5-.2 0-.5-.3m-1.3-1.6q.5.1.7.6-.2-.5-.7-.6m-2.3-4.3L8 41zm-2.8-3.4q.3 0 .7.3zm-4.2 5v.1M1.1 9 1 7.5zh1zm1.6 16.4-.2-.5zm3.5.5.6.1zm.7.2"/></svg>