<svg xmlns="http://www.w3.org/2000/svg" width="159" height="116" fill="none" viewBox="0 0 159 116"><path fill="#fc5b70" d="M94.2 44.5c2.6-2 2.6-2 5-10.5-2.6 3-5.7 5.8-5 10.5M50.3-33c-.8-.3-2.3.3-2.6 1.8-.3 1.2-1.8 1.9-1.6 3.3-1 2-2.2 3.8-2.6 6l-.2.5c-2.3 4.4-5 8.7-6.5 13.5 0 1-1.4 1.7-.6 2.9 0 .5-1.5.3-.6 1.3C32.3 1 31 6.6 28.8 11.8a10 10 0 0 0-2.5 6.7 7 7 0 0 0-2.2 6c-.4.2-1.2.2-1.3 1-.5 2-2.3 3.7-2.3 6-.5 1.4-2.4 2.4-1 4.2-.3.8-1.7 1.7-.7 2.2 1.4.6 1.1-1.2 1.5-2 1.4-1.1.9-2.7 1-4.2.3-1 2.8-.8 1.9-2.8 2.2-2.2 2.9-5.1 3.7-8l.7-2c1.2-1.5 1.6-3.3 2.1-5.1 2.7-.8 1.9-3.4 2.7-5.2 2-4.5 5-8.6 6.1-13.5 2-.8.4-2 .4-3q1.4-.3 1.4-1.7 2.1-1.4 1.6-4c.2-1.4 2.4-2 1.6-4q1.7-.8.9-2.6l1-1.8c1.8-.5 1.1-2.2 1.7-3.2l.7-1.3c1.4-1 1.5-2.6 2-4 .4-.7 2-1.8.5-2.5m78.2 95.8c-1.8 2.5-4 4.9-3.3 8.2 1.7-2.5 3.3-5 3.3-8.2m4.8-9.8c.2-.5.6-1.4-.5-1.6q-1.4-.2-1.5 1l-1.6 6.4q-1.1 1.4-1 3.2c2-.4 1-2 1.7-2.9 1.8-1.6 2-4 2.9-6.1M42.2-40.6c-.5-.8-.3-2.4-1.5-2.4-1.5 0-.9 1.5-1.2 2.3l-1 3-1.8 4v1.3c-2 2.6-2.4 6-4 9-2 .6.2 2.7-1.2 3.6-1.9 2.8-3.6 5.6-3 9.2-2.7 1-2 4-3.5 5.6-.4 1.8-3 2.9-1.8 5.2C24.8-.6 25-3 27.2-3c.4 0 .8-.6.4-1-.3-.4-1-.3-1.5-.5.5-1.6 3.2-2 2.7-4.2 1-.3 1-1.2 1.2-2-.1-1.4 2.9-2 1-4 1-.5 2-1 1.6-2.5l.5-1.3c1-1.2.5-3.3 2.6-3.6l-.5-1.2c.6-.4 1.5-.5 1.1-1.5.6-2.1 2.2-3.9 1.7-6.3l.3-.6 1.2-3.3c1-1 1-2.2 1.4-3.3 1.1-.4 2.3-.6 1.3-2.3m18.7 51.2q.8-.9.5-2.1c.4-1 1.6-1.7.6-2.8-.3-.4-.8 0-1.2.2-1.3.8-.3 1.6 0 2.4-.7.7-4-.4-1.8 2.4-2 1.3-.2 4-2 5.3-.7 1.2-1.5 2.5-.2 4.1 0-1.7 1.3-2.8 1.7-4.2.5-1.9 2.4-3.2 2.4-5.3M121.7 80q-.3-.5-1.2 0c-2.3 1-.3 2.8-.8 4.3v.3c-1.5.1-2.3 2.7-1.5 4.8 1-1.4 2.2-2.7 2-4.6 1-1.4 2.2-2.8 1.5-4.7m2.1-6.7q-1.6.5-2.1 2.2l1.5-.5-.8 3.7q1.8-2.3 2.6-4.9c.4-1.6-.4-1.1-1.2-.5m12.5-30.1q-1.3 3.6-3 7 3-2.7 3-7M54.9 22c-2.2-.3-1.7 2.8-2.6 4.3q-1.2 1.4-.3 3.2c1.2-.7 1.4-1.7 1.6-2.7.4-1.7 2.4-4.5 1.3-4.7M115.4 96c2.2-1.6 1.8-3.9 2.2-6-1.2 1.8-2.4 3.5-2.2 6M18.7 38.6c-2.2 1.6-1.8 4-3.1 5.4-.5 1.2-1.4 2.3 0 3.6.6-1 1.3-1.9.8-3.1a9 9 0 0 0 2.3-6m112.4-24.9c2.3-1.1 1.5-3.4 2.1-5.3-2.7 1-1.8 3.4-2 5.3m-25.7 2.5a8 8 0 0 0 2.7-4.2q.1-1.1-.9-1.3l-.8.4c1.2 2-1.5 3-1 5.1M1 54c1-2.1 1.1-2.7.9-4-.5 1.4-1.3 2.5-1 4M21.2 5.3c-.1-.2-1.2 0-1.3.7s-.3 1.6.4 2c.2.2 1-.4 1.5-.7q-.1-1.2-.6-2m114.7-1.9c-2.2 1.5-2.4 3.3-2.7 5 1.8-1 1.7-3 2.7-5M48.6 32.9q.2 1.6 1.5 1.9c.1 0 .8-1 .6-1.4-.3-.9-1.3-.4-2.1-.5M13.1 20c.7 2-1 2.8 0 4.5.7-1.3 1.7-2.3 0-4.5M63.3 2.3c2-.2 2-1.6 2.5-2.6L64.5-1z"/><path fill="#fc5b70" d="M67.5-6.6c-2.3.1-.2 2-1 2.6l-2 3 1.3.7c.9-1.8 2.4-3.2 2.4-5.4L69.7-9c.4-1-.3-1-1-.8 0 1.2 0 2.5-1.2 3.3M17.6 13q-.9-.6-1.4.4-.2.9.5 1 1 .3 1.4-.7-.1-.4-.5-.8m112.2 3.4c1.4-.5 1.5-1.5 1.3-2.7q-1.7.8-1.3 2.7m-81 20.3q-1.5 0-1.6 1.4c-.8 1-2.4 2-1 3 .8.8 1.3-1 1.9-1.7 1.2-.7 0-1.9.7-2.7m-4.7 8.6c-2.2.7-1.7 3-2.4 4.4-.7 1.7-2.1 3.2-.8 5.8l1.8-4.6 1.8-4.6c.5-1.3 1.5-2.3 1.2-3.9-1.5.6-1 2-1.6 3m71.3 6.1c1.8-.5 1-2 1.4-3-1.5.5-1.6 1.7-1.4 3M142 28.7c-2.3.8-.5 2.4-.6 3.7l.8-2.2q1.3-.2 1-1.4c-.2-.8-.8-.5-1.2-.1m-40.9-2.2c-.2.4-.4 1 .3 1q.4.1.7-.2.4-.9-.3-1.2-.3 0-.7.4M7.6 36.8a.7.7 0 0 0-1.2.3l.2 1.3 1.2-.5c.6-.4 0-.8-.2-1m110.1 8.9c-1.1.8-.3 1.9-.9 2.6q1.8-.7 1-2.6M88.5 59.6q-.8-.4-1 .4l.6.9.8-.5zM8.2 34.4c.6.2.6-.4.9-.8l-.2-.8-1 .8zM109.4 8.6l-.1-1-1.1.6v1zm29.5 27.9q-1-.1-1.2.9l.3.9 1.2-.9q.3-.8-.3-.9M12 25.1q-.6.6-.7 1 0 .6.3.8.6.3.8-.3z"/></svg>