<svg width="61" height="141" viewBox="0 0 61 141" fill="none" xmlns="http://www.w3.org/2000/svg">
<path d="M35.8559 23.0217C35.6825 22.6474 35.7422 23.2903 35.6929 22.7933C35.7931 22.8192 35.8811 22.8736 35.8559 23.0217Z" fill="#FC6B7E"/>
<path d="M69.573 127.685C68.6273 126.605 68.6385 124.776 67.8498 123.513C67.7748 123.36 68.1588 123.459 67.9701 123.119C67.1203 121.922 66.6918 119.743 66.4903 118.016L66.6053 118.087C66.5658 117.758 66.1673 117.471 66.1001 117.131C66.1547 117.11 66.2129 117.21 66.264 117.109C66.0703 117.081 65.9955 116.543 65.8259 116.444C65.8495 116.293 65.9861 116.263 66.0052 116.072L65.7542 115.946C65.133 115.572 65.3767 114.67 64.9129 114.035C64.9682 114.055 65.0252 114.114 65.0497 114.044C64.4056 112.991 63.9951 111.547 63.4812 110.303C63.5648 110.332 63.7029 110.34 63.7541 110.24C63.5334 110.242 63.3549 109.864 63.2051 109.535C63.3616 109.314 62.827 109.009 62.8113 108.571L62.8683 108.591C62.5565 108.364 62.8503 108.11 62.5137 107.953L62.6151 107.713C62.2824 107.677 62.6267 107.235 62.4002 107.038L62.3429 107.065C62.1974 106.857 62.3039 106.689 62.1862 106.491L62.2137 106.46C61.9746 105.983 62.0419 105.639 61.8197 105.724C61.9437 105.49 62.0595 106.184 62.2342 105.822C61.4669 104.246 60.9619 102.53 60.4205 100.869C60.4505 100.651 60.4391 100.522 60.5111 100.452C60.4118 100.301 60.2674 99.8396 60.1029 99.7262C60.1251 99.7804 60.184 99.5816 60.1669 99.4901C60.1547 99.1599 59.811 99.2405 59.8052 98.8757C59.9084 98.9881 59.9958 99.0095 60.0661 98.9379C59.7978 98.7116 59.7035 98.3242 59.5379 98.0079C59.5929 98.0476 59.6418 98.1213 59.7088 98.0856C59.3901 97.7844 59.5353 97.404 59.3048 97.124L59.4746 97.202C59.4664 96.6339 59.1517 97.1379 59.1011 96.6609C59.1772 96.7548 59.2162 96.7003 59.2756 96.7026C58.9027 96.3631 58.7634 95.6638 58.5484 95.2736C58.5745 95.2926 58.6078 95.2748 58.6078 95.2748C58.4316 94.8314 58.3526 94.3343 58.0877 93.8695C58.0875 93.6694 58.4265 93.8256 58.2233 93.3616C57.9661 93.4644 57.8519 92.583 57.6464 92.9618C57.5572 92.5384 57.4461 91.8589 57.2687 91.6149C57.4284 91.7665 57.5251 91.3115 57.6578 91.6443L57.7335 91.3356C57.8534 91.339 57.7826 91.6121 57.8918 91.4869C57.8263 91.3192 57.5612 90.8561 57.5547 90.6897C57.2912 90.4262 56.8973 90.2331 56.6985 89.7321C56.879 89.9396 56.9437 89.5015 57.042 89.6507L56.3079 89.0996C56.2404 88.9334 56.5033 88.9954 56.3551 88.7716C56.2896 88.8073 56.2124 88.7138 56.1319 88.6569C56.141 88.5836 55.8376 87.9707 56.0721 87.8131C56.1498 87.7055 56.2166 88.0729 56.2473 87.8546C56.1427 87.5409 56.0503 87.5559 55.9446 87.2426L55.9774 87.2253C55.9484 87.0052 55.669 86.6491 55.5994 86.921C55.6376 87.0682 55.7371 86.8159 55.7312 87.054C55.5335 86.9565 55.3736 86.6047 55.2691 86.2914C55.3459 86.385 55.4104 86.3497 55.4976 86.3692C55.1574 86.0124 54.9486 85.5854 54.7111 85.1411C54.5855 85.1735 54.9916 85.2447 54.949 85.3351C54.9236 84.6752 54.3035 84.1647 54.3899 83.5809C54.4385 83.6562 54.2298 83.6819 54.2623 83.6651C54.1837 83.3688 54.3659 83.3244 54.2384 83.1561C54.3371 83.1034 54.128 82.9283 54.033 82.7432C53.9243 82.667 54.0675 82.6758 54.1342 82.8422C53.957 82.5989 53.444 81.5616 53.3932 80.8833C53.3277 80.9178 53.014 80.5787 52.9752 80.4321L53.1556 80.4363C53.2095 80.2731 52.9847 79.9564 53.1157 79.8875C52.8194 79.642 53.6681 81.0227 53.3804 80.6541C53.4807 80.5024 52.9346 80.1556 53.1843 80.1745C53.0845 79.8854 52.8113 79.663 52.873 79.3366C52.8729 79.4257 53.1733 79.4998 53.0864 79.2687C52.924 78.8655 52.9713 79.1762 52.8089 78.8589L52.6748 78.6704C52.5127 78.7072 52.5767 78.2944 52.4501 78.505C52.564 78.4123 52.176 77.9307 52.4513 77.8886L52.6754 77.8794C52.6025 77.706 52.364 77.6572 52.2273 77.5466C52.2392 77.517 52.2651 77.4566 52.3017 77.4549C51.9774 77.5281 52.1901 77.0204 51.878 76.8871C51.8663 76.4773 51.5799 75.9327 51.7195 75.6921C51.5309 75.4353 51.3323 75.2094 51.2941 74.859C51.3446 74.915 51.3829 75.0019 51.4568 74.9984C51.4829 74.7624 51.3833 74.7383 51.2714 74.5665C51.3321 74.5934 51.3221 74.0947 51.3599 73.8296C51.1733 73.574 51.0351 73.727 50.9218 73.732C51.1479 73.37 50.4604 72.9895 50.6361 72.5707C50.7114 72.6558 50.9236 72.9386 50.9249 72.6755C51.1504 72.3137 50.5247 72.2225 50.5377 71.7527L50.3133 71.9398C50.4126 71.7005 49.9633 71.3677 50.2401 71.3255C50.1013 71.2144 50.1643 70.8011 49.9282 70.9291C49.9169 70.1677 49.2555 69.2866 49.5683 68.7152C49.4942 68.6297 49.4572 68.368 49.3441 68.4605C49.2573 68.6707 49.5191 68.6584 49.443 68.7506C49.4065 68.6643 49.3315 68.6671 49.2937 68.6687C49.2817 68.4345 49.2451 68.2595 49.52 68.3954C49.5209 67.8662 48.9327 68.0396 48.8338 67.3988C48.9468 67.3928 48.9714 67.3336 48.8971 67.1606L48.6093 66.8799C48.5232 66.4723 48.7738 66.5797 48.9471 66.5127C48.8486 66.3119 48.774 66.0511 48.6111 65.9982L48.7503 65.6706C48.6498 65.9087 48.588 65.5315 48.5124 65.4465L48.588 65.5315C48.6497 65.4685 48.525 65.2399 48.4633 65.1242C48.3633 65.1883 48.3995 65.4514 48.4119 65.5974C48.2995 65.5146 48.2635 65.3417 48.1261 65.2286C48.3144 65.2197 48.1383 64.8455 48.1022 64.6722C48.0775 64.4679 47.8769 64.5062 47.865 64.4479C47.9533 64.4139 47.7785 64.1295 47.9526 64.2386C48.0024 64.2948 47.9135 64.4166 48.0275 64.4994C48.0534 64.351 48.2143 64.3154 48.0158 64.0896C47.8661 63.9194 47.6906 64.2506 47.6786 63.8401C47.7538 63.9249 47.8286 63.9206 47.9153 63.977L47.8915 63.5965L47.7292 63.6326C47.7539 63.5722 47.7778 63.6004 47.792 63.5716C47.5922 63.5209 47.5675 63.0516 47.3552 63.0323C47.2815 62.8599 47.3435 62.6236 47.3067 62.4483L47.3311 62.4764C47.3568 62.2394 47.2067 61.9842 47.0442 61.8444L47.0815 61.8425C47.0574 61.7256 46.9462 61.4664 46.8077 61.3548C46.8341 61.0304 47.3715 61.0662 47.0712 60.8146C46.9722 60.5264 46.6355 60.4535 46.5724 60.603C46.5104 60.0475 46.0619 59.5394 46.1503 58.9776C46.0625 58.9235 46.0377 58.9835 45.9506 58.8412C45.7655 58.0559 45.2415 57.2867 45.3543 56.5779C45.4923 56.7784 45.5166 56.5418 45.605 56.5081C45.405 56.3707 45.6805 56.241 45.4171 56.2534C45.2808 56.3179 45.2055 56.3219 45.2175 56.5561C44.9935 56.1246 44.7693 55.4313 44.8203 55.1345C44.7951 55.2826 44.7199 55.1987 44.6451 55.1126C44.8828 55.0725 44.8086 54.7247 44.6463 54.4961L44.4959 54.5049L44.5847 54.2936C44.5088 54.2099 44.2596 54.2795 44.311 53.9838C44.3602 53.9534 44.41 53.9213 44.4343 53.8622C44.2361 53.635 43.9243 53.3262 43.9487 53.0025L44.0751 52.7032C44.0133 52.5883 43.8255 52.4223 43.8366 52.656C43.8008 52.1293 43.7142 51.8097 43.8387 51.5986C43.141 50.8966 42.7298 49.6833 42.4447 48.6965L42.5577 48.6916C42.5699 48.398 42.3326 48.6143 42.3451 48.4078C42.4713 48.4608 42.4949 48.1385 42.683 48.3055C42.6711 47.895 42.3473 47.8801 42.2212 47.6511C42.0734 47.6583 42.3717 47.8191 42.1838 47.8278C42.1214 47.8019 42.122 47.2743 41.8972 47.2825C41.9474 47.1623 42.1229 47.1865 42.2225 47.2102L42.0485 47.0131C42.1985 46.655 42.6847 47.513 42.8858 47.1231L42.7852 46.9219C42.9356 46.6508 43.2095 47.4023 43.1116 46.848C42.9355 46.6504 42.5735 46.5501 42.5489 46.7848C42.3371 46.3244 41.9863 46.7217 41.8367 46.2009C41.9121 46.0209 41.999 46.6038 42.1368 46.4498C42.2243 46.1533 41.8865 45.9924 41.8749 45.7581C41.8745 46.0229 41.6009 45.8878 41.5133 45.7449C41.5254 45.4513 41.7632 45.8517 41.6641 45.474C41.5254 45.4513 41.3263 45.1388 41.3388 45.4604C41.0261 45.4134 41.2885 45.0498 41.0144 44.9156C41.1646 44.7333 41.5765 45.156 41.5392 44.7178C41.3768 44.8418 41.128 44.2948 40.9266 44.598C40.9276 44.421 41.0659 44.3579 41.2158 44.4381C41.254 44.1732 40.7033 43.992 41.0413 43.7994L40.8291 43.7817C40.8669 43.6905 40.8795 43.5734 40.9426 43.424C40.8806 43.2216 40.4802 42.8574 40.7679 42.7847C40.7179 42.7293 40.5822 42.2662 40.4442 42.5067C40.4176 42.8307 40.6929 42.7886 40.4807 43.0331C40.6308 42.7622 40.3197 42.6306 40.1944 42.4885L40.2947 42.4264C40.2204 42.3417 40.171 42.1079 40.0333 42.0848C40.1202 42.1396 40.1816 42.0767 40.1827 41.9896L39.9834 41.9403C39.7714 41.5675 40.2447 41.7522 40.0708 41.3788L40.2951 41.6323C40.2465 41.5765 40.3584 41.3941 40.247 41.2249C40.0718 41.2018 39.8467 41.1245 39.7088 41.1007C39.5718 40.903 39.8477 40.9475 39.6226 40.7822L39.8962 41.0056C39.9598 41.032 40.0848 40.7343 39.9863 40.4429C39.8735 40.273 39.5609 40.0535 39.5736 40.3754C39.5239 40.2293 39.5495 39.9939 39.6975 40.0746C39.5379 39.7588 39.5488 40.1708 39.3619 39.9142C39.4247 39.7641 39.4503 39.3524 39.5259 39.0844L39.8757 39.302L39.8134 39.102C40.1 39.2944 39.9267 38.9216 40.1873 38.9975C40.1774 38.8507 40.0509 38.7098 39.9529 38.5964C39.7389 39.105 39.3402 38.3024 39.0647 38.519C38.8036 38.0018 39.7151 37.9325 39.0418 37.5224C38.9905 37.6419 38.666 37.4505 38.8669 37.7647C38.792 37.4148 38.4788 37.6357 38.4791 37.1943C38.7034 37.449 38.6936 36.7743 39.018 37.1416C38.905 37.1465 39.0162 37.4056 39.0672 37.4619C39.1416 37.2834 39.3907 37.3889 39.2786 37.0421C39.1802 36.8405 39.0803 36.5523 38.931 36.6467C38.7549 36.7138 39.0547 36.964 38.8301 36.8869C38.6313 36.4852 38.8808 36.3271 38.5072 36.2548C38.6178 36.5134 38.4549 36.6396 38.331 36.6746L38.1561 36.3887L38.2944 36.4104C38.2195 35.8862 38.0312 36.3337 37.9072 35.8417L38.0693 35.5403C38.3085 35.5896 38.2058 36.2694 38.5076 36.0772C38.4202 35.7599 38.219 35.7104 38.2088 35.3877C38.2584 35.4444 38.2955 35.5313 38.3458 35.5865C38.3205 35.4708 38.7212 35.2181 38.321 34.8545C38.147 34.6563 38.1838 34.8317 38.0588 34.8658C37.8589 34.3758 37.6848 34.2667 37.561 33.9491C37.8235 33.9376 37.3991 33.3701 37.761 33.6475C37.6733 33.8576 37.9216 34.5795 38.2092 34.6831C38.435 34.408 38.2967 35.0903 38.6206 35.1052C38.4966 34.7 38.7839 34.6286 38.9469 34.5043C38.9235 34.3884 38.811 34.3052 38.7605 34.248C38.5718 34.257 38.6218 34.4019 38.4462 34.4681C38.3479 34.0034 38.111 33.6019 37.8627 33.4086C37.8998 33.2308 38.0879 33.2224 38.162 33.3947C37.9377 32.8765 37.7766 32.2973 37.6649 31.7728C37.4885 32.1922 37.4151 31.2277 37.2529 31.5276C37.2776 31.8203 37.1518 32.1193 36.9766 32.0103C36.94 31.8341 37.1022 31.9755 37.1395 31.8853C36.9151 31.7186 37.2779 31.4683 36.9657 31.3347C37.215 31.7936 37.3409 31.3186 37.5914 31.3365C37.3526 31.0247 37.7537 31.3004 37.6412 30.9525C37.4044 30.6409 37.168 30.2412 36.994 29.8663C37.0454 29.3086 36.5965 28.6239 36.4464 28.1889C36.4842 27.9237 36.7849 27.9977 36.7477 27.7353C36.6486 27.4456 36.5474 28.0393 36.5226 27.57L36.5859 27.5953C36.4854 27.4839 36.4999 26.749 36.0989 26.7372L36.4135 26.7828C36.4119 26.6946 36.3257 26.6396 36.2756 26.5823C36.3627 26.5506 36.4127 26.4308 36.5127 26.5431C36.6134 26.2162 36.3017 25.9933 36.2006 25.7062L36.1006 25.9446C35.8145 25.4891 35.8657 25.1058 35.6548 24.6447L35.8165 24.608L35.6305 24.3531C35.8048 24.3734 35.8186 24.08 35.6424 23.9705L36.2666 24.588C36.2405 24.8239 36.0041 24.4242 35.8913 24.6034C35.7919 24.7567 35.9777 25.1873 36.152 25.2102C36.1144 25.0348 36.0773 25.0374 35.9781 24.924C36.1787 24.797 36.2532 25.0579 36.4404 25.1385C36.4028 25.0525 36.4284 24.9043 36.3532 24.9075C36.5165 25.0474 36.5902 25.2186 36.6894 25.5083C36.5406 25.3383 36.5889 25.6593 36.5021 25.6048C36.7021 25.5659 36.8508 25.8251 36.9137 26.202C36.7746 26.5311 37.2749 26.8318 37.349 27.2688C37.0996 27.1625 36.8737 26.9971 36.7127 26.7689C36.6993 27.0621 36.8123 27.0584 36.7988 27.3529C36.9852 27.4325 37.2371 27.4511 37.4361 27.764L37.2983 27.8289C37.4715 28.1154 37.6845 28.0465 37.7719 28.4533C37.9199 29.1513 38.1444 29.8457 38.293 30.3668L38.156 30.4326C38.5555 30.6201 38.5782 31.3516 38.8395 31.6928C38.9139 32.3943 39.4377 33.0748 39.2995 33.4912C39.7843 34.6143 40.2198 35.5923 40.5553 36.8098L40.2812 36.6756C40.5044 36.8411 40.2065 36.8542 40.305 37.0549C40.3938 36.7588 40.6161 37.2772 40.7921 37.3849C40.8028 37.9717 41.2013 38.6008 41.5011 39.0273L41.3634 39.0922C41.7879 39.4838 41.7364 40.1322 41.8854 40.7427C41.8481 40.8306 41.7479 40.9823 41.8216 41.1547C42.1585 41.4034 42.1966 41.578 42.4951 42.0056C42.6072 42.3521 42.7315 42.9335 42.7551 43.3148C43.5028 44.5135 43.7254 45.9126 44.3597 47.2043L44.2226 47.3569C45.0082 48.5544 45.2035 50.2765 45.7511 51.3387L45.4276 51.3237C45.4524 51.7038 45.7626 52.1008 45.9382 51.9451C45.964 52.3261 46.3628 52.7796 46.1981 53.0799C46.2616 53.4577 46.4738 53.4782 46.6096 53.765C46.7336 54.522 46.8454 54.7818 47.119 55.4443L47.0826 55.27C46.9951 55.2158 46.8701 55.2488 46.9065 55.4242C47.0685 55.6518 47.1308 56.3826 47.3931 56.0186C47.4287 56.8093 48.103 57.66 48.0628 58.4533C48.1378 58.3626 48.2132 58.5352 48.3008 58.5897C48.5107 59.2255 48.5359 59.9574 48.86 60.4143C48.8458 60.5311 48.6482 60.3046 48.7218 60.5673C48.8073 60.7093 48.8458 60.5311 48.9596 60.7031C49.469 61.6787 49.4544 62.8519 49.8037 63.776C50.5249 65.386 50.9961 67.1561 51.5436 68.7453L51.4686 68.7492C51.9058 69.1993 51.6041 70.0927 52.14 70.3913C52.1147 70.539 52.2652 70.8848 52.1017 70.8337C52.4261 71.1998 52.312 72.0846 52.748 72.6242C52.7364 72.5654 52.7118 72.5378 52.6606 72.4821C52.7096 73.1534 53.0962 73.6355 53.1706 74.337C53.1193 74.2801 53.0581 74.1658 52.9833 74.1689C52.9329 74.4651 53.4697 74.6758 53.1811 74.9231C53.2313 75.0676 53.382 74.9727 53.3431 74.8864C53.679 76.3672 54.3881 77.8337 54.9483 79.3058C55.096 80.4433 54.4085 79.5527 54.9307 80.3189C54.8886 80.4087 55.0742 80.3276 55.0095 80.3618C55.2084 80.6591 54.802 80.9918 55.0504 81.1629C55.2246 81.0029 55.2136 81.277 55.3401 81.2439C55.4194 81.9426 55.2773 82.134 55.6001 82.6016L55.4799 82.5974C55.9802 83.1061 56.0447 83.8616 56.5614 84.2601C57.7074 87.5861 58.9396 90.7305 60.0351 93.9801C61.0112 97.2269 62.1902 100.333 63.0632 103.669C63.0278 104.528 63.0542 104.583 63.4418 105.388C63.3848 105.369 63.3573 105.319 63.3328 105.39C63.578 105.358 63.5464 105.976 63.7944 105.985C64.1425 107.211 64.5665 108.305 64.9711 109.55C64.8826 109.361 64.661 109.324 64.7518 109.553L64.9791 109.75L64.9275 109.811C65.0135 109.96 65.1844 110.098 65.2053 109.908C66.418 112.973 66.948 116.203 67.9962 119.249C68.1347 120.009 68.5589 121.016 68.8621 121.791C69.3106 124.236 69.744 126.429 70.7311 128.741C70.7297 128.74 70.0293 128.623 69.573 127.685Z" fill="#FC6B7E"/>
<path d="M36.0294 23.4839C35.9403 23.605 35.9651 23.898 35.7395 23.7309C35.8398 23.6688 35.9164 23.4888 36.0294 23.4839Z" fill="#FC6B7E"/>
<path d="M37.1899 31.1486C37.2272 31.1467 37.1763 31.2675 37.1643 31.2968C37.1268 31.2097 37.0016 31.1575 37.0393 31.0663C37.0776 31.1544 37.1276 31.123 37.1899 31.1486Z" fill="#FC6B7E"/>
<path d="M37.7222 33.0322C37.6094 33.0378 37.3993 32.6659 37.3105 32.4351L37.7222 33.0322Z" fill="#FC6B7E"/>
<path d="M37.8557 34.9034C37.8171 35.0806 37.7562 35.0545 37.6941 34.8531C37.744 34.821 37.7928 34.8783 37.8557 34.9034Z" fill="#FC6B7E"/>
<path d="M38.1327 34.9506C38.1815 35.0943 38.1437 35.1852 38.1077 35.2746C38.1943 35.2403 37.9438 34.9589 38.1327 34.9506Z" fill="#FC6B7E"/>
<path d="M39.0492 38.8127C39.0867 38.9007 39.236 39.0686 39.1483 39.1904C39.1981 39.0699 38.8749 38.7921 39.0492 38.8127Z" fill="#FC6B7E"/>
<path d="M39.7694 40.5116C39.7809 40.57 39.7693 40.599 39.8193 40.6551C39.8058 40.7733 39.6954 40.689 39.6573 40.6049L39.7694 40.5116Z" fill="#FC6B7E"/>
<path d="M50.4841 72.2248L50.373 72.0532L50.4833 72.0482L50.4841 72.2248Z" fill="#FC6B7E"/>
<path d="M55.0027 86.1791C55.1282 86.346 54.9486 86.3411 54.9435 86.3769C54.8781 86.2108 55.0904 86.3986 55.0027 86.1791Z" fill="#FC6B7E"/>
<path d="M57.9524 93.5368L57.9316 93.481L58.1475 93.4325L57.9524 93.5368Z" fill="#FC6B7E"/>
<path d="M12.8252 69.5731C13.9048 68.6275 15.734 68.6387 16.9969 67.8499C17.1501 67.775 17.0507 68.159 17.3912 67.9703C18.5878 67.1205 20.7674 66.692 22.4942 66.4904L22.4227 66.6054C22.7516 66.5659 23.0395 66.1675 23.3793 66.1002C23.4001 66.1549 23.3001 66.213 23.4006 66.2642C23.4291 66.0704 23.9674 65.9956 24.0662 65.8261C24.2169 65.8497 24.2466 65.9863 24.4377 66.0054L24.5637 65.7543C24.9383 65.1332 25.8392 65.377 26.475 64.913C26.4549 64.9684 26.396 65.0254 26.4661 65.05C27.5185 64.4059 28.9631 63.9954 30.2066 63.4815C30.1777 63.5651 30.17 63.7032 30.2694 63.7543C30.2676 63.5337 30.6454 63.3552 30.9746 63.2054C31.1953 63.3619 31.5005 62.8273 31.9383 62.8116L31.9192 62.8686C32.146 62.5568 32.3993 62.8506 32.5563 62.514L32.7966 62.6153C32.8329 62.2827 33.2742 62.627 33.4715 62.4006L33.4444 62.3433C33.6526 62.1978 33.8199 62.3043 34.0184 62.1866L34.0495 62.2141C34.5265 61.975 34.8708 62.0423 34.7853 61.8201C35.0197 61.9441 34.3257 62.0599 34.6871 62.2346C36.2627 61.4675 37.9796 60.9623 39.6403 60.4209C39.8584 60.4509 39.9876 60.4395 40.0578 60.5115C40.2087 60.4122 40.6698 60.2678 40.7831 60.1033C40.7289 60.1255 40.9278 60.1844 41.0192 60.1673C41.3495 60.1551 41.2688 59.8114 41.6336 59.8056C41.5212 59.9088 41.4998 59.9962 41.5714 60.0665C41.7978 59.7982 42.1852 59.7039 42.5014 59.5383C42.4618 59.5933 42.388 59.6422 42.4238 59.7092C42.7249 59.3905 43.1053 59.5357 43.3854 59.3052L43.3074 59.475C43.8755 59.4668 43.3714 59.1521 43.8484 59.1015C43.7546 59.1776 43.809 59.2166 43.8067 59.276C44.1463 58.9031 44.8455 58.7638 45.2357 58.5488C45.2168 58.5749 45.2346 58.6082 45.2346 58.6082C45.678 58.432 46.1751 58.353 46.6399 58.0881C46.8399 58.0879 46.6837 58.4269 47.1477 58.2237C47.045 57.9665 47.9263 57.8523 47.5475 57.6468C47.971 57.5576 48.6504 57.4465 48.8945 57.2691C48.7428 57.4287 49.1979 57.5255 48.8651 57.6582L49.1734 57.734C49.17 57.8539 48.8969 57.7831 49.0225 57.8922C49.1901 57.8267 49.6532 57.5616 49.8193 57.5552C50.0828 57.2917 50.2759 56.8978 50.7769 56.699C50.5695 56.8795 51.0075 56.9442 50.8583 57.0425L51.4094 56.3084C51.5756 56.241 51.5133 56.5039 51.7374 56.3556C51.7017 56.2901 51.7952 56.2129 51.8524 56.1323C51.9257 56.1414 52.5387 55.838 52.6962 56.0725C52.8039 56.1502 52.4365 56.217 52.6548 56.2477C52.9685 56.1431 52.9534 56.0507 53.2668 55.945L53.284 55.9777C53.5041 55.9488 53.8602 55.6694 53.5883 55.5998C53.4412 55.638 53.6934 55.7375 53.4554 55.7316C53.5529 55.5339 53.9046 55.374 54.218 55.2695C54.1244 55.3463 54.1597 55.4108 54.1402 55.498C54.4969 55.1578 54.9239 54.949 55.3682 54.7115C55.3358 54.5859 55.2647 54.992 55.1742 54.9494C55.8341 54.924 56.3447 54.3039 56.9285 54.3903C56.8531 54.4389 56.8275 54.2302 56.8442 54.2627C57.1405 54.1841 57.185 54.3663 57.3533 54.2388C57.4059 54.3375 57.5811 54.1284 57.7661 54.0334C57.8424 53.9247 57.8336 54.0679 57.6671 54.1346C57.9104 53.9574 58.9478 53.4444 59.626 53.3936C59.5916 53.3281 59.9307 53.0144 60.0772 52.9756L60.073 53.156C60.2363 53.2099 60.5529 52.9851 60.6219 53.1161C60.8673 52.8198 59.4866 53.6685 59.8553 53.3808C60.0069 53.4811 60.3538 52.935 60.3348 53.1847C60.6239 53.0849 60.8463 52.8117 61.1728 52.8734C61.0836 52.8733 61.0095 53.1737 61.2406 53.0868C61.6439 52.9244 61.3332 52.9717 61.6505 52.8093L61.8389 52.6752C61.8021 52.5131 62.2149 52.5771 62.0043 52.4505C62.097 52.5644 62.5787 52.1764 62.6208 52.4517L62.63 52.6758C62.8034 52.6029 62.8521 52.3644 62.9627 52.2277C62.9924 52.2396 63.0527 52.2655 63.0544 52.3021C62.9812 51.9778 63.489 52.1905 63.6222 51.8784C64.032 51.8667 64.577 51.5802 64.8172 51.7199C65.074 51.5313 65.2999 51.3327 65.6503 51.2945C65.5943 51.345 65.5074 51.3833 65.511 51.4572C65.747 51.4833 65.771 51.3837 65.9428 51.2718C65.9159 51.3325 66.4146 51.3225 66.6798 51.3603C66.9353 51.1737 66.7823 51.0355 66.7773 50.9222C67.1394 51.1483 67.5198 50.4608 67.9387 50.6365C67.8535 50.7118 67.5707 50.924 67.8339 50.9253C68.1956 51.1508 68.2869 50.5251 68.7567 50.5381L68.5696 50.3137C68.8089 50.413 69.1417 49.9637 69.1839 50.2405C69.295 50.1017 69.7082 50.1647 69.5803 49.9286C70.3416 49.9173 71.2227 49.2559 71.7942 49.5687C71.8797 49.4946 72.1414 49.4576 72.0489 49.3445C71.8386 49.2577 71.851 49.5195 71.7587 49.4434C71.845 49.4069 71.8423 49.3319 71.8403 49.2943C72.0745 49.2822 72.2495 49.2456 72.1136 49.5205C72.6428 49.5214 72.4694 48.9333 73.1102 48.8343C73.1162 48.9473 73.1754 48.9719 73.3484 48.8976L73.6291 48.6098C74.0367 48.5237 73.9293 48.7743 73.9963 48.9477C74.1971 48.8491 74.4579 48.7745 74.5108 48.6116L74.8384 48.7508C74.6003 48.6503 74.9775 48.5885 75.0625 48.513L74.9775 48.5885C75.0405 48.6503 75.2691 48.5255 75.3848 48.4639C75.3207 48.3638 75.0576 48.4 74.9116 48.4124C74.9944 48.3 75.1673 48.2641 75.2804 48.1266C75.2893 48.3149 75.6635 48.1388 75.8368 48.1027C76.0411 48.078 76.0031 47.8773 76.0611 47.8656C76.0951 47.9538 76.3795 47.779 76.2704 47.9531C76.2142 48.0029 76.0924 47.9141 76.0097 48.028C76.158 48.0539 76.1936 48.2148 76.4194 48.0163C76.5896 47.8667 76.2584 47.6911 76.6689 47.6792C76.5841 47.7543 76.5884 47.8291 76.532 47.9158L76.9125 47.892L76.8764 47.7297C76.9368 47.7544 76.9086 47.7784 76.9374 47.7925C76.9881 47.5927 77.4574 47.568 77.4767 47.3558C77.6491 47.282 77.8853 47.344 78.0607 47.3072L78.0326 47.3316C78.2696 47.3573 78.5248 47.2072 78.6646 47.0447L78.6665 47.082C78.7834 47.0579 79.0426 46.9467 79.1542 46.8082C79.4786 46.8346 79.4428 47.372 79.6944 47.0717C79.9826 46.9727 80.0555 46.636 79.906 46.5729C80.4614 46.5109 80.9696 46.0624 81.5314 46.1508C81.5855 46.063 81.5255 46.0382 81.6678 45.9511C82.4531 45.766 83.2223 45.242 83.9311 45.3548C83.7306 45.4928 83.9672 45.5171 84.0009 45.6056C84.1383 45.4055 84.268 45.681 84.2556 45.4176C84.1911 45.2813 84.1871 45.206 83.9529 45.218C84.3844 44.994 85.0777 44.7698 85.3745 44.8208C85.2264 44.7956 85.3103 44.7204 85.3964 44.6457C85.4365 44.8833 85.7846 44.809 86.0129 44.6468L86.0041 44.4964L86.2154 44.5852C86.2991 44.5093 86.2295 44.2601 86.5252 44.3115C86.5556 44.3607 86.5877 44.4105 86.6468 44.4348C86.8739 44.2366 87.1828 43.9249 87.5065 43.9492L87.8058 44.0756C87.9207 44.0138 88.0867 43.826 87.853 43.8371C88.3797 43.8013 88.6993 43.7147 88.9104 43.8392C89.6124 43.1415 90.8257 42.7304 91.8125 42.4453L91.8174 42.5582C92.111 42.5704 91.8947 42.3331 92.1012 42.3456C92.0482 42.4718 92.3705 42.4954 92.2035 42.6835C92.614 42.6716 92.6289 42.3478 92.8578 42.2217C92.8507 42.0739 92.6899 42.3722 92.6812 42.1843C92.7071 42.1219 93.2347 42.1225 93.2265 41.8977C93.3467 41.9479 93.3225 42.1235 93.2988 42.223L93.4959 42.049C93.854 42.199 92.996 42.6852 93.3859 42.8864L93.5871 42.7857C93.8582 42.9361 93.1067 43.21 93.661 43.1121C93.8586 42.936 93.9589 42.574 93.7245 42.5493C94.1849 42.3375 93.7877 41.9867 94.3085 41.837C94.4885 41.9125 93.9055 41.9994 94.0596 42.1372C94.356 42.2247 94.5169 41.8869 94.7512 41.8753C94.4864 41.8749 94.6219 41.6012 94.7645 41.5137C95.0581 41.5258 94.6576 41.7636 95.0353 41.6645C95.0581 41.5258 95.3705 41.3267 95.0489 41.3392C95.096 41.0265 95.4595 41.2889 95.5937 41.0148C95.776 41.165 95.3533 41.5769 95.7916 41.5396C95.6675 41.3772 96.2145 41.1284 95.9113 40.927C96.0883 40.928 96.1514 41.0663 96.0713 41.2162C96.3362 41.2544 96.5173 40.7037 96.7099 41.0417L96.7277 40.8295C96.8189 40.8673 96.9359 40.8799 97.0853 40.943C97.2877 40.881 97.652 40.4806 97.7247 40.7682C97.78 40.7183 98.2432 40.5826 98.0027 40.4446C97.6786 40.418 97.7207 40.6933 97.4762 40.4811C97.7472 40.6312 97.8788 40.3201 98.0208 40.1948L98.083 40.2951C98.1676 40.2208 98.4014 40.1714 98.4245 40.0337C98.3698 40.1206 98.4326 40.182 98.5198 40.1831L98.5691 39.9838C98.9419 39.7718 98.7575 40.245 99.1306 40.0712L98.8771 40.2955C98.9329 40.2469 99.1153 40.3588 99.2845 40.2474C99.3076 40.0722 99.3849 39.8471 99.4087 39.7092C99.6064 39.5722 99.5619 39.8481 99.7272 39.623L99.5037 39.8966C99.4774 39.9602 99.775 40.0852 100.066 39.9867C100.236 39.8739 100.456 39.5612 100.134 39.574C100.28 39.5242 100.515 39.5499 100.435 39.6979C100.751 39.5383 100.339 39.5492 100.595 39.3622C100.745 39.4251 101.157 39.4507 101.425 39.5263L101.207 39.8761L101.407 39.8138C101.215 40.1004 101.588 39.9269 101.512 40.1876C101.659 40.1778 101.8 40.0512 101.913 39.9532C101.405 39.7392 102.207 39.3405 101.991 39.0649C102.508 38.8039 102.577 39.7154 102.987 39.0421C102.868 38.9908 103.059 38.6662 102.745 38.8672C103.095 38.7923 102.874 38.4791 103.315 38.4794C103.061 38.7037 103.735 38.6938 103.368 39.0183C103.363 38.9053 103.104 39.0165 103.048 39.0675C103.226 39.1419 103.121 39.391 103.468 39.2789C103.669 39.1805 103.957 39.0806 103.863 38.9313C103.796 38.7552 103.546 39.055 103.623 38.8303C104.025 38.6316 104.183 38.8811 104.255 38.5075C103.996 38.6181 103.87 38.4552 103.835 38.3313L104.121 38.1563L104.099 38.2947C104.624 38.2198 104.176 38.0314 104.668 37.9075L104.969 38.0696C104.92 38.3088 104.24 38.2061 104.433 38.5079C104.75 38.4205 104.799 38.2192 105.122 38.2091C105.065 38.2587 104.978 38.2958 104.923 38.3461C105.039 38.3208 105.292 38.7215 105.655 38.3213C105.853 38.1473 105.678 38.1841 105.644 38.0591C106.134 37.8592 106.243 37.6851 106.561 37.5613C106.572 37.8238 107.14 37.3994 106.862 37.7612C106.652 37.6736 105.93 37.9219 105.827 38.2095C106.102 38.4352 105.419 38.297 105.405 38.6208C105.81 38.4968 105.881 38.7841 106.005 38.9472C106.121 38.9238 106.205 38.8113 106.262 38.7607C106.253 38.5721 106.108 38.6221 106.042 38.4465C106.506 38.3482 106.908 38.1112 107.101 37.863C107.279 37.9001 107.287 38.0882 107.115 38.1623C107.633 37.938 108.212 37.7769 108.737 37.6651C108.317 37.4888 109.282 37.4154 108.982 37.2532C108.689 37.2778 108.39 37.1521 108.499 36.9769C108.676 36.9402 108.534 37.1025 108.624 37.1397C108.791 36.9154 109.041 37.2782 109.175 36.966C108.716 37.2153 109.191 37.3412 109.173 37.5917C109.485 37.3528 109.209 37.754 109.557 37.6414C109.869 37.4046 110.268 37.1683 110.643 36.9942C111.201 37.0457 111.886 36.5968 112.321 36.4467C112.586 36.4845 112.512 36.7852 112.774 36.748C113.064 36.6489 112.47 36.5477 112.94 36.5229L112.914 36.5862C113.026 36.4857 113.761 36.5002 113.773 36.0992L113.727 36.4138C113.815 36.4122 113.87 36.326 113.927 36.2758C113.959 36.3629 114.079 36.4129 113.967 36.513C114.293 36.6137 114.516 36.3019 114.803 36.2009L114.565 36.1009C115.021 35.8148 115.404 35.866 115.865 35.6551L115.902 35.8168L116.157 35.6308C116.136 35.805 116.43 35.8188 116.539 35.6427L115.922 36.2673C115.686 36.2412 116.086 36.0048 115.906 35.8919C115.753 35.7925 115.323 35.9783 115.3 36.1526C115.475 36.1151 115.472 36.078 115.586 35.9788C115.713 36.1793 115.452 36.2539 115.371 36.441C115.457 36.4034 115.606 36.429 115.602 36.3538C115.462 36.5171 115.291 36.5909 115.002 36.69C115.172 36.5412 114.851 36.5895 114.905 36.5027C114.944 36.7028 114.685 36.8515 114.308 36.9143C113.979 36.7753 113.678 37.2756 113.241 37.3496C113.347 37.1003 113.513 36.8743 113.741 36.7133C113.448 36.6998 113.452 36.8128 113.157 36.7993C113.078 36.9857 113.059 37.2376 112.746 37.4366L112.681 37.2988C112.395 37.472 112.464 37.6851 112.057 37.7724C111.359 37.9204 110.664 38.1451 110.143 38.2935L110.078 38.1565C109.89 38.5559 109.159 38.5788 108.817 38.84C108.116 38.9144 107.435 39.4382 107.019 39.3C105.896 39.7848 104.918 40.2203 103.7 40.5558L103.835 40.2818C103.669 40.5049 103.656 40.207 103.455 40.3056C103.751 40.3944 103.233 40.6168 103.125 40.7927C102.538 40.8034 101.909 41.202 101.483 41.5017L101.418 41.364C101.026 41.7885 100.378 41.7371 99.7671 41.886C99.6792 41.8488 99.5276 41.7485 99.3552 41.8222C99.1064 42.1591 98.9319 42.1972 98.5042 42.4958C98.1577 42.6078 97.5763 42.7321 97.195 42.7557C95.9963 43.5034 94.5972 43.726 93.3055 44.3603L93.1529 44.2232C91.9555 45.0088 90.2336 45.204 89.1715 45.7516L89.1865 45.4281C88.8064 45.4529 88.4094 45.7631 88.5651 45.9387C88.1841 45.9646 87.7306 46.3634 87.4303 46.1986C87.0525 46.2621 87.032 46.4744 86.7451 46.6101C85.9881 46.7341 85.7284 46.8459 85.0659 47.1196L85.2402 47.0831C85.2944 46.9956 85.2614 46.8707 85.0859 46.9071C84.8584 47.069 84.1276 47.1314 84.4915 47.3936C83.7009 47.4293 82.8502 48.1035 82.0569 48.0633C82.1476 48.1384 81.975 48.2138 81.9204 48.3014C81.2847 48.5113 80.5528 48.5365 80.0958 48.8605C79.979 48.8463 80.2056 48.6487 79.9429 48.7224C79.8008 48.8078 79.979 48.8463 79.8071 48.9602C78.8319 49.4694 77.6583 49.4549 76.7345 49.8041C75.1246 50.5253 73.354 50.9966 71.7653 51.544L71.7614 51.4691C71.3113 51.9062 70.4178 51.6045 70.1193 52.1404C69.9715 52.1151 69.6258 52.2656 69.6769 52.1021C69.3107 52.4265 68.4259 52.3124 67.8863 52.7484C67.9451 52.7368 67.9727 52.7123 68.0285 52.661C67.3567 52.7101 66.875 53.0966 66.1735 53.171C66.2308 53.1196 66.3447 53.0585 66.3416 52.9837C66.0454 52.9333 65.8348 53.4701 65.5874 53.1815C65.443 53.2317 65.5378 53.3824 65.6242 53.3435C64.1433 53.6794 62.6768 54.3886 61.2047 54.9487C60.0676 55.0963 60.9579 54.4089 60.1917 54.9311C60.1018 54.889 60.183 55.0746 60.1487 55.0099C59.8515 55.2088 59.5187 54.8024 59.3477 55.0508C59.5076 55.225 59.2335 55.214 59.2666 55.3405C58.5679 55.4199 58.3765 55.2777 57.909 55.6005L57.9131 55.4803C57.4045 55.9806 56.649 56.0451 56.2504 56.5618C52.9248 57.7076 49.78 58.94 46.5304 60.0355C43.2836 61.0116 40.1771 62.1906 36.8418 63.0636C35.9829 63.0282 35.9277 63.0547 35.1222 63.4422C35.1413 63.3852 35.1911 63.3578 35.1206 63.3333C35.153 63.5784 34.5341 63.5468 34.5255 63.7947C33.3004 64.1428 32.2057 64.5668 30.9605 64.9714C31.1496 64.8829 31.187 64.6613 30.958 64.7521L30.7606 64.9794L30.7001 64.9278C30.5512 65.0138 30.4134 65.1847 30.6027 65.2056C27.538 66.4183 24.3083 66.9483 21.2616 67.9965C20.5022 68.135 19.4952 68.5592 18.7195 68.8624C16.2751 69.3109 14.0815 69.7443 11.7702 70.7314C11.7701 70.7298 11.8868 70.0295 12.8252 69.5731Z" fill="#FC6B7E"/>
<path d="M54.3289 55.0051C54.162 55.1305 54.1669 54.951 54.131 54.9459C54.2972 54.8805 54.1094 55.0928 54.3289 55.0051Z" fill="#FC6B7E"/>
<path d="M46.9715 57.9541L47.0273 57.9333L47.0758 58.1492L46.9715 57.9541Z" fill="#FC6B7E"/>
<path d="M24.2725 104.964C25.3521 104.018 27.1813 104.029 28.4442 103.241C28.5974 103.166 28.498 103.55 28.8384 103.361C30.035 102.511 32.2146 102.083 33.9414 101.881L33.87 101.996C34.1988 101.957 34.4867 101.558 34.8266 101.491C34.8474 101.546 34.7473 101.604 34.8479 101.655C34.8763 101.461 35.4147 101.386 35.5135 101.217C35.6642 101.24 35.6939 101.377 35.885 101.396L36.011 101.145C36.3856 100.524 37.2866 100.768 37.9219 100.304C37.9018 100.359 37.8429 100.416 37.913 100.441C38.9654 99.7966 40.41 99.3861 41.6539 98.8721C41.625 98.9557 41.6173 99.0939 41.7167 99.145C41.7149 98.9243 42.0927 98.7458 42.4218 98.596C42.6425 98.7525 42.9477 98.2179 43.3856 98.2022L43.3665 98.2592C43.5932 97.9474 43.8466 98.2412 44.0035 97.9046L44.2439 98.006C44.2802 97.6733 44.7215 98.0177 44.9188 97.7912L44.8916 97.7339C45.0998 97.5884 45.2672 97.695 45.4656 97.5772L45.4968 97.6047C45.9738 97.3656 46.3181 97.4329 46.2326 97.2108C46.4669 97.3347 45.773 97.4505 46.1344 97.6252C47.7103 96.858 49.4269 96.3529 51.0876 95.8115C51.3057 95.8415 51.4349 95.8302 51.5051 95.9021C51.6559 95.8029 52.117 95.6584 52.2304 95.494C52.1762 95.5162 52.375 95.575 52.4665 95.5579C52.7968 95.5457 52.7161 95.202 53.0809 95.1962C52.9685 95.2994 52.9471 95.3869 53.0187 95.4571C53.2451 95.1889 53.6324 95.0945 53.9487 94.9289C53.909 94.9839 53.8353 95.0328 53.8711 95.0998C54.1722 94.7812 54.5526 94.9263 54.8326 94.6958L54.7547 94.8657C55.3227 94.8575 54.8187 94.5428 55.2957 94.4921C55.2018 94.5682 55.2563 94.6073 55.254 94.6666C55.5935 94.2937 56.2928 94.1544 56.683 93.9395C56.6641 93.9655 56.6819 93.9989 56.6819 93.9989C57.1253 93.8226 57.6223 93.7436 58.0871 93.4787C58.2872 93.4785 58.131 93.8175 58.595 93.6143C58.4923 93.3571 59.3736 93.2429 58.9948 93.0374C59.4182 92.9482 60.0977 92.8371 60.3417 92.6597C60.1901 92.8194 60.6451 92.9162 60.3124 93.0488L60.6207 93.1246C60.6173 93.2445 60.3442 93.1737 60.4698 93.2829C60.6374 93.2173 61.1005 92.9522 61.2665 92.9458C61.53 92.6824 61.7232 92.2884 62.2242 92.0896C62.0167 92.2701 62.4548 92.3348 62.3056 92.4331L62.8566 91.699C63.0229 91.6316 62.9609 91.8944 63.1846 91.7462C63.149 91.6807 63.2425 91.6036 63.2997 91.5229C63.373 91.532 63.986 91.2286 64.1435 91.4631C64.2511 91.5409 63.8838 91.6077 64.102 91.6383C64.4157 91.5337 64.401 91.4412 64.7141 91.3356L64.7313 91.3684C64.9514 91.3394 65.3075 91.0601 65.0356 90.9905C64.8884 91.0287 65.1407 91.1281 64.9026 91.1222C65.0002 90.9245 65.3519 90.7646 65.6652 90.6602C65.5716 90.737 65.6069 90.8014 65.5874 90.8886C65.9442 90.5485 66.3712 90.3396 66.8155 90.1021C66.7831 89.9766 66.7119 90.3827 66.6215 90.34C67.2814 90.3146 67.7919 89.6945 68.3757 89.7809C68.3004 89.8295 68.2747 89.6208 68.2915 89.6533C68.5878 89.5747 68.6323 89.757 68.8006 89.6294C68.8532 89.7281 69.0283 89.519 69.2134 89.424C69.2896 89.3153 69.2808 89.4585 69.1144 89.5252C69.3577 89.348 70.3951 88.8351 71.0733 88.7842C71.0388 88.7187 71.3779 88.405 71.5245 88.3662L71.5203 88.5466C71.6835 88.6005 72.0002 88.3758 72.0691 88.5067C72.3146 88.2104 70.9339 89.0591 71.3025 88.7714C71.4542 88.8717 71.8011 88.3256 71.7821 88.5753C72.0712 88.4756 72.2936 88.2023 72.6201 88.2641C72.5309 88.264 72.4568 88.5643 72.6879 88.4775C73.0912 88.315 72.7804 88.3623 73.0977 88.1999L73.2865 88.0657C73.2498 87.9037 73.6625 87.9676 73.4519 87.841C73.5447 87.9549 74.0263 87.5669 74.0684 87.8422L74.0776 88.0664C74.251 87.9935 74.2997 87.7549 74.4104 87.6182C74.44 87.6302 74.5004 87.656 74.502 87.6926C74.4288 87.3683 74.937 87.5808 75.0699 87.2689C75.4797 87.2572 76.0246 86.9707 76.2648 87.1104C76.5217 86.9218 76.7475 86.7233 77.0979 86.685C77.042 86.7355 76.955 86.7738 76.9586 86.8477C77.1946 86.8738 77.2186 86.7742 77.3904 86.6623C77.3635 86.723 77.8623 86.713 78.1274 86.7508C78.3829 86.5642 78.2299 86.426 78.225 86.3127C78.587 86.5388 78.9675 85.8513 79.3863 86.027C79.3011 86.1023 79.0184 86.3145 79.2815 86.3158C79.6433 86.5413 79.7345 85.9156 80.2043 85.9286L80.0172 85.7042C80.2565 85.8035 80.5896 85.3541 80.6315 85.631C80.7426 85.4923 81.1559 85.5552 81.0279 85.3191C81.7893 85.3078 82.6704 84.6464 83.2418 84.9592C83.3273 84.8851 83.589 84.8481 83.4965 84.735C83.2862 84.6482 83.2986 84.91 83.2063 84.8339C83.2927 84.7974 83.2899 84.7224 83.2879 84.6848C83.5221 84.6728 83.6971 84.6361 83.5612 84.9111C84.0904 84.9119 83.917 84.3238 84.5582 84.2247C84.5642 84.3377 84.6234 84.3623 84.7964 84.288L85.077 84.0002C85.4847 83.9141 85.3773 84.1647 85.4439 84.3382C85.6447 84.2396 85.9055 84.165 85.9584 84.0021L86.286 84.1413C86.0479 84.0408 86.4251 83.979 86.5101 83.9035L86.4251 83.979C86.4881 84.0408 86.7167 83.916 86.8324 83.8544C86.7684 83.7543 86.5053 83.7905 86.3592 83.803C86.4421 83.6905 86.6149 83.6546 86.728 83.5171C86.7369 83.7054 87.1112 83.5293 87.2844 83.4932C87.4887 83.4686 87.4507 83.2678 87.5087 83.2561C87.5427 83.3444 87.8271 83.1695 87.718 83.3436C87.6618 83.3934 87.54 83.3046 87.4573 83.4185C87.6056 83.4444 87.6416 83.6052 87.8671 83.4068C88.0372 83.2572 87.706 83.0816 88.1165 83.0697C88.0317 83.1448 88.036 83.2196 87.9796 83.3063L88.3601 83.2825L88.324 83.1202C88.3844 83.1449 88.3562 83.1689 88.3846 83.1831C88.4354 82.9834 88.905 82.9585 88.924 82.7464C89.0964 82.6726 89.3326 82.7346 89.508 82.6979L89.4799 82.7222C89.7169 82.748 89.9721 82.5978 90.1119 82.4353L90.1134 82.4728C90.2303 82.4486 90.4895 82.3374 90.6011 82.1989C90.9255 82.2254 90.8897 82.7627 91.1413 82.4624C91.4295 82.3634 91.5024 82.0267 91.353 81.9636C91.9084 81.9017 92.4165 81.4531 92.9784 81.5416C93.0324 81.4537 92.9724 81.4289 93.1147 81.3419C93.9 81.1567 94.6692 80.6328 95.378 80.7456C95.1775 80.8835 95.4141 80.9079 95.4478 80.9963C95.5852 80.7963 95.7149 81.0717 95.7025 80.8084C95.6381 80.6721 95.634 80.5967 95.3999 80.6087C95.8313 80.3848 96.5246 80.1606 96.8214 80.2116C96.6733 80.1864 96.7573 80.1111 96.8433 80.0364C96.8834 80.274 97.2316 80.1997 97.4598 80.0376L97.451 79.8872L97.6623 79.976C97.746 79.9 97.6764 79.6509 97.9721 79.7022C98.0025 79.7514 98.0346 79.8012 98.0937 79.8255C98.3209 79.6274 98.6297 79.3156 98.9535 79.3399L99.2527 79.4663C99.3676 79.4046 99.5336 79.2168 99.2999 79.2279C99.8266 79.192 100.146 79.1055 100.357 79.2299C101.059 78.5322 102.273 78.1211 103.259 77.836L103.264 77.949C103.558 77.9611 103.342 77.7238 103.548 77.7364C103.495 77.8626 103.817 77.8862 103.65 78.0743C104.061 78.0623 104.076 77.7385 104.305 77.6125C104.298 77.4645 104.137 77.7629 104.128 77.575C104.154 77.5127 104.682 77.5133 104.673 77.2884C104.794 77.3387 104.769 77.5142 104.746 77.6137L104.943 77.4398C105.301 77.5898 104.443 78.076 104.833 78.2771L105.034 78.1765C105.305 78.3269 104.554 78.6008 105.108 78.5028C105.305 78.3267 105.406 77.9648 105.171 77.9401C105.632 77.7283 105.235 77.3774 105.755 77.2278C105.935 77.3033 105.352 77.3902 105.506 77.528C105.803 77.6155 105.964 77.2777 106.198 77.266C105.933 77.2656 106.068 76.9921 106.211 76.9044C106.505 76.9166 106.105 77.1544 106.482 77.0553C106.505 76.9166 106.817 76.7174 106.496 76.7299C106.543 76.4172 106.906 76.6796 107.041 76.4056C107.223 76.5558 106.8 76.9677 107.239 76.9303C107.114 76.7679 107.661 76.5191 107.358 76.3177C107.535 76.3187 107.598 76.457 107.518 76.6069C107.783 76.6451 107.964 76.0944 108.157 76.4324L108.175 76.2203C108.266 76.258 108.383 76.2706 108.532 76.3337C108.735 76.2718 109.099 75.8713 109.172 76.159C109.227 76.109 109.69 75.9733 109.45 75.8353C109.126 75.8088 109.168 76.084 108.923 75.8719C109.194 76.0219 109.326 75.7108 109.468 75.5855L109.53 75.6858C109.615 75.6115 109.848 75.5621 109.871 75.4244C109.817 75.5114 109.88 75.5727 109.967 75.5739L110.016 75.3746C110.389 75.1625 110.204 75.6358 110.577 75.462L110.324 75.6862C110.38 75.6377 110.562 75.7495 110.731 75.6381C110.754 75.463 110.832 75.2378 110.856 75.0998C111.054 74.9628 111.009 75.2387 111.174 75.0136L110.951 75.2872C110.925 75.3509 111.222 75.4759 111.514 75.3773C111.684 75.2645 111.903 74.9518 111.581 74.9646C111.727 74.915 111.963 74.9405 111.882 75.0886C112.198 74.9289 111.786 74.9398 112.042 74.7529C112.193 74.8157 112.604 74.8413 112.872 74.9169L112.655 75.2668L112.855 75.2044C112.662 75.491 113.035 75.3176 112.959 75.5783C113.106 75.5684 113.247 75.4418 113.361 75.3438C112.852 75.1298 113.655 74.7311 113.438 74.4556C113.955 74.1945 114.024 75.106 114.435 74.4327C114.315 74.3814 114.506 74.0569 114.192 74.2578C114.542 74.1829 114.321 73.8697 114.763 73.87C114.508 74.0943 115.183 74.0845 114.815 74.4089C114.811 74.2959 114.551 74.4071 114.495 74.4581C114.674 74.5325 114.568 74.7817 114.915 74.6695C115.116 74.5711 115.405 74.4712 115.31 74.3219C115.243 74.1458 114.993 74.4456 115.07 74.221C115.472 74.0222 115.63 74.2717 115.702 73.8981C115.444 74.0087 115.317 73.8458 115.282 73.7219L115.568 73.547L115.547 73.6853C116.071 73.6104 115.623 73.4221 116.115 73.2981L116.417 73.4602C116.367 73.6994 115.688 73.5967 115.88 73.8985C116.197 73.8111 116.247 73.6099 116.569 73.5997C116.513 73.6493 116.426 73.6864 116.37 73.7367C116.486 73.7114 116.739 74.1121 117.103 73.7122C117.301 73.5383 117.125 73.5751 117.091 73.4501C117.581 73.2501 117.69 73.0761 118.008 72.9522C118.019 73.2148 118.587 72.7904 118.31 73.1522C118.099 73.0646 117.378 73.3129 117.274 73.6005C117.549 73.8262 116.867 73.688 116.852 74.0118C117.257 73.8878 117.328 74.1751 117.453 74.3382C117.569 74.3148 117.652 74.2023 117.709 74.1517C117.7 73.9631 117.555 74.0131 117.489 73.8374C117.954 73.7392 118.355 73.5022 118.549 73.254C118.726 73.2911 118.735 73.4792 118.562 73.5532C119.081 73.329 119.66 73.1679 120.184 73.0561C119.765 72.8798 120.729 72.8063 120.429 72.6441C120.137 72.6688 119.838 72.5431 119.946 72.368C120.123 72.3313 119.981 72.4936 120.072 72.5307C120.239 72.3064 120.489 72.6692 120.622 72.357C120.164 72.6061 120.639 72.732 120.621 72.9826C120.932 72.7438 120.657 73.1449 121.005 73.0324C121.316 72.7956 121.716 72.5592 122.091 72.3849C122.648 72.4367 123.333 71.9877 123.768 71.8373C124.033 71.8751 123.959 72.1758 124.222 72.1386C124.511 72.0395 123.918 71.9383 124.387 71.9136L124.362 71.9768C124.473 71.8763 125.208 71.8908 125.22 71.4898L125.174 71.8044C125.262 71.8028 125.317 71.7166 125.375 71.6665C125.406 71.7536 125.526 71.8036 125.414 71.9036C125.741 72.0043 125.964 71.6926 126.251 71.5915L126.012 71.4915C126.468 71.2054 126.851 71.2566 127.312 71.0457L127.349 71.2074L127.604 71.0214C127.584 71.1957 127.877 71.2095 127.987 71.0333L127.369 71.6575C127.133 71.6314 127.533 71.3951 127.354 71.2822C127.2 71.1828 126.77 71.3686 126.747 71.5429C126.922 71.5053 126.92 71.4683 127.033 71.3691C127.16 71.5696 126.899 71.6441 126.818 71.8313C126.904 71.7937 127.053 71.8193 127.049 71.7441C126.91 71.9074 126.738 71.9811 126.449 72.0803C126.619 71.9315 126.298 71.9798 126.352 71.8933C126.391 72.0934 126.132 72.2421 125.755 72.3047C125.425 72.1657 125.125 72.6663 124.688 72.74C124.794 72.4906 124.959 72.2648 125.188 72.1037C124.895 72.0902 124.899 72.2032 124.604 72.1897C124.524 72.3761 124.506 72.628 124.193 72.827L124.128 72.6892C123.842 72.8624 123.911 73.0754 123.504 73.1628C122.806 73.3107 122.111 73.5353 121.59 73.6839L121.524 73.5469C121.337 73.9463 120.605 73.9691 120.264 74.2304C119.563 74.3048 118.882 74.8286 118.466 74.6904C117.343 75.1752 116.365 75.6107 115.147 75.9462L115.281 75.6721C115.116 75.8953 115.103 75.5974 114.902 75.696C115.198 75.7848 114.679 76.0072 114.572 76.1831C113.985 76.1938 113.356 76.5924 112.929 76.8921L112.864 76.7544C112.473 77.1789 111.824 77.1275 111.214 77.2764C111.126 77.2392 110.974 77.1389 110.802 77.2126C110.553 77.5495 110.379 77.5876 109.951 77.8862C109.605 77.9982 109.023 78.1225 108.642 78.1461C107.443 78.8938 106.044 79.1164 104.752 79.7507L104.6 79.6136C103.402 80.3992 101.68 80.5944 100.618 81.142L100.633 80.8185C100.253 80.8433 99.8562 81.1535 100.012 81.3291C99.6309 81.355 99.1774 81.7538 98.877 81.589C98.4992 81.6525 98.4788 81.8648 98.1919 82.0005C97.435 82.1245 97.1752 82.2363 96.5127 82.5099L96.687 82.4735C96.7412 82.386 96.7082 82.261 96.5327 82.2975C96.3052 82.4594 95.5744 82.5218 95.9383 82.784C95.1477 82.8196 94.297 83.4939 93.5037 83.4537C93.5944 83.5288 93.4218 83.6041 93.3672 83.6917C92.7315 83.9017 91.9996 83.9268 91.5426 84.2509C91.4258 84.2367 91.6524 84.0391 91.3897 84.1127C91.2476 84.1982 91.4258 84.2367 91.2539 84.3505C90.2787 84.8598 89.1051 84.8453 88.1813 85.1945C86.5714 85.9157 84.8008 86.387 83.2121 86.9344L83.2082 86.8594C82.7581 87.2966 81.8646 86.9949 81.5661 87.5308C81.4183 87.5055 81.0725 87.656 81.1237 87.4925C80.7575 87.8169 79.8727 87.7028 79.3331 88.1388C79.3919 88.1272 79.4195 88.1026 79.4756 88.0513C78.8039 88.1004 78.3221 88.4868 77.6207 88.5612C77.6776 88.51 77.7915 88.4489 77.7888 88.374C77.4926 88.3235 77.2819 88.8604 77.0345 88.5717C76.8901 88.622 76.985 88.7727 77.0713 88.7338C75.5904 89.0696 74.124 89.7788 72.6519 90.3389C71.5148 90.4866 72.405 89.7992 71.6388 90.3214C71.549 90.2793 71.6301 90.4649 71.5959 90.4002C71.2986 90.5991 70.9658 90.1926 70.7948 90.4411C70.9548 90.6153 70.6807 90.6043 70.7138 90.7308C70.0154 90.81 69.8237 90.668 69.3561 90.9908L69.3603 90.8706C68.8516 91.3709 68.0961 91.4354 67.6975 91.9521C64.3719 93.0979 61.2272 94.3303 57.9775 95.4258C54.7307 96.4019 51.6242 97.5809 48.289 98.4538C47.4296 98.4186 47.3748 98.4449 46.5694 98.8325C46.5885 98.7755 46.6382 98.748 46.5678 98.7235C46.6001 98.9687 45.9812 98.937 45.9727 99.1849C44.7475 99.533 43.6528 99.957 42.4076 100.362C42.5968 100.273 42.6342 100.052 42.4051 100.142L42.2077 100.37L42.1473 100.318C41.9984 100.404 41.8605 100.575 42.0498 100.596C38.9851 101.809 35.7555 102.339 32.7087 103.387C31.9494 103.525 30.9423 103.949 30.1667 104.253C27.7222 104.701 25.5286 105.135 23.2173 106.122C23.2173 106.12 23.3341 105.42 24.2725 104.964Z" fill="#FC6B7E"/>
<path d="M58.4207 93.3452L58.4766 93.3245L58.525 93.5403L58.4207 93.3452Z" fill="#FC6B7E"/>
</svg>
