<svg width="146" height="70" viewBox="0 0 146 70" fill="none" xmlns="http://www.w3.org/2000/svg">
<path d="M33.0246 128.534L33.7547 129.118C31.9025 128.126 32.4634 128.337 33.0246 128.534ZM97.1385 87.4716C97.305 87.0143 97.2337 87.0158 97.088 87.1707C97.0334 87.5191 96.5469 88.4836 95.9613 89.5651C96.2184 89.3131 96.5731 88.7963 97.1385 87.4716ZM94.779 91.6682C94.7645 91.7102 94.7551 91.7404 94.7479 91.7771C93.5393 93.7601 93.9752 93.0604 94.779 91.6682ZM30.6176 3.92255C30.9089 3.13331 31.5251 2.05512 32.2122 1.00977C32.4606 1.16129 32.7244 1.32243 32.9935 1.48727C32.7608 1.37584 32.5211 1.26251 32.2521 1.13467C31.7906 2.00008 31.2635 2.91295 30.6176 3.92255ZM103.502 35.3811C104.463 35.7582 106.432 36.421 106.989 36.9896C105.711 36.9178 105.007 36.2957 103.502 35.3811ZM137.823 65.7627L140.229 63.0809C138.14 66.9163 136.127 69.3228 138.519 66.9029C138.293 66.5354 139.053 65.2374 140.165 63.6083C140.443 63.2007 140.74 62.7709 141.052 62.3322C141.509 61.6995 141.977 61.0466 142.45 60.3922C143.619 58.7711 144.8 57.1331 145.882 55.6341C143.997 54.7243 142.293 53.9302 141.027 53.4082C140.394 53.1473 139.869 52.9539 139.48 52.8456C139.284 52.7909 139.122 52.7573 138.995 52.7462C138.901 52.7506 138.844 52.7785 138.797 52.8174L136.815 51.5361C137.409 51.8461 137.537 51.8285 138.129 52.1371C134.312 49.5668 134.694 51.4281 129.511 48.643C127.719 47.6431 126.523 46.8435 127.838 47.3352L123.615 45.5715C122.437 44.9573 122.825 44.9088 123.997 45.5212L117.722 42.5007L117.784 42.4908C116.809 42.2225 114.659 41.4861 113.617 41.1094C112.115 40.1606 114.471 41.388 114.135 41.0473L110.551 39.5955C109.289 38.6056 112.287 39.7519 114.652 40.9832C111.984 38.2644 111.648 39.8347 105.017 35.7147L108.348 37.2C106.564 35.5208 103.907 34.4811 100.42 32.2489C101.19 32.8904 107.298 36.9209 103.414 35.3285C102.401 34.7186 101.031 33.9842 98.8983 33.2002C99.0761 32.7946 97.0559 31.9071 94.5767 30.6981L95.0085 30.2593C92.2641 29.0789 92.3409 29.45 90.6518 28.9027C87.7042 27.3665 87.2905 26.6529 86.7623 25.962C82.0426 23.5028 89.7257 28.2538 84.0394 25.5394C80.1782 23.3623 77.2904 22.1885 72.3968 20.1384C69.7141 18.5743 73.041 20.0594 72.1198 19.4123L69.4549 18.6044C68.8577 18.2942 69.1164 18.263 69.2483 18.2479C67.0961 17.3755 68.8165 18.6867 65.4878 17.2034C64.3232 17.3431 59.2272 13.0245 54.8704 11.6695C53.9515 11.0244 55.5114 11.5887 55.3079 11.2329C49.5661 8.90559 50.4151 9.18145 45.5846 7.49414L41.8901 5.22045C44.5356 7.03198 40.6732 5.68711 37.3 4.48087C38.2153 5.17464 38.9906 5.77033 39.5304 6.13876L36.9234 5.01252L35.6179 4.44916L35.036 4.20272L34.517 3.9873C34.046 3.6456 34.416 3.60469 35.3014 3.77327C34.9544 3.65437 34.637 3.54903 34.3999 3.48049C33.585 2.95328 33.3121 2.66177 33.4648 2.56766C33.6118 2.46996 34.1943 2.57539 34.9909 2.78998C35.1612 2.90769 35.328 3.0237 35.4957 3.13989C35.6599 3.25589 35.8269 3.37274 35.9582 3.47142C36.2341 3.67831 36.5108 3.88427 36.7821 4.08775C38.1929 4.39401 39.5425 4.62647 39.4343 4.18967C39.0743 4.08545 38.4149 3.82175 37.7007 3.50141C38.0723 3.57953 38.3195 3.60631 38.1942 3.47793C38.0509 3.33772 37.4619 3.18905 36.5672 2.90866L36.35 2.61761C36.3118 2.56805 36.2865 2.52633 36.2361 2.46939L36.0652 2.29348C35.8375 2.05767 35.5874 1.81143 35.3213 1.55664C35.1613 1.57319 35.0068 1.59292 34.8576 1.615L31.8992 -1.06005e-07L29.9577 3.28526L29.4559 4.13445L29.3292 4.34896L29.2444 4.48968L29.074 4.7667L28.391 5.87713C26.4173 10.8894 25.0444 15.436 21.2362 23.0265C21.8208 20.9481 20.7665 22.2577 20.3282 21.8904C21.9561 20.1379 23.238 15.9899 25.4414 12.1797C24.2906 14.1668 24.2951 13.5955 24.4915 13.0378L21.2301 20.1943C20.9087 19.819 20.1332 21.4955 18.9876 23.206C20.5282 22.278 16.7341 28.6362 15.4577 31.5748C15.0947 31.6035 15.1843 30.7817 17.1056 27.3928C14.4552 30.8447 15.3995 32.7837 12.8796 36.2152C13.3266 35.3756 13.6114 34.9478 13.6536 34.5425C12.8324 36.6243 10.0551 41.2959 10.4304 40.0459L10.8781 39.2099C7.77294 44.7082 1.71291 56.1031 1.94492 57.2998C1.82562 57.3071 1.51878 56.1285 1.56379 55.7184L-1.51715 66.8608C-1.62862 65.6716 -4.83511 68.2681 -2.6694 63.4862C-3.46939 64.7622 -4.45271 66.3454 -5.75511 69.2436C-5.1832 68.3869 -3.69314 67.4537 -4.30897 68.7136C-5.55097 70.2285 -5.95364 70.7691 -6.40253 71.4127C-6.62377 71.7365 -6.86232 72.0824 -7.21122 72.5958C-7.39163 72.8477 -7.5974 73.1441 -7.84673 73.4972C-7.88003 73.5488 -7.89918 73.5698 -7.95007 73.6458C-7.99406 73.716 -8.04191 73.7867 -8.08974 73.8574C-8.18461 74.0036 -8.28269 74.1553 -8.38782 74.3131C-8.59988 74.638 -8.83056 74.9885 -9.08107 75.3691C-8.5092 74.444 -8.26586 74.5207 -8.26956 75.0476C-8.27136 75.3113 -8.32573 75.6775 -8.43906 76.0993C-8.54998 76.5217 -8.71418 76.9933 -8.95793 77.5125C-8.72313 77.6445 -8.4885 77.7835 -8.25871 77.9303C-8.53617 77.8473 -8.79652 77.9892 -9.10981 78.0906C-9.4262 78.1896 -9.80906 78.2407 -10.4433 77.9098C-10.4433 77.9098 -10.4418 77.9071 -10.44 77.904L-10.4433 77.9098C-8.94224 78.6488 -7.56453 79.3106 -6.30956 79.8942L-6.0761 80.0043L-5.95977 80.0574L-5.86917 80.0956L-5.51688 80.2422L-4.81439 80.5283L-3.40718 81.1088C-4.77432 80.4711 -4.09616 81.7083 -3.11381 82.667C-3.5349 82.1662 1.27374 85.4427 2.68184 86.2028L0.652981 84.6514C6.31104 88.3831 7.09307 86.9801 12.7582 90.597C11.9556 90.3444 10.3608 90.6397 13.1891 92.5656C14.7962 92.9506 20.4114 94.1023 25.6655 96.9168L26.4731 97.7779L30.5199 99.9134C27.6902 99.0759 20.0506 96.255 16.0172 94.4906C18.0369 96.0413 16.4248 95.1669 19.656 97.1626C20.6435 98.1137 17.6753 96.4247 16.7222 95.8462L24.1123 100.698C24.1069 99.9692 30.1705 103.769 30.1547 103.153L21.6819 98.5931C21.6794 97.8654 27.3139 100.062 32.5631 103.484C33.7819 104.536 30.9703 103.776 30.9724 104.021C31.7755 104.273 36.2242 106.837 36.6324 107.271L34.2039 106.137C37.0365 108.188 39.4597 108.47 42.6968 111.196C43.9025 111.997 45.9351 114.162 46.3404 113.987C44.7151 112.135 45.4793 110.048 47.0897 110.44C47.4963 110.748 53.1693 115.042 54.384 116.216C56.1091 117.948 50.6578 115.429 52.1244 116.906C52.2879 116.81 53.5113 117.333 54.0118 117.57C55.2222 118.497 53.2015 117.676 56.0401 119.365C56.8367 119.13 61.698 122.977 57.6426 119.747C60.4713 121.313 60.4807 121.679 63.707 123.672C62.8975 122.686 67.32 124.316 70.1545 125.885C69.9073 125.919 70.4131 126.479 70.6614 126.746C71.9318 127.557 73.0472 128.285 74.1071 128.989C75.2206 129.727 76.2487 130.412 77.2525 131.08C77.9547 129.79 78.6388 128.538 79.3611 127.214C80.0385 125.963 80.7407 124.637 81.5143 123.128C81.9086 122.687 83.4373 120.099 83.0923 121.357C83.4022 120.512 83.5896 119.685 84.4501 117.971C86.616 114.909 82.5768 121.815 84.4385 119.589C84.2276 119.21 86.2551 114.947 87.2979 112.413C86.4204 112.908 84.3304 117.984 83.2821 120.52C82.5945 120.183 84.047 115.578 86.693 109.632C88.8762 104.947 88.1539 107.864 88.4653 107.016C93.0032 98.4405 91.0362 99.049 95.1993 92.1291C97.0919 89.5061 96.1303 92.4424 96.7661 91.972C95.0167 95.8031 93.5484 97.5815 92.2666 100.129L94.0733 97.1094C93.6082 98.3749 92.4371 100.93 91.6143 102.229C93.2259 100.044 99.1553 87.6768 102.925 81.1966C103.385 79.939 104.28 77.8183 103.609 78.6957L102.592 80.8344C101.251 82.594 104.137 76.6194 102.609 79.2047C103.808 76.2497 105.042 72.8819 107.278 69.0018L108.158 68.5081C107.967 68.5183 106.53 70.9593 106.108 72.155C106.737 70.3826 109.904 66.3938 110.184 64.2418L108.412 66.8572C108.908 65.6392 109.412 64.2815 109.973 62.8674C110.113 62.5226 110.252 62.1728 110.393 61.8192C110.446 61.6479 110.504 61.4767 110.559 61.3028C110.668 60.9736 110.778 60.6747 110.92 60.3742C110.635 60.2496 110.383 60.1219 110.133 59.967C110.214 60.2261 110.237 60.2906 110.314 60.338C110.383 60.3823 110.488 60.4004 110.571 60.4928C110.469 60.6096 110.273 60.8156 109.965 61.0209C110.277 60.851 110.362 60.8965 110.281 61.1652C110.242 61.2938 110.164 61.4641 110.076 61.6534C109.833 62.1294 109.568 62.6494 109.308 63.1595C108.234 65.2494 107.251 67.1774 108.519 65.6228C106.537 67.8558 105.958 69.9313 103.669 73.0045C103.887 72.9843 104.591 71.9724 102.995 74.8933C102.974 75.052 102.875 75.3993 102.808 75.6179C102.757 75.7062 102.737 75.7359 102.693 75.8118C102.732 75.7564 102.759 75.7145 102.796 75.6576C102.756 75.7997 102.754 75.8133 102.835 75.6014C103.268 74.9318 103.645 74.4039 103.854 74.2174C103.478 75.8807 101.056 80.5846 100.436 82.277C99.4582 83.995 100.625 81.4466 99.9584 82.3166L99.0311 84.8437C98.5468 84.8937 96.0406 89.2061 97.9447 84.956L96.0215 88.6755C94.6954 90.7652 93.0685 93.7418 92.2704 95.6811C91.2926 97.399 90.3998 100.326 90.8995 98.6494L88.1337 104.609L88.0163 104.618C85.0199 110.36 82.5429 116.796 78.5137 123.053C78.0904 123.985 77.6638 124.938 77.1477 126.019C77.0917 126.134 77.0339 126.252 76.9772 126.375C76.9533 126.428 76.9282 126.484 76.9012 126.543C76.8467 126.655 76.7907 126.771 76.7291 126.894C76.6079 127.134 76.4691 127.389 76.315 127.642C76.2592 127.599 76.1874 127.547 76.1135 127.494C76.0121 127.288 75.9265 127.096 75.8663 126.918C75.7046 126.852 75.4886 126.71 75.2811 126.555C74.5127 126.038 73.6939 125.487 72.9104 124.965C71.3425 123.911 69.9255 122.991 69.3216 122.829C67.2883 120.425 58.0039 115.484 53.953 112.744L53.5506 113.04C50.7159 111.231 47.9121 109.626 44.2743 107.565L44.2733 108.051C41.0457 106.424 36.5884 102.884 31.7406 99.8952C32.1514 99.9667 33.3527 100.769 34.1685 101.392C28.8969 96.9914 21.6483 94.3366 16.781 90.4824C15.3977 89.7934 14.4811 89.1581 13.6233 88.4982C13.7454 88.5715 13.8582 88.6367 13.9572 88.6829C13.8266 88.5934 13.6293 88.4696 13.4268 88.3421C12.8891 87.9217 12.3383 87.4806 11.732 87.0217C12.2234 87.4499 12.7043 87.8471 13.1372 88.1644C12.1298 87.5404 10.579 86.6271 9.02869 85.7782L8.6272 85.0071C8.50277 84.9317 8.40332 84.8743 8.27475 84.8001C6.89689 83.7434 6.98546 84.239 7.59133 85.0075C6.80277 84.5984 6.06461 84.2396 5.47581 83.9941C4.66348 82.6439 1.43056 81.74 0.20724 80.0781C-0.276176 79.9513 -1.60493 79.2046 -3.09292 78.3702C-3.46749 78.1645 -3.85074 77.9503 -4.23165 77.7374C-4.4612 77.6084 -4.5159 77.5874 -4.63346 77.5304C-4.74274 77.4779 -4.8538 77.4279 -4.95783 77.3784C-5.39484 77.1712 -5.85281 76.9706 -6.30104 76.8077C-6.23232 76.4833 -6.23195 76.2269 -6.33958 76.1115C-6.2026 76.0676 -5.98324 75.761 -6.28453 76.3301C-6.10293 76.0398 -5.9218 75.7503 -5.74424 75.4615C-5.66072 75.3229 -5.57703 75.1841 -5.49366 75.0457L-5.34103 74.7813L-5.16495 74.4642C-4.70187 73.6191 -4.28216 72.7782 -3.95595 71.9454L-3.06619 71.4714L-1.66267 67.314C-0.112004 65.1669 0.579475 64.3031 -0.285493 66.7999C2.13485 60.9486 1.92958 62.1882 3.90774 57.1676L4.10238 57.5704C5.0008 55.8804 6.03602 52.9602 6.84833 52.0865C9.4891 48.6469 17.0297 33.5004 22.8271 24.1379C20.8784 25.5078 25.6793 19.8708 25.1668 19.0987C25.6924 18.6544 26.5465 17.3745 25.8882 19.0431C28.3451 13.9926 30.2567 11.822 31.493 8.08687C32.0191 7.64158 31.2443 9.31696 31.6473 8.88554C31.8139 8.46427 32.3045 7.21451 32.7134 6.77236C33.1166 6.34068 32.5075 7.59502 32.181 8.42839C32.56 7.71734 32.877 7.0889 33.1419 6.53259L33.1858 6.44021L33.1928 6.40798L33.2112 6.34594C33.223 6.30237 33.2333 6.26037 33.2453 6.22146C33.2653 6.13823 33.2825 6.05332 33.2976 5.96653C33.3598 5.62245 33.3926 5.24448 33.4056 4.85185C33.5694 4.62921 33.6417 4.298 33.7043 3.9721C34.1688 4.3006 34.5261 4.54775 34.8475 4.74916C34.9325 4.8018 34.9943 4.84097 35.0888 4.89482C35.2087 4.95983 35.328 5.0252 35.4428 5.08691C35.6739 5.20794 35.8995 5.31952 36.1203 5.42236C37.012 5.83461 37.8581 6.1095 38.8959 6.35968C39.6883 7.02268 41.0735 7.99339 37.8717 6.49094C39.6359 7.41047 48.5855 12.2293 49.0282 11.7957C49.5187 12.2065 51.4976 13.0762 51.9956 13.2492C55.9729 15.2737 56.3004 15.4955 60.2446 17.4023L59.2006 16.7738C61.0645 16.9154 62.5307 18.2597 65.7296 19.7611L65.6056 19.7808C72.6248 23.8527 68.8435 21.1232 75.7337 25.212L75.5412 24.6243C76.631 24.1128 81.6285 28.2857 85.9382 30.0327L84.5535 29.0612C86.9642 29.9027 90.312 33.3708 92.5366 34.6128C92.9951 34.9343 91.6941 34.3396 90.9731 34.0485C96.6834 37.5206 92.0034 33.919 96.503 36.0152C97.1842 36.7018 95.095 36.1942 98.0586 37.7378C99.4348 38.7058 107.176 41.1623 110.988 43.7298C110.197 43.0679 109.41 42.4079 111.553 43.277C114.752 44.7773 119.697 48.3514 122.888 49.1011C123.261 49.3606 123.384 49.4917 123.373 49.5529C125.877 50.5851 131.371 53.1832 133.01 53.5442C133.393 54.1528 134.519 54.8765 135.985 55.639C136.351 55.829 136.74 56.0224 137.142 56.2165C137.211 56.2487 137.28 56.2809 137.349 56.3125L137.518 56.3887C137.638 56.441 137.757 56.4924 137.877 56.5447C138.367 56.7547 138.909 56.9728 139.488 57.2069C139.219 57.6602 138.93 58.1442 138.631 58.6143C138.483 58.8499 138.333 59.0811 138.186 59.2999C137.96 59.6295 137.73 59.9491 137.521 60.2327C136.678 61.3727 136.042 62.0428 135.767 61.8214L130.88 68.6152L130.894 68.3541C127.658 72.6138 126.809 74.3373 125.966 76.0514C125.158 76.992 125.587 76.1877 125.59 76.0624C120.744 82.2009 120.331 82.8617 117.017 88.5583L116.249 88.8405C115.413 90.4292 109 97.5359 104.894 104.031C104.897 103.94 104.92 103.76 105.229 103.231C100.556 110.501 92.017 119.146 91.4711 122.667L88.4316 127.497C92.8868 121.632 88.3573 128.805 90.3688 126.522C88.7331 128.912 85.5434 132.267 87.5796 129.346L87.9745 128.947C88.0595 127.383 82.3196 136.155 81.9715 135.636C80.9097 137.082 79.8297 138.479 78.6813 139.778C77.5311 141.067 76.3181 142.277 74.9939 143.261C73.6743 144.251 72.2576 145.037 70.7735 145.523C69.281 145.987 67.7277 146.162 66.1701 146.049C63.0424 145.83 59.9809 144.57 57.0793 143.021C55.622 142.242 54.1936 141.384 52.7677 140.496C51.3272 139.597 49.8928 138.706 48.4687 137.817L49.439 139.201L45.4578 136.705C44.4867 135.927 44.3195 135.393 47.1611 137.172C45.8587 135.926 42.2054 134.497 42.0465 134.571C36.5985 130.901 44.6409 135.247 42.9333 134.18L40.5799 132.79L41.0639 133.182C39.0324 132.253 38.7147 132.397 35.2965 130.258C33.195 128.808 34.4007 129.223 33.56 128.673C33.5878 128.636 33.3135 128.44 32.2574 127.85L27.2438 124.699L28.9847 126.391C26.6119 125.236 24.2562 123.449 26.2696 125.392C23.3363 122.503 7.63034 113.541 5.68371 112.005C2.35071 110.409 -0.736499 108.502 -4.53979 106.109C-3.64704 106.787 -3.38756 107.646 -6.65304 105.552C-4.80265 105.249 -12.4179 101.381 -14.6256 98.9859C-12.5491 100.953 -24.0882 93.3358 -20.7818 96.3474C-23.4776 94.5696 -20.7243 95.849 -22.6305 94.3251C-24.288 93.4214 -25.9402 92.3684 -27.3974 91.0692C-28.8627 89.7822 -30.0863 88.2122 -30.7108 86.4452C-31.0208 85.5647 -31.1965 84.6388 -31.1921 83.6853C-31.1881 82.7331 -31.0321 81.7586 -30.7519 80.7776C-30.1948 78.8122 -29.1488 76.8496 -27.9571 74.894C-28.0125 74.6822 -29.0555 75.8707 -28.1881 74.0591C-27.068 72.827 -25.875 71.6331 -24.6817 70.402C-23.6506 68.8111 -24.4259 68.4452 -21.9769 65.9426C-22.3686 66.2628 -22.9532 66.7427 -22.2627 65.6746C-10.7787 50.7953 -0.618652 33.978 11.5906 19.255C9.84646 21.1858 10.8152 19.7619 11.9444 18.1442C11.1442 19.1496 11.6391 17.8918 11.3167 17.9721L16.421 11.8035C16.7693 10.2671 21.3309 4.79017 21.342 3.77647L19.9681 5.90158C21.357 2.76394 16.0191 8.86923 15.593 7.96441C14.0474 11.4839 8.92746 15.4076 6.2592 21.089C5.32912 22.1012 6.70499 19.9787 6.11727 20.4561C5.51697 21.951 4.48752 23.5389 2.32828 26.3044L2.48241 25.9277C-3.12904 34.0176 -5.86943 37.2491 -12.4566 46.1369L-11.6339 45.7166C-13.0534 47.6239 -13.4509 47.9549 -14.1806 48.8012C-15.2253 51.404 -10.2976 43.3713 -11.1458 45.8165C-13.6791 47.8841 -20.8355 59.4921 -22.879 60.6549C-24.9921 63.6374 -21.8517 60.0693 -23.9666 63.049L-24.7463 63.6838L-24.9965 64.6395C-26.4284 66.5627 -27.4025 67.3573 -27.6407 67.2977C-27.2813 66.8383 -26.7388 65.9107 -26.393 65.3913C-27.4205 66.5711 -28.6606 68.3614 -29.7425 69.9928C-30.8413 71.6355 -31.7181 73.185 -32.0414 73.6536C-31.3575 72.6138 -30.6419 71.624 -29.9128 70.6702C-31.3052 72.8093 -32.8071 75.1609 -33.879 77.9574C-34.4048 79.3535 -34.8081 80.8761 -34.9258 82.4853C-35.0492 84.0881 -34.8539 85.773 -34.3107 87.3168C-33.779 88.8688 -32.934 90.2583 -31.9657 91.442C-30.9922 92.6276 -29.8975 93.6227 -28.786 94.4904C-26.5559 96.2218 -24.2443 97.4792 -22.1557 98.6107L-22.6674 98.0547C-16.2455 101.561 -17.7989 101.313 -10.8748 105.367L-11.1463 105.256C-9.67429 105.923 -7.79208 106.96 -5.93363 108.128C-7.78565 107.27 -2.93078 110.521 -5.33359 109.356C1.62858 113.161 -1.82824 111.137 3.02648 113.231L3.87688 114.152C5.55835 114.827 5.76893 114.765 9.22954 116.788C6.27682 115.315 11.1365 118.569 7.7989 116.969C14.5712 122.008 18.8268 122.872 21.5444 125.819C25.3252 127.039 15.6188 121.562 17.5668 122.522C16.1843 121.311 20.6493 123.593 22.8487 125.056C25.1264 126.48 26.1078 128.471 31.8737 131.998C31.3033 131.64 31.2268 131.676 30.6568 131.323C32.6855 132.851 35.0456 133.642 37.486 135.597C39.2642 136.025 40.9 137.737 41.7039 137.381L36.3387 134.275C39.4311 135.955 42.6814 136.961 47.3969 140.342C46.9335 140.23 45.3667 139.491 44.3039 138.962C45.6338 140.033 47.1542 140.551 48.5355 141.655C47.727 142.014 42.0337 137.846 38.5377 136.345C39.9265 137.557 44.879 139.626 42.8573 139.304C44.2765 139.591 45.6772 140.492 47.2606 141.536C48.0546 142.059 48.8894 142.618 49.7965 143.156C50.7088 143.696 51.7056 144.219 52.8101 144.638L52.3244 144.862C53.0067 145.171 54.4322 145.768 55.6654 146.396C54.8355 146.184 54.0155 145.951 53.1953 145.71C54.9806 146.441 56.5887 147.383 58.2939 148.23C59.9919 149.07 61.8182 149.821 63.85 150.018C62.8068 149.842 62.0151 149.645 61.4224 149.458C60.8218 149.288 60.4202 149.123 60.1401 149.001C59.5819 148.755 59.5323 148.66 59.6235 148.6C59.7144 148.54 59.9453 148.514 59.958 148.419C59.9711 148.325 59.7624 148.165 59.0205 147.783C61.3313 148.532 62.8907 148.855 64.0434 149.125C64.6243 149.245 65.0961 149.38 65.538 149.463C65.9782 149.555 66.3677 149.681 66.7822 149.744C67.6063 149.899 68.5054 150.062 69.9496 149.905C70.6719 149.836 71.5352 149.668 72.5374 149.32C72.7896 149.229 73.0525 149.131 73.3242 149.03C73.588 148.907 73.863 148.78 74.1503 148.647C74.4428 148.517 74.7265 148.353 75.0233 148.178C75.3224 148.006 75.6362 147.83 75.935 147.616C75.6194 147.859 75.0944 148.128 74.5559 148.406C74.2798 148.538 73.987 148.651 73.7089 148.763C73.5684 148.819 73.4335 148.871 73.3023 148.922C73.169 148.966 73.0359 149.001 72.9139 149.037C72.4235 149.173 72.0559 149.257 71.9545 149.226C71.8545 149.2 72.026 149.084 72.5941 148.81C73.1389 148.642 73.6866 148.39 74.2615 148.151C74.5416 148.024 74.8155 147.883 75.0936 147.746C75.3723 147.615 75.6362 147.467 75.8928 147.32C76.9418 146.752 77.8181 146.147 78.4058 145.802C79.1225 145.173 79.6102 144.687 79.9372 144.332C80.2688 143.977 80.4545 143.757 80.533 143.633C80.6901 143.385 80.4667 143.548 80.1348 143.79C79.4674 144.279 78.3947 145.084 79.4248 143.905C80.5 143.219 81.0509 142.5 81.5826 141.683C82.0969 140.851 82.5923 139.904 83.4471 138.635L83.8092 138.886C85.0697 137.333 85.6875 136.428 86.0317 135.848C86.3752 135.267 86.4232 135.013 86.4589 134.776C86.5307 134.306 86.5483 133.918 88.7639 131.182L87.4963 133.941L89.5384 130.89L89.4908 131.796C91.5526 128.359 92.3638 127.414 94.7872 124.343C94.0013 124.892 94.4472 123.459 96.4831 120.66C98.0877 118.91 96.0367 121.973 98.8853 117.978C98.4539 119.035 98.0128 120.217 96.4258 121.7C96.4113 121.961 96.0016 122.743 95.9837 123.01C97.7268 121.136 99.814 117.897 100.86 116.462C100.442 117.003 99.9397 117.649 99.6433 117.951L103.356 111.854C104.152 111.05 103.733 111.844 103.317 112.629C104.13 111.439 104.557 110.517 105.778 108.785C105.743 109.439 106.115 109.551 104.479 112.069L108.166 106.369C108.558 106.096 110.564 103.817 110.151 104.605C112.539 101.698 115.04 96.7611 118.205 92.908C118.303 92.6584 118.558 92.2012 119.142 91.3168C121.972 87.5884 124.775 84.503 127.663 79.7388L130.037 77.5783C132.49 73.9891 126.872 80.5399 130.953 74.5609C133.818 70.309 132.522 73.341 133.728 71.9983C134.975 69.7531 137.062 65.7913 140.264 62.3055C139.442 63.6308 138.643 64.5597 137.823 65.7627Z" fill="#82C6DD"/>
</svg>
