<svg width="159" height="116" viewBox="0 0 159 116" fill="none" xmlns="http://www.w3.org/2000/svg">
<path d="M94.1981 44.4955C96.8241 42.4495 96.8241 42.4495 99.1378 33.9832C96.6297 37.0325 93.5402 39.8067 94.1981 44.4955Z" fill="#FC5B70"/>
<path d="M50.2617 -32.9607C49.5219 -33.3077 48.0131 -32.6863 47.657 -31.191C47.3762 -30.0103 45.9423 -29.3267 46.0851 -27.9029C45.1552 -25.9376 43.9295 -24.0978 43.5407 -21.9037C43.3545 -21.778 43.2891 -21.6061 43.3464 -21.3881C40.9826 -16.9882 38.3761 -12.7066 36.8042 -7.92158C36.7106 -6.92792 35.4411 -6.16837 36.2227 -5.00117C36.1742 -4.50081 34.7381 -4.65247 35.6191 -3.71595C32.3196 1.00872 30.9362 6.57035 28.8296 11.8161C27.2801 13.7931 26.1467 15.9264 26.3016 18.5444C24.7356 20.1879 23.8665 22.0888 24.1413 24.4104C23.6755 24.7294 22.9339 24.6758 22.7803 25.4173C22.3147 27.5433 20.4551 29.1579 20.5461 31.4901C20.0377 32.8548 18.1338 33.8701 19.4924 35.702C19.2233 36.4704 17.7586 37.4241 18.8391 37.9141C20.1637 38.5145 19.8996 36.7282 20.3119 35.9665C21.6911 34.7931 21.1545 33.1971 21.2446 31.7387C21.6284 30.6067 24.1053 30.8745 23.1697 28.8594C25.4095 26.6848 26.0563 23.7704 26.8542 20.9268C27.0951 20.2787 27.3363 19.6298 27.5775 18.9809C28.7765 17.4356 29.209 15.5746 29.7345 13.7514C32.428 13.0159 31.6047 10.3653 32.401 8.64016C34.4739 4.1479 37.402 0.0366095 38.5462 -4.87452C40.5576 -5.65738 38.8816 -6.85564 38.8839 -7.86536C39.7708 -8.09981 40.329 -8.60562 40.3103 -9.58965C41.5501 -10.6141 42.4151 -11.7915 41.9187 -13.5252C42.0788 -15.0003 44.2883 -15.6762 43.4935 -17.5246C44.6159 -18.1458 44.9012 -19.0469 44.3939 -20.2139C44.734 -20.8166 45.0737 -21.4185 45.4135 -22.0205C47.1881 -22.4611 46.5214 -24.1706 47.0865 -25.2396C47.3081 -25.6538 47.5305 -26.0677 47.7522 -26.4819C49.1768 -27.4131 49.277 -29.0734 49.8638 -30.4457C50.2081 -31.2484 51.742 -32.2666 50.2617 -32.9607Z" fill="#FC5B70"/>
<path d="M128.524 62.846C126.685 65.2978 124.592 67.6549 125.183 71.0064C126.946 68.5263 128.547 65.9866 128.524 62.846Z" fill="#FC5B70"/>
<path d="M133.281 52.9869C133.498 52.5232 133.945 51.6168 132.805 51.3525C131.889 51.1404 131.5 51.6789 131.305 52.4079C130.739 54.5361 130.212 56.6746 129.67 58.809C129.134 59.7633 128.538 60.7022 128.615 61.9666C130.622 61.6031 129.757 59.9764 130.359 59.1184C132.153 57.4716 132.324 55.0374 133.281 52.9869Z" fill="#FC5B70"/>
<path d="M42.2399 -40.599C41.7483 -41.4413 41.9331 -42.9644 40.7065 -43.0124C39.2111 -43.0703 39.8279 -41.5303 39.5226 -40.6844C39.1678 -39.7029 38.8049 -38.7245 38.4447 -37.7442C37.8474 -36.4277 37.2502 -35.1111 36.6536 -33.7943C36.6896 -33.3347 36.7256 -32.8751 36.7615 -32.4155C34.6141 -29.7914 34.3415 -26.316 32.6935 -23.4651C30.6764 -22.787 32.8645 -20.7426 31.5174 -19.8473C29.5999 -17.0438 27.9015 -14.1676 28.423 -10.5519C28.4248 -10.5521 28.4266 -10.5523 28.4283 -10.5524C28.437 -10.5507 28.4927 -10.5264 28.4927 -10.5264C25.76 -9.67077 26.5838 -6.55652 24.9764 -4.98498C24.5804 -3.19181 22.0151 -2.11585 23.2067 0.181184C24.7739 -0.594439 25.0096 -2.91517 27.1466 -3.04675C27.5883 -3.0736 28.0425 -3.6411 27.5994 -4.05789C27.2695 -4.3678 26.6166 -4.33353 26.1073 -4.45251C26.6133 -6.12396 29.3217 -6.41734 28.7892 -8.73857C29.8196 -8.97808 29.8651 -9.85744 30.0358 -10.6558C29.8596 -12.107 32.8763 -12.7673 31.0213 -14.6343C32.0375 -15.1936 33.058 -15.7512 32.5785 -17.2132C32.7509 -17.6466 32.9225 -18.0803 33.0949 -18.5137C34.057 -19.6558 33.6006 -21.8093 35.6879 -22.15C35.5232 -22.5404 35.3586 -22.9307 35.1933 -23.3213C35.7915 -23.665 36.7273 -23.7575 36.322 -24.8449C36.8931 -26.9111 38.5208 -28.7001 37.9511 -31.0647C38.0511 -31.2866 38.1512 -31.5084 38.2506 -31.7306C38.67 -32.8344 39.0901 -33.9379 39.5095 -35.0417C40.4706 -35.9139 40.475 -37.1939 40.8963 -38.2961C42.0228 -38.6607 43.2394 -38.8869 42.2399 -40.599Z" fill="#FC5B70"/>
<path d="M60.8526 10.5943C61.4318 9.99331 61.588 9.27993 61.4192 8.4788C61.779 7.58645 62.9541 6.83241 62.0288 5.71849C61.6732 5.29009 61.1773 5.67532 60.7826 5.92719C59.5144 6.73553 60.4726 7.52598 60.7958 8.32211C60.085 9.03268 56.8718 7.86611 59.0038 10.7103C57.0709 11.9956 58.7773 14.6281 57.0485 15.9896C56.2743 17.2278 55.4829 18.4644 56.7812 20.1033C56.8121 18.4033 58.0566 17.3366 58.5092 15.8849C59.0282 14.0042 60.9133 12.7307 60.8526 10.5943Z" fill="#FC5B70"/>
<path d="M121.734 80.0556C121.567 79.5627 121.008 79.6829 120.535 79.9069C118.234 80.9943 120.164 82.8455 119.726 84.264C119.691 84.3767 119.667 84.4927 119.638 84.6067C118.198 84.728 117.449 87.2586 118.249 89.4078C119.248 88 120.427 86.7069 120.138 84.8007C121.267 83.4163 122.392 82.0016 121.734 80.0556Z" fill="#FC5B70"/>
<path d="M123.841 73.4116C122.694 73.707 122.064 74.5146 121.696 75.5807C122.186 75.4335 122.674 75.2868 123.162 75.1401C122.909 76.3516 122.655 77.5634 122.401 78.775C123.703 77.2908 124.492 75.6483 124.974 73.9202C125.415 72.3402 124.587 72.7825 123.841 73.4116Z" fill="#FC5B70"/>
<path d="M136.261 43.2765C135.397 45.6505 134.432 47.9686 133.358 50.3651C135.333 48.5166 136.266 46.0944 136.261 43.2765Z" fill="#FC5B70"/>
<path d="M54.8803 22.0888C52.6991 21.6712 53.1773 24.8158 52.2502 26.307C51.6299 27.2545 51.2999 28.2203 51.9736 29.4691C53.1985 28.848 53.3717 27.8236 53.6079 26.8398C53.9938 25.1376 55.9627 22.2958 54.8803 22.0888Z" fill="#FC5B70"/>
<path d="M115.364 96.0381C117.592 94.4385 117.218 92.097 117.609 90.0891C116.429 91.8043 115.178 93.4989 115.364 96.0381Z" fill="#FC5B70"/>
<path d="M18.7117 38.5916C16.4746 40.192 16.8548 42.5953 15.5656 44.0419C15.1204 45.1703 14.2474 46.2836 15.5763 47.6227C16.2371 46.6232 16.8743 45.7213 16.4369 44.4621C17.7116 42.9049 18.6919 41.2405 18.7117 38.5916Z" fill="#FC5B70"/>
<path d="M133.203 8.34933L133.206 8.34783L133.207 8.34177L133.204 8.3441L133.203 8.34933Z" fill="#FC5B70"/>
<path d="M131.143 13.6321C133.406 12.4855 132.643 10.1592 133.203 8.34852C130.539 9.33858 131.393 11.7007 131.143 13.6321Z" fill="#FC5B70"/>
<path d="M105.469 16.1134C106.872 14.8365 107.805 13.5376 108.159 11.8762C108.306 11.1849 108.005 10.7133 107.345 10.6007C107.107 10.5606 106.808 10.8827 106.537 11.0395C107.716 12.9896 105.025 14.014 105.469 16.1134Z" fill="#FC5B70"/>
<path d="M0.978294 53.9961C2.01344 51.8998 2.11714 51.2668 1.85934 49.9531C1.41479 51.3843 0.601904 52.5455 0.978294 53.9961Z" fill="#FC5B70"/>
<path d="M21.2068 5.26559C21.1023 5.10791 20.0327 5.3567 19.8981 6.02342C19.7549 6.73596 19.641 7.6149 20.3102 8.069C20.5192 8.21067 21.2423 7.59465 21.8241 7.27344C21.6208 6.51307 21.5582 5.79398 21.2068 5.26559Z" fill="#FC5B70"/>
<path d="M135.891 3.35638C133.703 4.93457 133.526 6.67042 133.208 8.34155C134.986 7.33061 134.926 5.48661 135.891 3.35638Z" fill="#FC5B70"/>
<path d="M48.5828 32.851C48.7366 34.0445 49.3152 34.5767 50.0999 34.7955C50.1977 34.8226 50.8782 33.7664 50.7445 33.4229C50.3897 32.5077 49.4326 32.957 48.5828 32.851Z" fill="#FC5B70"/>
<path d="M13.1172 19.9863C13.8478 22.0663 12.0648 22.8459 13.103 24.4893C13.7683 23.1654 14.7925 22.2441 13.1172 19.9863Z" fill="#FC5B70"/>
<path d="M63.2547 2.27646C65.3238 2.05826 65.3708 0.712667 65.8244 -0.296429C65.3885 -0.518938 64.953 -0.740428 64.5175 -0.961914C64.1273 0.0388633 63.737 1.03965 63.2547 2.27646Z" fill="#FC5B70"/>
<path d="M67.5115 -6.57386C65.2475 -6.45964 67.2923 -4.67364 66.5072 -3.98528C65.8439 -2.97744 65.1807 -1.96958 64.5177 -0.962474C64.9532 -0.740987 65.3884 -0.518773 65.8246 -0.297C66.6511 -2.07559 68.17 -3.5461 68.2261 -5.66916C68.7426 -6.79606 69.3488 -7.89223 69.7496 -9.05916C70.1272 -10.1598 69.4188 -10.0811 68.7179 -9.88253C68.6267 -8.66685 68.6077 -7.42556 67.5115 -6.57386Z" fill="#FC5B70"/>
<path d="M17.6176 12.9369C17.0298 12.5933 16.5268 12.7665 16.2227 13.4052C16.0626 13.9113 16.1922 14.3981 16.7134 14.4692C17.2845 14.547 17.8999 14.3287 18.0665 13.6778C18.1184 13.4752 17.8461 13.07 17.6176 12.9369Z" fill="#FC5B70"/>
<path d="M131.14 13.6408L131.143 13.6395L131.144 13.632L131.139 13.6345L131.14 13.6408Z" fill="#FC5B70"/>
<path d="M129.788 16.2744C131.193 15.7601 131.318 14.7702 131.14 13.64C129.897 14.1128 129.615 15.0313 129.788 16.2744Z" fill="#FC5B70"/>
<path d="M48.7677 36.61C47.802 36.7273 47.1585 37.0457 47.17 38.0481C46.3683 38.9418 44.8072 40.0036 46.1063 41.0693C47.005 41.8061 47.5214 40.0234 48.1021 39.2511C49.3202 38.5952 48.1244 37.43 48.7677 36.61Z" fill="#FC5B70"/>
<path d="M44.1185 45.2213C41.9177 45.9184 42.4466 48.1401 41.6573 49.6256C40.9685 51.2724 39.5547 52.8059 40.9207 55.3793C41.6473 53.516 42.1774 52.1564 42.7076 50.7968C43.312 49.2535 43.9161 47.7109 44.5211 46.1678C44.9585 44.9398 45.9591 43.8686 45.7241 42.3335C44.1591 42.871 44.6334 44.3005 44.1185 45.2213Z" fill="#FC5B70"/>
<path d="M116.789 48.4395C116.785 48.4491 116.783 48.4603 116.78 48.471C116.79 48.468 116.796 48.4642 116.805 48.4612L116.789 48.4395Z" fill="#FC5B70"/>
<path d="M115.449 51.38C117.151 50.8755 116.458 49.4538 116.78 48.4699C115.263 48.9312 115.248 50.0512 115.449 51.38Z" fill="#FC5B70"/>
<path d="M141.991 28.6992C139.684 29.475 141.451 31.1089 141.358 32.3762C141.647 31.6358 141.935 30.8953 142.224 30.1548C143.001 30.0326 143.432 29.5559 143.203 28.8109C142.965 28.0326 142.443 28.2681 141.991 28.6992Z" fill="#FC5B70"/>
<path d="M101.122 26.4967C100.939 26.8683 100.742 27.4092 101.359 27.5899C101.59 27.6569 101.914 27.402 102.119 27.3235C102.303 26.7455 102.37 26.2633 101.832 26.0824C101.652 26.0217 101.228 26.2813 101.122 26.4967Z" fill="#FC5B70"/>
<path d="M7.59487 36.8062C7.17878 36.4525 6.59564 36.6792 6.44815 37.0791C6.31099 37.4526 6.55642 37.9659 6.63348 38.4179C7.00046 38.2458 7.36845 38.0733 7.7976 37.8722C8.38008 37.4538 7.88398 37.0511 7.59487 36.8062Z" fill="#FC5B70"/>
<path d="M116.79 48.4386L116.806 48.4599C116.817 48.4464 116.824 48.4323 116.834 48.4183C116.818 48.4247 116.806 48.4322 116.79 48.4386Z" fill="#FC5B70"/>
<path d="M117.717 45.8019C116.604 46.5785 117.363 47.6929 116.833 48.4187C118.101 47.9212 118.228 47.0709 117.717 45.8019Z" fill="#FC5B70"/>
<path d="M88.5082 59.6422C88.1018 59.4159 87.5769 59.4171 87.5153 60.0335C87.4922 60.2642 87.8516 60.5331 88.1014 60.8745C88.4214 60.6969 88.8438 60.5956 88.8908 60.4013C88.944 60.1823 88.7261 59.7636 88.5082 59.6422Z" fill="#FC5B70"/>
<path d="M8.21195 34.426C8.80014 34.597 8.8376 34.0186 9.07942 33.5614C9.03366 33.3724 8.96935 33.1051 8.90429 32.8374C8.57766 33.0972 8.17597 33.3082 7.95548 33.639C7.85436 33.7919 8.05061 34.3792 8.21195 34.426Z" fill="#FC5B70"/>
<path d="M109.35 8.61509C109.323 8.28365 109.3 7.9891 109.277 7.69456C108.899 7.85057 108.399 7.91149 108.183 8.19126C108.002 8.42411 108.154 8.91452 108.16 9.29115C108.534 9.07874 108.907 8.86605 109.35 8.61509Z" fill="#FC5B70"/>
<path d="M138.886 36.5112C138.23 36.3763 137.764 36.7113 137.665 37.3506C137.622 37.6336 137.87 37.9624 137.985 38.27C138.423 37.9511 138.861 37.6325 139.18 37.4008C139.475 36.8373 139.231 36.5822 138.886 36.5112Z" fill="#FC5B70"/>
<path d="M11.9468 25.1298C11.6113 25.5928 11.3064 25.8314 11.2809 26.0968C11.2544 26.3753 11.4172 26.7836 11.6378 26.9476C11.9453 27.1759 12.3541 26.977 12.3509 26.592C12.3485 26.1768 12.1342 25.7637 11.9468 25.1298Z" fill="#FC5B70"/>
</svg>
