<svg width="31" height="59" viewBox="0 0 31 59" fill="none" xmlns="http://www.w3.org/2000/svg">
<path d="M30.6032 26.8991C30.5244 26.1069 30.0894 26.6238 29.7835 26.6667C29.2717 26.5637 28.7604 26.4601 28.2485 26.3571C27.8057 26.2847 27.1443 25.6381 27.1655 26.7873C25.8777 26.4718 24.5849 26.3441 23.2807 26.6943C23.2533 26.6106 23.2324 26.4574 23.197 26.4538C21.3663 26.2664 19.5366 25.8489 17.6968 26.3865C17.6167 26.3567 17.5355 26.3319 17.4526 26.311C17.3494 25.6749 17.0757 25.626 16.6587 26.0714C15.7624 26.54 14.9145 25.778 14.0292 25.9671C12.8428 26.1574 11.7383 25.7504 10.6092 25.5017C10.4714 25.4711 10.2943 25.6252 10.1351 25.6939C9.81726 25.596 9.50519 25.4632 9.17981 25.4081C8.55404 25.3024 9.12674 25.7134 9.01633 25.8378C8.49989 25.8133 7.98398 25.7893 7.46754 25.7648C7.04174 25.0474 6.47737 25.2034 5.88939 25.5037C5.2378 25.4286 4.55235 25.4703 4.03321 24.9401C4.15535 24.5055 4.65792 24.4946 4.86773 24.1574C5.03473 23.8777 5.20228 23.5974 5.36928 23.3177C5.35704 22.915 5.58896 22.7951 5.93552 22.8078C6.19105 22.1997 7.2801 22.249 7.08486 21.2857C7.24334 21.2722 7.40184 21.2581 7.56033 21.244C8.05254 21.4163 8.01119 20.7699 8.34976 20.706C8.95693 21.0666 9.28838 21.0037 9.12692 20.1794C8.96071 20.1966 8.79504 20.2144 8.62882 20.2322C8.56258 20.3115 8.49579 20.3907 8.42956 20.4694C8.49581 20.3901 8.56202 20.312 8.62882 20.2322C8.79448 20.215 8.96126 20.1967 9.12692 20.1794C9.40104 19.6838 9.65713 20.1068 9.9201 20.1944C10.3142 20.2952 10.5173 20.149 10.5056 19.7229C10.6406 19.4836 10.9572 19.4455 11.0873 19.2981C11.5704 18.7516 10.9124 19.0141 10.7679 18.9009C10.8276 18.4313 11.7683 18.8706 11.5474 18.1118C11.6974 18.0669 11.8792 18.0584 11.8592 17.8222C12.2478 17.9256 12.3648 17.682 12.4226 17.3618C13.059 17.4344 13.647 17.4311 13.6673 16.5342C13.7774 16.4432 13.8881 16.3516 13.9983 16.2606C13.9509 16.6006 13.9921 16.888 14.3984 16.9579C14.7285 16.6051 14.2698 15.8061 15.0687 15.7181C15.1538 15.7397 15.2394 15.7618 15.3246 15.7833C15.9799 16.2292 15.8713 15.4524 16.1273 15.259C16.1719 14.7818 16.9996 14.6978 16.7085 14.0522C17.0535 13.9673 17.6256 14.4736 17.6903 13.6581C17.7946 13.5586 17.899 13.4596 18.0033 13.3601C18.3309 13.4381 18.4638 13.2161 18.5809 12.9686C19.3745 12.8309 19.6408 12.0436 20.1901 11.6046C20.5314 11.3335 20.8727 11.0618 21.214 10.7907L21.2309 10.7945C22.3386 10.9997 22.7477 10.607 22.8584 9.23301C23.0272 9.2203 23.196 9.20815 23.3648 9.19545C23.9782 9.34213 23.849 8.62509 24.1896 8.45428C24.6252 8.55382 24.8382 8.28801 24.9987 7.93735C25.4696 7.83764 26.1196 7.97683 26.0291 7.12917C26.068 7.05151 26.0787 6.96928 26.0622 6.88361C26.3363 6.52785 27.0358 6.76409 27.0945 6.10892C27.2099 5.93443 27.3259 5.75995 27.4413 5.58601C28.0745 5.24102 28.1672 4.11793 29.5967 4.59614C28.9748 4.0998 28.7409 3.9131 28.507 3.72639C28.404 3.3572 28.7542 2.8968 28.29 2.60095C28.3462 1.77295 27.8572 2.17822 27.518 2.24484C26.7944 2.032 26.4287 2.34433 26.3507 3.07762C25.4236 2.93742 25.2519 3.92096 24.6689 4.30894C23.2198 5.27214 21.9037 6.44527 20.534 7.53409C19.8484 7.90124 19.0315 8.07911 18.6534 8.8911C17.5966 8.97409 17.2625 10.2938 16.2105 10.3841C15.5022 10.3567 15.2277 10.7977 15.1287 11.4291C14.8419 11.4507 14.5682 11.4899 14.5844 11.8876C14.234 12.1719 13.5204 12.0251 13.57 12.7826C13.0261 12.7401 13.0131 13.3802 12.6126 13.5496C11.3289 14.092 10.3597 15.1045 9.27193 15.9403C8.62806 15.9534 8.35265 16.2969 8.41476 16.9415C8.00527 17.075 7.49867 17.0953 7.20328 17.3614C5.65729 18.7526 3.91542 19.8721 2.30244 21.1675C2.05771 20.932 1.81299 20.696 1.56825 20.4606C1.71297 20.0627 2.37445 19.768 1.80538 19.2272C2.14812 18.3458 2.3508 17.46 1.89958 16.5508C2.31495 16.4453 2.60477 16.2527 2.43155 15.7391C2.56345 14.5044 2.69592 13.2691 2.82781 12.0344C3.13659 11.7324 3.21332 11.4416 2.78713 11.1768C2.59847 10.1657 3.38391 9.24523 3.05485 8.22135C3.51047 7.82254 2.8919 7.36807 2.97825 7.22298C3.82813 5.79408 2.90271 4.27669 3.26563 2.84513C3.37067 2.57898 3.73721 2.32519 3.30347 2.03341C3.1883 1.85399 3.07366 1.67513 2.95849 1.49571C3.14322 0.860266 3.22055 0.38334 2.38079 0.0568225C1.79988 -0.169346 1.50301 0.342491 1.48685 0.42571C1.3075 1.3394 0.487335 2.04613 0.662788 3.06189C0.861597 3.41664 0.989548 3.7697 0.644835 4.11486C0.667805 4.57077 0.291894 5.01217 0.594397 5.47862C0.552625 6.11134 0.51084 6.74461 0.469067 7.37733C0.0750191 8.07691 -0.367019 8.77646 0.440592 9.4918C-0.416111 10.6341 -0.0626034 11.9829 -0.178402 13.2515C-0.500111 13.3402 -0.354755 13.6034 -0.376436 13.8041C-0.428776 13.9639 -0.481118 14.1238 -0.533458 14.2836C-1.16061 14.6717 -0.485562 15.0444 -0.521892 15.4253C-1.09284 16.2478 -0.813247 17.173 -0.8295 18.0627C-1.10359 18.9468 -1.38747 19.8301 -1.06894 20.769C-1.49474 21.5654 -1.88656 21.8047 -2.2568 20.7235C-2.30016 20.5976 -2.5267 20.5371 -2.67182 20.4472C-2.51057 19.8129 -2.94545 19.6844 -3.38922 19.5624C-3.4471 19.2901 -3.34232 18.966 -3.63047 18.7674C-3.78089 19.0381 -3.99368 19.2944 -3.9841 19.6023C-3.99368 19.2944 -3.78143 19.038 -3.63153 18.7663C-4.05469 18.8326 -4.38959 18.9946 -4.48686 19.4153C-4.38959 18.9946 -4.05469 18.8326 -3.63259 18.7651C-3.81985 18.4982 -4.00766 18.2312 -4.19491 17.9637C-4.45215 16.213 -6.19457 15.4069 -6.71319 13.8228C-7.39482 13.4516 -7.23422 12.5464 -7.76965 12.0822C-7.93651 11.7828 -8.10337 11.4834 -8.27022 11.1835C-8.24881 11.0174 -8.32071 10.9215 -8.48032 10.8909C-8.55037 10.7176 -8.52505 10.4785 -8.7814 10.4334C-8.8225 10.35 -8.88773 10.3178 -8.97709 10.3374C-9.14328 9.96389 -8.82575 9.33996 -9.51926 9.23875C-9.304 8.3978 -10.0805 8.00145 -10.3962 7.44774C-11.1564 6.11374 -11.5327 4.51188 -12.8085 3.50784C-12.9573 3.1593 -13.1672 2.90239 -13.5884 2.95646C-13.9136 2.4577 -14.4036 2.58148 -14.3803 3.02457C-14.3561 3.4766 -14.8009 3.90187 -14.4404 4.3385C-14.9687 5.20209 -14.5139 5.84439 -13.9839 6.47008C-14.5416 7.42271 -13.4551 7.96856 -13.4395 8.77933C-13.2833 8.7496 -13.1278 8.72041 -12.9716 8.69069C-12.9492 8.7581 -12.929 8.82658 -12.9116 8.89555C-12.8946 9.41986 -13.0945 10.0299 -12.3871 10.2802C-12.3069 10.738 -12.1066 11.1207 -11.7247 11.3906C-11.7583 11.6323 -11.7224 11.8432 -11.4814 11.9627L-11.4955 12.0727L-11.4659 12.1793C-11.5446 12.2577 -11.6229 12.3361 -11.7016 12.4145C-11.6438 12.85 -11.3818 13.024 -10.9719 13.0092C-11.4866 14.1273 -10.5236 14.4333 -9.95022 14.9531C-9.42903 15.4197 -9.56027 16.4204 -8.67086 16.5859C-8.59726 16.7476 -8.52311 16.9093 -8.44953 17.0716C-8.88374 17.5796 -8.84285 17.9467 -8.15272 18.1215C-7.97994 18.8139 -7.02015 18.7715 -6.90592 19.5183C-7.1695 19.6163 -7.23285 19.9414 -7.11797 20.0411C-6.34732 20.7054 -6.12845 21.8905 -5.08189 22.2821C-5.12802 22.6622 -5.40918 23.087 -4.88773 23.3596C-5.02029 23.8653 -4.41443 23.8224 -4.27306 24.1384C-4.63897 24.4574 -5.04774 24.3546 -5.41957 24.4182C-5.69232 24.0076 -5.97236 23.6287 -6.46613 24.1643C-6.8181 24.1955 -7.14894 23.8654 -7.51286 24.1009C-7.91614 23.6064 -8.22798 24.0599 -8.56909 24.2079C-9.11973 24.1992 -9.59912 23.5341 -10.2041 24.0235C-10.3594 24.1084 -10.5147 24.1928 -10.67 24.2777C-10.6755 24.213 -10.6838 24.1487 -10.6948 24.0843C-11.3003 23.1943 -12.1174 23.7517 -12.8533 23.7582C-14.3158 23.6326 -15.7783 23.5075 -17.2407 23.3818C-17.8501 22.9287 -18.5108 23.3277 -19.1436 23.2652C-19.2946 23.197 -19.4452 23.1288 -19.5963 23.0605C-20.7103 22.7999 -21.831 22.5916 -22.9807 22.615C-23.3597 22.0865 -23.8959 22.616 -24.3223 22.4075C-24.6502 22.4554 -24.856 22.2131 -25.1012 22.0646C-25.2013 21.8738 -25.7605 21.8795 -25.9302 21.862C-26.4765 21.805 -27.0286 21.7908 -27.5778 21.7911C-28.3752 21.7911 -30.2424 21.6714 -30.2626 22.93C-30.2634 22.9868 -30.2582 23.0455 -30.2316 23.0952C-30.2107 23.1341 -30.1782 23.1644 -30.145 23.1931C-30.0649 23.2635 -29.3705 23.6016 -29.3664 23.6146C-29.2737 23.8899 -29.0978 23.9682 -28.8375 23.8495C-28.3981 23.8544 -28.2908 24.5046 -27.7987 24.4071C-27.4323 24.6164 -27.1524 24.0367 -26.781 24.2891C-26.6731 24.6384 -26.4373 24.4695 -26.2329 24.4298C-25.8883 24.5473 -25.6108 24.8704 -25.1984 24.7782C-25.1104 24.8606 -25.0303 25.0018 -24.9325 25.0164C-21.6951 25.5003 -18.4564 25.9725 -15.2171 26.4458C-14.5073 26.7776 -13.8013 26.7871 -13.0993 26.4187C-11.4565 26.7353 -9.81703 27.1009 -8.12798 26.8034C-7.76019 27.3227 -7.22952 26.9095 -6.79482 27.0458C-6.70356 27.0613 -6.61176 27.0769 -6.5205 27.0924C-6.08641 27.4377 -5.65063 26.7034 -5.21595 27.0928C-5.05503 27.1144 -4.89356 27.1361 -4.73265 27.1578C-4.70966 27.4983 -4.88001 27.7127 -5.11734 27.9456C-6.34364 29.1493 -7.80426 30.1156 -8.72331 31.632C-9.7524 31.8818 -9.97004 33.0298 -10.7942 33.6043C-11.4857 34.0867 -12.1485 34.8941 -12.7591 35.6203C-14.2572 37.4022 -16.0208 38.9114 -17.6498 40.5592C-17.9965 40.8241 -18.3431 41.0895 -18.6892 41.3543L-18.7077 41.3773C-19.1226 42.1282 -20.1979 42.2113 -20.4254 43.1518C-21.1921 43.7438 -22.0677 44.2352 -22.6977 44.9526C-23.5178 45.8856 -24.3465 46.766 -25.4108 47.3967C-26.3471 47.9864 -27.0738 48.7762 -27.5834 49.7728C-27.7439 51.1557 -27.3013 51.4845 -25.2977 51.4692C-25.3157 51.9057 -25.2323 52.0459 -24.7846 51.7706C-24.1364 51.3714 -23.9411 50.589 -23.3565 50.1532C-22.9208 50.2059 -22.7817 49.9952 -22.8684 49.5818C-22.6839 49.4162 -22.5 49.2506 -22.3155 49.085C-21.4383 48.9119 -21.2301 47.8406 -20.4046 47.5983C-19.8676 47.4232 -19.133 47.4039 -19.5543 46.4731C-19.466 46.4774 -19.4051 46.4377 -19.3715 46.3543C-18.5504 46.0444 -17.7122 45.7506 -17.7402 44.6107C-17.2774 44.5966 -17.0174 44.3286 -16.8867 43.8992C-16.3077 43.8416 -15.9824 43.3934 -15.6039 43.0279C-15.4094 43.013 -15.051 43.3069 -15.1358 42.7676C-15.0164 42.6556 -14.8965 42.5436 -14.7771 42.4317C-14.1167 42.2975 -13.7441 41.8097 -13.4133 41.2708C-13.2539 41.1748 -13.0946 41.0794 -12.9352 40.9835C-12.2318 41.1484 -12.1894 40.625 -12.1011 40.1483C-12.1252 40.0602 -12.1493 39.9722 -12.1734 39.8841C-11.9407 39.5502 -11.0696 39.9817 -11.2862 39.1104C-11.034 38.9642 -10.766 39.4594 -10.5648 39.1203C-10.5023 39.0148 -10.6855 38.7574 -10.7557 38.5696C-10.5345 38.4422 -10.3133 38.3142 -10.0922 38.1868C-10.9477 37.3098 -9.63513 37.8661 -9.67508 37.5279C-9.34795 37.4176 -8.90789 37.6264 -8.70339 37.1687C-8.84212 37.1085 -8.98085 37.0484 -9.11957 36.9877C-9.17209 36.3756 -8.28152 36.5378 -8.30463 35.9503C-7.88443 35.802 -8.14486 35.4012 -8.01659 35.1446C-7.55031 34.8246 -6.74689 35.143 -6.53996 34.3308C-6.41504 34.2608 -6.29067 34.1913 -6.16575 34.1213C-6.07858 34.0336 -5.99086 33.9454 -5.9037 33.8577C-5.98989 33.5837 -6.07608 33.3091 -6.16228 33.0351L-6.16973 32.9585C-6.16667 32.9904 -6.16228 33.0351 -6.16228 33.0351C-6.07608 33.3091 -5.98989 33.5837 -5.9037 33.8577C-5.01313 33.8828 -5.81148 33.2825 -5.61669 33.0497C-5.22145 32.9649 -4.73329 33.078 -4.55607 32.5287C-4.19175 32.0012 -3.82689 31.4743 -3.46257 30.9468C-2.96816 31.2556 -2.39304 29.891 -1.93781 31.0215C-1.9121 31.1787 -1.88694 31.3365 -1.86123 31.4937C-1.63867 31.9733 -2.93196 32.3478 -1.95528 32.8799C-1.95651 33.3213 -1.9583 33.7632 -1.95952 34.2046C-2.03606 34.9 -2.16113 35.5954 -2.17115 36.2919C-2.17796 36.7615 -2.26851 37.3814 -1.52028 37.4521C-1.61021 37.6328 -1.70014 37.814 -1.79061 37.9947C-2.26116 38.265 -2.24406 38.738 -2.24987 39.1888C-2.2621 40.2073 -2.25741 41.2257 -2.25983 42.2445C-2.48322 42.373 -2.36715 42.5836 -2.3796 42.7628C-2.38613 43.1751 -3.26747 43.2895 -2.74544 43.8816C-2.62825 44.5036 -2.3863 45.108 -2.49074 45.7615C-2.67082 45.9952 -3.03815 46.3972 -3.00419 46.437C-2.24358 47.3168 -3.24079 48.1297 -3.07038 48.9675C-3.56738 49.318 -2.97157 49.6972 -3.09849 50.0576C-3.31697 51.195 -3.53328 52.3324 -3.54354 53.4976C-4.67008 54.0844 -3.96827 55.0977 -4.08709 55.9197C-4.07444 56.4657 -4.06178 57.0111 -4.04913 57.557C-4.08226 58.0099 -4.37683 58.5625 -3.81241 58.8401C-3.20164 59.1411 -2.92978 58.5339 -2.56959 58.2031L-2.5749 58.174L-1.41029 58.0278C-0.949367 57.8414 -0.949371 57.8414 -1.14009 57.0778C-1.15671 56.4465 -1.15702 55.8177 -0.924019 55.2163C-0.81218 54.9626 -0.121821 54.9439 -0.622004 54.4421L-0.628798 54.4297C-0.754397 54.0466 -1.0584 53.6431 -0.38241 53.4262C-0.240613 53.3805 -0.380864 53.1319 -0.580006 53.0893C-0.590442 51.8082 0.170801 50.6437 -0.0347342 49.3334C0.371189 48.8225 0.086359 48.2551 0.0932951 47.7112C-0.351157 47.2052 1.22634 46.8052 0.167453 46.2672C0.186365 45.8619 0.205264 45.4572 0.224175 45.0519C0.289628 45.0975 0.355079 45.0974 0.42055 45.0504C1.02727 44.4897 0.512285 43.7618 0.694555 43.138C0.714584 43.0526 0.734598 42.9678 0.754612 42.883C0.976782 42.6225 1.09166 42.3554 0.80134 42.0648C0.773353 41.8886 0.745929 41.7118 0.717942 41.5356C0.807541 41.1164 0.728336 40.6859 1.03623 40.2835C1.50847 39.6672 0.952372 39.6818 0.562891 39.6391C1.04682 39.1044 1.21592 38.4842 1.04794 37.7735C1.23389 36.972 1.23834 36.1656 1.11253 35.3556C1.50231 34.7668 1.31342 34.4078 0.68352 34.2234C0.659147 33.8494 1.64923 34.1617 1.16702 33.4775C1.19094 33.1141 1.28542 32.8332 1.73645 32.971C1.86893 33.2255 1.6044 33.5932 1.95761 33.785C2.26765 33.9807 1.25251 34.6527 2.23917 34.6049C2.40068 34.6934 2.56164 34.782 2.72315 34.8705C2.91512 35.4442 2.68935 36.223 3.48779 36.4984C3.00869 37.6095 4.18078 37.5844 4.55001 38.1115C4.67536 38.4361 4.34264 38.8735 4.78672 39.1198C5.1589 39.1565 5.51247 39.2413 5.78087 39.5364C5.82635 39.9633 6.00887 40.3149 6.33397 40.5879C6.52755 41.2084 6.72113 41.8289 6.91417 42.4493C6.99462 43.1713 7.5495 43.5061 8.04152 43.8924C8.39729 44.1371 8.22772 45.0065 9.09682 44.6961C9.52697 44.5425 9.5357 45.1151 9.59197 45.4553C9.22555 45.7498 9.18181 46.1445 9.68886 46.1281C10.3395 46.1068 10.2372 46.5084 10.3105 46.8658C10.264 47.4906 10.4144 47.9551 11.1505 47.9397C11.4804 48.2881 10.6794 48.8286 11.3417 49.1202C11.5171 49.4243 11.7822 49.5855 12.1209 49.6293C12.2654 49.9509 11.7379 50.4166 12.3178 50.6372C12.4978 50.7055 12.645 50.6405 12.6186 50.3952C12.6424 50.3579 12.6599 50.3131 12.6921 50.286C12.7172 50.2643 12.7603 50.2642 12.7949 50.2545C12.8558 51.2017 14.3006 51.6129 13.7387 52.809C13.675 52.944 13.8481 52.932 13.9068 52.9863C14.7789 53.7879 15.2203 54.9727 16.197 55.6876C15.7976 56.6814 16.2574 57.6666 17.2691 58.2168C18.067 58.651 18.2574 58.2837 18.2935 57.5656C18.3755 57.5581 18.4566 57.5428 18.5362 57.5201C19.8197 57.3745 19.6525 56.5156 19.4277 55.629C19.5932 54.2625 18.3308 53.708 17.8423 52.7132C17.4793 51.5781 16.3954 50.8768 16.1094 49.6957C16.1509 49.2803 15.9009 49.0593 15.5894 48.8791C15.1152 47.8579 14.3 47.0743 13.769 46.0562C13.3548 45.2628 13.0415 44.2666 12.3009 43.6442C10.9021 42.47 10.02 40.8272 9.14761 39.3272C7.69991 36.8382 5.87174 34.5926 4.65976 31.9609C4.06844 31.2781 4.04731 30.1946 3.15481 29.7231C2.96253 29.369 2.77027 29.0144 2.57853 28.6604C2.68877 27.4647 3.34059 28.5163 3.70498 28.3756C3.87882 28.3814 4.05266 28.3873 4.22705 28.3931C5.63199 28.4382 7.03746 28.4833 8.44242 28.5279C8.89489 29.0408 9.50335 28.659 10.0189 28.8128C12.1549 28.8726 14.313 28.7567 16.4196 29.0387C18.7563 29.3512 21.0884 29.2578 23.4202 29.3846C23.8824 29.4893 24.3289 29.4742 24.7411 29.2015C26.3896 29.9658 28.1079 29.6115 29.7955 29.4638C30.9596 29.3644 31.3889 27.8692 30.6032 26.8991ZM26.5783 5.52424C26.5783 5.5248 26.5783 5.5248 26.5783 5.52424V5.52424ZM21.4917 10.2829C21.5643 10.3749 21.5765 10.4348 21.5569 10.4778C21.5765 10.4348 21.5637 10.3743 21.4917 10.2829ZM17.2111 11.8381C17.0526 12.1035 16.9865 12.4536 16.9834 12.8593C16.987 12.4531 17.0526 12.1035 17.2111 11.8381ZM10.2588 18.2673C10.2586 18.2974 10.2579 18.3275 10.2579 18.3275L10.2588 18.2673ZM5.18454 22.5319C5.0923 22.5347 4.9995 22.5381 4.90725 22.5414C4.9995 22.5381 5.09174 22.5352 5.18454 22.5319ZM-9.61746 12.4964C-9.52751 12.4979 -9.43701 12.4995 -9.34652 12.5011C-9.43648 12.5001 -9.52697 12.498 -9.61746 12.4964ZM-4.60945 21.7717C-4.84825 21.4015 -5.08705 21.0313 -5.32532 20.6617C-5.08652 21.0319 -4.84881 21.402 -4.60945 21.7717ZM-24.485 23.4464C-24.3949 23.3243 -24.414 23.0992 -24.638 22.886C-24.4135 23.0992 -24.3943 23.3237 -24.485 23.4464ZM-21.4791 47.741C-21.3189 47.6306 -21.2668 47.4808 -21.2439 47.3213C-21.2668 47.4808 -21.3183 47.63 -21.4791 47.741ZM-20.4863 47.1571C-20.4759 46.998 -20.465 46.8383 -20.4547 46.6791C-20.4656 46.8382 -20.4754 46.9974 -20.4863 47.1571ZM-18.2692 44.0374C-18.506 43.9504 -18.7451 43.8667 -19.1235 44.0689C-19.1292 44.0794 -19.1349 44.0904 -19.1406 44.0997C-19.1349 44.0898 -19.1309 44.0799 -19.1257 44.07C-19.1252 44.0694 -19.1246 44.0694 -19.1235 44.0689C-19.1121 44.0474 -19.1012 44.0254 -19.0914 44.0017C-19.0804 43.9757 -18.9959 43.8607 -19.0223 43.8032C-19.0133 43.7917 -19.0048 43.7802 -18.9959 43.7699C-18.7537 43.8592 -18.5115 43.9486 -18.2692 44.0374ZM-14.7516 40.9023C-14.9362 41.166 -15.1209 41.4292 -15.3049 41.6929C-15.1203 41.4292 -14.9357 41.1655 -14.7516 40.9023ZM-3.06952 25.0153C-3.05772 24.932 -3.04374 24.8487 -3.0276 24.7661C-3.0432 24.8487 -3.05716 24.9314 -3.06952 25.0153ZM-2.6291 28.5343C-2.53992 28.362 -2.45094 28.2437 -2.34024 28.1984C-2.45041 28.2443 -2.53939 28.3626 -2.6291 28.5343ZM-2.83866 48.9702C-2.8381 48.9697 -2.83811 48.9703 -2.83866 48.9702V48.9702ZM-0.721915 46.1001C-0.613908 45.9616 -0.525245 45.811 -0.462867 45.6419C-0.525245 45.811 -0.614466 45.9622 -0.721915 46.1001ZM11.1679 47.1403C11.3521 47.2355 11.5369 47.3313 11.7212 47.4271C11.9535 47.5207 11.9741 47.7319 11.9958 47.9425C12.2066 48.0456 12.4223 47.8044 12.6099 47.8038C12.4223 47.805 12.2066 48.0456 11.9952 47.9431C11.9741 47.7319 11.9535 47.5207 11.7206 47.4277C11.5369 47.3319 11.3527 47.2361 11.1679 47.1403ZM9.89586 45.4965C10.276 45.4966 10.3814 45.8815 10.6391 46.052C10.3808 45.8809 10.2765 45.4966 9.89586 45.4965ZM7.61853 41.1541C7.73849 41.1324 7.87031 41.0475 7.99778 40.9847C7.87031 41.0475 7.73793 41.1329 7.61853 41.1541ZM4.82793 37.7542C4.89984 37.9409 5.3065 37.9495 5.48945 38.077C5.30597 37.9489 4.8993 37.9409 4.82793 37.7542ZM2.45071 25.7106C2.45017 25.7106 2.45017 25.7106 2.45071 25.7106V25.7106ZM0.619391 42.8815C0.642352 42.9021 0.664994 42.9132 0.6879 42.9132C0.664994 42.9132 0.641794 42.9026 0.619391 42.8815ZM1.05267 8.98078C1.02316 8.50187 0.980548 8.0232 0.965779 7.54353C0.980561 8.02265 1.02263 8.5013 1.05267 8.98078C1.38843 8.98932 1.72365 8.99729 2.05886 9.00582C1.72311 8.99728 1.38789 8.98875 1.05267 8.98078ZM2.67202 25.4177C2.60633 25.2445 2.54063 25.0713 2.47439 24.8986C2.54008 25.0718 2.60633 25.2445 2.67202 25.4177ZM2.76367 24.0867C2.83566 24.0868 2.90754 24.0913 2.97881 24.0985C2.9081 24.0907 2.8362 24.0868 2.76367 24.0867ZM6.24529 25.9497C6.43066 25.9524 6.61444 25.9986 6.7989 26.0398C6.61499 25.9986 6.43119 25.953 6.24529 25.9497ZM6.88847 26.057C7.07462 26.096 7.261 26.1244 7.44941 26.0909C7.26045 26.1249 7.07462 26.096 6.88847 26.057Z" fill="#82C6DD"/>
</svg>
