<svg width="54" height="42" viewBox="0 0 54 42" fill="none" xmlns="http://www.w3.org/2000/svg">
<path d="M53.9992 16.9318L54 16.8879C53.8607 16.8096 53.7062 16.8507 53.5595 16.8047L53.5424 16.7349C53.5303 16.7564 53.5108 16.7933 53.4957 16.8102C53.4482 16.8636 53.416 16.8544 53.3578 16.8519L53.3214 16.7832C53.3295 16.7383 53.3456 16.672 53.3444 16.6244C53.3421 16.5221 53.3145 16.4677 53.2638 16.3943C53.2329 16.4527 53.2089 16.4883 53.1638 16.5288L53.1269 16.4969L53.1637 16.3547L53.1316 16.3366C52.9972 16.3455 52.8208 16.3704 52.7113 16.4791C52.678 16.5123 52.6605 16.5332 52.6236 16.5586L52.5809 16.5875L52.5206 16.5758C52.4663 16.5227 52.4123 16.3916 52.3506 16.359C52.2291 16.2948 51.8325 16.4315 51.6055 16.257C51.5516 16.2156 51.5513 16.2008 51.5371 16.1271C51.6721 15.8879 52.0179 16.003 52.1821 15.8704C52.0743 15.7785 51.9981 15.6759 51.9141 15.5497L51.9275 15.499C51.9892 15.4677 52.0168 15.452 52.0849 15.4619C52.136 15.4692 52.179 15.4736 52.2305 15.472C52.1729 15.441 52.119 15.4238 52.0783 15.3605C52.2133 15.2887 52.4078 15.3455 52.5231 15.2521C52.4311 15.1735 52.2451 15.2303 52.1338 15.2186C52.0509 15.21 52.0143 15.2014 51.9628 15.1142C51.957 15.1044 51.9518 15.0939 51.9463 15.0838C51.9148 15.1351 51.8894 15.1627 51.846 15.1962C51.744 15.167 51.645 15.1403 51.5478 15.0903L51.5776 15.042L51.7419 15.0749C51.7974 15.0344 51.8425 15.0242 51.9064 15.0218C51.9132 15.0215 51.9199 15.023 51.9266 15.0236L51.9321 14.9907C51.884 14.8765 51.8164 14.8624 51.7584 14.7619C51.8 14.7106 51.7861 14.7143 51.8309 14.6962C51.9081 14.6646 51.9848 14.6388 52.0615 14.6037C51.9923 14.5506 51.8569 14.5657 51.7726 14.5687C51.7292 14.5703 51.7027 14.5776 51.6618 14.5549C51.6541 14.5506 51.6469 14.5448 51.6393 14.5396C51.5307 14.5669 51.4348 14.5783 51.3268 14.5432L51.2968 14.4293C51.2723 14.4606 51.2581 14.4806 51.2286 14.507C51.1801 14.5506 51.1354 14.5654 51.0782 14.5522L51.0663 14.488C51.0779 14.4735 51.0883 14.4569 51.1011 14.4444C51.1679 14.3789 51.2214 14.3304 51.2824 14.2509C51.2563 14.214 51.1461 14.2681 51.0792 14.2294L51.0533 13.9904C51.0555 13.9127 51.0013 13.8955 51.0013 13.8101C51.0514 13.78 51.089 13.7598 51.1241 13.7143C51.1266 13.7125 51.1288 13.7112 51.1312 13.7091C51.1307 13.7079 51.1303 13.7072 51.1298 13.7063C51.1351 13.6989 51.1405 13.6928 51.1458 13.6839C51.13 13.5813 51.1243 13.5878 51.0582 13.5248L51.0067 13.5233C51.0027 13.5085 50.9988 13.4938 50.995 13.4794C51.2817 13.4271 51.6123 13.3731 51.719 13.3482C51.4509 13.2908 51.1873 13.284 50.9218 13.2748C50.9126 13.2582 50.9025 13.2416 50.8907 13.2263L50.8659 13.2527C50.868 13.2598 50.8699 13.2662 50.8718 13.273C50.8394 13.2717 50.807 13.2699 50.7746 13.2683C50.7759 13.253 50.7775 13.2376 50.7789 13.2223L50.7279 13.1756L50.7216 13.1249C51.0066 13.0497 51.299 13.148 51.5869 13.0555C51.5964 13.0524 51.6059 13.0491 51.6153 13.046C51.7217 13.0343 51.7785 13.038 51.8761 13.096C51.9069 13.0527 51.9085 13.0349 51.9545 13.0236C52.0398 13.0027 52.0993 12.9849 52.1721 12.9234C52.1414 12.8556 52.1197 12.8586 52.0627 12.8421C51.9136 12.7987 51.7412 12.8743 51.5809 12.846L51.5658 12.8037C51.6226 12.7505 52.5649 12.6086 52.7599 12.5629C52.3533 12.4756 51.9571 12.5057 51.5491 12.4655C51.3189 12.4428 51.0833 12.3826 50.8522 12.3721C50.8663 12.3565 50.8801 12.3399 50.8941 12.3209C50.8585 12.2929 50.823 12.2677 50.7861 12.2428C50.8381 12.1565 51.1847 12.1335 51.2904 12.0982C51.4424 12.0475 51.8045 11.952 51.8815 11.7858L51.8697 11.7299C51.6228 11.7364 51.2247 11.5582 51.1288 11.5724C51.0686 11.5813 51.012 11.5865 50.9514 11.5908L50.922 11.4815L51.0213 11.4078C50.9766 11.3752 50.9378 11.343 50.8979 11.3018C50.7701 11.17 50.6116 11.2179 50.4829 11.0883C50.5523 11.0696 50.6405 11.0693 50.6912 11.0082C50.6219 10.9713 50.562 10.94 50.5036 10.8783C50.5184 10.8199 50.5207 10.7827 50.5159 10.7219C50.3863 10.6372 50.1943 10.6568 50.0515 10.6068C49.947 10.5702 49.8443 10.4977 49.7473 10.4369L49.8923 10.2069L49.9926 10.209L50.0212 10.174C49.988 10.0868 49.8521 10.0524 49.7811 10.0008L49.789 9.94243C50.0263 9.70839 50.2178 9.92002 50.4658 9.81252L50.4533 9.69704C50.5141 9.65281 50.4819 9.65834 50.5499 9.67984L50.5897 9.78487C50.6465 9.74402 50.6529 9.69304 50.6802 9.62117L50.6597 9.57725C50.5985 9.55974 50.6268 9.56282 50.5657 9.56435C50.3225 9.57111 50.079 9.55207 49.8349 9.56313C49.6521 9.57142 49.4727 9.60797 49.2896 9.60459L49.2615 9.56067L49.3009 9.50692C49.5004 9.459 49.7088 9.40925 49.9122 9.40372C50.0497 9.40004 50.1944 9.42891 50.3301 9.40802C50.4762 9.3856 50.5958 9.31895 50.7483 9.32417L50.8622 9.29531L50.8888 9.23941C50.6983 9.08953 50.4918 9.37332 50.2912 9.0536C50.2035 9.06895 50.0954 9.10335 50.0096 9.08155C50.0826 8.94426 50.1813 9.06527 50.1631 8.82048C50.2139 8.81833 50.2409 8.81956 50.2911 8.83646C50.2811 8.88867 50.2726 8.89942 50.2454 8.93873C50.2942 8.9716 50.3065 8.97497 50.361 8.95317C50.3943 8.93965 50.4385 8.90003 50.4672 8.87853C50.5307 8.90402 50.5552 8.94456 50.5979 9.0066C50.6588 8.99186 50.627 9.00476 50.6825 8.97128C50.7775 8.91385 50.9058 8.9289 50.9825 8.83922C50.9739 8.75169 50.9548 8.72988 50.9124 8.65771L50.8626 8.64972C50.8238 8.68965 50.7869 8.72926 50.7514 8.7738C50.7073 8.70592 50.7684 8.67491 50.6979 8.65402L50.6369 8.72711C50.583 8.72005 50.5437 8.70715 50.4937 8.68381C50.4211 8.65002 50.3624 8.65924 50.2867 8.66446C50.2382 8.66815 50.2586 8.6706 50.212 8.65033C50.2375 8.59075 50.2937 8.5889 50.2938 8.53669C50.6854 8.46544 51.203 8.64664 51.4884 8.38835L51.4766 8.35118L51.2867 8.36655C51.2577 8.31341 51.2391 8.28147 51.1991 8.24062L51.1491 8.3518L51.1109 8.34719L51.0613 8.21728L51.0452 8.21575C51.0164 8.28239 50.9954 8.32938 50.949 8.3773C50.884 8.37361 50.8499 8.37484 50.7979 8.32109L50.8346 8.20315C50.7666 8.14909 50.6725 8.17766 50.5959 8.18503L50.5719 8.22311L50.6011 8.29007C50.6356 8.27932 50.6659 8.26734 50.699 8.24984C50.7093 8.24431 50.7195 8.23847 50.7298 8.23264C50.7361 8.3088 50.7441 8.29744 50.7094 8.36838C50.6869 8.37668 50.6667 8.38528 50.6437 8.39019C50.5911 8.40125 50.5127 8.40831 50.4483 8.39265C50.4683 8.38436 50.4861 8.37361 50.4997 8.35825C50.4855 8.31587 50.4752 8.29498 50.4601 8.2744C50.4703 8.27164 50.4819 8.26887 50.4971 8.26519L50.5134 8.18657C50.4954 8.10211 50.461 8.02993 50.429 7.95315C50.5479 7.92673 50.7252 7.92059 50.8243 7.8303L50.6756 7.76764C50.632 7.68717 50.5837 7.58827 50.5194 7.53452C50.4517 7.47801 50.397 7.49215 50.3218 7.51027C50.2491 7.52777 50.1895 7.53821 50.1157 7.53729C50.0955 7.52009 50.0825 7.50781 50.0729 7.49583C50.1222 7.48815 50.1679 7.46511 50.2438 7.42611C50.4545 7.318 50.7147 7.41782 50.9263 7.29251C50.9276 7.22279 50.9279 7.15276 50.9271 7.08304C50.9406 7.07168 50.9544 7.06031 50.9677 7.04864C51.0073 7.01363 51.0311 6.98723 51.061 6.94116L51.0309 6.89017C51.0176 6.89539 51.0043 6.90092 50.9909 6.90583C50.9306 6.92825 50.9086 6.93378 50.8484 6.90982C50.8018 6.89139 50.7527 6.88586 50.7023 6.88832C50.7149 6.87665 50.7243 6.85854 50.7391 6.82199L50.6841 6.73138C50.6685 6.73691 50.6533 6.74551 50.6372 6.74827C50.5776 6.75841 50.5633 6.74797 50.5237 6.69361C50.5914 6.59748 50.7485 6.6374 50.8492 6.62266C50.916 6.61313 50.9817 6.61313 51.0261 6.54587C51.0062 6.51393 51.0053 6.50902 50.9759 6.48107C50.809 6.32259 50.4486 6.42548 50.2618 6.46878C50.2028 6.4826 50.1652 6.48659 50.1083 6.46202C50.0912 6.45465 50.0743 6.44606 50.0574 6.43808L50.0863 6.39293C50.1142 6.37603 50.1582 6.35483 50.1835 6.32965C50.2498 6.26392 50.2359 6.20066 50.2416 6.10177C50.3433 6.00963 50.4967 6.02805 50.6179 5.98597L50.5805 5.89813C50.6275 5.85851 50.6728 5.82074 50.7272 5.80047C50.8934 5.73873 50.9615 5.89292 51.104 5.92947C51.2699 5.97216 51.456 5.73904 51.6309 5.85728L51.6126 5.95434L51.6407 5.96878L51.7101 5.85606C51.7535 5.88616 51.8021 5.92025 51.8514 5.93069C51.9122 5.94359 51.9704 5.92916 52.0192 5.88063L51.9212 5.81982L51.9322 5.77405C51.9703 5.76607 52.0093 5.75593 52.0477 5.7501C52.1235 5.73843 52.1575 5.73259 52.2176 5.67209C52.2576 5.63185 52.2809 5.60698 52.3315 5.5907C52.3828 5.64721 52.3559 5.62602 52.4107 5.65765C52.4724 5.56981 52.6735 5.28111 52.6446 5.15734C52.6413 5.14352 52.5884 5.03971 52.5879 5.03172C52.5852 4.98688 52.6354 4.95955 52.6409 4.91532C52.5843 4.91808 52.6081 4.92668 52.5677 4.90088L52.5737 4.8499C52.6705 4.78632 52.8476 4.82471 52.9584 4.82594L52.9172 4.75469L52.9338 4.72796C53.2049 4.87662 53.048 5.00378 53.0975 5.15273C53.1738 5.16963 53.2096 5.17207 53.2817 5.1343L53.283 5.07625L53.2281 5.02189L53.177 5.07471L53.1337 5.04738L53.1584 4.93897C53.1186 4.86618 53.0853 4.79707 53.0538 4.71721L53.0847 4.67115C53.1991 4.66377 53.2711 4.63153 53.3715 4.56396L53.3722 4.52004C53.233 4.44172 53.0785 4.48287 52.9317 4.43681L52.9147 4.36709C52.9025 4.38859 52.8831 4.42544 52.868 4.44234C52.8204 4.49578 52.7883 4.48657 52.73 4.48411L52.6936 4.41531C52.7018 4.37047 52.7178 4.30412 52.7167 4.25652C52.7144 4.15424 52.6867 4.09988 52.636 4.02648C52.6051 4.08483 52.5811 4.12046 52.536 4.1607L52.4991 4.12876L52.5359 3.98655L52.5038 3.96843C52.3694 3.97734 52.1931 4.00221 52.0835 4.11094C52.0502 4.14411 52.0327 4.16499 51.9958 4.19049L51.9531 4.21936L51.8929 4.20768C51.8385 4.15455 51.7846 4.02341 51.7229 3.99085C51.6013 3.92666 51.2048 4.06334 50.9777 3.88889C50.9239 3.84742 50.9236 3.83299 50.9093 3.75897C51.0443 3.51971 51.3902 3.63489 51.5544 3.50221C51.4465 3.41037 51.3704 3.30779 51.2863 3.18156L51.2997 3.13089C51.3615 3.09956 51.3891 3.0839 51.4571 3.09373C51.5083 3.1011 51.5513 3.10539 51.6028 3.10386C51.5451 3.07284 51.4912 3.05564 51.4505 2.99237C51.5856 2.9205 51.7801 2.97732 51.8953 2.88395C51.8034 2.80533 51.6174 2.86215 51.5061 2.85048C51.4231 2.84188 51.3866 2.83327 51.3351 2.74605C51.3293 2.73622 51.324 2.72578 51.3185 2.71564C51.2871 2.76693 51.2616 2.79458 51.2182 2.82806C51.1162 2.79888 51.0173 2.77216 50.92 2.7221L50.9498 2.67388L51.1142 2.70674C51.1697 2.6662 51.2147 2.65606 51.2787 2.6536C51.2854 2.6533 51.2921 2.65484 51.2988 2.65545L51.3043 2.62259C51.2563 2.50834 51.1887 2.49421 51.1307 2.39378C51.1722 2.34249 51.1584 2.34617 51.2031 2.32805C51.2803 2.29641 51.357 2.27062 51.4338 2.2356C51.3645 2.18247 51.2291 2.19751 51.1449 2.20059C51.1014 2.20212 51.0749 2.2095 51.0341 2.18677C51.0263 2.18247 51.0191 2.17664 51.0116 2.17142C50.9029 2.19875 50.807 2.21011 50.699 2.1751L50.669 2.06115C50.6446 2.09217 50.6303 2.11244 50.6009 2.13886C50.5523 2.18247 50.5076 2.19721 50.4505 2.184L50.4386 2.11982C50.4502 2.10538 50.4605 2.08879 50.4734 2.0762C50.5401 2.01078 50.5937 1.96226 50.6547 1.8824C50.6286 1.84555 50.5183 1.8996 50.4515 1.8609L50.4255 1.62196C50.4278 1.54426 50.3736 1.52705 50.3736 1.44167C50.434 1.40543 50.4765 1.38577 50.5181 1.31544C50.5023 1.21286 50.4966 1.2193 50.4305 1.15634L50.379 1.15481C50.349 1.04516 50.3277 0.942892 50.263 0.857817L50.2382 0.884229C50.2632 0.972376 50.2827 1.01967 50.2628 1.11427L50.2196 1.13178L50.1558 1.06789C50.1435 1.00861 50.1412 0.974525 50.1458 0.91187C50.1472 0.892521 50.1494 0.873482 50.1512 0.854133L50.1002 0.807447L50.0939 0.756768C50.3789 0.681213 50.6713 0.779501 50.9592 0.687361C50.9687 0.68429 50.9782 0.68091 50.9876 0.677839C51.094 0.666168 51.1508 0.669851 51.2484 0.727899C51.2792 0.684594 51.2808 0.666782 51.3268 0.655419C51.4121 0.634534 51.4716 0.616714 51.5444 0.555288C51.5137 0.487412 51.492 0.490488 51.435 0.473903C51.2859 0.430598 51.1135 0.506152 50.9532 0.477896L50.9381 0.435512C50.9948 0.382378 51.9372 0.240485 52.1322 0.194723C51.7256 0.107498 51.3294 0.137591 50.9214 0.0973571C50.6693 0.0724795 50.4106 -0.000306162 50.1585 9.6903e-07C49.8653 0.0003081 49.5751 0.168616 49.2838 0.209157C48.934 0.257991 47.3568 0.211306 47.2028 0.334772C47.1569 0.371628 47.0961 0.439199 47.0405 0.429063C46.9831 0.418621 46.9261 0.358728 46.8702 0.347979C46.7138 0.317573 46.585 0.587847 46.4088 0.519971C46.3966 0.436431 46.4208 0.399577 46.4589 0.334772C46.4756 0.306516 46.481 0.300986 46.4985 0.278872L46.4807 0.262592C46.4726 0.266277 46.4646 0.269964 46.4565 0.273342C46.3825 0.304977 46.3434 0.304982 46.2662 0.305904C46.0429 0.308975 46.0014 0.469605 45.7637 0.295462L45.7571 0.248157L45.8793 0.182125L45.8912 0.126844L45.8546 0.114556L45.7081 0.236798C45.5597 0.362107 45.339 0.441654 45.1659 0.390363C45.1128 0.374699 45.0979 0.382069 45.0659 0.325249L45.1439 0.267512L45.1386 0.24662C44.8992 0.19103 44.621 0.534402 44.474 0.437349L44.4469 0.342449C44.3481 0.316035 44.2706 0.487723 44.1508 0.472366C44.1446 0.432746 44.1393 0.394352 44.1354 0.354118C44.0342 0.378688 43.9469 0.4478 43.8526 0.392209L43.7983 0.230658C43.748 0.211002 43.7689 0.206702 43.7232 0.235879C43.6275 0.297612 43.5107 0.552224 43.4233 0.558981C43.415 0.462849 43.4109 0.369789 43.4092 0.273042C43.3216 0.188274 43.2025 0.221744 43.0944 0.222972C43.0871 0.232186 43.0798 0.241406 43.0724 0.250313C43.0137 0.321875 42.98 0.366404 42.8965 0.382068C42.7844 0.335691 42.6054 0.203316 42.4893 0.270577C42.4563 0.289619 42.4297 0.339688 42.4071 0.374701C42.3585 0.320646 42.3354 0.257071 42.3047 0.185509C42.2406 0.178752 42.2652 0.165538 42.2216 0.212222C42.1858 0.250306 42.1604 0.291772 42.1314 0.338456C42.0899 0.40541 42.0652 0.42998 41.9997 0.454858L41.9551 0.438577L41.9457 0.39773C41.9211 0.294534 41.9082 0.226964 41.8402 0.156631C41.763 0.133289 41.723 0.116399 41.6513 0.170147C41.5223 0.266586 41.412 0.434588 41.27 0.496014C41.2807 0.427524 41.2911 0.35873 41.3013 0.289932L41.2668 0.244474C41.1897 0.261673 41.1377 0.293003 41.0687 0.337537C41.0367 0.297303 41.0216 0.268432 40.9992 0.219598C40.5958 0.207006 40.1916 0.26045 39.7866 0.243865C39.6144 0.236801 39.442 0.158476 39.2737 0.160933C39.1977 0.162162 39.1404 0.204857 39.073 0.243555C39.0529 0.255226 39.0325 0.265358 39.0122 0.276107C38.9069 0.147727 38.8389 0.157554 38.7008 0.162161C38.3382 0.174754 37.9988 0.227894 37.6556 0.380231C37.3715 0.238643 37.1398 0.184278 36.8368 0.160015C36.7597 0.340915 36.675 0.582318 36.5071 0.644359C36.439 0.669543 36.3743 0.64927 36.3175 0.597672C36.2091 0.499083 36.1352 0.308362 36.0023 0.26905C35.8472 0.416472 35.8455 0.678447 35.6251 0.637291L35.5761 0.578017L35.6162 0.494168L35.5784 0.490793C35.5203 0.56174 35.4827 0.631455 35.4038 0.655719L35.3865 0.614262C35.4156 0.541472 35.4806 0.429065 35.4718 0.349825L35.371 0.480961L35.3235 0.479733L35.3431 0.358111L35.2956 0.361185L35.2795 0.477587L35.2303 0.489256C35.2104 0.434587 35.1908 0.379916 35.1717 0.32494C34.9344 0.318797 34.8324 0.767825 34.577 0.567576C34.5848 0.506457 34.6428 0.461314 34.6434 0.451793C34.6473 0.393131 34.5515 0.15172 34.5403 0.0617308C34.4552 0.00153317 34.3703 0.020885 34.2801 0.0528265C34.1606 0.0952106 34.0253 0.169839 33.9569 0.311734C33.948 0.329854 33.9417 0.350129 33.9341 0.369171C33.9088 0.431825 33.8863 0.45947 33.8452 0.504618L33.8235 0.604739C33.7949 0.51045 33.7896 0.444723 33.724 0.384833L33.6516 0.392818L33.636 0.460697C33.696 0.521816 33.7132 0.514137 33.7289 0.61549L33.696 0.656956L33.5925 0.521199C33.5664 0.570647 33.5713 0.601049 33.5675 0.659711L33.5288 0.66586L33.3906 0.50953L33.3595 0.51536C33.3547 0.571564 33.3632 0.60259 33.3299 0.641903C33.2205 0.488952 33.082 0.245091 32.9082 0.234342C32.8149 0.228506 32.7375 0.245702 32.6547 0.300064C32.6064 0.493557 32.7392 0.553448 32.5687 0.695956C32.5116 0.633302 32.5424 0.52857 32.4836 0.50922C32.4831 0.610573 32.4948 0.671383 32.453 0.760451C32.4002 0.748166 32.3797 0.677841 32.349 0.622557C32.3131 0.679991 32.3186 0.721453 32.3111 0.793322L32.2791 0.781643L32.2751 0.710391C32.2717 0.650807 32.2655 0.597364 32.2533 0.539317C32.1908 0.639134 32.1471 0.810213 32.0626 0.87256C32.0154 0.835704 32.0159 0.826794 32.0018 0.759533C31.9862 0.685207 31.9886 0.603514 31.9877 0.527038L31.9552 0.489875C31.9376 0.570036 31.9343 0.636991 31.9305 0.718995L31.9031 0.721451L31.855 0.551914C31.7917 0.61979 31.8187 0.800687 31.7513 0.829557L31.74 0.867639L31.7419 0.707316C31.6971 0.755843 31.6775 0.800383 31.6506 0.86703C31.6105 0.853516 31.5491 0.689813 31.5254 0.637601L31.4946 0.646205L31.4689 0.742643C31.3316 0.689202 31.237 0.499084 31.0855 0.575252C31.03 0.689198 31.0362 0.853512 30.9564 0.925995C30.7635 0.933673 30.5434 0.965309 30.3531 0.932753C30.2365 0.912789 30.1247 0.861191 30.0097 0.836006C29.9291 0.818499 29.8413 0.889147 29.7795 0.946887C29.7708 0.763837 29.8928 0.7884 29.7792 0.572487C29.7217 0.540546 29.7175 0.535942 29.6571 0.553142C29.5791 0.738341 29.6372 0.959472 29.5588 1.13515L29.4964 1.11734L29.4877 1.07741C29.4778 1.03319 29.4666 0.990802 29.4545 0.947496C29.4062 0.916476 29.3703 0.876861 29.3147 0.909724C29.2935 0.922316 29.249 0.966543 29.2293 0.985278L29.1704 0.971144C29.1552 0.906954 29.1594 0.886378 29.1681 0.821881C29.083 0.762298 27.2898 0.953333 26.9773 0.96224C26.7536 0.96869 26.5321 0.906036 26.3096 0.884229C25.9996 0.854131 25.6839 0.852903 25.373 0.848603C24.4066 0.834782 23.4538 0.934598 22.4902 0.992646C21.6908 1.04056 20.8949 0.997869 20.0964 1.02213C19.2799 1.0467 18.4595 1.15297 17.6433 1.09584C17.2464 1.0682 15.4104 0.846145 15.1582 0.947806C15.1095 0.967462 15.0637 1.03657 15.0287 1.08294L14.9784 1.08509L14.9684 0.968079C14.7216 0.885461 14.4498 1.09093 14.1751 0.999094C14.0551 0.95886 13.9945 0.985888 13.8841 1.03626C13.7451 1.09983 13.5842 0.89774 13.3992 0.975137C13.4112 1.03595 13.4227 1.03349 13.4596 1.07035C13.2145 1.09215 13.0055 0.817274 12.8333 0.890678C12.8709 0.999095 12.9276 0.984353 12.9966 1.04824C12.8663 1.0338 12.7361 1.01813 12.6059 1.00124C12.6807 0.927222 12.7121 1.02643 12.797 0.891297L12.7845 0.852596C12.7189 0.864267 12.6542 0.876245 12.588 0.879009C12.5662 0.936749 12.5432 0.993257 12.5189 1.04915C12.3992 1.07956 12.151 1.05653 12.0778 1.1889C12.0727 1.19812 12.0691 1.20855 12.0647 1.21838L12.0825 1.28258C12.0243 1.26169 12.0228 1.25831 11.9854 1.19658C12.0148 1.07311 12.0835 1.08939 12.0842 0.952717L12.0404 0.867339L12.0169 0.867639C11.9887 0.939815 11.9618 1.01138 11.937 1.0854C11.9006 1.06636 11.8871 1.04792 11.8594 1.01322C11.8196 1.0169 11.7831 1.02274 11.7434 1.03073L11.7353 0.988962C11.7174 0.900201 11.709 0.825256 11.6559 0.759223C11.5962 0.750009 11.5398 0.765064 11.4958 0.826183C11.4856 0.840311 11.4786 0.858127 11.47 0.874097L11.535 0.946268L11.4954 1.01445L11.4495 1.01292L11.4573 0.91187L11.4212 0.924158L11.3807 1.06298L11.346 1.05468L11.3362 0.998485C11.3272 0.949037 11.3176 0.906647 11.3032 0.859963L11.2558 0.855361L11.2401 0.900201C11.224 0.945042 11.207 0.986195 11.1875 1.02827C11.1139 1.01507 11.1219 1.00739 11.0717 0.945041C11.0652 0.776426 10.9527 0.659098 10.8915 0.50369L10.8615 0.499088C10.8536 0.610577 10.8941 0.698726 10.9288 0.797315L10.9147 0.771511L10.8875 0.776123C10.8808 0.769673 10.874 0.762908 10.8671 0.756458C10.8067 0.699946 10.7676 0.670769 10.6919 0.654491C10.7005 0.666162 10.7092 0.677837 10.7176 0.689508C10.7569 0.744484 10.7425 0.722982 10.778 0.792394L10.7494 0.846757L10.7127 0.841227L10.6573 0.682141C10.5966 0.68859 10.5885 0.675376 10.5416 0.731273C10.5864 0.790242 10.5608 0.771515 10.616 0.793322L10.6023 0.858426C10.5877 0.92968 10.5859 0.902959 10.5909 0.941657L10.5291 0.970835C10.5958 0.957321 10.6089 0.962853 10.6727 0.993873C10.6242 1.03319 10.5876 1.03841 10.5315 1.02274C10.4542 1.00155 10.3282 0.908181 10.2533 0.960393C10.2266 0.979128 10.2052 1.00401 10.182 1.02889C10.1112 1.03473 10.0691 1.0424 10.003 1.00186L9.97082 0.841227L9.93418 0.83355L9.89663 0.889759L9.91746 0.987116L9.86719 1.0034L9.82734 0.899891C9.7702 0.913712 9.74538 0.944732 9.70254 0.993873L9.65874 0.980358L9.65193 0.910333C9.64011 0.794237 9.63578 0.646821 9.56102 0.566967C9.53952 0.543932 9.51532 0.52734 9.49207 0.507683C9.42176 0.449021 9.38371 0.362716 9.29831 0.356574L9.27456 0.432747C9.38511 0.582627 9.40538 0.451479 9.52674 0.690426L9.51323 0.78318L9.46657 0.809593C9.4342 0.716225 9.44039 0.698412 9.36868 0.660021L9.32168 0.67169C9.31796 0.716531 9.32286 0.762296 9.31931 0.807137C9.3183 0.820037 9.31171 0.831404 9.30788 0.843382C9.28869 0.788099 9.26358 0.738339 9.23955 0.686433C9.16817 0.655413 9.13811 0.677839 9.0664 0.701796C8.75477 0.538402 7.92082 0.52519 7.5815 0.621629C7.55267 0.614872 7.51699 0.562965 7.49773 0.536552C7.49109 0.527338 7.48479 0.517823 7.47831 0.508302C7.43497 0.5427 7.36297 0.619479 7.31704 0.636064C7.23305 0.66647 6.9588 0.595215 6.83316 0.610879C6.77074 0.688583 6.76539 0.708552 6.7409 0.81697C6.69525 0.807756 6.64932 0.807748 6.60321 0.805291C6.55751 0.858732 6.54107 0.879621 6.48072 0.903884L6.46181 0.816351C6.36443 0.779802 6.30656 0.794547 6.20816 0.824646L6.17309 0.835706C6.0837 0.790865 5.99409 0.778265 5.90819 0.726053C5.76679 0.759837 5.46591 0.766595 5.3423 0.671999C5.30987 0.647122 5.32057 0.646505 5.31376 0.590914C5.41215 0.586615 5.55902 0.61334 5.63771 0.543928C5.60247 0.531643 5.57399 0.523658 5.53729 0.529494C5.45685 0.542393 5.40292 0.543003 5.32378 0.515669C5.15873 0.45885 5.02099 0.519969 4.85752 0.468064C4.8475 0.464993 4.83759 0.46131 4.82763 0.457932C4.8171 0.469603 4.80511 0.479126 4.79599 0.49264C4.78344 0.511375 4.77415 0.53348 4.76323 0.553751C4.73869 0.477275 4.74646 0.474821 4.68926 0.42568L4.60787 0.465918C4.57072 0.527958 4.53311 0.585391 4.49089 0.641903C4.43055 0.623782 4.42988 0.625006 4.39216 0.561737L4.44288 0.483426L4.43162 0.42568C4.36531 0.41923 4.36981 0.40234 4.31459 0.460388L4.31774 0.594907L4.28549 0.634526C4.23201 0.609649 4.18197 0.592457 4.12692 0.574643C4.16418 0.535637 4.18799 0.505535 4.21276 0.452402C4.16446 0.373162 4.10772 0.40142 4.02858 0.342758C4.03173 0.405413 4.03224 0.467141 4.03201 0.530103C3.96289 0.550374 3.99559 0.557131 3.93401 0.508911L3.9532 0.390053L3.91887 0.376847C3.88222 0.446259 3.83432 0.491098 3.78377 0.542082L3.76896 0.524583L3.82632 0.406943L3.81726 0.359648C3.63865 0.320949 3.39958 0.468061 3.22367 0.532559L3.18129 0.459469C3.13485 0.532259 3.09527 0.5857 3.03583 0.642212L3.04388 0.708853C3.09679 0.752466 3.12944 0.753695 3.19136 0.75523C3.20988 0.816964 3.19547 0.829255 3.17954 0.889759L3.2141 0.90634L3.29055 0.75523C3.39046 0.74141 3.49049 0.755229 3.59159 0.745708L3.64676 0.785336C3.63696 0.849526 3.62159 0.891291 3.59615 0.947496C3.64298 0.950875 3.61602 0.950565 3.67704 0.944422L3.68284 0.991108C3.6087 1.03503 3.55455 1.03258 3.47569 1.02889L3.41444 0.980667L3.41106 0.935827C3.40651 0.879929 3.41 0.901733 3.40054 0.858735C3.35916 0.899584 3.34492 0.929987 3.32314 0.990799C3.18359 0.997249 3.1693 0.952101 3.06831 0.837234L3.08041 0.936136C3.00954 1.00678 2.84157 1.00708 2.75325 0.986197C2.71694 0.977597 2.69516 0.957022 2.66819 0.926923L2.61899 1.02305L2.63391 1.08141C2.74768 1.133 2.85964 1.10966 2.96789 1.17876C3.19665 1.32465 3.62795 1.15205 3.83336 1.33694C3.85391 1.43522 3.86567 1.53351 3.87777 1.63394C3.82306 1.69751 3.80645 1.68584 3.73175 1.69045L3.69426 1.66557C3.70479 1.66004 3.71537 1.65452 3.72579 1.64837C3.76029 1.62841 3.78467 1.60813 3.81428 1.57865L3.80814 1.49511L3.76435 1.47177C3.62998 1.56514 3.60741 1.45273 3.43853 1.598C3.36907 1.65789 3.30918 1.67141 3.22784 1.684L3.19147 1.72576L3.2163 1.7789C3.23206 1.77859 3.24776 1.77828 3.26353 1.77828C3.39429 1.77951 3.54059 1.84708 3.66741 1.88916L3.65002 1.96686C3.91808 1.99113 4.19193 1.94629 4.46314 1.96072C4.94269 1.98622 5.41333 2.07221 5.89085 2.1192C6.05972 2.13579 6.251 2.08695 6.40698 2.16312C6.49834 2.20766 6.56899 2.20889 6.66564 2.20704C7.1717 2.19844 7.64955 2.31116 8.14846 2.35907C8.37013 2.38026 8.59715 2.32713 8.81596 2.39439C8.82215 2.46933 8.80779 2.48069 8.78184 2.5455C8.66791 2.57529 8.67422 2.47087 8.58561 2.45029C8.53962 2.43954 8.29684 2.54919 8.2316 2.55901C8.14204 2.57253 8.06734 2.52861 7.98122 2.53014C7.8571 2.5326 7.67837 2.59433 7.55971 2.56792C7.49807 2.5544 7.52352 2.54734 7.47415 2.51939C7.46081 2.51202 7.42366 2.50066 7.40722 2.49544L7.34659 2.63671L7.31924 2.63917L7.28428 2.54642L7.24093 2.53905C7.22326 2.59648 7.21566 2.63702 7.20806 2.69722L7.15481 2.7089L7.12148 2.67111L7.13302 2.55257C7.07251 2.51264 7.07341 2.52277 7.0102 2.5326C6.99005 2.61583 6.9981 2.57314 6.98622 2.66036L6.93724 2.64807L6.88906 2.53659L6.78177 2.51601C6.7337 2.56792 6.74293 2.56147 6.72959 2.63334C6.65309 2.59249 6.70285 2.49974 6.61537 2.50588L6.57845 2.61829C6.54585 2.58512 6.53994 2.54274 6.52373 2.49421C6.50656 2.55594 6.49142 2.61645 6.47847 2.67972L6.42719 2.70306L6.40349 2.65576L6.42652 2.53628L6.39055 2.5025L6.36871 2.53966C6.32125 2.6189 6.29052 2.68923 6.21171 2.71564L6.16533 2.69415L6.12283 2.53843L6.07549 2.51048C6.05066 2.58389 6.05443 2.6017 6.06119 2.67879C5.99561 2.63426 5.96302 2.5756 5.91545 2.50434L5.88584 2.52062L5.89001 2.65791C5.82167 2.7181 5.72091 2.69108 5.63968 2.67388C5.56915 2.65883 5.54117 2.63887 5.50272 2.56301C5.50306 2.55779 5.50481 2.55257 5.5038 2.54734C5.50087 2.53291 5.4953 2.51939 5.49102 2.50526L5.41452 2.5068C5.39786 2.56392 5.39138 2.60048 5.38553 2.65944L5.34241 2.6708C5.33667 2.65299 5.33109 2.63518 5.32518 2.61737C5.30188 2.54734 5.31376 2.57376 5.28252 2.52062C5.25865 2.57652 5.24936 2.64163 5.19909 2.65975C5.14832 2.67818 5.10903 2.66927 5.0578 2.66128C5.06529 2.60907 5.06287 2.57867 5.05791 2.52676C4.84857 2.43923 4.41389 2.40698 4.20978 2.50772C4.15264 2.46595 4.10283 2.4079 4.03696 2.41589C3.91335 2.43063 3.79514 2.35569 3.67439 2.40944L3.64828 2.47793C3.66983 2.54795 3.69139 2.58604 3.73187 2.63979L3.72038 2.69507C3.61236 2.75373 3.52973 2.67111 3.419 2.73837L3.41056 2.7912C3.4928 2.90637 3.65193 2.94078 3.75996 3.0105C3.61591 3.01541 3.6771 2.94293 3.52747 3.05687L3.51582 3.08329C3.60707 3.12506 3.6959 3.14778 3.78518 3.09987C3.79142 3.0495 3.79795 2.99944 3.80527 2.94938C3.9541 3.02739 3.95776 3.20214 4.13975 3.12075C4.15101 3.12628 4.16204 3.13303 4.17353 3.13795C4.21878 3.1573 4.23528 3.15393 4.27963 3.13888L4.28329 3.21136C4.22498 3.28722 4.146 3.26265 4.06556 3.26357C4.1165 3.3594 4.31127 3.46259 4.31926 3.56241C4.21625 3.63243 4.07322 3.61523 3.9594 3.60172C3.92618 3.59773 3.89995 3.6008 3.86747 3.61032L3.85571 3.64687L3.89534 3.72303C3.85329 3.79275 3.84467 3.78569 3.77943 3.80012C3.73778 3.80903 3.74915 3.80473 3.69764 3.79091C3.71791 3.7215 3.74521 3.70799 3.78895 3.66253C3.75647 3.6011 3.70108 3.55166 3.64417 3.53477C3.55534 3.50866 3.4977 3.53753 3.42722 3.60602C3.41973 3.61309 3.41275 3.62137 3.40555 3.62905C3.25289 3.66038 3.10929 3.61708 2.96079 3.57162C2.89246 3.55074 2.85598 3.56548 2.78736 3.58053C2.75139 3.5882 2.70748 3.58575 2.6714 3.58698L2.6772 3.63674L2.62778 3.61185C2.63076 3.63366 2.63397 3.65547 2.63667 3.67727C2.64613 3.75375 2.63729 3.80381 2.61838 3.87753L2.56895 3.90578L2.51536 3.85633C2.55477 3.8118 2.56715 3.80412 2.61477 3.78415C2.60216 3.73931 2.58685 3.73471 2.55786 3.70707C2.49673 3.70584 2.45046 3.70553 2.39051 3.68863C2.38004 3.70215 2.36968 3.71566 2.35904 3.72887C2.3139 3.78477 2.26689 3.80965 2.2101 3.84128L2.19186 3.89472L2.34137 3.89841C2.3367 3.97273 2.28204 4.02801 2.23768 4.07408C2.17294 4.14135 2.11204 4.1478 2.03312 4.14565C1.98431 4.1137 1.93585 4.08208 1.88558 4.05382C1.89509 4.16623 1.94103 4.24946 2.0088 4.31703C2.01989 4.32809 2.03188 4.3373 2.04342 4.34743C2.09419 4.32471 2.0907 4.3201 2.12296 4.27034C2.20182 4.38398 2.19951 4.40917 2.31919 4.43773C2.22462 4.53724 2.05518 4.59805 2.02011 4.7596C2.12757 4.87047 2.36456 4.94941 2.5014 4.93712C2.53551 4.93405 2.54109 4.92576 2.56951 4.90764C2.58224 4.89966 2.59513 4.89198 2.60779 4.88369C2.61781 4.87724 2.62761 4.87017 2.63751 4.86341L2.67151 4.89996C2.63284 4.99148 2.56079 5.03387 2.4942 5.08639L2.50332 5.10175C2.66966 5.07779 2.83419 5.06243 2.99598 5.00469L3.03515 5.03295L3.02952 5.09837C2.91796 5.1727 2.74745 5.13338 2.62339 5.12539L2.62367 5.12386L2.59147 5.17485C2.65981 5.18713 2.72066 5.1945 2.78944 5.1945C2.92966 5.1945 3.11875 5.24395 3.24247 5.33087C2.94796 5.51576 2.50191 5.06366 2.25496 5.29247L2.31806 5.4058C2.47967 5.39475 2.6835 5.3413 2.83555 5.41102L2.85727 5.4488L2.8338 5.46908C2.79834 5.50041 2.81185 5.48781 2.77593 5.5262C2.79079 5.5394 2.80594 5.55169 2.82046 5.56552C2.8329 5.57719 2.84472 5.59009 2.85688 5.60237C2.80048 5.65274 2.57492 5.64537 2.5018 5.62602C2.49116 5.62325 2.45327 5.60329 2.44185 5.59715C2.48632 5.54156 2.51272 5.55415 2.57244 5.54555L2.56422 5.50071C2.48637 5.48689 2.39372 5.54401 2.32955 5.59961C2.33833 5.60667 2.34705 5.61404 2.35595 5.62111C2.57002 5.7888 2.78077 5.72184 2.99992 5.82135C3.07394 5.85483 3.13287 5.93837 3.20245 5.97308C3.23183 5.98751 3.29741 5.97399 3.32922 5.97092L3.36046 6.01976C3.3456 6.10914 3.3452 6.12265 3.29589 6.18654L3.26904 6.16595C3.24287 6.14599 3.21596 6.12787 3.18894 6.11005C3.17622 6.11988 3.16383 6.13064 3.15083 6.13985C3.10355 6.17363 3.08418 6.17794 3.03223 6.17732C2.97076 6.22186 2.95015 6.25625 2.91486 6.33488C2.85142 6.32812 2.80751 6.30079 2.74886 6.27499C2.67692 6.24305 2.64168 6.29526 2.58094 6.33058C2.57092 6.33641 2.55978 6.33826 2.54964 6.34378C2.54874 6.3444 2.54796 6.34501 2.54711 6.34562C2.69915 6.47922 2.90991 6.37234 3.06741 6.49796C2.92342 6.67763 2.59721 6.53881 2.54368 6.83703C2.73867 7.05632 3.81197 6.65951 3.96424 7.13249C3.95726 7.14324 3.9509 7.15491 3.9433 7.16505C3.93846 7.1715 3.93395 7.1758 3.92934 7.18072C3.7984 7.1758 3.66758 7.17304 3.53749 7.17519C3.18967 7.18102 2.82873 7.22863 2.48215 7.1927C2.21905 7.16536 1.92808 6.81953 1.68175 6.88956C1.74119 7.04343 2.00801 7.19085 2.13135 7.24951C2.18769 7.32814 2.20903 7.36253 2.22468 7.47095C2.16777 7.4903 2.12358 7.45283 2.06926 7.42796C2.07247 7.50934 2.17976 7.6236 2.22833 7.67704C2.25929 7.71113 2.29155 7.74368 2.32364 7.77593C2.2965 7.89971 2.25209 8.03116 2.26673 8.15893C2.34632 8.22773 2.4441 8.29468 2.49605 8.39818L2.48969 8.47465C2.17762 8.78885 1.24302 8.55389 1.05112 8.79622C1.39078 9.00906 1.92234 8.69517 2.29966 9.14973C2.57914 9.1485 3.04365 9.11349 3.28267 9.32234C3.29634 9.36533 3.30957 9.40864 3.32235 9.45225C3.38213 9.44673 3.44186 9.44058 3.50158 9.43413L3.49286 9.49709C3.41585 9.52013 3.36795 9.52873 3.28931 9.51675C3.11908 9.49095 3.01382 9.61226 2.85823 9.64359C2.70647 9.674 2.62299 9.51921 2.44269 9.58708C2.59485 9.70871 2.84534 9.68966 2.95522 9.83401L2.95027 9.86289L2.85829 9.89544C2.84928 10.0315 3.00577 10.1537 3.0154 10.3134C2.88193 10.4397 2.70929 10.3018 2.57576 10.3939L2.57272 10.4455C2.56631 10.545 2.57481 10.6197 2.50258 10.6802C2.46149 10.7146 2.35336 10.7428 2.30714 10.7284C2.14908 10.6792 2.06278 10.5539 1.88158 10.5386C1.61144 10.5155 1.31614 10.4596 1.05275 10.5573L0.999784 10.619C0.998546 10.6749 1.02466 10.6961 1.05061 10.7397L1.04121 10.7453C1.1113 10.7858 1.24178 10.8131 1.26092 10.9108C1.26373 10.9249 1.26154 10.94 1.26317 10.9547C1.27921 11.0991 1.39112 11.1882 1.47685 11.2686L1.48636 11.3353C1.44595 11.3598 1.35357 11.3967 1.33511 11.4449L1.37001 11.4495C1.41769 11.4563 1.46435 11.4667 1.51158 11.4772C1.47522 11.5607 1.47764 11.5586 1.49385 11.6522C1.48366 11.6556 1.47342 11.6587 1.46328 11.6624C1.43064 11.6737 1.40024 11.6866 1.36872 11.702C1.39225 11.7287 1.41527 11.7481 1.44009 11.7717C1.54232 11.8694 1.53945 12.0893 1.70528 12.0626C1.72633 12.0592 1.76545 12.0457 1.78707 12.0386C1.85304 12.0635 1.90781 12.0748 1.95093 12.1482C1.8974 12.2272 1.79377 12.2398 1.71654 12.2646C1.74924 12.3448 1.80762 12.3675 1.86931 12.4038C1.92662 12.4013 1.92093 12.4115 1.96726 12.3648C2.0061 12.3258 2.03188 12.3052 2.08277 12.3101C2.17013 12.3187 2.2213 12.3976 2.28029 12.468C2.28941 12.4787 2.29875 12.4892 2.30793 12.5002L2.32431 12.5196L2.39636 12.4219L2.43475 12.4351C2.52167 12.464 2.61218 12.4781 2.70084 12.4959L2.6888 12.5119L2.751 12.5107L2.72043 12.55L2.52944 12.5527L2.51536 12.5874L2.55933 12.6268L2.55285 12.6461L2.61027 12.6547C2.50647 12.7871 2.32212 12.7588 2.20554 12.8728C2.30928 12.9581 2.42091 12.8341 2.52313 12.9342C2.5121 12.9416 2.50095 12.9483 2.49003 12.9557C2.44494 12.9864 2.46166 12.9714 2.42687 13.014L2.49442 13.1255L2.47889 13.1833C2.34035 13.2644 2.18128 13.28 2.03092 13.2598L1.96855 13.2085L1.95797 13.0865L1.9153 13.0656C1.875 13.1664 1.93421 13.218 1.88271 13.3147L1.82163 13.3239C1.80565 13.2625 1.8075 13.2948 1.81899 13.2272L1.79174 13.198L1.75797 13.2296L1.76146 13.3491C1.56934 13.421 1.48186 13.1953 1.3158 13.487L1.42608 13.5546L1.43182 13.6071C1.21172 13.6722 0.511178 13.3593 0.413176 13.4714C0.611039 13.6203 1.44662 13.7057 1.53196 13.8086C1.64409 13.9437 1.91603 13.8061 1.93804 13.9923L1.83452 13.9763L1.81685 14.0095L1.83582 14.0755C1.9001 14.0844 1.87258 14.0939 1.91705 14.0617C1.98398 14.0128 2.03661 13.9717 2.11519 13.9603C2.12014 13.9456 2.1247 13.9305 2.13005 13.9161C2.14857 13.8657 2.16197 13.8448 2.19377 13.8092C2.32138 13.7988 2.40514 13.8372 2.50287 13.9404C2.56034 14.0009 2.6016 14.0583 2.64478 14.1102C2.56557 14.163 2.4204 14.1621 2.34024 14.1431C2.30393 14.1345 2.28215 14.1139 2.25513 14.0838L2.20593 14.1799L2.22085 14.238C2.33461 14.2896 2.44658 14.2662 2.55482 14.3353C2.61185 14.3716 2.68148 14.3882 2.75708 14.3955C2.7488 14.4106 2.7439 14.4305 2.74537 14.4597C2.92668 14.5577 2.97852 14.519 3.10923 14.6965C3.08559 14.7088 3.0584 14.7269 3.02558 14.7552C2.95612 14.8151 2.89623 14.8286 2.81489 14.8412L2.77852 14.8829L2.80335 14.9364C2.81905 14.9361 2.83481 14.9355 2.85058 14.9358C2.98134 14.937 3.12764 15.0046 3.25446 15.0466L3.23707 15.1243C3.3474 15.1345 3.45874 15.1317 3.57042 15.1274C3.56941 15.1425 3.57138 15.1578 3.57808 15.1741C3.6136 15.1723 3.64417 15.1858 3.6673 15.1468C3.67164 15.1394 3.67468 15.1311 3.67828 15.1234C3.80049 15.1176 3.92292 15.1121 4.04485 15.1182L4.03837 15.1584C4.12061 15.2736 4.27975 15.308 4.38777 15.3777C4.24372 15.3826 4.30491 15.3102 4.15529 15.4241L4.14358 15.4505C4.23483 15.4923 4.32365 15.515 4.41293 15.4671C4.41912 15.4167 4.42565 15.3667 4.43303 15.3166C4.58186 15.3946 4.58552 15.5694 4.76751 15.488C4.77877 15.4938 4.7898 15.5003 4.80128 15.5052C4.84654 15.5245 4.86303 15.5212 4.90739 15.5061L4.91105 15.5786C4.85273 15.6544 4.77376 15.6299 4.69332 15.6308C4.7178 15.6769 4.77539 15.7245 4.82954 15.7727C4.81907 15.7908 4.80573 15.8056 4.78597 15.8126C4.7352 15.831 4.69591 15.8221 4.64468 15.8142C4.65217 15.7619 4.64975 15.7315 4.64479 15.6796C4.43545 15.5921 4.00077 15.5599 3.79666 15.6606C3.73952 15.6188 3.68971 15.5608 3.62384 15.5688C3.50029 15.5835 3.38202 15.5086 3.26133 15.5623L3.23521 15.6308C3.25677 15.7008 3.27839 15.7389 3.3188 15.7927L3.30732 15.8479C3.1993 15.9066 3.11666 15.824 3.00594 15.8916L2.99749 15.9444C3.03983 16.0037 3.10259 16.0414 3.16823 16.0737C3.11565 16.0725 3.07225 16.0709 3.01832 16.0556C3.00785 16.0691 2.9975 16.0826 2.98686 16.0958C2.94171 16.1517 2.89471 16.1766 2.83791 16.2082L2.81967 16.2616L2.96918 16.2653C2.96451 16.3397 2.90985 16.3949 2.86549 16.441C2.80081 16.5083 2.73985 16.515 2.66093 16.5126C2.61213 16.4806 2.56366 16.449 2.51339 16.4207C2.52291 16.5328 2.56884 16.6164 2.63661 16.6836C2.6477 16.6947 2.65969 16.7039 2.67123 16.714C2.72201 16.6913 2.71852 16.6867 2.75077 16.637C2.81691 16.7322 2.82682 16.765 2.89854 16.7902C2.7801 16.793 2.66532 16.7601 2.54767 16.7239C2.47934 16.703 2.44286 16.7177 2.37424 16.7328C2.33827 16.7405 2.29436 16.738 2.25828 16.7392L2.26408 16.789L2.21466 16.7641C2.21758 16.7859 2.22079 16.8077 2.22349 16.8295C2.23295 16.906 2.22411 16.9561 2.2052 17.0298L2.15578 17.058L2.10219 17.0086C2.14159 16.9637 2.15397 16.9564 2.2016 16.9364C2.18899 16.8916 2.17368 16.8873 2.14469 16.8596C2.08355 16.8584 2.03728 16.8581 1.97733 16.8412C1.96686 16.8547 1.95651 16.8682 1.94587 16.8814C1.90072 16.9373 1.85372 16.9622 1.79692 16.9938L1.77868 17.0473L1.92819 17.051C1.92352 17.1253 1.86886 17.1803 1.8245 17.2266C1.75983 17.2939 1.69886 17.3007 1.61994 17.2982C1.57114 17.2663 1.52267 17.2346 1.4724 17.2064C1.48192 17.3185 1.52785 17.402 1.59562 17.4696C1.60671 17.4807 1.6187 17.4899 1.63024 17.5C1.68102 17.4773 1.67753 17.4727 1.70978 17.4229C1.78865 17.5365 1.78634 17.5617 1.90601 17.5903C1.81139 17.6898 1.64201 17.7506 1.60694 17.9122C1.7144 18.023 1.95138 18.102 2.08823 18.0897C2.12234 18.0866 2.12791 18.0783 2.15634 18.0602C2.16906 18.0522 2.18195 18.0445 2.19462 18.0362C2.20464 18.0298 2.21443 18.0227 2.22434 18.016L2.25834 18.0525C2.21967 18.144 2.14761 18.1864 2.08102 18.2389L2.09014 18.2543C2.25648 18.2304 2.42102 18.215 2.5828 18.1573L2.62192 18.1855L2.61629 18.2509C2.50472 18.3253 2.33422 18.2859 2.21015 18.278L2.21043 18.2761L2.17824 18.3271C2.24657 18.3394 2.30742 18.3468 2.37621 18.3468C2.51643 18.3468 2.70551 18.3962 2.82924 18.4831C2.53473 18.668 2.08868 18.2159 1.84173 18.4447L1.90483 18.5581C2.06644 18.547 2.27027 18.4936 2.42231 18.5633L2.44404 18.6011L2.42057 18.6213C2.38511 18.6527 2.39862 18.6401 2.3627 18.6782C2.37756 18.6914 2.3927 18.7039 2.40723 18.7175C2.41967 18.7291 2.43149 18.742 2.44365 18.7543C2.3873 18.8047 2.16169 18.7973 2.08856 18.778C2.07793 18.7752 2.04004 18.7552 2.02861 18.7491C2.07308 18.6935 2.09948 18.7061 2.15921 18.6975L2.15099 18.6527C2.07314 18.6388 1.98049 18.696 1.91631 18.7516C1.9251 18.7586 1.93382 18.766 1.94271 18.7731C2.15679 18.9407 2.36754 18.8738 2.58674 18.9733C2.66076 19.0068 2.7197 19.0903 2.78927 19.125C2.81866 19.1398 2.88424 19.1259 2.91604 19.1229L2.94728 19.1717C2.93242 19.2611 2.93203 19.2749 2.88272 19.3385L2.85587 19.3179C2.82969 19.2979 2.80278 19.2798 2.77577 19.262C2.76304 19.2718 2.75066 19.2826 2.7376 19.2918C2.69386 19.3231 2.67298 19.329 2.62913 19.329C2.51846 19.2688 2.41016 19.227 2.30945 19.2556C2.33906 19.3323 2.42001 19.4073 2.50906 19.4705C2.50664 19.4758 2.50422 19.481 2.50163 19.4865C2.43819 19.4798 2.39428 19.4524 2.33563 19.4266C2.26369 19.3947 2.22845 19.4469 2.16771 19.4822C2.15769 19.488 2.14654 19.4899 2.13641 19.4954C2.13551 19.496 2.13472 19.4967 2.13388 19.4973C2.28592 19.6312 2.49667 19.524 2.65418 19.6496C2.51018 19.8293 2.18398 19.6905 2.13045 19.9887C2.22772 20.098 2.5434 20.0541 2.85435 20.0415C2.85485 20.0421 2.85553 20.0427 2.85604 20.0433C2.887 20.0774 2.91925 20.11 2.95134 20.1422C2.93755 20.2049 2.91936 20.27 2.9067 20.3354C2.62749 20.3496 2.34384 20.3729 2.06897 20.3443C1.80587 20.317 1.5149 19.9712 1.26857 20.0412C1.32802 20.1951 1.59484 20.3425 1.71817 20.4015C1.77452 20.4801 1.79585 20.5145 1.8115 20.6229C1.75459 20.6423 1.7104 20.6048 1.65608 20.5799C1.65929 20.6613 1.76658 20.7755 1.81516 20.829C1.84612 20.8631 1.87837 20.8956 1.91046 20.9279C1.90061 20.9727 1.88845 21.0191 1.8777 21.0655C1.78836 21.0839 1.718 21.1134 1.67882 21.1628C1.73213 21.1963 1.79056 21.2157 1.85197 21.2282C1.8504 21.2559 1.8504 21.2838 1.85355 21.3112C1.93315 21.38 2.03087 21.4469 2.08288 21.5504L2.07652 21.6269C1.76444 21.9414 0.829842 21.7061 0.637946 21.9485C0.977605 22.1613 1.50916 21.8474 1.88648 22.302C2.16596 22.3008 2.63048 22.2657 2.86949 22.4746C2.88317 22.5176 2.8964 22.5609 2.90917 22.6045C2.96896 22.599 3.02868 22.5928 3.08841 22.5864L3.07968 22.6493C3.00267 22.6724 2.95477 22.681 2.87613 22.669C2.70591 22.6432 2.60059 22.7645 2.44506 22.7958C2.29329 22.8263 2.20982 22.6715 2.02952 22.7393C2.13883 22.8269 2.2987 22.8416 2.42091 22.8966C2.17565 22.8717 1.91541 22.8367 1.68045 22.9239L1.62749 22.9857C1.62625 23.0416 1.65237 23.0627 1.67832 23.1064L1.66892 23.1119C1.739 23.1524 1.86948 23.1798 1.88862 23.2774C1.89143 23.2916 1.88924 23.3066 1.89087 23.3213C1.90697 23.4657 2.01882 23.5548 2.10455 23.6352L2.11406 23.7019C2.07365 23.7265 1.98127 23.7633 1.96281 23.8115L1.99765 23.8161C2.02805 23.8204 2.05794 23.8275 2.08795 23.8339C2.04595 23.8677 1.93967 23.8954 1.89397 23.8812C1.7359 23.8321 1.64961 23.7068 1.46841 23.6914C1.19827 23.6684 0.902964 23.6125 0.639578 23.7102L0.586608 23.7719C0.58537 23.8278 0.611489 23.849 0.637439 23.8926L0.628039 23.8981C0.698121 23.9387 0.828603 23.9663 0.847742 24.0637C0.850557 24.0778 0.848361 24.0932 0.849994 24.1076C0.866093 24.252 0.977943 24.341 1.06367 24.4215L1.07319 24.4881C1.03283 24.5127 0.940397 24.5496 0.921934 24.5978L0.956778 24.6024C1.00446 24.6091 1.05112 24.6196 1.09835 24.63C1.06199 24.7136 1.06441 24.7114 1.08062 24.8051C1.07043 24.8085 1.06018 24.8115 1.05005 24.8152C1.0174 24.8266 0.987006 24.8395 0.955483 24.8549C0.979013 24.8816 1.00198 24.9009 1.02686 24.9246C1.12908 25.0222 1.12621 25.2421 1.29205 25.2154C1.31316 25.212 1.35222 25.1985 1.37384 25.1915C1.43981 25.216 1.49458 25.2277 1.5377 25.3008C1.48417 25.38 1.38054 25.3923 1.30331 25.4172C1.33601 25.4974 1.39438 25.5201 1.45608 25.5563C1.51338 25.5539 1.5077 25.564 1.55403 25.5173C1.59287 25.4783 1.61865 25.4574 1.66953 25.4627C1.7569 25.4713 1.80807 25.5502 1.86706 25.6205C1.87618 25.6313 1.88552 25.6417 1.8947 25.6528L1.91108 25.6721L1.98313 25.5745L2.02152 25.5877C2.10844 25.6165 2.19895 25.6307 2.28761 25.6485L2.27556 25.6644L2.33776 25.6632L2.3072 25.7025L2.16444 25.7047C2.09493 25.6912 2.0298 25.7028 1.94356 25.8543L2.03571 25.9108C1.97992 25.9304 1.922 25.9461 1.86909 25.9728C1.57356 25.9273 1.1185 25.7495 1.04093 25.8383C1.20451 25.9614 1.80345 26.041 2.05456 26.123C2.03695 26.1347 2.04055 26.1334 2.01364 26.1663L2.08119 26.2778L2.06565 26.3355C1.92712 26.4166 1.76804 26.4323 1.61769 26.412L1.55532 26.3607L1.54474 26.2388L1.50207 26.2179C1.46176 26.3186 1.52098 26.3702 1.46948 26.467L1.4084 26.4762C1.39241 26.4148 1.39427 26.447 1.40575 26.3794L1.37851 26.3503L1.34474 26.3819L1.34823 26.5014C1.1561 26.5732 1.06863 26.3475 0.902626 26.6393L1.0129 26.7069L1.01864 26.7594C0.798544 26.8248 0.0980026 26.5115 0 26.6236C0.197863 26.7726 1.03345 26.858 1.11878 26.9608C1.23091 27.096 1.50286 26.9584 1.52487 27.1445L1.42135 27.1285L1.40367 27.1617L1.42264 27.2277C1.48693 27.2367 1.4594 27.2462 1.50387 27.2139C1.5708 27.1651 1.62343 27.1239 1.70201 27.1126C1.70697 27.0978 1.71153 27.0828 1.71687 27.0683C1.73539 27.018 1.74874 26.9971 1.7806 26.9615C1.90821 26.9507 1.99197 26.9894 2.08969 27.0926C2.21995 27.2299 2.26667 27.3534 2.44247 27.4249C2.41398 27.5247 2.32668 27.4986 2.33225 27.6117C2.52679 27.7167 2.57216 27.6642 2.72589 27.8905C2.73287 27.8835 2.7398 27.8764 2.74683 27.8693C2.81325 27.8039 2.85221 27.776 2.93535 27.7582C3.01089 27.795 3.01573 27.8002 3.06144 27.8844C3.06803 27.9719 3.05441 28.0125 3.11075 28.0714L3.20132 28.0579C3.23088 28.1722 3.12843 28.237 3.1649 28.3254C3.20042 28.3236 3.23099 28.3371 3.25413 28.2981C3.28908 28.2391 3.29983 28.1626 3.31469 28.0926C3.45751 27.8764 3.66128 27.9851 3.89534 27.6141C4.04912 27.53 4.16553 27.6875 4.3209 27.6258C4.38901 27.5988 4.42098 27.5401 4.44969 27.4836C4.51831 27.4814 4.58693 27.4808 4.65543 27.4839C4.65161 27.4925 4.64581 27.5048 4.63725 27.526L4.79239 27.5659L4.82864 27.5272C4.82324 27.5121 4.82003 27.5026 4.81761 27.4956C4.84772 27.498 4.87784 27.5002 4.90796 27.5029L4.90756 27.5459C4.91724 27.5478 4.92693 27.5496 4.93655 27.5518C5.03118 27.572 5.09946 27.6021 5.18254 27.6617L5.25623 27.6276L5.28111 27.6682C5.24846 27.7901 5.17815 27.7299 5.22943 27.8693C5.24683 27.9166 5.27283 27.9477 5.30227 27.983L5.34595 27.9799C5.42476 27.8561 5.48719 27.6571 5.60484 27.5825C5.67678 27.592 5.74889 27.6006 5.82094 27.6095C5.83028 27.6206 5.84008 27.6325 5.85156 27.6464C5.87261 27.7416 5.89474 27.8362 5.91793 27.9308L5.96521 27.9572L6.00647 27.8285C6.13105 27.7837 6.33527 27.7281 6.45393 27.8009C6.49649 27.8638 6.52356 27.913 6.54788 27.9897C6.60485 27.9639 6.65799 27.9341 6.71247 27.901L6.77282 27.9136C6.77879 27.9317 6.78436 27.9501 6.79072 27.9682C6.81048 28.0241 6.8093 28.0254 6.82483 28.0447L6.7932 28.1408C6.7606 28.1077 6.75469 28.0653 6.73848 28.0168C6.72131 28.0785 6.70617 28.139 6.69322 28.2023L6.64194 28.2256L6.61824 28.1783L6.64127 28.0588L6.6053 28.0251L6.58346 28.0622C6.536 28.1415 6.50527 28.2118 6.42646 28.2382L6.37996 28.2118L6.33746 28.0561L6.29012 28.0281C6.2653 28.1015 6.26907 28.1193 6.27583 28.1964C6.21025 28.1519 6.17765 28.0932 6.13009 28.022L6.10048 28.0383L6.10464 28.1752C6.03631 28.2354 5.93555 28.2084 5.85432 28.1912C5.78379 28.1762 5.75581 28.1562 5.71736 28.0803C5.7177 28.0751 5.71945 28.0699 5.71843 28.0647C5.7155 28.0502 5.70993 28.0367 5.70565 28.0226L5.62915 28.0241C5.61249 28.0813 5.60602 28.1178 5.60016 28.1768L5.55705 28.1881C5.5513 28.1703 5.54573 28.1525 5.53982 28.1347C5.51652 28.0647 5.52839 28.0911 5.49715 28.038C5.47329 28.0938 5.464 28.159 5.41373 28.1771C5.36296 28.1955 5.32366 28.1866 5.27244 28.1786C5.27993 28.1267 5.2775 28.096 5.27255 28.0441C5.06321 27.9566 4.62853 27.9243 4.42442 28.0251C4.36728 27.9833 4.31746 27.9252 4.2516 27.9332C4.12799 27.948 4.00978 27.873 3.88903 27.9268L3.86291 27.9953C3.88447 28.0653 3.90603 28.1034 3.9465 28.1571L3.93502 28.2124C3.827 28.2711 3.74436 28.1884 3.63364 28.256L3.6252 28.3088C3.70744 28.424 3.86657 28.4584 3.97459 28.5281C3.83055 28.533 3.89173 28.4606 3.74211 28.5745L3.73046 28.6009C3.82171 28.6427 3.91053 28.6654 3.99981 28.6175C4.006 28.5671 4.01259 28.5171 4.01991 28.467C4.16874 28.545 4.1724 28.7198 4.35439 28.6384C4.36565 28.6439 4.37668 28.6507 4.38816 28.6556C4.43342 28.6753 4.44991 28.6716 4.49427 28.6565L4.49793 28.729C4.43961 28.8049 4.36064 28.7803 4.2802 28.7812C4.33114 28.877 4.52591 28.9802 4.5339 29.08C4.43089 29.1501 4.28785 29.1329 4.17403 29.1194C4.14082 29.1154 4.11459 29.1184 4.08211 29.128L4.07034 29.1645L4.10997 29.2407C4.06792 29.3107 4.05937 29.3033 3.99407 29.3178C3.95242 29.3267 3.96379 29.3224 3.91228 29.3086C3.93254 29.2391 3.95985 29.2256 4.00358 29.1802C3.9711 29.1187 3.91571 29.0693 3.8588 29.0524C3.76998 29.0263 3.71233 29.0552 3.64186 29.1237C3.63437 29.1307 3.62739 29.139 3.62019 29.1464C3.46753 29.1777 3.32393 29.1344 3.17543 29.089C3.10709 29.0681 3.07062 29.0828 3.002 29.0979C2.96603 29.1055 2.92212 29.1031 2.88604 29.1043L2.89184 29.1541L2.84241 29.1289C2.84534 29.1507 2.84861 29.1725 2.85131 29.1943C2.86076 29.2708 2.85187 29.3208 2.83301 29.3946L2.78359 29.4228L2.73 29.3737C2.7694 29.3288 2.78179 29.3215 2.82941 29.3015C2.8168 29.2566 2.80149 29.252 2.7725 29.2247C2.71137 29.2235 2.6651 29.2232 2.60515 29.2063C2.59468 29.2198 2.58432 29.2333 2.57368 29.2465C2.52853 29.3024 2.48153 29.3273 2.42473 29.3589L2.4065 29.4124L2.556 29.4161C2.55133 29.4904 2.49667 29.5454 2.45232 29.5917C2.38764 29.659 2.32668 29.6657 2.24776 29.6633C2.19895 29.6314 2.15048 29.5997 2.10022 29.5715C2.10973 29.6836 2.15566 29.7671 2.22344 29.8347C2.23453 29.8457 2.24652 29.8549 2.25806 29.8651C2.30883 29.8423 2.30534 29.8377 2.3376 29.788C2.41646 29.9016 2.41415 29.9268 2.53383 29.9554C2.4392 30.0549 2.26982 30.1157 2.23475 30.2772C2.34221 30.3881 2.5792 30.4671 2.71604 30.4548C2.75015 30.4517 2.75573 30.4434 2.78415 30.4253C2.79687 30.4173 2.80976 30.4096 2.82237 30.4013C2.83239 30.3949 2.84219 30.3878 2.8521 30.3811L2.8861 30.4179C2.84742 30.5094 2.77537 30.5518 2.70878 30.6043L2.7179 30.6197C2.88424 30.5957 3.04878 30.5804 3.21061 30.5226L3.24974 30.5509L3.24411 30.6163C3.13254 30.6906 2.96203 30.6513 2.83797 30.6433L2.83825 30.6418L2.80605 30.6928C2.87439 30.7051 2.93524 30.7124 3.00402 30.7124C3.14425 30.7124 3.33333 30.7619 3.45705 30.8491C3.16254 31.034 2.71649 30.5819 2.46954 30.8107L2.53264 30.9241C2.69426 30.913 2.89814 30.8596 3.05013 30.9293L3.07186 30.9671L3.04838 30.9873C3.01292 31.0187 3.02643 31.0061 2.99052 31.0442C3.00538 31.0574 3.02052 31.07 3.03504 31.0835C3.04748 31.0951 3.0593 31.108 3.07146 31.1203C3.01506 31.1707 2.7895 31.1633 2.71638 31.144C2.70574 31.1412 2.66786 31.1212 2.65643 31.1151C2.70084 31.0595 2.7273 31.0721 2.78702 31.0635L2.7788 31.0187C2.70095 31.0048 2.6083 31.062 2.54413 31.1175C2.55291 31.1246 2.56163 31.132 2.57053 31.1391C2.7846 31.3067 2.99536 31.2398 3.2145 31.3393C3.28852 31.3728 3.34746 31.4563 3.41709 31.491C3.44647 31.5055 3.51205 31.4919 3.54386 31.4889L3.5751 31.5377C3.56024 31.6271 3.55984 31.6409 3.51053 31.7045L3.48368 31.6839C3.4575 31.6639 3.4306 31.6458 3.40358 31.628C3.39086 31.6378 3.37847 31.6486 3.36547 31.6578C3.31819 31.6916 3.29882 31.6959 3.24692 31.6953C3.18545 31.7398 3.16485 31.7742 3.12955 31.8528C3.06611 31.8461 3.02221 31.8187 2.96355 31.7929C2.89161 31.761 2.85637 31.8132 2.79564 31.8485C2.78562 31.8544 2.77447 31.8562 2.76434 31.8617C2.76344 31.8623 2.76265 31.863 2.7618 31.8636C2.91385 31.9975 3.1246 31.8903 3.2821 32.0159C3.13811 32.1956 2.8119 32.0568 2.75837 32.355C2.95336 32.5743 4.02666 32.1778 4.17887 32.6504C4.17189 32.6612 4.16553 32.6729 4.15793 32.683C4.15304 32.6895 4.14859 32.6937 4.14397 32.6987C4.01304 32.6937 3.88222 32.691 3.75213 32.6931C3.40431 32.699 3.04337 32.7466 2.69679 32.7106C2.43368 32.6833 2.14272 32.3375 1.89639 32.4075C1.95583 32.5614 2.22265 32.7088 2.34598 32.7678C2.40233 32.8464 2.42366 32.8808 2.43931 32.9892C2.3824 33.0086 2.33821 32.9711 2.28389 32.9462C2.2871 33.0276 2.39439 33.1418 2.44297 33.1953C2.47399 33.2294 2.50619 33.2619 2.53827 33.2942C2.51114 33.418 2.46673 33.5494 2.48136 33.6772C2.56096 33.746 2.65874 33.8129 2.71069 33.9164L2.70433 33.9929C2.39225 34.3071 1.45765 34.0721 1.26576 34.3145C1.60542 34.5273 2.13697 34.2134 2.51429 34.668C2.79378 34.6668 3.25829 34.6317 3.4973 34.8406C3.51098 34.8836 3.52421 34.9269 3.53699 34.9705C3.59677 34.965 3.65649 34.9588 3.71622 34.9524L3.70749 35.0154C3.63049 35.0384 3.58258 35.047 3.50395 35.035C3.33372 35.0092 3.22846 35.1305 3.07287 35.1618C2.92111 35.1922 2.83763 35.0375 2.65733 35.1053C2.80948 35.227 3.05998 35.2076 3.16986 35.3523L3.1649 35.3811L3.07292 35.4137C3.06392 35.5498 3.22041 35.6717 3.23003 35.8317C3.09657 35.9579 2.92392 35.82 2.7904 35.9122L2.78736 35.9638C2.78094 36.0633 2.78944 36.1379 2.71722 36.1984C2.67613 36.2328 2.56794 36.2611 2.52178 36.2466C2.36371 36.1975 2.27742 36.0722 2.09622 36.0568C1.82608 36.0338 1.53078 35.9779 1.26739 36.0756L1.21442 36.1373C1.21318 36.1932 1.23925 36.2144 1.26525 36.258L1.25585 36.2635C1.32593 36.3041 1.45642 36.3314 1.47556 36.4291C1.47837 36.4432 1.47617 36.4586 1.47781 36.473C1.49391 36.6173 1.60576 36.7064 1.69149 36.7869L1.701 36.8535C1.66058 36.8781 1.56821 36.915 1.54975 36.9629L1.58459 36.9675C1.63227 36.9742 1.67893 36.9847 1.72616 36.9951C1.6898 37.0786 1.69222 37.0765 1.70843 37.1702C1.69824 37.1736 1.688 37.1766 1.67787 37.1803C1.64522 37.1914 1.61482 37.2046 1.5833 37.2199C1.60683 37.2467 1.62979 37.266 1.65467 37.2896C1.7569 37.3873 1.75403 37.6072 1.91986 37.5805C1.94097 37.5771 1.98004 37.5636 2.00165 37.5565C2.06762 37.5811 2.1224 37.5928 2.16551 37.6662C2.11198 37.7451 2.00835 37.7577 1.93112 37.7826C1.96382 37.8628 2.0222 37.8855 2.08389 37.9217C2.1412 37.9193 2.13551 37.9294 2.18184 37.883C2.22068 37.844 2.24646 37.8231 2.29735 37.8284C2.38471 37.837 2.43588 37.9159 2.49487 37.9862C2.50399 37.997 2.51334 38.0074 2.52251 38.0185L2.53889 38.0381L2.61094 37.9405L2.64934 37.9537C2.73625 37.9825 2.82676 37.9967 2.91542 38.0145L2.90338 38.0304L2.96558 38.0292L2.93501 38.0685L2.74402 38.0713L2.72994 38.106L2.77391 38.1453L2.76743 38.1647L2.82485 38.1733C2.72105 38.3056 2.5367 38.2774 2.42012 38.3913C2.52386 38.4767 2.63549 38.3526 2.73771 38.4528C2.72668 38.4598 2.71553 38.4669 2.70461 38.4743C2.65952 38.505 2.67624 38.4902 2.64145 38.5326L2.709 38.6441L2.69347 38.7018C2.55494 38.7829 2.39586 38.7986 2.2455 38.7783L2.18313 38.727L2.17255 38.6051L2.12988 38.5842C2.08958 38.6849 2.1488 38.7362 2.09729 38.8333L2.03621 38.8425C2.02023 38.7811 2.02208 38.8133 2.03357 38.7458L2.00632 38.7166L1.97255 38.7482L1.97604 38.8677C1.78392 38.9396 1.69644 38.7138 1.53044 39.0053L1.64071 39.0729L1.64645 39.1254C1.42636 39.1908 0.725816 38.8775 0.627813 38.9896C0.825676 39.1386 1.66126 39.224 1.7466 39.3269C1.85873 39.462 2.13067 39.3244 2.15268 39.5105L2.04916 39.4945L2.03149 39.5277L2.05046 39.5937C2.11474 39.6026 2.08721 39.6122 2.13168 39.5799C2.19861 39.5311 2.25125 39.4899 2.32983 39.4786C2.33478 39.4638 2.33934 39.4488 2.34469 39.4343C2.36321 39.384 2.37655 39.3631 2.40841 39.3275C2.53602 39.3167 2.61978 39.3554 2.7175 39.4586C2.84776 39.5959 2.89448 39.7194 3.07028 39.7909C3.0418 39.8907 2.95449 39.8646 2.96006 39.9777C3.1546 40.0827 3.19997 40.0302 3.3537 40.2565C3.36068 40.2495 3.36761 40.2424 3.37464 40.2353C3.44107 40.1699 3.48002 40.142 3.56316 40.1242C3.63871 40.161 3.64355 40.1662 3.68925 40.2504C3.69584 40.3379 3.68222 40.3785 3.73857 40.4374L3.82914 40.4239C3.85869 40.5382 3.75624 40.603 3.79272 40.6914C3.82824 40.6896 3.8588 40.7034 3.88194 40.6641C3.9169 40.6051 3.92765 40.5286 3.94251 40.4586C4.08532 40.2424 4.28909 40.3511 4.52315 39.9801C4.67694 39.896 4.79335 40.0535 4.94871 39.9918C5.09129 39.9353 5.07581 39.7406 5.20269 39.7144L5.27559 39.7682C5.29315 39.8542 5.29681 39.813 5.26506 39.8917L5.4202 39.9316L5.45645 39.8929C5.43276 39.8272 5.44964 39.8594 5.40123 39.8001L5.42972 39.7581C5.49085 39.7544 5.48516 39.7409 5.53644 39.7928L5.53537 39.9116C5.54506 39.9135 5.55474 39.9153 5.56436 39.9175C5.65899 39.9377 5.72727 39.9678 5.81036 40.0274L5.88404 39.9933L5.90892 40.0339C5.87627 40.1558 5.80596 40.0956 5.85725 40.235C5.87464 40.2823 5.90065 40.3134 5.93009 40.3487L5.97377 40.3456C6.07149 40.192 6.14253 39.9193 6.32705 39.9172C6.40659 39.9162 6.42663 39.9482 6.47937 40.0121C6.50043 40.1073 6.52255 40.2022 6.54574 40.2965L6.59303 40.3229L6.63429 40.1942C6.75886 40.1493 6.96308 40.0938 7.08174 40.1669C7.1243 40.2298 7.15138 40.279 7.17569 40.3557C7.23266 40.3299 7.2858 40.3001 7.34029 40.267L7.40063 40.2796C7.4066 40.2977 7.41217 40.3161 7.41853 40.3342C7.44606 40.4122 7.43238 40.3837 7.48096 40.4457C7.54941 40.4301 7.55887 40.4055 7.6102 40.3502C7.65608 40.3901 7.64966 40.4024 7.66633 40.4663L7.70933 40.3815L7.77739 40.4147L7.81094 40.5207C7.93641 40.5004 8.4562 40.4642 8.52139 40.3745C8.55128 40.3333 8.58179 40.2958 8.61443 40.2581C8.72707 40.4086 8.73799 40.857 8.76659 41.0628C8.77588 41.052 8.78533 41.0412 8.79451 41.0302C8.89459 40.9101 8.9416 40.8134 8.99243 40.6537C8.99659 40.6404 9.00121 40.6276 9.00532 40.6143C9.03459 40.5204 9.02722 40.4359 9.01872 40.3385L9.03994 40.3045C9.13152 40.3683 9.04095 40.3004 9.12004 40.3726C9.17729 40.4248 9.22018 40.4251 9.28846 40.4359C9.28182 40.4946 9.27433 40.525 9.25615 40.5781C9.31278 40.6245 9.317 40.6205 9.38528 40.614L9.40887 40.5756C9.44315 40.5207 9.42897 40.5419 9.46758 40.49C9.51509 40.5207 9.56108 40.5523 9.60673 40.587L9.65019 40.5661C9.65137 40.4924 9.6516 40.4374 9.66527 40.3656L9.6968 40.3751C9.70783 40.4476 9.71864 40.5176 9.72303 40.591L9.75072 40.6106C9.80296 40.5471 9.84766 40.486 9.89196 40.4129L9.89089 40.4107C9.96998 40.4294 10.0207 40.5256 10.0728 40.5968C10.0791 40.5477 10.0841 40.5004 10.0879 40.4506C10.1783 40.4371 10.2495 40.5096 10.322 40.575L10.317 40.5458L10.3527 40.5999C10.4136 40.5695 10.4321 40.5299 10.4684 40.4632L10.5194 40.4936C10.5685 40.5225 10.6118 40.5388 10.6655 40.5505C10.7265 40.5062 10.6998 40.5333 10.7463 40.4709L10.8138 40.5154C10.8557 40.4454 10.8878 40.3778 10.9205 40.3011C10.986 40.2808 11.0272 40.313 11.0853 40.345C11.1229 40.3653 11.1605 40.3858 11.198 40.4064L11.2244 40.3791L11.2097 40.2372C11.2492 40.2863 11.2868 40.3367 11.324 40.3886L11.3467 40.3628C11.4213 40.2799 11.4916 40.1997 11.5985 40.212C11.6418 40.2169 11.6606 40.2439 11.6946 40.274C11.6654 40.3597 11.6118 40.4727 11.6017 40.5618L11.6453 40.5971L11.6739 40.5661L11.6726 40.4635L11.7042 40.466L11.7376 40.5449C11.7887 40.5204 11.7896 40.4995 11.8197 40.4448C11.8757 40.4814 11.9151 40.525 11.9613 40.5784C12.0158 40.5612 12.0102 40.5793 12.0322 40.524C12.0731 40.4215 12.0419 40.2845 12.0261 40.1751C12.0754 40.2083 12.1026 40.2421 12.1422 40.2909L12.2101 40.2922L12.2674 40.1791C12.2859 40.2857 12.2832 40.3312 12.3465 40.4086L12.3895 40.395L12.4117 40.2805C12.4607 40.3078 12.4511 40.2872 12.4658 40.3379C12.4808 40.3898 12.4869 40.4399 12.4937 40.4943C12.5428 40.5357 12.5842 40.568 12.6462 40.5588C12.7231 40.5474 12.7566 40.4909 12.8016 40.4221C12.9196 40.4402 13.1231 40.5019 13.2265 40.4156C13.2352 40.4083 13.2426 40.3987 13.2507 40.3901C13.2548 40.3134 13.2635 40.2621 13.2296 40.1948C13.209 40.2366 13.1921 40.275 13.1752 40.3195C13.1437 40.2593 13.1409 40.231 13.1427 40.1595C13.1992 40.1282 13.3479 40.1543 13.4103 40.1794C13.4388 40.1908 13.4493 40.2052 13.47 40.2274C13.438 40.2962 13.3917 40.3302 13.3412 40.376C13.3868 40.392 13.3925 40.4067 13.4367 40.3809C13.5245 40.3293 13.5587 40.314 13.6568 40.3379L13.7315 40.4485L13.7848 40.431C13.7285 40.368 13.6808 40.314 13.6408 40.2323C13.6808 40.1613 13.6906 40.1724 13.7539 40.1481L13.9239 40.2025L13.9382 40.2449L13.8255 40.2971C13.8255 40.3849 13.8328 40.3757 13.873 40.4408C13.9755 40.4823 13.9948 40.4801 14.0623 40.5919C14.0639 40.587 14.0645 40.5815 14.0671 40.5772C14.0789 40.5584 14.0927 40.5415 14.1049 40.5231C14.1226 40.4967 14.1389 40.4688 14.1558 40.4414C14.3191 40.3791 14.495 40.4912 14.6619 40.4933C14.7671 40.4946 14.8421 40.3861 14.946 40.4122C14.9944 40.4786 15.0434 40.5419 15.0948 40.6045C15.1366 40.5744 15.1374 40.5618 15.1617 40.5124L15.2008 40.5649C15.1865 40.63 15.1669 40.6705 15.1379 40.7258C15.0662 40.8628 15.0639 40.9522 15.0888 41.1104L15.1108 41.1322L15.1865 41.0793C15.2378 41.1653 15.2576 41.2406 15.2811 41.3413L15.2565 41.3935C15.2298 41.4507 15.2339 41.427 15.23 41.4617L15.2909 41.5241C15.3333 41.4654 15.3568 41.4267 15.3815 41.3542C15.4052 41.2845 15.4192 41.2633 15.4649 41.2169C15.4251 41.1395 15.433 41.0397 15.4072 40.9497C15.3551 41.0154 15.388 41.1362 15.3796 41.2304L15.3511 41.2246C15.3077 41.1282 15.3066 41.0305 15.332 40.9267C15.3511 40.8478 15.373 40.7691 15.3925 40.6905C15.336 40.6361 15.3096 40.5858 15.2719 40.5118L15.29 40.4681C15.3301 40.489 15.3696 40.5111 15.4086 40.5348C15.4156 40.5283 15.4225 40.5222 15.4296 40.5158C15.4934 40.4599 15.5373 40.4334 15.6132 40.4153C15.6548 40.4052 15.693 40.3871 15.7325 40.3686L15.7778 40.3849C15.8358 40.4052 15.8923 40.4144 15.9519 40.4236C16.0256 40.4943 16.0669 40.5492 16.0763 40.6699C16.0836 40.7648 16.0721 40.8554 16.0586 40.9482L16.1469 41.017C16.1875 40.8785 16.075 40.8342 16.215 40.72C16.3727 40.8075 16.5009 40.9826 16.6786 40.9129C16.8082 40.7535 16.8686 40.5326 16.9959 40.3769C17.054 40.4129 17.1019 40.4528 17.1536 40.5013L17.1837 40.4853C17.2613 40.4445 17.3233 40.4156 17.4071 40.4064C17.5342 40.5462 17.4688 41.0019 17.5927 41.2277C17.7119 41.0065 17.5712 40.6024 17.7389 40.4172L17.7979 40.4039C17.8477 40.4761 17.8578 40.6567 17.8931 40.6834L17.8941 40.7077C17.9385 40.6033 17.9254 40.529 17.9977 40.4442C18.0816 40.435 18.1384 40.4463 18.205 40.5167C18.2873 40.6036 18.3104 40.7286 18.3434 40.8514L18.3996 40.8987C18.4311 40.849 18.4474 40.8041 18.4658 40.7449C18.5869 40.7424 18.6899 40.8794 18.8252 40.8941C18.8208 40.904 18.816 40.9132 18.8122 40.9233C18.7935 40.9734 18.794 41.0145 18.7925 41.0686C18.8663 41.0873 18.9205 41.0717 18.9921 41.0517C19.0682 41.0965 19.1364 41.1537 19.2066 41.2111C19.2653 41.161 19.2533 41.0621 19.3182 41.0566L19.3396 41.1761C19.3869 41.1764 19.3764 41.1881 19.4086 41.1435C19.4539 41.0812 19.4596 41.0277 19.4754 40.9482L19.5264 40.9405C19.5788 41.0452 19.5004 41.0879 19.5656 41.1761C19.6176 41.1441 19.6268 41.1362 19.6593 41.0766L19.6077 40.9715L19.65 40.9488C19.6995 41.0108 19.7418 41.0732 19.7849 41.1417C19.8207 40.9835 19.7369 40.7774 19.8207 40.6515L19.9068 40.6607C19.9428 40.7031 19.9222 40.6859 19.9816 40.7132C19.9974 40.7206 20.0135 40.7274 20.0295 40.7341C20.1252 40.6801 20.2629 40.6524 20.3647 40.6957C20.4554 40.7341 20.494 40.8438 20.5213 40.9479C20.5388 41.0145 20.5514 41.0824 20.5639 41.1509L20.5977 41.1773C20.6583 40.9989 20.7058 40.7915 20.8058 40.6426C20.852 40.6226 20.8478 40.6107 20.8945 40.6389L20.9005 40.6844C20.9134 40.7784 20.9242 40.9129 20.982 40.9844C20.9921 40.997 21.0058 41.0041 21.0178 41.0139C21.0749 40.9362 21.1106 40.8481 21.2003 40.8413C21.341 40.8309 21.481 40.8831 21.6268 40.8671L21.7027 40.9887C21.71 40.9817 21.7172 40.9746 21.7246 40.9679C21.7596 40.9353 21.7461 40.9473 21.7891 40.9178C21.8281 41.1073 21.7808 41.4147 21.9203 41.532L21.9451 41.5195L21.9068 41.4015L21.9329 41.3588C21.9981 41.3972 21.9937 41.3997 22.0223 41.4838C21.9977 41.5741 21.9875 41.5704 21.9209 41.6199L21.7861 41.6208L21.798 41.6647C21.8637 41.6746 21.9236 41.6807 21.99 41.6779C22.026 41.7351 22.0248 41.743 22.0816 41.7731C22.1175 41.7126 22.1207 41.6598 22.1295 41.5867C22.1527 41.6276 22.1761 41.6675 22.2004 41.7071C22.2385 41.6696 22.2577 41.6374 22.2881 41.5907C22.3998 41.419 22.5825 41.2019 22.7734 41.2013C22.8772 41.201 22.9336 41.2409 23.002 41.3343L23.0361 41.1979C23.11 41.3005 23.146 41.4755 23.141 41.6131C23.1393 41.6601 23.1265 41.6933 23.1076 41.7329C23.0347 41.7529 23.0139 41.7194 22.9502 41.6785L22.9436 41.7249C23.0133 41.8094 23.1013 41.8684 23.2004 41.8619C23.2496 41.8588 23.2555 41.8352 23.289 41.7962C23.308 41.6847 23.3032 41.5836 23.2982 41.47C23.311 41.4715 23.3238 41.474 23.3366 41.4746C23.3534 41.4755 23.3703 41.4749 23.3872 41.4749C23.4569 41.3729 23.5233 41.2301 23.6283 41.1991L23.6776 41.243C23.6858 41.3379 23.6849 41.4246 23.6816 41.5195L23.7177 41.5879L23.7584 41.5778C23.7628 41.5677 23.7671 41.5575 23.7717 41.5477C23.7931 41.5026 23.7839 41.5191 23.8172 41.4798C23.8789 41.4943 23.9231 41.4887 23.9679 41.5468C24.0271 41.6236 24.072 41.7004 24.1587 41.7234C24.2259 41.6908 24.2677 41.6712 24.3015 41.5867C24.3185 41.5443 24.3287 41.4863 24.339 41.4414L24.3749 41.4061L24.4238 41.5164C24.5232 41.4811 24.4921 41.3103 24.5923 41.357L24.6987 41.5247L24.7289 41.5278C24.7216 41.4525 24.7014 41.3938 24.6779 41.3244L24.6995 41.3217C24.7609 41.4436 24.8232 41.5646 24.8833 41.6871C24.9575 41.7133 25.0457 41.7642 25.1208 41.7289C25.0901 41.6807 25.0662 41.6586 25.0264 41.6239L25.0707 41.6008C25.1156 41.6257 25.1566 41.6687 25.2054 41.6481C25.2534 41.6279 25.2708 41.5984 25.3026 41.5517C25.2955 41.4556 25.2543 41.4371 25.1996 41.3745C25.2409 41.3131 25.2157 41.3373 25.2758 41.3029L25.28 41.1795L25.3176 41.1595C25.377 41.2559 25.3841 41.3699 25.401 41.4866L25.4408 41.544C25.4495 41.5342 25.458 41.5244 25.4669 41.5148C25.5056 41.4734 25.4892 41.4878 25.5369 41.4605C25.5641 41.5664 25.5375 41.6703 25.521 41.7765L25.5445 41.8254C25.6038 41.8284 25.6306 41.83 25.6808 41.7882L25.689 41.6982L25.6565 41.6718L25.5968 41.6991C25.6157 41.6269 25.6235 41.5873 25.6733 41.5413L25.7204 41.6045L25.8767 41.6746C25.9563 41.5858 25.9701 41.4854 26.0344 41.3905C26.0566 41.3576 26.0494 41.3683 26.0884 41.365L26.1008 41.5182L26.1227 41.5198C26.162 41.4682 26.1905 41.4316 26.2393 41.3935C26.2246 41.447 26.2203 41.4823 26.2226 41.5388C26.2766 41.5274 26.2941 41.3591 26.3777 41.3272C26.4009 41.3481 26.4202 41.3634 26.4395 41.3914C26.4897 41.4642 26.4874 41.5492 26.4875 41.6392C26.4875 41.6509 26.4873 41.6626 26.4872 41.6742L26.5188 41.6832L26.5632 41.6125L26.63 41.6423L26.6465 41.5892C26.7219 41.5238 26.7905 41.4547 26.881 41.427C26.8545 41.5062 26.8345 41.5554 26.8345 41.6435C26.9019 41.564 26.9336 41.5115 26.9494 41.3948C26.9521 41.3754 26.9536 41.3561 26.9557 41.3364L26.987 41.3376C27.0473 41.4479 27.0162 41.568 27.0071 41.6985C27.0272 41.6635 27.0476 41.6288 27.0684 41.5944L27.1272 41.6878L27.1709 41.6561L27.1637 41.5796L27.1905 41.5511L27.2091 41.6395L27.2365 41.6414C27.3196 41.5775 27.3301 41.5689 27.3726 41.4596C27.4363 41.4172 27.4916 41.4331 27.5605 41.4424L27.5927 41.447L27.7526 41.251C27.9334 41.3453 28.0917 41.5489 28.2603 41.6807L28.4035 41.5179C28.3655 41.4798 28.3566 41.4666 28.3318 41.4104C28.3505 41.4058 28.369 41.3991 28.388 41.3969C28.4642 41.3883 28.6902 41.4246 28.7443 41.4841C28.7511 41.5514 28.7596 41.618 28.7596 41.6859C28.7596 41.6884 28.7595 41.6908 28.7594 41.6936L28.8229 41.6567C28.8636 41.5268 28.8619 41.3794 28.8693 41.2412L28.9041 41.2034C28.9507 41.3045 29.0008 41.4362 29.0692 41.5158C29.1088 41.5618 29.1687 41.6211 29.227 41.6082C29.3113 41.5898 29.3763 41.4949 29.4294 41.4175C29.4624 41.3693 29.4669 41.3542 29.5149 41.33C29.5944 41.3594 29.6493 41.3914 29.7185 41.4497C29.7616 41.486 29.7883 41.5099 29.8375 41.5327C29.8436 41.4356 29.8423 41.3554 29.8908 41.2744C29.9554 41.2639 29.9535 41.2652 30.008 41.3103C30.0095 41.3739 30.0103 41.4375 30.0104 41.501L30.0439 41.4934C30.0725 41.4193 30.092 41.3475 30.151 41.3045L30.1913 41.3619C30.2905 41.3687 30.2212 41.2645 30.3013 41.2034C30.3281 41.2633 30.3268 41.2903 30.3794 41.3164L30.4504 41.2163L30.5052 41.2443L30.5385 41.2191C30.5553 41.1469 30.5741 41.079 30.5967 41.0096C30.6977 41.0001 30.7728 41.0941 30.8551 41.1641C30.9645 41.0861 30.9059 41.2043 30.9993 41.197L31.036 41.0922L31.0796 41.0787C31.1314 41.1491 31.1751 41.2037 31.2392 41.2575C31.3514 41.2277 31.2449 41.0468 31.3025 40.9568C31.3897 41.056 31.4736 41.1862 31.589 41.2283L31.5996 41.2031L31.5649 41.1048C31.6153 41.0434 31.6277 41.0483 31.6984 41.0354L31.8131 41.1546C31.9907 41.1527 32.0731 41.1715 32.2291 41.0609C32.3116 41.0778 32.3721 41.0836 32.455 41.071C32.4758 41.0108 32.4799 40.9943 32.5226 40.9528C32.7668 41.0542 33.0336 41.1174 33.2846 41.1887L33.3034 41.1555L33.2115 41.0695L33.2403 41.0471C33.309 41.048 33.3623 41.0486 33.427 41.079C33.4662 41.0975 33.4936 41.1088 33.5363 41.1187C33.5495 41.1217 33.5628 41.1239 33.576 41.1266L33.6227 41.2148L33.7494 41.2406L33.7723 41.2529C33.995 41.3745 34.1653 41.6236 34.4303 41.4998C34.4636 41.4841 34.5007 41.4479 34.5293 41.4236C34.5027 41.3659 34.4875 41.3327 34.4391 41.3011C34.3544 41.2461 34.3083 41.2148 34.2478 41.1189C34.2399 41.1067 34.2325 41.0938 34.2246 41.0812C34.176 41.0041 34.1431 40.958 34.1386 40.8542C34.1782 40.7722 34.192 40.7639 34.26 40.7178C34.531 40.7716 34.423 41.224 34.6348 41.3693C34.6496 41.3794 34.6649 41.3886 34.6799 41.3981L34.6526 41.2541C34.7083 41.1607 34.7178 41.1432 34.803 41.0993C34.9167 41.1291 34.9396 41.161 35.0268 41.2498C35.0567 41.2191 35.0701 41.1979 35.0816 41.1509C35.1191 40.9973 35.1411 40.9313 35.2558 40.8425L35.2705 40.8751C35.2358 40.9531 35.1879 41.0302 35.1986 41.1229C35.2397 41.1282 35.2572 41.1107 35.2947 41.091L35.3364 41.1405C35.3425 41.2182 35.3528 41.2163 35.3169 41.286C35.2845 41.2584 35.2536 41.2332 35.2186 41.2108C35.1959 41.1964 35.0818 41.3152 35.021 41.341C35.117 41.3561 35.2259 41.3628 35.3138 41.4163C35.3286 41.4252 35.343 41.4353 35.3576 41.4448L35.378 41.3677L35.4029 41.3757L35.4324 41.4897L35.4785 41.489L35.5497 41.3696C35.6227 41.3822 35.713 41.3671 35.7781 41.3192C35.8401 41.2734 35.8556 41.2221 35.875 41.1414C35.8933 41.0655 35.9064 41.0293 35.9527 40.9712L35.994 40.9749L36.0247 41.0363C36.0202 41.1478 36.0043 41.2464 35.9831 41.3545C36.3032 41.4267 36.6425 41.4556 36.9674 41.4737C37.0766 41.4798 37.184 41.5339 37.2716 41.6171C37.3452 41.6871 37.3372 41.7043 37.3479 41.8143L37.3832 41.8438L37.4537 41.8115C37.5492 41.6924 37.5835 41.5582 37.5909 41.392C37.5334 41.3714 37.5178 41.5023 37.4558 41.5274C37.3312 41.2943 37.3097 41.4651 37.1475 41.3564L37.1542 41.3078C37.1752 41.3051 37.1962 41.302 37.2172 41.2995C37.3454 41.2854 37.441 41.2863 37.5381 41.1644C37.5515 41.1475 37.5645 41.13 37.5777 41.1125C37.6421 41.0971 37.6756 41.1481 37.7293 41.1908L37.7303 41.1254L37.7451 41.2043L37.7788 41.2013C37.7955 41.1466 37.8008 41.1067 37.8058 41.0514L37.8511 41.087C37.8439 41.1475 37.8444 41.1742 37.8517 41.2323C37.9186 41.2842 37.9818 41.3226 38.0197 41.4129C38.0079 41.489 37.995 41.5247 37.9559 41.5852C37.8792 41.6021 37.8174 41.6196 37.7451 41.6583C37.8082 41.6739 37.8306 41.6635 37.8746 41.7258C37.8434 41.8002 37.8286 41.8524 37.8206 41.9359L37.8631 41.9746C38.0843 41.9491 37.9924 41.8558 38.12 41.7117C38.1244 41.8125 38.1228 41.9037 38.1614 41.9949C38.3298 42.0293 38.3907 41.8806 38.5368 41.8247C38.5469 41.8207 38.5571 41.8177 38.5673 41.814L38.5526 41.7725L38.4482 41.7366L38.4459 41.6933C38.4565 41.6878 38.4673 41.6832 38.4776 41.6767C38.5664 41.6239 38.5841 41.5385 38.6184 41.4307L38.6307 41.3914C38.6953 41.3641 38.7296 41.3278 38.7941 41.3647C38.8223 41.498 38.9051 41.6398 38.9141 41.7664C38.9154 41.7851 38.916 41.8042 38.9169 41.8232C38.9835 41.8472 39.0934 41.8051 39.1584 41.7817C39.1387 41.7108 39.1056 41.7065 39.0559 41.6687L39.0775 41.6239L39.1541 41.6629L39.1723 41.6088C39.1464 41.5609 39.1207 41.5188 39.0898 41.4755C39.0794 41.4608 39.0687 41.4464 39.0581 41.4319L39.1033 41.3988L39.1726 41.4267L39.2207 41.3855L39.2168 41.341L39.0657 41.3109L39.0736 41.2811C39.1388 41.2295 39.1788 41.2335 39.2523 41.2397C39.2922 41.243 39.2982 41.2255 39.3303 41.1979L39.3499 41.0563L39.3655 41.1598L39.4094 41.1828L39.4535 41.118L39.489 41.0311L39.6141 41.0234L39.6265 40.9565C39.5731 40.8966 39.5348 40.8862 39.462 40.8935C39.4132 40.8984 39.326 40.9101 39.2975 40.9614C39.2732 41.0053 39.2593 41.048 39.2435 41.0972L39.2017 41.1036L39.1408 41.044C39.0805 41.0618 39.0399 41.095 38.9882 41.1368L38.9486 41.1076L38.9335 40.9857C38.8746 41.0578 38.8768 41.107 38.8592 41.2062C38.8541 41.193 38.8492 41.1795 38.8438 41.1666C38.7928 41.0437 38.7619 41.0477 38.6758 40.9801C38.6676 40.9737 38.6617 40.9635 38.6547 40.9549C38.7179 40.8389 38.7734 40.7962 38.8721 40.7323L38.8777 40.7016C38.653 40.7301 38.6514 41.0164 38.3617 40.9033L38.3623 40.8653C38.5466 40.7713 38.5337 40.8935 38.7016 40.6672L38.8295 40.638C38.8506 40.599 38.8715 40.56 38.8921 40.5204C39.0342 40.5422 39.0657 40.4451 39.2137 40.5769L39.2103 40.6411L39.158 40.6291L39.1015 40.7006L39.1164 40.7243L39.2845 40.6951L39.299 40.7138L39.18 40.8576C39.2223 40.8877 39.2359 40.8852 39.2818 40.8643C39.4894 40.7701 39.4153 40.6325 39.7074 40.658C39.8541 40.6705 40.0071 40.6561 40.1226 40.7863C40.1429 40.8736 40.1428 40.8883 40.1016 40.9712C40.0649 41.0449 40.003 41.0919 39.9395 41.1193C39.8972 41.0499 39.8962 41.017 39.8849 40.9328L39.8475 40.8972C39.7849 40.9273 39.7669 40.9328 39.7246 40.9964L39.7364 41.2513C39.7777 41.2317 39.8169 41.2172 39.86 41.2053C39.8371 41.2731 39.8305 41.3171 39.8307 41.3911C39.8697 41.4626 39.8643 41.4847 39.9341 41.5075L40.0438 41.4163L40.0877 41.4328C40.0931 41.5072 40.0957 41.5324 40.1252 41.6002L40.1972 41.5932L40.1691 41.4866L40.199 41.454C40.2364 41.4672 40.2608 41.4731 40.3006 41.4752L40.3377 41.4166C40.2958 41.2741 40.1691 41.2212 40.1092 41.0833C40.1465 41.0047 40.1505 41.0207 40.2162 40.9949C40.2848 41.033 40.3525 41.0465 40.4257 41.0628C40.4016 40.9338 40.4121 40.9205 40.4501 40.8029C40.5146 40.771 40.5685 40.7658 40.6339 40.7977C40.6819 40.8213 40.7385 40.8551 40.7675 40.9095C40.7369 40.9602 40.7049 40.993 40.6976 41.0569L40.7653 41.2283L40.8066 41.2326C40.8757 41.0987 40.8293 40.9694 40.898 40.8533C40.9686 40.8521 40.9935 40.8689 41.0509 40.9193C41.0264 40.986 41.0008 41.0032 40.9553 41.0471C40.9506 41.0889 40.9369 41.1233 40.9584 41.1601C40.9905 41.2154 41.0334 41.2283 41.0807 41.2553C41.1172 41.2762 41.1034 41.2651 41.1322 41.3045L41.1769 41.2725L41.168 41.2627C41.1502 41.1982 41.1283 41.1512 41.1362 41.083L41.2091 41.071C41.2343 41.0987 41.2619 41.126 41.2853 41.1561C41.3075 41.0019 41.3345 40.9737 41.4279 40.8742C41.5583 40.8637 41.6274 41.0403 41.7348 41.0191L41.6744 40.9562C41.7158 40.8677 41.7632 40.8502 41.8337 40.8011C41.9132 40.8066 41.9453 40.8536 42.0001 40.9252C42.0574 41.0001 42.1076 41.0836 42.1304 41.1844C42.0835 41.239 42.1062 41.2188 42.0654 41.2498L42.072 41.2916L42.1209 41.33L42.1125 41.3846C42.0729 41.3754 42.0406 41.3653 42.0028 41.3499L41.9628 41.3828C41.9749 41.454 41.9895 41.5099 42.0154 41.5754L42.0649 41.5839L42.1344 41.5093C42.2163 41.6205 42.296 41.7252 42.3559 41.8582C42.3764 41.9034 42.3542 41.9442 42.3437 41.9924L42.3447 41.9977L42.3867 41.9998C42.4162 41.9814 42.4369 41.9728 42.4576 41.9396C42.4454 41.8929 42.4263 41.8358 42.4229 41.7873C42.416 41.6896 42.4396 41.6623 42.4817 41.5855C42.5095 41.5929 42.5373 41.6008 42.5654 41.6067C42.6383 41.6211 42.6417 41.6254 42.6987 41.5726L42.6629 41.501C42.7152 41.3819 42.863 41.278 42.9504 41.196C42.9543 41.1266 42.957 41.1113 42.9852 41.0471C43.0108 41.0904 43.0371 41.1294 43.0665 41.1687C43.1621 41.0919 43.1694 40.8871 43.2591 40.7765C43.35 40.7406 43.4146 40.7157 43.51 40.7317C43.5503 40.7931 43.5397 40.7608 43.5496 40.8241C43.4968 40.8978 43.4526 40.9427 43.4349 41.0422L43.5539 41.0925C43.5357 41.1331 43.5254 41.1598 43.5157 41.2056L43.6335 41.2102C43.7983 41.3659 43.8688 41.2768 44.0534 41.2556L44.1121 41.3186C44.1602 41.2913 44.1566 41.3035 44.1827 41.263C44.2498 41.1589 44.2934 41.0342 44.3915 40.97L44.4322 40.9872C44.4166 41.1229 44.3146 41.1595 44.2905 41.2937C44.4389 41.1696 44.4769 41.3327 44.6025 41.2685C44.6377 41.1752 44.6403 41.1346 44.6274 41.0327C44.5749 40.9513 44.5521 40.9642 44.4718 40.9497L44.4654 40.907C44.4953 40.8696 44.5248 40.8296 44.5559 40.7937C44.6496 40.6856 44.6892 40.6322 44.7288 40.4746C44.7322 40.4608 44.7352 40.4469 44.7385 40.4331C44.8094 40.4617 44.8207 40.4743 44.872 40.5428C44.8791 40.6564 44.8664 40.6632 44.8158 40.7605L44.8475 40.7986L44.915 40.7894C44.9397 40.751 44.9612 40.7135 44.9824 40.6718L45.0041 40.6282C45.0948 40.5898 45.1737 40.5538 45.2701 40.5523L45.2631 40.6245C45.202 40.7178 45.1313 40.7473 45.0436 40.7934L45.0043 40.8137L45.0256 40.8616C45.0443 40.8539 45.0947 40.8324 45.1119 40.8278C45.2891 40.7777 45.2393 40.6251 45.3665 40.5194C45.4072 40.5483 45.4464 40.5729 45.4898 40.5947L45.5036 40.5492C45.4447 40.4571 45.383 40.4442 45.2963 40.4015L45.2867 40.3395L45.3605 40.2909C45.3728 40.2237 45.3868 40.157 45.4014 40.0904C45.455 40.0382 45.4921 40.0133 45.5576 39.9909C45.6719 40.099 45.6615 40.3253 45.7777 40.438C45.8306 40.4893 45.8596 40.486 45.9199 40.4761C45.9388 40.4408 45.9585 40.4058 45.9771 40.3702C46.049 40.2329 46.0917 40.2083 46.217 40.1629C46.1853 40.2501 46.1577 40.2882 46.17 40.3858L46.2195 40.4116L46.2571 40.2989C46.306 40.3198 46.2815 40.3742 46.328 40.4273C46.358 40.337 46.3331 40.2344 46.3243 40.1377L46.3535 40.095C46.4184 40.0799 46.4602 40.0971 46.5213 40.1211C46.5628 40.1374 46.6194 40.0572 46.6803 40.0471C46.6517 40.0981 46.6379 40.1352 46.6258 40.1957L46.6599 40.2516C46.8096 40.267 46.8654 40.0799 46.9942 40.0081L46.9194 40.1718L46.9466 40.1957C47.0156 40.1481 47.0227 40.098 47.0575 40.0111L47.1054 39.9915C47.1049 40.0587 47.0957 40.0891 47.1243 40.1478L47.236 40.0934L47.3154 40.1487C47.3606 40.1039 47.3765 40.0379 47.4006 39.9734L47.4358 39.9724C47.4687 40.0824 47.5072 40.2495 47.5685 40.3388C47.5906 40.3708 47.6269 40.4208 47.6644 40.4211C47.776 40.4218 47.8313 40.3186 47.8978 40.2243C47.9858 40.0999 48.0293 40.0637 48.164 40.056C48.1731 40.0554 48.1822 40.0554 48.1913 40.0551L48.2099 40.0105L48.1607 39.9528L48.188 39.9119C48.2752 39.9285 48.291 39.9362 48.3605 40.0041C48.5312 40.0071 48.6874 39.9128 48.852 39.8665C48.9054 39.8514 48.9205 39.8523 48.9643 39.8984C49.01 39.9463 49.0161 40.0047 49.0204 40.0735C49.0223 40.103 49.0227 40.1328 49.0255 40.1619C49.0352 40.2648 49.0416 40.2866 49.1075 40.3493C49.365 40.4003 49.6649 40.2476 49.9068 40.1447C49.7727 40.1337 49.6224 40.1407 49.4978 40.0741L49.4854 40.0197L49.5232 39.9666C49.6045 39.9562 49.7061 39.9494 49.7736 39.8843C49.832 39.8278 49.8337 39.794 49.8356 39.7108C49.8054 39.6622 49.7864 39.6407 49.7782 39.5784C49.8278 39.5643 49.8467 39.5529 49.8819 39.5065C49.8533 39.4694 49.8245 39.4334 49.7943 39.3981L49.766 39.3652C49.8511 39.3081 49.9403 39.3456 50.0171 39.2795L49.9835 39.2089C49.9939 39.0882 50.172 38.9822 50.2436 38.8926L50.1824 38.8431C50.1254 38.8582 50.0938 38.8615 50.0368 38.8397C49.7996 38.7482 49.4598 38.6788 49.2137 38.7009C49.2034 38.7018 49.1933 38.7031 49.183 38.7043L49.1916 38.6742L49.1459 38.6988C49.3097 38.5126 49.6471 38.5341 49.8662 38.5071L49.9541 38.6026C50.0794 38.5971 50.1321 38.3904 50.2646 38.3646L50.2716 38.3999C50.2505 38.4119 50.2144 38.431 50.1963 38.4472C50.1385 38.4988 50.138 38.5437 50.1235 38.6247C50.1899 38.544 50.2284 38.5126 50.3182 38.4844L50.5368 38.4144L50.5727 38.3572C50.5188 38.3548 50.4811 38.3462 50.4306 38.3222C50.4631 38.2583 50.4888 38.2427 50.5432 38.212L50.5991 38.2802C50.6166 38.2734 50.6448 38.262 50.6608 38.258C50.7373 38.2381 50.775 38.2322 50.8424 38.1779C50.8874 38.1416 50.9227 38.1149 50.9747 38.0949C50.9907 38.1607 50.9791 38.1306 51.0087 38.1852C51.0847 38.1327 51.0804 38.1269 51.1238 38.0258C51.1069 37.993 51.0319 37.969 51.0008 37.9534C51.0422 37.918 51.0748 37.8846 51.1088 37.8382C51.0732 37.8102 51.0377 37.7854 51.0008 37.7602C51.0528 37.6739 51.3995 37.6508 51.5052 37.6155C51.6571 37.5648 52.0192 37.4693 52.0963 37.3035L52.0845 37.2476C51.8375 37.254 51.4394 37.0759 51.3435 37.09C51.2833 37.0989 51.2267 37.1041 51.1661 37.1084L51.1367 36.9991L51.2361 36.9254C51.1913 36.8928 51.1526 36.8606 51.1127 36.8194C50.9848 36.6877 50.8264 36.7356 50.6977 36.606C50.7671 36.5872 50.8553 36.5869 50.906 36.5258C50.8366 36.489 50.7768 36.4576 50.7183 36.3959C50.7332 36.3375 50.7354 36.3004 50.7307 36.2396C50.6011 36.1548 50.409 36.1745 50.2663 36.1244C50.1617 36.0878 50.059 36.0154 49.9621 35.9546L50.1071 35.7245L50.2074 35.7267L50.236 35.6917C50.2027 35.6044 50.0668 35.57 49.9959 35.5184L50.0038 35.4601C50.2411 35.226 50.4325 35.4373 50.6806 35.3302L50.6681 35.215C50.7288 35.1708 50.6967 35.1763 50.7646 35.1978L50.8045 35.3028C50.8612 35.262 50.8676 35.2113 50.895 35.1391L50.8745 35.0952C50.8133 35.0777 50.8415 35.0808 50.7805 35.0826C50.5372 35.0894 50.2937 35.0703 50.0496 35.0814C49.8668 35.0897 49.6874 35.1262 49.5043 35.1228L49.4763 35.0789L49.5156 35.0252C49.7152 34.9773 49.9236 34.9275 50.127 34.922C50.2645 34.9183 50.4091 34.9472 50.5449 34.9263C50.691 34.9039 50.8106 34.8372 50.963 34.8424L51.077 34.8136L51.1036 34.7577C50.9131 34.6078 50.7065 34.8916 50.506 34.5718C50.4183 34.5872 50.3102 34.6216 50.2243 34.5998C50.2973 34.4625 50.3961 34.5835 50.3779 34.3387C50.4287 34.3366 50.4556 34.3378 50.5059 34.3547C50.4959 34.4069 50.4874 34.4177 50.4601 34.457C50.5089 34.4899 50.5212 34.4932 50.5758 34.4714C50.6091 34.4582 50.6533 34.4183 50.6819 34.3968C50.7455 34.422 50.7699 34.4628 50.8127 34.5249C50.8735 34.5101 50.8417 34.523 50.8972 34.4895C50.9922 34.4321 51.1205 34.4472 51.1972 34.3575C51.1886 34.2699 51.1695 34.2481 51.1271 34.176L51.0773 34.168C51.0385 34.2079 51.0016 34.2475 50.9662 34.2921C50.9221 34.2242 50.9832 34.1932 50.9126 34.1723L50.8516 34.2457C50.7978 34.2386 50.7584 34.2257 50.7084 34.2024C50.6358 34.1686 50.5771 34.1778 50.5015 34.183C50.4529 34.1864 50.4734 34.1892 50.4268 34.1689C50.4522 34.1093 50.5084 34.1075 50.5086 34.0553C50.9001 33.984 51.4177 34.1652 51.7032 33.9069L51.6914 33.8698L51.5014 33.8851C51.4724 33.832 51.4538 33.8 51.4138 33.7589L51.3639 33.8701L51.3256 33.8655L51.276 33.7355L51.2599 33.734C51.2312 33.8003 51.2102 33.8476 51.1638 33.8955C51.0988 33.8919 51.0647 33.8931 51.0127 33.8393L51.0493 33.7214C50.9813 33.6673 50.8872 33.6959 50.8107 33.7033L50.7867 33.7414L50.8158 33.8083C50.8504 33.7976 50.8807 33.7856 50.9137 33.7681C50.9241 33.7626 50.9343 33.7567 50.9446 33.7509C50.9509 33.8271 50.9589 33.8157 50.9242 33.8866C50.9017 33.8949 50.8814 33.9035 50.8585 33.9084C50.8059 33.9198 50.7274 33.9266 50.663 33.9109C50.6831 33.9026 50.7008 33.8919 50.7145 33.8765C50.7002 33.8341 50.69 33.8132 50.6749 33.7927C50.685 33.7899 50.6966 33.7871 50.7118 33.7834L50.7281 33.7048C50.7102 33.6204 50.6757 33.5482 50.6438 33.4714C50.7626 33.445 50.94 33.4388 51.039 33.3486L50.8903 33.2856C50.8467 33.2051 50.7985 33.1062 50.7342 33.0525C50.6664 32.996 50.6118 33.0101 50.5366 33.0282C50.4639 33.0457 50.4043 33.0562 50.3304 33.0552C50.3102 33.038 50.2972 33.0258 50.2877 33.0138C50.337 33.0061 50.3827 32.9831 50.4586 32.9441C50.6693 32.836 50.9295 32.9358 51.141 32.8105C51.1424 32.7407 51.1427 32.6707 51.1419 32.601C51.1554 32.5896 51.1691 32.5783 51.1825 32.5666C51.2221 32.5316 51.2458 32.5052 51.2757 32.4591L51.2457 32.4081C51.2323 32.4133 51.2191 32.4189 51.2057 32.4238C51.1454 32.4462 51.1234 32.4517 51.0631 32.4278C51.0165 32.4093 50.9675 32.4038 50.9171 32.4066C50.9296 32.3949 50.9391 32.3768 50.9539 32.3402L50.8988 32.2496C50.8832 32.2552 50.868 32.2638 50.8519 32.2665C50.7924 32.2767 50.7781 32.2662 50.7384 32.2119C50.8062 32.1157 50.9633 32.1557 51.0639 32.1409C51.1307 32.1314 51.1964 32.1314 51.2409 32.0641C51.2209 32.0322 51.22 32.0273 51.1906 31.9993C51.0238 31.8408 50.6634 31.9437 50.4766 31.987C50.4176 32.0009 50.38 32.0049 50.3231 31.9803C50.3059 31.9729 50.2891 31.9643 50.2721 31.9563L50.301 31.9112C50.3289 31.8943 50.3729 31.8731 50.3983 31.8479C50.4646 31.7822 50.4507 31.7189 50.4563 31.62C50.558 31.5279 50.7115 31.546 50.8326 31.5042L50.7952 31.4164C50.8423 31.3768 50.8876 31.339 50.942 31.3187C51.1081 31.257 51.1762 31.4112 51.3187 31.4477C51.4847 31.4904 51.6708 31.2573 51.8457 31.3755L51.8273 31.4726L51.8554 31.487L51.9249 31.3746C51.9682 31.4047 52.0169 31.4388 52.0662 31.4493C52.1269 31.4622 52.1852 31.4477 52.234 31.3992L52.136 31.3384L52.1469 31.2926C52.185 31.2846 52.2241 31.2745 52.2625 31.2687C52.3382 31.257 52.3723 31.2512 52.4324 31.1906C52.4724 31.1504 52.4956 31.1255 52.5463 31.1093C52.5976 31.1658 52.5706 31.1446 52.6255 31.1762C52.6872 31.0884 52.8883 30.7997 52.8593 30.6762C52.8561 30.6624 52.8032 30.5586 52.8027 30.5506C52.8 30.5058 52.8502 30.4784 52.8556 30.4339C52.799 30.4366 52.8228 30.4452 52.7824 30.4194L52.7885 30.3685C52.8853 30.3049 53.0623 30.3433 53.1732 30.3445L53.132 30.2729L53.1486 30.2465C53.4197 30.3949 53.2627 30.5223 53.3123 30.6713C53.3886 30.6882 53.4243 30.6906 53.4965 30.6529L53.4977 30.5948L53.4428 30.5405L53.3917 30.5933L53.3484 30.5659L53.3731 30.4575C53.3333 30.3847 53.3001 30.3156 53.2686 30.2358L53.2994 30.1897C53.4138 30.1823 53.4858 30.1501 53.5862 30.0825L53.587 30.0389C53.4477 29.9606 53.2932 30.0017 53.1465 29.9557L53.1294 29.886C53.1172 29.9075 53.0978 29.9443 53.0827 29.9612C53.0352 30.0147 53.003 30.0054 52.9448 30.003L52.9083 29.9342C52.9165 29.8893 52.9326 29.823 52.9314 29.7754C52.9291 29.6731 52.9015 29.6188 52.8508 29.5454C52.8199 29.6037 52.7959 29.6393 52.7508 29.6796L52.7139 29.6476L52.7507 29.5054L52.7186 29.4873C52.5842 29.4962 52.4078 29.5211 52.2983 29.6298C52.265 29.663 52.2475 29.6839 52.2106 29.7094L52.1679 29.7385L52.1076 29.7269C52.0533 29.6737 51.9993 29.5426 51.9376 29.51C51.8161 29.4458 51.4195 29.5825 51.1925 29.4081C51.1386 29.3666 51.1383 29.3519 51.1241 29.2781C51.2591 29.0389 51.6049 29.1541 51.7691 29.0214C51.6613 28.9296 51.5851 28.827 51.5011 28.7007L51.5145 28.6501C51.5762 28.6187 51.6038 28.6031 51.6719 28.6129C51.723 28.6203 51.766 28.6246 51.8175 28.623C51.7598 28.592 51.706 28.5748 51.6653 28.5116C51.8003 28.4397 51.9948 28.4965 52.1101 28.4031C52.0181 28.3245 51.8321 28.3813 51.7208 28.3697C51.6379 28.3611 51.6013 28.3525 51.5498 28.2652C51.544 28.2554 51.5388 28.245 51.5333 28.2348C51.5018 28.2861 51.4764 28.3138 51.433 28.3472C51.331 28.3181 51.232 28.2913 51.1348 28.2413L51.1646 28.1931L51.3289 28.2259C51.3844 28.1854 51.4295 28.1752 51.4934 28.1728C51.5002 28.1725 51.5069 28.174 51.5136 28.1746L51.5191 28.1418C51.471 28.0275 51.4034 28.0134 51.3454 27.913C51.387 27.8617 51.3731 27.8654 51.4179 27.8472C51.4951 27.8156 51.5718 27.7898 51.6485 27.7548C51.5793 27.7016 51.4439 27.7167 51.3596 27.7198C51.3162 27.7213 51.2896 27.7287 51.2488 27.7059C51.2411 27.7016 51.2339 27.6958 51.2263 27.6906C51.1177 27.7179 51.0218 27.7293 50.9138 27.6943L50.8838 27.5803C50.8593 27.6113 50.8451 27.6316 50.8156 27.658C50.7671 27.7016 50.7224 27.7164 50.6652 27.7032L50.6533 27.639C50.6649 27.6246 50.6753 27.608 50.6881 27.5954C50.7549 27.53 50.8084 27.4814 50.8694 27.4019C50.8433 27.365 50.7331 27.4191 50.6662 27.3804L50.6403 27.1414C50.6425 27.0637 50.5883 27.0465 50.5883 26.9612C50.6487 26.9249 50.6913 26.9053 50.7328 26.8349C50.7171 26.7323 50.7114 26.7388 50.6453 26.6758L50.5938 26.6743C50.5638 26.5647 50.5424 26.4624 50.4777 26.3773L50.453 26.4037C50.4779 26.4919 50.4975 26.5392 50.4776 26.6338L50.4343 26.6513L50.3706 26.5871C50.3582 26.5278 50.3559 26.494 50.3605 26.431C50.3619 26.4117 50.3641 26.3927 50.366 26.3733L50.315 26.3266L50.3086 26.2759C50.5936 26.2004 50.8861 26.299 51.174 26.2065C51.1835 26.2035 51.1929 26.2001 51.2024 26.197C51.3087 26.1853 51.3655 26.189 51.4631 26.2471C51.494 26.2038 51.4955 26.186 51.5415 26.1746C51.6269 26.1537 51.6863 26.1359 51.7592 26.0745C51.7284 26.0066 51.7068 26.0097 51.6497 25.9931C51.5006 25.9498 51.3282 26.0253 51.1679 25.9968L51.1529 25.9544C51.2096 25.9012 52.1519 25.7593 52.3469 25.7136C51.9404 25.6264 51.5442 25.6565 51.1361 25.6162C50.9059 25.5935 50.6704 25.5333 50.4392 25.5229C50.4534 25.5072 50.4672 25.4906 50.4811 25.4716C50.4626 25.4571 50.4436 25.4442 50.425 25.431C50.4668 25.4062 50.5019 25.3607 50.5386 25.3168C50.5589 25.3119 50.5799 25.3073 50.6014 25.3029C50.5521 25.3515 50.5504 25.3957 50.5366 25.4725C50.603 25.3917 50.6415 25.3604 50.7313 25.3321L50.9499 25.2621L50.9788 25.216C51.1178 25.1715 51.3074 25.1058 51.41 25.0115C51.413 25.017 51.4166 25.0232 51.4218 25.033C51.4978 24.9805 51.4935 24.9746 51.5369 24.8736C51.52 24.8407 51.445 24.8168 51.4139 24.8011C51.4554 24.7658 51.488 24.7323 51.522 24.6859C51.4863 24.658 51.4509 24.6328 51.4139 24.6079C51.4659 24.5216 51.8126 24.4986 51.9183 24.4633C52.0702 24.4126 52.4324 24.3171 52.5094 24.1509L52.4976 24.095C52.2506 24.1015 51.8526 23.9233 51.7566 23.9375C51.6965 23.9464 51.6398 23.9519 51.5793 23.9559L51.5498 23.8465L51.6492 23.7731C51.6044 23.7406 51.5657 23.7083 51.5258 23.6672C51.3979 23.5354 51.2395 23.5833 51.1108 23.4537C51.1802 23.435 51.2684 23.4347 51.3191 23.3736C51.2497 23.3367 51.1899 23.3054 51.1315 23.2436C51.1463 23.1853 51.1485 23.1481 51.1438 23.0873C51.0142 23.0025 50.8221 23.0222 50.6794 22.9721C50.5749 22.9356 50.4721 22.8631 50.3752 22.8023L50.5202 22.5723L50.6205 22.5744L50.6491 22.5394C50.624 22.4737 50.5404 22.4377 50.4704 22.4021L50.4758 22.3907C50.4542 22.3738 50.4324 22.3628 50.4104 22.3554L50.4169 22.3078C50.6542 22.0738 50.8456 22.2851 51.0937 22.1776L51.0812 22.0624C51.1419 22.0182 51.1098 22.0237 51.1777 22.0452L51.2176 22.1503C51.2743 22.1094 51.2808 22.0584 51.3081 21.9866L51.2876 21.9426C51.2264 21.9251 51.2546 21.9282 51.1936 21.93C50.982 21.9359 50.7702 21.9233 50.558 21.927C50.5468 21.8861 50.529 21.8594 50.4993 21.809L50.4495 21.8011C50.4107 21.841 50.3738 21.8806 50.3384 21.9251C50.2943 21.8573 50.3554 21.8262 50.2848 21.8053L50.2238 21.8788C50.171 21.8717 50.132 21.8591 50.0834 21.8367C50.2346 21.8026 50.3887 21.7737 50.54 21.7697C50.6775 21.766 50.8222 21.7949 50.9579 21.774C51.1041 21.7516 51.2236 21.685 51.3761 21.6899L51.49 21.661L51.5167 21.6051C51.3694 21.4893 51.2126 21.6312 51.0564 21.5547C51.0626 21.5498 51.0693 21.5455 51.0753 21.54L51.0635 21.5028L50.9908 21.5087C50.9668 21.4859 50.9428 21.4571 50.919 21.419C50.8893 21.4242 50.8571 21.4313 50.8244 21.438C50.8134 21.423 50.8015 21.4082 50.7859 21.3923L50.7606 21.4488C50.7328 21.4525 50.7059 21.4534 50.6796 21.4515L50.6635 21.4095C50.7316 21.3336 50.8069 21.4024 50.7909 21.1859C50.8416 21.1837 50.8686 21.1849 50.9188 21.2018C50.9088 21.254 50.9003 21.2648 50.8731 21.3041C50.9219 21.337 50.9342 21.3404 50.9887 21.3185C51.022 21.3053 51.0662 21.2654 51.0949 21.2439C51.1584 21.2694 51.1829 21.31 51.2256 21.372C51.2865 21.3573 51.2547 21.3702 51.3102 21.3367C51.4052 21.2792 51.5335 21.2943 51.6102 21.2046C51.6016 21.1171 51.5825 21.0953 51.5401 21.0231L51.4903 21.0151C51.4515 21.055 51.4146 21.0947 51.3791 21.1392C51.335 21.0713 51.3961 21.0403 51.3256 21.0194L51.2646 21.0928C51.2107 21.0857 51.1714 21.0728 51.1214 21.0495C51.0488 21.0157 50.9901 21.0249 50.9144 21.0302C50.8659 21.0338 50.8863 21.0363 50.8397 21.016C50.8652 20.9564 50.9214 20.9546 50.9215 20.9024C51.3131 20.8311 51.8307 21.0123 52.1161 20.754L52.1043 20.7169L51.9144 20.7322C51.8854 20.6791 51.8668 20.6472 51.8268 20.606L51.7768 20.7172L51.7386 20.7126L51.689 20.5827L51.6729 20.5811C51.6441 20.6478 51.6231 20.6948 51.5767 20.7427C51.5117 20.739 51.4776 20.7402 51.4256 20.6865L51.4623 20.5685C51.3943 20.5145 51.3002 20.543 51.2236 20.5504L51.1996 20.5885L51.2288 20.6555C51.2633 20.6447 51.2936 20.6327 51.3267 20.6152C51.337 20.6097 51.3472 20.6039 51.3575 20.598C51.3638 20.6742 51.3718 20.6628 51.3372 20.7338C51.3146 20.7421 51.2944 20.7507 51.2714 20.7556C51.2188 20.7669 51.1403 20.7737 51.076 20.758C51.096 20.7501 51.1138 20.739 51.1274 20.7236C51.1132 20.6813 51.1029 20.6604 51.0878 20.6398C51.098 20.637 51.1096 20.6343 51.1248 20.6306L51.1411 20.5519C51.1231 20.4675 51.0887 20.3953 51.0567 20.3185C51.1756 20.2921 51.3529 20.286 51.452 20.1957L51.3033 20.133C51.2597 20.0526 51.2114 19.9537 51.1471 19.8999C51.0794 19.8434 51.0247 19.8575 50.9495 19.8756C50.8768 19.8932 50.8172 19.9039 50.7434 19.9027C50.7232 19.8855 50.7102 19.8732 50.7006 19.8612C50.7499 19.8535 50.7956 19.8305 50.8715 19.7915C51.0822 19.6834 51.3424 19.7832 51.554 19.6579C51.5553 19.5882 51.5556 19.5182 51.5548 19.4484C51.5683 19.4371 51.5821 19.4257 51.5954 19.414C51.635 19.379 51.6588 19.3526 51.6887 19.3065L51.6586 19.2556C51.6453 19.2608 51.632 19.2663 51.6186 19.2712C51.5583 19.2936 51.5363 19.2992 51.4761 19.2752C51.4295 19.2568 51.3804 19.2513 51.33 19.254C51.3426 19.2423 51.352 19.2242 51.3668 19.1877L51.3118 19.0971C51.2962 19.1026 51.281 19.1112 51.2649 19.114C51.2509 19.1164 51.2396 19.1177 51.2297 19.1173L51.297 19.0083C51.3403 19.0384 51.3889 19.0725 51.4383 19.0829C51.499 19.0958 51.5573 19.0814 51.6061 19.0329L51.5243 18.9822C51.5739 18.9751 51.62 18.9629 51.6538 18.9116C51.651 18.907 51.6491 18.9039 51.6469 18.9002C51.7139 18.8895 51.7478 18.8812 51.8044 18.8243C51.8444 18.7841 51.8677 18.7592 51.9184 18.743C51.9696 18.7995 51.9427 18.7783 51.9976 18.8099C52.0593 18.7221 52.2603 18.4334 52.2314 18.3096C52.2286 18.2979 52.1901 18.2211 52.1783 18.1935C52.2053 18.1975 52.2321 18.2055 52.2586 18.2233L52.2403 18.3203L52.2684 18.3348L52.3378 18.2224C52.3812 18.2525 52.4298 18.2866 52.4791 18.297C52.5399 18.3099 52.5981 18.2952 52.6469 18.2469L52.5489 18.1861L52.5598 18.1404C52.598 18.1324 52.637 18.1222 52.6754 18.1164C52.6788 18.1158 52.6816 18.1155 52.6848 18.1149C52.681 18.1763 52.6623 18.2383 52.6843 18.3044C52.7606 18.3213 52.7963 18.3237 52.8685 18.2859L52.8697 18.2279L52.8148 18.1735L52.7637 18.2264L52.7204 18.1987L52.7422 18.1032C52.778 18.0934 52.8062 18.0774 52.8453 18.0381C52.8853 17.9979 52.9086 17.973 52.9592 17.9567C53.0105 18.0132 52.9836 17.992 53.0384 18.0237C53.1001 17.9358 53.3012 17.6471 53.2723 17.5233C53.269 17.5095 53.2161 17.4057 53.2156 17.3977C53.2129 17.3529 53.2632 17.3255 53.2686 17.2813C53.212 17.2841 53.2358 17.2927 53.1954 17.2669L53.2014 17.2156C53.2982 17.152 53.4753 17.1904 53.5861 17.1916L53.5449 17.1201L53.5615 17.0937C53.8326 17.242 53.6756 17.3695 53.7252 17.5184C53.8015 17.5353 53.8373 17.5378 53.9094 17.5L53.9107 17.4419L53.8558 17.3876L53.8047 17.4404L53.7614 17.4131L53.7861 17.3047C53.7463 17.2319 53.713 17.1628 53.6815 17.0829L53.7124 17.0368C53.8268 17.0313 53.8988 16.9991 53.9992 16.9318ZM47.1107 7.16167C47.1652 7.21757 47.2048 7.26456 47.2769 7.27562C47.3301 7.2836 47.3169 7.27808 47.3649 7.23508L47.3733 7.09748L47.4132 7.05417L47.4963 7.07106L47.5309 7.19853L47.5958 7.21941C47.5785 7.17764 47.5694 7.13004 47.5579 7.0852L47.5797 7.04772C47.6375 7.05018 47.6715 7.06646 47.722 7.09963C47.7766 7.13587 47.7956 7.14877 47.8585 7.12942C47.9881 7.0898 48.1402 7.03298 48.2715 7.08059C48.2802 7.13096 48.2886 7.16505 48.3053 7.21327C48.4194 7.13249 48.5523 7.01087 48.6866 7.03697C48.9022 7.07874 49.9903 7.02315 50.4555 6.9562C50.2325 7.05479 50.0008 7.22986 49.8083 7.27316C49.7527 7.28575 49.682 7.29835 49.6063 7.30787L49.5608 7.28329C49.5563 7.29404 49.5513 7.30418 49.5467 7.31462C49.5081 7.31861 49.469 7.32169 49.4304 7.32322C49.4254 7.30879 49.4208 7.29435 49.4145 7.2793L49.3849 7.29435L49.3814 7.32445C49.2951 7.32568 49.2141 7.31923 49.1526 7.30111C49.0717 7.27716 49.1044 7.13034 49.0101 7.16904C48.9975 7.17426 48.9513 7.21205 48.9388 7.22187L48.8845 7.21296C48.7778 7.19576 48.6692 7.16044 48.5689 7.22217C48.5372 7.28667 48.5271 7.34442 48.5142 7.41782C48.4968 7.43625 48.4821 7.45038 48.4679 7.46143C48.399 7.43441 48.3362 7.39324 48.2592 7.40461L48.2308 7.45098L48.2375 7.46666C48.1881 7.45007 48.1373 7.42887 48.0866 7.40891C48.0715 7.3957 48.0556 7.38281 48.0378 7.37083C48.012 7.36499 47.989 7.36591 47.9675 7.37052C47.9187 7.35915 47.8714 7.35486 47.8279 7.36745C47.7956 7.40677 47.7656 7.44669 47.7363 7.48754C47.7 7.49798 47.6641 7.49798 47.6259 7.47741L47.5914 7.34042L47.5577 7.32813C47.5516 7.34226 47.543 7.35485 47.5395 7.37052C47.5363 7.38495 47.5355 7.3997 47.5348 7.41475C47.5012 7.38035 47.4707 7.34933 47.4375 7.35455L47.3842 7.41383L47.3344 7.35947C47.2955 7.40277 47.2722 7.45007 47.2474 7.50382L47.2251 7.48968L47.2187 7.37544C47.1921 7.40431 47.1654 7.42857 47.1371 7.45252C47.13 7.43502 47.1218 7.42119 47.1045 7.4129C47.1104 7.35086 47.1145 7.29159 47.1127 7.2277L47.1107 7.16167ZM3.31869 14.8461L3.28126 14.8212C3.29178 14.8157 3.30237 14.8101 3.31278 14.804C3.34729 14.784 3.37166 14.7638 3.40127 14.7343L3.39513 14.6507L3.35134 14.6274C3.28796 14.6716 3.24945 14.6698 3.20876 14.671C3.25035 14.6363 3.28756 14.6179 3.34841 14.6047C3.40977 14.6348 3.42469 14.6443 3.45255 14.6919C3.45672 14.7242 3.46077 14.7567 3.46471 14.7893C3.41 14.8531 3.39339 14.8412 3.31869 14.8461ZM3.20093 16.2681L3.1966 16.2705L3.1917 16.2659C3.1948 16.2669 3.19783 16.2675 3.20093 16.2681ZM3.26702 16.1185C3.26645 16.1299 3.26578 16.1419 3.26426 16.1529C3.2552 16.1502 3.24788 16.1477 3.24124 16.1459C3.23195 16.1148 3.22108 16.1038 3.20442 16.089C3.22559 16.0992 3.24653 16.1087 3.26702 16.1185ZM6.94423 28.1544C6.90291 28.1322 6.8984 28.0951 6.88923 28.0665C6.927 28.0505 6.94186 28.0263 6.98228 27.9827C7.00997 28.0069 7.01853 28.0211 7.02472 28.0423L6.99646 28.0367C6.94833 28.0886 6.95757 28.0825 6.94423 28.1544ZM7.15188 28.1691L7.1037 28.0576L7.06328 28.0499L7.08141 28.0143L7.14946 28.0475L7.18301 28.1534C7.1892 28.1525 7.19703 28.1513 7.20502 28.1504C7.20395 28.1587 7.20271 28.1682 7.20086 28.1817L7.15188 28.1691ZM7.36945 28.2299L7.33612 28.1921L7.34181 28.1338C7.37237 28.1304 7.40519 28.1264 7.43902 28.1224C7.43216 28.1525 7.42731 28.182 7.4227 28.2182L7.36945 28.2299ZM7.53393 28.1602L7.51592 28.1123C7.53911 28.1092 7.56219 28.1058 7.58515 28.1021L7.56129 28.1577L7.53393 28.1602ZM7.77435 28.0889C7.75059 28.0837 7.73984 28.0794 7.73269 28.0745C7.81212 28.0561 7.8737 28.034 7.89346 28.0066C7.92335 27.9655 7.95386 27.928 7.98651 27.8902C8.01696 27.9308 8.03954 27.994 8.05744 28.0674C7.95898 28.0849 7.85344 28.1064 7.77435 28.0889ZM8.44624 28.0797C8.42958 28.0822 8.41381 28.0813 8.39799 28.0803C8.39715 28.045 8.39406 28.0091 8.39073 27.971L8.41196 27.9369C8.50354 28.0008 8.41297 27.9332 8.49206 28.0051C8.51458 28.0257 8.53495 28.0367 8.55544 28.0453C8.50878 28.0622 8.4678 28.0763 8.44624 28.0797ZM50.6701 32.4723C50.4471 32.5709 50.2154 32.746 50.0229 32.7893C49.9673 32.8019 49.8966 32.8144 49.8209 32.824L49.7754 32.7994C49.7709 32.8102 49.7658 32.8203 49.7613 32.8307C49.7227 32.8347 49.6836 32.8378 49.645 32.8393C49.64 32.8249 49.6354 32.8105 49.6291 32.7954L49.5995 32.8105L49.596 32.8406C49.5097 32.8418 49.4287 32.8353 49.3671 32.8169C49.2863 32.793 49.319 32.6461 49.2247 32.6848C49.2121 32.6901 49.1659 32.7278 49.1534 32.7377L49.0991 32.7288C48.9924 32.7116 48.8838 32.6762 48.7835 32.738C48.7518 32.8025 48.7417 32.8602 48.7288 32.9336C48.7114 32.952 48.6967 32.9662 48.6825 32.9772C48.6136 32.9502 48.5508 32.909 48.4737 32.9204L48.4454 32.9668L48.4522 32.9825C48.4028 32.9659 48.352 32.9447 48.3013 32.9247C48.2861 32.9112 48.2703 32.8983 48.2525 32.8863C48.2266 32.8805 48.2037 32.8814 48.1822 32.886C48.1333 32.8746 48.086 32.8703 48.0426 32.8829C48.0102 32.9223 47.9802 32.9622 47.9509 33.003C47.9147 33.0132 47.8787 33.0135 47.8406 32.9929L47.806 32.8562L47.7724 32.8439C47.7663 32.8581 47.7576 32.8707 47.7542 32.8863C47.751 32.9008 47.7501 32.9155 47.7494 32.9305C47.7158 32.8961 47.6853 32.8651 47.6522 32.8703L47.5988 32.9296L47.549 32.8753C47.5101 32.9186 47.4869 32.9659 47.462 33.0196L47.4397 33.0055L47.4334 32.8912C47.4067 32.9201 47.38 32.9447 47.3517 32.968C47.3447 32.9505 47.3364 32.9367 47.3191 32.9284C47.325 32.8664 47.3291 32.8071 47.3274 32.7432L47.3253 32.6775C47.3798 32.7334 47.4194 32.7804 47.4915 32.7914C47.5447 32.7994 47.5315 32.7939 47.5794 32.7509L47.5879 32.6133L47.6278 32.57L47.7109 32.5869L47.7455 32.7143L47.8104 32.7352C47.7931 32.6934 47.784 32.6458 47.7725 32.601L47.7943 32.5635C47.8521 32.566 47.8861 32.5823 47.9366 32.6154C47.9912 32.6514 48.0102 32.6646 48.0731 32.6452C48.2026 32.6056 48.3547 32.5488 48.4861 32.5964C48.4947 32.6468 48.5032 32.6809 48.5198 32.7291C48.6339 32.6483 48.7669 32.5267 48.9012 32.5528C49.1168 32.5949 50.2049 32.5393 50.6701 32.4723ZM50.5309 19.6078C50.3535 19.4871 50.0244 19.5802 49.8487 19.621C49.8049 19.6312 49.7729 19.6358 49.736 19.6278C49.7177 19.5955 49.7109 19.5535 49.6891 19.536C49.716 19.5209 49.7494 19.5028 49.7703 19.4819C49.7931 19.4595 49.806 19.4371 49.8139 19.4134C50.2302 19.4027 50.7847 19.3643 51.0831 19.3213C50.8957 19.4042 50.7022 19.5406 50.5309 19.6078ZM51.2178 19.0102L51.1994 19.1072L51.2183 19.1167C51.1933 19.1127 51.1779 19.0962 51.1515 19.0599C51.1686 19.0356 51.1915 19.02 51.2178 19.0102Z" fill="#FC6B7E"/>
</svg>
