<svg xmlns="http://www.w3.org/2000/svg" width="43" height="43" fill="none" viewBox="0 0 43 43"><path fill="#282828" stroke="#282828" stroke-width=".3" d="M17 9.1q4.6 0 8.6 2.4l-1.3 2.1A14.4 14.4 0 0 0 2.6 26a14.4 14.4 0 1 0 26.8-7.3l2.1-1.3A16.8 16.8 0 0 1 17 43a16.9 16.9 0 0 1 0-34Z"/><path fill="#282828" stroke="#282828" stroke-width=".3" d="M17 16.7q1.5 0 2.8.4l-.8 2.4a6.8 6.8 0 1 0 4.5 4.4l2.3-.8a9.3 9.3 0 1 1-8.8-6.4Z"/><path fill="#282828" stroke="#282828" stroke-width=".3" d="M35.5.5c.7-.7 2-.3 2 .7l.6 3.6.1.1 3.6.5q.5 0 .8.4l.2.6v.7q0 .3-.3.4l-5.2 5.2q-.4.5-1 .3l-4-.6-12.7 12.8h-.1v.1a2.6 2.6 0 0 1-2.5 3.3 2.6 2.6 0 1 1 .7-5.1h.1l12.7-12.8v-.1L30 6.7q0-.7.3-1zm-.2 3.7-2.8 2.7V7l.4 3h.2l2.9.5 3-3h-.2l-2-.3q-.8-.2-1-1l-.3-2V4z"/></svg>