<svg xmlns="http://www.w3.org/2000/svg" width="44" height="44" fill="none" viewBox="0 0 44 44"><path fill="#000" stroke="#000" stroke-width=".2" d="M26 11a.8.8 0 1 1 0 1.6H12.2a.8.8 0 1 1 0-1.5zm0 4.7a.8.8 0 1 1 0 1.6H12.2a.8.8 0 1 1 0-1.6zm0 4.7a.8.8 0 1 1 0 1.5H12.2a.8.8 0 1 1 0-1.5zM18.6 25a.8.8 0 1 1 0 1.6h-6.4a.8.8 0 1 1 0-1.5zm18.9-6.4q1 0 1.8.7l.2.2.1.2c.8 1 .8 2.5-.1 3.4L27.2 35.4l-1 .6-1.3.6-2.7 1q-.3 0-.5-.3l-.2-.1-.2-.8 2.1-4.7 12.3-12.4q.8-.6 1.8-.7ZM24.3 33l-1.1 2.7 2.6-1.2zm.7-.8 1.6 1.6 10-10-1.6-1.6zm12.5-12-.7.2-1 1 1.6 1.6 1-1a1 1 0 0 0 0-1.4l-.2-.2zm-5-12 .4.3.7 2.3 2.3.7a.4.4 0 0 1 0 .8l-2.3.8-.7 2.2a.4.4 0 0 1-.8 0l-.8-2.2-2.3-.8a.4.4 0 0 1 0-.8l2.3-.7.8-2.3q0-.3.4-.3Zm5.1-4.9.2.2.5 1.3 1.3.5h.1l.1.2q0 .2-.2.3l-1.3.4-.5 1.4a.3.3 0 0 1-.5 0L37 6.2l-1.4-.4a.3.3 0 0 1 0-.5l1.4-.5.4-1.3zM33.5 20l-1.8 1.8-.2.1v-5.5h.1a2 2 0 0 0 1.7 0h.2z"/><path fill="#000" stroke="#000" stroke-width=".2" d="M29.8 3c2 0 3.7 1.7 3.7 3.7v.8l-.2-.1a2 2 0 0 0-1.7 0h-.1v-.7Q31.3 5 29.8 5H8.3q-1.6.2-1.7 1.7v31q.2 1.6 1.7 1.7h21.5q1.6-.1 1.7-1.6v-5.1l1.8-1.8.2-.2v7c0 2-1.7 3.7-3.7 3.7H8.3c-2 0-3.6-1.7-3.6-3.6V6.7c0-2 1.6-3.6 3.6-3.6z"/></svg>