<svg xmlns="http://www.w3.org/2000/svg" width="40" height="40" fill="none" viewBox="0 0 40 40"><path fill="#282828" stroke="#282828" stroke-width=".2" d="M4.6 1.8h30.8c2.5 0 4.5 2 4.5 4.4v27.6c0 2.4-2 4.4-4.5 4.4H4.6c-2.5 0-4.5-2-4.5-4.5V6.4c0-2.5 2-4.5 4.5-4.5Zm0 2.3C3.4 4 2.4 5 2.4 6.3v27.5q.2 2 2.2 2.1h30.8c1.2 0 2.2-1 2.2-2.1V6.3q-.2-2-2.2-2.2z"/><path fill="#282828" d="M37.8 9.8H2.2Q1 9.7 1 8.8t1.2-1h35.6q1.1 0 1.2 1t-1.2 1"/><path fill="#282828" stroke="#282828" stroke-width=".2" d="M10.8 13.3c1.8-1.9 5-2 7-.2l.2.2.9.9q.6.7 0 1.5-.9.7-1.6 0l-1-.8a3 3 0 0 0-3.9 0 3 3 0 0 0 0 4l5.2 5.2q1.7 1.5 3.5.4l.2-.2q1-.6 1.7.1.5.9-.1 1.6a5 5 0 0 1-6.9 0l-.2-.2-5.1-5.2-.2-.2a5 5 0 0 1 .2-7Z"/><path fill="#282828" stroke="#282828" stroke-width=".2" d="M17.2 19c2-1.7 5-1.5 6.9.3l5.1 5.2a5 5 0 0 1 1.5 3.6 5 5 0 0 1-1.5 3.6 5 5 0 0 1-7.2 0l-1-.7a1.2 1.2 0 0 1 1.7-1.7l.8.9c1 1 2.8 1 3.9.1h.1a3 3 0 0 0 0-4L22.3 21l-.2-.2a3 3 0 0 0-3.5 0 1.1 1.1 0 1 1-1.5-1.8Z"/></svg>