<svg xmlns="http://www.w3.org/2000/svg" width="46" height="46" fill="none" viewBox="0 0 46 46"><g clip-path="url(#a)"><path fill="#fc5b70" d="m40.7 32.5-.7.1-7.4 7.4a1 1 0 0 0 .4 1h7.3q.6 0 .7-.6V33q0-.4-.4-.6m-6 7.3 5-5v5z"/><path fill="#fc5b70" d="M40.4 33v.2zv.1l-.3.2-.3.3-.1-.1q0 .2-.2.3v.1h-.2v.1l-.5.4-.4.5-.3.2v.2l-.5.2q0 .2-.2.2l-1 1h-.1q0 .3-.3.4h-.1q-.2.1-.1.2l-.5.5H35q0 .3-.2.2v.1l-.3.2-.1.3h-.1v.1l-.5.5-.6.6q0-.2-.2 0h.1l-.2.2v.2h-.1v.3l.2.1h1.2l.4-.1.2.1h.4l.2-.1h.2q.2 0 .3.2l.2-.2q.3.2.4 0h.2l.6.1.1-.1h.5v.2c-.1-.4.3 0 .4 0l.4-.2h1.4l.2.1h.1v-.1h.2v-3.1h-.2V35l.1-1.5q-.2-.2 0-.4c.5.8.3 1.6.3 2.5l.3 2.9-.1.2q.2.7 0 1.6l.1.2v.1q-.2.5-.8.5h-.7V41h-.4l-.5.1h-.4l-2.2-.1-.3.1h-.2l-.2-.1h-2.1c-.2.2.2.1.2.1h.2c0 .3.4-.1.5.2q0-.2.2 0l.1-.1h.7l.3.1v-.1l.3.1c.2-.2 0 0 .2 0h.6v-.1h.8l.4.1h.4q.2-.1.2.1s.2-.3.3 0q0-.2.2-.2.4-.2.8 0l.5.2.1-.1h.4V41h.2l.3-.3q-.2 0 0-.2V40l.3-1.6-.1-.2v-.3h.1l-.1-.7v-.7h-.2v-.2q.2-.3 0-.4v-.3l.1-.2h-.2V34q-.2-.2.1-.3V33H41v-.2l-.2-.1v-.2l-.1-.2.4.2q.3 0 .4.6c.3 1.3.3 3.5.3 4.7l-.2.3.1.1v.2l-.2 1.4.1.3v.4q0 .6-.6 1l-.7.1h-.9l-.6.1-.9-.1H37l-.3.1h-1.5v-.1h-1l-1.2.1a1.3 1.3 0 0 1-1-2.2l.8-.7.2-.1q0-.2.2-.2v-.1l.3-.4.3-.3q.2 0 .2-.2l1.2-1 .2-.2v-.1l.2-.1.3-.3.3-.1h-.1v-.2l.2.1v-.2q.1.3.1 0l.1-.1v-.1h.1l.1-.2q.1.2 0-.1h.1q.3.2.2-.2l.5-.3v-.2l.9-.7v-.2l.3-.1q0-.2.2-.2l.4-.4h.1l.1-.1v-.1h.1l.1-.1q.2 0 0 .2l.4.2.3-.1zm-7.2 6.7q0-.6.5-.9.5 0 .2-.3l-.5.5-.2.1v.2h-.4v.2l-.1.2v.2h-.2l-.1.4-.2.2.1.1v.2q.3.4.8.4h.2l-.6-.3v-.1h-.2v-.3l.2-.6h.1l.1-.2.1-.2zm3.5-3.8q.2 0 .1-.1l-.6.4q.4.1.4-.2zm-2.5 3.4q0-.2.2-.3h.2l.1-.2h.1l.2-.1.1-.2h.2v-.1l.3-.2.2-.3.2-.1v-.1l.3-.1.1-.2.6-.5h.1l.1-.3h.1s.3 0 0-.1q.2 0 .4-.3h.3l-.1-.2h.2v-.2h.1v-.1q0-.2.3-.3l.3-.4.2.1h-.1l.1-.2.1-.2.4-.3.7-.8v2.2l.1.2-.1.2v.2l.1.1v.1q0 .2-.2.2l.2.2q-.2 0 0 .2v.1l-.1.3.1.1v.3h-.2.1c.3 0 0 .2 0 .2l.1.3v1.7h-2.5v.2h-1.5l-.9-.1q-.1.2-.2 0 .8-.5 1.4-.3l1.7-.3.1.1q.6-.2 1 0l.2-.2v.2h.2V39h.1v-.2l-.1-.3v-.3l.1-1.3-.1-.1v-.2h.1v-1.3h-.1v.2c-.3 0 .1.2-.2.3q.2 0 0 .1l.1.1v.6l-.1.1q.1.1 0 .2v.3h.1v.5l-.1.2v.4q.2 0 0 .1l.2.2h-.2q.3.2 0 .4h.2-.1l-.1.3v.4l.2-.1h-.1q0 .1-.1 0h-.4l-1-.3v.1h-.7v.1-.1h-.3v.2H37q-.2-.2-.2 0l-.2.1v-.2h-.1v.2h-.8q-.1.2-.2-.1H35v.1l-.1.1h-.1l-.1-.2.2-.1c.7-.5 2.3-.5 3-.5l.2.2V39h.2l.8.2.2-.1v.1h.5l-.6.5v-.6h.1v-3.4l-.1-1 1 .3-.8 1h-.2q.1.2-.1 0v.1l-.2.3-.1.2h-.1l-.7.6q0 .2-.2.2h-.1l-.2.3h-.2.1v.1h-.2v.2H37v.1q-.3-.2-.1 0v.1c-.3-.3-.2 0-.1 0h-.1v.1l-.2.2h-.1l-.5.5v.1h.1v.1h-.2l-.2.3h-.1v.1h-.2v-.1l-.4-.2-.2.2zm4.8-4q0 .3-.3.5c0 .1-.3 0 0 .2l.2-.3h.2v-.1h.2v-.4h.2V35h.3v-.1h-.1v.4l.2-.4v-.5l-.2.3v.2h-.2v.1l-.2.3h-.1q-.2 0 0 .2zm-2 2.2.4-.2z"/><path fill="#fc6b7e" d="m45.6 21.6-.8.2-2 2V10.1q0-.7-.6-.7H37l1.8-1.9 1.9-1.8a2 2 0 0 0 0-3l-2.1-2a2 2 0 0 0-3 0l-1.8 1.8-2.2 2.2L27 9.4H6V2.7q0-.6-.6-.7A5.3 5.3 0 0 0 0 7.3v28.9a5 5 0 0 0 5.1 4.7h20.6L22 44.8a.7.7 0 0 0 .4 1.1h23q.7 0 .7-.6v-23q0-.5-.4-.7m-9-20q.5-.3 1 0l2.1 2.1q.4.6 0 1l-1.3 1.4L35.3 3zM34.3 4l3.1 3-1.2 1.3L33 5.2zm10.3 26h-1.2a.7.7 0 1 0 0 1.3h1.2v2h-1.2a.7.7 0 0 0 0 1.4h1.2v2h-1.2a.7.7 0 1 0 0 1.4h1.2v2h-1.2a.7.7 0 1 0 0 1.4h1.2v3.2H24l6.8-6.8a.7.7 0 1 0-1-1l-2.7 2.7h-22c-2 0-3.7-1.6-3.7-3.6v-.6l.2-.6v-.2l.1-.2a4 4 0 0 1 2.8-2.2h.8q.7 0 .7-.7v-5a.7.7 0 1 0-1.4 0v4.4a5 5 0 0 0-3.2 1.7V7.3a4 4 0 0 1 3.2-3.9v20.4a.7.7 0 0 0 1.4 0v-13h19.6l-3.7 3.7a.7.7 0 0 0 1 1l4.8-5 4.4-4.4 3.1 3.1-.3.4-13.7 13.6-3-3.1 2.6-2.7a.7.7 0 1 0-1-1l-3 3.2h-.1v.1l-.1.2-1.4 3.7-.9 2.5v.1h-2.2a.7.7 0 1 0 0 1.4h18.7a.7.7 0 1 0 0-1.4H17.3l4.2-1.4h.1v-.1h.1l14-14h5.8v14.5l-9.7 9.6a.7.7 0 1 0 1 1l11.8-12zM20 24l-2 .7-1.2-1.3.7-2z"/><path fill="#fc6b7e" d="m45.3 22.3-2 2-1.2 1.4v-3.3c0-.4.1-.2.1-.3V16l.1.1v-2.3l-.1-.7.1-1v-.7l-.1-1.5h-6.7l1-1q.2 0 .3-.2 0 .2 0 0l.4-.4 1.3-1.2.2-.1.6-.9 1-.8a2 2 0 0 0 .4-1.5q0-.4-.4-.7t-.8-1L38.3 1A1.6 1.6 0 0 0 36 1l-1.8 1.8-1.7 1.6v-.1l-2.3 2.5q-.4.2-.6.6c-.5.4-1.4 1-.9.8l-1.5 1.5v.1h-2.8q-.8 0-1-.2c-.4 0-.2.2-.3.2-.6 0-1.6 0-1.7-.2l-.4.2h-2.4l-.1-.1h-2.1l-.7.1H5.6V5.1c-.1-.6-.2-.7 0-1.4l-.3-1.2A5 5 0 0 0 .4 7.3v1.9l.1 3.5v1l-.1 1.2v.6-.5l.2 2.5v.6l-.2 1v1.3l.1.8v3.1l-.1 2.4.1 1.5c0 .7-.2 2.1 0 2.3v5.6c0 .7.1.4.2.6v.5A4 4 0 0 0 2 39v.2l.5.4c-.5-.6-.2-.3.2 0q1 .6 1.7.7h16c.2 0-.2 0 0 0H24h-.1 3l-.7.8-1 .9-1 1.1-.7.6v.2L22 45v.5h12.7l.6-.2.4.1h9.5V45c0-.2.2 0 .2-.3l-.1-4.9.1-10q-.2-1.4 0-3c.4 5.6.2 11 .3 17v1.4q0 .4-.5.4l-17 .3-1.3-.1h-.1l-4.6.1a.7.7 0 0 1-.5-1.3l3.5-3.4.4-.5v.1l-1.3.1h.4l-11.6-.2H3.9A5 5 0 0 1 0 36V9.1c-.2-1.4-.1 1-.1 1v1.4c-.3.6.2 2.8-.2 3.3q.3.8.1 1.7V24v-.3V36l.1.2v.2c0 .4 0-.1 0 0l.1.9c.2.5.6 1.5 1 1.9l.3.4q.8.6 1 .6l.9.5 1.6.4H5c.4 0 1.2-.2 1.4 0 0-.2 1-.2 1.6-.2l.3.1c1.2-.2 3.6 0 5.2 0l.3-.1h.2l2.7.2h3l1-.1h.5l2.1.1q.4-.2 1 0h1.3l-.1-.4-2.1 2.1-1.8 1.8a1 1 0 0 0-.2 1q.2.6.8.6l6.8.2 1.4-.1h2.4l.3.1h4.1q1 0 .8-.2l.6.1h3.5V46h2.1l1 .1q.9 0 .9-1l-.1-2h.1V42v.3l-.1-2.5v-7.4c-.2-1 0-.7.1-2v-3.8l-.2-.6.1-.9-.1-1.5v-1.2q0-.7-.4-.8.5 0 .6.8l.1 1.5c.3 5.2.4 13.6.5 21.5q-.1 1.2-1.5 1.4H32.6l-2-.1h-1.9l-6.4-.1q-.7 0-1-.8-.4-.7.2-1.3l1.1-1.1 1.5-1.7c.3-.2.3 0 .5-.2l.8-.9.3.9H5.1q-2-.1-3.5-1.4l-.4-.2v-.1c-.7-.6-.8-1-1.2-1.7q-.2-.2-.4-1.2V36l-.1-.6v-28a6 6 0 0 1 5.8-5.9q1.2.1 1.3 1.3v6.7L6 8.7h2.9c.7 0 .7.2 1.4.1h8.5l1.5-.1h6.6l-.4.3 2.6-2.5q.6-1 1.9-2l.2-.2 1.2-1.1 1-1.1.8-.7 1.1-1 .6-.5-.3.1 1-.5.3.2.7-.2.2.3.7.3.4.2.6.7.4.2c.4.3.1.2.3.4l.9.8H41l.4.7.4.5v.7q-.2 0-.2.5l-.2.8-.4.4-.1.2-1.7 1.6-.8.8-.1.2-.5.4-.2.2-.3.3L37 9h5.2q.9.1 1 1.2v.7l.2 1-.1 1.6v5.9l-.2.5c0 .6.1.4.1.5v2.5c-.1.7-.2-.5-.2-.6-.2-.3-.3.5-.4 1v1l.3-.3 2-1.9c.2-.2-.2.3 0 .2l.1-.2h.4zM5.8 9v.4H6c1.5-.2 4.6-.2 6.3-.2 1.6 0 2.9.3 2.6 0H8.4L8 9.1H6l.2.2v-1c-.1-.8 0-.8 0-1.6l-.1-1v-3q0-.4-.4-.6L5.3 2l-.5-.1-1 .3-1 .3A5 5 0 0 0 0 7.3q0-1.8 1.3-3.2c.5-.8.3-.4.7-.7s.4-.5 1-.8l1.6-.4L5 2h.2q.6 0 .7.7v3l-.1.7zm31.4-9 .6.2q.4.2.3 0za2 2 0 0 0-1.5.5L34 2.3q.7-.4 1.8-1.6l.2-.2q0 .2.2 0 .1-.3 1-.4m-1 1q0-.2.3-.3h1V1q0-.2.2 0h.1v.2h.2l.1.2q.2 0 .3.2v.1h.2V2l.1.1.5.4-.1.1.3.1h-.1q0 .3.1.1l.2.3v.1q.2 0 0 .1h.2v.1h.3l.2.5v.7h-.1V5l-.2.1-.6.6v.2h-.1q0 .1-.2 0l.1.1v.2H39v.1h-.2v.1l-.1.1-.3.3-.4-.3v-.1l-.1-.1v-.1l-.2-.2h-.2l-.1-.1.1-.2c-.2.3-.1 0-.1 0H37v-.3l-.4-.2V5h-.1v-.1l-.2-.2-.1-.1H36v-.3l-.7-.5h-.1l-.2-.3h-.1l-.4-.3.4-.5.1-.3h.1l.2-.2.6-.4q-.1-.2.1-.2-.1.7-.6 1l-.2.4-.2.1h.2q.4.2.7.6v.1h.1q.3.1.5.5h.2-.1q.1.4.5.7h.1l.2.1v.2h.1l.7.7h.1v.1h.2l.1-.2h.2v-.2h.2l.2-.4h-.1v.1c-.3-.2 0 .3-.3 0v.2q-.2 0 0 0h-.2v.2h-.2l.1.1h-.2.1-.2.3q-.2 0 0 0h-.2l-.1-.2h-.1l-.2-.2v-.2h-.2v-.1q-.1 0 0-.2h-.3q-.3 0-.2-.3h-.1v-.2H37v-.1h-.2v-.2q-.2 0 0 0 0-.2-.3-.3l-.3-.6H36V3h-.2q0-.2-.1 0v-.2h-.2v.4l-.1-.1h.1V3q.3 0 0-.1l.1-.2.2.1v-.3l.2-.1v-.1q.2 0 0-.1h.2q-.1-.2.1 0l.2-.2v-.3h.2V2q-.2.7-.9 1.5v-1q.3 0 .4.4V3h.1l.4.6h.2v.1l.3.3v.2h.2v.3h.4l.2.5h.2v.2h.3v.3h.3-.8.3v-.1q0-.2.2-.3l.8-1q-.2 0 0 0l-.2-.1-.4-.7h-.2v-.2h-.2v-.3.1h-.1v-.2H38q.1-.3-.1 0v-.1c.3-.3 0-.1 0-.1l-.2-.2-.4-.5V2v-.1H37v-.2.1h-.1v-.2l-.2-.3-.3.1zM40 4.5q-.4-.3-.3-.5t-.1-.1v.9h-.2l-.3.5.3-.2V5h.2v-.4h.2q.2-.1 0-.2zm-1.5-2q0-.2 0 0v.3q.2-.2 0-.2m-3.8 1h.2v.2l.2.1V4h.1v.2h.1l.1.2q.2 0 .3.2v.1h.2v.2q.1 0 0 .2.3 0 .5.3l-.1.1.3.1v.1l.2.2v.2h.2v.2h.2l.2.2.2.2.3.3-.3.3h-.1v.2q0 .2-.1 0l-.6.6v.2h-.1q0 .1-.2 0l.1.1v.2h-.2l-.2.4-.5-.4v-.1h-.2v-.3h-.2q0-.2 0 0l-.1-.2-.1-.2-.2.1-.1-.1.1-.2c-.2.3-.1 0-.1 0h-.3v-.2q0-.2-.4-.3V7H34l-.1-.2-.1-.1h-.1v-.2l-.1-.1-.7-.5h-.1l-.1-.2h-.1l-.4-.3.4-.5.1-.3h.1l.2-.2.5-.4q0-.2.1 0-.1.6-.5.8l-.2.4h-.1v.2l.8.4v.1q.3.1.5.5h.2-.1q.1.4.4.6v.1h.2l.1.1v.2h.2l.5.7h.2v.2h.1l.1.1h.2v-.1h.2l.2-.3q0-.2-.1 0c-.3-.2 0 .3-.3 0v.2H36v.1V8q-.2 0 0-.1h-.2v-.1h-.1q-.2 0-.2-.2v-.2h-.2v-.3q-.1.2-.1 0H35q-.2 0-.2-.2v-.3h-.3v-.3q-.2.2 0 0l-.3-.2-.3-.6v-.1h-.2v-.1l-.2-.1V5h-.2v.4-.2q.3 0 0-.1l.1-.2.1.1h.1v-.2q0-.2.2-.2v-.2l.2.1q-.2-.2 0 0l.2-.2V4h.2v.3q-.1.8-.8 1.4v-1q.3 0 .4.3v.2l.4.6h.2V6l.3.2v.2h.2v.3h.3l.2.5h.2v.1l.2.1.1.3h.2l.1.2V8h.1-.7l.2-.2 1-1.1v.9l-.1-.1v-.2s-.3.1-.1 0h-.1l-.2-.1-.1-.1V7l-.4-.6h-.2V6h-.2v-.2h-.1q.2-.2 0-.1h-.1q0-.3-.1-.1.2-.3 0-.1v-.1h-.1l-.1-.2q-.3 0-.4-.3v-.2h-.2l-.1-.2v-.1h-.1v-.1l.1-.1.2-.3-.1-.2zm2.7 3.7v-.2q-.3.1-.4-.1s0-.3-.2 0l.3.1v.2V7v.2l-.2.2-.1.1-.2.4.3-.1v-.2h.1v-.1l.1-.2h.1q.2 0 0-.1zM36 5.5q0-.1 0 0l.1.3q.2-.2 0-.3m8.7 25h.8V34h-.8l-1.2-.1h1.9v3.4h-1.9 1.9v3.4h-.7.7v4.5h-.7l-2-.1H22.4l1-1L26 42l1.4-1.5 3.1-3v-.2q-.1-.2-.2 0L27.6 40l-.2.1H8.6l.1-.1H7.3h.2-2.4a4 4 0 0 1-3.8-2.3L.9 36v-.4l.3-1 .1-.1.1-.2c.5-.9 1-1.3.5-1a5 5 0 0 1 2.7-1.5h.7l.3-.3v-5q0-.2-.3-.3h-.2c-.3.3 0 .2 0 .3 0 1.3 0 3.1-.2 3.3l.2.8-.1.3v.3h-.3a5 5 0 0 0-3.1 1.6l-.6.6v-5.7l-.1-1.4v-19q0-1 .6-2.1l-.2.5.6-.9c.2-.2 0 0 0-.2Q3 3.4 4.6 3H5v.7l.1.9v19.2q0 .2.2.2t.2-.2V10.2h3c.2 0 2 0 2.3.2H12l-1-.2h6l2 .1h7.8l-.9.8-.8.8-1.6 1.6-1.3 1.6h.3l.6-.5 1.9-2 2.4-2.4h.1q.6-.6.7-.9c1.2-1 1-1 2.4-2.3l1.2-1.2.3-.3.3.3 3.1 3.1.3.3-.3.3-1.1 1.2c-1 1-.5.6-.8 1-.7.6-.4.2-.8.7l-3.5 3.5H29q0 .2-.2.3l-.7.8c2.2-1.8-2 1.9-3.2 3l-3.3 3.6-.4.4-.3-.4-.4-.3c-.3-.3 0-.2 0-.2-.7-.6-.9-.7-1.7-1.6l-1-1-.3-.4.3-.3.3-.4 2.4-2.6h-.3L17.1 20l-1.4 3.8-.6 1.4-.3 1.1v.4H12l-.3.2.1.2H19h-.3 11.4l.8-.2-.2-.2H17.3v-.9l4-1.4q.2 0 0 0h.1l6.9-7 .6-.8.7-.6.9-1 4.7-4.6.2-.2H42v.5l.1 7v7.7l-.2.2-1.9 1.9-7.8 7.7a.1.1 0 0 0 0 .2.1.1 0 0 0 .2 0l.7.7-.7-.7 4.5-4.5-4.3 4.7.3.3-.3-.3a.4.4 0 0 1-.6 0V35l9.6-9.7h.1V10.6h-6.1l-13.8 14-.1.1-.1.1h-.1l-2.4.9-1.8.5h13.5q.6 0 .7.7-.1.6-.7.7h-7l-3.8.2.7-.2h-8.6a.6.6 0 0 1-.7-.7q0-.5.7-.6h2.2v-.1l1-2.6 1.3-3.7v-.1h.1v-.1l1.8-1.8.6-.4.8-1a1 1 0 0 1 .9 0q.3.5 0 .8l-.3.3-.7.7-.5.5-1.2 1.2v.1l2.8 2.7q0 .3.3.4l2.1-2 2-2 10-10L32.2 6H32l-4.4 4.4-2.5 2.6-2.3 2.4a.6.6 0 0 1-1 0q-.2-.4 0-.9l1-.8 2-2 .9-.9.3-.2H5.9v6.6-2c.1-1.4.2-1.2 0-2.6q.3-.6.2-1.9l-.1.1c1.7 0 4-.1 4.7.1q1.5-.2 3.2 0c1.7 0 .4-.1 1.6-.1h10.1l-2 1.7.4-.3-.6.7-1.7 1.5q-.2.2-.2.7l.2.4q.8.4 1.2 0c.6-.7.6-.5 1.4-1.3l2.4-2.5 1-1.1L29.5 9c.6-.7 1.8-1.7.8-.9l2-2 3 3.1-.3.4-1.2 1c-.5.6.2-.2 0-.1l-1.2 1.3-3 2.8-2.2 2.5-1.3 1.2c-1.4 1.4-1.7 1.8-2.3 2-.3.5-1.7 2.2-2.2 2.4l-.3.4-1.7-1.6-.3-.6-1-.8 2.6-2.7q.4-.4 0-1a1 1 0 0 0-1 0l-2 2-.4.5-.3.2-.5.5v.1l-.1.1-1.5 3.7-.1.4-.7 2.2v.1l.1-.1h-2.2a1 1 0 0 0-.9.9q0 .6.9.7h2l4 .1q.7-.2 1.8 0h10.9q.8 0 .9-.9t-1-1H17.4l.2.7 4.2-1.5h.1l.1-.1h.1q.3-.5.9-1l1.5-1.4 1.9-2 .4-.3 5.7-5.8q1.2-1 1-1l.8-.8L36 11l-.3.1H40v-.2h1.5l-.2-.2v2.7c-.2 2.8-.1 2.5 0 4.2v4-.2l-.1 2.7.1-.6v1.7-.1l-2 2.2-1 .8-.1.2-4 4-2.4 2.5a1 1 0 0 0 0 1.1 1 1 0 0 0 1 0l-.1-.2.1.1.6-.6.6-.5c1.2-1.5 1-1 3-2.8l5.1-5.2.6-.8c.7-.7.8-.6 1.4-1.3l.6-.7h-.1v3.7l-.1 2.3-.2-6 .6.3-11.7 12-.9-.9 1 1a1.3 1.3 0 0 1-2 0q-.7-1 0-2l9.6-9.7-.2.6V10.7l.8.8h-5.9l.6-.2-10 10-2.9 2.6c-.7.7 0 .2-.7.9l-.9.6-1.7.6-2.5.8-.2-1.2 13.5.1q1 .2 1.2 1.2-.2 1.1-1.2 1.2H12q-1.2 0-1.3-1.2.1-1 1.3-1.2h2.2l-.5.5V26l1-2.6.7-2.2q.5-1 .5-1.3l.1-.2.1-.2.1-.1v-.1l.4-.4c.9-1 1.4-1.3 2.3-2.1l.5-.7.3-.2q.7-.3 1 0l.4.2.2.5.1.3q0 .5-.3.9l-2.7 2.7v-.8l3.1 3.1H21l7.2-7.1.7-.8 2.6-2.5 1.6-1.7q.6-.7 1.2-1l.3-.5.3-.4v.8L33.3 8l-1.6-1.5h.8l-1.3 1.3-3.1 3-.2.2.2-.1-3 2.8-1.9 2.1a1.2 1.2 0 0 1-1.7 0q-.8-.8 0-1.7l3.7-3.7.4.9h-.8l-1.2-.1H6l.6-.5v13q0 1.3-1.2 1.4Q4.1 25 4 23.8V3.4l.7.7A3.4 3.4 0 0 0 2 7.3V13l-.1 2.7v3.6H2v13.1L1 32l.2-.3c1-.8 1-.7 2.2-1.3l1.2-.3-.5.6v-4.2q.1-1.2 1.3-1.3 1.2.1 1.3 1.3v4.9q-.1 1.2-1.3 1.3h-.7q-1.6.5-2.4 1.8l-.2.7-.1.7v.3c.4 1.3 1.2 2.6 3 2.8h8.9l4.1.1-.6-.1h1.9l.2.1 1.1-.1c.8.2 0 .2 1.8 0H27l-.4.2 1.2-1.3c-.5.9 1.5-1.2 1.5-1.5a1.2 1.2 0 0 1 1.7-.1v.2c.3.3.6 1 0 1.5l-.6.9-.7.5c-.3.4 0 .2-.3.4l-4.7 4.7-.3.3v.1l-.4-.8h20.6l-.4.5v-3.2l.4.4h-1.2a1 1 0 0 1-1.1-1.1q.1-1 1.1-1.1h1.2l-.4.4v-2l.4.4h-1.2q-.7 0-1-.7v-.8l.6-.5h.4c.7 0 .4-.2.6-.2h.6l-.3.4v-2l.3.4h-1.2a1 1 0 0 1-1-.9V34l.1-.4v.4c0 .4.5 1 .9.9h.3q.2-.1-.3-.3-.5 0-.5-.6 0-.2.2-.3l.3-.2h1.4V31h-1.4l-.5-.5.1-.3q.2-.2 0 0v.2q0-.3.4-.3h.2c.4.1 1.2.3 1 .4M1.2 6.7v.6c.3 3 .2 9 .2 12.4 0 3-.3 5.6 0 5 .1-3.2 0-5.9 0-9.3l.1-3.3V7.3l.3-1c.2-.8 0-.5.2-.9.8-1.1 1-1.2 2.3-1.7l.4-.1-.2-.2v20.4q.1.6.8.7t.7-.7v-5.4 5.4q-.1.5-.7.6l-.6-.6v-6.2c0-.6.1-2 0-3.2v-11q-1 0-2 1-1.4 1-1.3 2.3zM20 39.6c.2 0 2.5.2 1.8 0l-9.8-.1q1.7.2 5.3 0c.1 0-.3.1.3.1zm.2-15h-.6v.1l-.1-.1h-.2l-.2.2h-.3q0 .2-.1 0l-.4.2v-.1l-.3.1-.2-.2h-.2v-.1l-.2-.2.1-.1q-.2 0 0-.1h-.2v-.1h-.1l-.2-.1-.2-.2v-.1h-.1q-.2 0 0-.1l-.2-.1-.2-.1V23l.2-.3v-.2h.2v-.1h-.2v-.2h.2V22l.1-.1v-.1q.1 0 0-.1v-.1l.2-.2h-.2q.2 0 0-.2h.3-.1c-.3 0 0 0 0 0v-.1l.2-.6.6.4h.1v.1l.3.2v.2h.1l.1.2v-.1l.1.2h.1v.2l.6.3.2.2.3.1-.1.1.2.1.3.4q.2 0 0 .1c-.4.2-.5-.2-.7-.4l-.8-.4v-.1q-.3 0-.5-.3H18h.1q0-.4-.3-.5v-.1h-.1l-.2-.1v-.1l-.1-.2v.2q0 .4-.3.7v.1l-.1.1v.2h.1-.1v.5-.1c.3 0 0-.2.3-.1q-.2 0 0-.1H17v-.2h.2-.2l.2-.1h-.1.2q-.2-.2 0-.2v-.2h-.1v-.2h.2v-.2q0-.2.2 0v-.1h-.4q.2 0 0 0h.3l-.1.1q.2 0 .2.2v.2h.2v.2q.1 0 0 0l.2.2.2.5h.1v.2h.3v.1h.3q0 .3.1 0l.1.1-.1.1h.3v.2h.2v.1q.1-.1 0 .1l.1.1h.3l-.1.2h-.2q-1-.1-1.5-.9l-.3-.5h-.1v-.1l-.2-.1V22h-.2v-.2h-.2l-.1-.2.9-.2-.2.1v.5l-.1.1v.3h-.2v.3l-.1.7-.2-.7.5.4v.2q0-.1 0 0h.2l.1.2.3.5q.2-.2.1 0H18l.1-.1h.2q0 .1 0 0h.1v-.1q.2.2.1 0c.2.3.1 0 .1 0h.2v-.1h.4v-.2h.5l.1.2.2.3h.1zm-3.3-.9q.4-.2.5 0c0 .1-.1.4.1 0h-.2v-.3h-.4v-.5l-.2.2v.2h.1l.2.2q0 .2.1 0zm1.5.8q0 .1 0 0h-.3q.3.1.2 0"/></g><defs><clipPath id="a"><path fill="#fff" d="M0 0h46v46H0z"/></clipPath></defs></svg>