<svg xmlns="http://www.w3.org/2000/svg" width="34" height="34" fill="none" viewBox="0 0 34 34"><g clip-path="url(#a)"><path fill="#282828" stroke="#282828" stroke-width=".3" d="M4 .2h26c2.1 0 3.8 1.7 3.8 3.8v26c0 2.1-1.7 3.8-3.8 3.8H4A4 4 0 0 1 .2 30V4C.2 1.9 1.9.2 4 .2Zm0 2.3Q2.7 2.6 2.5 4v26q.1 1.3 1.5 1.5h26q1.3-.2 1.5-1.5V4q-.2-1.3-1.5-1.5zM22.5 13q3.3 0 4.4 1.9t1 5v8h-4.3v-7.1q.1-1.5-.4-2.7-.2-.6-.7-1-.6-.5-1.5-.5-1.8 0-2.5 1.3t-.6 2.7V28h-4.2V13.2h4.2v2h.3c.6-1.1 2-2.2 4.3-2.2Zm-12 .2V28H6V13.2zM8.4 5.7a2.6 2.6 0 1 1 0 5.2 2.6 2.6 0 0 1 0-5.2Z"/></g><defs><clipPath id="a"><path fill="#fff" d="M0 0h34v34H0z"/></clipPath></defs></svg>