<svg width="44" height="44" viewBox="0 0 44 44" fill="none" xmlns="http://www.w3.org/2000/svg">
<path d="M25.96 11.0771C26.3798 11.0771 26.7207 11.4171 26.7207 11.8369C26.7206 12.2567 26.3797 12.5967 25.96 12.5967H12.2324C11.8127 12.5967 11.4727 12.2567 11.4727 11.8369C11.4727 11.4171 11.8126 11.0771 12.2324 11.0771H25.96Z" fill="black" stroke="black" stroke-width="0.2"/>
<path d="M25.96 15.7412C26.3798 15.7412 26.7207 16.0812 26.7207 16.501C26.7206 16.9207 26.3797 17.2607 25.96 17.2607H12.2324C11.8127 17.2607 11.4727 16.9207 11.4727 16.501C11.4727 16.0812 11.8126 15.7412 12.2324 15.7412H25.96Z" fill="black" stroke="black" stroke-width="0.2"/>
<path d="M25.96 20.4053C26.3798 20.4053 26.7207 20.7452 26.7207 21.165C26.7206 21.5848 26.3797 21.9248 25.96 21.9248H12.2324C11.8127 21.9248 11.4727 21.5848 11.4727 21.165C11.4727 20.7452 11.8126 20.4053 12.2324 20.4053H25.96Z" fill="black" stroke="black" stroke-width="0.2"/>
<path d="M18.5684 25.0693C18.9881 25.0694 19.3281 25.4093 19.3281 25.8291C19.328 26.2488 18.9881 26.5888 18.5684 26.5889H12.2324C11.8127 26.5889 11.4727 26.2488 11.4727 25.8291C11.4727 25.4093 11.8126 25.0693 12.2324 25.0693H18.5684Z" fill="black" stroke="black" stroke-width="0.2"/>
<path d="M37.501 18.6113C38.1737 18.6113 38.8074 18.8729 39.2832 19.3486L39.4697 19.5361L39.6426 19.7275C40.4482 20.7163 40.3907 22.1785 39.4697 23.0996L27.1611 35.4082C26.9642 35.6049 26.6242 35.8144 26.2217 36.0215C25.816 36.2302 25.3363 36.4413 24.8535 36.6377C23.888 37.0305 22.9022 37.3688 22.4463 37.5205C22.3678 37.5467 22.2863 37.5596 22.2061 37.5596C22.0078 37.5596 21.8138 37.4815 21.6689 37.3369L21.4814 37.1504C21.2781 36.947 21.2073 36.6458 21.2979 36.373C21.4495 35.9173 21.7877 34.9306 22.1807 33.9648C22.3771 33.482 22.5882 33.0024 22.7969 32.5967C23.0041 32.1939 23.2143 31.854 23.4111 31.6572L35.7188 19.3496C36.1946 18.8737 36.828 18.6113 37.501 18.6113ZM24.3018 33C24.0054 33.512 23.5679 34.5574 23.1631 35.6553C24.2603 35.2507 25.3041 34.8119 25.8164 34.5156L24.3018 33ZM25.0225 32.1943L26.623 33.7949L36.6123 23.8066L35.0117 22.2051L25.0225 32.1943ZM37.501 20.1309C37.2337 20.1309 36.983 20.2349 36.7939 20.4238L35.7754 21.4414L37.376 23.042L38.3945 22.0244C38.5836 21.8355 38.6875 21.5847 38.6875 21.3174C38.6874 21.0502 38.5835 20.7992 38.3945 20.6104L38.208 20.4238C38.0191 20.235 37.7682 20.1309 37.501 20.1309Z" fill="black" stroke="black" stroke-width="0.2"/>
<path d="M32.4639 8.18359C32.6405 8.18359 32.7971 8.2962 32.8525 8.46387L33.6123 10.7568L35.9062 11.5176C36.0736 11.5731 36.1865 11.7288 36.1865 11.9053C36.1865 12.0818 36.0736 12.2382 35.9062 12.2939L33.6123 13.0537L32.8525 15.3477C32.7971 15.5152 32.6404 15.6279 32.4639 15.6279C32.2873 15.6279 32.1308 15.5151 32.0752 15.3477L31.3154 13.0537L29.0225 12.2939C28.8549 12.2383 28.7421 12.0819 28.7422 11.9053C28.7422 11.7286 28.8549 11.573 29.0225 11.5176L31.3154 10.7568L32.0752 8.46387C32.1308 8.29637 32.2872 8.18367 32.4639 8.18359Z" fill="black" stroke="black" stroke-width="0.2"/>
<path d="M37.5791 3.30859C37.6901 3.30872 37.7883 3.37991 37.8232 3.48535L38.2734 4.84375L39.6338 5.29492L39.7051 5.33203C39.7699 5.37969 39.8105 5.45659 39.8105 5.54004C39.8103 5.65095 39.7388 5.74903 39.6338 5.78418L38.2734 6.23438L37.8232 7.59473C37.7882 7.70013 37.6899 7.77136 37.5791 7.77148C37.4681 7.77148 37.3689 7.69954 37.334 7.59375L36.8828 6.23438L35.5244 5.78418H35.5234C35.4185 5.74894 35.3479 5.65085 35.3477 5.54004C35.3477 5.42902 35.4189 5.32976 35.5244 5.29492L36.8828 4.84375L37.334 3.48535C37.3689 3.37984 37.468 3.30859 37.5791 3.30859Z" fill="black" stroke="black" stroke-width="0.2"/>
<path d="M33.4521 20.0039L33.4219 20.0332L31.6621 21.7568L31.4922 21.9238V16.3555L31.6465 16.457C31.8834 16.613 32.165 16.7021 32.4629 16.7021C32.7681 16.7021 33.0558 16.609 33.2959 16.4463L33.4521 16.3408V20.0039Z" fill="black" stroke="black" stroke-width="0.2"/>
<path d="M29.832 3.06836C31.8281 3.0684 33.4519 4.6915 33.4521 6.6875V7.46777L33.2959 7.3623C33.0556 7.19968 32.768 7.10645 32.4629 7.10645C32.165 7.10646 31.8834 7.19571 31.6465 7.35156L31.4922 7.45312V6.6875C31.4919 5.77092 30.7487 5.02836 29.832 5.02832H8.27148C7.35504 5.02857 6.61256 5.77105 6.6123 6.6875V37.752C6.6123 38.6686 7.35488 39.4119 8.27148 39.4121H29.832C30.7488 39.4121 31.4922 38.6687 31.4922 37.752V32.7021L31.5215 32.6729L33.2812 30.9092L33.4521 30.7383V37.752C33.4521 39.7482 31.8282 41.372 29.832 41.3721H8.27148C6.27545 41.3718 4.65234 39.748 4.65234 37.752V6.6875C4.6526 4.69163 6.27561 3.06861 8.27148 3.06836H29.832Z" fill="black" stroke="black" stroke-width="0.2"/>
</svg>
