<svg width="32" height="32" viewBox="0 0 32 32" fill="none" xmlns="http://www.w3.org/2000/svg">
<path d="M10.9435 15.0357L15.0357 10.9327L11.3574 7.24192L9.28083 9.31667L8.01233 8.04817L10.0781 5.97342L6.58079 2.47608L2.47787 6.579L10.9435 15.0357ZM24.9794 29.0823L29.0823 24.9794L25.5868 21.4821L23.512 23.5461L22.2453 22.2776L24.3075 20.2028L20.6525 16.5586L16.5586 20.6507L24.9794 29.0823ZM7.44079 29.8026H1.79167V24.1517L9.66425 16.2791L0 6.58079L6.58079 0L16.3257 9.70904L24.329 1.69492C24.5261 1.49664 24.734 1.3539 24.9525 1.26671C25.1711 1.17951 25.404 1.13592 25.6513 1.13592C25.8985 1.13592 26.1315 1.17951 26.35 1.26671C26.5686 1.3539 26.7771 1.49664 26.9753 1.69492L29.8993 4.73358C30.0976 4.93067 30.235 5.1385 30.3114 5.35708C30.3879 5.57567 30.4255 5.80858 30.4243 6.05583C30.4231 6.30308 30.3849 6.52883 30.3096 6.73308C30.2344 6.93733 30.0982 7.138 29.9011 7.33508L21.964 15.3152L31.596 25.0135L25.0117 31.5943L15.3134 21.93L7.44079 29.8026ZM3.58333 28.0109H6.67754L24.2717 10.4275L21.165 7.32433L3.58333 24.9167V28.0109ZM22.7398 8.86517L21.1668 7.32433L24.2699 10.4293L22.7398 8.86517Z" fill="black"/>
</svg>
