<svg xmlns="http://www.w3.org/2000/svg" width="18" height="18" viewBox="0 0 24 24" fill="none">
  <rect width="24" height="24" rx="4" fill="#0A66C2"/>
  <path fill="#ffffff" d="M20.45 20.45h-3.55v-5.57c0-1.33-.03-3.04-1.85-3.04-1.85 0-2.14 1.45-2.14 2.94v5.67H9.36V9.5h3.41v1.5h.05a3.74 3.74 0 0 1 3.37-1.85c3.6 0 4.27 2.37 4.27 5.46v5.84zM5.34 8a2.06 2.06 0 1 1 0-4.11A2.06 2.06 0 0 1 5.34 8zm1.78 12.45H3.56V9.5h3.56v10.95zM22.22 0H1.77C.79 0 0 .77 0 1.72v20.55C0 23.23.79 24 1.77 24h20.45c.98 0 1.78-.77 1.78-1.73V1.72C24 .77 23.2 0 22.22 0z"/>
</svg>
