<svg xmlns="http://www.w3.org/2000/svg" width="47" height="47" fill="none" viewBox="0 0 47 47"><g fill="#fc6b7e" clip-path="url(#a)"><path d="M40 0H7a3 3 0 0 0-2.8 2.8v41.4C4.2 45.8 5.5 47 7 47h33c1.5 0 2.8-1.2 2.8-2.8V2.8C42.8 1.2 41.5 0 40 0M18 9.2h11c1.5 0 2.8-1.3 2.8-2.8v-.9h5.5v36H9.7v-36h5.5v1c0 1.4 1.3 2.7 2.8 2.7m12-2.8q-.1.9-1 1H18a1 1 0 0 1-1-1v-.9h13zM17 3.7V1.8h13v1.9zm24 40.5q-.1 1-1 1H7a1 1 0 0 1-1-1V2.8q.1-1 1-1h8.2v1.9H8.8a1 1 0 0 0-1 .9v37.8q.1.9 1 1h29.4q.9-.1 1-1V4.6q-.1-.9-1-1h-6.4V1.9H40q.9 0 1 1z"/><path d="M40 .7q-1.6.2-3.3.1h-.9q-.3 0-.2-.1h-5.2l.2-.2c-.7.2-1 .2-2 .2h-.5l-.9-.1H20q.1 0 0 0h-5.8c-1-.1-1.3.1-2-.1H7q-1 0-1.7.8l-.1-.1-.2.4q-.3.5-.3 1.2v2c0 .6-.2 1.4 0 1v3.9l-.2.9.1.2v5.6l.1.6v8.9c-.1 0-.2-.5-.1.2v1.5l.1.3v.7c0 .5.2.6 0 1.2v14.8l.1.5v-.4q.2.9 1 1.3l.3.2.6.3H11l2 .1 1.2-.2c.6 0 1.8.3 2 0h1.4l3.3.2c.6 0 .3-.2.5-.2H24l.1.2h.6c-1.2-.4 1.2 0 1.9 0l2.2-.2h7.7l1 .1H40q1.2-.1 2-1.1h-.1q.3-.5.4-1.2V28l-.2-.5.1-.3v-3.6l-.1-5.4v-4.3l.1-8.3q-.2-1.3 0-2.6c.5 4.7.3 9.2.3 14.2 0 5.2.4 10.9.3 16.2v12.1-.4q-.9 1.9-2.8 2h-6l-.4-.2-.9.1H6.8c-.5 0-.3-.2-.6-.2h-.4l-.5-.5-.6-.5q-.4-.7-.3-1.5V44l-.1-4v.9c-.1.6-.2.5 0 1-.3.5 0 1.7-.1 2.4l-.1.5.6 1.3c.5.6.2.1.6.4q.3.5 1 .6H7q1.2 0 2 .2l.3-.2 1.3.2-.2-.2h.4l1.2.2c1.1-.2.8 0 1.5 0H15l1.6-.1h5.2l1.7.1 1.4-.1h.8c.9 0 1 0 1.3.2.2-.1 1.2-.3 1.4-.1 0-.2.8-.1 1.3-.2l.2.1c1-.2 3 0 4.4 0h.4l2.3.1h3l.3-.1h.5q1-.3 1.6-1 0-.3.4-.7l.2-1.2v-2.5q0-4.7.3-9c0-.6-.2-.7-.1-1.2v-2l.1-.3-.1-3.4q.1-.7-.1-.7l.1-.4v-3H43V20c.2-1.2.1-1.1 0-1.8l-.1-1.7h.1v-1 .2l-.2-2 .1-.6v-2.6q-.2-.6 0-1.5s.1-.8-.1-1.2l.1-.3c-.2-.8 0-.6.1-1.7V2.6l-.2-.4c-.2-.4 0-.5-.3-.8l-.9-.9-.3-.3q0 .2-.3 0l-1-.4c.4-.1 1.7.2 2 .6q1.1.7 1.3 2.4c.4 7.6.4 20 .3 26.9l-.1 1.6V33l-.2 8 .1 1.8v1.4c0 1.8-1.5 3.5-3.4 3.4h-4.2l-.6-.1h-2.8l-3 .1-5.1-.1h-5.1l-1.7.1H9l-.5-.1H7a3.3 3.3 0 0 1-3.4-3.3V21.5q-.2-.9 0-1.5h-.1v-7l.2-8.5q-.3-.8-.1-1.8v-.9q.2-.6 1-1.4s.3-.5.8-.7A3 3 0 0 1 7-.6l1.6.1-.2-.1h.8v.1l.5-.1c.4.3 0 .2.8.1h1l.4-.1h1.4c-.4.2.8.2.9 0h.4c-.1.4.7.1 1 0l.4.1h17.2l.5.2q.4 0 .3-.1h2.1c.6.1-.4.2-.5.2-.2.2.4.4.8.4h2.8c.3 0-.3 0 0 .1h.4zM4.5 25.3c-.4-1-.4-4-.3-5.5 0-1.3.3-2.4-.1-2.2V23l-.1.4v3.9l.1.9v5.4l.1 5.8.2-4v-.9l-.1-1v-1.9l-.1-3.5.1-.6v-1q.2-.7 0-1.1zM9.5 0s1 .3.8 0H6h2.4q-.1 0 0 .1zM18 8.4h3.4q.2 0 .1.1l.6-.1h1.5l.5.1h1.5l-.1.1H27l.5-.1.7.1h.8q1 0 1.6-.6t.5-1.6V6h.1l-.1-.4v-.7h.7L33 5l.7-.2L36 5h1.8v6.8h-.2l.1.5v-.1V15c0 .5-.2 1.2 0 .9v3l-.1.7v1.3l.1.3v1.5l-.1.1.1 1v8s-.2-.5-.1.2h.1v2q.2.4 0 1v7H33c-.1 0-.7.1-.8-.1h-.5l.4.1-1.7.1H30l-.7-.1h-3.4l-1.7-.1-1 .2c-.4 0-1.3-.3-1.5 0-.5-.2-.4 0-1 0l-2.7-.2c-.5 0-.3.2-.4.2h-2.1v-.2H15c1 .4-1 0-1.5 0l-1.8.2h-.9l-.6-.1h-1v-7.4c0-.1 0 .2 0 0v-6.1l.1-1.9-.1-8.5-.1-.3V4.9h6.8V7l-.2-.6V5.1h-.5q-2.7.3-5.5.2h-.2v4.2l.3 13-.1.8v7.4L10 32l-.1-.3q-.2 3.8-.1 7.7l-.1.2v2H36c1-.2-.6-.1-.7-.1h-.9c-.4-.3-1.8.2-2.2-.2q-.5.3-1.1 0c-.6 0-.1.2-.5.2l-1-.1h-3.4.2-.3l-1-.1c-.9.2-.6 0-1.1 0h-1.2l-1.3.1c-.3 0-.8-.1-.4 0h-3.2c-.2 0 .1 0 0 0h-.5l-1.4-.1-1.2.1h-.5q-1 0-1.1-.2c-.2.1-1 .3-1.1.1q-.2.2-1 .2l-.2-.2-1 .2v-2.7L10 37l-.1-1v-2l.1-1.4c-.3-.1 0-.4 0-.6v-2.9l.2-7.2v-5.4q0-.6-.2-.5l.2-.4V14s-.2-.6 0-.8h-.3V12q0-.2.1-.1c.1-1 0-.9-.1-1.5V9.1h.1v-.9l-.1.2-.1-1.6V5.5l1 .1h2.5c.7-.2.5 0 1.4.1h.5l-.2-.2v1q0 .6.3 1l.2.3.3.5.9.5c.2.1 0 .2.3.3q0-.1.2 0l.8.2c-.3.2-1.3 0-1.6-.2a3 3 0 0 1-1.7-2.7v-.9l.5.6-5.5.2.8-.8V21c-.1.3 0 0 0 .4v.9l-.2 6.3v10.2l-.1 1v.9l.1.9-.6-.6h1.4l4.2.1h1.6l.7-.1.6.1h1.1l1.4-.1h6.6l.4.1H32l5.3-.1-.7.6V28.2q-.2-.6 0-1.2v-5.4l.1-6.8q-.2-.7 0-1.7l-.1-.3.1-1V10l.1-1.4-.1.2v-.7h.1l-.2-.4c.3-.3.2 0 .2-.6v-.9l-.2-.3.1-.3v-.2l.6.6h-.6c.4-.2-.6-.1-.7 0h-.3c0-.4-.6-.1-.8 0h-3.1l.5-.5v.9A3.3 3.3 0 0 1 29 9.7h-5.6l-.4-.2-.3.1h-1.6c-.5-.1.3-.2.4-.3q.1-.2-.7-.3h-2.2c-.2 0 .2 0 .1-.1h-.3q-.4-.2-.4-.5m19.5 22.9c-.4-.9-.3-3.2-.3-4.4 0-1 .3-2 0-1.7v3.2l-.1 1v.8l-.1 1.3.1.3v2.3l.1 1.8-.1.6.1.7v4.3h.1l.1-2.2v-.7l-.1-.8v-6.5zM37.3 8c0-.1.3-.9 0-.7l-.1 3.4q.2-.6.1-1.8zm-6.6-1.6q0 .7-.3 1h-.1l-.1.3-.1-.1-.1.2-.6.3-.2-.1h-.4q0 .3-.3.1h-.3l-.6-.1H27l-.4-.1-.1.1h-2.1v-.2l-.1.1h-.6q-.3-.2-.2 0h-.7l-.1-.2v.1h-.3v.1q-.1-.2-.4 0v-.2l-.2.2H20v-.1h-.2l-.1.2H18l-.5-.2q-.4 0-.7-.4v-.2s-.3-.2 0-.3l-.1-.1-.1.1-.1-.4v-.2l.1-.1v-.4l-.1-.2V5h.7l.4.1.2-.2s.3.3.3 0q0 .2.3 0l.5.2.1-.2h.5v.2c-.1-.4.3 0 .4 0l.4-.2h.2l.1.1h2.9l.4.1 1.9-.1v-.1h4.7v.8l-.1-.2V5h-.5c-.7.4-1.5.2-2.3.2l-2.7.4-.2-.1q-.9.2-1.6 0l-.3.2v-.2h-1.6v-.1h-4.3v.1l.1.3V6l.1.1V7l.3.3.3.1c.3 0 0 0 0-.1h-.2l-.1-.3q-.2 0 0-.3-.3 0-.1-.1v-.3l-.1-.2.1-.3h-.1v-.2.1h.1l.2.1h.5l.3-.1q.1 0 0 0h.8l.4.1.2-.1h.2l.2.2q.1-.3.2-.1 0-.2.3-.2v.2q.3-.3.7 0v-.2h.1l.4.2h1q0-.1 0 0h.7l1.6.3.2-.1h.9q.2 0 .2-.2V6q.1-.2.4 0l.1-.1v-.2h.3v.1q.2.1.4-.1h.2l.2.1v-.1l.3-.1h1q.2-.2.4.1h.3l-.2-.2v.2h.2v.5l-.1.2-.2-.3-.2-.6.5.6c-1.3.3-3.3.3-4.4.2l-.3-.1H25L23.5 6h-2l-.1-.1h-.5l-.5.1-.9-.1h-.3L19 6h-.2l-.3.1H17l.6-.6v.2h-.1v.8q.2.3.4.2h2.8q.2-.2.3 0h.9l.2-.1q.8 0 1.5.2.1-.2.4 0v-.1h.6l.3.2v-.2h.1V7l.1-.2q0 .3.2.1h.5q0 .2.1 0c0 .4.2 0 .2 0H29l.1.2V7h.1v-.1h.1l.1.2q.1.2.4.1l.2-.5h.1zM20.2 7.6q.3-.5.9-.3c.2 0 .4.3.4-.1h-1V7h-.7l-.1.2-.2-.1h-.8l-.7.1h-.3l.3.1h.4l.2.1.1-.1H20q.2.2.2 0zm5-.2q.1.2.1 0l-.7-.1q.1.2.4.1zm-8.9-3.7v-.8h.1l-.1-.1v-.4h.1V2h.1l-.1-.2v-.6h2.9l.5.1h1.7v.2-.1h.7q.3.1.2 0h.7l.1.2v-.2l.3.1v-.1h.4v.1l.3-.1H26v.1-.1h.5q0-.2.2 0h1.8l.5-.1h.2l.1.1h.1v-.1h1.1v.9l.1.2v.1q0 .3-.2.4l.2.2c0 .1-.3.3 0 .4v.7h-1.7v-.1h-.2c.2.3-.2 0-.3 0l-.4.2h-.2l-.1-.1h-3l-.4-.1-2 .1v.1H18c.8-.6 1.6-.3 2.5-.4l2.8-.3.2.1q.9-.2 1.7 0l.3-.2-.1.1q.9.2 1.7.1v.1h.4l.5-.1h.5l1.5.1h.2V3l-.1-.3v-.2l.1-.2L30 2v-.3h-.1l-.1-.2-.1.2-.1-.1h-1.2q-.1.2.1.1h.2c.1.3.5-.2.5.2q.2-.2.3 0l.1-.1h.3l-.1.3h.1l-.1.3v1.1q-.1.2.1.1h-.8l-.3-.1h-.3q-.2.1-.3-.1s-.2.3-.2 0l-.2.3v-.2q-.5.3-.9 0v.2-.1l-.4-.2-.3.1h-.4l-.3-.1c0 .3 0 0-.1 0h-.7l-1.6-.2h-1.2l-.1.2v-.2h-.4q0 .2-.2 0v.3H21l-.1-.1q-.2-.1-.3.1h-.3v-.1H20v.1l-.3.1h-1.1v-.1c-.2.3-.1 0-.3 0h-.6v.1H17q0-.3.3-.3c1.3-.5 3.8-.5 5.2-.5l.3.2v-.1h.3l1.4.2h2.3l.2.1h.2l.5-.1 1 .1h.3l.1-.1h.7l-.6.6.1-.6V1.9l.5.5h-.6l-4 .1H25q0 .2-.2 0h-3.1l-.3-.1H21l-.3-.1v.1h-.1v-.1l-.1.2q0-.3-.1-.2h-.2l-.1.2v-.1h-.2q-.1-.2-.2 0c0-.4-.2 0-.2 0H17l.5-.6v.7h-.2l.1.1V3l-.3-.1-.3.1v.5h-.1zm9.5-2.1q-.4.5-1 .3c-.2 0-.4-.3-.3 0h.7l.2.1h.2l.3.1V2h.5l.4-.1.2.1h.3l1-.2-.7-.1h-.2l-.1.1H26q0-.1-.2 0zm-5.2.2s-.2-.3-.1 0l.7.1q0-.2-.4-.1zm21 42.5c.1.8-.7 1.7-1.6 1.7h-5.4c-.4 0-.2-.2-.3-.2l-1.1.1h-7l.2-.2-3.1.1H7q-1-.2-1.2-.7-.4-.5-.3-.7v-.2l-.1-.8.1-4.5V23.7h.2l-.1-1 .1.2-.2-4.6h.1v-1.1c0-.8.2-2.3 0-1.6V9.5c0-.8.2-1 .2-1.5s-.1-.2-.1-.3V5.4l-.1-.5.1-2.1q.1-.9.7-1.2H7l1.9-.2h6.8V4h-7q-.4 0-.4.4v-.2l-.2.3v.2q0 .2.1 0V7l.1.6v25.2c0 .2.1 1.4-.1 1.6v.9l.1-.7.1 3.3v4.7l.4.3 1.5-.2 1.6.1 3.2.1 2-.1c.9 0 2.8.2 3 0h12.6l.2.1h.9c-2-.3 1.9 0 3 0h1.4q.4-.1.3-.5V40l.1-1.3V19.2v.2-7.8l.1-3.8V4.6q-.1-.5-.5-.5h-6.9V1.4h4.6l.8-.1H40c.7 0 1.5.8 1.4 1.6v1.4l.1 8.6V33q.2 2 0 4c-.5-7.4-.3-14.6-.3-22.5q0-5.9-.2-11.7-.1-1-1-1h-8.2v1.9h4.5l1.9-.1q.9 0 1 1v14-.5q-.2 7.6-.2 15.4v8.9c0 .7-.6.8-.8.8l-2 .1-19.3-.1-2.8.1h-1.8l-2-.1H8.8l-.6-.3-.2-.5V26.7c-.2-1.8-.1 1.2-.1 1.4V30c-.3.8.2 3.7-.2 4.4q.3 1.1 0 2.3c0 1.1.2.3.2 1 0 .4-.2 1.3-.1 1.8v3q0 .9 1 1h.5l2 .1-.3-.1h.6l2 .1c1.8-.2 1.3 0 2.3 0h5c.6 0 1.6 0 .8-.1H28c.5 0-.2 0 0 0h1.2l2.7.1h3.5c1.4 0 1.7-.1 2.1.1l.7-.1c.6 0 1-.7 1-1v-2.7c-.2-1.6 0-4.7 0-6.8v-.7l.1-3.7V12.9l.2-8.2q-.1-1.2-1.3-1.4h-6.4l.3.5v-.3l.1-1.4v-.2l-.4.5H40l.2-.1q.3 0 .2.4l.1.2v2.6c0 .1.2 1 0 1.6h.3l-.1 1.7v1.1c-.2 2-.1 1.8 0 3l.1 2.6h-.1V17l.1-.4V25q.2.9 0 2.4l.1 1.8-.1.6c.3 1.3 0 1 0 2.7v5l.1.8v4.4l-.1 1.5-.2-3A1029 1029 0 0 1 40 2.7h-8.2l.7-.9v1.9l-.7-.8h2.1l4.3.1c.8 0 1.5.8 1.5 1.6v26l-.1.9V36l.1 4.6v1.8q-.2 1.3-1.5 1.5l-5-.1H30l-1.6.1H8.8l-.7-.2-.2-.2-.4-.4-.1-.4v-8.2l-.2-30c0-.8.7-1.6 1.6-1.5h6.4l-.6.7q-.2-1 0-1.9l.6.6v.2H9.9l-3.1.2v1.1q0 7-.2 13.7.2 1.4 0 3.5l.1.6v5.5L6.5 30l.2-.4V31l-.2.2.2.7c-.3.6-.2 0-.1 1.2v4.5c-.2-.7-.1 1.3 0 1.4v.7c-.4-.2 0 1 0 1.5v3.1q0 .4.4.5h12.4l1.1-.1h5.3l4.8.1.7.1h1.8v-.1c1 0 1 .2 2.1 0 1 .2-.6.2-.8.3-.4.1.7.3 1.3.4h4.5c.4-.2 0 0-.2 0q.5 0 .9-.3.3-.1.5-.5t.3-.3M8.7 3.9h.2c1.4-.3 4.2-.3 6.4-.3V1.9 2H15c-2 0-3.8-.3-3.4 0h3.7-.1v1.8l.1-.2h-4.4l-2-.1-.7.2q-.5.4-.4.6v8.4L7.7 14l.1 1.4v1.3l.1 9.3.1-6.4v-6L7.8 8 8 7V4.6q0-.5.5-.9zM6 31.5s-.2 1.7 0 1.2l.1-6.7q-.2 1.1 0 3.6c0 .1-.2-.2-.1.2z"/><path d="M13.7 23.3q.7.5 1.3 0l4.5-4.6 4.1 4.1q.7.6 1.3 0l6.9-6.8v1.6c0 1.2 1.7 1.2 1.8 0v-3.8q0-.9-1-1H29c-1.2.1-1.2 1.8 0 1.9h1.6l-6.2 6.2-4.1-4.1a1 1 0 0 0-1.3 0L13.7 22a1 1 0 0 0 0 1.3"/><path d="M14.2 22.7h.2l.2-.2h.2v-.2l.6-.6h.3q.1-.4.5-.6v.1q.2-.4.5-.6l.2-.2.3-.2.1-.2 1-.9.8-.8.4-.5.5.5.1.1v.1h.2l.4.6.3.2.7.9c.3.3.5.2.6.6l1.7 1.7h.2v.2h.2l.2-.2q0-.2.4-.5v.1l.2-.2c.2-.2.6-.3.3-.3l1.1-1.1.4-.1v-.2q.1-.4.5-.3v-.2l.6-.5.3-.5h.2v-.3l1.2-1.1h.1V17l1.4-1.3q0 .3.1 0v-.1l.8-.8v1.9q.2.3 0 .5v.3c0 .5 1 .5 1 0v-1l-.2-1.2.1-.4q-.1-.1.1-.4v-.2l-.1.2-.1-.8v-.3l-.1-.1h-1.1q-.6 0-.8-.2-.2.2-.5.2-.6-.2-.8 0h-.8q-.3 0-.4.2v.2l.2.2v.2h.1q0-.2.1 0h.6l.9-.1h1.4l-1 1-.1.3-.4.1-1.6 1.8-.3.1-.2.4-.4.3v.1h-.1l-.9.8h.1l-.8.7-.3.4-.3.2-.8.7-.1.2-.3.3-.3-.3-3-2.8h-.2v-.2q-.2 0-.3-.2l-.7-.8h-.5l-.5.6h-.2l-1 1.2-2.5 2.4q-.2.5-.8.7c1-1.7 2.5-2.8 3.9-4.3l.8-.9q.6-.4 1 0l3 2.6.2.4h.1q.6.4 1 1h-.1l1.7-1.7.4-.6v.2q1.5-1.3 2.8-2.7h.2l.1-.3q.2 0 .3-.2v-.2h.2l.6-.7h-.1l-.6-.1h-.9a1 1 0 0 1-.9-.8q.2-.8.9-.8h1.6l.7-.1h.5l.5.1h.5l.6.2v.3h.2v3.1c.2.4.1-.3.1-.4v-.4c.3-.2-.2-1 .2-1.2q-.3-.2 0-.5c0-.3-.2-.1-.2-.3v-.5l-.3-.2-.6-.4h-.1l-.2.1-.5-.1.1.1-.5-.2c-.5.3-.4 0-.6 0l-.6.1h-.7q-.4 0-.2.1H29a1 1 0 0 0-1 .7q0 .2 0 0v.3q0 .5.2.8c.2.2.7.2.7.2h.3q.5 0 .5.2.3-.3.6-.1 0-.2.3-.2l-.2.2H30c0 .4-.8.9-1.2 1.2v.2h-.1l-.8.5-.3.4q-.1.2-.4.3l-.1.3-.2.1q-.2.3-.6.4.2.3-.2.3l-1 1-1.2 1h.5L23.1 19l-.4-.2-.2-.4-.4-.3-1-1q-.2-.3-.3-.1v-.3q-.2 0-.3-.2l-.5-.3h-.6v.1l-.5.1-.1.2h-.2q-.4.3-.4.6c0 .1-.5.4-.4.6l-.1-.2-.4.3h.2q-.4.3-.5.7h-.3v.2l-.7.6q0 .3-.4.5-.2 0-.3.4h-.2c0 .4-.1.2-.5.4l-.9 1v.2l-.3.2v.8l.2.5-.4-.3-.2-.5q0-.5.3-1a65 65 0 0 1 5-5.4c.6-.7 1.8-.7 2.5 0l1.7 1.7.4.6h.2l.2.5 1.4 1.5h-.9l1-.9.4-.6h.2l1.5-1.6.7-.6.5-.6.3-.1v-.2l.5-.3v-.2h.2v-.2l.8-.8.1-.1.5 1-1.6-.1q-.3 0-.5-.2H28l-.6-.8v-.7l.1-.3.1-.3q.2-.3.5-.4l.7-.2H33q.3 0 .5.3h.1q.6.5.6 1.2v3.8c0 .7-.7 1.6-1.5 1.5-.8.1-1.7-.8-1.6-1.5V16l1.2.5-1.2 1q-.1.3-.4.4 0 .3-.4.4l-.9 1-.6.7q-.3.1-.3.4l-2.6 2.3q-.1.4-.5.6h-.2l-.1.3h-1l-1-.3V23l-.5-.6v.2l-.2-.2v-.2h-.2q.2-.3-.1-.3l-.3-.3h-.2q-.1-.2 0-.2l-.4-.2c.3 0-.1-.4-.3-.3l-.1-.1c.4-.3-.1-.3-.2-.3l-.1-.2h-.1l-.8-.9-.2-.2-.3-.2h.8l-1.6 1.6-.2.2-.4.4v.1l-.6.4-.9.9H16v.2l-.3.1v.1c0 .2-.2 0-.4.4q-.2-.1 0-.4h-.5v.1q-.4.3-.8 0zm17-6.5c0 .5-.9 1.3-1.3 1.8-.4.3-1 .4-.6.6l1.2-1.1.4-.4h.2v-.3l.6-.3v-.2l.2-.2-.3-.1v1.6l.2.3v.3q.1.3.4.2l.3.2q1.1-.1 1.1-1v-.8.8q-.1.4-.4.6h-.3q-.1.2-.4.2l-.4-.3H32l-.1-.5v-1.7q-.4.1-.4.4zm-8.5 5.7s0-.5-.2-.2l1 1.2h.1q-.1-.4-.5-.7zm10 14.1H14.3c-1.2 0-1.2 1.8 0 1.8h18.4c1.2 0 1.2-1.8 0-1.8"/><path d="M32.7 36.7q-.5.2-.9.1h-.2v-.1h-1.4v-.2q-.1.3-.4.2h-.2l-.2-.1h-2.6l-.7-.1q-.3.2-.5 0h-2v-.1h-.1l-.7.1h-.2c-.1 0-.4-.3-.3 0h-1l-.2-.2q-.3.1-.4 0v.1H20v-.1l-.3.1h-3v.1H14v.5l-.1.2h.3v.1h1.1l.6.1.3-.1q.3.2.5 0h2v.1h.1c-.3-.3.3 0 .5 0l.6-.2h.3l.2.1h4.3l.6.1 2.7-.1.2-.1h4.4l.4-.1v-.3q.3.1.2.5-.1.3-.5.3h-1.9l-4.1.3-.3-.1q-1.2.2-2.4 0l-.4.2v-.1q-1.2-.2-2.4-.1v-.1h-.6l-.7.1-.4-.1-.3.1-3-.1h-2.1q-.2 0-.2-.2h-.2l-.1-.4v-.5l.2-.3c.1-.3-.3 0-.2 0q-.2.2-.1.3-.2 0-.2.4.2.3 0 .4.3 0 .4.3 0 .2.2 0l.2.2h1.1l.4.1q.3-.2.4 0h.8l.1-.2h1v.2l.2-.1.4.1h.6q.3-.1.3.1.2-.3.4-.1 0-.2.3-.2v.2q.6-.3 1.2 0v-.2.1l.7.2.3-.1h.6l.5.1c0-.3.1 0 .2 0h1l2.2.2.3-.1.2.1h1.3l.1-.2.2.2h.4q0-.2.3 0V38h.4v.1q.4.1.5-.1h.5l.2.1V38l.5-.1H33l.3-.2h.1c0-.3.2 0 .4-.3l.1-.5-.1-.4h-.2v-.3H33V36h-.2l-.2-.2h.6q.8.3.9 1.3-.2 1.2-1.5 1.5h-5.1l-.4-.1-.2.1-.3-.1-2-.1h-3.2l-.4-.1h-.3l-.7.1-1.4-.1h-.5l-.2.1h-3.1l-.2-.1h-.4q-.8 0-1.3-.7t0-1.5q.4-.6 1.3-.8h4.1q.2-.2.3.1v-.1h1.8l2.2.1q.2-.2.5 0h1l.5.1-.1-.1h.2v.1l.1-.1q0 .4.2 0h.8c-.2.2.2.1.2 0h.1c0 .4.2 0 .2 0h.9l.2.1H29l.2-.1.4.1H31l.2.1h.6l-.1.2q-.1.3.2.4h.7v.1zm-15.3-.5q.6-.4 1.4-.3c.3 0 .6.3.5 0H18l-.1-.2-.2.1-.4-.1v.1h-.4l-.3.1H16l-.2-.1-.2.1h-1.2l-.5.2h1.8l.2-.1H17q.1.2.3 0zm7.5-.2s.3.3.2 0l-1-.1q0 .4.5.1zm7.8-3.7H14.3c-1.2 0-1.2 1.8 0 1.8h18.4c1.2 0 1.2-1.7 0-1.8"/><path d="M32.7 33q-.5.2-.9.1h-.2V33h-1.4v-.1q-.1.2-.4 0l-.2.1-.2-.1H26l-.5-.1h-2v-.1h-.1q-.3.2-.7.1h-.2c-.1 0-.4-.3-.3 0h-1l-.2-.2v.1l-.4-.1v.2c0-.2-.5-.1-.6-.1h-.4l-.2.1h-2.2l-.1-.2v.1h-.4v.1h-.3q0 .2-.3 0H14v.5l-.1.2h.3v.2l.1-.1h1l.6.1.3-.1h.8l.9.1.1-.2.1.1h.6v.1h.1c-.3-.3.3 0 .5 0l.6-.2v.1h4.8l.6.1H28l.2-.2h4.4l.4-.1V33q.3.1.2.5-.1.3-.5.3h-1.9c-1.3 0-2.8.4-4.1.3H24l-.4.1v-.1l-2.4-.1h-.6l-.7.1h-.7l-3-.1-.5.1h-.3l-.3-.1H14l-.2-.1h-.2l-.1-.5V33l.2-.4c.1-.3-.3 0-.2.1q-.2 0-.1.3-.2 0-.2.3.2.3 0 .4.3 0 .4.3 0 .2.2 0l.2.3.2-.1.5.1.1-.1.3.1v-.1l.4.2c.3-.3.2 0 .4 0l.4-.1h.4l.1-.1H18l.4.2.4-.2h.2q.3 0 .3.2.2-.2.4 0 0-.3.3-.2v.1c.3-.3.9 0 1.2 0v-.1l.7.2.3-.1h.6l.5.1q0-.2.2 0h1l2.2.2h1.8l.1-.1.2.1h.7v-.3l.3.1h.1q.4.2.5-.1h.5v.1h.2v-.1h1.3l.2-.1h.2l.3-.2.1.1c0-.4.2 0 .4-.4l.1-.4-.1-.5h-.2v-.3H33v-.2h-.2l-.2-.1h.6q.8.1.9 1.2c0 .7-.7 1.5-1.5 1.5h-6l-2-.2-.5.1v-.1h-2.7l-.4-.1-.1.1h-6.7q-.8 0-1.3-.7t0-1.5 1.3-.8h4.4v-.1h1.8l2.2.1q.2-.2.5 0h1l.5.1h-.1l.2-.1v.2l.1-.2q0 .4.2.1h.3l.1-.1h.4c-.2.2.2.2.2 0h.1c0 .4.2.1.2 0l.1.1H31l.2.2v-.1h.6l-.1.2q-.1.4.2.4h.7v.1zm-15.3-.4q.6-.5 1.4-.3c.3 0 .6.3.5-.1H18l-.1-.1h-1l-.3.1h-2.3q-.2 0-.5.3l.5-.1h1.5l.9-.1.1.1h.6zm7.5-.2q.2.2.2 0l-1-.2q0 .3.5.2zm7.8-3.8H14.3c-1.2 0-1.2 1.8 0 1.9h18.4c1.2 0 1.2-1.8 0-1.9"/><path d="M32.7 29.4h-2.5v-.2q-.1.3-.4.1h-.5l-.9-.1h-.8l-.1.1-.5-.1-.2.1-.7-.1h-2.5V29l-.1.1V29l-.7.2V29h-1.5l-.2-.2v.1h-.4v.1c0-.2-.5 0-.6-.1h-.4l-.2.1h-2.2l-.1-.1h-.4v.2H14v.4l-.1.2h.3v.2h.6l.3-.1h.2q.4 0 .6.2 0-.2.3-.2c.1 0 .4.3.5 0h.3l.9.1.1-.1h.7v.2h.1c-.3-.4.3 0 .5 0l.6-.2h2.8l.8.1H28l.2-.2v.1h1l1.3-.1H33v-.4q.3.2.2.5t-.5.3h-1.9c-1.3 0-2.8.4-4.1.3H24l-.4.1-2.4-.2h-7l-.2-.1-.2-.1h-.2l-.1-.4v-.5l.2-.4c.1-.3-.3 0-.2.1q-.2 0-.1.3-.2 0-.2.4.2.1 0 .4.3 0 .4.3h.2l.2.2h.2v-.1l.5.1.1-.1.3.1h1.6q.1.1.1-.1h1v.1H19q.3 0 .3.2.2-.3.4-.1 0-.2.3-.2v.1c.3-.3.9 0 1.2 0v-.1l.7.2h.6l.2-.1h.1l.5.2q0-.3.2 0l1-.1 2.2.3.3-.1h.5l.1.1.9-.1q.1.1.1-.1l.2.1h.7v-.2h.4q.4.2.5 0l.5-.1v.1h.2l.5-.2.1.1h.9q0-.2.2 0l.3-.2h.1c0-.3.2 0 .4-.3l.1-.5-.1-.5h-.2v-.2l-.4-.1v-.2q0 .1-.2 0l-.2-.1h.6q.8.1.9 1.3c0 .6-.7 1.4-1.5 1.4l-5.1.1-.4-.1h-.5l-2-.2-.5.1h-1.5l-.6-.1h-7.8q-.8 0-1.3-.7-.4-.8 0-1.5.4-.8 1.3-.8h4.1q.2-.2.3 0l.9-.1h.9l2.2.2q.2-.2.5 0l.1-.1h.9l.5.2-.1-.2h.2v.2l.1-.2q0 .4.2.1h.8c-.2.2.2 0 .2 0h.1c0 .4.2 0 .2 0H31q0 .2.2.2t.2 0v-.1q.2.2.4 0l-.1.3q-.1.2.2.4h.7zm-15.3-.5q.6-.5 1.4-.3c.3 0 .6.3.5-.1H18l-.1-.1h-1l-.3.2-.1-.1h-2.2l-.5.3H15l.3-.1H17q.1.2.3 0zm7.5-.2q.2.2.2 0-.6 0-1-.2 0 .3.5.2z"/></g><defs><clipPath id="a"><path fill="#fff" d="M0 0h47v47H0z"/></clipPath></defs></svg>