<svg width="39" height="39" viewBox="0 0 39 39" fill="none" xmlns="http://www.w3.org/2000/svg">
<path d="M31.4844 0.150391H37.4766C38.2413 0.150426 38.8496 0.77578 38.8496 1.52344V7.51562C38.8496 8.27422 38.2351 8.88864 37.4766 8.88867C36.7181 8.88867 36.1036 8.27418 36.1035 7.51562V4.83887L31.3389 9.60352L31.3828 9.69824C33.8924 15.1773 33.2533 21.9513 29.0869 26.9512L28.999 27.0566L29.0957 27.1533L38.4473 36.5059C38.9837 37.0421 38.9838 37.9117 38.4473 38.4482C37.9112 38.984 37.042 38.9839 36.5059 38.4482L27.0566 28.999L26.9512 29.0869C24.0212 31.5283 20.3654 32.8584 16.5039 32.8584C7.46433 32.8584 0.150391 25.542 0.150391 16.5039C0.150427 7.46435 7.46523 0.150428 16.5039 0.150391C21.9431 0.150391 26.7915 2.78502 29.8135 6.99707L29.917 7.14062L34.1611 2.89648H31.4844C30.726 2.89648 30.1104 2.28203 30.1104 1.52344C30.1104 0.76484 30.726 0.150391 31.4844 0.150391ZM29.0703 11.8711L20.4707 20.4707C19.9345 21.0072 19.0655 21.0072 18.5293 20.4707L13.6143 15.5557L13.5078 15.4502L5.07617 23.8818L5.14355 23.9844C7.57986 27.672 11.7617 30.1103 16.5039 30.1104C25.9045 30.1104 32.4808 20.7542 29.3184 11.9268L29.2383 11.7041L29.0703 11.8711ZM16.5039 2.89648C7.10335 2.89653 0.527247 12.2537 3.68945 21.0811L3.76953 21.3037L3.93652 21.1367L12.5371 12.5371L12.5361 12.5361C13.0727 11.9999 13.943 12.0009 14.4795 12.5371L19.5 17.5576L27.9316 9.12598L27.8643 9.02344C25.4279 5.33578 21.2459 2.89648 16.5039 2.89648Z" fill="#282828" stroke="#282828" stroke-width="0.3"/>
</svg>
