<svg xmlns="http://www.w3.org/2000/svg" width="40" height="40" fill="none" viewBox="0 0 40 40"><path fill="#282828" stroke="#282828" stroke-width=".2" d="M16.3 8q1 0 1.4.9l1 2.8q1.6 4.4 6 6l2.7 1a1.4 1.4 0 0 1 .1 2.6l-2.8 1q-4.3 1.6-6 6l-1 2.8a1.4 1.4 0 0 1-2.7 0l-1-2.8q-1.6-4.4-6-6l-2.7-1q-1-.3-1-1.3t1-1.4l2.7-1q4.4-1.6 6-6L15 9q.3-1 1.3-1Zm0 4.2-.1.3q-2.1 5.2-7.4 7.3l-.3.1-.2.1h.2l.3.2q5.3 2 7.4 7.3v.3l.1.3.1-.3.1-.3q2.1-5.2 7.4-7.3l.2-.1.3-.1h-.3l-.2-.2a12 12 0 0 1-7.4-7.3v-.3l-.2-.3zM29 1.3q.9 0 1.2 1l.6 1.3a4 4 0 0 0 2.6 2.7l1.4.5q.9.4.9 1.2 0 .9-.9 1.2l-1.4.5a4 4 0 0 0-2.6 2.7l-.6 1.4a1.3 1.3 0 0 1-2.4 0l-.5-1.4a4 4 0 0 0-2.7-2.7l-1.4-.5a1.3 1.3 0 0 1 0-2.4l1.4-.5a4 4 0 0 0 2.7-2.7l.5-1.4q.4-.8 1.2-.9Zm0 4.2Q28 7 26.4 8l-.1.1.1.1q1.6.9 2.4 2.4l.1.2.1-.2q1-1.6 2.5-2.5h.2l-.2-.2Q30 7 29.1 5.5v-.1zm0 19.8q.9 0 1.2.9l.6 1.4a4 4 0 0 0 2.6 2.7l1.4.5q.8.2.9 1.2 0 .8-.8 1.2l-1.5.5a4 4 0 0 0-2.6 2.7l-.6 1.4a1.3 1.3 0 0 1-2.4 0l-.5-1.4a4 4 0 0 0-2.7-2.7l-1.4-.5q-.8-.4-.8-1.2 0-.9.8-1.2l1.4-.5a4 4 0 0 0 2.7-2.7l.5-1.4q.4-.8 1.2-.9Zm0 4.2q-1 1.5-2.5 2.4h-.1l.1.2q1.6.9 2.4 2.4l.1.1.1-.1Q30 33 31.5 32l.2-.1-.2-.1q-1.5-.9-2.4-2.4v-.2z"/></svg>