<svg xmlns="http://www.w3.org/2000/svg" width="55" height="55" fill="none" viewBox="0 0 55 55"><path fill="#fc6b7e" d="M42 38.4h-.2l-.2.2c-.2 0 0 .4-1.3.4h-.8l-2.3-.1c-.2 0 .3-.2.3-.2h-.2q0-.2-.5-.2l.8-.1.2-.1h-.3l.2-.1-.6-.1q.2 0 0-.2h-.5.2-.3l.2-.1h-.3l-.2-.2h.4q0-.3-.3-.4c1 0 1.8-.2.2-.1.2 0-.2 0-.1-.1l.2-.1s-.6-.2.5-.2c-.2 0 .2-.1-.8-.2h.6l.4-.3c-.2-.1-1.2-.1 0-.2h.3l-.2-.1h-.2l-.3-.1h.4-.4c.8 0 .3-.2-.1-.1l.5-.2h-.4c.2-.1 0-.2.2-.2l.7-.1h-.1c-1.2-.1.9-.1 0-.2.7 0 .3-.2 0-.2h-.1l-.4-.1h.4l-.3-.1H37c.5 0 .3-.1.4-.1h.3v-.2H37h.5V34c-.1 0-.6 0-.5-.2h.2l-.8-.1c.5 0 .3-.2.4-.2h.4l-.1-.1h.3l-.2-.1.3-.2-.8-.1h.2l.2-.6s.9-.2-.4-.2c-.3 0 .2-.2.3-.2h-.3q.2-.2 0-.3l-.3-.1h.2v-.3h.4l-.5-.1c.4 0 0-.2 0-.2q.1-.3-.2-.5-.5-.1-.3-.2l.3-.1c.2 0 .8-.1 0-.2l.7-.2h-.4.4l-.6-.3.5-.4.4-.1h-.5l.2-.3s-.4-.2-.2-.4h.4l-.5-.1.5-.4H37q0-.2-.4-.2l1.7-.1 2-.1h.9q.3.1-.5.2v.4h-.4l.3.1c1 .3.2.8 0 1 0 .2.3.4 0 .4h-.3l.4.3c-.4.2 0 .5 0 .7q.4 1 .3 1.7l.1.4s-.5 0-.2.1h-.3l.4.2v.2h-.2l.3.2-.2.1.4.4-.3.1h.3c.2.1-.2.3-.2.3v.8l-.1.5h-.4l.3.1c0 .1.3.3 0 .4h-.2.2v.5c-.1.2.2.5 0 .8l-.5.1h.4q.2.3 0 .5l.6.2.1.2zm-5.1-1.5c.5 0 0-.1-.2 0zm.9-4h-.3zm-11 1.7h.4c.1-.1-.1-.2 1.2-.2h3.2-.3l.2.1h.4l-.7.1H31h.2-.2l.7.1q-.2 0 0 0h.5l-.2.1h.2-.2.4l.2.1h-.4l.3.2h-.2c-.3 0 .2 0 0 0l-.2.1h-.5c.2.1-.2.1.8.1h-.6l-.3.2c.1 0 1.1 0 0 0l-.1.1h-.2.6l-.3.1h.4c-.9 0-.4 0 0 0h-.4c-1 0-.1.1.4.1h-.2l-.7.1c1.2 0-.8 0 0 .1-.6 0-.3 0 0 0h.2q-.2.1.4.1h-.4.6l-.4.1h-.3.6l-.5.1h.6l-.2.1h.7l-.4.1h-.4.2l-.3.1h.1-.3l.8.1q0 .2-.3.2s-.8.1.5.1l-.3.1h.2v.2h.4-.3l-.3.1h.5c-.4 0 0 .1 0 .1q-.2.1.2.2.5 0 .2.1h-.2c-.2 0-.8.1 0 .1l-.8.1h.5-.4l.5.1-.4.2h-.5.6l-.2.1s.4.1.1.2h-.3.5l-.5.2h.5l-1.6.1h-3 .5v-.2h.5-.3c-1-.1-.2-.3-.1-.5q-.1 0 0 0h.4L28 38c.4-.1 0-.2 0-.3q-.4-.3-.3-.7-.1 0 0-.1h.4l-.4-.1v-.1h.3-.3l.2-.2-.4-.1h.3-.3q-.1-.1.1-.2V36l.2-.2h.3-.2q-.3-.1-.1-.2h.3-.2q-.1 0 0-.2v-.3h.4-.4c-.2-.1.1-.2 0-.2l-.6-.1zm5 .6h.3zm-.8 1.6h.4zM11 26.1l.3.2c.2 0 .1-.3 1 .6h.1l.6.7 1.6 1.6-.3-.1v.2l.3.4-.6-.5h-.2.2-.2l.4.5H14l.1.2.3.3-.2-.1.1.2-.1-.2.2.3v.2l-.3-.2.1.4c-.8-.7-1.4-1.2-.3-.1-.1-.1.1.2 0 .1h-.2l-.4-.3c.1.1-.2-.1.4.6l-.4-.4H13c0 .1.7.8-.1 0q0 .2-.2 0h-.1l.2.2.1.3-.2-.2.2.2c-.5-.6-.3-.2 0 .2l-.3-.3c-.7-.7-.2 0 .2.3h-.3l-.5-.5c.8 1-.6-.5 0 .2-.6-.5-.4-.2-.2 0l.1.2.2.3-.3-.2.2.2.3.3-.4-.2-.2-.2.4.5-.4-.4v.1l.2.4h-.2l.5.5-.4-.2-.3-.2v.1l-.2-.2.1.2-.3-.2.5.7H11s-.7-.4.2.5l-.3-.1.1.2-.1.2.2.2-.2-.1-.2.1-.2-.2q-.4-.3.3.4c-.4-.3-.1 0-.1.1s-.4.1-.2.4c0 .2.3.5 0 .3l-.1-.1c-.2 0-.7-.5-.2 0-.2 0-.1.1-.6-.3l.3.3-.3-.3.3.6-.6-.1c-.1 0 .1.2-.4-.3l.1.2.3.3H9s.2.4 0 .2l-.4-.2.3.5-.5-.2v.2l.2.3-1.2-1.1L6 33.5l-.7-.7q-.1-.2.5.2l.1-.2q.3 0 .4.3l-.2-.3c-.5-.8.3-.6.6-.7 0 0 0-.3.2 0l.2.1-.1-.5c.4.2.3-.2.4-.3q.3-.8.7-1.2 0-.2.2-.3s.4.3.2 0l.2.3-.2-.4.1-.1.2.1-.1-.3.2.1v-.5l.2.2L9 29h.3l.4-.5.5-.2.2.3-.1-.2q0-.4.1-.3l.2.1q0-.4.2-.3c.2 0 .1-.5.4-.5l.4.3-.2-.3c-.1-.3.2-.1.2-.3l-.3-.5v-.2zm2.6 4.5.1.1zm-2.9 1.6.3.3v-.1zm8.8-13V19q-.2 0-.3-.3c-.2-.2-.8 0-.9-1.3l.1-.9c0-.3 0-2.2.2-2.3s.7.4.9.4l.3-.1.9-.3.1.8q.3.1.4.4l.2-.2.3.3.7-.3c.2 0 .3.4.6.3h.1l.2-.4.1.3h.4v.3l.4-.2.6.3q.2.3 0 .5.6.6 1.3 1l.3.5c-1 .3-1.3 1.3-.1.2l.4.5v.5c.1.3.9.5-.2 1 .4.3 0 .7 1 .6l-.4.6-.2 1.1v.5l.3.1c.3.1.5.2-.3.4q0 .4-.2.6h-.2l.1.3c0 .2-.4.2.2.3l.2.4h-.3q0 .3.3.3c-.8-.2-.5.3 0 .3l-.7.5c-.8-.4-.2.4.2.5v.1l-.5.6q-.3.1-.8-.1v.2c.8 1-.8-.3-.4.7-.7-.4-.7.2-.7.5v.2q-.2.2 0 .6l-.4-.1v.3l.2.4c-.4-.3-.5 0-.7 0l-.2-.2-.3.1.2.7c-.1.2-.5-.3-.6-.3l-.3.2c-.1.2.1.6-.4.7h-.3s-.4.5-.3.8c-.3-.4-.7 0-.9-.2q0-.2-.2-.3l-.5.2-.2-.3-.2.2-.7-.3c-.2 0-.5.6-.7.8l-.2-.2a6 6 0 0 1-2.2-.8c-.4-.1-.7-1.2-1.2 0-.2.2-.7-.7-.8-.9h-.5q-.3-.4-.8-.7l-.1-.1h-.5v-.5l-.7-.9.2-.3q.3-.6-.7-.2c.2-.5-.3-.6-.4-1-.4-.6-.5-1.9-.9-2.5-.2-.4-.5-.3-.3-1l.3-.4c.2-.4.8-.6.1-1 .3-.4.2-.7 1-.8l-.5-.2v-.2h.5c.1-.2-.3-.8-.2-1.1.2-.5 1-1.5 1.5-1.7.3-.2 0-.4.6 0v-.3l-.2-.3q0-.3.4-.3l.4-.3c.4-.4.9-1.2 1.5-1.2h.5c.2 0 0-.5.3-.6.4-.2 1.3.1 1.7 0l.2-.3q.5 0 .9-.4.5.6.5 1.6l.3 1.9v1q-.2.3-.5-.5-.6 0-1.1.3l-.3-.4c-.2-.2 0 .3-.1.4q-.4 1-1.4 1.4-.6.1-.8.6c-.2.1-.2.7-.5.7h-.4l.2 1q-.5.5-.3 1.1l.2.6q.4 1.8 1.6 2.8l1.2.8.8.3c.1.1 0 .5.3.3v.3l.4-.3h.6v.3h.1l.4-.4.5.2q.4-.5.8-.6l.4.1V27q.1-.2.6-.2l.7-.6.6-.8c.3-.3.5-1 .7-1.3h.4l-.2-.2v-1l.3-.2h-.2l-.2-1c0-.8-.7-1.4-1-2V19l-.3.1c-.4 0-.6-.5-1-.6l-.7.3q-.1-.1-.4 0zm7 .1c-.5.2 0 .4.3.1zm-10 11.5"/><path fill="#fc6b7e" d="m13 44.3.2-.4.2-1.5c.2-.9 0-3.4 1.3-3.4l.8.2c.3 0 2.2 0 2.3.3.2.5-.3 1.6-.3 1.8l.2.6c.1.7 0 1 .5 1.6l-.8.7c.2.4-.2.8-.2 1l.3.5v.1l-.2.3.1.1.6-.1.1.2h.1V46l.2-.4v.2l.3-.2.5.2q.3-.1.3-.4l1.1-.2q.6.2.8.5 1.5-.1 2.8-.4h1.2c-.6 1 .7 1.8.2.3.4.2.7-.2 1.1-.2l.9.3c.6 0 1.4-.6 1.6.5.7-.2 1.4.2 1.7-.8.2 0 .7.5 1 .6l2 .4 1-.1c.3-.1.5-1.1 1 0l1.4.1.1.2.6-.1c.3 0 .5.3.5-.2l.7-.3.2.3.4-.3c-.2.8.7.3.4-.2l1.4.5c-.1 1 1 .1.9-.4h.1c.5.3.9 0 1.4.3.6.1.5.2.7.6h.4c.4-.7.5-.3.7 0q.3.4.4-.2.4.5.6.1.2-.2 0-.6V46q0-.2-.2-.3l-.2-.1q0-.3.4-.6l-.3-.5h-.4c.5-.4.3-.9.4-1.2l.3-.2v-.7l-.6-.3c-.1-.4.4-.5.5-.8v-.8c-.2-.3-.7-.2-.6-1.2l.2-.5c0-.3-.3-1.1-.7-1.2.5-.3.3-1.2.4-1.5l.4-.3-.2-1 .3-.5-.1-.3.3-1.3c0-.6-.6-1-.8-1.5l.1-.4.3-4.7c0-.6.8-2.4-.5-2-.2-.2.3-2 .3-2.2L46 21q.2-1 0-2.3l-.4-.7.3-.6v-2l.3-.3q.6-1.1-.5-1c.5-.7 0-1.4 0-2v-3 .2q0 .6.2.4l-.9-.2c-.6-.2-1.3-.8-1.8-.1-.7-.2-1.4 0-2-.7l-.1.5h-.3v-.5c-.8 0-1.6.6-2.2.6-1 0-3.3-.2-4.2-.4-.5-.1-.5.2-.8-.5l-.3.2-.2.4-2-.2c-1 0-2.6.4-3.7.1-.3 0-.6-.4-.8-.3l-1 .5c-.8 0-2.4-.6-3.2-.6q-.2 0-.5.3-1 0-1.9.3c-.7-.5-.6-1-.8-1.7l-.8-1.9.1-1q1-.3 1.9.5H24l.4.5c.5.2.7-.3 1-.4 2.4-.9 7.3-.2 10 0 .6 0 2.5-.3 3 0l.2.4 3-.5q2.1.4 4.2.1a4 4 0 0 1 4.2 4q.3 7.5.2 15 .2 1.6 0 3.4c0 .4-.4.6 0 1.2h-.4l.4 1.3v2.2l-.2.3.3 1.6-.3 1.4q.4 1.8.4 3.8l-.3.9q.1.3.4.4c.1.7-.2 1.9-.2 2.6v2.5a4.5 4.5 0 0 1-4.5 4.5h-1c-1.4 0-3.9 0-5.2-.2l-.5-.3-.5.2c-.9.1-2.8.3-3.7.1l-.3-.2-.3.1c-1.4.2-2.3 0-3.6 0q-4 .2-8 0-1-.2-1-.4-.4.1-.7.4h-2.7a5 5 0 0 1-2.2-.6l-.8-.5q-.8-.5-1.3-1.3l-.3-.8-.1-1-.1-1.2q-.3 0-.5-.3M28 46c-.1.6.7.1.4-.1zm19-17h-.5l.2.3z"/></svg>