<svg xmlns="http://www.w3.org/2000/svg" width="39" height="39" fill="none" viewBox="0 0 39 39"><path fill="#282828" stroke="#282828" stroke-width=".3" d="M31.5.2h6q1.2.1 1.3 1.3v6a1.4 1.4 0 1 1-2.7 0V4.8l-4.8 4.8v.1A16 16 0 0 1 29.2 27H29l.1.2 9.3 9.3a1.4 1.4 0 0 1-1.9 2L27.1 29H27q-4.6 3.8-10.5 3.9A16.3 16.3 0 1 1 29.8 7l.1.1L34.2 3h-2.7a1.4 1.4 0 1 1 0-2.7ZM29 11.9l-8.6 8.6q-1 .8-2 0l-4.9-5L5 23.9a13.6 13.6 0 0 0 24.2-12v-.2zm-12.6-9C7 2.9.4 12.3 3.6 21.1v.2l.2-.2 8.6-8.6q1-.7 2 0l5 5 8.4-8.4a14 14 0 0 0-11.4-6.2Z"/></svg>