<svg width="43" height="43" viewBox="0 0 43 43" fill="none" xmlns="http://www.w3.org/2000/svg">
<path d="M17.0049 9.14648C20.0262 9.14648 22.986 9.95802 25.5762 11.4932L24.3047 13.5957C22.098 12.2923 19.5777 11.6035 17.0049 11.6035C9.0661 11.6036 2.60745 18.0606 2.60742 25.998C2.60742 33.9355 9.06609 40.3925 17.0049 40.3926C24.9437 40.3926 31.4023 33.9356 31.4023 25.998C31.4023 23.4256 30.7131 20.9056 29.4092 18.6992L31.5117 17.4277C33.0475 20.0176 33.8603 22.9771 33.8604 25.998C33.8604 35.2901 26.2986 42.8506 17.0049 42.8506C7.71119 42.8505 0.150391 35.29 0.150391 25.998C0.150416 16.7061 7.71121 9.14657 17.0049 9.14648Z" fill="#282828" stroke="#282828" stroke-width="0.3"/>
<path d="M17.0049 16.7061C17.943 16.7061 18.8669 16.8463 19.7549 17.1211L18.9902 19.457C18.3492 19.2628 17.6824 19.1631 17.0049 19.1631C13.2352 19.1631 10.168 22.229 10.168 25.998C10.1681 29.767 13.2353 32.833 17.0049 32.833C20.7742 32.8328 23.8407 29.7668 23.8408 25.998C23.8408 25.2888 23.7311 24.5919 23.5186 23.9238L25.8438 23.127C26.1441 24.0519 26.2988 25.0166 26.2988 25.998C26.2987 31.1214 22.1292 35.2898 17.0049 35.29C11.8803 35.29 7.711 31.1216 7.71094 25.998C7.71094 20.8744 11.8803 16.7061 17.0049 16.7061Z" fill="#282828" stroke="#282828" stroke-width="0.3"/>
<path d="M35.4814 0.499023C36.1793 -0.198318 37.4173 0.211606 37.5645 1.18457L38.1074 4.77344L38.124 4.88281L38.2334 4.89941L41.8232 5.44238L41.8271 5.44336C42.1699 5.48614 42.4037 5.6158 42.5596 5.7832C42.7168 5.9522 42.805 6.16988 42.8369 6.40137C42.8688 6.6334 42.8433 6.87394 42.7803 7.07812C42.7162 7.2856 42.6188 7.43844 42.5225 7.51367L42.5088 7.52539L37.3457 12.6885C37.072 12.9621 36.6715 13.0932 36.2891 13.0342L32.3711 12.4297L32.2959 12.418L32.2412 12.4727L19.5625 25.1758L19.501 25.2373L19.5234 25.3213C19.5816 25.5373 19.6133 25.764 19.6133 25.998C19.6132 27.4353 18.4434 28.6054 17.0059 28.6055C15.5682 28.6055 14.3985 27.4354 14.3984 25.998C14.3984 24.5607 15.5681 23.3906 17.0059 23.3906C17.2381 23.3906 17.4631 23.4222 17.6777 23.4795L17.7617 23.502L17.8223 23.4404L30.5068 10.7324L30.5596 10.6787L30.5488 10.6035L29.9707 6.71094C29.9137 6.32621 30.0424 5.93722 30.3174 5.66211L35.4814 0.499023ZM35.2891 4.16602L32.5459 6.9082L32.4932 6.96191L32.5039 7.03613L32.9326 9.92383L32.9482 10.0332L33.0576 10.0498L35.9727 10.499L36.0479 10.5107L39.0508 7.50781L38.7578 7.46387L36.8613 7.17676C36.3288 7.09627 35.9106 6.67798 35.8301 6.14551L35.543 4.25L35.499 3.95605L35.2891 4.16602Z" fill="#282828" stroke="#282828" stroke-width="0.3"/>
</svg>
