<svg width="49" height="49" viewBox="0 0 49 49" fill="none" xmlns="http://www.w3.org/2000/svg">
<path d="M34.7087 24.4997V34.7083M26.5413 34.7083V30.6247M6.125 30.6247L11.9031 24.8466M16.3337 14.291C14.7092 14.291 13.1513 14.9363 12.0026 16.085C10.854 17.2336 10.2087 18.7916 10.2087 20.416C10.2087 22.0405 10.854 23.5984 12.0026 24.747C13.1513 25.8957 14.7092 26.541 16.3337 26.541C17.9581 26.541 19.516 25.8957 20.6647 24.747C21.8134 23.5984 22.4587 22.0405 22.4587 20.416C22.4587 18.7916 21.8134 17.2336 20.6647 16.085C19.516 14.9363 17.9581 14.291 16.3337 14.291Z" stroke="#344054" stroke-width="2.5" stroke-linecap="round" stroke-linejoin="round"/>
<path d="M16.3333 6.125H40.8333C41.3747 6.125 41.894 6.34007 42.2768 6.72289C42.6596 7.10572 42.8747 7.62494 42.8747 8.16634V40.8337C42.8747 41.3751 42.6596 41.8943 42.2768 42.2771C41.894 42.6599 41.3747 42.875 40.8333 42.875H16.3333C16.0652 42.8751 15.7996 42.8224 15.5518 42.7199C15.3041 42.6174 15.0789 42.467 14.8893 42.2775C14.6996 42.0879 14.5491 41.8628 14.4465 41.6151C14.3438 41.3673 14.291 41.1018 14.291 40.8337V34.7087" stroke="black" stroke-width="2.5" stroke-linecap="round" stroke-linejoin="round"/>
</svg>
