<svg xmlns="http://www.w3.org/2000/svg" width="34" height="34" fill="none" viewBox="0 0 34 34"><g fill="#282828" clip-path="url(#a)"><path stroke="#282828" stroke-width=".3" d="M4 .2h26c2.1 0 3.8 1.7 3.8 3.8v26c0 2.1-1.7 3.8-3.8 3.8H4A4 4 0 0 1 .2 30V4C.2 1.9 1.9.2 4 .2Zm0 2.3Q2.7 2.6 2.5 4v26q.1 1.3 1.5 1.5h26q1.3-.2 1.5-1.5V4q-.2-1.3-1.5-1.5z"/><path d="M19.86 15.31 26.6 7.5H25l-5.85 6.78-4.67-6.78H9.09l7.08 10.3L9.09 26h1.6l6.19-7.17 4.94 7.18h5.39zm-2.19 2.54-.72-1.03-5.69-8.12h2.45l4.6 6.59.72 1.02 5.99 8.57h-2.45z"/></g><defs><clipPath id="a"><path fill="#fff" d="M0 0h34v34H0z"/></clipPath></defs></svg>