<svg xmlns="http://www.w3.org/2000/svg" width="39" height="34" fill="none" viewBox="0 0 39 34"><path fill="#282828" stroke="#282828" stroke-width=".5" d="M5.9 32.7A19 19 0 0 1 5.8 6l.2-.2a19.3 19.3 0 0 1 27.1.1l.1.1.3.3a19 19 0 0 1-.8 26.8 1 1 0 0 1-1.3-.3l-2.9-2.9q-.8-.8 0-1.6.8-.7 1.7 0l2 2q3.8-4.1 4.1-9.8h-2.9q-1-.1-1.2-1.1.2-1.1 1.2-1.2h3q-.5-5.6-4.2-9.8l-2 2a1.2 1.2 0 0 1-1.7 0q-.8-.7 0-1.6l2-2a17 17 0 0 0-9.8-4v2.8q0 1.1-1.2 1.2t-1.2-1.2v-3a17 17 0 0 0-9.9 4l2 2.1q.9.8 0 1.7a1 1 0 0 1-1.6 0l-2-2Q3 12.3 2.7 18h2.9q1 0 1.2 1.2-.2 1-1.2 1.1h-3q.5 5.6 4.2 9.8l2-2q.8-.7 1.7 0 .7.8 0 1.6l-2.9 2.9a1.2 1.2 0 0 1-1.7 0Z"/><path fill="#282828" stroke="#282828" stroke-width=".5" d="M21.8 10q.4-1 1.3-.7.8.6.6 1.5l-2.2 5.9.4.4q1.2 1.8.3 3.8a3 3 0 0 1-2.8 1.9q-1.1 0-2.1-.8l-.3-.4q-1.3-1.9-.4-3.8a3 3 0 0 1 3-1.9zm-2.4 8a1 1 0 0 0-1 .7q-.3.7.2 1.4.5.4.8.3a1 1 0 0 0 1-.6v-.2q.3-.6-.2-1.3l-.3-.2z"/></svg>