<svg xmlns="http://www.w3.org/2000/svg" width="48" height="48" fill="none" viewBox="0 0 48 48"><path fill="#000" stroke="#e4e0d8" stroke-width=".5" d="M38.1 2.8a4 4 0 0 1 5.7 5.7L39.3 13h8.5v33.3H5.5A5 5 0 0 1 .3 41V14.1c0-3.7 3-6.8 6.8-6.8h4V13H28zm-27 35H5.5a3 3 0 0 0 0 6.2h39.8V15.3H37l-9.4 9.4-7 1.4 1.4-7 3.3-3.4.5-.4H11zM7 9.7c-2.5 0-4.5 2-4.5 4.5v22.4l.3-.2q1.3-.8 2.7-.8h3.1v-26zm17 10.6-.6 2.6v.3h.3l2.5-.5 1.5-1.5-.1-.2-2-2-.2-.1zm3-3h.2l2 2 .2.3 9.8-9.9-.2-.1-2-2-.2-.2zM42 4.6c-.6-.7-1.7-.7-2.3 0l-1 1-.2.1.2.2 2 2 .1.2L42 6.9a2 2 0 0 0 0-2.3Z"/><path fill="#000" stroke="#e4e0d8" stroke-width=".5" d="M42.1 29.9v10.8H14.4V29.9zm-25.4 8.5h23v-6.2H35V35h-2.3v-2.8h-3.3V35h-2.3v-2.8h-3.4V35h-2.3v-2.8h-4.7z"/></svg>