<svg width="39" height="34" viewBox="0 0 39 34" fill="none" xmlns="http://www.w3.org/2000/svg">
<path d="M5.8877 32.7275C2.25301 29.1348 0.25 24.357 0.25 19.2754C0.250033 14.0765 2.37205 9.35931 5.80176 5.92285C5.82774 5.89012 5.85583 5.8547 5.88965 5.82129C5.92332 5.78814 5.95835 5.75989 5.99121 5.73438C9.46883 2.34524 14.2418 0.25 19.5 0.25C24.7581 0.25 29.5303 2.34522 33.0078 5.73438C33.041 5.76003 33.0765 5.78782 33.1104 5.82129C33.1443 5.85485 33.1724 5.89036 33.1982 5.92285L33.5166 6.24902C36.7591 9.65485 38.75 14.2392 38.75 19.2754C38.75 24.3576 36.7461 29.1366 33.1104 32.7295C32.9949 32.8434 32.8614 32.9292 32.7188 32.9863C32.5763 33.0434 32.4252 33.0722 32.2744 33.0723C31.9727 33.0723 31.6689 32.9582 31.4375 32.7295L28.5117 29.8379C28.0479 29.3794 28.048 28.6353 28.5117 28.1768C28.974 27.7201 29.7224 27.72 30.1846 28.1768L32.2441 30.2119C34.6607 27.4714 36.0855 24.0745 36.3389 20.4492H33.4277C32.7764 20.4492 32.2432 19.9264 32.2432 19.2754C32.2432 18.6245 32.7765 18.1025 33.4277 18.1025H36.3389C36.0762 14.3844 34.5721 11.0003 32.2363 8.34668L30.1846 10.374C29.9533 10.6026 29.6502 10.7167 29.3486 10.7168C29.0469 10.7168 28.7431 10.6027 28.5117 10.374C28.048 9.91553 28.0479 9.1714 28.5117 8.71289L30.5586 6.68945C27.873 4.38297 24.4481 2.89762 20.6846 2.63867V5.5127C20.6845 6.16357 20.1512 6.68555 19.5 6.68555C18.8488 6.68555 18.3155 6.16357 18.3154 5.5127V2.63867C14.5516 2.89764 11.1261 4.38268 8.44043 6.68945L10.4883 8.71289C10.952 9.17132 10.9519 9.91548 10.4883 10.374C10.2569 10.6027 9.95307 10.7168 9.65137 10.7168C9.34976 10.7167 9.04677 10.6026 8.81543 10.374L6.7627 8.34668C4.42717 11.0001 2.92389 14.3846 2.66113 18.1025H5.57227C6.22352 18.1025 6.75677 18.6245 6.75684 19.2754C6.75684 19.9264 6.22356 20.4492 5.57227 20.4492H2.66113C2.91448 24.0744 4.33855 27.4715 6.75488 30.2119L8.81543 28.1768C9.27763 27.72 10.026 27.7201 10.4883 28.1768C10.952 28.6352 10.9519 29.3794 10.4883 29.8379L7.6084 32.6836C7.59656 32.6971 7.58139 32.7147 7.56445 32.7314C7.33312 32.9602 7.0302 33.0741 6.72852 33.0742C6.43504 33.0742 6.14004 32.9664 5.91113 32.75L5.90625 32.7471L5.89648 32.7363C5.895 32.7349 5.89308 32.7339 5.8916 32.7324L5.89062 32.7314L5.88965 32.7305V32.7295L5.8877 32.7275Z" fill="#282828" stroke="#282828" stroke-width="0.5"/>
<path d="M21.7559 9.94922C21.9607 9.3924 22.5609 9.09337 23.1084 9.33203C23.6427 9.56508 23.8803 10.2068 23.6787 10.7549L21.498 16.6748C21.5079 16.6824 21.5185 16.6895 21.5283 16.6973C21.6554 16.7979 21.7698 16.9217 21.8604 17.0576C22.6503 18.2403 22.8003 19.6682 22.2363 20.873C21.6986 22.0219 20.6193 22.75 19.4121 22.75C18.6723 22.7499 17.9412 22.4716 17.2969 21.9619C17.1702 21.8617 17.0563 21.7378 16.9658 21.6025C16.1753 20.4191 16.0249 18.9911 16.5889 17.7861C17.1267 16.6374 18.205 15.9093 19.4121 15.9092C19.4617 15.9092 19.511 15.9112 19.5596 15.9141L21.7559 9.94922ZM19.4121 18.1123C19.0079 18.1124 18.6308 18.3563 18.4365 18.7715C18.2372 19.1975 18.2815 19.7266 18.6006 20.2461C18.8841 20.4525 19.1556 20.5459 19.4121 20.5459C19.8162 20.5459 20.1932 20.3029 20.3877 19.8877L20.4521 19.7197C20.5715 19.3269 20.5022 18.8669 20.2246 18.4141C20.1051 18.3272 19.9876 18.2596 19.8711 18.2109V18.21C19.8561 18.2047 19.8368 18.1988 19.8174 18.1904L19.8057 18.1846C19.6711 18.1362 19.54 18.1123 19.4121 18.1123Z" fill="#282828" stroke="#282828" stroke-width="0.5"/>
</svg>
