<svg width="44" height="44" viewBox="0 0 44 44" fill="none" xmlns="http://www.w3.org/2000/svg">
<path d="M25.96 11.0762C26.3798 11.0762 26.7207 11.4161 26.7207 11.8359C26.7206 12.2557 26.3797 12.5957 25.96 12.5957H12.2324C11.8127 12.5957 11.4727 12.2557 11.4727 11.8359C11.4727 11.4161 11.8126 11.0762 12.2324 11.0762H25.96Z" fill="#282828" stroke="#282828" stroke-width="0.2"/>
<path d="M25.96 15.7402C26.3798 15.7402 26.7207 16.0802 26.7207 16.5C26.7206 16.9197 26.3797 17.2598 25.96 17.2598H12.2324C11.8127 17.2598 11.4727 16.9197 11.4727 16.5C11.4727 16.0802 11.8126 15.7402 12.2324 15.7402H25.96Z" fill="#282828" stroke="#282828" stroke-width="0.2"/>
<path d="M25.96 20.4043C26.3798 20.4043 26.7207 20.7442 26.7207 21.1641C26.7206 21.5838 26.3797 21.9238 25.96 21.9238H12.2324C11.8127 21.9238 11.4727 21.5838 11.4727 21.1641C11.4727 20.7443 11.8126 20.4043 12.2324 20.4043H25.96Z" fill="#282828" stroke="#282828" stroke-width="0.2"/>
<path d="M18.5684 25.0684C18.9881 25.0684 19.3281 25.4083 19.3281 25.8281C19.328 26.2478 18.9881 26.5878 18.5684 26.5879H12.2324C11.8127 26.5879 11.4727 26.2479 11.4727 25.8281C11.4727 25.4083 11.8126 25.0684 12.2324 25.0684H18.5684Z" fill="#282828" stroke="#282828" stroke-width="0.2"/>
<path d="M37.501 18.6104C38.1737 18.6104 38.8074 18.8719 39.2832 19.3477L39.4697 19.5352L39.6426 19.7266C40.4482 20.7153 40.3907 22.1775 39.4697 23.0986L27.1611 35.4072C26.9642 35.6039 26.6242 35.8134 26.2217 36.0205C25.816 36.2292 25.3363 36.4403 24.8535 36.6367C23.888 37.0295 22.9022 37.3678 22.4463 37.5195C22.3678 37.5457 22.2863 37.5586 22.2061 37.5586C22.0078 37.5586 21.8138 37.4806 21.6689 37.3359L21.4814 37.1494C21.2781 36.946 21.2073 36.6449 21.2979 36.3721C21.4495 35.9163 21.7877 34.9296 22.1807 33.9639C22.3771 33.4811 22.5882 33.0014 22.7969 32.5957C23.0041 32.1929 23.2143 31.8531 23.4111 31.6562L35.7188 19.3486C36.1946 18.8727 36.828 18.6104 37.501 18.6104ZM24.3018 32.999C24.0054 33.511 23.5679 34.5564 23.1631 35.6543C24.2603 35.2497 25.3041 34.8109 25.8164 34.5146L24.3018 32.999ZM25.0225 32.1934L26.623 33.7939L36.6123 23.8057L35.0117 22.2041L25.0225 32.1934ZM37.501 20.1299C37.2337 20.1299 36.983 20.2339 36.7939 20.4229L35.7754 21.4404L37.376 23.041L38.3945 22.0234C38.5836 21.8345 38.6875 21.5837 38.6875 21.3164C38.6874 21.0492 38.5835 20.7982 38.3945 20.6094L38.208 20.4229C38.0191 20.234 37.7682 20.1299 37.501 20.1299Z" fill="#282828" stroke="#282828" stroke-width="0.2"/>
<path d="M32.4639 8.18164C32.6405 8.18164 32.7971 8.29425 32.8525 8.46191L33.6123 10.7549L35.9062 11.5156C36.0736 11.5712 36.1865 11.7269 36.1865 11.9033C36.1865 12.0798 36.0736 12.2362 35.9062 12.292L33.6123 13.0518L32.8525 15.3457C32.7971 15.5133 32.6404 15.626 32.4639 15.626C32.2873 15.6259 32.1308 15.5132 32.0752 15.3457L31.3154 13.0518L29.0225 12.292C28.8549 12.2364 28.7421 12.08 28.7422 11.9033C28.7422 11.7266 28.8549 11.571 29.0225 11.5156L31.3154 10.7549L32.0752 8.46191C32.1308 8.29442 32.2872 8.18172 32.4639 8.18164Z" fill="#282828" stroke="#282828" stroke-width="0.2"/>
<path d="M37.5791 3.30762C37.6901 3.30775 37.7883 3.37893 37.8232 3.48438L38.2734 4.84277L39.6338 5.29395L39.7051 5.33105C39.7699 5.37872 39.8105 5.45561 39.8105 5.53906C39.8103 5.64997 39.7388 5.74805 39.6338 5.7832L38.2734 6.2334L37.8232 7.59375C37.7882 7.69915 37.6899 7.77038 37.5791 7.77051C37.4681 7.77051 37.3689 7.69856 37.334 7.59277L36.8828 6.2334L35.5244 5.7832H35.5234C35.4185 5.74796 35.3479 5.64987 35.3477 5.53906C35.3477 5.42804 35.4189 5.32879 35.5244 5.29395L36.8828 4.84277L37.334 3.48438C37.3689 3.37887 37.468 3.30762 37.5791 3.30762Z" fill="#282828" stroke="#282828" stroke-width="0.2"/>
<path d="M33.4521 20.0039L33.4219 20.0332L31.6621 21.7568L31.4922 21.9238V16.3555L31.6465 16.457C31.8834 16.613 32.165 16.7021 32.4629 16.7021C32.7681 16.7021 33.0558 16.609 33.2959 16.4463L33.4521 16.3408V20.0039Z" fill="#282828" stroke="#282828" stroke-width="0.2"/>
<path d="M29.832 3.06836C31.8281 3.0684 33.4519 4.6915 33.4521 6.6875V7.46777L33.2959 7.3623C33.0556 7.19968 32.768 7.10645 32.4629 7.10645C32.165 7.10646 31.8834 7.19571 31.6465 7.35156L31.4922 7.45312V6.6875C31.4919 5.77092 30.7487 5.02836 29.832 5.02832H8.27148C7.35504 5.02857 6.61256 5.77105 6.6123 6.6875V37.752C6.6123 38.6686 7.35488 39.4119 8.27148 39.4121H29.832C30.7488 39.4121 31.4922 38.6687 31.4922 37.752V32.7021L31.5215 32.6729L33.2812 30.9092L33.4521 30.7383V37.752C33.4521 39.7482 31.8282 41.372 29.832 41.3721H8.27148C6.27545 41.3718 4.65234 39.748 4.65234 37.752V6.6875C4.6526 4.69163 6.27561 3.06861 8.27148 3.06836H29.832Z" fill="#282828" stroke="#282828" stroke-width="0.2"/>
</svg>
