<svg width="48" height="48" viewBox="0 0 48 48" fill="none" xmlns="http://www.w3.org/2000/svg">
<path d="M38.123 2.82764C39.6766 1.27416 42.2051 1.27435 43.7588 2.82764C45.3125 4.38139 45.3125 6.90972 43.7588 8.46338V8.46436L39.2686 12.9546H47.75V46.3374H5.64746C2.67174 46.3374 0.250002 43.9157 0.25 40.9399V14.1167C0.25 10.3626 3.30453 7.30725 7.05859 7.30713H11.0439V12.9546H27.9961L38.123 2.82764ZM11.0439 37.8667H5.64746C3.9525 37.8667 2.57324 39.245 2.57324 40.9399C2.57324 42.6349 3.9525 44.0132 5.64746 44.0132H45.4268V15.2778H36.9443L36.8721 15.3511L27.5371 24.6851L20.4932 26.0933L21.9023 19.0474L25.2461 15.7046L25.6729 15.2778H11.0439V37.8667ZM7.05859 9.63135C4.58529 9.63147 2.57324 11.6434 2.57324 14.1167V36.4849L2.94922 36.2671C3.74328 35.8069 4.66511 35.5425 5.64746 35.5425H8.7207V9.63135H7.05859ZM24.043 20.1938L24.0273 20.2681L23.5283 22.7642L23.4551 23.1323L23.8223 23.0581L26.3184 22.5591L26.3926 22.5444L27.8281 21.1089L27.6514 20.9321L25.6553 18.9351L25.4785 18.7583L24.043 20.1938ZM27.1211 17.1157L27.2979 17.2925L29.2949 19.2886L29.4717 19.4653L39.2979 9.63916L39.1211 9.4624L37.125 7.46533L36.9482 7.28857L27.1211 17.1157ZM42.1162 4.47119C41.4682 3.82344 40.4147 3.82305 39.7666 4.47119L38.7676 5.46924L38.5908 5.646L38.7676 5.82275L40.7646 7.81885L40.9414 7.99561L42.1162 6.8208C42.4296 6.50728 42.6025 6.08939 42.6025 5.646C42.6025 5.20266 42.4296 4.78467 42.1162 4.47119Z" fill="black" stroke="#E4E0D8" stroke-width="0.5"/>
<path d="M42.1025 29.896V40.6899H14.3672V29.896H42.1025ZM16.6904 38.3667H39.7793V32.2192H35.0439V35.0435H32.7197V32.2192H29.3965V35.0435H27.0732V32.2192H23.75V35.0435H21.4258V32.2192H16.6904V38.3667Z" fill="black" stroke="#E4E0D8" stroke-width="0.5"/>
</svg>
