<svg xmlns="http://www.w3.org/2000/svg" width="266" height="49" fill="none" viewBox="0 0 266 49"><path fill="#000" d="M170 2.6c7.3 0 14.4-.4 21.4.1 6.3.5 10.4 5.5 10.7 11.8s-3.6 11.2-9.7 12.7l-2.6.6 13.3 16.8h-8.6c-.7-.1-1.4-1-1.9-1.5l-10.5-13.7c-1-1.4-2.2-2.2-4.3-1.4v16.4h-7.7zm7.8 18.4h10.5c3.4-.1 5.6-2.3 5.8-5.5.2-3.7-1.7-6.2-5.4-6.5q-4.6-.3-9.4 0c-.5 0-1.5.9-1.5 1.4zM65.7 44.5V2.6l1-.4q8.9-.2 17.6.3c9.6.7 15.7 6 17.5 15.4 1.3 6.8.8 13.6-3.5 19.4a18 18 0 0 1-14.4 7.2zm7.9-6.6h9.2c4.5-.4 8.4-2 10.2-6.6q3-7.8 0-15.7c-1.1-3-3.3-5.3-6.4-5.8q-6.3-.9-13-1.3z"/><path fill="#000" d="M235 31.6h-23.7c-.3 3 1.3 5.7 4 7.1 3 1.6 10.3.5 12-2 1.3-1.2.4-1.2 4-1.2h2.9c0 4.6-7 10.6-15.8 10-10-.8-16.2-8.3-15.3-18.4 1-9.7 8.4-15.7 18.5-14.7 8.9.8 14.5 8.8 13.4 19.2m-7.7-6c-.7-5.1-3.8-7.8-8.4-7.6a8 8 0 0 0-7.7 7.7zm-91.9 9.9c-.8 5.8-8.5 11.5-18.4 9.6-8.3-1.5-14-9.7-12.7-18.5 1.5-9.8 9-15.4 18.8-14.2 8.7 1 14.2 8.7 13.2 19.1h-23.9q.1 5.7 5 7.6c3 1.2 7.4.7 9-1.7 1.2-1.8 2.7-2 4.5-2q2.3.2 4.5.1m-7.1-9.8c0-4.6-3.3-7.8-7.9-7.7-4.4 0-8 3.4-8 7.7zM266 13.2l-9 23.3q-1.3 3-2.4 6.2-.7 2.2-3 2c-5.3-.1-5.3 0-7.2-5.1l-9-23.2-1.2-3.2h7c.5.1 1.3 1.1 1.6 1.9q3.4 9.6 6.6 19.3l.6 1.4q3.7-10 7-19.9c.6-2.1 1.6-3 4-2.7q2 .2 5 0M151.3 35.7l7-20.1c.6-1.9 1.4-2.6 3.4-2.4h5.5l-3.8 9.9-7.5 19.5c-.6 1.6-1.4 2-3 2-5.4 0-5.4 0-7.3-5l-9.2-23.8-1-2.6q3.6-.2 6.7.1c.8.1 1.7 1.2 2 2zM24.5 11.9h-12v11.5C6.8 24.2 1 19.2.5 13.3A12 12 0 0 1 11.9 0c6.9-.3 12.7 5 12.6 12m22.4 25.4h-12v11.5c-6.2.7-12-4.6-12.3-11.1S28 25.4 35 25.5c6.8 0 12.3 5.4 11.9 11.9M12.5 49 0 26h25zM22.3.5h25c-4 7.7-8.1 15-12.4 23z"/></svg>