<svg width="134" height="29" viewBox="0 0 134 29" fill="none" xmlns="http://www.w3.org/2000/svg">
<path d="M35.1754 10.0686C35.1754 9.00261 35.451 8.05855 36.0022 7.243C36.5535 6.42739 37.3164 5.78519 38.2907 5.32924C39.265 4.87328 40.3932 4.64209 41.6753 4.64209C42.9573 4.64209 43.9765 4.86044 44.8868 5.29071C45.797 5.7274 46.5021 6.3439 47.0086 7.1402C47.5149 7.93658 47.7842 8.89341 47.8227 9.9916H44.624C44.5919 9.20808 44.3099 8.5916 43.7778 8.1549C43.2458 7.7118 42.5278 7.49341 41.6304 7.49341C40.6496 7.49341 39.8612 7.7118 39.2714 8.1549C38.6817 8.59799 38.3869 9.20168 38.3869 9.97229C38.3869 10.6209 38.5663 11.1347 38.9253 11.5136C39.2843 11.886 39.8484 12.1686 40.6112 12.3548L43.483 13.0035C45.0471 13.3374 46.2137 13.909 46.9829 14.7181C47.7457 15.5273 48.1303 16.619 48.1303 17.9869C48.1303 19.1043 47.8547 20.0869 47.3034 20.941C46.7522 21.7887 45.9765 22.4437 44.9701 22.9061C43.9637 23.3621 42.7843 23.5933 41.4381 23.5933C40.092 23.5933 39.0343 23.3749 38.0664 22.9318C37.0984 22.4887 36.3484 21.8657 35.8036 21.0694C35.2651 20.2667 34.9767 19.3291 34.9446 18.2438H38.1433C38.1625 19.0144 38.4638 19.618 39.0535 20.0612C39.6432 20.5043 40.4509 20.7226 41.4637 20.7226C42.4766 20.7226 43.374 20.5043 44.0022 20.0612C44.624 19.618 44.9381 19.0336 44.9381 18.2951C44.9381 17.6593 44.7714 17.1585 44.4381 16.7795C44.1047 16.4071 43.5663 16.1438 42.8163 15.9897L39.9189 15.3411C38.3676 15.0071 37.1945 14.4035 36.3997 13.5237C35.5984 12.6503 35.201 11.5007 35.201 10.0815L35.1754 10.0686Z" fill="black"/>
<path d="M50.5618 28.9944V10.9038H53.3823L53.5809 12.779C53.9463 12.0597 54.5104 11.5074 55.2797 11.1157C56.0425 10.724 56.8886 10.5249 57.8053 10.5249C58.9848 10.5249 60.0104 10.7946 60.8629 11.3276C61.7219 11.8607 62.3885 12.6056 62.8757 13.5561C63.3629 14.5065 63.6001 15.6303 63.6001 16.934C63.6001 18.2377 63.3757 19.3615 62.927 20.3633C62.4783 21.3651 61.8244 22.155 60.9655 22.7266C60.1065 23.3045 59.0617 23.5871 57.8309 23.5871C56.9143 23.5871 56.0809 23.4137 55.3181 23.0605C54.5617 22.7073 53.9912 22.2257 53.6066 21.6092V28.9944H50.5618ZM53.6323 17.0817C53.6323 17.8138 53.7733 18.4688 54.0553 19.034C54.3374 19.5991 54.7412 20.0486 55.2668 20.3697C55.7925 20.6972 56.4014 20.8578 57.1002 20.8578C57.7989 20.8578 58.4335 20.6972 58.9463 20.3697C59.4591 20.0422 59.8565 19.5991 60.1193 19.034C60.3886 18.4688 60.5168 17.8138 60.5168 17.0817C60.5168 16.3496 60.3821 15.6945 60.1193 15.1295C59.8501 14.5643 59.4591 14.1148 58.9463 13.7936C58.4271 13.4661 57.8117 13.3056 57.1002 13.3056C56.3887 13.3056 55.7861 13.4661 55.2668 13.7808C54.7412 14.0955 54.3374 14.5386 54.0553 15.1101C53.7733 15.6753 53.6323 16.3368 53.6323 17.0881V17.0817Z" fill="black"/>
<path d="M71.5423 23.5862C70.3246 23.5862 69.2478 23.3037 68.3054 22.745C67.3631 22.1862 66.6264 21.4156 66.0939 20.4395C65.562 19.4633 65.2927 18.3395 65.2927 17.0744C65.2927 15.8092 65.5491 14.6533 66.0682 13.6708C66.5809 12.6882 67.3117 11.9176 68.2415 11.3588C69.1707 10.8001 70.2415 10.5176 71.4402 10.5176C72.6389 10.5176 73.7605 10.7809 74.6646 11.3075C75.5621 11.8341 76.2606 12.5662 76.7476 13.4973C77.2412 14.4349 77.485 15.5524 77.485 16.8496V17.7744L66.8952 17.8001L66.9466 15.8478H74.4656C74.4656 15.0001 74.1967 14.313 73.6517 13.7928C73.1134 13.2726 72.3825 13.0157 71.4659 13.0157C70.7476 13.0157 70.1453 13.1634 69.6517 13.4653C69.1582 13.7671 68.7924 14.2166 68.5427 14.8139C68.2929 15.4111 68.171 16.1496 68.171 17.0166C68.171 18.3524 68.4596 19.3606 69.0297 20.0477C69.6069 20.7349 70.4596 21.0753 71.5878 21.0753C72.4208 21.0753 73.1068 20.9147 73.6517 20.6C74.1901 20.2854 74.5493 19.8358 74.716 19.2514H77.5364C77.2669 20.6 76.6066 21.6597 75.5489 22.4303C74.4913 23.2009 73.1516 23.5798 71.5364 23.5798L71.5423 23.5862Z" fill="black"/>
<path d="M82.9802 23.2587H79.9351V10.8965H82.7555L83.0059 12.4956C83.3901 11.879 83.9351 11.3974 84.6402 11.0442C85.3453 10.691 86.1209 10.5176 86.9479 10.5176C88.4991 10.5176 89.6662 10.9735 90.4543 11.8919C91.2425 12.8102 91.6405 14.0625 91.6405 15.6487V23.2587H88.5954V16.3744C88.5954 15.3404 88.3647 14.5698 87.8968 14.0625C87.429 13.5551 86.8003 13.2983 85.999 13.2983C85.0507 13.2983 84.3067 13.6001 83.7749 14.1974C83.2431 14.7946 82.9736 15.5973 82.9736 16.5992V23.2587H82.9802Z" fill="black"/>
<path d="M99.7138 23.5868C98.5152 23.5868 97.4898 23.3171 96.6311 22.7712C95.7718 22.2318 95.1049 21.474 94.6311 20.5043C94.1567 19.5346 93.9194 18.4107 93.9194 17.1264C93.9194 15.8419 94.1567 14.7053 94.6311 13.7099C95.1049 12.7145 95.7909 11.9374 96.6951 11.3723C97.5926 10.8072 98.6628 10.5182 99.8937 10.5182C100.759 10.5182 101.548 10.6916 102.265 11.0319C102.983 11.3723 103.528 11.8539 103.913 12.4704V4.64209H106.938V23.2593H104.143L103.945 21.3327C103.579 22.0327 103.015 22.585 102.259 22.9832C101.502 23.3813 100.656 23.5868 99.7204 23.5868H99.7138ZM100.387 20.7804C101.105 20.7804 101.72 20.6263 102.233 20.3181C102.746 20.0098 103.156 19.5667 103.445 18.9887C103.734 18.4107 103.881 17.7557 103.881 17.0236C103.881 16.2915 103.734 15.6172 103.445 15.0585C103.15 14.4997 102.746 14.0566 102.233 13.7291C101.714 13.4016 101.099 13.2411 100.387 13.2411C99.6756 13.2411 99.0792 13.4016 98.5666 13.7291C98.0473 14.0566 97.6565 14.4997 97.3811 15.0649C97.1049 15.63 96.9705 16.285 96.9705 17.0172C96.9705 17.7493 97.1049 18.4043 97.3811 18.9695C97.6565 19.5346 98.0539 19.9777 98.5666 20.2988C99.0792 20.6135 99.6888 20.774 100.387 20.774V20.7804Z" fill="black"/>
<path d="M117.548 11.0456H112.259V8.54751C112.259 7.82824 112.381 7.29519 112.619 6.96768C112.843 6.65947 113.298 6.4989 113.977 6.4989H115.202V5.10534L115.042 5.07323C114.862 5.0347 114.663 5.01543 114.42 5.00901C114.195 5.00259 113.977 4.99616 113.778 4.99616C113.253 4.99616 112.746 5.11176 112.292 5.34295C111.824 5.58057 111.439 5.96588 111.144 6.48606C110.856 7.00623 110.708 7.6998 110.708 8.54751V11.0456H108.837V12.452H110.708V23.4657H112.259V12.452H117.548V23.4657H119.099V4.98975H117.548V11.0456Z" fill="black"/>
<path d="M133.192 13.9155C132.66 12.9458 131.929 12.1688 131.013 11.6036C130.096 11.0385 129.025 10.7495 127.846 10.7495C126.667 10.7495 125.622 11.0385 124.692 11.6036C123.769 12.1688 123.025 12.9522 122.5 13.922C121.968 14.8917 121.699 16.0155 121.699 17.2613C121.699 18.5072 121.968 19.6118 122.5 20.5879C123.032 21.5641 123.769 22.3475 124.698 22.9191C125.628 23.4842 126.686 23.7732 127.852 23.7732C129.019 23.7732 130.102 23.4842 131.019 22.9191C131.936 22.3539 132.673 21.5705 133.199 20.5943C133.73 19.6182 134 18.5008 134 17.2678C134 16.0348 133.73 14.898 133.199 13.9284L133.192 13.9155ZM127.846 22.309C126.955 22.309 126.16 22.0907 125.481 21.6668C124.801 21.2366 124.256 20.6393 123.865 19.8815C123.474 19.1237 123.276 18.2375 123.276 17.2613C123.276 16.2852 123.474 15.3797 123.865 14.6283C124.256 13.8834 124.795 13.2862 125.481 12.8559C126.16 12.4256 126.955 12.2137 127.846 12.2137C128.737 12.2137 129.532 12.4321 130.211 12.8559C130.891 13.2862 131.436 13.8834 131.827 14.6283C132.218 15.3797 132.416 16.266 132.416 17.2613C132.416 18.2567 132.218 19.1237 131.827 19.8815C131.436 20.6393 130.897 21.2366 130.211 21.6668C129.532 22.0971 128.737 22.309 127.846 22.309Z" fill="black"/>
<path d="M13.0448 0.192658L0.166665 13.9934C0.0576916 14.1026 0 14.2567 0 14.4108V15.6503C0 15.9842 0.269228 16.2604 0.608968 16.2604H26.3779C26.7112 16.2604 26.9869 15.9906 26.9869 15.6503V14.4108C26.9869 14.2567 26.9292 14.109 26.8202 13.9934L13.9358 0.192658C13.6986 -0.0642194 13.2883 -0.0642194 13.0511 0.192658H13.0448Z" fill="url(#paint0_linear_287_8871)"/>
<path d="M13.3078 11.5983L0.423316 19.1569C0.173319 19.234 0.000244141 19.4716 0.000244141 19.7349V20.7689C0.000244141 21.1028 0.269472 21.3789 0.609212 21.3789H26.3781C26.7115 21.3789 26.9871 21.1092 26.9871 20.7689V19.7349C26.9871 19.4716 26.814 19.234 26.564 19.1569L13.6796 11.5919C13.5578 11.5534 13.4296 11.5534 13.3142 11.5919L13.3078 11.5983Z" fill="url(#paint1_linear_287_8871)"/>
<path d="M13.3078 20.441L0.423316 24.5253C0.173319 24.6024 0.000244141 24.84 0.000244141 25.1033V26.1372C0.000244141 26.4712 0.269472 26.7473 0.609212 26.7473H26.3781C26.7115 26.7473 26.9871 26.4776 26.9871 26.1372V25.1033C26.9871 24.84 26.814 24.6024 26.564 24.5253L13.6796 20.4474C13.5578 20.4088 13.4296 20.4088 13.3142 20.4474L13.3078 20.441Z" fill="url(#paint2_linear_287_8871)"/>
<defs>
<linearGradient id="paint0_linear_287_8871" x1="13.4934" y1="16.2439" x2="13.4934" y2="-0.00816906" gradientUnits="userSpaceOnUse">
<stop/>
<stop offset="1" stop-color="#898989"/>
</linearGradient>
<linearGradient id="paint1_linear_287_8871" x1="13.4937" y1="21.369" x2="13.4937" y2="11.5581" gradientUnits="userSpaceOnUse">
<stop/>
<stop offset="1" stop-color="#898989"/>
</linearGradient>
<linearGradient id="paint2_linear_287_8871" x1="13.4937" y1="26.7409" x2="13.4937" y2="20.4153" gradientUnits="userSpaceOnUse">
<stop/>
<stop offset="1" stop-color="#898989"/>
</linearGradient>
</defs>
</svg>
