<svg width="266" height="49" viewBox="0 0 266 49" fill="none" xmlns="http://www.w3.org/2000/svg">
<path d="M170.07 2.5774C177.276 2.5774 184.38 2.17649 191.416 2.69562C197.743 3.15821 201.85 8.23128 202.087 14.4917C202.323 20.7572 198.54 25.6812 192.352 27.1666C191.617 27.3414 190.877 27.5161 189.849 27.7577C194.238 33.3448 198.478 38.7417 203.079 44.6011C199.851 44.6011 197.158 44.6988 194.485 44.5292C193.822 44.4881 193.092 43.6811 192.604 43.0592C189.078 38.5515 185.557 34.0387 182.139 29.4487C181.034 27.9685 179.872 27.2026 177.816 27.9787V44.411H170.075V2.5774H170.07ZM177.754 21.0039C181.476 21.0039 184.868 21.0707 188.26 20.9833C191.689 20.9011 193.935 18.7064 194.104 15.4631C194.3 11.7624 192.403 9.28496 188.749 8.99713C185.613 8.75041 182.442 8.83779 179.291 8.95601C178.762 8.97657 177.842 9.86577 177.821 10.3849C177.688 13.7772 177.754 17.1798 177.754 21.0039Z" fill="black"/>
<path d="M65.668 44.5177V2.61732C65.9404 2.50938 66.3002 2.23697 66.6548 2.24211C72.5503 2.28837 78.4612 2.09819 84.336 2.49911C93.9322 3.15701 100.049 8.56417 101.832 17.9393C103.127 24.7445 102.608 31.4521 98.3165 37.2756C94.7803 42.0711 89.6507 44.1887 83.8889 44.456C77.9317 44.7336 71.9489 44.5177 65.668 44.5177ZM73.5577 37.8821C76.8318 37.8821 79.8335 38.062 82.8044 37.841C87.3069 37.5017 91.1978 35.857 93.0019 31.3082C95.0733 26.0963 95.0681 20.7817 93.0276 15.5544C91.8763 12.6093 89.6815 10.3426 86.5822 9.80803C82.352 9.07302 78.0191 8.94966 73.5577 8.54875V37.8872V37.8821Z" fill="black"/>
<path d="M234.97 31.5574H211.327C211.024 34.5437 212.633 37.3244 215.331 38.743C218.312 40.3055 225.554 39.1593 227.322 36.7487C228.571 35.4997 227.692 35.4997 231.342 35.4997C232.282 35.4997 233.218 35.4997 234.158 35.4997C234.179 40.1205 227.292 46.1444 218.43 45.4608C208.397 44.6847 202.219 37.237 203.139 27.1423C204.034 17.3508 211.512 11.3731 221.638 12.3599C230.473 13.2183 236.122 21.1646 234.97 31.5626V31.5574ZM227.322 25.6825C226.587 20.4912 223.478 17.7568 218.883 17.983C214.637 18.1886 211.476 21.2982 211.178 25.6825H227.322Z" fill="black"/>
<path d="M135.446 35.4953C134.588 41.329 126.903 46.9572 116.994 45.148C108.657 43.6266 103.013 35.4079 104.329 26.5776C105.784 16.8323 113.272 11.1682 123.1 12.3812C131.838 13.4606 137.25 21.1447 136.284 31.5376H112.409C112.394 35.2588 114.187 37.8493 117.41 39.1446C120.412 40.3473 124.827 39.7511 126.395 37.4176C127.633 35.5775 129.067 35.3873 130.918 35.485C132.362 35.5621 133.817 35.5004 135.446 35.5004V35.4953ZM128.286 25.6884C128.265 21.0727 124.966 17.9117 120.412 17.9682C115.976 18.0248 112.45 21.4017 112.491 25.6884H128.286Z" fill="black"/>
<path d="M266.001 13.1856C262.901 21.2038 259.956 28.8314 257.006 36.459C256.204 38.5303 255.284 40.5555 254.621 42.668C254.117 44.2665 253.233 44.6674 251.63 44.6468C246.279 44.5903 246.305 44.6468 244.362 39.584C241.391 31.8588 238.374 24.1438 235.382 16.4237C235.017 15.4831 234.699 14.5271 234.221 13.1958C236.739 13.1958 238.944 13.0622 241.113 13.2832C241.74 13.3449 242.532 14.342 242.789 15.077C245.066 21.5122 247.235 27.9833 249.44 34.4441C249.594 34.8913 249.8 35.3179 250.01 35.8319C252.375 29.0781 254.765 22.5402 256.918 15.9251C257.623 13.7664 258.635 12.8566 260.912 13.1547C262.418 13.35 263.976 13.1907 266.001 13.1907V13.1856Z" fill="black"/>
<path d="M151.273 35.6929C153.581 29.0933 156.012 22.3806 158.248 15.6011C158.86 13.7456 159.708 12.9541 161.686 13.1596C163.352 13.3293 165.053 13.1956 167.196 13.1956C165.809 16.7576 164.57 19.9083 163.352 23.0642C160.833 29.5816 158.274 36.0835 155.853 42.6369C155.282 44.1737 154.516 44.6774 152.887 44.662C147.521 44.6055 147.531 44.6723 145.604 39.6815C142.535 31.7301 139.446 23.7838 136.373 15.8375C136.074 15.0665 135.802 14.2904 135.406 13.2059C137.848 13.2059 139.996 13.0157 142.083 13.3036C142.859 13.4115 143.81 14.5114 144.118 15.3595C146.596 22.1545 148.94 29.0008 151.278 35.6981L151.273 35.6929Z" fill="black"/>
<path d="M24.5382 11.8877C22.4052 11.8877 20.452 11.8877 18.504 11.8877C16.556 11.8877 14.7776 11.8877 12.5777 11.8877V23.4062C6.69766 24.1566 0.905005 19.1709 0.370457 13.2549C-0.25661 6.22356 4.8473 0.353807 11.8889 0.0145742C18.7661 -0.314379 24.5691 4.96429 24.5382 11.8929V11.8877Z" fill="black"/>
<path d="M46.8884 37.3624H34.9331V48.9426C28.7344 49.6159 22.9674 44.2653 22.5973 37.7839C22.2221 31.1842 28.0199 25.4276 34.9639 25.5047C41.7588 25.5818 47.2637 30.9478 46.8884 37.3573V37.3624Z" fill="black"/>
<path d="M12.5105 48.9155C8.28036 41.1491 4.22499 33.7014 0 25.9453H24.9799C20.832 33.578 16.7663 41.0771 12.5053 48.9155H12.5105Z" fill="black"/>
<path d="M22.3457 0.452148H47.3924C43.2085 8.16198 39.1737 15.5891 34.8973 23.4634C30.6569 15.6868 26.6015 8.2545 22.3457 0.452148Z" fill="black"/>
</svg>
