<svg xmlns="http://www.w3.org/2000/svg" width="134" height="29" fill="none" viewBox="0 0 134 29"><path fill="#000" d="M35.2 10q0-1.6.8-2.8t2.3-1.9 3.4-.7 3.2.7a5 5 0 0 1 3 4.7h-3.3q0-1.2-.8-1.8t-2.2-.7-2.3.7q-1 .6-1 1.8 0 .9.6 1.5t1.7.9l2.9.6q2.3.6 3.5 1.7 1 1.3 1 3.3 0 1.6-.8 3-.8 1.1-2.3 2-1.5.6-3.6.6-2 0-3.3-.7-1.5-.6-2.3-1.8t-.9-2.9H38q0 1.2 1 1.9a4 4 0 0 0 2.4.6q1.5 0 2.5-.6t1-1.8q0-.9-.6-1.5-.4-.6-1.6-.8l-2.9-.7q-2.3-.4-3.5-1.8-1.2-1.2-1.2-3.4M50.6 29V10.9h2.8l.2 1.9q.5-1 1.7-1.7t2.5-.6q1.8 0 3 .8 1.5.9 2 2.3.8 1.4.8 3.3 0 2-.7 3.5-.5 1.5-2 2.3-1.2.9-3 .9-1.4 0-2.6-.5-1-.6-1.7-1.5V29zm3-12q0 1.2.5 2 .3.9 1.2 1.4t1.8.5 1.8-.5 1.2-1.4q.4-.8.4-2 0-1-.4-1.9a3 3 0 0 0-3-1.8q-1 0-1.8.5T54 15q-.5.9-.5 2m18 6.6q-1.8 0-3.2-.9a6 6 0 0 1-2.2-2.3 7 7 0 0 1-.8-3.3q0-2 .8-3.4.8-1.5 2.1-2.3 1.5-.9 3.2-.9 1.9 0 3.3.8t2 2.2.8 3.3v1H66.9v-2h7.6q0-1.2-.8-2a3 3 0 0 0-2.2-.8q-1.2 0-1.8.5-.8.4-1.2 1.3t-.3 2.2q0 2.1.8 3 1 1 2.6 1a4 4 0 0 0 2-.4q1-.5 1.1-1.3h2.8a5 5 0 0 1-2 3.1q-1.5 1.2-4 1.2m11.5-.3h-3V10.9h2.8l.2 1.6a4 4 0 0 1 1.6-1.5q1-.5 2.3-.5 2.4 0 3.6 1.4 1 1.5 1.1 3.7v7.7h-3v-7q0-1.5-.7-2.2t-1.9-.8q-1.5 0-2.2.9t-.8 2.4zm16.7.3q-1.8 0-3-.8a5 5 0 0 1-2-2.3q-.8-1.4-.8-3.4t.7-3.4 2.1-2.3 3.2-.9q1.3 0 2.4.5t1.6 1.5V4.6h3v18.7h-2.8l-.2-2q-.5 1-1.6 1.7t-2.6.6m.7-2.8q1 0 1.8-.5t1.2-1.3.5-2q0-1-.5-2-.4-.8-1.2-1.3t-1.8-.5-1.8.5q-.9.6-1.2 1.4-.4.8-.4 2 0 1 .4 1.9t1.2 1.3 1.8.5m17.1-9.8h-5.2V8.5q0-1 .3-1.5t1.4-.5h1.2V5.1h-.8l-.6-.1-1.5.3q-.7.4-1.2 1.2t-.4 2V11h-1.9v1.5h2v11h1.5v-11h5.2v11h1.6V5h-1.6zm15.7 3q-.8-1.5-2.2-2.4a6 6 0 0 0-3.2-.9 6 6 0 0 0-5.3 3.2q-.8 1.5-.8 3.4t.8 3.3 2.2 2.3 3.2.9a6 6 0 0 0 5.3-3.2q.8-1.5.8-3.3a7 7 0 0 0-.8-3.4m-5.4 8.3q-1.2 0-2.3-.6t-1.6-1.8-.6-2.6q0-1.6.6-2.7.6-1 1.6-1.7t2.3-.7a4 4 0 0 1 4 2.4q.6 1.2.6 2.7 0 1.4-.6 2.6-.6 1-1.6 1.8-1 .6-2.4.6"/><path fill="url(#a)" d="M13 .2.2 14l-.2.4v1.3q0 .5.6.6h25.8q.5 0 .6-.6v-1.3l-.2-.4L14 .2h-.8"/><path fill="url(#b)" d="M13.3 11.6.4 19.2q-.4.1-.4.5v1q0 .7.6.7h25.8q.5 0 .6-.6v-1q0-.5-.4-.6l-13-7.6z"/><path fill="url(#c)" d="M13.3 20.4.4 24.5q-.4.1-.4.6v1q0 .6.6.6h25.8q.5 0 .6-.6v-1q0-.5-.4-.6l-13-4z"/><defs><linearGradient id="a" x1="13.5" x2="13.5" y1="16.2" y2="0" gradientUnits="userSpaceOnUse"><stop/><stop offset="1" stop-color="#898989"/></linearGradient><linearGradient id="b" x1="13.5" x2="13.5" y1="21.4" y2="11.6" gradientUnits="userSpaceOnUse"><stop/><stop offset="1" stop-color="#898989"/></linearGradient><linearGradient id="c" x1="13.5" x2="13.5" y1="26.7" y2="20.4" gradientUnits="userSpaceOnUse"><stop/><stop offset="1" stop-color="#898989"/></linearGradient></defs></svg>