<svg xmlns="http://www.w3.org/2000/svg" width="277" height="72" fill="none" viewBox="0 0 277 72"><path fill="#000" d="M64.7 34.4c0-2 1-4 2.5-5.2q2.7-2.1 7-2.1 4.4 0 7 2a7 7 0 0 1 2.7 5.7h-6.1q-.3-3-3.7-3-1.5 0-2.7.7-1 .7-1 2a2 2 0 0 0 1.5 1.8q1.7.8 3.4 1l4 1q2 .6 3.4 2 1.5 1.7 1.5 4 0 3.2-2.7 5.2-3.1 2.1-7 2-3.9.1-7-2a7 7 0 0 1-2.9-5.7h6.2q.3 3 3.8 3 1.6 0 2.7-.7 1-.7 1-2T77 42.2q-1.5-.8-3.4-1.1l-4-1a8 8 0 0 1-3.4-2q-1.5-1.6-1.4-3.7M99.4 46h2.9v5h-3.9q-3.6 0-5.6-1.6t-2-5.5V32.3h-2.5v-4.9h2.5v-5.8h6v5.8h5.4v5H97V44q0 1 .6 1.7a3 3 0 0 0 1.9.4m10.3 2a12 12 0 0 1-3.4-8.8q0-5.5 3.4-8.9c5-4.4 12.5-4.4 17.5 0q3.5 3.4 3.5 8.9t-3.5 8.8a12 12 0 0 1-8.8 3.4c-3.2 0-6.4-1.1-8.7-3.4m8.7-1.7q2.6 0 4.3-1.8 1.8-1.8 1.9-5.3 0-3.4-1.8-5.3a6 6 0 0 0-4.3-1.8q-2.6 0-4.3 1.8a8 8 0 0 0-1.8 5.3q0 3.4 1.8 5.3 1.6 1.8 4.2 1.8m24-19v4.2q2.5-4.5 7-4.5v6.2h-1.6q-2.6 0-4 1.3-1.4 1.5-1.4 4.7v11.9h-6V27.5zM161 50.7l-9.3-23.3h6.8l6 17 6.4-17h6.3l-14.9 35H156zm20.6.5V19.5h6v31.7zm14.8-3.1a12 12 0 0 1-3.2-8.8q0-5.5 3.2-8.8c2-2.3 5-3.5 8-3.4a8 8 0 0 1 7.5 4v-3.7h6v23.8h-6v-4a8 8 0 0 1-7.5 4.3c-3 0-6-1.2-8-3.4m13.6-3.7a7 7 0 0 0 1.9-5.1q0-3-1.9-5.1a6 6 0 0 0-8.7-.1h-.1a7 7 0 0 0-1.9 5.2 7 7 0 0 0 2 5.1 6 6 0 0 0 8.6.2zm21.2-17V31q2.3-3.9 7.4-3.9 3.9 0 6.7 2.7 2.5 2.7 2.5 7.4v14h-6V38q0-2.8-1.4-4.3a5 5 0 0 0-3.9-1.5 5 5 0 0 0-3.8 1.5q-1.5 1.5-1.5 4.3v13h-6V27.5zm33.8 24q-5 .2-8.5-3.3a12 12 0 0 1-3.3-8.9q0-5.5 3.3-8.9Q260 27 265 27q5-.2 8.5 3.3 3.3 3.2 3.4 8.6 0 1.2-.2 2.3h-17.3q.1 2.1 1.7 3.7 1.6 1.5 3.8 1.5a5 5 0 0 0 4.6-2.6h6.5q-1 3.4-4 5.6-3.1 2.2-7 2m4-17.8a6 6 0 0 0-4-1.4q-2 0-3.7 1.4a6 6 0 0 0-1.9 3.8h11.2a5 5 0 0 0-1.7-3.8M2.2 26.1l26.6-20a3.3 3.3 0 0 0 .7-4.8 3.4 3.4 0 0 0-4.8-.6L1.8 18a4.6 4.6 0 0 0-.9 6.4zm17.3 1.8 17-12.9a3.4 3.4 0 0 0 .7-4.8 3.4 3.4 0 0 0-4.8-.6l-17 12.8q-.3.2-.1.5l3.6 4.8q.3.3.6.2m-1.3 43.4L39.8 55c3-2.2 3.6-6.4 1.3-9.4L14.1 66a3.4 3.4 0 0 0-.6 4.7 3.4 3.4 0 0 0 4.7.6m-7-9.7L29 48.3V48l-3.8-5q0-.3-.3-.1L7.2 56.2a3.4 3.4 0 0 0-.7 4.8 3.3 3.3 0 0 0 4.7.6m27-19.9L27.7 28l-5.4 4 10.5 13.9zm-17.4-1.6L10.3 26l-5.4 4 10.5 14z"/></svg>