<svg width="277" height="72" viewBox="0 0 277 72" fill="none" xmlns="http://www.w3.org/2000/svg">
<path d="M64.6575 34.3597C64.6575 32.3296 65.6264 30.3918 67.2412 29.1922C68.9945 27.7619 71.3014 27.0698 74.2081 27.0698C77.1148 27.0698 79.3756 27.7619 81.1288 29.1461C82.8821 30.4841 83.9433 32.6064 83.9433 34.8211H77.7607C77.5762 32.8371 76.3766 31.8221 74.0697 31.8221C73.1469 31.7759 72.2241 32.0066 71.3937 32.5142C70.7939 32.9294 70.4248 33.6676 70.4709 34.4058C70.517 35.2825 71.0707 36.0207 71.9012 36.2975C73.0085 36.805 74.162 37.1741 75.3154 37.3587C76.6534 37.6355 77.9914 37.9123 79.3294 38.3276C80.6213 38.6967 81.8209 39.3888 82.7437 40.3577C83.7126 41.4189 84.2201 42.8491 84.174 44.2794C84.2201 46.3556 83.2051 48.3396 81.4518 49.4931C79.4217 50.9233 76.9764 51.6154 74.4849 51.5231C72.0396 51.6154 69.5943 50.9234 67.5642 49.5392C65.7648 48.2012 64.6575 46.0788 64.6113 43.818H70.7939C71.0245 45.802 72.2703 46.817 74.6233 46.817C75.5922 46.8632 76.515 46.5864 77.3455 46.0788C77.9914 45.6636 78.3605 44.9254 78.3605 44.141C78.3144 43.2644 77.7607 42.48 76.9303 42.2032C75.8229 41.6957 74.6695 41.3266 73.516 41.0959C72.178 40.8191 70.84 40.5422 69.502 40.1731C68.2101 39.804 67.0105 39.1119 66.0878 38.1892C65.1188 37.128 64.6113 35.7438 64.6575 34.3597ZM99.3996 46.0788H102.26V51.154H98.4307C95.9854 51.154 94.1398 50.6004 92.8018 49.4931C91.51 48.3857 90.8179 46.5402 90.8179 43.9565V32.3296H88.2803V27.439H90.8179V21.5794H96.862V27.439H102.214V32.3758H96.9081V44.0026C96.862 44.6024 97.0465 45.2022 97.4618 45.6636C98.0154 45.9865 98.7075 46.1711 99.3996 46.0788ZM109.735 48.1089C107.428 45.8481 106.274 42.8953 106.274 39.2504C106.274 35.6054 107.428 32.6526 109.735 30.4379C114.718 26.0087 122.192 26.0087 127.175 30.4379C129.528 32.6526 130.681 35.6054 130.681 39.2504C130.681 42.8953 129.482 45.8481 127.175 48.1089C124.822 50.3697 121.684 51.5693 118.409 51.477C115.179 51.5693 112.041 50.3697 109.735 48.1089ZM118.409 46.4479C120.07 46.4479 121.638 45.802 122.746 44.6024C123.945 43.3567 124.591 41.5573 124.591 39.2965C124.591 37.0357 123.991 35.2825 122.792 34.0367C121.684 32.8371 120.07 32.1912 118.455 32.1912C116.84 32.1451 115.271 32.8371 114.164 34.0367C113.01 35.2825 112.411 37.0357 112.411 39.2965C112.411 41.5573 113.01 43.3567 114.164 44.5563C115.225 45.7559 116.748 46.4479 118.409 46.4479ZM142.4 27.439V31.6375C144.015 28.6385 146.322 27.116 149.321 27.116V33.2985H147.845C146.045 33.2985 144.707 33.7599 143.785 34.6365C142.862 35.5132 142.4 37.0819 142.4 39.2965V51.2002H136.356V27.4851H142.4V27.439ZM160.856 50.7388L151.582 27.439H158.364L164.408 44.3256L170.776 27.439H177.096L162.24 62.3656H155.965L160.856 50.7388ZM181.48 51.154V19.457H187.524V51.154H181.48ZM196.29 48.0628C194.122 45.7559 193.06 42.8491 193.106 39.2504C193.153 35.6977 194.168 32.7449 196.29 30.4841C198.366 28.2233 201.273 26.9776 204.364 27.0698C207.409 26.9314 210.27 28.5001 211.839 31.0839V27.3928H217.837V51.154H211.839V47.1861C210.039 50.0929 207.548 51.5231 204.318 51.5231C201.273 51.5693 198.366 50.3235 196.29 48.0628ZM209.901 44.4179C211.193 43.0337 211.885 41.1882 211.792 39.2965C211.885 37.4048 211.239 35.5593 209.901 34.1751C207.502 31.7298 203.626 31.6837 201.181 34.0829C201.135 34.129 201.135 34.129 201.088 34.1751C199.843 35.4209 199.197 37.0819 199.243 39.2504C199.151 41.142 199.797 43.0337 201.135 44.4179C203.441 46.8632 207.317 46.9093 209.762 44.6024C209.809 44.5563 209.855 44.5101 209.901 44.4179ZM231.124 27.439V30.9916C232.647 28.4079 235.092 27.116 238.507 27.116C240.998 27.0237 243.397 27.9926 245.15 29.792C246.858 31.5914 247.734 34.0367 247.734 37.2203V51.154H241.736V38.0508C241.736 36.2052 241.275 34.7749 240.306 33.806C239.291 32.791 237.861 32.2373 236.43 32.3296C235 32.2373 233.57 32.791 232.555 33.806C231.586 34.7749 231.124 36.2052 231.124 38.0508V51.154H225.08V27.439H231.124ZM264.852 51.477C261.668 51.6154 258.623 50.3697 256.408 48.1089C254.24 45.8481 253.132 42.8953 253.132 39.2042C253.132 35.5132 254.24 32.5603 256.408 30.3457C258.669 28.0849 261.714 26.8853 264.898 27.0237C268.081 26.8853 271.126 28.0849 273.433 30.2534C275.648 32.4219 276.801 35.2825 276.755 38.8813C276.755 39.6656 276.709 40.45 276.571 41.1882H259.269C259.361 42.6185 259.961 43.9103 260.976 44.9254C261.991 45.8943 263.375 46.4479 264.805 46.4018C266.697 46.4941 268.496 45.479 269.419 43.818H275.925C275.233 46.0327 273.848 48.0166 271.957 49.3546C269.881 50.8311 267.389 51.5693 264.852 51.477ZM268.819 33.6215C267.758 32.6987 266.374 32.1912 264.944 32.1912C263.56 32.1451 262.175 32.6526 261.16 33.6215C260.099 34.6365 259.453 35.9745 259.315 37.4048H270.527C270.527 35.9284 269.881 34.5443 268.819 33.6215Z" fill="black"/>
<path d="M2.2266 26.0989L28.8484 6.02874C30.3248 4.92142 30.6478 2.79906 29.4943 1.32264C28.3409 -0.153789 26.2647 -0.430616 24.7421 0.676703L1.81135 17.9786C-0.218731 19.5011 -0.587837 22.3617 0.934727 24.3918L2.2266 26.0989ZM19.5285 27.8522L36.5074 15.0257C37.9838 13.8723 38.3068 11.7499 37.1533 10.2273C35.9998 8.7509 33.8775 8.42794 32.3549 9.58139L15.376 22.3617C15.1915 22.5001 15.1453 22.7308 15.2837 22.9154L18.9287 27.7137C19.1132 27.9444 19.3439 27.9906 19.5285 27.8522ZM18.2366 71.3144L39.8293 55.0276C42.7822 52.7668 43.382 48.5683 41.1212 45.6154L14.1764 65.9624C12.7 67.0697 12.4232 69.1921 13.5305 70.6685C14.6378 72.1449 16.7602 72.4217 18.2366 71.3144ZM11.2236 61.6254L28.8945 48.2914C28.9868 48.2453 28.9868 48.1069 28.9407 48.0146L25.1112 42.9394C25.0651 42.8471 24.9266 42.8471 24.8344 42.8932L7.1634 56.2272C5.68697 57.3807 5.364 59.503 6.51746 60.9795C7.62478 62.4559 9.701 62.7788 11.2236 61.6254ZM38.2145 41.7398L27.6949 27.8522L22.2968 31.9123L32.8163 45.7999L38.2145 41.7398ZM20.8203 40.0788L10.2547 26.0989L4.85648 30.1591L15.4222 44.139L20.8203 40.0788Z" fill="black"/>
</svg>
