<svg xmlns="http://www.w3.org/2000/svg" width="212" height="167" fill="none" viewBox="0 0 212 167"><path fill="#000" d="M174.727.995c-.548.013-1.266-.001-1.812-.02-.171-.006-.084-.033-.202-.038-.231-.01-.447.003-.675-.01-.075-.004.019-.046-.061-.049-.434-.019-.845-.008-1.286-.017-2.168-.044-4.3-.06-6.496-.079-.723-.006-1.603-.044-2.351-.027-.087.002-.035.038-.052.041-.26.047-.174-.027-.344-.037a27 27 0 0 0-2.075-.029c-.276.007.001.08-.277.039-.02-.003.051-.042-.025-.046-.172-.01-.498-.003-.631-.006-.257-.006-.299-.006-.542-.006-.332-.001-.727-.02-1.083-.012-.076.002.025.043-.097.05a6 6 0 0 1-.55-.007c-.108-.01-.062-.04-.082-.048-.157-.06-.528.024-.576.026-.871.035-1.618-.013-2.436-.013-.621 0-1.284.016-1.875.014-.704-.003-1.3-.024-1.984-.02-.072 0 .013.047-.075.047-.936.006-1.866 0-2.798-.031-.094-.003.027-.045-.067-.05-.571-.034-1.476-.116-1.816.064-.387-.007-.857-.014-1.204-.05-.223-.024-.006-.069-.281-.05-.062.005.019.044-.074.047-.391.015-.818.002-1.204.022-.079.005-.057.04-.08.047-.187.051-.499-.034-.567-.04-.517-.047-.895-.028-1.377-.03-.112 0 .02.048-.087.05-.559.006-1.137.002-1.684-.02-.121-.004-.01-.045-.068-.049-.256-.019-.313.058-.558.041-.052-.003-.023-.038-.033-.042-.147-.06-.276.025-.314.027-.481.026-.789-.063-1.254-.05-.055.001.07.045-.086.047-1.042.012-2.143 0-3.174-.035-.16-.005-.046-.038-.056-.042-.164-.064-.271.021-.323.024-.412.023-.797-.048-1.078.053-1.746-.035-3.484.022-5.216-.069-.022 0 .018-.043-.026-.044-.529-.024-.427.041-.777.12-.089.02-.357-.075-.381-.082-.086-.026.004-.089-.025-.094-.24-.04-.201.167-.524.167-.01 0 .032-.038.005-.042-.084-.012-.168.003-.25-.01-.189-.03-.256-.13-.544-.072-.037.008.019.124-.27.119-.115-.002-.624 0-.766-.008s-.045-.045-.055-.047c-.384-.05-.239-.07-.431-.144s-.139.102-.218.121-.36-.021-.429-.036.017-.038-.044-.046c-.408-.053-.179.087-.314.115-.316.066-.563-.064-.853-.077-.078-.003-.014.026-.084.029-.277.01-.443-.03-.758.007-.052.006-.306.084-.471.027-.023-.008.043-.04-.075-.048a7 7 0 0 0-.683-.007c-.14.008.021.061-.155.045-.079-.008.066-.039-.081-.05-.146-.011-.519-.01-.662-.009-.142.001-.064.042-.075.044-.07.016-.342.035-.366.035-1.215.005-2.334-.063-3.517-.04-.092.001-.031.044-.045.045-.317.018-.067-.096-.289-.134.032.087-.099.071-.322.08-.108.005-.05.039-.059.042-.16.051-.272-.015-.3-.028-.106-.05-.221.009-.293-.024s.093-.082-.121-.081c-.06.03.099.112-.064.125-.615.05-1.762-.014-2.256-.02-.494-.007-.653-.001-.94-.012-.519-.02-.329.04-.652.067s-.166-.12-.212-.152-.096 0-.152-.017c-.057-.017.066-.039-.068-.046-.133-.006-.497.05-.544.084-.099.07.065.144-.288.118-.02-.001.046-.04-.032-.044-.616-.03-1.256-.032-1.871-.059-.085-.003-.009-.047-.058-.05-.513-.027-.33.046-.611.127.063-.108-.092-.174-.481-.174-.234 0-.194.046-.345.08-.046.01-.211-.023-.241 0-.099.072.057.153-.345.12-.017 0 .039-.04-.022-.043-.393-.016-.44.06-.865.07-.334.006-.926-.04-1.306-.047.008-.122-.35-.094-.495-.01-.247-.004-.512.001-.75-.01-.082-.004-.029-.04-.039-.043-.158-.06-.265.022-.318.025-.576.03-1.046-.03-1.595.03-.02.002-.051.086-.198.024-.01-.004.172-.042-.087-.045-.258-.003-.746-.048-1.105-.01-.087.01-.307.078-.483.025-.024-.007.002-.031-.032-.045-.11-.043-.17.042-.298-.03-.13-.072-.397-.126-.76-.076-.01.001-.096.068-.21.067C93.578.513 93.32.5 93.13.5c-.09 0-.033.042-.048.043-.611.023-1.046-.014-1.701-.03-.12-.003-.465.054-.697.009-.255-.05.007-.255-.58-.206-.236.02-.535.28-.96.145-.825.033-1.587-.036-2.413.012-.037.002-.155.075-.242.074-.13-.002-.201-.036-.294-.038-.388-.01-.743.019-1.117.015-.142-.002-.093-.037-.262-.04-.17-.001-.282.045-.512.023-.173-.017-.347-.112-.577-.123-.008.093-.166.091-.447.116-.054.005.004.037-.022.041-.104.017-.2-.01-.299.008-.024.005-.025.037-.044.042-.167.047-.442-.025-.49-.037-.18-.048-.265-.006-.404-.025-.138-.019.069-.042-.093-.053-.335-.024-.767-.019-1.107-.02-.136 0-.044.042-.063.043-.281.01-.566-.034-.721.05-.195-.219-.17.022-.572-.022-.032-.004-.072-.108.05-.123.121-.015.305.017.474-.006.04-.006.269-.103.3-.109.245-.046.28.109.292.118.147.091.426-.013.5-.02.337-.034.623-.012.904-.036.185-.015.203-.116.347-.113.481.01.65.152 1.102.029.097-.026 0-.137.349-.05.022.005.28.085.43.035.018-.007.018-.039.043-.042.165-.017.276.008.457-.004.18-.012.397-.03.603-.02.125.007.284.067.343.082.168.042.348-.027.453.024s-.1.13.175.164c.01-.084.033-.17.05-.255.602.003 1.196.03 1.8.027.076-.001-.001-.046.08-.048.339-.007.635.025.987.012.272-.01.57-.058.855-.07.174.096.597.064.904.073.107.003.1.028.177.037.288.03.153-.054.232-.068.34-.057.368.136.768.13.022 0 .28-.102.316-.108.227-.042.038.035.18.043.259.014.439.038.743.008.088-.009.301-.073.473-.023.023.006.01.04.028.042.33.033.339-.073.528-.11.188-.035.48.038.538.06.156.054-.118.023-.127.028-.098.064.114.053.276.059.024.104.25.098.168.005-.009-.01-.135 0-.168-.005.143-.103.392-.116.668-.02.128.045.007.097.398.078.178-.009.11-.08.266-.1.359-.045.824.022 1.194.012.134-.004.003-.044.095-.048.243-.01.458.02.702.004.022-.001-.032-.043.044-.043.576-.005 1.077.022 1.679.022.29 0 .809-.022 1.11-.018.522.008 1.163.068 1.609.053.291-.009.227-.05.351-.078.241-.055.666.043.723.058.002 0-.248.01-.115.031.078.044.112-.03.115-.031.038.01.537.02.637.011.054-.004.023-.043.051-.045a25 25 0 0 1 2.015-.026c.012 0-.006.044.022.046.392.019.643-.034.967-.066s.58-.021.771.054c.244-.01.594.023.796.044.201.02.229-.065.247-.067.553-.054.873-.005 1.446.002.273.004.814-.008 1.109-.017.234-.008.374.012.589 0 .029-.002 0-.04.009-.042.24-.045.124.047.174.064.18.06.291.092.598.064.071-.007.277-.14.406-.148.168-.01.105.038.281.027.015-.001.012-.03.12-.03.504.006 1.054.023 1.577.02.072 0-.02-.047.084-.048a27 27 0 0 1 1.489.018c.116.006.043.038.068.048.155.059.375-.026.411-.028.865-.041 1.527.036 2.409 0 .048-.003.418-.094.582-.016.012.005.175.086.319.03.009-.003-.093-.044.085-.04.177.004.462-.023.706.022.077.015.26.095.49.03.015-.004.37-.148.497-.048.021.016-.001.121.274.067.052-.01-.043-.034.095-.048.212-.023.493.005.753-.042.046-.008.239-.08.394-.025.025.008-.022.043.06.047.39.02.798-.004 1.193.02.14.009.069.066.215.08.146.016.44.03.593.005.153-.026-.014-.117.215-.124.995-.032 1.981.021 2.975.03.147 0 .025-.032.242-.033.801-.002 2.184-.033 2.879.036.557.056-.144.098.282.12.205.01.427-.095.477-.098.484-.034.821.013 1.257-.001.09-.003.001-.046.078-.048.262-.007.537.012.787.008.112-.001.091-.034.194-.032.247.006.466.02.706.05.022.003-.126.044.057.045.296.003.663.033 1.003.002.101-.01.105-.084.322-.033.046.01-.013.1.24.023.043-.013.467-.117.676-.05.055.018.195.091.316.08.017-.002-.049-.042.051-.046.355-.013.727-.009 1.091-.022.097-.003-.048-.044.097-.048.399-.01.896 0 1.286.013.144.005.045.039.055.043.168.06.268-.022.323-.026.348-.029.612.01.932 0 .088-.003.026-.042.043-.046.182-.034.047.036.162.044.323.022.684.019 1.01.014.121-.002-.014-.047.093-.049a37 37 0 0 1 1.924.022c.117.005.043.04.067.048.169.055.415-.02.472-.028.258-.033.359-.002.587-.008 1.113-.029 2.488-.008 3.539.004 1.37.017 2.433.05 3.739.041.083 0 0-.047.071-.048.924-.01 1.834.007 2.76-.006.076-.001-.034-.045.088-.048.25-.007.567-.005.82.01.123.006-.042.044.082.05.289.014.599.017.896.01.126-.003-.064-.048.1-.048 1.119-.005 2.218-.013 3.348.046.078.004.146.095.311.078.012-.026.011-.056.017-.083 1.629-.014 3.241.017 4.874.022.069 0-.05-.048.083-.048.772 0 1.521-.013 2.311.036.078.004.038.09.269.077.04-.003.388-.014.478-.032.012-.003-.051-.043.061-.044.651-.006 1.333.003 1.982.027.105.004-.006.047.068.05.53.022 1.107-.01 1.613.029.339.026.213.099.393.171.026.01.236.012.247.054.027.106-.074.221-.033.334.009.024.29-.002.124.057-.012.004-.215.023-.266.043-.035.014.028.057-.043.074-.071.018-.15-.018-.268.003s-.066.07-.302.075M110.1.319c.187.041.214-.108.012-.072-.009.001-.022.07-.012.072M87.53.343c.243.066.41-.031.238-.082-.172-.05-.313.062-.239.082M85 .391c.285.052.33-.16.025-.117-.018.002-.041.114-.025.117m89.433-.015c.003.002.154.004.157.002.081-.048-.221-.052-.157-.002M82.491.444c.089.028.345-.005.234-.04-.088-.03-.345.004-.234.04m37.34.035c.003.002.111.004.109-.008-.007-.04-.158-.03-.109.008M78.226.446c.63.008 1.012.183.326.163-.125-.003.267-.055.11-.071-.29-.029-.482.081-.778.022-.053-.01.306-.115.343-.114zM110.207.5c.004.002.154.004.157.002.082-.048-.22-.051-.157-.002m15.935.073c.008.004.356.008.367.004.181-.078-.521-.086-.367-.004m-26.018.037c-.163.047-.358.053-.489-.007zM96.848 39.995c-.548.013-1.266-.001-1.812-.02-.17-.006-.084-.032-.202-.038-.231-.01-.447.003-.675-.01-.075-.004.019-.046-.06-.049-.435-.019-.846-.008-1.287-.017-2.168-.044-4.3-.06-6.495-.079-.724-.006-1.604-.044-2.352-.027-.087.002-.035.038-.052.041-.26.047-.173-.027-.344-.037a27 27 0 0 0-2.075-.029c-.276.007.001.08-.277.039-.02-.003.05-.042-.025-.046-.172-.01-.498-.003-.631-.006-.257-.006-.3-.006-.542-.006-.332-.001-.727-.02-1.083-.012-.076.002.025.043-.097.05a6 6 0 0 1-.55-.007c-.108-.01-.062-.04-.081-.048-.158-.06-.53.024-.577.026-.871.035-1.618-.013-2.436-.013-.62 0-1.284.016-1.875.014-.703-.003-1.3-.024-1.983-.02-.073 0 .012.047-.076.047-.936.006-1.866 0-2.798-.031-.094-.003.027-.045-.066-.05-.572-.034-1.477-.116-1.817.064-.387-.007-.857-.014-1.204-.05-.223-.024-.006-.069-.28-.05-.062.005.018.044-.075.047-.39.015-.818.002-1.204.023-.079.004-.057.04-.08.045-.187.052-.499-.033-.567-.04-.517-.046-.895-.028-1.377-.029-.112 0 .02.048-.087.05-.559.006-1.137.002-1.684-.02-.121-.004-.01-.045-.068-.049-.256-.019-.313.058-.558.041-.052-.003-.023-.038-.032-.042-.148-.06-.277.025-.315.027-.481.026-.789-.063-1.254-.05-.055.001.07.045-.086.047-1.042.012-2.143 0-3.174-.035-.16-.005-.046-.038-.056-.042-.164-.064-.27.021-.323.024-.412.023-.797-.048-1.078.053-1.746-.035-3.484.022-5.216-.069-.022 0 .018-.043-.026-.044-.529-.024-.427.041-.777.12-.088.02-.357-.075-.38-.082-.087-.026.003-.089-.026-.094-.24-.04-.2.167-.524.167-.01 0 .032-.038.005-.042-.084-.012-.167.003-.25-.01-.189-.03-.256-.13-.544-.072-.037.008.02.124-.27.119-.114-.002-.624 0-.766-.008s-.045-.045-.055-.047c-.384-.05-.239-.07-.431-.144s-.139.102-.217.121c-.079.02-.36-.021-.43-.036-.069-.014.017-.038-.044-.046-.408-.053-.18.087-.314.115-.316.066-.563-.064-.853-.077-.078-.003-.014.026-.084.029-.277.01-.443-.03-.758.007-.052.006-.306.084-.47.027-.024-.008.042-.04-.076-.048a7 7 0 0 0-.683-.007c-.14.008.02.061-.155.045-.078-.008.066-.039-.08-.05a12 12 0 0 0-.663-.009c-.142.001-.064.042-.075.044-.07.016-.342.035-.366.035-1.214.005-2.334-.063-3.517-.04-.092.001-.03.044-.045.045-.317.018-.067-.096-.289-.134.032.087-.099.071-.322.08-.108.005-.05.039-.06.042-.16.051-.27-.015-.3-.028-.105-.05-.22.009-.292-.024s.093-.082-.121-.081c-.06.03.099.112-.064.125-.615.05-1.762-.014-2.256-.02-.493-.007-.653-.001-.94-.013-.52-.02-.33.04-.652.068-.323.027-.166-.12-.212-.152s-.096 0-.152-.017c-.057-.017.066-.039-.067-.045-.133-.007-.497.05-.545.083-.1.07.065.144-.288.118-.02-.001.046-.04-.032-.044-.616-.03-1.256-.032-1.871-.059-.085-.003-.009-.047-.058-.05-.513-.027-.33.046-.61.127.062-.108-.093-.174-.482-.174-.234 0-.194.046-.345.08-.046.01-.211-.023-.241 0-.1.072.057.153-.345.12-.017 0 .039-.04-.022-.043-.393-.016-.44.06-.865.07-.333.006-.926-.04-1.305-.047.008-.122-.35-.094-.496-.01-.246-.004-.512.001-.75-.01-.082-.004-.028-.04-.039-.043-.158-.06-.265.022-.318.025-.576.03-1.046-.03-1.595.03-.02.002-.051.086-.198.024-.01-.004.172-.042-.087-.045-.258-.003-.746-.048-1.105-.01-.087.01-.307.078-.483.025-.024-.007.002-.031-.032-.045-.11-.043-.17.043-.298-.03-.129-.072-.397-.126-.76-.077-.01.002-.096.07-.21.068-.182-.001-.44-.015-.63-.015-.09 0-.033.042-.048.043-.611.023-1.046-.014-1.7-.03-.12-.003-.466.054-.698.009-.255-.05.007-.255-.58-.206-.236.02-.535.28-.96.145-.824.033-1.587-.036-2.413.012-.037.002-.155.075-.242.074-.13-.002-.201-.036-.294-.038-.388-.01-.743.019-1.117.014-.142-.001-.093-.036-.262-.038-.17-.002-.282.044-.512.022-.173-.017-.346-.112-.577-.123-.008.093-.166.091-.447.116-.054.005.004.037-.022.041-.104.017-.2-.01-.299.008-.024.005-.025.037-.044.042-.167.047-.442-.025-.49-.037-.18-.048-.265-.006-.404-.025-.138-.019.069-.042-.093-.053-.335-.024-.767-.019-1.107-.02-.136 0-.044.042-.063.043-.281.01-.565-.034-.721.05-.195-.219-.17.022-.572-.022-.031-.004-.072-.108.05-.123.121-.015.306.017.474-.006.04-.006.269-.103.3-.109.245-.046.28.109.292.118.147.092.426-.013.5-.02.337-.034.623-.012.905-.036.184-.015.202-.116.346-.113.481.01.65.152 1.102.029.097-.026 0-.137.35-.05.02.005.28.085.429.035.019-.007.018-.039.043-.042.165-.017.276.008.457-.004.18-.012.397-.03.603-.02.125.007.284.067.344.082.168.042.348-.027.452.024s-.1.13.175.164c.01-.084.033-.17.05-.255.603.003 1.196.03 1.8.026.076 0 0-.045.08-.047.339-.007.635.025.987.012.272-.01.57-.058.856-.07.173.096.596.064.903.073.107.003.1.028.177.037.288.03.153-.054.232-.068.34-.057.368.136.768.13.022 0 .28-.102.316-.108.227-.042.038.035.18.043.259.014.439.038.743.008.088-.009.301-.072.473-.023.023.006.01.04.028.042.33.033.34-.073.528-.11.188-.035.48.038.539.06.155.054-.12.023-.128.028-.098.064.114.053.276.059.024.104.25.098.169.005-.01-.01-.136 0-.169-.005.143-.103.392-.116.668-.02.129.045.007.097.398.078.178-.009.11-.08.266-.1.359-.045.825.022 1.194.011.134-.003.003-.043.095-.047.243-.01.458.02.702.004.022-.001-.032-.043.044-.043.576-.005 1.077.022 1.679.022.29 0 .81-.022 1.11-.018.522.008 1.164.068 1.61.053.29-.009.226-.05.35-.078.24-.055.666.043.723.058.002 0-.248.01-.114.031.077.044.112-.03.114-.031.038.01.538.02.637.011.054-.004.023-.043.052-.045a25 25 0 0 1 2.014-.026c.012 0-.006.044.022.046.392.019.643-.035.967-.066.323-.032.58-.021.771.054.244-.01.595.023.796.044s.23-.065.247-.067c.553-.054.873-.005 1.446.002.273.004.814-.008 1.11-.017.233-.008.373.012.588 0 .03-.003 0-.04.009-.042.24-.045.125.047.174.064.18.06.29.092.598.064.07-.007.277-.14.407-.148.167-.01.104.038.28.027.015-.001.012-.03.12-.03.504.006 1.054.023 1.578.02.071 0-.02-.047.083-.048a27 27 0 0 1 1.489.018c.116.006.043.038.068.048.155.059.375-.027.411-.028.866-.041 1.528.036 2.41 0 .047-.003.417-.094.581-.016.012.005.175.086.32.03.008-.003-.094-.044.084-.04.177.004.462-.023.706.022.077.014.26.095.49.03.015-.004.37-.148.497-.048.02.016 0 .121.274.067.052-.01-.043-.034.095-.048.212-.023.493.005.754-.042.045-.008.238-.08.393-.025.025.008-.022.043.06.047.39.02.798-.004 1.193.02.14.009.069.066.215.08.146.016.44.03.593.005.153-.026-.014-.117.215-.124.995-.032 1.981.021 2.975.03.148 0 .025-.032.243-.033.8-.002 2.183-.033 2.878.036.557.056-.144.098.282.12.205.01.428-.095.477-.098.484-.034.82.013 1.257-.001.09-.003.001-.046.078-.048.262-.007.537.012.787.008.112-.002.091-.034.194-.032.247.006.466.02.706.05.022.003-.126.044.057.045.296.003.663.033 1.003.002.101-.01.105-.084.322-.033.046.01-.013.1.24.023.043-.013.467-.117.676-.05.055.018.195.091.317.08.016-.002-.05-.042.05-.046.355-.013.727-.009 1.09-.022.098-.003-.047-.044.098-.048.399-.01.897 0 1.286.013.144.005.045.039.055.043.168.06.268-.022.324-.026.347-.029.611.01.93 0 .09-.003.027-.042.044-.046.182-.034.047.036.162.044.323.022.684.019 1.01.014.12-.002-.014-.047.093-.049.638-.008 1.301-.003 1.924.022.117.005.043.04.067.048.169.056.415-.02.472-.028.258-.033.359-.002.587-.008 1.113-.029 2.488-.008 3.54.004 1.37.017 2.432.05 3.738.041.083 0 0-.047.071-.048.924-.01 1.834.007 2.76-.006.076-.001-.034-.045.088-.048.25-.007.567-.005.82.01.123.006-.042.044.082.05.29.014.6.017.896.01.126-.003-.064-.048.1-.048 1.119-.005 2.218-.013 3.348.046.078.004.146.095.31.078.013-.026.012-.056.018-.083 1.629-.014 3.24.017 4.874.022.07 0-.05-.048.083-.048.772 0 1.522-.013 2.31.036.08.004.039.09.27.077.04-.003.388-.014.478-.033.012-.002-.051-.042.06-.043.652-.006 1.334.003 1.984.027.104.004-.007.047.067.05.53.022 1.107-.01 1.613.029.339.026.213.099.394.171.025.01.235.012.246.054.028.106-.074.221-.032.334.008.024.29-.002.123.057-.012.004-.215.023-.266.043-.034.014.029.057-.043.074-.071.018-.15-.018-.268.003s-.066.07-.302.075m-64.627-.676c.187.041.214-.108.012-.073-.01.002-.021.071-.012.073m-22.57.024c.243.066.41-.031.238-.082-.172-.05-.313.062-.239.082m-2.53.048c.286.052.33-.16.025-.117-.018.002-.041.114-.024.117m89.433-.015c.003.002.154.004.157.002.08-.048-.221-.052-.157-.002m-91.942.068c.089.028.345-.005.235-.04-.09-.03-.346.004-.235.04m37.34.035c.003.002.111.004.11-.008-.008-.04-.159-.03-.11.008M.347 39.446c.63.008 1.012.183.326.163-.125-.003.268-.055.11-.071-.29-.029-.482.081-.778.022-.053-.01.306-.115.343-.114zm31.981.053c.004.002.154.004.157.002.082-.047-.22-.051-.157-.002m15.935.072c.008.005.356.009.367.005.181-.078-.521-.086-.367-.005m-26.017.038c-.164.047-.36.053-.49-.007zM211.069 166.995a34 34 0 0 1-1.812-.02c-.171-.006-.085-.033-.203-.038-.231-.01-.446.003-.674-.009-.076-.005.018-.047-.061-.05-.434-.019-.846-.008-1.286-.017-2.169-.044-4.3-.06-6.496-.079-.724-.006-1.603-.044-2.351-.027-.087.002-.035.038-.052.041-.26.047-.174-.027-.344-.037a27 27 0 0 0-2.075-.029c-.276.007.001.08-.277.039-.02-.003.05-.042-.025-.046-.172-.01-.498-.003-.631-.006-.257-.006-.3-.006-.542-.006-.332-.001-.727-.02-1.083-.012-.076.002.024.043-.097.049a6 6 0 0 1-.55-.006c-.109-.009-.063-.041-.082-.048-.157-.061-.529.024-.576.026-.871.035-1.618-.013-2.436-.013-.621 0-1.285.016-1.875.014-.704-.003-1.3-.024-1.984-.021-.072.001.013.048-.076.048-.936.006-1.865.001-2.797-.031-.094-.003.027-.045-.067-.05-.572-.034-1.476-.116-1.816.064-.387-.007-.857-.014-1.204-.051-.223-.023-.006-.068-.281-.049-.062.005.019.044-.074.047-.391.015-.818.002-1.204.022-.079.005-.058.04-.08.047-.187.051-.499-.034-.567-.04-.517-.047-.895-.028-1.377-.03-.112 0 .02.048-.088.049a34 34 0 0 1-1.683-.018c-.122-.005-.01-.046-.068-.05-.256-.019-.313.058-.559.041-.051-.003-.022-.038-.032-.042-.148-.059-.276.025-.314.027-.481.026-.789-.063-1.254-.05-.055.001.07.045-.086.047-1.042.012-2.143 0-3.174-.035-.16-.005-.046-.038-.056-.042-.165-.064-.271.021-.323.024-.412.023-.798-.048-1.078.053-1.746-.035-3.484.022-5.216-.069-.022-.001.018-.043-.026-.044-.529-.024-.428.041-.778.121-.088.02-.356-.076-.38-.083-.086-.026.003-.089-.025-.094-.24-.039-.201.167-.524.167-.01 0 .032-.038.005-.042-.084-.012-.168.003-.25-.01-.189-.03-.256-.13-.544-.072-.037.008.019.124-.27.119-.115-.002-.624 0-.767-.008-.142-.008-.044-.045-.054-.047-.384-.05-.239-.07-.431-.144-.193-.074-.139.102-.218.121s-.36-.021-.429-.036.017-.038-.044-.046c-.408-.053-.179.087-.314.115-.317.066-.563-.064-.853-.077-.079-.003-.015.026-.084.029-.277.011-.444-.03-.758.007-.052.006-.306.084-.471.027-.023-.008.043-.041-.075-.048a7 7 0 0 0-.683-.007c-.14.008.02.061-.156.045-.078-.008.067-.039-.08-.05-.146-.011-.52-.01-.662-.009s-.064.042-.076.044a4 4 0 0 1-.366.035c-1.214.005-2.334-.063-3.516-.04-.093.001-.031.044-.045.045-.318.018-.067-.096-.289-.134.032.087-.099.071-.323.081-.107.004-.049.038-.059.041-.159.051-.271-.015-.299-.028-.106-.05-.222.009-.294-.024s.094-.082-.12-.081c-.061.031.099.112-.064.125-.615.05-1.762-.014-2.257-.02-.493-.007-.652-.001-.94-.012-.519-.021-.328.039-.651.067-.323.027-.166-.121-.212-.152-.046-.032-.096.001-.153-.017-.056-.017.066-.039-.067-.046s-.497.05-.544.084c-.1.07.064.144-.288.118-.02-.001.046-.04-.032-.044-.616-.03-1.256-.032-1.871-.059-.085-.003-.009-.047-.058-.049-.513-.028-.33.045-.611.126.063-.108-.092-.174-.482-.174-.234-.001-.193.046-.345.08-.045.01-.211-.023-.241-.001-.099.073.057.154-.344.122-.018-.002.039-.042-.022-.044-.394-.016-.441.06-.866.069-.333.007-.925-.039-1.305-.046.008-.122-.35-.094-.495-.01-.247-.004-.513.001-.751-.01-.081-.004-.028-.039-.038-.043-.158-.06-.265.022-.319.025-.576.031-1.045-.031-1.594.029-.02.003-.052.087-.199.025-.009-.004.172-.042-.086-.045-.259-.003-.746-.048-1.105-.009-.087.009-.307.077-.483.024-.024-.007.002-.031-.032-.045-.11-.043-.17.042-.298-.03-.129-.072-.397-.126-.759-.076-.012.001-.098.068-.212.067-.181-.001-.439-.015-.629-.015-.091 0-.033.042-.049.043-.611.023-1.046-.014-1.7-.03-.12-.003-.465.054-.697.009-.255-.05.007-.255-.58-.206-.236.019-.536.28-.96.145-.825.033-1.587-.036-2.413.012-.038.002-.155.075-.242.074-.13-.002-.201-.036-.294-.038-.388-.01-.743.019-1.118.015-.142-.002-.092-.037-.261-.039-.17-.002-.283.044-.512.022-.173-.017-.347-.112-.577-.123-.009.093-.167.091-.447.116-.054.005.003.037-.022.041-.104.017-.2-.01-.299.008-.024.005-.025.037-.045.042-.166.047-.441-.025-.489-.037-.181-.048-.265-.006-.404-.025-.138-.019.069-.042-.093-.053-.336-.024-.767-.019-1.108-.02-.136 0-.043.042-.062.043-.281.011-.566-.034-.722.05-.195-.219-.169.022-.571-.022-.032-.004-.072-.108.05-.123.121-.015.305.017.474-.006.04-.006.269-.103.3-.109.244-.046.279.109.292.118.147.091.426-.013.5-.021.336-.033.623-.011.904-.035.184-.015.203-.116.347-.113.481.01.649.152 1.102.029.097-.026.001-.137.349-.05.022.005.28.085.429.035.019-.007.019-.039.043-.042.166-.017.277.008.457-.004.181-.012.398-.031.604-.02.124.007.284.067.343.082.168.042.348-.027.452.024s-.1.131.175.164c.011-.084.034-.17.05-.255.603.003 1.197.03 1.802.027.075-.001-.002-.046.078-.048.339-.007.636.025.988.012.272-.01.57-.058.855-.07.174.096.597.064.904.073.107.003.1.028.176.037.289.031.154-.054.233-.068.339-.057.368.136.768.131.021 0 .28-.103.316-.109.227-.042.038.035.18.043.259.014.439.038.743.008.088-.009.301-.073.473-.023.023.006.01.04.028.042.33.033.339-.073.527-.109.189-.036.48.037.539.058.155.055-.119.024-.127.029-.099.064.114.053.276.059.024.104.251.098.168.005-.009-.01-.135-.001-.168-.005.143-.103.392-.116.667-.02.129.045.007.097.399.078.178-.009.109-.081.266-.1.358-.045.824.022 1.194.012.134-.004.003-.044.095-.048.243-.01.458.019.702.004.022-.001-.032-.043.044-.043.576-.005 1.077.022 1.678.022.291.001.81-.022 1.111-.018.522.008 1.163.068 1.609.053.29-.009.227-.05.351-.078.241-.055.666.043.723.058.002.001-.248.01-.115.031.078.044.112-.031.115-.031.038.01.537.019.636.011.054-.004.024-.043.052-.045a26 26 0 0 1 2.015-.026c.012.001-.006.044.022.046.392.019.643-.034.967-.066s.58-.021.771.054c.244-.01.594.023.796.044.201.02.229-.065.247-.067.553-.054.872-.005 1.446.002.273.004.814-.008 1.109-.017.233-.008.374.012.589-.001.029-.001 0-.039.009-.041.24-.045.124.047.174.064.179.06.29.092.598.064.071-.007.277-.14.406-.148.168-.01.105.038.281.027.015-.001.012-.031.12-.03.504.006 1.054.023 1.577.02.072 0-.02-.047.083-.048a27 27 0 0 1 1.489.018c.117.006.044.038.069.048.155.059.375-.026.411-.028.865-.041 1.527.036 2.409-.001.048-.002.417-.093.582-.015.011.005.175.086.319.031.009-.004-.093-.045.084-.041.178.004.463-.023.707.022.077.015.259.095.49.031.015-.005.37-.149.497-.049.02.016-.001.121.274.067.052-.01-.043-.034.095-.048.212-.023.493.005.753-.042.046-.008.239-.08.394-.025.024.008-.022.043.06.047.39.019.798-.004 1.193.02.14.009.068.066.214.081.147.015.441.03.594.004s-.015-.117.214-.124c.996-.032 1.982.021 2.976.029.147.001.025-.031.242-.032.801-.002 2.184-.033 2.879.036.557.056-.144.098.282.12.205.011.427-.095.477-.098.484-.034.821.013 1.256-.001.09-.003.002-.046.079-.048.261-.007.536.012.786.008.113-.001.092-.034.195-.032.247.006.465.02.706.05.022.003-.126.044.057.045.296.003.663.033 1.003.002.101-.01.105-.084.322-.033.045.011-.013.101.24.023.043-.013.467-.117.676-.05.054.018.195.091.316.08.017-.002-.049-.042.051-.046.355-.013.726-.009 1.091-.022.097-.003-.048-.044.097-.048.399-.011.896 0 1.286.013.144.005.044.039.055.043.168.061.267-.022.323-.026.347-.029.612.01.932-.001.088-.002.025-.041.043-.045.182-.034.046.036.162.044.323.022.683.019 1.01.014.12-.002-.015-.047.093-.049a38 38 0 0 1 1.923.022c.117.005.044.04.068.048.169.055.415-.021.472-.028.258-.033.358-.002.586-.008 1.114-.029 2.489-.008 3.54.004 1.37.017 2.433.05 3.739.041.083 0-.001-.047.071-.048.924-.011 1.834.007 2.759-.006.076-.001-.033-.045.089-.048.25-.007.567-.005.82.009.123.007-.042.045.082.051.289.014.599.017.896.01.126-.003-.065-.048.1-.048 1.119-.005 2.217-.013 3.348.046.078.004.146.095.31.078.013-.026.012-.056.018-.083 1.628-.014 3.241.017 4.874.022.069 0-.05-.048.083-.048.772.001 1.521-.013 2.31.036.079.004.039.09.269.077.041-.003.389-.014.479-.032.012-.003-.052-.043.06-.044a44 44 0 0 1 1.983.027c.105.004-.007.047.068.05.53.022 1.106-.01 1.613.029.339.026.213.099.393.171.026.01.235.012.246.054.028.106-.073.221-.032.334.009.024.29-.002.124.057-.012.004-.216.023-.266.043-.035.014.028.057-.043.074-.071.018-.15-.018-.268.003s-.066.069-.302.075m-64.627-.676c.186.041.214-.108.012-.072-.01.001-.022.07-.012.072m-22.571.024c.244.066.411-.031.239-.082s-.313.062-.239.082m-2.529.048c.285.052.33-.16.025-.117-.018.002-.041.114-.025.117m89.433-.015c.003.002.153.004.157.002.08-.048-.221-.052-.157-.002m-91.942.068c.089.028.345-.005.234-.04-.089-.029-.345.004-.234.04m37.34.035c.003.002.111.004.109-.008-.007-.041-.158-.029-.109.008m-41.606-.033c.631.008 1.013.183.326.163-.124-.003.268-.055.11-.071-.289-.029-.482.081-.777.022-.053-.011.305-.115.343-.114zm31.982.053c.004.002.154.004.157.002.081-.048-.22-.051-.157-.002m15.935.073c.008.004.355.008.367.004.181-.078-.521-.086-.367-.004m-26.018.037c-.163.047-.359.053-.489-.007zM141.844 83.995c-.548.013-1.266-.001-1.812-.02-.171-.006-.084-.032-.202-.038-.231-.01-.446.003-.675-.01-.075-.004.019-.046-.06-.049-.435-.019-.846-.008-1.287-.017-2.168-.044-4.3-.06-6.495-.079-.724-.006-1.604-.044-2.352-.027-.087.002-.035.038-.052.041-.26.047-.173-.028-.343-.037a27 27 0 0 0-2.075-.028c-.277.006 0 .079-.278.038-.019-.003.051-.042-.025-.046-.172-.01-.498-.003-.631-.006-.257-.006-.299-.006-.542-.006-.332-.001-.727-.02-1.083-.012-.076.002.025.043-.096.05a6 6 0 0 1-.551-.007c-.108-.01-.062-.04-.081-.048-.158-.06-.529.024-.577.026-.871.035-1.618-.013-2.436-.013-.62 0-1.284.016-1.875.014-.703-.003-1.3-.024-1.983-.02-.073 0 .012.047-.076.048-.936.005-1.866 0-2.798-.032-.093-.003.027-.045-.066-.05-.572-.034-1.477-.116-1.817.064-.387-.007-.857-.014-1.204-.05-.223-.024-.006-.069-.28-.05-.062.004.018.044-.075.047-.39.015-.817.002-1.204.023-.079.004-.057.04-.08.046-.187.051-.499-.034-.566-.04-.518-.047-.896-.028-1.378-.03-.112 0 .02.048-.087.05-.559.006-1.137.002-1.684-.02-.121-.004-.009-.045-.067-.049-.257-.019-.314.058-.559.041-.052-.003-.023-.038-.032-.042-.148-.06-.277.025-.315.027-.481.026-.789-.063-1.253-.05-.056.001.069.045-.087.047-1.041.012-2.143 0-3.174-.035-.16-.005-.046-.038-.056-.042-.164-.064-.27.021-.323.024-.412.023-.797-.048-1.077.053-1.747-.035-3.485.022-5.216-.069-.022 0 .017-.042-.027-.044-.529-.024-.427.041-.777.12-.088.02-.357-.075-.38-.082-.087-.026.003-.089-.026-.094-.24-.04-.2.167-.524.167-.01 0 .033-.038.005-.042-.084-.012-.167.003-.25-.01-.188-.03-.256-.13-.544-.072-.037.007.02.124-.27.119-.114-.002-.624 0-.766-.008-.143-.007-.045-.045-.055-.047-.384-.05-.239-.07-.43-.144-.193-.073-.14.102-.218.121-.079.02-.36-.021-.43-.036-.069-.014.017-.038-.044-.046-.408-.053-.179.087-.313.115-.317.066-.564-.064-.854-.077-.078-.003-.014.026-.084.029-.277.01-.443-.03-.758.007-.052.006-.306.084-.47.027-.024-.008.042-.04-.076-.048a7 7 0 0 0-.683-.007c-.14.008.02.061-.155.045-.078-.008.066-.039-.08-.05a12 12 0 0 0-.663-.009c-.141.001-.064.042-.075.044-.07.016-.342.035-.366.035-1.214.005-2.334-.063-3.516-.04-.093.001-.031.044-.046.045-.317.018-.067-.096-.289-.134.033.087-.098.071-.322.08-.108.005-.05.039-.06.042-.16.051-.27-.015-.3-.028-.105-.05-.22.009-.292-.024s.093-.082-.121-.081c-.06.03.099.112-.064.125-.615.05-1.762-.014-2.256-.02-.493-.007-.653-.001-.94-.013-.52-.02-.329.04-.651.068-.324.027-.166-.12-.213-.152s-.095 0-.152-.017.066-.039-.067-.046-.497.05-.544.084c-.1.07.064.144-.288.118-.02-.001.045-.04-.033-.044-.616-.03-1.256-.032-1.87-.058-.086-.004-.01-.047-.06-.05-.512-.028-.329.045-.61.126.063-.108-.092-.174-.481-.174-.234 0-.194.046-.345.08-.046.01-.211-.023-.241 0-.1.072.057.153-.344.12-.018 0 .038-.04-.023-.043-.393-.016-.44.06-.865.07-.333.006-.926-.04-1.305-.047.008-.121-.35-.094-.496-.01-.246-.004-.512.001-.75-.01-.082-.004-.028-.04-.039-.043-.158-.06-.265.022-.318.025-.576.03-1.045-.03-1.595.03-.02.002-.051.086-.198.024-.01-.004.172-.042-.087-.045-.258-.003-.746-.048-1.105-.01-.087.01-.307.078-.483.025-.023-.007.002-.031-.032-.045-.11-.043-.17.043-.298-.03-.129-.072-.397-.126-.76-.076-.01.001-.096.069-.21.067-.182-.001-.44-.015-.63-.015-.09 0-.033.042-.048.043-.611.023-1.046-.014-1.7-.03-.12-.003-.466.054-.698.009-.255-.05.007-.255-.58-.206-.236.02-.535.28-.96.145-.824.034-1.587-.036-2.413.012-.037.002-.155.075-.242.074-.13-.002-.201-.036-.294-.038-.388-.01-.743.019-1.117.014-.142-.001-.093-.036-.262-.038-.17-.002-.282.044-.512.022-.173-.017-.346-.112-.576-.123-.01.093-.167.091-.448.116-.054.005.004.037-.022.041-.104.017-.2-.01-.298.008-.024.005-.026.037-.045.042-.167.047-.442-.025-.49-.037-.18-.048-.265-.006-.404-.025-.138-.019.07-.042-.093-.053-.335-.024-.766-.019-1.107-.02-.136 0-.043.042-.063.043-.281.01-.565-.034-.721.05-.195-.219-.17.022-.572-.022-.031-.004-.072-.108.05-.123.121-.015.306.017.474-.006.04-.006.269-.103.3-.109.245-.046.28.109.292.118.147.091.426-.013.5-.02.337-.034.623-.012.905-.036.184-.015.202-.116.346-.113.481.01.65.152 1.102.029.097-.026.001-.137.35-.05.021.005.28.085.429.035.019-.007.018-.039.043-.042.166-.017.276.008.457-.004.18-.012.397-.03.604-.02.124.007.283.067.343.082.168.043.348-.027.452.024s-.1.13.175.164c.01-.084.033-.17.05-.255.603.003 1.196.03 1.8.026.076 0 0-.045.08-.047.339-.007.635.025.987.012.272-.01.57-.058.856-.07.173.097.596.064.903.073.108.003.1.028.177.037.288.03.153-.054.232-.068.34-.057.369.136.769.13.02 0 .28-.102.316-.108.226-.042.037.035.179.043.259.014.439.038.743.008.089-.009.301-.073.473-.023.023.006.01.04.029.042.33.033.338-.073.527-.11.188-.035.48.038.539.06.155.054-.12.023-.127.028-.1.064.113.053.276.059.023.104.25.098.168.005-.01-.01-.136 0-.169-.005.143-.103.392-.116.668-.02.129.045.007.097.398.078.178-.009.11-.08.267-.1.358-.045.824.022 1.193.011.134-.003.004-.043.095-.047.243-.01.458.02.702.004.022-.001-.032-.043.044-.043.576-.005 1.078.022 1.679.022.29 0 .81-.022 1.11-.018.522.008 1.164.068 1.61.053.29-.009.226-.05.35-.078.24-.055.666.043.724.058.001 0-.249.01-.115.031.077.044.112-.03.115-.031.037.01.537.02.636.011.054-.004.024-.043.052-.045a25 25 0 0 1 2.014-.026c.012 0-.006.044.022.046.392.019.644-.034.967-.066.324-.032.58-.021.771.054.245-.01.595.023.796.043s.23-.064.247-.066c.553-.054.873-.005 1.447.002.272.004.813-.008 1.108-.018.234-.007.374.013.59 0 .028-.002 0-.04.008-.04.24-.046.125.046.174.063.18.06.29.092.598.064.07-.007.277-.14.407-.148.168-.01.104.038.28.027.015-.001.012-.03.12-.03.504.006 1.054.023 1.578.02.071 0-.02-.047.083-.048a27 27 0 0 1 1.489.018c.116.006.043.038.069.048.154.059.374-.026.41-.028.866-.041 1.528.036 2.41 0 .047-.003.417-.094.582-.016.01.005.174.086.318.03.01-.003-.093-.044.085-.04.177.004.462-.023.706.022.077.014.26.095.49.03.015-.004.37-.148.497-.049.02.017 0 .122.274.068.052-.01-.043-.034.096-.048.211-.023.492.005.753-.042.045-.008.238-.08.393-.025.025.008-.021.043.06.047.39.02.798-.004 1.193.02.14.009.069.066.215.08.146.016.44.03.593.005.153-.026-.014-.117.215-.124.995-.032 1.981.021 2.975.03.148 0 .025-.032.243-.033.8-.002 2.183-.033 2.878.036.557.056-.143.098.282.12.205.01.428-.094.477-.098.484-.034.821.013 1.257-.001.09-.003.002-.046.078-.048.262-.007.537.012.787.008.112-.001.091-.034.194-.032.247.006.466.02.707.05.022.003-.126.044.056.045.296.003.663.033 1.003.002.101-.01.105-.084.322-.033.046.01-.012.1.24.023.043-.013.468-.117.676-.05.055.018.195.091.317.08.016-.002-.05-.042.051-.046.354-.013.726-.009 1.09-.022.097-.003-.048-.044.097-.048.399-.01.897 0 1.286.013.144.005.045.039.055.043.168.06.268-.022.324-.026.347-.029.611.01.931 0 .088-.003.026-.042.043-.046.183-.034.047.036.162.044.323.022.684.019 1.011.014.12-.002-.015-.047.092-.049a37 37 0 0 1 1.924.022c.117.005.043.04.068.048.168.056.415-.02.471-.028.259-.033.359-.002.587-.008 1.113-.029 2.488-.008 3.54.004 1.369.017 2.432.05 3.739.041.083 0-.001-.047.07-.048.924-.01 1.834.007 2.76-.006.076-.001-.034-.045.088-.048a11 11 0 0 1 .82.01c.123.006-.042.044.082.05.289.014.599.017.896.01.126-.003-.064-.048.1-.048 1.119-.005 2.218-.013 3.348.046.078.004.146.095.311.078.012-.026.012-.056.017-.083 1.629-.014 3.241.017 4.874.022.069 0-.05-.048.084-.048.771 0 1.521-.013 2.31.036.078.004.038.09.269.077.041-.003.388-.014.478-.032.012-.003-.051-.043.061-.044.651-.006 1.333.003 1.983.027.105.004-.007.047.068.05.529.022 1.106-.01 1.612.029.339.026.213.099.394.171.025.01.235.012.246.054.028.106-.074.221-.032.334.008.024.29-.002.123.057-.012.004-.215.023-.265.043-.035.014.028.057-.044.074-.071.018-.149-.018-.268.003-.118.02-.066.07-.302.075m-64.627-.676c.187.041.214-.108.013-.073-.01.002-.022.071-.013.073m-22.57.024c.243.066.41-.031.238-.082-.172-.05-.313.062-.238.082m-2.53.048c.286.052.33-.16.025-.117-.018.002-.041.114-.024.117m89.433-.015c.003.002.154.004.157.002.081-.048-.221-.052-.157-.002m-91.942.068c.09.028.345-.005.235-.04-.09-.03-.346.004-.235.04m37.34.035c.003.002.112.004.11-.008-.008-.04-.159-.03-.11.008m-41.605-.033c.63.008 1.012.183.326.163-.124-.003.268-.055.11-.071-.29-.029-.482.081-.778.022-.053-.01.306-.115.343-.114zm31.982.053c.003.002.153.004.157.002.08-.047-.22-.051-.157-.002m15.934.073c.008.004.356.008.367.004.181-.078-.521-.086-.367-.004m-26.017.037c-.164.047-.36.053-.49-.007z"/></svg>