<svg width="212" height="167" viewBox="0 0 212 167" fill="none" xmlns="http://www.w3.org/2000/svg">
<path d="M174.727 0.994925C174.179 1.00795 173.461 0.994023 172.915 0.974905C172.744 0.968976 172.831 0.942472 172.713 0.937186C172.482 0.92688 172.266 0.939879 172.038 0.927603C171.963 0.923405 172.057 0.881422 171.977 0.877982C171.543 0.859428 171.132 0.870121 170.691 0.861197C168.523 0.817167 166.391 0.801407 164.195 0.782278C163.472 0.776007 162.592 0.737906 161.844 0.754568C161.757 0.756551 161.809 0.793401 161.792 0.796438C161.532 0.842934 161.618 0.768541 161.448 0.758657C160.773 0.719631 160.023 0.716237 159.373 0.730459C159.097 0.736617 159.374 0.809811 159.096 0.768728C159.076 0.765952 159.147 0.72682 159.071 0.722646C158.899 0.713259 158.573 0.720254 158.44 0.717153C158.183 0.71098 158.141 0.711373 157.898 0.710927C157.566 0.709977 157.171 0.690525 156.815 0.699392C156.739 0.701401 156.84 0.741515 156.718 0.748342C156.597 0.755157 156.276 0.751756 156.168 0.742299C156.06 0.732838 156.106 0.701309 156.086 0.694082C155.929 0.633083 155.558 0.717566 155.51 0.719655C154.639 0.755255 153.892 0.707128 153.074 0.707265C152.453 0.707471 151.79 0.723359 151.199 0.721181C150.495 0.71843 149.899 0.696692 149.215 0.700429C149.143 0.700777 149.228 0.747942 149.14 0.748463C148.204 0.753952 147.274 0.74881 146.342 0.716969C146.248 0.713734 146.369 0.672323 146.275 0.666615C145.704 0.632582 144.799 0.550828 144.459 0.731129C144.072 0.724088 143.602 0.716814 143.255 0.68047C143.032 0.657078 143.249 0.611964 142.974 0.631214C142.912 0.635503 142.993 0.675011 142.9 0.678455C142.509 0.692919 142.082 0.680076 141.696 0.700489C141.617 0.704734 141.639 0.740134 141.616 0.746509C141.429 0.798136 141.117 0.712794 141.049 0.706592C140.532 0.660349 140.154 0.678547 139.672 0.677417C139.56 0.677136 139.692 0.724687 139.585 0.726123C139.026 0.732938 138.448 0.728851 137.901 0.707752C137.78 0.702944 137.891 0.662439 137.833 0.658069C137.577 0.639294 137.52 0.715797 137.275 0.699268C137.223 0.695881 137.252 0.661206 137.242 0.657398C137.095 0.597617 136.966 0.682322 136.928 0.684192C136.447 0.709745 136.139 0.621317 135.674 0.633838C135.619 0.635425 135.744 0.6793 135.588 0.681079C134.546 0.693191 133.445 0.681138 132.414 0.646045C132.254 0.640648 132.368 0.607688 132.358 0.603625C132.194 0.540142 132.087 0.625202 132.035 0.628406C131.623 0.651465 131.238 0.580131 130.957 0.681445C129.211 0.646286 127.473 0.703178 125.741 0.612414C125.719 0.611362 125.759 0.56947 125.715 0.567553C125.186 0.544031 125.288 0.609139 124.938 0.688768C124.849 0.708764 124.581 0.612625 124.557 0.605578C124.471 0.579609 124.561 0.517285 124.532 0.512255C124.292 0.472764 124.331 0.678875 124.008 0.678942C123.998 0.678598 124.04 0.640661 124.013 0.636889C123.929 0.625046 123.845 0.640121 123.763 0.627062C123.574 0.596844 123.507 0.496692 123.219 0.55498C123.182 0.562545 123.238 0.67946 122.949 0.673937C122.834 0.671636 122.325 0.67364 122.183 0.666063C122.04 0.658496 122.138 0.62082 122.128 0.619188C121.744 0.569369 121.889 0.548721 121.697 0.474963C121.505 0.401483 121.558 0.576739 121.479 0.5963C121.401 0.615806 121.119 0.574701 121.05 0.560412C120.981 0.546116 121.067 0.522176 121.006 0.514086C120.598 0.461232 120.827 0.601077 120.692 0.628893C120.376 0.694756 120.129 0.564785 119.839 0.55205C119.761 0.54861 119.825 0.578212 119.755 0.58098C119.478 0.591552 119.312 0.550998 118.997 0.588182C118.945 0.594242 118.691 0.672383 118.526 0.615038C118.503 0.606768 118.569 0.57438 118.451 0.567125C118.275 0.556237 117.958 0.549158 117.768 0.559984C117.628 0.567994 117.789 0.621362 117.613 0.604784C117.534 0.597381 117.679 0.56616 117.532 0.554857C117.386 0.543557 117.013 0.544929 116.87 0.546007C116.728 0.547109 116.806 0.587591 116.795 0.590318C116.725 0.605941 116.453 0.625462 116.429 0.625413C115.214 0.630355 114.095 0.562118 112.912 0.584703C112.82 0.586416 112.881 0.629106 112.867 0.629807C112.55 0.647693 112.8 0.534192 112.578 0.496202C112.61 0.582831 112.479 0.567145 112.256 0.576646C112.148 0.581295 112.206 0.614838 112.197 0.618272C112.037 0.66922 111.925 0.603414 111.897 0.589952C111.791 0.540431 111.676 0.598943 111.604 0.565843C111.532 0.53299 111.697 0.484286 111.483 0.48491C111.423 0.515921 111.582 0.596959 111.419 0.610093C110.804 0.659773 109.657 0.59619 109.163 0.589585C108.669 0.582986 108.51 0.588707 108.223 0.5775C107.704 0.557236 107.894 0.617362 107.571 0.644883C107.248 0.6724 107.405 0.524464 107.359 0.492661C107.313 0.460873 107.263 0.493596 107.207 0.476121C107.15 0.45865 107.273 0.437027 107.139 0.430467C107.006 0.423913 106.642 0.480465 106.595 0.513718C106.496 0.584167 106.66 0.658106 106.307 0.632126C106.287 0.630584 106.353 0.591685 106.275 0.587754C105.659 0.557807 105.019 0.555951 104.404 0.529465C104.319 0.525762 104.395 0.482488 104.346 0.479844C103.833 0.452165 104.016 0.52513 103.735 0.606186C103.798 0.498318 103.643 0.432324 103.254 0.431687C103.02 0.431266 103.06 0.478378 102.909 0.511582C102.863 0.521591 102.698 0.489243 102.668 0.511399C102.569 0.583823 102.725 0.664897 102.323 0.632614C102.306 0.63108 102.362 0.591436 102.301 0.589035C101.908 0.57332 101.861 0.649075 101.436 0.658249C101.102 0.665447 100.51 0.619253 100.13 0.61174C100.138 0.490465 99.7801 0.518235 99.6347 0.601852C99.3885 0.598429 99.1226 0.603156 98.8846 0.591598C98.8027 0.587658 98.8565 0.552546 98.8462 0.548752C98.6878 0.489237 98.5808 0.570587 98.5277 0.573776C97.9517 0.604778 97.4824 0.543121 96.9327 0.603378C96.9132 0.605548 96.8816 0.689789 96.7346 0.62828C96.7251 0.62404 96.9067 0.585712 96.6481 0.582748C96.3895 0.579777 95.902 0.534618 95.5429 0.573654C95.456 0.583051 95.2363 0.651438 95.0599 0.598006C95.0364 0.590751 95.0621 0.56659 95.0282 0.553146C94.9185 0.510306 94.8586 0.595453 94.7298 0.523117C94.6009 0.450783 94.3328 0.396611 93.9707 0.446518C93.9592 0.447969 93.8735 0.515456 93.7596 0.514388C93.5778 0.512627 93.3198 0.498568 93.13 0.499008C93.0391 0.499242 93.0973 0.541149 93.0815 0.541915C92.4705 0.565398 92.0356 0.528039 91.381 0.511825C91.261 0.50877 90.9161 0.565915 90.6838 0.520736C90.4287 0.471279 90.6909 0.265545 90.1046 0.31456C89.8681 0.334164 89.5687 0.595175 89.1437 0.459945C88.3195 0.493454 87.5573 0.424244 86.7308 0.47209C86.6936 0.47421 86.5761 0.547056 86.4887 0.546065C86.359 0.544452 86.2878 0.510405 86.1951 0.508162C85.807 0.497907 85.4518 0.527036 85.0776 0.522505C84.9356 0.520859 84.9852 0.485655 84.8158 0.483687C84.6464 0.481752 84.5335 0.52811 84.304 0.505721C84.1307 0.488655 83.9574 0.393902 83.7274 0.382857C83.7186 0.476321 83.5606 0.474395 83.2798 0.499068C83.2258 0.503855 83.2837 0.536385 83.2581 0.540327C83.1542 0.557093 83.058 0.530133 82.9594 0.548384C82.9354 0.552767 82.9342 0.584686 82.9146 0.590071C82.7477 0.637076 82.4728 0.565279 82.4256 0.552778C82.2446 0.505302 82.1601 0.546816 82.0213 0.52812C81.8827 0.509427 82.0899 0.486058 81.928 0.474715C81.5925 0.451251 81.1614 0.456406 80.8206 0.454939C80.6846 0.454551 80.7774 0.497157 80.7579 0.498091C80.4768 0.508897 80.1924 0.463576 80.0365 0.548445C79.8416 0.329006 79.867 0.569729 79.4651 0.525801C79.4334 0.522248 79.3932 0.418477 79.5147 0.403242C79.6362 0.388022 79.8205 0.420459 79.9892 0.396712C80.0291 0.391139 80.2578 0.293899 80.2891 0.288008C80.5335 0.241973 80.5682 0.397045 80.5811 0.405562C80.7278 0.497477 81.0073 0.39272 81.0809 0.385481C81.4177 0.352314 81.7038 0.374122 81.9855 0.350447C82.1697 0.335146 82.1877 0.233569 82.3324 0.236678C82.8132 0.246955 82.9811 0.388656 83.4342 0.265792C83.5313 0.239587 83.4348 0.128566 83.783 0.215865C83.8048 0.221369 84.0633 0.301232 84.2126 0.250716C84.2314 0.244347 84.2308 0.211992 84.2555 0.209274C84.4213 0.191692 84.5319 0.217469 84.7125 0.205123C84.893 0.192778 85.1102 0.174374 85.3164 0.185348C85.4406 0.19191 85.6 0.252193 85.6595 0.266952C85.8275 0.309468 86.0075 0.23976 86.1116 0.291244C86.2165 0.342987 86.0114 0.421568 86.2865 0.455001C86.2967 0.370939 86.3201 0.284658 86.3365 0.200119C86.9395 0.203078 87.5327 0.230261 88.1377 0.226547C88.2127 0.226003 88.136 0.18081 88.2164 0.179062C88.5557 0.171882 88.852 0.204098 89.2038 0.191269C89.4761 0.181165 89.7747 0.133317 90.0594 0.121262C90.2334 0.217452 90.6559 0.184798 90.9628 0.193588C91.0704 0.196626 91.0632 0.222316 91.1396 0.230698C91.4281 0.261695 91.2929 0.176692 91.372 0.163315C91.7113 0.106223 91.7404 0.298623 92.1404 0.293869C92.1616 0.293682 92.4206 0.191125 92.4563 0.184738C92.6831 0.143093 92.4939 0.220435 92.6357 0.228012C92.8948 0.24186 93.0748 0.266352 93.3788 0.236313C93.4674 0.227416 93.68 0.163493 93.8521 0.212937C93.8747 0.219411 93.8622 0.25331 93.8804 0.255295C94.2103 0.288387 94.219 0.181872 94.4075 0.145798C94.596 0.109732 94.8872 0.183261 94.9465 0.204453C95.1015 0.259275 94.8277 0.227882 94.8193 0.233262C94.7207 0.297285 94.933 0.286262 95.0953 0.291672C95.1188 0.396111 95.3457 0.389842 95.2635 0.29686C95.2542 0.286704 95.1279 0.296443 95.0953 0.291672C95.2377 0.189203 95.4871 0.17608 95.7626 0.271836C95.8915 0.316715 95.7697 0.369042 96.1613 0.349899C96.3391 0.341258 96.2704 0.269347 96.4273 0.249741C96.7857 0.205009 97.2514 0.27209 97.6209 0.261521C97.755 0.257684 97.6244 0.21832 97.716 0.214341C97.9592 0.203659 98.1737 0.233194 98.418 0.218064C98.4401 0.216643 98.3861 0.175438 98.462 0.174912C99.0379 0.170127 99.5393 0.19652 100.141 0.197251C100.431 0.197586 100.95 0.17486 101.251 0.179429C101.773 0.187105 102.414 0.247025 102.86 0.232469C103.151 0.223151 103.087 0.181937 103.211 0.153856C103.452 0.0994233 103.877 0.196925 103.934 0.212022C103.936 0.212522 103.686 0.222238 103.819 0.243394C103.897 0.287477 103.931 0.212213 103.934 0.212022C103.972 0.221775 104.471 0.231131 104.571 0.223253C104.625 0.218947 104.594 0.179899 104.622 0.178392C105.29 0.143448 105.96 0.133523 106.637 0.151781C106.649 0.15257 106.631 0.196248 106.659 0.197557C107.051 0.216978 107.302 0.163546 107.626 0.131823C107.949 0.100114 108.206 0.110734 108.397 0.185717C108.641 0.176276 108.991 0.209425 109.193 0.22954C109.394 0.249654 109.422 0.164631 109.44 0.162951C109.993 0.109153 110.313 0.157818 110.886 0.165392C111.159 0.169139 111.7 0.156806 111.995 0.147509C112.229 0.140019 112.369 0.159945 112.584 0.147204C112.613 0.145503 112.584 0.107646 112.593 0.106189C112.833 0.0608956 112.717 0.153442 112.767 0.16997C112.947 0.230076 113.058 0.262088 113.365 0.233813C113.436 0.227337 113.642 0.0940841 113.771 0.0862912C113.939 0.0764037 113.876 0.124167 114.052 0.112597C114.067 0.111651 114.064 0.0821844 114.172 0.0834837C114.676 0.0891271 115.226 0.106273 115.749 0.10332C115.821 0.10303 115.729 0.0562914 115.833 0.0551026C116.318 0.0495624 116.849 0.0512922 117.322 0.0731691C117.438 0.0787009 117.365 0.111426 117.39 0.121143C117.545 0.179935 117.765 0.0945111 117.801 0.0928834C118.666 0.0518328 119.328 0.129141 120.21 0.0923343C120.258 0.0901736 120.628 -0.00140259 120.792 0.0771367C120.804 0.082362 120.967 0.162716 121.111 0.107776C121.12 0.104339 121.018 0.0629718 121.196 0.067188C121.373 0.0713951 121.658 0.0437702 121.902 0.0892217C121.979 0.10354 122.162 0.183695 122.392 0.1198C122.407 0.11534 122.762 -0.0291356 122.889 0.0705451C122.91 0.0869535 122.888 0.192439 123.163 0.138355C123.215 0.12787 123.12 0.104341 123.258 0.0896491C123.47 0.0670054 123.751 0.0952578 124.011 0.0482675C124.057 0.0399486 124.25 -0.0316483 124.405 0.0226939C124.43 0.0312048 124.383 0.0664211 124.465 0.0703622C124.855 0.089267 125.263 0.0657107 125.658 0.0900766C125.798 0.0986383 125.727 0.155569 125.873 0.170826C126.019 0.186077 126.313 0.200748 126.466 0.174732C126.619 0.148705 126.452 0.0579699 126.681 0.0507091C127.676 0.0191755 128.662 0.0724031 129.656 0.0801893C129.803 0.0813522 129.681 0.0488844 129.898 0.0482681C130.699 0.0458527 132.082 0.0154109 132.777 0.0844011C133.334 0.139658 132.633 0.181726 133.059 0.204213C133.264 0.214939 133.486 0.109451 133.536 0.10613C134.02 0.0723946 134.357 0.119124 134.793 0.104787C134.883 0.101812 134.794 0.0590563 134.871 0.0569966C135.133 0.0495819 135.408 0.0686661 135.658 0.0651754C135.77 0.063511 135.749 0.0308558 135.852 0.0333761C136.099 0.0390306 136.318 0.0527574 136.558 0.0833639C136.58 0.0861528 136.432 0.126775 136.615 0.128286C136.911 0.130615 137.278 0.160809 137.618 0.129628C137.719 0.120249 137.723 0.0456161 137.94 0.0971579C137.986 0.107923 137.927 0.197541 138.18 0.120107C138.223 0.107239 138.647 0.00279585 138.856 0.0701195C138.911 0.0878383 139.051 0.161173 139.172 0.149648C139.189 0.147809 139.123 0.107721 139.223 0.103811C139.578 0.0907276 139.95 0.0950047 140.314 0.0824487C140.411 0.0790165 140.266 0.0375335 140.411 0.0337428C140.81 0.0232577 141.307 0.03382 141.697 0.0468044C141.841 0.0516703 141.742 0.0860335 141.752 0.089773C141.92 0.150598 142.02 0.0684983 142.075 0.0637112C142.423 0.035046 142.687 0.0736116 143.007 0.0634061C143.095 0.0606937 143.033 0.0215477 143.05 0.0180571C143.232 -0.0160481 143.097 0.054253 143.212 0.0620023C143.535 0.0839446 143.896 0.0807985 144.222 0.0757963C144.343 0.0739014 144.208 0.0285107 144.315 0.0273345C144.953 0.019513 145.616 0.0238565 146.239 0.0488801C146.356 0.0536741 146.282 0.0886263 146.306 0.0966094C146.475 0.152462 146.721 0.0762787 146.778 0.0690217C147.036 0.0358863 147.137 0.0667953 147.365 0.0610261C148.478 0.0323022 149.853 0.0527737 150.904 0.065421C152.274 0.0816981 153.337 0.114949 154.643 0.106315C154.726 0.10581 154.643 0.0593126 154.714 0.0582803C155.638 0.0470714 156.548 0.0652407 157.474 0.0518109C157.55 0.0507912 157.44 0.00671153 157.562 0.0035933C157.812 -0.00311175 158.129 -0.00071591 158.382 0.0133589C158.505 0.0201405 158.34 0.0579649 158.464 0.064018C158.753 0.0781991 159.063 0.0813385 159.36 0.074272C159.486 0.0711687 159.296 0.0260863 159.46 0.0255661C160.579 0.0210936 161.678 0.0133294 162.808 0.0717088C162.886 0.0757183 162.954 0.167344 163.119 0.149773C163.131 0.124344 163.13 0.0944324 163.136 0.0672533C164.765 0.0526125 166.377 0.0843762 168.01 0.0892874C168.079 0.0894841 167.96 0.0409365 168.093 0.0410698C168.865 0.0417876 169.614 0.0283386 170.404 0.0765924C170.482 0.0813115 170.442 0.166719 170.673 0.153802C170.713 0.151445 171.061 0.140054 171.151 0.121514C171.163 0.118718 171.1 0.078853 171.212 0.0776911C171.863 0.0716376 172.545 0.0807386 173.194 0.105096C173.299 0.109103 173.188 0.151556 173.262 0.154778C173.792 0.177314 174.369 0.145043 174.875 0.183587C175.214 0.20954 175.088 0.282923 175.268 0.355156C175.294 0.365348 175.504 0.366963 175.515 0.408989C175.542 0.51467 175.441 0.630389 175.482 0.743034C175.491 0.767296 175.772 0.741164 175.606 0.799796C175.594 0.80372 175.391 0.82318 175.34 0.84307C175.305 0.856822 175.368 0.899563 175.297 0.917166C175.226 0.934753 175.147 0.898925 175.029 0.919608C174.911 0.940546 174.963 0.989169 174.727 0.994925ZM110.1 0.319444C110.287 0.360275 110.314 0.210728 110.112 0.246508C110.103 0.248415 110.09 0.317441 110.1 0.319444ZM87.5294 0.343063C87.7732 0.409024 87.9401 0.312035 87.7681 0.261093C87.5961 0.210205 87.4551 0.323067 87.5294 0.343063ZM85.0004 0.391219C85.2855 0.443226 85.3303 0.231162 85.025 0.274032C85.0073 0.276454 84.9837 0.388199 85.0004 0.391219ZM174.433 0.375725C174.436 0.377711 174.587 0.379647 174.59 0.377678C174.671 0.330182 174.369 0.326345 174.433 0.375725ZM82.4909 0.443648C82.5799 0.472334 82.8361 0.439219 82.7255 0.403548C82.6365 0.374851 82.3801 0.407964 82.4909 0.443648ZM119.831 0.479052C119.834 0.48128 119.942 0.483287 119.94 0.47069C119.933 0.430118 119.782 0.441568 119.831 0.479052ZM78.2256 0.446089C78.8558 0.454071 79.2379 0.629246 78.5516 0.609479C78.4274 0.605903 78.8195 0.553617 78.6613 0.537824C78.3719 0.509052 78.1797 0.61904 77.8843 0.560102C77.8309 0.549314 78.1897 0.445244 78.2267 0.445845C78.2264 0.445926 78.226 0.446007 78.2256 0.446089ZM110.207 0.49907C110.211 0.501048 110.361 0.502923 110.364 0.500962C110.446 0.453485 110.144 0.44968 110.207 0.49907ZM126.142 0.57152C126.15 0.575734 126.498 0.579676 126.509 0.575793C126.69 0.498155 125.988 0.489957 126.142 0.57152ZM100.124 0.608505C99.9611 0.656267 99.7657 0.661891 99.6355 0.601913C99.7978 0.605097 99.9612 0.605566 100.124 0.608505Z" fill="black"/>
<path d="M96.8482 39.9949C96.3003 40.0079 95.5821 39.994 95.0362 39.9749C94.8651 39.969 94.9518 39.9425 94.8337 39.9372C94.6027 39.9269 94.3875 39.9399 94.1593 39.9276C94.0836 39.9234 94.1778 39.8814 94.0985 39.878C93.6638 39.8594 93.2527 39.8701 92.8124 39.8612C90.6436 39.8172 88.5118 39.8014 86.3166 39.7823C85.5927 39.776 84.7128 39.7379 83.9652 39.7546C83.8779 39.7565 83.9299 39.7934 83.9133 39.7964C83.6529 39.8429 83.7395 39.7685 83.5694 39.7587C82.8945 39.7196 82.144 39.7162 81.4944 39.7305C81.2181 39.7366 81.4952 39.8098 81.2169 39.7687C81.1976 39.766 81.2677 39.7268 81.1919 39.7226C81.0201 39.7133 80.694 39.7203 80.5608 39.7172C80.3041 39.711 80.2616 39.7114 80.0188 39.7109C79.6869 39.71 79.2921 39.6905 78.936 39.6994C78.86 39.7014 78.9606 39.7415 78.8394 39.7483C78.7181 39.7552 78.3971 39.7518 78.2889 39.7423C78.1806 39.7328 78.2267 39.7013 78.2076 39.6941C78.05 39.6331 77.6786 39.7176 77.6309 39.7197C76.7598 39.7553 76.0128 39.7071 75.1952 39.7073C74.5745 39.7075 73.9108 39.7234 73.3201 39.7212C72.6165 39.7184 72.0201 39.6967 71.3365 39.7004C71.2644 39.7008 71.3489 39.7479 71.2608 39.7485C70.3247 39.754 69.395 39.7488 68.4629 39.717C68.3694 39.7137 68.4899 39.6723 68.3965 39.6666C67.8247 39.6326 66.92 39.5508 66.5804 39.7311C66.1931 39.7241 65.7228 39.7168 65.3763 39.6805C65.1529 39.6571 65.3699 39.612 65.0955 39.6312C65.0336 39.6355 65.1141 39.675 65.0212 39.6785C64.6304 39.6929 64.2034 39.6801 63.8168 39.7005C63.7382 39.7047 63.7597 39.7401 63.7374 39.7465C63.5501 39.7981 63.2384 39.7128 63.1704 39.7066C62.6529 39.6603 62.275 39.6785 61.7929 39.6774C61.681 39.6771 61.8133 39.7247 61.7056 39.7261C61.1473 39.7329 60.569 39.7289 60.0223 39.7078C59.9007 39.7029 60.0125 39.6624 59.9544 39.6581C59.6982 39.6393 59.6414 39.7158 59.3957 39.6993C59.3438 39.6959 59.373 39.6612 59.3636 39.6574C59.2157 39.5976 59.0872 39.6823 59.0491 39.6842C58.5679 39.7097 58.2603 39.6213 57.7955 39.6338C57.7399 39.6354 57.8653 39.6793 57.7089 39.6811C56.6675 39.6932 55.566 39.6811 54.5351 39.646C54.3748 39.6406 54.4892 39.6077 54.4791 39.6036C54.3147 39.5401 54.2084 39.6252 54.1561 39.6284C53.7438 39.6515 53.3587 39.5801 53.0785 39.6814C51.3324 39.6463 49.5942 39.7032 47.8625 39.6124C47.8405 39.6114 47.8799 39.5695 47.836 39.5676C47.3071 39.544 47.4086 39.6091 47.0587 39.6888C46.9705 39.7088 46.7023 39.6126 46.6786 39.6056C46.5921 39.5796 46.6818 39.5173 46.6528 39.5123C46.4133 39.4728 46.4523 39.6789 46.1291 39.6789C46.119 39.6786 46.1615 39.6407 46.1344 39.6369C46.0501 39.625 45.9665 39.6401 45.8841 39.6271C45.6954 39.5968 45.6281 39.4967 45.3399 39.555C45.3034 39.5625 45.3591 39.6795 45.0706 39.6739C44.9555 39.6716 44.4464 39.6736 44.3037 39.6661C44.1612 39.6585 44.259 39.6208 44.2488 39.6192C43.8648 39.5694 44.0105 39.5487 43.818 39.475C43.6257 39.4015 43.679 39.5767 43.6006 39.5963C43.522 39.6158 43.2405 39.5747 43.1713 39.5604C43.1021 39.5461 43.1884 39.5222 43.1269 39.5141C42.7191 39.4612 42.9479 39.6011 42.8135 39.6289C42.4968 39.6948 42.2501 39.5648 41.9601 39.552C41.8817 39.5486 41.9457 39.5782 41.8758 39.581C41.5991 39.5916 41.4327 39.551 41.1179 39.5882C41.0664 39.5942 40.8119 39.6724 40.6472 39.615C40.6238 39.6068 40.6901 39.5744 40.5722 39.5671C40.396 39.5562 40.0786 39.5492 39.8892 39.56C39.7494 39.568 39.9097 39.6214 39.7337 39.6048C39.6555 39.5974 39.8004 39.5662 39.6535 39.5549C39.5073 39.5436 39.1336 39.5449 38.9914 39.546C38.8495 39.5471 38.9272 39.5876 38.9157 39.5903C38.8463 39.6059 38.5738 39.6255 38.5498 39.6254C37.3355 39.6304 36.2158 39.5621 35.0335 39.5847C34.9407 39.5864 35.0025 39.6291 34.9884 39.6298C34.6707 39.6477 34.9212 39.5342 34.6993 39.4962C34.7314 39.5828 34.6004 39.5671 34.3767 39.5766C34.2688 39.5813 34.3275 39.6148 34.3177 39.6183C34.1578 39.6692 34.0465 39.6034 34.0178 39.59C33.9119 39.5404 33.7967 39.5989 33.7246 39.5658C33.6526 39.533 33.8184 39.4843 33.6038 39.4849C33.5436 39.5159 33.7029 39.597 33.54 39.6101C32.9253 39.6598 31.778 39.5962 31.2837 39.5896C30.7905 39.583 30.6312 39.5887 30.3438 39.5775C29.8246 39.5572 30.0149 39.6174 29.6925 39.6449C29.3692 39.6724 29.5264 39.5245 29.4799 39.4927C29.4343 39.4609 29.3845 39.4936 29.3277 39.4761C29.2711 39.4586 29.3936 39.437 29.2606 39.4305C29.1275 39.4239 28.7635 39.4805 28.7164 39.5137C28.6166 39.5842 28.7806 39.6581 28.4284 39.6321C28.4082 39.6306 28.4739 39.5917 28.3963 39.5878C27.7803 39.5578 27.1403 39.556 26.525 39.5295C26.4404 39.5258 26.516 39.4825 26.4668 39.4798C25.954 39.4522 26.1373 39.5251 25.8562 39.6062C25.9193 39.4983 25.7639 39.4323 25.3747 39.4317C25.1407 39.4313 25.181 39.4784 25.0296 39.5116C24.9842 39.5216 24.8187 39.4892 24.7887 39.5114C24.6897 39.5838 24.8457 39.6649 24.4444 39.6326C24.4268 39.6311 24.4829 39.5914 24.422 39.589C24.0288 39.5733 23.9817 39.6491 23.5567 39.6582C23.2235 39.6654 22.6309 39.6193 22.2515 39.6117C22.2595 39.4905 21.9012 39.5182 21.7558 39.6019C21.5096 39.5984 21.2437 39.6032 21.0057 39.5916C20.9238 39.5877 20.9776 39.5525 20.9673 39.5488C20.8089 39.4892 20.7019 39.5706 20.6487 39.5738C20.0728 39.6048 19.6035 39.5431 19.0538 39.6034C19.0343 39.6055 19.0027 39.6898 18.8557 39.6283C18.8462 39.624 19.0278 39.5857 18.7692 39.5827C18.5106 39.5798 18.0231 39.5346 17.664 39.5737C17.5771 39.5831 17.3573 39.6514 17.181 39.598C17.1575 39.5908 17.1832 39.5666 17.1493 39.5531C17.0396 39.5103 16.9797 39.5955 16.8509 39.5231C16.722 39.4508 16.4539 39.3966 16.0918 39.4465C16.0803 39.448 15.9946 39.5155 15.8807 39.5144C15.6989 39.5126 15.4408 39.4986 15.2511 39.499C15.1602 39.4992 15.2184 39.5411 15.2026 39.5419C14.5915 39.5654 14.1567 39.528 13.5021 39.5118C13.3821 39.5088 13.0372 39.5659 12.8049 39.5207C12.5498 39.4713 12.812 39.2655 12.2257 39.3146C11.9892 39.3342 11.6898 39.5952 11.2648 39.4599C10.4406 39.4935 9.67837 39.4242 8.85187 39.4721C8.8147 39.4742 8.69716 39.5471 8.6098 39.5461C8.48006 39.5445 8.40887 39.5104 8.31624 39.5082C7.92811 39.4979 7.57294 39.527 7.19873 39.5225C7.05666 39.5209 7.10633 39.4857 6.93688 39.4837C6.76754 39.4818 6.65462 39.5281 6.42513 39.5057C6.25181 39.4887 6.07853 39.3939 5.84847 39.3829C5.83969 39.4763 5.68171 39.4744 5.40087 39.4991C5.3469 39.5039 5.40476 39.5364 5.37924 39.5403C5.27532 39.5571 5.17914 39.5301 5.08046 39.5484C5.05647 39.5528 5.05532 39.5847 5.0357 39.5901C4.86883 39.6371 4.59391 39.5653 4.5467 39.5528C4.36572 39.5053 4.28118 39.5468 4.14236 39.5281C4.00381 39.5094 4.21098 39.4861 4.04912 39.4747C3.71358 39.4513 3.28246 39.4564 2.94168 39.4549C2.80571 39.4546 2.89846 39.4972 2.87901 39.4981C2.59787 39.5089 2.31352 39.4636 2.15763 39.5484C1.96267 39.329 1.9881 39.5697 1.5862 39.5258C1.55453 39.5222 1.51427 39.4185 1.6358 39.4032C1.75734 39.388 1.94163 39.4205 2.11026 39.3967C2.1502 39.3911 2.37894 39.2939 2.41015 39.288C2.65462 39.242 2.68929 39.397 2.70221 39.4056C2.84891 39.4975 3.12842 39.3927 3.20203 39.3855C3.53879 39.3523 3.82489 39.3741 4.10656 39.3504C4.29075 39.3351 4.30881 39.2336 4.45345 39.2367C4.93432 39.247 5.10216 39.3887 5.55529 39.2658C5.65244 39.2396 5.5559 39.1286 5.90405 39.2159C5.92592 39.2214 6.18439 39.3012 6.33374 39.2507C6.3525 39.2443 6.35189 39.212 6.37664 39.2093C6.54242 39.1917 6.65297 39.2175 6.83357 39.2051C7.01412 39.1928 7.23129 39.1744 7.43745 39.1853C7.56171 39.1919 7.72112 39.2522 7.78061 39.267C7.94856 39.3095 8.12863 39.2398 8.23269 39.2912C8.33761 39.343 8.13248 39.4216 8.40763 39.455C8.41781 39.3709 8.44123 39.2847 8.4576 39.2001C9.06058 39.2031 9.65384 39.2303 10.2588 39.2265C10.3338 39.226 10.2571 39.1808 10.3375 39.1791C10.6768 39.1719 10.9731 39.2041 11.3249 39.1913C11.5972 39.1812 11.8958 39.1333 12.1805 39.1213C12.3544 39.2175 12.777 39.1848 13.0839 39.1936C13.1915 39.1966 13.1842 39.2223 13.2607 39.2307C13.5492 39.2617 13.414 39.1767 13.4931 39.1633C13.8324 39.1062 13.8615 39.2986 14.2615 39.2939C14.2827 39.2937 14.5417 39.1911 14.5774 39.1847C14.8041 39.1431 14.615 39.2204 14.7568 39.228C15.0159 39.2419 15.1959 39.2664 15.4999 39.2363C15.5885 39.2274 15.8011 39.1635 15.9732 39.2129C15.9958 39.2194 15.9833 39.2533 16.0015 39.2553C16.3314 39.2884 16.3401 39.1819 16.5286 39.1458C16.7171 39.1097 17.0083 39.1833 17.0676 39.2045C17.2226 39.2593 16.9488 39.2279 16.9404 39.2333C16.8418 39.2973 17.0541 39.2863 17.2164 39.2917C17.2399 39.3961 17.4668 39.3898 17.3846 39.2969C17.3753 39.2867 17.249 39.2964 17.2164 39.2917C17.3588 39.1892 17.6082 39.1761 17.8837 39.2718C18.0126 39.3167 17.8908 39.369 18.2824 39.3499C18.4602 39.3413 18.3915 39.2693 18.5484 39.2497C18.9068 39.205 19.3725 39.2721 19.742 39.2615C19.8761 39.2577 19.7455 39.2183 19.8371 39.2143C20.0803 39.2037 20.2948 39.2332 20.5391 39.2181C20.5612 39.2166 20.5071 39.1754 20.5831 39.1749C21.159 39.1701 21.6604 39.1965 22.2616 39.1973C22.5521 39.1976 23.0715 39.1749 23.3724 39.1794C23.894 39.1871 24.5356 39.247 24.9811 39.2325C25.2717 39.2232 25.208 39.1819 25.3325 39.1539C25.5728 39.0994 25.9981 39.1969 26.0554 39.212C26.0571 39.2125 25.8071 39.2222 25.9405 39.2434C26.0181 39.2875 26.0526 39.2122 26.0554 39.212C26.093 39.2218 26.5925 39.2311 26.6917 39.2233C26.7456 39.2189 26.7155 39.1799 26.7436 39.1784C27.4115 39.1434 28.0807 39.1335 28.7581 39.1518C28.7701 39.1526 28.7521 39.1962 28.7802 39.1976C29.1723 39.217 29.4235 39.1635 29.747 39.1318C30.0704 39.1001 30.3269 39.1107 30.5183 39.1857C30.7624 39.1763 31.1125 39.2094 31.3139 39.2295C31.5154 39.2497 31.5435 39.1646 31.5612 39.163C32.1141 39.1092 32.4338 39.1578 33.0074 39.1654C33.2801 39.1691 33.821 39.1568 34.1163 39.1475C34.3497 39.14 34.4902 39.1599 34.7053 39.1472C34.7343 39.1455 34.705 39.1076 34.7138 39.1062C34.9538 39.0609 34.8385 39.1534 34.888 39.17C35.0677 39.2301 35.1786 39.2621 35.486 39.2338C35.5568 39.2273 35.7633 39.0941 35.8925 39.0863C36.0605 39.0764 35.9971 39.1242 36.173 39.1126C36.1881 39.1117 36.1849 39.0822 36.2935 39.0835C36.7974 39.0891 37.3469 39.1063 37.8705 39.1033C37.9421 39.103 37.8504 39.0563 37.9537 39.0551C38.4387 39.0496 38.9703 39.0513 39.4427 39.0732C39.559 39.0787 39.4861 39.1114 39.5114 39.1211C39.6664 39.1799 39.8862 39.0945 39.9224 39.0929C40.7875 39.0518 41.4496 39.1291 42.3313 39.0923C42.3792 39.0902 42.7487 38.9986 42.9135 39.0771C42.9248 39.0824 43.0879 39.1627 43.2321 39.1078C43.241 39.1043 43.1394 39.063 43.3167 39.0672C43.4941 39.0714 43.7794 39.0438 44.0232 39.0892C44.1004 39.1035 44.2827 39.1837 44.5129 39.1198C44.5279 39.1153 44.8833 38.9709 45.0101 39.0705C45.0307 39.087 45.0092 39.1924 45.2839 39.1384C45.3364 39.1279 45.2411 39.1043 45.3794 39.0896C45.5913 39.067 45.872 39.0953 46.1325 39.0483C46.1779 39.0399 46.3713 38.9684 46.5264 39.0227C46.5507 39.0312 46.5045 39.0664 46.5864 39.0704C46.976 39.0893 47.3838 39.0657 47.7793 39.0901C47.9194 39.0986 47.8478 39.1556 47.9938 39.1708C48.1398 39.1861 48.434 39.2007 48.5868 39.1747C48.7397 39.1487 48.5727 39.058 48.8017 39.0507C49.7971 39.0192 50.7832 39.0724 51.7771 39.0802C51.9245 39.0814 51.8023 39.0489 52.0196 39.0483C52.8205 39.0459 54.2034 39.0154 54.8984 39.0844C55.4552 39.1397 54.7545 39.1817 55.18 39.2042C55.3853 39.2149 55.6075 39.1094 55.6571 39.1061C56.1413 39.0724 56.4779 39.1191 56.9137 39.1048C57.0037 39.1018 56.9154 39.0591 56.992 39.057C57.2537 39.0496 57.5287 39.0687 57.7787 39.0652C57.8909 39.0635 57.8702 39.0309 57.9734 39.0334C58.2204 39.039 58.4387 39.0528 58.6795 39.0834C58.7014 39.0862 58.5535 39.1268 58.7362 39.1283C59.0319 39.1306 59.399 39.1608 59.7392 39.1296C59.8401 39.1202 59.8441 39.0456 60.0611 39.0972C60.1066 39.1079 60.0485 39.1975 60.3013 39.1201C60.3438 39.1072 60.7684 39.0028 60.9768 39.0701C61.0318 39.0878 61.1721 39.1612 61.2935 39.1496C61.3099 39.1478 61.244 39.1077 61.3446 39.1038C61.6991 39.0907 62.0706 39.095 62.4349 39.0824C62.5321 39.079 62.3873 39.0375 62.5322 39.0337C62.9308 39.0233 63.4285 39.0338 63.8183 39.0468C63.962 39.0517 63.8627 39.086 63.8731 39.0898C64.0413 39.1506 64.1407 39.0685 64.1965 39.0637C64.5436 39.035 64.808 39.0736 65.1279 39.0634C65.2162 39.0607 65.1536 39.0215 65.1712 39.0181C65.3535 38.984 65.2177 39.0543 65.3331 39.062C65.6563 39.0839 66.0166 39.0808 66.3435 39.0758C66.4636 39.0739 66.3286 39.0285 66.4364 39.0273C67.0742 39.0195 67.7372 39.0239 68.3596 39.0489C68.4768 39.0537 68.4031 39.0886 68.4275 39.0966C68.5958 39.1525 68.8425 39.0763 68.8993 39.069C69.1575 39.0359 69.2577 39.0668 69.4857 39.061C70.5993 39.0323 71.9743 39.0528 73.0255 39.0654C74.3952 39.0817 75.4582 39.1149 76.7644 39.1063C76.8474 39.1058 76.7637 39.0593 76.8353 39.0583C77.7593 39.0471 78.6689 39.0652 79.5947 39.0518C79.6707 39.0508 79.5612 39.0067 79.6831 39.0036C79.9333 38.9969 80.2501 38.9993 80.503 39.0134C80.6263 39.0201 80.4609 39.058 80.5851 39.064C80.8742 39.0782 81.1841 39.0813 81.481 39.0743C81.6074 39.0712 81.4167 39.0261 81.581 39.0256C82.6998 39.0211 83.7987 39.0133 84.9294 39.0717C85.0069 39.0757 85.0749 39.1673 85.2397 39.1498C85.2521 39.1243 85.2515 39.0944 85.2569 39.0673C86.8857 39.0526 88.4979 39.0844 90.1312 39.0893C90.2001 39.0895 90.0811 39.0409 90.2144 39.0411C90.9861 39.0418 91.7355 39.0283 92.5248 39.0766C92.6031 39.0813 92.5629 39.1667 92.7937 39.1538C92.8344 39.1514 93.182 39.1401 93.2719 39.1215C93.2841 39.1187 93.2207 39.0789 93.3327 39.0777C93.9836 39.0716 94.6658 39.0807 95.3156 39.1051C95.4204 39.1091 95.3088 39.1516 95.3835 39.1548C95.9133 39.1773 96.4896 39.145 96.9959 39.1836C97.3348 39.2095 97.2094 39.2829 97.3895 39.3552C97.4149 39.3653 97.6248 39.367 97.6356 39.409C97.6635 39.5147 97.5619 39.6304 97.6036 39.743C97.6124 39.7673 97.8934 39.7412 97.727 39.7998C97.7154 39.8037 97.5116 39.8232 97.4614 39.8431C97.4265 39.8568 97.4895 39.8996 97.4182 39.9172C97.3469 39.9348 97.2686 39.8989 97.1504 39.9196C97.0322 39.9405 97.0842 39.9892 96.8482 39.9949ZM32.2211 39.3194C32.4076 39.3603 32.4352 39.2107 32.2334 39.2465C32.2236 39.2484 32.2115 39.3174 32.2211 39.3194ZM9.65046 39.3431C9.89434 39.409 10.0612 39.312 9.88919 39.2611C9.71715 39.2102 9.57616 39.3231 9.65046 39.3431ZM7.12152 39.3912C7.40655 39.4432 7.45142 39.2312 7.14614 39.274C7.1284 39.2765 7.10484 39.3882 7.12152 39.3912ZM96.5543 39.3757C96.5569 39.3777 96.7077 39.3796 96.7113 39.3777C96.7917 39.3302 96.49 39.3263 96.5543 39.3757ZM4.61198 39.4436C4.70096 39.4723 4.95716 39.4392 4.84659 39.4035C4.75759 39.3749 4.50115 39.408 4.61198 39.4436ZM41.9523 39.4791C41.9552 39.4813 42.0634 39.4833 42.0612 39.4707C42.0539 39.4301 41.9034 39.4416 41.9523 39.4791ZM0.346721 39.4461C0.976881 39.4541 1.35896 39.6292 0.672716 39.6095C0.548445 39.6059 0.940551 39.5536 0.782378 39.5378C0.492965 39.5091 0.300775 39.619 0.00541432 39.5601C-0.048047 39.5493 0.31077 39.4452 0.347834 39.4458C0.347478 39.4459 0.347076 39.446 0.346721 39.4461ZM32.3285 39.4991C32.3322 39.501 32.4819 39.5029 32.4855 39.501C32.5666 39.4535 32.265 39.4497 32.3285 39.4991ZM48.2631 39.5715C48.2714 39.5757 48.6188 39.5797 48.6301 39.5758C48.8114 39.4982 48.1089 39.49 48.2631 39.5715ZM22.2456 39.6085C22.0822 39.6563 21.8868 39.6619 21.7566 39.6019C21.9189 39.6051 22.0823 39.6056 22.2456 39.6085Z" fill="black"/>
<path d="M211.069 166.995C210.521 167.008 209.803 166.994 209.257 166.975C209.086 166.969 209.172 166.942 209.054 166.937C208.823 166.927 208.608 166.94 208.38 166.928C208.304 166.923 208.398 166.881 208.319 166.878C207.885 166.859 207.473 166.87 207.033 166.861C204.864 166.817 202.733 166.801 200.537 166.782C199.813 166.776 198.934 166.738 198.186 166.755C198.099 166.757 198.151 166.793 198.134 166.796C197.874 166.843 197.96 166.769 197.79 166.759C197.115 166.72 196.365 166.716 195.715 166.73C195.439 166.737 195.716 166.81 195.438 166.769C195.418 166.766 195.488 166.727 195.413 166.723C195.241 166.713 194.915 166.72 194.782 166.717C194.525 166.711 194.482 166.711 194.24 166.711C193.908 166.71 193.513 166.691 193.157 166.699C193.081 166.701 193.181 166.742 193.06 166.748C192.939 166.755 192.618 166.752 192.51 166.742C192.401 166.733 192.447 166.701 192.428 166.694C192.271 166.633 191.899 166.718 191.852 166.72C190.981 166.755 190.234 166.707 189.416 166.707C188.795 166.707 188.131 166.723 187.541 166.721C186.837 166.718 186.241 166.697 185.557 166.7C185.485 166.701 185.57 166.748 185.481 166.748C184.545 166.754 183.616 166.749 182.684 166.717C182.59 166.714 182.711 166.672 182.617 166.667C182.045 166.633 181.141 166.551 180.801 166.731C180.414 166.724 179.944 166.717 179.597 166.68C179.374 166.657 179.591 166.612 179.316 166.631C179.254 166.636 179.335 166.675 179.242 166.678C178.851 166.693 178.424 166.68 178.038 166.7C177.959 166.705 177.98 166.74 177.958 166.747C177.771 166.798 177.459 166.713 177.391 166.707C176.874 166.66 176.496 166.679 176.014 166.677C175.902 166.677 176.034 166.725 175.926 166.726C175.368 166.733 174.79 166.729 174.243 166.708C174.121 166.703 174.233 166.662 174.175 166.658C173.919 166.639 173.862 166.716 173.616 166.699C173.565 166.696 173.594 166.661 173.584 166.657C173.436 166.598 173.308 166.682 173.27 166.684C172.789 166.71 172.481 166.621 172.016 166.634C171.961 166.635 172.086 166.679 171.93 166.681C170.888 166.693 169.787 166.681 168.756 166.646C168.596 166.641 168.71 166.608 168.7 166.604C168.535 166.54 168.429 166.625 168.377 166.628C167.965 166.651 167.579 166.58 167.299 166.681C165.553 166.646 163.815 166.703 162.083 166.612C162.061 166.611 162.101 166.569 162.057 166.568C161.528 166.544 161.629 166.609 161.279 166.689C161.191 166.709 160.923 166.613 160.899 166.606C160.813 166.58 160.902 166.517 160.874 166.512C160.634 166.473 160.673 166.679 160.35 166.679C160.34 166.679 160.382 166.641 160.355 166.637C160.271 166.625 160.187 166.64 160.105 166.627C159.916 166.597 159.849 166.497 159.561 166.555C159.524 166.563 159.58 166.679 159.291 166.674C159.176 166.672 158.667 166.674 158.524 166.666C158.382 166.658 158.48 166.621 158.47 166.619C158.086 166.569 158.231 166.549 158.039 166.475C157.846 166.401 157.9 166.577 157.821 166.596C157.743 166.616 157.461 166.575 157.392 166.56C157.323 166.546 157.409 166.522 157.348 166.514C156.94 166.461 157.169 166.601 157.034 166.629C156.717 166.695 156.471 166.565 156.181 166.552C156.102 166.549 156.166 166.578 156.097 166.581C155.82 166.592 155.653 166.551 155.339 166.588C155.287 166.594 155.033 166.672 154.868 166.615C154.845 166.607 154.911 166.574 154.793 166.567C154.617 166.556 154.299 166.549 154.11 166.56C153.97 166.568 154.13 166.621 153.954 166.605C153.876 166.597 154.021 166.566 153.874 166.555C153.728 166.544 153.354 166.545 153.212 166.546C153.07 166.547 153.148 166.588 153.136 166.59C153.067 166.606 152.795 166.625 152.77 166.625C151.556 166.63 150.436 166.562 149.254 166.585C149.161 166.586 149.223 166.629 149.209 166.63C148.891 166.648 149.142 166.534 148.92 166.496C148.952 166.583 148.821 166.567 148.597 166.577C148.49 166.581 148.548 166.615 148.538 166.618C148.379 166.669 148.267 166.603 148.239 166.59C148.133 166.54 148.017 166.599 147.945 166.566C147.873 166.533 148.039 166.484 147.825 166.485C147.764 166.516 147.924 166.597 147.761 166.61C147.146 166.66 145.999 166.596 145.504 166.59C145.011 166.583 144.852 166.589 144.564 166.578C144.045 166.557 144.236 166.617 143.913 166.645C143.59 166.672 143.747 166.524 143.701 166.493C143.655 166.461 143.605 166.494 143.548 166.476C143.492 166.459 143.614 166.437 143.481 166.43C143.348 166.424 142.984 166.48 142.937 166.514C142.837 166.584 143.001 166.658 142.649 166.632C142.629 166.631 142.695 166.592 142.617 166.588C142.001 166.558 141.361 166.556 140.746 166.529C140.661 166.526 140.737 166.482 140.688 166.48C140.175 166.452 140.358 166.525 140.077 166.606C140.14 166.498 139.985 166.432 139.595 166.432C139.361 166.431 139.402 166.478 139.25 166.512C139.205 166.522 139.039 166.489 139.009 166.511C138.91 166.584 139.066 166.665 138.665 166.633C138.647 166.631 138.704 166.591 138.643 166.589C138.249 166.573 138.202 166.649 137.777 166.658C137.444 166.665 136.852 166.619 136.472 166.612C136.48 166.49 136.122 166.518 135.977 166.602C135.73 166.598 135.464 166.603 135.226 166.592C135.145 166.588 135.198 166.553 135.188 166.549C135.03 166.489 134.923 166.571 134.869 166.574C134.293 166.605 133.824 166.543 133.275 166.603C133.255 166.606 133.223 166.69 133.076 166.628C133.067 166.624 133.248 166.586 132.99 166.583C132.731 166.58 132.244 166.535 131.885 166.574C131.798 166.583 131.578 166.651 131.402 166.598C131.378 166.591 131.404 166.567 131.37 166.553C131.26 166.51 131.2 166.595 131.072 166.523C130.943 166.451 130.675 166.397 130.313 166.447C130.301 166.448 130.215 166.515 130.101 166.514C129.92 166.513 129.662 166.499 129.472 166.499C129.381 166.499 129.439 166.541 129.423 166.542C128.812 166.565 128.377 166.528 127.723 166.512C127.603 166.509 127.258 166.566 127.026 166.521C126.771 166.471 127.033 166.266 126.446 166.315C126.21 166.334 125.91 166.595 125.486 166.46C124.661 166.493 123.899 166.424 123.073 166.472C123.035 166.474 122.918 166.547 122.831 166.546C122.701 166.544 122.63 166.51 122.537 166.508C122.149 166.498 121.794 166.527 121.419 166.523C121.277 166.521 121.327 166.486 121.158 166.484C120.988 166.482 120.875 166.528 120.646 166.506C120.473 166.489 120.299 166.394 120.069 166.383C120.06 166.476 119.902 166.474 119.622 166.499C119.568 166.504 119.625 166.536 119.6 166.54C119.496 166.557 119.4 166.53 119.301 166.548C119.277 166.553 119.276 166.585 119.256 166.59C119.09 166.637 118.815 166.565 118.767 166.553C118.586 166.505 118.502 166.547 118.363 166.528C118.225 166.509 118.432 166.486 118.27 166.475C117.934 166.451 117.503 166.456 117.162 166.455C117.026 166.455 117.119 166.497 117.1 166.498C116.819 166.509 116.534 166.464 116.378 166.548C116.183 166.329 116.209 166.57 115.807 166.526C115.775 166.522 115.735 166.418 115.857 166.403C115.978 166.388 116.162 166.42 116.331 166.397C116.371 166.391 116.6 166.294 116.631 166.288C116.875 166.242 116.91 166.397 116.923 166.406C117.07 166.497 117.349 166.393 117.423 166.385C117.759 166.352 118.046 166.374 118.327 166.35C118.511 166.335 118.53 166.234 118.674 166.237C119.155 166.247 119.323 166.389 119.776 166.266C119.873 166.24 119.777 166.129 120.125 166.216C120.147 166.221 120.405 166.301 120.554 166.251C120.573 166.244 120.573 166.212 120.597 166.209C120.763 166.192 120.874 166.217 121.054 166.205C121.235 166.193 121.452 166.174 121.658 166.185C121.782 166.192 121.942 166.252 122.001 166.267C122.169 166.309 122.349 166.24 122.453 166.291C122.558 166.343 122.353 166.422 122.628 166.455C122.639 166.371 122.662 166.285 122.678 166.2C123.281 166.203 123.875 166.23 124.48 166.227C124.555 166.226 124.478 166.181 124.558 166.179C124.897 166.172 125.194 166.204 125.546 166.191C125.818 166.181 126.116 166.133 126.401 166.121C126.575 166.217 126.998 166.185 127.305 166.194C127.412 166.197 127.405 166.222 127.481 166.231C127.77 166.262 127.635 166.177 127.714 166.163C128.053 166.106 128.082 166.299 128.482 166.294C128.503 166.294 128.762 166.191 128.798 166.185C129.025 166.143 128.836 166.22 128.978 166.228C129.237 166.242 129.417 166.266 129.721 166.236C129.809 166.227 130.022 166.163 130.194 166.213C130.217 166.219 130.204 166.253 130.222 166.255C130.552 166.288 130.561 166.182 130.749 166.146C130.938 166.11 131.229 166.183 131.288 166.204C131.443 166.259 131.169 166.228 131.161 166.233C131.062 166.297 131.275 166.286 131.437 166.292C131.461 166.396 131.688 166.39 131.605 166.297C131.596 166.287 131.47 166.296 131.437 166.292C131.58 166.189 131.829 166.176 132.104 166.272C132.233 166.317 132.111 166.369 132.503 166.35C132.681 166.341 132.612 166.269 132.769 166.25C133.127 166.205 133.593 166.272 133.963 166.262C134.097 166.258 133.966 166.218 134.058 166.214C134.301 166.204 134.516 166.233 134.76 166.218C134.782 166.217 134.728 166.175 134.804 166.175C135.38 166.17 135.881 166.197 136.482 166.197C136.773 166.198 137.292 166.175 137.593 166.179C138.115 166.187 138.756 166.247 139.202 166.232C139.492 166.223 139.429 166.182 139.553 166.154C139.794 166.099 140.219 166.197 140.276 166.212C140.278 166.213 140.028 166.222 140.161 166.243C140.239 166.287 140.273 166.212 140.276 166.212C140.314 166.222 140.813 166.231 140.912 166.223C140.966 166.219 140.936 166.18 140.964 166.178C141.632 166.143 142.301 166.134 142.979 166.152C142.991 166.153 142.973 166.196 143.001 166.198C143.393 166.217 143.644 166.164 143.968 166.132C144.291 166.1 144.548 166.111 144.739 166.186C144.983 166.176 145.333 166.209 145.535 166.23C145.736 166.25 145.764 166.165 145.782 166.163C146.335 166.109 146.654 166.158 147.228 166.165C147.501 166.169 148.042 166.157 148.337 166.148C148.57 166.14 148.711 166.16 148.926 166.147C148.955 166.146 148.926 166.108 148.935 166.106C149.175 166.061 149.059 166.153 149.109 166.17C149.288 166.23 149.399 166.262 149.707 166.234C149.778 166.227 149.984 166.094 150.113 166.086C150.281 166.076 150.218 166.124 150.394 166.113C150.409 166.112 150.406 166.082 150.514 166.083C151.018 166.089 151.568 166.106 152.091 166.103C152.163 166.103 152.071 166.056 152.174 166.055C152.659 166.05 153.191 166.051 153.663 166.073C153.78 166.079 153.707 166.111 153.732 166.121C153.887 166.18 154.107 166.095 154.143 166.093C155.008 166.052 155.67 166.129 156.552 166.092C156.6 166.09 156.969 165.999 157.134 166.077C157.145 166.082 157.309 166.163 157.453 166.108C157.462 166.104 157.36 166.063 157.537 166.067C157.715 166.071 158 166.044 158.244 166.089C158.321 166.104 158.503 166.184 158.734 166.12C158.749 166.115 159.104 165.971 159.231 166.071C159.251 166.087 159.23 166.192 159.505 166.138C159.557 166.128 159.462 166.104 159.6 166.09C159.812 166.067 160.093 166.095 160.353 166.048C160.399 166.04 160.592 165.968 160.747 166.023C160.771 166.031 160.725 166.066 160.807 166.07C161.197 166.089 161.605 166.066 162 166.09C162.14 166.099 162.068 166.156 162.214 166.171C162.361 166.186 162.655 166.201 162.808 166.175C162.96 166.149 162.793 166.058 163.022 166.051C164.018 166.019 165.004 166.072 165.998 166.08C166.145 166.081 166.023 166.049 166.24 166.048C167.041 166.046 168.424 166.015 169.119 166.084C169.676 166.14 168.975 166.182 169.401 166.204C169.606 166.215 169.828 166.109 169.878 166.106C170.362 166.072 170.699 166.119 171.134 166.105C171.224 166.102 171.136 166.059 171.213 166.057C171.474 166.05 171.749 166.069 171.999 166.065C172.112 166.064 172.091 166.031 172.194 166.033C172.441 166.039 172.659 166.053 172.9 166.083C172.922 166.086 172.774 166.127 172.957 166.128C173.253 166.131 173.62 166.161 173.96 166.13C174.061 166.12 174.065 166.046 174.282 166.097C174.327 166.108 174.269 166.198 174.522 166.12C174.565 166.107 174.989 166.003 175.198 166.07C175.252 166.088 175.393 166.161 175.514 166.15C175.531 166.148 175.465 166.108 175.565 166.104C175.92 166.091 176.291 166.095 176.656 166.082C176.753 166.079 176.608 166.038 176.753 166.034C177.152 166.023 177.649 166.034 178.039 166.047C178.183 166.052 178.083 166.086 178.094 166.09C178.262 166.151 178.361 166.068 178.417 166.064C178.764 166.035 179.029 166.074 179.349 166.063C179.437 166.061 179.374 166.022 179.392 166.018C179.574 165.984 179.438 166.054 179.554 166.062C179.877 166.084 180.237 166.081 180.564 166.076C180.684 166.074 180.549 166.029 180.657 166.027C181.295 166.02 181.958 166.024 182.58 166.049C182.697 166.054 182.624 166.089 182.648 166.097C182.817 166.152 183.063 166.076 183.12 166.069C183.378 166.036 183.478 166.067 183.706 166.061C184.82 166.032 186.195 166.053 187.246 166.065C188.616 166.082 189.679 166.115 190.985 166.106C191.068 166.106 190.984 166.059 191.056 166.058C191.98 166.047 192.89 166.065 193.815 166.052C193.891 166.051 193.782 166.007 193.904 166.004C194.154 165.997 194.471 165.999 194.724 166.013C194.847 166.02 194.682 166.058 194.806 166.064C195.095 166.078 195.405 166.081 195.702 166.074C195.828 166.071 195.637 166.026 195.802 166.026C196.921 166.021 198.019 166.013 199.15 166.072C199.228 166.076 199.296 166.167 199.46 166.15C199.473 166.124 199.472 166.094 199.478 166.067C201.106 166.053 202.719 166.084 204.352 166.089C204.421 166.089 204.302 166.041 204.435 166.041C205.207 166.042 205.956 166.028 206.745 166.077C206.824 166.081 206.784 166.167 207.014 166.154C207.055 166.151 207.403 166.14 207.493 166.122C207.505 166.119 207.441 166.079 207.553 166.078C208.204 166.072 208.886 166.081 209.536 166.105C209.641 166.109 209.529 166.152 209.604 166.155C210.134 166.177 210.71 166.145 211.217 166.184C211.556 166.21 211.43 166.283 211.61 166.355C211.636 166.365 211.845 166.367 211.856 166.409C211.884 166.515 211.783 166.63 211.824 166.743C211.833 166.767 212.114 166.741 211.948 166.8C211.936 166.804 211.732 166.823 211.682 166.843C211.647 166.857 211.71 166.9 211.639 166.917C211.568 166.935 211.489 166.899 211.371 166.92C211.253 166.941 211.305 166.989 211.069 166.995ZM146.442 166.319C146.628 166.36 146.656 166.211 146.454 166.247C146.444 166.248 146.432 166.317 146.442 166.319ZM123.871 166.343C124.115 166.409 124.282 166.312 124.11 166.261C123.938 166.21 123.797 166.323 123.871 166.343ZM121.342 166.391C121.627 166.443 121.672 166.231 121.367 166.274C121.349 166.276 121.326 166.388 121.342 166.391ZM210.775 166.376C210.778 166.378 210.928 166.38 210.932 166.378C211.012 166.33 210.711 166.326 210.775 166.376ZM118.833 166.444C118.922 166.472 119.178 166.439 119.067 166.404C118.978 166.375 118.722 166.408 118.833 166.444ZM156.173 166.479C156.176 166.481 156.284 166.483 156.282 166.471C156.275 166.43 156.124 166.442 156.173 166.479ZM114.567 166.446C115.198 166.454 115.58 166.629 114.893 166.609C114.769 166.606 115.161 166.554 115.003 166.538C114.714 166.509 114.521 166.619 114.226 166.56C114.173 166.549 114.531 166.445 114.569 166.446C114.568 166.446 114.568 166.446 114.567 166.446ZM146.549 166.499C146.553 166.501 146.703 166.503 146.706 166.501C146.787 166.453 146.486 166.45 146.549 166.499ZM162.484 166.572C162.492 166.576 162.839 166.58 162.851 166.576C163.032 166.498 162.33 166.49 162.484 166.572ZM136.466 166.609C136.303 166.656 136.107 166.662 135.977 166.602C136.14 166.605 136.303 166.606 136.466 166.609Z" fill="black"/>
<path d="M141.844 83.9949C141.296 84.008 140.578 83.994 140.032 83.9749C139.861 83.969 139.948 83.9425 139.83 83.9372C139.599 83.9269 139.384 83.9399 139.155 83.9276C139.08 83.9234 139.174 83.8814 139.095 83.878C138.66 83.8594 138.249 83.8701 137.808 83.8612C135.64 83.8172 133.508 83.8014 131.313 83.7823C130.589 83.776 129.709 83.7379 128.961 83.7546C128.874 83.7566 128.926 83.7934 128.909 83.7964C128.649 83.8429 128.736 83.7685 128.566 83.7587C127.891 83.7196 127.14 83.7162 126.491 83.7305C126.214 83.7366 126.491 83.8098 126.213 83.7687C126.194 83.766 126.264 83.7268 126.188 83.7226C126.016 83.7133 125.69 83.7203 125.557 83.7172C125.3 83.711 125.258 83.7114 125.015 83.7109C124.683 83.71 124.288 83.6905 123.932 83.6994C123.856 83.7014 123.957 83.7415 123.836 83.7483C123.714 83.7552 123.393 83.7518 123.285 83.7423C123.177 83.7328 123.223 83.7013 123.204 83.6941C123.046 83.6331 122.675 83.7176 122.627 83.7197C121.756 83.7553 121.009 83.7071 120.191 83.7073C119.571 83.7075 118.907 83.7234 118.316 83.7212C117.613 83.7184 117.016 83.6967 116.333 83.7004C116.26 83.7008 116.345 83.7479 116.257 83.7485C115.321 83.754 114.391 83.7488 113.459 83.717C113.366 83.7137 113.486 83.6723 113.393 83.6666C112.821 83.6326 111.916 83.5508 111.576 83.7311C111.189 83.7241 110.719 83.7168 110.372 83.6805C110.149 83.6571 110.366 83.612 110.092 83.6312C110.03 83.6355 110.11 83.675 110.017 83.6785C109.627 83.6929 109.2 83.6801 108.813 83.7005C108.734 83.7047 108.756 83.7401 108.733 83.7465C108.546 83.7981 108.234 83.7128 108.167 83.7066C107.649 83.6603 107.271 83.6785 106.789 83.6774C106.677 83.6771 106.809 83.7247 106.702 83.7261C106.143 83.7329 105.565 83.7289 105.018 83.7078C104.897 83.7029 105.009 83.6624 104.951 83.6581C104.694 83.6393 104.637 83.7158 104.392 83.6993C104.34 83.6959 104.369 83.6612 104.36 83.6574C104.212 83.5976 104.083 83.6823 104.045 83.6842C103.564 83.7097 103.256 83.6213 102.792 83.6338C102.736 83.6354 102.861 83.6793 102.705 83.6811C101.664 83.6932 100.562 83.6811 99.5312 83.646C99.3709 83.6406 99.4853 83.6077 99.4752 83.6036C99.3108 83.5401 99.2045 83.6252 99.1522 83.6284C98.7399 83.6515 98.3547 83.5801 98.0746 83.6814C96.3284 83.6463 94.5903 83.7032 92.8586 83.6124C92.8366 83.6114 92.876 83.5695 92.8321 83.5676C92.3032 83.544 92.4047 83.6091 92.0548 83.6888C91.9666 83.7088 91.6984 83.6126 91.6747 83.6056C91.5882 83.5796 91.6779 83.5173 91.6489 83.5123C91.4094 83.4728 91.4484 83.6789 91.1252 83.6789C91.1151 83.6786 91.1576 83.6407 91.1305 83.6369C91.0462 83.625 90.9626 83.6401 90.8802 83.6271C90.6915 83.5968 90.6242 83.4967 90.336 83.555C90.2995 83.5625 90.3552 83.6795 90.0667 83.6739C89.9516 83.6716 89.4425 83.6736 89.2998 83.6661C89.1572 83.6585 89.2551 83.6208 89.2449 83.6192C88.8609 83.5694 89.0065 83.5487 88.8141 83.475C88.6217 83.4015 88.6751 83.5767 88.5967 83.5963C88.5181 83.6158 88.2366 83.5747 88.1673 83.5604C88.0982 83.5461 88.1844 83.5222 88.123 83.5141C87.7152 83.4612 87.944 83.6011 87.8096 83.6289C87.4929 83.6948 87.2462 83.5648 86.9562 83.552C86.8778 83.5486 86.9418 83.5782 86.8719 83.581C86.5952 83.5916 86.4288 83.551 86.114 83.5882C86.0625 83.5942 85.808 83.6724 85.6433 83.615C85.6199 83.6068 85.6862 83.5744 85.5683 83.5671C85.3921 83.5562 85.0747 83.5492 84.8853 83.56C84.7455 83.568 84.9058 83.6214 84.7298 83.6048C84.6516 83.5974 84.7965 83.5662 84.6496 83.5549C84.5034 83.5436 84.1297 83.5449 83.9875 83.546C83.8456 83.5471 83.9233 83.5876 83.9118 83.5903C83.8424 83.6059 83.5699 83.6255 83.5459 83.6254C82.3316 83.6304 81.2118 83.5621 80.0296 83.5847C79.9368 83.5864 79.9986 83.6291 79.9845 83.6298C79.6668 83.6477 79.9173 83.5342 79.6954 83.4962C79.7275 83.5828 79.5965 83.5671 79.3727 83.5766C79.2649 83.5813 79.3236 83.6148 79.3138 83.6183C79.1539 83.6692 79.0426 83.6034 79.0139 83.59C78.908 83.5404 78.7928 83.5989 78.7207 83.5658C78.6487 83.533 78.8145 83.4843 78.5999 83.4849C78.5397 83.5159 78.699 83.597 78.5361 83.6101C77.9214 83.6598 76.7741 83.5962 76.2798 83.5896C75.7866 83.583 75.6273 83.5887 75.3399 83.5775C74.8207 83.5572 75.011 83.6174 74.6886 83.6449C74.3653 83.6724 74.5225 83.5245 74.476 83.4927C74.4304 83.4609 74.3806 83.4936 74.3238 83.4761C74.2672 83.4587 74.3897 83.437 74.2567 83.4305C74.1236 83.4239 73.7596 83.4805 73.7125 83.5137C73.6127 83.5842 73.7767 83.6581 73.4245 83.6321C73.4043 83.6306 73.47 83.5917 73.3924 83.5878C72.7764 83.5578 72.1364 83.556 71.5211 83.5295C71.4365 83.5258 71.5121 83.4825 71.4629 83.4798C70.9501 83.4522 71.1334 83.5251 70.8523 83.6062C70.9154 83.4983 70.76 83.4323 70.3708 83.4317C70.1368 83.4313 70.1771 83.4784 70.0257 83.5116C69.9803 83.5216 69.8148 83.4892 69.7848 83.5114C69.6858 83.5838 69.8418 83.6649 69.4405 83.6326C69.4229 83.6311 69.479 83.5914 69.4181 83.589C69.0249 83.5733 68.9778 83.6491 68.5528 83.6582C68.2196 83.6654 67.627 83.6193 67.2476 83.6117C67.2556 83.4905 66.8973 83.5182 66.7519 83.6019C66.5057 83.5984 66.2398 83.6032 66.0018 83.5916C65.9199 83.5877 65.9737 83.5525 65.9634 83.5488C65.805 83.4892 65.698 83.5706 65.6448 83.5738C65.0689 83.6048 64.5996 83.5431 64.0499 83.6034C64.0304 83.6055 63.9988 83.6898 63.8518 83.6283C63.8423 83.624 64.0239 83.5857 63.7653 83.5827C63.5067 83.5798 63.0191 83.5346 62.6601 83.5737C62.5732 83.5831 62.3534 83.6514 62.1771 83.598C62.1536 83.5908 62.1793 83.5666 62.1454 83.5531C62.0357 83.5103 61.9758 83.5955 61.847 83.5231C61.7181 83.4508 61.45 83.3966 61.0879 83.4465C61.0764 83.448 60.9907 83.5155 60.8768 83.5144C60.695 83.5126 60.4369 83.4986 60.2472 83.499C60.1563 83.4992 60.2144 83.5411 60.1987 83.5419C59.5876 83.5654 59.1528 83.528 58.4982 83.5118C58.3782 83.5088 58.0333 83.5659 57.801 83.5207C57.5459 83.4713 57.8081 83.2655 57.2217 83.3146C56.9853 83.3342 56.6859 83.5952 56.2609 83.4599C55.4367 83.4935 54.6745 83.4242 53.848 83.4721C53.8108 83.4742 53.6933 83.5471 53.6059 83.5461C53.4762 83.5445 53.405 83.5104 53.3123 83.5082C52.9242 83.4979 52.569 83.527 52.1948 83.5225C52.0528 83.5209 52.1024 83.4857 51.933 83.4837C51.7636 83.4818 51.6507 83.5281 51.4212 83.5057C51.2479 83.4887 51.0746 83.3939 50.8446 83.3829C50.8358 83.4763 50.6778 83.4744 50.397 83.4991C50.343 83.5039 50.4008 83.5364 50.3753 83.5403C50.2714 83.5571 50.1752 83.5301 50.0766 83.5484C50.0526 83.5528 50.0514 83.5847 50.0318 83.5901C49.8649 83.6371 49.59 83.5653 49.5428 83.5528C49.3618 83.5053 49.2773 83.5468 49.1385 83.5281C48.9999 83.5094 49.2071 83.4861 49.0452 83.4747C48.7097 83.4513 48.2786 83.4564 47.9378 83.4549C47.8018 83.4546 47.8946 83.4972 47.8751 83.4981C47.594 83.5089 47.3096 83.4636 47.1537 83.5484C46.9588 83.329 46.9842 83.5697 46.5823 83.5258C46.5506 83.5222 46.5104 83.4185 46.6319 83.4032C46.7534 83.388 46.9377 83.4205 47.1064 83.3967C47.1463 83.3911 47.375 83.2939 47.4062 83.288C47.6507 83.242 47.6854 83.397 47.6983 83.4056C47.845 83.4975 48.1245 83.3927 48.1981 83.3855C48.5349 83.3523 48.821 83.3741 49.1027 83.3504C49.2868 83.3351 49.3049 83.2336 49.4495 83.2367C49.9304 83.247 50.0983 83.3887 50.5514 83.2658C50.6485 83.2396 50.552 83.1286 50.9001 83.2159C50.922 83.2214 51.1805 83.3012 51.3298 83.2507C51.3486 83.2443 51.348 83.212 51.3727 83.2093C51.5385 83.1917 51.6491 83.2175 51.8297 83.2051C52.0102 83.1928 52.2274 83.1744 52.4335 83.1853C52.5578 83.1919 52.7172 83.2522 52.7767 83.267C52.9447 83.3095 53.1247 83.2398 53.2288 83.2912C53.3337 83.343 53.1286 83.4216 53.4037 83.455C53.4139 83.3709 53.4373 83.2847 53.4537 83.2001C54.0567 83.2031 54.6499 83.2303 55.2549 83.2265C55.3299 83.226 55.2532 83.1808 55.3336 83.1791C55.6729 83.1719 55.9691 83.2041 56.321 83.1913C56.5933 83.1812 56.8919 83.1333 57.1766 83.1213C57.3505 83.2175 57.7731 83.1848 58.08 83.1936C58.1876 83.1966 58.1803 83.2223 58.2568 83.2307C58.5453 83.2617 58.4101 83.1767 58.4892 83.1633C58.8285 83.1062 58.8576 83.2986 59.2576 83.2939C59.2788 83.2937 59.5378 83.1911 59.5735 83.1847C59.8002 83.1431 59.611 83.2204 59.7529 83.228C60.012 83.2419 60.192 83.2664 60.4959 83.2363C60.5846 83.2274 60.7972 83.1635 60.9693 83.2129C60.9919 83.2194 60.9794 83.2533 60.9976 83.2553C61.3275 83.2884 61.3362 83.1819 61.5247 83.1458C61.7132 83.1097 62.0044 83.1833 62.0637 83.2045C62.2187 83.2593 61.9449 83.2279 61.9365 83.2333C61.8379 83.2973 62.0502 83.2863 62.2125 83.2917C62.236 83.3961 62.4629 83.3898 62.3807 83.2969C62.3714 83.2867 62.2451 83.2964 62.2125 83.2917C62.3549 83.1892 62.6043 83.1761 62.8798 83.2718C63.0087 83.3167 62.8868 83.369 63.2785 83.3499C63.4563 83.3413 63.3876 83.2693 63.5445 83.2497C63.9029 83.205 64.3686 83.2721 64.7381 83.2615C64.8722 83.2577 64.7415 83.2183 64.8332 83.2143C65.0764 83.2037 65.2909 83.2332 65.5352 83.2181C65.5573 83.2166 65.5032 83.1754 65.5792 83.1749C66.1551 83.1701 66.6565 83.1965 67.2577 83.1973C67.5482 83.1976 68.0676 83.1749 68.3685 83.1794C68.8901 83.1871 69.5317 83.247 69.9772 83.2325C70.2678 83.2232 70.2041 83.1819 70.3286 83.1539C70.5689 83.0994 70.9942 83.1969 71.0515 83.212C71.0532 83.2125 70.8032 83.2222 70.9366 83.2434C71.0142 83.2875 71.0487 83.2122 71.0515 83.212C71.0891 83.2218 71.5886 83.2311 71.6878 83.2233C71.7417 83.2189 71.7116 83.1799 71.7397 83.1784C72.4076 83.1434 73.0768 83.1335 73.7542 83.1518C73.7662 83.1526 73.7482 83.1962 73.7763 83.1976C74.1684 83.217 74.4196 83.1635 74.7431 83.1318C75.0665 83.1001 75.323 83.1107 75.5144 83.1857C75.7585 83.1763 76.1086 83.2094 76.31 83.2295C76.5115 83.2497 76.5396 83.1646 76.5573 83.163C77.1102 83.1092 77.4299 83.1578 78.0035 83.1654C78.2762 83.1691 78.8171 83.1568 79.1124 83.1475C79.3458 83.14 79.4863 83.1599 79.7014 83.1472C79.7304 83.1455 79.7011 83.1076 79.7099 83.1062C79.9499 83.0609 79.8346 83.1534 79.8841 83.17C80.0638 83.2301 80.1747 83.2621 80.482 83.2338C80.5529 83.2273 80.7594 83.0941 80.8886 83.0863C81.0566 83.0764 80.9932 83.1242 81.1691 83.1126C81.1842 83.1117 81.181 83.0822 81.2896 83.0835C81.7935 83.0891 82.343 83.1063 82.8666 83.1033C82.9382 83.103 82.8465 83.0563 82.9498 83.0551C83.4348 83.0496 83.9664 83.0513 84.4388 83.0732C84.5551 83.0787 84.4822 83.1114 84.5075 83.1211C84.6625 83.1799 84.8823 83.0945 84.9185 83.0929C85.7836 83.0518 86.4457 83.1291 87.3274 83.0923C87.3753 83.0902 87.7448 82.9986 87.9096 83.0771C87.9209 83.0824 88.084 83.1627 88.2281 83.1078C88.2371 83.1043 88.1355 83.063 88.3128 83.0672C88.4901 83.0714 88.7755 83.0438 89.0193 83.0892C89.0964 83.1035 89.2788 83.1837 89.509 83.1198C89.524 83.1153 89.8794 82.9709 90.0062 83.0705C90.0268 83.087 90.0053 83.1924 90.28 83.1384C90.3325 83.1279 90.2372 83.1043 90.3755 83.0896C90.5874 83.067 90.8681 83.0953 91.1286 83.0483C91.174 83.0399 91.3674 82.9684 91.5225 83.0227C91.5468 83.0312 91.5006 83.0664 91.5825 83.0704C91.9721 83.0893 92.3799 83.0657 92.7754 83.0901C92.9155 83.0986 92.8438 83.1556 92.9899 83.1708C93.1359 83.1861 93.4301 83.2007 93.5829 83.1747C93.7358 83.1487 93.5688 83.058 93.7978 83.0507C94.7932 83.0192 95.7793 83.0724 96.7732 83.0802C96.9206 83.0814 96.7984 83.0489 97.0157 83.0483C97.8166 83.0459 99.1995 83.0154 99.8945 83.0844C100.451 83.1397 99.7506 83.1817 100.176 83.2042C100.381 83.2149 100.604 83.1095 100.653 83.1061C101.137 83.0724 101.474 83.1191 101.91 83.1048C102 83.1018 101.912 83.0591 101.988 83.057C102.25 83.0496 102.525 83.0687 102.775 83.0652C102.887 83.0635 102.866 83.0309 102.969 83.0334C103.216 83.039 103.435 83.0528 103.676 83.0834C103.698 83.0862 103.55 83.1268 103.732 83.1283C104.028 83.1306 104.395 83.1608 104.735 83.1296C104.836 83.1202 104.84 83.0456 105.057 83.0972C105.103 83.1079 105.045 83.1975 105.297 83.1201C105.34 83.1072 105.765 83.0028 105.973 83.0701C106.028 83.0878 106.168 83.1612 106.29 83.1496C106.306 83.1478 106.24 83.1077 106.341 83.1038C106.695 83.0907 107.067 83.095 107.431 83.0824C107.528 83.079 107.383 83.0375 107.528 83.0337C107.927 83.0233 108.425 83.0338 108.814 83.0468C108.958 83.0517 108.859 83.086 108.869 83.0898C109.037 83.1506 109.137 83.0685 109.193 83.0637C109.54 83.035 109.804 83.0736 110.124 83.0634C110.212 83.0607 110.15 83.0215 110.167 83.0181C110.35 82.984 110.214 83.0543 110.329 83.062C110.652 83.0839 111.013 83.0808 111.34 83.0758C111.46 83.0739 111.325 83.0285 111.432 83.0273C112.07 83.0195 112.733 83.0239 113.356 83.0489C113.473 83.0537 113.399 83.0886 113.424 83.0966C113.592 83.1525 113.839 83.0763 113.895 83.069C114.154 83.0359 114.254 83.0668 114.482 83.061C115.595 83.0323 116.97 83.0528 118.022 83.0654C119.391 83.0817 120.454 83.1149 121.761 83.1063C121.844 83.1058 121.76 83.0593 121.831 83.0583C122.755 83.0471 123.665 83.0652 124.591 83.0518C124.667 83.0508 124.557 83.0067 124.679 83.0036C124.929 82.9969 125.246 82.9993 125.499 83.0134C125.622 83.0201 125.457 83.058 125.581 83.064C125.87 83.0782 126.18 83.0813 126.477 83.0743C126.603 83.0712 126.413 83.0261 126.577 83.0256C127.696 83.0211 128.795 83.0133 129.925 83.0717C130.003 83.0757 130.071 83.1673 130.236 83.1498C130.248 83.1243 130.248 83.0944 130.253 83.0673C131.882 83.0526 133.494 83.0844 135.127 83.0893C135.196 83.0895 135.077 83.0409 135.211 83.0411C135.982 83.0418 136.732 83.0283 137.521 83.0766C137.599 83.0813 137.559 83.1667 137.79 83.1538C137.831 83.1514 138.178 83.1401 138.268 83.1215C138.28 83.1187 138.217 83.0789 138.329 83.0777C138.98 83.0716 139.662 83.0807 140.312 83.1051C140.417 83.1091 140.305 83.1516 140.38 83.1548C140.909 83.1773 141.486 83.145 141.992 83.1836C142.331 83.2095 142.205 83.2829 142.386 83.3552C142.411 83.3653 142.621 83.367 142.632 83.409C142.66 83.5147 142.558 83.6304 142.6 83.743C142.608 83.7673 142.89 83.7412 142.723 83.7998C142.711 83.8037 142.508 83.8232 142.458 83.8431C142.423 83.8568 142.486 83.8996 142.414 83.9172C142.343 83.9348 142.265 83.8989 142.146 83.9196C142.028 83.9405 142.08 83.9892 141.844 83.9949ZM77.2172 83.3194C77.4037 83.3603 77.4312 83.2107 77.2295 83.2465C77.2197 83.2484 77.2076 83.3174 77.2172 83.3194ZM54.6466 83.3431C54.8904 83.409 55.0573 83.312 54.8853 83.2611C54.7132 83.2102 54.5723 83.3231 54.6466 83.3431ZM52.1176 83.3912C52.4026 83.4432 52.4475 83.2312 52.1422 83.274C52.1245 83.2765 52.1009 83.3882 52.1176 83.3912ZM141.55 83.3757C141.553 83.3777 141.704 83.3796 141.707 83.3777C141.788 83.3302 141.486 83.3263 141.55 83.3757ZM49.6081 83.4436C49.6971 83.4723 49.9533 83.4392 49.8427 83.4035C49.7537 83.3749 49.4972 83.408 49.6081 83.4436ZM86.9484 83.4791C86.9513 83.4813 87.0595 83.4833 87.0573 83.4707C87.0499 83.4301 86.8995 83.4416 86.9484 83.4791ZM45.3428 83.4461C45.973 83.4541 46.3551 83.6292 45.6688 83.6095C45.5445 83.6059 45.9366 83.5536 45.7785 83.5378C45.4891 83.5091 45.2969 83.619 45.0015 83.5601C44.948 83.5493 45.3069 83.4452 45.3439 83.4458C45.3436 83.4459 45.3432 83.446 45.3428 83.4461ZM77.3246 83.4991C77.3283 83.501 77.478 83.5029 77.4816 83.501C77.5627 83.4535 77.2611 83.4497 77.3246 83.4991ZM93.2592 83.5715C93.2674 83.5757 93.6149 83.5797 93.6262 83.5758C93.8074 83.4982 93.105 83.49 93.2592 83.5715ZM67.2417 83.6085C67.0783 83.6563 66.8829 83.6619 66.7527 83.6019C66.915 83.6051 67.0784 83.6056 67.2417 83.6085Z" fill="black"/>
</svg>
