<svg xmlns="http://www.w3.org/2000/svg" width="201" height="32" fill="none" viewBox="0 0 201 32"><path fill="#0ba6e2" d="M32.6 0h-16l-.7.3-15.6 16A1 1 0 0 0 .9 18H16v13a1 1 0 0 0 1.6.6l16-15.6q.3-.2.3-.6V1.2Q33.8.1 32.6 0"/><path fill="url(#a)" d="M16 17.9V31a1 1 0 0 0 1.6.6l16-15.6q.3-.2.3-.6V1.2Q33.8.1 32.6 0h-16q-.6 0-.7.5"/><path fill="#fff" d="M45.3 21.5V1.2h8.5l1.7.1q1.8.3 3 1.2 1 1 1.7 2.3.5 1.5.5 3.1 0 1.8-.5 3.1t-1.7 2.3-3 1.2l-1.7.1h-4.7v6.9zM49 11h6q.8-.3 1.2-.7.5-.5.6-1.1a5 5 0 0 0 0-2.4q0-.6-.6-1-.5-.6-1.2-.8l-.6-.1H49zm18.7-4.7h-3.9v15.2h3.9zm0-3.7a2 2 0 0 0-3.8 0v.1a2 2 0 0 0 3.8 0m17.7 7a7 7 0 0 0-6.3-3.9 6 6 0 0 0-3.9 1.3v-.8h-3.4v22h3.9v-7.4q1.5 1 3.6 1t3.7-1 2.5-3q.8-1.7.8-4t-.9-4.2M82 16.2q-.3 1-1.2 1.7t-2 .6-2-.6-1.1-1.6q-.4-1-.4-2.4t.4-2.4 1-1.7a3 3 0 0 1 2-.5q1.2 0 2 .6t1.3 1.7.4 2.3-.4 2.3m21.4-1.2q.2-2.8-.6-4.8a6.5 6.5 0 0 0-6.5-4.3q-2.3 0-4 1t-2.7 2.8a9 9 0 0 0-1 4.4 8 8 0 0 0 1 4 7 7 0 0 0 2.8 2.8 8 8 0 0 0 8.1-.2 7 7 0 0 0 2.8-3.2l-3.9-1q-.5.8-1.2 1.3-.8.6-2 .5-1.7 0-2.6-1.1-.7-.9-.9-2.3zm-10.6-3q.3-1 .8-1.7.9-1.2 2.8-1.2t2.5 1q.4.6.6 1.9zm25.8 2a5 5 0 0 0 2.2-1.7 7 7 0 0 0 1.2-4.4q0-1.7-.5-3-.6-1.5-1.7-2.4t-3-1.2h-10.3v20.2h3.9v-6.9h4.2l3.4 6.9h4.3zm-8.2-9.2h4.5l1.3.1q.8.3 1.2.7.4.5.6 1.1l.2 1.2-.2 1.2q-.2.6-.6 1t-1.2.8l-.6.1h-5.2zm21.8 17.1q-2.2 0-4-1t-2.7-2.9q-1-1.8-1-4.1 0-2.4 1-4.2a7 7 0 0 1 2.8-2.8q1.6-1 4-1 2.2 0 4 1t2.7 2.8q1 1.8 1 4.2t-1 4.1a7 7 0 0 1-2.7 2.9q-1.8 1-4 1m0-3.6q2 0 2.8-1.2.9-1.4.9-3.2 0-2-1-3.3-.8-1.2-2.7-1.2-1.2 0-2 .6t-1.2 1.6-.4 2.3q0 2 1 3.2.8 1.2 2.6 1.2m17.4 3.6q-2.3 0-4-1a7 7 0 0 1-2.6-3 9 9 0 0 1-.9-4q0-2.3 1-4.1a7 7 0 0 1 6.6-4q2.7 0 4.5 1.4a6 6 0 0 1 2.3 3.7l-3.8 1q-.3-1.2-1.2-1.8a3 3 0 0 0-1.9-.7q-1.2 0-2 .6-.7.6-1 1.6t-.4 2.3q0 2 .8 3.2 1 1.2 2.6 1.2 1.4 0 2-.6t1-1.7l4 .9a7 7 0 0 1-2.5 3.7 7 7 0 0 1-4.5 1.3m9.7-.4V1.2h4v12.4l5-7.3h4.8l-5.5 7.6 5.9 7.6h-5l-5.3-7.3v7.3zm29.3-6.5q.2-2.8-.6-4.8a7 7 0 0 0-2.5-3.2 7 7 0 0 0-4-1.1q-2.4 0-4 1t-2.8 2.8q-1 1.9-1 4.4a8 8 0 0 0 1 4 7 7 0 0 0 2.9 2.8 8 8 0 0 0 8.1-.2 7 7 0 0 0 2.7-3.2l-3.8-1q-.4.8-1.2 1.3t-2 .5q-1.6 0-2.7-1.1-.6-.9-.8-2.3zM178 12q.2-1 .7-1.7.9-1.2 3-1.2 1.5 0 2.3 1 .5.6.7 1.9zm18.5-2.8v5.6l.3 2.7q.6.9 1.7 1l2.4-.2v3.2q-1.5.3-3 .2-1.6 0-2.8-.5t-1.8-1.6l-.6-2.1V9.2h-2.6v-3h2.6v-4h3.8v4.2h4.4v3z"/><defs><linearGradient id="a" x1="15.9" x2="33.9" y1="16" y2="16" gradientUnits="userSpaceOnUse"><stop stop-color="#ff0025"/><stop offset="1" stop-color="#ff0025"/></linearGradient></defs></svg>