<svg xmlns="http://www.w3.org/2000/svg" width="34" height="32" fill="none" viewBox="0 0 34 32"><path fill="#0ba6e2" d="M32.6 0h-16l-.7.3-15.6 16A1 1 0 0 0 .9 18H16v13a1 1 0 0 0 1.6.6l16-15.6q.3-.2.3-.6V1.2Q33.8.1 32.6 0"/><path fill="url(#a)" d="M16 17.9V31a1 1 0 0 0 1.6.6l16-15.6q.3-.2.3-.6V1.2Q33.8.1 32.6 0h-16q-.6 0-.7.5"/><defs><linearGradient id="a" x1="15.9" x2="33.9" y1="16" y2="16" gradientUnits="userSpaceOnUse"><stop stop-color="#ff0025"/><stop offset="1" stop-color="#ff0025"/></linearGradient></defs></svg>