<svg width="538" height="517" viewBox="0 0 538 517" fill="none" xmlns="http://www.w3.org/2000/svg">
<path d="M299.705 1.61523H520.594L520.984 1.62012C529.153 1.82463 535.738 8.43799 535.738 16.5947V210.07C535.738 213.037 534.565 215.814 532.464 217.837L532.463 217.838L312.515 429.975H312.514C305.577 436.669 293.916 431.749 293.916 422.206V241.112H85.4106C75.7014 241.112 70.8343 229.55 77.5435 222.733V222.732L291.837 4.86426L291.839 4.86328C293.879 2.78538 296.757 1.61523 299.705 1.61523Z" stroke="#0BA6E2" stroke-width="3.23"/>
<mask id="path-2-inside-1_287_1304" fill="white">
<path d="M292.289 2.61779L292.289 422.207C292.289 433.203 305.683 438.801 313.624 431.137L533.572 219C535.995 216.668 537.341 213.469 537.341 210.07V16.5951C537.341 7.39777 529.803 0 520.582 0H299.625C296.26 0 290.607 1.39958 290.607 7.06454"/>
</mask>
<path d="M292.289 422.207H289.059H292.289ZM313.624 431.137L311.381 428.812L311.381 428.813L313.624 431.137ZM533.572 219L531.332 216.673L531.33 216.675L533.572 219ZM292.289 2.61779H289.059L289.059 422.207H292.289H295.519V2.61779H292.289ZM292.289 422.207H289.059C289.059 436.112 305.918 443.063 315.867 433.461L313.624 431.137L311.381 428.813C305.448 434.539 295.519 430.294 295.519 422.207H292.289ZM313.624 431.137L315.866 433.462L535.815 221.325L533.572 219L531.33 216.675L311.381 428.812L313.624 431.137ZM533.572 219L535.813 221.327C538.878 218.376 540.571 214.332 540.571 210.07H537.341H534.111C534.111 212.606 533.112 214.96 531.332 216.673L533.572 219ZM537.341 210.07H540.571V16.5951H537.341H534.111V210.07H537.341ZM537.341 16.5951H540.571C540.571 5.57571 531.548 -3.23 520.582 -3.23V0V3.23C528.057 3.23 534.111 9.21984 534.111 16.5951H537.341ZM520.582 0V-3.23H299.625V0V3.23H520.582V0ZM299.625 0V-3.23C297.598 -3.23 294.727 -2.82472 292.24 -1.38986C289.57 0.150419 287.377 2.90017 287.377 7.06454H290.607H293.837C293.837 5.56395 294.47 4.78143 295.468 4.20568C296.649 3.52451 298.286 3.23 299.625 3.23V0Z" fill="#FC5B70" mask="url(#path-2-inside-1_287_1304)"/>
<path d="M138.823 491.467L212.102 415.561" stroke="#F6F6F1" stroke-width="0.979743"/>
<path d="M102.626 416.411L175.905 340.505" stroke="#F6F6F1" stroke-width="0.979743"/>
<path d="M0.352539 407.108L73.6314 331.202" stroke="#F6F6F1" stroke-width="0.979743"/>
</svg>
