<svg xmlns="http://www.w3.org/2000/svg" width="538" height="517" fill="none" viewBox="0 0 538 517"><path stroke="#0ba6e2" stroke-width="3.2" d="M299.7 1.6H521a15 15 0 0 1 14.7 15V210q0 4.6-3.2 7.7L312.5 430a11 11 0 0 1-18.6-7.8v-181H85.4a10.8 10.8 0 0 1-7.9-18.5L291.8 5c2-2.1 5-3.3 7.9-3.3Z"/><mask id="a" fill="#fff"><path d="M292.3 2.6v419.6c0 11 13.4 16.6 21.3 9l220-212.2q3.7-3.6 3.7-9V16.7c0-9.2-7.5-16.6-16.7-16.6h-221c-3.3 0-9 1.4-9 7"/></mask><path fill="#fc5b70" d="M292.3 422.2H289zm21.3 9-2.2-2.4zm220-212.2-2.3-2.3zM292.3 2.6H289v419.6h6.4V2.6zm0 419.6H289c0 14 16.8 20.9 26.8 11.3l-2.3-2.4-2.2-2.3c-6 5.7-15.9 1.5-15.9-6.6zm21.3 9 2.3 2.3 220-212.2-2.3-2.3-2.3-2.3-220 212.1zm220-212.2 2.2 2.3c3-3 4.8-7 4.8-11.2H534q0 3.9-2.8 6.6zm3.7-9h3.3V16.7H534v193.5zm0-193.4h3.3c0-11-9-19.8-20-19.8v6.4c7.5 0 13.5 6 13.5 13.4zM520.6 0v-3.2h-221v6.4h221zm-221 0v-3.2c-2 0-4.9.4-7.4 1.8a9 9 0 0 0-4.8 8.5h6.4a3 3 0 0 1 1.7-2.9c1.1-.7 2.8-1 4.1-1z" mask="url(#a)"/><path stroke="#f6f6f1" d="m138.8 491.5 73.3-76m-109.5.9 73.3-75.9M.4 407.1l73.2-75.9"/></svg>