<svg width="227" height="130" viewBox="0 0 227 130" fill="none" xmlns="http://www.w3.org/2000/svg">
<mask id="path-1-inside-1_287_960" fill="white">
<path d="M-73.8556 56.7121C-70.1796 54.7958 -66.6776 57.3501 -63.0034 57.2074C-61.7682 55.6226 -60.6173 56.8054 -59.4279 56.7324C-56.7214 54.0735 -54.1286 58.3778 -51.5529 55.7687C-49.7441 55.5585 -47.8201 57.3535 -46.1226 55.4498C-45.2142 55.0888 -44.8022 57.8958 -43.7403 56.4602C-42.5148 55.0409 -41.3573 53.7276 -40.264 56.1258C-40.0678 56.5559 -39.21 56.7847 -38.9153 56.4815C-37.5048 55.0255 -36.2671 56.0824 -34.9554 55.9909C-34.0011 55.9238 -33.1473 56.9265 -32.07 55.7719C-31.2401 54.882 -30.2742 56.1856 -29.5826 55.6106C-28.8843 55.0296 -28.1556 55.022 -27.4302 54.3622C-26.2182 48.5831 -26.1808 42.263 -24.1983 36.7845C-23.1502 35.115 -23.3984 32.8294 -22.925 30.8569C-21.9301 30.1499 -21.8059 28.8088 -21.6149 27.5164C-18.8874 24.0499 -20.5339 16.9714 -18.0333 13.299C-17.3777 11.6633 -17.2355 9.21004 -16.7962 7.36389C-15.1915 5.85743 -16.197 3.04248 -14.3173 1.78417C-13.2431 2.74602 -11.6172 3.61545 -12.1554 6.12497C-12.7729 8.85969 -12.6542 11.5995 -14.1132 14.0683C-14.9083 15.3466 -14.299 17.734 -15.6251 19.162C-16.3919 21.7677 -16.7228 25.221 -17.143 28.0341C-17.3036 29.6338 -18.5469 30.2623 -18.5988 31.958C-19.1992 40.0011 -22.7946 47.5002 -22.7959 55.5991C-21.6212 54.0294 -20.2516 55.1771 -18.9539 55.1046C-18.0366 53.7936 -17.0183 54.0719 -16.1436 54.4563C-15.1145 54.9087 -14.284 53.3787 -13.2957 53.6654C-10.0723 54.6631 -6.7249 54.4657 -3.497 53.9308C-2.08405 52.5105 -2.55277 54.5554 -1.50496 54.3962C1.3462 51.8187 3.97871 56.4202 6.61323 52.2536C9.80779 52.2113 13.2834 54.7384 16.4016 52.4635C18.3564 50.8944 20.2685 52.5372 22.2301 52.4123C22.8183 52.4707 23.2942 51.069 23.9357 51.5789C25.5964 54.562 28.3324 52.8867 30.5889 51.4798C31.0607 51.349 31.8091 51.9997 31.9506 51.2212C32.1799 49.9614 33.1233 49.5884 33.268 48.5026C33.4329 47.2688 34.0465 45.9465 33.3949 44.777C33.2576 35.9956 38.1827 27.3555 37.4987 18.7062C37.1561 17.456 37.6375 16.2515 38.4515 15.3741C39.2104 14.5551 40.047 14.4268 40.7259 15.4865C45.3784 18.4374 38.6287 30.8019 40.5116 36.4334C40.0033 38.1413 40.4901 40.2474 39.1063 41.6414C38.2342 44.2533 38.0237 48.0884 37.5159 50.4728C37.8481 51.5011 38.0485 52.122 38.2487 52.742C39.2331 51.2613 40.3915 52.1216 41.536 51.9159C42.3324 50.5962 43.1834 51.1909 44.0059 51.3C45.3641 51.4803 46.7885 51.4528 48.045 52.0131C49.3107 52.5775 50.4303 51.0626 51.6366 51.3125C52.5478 51.5011 53.5331 52.2427 54.462 50.7134C58.3774 51.1778 62.3776 51.9943 66.2414 52.5061C67.4288 50.3522 68.8818 52.8706 70.123 51.1974C71.9039 49.2469 72.2693 54.2385 73.907 51.6346C75.8828 51.8745 78.6203 49.2904 79.979 52.3173C80.0657 52.6132 80.6564 52.5438 81.0248 52.5672C83.7632 50.6606 86.7784 53.6678 89.5434 51.1438C89.5469 48.8868 91.7181 47.4079 91.0609 45.1508C90.1623 43.338 91.4547 41.9073 92.0957 40.3047C92.6046 38.2114 92.3551 35.7814 93.8516 34.1392C94.9405 29.1974 94.7354 24.0827 96.8832 19.4574C97.8264 17.788 96.9774 14.9123 98.6376 13.3147C99.2634 9.57593 99.8902 5.83815 100.475 2.09284C102.759 -1.71319 103.945 2.44194 105.186 5.50921C104.813 6.82931 105.223 9.08399 103.717 10.5381C103.243 12.6785 102.994 15.0414 102.598 17.2491C100.055 20.454 101.428 26.8239 99.0539 30.1637C97.9704 34.0612 98.6013 38.6353 96.3881 41.9556C95.8524 45.3145 95.3168 48.6733 94.7853 52.0062C96.4734 52.7202 96.4721 52.7386 97.9275 52.1607C99.1814 51.5011 100.629 52.4358 101.943 52.4004C104.672 49.6064 107.623 54.2861 110.551 51.5113C111.774 51.6443 112.997 51.7775 114.22 51.9098C116.401 49.3173 123.199 54.3815 125.449 51.6835C127.12 51.2815 128.859 53.0993 130.527 51.6789C131.236 50.7883 131.966 51.5599 132.677 51.6069C133.431 51.6573 133.937 50.2932 134.783 50.7023C136.867 50.8869 139.242 52.333 141.341 50.9867C143.25 49.9576 145.677 52.7623 147.454 50.6802C148.395 50.5827 149.445 51.2842 150.313 50.3128C150.998 49.559 151.451 49.8055 151.822 50.6808C152.433 52.1233 153.074 50.9434 153.704 50.3125C154.442 50.4294 155.18 50.547 155.92 50.6651C156.675 49.8339 157.431 49.0004 158.191 48.1638C158.564 42.7426 161.045 44.5735 158.733 40.1442C159.223 38.1585 159.053 35.1796 160.39 33.5898C160.712 33.168 160.828 32.1821 160.845 31.4783C160.866 30.6256 160.155 30.1028 160.499 29.0029C160.729 28.2694 160.644 27.6314 160.381 26.9511C160.003 25.9676 160.175 24.7013 160.836 23.965C161.907 22.7748 161.577 21.1941 161.941 19.8224C161.038 18.6367 161.562 16.9906 161.931 15.6744C162.392 14.0255 161.343 13.0915 161.743 11.4813C162.075 10.1416 162.663 8.52955 161.798 7.2978C162.311 4.7099 161.921 1.09918 164.155 0.0715015C164.705 -0.247472 164.97 0.56328 165.211 1.16487C165.9 2.1388 164.917 3.91586 166.312 3.8651C166.46 3.87542 166.675 4.3801 166.644 4.64406C166.456 6.26591 165.892 7.94266 166.659 9.3755C166.164 13.0096 165.219 16.7922 165.661 20.2716C165.512 24.38 163.265 29.2431 164.385 32.8935C164.102 34.7628 163.819 36.6329 163.536 38.5022C164.717 41.5291 162.836 45.4126 162.641 48.8559C163.174 50.1143 164.212 49.4512 164.984 49.7989C167.042 47.7432 169.059 49.9086 171.132 49.5635C173.331 47.8114 175.734 49.613 178.113 49.5829C179.492 47.9158 179.99 46.8845 181.332 48.692C182.527 47.5289 183.939 48.1165 185.242 48.1599C186.068 46.8219 186.903 47.6511 187.725 47.6671C188.567 47.683 189.264 46.2934 190.2 46.8388C190.85 47.2185 191.664 47.0954 192.395 47.2509C193.14 47.4095 193.698 45.7988 194.486 46.4153C195.342 47.085 196.008 44.9876 196.962 45.5987C197.563 45.9837 198.281 45.7003 199.081 45.1947C199.93 44.6589 201.017 45.5034 201.977 45.2206C204.649 43.7084 207.013 45.2924 209.829 45.4037C210.288 44.7721 210.876 43.9621 211.329 43.3368C212.796 43.5706 214.025 43.7666 215.264 43.9643C215.796 43.37 216.334 42.7695 217.076 41.9408C220.376 43.4231 224.025 39.6959 226.479 44.5297C227.746 47.2175 222.734 49.9959 221.354 49.5796C219.763 48.3913 218.317 50.2546 216.684 49.9888C215.977 49.7391 215.214 49.7262 214.476 49.6085C213.268 51.0844 212.1 50.2288 210.91 50.2256C209.9 50.718 208.847 51.2955 207.819 51.9239C205.882 52.4807 203.558 50.2293 201.641 51.5471C200.868 52.5052 200.186 51.5308 199.508 52.0221C198.056 53.7007 196.374 51.9018 194.81 52.312C193.759 52.4185 192.692 53.4483 191.616 52.9C190.879 52.5252 190.348 54.1746 189.517 53.7573C188.846 53.4203 188.055 53.4773 187.317 53.3596C186.07 55.5147 184.423 52.8981 183.102 54.9467C182.909 55.244 181.907 55.0515 181.751 54.6349C180.734 52.0029 179.723 54.4609 178.619 55.437C177.494 55.4116 175.776 54.577 174.724 55.213C173.17 56.4198 171.858 55.2025 170.348 55.3083C169.671 55.8547 169.099 56.8051 168.457 55.669C167.737 54.0245 166.448 57.9033 165.234 54.6183C163.781 55.1701 163.055 58.2359 161.295 57.293C160.509 62.2238 159.847 66.7226 159.053 71.1943C158.71 73.1257 158.974 75.4111 157.456 76.8332C157.147 78.701 156.817 80.5664 156.551 82.4393C157.098 83.7203 157.272 85.5581 156.069 86.7688C155.462 87.6084 155.563 89.4099 156.484 88.1242C160.148 85.5269 163.091 86.3562 166.519 86.9683C167.33 87.0604 168.166 87.7765 169.012 86.462C170.421 86.1182 171.975 86.8629 173.401 86.9321C174.609 85.5074 175.787 86.1798 176.964 86.3551C177.812 86.4815 178.495 85.0209 179.439 85.5269C180.213 85.9412 181.143 85.8579 182.004 85.9953C182.793 84.157 183.896 85.715 184.79 84.8912C185.1 84.6063 185.578 84.197 185.792 84.3435C186.706 84.9677 187.445 83.2789 188.263 83.5491C189.569 83.9794 190.873 83.6974 192.2 83.0035C193.478 83.9192 194.848 81.7766 196.132 82.4758C196.917 81.545 197.739 81.3561 198.589 81.7128C200.23 79.6991 202.212 81.5751 203.988 81.4188C205.574 79.141 207.606 79.5437 210.14 77.8158C210.32 77.7339 210.732 78.0233 210.724 78.1715C210.609 80.4434 211.771 81.597 212.341 83.2531C211.485 84.5298 211.02 86.0482 209.997 86.8895C208.92 86.189 207.882 87.8105 206.813 87.6428C204.84 86.8779 203.058 87.7027 201.127 88.9387C200.57 89.4043 199.653 88.944 198.957 88.6651C198.065 88.308 197.428 90.0749 196.471 89.5208C194.966 88.9183 193.006 89.0487 191.481 88.6606C190.804 89.405 190.263 89.9996 189.646 90.6768C188.125 90.6896 186.581 89.4203 185.021 90.9905C184.524 91.5427 183.689 90.4775 182.917 91.5225C182.217 92.4711 181.226 90.8956 180.468 92.3672C179.605 91.7865 178.893 90.2928 177.754 91.7001C176.861 92.6356 175.766 91.246 174.973 92.8713C173.48 93.0418 172.099 91.6922 170.623 92.9734C169.11 93.9224 167.453 92.5944 165.883 92.6615C164.669 94.4707 163.507 93.0687 162.319 93.2692C160.842 94.4246 158.968 93.8516 157.565 93.6447C156.609 94.6957 155.859 95.5196 155.056 96.4014C154.139 100.117 154.409 104.983 152.608 108.252C152.281 108.631 151.975 109.868 152.126 110.279C152.905 112.401 152.033 114.579 151.815 116.729C149.938 120.148 150.056 124.202 149.273 127.968C149.012 129.226 147.928 129.768 147.938 131.33C147.732 133.421 146.565 138.128 149.27 135.045C150.288 137.841 150.918 138.337 152.855 135.751C154.011 135.595 155.267 136.327 156.416 136.108C157.225 135.929 158.016 134.923 158.873 135.418C160.476 133.186 162.302 136.205 163.793 133.946C164.539 136.039 166.146 135.133 167.342 135.618C167.899 135.006 168.44 134.411 169.179 133.599C171.351 134.656 173.403 131.753 175.725 132.259C176.744 132.495 177.757 133.163 178.968 132.189C180.064 131.308 181.134 132.21 182.226 132.216C183.88 130.031 185.315 132.391 187.363 131.261C187.11 131.539 187.326 131.302 187.585 131.018C189.061 132.815 189.364 131.859 190.826 130.243C191.804 129.835 192.699 131.175 193.706 129.873C194.463 128.895 195.41 130.448 196.152 129.033C198.382 128.981 200.289 126.559 202.503 127.353C203.1 127.336 203.713 125.819 204.178 126.548C204.96 127.547 206.003 127.962 206.41 129.541C205.23 132.102 203.074 132.06 201.676 134.065C201.073 134.368 200.086 133.382 199.579 134.579C198.548 136.736 196.881 134.96 195.805 136.692C193.411 135.749 191.48 137.809 188.977 136.758C188.587 137.348 188.024 138.2 187.597 138.847C186.087 138.606 184.863 138.411 183.638 138.216C181.979 140.381 180.549 138.019 178.996 138.786C177.915 139.703 176.848 139.649 175.777 139.251C174.085 139.466 172.59 141.625 170.851 140.821C170.048 140.398 169.332 142.132 168.384 141.616C166.99 141.393 163.721 139.948 162.619 141.735C161.544 140.854 160.5 142.774 159.432 142.452C156.715 144.685 153.273 141.91 150.411 142.153C149.385 143.214 148.525 144.755 147.263 143.96C144.244 146.155 145.136 152.855 143.868 156.87C143.613 158.258 144.633 158.97 144.12 160.491C142.817 164.901 143.226 169.275 142.739 173.631C143.886 175.53 142.037 178.036 143.278 179.73C142.806 182.692 142.327 185.694 141.847 188.706C142.176 189.43 142.508 190.16 142.968 191.173C142.566 193.001 142.089 196.866 143.486 197.629C143.951 197.607 144.108 198.055 144.029 198.676C143.903 200.102 141.795 201.947 141.559 200.189C141.791 197.822 140.402 196.071 141.054 193.56C139.494 188.965 139.131 183.938 139.692 178.423C138.204 172.849 140.363 170.226 139.657 165.3C139.233 164.069 140.495 162.085 139.58 160.602C140.096 155.93 141.174 150.814 141.876 145.823C141.676 145.285 140.844 143.96 140.427 144.068C138.584 146.329 136.429 143.245 134.705 144.681C133.719 145.903 132.699 144.226 131.871 145.768C129.216 146.845 126.65 143.662 123.933 146.012C122.298 145.663 120.471 146.041 119.348 143.954C118.314 145.198 117.386 146.314 116.679 147.164C114.751 147.238 113.636 145.727 111.957 147.215C111.331 148.109 110.552 146.731 109.844 147.712C109.56 148.107 109.365 148.246 109.022 147.736C108.077 146.147 106.651 146.809 105.367 147.648C104.143 147.593 102.927 147.473 101.707 147.375C100.43 148.941 99.2781 147.745 98.1219 147.595C97.1128 147.464 96.2949 148.924 95.2703 148.422C94.4859 148.038 93.5649 148.111 92.7048 147.98C91.34 149.789 90.0765 148.43 88.7712 148.474C85.5943 149.663 82.6067 147.803 79.31 149.602C79.0044 151.519 78.6832 153.533 78.5199 154.557C78.0471 156.05 77.1221 156.021 77.6221 157.062C78.1029 158.062 77.9043 159.457 77.3694 160.082C76.0718 161.597 76.4445 163.585 75.9569 165.298C76.7125 167.141 76.3289 170.855 74.8487 172.246C74.7786 174.038 73.9398 175.725 74.4555 177.681C74.8899 179.326 74.3019 180.829 73.2797 183.281C73.0161 183.913 72.657 184.914 72.7983 185.347C73.5399 187.711 72.0405 200.231 69.9612 193.4C70.085 191.512 71.181 189.085 70.1237 187.636C70.5107 186.554 69.8314 185.982 69.801 185.159C70.2423 182.559 70.1497 179.309 71.7575 177.281C71.6645 172.463 72.6042 167.073 73.4556 161.901C72.2862 158.578 74.2336 158.276 74.58 154.948C72.6238 151.925 76.8736 149.989 74.9067 148.596C74.1879 148.491 73.4073 147.909 72.9643 149.429C68.6273 148.403 64.6516 149.873 60.398 148.601C58.4714 149.899 56.7199 150.827 54.7471 150.012C53.6888 149.994 52.6596 149.023 51.5184 150.455C49.0783 151.12 46.2356 148.331 43.8971 150.46C43.7769 150.632 43.0983 150.372 43.0027 150.048C42.6259 148.773 41.7647 149.209 41.097 148.969C39.0484 151.104 36.4213 148.919 34.2187 148.989C33.2262 148.736 32.439 150.594 31.3579 149.799C23.0453 147.799 20.9375 148.22 18.9888 161.864C20.5235 165.986 16.1759 175.271 17.6807 179.207C17.2961 181.135 17.6207 183.37 16.1096 184.828C15.9608 184.972 15.8536 185.812 15.9276 185.875C17.1339 186.91 15.5515 189.265 16.5271 190.37C17.7143 196.874 18.6361 205.367 22.3157 209.254C22.9033 209.825 23.6286 209.941 23.256 211.434C23.2284 211.546 23.3806 211.865 23.4402 211.848C24.6988 211.494 25.1547 213.437 26.2384 213.562C26.7189 213.616 27.2889 213.553 27.2174 214.605C26.4959 217.795 24.2303 216.682 22.8057 216.478C22.0205 212.919 18.2001 213.309 18.1451 210.201C18.3708 207.201 15.77 207.842 16.5356 205.72C15.9093 204.061 14.9358 202.77 14.9083 200.641C14.7049 198.838 12.8357 197.758 13.6202 195.419C13.7605 193.565 12.0396 192.726 12.9094 190.496C12.2712 183.518 12.6542 175.759 14.182 168.476C14.5877 167.16 13.7014 166.548 13.8793 165.432C14.9048 161.651 14.3301 156.49 16.518 153.631C17.2377 151.389 16.1599 150.014 15.5043 148.244C14.8519 149.689 13.7186 148.815 13.0913 150.027C11.6571 149.919 10.1846 150.207 9.2007 148.73C8.53082 149.888 7.70516 149.636 7.10944 149.254C6.15322 148.639 5.54397 150.635 4.61559 150.125C3.73896 149.829 2.60644 149.298 1.76196 150.378C-0.178343 151.318 0.620454 147.258 -2.37947 150.114C-5.22092 150.904 -7.85943 150.555 -10.7138 150.183C-11.5376 151.529 -12.3791 150.728 -13.1914 150.656C-13.8683 150.478 -14.5002 148.44 -15.2254 149.65C-16.6425 150.69 -17.9029 151.222 -19.4712 150.861C-20.1876 150.887 -20.8919 150.125 -21.6195 151.046C-23.2 152.208 -25.0223 150.782 -26.5711 150.874C-28.4801 152.428 -28.6872 155.74 -28.2064 158.413C-27.8879 159.498 -28.961 161.234 -28.2046 162.615C-28.0003 162.988 -28.2959 164.027 -28.3984 164.757C-28.686 166.27 -28.112 167.85 -27.8652 169.232C-27.4025 170.267 -28.3868 171.518 -27.845 172.376C-27.3458 173.168 -27.8186 174.168 -27.7037 174.945C-27.7842 176.729 -26.6313 178.66 -27.2271 180.339C-28.5694 181.76 -27.4818 181.529 -26.9815 182.121C-25.3305 183.889 -26.5267 187.676 -25.5041 189.822C-24.9704 191.32 -24.9222 193.126 -24.8072 194.775C-25.0099 203.027 -19.0916 200.725 -20.9016 206.881C-22.4001 207.442 -24.0886 206.46 -25.5945 206.45C-26.0043 202.837 -27.8314 200.389 -29.0022 197.31C-28.8321 196.04 -28.4908 194.737 -29.2238 193.729C-30.1411 190.235 -30.5024 186.218 -31.22 182.533C-31.447 181.213 -31.8825 179.931 -31.33 178.378C-31.3245 175.589 -32.2374 172.809 -32.3902 169.926C-33.3182 169.025 -32.1684 167.303 -32.6562 166.396C-33.22 165.349 -32.9005 164.272 -32.6655 163.246C-32.3126 161.709 -33.3111 160.67 -32.814 159.068C-32.4948 158.04 -33.4909 157.351 -33.0876 156.04C-32.7674 154.999 -32.7035 153.827 -32.5409 152.807C-34.2664 148.467 -33.3439 153.053 -38.7239 151.244C-39.995 152.865 -40.1003 152.27 -41.0847 151.095C-42.8082 153.212 -44.634 149.877 -46.4126 152.264C-49.0805 152.336 -51.8027 150.502 -54.4425 151.791C-56.4475 153.089 -57.3317 150.178 -59.0693 150.384C-60.5617 152.772 -62.228 152.276 -63.9886 151.817C-64.8497 151.616 -65.5067 153.094 -66.4696 152.673C-67.3138 152.304 -68.3538 151.725 -69.2793 153.246C-70.1496 152.852 -71.2769 153.614 -71.9361 152.151C-72.342 151.25 -73.2324 151.084 -73.8847 151.878C-74.6811 152.848 -75.3262 152.035 -76.061 152.36C-77.0511 154.324 -76.9598 157.106 -77.4823 159.379C-76.5389 160.98 -77.4568 162.884 -77.5484 164.659C-77.0983 168.236 -76.1791 170.799 -76.9084 174.805C-76.5682 175.296 -76.0653 176.024 -75.7883 176.424C-75.8302 178.587 -76.7428 180.363 -75.7466 181.708C-76.5589 184.403 -75.1127 186.275 -75.3146 188.903C-74.9592 195.583 -74.0986 202.78 -71.976 208.402C-70.3952 212.529 -70.1856 218.266 -67.087 220.967C-66.4142 221.425 -66.3541 222.959 -65.352 223.291C-64.3743 223.615 -63.7629 221.677 -62.883 222.364C-61.2104 220.289 -59.1926 222.946 -57.2967 221.234C-57.0563 222.513 -57.5448 223.771 -57.7042 224.996C-58.4779 225.846 -59.2335 226.676 -59.9989 227.518C-61.0492 227.453 -62.115 226.718 -63.1791 228.164C-64.6431 227.902 -66.1072 227.64 -67.5712 227.378C-68.1335 225.569 -69.8571 226.102 -70.4926 224.119C-71.899 220.298 -73.7025 216.637 -75.3951 213.12C-76.797 209.633 -76.0468 204.708 -77.7821 201.495C-77.9753 201.267 -78.0311 200.391 -77.8799 200.028C-77.2629 198.547 -78.3435 197.821 -78.1844 196.409C-78.0437 195.164 -79.5038 194.455 -79.0032 192.607C-78.603 191.129 -79.9244 190.053 -79.0926 188.454C-79.4092 187.531 -79.7263 186.609 -80.126 185.444C-79.7101 183.934 -79.6856 181.988 -80.0933 180.492C-80.5963 177.991 -79.9727 175.393 -80.9979 173.011C-81.0831 172.542 -81.0332 171.909 -80.8999 171.411C-80.3504 169.358 -81.3602 167.647 -80.9095 165.635C-81.8405 164.735 -80.6586 162.993 -81.1775 162.111C-81.6909 161.237 -81.1529 159.929 -81.7247 159.135C-81.8064 156.965 -81.2861 154.563 -82.0345 152.485C-82.5939 150.407 -83.8066 150.852 -84.184 152.906C-88.4156 153.142 -92.7698 151.562 -97.1075 151.17C-102.109 157.489 -102.045 151.177 -103.52 152.858C-104.59 154.063 -105.442 152.996 -106.395 153.128C-107.257 150.755 -109.248 151.949 -110.788 151.298C-110.469 148.382 -112.478 147.87 -109.711 145.696C-107.601 145.732 -105.465 147.166 -103.25 146.061C-102.158 145.182 -101.084 146.081 -99.9916 146.092C-99.2123 144.255 -98.1078 145.793 -97.2092 144.952C-95.1413 142.652 -93.7356 147.365 -91.9423 145.617C-89.3093 142.968 -86.6556 146.336 -84.5003 143.968C-83.9453 144.199 -83.2393 143.766 -82.808 144.583C-82.6549 144.873 -82.6189 145.824 -82.0978 145.013C-81.4149 143.595 -82.7447 142.578 -82.1244 140.932C-81.1027 138.403 -82.5497 136.9 -81.8562 134.536C-82.6293 133.554 -82.3396 132.174 -82.0002 130.951C-81.6419 129.66 -82.5637 129.119 -82.3321 127.903C-82.135 126.867 -81.6841 125.752 -82.1427 124.684C-82.6869 123.263 -81.7303 121.342 -81.8183 119.83C-81.8614 118.824 -82.4197 118.001 -82.0482 116.783C-81.695 115.626 -82.74 115.051 -82.3441 113.742C-81.7728 111.203 -81.5434 108.472 -81.0588 105.876C-82.1043 103.371 -82.1044 103.371 -81.8541 100.973C-83.5353 99.5721 -85.9611 100.133 -87.9259 99.5254C-88.6993 100.661 -89.6051 100.046 -90.3658 100.415C-91.3606 100.897 -91.2629 97.8004 -92.384 99.6987C-94.2534 100.143 -96.0168 98.3422 -97.8001 100.035C-97.8334 100.08 -98.094 99.744 -98.2417 99.5728C-100.105 97.118 -102.485 100.003 -104.531 99.1809C-105.598 99.2061 -106.618 98.2769 -107.761 99.7712C-108.017 100.105 -109.017 99.9343 -109.143 99.541C-109.583 98.1648 -110.475 98.2975 -111.267 98.0351C-112.19 95.1678 -115.842 98.5276 -111.25 91.6569C-109.68 89.8645 -109.265 93.498 -108.178 92.0176C-105.495 90.9944 -102.967 94.1176 -100.229 91.8051C-99.0553 91.9904 -97.6672 91.9111 -96.5669 92.4545C-95.4973 93.0132 -94.6589 91.5579 -93.7199 91.6882C-91.1591 91.5934 -88.6048 93.5836 -86.0491 91.9503C-85.5253 91.4714 -84.7165 91.795 -84.1379 92.6919C-82.2368 95.2907 -79.9901 90.5785 -81.2109 87.9919C-81.0977 86.5553 -80.4457 85.0101 -81.3292 83.8373C-80.9273 82.4768 -81.1273 80.9974 -80.1831 79.6783C-79.3128 78.4624 -79.4698 76.5061 -79.1764 74.902C-79.5185 74.14 -79.8473 73.4075 -80.2241 72.5684C-79.8253 70.0676 -79.4102 67.4651 -78.9337 64.4771C-79.4378 63.7706 -80.0384 62.9312 -80.8449 61.8025C-81.077 61.8477 -81.5411 62.8799 -82.2649 63.486C-85.3741 63.404 -88.5004 61.5136 -91.698 62.6582C-92.7792 63.5318 -93.8596 62.5434 -94.9584 62.6626C-95.3937 62.7099 -95.8732 64.0527 -96.28 63.5139C-98.0996 61.1059 -100.666 62.1344 -102.832 61.3611C-103.794 59.517 -105.392 59.9385 -106.769 59.5544C-108.969 57.8985 -110.701 55.7183 -111.877 52.4314C-111.701 51.3276 -111.523 50.2066 -111.34 49.064C-108.126 45.1296 -108.652 50.0126 -106.638 50.3674C-106.022 53.2555 -104.165 52.9539 -102.502 53.4756C-102.154 54.2986 -101.557 55.9351 -100.851 55.8584C-99.6052 54.4636 -98.4528 55.4362 -97.2635 55.2588C-95.3421 54.0664 -93.4345 54.88 -91.5024 55.0855C-90.5758 58.078 -89.9294 55.0826 -88.4075 55.5738C-86.5838 55.5684 -84.7443 56.8698 -82.925 55.914C-81.1234 53.9358 -81.0346 57.2757 -79.3072 56.918C-77.9357 49.1137 -78.0405 41.8885 -76.4479 34.1221C-76.1527 30.8611 -74.6937 27.5779 -75.6248 24.338C-75.0317 20.6188 -74.4386 16.8995 -73.8665 13.3121C-73.0355 12.7496 -72.1504 12.8218 -71.9712 13.3368C-71.4981 14.6953 -70.5453 14.3582 -69.8095 14.8434C-69.4456 15.6981 -69.8678 16.6477 -70.0188 17.5185C-70.3082 19.1808 -69.325 20.4306 -69.949 22.272C-71.9347 30.8202 -71.8951 39.3411 -73.301 47.7934C-73.4387 49.0351 -74.0713 50.4065 -73.2666 51.4447C-73.4457 53.0874 -73.6325 54.7351 -73.8556 56.7121ZM129.715 97.1035C127.224 97.5454 125.025 95.4306 122.413 97.2008C121.244 97.492 119.592 96.7926 118.39 96.5928C117.56 96.1094 117.032 97.601 116.289 97.4622C114.126 97.4418 111.853 95.9306 109.718 96.8661C107.927 98.1307 106.319 96.4003 104.645 96.8964C103.613 97.0404 102.087 99.3994 101.613 97.5651C100.086 97.4745 98.6633 95.9141 96.9987 97.7638C96.1418 97.6528 95.2859 97.5287 94.4267 97.4359C93.5943 97.3456 92.8997 98.7567 91.955 98.2514C91.1824 97.8373 90.1734 98.161 89.4132 97.7232C88.448 97.1678 87.8233 99.3478 86.9436 98.5983C84.6782 102.497 84.3792 107.752 83.6828 112.37C83.4143 114.675 82.142 117.12 83.292 119.329C82.6941 123.079 82.0963 126.828 81.4984 130.577C80.3134 131.051 79.5599 136.415 79.9163 137.79C81.4766 137.608 80.6996 140.02 80.5067 141.571C80.4161 142.252 81.1594 143.102 81.3789 142.659C82.2477 140.904 83.3422 142.508 84.1843 141.541C86.0879 140.196 88.0422 141.806 89.9347 141.744C90.7834 140.264 91.2102 141.713 91.9848 142.05C92.6179 142.408 93.5419 141.833 93.9211 143.01C94.1653 143.768 94.4341 143.103 94.7363 143C95.7343 142.659 96.5974 141.953 97.4261 140.973C99.4655 139.935 98.4038 144.37 101.43 140.256C102.269 140.39 103.093 140.521 103.886 140.647C103.942 141.468 103.988 142.144 104.04 142.902C104.435 142.496 104.871 141.808 105.046 141.909C108.061 142.168 111.158 138.345 114.266 139.876C116.32 140.65 118.197 137.53 120.292 138.471C121.808 139.289 124.106 138.034 125.001 140.367C125.533 141.479 126.923 138.53 127.218 138.529C130.143 138.721 132.583 140.208 135.164 137.56C136.238 137.335 137.352 137.682 138.434 137.67C140.242 135.54 141.657 138.885 143.467 135.87C143.763 133.313 144.583 130.262 144.728 127.677C144.667 125.875 145.978 125.234 146.16 123.749C146.824 120.515 146.773 116.879 148.4 114.179C147.98 107.911 150.371 101.291 150.454 94.8212C150.028 94.7533 149.403 94.3379 149.102 94.6623C147.974 95.8812 146.952 95.346 145.884 95.257C145.287 95.2069 144.436 94.8723 144.119 95.3257C143.117 96.755 141.803 94.7628 140.977 96.7745C138.761 96.4211 136.558 96.0698 134.339 95.7159C133.848 96.3432 133.459 97.0002 132.948 95.816C132.715 95.2766 131.888 95.371 131.436 95.214C130.744 95.973 130.204 96.5668 129.715 97.1035ZM17.5695 142.327C18.1906 138.433 18.8676 134.187 19.5055 130.187C21.6943 127.744 20.3424 123.566 22.3808 121.167C22.6919 120.681 22.9424 119.386 22.7568 119.056C21.7173 115.597 23.6325 111.356 23.8762 107.527C23.6978 107.119 23.4642 106.733 23.3664 106.241C24.3758 104.945 24.3917 104.948 24.8403 101.088C24.3633 99.7497 23.9836 98.6863 23.6275 97.6878C21.6389 99.7308 19.4519 97.6701 17.3363 97.8633C16.4533 97.7667 16.3 95.9675 15.2801 96.6095C14.8125 96.9249 14.4214 97.5549 13.9718 97.9793C13.3359 98.5791 12.4896 98.2213 11.9449 99.2849C11.6422 97.6176 9.95777 97.8804 8.9948 97.6384C7.60641 97.8326 7.83566 99.2265 6.64092 97.3231C5.41614 97.6362 4.29599 99.1271 3.41795 97.1496C3.234 96.8276 2.60488 96.5787 2.51697 96.7265C1.91591 97.7333 1.09229 97.3526 0.45135 97.9843C-1.35947 99.9443 -1.43956 96.6836 -2.60684 97.5992C-3.81486 98.1016 -4.76811 98.2529 -5.31064 97.2972C-6.0444 96.0032 -7.08083 96.4958 -7.95683 96.1156C-9.23314 97.9184 -10.5654 96.6157 -11.879 96.6352C-12.4017 96.4201 -12.8029 96.9406 -13.2737 97.2033C-14.3055 97.7603 -15.487 96.6859 -16.4573 97.9398C-16.7164 98.1585 -17.2782 98.1378 -17.4272 97.8691C-18.5491 95.8474 -20.2827 96.6391 -21.799 96.4398C-23.3115 98.1935 -24.8509 96.4748 -26.5262 96.618C-27.1769 98.8663 -26.867 101.349 -28.3432 102.963C-28.572 103.213 -28.7258 104.206 -28.6006 104.577C-27.942 106.535 -28.9446 109.489 -27.3429 110.684C-27.97 114.616 -28.5664 118.356 -29.1633 122.099C-28.7864 122.988 -28.414 123.868 -28.0605 124.704C-28.1502 126.19 -28.9695 127.719 -28.1541 128.999C-28.3009 130.283 -28.4114 131.572 -28.6042 132.85C-28.8244 134.311 -27.8324 135.353 -28.4633 137.023C-29.3511 139.276 -28.9337 141.633 -28.3624 143.663C-26.8702 143.901 -25.3647 143.989 -23.9358 144.423C-23.0143 144.704 -22.4088 142.988 -21.4517 143.546C-20.6945 143.988 -19.7536 143.882 -18.8945 144.019C-16.1623 142.227 -13.5218 143.891 -11.0156 144.346C-10.7034 144.678 -10.6231 145.737 -10.0112 144.761C-9.53318 143.999 -8.8915 144.783 -8.35355 143.779C-7.07432 140.711 -6.59592 143.607 -6.18289 144.892C-5.69735 144.969 -5.55265 145.071 -5.45497 144.996C-3.05935 142.913 -0.563697 143.248 1.81336 143.858C2.54281 143.057 3.0827 142.464 3.64897 141.842C4.85028 142.279 6.57441 141.782 7.51538 142.824C7.47856 143.858 7.44179 144.891 7.39971 146.078C8.47775 144.639 9.37716 144.03 10.536 143.497C11.5077 142.478 12.4448 143.95 13.3289 142.368C14.1032 143.924 15.2773 143.693 16.279 143.75C16.7951 143.178 17.1191 142.822 17.5695 142.327ZM32.0203 143.991C32.6078 143.16 33.4626 143.412 34.0015 142.766C34.7957 141.813 35.4923 142.722 36.1346 142.278C36.7234 141.871 37.205 141.268 37.8773 141.504C39.3103 141.415 39.7608 143.558 41.4223 143.007C43.2584 141.227 45.0854 143.797 47.0997 141.88C50.5248 141.821 54.2406 144.172 57.645 142.403C58.6416 142.416 59.672 142.479 60.5821 142.893C61.61 143.36 62.4321 141.817 63.4278 142.094C64.4535 142.379 65.5311 142.847 66.6342 141.537C68.8002 142.406 67.1593 146.367 71.7656 141.172C72.9772 141.28 74.0302 141.669 75.2115 141.531C76.6543 132.484 78.0421 123.69 79.4728 114.904C79.7009 113.502 79.5519 111.799 80.7846 110.938C80.6369 110.498 80.4884 110.058 80.3135 109.538C80.6078 106.184 81.9836 102.151 81.6965 98.9685C78.9636 98.5327 76.1731 98.0877 73.4391 97.6517C71.3644 101.197 69.8619 97.7427 67.8107 100.075C67.6928 100.244 67.1683 100.163 67.1181 99.9801C66.7278 98.121 62.7612 97.6211 61.8062 99.1577C60.6254 99.0782 59.306 98.5344 58.1476 98.7078C56.0249 100.617 53.7991 98.5467 51.6126 98.6905C49.5835 98.6499 46.5585 102.099 44.9893 99.3454C46.1468 97.9789 45.4873 97.8879 44.8945 96.5165C44.4252 97.0314 43.993 97.5054 43.5708 97.9687C43.7436 98.4004 43.9163 98.8302 44.1541 99.4252C42.3782 100.436 42.4814 96.5508 40.6774 99.2528C39.9018 98.6392 39.3426 100.383 38.5916 100.077C37.8232 99.7632 36.8318 100.284 36.3638 98.839C35.8422 97.2508 34.3283 100.62 33.8096 99.0419C33.4195 97.8062 32.6399 98.0391 32.6299 98.0366C31.2204 99.0242 30.2737 99.6885 29.7798 100.034C29.119 102.092 29.4111 103.847 28.1607 104.687C27.7878 106.924 27.4149 109.16 27.0425 111.397C28.1443 113.455 26.74 116.435 26.5998 118.921C25.7718 122.096 26.259 126.065 24.3477 128.532C24.0672 128.786 23.8443 130.289 24.0399 130.633C24.914 132.086 23.4952 140.464 22.3872 141.738C21.3428 144.692 23.0894 143.524 24.359 142.868C25.2239 142.907 26.0714 143.107 27.4523 143.327C27.7269 142.83 28.2469 141.888 28.5737 141.296C29.6092 141.462 30.3274 141.576 30.9814 141.68C31.3585 142.518 31.6871 143.249 32.0203 143.991ZM-35.5997 98.6002C-35.9967 97.7746 -36.3951 96.9471 -36.786 96.1349C-38.3843 95.9552 -38.3842 95.9552 -39.1199 97.8611C-40.2907 98.0608 -41.4136 97.8587 -42.2414 96.6125C-42.9775 98.1063 -44.0538 96.6374 -44.647 97.5005C-45.531 98.7876 -46.3968 97.446 -47.1176 98.2949C-49.7644 99.8527 -52.4536 97.7517 -55.1402 97.8256C-55.7874 98.5041 -56.4341 99.1826 -57.0532 99.8302C-60.4819 99.7707 -63.8447 97.6064 -67.2815 99.3531C-67.6265 99.8445 -69.5958 98.6046 -70.331 98.9083C-72.4156 100.978 -74.0525 98.4528 -76.255 99.5137C-76.5617 103.08 -78.04 106.685 -77.2655 110.249C-77.0362 111.051 -77.6607 112.457 -77.7109 113.568C-77.7572 114.589 -77.4773 115.571 -77.4838 116.596C-77.4933 118.172 -78.4729 119.922 -77.5086 121.322C-77.7014 122.625 -77.9051 123.928 -78.0831 125.233C-78.2552 126.494 -77.3103 127.387 -77.8844 128.828C-78.0776 129.313 -78.2598 130.335 -78.1414 130.44C-76.9423 131.509 -78.4641 133.738 -77.5821 134.989C-77.0649 135.723 -78.098 137.143 -77.5256 138.078C-76.874 139.546 -77.8524 141.656 -77.9359 143.274C-77.0146 145.115 -77.0145 145.115 -74.911 145.409C-73.591 143.935 -72.0073 142.293 -71.0301 144.739C-70.8693 145.163 -70.1474 145.137 -69.6653 145.134C-68.4645 145.128 -67.3827 146.067 -66.0481 145.106C-64.6658 144.11 -63.4069 145.33 -62.0593 145.17C-60.3611 143.35 -60.2841 144.437 -59.8792 146.659C-59.079 147.474 -57.9661 146.198 -57.0898 146.053C-55.7415 146.056 -54.4093 146.52 -53.0468 146.558C-52.2545 144.941 -51.1928 146.216 -50.2638 145.421C-49.1873 144.501 -48.0751 144.69 -47.317 145.919C-46.9583 146.501 -46.7502 146.184 -46.4907 145.84C-45.9717 145.151 -45.3122 145.78 -44.752 144.939C-44.3299 144.305 -43.8329 143.428 -42.8277 143.667C-43.0029 145.464 -41.2987 144.43 -41.0078 146.034C-39.6538 146.924 -38.5199 143.63 -37.2729 146.761C-37.0272 147.299 -36.1995 146.986 -36.0623 146.231C-35.6329 144.069 -34.4639 145.629 -33.3096 143.421C-32.3638 140.917 -33.4887 139.04 -32.9946 136.636C-32.7052 135.359 -32.591 134.211 -33.1039 132.986C-33.3885 132.307 -32.6753 130.997 -33.1651 129.881C-33.5265 127.466 -32.3128 124.282 -32.1485 121.627C-33.1743 120.289 -31.8247 118.234 -32.2614 116.997C-32.9208 115.127 -32.1286 113.406 -32.0228 111.63C-32.993 108.315 -31.3522 104.495 -31.0976 101.081C-32.7037 97.9302 -32.6088 94.5391 -35.5997 98.6002ZM87.4543 93.2326C88.9316 91.3035 89.4945 92.4438 90.7542 92.1592C93.2912 90.53 95.5747 92.1781 98.0179 92.2317C102.194 93.6041 102.566 89.5234 107.714 91.4691C109.872 88.8501 112.006 92.7247 114.121 90.2236C114.225 90.0836 114.719 90.5426 115.003 90.7887C115.177 90.9393 115.396 91.4323 115.424 91.4014C116.964 89.6707 118.313 91.1768 119.744 91.1115C122.43 91.9872 124.988 90.34 127.701 90.9602C128.671 89.51 129.601 90.5504 130.785 90.4768C131.225 89.8819 131.817 89.0814 132.29 88.4415C133.54 88.7576 134.754 88.4357 135.361 90.0799C135.427 90.2566 135.932 90.2779 136.046 90.1025C137.593 88.2747 139.441 90.0134 141.106 89.8678C142.451 88.4922 143.732 89.2175 145.034 89.3313C145.921 88.6018 146.639 87.8904 147.465 88.6349C148.416 89.2402 149.062 87.2315 149.943 87.8009C150.78 88.342 151.34 87.1943 152.106 86.4455C152.093 82.9868 158.53 54.5626 155.753 56.4886C153.592 59.2081 152.752 54.9074 150.493 55.6985C149.307 57.1762 147.916 58.5629 146.958 56.5753C146.743 56.204 146.714 56.1013 146.417 56.4262C145.164 57.9003 143.85 55.9443 142.561 57.7274C141.897 57.9957 141.296 55.5874 140.529 56.4962C138.923 58.0298 137.116 56.6355 135.465 56.6145C132.338 58.0355 128.418 59.3416 125.735 56.6147C125.552 56.169 125.478 56.12 125.184 56.5622C124.519 57.5624 123.516 57.0478 122.815 58.2076C121.139 61.0795 120.928 55.5651 119.095 58.6454C111.15 57.3139 103.096 59.2977 95.0931 57.1266C94.0463 58.9148 93.0454 60.7289 93.046 63.0475C93.0466 64.4324 91.9849 64.7035 91.8188 65.8398C91.4713 67.1789 91.6312 69.1887 90.8727 70.1288C90.1601 70.6466 90.4334 71.1137 90.6702 71.766C90.9776 73.764 89.1496 73.8828 89.2936 77.7558C90.232 81.539 87.8458 88.1176 87.4543 93.2326ZM53.0356 93.1405C54.7096 94.2669 56.0494 92.2142 57.649 92.709C60.7632 92.8872 64.0514 94.7354 67.0975 93.0839C68.4497 93.0838 69.7015 94.0076 71.0807 92.9374C72.1788 92.1831 74.0082 93.574 75.0292 93.0011C77.4724 91.2048 79.6392 93.8637 82.1667 91.7748C85.0549 85.6653 85.154 77.5422 86.4803 70.6177C86.5251 68.9155 87.8365 68.3271 87.9336 66.6969C88.022 65.2087 88.3953 63.7039 88.6139 62.2019C88.8231 60.7665 87.8574 59.6778 88.4867 58.0291C88.7175 57.4248 87.9985 56.7168 87.5068 57.1725C85.6553 59.3151 83.7768 56.1682 81.8376 58.4641C81.7633 58.5486 81.5852 58.476 81.4778 58.4119C79.6644 55.3833 80.2162 58.4911 77.6651 57.8384C75.8705 59.5622 73.461 58.1593 71.5452 57.9351C70.6987 57.5225 70.1976 58.9829 69.4428 58.8236C68.3507 58.592 67.2413 58.4575 66.1628 58.2856C65.3087 55.6964 64.8763 57.6082 63.4394 57.7973C62.1539 55.6239 60.6646 58.7307 59.0003 58.3327C56.7368 58.199 54.3686 56.777 52.0818 57.8873C48.6602 59.8043 49.8772 53.8925 46.4342 58.6039C44.7358 58.0705 42.9282 58.7293 41.7251 57.2163C41.2723 56.3271 40.7396 56.3349 40.1769 57.1445C39.3172 58.3816 38.4168 58.8022 37.3998 58.3172C36.9676 58.7921 36.536 59.2662 36.1481 59.6925C35.7794 61.365 35.4226 62.9804 35.0665 64.5957C33.9364 65.5942 34.2102 67.28 33.8585 68.6599C34.93 70.4534 33.793 72.535 33.6741 74.4835C31.3409 77.9315 31.4855 86.532 30.258 91.2377C30.554 91.8968 30.8166 92.4817 31.0877 93.0855C31.8107 93.2008 32.5444 93.3178 33.4143 93.4566C35.9875 90.0928 35.4137 91.5576 37.1481 93.8822C38.6168 92.4867 40.3369 93.4472 41.7504 93.9424C42.2677 95.5219 43.4534 94.8603 44.342 95.2196C44.986 94.5432 45.6329 93.8638 46.2538 93.2121C47.031 93.336 47.8149 93.2912 48.4928 93.6124C49.4394 93.9349 50.4808 91.587 51.0714 93.3967C51.1666 93.923 50.5925 94.8342 51.3578 94.9854C51.911 94.3768 52.4509 93.783 53.0356 93.1405ZM24.4531 92.0461C26.5255 90.837 25.5366 87.8718 27.238 86.1004C27.5235 85.8586 27.78 84.3308 27.591 84C26.8327 82.6747 27.2545 81.1918 27.5671 79.7915C28.0344 77.6969 27.6912 75.2122 29.2844 73.6137C29.6401 69.8203 31.0939 65.5485 30.7972 61.9641C29.8987 60.5696 31.2594 59.8917 31.4983 58.8952C29.7374 57.6745 27.3685 58.1544 24.9637 57.4897C24.4464 60.0715 23.9815 55.7582 22.7007 57.7488C21.0276 60.7422 19.2567 57.3781 17.4789 59.7598C14.2647 59.5506 16.933 56.6998 12.6178 59.5461C11.013 61.3222 9.93219 57.1601 8.44509 58.6746C7.42397 60.0549 6.13239 58.1263 5.30386 60.127C4.45702 59.8293 3.62422 59.8203 2.84734 60.8902C1.0994 60.3187 -1.08318 60.9425 -2.51984 59.4948C-2.42398 58.632 -1.71013 56.1806 -2.86252 57.0792C-3.8872 62.1454 -6.97676 57.4993 -9.02584 60.1136C-9.23016 59.7193 -9.43438 59.3242 -9.68939 58.8334C-9.96116 59.509 -10.2141 60.1389 -10.4675 60.7688C-11.901 61.4961 -13.7839 59.972 -15.1921 60.4761C-17.9522 62.6498 -20.5549 59.0452 -23.3528 62.0052C-25.1766 71.1734 -25.0096 79.8747 -26.9101 89.059C-25.6841 92.6634 -24.0459 90.1436 -21.9376 89.4399C-20.6001 92.3237 -17.2444 89.4349 -15.9665 92.7505C-15.1621 91.9078 -14.5141 91.2286 -13.8684 90.5525C-10.9985 90.9217 -8.34715 92.0493 -5.4915 90.6866C-4.10872 91.1928 -2.54144 91.0872 -1.08964 91.3241C-0.549222 90.7302 -0.00874998 90.1364 0.53236 89.5419C1.53391 90.1561 1.14872 91.9172 1.62213 93.0883C2.58079 91.3364 3.95166 91.0996 5.17839 90.3164C5.5073 91.0488 5.83684 91.7814 6.16505 92.5146C8.04333 90.248 8.47145 92.9063 9.91175 93.0918C10.7118 91.8222 11.583 92.6014 12.3856 92.2536C13.7188 91.5112 15.1706 89.7655 16.4345 91.1078C17.2096 92.3606 20.3596 93.2865 21.502 91.5746C22.4849 91.7322 23.469 91.8891 24.4531 92.0461ZM-73.6569 92.5638C-72.2978 92.8876 -70.0153 92.9058 -68.5576 93.4327C-67.6258 93.8448 -66.9019 92.6303 -66.095 92.6476C-65.0998 92.6693 -64.1286 92.9285 -63.1462 93.0852C-62.0417 93.2613 -60.911 93.3196 -59.8406 93.6477C-58.8487 93.9517 -58.0105 92.316 -57.0045 92.8806C-55.7224 93.5997 -54.377 92.7548 -53.1601 91.8188C-51.0999 89.7271 -50.7215 94.581 -49.0279 91.9967C-48.0504 92.111 -47.0731 92.2262 -46.0961 92.3405C-44.0651 89.9116 -41.7185 93.2349 -39.6573 91.7951C-38.1604 90.4332 -36.9397 92.3734 -35.7135 91.2992C-34.2381 90.0834 -33.1293 90.5378 -32.2129 92.2164C-30.9829 93.0661 -30.3797 89.1724 -31.3359 88.3391C-31.097 86.8412 -30.9 85.3331 -30.6076 83.8481C-30.2818 82.1908 -31.1961 80.975 -30.6853 79.1129C-30.0227 76.35 -29.5613 72.9696 -29.2538 70.2022C-30.7849 68.278 -26.5806 58.6475 -30.6411 62.4771C-31.4731 62.3444 -32.3993 62.424 -33.1734 62.0149C-34.1141 61.5174 -34.8121 62.8766 -35.6416 62.8301C-36.8245 62.7644 -37.9921 61.9459 -39.1977 63.4214C-39.7456 63.1863 -40.4727 63.5956 -40.825 62.6498C-41.8273 60.2882 -43.6552 65.1458 -44.7993 61.4095C-45.4279 62.0688 -46.056 62.7264 -46.7032 63.4049C-47.6687 63.251 -48.6475 63.0949 -49.6271 62.9387C-51.7665 65.0584 -53.9393 62.8718 -56.1311 63.0307C-59.2188 65.6155 -62.0787 61.2616 -65.0834 63.9118C-66.4332 63.6966 -67.7761 63.425 -69.1389 63.3102C-72.33 66.4781 -71.7888 59.9076 -74.4098 64.331C-74.6891 67.889 -76.3097 71.3419 -75.3369 74.7714C-75.5758 76.2693 -75.8916 77.7665 -76.0309 79.2652C-76.1606 80.6602 -75.379 81.785 -75.9209 83.4308C-76.3175 84.6347 -76.384 86.0301 -76.5822 87.3417C-76.7735 88.6102 -75.9253 89.4511 -76.3522 90.9464C-76.6629 93.3419 -75.2103 93.9051 -73.6569 92.5638Z"/>
</mask>
<path d="M-73.8556 56.7121C-70.1796 54.7958 -66.6776 57.3501 -63.0034 57.2074C-61.7682 55.6226 -60.6173 56.8054 -59.4279 56.7324C-56.7214 54.0735 -54.1286 58.3778 -51.5529 55.7687C-49.7441 55.5585 -47.8201 57.3535 -46.1226 55.4498C-45.2142 55.0888 -44.8022 57.8958 -43.7403 56.4602C-42.5148 55.0409 -41.3573 53.7276 -40.264 56.1258C-40.0678 56.5559 -39.21 56.7847 -38.9153 56.4815C-37.5048 55.0255 -36.2671 56.0824 -34.9554 55.9909C-34.0011 55.9238 -33.1473 56.9265 -32.07 55.7719C-31.2401 54.882 -30.2742 56.1856 -29.5826 55.6106C-28.8843 55.0296 -28.1556 55.022 -27.4302 54.3622C-26.2182 48.5831 -26.1808 42.263 -24.1983 36.7845C-23.1502 35.115 -23.3984 32.8294 -22.925 30.8569C-21.9301 30.1499 -21.8059 28.8088 -21.6149 27.5164C-18.8874 24.0499 -20.5339 16.9714 -18.0333 13.299C-17.3777 11.6633 -17.2355 9.21004 -16.7962 7.36389C-15.1915 5.85743 -16.197 3.04248 -14.3173 1.78417C-13.2431 2.74602 -11.6172 3.61545 -12.1554 6.12497C-12.7729 8.85969 -12.6542 11.5995 -14.1132 14.0683C-14.9083 15.3466 -14.299 17.734 -15.6251 19.162C-16.3919 21.7677 -16.7228 25.221 -17.143 28.0341C-17.3036 29.6338 -18.5469 30.2623 -18.5988 31.958C-19.1992 40.0011 -22.7946 47.5002 -22.7959 55.5991C-21.6212 54.0294 -20.2516 55.1771 -18.9539 55.1046C-18.0366 53.7936 -17.0183 54.0719 -16.1436 54.4563C-15.1145 54.9087 -14.284 53.3787 -13.2957 53.6654C-10.0723 54.6631 -6.7249 54.4657 -3.497 53.9308C-2.08405 52.5105 -2.55277 54.5554 -1.50496 54.3962C1.3462 51.8187 3.97871 56.4202 6.61323 52.2536C9.80779 52.2113 13.2834 54.7384 16.4016 52.4635C18.3564 50.8944 20.2685 52.5372 22.2301 52.4123C22.8183 52.4707 23.2942 51.069 23.9357 51.5789C25.5964 54.562 28.3324 52.8867 30.5889 51.4798C31.0607 51.349 31.8091 51.9997 31.9506 51.2212C32.1799 49.9614 33.1233 49.5884 33.268 48.5026C33.4329 47.2688 34.0465 45.9465 33.3949 44.777C33.2576 35.9956 38.1827 27.3555 37.4987 18.7062C37.1561 17.456 37.6375 16.2515 38.4515 15.3741C39.2104 14.5551 40.047 14.4268 40.7259 15.4865C45.3784 18.4374 38.6287 30.8019 40.5116 36.4334C40.0033 38.1413 40.4901 40.2474 39.1063 41.6414C38.2342 44.2533 38.0237 48.0884 37.5159 50.4728C37.8481 51.5011 38.0485 52.122 38.2487 52.742C39.2331 51.2613 40.3915 52.1216 41.536 51.9159C42.3324 50.5962 43.1834 51.1909 44.0059 51.3C45.3641 51.4803 46.7885 51.4528 48.045 52.0131C49.3107 52.5775 50.4303 51.0626 51.6366 51.3125C52.5478 51.5011 53.5331 52.2427 54.462 50.7134C58.3774 51.1778 62.3776 51.9943 66.2414 52.5061C67.4288 50.3522 68.8818 52.8706 70.123 51.1974C71.9039 49.2469 72.2693 54.2385 73.907 51.6346C75.8828 51.8745 78.6203 49.2904 79.979 52.3173C80.0657 52.6132 80.6564 52.5438 81.0248 52.5672C83.7632 50.6606 86.7784 53.6678 89.5434 51.1438C89.5469 48.8868 91.7181 47.4079 91.0609 45.1508C90.1623 43.338 91.4547 41.9073 92.0957 40.3047C92.6046 38.2114 92.3551 35.7814 93.8516 34.1392C94.9405 29.1974 94.7354 24.0827 96.8832 19.4574C97.8264 17.788 96.9774 14.9123 98.6376 13.3147C99.2634 9.57593 99.8902 5.83815 100.475 2.09284C102.759 -1.71319 103.945 2.44194 105.186 5.50921C104.813 6.82931 105.223 9.08399 103.717 10.5381C103.243 12.6785 102.994 15.0414 102.598 17.2491C100.055 20.454 101.428 26.8239 99.0539 30.1637C97.9704 34.0612 98.6013 38.6353 96.3881 41.9556C95.8524 45.3145 95.3168 48.6733 94.7853 52.0062C96.4734 52.7202 96.4721 52.7386 97.9275 52.1607C99.1814 51.5011 100.629 52.4358 101.943 52.4004C104.672 49.6064 107.623 54.2861 110.551 51.5113C111.774 51.6443 112.997 51.7775 114.22 51.9098C116.401 49.3173 123.199 54.3815 125.449 51.6835C127.12 51.2815 128.859 53.0993 130.527 51.6789C131.236 50.7883 131.966 51.5599 132.677 51.6069C133.431 51.6573 133.937 50.2932 134.783 50.7023C136.867 50.8869 139.242 52.333 141.341 50.9867C143.25 49.9576 145.677 52.7623 147.454 50.6802C148.395 50.5827 149.445 51.2842 150.313 50.3128C150.998 49.559 151.451 49.8055 151.822 50.6808C152.433 52.1233 153.074 50.9434 153.704 50.3125C154.442 50.4294 155.18 50.547 155.92 50.6651C156.675 49.8339 157.431 49.0004 158.191 48.1638C158.564 42.7426 161.045 44.5735 158.733 40.1442C159.223 38.1585 159.053 35.1796 160.39 33.5898C160.712 33.168 160.828 32.1821 160.845 31.4783C160.866 30.6256 160.155 30.1028 160.499 29.0029C160.729 28.2694 160.644 27.6314 160.381 26.9511C160.003 25.9676 160.175 24.7013 160.836 23.965C161.907 22.7748 161.577 21.1941 161.941 19.8224C161.038 18.6367 161.562 16.9906 161.931 15.6744C162.392 14.0255 161.343 13.0915 161.743 11.4813C162.075 10.1416 162.663 8.52955 161.798 7.2978C162.311 4.7099 161.921 1.09918 164.155 0.0715015C164.705 -0.247472 164.97 0.56328 165.211 1.16487C165.9 2.1388 164.917 3.91586 166.312 3.8651C166.46 3.87542 166.675 4.3801 166.644 4.64406C166.456 6.26591 165.892 7.94266 166.659 9.3755C166.164 13.0096 165.219 16.7922 165.661 20.2716C165.512 24.38 163.265 29.2431 164.385 32.8935C164.102 34.7628 163.819 36.6329 163.536 38.5022C164.717 41.5291 162.836 45.4126 162.641 48.8559C163.174 50.1143 164.212 49.4512 164.984 49.7989C167.042 47.7432 169.059 49.9086 171.132 49.5635C173.331 47.8114 175.734 49.613 178.113 49.5829C179.492 47.9158 179.99 46.8845 181.332 48.692C182.527 47.5289 183.939 48.1165 185.242 48.1599C186.068 46.8219 186.903 47.6511 187.725 47.6671C188.567 47.683 189.264 46.2934 190.2 46.8388C190.85 47.2185 191.664 47.0954 192.395 47.2509C193.14 47.4095 193.698 45.7988 194.486 46.4153C195.342 47.085 196.008 44.9876 196.962 45.5987C197.563 45.9837 198.281 45.7003 199.081 45.1947C199.93 44.6589 201.017 45.5034 201.977 45.2206C204.649 43.7084 207.013 45.2924 209.829 45.4037C210.288 44.7721 210.876 43.9621 211.329 43.3368C212.796 43.5706 214.025 43.7666 215.264 43.9643C215.796 43.37 216.334 42.7695 217.076 41.9408C220.376 43.4231 224.025 39.6959 226.479 44.5297C227.746 47.2175 222.734 49.9959 221.354 49.5796C219.763 48.3913 218.317 50.2546 216.684 49.9888C215.977 49.7391 215.214 49.7262 214.476 49.6085C213.268 51.0844 212.1 50.2288 210.91 50.2256C209.9 50.718 208.847 51.2955 207.819 51.9239C205.882 52.4807 203.558 50.2293 201.641 51.5471C200.868 52.5052 200.186 51.5308 199.508 52.0221C198.056 53.7007 196.374 51.9018 194.81 52.312C193.759 52.4185 192.692 53.4483 191.616 52.9C190.879 52.5252 190.348 54.1746 189.517 53.7573C188.846 53.4203 188.055 53.4773 187.317 53.3596C186.07 55.5147 184.423 52.8981 183.102 54.9467C182.909 55.244 181.907 55.0515 181.751 54.6349C180.734 52.0029 179.723 54.4609 178.619 55.437C177.494 55.4116 175.776 54.577 174.724 55.213C173.17 56.4198 171.858 55.2025 170.348 55.3083C169.671 55.8547 169.099 56.8051 168.457 55.669C167.737 54.0245 166.448 57.9033 165.234 54.6183C163.781 55.1701 163.055 58.2359 161.295 57.293C160.509 62.2238 159.847 66.7226 159.053 71.1943C158.71 73.1257 158.974 75.4111 157.456 76.8332C157.147 78.701 156.817 80.5664 156.551 82.4393C157.098 83.7203 157.272 85.5581 156.069 86.7688C155.462 87.6084 155.563 89.4099 156.484 88.1242C160.148 85.5269 163.091 86.3562 166.519 86.9683C167.33 87.0604 168.166 87.7765 169.012 86.462C170.421 86.1182 171.975 86.8629 173.401 86.9321C174.609 85.5074 175.787 86.1798 176.964 86.3551C177.812 86.4815 178.495 85.0209 179.439 85.5269C180.213 85.9412 181.143 85.8579 182.004 85.9953C182.793 84.157 183.896 85.715 184.79 84.8912C185.1 84.6063 185.578 84.197 185.792 84.3435C186.706 84.9677 187.445 83.2789 188.263 83.5491C189.569 83.9794 190.873 83.6974 192.2 83.0035C193.478 83.9192 194.848 81.7766 196.132 82.4758C196.917 81.545 197.739 81.3561 198.589 81.7128C200.23 79.6991 202.212 81.5751 203.988 81.4188C205.574 79.141 207.606 79.5437 210.14 77.8158C210.32 77.7339 210.732 78.0233 210.724 78.1715C210.609 80.4434 211.771 81.597 212.341 83.2531C211.485 84.5298 211.02 86.0482 209.997 86.8895C208.92 86.189 207.882 87.8105 206.813 87.6428C204.84 86.8779 203.058 87.7027 201.127 88.9387C200.57 89.4043 199.653 88.944 198.957 88.6651C198.065 88.308 197.428 90.0749 196.471 89.5208C194.966 88.9183 193.006 89.0487 191.481 88.6606C190.804 89.405 190.263 89.9996 189.646 90.6768C188.125 90.6896 186.581 89.4203 185.021 90.9905C184.524 91.5427 183.689 90.4775 182.917 91.5225C182.217 92.4711 181.226 90.8956 180.468 92.3672C179.605 91.7865 178.893 90.2928 177.754 91.7001C176.861 92.6356 175.766 91.246 174.973 92.8713C173.48 93.0418 172.099 91.6922 170.623 92.9734C169.11 93.9224 167.453 92.5944 165.883 92.6615C164.669 94.4707 163.507 93.0687 162.319 93.2692C160.842 94.4246 158.968 93.8516 157.565 93.6447C156.609 94.6957 155.859 95.5196 155.056 96.4014C154.139 100.117 154.409 104.983 152.608 108.252C152.281 108.631 151.975 109.868 152.126 110.279C152.905 112.401 152.033 114.579 151.815 116.729C149.938 120.148 150.056 124.202 149.273 127.968C149.012 129.226 147.928 129.768 147.938 131.33C147.732 133.421 146.565 138.128 149.27 135.045C150.288 137.841 150.918 138.337 152.855 135.751C154.011 135.595 155.267 136.327 156.416 136.108C157.225 135.929 158.016 134.923 158.873 135.418C160.476 133.186 162.302 136.205 163.793 133.946C164.539 136.039 166.146 135.133 167.342 135.618C167.899 135.006 168.44 134.411 169.179 133.599C171.351 134.656 173.403 131.753 175.725 132.259C176.744 132.495 177.757 133.163 178.968 132.189C180.064 131.308 181.134 132.21 182.226 132.216C183.88 130.031 185.315 132.391 187.363 131.261C187.11 131.539 187.326 131.302 187.585 131.018C189.061 132.815 189.364 131.859 190.826 130.243C191.804 129.835 192.699 131.175 193.706 129.873C194.463 128.895 195.41 130.448 196.152 129.033C198.382 128.981 200.289 126.559 202.503 127.353C203.1 127.336 203.713 125.819 204.178 126.548C204.96 127.547 206.003 127.962 206.41 129.541C205.23 132.102 203.074 132.06 201.676 134.065C201.073 134.368 200.086 133.382 199.579 134.579C198.548 136.736 196.881 134.96 195.805 136.692C193.411 135.749 191.48 137.809 188.977 136.758C188.587 137.348 188.024 138.2 187.597 138.847C186.087 138.606 184.863 138.411 183.638 138.216C181.979 140.381 180.549 138.019 178.996 138.786C177.915 139.703 176.848 139.649 175.777 139.251C174.085 139.466 172.59 141.625 170.851 140.821C170.048 140.398 169.332 142.132 168.384 141.616C166.99 141.393 163.721 139.948 162.619 141.735C161.544 140.854 160.5 142.774 159.432 142.452C156.715 144.685 153.273 141.91 150.411 142.153C149.385 143.214 148.525 144.755 147.263 143.96C144.244 146.155 145.136 152.855 143.868 156.87C143.613 158.258 144.633 158.97 144.12 160.491C142.817 164.901 143.226 169.275 142.739 173.631C143.886 175.53 142.037 178.036 143.278 179.73C142.806 182.692 142.327 185.694 141.847 188.706C142.176 189.43 142.508 190.16 142.968 191.173C142.566 193.001 142.089 196.866 143.486 197.629C143.951 197.607 144.108 198.055 144.029 198.676C143.903 200.102 141.795 201.947 141.559 200.189C141.791 197.822 140.402 196.071 141.054 193.56C139.494 188.965 139.131 183.938 139.692 178.423C138.204 172.849 140.363 170.226 139.657 165.3C139.233 164.069 140.495 162.085 139.58 160.602C140.096 155.93 141.174 150.814 141.876 145.823C141.676 145.285 140.844 143.96 140.427 144.068C138.584 146.329 136.429 143.245 134.705 144.681C133.719 145.903 132.699 144.226 131.871 145.768C129.216 146.845 126.65 143.662 123.933 146.012C122.298 145.663 120.471 146.041 119.348 143.954C118.314 145.198 117.386 146.314 116.679 147.164C114.751 147.238 113.636 145.727 111.957 147.215C111.331 148.109 110.552 146.731 109.844 147.712C109.56 148.107 109.365 148.246 109.022 147.736C108.077 146.147 106.651 146.809 105.367 147.648C104.143 147.593 102.927 147.473 101.707 147.375C100.43 148.941 99.2781 147.745 98.1219 147.595C97.1128 147.464 96.2949 148.924 95.2703 148.422C94.4859 148.038 93.5649 148.111 92.7048 147.98C91.34 149.789 90.0765 148.43 88.7712 148.474C85.5943 149.663 82.6067 147.803 79.31 149.602C79.0044 151.519 78.6832 153.533 78.5199 154.557C78.0471 156.05 77.1221 156.021 77.6221 157.062C78.1029 158.062 77.9043 159.457 77.3694 160.082C76.0718 161.597 76.4445 163.585 75.9569 165.298C76.7125 167.141 76.3289 170.855 74.8487 172.246C74.7786 174.038 73.9398 175.725 74.4555 177.681C74.8899 179.326 74.3019 180.829 73.2797 183.281C73.0161 183.913 72.657 184.914 72.7983 185.347C73.5399 187.711 72.0405 200.231 69.9612 193.4C70.085 191.512 71.181 189.085 70.1237 187.636C70.5107 186.554 69.8314 185.982 69.801 185.159C70.2423 182.559 70.1497 179.309 71.7575 177.281C71.6645 172.463 72.6042 167.073 73.4556 161.901C72.2862 158.578 74.2336 158.276 74.58 154.948C72.6238 151.925 76.8736 149.989 74.9067 148.596C74.1879 148.491 73.4073 147.909 72.9643 149.429C68.6273 148.403 64.6516 149.873 60.398 148.601C58.4714 149.899 56.7199 150.827 54.7471 150.012C53.6888 149.994 52.6596 149.023 51.5184 150.455C49.0783 151.12 46.2356 148.331 43.8971 150.46C43.7769 150.632 43.0983 150.372 43.0027 150.048C42.6259 148.773 41.7647 149.209 41.097 148.969C39.0484 151.104 36.4213 148.919 34.2187 148.989C33.2262 148.736 32.439 150.594 31.3579 149.799C23.0453 147.799 20.9375 148.22 18.9888 161.864C20.5235 165.986 16.1759 175.271 17.6807 179.207C17.2961 181.135 17.6207 183.37 16.1096 184.828C15.9608 184.972 15.8536 185.812 15.9276 185.875C17.1339 186.91 15.5515 189.265 16.5271 190.37C17.7143 196.874 18.6361 205.367 22.3157 209.254C22.9033 209.825 23.6286 209.941 23.256 211.434C23.2284 211.546 23.3806 211.865 23.4402 211.848C24.6988 211.494 25.1547 213.437 26.2384 213.562C26.7189 213.616 27.2889 213.553 27.2174 214.605C26.4959 217.795 24.2303 216.682 22.8057 216.478C22.0205 212.919 18.2001 213.309 18.1451 210.201C18.3708 207.201 15.77 207.842 16.5356 205.72C15.9093 204.061 14.9358 202.77 14.9083 200.641C14.7049 198.838 12.8357 197.758 13.6202 195.419C13.7605 193.565 12.0396 192.726 12.9094 190.496C12.2712 183.518 12.6542 175.759 14.182 168.476C14.5877 167.16 13.7014 166.548 13.8793 165.432C14.9048 161.651 14.3301 156.49 16.518 153.631C17.2377 151.389 16.1599 150.014 15.5043 148.244C14.8519 149.689 13.7186 148.815 13.0913 150.027C11.6571 149.919 10.1846 150.207 9.2007 148.73C8.53082 149.888 7.70516 149.636 7.10944 149.254C6.15322 148.639 5.54397 150.635 4.61559 150.125C3.73896 149.829 2.60644 149.298 1.76196 150.378C-0.178343 151.318 0.620454 147.258 -2.37947 150.114C-5.22092 150.904 -7.85943 150.555 -10.7138 150.183C-11.5376 151.529 -12.3791 150.728 -13.1914 150.656C-13.8683 150.478 -14.5002 148.44 -15.2254 149.65C-16.6425 150.69 -17.9029 151.222 -19.4712 150.861C-20.1876 150.887 -20.8919 150.125 -21.6195 151.046C-23.2 152.208 -25.0223 150.782 -26.5711 150.874C-28.4801 152.428 -28.6872 155.74 -28.2064 158.413C-27.8879 159.498 -28.961 161.234 -28.2046 162.615C-28.0003 162.988 -28.2959 164.027 -28.3984 164.757C-28.686 166.27 -28.112 167.85 -27.8652 169.232C-27.4025 170.267 -28.3868 171.518 -27.845 172.376C-27.3458 173.168 -27.8186 174.168 -27.7037 174.945C-27.7842 176.729 -26.6313 178.66 -27.2271 180.339C-28.5694 181.76 -27.4818 181.529 -26.9815 182.121C-25.3305 183.889 -26.5267 187.676 -25.5041 189.822C-24.9704 191.32 -24.9222 193.126 -24.8072 194.775C-25.0099 203.027 -19.0916 200.725 -20.9016 206.881C-22.4001 207.442 -24.0886 206.46 -25.5945 206.45C-26.0043 202.837 -27.8314 200.389 -29.0022 197.31C-28.8321 196.04 -28.4908 194.737 -29.2238 193.729C-30.1411 190.235 -30.5024 186.218 -31.22 182.533C-31.447 181.213 -31.8825 179.931 -31.33 178.378C-31.3245 175.589 -32.2374 172.809 -32.3902 169.926C-33.3182 169.025 -32.1684 167.303 -32.6562 166.396C-33.22 165.349 -32.9005 164.272 -32.6655 163.246C-32.3126 161.709 -33.3111 160.67 -32.814 159.068C-32.4948 158.04 -33.4909 157.351 -33.0876 156.04C-32.7674 154.999 -32.7035 153.827 -32.5409 152.807C-34.2664 148.467 -33.3439 153.053 -38.7239 151.244C-39.995 152.865 -40.1003 152.27 -41.0847 151.095C-42.8082 153.212 -44.634 149.877 -46.4126 152.264C-49.0805 152.336 -51.8027 150.502 -54.4425 151.791C-56.4475 153.089 -57.3317 150.178 -59.0693 150.384C-60.5617 152.772 -62.228 152.276 -63.9886 151.817C-64.8497 151.616 -65.5067 153.094 -66.4696 152.673C-67.3138 152.304 -68.3538 151.725 -69.2793 153.246C-70.1496 152.852 -71.2769 153.614 -71.9361 152.151C-72.342 151.25 -73.2324 151.084 -73.8847 151.878C-74.6811 152.848 -75.3262 152.035 -76.061 152.36C-77.0511 154.324 -76.9598 157.106 -77.4823 159.379C-76.5389 160.98 -77.4568 162.884 -77.5484 164.659C-77.0983 168.236 -76.1791 170.799 -76.9084 174.805C-76.5682 175.296 -76.0653 176.024 -75.7883 176.424C-75.8302 178.587 -76.7428 180.363 -75.7466 181.708C-76.5589 184.403 -75.1127 186.275 -75.3146 188.903C-74.9592 195.583 -74.0986 202.78 -71.976 208.402C-70.3952 212.529 -70.1856 218.266 -67.087 220.967C-66.4142 221.425 -66.3541 222.959 -65.352 223.291C-64.3743 223.615 -63.7629 221.677 -62.883 222.364C-61.2104 220.289 -59.1926 222.946 -57.2967 221.234C-57.0563 222.513 -57.5448 223.771 -57.7042 224.996C-58.4779 225.846 -59.2335 226.676 -59.9989 227.518C-61.0492 227.453 -62.115 226.718 -63.1791 228.164C-64.6431 227.902 -66.1072 227.64 -67.5712 227.378C-68.1335 225.569 -69.8571 226.102 -70.4926 224.119C-71.899 220.298 -73.7025 216.637 -75.3951 213.12C-76.797 209.633 -76.0468 204.708 -77.7821 201.495C-77.9753 201.267 -78.0311 200.391 -77.8799 200.028C-77.2629 198.547 -78.3435 197.821 -78.1844 196.409C-78.0437 195.164 -79.5038 194.455 -79.0032 192.607C-78.603 191.129 -79.9244 190.053 -79.0926 188.454C-79.4092 187.531 -79.7263 186.609 -80.126 185.444C-79.7101 183.934 -79.6856 181.988 -80.0933 180.492C-80.5963 177.991 -79.9727 175.393 -80.9979 173.011C-81.0831 172.542 -81.0332 171.909 -80.8999 171.411C-80.3504 169.358 -81.3602 167.647 -80.9095 165.635C-81.8405 164.735 -80.6586 162.993 -81.1775 162.111C-81.6909 161.237 -81.1529 159.929 -81.7247 159.135C-81.8064 156.965 -81.2861 154.563 -82.0345 152.485C-82.5939 150.407 -83.8066 150.852 -84.184 152.906C-88.4156 153.142 -92.7698 151.562 -97.1075 151.17C-102.109 157.489 -102.045 151.177 -103.52 152.858C-104.59 154.063 -105.442 152.996 -106.395 153.128C-107.257 150.755 -109.248 151.949 -110.788 151.298C-110.469 148.382 -112.478 147.87 -109.711 145.696C-107.601 145.732 -105.465 147.166 -103.25 146.061C-102.158 145.182 -101.084 146.081 -99.9916 146.092C-99.2123 144.255 -98.1078 145.793 -97.2092 144.952C-95.1413 142.652 -93.7356 147.365 -91.9423 145.617C-89.3093 142.968 -86.6556 146.336 -84.5003 143.968C-83.9453 144.199 -83.2393 143.766 -82.808 144.583C-82.6549 144.873 -82.6189 145.824 -82.0978 145.013C-81.4149 143.595 -82.7447 142.578 -82.1244 140.932C-81.1027 138.403 -82.5497 136.9 -81.8562 134.536C-82.6293 133.554 -82.3396 132.174 -82.0002 130.951C-81.6419 129.66 -82.5637 129.119 -82.3321 127.903C-82.135 126.867 -81.6841 125.752 -82.1427 124.684C-82.6869 123.263 -81.7303 121.342 -81.8183 119.83C-81.8614 118.824 -82.4197 118.001 -82.0482 116.783C-81.695 115.626 -82.74 115.051 -82.3441 113.742C-81.7728 111.203 -81.5434 108.472 -81.0588 105.876C-82.1043 103.371 -82.1044 103.371 -81.8541 100.973C-83.5353 99.5721 -85.9611 100.133 -87.9259 99.5254C-88.6993 100.661 -89.6051 100.046 -90.3658 100.415C-91.3606 100.897 -91.2629 97.8004 -92.384 99.6987C-94.2534 100.143 -96.0168 98.3422 -97.8001 100.035C-97.8334 100.08 -98.094 99.744 -98.2417 99.5728C-100.105 97.118 -102.485 100.003 -104.531 99.1809C-105.598 99.2061 -106.618 98.2769 -107.761 99.7712C-108.017 100.105 -109.017 99.9343 -109.143 99.541C-109.583 98.1648 -110.475 98.2975 -111.267 98.0351C-112.19 95.1678 -115.842 98.5276 -111.25 91.6569C-109.68 89.8645 -109.265 93.498 -108.178 92.0176C-105.495 90.9944 -102.967 94.1176 -100.229 91.8051C-99.0553 91.9904 -97.6672 91.9111 -96.5669 92.4545C-95.4973 93.0132 -94.6589 91.5579 -93.7199 91.6882C-91.1591 91.5934 -88.6048 93.5836 -86.0491 91.9503C-85.5253 91.4714 -84.7165 91.795 -84.1379 92.6919C-82.2368 95.2907 -79.9901 90.5785 -81.2109 87.9919C-81.0977 86.5553 -80.4457 85.0101 -81.3292 83.8373C-80.9273 82.4768 -81.1273 80.9974 -80.1831 79.6783C-79.3128 78.4624 -79.4698 76.5061 -79.1764 74.902C-79.5185 74.14 -79.8473 73.4075 -80.2241 72.5684C-79.8253 70.0676 -79.4102 67.4651 -78.9337 64.4771C-79.4378 63.7706 -80.0384 62.9312 -80.8449 61.8025C-81.077 61.8477 -81.5411 62.8799 -82.2649 63.486C-85.3741 63.404 -88.5004 61.5136 -91.698 62.6582C-92.7792 63.5318 -93.8596 62.5434 -94.9584 62.6626C-95.3937 62.7099 -95.8732 64.0527 -96.28 63.5139C-98.0996 61.1059 -100.666 62.1344 -102.832 61.3611C-103.794 59.517 -105.392 59.9385 -106.769 59.5544C-108.969 57.8985 -110.701 55.7183 -111.877 52.4314C-111.701 51.3276 -111.523 50.2066 -111.34 49.064C-108.126 45.1296 -108.652 50.0126 -106.638 50.3674C-106.022 53.2555 -104.165 52.9539 -102.502 53.4756C-102.154 54.2986 -101.557 55.9351 -100.851 55.8584C-99.6052 54.4636 -98.4528 55.4362 -97.2635 55.2588C-95.3421 54.0664 -93.4345 54.88 -91.5024 55.0855C-90.5758 58.078 -89.9294 55.0826 -88.4075 55.5738C-86.5838 55.5684 -84.7443 56.8698 -82.925 55.914C-81.1234 53.9358 -81.0346 57.2757 -79.3072 56.918C-77.9357 49.1137 -78.0405 41.8885 -76.4479 34.1221C-76.1527 30.8611 -74.6937 27.5779 -75.6248 24.338C-75.0317 20.6188 -74.4386 16.8995 -73.8665 13.3121C-73.0355 12.7496 -72.1504 12.8218 -71.9712 13.3368C-71.4981 14.6953 -70.5453 14.3582 -69.8095 14.8434C-69.4456 15.6981 -69.8678 16.6477 -70.0188 17.5185C-70.3082 19.1808 -69.325 20.4306 -69.949 22.272C-71.9347 30.8202 -71.8951 39.3411 -73.301 47.7934C-73.4387 49.0351 -74.0713 50.4065 -73.2666 51.4447C-73.4457 53.0874 -73.6325 54.7351 -73.8556 56.7121ZM129.715 97.1035C127.224 97.5454 125.025 95.4306 122.413 97.2008C121.244 97.492 119.592 96.7926 118.39 96.5928C117.56 96.1094 117.032 97.601 116.289 97.4622C114.126 97.4418 111.853 95.9306 109.718 96.8661C107.927 98.1307 106.319 96.4003 104.645 96.8964C103.613 97.0404 102.087 99.3994 101.613 97.5651C100.086 97.4745 98.6633 95.9141 96.9987 97.7638C96.1418 97.6528 95.2859 97.5287 94.4267 97.4359C93.5943 97.3456 92.8997 98.7567 91.955 98.2514C91.1824 97.8373 90.1734 98.161 89.4132 97.7232C88.448 97.1678 87.8233 99.3478 86.9436 98.5983C84.6782 102.497 84.3792 107.752 83.6828 112.37C83.4143 114.675 82.142 117.12 83.292 119.329C82.6941 123.079 82.0963 126.828 81.4984 130.577C80.3134 131.051 79.5599 136.415 79.9163 137.79C81.4766 137.608 80.6996 140.02 80.5067 141.571C80.4161 142.252 81.1594 143.102 81.3789 142.659C82.2477 140.904 83.3422 142.508 84.1843 141.541C86.0879 140.196 88.0422 141.806 89.9347 141.744C90.7834 140.264 91.2102 141.713 91.9848 142.05C92.6179 142.408 93.5419 141.833 93.9211 143.01C94.1653 143.768 94.4341 143.103 94.7363 143C95.7343 142.659 96.5974 141.953 97.4261 140.973C99.4655 139.935 98.4038 144.37 101.43 140.256C102.269 140.39 103.093 140.521 103.886 140.647C103.942 141.468 103.988 142.144 104.04 142.902C104.435 142.496 104.871 141.808 105.046 141.909C108.061 142.168 111.158 138.345 114.266 139.876C116.32 140.65 118.197 137.53 120.292 138.471C121.808 139.289 124.106 138.034 125.001 140.367C125.533 141.479 126.923 138.53 127.218 138.529C130.143 138.721 132.583 140.208 135.164 137.56C136.238 137.335 137.352 137.682 138.434 137.67C140.242 135.54 141.657 138.885 143.467 135.87C143.763 133.313 144.583 130.262 144.728 127.677C144.667 125.875 145.978 125.234 146.16 123.749C146.824 120.515 146.773 116.879 148.4 114.179C147.98 107.911 150.371 101.291 150.454 94.8212C150.028 94.7533 149.403 94.3379 149.102 94.6623C147.974 95.8812 146.952 95.346 145.884 95.257C145.287 95.2069 144.436 94.8723 144.119 95.3257C143.117 96.755 141.803 94.7628 140.977 96.7745C138.761 96.4211 136.558 96.0698 134.339 95.7159C133.848 96.3432 133.459 97.0002 132.948 95.816C132.715 95.2766 131.888 95.371 131.436 95.214C130.744 95.973 130.204 96.5668 129.715 97.1035ZM17.5695 142.327C18.1906 138.433 18.8676 134.187 19.5055 130.187C21.6943 127.744 20.3424 123.566 22.3808 121.167C22.6919 120.681 22.9424 119.386 22.7568 119.056C21.7173 115.597 23.6325 111.356 23.8762 107.527C23.6978 107.119 23.4642 106.733 23.3664 106.241C24.3758 104.945 24.3917 104.948 24.8403 101.088C24.3633 99.7497 23.9836 98.6863 23.6275 97.6878C21.6389 99.7308 19.4519 97.6701 17.3363 97.8633C16.4533 97.7667 16.3 95.9675 15.2801 96.6095C14.8125 96.9249 14.4214 97.5549 13.9718 97.9793C13.3359 98.5791 12.4896 98.2213 11.9449 99.2849C11.6422 97.6176 9.95777 97.8804 8.9948 97.6384C7.60641 97.8326 7.83566 99.2265 6.64092 97.3231C5.41614 97.6362 4.29599 99.1271 3.41795 97.1496C3.234 96.8276 2.60488 96.5787 2.51697 96.7265C1.91591 97.7333 1.09229 97.3526 0.45135 97.9843C-1.35947 99.9443 -1.43956 96.6836 -2.60684 97.5992C-3.81486 98.1016 -4.76811 98.2529 -5.31064 97.2972C-6.0444 96.0032 -7.08083 96.4958 -7.95683 96.1156C-9.23314 97.9184 -10.5654 96.6157 -11.879 96.6352C-12.4017 96.4201 -12.8029 96.9406 -13.2737 97.2033C-14.3055 97.7603 -15.487 96.6859 -16.4573 97.9398C-16.7164 98.1585 -17.2782 98.1378 -17.4272 97.8691C-18.5491 95.8474 -20.2827 96.6391 -21.799 96.4398C-23.3115 98.1935 -24.8509 96.4748 -26.5262 96.618C-27.1769 98.8663 -26.867 101.349 -28.3432 102.963C-28.572 103.213 -28.7258 104.206 -28.6006 104.577C-27.942 106.535 -28.9446 109.489 -27.3429 110.684C-27.97 114.616 -28.5664 118.356 -29.1633 122.099C-28.7864 122.988 -28.414 123.868 -28.0605 124.704C-28.1502 126.19 -28.9695 127.719 -28.1541 128.999C-28.3009 130.283 -28.4114 131.572 -28.6042 132.85C-28.8244 134.311 -27.8324 135.353 -28.4633 137.023C-29.3511 139.276 -28.9337 141.633 -28.3624 143.663C-26.8702 143.901 -25.3647 143.989 -23.9358 144.423C-23.0143 144.704 -22.4088 142.988 -21.4517 143.546C-20.6945 143.988 -19.7536 143.882 -18.8945 144.019C-16.1623 142.227 -13.5218 143.891 -11.0156 144.346C-10.7034 144.678 -10.6231 145.737 -10.0112 144.761C-9.53318 143.999 -8.8915 144.783 -8.35355 143.779C-7.07432 140.711 -6.59592 143.607 -6.18289 144.892C-5.69735 144.969 -5.55265 145.071 -5.45497 144.996C-3.05935 142.913 -0.563697 143.248 1.81336 143.858C2.54281 143.057 3.0827 142.464 3.64897 141.842C4.85028 142.279 6.57441 141.782 7.51538 142.824C7.47856 143.858 7.44179 144.891 7.39971 146.078C8.47775 144.639 9.37716 144.03 10.536 143.497C11.5077 142.478 12.4448 143.95 13.3289 142.368C14.1032 143.924 15.2773 143.693 16.279 143.75C16.7951 143.178 17.1191 142.822 17.5695 142.327ZM32.0203 143.991C32.6078 143.16 33.4626 143.412 34.0015 142.766C34.7957 141.813 35.4923 142.722 36.1346 142.278C36.7234 141.871 37.205 141.268 37.8773 141.504C39.3103 141.415 39.7608 143.558 41.4223 143.007C43.2584 141.227 45.0854 143.797 47.0997 141.88C50.5248 141.821 54.2406 144.172 57.645 142.403C58.6416 142.416 59.672 142.479 60.5821 142.893C61.61 143.36 62.4321 141.817 63.4278 142.094C64.4535 142.379 65.5311 142.847 66.6342 141.537C68.8002 142.406 67.1593 146.367 71.7656 141.172C72.9772 141.28 74.0302 141.669 75.2115 141.531C76.6543 132.484 78.0421 123.69 79.4728 114.904C79.7009 113.502 79.5519 111.799 80.7846 110.938C80.6369 110.498 80.4884 110.058 80.3135 109.538C80.6078 106.184 81.9836 102.151 81.6965 98.9685C78.9636 98.5327 76.1731 98.0877 73.4391 97.6517C71.3644 101.197 69.8619 97.7427 67.8107 100.075C67.6928 100.244 67.1683 100.163 67.1181 99.9801C66.7278 98.121 62.7612 97.6211 61.8062 99.1577C60.6254 99.0782 59.306 98.5344 58.1476 98.7078C56.0249 100.617 53.7991 98.5467 51.6126 98.6905C49.5835 98.6499 46.5585 102.099 44.9893 99.3454C46.1468 97.9789 45.4873 97.8879 44.8945 96.5165C44.4252 97.0314 43.993 97.5054 43.5708 97.9687C43.7436 98.4004 43.9163 98.8302 44.1541 99.4252C42.3782 100.436 42.4814 96.5508 40.6774 99.2528C39.9018 98.6392 39.3426 100.383 38.5916 100.077C37.8232 99.7632 36.8318 100.284 36.3638 98.839C35.8422 97.2508 34.3283 100.62 33.8096 99.0419C33.4195 97.8062 32.6399 98.0391 32.6299 98.0366C31.2204 99.0242 30.2737 99.6885 29.7798 100.034C29.119 102.092 29.4111 103.847 28.1607 104.687C27.7878 106.924 27.4149 109.16 27.0425 111.397C28.1443 113.455 26.74 116.435 26.5998 118.921C25.7718 122.096 26.259 126.065 24.3477 128.532C24.0672 128.786 23.8443 130.289 24.0399 130.633C24.914 132.086 23.4952 140.464 22.3872 141.738C21.3428 144.692 23.0894 143.524 24.359 142.868C25.2239 142.907 26.0714 143.107 27.4523 143.327C27.7269 142.83 28.2469 141.888 28.5737 141.296C29.6092 141.462 30.3274 141.576 30.9814 141.68C31.3585 142.518 31.6871 143.249 32.0203 143.991ZM-35.5997 98.6002C-35.9967 97.7746 -36.3951 96.9471 -36.786 96.1349C-38.3843 95.9552 -38.3842 95.9552 -39.1199 97.8611C-40.2907 98.0608 -41.4136 97.8587 -42.2414 96.6125C-42.9775 98.1063 -44.0538 96.6374 -44.647 97.5005C-45.531 98.7876 -46.3968 97.446 -47.1176 98.2949C-49.7644 99.8527 -52.4536 97.7517 -55.1402 97.8256C-55.7874 98.5041 -56.4341 99.1826 -57.0532 99.8302C-60.4819 99.7707 -63.8447 97.6064 -67.2815 99.3531C-67.6265 99.8445 -69.5958 98.6046 -70.331 98.9083C-72.4156 100.978 -74.0525 98.4528 -76.255 99.5137C-76.5617 103.08 -78.04 106.685 -77.2655 110.249C-77.0362 111.051 -77.6607 112.457 -77.7109 113.568C-77.7572 114.589 -77.4773 115.571 -77.4838 116.596C-77.4933 118.172 -78.4729 119.922 -77.5086 121.322C-77.7014 122.625 -77.9051 123.928 -78.0831 125.233C-78.2552 126.494 -77.3103 127.387 -77.8844 128.828C-78.0776 129.313 -78.2598 130.335 -78.1414 130.44C-76.9423 131.509 -78.4641 133.738 -77.5821 134.989C-77.0649 135.723 -78.098 137.143 -77.5256 138.078C-76.874 139.546 -77.8524 141.656 -77.9359 143.274C-77.0146 145.115 -77.0145 145.115 -74.911 145.409C-73.591 143.935 -72.0073 142.293 -71.0301 144.739C-70.8693 145.163 -70.1474 145.137 -69.6653 145.134C-68.4645 145.128 -67.3827 146.067 -66.0481 145.106C-64.6658 144.11 -63.4069 145.33 -62.0593 145.17C-60.3611 143.35 -60.2841 144.437 -59.8792 146.659C-59.079 147.474 -57.9661 146.198 -57.0898 146.053C-55.7415 146.056 -54.4093 146.52 -53.0468 146.558C-52.2545 144.941 -51.1928 146.216 -50.2638 145.421C-49.1873 144.501 -48.0751 144.69 -47.317 145.919C-46.9583 146.501 -46.7502 146.184 -46.4907 145.84C-45.9717 145.151 -45.3122 145.78 -44.752 144.939C-44.3299 144.305 -43.8329 143.428 -42.8277 143.667C-43.0029 145.464 -41.2987 144.43 -41.0078 146.034C-39.6538 146.924 -38.5199 143.63 -37.2729 146.761C-37.0272 147.299 -36.1995 146.986 -36.0623 146.231C-35.6329 144.069 -34.4639 145.629 -33.3096 143.421C-32.3638 140.917 -33.4887 139.04 -32.9946 136.636C-32.7052 135.359 -32.591 134.211 -33.1039 132.986C-33.3885 132.307 -32.6753 130.997 -33.1651 129.881C-33.5265 127.466 -32.3128 124.282 -32.1485 121.627C-33.1743 120.289 -31.8247 118.234 -32.2614 116.997C-32.9208 115.127 -32.1286 113.406 -32.0228 111.63C-32.993 108.315 -31.3522 104.495 -31.0976 101.081C-32.7037 97.9302 -32.6088 94.5391 -35.5997 98.6002ZM87.4543 93.2326C88.9316 91.3035 89.4945 92.4438 90.7542 92.1592C93.2912 90.53 95.5747 92.1781 98.0179 92.2317C102.194 93.6041 102.566 89.5234 107.714 91.4691C109.872 88.8501 112.006 92.7247 114.121 90.2236C114.225 90.0836 114.719 90.5426 115.003 90.7887C115.177 90.9393 115.396 91.4323 115.424 91.4014C116.964 89.6707 118.313 91.1768 119.744 91.1115C122.43 91.9872 124.988 90.34 127.701 90.9602C128.671 89.51 129.601 90.5504 130.785 90.4768C131.225 89.8819 131.817 89.0814 132.29 88.4415C133.54 88.7576 134.754 88.4357 135.361 90.0799C135.427 90.2566 135.932 90.2779 136.046 90.1025C137.593 88.2747 139.441 90.0134 141.106 89.8678C142.451 88.4922 143.732 89.2175 145.034 89.3313C145.921 88.6018 146.639 87.8904 147.465 88.6349C148.416 89.2402 149.062 87.2315 149.943 87.8009C150.78 88.342 151.34 87.1943 152.106 86.4455C152.093 82.9868 158.53 54.5626 155.753 56.4886C153.592 59.2081 152.752 54.9074 150.493 55.6985C149.307 57.1762 147.916 58.5629 146.958 56.5753C146.743 56.204 146.714 56.1013 146.417 56.4262C145.164 57.9003 143.85 55.9443 142.561 57.7274C141.897 57.9957 141.296 55.5874 140.529 56.4962C138.923 58.0298 137.116 56.6355 135.465 56.6145C132.338 58.0355 128.418 59.3416 125.735 56.6147C125.552 56.169 125.478 56.12 125.184 56.5622C124.519 57.5624 123.516 57.0478 122.815 58.2076C121.139 61.0795 120.928 55.5651 119.095 58.6454C111.15 57.3139 103.096 59.2977 95.0931 57.1266C94.0463 58.9148 93.0454 60.7289 93.046 63.0475C93.0466 64.4324 91.9849 64.7035 91.8188 65.8398C91.4713 67.1789 91.6312 69.1887 90.8727 70.1288C90.1601 70.6466 90.4334 71.1137 90.6702 71.766C90.9776 73.764 89.1496 73.8828 89.2936 77.7558C90.232 81.539 87.8458 88.1176 87.4543 93.2326ZM53.0356 93.1405C54.7096 94.2669 56.0494 92.2142 57.649 92.709C60.7632 92.8872 64.0514 94.7354 67.0975 93.0839C68.4497 93.0838 69.7015 94.0076 71.0807 92.9374C72.1788 92.1831 74.0082 93.574 75.0292 93.0011C77.4724 91.2048 79.6392 93.8637 82.1667 91.7748C85.0549 85.6653 85.154 77.5422 86.4803 70.6177C86.5251 68.9155 87.8365 68.3271 87.9336 66.6969C88.022 65.2087 88.3953 63.7039 88.6139 62.2019C88.8231 60.7665 87.8574 59.6778 88.4867 58.0291C88.7175 57.4248 87.9985 56.7168 87.5068 57.1725C85.6553 59.3151 83.7768 56.1682 81.8376 58.4641C81.7633 58.5486 81.5852 58.476 81.4778 58.4119C79.6644 55.3833 80.2162 58.4911 77.6651 57.8384C75.8705 59.5622 73.461 58.1593 71.5452 57.9351C70.6987 57.5225 70.1976 58.9829 69.4428 58.8236C68.3507 58.592 67.2413 58.4575 66.1628 58.2856C65.3087 55.6964 64.8763 57.6082 63.4394 57.7973C62.1539 55.6239 60.6646 58.7307 59.0003 58.3327C56.7368 58.199 54.3686 56.777 52.0818 57.8873C48.6602 59.8043 49.8772 53.8925 46.4342 58.6039C44.7358 58.0705 42.9282 58.7293 41.7251 57.2163C41.2723 56.3271 40.7396 56.3349 40.1769 57.1445C39.3172 58.3816 38.4168 58.8022 37.3998 58.3172C36.9676 58.7921 36.536 59.2662 36.1481 59.6925C35.7794 61.365 35.4226 62.9804 35.0665 64.5957C33.9364 65.5942 34.2102 67.28 33.8585 68.6599C34.93 70.4534 33.793 72.535 33.6741 74.4835C31.3409 77.9315 31.4855 86.532 30.258 91.2377C30.554 91.8968 30.8166 92.4817 31.0877 93.0855C31.8107 93.2008 32.5444 93.3178 33.4143 93.4566C35.9875 90.0928 35.4137 91.5576 37.1481 93.8822C38.6168 92.4867 40.3369 93.4472 41.7504 93.9424C42.2677 95.5219 43.4534 94.8603 44.342 95.2196C44.986 94.5432 45.6329 93.8638 46.2538 93.2121C47.031 93.336 47.8149 93.2912 48.4928 93.6124C49.4394 93.9349 50.4808 91.587 51.0714 93.3967C51.1666 93.923 50.5925 94.8342 51.3578 94.9854C51.911 94.3768 52.4509 93.783 53.0356 93.1405ZM24.4531 92.0461C26.5255 90.837 25.5366 87.8718 27.238 86.1004C27.5235 85.8586 27.78 84.3308 27.591 84C26.8327 82.6747 27.2545 81.1918 27.5671 79.7915C28.0344 77.6969 27.6912 75.2122 29.2844 73.6137C29.6401 69.8203 31.0939 65.5485 30.7972 61.9641C29.8987 60.5696 31.2594 59.8917 31.4983 58.8952C29.7374 57.6745 27.3685 58.1544 24.9637 57.4897C24.4464 60.0715 23.9815 55.7582 22.7007 57.7488C21.0276 60.7422 19.2567 57.3781 17.4789 59.7598C14.2647 59.5506 16.933 56.6998 12.6178 59.5461C11.013 61.3222 9.93219 57.1601 8.44509 58.6746C7.42397 60.0549 6.13239 58.1263 5.30386 60.127C4.45702 59.8293 3.62422 59.8203 2.84734 60.8902C1.0994 60.3187 -1.08318 60.9425 -2.51984 59.4948C-2.42398 58.632 -1.71013 56.1806 -2.86252 57.0792C-3.8872 62.1454 -6.97676 57.4993 -9.02584 60.1136C-9.23016 59.7193 -9.43438 59.3242 -9.68939 58.8334C-9.96116 59.509 -10.2141 60.1389 -10.4675 60.7688C-11.901 61.4961 -13.7839 59.972 -15.1921 60.4761C-17.9522 62.6498 -20.5549 59.0452 -23.3528 62.0052C-25.1766 71.1734 -25.0096 79.8747 -26.9101 89.059C-25.6841 92.6634 -24.0459 90.1436 -21.9376 89.4399C-20.6001 92.3237 -17.2444 89.4349 -15.9665 92.7505C-15.1621 91.9078 -14.5141 91.2286 -13.8684 90.5525C-10.9985 90.9217 -8.34715 92.0493 -5.4915 90.6866C-4.10872 91.1928 -2.54144 91.0872 -1.08964 91.3241C-0.549222 90.7302 -0.00874998 90.1364 0.53236 89.5419C1.53391 90.1561 1.14872 91.9172 1.62213 93.0883C2.58079 91.3364 3.95166 91.0996 5.17839 90.3164C5.5073 91.0488 5.83684 91.7814 6.16505 92.5146C8.04333 90.248 8.47145 92.9063 9.91175 93.0918C10.7118 91.8222 11.583 92.6014 12.3856 92.2536C13.7188 91.5112 15.1706 89.7655 16.4345 91.1078C17.2096 92.3606 20.3596 93.2865 21.502 91.5746C22.4849 91.7322 23.469 91.8891 24.4531 92.0461ZM-73.6569 92.5638C-72.2978 92.8876 -70.0153 92.9058 -68.5576 93.4327C-67.6258 93.8448 -66.9019 92.6303 -66.095 92.6476C-65.0998 92.6693 -64.1286 92.9285 -63.1462 93.0852C-62.0417 93.2613 -60.911 93.3196 -59.8406 93.6477C-58.8487 93.9517 -58.0105 92.316 -57.0045 92.8806C-55.7224 93.5997 -54.377 92.7548 -53.1601 91.8188C-51.0999 89.7271 -50.7215 94.581 -49.0279 91.9967C-48.0504 92.111 -47.0731 92.2262 -46.0961 92.3405C-44.0651 89.9116 -41.7185 93.2349 -39.6573 91.7951C-38.1604 90.4332 -36.9397 92.3734 -35.7135 91.2992C-34.2381 90.0834 -33.1293 90.5378 -32.2129 92.2164C-30.9829 93.0661 -30.3797 89.1724 -31.3359 88.3391C-31.097 86.8412 -30.9 85.3331 -30.6076 83.8481C-30.2818 82.1908 -31.1961 80.975 -30.6853 79.1129C-30.0227 76.35 -29.5613 72.9696 -29.2538 70.2022C-30.7849 68.278 -26.5806 58.6475 -30.6411 62.4771C-31.4731 62.3444 -32.3993 62.424 -33.1734 62.0149C-34.1141 61.5174 -34.8121 62.8766 -35.6416 62.8301C-36.8245 62.7644 -37.9921 61.9459 -39.1977 63.4214C-39.7456 63.1863 -40.4727 63.5956 -40.825 62.6498C-41.8273 60.2882 -43.6552 65.1458 -44.7993 61.4095C-45.4279 62.0688 -46.056 62.7264 -46.7032 63.4049C-47.6687 63.251 -48.6475 63.0949 -49.6271 62.9387C-51.7665 65.0584 -53.9393 62.8718 -56.1311 63.0307C-59.2188 65.6155 -62.0787 61.2616 -65.0834 63.9118C-66.4332 63.6966 -67.7761 63.425 -69.1389 63.3102C-72.33 66.4781 -71.7888 59.9076 -74.4098 64.331C-74.6891 67.889 -76.3097 71.3419 -75.3369 74.7714C-75.5758 76.2693 -75.8916 77.7665 -76.0309 79.2652C-76.1606 80.6602 -75.379 81.785 -75.9209 83.4308C-76.3175 84.6347 -76.384 86.0301 -76.5822 87.3417C-76.7735 88.6102 -75.9253 89.4511 -76.3522 90.9464C-76.6629 93.3419 -75.2103 93.9051 -73.6569 92.5638Z" fill="#82C6DD" stroke="#282828" mask="url(#path-1-inside-1_287_960)"/>
</svg>
