<svg xmlns="http://www.w3.org/2000/svg" width="191" height="380" fill="none" viewBox="0 0 191 380"><mask id="a" fill="#fff"><path d="m72.4 149-1.8 1.5c3.4-4.1 2.6-2.8 1.8-1.5m71.1 181.9c1.1.6 1.1.4.8 0-.8-.3-3-2-5.4-4 .5.7 1.6 1.9 4.6 4m-9.3-8-.3-.2c-4.4-4-2.8-2.6.3.1M387 205.3q2.9 2 6.5 5.5l-1.6 1.7 1.3-1.7q-3-2.3-6.2-5.5M271.4 373c-1.5 2.2-4.1 6.8-5.8 8 .8-3.2 2.7-4.7 5.8-8m-93.7 71 5.6 7.5c-8.6-7.2-13.7-13.5-8.8-6.2 1-.4 4 2.1 7.5 5.8l2.8 2.8 4.1 4.5 10.3 11a256 256 0 0 0 10.2-14.7l.5-1.1v-.6l4.1-4.3c-1 1.3-1 1.7-2.1 3 8.3-8.3 3.5-8.3 13-20 3.5-4 6.1-6.6 4.2-3.5l6.6-9.7c2-2.7 2-1.7-.1 1l10.7-14.3v.1c1.2-2.3 4.1-7.3 5.6-9.7 3.1-3.3-1.1 2-.1 1.3l5.4-8.3c3.2-2.7-1.2 4.3-5.5 9.6 8.2-5.3 4.4-7 18-21.6l-5.3 7.7c5-3.7 9-9.8 16.4-17.5-2 1.6-15.2 15-9.2 6a65 65 0 0 0 7.6-10.3c.9.7 4.1-4 8.4-9.6l1 1.3c4.3-6.3 3.3-6.3 5.5-10.3 5.4-6.6 7.4-7.3 9.4-8.3 8.5-10.6-7.3 6.3 2.4-6.6 7.4-8.7 11.8-15.3 19.4-26.6 5.3-6-.1 1.6 2-.3l3.4-6.3c1-1.4 1-.7 1-.4 3.2-5-1-1.3 4.5-9 .2-3 13.6-13.6 19.2-23.9 2-2-.1 1.7.9 1.4 8.7-13.3 7.6-11.3 14.3-22.6l7.5-8.2c-5.8 5.8-.5-3.3 4.2-11.1l-5.3 4.7 4.2-6 2-3 1-1.3.7-1.2c1.1-1 1 0 .2 2l1.2-2q2.6-2.7 2.7-2 .3.8-1.3 3.8l-1.1 1-1 1-2 1.9c-1.5 3.3-2.8 6.6-1.6 6.6q.7-1.5 2.6-4-.7 1.5-.2 1.2.5-.5 2.2-3.8l.9-.4.4-.2.5-.4 2.3-1.5v-1.1l5.6-6.7-7.3-6.5-1.9-1.7-.5-.4-.3-.3-.6-.6-2.4-2.3c-11.7-7.4-22.4-13.2-39.6-26.6 5 2.6 2.2-.7 3.3-1.7 3.6 5 13.4 10.3 21.9 17.8-4.4-4-3-3.6-1.7-2.9l-16.4-11.7c1.1-.7-2.7-3.5-6.4-7.2 1.5 4.3-12.5-8.4-19.3-13 .1-1 2.1-.4 9.7 6.2-7.4-8.4-12.7-7-20-15 1.8 1.5 2.7 2.4 3.7 2.7-4.8-3.1-15.1-12.4-12.2-10.9l1.9 1.6c-12.3-10.6-37.9-31.5-41-31.6 0-.3 3.1-.4 4.1-.1L245 93c3 .3-2-9 9-1.2-2.8-2.6-6.3-5.9-13-10.6 2 1.8 3.6 6 .7 3.9a87 87 0 0 0-5.7-6.6l-2.6-2.7-2-2-.3-.4-.4-.4-1-1-2.3-2.3c2 2 1.7 2.5.4 2.2q-1 0-2.6-1-1.5-.6-3.3-2l-1.4 1.6q.3-1 0-2.2c0-.8 0-1.8 1.1-3.3l-7 9.4-.4.6-.2.2-.1.2-.6.9-1 1.6L210 81c2.3-3-1.2-2-4.1 0 1.5-.8-9.2 9.6-11.8 12.8l5-4.3c-12.3 12.3-9.2 15-21.1 27.4 1-1.9 1-6-5.2.1-1.7 3.9-7.5 17.4-17.2 29.2l-2.5 1.6-7.4 9.1a457 457 0 0 1 20.9-33.7c-5 4.3-2 .7-8.6 7.8-2.9 2 2.9-4.6 4.8-6.7l-16 16.1c2 .4-10.7 13.7-9.1 14l15.7-19c1.8.3-6.5 13.4-17.8 24.9-3.2 2.5.1-4.2-.5-4.3a92 92 0 0 1-11 12.6l4-5.5c-6.5 6-8.5 12-17 18.8-2.6 2.6-9 6.7-8.8 7.8 5.5-3.2 10.4-.2 8.6 3.6-1 1-14.7 13-18.2 15.5-5.2 3.5 3.8-9-.6-6 .1.4-1.8 3.2-2.6 4.4-3 2.6.1-2.1-5.6 4.2.2 2.1-11.9 12.4-1.7 3.8-5.4 6.4-6.3 6.2-13 13.3 3-1.5-3.4 8.8-8.8 15.1 0-.6-1.6.4-2.4.9l-7.3 7.5-6.9 6.9 8.7 7.2 9.2 7.5c.9 1.2 6.6 6.3 3.6 4.8 2 1.2 4 2.1 7.9 5.1 6.6 7-8.7-6.6-4-.8 1-.3 10.7 6.9 16.5 10.8-.8-2.5-12.5-10.3-18.3-14.2 1.1-1.5 11.8 7.6 25.4 17.3 10.7 7.8 4.5 3.4 6.5 4.6 19.3 15.7 18.2 8.4 33.5 22.3 5.6 6.1-1.3 2.2-.4 4-8.8-6.3-12.5-10.8-18.3-15.3l6.7 6c-3-1.8-8.8-6-11.6-8.7 4.7 5.1 32.8 26.2 47.2 39 3 1.7 7.8 5 6 3l-4.9-3.7c-3.8-4.3 9.8 6 4 .9 7 4.5 14.8 9.3 23.4 16.8l.8 2.5c0-.5-5.3-5.3-8.1-7 4.1 2.5 12.6 12.4 17.8 14.2l-5.7-5.7 9.3 5.9 2.4 1.6 1.2.6 2.2 1.4 1.4-1.8q-1 0-1 .3l-.5.6q-.5-.5-1-1.8.3 1.3-.6.7l-1.1-.8-3.4-2.6c-4.7-3.8-9-7.2-5.8-3.3-4.6-6-9.6-8.6-16.1-15.9-.1.6 2 2.9-4.5-2.6l-1.7-.8-.4-.4.3.3q-.6-.3.1.1 2.3 2.3 3 3.3c-4-1.8-14.6-10.2-18.5-12.6-3.9-3.4 2 .8 0-1.3l-5.8-3.6c.1-1.2-9.5-9.7.3-2.8l-8.4-6.7c-4.6-4.3-11.3-10-15.8-13-3.8-3.2-10.7-7-6.7-4.8l-13.7-10v-.3c-12.9-10.2-27.7-19.8-41.4-33l-6.8-5-.8-.6-.4-.2-.8-.7-1.7-1.4q.3 0 .5-.4l1.6-.3q.4-.6 1.2-1.3l5.2-5.2c3.4-3.4 6.4-6.5 7.2-8 7-3.9 24.1-24.7 33-33.5l-.5-1.2c6-6.2 11.4-12.5 18.4-20.6l-1.2-.2c5.7-7.3 16.8-16.8 26.8-27.5-.4 1-3 3.6-5 5.4 13.7-11 24-28 36.2-38.3a46 46 0 0 1 6-6.2l1-1.2 4.2-3.6q-2 1.5-3.6 3c2.1-2.2 5.2-5.7 8-9.1l2.2-.7.7-.7c3.4-3 2-3-.2-1.9l3.7-4.8c3.8-1.3 7.7-9 12.4-11.3.6-1.1 3.2-4 6-7.4l2.2-2.6.7-.9.5-.7 2.1-3q1.3.4 1.8.2c0 .3.7 1-.6 0l2 1.8.9.8.6.5.7.6q2.9 2.4 5.7 4.3l.7 2.5 9.8 5.6c4.6 5 6.4 7.2.6 3.8 13.5 9 10.5 7.8 22.1 15.3l-1 .3c3.7 3.1 10.5 7.2 12.3 9.7 7.4 8.4 41.7 35 62.3 54.2-2.5-5.6 9.3 9.3 11.5 8.4.9 1.6 3.7 4.3-.2 1.8 11.5 8.8 16 14.7 24.7 19.6.9 1.6-3-1.2-2 0 1 .7 3.8 2.5 4.7 3.8s-2-1-3.9-2.2l4.3 3.4.2.1h.1l.2.1.3.2.6.2 2.7.9q.8.7 2 1.2l-2.4 2.5-.5.5-.7.8a41 41 0 0 0-5 8c-2 1.7-5.1 4.7.3-2.6-3.2 4-19.8 24-19 25.4a43 43 0 0 0-5.1 6.7c-7.1 9-7.8 9.7-14.6 18.7l2.1-2.3c-1.3 4.6-5.4 7.6-10.8 15v-.4c-13.7 15.6-5 7.5-18.7 22.7l1.6-.2c.7 3-12.3 13.5-18.9 23.5l3.2-3c-3.3 5.6-13.8 12.3-18 17.3-1 1 1.1-2 2.2-3.7-11.6 12.7-.2 2.7-7.7 13-2 1.3.2-3.7-5.1 3-3.1 3-13.2 21.2-21.6 29.5 2-1.6 4.1-3.3.9 1.7-5.4 7.3-16.9 18-20.4 25.6q-1.2 1.1-1.3 1c-3.9 5.7-13.2 18.3-15 22.2a22 22 0 0 0-6.7 6.4l-2 2.7-.3.4-.3.4-.6.8-2.5 3.8-6.6-6.5c-2.4-2.7-3.8-4.6-3.1-5.2L174 425.2l.6.2c-9-10.3-13-13.3-16.9-16.3-2-2.5-.1-1 .2-1a194 194 0 0 0-27.2-27.8l-.3-2c-3.6-3-18.2-22.7-32.5-36.2q.2-.1 1.8 1.2c-15.9-15.4-33.4-41.2-42-44.4l-10.6-10c12.5 14.1-3.2-.9 1.5 5.3-5.2-5.3-12-15-5.7-8.4l.8 1.2c3.9 1-15.3-17.8-13.8-18.4q-4.6-5.1-8.8-10.4a65 65 0 0 1-6.9-11 32 32 0 0 1-2.6-23.6A60 60 0 0 1 24 202.2q4.1-4.8 8.5-9.5l9-9.5-4 1.7 8.2-8.7c2.5-2 3.9-2.2-2 4a41 41 0 0 0 9-11.5c12-12-3 6.1.6 2.4l4.7-5.2-1.2 1c3.3-4.7 3.1-5.5 10.2-13 4.7-4.6 3-1.8 4.9-3.6 0 0 .7-.5 2.7-2.9l10.4-11-5 3.5c4-5.4 9.7-10.4 3.8-6.3 8.7-6 39.2-41 44-45 5.7-7.7 12-14.5 20-22.9-2.2 2-4.5 2.2 2.4-5-.2 4.8 13.4-12.4 20.5-16.8-6 4.3 19-21 9.8-14.1 5.8-5.9 1.2.4 6-3.6A65 65 0 0 1 197 15.8c4-3 8.6-5.3 13.3-6a21 21 0 0 1 7.2.2q3.6.7 7.1 2.5 7 3.8 13.4 10c.6 0-1.9-3.3 2.2-.2q3.8 5.2 7.5 10.7c3.5 3.4 4.8 1.6 9.8 9-.6-1.1-1.5-2.8.8-.6 31.7 36.4 69 70.4 99.8 108.5-4-5.4-.9-2.2 2.7 1.4-2.2-2.5.7-.6.7-1.5l13 16c3.6 1.6 15.1 15.8 17.7 16.4l-4.7-4.6c7.2 5.1-5.5-11.4-3-12-8-5.6-15.4-20.5-28.3-30-2-2.9 2.6 1.6 1.7 0-3.5-2.4-7-5.7-12.9-12.6l1 .6C328.2 105.4 321.4 97 302.4 76l.6 2.3c-4-4.5-4.7-5.7-6.5-8-6-3.9 11.7 12.5 6 9.2-4-7.4-29.5-31.3-31.4-37-6.5-6.8 1 2.9-5.5-4l-1.2-2.2-2.3-1.1c-4.1-4.6-5.6-7.4-5.3-8l4.1 4.1c-2.4-3.2-6.3-7.2-9.9-10.7-3.5-3.6-7-6.6-8-7.7q3.4 3.4 6.4 6.9a99 99 0 0 0-16.3-13.6q-5-3.1-10.9-5-6.1-1.6-12.5-.8-6.2 1-11.5 3.8a51 51 0 0 0-9.3 6.5c-5.4 4.7-9.8 10-13.7 14.6l1.7-1c-12 14.4-10.6 10.6-24.3 26l.4-.6c-2.4 3.3-6 7.5-9.8 11.6 3-4.2-7.6 6.4-3.4 1-13 15.5-6.3 7.8-14 19l-2.7 1.7c-2.5 3.9-2.5 4.4-9.3 12.1 5.2-6.7-5.5 4 .2-3.7-16 14.5-20.3 24.8-29.1 30.2-5 8.9 13.7-12.8 10.3-8.4 3.7-2.8-4.3 7.2-9 12-4.8 5-10.3 6.5-22 19.3 1.2-1.3 1.1-1.5 2.3-2.8-4.9 4.4-8 10-14.2 15-2 4.3-7.1 7.6-6.6 9.8l10.5-12c-5.8 7-10 14.7-20.8 24.8.5-1 3.2-4.7 5-7-3.3 2.7-5.4 6.3-8.9 9.2-.5-2.2 12.9-14.4 18.4-22.5-3.8 3-11.4 14.3-9.6 9.4a35 35 0 0 1-7.8 10q-2.7 2.5-5.4 5.5t-5.2 6.9l-.3-1.4c-1.2 1.6-3.4 4.9-5.6 7.7l3-5.9c-2.8 4.1-6 7.7-9 11.6L7.2 207q1.3-1.6 1.3-1c.1.2 0 .8.3.9s.7-.4 2-2c-3 5.4-4.6 9.1-5.8 11.9l-1.6 3.6-1.4 3A28 28 0 0 0 .3 238l.3 2 .6 2.4.7 2.4 1 2.6q-.7-1.5-1.3-4l-.5-2.2L1 240v-1a8 8 0 0 1 0-2.6q0-.4.7 1.9l.8 4.5.6 2.3.7 2.2q1.5 4.6 2.5 7a52 52 0 0 0 4.4 6.5c.5.5.2-.1-.2-1-.9-2-2.4-5 0-1.9 1.3 3 2.8 4.8 4.6 6.5s4 3.5 6.7 6.3l-.8.7c3.3 4 5.2 6 6.5 7.2a7 7 0 0 0 2.5 1.6c1.2.4 2.1.6 7.9 7.6l-6.3-4.6L38 290l-2.2-.6c7.6 6.9 9.6 9.4 16 17-1-2.2 2.5-.4 8.5 6.2 3.6 4.9-3-1.8 5.5 7.4-2.4-1.7-5.2-3.4-8.1-8.1-.7-.2-2.4-1.6-3-1.8 3.8 5.4 10.9 12.2 14 15.6l-3.2-3.8L79 334.3c1.6 2.4-.2 1-2-.5 2.6 2.6 4.8 4.2 8.5 8.1-1.6-.4-2.1.5-7.6-5l12.5 12.2c.5 1.1 5.2 7.3 3.4 5.9 6.1 7.5 17.3 16.2 25.4 26.1q.8.5 3.5 3.2c8 9 14.3 17.6 24.9 27.2l4.2 7c7.8 8-5.8-9.4 7.2 3.9 9.2 9.3 2.2 4.5 5 8.3 5 4.2 14 11.5 21.1 21.3-3-2.8-4.8-5.3-7.5-8"/></mask><path fill="#fc6b7e" d="m72.4 149-1.8 1.5c3.4-4.1 2.6-2.8 1.8-1.5m71.1 181.9c1.1.6 1.1.4.8 0-.8-.3-3-2-5.4-4 .5.7 1.6 1.9 4.6 4m-9.3-8-.3-.2c-4.4-4-2.8-2.6.3.1M387 205.3q2.9 2 6.5 5.5l-1.6 1.7 1.3-1.7q-3-2.3-6.2-5.5M271.4 373c-1.5 2.2-4.1 6.8-5.8 8 .8-3.2 2.7-4.7 5.8-8m-93.7 71 5.6 7.5c-8.6-7.2-13.7-13.5-8.8-6.2 1-.4 4 2.1 7.5 5.8l2.8 2.8 4.1 4.5 10.3 11a256 256 0 0 0 10.2-14.7l.5-1.1v-.6l4.1-4.3c-1 1.3-1 1.7-2.1 3 8.3-8.3 3.5-8.3 13-20 3.5-4 6.1-6.6 4.2-3.5l6.6-9.7c2-2.7 2-1.7-.1 1l10.7-14.3v.1c1.2-2.3 4.1-7.3 5.6-9.7 3.1-3.3-1.1 2-.1 1.3l5.4-8.3c3.2-2.7-1.2 4.3-5.5 9.6 8.2-5.3 4.4-7 18-21.6l-5.3 7.7c5-3.7 9-9.8 16.4-17.5-2 1.6-15.2 15-9.2 6a65 65 0 0 0 7.6-10.3c.9.7 4.1-4 8.4-9.6l1 1.3c4.3-6.3 3.3-6.3 5.5-10.3 5.4-6.6 7.4-7.3 9.4-8.3 8.5-10.6-7.3 6.3 2.4-6.6 7.4-8.7 11.8-15.3 19.4-26.6 5.3-6-.1 1.6 2-.3l3.4-6.3c1-1.4 1-.7 1-.4 3.2-5-1-1.3 4.5-9 .2-3 13.6-13.6 19.2-23.9 2-2-.1 1.7.9 1.4 8.7-13.3 7.6-11.3 14.3-22.6l7.5-8.2c-5.8 5.8-.5-3.3 4.2-11.1l-5.3 4.7 4.2-6 2-3 1-1.3.7-1.2c1.1-1 1 0 .2 2l1.2-2q2.6-2.7 2.7-2 .3.8-1.3 3.8l-1.1 1-1 1-2 1.9c-1.5 3.3-2.8 6.6-1.6 6.6q.7-1.5 2.6-4-.7 1.5-.2 1.2.5-.5 2.2-3.8l.9-.4.4-.2.5-.4 2.3-1.5v-1.1l5.6-6.7-7.3-6.5-1.9-1.7-.5-.4-.3-.3-.6-.6-2.4-2.3c-11.7-7.4-22.4-13.2-39.6-26.6 5 2.6 2.2-.7 3.3-1.7 3.6 5 13.4 10.3 21.9 17.8-4.4-4-3-3.6-1.7-2.9l-16.4-11.7c1.1-.7-2.7-3.5-6.4-7.2 1.5 4.3-12.5-8.4-19.3-13 .1-1 2.1-.4 9.7 6.2-7.4-8.4-12.7-7-20-15 1.8 1.5 2.7 2.4 3.7 2.7-4.8-3.1-15.1-12.4-12.2-10.9l1.9 1.6c-12.3-10.6-37.9-31.5-41-31.6 0-.3 3.1-.4 4.1-.1L245 93c3 .3-2-9 9-1.2-2.8-2.6-6.3-5.9-13-10.6 2 1.8 3.6 6 .7 3.9a87 87 0 0 0-5.7-6.6l-2.6-2.7-2-2-.3-.4-.4-.4-1-1-2.3-2.3c2 2 1.7 2.5.4 2.2q-1 0-2.6-1-1.5-.6-3.3-2l-1.4 1.6q.3-1 0-2.2c0-.8 0-1.8 1.1-3.3l-7 9.4-.4.6-.2.2-.1.2-.6.9-1 1.6L210 81c2.3-3-1.2-2-4.1 0 1.5-.8-9.2 9.6-11.8 12.8l5-4.3c-12.3 12.3-9.2 15-21.1 27.4 1-1.9 1-6-5.2.1-1.7 3.9-7.5 17.4-17.2 29.2l-2.5 1.6-7.4 9.1a457 457 0 0 1 20.9-33.7c-5 4.3-2 .7-8.6 7.8-2.9 2 2.9-4.6 4.8-6.7l-16 16.1c2 .4-10.7 13.7-9.1 14l15.7-19c1.8.3-6.5 13.4-17.8 24.9-3.2 2.5.1-4.2-.5-4.3a92 92 0 0 1-11 12.6l4-5.5c-6.5 6-8.5 12-17 18.8-2.6 2.6-9 6.7-8.8 7.8 5.5-3.2 10.4-.2 8.6 3.6-1 1-14.7 13-18.2 15.5-5.2 3.5 3.8-9-.6-6 .1.4-1.8 3.2-2.6 4.4-3 2.6.1-2.1-5.6 4.2.2 2.1-11.9 12.4-1.7 3.8-5.4 6.4-6.3 6.2-13 13.3 3-1.5-3.4 8.8-8.8 15.1 0-.6-1.6.4-2.4.9l-7.3 7.5-6.9 6.9 8.7 7.2 9.2 7.5c.9 1.2 6.6 6.3 3.6 4.8 2 1.2 4 2.1 7.9 5.1 6.6 7-8.7-6.6-4-.8 1-.3 10.7 6.9 16.5 10.8-.8-2.5-12.5-10.3-18.3-14.2 1.1-1.5 11.8 7.6 25.4 17.3 10.7 7.8 4.5 3.4 6.5 4.6 19.3 15.7 18.2 8.4 33.5 22.3 5.6 6.1-1.3 2.2-.4 4-8.8-6.3-12.5-10.8-18.3-15.3l6.7 6c-3-1.8-8.8-6-11.6-8.7 4.7 5.1 32.8 26.2 47.2 39 3 1.7 7.8 5 6 3l-4.9-3.7c-3.8-4.3 9.8 6 4 .9 7 4.5 14.8 9.3 23.4 16.8l.8 2.5c0-.5-5.3-5.3-8.1-7 4.1 2.5 12.6 12.4 17.8 14.2l-5.7-5.7 9.3 5.9 2.4 1.6 1.2.6 2.2 1.4 1.4-1.8q-1 0-1 .3l-.5.6q-.5-.5-1-1.8.3 1.3-.6.7l-1.1-.8-3.4-2.6c-4.7-3.8-9-7.2-5.8-3.3-4.6-6-9.6-8.6-16.1-15.9-.1.6 2 2.9-4.5-2.6l-1.7-.8-.4-.4.3.3q-.6-.3.1.1 2.3 2.3 3 3.3c-4-1.8-14.6-10.2-18.5-12.6-3.9-3.4 2 .8 0-1.3l-5.8-3.6c.1-1.2-9.5-9.7.3-2.8l-8.4-6.7c-4.6-4.3-11.3-10-15.8-13-3.8-3.2-10.7-7-6.7-4.8l-13.7-10v-.3c-12.9-10.2-27.7-19.8-41.4-33l-6.8-5-.8-.6-.4-.2-.8-.7-1.7-1.4q.3 0 .5-.4l1.6-.3q.4-.6 1.2-1.3l5.2-5.2c3.4-3.4 6.4-6.5 7.2-8 7-3.9 24.1-24.7 33-33.5l-.5-1.2c6-6.2 11.4-12.5 18.4-20.6l-1.2-.2c5.7-7.3 16.8-16.8 26.8-27.5-.4 1-3 3.6-5 5.4 13.7-11 24-28 36.2-38.3a46 46 0 0 1 6-6.2l1-1.2 4.2-3.6q-2 1.5-3.6 3c2.1-2.2 5.2-5.7 8-9.1l2.2-.7.7-.7c3.4-3 2-3-.2-1.9l3.7-4.8c3.8-1.3 7.7-9 12.4-11.3.6-1.1 3.2-4 6-7.4l2.2-2.6.7-.9.5-.7 2.1-3q1.3.4 1.8.2c0 .3.7 1-.6 0l2 1.8.9.8.6.5.7.6q2.9 2.4 5.7 4.3l.7 2.5 9.8 5.6c4.6 5 6.4 7.2.6 3.8 13.5 9 10.5 7.8 22.1 15.3l-1 .3c3.7 3.1 10.5 7.2 12.3 9.7 7.4 8.4 41.7 35 62.3 54.2-2.5-5.6 9.3 9.3 11.5 8.4.9 1.6 3.7 4.3-.2 1.8 11.5 8.8 16 14.7 24.7 19.6.9 1.6-3-1.2-2 0 1 .7 3.8 2.5 4.7 3.8s-2-1-3.9-2.2l4.3 3.4.2.1h.1l.2.1.3.2.6.2 2.7.9q.8.7 2 1.2l-2.4 2.5-.5.5-.7.8a41 41 0 0 0-5 8c-2 1.7-5.1 4.7.3-2.6-3.2 4-19.8 24-19 25.4a43 43 0 0 0-5.1 6.7c-7.1 9-7.8 9.7-14.6 18.7l2.1-2.3c-1.3 4.6-5.4 7.6-10.8 15v-.4c-13.7 15.6-5 7.5-18.7 22.7l1.6-.2c.7 3-12.3 13.5-18.9 23.5l3.2-3c-3.3 5.6-13.8 12.3-18 17.3-1 1 1.1-2 2.2-3.7-11.6 12.7-.2 2.7-7.7 13-2 1.3.2-3.7-5.1 3-3.1 3-13.2 21.2-21.6 29.5 2-1.6 4.1-3.3.9 1.7-5.4 7.3-16.9 18-20.4 25.6q-1.2 1.1-1.3 1c-3.9 5.7-13.2 18.3-15 22.2a22 22 0 0 0-6.7 6.4l-2 2.7-.3.4-.3.4-.6.8-2.5 3.8-6.6-6.5c-2.4-2.7-3.8-4.6-3.1-5.2L174 425.2l.6.2c-9-10.3-13-13.3-16.9-16.3-2-2.5-.1-1 .2-1a194 194 0 0 0-27.2-27.8l-.3-2c-3.6-3-18.2-22.7-32.5-36.2q.2-.1 1.8 1.2c-15.9-15.4-33.4-41.2-42-44.4l-10.6-10c12.5 14.1-3.2-.9 1.5 5.3-5.2-5.3-12-15-5.7-8.4l.8 1.2c3.9 1-15.3-17.8-13.8-18.4q-4.6-5.1-8.8-10.4a65 65 0 0 1-6.9-11 32 32 0 0 1-2.6-23.6A60 60 0 0 1 24 202.2q4.1-4.8 8.5-9.5l9-9.5-4 1.7 8.2-8.7c2.5-2 3.9-2.2-2 4a41 41 0 0 0 9-11.5c12-12-3 6.1.6 2.4l4.7-5.2-1.2 1c3.3-4.7 3.1-5.5 10.2-13 4.7-4.6 3-1.8 4.9-3.6 0 0 .7-.5 2.7-2.9l10.4-11-5 3.5c4-5.4 9.7-10.4 3.8-6.3 8.7-6 39.2-41 44-45 5.7-7.7 12-14.5 20-22.9-2.2 2-4.5 2.2 2.4-5-.2 4.8 13.4-12.4 20.5-16.8-6 4.3 19-21 9.8-14.1 5.8-5.9 1.2.4 6-3.6A65 65 0 0 1 197 15.8c4-3 8.6-5.3 13.3-6a21 21 0 0 1 7.2.2q3.6.7 7.1 2.5 7 3.8 13.4 10c.6 0-1.9-3.3 2.2-.2q3.8 5.2 7.5 10.7c3.5 3.4 4.8 1.6 9.8 9-.6-1.1-1.5-2.8.8-.6 31.7 36.4 69 70.4 99.8 108.5-4-5.4-.9-2.2 2.7 1.4-2.2-2.5.7-.6.7-1.5l13 16c3.6 1.6 15.1 15.8 17.7 16.4l-4.7-4.6c7.2 5.1-5.5-11.4-3-12-8-5.6-15.4-20.5-28.3-30-2-2.9 2.6 1.6 1.7 0-3.5-2.4-7-5.7-12.9-12.6l1 .6C328.2 105.4 321.4 97 302.4 76l.6 2.3c-4-4.5-4.7-5.7-6.5-8-6-3.9 11.7 12.5 6 9.2-4-7.4-29.5-31.3-31.4-37-6.5-6.8 1 2.9-5.5-4l-1.2-2.2-2.3-1.1c-4.1-4.6-5.6-7.4-5.3-8l4.1 4.1c-2.4-3.2-6.3-7.2-9.9-10.7-3.5-3.6-7-6.6-8-7.7q3.4 3.4 6.4 6.9a99 99 0 0 0-16.3-13.6q-5-3.1-10.9-5-6.1-1.6-12.5-.8-6.2 1-11.5 3.8a51 51 0 0 0-9.3 6.5c-5.4 4.7-9.8 10-13.7 14.6l1.7-1c-12 14.4-10.6 10.6-24.3 26l.4-.6c-2.4 3.3-6 7.5-9.8 11.6 3-4.2-7.6 6.4-3.4 1-13 15.5-6.3 7.8-14 19l-2.7 1.7c-2.5 3.9-2.5 4.4-9.3 12.1 5.2-6.7-5.5 4 .2-3.7-16 14.5-20.3 24.8-29.1 30.2-5 8.9 13.7-12.8 10.3-8.4 3.7-2.8-4.3 7.2-9 12-4.8 5-10.3 6.5-22 19.3 1.2-1.3 1.1-1.5 2.3-2.8-4.9 4.4-8 10-14.2 15-2 4.3-7.1 7.6-6.6 9.8l10.5-12c-5.8 7-10 14.7-20.8 24.8.5-1 3.2-4.7 5-7-3.3 2.7-5.4 6.3-8.9 9.2-.5-2.2 12.9-14.4 18.4-22.5-3.8 3-11.4 14.3-9.6 9.4a35 35 0 0 1-7.8 10q-2.7 2.5-5.4 5.5t-5.2 6.9l-.3-1.4c-1.2 1.6-3.4 4.9-5.6 7.7l3-5.9c-2.8 4.1-6 7.7-9 11.6L7.2 207q1.3-1.6 1.3-1c.1.2 0 .8.3.9s.7-.4 2-2c-3 5.4-4.6 9.1-5.8 11.9l-1.6 3.6-1.4 3A28 28 0 0 0 .3 238l.3 2 .6 2.4.7 2.4 1 2.6q-.7-1.5-1.3-4l-.5-2.2L1 240v-1a8 8 0 0 1 0-2.6q0-.4.7 1.9l.8 4.5.6 2.3.7 2.2q1.5 4.6 2.5 7a52 52 0 0 0 4.4 6.5c.5.5.2-.1-.2-1-.9-2-2.4-5 0-1.9 1.3 3 2.8 4.8 4.6 6.5s4 3.5 6.7 6.3l-.8.7c3.3 4 5.2 6 6.5 7.2a7 7 0 0 0 2.5 1.6c1.2.4 2.1.6 7.9 7.6l-6.3-4.6L38 290l-2.2-.6c7.6 6.9 9.6 9.4 16 17-1-2.2 2.5-.4 8.5 6.2 3.6 4.9-3-1.8 5.5 7.4-2.4-1.7-5.2-3.4-8.1-8.1-.7-.2-2.4-1.6-3-1.8 3.8 5.4 10.9 12.2 14 15.6l-3.2-3.8L79 334.3c1.6 2.4-.2 1-2-.5 2.6 2.6 4.8 4.2 8.5 8.1-1.6-.4-2.1.5-7.6-5l12.5 12.2c.5 1.1 5.2 7.3 3.4 5.9 6.1 7.5 17.3 16.2 25.4 26.1q.8.5 3.5 3.2c8 9 14.3 17.6 24.9 27.2l4.2 7c7.8 8-5.8-9.4 7.2 3.9 9.2 9.3 2.2 4.5 5 8.3 5 4.2 14 11.5 21.1 21.3-3-2.8-4.8-5.3-7.5-8"/><path fill="#e4e0d8" d="m72.4 149 1.3 1.5.3-.2.1-.3zm-1.8 1.5-1.6-1.2 3 2.7zm73 180.4-1.2 1.6h.1zm.7 0 1.6-1.2-.3-.5-.6-.2zm-5.4-4 1.2-1.6-3 2.6zm-4.7-4-1 1.6 2.3-3.2zm-.3-.2-1.3 1.5.2.2.3.1zm253.2-117.3 1-1.7-2.4 3.2zm6.5 5.5 1.5 1.4 1.3-1.5-1.4-1.3zm-1.6 1.7-1.6-1.2 3 2.6zm1.3-1.7 1.6 1.2 1.1-1.5-1.5-1.2zm-122 162 1.8 1.2-3.2-2.5zm-5.7 8-2-.4-1.2 5 4.3-2.9zm-87.9 63.2 1.5-1.4-3 2.6zm5.6 7.4L182 453l2.9-2.7zm-8.8-6.2-1.6 1 .8 1.4 1.5-.6zm7.5 5.8-1.4 1.4zm2.8 2.8 1.4-1.3zm4.1 4.5-1.4 1.4zm10.3 11-1.5 1.4 1.6 1.7 1.5-1.9zm8-11-1.7-1.2zm2.2-3.7-1.8-.9zm.5-1.1 2 .5v-.2zm0-.6-1.5-1.4-1 1 .7 1.4zm4.1-4.3 1.6 1.2-3-2.6zm-2.1 3-1.6-1.3 3 2.7zm13-20-1.4-1.2zm4.2-3.5-1.7-1 3.4 2.1zm6.6-9.7-1.6-1.3-.1.2zm-.1 1-1.6-1.2 3.2 2.4zm10.7-14.3h2l.3-6.3-3.9 5zm0 .1h-2l3.8 1zm5.6-9.7-1.5-1.4-.1.1-.1.2zm-.1 1.3 1 1.7.4-.3.3-.3zm5.4-8.3-1.3-1.5-.2.2-.1.2zm-5.5 9.6L250 397l2.7 2.9zm18-21.6 1.7 1.2-3-2.5zm-5.3 7.7-1.7-1.2 2.8 2.8zm16.4-17.5 1.4 1.4-2.7-3zm-9.2 6-1.5-1.4-.1.2h-.1zm7.6-10.3 1.1-1.6-1.7-1.3-1.1 1.9zm8.4-9.6 1.7-1.1-1.6-2.3-1.7 2.2zm1 1.3-1.7 1.1 1.6 2.4 1.7-2.4zm5.5-10.3-1.5-1.2h-.1l-.1.2zm9.4-8.3.8 1.8.4-.2.3-.3zm2.4-6.6-1.5-1.3h-.1zm19.4-26.6-1.5-1.3-.1.2zm2-.3 1.4 1.4.2-.2.1-.3zm3.4-6.3-1.6-1.3-.1.2-.1.1zm1-.4-2-.1 3.6 1.2zm4.5-9 1.6 1.2.3-.4v-.6zm19.2-23.9-1.4-1.4-.2.2-.1.3zm.9 1.4.6 1.9.7-.3.4-.5zm14.3-22.6-1.5-1.4-.1.2-.2.2zm7.5-8.2 1.5 1.4-2.9-2.8zm4.2-11.1 1.7 1-3-2.5zm-5.3 4.7-1.6-1.1 3 2.6zm4.2-6 1.6 1.2zm2-3 1.7 1.2zm1-1.3 1.6 1.1zm.7-1.2-1.3-1.5-.2.2-.1.2zm.2 2-1.9-.7 3.6 1.8zm1.2-2-1.5-1.4-.2.2-.1.2zm2.7-2-1.8.8zm-1.3 3.8 1.4 1.4.3-.2.1-.3zm-1.1 1 1.4 1.5zm-1 1-1.4-1.4zm-2 1.9-1.4-1.5-.3.3-.2.4zm-1.6 6.6v2h1.2l.5-1.1zm2.6-4 1.8.7-3.5-1.9zm-.2 1.2 1 1.7h.1zm2.2-3.8-.8-1.8-.6.3-.3.5zm.9-.4.8 1.8zm.4-.2 1 1.7zm.5-.4-1-1.6zm2.3-1.5 1.1 1.7.8-.5v-1zm0-1.1-1.5-1.3-.4.5v.7zm5.6-6.7 1.5 1.3 1.3-1.5-1.5-1.3zm-7.3-6.5 1.3-1.5zm-1.9-1.7 1.3-1.5zm-.5-.4-1.3 1.5zm-.3-.3-1.3 1.5zm-.6-.6-1.3 1.5zm-2.4-2.3 1.3-1.4-.1-.1-.2-.1zm-39.6-26.6 1-1.7-2.2 3.3zm3.3-1.7 1.6-1.1-1.2-1.7-1.6 1.3zm21.9 17.8-1.3 1.5 2.6-3zm-1.7-2.9-1 1.8 2.2-3.4zm-16.4-11.7-1-1.8-2.7 1.5 2.6 1.9zm-6.4-7.2 1.4-1.4-3.3 2zm-19.3-13-2-.3-.1 1.2 1 .7zm9.7 6.2-1.3 1.5 2.8-2.8zm-20-15 1.2-1.6-2.7 2.9zm3.7 2.7-.5 2 1.6-3.7zm-12.2-10.9 1.3-1.5-.2-.1-.1-.1zm1.9 1.6-1.3 1.5 2.6-3zm-41-31.6-2-.2-.3 2.2h2.3zm4.1-.1-.6 1.9 1.5-3.7zM245 93l.2-2-1.1 3.8zm9-1.2-1.1 1.7 2.5-3.1zm-13-10.6 1.3-1.7-2.6 3zm.7 3.9-1.5 1.2.1.2.2.2zm-5.7-6.6 1.4-1.4zm-2.6-2.7-1.5 1.4zm-2-2 1.5-1.4zm-.3-.4 1.4-1.4zm-.4-.4 1.4-1.4zm-1-1 1.4-1.4zm-2.3-2.3 1.3-1.4-2.8 2.9zm.4 2.2.4-2zm-2.6-1 .9-1.7zm-3.3-2 1.2-1.5-1.5-1.1-1.2 1.4zm-1.4 1.6-1.8-1 3.2 2.4zm0-2.2-2 .2zm1.1-3.3 1.4-1.5-1.6-1.3-1.3 1.6zm-7 9.4 1.6 1.2zm-.4.6-1.6-1.2zm-.2.2-1.6-1.1zm-.1.2-1.7-1zm-.6.9-1.7-1.2zm-1 1.6 1.6 1zM210 81l-1.7-1 3.3 2.2zm-4.1 0-1.1-1.7 2 3.4zm-11.8 12.8-1.5-1.3 2.8 2.8zm5-4.3 1.3 1.4-2.7-3zM178 117l-1.8-1 3.2 2.4zm-5.2.1-1.4-1.4-.2.3-.2.3zm-17.2 29.2 1 1.7.4-.1.2-.3zm-2.5 1.6-1.1-1.7-.3.2-.2.3zm-7.4 9.1-1.8-.9 3.3 2.2zm20.9-33.7 1.6 1.1-3-2.6zM158 131l1.2 1.6h.1l.2-.2zm4.8-6.7 1.5 1.3-3-2.7zm-16 16.1-1.3-1.4-2.7 2.7 3.7.7zm-9.1 14-.4 2 1.2.2.7-1zm15.7-19 .4-2-1.2-.2-.7.9zm-17.8 24.9 1.3 1.6v-.1l.2-.1zm-.5-4.3.4-2-1.5-.2-.7 1.3zm-11 12.6-1.6-1.2 2.6 3zm4-5.5 1.7 1.2-3-2.7zm-17 18.8-1.2-1.5-.2.1zm-8.8 7.8-2 .4.6 2.7 2.4-1.4zm8.6 3.6 1.3 1.5.3-.2.2-.4zM92.7 209l1 1.7h.1zm-.6-6-1.1-1.7-1.3.9.5 1.4zm-2.6 4.4 1.3 1.5.1-.2.2-.1zm-5.6 4.2-1.5-1.4-.5.7v.9zm-1.7 3.8 1.5 1.3-2.8-2.8zm-13 13.3-1.4-1.4 2.4 3.2zm-8.8 15.1-2-.1-.3 6L62 245zm-2.4.9-1-1.7h-.2l-.2.3zm-7.3 7.5-1.5-1.4zm-6.9 6.9-1.4-1.4-1.5 1.5 1.6 1.4zm8.7 7.2-1.3 1.5zm9.2 7.5 1.6-1.2-.2-.2-.2-.2zm3.6 4.8 1-1.8-2 3.5zm7.9 5.1 1.4-1.3v-.1l-.2-.1zm-4-.8-1.6 1.3.8 1 1.3-.4zm16.5 10.8-1 1.7 4.7 3.2-1.8-5.5zm-18.3-14.2-1.6-1.2-1.3 1.7 1.7 1.2zm25.4 17.3L94 295zm6.5 4.6 1.3-1.6h-.1l-.1-.1zm33.5 22.3 1.5-1.3h-.1v-.1zm-.4 4-1.2 1.7 6.3 4.5-3.3-7zm-18.3-15.3 1.3-1.6-2.6 3zm6.7 6-1 1.7 2.4-3.2zm-11.6-8.7 1.4-1.5-2.9 2.8zm47.2 39-1.3 1.5h.1l.2.2zm6 3 1.5-1.4-.2-.1-.1-.2zm-4.9-3.7-1.5 1.3.1.2.2.1zm4 .9 1.2-1.7-2.4 3.2zm23.4 16.8 2-.6-.3-.5-.4-.4zm.8 2.5-1.9.6 3.9-.3zm-8.1-7 1-1.7-2 3.4zm17.8 14.2-.6 2 2-3.4zm-5.7-5.7 1.1-1.7-2.5 3zm9.3 5.9 1-1.7zm2.4 1.6-1 1.6v.1zm1.2.6 1-1.7zm2.2 1.4-1.2 1.6 1.7 1.2 1.1-1.6zm1.4-1.8 1.5 1.4 3.6-4-5.3.6zm-1 .3 1.4 1.4zm-.5.6-1.6 1.2 1 1.4 1.6-1zm-1-1.8 1.8-.8-3.8 1.4zm-.6.7-1 1.8zm-1.1-.8-1.2 1.6zm-3.4-2.6-1.3 1.5zm-5.8-3.3-1.6 1.3 3.2-2.5zm-16.1-15.9 1.4-1.3-3-3.3-.4 4.4zm-4.5-2.6 1.3-1.5-.3-.3-.3-.1zm-1.7-.8-1.3 1.5.2.1.2.1zm-.4-.4 1.3-1.5-2.8 2.9zm.3.3-.9 1.8 2.3-3.2zm.1.1 1.4-1.4-.1-.1-.2-.2zm3 3.3-.8 1.8 5.7 2.6-3.2-5.4zM155 341.8l-1.4 1.5h.2l.1.2zm0-1.3 1.6-1.3-.2-.2-.3-.2zm-5.8-3.6-2-.2-.1 1.3 1 .6zm.3-2.8-1.2 1.7 2.4-3.2zm-8.4-6.7-1.4 1.5.1.1zm-15.8-13L124 316h.1l.1.2zm-6.7-4.8-1 1.7 2.1-3.4zm-13.7-10-2-.2v1.1l.9.7zm0-.3 2 .3.2-1.1-.9-.7zm-41.5-33.1 1.4-1.5h-.1l-.2-.2zm-6.8-5-1.2 1.6zm-.8-.6L57 259zm-.4-.2-1.2 1.6zm-.8-.7-1.2 1.6zm-1.7-1.4-1.3-1.5-1.6 1.5 1.6 1.5zm.5-.4-.5-2-.5.2-.4.3zm1.6-.3.2 2 1-.2.5-.7zm1.2-1.3 1.3 1.5.1-.1zm5.2-5.2-1.4-1.4zm7.2-8-1-1.7-.6.3-.2.6zm33-33.5 1.4 1.4 1-1-.6-1.3zm-.5-1.2-1.5-1.4-1 1 .7 1.2zm18.4-20.6 1.5 1.3 2.3-2.6-3.4-.7zm-1.2-.2-1.6-1.3-2 2.6 3.2.6zM145 160l1.9.7-3.4-2zm-5 5.4-1.3-1.5 2.6 3zm36.2-38.3 1.3 1.5.1-.1.1-.2zm6.5-7 1.5 1.4-2.8-2.8zm-.6.8-1.6-1.2 3 2.6zm1.1-1.2-1.3-1.5v.1h-.1zm4.2-3.6 1.3 1.5-2.5-3zm-3.6 3-1.4-1.4 2.8 2.9zm8-9.1-.5-2-.6.2-.3.5zm2.2-.7.6 2 .5-.2.4-.4zm.7-.7-1.3-1.5-.2.1zm-.2-1.9-1.5-1.2 2.5 3zm3.7-4.8-.7-1.9-.6.3-.4.5zm12.4-11.3.9 1.9.6-.3.3-.7zm6-7.4 1.5 1.3zm2.2-2.6-1.6-1.3zm.7-.9 1.6 1.2zm.5-.7 1.6 1.2zm2.1-3 .8-2-1.6-.6-.9 1.5zm1.8.2 2-.3-.4-3.1-2.6 1.7zm-.6 0 1.3-1.6-2.6 3zm2 1.8-1.4 1.5zm.9.8-1.4 1.5zm.6.5-1.4 1.5zm.7.6-1.3 1.6zm5.7 4.3 2-.5-.3-.7-.6-.4zm.7 2.5-1.9.6.3.8.6.4zm9.8 5.6 1.5-1.3-.2-.2-.3-.2zm.6 3.8 1-1.8-2.1 3.4zm22.1 15.3.5 2 4.4-1.2-3.8-2.4zm-1 .3-.6-2-3.8 1 3 2.6zm12.3 9.7-1.6 1.2.1.1zm62.3 54.2-1.3 1.5 3.1-2.3zm11.5 8.4 1.8-1-.9-1.5-1.6.7zm-.2 1.8 1-1.6-2.2 3.2zm24.7 19.6 1.8-1-.3-.4-.5-.3zm-2 0-1.7 1.2.3.3.3.2zm4.7 3.8 1.7-1.2zM375 207l1.1-1.7-2.3 3.2zm4.3 3.4L378 212zm.2.1-1.2 1.6.2.2h.2zm.1 0 1-1.7h-.1zm.2.1-1 1.8zm.3.2-1 1.7.1.1zm.6.2.7-1.8zm2.7.9 1.5-1.4-.4-.4-.6-.2zm2 1.2 1.5 1.4 2.2-2.1-2.9-1.2zm-2.4 2.5-1.5-1.4zm-.5.5-1.5-1.3zm-.7.8-1.5-1.3zm-1.2 1.5-1.6-1.2zm-3.7 6.5 1.2 1.6.4-.3.2-.4zm.2-2.6 1.6 1.2-3.2-2.5zm-19 25.4 1.3 1.5 1.4-1-1-1.6zm-5.1 6.7 1.5 1.3.1-.1.1-.2zm-14.6 18.7-1.6-1.2 3 2.5zm2.1-2.3 2 .5-3.5-1.9zm-10.8 15-2-.2-.2 6.5 3.8-5.2zm0-.4h2l.2-5.6-3.7 4.3zM311 308.2l-1.5-1.3-3.6 4 5.3-.7zm1.6-.2 1.9-.4-.4-1.7-1.8.2zm-18.9 23.5-1.6-1.1 3 2.5zm3.2-3 1.7 1-3.1-2.5zm-18 17.3 1.4 1.4.1-.1zm2.2-3.7 1.7 1.1-3.2-2.4zm-7.7 13 1.1 1.6.3-.2.2-.3zm-5.1 3 1.4 1.5v-.1l.1-.1zm-21.6 29.5-1.4-1.4 2.7 3zm.9 1.7 1.6 1.2v-.1zM227 414.9l1.4 1.4.3-.3.2-.3zm-1.3 1 .7-1.9-1.5-.6-.9 1.4zm-15 22.2.8 1.9.8-.3.3-.8zm-6.7 6.4-1.5-1.2zm-2 2.7-1.6-1.2zm-.3.4-1.7-1.1zm-.3.4-1.7-1.1zm-.6.8-1.6-1.1zm-2.5 3.8L197 454l1.7 1.6 1.3-2zm-3-2.9 1.3-1.4zm-1.6-1.5-1.4 1.4zm-2-2.1-1.5 1.3zm-3.1-5.2 1.3 1.5 1.6-1.3-1.4-1.6zM174 425.2l.4-2-6.6-1.7 4.7 5zm.6.2-.5 1.9 6.3 1.6-4.3-4.9zM157.8 409l-1.6 1.2.2.2.2.2zm.2-1-.5 2 5.9 1.3-4-4.6zm-27.2-27.8-2 .3.2.7.5.5zm-.3-2 2-.4-.1-.7-.6-.5zM98 342l.5-2-7.2-1.7 5.3 5.1zm1.8 1.2-1.3 1.5 2.7-3zm-42-44.4-1.3 1.5.3.3.4.1zm-10.6-10 1.4-1.5-2.9 2.8zm1.5 5.3-1.4 1.4 3-2.6zm-5.7-8.4 1.7-1.1-.1-.1-.2-.2zm.8 1.2-1.7 1.1.5.7.7.1zM30 268.6l.8 1.8 2.6-1.1-2-2.1zm-8.8-10.4-1.6 1.2zm-6.9-11 1.8-.9zm-3.6-11.8-2 .2zm1-11.8 2 .5zM24 202.2l-1.5-1.2zm8.5-9.5-1.4-1.4zm9-9.5 1.4 1.4-2.3-3.2zm-4 1.7-1.5-1.3 2.2 3.2zm8.2-8.7-1.3-1.6v.1h-.1zm-2 4-1.5-1.4 2.6 3zm9-11.5-1.3-1.5-.8.8.3 1.1zm.6 2.4 1.5 1.4zm4.7-5.2 1.5 1.3-2.8-2.9zm-1.2 1-1.6-1.2 2.9 2.7zm10.2-13-1.4-1.5zm4.9-3.6 1.5-1.4-1.5-1.6-1.4 1.6zm2.7-2.9-1.4-1.4-.1.1zm10.4-11 1.5 1.3-2.6-3zm-5 3.5-1.7-1.2 2.8 2.9zm3.8-6.3-1.1-1.7 2.2 3.3zm44-45L129 90l.2-.1v-.2zm20-22.9 1.4 1.4-2.8-2.9zm2.4-5h2l.2-5.1-3.6 3.7zM170.6 44l1.2 1.7-2.2-3.4zm9.8-14.1-1.5-1.4 2.6 3zm6-3.6 1.3 1.5v-.1l.2-.2zm10.5-10.4 1.2 1.6zm13.3-6-.2-2zm7.2.2-.4 2zm7.1 2.5-.9 1.8zm13.4 10-1.3 1.5.6.5h.8zm2.2-.2 1.6-1.2-.1-.2-.3-.2zm7.5 10.7-1.7 1.1.1.2.2.1zm9.8 9-1.6 1.2 3.4-2.1zm.8-.6 1.6-1.3h-.1zM358 150l-1.5 1.2 3.1-2.4zm2.7 1.4-1.5 1.4 3-2.7zm.7-1.5 1.6-1.2-3.9-4.7.3 6zm13 16-1.6 1.2.3.4.4.2zm17.7 16.4-.4 2 6.7 1.4-5-4.9zm-4.7-4.6 1.2-1.6-2.6 3zm-3-12 .5 2 4.3-1.1-3.6-2.5zm-28.3-30-1.6 1.1.2.3.2.2zm1.7 0 1.7-1-.2-.5-.4-.3zM344.9 123l1.2-1.6-2.7 3zm1 .6-1.2 1.7 2.6-3zM302.4 76l1.5-1.3-3.4 1.9zm.6 2.3-1.5 1.3 3.4-1.9zm-6.5-8 1.6-1.2-.2-.3-.3-.1zm6 9.2-1.7.9.2.5.5.3zm-31.4-37 1.9-.6-.2-.4-.3-.4zm-5.5-4-1.8 1 .2.2.2.2zm-1.2-2.2 1.8-1-.3-.5-.6-.3zm-2.3-1.1-1.5 1.3.3.3.3.2zm-5.3-8 1.5-1.3-2-2.3-1.3 2.7zm4.1 4.1-1.4 1.4 3-2.6zM251 20.6l-1.4 1.4zm-8-7.7 1.4-1.4-2.9 2.8zm6.4 6.9-1.4 1.4 3-2.7zM233.2 6.1l1-1.7zm-10.9-5-.5 2zM209.8.4l.3 2zM198.4 4l-1-1.8zm-9.3 6.5L187.7 9zm-13.7 14.6-1.5-1.3 2.6 3zm1.7-1 1.5 1.3-2.5-3zm-24.3 26L151 49l3.2 2.4zm.4-.6 1.7 1-3.3-2.2zm-9.8 11.6-1.6-1.2 3 2.6zm-3.4 1 1.6 1.1-3.2-2.5zm-14 19 1 1.7.4-.2.3-.4zm-2.7 1.7-1-1.7-.4.2-.3.4zM113.9 95l-1.6-1.2 3 2.6zm.2-3.7 1.6 1.2-2.9-2.6zM85 121.5l-1-1.7-.5.2-.3.5zm10.3-8.4-1.6-1.2 2.8 2.8zm-9 12-1.5-1.4zm-22 19.3-1.5-1.4 3 2.7zm2.3-2.8L68 143l-2.8-2.9zm-14.2 15-1.3-1.5-.3.3-.2.4zm-6.6 9.8-2 .4.9 3.9 2.6-3zm10.5-12 1.5 1.3-3-2.6zm-20.8 24.8-1.8-.8 3.2 2.3zm5-7 1.6 1.2-2.9-2.8zm-8.9 9.2-2 .5.8 3.2 2.5-2.1zM50 159l1.6 1.2-2.8-2.7zm-9.6 9.4 1.9.7-3.8-1.4zm-7.8 10-1.5-1.4zm-5.4 5.5-1.5-1.3zm-5.2 6.9-2 .4 1.1 4.7 2.6-4zm-.3-1.4 1.9-.4-1-4.3-2.6 3.6zM16 197l-1.8-.9 3.4 2.1zm3-5.9 1.8 1-3.5-2zm-9 11.6-1.5-1.2zm-7.2 13-2-.5 3.9 1.3zm2.6-5.8 1.8 1zm1.8-3-1.6-1.1zm1.3-1 1.8-.8zm.3.9.6-2zm2-2 1.8.9-3.3-2.2zM5 216.7l-1.9-.8zm-1.6 3.6 1.8.8zm-1.4 3 1.9.7zm-2 7.9 2 .2zm.2 6.8-2 .2zm.3 2-2 .4v.2zm.6 2.4 2-.5zm.7 2.4 2-.7zm1 2.6-1.8.8 3.6-1.7zm-1.3-4-2 .6zm-.5-2.2-2 .3zm0-1.2-2 .2v.1zm0-1h-2v.1zm0-2.6 1.7 1zm.7 1.9 2-.2v-.2l-.1-.1zm.8 4.5-2 .4zm.6 2.3 2-.5zm.7 2.2 1.9-.6zm2.5 7-1.9.7v.2l.2.2zm3 4.7 1.6-1.2zm1.4 1.8-1.4 1.5zm-.2-1 1.8-.9zm0-1.9 2-.7-.2-.3-.1-.2zm4.6 6.5-1.4 1.5zm6.7 6.3 1.4 1.4 1.5-1.4-1.5-1.4zm-.8.7-1.4-1.4-1.3 1.3 1.2 1.4zm6.5 7.2-1.3 1.4zm2.5 1.6.7-2zm7.9 7.6-1.2 1.6 2.7-3zm-6.3-4.6 1.2-1.6-2.6 3zM38 290l-.5 1.9 7 1.8-5-5.1zm-2.2-.6.5-2-1.9 3.5zm16 17-1.4 1.3 3.3-2zm8.5 6.2 1.6-1.2v-.1h-.1zm5.5 7.4-1 1.6 2.5-3zm-8.1-8.1 1.7-1-.4-.7-.8-.2zm-3-1.8.4-1.9-5.4-1.5 3.3 4.6zm14 15.6-1.5 1.3 3-2.6zm-3.2-3.8 1.4-1.5-3 2.6zM79 334.3l1.6-1.2v-.1l-.3-.2zm-2-.5 1.3-1.6-2.7 3zm8.5 8.1-.5 2 6.7 1.7-4.8-5zm-7.6-5 1.4-1.3-2.8 2.8zm12.5 12.2 1.8-.8-.2-.3-.2-.3zm3.4 5.9 1.3-1.6-2.8 2.9zm25.4 26.1-1.5 1.3.2.2.2.2zm3.5 3.2 1.5-1.4zm24.9 27.2 1.7-1-.2-.3-.2-.2zm4.2 7-1.7 1.1.1.2.2.2zm7.2 3.9-1.5 1.4zm5 8.3-1.6 1.2.1.1.2.2zm21.1 21.3-1.4 1.4 3-2.6zM72.4 149l-1.3-1.5-1.8 1.5 1.3 1.5 1.3 1.6 1.8-1.6zm-1.8 1.5 1.5 1.3 2.2-2.5-.2.1-.6.3a2 2 0 0 1-2.3-2.6l-.5.9 1.7 1 1.7 1 .6-1 .2-.5.2-.8a2 2 0 0 0-2.5-2l-.9.5-.2.2-.6.6-1.9 2.3zm73 180.4-1.1 1.7 1.3.6h1a2 2 0 0 0 1.6-2.7l-.5-.8-1.6 1.2-1.6 1.1-.1-.2q-.2-.1 0-1a2 2 0 0 1 1.5-1.5h.8l-.3-.2zm.7 0 .7-1.9-.5-.3-1.1-.8-3.3-2.6-1.2 1.5-1.3 1.6 6 4.4zm-5.4-4-1.7 1c.7 1.2 2.1 2.5 5.2 4.6l1.1-1.6 1.2-1.7c-3-2-3.9-3-4.2-3.4zm-4.7-4 1-1.8-.5-.3-.8 1.9-.8 1.8zm-.3-.2 1.4-1.5-2.3-2-.4-.4.2.1v.2q.2.1.3.7c0 .7-.8 2-1.7 2.4l-1-.2-.4-.2q-.2 0 0 0l.9.8 2 1.7 1.3-1.5 1.3-1.5-2-1.7-1-.9v-.1h-.2l-.3-.2-1-.2c-.9.3-1.8 1.7-1.8 2.4l.3.7.1.1.1.1.1.1v.1q.3 0 .5.4l2.3 2zm253.2-117.3-1 1.7c1.6 1 3.8 3 6 5.2l1.5-1.4 1.4-1.4a44 44 0 0 0-6.9-5.8zm6.5 5.5-1.5-1.4-1.6 1.8 1.5 1.3 1.5 1.4 1.6-1.7zm-1.6 1.7 1.6 1.2 1.3-1.7-1.6-1.2-1.7-1.2-1.2 1.7zm1.3-1.7 1.2-1.5q-2.8-2.3-6-5.4l-1.4 1.4-1.4 1.5q3.3 3.2 6.3 5.6zm-122 162-1.6-1-2.8 4.4-2.4 3 1 1.7 1.2 1.6q1-.7 1.9-1.8l1.6-2.3 2.9-4.4zm-5.7 8 2 .6c.6-2.6 2-3.6 5.3-7.2l-1.5-1.3-1.5-1.4c-2.8 3-5.3 5-6.3 8.9zm-87.9 63.2-1.6 1.2 5.6 7.4 1.6-1.2 1.6-1.2-5.6-7.4zm5.6 7.4 1.3-1.6c-4.3-3.5-7.6-6.8-9.4-8.4l-1.6-1.2q-.2-.2-1-.2a2 2 0 0 0-1.9 1.4q-.2.9 0 1.2 0 .5.3.8l.4.7 1.5 2.2 1.6-1.1 1.7-1.2-1.7-2.5q0-.1 0 0 .2.2 0 1a2 2 0 0 1-1.8 1.5l-.8-.2h-.1l.7.5c1.6 1.5 5.2 5 9.5 8.6zm-8.8-6.2.7 1.8q-.5.2-.6.1h.1l1.4 1 4.5 4.3 1.4-1.4 1.4-1.4a61 61 0 0 0-6.9-6l-1-.4h-1.7zm7.5 5.8-1.4 1.4 2.7 2.8 1.5-1.4 1.4-1.3-2.8-3zm2.8 2.8-1.5 1.4 4.2 4.5 1.4-1.4 1.5-1.3-4.2-4.5zm4.1 4.5-1.4 1.4 10.2 11 1.5-1.4 1.4-1.3-10.2-11zm10.3 11 1.6 1.2q4.9-6.6 8-11.2l-1.6-1-1.7-1.2-8 11zm8-11 1.7 1 2.3-3.8-1.8-.9-1.8-.9q-.6 1.3-2 3.4zm2.2-3.7 1.8 1 .6-1.6-1.9-.5-2-.6-.3.8zm.5-1.1 2 .3q0-1-.3-1.8l-1.8 1-1.7.9-.2-.7zm0-.6 1.4 1.4 4.2-4.3-1.5-1.4-1.4-1.4-4.2 4.3zm4.1-4.3-1.5-1.3q-.9 1-1.2 1.7l-1 1.3 1.6 1.3 1.5 1.2 1.2-1.6 1-1.4zm-2.1 3 1.4 1.4q3-3.1 4.5-5.3 1.4-2.2 2-4c1-2.4 2-5.1 6.7-10.8l-1.5-1.2-1.6-1.3c-5 6-6.2 9-7.3 11.7a19 19 0 0 1-5.6 8zm13-20 1.6 1.4 3.9-4.3.2-.2-.2.1-.5.2a2 2 0 0 1-2-2.4q0-.2 0 0l-.5.7 1.7 1 1.7 1 .8-1.6q.2-.2 0-1.2a2 2 0 0 0-2.2-1.5q-.7.1-1 .3l-.7.7q-1.6 1.4-4.2 4.6zm4.2-3.5 1.7 1.1 6.5-9.7-1.6-1.1-1.7-1.1-6.6 9.7zm6.6-9.7 1.5 1.2 1-1h-.3c-.1.1-1 .5-1.8-.1a2 2 0 0 1-.9-1.8l.1-.4-.2.3-1 1.5 1.5 1.3 1.6 1.2 1.7-2.5.3-1a2 2 0 0 0-.9-2c-.9-.5-1.8-.2-1.9-.1q-.7.2-.9.6l-1.4 1.5zm-.1 1 1.6 1.2 10.7-14.3-1.6-1.2-1.6-1.2-10.7 14.3zm10.7-14.3h-2zl2 .1v-.1zm0 .1 1.8 1c1.1-2.3 4-7.3 5.5-9.7l-1.7-1-1.7-1-5.7 9.8zm5.6-9.7 1.4 1.3.8-.7q0-.2 0 0h-.2a2 2 0 0 1-2.7-2.4l-.2.3-1 1.4-.2.6-.2.9a2 2 0 0 0 1 1.6 2 2 0 0 0 2 .2l.3-.2-1.1-1.7-1.1-1.7h.2l.8-.2a2 2 0 0 1 1.8 2.5v.1l.4-.6.2-.3.9-1.7a2 2 0 0 0-.5-2 2 2 0 0 0-2.3-.3l-.4.2-.4.3-1 1zm-.1 1.3 1.7 1 5.4-8.2-1.7-1-1.6-1.2-5.5 8.3zm5.4-8.3 1.3 1.5.4-.2h-.2s-1 .4-1.8-.4c-.7-.7-.6-1.5-.6-1.5l-.1.2-.7 1.2c-1.2 2-3.3 5-5.4 7.6l1.6 1.2 1.6 1.3a80 80 0 0 0 6.5-9.6l.5-1.5c0-.1.1-1-.7-1.8s-1.9-.6-2.1-.5q-.6.2-.9.5l-.7.5zm-5.5 9.6 1 1.7q3.2-2 4.8-4 1.7-1.8 2.9-4c1.7-2.8 4.1-6.7 10.8-13.9l-1.4-1.4-1.5-1.3c-7 7.4-9.5 11.6-11.3 14.6l-2.4 3.4c-1 1-2 2-4 3.2zm18-21.6-1.6-1.1-5.4 7.6 1.7 1.2 1.6 1.1 5.4-7.6zm-5.3 7.7 1.1 1.6q4-3 7.8-7.6 3.6-4.5 9-10.1l-1.5-1.4-1.4-1.4q-5.6 5.9-9.2 10.3t-7 7zm16.4-17.5-1.3-1.6-3.2 3-6.6 5.7h.4q.5-.1 1.3.4.7.7.6 1.2v.4l1.2-2-1.6-1.1-1.7-1.1-1.6 2.7q-.2.4-.3 1.5 0 .7.8 1.4t1.5.6l1.3-.4.9-.6 2-1.6 4.5-4.2 3-2.7zm-9.2 6 1.4 1.3a67 67 0 0 0 7.9-10.6l-1.7-1-1.7-1a63 63 0 0 1-7.4 10zm7.6-10.3-1.2 1.6c1 .7 1.9.5 2.4.3q.8-.4 1.2-.8l2-2.3q2.4-2.8 5.6-7.2l-1.6-1.2-1.6-1.2-5.4 7q-1.1 1.4-1.6 1.8l-.1.2s.7-.3 1.4.2zm8.4-9.6L286 354l.9 1.3 1.6-1.1 1.7-1.1-1-1.3zm1 1.3 1.6 1.1c2.2-3.2 3.1-4.9 3.7-6.3l2-4.1-1.8-1-1.7-1c-1.2 2.1-1.6 3.3-2.1 4.5-.5 1-1.3 2.6-3.4 5.7zm5.5-10.3 1.6 1.3c2.6-3.3 4.3-5 5.6-6s2-1.3 3-1.8l-.8-1.8-1-1.8q-1.2.6-3.7 2.3a42 42 0 0 0-6.2 6.6zm9.4-8.3 1.5 1.3 3-4.5c0-.1.3-1.2-.6-2a2 2 0 0 0-2-.4l-.5.2-.6.4-1.3 1-.9.6h.5q.5-.2 1.4.4.8 1 .6 1.4v.4l.4-.8 2.5-3.4-1.6-1.2-1.6-1.2-3.3 4.8-.4 1.3q-.2.6.7 1.6 1 .8 1.6.6.9-.1 1.2-.4l1.4-1 1.1-.8.2-.2-.3.1h-.5a2 2 0 0 1-1.2-.4c-1-.8-.7-1.8-.7-1.8l.1-.3-.2.3-2 2.8zm2.4-6.6 1.5 1.3c7.5-8.8 12-15.5 19.6-26.8l-1.7-1.1-1.6-1.1c-7.7 11.3-12 17.8-19.3 26.4zm19.4-26.6 1.5 1.3 1.8-1.9-.5.2a2 2 0 0 1-2.4-2.2v-.1.2l-.4.7-.3.8-.2.7.1 1a2 2 0 0 0 2.8 1q.3 0 .4-.2.3 0 .6-.4l-1.4-1.4-1.4-1.5q-.2.1 0 .1l.1-.1 1-.2a2 2 0 0 1 1.6 1.2q.3.6.2 1v.2l.1-.4.4-.8.4-1v-.7a2 2 0 0 0-3.1-1.5l-.6.4-.6.5-1.6 1.8zm2-.3 1.7.9 3.4-6.3-1.7-1-1.8-.9-3.4 6.3zm3.4-6.3 1.5 1.2.3-.4-.3.2c-.2 0-.7.3-1.3 0q-1-.4-1-1l-.2-.5 2 .1 2 .2v-.6l-.2-.8a2 2 0 0 0-2.8-1q-.5 0-.7.3l-1 1zm1-.4 1.6 1.1q1.3-1.8 1.6-2.9l.2-1.5s0-.6 2.7-4.5l-1.6-1.1-1.7-1.2c-2.6 3.7-3.3 5.2-3.4 6.5v.6l-1.1 2zm4.5-9 2 .2q0 .4.3-.5l1.5-1.9 5.2-5.6c4.1-4.3 9-9.7 12-15.1l-1.8-1-1.7-1c-2.7 5-7.3 10-11.4 14.4q-3.2 3.2-5.3 5.7-1.1 1.2-1.8 2.3-.8 1-1 2.4zm19.2-23.9 1.4 1.5.3-.3-.4.2q-.3.2-1.4-.2-.9-.7-1-1.2v-.5.3l-.1.3-.2.7v.5q0 .5.3 1a2 2 0 0 0 2.6 1l-.6-2-.6-1.8q.1-.1.8 0a2 2 0 0 1 1.5 1.6v.2-.2l.1-.2v-.3l.2-.7v-.8a2 2 0 0 0-2.7-1.6l-.7.4-.9.7zm.9 1.4 1.7 1c8.7-13.2 7.6-11.2 14.3-22.6l-1.7-1-1.8-1c-6.6 11.2-5.4 9.2-14.2 22.5zm14.3-22.6 1.4 1.3 7.6-8.1-1.5-1.4-1.4-1.3-7.6 8.1zm7.5-8.2-1.4-1.4-1.4 1.3q-.3 0 0 0s.7-.2 1.4.2c.8.5.8 1.4.8 1.4v.1l.6-1.2c1-2.4 3.5-6.5 6-10.5l-1.8-1-1.7-1a153 153 0 0 0-6.9 12.7l-.2 1c0 .3.1 1.3 1 1.9s1.8.3 2.1.2l1-.5 2-1.7zm4.2-11.1-1.3-1.5-5.4 4.8 1.4 1.4 1.4 1.5 5.2-4.7zm-5.3 4.7 1.7 1.2 4.1-6-1.6-1.2-1.7-1-4.1 5.9zm4.2-6 1.6 1.2 2-3-1.6-1.2-1.6-1-2 3zm2-3 1.7 1.2.9-1.4-1.7-1.1-1.6-1.1-1 1.3zm1-1.3 1.6 1.1.8-1.2-1.7-1.1-1.6-1.1-.8 1.2zm.7-1.2 1.4 1.5.1-.1h-.1l-.5.2-.8-.1q-.6-.2-.9-.6-.4-.9-.3-1l-.1.2-.5 1.2 1.9.8 1.8.7.6-1.5.3-1.5q.1-.4-.5-1.4-1-1-2-.8l-1.1.4-.6.5zm.2 2 1.7 1 1.3-2.1-1.8-1-1.8-.9-1.1 2zm1.2-2 1.4 1.4q1.3-1.4 1.7-1.6l-.3.1-1.1-.2q-.6-.2-.8-1l1.8-.6 2-.7a2 2 0 0 0-2.5-1.4q-.9.1-1.4.5l-2.3 2zm2.7-2-1.8.8-.1-.5v-.1l-.2.5-1 2.2 1.8.9 1.8.9 1.5-3.8q.2-.4-.1-1.6zm-1.3 3.8-1.4-1.4-1.1 1 1.4 1.5 1.4 1.4 1.1-1zm-1.1 1-1.4-1.4-1 1 1.3 1.5 1.3 1.5 1.2-1zm-1 1-1.4-1.4-2 1.8 1.4 1.5 1.3 1.4 2-1.7zm-2 1.9-1.9-.8-1.8 4.8q-.4 1-.4 2.2 0 .6.6 1.5.8 1 2 .9l-.1-2-.1-2q.7 0 1.3.6l.3.7.2-.8 1.7-4.3zm-1.6 6.6 1.7.9 2.5-3.8-1.6-1.1-1.7-1.2-2.7 4.3zm2.6-4-1.9-.8-.5 1.4v.6q-.1.4.5 1.3a2 2 0 0 0 2 .7q.5 0 .8-.3l-1.1-1.7-1.1-1.7.6-.2a2 2 0 0 1 2.3 1.8v.3-.1l.2-.6zm-.2 1.2 1.1 1.7.9-1 .6-1 1.4-2.5-1.8-1-1.7-1-1.4 2.6-.4.7.1-.1zm2.2-3.8.9 1.8.8-.4-.8-1.8-.9-1.8-.8.4zm.9-.4.9 1.8h.1l.4-.3-1-1.7-1-1.7h-.2l-.1.1zm.4-.2 1 1.7.6-.4-1-1.7-1.2-1.6-.5.3zm.5-.4 1.1 1.7 2.3-1.5-1.1-1.7-1.2-1.6-2.2 1.5zm2.3-1.5 2 .2v-1.2l-2-.1-2-.1v1zm0-1.1 1.6 1.2 5.5-6.6-1.5-1.3-1.6-1.3-5.5 6.7zm5.6-6.7 1.3-1.5-7.3-6.5-1.3 1.5-1.3 1.5 7.2 6.5zm-7.3-6.5 1.3-1.5-1.9-1.7-1.3 1.5-1.3 1.5 1.9 1.7zm-1.9-1.7 1.3-1.5-.4-.4-1.4 1.5-1.3 1.5.5.4zm-.5-.4 1.4-1.5-.3-.3-1.4 1.5-1.3 1.5.3.3zm-.3-.3 1.4-1.5-.6-.5-1.4 1.4-1.3 1.5.6.6zm-.6-.6 1.4-1.4-2.5-2.3-1.3 1.4-1.4 1.5 2.5 2.3zm-2.4-2.3 1-1.6c-11.7-7.6-22.3-13.2-39.4-26.5l-1.2 1.5-1.2 1.6c17.3 13.5 28.2 19.3 39.7 26.7zm-39.6-26.6-.9 1.8a9 9 0 0 0 3.2 1.2q.9.1 2-.6.8-1 .8-1.7v-1.5c-.1-.3 0 .3-.5.7l-1.3-1.6-1.2-1.5q-.9.7-1 1.5v2q-.1-.3.5-1 .9-.4 1-.3l-.4-.1-1.3-.6zm3.3-1.7-1.6 1.2c2 2.8 5.7 5.6 9.5 8.4q6.2 4.3 12.7 9.7l1.3-1.5 1.3-1.5c-4.3-3.8-9-7.1-12.9-10q-6-4.3-8.7-7.4zm21.9 17.8 1.3-1.5-2.5-2.5.2.6a2 2 0 0 1-2 2h-.2.2l.3.3 1-1.8 1-1.7q-.6-.4-1.3-.6-.3-.2-1.3 0-.6 0-1.3.7-.5.8-.4 1.5.2 1 .5 1.3l.7.8 2.5 2.4zm-1.7-2.9 1.2-1.6L352 172l-1.2 1.7-1.1 1.6L366 187zm-16.4-11.7 1 1.7 1-.9q.3-.6.2-1.3-.1-1-.5-1.5l-1.7-1.9-5-4.7-1.4 1.4-1.4 1.4c1.8 1.8 4 3.7 5 4.8q1 .9 1.1 1.2v-.5a2 2 0 0 1 .8-1.5zm-6.4-7.2-1.9.7v-.3q0-.4.4-1l1-.5h.5l-.5-.2-4.8-3.4c-4-3.2-9.4-7.6-12.9-10l-1 1.6-1.2 1.7c3.3 2.3 8.4 6.5 12.6 9.8a48 48 0 0 0 6.5 4.3q.6.3 1.6.1a2 2 0 0 0 1.8-2l-.2-1.5zm-19.3-13 2 .2a1.6 1.6 0 0 1-1.7 1.4l.7.4q1.8.9 7.4 5.7l1.3-1.5 1.3-1.5a62 62 0 0 0-8-6.2q-1-.7-2.3-.9-.7-.1-1.7.4-1 .8-1 1.7zm9.7 6.2 1.5-1.3c-4-4.5-7.3-6.4-10.6-8.1-3.1-1.7-6-3.3-9.5-7l-1.5 1.3-1.4 1.4c3.9 4.3 7.3 6 10.5 7.8 3.1 1.6 6 3.3 9.5 7.2zm-20-15-1.3 1.5 2.2 1.8a7 7 0 0 0 2.3 1.3l.5-1.9.6-2-.9-.5-2.2-1.8zm3.7 2.7 1.1-1.7a87 87 0 0 1-12-10.2v.1l.2.6a2 2 0 0 1-1 2q-1.1.3-1.3.1h-.1l1-1.8.9-1.7-1-.4q-.2-.2-1.4.2a2 2 0 0 0-1 2l.2.9.2.4.5.6q1.2 1.3 3.4 3.2a90 90 0 0 0 9.3 7.4zm-12.2-10.9-1.3 1.6 2 1.5 1.2-1.5 1.3-1.6-2-1.5zm1.9 1.6 1.3-1.5a785 785 0 0 0-35.2-28.3l-5.5-3.4q-.6-.3-1.6-.4v4q-.5 0 0 .1l1.1.6q1.5.8 3.7 2.4 4.7 3.2 11 8.3c8.3 6.6 17.8 14.4 23.9 19.7zm-41-31.6 2 .3a2 2 0 0 1-.8 1.3l-.4.2h2.7l.6-2 .6-1.8-1.5-.3a16 16 0 0 0-3.8.3l-.5.3a2 2 0 0 0-1 1.5zm4.1-.1 1-1.8-26.5-13.4-1 1.8-.8 1.8 26.4 13.4zM245 93l-.2 2q1.4.2 2.5-1 .7-1 .8-1.7l.2-1.3v-.7l-.2.3q-.5 0 0 .1.8 0 4.8 2.8l1.1-1.7 1.2-1.6q-4.1-2.9-6.4-3.4-1.2-.4-2.6.3-1.3.8-1.5 1.8-.4.8-.4 1.6l-.1 1q-.2.4 0 0 .7-.6 1-.5zm9-1.2 1.4-1.4c-2.8-2.7-6.4-6-13.1-10.9l-1.2 1.7-1.2 1.6c6.6 4.7 10 7.9 12.8 10.5zm-13-10.6-1.3 1.4a7 7 0 0 1 1.5 2.6q0 .1 0 0c0-.2.2-1 1-1.3l.8-.2h.3l-.4-.2-1.2 1.6-1.2 1.6 1.3.8c.4.1 1.3.4 2.2 0 1-.6 1.2-1.6 1.3-2L245 84a11 11 0 0 0-2.6-4.3zm.7 3.9 1.5-1.3c-3.2-3.9-4.4-5.2-5.8-6.7l-1.4 1.4-1.5 1.3c1.4 1.4 2.5 2.7 5.7 6.5zm-5.7-6.6 1.4-1.4-2.6-2.7-1.4 1.4-1.4 1.4 2.5 2.7zm-2.6-2.7 1.4-1.3-2-2-1.4 1.3-1.4 1.4 2 2zm-2-2 1.4-1.5-.3-.3-1.4 1.4-1.4 1.5.1.1.2.2zm-.3-.4 1.4-1.4-.4-.4-1.4 1.4-1.5 1.4.5.5zm-.4-.4 1.4-1.4-1-1-1.4 1.4-1.5 1.4 1 1zm-1-1 1.4-1.4-2.3-2.3-1.4 1.4-1.5 1.5 2.4 2.2zm-2.3-2.3-1.4 1.5q.7.6.9 1v-.5A2 2 0 0 1 228 70q.4 0 0 0l-.3 2-.5 1.9h1.7q.6 0 1.2-.7.7-.8.6-1.6c0-.8-.5-1.5-.7-1.9l-1.4-1.4zm.4 2.2.4-2q-.7 0-2.1-.7l-1 1.8-.8 1.8q1.7.8 3 1.1zm-2.6-1 .9-1.7q-1.5-.6-3-1.8l-1.2 1.6-1.2 1.6q2 1.4 3.6 2.2zm-3.3-2-1.5-1.2L219 69l1.4 1.4 1.4 1.4 1.5-1.6zm-1.4 1.6 1.8 1q.5-1.2.4-2.2l-.1-.7v-.5l-2 .2-2 .2v1.1q0 .2.1 0zm0-2.2 2-.2v-.7l.7-1.1-1.6-1.3-1.5-1.2q-1 1.3-1.4 2.6l-.2 2.1zm1.1-3.3-1.3 1.5zl1.3-1.5zm0 0 1.4-1.5zl-1.3 1.5zm0 0-1.5-1.2q-4 5.1-7.1 9.5l1.6 1.1 1.6 1.2 7-9.3zm-7 9.4-1.6-1.1-.4.5L214 75l1.6 1.2.4-.6zm-.4.6-1.6-1.2-.2.3 1.6 1.1 1.6 1.2.2-.3zm-.2.2-1.7-1-.1.1 1.7 1.1 1.6 1.2.1-.2zm-.1.2-1.7-1-.6.7 1.7 1.2 1.7 1 .5-.7zm-.6.9-1.7-1.1-1 1.6 1.6 1 1.7 1.2 1-1.6zm-1 1.6-1.7-1.1-2.2 3.2 1.7 1.1 1.6 1.1 2.2-3.2zM210 81l1.6 1.2.8-1.3q.4-.6.3-1.8-.4-1.4-1.5-1.8-1-.3-1.6-.2-1.2.2-2.4.8l-2.4 1.4 1.1 1.7 1.1 1.6a15 15 0 0 1 3.2-1.5l-.5-.1q-.2 0-.6-.5l-.4-.8v-.5l-.3.6zm-4.1 0 1 1.7-.2.1-.4.1-1.2-.2a2 2 0 0 1-.8-2.6V80l-.7.9-3.5 3.6c-2.8 2.9-6.2 6.4-7.5 8L194 94l1.5 1.3c1.3-1.5 4.5-4.9 7.4-7.8l5-5.6V81a2 2 0 0 0-2.3-1.8l-.8.2zm-11.8 12.8 1.3 1.5 5-4.3-1.4-1.5-1.3-1.5-5 4.3zm5-4.3-1.5-1.4a63 63 0 0 0-11 14 57 57 0 0 1-10 13.5l1.4 1.3 1.4 1.4c6.2-6.4 8.4-10.3 10.7-14.1s4.4-7.3 10.3-13.3zM178 117l1.7 1q.6-1.1.8-2.4c0-.7 0-2.2-1.1-3-1.3-1.1-3-.6-3.9-.1q-1.7.9-4 3.2l1.3 1.4 1.4 1.5q2.2-2.2 3.1-2.6c.8-.3.3.2-.4-.4l-.4-.5v.1l-.3.9zm-5.2.1-1.8-.8c-1.8 3.9-7.4 17.2-17 28.8l1.6 1.2 1.6 1.3c9.9-12 15.7-25.8 17.4-29.6zm-17.2 29.2-1-1.7-2.6 1.6 1 1.7 1.1 1.7 2.6-1.6zm-2.5 1.6-1.6-1.2-7.4 9 1.6 1.3 1.5 1.3 7.4-9.1zm-7.4 9.1 1.7 1c3.5-6.6 14.4-24.4 20.8-33.6l-1.6-1.1-1.7-1.2a458 458 0 0 0-21 34zm20.9-33.7-1.4-1.5c-2.3 2-2.6 2.1-3.5 2.7s-1.9 1.7-5.1 5.2l1.4 1.4 1.5 1.4c3.3-3.7 4.1-4.4 4.6-4.8s1.3-.7 3.8-3zM158 131l-1.1-1.6-.3.1.6-.1 1.2.3a2 2 0 0 1 .8 2v.2l.2-.4.8-1 4-4.9-1.4-1.3-1.5-1.4a104 104 0 0 0-5.9 7.4l-.2 1.2a2 2 0 0 0 2.2 1.9q1-.1 1.1-.4l.7-.4zm4.8-6.7-1.4-1.4-16 16.1 1.5 1.4 1.4 1.4 16-16.1zm-16 16.1-.3 2a2 2 0 0 1-1.4-1.6v-.4l-.7 1.2-3.6 4.6-3.7 4.8q-.8 1-1.2 1.9l-.3 1.2q0 .5.3 1.3.7.9 1.4 1l.4-2 .3-2a2 2 0 0 1 1.5 2v.2l.8-1.3 3.7-4.6 4.8-6.8.3-1.4q0-.6-.6-1.3-.5-.6-1.2-.7zm-9.1 14 1.5 1.3 15.7-19-1.5-1.3-1.5-1.3-15.8 19zm15.7-19-.4 2a2 2 0 0 1-1.3-1.2v-.5l-.5 1.2q-1 2.1-3.4 5.6c-3.2 4.7-8 10.7-13.6 16.4l1.4 1.4 1.5 1.4c5.7-5.8 10.6-12 14-17a50 50 0 0 0 4.5-8.3V135a2 2 0 0 0-1.8-1.6zm-17.8 24.9-1.2-1.6-.2.2h.8q.7.3 1 .8l.2.6.1-.7.6-2 .2-1v-.9a2 2 0 0 0-1.6-1.6l-.4 2-.4 1.9a2 2 0 0 1-1.5-1.8v-.1.1l-.1.3-.7 2.2-.2 1.2.3 1.8q.4.8 1.3 1 .8.3 1.4 0 1-.2 1.7-.8zm-.5-4.3-1.8-1q-.2.5-1.7 2.4a149 149 0 0 1-8.1 9.1l-.5.4 1 1.7 1.1 1.7q.6-.3 1.2-1a47 47 0 0 0 4.9-5.3l5.6-7zm-11 12.6 1.6 1.2 4-5.5-1.6-1.2-1.6-1.2-4 5.5zm4-5.5-1.3-1.5c-3.5 3.2-5.7 6.4-8 9.4s-4.8 6.1-8.9 9.4l1.3 1.5 1.2 1.6a53 53 0 0 0 9.6-10c2.4-3.2 4.4-6 7.5-9zm-17 18.8-1.4-1.4c-1.1 1.2-3.2 2.7-5.2 4.3l-3.6 3.2-.4.7q-.3.5-.1 1.4l2-.4 1.9-.4v.9l-.2.1.5-.5 2.3-1.8c1.8-1.4 4.3-3.2 5.7-4.7zm-8.8 7.8 1 1.7c2.3-1.3 4.2-1.2 5.1-.7q.7.3.8.7t-.2 1.1l1.9.8 1.8.9q1-2.2.2-4.2a5 5 0 0 0-2.7-3c-2.4-1.1-5.7-.9-8.9 1zm8.6 3.6-1.4-1.5-8 7.2c-4 3.4-8.3 7-10 8.2l1.2 1.6 1.1 1.6c2-1.3 6.3-5 10.2-8.4l8.2-7.2zM92.7 209l-1.1-1.7-.6.3h.4A2 2 0 0 1 93 209v.3l.2-.7.7-1.6.8-1.7.6-1.7v-1.3q-.1-1-1.6-1.7-1.2-.2-1.7.1l-1 .6 1 1.7 1.2 1.6.3-.2h-.9c-.8-.2-1.1-.9-1.2-1.3v-.3l-.4 1-.7 1.5-.8 1.8-.5 1.9.3 1.5q.8 1.2 2 1.1.8 0 1.4-.3l1-.6zm-.6-6-2 .6v-1 .2l-.7 1-1.5 2.4 1.6 1.2 1.6 1.2 2.8-4.8.2-.5-.1-1zm-2.6 4.4-1.4-1.5-.6.5.4-.1q.8-.1 1 .2c.3 0-.3-.3-.8-.4q-1.1 0-1.6.3l-1 .7-3 3.1 1.4 1.4 1.5 1.3 2.7-2.8.2-.2q0 .2-1 .2l-.4-.2q.4.4 1.5.3.8-.1 1.3-.5l1-.8zm-5.6 4.2-2 .2v-.5l-.1.3-1 1.4-3 3.1-1 1-.4.6v.2q-.2 0-.3.7a2 2 0 0 0 1.2 2q1.2.3 1.3.1l.6-.2.1-.1 4.2-3.5-1.3-1.5-1.3-1.5L77 217h.1l.5-.2q.1-.2 1.3 0a2 2 0 0 1 1.2 2l-.2.8-.1.2q-.2.2 0 0l1-1 4.4-5.1.5-1q.3-.5.2-1.4zm-1.7 3.8-1.6-1.3a68 68 0 0 1-5.8 6.2c-1.7 1.7-3.7 3.4-7 7l1.4 1.4 1.5 1.4c3.3-3.5 5.1-5.2 6.9-6.9a72 72 0 0 0 6-6.5zm-13 13.3 1 1.8h-.4A2 2 0 0 1 68 229v-.3.1l-1.8 3.4c-1.8 3-4.7 7.1-7.3 10.2l1.5 1.3L62 245a103 103 0 0 0 7.7-10.8q1.5-2.4 2-4.2l.3-1q.1-.5-.4-1.5-1-1.2-2-1-.9 0-1.3.3zm-8.8 15.1 2 .1a2.2 2.2 0 0 0-2.3-2.3l-1.4.4-1.7 1 1 1.7 1 1.7 1.4-.8q.3 0 0 0-.4.1-1.2-.4-1-.9-.8-1.5zm-2.4.9-1.4-1.4-7.4 7.5 1.5 1.4 1.4 1.4 7.4-7.6zm-7.3 7.5-1.5-1.4-6.8 6.9 1.4 1.4 1.4 1.4 6.9-6.9zm-6.9 6.9-1.3 1.5 8.7 7.2 1.3-1.5 1.3-1.5-8.7-7.3zm8.7 7.2-1.3 1.5 9.2 7.5 1.3-1.5 1.2-1.6-9.1-7.4zm9.2 7.5-1.6 1.2 1.5 1.7 2 1.9.6.7.1.2v-1.3a2 2 0 0 1 1.8-1.3h.4-.3l-.9 1.7-.8 1.8.6.3 1 .2 1-.3a2 2 0 0 0 1-2.2l-.1-.6-.7-1-.9-1-2-2-1.1-1.2zm3.6 4.8-1 1.7c2.1 1.3 3.9 2 7.7 5l1.2-1.6 1.2-1.5c-4-3.2-6.2-4.2-8-5.3zm7.9 5.1-1.5 1.4 1.4 1.5-.2-.3v-1a2 2 0 0 1 2.1-1.5l.5.1h-.2l-.6-.5-1.6-1.2-4-2.6-.7-.2a2 2 0 0 0-2.1 2.6q.2.9.5 1.1l.8 1 1.5-1.2 1.6-1.2-.6-.8v.3q.3.3-.3 1.5c-.6.7-1.4.7-1.6.7h-.4q.8.4 2.9 2l1.7 1.2 1.4 1 .8.2 1-.2a2 2 0 0 0 1.2-2.4l-.2-.4q0-.3-.3-.5l-1.7-2zm-4-.8.5 2H69h.2l1.2.7q1.7 1 4.2 2.8l10.1 7 1.1-1.7 1.1-1.7-10-7-6.9-4h-1.4zm16.5 10.8 2-.6q-.5-1.2-1.3-1.9l-1.7-1.7-5-4-11.2-7.6-1.1 1.6-1.2 1.7c3 2 7.3 4.9 11 7.6a73 73 0 0 1 6.3 5l.3.5zm-18.3-14.2 1.5 1.2q-.5.7-1 .6h-.2l1.2.6 5.3 3.7c4.5 3.2 10.7 8 17.5 12.8l1.1-1.6L94 295c-6.8-4.8-12.8-9.4-17.4-12.8a68 68 0 0 0-7.8-4.8q-.6-.2-1.3-.1-1 0-1.7 1zm25.4 17.3-1.2 1.6 6.6 4.8.3.2c.2 0 1.9-.1 2.8-1.4 0-.8-.4-1.7-.5-1.8l-.1-.1h-.1v-.1l-.1-.1h-.1v-.1l.1.2.2.4c0 .1.4.7 0 1.5a2 2 0 0 1-2.3 1.2l-.3-.1.2.1 1-1.7 1-1.7-.3-.2-.6-.3h-.7a2 2 0 0 0-1.7 1.2c-.3.8 0 1.5 0 1.6l.3.4.3.3.4.3v.1l-.1-.2c-.1 0-.5-1-.5-1.8 1-1.2 2.6-1.4 2.8-1.3h.2v.1l-1.1-.9-5.3-4zm6.5 4.6-1.2 1.6c9.8 8 14.4 10.1 18.6 12 3.9 1.9 7.3 3.4 14.7 10.2l1.4-1.5 1.3-1.4a53 53 0 0 0-15.7-10.9 69 69 0 0 1-17.8-11.6zm33.5 22.3-1.5 1.4 1.5 1.7.3.5c0-.1-.2-1 .5-1.6l.8-.4h-2.1q-.5 0-1.2.5-.8.6-.8 1.6 0 .8.3 1.2l1.8-.8 1.8-.9.1.6q0 .8-.6 1.3t-.7.4h-.2.6l1 .1q.6.2 1.9-.6c1-.9.8-2 .6-2.6l-1-1.7-1.6-2zm-.4 4 1.2-1.6q-6.2-4.5-10.1-8.2t-8.1-7.1l-1.3 1.6-1.2 1.5c2.8 2.2 5.1 4.4 8 7q3.9 3.7 10.3 8.5zm-18.3-15.3-1.3 1.4 6.7 6.1 1.3-1.5 1.4-1.5-6.7-6zm6.7 6 1-1.7a88 88 0 0 1-11.2-8.5l-1.4 1.5-1.4 1.4c3 2.9 9 7.2 12 9zm-11.6-8.7-1.5 1.3a89 89 0 0 0 7.5 6.7l12.7 10.2c9.5 7.5 20 16 27.2 22.3l1.3-1.5 1.3-1.5c-7.2-6.4-17.9-15-27.3-22.4l-12.6-10.2q-5.4-4.5-7.1-6.3zm47.2 39-1 1.7 4.8 3 1 .5 1.1.4h.7l1.1-.5c1-1 .6-2.1.6-2.3l-.4-.7-.4-.5-1.5 1.3-1.5 1.4.1.1-.1-.2s-.4-1.2.5-2a2 2 0 0 1 1.6-.6q.3 0 0 0l-.8-.4-4.7-3zm6 3 1.2-1.7-5-3.6-1.1 1.6-1.2 1.6 4.9 3.6zm-4.9-3.7 1.5-1.3-.4-.5v.1q.2 0 .2.7a2 2 0 0 1-2 2q-.5-.1-.2-.1.8.3 2.6 1.6l1.6 1 1.3.6.5.2h.8a2 2 0 0 0 1.3-3q0-.3-.3-.5l-1.5-1.4-1.3 1.5-1.3 1.5 1 1v-.2l-.2-.4a2 2 0 0 1 2.5-2.3l-.2-.2-.5-.3-1.5-1-3.2-1.8-1-.2q-.4-.1-1.3.2a2 2 0 0 0-1 1.8q0 .7.2 1l.2.5.7.8zm4 .9-1 1.6c6.9 4.6 14.6 9.3 23 16.7l1.4-1.5 1.3-1.5c-8.7-7.7-16.7-12.5-23.5-17zm23.4 16.8-1.9.6.8 2.5 2-.6 1.8-.6-.8-2.5zm.8 2.5 2 .3a2 2 0 0 0-.3-1.5l-.3-.4-.8-.9a44 44 0 0 0-7.7-6.2l-1 1.7-1 1.7a40 40 0 0 1 7.3 6.2v-.3l-.2-.9zm-8.1-7-1 1.7q1.3.8 3.4 2.8l4.7 4.3 5 4.4q2.7 2 5 3l.7-2 .7-1.9q-1.5-.5-3.9-2.3l-4.8-4.1-4.7-4.4a29 29 0 0 0-4.1-3.2zm17.8 14.2 1.5-1.4-5.7-5.8-1.5 1.5-1.4 1.4 5.7 5.7zm-5.7-5.7-1 1.6 9.2 6 1-1.7 1.2-1.7-9.3-6zm9.3 5.9-1.1 1.7 2.4 1.5 1.1-1.6 1.1-1.7-2.4-1.6zm2.4 1.6-1 1.7 1.3.7 1-1.8.9-1.7-1.2-.7zm1.2.6-1 1.8 2 1.2 1.2-1.6 1.2-1.6-2.4-1.5zm2.2 1.4 1.6 1.2 1.3-1.6-1.5-1.4-1.5-1.3-1.6 2zm1.4-1.8-.2-2-1 .2q-.7.1-1.3.7l1.5 1.4 1.5 1.4-.4.2-.3.2h.4zm-1 .3-1.5-1.4-.1.2-.1.2h-.1l.2-.1 1 1.7 1 1.7 1-1h.1zm-.5.6 1.5-1.2-.7-1.4-1.9.8-1.8.8q.7 1.5 1.3 2.2zm-1-1.8-2 .6v.1-.3l.4-.8c.6-.8 1.5-.8 1.7-.7h.3l-1 1.8-1 1.8 1 .3c.5.1 1.5.1 2.2-.8q.6-1.2.5-1.7l-.2-1zm-.6.7 1-1.8q-.3 0-1-.6l-1.1 1.6-1.2 1.7 1.4.9zm-1.1-.8 1.2-1.5-3.4-2.7-1.2 1.6-1.2 1.5 3.4 2.7zm-3.4-2.6 1.2-1.6-7-5.2-1.1-.2q-.5-.1-1.3.4a2 2 0 0 0-.7 1.4q0 1 .2 1.3l.3.6 1 1.3 1.6-1.3 1.5-1.2-.7-1v-.1.9a2 2 0 0 1-1.8 1.7l-.6-.1.4.2 5.7 4.4zm-5.8-3.3 1.6-1.2c-2.5-3.2-5-5.5-7.6-7.8a89 89 0 0 1-8.7-8.2l-1.4 1.3-1.5 1.4q5 5.4 9 8.5a53 53 0 0 1 7 7.2zm-16.1-15.9-2-.2q0 1 .2 1.2l.1.5v-.3s-.2-.8.4-1.5a2 2 0 0 1 2.1-.6h.1l-.7-.5-3.4-2.7-1.3 1.5-1.2 1.5 4.8 3.8.8.3a2 2 0 0 0 2-.8q.6-1.2.3-1.6l-.2-.8v-.2h-.1v.6zm-4.5-2.6.7-1.9h-.2l-1.2-.7-1 1.8-1 1.7 2 1zm-1.7-.8 1.3-1.5-.2-.2-.2-.2-1.3 1.5-1.3 1.5.1.1.3.3zm-.4-.4-1.5 1.4.4.4 1.4-1.5 1.4-1.4-.3-.3zm.3.3 1-1.8h-.3l-.2-.2h-.2l-.5-.1a2 2 0 0 0-2 1.5 2 2 0 0 0 .4 1.7l.2.3h.1l.1.1.2.1.3.2 1-1.7 1.1-1.7.4.7a2 2 0 0 1-1.9 2.8h-.5l-.1-.1h-.1.1zm.1.1-1.4 1.5 2.7 2.8 1.7-1 1.7-1-1.3-1.7-2-2zm3 3.3.8-1.8-3.7-2.3-5.2-3.6c-3.6-2.6-7.3-5.4-9.4-6.7l-1 1.8-1 1.7c1.8 1.1 5.3 3.7 9 6.4l9.7 6.3zM155 341.8l1.3-1.6-1-.8a2 2 0 0 1-.4 2.6 2 2 0 0 1-1.4.4h-.4.3l.6.4 1 .3h.4a2 2 0 0 0 1.6-.7 2 2 0 0 0 .4-1.9l-.4-.8-.4-.5-1.5 1.3-1.5 1.4v-.3a2 2 0 0 1 .3-1.7 2 2 0 0 1 1.8-.7h.1-.1l-.5-.3-.7-.3h-.2l-1-.1a2 2 0 0 0-1.3 3l.2.4.3.4q.5.3 1.1 1zm0-1.3 1.1-1.7-5.9-3.6-1 1.7-1 1.7 5.8 3.6zm-5.8-3.6 2 .2q0-1-.3-1.3l-.4-.8-2.2-2.6-1-1.2-.3-.4q-.1 0 0 0v.5a2 2 0 0 1-2 2.2l-.3-.1.9.5 2.7 1.9 1.2-1.7 1.1-1.6-4.6-3h-.7q-.6-.1-1.6.6a2 2 0 0 0-.6 1.7l.2.7q.4.8.9 1.3l1 1.2 1.2 1.3.8 1 .1.2v-.8zm.3-2.8 1.2-1.5-8.4-6.7-1.2 1.5-1.3 1.6 8.4 6.7zm-8.4-6.7 1.4-1.4a139 139 0 0 0-16-13.2l-1.2 1.7-1 1.7a135 135 0 0 1 15.4 12.7zm-15.8-13 1.3-1.4c-2-1.8-4.8-3.6-6.5-4.7l-1.1-.7-.3-.2h-.2.1l.3.3a2 2 0 0 1-.4 2.9l-1 .3h-.8q-.2-.2 0 0l1 .4.9-1.7.9-1.8-1-.6-.4-.1h-.2q0-.2-.7-.2a2 2 0 0 0-1.4 3.3l.3.3.2.1 1.6 1c1.8 1.2 4.3 2.9 6.1 4.4zm-6.7-4.8 1.1-1.7-13.6-9.9-1.2 1.6-1.1 1.6 13.6 10zm-13.7-10 2 .3v-.3l-2-.3-1.9-.2v.3zm0-.3 1.3-1.5q-9.9-7.8-20.5-15.6-10.7-7.9-21-17.5l-1.3 1.5-1.4 1.4q10.6 10 21.3 17.8t20.4 15.5zm-41.5-33.1 1.1-1.7q-3.1-2.1-6.7-4.9l-1.2 1.6-1.2 1.6 6.8 5zm-6.8-5 1.2-1.6-.8-.6-1.2 1.6-1.2 1.6.8.6zm-.8-.6 1.1-1.6-.3-.3-1.2 1.7-1.2 1.6q.3 0 .4.3zm-.4-.2 1.2-1.6-.8-.6-1.2 1.5-1.2 1.6.8.7zm-.8-.7 1.2-1.5-1.5-1.3-1.4 1.4-1.3 1.5 1.8 1.5zm-1.7-1.4 1.4 1.5.5-.4-1.4-1.5-1.4-1.5-.4.4zm.5-.4.5 2 1.3-.3-.2-2-.3-2q-.9 0-1.8.4zm1.6-.3 1.7 1 .8-.8-1.3-1.5-1.3-1.5q-1 .6-1.6 1.7zm1.2-1.3 1.4 1.4 5.2-5.2-1.4-1.4-1.4-1.4-5.2 5.2zm5.2-5.2 1.4 1.4q2.6-2.5 4.7-4.8 2-2 2.8-3.7l-1.7-.8-1.8-1q-.3.7-2.3 2.8t-4.5 4.7zm7.2-8 1 1.8q3-1.8 7.2-6t9-9.4c6.4-6.8 12.8-14.2 17.2-18.5l-1.4-1.4-1.4-1.5c-4.5 4.5-11 12-17.3 18.7l-8.8 9.3a37 37 0 0 1-6.5 5.3zm33-33.5 1.8-.9-.5-1.2-1.8.9-1.8.8.5 1.2zm-.5-1.2 1.4 1.4c6-6.3 11.5-12.6 18.5-20.7l-1.5-1.3-1.5-1.3c-7 8.1-12.4 14.3-18.4 20.5zm18.4-20.6.4-2-1.2-.2-.4 2-.4 2 1.2.2zm-1.2-.2 1.6 1.2q4.2-5.2 11.6-12.3c4.7-4.5 10-9.6 15-15l-1.4-1.4-1.5-1.3q-7.6 8-14.9 14.9a139 139 0 0 0-12 12.6zM145 160l-1.9-.7-.3.5-1.2 1.2-3 2.9 1.4 1.5 1.3 1.5 4.6-4.6 1-1.6zm-5 5.4 1.3 1.5a144 144 0 0 0 19-19.6c5.8-7 11.2-13.6 17.2-18.7l-1.3-1.5-1.3-1.5c-6.3 5.3-12 12.2-17.8 19-5.8 7-11.7 13.8-18.4 19.2zm36.2-38.3 1.5 1.2c2.4-3 4.3-4.9 6.4-6.6l-1.4-1.5-1.3-1.5q-3.1 2.5-6.8 7.2zm6.5-7-1.4-1.3-.8 1 1.6 1.1 1.6 1.2.5-.6zm-.6.8 1.4 1.4 1.2-1.2-1.5-1.4-1.4-1.3-1 1zm1.1-1.2 1.3 1.6 4.2-3.7-1.3-1.5-1.3-1.4-4.2 3.5zm4.2-3.6-1.2-1.5q-2.2 1.5-3.7 3l1.3 1.5 1.4 1.5 3.4-2.9zm-3.6 3 1.5 1.4c2-2.3 5.2-5.7 8.1-9.2L192 110l-1.5-1.3-8 9zm8-9.1.6 1.9 2.2-.6-.6-2-.5-1.9-2.2.7zm2.2-.7 1.5 1.4.7-.8-1.5-1.3-1.5-1.4-.6.8zm.7-.7 1.3 1.5 2-2 .6-1c.1-.3.4-1.3-.3-2.2-.7-.8-1.6-.9-1.9-.9l-1 .2-1.8.8 1 1.7.9 1.8 1-.4q.2 0 0 0l-.5-.1q-.3 0-.8-.6c-.7-.8-.4-1.7-.3-1.7q0-.3 0 0l-1.5 1.4zm-.2-1.9 1.6 1.3 3.7-5-1.6-1-1.7-1.2-3.5 4.7zm3.7-4.8.6 2q2.1-1 3.6-2.6l3.1-3.4c2.2-2.4 4-4.5 6-5.4l-.9-1.9-.8-1.8c-2.9 1.4-5.3 4.2-7.3 6.5l-2.9 3.2q-1.4 1.4-2.1 1.5zm12.4-11.3 1.8 1 2-2.6 3.7-4.5-1.5-1.3-1.5-1.3-3.9 4.6q-1.7 1.9-2.4 3.3zm6-7.4 1.5 1.3 2.2-2.6-1.5-1.3-1.6-1.2-2.1 2.5zm2.2-2.6 1.5 1.4.8-1-1.6-1.3-1.6-1.2-.3.4-.4.4zm.7-.9 1.6 1.2.5-.7L220 79l-1.6-1.2-.5.7zm.5-.7 1.6 1.2q1.3-1.5 2.2-3.3l-1.7-1-1.7-1-2 3zm2.1-3-.8 1.7 1.6.5a3 3 0 0 0 2-.3l-1-1.7-1-1.7.5-.2h.1-.2l-.4-.2zm1.8.2-2 .2.3 1V77s-.2-.8.4-1.4a2 2 0 0 1 1.8-.7l.5.1h.1l-.4-.3-1.3 1.6-1.2 1.5 1 .8.7.2a2 2 0 0 0 2.1-3v.2zm-.6 0-1.3 1.4 1.9 1.9 1.3-1.5 1.4-1.5-1.9-1.8zm2 1.8-1.4 1.5 1 .8 1.3-1.5 1.3-1.5-1-.8zm.9.8-1.4 1.5.6.5 1.4-1.5 1.3-1.5-.6-.5zm.6.5-1.3 1.6.7.6 1.3-1.6 1.3-1.5-.8-.6zm.7.6-1.3 1.6q3 2.4 6 4.4l1-1.7 1-1.6a55 55 0 0 1-5.5-4.2zm5.7 4.3-2 .6.8 2.5 2-.6 1.9-.6-.8-2.4zm.7 2.5-1 1.8 9.8 5.6 1-1.8 1-1.7-9.8-5.6zm9.8 5.6-1.5 1.4 3.6 4.1.3.3-.1-.7a2 2 0 0 1 1-1.5l1-.2q-.5 0-2.7-1.4l-1 1.8-1 1.7a22 22 0 0 0 4.1 1.9l1.4-.2q1-.7 1.2-1.8l-.2-1.1-.7-1.2-1-1.2-3-3.2zm.6 3.8-1.1 1.6c6.7 4.5 9.3 6.5 11.7 8.2 2.4 1.8 4.6 3.4 10.4 7.2l1.1-1.7 1.1-1.6c-5.8-3.8-7.9-5.3-10.2-7-2.5-1.9-5.1-3.9-11.9-8.4zm22.1 15.3-.5-1.9-1 .3.4 2 .5 1.9 1.1-.3zm-1 .3-1.4 1.6c2 1.6 4.8 3.5 7.1 5.1l5 4.2 1.6-1.2 1.6-1.2q-1-1.2-2.5-2.5l-3.4-2.5c-2.4-1.8-5-3.5-6.8-5zm12.3 9.7-1.5 1.3q3.2 3.4 10.1 9.5 7.1 6.1 16.3 13.7c12 10.1 25.8 21.6 36 31.2l1.4-1.5 1.4-1.5a931 931 0 0 0-36.2-31.2L289 129.3q-7-6.1-9.8-9.1zm62.3 54.2 1.8-.8-.1-.4v-.1.2l-.3 1q-.7.8-1.5.8h-.7q-.2-.2 0 0 1.1.8 3.4 3.2l4.5 4.3 2.2 1.6 1.2.5q.6.3 1.8 0l-.8-1.9-.7-1.8.5-.2h.2-.2l-1.5-1.2-4.4-4.2q-2.2-2.3-3.7-3.5l-1-.6-1-.2q-.9 0-1.6 1-.5.8-.4 1.2v.8l.5 1.1zm11.5 8.4-1.7 1 1 1.5.6 1v-.2q-.2-.1 0-.8a2 2 0 0 1 1.2-1.6h1l-.2-.1-1-.6-1.1 1.6-1 1.7 2.3 1.3h1.2a2 2 0 0 0 1.5-1.7l-.1-1.1-.3-.5-.9-1.4-.7-1zm-.2 1.8-1.2 1.6c5.7 4.3 9.6 8 13.3 11.2s7 6 11.7 8.6l1-1.8 1-1.7c-4.3-2.4-7.5-5-11.1-8.2s-7.7-6.8-13.5-11.2zm24.7 19.6-1.7 1v-1.1a2 2 0 0 1 1-1.3h.9q.2 0 0 0l-.4-.3-.5-.2-.7-.3h-.8l-.8.1a2 2 0 0 0-1.2 2.2l.2.5.3.6 1.7-1.2 1.6-1.1v.1l.2.5a2 2 0 0 1-1 2 2 2 0 0 1-1.3.2h.1q.3 0 .5.3l.7.3 1 .2 1-.1a2 2 0 0 0 1.3-1.4v-1.3l-.3-.6zm-2 0-1.1 1.7 2.3 1.6 2 1.6 1.5-1.1 1.7-1.2c-.7-1-2-1.9-2.8-2.5l-2.6-1.8zm4.7 3.8-1.6 1.1-.2-.7a2 2 0 0 1 1.4-2q1-.2 1 0 .3 0 0 0l-.4-.3-1.4-1-1.6-1-1 1.7-1.1 1.7 1.5 1 1.5 1 1.4.8h1.3a2 2 0 0 0 1.4-2.1q0-.8-.3-1l-.2-.4zM375 207l-1.2 1.5 4.3 3.5 1.2-1.6 1.2-1.6-4.2-3.3zm4.3 3.4L378 212l.2.1zl1.2-1.6-.2-.1zm.2.1-.8 1.9h.1l.8-1.8.8-1.9zm.1 0-1 1.8.2.1 1-1.8.9-1.7-.2-.1zm.2.1-1 1.8.3.1 1-1.7 1-1.8-.4-.2zm.3.2-.9 1.8.8.3.7-1.9.7-1.8-.5-.2zm.6.2-.8 2 3 .8.5-2 .5-1.9-2.5-.7zm2.7.9-1.5 1.3q1.6 1.4 2.8 1.7l.8-1.8.7-1.9q-1.2-.4-1.3-.7zm2 1.2-1.3-1.5-2.6 2.6 1.5 1.4 1.4 1.3 2.5-2.4zm-2.4 2.5-1.5-1.4-.5.6 1.5 1.3 1.5 1.3.4-.5zm-.5.5-1.6-1.3-.6.8 1.5 1.3 1.6 1.3.6-.8zm-.7.8-1.5-1.3-1.3 1.6 1.6 1.2 1.6 1.2 1.2-1.5zm-1.2 1.5-1.6-1.2a39 39 0 0 0-4 6.9l1.9.8 1.8.9q1.6-3.5 3.5-6.2zm-3.7 6.5-1.3-1.5-.8.7-1.3 1 .4-.1 1 .1a2 2 0 0 1 1.2 1.9v.3-.3l2.6-3.5-1.6-1.2-1.6-1.2-3.3 5.1c0 .1-.3.8 0 1.6a2 2 0 0 0 2.2 1.2l.9-.3.4-.3.8-.6.9-.7.7-.6zm.2-2.6-1.6-1.3c-1.6 2-6.6 8-11 13.7a192 192 0 0 0-7.7 10.7l-.5 1.2-.2.8.3 1.4 1.7-1.1 1.7-1.1q.4.9.3 1v.3l.2-.6 1.6-2.4q2.3-3.3 5.7-7.7l11-13.7zm-19 25.4-1.2-1.6-1.6 1.6a47 47 0 0 0-4 5.7l1.7 1 1.7 1a50 50 0 0 1 4.7-6.2zm-5.1 6.7-1.6-1.2c-7 9-7.8 9.7-14.6 18.7l1.6 1.2 1.6 1.2c6.7-9 7.4-9.6 14.5-18.6zm-14.6 18.7 1.5 1.3 2-2.3-1.4-1.3-1.5-1.4-2 2.3zm2.1-2.3-2-.6c-.5 2-1.6 3.6-3.4 5.8q-2.8 3-7 8.5l1.6 1.2 1.6 1.2c2.7-3.6 5-6 6.9-8.4 1.9-2.3 3.5-4.4 4.2-7.2zm-10.8 15h2v-.3l-2-.1h-2v.2zm0-.4-1.5-1.3a92 92 0 0 0-9.5 11.7 96 96 0 0 1-9.2 11l1.5 1.3 1.5 1.4c6.9-7.7 8.2-9.6 9.5-11.5 1.2-1.7 2.4-3.5 9.2-11.3zM311 308.2l.2 2 1.6-.2-.2-2-.3-2-1.6.3zm1.6-.2-2 .5q.1-.5-.2.1-.2.6-1.1 1.7l-4.9 5.5c-4 4.2-9 9.4-12.3 14.6l1.6 1 1.7 1.2c3.2-4.8 8-9.8 12-14a93 93 0 0 0 6.6-8.2q.8-1.1.5-2.8zm-18.9 23.5 1.4 1.4 3.2-3-1.4-1.4-1.4-1.5-3.1 3zm3.2-3-1.7-1a40 40 0 0 1-8.3 8.4c-3.4 2.9-7.3 6-9.5 8.6l1.5 1.3 1.5 1.3c2-2.3 5.5-5 9.1-8.2 3.5-3 7.2-6.2 9.1-9.4zm-18 17.3-1.4-1.5h.1l.5-.2a2 2 0 0 1 2.5 2v.4l-.1.2.4-.6 1-1.4.9-1.5-1.7-1-1.7-1.2-2.6 4-.2 1a2 2 0 0 0 2.6 2l.8-.5.3-.3zm2.2-3.7-1.5-1.3q-4.1 4.6-5.2 6.1-.6.8-.8 1.9a2 2 0 0 0 1 2.4h.1l-.3-.3q-.3-.8-.2-.9l-.5 1-2 2.9 1.7 1.2 1.6 1.1q1.5-2 2.1-3.1t1-2.1q.4-1.1-.4-2.4l-.7-.7.4.6q.3.5.1.9t.2-.2c.6-.9 2-2.5 4.9-5.7zm-7.7 13-1.1-1.7h.4q.9 0 1.3.4.1.4 0 .1 0-.2-.8-1-1.1-.5-2.2-.2l-1.3.8q-1 .9-3 3.4l1.6 1.2 1.5 1.3q2-2.4 2.6-2.9.3-.2 0 0-.6.2-1.5-.3l-.4-.4.2.3.3.4q.6.8 1.9.8 1 0 1.6-.6zm-5.1 3-1.4-1.4q-1.5 1.5-3.8 5l-5.3 8c-4 6-8.5 12.5-12.5 16.5l1.4 1.4 1.4 1.4c4.4-4.3 9.1-11 13-17l5.3-8q2.4-3.6 3.3-4.4zm-21.6 29.5 1.3 1.6 1.7-1.3h-.6a2 2 0 0 1-1.8-2v-.1l-1.4 2.4 1.7 1 1.6 1.2q1.3-1.9 1.7-2.9.4-.5.4-1.3.1-.6-.5-1.5-.8-.8-1.7-.7l-.8.1-.5.3-.8.5-1.5 1.2zm.9 1.7-1.6-1.2c-2.7 3.5-6.7 7.9-10.8 12.5a63 63 0 0 0-9.8 13.4l1.8.9 1.9.8a60 60 0 0 1 9.1-12.4c3.9-4.5 8.2-9.1 11-12.8zM227 414.9l-1.3-1.5-.7.7.1-.1.4-.1.9.1-.7 1.9-.8 1.8q1.3.3 1.6 0 .5-.1.7-.4l1.2-1zm-1.3 1-1.7-1.1-8.2 11.7-6.8 10.8 1.8.8 1.8.8 2.4-4 4-6c3-4.4 6.4-9 8.3-12zm-15 22.2-.6-1.9q-2 .8-3.7 2.7l-4 4.4 1.6 1.2 1.6 1.3q2-2.5 3.6-4 1.5-1.7 2.3-1.8zm-6.7 6.4-1.5-1.2-2.1 2.7 1.6 1.2 1.6 1.2 2-2.6zm-2 2.7-1.6-1.2-.4.5 1.7 1.1 1.6 1.2q0-.2.3-.5zm-.3.4-1.7-1.1-.3.4 1.7 1.1 1.6 1.2.3-.4zm-.3.4-1.7-1.1-.3.4-.2.4 1.6 1.1 1.6 1.2.3-.4.3-.4zm-.6.8-1.6-1-2.5 3.7 1.6 1 1.7 1.2 2.5-3.7zm-2.5 3.8 1.4-1.5-3.1-2.8-1.4 1.4-1.4 1.4 3.2 3zm-3-2.9 1.3-1.5-1.5-1.4-1.4 1.4-1.4 1.4 1.5 1.6zm-1.6-1.5 1.4-1.4-2-2-1.4 1.3-1.5 1.3 2 2.2zm-2-2.1 1.5-1.3-2.5-3.2-.3-.5s.1.8-.5 1.3l-1.3-1.5-1.3-1.5c-1 .8-1 2-.8 2.6q.3 1 .8 1.8 1 1.6 3 3.6zm-3.1-5.2 1.5-1.4-14.7-15.7-1.4 1.4-1.5 1.3 14.6 15.8zM174 425.2l-.5 2h.6l.5-1.8.5-2-.7-.2zm.6.2 1.5-1.4a105 105 0 0 0-17.2-16.5l-1.2 1.6-1.2 1.6a99 99 0 0 1 16.6 16zM157.8 409l1.6-1.2-.6-.9v.3q.2.2 0 1.2a2 2 0 0 1-2.3 1h-.2l.5.3.2.1.5.2.5-2 .4-2 .4.2-.6-.3-.6-.3h-1a2 2 0 0 0-1.6 2.5l.2.5 1 1.6zm.2-1 1.5-1.3a195 195 0 0 0-27.3-28l-1.4 1.5-1.3 1.5c12.6 11.1 14 12.4 27 27.6zm-27.2-27.8 2-.3-.3-2-2 .2-2 .4.4 2zm-.3-2 1.3-1.6q-1.1-1-4.3-4.7l-7.7-9.1c-6-7-13.2-15.4-20.4-22.3L98 342l-1.4 1.4c7 6.7 14.2 15 20.1 22l7.7 9q3.1 3.8 4.9 5.3zM98 342l-.5 1.9 1 .8 1.3-1.5 1.4-1.5q-1.8-1.5-2.7-1.7zm1.8 1.2 1.4-1.4c-7.8-7.6-16.1-17.8-23.6-26.7q-5.6-6.7-10.4-11.6c-3-3-6-5.6-8.7-6.5l-.6 1.8-.7 2q2.4.8 7.2 5.6 4.5 4.7 10.2 11.3c7.3 8.7 15.8 19.2 23.9 27zm-42-44.4 1.4-1.4-10.6-10-1.4 1.4-1.3 1.4 10.6 10.1zm-10.6-10-1.5 1.3 4.6 5.5v-1.4a2 2 0 0 1 1.7-1.1h.6q0 .2 0 0l-.6-.3-1.4-1-2-1.1-.8-.1a2 2 0 0 0-2 2.5q.2.8.6 1.2l.7 1 1.6-1.2 1.6-1.2-.6-.7q0-.4 0 0 .2.4-.2 1.4a2 2 0 0 1-1.6 1l-.5-.1 1 .6 1.4 1 1.5.9h.9a2 2 0 0 0 1.9-2.6l-.3-.6q-.4-.9-1.6-2.2-1.1-1.5-3.5-4.1zm1.5 5.3 1.4-1.4a76 76 0 0 1-7.7-9.6v.7a2 2 0 0 1-1.2 1.6h-1.3l-.2-.1.2.2 1.7 1.6 1.4-1.4 1.4-1.4-2.6-2.4-.6-.3h-1.4a2 2 0 0 0-1.3 1.8v.8l.4.8 1 1.6c1.6 2.4 4.7 6.2 7.4 9zm-5.7-8.4-1.7 1.1.8 1.2 1.7-1.1 1.7-1.1-.8-1.2zm.8 1.2-.5 2h1q.7 0 1.5-.7.6-.9.5-1.5l-.1-1-1.5-2.4-5.4-6.3-5.7-6.5-1.6-2.1-.2-.3v.7q0 1-1 1.5l-.8-1.8-.8-1.9q-1.2.6-1.3 1.7 0 .9.2 1.1l.5 1.2 2 2.4c1.5 1.9 3.7 4.3 5.7 6.6l5.9 7 .2.5v-.4q-.1-.4.4-1.2a2 2 0 0 1 1.4-.5h.1zM30 268.6l1.5-1.4q-4.6-5-8.7-10.2l-1.6 1.2-1.6 1.2q4.2 5.3 9 10.5zm-8.8-10.4 1.6-1.2q-4-5.2-6.7-10.7l-1.8.9-1.8.8q3 6 7.1 11.4zm-6.9-11 1.8-.9q-2.7-5.5-3.4-11.1l-2 .2-2 .3q1 6.4 3.8 12.3zm-3.6-11.8 2-.2q-.6-5.7 1-11l-2-.6-2-.6a34 34 0 0 0-1 12.6zm1-11.8 2 .5c2-7.3 6.5-14.2 11.7-20.6l-1.5-1.3-1.5-1.2a62 62 0 0 0-12.6 22zM24 202.2l1.5 1.3q4-4.7 8.5-9.5l-1.5-1.3-1.4-1.4q-4.6 4.6-8.6 9.7zm8.5-9.5L34 194l8.9-9.4-1.5-1.4-1.4-1.4-9 9.5zm9-9.5-.9-1.8-4 1.7.8 1.8.8 1.9 4-1.8zm-4 1.7 1.4 1.4 8.3-8.8-1.5-1.3-1.4-1.4-8.3 8.8zm8.2-8.7 1.3 1.5 1.2-.9-.5.1a2 2 0 0 1-1.8-2.1v-.2l-.6.8-3 3.4 1.4 1.4 1.4 1.4 4.2-4.9.5-1.3q.2-.6-.4-1.6-1-1-1.7-.9t-.9.2l-.5.2-1.9 1.3zm-2 4 1.1 1.7a33 33 0 0 0 6.5-7.1l3.4-5.6v-1l-2 .5-1.8.4q-.2-.8 0-.9v-.1.1l-.7 1a53 53 0 0 1-7.7 9.4zm9-11.5 1.5 1.4 4-3.7H58l-.4.1-1-.1a2 2 0 0 1-1-1.8v-.3q0-.4 0 0l-1 1.4-2.8 3.7-.6 1-.3.4-.1 1a2 2 0 0 0 3.2 1.4l.2-.2.6-.5-1.5-1.4-1.4-1.4-.3.3.2-.1.5-.2a2 2 0 0 1 2.3 2.7v.1-.1l.4-.6 2.9-3.8 1.1-1.8.5-1v-.5l-.2-1a2 2 0 0 0-2-1.1q-.7 0-1 .3-.2 0-.5.3l-1 .8-3.4 3.2zm.6 2.4 1.5 1.3 4.7-5.2-1.5-1.3-1.5-1.4-4.7 5.2zm4.7-5.2-1.3-1.6-1.2 1 1.3 1.6 1.3 1.5 1.2-1zm-1.2 1 1.6 1.2c3.5-4.8 3.1-5.5 10-12.9l-1.4-1.4-1.4-1.3c-7.2 7.6-7.2 8.7-10.4 13.2zm10.2-13 1.4 1.4q1.8-1.7 2.3-2l.3-.3q-.2 0 0 0l.7-.2q1-.4 1.6-1.1l-1.4-1.4-1.4-1.4q-.7.5-.2.2h.4-.6q-.9.2-1.8 1l-2.7 2.3zm4.9-3.6-1.5 1.3a2 2 0 0 0 2.3.5l.6-.3.7-.7 2.1-2.4-1.5-1.3-1.5-1.3-2 2.3-.3.2h.1l.3-.2.7-.1q.7 0 1.5.6zm2.7-2.9 1.5 1.4 10.4-11-1.5-1.4-1.4-1.4-10.4 11zm10.4-11-1-1.7-5.2 3.6 1.1 1.6 1.2 1.7 5-3.6zm-5 3.5 1.5 1.2c2-2.6 4.3-5 5.6-6.6l1-1.5.2-.7A2 2 0 0 0 86 130q-.8 0-1 .3l-.6.3-1.8 1.2 1.1 1.7 1.1 1.6 2-1.2h-.5a2 2 0 0 1-2-2v-.6h.1l-.4.5c-1.1 1.3-3.7 4-5.8 6.8zm3.8-6.3 1.1 1.6c2.4-1.6 6-5 10.2-9.2s9-9.3 13.6-14.3l12.9-13.9q5.7-6.2 7.5-7.8l-1.3-1.5-1.3-1.5a143 143 0 0 0-7.9 8l-12.8 14-13.5 14.2a84 84 0 0 1-9.6 8.7zm44-45 1.6 1.1c5.6-7.5 11.9-14.2 19.8-22.6l-1.4-1.4-1.5-1.3a263 263 0 0 0-20.1 23zm20-22.9-1.4-1.5q-.7.7-1 .7h.7a2 2 0 0 1 1.5 1.8q-.1.5 0 .2 0-.3.6-1l3.5-3.8-1.5-1.4-1.4-1.4A50 50 0 0 0 144 65q-.4.7-.5 1.6-.1.6.4 1.4.7.8 1.4.9a3 3 0 0 0 1.6-.3q1.2-.5 2-1.4zm2.4-5h-2q-.1.7.5 1.8.9 1.1 2.2 1 .9 0 1.5-.4l1.1-.8c1.5-1 3.5-3 5.6-5.1l6.8-6.7q3.4-3.3 5.9-4.8l-1-1.8-1.1-1.7a44 44 0 0 0-6.6 5.4l-6.8 6.7a58 58 0 0 1-5.8 5.2h.1q.7 0 1.4.7l.2.6zM170.6 44l-1.1-1.6-.3.2h.5a2 2 0 0 1 1.9 2.4q-.1.3.1-.1l.8-1 5.7-6.6a99 99 0 0 0 6-7.5q.2-.2.2-1.2a2 2 0 0 0-1.8-1.9l-1.2.2-.7.3-1.5 1 1.2 1.7 1.1 1.6 1.2-.8h.1-.7a2 2 0 0 1-1.6-2.3v-.2l-.2.5-5.1 6-5.8 6.7-1.6 2.3-.1.8a2 2 0 0 0 2.8 2l1.3-.8zm9.8-14.1 1.4 1.4q2-2 2.4-2.2c.2-.2-.2.2-.8.1-1 0-1.4-.9-1.4-.9v.1l.5.6q.3.4 1 .6h1.1q.8 0 1.5-.6l1.6-1.2-1.3-1.5-1.3-1.6-1.2 1q-.5 0 0 0h.6q.6.2.8.5l.3.4v-.2c-.2-.2-.7-1-1.9-1.2q-1.3.2-1.7.5-1 .7-3 2.8zm6-3.6 1.5 1.2a63 63 0 0 1 10.2-10l-1.2-1.6-1.2-1.6A67 67 0 0 0 184.8 25zm10.5-10.4 1.3 1.6q5.7-4.6 12.3-5.6l-.3-2-.2-2a31 31 0 0 0-14.3 6.4zm13.3-6 .3 2a19 19 0 0 1 6.5.1l.4-2 .4-2a23 23 0 0 0-7.8-.1zm7.2.2-.4 2q3.3.6 6.6 2.3l1-1.8.8-1.8q-3.7-1.9-7.6-2.7zm7.1 2.5-.9 1.8q6.6 3.6 13 9.7l1.3-1.5 1.4-1.5a65 65 0 0 0-13.9-10.3zm13.4 10 .1 2a2 2 0 0 0 2-2.3l-.2-.8V21l-.1-.1v.1l-.1.6a2 2 0 0 1-1.9 1.3h-.3l.4.1 1.1.8 1.2-1.6 1.2-1.6q-1.5-1.1-2.5-1.5l-.7-.2q-.5 0-1.3.3c-1.2.6-1.1 1.8-1.1 2l.2 1v.2l.1.2v-.2l.2-1q.7-1 1.6-1zm2.2-.2-1.6 1.2q3.7 5.1 7.4 10.6l1.7-1.1 1.6-1.1-7.5-10.8zm7.5 10.7-1.4 1.4c1.9 1.9 3.6 2.6 4.6 3.3 1.1.7 2.5 1.9 5 5.5l1.6-1.2 1.7-1.1a22 22 0 0 0-6.1-6.6c-1.7-1.1-2.5-1.2-4-2.7zm9.8 9 1.8-1-.5-1v.4l-.2.9a2 2 0 0 1-1.3 1l-1.2-.2.2.2.7.6 1.3-1.5 1.4-1.4q-.7-.9-1.5-1.3l-.5-.2q-.4-.2-1.2-.1a2 2 0 0 0-1.7 2.1l.2 1 .3.5.5 1zm.8-.6-1.5 1.4C272.7 61 290 78.6 307 96.4a878 878 0 0 1 49.5 54.7l1.5-1.2 1.6-1.3a882 882 0 0 0-49.7-55c-17.2-17.8-34.4-35.3-50.1-53.5zM358 150l1.6-1.2-1.6-2.3.1.2v.9a2 2 0 0 1-1.4 1.5h-1.1l-.3-.2 4 4 1.4-1.5 1.4-1.4-5.2-4.8h-1.2a2 2 0 0 0-1.5 2.5l.3.7 2 2.8zm2.7 1.4 1.5-1.3-.4-.5v.4q.1.3-.1 1-.5.7-1 1h-.7.3l.6.2h.5l.8-.3a2 2 0 0 0 1.2-2h-2l-2 .1.2-1a2 2 0 0 1 1.4-.8h.1-.1l-.6-.1h-.4l-.8.1a2 2 0 0 0-1.3 2.3q.1.9.5 1.3l.7 1zm.7-1.5-1.6 1.3 13 16 1.6-1.3 1.5-1.3-13-16zm13 16-.9 1.8q.4 0 1.3.9l2.1 1.9q2.5 2.3 5.3 5.4l5.2 5.3 3 2.5 1.3.5.4-2 .4-1.9q.2 0 0 0l-.5-.4-1.9-1.6-5-5.2-7.8-7.6-2.1-1.5zm17.7 16.4 1.4-1.5-4.7-4.5-1.4 1.4-1.4 1.5 4.7 4.5zm-4.7-4.6-1.1 1.7 1.3.8 1.5.5 1.1-.2q.8-.3 1.1-1 .6-1.2.3-1.7-.3-1.2-.8-2.3l-1.4-2.6-2.7-5.2q-.6-1-.6-1.5v.4q-.3.7-1.2 1l-.5-1.9-.5-2q-1.4.6-1.7 1.7-.2 1 0 1.6l.8 2.4 3 5.4 1.7 3.4.2-.6q.3-.5.8-.8h.7q.4 0 0-.1l-.8-.6zm-3-12 1.2-1.6c-3.8-2.6-7.4-7.4-12-13.2-4.4-5.6-9.6-12-16.3-16.9l-1.2 1.6-1.2 1.7a85 85 0 0 1 15.6 16c4.4 5.6 8.4 11 12.8 14zm-28.3-30 1.6-1.2-.3-.5v.2l.2.6a2 2 0 0 1-2.5 1.8h-.2l.4.2.7.5.7.4.7.3h.8a2 2 0 0 0 1.7-2l-.1-.6q0-.5-.3-.7l-1.7 1-1.8.8v-.1l-.1-.5a2 2 0 0 1 2.5-1.8l-.2-.1-.6-.4-.6-.5-.8-.3-.6-.1a2 2 0 0 0-2 2.7l.2.4.7 1zm1.7 0 1-1.8a63 63 0 0 1-12.3-12l-1.6 1.2-1.5 1.3a67 67 0 0 0 13.3 12.9zM344.9 123l-1 1.7.8.6 1.1-1.7 1.1-1.6-.8-.6zm1 .6 1.4-1.4C329.7 104.1 323 95.7 304 74.6l-1.5 1.3-1.5 1.4c19 21 25.8 29.5 43.4 47.7zM302.4 76l-2 .6.7 2.2 2-.5 1.8-.6-.6-2.2zm.6 2.3 1.5-1.4c-4-4.4-4.6-5.5-6.4-7.8l-1.6 1.2-1.5 1.3c1.7 2.2 2.4 3.4 6.5 8zm-6.5-8 1.1-1.6-1-.7-.7-.2c-.1 0-1-.2-1.7.3a2 2 0 0 0-.9 2q0 .6.3.8l.6.9c.8 1 2.3 2.7 3.8 4.2l3.8 4.5V80q-.4-.2.2-1.4a2 2 0 0 1 1.9-.8h.1l-.5-.3-1 1.8-1 1.7 1.2.6.9.1a2 2 0 0 0 2-2.6l-.3-.7-.5-1-4-4.3-3.5-4-.2-.2.1.4a2 2 0 0 1-.8 2c-.7.4-1.4.2-1.4.2h-.2l.6.3zm6 9.2 1.8-1a54 54 0 0 0-6.6-8.5l-10.2-11a383 383 0 0 1-13-14.7q-1.4-1.9-1.5-2.4l-2 .6-1.8.6a14 14 0 0 0 2 3.5l3.5 4.4q4.4 5 9.9 10.7l10.1 11q4.6 5.2 6 7.7zm-31.4-37 1.4-1.4-3.2-3-.7-.1a2 2 0 0 0-2.4 2.2l.1.6.2.6v-.9a2 2 0 0 1 2.2-1.3l.5.1-.4-.3-1.7-1.8-1.5 1.4-1.4 1.3 3.2 3 .6.2a2 2 0 0 0 2.4-1.4v-1.4l-.2-.4v-.2.9a2 2 0 0 1-2.2 1.3l-.5-.1.4.3 1.7 1.8zm-5.5-4 1.8-.9-1.2-2.2-1.8.9-1.8 1 1.2 2.2zm-1.2-2.2.9-1.8-2.3-1.1-.9 1.8-.9 1.8 2.3 1zm-2.3-1.1 1.5-1.4a41 41 0 0 1-4.8-6.5v-.1.2l-.2.7-1.8-.9-1.8-.9q-.4 1.1-.2 1.6l.3.9 1 2q1.4 2.2 4.5 5.7zm-5.3-8-1.6 1.3 2.2 2.2 2.1 2 1.4-1.4 1.4-1.4-2.1-2.1-2-1.9zm4.1 4.1 1.6-1.2c-2.5-3.3-6.5-7.4-10-11l-1.5 1.5-1.4 1.4c3.6 3.5 7.4 7.5 9.7 10.5zM251 20.6l1.5-1.4-5.1-4.9-3-2.7-1.4 1.3-1.5 1.4 3.2 3 5 4.7zm-8-7.7-1.4 1.5q3.3 3.3 6.3 6.7l1.5-1.3 1.5-1.3q-3-3.6-6.5-7zm6.4 6.9 1.4-1.4c-4.7-4.6-10-9.7-16.7-14l-1 1.8-1 1.7a97 97 0 0 1 16 13.3zM233.2 6.1l1-1.7q-5-3.3-11.4-5.2l-.5 2-.5 1.9q5.6 1.6 10.3 4.7zm-10.9-5 .6-1.9a33 33 0 0 0-13.3-.9l.3 2 .2 2q6-.9 11.7.8zM209.8.4l-.2-2q-6.8 1-12.2 4l.9 1.8 1 1.8q5-2.8 10.8-3.6zM198.4 4l-1-1.7q-5.4 3-9.6 6.7l1.3 1.5 1.3 1.5q4-3.6 9-6.2zm-9.3 6.5L187.7 9c-5.6 4.8-10 10.1-13.9 14.8l1.5 1.3 1.6 1.3A118 118 0 0 1 190.3 12zm-13.7 14.6 1 1.7 1.7-1-1-1.7-1-1.7-1.7 1zm1.7-1-1.5-1.3c-6 7.1-8.6 9.8-11.4 12.5-3 2.8-6 5.7-12.9 13.5l1.5 1.3 1.5 1.3a199 199 0 0 1 12.6-13.1c2.9-2.9 5.6-5.6 11.6-12.8zm-24.3 26 1.7 1 .4-.5-1.7-1.1-1.7-1.2-.4.7zm.4-.6-1.6-1.2a118 118 0 0 1-9.7 11.5l1.5 1.3 1.4 1.4c4-4.1 7.6-8.4 10-11.9zm-9.8 11.6 1.6 1.2.7-1.2.2-.7a2 2 0 0 0-2.5-2.2q-.7.1-.9.4l-2.5 1.9-1.2 1-.4.3.5-.2a2 2 0 0 1 2 2.3v.3l.1-.2.6-.8L140 62l-1.6-1.2q-.9 1-1.1 1.7l-.3.7q-.2.4.4 1.6a2 2 0 0 0 1.9.8l.7-.2 1.3-.8 1.3-1 2-1.7q.2 0-.3.2s-.8.2-1.5-.4a2 2 0 0 1-.8-1.7v-.5l-.2.4zm-3.4 1-1.6-1.4c-6.4 7.8-8.1 9.9-9.1 11.5s-1 2.2-4.9 7.8l1.6 1.1 1.7 1.1c3.9-5.6 4.2-6.7 5-8a133 133 0 0 1 8.8-10.9zm-14 19-1-1.7-2.7 1.7 1 1.7 1 1.7 2.8-1.7zm-2.7 1.7-1.7-1.1c-1.3 2-1.8 3-3 4.6-1 1.5-2.7 3.5-6.1 7.3l1.5 1.3 1.5 1.4c3.4-3.9 5.1-6 6.4-7.7 1.2-1.6 1.9-2.9 3-4.7zM113.9 95l1.6 1.3 1.4-2 .4-1v-1a2 2 0 0 0-2.5-1.6l-.5.2-.6.3-1 .7-.7.4h.8a2 2 0 0 1 1.6 2v.3-.2l1.3-1.9-1.6-1.2-1.6-1.2-2 3.2v.6q-.1.5.2 1.3.7.9 1.4 1h1l.8-.4 1-.6.9-.6h-.2q-.2.2-1 0a2 2 0 0 1-1.2-1.4v-.9q0-.3 0 0l-1.1 1.5zm.2-3.7-1.3-1.4a160 160 0 0 0-17.5 18.7 48 48 0 0 1-11.4 11.2l1 1.7 1.1 1.7a52 52 0 0 0 12.4-12c4.1-5.1 9.2-11.2 17-18.4zM85 121.5l-1.8-1-1 2.2v1a2.2 2.2 0 0 0 2.7 1.9l1.2-.7c1.2-.8 3.1-2.7 4.9-4.5l4.9-5.2 1-1v-.1l-.4.2q0 .2-1 .2a2 2 0 0 1-1.8-1.6v-1l.2-.3-.2.3 1.6 1.2 1.6 1.2.5-.7.2-.4v-1a2 2 0 0 0-1.8-1.7l-1 .2-.5.4-1.4 1.3-4.8 5.2c-1.8 2-3.5 3.5-4.3 4q-.3.3.1 0l1.3.3a2 2 0 0 1 1 1.7v.1-.1q0-.4.5-1.2zm10.3-8.4 1.2 1.6.3-.2-.8.1a2 2 0 0 1-1.7-2v-.4q-.2.7-2 2.8a78 78 0 0 1-7.5 8.7l1.5 1.4 1.4 1.5A107 107 0 0 0 97.9 114q.2-.3.3-1 0-.5-.3-1.4a2 2 0 0 0-1.6-1l-1 .2-.4.2-.8.5zm-9 12-1.5-1.3c-2.2 2.3-4.5 3.8-8.1 6.5-3.5 2.6-8 6.2-13.9 12.7l1.5 1.4 1.4 1.3a89 89 0 0 1 13.4-12.2c3.3-2.5 6-4.3 8.6-7zm-22 19.3 1.4 1.3q1-.9 1.3-1.5l1-1.2-1.4-1.4-1.5-1.3-1.3 1.5-1 1.2zm2.3-2.8-1.4-1.5q-3.6 3.6-6.8 7.5a59 59 0 0 1-7.3 7.5l1.3 1.6 1.3 1.5q4.7-4.1 7.8-8t6.4-7zm-14.2 15-1.8-.8q-1.4 2.7-4 5.2l-2 2.4c-.4.8-1 2-.8 3.4l2-.4 2-.5q-.2.5.2-.3l1.7-2c1.4-1.5 3.4-3.6 4.5-6zm-6.6 9.8 1.5 1.3 10.5-12-1.5-1.3-1.5-1.3-10.5 12zm10.5-12-1.5-1.2c-6 7.2-9.9 14.5-20.7 24.6l1.4 1.4 1.4 1.5c11-10.3 15.4-18.3 21-25zm-20.8 24.8 1.8.9 1.8-2.8 3-4-1.6-1.2L39 171l-5.2 7.5zm5-7-1.3-1.6q-2.7 2.4-4.6 4.8a37 37 0 0 1-4.3 4.5l1.3 1.5L33 183q2.8-2.5 4.7-5 2-2.4 4.2-4.3zm-8.9 9.2 2-.4v.5l.2-.3 1.3-1.8q1.9-2.4 5-5.7c3.8-4.3 8.7-9.5 11.5-13.6l-1.6-1.2-1.7-1c-2.6 3.8-7.2 8.7-11.2 13.1a131 131 0 0 0-6.8 8.1l-.5 1.2a3 3 0 0 0-.1 1.6zM50 159l-1.2-1.5Q47 158.7 45 161l-3.5 4.3-2.3 2.5.5-.2q.4-.1 1.3.2.9.6 1 1.1v.6l.2-.5-2-.7-1.8-.7-.3 1q-.2.4 0 1.4a2 2 0 0 0 2.6 1.5l1-.6q1.3-1 2.8-3l3.6-4.3q1.8-2.2 3-3zm-9.6 9.4-1.9-.7a33 33 0 0 1-7.4 9.3l1.5 1.4 1.4 1.4c3.3-3.4 6.6-6.8 8.2-10.6zm-7.8 10-1.5-1.4-5.4 5.6 1.5 1.3 1.5 1.4 5.3-5.5zm-5.4 5.5-1.5-1.3a52 52 0 0 0-5.4 7.1l1.7 1 1.7 1.1a48 48 0 0 1 5-6.5zm-5.2 6.9 2-.5-.4-1.3-2 .4-1.9.5.3 1.3zm-.3-1.4-1.7-1.1c-1.1 1.6-3.3 4.8-5.5 7.5l1.6 1.3 1.6 1.2c2.2-2.8 4.5-6.2 5.6-7.7zM16 197l1.8.8 3-5.8-1.8-.9-1.8-1-3 6zm3-5.9-1.7-1c-2.7 4-5.7 7.3-8.8 11.4l1.6 1.2 1.6 1.2c2.8-3.7 6.2-7.5 9-11.7zm-9 11.6-1.5-1.2c-3 3.9-6 8.3-7.6 13.7l1.9.6 2 .5c1.3-4.6 4-8.6 6.9-12.4zm-7.2 13 1.9.8q1.5-3.7 2.5-5.6l-1.8-1-1.7-1Q2.5 211.3 1 215zm2.6-5.8 1.8 1q1-2 1.7-2.8l-1.7-1.2-1.6-1.1q-.8 1-2 3.2zm1.8-3 1.7 1.2.4-.6q.1-.3 0-.1l-.3.2q-.3.2-1 0c-1 0-1.3-.9-1.4-1l1.9-.8 1.8-.7a2.2 2.2 0 0 0-3.4-.9l-1.3 1.6zm1.3-1-1.9.7v-.2.3l.2.7q.1.7 1.3 1.3l.7-2 .6-1.8a2 2 0 0 1 1.2 1.1v-.2l-.3-.7zm.3.9-.7 1.9q1.4.3 1.9-.2l.8-.7 1.6-1.8-1.6-1.3-1.5-1.2L8 205c.1 0 .7-.4 1.4-.1zm2-2-1.7-1c-3 5.5-4.7 9.3-6 12l1.9.9 1.8.8c1.2-2.8 2.8-6.4 5.8-11.8zM5 216.7l-1.9-.8-.8 1.9-.8 1.7 1.9.8 1.8.7.7-1.6.9-2zm-1.6 3.6-1.9-.8-.7 1.4-.7 1.7 2 .7 1.8.6.6-1.3.7-1.5zm-1.4 3-1.8-.8c-.9 2-1.8 4.5-2.2 8.5l2 .2 2 .1a26 26 0 0 1 2-7.3zm-2 7.9-2-.2q-.3 3 .2 7.2l2-.2 2-.3q-.5-3.8-.2-6.3zm.2 6.8-2 .3.4 2.1 2-.3 2-.3-.4-2.1zm.3 2-2 .6q.4 1 .6 2.2l2-.4 2-.5-.6-2.3zm.6 2.4-2 .4.8 2.6 2-.6 1.8-.7-.7-2.2zm.7 2.4-1.9.6 1 2.8 1.9-.8 1.8-.9-.9-2.4zm1 2.6 1.8-1q-.5-1-1.2-3.5l-2 .6-1.8.5q.6 2.4 1.4 4.2zm-1.3-4 2-.4-.5-2.2-2 .4-2 .4.6 2.4zm-.5-2.2 2-.4-.2-1-2 .3-2 .3.3 1.1zm0-1.2 2-.3v-1l-2 .2-2 .2v1.1zm0-1 2-.2-.1-1.9-.2.5-1.8-1-1.7-.9q-.4.7-.3 1v2.6zm0-2.6 1.7 1s-.3.6-1 .9a2 2 0 0 1-2-.4l-.3-.4.3 1.3 2-.5 1.9-.5-.7-2.3-.5-.6a2 2 0 0 0-3.3.7zm.7 1.9-2 .2q.2 2.4.8 4.7l2-.4 2-.4-.9-4.3zm.8 4.5-2 .4.6 2.4 2-.5 2-.5-.7-2.3zm.6 2.3-2 .5.8 2.3 1.9-.6 1.8-.6-.6-2.1zm.7 2.2-2 .6 2.6 7.1 2-.6 1.8-.7q-1.1-2.7-2.5-7zm2.5 7-1.7 1q1.8 3.4 3 4.8l1.6-1.1 1.7-1.2-2.9-4.4zm3 4.7-1.7 1.1 1.7 2.2 1.4-1.5 1.4-1.4-.4-.5-.8-1zm1.4 1.8-1.4 1.5.8.5 1 .2a2 2 0 0 0 1.9-2l-.1-.7-.6-1.4-1.8.8-1.8.9.3.6v.2-.5q0-.4.3-1a2 2 0 0 1 2.4-.7l.3.1zm-.2-1 1.8-.9-.7-1.5-.4-1v.7a2 2 0 0 1-1.8 1.4l-1.1-.3q-.1-.1 0 .1l.7.8 1.6-1.2 1.6-1.2-1.7-1.8q-.2-.2-1.3-.4a2 2 0 0 0-1.9 1.5v1.5l1.4 3zm0-1.9-1.8.7c1.3 3.4 3 5.4 5 7.3l1.4-1.5 1.4-1.4a14 14 0 0 1-4-5.8zm4.6 6.5-1.4 1.5c2 1.8 4 3.4 6.7 6.2l1.4-1.4 1.4-1.4c-2.8-2.9-5-4.7-6.8-6.3zm6.7 6.3-1.4-1.5-.8.8 1.4 1.4 1.4 1.5.8-.8zm-.8.7-1.5 1.3c3.3 4 5.3 6.1 6.7 7.3l1.3-1.4 1.4-1.5a68 68 0 0 1-6.4-7zm6.5 7.2-1.3 1.4a9 9 0 0 0 3.1 2l.7-1.8.7-2-.6-.2q-.4-.1-1.2-1zm2.5 1.6-.7 1.8.6.3 1 .7c1 .9 2.6 2.6 5.4 6l1.6-1.2 1.5-1.3a63 63 0 0 0-7.5-7.7l-1.2-.5zm7.9 7.6 1.2-1.6-6.3-4.6-1.2 1.6-1.2 1.6 6.3 4.6zm-6.3-4.6-1.4 1.4 6.6 6.7 1.4-1.4 1.5-1.4-6.7-6.7zM38 290l.5-2-2.2-.5-.5 1.9-.5 2 2.2.5zm-2.2-.6-1.4 1.5c7.5 6.8 9.4 9.2 16 16.8l1.5-1.2 1.5-1.3c-6.5-7.7-8.6-10.3-16.3-17.3zm16 17 1.9-.8v.3q.1.4-.4 1t-1 .6h-.6l.6.4q2 1.2 6.5 6l1.5-1.3 1.5-1.4a47 47 0 0 0-8.5-7.4q-.5-.3-1.7-.2a2 2 0 0 0-1.9 2q0 1 .3 1.7zm8.5 6.2-1.6 1.1.8 1.2v.2-.5a2 2 0 0 1 1.6-2s.3 0 0 0H61l-.8.4a2 2 0 0 0-.9 2.2l.4.8.7 1 4 4.3L66 320l1.5-1.4-4.3-4.7v-.1l.1.5v1a2 2 0 0 1-1.8 1.3h.3q.4 0 1.3-.6.7-1 .6-1.6t-.3-.9l-.3-.6-1-1.5zm5.5 7.4 1.1-1.7c-2.4-1.6-4.8-3.1-7.5-7.5l-1.7 1.1-1.7 1c3.2 5.2 6.2 7 8.7 8.7zm-8.1-8.1.5-2q.3.2-.1 0l-.8-.6-1-.6-1.2-.5-.5 2-.5 1.9h.2l.8.6 1 .6q.3.3 1.1.5zm-3-1.8-1.7 1.2c4 5.4 11.2 12.5 14.2 15.7l1.5-1.3 1.4-1.4c-3.2-3.5-10.1-10.1-13.9-15.3zm14 15.6 1.5-1.3-3-3.7-1.7 1.2L64 323l3.2 4zm-3.2-3.8-1.3 1.4 13.4 12.4 1.4-1.4 1.3-1.5L67 320.4zM79 334.3l-1.7 1 .4.7v-.2q-.1-.3.1-1.1.6-1 1.5-1.1h.9l-.6-.4-1.3-1-1.2 1.6-1.3 1.5 3 2.1 1 .1a2 2 0 0 0 1.6-1.1q.3-1 .2-1.4-.1-.6-.4-1l-.6-.9zm-2-.5-1.4 1.4 3.9 3.6 4.5 4.5 1.5-1.4 1.4-1.4q-2.8-2.9-4.7-4.6t-3.7-3.5zm8.5 8.1.5-2-1.3-.2-.7-.2a23 23 0 0 1-4.7-4L78 337l-1.4 1.4c2.8 2.7 4.4 4 5.8 4.7l1.8.6.9.1zm-7.6-5-1.4 1.5L89 350.6l1.4-1.5 1.4-1.4-12.5-12.1zm12.5 12.2-1.9.8 1.2 2 .8 1 1.8 2.8v-.6a2 2 0 0 1 2.2-1.9l.5.2q.2 0 0 0l-1 1.6-1.2 1.6.5.3.7.3a2 2 0 0 0 2.3-2.7l-.2-.6-2.1-3.2-.8-1.1-.6-1-.2-.3zm3.4 5.9-1.5 1.3c3.1 3.8 7.6 8 12 12.3q7.2 6.6 13.4 13.8l1.5-1.3 1.5-1.2c-4-5.1-9-9.8-13.6-14.2s-8.8-8.4-11.7-12zm25.4 26.1-1 1.7 3.1 2.9 1.4-1.4 1.4-1.4q-2.7-2.9-3.8-3.5zm3.5 3.2-1.5 1.3c7.9 8.9 14.4 17.6 25 27.4l1.4-1.5 1.3-1.5c-10.4-9.5-16.6-18-24.7-27zm24.9 27.2-1.7 1 4.2 7.1 1.7-1 1.7-1-4.2-7.1zm4.2 7-1.4 1.5q1.5 1.5 2.2 2l1.1.7c.2 0 1 .2 1.7-.3a2 2 0 0 0 1-1.6v-.8l-.2-.4-.6-1.4-.6-1q0-.2 0 0v.7a2 2 0 0 1-2.2 1.3h-.2v-.1l.3.3 1 .8 3.6 3.6 1.5-1.4 1.4-1.4-6-5.4-.7-.3h-1.4q-1 .7-1.2 1.4v1l.2 1 .3.7.4.7.3.6.1.3v-.5a2 2 0 0 1 2.4-1.7q.5.3.3.1l-1.8-1.7zm7.2 3.9-1.5 1.4q3.4 3.4 4.2 4.5l.3.5q-.2-.1.2-1.1c.2-.5.6-.7.4-.6q-.2 0-1 1-.6 1.4 0 2.2.2.7.8 1.6l1.6-1.2 1.6-1.2-.4-.6v1.2c-.3.4-.8.6-.6.5 0 0 .7-.3 1-1q.6-1.3.2-2.2-.3-.7-1-1.5-1-1.4-4.4-5zm5 8.3-1.3 1.5c5 4.3 13.8 11.4 20.8 21l1.6-1.2 1.6-1.2c-7.3-10-16.4-17.4-21.4-21.7zm21.1 21.3 1.4-1.5-3.8-3.9-3.6-4-1.5 1.5-1.4 1.4 3.6 3.8q1.7 2 4 4.1z" mask="url(#a)"/></svg>