<svg width="289" height="325" viewBox="0 0 289 325" fill="none" xmlns="http://www.w3.org/2000/svg">
<path d="M100.758 177.235C94.9296 175.62 94.9295 175.62 86.3299 164.568C92.4658 167.693 99.5136 170.124 100.758 177.235Z" fill="#82C6DD"/>
<path d="M154.26 32.7223C155.382 31.8603 158.352 32.0085 159.744 33.9781C160.844 35.5335 163.714 35.8079 164.193 37.9207C166.835 40.282 169.933 42.3175 171.742 45.2734C172.134 45.3619 172.337 45.5763 172.348 45.9173C178.759 51.0647 185.535 55.9229 190.752 62.0126C191.426 63.392 194.047 63.8563 193.272 65.9156C193.614 66.6094 196.059 65.6846 194.992 67.4619C203.213 72.6143 208.498 79.911 214.891 86.3985C218.627 88.4714 221.714 90.9733 222.785 94.805C226.379 96.3914 228.882 98.6902 229.59 102.156C230.572 102.384 231.848 101.942 232.498 102.93C234.407 105.75 238.503 107.151 239.539 110.541C241.133 112.248 244.999 112.767 243.552 116.064C244.419 117.033 247.482 117.68 245.835 118.915C243.816 120.429 243.363 117.736 242.248 116.847C239.223 115.843 239.347 113.289 238.44 111.241C237.185 109.807 232.971 111.411 233.58 108.059C228.53 106.043 225.898 102.181 223.037 98.4948C222.281 97.6837 221.524 96.8716 220.767 96.0596C217.868 94.4334 216.153 91.9768 214.294 89.6203C209.185 89.8918 209.271 85.684 206.987 83.6016C201.04 78.1784 193.786 73.7229 189.255 67.2415C185.32 67.1092 187.649 64.5648 187.127 63.1176C185.449 63.2181 184.209 62.7674 183.736 61.3466C181.033 60.4877 178.909 59.2247 178.891 56.4933C177.853 54.4562 173.624 54.5747 174.072 51.5318C171.781 51.1935 170.818 50.0414 171.11 48.1176C170.204 47.4205 169.298 46.7243 168.392 46.0282C165.048 46.2701 165.342 43.4895 163.801 42.2344C163.199 41.7494 162.596 41.2651 161.994 40.7801C159.013 40.1459 157.985 37.8136 156.25 36.1341C155.233 35.1523 152.016 34.4471 154.26 32.7223Z" fill="#82C6DD"/>
<path d="M40.6833 226.765C45.2847 229.369 50.2957 231.706 50.9659 236.846C46.4893 234.163 42.2738 231.311 40.6833 226.765Z" fill="#82C6DD"/>
<path d="M27.4388 214.995C26.8074 214.435 25.5289 213.355 27.4515 212.394C28.9944 211.622 29.9774 212.202 30.7068 213.155C32.834 215.938 34.8957 218.757 36.9817 221.562C38.4441 222.667 40.0086 223.719 40.5254 225.582C36.712 226.078 37.4304 223.291 35.8975 222.358C31.8026 220.893 30.2312 217.467 27.4388 214.995Z" fill="#82C6DD"/>
<path d="M166.924 16.1957C167.361 14.7418 166.25 12.6458 168.395 11.9681C171.011 11.1425 170.712 13.6607 171.687 14.7241C172.82 15.9579 173.965 17.1831 175.107 18.4123C176.841 20.0068 178.575 21.6013 180.308 23.1966C180.48 23.8746 180.653 24.5527 180.826 25.2307C185.975 27.9338 188.245 32.7904 192.627 36.0673C196.545 36.04 193.726 40.0626 196.569 40.68C201.404 43.7549 205.888 47.043 206.826 52.4953C206.823 52.4959 206.82 52.4966 206.816 52.4972C206.802 52.5039 206.716 52.5665 206.716 52.5665C211.99 52.439 212.135 57.3211 215.787 58.7805C217.41 61.1596 222.502 61.4316 221.576 65.3225C218.404 64.9864 216.793 61.77 212.945 62.6418C212.15 62.8224 211.055 62.2328 211.624 61.4142C212.048 60.8053 213.221 60.5304 214.061 60.1067C212.306 57.9571 207.363 58.8801 207.111 55.2817C205.165 55.4491 204.632 54.2087 203.919 53.1467C203.484 50.9747 197.808 51.5238 200.129 47.9214C198.044 47.6224 195.952 47.3281 196.048 44.9902C195.52 44.4532 194.993 43.9154 194.465 43.3784C192.175 42.2156 191.875 38.8959 188.007 39.4425C188.097 38.8002 188.188 38.1578 188.279 37.5146C187.044 37.318 185.341 37.6496 185.499 35.8866C183.425 33.2021 179.626 31.4406 179.417 27.7614C179.126 27.4924 178.834 27.2233 178.544 26.9535C177.235 25.5763 175.924 24.1999 174.614 22.8226C172.465 22.0469 171.798 20.2105 170.486 18.8365C168.306 18.872 166.037 19.1511 166.924 16.1957Z" fill="#82C6DD"/>
<path d="M68.3414 26.3207C67.2062 25.8297 65.9961 25.1197 66.7598 23.9975C67.6857 22.6393 69.1033 23.7678 70.0024 24.0833C71.8243 24.721 69.8639 25.2378 69.5439 25.817C70.0123 26.381 70.4809 26.9432 70.9493 27.5072C71.8041 26.8635 72.5693 25.6284 73.8271 26.1959C74.9476 26.7014 73.4656 27.6226 73.5176 28.3845C74.1779 30.9576 79.1024 29.826 79.2725 32.8251C80.1701 35.6516 84.0382 36.9957 84.3608 40.11C86.9985 41.5244 89.6359 42.9405 92.2735 44.3549C93.1316 45.9862 93.9896 47.6176 95.2626 50.0362C92.6442 48.9732 91.4748 48.0485 90.8877 46.6284C87.796 45.1364 84.8752 43.516 83.9542 40.3831C82.0708 39.0684 79.7035 38.1409 78.8233 36.0269C73.8942 33.8517 71.1406 30.0701 68.3414 26.3207Z" fill="#82C6DD"/>
<path d="M151.949 104.778C150.587 104.205 149.933 103.254 149.823 102.011C148.707 100.906 146.186 100.416 147.284 98.3348C147.706 97.5346 148.804 97.8382 149.65 98.0006C152.368 98.5214 151.043 100.152 150.871 101.467C152.528 102.131 157.744 98.8068 155.359 104.002C159.529 104.873 157.805 109.546 161.645 110.631C163.691 112.024 165.767 113.407 164.267 116.436C163.327 113.997 160.518 113.091 158.944 111.224C157.026 108.773 152.949 107.895 151.949 104.778Z" fill="#82C6DD"/>
<path d="M61.0701 248.044C61.118 247.244 62.2011 247.131 63.1817 247.212C67.9533 247.602 65.3935 251.276 66.9334 253.104C67.0555 253.249 67.1599 253.405 67.2727 253.555C69.9668 252.989 72.6548 256.268 72.3153 259.792C69.7546 258.268 66.9269 257.002 66.4612 254.093C63.6757 252.67 60.8822 251.201 61.0701 248.044Z" fill="#82C6DD"/>
<path d="M54.2134 239.555C56.5027 239.383 58.0975 240.23 59.3432 241.59C58.3559 241.633 57.3707 241.675 56.3855 241.718C57.4951 243.35 58.6035 244.983 59.7131 246.615C56.5127 245.135 54.1819 243.156 52.3756 240.891C50.7246 238.819 52.4954 239.03 54.2134 239.555Z" fill="#82C6DD"/>
<path d="M17.4232 202.61C20.1821 205.592 23.0933 208.443 26.2362 211.353C21.7742 209.681 18.8667 206.664 17.4232 202.61Z" fill="#82C6DD"/>
<path d="M168.13 118.245C171.881 116.523 172.648 121.316 175.111 122.997C176.733 124.05 177.836 125.277 177.261 127.428C174.709 127.158 173.86 125.765 172.919 124.463C171.33 122.199 166.269 119.098 168.13 118.245Z" fill="#82C6DD"/>
<path d="M80.4738 267.919C75.5994 266.746 75.0601 263.171 73.3073 260.47C76.3407 262.345 79.4904 264.155 80.4738 267.919Z" fill="#82C6DD"/>
<path d="M245.809 119.539C250.66 120.715 251.221 124.372 254.288 125.805C255.673 127.207 257.819 128.37 256.123 130.973C254.418 129.866 252.805 128.888 252.939 126.852C249.841 125.251 247.216 123.348 245.809 119.539Z" fill="#82C6DD"/>
<path d="M9.16061 148.391L9.15533 148.391L9.15123 148.385L9.15726 148.386L9.16061 148.391Z" fill="#82C6DD"/>
<path d="M15.5763 154.96C10.8028 154.471 10.9901 150.695 9.0093 148.356C14.4412 148.409 14.1032 152.284 15.5763 154.96Z" fill="#82C6DD"/>
<path d="M66.8712 142.1C63.615 140.975 61.2126 139.574 59.6892 137.344C59.0547 136.417 59.3635 135.575 60.522 135.068C60.9393 134.886 61.6601 135.198 62.2426 135.285C61.0891 138.732 66.5892 138.82 66.8712 142.1Z" fill="#82C6DD"/>
<path d="M62.8969 47.1253C61.0025 45.1995 59.3397 43.5091 57.6777 41.8195C59.5842 43.3398 64.2654 43.5077 62.8969 47.1253Z" fill="#82C6DD"/>
<path d="M287.201 131.096C284.249 128.597 283.734 127.736 283.518 125.711C285.061 127.55 287.128 128.813 287.201 131.096Z" fill="#82C6DD"/>
<path d="M227.148 71.3698C227.263 71.08 229.441 70.8699 230.055 71.7838C230.711 72.7608 231.4 73.9999 230.364 75.0337C230.041 75.3563 228.329 74.8356 227.044 74.6748C227.025 73.4397 226.76 72.3417 227.148 71.3698Z" fill="#82C6DD"/>
<path d="M1.79484 142.593C6.56982 143.758 7.79276 146.173 9.23509 148.424C5.4946 147.87 4.64627 145.177 1.79484 142.593Z" fill="#82C6DD"/>
<path d="M40.4348 21.1428C40.4344 21.4023 39.3046 22.0416 38.9617 21.9533C36.6522 21.363 36.6529 19.7353 36.7193 17.2208C38.6099 18.5567 40.4363 19.3291 40.4348 21.1428Z" fill="#82C6DD"/>
<path d="M184.954 130.391C185.305 132.272 184.47 133.391 183.062 134.153C182.886 134.247 180.986 133.033 181.058 132.442C181.25 130.87 183.358 131.019 184.954 130.391Z" fill="#82C6DD"/>
<path d="M248.969 88.2451C248.702 91.666 252.441 91.8643 251.37 94.8099C249.43 93.2282 247.033 92.4232 248.969 88.2451Z" fill="#82C6DD"/>
<path d="M143.726 94.2099C139.753 94.981 138.956 93.0422 137.578 91.8086C138.273 91.2544 138.969 90.7019 139.664 90.1494C140.92 91.4042 142.175 92.6591 143.726 94.2099Z" fill="#82C6DD"/>
<path d="M127.973 79.4586C127.967 79.4443 127.961 79.4299 127.953 79.4163C127.954 79.4129 127.954 79.4111 127.952 79.4076C128.013 79.4202 128.067 79.4369 128.128 79.4488C128.076 79.4506 128.025 79.4551 127.973 79.4586Z" fill="#82C6DD"/>
<path d="M131.602 83.6555C135.759 82.6672 132.986 86.2877 134.764 86.8818C136.488 87.9993 138.212 89.1168 139.935 90.2333C139.262 90.775 138.59 91.3175 137.915 91.8599C135.496 89.7127 131.983 88.3629 130.779 85.3258C129.259 83.9617 127.593 82.6876 126.261 81.2068C125.006 79.8098 126.329 79.5626 127.701 79.4923C128.497 81.2013 129.176 82.984 131.602 83.6555Z" fill="#82C6DD"/>
<path d="M237.431 80.4799C238.381 79.6457 239.446 79.6294 240.379 80.4168C240.962 81.0848 240.975 81.8823 240.007 82.2733C238.946 82.7016 237.639 82.712 236.965 81.8314C236.755 81.5573 237.062 80.8035 237.431 80.4799Z" fill="#82C6DD"/>
<path d="M52.387 33.9189C49.3961 33.6055 48.2238 32.2006 47.782 30.2352C48.2433 32.1861 52.2829 31.3852 52.387 33.9189Z" fill="#82C6DD"/>
<path d="M68.9274 51.2969C68.9166 50.9268 69.7771 50.1202 69.9605 50.1597C71.9624 50.5961 72.7766 51.8018 72.9937 53.6839C70.4718 53.8453 68.9841 53.2707 68.9274 51.2969Z" fill="#82C6DD"/>
<path d="M105.306 59.435C109.642 58.5808 108.274 62.1311 109.843 63.4124C115.35 63.2869 113.827 68.7131 117.537 70.0049C120.189 70.2439 119.872 72.3937 120.933 73.6582C124.506 74.6568 127.99 75.7301 128.17 79.5351C124.034 78.5882 120.773 76.7029 118.605 73.645C114.323 71.5452 112.09 67.9477 109.179 64.8459C107.484 63.3252 105.789 61.8045 104.093 60.2838C102.679 58.8327 101.265 57.3808 99.8508 55.9298C102.522 56.3841 104.631 57.2577 105.306 59.435Z" fill="#82C6DD"/>
<path d="M20.1289 95.9244C21.3411 95.6944 22.3146 96.066 22.7018 96.9668C22.8612 97.3362 22.5602 97.8553 22.4647 98.3243C20.9188 98.4834 20.1849 97.9233 19.6873 97.1507C19.4122 96.7199 19.1295 96.1133 20.1289 95.9244Z" fill="#82C6DD"/>
<path d="M15.3918 154.965L15.386 154.964L15.3822 154.955L15.3907 154.956L15.3918 154.965Z" fill="#82C6DD"/>
<path d="M19.209 158.066C16.3177 158.056 15.5627 156.677 15.2997 154.934C17.8656 154.97 18.8755 156.162 19.209 158.066Z" fill="#82C6DD"/>
<path d="M186.132 135.949C188 135.61 189.371 135.736 189.879 137.206C191.851 138.089 195.331 138.815 193.464 141.059C192.173 142.61 190.265 140.278 188.771 139.456C186.147 139.141 187.768 136.807 186.132 135.949Z" fill="#82C6DD"/>
<path d="M198.815 145.896C203.101 145.796 203.304 149.258 205.48 151C207.558 153.024 210.872 154.522 209.764 158.909C207.506 156.593 205.858 154.902 204.21 153.211C202.336 151.294 200.462 149.377 198.586 147.46C197.171 145.912 194.834 144.872 194.46 142.545C197.53 142.535 197.421 144.829 198.815 145.896Z" fill="#82C6DD"/>
<path d="M-2.75596 75.8373C-1.82612 75.2114 -0.98928 75.508 -0.443569 76.1556C0.016012 76.7015 0.643782 77.3108 -0.309677 78.033C-1.29543 78.4675 -2.12917 78.2977 -2.78821 77.7275C-3.45102 77.1537 -3.67954 76.4592 -2.75596 75.8373Z" fill="#82C6DD"/>
<path d="M57.8767 197.693C57.8883 197.705 57.8973 197.72 57.9087 197.733C57.8895 197.734 57.8772 197.731 57.8581 197.732L57.8767 197.693Z" fill="#82C6DD"/>
<path d="M61.8316 201.24C58.3947 201.399 58.9375 198.961 57.8178 197.696C60.888 197.57 61.506 199.196 61.8316 201.24Z" fill="#82C6DD"/>
<path d="M0.194651 184.505C4.94021 184.416 2.48473 187.746 3.33141 189.552C2.39692 188.621 1.46243 187.69 0.527942 186.76C-0.996423 186.993 -2.05798 186.524 -2.02263 185.311C-1.98656 184.045 -0.88257 184.113 0.194651 184.505Z" fill="#82C6DD"/>
<path d="M79.4444 154.833C79.994 155.285 80.6602 155.979 79.5759 156.581C79.1708 156.805 78.4144 156.603 77.9799 156.598C77.318 155.841 76.9313 155.163 77.863 154.604C78.1741 154.417 79.1261 154.572 79.4444 154.833Z" fill="#82C6DD"/>
<path d="M266.922 109.682C267.531 108.93 268.774 108.95 269.273 109.464C269.738 109.945 269.543 110.841 269.638 111.555C268.84 111.499 268.04 111.442 267.107 111.377C265.762 111.072 266.499 110.203 266.922 109.682Z" fill="#82C6DD"/>
<path d="M57.8789 197.695L57.8609 197.734C57.8327 197.721 57.8116 197.704 57.7858 197.688C57.8196 197.689 57.8451 197.694 57.8789 197.695Z" fill="#82C6DD"/>
<path d="M54.8419 194.375C57.3173 194.923 56.4935 196.944 57.8606 197.723C55.2433 197.663 54.5609 196.491 54.8419 194.375Z" fill="#82C6DD"/>
<path d="M117.844 196.122C118.509 195.56 119.526 195.274 119.98 196.163C120.15 196.496 119.6 197.096 119.301 197.744C118.584 197.653 117.711 197.733 117.515 197.468C117.293 197.169 117.488 196.423 117.844 196.122Z" fill="#82C6DD"/>
<path d="M7.77744 84.7935C8.71659 84.2097 9.47714 84.6879 9.84147 85.3439C10.047 85.7125 9.84965 86.2398 9.83783 86.5895C8.53879 87.1453 7.78672 86.8076 7.45436 86.1275C7.27871 85.7658 7.43094 85.0101 7.77744 84.7935Z" fill="#82C6DD"/>
<path d="M83.5715 -29.8706C84.6395 -30.8867 86.7862 -30.8257 87.5629 -29.0074C90.4611 -27.9105 92.5681 -26.1212 94.1935 -23.9097C96.5327 -22.8645 99.1247 -22.0573 100.111 -19.7334C100.5 -19.6563 100.782 -19.4725 100.958 -19.1803C103.833 -18.6964 105.072 -17.1041 105.251 -14.7952C105.619 -14.5708 105.716 -14.2735 105.545 -13.9077C106.759 -13.3492 107.974 -12.7914 109.188 -12.2329C112.145 -10.5045 114.833 -8.58776 115.949 -5.57113C116.792 -4.72678 119.442 -6.2452 119.195 -3.97397C120.886 -1.51617 125.356 -0.863245 125.393 2.66766C128.199 4.85393 132.346 5.984 133.381 9.56568C136.019 10.3965 137.82 11.849 138.416 14.1984C140.049 14.8864 142.095 15.1691 142.56 17.0035C142.853 17.2068 143.039 17.4645 143.122 17.7771C144.325 18.5136 145.257 19.3741 144.983 20.7764C148.188 22.2759 151.103 23.976 151.581 27.3616C153.078 28.5786 155.426 29.3097 155.465 31.8796C152.188 31.7376 149.55 31.5747 148.806 28.7674C147.018 26.44 142.756 25.7333 142.692 22.2776C141.557 21.6859 140.423 21.095 139.286 20.504C138.779 19.9418 138.271 19.3797 137.762 18.8183C136.95 17.545 134.528 17.387 134.504 15.5682C133.202 14.5737 132.188 13.4555 132.232 11.8865C125.443 12.7963 125.83 6.86735 122.155 4.81076C121.415 3.95782 120.673 3.10569 119.932 2.25184C118.248 1.76908 118.185 0.742975 118.725 -0.484356C114.146 0.364039 114.501 -3.34011 112.58 -4.94437C109.828 -4.53068 109.88 -6.82938 108.506 -7.74831C106.827 -8.8824 105.146 -10.0157 103.466 -11.1491C102.504 -12.2715 101.541 -13.3932 100.578 -14.5149C99.7066 -15.3449 98.8355 -16.1748 97.9644 -17.0048C97.4269 -17.6391 95.0412 -16.5691 95.9083 -18.4974C94.2854 -19.1223 92.7158 -19.7831 92.9088 -21.6175C89.1875 -22.5808 87.7899 -25.4956 85.4511 -27.6201C85.032 -28.55 81.9967 -28.3715 83.5715 -29.8706Z" fill="#82C6DD"/>
<path d="M264.886 106.577C263.865 107.143 263.486 106.313 262.786 105.77C262.772 105.468 262.751 105.041 262.732 104.613C263.488 104.82 264.36 104.915 264.953 105.283C265.225 105.454 265.167 106.422 264.886 106.577Z" fill="#82C6DD"/>
<path d="M56.0568 133.302C55.9305 132.799 55.8175 132.353 55.7044 131.906C56.5054 131.933 57.4878 131.754 58.0489 132.05C58.5164 132.296 58.4895 133.101 58.6798 133.659C57.8553 133.547 57.032 133.434 56.0568 133.302Z" fill="#82C6DD"/>
<path d="M9.5783 194.116C10.7594 193.562 11.8287 193.806 12.3591 194.698C12.5936 195.093 12.2964 195.713 12.2406 196.23C11.2339 195.995 10.226 195.761 9.49435 195.59C8.62912 194.916 8.95758 194.407 9.5783 194.116Z" fill="#82C6DD"/>
<path d="M253.537 95.1028C254.423 95.605 255.13 95.793 255.32 96.1706C255.519 96.5671 255.427 97.2566 255.095 97.6171C254.633 98.1191 253.749 98.0456 253.55 97.4762C253.333 96.8626 253.519 96.1383 253.537 95.1028Z" fill="#82C6DD"/>
<path d="M82.2361 64.4538C79.1267 64.166 78.5357 62.2221 78.1556 60.1393C78.0199 59.8439 77.9283 59.5369 77.8817 59.2192C75.8252 57.7785 73.4415 56.4672 74.2499 53.7098C74.3502 53.3703 75.4256 52.8232 75.6984 52.9312C78.5053 54.039 79.4627 56.0082 78.9771 58.5589C80.2071 59.124 82.2632 59.1705 81.2823 61.1241C82.5706 61.5229 84.9469 60.7557 84.4448 63.0728C84.6273 63.379 84.8098 63.6853 84.9923 63.9915C87.1763 67.1896 92.1683 68.0065 94.1915 71.34C94.9355 72.1974 95.6774 73.0547 96.4213 73.9121C97.0589 74.4 97.6975 74.8871 98.3351 75.3749C101.255 77.2092 103.156 79.5867 103.776 82.6471C105.642 84.5127 109.18 85.2129 109.817 88.6942C105.271 87.9618 104.619 83.953 101.029 83.1109C101.392 80.581 97.2604 81.1806 96.9839 79.0945C94.2148 78.2421 91.8166 77.1205 91.847 74.2326C91.4083 73.6426 90.9687 73.0517 90.5312 72.4609C88.5991 70.613 86.6682 68.7644 84.7382 66.9166C83.9026 66.0967 83.0694 65.2753 82.2361 64.4538Z" fill="#82C6DD"/>
</svg>
