<svg xmlns="http://www.w3.org/2000/svg" viewBox="0 0 1200 392" role="img" aria-labelledby="prFfTitle prFfDesc">
  <title id="prFfTitle">PipeRocket SaaS SEO framework funnel</title>
  <desc id="prFfDesc">A funnel showing the PipeRocket SaaS SEO framework. What we start with (sales call recordings, ICP intent data, evaluation searches, buying triggers) feeds four numbered stages: 01 Buyers over keywords, built from buyer conversations; 02 Intent over volume, decision-stage searches first; 03 Purpose over publish, every page has a CTA path; 04 Revenue over rankings, measured in pipeline. What you get out: demos, MQLs and MRR.</desc>

  <!-- input cluster label -->
  <text x="148" y="64" text-anchor="middle" font-family="Helvetica, Arial, sans-serif" font-size="11" font-weight="700" letter-spacing="2" fill="#6B6B6B">WHAT WE START WITH</text>

  <!-- input chips -->
  <g font-family="Helvetica, Arial, sans-serif" font-size="12" fill="#0D0D0D" text-anchor="middle">
    <rect x="68" y="86" width="160" height="30" rx="15" fill="none" stroke="#0D0D0D" stroke-width="1.6"/>
    <text x="148" y="105">sales call recordings</text>
    <rect x="83" y="131" width="130" height="30" rx="15" fill="none" stroke="#0D0D0D" stroke-width="1.6"/>
    <text x="148" y="150">ICP intent data</text>
    <rect x="70" y="176" width="156" height="30" rx="15" fill="none" stroke="#0D0D0D" stroke-width="1.6"/>
    <text x="148" y="195">evaluation searches</text>
    <rect x="80" y="221" width="136" height="30" rx="15" fill="none" stroke="#0D0D0D" stroke-width="1.6"/>
    <text x="148" y="240">buying triggers</text>
  </g>
  <!-- dashed connectors into the mouth -->
  <g fill="none" stroke="#6B6B6B" stroke-width="1.4" stroke-dasharray="4 5">
    <path d="M 231 101 q 30 12 49 32"/>
    <path d="M 216 146 q 35 6 64 12"/>
    <path d="M 229 191 q 28 -2 51 -6"/>
    <path d="M 219 236 q 38 -14 61 -32"/>
  </g>

  <!-- funnel body -->
  <g fill="none" stroke="#0D0D0D" stroke-width="2.5">
    <path d="M 300 75 C 540 92, 760 120, 980 142"/>
    <path d="M 300 265 C 540 248, 760 220, 980 198"/>
    <ellipse cx="300" cy="170" rx="20" ry="95"/>
    <ellipse cx="980" cy="170" rx="8" ry="28"/>
  </g>

  <!-- stage dividers -->
  <g stroke="#6B6B6B" stroke-width="1.2" stroke-dasharray="3 6" opacity="0.5">
    <line x1="470" y1="99" x2="470" y2="241"/>
    <line x1="630" y1="113" x2="630" y2="227"/>
    <line x1="790" y1="126" x2="790" y2="214"/>
  </g>

  <!-- step numbers + stage words inside funnel -->
  <g text-anchor="middle">
    <text x="388" y="139" font-family="Helvetica, Arial, sans-serif" font-size="13" font-weight="700" letter-spacing="2.5" fill="#0CC6F1">01</text>
    <text x="388" y="184" font-family="Georgia, 'Times New Roman', serif" font-size="30" font-weight="700" fill="#0D0D0D">Buyers</text>
    <text x="550" y="143" font-family="Helvetica, Arial, sans-serif" font-size="13" font-weight="700" letter-spacing="2.5" fill="#0CC6F1">02</text>
    <text x="550" y="182" font-family="Georgia, 'Times New Roman', serif" font-size="26" font-weight="700" fill="#0D0D0D">Intent</text>
    <text x="710" y="147" font-family="Helvetica, Arial, sans-serif" font-size="12" font-weight="700" letter-spacing="2.5" fill="#0CC6F1">03</text>
    <text x="710" y="180" font-family="Georgia, 'Times New Roman', serif" font-size="22" font-weight="700" fill="#0D0D0D">Purpose</text>
    <text x="885" y="151" font-family="Helvetica, Arial, sans-serif" font-size="11" font-weight="700" letter-spacing="2" fill="#0CC6F1">04</text>
    <text x="885" y="180" font-family="Georgia, 'Times New Roman', serif" font-size="19" font-weight="700" fill="#0D0D0D">Revenue</text>
  </g>

  <!-- ticks down to the explanation row -->
  <g stroke="#6B6B6B" stroke-width="1.2" stroke-dasharray="2 5">
    <line x1="388" y1="260" x2="388" y2="292"/>
    <line x1="550" y1="246" x2="550" y2="292"/>
    <line x1="710" y1="232" x2="710" y2="292"/>
    <line x1="885" y1="214" x2="885" y2="292"/>
  </g>

  <!-- "over X" contrarian framing -->
  <g font-family="Georgia, 'Times New Roman', serif" font-size="15" font-style="italic" fill="#6B6B6B" text-anchor="middle">
    <text x="388" y="312">over <tspan>keywords</tspan></text>
    <text x="550" y="312">over <tspan>volume</tspan></text>
    <text x="710" y="312">over <tspan>publish</tspan></text>
    <text x="885" y="312">over <tspan>rankings</tspan></text>
  </g>
  <g stroke="#E63946" stroke-width="2" stroke-linecap="round">
    <line x1="375" y1="307" x2="437" y2="304"/>
    <line x1="542" y1="307" x2="594" y2="304"/>
    <line x1="700" y1="307" x2="752" y2="304"/>
    <line x1="874" y1="307" x2="932" y2="304"/>
  </g>

  <!-- plain-language explanation of each stage -->
  <g font-family="Helvetica, Arial, sans-serif" font-size="12" fill="#0D0D0D" text-anchor="middle">
    <text x="388" y="338">Built from buyer conversations</text>
    <text x="550" y="338">Decision-stage searches first</text>
    <text x="710" y="338">Every page has a CTA path</text>
    <text x="885" y="338">Measured in pipeline</text>
  </g>

  <!-- output cluster label -->
  <text x="1094" y="90" text-anchor="middle" font-family="Helvetica, Arial, sans-serif" font-size="11" font-weight="700" letter-spacing="2" fill="#6B6B6B">WHAT YOU GET</text>

  <!-- output arrows -->
  <g fill="none" stroke="#0D0D0D" stroke-width="2" stroke-linecap="round">
    <path d="M 992 162 q 18 -22 40 -34"/>
    <path d="M 1032 128 l -12 -1 M 1032 128 l -7 9"/>
    <path d="M 994 170 h 38"/>
    <path d="M 1032 170 l -10 -6 M 1032 170 l -10 6"/>
    <path d="M 992 178 q 18 22 40 34"/>
    <path d="M 1032 212 l -12 1 M 1032 212 l -7 -9"/>
  </g>

  <!-- output chips -->
  <g text-anchor="middle">
    <rect x="1042" y="106" width="104" height="36" rx="18" fill="none" stroke="#0CC6F1" stroke-width="2.4"/>
    <text x="1094" y="130" font-family="Georgia, 'Times New Roman', serif" font-size="17" font-weight="700" fill="#0D0D0D">Demos</text>
    <rect x="1042" y="152" width="104" height="36" rx="18" fill="none" stroke="#0CC6F1" stroke-width="2.4"/>
    <text x="1094" y="176" font-family="Georgia, 'Times New Roman', serif" font-size="17" font-weight="700" fill="#0D0D0D">MQLs</text>
    <rect x="1042" y="198" width="104" height="36" rx="18" fill="none" stroke="#0CC6F1" stroke-width="2.4"/>
    <text x="1094" y="222" font-family="Georgia, 'Times New Roman', serif" font-size="17" font-weight="700" fill="#0D0D0D">MRR</text>
    <path d="M 1048 244 q 24 6 92 1" fill="none" stroke="#E63946" stroke-width="3" stroke-linecap="round"/>
    <path d="M 1054 249 q 36 5 80 0" fill="none" stroke="#E63946" stroke-width="2" stroke-linecap="round" opacity="0.65"/>
  </g>
</svg>
