<svg width="338" height="331" viewBox="0 0 338 331" fill="none" xmlns="http://www.w3.org/2000/svg">
<path d="M163.026 29.3919C162.891 29.5481 162.763 29.7179 162.652 29.8992C161.652 31.483 160.441 33.2193 159.441 34.5869C159.047 35.1266 159.08 34.7462 158.801 35.1145C158.256 35.8348 157.876 36.5878 157.325 37.292C157.142 37.525 157.103 37.0638 156.917 37.3115C155.896 38.67 155.089 40.0577 154.11 41.4697C149.289 48.4246 144.705 55.361 139.969 62.4932C138.407 64.8451 136.337 67.5934 134.854 70.1066C134.682 70.4001 134.999 70.3631 134.981 70.4286C134.695 71.4517 134.457 70.8977 134.043 71.4197C132.4 73.4923 130.798 75.9421 129.509 78.1246C128.961 79.0535 129.958 78.4101 129.14 79.1738C129.083 79.2271 129.01 78.8551 128.827 79.0886C128.412 79.6183 127.764 80.7134 127.465 81.1391C126.889 81.9588 126.802 82.0996 126.287 82.8945C125.582 83.9799 124.64 85.2044 123.939 86.4049C123.79 86.6615 124.229 86.4769 124.012 86.8994C123.794 87.3222 123.098 88.3628 122.817 88.6836C122.535 89.0043 122.454 88.7387 122.373 88.7754C121.697 89.0711 121.391 90.5957 121.302 90.7599C119.666 93.7467 117.819 96.0225 116.096 98.7054C114.788 100.742 113.479 102.977 112.221 104.907C110.722 107.206 109.342 109.083 107.922 111.339C107.771 111.577 108.216 111.471 108.033 111.762C106.09 114.853 104.101 117.884 101.956 120.826C101.741 121.121 101.761 120.576 101.532 120.861C100.134 122.614 97.765 125.285 98.0667 127.053C97.2103 128.298 96.1778 129.815 95.242 130.819C94.6389 131.468 94.8418 130.592 94.3718 131.562C94.2655 131.781 94.6582 131.66 94.4819 131.977C93.7396 133.312 92.7668 134.666 92.0668 136.008C91.925 136.282 92.1701 136.34 92.1591 136.436C92.0557 137.237 90.9166 137.95 90.7383 138.151C89.3862 139.681 88.6921 140.987 87.6692 142.564C87.4318 142.93 87.979 142.669 87.7601 143.027C86.6214 144.883 85.3789 146.766 84.1071 148.483C83.8236 148.864 83.8308 148.35 83.6836 148.525C83.0374 149.298 83.3494 149.761 82.738 150.508C82.6096 150.665 82.4755 150.444 82.434 150.461C81.7848 150.729 81.9919 151.458 81.9223 151.59C81.0519 153.261 79.9043 153.949 78.9947 155.52C78.8865 155.708 79.3985 155.456 79.0789 155.975C78.7406 156.525 78.3955 157.079 78.045 157.633C76.416 159.993 77.3659 163.553 79.8873 165.004C80.3456 165.264 79.9164 165.304 79.9314 165.342C80.2948 165.979 80.867 165.53 81.0221 165.545C81.864 165.647 82.6893 165.764 83.4185 165.577C83.9234 165.449 84.3722 165.263 84.7279 164.923C91.4418 163.762 97.9989 162.003 104.734 161.218C104.82 161.208 104.726 161.514 104.897 161.492C106.948 161.225 106.471 160.878 107.698 160.076C108.007 159.874 109.162 160.292 109.263 160.319C109.628 160.421 109.372 160.902 109.489 160.912C110.458 160.98 110.026 159.657 111.259 159.399C111.299 159.394 111.189 159.677 111.297 159.68C111.635 159.69 111.933 159.525 112.266 159.545C113.028 159.593 113.422 160.197 114.442 159.584C114.571 159.506 114.198 158.782 115.307 158.588C115.75 158.512 117.69 158.093 118.246 158.029C118.8 157.965 118.478 158.29 118.519 158.293C120.053 158.314 119.526 158.566 120.362 158.897C121.197 159.226 120.753 158.117 121.025 157.926C121.298 157.736 122.43 157.781 122.713 157.82C122.997 157.858 122.701 158.085 122.946 158.089C124.575 158.111 123.51 157.375 123.985 157.085C125.104 156.4 126.224 157.057 127.348 156.909C127.652 156.869 127.367 156.726 127.63 156.652C128.672 156.362 129.363 156.496 130.514 156C130.702 155.919 131.566 155.203 132.274 155.449C132.374 155.484 132.166 155.75 132.626 155.704C133.313 155.635 134.535 155.428 135.243 155.206C135.765 155.042 135.08 154.819 135.775 154.788C136.084 154.774 135.573 155.095 136.15 155.052C136.723 155.009 138.148 154.702 138.689 154.582C139.229 154.462 138.877 154.258 138.917 154.231C139.161 154.073 140.174 153.727 140.266 153.708C144.894 152.708 149.263 152.263 153.745 151.172C154.096 151.087 153.802 150.856 153.855 150.84C155.043 150.469 154.243 151.415 155.142 151.487C154.901 150.944 155.422 150.942 156.263 150.702C156.668 150.585 156.398 150.412 156.431 150.381C156.971 149.919 157.487 150.263 157.615 150.328C158.087 150.569 158.446 150.093 158.767 150.253C159.087 150.411 158.521 150.863 159.339 150.688C159.526 150.436 158.807 150.031 159.411 149.815C161.689 148.999 166.156 148.501 168.052 148.151C169.944 147.801 170.544 147.636 171.657 147.481C173.666 147.2 172.858 146.957 174.05 146.519C175.247 146.081 174.85 147.178 175.071 147.349C175.289 147.522 175.434 147.267 175.675 147.337C175.914 147.406 175.477 147.646 175.993 147.583C176.511 147.52 177.822 146.858 177.957 146.602C178.241 146.06 177.513 145.705 178.893 145.595C178.973 145.589 178.775 145.897 179.077 145.861C181.056 145.617 183.071 145.235 185.058 144.93L185.324 144.87L185.386 145.145C185.45 145.56 185.51 145.974 185.565 146.387C185.608 146.715 185.263 146.485 185.285 146.677C185.512 148.672 185.845 147.873 186.602 148.834C185.843 148.741 185.533 149.425 185.839 150.912C186.023 151.806 186.3 151.587 186.639 152.119C186.741 152.279 186.661 152.955 186.83 153.04C187.385 153.318 187.793 152.611 187.901 154.187C187.905 154.257 187.6 154.097 187.632 154.333C187.843 155.855 188.378 155.931 188.777 157.541C189.09 158.803 189.259 161.129 189.512 162.587C188.709 162.723 189.177 164.053 189.842 164.493C190.016 165.437 190.259 166.446 190.373 167.37C190.412 167.688 190.139 167.531 190.122 167.576C189.857 168.262 190.477 168.559 190.54 168.757C191.203 170.914 191.172 172.79 192.006 174.805C192.036 174.877 192.615 174.882 192.328 175.527C192.308 175.569 191.911 174.929 192.098 175.92C192.284 176.911 192.377 178.834 192.919 180.151C193.05 180.47 193.675 181.215 193.464 181.962C193.435 182.062 193.256 181.997 193.195 182.145C193.001 182.622 193.608 182.734 193.235 183.325C192.863 183.916 192.721 185.014 193.338 186.327C193.356 186.37 193.868 186.604 193.952 187.04C194.085 187.737 194.198 188.741 194.353 189.465C194.427 189.811 194.655 189.532 194.673 189.591C195.314 191.891 195.416 193.603 195.831 196.124C195.907 196.586 196.557 197.824 196.445 198.773C196.324 199.814 194.764 199.096 195.553 201.267C195.87 202.143 197.823 202.928 197.274 204.735C198.151 207.836 198.304 210.84 199.277 213.93C199.321 214.069 199.893 214.417 199.956 214.752C200.049 215.25 199.882 215.568 199.941 215.925C200.184 217.421 200.658 218.736 200.927 220.171C201.029 220.716 200.758 220.574 200.88 221.224C201.003 221.873 201.397 222.241 201.433 223.147C201.459 223.832 200.975 224.624 201.086 225.517C201.707 225.422 201.82 226.028 202.206 227.066C202.28 227.266 202.448 227 202.494 227.092C202.687 227.466 202.587 227.87 202.785 228.222C202.833 228.307 203.044 228.268 203.095 228.335C203.537 228.908 203.284 230.056 203.24 230.253C203.072 231.009 203.412 231.275 203.4 231.831C203.388 232.385 203.069 231.626 203.124 232.26C203.153 232.598 203.2 232.957 203.257 233.326C203.421 234.445 204.021 235.581 204.718 236.349C205.096 236.757 205.041 236.28 205.1 236.334C205.885 237.068 206.81 237.87 207.567 237.529C207.836 239.143 208.223 237.69 209.64 238.056C209.752 238.079 209.947 238.782 209.42 238.873C208.884 238.959 208.139 238.634 207.412 238.553C207.252 238.56 206.037 238.739 205.874 238.674C204.675 238.332 205.221 237.34 205.216 237.282C205.127 236.453 203.904 236.044 203.682 235.746C203.081 235.046 202.786 234.229 202.611 233.461C202.512 233.031 202.409 232.615 202.262 232.211C202.014 231.529 201.333 231.599 201.238 231.043C200.922 229.193 201.719 228.358 200.551 226.797C200.301 226.462 199.649 226.983 199.945 225.534C199.963 225.443 200.282 224.347 199.831 223.846C199.774 223.783 199.562 223.83 199.525 223.739C199.277 223.13 199.358 222.673 199.133 222C198.908 221.328 198.614 220.524 198.522 219.722C198.466 219.239 198.735 218.548 198.784 218.3C198.93 217.601 198.328 217.009 198.583 216.541C198.84 216.07 199.519 216.745 199.519 215.649C198.959 215.725 198.374 215.754 197.805 215.808C197.344 213.502 197.05 211.2 196.543 208.896C196.48 208.61 196.244 208.965 196.168 208.66C195.851 207.375 195.826 206.2 195.461 204.875C195.178 203.849 194.626 202.775 194.319 201.704C194.813 200.908 194.261 199.34 194.074 198.157C194.008 197.742 194.183 197.734 194.177 197.431C194.151 196.287 193.7 196.92 193.549 196.636C192.904 195.419 194.144 195.044 193.794 193.524C193.776 193.443 192.896 192.595 192.825 192.467C192.371 191.659 193.03 192.275 192.967 191.723C192.851 190.715 192.868 189.995 192.429 188.876C192.3 188.549 191.71 187.826 191.898 187.101C191.922 187.005 192.155 187.007 192.153 186.934C192.108 185.63 191.401 185.743 191.014 185.073C190.627 184.402 190.878 183.19 190.97 182.935C191.206 182.268 191.218 183.356 191.26 183.381C191.759 183.669 191.518 182.874 191.424 182.247C192.091 182.014 191.869 181.156 191.324 181.598C191.265 181.647 191.429 182.116 191.424 182.247C190.637 181.844 190.352 180.91 190.762 179.727C190.954 179.173 191.394 179.567 190.956 178.098C190.758 177.431 190.34 177.792 190.087 177.22C189.507 175.913 189.576 174.043 189.212 172.647C189.08 172.141 188.926 172.693 188.827 172.349C188.563 171.435 188.586 170.576 188.291 169.664C188.264 169.582 188.037 169.844 187.973 169.555C187.482 167.364 187.256 165.413 186.781 163.117C186.552 162.008 185.989 160.056 185.779 158.901C185.413 156.9 185.295 154.368 184.845 152.687C184.552 151.591 184.332 151.891 184.048 151.454C183.499 150.611 183.8 148.854 183.854 148.615C183.856 148.607 184.119 149.549 184.152 149.01C184.379 148.654 183.857 148.625 183.854 148.615C183.888 148.458 183.551 146.538 183.42 146.17C183.349 145.97 183.117 146.139 183.084 146.034C183.045 145.906 183.007 145.778 182.969 145.65L185.563 147.348C183.185 148.055 180.771 148.614 178.294 149.013C178.247 149.017 178.256 148.716 178.147 148.73C176.623 148.915 175.738 149.466 174.546 149.932C173.355 150.398 172.362 150.533 171.528 150.193C170.609 150.45 169.227 150.511 168.431 150.54C167.634 150.568 167.643 151.149 167.578 151.174C165.541 151.968 164.254 151.904 162.054 152.311C161.008 152.504 158.96 153.016 157.846 153.313C156.965 153.548 156.401 153.529 155.598 153.784C155.489 153.819 155.653 154.044 155.621 154.061C154.767 154.549 155.081 153.85 154.869 153.78C154.101 153.529 153.633 153.407 152.499 153.838C152.237 153.937 151.632 154.977 151.149 155.131C150.521 155.33 150.698 154.966 150.042 155.182C149.986 155.2 150.039 155.391 149.622 155.469C147.691 155.834 145.57 156.159 143.575 156.596C143.302 156.655 143.717 156.889 143.324 156.979C141.48 157.402 139.448 157.815 137.615 158.048C137.163 158.104 137.397 157.831 137.287 157.787C136.615 157.525 135.893 158.261 135.757 158.3C132.511 159.26 129.877 159.28 126.562 160.224C126.382 160.277 125.097 161.173 124.36 160.788C124.31 160.763 123.577 160.365 123.102 160.841C123.073 160.871 123.517 161.062 122.835 161.175C122.152 161.289 121.1 161.698 120.108 161.594C119.793 161.561 118.987 161.18 118.196 161.783C118.145 161.825 116.987 163.057 116.366 162.503C116.265 162.412 116.202 161.702 115.228 162.276C115.042 162.387 115.438 162.466 114.93 162.672C114.152 162.99 113.042 163.028 112.112 163.544C111.95 163.635 111.31 164.26 110.643 164.026C110.539 163.99 110.667 163.722 110.349 163.761C108.836 163.948 107.311 164.427 105.768 164.583C105.222 164.638 105.417 164.207 104.839 164.223C104.26 164.24 103.117 164.378 102.569 164.671C102.022 164.963 102.783 165.426 101.919 165.656C98.1627 166.657 94.3255 167.094 90.5206 167.835C89.9562 167.945 90.4673 168.061 89.6388 168.238C88.1664 168.553 86.1866 169.019 84.223 169.429C81.1194 170.177 77.7703 168.762 76.4695 167.23C74.5432 164.829 77.3879 167.317 75.9696 165.598C75.3548 164.789 74.2174 164.065 74.0855 163.797C72.8464 161.371 73.2233 159.185 74.0187 156.954C74.2012 156.485 73.7371 156.821 73.9057 156.421C74.0693 156.046 74.2663 155.692 74.494 155.349C74.9156 154.724 75.3802 154.118 75.7495 153.512C75.9766 153.138 75.7487 153.087 75.9805 152.758C76.5331 151.968 77.0711 151.301 77.7515 150.623C77.8135 150.561 77.7308 151.193 78.1246 150.6C78.7612 149.638 79.7056 148.543 80.2469 147.314C80.4068 146.949 79.9939 146.665 80.7424 146.14C80.8991 146.03 81.2825 146.546 81.3784 145.436C81.3954 145.249 81.7011 143.477 82.5205 143.038C82.7365 142.922 83.4462 142.728 83.6371 142.288C83.6614 142.227 83.2961 142.298 83.4861 141.954C84.1598 140.743 84.9673 139.54 85.6644 138.3C85.8501 137.968 85.3105 138.293 85.5947 137.804C86.376 136.458 87.485 134.863 88.3802 133.632C88.7107 133.178 88.6952 133.629 88.7383 133.608C89.4362 133.277 89.1824 132.653 89.2731 132.452C89.8432 131.21 90.6182 130.482 91.2352 129.396C91.406 129.096 91.0531 129.16 91.0704 129.089C91.2622 128.368 91.3728 129.068 91.6598 128.718C92.4652 127.737 93.2072 126.543 93.8682 125.453C94.1106 125.052 93.5699 125.33 93.7905 124.972C95.091 122.852 96.5135 120.693 97.9671 118.741C98.2412 118.374 98.2831 118.743 98.3796 118.692C99.0498 118.342 99.14 117.256 99.2188 117.044C99.576 116.077 99.9619 115.86 100.41 115.091C102.596 111.334 105.611 106.897 107.898 103.495C110.878 99.0602 113.307 95.6939 116.013 91.3773C116.185 91.1031 115.746 91.2091 115.891 90.9705C117.776 87.8987 119.796 84.9805 121.673 81.8945C121.827 81.6416 121.347 81.841 121.587 81.4296C122.076 80.5847 122.758 79.554 123.371 78.7755C123.669 78.3954 123.534 79.0754 123.83 78.69C124.519 77.7931 125.19 76.7878 125.777 75.788C126.026 75.3622 125.369 75.8241 125.712 75.2834C128.046 71.5966 130.319 67.9636 133.033 64.4661C133.219 64.2264 133.88 64.3357 134.128 63.7312C134.011 63.5983 133.84 63.492 133.698 63.3756C137.05 57.9791 140.629 52.8055 144.1 47.4649C144.246 47.2397 143.722 47.454 144.003 47.0171C145.634 44.4882 147.139 41.9811 149.075 39.5667C149.267 39.3269 149.664 39.7685 150.078 38.9645C150.151 38.8225 150.819 37.6408 150.904 37.2787C150.914 37.2285 150.555 37.2919 150.785 36.9203C152.123 34.7629 153.613 32.5581 155.12 30.5148C155.364 30.1853 155.368 30.7057 155.544 30.4723C156.39 29.3464 157.138 28.0582 157.934 26.8708C158.444 26.0987 159.092 25.4494 159.8 24.9826C161.318 24.0869 161.075 24.9024 162.018 24.9385C162.144 24.9366 163.026 24.6159 163.152 24.8874C163.448 25.5374 163.34 26.386 163.711 27.0609C163.784 27.1936 164.507 26.8473 164.146 27.3334C164.117 27.3595 163.639 27.6447 163.583 27.8238C163.542 27.942 163.787 28.1478 163.689 28.3203C163.6 28.4905 163.328 28.3574 163.181 28.6198C163.054 28.8835 163.318 29.0733 163.026 29.3919ZM164.844 150.672C164.076 150.553 164.176 151.557 164.898 151.161C164.932 151.141 164.884 150.678 164.844 150.672ZM197.793 211.058C198.032 210.037 197.262 209.533 197.065 210.259C196.868 210.986 197.721 211.369 197.793 211.058ZM200.126 220.646C200.24 219.487 198.812 219.606 199.336 220.713C199.367 220.777 200.119 220.714 200.126 220.646ZM159.282 27.408C159.294 27.4011 159.713 26.8828 159.72 26.8672C159.708 26.367 158.824 27.4498 159.282 27.408ZM202.471 230.154C202.588 229.775 202.167 228.842 202.02 229.313C201.903 229.692 202.325 230.626 202.471 230.154ZM127.478 157.382C127.464 157.37 127.048 157.443 127.074 157.524C127.158 157.785 127.716 157.589 127.478 157.382ZM214.275 236.765C213.302 237.666 212.168 237.77 211.78 237.609C211.369 237.426 211.599 237.191 212.634 236.663C212.82 236.557 212.682 236.764 212.539 236.964C212.396 237.164 212.247 237.364 212.535 237.276C213.618 236.882 213.632 235.872 214.549 235.26C214.757 235.128 214.444 236.663 214.272 236.769C214.273 236.767 214.274 236.766 214.275 236.765ZM164.188 149.578C164.171 149.568 163.597 149.675 163.586 149.691C163.342 150.068 164.498 149.852 164.188 149.578ZM103.261 161.806C103.224 161.785 101.892 162.036 101.854 162.071C101.269 162.725 103.961 162.219 103.261 161.806ZM189.495 162.614C189.939 163.172 190.132 163.911 189.842 164.49C189.733 163.866 189.606 163.241 189.495 162.614Z" fill="#0BA6E2"/>
<path d="M187.511 23.8192C186.807 24.0073 185.757 24.0043 184.914 24.1686C181.384 24.8545 180.049 24.9793 176.846 25.5608C174.219 26.0376 168.773 27.2324 164.379 27.9541C163.859 28.0214 163.313 28.2118 162.988 28.3728C162.65 28.5418 162.514 28.6368 162.384 28.7101C162.112 28.8313 161.946 29.3533 161.622 29.4216C161.622 29.4217 161.622 29.4217 161.622 29.4217C161.607 29.4247 161.592 29.4269 161.577 29.4281C161.261 29.4703 160.896 28.6535 160.659 28.4114C160.521 28.2979 159.919 28.1669 159.447 27.737C158.982 27.3427 158.67 26.3752 159.582 25.3528C160.427 24.4321 161.83 23.692 163.43 23.4079C166.057 22.9707 169.111 22.5818 169.998 22.3801C170.89 22.177 171.953 21.7597 173.09 21.4874C176.758 20.6095 178.718 20.3431 181.937 19.1402C183.323 19.1304 184.709 19.1206 186.095 19.1107C187.804 18.6241 190.508 18.4282 191.558 18.1885C192.42 17.9919 192.882 17.6742 193.782 17.4761C194.79 17.2527 196.39 17.1571 198.222 16.7386C201.225 16.0535 201.646 15.3888 203.441 14.9408C205.301 14.4764 208.281 14.1676 210.634 13.4732C210.922 13.3497 211.209 13.2262 211.497 13.1027C211.253 13.0101 211.009 12.9175 210.765 12.8249C211.957 12.5092 212.535 12.6827 213.644 12.4564C214.948 12.1904 215.557 11.7843 216.435 11.6024C217.153 11.4536 218.172 11.4644 219.101 11.2564C220.456 10.9542 220.094 10.707 220.813 10.4964C221.1 10.4131 226.455 9.11637 226.759 9.05039C229.07 8.55507 229.36 8.93638 231.212 8.58815C236.349 7.62064 241.53 6.1817 246.235 5.06406C248.336 4.56489 250.546 4.12902 252.667 3.75669C249.575 5.53335 257.095 4.84274 253.994 3.72087C256.389 3.47248 257.956 2.66763 260.194 2.28087C261.642 2.03116 262.686 2.05849 264.737 1.62367C267.269 1.0859 269.9 0.196212 271.704 0.0374681C272.74 -0.0830956 273.552 0.0936547 273.955 0.466635C279.767 0.262658 282.711 4.95333 284.341 6.35339C284.578 6.83393 284.808 7.64639 284.896 8.55685C284.977 9.82901 284.997 11.3595 285.109 12.1732C285.272 13.3596 286.859 22.3919 287.149 23.8631C287.44 25.3343 287.959 27.9074 288.311 29.1241C288.751 30.653 290.083 31.5074 289.368 34.5425C290.144 37.7357 290.346 38.8889 290.82 41.9104C290.906 42.4575 290.727 42.5588 290.793 42.8751C290.929 43.5266 291.302 44.6054 291.563 45.7648C291.99 47.6713 291.814 48.8471 292.387 48.505C292.754 49.7443 293.12 50.9835 293.487 52.2227C293.46 52.6899 293.434 53.1571 293.407 53.6243C293.678 54.2713 293.948 54.9183 294.219 55.5653C293.161 54.96 294.678 59.5945 294.869 57.947C295.195 60.4297 295.52 62.9124 295.846 65.3951C294.76 65.2659 296.85 70.7861 297.301 70.1903C297.359 70.4702 297.416 70.75 297.474 71.0299C297.716 73.5346 298.406 75.737 298.848 78.7592C299.29 81.7811 299.133 81.5216 298.856 82.5265C299.029 83.2232 299.203 83.9198 299.376 84.6165C301.425 88.0341 299.074 87.8454 301.373 93.9503C301.007 96.0344 302.321 100.575 303.251 103.805C303.302 103.991 303.346 104.175 303.381 104.357C303.463 104.822 303.633 104.816 303.685 105.467C303.818 106.541 303.161 108.671 302.444 109.763C302.196 110.216 302.081 110.547 302.244 110.613C301.487 111.461 300.73 112.309 299.974 113.156C299.533 113.97 299.092 114.784 298.651 115.598C298.787 115.684 298.922 115.771 299.057 115.857C297.562 117.082 296.096 119.609 295.179 120.724C294.997 120.945 294.779 120.872 294.229 121.572C293.585 122.391 292.549 124.029 291.796 125.013C291.728 125.549 291.66 126.085 291.592 126.621C290.456 128.527 289.483 128.806 288.709 129.852C288.57 130.041 286.206 133.598 286.088 133.796C285.118 135.415 285.875 135.284 282.711 139.722C282.148 140.512 281.548 141.053 281.049 141.774C280.166 143.047 277.897 147.15 278.021 147.678C276.55 148.95 273.89 153.221 272.938 154.364C272.649 154.709 272.329 154.613 271.5 155.71C270.828 156.6 269.425 159.114 268.595 160.258C267.713 161.471 267.19 161.763 266.796 162.308C266.425 162.823 266.274 163.428 265.787 164.142C264.261 166.37 262.598 168.195 261.392 169.956C259.647 172.501 258.643 175.115 257.425 177.41C257.03 177.916 256.562 178.36 256.183 178.914C251.489 185.775 246.116 193.46 241.312 200.275C239.082 203.439 232.948 210.907 235.593 209.599C235.046 210.854 229.06 218.61 228.006 220.143C226.952 221.676 226.338 223.041 225.518 224.251C223.046 227.904 221.143 230.367 218.309 234.933C217.884 235.62 217.509 236.381 217.179 237.031C216.821 237.677 216.415 238.208 216.051 238.559C215.001 239.567 213.477 240.176 211.73 240.565C209.984 240.978 207.433 240.889 205.204 239.615C202.941 238.404 201.344 235.905 200.972 233.805C200.852 233.22 200.744 232.683 200.655 232.217C200.556 231.691 200.773 231.453 200.697 230.687C200.4 227.705 199.69 224.441 198.994 225.19C198.677 221.354 197.531 217.983 196.781 214.523C195.198 207.207 192.602 193.821 190.925 187.51C189.868 183.53 189.523 183.71 188.601 177.718C188.397 176.388 188.218 175.059 187.969 173.446C187.385 169.665 187.346 166.093 185.934 163.414C185.278 159.216 184.437 155.94 184.492 152.712C184.249 152.384 184.005 152.056 183.762 151.727C183.651 151.219 183.541 150.711 183.43 150.202C183.557 150.01 183.684 149.818 183.81 149.626C183.091 145.969 181.468 141.478 180.828 138.389C179.754 133.211 177.225 119.824 176.415 114.87C175.985 112.24 175.614 112.171 176.005 110.532C175.834 109.959 175.664 109.387 175.493 108.814C175.263 108.481 175.033 108.149 174.803 107.816C174.098 104.474 173.509 100.458 172.842 97.273C171.624 91.4698 169.38 82.8424 168.441 76.9556C168.206 75.4795 168.142 73.5863 167.84 72.1559C167.4 70.0739 166.767 69.6777 166.205 67.0365C165.238 62.484 164.078 53.8719 163.132 49.5757C162.851 48.2996 162.531 47.7438 162.325 46.8651C161.462 43.1808 160.843 40.1372 159.798 36.6497C159.507 32.7316 160.227 32.9249 160.638 31.606C160.948 30.6069 161.524 27.6209 161.877 27.1403C162.126 26.8028 162.732 27.743 162.988 27.2891C164.21 31.8009 164.316 33.7817 164.617 37.5896C166.067 44.4355 167.516 51.2813 168.966 58.1272C168.912 58.7887 168.859 59.4502 168.806 60.1118C168.805 60.1118 168.805 60.1119 168.804 60.112C169.142 62.7868 169.847 63.803 170.251 65.1993C174.115 78.5668 178.894 105.467 181.901 120.443C182.549 123.671 184.985 134.1 185.149 136.373C185.191 136.962 184.941 137.18 185.056 137.792C186.361 143.198 187.665 148.603 188.97 154.009C190.867 165.289 193.646 176.78 196.068 188.039C199.294 203.035 202.514 217.954 205.692 232.819C206.176 236.148 211.336 237.067 212.991 234.181C219.006 225.283 225.022 216.422 231.055 207.601C234.399 202.712 238.449 196.376 241.827 191.661C243.237 189.693 244.188 189.12 245.691 186.297C245.813 186.34 245.935 186.383 246.057 186.426C247.494 184.047 248.256 182.421 249.982 179.833C251.437 177.654 255.321 171.914 256.663 170.028C257.358 169.049 257.299 169.55 257.928 168.624C259.003 167.037 261.04 163.471 262.528 161.285C263.876 159.304 266.37 156.117 267.374 154.573C270.992 149.012 274.727 142.815 278.792 137.032C279.916 135.435 281.579 133.529 281.916 133.019C282.574 132.022 282.531 131.562 282.951 130.877C285.085 127.401 288.949 122.346 291.208 119.052C293.806 115.262 296.441 111.381 299.085 107.475C299.658 106.634 299.859 105.577 299.638 104.56C298.188 97.7143 296.736 90.8668 295.379 84.2307C293.738 76.2087 290.905 62.8997 289.577 55.4545C289.29 53.849 289.695 54.2085 289.415 52.8686C289.104 51.383 288.723 50.6229 288.561 49.9322C287.437 45.1516 285.005 34.5876 284.276 30.0049C284.137 29.1319 284.253 28.4533 284.144 27.936C284.09 27.6741 283.797 27.1177 283.608 26.2991C282.176 20.0948 281.231 15.3008 280.089 9.56072C279.951 8.85287 279.688 8.15696 279.284 7.50804C278.022 5.41694 275.264 4.16203 272.688 4.74739C261.652 7.08372 249.878 9.70235 238.907 11.8581C235.781 12.4724 233.54 12.4299 233.103 12.5264C232.143 12.7372 231.595 13.1949 229.663 13.6832C223.239 15.3036 214.439 16.7752 208.31 18.2273C205.282 18.9445 201.185 20.236 198.208 20.9542C195.83 21.5279 190.144 22.5446 189.121 22.9495C188.499 23.195 188.275 23.6132 187.511 23.8192ZM266.981 1.44163C266.674 2.09956 271.056 0.69098 269.311 0.736675C268.918 0.746981 267.061 1.27095 266.981 1.44163ZM249.083 187.538C249.244 187.597 249.404 187.656 249.565 187.714C249.846 187.179 250.127 186.643 250.408 186.107C250.136 186.33 249.863 186.553 249.591 186.776C249.421 187.03 249.252 187.284 249.083 187.538Z" fill="#FC5B70"/>
<path d="M160.509 242.125C160.296 242.444 160.038 242.875 159.848 243.207C159.788 243.311 159.839 243.271 159.799 243.344C159.72 243.485 159.631 243.607 159.555 243.747C159.529 243.794 159.594 243.757 159.567 243.805C159.418 244.071 159.258 244.309 159.1 244.574C158.323 245.878 157.539 247.147 156.735 248.455C156.469 248.886 156.168 249.424 155.878 249.859C155.844 249.91 155.837 249.863 155.829 249.871C155.699 250.004 155.784 249.986 155.728 250.092C155.504 250.509 155.226 250.954 154.974 251.332C154.867 251.493 154.918 251.297 154.844 251.48C154.838 251.492 154.892 251.468 154.867 251.515C154.81 251.621 154.683 251.811 154.636 251.891C154.544 252.046 154.528 252.071 154.438 252.215C154.315 252.412 154.182 252.654 154.043 252.861C154.013 252.905 154.022 252.827 153.972 252.896C153.922 252.965 153.805 253.157 153.771 253.225C153.737 253.293 153.777 253.28 153.775 253.295C153.76 253.415 153.561 253.597 153.542 253.624C153.192 254.124 152.948 254.588 152.643 255.072C152.411 255.439 152.153 255.825 151.934 256.176C151.674 256.593 151.467 256.956 151.21 257.359C151.182 257.402 151.181 257.331 151.147 257.383C150.795 257.934 150.452 258.487 150.127 259.053C150.094 259.11 150.169 259.057 150.138 259.115C149.949 259.468 149.67 260.04 149.415 260.161C149.276 260.393 149.106 260.675 149.002 260.896C148.936 261.039 149.049 260.931 148.933 261.085C148.907 261.119 148.909 261.054 148.871 261.107C148.716 261.332 148.566 261.591 148.407 261.811C148.375 261.855 148.357 261.827 148.345 261.837C148.238 261.925 148.183 262.148 148.162 262.191C148.002 262.518 147.848 262.733 147.669 263.019C147.627 263.085 147.643 262.986 147.602 263.049C147.389 263.376 147.176 263.721 146.988 264.054C146.946 264.128 147.016 264.08 146.997 264.116C146.915 264.276 146.84 264.276 146.76 264.428C146.743 264.461 146.779 264.459 146.778 264.466C146.765 264.58 146.657 264.619 146.642 264.64C146.444 264.914 146.392 265.135 146.21 265.405C146.188 265.437 146.204 265.343 146.144 265.435C145.747 266.046 145.346 266.704 144.986 267.329C144.93 267.427 144.996 267.374 144.995 267.382C144.979 267.507 144.879 267.532 144.857 267.562C144.687 267.795 144.595 268.055 144.418 268.176C143.792 269.225 143.104 270.229 142.523 271.295C142.516 271.308 142.56 271.303 142.545 271.33C142.365 271.654 142.356 271.565 142.169 271.736C142.122 271.78 142.091 271.981 142.087 271.998C142.073 272.061 142.151 272.036 142.143 272.055C142.082 272.215 141.95 272.1 141.83 272.291C141.826 272.297 141.869 272.289 141.862 272.307C141.839 272.362 141.797 272.405 141.775 272.459C141.726 272.584 141.772 272.669 141.624 272.814C141.605 272.832 141.543 272.747 141.439 272.92C141.398 272.989 141.206 273.289 141.159 273.377C141.111 273.465 141.174 273.424 141.171 273.431C141.064 273.68 141.133 273.603 141.113 273.75C141.094 273.897 140.989 273.787 140.946 273.825C140.903 273.862 140.827 274.048 140.812 274.095C140.796 274.142 140.845 274.102 140.828 274.142C140.713 274.407 140.699 274.209 140.63 274.276C140.465 274.434 140.465 274.638 140.366 274.816C140.339 274.864 140.342 274.812 140.314 274.853C140.204 275.012 140.17 275.128 140.027 275.298C140.003 275.326 139.853 275.442 139.832 275.565C139.829 275.582 139.877 275.557 139.838 275.63C139.78 275.74 139.667 275.931 139.589 276.038C139.531 276.117 139.553 275.998 139.499 276.11C139.475 276.16 139.551 276.088 139.504 276.18C139.458 276.271 139.318 276.492 139.264 276.576C139.21 276.659 139.21 276.595 139.204 276.601C139.167 276.635 139.052 276.787 139.043 276.802C138.587 277.518 138.218 278.212 137.761 278.901C137.726 278.956 137.718 278.9 137.712 278.908C137.581 279.088 137.755 278.99 137.7 279.139C137.65 279.081 137.612 279.166 137.522 279.294C137.479 279.356 137.477 279.306 137.471 279.31C137.375 279.382 137.38 279.477 137.379 279.5C137.375 279.585 137.29 279.627 137.287 279.685C137.283 279.742 137.38 279.666 137.299 279.792C137.255 279.814 137.257 279.684 137.187 279.774C136.922 280.116 136.54 280.823 136.36 281.119C136.181 281.414 136.118 281.506 136.019 281.681C135.839 281.997 135.868 281.858 135.728 282.036C135.588 282.215 135.752 282.188 135.757 282.23C135.762 282.271 135.721 282.286 135.712 282.328C135.703 282.369 135.764 282.306 135.719 282.388C135.674 282.469 135.498 282.66 135.457 282.673C135.37 282.7 135.379 282.57 135.266 282.79C135.259 282.803 135.312 282.781 135.285 282.829C135.077 283.207 134.84 283.587 134.629 283.963C134.6 284.015 134.659 283.989 134.643 284.02C134.471 284.335 134.488 284.194 134.326 284.325C134.426 284.335 134.415 284.457 134.27 284.688C134.183 284.826 134.165 284.781 134.085 284.856C134.061 284.879 134.022 284.991 133.995 284.999C133.907 285.025 133.907 284.896 133.781 285.148C133.775 285.16 133.824 285.144 133.803 285.181C133.668 285.421 133.597 285.415 133.432 285.663C133.302 285.857 133.114 286.228 132.978 286.456C133.067 286.505 132.914 286.705 132.8 286.754C132.711 286.901 132.609 287.056 132.528 287.202C132.5 287.253 132.545 287.237 132.544 287.244C132.527 287.365 132.43 287.392 132.408 287.422C132.171 287.749 132.04 288.054 131.792 288.353C131.783 288.363 131.712 288.344 131.701 288.459C131.7 288.466 131.795 288.376 131.701 288.53C131.607 288.685 131.457 288.994 131.295 289.189C131.256 289.236 131.126 289.335 131.098 289.464C131.094 289.481 131.121 289.476 131.118 289.503C131.108 289.587 131.025 289.584 131.028 289.693C131.032 289.801 130.97 289.984 130.8 290.176C130.794 290.182 130.714 290.203 130.673 290.271C130.606 290.379 130.52 290.538 130.449 290.65C130.415 290.704 130.407 290.651 130.401 290.66C130.156 291.011 130.021 291.285 129.788 291.68C129.746 291.752 129.576 291.931 129.522 292.089C129.462 292.262 129.706 292.199 129.452 292.524C129.35 292.655 129.053 292.716 128.991 293.028C128.66 293.501 128.425 293.983 128.083 294.451C128.068 294.472 127.972 294.509 127.94 294.561C127.893 294.638 127.891 294.696 127.858 294.752C127.721 294.986 127.567 295.183 127.431 295.407C127.379 295.492 127.423 295.478 127.361 295.579C127.299 295.68 127.224 295.726 127.155 295.872C127.102 295.982 127.105 296.127 127.027 296.268C126.957 296.232 126.9 296.326 126.778 296.481C126.754 296.511 126.753 296.462 126.74 296.476C126.69 296.53 126.673 296.599 126.623 296.649C126.611 296.661 126.588 296.648 126.577 296.657C126.482 296.735 126.43 296.93 126.421 296.963C126.388 297.091 126.327 297.123 126.288 297.213C126.25 297.304 126.344 297.192 126.291 297.293C126.183 297.502 126.018 297.755 125.893 297.957C125.842 298.038 125.846 297.964 125.839 297.975C125.726 298.136 125.652 298.325 125.534 298.379C125.617 298.593 125.456 298.47 125.337 298.728C125.328 298.748 125.386 298.818 125.443 298.753C125.499 298.688 125.544 298.564 125.624 298.475C125.643 298.454 125.797 298.362 125.813 298.346C125.937 298.222 125.84 298.132 125.838 298.121C125.828 297.993 126.006 297.874 126.039 297.834C126.188 297.649 126.279 297.47 126.401 297.314C126.48 297.212 126.559 297.247 126.611 297.16C126.783 296.87 126.745 296.708 127.001 296.494C127.056 296.448 127.099 296.555 127.166 296.31C127.171 296.295 127.21 296.106 127.302 296.04C127.313 296.032 127.336 296.047 127.347 296.033C127.421 295.943 127.444 295.866 127.52 295.765C127.596 295.663 127.69 295.543 127.759 295.416C127.801 295.34 127.818 295.218 127.829 295.176C127.862 295.058 127.978 294.983 127.981 294.898C127.983 294.813 127.851 294.899 127.93 294.721C127.993 294.753 128.063 294.777 128.129 294.806C128.352 294.447 128.554 294.084 128.782 293.727C128.81 293.683 128.814 293.749 128.845 293.702C128.976 293.504 129.064 293.315 129.204 293.112C129.313 292.955 129.458 292.8 129.573 292.637C129.569 292.491 129.75 292.255 129.858 292.07C129.896 292.005 129.875 291.998 129.898 291.949C129.983 291.764 129.993 291.882 130.032 291.841C130.199 291.666 130.073 291.563 130.226 291.328C130.234 291.315 130.403 291.208 130.421 291.19C130.535 291.074 130.41 291.151 130.457 291.064C130.544 290.905 130.594 290.787 130.728 290.621C130.768 290.572 130.892 290.475 130.921 290.351C130.925 290.334 130.896 290.327 130.902 290.315C131.001 290.105 131.08 290.147 131.176 290.052C131.272 289.956 131.328 289.751 131.335 289.707C131.354 289.59 131.274 289.767 131.267 289.769C131.185 289.799 131.272 289.678 131.329 289.58C131.263 289.519 131.352 289.388 131.388 289.478C131.391 289.488 131.337 289.558 131.329 289.58C131.455 289.541 131.557 289.399 131.592 289.193C131.608 289.097 131.525 289.146 131.685 288.923C131.757 288.821 131.783 288.894 131.855 288.81C132.02 288.618 132.146 288.312 132.291 288.098C132.344 288.02 132.323 288.115 132.36 288.063C132.459 287.924 132.518 287.783 132.619 287.646C132.629 287.633 132.638 287.684 132.666 287.639C132.884 287.3 133.053 286.991 133.276 286.635C133.384 286.463 133.594 286.166 133.703 285.986C133.892 285.673 134.088 285.267 134.265 285.01C134.38 284.842 134.385 284.898 134.451 284.837C134.58 284.719 134.669 284.423 134.68 284.383C134.68 284.381 134.58 284.525 134.615 284.437C134.612 284.371 134.678 284.384 134.68 284.383C134.687 284.356 134.866 284.056 134.909 284.001C134.932 283.971 134.948 284.006 134.96 283.99C135.234 283.611 135.49 283.219 135.73 282.81C135.734 282.802 135.696 282.793 135.705 282.776C135.838 282.535 135.969 282.411 136.112 282.233C136.255 282.056 136.344 281.899 136.362 281.753C136.459 281.612 136.566 281.39 136.627 281.262C136.688 281.134 136.759 281.155 136.767 281.145C137.011 280.842 137.095 280.631 137.304 280.288C137.403 280.125 137.613 279.81 137.73 279.64C137.822 279.505 137.86 279.413 137.95 279.291C137.962 279.275 137.977 279.309 137.982 279.304C138.103 279.183 137.995 279.21 138.001 279.173C138.026 279.04 138.044 278.96 138.179 278.79C138.21 278.751 138.382 278.689 138.435 278.616C138.505 278.521 138.447 278.537 138.521 278.438C138.527 278.429 138.547 278.444 138.587 278.379C138.771 278.079 138.963 277.746 139.16 277.437C139.187 277.395 139.186 277.47 139.226 277.409C139.41 277.125 139.607 276.809 139.768 276.52C139.807 276.449 139.757 276.477 139.759 276.458C139.775 276.34 139.918 276.248 139.933 276.227C140.284 275.733 140.476 275.307 140.831 274.801C140.85 274.774 141.053 274.596 141.059 274.463C141.059 274.454 141.063 274.322 141.155 274.261C141.161 274.257 141.153 274.336 141.216 274.229C141.279 274.122 141.405 273.966 141.464 273.801C141.482 273.749 141.493 273.605 141.624 273.498C141.633 273.491 141.868 273.345 141.845 273.225C141.841 273.206 141.758 273.171 141.899 273.033C141.926 273.006 141.907 273.073 141.969 272.998C142.064 272.883 142.148 272.704 142.279 272.571C142.302 272.548 142.424 272.465 142.444 272.349C142.447 272.331 142.405 272.342 142.432 272.292C142.564 272.053 142.733 271.822 142.863 271.577C142.909 271.49 142.842 271.507 142.885 271.414C142.929 271.321 143.028 271.14 143.104 271.061C143.179 270.982 143.181 271.122 143.272 270.99C143.665 270.414 143.995 269.807 144.36 269.215C144.414 269.127 144.392 269.214 144.473 269.086C144.773 268.613 145.31 267.808 145.52 267.365C145.689 267.011 145.398 267.407 145.54 267.145C145.609 267.019 145.767 266.934 145.788 266.907C145.992 266.635 146.084 266.415 146.257 266.163C146.293 266.111 146.29 266.183 146.32 266.138C146.423 265.987 146.512 265.815 146.607 265.669C146.65 265.603 146.666 265.63 146.703 265.568C146.791 265.419 146.862 265.284 146.93 265.128C146.936 265.113 146.852 265.183 146.919 265.074C147.028 264.898 147.143 264.667 147.292 264.48C147.337 264.424 147.391 264.455 147.435 264.304C147.445 264.272 147.359 264.266 147.509 264.151C147.534 264.132 147.766 263.927 147.796 263.774C147.804 263.733 147.804 263.617 147.857 263.551C147.865 263.542 147.869 263.599 147.909 263.541C148.05 263.337 148.186 263.115 148.331 262.905C148.369 262.849 148.345 262.953 148.401 262.869C148.557 262.638 148.735 262.338 148.871 262.102C148.922 262.015 148.86 262.058 148.861 262.05C148.881 261.923 148.976 261.901 149 261.87C149.15 261.678 149.221 261.504 149.348 261.319C149.383 261.268 149.387 261.323 149.396 261.314C149.488 261.221 149.388 261.27 149.425 261.198C149.53 260.997 149.667 260.785 149.792 260.594C149.838 260.524 149.82 260.624 149.861 260.561C150.104 260.187 150.348 259.792 150.563 259.413C150.603 259.341 150.551 259.369 150.554 259.351C150.577 259.226 150.723 259.114 150.749 259.084C150.869 258.946 150.885 258.873 150.974 258.741C151.409 258.094 151.907 257.271 152.29 256.643C152.789 255.825 153.161 255.181 153.654 254.411C153.686 254.363 153.687 254.433 153.715 254.391C154.067 253.849 154.393 253.302 154.748 252.76C154.777 252.716 154.767 252.8 154.815 252.73C154.913 252.584 155.029 252.396 155.114 252.24C155.155 252.164 155.066 252.245 155.108 252.169C155.206 251.991 155.319 251.806 155.435 251.634C155.484 251.56 155.445 251.693 155.507 251.596C155.927 250.936 156.342 250.289 156.722 249.593C156.748 249.546 156.708 249.465 156.782 249.375C156.805 249.379 156.826 249.393 156.847 249.402C157.465 248.444 158.043 247.475 158.648 246.506C158.674 246.465 158.664 246.558 158.714 246.479C159.001 246.021 159.29 245.584 159.549 245.095C159.575 245.047 159.5 245.032 159.595 244.901C159.612 244.878 159.749 244.678 159.796 244.633C159.803 244.627 159.807 244.682 159.85 244.616C160.097 244.234 160.344 243.826 160.569 243.43C160.606 243.366 160.534 243.413 160.559 243.368C160.741 243.044 160.979 242.717 161.14 242.4C161.248 242.188 161.149 242.23 161.165 242.091C161.167 242.071 161.244 241.946 161.218 241.921C161.154 241.857 161.034 241.866 160.969 241.791C160.955 241.775 161.079 241.62 160.975 241.692C160.968 241.697 160.878 241.809 160.845 241.83C160.823 241.845 160.816 241.788 160.777 241.823C160.738 241.857 160.734 241.919 160.675 241.98C160.616 242.041 160.601 241.988 160.509 242.125ZM136.901 280.685C136.942 280.556 137.058 280.607 136.958 280.71C136.953 280.715 136.899 280.691 136.901 280.685ZM128.472 294.036C128.516 293.862 128.647 293.806 128.62 293.931C128.592 294.055 128.459 294.088 128.472 294.036ZM127.496 295.511C127.565 295.319 127.732 295.387 127.588 295.549C127.58 295.558 127.492 295.522 127.496 295.511ZM160.839 242.576C160.839 242.574 160.893 242.483 160.896 242.482C160.96 242.456 160.85 242.636 160.839 242.576ZM126.523 296.973C126.536 296.908 126.655 296.771 126.639 296.852C126.626 296.918 126.507 297.055 126.523 296.973ZM140.415 274.853C140.415 274.85 140.453 274.785 140.462 274.792C140.488 274.815 140.423 274.899 140.415 274.853ZM124.932 299.497C125.161 299.12 125.179 298.816 124.937 299.231C124.893 299.306 125.077 299.097 125.029 299.198C124.941 299.382 124.792 299.447 124.724 299.648C124.711 299.685 124.919 299.519 124.932 299.497C124.932 299.497 124.932 299.497 124.932 299.497ZM136.814 280.541C136.814 280.538 136.868 280.448 136.871 280.447C136.935 280.42 136.825 280.601 136.814 280.541ZM142.701 271.076C142.702 271.069 142.828 270.861 142.835 270.856C142.958 270.784 142.702 271.203 142.701 271.076ZM132.978 286.461C132.883 286.536 132.807 286.649 132.801 286.753C132.859 286.656 132.92 286.559 132.978 286.461Z" fill="#F6F6F1"/>
<path d="M137.314 205.414C137.101 205.732 136.843 206.164 136.653 206.495C136.594 206.599 136.645 206.56 136.604 206.632C136.526 206.774 136.436 206.895 136.36 207.036C136.335 207.082 136.399 207.045 136.372 207.094C136.224 207.359 136.063 207.598 135.905 207.863C135.128 209.166 134.345 210.435 133.54 211.743C133.275 212.175 132.974 212.713 132.683 213.148C132.649 213.198 132.642 213.151 132.634 213.16C132.504 213.293 132.589 213.275 132.533 213.38C132.309 213.797 132.032 214.243 131.779 214.621C131.672 214.782 131.723 214.585 131.649 214.768C131.644 214.781 131.698 214.757 131.672 214.804C131.615 214.91 131.488 215.099 131.441 215.18C131.35 215.334 131.334 215.359 131.243 215.503C131.12 215.7 130.987 215.943 130.848 216.149C130.818 216.194 130.827 216.116 130.777 216.185C130.727 216.254 130.61 216.445 130.576 216.513C130.543 216.582 130.582 216.569 130.58 216.583C130.565 216.704 130.366 216.886 130.347 216.913C129.997 217.413 129.753 217.876 129.448 218.36C129.217 218.728 128.958 219.114 128.739 219.464C128.479 219.882 128.272 220.245 128.015 220.648C127.988 220.69 127.986 220.619 127.952 220.671C127.6 221.223 127.257 221.775 126.932 222.341C126.9 222.398 126.974 222.345 126.943 222.403C126.754 222.757 126.475 223.329 126.22 223.45C126.081 223.682 125.911 223.964 125.808 224.185C125.741 224.328 125.854 224.219 125.738 224.373C125.712 224.408 125.714 224.343 125.677 224.396C125.521 224.621 125.371 224.879 125.212 225.099C125.18 225.144 125.163 225.115 125.15 225.126C125.043 225.213 124.988 225.436 124.967 225.479C124.807 225.806 124.653 226.022 124.474 226.308C124.433 226.374 124.448 226.274 124.407 226.337C124.194 226.665 123.981 227.009 123.793 227.342C123.751 227.416 123.821 227.368 123.803 227.405C123.72 227.565 123.645 227.564 123.565 227.717C123.548 227.749 123.584 227.747 123.583 227.755C123.57 227.869 123.462 227.907 123.447 227.929C123.249 228.202 123.197 228.424 123.015 228.693C122.993 228.726 123.009 228.632 122.949 228.724C122.553 229.335 122.151 229.992 121.791 230.618C121.735 230.715 121.801 230.662 121.801 230.67C121.784 230.796 121.684 230.821 121.663 230.85C121.493 231.084 121.4 231.344 121.223 231.465C120.598 232.514 119.909 233.517 119.328 234.583C119.321 234.597 119.365 234.592 119.35 234.619C119.17 234.942 119.161 234.853 118.975 235.025C118.927 235.068 118.896 235.27 118.892 235.287C118.878 235.35 118.956 235.325 118.949 235.344C118.887 235.503 118.756 235.388 118.635 235.579C118.632 235.586 118.674 235.577 118.667 235.595C118.644 235.65 118.602 235.693 118.581 235.748C118.532 235.873 118.578 235.958 118.429 236.102C118.41 236.12 118.348 236.035 118.244 236.208C118.203 236.277 118.012 236.578 117.964 236.666C117.916 236.754 117.979 236.713 117.977 236.719C117.869 236.969 117.938 236.892 117.918 237.039C117.899 237.185 117.794 237.076 117.751 237.113C117.708 237.151 117.632 237.336 117.617 237.383C117.601 237.431 117.65 237.39 117.633 237.43C117.519 237.695 117.505 237.498 117.435 237.565C117.27 237.723 117.27 237.927 117.171 238.104C117.144 238.152 117.147 238.101 117.119 238.141C117.009 238.3 116.975 238.417 116.832 238.587C116.808 238.614 116.658 238.73 116.637 238.853C116.634 238.871 116.682 238.846 116.643 238.919C116.585 239.028 116.472 239.219 116.394 239.327C116.336 239.406 116.358 239.287 116.304 239.399C116.28 239.448 116.356 239.376 116.31 239.468C116.263 239.56 116.123 239.781 116.069 239.864C116.015 239.948 116.016 239.884 116.009 239.889C115.972 239.923 115.857 240.076 115.848 240.09C115.392 240.807 115.023 241.5 114.567 242.19C114.531 242.244 114.523 242.188 114.518 242.197C114.387 242.377 114.56 242.279 114.505 242.427C114.455 242.37 114.418 242.454 114.327 242.582C114.284 242.644 114.282 242.594 114.276 242.599C114.18 242.671 114.185 242.766 114.184 242.789C114.18 242.874 114.095 242.916 114.092 242.973C114.089 243.031 114.185 242.954 114.104 243.081C114.06 243.103 114.062 242.972 113.992 243.063C113.727 243.404 113.345 244.112 113.165 244.408C112.986 244.702 112.923 244.794 112.824 244.969C112.645 245.286 112.673 245.146 112.533 245.325C112.393 245.504 112.557 245.477 112.562 245.519C112.568 245.56 112.526 245.575 112.517 245.616C112.508 245.657 112.569 245.595 112.524 245.676C112.479 245.758 112.304 245.948 112.262 245.961C112.175 245.989 112.184 245.859 112.071 246.079C112.065 246.091 112.117 246.07 112.091 246.118C111.882 246.496 111.645 246.875 111.435 247.251C111.406 247.303 111.465 247.278 111.448 247.308C111.277 247.624 111.293 247.483 111.131 247.613C111.231 247.624 111.22 247.745 111.075 247.976C110.988 248.115 110.97 248.07 110.89 248.145C110.866 248.167 110.827 248.28 110.8 248.287C110.712 248.314 110.712 248.185 110.586 248.437C110.58 248.448 110.629 248.433 110.608 248.47C110.473 248.71 110.402 248.704 110.237 248.951C110.108 249.145 109.919 249.517 109.783 249.744C109.872 249.794 109.719 249.994 109.606 250.042C109.516 250.19 109.414 250.345 109.333 250.491C109.306 250.541 109.351 250.525 109.349 250.533C109.333 250.653 109.235 250.68 109.213 250.71C108.976 251.037 108.845 251.343 108.597 251.641C108.589 251.652 108.517 251.633 108.506 251.747C108.505 251.755 108.6 251.665 108.506 251.819C108.412 251.973 108.262 252.282 108.101 252.477C108.062 252.524 107.931 252.624 107.903 252.752C107.9 252.769 107.926 252.765 107.923 252.791C107.913 252.875 107.83 252.873 107.833 252.981C107.837 253.09 107.775 253.273 107.605 253.465C107.6 253.471 107.52 253.491 107.478 253.559C107.411 253.668 107.325 253.827 107.254 253.939C107.22 253.993 107.212 253.94 107.206 253.949C106.961 254.3 106.826 254.574 106.593 254.969C106.551 255.041 106.382 255.22 106.327 255.377C106.267 255.55 106.511 255.487 106.258 255.812C106.156 255.944 105.859 256.004 105.796 256.316C105.465 256.789 105.23 257.271 104.888 257.739C104.873 257.76 104.777 257.797 104.746 257.849C104.698 257.927 104.696 257.984 104.663 258.04C104.526 258.274 104.373 258.472 104.236 258.695C104.185 258.78 104.228 258.766 104.166 258.868C104.105 258.969 104.03 259.015 103.96 259.161C103.907 259.271 103.91 259.416 103.832 259.557C103.763 259.52 103.705 259.615 103.583 259.77C103.559 259.8 103.558 259.751 103.546 259.764C103.495 259.818 103.478 259.887 103.429 259.938C103.416 259.95 103.393 259.936 103.382 259.946C103.287 260.023 103.235 260.218 103.226 260.252C103.193 260.38 103.132 260.412 103.093 260.502C103.055 260.592 103.149 260.48 103.096 260.581C102.988 260.79 102.824 261.043 102.698 261.246C102.647 261.326 102.652 261.252 102.644 261.263C102.531 261.425 102.457 261.614 102.339 261.668C102.422 261.881 102.261 261.759 102.142 262.016C102.133 262.037 102.192 262.107 102.248 262.042C102.304 261.977 102.349 261.853 102.429 261.764C102.448 261.743 102.602 261.651 102.618 261.635C102.742 261.511 102.645 261.421 102.644 261.409C102.633 261.281 102.811 261.163 102.844 261.122C102.993 260.938 103.084 260.759 103.206 260.603C103.286 260.5 103.364 260.535 103.416 260.448C103.588 260.159 103.55 259.996 103.806 259.783C103.861 259.737 103.904 259.844 103.971 259.599C103.976 259.583 104.015 259.395 104.107 259.329C104.118 259.321 104.141 259.335 104.152 259.322C104.227 259.232 104.249 259.155 104.326 259.053C104.402 258.952 104.496 258.832 104.565 258.705C104.606 258.628 104.623 258.507 104.635 258.465C104.667 258.347 104.784 258.271 104.786 258.187C104.788 258.101 104.656 258.188 104.735 258.01C104.798 258.041 104.868 258.066 104.934 258.094C105.157 257.736 105.359 257.372 105.587 257.016C105.615 256.972 105.619 257.037 105.65 256.991C105.782 256.793 105.869 256.603 106.009 256.401C106.118 256.244 106.263 256.089 106.378 255.925C106.374 255.78 106.555 255.544 106.663 255.358C106.701 255.293 106.68 255.286 106.703 255.237C106.788 255.052 106.798 255.171 106.837 255.13C107.004 254.954 106.879 254.851 107.031 254.616C107.039 254.604 107.208 254.496 107.226 254.478C107.34 254.363 107.215 254.44 107.262 254.353C107.349 254.193 107.399 254.076 107.533 253.909C107.573 253.861 107.697 253.763 107.726 253.639C107.73 253.623 107.702 253.615 107.707 253.604C107.806 253.394 107.885 253.436 107.981 253.341C108.077 253.245 108.133 253.04 108.14 252.995C108.159 252.879 108.079 253.055 108.072 253.058C107.99 253.087 108.077 252.967 108.134 252.868C108.069 252.808 108.158 252.676 108.193 252.766C108.197 252.776 108.143 252.847 108.134 252.868C108.26 252.83 108.362 252.688 108.397 252.482C108.413 252.386 108.33 252.434 108.49 252.211C108.562 252.11 108.588 252.183 108.66 252.098C108.825 251.906 108.951 251.601 109.097 251.387C109.149 251.309 109.129 251.404 109.166 251.351C109.264 251.212 109.323 251.072 109.425 250.934C109.434 250.922 109.443 250.972 109.472 250.927C109.69 250.589 109.858 250.28 110.081 249.924C110.189 249.752 110.399 249.454 110.508 249.274C110.697 248.962 110.894 248.555 111.07 248.298C111.185 248.13 111.19 248.186 111.257 248.125C111.385 248.007 111.474 247.712 111.485 247.671C111.485 247.67 111.385 247.814 111.42 247.725C111.417 247.66 111.484 247.673 111.485 247.671C111.492 247.645 111.671 247.345 111.714 247.29C111.737 247.26 111.754 247.295 111.765 247.279C112.039 246.899 112.295 246.507 112.535 246.098C112.539 246.091 112.501 246.082 112.511 246.065C112.643 245.824 112.775 245.699 112.918 245.522C113.061 245.345 113.149 245.188 113.167 245.041C113.265 244.901 113.371 244.679 113.432 244.551C113.493 244.422 113.564 244.444 113.572 244.434C113.816 244.131 113.901 243.92 114.109 243.577C114.208 243.414 114.418 243.099 114.535 242.928C114.627 242.794 114.666 242.701 114.755 242.58C114.767 242.563 114.783 242.598 114.787 242.593C114.909 242.471 114.8 242.498 114.807 242.461C114.831 242.328 114.85 242.248 114.984 242.079C115.015 242.04 115.187 241.977 115.24 241.904C115.31 241.809 115.253 241.825 115.326 241.726C115.333 241.718 115.352 241.733 115.392 241.668C115.576 241.367 115.768 241.034 115.966 240.726C115.992 240.683 115.991 240.759 116.031 240.698C116.215 240.413 116.412 240.098 116.573 239.808C116.612 239.737 116.562 239.766 116.564 239.746C116.58 239.628 116.723 239.536 116.738 239.516C117.089 239.022 117.281 238.595 117.636 238.09C117.655 238.062 117.858 237.885 117.864 237.752C117.864 237.743 117.868 237.611 117.961 237.55C117.966 237.546 117.958 237.625 118.021 237.518C118.084 237.411 118.21 237.254 118.269 237.09C118.287 237.038 118.298 236.894 118.43 236.786C118.438 236.779 118.673 236.633 118.65 236.514C118.646 236.494 118.563 236.46 118.704 236.321C118.731 236.295 118.712 236.362 118.774 236.287C118.869 236.171 118.954 235.993 119.084 235.859C119.107 235.836 119.23 235.754 119.249 235.638C119.252 235.619 119.21 235.631 119.237 235.581C119.369 235.342 119.538 235.111 119.668 234.866C119.714 234.779 119.647 234.796 119.691 234.703C119.734 234.609 119.834 234.429 119.909 234.35C119.984 234.271 119.987 234.41 120.077 234.278C120.47 233.703 120.8 233.095 121.165 232.504C121.219 232.416 121.197 232.503 121.278 232.374C121.578 231.901 122.115 231.096 122.325 230.654C122.494 230.3 122.203 230.696 122.345 230.434C122.414 230.307 122.572 230.223 122.593 230.195C122.797 229.924 122.889 229.703 123.062 229.452C123.098 229.4 123.095 229.471 123.125 229.427C123.228 229.275 123.317 229.104 123.413 228.958C123.456 228.892 123.471 228.919 123.508 228.856C123.596 228.708 123.667 228.572 123.735 228.416C123.742 228.402 123.658 228.471 123.725 228.363C123.833 228.186 123.949 227.956 124.098 227.768C124.142 227.713 124.196 227.744 124.241 227.592C124.25 227.56 124.165 227.555 124.314 227.44C124.339 227.42 124.571 227.216 124.601 227.062C124.609 227.022 124.609 226.906 124.663 226.839C124.67 226.83 124.674 226.887 124.714 226.829C124.856 226.625 124.991 226.403 125.136 226.193C125.174 226.137 125.15 226.242 125.207 226.158C125.363 225.926 125.541 225.627 125.677 225.39C125.727 225.303 125.665 225.347 125.667 225.339C125.686 225.212 125.781 225.19 125.806 225.159C125.955 224.966 126.026 224.793 126.153 224.608C126.188 224.557 126.192 224.611 126.201 224.602C126.293 224.51 126.193 224.559 126.23 224.487C126.335 224.286 126.472 224.074 126.597 223.883C126.643 223.812 126.625 223.913 126.666 223.849C126.909 223.475 127.154 223.081 127.368 222.701C127.408 222.63 127.356 222.658 127.359 222.64C127.382 222.515 127.528 222.403 127.555 222.373C127.674 222.235 127.69 222.161 127.779 222.029C128.214 221.383 128.712 220.56 129.095 219.932C129.594 219.114 129.967 218.469 130.46 217.7C130.491 217.651 130.493 217.721 130.52 217.68C130.872 217.138 131.198 216.591 131.553 216.049C131.582 216.004 131.573 216.089 131.62 216.018C131.718 215.873 131.835 215.684 131.919 215.528C131.96 215.452 131.872 215.533 131.914 215.457C132.011 215.28 132.124 215.095 132.24 214.922C132.289 214.849 132.25 214.982 132.312 214.885C132.732 214.225 133.147 213.577 133.527 212.882C133.553 212.834 133.514 212.753 133.587 212.663C133.61 212.667 133.631 212.681 133.652 212.69C134.27 211.733 134.848 210.764 135.454 209.795C135.479 209.754 135.469 209.846 135.519 209.767C135.806 209.31 136.095 208.872 136.355 208.384C136.38 208.335 136.305 208.321 136.4 208.19C136.417 208.167 136.555 207.966 136.601 207.921C136.608 207.915 136.612 207.971 136.655 207.905C136.902 207.522 137.15 207.114 137.375 206.719C137.411 206.655 137.339 206.702 137.365 206.656C137.546 206.333 137.784 206.006 137.945 205.689C138.053 205.477 137.954 205.518 137.97 205.379C137.972 205.36 138.049 205.235 138.024 205.21C137.959 205.146 137.839 205.154 137.775 205.079C137.761 205.063 137.884 204.908 137.78 204.981C137.773 204.986 137.683 205.098 137.651 205.119C137.628 205.133 137.621 205.077 137.582 205.111C137.543 205.145 137.539 205.208 137.48 205.269C137.421 205.329 137.406 205.277 137.314 205.414ZM113.707 243.973C113.747 243.845 113.864 243.895 113.763 243.999C113.758 244.004 113.704 243.98 113.707 243.973ZM105.278 257.324C105.322 257.15 105.453 257.095 105.425 257.219C105.397 257.344 105.264 257.377 105.278 257.324ZM104.301 258.8C104.37 258.608 104.537 258.676 104.393 258.837C104.385 258.847 104.297 258.811 104.301 258.8ZM137.644 205.865C137.644 205.862 137.699 205.772 137.701 205.771C137.765 205.744 137.655 205.925 137.644 205.865ZM103.328 260.262C103.341 260.196 103.46 260.059 103.444 260.141C103.431 260.206 103.312 260.343 103.328 260.262ZM117.22 238.141C117.22 238.139 117.259 238.074 117.267 238.081C117.293 238.103 117.229 238.187 117.22 238.141ZM101.737 262.786C101.966 262.409 101.984 262.105 101.742 262.52C101.699 262.595 101.882 262.386 101.834 262.487C101.747 262.671 101.597 262.736 101.529 262.937C101.516 262.973 101.724 262.807 101.737 262.785C101.737 262.785 101.737 262.785 101.737 262.786ZM113.619 243.83C113.619 243.826 113.674 243.737 113.676 243.736C113.74 243.709 113.63 243.889 113.619 243.83ZM119.507 234.364C119.507 234.357 119.633 234.15 119.64 234.145C119.763 234.072 119.507 234.492 119.507 234.364ZM109.783 249.749C109.689 249.825 109.612 249.938 109.606 250.042C109.664 249.944 109.725 249.847 109.783 249.749Z" fill="#F6F6F1"/>
<path d="M81.1345 219.335C80.9211 219.654 80.6632 220.085 80.4734 220.417C80.4138 220.521 80.4649 220.481 80.4247 220.554C80.3459 220.695 80.2565 220.816 80.1801 220.957C80.1549 221.004 80.2198 220.967 80.1927 221.015C80.0438 221.281 79.883 221.519 79.7252 221.784C78.9482 223.088 78.1648 224.357 77.3602 225.665C77.0949 226.096 76.794 226.634 76.5035 227.069C76.4696 227.12 76.4628 227.073 76.4545 227.081C76.3244 227.214 76.4095 227.196 76.3531 227.302C76.1292 227.718 75.8519 228.164 75.5997 228.542C75.4924 228.703 75.5437 228.507 75.4691 228.69C75.4639 228.702 75.5178 228.678 75.4925 228.725C75.4351 228.831 75.3087 229.021 75.2612 229.101C75.1699 229.256 75.1538 229.281 75.0636 229.425C74.9406 229.622 74.8073 229.864 74.6682 230.071C74.6385 230.115 74.6475 230.037 74.5975 230.106C74.5474 230.175 74.4302 230.366 74.3966 230.435C74.363 230.503 74.4025 230.49 74.4005 230.504C74.3851 230.625 74.1867 230.807 74.1674 230.834C73.8175 231.334 73.5733 231.798 73.2684 232.282C73.0369 232.649 72.7783 233.035 72.5597 233.386C72.2994 233.803 72.0925 234.166 71.8351 234.569C71.808 234.612 71.806 234.541 71.7728 234.592C71.42 235.144 71.0772 235.697 70.7524 236.263C70.7198 236.32 70.7941 236.267 70.7634 236.325C70.5744 236.678 70.2952 237.25 70.0407 237.371C69.9013 237.603 69.7312 237.885 69.6279 238.106C69.5612 238.249 69.6741 238.141 69.5582 238.295C69.532 238.329 69.534 238.264 69.497 238.317C69.341 238.542 69.191 238.801 69.0324 239.021C69.0001 239.065 68.983 239.037 68.9701 239.047C68.8637 239.135 68.8081 239.357 68.7872 239.4C68.6271 239.727 68.4733 239.943 68.2945 240.229C68.253 240.295 68.2685 240.196 68.2274 240.259C68.0144 240.586 67.8018 240.931 67.613 241.264C67.5711 241.338 67.6415 241.29 67.623 241.326C67.5408 241.486 67.4653 241.485 67.3855 241.638C67.3686 241.671 67.4041 241.669 67.4032 241.676C67.3905 241.79 67.2825 241.829 67.267 241.85C67.0695 242.124 67.0177 242.345 66.8355 242.615C66.8137 242.647 66.8293 242.553 66.7697 242.645C66.373 243.256 65.971 243.914 65.6117 244.539C65.5558 244.637 65.6218 244.584 65.6209 244.592C65.6047 244.717 65.5047 244.742 65.483 244.772C65.3129 245.005 65.22 245.265 65.0437 245.386C64.4178 246.435 63.7296 247.439 63.1486 248.505C63.1411 248.518 63.1856 248.513 63.1706 248.54C62.9901 248.864 62.9818 248.775 62.7948 248.946C62.7478 248.989 62.7161 249.191 62.7122 249.208C62.6984 249.271 62.7761 249.246 62.7689 249.265C62.7076 249.425 62.5759 249.31 62.4554 249.501C62.4518 249.507 62.4946 249.499 62.4872 249.517C62.4642 249.572 62.4223 249.614 62.4009 249.669C62.352 249.794 62.398 249.879 62.2492 250.023C62.2302 250.042 62.168 249.956 62.0644 250.13C62.0231 250.199 61.8319 250.499 61.7841 250.587C61.7364 250.675 61.7996 250.634 61.797 250.641C61.6892 250.89 61.7581 250.813 61.7388 250.96C61.7192 251.107 61.6147 250.997 61.5716 251.035C61.5285 251.072 61.4527 251.257 61.4371 251.305C61.4214 251.352 61.4706 251.312 61.4534 251.352C61.3389 251.617 61.325 251.419 61.2551 251.486C61.0903 251.644 61.0906 251.848 60.9916 252.026C60.9648 252.074 60.9676 252.022 60.9396 252.063C60.829 252.222 60.7958 252.338 60.652 252.508C60.6285 252.536 60.4782 252.651 60.4575 252.775C60.4547 252.792 60.5024 252.767 60.4636 252.84C60.4057 252.95 60.2924 253.141 60.2141 253.248C60.1563 253.327 60.1782 253.208 60.1244 253.32C60.1005 253.37 60.1766 253.298 60.1299 253.39C60.0834 253.481 59.9432 253.702 59.8894 253.786C59.8357 253.869 59.836 253.805 59.8298 253.811C59.7928 253.845 59.6774 253.997 59.6685 254.012C59.2124 254.728 58.8435 255.422 58.3868 256.111C58.351 256.165 58.3437 256.11 58.338 256.118C58.2069 256.298 58.3808 256.2 58.3251 256.349C58.2755 256.291 58.2378 256.376 58.1477 256.504C58.1042 256.566 58.1023 256.516 58.0962 256.52C58.0005 256.592 58.0057 256.687 58.0045 256.71C58.0002 256.795 57.9157 256.837 57.9124 256.895C57.9089 256.952 58.0052 256.876 57.9248 257.002C57.8803 257.024 57.8822 256.894 57.8122 256.984C57.5478 257.326 57.1653 258.033 56.9858 258.329C56.8066 258.624 56.7432 258.716 56.644 258.891C56.4649 259.207 56.4931 259.068 56.3535 259.246C56.2134 259.425 56.377 259.398 56.3823 259.44C56.3878 259.481 56.346 259.496 56.3373 259.538C56.3286 259.579 56.3896 259.516 56.3447 259.598C56.2997 259.679 56.1239 259.87 56.0827 259.883C55.9956 259.91 56.0042 259.78 55.8914 260C55.8849 260.013 55.937 259.991 55.9109 260.039C55.7026 260.417 55.4654 260.797 55.2548 261.173C55.2259 261.225 55.2848 261.199 55.2684 261.229C55.0969 261.545 55.1134 261.404 54.9511 261.534C55.0512 261.545 55.0401 261.667 54.8955 261.898C54.8086 262.036 54.7902 261.991 54.7102 262.066C54.6862 262.088 54.6474 262.201 54.6205 262.209C54.5322 262.235 54.5328 262.106 54.4062 262.358C54.4007 262.37 54.4497 262.354 54.4287 262.391C54.2933 262.631 54.222 262.625 54.0571 262.872C53.9278 263.066 53.7397 263.438 53.6037 263.666C53.6927 263.715 53.5395 263.915 53.4259 263.964C53.3366 264.111 53.2341 264.266 53.1536 264.412C53.1259 264.463 53.1709 264.446 53.1697 264.454C53.1529 264.575 53.0553 264.602 53.0332 264.632C52.7966 264.959 52.6654 265.264 52.4178 265.563C52.409 265.573 52.3374 265.554 52.3263 265.669C52.3258 265.676 52.4206 265.586 52.3264 265.74C52.2321 265.895 52.0824 266.204 51.9209 266.399C51.8818 266.446 51.7514 266.545 51.7236 266.674C51.72 266.691 51.7467 266.686 51.7436 266.712C51.7331 266.797 51.6504 266.794 51.6537 266.903C51.657 267.011 51.5955 267.194 51.4252 267.386C51.4198 267.392 51.34 267.413 51.2983 267.481C51.2318 267.589 51.1456 267.748 51.0746 267.86C51.0405 267.914 51.0324 267.861 51.026 267.87C50.7816 268.221 50.6461 268.495 50.4136 268.89C50.371 268.962 50.2019 269.141 50.1474 269.299C50.0875 269.472 50.3312 269.409 50.0779 269.734C49.9758 269.865 49.679 269.926 49.6166 270.238C49.2856 270.711 49.0506 271.193 48.7086 271.661C48.6933 271.682 48.5978 271.719 48.5659 271.771C48.5187 271.848 48.5163 271.906 48.4834 271.962C48.346 272.196 48.193 272.393 48.0567 272.617C48.0049 272.701 48.0484 272.688 47.9867 272.789C47.9249 272.89 47.8499 272.936 47.7803 273.082C47.7278 273.192 47.7305 273.337 47.6526 273.478C47.583 273.442 47.5254 273.536 47.4033 273.691C47.3797 273.721 47.3782 273.672 47.3659 273.686C47.3153 273.74 47.2986 273.809 47.2488 273.859C47.2368 273.871 47.2137 273.858 47.2026 273.867C47.107 273.945 47.0555 274.14 47.0468 274.173C47.013 274.301 46.952 274.333 46.9136 274.423C46.8752 274.514 46.969 274.402 46.9167 274.503C46.8083 274.712 46.644 274.965 46.518 275.167C46.4676 275.248 46.472 275.174 46.464 275.185C46.3516 275.346 46.2778 275.535 46.1594 275.589C46.2425 275.803 46.0811 275.68 45.9625 275.938C45.9532 275.958 46.0119 276.028 46.068 275.963C46.1241 275.898 46.1698 275.774 46.2495 275.685C46.2683 275.664 46.4226 275.572 46.4384 275.556C46.5622 275.432 46.465 275.342 46.4638 275.331C46.4532 275.203 46.6318 275.084 46.6644 275.044C46.8134 274.859 46.9046 274.68 47.0263 274.524C47.1059 274.422 47.1847 274.457 47.2364 274.37C47.4083 274.08 47.3703 273.918 47.6264 273.704C47.6812 273.658 47.724 273.765 47.7918 273.52C47.796 273.505 47.8357 273.316 47.9272 273.25C47.9387 273.242 47.9615 273.257 47.9726 273.243C48.0469 273.153 48.0698 273.076 48.1459 272.975C48.2219 272.873 48.3159 272.753 48.385 272.626C48.4266 272.55 48.4433 272.428 48.455 272.386C48.4874 272.268 48.604 272.193 48.6062 272.108C48.6086 272.023 48.4764 272.109 48.5552 271.931C48.6186 271.963 48.6886 271.987 48.7547 272.016C48.9773 271.657 49.1792 271.294 49.4073 270.937C49.4356 270.893 49.4391 270.959 49.4703 270.912C49.6019 270.714 49.6894 270.525 49.8296 270.322C49.9383 270.165 50.0836 270.01 50.1982 269.847C50.1948 269.701 50.3755 269.465 50.4836 269.28C50.5215 269.215 50.5006 269.208 50.5232 269.159C50.6087 268.974 50.6186 269.092 50.6576 269.051C50.8246 268.876 50.6989 268.773 50.8513 268.538C50.8594 268.525 51.0287 268.418 51.0465 268.4C51.1606 268.284 51.0352 268.361 51.0827 268.274C51.1694 268.115 51.2191 267.997 51.3537 267.83C51.3931 267.782 51.5177 267.685 51.5467 267.561C51.5506 267.544 51.5219 267.537 51.5272 267.525C51.6267 267.315 51.7055 267.357 51.8014 267.262C51.8973 267.166 51.9536 266.961 51.9606 266.917C51.9795 266.8 51.8997 266.977 51.8928 266.979C51.8106 267.009 51.8976 266.888 51.9542 266.79C51.8888 266.729 51.9779 266.597 52.0132 266.688C52.0169 266.698 51.963 266.768 51.9542 266.79C52.08 266.751 52.1823 266.609 52.217 266.403C52.2332 266.307 52.1506 266.356 52.3102 266.133C52.3826 266.031 52.408 266.104 52.4804 266.02C52.6457 265.828 52.7717 265.522 52.9169 265.308C52.9696 265.23 52.9489 265.325 52.9859 265.273C53.0841 265.134 53.1431 264.993 53.2448 264.856C53.2541 264.843 53.2632 264.893 53.2919 264.849C53.5099 264.51 53.6781 264.201 53.9016 263.845C54.0096 263.673 54.2194 263.376 54.3283 263.196C54.5172 262.883 54.7138 262.477 54.8902 262.22C55.0051 262.052 55.0106 262.108 55.077 262.047C55.2052 261.929 55.2945 261.633 55.3051 261.593C55.3054 261.591 55.2053 261.735 55.24 261.647C55.2377 261.581 55.3039 261.594 55.3051 261.593C55.3122 261.566 55.4917 261.266 55.5343 261.211C55.5575 261.181 55.5739 261.216 55.5855 261.2C55.8592 260.821 56.1157 260.429 56.3552 260.02C56.3591 260.012 56.3214 260.003 56.3309 259.986C56.4633 259.745 56.5948 259.621 56.7379 259.443C56.881 259.266 56.969 259.109 56.9872 258.963C57.0848 258.822 57.1918 258.6 57.2526 258.472C57.3134 258.344 57.3842 258.365 57.392 258.355C57.6363 258.052 57.7209 257.841 57.9293 257.498C58.0282 257.335 58.2386 257.02 58.3553 256.85C58.4476 256.715 58.4858 256.623 58.575 256.501C58.587 256.485 58.603 256.519 58.6073 256.514C58.7289 256.393 58.6202 256.42 58.627 256.383C58.6512 256.25 58.6699 256.17 58.8045 256C58.8355 255.961 59.007 255.899 59.0607 255.826C59.1304 255.731 59.0728 255.747 59.1466 255.648C59.1529 255.639 59.1726 255.654 59.2122 255.589C59.396 255.289 59.5886 254.956 59.7859 254.647C59.8127 254.605 59.8117 254.68 59.8511 254.619C60.0358 254.335 60.2327 254.019 60.3932 253.73C60.4327 253.658 60.3823 253.687 60.3848 253.668C60.4008 253.55 60.5434 253.458 60.558 253.437C60.9096 252.943 61.1015 252.517 61.4562 252.011C61.4756 251.984 61.6783 251.806 61.684 251.673C61.6845 251.664 61.6883 251.532 61.781 251.471C61.7868 251.467 61.7783 251.546 61.8414 251.439C61.9045 251.332 62.0304 251.176 62.089 251.011C62.1076 250.959 62.1187 250.815 62.2498 250.708C62.2586 250.701 62.4936 250.555 62.4701 250.435C62.4661 250.416 62.3833 250.381 62.524 250.243C62.551 250.216 62.5322 250.283 62.5942 250.208C62.6892 250.093 62.7738 249.914 62.9042 249.781C62.9271 249.758 63.05 249.675 63.0692 249.559C63.0722 249.541 63.03 249.552 63.0578 249.502C63.1895 249.263 63.3582 249.032 63.4883 248.787C63.5345 248.7 63.4674 248.717 63.511 248.624C63.5546 248.531 63.6538 248.35 63.7292 248.271C63.8047 248.192 63.8068 248.332 63.8973 248.2C64.2907 247.624 64.6205 247.017 64.9854 246.425C65.0395 246.337 65.017 246.424 65.0984 246.296C65.3986 245.823 65.9357 245.018 66.1457 244.575C66.314 244.221 66.023 244.617 66.1656 244.355C66.2346 244.229 66.3922 244.144 66.4131 244.117C66.6175 243.845 66.7098 243.625 66.8824 243.373C66.918 243.321 66.9155 243.393 66.9455 243.348C67.0483 243.197 67.1372 243.025 67.2329 242.879C67.2759 242.813 67.2913 242.84 67.328 242.778C67.416 242.629 67.4877 242.494 67.5557 242.338C67.5619 242.323 67.4779 242.393 67.545 242.284C67.6535 242.108 67.7689 241.877 67.9178 241.69C67.9621 241.634 68.0166 241.665 68.0608 241.514C68.0702 241.482 67.9849 241.476 68.1341 241.361C68.1591 241.342 68.3914 241.137 68.4213 240.984C68.4292 240.943 68.4295 240.827 68.4829 240.76C68.4904 240.752 68.4942 240.809 68.5345 240.751C68.6759 240.547 68.8114 240.325 68.956 240.115C68.9947 240.059 68.9702 240.163 69.0269 240.079C69.1829 239.848 69.3609 239.548 69.4969 239.312C69.547 239.225 69.4856 239.268 69.4869 239.26C69.5064 239.133 69.6017 239.111 69.6259 239.08C69.7756 238.888 69.8468 238.714 69.9733 238.529C70.0081 238.478 70.0125 238.533 70.0216 238.524C70.1137 238.431 70.0132 238.48 70.0507 238.408C70.1556 238.207 70.2921 237.995 70.4175 237.804C70.4636 237.734 70.4455 237.834 70.4865 237.771C70.7298 237.397 70.9738 237.002 71.188 236.623C71.2283 236.551 71.176 236.579 71.1795 236.561C71.2026 236.436 71.3486 236.324 71.3749 236.294C71.4946 236.156 71.5101 236.083 71.5991 235.951C72.0346 235.304 72.5325 234.481 72.9153 233.853C73.4143 233.035 73.7868 232.391 74.2798 231.621C74.3111 231.573 74.3129 231.643 74.3403 231.601C74.6927 231.059 75.0188 230.512 75.3734 229.97C75.4024 229.926 75.3929 230.01 75.4406 229.94C75.5385 229.794 75.6549 229.606 75.7392 229.45C75.7804 229.374 75.6918 229.455 75.7338 229.379C75.8315 229.201 75.9448 229.016 76.0605 228.844C76.1098 228.77 76.0707 228.903 76.1323 228.806C76.5525 228.146 76.9676 227.499 77.3475 226.803C77.3736 226.756 77.3339 226.675 77.4078 226.585C77.4305 226.589 77.4514 226.603 77.4728 226.612C78.0902 225.654 78.6685 224.685 79.2738 223.716C79.2994 223.675 79.2895 223.768 79.3391 223.689C79.6262 223.231 79.915 222.794 80.1749 222.305C80.2008 222.256 80.1252 222.242 80.2204 222.111C80.2372 222.088 80.3749 221.888 80.4215 221.843C80.428 221.837 80.4327 221.892 80.4753 221.826C80.7222 221.444 80.97 221.036 81.1949 220.64C81.2311 220.576 81.1593 220.623 81.1849 220.578C81.3664 220.254 81.6041 219.927 81.7654 219.61C81.8733 219.398 81.7745 219.44 81.7903 219.301C81.7926 219.281 81.8697 219.156 81.8439 219.131C81.7792 219.067 81.6592 219.076 81.5948 219.001C81.5809 218.985 81.7042 218.83 81.6006 218.902C81.5934 218.907 81.5037 219.019 81.4709 219.04C81.4481 219.055 81.4412 218.998 81.4021 219.033C81.3631 219.067 81.3593 219.129 81.3006 219.19C81.2417 219.251 81.2265 219.198 81.1345 219.335ZM57.5269 257.895C57.5674 257.766 57.6838 257.817 57.5832 257.92C57.5782 257.925 57.5247 257.901 57.5269 257.895ZM49.0978 271.245C49.1419 271.072 49.273 271.016 49.245 271.141C49.217 271.265 49.0843 271.298 49.0978 271.245ZM48.1211 272.721C48.1904 272.529 48.3577 272.597 48.2135 272.759C48.2051 272.768 48.117 272.732 48.1211 272.721ZM81.4645 219.786C81.464 219.783 81.5189 219.693 81.5216 219.692C81.5853 219.666 81.4756 219.846 81.4645 219.786ZM47.1486 274.183C47.1614 274.118 47.2804 273.981 47.2645 274.062C47.2517 274.128 47.1326 274.265 47.1486 274.183ZM61.0405 252.063C61.04 252.06 61.0789 251.995 61.087 252.002C61.1131 252.025 61.0489 252.109 61.0405 252.063ZM45.5571 276.707C45.7863 276.33 45.8044 276.026 45.5627 276.441C45.5189 276.516 45.7021 276.307 45.6544 276.408C45.567 276.592 45.4173 276.657 45.349 276.858C45.3367 276.895 45.5443 276.729 45.5577 276.706C45.5575 276.707 45.5573 276.707 45.5571 276.707ZM57.4394 257.751C57.4394 257.748 57.4939 257.658 57.4966 257.657C57.5605 257.63 57.4508 257.811 57.4394 257.751ZM63.3269 248.286C63.327 248.279 63.4537 248.071 63.4607 248.066C63.5834 247.994 63.3274 248.413 63.3269 248.286ZM53.6037 263.671C53.509 263.746 53.4321 263.859 53.4262 263.963C53.4844 263.866 53.545 263.769 53.6037 263.671Z" fill="#F6F6F1"/>
</svg>
