<svg xmlns="http://www.w3.org/2000/svg" width="83" height="233" fill="none" viewBox="0 0 83 233"><mask id="a" fill="#fff"><path d="M36.7 205c-1.2-2.6.5-5 .5-7.5-1-.8-.3-1.6-.3-2.4-1.8-1.9 1.2-3.6-.6-5.4 0-1.2 1.2-2.5-.1-3.7-.2-.6 1.7-.9.7-1.6s-1.8-1.7-.2-2.4c.3-.1.5-.7.3-.9-1-1-.3-1.8-.3-2.7 0-.6.7-1.2-.1-2-.6-.5.3-1.2-.1-1.7s-.4-1-.8-1.4c-4-1-8.3-1-12-2.4-1-.8-2.7-.6-4-1q-.8-.9-2.3-1c-2.3-1.8-7.1-.8-9.6-2.5-1.1-.5-2.8-.6-4-1-1-1-3-.4-3.8-1.7.7-.7 1.3-1.8 3-1.4 1.8.4 3.7.4 5.4 1.4.8.6 2.5.2 3.4 1.1 1.8.6 4.1.8 6 1.1 1.1.2 1.6 1 2.7 1 5.5.6 10.6 3.1 16 3.2-1-.8-.2-1.7-.2-2.6-.9-.6-.7-1.3-.4-2s-.7-1.2-.5-1.9q.9-3.3.3-6.6c-1-1 .4-.7.3-1.4-1.7-2 1.4-3.7-1.4-5.6 0-2.1 1.8-4.5.3-6.6-1-1.4 0-2.7 0-4 0-.4-.9-.7-.5-1.2 2-1 1-3 0-4.5 0-.3.4-.8-.2-1-.8-.1-1-.8-1.8-.9s-1.7-.5-2.5-.1c-6 0-11.9-3.5-17.8-3.1q-1.2.3-2.2-.7-.9-.7 0-1.5c2.2-3.2 10.5 1.6 14.4.4 1.1.3 2.6 0 3.5 1 1.8.6 4.4.8 6 1.2l1.5-.5c-1-.7-.4-1.5-.5-2.3-.9-.5-.5-1-.4-1.7q.2-1.4.6-2.7c.4-.8-.7-1.6-.5-2.5.2-.6.7-1.2-.3-1.9.3-2.6 1-5.4 1.3-8-1.4-.8.3-1.8-.8-2.6-1.3-1.3 2-1.5.3-2.6.2-1.4-1.5-3.3.6-4.2q.2-.1.1-.7c-1.2-1.8.9-3.9-.8-5.8-1.6 0-2.6-1.5-4.1-1-1.2.5-2.2-.4-3.3-.8-1.4-.4-3-.3-4.2-1.3-3.3-.8-6.8-.7-10-2.3-1-.6-3 0-4.1-1.2l-7.6-1.4C-1 83.9 1.9 83 4 82.3c.8.3 2.4 0 3.4 1l4.5 1c2.2 1.7 6.5.8 8.8 2.5 2.6.8 5.7.4 8 2q3.5.5 6.8 1.2c.5-1.2.5-1.2.2-2.2-.5-.8.2-1.8.2-2.7-1.9-2 1.3-3.9-.5-5.9l.3-2.5c-1.8-1.5 1.8-6 0-7.6-.3-1.2 1-2.3 0-3.5-.6-.5 0-1 0-1.5s-.9-.8-.6-1.4c.2-1.4 1.2-3 .3-4.5-.7-1.3 1.2-3-.2-4.1 0-.7.5-1.4-.2-2q-.7-.7.3-1c1-.4.2-.9-.2-1.3l.2-1.5-1.7-1.6c-3.6-.3-2.4-2-5.4-.5-1.4-.3-3.4-.2-4.5-1.2-.2-.2-1-.3-1.4-.3-.6 0-1 .5-1.7.2a2 2 0 0 0-1.4 0 2 2 0 0 1-2-.3c-.8-.7-1.9-.5-2.8-.8-.8.6-2 .2-2.8 0-1.2-.4-1.8.3-3 0-.8-.2-2-.6-2.8 0-1.7-.4-4.2-.2-4.9-1.7-.2-.4.4-.6.8-.7.7-.5 1.9.2 1.9-.8l.5-.2c1.1.2 2.2.6 3.2 0 2.5.5 5 1.1 7.4.9 2.8.1 6.1 1.7 8.6 1l3.8.6c2.1-.7 4.7.6 7 .8 1-.4.5-1 .7-1.6-1.3-1.4.2-2.8 0-4.2-1.2-1.5 0-3.1 0-4.8-1-1-1.8-1.3-.5-2.2-.8-.8-.4-1.7-.3-2.6-1-.6-.4-1.2-.3-1.7 0-.6-1-1-.6-1.7q.3-.7.3-1.5c.1-.5-1-1-.5-1.4.5-.6-1-1.1-.5-1.7q.2-.7-.3-1.5c-.3-.6.2-1.3 0-2-1-1.8.2-3.4.3-5.3l-1.4-1 .5-2.7L30 6.5c1-2.2-1.4-4.8 1.9-6.4 1.8-.8 3.7 2.6 3.4 3.6-.9 1 .4 2 .2 3.2l-.3 1.5c1 .8.4 1.6.4 2.4l1.1 2.1c.4 1.4-1.2 3-.3 4.2.6.6 0 1 .3 1.5 1 1-.2 2.1.1 3.2 0 .7.8 1.5.4 2.2-.3.5.8.9.5 1.4l-.3 1.5c1.5.9-.3 2 1 3 .3 0 .1.7-.2.8-1.8.7-.1 1.4.5 2.2 0 .7-.6 1.9-.2 2.6.9 1.1 0 2 0 3 .4.5 1 .9.3 1.3-1.1.5 1.5 1.4-.8 2.2.4 1 2.5 1.5 1.8 2.7l9.5 1.7c1.3.2 2.8 0 3.8 1.1l3.8.7q1.5-.6 3 .4c.5.4 1.7.4.9-.3-1.8-2.5-1.2-4.5-.7-6.8 0-.6.6-1.1-.3-1.7-.2-1 .3-2 .3-3-1-.8-.4-1.6-.3-2.4 0-.6-.9-1-.5-1.7q.3-.9.3-1.8c-1.2-.5-.2-1.3-.7-1.9q-.4-.3-.4-.7c.5-.6-.7-1.1-.5-1.7q.4-1.3-.3-2.7c.6-.8-.8-1.8-.3-2.6q-1-1-.5-1.7c-1.4-1.2 0-2.5-.1-3.7-1.6-1.1-1.3-2.5-2.4-4.2l.2-.4c1.6 0 2.4-.7 3.5-1q1.5.6 2.5 1.6c-.5.7.6 1.4.4 2.1q-.6 2 .8 4c.4.3 0 1-.2 1.4-.2.6 1 1 .6 1.7l-.7 3.4 1.4 1.3c0 1-.9 2 .2 3.1.3.4-.4 1 .3 1.5s-.5 1.1.5 1.6c-.4.6-1.4 1.1-.5 1.9.7.6-.3 1.3.8 1.9.1 1-.8 2 0 3 .7 1-.3 2.1-.2 3.2 1.2.8.2 1.6.3 2.4.8 1 .4 2.3.2 3.3l1.9 1.7c2.5.7 5.8.6 8 1.8.3.2 1.1.5 1.4.4 1.5-.5 3 0 4.4.3 2.3 1.3 5 1.2 7.6 1.8.9.2 1.2 1 2.3 1 1.4.1 4.6 1 2.5-.9 2-.6 2.3-1 .6-2.4-.1-.8.4-1.7.3-2.4s-.8-1.1-.5-1.7c-1.5-1.1.6-2.4-1-3.4 1.5-.5 1-1.6 1.3-2.4L92 40.2c.7-1.4-1.2-2.9-.8-4.4.1-.7.6-1.4 0-2.3-.6-.7 0-1.4 0-2.2-1.5-1.1.2-2-.6-3.5l-.1-.1c1.2-1 .6-1.2-.5-2.3-.3-.6.6-1.2-.3-2-.6-.5.5-1-.5-1.6 0-1.5-1.6-2.9-1-4.4 0-.4-1.1-.8-.6-1.1.7-.5 1-1.2 2-1.5 1.8.8 1.8 2.3 3.1 3.3.2.4-.5 1 .3 1.4 1.5.8.3 1.9 1.4 2.6-.7 1.6.7 3 0 4.7l1.4 1-.5 2.6c1.5 1.2-.2 2.1.3 3.2q.9 1.1.3 2.2c.2 1.2 1.6 2.2 1 3.4-.3.5 1 1 .5 1.7-.1 1-1.1 3.1 0 3.9-.6.7.7 1.5.5 2.2 1.5 1.9-.4 4.2-.3 6.1.7.7 1.8 1.3 1.2 2.2 1.5 2 6 1.5 8.8 2.5.9.1 1.4-.5 2.4-.2 3 1 6 .7 9 1.1 1.3-.7 3 .6 4.1-.3l6.1 1.1 1.7-.7c1.3.3 3.9.6 4.4-.3q0-.4.7-.4c1 .1 2.2 1.6 1 1.7-1.6-.1-2.8.8-4.5.3q-4.7 1.5-10.3.8c-3.8.9-5.6-.6-9-.2-.8.3-2.1-.6-3.2 0L100 59c-.4.1-1.3.7-1.2 1 1.5 1.2-.6 2.7.3 3.9.9.6-.3 1.3.7 1.9.7 1.8-1.5 3.5.1 5.4-.2 1.1 0 2.4-1.4 3.1l2.1 1.9c0 1.3-1 2 0 3.2.6.4-.3 1 .3 1.4q.5.3 0 .6c-1 .6-.6 1.6 0 2.5l-.3 2.5c1 .9.2 1.6 0 2.4 0 .7 1 1.3.6 2l-.3 1.7c1.2 1 .3 1.8.3 2.7.8 2.2-.5 4.2.6 6.5l3.4.6c1 .3 1 1 1.7.6q1.2-.4 2 .2c1 1 2.4.7 3.6 1 1.3-.5 3.8-.2 4.7.9 1.2 0 2.4.6 3.7.3q1.5-.4 3.8.9.8.4 1.4.3c1.6-.5 10.2.7 5.5 2-1.3 0-3-.8-4-.1-.7-.3-1 .1-1.6.2-1.8-.4-4-.3-5.4-1.5-3.3 0-7-.7-10.5-1.3-2.2.8-2.4-.6-4.7-.9-2 1.3-3.3-1.6-4.3-.3 0 .5-.5 1 .5 1.4-.7 3 .2 5.7-.7 8.5q1.5 2 1 3.9c-.1.7-.8 1.4.2 2.2.4 1.7-1.5 3.6-.1 5.2.1 0 0 .5-.3.6-.9.2-.6.8-.7 1.3 1.4 1.4-.1 3.2-.1 4.7-.2.7 1 1.2.5 2-1.5 5.6-1.2 7 8 8.5 2.9-1 9.2 2 11.9 1.1 1.3.3 2.8 0 3.8 1.1l.7.2c.7-.8 2.3.3 3-.4 4.5-.7 10.3-1.2 13-3.7.4-.4.5-.9 1.5-.6l.3-.1c-.2-.9 1-1.2 1.2-2q-.2-.4.7-.6c2.2.6 1.4 2 1.2 3-2.4.5-2.2 3.2-4.3 3.2-2-.2-1.6 1.5-3 1q-1.6.8-3.5 1c-1.3.2-2 1.4-3.6.9-1.3-.2-1.9 1-3.4.4-4.7.3-10 0-15-1.1-.9-.3-1.3.3-2 .1-2.6-.7-6.1-.4-8-2-1.6-.4-2.5.3-3.7.7 1 .5.3 1.2 1.1 1.7 0 1 .1 2-.9 2.6.8.5.6 1 .3 1.5-.4.6 1 1 .6 1.7-.2.6-.6 1.3.1 2 .7 1.2-2 .7-.2 2.7q.6 3 0 5.7c.9.6.3 1.2.3 1.7-.2.5-1.6.9-.8 1.4q1 1.4.8 2.9c0 .5-.5 1 .1 1.5.8 1-.2 2.3-.2 3.3 1 1.3 3.3 1.5 5.2 1.2.7-.2 1.9.6 2.8 0l1.5.2q1.6.1 3-.3c.8-.3 1.6.4 2.2 0 .5-.3 1.2 0 1.7 0 1.3 0 2.6-.7 3.7-.3 1 1 .8.2 1.2-.1 1.3-1.1 3.8-.3 5.3-1q1.6-.4 3.4-.4c5.6.3 4.1-3.8 8.3-2.5.3 1-.3 2.2-.4 3.2-2.4.3-4.1 1.5-6.2 2.2q-1.4-.3-2.5.1l-7.6 1.3c-1 .1-1.8.4-2.9 0-1.9 0-3.8.5-5.7.6-.7.6-1.8-.2-2.4.2-.8.3-1.5 0-2.2 0-1-.3-1.8.3-2.8 0-.7-.3-1.2.4-2.1.1l-2.2-.4c-3 1.1.2.6-1.1 4.2 1 .9.6 1-.2 1.6 1.4 1.2-.8 2.4.8 3.7 0 1.8-1.3 3.6-.5 5.4.9 1.4-1 2-1 3.2 1.6 1 1.3 2.1 1 3.3-.2.6.8 1 .5 1.7s-.7 1.3.4 2c-.3.5.2 1.3-.8 1.8q-1 .4-.2 1.3c.6.5 0 1 .3 1.5 1.3.7 3.2.6 4.7 1 1.1-.6 2.4 0 3.6.1 2.5-.2 4.2-.8 7-.3l1-.7c1.5 0 2.7.7 3.7 0 1.8.6 3-.4 4.9-.2 4.5-.2 9.5-.7 13.3-2 2.8-1 6.8-1.2 8.6-3.2.4-.5 1.4-.5 1.6-1.2s-1-1-.6-1.7c-1.4-1.2.5-2.5-.7-3.8.9-.2 1.8.2 2.6.3l1.7 1.6c0 .7-.6 1.4.4 2.2l-.6 3c-1.2.3-.9 1.5-2.3 2q-3.9 1.3-7.5 3.1c-2.4 1-5.8.4-8 1.5q-.3.2-1 0c-1-.4-1.5.4-2.4.2-.9 0-1.4 1-2.6.5-1-.2-1.8.6-2.9 0l-2 .7q-1.7-.5-3.4 0c-1.7.3-3.5-.2-5.1.5l-1.1-.1c-1.4-.4-2.6.3-4 0-.6.5-1.7-.3-2.3 0-.6.4-1.5 0-2 .4-1.6 0-3.2-.3-4.6.1s-1.1 1.2.2 1.5c.2 2.9-1 5.8-1.3 8.8 4.3 3.5 0 3.4 1 4.4.9.7.2 1.3.2 2-1.6.5-.8 1.9-1.3 3-2-.3-2.3 1-3.8-.9 0-1.4 1-2.9.4-4.4-.6-.7 0-1.5 0-2.2-1.2-.6-.2-1.3-.7-2-1.6-1.3 1.7-2.3.5-3.5-1.8-1.8.5-3.6-1-5 .1-.5-.2-1 .4-1.2.2-.1.8-.1.3-.5-1-.5-1.7.4-2.8 0-1.7-.8-2.7.2-4.3-.3q-1.2.6-2.5 0c-.9-.2-1.2.4-2 .2q-1.2-.3-2.3-.1c-1 .3-2.2-.3-3.3-.3-.6 0-1.2.4-2 .1-.8-.2-1.2.5-2.1.2l-5.4-1c-1.7.7-1.7.7-3.3.5-1 1.1-.6 2.8-1 4.1.7.6.3 1.2.5 1.7.3.7-1.8.6-.5 1.4.3 1.2-1 2.4.2 3.7l-.4.3c-1.7 1.2.3 2.8-.3 4.2 0 .8-.6 1.4.4 2.2.2.2 0 .9-.2 1-1 .3-.9.9-1 1.4-2 .6.2 3.1-4.4 0-1.2-1.2 1.3-1.4.3-2.2-.7-1.8 1.5-3.5 0-5.4q-.1-1.2.4-2.5c.4-.7-.6-1.3-.5-2 0-1.7 1.4-3.4.3-5.1q-.4-.7.5-1.3c1.8-1.3-1.4-2.9-3.1-2-1-.2-2-.6-2.9 0-.9-.3-2-.2-2.8-.9s-2.2-.5-3.2-.7l-1.6.7-5.5-1-1.9 1.3c0 .1.7.4 1.1 1 0 2-1.4 4.2-.6 6.4.5.7-.1 1.4 0 2.2 0 .3.9.6.5.9-1.7 1.2-1 3-1.6 4.4-1.2.7-1 1.8-1.2 2.7a10 10 0 0 1-5 3.4l-2.2-.4c-2.7-2.3.6-1.8 1-3.2 1.9-.4 1.7-1.7 2-2.8.6-.2 1.8-.6 1.7-1-1-1-.2-1.7-.3-2.5-.8-1.4-.3-2.7 0-4 2-.6 0-1 .3-2 0-1.3.9-2.6.3-3.8-1.4-1.3 1-1.3.7-2.5-5.3-1-10.2-1-15.5-2.2-2.2-.2-4.4-1.2-6.7-.7l-7.5-1.3q-.5-1 0-1.3c1-.3.8-1 1.1-1.4.6-.3 1.3 0 1.9.1 1 .3 2-.4 3.2 0 5.8 1.5 11.6 1.6 17.4 2.6.8.2 1.7.6 2.4 0zm30-138.3c.2 1.7-1.2 3.2 0 5 .1.8-.4 1.9-.5 2.7-.4.6.6 1 .5 1.4 0 1.5-1 3-.4 4.5.8 1.2-.4 2.3 0 3.5 0 .7 1.6 1.7.3 2 0 1-1.1 2 .1 3.2l-.2 1.7c-.1.6.9 1.1.5 1.7-.3.6 0 1.2-.4 1.8s1 1 .6 1.7c2.6 1.5 6.2 1.8 9.3 2.3 1.6.2 3.2 1.1 4.8.4l7.6 1.3c.3.9 4 1.4 4.9 1.2-.1-1 1.5-.5 2.6-.4.4.1 1-.4.7-.5-1.2-.6 0-1.4-.7-2-.9-1.3.2-2.6.2-3.9-1-.6 0-.8.2-1.4.3-.4 0-1 .7-1.3.5-.1 0-.3 0-.5q-.3-1-1.3-1.9c-.7-1.4 2.3-.6-.5-2.7l.3-1.7h1.6q-.6-.5-.7-.8c.2-2-2.4-4.2-1.3-6.3.6-1.4-1.5-2.7-.9-4.1.6-1-.2-2.6 1.4-3.2.7-.3-1.2-1.3-1.2-1.5.1-2 1.2-3.7-.6-5.4l.1-2.3c-1.4-1.2.9-2.2-1.2-3.4l-5.5-1c-1.3 0-1.7-.9-2.7-1-2.2-.5-4.7-.5-6.5-1.6-4.3.2-8.7-1.5-13.1-1.7q-.3.5-.2 1c.8.7.5 1.4.4 2.1 0 .5-.3 1 0 1.3 1 .7-.4 1.5 1 2.1l-.8 4.5c.4.4.8.6 0 1-.3.1-.3.7-.4 1zm29.4 77-8.2-1.5c-1.6-1.5-4.5-.7-6.1-2-.3-.3-1.2-.5-1.4-.4-2.4.7-5.3-.7-7.9-.9l-.9.4c-.8-.7-.8-.7-3.5-1.1l-2.3.8c1.4 1.4 0 2.8 0 4.3 0 .6-1.3.7-.8 1.4l.9.9c.4.4.1 1 .9 1.4-1.2.2-1 1.3-1.2 2 .1 1 1 .8-.2 1.6.1.8 1.2 1.6-.2 2.2-.2 0-.4.5-.3.6.7.4.4 1 .8 1.4 1.3 1.2-.9 1.3-.3 2q.7 1.3-.2 1.9c-.9.5-.6 1.2-.8 1.8 1.2.9.3 1.8.3 2.7-.2.3.2.6.3 1 .4.6-.3 1.4.5 2.1v.7c-1.5.7-1 1.9-1 3 1 1-.1 2 0 3.1 1.5.5 3.2.3 4.3 1.4l1 .2c1.4-.5 3.4.3 4.3-.8l7.7 1.3 1.8-.7c1 .1 2 .7 3 .1l2.5.4c1 .2 1.8-.5 2.9 0a7 7 0 0 0 4.5 0l.6-3c.2-.7-1-1.1-.6-1.8q.3-.8.4-1.7c-1.2-1.9 0-3.7.3-5.4.2-.2 1-.2.3-.6-.5-.4 0-.8-.7-1.2-2-.9 0-1.2.8-1.4v-.5c-1.3-1.7-1-3.4-.6-5l-1.3-1.3c.3-.8 0-2 .7-2.6l2.2.1a5 5 0 0 1-1.7-2.2c-.7-.6.3-1.2-.8-1.9 1-.5 1-1.3 1-2zm1.4-9.9c-.6-.4-.4-1-.9-1.3-.6-.6 0-1-.3-1.5q-.5-.5-.5-1.2c0-1 1.4-1.3 1-2.4-1.1-1.3.7-2.5-.6-3.9 0-2.3 1.6-4.8.5-7.2q0-1 .3-2c.4-.7-.7-1.2-.5-2 .2-.6.6-1.3-.3-2.1.6-1.5 3.3-.3-.2-3.5 0-.8.4-1.5.3-2.3L78.2 101c-1-.1-2.1 0-2.7-1l-1 .4c-2.2-.2-5-1.2-7.1-1l-1 5.5c2.4 1.5 0 2.5 1.6 4l-.1.4c-1.3.2-1.7 3-.6 3.6-.1.8-.5 1.7-.4 2.5 1.3 1.4-.2 3 0 4.4-.1 1.4 2.2 3.5.3 4.5-1-.8-1-.3-2 0l1 1 1-.4c.7 1.2-2 1.1-.1 2.4-.5.5.7 1 .5 1.4-.2.5.1 1.2-.9 1.5s1.2 1.4.1 1.8c-.8.2-.7.7-.7.8l1.4 2c1.4.4 2.6.2 3.1 1l4.6 1c1.4-.8 3.4.2 5.1.3 2.2.6 4.9.3 6.5 1.7.2.2 1.2.3 1.5.2 1-.6 6.6.5 7.5 1.3 2 .7 1.2-.5.8-1.4l.3-2-1.3-.9.3-1.6zm-31.8 45.6-1.7.7c-.1 1.1-.1 1.1 1.2 1.6q.3 1.3-1 2.2c1.1.5 0 1.2.7 1.6.8.6 0 1.2.5 1.7 1 1.8-.5 3.6-.4 5.5l1.3 1.3c0 2.3-1.6 4.6-.4 7 .3.2-.6 1.5-.4 2 1.4 1.5-.3 2.6.4 4 2.4.3 4.8 1.4 7.3.9.5-.2 1.5.3 2.2.3h2c1.2 0 2.3.6 3.3 0l2.7.4c.8.2 1.4-.5 2.4 0 .3 0 1 .2 1.1.1.8-.8 2.3.3 3.1-.3.5-.3 1.5.4 2.1 0 1-.4 2.5.3 3.6.3 1.2-.6 1.2-.6 1.5-2-1-1-2.1-2-.5-2.7.3 0 .3-.6.3-.9 0-.8.7-1.5 0-2.4-.6-1 .2-1.8.1-2.8-1.2-1.1-.4-1.2 1-1.4.6-.6-.2-1.3-.3-2l.4-2.7c-1.1-.5-.2-1.3-.7-1.9q-1-1.2.3-2 .5-.3 0-.6c-.5-.3 0-.8-.6-1.2-.4-.3-1-.6-.9-1.3 1.3.2.6-1 1.7-1.2.6-1-1.6-1.7.5-2.5.4-.2.2-.8-.3-.9-1.5-.3-.4-1-2-1.9-1.6-.6-2.9.1-4.5-.3q-1.3-.4-2.5 0c-.5.2-1.4-.3-2.1 0-1.7.3-3.8-.6-5.6-.7-1 .7-2.4-.3-3.2 0-1.3.4-2.5-.1-3.7-.2-2.2.6-4.8-.6-7.1-.8-2.2 1-4.5 1-1.8 3m-2.2-84c-1.3-1-.5-1.4-.7-2.2-1-1.8.1-3.3.2-5 1-2.8-1.8-3.1-.4-6.6-1.8-1.5.9-2.9-.8-4.4l.4-.6.4-.2c-1.2-1.1-.1-2-.1-3 .6-1.8-.5-3.6 0-5.4-1-.7-.3-1.3-.3-2.1l-1.4-1c.2-1 0-1.7 1.1-2.1q.3-.2 0-.5c-1.2-1 0-2.3 0-3.5-1-.9-.4-1.8-.4-2.6-.4-.7-1-1.2-.4-1.7.4-.6-1-1.1-.5-1.7.3-.6-.4-1-1-1.5-2.3 0-21.6-4.8-20.3-2.8 1.8 1.5-1.1 2-.6 3.5 1 .9 2 1.8.5 2.5q-.4 0 0 .3c1 .9-.4 1.8.8 2.7.2.4-1.5.8-.9 1.3 1 1.2 0 2.4 0 3.5 1 2.1 1.8 4.8 0 6.6q-.6.1-.1.4c.7.5.3 1.1 1 1.6 2 1.2-1.7 1.3.3 2.6-1 5.4.3 10.9-1.3 16.3q1.7 1.2 4 1.5c1 0 1.1.7 2 .8.8.3 2.2.2 2.8.7.4.5.7.3 1.1.2 1.4-.2 1.5 1 4.1 1 2.6-.6 7 1.1 10.5 1.4m-.4 23.5c.7-1.1-.6-2-.3-3.2.2-2 1.5-4.3.4-6.4 0-1 .6-1.8 0-2.7-.6-.8.4-2 0-2.7-1.2-1.7.7-3.1-.7-4.9-4.2-2-9.7-2.2-14.4-3.2-1.2 0-1.5-1-2.7-1l-3-.5c-1-.2-1.7.5-2.9 0-.4-.1-.9.3-.6.7 1.5 1.3-.7 2.5.9 3.9v.2c-2.2 1.2 0 .9-.5 2.6 1.1 1.2.2 2.9 0 4.2-.3.5.7.9.6 1.4l-.4 2.2c-1.8.6-.5.9-.4 1.9-1.5.8.6 1.9.3 3-.1 1.6-1.1 3.2-.4 4.7 1.3 2.4-2.7 1.5.4 3.9-.3 1.1 0 2.4-1 3.2q-.9.4 0 1 1.2.8.7 2l1 .8 3.3.8c.7.8 1.8.6 2.7.9 1.3-.7 2.7 0 4 .2 2.3 1.6 8.2 1.6 11.4 2.5l1.3-.6.2-1.5c-2.2-1.8-1.2-1.4.4-2.6-1-1-.3-2.1 0-3.1 1.1-.3.7-1.2 1-1.8l-1.4-1.3q0-.7.3-1.5c.2-.6-1.3-1.4-.1-1.8.4 0 1 .4 1-.1zM62 138.4c-.8-1.5-2.9-.8-4-2-.2-.2-1.3-.4-1.5-.3-.9.5-1.9.2-2.8 0-1.5-.4-3.2-.1-4.2-1.3-2.6-.2-5.5-1.3-8-1.1-1 .6-1.4-.4-2-.5-.9 1.1-.6 2.8-1 4.4 1.7.4-1.3.6 0 1.5 2 1.2-.2 2.4 1.4 3.6-.2 2.2-2.1.4-.2 3.3 1.2 1.2-1.7 1.8-.7 2.9 1 .7-.4 1.5 1 2.1q-.4 1 .5 1.7c-.4 1.2 0 2.7-1 3.7-.6-.1-2.3-.6-1.7.2 3.5.7.3 2.8 2 4.2l-.9.4 1.3.6c.5 1-.5 2.2-.2 3.2 1.4 1.9-1 3.6 1 5.6 6.2 1.3 12 1.3 18.3 2.7 2.5-.8.8-2 .3-3.4 2-.8 0-3.2 2.4-4l-1.5-1.4c.3-2 1-3.8.2-5.8l.5-3-1.2-1c.4-.7 1.6-.5 2.4-.8-1.2-.6-1.3-1.6-1.8-2.4l1.5-.7c-1.6-1.3.3-1.5.4-2.5-.8-.6-.3-1.2-.5-1.7-.5-1-1.7-2-.8-2.8.9-.5 1.6-2.6.4-3.4zm-.8 66.8c.2-1 .2-2.5.6-3.4.3-.7-.5-1.2-.5-1.7q0-1 .3-2l.5-2.3c.2-.7-1-1.2-.5-2q.5-1.2-.7-2.6c-1.4-1.4 1.9-1.6.2-2.8l.2-2c-1.6-1.4.7-3-.3-4.4-.9-1 .5-1.8-.3-2.7q-1-1.4.7-2.3c.6-.9-2-1.3-2.6-.7l-3-.5c-1.2-.3-2 .3-3.3 0-1.9-.5-4.2-.9-6-1.1-1.4 1-7.9-2-5.3.8q0 .9-.4 1.8c-.3.6.6 1 .5 1.7 0 .8-.6 1.6.4 2.4-.2.4.1.9-.5 1-1.7.7 1.6 2-1 2.8l1.4 1.3-.3 2c1.4 1.5-.1 3 0 4.4 1.7 2.2-1.3 4 .4 6.1l-.4 2.8c2.1 2.2-2.4 1.8.6 3.6 2.4.2 4.8 1.4 7.1.8l3 .5c1 0 1.8-.4 3 0l2.6.4c.8.2 1.4-.4 2.4 0 1.6.2 2-.8 1.2-1.9"/></mask><path fill="#fc5b70" stroke="#282828" stroke-width=".7" d="M36.7 205c-1.2-2.6.5-5 .5-7.5-1-.8-.3-1.6-.3-2.4-1.8-1.9 1.2-3.6-.6-5.4 0-1.2 1.2-2.5-.1-3.7-.2-.6 1.7-.9.7-1.6s-1.8-1.7-.2-2.4c.3-.1.5-.7.3-.9-1-1-.3-1.8-.3-2.7 0-.6.7-1.2-.1-2-.6-.5.3-1.2-.1-1.7s-.4-1-.8-1.4c-4-1-8.3-1-12-2.4-1-.8-2.7-.6-4-1q-.8-.9-2.3-1c-2.3-1.8-7.1-.8-9.6-2.5-1.1-.5-2.8-.6-4-1-1-1-3-.4-3.8-1.7.7-.7 1.3-1.8 3-1.4 1.8.4 3.7.4 5.4 1.4.8.6 2.5.2 3.4 1.1 1.8.6 4.1.8 6 1.1 1.1.2 1.6 1 2.7 1 5.5.6 10.6 3.1 16 3.2-1-.8-.2-1.7-.2-2.6-.9-.6-.7-1.3-.4-2s-.7-1.2-.5-1.9q.9-3.3.3-6.6c-1-1 .4-.7.3-1.4-1.7-2 1.4-3.7-1.4-5.6 0-2.1 1.8-4.5.3-6.6-1-1.4 0-2.7 0-4 0-.4-.9-.7-.5-1.2 2-1 1-3 0-4.5 0-.3.4-.8-.2-1-.8-.1-1-.8-1.8-.9s-1.7-.5-2.5-.1c-6 0-11.9-3.5-17.8-3.1q-1.2.3-2.2-.7-.9-.7 0-1.5c2.2-3.2 10.5 1.6 14.4.4 1.1.3 2.6 0 3.5 1 1.8.6 4.4.8 6 1.2l1.5-.5c-1-.7-.4-1.5-.5-2.3-.9-.5-.5-1-.4-1.7q.2-1.4.6-2.7c.4-.8-.7-1.6-.5-2.5.2-.6.7-1.2-.3-1.9.3-2.6 1-5.4 1.3-8-1.4-.8.3-1.8-.8-2.6-1.3-1.3 2-1.5.3-2.6.2-1.4-1.5-3.3.6-4.2q.2-.1.1-.7c-1.2-1.8.9-3.9-.8-5.8-1.6 0-2.6-1.5-4.1-1-1.2.5-2.2-.4-3.3-.8-1.4-.4-3-.3-4.2-1.3-3.3-.8-6.8-.7-10-2.3-1-.6-3 0-4.1-1.2l-7.6-1.4C-1 83.9 1.9 83 4 82.3c.8.3 2.4 0 3.4 1l4.5 1c2.2 1.7 6.5.8 8.8 2.5 2.6.8 5.7.4 8 2q3.5.5 6.8 1.2c.5-1.2.5-1.2.2-2.2-.5-.8.2-1.8.2-2.7-1.9-2 1.3-3.9-.5-5.9l.3-2.5c-1.8-1.5 1.8-6 0-7.6-.3-1.2 1-2.3 0-3.5-.6-.5 0-1 0-1.5s-.9-.8-.6-1.4c.2-1.4 1.2-3 .3-4.5-.7-1.3 1.2-3-.2-4.1 0-.7.5-1.4-.2-2q-.7-.7.3-1c1-.4.2-.9-.2-1.3l.2-1.5-1.7-1.6c-3.6-.3-2.4-2-5.4-.5-1.4-.3-3.4-.2-4.5-1.2-.2-.2-1-.3-1.4-.3-.6 0-1 .5-1.7.2a2 2 0 0 0-1.4 0 2 2 0 0 1-2-.3c-.8-.7-1.9-.5-2.8-.8-.8.6-2 .2-2.8 0-1.2-.4-1.8.3-3 0-.8-.2-2-.6-2.8 0-1.7-.4-4.2-.2-4.9-1.7-.2-.4.4-.6.8-.7.7-.5 1.9.2 1.9-.8l.5-.2c1.1.2 2.2.6 3.2 0 2.5.5 5 1.1 7.4.9 2.8.1 6.1 1.7 8.6 1l3.8.6c2.1-.7 4.7.6 7 .8 1-.4.5-1 .7-1.6-1.3-1.4.2-2.8 0-4.2-1.2-1.5 0-3.1 0-4.8-1-1-1.8-1.3-.5-2.2-.8-.8-.4-1.7-.3-2.6-1-.6-.4-1.2-.3-1.7 0-.6-1-1-.6-1.7q.3-.7.3-1.5c.1-.5-1-1-.5-1.4.5-.6-1-1.1-.5-1.7q.2-.7-.3-1.5c-.3-.6.2-1.3 0-2-1-1.8.2-3.4.3-5.3l-1.4-1 .5-2.7L30 6.5c1-2.2-1.4-4.8 1.9-6.4 1.8-.8 3.7 2.6 3.4 3.6-.9 1 .4 2 .2 3.2l-.3 1.5c1 .8.4 1.6.4 2.4l1.1 2.1c.4 1.4-1.2 3-.3 4.2.6.6 0 1 .3 1.5 1 1-.2 2.1.1 3.2 0 .7.8 1.5.4 2.2-.3.5.8.9.5 1.4l-.3 1.5c1.5.9-.3 2 1 3 .3 0 .1.7-.2.8-1.8.7-.1 1.4.5 2.2 0 .7-.6 1.9-.2 2.6.9 1.1 0 2 0 3 .4.5 1 .9.3 1.3-1.1.5 1.5 1.4-.8 2.2.4 1 2.5 1.5 1.8 2.7l9.5 1.7c1.3.2 2.8 0 3.8 1.1l3.8.7q1.5-.6 3 .4c.5.4 1.7.4.9-.3-1.8-2.5-1.2-4.5-.7-6.8 0-.6.6-1.1-.3-1.7-.2-1 .3-2 .3-3-1-.8-.4-1.6-.3-2.4 0-.6-.9-1-.5-1.7q.3-.9.3-1.8c-1.2-.5-.2-1.3-.7-1.9q-.4-.3-.4-.7c.5-.6-.7-1.1-.5-1.7q.4-1.3-.3-2.7c.6-.8-.8-1.8-.3-2.6q-1-1-.5-1.7c-1.4-1.2 0-2.5-.1-3.7-1.6-1.1-1.3-2.5-2.4-4.2l.2-.4c1.6 0 2.4-.7 3.5-1q1.5.6 2.5 1.6c-.5.7.6 1.4.4 2.1q-.6 2 .8 4c.4.3 0 1-.2 1.4-.2.6 1 1 .6 1.7l-.7 3.4 1.4 1.3c0 1-.9 2 .2 3.1.3.4-.4 1 .3 1.5s-.5 1.1.5 1.6c-.4.6-1.4 1.1-.5 1.9.7.6-.3 1.3.8 1.9.1 1-.8 2 0 3 .7 1-.3 2.1-.2 3.2 1.2.8.2 1.6.3 2.4.8 1 .4 2.3.2 3.3l1.9 1.7c2.5.7 5.8.6 8 1.8.3.2 1.1.5 1.4.4 1.5-.5 3 0 4.4.3 2.3 1.3 5 1.2 7.6 1.8.9.2 1.2 1 2.3 1 1.4.1 4.6 1 2.5-.9 2-.6 2.3-1 .6-2.4-.1-.8.4-1.7.3-2.4s-.8-1.1-.5-1.7c-1.5-1.1.6-2.4-1-3.4 1.5-.5 1-1.6 1.3-2.4L92 40.2c.7-1.4-1.2-2.9-.8-4.4.1-.7.6-1.4 0-2.3-.6-.7 0-1.4 0-2.2-1.5-1.1.2-2-.6-3.5l-.1-.1c1.2-1 .6-1.2-.5-2.3-.3-.6.6-1.2-.3-2-.6-.5.5-1-.5-1.6 0-1.5-1.6-2.9-1-4.4 0-.4-1.1-.8-.6-1.1.7-.5 1-1.2 2-1.5 1.8.8 1.8 2.3 3.1 3.3.2.4-.5 1 .3 1.4 1.5.8.3 1.9 1.4 2.6-.7 1.6.7 3 0 4.7l1.4 1-.5 2.6c1.5 1.2-.2 2.1.3 3.2q.9 1.1.3 2.2c.2 1.2 1.6 2.2 1 3.4-.3.5 1 1 .5 1.7-.1 1-1.1 3.1 0 3.9-.6.7.7 1.5.5 2.2 1.5 1.9-.4 4.2-.3 6.1.7.7 1.8 1.3 1.2 2.2 1.5 2 6 1.5 8.8 2.5.9.1 1.4-.5 2.4-.2 3 1 6 .7 9 1.1 1.3-.7 3 .6 4.1-.3l6.1 1.1 1.7-.7c1.3.3 3.9.6 4.4-.3q0-.4.7-.4c1 .1 2.2 1.6 1 1.7-1.6-.1-2.8.8-4.5.3q-4.7 1.5-10.3.8c-3.8.9-5.6-.6-9-.2-.8.3-2.1-.6-3.2 0L100 59c-.4.1-1.3.7-1.2 1 1.5 1.2-.6 2.7.3 3.9.9.6-.3 1.3.7 1.9.7 1.8-1.5 3.5.1 5.4-.2 1.1 0 2.4-1.4 3.1l2.1 1.9c0 1.3-1 2 0 3.2.6.4-.3 1 .3 1.4q.5.3 0 .6c-1 .6-.6 1.6 0 2.5l-.3 2.5c1 .9.2 1.6 0 2.4 0 .7 1 1.3.6 2l-.3 1.7c1.2 1 .3 1.8.3 2.7.8 2.2-.5 4.2.6 6.5l3.4.6c1 .3 1 1 1.7.6q1.2-.4 2 .2c1 1 2.4.7 3.6 1 1.3-.5 3.8-.2 4.7.9 1.2 0 2.4.6 3.7.3q1.5-.4 3.8.9.8.4 1.4.3c1.6-.5 10.2.7 5.5 2-1.3 0-3-.8-4-.1-.7-.3-1 .1-1.6.2-1.8-.4-4-.3-5.4-1.5-3.3 0-7-.7-10.5-1.3-2.2.8-2.4-.6-4.7-.9-2 1.3-3.3-1.6-4.3-.3 0 .5-.5 1 .5 1.4-.7 3 .2 5.7-.7 8.5q1.5 2 1 3.9c-.1.7-.8 1.4.2 2.2.4 1.7-1.5 3.6-.1 5.2.1 0 0 .5-.3.6-.9.2-.6.8-.7 1.3 1.4 1.4-.1 3.2-.1 4.7-.2.7 1 1.2.5 2-1.5 5.6-1.2 7 8 8.5 2.9-1 9.2 2 11.9 1.1 1.3.3 2.8 0 3.8 1.1l.7.2c.7-.8 2.3.3 3-.4 4.5-.7 10.3-1.2 13-3.7.4-.4.5-.9 1.5-.6l.3-.1c-.2-.9 1-1.2 1.2-2q-.2-.4.7-.6c2.2.6 1.4 2 1.2 3-2.4.5-2.2 3.2-4.3 3.2-2-.2-1.6 1.5-3 1q-1.6.8-3.5 1c-1.3.2-2 1.4-3.6.9-1.3-.2-1.9 1-3.4.4-4.7.3-10 0-15-1.1-.9-.3-1.3.3-2 .1-2.6-.7-6.1-.4-8-2-1.6-.4-2.5.3-3.7.7 1 .5.3 1.2 1.1 1.7 0 1 .1 2-.9 2.6.8.5.6 1 .3 1.5-.4.6 1 1 .6 1.7-.2.6-.6 1.3.1 2 .7 1.2-2 .7-.2 2.7q.6 3 0 5.7c.9.6.3 1.2.3 1.7-.2.5-1.6.9-.8 1.4q1 1.4.8 2.9c0 .5-.5 1 .1 1.5.8 1-.2 2.3-.2 3.3 1 1.3 3.3 1.5 5.2 1.2.7-.2 1.9.6 2.8 0l1.5.2q1.6.1 3-.3c.8-.3 1.6.4 2.2 0 .5-.3 1.2 0 1.7 0 1.3 0 2.6-.7 3.7-.3 1 1 .8.2 1.2-.1 1.3-1.1 3.8-.3 5.3-1q1.6-.4 3.4-.4c5.6.3 4.1-3.8 8.3-2.5.3 1-.3 2.2-.4 3.2-2.4.3-4.1 1.5-6.2 2.2q-1.4-.3-2.5.1l-7.6 1.3c-1 .1-1.8.4-2.9 0-1.9 0-3.8.5-5.7.6-.7.6-1.8-.2-2.4.2-.8.3-1.5 0-2.2 0-1-.3-1.8.3-2.8 0-.7-.3-1.2.4-2.1.1l-2.2-.4c-3 1.1.2.6-1.1 4.2 1 .9.6 1-.2 1.6 1.4 1.2-.8 2.4.8 3.7 0 1.8-1.3 3.6-.5 5.4.9 1.4-1 2-1 3.2 1.6 1 1.3 2.1 1 3.3-.2.6.8 1 .5 1.7s-.7 1.3.4 2c-.3.5.2 1.3-.8 1.8q-1 .4-.2 1.3c.6.5 0 1 .3 1.5 1.3.7 3.2.6 4.7 1 1.1-.6 2.4 0 3.6.1 2.5-.2 4.2-.8 7-.3l1-.7c1.5 0 2.7.7 3.7 0 1.8.6 3-.4 4.9-.2 4.5-.2 9.5-.7 13.3-2 2.8-1 6.8-1.2 8.6-3.2.4-.5 1.4-.5 1.6-1.2s-1-1-.6-1.7c-1.4-1.2.5-2.5-.7-3.8.9-.2 1.8.2 2.6.3l1.7 1.6c0 .7-.6 1.4.4 2.2l-.6 3c-1.2.3-.9 1.5-2.3 2q-3.9 1.3-7.5 3.1c-2.4 1-5.8.4-8 1.5q-.3.2-1 0c-1-.4-1.5.4-2.4.2-.9 0-1.4 1-2.6.5-1-.2-1.8.6-2.9 0l-2 .7q-1.7-.5-3.4 0c-1.7.3-3.5-.2-5.1.5l-1.1-.1c-1.4-.4-2.6.3-4 0-.6.5-1.7-.3-2.3 0-.6.4-1.5 0-2 .4-1.6 0-3.2-.3-4.6.1s-1.1 1.2.2 1.5c.2 2.9-1 5.8-1.3 8.8 4.3 3.5 0 3.4 1 4.4.9.7.2 1.3.2 2-1.6.5-.8 1.9-1.3 3-2-.3-2.3 1-3.8-.9 0-1.4 1-2.9.4-4.4-.6-.7 0-1.5 0-2.2-1.2-.6-.2-1.3-.7-2-1.6-1.3 1.7-2.3.5-3.5-1.8-1.8.5-3.6-1-5 .1-.5-.2-1 .4-1.2.2-.1.8-.1.3-.5-1-.5-1.7.4-2.8 0-1.7-.8-2.7.2-4.3-.3q-1.2.6-2.5 0c-.9-.2-1.2.4-2 .2q-1.2-.3-2.3-.1c-1 .3-2.2-.3-3.3-.3-.6 0-1.2.4-2 .1-.8-.2-1.2.5-2.1.2l-5.4-1c-1.7.7-1.7.7-3.3.5-1 1.1-.6 2.8-1 4.1.7.6.3 1.2.5 1.7.3.7-1.8.6-.5 1.4.3 1.2-1 2.4.2 3.7l-.4.3c-1.7 1.2.3 2.8-.3 4.2 0 .8-.6 1.4.4 2.2.2.2 0 .9-.2 1-1 .3-.9.9-1 1.4-2 .6.2 3.1-4.4 0-1.2-1.2 1.3-1.4.3-2.2-.7-1.8 1.5-3.5 0-5.4q-.1-1.2.4-2.5c.4-.7-.6-1.3-.5-2 0-1.7 1.4-3.4.3-5.1q-.4-.7.5-1.3c1.8-1.3-1.4-2.9-3.1-2-1-.2-2-.6-2.9 0-.9-.3-2-.2-2.8-.9s-2.2-.5-3.2-.7l-1.6.7-5.5-1-1.9 1.3c0 .1.7.4 1.1 1 0 2-1.4 4.2-.6 6.4.5.7-.1 1.4 0 2.2 0 .3.9.6.5.9-1.7 1.2-1 3-1.6 4.4-1.2.7-1 1.8-1.2 2.7a10 10 0 0 1-5 3.4l-2.2-.4c-2.7-2.3.6-1.8 1-3.2 1.9-.4 1.7-1.7 2-2.8.6-.2 1.8-.6 1.7-1-1-1-.2-1.7-.3-2.5-.8-1.4-.3-2.7 0-4 2-.6 0-1 .3-2 0-1.3.9-2.6.3-3.8-1.4-1.3 1-1.3.7-2.5-5.3-1-10.2-1-15.5-2.2-2.2-.2-4.4-1.2-6.7-.7l-7.5-1.3q-.5-1 0-1.3c1-.3.8-1 1.1-1.4.6-.3 1.3 0 1.9.1 1 .3 2-.4 3.2 0 5.8 1.5 11.6 1.6 17.4 2.6.8.2 1.7.6 2.4 0zm30-138.3c.2 1.7-1.2 3.2 0 5 .1.8-.4 1.9-.5 2.7-.4.6.6 1 .5 1.4 0 1.5-1 3-.4 4.5.8 1.2-.4 2.3 0 3.5 0 .7 1.6 1.7.3 2 0 1-1.1 2 .1 3.2l-.2 1.7c-.1.6.9 1.1.5 1.7-.3.6 0 1.2-.4 1.8s1 1 .6 1.7c2.6 1.5 6.2 1.8 9.3 2.3 1.6.2 3.2 1.1 4.8.4l7.6 1.3c.3.9 4 1.4 4.9 1.2-.1-1 1.5-.5 2.6-.4.4.1 1-.4.7-.5-1.2-.6 0-1.4-.7-2-.9-1.3.2-2.6.2-3.9-1-.6 0-.8.2-1.4.3-.4 0-1 .7-1.3.5-.1 0-.3 0-.5q-.3-1-1.3-1.9c-.7-1.4 2.3-.6-.5-2.7l.3-1.7h1.6q-.6-.5-.7-.8c.2-2-2.4-4.2-1.3-6.3.6-1.4-1.5-2.7-.9-4.1.6-1-.2-2.6 1.4-3.2.7-.3-1.2-1.3-1.2-1.5.1-2 1.2-3.7-.6-5.4l.1-2.3c-1.4-1.2.9-2.2-1.2-3.4l-5.5-1c-1.3 0-1.7-.9-2.7-1-2.2-.5-4.7-.5-6.5-1.6-4.3.2-8.7-1.5-13.1-1.7q-.3.5-.2 1c.8.7.5 1.4.4 2.1 0 .5-.3 1 0 1.3 1 .7-.4 1.5 1 2.1l-.8 4.5c.4.4.8.6 0 1-.3.1-.3.7-.4 1zm29.4 77-8.2-1.5c-1.6-1.5-4.5-.7-6.1-2-.3-.3-1.2-.5-1.4-.4-2.4.7-5.3-.7-7.9-.9l-.9.4c-.8-.7-.8-.7-3.5-1.1l-2.3.8c1.4 1.4 0 2.8 0 4.3 0 .6-1.3.7-.8 1.4l.9.9c.4.4.1 1 .9 1.4-1.2.2-1 1.3-1.2 2 .1 1 1 .8-.2 1.6.1.8 1.2 1.6-.2 2.2-.2 0-.4.5-.3.6.7.4.4 1 .8 1.4 1.3 1.2-.9 1.3-.3 2q.7 1.3-.2 1.9c-.9.5-.6 1.2-.8 1.8 1.2.9.3 1.8.3 2.7-.2.3.2.6.3 1 .4.6-.3 1.4.5 2.1v.7c-1.5.7-1 1.9-1 3 1 1-.1 2 0 3.1 1.5.5 3.2.3 4.3 1.4l1 .2c1.4-.5 3.4.3 4.3-.8l7.7 1.3 1.8-.7c1 .1 2 .7 3 .1l2.5.4c1 .2 1.8-.5 2.9 0a7 7 0 0 0 4.5 0l.6-3c.2-.7-1-1.1-.6-1.8q.3-.8.4-1.7c-1.2-1.9 0-3.7.3-5.4.2-.2 1-.2.3-.6-.5-.4 0-.8-.7-1.2-2-.9 0-1.2.8-1.4v-.5c-1.3-1.7-1-3.4-.6-5l-1.3-1.3c.3-.8 0-2 .7-2.6l2.2.1a5 5 0 0 1-1.7-2.2c-.7-.6.3-1.2-.8-1.9 1-.5 1-1.3 1-2zm1.4-9.9c-.6-.4-.4-1-.9-1.3-.6-.6 0-1-.3-1.5q-.5-.5-.5-1.2c0-1 1.4-1.3 1-2.4-1.1-1.3.7-2.5-.6-3.9 0-2.3 1.6-4.8.5-7.2q0-1 .3-2c.4-.7-.7-1.2-.5-2 .2-.6.6-1.3-.3-2.1.6-1.5 3.3-.3-.2-3.5 0-.8.4-1.5.3-2.3L78.2 101c-1-.1-2.1 0-2.7-1l-1 .4c-2.2-.2-5-1.2-7.1-1l-1 5.5c2.4 1.5 0 2.5 1.6 4l-.1.4c-1.3.2-1.7 3-.6 3.6-.1.8-.5 1.7-.4 2.5 1.3 1.4-.2 3 0 4.4-.1 1.4 2.2 3.5.3 4.5-1-.8-1-.3-2 0l1 1 1-.4c.7 1.2-2 1.1-.1 2.4-.5.5.7 1 .5 1.4-.2.5.1 1.2-.9 1.5s1.2 1.4.1 1.8c-.8.2-.7.7-.7.8l1.4 2c1.4.4 2.6.2 3.1 1l4.6 1c1.4-.8 3.4.2 5.1.3 2.2.6 4.9.3 6.5 1.7.2.2 1.2.3 1.5.2 1-.6 6.6.5 7.5 1.3 2 .7 1.2-.5.8-1.4l.3-2-1.3-.9.3-1.6zm-31.8 45.6-1.7.7c-.1 1.1-.1 1.1 1.2 1.6q.3 1.3-1 2.2c1.1.5 0 1.2.7 1.6.8.6 0 1.2.5 1.7 1 1.8-.5 3.6-.4 5.5l1.3 1.3c0 2.3-1.6 4.6-.4 7 .3.2-.6 1.5-.4 2 1.4 1.5-.3 2.6.4 4 2.4.3 4.8 1.4 7.3.9.5-.2 1.5.3 2.2.3h2c1.2 0 2.3.6 3.3 0l2.7.4c.8.2 1.4-.5 2.4 0 .3 0 1 .2 1.1.1.8-.8 2.3.3 3.1-.3.5-.3 1.5.4 2.1 0 1-.4 2.5.3 3.6.3 1.2-.6 1.2-.6 1.5-2-1-1-2.1-2-.5-2.7.3 0 .3-.6.3-.9 0-.8.7-1.5 0-2.4-.6-1 .2-1.8.1-2.8-1.2-1.1-.4-1.2 1-1.4.6-.6-.2-1.3-.3-2l.4-2.7c-1.1-.5-.2-1.3-.7-1.9q-1-1.2.3-2 .5-.3 0-.6c-.5-.3 0-.8-.6-1.2-.4-.3-1-.6-.9-1.3 1.3.2.6-1 1.7-1.2.6-1-1.6-1.7.5-2.5.4-.2.2-.8-.3-.9-1.5-.3-.4-1-2-1.9-1.6-.6-2.9.1-4.5-.3q-1.3-.4-2.5 0c-.5.2-1.4-.3-2.1 0-1.7.3-3.8-.6-5.6-.7-1 .7-2.4-.3-3.2 0-1.3.4-2.5-.1-3.7-.2-2.2.6-4.8-.6-7.1-.8-2.2 1-4.5 1-1.8 3Zm-2.2-84c-1.3-1-.5-1.4-.7-2.2-1-1.8.1-3.3.2-5 1-2.8-1.8-3.1-.4-6.6-1.8-1.5.9-2.9-.8-4.4l.4-.6.4-.2c-1.2-1.1-.1-2-.1-3 .6-1.8-.5-3.6 0-5.4-1-.7-.3-1.3-.3-2.1l-1.4-1c.2-1 0-1.7 1.1-2.1q.3-.2 0-.5c-1.2-1 0-2.3 0-3.5-1-.9-.4-1.8-.4-2.6-.4-.7-1-1.2-.4-1.7.4-.6-1-1.1-.5-1.7.3-.6-.4-1-1-1.5-2.3 0-21.6-4.8-20.3-2.8 1.8 1.5-1.1 2-.6 3.5 1 .9 2 1.8.5 2.5q-.4 0 0 .3c1 .9-.4 1.8.8 2.7.2.4-1.5.8-.9 1.3 1 1.2 0 2.4 0 3.5 1 2.1 1.8 4.8 0 6.6q-.6.1-.1.4c.7.5.3 1.1 1 1.6 2 1.2-1.7 1.3.3 2.6-1 5.4.3 10.9-1.3 16.3q1.7 1.2 4 1.5c1 0 1.1.7 2 .8.8.3 2.2.2 2.8.7.4.5.7.3 1.1.2 1.4-.2 1.5 1 4.1 1 2.6-.6 7 1.1 10.5 1.4Zm-.4 23.5c.7-1.1-.6-2-.3-3.2.2-2 1.5-4.3.4-6.4 0-1 .6-1.8 0-2.7-.6-.8.4-2 0-2.7-1.2-1.7.7-3.1-.7-4.9-4.2-2-9.7-2.2-14.4-3.2-1.2 0-1.5-1-2.7-1l-3-.5c-1-.2-1.7.5-2.9 0-.4-.1-.9.3-.6.7 1.5 1.3-.7 2.5.9 3.9v.2c-2.2 1.2 0 .9-.5 2.6 1.1 1.2.2 2.9 0 4.2-.3.5.7.9.6 1.4l-.4 2.2c-1.8.6-.5.9-.4 1.9-1.5.8.6 1.9.3 3-.1 1.6-1.1 3.2-.4 4.7 1.3 2.4-2.7 1.5.4 3.9-.3 1.1 0 2.4-1 3.2q-.9.4 0 1 1.2.8.7 2l1 .8 3.3.8c.7.8 1.8.6 2.7.9 1.3-.7 2.7 0 4 .2 2.3 1.6 8.2 1.6 11.4 2.5l1.3-.6.2-1.5c-2.2-1.8-1.2-1.4.4-2.6-1-1-.3-2.1 0-3.1 1.1-.3.7-1.2 1-1.8l-1.4-1.3q0-.7.3-1.5c.2-.6-1.3-1.4-.1-1.8.4 0 1 .4 1-.1zM62 138.4c-.8-1.5-2.9-.8-4-2-.2-.2-1.3-.4-1.5-.3-.9.5-1.9.2-2.8 0-1.5-.4-3.2-.1-4.2-1.3-2.6-.2-5.5-1.3-8-1.1-1 .6-1.4-.4-2-.5-.9 1.1-.6 2.8-1 4.4 1.7.4-1.3.6 0 1.5 2 1.2-.2 2.4 1.4 3.6-.2 2.2-2.1.4-.2 3.3 1.2 1.2-1.7 1.8-.7 2.9 1 .7-.4 1.5 1 2.1q-.4 1 .5 1.7c-.4 1.2 0 2.7-1 3.7-.6-.1-2.3-.6-1.7.2 3.5.7.3 2.8 2 4.2l-.9.4 1.3.6c.5 1-.5 2.2-.2 3.2 1.4 1.9-1 3.6 1 5.6 6.2 1.3 12 1.3 18.3 2.7 2.5-.8.8-2 .3-3.4 2-.8 0-3.2 2.4-4l-1.5-1.4c.3-2 1-3.8.2-5.8l.5-3-1.2-1c.4-.7 1.6-.5 2.4-.8-1.2-.6-1.3-1.6-1.8-2.4l1.5-.7c-1.6-1.3.3-1.5.4-2.5-.8-.6-.3-1.2-.5-1.7-.5-1-1.7-2-.8-2.8.9-.5 1.6-2.6.4-3.4zm-.8 66.8c.2-1 .2-2.5.6-3.4.3-.7-.5-1.2-.5-1.7q0-1 .3-2l.5-2.3c.2-.7-1-1.2-.5-2q.5-1.2-.7-2.6c-1.4-1.4 1.9-1.6.2-2.8l.2-2c-1.6-1.4.7-3-.3-4.4-.9-1 .5-1.8-.3-2.7q-1-1.4.7-2.3c.6-.9-2-1.3-2.6-.7l-3-.5c-1.2-.3-2 .3-3.3 0-1.9-.5-4.2-.9-6-1.1-1.4 1-7.9-2-5.3.8q0 .9-.4 1.8c-.3.6.6 1 .5 1.7 0 .8-.6 1.6.4 2.4-.2.4.1.9-.5 1-1.7.7 1.6 2-1 2.8l1.4 1.3-.3 2c1.4 1.5-.1 3 0 4.4 1.7 2.2-1.3 4 .4 6.1l-.4 2.8c2.1 2.2-2.4 1.8.6 3.6 2.4.2 4.8 1.4 7.1.8l3 .5c1 0 1.8-.4 3 0l2.6.4c.8.2 1.4-.4 2.4 0 1.6.2 2-.8 1.2-1.9Z" mask="url(#a)"/></svg>