<svg xmlns="http://www.w3.org/2000/svg" width="325" height="278" fill="none" viewBox="0 0 325 278"><path fill="#82c6dd" d="M136.8 130.2c-5.9-1.6-5.9-1.6-14.5-12.6 6.2 3 13.2 5.5 14.5 12.6m53.5-144.5c1-.8 4-.7 5.4 1.3 1.1 1.5 4 1.8 4.5 4 2.6 2.3 5.7 4.3 7.5 7.3q.6 0 .6.6c6.5 5.2 13.2 10 18.5 16.1.6 1.4 3.2 1.9 2.5 4 .3.6 2.8-.3 1.7 1.5 8.2 5.1 13.5 12.4 19.9 18.9 3.7 2 6.8 4.6 7.9 8.4q5.5 2.3 6.8 7.4c1 .2 2.2-.3 2.9.7 2 2.8 6 4.2 7 7.6 1.6 1.7 5.5 2.3 4 5.6 1 1 4 1.6 2.3 2.8-2 1.5-2.4-1.2-3.6-2-3-1-2.9-3.6-3.8-5.7-1.2-1.4-5.4.2-4.8-3.1-5-2-7.7-6-10.6-9.6l-2.2-2.4c-3-1.7-4.6-4.1-6.5-6.5-5.1.3-5-4-7.3-6-6-5.4-13.2-9.9-17.7-16.4-4 0-1.7-2.6-2.2-4q-2.6.2-3.4-1.9c-2.7-.8-4.8-2-4.8-4.8-1-2-5.3-2-4.8-5q-3.5-.5-3-3.4l-2.7-2c-3.4.2-3-2.6-4.6-3.9L198-6.2c-3-.7-4-3-5.7-4.7-1-1-4.3-1.7-2-3.4M76.7 179.8c4.6 2.6 9.6 4.9 10.3 10-4.5-2.6-8.7-5.5-10.3-10M63.4 168c-.6-.6-1.9-1.6 0-2.6 1.6-.8 2.6-.2 3.3.8l6.3 8.4c1.4 1 3 2.1 3.5 4-3.8.5-3-2.3-4.6-3.2-4.1-1.5-5.7-5-8.5-7.4M203-30.8c.4-1.5-.7-3.6 1.4-4.2 2.6-.9 2.3 1.7 3.3 2.7l3.4 3.7 5.2 4.8.5 2c5.2 2.7 7.4 7.6 11.8 10.9 4 0 1.1 4 4 4.6 4.8 3 9.3 6.3 10.2 11.8 5.2 0 5.3 4.8 9 6.3 1.6 2.4 6.7 2.6 5.8 6.5-3.2-.3-4.8-3.5-8.7-2.7-.7.2-1.8-.4-1.3-1.2.4-.6 1.6-.9 2.5-1.3-1.8-2.1-6.7-1.2-7-4.8-2 .1-2.5-1.1-3.2-2.2-.4-2.1-6-1.6-3.8-5.2-2-.3-4.1-.6-4-3l-1.6-1.5c-2.3-1.2-2.6-4.5-6.5-4l.3-1.9c-1.3-.2-3 .1-2.8-1.6-2-2.7-5.9-4.5-6-8.1l-1-.9-3.9-4c-2.1-.9-2.8-2.7-4.1-4-2.2 0-4.5.2-3.6-2.7m-98.6 10.1c-1-.5-2.3-1.2-1.5-2.3.9-1.4 2.3-.2 3.2 0 1.8.7-.1 1.2-.5 1.8l1.5 1.7c.8-.6 1.6-1.9 2.8-1.3s-.3 1.4-.3 2.2c.7 2.6 5.6 1.4 5.8 4.4.9 2.8 4.7 4.2 5 7.3l8 4.3 3 5.6c-2.7-1-3.8-2-4.4-3.4-3.1-1.5-6-3-7-6.2-1.8-1.3-4.2-2.3-5-4.4-5-2.2-7.8-6-10.6-9.7M1.8.5C.5-1.2 1.1-4-2-4.6c-.7-.7-1.6-1.5 0-2 .7-.3 2.5-1.7 2.5.5l8.2 9.3c3.7 1.7 5.1 4.8 8.1 8.8-5.1-2.5-8.8-4-9-8.2A8 8 0 0 1 1.9.5M188 57.8q-2-.9-2.2-2.8c-1-1.1-3.6-1.6-2.5-3.7.4-.8 1.5-.5 2.4-.3 2.7.5 1.3 2.1 1.2 3.5 1.6.6 6.8-2.7 4.5 2.5 4.1.9 2.4 5.5 6.2 6.6 2 1.4 4.2 2.8 2.7 5.8-1-2.4-3.8-3.3-5.4-5.2-1.9-2.4-6-3.3-7-6.4M97 201c.1-.8 1.2-.9 2.2-.8 4.8.4 2.2 4 3.7 5.9l.4.5c2.7-.6 5.4 2.7 5 6.2-2.5-1.5-5.4-2.8-5.8-5.7-2.8-1.4-5.6-2.9-5.4-6m-6.9-8.5a6 6 0 0 1 5.1 2l-3 .1 3.4 5a20 20 0 0 1-7.3-5.8c-1.7-2 .1-1.9 1.8-1.3m-36.8-37q4.2 4.4 8.8 8.8a14 14 0 0 1-8.8-8.8m150.7-84.4c3.8-1.7 4.5 3.1 7 4.8 1.6 1 2.7 2.3 2.2 4.4-2.6-.2-3.4-1.6-4.4-3-1.6-2.2-6.6-5.3-4.8-6.2M116.5 221c-4.9-1.3-5.4-4.8-7.2-7.5 3 1.8 6.2 3.7 7.2 7.4M281.8 72.5c4.9 1.2 5.4 4.9 8.5 6.3 1.4 1.4 3.5 2.6 1.8 5.2-1.7-1.1-3.3-2.1-3.2-4.2-3-1.6-5.7-3.5-7-7.3M51.6 108c-4.8-.5-4.6-4.3-6.6-6.6 5.4 0 5.1 3.9 6.6 6.6m51.3-12.9a14 14 0 0 1-7.2-4.8q-.9-1.4.8-2.2.8-.1 1.7.2c-1.1 3.4 4.4 3.5 4.7 6.8M-3.8 56C-2 57 0 57.6-.2 60.7c-2.2-1.5-5-1.4-5-3.8.1-.3 1.3-1 1.4-.9M98.9.1l-5.2-5.3c1.9 1.5 6.6 1.7 5.2 5.3M323.2 84c-3-2.4-3.5-3.3-3.7-5.3 1.6 1.8 3.6 3.1 3.7 5.4m-60.1-59.7c.2-.3 2.3-.5 3 .4.6 1 1.3 2.2.3 3.2-.4.4-2-.2-3.4-.3q-.2-2 .1-3.3M37.8 95.6c4.8 1.2 6 3.6 7.4 5.8-3.7-.5-4.6-3.2-7.4-5.8M221 83.4q.3 2.8-2 3.7c-.1.1-2-1-2-1.7.3-1.5 2.4-1.4 4-2m64-42.2c-.3 3.5 3.4 3.7 2.4 6.6-2-1.6-4.4-2.4-2.4-6.6m-105.3 6c-4 .8-4.7-1.2-6.1-2.4l2-1.7zM164 32.5"/><path fill="#82c6dd" d="M167.6 36.7c4.2-1 1.4 2.6 3.2 3.2l5.1 3.3-2 1.7c-2.4-2.2-6-3.5-7.1-6.6q-2.4-1.9-4.5-4.1c-1.3-1.4 0-1.6 1.4-1.7.8 1.7 1.5 3.5 3.9 4.2m105.8-3.2q1.5-1.4 3 0 1 1-.4 1.8c-1 .4-2.4.4-3-.5-.2-.2 0-1 .4-1.3M11 71.5 7.3 67c3.4.2 4.6 1.3 3.7 4.5m94-67.2c0-.4.8-1.2 1-1.1q2.8.6 3 3.5c-2.5.1-4-.4-4-2.4m36.3 8.1c4.3-.8 3 2.7 4.5 4 5.5-.1 4 5.3 7.7 6.6 2.7.2 2.4 2.4 3.4 3.7 3.6 1 7 2 7.3 5.8q-6.3-1.4-9.6-5.9c-4.3-2-6.5-5.7-9.4-8.8l-5.1-4.5-4.2-4.4c2.6.5 4.7 1.4 5.4 3.5M56.1 49q1.9-.5 2.6 1 .1.6-.2 1.3-2.2.2-2.8-1.2c-.3-.4-.6-1 .4-1.2m-.9 62.1c-2.9 0-3.6-1.3-3.9-3 2.6 0 3.6 1.2 4 3m166.8-22c1.9-.4 3.3-.3 3.8 1.2 2 .9 5.4 1.6 3.6 3.9-1.3 1.5-3.2-.8-4.7-1.6-2.7-.4-1-2.7-2.7-3.6m12.7 10c4.3-.1 4.5 3.4 6.7 5.1 2 2 5.4 3.5 4.3 8l-5.6-5.8-5.6-5.7c-1.4-1.6-3.8-2.6-4.1-5 3 0 3 2.3 4.3 3.4M33.2 28.8q1.5-.8 2.4.4c.4.5 1 1.1 0 1.8q-1.4.7-2.4-.3-1.2-.8 0-1.9m64.6 125.4c-3.4.2-2.9-2.2-4-3.5 3-.1 3.7 1.5 4 3.5m-61.6-16.7c4.7 0 2.3 3.2 3.1 5l-2.8-2.7q-2.5.3-2.5-1.5c0-1.3 1.1-1.2 2.2-.8m79.2-29.7c.6.5 1.3 1.2.2 1.8q-.8.2-1.6 0-1.2-1.2-.1-2c.3-.2 1.2 0 1.5.2M303 62.7c.5-.8 1.8-.8 2.3-.2.4.4.2 1.3.3 2l-2.5-.1c-1.3-.3-.6-1.2-.2-1.7m-212 84.7c2.5.5 1.7 2.5 3 3.3-2.6 0-3.2-1.2-3-3.3m63 1.7c.7-.5 1.7-.8 2.2 0 .2.4-.4 1-.7 1.6-.7 0-1.6 0-1.8-.2q-.2-.6.3-1.4M43.8 37.8c1-.6 1.7-.1 2 .5v1.3q-1.9.7-2.3-.5c-.2-.3 0-1 .3-1.3m257.1 21.8c-1 .5-1.4-.3-2.1-.8v-1.2q1.2.2 2.2.7c.2.2.2 1.1-.1 1.3M92 86.3q0-.8-.3-1.4 1.4-.1 2.3.1.6.6.7 1.7zM23.7 20.2a6 6 0 0 1-3.3-3.8c2.7.9 4.3 1.4 3.3 3.8m21.9 126.9q1.9-.7 2.8.6.1.7-.2 1.5l-2.7-.6c-.9-.7-.5-1.2 0-1.5m244-99q1.5.6 1.8 1 .3.9-.2 1.5c-.5.5-1.4.4-1.6-.1zM118.2 17.5c-3-.3-3.7-2.3-4-4.4l-.3-.9c-2-1.4-4.5-2.7-3.7-5.5.2-.3 1.2-.9 1.5-.8q4.1 1.7 3.3 5.7c1.2.5 3.3.6 2.3 2.5 1.3.4 3.6-.3 3.1 2l.6.9c2.2 3.2 7.2 4 9.2 7.3l2.2 2.6 2 1.5q4.4 2.7 5.4 7.2c1.8 2 5.4 2.6 6 6-4.5-.6-5.2-4.6-8.8-5.5.4-2.5-3.7-2-4-4-2.8-.9-5.2-2-5.2-4.9l-1.3-1.7-5.8-5.6zm-99 60.7a3 3 0 0 1 1.9.3q.4.4 1.1 1.7l-3-.9c-.6-.3-1-.8 0-1.1"/></svg>