<svg xmlns="http://www.w3.org/2000/svg" width="299" height="272" fill="none" viewBox="0 0 299 272"><path fill="#82c6dd" d="M110.76 124.237c-5.828-1.615-5.828-1.615-14.428-12.667 6.136 3.125 13.184 5.556 14.428 12.667M164.26-20.275c1.122-.862 4.092-.714 5.484 1.256 1.1 1.555 3.97 1.83 4.449 3.942 2.642 2.361 5.74 4.397 7.549 7.353q.589.132.606.644c6.411 5.147 13.187 10.005 18.404 16.095.674 1.38 3.295 1.844 2.52 3.903.342.694 2.787-.231 1.72 1.546 8.221 5.153 13.506 12.45 19.899 18.937 3.736 2.073 6.823 4.575 7.894 8.406 3.594 1.587 6.097 3.886 6.805 7.351.982.228 2.258-.214 2.908.774 1.909 2.82 6.005 4.221 7.041 7.611 1.594 1.707 5.46 2.226 4.013 5.523.867.97 3.93 1.617 2.283 2.852-2.019 1.513-2.472-1.18-3.587-2.069-3.025-1.004-2.901-3.557-3.808-5.605-1.255-1.435-5.469.169-4.86-3.182-5.05-2.017-7.682-5.879-10.543-9.565l-2.27-2.435c-2.899-1.626-4.614-4.083-6.473-6.44-5.109.272-5.023-3.935-7.307-6.018-5.947-5.423-13.201-9.879-17.732-16.36-3.935-.132-1.606-2.677-2.128-4.124-1.678.1-2.918-.35-3.391-1.77-2.703-.86-4.827-2.123-4.845-4.854-1.038-2.037-5.267-1.919-4.819-4.962-2.291-.338-3.254-1.49-2.962-3.414l-2.718-2.09c-3.344.243-3.05-2.538-4.591-3.793l-1.807-1.454c-2.981-.635-4.009-2.967-5.744-4.646-1.017-.982-4.234-1.687-1.99-3.412M50.685 173.767c4.602 2.604 9.613 4.941 10.283 10.081-4.477-2.683-8.692-5.535-10.283-10.081M37.443 161.997c-.632-.56-1.91-1.641.012-2.602 1.543-.771 2.526-.191 3.256.762 2.127 2.783 4.189 5.602 6.275 8.407 1.462 1.105 3.027 2.157 3.543 4.02-3.813.496-3.095-2.291-4.628-3.224-4.095-1.465-5.666-4.891-8.458-7.363M176.926-36.802c.437-1.454-.674-3.55 1.471-4.227 2.616-.826 2.317 1.692 3.292 2.756 1.133 1.233 2.278 2.459 3.42 3.688l5.2 4.784.519 2.034c5.149 2.703 7.419 7.56 11.801 10.837 3.918-.027 1.099 3.995 3.942 4.612 4.835 3.075 9.319 6.363 10.257 11.816l-.01.002c-.014.006-.1.069-.1.069 5.274-.128 5.419 4.755 9.071 6.214 1.623 2.379 6.715 2.651 5.789 6.542-3.172-.336-4.783-3.553-8.631-2.68-.795.18-1.89-.41-1.321-1.228.424-.61 1.597-.884 2.437-1.308-1.756-2.15-6.698-1.226-6.95-4.825-1.946.168-2.479-1.073-3.192-2.135-.435-2.172-6.111-1.623-3.79-5.225-2.085-.3-4.177-.594-4.081-2.931l-1.583-1.612c-2.29-1.163-2.59-4.483-6.458-3.936l.272-1.928c-1.235-.197-2.938.135-2.78-1.628-2.074-2.684-5.874-4.446-6.082-8.125q-.437-.404-.873-.808l-3.93-4.13c-2.149-.777-2.816-2.613-4.128-3.987-2.18.035-4.449.315-3.562-2.64M161.949 51.78c-1.362-.573-2.016-1.523-2.126-2.767-1.116-1.105-3.637-1.595-2.539-3.676.422-.8 1.52-.496 2.366-.334 2.718.52 1.393 2.151 1.221 3.466 1.657.664 6.873-2.66 4.488 2.536 4.17.87 2.446 5.543 6.286 6.628 2.046 1.394 4.122 2.776 2.622 5.806-.94-2.44-3.749-3.346-5.323-5.212-1.918-2.452-5.995-3.33-6.995-6.447M71.072 195.046c.048-.799 1.131-.913 2.112-.832 4.771.39 2.212 4.064 3.751 5.892.123.146.227.301.34.451 2.694-.565 5.382 2.714 5.042 6.237-2.56-1.524-5.388-2.789-5.854-5.699-2.785-1.423-5.579-2.892-5.391-6.049M64.217 186.557c2.29-.172 3.884.675 5.13 2.035l-2.958.128 3.328 4.897c-3.2-1.48-5.531-3.459-7.337-5.724-1.652-2.072.12-1.861 1.837-1.336M27.427 149.612c2.759 2.982 5.67 5.833 8.813 8.743-4.462-1.673-7.37-4.689-8.813-8.743M178.132 65.247c3.751-1.721 4.518 3.071 6.981 4.753 1.622 1.052 2.725 2.28 2.15 4.43-2.552-.27-3.401-1.663-4.342-2.964-1.589-2.264-6.65-5.365-4.789-6.219M90.478 214.922c-4.874-1.174-5.414-4.748-7.167-7.45 3.034 1.876 6.183 3.686 7.167 7.45M255.811 66.542c4.851 1.176 5.412 4.832 8.479 6.266 1.385 1.401 3.531 2.565 1.835 5.167-1.705-1.107-3.318-2.085-3.184-4.12-3.098-1.601-5.723-3.505-7.13-7.313M19.163 95.393h-.006l-.004-.006h.006z"/><path fill="#82c6dd" d="M25.579 101.962c-4.774-.489-4.587-4.265-6.567-6.604 5.431.053 5.093 3.928 6.566 6.604M76.875 89.102c-3.256-1.125-5.659-2.526-7.182-4.756-.634-.927-.326-1.77.833-2.276.417-.182 1.138.13 1.72.217-1.153 3.447 4.347 3.535 4.63 6.815M297.203 78.098c-2.952-2.499-3.467-3.36-3.683-5.385 1.543 1.84 3.61 3.102 3.683 5.385M237.15 18.372c.115-.29 2.293-.5 2.907.414.656.977 1.345 2.216.309 3.25-.323.323-2.035-.198-3.32-.359-.019-1.235-.284-2.333.104-3.305"/><path fill="#82c6dd" d="M11.797 89.595c4.775 1.165 5.998 3.58 7.44 5.831-3.74-.555-4.589-3.247-7.44-5.831M194.954 77.394c.351 1.88-.484 3-1.892 3.761-.176.095-2.076-1.12-2.004-1.71.192-1.573 2.3-1.424 3.896-2.051M258.969 35.248c-.267 3.42 3.472 3.619 2.401 6.564-1.94-1.581-4.337-2.386-2.401-6.564M153.726 41.212c-3.973.771-4.77-1.167-6.148-2.4q1.043-.832 2.086-1.66zM137.975 26.461l-.02-.042q.002-.005-.001-.009c.061.013.115.03.176.041q-.077.003-.155.01"/><path fill="#82c6dd" d="M141.604 30.658c4.157-.988 1.384 2.632 3.162 3.226l5.171 3.352q-1.008.812-2.02 1.626c-2.419-2.147-5.932-3.497-7.136-6.534-1.52-1.364-3.186-2.638-4.518-4.119-1.255-1.397.068-1.644 1.44-1.714.796 1.709 1.475 3.491 3.901 4.163M247.431 27.482c.95-.834 2.015-.85 2.948-.063.583.668.596 1.466-.372 1.857-1.061.428-2.368.439-3.042-.442-.21-.274.097-1.028.466-1.352M78.93-1.7c-.011-.37.85-1.177 1.033-1.138 2.002.437 2.816 1.642 3.033 3.524-2.522.162-4.01-.413-4.066-2.387M115.308 6.437c4.336-.854 2.968 2.697 4.537 3.978 5.507-.126 3.984 5.3 7.694 6.592 2.652.24 2.335 2.39 3.396 3.654 3.573.998 7.057 2.072 7.237 5.877-4.136-.947-7.397-2.833-9.565-5.89-4.282-2.1-6.515-5.698-9.426-8.8l-5.086-4.562-4.242-4.354c2.671.455 4.78 1.328 5.455 3.505M30.133 42.926c1.212-.23 2.186.142 2.573 1.043.16.37-.142.888-.237 1.357-1.546.16-2.28-.4-2.778-1.173-.275-.431-.558-1.038.442-1.227M25.396 101.967l-.006-.001-.004-.009.009.001z"/><path fill="#82c6dd" d="M29.213 105.068c-2.891-.01-3.646-1.389-3.91-3.132 2.567.036 3.577 1.228 3.91 3.132M196.132 82.952c1.868-.34 3.239-.214 3.747 1.257 1.972.882 5.452 1.609 3.585 3.852-1.291 1.551-3.199-.78-4.693-1.602-2.624-.315-1.003-2.65-2.639-3.508M208.815 92.898c4.286-.1 4.489 3.362 6.665 5.104 2.078 2.025 5.392 3.523 4.284 7.91l-5.554-5.698q-2.81-2.877-5.624-5.752c-1.415-1.548-3.752-2.588-4.126-4.914 3.07-.011 2.961 2.284 4.355 3.35M7.248 22.84c.93-.627 1.767-.33 2.312.318.46.545 1.088 1.155.134 1.877-.986.434-1.82.265-2.478-.305-.663-.574-.892-1.269.032-1.89M67.879 144.695q.015.02.032.04c-.02.001-.032-.002-.05-.001z"/><path fill="#82c6dd" d="M71.834 148.242c-3.437.159-2.895-2.279-4.014-3.544 3.07-.126 3.688 1.5 4.014 3.544M10.199 131.507c4.745-.089 2.29 3.241 3.136 5.047l-2.803-2.793c-1.525.234-2.586-.236-2.55-1.448.035-1.266 1.14-1.198 2.217-.806M89.449 101.835c.55.452 1.215 1.146.131 1.748-.405.224-1.162.022-1.596.017-.662-.757-1.049-1.435-.117-1.994.311-.187 1.263-.032 1.582.229M276.926 56.685c.609-.752 1.852-.732 2.351-.218.465.48.269 1.377.365 2.09l-2.531-.178c-1.345-.305-.609-1.173-.185-1.694"/><path fill="#82c6dd" d="m67.88 144.697-.017.039c-.028-.013-.05-.03-.075-.046.034.001.059.006.093.007"/><path fill="#82c6dd" d="M64.844 141.377c2.475.548 1.652 2.569 3.019 3.348-2.618-.06-3.3-1.232-3.02-3.348M127.846 143.124c.665-.562 1.682-.848 2.136.041.17.333-.38.933-.679 1.581-.717-.091-1.59-.011-1.786-.276-.222-.299-.027-1.045.329-1.346M17.78 31.795c.938-.583 1.7-.105 2.063.55.206.37.009.897-.003 1.246-1.3.556-2.051.219-2.384-.462-.175-.361-.023-1.117.323-1.334M274.888 53.58c-1.021.565-1.4-.265-2.1-.807l-.054-1.158c.756.207 1.628.302 2.221.67.272.171.214 1.14-.067 1.295M66.059 80.304c-.126-.503-.24-.95-.353-1.396.801.027 1.784-.152 2.345.144.467.246.44 1.05.63 1.609zM19.58 141.118c1.181-.554 2.25-.31 2.781.582.235.395-.063 1.015-.118 1.532l-2.747-.64c-.865-.674-.537-1.183.084-1.474M263.539 42.105c.885.503 1.593.69 1.783 1.068.199.397.107 1.086-.225 1.447-.462.502-1.346.428-1.545-.141-.218-.614-.031-1.338-.013-2.374M92.238 11.456c-3.11-.288-3.7-2.231-4.08-4.314a3.4 3.4 0 0 1-.274-.92c-2.057-1.441-4.44-2.752-3.632-5.51.1-.34 1.176-.886 1.448-.778 2.807 1.107 3.765 3.077 3.28 5.627 1.229.565 3.285.612 2.304 2.566 1.288.398 3.665-.369 3.163 1.948l.547.919c2.184 3.198 7.176 4.015 9.199 7.349l2.23 2.572 1.914 1.462c2.92 1.835 4.821 4.212 5.441 7.273 1.866 1.865 5.404 2.565 6.041 6.047-4.546-.733-5.198-4.742-8.788-5.584.363-2.53-3.769-1.93-4.045-4.016-2.769-.852-5.167-1.974-5.137-4.862q-.659-.884-1.316-1.772L94.74 13.92q-1.252-1.23-2.502-2.463"/></svg>