<svg xmlns="http://www.w3.org/2000/svg" width="71" height="147" fill="none" viewBox="0 0 71 147"><path fill="#fc6b7e" d="M46.5 15.5A69 69 0 0 0 32.7 29a24 24 0 0 0-6.3 6.4c-1 1.3-2.4 2.4-1.2 4.3.1 2.9 2.5 2.9 4.4 3.4h1.8c1.8 1 3.5.2 5.3.1l2.9-.6a4 4 0 0 0 3.1-.8q3-.2 5.7-1.7 1.7.3 2.8-1.1.3 0 .5-.3h1q1.5-.2 2.8-1.1c.7.3.7-.5 1-.8q.5.3.8-.3l1.5-.3 2.4-1.3.2.2q-1.1 1.6-2.8 2.8l-.2.6L56 41l-7.5 6.4c-1.8.4-2.5 2-3.8 3L42 53.2c-1.5 0-2 1.3-2.9 2-3.1 3.1-6.6 6-9.3 9.5-1.9 2.4-5.3 4-4.2 8l.3 1.4c.8 1.7 1.6 3.4 4 3l-2.4-1.5.9-2c-1.1-.6.5-1.2 0-1.8l2.3-5.3q2.5-.2 3.3-2.4l1-1 3.2-3.3q1.2-.5 2-1.7.4 0 .4-.3c2.2-1 3.6-2.9 5.1-4.6q.3 0 .5-.3c1.6-.2 2.3-1.6 3.2-2.6 2.1-1.6 4.5-3 6.1-5.2 1-.2 1.4-1 2-1.6 2.5-1.2 4.3-3.3 6.1-5.4.9-.7 2.4-.8 2.4-2.3q1.4-1.3 2.3-2.8 1.4-2.8-1.4-3.3c-1.9-.2-4-.4-5.2 1.7-1.5-.3-2.3.9-3.3 1.6l-1.8 1.9 1.8-2c-1.8-.4-2.4 1.5-3.8 2l-13.1 4.8-1.5.4h-2.8q-.3 0-.4.3l-1.8.3-2.5.4q-1.5-1.2-3.4-.7l-1.2-1.1 4.6-5.8q2.6-2 4.6-4.7l3-2.8c1.8-1.7 4.3-3 5.4-5.4 2.6-1 3.7-3.6 5.7-5.3.6-.5 1.7-1 .8-2-.8-.8-1.7-1.4-3-.7-1 .6-1.2 1.7-2 2.5zM31 33q.1-1.4 1-2.2-.9.9-1 2.2m-2 1q0-1.5.9-1.5-.8 0-.8 1.4"/><path fill="#fc6b7e" d="M29.8 77c1.9 1.2 3.8 2.2 6 1.3 1.2 0 2.5.8 3.4-.5.8 0 1.7.2 2.4-.4h1.8q1.8-.2 3.4-1.4.8 0 1.4-.3 1.7.2 2.7-1.2l1.5-.5c2.7-1 5.4-1.8 7.5-4 2.3 0 3.8-1.8 5.7-2.6l3.2-2.4c-.1 1.9-1.7 2.5-2.8 3.6-.5 1.1-1.9 1.6-2 3l-.8.9c-1.8 1-2.6 3-4 4.6a15 15 0 0 0-4.1 5.2c-1.6 1.3-2.4 3.2-3.6 4.9q-1.4 1-1 2.8l-.3.5-.5.5-1 2.8q-1.3 1.3 0 2.7l1.4 2.5q3.8 3.8 9 4c2.1.4 4.2.7 6.2-.3h.9c1.8.9 3.1-.9 4.8-.9.6.2 1.2.5 1.7-.3l.6-.3c1.4.3 2.6-.3 3.8-.8q.4 0 .8-.3a36 36 0 0 0 10.4-4.6q4.2-1 7.6-3.8 2.4-.6 4.2-2.5 3-1 5.2-3.2l1 .9-.4.5c-2.2 3-5 5.4-6.3 8.9q-1.2.3-1.3 1.5-4.2 4-7 9-1.5 1.1-2 2.8l-.4.5c-2.6 1.8-3.7 4.8-5.5 7.1l-1.1 1.3.5.6-.5-.6q-2.9 2.5-4.4 6l-1.7 2.1-2.4 3.5c-1 1.3-1.5 2.6-.4 4q1.8 1.6 3.8.1c.8.3 1.2-.4 1.8-.7 1.7-.5 3.4-.8 4.9-2q3.6-1.4 7-3.6l2.7-1.7.3-.7-.7-.7.7.7-.3.7c1.3-.1 2-1 3-1.8 1.8-.4 3-1.9 4.5-2.8q3-1.3 5.2-3.7c2.2-.4 3-2.7 5.1-3.3l2-1.7c1.7-.4 2.5-2 3.7-3l1-.7-1-1.2 1 1.2c1.5-.4 2.3-1.6 3.3-2.6l1-.9c1.7-.6 2.9-2 4-3.4l.6-.5q.3 0 .5-.3c1.9-.6 2.9-2.2 4.2-3.5.6-.6 1.8-.6 2.1-1.7l.3-.4c1.8-.7 3-2.2 4.2-3.6l1.9-1.8q.3 0 .4-.3c1.4-.4 2.3-1.6 3.3-2.6l1.1-1.1c.5-.7 1.9-1.1 1-2-.9-1-1.8-.2-2.4.6-1.4.4-2.5 1-2.7 2.7h-.3l-.9.3c-1 0-1.6 1-2.2 1.6l.3.4.5-.3 1.4.2-1.4-.2q-.2 0-.5.3 0-.3-.3-.4c-1.6 1.9-4.1 2.8-5.3 5-2 .7-3.4 2.3-4.7 3.9q-.3 0-.4.2c-1.4 0-2 1.4-2.8 2.2l-.6.4c-2.8 2.2-5.9 4.1-8.4 6.7q-2.7 1.4-4.8 3.6c-1.1 0-1.6 1-2.2 1.6-2.4 1-4 3-6.2 4.3-1.7 0-2 1.7-3.3 2.3a17 17 0 0 0-6 4.3q-.4 0-.5.3c-3.8.4-6.6 3-10 4.5l-1.4.4-2.3 1.6q-.2 0-.5.3-.7-.6-.5-1.5l2.8-2.8c1-2 3-3.4 3.8-5.6.8-1.1 2.3-1.6 2.5-3.3.7-1.1 2-2 2.3-3.3l.8-1q2.1-1.3 2.8-3.7l1-1c1.5-1.1 2.1-2.9 3.2-4.3q1.3-.8 1.6-2.2A98 98 0 0 0 109 88.7c1.4-.7 1.6-2.2 2.3-3.3l1-1q1.3-.7.8-2.1c.3-.7 1-1 .9-2 .3-.9.7-1.8-.7-2.4q-1.5-.8-3 .2a45 45 0 0 0-6 5c-1.3-.4-1.7.7-2.3 1.5l-.6.3L84 95l-2.2.6c-2-.2-3 1.2-4.4 2.2h-.8q-3.3.1-6.2 1.5l1.4.5-1.4-.5c-.8 0-1.7-.2-2.3.6l-1.5.3-4.1.7c-3.3-.8-6.7-.7-9.5-2.8l-.5-.5-1.1-1.3c.1-.8.6-1.6.2-2.5l.2-.7 5.9-9.2c1.2-1.3 2.6-2.5 3.2-4.2l.9-1c.8-.6 1.7-1.2 1.7-2.4l.3-.2q2-.3 1.9-2 1.6-.3 1.8-2c1-.4 1.2-1.3 1.8-2l1-1c2.3-2.4 5.1-4.5 6.8-7.6l.3-.1q1.9-.8 2.4-2.6c1.1-1.4 2.8-2.3 3.2-4.2q1.1-1.1-.2-1.8c-1-.6-2.3-.7-3 .2-2 2.5-5.1 3.8-7.2 6.2v1l-.6 1 .6-1v-1l-9.5 6.6c-1 0-1.6 1-2.3 1.5-1.3 0-2.1 1-3.2 1.6-1 .1-1.3 1.6-2.5 1.5q-3.2.7-5.6 2.7l-1.4.5-.4.3c-1-.4-1.7.3-2.5.5q-.9-.3-1.3.6c-1.1 0-2.3-.3-3.3.5-1.7-.3-3.2.5-4.7 1-2.6-.7-5.5-.7-7.6-2.8l-.9 1.9zm56.5 51.3-3.5 1.1zm6.3-21h-.9l-1 2.8 1-2.7zm15-22.9q0 .3-.3.5l.8 1.2-.8-1.2q0-.2.4-.5m-21.4 9.7q-.3.1-.3.9 0-.7.3-1M62.8 74.9l.5-.7zm6-8q1.8.1 1.6-.7.2.8-1.6.7m0-2.1"/></svg>