<svg width="62" height="127" viewBox="0 0 62 127" fill="none" xmlns="http://www.w3.org/2000/svg">
<path d="M34.3801 16.0468C30.6361 20.3573 26.9817 24.7317 24.5125 29.9478C24.3824 30.0288 24.2717 30.1306 24.1813 30.254C22.0866 32.1014 20.7142 34.4525 19.5205 36.9288C18.897 38.2217 17.7491 39.4594 19.1199 40.9504C19.7045 43.5023 21.7811 43.1582 23.6229 43.2706C24.1478 43.1906 24.6727 43.1106 25.1976 43.0306C26.9165 43.6747 28.3852 42.6479 29.9582 42.3183C30.7741 41.9865 31.59 41.6548 32.4058 41.323C33.45 41.2482 34.3772 40.9195 35.0806 40.0999C36.8887 39.7035 38.4727 38.8557 39.9056 37.7038C41.0445 37.8113 41.6721 37.0921 42.2305 36.2628C42.3957 36.1938 42.5239 36.0827 42.6154 35.9292C42.8991 35.8623 43.1823 35.7952 43.4655 35.728C44.4491 35.5985 45.1528 34.9868 45.8415 34.3491C46.5607 34.5231 46.3919 33.8317 46.6316 33.5383C46.9719 33.6081 47.2099 33.5022 47.305 33.1478C47.7347 32.9676 48.1645 32.7883 48.5942 32.6081C49.2313 32.0921 49.8692 31.5759 50.5071 31.0598C50.5071 31.0598 50.6982 31.2084 50.699 31.2082C50.2695 32.3505 49.5082 33.2638 48.6784 34.1295C48.6318 34.3423 48.5849 34.5556 48.5375 34.7685C47.967 35.5939 47.3966 36.4192 46.8267 37.2449C44.9259 39.5447 43.0259 41.8443 41.1255 44.1445C41.1255 44.1445 41.1255 44.1445 41.1252 44.145C39.579 44.7363 39.2031 46.3674 38.1979 47.4394C37.4949 48.3896 36.7921 49.3393 36.0896 50.2899L36.0874 50.295C34.7967 50.4964 34.5663 51.7684 33.8307 52.5296C31.5557 55.8466 28.8923 58.8976 27.0126 62.4856C25.7256 64.9404 22.868 66.8913 24.5129 70.2855C24.6674 70.676 24.8215 71.0669 24.976 71.4573C25.9354 72.9277 26.9364 74.3172 29.0469 73.5945C28.2543 73.2413 27.4618 72.8882 26.6692 72.535C26.8337 71.933 26.9974 71.331 27.1616 70.7295C26.0767 70.3127 27.4036 69.5318 26.9047 69.0267C27.308 67.3447 27.7104 65.6629 28.1132 63.9806C29.6438 63.7584 30.3338 62.7233 30.6673 61.3425C30.8927 61.0105 31.1184 60.6779 31.3433 60.3455C32.1373 59.1802 32.9312 58.0148 33.7247 56.8492C34.3339 56.2961 35.0648 55.844 35.2884 54.97C35.4805 54.9374 35.5777 54.8232 35.5802 54.6283C35.3498 54.1659 35.119 53.7031 34.8883 53.2412C35.1187 53.7036 35.349 54.166 35.5802 54.6283L35.5962 54.6085C37.3739 53.397 38.3003 51.5107 39.423 49.7804C39.6073 49.7114 39.749 49.5914 39.8484 49.4212C41.241 48.991 41.5975 47.6491 42.3125 46.6225C43.8997 44.7922 45.8631 43.2718 46.9384 41.0194C47.7043 40.6535 48.0532 39.939 48.423 39.2421C50.531 37.7796 51.8104 35.6465 53.072 33.4989C53.7212 32.7254 55.0478 32.4334 54.8202 31.0375C55.4803 30.1671 56.0996 29.297 56.4815 28.2357C57.1419 26.4014 56.3544 25.3948 54.6527 25.4926C52.9587 25.5899 51.0336 25.7715 50.2914 27.8544C48.8876 27.7444 48.4109 28.9576 47.6222 29.7251C47.1719 30.3896 46.7216 31.0541 46.2713 31.7186C46.2713 31.7186 46.2713 31.7186 46.2705 31.7187C46.7213 31.0546 47.1716 30.3901 47.6218 29.7256C45.9102 29.6007 45.6651 31.412 44.5396 32.0614C40.8829 34.1539 37.2262 36.2464 33.5695 38.3389C33.1493 38.5287 32.73 38.7183 32.3099 38.9081C31.487 39.0796 30.6638 39.2516 29.841 39.4231C29.6555 39.425 29.5358 39.5155 29.482 39.6931C28.9528 39.8968 28.4235 40.1004 27.8946 40.3036C27.1837 40.5376 26.4722 40.7712 25.7608 41.0049C24.7293 40.5634 23.6932 40.2881 22.6321 40.919C22.1971 40.6395 21.7616 40.3606 21.3265 40.0811C22.4012 38.1405 23.4762 36.1995 24.5514 34.2592C25.9975 32.8101 26.9614 31.0274 27.9902 29.2891C28.6965 28.3079 29.4022 27.3264 30.1084 26.3452C31.5712 24.5189 33.5609 23.0698 34.192 20.6472C36.3397 19.356 36.9435 16.8754 38.4548 15.0894C38.9092 14.5523 39.8052 13.8285 38.8068 13.1162C38.0315 12.5629 37.1352 12.1979 36.0936 13.0125C35.2131 13.7014 35.2458 14.7531 34.66 15.517C34.5677 15.6928 34.4739 15.8698 34.3801 16.0468ZM51.0992 32.1226C51.1351 32.0267 51.1839 31.9407 51.245 31.8647C51.1839 31.9407 51.1354 32.0263 51.0992 32.1226ZM23.2531 34.0739C23.0446 33.265 23.4614 32.6074 23.8111 31.934C23.4617 32.6069 23.0449 33.2645 23.2531 34.0739ZM21.6825 35.1932C21.5454 34.3082 21.7384 33.8872 22.1869 33.8239C21.7384 33.8872 21.5451 34.3087 21.6825 35.1932Z" fill="#0BA6E2"/>
<path d="M29.0477 73.5935C30.8943 74.3324 32.7442 74.9514 34.6521 73.7709C35.6395 73.5122 36.9042 74.1139 37.562 72.8331C38.2928 72.6594 39.1063 72.7118 39.665 72.0661C40.1843 71.9646 40.7039 71.8625 41.2232 71.7609C42.3718 71.5341 43.1976 70.7799 44.0348 70.0432C44.4511 69.8536 44.8674 69.6641 45.2841 69.4741C46.3691 69.5426 46.9919 68.8864 47.5059 68.0585C47.9265 67.83 48.3467 67.6012 48.7673 67.3727C51.0095 66.1098 53.2917 64.8983 54.7748 62.6663C56.8219 62.2567 57.8854 60.4188 59.5117 59.3994C60.3443 58.535 61.1766 57.671 62.0092 56.8066C62.1398 58.4539 60.8364 59.31 60.0098 60.4291C59.7313 61.4931 58.6005 62.1712 58.6677 63.3913C58.5027 63.6969 58.3381 64.0021 58.1734 64.3072C56.6666 65.5432 56.294 67.4549 55.3559 69.0303C53.9371 70.564 53.0187 72.3732 52.4204 74.3584C51.1921 75.7751 50.7994 77.6036 50.0158 79.2394C49.4014 80.054 49.0016 80.9113 49.483 81.9418C49.3767 82.0785 49.3189 82.2334 49.3082 82.4064C49.183 82.5755 49.0577 82.7438 48.9329 82.9124C48.8092 83.7985 48.6857 84.6854 48.562 85.5715C47.8507 86.5366 48.0824 87.3344 48.9962 88.0106C49.5147 88.6884 50.0328 89.3668 50.5513 90.0446C53.1665 91.9368 56.1026 92.5581 59.2744 92.2468C61.1773 92.242 63.0671 92.1839 64.6684 90.9371C64.9408 90.9118 65.2128 90.8862 65.4853 90.8609C67.2386 91.3257 68.1426 89.5402 69.629 89.2969C70.2313 89.3975 70.8315 89.4907 71.1482 88.7685C71.308 88.6744 71.4511 88.5589 71.5767 88.4218C72.8749 88.4752 73.847 87.7309 74.8567 87.0796C75.0979 86.9596 75.3391 86.8396 75.5804 86.7205C78.4695 85.2003 81.3514 83.6693 83.7066 81.342C83.8958 81.2904 84.0349 81.1774 84.123 81.0023C86.5498 79.9681 88.5006 78.2946 90.2973 76.4128C91.6779 75.7621 92.8336 74.8473 93.6598 73.5468C95.3416 72.6655 96.6908 71.4125 97.7746 69.8628C98.1192 70.0734 98.464 70.2848 98.8086 70.4953C98.7221 70.6766 98.6356 70.858 98.5495 71.0396C97.0441 73.9551 95.0147 76.6213 94.3166 79.9215C93.6727 80.2221 93.4017 80.7603 93.3511 81.4388C91.2443 84.2278 89.8908 87.4147 88.5118 90.5885C87.9056 91.4367 87.2701 92.2719 87.2277 93.3796C87.1218 93.5519 87.0162 93.7236 86.9102 93.8958C84.829 95.8792 84.3878 98.7154 83.1443 101.134C83.2858 100.996 83.4301 100.868 83.5781 100.763C83.4297 100.868 83.2863 100.996 83.1448 101.135C82.8603 101.561 82.5762 101.987 82.2917 102.413C82.4773 102.558 82.663 102.703 82.849 102.847C82.6634 102.702 82.4777 102.558 82.2917 102.413C81.0514 104.319 79.7512 106.195 79.3525 108.507C78.962 109.219 78.5714 109.931 78.181 110.644C77.6365 111.811 77.1092 112.986 76.5419 114.142C75.93 115.389 75.5929 116.681 76.8035 117.687C77.9943 118.677 79.1981 118.234 80.2448 117.261C80.9934 117.371 81.2613 116.723 81.6966 116.339C83.1367 115.628 84.659 115.049 85.7653 113.802C87.8385 112.638 89.671 111.158 91.3947 109.533C92.1513 108.877 92.9074 108.221 93.664 107.565C93.7119 107.332 93.7592 107.099 93.807 106.867C93.5625 106.687 93.3176 106.507 93.0738 106.328C93.3176 106.507 93.5625 106.687 93.8089 106.867C93.7597 107.1 93.7119 107.332 93.664 107.565C94.7657 107.244 95.2791 106.267 95.9755 105.493C97.5966 104.854 98.418 103.321 99.6323 102.226C101.202 101.105 102.722 99.9341 103.668 98.1898C105.558 97.5122 105.999 95.2703 107.733 94.4248C108.22 93.8192 108.708 93.2137 109.195 92.6078C110.7 91.9977 111.178 90.483 112.074 89.3372C112.336 89.0789 112.598 88.8201 112.86 88.5622C112.512 88.2703 112.163 87.9783 111.815 87.6859C112.164 87.9778 112.512 88.2698 112.86 88.5622L112.874 88.5572C114.134 87.988 114.684 86.8024 115.345 85.7139C115.59 85.4161 115.834 85.1187 116.079 84.8206C117.582 83.9521 118.376 82.4808 119.256 81.0825C119.384 80.9203 119.511 80.7577 119.639 80.596C119.807 80.5185 119.933 80.397 120.017 80.2313C121.627 79.445 122.279 77.8279 123.259 76.4955C123.72 75.7931 124.796 75.6015 124.862 74.5703C124.942 74.4509 124.992 74.3196 125.011 74.1768C126.573 73.3204 127.345 71.7939 128.234 70.3683C128.71 69.7223 129.186 69.0763 129.662 68.4303C129.841 68.4264 129.934 68.3342 129.942 68.1553C131.189 67.5461 131.78 66.3612 132.473 65.2665C132.775 64.8799 133.157 64.5303 133.359 64.0977C133.656 63.4646 134.808 62.8365 133.902 62.1198C132.956 61.37 132.315 62.263 131.834 63.0615C130.682 63.658 129.783 64.4327 129.855 65.8871C129.742 65.9061 129.654 65.9632 129.589 66.0584C129.343 66.1684 129.097 66.2776 128.851 66.3868C127.889 66.5948 127.583 67.4593 127.095 68.1409C127.23 68.2327 127.366 68.324 127.5 68.4154C127.616 68.3138 127.721 68.2021 127.815 68.0786C128.266 68.0769 128.717 68.074 129.168 68.071C128.717 68.0735 128.266 68.0769 127.815 68.0795C127.721 68.2021 127.616 68.3138 127.5 68.4154C127.365 68.3236 127.23 68.2323 127.095 68.1409C125.976 70.0603 123.913 71.2935 123.195 73.5049C121.461 74.4081 120.491 75.9878 119.565 77.6058C119.395 77.624 119.299 77.7171 119.276 77.8858C119.276 77.8858 119.276 77.8858 119.276 77.8863C118.009 78.1901 117.776 79.4549 117.058 80.2688C116.925 80.4237 116.792 80.5786 116.659 80.734C114.48 83.1383 112.032 85.3023 110.182 87.9998C108.828 89.2072 107.32 90.2713 106.491 91.9671C106.49 91.9667 106.499 91.9699 106.499 91.9699C105.416 92.0956 105.187 93.0539 104.728 93.7885C102.747 94.9895 101.578 97.0259 99.8725 98.5093C98.3725 98.7394 98.2848 100.375 97.2876 101.106C97.2902 101.106 97.2927 101.105 97.2952 101.105C95.4346 102.44 93.6632 103.864 92.5252 105.917C92.3592 105.942 92.2443 106.033 92.1815 106.189C88.8784 107.208 86.733 109.908 84.0342 111.804L84.0107 111.777C83.6069 111.971 83.2034 112.164 82.7991 112.358C82.2029 112.961 81.6063 113.565 81.01 114.168C80.8536 114.265 80.7181 114.386 80.6035 114.529C80.4253 114.788 80.2171 114.987 79.9734 115.128C80.2174 114.987 80.4258 114.788 80.6035 114.529C80.1182 114.238 79.7996 113.85 79.8608 113.243C80.4931 112.466 81.1246 111.688 81.7569 110.91C81.8384 110.73 81.8995 110.543 81.9417 110.349C82.5015 108.343 84.1075 106.802 84.4546 104.702C85.0445 103.612 86.3174 102.886 86.2056 101.421C86.6465 100.263 87.6729 99.3772 87.7765 98.061C87.9534 97.732 88.1297 97.4026 88.3066 97.0736C89.2604 95.9665 90.1716 94.8379 90.2624 93.2852C90.4776 92.9467 90.6935 92.6081 90.9087 92.2696C92.1187 91.0663 92.4263 89.3885 93.1802 87.9455C93.7073 87.2808 94.3415 86.6663 94.2263 85.7022C97.1338 81.4528 99.2928 76.8058 101.42 72.1428C101.547 72.0181 101.593 71.8688 101.558 71.6949C102.67 70.8556 102.615 69.4722 103.118 68.349C103.331 68.0243 103.545 67.6992 103.758 67.3749C104.569 66.8226 104.453 66.0766 104.192 65.3002C104.356 64.6899 105.002 64.2102 104.69 63.4698C104.816 62.5711 105.014 61.6804 103.716 61.4037C102.695 61.1854 101.853 61.16 101.012 62.0048C99.3409 63.6812 97.8353 65.4792 96.4799 67.4114C95.2014 67.2368 95.0269 68.2804 94.6351 69.0851C94.4835 69.2108 94.3426 69.3476 94.2128 69.4958C89.5359 73.3459 84.8591 77.196 80.1823 81.0461C79.5498 81.3694 78.9178 81.693 78.2854 82.0162C76.5402 82.0992 75.7718 83.5313 74.7324 84.589C74.4869 84.6412 74.2415 84.6942 73.996 84.7464C72.1125 85.214 70.3323 85.9215 68.7231 87.0243C69.1572 87.1085 69.5917 87.1932 70.0257 87.2775C70.6002 86.6568 71.263 86.4665 72.0028 86.5539C71.2621 86.4667 70.5997 86.6564 70.0257 87.2775C69.5907 87.1925 69.1572 87.1085 68.7231 87.0243L68.7459 87.0614C67.98 87.1364 67.1666 87.1082 66.7763 87.9847C66.3393 88.1384 65.9018 88.2918 65.4651 88.445C64.2706 88.8688 63.0769 89.2925 61.8824 89.7163C58.8893 89.5289 55.8081 90.0867 52.9604 88.6637C52.7865 88.5602 52.6129 88.4563 52.4394 88.3532C52.3649 88.383 52.2842 88.4048 52.2001 88.4229C52.2838 88.4053 52.3646 88.3835 52.4394 88.3532C52.0454 88.0095 51.6514 87.6658 51.257 87.3226C51.2556 86.5674 51.5772 85.7905 51.1056 85.0665C51.1255 84.8498 51.1453 84.6331 51.1643 84.4165C52.4331 81.3672 53.7022 78.3173 54.9715 75.2683C55.8687 73.9208 56.8785 72.6318 57.2157 70.9907C57.4233 70.6514 57.6313 70.3116 57.8389 69.9723C58.4615 69.2931 59.1581 68.6492 58.9706 67.5861C59.0775 67.5192 59.1716 67.4381 59.2533 67.3419C60.2102 66.9536 60.8371 66.3613 60.5674 65.2152C61.419 64.8384 62.0245 64.2916 61.9217 63.2559C62.6859 62.7636 62.7643 61.8622 63.1718 61.1576C63.4102 60.8354 63.6488 60.514 63.8878 60.1921C65.6617 57.6419 67.7934 55.3143 68.8192 52.2975C68.9765 52.3128 69.0691 52.2432 69.0983 52.0882C70.1452 51.502 70.6468 50.5713 70.7859 49.4124C71.6289 48.0499 72.967 46.944 72.9888 45.1562C73.539 44.4308 73.4352 43.8555 72.5402 43.5775C71.521 43.261 70.367 43.319 69.8599 44.265C68.4797 46.842 65.9266 48.4201 64.4591 50.8951C64.5041 51.2144 64.549 51.5337 64.594 51.853C64.4646 52.19 64.3351 52.527 64.2052 52.8637C64.3346 52.5267 64.4641 52.1897 64.5932 51.8531C64.5482 51.5338 64.5032 51.2145 64.4583 50.8952C61.98 53.3599 59.5021 55.8242 57.0233 58.2886C56.063 58.4756 55.7296 59.3467 55.1765 59.9779C54.0397 60.2364 53.4422 61.2528 52.5543 61.8614C51.6577 62.1885 51.6941 63.5713 50.5579 63.6269C48.7341 64.2871 47.2919 65.4863 45.9836 66.873C45.609 67.1041 45.2349 67.3356 44.8604 67.5667C44.7024 67.6202 44.5859 67.7217 44.512 67.8713C43.6164 67.7115 43.0799 68.4184 42.3881 68.7518C41.8121 68.6704 41.4731 68.9667 41.2593 69.4608C40.2828 69.7028 39.1811 69.5747 38.4093 70.4226C36.8457 70.4258 35.6583 71.3459 34.3887 72.068C31.9308 71.8799 29.3635 72.2845 27.1574 70.7324C26.9937 71.3343 26.8296 71.9359 26.6656 72.5383C27.4631 72.8876 28.2551 73.2404 29.0477 73.5935ZM87.4096 110.547C86.4825 111.128 85.5094 111.639 84.514 112.115C84.4242 112.4 84.4073 112.63 84.4448 112.821C84.4069 112.631 84.4239 112.4 84.514 112.115C85.5089 111.639 86.4817 111.128 87.4096 110.547ZM81.8831 115.928C81.9966 115.652 82.0759 115.373 82.0504 115.079C82.0759 115.373 81.9961 115.652 81.8831 115.928ZM89.8004 90.8142C89.5442 90.8796 89.2881 90.945 89.0315 91.0108C88.8827 91.8654 88.7335 92.7204 88.5846 93.575C88.7335 92.7204 88.882 91.8664 89.0312 91.0113C89.2881 90.945 89.5441 90.8788 89.8004 90.8142ZM99.6738 68.0825C99.5818 68.2431 99.4881 68.404 99.393 68.5639C99.6604 68.8937 100.167 69.1166 100.295 69.5123C100.167 69.1162 99.6604 68.8937 99.3927 68.5644C99.4878 68.4045 99.5815 68.2436 99.6738 68.0825ZM99.2438 65.611C99.1315 65.714 99.0321 65.8208 98.9515 65.9334C99.0326 65.8212 99.1315 65.714 99.2438 65.611ZM98.9415 65.9456C98.9003 66.0037 98.8642 66.064 98.8336 66.1259C98.8638 66.0645 98.8999 66.0042 98.9415 65.9456ZM88.7584 75.285C87.8661 76.5755 86.5932 77.3351 85.2919 78.055C86.5936 77.3346 87.8665 76.5751 88.7584 75.285ZM82.0317 80.0002C81.8576 80.1868 81.7851 80.4463 81.9379 80.8709C81.8093 81.0598 81.6669 81.225 81.4988 81.3458C81.6669 81.225 81.8089 81.0603 81.9379 80.8709C81.7847 80.4468 81.8576 80.1868 82.0317 80.0002ZM54.734 75.3702C54.7336 75.3707 54.7675 75.356 54.8098 75.3376L54.734 75.3702ZM58.117 66.501C58.2541 66.2894 58.3987 66.0786 58.5123 65.8668C58.3992 66.0789 58.2546 66.2897 58.117 66.501ZM62.3127 58.4815C62.3122 58.4812 62.3112 58.4805 62.3104 58.4806C63.417 58.3617 63.7026 58.031 63.5949 57.5988C63.7029 58.0305 63.4179 58.3615 62.3127 58.4815ZM68.6105 50.4906C68.3232 50.6271 68.0886 50.8444 67.9702 51.2407C68.089 50.8439 68.3236 50.6266 68.6105 50.4906ZM63.715 54.1493C63.7472 54.2108 63.7728 54.2713 63.7927 54.3316C63.7733 54.2717 63.7472 54.2108 63.715 54.1493ZM61.9797 56.557C61.9797 56.557 61.9854 56.6029 61.9915 56.6544L61.9797 56.557Z" fill="#0BA6E2"/>
</svg>
