<svg width="42" height="196" viewBox="0 0 42 196" fill="none" xmlns="http://www.w3.org/2000/svg">
<path d="M30.1575 62.0571L29.3934 62.7001C30.8191 60.9666 30.4816 61.5103 30.1575 62.0571ZM59.7871 137.808C60.2315 138.078 60.2447 138.003 60.1129 137.818C59.7592 137.688 58.8504 136.976 57.8396 136.137C58.05 136.459 58.5173 136.939 59.7871 137.808ZM55.8831 134.459C55.8421 134.435 55.8124 134.419 55.7755 134.404C53.9503 132.723 54.5924 133.326 55.8831 134.459ZM161.218 85.5646C161.984 86.0346 162.985 86.9054 163.937 87.8437C163.726 88.0723 163.502 88.315 163.273 88.5625C163.439 88.3419 163.607 88.1146 163.798 87.8594C162.987 87.1951 162.141 86.4522 161.218 85.5646ZM113.034 155.356C112.438 156.284 111.332 158.209 110.62 158.673C110.963 157.349 111.761 156.741 113.034 155.356ZM74.0335 184.968L76.3409 188.049C72.7587 185.059 70.6578 182.448 72.6937 185.459C73.1258 185.3 74.327 186.367 75.8015 187.872C76.1706 188.248 76.5588 188.649 76.9532 189.068C77.5207 189.679 78.1071 190.305 78.6939 190.937C80.1481 192.501 81.6176 194.08 82.962 195.528C84.309 193.743 85.497 192.123 86.3083 190.906C86.7139 190.297 87.0262 189.787 87.2209 189.403C87.3192 189.209 87.3883 189.046 87.4263 188.915C87.4414 188.816 87.4241 188.75 87.3932 188.692L89.1497 186.884C88.7008 187.441 88.6924 187.58 88.2454 188.135C91.7356 184.673 89.7059 184.684 93.7065 179.835C95.1283 178.167 96.216 177.081 95.4262 178.356L98.1561 174.3C99.0456 173.194 99.0155 173.61 98.1289 174.711L102.604 168.767L102.602 168.834C103.087 167.868 104.307 165.77 104.92 164.757C106.228 163.381 104.449 165.593 104.876 165.313L107.146 161.861C108.447 160.746 106.62 163.647 104.836 165.867C108.241 163.641 106.666 162.961 112.368 156.874L110.116 160.053C112.248 158.534 113.892 155.968 116.96 152.781C116.126 153.454 110.628 159.011 113.107 155.275C113.958 154.341 115.014 153.058 116.281 150.988C116.668 151.259 118.02 149.328 119.805 146.983L120.174 147.527C121.984 144.898 121.58 144.901 122.506 143.246C124.731 140.478 125.565 140.194 126.399 139.785C129.962 135.353 123.379 142.411 127.411 137.02C130.498 133.429 132.331 130.649 135.502 125.95C137.701 123.466 135.45 126.642 136.32 125.812L137.723 123.188C138.173 122.627 138.152 122.905 138.14 123.046C139.503 120.974 137.77 122.502 140.02 119.325C140.117 118.075 145.706 113.638 148.036 109.356C148.903 108.528 147.986 110.045 148.402 109.906C152.039 104.376 151.573 105.208 154.35 100.5L157.504 97.1038C155.053 99.4972 157.269 95.7314 159.237 92.4492C158.319 93.2632 157.533 93.9511 157.034 94.4398L158.759 91.9436L159.622 90.6935L160.002 90.1353L160.336 89.6365C160.792 89.2144 160.758 89.6106 160.396 90.503C160.593 90.1643 160.77 89.8538 160.891 89.6197C161.614 88.8761 161.976 88.651 162.043 88.8306C162.115 89.0051 161.882 89.5934 161.491 90.3832C161.332 90.537 161.176 90.6875 161.019 90.8389C160.863 90.9868 160.706 91.1373 160.575 91.2542C160.301 91.5 160.027 91.747 159.757 91.9887C159.142 93.4029 158.616 94.7683 159.097 94.7462C159.281 94.3908 159.695 93.755 160.18 93.0736C160.02 93.4466 159.941 93.7001 160.101 93.5956C160.278 93.4747 160.557 92.8886 161.038 92.0098L161.388 91.8431C161.448 91.8134 161.497 91.7957 161.567 91.7547L161.787 91.6124C162.082 91.423 162.392 91.2125 162.714 90.9869C162.73 90.8158 162.742 90.6499 162.75 90.4889L165.06 87.7267L162.024 85.0062L161.239 84.3031L161.04 84.1256L160.911 84.0074L160.656 83.771L159.635 82.8234C154.796 79.7085 150.319 77.3204 143.162 71.7449C145.218 72.7916 144.066 71.4135 144.542 71.031C146.038 73.1026 150.116 75.3122 153.648 78.4165C151.807 76.7958 152.404 76.9198 152.948 77.2421L146.131 72.3302C146.591 72.0718 144.997 70.9092 143.444 69.3515C144.094 71.1595 138.225 65.8562 135.413 63.9051C135.459 63.5188 136.301 63.7843 139.45 66.5052C136.387 63.0073 134.159 63.5917 131.09 60.2347C131.876 60.8784 132.265 61.2661 132.681 61.3951C130.671 60.0998 126.357 56.2141 127.588 56.8685L128.37 57.5122C123.258 53.1103 112.585 44.3809 111.283 44.374C111.3 44.2475 112.599 44.1722 113.019 44.305L101.989 38.7496C103.258 38.8812 101.208 34.9793 105.765 38.2473C104.596 37.1426 103.142 35.7816 100.378 33.8117C101.156 34.5898 101.822 36.3459 100.631 35.4375C99.3031 33.8198 98.8209 33.285 98.2404 32.6803C97.9473 32.3808 97.6348 32.0587 97.1697 31.5859C96.9435 31.3442 96.6759 31.0667 96.3581 30.7317C96.311 30.6861 96.2929 30.6616 96.2239 30.5924C96.1596 30.5317 96.0955 30.4668 96.0314 30.4019C95.8981 30.272 95.7596 30.1375 95.6162 29.9944C95.3201 29.7044 95.0011 29.3895 94.6547 29.0475C95.5045 29.8399 95.3733 30.0788 94.822 29.9649C94.5461 29.9079 94.1737 29.7744 93.7556 29.5676C93.3362 29.3632 92.8763 29.0926 92.3833 28.7288C92.1959 28.9472 92.0013 29.164 91.7995 29.3741C91.9444 29.1007 91.8501 28.7983 91.8093 28.4489C91.7717 28.0967 91.7981 27.6849 92.2773 27.0895C92.2773 27.0895 92.2798 27.0917 92.2827 27.0943L92.2773 27.0895C91.1895 28.5079 90.2083 29.8131 89.3347 31.006L89.1706 31.2276L89.0907 31.3384L89.0317 31.4254L88.8045 31.7638L88.358 32.4401L87.4559 33.7932C88.4096 32.494 86.9718 32.9461 85.762 33.7751C86.3747 33.4385 81.9374 37.7922 80.8469 39.1087L82.8961 37.3071C77.8045 42.4557 79.1111 43.5681 74.1382 48.7481C74.5705 47.9599 74.5942 46.2273 71.9857 48.7883C71.2466 50.3917 68.8671 56.0343 64.8207 60.9512L63.7499 61.6174L60.6671 65.4113C62.1357 62.6215 66.687 55.2065 69.3781 51.3492C67.3315 53.1414 68.5844 51.635 65.8185 54.6036C64.6157 55.4395 67.0053 52.6825 67.8105 51.8047L61.1831 58.5339C61.9483 58.6806 56.7003 64.2397 57.3487 64.3519L63.8966 56.4273C64.6595 56.5766 61.1814 62.0212 56.4994 66.8061C55.143 67.8634 56.5263 65.0763 56.2693 65.0274C55.8378 65.8162 52.2212 69.9414 51.6818 70.2785L53.377 67.9711C50.6368 70.5104 49.8349 72.9903 46.3031 75.8125C45.2115 76.9084 42.5188 78.5858 42.6178 79.047C44.8974 77.731 46.9238 78.9675 46.1772 80.573C45.7692 80.9345 40.0857 85.9813 38.6015 87.0087C36.4265 88.4544 40.205 83.2691 38.3507 84.4972C38.4171 84.6885 37.6136 85.8611 37.261 86.3359C36.0366 87.4105 37.3191 85.4648 34.957 88.0862C35.0363 88.9698 29.9908 93.2596 34.2217 89.6852C31.9903 92.3219 31.6048 92.2553 28.8431 95.2193C30.0447 94.577 27.4133 98.8701 25.1772 101.512C25.1937 101.246 24.5011 101.659 24.1697 101.863C23.0543 103.025 22.0583 104.042 21.0994 105.005C20.0939 106.017 19.1608 106.951 18.252 107.864C19.4566 108.869 20.625 109.847 21.8616 110.88C23.0306 111.851 24.2732 112.864 25.6927 113.99C26.0724 114.495 28.4651 116.637 27.2183 116.013C28.0397 116.514 28.867 116.883 30.4831 118.143C33.2387 121.052 26.8464 115.377 28.7896 117.793C29.2312 117.651 33.2736 120.666 35.7108 122.288C35.3753 121.265 30.4941 118.015 28.0558 116.387C28.5523 115.737 33.0744 118.22 38.7513 122.235C43.2032 125.501 40.298 124.135 41.1219 124.638C49.1586 131.184 48.9319 128.996 55.3124 134.803C57.6652 137.334 54.7897 135.713 55.1498 136.477C51.5012 133.844 49.9447 131.934 47.5435 130.059L50.3297 132.583C49.1009 131.831 46.6687 130.071 45.4795 128.937C47.4325 131.082 59.1508 139.878 65.1528 145.181C66.3744 145.925 68.4092 147.307 67.6301 146.42L65.6019 144.908C64.0385 143.135 69.6954 147.407 67.3058 145.266C70.1513 147.139 73.4221 149.136 77.0202 152.289L77.3536 153.315C77.3829 153.112 75.1257 151.096 73.9609 150.405C75.6866 151.434 79.2041 155.585 81.4004 156.328L79.0304 153.925C80.2027 154.7 81.5201 155.51 82.8844 156.394C83.2165 156.612 83.5538 156.832 83.8949 157.053C84.0633 157.145 84.2307 157.241 84.4013 157.334C84.7235 157.518 85.0137 157.695 85.2988 157.907C85.4889 157.634 85.6753 157.397 85.8897 157.168C85.6014 157.198 85.5291 157.208 85.4633 157.279C85.4025 157.343 85.3617 157.449 85.2475 157.516C85.1464 157.385 84.9715 157.137 84.8206 156.772C84.9335 157.134 84.8681 157.214 84.6035 157.073C84.477 157.005 84.3148 156.887 84.1349 156.756C83.687 156.401 83.1975 156.015 82.7173 155.637C80.752 154.075 78.9374 152.641 80.3013 154.295C78.3758 151.752 76.3221 150.712 73.5804 147.672C73.5559 147.905 74.4692 148.853 71.7422 146.571C71.5804 146.516 71.2373 146.339 71.0221 146.224C70.9403 146.152 70.9135 146.124 70.8431 146.062C70.893 146.115 70.9311 146.153 70.9831 146.203C70.8426 146.131 70.8287 146.126 71.0338 146.256C71.645 146.849 72.1192 147.354 72.271 147.612C70.6068 146.871 66.1844 143.351 64.5408 142.347C62.945 140.964 65.3713 142.719 64.5991 141.839L62.145 140.34C62.1939 139.822 58.1991 136.295 62.2543 139.178L58.759 136.386C56.8467 134.56 54.0679 132.234 52.2027 130.992C50.6071 129.609 47.7265 128.062 49.3792 128.936L43.7125 124.793L43.7283 124.669C38.3376 120.33 32.1124 116.39 26.3984 110.862C25.5097 110.223 24.6012 109.578 23.5764 108.811C23.4673 108.728 23.3555 108.643 23.2391 108.558C23.188 108.522 23.135 108.484 23.079 108.443C22.9723 108.363 22.8628 108.28 22.7467 108.19C22.5203 108.012 22.2828 107.814 22.05 107.6C22.1057 107.55 22.1752 107.486 22.2464 107.419C22.4841 107.356 22.7022 107.306 22.9022 107.281C23.0043 107.125 23.1985 106.928 23.4043 106.743C24.1068 106.046 24.8548 105.304 25.5655 104.592C26.9973 103.169 28.2571 101.877 28.5528 101.278C31.4964 99.6497 38.6121 90.9542 42.3297 87.2825L42.1031 86.799C44.5909 84.2069 46.8579 81.6045 49.7773 78.2237L49.2684 78.1212C51.6472 75.0794 56.2867 71.1488 60.4312 66.694C60.2705 67.1095 59.1788 68.2005 58.3554 68.925C64.0676 64.3211 68.3632 57.2812 73.418 52.9867C74.4289 51.6813 75.2859 50.8538 76.1565 50.0928C76.0542 50.2054 75.9624 50.31 75.8933 50.404C76.0143 50.2859 76.1852 50.1051 76.361 49.9196C76.9139 49.444 77.491 48.959 78.0985 48.4197C77.5472 48.8451 77.0306 49.266 76.6078 49.6533C77.4719 48.7282 78.7528 47.2941 79.966 45.8471L80.8578 45.5876C80.9628 45.4729 81.0437 45.3807 81.1483 45.2615C82.5433 44.0387 82.0055 44.0279 81.0737 44.5022C81.667 43.7614 82.1972 43.063 82.5774 42.4974C84.1617 41.9283 85.784 38.7299 87.7808 37.7954C88.0146 37.3154 89.0745 36.0792 90.2596 34.6945C90.5533 34.345 90.8578 33.9882 91.1604 33.6336C91.3435 33.4201 91.3769 33.3671 91.4612 33.2559C91.539 33.1523 91.6146 33.0464 91.6882 32.9478C91.9966 32.5332 92.3024 32.0953 92.5667 31.6597C92.8923 31.7994 93.1608 31.8534 93.3042 31.7647C93.3216 31.9174 93.597 32.2113 93.0637 31.7767C93.3299 32.0276 93.5954 32.2779 93.8608 32.5242C93.9886 32.6407 94.1166 32.7574 94.2441 32.8736L94.4892 33.0888L94.7847 33.3395C95.5734 34.0012 96.3668 34.6166 97.1712 35.1323L97.482 36.1636L101.545 38.5025C103.47 40.5756 104.231 41.4805 101.796 40.0527C107.421 43.8108 106.165 43.3368 111.012 46.4581L110.549 46.5779C112.132 47.8722 114.975 49.5668 115.721 50.6004C118.773 54.0856 133.067 65.15 141.666 73.1796C140.637 70.8518 145.54 77.0593 146.456 76.6836C146.812 77.327 147.975 78.4893 146.364 77.451C151.142 81.0801 153.017 83.5364 156.672 85.6119C157.029 86.2561 155.435 85.0944 155.803 85.6067C156.21 85.8693 157.417 86.6444 157.795 87.1651C158.163 87.6777 156.976 86.7775 156.171 86.2614C156.837 86.807 157.429 87.2704 157.956 87.6641L158.044 87.7294L158.076 87.7435L158.137 87.7757C158.181 87.7972 158.222 87.8167 158.261 87.8374C158.344 87.8758 158.429 87.9116 158.517 87.9455C158.864 88.0826 159.253 88.1959 159.662 88.2914C159.861 88.5096 160.193 88.6545 160.521 88.7881C160.08 89.2063 159.747 89.529 159.469 89.8236C159.396 89.9017 159.342 89.9582 159.265 90.046C159.172 90.1581 159.079 90.2694 158.99 90.3768C158.815 90.5936 158.651 90.8067 158.497 91.0166C157.879 91.8647 157.414 92.6938 156.935 93.7288C156.075 94.4205 154.769 95.6691 157.012 92.6283C155.68 94.2846 148.762 102.655 149.124 103.209C148.591 103.637 147.266 105.529 146.981 106.014C144.029 109.759 143.728 110.055 140.907 113.79L141.783 112.827C141.245 114.75 139.531 116.006 137.289 119.044L137.295 118.91C131.562 125.413 135.212 122.022 129.489 128.386L130.145 128.308C130.453 129.556 125.037 133.921 122.306 138.071L123.614 136.823C122.228 139.173 117.895 141.956 116.129 144.028C115.697 144.441 116.592 143.202 117.047 142.507C112.217 147.765 116.968 143.614 113.832 147.89C112.97 148.461 113.938 146.378 111.702 149.16C110.4 150.4 106.209 157.998 102.723 161.455C103.582 160.765 104.438 160.078 103.08 162.142C100.839 165.18 96.062 169.614 94.6099 172.801C94.2602 173.137 94.0972 173.239 94.0352 173.215C92.4308 175.623 88.561 180.836 87.8404 182.478C87.1228 182.752 86.1294 183.78 85.0242 185.158C84.7487 185.501 84.465 185.868 84.1776 186.249C84.1293 186.315 84.0813 186.38 84.0338 186.445L83.9185 186.607C83.8387 186.722 83.7601 186.835 83.6802 186.95C83.3578 187.42 83.016 187.942 82.6498 188.5C82.2311 188.124 81.7843 187.72 81.3543 187.308C81.1383 187.104 80.9275 186.898 80.729 186.698C80.4308 186.393 80.144 186.085 79.8905 185.807C78.8722 184.685 78.303 183.879 78.5924 183.638L72.4953 177.098L72.7659 177.167C68.979 172.887 67.3505 171.638 65.7306 170.397C64.914 169.353 65.667 169.971 65.7977 170C60.3786 163.64 59.7726 163.069 54.4962 158.408L54.3609 157.545C52.8711 156.336 46.7648 148.133 40.8175 142.474C40.9123 142.496 41.096 142.558 41.5857 142.992C34.9451 136.578 27.6714 125.826 24.0959 124.518L19.6709 120.325C24.8842 126.217 18.3154 119.974 20.2871 122.558C18.1245 120.345 15.2761 116.302 17.9109 119.046L18.2466 119.543C19.8681 119.959 11.8764 112.113 12.492 111.856C11.1996 110.442 9.96166 109.018 8.84017 107.544C7.7302 106.069 6.71564 104.546 5.96137 102.953C5.19974 101.364 4.67194 99.715 4.4729 98.0586C4.29844 96.398 4.43946 94.7339 4.88301 93.1256C5.76637 89.8945 7.726 86.9501 9.95467 84.2335C11.0748 82.8694 12.273 81.5522 13.5007 80.2436C14.7435 78.9221 15.9765 77.6054 17.2059 76.2992L15.5525 77.0265L18.9992 73.3767C20.0176 72.5219 20.612 72.4583 18.1549 75.0639C19.7325 73.9596 21.9927 70.4304 21.9477 70.2484C26.9315 65.3071 20.6976 72.8255 22.1726 71.2593L24.1202 69.0839L23.6086 69.5091C25.0066 67.5748 24.9217 67.2118 27.8769 64.0773C29.8349 62.1784 29.1488 63.355 29.8998 62.589C29.9329 62.6258 30.196 62.3795 31.034 61.3961L35.3833 56.8015L33.2464 58.272C34.9521 56.0272 37.3164 53.9323 34.8609 55.6362C38.5 53.1662 51.1708 38.5829 53.1863 36.8642C55.5552 33.7056 58.1975 30.8693 61.4994 27.3844C60.6023 28.1781 59.6488 28.2707 62.5248 25.2868C62.4556 27.2887 68.0989 20.118 71.0691 18.3052C68.5745 20.07 78.9654 9.57133 75.1195 12.4064C77.5452 9.9533 75.6296 12.5708 77.6243 10.8919C78.9175 9.34409 80.3658 7.83297 82.0314 6.57761C83.6859 5.3112 85.5864 4.35724 87.5682 4.07202C88.5554 3.93113 89.5622 3.94048 90.5602 4.1442C91.5571 4.3473 92.5455 4.71433 93.5148 5.21282C95.4575 6.20701 97.2953 7.7129 99.0954 9.37001C99.3289 9.35615 98.3015 8.0151 100.018 9.30236C101.075 10.7332 102.077 12.2326 103.118 13.7399C104.569 15.1526 105.114 14.4167 107.225 17.5053C106.971 17.0281 106.59 16.3153 107.565 17.2618C120.756 32.4019 136.253 46.5597 149.128 62.4269C147.47 60.1962 148.759 61.5086 150.218 63.0296C149.332 61.9812 150.547 62.7625 150.53 62.4079L155.927 69.0443C157.463 69.7301 162.249 75.6535 163.309 75.8769L161.369 73.9935C164.366 76.1041 159.085 69.2362 160.122 68.9787C156.757 66.6242 153.716 60.4404 148.321 56.458C147.454 55.2721 149.391 57.157 149.013 56.4415C147.573 55.5003 146.124 54.09 143.677 51.2501L144.04 51.4903C136.736 43.9212 133.923 40.375 125.987 31.617L126.255 32.5668C124.554 30.6811 124.29 30.1955 123.556 29.2542C121.047 27.6159 128.433 34.4567 126.049 33.0573C124.412 29.9712 113.745 20.0486 112.953 17.6647C110.27 14.8278 113.352 18.8634 110.672 16.0251L110.17 15.0756L109.221 14.6138C107.505 12.7119 106.876 11.5253 106.988 11.2882C107.394 11.7607 108.253 12.5229 108.725 12.9937C107.703 11.6707 106.087 9.99743 104.603 8.52321C103.112 7.02878 101.671 5.7865 101.248 5.34982C102.195 6.28359 103.082 7.24009 103.929 8.20322C101.979 6.29752 99.8288 4.23282 97.1228 2.52563C95.7699 1.68307 94.2588 0.942516 92.5974 0.483024C90.944 0.0189014 89.1378 -0.128345 87.4069 0.118244C85.6698 0.35117 84.0375 0.94618 82.595 1.71345C81.1495 2.48576 79.8782 3.42483 78.7369 4.40819C76.4572 6.38299 74.6569 8.54223 73.0352 10.4942L73.7245 10.0742C68.709 16.07 69.2939 14.4945 63.5998 20.902L63.7734 20.6409C62.7665 22.0437 61.2868 23.7991 59.6751 25.5023C60.9606 23.7411 56.5412 28.1487 58.2635 25.8745C52.8223 32.3741 55.6653 29.1752 52.457 33.8241L51.3147 34.5227C50.2562 36.1434 50.2769 36.3769 47.4349 39.5802C49.5948 36.7942 45.1703 41.206 47.5432 38.0433C40.8499 44.0863 39.056 48.3646 35.4005 50.5963C33.3323 54.3026 41.0979 45.277 39.6858 47.1176C41.2434 45.922 37.9197 50.1234 35.9267 52.1221C33.959 54.211 31.6684 54.8234 26.769 60.1277C27.2631 59.6049 27.2407 59.5171 27.7297 58.9936C25.7058 60.8002 24.3839 63.1075 21.8262 65.2561C21.0062 67.0298 18.8706 68.386 19.0758 69.3027L23.4504 64.3302C21.0443 67.2192 19.3115 70.4144 14.7838 74.6487C14.9984 74.1867 16.1 72.6994 16.8758 71.6963C15.4763 72.8661 14.6157 74.3508 13.1704 75.5673C12.9634 74.6453 18.5198 69.551 20.8218 66.2016C19.2629 67.4037 16.0603 72.1602 16.8195 70.1093C16.2223 71.5362 14.986 72.8156 13.5612 74.2564C12.8482 74.9792 12.0879 75.7371 11.335 76.5751C10.5778 77.4179 9.82243 78.3532 9.15178 79.4228L9.01934 78.8672C8.55311 79.5175 7.62972 80.8864 6.71411 82.0472C7.10911 81.2219 7.52494 80.4115 7.94868 79.6025C6.81006 81.3204 5.48702 82.8084 4.24306 84.4179C3.0086 86.0216 1.83996 87.7781 1.20994 89.8658C1.6116 88.8095 1.98334 88.0212 2.30322 87.4392C2.60731 86.8456 2.86351 86.4593 3.05048 86.1914C3.42387 85.6577 3.53406 85.6256 3.57836 85.7339C3.62217 85.8417 3.60048 86.0888 3.69764 86.122C3.79367 86.1555 4.00453 85.9701 4.55986 85.2727C3.29284 87.5373 2.6288 89.1037 2.10471 90.2549C1.85726 90.8384 1.61736 91.3045 1.43872 91.7503C1.25039 92.1923 1.03721 92.5741 0.8845 92.9952C0.550009 93.8262 0.191327 94.7342 0.0534336 96.28C-0.0247148 97.0513 -0.0295682 97.9907 0.126524 99.1136C0.169056 99.3969 0.216602 99.6927 0.265521 99.9984C0.339286 100.3 0.414605 100.615 0.494369 100.944C0.569854 101.278 0.682485 101.609 0.803593 101.957C0.921375 102.306 1.0398 102.671 1.20216 103.029C1.01284 102.648 0.841445 102.042 0.662494 101.419C0.58102 101.102 0.524199 100.772 0.46544 100.457C0.436079 100.298 0.40925 100.146 0.383405 99.9981C0.365563 99.8493 0.35611 99.7024 0.3438 99.5671C0.304163 99.0249 0.293031 98.6223 0.346027 98.5224C0.394218 98.423 0.479887 98.627 0.648722 99.2795C0.711397 99.8854 0.860235 100.512 0.991058 101.164C1.0656 101.484 1.15624 101.801 1.2409 102.12C1.32024 102.44 1.42018 102.747 1.52118 103.047C1.89704 104.265 2.34758 105.309 2.58584 105.997C3.09544 106.879 3.5033 107.492 3.80697 107.908C4.10959 108.33 4.30118 108.571 4.41457 108.679C4.64132 108.895 4.51691 108.627 4.33312 108.229C3.96037 107.427 3.34126 106.135 4.3606 107.461C4.85543 108.731 5.49298 109.458 6.23835 110.186C7.002 110.898 7.89148 111.615 9.04248 112.776L8.70345 113.103C10.0672 114.748 10.8866 115.584 11.4223 116.066C11.9593 116.547 12.2153 116.65 12.4562 116.737C12.9333 116.911 13.3367 117.01 15.7398 119.903L13.1144 117.999L15.8844 120.775L14.9452 120.536C18.1157 123.415 18.9365 124.462 21.6477 127.642C21.2358 126.704 22.6446 127.471 25.1514 130.188C26.6499 132.235 23.8695 129.446 27.4597 133.265C26.4431 132.593 25.296 131.884 24.0746 129.911C23.8043 129.842 23.0696 129.249 22.7939 129.174C24.3931 131.392 27.3509 134.255 28.636 135.651C28.1561 135.1 27.5847 134.439 27.3303 134.065L32.9429 139.229C33.6187 140.231 32.8747 139.626 32.1386 139.026C33.2152 140.127 34.0927 140.767 35.6517 142.407C34.9737 142.234 34.7793 142.601 32.4822 140.361L37.6842 145.414C37.8883 145.882 39.8576 148.459 39.1182 147.862C41.6648 150.972 46.315 154.623 49.6908 158.744C49.9318 158.899 50.3577 159.261 51.1623 160.057C54.4773 163.802 57.1245 167.384 61.5129 171.403L63.2805 174.342C66.5285 177.663 60.8387 170.408 66.2505 175.933C70.1069 179.822 67.201 177.831 68.3558 179.375C70.4478 181.15 74.1625 184.165 77.1458 188.248C75.9291 187.109 75.1226 186.079 74.0335 184.968Z" fill="#FC6B7E"/>
</svg>
