<svg xmlns="http://www.w3.org/2000/svg" width="77" height="87" fill="none" viewBox="0 0 77 87"><path fill="#fc6b7e" stroke="#fc6b7e" stroke-width="2.6" d="M56.6 77.6c-.7-1-.8-2.7-1.5-3.9q.2 0 0-.3a20 20 0 0 1-1.3-4.7l-.4-.8h.2c-.2 0-.3-.6-.4-.7l.1-.3-.2-.1c-.5-.4-.3-1.2-.7-1.8l-1.3-3.4h.2l-.4-.7-.4-1v.1c-.2-.2 0-.4-.2-.6v-.2c-.2 0 0-.4-.2-.6l-.2-.5q0-.8-.3-.7c.1-.2.2.4.3 0L48.3 53v-.3L48 52v-.2q0-.3-.3-.6.2.2.2 0-.3-.2-.4-.8h.1l-.3-.8h.1c0-.4-.2 0-.3-.4h.1q-.4-.6-.6-1.3l-.4-1.3c0-.2.2 0 0-.4-.1 0-.3-.8-.4-.4q0-.7-.4-1.3c.2.2.2-.2.3 0v-.2l.2.1-.3-.7q-.4-.2-.7-.9c.2.2.2-.2.3 0l-.6-.6v-.3l-.2-.1s-.2-.6 0-.8c0 0 0 .3 0 0l-.2-.5q0-.5-.3-.3l.1.1-.3-.7.1.1-.6-1.1.2.1c0-.5-.6-1-.5-1.6l-.1.1v-.5l-.3-.3q0-.2.1 0c-.1-.2-.6-1.1-.6-1.7l-.4-.5h.2l-.1-.5c-.2-.2.5 1 .2.7.1 0-.3-.4-.1-.4l-.3-.8q.1.2.1 0l-.2-.4v-.2q-.2-.2-.3-.1c.1-.1-.2-.6 0-.6h.2l-.4-.3c-.2 0 0-.5-.3-.6l-.2-1.1-.3-.8v.1-1q-.3-.2-.4-.1c.2-.3-.4-.7-.3-1 .1 0 .3.3.3 0 .1-.3-.4-.4-.4-.8l-.1.1q-.2-.4-.1-.5 0-.4-.3-.4c0-.7-.6-1.5-.4-2l-.1-.3v.3-.3c0-.5-.4-.4-.5-1q.1 0 0-.1l-.2-.3q0-.5.2-.3l-.2-.5v-.3l-.1-.2v-.3q-.2.1-.1.4l-.2-.3v-.5l-.3-.2v-.2l.2.2v-.4c-.2-.1-.3.2-.3-.2l.1.1v-.3h-.1l-.3-.5-.1-.6-.2-.5-.2-.5c0-.3.4-.2.1-.5q-.1-.3-.3-.2l-.5-1.5-.1-.1q-.5-1-.6-2 .1.1.2-.1c-.2-.2 0-.3-.2-.3v.3q-.5-.7-.5-1.3l-.1-.6h-.1v-.2l-.2-.3-.3-.9v-.2q0-.3-.1 0-.2-.9 0-1-1-1.3-1.3-2.8h.1c0-.3-.2-.1-.2-.3q0-.2.3 0-.1-.5-.4-.7v.2s-.1-.5-.3-.5h.3l-.2-.3c.1-.3.5.5.6.2v-.2c0-.2.3.5.2 0q-.3-.4-.4-.1c-.2-.5-.4-.1-.6-.6 0-.2.2.4.3.2l-.3-.6q-.1.2-.2 0V2s-.2-.3-.2 0c-.2 0 0-.4-.3-.5.1-.2.5.2.4-.2-.1.1-.3-.4-.4-.1q0-.3.2-.1c0-.3-.4-.5-.2-.6h-.2l.1-.4c0-.1-.4-.5-.2-.5 0 0-.1-.5-.2-.3q.2.3 0 .5 0-.4-.2-.5l-.1-.4v-.1c-.3-.4 0-.2 0-.5l.1.2v-.4l-.4-.1-.1-.3.2.2v-.5c0-.1-.3-.4-.3 0V-3c0-.3 0 0-.2-.2l.1-.7.3.2v-.2c.1.2 0-.2.2 0l-.2-.4c-.1.4-.5-.3-.7-.2-.2-.5.5-.5 0-.9q-.2 0-.2.2c0-.3-.3-.1-.3-.5.2.2.2-.4.4 0v.3c.1-.2.3 0 .2-.4q0-.3-.3-.4v.2c-.2-.3 0-.5-.3-.5l-.1.3-.2-.2h.1c0-.5-.2-.1-.3-.5l.1-.3c.2 0 .2.7.4.5l-.3-.6.1.2c0-.2.3-.4 0-.7q-.2-.2-.2 0l-.4-.9c.1 0-.2-.5 0-.2l.5 1c.1-.3 0 .3.3.3q-.1-.4.2-.5l-.1-.2q-.2 0-.3.2-.1-.7-.5-1 0-.3.3 0l-.5-1.5c-.1.3-.2-.5-.3-.3q0 .6-.2.5l.1-.1c-.2-.2.1-.4-.1-.6.2.5.2 0 .4 0-.2-.2.1 0 0-.3l-.5-1-.5-1.5.2-.4c-.1-.3-.1.3-.2-.2 0 0 0-.7-.3-.7h.2l-.1-.2h.1l-.2-.8v.3l-.5-1.2h.1l-.1-.3v-.3l.4.5c0 .3-.2-.1-.2 0q0 .5.2.6l-.1-.3.3.2v-.2l.2.6c-.1-.2 0 .1-.1 0l.3.6.4 1q-.3-.1-.5-.5l.1.6q.2-.1.5.4H27c.1.3.3.2.4.6l.5 1.8h-.1c.3.2.3.9.6 1.2 0 .6.5 1.3.4 1.6l1.1 3h-.2v.3c.1-.3.3.2.4.3q.1.8.6 1.5t.4 1.6v.4l.6.8.2 1.2q.8 1.7 1.4 3.5V4c.6 1.1.8 2.7 1.3 3.6h-.2q.1.7.4.6l.2 1 .4.7.4 1.5v-.1h-.1c.1.3.2 1 .4.7 0 .7.6 1.5.6 2.2l.2.1.5 1.7v.1l.1.2.8 2.8 1.6 4.5c.3.5.1 1.2.5 1.5v.4c.3.4.2 1.2.6 1.7V27l.4 1.7-.1-.2c0 .3.4.5.2.7l1.5 4c.2 1-.4.2 0 1h.1l.1.7h.2q0 .9.3 1.3h-.1l.9 1.6 3.1 9q1.5 4.3 2.8 8.8c0 .8 0 .8.4 1.6.1 0 .1.5.3.5l1 3.3q-.2-.3 0 0v.2q.2.4.3.1l2.6 8.6q.3 1.2.8 2.3.5 3.3 1.7 6.4-.2.1-.9-1Zm-17.3-51v-.2z"/><path fill="#fc6b7e" stroke="#fc6b7e" stroke-width="2.6" d="M43.5 39.4v.2c-.1-.2 0 0 0-.2Zm2.5 6.8h.2zm36 23.2c-.8-1-1-2.7-1.6-3.9v-.3c-.6-1.1-1-3.1-1.3-4.7l-.3-.8-.3-.6.1-.4h-.2c-.4-.5-.3-1.3-.7-1.9h.1l-1.4-3.4h.2l-.4-.7-.4-.9-.2-.6V51c-.2 0 0-.4-.2-.6l-.1-.5q-.2-.8-.4-.7c.1-.2.2.4.3.1l-1.6-4.6v-.3l-.3-.7v-.2l-.2-.6q0 .2.1 0-.3-.2-.4-.8l.1.1-.3-.9.1.1c0-.5-.2 0-.3-.5h.1c-.3-.3-.4-1-.6-1.3l-.4-1.3c0-.2.2 0 0-.4-.1 0-.3-.8-.4-.4l-.3-1.3c0 .2.1-.2.2 0V36l.2.2-.3-.8q-.4-.2-.7-.9c.2.2.2-.2.3 0l-.6-.6v-.3h-.2c0-.1-.2-.7 0-.8 0-.1 0 .2 0 0l-.2-.6q-.1-.5-.2-.3v.2l-.3-.8.1.1-.6-1.1.2.2c0-.6-.6-1.1-.5-1.6H68v-.4l-.2-.4-.6-1.7-.4-.5h.2s-.2-.4 0-.4c-.3-.3.4 1 .2.7 0-.2-.4-.5-.2-.5l-.3-.8q.1.2.2 0l-.3-.4v-.2c-.2 0-.2-.3-.3-.1.1-.1-.2-.6 0-.6h.2l-.4-.3c-.2 0 0-.5-.3-.6l-.2-1.1-.3-.8.1.2q0-.3-.2-.4v-.7q0-.2-.3-.1c.2-.3-.3-.7-.2-1 0 0 .2.3.2 0q0-.3-.4-.8l-.1.1q-.2-.4-.1-.5 0-.4-.3-.4c0-.7-.6-1.5-.4-2l-.1-.2v.2-.3c0-.5-.4-.3-.5-1q.2 0 0-.1l-.2-.3q0-.5.3-.3l-.3-.5v-.3l-.1-.2V12q-.1.1 0 .4-.2 0-.3-.3v-.5l-.3-.2v-.2l.2.2V11c-.2-.2-.3 0-.3-.3l.1.2v-.4H62l-.3-.5v-.6l-.3-.5-.2-.5c0-.3.4-.2.1-.4q-.1-.5-.3-.3-.4-.8-.4-1.4l-.2-.2q-.5-1-.6-2 .1.1.2-.1l-.1-.2q-.2 0-.2.2-.4-.7-.3-1.3 0 .1-.2 0 .2 0 0-.6h-.1V2l-.2-.3v-.1q.1-.6-.1-.8V.5q0-.3-.1 0v-1q-.9-1.2-1.3-2.7h.1c0-.3-.2 0-.2-.3h.3q-.1-.4-.4-.7v.2s-.1-.5-.3-.5h.3l-.2-.2c.1-.4.5.4.7.1l-.1-.2c0-.2.3.5.2 0q-.3-.3-.4-.1c-.2-.4-.4-.1-.6-.6 0-.1.2.4.3.3q0-.4-.3-.7-.1.3-.2 0c0-.3.2.1 0-.2 0 0-.2-.4-.2 0-.2-.1 0-.5-.2-.6 0-.1.4.3.3-.1 0 0-.3-.4-.4-.2q0-.2.2-.1c0-.2-.4-.4-.2-.6h-.2L56-8c0-.2-.4-.6-.2-.6 0 0-.1-.5-.2-.3q.2.3 0 .5 0-.3-.2-.5l-.1-.4v-.1c-.3-.4.1-.2 0-.5l.1.2v-.4l-.4-.1-.1-.3.2.2v-.5q-.1-.3-.3 0 0-.4.1-.3c-.1-.3-.1 0-.3-.2l.1-.7.3.2v-.2c.1.2 0-.1.2 0l-.2-.4c-.1.4-.5-.3-.7-.2-.2-.4.5-.4 0-.9 0 .2-.3 0-.2.3 0-.4-.2-.2-.3-.6.2.3.2-.3.4 0v.3c.1-.2.3 0 .2-.4q0-.4-.3-.3v.2c-.2-.4 0-.5-.3-.6l-.1.3-.2-.2h.1c0-.5-.1 0-.3-.5l.1-.3c.2 0 .2.7.4.5l-.3-.6.1.2c0-.1.3-.3 0-.7q-.2-.2-.2 0l-.4-.8c.2 0-.2-.6 0-.3l.5 1c.1-.3 0 .3.3.4q0-.5.2-.6l-.1-.2q-.2 0-.3.2-.1-.7-.4-1 0-.3.2 0l-.5-1.5c0 .4-.2-.5-.3-.2q0 .4-.2.4l.1-.1-.1-.5c.2.4.2 0 .4 0-.2-.3.1 0 0-.3l-.5-1q-.2-1-.5-1.6l.2-.4c0-.2-.1.3-.2-.1 0-.1 0-.8-.3-.8h.2l-.1-.1q0-.1.2 0 0-.6-.3-.8v.2l-.5-1.2h.1l-.1-.3v-.3l.5.6c0 .2-.2-.2-.3 0 0 0 0 .5.2.5l-.1-.3.3.3v-.2l.2.5h-.1q.2 0 .3.6l.4 1q-.3 0-.5-.5l.1.6q.3-.1.5.4 0 .3.3.6l.5 1.8H53c.3.2.4.9.6 1.2 0 .6.5 1.3.4 1.6l1.1 3.1-.2-.1v.3c.1-.3.3.2.4.3q.1.9.7 1.5l-.1.1q.4.7.4 1.5v.4l.6.8.2 1.2q.9 1.7 1.4 3.6v.1c.6 1.1.8 2.7 1.3 3.7h-.2q.1.5.4.5l.2 1 .4.7q.1.9.5 1.5V3H61c.1.2.2.9.4.6 0 .7.6 1.5.6 2.2l.2.1.5 1.7v.1l.1.2.8 2.8 1.6 4.6c.3.4.1 1.2.5 1.5q.2.3 0 .4l.6 1.6v-.1l.4 1.7-.1-.2c0 .3.4.5.2.7l1.5 4c.2 1-.4.2 0 1h.1l.1.7.2.1q0 .8.3 1.2.3.9.8 1.6l3.1 9 2.8 8.8c0 .8 0 .8.4 1.6.1 0 .1.5.3.5l1 3.3q-.2-.3 0 0l.1.2q.1.3.2.2c1 2.8 1.6 5.7 2.6 8.5l.8 2.4q.6 3.2 1.7 6.3-.2.2-.9-1Zm-17.4-51v-.1zm4.2 12.8v.2zm2.6 6.8z"/><path fill="#fc6b7e" stroke="#fc6b7e" stroke-width="2.6" d="M11.5 22c.7-.8 2-.7 3-1.3q0 .2.3.1c.8-.7 2.4-1 3.6-1l.7-.3v.1l.4-.3q.2 0 .3.2l.1-.3c.2-.5 1-.2 1.4-.6v.1q1.1-.7 2.6-1.2v.3q0-.3.6-.5c.1.2.3-.3.6-.3.2-.2.4.1.5-.2l.2.1c0-.3.3 0 .4-.1l.4-.2c.4-.2.6 0 .6-.3.2.1-.4.2 0 .4q1.6-.9 3.5-1.4l.3.2.5-.4.2.1q.1-.2.4-.3v.2l.6-.4v.2c.2-.3.4-.1.6-.3v.1c.4 0 0-.3.4-.3v.2q.4-.4 1-.6l1-.3c.1 0 0 .3.3.1 0-.2.6-.3.3-.5q.6 0 1-.2c-.1.1.2.2 0 .3l.2.1-.1.1.6-.2q.1-.4.6-.7c-.1.1.2.2 0 .3l.5-.7.2.1v-.2q.4-.2.7 0-.2 0 0 .2l.4-.3q.4 0 .2-.3v.2q0-.3.5-.4v.2l.8-.7-.2.3c.5 0 .9-.6 1.3-.4v-.2h.3l.3-.1 1.3-.5.3-.3v.1h.4c.2-.2-.8.5-.5.2.1.1.3-.4.3-.1l.6-.3v.2c.4 0 .1 0 .4-.2v-.1c0-.1.4 0 .2-.2 0 .1.4-.2.5 0v.3l.2-.4c0-.3.4 0 .5-.3q.5-.2.8 0l.6-.4v.1l.2-.1.6.1v-.4c.3.2.5-.3.9-.2q-.3.2-.1.3c.3.2.3-.3.6-.3l-.1-.2c.2 0 .4-.3.4 0 .1-.2.4 0 .3-.3.6 0 1.2-.5 1.6-.2q.2 0 .2-.2-.2.2-.2 0 .3 0 .3.2c.3 0 .2-.5.6-.6q0 .1.2 0l.2-.1q.3 0 .3.3l.4-.3.2.1.2-.2-.1.1h.3q-.1-.2-.4-.2l.3-.2q.1.1.4 0l.2-.2.1.1h-.2q.2.2.3 0l.2-.2-.1.2h.3v-.1l.4-.3h.4l.4-.3.4-.1c.2 0 .2.5.4.2q.3-.1.1-.4c.4 0 .7-.4 1.2-.3v-.2c.6 0 1.2-.5 1.7-.4q-.2.2 0 .3l.2-.2q0-.2-.2-.2.6-.3 1-.3v-.1q.1.3.5 0v-.1h.1l.2-.1h.1c.2 0 .4-.4.6-.3l.2.1q.2-.1 0-.2h.8q1-.7 2-1h.1c.2.1 0-.1.2 0l.1.2q.3 0 .4-.3 0-.1 0 0l.3-.3v.3l.2-.2c.3.2-.3.6 0 .8l.1-.1c.2.2-.3.4 0 .3q.3-.3.1-.5c.3-.2 0-.5.4-.6.1 0-.3.1-.2.2L70 2q-.2-.1 0-.4l.2.2q.2-.2 0-.3c0-.3.3 0 .4-.3.1.2-.2.5.2.5-.1-.1.2-.3 0-.5q.2 0 .1.2c.2 0 .3-.4.5 0V1l.3.2c.1 0 .4-.4.4-.2 0 0 .4-.1.2-.2q-.2.1-.4 0 .3 0 .4-.3v.1q.2 0 .3-.2v.2l.1-.2c.3-.2.2.2.4 0l-.1.3h.2l.1-.5h.2l-.1.2h.4q.3-.2 0-.3l.3.1c.2 0-.1-.1 0-.3l.7.2-.2.3h.2v.3l.4-.1c-.4-.3.1-.6 0-.8.3-.2.4.6.7 0q0-.2-.2-.2c.3 0 0-.3.4-.3-.2.2.3.2 0 .5h-.2q.1.3.4.2t.2-.3h-.1c.2-.2.4 0 .4-.3q-.3 0-.3-.2l.2-.1c.3 0 0-.1.4-.2l.2.1c0 .3-.5.1-.4.4l.5-.2h-.1s.3.4.5.1v-.2l.6-.4c0 .2.4-.1.3.2q-.5-.1-.8.3c.2.2-.3 0-.3.4q.4 0 .5.3l.2-.2-.2-.3q.5 0 .7-.4.3 0 0 .3L80-1c-.3-.2.4-.2.2-.4q-.3 0-.4-.2l.1.1c.1-.2.3.2.4-.1-.3.2 0 .3 0 .6.3-.2 0 .1.3 0l.8-.5q.7-.1 1.2-.4l.3.3c.3 0-.2-.2.2-.2 0 0 .6 0 .5-.3v.3l.2-.1v.2q.4 0 .6-.3h-.2q.4-.3 1-.4v.2l.2-.2q.1.3.2 0l-.4.6v-.4q-.3 0-.4.2h.2l-.2.4h.2l-.4.2-.1-.2q0 .3-.4.4c-.3-.2-.5.2-.8.3q0-.3.4-.6h-.5q0 .4-.2.6-.2 0-.5.3-.8 0-1.4.3l-1 .5c-.4 0-1 .4-1.2.3l-2.4.9v-.2c0 .2 0-.1-.2 0l-.2.4q-.7.1-1.2.5V2q-.5.3-1.2.4l-.3-.1q-.2.3-.6.5l-1 .2c-.8.6-1.8.7-2.7 1.2L69 4c-.8.6-2.1.7-2.8 1.1v-.3q-.5.1-.5.4c-.3 0-.6.4-.8.2q-.3 0-.5.3l-1.2.4h.1v-.2c-.2.1-.8.1-.5.4-.6 0-1.2.5-1.7.5L61 7q-.8 0-1.3.4l-.1-.2-.1.2c-.7.4-1.6.3-2.2.6q-1.9.8-3.6 1.3c-.3.3-1 0-1.2.4h-.3c-.2.2-.9 0-1.3.4h.1l-1.3.3.1-.2c-.2 0-.3.5-.5.2v.1q-1.5.4-3.1 1.2c-.9 0-.3-.5-.8 0-.2.2-.5-.2-.6 0v.2q-.6 0-1 .2V12c-.4.4-1 .4-1.2.9l-7 2.5q-3.2 1.2-6.8 2.2c-.7-.1-.7-.1-1.3.2v-.1l-.4.4-2.5.8v-.2l-.2.2-.1.2c-2.2 1-4.5 1.2-6.7 2q-.9.1-1.8.6-2.7.2-5 1.3s0-.7.7-1ZM77.7-1v-.2zm0 .2h-.2z"/><path fill="#fc6b7e" stroke="#fc6b7e" stroke-width="2.6" d="M75-.2q-.2.2-.3 0zm-1.3.6zM51.1 8.1h.1zm-10 3.3-.1-.1zm-5.2 2.2zM22 54.5c.8-.8 2-.7 3-1.3 0-.1 0 .2.3 0a8 8 0 0 1 3.6-1v.2l.7-.4v.1l.4-.3.3.1.1-.2c.2-.5 1-.2 1.4-.6v.1q1.2-.7 2.6-1.2v.3q0-.3.6-.5c.1.2.3-.3.6-.3l.5-.2.2.1c0-.3.3 0 .4-.2l.4-.1c.4-.2.7 0 .6-.3.2.1-.3.2 0 .4q1.6-.9 3.5-1.4l.3.1q.2 0 .5-.3h.2l.4-.2v.2q.2-.3.6-.4v.2l.6-.3v.1c.4 0 0-.3.4-.3v.1l1-.5 1-.3q0 .2.3.1c0-.2.6-.3.3-.5q.6 0 1-.3c-.1.2.2.3 0 .4h.2l-.1.2.6-.2q.1-.5.6-.8l.1.4.4-.7.2.1v-.2c.1 0 .6-.2.7 0q-.1 0 0 .2l.4-.3q.4 0 .2-.3v.1q0-.2.5-.3v.2l.8-.7q0 .2-.2.2c.5 0 .9-.5 1.3-.4h.3l.3-.2 1.3-.5.3-.3v.1h.4c.2-.2-.8.4-.5.2.1.1.3-.4.3-.1l.6-.3v.2l.4-.2.1-.1c0-.2.3 0 .1-.2 0 .1.4-.2.5 0v.2l.2-.3c0-.3.4 0 .5-.3q.5-.1.8 0l.6-.4v.1l.2-.1h.6v-.3c.3.2.5-.4.9-.2q-.3.1-.1.3c.3.2.3-.4.7-.3l-.2-.2c.2 0 .4-.3.4 0l.3-.3c.6 0 1.2-.5 1.6-.2q.2 0 .2-.2h-.2q.3 0 .3.2c.3 0 .2-.5.6-.6q0 .1.2 0l.2-.2q.3 0 .3.4l.4-.3.2.1.2-.2-.1.1h.3q0-.2-.4-.2l.3-.2q.1.1.4 0l.2-.2.1.1h-.2.3l.2-.2-.1.2h.3v-.2.1l.4-.4h.4l.4-.2.4-.2c.2 0 .2.6.4.3q.3-.2.1-.4c.4 0 .8-.4 1.2-.3v-.2q1-.4 1.7-.4-.2.2 0 .3c.1-.2.3 0 .2-.2q0-.2-.2-.2.6-.3 1-.3v-.1q.1.2.5 0v-.1h.1l.2-.2.1.2q.3-.4.6-.4l.3.1v-.2h.8q.8-.7 2-1l.2-.1.1.3q.3-.1.5-.4c0-.1-.2.2-.2 0 0 0 .4 0 .4-.2v.3l.2-.2c.3.2-.3.6 0 .8l.1-.1c.2.1-.3.3.1.3q.2-.4 0-.5c.3-.2 0-.5.4-.6.1 0-.3.1-.2.2q.4 0 .5-.2-.2 0 0-.3l.2.2q.2-.3 0-.3c0-.3.3 0 .4-.3.1.2-.2.5.2.5-.1-.2.3-.3 0-.5q.2 0 .2.2c.1 0 .3-.4.4-.1v-.2l.3.1c.1 0 .4-.3.4 0 0-.1.4-.2.2-.4-.2 0-.2.3-.4 0q.3.2.4-.2v.1q.2 0 .3-.2v.1l.1-.1c.3-.2.2.2.4 0l-.1.3h.3v-.5h.2l-.1.1.4.2q.3-.3 0-.4l.3.1c.2-.1-.1-.1 0-.3l.7.2-.2.3h.2v.3q.3 0 .4-.2c-.4-.2.1-.5 0-.8.3-.2.4.7.7 0 0 0 0-.3-.2 0 .3-.1 0-.4.4-.4-.2.2.3.2 0 .5h-.2q.1.2.4.2.2 0 .2-.3h-.1c.2-.2.4 0 .4-.3q-.3 0-.3-.2l.2-.1c.4 0 0-.2.4-.2l.2.1c0 .2-.5.1-.4.4l.5-.2h-.1s.3.4.5 0q.2 0 0-.1l.6-.4c0 .2.5-.1.3.2q-.5-.2-.8.3c.3.2-.3 0-.2.3q.3 0 .4.4l.2-.2-.2-.3q.5 0 .8-.4v.2l1.1-.3c-.3-.2.4-.2.2-.4l-.4-.2.1.1c.1-.2.3.2.4-.1-.3.2 0 .3 0 .5.3-.2 0 .2.3.1l.8-.5q.7-.1 1.2-.4l.4.3c.2 0-.3-.2 0-.2.1 0 .7 0 .6-.3v.3l.2-.2v.3q.4 0 .6-.3h-.2q.4-.3 1-.4v.1l.2-.1q0 .3.3 0l-.5.6v-.4q-.3 0-.4.2l.2-.1-.2.4h.2l-.4.2-.1-.2q0 .3-.4.3c-.3-.1-.5.3-.8.4q0-.3.4-.6h-.5q0 .4-.2.6v-.1l-.5.4q-.8 0-1.4.3-.4.3-1 .4c-.4 0-1 .5-1.2.4l-2.4.9.1-.3h-.3q.1.2-.2.5-.7.1-1.2.5v-.1q-.5.3-1.2.3H84q-.2.3-.6.5l-1 .2c-.8.6-1.8.7-2.7 1.2l-.1-.1c-.8.6-2.1.7-2.8 1v-.2q-.5.1-.5.4c-.3 0-.6.4-.8.2q-.3 0-.5.3-.6 0-1.2.4h.1v-.2c-.2.1-.8.1-.5.4-.6 0-1.1.5-1.7.4l-.1.3q-.8 0-1.3.3h-.1l-.1.1c-.7.4-1.6.3-2.2.6l-3.6 1.3v-.1c-.3.4-1 0-1.2.5h-.3c-.2.2-.9 0-1.3.4h.1l-1.3.3.1-.2c-.2 0-.3.4-.5.2v.1l-3.1 1.2c-.9 0-.2-.5-.8 0-.2.1-.5-.2-.6 0v.2q-.7 0-1 .2v-.1l-1.2.8-7 2.7q-3.3 1.2-7 2.1c-.6 0-.6 0-1.2.3v-.1l-.4.4-2.5.8v-.2l-.2.2q-.2.1 0 .2c-2.3.9-4.6 1.2-6.8 2q-.8 0-1.8.6-2.7.2-5 1.2s0-.6.7-1Zm39.6-13.9h.1zm-10 3.2h-.1zM46.4 46v.2z"/></svg>