<svg xmlns="http://www.w3.org/2000/svg" width="75" height="178" fill="none" viewBox="0 0 75 178"><path fill="#fc5b70" d="M56.7 73.1c-.8-.2-2.3.4-2.7 1.7-.4 1-1.9 1.7-1.8 3-1 1.7-2.4 3.4-3 5.3q-.2.2-.1.5c-2.7 4-5.5 7.8-7.4 12-.1 1-1.4 1.7-.7 2.7-.1.4-1.5.3-.7 1.1-3.6 4.3-5.3 9.2-7.7 14-1.7 1.7-3 3.7-3 6q-2.5 2.2-2.5 5.2c-.5.3-1.2.3-1.4 1-.6 1.8-2.5 3.3-2.6 5.3-.6 1.3-2.5 2.2-1.3 3.8-.3.7-1.8 1.6-.8 2 1.3.4 1.1-1.1 1.6-1.8 1.4-1.1 1-2.5 1.2-3.8.4-1 2.9-.9 2-2.6 2.4-2 3.3-4.6 4.2-7.1l.9-1.7c1.3-1.4 1.8-3 2.4-4.7 2.8-.8 2.1-3 3-4.6 2.4-4 5.5-7.8 7-12.1 2-.8.4-1.8.5-2.7q1.4-.3 1.5-1.5c1.3-1 2.2-2 1.9-3.6.2-1.3 2.5-2 1.8-3.5q1.7-.9 1-2.4l1.2-1.7c1.8-.4 1.2-2 1.8-2.9l.8-1c1.4-1 1.6-2.4 2.3-3.7.4-.7 2-1.6.6-2.2m-9.1-6.7c-.4-.7-.2-2-1.4-2-1.5 0-1 1.3-1.3 2l-1.3 2.7-2 3.5v1.2c-2.3 2.4-2.8 5.5-4.6 8-2.1.7 0 2.4-1.4 3.3-2.1 2.5-4 5.1-3.7 8.3-2.7.9-2.1 3.6-3.8 5-.5 1.6-3.2 2.7-2.1 4.6 1.6-.7 2-2.8 4.1-3 .5 0 1-.5.5-.9l-1.4-.3c.6-1.5 3.3-1.8 3-3.9 1-.2 1-1 1.3-1.7 0-1.3 3-2 1.2-3.5 1-.6 2.1-1.1 1.8-2.4l.6-1.1c1-1 .7-3 2.8-3.3l-.4-1c.6-.4 1.5-.5 1.2-1.4.7-1.9 2.4-3.5 2-5.6l.3-.6 1.5-3c1-.7 1.1-1.9 1.6-2.8 1.2-.4 2.4-.7 1.5-2.1M68.4 112q.9-.8.7-1.9c.4-.8 1.7-1.5.8-2.4-.4-.4-.9 0-1.3.2-1.4.8-.4 1.4-.2 2.1-.7.7-4-.2-2 2.2-2 1.2-.4 3.5-2.3 4.8-.9 1.1-1.8 2.2-.5 3.6.1-1.5 1.5-2.5 2-3.8.7-1.7 2.7-2.9 2.8-4.8m-6.6 10.3c-2.2-.3-2 2.5-3 3.8q-1.2 1.4-.5 2.9c1.3-.7 1.6-1.6 1.9-2.4.5-1.6 2.7-4.2 1.6-4.3M21.1 137c-2.4 1.5-2.1 3.6-3.5 5-.6 1-1.5 2-.3 3 .8-.8 1.5-1.6 1.1-2.7 1.4-1.5 2.5-3 2.7-5.3M1 150.8c1.2-2 1.3-2.5 1.2-3.7-.6 1.3-1.5 2.4-1.2 3.7m23-43.5c-.2-.1-1.4.2-1.5.8s-.4 1.4.3 1.8c.2.1 1-.5 1.7-.8q-.1-1-.6-1.8M54.7 132q.2 1.4 1.6 1.7s.9-1 .8-1.3c-.4-.9-1.5-.4-2.4-.4m-39.8-11.5c.6 1.8-1.3 2.6-.3 4 .8-1.2 2-2 .3-4m56.3-15.7c2.2-.3 2.3-1.5 2.8-2.4l-1.3-.6z"/><path fill="#fc5b70" d="M76 96.8c-2.3.2-.3 1.7-1.2 2.4l-2.2 2.7 1.3.6c1-1.7 2.6-3 2.8-4.9l1.8-3c.4-1-.3-1-1-.7-.2 1-.3 2.1-1.5 3m-56.2 17.3q-.9-.4-1.5.5-.3.7.4 1 1.2 0 1.6-.9 0-.4-.5-.6m35.2 21q-1.7.2-1.9 1.4c-.9.8-2.6 1.8-1.3 2.7.9.6 1.6-1 2.2-1.7 1.4-.7.2-1.6 1-2.4m-5.3 7.8c-2.3.6-1.9 2.6-2.8 3.9-.8 1.5-2.3 2.9-1 5l2-4 2.1-4.2c.5-1 1.6-2 1.5-3.4-1.6.5-1.2 1.8-1.8 2.6m-41.1-7.5q-.9-.3-1.3.3-.2.6.1 1.2l1.3-.5c.7-.4.2-.8-.1-1M84.8 26.2c-.7-.3-1.9 0-2 1.2a9 9 0 0 0-2.8 4c-1 1-2.3 1.9-2.5 3.3q-.3.3-.3.5-2.1 1.2-1.7 3.2v.5l-1.7 1.6c-1.3 1.4-2.4 3-2.5 4.8-.4.6-2 .3-1.5 1.5-.6 1.6-2.8 2.8-2.3 4.7-1.2 1.7-3.2 3-3.2 5.2q-2 1.4-2 3.5c-.8.6-1.8 1.1-1.8 2.2l-.1.6q-1 .9-.6 2c-1.5 1.3-2.7 2.8-2.5 4.7-.6 1-1.7 1.8-1.4 3.2 1.7-.7 3-1.3 3-3 .7-1.5 2.8-2.7 2.3-4.6l1.6-1.5.5-1.2c.3-.9 1.5-1.4 1.3-2.4q.9-1.2.6-2.4c3.7-.7 2.7-4 4.3-5.7l.8-1.8q1-.8.2-1.7c2.6-.4 1.8-2.3 2.6-3.5 1.5-.3 1.2-1.6 1.8-2.3L77 40l1-2.3 1-1.9c.2-.4 1.7-.2 1-1.1.7-.7 1.4-1.3 1-2.3 1.9-1.2 2.2-3 3.1-4.6 0-.6 1.7-1 .7-1.6M9.2 133.4q.7 0 1-.9l-.2-.6q-.6.3-1 .8-.2.3.2.7m4.3-8.4-.8 1q0 .4.3.7.7.3.8-.4z"/></svg>