<svg width="77" height="87" viewBox="0 0 77 87" fill="none" xmlns="http://www.w3.org/2000/svg">
<path d="M56.6247 77.5719C55.8663 76.5455 55.7659 74.9023 55.1117 73.7205C55.0476 73.5784 55.3354 73.6905 55.1767 73.3734C54.4817 72.2475 54.0376 70.2634 53.7871 68.6996L53.8758 68.7706C53.8272 68.4727 53.5176 68.1903 53.448 67.8809C53.4869 67.8655 53.5355 67.9588 53.5671 67.8715C53.4232 67.8344 53.3363 67.3462 53.2059 67.2473C53.2143 67.1133 53.3128 67.0947 53.3155 66.9241L53.1237 66.796C52.6454 66.4225 52.7708 65.627 52.3925 65.0285C52.4343 65.0497 52.4796 65.1061 52.4935 65.0442C51.958 64.0602 51.5708 62.7376 51.1197 61.5896C51.1828 61.6205 51.2846 61.6356 51.3163 61.5493C51.1543 61.5378 51.0009 61.1877 50.8713 60.883C50.9731 60.694 50.5625 60.388 50.525 59.9936L50.5679 60.0141C50.3255 59.7918 50.5262 59.5816 50.2698 59.4205L50.3299 59.2106C50.0835 59.1582 50.3101 58.7821 50.132 58.591L50.0916 58.612C49.9724 58.4162 50.0407 58.2721 49.9424 58.0868L49.9607 58.0604C49.7569 57.6176 49.7858 57.3122 49.6278 57.3758C49.7049 57.1726 49.8311 57.8031 49.938 57.4887C49.281 56.0269 48.8082 54.4542 48.3121 52.9297C48.3211 52.7355 48.3052 52.6187 48.3538 52.5599C48.272 52.4184 48.1386 51.9954 48.0111 51.8838C48.0306 51.9338 48.062 51.7586 48.044 51.6755C48.0154 51.3779 47.7679 51.43 47.742 51.1018C47.8244 51.209 47.8899 51.2334 47.9372 51.1732C47.7268 50.9538 47.6345 50.6001 47.4941 50.3061C47.5369 50.345 47.5771 50.4141 47.6242 50.386C47.3724 50.0964 47.4564 49.7632 47.2705 49.4978L47.3998 49.578C47.3601 49.067 47.1589 49.5013 47.0934 49.0696C47.1549 49.1585 47.1803 49.1119 47.2241 49.1175C46.9301 48.7902 46.7863 48.1535 46.6053 47.7901C46.6255 47.8086 46.649 47.7946 46.649 47.7946C46.4932 47.3857 46.4057 46.9343 46.1836 46.5009C46.1716 46.321 46.4298 46.4815 46.253 46.0525C46.0702 46.1295 45.934 45.3307 45.8057 45.6589C45.715 45.2731 45.5931 44.6559 45.4483 44.426C45.5746 44.5718 45.6186 44.1686 45.7358 44.4755L45.773 44.2026C45.8613 44.2128 45.8255 44.4541 45.8983 44.348C45.8402 44.1935 45.6181 43.7615 45.6034 43.6116C45.3943 43.3592 45.0936 43.1622 44.9179 42.7002C45.0627 42.8973 45.0842 42.5075 45.1652 42.6474L44.5935 42.1086C44.5341 41.9552 44.7308 42.0265 44.6087 41.8166C44.5627 41.8448 44.5005 41.7562 44.438 41.7003C44.4403 41.635 44.1812 41.0661 44.344 40.9385C44.3947 40.8463 44.4655 41.1805 44.4751 40.9861C44.3797 40.698 44.3127 40.706 44.2165 40.4181L44.2395 40.4046C44.2052 40.2051 43.9789 39.8685 43.944 40.1087C43.9807 40.2432 44.0388 40.0224 44.0486 40.236C43.8976 40.1366 43.7594 39.811 43.664 39.5232C43.726 39.6119 43.7712 39.584 43.8364 39.6067C43.5655 39.2659 43.3868 38.8698 43.186 38.4564C43.0957 38.478 43.3981 38.5661 43.3722 38.6448C43.3144 38.0503 42.8287 37.5547 42.8575 37.0351C42.8976 37.1058 42.746 37.1164 42.7688 37.1033C42.6935 36.8323 42.8247 36.8032 42.721 36.6444C42.7904 36.6029 42.6264 36.4331 42.5457 36.2612C42.4613 36.1862 42.567 36.2026 42.6259 36.3562C42.4813 36.127 42.0431 35.1643 41.9655 34.5517C41.9194 34.5788 41.669 34.2554 41.6318 34.1214L41.7645 34.1359C41.7944 33.9924 41.6105 33.6945 41.7026 33.6403C41.4704 33.4021 42.1756 34.6933 41.9425 34.345C42.0071 34.2146 41.5856 33.8705 41.77 33.9023C41.6796 33.6366 41.4658 33.4205 41.4917 33.1308C41.4969 33.2109 41.7219 33.2954 41.6444 33.0825C41.5011 32.7105 41.5543 32.9925 41.4162 32.6977L41.3066 32.5204C41.1898 32.5438 41.2122 32.1767 41.1318 32.3584C41.2099 32.2818 40.8964 31.826 41.096 31.8045L41.2601 31.8096C41.1963 31.6494 41.0182 31.5914 40.9113 31.4839C40.9183 31.4579 40.9337 31.4052 40.9604 31.4059C40.7267 31.4524 40.8527 31.0087 40.6157 30.8705C40.5827 30.5015 40.3401 29.9951 40.4283 29.7871C40.2745 29.5451 40.1154 29.3304 40.0665 29.0132C40.1069 29.0665 40.1402 29.1469 40.1942 29.1481C40.1994 28.9376 40.1248 28.91 40.0324 28.749C40.0786 28.7768 40.0417 28.328 40.0536 28.092C39.9015 27.8513 39.8091 27.9805 39.7262 27.9783C39.8707 27.6664 39.3433 27.2836 39.4475 26.9177C39.5078 26.9986 39.6804 27.2654 39.6657 27.029C39.8098 26.7173 39.345 26.5981 39.3266 26.1767L39.1729 26.3315C39.2317 26.1224 38.882 25.7966 39.0827 25.7751C38.9743 25.667 38.996 25.2994 38.8302 25.4004C38.7767 24.7155 38.2387 23.8844 38.4345 23.3894C38.375 23.3082 38.3323 23.0708 38.2547 23.1472C38.2034 23.331 38.395 23.3355 38.3446 23.4138C38.3126 23.3341 38.2577 23.3321 38.2301 23.3313C38.2074 23.1202 38.1701 22.9607 38.38 23.0992C38.3492 22.6236 37.9277 22.7445 37.817 22.1628C37.8996 22.1641 37.9142 22.1124 37.8493 21.9525L37.6213 21.6832C37.5339 21.3117 37.7243 21.4231 37.8476 21.3732C37.7633 21.1869 37.6931 20.9481 37.5703 20.8909L37.653 20.6047C37.5934 20.8128 37.5256 20.4701 37.4651 20.3892L37.5256 20.4701C37.5672 20.4172 37.462 20.2043 37.4099 20.0967C37.3402 20.1483 37.3824 20.3869 37.4002 20.5189C37.3128 20.4378 37.2761 20.2803 37.1685 20.1705C37.3062 20.1736 37.1546 19.8269 37.1179 19.669C37.0876 19.484 36.9426 19.5065 36.9304 19.4534C36.9932 19.428 36.848 19.1621 36.9823 19.2705C37.0222 19.3239 36.9642 19.4281 37.0528 19.5093C37.063 19.3775 37.179 19.355 37.0198 19.1403C36.8999 18.9785 36.7906 19.2657 36.7575 18.8961C36.8177 18.9767 36.8724 18.9773 36.9393 19.0332L36.8993 18.6898L36.7823 18.7126C36.7968 18.6598 36.8161 18.6866 36.8248 18.6616C36.6751 18.6041 36.6291 18.1809 36.4721 18.1509C36.4077 17.9916 36.4392 17.783 36.4018 17.6232L36.4213 17.6499C36.4261 17.4384 36.3007 17.2002 36.1731 17.0649L36.2004 17.0654C36.1757 16.9589 36.0787 16.7194 35.9704 16.6109C35.9705 16.3209 36.3672 16.385 36.1318 16.141C36.042 15.8762 35.7904 15.7907 35.753 15.9212C35.6745 15.4184 35.315 14.9351 35.3465 14.4355C35.2788 14.3817 35.2642 14.4341 35.1918 14.3011C35.0092 13.5844 34.5789 12.862 34.6196 12.2317C34.7328 12.4201 34.7366 12.2089 34.7995 12.1839C34.6445 12.0485 34.8391 11.9483 34.6464 11.9439C34.5502 11.9936 34.4951 11.9928 34.5178 12.204C34.3278 11.8029 34.122 11.1665 34.1418 10.9029C34.1321 11.0345 34.0719 10.9545 34.0119 10.8728C34.1839 10.8508 34.1088 10.5339 33.9761 10.3188L33.8662 10.3178L33.9189 10.1332C33.8581 10.0534 33.6793 10.1012 33.6995 9.83848C33.7338 9.8141 33.7685 9.78818 33.7828 9.73654C33.6238 9.52064 33.3765 9.22456 33.3752 8.93508L33.4502 8.67363C33.398 8.56671 33.2503 8.40637 33.2723 8.61705C33.2147 8.14159 33.1322 7.84928 33.2111 7.66698C32.6571 6.99466 32.2831 5.87982 32.0152 4.97613L32.0979 4.97846C32.0894 4.71533 31.928 4.89562 31.9249 4.71074C32.0207 4.76587 32.0189 4.47761 32.167 4.63893C32.1338 4.2693 31.8952 4.23667 31.789 4.02341C31.6809 4.02106 31.9095 4.18325 31.772 4.17998C31.7247 4.15294 31.6938 3.67888 31.5292 3.67291C31.5589 3.56784 31.6892 3.59998 31.7637 3.6272L31.6243 3.43978C31.7132 3.12685 32.1211 3.92677 32.2456 3.58833L32.1598 3.40152C32.2541 3.16685 32.4999 3.85847 32.395 3.35451C32.254 3.16652 31.9823 3.0549 31.9782 3.26434C31.7953 2.838 31.5613 3.17417 31.4205 2.69727C31.4652 2.53999 31.5637 3.069 31.6557 2.93876C31.7023 2.67754 31.4447 2.51289 31.4223 2.30164C31.4377 2.53956 31.2288 2.40187 31.156 2.26827C31.1475 2.00513 31.3459 2.3791 31.2507 2.03383C31.1475 2.00513 30.9827 1.71252 31.011 2.00227C30.7786 1.94143 30.9497 1.63027 30.7405 1.49339C30.8399 1.33851 31.1675 1.74283 31.114 1.34676C31.0022 1.4486 30.787 0.942276 30.6571 1.20279C30.6474 1.04377 30.7452 0.995276 30.8599 1.07621C30.8723 0.840416 30.4572 0.644918 30.6939 0.491923L30.5371 0.463345C30.5594 0.383651 30.5617 0.279214 30.5991 0.148691C30.5416 -0.0368816 30.226 -0.387993 30.4329 -0.436243C30.3929 -0.488978 30.2658 -0.91325 30.1787 -0.705327C30.1785 -0.415681 30.3781 -0.437179 30.2368 -0.230029C30.3309 -0.464622 30.0947 -0.60136 29.9942 -0.736449L30.0642 -0.786345C30.0046 -0.866831 29.9544 -1.07989 29.852 -1.10884C29.9191 -1.05445 29.9604 -1.10729 29.956 -1.18554L29.8068 -1.24169C29.629 -1.58929 29.9875 -1.39521 29.8376 -1.74108L30.0173 -1.49995C29.9784 -1.55301 30.0497 -1.71027 29.9578 -1.86895C29.8278 -1.90011 29.6579 -1.98295 29.5553 -2.01254C29.4429 -2.19832 29.6481 -2.14197 29.4731 -2.30387L29.6872 -2.08679C29.7355 -2.05935 29.8096 -2.31942 29.72 -2.58717C29.627 -2.74657 29.3845 -2.96237 29.4129 -2.6723C29.3678 -2.80662 29.3725 -3.01663 29.4861 -2.93529C29.3501 -3.22862 29.3826 -2.85769 29.2301 -3.09937C29.2673 -3.23054 29.2616 -3.59901 29.3012 -3.83535L29.571 -3.61904L29.5134 -3.80242C29.7352 -3.61258 29.5858 -3.95789 29.7817 -3.87413C29.7657 -4.00673 29.6645 -4.14084 29.5858 -4.24851C29.4589 -3.80417 29.1185 -4.54914 28.929 -4.37089C28.7066 -4.85119 29.3718 -4.85926 28.8531 -5.26779C28.8225 -5.16353 28.5728 -5.35476 28.739 -5.06045C28.6632 -5.37935 28.4464 -5.19942 28.4204 -5.59612C28.6002 -5.35393 28.5529 -5.96084 28.8129 -5.61147C28.7303 -5.6138 28.8273 -5.37427 28.8681 -5.32073C28.9121 -5.4767 29.1013 -5.36709 28.9984 -5.68543C28.9141 -5.87241 28.8237 -6.13739 28.7197 -6.06141C28.5944 -6.01156 28.8294 -5.76892 28.6598 -5.85152C28.4901 -6.22433 28.6639 -6.35159 28.3852 -6.43873C28.4818 -6.19977 28.3697 -6.09607 28.2808 -6.07197L28.1354 -6.33927L28.2382 -6.31154C28.1521 -6.7871 28.0404 -6.39611 27.9202 -6.84559L28.0213 -7.10685C28.1998 -7.04833 28.1648 -6.44352 28.375 -6.59832C28.292 -6.88868 28.1413 -6.94507 28.1146 -7.23571C28.1544 -7.18183 28.1868 -7.10153 28.227 -7.04888C28.2016 -7.15439 28.4808 -7.35771 28.1653 -7.70817C28.0258 -7.89665 28.0633 -7.73687 27.9735 -7.71359C27.7976 -8.16587 27.6633 -8.27422 27.5536 -8.56704C27.7456 -8.5617 27.4003 -9.09698 27.6825 -8.82617C27.6306 -8.64255 27.8558 -7.97908 28.0731 -7.86887C28.2225 -8.1027 28.1615 -7.49775 28.4002 -7.46513C28.2851 -7.8366 28.4918 -7.88371 28.6042 -7.98571C28.5801 -8.09131 28.4925 -8.17279 28.452 -8.22715C28.314 -8.23025 28.3593 -8.09707 28.2343 -8.04803C28.1346 -8.47147 27.9367 -8.84633 27.743 -9.03485C27.7597 -9.19238 27.8973 -9.18879 27.9619 -9.02957C27.7665 -9.50854 27.6138 -10.0386 27.5006 -10.5166C27.396 -10.1502 27.2848 -11.0213 27.1835 -10.7614C27.219 -10.4969 27.1445 -10.2357 27.0093 -10.3441C26.972 -10.5046 27.0995 -10.3679 27.1215 -10.4467C26.9469 -10.6099 27.1984 -10.8132 26.9612 -10.9518C27.1715 -10.5246 27.2357 -10.944 27.4207 -10.9131C27.2269 -11.2074 27.5377 -10.9359 27.4345 -11.2552C27.2421 -11.5493 27.0448 -11.9225 26.8948 -12.2698C26.8994 -12.7679 26.5291 -13.4099 26.3931 -13.8098C26.4051 -14.0458 26.6303 -13.9615 26.5874 -14.1995C26.4974 -14.4657 26.4584 -13.9382 26.4123 -14.3614L26.4603 -14.3349C26.3799 -14.441 26.3469 -15.1006 26.0517 -15.135L26.2854 -15.0753C26.2791 -15.1547 26.2125 -15.2092 26.1722 -15.2637C26.2343 -15.287 26.2639 -15.3916 26.344 -15.2848C26.3985 -15.5726 26.1564 -15.7914 26.0652 -16.0554L26.0059 -15.8472C25.7688 -16.2735 25.7836 -16.6149 25.6014 -17.0418L25.718 -17.0652L25.5662 -17.3053C25.6954 -17.2767 25.6881 -17.5395 25.5523 -17.6485L26.0473 -17.0565C26.0421 -16.846 25.8448 -17.2192 25.7726 -17.0649C25.7087 -16.933 25.8707 -16.535 26.0001 -16.504C25.962 -16.664 25.935 -16.6638 25.8554 -16.7716C25.9951 -16.8738 26.0653 -16.635 26.2075 -16.5514C26.1748 -16.6309 26.1848 -16.7626 26.1298 -16.7642C26.258 -16.6287 26.3223 -16.4705 26.4123 -16.2043C26.2929 -16.3659 26.3475 -16.0746 26.2805 -16.1286C26.4251 -16.1517 26.5497 -15.91 26.6182 -15.5676C26.5357 -15.28 26.9208 -14.9801 27.0012 -14.583C26.8118 -14.6933 26.6361 -14.8554 26.5043 -15.07C26.5119 -14.8073 26.5946 -14.8039 26.6022 -14.5401C26.7438 -14.4575 26.9299 -14.4258 27.0945 -14.1328L26.9972 -14.0826C27.1414 -13.8149 27.2937 -13.8642 27.3821 -13.4934C27.5321 -12.8573 27.7382 -12.22 27.8783 -11.7428L27.7816 -11.6918C28.0861 -11.4996 28.1462 -10.8409 28.3583 -10.5188C28.4546 -9.88393 28.8796 -9.2413 28.8029 -8.87525C29.2255 -7.83716 29.6033 -6.93241 29.922 -5.81835L29.7128 -5.95523C29.8865 -5.79324 29.6685 -5.79917 29.7528 -5.61292C29.8004 -5.87374 29.9944 -5.39468 30.13 -5.28747C30.1727 -4.75947 30.5027 -4.17043 30.7481 -3.76935L30.6508 -3.71923C30.9858 -3.34207 30.9865 -2.76246 31.1322 -2.20495C31.11 -2.12818 31.0454 -1.99784 31.1098 -1.83853C31.3719 -1.59498 31.4102 -1.43586 31.6549 -1.0338C31.7577 -0.715774 31.8835 -0.185928 31.9235 0.15816C32.5437 1.27984 32.7902 2.55035 33.3326 3.74884L33.241 3.87786C33.8889 5.00062 34.1346 6.55989 34.5997 7.54693L34.3614 7.51422C34.4022 7.85733 34.6535 8.23248 34.7731 8.10299C34.8148 8.44691 35.1345 8.87815 35.0314 9.13828C35.1005 9.48157 35.2575 9.51259 35.3742 9.77841C35.5102 10.4661 35.6077 10.7062 35.848 11.3177L35.8109 11.1589C35.7434 11.105 35.6536 11.1273 35.6908 11.2871C35.8232 11.5012 35.9124 12.1617 36.0834 11.8502C36.1565 12.5628 36.702 13.3674 36.7196 14.0779C36.7694 14.0008 36.835 14.1605 36.9025 14.2147C37.0944 14.7985 37.1564 15.4577 37.4215 15.8876C37.4179 15.9917 37.2594 15.7764 37.3291 16.0169C37.4002 16.1496 37.4179 15.9917 37.5117 16.153C37.9437 17.06 38.0026 18.1134 38.314 18.9647C38.9391 20.4543 39.3902 22.0731 39.8866 23.5337L39.8318 23.5328C40.1795 23.9632 40.011 24.7483 40.4223 25.0484C40.4125 25.1797 40.5435 25.4993 40.4204 25.4437C40.6804 25.792 40.6491 26.5804 41.0013 27.0912C40.9893 27.0377 40.9696 27.0114 40.9287 26.9582C41.0045 27.5645 41.317 28.0207 41.4133 28.6555C41.3723 28.6013 41.3205 28.495 41.2658 28.4933C41.2463 28.7565 41.653 28.9777 41.4558 29.1829C41.5012 29.3157 41.6063 29.2394 41.5726 29.1595C41.9071 30.5102 42.5149 31.8702 43.0136 33.2264C43.1896 34.2574 42.6319 33.4162 43.0609 34.1358C43.0353 34.214 43.1668 34.1521 43.1212 34.179C43.285 34.458 43.0063 34.7329 43.1989 34.9014C43.3173 34.768 43.3255 35.0136 43.4164 34.9914C43.5162 35.624 43.4231 35.7876 43.6879 36.2269L43.5994 36.2161C43.997 36.7029 44.0892 37.3857 44.4922 37.7745C45.5312 40.8315 46.6227 43.7305 47.62 46.7159C48.5295 49.6917 49.5797 52.5535 50.4187 55.6026C50.4438 56.3724 50.4665 56.4236 50.7988 57.1704C50.7559 57.1499 50.7328 57.1035 50.7189 57.1654C50.8971 57.1509 50.9106 57.7052 51.0932 57.7279C51.4215 58.8496 51.7979 59.8586 52.1689 61.0016C52.0927 60.8264 51.9277 60.7796 52.008 60.9908L52.1866 61.1817L52.1523 61.233C52.2244 61.3719 52.358 61.506 52.3621 61.3371C53.4345 64.1633 54.0155 67.0971 54.9661 69.8974C55.1128 70.5881 55.4841 71.5183 55.7528 72.2333C56.2272 74.4567 56.6757 76.4538 57.5378 78.5895C57.5367 78.5888 57.0155 78.4423 56.6247 77.5719Z" fill="#FC6B7E" stroke="#FC6B7E" stroke-width="2.5572"/>
<path d="M39.3159 26.5988L39.2239 26.4375L39.3048 26.4396L39.3159 26.5988Z" fill="#FC6B7E" stroke="#FC6B7E" stroke-width="2.5572"/>
<path d="M43.4625 39.4076C43.5649 39.5656 43.4323 39.5505 43.4307 39.5825C43.3726 39.4288 43.5402 39.6108 43.4625 39.4076Z" fill="#FC6B7E" stroke="#FC6B7E" stroke-width="2.5572"/>
<path d="M46.065 46.1944L46.0466 46.1436L46.2027 46.1125L46.065 46.1944Z" fill="#FC6B7E" stroke="#FC6B7E" stroke-width="2.5572"/>
<path d="M81.9346 69.3892C81.1761 68.3629 81.0757 66.7197 80.4216 65.5379C80.3574 65.3958 80.6453 65.5079 80.4865 65.1908C79.7915 64.0649 79.3474 62.0807 79.0969 60.5169L79.1856 60.588C79.137 60.2901 78.8274 60.0077 78.7578 59.6983C78.7967 59.6829 78.8453 59.7762 78.8769 59.6889C78.733 59.6518 78.6461 59.1636 78.5157 59.0647C78.5241 58.9307 78.6226 58.9121 78.6253 58.7415L78.4335 58.6134C77.9552 58.2399 78.0806 57.4444 77.7023 56.8458C77.7441 56.8671 77.7895 56.9235 77.8033 56.8616C77.2679 55.8776 76.8807 54.555 76.4295 53.407C76.4926 53.4379 76.5945 53.453 76.6261 53.3667C76.4642 53.3552 76.3107 53.0051 76.1811 52.7004C76.283 52.5114 75.8723 52.2054 75.8348 51.811L75.8778 51.8315C75.6354 51.6092 75.836 51.399 75.5796 51.2379L75.6397 51.0279C75.3933 50.9756 75.6199 50.5995 75.4418 50.4084L75.4014 50.4294C75.2822 50.2336 75.3505 50.0895 75.2522 49.9042L75.2706 49.8778C75.0667 49.435 75.0957 49.1296 74.9376 49.1932C75.0147 48.99 75.1409 49.6205 75.2478 49.3061C74.5908 47.8443 74.118 46.2716 73.6219 44.747C73.631 44.5529 73.615 44.436 73.6636 44.3773C73.5818 44.2358 73.4484 43.8128 73.3209 43.7012C73.3404 43.7512 73.3718 43.576 73.3538 43.4928C73.3253 43.1953 73.0777 43.2474 73.0518 42.9192C73.1342 43.0263 73.1997 43.0507 73.247 42.9906C73.0366 42.7712 72.9443 42.4175 72.8039 42.1235C72.8467 42.1624 72.887 42.2315 72.9341 42.2034C72.6822 41.9138 72.7662 41.5806 72.5803 41.3152L72.7097 41.3954C72.6699 40.8844 72.4688 41.3187 72.4032 40.887C72.4647 40.9759 72.4901 40.9292 72.5339 40.9348C72.2399 40.6076 72.0961 39.9709 71.9151 39.6074C71.9353 39.626 71.9588 39.612 71.9588 39.612C71.803 39.2031 71.7155 38.7516 71.4934 38.3182C71.4814 38.1384 71.7396 38.2989 71.5628 37.8699C71.38 37.9469 71.2439 37.1481 71.1155 37.4763C71.0248 37.0905 70.9029 36.4733 70.7582 36.2434C70.8844 36.3892 70.9284 35.986 71.0456 36.2929L71.0828 36.02C71.1711 36.0302 71.1353 36.2714 71.2081 36.1654C71.15 36.0109 70.9279 35.5789 70.9132 35.429C70.7041 35.1766 70.4034 34.9796 70.2277 34.5175C70.3725 34.7147 70.394 34.3249 70.4751 34.4648L69.9033 33.926C69.8439 33.7726 70.0406 33.8439 69.9185 33.634C69.8725 33.6622 69.8103 33.5736 69.7478 33.5177C69.7502 33.4524 69.491 32.8835 69.6538 32.7558C69.7045 32.6637 69.7754 32.9978 69.7849 32.8035C69.6895 32.5154 69.6225 32.5234 69.5263 32.2355L69.5493 32.222C69.515 32.0224 69.2887 31.6858 69.2538 31.9261C69.2906 32.0606 69.3486 31.8398 69.3584 32.0534C69.2075 31.954 69.0692 31.6284 68.9739 31.3406C69.0358 31.4293 69.081 31.4014 69.1462 31.4241C68.8753 31.0833 68.6966 30.6871 68.4958 30.2738C68.4055 30.2954 68.708 30.3835 68.682 30.4622C68.6242 29.8677 68.1385 29.3721 68.1673 28.8525C68.2075 28.9231 68.0558 28.9338 68.0786 28.9207C68.0033 28.6497 68.1345 28.6206 68.0309 28.4618C68.1002 28.4203 67.9363 28.2505 67.8555 28.0786C67.7711 28.0036 67.8768 28.02 67.9357 28.1735C67.7911 27.9444 67.3529 26.9816 67.2753 26.3691C67.2293 26.3962 66.9788 26.0728 66.9416 25.9388L67.0743 25.9533C67.1042 25.8098 66.9204 25.5119 67.0124 25.4577C66.7803 25.2195 67.4854 26.5107 67.2523 26.1623C67.3169 26.032 66.8954 25.6879 67.0798 25.7197C66.9894 25.454 66.7756 25.2379 66.8015 24.9482C66.8067 25.0283 67.0317 25.1127 66.9542 24.8999C66.8109 24.5279 66.8641 24.8099 66.726 24.5151L66.6164 24.3378C66.4996 24.3612 66.522 23.9941 66.4416 24.1758C66.5197 24.0992 66.2062 23.6434 66.4059 23.6219L66.5699 23.6269C66.5061 23.4667 66.328 23.4088 66.2211 23.3013C66.2281 23.2753 66.2435 23.2226 66.2703 23.2233C66.0365 23.2698 66.1625 22.8261 65.9255 22.6878C65.8925 22.3189 65.6499 21.8125 65.7381 21.6045C65.5844 21.3625 65.4252 21.1478 65.3763 20.8306C65.4167 20.8839 65.45 20.9643 65.504 20.9655C65.5092 20.755 65.4346 20.7274 65.3423 20.5664C65.3884 20.5942 65.3515 20.1454 65.3635 19.9093C65.2113 19.6686 65.1189 19.7979 65.036 19.7956C65.1805 19.4837 64.6531 19.101 64.7573 18.735C64.8176 18.816 64.9902 19.0828 64.9756 18.8464C65.1196 18.5346 64.6548 18.4155 64.6365 17.9941L64.4828 18.1489C64.5415 17.9397 64.1918 17.614 64.3925 17.5925C64.2841 17.4844 64.3058 17.1168 64.14 17.2177C64.0865 16.5328 63.5485 15.7018 63.7443 15.2068C63.6848 15.1256 63.6421 14.8882 63.5645 14.9646C63.5133 15.1484 63.7048 15.1528 63.6544 15.2312C63.6224 15.1515 63.5676 15.1495 63.5399 15.1487C63.5172 14.9376 63.4799 14.7781 63.6898 14.9165C63.6591 14.441 63.2375 14.5619 63.1268 13.9802C63.2094 13.9815 63.224 13.9297 63.1591 13.7699L62.9312 13.5006C62.8437 13.1291 63.0341 13.2405 63.1574 13.1906C63.0731 13.0043 63.0029 12.7655 62.8801 12.7083L62.9628 12.4221C62.9032 12.6301 62.8354 12.2875 62.7749 12.2066L62.8354 12.2875C62.877 12.2346 62.7719 12.0217 62.7197 11.9141C62.65 11.9657 62.6922 12.2043 62.7101 12.3363C62.6226 12.2551 62.5859 12.0976 62.4783 11.9878C62.616 11.991 62.4645 11.6443 62.4277 11.4864C62.3975 11.3014 62.2524 11.3239 62.2403 11.2707C62.3031 11.2454 62.1578 10.9795 62.2921 11.0879C62.332 11.1413 62.274 11.2455 62.3626 11.3266C62.3728 11.1949 62.4888 11.1724 62.3296 10.9577C62.2097 10.7959 62.1005 11.0831 62.0673 10.7135C62.1275 10.7941 62.1822 10.7947 62.2492 10.8506L62.2091 10.5072L62.0921 10.53C62.1066 10.4772 62.1259 10.504 62.1346 10.4789C61.9849 10.4215 61.9389 9.99825 61.7819 9.96829C61.7175 9.80898 61.749 9.60037 61.7116 9.4406L61.7311 9.46729C61.7359 9.25581 61.6105 9.01757 61.4829 8.8823L61.5102 8.88281C61.4856 8.77632 61.3885 8.53679 61.2802 8.4283C61.2804 8.13832 61.677 8.20237 61.4416 7.95843C61.3518 7.69361 61.1002 7.60811 61.0628 7.73863C60.9843 7.23583 60.6248 6.75251 60.6564 6.25287C60.5886 6.19906 60.574 6.25151 60.5016 6.11847C60.3191 5.40175 59.8887 4.67941 59.9294 4.04907C60.0426 4.23745 60.0464 4.0263 60.1093 4.00129C59.9543 3.86592 60.1489 3.76568 59.9562 3.76123C59.86 3.81102 59.8049 3.81018 59.8276 4.02135C59.6376 3.6203 59.4318 2.98393 59.4516 2.72024C59.4419 2.85184 59.3817 2.77192 59.3217 2.69014C59.4938 2.66822 59.4187 2.35127 59.2859 2.1362L59.176 2.13514L59.2287 1.95055C59.1679 1.87079 58.9891 1.91857 59.0093 1.65587C59.0436 1.63149 59.0783 1.60557 59.0926 1.55393C58.9336 1.33802 58.6864 1.04194 58.685 0.752461L58.76 0.491007C58.7079 0.384091 58.5601 0.223754 58.5821 0.434438C58.5245 -0.0410248 58.442 -0.333333 58.5209 -0.515637C57.9669 -1.18796 57.5929 -2.3028 57.325 -3.20649L57.4077 -3.20416C57.3992 -3.46729 57.2378 -3.28699 57.2347 -3.47188C57.3305 -3.41675 57.3287 -3.70501 57.4768 -3.54369C57.4436 -3.91331 57.205 -3.94594 57.0988 -4.1592C56.9907 -4.16156 57.2193 -3.99937 57.0818 -4.00263C57.0345 -4.02967 57.0036 -4.50374 56.839 -4.50971C56.8688 -4.61477 56.9991 -4.58264 57.0736 -4.55542L56.9341 -4.74284C57.023 -5.05576 57.431 -4.25584 57.5555 -4.59429L57.4696 -4.78109C57.564 -5.01577 57.8097 -4.32414 57.7049 -4.82811C57.5638 -5.0161 57.2921 -5.12772 57.288 -4.91828C57.1051 -5.34462 56.8711 -5.00845 56.7303 -5.48535C56.7751 -5.64263 56.8735 -5.11362 56.9655 -5.24385C57.0121 -5.50508 56.7546 -5.66973 56.7321 -5.88098C56.7475 -5.64306 56.5387 -5.78074 56.4658 -5.91435C56.4573 -6.17748 56.6557 -5.80352 56.5605 -6.14879C56.4573 -6.17749 56.2925 -6.4701 56.3208 -6.18035C56.0884 -6.24119 56.2595 -6.55234 56.0503 -6.68922C56.1498 -6.8441 56.4773 -6.43979 56.4238 -6.83586C56.312 -6.73402 56.0968 -7.24034 55.967 -6.97983C55.9572 -7.13885 56.055 -7.18734 56.1698 -7.10641C56.1821 -7.3422 55.767 -7.5377 56.0037 -7.69069L55.8469 -7.71927C55.8692 -7.79897 55.8715 -7.9034 55.9089 -8.03393C55.8514 -8.2195 55.5358 -8.57061 55.7427 -8.61886C55.7027 -8.6716 55.5756 -9.09587 55.4885 -8.88795C55.4883 -8.5983 55.6879 -8.6198 55.5466 -8.41265C55.6407 -8.64724 55.4045 -8.78398 55.304 -8.91906L55.374 -8.96896C55.3144 -9.04945 55.2642 -9.2625 55.1618 -9.29145C55.2289 -9.23707 55.2702 -9.28991 55.2659 -9.36816L55.1166 -9.42431C54.9388 -9.77191 55.2973 -9.57782 55.1474 -9.9237L55.3271 -9.68257C55.2882 -9.73563 55.3595 -9.89289 55.2676 -10.0516C55.1376 -10.0827 54.9677 -10.1656 54.8651 -10.1952C54.7527 -10.3809 54.958 -10.3246 54.7829 -10.4865L54.997 -10.2694C55.0453 -10.242 55.1194 -10.502 55.0298 -10.7698C54.9369 -10.9292 54.6943 -11.145 54.7227 -10.8549C54.6776 -10.9892 54.6824 -11.1992 54.7959 -11.1179C54.6599 -11.4112 54.6924 -11.0403 54.5399 -11.282C54.5771 -11.4132 54.5715 -11.7816 54.611 -12.018L54.8808 -11.8017L54.8232 -11.985C55.0451 -11.7952 54.8956 -12.1405 55.0916 -12.0567C55.0755 -12.1893 54.9743 -12.3235 54.8956 -12.4311C54.7687 -11.9868 54.4283 -12.7318 54.2388 -12.5535C54.0164 -13.0338 54.6816 -13.0419 54.1629 -13.4504C54.1323 -13.3461 53.8826 -13.5374 54.0488 -13.2431C53.9731 -13.562 53.7562 -13.382 53.7302 -13.7787C53.91 -13.5365 53.8627 -14.1435 54.1227 -13.7941C54.0401 -13.7964 54.1371 -13.5569 54.1779 -13.5033C54.2219 -13.6593 54.4111 -13.5497 54.3082 -13.8681C54.224 -14.055 54.1335 -14.32 54.0295 -14.244C53.9042 -14.1942 54.1392 -13.9515 53.9696 -14.0341C53.7999 -14.4069 53.9737 -14.5342 53.695 -14.6213C53.7916 -14.3824 53.6795 -14.2787 53.5906 -14.2546L53.4452 -14.5219L53.548 -14.4942C53.4619 -14.9697 53.3502 -14.5787 53.23 -15.0282L53.3311 -15.2895C53.5096 -15.2309 53.4746 -14.6261 53.6848 -14.7809C53.6018 -15.0713 53.4511 -15.1277 53.4244 -15.4183C53.4642 -15.3645 53.4966 -15.2842 53.5369 -15.2315C53.5114 -15.337 53.7906 -15.5403 53.4751 -15.8908C53.3356 -16.0793 53.3731 -15.9195 53.2833 -15.8962C53.1074 -16.3485 52.9732 -16.4568 52.8634 -16.7497C53.0554 -16.7443 52.7102 -17.2796 52.9923 -17.0088C52.9404 -16.8252 53.1656 -16.1617 53.3829 -16.0515C53.5323 -16.2853 53.4714 -15.6804 53.71 -15.6477C53.5949 -16.0192 53.8016 -16.0663 53.914 -16.1683C53.8899 -16.2739 53.8023 -16.3554 53.7618 -16.4098C53.6238 -16.4129 53.6692 -16.2797 53.5441 -16.2306C53.4444 -16.6541 53.2466 -17.0289 53.0528 -17.2175C53.0695 -17.375 53.2071 -17.3714 53.2717 -17.2122C53.0763 -17.6912 52.9236 -18.2213 52.8104 -18.6992C52.7058 -18.3328 52.5946 -19.2039 52.4933 -18.944C52.5288 -18.6796 52.4543 -18.4183 52.3191 -18.5267C52.2818 -18.6872 52.4093 -18.5505 52.4313 -18.6294C52.2567 -18.7925 52.5082 -18.9958 52.271 -19.1344C52.4813 -18.7072 52.5455 -19.1267 52.7305 -19.0957C52.5367 -19.39 52.8475 -19.1185 52.7443 -19.4378C52.5519 -19.7319 52.3546 -20.1051 52.2046 -20.4524C52.2092 -20.9505 51.8389 -21.5925 51.7029 -21.9924C51.7149 -22.2284 51.9401 -22.1441 51.8972 -22.3821C51.8072 -22.6483 51.7682 -22.1208 51.7221 -22.544L51.7701 -22.5175C51.6897 -22.6236 51.6567 -23.2832 51.3616 -23.3176L51.5953 -23.2579C51.5889 -23.3373 51.5223 -23.3919 51.4821 -23.4463C51.5441 -23.4696 51.5737 -23.5743 51.6539 -23.4674C51.7084 -23.7552 51.4663 -23.974 51.375 -24.238L51.3157 -24.0298C51.0786 -24.4562 51.0934 -24.7975 50.9112 -25.2244L51.0278 -25.2478L50.876 -25.4879C51.0052 -25.4593 50.9979 -25.7222 50.8621 -25.8311L51.3571 -25.2391C51.3519 -25.0286 51.1546 -25.4018 51.0824 -25.2475C51.0185 -25.1156 51.1805 -24.7177 51.3099 -24.6867C51.2718 -24.8466 51.2448 -24.8465 51.1652 -24.9542C51.3049 -25.0564 51.3751 -24.8176 51.5173 -24.734C51.4846 -24.8135 51.4946 -24.9452 51.4396 -24.9468C51.5678 -24.8113 51.6321 -24.6531 51.7221 -24.3869C51.6028 -24.5485 51.6573 -24.2572 51.5903 -24.3113C51.7349 -24.3343 51.8595 -24.0926 51.928 -23.7502C51.8455 -23.4626 52.2306 -23.1627 52.311 -22.7657C52.1216 -22.8759 51.9459 -23.038 51.8142 -23.2526C51.8217 -22.9899 51.9044 -22.9865 51.912 -22.7227C52.0536 -22.6401 52.2397 -22.6084 52.4043 -22.3154L52.307 -22.2653C52.4512 -21.9976 52.6035 -22.0468 52.6919 -21.676C52.8419 -21.0399 53.0481 -20.4026 53.1881 -19.9254L53.0914 -19.8744C53.3959 -19.6823 53.456 -19.0235 53.6681 -18.7014C53.7644 -18.0665 54.1894 -17.4239 54.1127 -17.0579C54.5353 -16.0198 54.9132 -15.115 55.2318 -14.001L55.0226 -14.1378C55.1963 -13.9759 54.9783 -13.9818 55.0626 -13.7955C55.1102 -14.0564 55.3042 -13.5773 55.4398 -13.4701C55.4825 -12.9421 55.8125 -12.3531 56.0579 -11.952L55.9607 -11.9018C56.2956 -11.5247 56.2963 -10.9451 56.442 -10.3876C56.4198 -10.3108 56.3552 -10.1805 56.4196 -10.0211C56.6817 -9.7776 56.72 -9.61848 56.9647 -9.21642C57.0675 -8.89839 57.1933 -8.36854 57.2333 -8.02446C57.8535 -6.90278 58.1 -5.63227 58.6424 -4.43377L58.5508 -4.30475C59.1988 -3.18199 59.4445 -1.62273 59.9096 -0.635691L59.6712 -0.668396C59.712 -0.325285 59.9633 0.04986 60.083 -0.0796272C60.1246 0.264296 60.4443 0.69553 60.3412 0.955663C60.4103 1.29896 60.5673 1.32997 60.684 1.59579C60.82 2.28344 60.9175 2.52354 61.1578 3.13513L61.1207 2.97632C61.0532 2.92243 60.9634 2.94465 61.0006 3.10451C61.133 3.3186 61.2222 3.97905 61.3932 3.66757C61.4663 4.38022 62.0119 5.18479 62.0295 5.8953C62.0792 5.81822 62.1448 5.97785 62.2123 6.03207C62.4042 6.61589 62.4662 7.27509 62.7313 7.70499C62.7278 7.8091 62.5692 7.59377 62.6389 7.83426C62.71 7.96697 62.7278 7.8091 62.8216 7.97038C63.2535 8.87736 63.3124 9.93081 63.6238 10.7821C64.2489 12.2717 64.7 13.8905 65.1964 15.3511L65.1416 15.3502C65.4893 15.7806 65.3208 16.5657 65.7321 16.8658C65.7223 16.997 65.8533 17.3167 65.7302 17.2611C65.9902 17.6094 65.9589 18.3978 66.3111 18.9086C66.2991 18.855 66.2794 18.8288 66.2385 18.7756C66.3143 19.3819 66.6268 19.8381 66.7231 20.4729C66.6821 20.4187 66.6303 20.3124 66.5756 20.3107C66.5562 20.5739 66.9628 20.7951 66.7656 21.0003C66.811 21.133 66.9161 21.0567 66.8824 20.9768C67.2169 22.3276 67.8247 23.6876 68.3234 25.0438C68.4994 26.0748 67.9417 25.2336 68.3707 25.9532C68.3451 26.0314 68.4766 25.9695 68.4311 25.9964C68.5948 26.2754 68.3161 26.5503 68.5087 26.7187C68.6271 26.5854 68.6353 26.831 68.7262 26.8088C68.826 27.4414 68.733 27.605 68.9977 28.0443L68.9092 28.0334C69.3068 28.5203 69.399 29.203 69.8021 29.5919C70.841 32.6489 71.9325 35.5479 72.9298 38.5333C73.8393 41.5091 74.8895 44.3708 75.7285 47.42C75.7536 48.1898 75.7763 48.241 76.1087 48.9878C76.0657 48.9673 76.0426 48.9209 76.0288 48.9828C76.2069 48.9683 76.2204 49.5226 76.403 49.5453C76.7314 50.667 77.1077 51.676 77.4787 52.819C77.4025 52.6438 77.2375 52.597 77.3179 52.8082L77.4964 52.9991L77.4622 53.0504C77.5342 53.1893 77.6678 53.3233 77.6719 53.1545C78.7444 55.9807 79.3253 58.9145 80.2759 61.7148C80.4226 62.4054 80.7939 63.3356 81.0626 64.0507C81.537 66.2741 81.9856 68.2712 82.8476 70.4069C82.8465 70.4062 82.3253 70.2597 81.9346 69.3892Z" fill="#FC6B7E" stroke="#FC6B7E" stroke-width="2.5572"/>
<path d="M64.6243 18.4152L64.5322 18.2539L64.6132 18.256L64.6243 18.4152Z" fill="#FC6B7E" stroke="#FC6B7E" stroke-width="2.5572"/>
<path d="M68.7706 31.2245C68.873 31.3825 68.7404 31.3673 68.7388 31.3994C68.6807 31.2457 68.8483 31.4277 68.7706 31.2245Z" fill="#FC6B7E" stroke="#FC6B7E" stroke-width="2.5572"/>
<path d="M71.3734 38.0108L71.355 37.96L71.5111 37.9289L71.3734 38.0108Z" fill="#FC6B7E" stroke="#FC6B7E" stroke-width="2.5572"/>
<path d="M11.5092 21.9793C12.2457 21.1935 13.5895 21.3123 14.4699 20.6784C14.578 20.6202 14.5278 20.9593 14.7665 20.81C15.5947 20.1173 17.1696 19.8617 18.4255 19.7832L18.3798 19.8822C18.619 19.8663 18.8067 19.5253 19.0522 19.485C19.0707 19.5354 19.0007 19.5817 19.0776 19.6336C19.087 19.4612 19.4778 19.426 19.5403 19.2795C19.6524 19.3096 19.6823 19.4341 19.8237 19.4627L19.9013 19.2445C20.1395 18.7086 20.8155 18.9812 21.2547 18.602C21.2433 18.6505 21.2033 18.6982 21.2563 18.7245C21.9908 18.2082 23.0271 17.9251 23.9096 17.5371C23.8933 17.6105 23.8959 17.7342 23.9719 17.786C23.9575 17.5876 24.2243 17.4497 24.4571 17.3345C24.6284 17.4883 24.8207 17.026 25.1413 17.0379L25.1307 17.088C25.2786 16.8213 25.4821 17.1003 25.5774 16.8072L25.7599 16.9125C25.7667 16.6157 26.1112 16.9514 26.2426 16.7596L26.2193 16.7065C26.3635 16.5881 26.4927 16.6938 26.6315 16.5998L26.656 16.6263C26.992 16.4398 27.2488 16.5207 27.1728 16.316C27.3523 16.4413 26.8496 16.5041 27.1253 16.6826C28.2366 16.0868 29.4673 15.7347 30.6545 15.3469C30.8164 15.3867 30.9106 15.3842 30.9664 15.453C31.0713 15.3728 31.4012 15.2704 31.4747 15.1293C31.4362 15.1461 31.5857 15.2108 31.6518 15.2009C31.8936 15.2095 31.814 14.8958 32.0815 14.9123C32.0051 14.9984 31.9946 15.0757 32.0513 15.1431C32.2016 14.9154 32.4804 14.8536 32.7028 14.7236C32.6769 14.7707 32.6257 14.8102 32.6559 14.8726C32.8581 14.6041 33.1461 14.7571 33.338 14.5666L33.2908 14.7146C33.7074 14.741 33.3187 14.4282 33.6659 14.411C33.6015 14.4738 33.6438 14.5122 33.6456 14.5654C33.8728 14.2505 34.3779 14.1668 34.6517 13.9968C34.6393 14.0191 34.6544 14.0501 34.6544 14.0501C34.9695 13.9181 35.3297 13.8765 35.6553 13.6661C35.8022 13.6778 35.7076 13.9732 36.0362 13.8181C35.9455 13.5809 36.5859 13.5306 36.2955 13.3234C36.6011 13.2684 37.0934 13.2089 37.2621 13.064C37.1602 13.1985 37.5001 13.3125 37.2636 13.4119L37.4945 13.4983C37.4991 13.6059 37.2944 13.5261 37.3931 13.6316C37.5123 13.5827 37.8366 13.3719 37.9581 13.376C38.1359 13.1549 38.2543 12.8123 38.6104 12.6635C38.4688 12.8133 38.7943 12.8975 38.6905 12.977L39.0516 12.35C39.1696 12.2993 39.1394 12.5318 39.2952 12.4119C39.2651 12.3509 39.3292 12.2871 39.3664 12.218C39.4208 12.2306 39.8528 11.9944 39.9824 12.2144C40.0661 12.2907 39.8003 12.3289 39.9624 12.3694C40.1865 12.2941 40.17 12.2101 40.3938 12.1337L40.4084 12.1642C40.5683 12.1512 40.8131 11.9213 40.6093 11.8426C40.5036 11.8682 40.6947 11.9726 40.5196 11.9531C40.5794 11.7813 40.8282 11.6585 41.0521 11.5832C40.9879 11.6467 41.0176 11.7066 41.0085 11.7839C41.2503 11.4994 41.5514 11.3371 41.8635 11.15C41.8322 11.0352 41.8041 11.396 41.7352 11.3522C42.2182 11.3686 42.5562 10.8417 42.99 10.954C42.9376 10.9932 42.9063 10.8041 42.9206 10.8343C43.1335 10.7813 43.1769 10.9477 43.2929 10.8431C43.3374 10.9349 43.4536 10.7574 43.5839 10.683C43.6334 10.5898 43.6354 10.718 43.5172 10.7681C43.6853 10.6233 44.4165 10.2239 44.9115 10.2185C44.8823 10.1576 45.1126 9.8958 45.2179 9.86964L45.2256 10.0315C45.3486 10.0897 45.5678 9.90648 45.6262 10.0283C45.7888 9.77652 44.8255 10.4573 45.079 10.2206C45.1964 10.3198 45.4186 9.8496 45.4195 10.0728C45.6258 10.0004 45.7729 9.76802 46.0163 9.8429C45.9508 9.83752 45.9142 10.103 46.0788 10.0387C46.3652 9.91664 46.1399 9.94071 46.3632 9.8136L46.4936 9.70432C46.457 9.55649 46.7639 9.63846 46.6017 9.5122C46.6766 9.62004 47.0072 9.29999 47.0544 9.54987L47.0745 9.75186C47.1975 9.69665 47.2191 9.48513 47.2922 9.36892C47.3147 9.38138 47.3605 9.40818 47.3639 9.44117C47.2909 9.14543 47.6764 9.36668 47.7557 9.09416C48.0559 9.10796 48.439 8.88287 48.6237 9.02265C48.801 8.86841 48.9551 8.70341 49.2101 8.68984C49.172 8.73194 49.1105 8.76117 49.1175 8.8278C49.2923 8.86528 49.304 8.77716 49.4235 8.68684C49.4074 8.73978 49.773 8.76042 49.9699 8.81012C50.1464 8.65759 50.0259 8.52433 50.0155 8.4222C50.2948 8.64694 50.5333 8.05167 50.8512 8.23446C50.7932 8.29701 50.5981 8.47095 50.7914 8.48775C51.0705 8.71184 51.1003 8.15499 51.446 8.19461L51.2953 7.98177C51.4769 8.08523 51.6946 7.70123 51.742 7.95249C51.8153 7.8344 52.1225 7.91555 52.0145 7.69572C52.5729 7.73079 53.1805 7.18874 53.6187 7.50382C53.677 7.44225 53.867 7.4246 53.7924 7.31741C53.6328 7.2269 53.6575 7.46294 53.5852 7.38906C53.6464 7.36138 53.64 7.29386 53.6362 7.25989C53.8075 7.263 53.9338 7.24045 53.8504 7.47949C54.239 7.5117 54.0767 6.97283 54.5414 6.92197C54.5525 7.02386 54.5974 7.04952 54.72 6.99301L54.909 6.75105C55.2032 6.69789 55.1392 6.91665 55.1987 7.07646C55.3403 6.99983 55.5274 6.94829 55.5565 6.80503L55.8053 6.94954C55.6245 6.8451 55.8978 6.81198 55.9557 6.74911L55.8978 6.81198C55.9477 6.8712 56.1082 6.77267 56.1895 6.72413C56.1365 6.63038 55.9455 6.6473 55.8389 6.64982C55.8931 6.55372 56.0179 6.53166 56.0928 6.41487C56.1105 6.5846 56.3748 6.44853 56.4999 6.42639C56.6484 6.41639 56.6086 6.2337 56.6505 6.22662C56.6807 6.30798 56.8791 6.16775 56.8094 6.31769C56.7711 6.35914 56.6764 6.27207 56.6224 6.36955C56.7328 6.40165 56.7685 6.54835 56.9226 6.38335C57.0386 6.25899 56.785 6.08157 57.0857 6.0952C57.0279 6.15766 57.0355 6.22519 56.9992 6.29971L57.2772 6.30096L57.2411 6.15296C57.2869 6.1787 57.2676 6.19858 57.2896 6.213C57.3149 6.0365 57.6581 6.04215 57.6596 5.85255C57.7818 5.79652 57.959 5.86626 58.0855 5.84363L58.0664 5.86383C58.2419 5.90106 58.4204 5.78127 58.5134 5.64356L58.517 5.67719C58.6014 5.66246 58.7851 5.57793 58.8588 5.46009C59.0985 5.50311 59.1042 5.9839 59.2711 5.72898C59.4768 5.65709 59.5103 5.35883 59.3969 5.29326C59.801 5.27057 60.1475 4.89766 60.5652 5.0105C60.5997 4.93476 60.5542 4.90894 60.6535 4.83915C61.2191 4.71939 61.7527 4.29421 62.2799 4.43768C62.1409 4.54974 62.316 4.58568 62.346 4.66713C62.435 4.49553 62.5466 4.75079 62.5218 4.51338C62.4665 4.38704 62.459 4.31912 62.2878 4.31601C62.5913 4.14035 63.087 3.98004 63.308 4.0435C63.1977 4.01205 63.2549 3.94943 63.3137 3.88737C63.3572 4.10329 63.6084 4.05721 63.7664 3.92504L63.751 3.78936L63.9114 3.88172C63.9684 3.81845 63.9025 3.59039 64.1226 3.6541C64.1479 3.70012 64.1744 3.74679 64.2192 3.77213C64.3742 3.60754 64.5825 3.3457 64.8216 3.38678L65.0489 3.51817C65.1296 3.46947 65.2403 3.31058 65.0694 3.30666C65.454 3.30572 65.6835 3.24693 65.8459 3.37132C66.3199 2.78601 67.1864 2.48857 67.8939 2.29096L67.9042 2.39277C68.1205 2.42114 67.9476 2.19502 68.1 2.21858C68.0686 2.32885 68.3067 2.3692 68.1952 2.52833C68.4959 2.54196 68.4876 2.25184 68.6482 2.15217C68.6342 2.01892 68.5339 2.27742 68.5163 2.10801C68.5316 2.05352 68.919 2.08541 68.8996 1.88285C68.9909 1.93514 68.9836 2.09144 68.9721 2.17948L69.1064 2.03485C69.3783 2.19092 68.7772 2.57692 69.0754 2.78081L69.2172 2.70231C69.4251 2.85358 68.8896 3.05511 69.2908 3C69.4254 2.8535 69.4775 2.53415 69.304 2.49805C69.6295 2.33502 69.317 1.99617 69.6905 1.89261C69.8271 1.97114 69.4043 2.01459 69.5256 2.14761C69.7484 2.24382 69.8465 1.9498 70.0178 1.95324C69.8234 1.93718 69.9066 1.69928 70.0061 1.62908C70.2224 1.65745 69.9425 1.84735 70.2139 1.78075C70.2224 1.65745 70.44 1.49702 70.2046 1.48918C70.2205 1.21095 70.5031 1.46835 70.5853 1.23005C70.7281 1.37585 70.4422 1.72091 70.7618 1.71337C70.661 1.56008 71.0479 1.36896 70.8133 1.16996C70.9433 1.18137 70.9979 1.30942 70.9479 1.43932C71.1447 1.48943 71.245 1.00524 71.4065 1.32045L71.4069 1.13085C71.4761 1.17019 71.5628 1.18844 71.6763 1.25402C71.8212 1.21038 72.0648 0.872154 72.1353 1.13499C72.173 1.09337 72.505 0.998922 72.3202 0.860609C72.0807 0.817503 72.128 1.06738 71.9359 0.862199C72.1437 1.01314 72.2218 0.741364 72.3187 0.637202L72.3703 0.731033C72.428 0.669301 72.5968 0.638773 72.6056 0.516441C72.5705 0.591287 72.6203 0.650179 72.6844 0.656374L72.7087 0.48021C72.9699 0.311802 72.8626 0.726109 73.1262 0.592074L72.9534 0.778571C72.9915 0.738258 73.132 0.849604 73.2497 0.759538C73.2562 0.603484 73.2996 0.40574 73.3089 0.283244C73.4459 0.171842 73.4296 0.417151 73.5376 0.224705L73.3898 0.457305C73.3742 0.51293 73.6002 0.642943 73.8083 0.571692C73.9264 0.480405 74.0692 0.212461 73.8334 0.20478C73.938 0.168789 74.1121 0.205786 74.0616 0.334062C74.284 0.209382 73.9822 0.194698 74.1594 0.041921C74.2734 0.107331 74.5772 0.154762 74.7785 0.23859L74.6395 0.540088L74.7826 0.495963C74.6584 0.742083 74.9221 0.60837 74.8818 0.838128C74.9888 0.83797 75.085 0.732589 75.1624 0.651227C74.7762 0.428763 75.3419 0.118105 75.1665 -0.14238C75.5307 -0.346289 75.6357 0.47698 75.8968 -0.10371C75.8061 -0.156902 75.9273 -0.437228 75.7086 -0.275337C75.961 -0.321819 75.7802 -0.616424 76.1044 -0.589925C75.9307 -0.403511 76.4255 -0.372269 76.175 -0.102541C76.1648 -0.204348 75.9811 -0.119828 75.9428 -0.0773189C76.0783 0.000154804 76.0156 0.217775 76.2636 0.137575C76.4057 0.0611053 76.6115 -0.0115215 76.5333 -0.151295C76.4736 -0.313539 76.3077 -0.0589546 76.3509 -0.256293C76.6341 -0.411015 76.765 -0.177412 76.7958 -0.508901C76.6125 -0.424863 76.5102 -0.578722 76.4772 -0.692182L76.6767 -0.832414L76.6689 -0.709353C77.0494 -0.745558 76.7096 -0.94139 77.0635 -1.02353L77.2945 -0.859968C77.2725 -0.647968 76.7672 -0.780602 76.9263 -0.497976C77.1541 -0.557652 77.1784 -0.735607 77.4148 -0.725573C77.3761 -0.684364 77.3145 -0.656185 77.2769 -0.614246C77.3604 -0.630119 77.5697 -0.255041 77.8129 -0.593101C77.9481 -0.737657 77.8215 -0.715021 77.789 -0.829377C78.137 -0.979936 78.2067 -1.12988 78.4326 -1.2223C78.4566 -0.985693 78.8481 -1.33335 78.6659 -1.02469C78.5064 -1.11592 77.9911 -0.935646 77.9321 -0.683332C78.1475 -0.464142 77.6384 -0.628872 77.6467 -0.338757C77.9368 -0.426121 78.0063 -0.163693 78.1072 -0.00974938C78.191 -0.0239159 78.2454 -0.120098 78.2843 -0.162122C78.2665 -0.332179 78.1631 -0.295869 78.1041 -0.457626C78.4394 -0.518354 78.7201 -0.707447 78.8474 -0.919034C78.9801 -0.875121 78.9975 -0.705632 78.8754 -0.649284C79.2425 -0.82004 79.6582 -0.93044 80.0367 -0.999716C79.7182 -1.18308 80.4221 -1.19181 80.1922 -1.35538C79.9788 -1.35059 79.7518 -1.48134 79.8215 -1.63233C79.9486 -1.6548 79.8544 -1.5174 79.9229 -1.47855C80.032 -1.67026 80.2372 -1.32939 80.3168 -1.60199C79.9947 -1.40524 80.3509 -1.2639 80.3527 -1.03984C80.5674 -1.23594 80.3888 -0.89185 80.6376 -0.972294C80.8523 -1.16661 81.1317 -1.35529 81.3967 -1.48941C81.8092 -1.41004 82.2853 -1.77284 82.5958 -1.88187C82.7927 -1.83217 82.7563 -1.56633 82.9467 -1.58415C83.1535 -1.65605 82.7116 -1.78225 83.0547 -1.77659L83.0399 -1.72122C83.1157 -1.80493 83.6562 -1.74827 83.6411 -2.10794L83.6262 -1.82794C83.6909 -1.8241 83.7262 -1.89829 83.7653 -1.93999C83.7937 -1.85984 83.8846 -1.80779 83.8081 -1.72456C84.0541 -1.61467 84.1992 -1.88156 84.404 -1.95532L84.2231 -2.05935C84.5406 -2.2894 84.825 -2.22063 85.1511 -2.38276L85.1876 -2.23526L85.3637 -2.3873C85.3592 -2.23191 85.5754 -2.20208 85.6454 -2.35388L85.2292 -1.82925C85.0544 -1.86673 85.3338 -2.05541 85.1955 -2.1675C85.0771 -2.2659 84.772 -2.12454 84.7654 -1.96921C84.8921 -1.99258 84.8879 -2.02605 84.9653 -2.10847C85.0704 -1.92073 84.8833 -1.86919 84.8353 -1.70581C84.8961 -1.73448 85.0065 -1.7027 84.9997 -1.77047C84.9066 -1.63202 84.7853 -1.57591 84.5785 -1.50401C84.6945 -1.62764 84.4617 -1.60331 84.4965 -1.67807C84.537 -1.49596 84.3555 -1.37771 84.0825 -1.34361C83.8326 -1.48812 83.6415 -1.05639 83.3251 -1.01578C83.3883 -1.23356 83.4966 -1.42682 83.6546 -1.55794C83.4385 -1.58744 83.4479 -1.48571 83.2309 -1.5153C83.1835 -1.35249 83.1848 -1.12721 82.9668 -0.967029L82.911 -1.09466C82.711 -0.95605 82.7742 -0.760494 82.4807 -0.706118C81.977 -0.614617 81.4802 -0.453972 81.1067 -0.351468L81.0502 -0.478529C80.9366 -0.130682 80.4006 -0.153617 80.1655 0.0608947C79.6549 0.0860937 79.1864 0.51641 78.8724 0.367496C78.0766 0.736457 77.3843 1.06975 76.5103 1.29894L76.5926 1.06064C76.4843 1.25137 76.457 0.982835 76.3152 1.05955C76.5379 1.1569 76.1705 1.32595 76.1019 1.47768C75.6716 1.45247 75.2334 1.77325 74.938 2.01732L74.8822 1.88968C74.6199 2.24794 74.1408 2.16319 73.7013 2.2608C73.6346 2.22211 73.5173 2.12298 73.3951 2.179C73.2325 2.46698 73.1066 2.49083 72.8103 2.73376C72.5625 2.81388 72.143 2.89105 71.8645 2.88964C71.0287 3.49039 70.0147 3.60733 69.1039 4.10065L68.9837 3.96837C68.1511 4.60325 66.8985 4.67643 66.1512 5.10543L66.143 4.81564C65.8653 4.81536 65.5923 5.07052 65.717 5.23757C65.4388 5.23819 65.1295 5.56965 64.8992 5.40373C64.6256 5.43839 64.6231 5.62792 64.4206 5.73289C63.8722 5.79938 63.6881 5.88439 63.2179 6.09097L63.3437 6.06859C63.3783 5.99317 63.3467 5.8789 63.22 5.90121C63.0625 6.03322 62.5297 6.04587 62.8125 6.30319C62.234 6.28823 61.6495 6.84364 61.0646 6.76043C61.1357 6.83325 61.0134 6.89074 60.9785 6.96623C60.5242 7.11711 59.9883 7.09629 59.6721 7.36039C59.5855 7.34067 59.7401 7.17657 59.5515 7.22713C59.4523 7.29546 59.5855 7.34068 59.466 7.43278C58.7802 7.83254 57.9176 7.74979 57.2601 8.00872C56.1208 8.56123 54.8488 8.87965 53.7148 9.27724L53.7075 9.20964C53.4029 9.57579 52.729 9.25158 52.5416 9.71548C52.4316 9.68395 52.1867 9.79868 52.2145 9.65477C51.9649 9.92458 51.3085 9.76944 50.9382 10.1292C50.9807 10.1223 50.9995 10.1019 51.0374 10.0591C50.5471 10.0634 50.2163 10.3821 49.7057 10.4073C49.7447 10.3645 49.8247 10.3164 49.818 10.2489C49.5975 10.186 49.4747 10.656 49.276 10.3819C49.1729 10.4185 49.2515 10.5595 49.3126 10.5297C48.2452 10.7436 47.2106 11.2938 46.163 11.7097C45.3368 11.7749 45.9497 11.21 45.4181 11.6338C45.3496 11.5906 45.4202 11.7623 45.3912 11.7021C45.1848 11.8632 44.9163 11.4782 44.8055 11.6913C44.9333 11.8573 44.7314 11.8311 44.7632 11.9468C44.2549 11.9766 44.1059 11.8375 43.7818 12.0998L43.7777 11.9921C43.4339 12.4115 42.8831 12.4246 42.6211 12.8652C40.2473 13.6975 38.0115 14.6182 35.6906 15.4097C33.3646 16.0941 31.1537 16.9691 28.7566 17.5556C28.1238 17.4728 28.0849 17.4933 27.5165 17.7937C27.5271 17.7436 27.5621 17.7219 27.5089 17.6957C27.5472 17.918 27.0909 17.8528 27.0993 18.075C26.2204 18.3151 25.4418 18.6311 24.5516 18.9208C24.6852 18.8525 24.6995 18.6555 24.5367 18.7236L24.4053 18.9161L24.3578 18.8661C24.2536 18.9346 24.1626 19.08 24.3028 19.11C22.1246 20.0179 19.7847 20.3024 17.6099 21.0634C17.0606 21.1428 16.3464 21.4642 15.7948 21.6906C14.0267 21.9485 12.4418 22.2077 10.8033 22.9575C10.8032 22.9561 10.8473 22.3336 11.5092 21.9793Z" fill="#FC6B7E" stroke="#FC6B7E" stroke-width="2.5572"/>
<path d="M77.7488 -1.01232C77.6159 -1.05773 77.6313 -1.11101 77.7762 -1.15502C77.8028 -1.10815 77.7635 -1.06754 77.7488 -1.01232Z" fill="#FC6B7E" stroke="#FC6B7E" stroke-width="2.5572"/>
<path d="M77.7291 -0.767844C77.6265 -0.732506 77.5575 -0.771932 77.4897 -0.80957C77.5201 -0.729668 77.7118 -0.938066 77.7291 -0.767844Z" fill="#FC6B7E" stroke="#FC6B7E" stroke-width="2.5572"/>
<path d="M74.9477 -0.173062C74.8854 -0.14464 74.7707 -0.0203666 74.6763 -0.106464C74.7678 -0.0545746 74.9525 -0.328542 74.9477 -0.173062Z" fill="#FC6B7E" stroke="#FC6B7E" stroke-width="2.5572"/>
<path d="M73.7442 0.374608C73.7018 0.381511 73.6797 0.369325 73.6414 0.411067C73.5535 0.391894 73.6091 0.297353 73.6687 0.268044L73.7442 0.374608Z" fill="#FC6B7E" stroke="#FC6B7E" stroke-width="2.5572"/>
<path d="M51.0951 8.12005L51.2148 8.03015L51.2251 8.12989L51.0951 8.12005Z" fill="#FC6B7E" stroke="#FC6B7E" stroke-width="2.5572"/>
<path d="M41.118 11.3518C41.0025 11.455 40.9954 11.2934 40.9687 11.2867C41.0872 11.2376 40.9615 11.4178 41.118 11.3518Z" fill="#FC6B7E" stroke="#FC6B7E" stroke-width="2.5572"/>
<path d="M35.8904 13.5653L35.9303 13.5498L35.9788 13.7474L35.8904 13.5653Z" fill="#FC6B7E" stroke="#FC6B7E" stroke-width="2.5572"/>
<path d="M22.0146 54.4637C22.7511 53.6779 24.0949 53.7966 24.9753 53.1628C25.0833 53.1045 25.0331 53.4437 25.2719 53.2944C26.1 52.6017 27.6749 52.3461 28.9309 52.2675L28.8852 52.3666C29.1243 52.3506 29.312 52.0097 29.5576 51.9694C29.5761 52.0198 29.5061 52.0661 29.583 52.118C29.5924 51.9456 29.9832 51.9104 30.0457 51.7638C30.1577 51.794 30.1877 51.9185 30.3291 51.947L30.4067 51.7289C30.6448 51.193 31.3209 51.4659 31.7598 51.0864C31.7484 51.135 31.7085 51.1827 31.7614 51.209C32.4959 50.6927 33.5322 50.4096 34.4149 50.0215C34.3987 50.0949 34.4013 50.2186 34.4773 50.2704C34.4629 50.072 34.7296 49.934 34.9624 49.8189C35.1338 49.9727 35.3261 49.5104 35.6467 49.5223L35.636 49.5724C35.784 49.3057 35.9874 49.5847 36.0827 49.2916L36.2652 49.3969C36.2721 49.1001 36.6166 49.4358 36.748 49.244L36.7247 49.1909C36.8689 49.0725 36.9981 49.1782 37.1368 49.0842L37.1613 49.1107C37.4974 48.9242 37.7542 49.0051 37.6782 48.8004C37.8576 48.9257 37.3549 48.9885 37.6307 49.167C38.7422 48.5711 39.9726 48.2191 41.1598 47.8312C41.3217 47.8711 41.416 47.8686 41.4717 47.9374C41.5766 47.8572 41.9066 47.7548 41.9801 47.6137C41.9416 47.6305 42.0911 47.6951 42.1572 47.6852C42.399 47.6939 42.3193 47.3802 42.5869 47.3967C42.5104 47.4827 42.4999 47.56 42.5567 47.6275C42.707 47.3998 42.9858 47.338 43.2082 47.2079C43.1823 47.2551 43.1311 47.2946 43.1613 47.3569C43.3635 47.0885 43.6514 47.2415 43.8433 47.051L43.7962 47.199C44.2128 47.2254 43.824 46.9126 44.1712 46.8954C44.1068 46.9582 44.1492 46.9966 44.151 47.0498C44.3781 46.7348 44.8833 46.6511 45.157 46.4812C45.1447 46.5035 45.1597 46.5345 45.1597 46.5345C45.4748 46.4024 45.8351 46.3609 46.1606 46.1505C46.3075 46.1622 46.213 46.4576 46.5416 46.3025C46.4509 46.0652 47.0912 46.015 46.8009 45.8078C47.1065 45.7528 47.5988 45.6933 47.7674 45.5484C47.6656 45.6828 48.0054 45.7968 47.769 45.8963L47.9999 45.9827C48.0045 46.0903 47.7998 46.0105 47.8985 46.116C48.0176 46.067 48.3419 45.8563 48.4635 45.8604C48.6413 45.6393 48.7597 45.2967 49.1158 45.1478C48.9741 45.2977 49.2996 45.3819 49.1959 45.4614L49.5569 44.8344C49.675 44.7836 49.6451 45.0161 49.8006 44.8962C49.7705 44.8353 49.8346 44.7715 49.8718 44.7024C49.9261 44.715 50.3582 44.4787 50.4878 44.6988C50.5714 44.775 50.3057 44.8133 50.4677 44.8538C50.6919 44.7784 50.6756 44.6944 50.8991 44.6181L50.9137 44.6486C51.0736 44.6356 51.3185 44.4057 51.1147 44.327C51.009 44.3526 51.2001 44.4569 51.0249 44.4375C51.0848 44.2656 51.3336 44.1428 51.5574 44.0676C51.4933 44.131 51.523 44.191 51.5139 44.2682C51.7556 43.9837 52.0567 43.8214 52.3688 43.6344C52.3376 43.5196 52.3095 43.8803 52.2405 43.8366C52.7235 43.853 53.0616 43.326 53.4954 43.4383C53.4429 43.4776 53.4117 43.2885 53.4259 43.3187C53.6388 43.2657 53.6823 43.4321 53.7983 43.3275C53.8428 43.4193 53.959 43.2418 54.0892 43.1674C54.1388 43.0742 54.1408 43.2024 54.0225 43.2524C54.1907 43.1076 54.9219 42.7083 55.4168 42.7029C55.3876 42.642 55.618 42.3802 55.7233 42.354L55.7309 42.5159C55.854 42.574 56.0732 42.3909 56.1316 42.5126C56.2942 42.2609 55.3308 42.9417 55.5844 42.705C55.7017 42.8041 55.924 42.334 55.9249 42.5572C56.1312 42.4848 56.2783 42.2524 56.5217 42.3273C56.4562 42.3219 56.4196 42.5874 56.5841 42.5231C56.8706 42.401 56.6452 42.4251 56.8686 42.298L56.9992 42.1886C56.9626 42.0408 57.2695 42.1227 57.1073 41.9965C57.1822 42.1043 57.5128 41.7843 57.56 42.0342L57.5801 42.2362C57.7031 42.1809 57.7247 41.9694 57.7978 41.8532C57.8203 41.8657 57.8661 41.8925 57.8695 41.9255C57.7965 41.6297 58.1823 41.8509 58.2613 41.5785C58.5615 41.5922 58.9446 41.3672 59.1293 41.5069C59.3067 41.3527 59.4607 41.1877 59.7157 41.1741C59.6776 41.2162 59.6161 41.2455 59.6231 41.3121C59.7979 41.3496 59.8096 41.2614 59.9292 41.1711C59.913 41.2241 60.2786 41.2447 60.4755 41.2944C60.652 41.1419 60.5315 41.0086 60.5211 40.9065C60.8004 41.1312 61.0389 40.536 61.3569 40.7188C61.2988 40.7813 61.1038 40.9553 61.297 40.972C61.5761 41.1961 61.6059 40.6393 61.9516 40.6789L61.8009 40.4661C61.9825 40.5695 62.2004 40.1854 62.2476 40.4368C62.321 40.3187 62.6281 40.3998 62.5201 40.18C63.0785 40.2151 63.6862 39.673 64.1243 39.9881C64.1827 39.9265 64.3726 39.9089 64.298 39.8017C64.1385 39.7112 64.1631 39.9472 64.0908 39.8734C64.1521 39.8457 64.1456 39.7781 64.1419 39.7442C64.3131 39.7473 64.4394 39.7247 64.356 39.9638C64.7446 39.996 64.5824 39.4571 65.0472 39.4062C65.0584 39.5081 65.1033 39.5337 65.2259 39.4772L65.4149 39.2353C65.7091 39.1821 65.6451 39.4009 65.7043 39.5608C65.8459 39.4841 66.033 39.4326 66.0621 39.2893L66.311 39.4338C66.1301 39.3294 66.4034 39.2963 66.4614 39.2334L66.4034 39.2963C66.4533 39.3555 66.6138 39.257 66.6951 39.2084C66.6421 39.1147 66.4511 39.1316 66.3446 39.1341C66.3987 39.038 66.5235 39.0159 66.5984 38.8992C66.6161 39.0689 66.8804 38.9328 67.0055 38.9107C67.154 38.9007 67.1143 38.718 67.1561 38.7109C67.1864 38.7923 67.3847 38.652 67.315 38.802C67.2767 38.8434 67.182 38.7564 67.128 38.8538C67.2384 38.8859 67.2744 39.0326 67.4282 38.8676C67.5442 38.7433 67.2906 38.5659 67.5913 38.5795C67.5335 38.642 67.5411 38.7095 67.5048 38.784L67.7828 38.7852L67.7467 38.6373C67.7925 38.663 67.7732 38.6829 67.7949 38.6974C67.8203 38.5209 68.1637 38.5264 68.165 38.3369C68.2872 38.2809 68.4643 38.3506 68.5909 38.328L68.5717 38.3482C68.7473 38.3854 68.9257 38.2656 69.0187 38.1279L69.0221 38.1617C69.1065 38.1469 69.2902 38.0624 69.3639 37.9445C69.6037 37.9876 69.6093 38.4683 69.7762 38.2134C69.9819 38.1415 70.0154 37.8433 69.902 37.7777C70.3061 37.755 70.6526 37.3821 71.0703 37.495C71.1048 37.4192 71.0593 37.3934 71.1586 37.3236C71.7242 37.2039 72.2578 36.7787 72.785 36.9221C72.646 37.0342 72.8211 37.0701 72.8511 37.1516C72.9401 36.98 73.0518 37.2353 73.027 36.9978C72.9716 36.8715 72.9641 36.8036 72.7929 36.8005C73.0964 36.6248 73.5922 36.4645 73.8131 36.528C73.7029 36.4965 73.76 36.4339 73.8188 36.3718C73.8623 36.5877 74.1135 36.5417 74.2715 36.4095L74.2561 36.2738L74.4165 36.3662C74.4735 36.3029 74.4076 36.0748 74.6278 36.1386C74.653 36.1846 74.6795 36.2313 74.7243 36.2566C74.8794 36.092 75.0876 35.8302 75.3268 35.8712L75.554 36.0026C75.6347 35.9539 75.7454 35.795 75.5745 35.7911C75.9591 35.7902 76.1886 35.7314 76.351 35.8558C76.825 35.2705 77.6915 34.973 78.3991 34.7754L78.4093 34.8772C78.6256 34.9056 78.4527 34.6795 78.6051 34.703C78.5737 34.8133 78.8118 34.8537 78.7003 35.0128C79.001 35.0264 78.9927 34.7363 79.1533 34.6366C79.1396 34.5033 79.039 34.7619 79.0214 34.5925C79.0367 34.538 79.4241 34.5699 79.4047 34.3673C79.496 34.4196 79.4887 34.5759 79.4772 34.6639L79.6115 34.5193C79.8834 34.6754 79.2823 35.0614 79.5805 35.2653L79.7223 35.1868C79.9303 35.338 79.3947 35.5396 79.7959 35.4845C79.9305 35.338 79.9827 35.0186 79.8091 34.9825C80.1346 34.8195 79.8221 34.4806 80.1956 34.3771C80.3322 34.4556 79.9094 34.4991 80.0307 34.6321C80.2535 34.7283 80.3516 34.4343 80.523 34.4377C80.3285 34.4216 80.4115 34.1838 80.5112 34.1135C80.7275 34.1419 80.4476 34.3318 80.719 34.2652C80.7275 34.1419 80.9451 33.9815 80.7097 33.9736C80.7257 33.6954 81.0082 33.9528 81.0905 33.7145C81.2332 33.8603 80.9473 34.2054 81.2669 34.1978C81.1662 34.0445 81.553 33.8534 81.3184 33.6544C81.4485 33.6658 81.503 33.7939 81.453 33.9238C81.6498 33.9739 81.7501 33.4897 81.9116 33.8049L81.9121 33.6153C81.9812 33.6546 82.0679 33.6729 82.1814 33.7385C82.3263 33.6948 82.57 33.3566 82.6404 33.6194C82.6781 33.5778 83.0101 33.4834 82.8253 33.3451C82.5858 33.302 82.6331 33.5518 82.441 33.3467C82.6488 33.4976 82.727 33.2258 82.8238 33.1217L82.8754 33.2155C82.9332 33.1538 83.1019 33.1232 83.1107 33.0009C83.0756 33.0757 83.1254 33.1346 83.1895 33.1408L83.2139 32.9647C83.475 32.7963 83.3677 33.2106 83.6313 33.0765L83.4585 33.263C83.4966 33.2227 83.6372 33.3341 83.7548 33.244C83.7613 33.0879 83.8047 32.8902 83.8143 32.7676C83.9513 32.6562 83.935 32.9015 84.043 32.7091L83.8952 32.9417C83.8796 32.9973 84.1056 33.1273 84.3137 33.0561C84.4318 32.9648 84.5746 32.6968 84.3387 32.6892C84.4431 32.6532 84.6175 32.6902 84.567 32.8184C84.7894 32.6938 84.4875 32.6791 84.6648 32.5263C84.7788 32.5917 85.0826 32.6391 85.2838 32.723L85.1448 33.0245L85.288 32.9803C85.1638 33.2265 85.4275 33.0927 85.3872 33.3225C85.4942 33.3224 85.5903 33.217 85.6677 33.1356C85.2816 32.9131 85.8472 32.6025 85.6719 32.342C86.0361 32.1381 86.1411 32.9614 86.4022 32.3807C86.3115 32.3275 86.4327 32.0472 86.2139 32.209C86.4664 32.1626 86.2856 31.868 86.6097 31.8945C86.4361 32.0809 86.9309 32.1121 86.6804 32.3818C86.6701 32.28 86.4864 32.3646 86.4482 32.4071C86.5837 32.4845 86.521 32.7022 86.769 32.622C86.9111 32.5455 87.1168 32.4729 87.0387 32.3331C86.9789 32.1708 86.813 32.4254 86.8563 32.2281C87.1394 32.0734 87.2703 32.307 87.3012 31.9755C87.1179 32.0595 87.0156 31.9056 86.9825 31.7922L87.182 31.652L87.1743 31.775C87.5548 31.7388 87.215 31.543 87.5689 31.4608L87.7998 31.6244C87.7778 31.8364 87.2726 31.7038 87.4316 31.9864C87.6594 31.9267 87.6838 31.7488 87.9202 31.7588C87.8815 31.8 87.8199 31.8282 87.7823 31.8701C87.8658 31.8543 88.0751 32.2293 88.3184 31.8916C88.4536 31.747 88.327 31.7697 88.2945 31.6553C88.6425 31.5048 88.7122 31.3548 88.9381 31.2624C88.9621 31.499 89.3536 31.1513 89.1714 31.46C89.0119 31.3688 88.4966 31.5491 88.4376 31.8014C88.653 32.0206 88.1438 31.8558 88.1521 32.1459C88.4422 32.0586 88.5117 32.321 88.6127 32.4749C88.6964 32.4608 88.7509 32.3646 88.7898 32.3226C88.772 32.1525 88.6686 32.1888 88.6096 32.0271C88.9449 31.9663 89.2256 31.7772 89.3529 31.5657C89.4856 31.6096 89.5029 31.7791 89.3808 31.8354C89.748 31.6647 90.1637 31.5543 90.5421 31.485C90.2237 31.3016 90.9275 31.2929 90.6977 31.1293C90.4843 31.1341 90.2572 31.0034 90.3267 30.8525C90.4539 30.83 90.3597 30.9674 90.4284 31.0061C90.5374 30.8144 90.7427 31.1553 90.8223 30.8827C90.5004 31.0794 90.8567 31.2207 90.8582 31.4449C91.0729 31.2488 90.8943 31.5928 91.143 31.5124C91.3578 31.3181 91.6372 31.1294 91.902 30.995C92.3147 31.0747 92.7908 30.7119 93.1012 30.6025C93.2981 30.6522 93.2616 30.918 93.4521 30.9002C93.6589 30.8283 93.217 30.7021 93.5601 30.7078L93.5453 30.7632C93.6211 30.6794 94.1616 30.7361 94.1464 30.3764L94.1316 30.6564C94.1963 30.6603 94.2316 30.5861 94.2706 30.5444C94.2991 30.6245 94.39 30.6766 94.3135 30.7598C94.5595 30.8697 94.7046 30.6028 94.9094 30.5291L94.7285 30.425C95.046 30.195 95.3304 30.2637 95.6564 30.1016L95.693 30.2491L95.8691 30.0971C95.8645 30.2525 96.0808 30.2823 96.1507 30.1305L95.7344 30.6548C95.5596 30.6173 95.8391 30.4286 95.7008 30.3166C95.5823 30.2182 95.2772 30.3595 95.2707 30.5148C95.3973 30.4915 95.3932 30.458 95.4705 30.3756C95.5757 30.5633 95.3886 30.6149 95.3405 30.7782C95.4014 30.7496 95.5118 30.7814 95.5049 30.7136C95.4119 30.852 95.2906 30.9081 95.0838 30.98C95.1998 30.8564 94.967 30.8807 95.0019 30.8063C95.0423 30.9884 94.8609 31.1067 94.5875 31.1405C94.3376 30.996 94.1466 31.4281 93.8301 31.4684C93.8933 31.2506 94.0013 31.0574 94.1596 30.9262C93.9435 30.8967 93.9529 30.9984 93.7359 30.9688C93.6885 31.1316 93.6898 31.3569 93.4719 31.5171L93.4161 31.3895C93.216 31.5281 93.2793 31.7236 92.9857 31.778C92.4822 31.8694 91.9855 32.0301 91.6117 32.1327L91.5552 32.0056C91.4416 32.3534 90.9056 32.3305 90.6706 32.545C90.1599 32.5702 89.6914 33.0005 89.3774 32.8516C88.5816 33.2206 87.8893 33.5539 87.0153 33.7831L87.0976 33.5448C86.9893 33.7355 86.962 33.467 86.8202 33.5437C87.0429 33.641 86.6755 33.8101 86.6069 33.9618C86.1767 33.9366 85.7384 34.2574 85.443 34.5015L85.3872 34.3738C85.1249 34.7321 84.6458 34.6473 84.2064 34.7449C84.1396 34.7062 84.0223 34.6071 83.9001 34.6631C83.7375 34.9511 83.6116 34.975 83.3153 35.2179C83.0675 35.298 82.6481 35.3752 82.3695 35.3738C81.5337 35.9745 80.5197 36.0915 79.6089 36.5848L79.4887 36.4525C78.6562 37.0874 77.4035 37.1606 76.6562 37.5896L76.648 37.2998C76.3703 37.2995 76.0973 37.5546 76.222 37.7217C75.9438 37.7223 75.6345 38.0538 75.4042 37.8879C75.1306 37.9225 75.1282 38.112 74.9256 38.217C74.3772 38.2835 74.1931 38.3685 73.7229 38.5751L73.8487 38.5527C73.8833 38.4773 73.8517 38.363 73.725 38.3853C73.5676 38.5174 73.0347 38.53 73.3175 38.7873C72.7391 38.7724 72.1545 39.3278 71.5696 39.2446C71.6407 39.3174 71.5184 39.3749 71.4836 39.4504C71.0292 39.6012 70.4933 39.5804 70.1771 39.8445C70.0905 39.8248 70.2451 39.6607 70.0566 39.7113C69.9573 39.7796 70.0905 39.8248 69.971 39.9169C69.2852 40.3167 68.4227 40.2339 67.7651 40.4929C66.6258 41.0454 65.3538 41.3638 64.2198 41.7614L64.2125 41.6938C63.908 42.0599 63.234 41.7357 63.0466 42.1996C62.9367 42.1681 62.6917 42.2828 62.7195 42.1389C62.47 42.4087 61.8135 42.2536 61.4432 42.6134C61.4857 42.6065 61.5045 42.586 61.5427 42.5432C61.0524 42.5474 60.7216 42.8661 60.211 42.8913C60.2497 42.8486 60.3297 42.8005 60.3233 42.733C60.1028 42.6701 59.98 43.14 59.7812 42.8659C59.6782 42.9025 59.7568 43.0436 59.8179 43.0138C58.7505 43.2276 57.7158 43.7779 56.6682 44.1938C55.8421 44.259 56.4549 43.6941 55.9234 44.1179C55.8549 44.0747 55.9255 44.2463 55.8965 44.1861C55.6901 44.3472 55.4216 43.9622 55.3108 44.1753C55.4386 44.3414 55.2366 44.3152 55.2685 44.4308C54.7604 44.4606 54.6112 44.3215 54.2871 44.5839L54.283 44.4761C53.9392 44.8955 53.3883 44.9086 53.1264 45.3493C50.7526 46.1815 48.5168 47.1023 46.1958 47.8938C43.8699 48.5781 41.6589 49.4532 39.2619 50.0396C38.6288 49.9569 38.5902 49.9773 38.0218 50.2778C38.0324 50.2277 38.0673 50.206 38.0141 50.1798C38.0525 50.402 37.5962 50.3368 37.6046 50.5591C36.7257 50.7992 35.9471 51.1152 35.0569 51.4049C35.1905 51.3365 35.2048 51.1396 35.042 51.2076L34.9106 51.4002L34.8631 51.3502C34.7589 51.4187 34.6678 51.5641 34.8081 51.5941C32.6298 52.5019 30.29 52.7864 28.1152 53.5475C27.5658 53.6268 26.8516 53.9482 26.3001 54.1747C24.5319 54.4325 22.947 54.6917 21.3086 55.4415C21.3085 55.4405 21.3526 54.818 22.0146 54.4637Z" fill="#FC6B7E" stroke="#FC6B7E" stroke-width="2.5572"/>
<path d="M61.6014 40.6044L61.7212 40.5145L61.7314 40.6143L61.6014 40.6044Z" fill="#FC6B7E" stroke="#FC6B7E" stroke-width="2.5572"/>
<path d="M51.6251 43.8372C51.5096 43.9403 51.5025 43.7788 51.4758 43.772C51.5943 43.723 51.4686 43.9032 51.6251 43.8372Z" fill="#FC6B7E" stroke="#FC6B7E" stroke-width="2.5572"/>
<path d="M46.3975 46.0501L46.4374 46.0347L46.4859 46.2323L46.3975 46.0501Z" fill="#FC6B7E" stroke="#FC6B7E" stroke-width="2.5572"/>
</svg>
