<svg width="71" height="147" viewBox="0 0 71 147" fill="none" xmlns="http://www.w3.org/2000/svg">
<path d="M46.4992 15.4924C41.6122 19.4713 36.8105 23.5365 33.1383 28.7412C32.9816 28.8047 32.8419 28.8945 32.7203 29.0116C30.0929 30.624 28.1556 32.921 26.3889 35.3879C25.4662 36.6757 23.9838 37.8044 25.1922 39.6851C25.345 42.5708 27.6682 42.5895 29.6498 43.0604C30.2357 43.0727 30.8216 43.085 31.4075 43.0973C33.1549 44.1231 34.9462 43.2844 36.7191 43.2237C37.6691 43.0173 38.6191 42.8109 39.569 42.6045C40.7187 42.7208 41.7891 42.5389 42.7091 41.7807C44.7502 41.6918 46.6332 41.0697 48.4092 40.0882C49.6274 40.4207 50.4459 39.7573 51.2101 38.9613C51.4028 38.9174 51.5632 38.8209 51.6918 38.6713C52.0129 38.6523 52.3336 38.6328 52.6543 38.6134C53.7484 38.6587 54.6294 38.1267 55.4989 37.5636C56.2481 37.8889 56.1953 37.1051 56.5115 36.8315C56.8683 36.9718 57.1472 36.9016 57.3177 36.5343C57.819 36.4196 58.3204 36.3059 58.8217 36.1913C59.6121 35.7508 60.4035 35.3102 61.1948 34.8697C61.1948 34.8697 61.3745 35.0674 61.3754 35.0674C60.6922 36.2282 59.6915 37.0773 58.6254 37.8616C58.5344 38.0842 58.443 38.3073 58.3512 38.5299C57.5747 39.3194 56.7982 40.109 56.0222 40.899C53.52 43.0401 51.0187 45.1812 48.517 47.3228C48.517 47.3228 48.517 47.3228 48.5165 47.3232C46.7233 47.6737 46.0059 49.3762 44.71 50.3517C43.7656 51.2519 42.8218 52.1516 41.8779 53.0523L41.8746 53.0576C40.4329 53.0323 39.9416 54.3719 38.9977 55.0603C35.8961 58.2368 32.4225 61.0505 29.6996 64.5964C27.8355 67.0223 24.359 68.6029 25.5052 72.6051C25.5994 73.0589 25.693 73.5132 25.7871 73.967C26.5522 75.7474 27.3777 77.4478 29.8094 77.0613C29.0144 76.5273 28.2194 75.9933 27.4244 75.4593C27.7172 74.8358 28.0091 74.2122 28.3015 73.5891C27.2007 72.9306 28.7913 72.3325 28.3444 71.6889C29.1012 69.9362 29.8571 68.1835 30.6135 66.4304C32.3199 66.4785 33.2661 65.4834 33.89 64.045C34.1979 63.7266 34.5063 63.4077 34.8138 63.0888C35.8977 61.9718 36.9816 60.8549 38.065 59.7375C38.8321 59.2513 39.7125 58.8981 40.121 57.99C40.3361 57.9909 40.4634 57.8851 40.503 57.6736C40.34 57.1272 40.1766 56.5803 40.0132 56.0343C40.1761 56.5808 40.3391 57.1272 40.503 57.6736L40.5241 57.6551C42.6865 56.6741 44.0508 54.7983 45.5991 53.1291C45.8126 53.089 45.9894 52.9853 46.1297 52.8191C47.7255 52.6148 48.367 51.2231 49.3388 50.2421C51.4111 48.552 53.8338 47.2703 55.4294 45.0245C56.3315 44.7716 56.8461 44.0607 57.3802 43.3728C59.9491 42.1814 61.7441 40.104 63.5224 38.0073C64.3747 37.2891 65.8725 37.2226 65.8892 35.6617C66.7717 34.84 67.6097 34.0111 68.2259 32.9294C69.2911 31.0597 68.6253 29.8161 66.7563 29.6004C64.8959 29.3856 62.7681 29.2187 61.5668 31.3433C60.0612 30.958 59.3132 32.187 58.3103 32.8724C57.6949 33.5098 57.0795 34.1471 56.4641 34.7845C56.4641 34.7845 56.4641 34.7845 56.4631 34.7845C57.079 34.1476 57.6944 33.5102 58.3098 32.8729C56.4722 32.4132 55.8629 34.3364 54.5162 34.8295C50.1438 36.4129 45.7715 37.9964 41.3991 39.5798C40.9063 39.7066 40.4145 39.8335 39.9217 39.9604C38.9944 39.9911 38.0667 40.0224 37.1395 40.0532C36.9375 40.0202 36.7902 40.0959 36.6981 40.2789C36.084 40.4002 35.47 40.5215 34.8564 40.6423C34.039 40.7622 33.2211 40.8816 32.4033 41.0011C31.3652 40.3258 30.2906 39.8304 29.0174 40.3156C28.5972 39.9294 28.1765 39.5436 27.7563 39.1574C29.2921 37.2506 30.8284 35.3433 32.3648 33.4369C34.2115 32.1348 35.5971 30.3787 37.0448 28.6831C37.9984 27.7498 38.9515 26.8161 39.9052 25.8828C41.8415 24.1736 44.2793 22.9743 45.424 20.4594C48.0038 19.4618 49.1298 16.8786 51.1112 15.2225C51.707 14.7244 52.8182 14.1069 51.8674 13.1434C51.129 12.395 50.2235 11.8285 48.9366 12.5172C47.8488 13.0997 47.6853 14.2495 46.9038 14.9693C46.7702 15.143 46.6347 15.3177 46.4992 15.4924ZM61.6376 36.1374C61.6947 36.04 61.7641 35.9557 61.8449 35.8846C61.7641 35.9557 61.6951 36.0395 61.6376 36.1374ZM30.9881 32.9897C30.9144 32.0706 31.492 31.4344 31.9998 30.7683C31.4925 31.4339 30.9149 32.0702 30.9881 32.9897ZM29.0683 33.9096C29.0868 32.9213 29.3763 32.5001 29.8759 32.5161C29.3763 32.5001 29.0863 32.9218 29.0683 33.9096Z" fill="#FC6B7E"/>
<path d="M29.8103 77.0608C31.6785 78.2138 33.573 79.2369 35.8711 78.3142C36.9937 78.2198 38.2551 79.1134 39.2128 77.8452C40.0404 77.7945 40.915 78.0055 41.6447 77.4091C42.2287 77.3969 42.813 77.3843 43.397 77.3721C44.6888 77.3429 45.7296 76.679 46.7794 76.0363C47.268 75.909 47.7565 75.7816 48.2456 75.6539C49.4125 75.9337 50.2139 75.338 50.9295 74.535C51.4301 74.3662 51.9303 74.1968 52.4309 74.0279C55.1081 73.079 57.819 72.1935 59.8542 70.047C62.1578 69.989 63.6621 68.1917 65.6234 67.3909C66.6924 66.6085 67.7609 65.8266 68.8299 65.0441C68.6601 66.8601 67.0808 67.5444 65.9702 68.6049C65.466 69.7092 64.108 70.2326 63.9502 71.5721C63.7129 71.8732 63.4761 72.1738 63.2394 72.4745C61.367 73.5334 60.6 75.5417 59.2818 77.0772C57.4487 78.4765 56.1076 80.2701 55.0814 82.3156C53.4776 83.6237 52.7046 85.5377 51.5429 87.1683C50.7206 87.9377 50.1237 88.7943 50.4521 90.006C50.3107 90.1345 50.2185 90.292 50.1741 90.4781C50.006 90.6383 49.8379 90.7976 49.6702 90.9574C49.3681 91.8975 49.0659 92.8386 48.7637 93.7787C47.8076 94.6936 47.9086 95.605 48.7743 96.5132C49.2098 97.3484 49.6449 98.1841 50.0805 99.0193C52.5662 101.572 55.6414 102.803 59.1493 103.065C61.2194 103.42 63.2855 103.714 65.2626 102.661C65.5637 102.685 65.8643 102.709 66.1654 102.733C67.984 103.57 69.3049 101.8 70.9673 101.816C71.6032 102.04 72.2382 102.255 72.7193 101.529C72.9109 101.457 73.0883 101.359 73.2509 101.233C74.6524 101.537 75.8504 100.912 77.0715 100.395C77.3565 100.31 77.6415 100.225 77.9265 100.141C81.3558 99.0348 84.7793 97.9153 87.7809 95.8303C87.9963 95.81 88.169 95.7134 88.2979 95.5397C91.1326 94.8744 93.5706 93.4237 95.8805 91.7174C97.5049 91.2711 98.9347 90.495 100.079 89.2372C102.075 88.5971 103.779 87.49 105.251 86.0099C105.586 86.304 105.921 86.5992 106.256 86.8934C106.127 87.0741 105.999 87.2549 105.871 87.4362C103.682 90.3216 100.971 92.8368 99.5871 96.2934C98.83 96.4984 98.4335 97.0324 98.2501 97.7606C95.4314 100.395 93.3564 103.604 91.2563 106.794C90.4365 107.602 89.5874 108.39 89.3317 109.587C89.1839 109.754 89.0366 109.92 88.8888 110.088C86.2504 111.851 85.2339 114.851 83.4239 117.246C83.604 117.122 83.7851 117.011 83.9658 116.925C83.7846 117.011 83.6045 117.123 83.4244 117.247C83.0343 117.657 82.6447 118.066 82.2547 118.476C82.4292 118.668 82.6037 118.861 82.7786 119.053C82.6041 118.86 82.4297 118.668 82.2547 118.476C80.5454 120.313 78.7765 122.107 77.9054 124.546C77.346 125.246 76.7865 125.947 76.2271 126.648C75.4142 127.814 74.6183 128.992 73.7827 130.142C72.8815 131.382 72.2703 132.723 73.3964 134.046C74.504 135.348 75.8967 135.094 77.2191 134.234C78.0123 134.495 78.4262 133.841 78.9723 133.506C80.6728 133.006 82.4377 132.664 83.8767 131.517C86.3514 130.644 88.6243 129.381 90.8062 127.94C91.753 127.37 92.6994 126.8 93.6463 126.23C93.7423 125.986 93.8378 125.742 93.9339 125.498C93.7021 125.256 93.4698 125.014 93.2385 124.773C93.4698 125.014 93.7021 125.256 93.9358 125.499C93.8383 125.742 93.7423 125.986 93.6463 126.23C94.9051 126.089 95.6482 125.124 96.5519 124.414C98.4355 124.026 99.619 122.514 101.147 121.554C103.066 120.632 104.94 119.646 106.299 117.928C108.482 117.549 109.386 115.195 111.432 114.603C112.076 114.037 112.721 113.471 113.365 112.904C115.117 112.526 115.923 110.969 117.114 109.893C117.449 109.661 117.783 109.429 118.116 109.199C117.793 108.815 117.469 108.432 117.146 108.048C117.47 108.431 117.793 108.815 118.116 109.199L118.132 109.196C119.61 108.815 120.433 107.63 121.357 106.572C121.68 106.294 122.002 106.017 122.325 105.739C124.124 105.079 125.265 103.629 126.487 102.275C126.657 102.123 126.826 101.971 126.995 101.819C127.193 101.766 127.353 101.658 127.475 101.494C129.375 100.943 130.39 99.3084 131.708 98.0451C132.342 97.3685 133.548 97.3637 133.816 96.2549C133.925 96.1402 134.004 96.0068 134.052 95.8552C135.913 95.2195 137.04 93.7056 138.278 92.3238C138.917 91.7114 139.557 91.0989 140.196 90.4864C140.392 90.5162 140.511 90.4335 140.553 90.2404C142.025 89.8141 142.891 88.6373 143.852 87.5781C144.253 87.2148 144.735 86.9069 145.037 86.4748C145.479 85.8425 146.851 85.3775 146.002 84.4268C145.115 83.4324 144.249 84.2822 143.575 85.0595C142.209 85.49 141.085 86.1623 140.888 87.7576C140.761 87.7568 140.655 87.8021 140.567 87.8936C140.278 87.9666 139.99 88.0388 139.702 88.1109C138.617 88.1552 138.12 89.0372 137.461 89.6861C137.59 89.8115 137.72 89.9363 137.849 90.0612C137.994 89.9728 138.13 89.8712 138.255 89.7545C138.746 89.8381 139.236 89.9202 139.728 90.0023C139.237 89.9197 138.746 89.8381 138.255 89.7555C138.13 89.8712 137.994 89.9728 137.849 90.0612C137.719 89.9358 137.589 89.811 137.461 89.6861C135.881 91.5615 133.403 92.512 132.204 94.7809C130.148 95.4349 128.794 96.9692 127.48 98.5533C127.293 98.541 127.171 98.6241 127.114 98.8031C127.114 98.8031 127.114 98.8031 127.113 98.8036C125.679 98.8943 125.185 100.225 124.251 100.975C124.077 101.118 123.903 101.261 123.729 101.405C120.904 103.607 117.833 105.497 115.311 108.08C113.609 109.137 111.769 110.009 110.546 111.696C110.545 111.695 110.554 111.7 110.554 111.7C109.353 111.632 108.922 112.631 108.284 113.343C105.903 114.274 104.247 116.267 102.111 117.557C100.436 117.524 100.032 119.286 98.8089 119.892C98.8117 119.892 98.8146 119.892 98.8174 119.892C96.5414 120.992 94.3457 122.205 92.7198 124.222C92.5344 124.218 92.3923 124.295 92.2945 124.453C88.5099 124.936 85.6661 127.466 82.3724 129.017L82.352 128.984C81.8762 129.118 81.4008 129.252 80.9246 129.386C80.162 129.929 79.399 130.473 78.6365 131.016C78.4481 131.091 78.2779 131.197 78.1262 131.331C77.8835 131.579 77.6192 131.756 77.3277 131.863C77.6197 131.756 77.8839 131.579 78.1262 131.331C77.6535 130.923 77.3804 130.441 77.5618 129.793C78.3966 129.066 79.2305 128.34 80.0653 127.614C80.188 127.433 80.2899 127.241 80.3724 127.039C81.3608 124.963 83.3987 123.592 84.1736 121.374C85.0214 120.3 86.5429 119.752 86.6985 118.138C87.3972 116.961 88.6808 116.193 89.0426 114.781C89.2972 114.457 89.5513 114.132 89.8059 113.807C91.0525 112.784 92.257 111.729 92.6496 110.058C92.9476 109.731 93.2465 109.403 93.5445 109.076C95.088 107.997 95.7401 106.23 96.8329 104.804C97.5319 104.181 98.3378 103.633 98.395 102.562C102.361 98.4917 105.588 93.8471 108.784 89.1791C108.945 89.0675 109.023 88.9138 109.018 88.7181C110.386 88.0158 110.589 86.5012 111.348 85.3749C111.641 85.0622 111.935 84.749 112.228 84.4368C113.215 83.9897 113.23 83.1565 113.092 82.2628C113.387 81.6303 114.179 81.2308 113.98 80.3666C114.288 79.4133 114.671 78.4822 113.313 77.9358C112.243 77.5049 111.333 77.3182 110.258 78.0775C108.124 79.5844 106.146 81.2546 104.307 83.0992C102.95 82.6674 102.562 83.7692 101.984 84.5701C101.796 84.678 101.616 84.8001 101.447 84.9368C95.6329 88.2384 89.8187 91.5399 84.0044 94.8415C83.2555 95.0734 82.5071 95.3057 81.7581 95.5375C79.8447 95.2975 78.7381 96.7094 77.4077 97.6629C77.1309 97.6731 76.854 97.6843 76.5772 97.6946C74.4406 97.8467 72.3709 98.2791 70.4123 99.1738C70.8683 99.3476 71.3248 99.5218 71.7808 99.6956C72.523 99.1294 73.2797 99.0479 74.0676 99.2829C73.2788 99.0479 72.5225 99.1289 71.7808 99.6956C71.3239 99.5209 70.8683 99.3476 70.4123 99.1738L70.43 99.2185C69.583 99.155 68.7038 98.9705 68.1136 99.8497C67.6092 99.9342 67.1044 100.018 66.6006 100.102C65.2215 100.337 63.8433 100.572 62.4642 100.807C59.2449 100.036 55.7888 100.06 52.9615 97.9736C52.7919 97.8282 52.6228 97.6823 52.4537 97.5373C52.367 97.5556 52.2751 97.5641 52.1803 97.5678C52.2746 97.5646 52.3665 97.5561 52.4537 97.5373C52.0903 97.089 51.7268 96.6407 51.3629 96.1929C51.5043 95.3715 52.0011 94.5875 51.6253 93.7109C51.6878 93.479 51.7504 93.2471 51.8121 93.0152C53.7688 89.9394 55.726 86.8631 57.6832 83.7878C58.9139 82.4923 60.2559 81.2817 60.9332 79.561C61.2231 79.2313 61.5135 78.9012 61.8035 78.5715C62.6091 77.9507 63.4885 77.3824 63.4857 76.1909C63.6147 76.1384 63.7323 76.068 63.8394 75.9788C64.9534 75.7377 65.7472 75.2122 65.6707 73.9149C66.6682 73.6663 67.4301 73.1863 67.5143 72.0406C68.4384 71.6499 68.6942 70.6845 69.2707 69.9955C69.591 69.6902 69.9112 69.3858 70.232 69.081C72.6436 66.6436 75.4021 64.5159 77.0885 61.4296C77.2566 61.476 77.3705 61.4179 77.4315 61.2548C78.6809 60.8154 79.4025 59.8983 79.7731 58.6645C80.9475 57.3424 82.612 56.393 82.974 54.4531C83.7095 53.7684 83.7055 53.1231 82.7849 52.6515C81.7365 52.1145 80.4707 51.9592 79.7402 52.8919C77.7517 55.4329 74.6767 56.6659 72.6126 59.0795C72.6011 59.4352 72.5896 59.7909 72.5781 60.1466C72.3735 60.4886 72.169 60.8306 71.964 61.1722C72.1685 60.8302 72.3731 60.4882 72.5771 60.1466C72.5886 59.7909 72.6002 59.4352 72.6117 59.0795C69.4504 61.2907 66.2895 63.5014 63.1277 65.7121C62.0481 65.7337 61.5206 66.6179 60.7998 67.1996C59.5147 67.2656 58.6727 68.2577 57.5919 68.7515C56.5551 68.9376 56.3329 70.4481 55.0869 70.2936C52.9787 70.6663 51.1835 71.6974 49.4984 72.9578C49.0474 73.1382 48.5968 73.3191 48.1458 73.4996C47.9638 73.5278 47.818 73.6162 47.7093 73.7649C46.7656 73.4217 46.0485 74.0887 45.233 74.3204C44.6222 74.1228 44.1975 74.381 43.8715 74.8778C42.7638 74.9562 41.59 74.6084 40.5903 75.3844C38.8894 75.0919 37.4242 75.8677 35.9069 76.4126C33.2697 75.743 30.4015 75.6971 28.2962 73.5919C28.0044 74.2155 27.712 74.8386 27.4197 75.4626C28.2208 75.9933 29.0153 76.5268 29.8103 77.0608ZM86.2808 128.289C85.1627 128.745 84.0078 129.117 82.8353 129.446C82.6838 129.739 82.6218 129.986 82.6266 130.2C82.6213 129.987 82.6834 129.739 82.8353 129.446C84.0073 129.116 85.1617 128.745 86.2808 128.289ZM79.2529 133.094C79.4285 132.816 79.5677 132.527 79.5954 132.203C79.5677 132.527 79.428 132.816 79.2529 133.094ZM92.6148 107.284C92.3239 107.306 92.0329 107.329 91.7415 107.352C91.4179 108.253 91.0939 109.155 90.7703 110.056C91.0939 109.155 91.417 108.254 91.741 107.352C92.0329 107.329 92.3239 107.305 92.6148 107.284ZM107.653 84.4334C107.523 84.5906 107.39 84.7478 107.257 84.9037C107.485 85.313 107.993 85.6511 108.058 86.1056C107.994 85.6507 107.485 85.313 107.256 84.9041C107.39 84.7483 107.522 84.5911 107.653 84.4334ZM107.653 81.6645C107.512 81.7552 107.383 81.8525 107.274 81.9596C107.384 81.853 107.512 81.7552 107.653 81.6645ZM107.261 81.971C107.205 82.0265 107.155 82.0852 107.11 82.1467C107.154 82.0857 107.205 82.027 107.261 81.971ZM94.4205 90.1998C93.206 91.4343 91.6781 92.0194 90.1268 92.556C91.6785 92.0189 93.2065 91.4338 94.4205 90.1998ZM86.2135 94.0542C85.9888 94.2241 85.8608 94.4927 85.9466 94.9833C85.7711 95.1643 85.585 95.3171 85.3793 95.4167C85.585 95.3171 85.7706 95.1648 85.9466 94.9833C85.8604 94.4931 85.9888 94.2241 86.2135 94.0542ZM57.4057 83.8537C57.4053 83.8542 57.4448 83.8446 57.4943 83.8325L57.4057 83.8537ZM62.7628 74.8494C62.952 74.6452 63.1491 74.4434 63.3128 74.2346C63.1496 74.4438 62.9524 74.6457 62.7628 74.8494ZM68.843 66.9229C68.8425 66.9224 68.8416 66.9215 68.8406 66.9215C70.0665 67.0016 70.4396 66.696 70.4043 66.2056C70.4401 66.6955 70.0674 67.0015 68.843 66.9229ZM77.2035 59.4252C76.8653 59.5193 76.569 59.7113 76.3653 60.1198C76.5695 59.7108 76.8657 59.5188 77.2035 59.4252ZM71.1876 62.4773C71.2111 62.5503 71.2274 62.621 71.2377 62.6903C71.2279 62.6214 71.2111 62.5503 71.1876 62.4773ZM68.8451 64.7672C68.8451 64.7672 68.8425 64.8181 68.8395 64.8752L68.8451 64.7672Z" fill="#FC6B7E"/>
</svg>
