<svg xmlns="http://www.w3.org/2000/svg" width="62" height="127" fill="none" viewBox="0 0 62 127"><path fill="#0ba6e2" d="M34.4 16a62 62 0 0 0-10.2 14.3q-3 2.8-4.7 6.6c-.6 1.3-1.8 2.6-.4 4 .6 2.6 2.7 2.3 4.5 2.4l1.6-.3c1.7.7 3.2-.4 4.8-.7l2.4-1q1.6 0 2.7-1.2 2.7-.6 4.8-2.4 1.6 0 2.3-1.4l.4-.4.9-.2q1.5-.2 2.3-1.4c.8.2.6-.5.8-.8q.6.2.7-.4l1.3-.5 2.1-1.4q-.7 1.7-2 3l-.2.6-1.7 2.4-5.7 7c-1.5.5-1.9 2.2-2.9 3.2l-2.1 2.9c-1.3.2-1.5 1.5-2.3 2.2-2.2 3.3-5 6.4-6.8 10-1.3 2.4-4.1 4.4-2.5 7.8l.5 1.2c1 1.4 2 2.8 4 2l-2.3-1 .5-1.8c-1.1-.4.2-1.2-.3-1.7l1.2-5q2.1-.4 2.6-2.7l3-4.5q1.1-.7 1.6-1.8.3 0 .3-.4l-.7-1.4.7 1.4c1.8-1.2 2.7-3 3.8-4.8q.3 0 .4-.4c1.4-.4 1.8-1.8 2.5-2.8C44 44.8 46 43.3 47 41q1.1-.5 1.5-1.8a17 17 0 0 0 4.7-5.7c.6-.8 2-1 1.7-2.5q1-1.2 1.7-2.8.8-2.8-1.8-2.7c-1.7 0-3.7.3-4.4 2.4-1.4-.2-1.9 1-2.7 1.8l-1.3 2 1.3-2c-1.7-.1-2 1.7-3 2.4l-11 6.2-1.3.6-2.5.5q-.2 0-.3.3l-1.6.6-2.1.7c-1-.4-2.1-.7-3.2 0l-1.3-1 3.3-5.7q2-2.3 3.4-5l2.1-3c1.5-1.8 3.5-3.2 4-5.7 2.2-1.2 2.8-3.7 4.4-5.5.4-.5 1.3-1.3.3-2-.8-.5-1.7-.9-2.7 0-.9.6-.9 1.7-1.4 2.4zM23.3 34.1c-.3-.8.2-1.5.5-2.2-.3.7-.8 1.4-.5 2.2m-1.6 1q-.3-1.2.5-1.3-.8 0-.5 1.4"/><path fill="#0ba6e2" d="M29 73.6c1.9.7 3.7 1.4 5.7.2 1-.3 2.2.3 2.9-1 .7-.1 1.5 0 2-.7l1.6-.3Q43 71.3 44 70l1.3-.5q1.5-.1 2.2-1.4l1.3-.7c2.2-1.3 4.5-2.5 6-4.7 2-.4 3-2.3 4.7-3.3l2.5-2.6c.1 1.7-1.2 2.5-2 3.6-.3 1-1.4 1.8-1.3 3l-.5 1c-1.5 1.1-2 3-2.8 4.6a13 13 0 0 0-3 5.4c-1.2 1.4-1.6 3.2-2.4 4.8q-1 1.3-.5 2.7l-.2.5-.4.5-.3 2.7q-1 1.4.4 2.4l1.6 2q3.9 2.9 8.7 2.2c1.9 0 3.8 0 5.4-1.3h.8c1.7.4 2.6-1.4 4.1-1.6.6.1 1.2.2 1.5-.5l.5-.4c1.3 0 2.2-.7 3.3-1.3l.7-.4A33 33 0 0 0 84 81q3.5-1.6 6.2-4.6a8 8 0 0 0 3.4-2.9q2.4-1.2 4-3.6l1.1.6q0 .3-.3.5c-1.5 3-3.5 5.6-4.2 9q-.9.4-1 1.4-2.8 4.3-4.8 9.2-1 1.2-1.3 2.8 0 .3-.3.5c-2 2-2.5 4.8-3.8 7.2l-.8 1.3.5.4-.5-.4c-1.2 2-2.5 3.8-3 6.1l-1.1 2.1-1.7 3.5c-.6 1.3-1 2.6.3 3.6 1.2 1 2.4.5 3.4-.4.8 0 1-.6 1.5-1q2.3-.9 4-2.5 3.1-1.8 5.7-4.3l2.3-2 .1-.6-.7-.6.7.6-.1.7q1.4-.7 2.3-2.1c1.6-.6 2.4-2.2 3.6-3.3q2.5-1.5 4-4c2-.7 2.4-3 4.1-3.8l1.5-1.8c1.5-.6 2-2.1 2.9-3.3l.8-.7-1-1 1 1q1.7-1 2.4-2.9l.8-.9c1.5-.8 2.3-2.3 3.2-3.7q0-.2.3-.5.3 0 .4-.4c1.6-.8 2.3-2.4 3.3-3.7.4-.7 1.5-.9 1.6-2l.1-.3c1.6-.9 2.3-2.4 3.2-3.8l1.5-2q.2 0 .2-.2c1.3-.7 1.9-1.8 2.6-3l.9-1.1c.3-.6 1.4-1.3.5-2-1-.7-1.6.2-2 1q-2 .7-2 2.8-.2 0-.3.2-.4 0-.7.3c-1 .2-1.3 1-1.8 1.7l.4.3.3-.3h1.4-1.4l-.3.3-.4-.3c-1.1 2-3.2 3.2-4 5.4a10 10 0 0 0-3.5 4.1q-.3 0-.3.3c-1.3.3-1.5 1.6-2.2 2.4l-.4.4c-2.2 2.4-4.7 4.6-6.5 7.3q-2.3 1.6-3.7 4c-1 .1-1.3 1-1.8 1.8-2 1.2-3.1 3.2-4.8 4.7-1.5.2-1.6 1.9-2.6 2.6a15 15 0 0 0-4.8 4.8q-.2 0-.3.3c-3.3 1-5.5 3.7-8.2 5.6l-1.2.6-1.8 1.8-.4.3q-.8-.4-.7-1.3l1.9-2.3.1-.6c.6-2 2.2-3.5 2.6-5.6.5-1 1.8-1.8 1.7-3.3.4-1.1 1.5-2 1.6-3.3l.5-1q1.7-1.6 2-3.8l.6-1c1.2-1.2 1.5-3 2.3-4.4.5-.6 1.1-1.2 1-2.2a89 89 0 0 0 7.4-14c1-.8 1-2.2 1.5-3.4l.7-1q1-.8.4-2c.2-.6.8-1 .5-1.8.1-1 .3-1.8-1-2.1q-1.4-.5-2.7.6a41 41 0 0 0-4.5 5.4c-1.3-.2-1.5.9-1.9 1.7l-.4.4-14 11.5-2 1c-1.7.1-2.4 1.5-3.5 2.6l-.7.1a16 16 0 0 0-5.3 2.3l1.3.3-1.3-.3c-.7.1-1.5.1-2 1l-1.2.4-3.6 1.3c-3-.2-6 .4-9-1l-.5-.3-1.1-1c0-.8.3-1.6-.2-2.3v-.7l3.9-9.1q1.5-2 2.2-4.3l.6-1c.7-.7 1.4-1.4 1.2-2.4l.3-.3q1.6-.5 1.3-2 1.3-.6 1.3-2c.8-.5.9-1.4 1.3-2.1l.7-1c1.8-2.6 3.9-4.9 5-7.9l.2-.2q1.5-.9 1.7-2.7C71.6 48 73 47 73 45.2q.8-1.2-.5-1.6-1.7-.6-2.6.7c-1.4 2.5-4 4.1-5.4 6.6v1l-.3 1 .4-1-.1-1-7.5 7.4c-1 .2-1.3 1-1.8 1.7-1.2.2-1.8 1.3-2.6 1.9-1 .3-1 1.7-2 1.7A12 12 0 0 0 46 67l-1.1.7q-.3 0-.4.3c-.9-.2-1.4.5-2.1.9q-1-.1-1.1.7c-1 .2-2.1 0-2.9 1q-2.2.2-4 1.6c-2.5-.2-5 .2-7.2-1.4l-.5 1.8zm58.4 37-2.9 1.5zm2.4-19.7-.8.1-.4 2.6.4-2.6zM99.7 68l-.3.5q.6.4.9 1-.3-.6-1-1zM82 80q-.2.2 0 .9-.2-.7 0-.9m-27.3-4.6h.1m3.4-8.9.4-.6zm4.2-8q1.5-.2 1.3-.9.2.7-1.3.9m-.3-1.9"/></svg>