<svg xmlns="http://www.w3.org/2000/svg" width="412" height="412" fill="none" viewBox="0 0 412 412"><g clip-path="url(#a)"><rect width="411.766" height="411.766" fill="#f6f6f1" rx="15.837"/><path fill="#fc6b7e" d="M12.28 124.172c4.242 2.017 8.438 4.112 12.018 7.231a1 1 0 0 1 .35.122c2.188.703 3.997 2.024 5.713 3.498.896.769 2.169 1.324 1.626 2.9.4 2.116-1.279 2.541-2.63 3.232l-1.267.338c-1.084 1.052-2.53.761-3.824 1.031l-2.173.056c-.812.287-1.62.345-2.42-.041-1.493.296-2.967.179-4.427-.218-.823.456-1.533.121-2.227-.321a.65.65 0 0 1-.4-.124l-.708.128c-.784.226-1.516-.003-2.245-.257-.485.368-.586-.209-.863-.351-.234.164-.448.163-.636-.073l-1.15.018-1.952-.538-.096.176c.7.719 1.575 1.157 2.485 1.537l.317.435 2.106 1.304 6.57 3.324h.001c1.36-.063 2.181 1.043 3.292 1.52l2.529 1.455.003.003c1.04-.273 1.632.61 2.438.941 2.807 1.752 5.82 3.175 8.42 5.261 1.778 1.427 4.575 1.957 4.453 5.058l.037 1.036c-.24 1.425-.536 2.802-2.365 2.952l1.443-1.582-.966-1.199c.681-.671-.577-.823-.367-1.368l-2.573-3.407c-1.227.337-2.088-.216-2.795-1.148l-.838-.529-2.947-1.852c-.641-.216-1.341-.316-1.798-.901q-.233.057-.332-.162l-.019-.01c-1.74-.328-3.059-1.445-4.475-2.379a.67.67 0 0 1-.44-.131c-1.191.134-1.902-.76-2.779-1.299-1.8-.857-3.78-1.357-5.333-2.701-.698-.023-1.197-.447-1.705-.851-2.071-.408-3.738-1.595-5.397-2.799-.744-.369-1.84-.152-2.129-1.28-.784-.439-1.538-.891-2.175-1.565-1.102-1.166-.84-2.184.475-2.671 1.31-.484 2.82-.981 4.067.345 1.022-.546 1.78.212 2.628.531l1.675 1.058h.001l-1.675-1.058c1.249-.658 2.03.627 3.093.746l10.339 1.12 1.137.014 2.031-.425q.21-.088.36.086l1.398-.063 1.84-.174c.632-.672 1.322-1.221 2.33-1.095l.708-1.062-4.349-3.327c-1.567-.616-2.881-1.643-4.23-2.615l-2.566-1.522c-1.704-.895-3.682-1.332-4.956-2.951-2.044-.266-3.317-1.938-5.044-2.786-.52-.256-1.434-.506-.916-1.372.403-.673.958-1.243 2.012-.972.89.229 1.213 1.033 1.906 1.416zm14.326 9.927c-.109-.678-.64-1.037-1.125-1.429.485.392 1.016.751 1.125 1.429m1.553.327c-.188-.712-.472-.966-.831-.866.359-.1.643.154.831.866"/><path fill="#fc6b7e" d="M35.254 165.805c-1.15 1.165-2.34 2.241-4.168 1.979-.83.131-1.585 1.001-2.502.252-.609.109-1.205.417-1.839.114l-1.275.283c-.94.208-1.812-.089-2.686-.369l-1.13-.018c-.795.41-1.48.12-2.14-.335l-1.177-.102c-2.107-.213-4.227-.375-6.08-1.569-1.678.365-3.086-.67-4.648-.903l-2.737-1.133c.444 1.285 1.71 1.501 2.701 2.073.56.71 1.636.849 1.988 1.791l.674.528c1.543.436 2.454 1.754 3.68 2.633 1.575.689 2.863 1.751 3.968 3.051 1.393.663 2.291 1.912 3.42 2.888.732.412 1.316.926 1.293 1.862a.7.7 0 0 1 .284.292l.45.258 1.155 1.883c.855.494.942 1.171.476 1.982l-.502 2.046c-1.349 2.288-3.358 3.723-5.852 4.533-1.436.624-2.88 1.202-4.498.79l-.641.211c-1.17.928-2.439-.12-3.64.186-.42.274-.842.542-1.32.102a1.6 1.6 0 0 1-.436-.121c-.962.468-1.94.227-2.915.069l-.664-.033c-2.68-.194-5.357-.399-7.899-1.378a.52.52 0 0 1-.426-.119c-2.17.019-4.192-.6-6.167-1.427-1.255-.036-2.427-.345-3.479-1.054-1.558-.11-2.988-.61-4.316-1.422l-.57.818.374.325c2.095 1.702 4.503 3.044 6.117 5.302.584.015.966.331 1.227.826 2.507 1.409 4.578 3.366 6.663 5.305.736.44 1.49.86 1.887 1.681l.41.285c2.222.81 3.489 2.803 5.223 4.217v.001l1.064.683-.277.511.277-.511c1.563 1.028 3.161 2.014 4.223 3.626l1.587 1.225c.795.701 1.58 1.414 2.389 2.098.871.739 1.551 1.602.97 2.759-.572 1.139-1.625 1.202-2.735.813-.528.329-.944-.071-1.399-.218-1.32-.061-2.658.003-3.903-.572-1.946-.195-3.816-.708-5.65-1.365l-2.36-.736-.337-.48.375-.647-.377.648.34.479c-.937.12-1.646-.447-2.426-.801-1.432.052-2.557-.834-3.833-1.259-1.553-.328-3.084-.71-4.372-1.714-1.648.111-2.72-1.433-4.305-1.5l-1.7-.888c-1.337.035-2.195-.949-3.248-1.518l-.849-.325.5-1.005q-.25.502-.5 1.005h-.012c-1.137-.014-1.942-.727-2.8-1.33l-.847-.431c-1.42-.16-2.503-1.008-3.627-1.772l-.448-.241a.64.64 0 0 1-.406-.15c-1.472-.063-2.497-1.068-3.675-1.749-.579-.378-1.453-.168-1.842-.924a.75.75 0 0 1-.242-.248c-1.46-.131-2.544-1.028-3.685-1.809l-1.714-.992q-.205.085-.302-.115c-1.141-.048-1.977-.747-2.86-1.344-.355-.192-.758-.33-1.053-.589-.432-.38-1.508-.474-1.061-1.313.466-.877 1.243-.414 1.87.029 1.065.07 1.998.358 2.422 1.479a.32.32 0 0 1 .257.041l.665.005c.793-.16 1.309.391 1.901.744l-.214.34a2 2 0 0 1-.349-.15q-.51.22-1.023.44l1.023-.439a2 2 0 0 0 .349.149l.214-.34c1.476 1.079 3.438 1.329 4.708 2.76 1.604.11 2.856.981 4.088 1.896q.2-.063.31.116c1.055-.188 1.647.689 2.457 1.066l.454.22c2.435 1.095 4.993 1.92 7.276 3.344 1.42.465 2.906.771 4.09 1.776l-.005.005c.858-.262 1.346.385 1.934.788 1.89.253 3.441 1.403 5.216 1.96 1.207-.321 1.811.884 2.804 1.106l-.006.002c1.843.394 3.647.884 5.181 2.057a.34.34 0 0 1 .35.092c2.825-.32 5.332 1.009 7.991 1.55l.01-.028 1.104.039 1.945.776q.225.031.425.138c.27-.38.383-.777.137-1.214l-2.198-1.135a2.3 2.3 0 0 1-.324-.362c-1.083-1.328-2.801-1.961-3.755-3.43-.804-.628-2.002-.756-2.4-1.897-.715-.728-1.78-1.058-2.292-2.016l-.725-.57c-1.083-.521-2.142-1.071-2.722-2.212l-.822-.553c-1.308-.509-2.093-1.673-3.137-2.512-.616-.328-1.297-.582-1.527-1.347-3.592-2.246-6.75-5.039-9.89-7.854a.38.38 0 0 1-.252-.292c-1.114-.267-1.529-1.328-2.278-2.009l-.803-.524c-.794-.149-.952-.75-1.01-1.421-.325-.406-.97-.555-.979-1.217-.391-.635-.834-1.242.053-1.878.699-.501 1.325-.797 2.238-.437a33.7 33.7 0 0 1 5.197 2.583c.907-.552 1.382.177 1.942.655q.234.067.454.17l14.383 4.088 1.75.106c1.343-.512 2.394.315 3.526.77l.607-.124c1.574-.268 3.15-.321 4.726-.019l-.899.62c-.637-.279-1.2-.204-1.729.105.53-.309 1.092-.384 1.73-.105l.898-.62-.005.035c.602-.195 1.206-.485 1.789.048l1.14-.085 3.12-.221c2.195-1.128 4.702-1.722 6.38-3.733l.291-.405.552-1.167c-.248-.57-.746-1.05-.629-1.751l-.258-.471-5.884-5.643c-1.12-.721-2.306-1.36-3.1-2.486l-.806-.563c-.693-.307-1.43-.563-1.64-1.426a1 1 0 0 1-.293-.091c-.85.022-1.517-.218-1.691-1.171-.766-.003-1.403-.216-1.667-1.031-.738-.119-1.094-.773-1.633-1.17l-.858-.493c-2.177-1.338-4.551-2.391-6.318-4.328q-.17.096-.28-.065c-.982-.098-1.667-.634-2.153-1.462-1.085-.75-2.458-1.143-3.063-2.484-.654-.365-.765-.833-.182-1.338.664-.574 1.553-.91 2.247-.364 1.89 1.488 4.335 1.837 6.256 3.22l.214.767.626.634-.625-.635-.214-.766 8.04 3.125c.786-.175 1.325.372 1.95.666.942-.18 1.727.39 2.597.556.784-.048 1.212 1.006 2.087.674 1.592-.103 3.075.326 4.518.941l1.075.153a.48.48 0 0 1 .363.115c.623-.416 1.26-.059 1.892-.036.407-.251.76-.139 1.084.163.816-.139 1.605-.599 2.466-.214 1.18-.512 2.378-.21 3.573-.083 1.791-.952 3.86-1.492 5.012-3.389l.966 1.2q-.728.788-1.448 1.58M3.42 212.889c.89.133 1.793.198 2.7.229.161.185.25.353.285.509-.034-.156-.123-.324-.285-.509a24 24 0 0 1-2.7-.229m5.94 2.237c-.177-.17-.329-.355-.406-.585.077.23.23.414.405.585m-14.242-16.328.645-.105 1.181 1.787-1.18-1.786zm-14.93-13.887q.182.137.37.271c-.094.337-.402.671-.368 1.012-.034-.341.274-.675.368-1.012q-.187-.134-.37-.271m10.601 1.836c1.098.679 2.308.832 3.526.946-1.218-.114-2.428-.267-3.526-.946m6.625 1.339c.193.084.333.255.358.626-.025-.37-.165-.542-.358-.626m19.057-12.482-.068.001zM11 170.032c-.173-.115-.351-.226-.507-.348.155.122.334.234.507.348m-5.805-4.665.002-.001c-.874.274-1.198.119-1.26-.242.061.361.385.517 1.258.243m-.383-1.561.024.078z"/></g><defs><clipPath id="a"><rect width="411.766" height="411.766" fill="#fff" rx="15.837"/></clipPath></defs></svg>