<svg xmlns="http://www.w3.org/2000/svg" width="416" height="416" fill="none" viewBox="0 0 416 416"><g clip-path="url(#a)"><rect width="415.113" height="415.113" fill="#f6f6f1" rx="12.239"/><path fill="#fc6b7e" d="m385.815 162.016-.764.643c1.425-1.734 1.088-1.19.764-.643m29.629 75.75c.445.27.458.195.326.01-.354-.13-1.262-.841-2.273-1.68.21.322.678.801 1.947 1.67m-3.904-3.349a1 1 0 0 0-.107-.055c-1.825-1.68-1.183-1.077.107.055m105.335-48.894c.766.47 1.767 1.341 2.719 2.279l-.663.719.524-.703a43 43 0 0 1-2.58-2.295m-48.184 69.791c-.596.928-1.701 2.853-2.413 3.318.342-1.324 1.141-1.933 2.413-3.318m-39 29.613 2.307 3.08c-3.582-2.989-5.683-5.6-3.647-2.589.432-.16 1.633.907 3.108 2.413.369.376.757.777 1.151 1.196.568.61 1.154 1.237 1.741 1.869 1.454 1.564 2.924 3.143 4.268 4.59 1.347-1.785 2.535-3.404 3.347-4.622.405-.608.717-1.118.912-1.503q.148-.292.206-.487a.33.33 0 0 0-.034-.223l1.757-1.809c-.449.557-.457.696-.904 1.252 3.49-3.462 1.46-3.452 5.461-8.3 1.422-1.669 2.509-2.755 1.719-1.48l2.73-4.056c.89-1.105.86-.689-.027.411l4.476-5.943-.003.067c.485-.966 1.705-3.065 2.318-4.078 1.308-1.376-.47.837-.043.556l2.269-3.451c1.301-1.116-.526 1.786-2.31 4.006 3.406-2.227 1.831-2.907 7.532-8.994l-2.252 3.179c2.132-1.518 3.777-4.084 6.844-7.272-.833.673-6.332 6.231-3.852 2.494.85-.934 1.906-2.216 3.173-4.287.388.271 1.74-1.66 3.524-4.005l.37.544c1.81-2.629 1.405-2.626 2.331-4.281 2.225-2.767 3.059-3.052 3.894-3.461 3.562-4.431-3.021 2.626 1.011-2.764 3.088-3.591 4.921-6.371 8.091-11.07 2.199-2.484-.052.691.818-.139l1.403-2.623c.45-.561.429-.284.417-.142 1.364-2.073-.369-.544 1.88-3.722.097-1.249 5.686-5.686 8.016-9.968.868-.828-.05.688.366.549 3.638-5.529 3.171-4.697 5.948-9.406l3.154-3.396c-2.451 2.394-.235-1.372 1.734-4.654-.919.814-1.705 1.502-2.203 1.99l1.724-2.496.863-1.25.38-.558.334-.499c.456-.422.422-.026.06.867.197-.339.374-.65.495-.884.723-.743 1.085-.968 1.152-.789.072.175-.16.763-.552 1.553l-.472.455c-.155.148-.313.299-.444.416l-.817.734c-.616 1.414-1.141 2.78-.661 2.758.184-.356.598-.992 1.083-1.673-.159.373-.239.627-.078.522.176-.121.455-.707.936-1.586l.35-.166c.06-.03.109-.048.179-.089l.22-.142q.443-.285.928-.626.024-.256.035-.498l2.31-2.762-3.036-2.72-.785-.703-.198-.178-.13-.118-.255-.237-1.02-.947c-4.84-3.115-9.316-5.503-16.474-11.079 2.056 1.047.904-.331 1.38-.714 1.496 2.072 5.575 4.282 9.106 7.386-1.841-1.621-1.244-1.497-.7-1.174l-6.817-4.912c.46-.259-1.134-1.421-2.687-2.979.651 1.808-5.219-3.495-8.031-5.446.046-.387.888-.121 4.038 2.6-3.063-3.498-5.292-2.914-8.361-6.271.786.644 1.175 1.032 1.591 1.161-2.01-1.296-6.324-5.181-5.093-4.527l.782.644c-5.112-4.402-15.784-13.132-17.087-13.138.018-.127 1.317-.202 1.737-.069l-11.031-5.556c1.269.132-.781-3.77 3.776-.502-1.169-1.105-2.623-2.466-5.387-4.436.778.778 1.445 2.534.253 1.626-1.328-1.618-1.81-2.152-2.39-2.757-.293-.3-.606-.622-1.071-1.095-.226-.241-.494-.519-.812-.854-.047-.045-.065-.07-.134-.139a9 9 0 0 1-.192-.191q-.2-.194-.416-.407-.443-.434-.961-.947c.85.792.719 1.031.167.917a4.7 4.7 0 0 1-1.066-.397 8.7 8.7 0 0 1-1.372-.839q-.281.33-.584.646c.145-.274.05-.576.009-.926-.037-.352-.011-.764.469-1.359l.005.005-.005-.005a222 222 0 0 0-2.943 3.917l-.164.221-.08.111-.059.087-.227.338-.447.677-.902 1.353c.954-1.299-.484-.847-1.694-.018.613-.337-3.824 4.017-4.915 5.333l2.049-1.801c-5.091 5.148-3.785 6.261-8.758 11.441.433-.789.456-2.521-2.152.04-.739 1.603-3.119 7.246-7.165 12.163l-1.071.666-3.083 3.794c1.469-2.79 6.02-10.205 8.711-14.062-2.046 1.792-.793.285-3.559 3.254-1.203.836 1.187-1.921 1.992-2.799l-6.628 6.729c.766.147-4.482 5.706-3.834 5.818l6.548-7.924c.763.149-2.715 5.594-7.397 10.379-1.357 1.057.026-1.73-.23-1.779-.432.789-4.049 4.914-4.588 5.251l1.695-2.307c-2.74 2.539-3.542 5.019-7.074 7.841-1.091 1.096-3.784 2.773-3.685 3.235 2.28-1.317 4.306-.08 3.559 1.525-.408.362-6.091 5.409-7.575 6.436-2.175 1.446 1.603-3.739-.251-2.511.066.191-.737 1.364-1.09 1.838-1.224 1.075.058-.871-2.304 1.751.08.883-4.966 5.173-.735 1.599-2.231 2.636-2.617 2.57-5.379 5.534 1.202-.643-1.429 3.651-3.666 6.293.017-.266-.676.146-1.007.351a246 246 0 0 1-3.07 3.141c-1.006 1.013-1.939 1.947-2.848 2.859 1.205 1.005 2.373 1.984 3.61 3.017a210 210 0 0 0 3.831 3.109c.38.506 2.772 2.648 1.526 2.023.821.502 1.648.871 3.264 2.131 2.756 2.908-3.636-2.766-1.693-.351.441-.141 4.484 2.873 6.921 4.495-.335-1.023-5.217-4.273-7.655-5.901.496-.65 5.019 1.834 10.696 5.848 4.451 3.266 1.546 1.9 2.37 2.404 8.037 6.545 7.81 4.357 14.191 10.165 2.352 2.53-.523.91-.163 1.674-3.649-2.633-5.205-4.543-7.606-6.418l2.786 2.523c-1.229-.751-3.661-2.512-4.85-3.645 1.953 2.145 13.671 10.94 19.673 16.243 1.222.745 3.256 2.126 2.477 1.24l-2.028-1.513c-1.563-1.772 4.094 2.499 1.704.358 2.846 1.874 6.116 3.87 9.714 7.024l.334 1.025c.029-.202-2.228-2.218-3.393-2.91 1.726 1.029 5.243 5.181 7.44 5.923l-2.37-2.403c1.172.775 2.489 1.586 3.854 2.47q.498.327 1.01.659.252.138.507.281c.322.183.612.361.897.572a6.5 6.5 0 0 1 .591-.739c-.288.031-.361.041-.426.112-.061.063-.102.169-.216.237a3.3 3.3 0 0 1-.427-.745c.113.362.047.442-.217.301a5 5 0 0 1-.469-.317l-1.417-1.119c-1.966-1.562-3.78-2.995-2.416-1.341-1.926-2.543-3.98-3.583-6.721-6.624-.025.233.888 1.182-1.839-1.1a7 7 0 0 1-.72-.348c-.082-.071-.108-.099-.179-.161.05.052.088.09.14.14-.14-.071-.154-.076.051.053.611.593 1.085 1.099 1.237 1.357-1.664-.741-6.086-4.262-7.73-5.265-1.596-1.383.831.372.058-.509l-2.454-1.499c.049-.518-3.946-4.044.11-1.162l-3.496-2.792c-1.912-1.825-4.691-4.152-6.556-5.393-1.596-1.383-4.476-2.93-2.824-2.056l-5.666-4.143.016-.125c-5.391-4.339-11.616-8.278-17.33-13.807-.889-.638-1.798-1.284-2.822-2.05a19 19 0 0 0-.498-.368l-.332-.254a12 12 0 0 1-.697-.59l.197-.18c.237-.063.455-.113.655-.139.103-.156.297-.352.503-.537.702-.697 1.45-1.44 2.161-2.152 1.432-1.422 2.691-2.715 2.987-3.314 2.944-1.628 10.059-10.323 13.777-13.995l-.227-.484c2.488-2.592 4.755-5.194 7.674-8.575l-.508-.102c2.378-3.042 7.018-6.973 11.162-11.427-.16.415-1.252 1.506-2.075 2.23 5.712-4.603 10.007-11.643 15.062-15.938a19.3 19.3 0 0 1 2.739-2.894 4 4 0 0 0-.263.312c.121-.119.291-.299.467-.485.553-.476 1.13-.96 1.738-1.5-.552.426-1.068.846-1.491 1.234.864-.925 2.145-2.359 3.358-3.806l.892-.26c.105-.115.186-.207.291-.326 1.395-1.223.857-1.234-.075-.759a33 33 0 0 0 1.504-2.005c1.584-.569 3.206-3.768 5.203-4.702.234-.48 1.294-1.716 2.479-3.101.294-.349.598-.706.901-1.061.183-.213.216-.266.3-.378.078-.103.154-.209.227-.308.309-.414.615-.852.879-1.288.326.14.594.194.737.105.018.153.293.447-.24.012q.4.377.797.748l.383.349.245.215.296.251c.789.662 1.582 1.277 2.386 1.793l.311 1.031 4.063 2.339c1.925 2.073 2.686 2.978.251 1.55 5.625 3.758 4.369 3.284 9.216 6.406l-.463.119c1.583 1.295 4.426 2.989 5.172 4.023 3.052 3.485 17.346 14.549 25.945 22.579-1.029-2.328 3.875 3.88 4.791 3.504.355.644 1.518 1.806-.093.767 4.778 3.63 6.653 6.086 10.308 8.161.357.645-1.236-.517-.869-.005.407.263 1.614 1.038 1.992 1.559.368.512-.819-.388-1.624-.904a51 51 0 0 0 1.785 1.403l.088.065.032.014.062.032q.065.032.123.062.124.057.256.108c.348.137.737.25 1.145.346.199.218.531.363.86.497-.442.418-.775.74-1.053 1.035-.073.078-.127.135-.203.222l-.275.331q-.264.325-.493.64c-.619.848-1.083 1.677-1.562 2.712-.86.692-2.167 1.941.076-1.1-1.332 1.656-8.25 10.026-7.888 10.581-.533.428-1.858 2.319-2.143 2.805-2.952 3.744-3.253 4.041-6.074 7.775l.876-.962c-.537 1.923-2.252 3.178-4.493 6.216l.005-.134c-5.732 6.504-2.083 3.112-7.806 9.477l.656-.079c.308 1.249-5.108 5.613-7.838 9.763l1.307-1.247c-1.385 2.35-5.718 5.133-7.484 7.204-.433.413.462-.826.918-1.52-4.831 5.257-.08 1.106-3.216 5.383-.862.57.106-1.513-2.13 1.27-1.302 1.239-5.492 8.837-8.979 12.294.859-.69 1.715-1.377.357.687-2.24 3.039-7.018 7.472-8.47 10.66-.35.336-.513.437-.575.413-1.604 2.408-5.474 7.622-6.194 9.264-.718.273-1.711 1.302-2.817 2.679q-.414.518-.846 1.091l-.144.197-.115.162-.239.342c-.322.471-.664.993-1.03 1.55-.419-.376-.865-.78-1.295-1.192a28 28 0 0 1-.626-.609 35 35 0 0 1-.838-.891c-1.019-1.122-1.588-1.928-1.298-2.17l-6.097-6.54.27.07c-3.787-4.281-5.415-5.53-7.035-6.771-.817-1.044-.064-.426.067-.397-5.419-6.359-6.025-6.93-11.302-11.592l-.135-.863c-1.49-1.208-7.596-9.411-13.543-15.071.095.023.278.084.768.519-6.641-6.415-13.914-17.167-17.49-18.474l-4.425-4.194c5.213 5.893-1.355-.351.616 2.233-2.162-2.213-5.011-6.255-2.376-3.512l.336.497c1.621.416-6.37-7.43-5.755-7.686-1.292-1.415-2.53-2.838-3.652-4.313-1.11-1.474-2.124-2.998-2.878-4.591-.762-1.589-1.29-3.238-1.489-4.894a13.3 13.3 0 0 1 .41-4.933c.884-3.231 2.843-6.175 5.072-8.892 1.12-1.364 2.318-2.681 3.546-3.99q1.863-1.983 3.705-3.944l-1.653.727 3.446-3.65c1.019-.855 1.613-.918-.844 1.687 1.578-1.104 3.838-4.633 3.793-4.815 4.984-4.941-1.25 2.577.225 1.011l1.947-2.176-.511.426c1.398-1.935 1.313-2.298 4.268-5.432 1.958-1.899 1.272-.722 2.023-1.489.033.037.296-.209 1.134-1.192l4.35-4.595-2.137 1.47c1.705-2.244 4.07-4.339 1.614-2.635 3.639-2.47 16.31-17.054 18.326-18.772 2.368-3.159 5.011-5.995 8.313-9.48-.898.794-1.851.886 1.025-2.098-.069 2.002 5.574-5.168 8.544-6.981-2.494 1.764 7.897-8.734 4.051-5.899 2.425-2.453.51.164 2.505-1.515 1.293-1.547 2.741-3.059 4.407-4.314 1.654-1.266 3.555-2.22 5.536-2.505a8.7 8.7 0 0 1 2.992.072c.997.203 1.986.57 2.955 1.068 1.943.995 3.781 2.5 5.581 4.158.233-.014-.794-1.355.923-.068 1.057 1.431 2.058 2.93 3.099 4.437 1.451 1.413 1.996.677 4.107 3.766-.254-.477-.634-1.19.34-.244 13.191 15.14 28.688 29.298 41.564 45.165-1.659-2.23-.369-.918 1.09.603-.887-1.048.328-.267.311-.622l5.397 6.637c1.537.686 6.322 6.609 7.382 6.832l-1.94-1.883c2.998 2.111-2.284-4.757-1.247-5.015-3.365-2.354-6.406-8.538-11.801-12.52-.866-1.186 1.07.698.693-.017-1.441-.941-2.89-2.351-5.336-5.191l.362.24c-7.304-7.569-10.117-11.115-18.053-19.874l.269.95c-1.702-1.885-1.966-2.371-2.7-3.312-2.509-1.639 4.878 5.202 2.493 3.803-1.637-3.086-12.304-13.009-13.096-15.393-2.683-2.837.399 1.199-2.281-1.639l-.502-.95-.949-.462c-1.716-1.902-2.345-3.088-2.233-3.325.407.472 1.265 1.234 1.737 1.705-1.021-1.323-2.638-2.996-4.121-4.47-1.492-1.495-2.932-2.737-3.356-3.174a55 55 0 0 1 2.681 2.854c-1.95-1.906-4.1-3.971-6.806-5.678-1.353-.842-2.864-1.583-4.525-2.042-1.654-.465-3.46-.612-5.191-.365-1.737.233-3.369.828-4.812 1.595-1.445.772-2.717 1.711-3.858 2.695-2.28 1.974-4.08 4.134-5.702 6.086l.69-.42c-5.016 5.995-4.431 4.42-10.125 10.828l.174-.262c-1.007 1.403-2.487 3.159-4.099 4.862 1.286-1.761-3.134 2.646-1.411.372-5.441 6.5-2.598 3.301-5.807 7.95l-1.142.698c-1.059 1.621-1.038 1.854-3.88 5.058 2.16-2.786-2.265 1.626.108-1.537-6.693 6.043-8.487 10.321-12.142 12.553-2.068 3.706 5.697-5.319 4.285-3.479 1.558-1.195-1.766 3.006-3.759 5.005-1.968 2.089-4.258 2.701-9.158 8.005.494-.523.472-.61.961-1.134-2.024 1.807-3.346 4.114-5.904 6.263-.82 1.773-2.955 3.13-2.75 4.046l4.375-4.972c-2.406 2.889-4.139 6.084-8.667 10.318.215-.462 1.316-1.949 2.092-2.952-1.399 1.17-2.26 2.654-3.705 3.871-.207-.922 5.349-6.016 7.651-9.366-1.559 1.202-4.761 5.959-4.002 3.908-.597 1.427-1.834 2.706-3.259 4.147-.713.723-1.473 1.481-2.226 2.319-.757.842-1.512 1.778-2.183 2.847l-.132-.555c-.467.65-1.39 2.019-2.306 3.18.395-.826.811-1.636 1.235-2.445-1.139 1.718-2.462 3.206-3.706 4.815-1.234 1.604-2.403 3.361-3.033 5.448.402-1.056.774-1.844 1.093-2.426.305-.594.561-.98.748-1.248.373-.534.483-.566.528-.458.043.108.022.355.119.388.096.034.307-.151.862-.849-1.267 2.265-1.931 3.831-2.455 4.982-.248.584-.487 1.05-.666 1.496-.188.442-.402.824-.554 1.245-.335.831-.693 1.739-.831 3.284a11.9 11.9 0 0 0 .073 2.834q.064.425.139.885l.229.945c.075.334.188.666.309 1.013.118.349.236.715.398 1.073-.189-.382-.36-.988-.539-1.61-.082-.317-.139-.647-.197-.962q-.045-.238-.082-.459c-.018-.149-.028-.296-.04-.431-.04-.543-.051-.945.002-1.045.048-.1.134.104.303.757.063.606.211 1.232.342 1.885.075.32.165.636.25.956.079.319.179.627.28.926.376 1.218.827 2.263 1.065 2.95.51.883.918 1.495 1.221 1.912.303.422.494.662.608.77.227.216.102-.052-.082-.45-.372-.801-.992-2.093.028-.768.495 1.27 1.132 1.997 1.878 2.725.763.713 1.653 1.43 2.804 2.59l-.339.327c1.363 1.645 2.183 2.482 2.718 2.963.538.482.794.585 1.034.672.478.173.881.273 3.284 3.166l-2.625-1.905 2.77 2.777-.94-.239c3.171 2.878 3.992 3.925 6.703 7.106-.412-.938.997-.172 3.504 2.546 1.498 2.047-1.282-.742 2.308 3.077-1.017-.673-2.164-1.382-3.385-3.354-.27-.07-1.005-.663-1.281-.737 1.599 2.218 4.557 5.081 5.842 6.476-.48-.551-1.051-1.211-1.306-1.585l5.613 5.163c.676 1.003-.068.397-.804-.203 1.076 1.101 1.954 1.741 3.513 3.382-.678-.174-.872.194-3.17-2.047l5.202 5.053c.204.469 2.174 3.046 1.434 2.448 2.547 3.11 7.197 6.761 10.573 10.882.241.155.667.518 1.472 1.314 3.315 3.745 5.962 7.326 10.35 11.346l1.768 2.939c3.248 3.32-2.442-3.934 2.97 1.59 3.856 3.89.95 1.898 2.105 3.442 2.092 1.776 5.807 4.791 8.79 8.874-1.217-1.139-2.023-2.17-3.112-3.28"/></g><defs><clipPath id="a"><rect width="415.113" height="415.113" fill="#fff" rx="12.239"/></clipPath></defs></svg>