<svg xmlns="http://www.w3.org/2000/svg" width="412" height="412" fill="none" viewBox="0 0 412 412"><g clip-path="url(#a)"><rect width="411.766" height="411.766" fill="#f6f6f1" rx="12.14"/><path fill="#fc6b7e" stroke="#fc6b7e" stroke-width="2.557" d="M372.284 100.513c-.149-.347-.067.235-.133-.215.075.029.143.083.133.215ZM403.257 196.573c-.758-1.027-.859-2.67-1.513-3.851-.064-.143.224-.03.065-.348-.695-1.125-1.139-3.11-1.389-4.673l.088.071c-.048-.298-.358-.581-.427-.89.038-.016.087.078.119-.01-.144-.037-.231-.525-.362-.624.009-.134.107-.152.11-.323l-.192-.128c-.478-.374-.353-1.169-.731-1.768.042.022.087.078.101.016-.535-.984-.923-2.306-1.374-3.454.063.03.165.046.197-.041-.162-.011-.316-.361-.445-.666.102-.189-.309-.495-.346-.889l.043.02c-.243-.222-.042-.432-.299-.593l.06-.21c-.246-.053-.019-.429-.197-.62l-.041.021c-.119-.196-.051-.34-.149-.525l.018-.027c-.204-.442-.175-.748-.333-.684.077-.203.204.427.311.113-.657-1.462-1.13-3.035-1.626-4.559.009-.195-.007-.311.041-.37-.081-.142-.215-.565-.342-.676.019.05.051-.125.033-.209-.029-.297-.277-.245-.302-.573q.123.16.195.071c-.211-.219-.303-.573-.443-.867.042.039.083.108.13.08-.252-.29-.168-.623-.354-.888l.129.08c-.039-.511-.24-.077-.306-.508.061.088.087.042.131.047-.294-.327-.438-.964-.619-1.327.02.019.044.005.044.005-.156-.409-.244-.861-.466-1.294-.012-.18.246-.02.07-.449-.183.078-.319-.721-.448-.393-.09-.386-.212-1.003-.357-1.233.126.146.17-.257.287.05l.038-.273c.088.01.052.251.125.145-.058-.155-.28-.586-.295-.736-.209-.253-.51-.45-.686-.912.145.197.167-.193.248-.053l-.572-.538c-.059-.154.137-.082.015-.292-.046.028-.108-.061-.17-.117.002-.065-.257-.634-.094-.762.05-.092.121.242.131.048-.096-.288-.163-.28-.259-.568l.023-.013c-.034-.2-.261-.537-.295-.296.036.134.094-.087.104.127-.151-.099-.289-.425-.384-.713.062.089.107.061.172.084-.271-.341-.45-.737-.65-1.151-.091.022.212.11.186.189-.058-.595-.544-1.09-.515-1.61.04.071-.111.081-.089.068-.075-.271.056-.3-.047-.459.069-.041-.095-.211-.176-.383-.084-.075.022-.058.08.095-.144-.229-.582-1.192-.66-1.804-.046.027-.296-.297-.334-.431l.133.015c.03-.144-.154-.442-.062-.496-.232-.238.473 1.053.24.705.065-.13-.357-.475-.172-.443-.091-.265-.305-.481-.279-.771.005.08.23.164.153-.048-.143-.373-.09-.091-.228-.385l-.11-.178c-.117.024-.094-.343-.175-.162.078-.076-.235-.532-.035-.554l.164.006c-.064-.161-.242-.219-.349-.326.007-.026.022-.079.049-.078-.234.046-.108-.397-.345-.536-.033-.369-.275-.875-.187-1.083-.154-.242-.313-.457-.362-.774.04.053.074.134.128.135.005-.21-.07-.238-.162-.399.046.028.009-.421.021-.657-.152-.241-.244-.112-.327-.114.144-.312-.383-.694-.279-1.06.06.081.233.347.218.111.144-.312-.32-.431-.339-.852l-.153.154c.058-.209-.291-.534-.091-.556-.108-.108-.086-.476-.252-.375-.054-.685-.592-1.516-.396-2.011-.059-.081-.102-.318-.18-.242-.051.184.141.188.09.267-.032-.08-.087-.082-.114-.083-.023-.211-.06-.37.15-.232-.031-.475-.453-.354-.563-.936.082.001.097-.051.032-.211l-.228-.269c-.088-.371.103-.26.226-.31-.084-.186-.154-.425-.277-.482l.083-.286c-.06.208-.128-.135-.188-.216l.06.081c.042-.053-.063-.266-.116-.373-.069.051-.027.29-.009.422-.088-.081-.124-.239-.232-.349.138.004-.014-.343-.051-.501-.03-.185-.175-.163-.187-.216.063-.025-.082-.291.052-.183.04.054-.018.158.07.239.011-.132.127-.154-.033-.369-.12-.162-.229.126-.262-.244.06.081.115.081.182.137l-.04-.343-.117.023c.014-.053.034-.026.042-.051-.149-.058-.195-.481-.352-.511-.065-.159-.033-.368-.071-.528l.02.027c.005-.212-.121-.45-.248-.585h.027c-.025-.106-.122-.346-.23-.454 0-.29.397-.226.161-.47-.089-.265-.341-.35-.378-.22-.079-.503-.438-.986-.407-1.486-.068-.053-.082-.001-.155-.134-.182-.717-.613-1.439-.572-2.069.113.188.117-.023.18-.048-.155-.135.04-.236-.153-.24-.096.05-.151.049-.129.26-.19-.401-.395-1.037-.376-1.301-.009.131-.07.052-.13-.03.173-.022.097-.339-.035-.554l-.11-.001.052-.185c-.06-.08-.239-.032-.219-.295.034-.024.069-.05.083-.101-.159-.216-.406-.512-.407-.802l.075-.261c-.052-.107-.2-.268-.178-.057-.058-.475-.14-.768-.061-.95-.554-.672-.928-1.787-1.196-2.691l.082.002c-.008-.263-.169-.082-.173-.267.096.055.094-.233.243-.072-.034-.37-.272-.402-.378-.616-.109-.002.12.16-.017.157-.048-.027-.079-.501-.243-.507.03-.105.16-.073.234-.046l-.139-.187c.089-.313.497.487.621.148l-.086-.186c.095-.235.34.456.236-.048-.141-.188-.413-.299-.417-.09-.183-.426-.417-.09-.558-.567.045-.157.143.372.235.242.047-.261-.211-.426-.233-.637.015.238-.194.1-.266-.034-.009-.263.189.111.094-.234-.103-.029-.268-.322-.239-.032-.233-.061-.062-.372-.271-.509.1-.155.427.25.374-.146-.112.102-.327-.405-.457-.144-.01-.159.088-.208.203-.127.012-.236-.403-.431-.167-.584l-.156-.029c.022-.079.024-.184.062-.314-.058-.186-.373-.537-.167-.585-.04-.053-.167-.477-.254-.269 0 .289.2.268.058.475.094-.235-.142-.371-.242-.506l.07-.05c-.06-.081-.11-.294-.212-.323.067.055.108.002.104-.077l-.15-.056c-.177-.347.181-.153.031-.499l.18.241c-.039-.053.032-.21-.06-.369-.13-.031-.3-.114-.402-.144-.113-.185.093-.129-.082-.291l.214.217c.048.028.122-.232.033-.5-.093-.16-.336-.375-.308-.085-.045-.135-.04-.345.074-.263-.136-.294-.104.077-.256-.164.037-.132.031-.5.071-.736l.27.216-.058-.183c.222.189.072-.156.268-.072-.016-.133-.117-.267-.196-.375-.127.445-.467-.3-.656-.122-.223-.48.442-.488-.076-.897-.031.104-.281-.087-.114.208-.076-.319-.293-.139-.319-.536.18.242.132-.365.392-.015-.082-.003.015.237.056.29.044-.156.233-.046.13-.364-.084-.187-.175-.452-.279-.376-.125.049.11.292-.06.209-.169-.372.004-.5-.274-.587.096.239-.016.343-.105.367l-.145-.267.103.027c-.086-.475-.198-.084-.318-.534l.101-.261c.178.059.143.663.354.509-.083-.291-.234-.347-.261-.638.04.054.072.134.113.187-.026-.105.253-.309-.062-.659-.14-.189-.102-.029-.192-.006-.176-.452-.31-.56-.42-.853.192.005-.153-.53.129-.259-.052.183.173.847.391.957.149-.234.088.371.327.404-.115-.372.091-.419.204-.521-.024-.105-.112-.187-.152-.241-.138-.003-.093.13-.218.179-.1-.423-.298-.798-.491-.987.016-.157.154-.154.218.005a10.4 10.4 0 0 1-.461-1.487c-.104.367-.216-.504-.317-.244.036.264-.039.525-.174.417-.037-.161.09-.024.112-.103-.175-.163.077-.366-.16-.505.21.427.274.008.459.039-.194-.294.117-.023.014-.342a7 7 0 0 1-.54-1.015c.005-.498-.365-1.14-.501-1.54.012-.236.237-.151.194-.39-.09-.266-.129.262-.175-.161l.048.026c-.081-.106-.114-.766-.409-.8l.234.06c-.006-.08-.073-.134-.113-.189.062-.023.091-.128.172-.021.054-.288-.188-.506-.279-.77l-.06.208c-.237-.427-.222-.768-.404-1.195l.117-.023-.152-.24c.129.028.122-.235-.014-.343l.495.592c-.005.21-.203-.163-.275-.009-.064.132.098.53.228.561-.038-.16-.065-.16-.145-.268.14-.102.21.137.352.221-.033-.08-.023-.212-.078-.213.129.135.193.294.283.56-.119-.162-.065.129-.132.075.145-.023.269.219.338.561-.083.288.302.588.383.985a1.4 1.4 0 0 1-.497-.487c.007.263.09.266.098.53.141.083.327.114.492.407l-.097.05c.144.268.296.219.385.59.15.636.356 1.273.496 1.75l-.097.051c.305.192.365.851.577 1.173.096.635.521 1.278.444 1.644.423 1.038.801 1.943 1.12 3.057l-.21-.137c.174.162-.044.156.04.342.048-.261.242.218.378.326.042.528.372 1.117.618 1.518l-.098.05c.335.377.336.957.482 1.514-.022.077-.087.207-.023.366.262.244.301.403.545.805.103.318.229.848.269 1.192.62 1.122.867 2.392 1.409 3.591l-.091.129c.648 1.123.893 2.682 1.358 3.669l-.238-.033c.041.343.292.718.412.589.041.344.361.775.258 1.035.069.344.226.375.343.64.136.688.233.928.474 1.54l-.038-.159c-.067-.054-.157-.032-.12.128.133.214.222.875.393.563.073.713.619 1.517.636 2.228.05-.077.116.082.183.137.192.583.254 1.243.519 1.673-.003.104-.162-.112-.092.129.071.133.089-.025.182.136.432.907.491 1.96.803 2.812.625 1.489 1.076 3.108 1.572 4.569l-.055-.001c.348.43.18 1.215.591 1.515-.01.132.121.451-.002.396.26.348.229 1.136.581 1.647a.3.3 0 0 0-.073-.133c.076.606.389 1.063.485 1.698-.041-.055-.093-.161-.148-.163-.019.263.388.485.19.69.046.133.151.056.117-.024.335 1.351.942 2.711 1.441 4.067.176 1.031-.382.19.047.91-.025.078.106.016.061.043.164.279-.115.554.077.722.119-.133.127.113.218.09.1.633.007.797.271 1.236l-.088-.011c.398.487.49 1.17.893 1.559 1.039 3.057 2.13 5.955 3.128 8.941.909 2.976 1.959 5.837 2.798 8.887.025.769.048.821.38 1.567-.043-.02-.066-.066-.079-.005.178-.014.191.54.374.563.328 1.122.704 2.131 1.075 3.274-.076-.176-.241-.222-.16-.011l.178.191-.034.051c.072.139.206.273.21.104 1.072 2.826 1.653 5.76 2.604 8.56.146.691.518 1.621.786 2.336.475 2.224.923 4.221 1.785 6.356-.001 0-.522-.147-.913-1.017ZM372.44 100.938c-.058.104-.023.369-.198.205.069-.05.115-.207.198-.205Z"/><path fill="#fc6b7e" stroke="#fc6b7e" stroke-width="2.557" d="M373.747 107.895c.027.001-.003.106-.01.132-.033-.081-.128-.135-.106-.215.034.082.069.056.116.083ZM374.248 109.62c-.083-.002-.259-.349-.338-.561zM374.459 111.31c-.018.157-.065.13-.122-.055.034-.026.074.028.122.055ZM374.664 111.368a.43.43 0 0 1 0 .29c.062-.026-.139-.293 0-.29ZM375.567 114.893c.032.082.152.241.095.346.029-.106-.225-.375-.095-.346ZM376.198 116.463c.012.054.005.079.045.133-.003.105-.089.023-.122-.055zM385.947 145.599l-.092-.161.081.002zM390.092 158.408c.103.158-.03.143-.032.175-.058-.154.11.028.032-.175ZM392.698 165.195l-.018-.051.156-.031zM397.593 92.33c-.15-.347-.067.234-.133-.215.075.029.143.083.133.215ZM428.566 188.389c-.759-1.026-.859-2.669-1.513-3.851-.064-.142.224-.03.065-.347-.695-1.126-1.139-3.11-1.39-4.674l.089.071c-.049-.298-.358-.58-.428-.89.039-.015.088.078.119-.009-.144-.037-.231-.525-.361-.624.008-.134.107-.153.11-.323l-.192-.129c-.478-.373-.353-1.169-.731-1.767.041.021.087.077.101.016-.536-.984-.923-2.307-1.374-3.455.063.031.165.046.196-.04-.161-.012-.315-.362-.445-.667.102-.189-.308-.495-.346-.889l.043.02c-.242-.222-.042-.432-.298-.593l.06-.21c-.246-.052-.02-.429-.198-.62l-.04.021c-.119-.195-.051-.339-.149-.525l.018-.026c-.204-.443-.175-.748-.333-.685.077-.203.203.427.31.113-.657-1.462-1.13-3.034-1.626-4.559.009-.194-.007-.311.042-.37-.082-.141-.215-.564-.343-.676.02.05.051-.125.033-.208-.028-.298-.276-.246-.302-.574q.125.161.195.072c-.21-.22-.302-.574-.443-.868.043.039.083.109.13.08-.251-.289-.167-.622-.353-.888l.129.08c-.04-.511-.241-.076-.306-.508.061.089.086.042.13.048-.294-.327-.438-.964-.619-1.328.021.019.044.005.044.005-.156-.409-.243-.86-.465-1.294-.012-.18.246-.019.069-.448-.183.077-.319-.722-.447-.394-.091-.386-.213-1.003-.358-1.233.127.146.171-.257.288.05l.037-.273c.088.01.053.251.125.145-.058-.154-.28-.586-.294-.736-.21-.252-.51-.449-.686-.911.145.197.166-.193.247-.053l-.571-.539c-.06-.153.137-.082.015-.292-.046.028-.108-.06-.171-.116.003-.066-.257-.635-.094-.762.051-.092.122.242.131.047-.095-.288-.162-.28-.258-.567l.023-.014c-.035-.2-.261-.536-.296-.296.037.135.095-.086.105.127-.151-.099-.289-.425-.385-.712.062.088.107.06.173.083-.271-.341-.45-.737-.651-1.15-.09.021.212.109.186.188-.057-.594-.543-1.09-.514-1.609.04.07-.112.081-.089.068-.075-.271.056-.3-.048-.459.07-.042-.094-.212-.175-.383-.085-.075.021-.059.08.095-.145-.23-.583-1.192-.66-1.805-.046.027-.297-.296-.334-.43l.133.014c.03-.143-.154-.441-.062-.495-.232-.238.473 1.053.24.704.064-.13-.357-.474-.173-.442-.09-.266-.304-.482-.278-.772.005.08.23.165.153-.048-.144-.372-.091-.09-.229-.385l-.109-.177c-.117.023-.095-.344-.175-.162.078-.077-.235-.533-.036-.554l.164.005c-.064-.16-.242-.218-.349-.326.007-.026.023-.078.05-.078-.234.047-.108-.397-.345-.535-.033-.369-.276-.876-.188-1.083-.153-.242-.312-.457-.361-.774.04.053.073.133.127.134.006-.21-.069-.238-.161-.399.046.028.009-.421.021-.657-.152-.24-.245-.111-.328-.113.145-.312-.383-.695-.278-1.061.06.081.233.348.218.111.144-.311-.321-.431-.339-.852l-.154.155c.059-.209-.291-.535-.09-.557-.109-.108-.087-.475-.253-.374-.053-.685-.591-1.516-.395-2.011-.06-.081-.103-.319-.18-.242-.051.183.14.188.09.266-.032-.08-.087-.082-.115-.082-.022-.211-.06-.371.15-.232-.031-.476-.452-.355-.563-.937.083.001.097-.05.032-.21l-.227-.269c-.088-.372.102-.26.226-.31-.085-.187-.155-.426-.278-.483l.083-.286c-.059.208-.127-.135-.188-.215l.061.08c.041-.052-.064-.265-.116-.373-.07.052-.027.29-.01.422-.087-.081-.124-.238-.231-.348.137.003-.014-.344-.051-.502-.03-.185-.175-.162-.187-.215.062-.026-.083-.291.051-.183.04.053-.018.157.071.239.01-.132.126-.155-.033-.369-.12-.162-.229.125-.262-.245.06.081.115.082.182.138l-.041-.344-.117.023c.015-.053.034-.026.043-.051-.15-.058-.196-.481-.353-.511-.064-.159-.033-.368-.07-.527l.019.026c.005-.211-.12-.449-.248-.585l.028.001c-.025-.107-.122-.346-.23-.455 0-.29.396-.226.161-.47-.09-.264-.341-.35-.379-.219-.078-.503-.438-.986-.406-1.486-.068-.054-.083-.001-.155-.135-.183-.716-.613-1.439-.572-2.069.113.188.117-.023.18-.048-.155-.135.039-.235-.153-.24-.097.05-.152.049-.129.26-.19-.401-.396-1.037-.376-1.301-.01.132-.07.052-.13-.03.172-.022.097-.339-.036-.554l-.11-.001.053-.184c-.061-.08-.24-.032-.219-.295.034-.025.069-.05.083-.102-.159-.216-.406-.512-.408-.802l.075-.261c-.052-.107-.2-.267-.178-.057-.057-.475-.14-.767-.061-.95-.554-.672-.928-1.787-1.196-2.69l.083.002c-.008-.263-.17-.083-.173-.268.096.055.094-.233.242-.072-.033-.369-.272-.402-.378-.615-.108-.003.121.16-.017.156-.047-.027-.078-.501-.243-.507.03-.105.16-.073.235-.045l-.14-.188c.089-.313.497.487.622.149l-.086-.187c.094-.235.34.457.235-.047-.141-.188-.413-.3-.417-.09-.183-.427-.417-.09-.557-.567.044-.158.143.371.235.241.046-.261-.211-.426-.234-.637.016.238-.193.1-.266-.033-.008-.263.19.11.095-.235-.103-.028-.268-.321-.24-.031-.232-.061-.061-.372-.27-.509.099-.155.427.249.373-.147-.112.102-.327-.404-.457-.144-.009-.159.088-.207.203-.126.012-.236-.403-.432-.166-.585l-.157-.028c.023-.08.025-.184.062-.315-.057-.185-.373-.537-.166-.585-.04-.053-.167-.477-.254-.269 0 .29.199.268.058.475.094-.234-.142-.371-.243-.506l.07-.05c-.059-.08-.109-.294-.212-.322.067.054.109.001.104-.077l-.149-.056c-.178-.348.181-.154.031-.5l.179.241c-.038-.053.033-.21-.059-.369-.13-.031-.3-.114-.403-.143-.112-.186.093-.13-.082-.291l.214.217c.049.027.123-.233.033-.501-.093-.159-.335-.375-.307-.085-.045-.134-.04-.344.073-.263-.136-.293-.103.078-.256-.164.037-.131.032-.5.071-.736l.27.216-.057-.183c.221.19.072-.156.268-.072-.016-.132-.117-.266-.196-.374-.127.444-.467-.301-.657-.123-.222-.48.443-.488-.076-.896-.03.104-.28-.087-.114.207-.076-.319-.292-.139-.318-.536.179.242.132-.364.392-.015-.083-.002.014.237.055.291.044-.156.233-.047.131-.365-.085-.187-.175-.452-.279-.376-.125.05.11.292-.06.21-.17-.373.004-.5-.275-.587.097.239-.015.342-.104.366l-.145-.267.102.028c-.086-.476-.197-.085-.318-.534l.101-.261c.179.058.144.663.354.508-.083-.29-.234-.347-.26-.637.04.054.072.134.112.187-.025-.106.254-.309-.062-.66-.139-.188-.102-.028-.191-.005-.176-.452-.311-.561-.42-.854.192.006-.153-.53.129-.259-.052.184.173.847.39.958.15-.234.089.371.327.403-.115-.371.092-.418.204-.52-.024-.106-.111-.187-.152-.242-.138-.003-.092.13-.218.179-.099-.423-.297-.798-.491-.986.017-.158.154-.154.219.005a10.4 10.4 0 0 1-.461-1.487c-.105.366-.216-.505-.317-.245.035.264-.039.526-.175.417-.037-.16.091-.023.113-.102-.175-.163.077-.367-.161-.505.211.427.275.007.46.038-.194-.294.117-.022.014-.342a7 7 0 0 1-.54-1.014c.005-.499-.366-1.14-.502-1.54.012-.236.237-.152.195-.39-.09-.266-.129.261-.176-.162l.048.026c-.08-.106-.113-.765-.408-.8l.234.06c-.007-.08-.073-.134-.114-.188.062-.024.092-.128.172-.021.055-.288-.187-.507-.279-.771l-.059.208c-.237-.426-.222-.767-.404-1.194l.116-.024-.152-.24c.13.029.122-.234-.014-.343l.495.592c-.005.21-.202-.163-.274-.008-.064.131.098.53.227.56-.038-.16-.065-.16-.144-.267.139-.102.209.136.352.22-.033-.08-.023-.211-.078-.213.128.136.192.294.282.56-.119-.162-.064.13-.131.076.144-.023.269.218.337.56-.082.288.303.588.383.985a1.4 1.4 0 0 1-.497-.487c.008.263.091.266.098.53.142.083.328.115.493.408l-.098.05c.145.267.297.218.385.589.15.636.356 1.273.496 1.75l-.096.052c.304.192.364.85.576 1.173.097.634.522 1.277.445 1.643.423 1.038.8 1.943 1.119 3.057l-.209-.137c.174.162-.044.156.04.342.048-.26.242.219.377.326.043.528.373 1.117.618 1.518l-.097.05c.335.377.336.957.481 1.514-.022.077-.086.208-.022.367.262.243.3.403.545.805.103.318.229.847.269 1.192.62 1.121.866 2.392 1.409 3.59l-.092.129c.648 1.123.894 2.682 1.359 3.669l-.238-.032c.04.343.292.718.411.588.042.344.362.776.259 1.036.069.343.226.374.342.64.136.687.234.928.474 1.539l-.037-.159c-.067-.054-.157-.031-.12.129.132.214.222.874.393.563.073.712.618 1.517.636 2.227.05-.077.115.083.183.137.192.584.254 1.243.519 1.673-.004.104-.162-.111-.093.129.071.133.089-.025.183.136.432.907.491 1.961.802 2.812.625 1.49 1.076 3.109 1.573 4.569l-.055-.001c.348.431.179 1.216.59 1.516-.009.131.122.451-.001.395.26.348.228 1.137.58 1.648a.3.3 0 0 0-.072-.133c.076.606.388 1.062.484 1.697-.041-.054-.092-.161-.147-.162-.02.263.387.484.19.689.045.133.15.057.117-.023.334 1.351.942 2.711 1.441 4.067.176 1.031-.382.19.047.909-.026.078.106.017.06.043.164.279-.115.554.078.723.118-.134.127.112.218.09.099.632.006.796.271 1.235l-.088-.011c.397.487.489 1.17.892 1.559 1.039 3.057 2.131 5.956 3.128 8.941.91 2.976 1.96 5.838 2.799 8.887.025.77.048.821.38 1.568-.043-.021-.066-.067-.08-.005.178-.015.192.54.374.562.329 1.122.705 2.131 1.076 3.274-.076-.175-.241-.222-.161-.011l.179.191-.034.051c.072.139.205.273.209.104 1.073 2.827 1.654 5.761 2.604 8.561.147.69.518 1.621.787 2.336.474 2.223.923 4.22 1.785 6.356-.001-.001-.522-.147-.913-1.018ZM397.748 92.754c-.058.104-.022.368-.198.205.07-.05.116-.207.198-.205Z"/><path fill="#fc6b7e" stroke="#fc6b7e" stroke-width="2.557" d="M399.055 99.712c.028 0-.003.106-.01.132-.032-.08-.127-.135-.105-.215.033.082.068.056.115.083ZM399.556 101.436c-.082-.002-.258-.349-.337-.561zM399.767 103.126c-.018.157-.064.13-.122-.055.035-.026.074.028.122.055ZM399.972 103.185c.045.132.022.211.001.289.062-.025-.139-.293-.001-.289ZM400.875 106.71c.033.081.152.241.095.345.03-.105-.224-.374-.095-.345ZM401.506 108.28c.012.053.006.079.046.132-.003.106-.089.023-.123-.055zM411.256 137.415l-.092-.161.081.002zM358.142 140.98c.736-.786 2.08-.667 2.96-1.301.108-.058.058.281.297.131.828-.692 2.403-.948 3.659-1.026l-.046.099c.239-.016.427-.357.673-.397.018.05-.052.096.025.148.009-.172.4-.208.463-.354.112.03.142.155.283.183l.078-.218c.238-.536.914-.263 1.353-.643-.011.049-.051.097.002.123.734-.516 1.77-.799 2.653-1.187-.016.073-.014.197.062.249-.014-.199.253-.337.485-.452.172.154.364-.308.685-.297l-.011.05c.148-.266.351.013.447-.28l.182.105c.007-.297.352.039.483-.153l-.023-.053c.144-.118.273-.013.412-.107l.024.027c.336-.187.593-.106.517-.311.18.126-.323.189-.047.367 1.111-.596 2.342-.948 3.529-1.336.162.04.256.038.312.107.105-.081.435-.183.508-.324-.038.017.111.081.177.071.242.009.162-.305.43-.288q-.115.129-.03.231c.15-.228.429-.29.651-.42-.026.047-.077.087-.047.149.202-.268.49-.115.682-.306l-.047.148c.417.026.028-.286.375-.303-.064.062-.022.101-.02.154.227-.315.732-.399 1.006-.569-.012.023.003.054.003.054.315-.132.675-.174 1.001-.384.146.011.052.307.381.152-.091-.238.549-.288.259-.495.305-.055.798-.115.966-.26-.101.135.238.249.002.348l.231.087c.004.107-.2.028-.102.133.12-.049.444-.26.565-.255.178-.222.297-.564.653-.713-.142.15.184.234.08.313l.361-.627c.118-.05.088.182.244.062-.031-.061.034-.124.071-.193.054.012.486-.224.616-.004.083.076-.182.114-.02.155.224-.075.207-.159.431-.236l.015.031c.16-.013.404-.243.201-.322-.106.026.085.13-.09.111.06-.172.309-.295.532-.37-.064.063-.034.123-.043.2.242-.284.543-.446.855-.634-.031-.114-.06.246-.129.203.483.016.822-.511 1.255-.399-.052.04-.083-.149-.069-.119.213-.053.256.113.372.009.045.091.161-.086.291-.161.05-.093.052.035-.067.086.169-.145.9-.545 1.395-.55-.029-.061.201-.323.306-.349l.008.162c.123.058.342-.125.401-.003.162-.252-.801.429-.548.192.118.099.34-.371.341-.148.206-.072.353-.304.597-.23-.066-.005-.102.261.062.196.287-.122.061-.098.285-.225l.13-.109c-.037-.148.27-.066.108-.192.075.108.405-.213.453.037l.02.202c.123-.055.144-.266.218-.383.022.013.068.04.071.073-.073-.296.313-.075.392-.347.3.013.683-.212.868-.072.177-.154.331-.319.586-.333-.038.042-.099.072-.092.138.175.038.186-.05.306-.141-.016.053.349.074.546.124.177-.153.056-.286.046-.388.279.224.518-.371.836-.188-.058.062-.254.236-.06.253.279.224.309-.333.654-.293l-.15-.213c.181.104.399-.28.446-.029.074-.118.381-.037.273-.257.558.035 1.166-.507 1.604-.192.058-.061.248-.079.174-.186-.16-.091-.135.145-.207.072.061-.028.054-.096.051-.13.171.003.297-.019.214.22.388.032.226-.507.691-.558.011.102.056.128.178.071l.189-.241c.295-.054.231.165.29.325.142-.077.329-.128.358-.271l.249.144c-.181-.104.092-.138.15-.2l-.058.062c.05.06.21-.039.292-.087-.053-.094-.244-.077-.351-.075.054-.096.179-.118.254-.235.018.17.282.034.407.012.149-.01.109-.193.151-.2.03.081.228-.059.159.091-.039.042-.133-.045-.187.052.11.032.146.179.3.014.116-.125-.138-.302.163-.288-.058.062-.05.13-.086.204l.278.001-.037-.148c.046.026.027.046.049.06.025-.176.368-.17.37-.36.122-.056.299.014.426-.009l-.019.02c.175.038.354-.082.447-.22l.003.034c.085-.015.268-.1.342-.217.24.043.246.523.412.268.206-.071.24-.37.126-.435.404-.023.751-.396 1.169-.283.034-.076-.011-.102.088-.171.565-.12 1.099-.545 1.626-.402-.139.112.036.148.066.23.089-.172.201.083.176-.154-.055-.126-.063-.194-.234-.198.304-.175.799-.335 1.02-.272-.11-.031-.053-.094.006-.156.044.216.295.17.453.038l-.016-.136.161.092c.057-.063-.009-.291.211-.227a.3.3 0 0 0 .097.118c.155-.165.363-.427.602-.386l.227.132c.081-.049.192-.208.021-.212.384-.001.614-.06.776.065.474-.586 1.341-.883 2.048-1.081l.011.102c.216.029.043-.197.195-.174-.031.11.207.151.095.31.301.013.293-.277.454-.376-.014-.134-.115.125-.132-.045.015-.054.402-.022.383-.225.091.053.084.209.072.297l.135-.145c.272.156-.329.542-.031.746l.142-.078c.207.151-.328.353.073.297.135-.146.187-.465.013-.501.326-.163.013-.502.387-.606.136.079-.286.122-.165.255.223.096.321-.198.492-.194-.194-.016-.111-.254-.012-.324.217.028-.063.218.208.151.009-.123.226-.283-.009-.291.016-.279.298-.021.381-.259.142.145-.143.49.176.483-.101-.153.286-.345.052-.544.13.012.184.14.134.27.197.05.297-.434.459-.119v-.19c.069.04.156.058.27.124.145-.044.388-.382.459-.12.037-.041.369-.136.185-.274-.24-.043-.193.207-.385.002.208.151.286-.121.383-.225l.052.094c.057-.062.226-.093.235-.215-.035.075.015.134.079.14l.024-.176c.261-.169.154.246.418.112l-.173.186c.038-.04.178.071.296-.019.007-.156.05-.354.059-.476.137-.112.121.134.229-.059l-.148.233c-.015.055.211.185.419.114.118-.091.261-.359.025-.367.104-.036.278.001.228.13.222-.125-.08-.14.098-.293.114.066.418.113.619.197l-.139.302.143-.045c-.124.247.139.113.099.343.107-.001.203-.106.281-.187-.386-.223.179-.533.004-.794.364-.204.469.619.73.039-.091-.053.031-.334-.188-.172.252-.046.072-.341.396-.314-.174.186.321.217.07.487-.01-.102-.194-.017-.232.025.136.078.073.295.321.215.142-.076.348-.149.27-.289-.06-.162-.226.093-.183-.105.283-.155.414.079.445-.252-.183.084-.285-.07-.319-.184l.2-.14-.008.123c.381-.036.041-.232.395-.314l.231.164c-.022.212-.527.079-.368.362.227-.06.252-.238.488-.228-.039.041-.1.069-.138.111.084-.016.293.359.536.021.135-.144.009-.122-.024-.236.348-.15.418-.3.644-.393.024.237.415-.111.233.198-.159-.091-.675.089-.734.341.216.219-.293.055-.285.345.29-.088.36.175.461.329.083-.014.138-.111.177-.153-.018-.17-.122-.133-.181-.295.336-.061.616-.25.744-.462.132.044.15.214.028.27a5 5 0 0 1 1.161-.35c-.318-.184.385-.192.156-.356-.214.005-.441-.126-.371-.277.127-.022.033.115.101.154.109-.192.315.149.394-.123-.322.196.034.338.036.562.215-.196.036.148.285.067a3.6 3.6 0 0 1 .759-.517c.413.079.889-.283 1.199-.392.197.049.161.315.351.297.207-.072-.235-.198.108-.192l-.015.055c.076-.083.617-.027.601-.386l-.014.28c.064.003.1-.071.139-.113.028.081.119.133.042.216.246.11.392-.157.596-.231l-.181-.104c.318-.23.602-.161.928-.323l.037.147.176-.152c-.005.156.212.185.282.034l-.417.524c-.174-.037.105-.226-.033-.338-.119-.098-.424.043-.43.198.126-.023.122-.057.2-.139.105.188-.082.239-.13.403.06-.029.171.003.164-.065-.093.138-.214.195-.421.266.116-.123-.117-.099-.082-.174.04.183-.141.301-.414.335-.25-.145-.441.287-.758.328.064-.218.172-.411.33-.542-.216-.03-.207.072-.424.042-.047.163-.046.388-.264.548l-.056-.127c-.2.138-.136.334-.43.388-.504.092-1 .253-1.374.355l-.056-.127c-.114.348-.65.325-.885.539-.511.026-.979.456-1.293.307-.796.369-1.488.702-2.362.931l.082-.238c-.108.191-.136-.078-.277-.001.222.097-.145.266-.214.418-.43-.025-.868.296-1.164.54l-.055-.128c-.263.358-.742.274-1.181.371-.067-.038-.184-.138-.307-.082-.162.288-.288.312-.584.555-.248.08-.668.158-.946.156-.836.601-1.85.718-2.761 1.211l-.12-.132c-.833.635-2.085.708-2.833 1.137l-.008-.29c-.277 0-.55.255-.426.422-.278.001-.587.332-.817.166-.274.035-.277.224-.479.329-.549.067-.733.152-1.203.358l.126-.022c.035-.075.003-.19-.124-.167-.157.132-.69.144-.407.402-.579-.015-1.163.54-1.748.457.071.073-.051.13-.086.206-.454.151-.99.13-1.307.394-.086-.02.068-.184-.12-.133-.099.068.034.113-.086.205-.686.4-1.548.317-2.206.576-1.139.553-2.411.871-3.545 1.269l-.007-.068c-.305.366-.979.042-1.166.506-.11-.032-.355.083-.327-.061-.25.27-.906.115-1.276.475.042-.007.061-.028.099-.07-.491.004-.821.323-1.332.348.039-.043.119-.091.112-.159-.22-.062-.343.407-.542.133-.103.037-.024.178.037.148-1.067.214-2.102.764-3.15 1.18-.826.065-.213-.5-.745-.076-.068-.043.003.129-.026.069-.207.161-.475-.224-.586-.011.128.166-.074.14-.042.255-.509.03-.658-.109-.982.153l-.004-.107c-.344.419-.895.432-1.157.873-2.373.832-4.609 1.753-6.93 2.544-2.326.685-4.537 1.56-6.934 2.146-.633-.083-.672-.062-1.24.238.01-.05.045-.072-.008-.098.039.222-.418.157-.409.38-.879.24-1.658.556-2.548.845.134-.068.148-.265-.015-.197l-.131.193-.048-.05c-.104.068-.195.213-.055.243-2.178.908-4.518 1.193-6.693 1.954-.549.079-1.263.401-1.815.627-1.768.258-3.353.517-4.991 1.267-.001-.001.044-.624.706-.978Z"/><path fill="#fc6b7e" stroke="#fc6b7e" stroke-width="2.557" d="m397.726 127.121.12-.09.01.099zM387.751 130.352c-.115.103-.123-.058-.149-.065.118-.049-.007.131.149.065ZM382.524 132.566l.04-.016.049.198zM368.645 173.465c.737-.786 2.081-.667 2.961-1.301.108-.058.058.281.297.131.828-.692 2.403-.948 3.659-1.026l-.046.099c.239-.016.427-.357.672-.398.019.051-.051.097.026.149.009-.172.4-.208.463-.354.112.03.142.154.283.183l.078-.218c.238-.536.914-.263 1.353-.643-.012.049-.052.097.001.123.735-.516 1.771-.799 2.654-1.188-.016.074-.014.198.062.249-.014-.198.253-.336.485-.451.172.154.364-.309.685-.297l-.011.05c.148-.266.351.013.447-.28l.182.105c.007-.297.351.039.483-.153l-.023-.053c.144-.119.273-.013.412-.107l.024.027c.336-.187.593-.106.517-.311.179.126-.323.188-.047.367 1.111-.596 2.341-.948 3.529-1.336.162.04.256.038.312.106.104-.08.434-.182.508-.323-.039.016.111.081.177.071.242.009.162-.305.43-.288q-.116.13-.03.23c.15-.227.429-.289.651-.419-.026.047-.077.087-.047.149.202-.269.49-.116.682-.306l-.047.148c.417.026.028-.286.375-.304-.064.063-.022.102-.02.155.227-.315.732-.399 1.006-.569-.012.022.003.053.003.053.315-.132.675-.173 1.001-.384.146.012.052.308.38.152-.09-.237.55-.287.26-.494.305-.055.798-.115.966-.26-.102.135.238.249.002.348l.231.087c.004.107-.2.027-.102.133.119-.049.444-.26.565-.256.178-.221.297-.563.653-.712-.142.15.183.234.08.313l.361-.627c.118-.05.088.182.243.062-.03-.061.034-.125.072-.194.054.013.486-.223.616-.003.083.076-.182.114-.02.155.224-.076.207-.16.431-.236l.015.031c.159-.013.404-.243.201-.322-.106.026.085.13-.09.11.06-.171.308-.294.532-.369-.064.063-.034.123-.043.2.241-.284.543-.447.855-.634-.032-.114-.06.246-.129.203.483.016.821-.511 1.255-.399-.052.04-.083-.15-.069-.119.213-.053.256.113.372.008.045.092.161-.085.291-.16.05-.093.052.035-.067.085.169-.144.9-.544 1.395-.549-.029-.061.201-.323.306-.349l.008.162c.123.058.342-.125.4-.003.163-.252-.8.429-.547.192.118.099.34-.371.341-.148.206-.072.353-.305.597-.23-.066-.005-.103.26.062.196.286-.122.061-.098.284-.225l.131-.109c-.037-.148.27-.066.108-.193.075.108.406-.212.453.038l.02.202c.123-.055.145-.267.218-.383.022.013.068.039.071.072-.073-.295.313-.074.392-.347.3.014.683-.211.868-.071.178-.154.332-.319.587-.333-.039.042-.1.071-.093.138.175.038.187-.051.306-.141-.016.053.349.074.546.123.177-.152.056-.285.046-.388.279.225.518-.37.836-.187-.058.062-.253.236-.06.253.279.224.309-.333.655-.293l-.151-.213c.181.103.399-.281.446-.029.074-.118.381-.037.273-.257.558.035 1.166-.507 1.604-.192.059-.061.248-.079.174-.186-.16-.091-.135.145-.207.071.061-.027.054-.095.051-.129.171.003.297-.019.214.22.388.032.226-.507.691-.558.011.102.056.128.179.071l.189-.242c.294-.053.23.166.289.326.142-.077.329-.128.358-.272l.249.145c-.181-.105.092-.138.15-.201l-.058.063c.05.059.211-.039.292-.088-.053-.093-.244-.076-.351-.074.055-.096.179-.118.254-.235.018.17.282.034.407.012.149-.01.109-.193.151-.2.03.081.229-.059.159.091-.038.041-.133-.046-.187.052.11.032.146.179.3.014.116-.125-.138-.302.163-.289-.058.063-.05.13-.086.205l.278.001-.036-.148c.045.026.026.046.048.06.025-.176.369-.171.37-.36.122-.056.299.014.426-.009l-.019.02c.175.037.354-.082.447-.22l.003.034c.084-.015.268-.1.342-.217.24.043.245.523.412.268.206-.071.239-.37.126-.435.404-.023.75-.396 1.168-.283.035-.076-.011-.102.088-.171.566-.12 1.1-.545 1.627-.402-.139.112.036.148.066.23.089-.172.201.083.176-.154-.056-.127-.063-.194-.234-.198.303-.175.799-.336 1.02-.272-.11-.032-.053-.094.006-.156.043.216.294.17.452.037l-.015-.135.16.092c.057-.063-.009-.291.212-.227a.3.3 0 0 0 .096.118c.155-.165.363-.427.603-.386l.227.132c.081-.049.191-.208.02-.212.385-.001.614-.06.777.065.474-.586 1.34-.883 2.048-1.081l.01.102c.216.029.044-.198.196-.174-.031.11.207.151.095.31.301.013.293-.277.453-.376-.014-.134-.114.125-.132-.045.016-.054.403-.022.384-.225.091.053.084.209.072.297l.134-.145c.272.156-.329.542-.031.746l.142-.078c.208.151-.327.353.074.297.134-.146.187-.465.013-.502.325-.163.013-.501.386-.605.137.079-.286.122-.164.255.222.096.32-.198.492-.194-.195-.016-.112-.254-.012-.324.216.028-.064.218.208.151.008-.123.226-.284-.009-.291.016-.279.298-.021.38-.26.143.146-.143.491.177.484-.101-.153.286-.345.051-.544.13.012.185.14.135.27.197.05.297-.434.458-.119l.001-.19c.069.04.156.058.269.123.145-.043.389-.381.459-.119.038-.041.37-.136.185-.274-.239-.043-.192.207-.384.002.208.151.286-.121.383-.225l.051.093c.058-.061.227-.092.236-.214-.036.075.014.134.078.14l.025-.176c.261-.169.154.246.417.112l-.173.186c.038-.04.179.071.297-.019.006-.156.05-.354.059-.476.137-.112.121.134.229-.059l-.148.233c-.016.055.21.185.419.114.118-.091.26-.359.025-.367.104-.036.278.001.228.129.222-.124-.08-.139.098-.292.114.066.417.113.619.197l-.139.301.143-.044c-.124.246.139.113.099.342.107 0 .203-.105.281-.186-.387-.223.179-.534.004-.794.364-.204.469.619.73.039-.091-.054.031-.334-.188-.172.252-.046.071-.341.396-.315-.174.187.321.218.07.488-.01-.102-.194-.017-.232.025.136.078.073.295.321.215.142-.077.348-.149.27-.289-.06-.162-.226.092-.183-.105.283-.155.414.079.445-.253-.183.084-.286-.069-.319-.183l.2-.14-.008.123c.381-.036.041-.232.395-.314l.231.163c-.022.212-.528.08-.369.362.228-.059.253-.237.489-.227-.039.041-.1.069-.138.111.084-.016.293.359.536.022.135-.145.009-.122-.024-.237.348-.15.418-.3.644-.393.024.237.415-.111.233.198-.159-.091-.675.089-.734.341.216.22-.293.055-.285.345.29-.087.36.175.461.329.083-.014.138-.11.177-.152-.018-.171-.122-.134-.181-.296.336-.061.616-.25.744-.461.132.044.15.213.028.269.367-.17.783-.281 1.161-.35-.318-.183.385-.192.156-.356-.214.005-.441-.126-.371-.277.127-.022.033.115.101.154.109-.192.315.149.394-.123-.322.196.035.338.036.562.215-.196.036.148.285.067a3.6 3.6 0 0 1 .759-.517c.413.08.889-.283 1.199-.393.197.05.161.316.351.298.207-.072-.235-.198.108-.192l-.015.055c.076-.084.616-.027.601-.387l-.015.28c.065.004.1-.07.139-.112.029.081.12.133.043.216.246.11.391-.157.596-.231l-.181-.104c.318-.23.602-.161.928-.323l.037.147.176-.152c-.005.155.212.185.282.033l-.417.525c-.175-.038.105-.226-.033-.338-.119-.099-.424.042-.43.198.126-.024.122-.057.199-.139.106.187-.082.239-.13.402.061-.028.172.003.165-.064-.093.138-.215.194-.421.266.116-.124-.117-.099-.082-.174.04.182-.141.301-.415.334-.25-.144-.441.288-.757.328.063-.217.171-.411.329-.542-.216-.029-.206.072-.423.043-.048.163-.046.388-.264.548l-.056-.128c-.2.139-.137.335-.43.389-.504.091-1.001.252-1.374.355l-.057-.127c-.114.347-.65.324-.885.539-.51.025-.979.456-1.293.307-.796.369-1.488.702-2.362.931l.082-.238c-.108.19-.135-.078-.277-.001.223.097-.145.266-.213.418-.43-.025-.869.295-1.164.539l-.056-.127c-.262.358-.741.273-1.181.371-.067-.039-.184-.138-.306-.082-.163.288-.289.312-.585.555-.248.08-.667.157-.946.156-.835.601-1.849.717-2.76 1.211l-.12-.133c-.833.635-2.086.709-2.833 1.138l-.008-.29c-.278-.001-.551.255-.426.422-.278 0-.588.332-.818.166-.274.035-.276.224-.479.329-.548.066-.732.151-1.202.358l.126-.022c.034-.076.003-.19-.124-.168-.158.132-.69.145-.408.402-.578-.015-1.163.541-1.748.458.072.072-.051.13-.086.205-.454.151-.99.13-1.306.395-.087-.02.068-.184-.121-.134-.099.069.034.114-.085.206-.686.4-1.548.317-2.206.576-1.139.552-2.411.871-3.545 1.268l-.008-.067c-.304.366-.978.042-1.166.506-.109-.032-.354.083-.327-.061-.249.27-.906.115-1.276.474.043-.007.061-.027.1-.07-.491.004-.822.323-1.332.348.039-.042.119-.091.112-.158-.22-.063-.343.407-.542.133-.103.036-.024.178.037.148-1.068.214-2.102.764-3.15 1.18-.826.065-.213-.5-.745-.076-.068-.043.002.128-.027.068-.206.161-.475-.224-.585-.011.127.166-.074.14-.043.256-.508.03-.657-.109-.981.153l-.004-.108c-.344.419-.895.433-1.157.873-2.374.832-4.609 1.753-6.93 2.545-2.326.684-4.537 1.559-6.934 2.146-.633-.083-.672-.063-1.24.238.01-.05.045-.072-.008-.098.038.222-.418.157-.41.379-.878.24-1.657.556-2.547.846.133-.068.148-.265-.015-.197l-.132.192-.047-.05c-.104.069-.195.214-.055.244-2.178.908-4.518 1.192-6.693 1.953-.549.08-1.264.401-1.815.628-1.768.257-3.353.517-4.992 1.267 0-.002.045-.624.706-.978Z"/><path fill="#fc6b7e" stroke="#fc6b7e" stroke-width="2.557" d="m408.234 159.605.12-.089.01.099zM398.255 162.838c-.116.103-.123-.058-.149-.065.118-.049-.008.131.149.065ZM393.028 165.051l.04-.015.049.197z"/></g><defs><clipPath id="a"><rect width="411.766" height="411.766" fill="#fff" rx="12.14"/></clipPath></defs></svg>