<svg width="416" height="416" viewBox="0 0 416 416" fill="none" xmlns="http://www.w3.org/2000/svg">
<g clip-path="url(#clip0_1056_1713)">
<rect width="415.113" height="415.113" rx="12.2392" fill="#F6F6F1"/>
<path d="M385.815 162.016L385.051 162.659C386.476 160.925 386.139 161.469 385.815 162.016ZM415.444 237.766C415.889 238.036 415.902 237.961 415.77 237.776C415.416 237.646 414.508 236.935 413.497 236.096C413.707 236.418 414.175 236.897 415.444 237.766ZM411.54 234.417C411.499 234.393 411.47 234.377 411.433 234.362C409.608 232.682 410.25 233.285 411.54 234.417ZM516.875 185.523C517.641 185.993 518.642 186.864 519.594 187.802C519.383 188.031 519.159 188.274 518.931 188.521C519.096 188.3 519.265 188.073 519.455 187.818C518.645 187.154 517.798 186.411 516.875 185.523ZM468.691 255.314C468.095 256.242 466.99 258.167 466.278 258.632C466.62 257.308 467.419 256.699 468.691 255.314ZM429.691 284.927L431.998 288.007C428.416 285.018 426.315 282.407 428.351 285.418C428.783 285.258 429.984 286.325 431.459 287.831C431.828 288.207 432.216 288.608 432.61 289.027C433.178 289.637 433.764 290.264 434.351 290.896C435.805 292.46 437.275 294.039 438.619 295.486C439.966 293.701 441.154 292.082 441.966 290.864C442.371 290.256 442.683 289.746 442.878 289.361C442.976 289.167 443.046 289.004 443.084 288.874C443.099 288.774 443.081 288.709 443.05 288.651L444.807 286.842C444.358 287.399 444.35 287.538 443.903 288.094C447.393 284.632 445.363 284.642 449.364 279.794C450.786 278.125 451.873 277.039 451.083 278.314L453.813 274.258C454.703 273.153 454.673 273.569 453.786 274.669L458.262 268.726L458.259 268.793C458.744 267.827 459.964 265.728 460.577 264.715C461.885 263.339 460.107 265.552 460.534 265.271L462.803 261.82C464.104 260.704 462.277 263.606 460.493 265.826C463.899 263.599 462.324 262.919 468.025 256.832L465.773 260.011C467.905 258.493 469.55 255.927 472.617 252.739C471.784 253.412 466.285 258.97 468.765 255.233C469.615 254.299 470.671 253.017 471.938 250.946C472.326 251.217 473.678 249.286 475.462 246.941L475.832 247.485C477.642 244.856 477.237 244.859 478.163 243.204C480.388 240.437 481.222 240.152 482.057 239.743C485.619 235.312 479.036 242.369 483.068 236.979C486.156 233.388 487.989 230.608 491.159 225.909C493.358 223.425 491.107 226.6 491.977 225.77L493.38 223.147C493.83 222.586 493.809 222.863 493.797 223.005C495.161 220.932 493.428 222.461 495.677 219.283C495.774 218.034 501.363 213.597 503.693 209.315C504.561 208.487 503.643 210.003 504.059 209.864C507.697 204.335 507.23 205.167 510.007 200.458L513.161 197.062C510.71 199.456 512.926 195.69 514.895 192.408C513.976 193.222 513.19 193.91 512.692 194.398L514.416 191.902L515.279 190.652L515.659 190.094L515.993 189.595C516.449 189.173 516.415 189.569 516.053 190.462C516.25 190.123 516.427 189.812 516.548 189.578C517.271 188.835 517.633 188.61 517.7 188.789C517.772 188.964 517.54 189.552 517.148 190.342C516.99 190.495 516.833 190.646 516.676 190.797C516.521 190.945 516.363 191.096 516.232 191.213C515.958 191.459 515.684 191.705 515.415 191.947C514.799 193.361 514.274 194.727 514.754 194.705C514.938 194.349 515.352 193.713 515.837 193.032C515.678 193.405 515.598 193.659 515.759 193.554C515.935 193.433 516.214 192.847 516.695 191.968L517.045 191.802C517.105 191.772 517.154 191.754 517.224 191.713L517.444 191.571C517.739 191.382 518.049 191.171 518.372 190.945C518.388 190.774 518.399 190.608 518.407 190.447L520.717 187.685L517.681 184.965L516.896 184.262L516.698 184.084L516.568 183.966L516.313 183.729L515.293 182.782C510.453 179.667 505.977 177.279 498.819 171.703C500.875 172.75 499.723 171.372 500.199 170.989C501.695 173.061 505.774 175.271 509.305 178.375C507.464 176.754 508.061 176.878 508.605 177.201L501.788 172.289C502.248 172.03 500.654 170.868 499.101 169.31C499.752 171.118 493.882 165.815 491.07 163.864C491.116 163.477 491.958 163.743 495.108 166.464C492.045 162.966 489.816 163.55 486.747 160.193C487.533 160.837 487.922 161.225 488.338 161.354C486.328 160.058 482.014 156.173 483.245 156.827L484.027 157.471C478.915 153.069 468.243 144.339 466.94 144.333C466.958 144.206 468.257 144.131 468.677 144.264L457.646 138.708C458.915 138.84 456.865 134.938 461.422 138.206C460.253 137.101 458.799 135.74 456.035 133.77C456.813 134.548 457.48 136.304 456.288 135.396C454.96 133.778 454.478 133.244 453.898 132.639C453.605 132.339 453.292 132.017 452.827 131.544C452.601 131.303 452.333 131.025 452.015 130.69C451.968 130.645 451.95 130.62 451.881 130.551C451.817 130.49 451.753 130.425 451.689 130.36C451.555 130.23 451.417 130.096 451.273 129.953C450.977 129.663 450.658 129.348 450.312 129.006C451.162 129.798 451.031 130.037 450.479 129.923C450.203 129.866 449.831 129.733 449.413 129.526C448.993 129.322 448.534 129.051 448.041 128.687C447.853 128.906 447.659 129.123 447.457 129.333C447.602 129.059 447.507 128.757 447.466 128.407C447.429 128.055 447.455 127.643 447.935 127.048C447.935 127.048 447.937 127.05 447.94 127.053L447.935 127.048C446.847 128.466 445.866 129.772 444.992 130.965L444.828 131.186L444.748 131.297L444.689 131.384L444.462 131.722L444.015 132.399L443.113 133.752C444.067 132.453 442.629 132.905 441.419 133.734C442.032 133.397 437.595 137.751 436.504 139.067L438.553 137.266C433.462 142.414 434.768 143.527 429.795 148.707C430.228 147.918 430.251 146.186 427.643 148.747C426.904 150.35 424.524 155.993 420.478 160.91L419.407 161.576L416.324 165.37C417.793 162.58 422.344 155.165 425.035 151.308C422.989 153.1 424.242 151.593 421.476 154.562C420.273 155.398 422.663 152.641 423.468 151.763L416.84 158.492C417.606 158.639 412.358 164.198 413.006 164.31L419.554 156.386C420.317 156.535 416.839 161.98 412.157 166.765C410.8 167.822 412.183 165.035 411.927 164.986C411.495 165.775 407.878 169.9 407.339 170.237L409.034 167.93C406.294 170.469 405.492 172.949 401.96 175.771C400.869 176.867 398.176 178.544 398.275 179.006C400.555 177.689 402.581 178.926 401.834 180.531C401.426 180.893 395.743 185.94 394.259 186.967C392.084 188.413 395.862 183.228 394.008 184.456C394.074 184.647 393.271 185.82 392.918 186.294C391.694 187.369 392.976 185.423 390.614 188.045C390.694 188.928 385.648 193.218 389.879 189.644C387.648 192.28 387.262 192.214 384.5 195.178C385.702 194.535 383.071 198.829 380.834 201.471C380.851 201.205 380.158 201.617 379.827 201.822C378.711 202.983 377.716 204 376.757 204.963C375.751 205.976 374.818 206.91 373.909 207.822C375.114 208.827 376.282 209.806 377.519 210.839C378.688 211.81 379.93 212.823 381.35 213.948C381.73 214.454 384.122 216.596 382.876 215.971C383.697 216.473 384.524 216.842 386.14 218.102C388.896 221.01 382.504 215.336 384.447 217.751C384.888 217.61 388.931 220.624 391.368 222.246C391.033 221.223 386.151 217.973 383.713 216.345C384.209 215.695 388.732 218.179 394.409 222.193C398.86 225.459 395.955 224.093 396.779 224.597C404.816 231.142 404.589 228.954 410.97 234.762C413.322 237.292 410.447 235.672 410.807 236.436C407.158 233.803 405.602 231.893 403.201 230.018L405.987 232.541C404.758 231.79 402.326 230.029 401.137 228.896C403.09 231.041 414.808 239.836 420.81 245.139C422.032 245.884 424.066 247.265 423.287 246.379L421.259 244.866C419.696 243.094 425.353 247.365 422.963 245.224C425.809 247.098 429.079 249.094 432.677 252.248L433.011 253.273C433.04 253.071 430.783 251.055 429.618 250.363C431.344 251.392 434.861 255.544 437.058 256.286L434.688 253.883C435.86 254.658 437.177 255.469 438.542 256.353C438.874 256.571 439.211 256.79 439.552 257.012C439.721 257.103 439.888 257.199 440.059 257.293C440.381 257.476 440.671 257.654 440.956 257.865C441.146 257.593 441.332 257.356 441.547 257.126C441.259 257.157 441.186 257.167 441.121 257.238C441.06 257.301 441.019 257.407 440.905 257.475C440.804 257.344 440.629 257.095 440.478 256.73C440.591 257.092 440.525 257.172 440.261 257.031C440.134 256.963 439.972 256.846 439.792 256.714C439.344 256.36 438.855 255.974 438.375 255.595C436.409 254.033 434.595 252.6 435.959 254.254C434.033 251.711 431.979 250.671 429.238 247.63C429.213 247.863 430.126 248.812 427.399 246.53C427.238 246.474 426.895 246.298 426.679 246.182C426.597 246.111 426.571 246.083 426.5 246.021C426.55 246.073 426.588 246.111 426.64 246.161C426.5 246.09 426.486 246.085 426.691 246.214C427.302 246.807 427.776 247.313 427.928 247.571C426.264 246.83 421.842 243.309 420.198 242.306C418.602 240.923 421.029 242.678 420.256 241.797L417.802 240.298C417.851 239.78 413.856 236.254 417.912 239.136L414.416 236.344C412.504 234.519 409.725 232.192 407.86 230.951C406.264 229.568 403.384 228.021 405.036 228.895L399.37 224.752L399.386 224.627C393.995 220.288 387.77 216.349 382.056 210.82C381.167 210.182 380.258 209.536 379.234 208.77C379.125 208.687 379.013 208.602 378.896 208.517C378.845 208.48 378.792 208.442 378.736 208.402C378.63 208.321 378.52 208.238 378.404 208.148C378.178 207.971 377.94 207.772 377.707 207.558C377.763 207.508 377.832 207.444 377.904 207.378C378.141 207.315 378.359 207.265 378.559 207.239C378.662 207.083 378.856 206.887 379.062 206.702C379.764 206.005 380.512 205.262 381.223 204.55C382.655 203.128 383.914 201.835 384.21 201.236C387.154 199.608 394.269 190.913 397.987 187.241L397.76 186.757C400.248 184.165 402.515 181.563 405.434 178.182L404.926 178.08C407.304 175.038 411.944 171.107 416.088 166.653C415.928 167.068 414.836 168.159 414.013 168.883C419.725 164.28 424.02 157.24 429.075 152.945C430.086 151.64 430.943 150.812 431.814 150.051C431.711 150.164 431.62 150.269 431.551 150.363C431.672 150.244 431.842 150.064 432.018 149.878C432.571 149.402 433.148 148.918 433.756 148.378C433.204 148.804 432.688 149.224 432.265 149.612C433.129 148.687 434.41 147.253 435.623 145.806L436.515 145.546C436.62 145.431 436.701 145.339 436.806 145.22C438.201 143.997 437.663 143.986 436.731 144.461C437.324 143.72 437.854 143.021 438.235 142.456C439.819 141.887 441.441 138.688 443.438 137.754C443.672 137.274 444.732 136.038 445.917 134.653C446.211 134.304 446.515 133.947 446.818 133.592C447.001 133.379 447.034 133.326 447.118 133.214C447.196 133.111 447.272 133.005 447.345 132.906C447.654 132.492 447.96 132.054 448.224 131.618C448.55 131.758 448.818 131.812 448.961 131.723C448.979 131.876 449.254 132.17 448.721 131.735C448.987 131.986 449.253 132.236 449.518 132.483C449.646 132.599 449.774 132.716 449.901 132.832L450.146 133.047L450.442 133.298C451.231 133.96 452.024 134.575 452.828 135.091L453.139 136.122L457.202 138.461C459.127 140.534 459.888 141.439 457.453 140.011C463.078 143.769 461.822 143.295 466.669 146.417L466.206 146.536C467.789 147.831 470.632 149.525 471.378 150.559C474.43 154.044 488.724 165.108 497.323 173.138C496.294 170.81 501.198 177.018 502.114 176.642C502.469 177.286 503.632 178.448 502.021 177.409C506.799 181.039 508.674 183.495 512.329 185.57C512.686 186.215 511.093 185.053 511.46 185.565C511.867 185.828 513.074 186.603 513.452 187.124C513.82 187.636 512.633 186.736 511.828 186.22C512.494 186.766 513.086 187.229 513.613 187.623L513.701 187.688L513.733 187.702L513.795 187.734C513.838 187.756 513.88 187.775 513.918 187.796C514.001 187.834 514.086 187.87 514.174 187.904C514.522 188.041 514.911 188.154 515.319 188.25C515.518 188.468 515.85 188.613 516.179 188.747C515.737 189.165 515.404 189.487 515.126 189.782C515.053 189.86 514.999 189.917 514.923 190.004C514.83 190.117 514.736 190.228 514.648 190.335C514.472 190.552 514.308 190.765 514.155 190.975C513.536 191.823 513.072 192.652 512.593 193.687C511.733 194.379 510.426 195.628 512.669 192.587C511.337 194.243 504.419 202.613 504.781 203.168C504.248 203.596 502.923 205.487 502.638 205.973C499.686 209.717 499.385 210.014 496.564 213.748L497.44 212.786C496.903 214.709 495.188 215.964 492.947 219.002L492.952 218.868C487.22 225.372 490.869 221.98 485.146 228.345L485.802 228.266C486.11 229.515 480.694 233.879 477.964 238.029L479.271 236.782C477.886 239.132 473.553 241.915 471.787 243.986C471.354 244.399 472.249 243.16 472.705 242.466C467.874 247.723 472.625 243.572 469.489 247.849C468.627 248.419 469.595 246.336 467.359 249.119C466.057 250.358 461.867 257.956 458.38 261.413C459.239 260.723 460.095 260.036 458.737 262.1C456.497 265.139 451.719 269.572 450.267 272.76C449.917 273.096 449.754 273.197 449.692 273.173C448.088 275.581 444.218 280.795 443.498 282.437C442.78 282.71 441.787 283.739 440.681 285.116C440.406 285.46 440.122 285.826 439.835 286.207C439.787 286.273 439.739 286.338 439.691 286.404L439.576 286.566C439.496 286.68 439.417 286.794 439.337 286.908C439.015 287.379 438.673 287.901 438.307 288.458C437.888 288.082 437.442 287.678 437.012 287.266C436.796 287.062 436.585 286.857 436.386 286.657C436.088 286.352 435.801 286.044 435.548 285.766C434.529 284.644 433.96 283.838 434.25 283.596L428.153 277.056L428.423 277.126C424.636 272.845 423.008 271.596 421.388 270.355C420.571 269.311 421.324 269.929 421.455 269.958C416.036 263.599 415.43 263.028 410.153 258.366L410.018 257.503C408.528 256.295 402.422 248.092 396.475 242.432C396.57 242.455 396.753 242.516 397.243 242.951C390.602 236.536 383.329 225.784 379.753 224.477L375.328 220.283C380.541 226.176 373.973 219.932 375.944 222.516C373.782 220.303 370.933 216.261 373.568 219.004L373.904 219.501C375.525 219.917 367.534 212.071 368.149 211.815C366.857 210.4 365.619 208.977 364.497 207.502C363.387 206.028 362.373 204.504 361.619 202.911C360.857 201.322 360.329 199.673 360.13 198.017C359.956 196.356 360.097 194.692 360.54 193.084C361.424 189.853 363.383 186.909 365.612 184.192C366.732 182.828 367.93 181.511 369.158 180.202C370.401 178.881 371.634 177.564 372.863 176.258L371.21 176.985L374.656 173.335C375.675 172.48 376.269 172.417 373.812 175.022C375.39 173.918 377.65 170.389 377.605 170.207C382.589 165.266 376.355 172.784 377.83 171.218L379.777 169.042L379.266 169.468C380.664 167.533 380.579 167.17 383.534 164.036C385.492 162.137 384.806 163.314 385.557 162.547C385.59 162.584 385.853 162.338 386.691 161.355L391.041 156.76L388.904 158.23C390.609 155.986 392.974 153.891 390.518 155.595C394.157 153.125 406.828 138.541 408.844 136.823C411.212 133.664 413.855 130.828 417.157 127.343C416.259 128.137 415.306 128.229 418.182 125.245C418.113 127.247 423.756 120.077 426.726 118.264C424.232 120.028 434.623 109.53 430.777 112.365C433.202 109.912 431.287 112.529 433.282 110.85C434.575 109.303 436.023 107.791 437.689 106.536C439.343 105.27 441.244 104.316 443.225 104.031C444.213 103.89 445.219 103.899 446.217 104.103C447.214 104.306 448.203 104.673 449.172 105.171C451.115 106.166 452.953 107.671 454.753 109.329C454.986 109.315 453.959 107.974 455.676 109.261C456.733 110.692 457.734 112.191 458.775 113.698C460.226 115.111 460.771 114.375 462.882 117.464C462.628 116.987 462.248 116.274 463.222 117.22C476.413 132.36 491.91 146.518 504.786 162.385C503.127 160.155 504.417 161.467 505.876 162.988C504.989 161.94 506.204 162.721 506.187 162.366L511.584 169.003C513.121 169.689 517.906 175.612 518.966 175.835L517.026 173.952C520.024 176.063 514.742 169.195 515.779 168.937C512.414 166.583 509.373 160.399 503.978 156.417C503.112 155.231 505.048 157.115 504.671 156.4C503.23 155.459 501.781 154.049 499.335 151.209L499.697 151.449C492.393 143.88 489.58 140.334 481.644 131.575L481.913 132.525C480.211 130.64 479.947 130.154 479.213 129.213C476.704 127.574 484.091 134.415 481.706 133.016C480.069 129.93 469.402 120.007 468.61 117.623C465.927 114.786 469.009 118.822 466.329 115.984L465.827 115.034L464.878 114.572C463.162 112.67 462.533 111.484 462.645 111.247C463.052 111.719 463.91 112.481 464.382 112.952C463.361 111.629 461.744 109.956 460.261 108.482C458.769 106.987 457.329 105.745 456.905 105.308C457.852 106.242 458.739 107.199 459.586 108.162C457.636 106.256 455.486 104.191 452.78 102.484C451.427 101.642 449.916 100.901 448.255 100.442C446.601 99.9774 444.795 99.8302 443.064 100.077C441.327 100.31 439.695 100.905 438.252 101.672C436.807 102.444 435.535 103.383 434.394 104.367C432.114 106.341 430.314 108.501 428.692 110.453L429.382 110.033C424.366 116.028 424.951 114.453 419.257 120.861L419.431 120.599C418.424 122.002 416.944 123.758 415.332 125.461C416.618 123.7 412.198 128.107 413.921 125.833C408.48 132.333 411.323 129.134 408.114 133.783L406.972 134.481C405.913 136.102 405.934 136.335 403.092 139.539C405.252 136.753 400.827 141.165 403.2 138.002C396.507 144.045 394.713 148.323 391.058 150.555C388.99 154.261 396.755 145.236 395.343 147.076C396.901 145.881 393.577 150.082 391.584 152.081C389.616 154.17 387.326 154.782 382.426 160.086C382.92 159.563 382.898 159.476 383.387 158.952C381.363 160.759 380.041 163.066 377.483 165.215C376.663 166.988 374.528 168.345 374.733 169.261L379.108 164.289C376.702 167.178 374.969 170.373 370.441 174.607C370.656 174.145 371.757 172.658 372.533 171.655C371.134 172.825 370.273 174.309 368.828 175.526C368.621 174.604 374.177 169.51 376.479 166.16C374.92 167.362 371.718 172.119 372.477 170.068C371.88 171.495 370.643 172.774 369.218 174.215C368.505 174.938 367.745 175.696 366.992 176.534C366.235 177.376 365.48 178.312 364.809 179.381L364.677 178.826C364.21 179.476 363.287 180.845 362.371 182.006C362.766 181.18 363.182 180.37 363.606 179.561C362.467 181.279 361.144 182.767 359.9 184.376C358.666 185.98 357.497 187.737 356.867 189.824C357.269 188.768 357.641 187.98 357.96 187.398C358.265 186.804 358.521 186.418 358.708 186.15C359.081 185.616 359.191 185.584 359.236 185.692C359.279 185.8 359.258 186.047 359.355 186.08C359.451 186.114 359.662 185.929 360.217 185.231C358.95 187.496 358.286 189.062 357.762 190.213C357.514 190.797 357.275 191.263 357.096 191.709C356.908 192.151 356.694 192.533 356.542 192.954C356.207 193.785 355.849 194.693 355.711 196.238C355.633 197.01 355.628 197.949 355.784 199.072C355.826 199.355 355.874 199.651 355.923 199.957C355.997 200.259 356.072 200.574 356.152 200.902C356.227 201.236 356.34 201.568 356.461 201.915C356.579 202.264 356.697 202.63 356.859 202.988C356.67 202.606 356.499 202 356.32 201.378C356.238 201.061 356.181 200.731 356.123 200.416C356.093 200.257 356.066 200.105 356.041 199.957C356.023 199.808 356.013 199.661 356.001 199.526C355.961 198.983 355.95 198.581 356.003 198.481C356.051 198.381 356.137 198.585 356.306 199.238C356.369 199.844 356.517 200.47 356.648 201.123C356.723 201.443 356.813 201.759 356.898 202.079C356.977 202.398 357.077 202.706 357.178 203.005C357.554 204.223 358.005 205.268 358.243 205.955C358.753 206.838 359.161 207.45 359.464 207.867C359.767 208.289 359.958 208.529 360.072 208.637C360.299 208.853 360.174 208.585 359.99 208.187C359.618 207.386 358.998 206.094 360.018 207.419C360.513 208.689 361.15 209.416 361.896 210.144C362.659 210.857 363.549 211.574 364.7 212.734L364.361 213.061C365.724 214.706 366.544 215.543 367.079 216.024C367.617 216.506 367.873 216.609 368.113 216.696C368.591 216.869 368.994 216.969 371.397 219.862L368.772 217.957L371.542 220.734L370.602 220.495C373.773 223.373 374.594 224.42 377.305 227.601C376.893 226.663 378.302 227.429 380.809 230.147C382.307 232.194 379.527 229.405 383.117 233.224C382.1 232.551 380.953 231.842 379.732 229.87C379.462 229.8 378.727 229.207 378.451 229.133C380.05 231.351 383.008 234.214 384.293 235.609C383.813 235.058 383.242 234.398 382.987 234.024L388.6 239.187C389.276 240.19 388.532 239.584 387.796 238.984C388.872 240.085 389.75 240.725 391.309 242.366C390.631 242.192 390.437 242.56 388.139 240.319L393.341 245.372C393.545 245.841 395.515 248.418 394.775 247.82C397.322 250.93 401.972 254.581 405.348 258.702C405.589 258.857 406.015 259.22 406.82 260.016C410.135 263.761 412.782 267.342 417.17 271.362L418.938 274.301C422.186 277.621 416.496 270.367 421.908 275.891C425.764 279.781 422.858 277.789 424.013 279.333C426.105 281.109 429.82 284.124 432.803 288.207C431.586 287.068 430.78 286.037 429.691 284.927Z" fill="#FC6B7E"/>
</g>
<defs>
<clipPath id="clip0_1056_1713">
<rect width="415.113" height="415.113" rx="12.2392" fill="white"/>
</clipPath>
</defs>
</svg>
