<svg width="412" height="412" viewBox="0 0 412 412" fill="none" xmlns="http://www.w3.org/2000/svg">
<g clip-path="url(#clip0_1056_1512)">
<rect width="411.766" height="411.766" rx="12.1405" fill="#F6F6F1"/>
<path d="M372.284 100.513C372.135 100.166 372.217 100.748 372.151 100.298C372.226 100.327 372.294 100.381 372.284 100.513Z" fill="#FC6B7E" stroke="#FC6B7E" stroke-width="2.5572"/>
<path d="M403.257 196.573C402.499 195.546 402.398 193.903 401.744 192.722C401.68 192.579 401.968 192.692 401.809 192.374C401.114 191.249 400.67 189.264 400.42 187.701L400.508 187.772C400.46 187.474 400.15 187.191 400.081 186.882C400.119 186.866 400.168 186.96 400.2 186.872C400.056 186.835 399.969 186.347 399.838 186.248C399.847 186.114 399.945 186.096 399.948 185.925L399.756 185.797C399.278 185.423 399.403 184.628 399.025 184.029C399.067 184.051 399.112 184.107 399.126 184.045C398.591 183.061 398.203 181.739 397.752 180.591C397.815 180.621 397.917 180.637 397.949 180.55C397.787 180.539 397.633 180.189 397.504 179.884C397.606 179.695 397.195 179.389 397.158 178.995L397.201 179.015C396.958 178.793 397.159 178.583 396.902 178.422L396.962 178.212C396.716 178.159 396.943 177.783 396.765 177.592L396.724 177.613C396.605 177.417 396.673 177.273 396.575 177.088L396.593 177.061C396.389 176.619 396.418 176.313 396.26 176.377C396.337 176.174 396.464 176.804 396.571 176.49C395.914 175.028 395.441 173.455 394.945 171.931C394.954 171.736 394.938 171.62 394.986 171.561C394.905 171.419 394.771 170.996 394.644 170.885C394.663 170.935 394.695 170.76 394.677 170.676C394.648 170.379 394.4 170.431 394.375 170.103C394.457 170.21 394.522 170.234 394.57 170.174C394.359 169.955 394.267 169.601 394.127 169.307C394.169 169.346 394.21 169.415 394.257 169.387C394.005 169.097 394.089 168.764 393.903 168.499L394.032 168.579C393.993 168.068 393.792 168.502 393.726 168.071C393.787 168.159 393.813 168.113 393.857 168.118C393.563 167.791 393.419 167.154 393.238 166.791C393.258 166.81 393.282 166.796 393.282 166.796C393.126 166.387 393.038 165.935 392.816 165.502C392.804 165.322 393.062 165.482 392.886 165.053C392.703 165.131 392.567 164.332 392.438 164.66C392.348 164.274 392.226 163.657 392.081 163.427C392.207 163.573 392.251 163.17 392.368 163.477L392.406 163.204C392.494 163.214 392.458 163.455 392.531 163.349C392.473 163.194 392.251 162.763 392.236 162.613C392.027 162.36 391.726 162.163 391.55 161.701C391.695 161.898 391.717 161.508 391.798 161.648L391.226 161.11C391.167 160.956 391.363 161.028 391.241 160.818C391.195 160.846 391.133 160.757 391.071 160.701C391.073 160.636 390.814 160.067 390.977 159.939C391.027 159.847 391.098 160.181 391.108 159.987C391.012 159.699 390.945 159.707 390.849 159.419L390.872 159.406C390.838 159.206 390.611 158.869 390.577 159.11C390.613 159.244 390.671 159.023 390.681 159.237C390.53 159.138 390.392 158.812 390.297 158.524C390.359 158.613 390.404 158.585 390.469 158.608C390.198 158.267 390.019 157.871 389.819 157.457C389.728 157.479 390.031 157.567 390.005 157.646C389.947 157.051 389.461 156.556 389.49 156.036C389.53 156.107 389.379 156.117 389.401 156.104C389.326 155.833 389.457 155.804 389.354 155.645C389.423 155.604 389.259 155.434 389.178 155.262C389.094 155.187 389.2 155.204 389.258 155.357C389.114 155.128 388.676 154.165 388.598 153.553C388.552 153.58 388.302 153.256 388.264 153.122L388.397 153.137C388.427 152.993 388.243 152.695 388.335 152.641C388.103 152.403 388.808 153.694 388.575 153.346C388.64 153.216 388.218 152.871 388.403 152.903C388.312 152.638 388.098 152.422 388.124 152.132C388.129 152.212 388.354 152.296 388.277 152.084C388.134 151.711 388.187 151.993 388.049 151.699L387.939 151.521C387.822 151.545 387.845 151.178 387.764 151.359C387.842 151.283 387.529 150.827 387.729 150.805L387.893 150.811C387.829 150.65 387.651 150.592 387.544 150.485C387.551 150.459 387.566 150.406 387.593 150.407C387.359 150.453 387.485 150.01 387.248 149.871C387.215 149.502 386.973 148.996 387.061 148.788C386.907 148.546 386.748 148.331 386.699 148.014C386.739 148.067 386.773 148.148 386.827 148.149C386.832 147.939 386.757 147.911 386.665 147.75C386.711 147.778 386.674 147.329 386.686 147.093C386.534 146.852 386.442 146.981 386.359 146.979C386.503 146.667 385.976 146.285 386.08 145.919C386.14 146 386.313 146.266 386.298 146.03C386.442 145.718 385.978 145.599 385.959 145.178L385.806 145.332C385.864 145.123 385.515 144.798 385.715 144.776C385.607 144.668 385.629 144.3 385.463 144.401C385.409 143.716 384.871 142.885 385.067 142.39C385.008 142.309 384.965 142.072 384.887 142.148C384.836 142.332 385.028 142.336 384.977 142.415C384.945 142.335 384.89 142.333 384.863 142.332C384.84 142.121 384.803 141.962 385.013 142.1C384.982 141.625 384.56 141.746 384.45 141.164C384.532 141.165 384.547 141.113 384.482 140.953L384.254 140.684C384.166 140.313 384.357 140.424 384.48 140.374C384.396 140.188 384.326 139.949 384.203 139.892L384.286 139.606C384.226 139.814 384.158 139.471 384.098 139.39L384.158 139.471C384.2 139.418 384.095 139.205 384.042 139.098C383.973 139.149 384.015 139.388 384.033 139.52C383.945 139.439 383.909 139.281 383.801 139.171C383.939 139.175 383.787 138.828 383.75 138.67C383.72 138.485 383.575 138.507 383.563 138.454C383.626 138.429 383.481 138.163 383.615 138.271C383.655 138.325 383.597 138.429 383.685 138.51C383.696 138.378 383.812 138.356 383.652 138.141C383.532 137.979 383.423 138.267 383.39 137.897C383.45 137.978 383.505 137.978 383.572 138.034L383.532 137.691L383.415 137.714C383.429 137.661 383.449 137.688 383.457 137.663C383.308 137.605 383.262 137.182 383.105 137.152C383.04 136.993 383.072 136.784 383.034 136.624L383.054 136.651C383.059 136.439 382.933 136.201 382.806 136.066L382.833 136.066C382.808 135.96 382.711 135.72 382.603 135.612C382.603 135.322 383 135.386 382.764 135.142C382.675 134.877 382.423 134.792 382.386 134.922C382.307 134.419 381.948 133.936 381.979 133.436C381.911 133.383 381.897 133.435 381.824 133.302C381.642 132.585 381.211 131.863 381.252 131.233C381.365 131.421 381.369 131.21 381.432 131.185C381.277 131.05 381.472 130.949 381.279 130.945C381.183 130.995 381.128 130.994 381.15 131.205C380.96 130.804 380.755 130.168 380.774 129.904C380.765 130.035 380.704 129.956 380.644 129.874C380.817 129.852 380.741 129.535 380.609 129.32L380.499 129.319L380.551 129.134C380.491 129.054 380.312 129.102 380.332 128.839C380.366 128.815 380.401 128.789 380.415 128.738C380.256 128.522 380.009 128.226 380.008 127.936L380.083 127.675C380.031 127.568 379.883 127.407 379.905 127.618C379.847 127.143 379.765 126.85 379.844 126.668C379.29 125.996 378.916 124.881 378.648 123.977L378.73 123.979C378.722 123.716 378.561 123.897 378.557 123.712C378.653 123.767 378.651 123.479 378.8 123.64C378.766 123.27 378.528 123.238 378.422 123.024C378.313 123.022 378.542 123.184 378.405 123.181C378.357 123.154 378.326 122.68 378.162 122.674C378.192 122.569 378.322 122.601 378.396 122.628L378.257 122.441C378.346 122.128 378.754 122.928 378.878 122.589L378.792 122.403C378.887 122.168 379.132 122.859 379.028 122.355C378.887 122.167 378.615 122.056 378.611 122.265C378.428 121.839 378.194 122.175 378.053 121.698C378.098 121.541 378.196 122.07 378.288 121.94C378.335 121.679 378.077 121.514 378.055 121.303C378.07 121.541 377.861 121.403 377.789 121.269C377.78 121.006 377.978 121.38 377.883 121.035C377.78 121.006 377.615 120.713 377.644 121.003C377.411 120.942 377.582 120.631 377.373 120.494C377.473 120.339 377.8 120.744 377.747 120.348C377.635 120.45 377.42 119.943 377.29 120.204C377.28 120.045 377.378 119.996 377.493 120.077C377.505 119.841 377.09 119.646 377.326 119.493L377.17 119.464C377.192 119.385 377.194 119.28 377.232 119.15C377.174 118.964 376.859 118.613 377.065 118.565C377.025 118.512 376.898 118.088 376.811 118.296C376.811 118.585 377.011 118.564 376.869 118.771C376.963 118.536 376.727 118.4 376.627 118.265L376.697 118.215C376.637 118.134 376.587 117.921 376.485 117.892C376.552 117.947 376.593 117.894 376.589 117.815L376.439 117.759C376.262 117.412 376.62 117.606 376.47 117.26L376.65 117.501C376.611 117.448 376.682 117.291 376.59 117.132C376.46 117.101 376.29 117.018 376.188 116.988C376.075 116.803 376.281 116.859 376.106 116.697L376.32 116.914C376.368 116.942 376.442 116.682 376.353 116.414C376.26 116.254 376.017 116.039 376.045 116.329C376 116.194 376.005 115.984 376.119 116.066C375.983 115.772 376.015 116.143 375.863 115.902C375.9 115.77 375.894 115.402 375.934 115.166L376.204 115.382L376.146 115.199C376.368 115.388 376.218 115.043 376.414 115.127C376.398 114.994 376.297 114.86 376.218 114.752C376.091 115.197 375.751 114.452 375.562 114.63C375.339 114.15 376.004 114.142 375.486 113.733C375.455 113.837 375.205 113.646 375.372 113.941C375.296 113.622 375.079 113.802 375.053 113.405C375.233 113.647 375.185 113.04 375.445 113.39C375.363 113.387 375.46 113.627 375.501 113.68C375.545 113.524 375.734 113.634 375.631 113.316C375.547 113.129 375.456 112.864 375.352 112.94C375.227 112.989 375.462 113.232 375.292 113.149C375.123 112.777 375.296 112.649 375.018 112.562C375.114 112.801 375.002 112.905 374.913 112.929L374.768 112.662L374.871 112.689C374.785 112.214 374.673 112.605 374.553 112.155L374.654 111.894C374.832 111.953 374.797 112.557 375.008 112.403C374.925 112.112 374.774 112.056 374.747 111.765C374.787 111.819 374.819 111.899 374.86 111.952C374.834 111.847 375.113 111.643 374.798 111.293C374.658 111.104 374.696 111.264 374.606 111.287C374.43 110.835 374.296 110.727 374.186 110.434C374.378 110.439 374.033 109.904 374.315 110.175C374.263 110.358 374.488 111.022 374.706 111.132C374.855 110.898 374.794 111.503 375.033 111.536C374.918 111.164 375.124 111.117 375.237 111.015C375.213 110.91 375.125 110.828 375.085 110.774C374.947 110.771 374.992 110.904 374.867 110.953C374.767 110.53 374.569 110.155 374.376 109.966C374.392 109.809 374.53 109.812 374.594 109.971C374.399 109.492 374.246 108.962 374.133 108.484C374.029 108.851 373.917 107.98 373.816 108.24C373.852 108.504 373.777 108.765 373.642 108.657C373.605 108.496 373.732 108.633 373.754 108.554C373.579 108.391 373.831 108.188 373.594 108.049C373.804 108.476 373.868 108.057 374.053 108.088C373.859 107.794 374.17 108.065 374.067 107.746C373.875 107.452 373.677 107.078 373.527 106.731C373.532 106.233 373.162 105.591 373.026 105.191C373.038 104.955 373.263 105.04 373.22 104.801C373.13 104.535 373.091 105.063 373.045 104.64L373.093 104.666C373.012 104.56 372.979 103.9 372.684 103.866L372.918 103.926C372.912 103.846 372.845 103.792 372.805 103.737C372.867 103.714 372.896 103.609 372.977 103.716C373.031 103.428 372.789 103.21 372.698 102.946L372.638 103.154C372.401 102.727 372.416 102.386 372.234 101.959L372.351 101.936L372.199 101.696C372.328 101.724 372.321 101.461 372.185 101.353L372.68 101.945C372.675 102.155 372.477 101.782 372.405 101.936C372.341 102.068 372.503 102.466 372.633 102.497C372.595 102.337 372.568 102.337 372.488 102.229C372.628 102.127 372.698 102.366 372.84 102.45C372.807 102.37 372.817 102.238 372.762 102.237C372.891 102.372 372.955 102.531 373.045 102.797C372.926 102.635 372.98 102.926 372.913 102.872C373.058 102.849 373.182 103.091 373.251 103.433C373.168 103.721 373.553 104.021 373.634 104.418C373.444 104.308 373.269 104.146 373.137 103.931C373.144 104.194 373.227 104.197 373.235 104.461C373.376 104.544 373.562 104.575 373.727 104.868L373.63 104.918C373.774 105.186 373.926 105.137 374.015 105.508C374.165 106.144 374.371 106.781 374.511 107.258L374.414 107.309C374.719 107.501 374.779 108.16 374.991 108.482C375.087 109.117 375.512 109.76 375.435 110.126C375.858 111.164 376.236 112.069 376.555 113.183L376.345 113.046C376.519 113.208 376.301 113.202 376.385 113.388C376.433 113.127 376.627 113.606 376.763 113.714C376.805 114.242 377.135 114.831 377.381 115.232L377.283 115.282C377.618 115.659 377.619 116.239 377.765 116.796C377.743 116.873 377.678 117.003 377.742 117.162C378.004 117.406 378.043 117.565 378.287 117.967C378.39 118.285 378.516 118.815 378.556 119.159C379.176 120.281 379.423 121.551 379.965 122.75L379.874 122.879C380.522 124.002 380.767 125.561 381.232 126.548L380.994 126.515C381.035 126.858 381.286 127.233 381.406 127.104C381.447 127.448 381.767 127.879 381.664 128.139C381.733 128.483 381.89 128.514 382.007 128.779C382.143 129.467 382.24 129.707 382.481 130.319L382.443 130.16C382.376 130.106 382.286 130.128 382.323 130.288C382.456 130.502 382.545 131.163 382.716 130.851C382.789 131.564 383.335 132.368 383.352 133.079C383.402 133.002 383.468 133.161 383.535 133.216C383.727 133.799 383.789 134.459 384.054 134.889C384.051 134.993 383.892 134.777 383.962 135.018C384.033 135.151 384.051 134.993 384.144 135.154C384.576 136.061 384.635 137.114 384.947 137.966C385.572 139.455 386.023 141.074 386.519 142.535L386.464 142.534C386.812 142.964 386.644 143.749 387.055 144.049C387.045 144.181 387.176 144.5 387.053 144.445C387.313 144.793 387.282 145.581 387.634 146.092C387.622 146.039 387.602 146.012 387.561 145.959C387.637 146.565 387.95 147.022 388.046 147.657C388.005 147.602 387.953 147.496 387.898 147.494C387.879 147.757 388.286 147.979 388.088 148.184C388.134 148.317 388.239 148.24 388.205 148.16C388.54 149.511 389.147 150.871 389.646 152.227C389.822 153.258 389.264 152.417 389.693 153.137C389.668 153.215 389.799 153.153 389.754 153.18C389.918 153.459 389.639 153.734 389.831 153.902C389.95 153.769 389.958 154.015 390.049 153.992C390.149 154.625 390.056 154.789 390.32 155.228L390.232 155.217C390.63 155.704 390.722 156.387 391.125 156.776C392.164 159.833 393.255 162.731 394.253 165.717C395.162 168.693 396.212 171.554 397.051 174.604C397.076 175.373 397.099 175.425 397.431 176.171C397.388 176.151 397.365 176.105 397.352 176.166C397.53 176.152 397.543 176.706 397.726 176.729C398.054 177.851 398.43 178.86 398.801 180.003C398.725 179.827 398.56 179.781 398.641 179.992L398.819 180.183L398.785 180.234C398.857 180.373 398.991 180.507 398.995 180.338C400.067 183.164 400.648 186.098 401.599 188.898C401.745 189.589 402.117 190.519 402.385 191.234C402.86 193.458 403.308 195.455 404.17 197.59C404.169 197.59 403.648 197.443 403.257 196.573Z" fill="#FC6B7E" stroke="#FC6B7E" stroke-width="2.5572"/>
<path d="M372.44 100.938C372.382 101.042 372.417 101.307 372.242 101.143C372.311 101.093 372.357 100.936 372.44 100.938Z" fill="#FC6B7E" stroke="#FC6B7E" stroke-width="2.5572"/>
<path d="M373.747 107.895C373.774 107.896 373.744 108.001 373.737 108.027C373.704 107.946 373.609 107.892 373.631 107.812C373.665 107.894 373.7 107.868 373.747 107.895Z" fill="#FC6B7E" stroke="#FC6B7E" stroke-width="2.5572"/>
<path d="M374.248 109.62C374.165 109.618 373.989 109.271 373.91 109.059L374.248 109.62Z" fill="#FC6B7E" stroke="#FC6B7E" stroke-width="2.5572"/>
<path d="M374.459 111.31C374.441 111.467 374.394 111.44 374.337 111.255C374.371 111.229 374.411 111.283 374.459 111.31Z" fill="#FC6B7E" stroke="#FC6B7E" stroke-width="2.5572"/>
<path d="M374.664 111.368C374.708 111.5 374.686 111.58 374.664 111.658C374.726 111.632 374.525 111.365 374.664 111.368Z" fill="#FC6B7E" stroke="#FC6B7E" stroke-width="2.5572"/>
<path d="M375.567 114.893C375.599 114.975 375.719 115.134 375.662 115.239C375.691 115.133 375.437 114.864 375.567 114.893Z" fill="#FC6B7E" stroke="#FC6B7E" stroke-width="2.5572"/>
<path d="M376.198 116.463C376.21 116.517 376.203 116.542 376.243 116.596C376.24 116.701 376.154 116.619 376.121 116.541L376.198 116.463Z" fill="#FC6B7E" stroke="#FC6B7E" stroke-width="2.5572"/>
<path d="M385.947 145.599L385.855 145.438L385.936 145.44L385.947 145.599Z" fill="#FC6B7E" stroke="#FC6B7E" stroke-width="2.5572"/>
<path d="M390.092 158.408C390.195 158.566 390.062 158.551 390.06 158.583C390.002 158.429 390.17 158.611 390.092 158.408Z" fill="#FC6B7E" stroke="#FC6B7E" stroke-width="2.5572"/>
<path d="M392.698 165.195L392.68 165.144L392.836 165.113L392.698 165.195Z" fill="#FC6B7E" stroke="#FC6B7E" stroke-width="2.5572"/>
<path d="M397.593 92.3295C397.443 91.9828 397.526 92.5641 397.46 92.1146C397.535 92.1437 397.603 92.1979 397.593 92.3295Z" fill="#FC6B7E" stroke="#FC6B7E" stroke-width="2.5572"/>
<path d="M428.566 188.389C427.807 187.363 427.707 185.72 427.053 184.538C426.989 184.396 427.277 184.508 427.118 184.191C426.423 183.065 425.979 181.081 425.728 179.517L425.817 179.588C425.768 179.29 425.459 179.008 425.389 178.698C425.428 178.683 425.477 178.776 425.508 178.689C425.364 178.652 425.277 178.164 425.147 178.065C425.155 177.931 425.254 177.912 425.257 177.742L425.065 177.613C424.587 177.24 424.712 176.444 424.334 175.846C424.375 175.867 424.421 175.923 424.435 175.862C423.899 174.878 423.512 173.555 423.061 172.407C423.124 172.438 423.226 172.453 423.257 172.367C423.096 172.355 422.942 172.005 422.812 171.7C422.914 171.511 422.504 171.205 422.466 170.811L422.509 170.831C422.267 170.609 422.467 170.399 422.211 170.238L422.271 170.028C422.025 169.976 422.251 169.599 422.073 169.408L422.033 169.429C421.914 169.234 421.982 169.09 421.884 168.904L421.902 168.878C421.698 168.435 421.727 168.13 421.569 168.193C421.646 167.99 421.772 168.62 421.879 168.306C421.222 166.844 420.749 165.272 420.253 163.747C420.262 163.553 420.246 163.436 420.295 163.377C420.213 163.236 420.08 162.813 419.952 162.701C419.972 162.751 420.003 162.576 419.985 162.493C419.957 162.195 419.709 162.247 419.683 161.919C419.766 162.026 419.831 162.051 419.878 161.991C419.668 161.771 419.576 161.417 419.435 161.123C419.478 161.162 419.518 161.232 419.565 161.203C419.314 160.914 419.398 160.581 419.212 160.315L419.341 160.395C419.301 159.884 419.1 160.319 419.035 159.887C419.096 159.976 419.121 159.929 419.165 159.935C418.871 159.608 418.727 158.971 418.546 158.607C418.567 158.626 418.59 158.612 418.59 158.612C418.434 158.203 418.347 157.752 418.125 157.318C418.113 157.138 418.371 157.299 418.194 156.87C418.011 156.947 417.875 156.148 417.747 156.476C417.656 156.09 417.534 155.473 417.389 155.243C417.516 155.389 417.56 154.986 417.677 155.293L417.714 155.02C417.802 155.03 417.767 155.271 417.839 155.165C417.781 155.011 417.559 154.579 417.545 154.429C417.335 154.177 417.035 153.98 416.859 153.518C417.004 153.715 417.025 153.325 417.106 153.465L416.535 152.926C416.475 152.773 416.672 152.844 416.55 152.634C416.504 152.662 416.442 152.574 416.379 152.518C416.382 152.452 416.122 151.883 416.285 151.756C416.336 151.664 416.407 151.998 416.416 151.803C416.321 151.515 416.254 151.523 416.158 151.236L416.181 151.222C416.146 151.022 415.92 150.686 415.885 150.926C415.922 151.061 415.98 150.84 415.99 151.053C415.839 150.954 415.701 150.628 415.605 150.341C415.667 150.429 415.712 150.401 415.778 150.424C415.507 150.083 415.328 149.687 415.127 149.274C415.037 149.295 415.339 149.383 415.313 149.462C415.256 148.868 414.77 148.372 414.799 147.853C414.839 147.923 414.687 147.934 414.71 147.921C414.635 147.65 414.766 147.621 414.662 147.462C414.732 147.42 414.568 147.25 414.487 147.079C414.402 147.004 414.508 147.02 414.567 147.174C414.422 146.944 413.984 145.982 413.907 145.369C413.861 145.396 413.61 145.073 413.573 144.939L413.706 144.953C413.736 144.81 413.552 144.512 413.644 144.458C413.412 144.22 414.117 145.511 413.884 145.162C413.948 145.032 413.527 144.688 413.711 144.72C413.621 144.454 413.407 144.238 413.433 143.948C413.438 144.028 413.663 144.113 413.586 143.9C413.442 143.528 413.495 143.81 413.357 143.515L413.248 143.338C413.131 143.361 413.153 142.994 413.073 143.176C413.151 143.099 412.838 142.643 413.037 142.622L413.201 142.627C413.137 142.467 412.959 142.409 412.852 142.301C412.859 142.275 412.875 142.223 412.902 142.223C412.668 142.27 412.794 141.826 412.557 141.688C412.524 141.319 412.281 140.812 412.369 140.605C412.216 140.363 412.057 140.148 412.008 139.831C412.048 139.884 412.081 139.964 412.135 139.965C412.141 139.755 412.066 139.727 411.974 139.566C412.02 139.594 411.983 139.145 411.995 138.909C411.843 138.669 411.75 138.798 411.667 138.796C411.812 138.484 411.284 138.101 411.389 137.735C411.449 137.816 411.622 138.083 411.607 137.846C411.751 137.535 411.286 137.415 411.268 136.994L411.114 137.149C411.173 136.94 410.823 136.614 411.024 136.592C410.915 136.484 410.937 136.117 410.771 136.218C410.718 135.533 410.18 134.702 410.376 134.207C410.316 134.126 410.273 133.888 410.196 133.965C410.145 134.148 410.336 134.153 410.286 134.231C410.254 134.151 410.199 134.149 410.171 134.149C410.149 133.938 410.111 133.778 410.321 133.917C410.29 133.441 409.869 133.562 409.758 132.98C409.841 132.981 409.855 132.93 409.79 132.77L409.563 132.501C409.475 132.129 409.665 132.241 409.789 132.191C409.704 132.004 409.634 131.765 409.511 131.708L409.594 131.422C409.535 131.63 409.467 131.287 409.406 131.207L409.467 131.287C409.508 131.235 409.403 131.022 409.351 130.914C409.281 130.966 409.324 131.204 409.341 131.336C409.254 131.255 409.217 131.098 409.11 130.988C409.247 130.991 409.096 130.644 409.059 130.486C409.029 130.301 408.884 130.324 408.872 130.271C408.934 130.245 408.789 129.98 408.923 130.088C408.963 130.141 408.905 130.245 408.994 130.327C409.004 130.195 409.12 130.172 408.961 129.958C408.841 129.796 408.732 130.083 408.699 129.713C408.759 129.794 408.814 129.795 408.881 129.851L408.84 129.507L408.723 129.53C408.738 129.477 408.757 129.504 408.766 129.479C408.616 129.421 408.57 128.998 408.413 128.968C408.349 128.809 408.38 128.6 408.343 128.441L408.362 128.467C408.367 128.256 408.242 128.018 408.114 127.882L408.142 127.883C408.117 127.776 408.02 127.537 407.912 127.428C407.912 127.138 408.308 127.202 408.073 126.958C407.983 126.694 407.732 126.608 407.694 126.739C407.616 126.236 407.256 125.753 407.288 125.253C407.22 125.199 407.205 125.252 407.133 125.118C406.95 124.402 406.52 123.679 406.561 123.049C406.674 123.237 406.678 123.026 406.741 123.001C406.586 122.866 406.78 122.766 406.588 122.761C406.491 122.811 406.436 122.81 406.459 123.021C406.269 122.62 406.063 121.984 406.083 121.72C406.073 121.852 406.013 121.772 405.953 121.69C406.125 121.668 406.05 121.351 405.917 121.136L405.807 121.135L405.86 120.951C405.799 120.871 405.62 120.919 405.641 120.656C405.675 120.631 405.71 120.606 405.724 120.554C405.565 120.338 405.318 120.042 405.316 119.752L405.391 119.491C405.339 119.384 405.191 119.224 405.213 119.434C405.156 118.959 405.073 118.667 405.152 118.484C404.598 117.812 404.224 116.697 403.956 115.794L404.039 115.796C404.031 115.533 403.869 115.713 403.866 115.528C403.962 115.583 403.96 115.295 404.108 115.456C404.075 115.087 403.836 115.054 403.73 114.841C403.622 114.838 403.851 115.001 403.713 114.997C403.666 114.97 403.635 114.496 403.47 114.49C403.5 114.385 403.63 114.417 403.705 114.445L403.565 114.257C403.654 113.944 404.062 114.744 404.187 114.406L404.101 114.219C404.195 113.984 404.441 114.676 404.336 114.172C404.195 113.984 403.923 113.872 403.919 114.082C403.736 113.655 403.502 113.992 403.362 113.515C403.406 113.357 403.505 113.886 403.597 113.756C403.643 113.495 403.386 113.33 403.363 113.119C403.379 113.357 403.17 113.219 403.097 113.086C403.089 112.823 403.287 113.196 403.192 112.851C403.089 112.823 402.924 112.53 402.952 112.82C402.72 112.759 402.891 112.448 402.682 112.311C402.781 112.156 403.109 112.56 403.055 112.164C402.943 112.266 402.728 111.76 402.598 112.02C402.589 111.861 402.686 111.813 402.801 111.894C402.813 111.658 402.398 111.462 402.635 111.309L402.478 111.281C402.501 111.201 402.503 111.097 402.54 110.966C402.483 110.781 402.167 110.429 402.374 110.381C402.334 110.328 402.207 109.904 402.12 110.112C402.12 110.402 402.319 110.38 402.178 110.587C402.272 110.353 402.036 110.216 401.935 110.081L402.005 110.031C401.946 109.951 401.896 109.737 401.793 109.709C401.86 109.763 401.902 109.71 401.897 109.632L401.748 109.576C401.57 109.228 401.929 109.422 401.779 109.076L401.958 109.317C401.92 109.264 401.991 109.107 401.899 108.948C401.769 108.917 401.599 108.834 401.496 108.805C401.384 108.619 401.589 108.675 401.414 108.514L401.628 108.731C401.677 108.758 401.751 108.498 401.661 108.23C401.568 108.071 401.326 107.855 401.354 108.145C401.309 108.011 401.314 107.801 401.427 107.882C401.291 107.589 401.324 107.96 401.171 107.718C401.208 107.587 401.203 107.218 401.242 106.982L401.512 107.198L401.455 107.015C401.676 107.205 401.527 106.859 401.723 106.943C401.707 106.811 401.606 106.677 401.527 106.569C401.4 107.013 401.06 106.268 400.87 106.446C400.648 105.966 401.313 105.958 400.794 105.55C400.764 105.654 400.514 105.463 400.68 105.757C400.604 105.438 400.388 105.618 400.362 105.221C400.541 105.463 400.494 104.857 400.754 105.206C400.671 105.204 400.768 105.443 400.809 105.497C400.853 105.341 401.042 105.45 400.94 105.132C400.855 104.945 400.765 104.68 400.661 104.756C400.536 104.806 400.771 105.048 400.601 104.966C400.431 104.593 400.605 104.466 400.326 104.379C400.423 104.618 400.311 104.721 400.222 104.745L400.077 104.478L400.179 104.506C400.093 104.03 399.982 104.421 399.861 103.972L399.962 103.711C400.141 103.769 400.106 104.374 400.316 104.219C400.233 103.929 400.082 103.872 400.056 103.582C400.096 103.636 400.128 103.716 400.168 103.769C400.143 103.663 400.422 103.46 400.106 103.109C399.967 102.921 400.004 103.081 399.915 103.104C399.739 102.652 399.604 102.543 399.495 102.25C399.687 102.256 399.342 101.72 399.624 101.991C399.572 102.175 399.797 102.838 400.014 102.949C400.164 102.715 400.103 103.32 400.341 103.352C400.226 102.981 400.433 102.934 400.545 102.832C400.521 102.726 400.434 102.645 400.393 102.59C400.255 102.587 400.301 102.72 400.175 102.769C400.076 102.346 399.878 101.971 399.684 101.783C399.701 101.625 399.838 101.629 399.903 101.788C399.708 101.309 399.555 100.779 399.442 100.301C399.337 100.667 399.226 99.7961 399.125 100.056C399.16 100.32 399.086 100.582 398.95 100.473C398.913 100.313 399.041 100.45 399.063 100.371C398.888 100.208 399.14 100.004 398.902 99.8656C399.113 100.293 399.177 99.8733 399.362 99.9043C399.168 99.61 399.479 99.8815 399.376 99.5622C399.183 99.2681 398.986 98.8949 398.836 98.5476C398.841 98.0495 398.47 97.4075 398.334 97.0076C398.346 96.7716 398.571 96.8559 398.529 96.6179C398.439 96.3517 398.4 96.8792 398.353 96.456L398.401 96.4825C398.321 96.3764 398.288 95.7168 397.993 95.6824L398.227 95.7421C398.22 95.6627 398.154 95.6081 398.113 95.5537C398.175 95.5304 398.205 95.4257 398.285 95.5326C398.34 95.2448 398.098 95.026 398.006 94.762L397.947 94.9702C397.71 94.5438 397.725 94.2025 397.543 93.7756L397.659 93.7522L397.507 93.5121C397.637 93.5407 397.629 93.2778 397.493 93.1689L397.988 93.7609C397.983 93.9714 397.786 93.5982 397.714 93.7525C397.65 93.8844 397.812 94.2823 397.941 94.3133C397.903 94.1534 397.876 94.1535 397.797 94.0458C397.936 93.9436 398.006 94.1824 398.149 94.266C398.116 94.1865 398.126 94.0548 398.071 94.0532C398.199 94.1887 398.263 94.3469 398.353 94.6131C398.234 94.4515 398.289 94.7428 398.222 94.6887C398.366 94.6657 398.491 94.9074 398.559 95.2498C398.477 95.5374 398.862 95.8373 398.942 96.2343C398.753 96.1241 398.577 95.962 398.445 95.7474C398.453 96.0101 398.536 96.0135 398.543 96.2773C398.685 96.3599 398.871 96.3916 399.036 96.6846L398.938 96.7347C399.083 97.0024 399.235 96.9532 399.323 97.324C399.473 97.9601 399.679 98.5974 399.819 99.0746L399.723 99.1256C400.027 99.3177 400.087 99.9765 400.299 100.299C400.396 100.933 400.821 101.576 400.744 101.942C401.167 102.98 401.544 103.885 401.863 104.999L401.654 104.862C401.828 105.024 401.61 105.018 401.694 105.204C401.742 104.944 401.936 105.423 402.071 105.53C402.114 106.058 402.444 106.647 402.689 107.048L402.592 107.098C402.927 107.475 402.928 108.055 403.073 108.612C403.051 108.689 402.987 108.82 403.051 108.979C403.313 109.222 403.351 109.382 403.596 109.784C403.699 110.102 403.825 110.631 403.865 110.976C404.485 112.097 404.731 113.368 405.274 114.566L405.182 114.695C405.83 115.818 406.076 117.377 406.541 118.364L406.303 118.332C406.343 118.675 406.595 119.05 406.714 118.92C406.756 119.264 407.076 119.696 406.973 119.956C407.042 120.299 407.199 120.33 407.315 120.596C407.451 121.283 407.549 121.524 407.789 122.135L407.752 121.976C407.685 121.922 407.595 121.945 407.632 122.105C407.764 122.319 407.854 122.979 408.025 122.668C408.098 123.38 408.643 124.185 408.661 124.895C408.711 124.818 408.776 124.978 408.844 125.032C409.036 125.616 409.098 126.275 409.363 126.705C409.359 126.809 409.201 126.594 409.27 126.834C409.341 126.967 409.359 126.809 409.453 126.97C409.885 127.877 409.944 128.931 410.255 129.782C410.88 131.272 411.331 132.891 411.828 134.351L411.773 134.35C412.121 134.781 411.952 135.566 412.363 135.866C412.354 135.997 412.485 136.317 412.362 136.261C412.622 136.609 412.59 137.398 412.942 137.909C412.93 137.855 412.911 137.829 412.87 137.776C412.946 138.382 413.258 138.838 413.354 139.473C413.313 139.419 413.262 139.312 413.207 139.311C413.187 139.574 413.594 139.795 413.397 140C413.442 140.133 413.547 140.057 413.514 139.977C413.848 141.328 414.456 142.688 414.955 144.044C415.131 145.075 414.573 144.234 415.002 144.953C414.976 145.031 415.108 144.97 415.062 144.996C415.226 145.275 414.947 145.55 415.14 145.719C415.258 145.585 415.267 145.831 415.358 145.809C415.457 146.441 415.364 146.605 415.629 147.044L415.541 147.033C415.938 147.52 416.03 148.203 416.433 148.592C417.472 151.649 418.564 154.548 419.561 157.533C420.471 160.509 421.521 163.371 422.36 166.42C422.385 167.19 422.408 167.241 422.74 167.988C422.697 167.967 422.674 167.921 422.66 167.983C422.838 167.968 422.852 168.523 423.034 168.545C423.363 169.667 423.739 170.676 424.11 171.819C424.034 171.644 423.869 171.597 423.949 171.808L424.128 171.999L424.094 172.05C424.166 172.189 424.299 172.323 424.303 172.154C425.376 174.981 425.957 177.915 426.907 180.715C427.054 181.405 427.425 182.336 427.694 183.051C428.168 185.274 428.617 187.271 429.479 189.407C429.478 189.406 428.957 189.26 428.566 188.389Z" fill="#FC6B7E" stroke="#FC6B7E" stroke-width="2.5572"/>
<path d="M397.748 92.7542C397.69 92.8577 397.726 93.1225 397.55 92.959C397.62 92.9091 397.666 92.7519 397.748 92.7542Z" fill="#FC6B7E" stroke="#FC6B7E" stroke-width="2.5572"/>
<path d="M399.055 99.7121C399.083 99.7126 399.052 99.8182 399.045 99.8438C399.013 99.7632 398.918 99.7089 398.94 99.6292C398.973 99.7106 399.008 99.6854 399.055 99.7121Z" fill="#FC6B7E" stroke="#FC6B7E" stroke-width="2.5572"/>
<path d="M399.556 101.436C399.474 101.434 399.298 101.087 399.219 100.875L399.556 101.436Z" fill="#FC6B7E" stroke="#FC6B7E" stroke-width="2.5572"/>
<path d="M399.767 103.126C399.749 103.283 399.703 103.256 399.645 103.071C399.68 103.045 399.719 103.099 399.767 103.126Z" fill="#FC6B7E" stroke="#FC6B7E" stroke-width="2.5572"/>
<path d="M399.972 103.185C400.017 103.317 399.994 103.396 399.973 103.474C400.035 103.449 399.834 103.181 399.972 103.185Z" fill="#FC6B7E" stroke="#FC6B7E" stroke-width="2.5572"/>
<path d="M400.875 106.71C400.908 106.791 401.027 106.951 400.97 107.055C401 106.95 400.746 106.681 400.875 106.71Z" fill="#FC6B7E" stroke="#FC6B7E" stroke-width="2.5572"/>
<path d="M401.506 108.28C401.518 108.333 401.512 108.359 401.552 108.412C401.549 108.518 401.463 108.435 401.429 108.357L401.506 108.28Z" fill="#FC6B7E" stroke="#FC6B7E" stroke-width="2.5572"/>
<path d="M411.256 137.415L411.164 137.254L411.245 137.256L411.256 137.415Z" fill="#FC6B7E" stroke="#FC6B7E" stroke-width="2.5572"/>
<path d="M358.142 140.98C358.878 140.194 360.222 140.313 361.102 139.679C361.21 139.621 361.16 139.96 361.399 139.81C362.227 139.118 363.802 138.862 365.058 138.784L365.012 138.883C365.251 138.867 365.439 138.526 365.685 138.486C365.703 138.536 365.633 138.582 365.71 138.634C365.719 138.462 366.11 138.426 366.173 138.28C366.285 138.31 366.315 138.435 366.456 138.463L366.534 138.245C366.772 137.709 367.448 137.982 367.887 137.602C367.876 137.651 367.836 137.699 367.889 137.725C368.623 137.209 369.659 136.926 370.542 136.538C370.526 136.611 370.528 136.735 370.604 136.787C370.59 136.588 370.857 136.45 371.089 136.335C371.261 136.489 371.453 136.027 371.774 136.038L371.763 136.088C371.911 135.822 372.114 136.101 372.21 135.808L372.392 135.913C372.399 135.616 372.744 135.952 372.875 135.76L372.852 135.707C372.996 135.589 373.125 135.694 373.264 135.6L373.288 135.627C373.624 135.44 373.881 135.521 373.805 135.316C373.985 135.442 373.482 135.505 373.758 135.683C374.869 135.087 376.1 134.735 377.287 134.347C377.449 134.387 377.543 134.385 377.599 134.454C377.704 134.373 378.034 134.271 378.107 134.13C378.069 134.147 378.218 134.211 378.284 134.201C378.526 134.21 378.446 133.896 378.714 133.913C378.637 133.999 378.627 134.076 378.684 134.144C378.834 133.916 379.113 133.854 379.335 133.724C379.309 133.771 379.258 133.811 379.288 133.873C379.49 133.605 379.778 133.758 379.97 133.567L379.923 133.715C380.34 133.741 379.951 133.429 380.298 133.412C380.234 133.474 380.276 133.513 380.278 133.566C380.505 133.251 381.01 133.167 381.284 132.997C381.272 133.02 381.287 133.051 381.287 133.051C381.602 132.919 381.962 132.877 382.288 132.667C382.434 132.678 382.34 132.974 382.669 132.819C382.578 132.581 383.218 132.531 382.928 132.324C383.233 132.269 383.726 132.209 383.894 132.064C383.793 132.199 384.132 132.313 383.896 132.412L384.127 132.499C384.131 132.606 383.927 132.527 384.025 132.632C384.145 132.583 384.469 132.372 384.59 132.377C384.768 132.155 384.887 131.813 385.243 131.664C385.101 131.814 385.427 131.898 385.323 131.977L385.684 131.35C385.802 131.3 385.772 131.532 385.928 131.412C385.897 131.351 385.962 131.288 385.999 131.219C386.053 131.231 386.485 130.995 386.615 131.215C386.698 131.291 386.433 131.329 386.595 131.37C386.819 131.295 386.802 131.211 387.026 131.134L387.041 131.165C387.201 131.152 387.445 130.922 387.242 130.843C387.136 130.869 387.327 130.973 387.152 130.954C387.212 130.782 387.461 130.659 387.684 130.584C387.62 130.647 387.65 130.707 387.641 130.784C387.883 130.5 388.184 130.338 388.496 130.15C388.465 130.036 388.436 130.396 388.367 130.353C388.85 130.369 389.189 129.842 389.622 129.954C389.57 129.994 389.539 129.805 389.553 129.835C389.766 129.782 389.809 129.948 389.925 129.844C389.97 129.935 390.086 129.758 390.216 129.683C390.266 129.59 390.268 129.718 390.149 129.769C390.318 129.624 391.049 129.224 391.544 129.219C391.515 129.158 391.745 128.896 391.85 128.87L391.858 129.032C391.981 129.09 392.2 128.907 392.259 129.029C392.421 128.777 391.458 129.458 391.711 129.221C391.829 129.32 392.051 128.85 392.052 129.073C392.258 129.001 392.405 128.769 392.649 128.843C392.583 128.838 392.547 129.104 392.711 129.039C392.998 128.917 392.772 128.941 392.996 128.814L393.126 128.705C393.089 128.557 393.396 128.639 393.234 128.513C393.309 128.621 393.639 128.3 393.687 128.55L393.707 128.752C393.83 128.697 393.851 128.486 393.925 128.369C393.947 128.382 393.993 128.409 393.996 128.442C393.923 128.146 394.309 128.367 394.388 128.095C394.688 128.108 395.071 127.883 395.256 128.023C395.433 127.869 395.587 127.704 395.842 127.69C395.804 127.732 395.743 127.762 395.75 127.828C395.925 127.866 395.936 127.778 396.056 127.687C396.04 127.74 396.405 127.761 396.602 127.811C396.779 127.658 396.658 127.525 396.648 127.423C396.927 127.647 397.166 127.052 397.484 127.235C397.426 127.297 397.23 127.471 397.424 127.488C397.703 127.712 397.733 127.155 398.078 127.195L397.928 126.982C398.109 127.086 398.327 126.702 398.374 126.953C398.448 126.835 398.755 126.916 398.647 126.696C399.205 126.731 399.813 126.189 400.251 126.504C400.309 126.443 400.499 126.425 400.425 126.318C400.265 126.227 400.29 126.463 400.218 126.39C400.279 126.362 400.272 126.294 400.269 126.26C400.44 126.263 400.566 126.241 400.483 126.48C400.871 126.512 400.709 125.973 401.174 125.922C401.185 126.024 401.23 126.05 401.352 125.993L401.541 125.752C401.836 125.698 401.772 125.917 401.831 126.077C401.973 126 402.16 125.949 402.189 125.806L402.438 125.95C402.257 125.846 402.53 125.812 402.588 125.75L402.53 125.812C402.58 125.872 402.74 125.773 402.822 125.725C402.769 125.631 402.578 125.648 402.471 125.65C402.525 125.554 402.65 125.532 402.725 125.415C402.743 125.585 403.007 125.449 403.132 125.427C403.281 125.417 403.241 125.234 403.283 125.227C403.313 125.308 403.511 125.168 403.442 125.318C403.403 125.36 403.309 125.273 403.255 125.37C403.365 125.402 403.401 125.549 403.555 125.384C403.671 125.259 403.417 125.082 403.718 125.096C403.66 125.158 403.668 125.226 403.632 125.3L403.91 125.301L403.873 125.153C403.919 125.179 403.9 125.199 403.922 125.213C403.947 125.037 404.29 125.043 404.292 124.853C404.414 124.797 404.591 124.867 404.718 124.844L404.699 124.864C404.874 124.902 405.053 124.782 405.146 124.644L405.149 124.678C405.234 124.663 405.417 124.578 405.491 124.461C405.731 124.504 405.737 124.984 405.903 124.729C406.109 124.658 406.143 124.359 406.029 124.294C406.433 124.271 406.78 123.898 407.198 124.011C407.232 123.935 407.187 123.909 407.286 123.84C407.851 123.72 408.385 123.295 408.912 123.438C408.773 123.55 408.948 123.586 408.978 123.668C409.067 123.496 409.179 123.751 409.154 123.514C409.099 123.388 409.091 123.32 408.92 123.316C409.224 123.141 409.719 122.981 409.94 123.044C409.83 123.013 409.887 122.95 409.946 122.888C409.99 123.104 410.241 123.058 410.399 122.926L410.383 122.79L410.544 122.882C410.601 122.819 410.535 122.591 410.755 122.655C410.78 122.701 410.807 122.747 410.852 122.773C411.007 122.608 411.215 122.346 411.454 122.387L411.681 122.519C411.762 122.47 411.873 122.311 411.702 122.307C412.086 122.306 412.316 122.247 412.478 122.372C412.952 121.786 413.819 121.489 414.526 121.291L414.537 121.393C414.753 121.422 414.58 121.196 414.732 121.219C414.701 121.329 414.939 121.37 414.827 121.529C415.128 121.542 415.12 121.252 415.281 121.153C415.267 121.019 415.166 121.278 415.149 121.108C415.164 121.054 415.551 121.086 415.532 120.883C415.623 120.936 415.616 121.092 415.604 121.18L415.739 121.035C416.011 121.191 415.41 121.577 415.708 121.781L415.85 121.703C416.057 121.854 415.522 122.056 415.923 122C416.058 121.854 416.11 121.535 415.936 121.499C416.262 121.336 415.949 120.997 416.323 120.893C416.459 120.972 416.037 121.015 416.158 121.148C416.381 121.244 416.479 120.95 416.65 120.954C416.456 120.938 416.539 120.7 416.638 120.63C416.855 120.658 416.575 120.848 416.846 120.781C416.855 120.658 417.072 120.498 416.837 120.49C416.853 120.211 417.135 120.469 417.218 120.231C417.36 120.376 417.075 120.721 417.394 120.714C417.293 120.561 417.68 120.369 417.446 120.17C417.576 120.182 417.63 120.31 417.58 120.44C417.777 120.49 417.877 120.006 418.039 120.321L418.039 120.131C418.108 120.171 418.195 120.189 418.309 120.255C418.454 120.211 418.697 119.873 418.768 120.135C418.805 120.094 419.137 119.999 418.953 119.861C418.713 119.818 418.76 120.068 418.568 119.863C418.776 120.014 418.854 119.742 418.951 119.638L419.003 119.732C419.06 119.67 419.229 119.639 419.238 119.517C419.203 119.592 419.253 119.651 419.317 119.657L419.341 119.481C419.602 119.312 419.495 119.727 419.759 119.593L419.586 119.779C419.624 119.739 419.764 119.85 419.882 119.76C419.889 119.604 419.932 119.406 419.941 119.284C420.078 119.172 420.062 119.418 420.17 119.225L420.022 119.458C420.007 119.513 420.233 119.643 420.441 119.572C420.559 119.481 420.702 119.213 420.466 119.205C420.57 119.169 420.744 119.206 420.694 119.335C420.916 119.21 420.614 119.195 420.792 119.042C420.906 119.108 421.21 119.155 421.411 119.239L421.272 119.541L421.415 119.496C421.291 119.743 421.554 119.609 421.514 119.839C421.621 119.838 421.717 119.733 421.795 119.652C421.409 119.429 421.974 119.119 421.799 118.858C422.163 118.654 422.268 119.477 422.529 118.897C422.438 118.844 422.56 118.563 422.341 118.725C422.593 118.679 422.413 118.384 422.737 118.411C422.563 118.597 423.058 118.628 422.807 118.898C422.797 118.796 422.613 118.881 422.575 118.923C422.711 119.001 422.648 119.218 422.896 119.138C423.038 119.062 423.244 118.989 423.166 118.849C423.106 118.687 422.94 118.942 422.983 118.744C423.266 118.589 423.397 118.823 423.428 118.492C423.245 118.576 423.143 118.422 423.109 118.308L423.309 118.168L423.301 118.291C423.682 118.255 423.342 118.059 423.696 117.977L423.927 118.141C423.905 118.353 423.4 118.22 423.559 118.503C423.786 118.443 423.811 118.265 424.047 118.275C424.008 118.316 423.947 118.344 423.909 118.386C423.993 118.37 424.202 118.745 424.445 118.407C424.58 118.263 424.454 118.285 424.421 118.171C424.769 118.021 424.839 117.871 425.065 117.778C425.089 118.015 425.48 117.667 425.298 117.976C425.139 117.885 424.623 118.065 424.564 118.317C424.78 118.536 424.271 118.372 424.279 118.662C424.569 118.574 424.639 118.837 424.74 118.991C424.823 118.977 424.878 118.88 424.917 118.838C424.899 118.668 424.795 118.705 424.736 118.543C425.072 118.482 425.352 118.293 425.48 118.081C425.612 118.125 425.63 118.295 425.508 118.351C425.875 118.18 426.291 118.07 426.669 118.001C426.351 117.817 427.054 117.809 426.825 117.645C426.611 117.65 426.384 117.519 426.454 117.368C426.581 117.346 426.487 117.483 426.555 117.522C426.664 117.33 426.87 117.671 426.949 117.399C426.627 117.595 426.983 117.737 426.985 117.961C427.2 117.765 427.021 118.109 427.27 118.028C427.485 117.834 427.764 117.645 428.029 117.511C428.442 117.59 428.918 117.228 429.228 117.119C429.425 117.168 429.389 117.434 429.579 117.416C429.786 117.344 429.344 117.218 429.687 117.224L429.672 117.279C429.748 117.196 430.289 117.252 430.273 116.893L430.259 117.173C430.323 117.176 430.359 117.102 430.398 117.06C430.426 117.141 430.517 117.193 430.44 117.276C430.686 117.386 430.832 117.119 431.036 117.045L430.855 116.941C431.173 116.711 431.457 116.78 431.783 116.618L431.82 116.765L431.996 116.613C431.991 116.769 432.208 116.798 432.278 116.647L431.861 117.171C431.687 117.134 431.966 116.945 431.828 116.833C431.709 116.735 431.404 116.876 431.398 117.031C431.524 117.008 431.52 116.974 431.598 116.892C431.703 117.08 431.516 117.131 431.468 117.295C431.528 117.266 431.639 117.298 431.632 117.23C431.539 117.368 431.418 117.425 431.211 117.496C431.327 117.373 431.094 117.397 431.129 117.322C431.169 117.505 430.988 117.623 430.715 117.657C430.465 117.512 430.274 117.944 429.957 117.985C430.021 117.767 430.129 117.574 430.287 117.443C430.071 117.413 430.08 117.515 429.863 117.485C429.816 117.648 429.817 117.873 429.599 118.033L429.543 117.906C429.343 118.044 429.407 118.24 429.113 118.294C428.609 118.386 428.113 118.547 427.739 118.649L427.683 118.522C427.569 118.87 427.033 118.847 426.798 119.061C426.287 119.087 425.819 119.517 425.505 119.368C424.709 119.737 424.017 120.07 423.143 120.299L423.225 120.061C423.117 120.252 423.089 119.983 422.948 120.06C423.17 120.157 422.803 120.326 422.734 120.478C422.304 120.453 421.866 120.774 421.57 121.018L421.515 120.89C421.252 121.248 420.773 121.164 420.334 121.261C420.267 121.223 420.15 121.123 420.027 121.179C419.865 121.467 419.739 121.491 419.443 121.734C419.195 121.814 418.775 121.892 418.497 121.89C417.661 122.491 416.647 122.608 415.736 123.101L415.616 122.969C414.783 123.604 413.531 123.677 412.783 124.106L412.775 123.816C412.498 123.816 412.225 124.071 412.349 124.238C412.071 124.239 411.762 124.57 411.532 124.404C411.258 124.439 411.255 124.628 411.053 124.733C410.504 124.8 410.32 124.885 409.85 125.091L409.976 125.069C410.011 124.994 409.979 124.879 409.852 124.902C409.695 125.034 409.162 125.046 409.445 125.304C408.866 125.289 408.282 125.844 407.697 125.761C407.768 125.834 407.646 125.891 407.611 125.967C407.157 126.118 406.621 126.097 406.304 126.361C406.218 126.341 406.372 126.177 406.184 126.228C406.085 126.296 406.218 126.341 406.098 126.433C405.412 126.833 404.55 126.75 403.892 127.009C402.753 127.562 401.481 127.88 400.347 128.278L400.34 128.21C400.035 128.576 399.361 128.252 399.174 128.716C399.064 128.684 398.819 128.799 398.847 128.655C398.597 128.925 397.941 128.77 397.571 129.13C397.613 129.123 397.632 129.102 397.67 129.06C397.179 129.064 396.849 129.383 396.338 129.408C396.377 129.365 396.457 129.317 396.45 129.249C396.23 129.187 396.107 129.656 395.908 129.382C395.805 129.419 395.884 129.56 395.945 129.53C394.878 129.744 393.843 130.294 392.795 130.71C391.969 130.775 392.582 130.21 392.05 130.634C391.982 130.591 392.053 130.763 392.024 130.703C391.817 130.864 391.549 130.479 391.438 130.692C391.566 130.858 391.364 130.832 391.396 130.947C390.887 130.977 390.738 130.838 390.414 131.1L390.41 130.993C390.066 131.412 389.515 131.425 389.253 131.866C386.88 132.698 384.644 133.619 382.323 134.41C379.997 135.095 377.786 135.97 375.389 136.556C374.756 136.473 374.717 136.494 374.149 136.794C374.159 136.744 374.194 136.722 374.141 136.696C374.18 136.918 373.723 136.853 373.732 137.076C372.853 137.316 372.074 137.632 371.184 137.921C371.318 137.853 371.332 137.656 371.169 137.724L371.038 137.917L370.99 137.867C370.886 137.935 370.795 138.08 370.935 138.11C368.757 139.018 366.417 139.303 364.242 140.064C363.693 140.143 362.979 140.465 362.427 140.691C360.659 140.949 359.074 141.208 357.436 141.958C357.435 141.957 357.48 141.334 358.142 140.98Z" fill="#FC6B7E" stroke="#FC6B7E" stroke-width="2.5572"/>
<path d="M397.726 127.121L397.846 127.031L397.856 127.13L397.726 127.121Z" fill="#FC6B7E" stroke="#FC6B7E" stroke-width="2.5572"/>
<path d="M387.751 130.352C387.636 130.455 387.628 130.294 387.602 130.287C387.72 130.238 387.595 130.418 387.751 130.352Z" fill="#FC6B7E" stroke="#FC6B7E" stroke-width="2.5572"/>
<path d="M382.524 132.566L382.564 132.55L382.613 132.748L382.524 132.566Z" fill="#FC6B7E" stroke="#FC6B7E" stroke-width="2.5572"/>
<path d="M368.645 173.465C369.382 172.679 370.726 172.798 371.606 172.164C371.714 172.106 371.664 172.445 371.903 172.295C372.731 171.603 374.306 171.347 375.562 171.269L375.516 171.368C375.755 171.352 375.943 171.011 376.188 170.97C376.207 171.021 376.137 171.067 376.214 171.119C376.223 170.947 376.614 170.911 376.677 170.765C376.789 170.795 376.819 170.919 376.96 170.948L377.038 170.73C377.276 170.194 377.952 170.467 378.391 170.087C378.379 170.136 378.339 170.184 378.392 170.21C379.127 169.694 380.163 169.411 381.046 169.022C381.03 169.096 381.032 169.22 381.108 169.271C381.094 169.073 381.361 168.935 381.593 168.82C381.765 168.974 381.957 168.511 382.278 168.523L382.267 168.573C382.415 168.307 382.618 168.586 382.714 168.293L382.896 168.398C382.903 168.101 383.247 168.437 383.379 168.245L383.356 168.192C383.5 168.073 383.629 168.179 383.768 168.085L383.792 168.112C384.128 167.925 384.385 168.006 384.309 167.801C384.488 167.927 383.986 167.989 384.262 168.168C385.373 167.572 386.603 167.22 387.791 166.832C387.953 166.872 388.047 166.87 388.103 166.938C388.207 166.858 388.537 166.756 388.611 166.615C388.572 166.631 388.722 166.696 388.788 166.686C389.03 166.695 388.95 166.381 389.218 166.398C389.141 166.484 389.131 166.561 389.188 166.628C389.338 166.401 389.617 166.339 389.839 166.209C389.813 166.256 389.762 166.296 389.792 166.358C389.994 166.089 390.282 166.242 390.474 166.052L390.427 166.2C390.844 166.226 390.455 165.914 390.802 165.896C390.738 165.959 390.78 165.998 390.782 166.051C391.009 165.736 391.514 165.652 391.788 165.482C391.776 165.504 391.791 165.535 391.791 165.535C392.106 165.403 392.466 165.362 392.792 165.151C392.938 165.163 392.844 165.459 393.172 165.303C393.082 165.066 393.722 165.016 393.432 164.809C393.737 164.754 394.23 164.694 394.398 164.549C394.296 164.684 394.636 164.798 394.4 164.897L394.631 164.984C394.635 165.091 394.431 165.011 394.529 165.117C394.648 165.068 394.973 164.857 395.094 164.861C395.272 164.64 395.391 164.298 395.747 164.149C395.605 164.299 395.93 164.383 395.827 164.462L396.188 163.835C396.306 163.785 396.276 164.017 396.431 163.897C396.401 163.836 396.465 163.772 396.503 163.703C396.557 163.716 396.989 163.48 397.119 163.7C397.202 163.776 396.937 163.814 397.099 163.855C397.323 163.779 397.306 163.695 397.53 163.619L397.545 163.65C397.704 163.637 397.949 163.407 397.746 163.328C397.64 163.354 397.831 163.458 397.656 163.438C397.716 163.267 397.964 163.144 398.188 163.069C398.124 163.132 398.154 163.192 398.145 163.269C398.386 162.985 398.688 162.822 399 162.635C398.968 162.521 398.94 162.881 398.871 162.838C399.354 162.854 399.692 162.327 400.126 162.439C400.074 162.479 400.043 162.289 400.057 162.32C400.27 162.267 400.313 162.433 400.429 162.328C400.474 162.42 400.59 162.243 400.72 162.168C400.77 162.075 400.772 162.203 400.653 162.253C400.822 162.109 401.553 161.709 402.048 161.704C402.019 161.643 402.249 161.381 402.354 161.355L402.362 161.517C402.485 161.575 402.704 161.392 402.762 161.514C402.925 161.262 401.962 161.943 402.215 161.706C402.333 161.805 402.555 161.335 402.556 161.558C402.762 161.486 402.909 161.253 403.153 161.328C403.087 161.323 403.05 161.588 403.215 161.524C403.501 161.402 403.276 161.426 403.499 161.299L403.63 161.19C403.593 161.042 403.9 161.124 403.738 160.997C403.813 161.105 404.144 160.785 404.191 161.035L404.211 161.237C404.334 161.182 404.356 160.97 404.429 160.854C404.451 160.867 404.497 160.893 404.5 160.926C404.427 160.631 404.813 160.852 404.892 160.579C405.192 160.593 405.575 160.368 405.76 160.508C405.938 160.354 406.092 160.189 406.347 160.175C406.308 160.217 406.247 160.246 406.254 160.313C406.429 160.351 406.441 160.262 406.56 160.172C406.544 160.225 406.909 160.246 407.106 160.295C407.283 160.143 407.162 160.01 407.152 159.907C407.431 160.132 407.67 159.537 407.988 159.72C407.93 159.782 407.735 159.956 407.928 159.973C408.207 160.197 408.237 159.64 408.583 159.68L408.432 159.467C408.613 159.57 408.831 159.186 408.878 159.438C408.952 159.32 409.259 159.401 409.151 159.181C409.709 159.216 410.317 158.674 410.755 158.989C410.814 158.928 411.003 158.91 410.929 158.803C410.769 158.712 410.794 158.948 410.722 158.874C410.783 158.847 410.776 158.779 410.773 158.745C410.944 158.748 411.07 158.726 410.987 158.965C411.375 158.997 411.213 158.458 411.678 158.407C411.689 158.509 411.734 158.535 411.857 158.478L412.046 158.236C412.34 158.183 412.276 158.402 412.335 158.562C412.477 158.485 412.664 158.434 412.693 158.29L412.942 158.435C412.761 158.33 413.034 158.297 413.092 158.234L413.034 158.297C413.084 158.356 413.245 158.258 413.326 158.209C413.273 158.116 413.082 158.133 412.975 158.135C413.03 158.039 413.154 158.017 413.229 157.9C413.247 158.07 413.511 157.934 413.636 157.912C413.785 157.902 413.745 157.719 413.787 157.712C413.817 157.793 414.016 157.653 413.946 157.803C413.908 157.844 413.813 157.757 413.759 157.855C413.869 157.887 413.905 158.034 414.059 157.869C414.175 157.744 413.921 157.567 414.222 157.58C414.164 157.643 414.172 157.71 414.136 157.785L414.414 157.786L414.378 157.638C414.423 157.664 414.404 157.684 414.426 157.698C414.451 157.522 414.795 157.527 414.796 157.338C414.918 157.282 415.095 157.352 415.222 157.329L415.203 157.349C415.378 157.386 415.557 157.267 415.65 157.129L415.653 157.163C415.737 157.148 415.921 157.063 415.995 156.946C416.235 156.989 416.24 157.469 416.407 157.214C416.613 157.143 416.646 156.844 416.533 156.779C416.937 156.756 417.283 156.383 417.701 156.496C417.736 156.42 417.69 156.394 417.789 156.325C418.355 156.205 418.889 155.78 419.416 155.923C419.277 156.035 419.452 156.071 419.482 156.153C419.571 155.981 419.683 156.236 419.658 155.999C419.602 155.872 419.595 155.805 419.424 155.801C419.727 155.626 420.223 155.465 420.444 155.529C420.334 155.497 420.391 155.435 420.45 155.373C420.493 155.589 420.744 155.543 420.902 155.41L420.887 155.275L421.047 155.367C421.104 155.304 421.038 155.076 421.259 155.14C421.284 155.186 421.31 155.232 421.355 155.258C421.51 155.093 421.718 154.831 421.958 154.872L422.185 155.004C422.266 154.955 422.376 154.796 422.205 154.792C422.59 154.791 422.819 154.732 422.982 154.857C423.456 154.271 424.322 153.974 425.03 153.776L425.04 153.878C425.256 153.907 425.084 153.68 425.236 153.704C425.205 153.814 425.443 153.855 425.331 154.014C425.632 154.027 425.624 153.737 425.784 153.638C425.77 153.504 425.67 153.763 425.652 153.593C425.668 153.539 426.055 153.571 426.036 153.368C426.127 153.421 426.12 153.577 426.108 153.665L426.242 153.52C426.514 153.676 425.913 154.062 426.211 154.266L426.353 154.188C426.561 154.339 426.026 154.541 426.427 154.485C426.561 154.339 426.614 154.02 426.44 153.983C426.765 153.82 426.453 153.482 426.826 153.378C426.963 153.457 426.54 153.5 426.662 153.633C426.884 153.729 426.982 153.435 427.154 153.439C426.959 153.423 427.042 153.185 427.142 153.115C427.358 153.143 427.078 153.333 427.35 153.266C427.358 153.143 427.576 152.982 427.341 152.975C427.357 152.696 427.639 152.954 427.721 152.715C427.864 152.861 427.578 153.206 427.898 153.199C427.797 153.046 428.184 152.854 427.949 152.655C428.079 152.667 428.134 152.795 428.084 152.925C428.281 152.975 428.381 152.491 428.542 152.806L428.543 152.616C428.612 152.656 428.699 152.674 428.812 152.739C428.957 152.696 429.201 152.358 429.271 152.62C429.309 152.579 429.641 152.484 429.456 152.346C429.217 152.303 429.264 152.553 429.072 152.348C429.28 152.499 429.358 152.227 429.455 152.123L429.506 152.216C429.564 152.155 429.733 152.124 429.742 152.002C429.706 152.077 429.756 152.136 429.82 152.142L429.845 151.966C430.106 151.797 429.999 152.212 430.262 152.078L430.089 152.264C430.127 152.224 430.268 152.335 430.386 152.245C430.392 152.089 430.436 151.891 430.445 151.769C430.582 151.657 430.566 151.903 430.674 151.71L430.526 151.943C430.51 151.998 430.736 152.128 430.945 152.057C431.063 151.966 431.205 151.698 430.97 151.69C431.074 151.654 431.248 151.691 431.198 151.819C431.42 151.695 431.118 151.68 431.296 151.527C431.41 151.593 431.713 151.64 431.915 151.724L431.776 152.025L431.919 151.981C431.795 152.227 432.058 152.094 432.018 152.323C432.125 152.323 432.221 152.218 432.299 152.137C431.912 151.914 432.478 151.603 432.303 151.343C432.667 151.139 432.772 151.962 433.033 151.382C432.942 151.328 433.064 151.048 432.845 151.21C433.097 151.164 432.916 150.869 433.241 150.895C433.067 151.082 433.562 151.113 433.311 151.383C433.301 151.281 433.117 151.366 433.079 151.408C433.215 151.486 433.152 151.703 433.4 151.623C433.542 151.546 433.748 151.474 433.67 151.334C433.61 151.172 433.444 151.426 433.487 151.229C433.77 151.074 433.901 151.308 433.932 150.976C433.749 151.06 433.646 150.907 433.613 150.793L433.813 150.653L433.805 150.776C434.186 150.74 433.846 150.544 434.2 150.462L434.431 150.625C434.409 150.837 433.903 150.705 434.062 150.987C434.29 150.928 434.315 150.75 434.551 150.76C434.512 150.801 434.451 150.829 434.413 150.871C434.497 150.855 434.706 151.23 434.949 150.893C435.084 150.748 434.958 150.771 434.925 150.656C435.273 150.506 435.343 150.356 435.569 150.263C435.593 150.5 435.984 150.152 435.802 150.461C435.643 150.37 435.127 150.55 435.068 150.802C435.284 151.022 434.775 150.857 434.783 151.147C435.073 151.06 435.143 151.322 435.244 151.476C435.327 151.462 435.382 151.366 435.421 151.324C435.403 151.153 435.299 151.19 435.24 151.028C435.576 150.967 435.856 150.778 435.984 150.567C436.116 150.611 436.134 150.78 436.012 150.836C436.379 150.666 436.795 150.555 437.173 150.486C436.855 150.303 437.558 150.294 437.329 150.13C437.115 150.135 436.888 150.004 436.958 149.853C437.085 149.831 436.991 149.968 437.059 150.007C437.168 149.815 437.374 150.156 437.453 149.884C437.131 150.08 437.488 150.222 437.489 150.446C437.704 150.25 437.525 150.594 437.774 150.513C437.989 150.319 438.268 150.13 438.533 149.996C438.946 150.076 439.422 149.713 439.732 149.603C439.929 149.653 439.893 149.919 440.083 149.901C440.29 149.829 439.848 149.703 440.191 149.709L440.176 149.764C440.252 149.68 440.792 149.737 440.777 149.377L440.762 149.657C440.827 149.661 440.862 149.587 440.901 149.545C440.93 149.626 441.021 149.678 440.944 149.761C441.19 149.871 441.335 149.604 441.54 149.53L441.359 149.426C441.677 149.196 441.961 149.265 442.287 149.103L442.324 149.25L442.5 149.098C442.495 149.253 442.712 149.283 442.782 149.131L442.365 149.656C442.19 149.618 442.47 149.43 442.332 149.318C442.213 149.219 441.908 149.36 441.902 149.516C442.028 149.492 442.024 149.459 442.101 149.377C442.207 149.564 442.019 149.616 441.971 149.779C442.032 149.751 442.143 149.782 442.136 149.715C442.043 149.853 441.921 149.909 441.715 149.981C441.831 149.857 441.598 149.882 441.633 149.807C441.673 149.989 441.492 150.108 441.218 150.141C440.968 149.997 440.777 150.429 440.461 150.469C440.524 150.252 440.632 150.058 440.79 149.927C440.574 149.898 440.584 149.999 440.367 149.97C440.319 150.133 440.321 150.358 440.103 150.518L440.047 150.39C439.847 150.529 439.91 150.725 439.617 150.779C439.113 150.87 438.616 151.031 438.243 151.134L438.186 151.007C438.072 151.354 437.536 151.331 437.301 151.546C436.791 151.571 436.322 152.002 436.008 151.853C435.212 152.222 434.52 152.555 433.646 152.784L433.728 152.546C433.62 152.736 433.593 152.468 433.451 152.545C433.674 152.642 433.306 152.811 433.238 152.963C432.808 152.938 432.369 153.258 432.074 153.502L432.018 153.375C431.756 153.733 431.277 153.648 430.837 153.746C430.77 153.707 430.653 153.608 430.531 153.664C430.368 153.952 430.242 153.976 429.946 154.219C429.698 154.299 429.279 154.376 429 154.375C428.165 154.976 427.151 155.092 426.24 155.586L426.12 155.453C425.287 156.088 424.034 156.162 423.287 156.591L423.279 156.301C423.001 156.3 422.728 156.556 422.853 156.723C422.575 156.723 422.265 157.055 422.035 156.889C421.761 156.924 421.759 157.113 421.556 157.218C421.008 157.284 420.824 157.369 420.354 157.576L420.48 157.554C420.514 157.478 420.483 157.364 420.356 157.386C420.198 157.518 419.666 157.531 419.948 157.788C419.37 157.773 418.785 158.329 418.2 158.246C418.272 158.318 418.149 158.376 418.114 158.451C417.66 158.602 417.124 158.581 416.808 158.846C416.721 158.826 416.876 158.662 416.687 158.712C416.588 158.781 416.721 158.826 416.602 158.918C415.916 159.318 415.054 159.235 414.396 159.494C413.257 160.046 411.985 160.365 410.851 160.762L410.843 160.695C410.539 161.061 409.865 160.737 409.677 161.201C409.568 161.169 409.323 161.284 409.35 161.14C409.101 161.41 408.444 161.255 408.074 161.614C408.117 161.607 408.135 161.587 408.174 161.544C407.683 161.548 407.352 161.867 406.842 161.892C406.881 161.85 406.961 161.801 406.954 161.734C406.734 161.671 406.611 162.141 406.412 161.867C406.309 161.903 406.388 162.045 406.449 162.015C405.381 162.229 404.347 162.779 403.299 163.195C402.473 163.26 403.086 162.695 402.554 163.119C402.486 163.076 402.556 163.247 402.527 163.187C402.321 163.348 402.052 162.963 401.942 163.176C402.069 163.342 401.868 163.316 401.899 163.432C401.391 163.462 401.242 163.323 400.918 163.585L400.914 163.477C400.57 163.896 400.019 163.91 399.757 164.35C397.383 165.182 395.148 166.103 392.827 166.895C390.501 167.579 388.29 168.454 385.893 169.041C385.26 168.958 385.221 168.978 384.653 169.279C384.663 169.229 384.698 169.207 384.645 169.181C384.683 169.403 384.227 169.338 384.235 169.56C383.357 169.8 382.578 170.116 381.688 170.406C381.821 170.338 381.836 170.141 381.673 170.209L381.541 170.401L381.494 170.351C381.39 170.42 381.299 170.565 381.439 170.595C379.261 171.503 376.921 171.787 374.746 172.548C374.197 172.628 373.482 172.949 372.931 173.176C371.163 173.433 369.578 173.693 367.939 174.443C367.939 174.441 367.984 173.819 368.645 173.465Z" fill="#FC6B7E" stroke="#FC6B7E" stroke-width="2.5572"/>
<path d="M408.234 159.605L408.354 159.516L408.364 159.615L408.234 159.605Z" fill="#FC6B7E" stroke="#FC6B7E" stroke-width="2.5572"/>
<path d="M398.255 162.838C398.139 162.941 398.132 162.78 398.106 162.773C398.224 162.724 398.098 162.904 398.255 162.838Z" fill="#FC6B7E" stroke="#FC6B7E" stroke-width="2.5572"/>
<path d="M393.028 165.051L393.068 165.036L393.117 165.233L393.028 165.051Z" fill="#FC6B7E" stroke="#FC6B7E" stroke-width="2.5572"/>
</g>
<defs>
<clipPath id="clip0_1056_1512">
<rect width="411.766" height="411.766" rx="12.1405" fill="white"/>
</clipPath>
</defs>
</svg>
