<svg xmlns="http://www.w3.org/2000/svg" width="631" height="105" fill="none" viewBox="0 0 631 105"><path fill="#fc6b7e" d="M576.4 48.6v-.1l-4.7-.2-.1-.1-.5.1-1.5.1-.4-.1.3-.4q0-.2-1-.5l-1 .3h-.4l.4-.4h-.3c-1.5 0-3.3 0-4.5.3l-1 .2h-1l-1.9-.5c-1.3-.1-5.5.2-8-.2q-.6 0-.6-.3c1.4-.6 5-.3 6.8-.6l-2.8-.7.1-.1 1.7-.1h1.6l-1.7-.2c1.5-.2 3.6 0 4.8-.3-1-.2-3 0-4.2 0-.9 0-1.2-.1-1.8-.3h-.2l-1 .2-3.2-.2.3-.2 1.7.1 1.8-.1h.2q-.7-.4-1.8-.6l.8-.1 2.5-.2c-.8-.2-2.2-.1-3.1-.1h-4.8l-.3-.3-.7.1q-.8.2-1.6.1l-.2-.1.4-.1 2-.4h-2.2l-.3-.6c0-.2-.6-.2-.6-.4l1.3-.2h.1l.2-.1c-.2-.2-.2-.2-1-.4h-.6l7.7-.4-8.5-.1-.3-.1H542l-.5-.2c3-.2 6.1 0 9.2-.2h3.1l.8-.1q1.4 0 2.3-.2-.3-.2-1.1-.2h-5.3c.6-.2 10.6-.5 12.7-.6l-13-.3-7.4-.2h.5L542 38l5.4-.3c1.6 0 5.5-.3 6.3-.7-2.7 0-7-.4-8-.4h-1.9l-.3-.2 1-.1-1.3-.3-4.4-.5 2.2-.1-2-.3.2-.4c-1.4-.2-3.5-.1-5-.2l-3.2-.4 1.5-.5h1l.4-.1c-.4-.2-1.8-.3-2.6-.4l.1-.1c2.5-.6 4.6 0 7.2-.3l-.1-.3h1l.4.2q.7 0 1-.4H526l.4-.2 6.5-.2h4.5l4.4-.2h1.3l.2-.2c-2-.3-4.2.3-6.3-.4h-3c.7-.3 1.8 0 1.6-.6h1.4l-.5.3h1.2l1.1-.1q1 0 1.4.3l1-.1q1.7 0 3.1-.3 0-.3-.7-.4h-.5l-1.2.2c-.5-.1.2-.2-.6-.2l-.7.1H539l-2.2-.1h-.8l.9-.3c4.2-.2 9.7.3 12.7-.3v-.1h-2.1l-1-.3-.5.3h-.4l-.5-.3h-.2l-1 .3h-1.6l.4-.3q-1.3-.2-2.6 0h-.2l.3.2 1-.1h.3q.3 0-.2.2h-2.2l-.4-.2h.4l.1-.2-.9-.5c1.3 0 3.2 0 4.2-.3L541 28l-1.7-.5q-1-.2-2.1-.1h-2.7l1.9-.2c2.2-.2 5 0 7.2-.3v-.5h.5l1-.3-.3-.1h-3.6q.3 0 .4-.2l-.6-.2h-1.7c.8-.3 2.4-.2 3.5-.2q1.1 0 1.9-.2l-.5-.1c-1.8-.4-5.7-.1-7.7 0H535l-.5-.1.3-.1 1-.2c.7-.1.6-.2.6-.5 1.1-.2 2.8-.1 4-.2l-.4-.2 1.6-.2c1.8-.2 2.5.2 4 .2 1.8.1 3.8-.4 5.7-.1l-.2.2h.3l.7-.2 1.5.1h1.8l-1-.2v-.1h1.3l1.8-.2 1.2-.2.9.1c.6-.2 2.8-.8 2.5-1.1l-.6-.3.5-.2h-.7v-.2h4.1l-.4-.2h.2c2.9.3 1.2.6 1.7.9h2v-.2l-.6-.1-.5.1h-.5l.3-.3-1.2-.5h.4l3-.3v-.1q-2.1-.2-4.7-.2l-.1-.2-.5.2h-1.9l.2-.4q0-.4-.8-.5l-1 .3-.5-.1.4-.3h-.3c-1.5 0-3.3 0-4.5.2l-1 .2h-1l-1.9-.4c-1.3-.2-5.5.1-8-.2q-.6-.1-.6-.3c1.4-.6 5-.3 6.8-.6l-2.8-.7.1-.2h3.3q-1 0-1.7-.3c1.5-.1 3.5 0 4.8-.2-1-.2-3 0-4.2 0q-1.2 0-1.8-.3h-.2l-1 .2-3.2-.3h2l1.8-.1h.2v-.1q-.7-.3-1.8-.5l.8-.2 2.5-.2h-4.3l-.3-.1h-3.3l-.3-.3-.7.2-1.6.1-.2-.1.4-.1 2-.5h-2.2l-.3-.6c0-.1-.6-.2-.6-.4q1 0 1.6-.2-.1-.4-1-.4h-.5l-1.2-.7h-.3q.5.4.3.6h-.5l-.7-.1-.1-.3v-.2h-.5v-.2l9.2-.2h.3l2.8.1.8-.1q1.4 0 2.3-.3l-1.1-.1H544l-.1-.1 12.7-.6-13-.2-8-.2-9.4.5c-3.7 0-20.6 0-22.2.3l-1.7.2-1.9-.2c-1.6 0-3 .5-4.9.4q-.1-.3.5-.4l.5-.2H494c-2.4.1-2.8.5-5.4 0l1.3-.2v-.1h-.3l-1.6.2c-1.6.3-4 .5-5.8.4q-.6 0-1-.2l.8-.1c-2.6-.2-5.6.6-7.1.4l-.3-.2-3.2.3-.2-.3q-1.5.2-3 0l-.6-.3h-.8l-3.2.8-.1-.7q-1.6-.2-3.4-.1h-.2l-1.9.4c-1.2-.1-3-.4-4.3-.3l-1 .2q-.6 0-1-.4h-.9l-1 .4-1.4.2h-.4l-.1-.1c-.3-.2-.4-.4-1.2-.5h-2l-4 .7.3-.4-.4-.1q-1.1 0-2 .2l-.8-.3h-13l-5.5-.1-2.1.1-.6.1c-1.2-.3-1.9-.2-3.4-.2q-5.7 0-11.1.5a93 93 0 0 0-8.8-.5c-.8.4-1.7 1-3.5 1h-2c-1.2-.3-2-.7-3.4-.8-1.6.3-1.7 1-4 .8l-.5-.1.4-.2h-.4l-1.9.4-.2-.1q.8-.3 1-.6l-1.1.3h-.5l.2-.3h-.5l-.2.3h-.5l-.6-.4c-2.6 0-3.7 1-6.4.6 0-.2.7-.3.7-.3 0-.1-1-.7-1-.9H366a13 13 0 0 0-3.4.6l-.3.1-.9.3-.2.3q-.2-.4-1.1-.5h-.8l-.1.1q.8.2 1 .4h-.4l-1.1-.2q-.3 0-.3.3h-.4l-1.5-.4h-.3q0 .3-.3.3-1.8-.6-4.5-.9-1.4 0-2.7.2c-.5.4.9.5-1 .9-.5-.2-.2-.4-.8-.5q.1.4-.4.6-.6 0-1-.3-.5.1-.5.4h-.3V12l-.3-.4-2 .8q-.6 0-.7-.3l-.1-.5-.4-.1-.2.5h-.3l-.5-.4c-.7.2-.4.6-1.2.7V12l-1 .4q-.9-.2-1.4-.6h-.3l-.3.3c-1.4-.1-2.4-.6-4-.4-.7.3-.6.6-1.4.8H324l-3.6-.2-2.5.2c-.1-.4 1.2-.3 0-.8h-1.3c-.8.4-.2.9-1 1.3h-.7l-.1-.2-.4-.3H313l-.9.1h-.6q-.2-.2 0-.4l-23.4.4-7.1-.2h-10q-15.5 0-30.8.2l-25.6.1q-13 .2-26.2.2c-4.2-.1-23.8-.6-26.5-.4q-.8 0-1.4.3h-.5l-.1-.2c-2.6-.2-5.5.3-8.5 0l-3 .1c-1.6.2-3.3-.3-5.3-.1l.7.2c-2.6 0-4.9-.6-6.7-.4l1.7.4-4.1-.1c.8-.2 1.1 0 2-.3h-2.2l-.8.4c-1.2 0-3.9 0-4.7.3h-.1l.2.2q-.7 0-1-.2c.3-.3 1-.2 1-.6l-.5-.1h-.2l-.9.4-.8-.1h-1.3q-.2-.4-.9-.6-1 0-1.7.2h-.3l.7.2-.4.2h-.5l.1-.2h-.4l-.4.3h-.4v-.2q-.3 0-.4-.3h-.5l-.2.1-.6.3c-.8 0-.7 0-1.2-.2 0-.4-1.3-.6-2-1h-.3q.1.4.8.7h-.5l-.2-.1-1.9-.2h.3l.7.3-.3.1h-.4l-.6-.4-1.3.1.8.2-.1.1q-.3.2-.1.2h-.7l1.5.1-1.5.1c-.8 0-2.1-.3-3-.1l-.7.1h-2l-.3-.4h-.4l-.4.1.3.2h-.6l-.4-.2-1.3.2h-.5v-.2c-.2-.2-.2-.5-1-.7l-.8-.2c-.7 0-1.1-.3-2-.3l-.3.2c1.2.3 1.4 0 2.7.6l-.1.2h-.5c-.4-.2-.3-.2-1-.3h-.6v.3l-.1.1-.8-.4h-1.8c-3.3-.3-12.2-.3-15.9-.1l-.9-.2h-.2l-1.7.2H73q-.7.1-1 .4h-1.4l-1.3.2-.2-.2H66q-1.5 0-2.8-.2h-6q-.4 0-.4-.3h3.5l-1-.1h-2.4l-5-.1h-.6l-.4.1-.7-.2h-1L48 12l-1-.1.5-.2v-.1H46v.3l-.4.1-1.6-.1q.5 0 .9-.3-.8-.2-2-.2v.4h-1l.2-.3h-.4l-1.4.3h-.2l.6-.3c-2-.2-4.5.2-6.4.3l-.4-.2-1.6.4v.2l1.7.1q.2.1-.2.3h.4l.8-.3h4q0 .3-.5.4h.9v.1l-2.2.1h-.7v-.2l-.1-.2-.8.3c-1.5 0-1.7 0-2.7-.3v.2a19 19 0 0 1-4.3 0l-.5.2.1.1 3.6.3c2.4.3 7-.1 9.2.3l.5.7-1.6.1h-.4.4l1-.2-.1-.2h-.5c-1.5.1-1.7-.1-3.5.2l-2.2.2H34l.2.2h.5l4.3.3-.1.1h8.6q7.7.1 15.3.4h5.5q1.3.3 2.8.2 8 0 15.8.3H94q.1.4-.4.4c-1.2 0-1.1-.1-2-.2l-3.8.3-2.7-.1H79l-.7.2H78l-.3-.2h-.5l-.4.4H76l.1-.4h-1.3l-.2.3H74l-.6-.3h-1.1c-.5 0-.4 0-.6.2-.8 0-.2-.3-1.2-.3l-.4.3q-.4 0-.6-.3l-.4.4h-.8l.2-.3H68c-.5.2-.8.4-1.7.4h-.5l-.4-.4h-.5q-.4.2-.2.3-.9 0-1.6-.4h-.3v.4h-2.6q-.9 0-1.5-.2V16h-.9l-.3.4H57l-.2-.1-.4-.2-.9.3H54v-.3a54 54 0 0 0-9 0q-1-.3-2-.3h-3.8l-.3.2 1 .3-.2.2h-3.2v.2l3.6.5c-1.5 0-.8-.2-2.4 0l-.2.1q1.5.2 3 0l.1-.3c1.6.2 1.6.6 3.6.4h1.4l.1.2q-1 .2-2.3.1c.5.3 2.6.5 2.7.7-1 .2-2.6.1-3.8.1h-1l-.1.1.4.2-1.3.2h-.8q.3-.3 1-.4l-1.6-.2-2.3.1H28v.2q.1.2-.1.4h-1.1l1-.2-.6-.2h-2.1q-.7.3-1.6.3l-.2.2H25l-1.1.4a10 10 0 0 1-3.8 0q.2.3 1.3.5h1.3l2 .3c-1 .2-2.8.3-3.1.7 1.1.3 3.6.4 5.1.4h.7l.4-.1h.7q-.7.3-1.9.4h.1l5.3-.1h.4v.2H28l-.3.1h2c1.6 0 3.6.2 5 .4-3.2.4-8-.6-10.6 0l.6.2c1.8 0 4-.2 5.6 0h.2l-.2.1-.7.1.5.1.4.1h-4.4l1.4-.1-.1-.1q-1.4 0-2.5.2h.2q3.4.4 7 .5l2 .3h1.4l.4.1q-.1.3-.7.4h-.3l-.9-.2-.4.1-1.2.1q-1 .1-1.3.4l-1.8-.2-1.7.1h-.4c1.6.4 3.9.1 5.5.4-1.5.4-5 .1-5.5.8 2 .5 13.5-.4 15.1.6l-.2.1h-4.3q-5.7.2-11.3 0c-2.8 0-6-.8-8.5-.6.6.3 3.4.7 4.8.8l1 .5H22l1.7.5 1 .2c-.3.3-.8.6-.6.9l2.4.5v.2c-3.4.7-13.3.1-15.4.7 3.6.5 9.3-.2 13.3.8 3 0 8 0 10.5.4q.3 0 .5.3h1.9-.1L35 32c-1.8 0-3 .2-4.6.3s-2.5-.3-4.4-.1c1.6.2 4.3.2 5.4.5l-1 .2c0 .3 1.6.5 1.7 1-1.4.2-3.3-.1-4.7 0v.2c-.1.2 0 .4-.8.5-.4.1-1.6.2-2 .1-1.8 0-2.7-.4-4.6-.4q-4.4-.2-8.9 0l-.5.2.5.3c.7 0 2 .1 2.3.3v.1c.2.4 1.4.6 2.3.8v.1c-.4 0-1.4.1-1.5.3H16q-.5.2-.2.4h-.3l-1 .1.8.2c1 .2 1 .7 2.8.6h.9q1 0 1.7.2c-.5.2-1.7.2-2.5.3l1.7.3h1q.5-.3 1.2-.2 1.3 0 2.1.4h.5l.8-.2h.4l2.8.2h-.1.7l-.4.1h-2l-.1.1.4.1h.6c-1.1.4-3.1.3-4.4.6 1.2.2 2.3-.1 3.4.1h-.3l-.7.2.7.2-.1.2q-2.3.2-4.8.1H21l-.1-.4h-.5c-.4.2.2.3-.3.6h-.7c-.1-.2-.1 0 0-.2l-.3-.1h-.3v.3c-2 .2-3-.3-4.8.3l1.2.2v.1c-2.3.2-9.7-.5-10.8-.3 2.1.3 11 .5 12 .8 1.2.3 4 0 4.3.4h-1.3l.2.2h.9q1-.3 2-.3h.2l.7-.3q2 0 3.3.3l1.5.3h-4.1l-.6.2.2.1 3.6.3h2.1v.2c1.8.3 2.4.2 3.8.6l-.9.1-2.3.2h-.3l.2.2h.5l4.3.3-.1.1 3.6.1h5c.8.3 2.5.3 3.6.5-1.5 0-.8-.2-2.4.1h-.2q1.5.3 3 .1l.1-.3c1.6.1 1.7.5 3.6.3h1.4l.1.3h-2.3q.5.3 1.5.4h-2v-.2a54 54 0 0 0-9 0q-1-.3-2-.3h-3.8l-.3.2 1 .3-.2.2h-3.2l-.1.2 1.8.3H32l-1.6.3H30l1.6.1q-.2.3-1.1.4a10 10 0 0 1-3.8 0q.2.3 1.3.5l.4.1c.6 0 .5 0 .9-.2l1.5.4-3.7-.2H24v.2h-.5.1q.1.3-.2.5h-1.1l1.1-.2-.6-.2h-2.1q-.7.3-1.6.3l-.2.2h1.6l-1.1.4a10 10 0 0 1-3.8 0q.2.3 1.3.5h.4l.9-.1c.8.3.8.3 2 .4-1 .2-2.8.3-3.1.7 1.1.3 3.6.4 5 .4h.8l.4-.1h.7q-.7.3-1.9.4h.1l5.3-.1h.4v.2h-4.4l-.3.1h2c1.6 0 3.6.2 4.9.4-3.1.4-7.9-.6-10.5-.1l.6.3c1.8 0 4-.2 5.6 0h.2l-.3.1-.6.1.5.1.4.1h-4.4l1.3-.1v-.1q-1.5 0-2.5.2h.2c2.3.4 4.6.3 7 .5l2 .3H31l.4.1q-.1.3-.7.4h-.3l-.9-.2-.4.1h-4.5l2 .4h-1.8q-.9-.2-1.8 0h-.3c1.6.4 3.9.1 5.5.4-1.5.4-5 .1-5.6.8 1 .2 4.5.1 7.8 0v.1l1 .2-.5.5h-9c-2.7 0-5.8-.9-8.5-.7.7.3 3.5.7 4.8.8q.9.3 1 .5h-1.6l1.7.5 1 .2-.4.3-2 .2 1.8.2v.2l2.4.5v.2c-3.4.7-13.3.1-15.4.7 3.6.5 9.3-.2 13.3.8 3 0 8-.1 10.5.4q.3 0 .5.3h2-.1l-2.2.1c-1.8 0-3 .2-4.6.3s-2.5-.3-4.4-.1c1.1.2 2.8.2 4.1.3H18l-.5.2.5.3c.7 0 2 .2 2.3.4.2.4 1.4.6 2.3.8v.1l-1.5.3h1.3c-.5.1-1.6.2-2 .1-1.8 0-2.7-.4-4.6-.4H6.9l-.5.2.5.3h-.1c.8 0 2.1.1 2.3.3v.1c.2.4 1.4.6 2.4.7v.2l-1.6.2h.4l1.5.1q-.5.2-.2.4h-.3l-1 .1.8.2c1 .2 1 .7 2.8.6h.9q1 0 1.7.2l-2.5.3 1.6.3h1q.6-.3 1.3-.2 1.4 0 2.1.3l.3.1h.2l.8-.2h.4l2.8.2h-.1.7l-.4.1h-1.5q-1-.1-2.4.4l1 .1-1.7.1c-3.2 0-8-.5-8.9-.3 1.8.3 8.2.5 10.8.7h-.4l.7.3-.1.2q-2.3.2-4.8.1h-.7l-.1-.4H16c-.4.2.2.3-.3.6H15q-.2-.1 0-.2l-.3-.1h-.3v.3c-2 .2-3-.3-4.8.3l1.2.2v.1C8.6 71 1 70.2 0 70.4c2.1.3 11 .5 12 .8 1.1.3 4 0 4.3.4H15l.2.2h.9q1-.3 2-.3l.2-.1.7-.2q2 0 3.3.3c1.4.3 1.9.5 3.8.7-.3.2-1.3.2-1.2.4 2 .3 2.6.1 4.2.7h.2q.8-.3 2-.3c.8 0 .9 0 1.4.2q-.1.3.5.5h1c.3.2-.8.3-.4.5h1l.6-.5c1.5-.5 3.7-.2 6.2-1 1.6-.3 2.9.1 4.5 0q1-.1 1.4-.4h2.2l-.2.1 1.7.1h.3v-.1h.9l3 .3h1c-.4.3-1.1.2-.6.5l.8.3h.5q1-.6 2.7-1l2.3.1.4.1.7.6.5.1.4-.3c1.3 0 3.5-.2 4.8 0q.6 0 1 .4l1.8-.2h.6l.2.1.4.2-.4.2q-.4 0-.6-.3l-.5.5H71l-.3-.1.3-.3h-.6q-.6.4-1.7.4h-.5l-.4-.4H67q-.3.2-.1.3-.9 0-1.6-.4H65v.4h-2.6c-.8 0-1 0-1.5-.2v-.1h-1l-.2.3h-.5l-.2-.1-.4-.2q-.3.2-1 .3h-1.4v-.3a54 54 0 0 0-9 0l-2-.2q-1.8-.2-3.8 0h-.3l1 .5H42l-3.2.2-.1.1c.9.3 2.6.3 3.7.5-1.5 0-.9-.2-2.5 0v.2h2.8l.2-.3c1.6.1 1.6.5 3.6.3H48v.2q-1 .3-2.3.2c.5.2 2.6.4 2.7.6q-1.8.2-3.8.1h-1l-.1.1.4.2-1.3.2h-.8q.3-.2 1-.3-.6-.3-1.6-.3l-2.3.1h-.3q-2.4.2-4.7 0h-3.1v.1h-.5.1q.1.4-.2.5l-.5.1-.6-.1 1.1-.2-.6-.1h-2.1l-1.6.3h-.2 1.6q-.2.4-1.1.5a10 10 0 0 1-3.8 0q.2.3 1.3.5l.4.1c.5 0 .5 0 .9-.2.8.3.8.3 2 .4-1 .2-2.8.4-3.1.7 1.1.3 3.6.5 5 .4h.8l.4-.1h.7l-1.9.5h.1q2.7 0 5.3-.2h.4v.2q-2.1.2-4.4 0l-.3.2h2c1.6 0 3.6.1 4.9.3-3.1.4-7.9-.6-10.5 0l.6.2c1.8 0 4-.2 5.6 0h.2l-.3.1-.6.1.5.1.4.1h-4.4l1.4-.1-.1-.1q-1.5 0-2.5.2h.2c2.3.4 4.6.3 7 .5l2 .4h1.8q-.1.3-.7.4h-.3l-.9-.1H36l-1.2.1q-1 .1-1.3.4l-1.8-.2-1.8.2h-.3c1.6.3 3.9 0 5.5.3-1.5.4-5 .1-5.6.8 2.1.5 13.6-.4 15.2.7h-4.5l-11.3.1c-2.8 0-6-.8-8.6-.7.7.4 3.5.7 4.8.8q.9.3 1 .5h-1.6l1.7.5 1 .2c-.3.3-.8.6-.6.9l2.4.5v.2c-3.4.7-13.3.2-15.4.7 3.6.5 9.3-.2 13.3.8 3 0 8 0 10.5.4q.3 0 .5.3h1.9-.1q-1.1.2-2.2.1c-1.8 0-3 .2-4.6.3s-2.5-.3-4.4-.1c1.6.3 4.3.2 5.4.5v.1h-1c0 .4 1.6.7 1.7 1-1.4.3-3.3 0-4.7.2v.1c-.1.2 0 .4-.8.5l-2 .2c-1.8-.2-2.7-.4-4.6-.5h-8.9l-.5.2.5.3c.7 0 2 .1 2.3.4.1.4 1.3.6 2.3.8v.1l-1.6.3h1.9q-.5.2-.2.4H18l-1 .1.8.2c1 .2 1 .7 2.8.7l.9-.1q1 0 1.7.2-1.1.3-2.5.3l1.6.3h1l1.3-.2q1.3 0 2.1.4h.5l.8-.1h.4l2.8.1H31h.7l-.4.2h-2.2l.5.1h.6c-1.2.4-3.1.3-4.4.6 1.1.2 2.3-.1 3.4.1H29l-.7.2.7.2-.1.2q-2.3.3-4.8.2l-.7-.2-.1-.2h-.5c-.4.1.2.3-.3.5h-.7q-.2 0 0-.2h-.6v.3c-2 .1-3-.4-4.8.3l1.2.1v.1c-2.3.2-9.8-.5-10.8-.3 2.1.4 11 .6 12 .8 1.1.3 4 0 4.3.4h-1.3l.2.2h.9l2-.3h.2l.7-.3q2 0 3.3.3c1.4.3 1.9.6 3.8.7-.3.3-1.3.2-1.2.5 2 .2 2.6 0 4.2.6h.2q.9-.3 2-.3c1.1 0 .9 0 1.4.3q-.1.3.5.4h1c.3.2-.8.4-.4.6l1-.1q.4-.2.6-.5c1.5-.5 3.7-.2 6.2-1 1.6-.2 2.9.1 4.5 0 1.5-.1 1.4-.6 2.7-.6h.8q.3.3-.1.4h2c-.2-.2 0-.1-.5-.2l.3-.1h.9v.3h.3q1.4 0 2.6.3l.8-.1h.3c-.4.4-1.1.2-.6.5l.8.3h.5c1-.4 1.8-1 3.7-1 .9 0 1.1 0 1.7.2l.7.7h.5l.4-.3c1.4 0 3.5-.2 4.8 0l1 .4 1.8-.2h.6l.2.2.7.2c.7 0 .8 0 1.3-.2q.6 0 .6.3l.5-.2h.7l.4.3c1.3 0 6.9-.2 7.6-.4l1-.2c1.2.3 1.3 1.3 1.6 1.8h.3q1.5-.5 2-1h.2q.4-.3.2-.6l.2-.1.9.1q.7.3 1.8.2l-.4.3h1.6l.7-.2 1.5.2h.4l.2-.5h.3l.3.5h.3q.8 0 1.5-.4 1.2.1 2 .4v-.3q1.5 0 2.6.3h.3q.9 0 1.2-.3l.6.1 1.6.1.8-.1h.7l1.2-.4h1.7l1.2.2h.3l-.1-.4 1.2.4h.2q1.1-.5 2.7-.4l1 .1-1 .7h.8v-.3h.3l.4.2q.6 0 .9-.2.8 0 1.5.3l.7-.1c.5-.3.1-.6 0-.8q.7 0 1.2.3h.7l.7-.3c.2.2.1.3.8.5h.5l.2-.3c.5 0 .4 0 .6.2l.3.3 1.6.2q1 0 1.7-.3h4.5l.3-.1q0-.2-.3-.5l-.6.3q-.4-.2-.3-.3h2.9l.6.1-1.4.3h3.4l.8.2h.6l-1.6-.5 1.2-.2 1.8.2h.2l-1.2.2q-.1.1.5.3c1 0 1.3 0 2 .3l.5-.1.5-.2 5.4.1 3-.2 1.6.5.8-.2h.4l-.7.4q-1 .4-.5.9h1q.8.2 1 .5l-.2.1-.3.2.6.1 1-.4.9-.3q-.5-.2-.6-.6c-.6.2-.2.5-.3.7h-.3q-.7-.4-.2-.7l.6-.5-1.3-.4.2-.1h1.5l2-.2h3.6q1.2.2 1.3.6l-.2.6 1 .2c.4-.3-.8-.4.7-.7 1.7.2 3 .6 5 .5 1.3-.4 2-.9 3.3-1.3l1.7.3h.3l2.4-.2c1.4.3.7 1.4 2 1.9 1.3-.5-.2-1.4 1.6-1.9h.6l1 .6c.5-.1.4-.3 1.1-.5q1.3 0 2.2.2c1 .2 1.2.4 1.5.7l.6.1q.5 0 .7-.3l3.9.3h-.2l-.2.4h2.1q1.3 0 2.3.3c.7 0 .5-.3 1.2-.3l.2.2h.8q.6-.2.7-.5h.5c.6.3-.2.3.5.5q.6 0 1-.2l-.6-.2h.5q.8 0 1.4.4c.4-.4-.5-.8.4-1.1h.9l.8.1h4.1q1.4.1 1.7.5l.4.5h.4q.7-.6 2.2-1.2h1v.1q.2.5.9.7h.4l2-.3h4.5l.8.3h.2l.7-.1c.4.4 0 1 1.4 1.3h.3l-.4-.2.2-.1c.7 0 .7 0 1 .2q-.3.2-1 .3h-1.5v.1h2.1l1 .3q.5-.2.5-.4l.8.2 1-.2q1.8-.7 5.1-.9 1.5 0 2.4.3l.4-.3q1.2.3 1.1 1l-.3.2-1.7-.1q1 .4 2.7.4.6 0 1-.2v-.7h1q1-.4 2.5-.6l.6.1v.6l.4.2h.4l.2-.1.4-.2q1 0 1.7.2l2 .4q1 0 1.5-.3l.4-.4h.4l.5.2c1 0 .8-.5 1.8-.3l1.2.3h.3l-.6-.4h.3l2 .8q1.2.2 2.5 0l-1-.1.4-.1 1.5.1 1-.2q-.1-.3-1.1-.4l.8-.2v-.2h.5q.8.2.9.6l.4.2h.3c.4-.2.2-.2.7-.2q.3.4-.2.7l.3.1h1.4l.1-.3h-1l.9-.3.5.1 1.6.2c.9-.2 1-.5 1.7-.7h.6l.1.3h.3l1.2-.3-.2.4c.6 0 .8-.4 1.7-.5l.6.1q.8.3.6.6h1.5l.1-.1 2.6-.4q-.5.3-.5.5 1-.2 1.2-.6h.4c.6.2.3.4.2.7l.7-.2.6.2h.4v-.2l.3-.1.2.2h.2l1.5-.4h2.4l1.7-.5q2.8.4 5.4 1l1.5-.4-.8-.2h.6l3.8.1.2.5h.7q.5-.6.5-1h.4l1.7.6a6 6 0 0 0 3.9-.2q.3-.2.9-.2 1.1 0 2.1.3l1.3.1q-.1-.3.6-.5h1.2v.5h.4q.3-.3 1.2-.5l.4.2c1 0 .3-.3 1.2-.4.3.1.2.2.8.3l.8-.3.5.1h.4l.6-.5q1.5 0 2.8.3c1.1-.2.5.1 1.5 0l.4-.1h.5l1.7.3c1.2 0 0-.4.7-.6q1.3.4 3 .6h.1l-.3-.3c.5-.2.6-.1 1.4-.2l1.2.3c1.9 0 2.8 0 4.4-.2h2.5q.1-.2.7-.3 4 .4 8.1.6l.2-.1-1-.2h.3l3.2.1h.4l.5.2h1.4l.2.1c2.4.3 4.2.9 7 .6l1.1-.2-1-.3-2-.4h-.3q-.7-.2-.9-.6l1.3-.3c3 .1 1.8 1.2 4 1.5h.5l-.3-.3 1.6-.3c1.2 0 1.5.1 2.4.3l.6-.2c.4-.4.6-.5 1.9-.7h.1q-.8.3-.8.6h1.5q.2.2-.2.4l-1-.2-2.2.3 3.2.2h.4l.3-.1h.2l.3.3h.5l.8-.3 2.4-.1q1-.1 1-.4.3-.3.9-.4h.4l.4.1q-.1.4-.5.7 5.2.3 10.5.3 1.8 0 3.3.3c.8.2.7.2.8.5h1.1q1.4-.4 1.5-1c-.6 0-.8.3-1.5.3-1.3-.5-1.5-.1-3.3-.3l.1-.2h.7q2 0 3.4-.3l.4-.1q.9 0 1.7.2v-.2l.1.2h.4l.3-.3h.5q-.2.2 0 .4 1.1 0 1.8.4l-.7.4-2.3.1q1 0 1.4.2l-.6.5h.5c2.3 0 1.4-.2 2.7-.5q-.1.3.5.6c1.8 0 2.4-.3 4-.4h.3l-.2-.1h-1v-.2h.2c1-.1 1.2-.3 1.6-.6.8-.1 1.1-.2 1.8-.1.3.3 1.2.6 1.3.9v.1h2.6q-.3-.3-1-.3l.1-.1h1.1l-1-.4h-.3l.5-.2.8.1h.5v-.2H417l.1-.1 2-.1.7-.1.3-.3.1.2h1l.3-.3h1.4l.1-.1q-.8-.2-1.7-.2c-.6 0-1.5 0-1.8.2q-.4 0-.6.3h-.4l-.7-.2q-.8 0-1.6.3l-.4-.1-.2-.3c-.6.2-.6.3-.8.5h-.1c-.6-.4-1-.3-1.8-.5h-.3q.9-.4 2.4-.6c-2.4 0-2.4.7-5.5.4 2-.3 1.8 0 3.6-.5h1.4l.7-.3c1.5 0 1.8-.2 3.4.1v.1h-.6l-.6.2h2.1l-1.3.3h1.1c2.2-.2 1.5-.5 4.6-.4q2.4 0 4.4.3.3.2-.2.4t-1.7.3q-.6-.1-.6-.4h-.4l-1.3.1v.6h1.4q-.3 0-.3.3c.4.2.3.2 1 .3l1.3-.2h.4q0 .2.4.4h.8l-.3-.3h1.4l.4-.1c-.4-.3-1.8-.5-2.4-.8l1.1-.2 2.2.2q-.3-.3.3-.6a9 9 0 0 1 3.4.2l-.8.4.8.4h.4c.7-.3.3-.6 1-.9q.9 0 1.6.2l-1 .3q-.1 0 0 .2l1.3.2.6.1h.5-.1q-.4-.2-.4-.5h.8l.8.2c.3-.3.5-.4 1.5-.6 1.4 0 2.2.3 3.3.3l-.6-.1q.6-.3 1.7-.4 1 0 1.7.3 1 .2 1.4.6l-.7.1.1.1h.5v.2H448q0 .3.5.4h.5l.8-.1q1.4.3 2.3.8c.3 0 0 .2 0 .3h.4l.7-.1-.3-.4q-.1-.3.6-.4h2.3l-.4-.2c.6-.3 2.2-.5 3-.7q.1-.2.5-.3l.8.2c1-.1 1.1-.6 2-.9h2.8q.4 0 .4.2-.9.1-1.2.4l1.2.2-.4.2h1.3c1.7.4 2.5.2 4.5.1l.6.2q.6 0 .7-.2c.8-.2 1.2-.5 2.3-.6h.4c-.2.3-1.2.4-1.5.7 1.6-.3 2 .1 3.3 0q.5-.3.3-.6c-.6-.2-.8-.1-1.7-.2l1-.3q1.3-.3 1.8-.7v-.1c.8 0 1 0 1.5.2q.2.3-.6.5l.3.1h.8l.7-.3h.2q1.4-.3 2.9-.3l-.1.2-2.4.4h-.4l.2.1h1c1.9-.2 1.3-.5 2.7-.7l1.3.1h.1q-.8-.4-2.2-.4v-.1l.7-.1.5-.5 1.6-.2c1.2.2 1.1.7 2.4 1h1.5l.6-.2c.8-.3 1.2-.3 2.6-.4q-.7.2-.5.5h.5l.4-.2c.5 0 .3.1.7.3.4-.2.1-.5 0-.7h2.1l1.7-.2-.6.3.4.2c1.6 0 2.2-.4 3.6-.6l-.8.4h.3q.9 0 1.1-.4h.5l.3.3h2q.6 0 .9-.4h.4q.4.5 1.4.9l1 .1q1.6 0 2.5-.4c1-.3 1.4-.4 2.8-.4h.5l-.5-.2.3-.1c1 0 1.1 0 1.8.2q2.7 0 5.3-.3h1.2q.6.3.6.5v.2q0 .2 1 .4c2.7.1 5.9-.2 8.5-.5l-4.4-.1-.1-.2h.4c.8-.1 2-.1 2.6-.3q.9 0 .7-.4l-.6-.2 1-.2-.8-.3h-.4c1-.2 2 0 2.7-.2l-.3-.2c0-.3 2-.5 2.7-.7l-.6-.1h-1.6c-2.5-.2-6.1-.4-8.7-.3h-.4.1-.5c1.8-.4 5.4-.4 7.7-.5l1 .3c1.3 0 1.9-.5 3.3-.6v.1l-.8.1q-.7.1-.7.4l2-.3 2.4-.2.4-.1h-1.6q.5-.3 1.2-.3l.6.1h.7l2-.2 1.4-.2c.1.2 0 0 .3.2l1.2-.3-1.3-.2q.7 0 1.2-.3l-1.2-.1c.6-.2 4.3-.3 5.4-.4 1.6 0 5.5-.3 6.3-.7h-.1c-2.6 0-6.9-.5-8-.4h-1.8l-.3-.3 1-.1-1.3-.3c-1.3-.3-3-.1-4.4-.4q1.3 0 2.2-.2l-2-.3q.3-.1.1-.4c-1.3-.2-3.4-.1-5-.2l-3.2-.4 1.6-.5h1.4c-.4-.3-1.8-.4-2.6-.5v-.1c2.6-.5 4.7 0 7.3-.3l-.1-.3h1l.4.2q.7 0 1-.3l-.2-.1h-14.9l.4-.2 6.5-.2h4.5l4.4-.2h1.2l.3-.2c-2-.3-4.2.3-6.4-.4h-3c.8-.3 1.9 0 1.7-.5h1.3l-.4.2h1.2l1.1-.1q1 0 1.4.3l1-.1q1.7 0 3.1-.3 0-.2-.7-.4h-.6q-.6 0-1.1.3c-.5-.2.1-.3-.6-.3l-.7.2-1.5-.1h-2.2l-.8-.1.9-.3c4.2-.1 9.7.3 12.7-.3h-2.1l-1-.3-.5.2h-.4l-.5-.3h-.2l-1 .4q-.9 0-1.6-.2l.4-.2h-3l.4.2 1-.1h.3q.3 0-.2.2h-2.2l-.4-.2h.3l.2-.2-.9-.5c1.3 0 3.2 0 4.2-.3l-1.5-.1-1.7-.5q-1-.2-2.1 0l-2.7-.1 1.8-.2c2.3-.2 5 0 7.3-.3V84l.5-.1 1-.3h-3.9l.4-.2-.6-.2h-.5l-1.2-.1c.8-.2 2.4-.1 3.5-.2q1.1 0 1.9-.2l-.5-.1c-1.8-.4-5.7-.1-7.7 0h-1.6l-.5-.1.3-.1 1-.1c.7-.2.6-.3.6-.6q1.9-.2 4-.2l-.4-.2 1.6-.2c1.8-.2 2.5.2 4 .3 1.8 0 3.8-.5 5.7-.2l-.2.2h.3l.7-.2 1.5.2q1 0 1.8-.2h-1V81h1.3q1 0 1.8-.2l1.2-.2.9.1c.6-.2 2.8-.8 2.5-1l-.6-.4.5-.2h-.7v-.2h4.1l-.4-.2h.2c2.9.3 1.2.6 1.7 1l2-.1v-.2h-1.6l.3-.3-1.2-.5h.4q1.7 0 3-.3V78q-2.2-.2-4.7-.2l-.1-.2-.5.2-1.5.1-.4-.1.2-.4q0-.2-.8-.5l-1 .3h-.5l.4-.4h-.3c-1.5 0-3.3 0-4.5.3l-1 .1-.4.1h-.7l-1.8-.5c-1.3-.1-5.5.2-8-.2q-.6-.1-.7-.3c1.5-.6 5.2-.3 7-.6l-3-.7.2-.1 1.7-.1h1.5l-1.6-.2c1.5-.2 3.5 0 4.8-.3-1-.2-3 0-4.2 0q-1.2 0-1.8-.3h-.2l-1 .2q-1.7 0-3.2-.3h2l1.8-.1h.2q-.8-.4-1.8-.6l.8-.1 2.4-.3H547l-.3-.1h-3.3l-.3-.2-.7.1q-.8.2-1.7.1v-.1l.3-.1 2-.4h-2.2l-.3-.6c0-.2-.6-.2-.6-.4l1.6-.3q-.1-.3-1-.4h-.5q-.3-.4-1.3-.7l-.2.1q.5.3.2.5h-1.1q-.2-.3-.1-.4v-.2h-.5v-.2l9.2-.1h3.1l.8-.1q1.3 0 2.3-.2-.3-.3-1.1-.2h-5.2l-.1-.1 12.7-.5-13-.3-7.4-.2h.5l-.6-.2 1.2-.2h.7q-.7 0-.7.3l2-.3 2.4-.2h.3l4.6-.5h.1c.8 0 .8-.1 1.3-.3l-1.4-.2q.7 0 1.2-.3l-1.2-.1c.6-.2 4.3-.3 5.4-.4 1.6 0 5.5-.3 6.3-.7-2.7 0-7-.5-8-.4h-1.9l-.3-.2 1-.2-1.3-.2-4.4-.5q1.3 0 2.2-.2-1 0-2-.3.3-.1.2-.4l-5-.2q-1.7-.1-3.2-.4l1.5-.5h1.4q-.6-.3-2-.4h.1l-.7-.1.1-.1c2.5-.5 4.6 0 7.2-.3l-.1-.3h1l.4.2c.7 0 .7-.2 1-.3l-.2-.1h-7.8q-.1-.2-.6-.3h-.6l-1.1.2c-.5-.1.1-.2-.6-.2l-.7.1h-1.5l5-.2h4.4l4.4-.2h1.3l.2-.2-4.9-.1h.2l-.1-.1h-.8l-.7-.2h-2.8c.8-.2 1.6 0 1.4-.5h1.4l-.5.2h1.2l1.1-.1q1 0 1.4.3h1l3.1-.4q0-.2-.7-.4h-.5q-.7 0-1.2.3c-.5-.2.2-.3-.6-.3l-.7.2-1.5-.1h-2.2l-.8-.1.9-.3c4.2-.1 9.7.3 12.7-.3h-2.1q-.3-.2-1-.3l-.5.2h-.4l-.5-.3h-.2l-1 .4q-.9 0-1.6-.2l.4-.2h-2.8l.3.2 1-.1h.3q.3 0-.2.3h-2.2l-.4-.3h.4l.1-.2-.9-.5c1.3 0 3.2 0 4.2-.3l-1.5-.1-1.7-.5q-1-.2-2.1 0l-2.7-.1 1.9-.2c2.2-.2 5 0 7.2-.3v-.4l.5-.1 1-.3h-3.9l.4-.2-.5-.2h-.9l.7-.2 1.5.1h1.8l-.9-.2 1.4-.1 1.6-.2 1.2-.2.9.1c.6-.2 2.8-.8 2.5-1.1l-.6-.3.9.1-.2.2h.3l.7-.2 1.5.2 1.8-.1-1-.2 1.3-.1h.1q-.1.1 0 .4h2v-.2l-.6-.1-.5.1h-.5l.2-.3 1.1-.1 1.2-.2.9.2c.6-.2 2.8-.9 2.5-1.2l-.6-.3.5-.2h-.7v-.2h4.1l-.4-.2h.2c2.9.3 1.2.6 1.7 1l2-.1v-.2h-1.6l.3-.3-1.2-.5h.4q1.7 0 3-.3m-73.5-22 1.8.3 1-.1v-.3l.4-.1h1l.3.3h.7q-.3 0-.4-.3h1.7c.6.2.8.2 1.5.1q2.2-.2 4.4 0l.4.2q1.9-.4 4-.4c2.3.1 14 0 19-.1l-7 .7h-7c-.9 0-.5-.4-1.5-.3l-.8.1h-3.9l-.6.5h-3v.1l-1.6-.1-.5-.1h-2.2l-1 .2h-1.2l-.4-.3h-.5v.2l-1.1-.2-.6.2-.5-.1q-.6 0-1 .3h-.2V27l-1 .2-.3-.1.1-.4zM35.4 44H35zl1-.2-.2-.2h-1.9l1.4-.1q.9 0 1.2.2v.2zm-1.2 3.2H34m.7-.3h-.3l-.4-.1zm39.2 27q-.5 0-.6-.2l1-.1.5.1h-.3c-.5.1-.4 0-.6.2m2.2 0-.5-.2h-.4.9l.4.2h.2v.1zm2.4.2h-.4v-.2h1.1l-.2.2zm1.7-.1-.2-.1h.8zm2.6-.2h-.5l2.8-.4q.4 0 .7.4zm7.2 0h-.6v-.3h.2l.9.1.6.1zm450.7 9.9-7 .7H527c-.9 0-.5-.3-1.5-.3l-.8.2h-.6q-1.7-.2-3.3 0-.5.1-.6.4l-.5.1-2.2-.1h-.3v.1l-1.6-.1-.5-.1h-2.2q-.6 0-1 .3h-1.2l-.4-.4h-.5v.2l-1.1-.1h-1.1q-.6 0-1 .3h-.2v-.3l-1 .2-.3-.1.1-.4V84q.8.3 1.8.3l1-.1v-.3l.4-.1h1l.3.3h.7l-.4-.2.2-.1h1.5c.6.2.8.2 1.5.2l4.4-.2q0 .2.3.3 2-.3 4.1-.4c2.3.1 14 0 18.9-.1m-1.5-29c-1.9-.3-5.4 0-7.3 0H531l-.5-.1.9-.2.5-.1 13.5-.2zm7.3-1.3-.1.2h.2l-.8-.1z"/><path fill="#fc6b7e" d="M600 38.1V38c-1.4-.2-3 0-4.6-.2l-.2-.1-.5.1-1.5.1-.4-.1.3-.4q0-.2-.9-.5l-1 .3h-.4l.4-.4h-.4c-1.4 0-3.3 0-4.5.3l-1 .2h-1l-1.8-.5c-1.3-.1-5.6.2-8-.2q-.7 0-.7-.3c1.4-.6 5.1-.3 6.9-.6l-2.9-.7.2-.1 1.6-.1h1.6l-1.6-.2c1.4-.2 3.5 0 4.7-.3-1-.2-3 0-4.1 0s-1.3-.1-1.9-.3h-.1l-1.1.2-3.2-.2.3-.2 1.8.1 1.7-.1h.3q-.8-.4-1.8-.6l.7-.1 2.5-.2c-.7-.2-2.2-.1-3-.1h-4.9l-.3-.3-.7.1q-.7.2-1.6.1l-.1-.1.3-.1 2-.4h-2.2l-.3-.6c0-.2-.5-.2-.5-.4l1.3-.2.2-.1c-.2-.2-.2-.2-1-.4h-.5l7.6-.4-8.5-.1-.3-.1h-1.3.1l-.5-.2h-.1l9.2-.2h3.1l.9-.1q1.2 0 2.3-.2-.5-.2-1.2-.2h-5.3c.6-.2 10.7-.5 12.7-.6L574 28l-7.4-.2h.4l-1.1-.3 5.4-.3c1.6 0 5.4-.3 6.3-.7l-.2-.1c-2.6 0-6.8-.4-7.9-.4h-1.9l-.3-.2 1-.1-1.2-.3-4.5-.5 2.3-.1-2-.3q.1-.2 0-.4c-1.3-.2-3.3-.1-4.9-.2l-3.2-.4 1.5-.5h1.1l.3-.1c-.3-.2-1.8-.3-2.6-.4l.1-.1c2.6-.6 4.6 0 7.3-.3l-.2-.3h1l.5.2q.7 0 1-.4h-15.2l.4-.2 6.5-.2h4.5l4.5-.2h1.2l.3-.2c-2-.3-4.3.3-6.4-.4h-3c.8-.3 1.8 0 1.6-.6h1.4q-.1.2-.5.3h1.2l1.2-.1q1 0 1.4.3l.9-.1c1-.1 2.4-.1 3.2-.3q-.1-.3-.8-.4h-.5l-1.2.2c-.5-.1.2-.2-.6-.2l-.6.1h-1.5l-2.3-.1h-.7c.2-.2.8-.2.8-.3 4.2-.2 9.7.3 12.8-.3l-.1-.1h-2q-.5 0-1-.3l-.5.3h-.5l-.5-.3h-.2l-1 .3H566l.4-.3q-1.2-.2-2.6 0h-.2l.3.2 1-.1h.4l-.2.2h-2.3l-.4-.2h.4l.2-.2-1-.5c1.3 0 3.2 0 4.3-.3l-1.6-.1-1.7-.5q-1-.2-2-.1h-2.7l1.8-.2c2.2-.2 5 0 7.3-.3V16h.4l1-.3-.3-.1H565l.4-.2-.6-.2H563c.7-.3 2.4-.2 3.5-.2q1.1 0 1.8-.2l-.5-.1c-1.8-.4-5.6-.1-7.6 0h-1.7l-.5-.1.3-.1 1-.2c.8-.1.6-.2.7-.5 1-.2 2.7-.1 4-.2l-.4-.2 1.5-.2c1.8-.2 2.5.2 4 .2 1.8.1 3.8-.4 5.7-.1l-.2.2h.3l.7-.2 1.5.1h1.8l-1-.2.1-.1h1.2l1.9-.2 1.2-.2.8.1c.7-.2 2.8-.8 2.5-1.1l-.6-.3.6-.2h-.8V11h4.2l-.5-.2h.2c2.9.3 1.2.6 1.8.9h2v-.2l-.7-.1-.5.1h-.5l.3-.3-1.1-.5h.3l3-.3v-.1q-2.2-.2-4.6-.2l-.2-.2-.5.2h-1.9l.3-.4q0-.4-.9-.5l-1 .3-.4-.1.4-.3h-.4c-1.4 0-3.3 0-4.5.2l-1 .2h-1l-1.8-.4c-1.3-.2-5.6.1-8-.2q-.7-.1-.7-.3c1.4-.6 5.1-.3 6.9-.6l-2.9-.7.2-.2h3.2q-1 0-1.6-.3c1.4-.1 3.5 0 4.7-.2-1-.2-3 0-4.1 0-1-.1-1.3-.1-1.9-.3h-.1l-1.1.2-3.2-.3h2.1L571 6h.3v-.1l-1.8-.5.7-.2q1.3 0 2.5-.2h-4.3l-.2-.1h-3.4l-.3-.3-.7.2-1.6.1-.1-.1.3-.1 2-.5h-2.2l-.3-.6c0-.1-.5-.2-.5-.4q.8 0 1.5-.2c-.2-.3-.2-.3-1-.4h-.5q-.3-.4-1.2-.7h-.3q.5.4.3.6h-.5l-.7-.1v-.5h-.5l-.1-.2 9.2-.2h.3l2.8.1.8-.1q1.4 0 2.4-.3l-1.2-.1h-5.1l-.2-.1 12.7-.6-12.9-.2-8.1-.2-9.4.5c-3.7 0-20.5 0-22.2.3l-1.7.2-1.8-.2c-1.7 0-3 .5-5 .4q0-.3.6-.4l.4-.2h-2.4c-2.5.1-2.9.5-5.4 0h-.1l1.3-.2.1-.1h-.4l-1.5.2c-1.6.3-4 .5-5.8.4q-.7 0-1-.2l.7-.1c-2.6-.2-5.5.6-7.1.4l-.3-.2-3.2.3-.1-.3h-3l-.6-.3h-.8l-3.2.8-.2-.7q-1.5-.2-3.3-.1h-.3l-1.8.4c-1.2-.1-3.2-.4-4.4-.3l-.9.2q-.7 0-1-.4h-1l-1 .4q-.4.2-1.3.2h-.5V.9c-.4-.2-.5-.4-1.2-.5h-2l-4.1.7.3-.4-.3-.1q-1.2 0-2.2.2l-.7-.3h-13L443 .4l-2.2.1-.6.1c-1.1-.3-1.9-.2-3.3-.2q-5.7 0-11.2.5a93 93 0 0 0-8.7-.5q-1.1.8-3.5 1h-2c-1.2-.3-2-.7-3.4-.8-1.7.3-1.7 1-4 .8l-.6-.1.4-.2h-.4l-1.8.4-.2-.1c.3-.2 1-.4.9-.6l-1 .3h-.6l.2-.3h-.5l-.2.3h-.5l-.6-.4c-2.5 0-3.6 1-6.4.6.1-.2.7-.3.8-.3l-1.1-.9h-2.8a13 13 0 0 0-3.5.6l-.2.1-1 .3-.2.3q-.3-.4-1-.5h-.8l-.2.1q.8.2 1 .4h-.4l-1-.2q-.4 0-.3.3h-.4l-1.5-.4h-.4q0 .3-.3.3-1.7-.6-4.5-.9-1.4 0-2.7.2c-.5.4 1 .5-.9.9-.6-.2-.3-.4-.9-.5q.2.4-.3.6-.8 0-1.1-.3-.5.1-.4.4h-.4v-.2l-.3-.4c-.6.2-1 .6-2 .8q-.6 0-.6-.3l-.2-.5-.3-.1q-.3.3-.3.5h-.3l-.5-.4c-.7.2-.4.6-1.1.7h-.1v-.3l-1 .4q-.7-.1-1.3-.6h-.4l-.2.3c-1.5-.1-2.5-.6-4.1-.4-.6.3-.6.6-1.4.8h-6.4l-3.7-.2-2.5.2c0-.4 1.2-.3 0-.8h-1.3c-.8.4-.2.9-1 1.3h-.7v-.2q-.3 0-.4-.3h-1.5l-1 .1h-.6v-.4l-23.4.4-7.1-.2h-10l-30.8.2-25.5.1-26.2.2c-4.3-.1-23.9-.6-26.5-.4q-.8 0-1.4.3h-.6v-.2c-2.7-.2-5.6.3-8.5 0l-3.1.1c-1.5.2-3.3-.3-5.2-.1l.6.2c-2.6 0-4.8-.6-6.7-.4l1.8.4-4.2-.1c.8-.2 1.1 0 2-.3H158l-.7.4c-1.3 0-4 0-4.7.3h-.2l.2.2c-.6 0-.6 0-1-.2.3-.3 1-.2 1-.6l-.4-.1h-.3l-.8.4-.9-.1H149q-.3-.4-1-.6-1 0-1.6.2h-.3l.7.2-.4.2h-.5V2h-.3l-.5.3h-.3l-.1-.2-.4-.3h-.5l-.2.1-.5.3c-.8 0-.7 0-1.3-.2 0-.4-1.2-.6-1.9-1h-.3q0 .4.7.7h-.4l-.3-.1-1.8-.2h.2l.7.3-.3.1h-.4l-.6-.4-1.2.1.8.2-.2.1-.1.2h-.7l1.6.1-1.5.1c-.9 0-2.2-.3-3-.1l-.8.1h-1.9l-.3-.4h-.4l-.4.1.2.2h-.5l-.5-.2-1.3.2h-.5V2c-.2-.2-.2-.5-1-.7L125 1c-.8 0-1.2-.3-2.1-.3l-.3.2c1.2.3 1.4 0 2.7.6l-.1.2h-.5c-.4-.2-.3-.2-1-.3h-.6v.3l-.1.1-.7-.4h-1.9c-3.3-.3-12.2-.3-15.8-.1l-1-.2h-.1l-1.8.2h-5.1c-.7.1-.7.2-1 .4h-1.5c-.5.1-.6.2-1.3.2l-.2-.2h-3.1q-1.5 0-2.8-.2h-6q-.5 0-.3-.3h3.4l-1-.1h-2.3l-5-.1h-.7l-.3.1-.8-.2h-.9l-1.2.4-1-.1.5-.2-.2-.1h-1.2v.3l-.3.1-1.7-.1q.5 0 1-.3-.8-.2-2-.2v.4h-1l.1-.3h-.3l-1.5.3.6-.3h-.1c-2-.2-4.5.2-6.3.3l-.5-.2-1.6.4.1.2 1.6.1q.2.2-.1.3h.3l.9-.3h3.8q-.2.3-.6.4h.9v.1l-2.2.1h-.6V2l-.2-.2-.8.3c-1.5 0-1.6 0-2.7-.3l.1.2a19 19 0 0 1-4.4 0l-.5.2.2.1q1.8 0 3.5.3c2.5.3 7-.1 9.3.3l.4.7-1.5.1H63h.3l1-.2-.1-.2h-.5c-1.4.1-1.7-.1-3.5.2l-2.2.2h-.4l.3.2h.5l4.3.3-.2.1h8.7l15.2.4H92q1.4.3 2.8.2 8 0 15.8.3h7.1q.1.3-.3.4c-1.2 0-1.2-.1-2.1-.2l-3.8.3-2.7-.1h-6.1l-.6.2h-.3l-.4-.2h-.5l-.3.4h-.9v-.4h-1.2c-.2.2-.2 0-.3.3h-.5l-.5-.3H96q-.5 0-.5.2c-.8 0-.3-.3-1.2-.3l-.4.3q-.5 0-.6-.3l-.5.4H92l.2-.3h-.6c-.5.2-.8.4-1.7.4h-.4l-.5-.4h-.5q-.3.2-.2.3-.9 0-1.5-.4h-.3V6h-2.7q-1 0-1.4-.2l-.1-.2h-.9l-.3.4h-.4l-.2-.1-.5-.2-.9.3h-1.5v-.3a54 54 0 0 0-9 0q-.9-.3-1.9-.3H63l-.3.2.9.3-.1.2H60v.2l3.7.5c-1.6 0-1-.2-2.5 0l-.1.1q1.5.2 2.8 0l.3-.3c1.5.2 1.6.6 3.5.4h1.5v.2q-1 .2-2.3.1c.6.3 2.7.5 2.7.7-1 .2-2.6.1-3.8.1h-1l-.1.1.4.2-1.2.2H63q.3-.3 1-.4L62.5 8l-2.3.1h-8.5v.2q.2.2-.1.4h-1.1l1-.2-.6-.2h-2.1q-.7.3-1.6.3l-.2.2h1.6l-1 .4a10 10 0 0 1-3.8 0q.1.3 1.3.5h1.2l2.1.3c-1 .2-2.8.3-3.2.7 1.2.3 3.7.4 5.1.4h.8l.4-.1h.7l-2 .4h.2l5.2-.1h.4v.2h-4.4l-.3.1h2.1c1.5 0 3.5.2 4.9.4-3.2.4-8-.6-10.6 0l.7.2c1.7 0 3.9-.2 5.5 0h.2l-.2.1-.6.1.4.1.4.1h-4.4l1.4-.1v-.1q-1.6 0-2.6.2h.3q3.4.4 6.9.5l2.1.3h1.4l.3.1q0 .3-.7.4h-.3l-.8-.2-.4.1-1.3.1-1.2.4L53 14l-1.8.1h-.3c1.6.4 3.8.1 5.5.4-1.6.4-5 .1-5.6.8 2 .5 13.5-.4 15.2.6l-.3.1h-4.3q-5.6.2-11.3 0c-2.8 0-5.9-.8-8.5-.6.6.3 3.5.7 4.8.8l1 .5h-1.7l1.7.5 1 .2c-.2.3-.7.6-.6.9l2.5.5v.2c-3.4.7-13.4.1-15.4.7 3.6.5 9.3-.2 13.3.8 3 0 8 0 10.5.4l.4.3h2-.2l-2.1.1c-1.9 0-3 .2-4.6.3-1.7 0-2.6-.3-4.5-.1 1.6.2 4.3.2 5.5.5l-1 .2c-.1.3 1.5.5 1.6 1-1.4.2-3.2-.1-4.7 0v.2q.2.3-.7.5c-.5.1-1.6.2-2.1.1-1.7 0-2.6-.4-4.6-.4h-8.8l-.6.2.6.3h-.1c.7 0 2 .1 2.3.3v.1c.2.4 1.4.6 2.3.8l.1.1c-.4 0-1.4.1-1.6.3h1.9q-.5.2-.2.4h-.3l-1 .1.7.2c1.1.2 1 .7 2.8.6h1q1 0 1.7.2l-2.5.3 1.6.3h1q.6-.2 1.3-.2 1.3 0 2 .4h.6l.7-.2h.4l2.9.2h-.2.7l-.3.1h-2l-.2.1.5.1h-.1.6c-1.1.4-3 .3-4.3.6 1 .2 2.3-.1 3.4.1h-.4l-.7.2.8.2-.2.2q-2.3.2-4.8.1h-.6l-.2-.4h-.4c-.4.2.2.3-.4.6h-.6q-.3-.1 0-.2l-.3-.1h-.4v.3c-2 .2-3-.3-4.7.3l1.2.2v.1c-2.3.2-9.8-.5-10.9-.3 2.2.3 11 .5 12 .8 1.2.3 4 0 4.3.4H43l.2.2h.9q1-.3 2.1-.3h.2q.2-.2.7-.3 1.8 0 3.3.3l1.5.3a22 22 0 0 1-4.2 0l-.5.2.1.1 3.6.3h2.2l-.2.2c2 .3 2.5.2 4 .6l-1 .1-2.2.2h-.4l.3.2h.5l4.3.3-.2.1 3.6.1H67h-.2c1 .3 2.6.3 3.8.5-1.6 0-1-.2-2.5.1H68q1.5.3 2.8.1l.3-.3c1.5.1 1.6.5 3.5.3H76v.3h-2.3q.6.3 1.5.4h-2v-.2a54 54 0 0 0-9 0q-.9-.3-1.9-.3h-3.8l-.3.2.9.3-.2.2h-3.2v.2l1.8.3h-2l-1.6.3h-.2l1.6.1q-.2.3-1 .4a10 10 0 0 1-3.8 0q.1.3 1.3.5l.4.1c.5 0 .5 0 .8-.2l1.6.4-3.8-.2h-3.1l.1.2h-.5q.2.3-.1.5H46l1-.2-.6-.2h-2.1q-.7.3-1.6.3l-.2.2h1.6l-1 .4a10 10 0 0 1-3.8 0q0 .3 1.3.5h.3l.9-.1c.8.3.8.3 2 .4-1 .2-2.7.3-3.1.7 1.1.3 3.7.4 5.1.4h.8l.4-.1h.6q-.7.3-1.8.4l5.3-.1h.4v.2h-4.4l-.3.1H49c1.5 0 3.5.2 4.8.4-3.1.4-7.9-.6-10.5-.1l.7.3c1.7 0 3.9-.2 5.5 0h.2l-.2.1-.6.1.4.1.4.1h-4.4l1.4-.1-.1-.1q-1.3 0-2.5.2h.3c2.3.4 4.5.3 6.9.5l2.1.3h1.4l.3.1q-.1.3-.7.4h-.3l-.8-.2-.4.1h-4.6l2 .4h-1.7q-1-.2-1.8 0h-.4c1.6.4 3.9.1 5.6.4-1.6.4-5 .1-5.6.8 1 .2 4.4.1 7.7 0v.1l1 .2-.4.5h-9c-2.8 0-5.9-.9-8.5-.7.6.3 3.5.7 4.8.8l1 .5h-1.7l1.7.5 1 .2-.3.3-2.1.2 1.8.2v.2l2.5.5v.2c-3.4.7-13.4.1-15.5.7 3.7.5 9.3-.2 13.4.8 3 0 8-.1 10.5.4l.4.3h2-.2l-2.2.1c-1.8 0-2.9.2-4.6.3s-2.5-.3-4.4-.1c1.2.2 2.9.2 4.2.3h-8l-.5.2.6.3h-.1c.7 0 2.1.2 2.3.4.2.4 1.4.6 2.3.8l.1.1-1.6.3H46c-.5.1-1.7.2-2.1.1-1.7 0-2.7-.4-4.6-.4h-8.8l-.6.2.5.3c.7 0 2 .1 2.3.3v.1c.2.4 1.4.6 2.3.7v.2l-1.5.2h.4l1.5.1q-.5.2-.2.4h-.4l-1 .1.8.2c1 .2 1 .7 2.8.6h.9q1 0 1.8.2c-.6.2-1.7.2-2.5.3l1.6.3h1q.5-.3 1.3-.2 1.2 0 2 .3l.4.1h.1l.8-.2h.4l2.9.2h-.2.7l-.3.1h-1.6q-1-.1-2.3.4l1 .1-1.8.1c-3.2 0-8-.5-8.8-.3 1.7.3 8 .5 10.8.7H45l.8.3-.2.2q-2.3.2-4.8.1h-.7V59h-.5c-.5.2.2.3-.4.6h-.6c-.2-.2-.2 0 0-.2l-.3-.1H38v.3c-2 .2-3-.3-4.7.3l1.2.2v.1c-2.3.2-9.8-.5-10.9-.3 2.2.3 11 .5 12 .8 1.2.3 4 0 4.3.4h-1.3l.2.2h.9q1-.3 2.1-.3l.2-.1.6-.2q2 0 3.3.3c1.4.3 2 .5 3.8.7-.3.2-1.2.2-1.2.4 2.1.3 2.6.1 4.2.7h.3c.7-.2 1-.3 2-.3.8 0 .8 0 1.3.2q-.1.3.5.5h1c.3.2-.8.3-.4.5h1l.6-.5c1.5-.5 3.7-.2 6.2-1 1.7-.3 3 .1 4.6 0q1-.1 1.3-.4h2.2l-.2.1 1.7.1h.4l-.1-.1h1l2.9.3h1c-.3.3-1 .2-.5.5l.7.3h.5q1-.6 2.8-1l2.3.1.3.1.7.6.5.1.5-.3c1.3 0 3.5-.2 4.7 0q.7 0 1 .4l1.8-.2h.6l.2.1.4.2-.3.2q-.5 0-.6-.3l-.5.5h-.6l-.2-.1.2-.3H94q-.5.4-1.7.4h-.5l-.4-.4h-.5q-.3.2-.2.3-.9 0-1.5-.4h-.3v.4h-2.7q-1 0-1.4-.2l-.2-.1h-.8l-.3.3H83l-.2-.1-.5-.2q-.1.2-.9.3H80v-.3a54 54 0 0 0-9 0q-.9-.2-1.9-.2H65l.9.5h-.2c-1.1.2-2 0-3.2.2v.1c.8.3 2.5.3 3.7.5-1.6 0-1-.2-2.5 0l-.1.2h2.8l.3-.3c1.5.1 1.6.5 3.5.3h1.5v.2q-1 .3-2.3.2c.6.2 2.7.4 2.7.6-1 .2-2.6.1-3.8.1h-1l-.1.1.4.2-1.2.2h-.9q.3-.2 1-.3-.7-.3-1.6-.3l-2.3.1h-.2q-2.4.2-4.8 0h-3.1l.1.1H54q.2.4-.1.5l-.5.1-.6-.1 1-.2-.6-.1h-2.1l-1.6.3h-.2H51c0 .3-.6.4-1 .5a10 10 0 0 1-3.8 0q.1.3 1.3.5l.3.1c.6 0 .5 0 .9-.2.8.3.8.3 2 .4-1 .2-2.7.4-3.1.7 1.1.3 3.7.5 5.1.4h.8l.4-.1h.6l-1.8.5q2.7 0 5.3-.2h.4v.2c-1.2.2-3 0-4.4 0l-.3.2h2.1c1.5 0 3.5.1 4.8.3-3.1.4-7.9-.6-10.5 0l.7.2c1.7 0 3.9-.2 5.5 0h.2l-.2.1-.6.1.4.1.4.1H52l1.4-.1-.1-.1q-1.3 0-2.5.2h.3c2.3.4 4.5.3 6.9.5l2.1.4h1.7q-.1.3-.7.4h-.3l-.8-.1h-.4l-1.3.1q-.9.1-1.3.4l-1.7-.2q-1 0-1.8.2H53c1.6.3 3.9 0 5.6.3-1.6.4-5 .1-5.6.8 2 .5 13.5-.4 15.1.7h-4.5l-11.3.1c-2.8 0-5.9-.8-8.5-.7.6.4 3.5.7 4.8.8l1 .5H48l1.7.5 1 .2q-.6.4-.6.9l2.5.5v.2c-3.4.7-13.4.2-15.4.7 3.6.5 9.3-.2 13.3.8 3 0 8 0 10.5.4l.4.3h2-.2q-1 .2-2.2.1c-1.8 0-2.9.2-4.6.3S54 78.8 52 79c1.6.3 4.3.2 5.5.5v.1h-1c-.2.4 1.5.7 1.6 1-1.4.3-3.2 0-4.7.2v.1q.2.3-.8.5l-2 .2c-1.7-.2-2.6-.4-4.6-.5h-8.8l-.6.2.5.3c.7 0 2 .1 2.3.4s1.4.6 2.3.8l.1.1-1.6.3H42q-.5.2-.2.4h-.4l-1 .1.8.2c1 .2 1 .7 2.8.7l1-.1q1 0 1.7.2c-.6.2-1.7.3-2.5.3l1.6.3h1q.5-.2 1.3-.2 1.2 0 2 .4h.5l.8-.1h.4l2.9.1h-.2.7l-.3.2h-2.2l.5.1h-.1.6c-1.1.4-3 .3-4.3.6 1 .2 2.3-.1 3.4.1h-.4l-.7.2.8.2-.2.2q-2.3.3-4.8.2L47 87h-.5c-.5.1.2.3-.4.5h-.6q-.3 0 0-.2h-.7v.3c-2 .1-3-.4-4.7.3l1.2.1v.1c-2.3.2-9.8-.5-10.9-.3 2.2.4 11 .6 12 .8 1.2.3 4 0 4.3.4h-1.3l.2.2h.9l2.1-.3h.2l.6-.3q2 0 3.3.3c1.4.3 2 .6 3.8.7-.3.3-1.2.2-1.2.5 2.1.2 2.6 0 4.2.6h.3c.7-.2 1-.3 2-.3.8 0 .8 0 1.3.3q-.1.3.5.4h1c.3.2-.8.4-.4.6l1-.1q.5-.2.6-.5c1.5-.5 3.7-.2 6.2-1 1.7-.2 3 .1 4.6 0s1.3-.6 2.7-.6h.8q.3.3-.2.4H82l-.6-.2.3-.1h1.1v.3h.3q1.4 0 2.7.3l.8-.1h.2c-.3.4-1 .2-.5.5l.7.3h.5c1-.4 1.8-1 3.8-1 .8 0 1 0 1.6.2l.7.7h.5l.5-.3c1.3 0 3.5-.2 4.7 0q.7.1 1 .4l1.8-.2h.6l.2.2.7.2c.7 0 .8 0 1.4-.2.5 0 .4.1.6.2l.4-.1h.8l.3.3c1.4 0 7-.2 7.6-.4l1-.2c1.2.3 1.3 1.3 1.6 1.8h.3q1.4-.5 2.1-1h.2q.3-.3.1-.6l.2-.1.9.1q.7.2 1.8.2l-.4.3h1.7l.6-.2 1.5.2h.5l.1-.5h.4l.2.5h.3q.8 0 1.5-.4 1.2.1 2 .4l.1-.3q1.5 0 2.5.3h.4q.8 0 1.2-.3l.5.1 1.6.1.9-.1h.7l1.1-.4h1.8l1.2.2h.3l-.2-.4 1.2.4h.3q1-.5 2.7-.4l1 .1c-.3.2-1 .5-1 .7h.8V91h.3l.3.2c.6 0 .6 0 1-.2q.8 0 1.4.3l.8-.1c.4-.3 0-.6 0-.8l1.2.3h.7l.6-.3c.2.2.2.3.8.5h.5l.2-.3c.6 0 .5 0 .6.2q.2 0 .3.3l1.6.2c.9 0 1.2-.2 1.7-.3h4.5l.3-.1q.1-.2-.2-.5l-.6.3q-.5-.1-.4-.3h2.9l.6.1-1.3.3h3.3l.8.2h.6l-1.5-.5 1.2-.2 1.8.2h.1l-1.2.2q0 .2.5.3c1.1 0 1.3 0 2 .3h.1l.4-.1.6-.2 5.4.1 3-.2 1.6.5.7-.2h.4l-.7.4q-1 .4-.5.9h1.1l1 .5-.3.1-.3.2.7.1 1-.4.8-.3c-.4-.1-.3-.4-.6-.6-.5.2-.2.5-.3.7h-.3q-.7-.4-.2-.7l.7-.5-1.3-.4.2-.1 1.2.1h.2l2-.3h3.6q1.2.2 1.4.6l-.2.6 1 .2c.3-.3-.9-.4.6-.7 1.7.2 3 .6 5 .5 1.4-.4 2-.9 3.4-1.3l1.7.3h.3l2.4-.2c1.3.3.6 1.4 2 1.9 1.2-.5-.3-1.4 1.5-1.9h.6l1 .6c.5-.1.4-.3 1.2-.5q1.3 0 2.2.2c.9.2 1.1.4 1.5.7l.6.1q.4 0 .7-.3l3.8.3h-.1l-.3.4h2.2q1.2 0 2.3.3c.6 0 .5-.3 1.2-.3l.2.2h.7q.6-.2.7-.5h.6c.5.3-.3.3.4.5q.7 0 1-.2l-.6-.2h.5q.8 0 1.4.4c.4-.4-.5-.9.4-1.1h1l.7.1h4.1q1.4.1 1.7.5l.5.5h.3l2.2-1.2h1v.1q.1.5 1 .7h.3l2-.3h4.5l.8.3h.2l.7-.1c.5.4 0 1 1.4 1.3h.3l-.4-.2.3-.1c.7 0 .6 0 1 .2-.3.2-.4.2-1.2.3h-1.4l.1.1h2l1 .3q.5-.2.6-.4l.7.2 1-.2q2-.7 5.1-.9 1.6 0 2.5.3l.3-.3q1.2.3 1.2 1l-.4.2-1.7-.1q1 .4 2.7.4.6 0 1-.2.2-.3 0-.7h1q1-.4 2.6-.6l.5.1v.6l.4.2h.5l.1-.1.5-.2q.9 0 1.6.2l2 .4q1 0 1.6-.3l.4-.4h.3l.6.2c1 0 .7-.5 1.8-.3l1.1.3h.3l-.5-.4h.2l2 .8q1.3.2 2.5 0l-1-.1.5-.1 1.4.1 1-.2q-.1-.3-1-.4l.8-.2v-.2h.4q.8.2.9.6l.4.2h.3c.4-.2.2-.2.7-.2q.3.4-.1.7l.2.1h1.5v-.3h-.9l.8-.3.5.1 1.7.2c.8-.2 1-.5 1.7-.7h.5l.2.3h.2l1.2-.3q-.2.2-.1.4c.5 0 .7-.4 1.6-.5l.7.1q.6.3.5.6h1.5l.2-.1 2.5-.4q-.5.2-.5.5 1-.2 1.2-.6h.4c.7.2.3.4.2.7l.7-.2.6.2h.5v-.2l.2-.1.2.2h.3l1.4-.4h2.4l1.7-.5q2.9.4 5.4 1l1.5-.4q-.5 0-.7-.2h.6l3.8.1.1.5h.7c.5-.4.4-.7.5-1h.4l1.8.6 1.6.2q1.4 0 2.2-.4.3-.2 1-.2 1 0 2 .3l1.4.1q-.1-.2.5-.5h1.3v.5h.4q.3-.3 1.1-.5l.4.2c1 0 .3-.3 1.2-.4l.8.3.8-.3.6.1h.3l.7-.5q1.4 0 2.7.3c1.2-.2.6.1 1.6 0l.3-.1h.5q.8 0 1.7.3c1.2 0 0-.4.7-.6q1.4.4 3 .6h.2l-.4-.3q.5-.2 1.4-.2l1.2.3c2 0 2.8 0 4.5-.2h2.4l.7-.3q4 .4 8.2.6l.2-.1-1-.2h2.3l1.1.1h.5l.5.2h1.3l.3.1c2.3.3 4.2.9 7 .6l1-.2-1-.3-2-.4h-.2q-.8-.2-1-.6l1.4-.3c2.9.1 1.7 1.2 4 1.5h.4l-.2-.3c.5-.2.6-.2 1.6-.3 1.2 0 1.4.1 2.3.3q.5 0 .6-.2c.4-.4.7-.5 1.9-.7h.1c-.3.2-.8.4-.7.6h1.5q.2.2-.3.4l-1-.2-2.1.3q1.6 0 3.1.2h.5l.2-.1h.3l.3.3h.5l.7-.3 2.5-.1q.8-.1 1-.4t.8-.4h.5l.3.1q0 .4-.4.7 5.2.3 10.5.3 1.8 0 3.2.3c.8.2.7.2.8.5h1.2q1.4-.4 1.4-1c-.6 0-.8.3-1.4.3-1.4-.5-1.6-.1-3.3-.3v-.2h.7q2 0 3.5-.3l.4-.1q.9 0 1.6.2v-.2l.2.2h.3l.3-.3h.5v.4q1.1 0 1.8.4-.1.2-.7.4l-2.2.1q.8 0 1.3.2l-.5.5h.4c2.4 0 1.4-.2 2.8-.5q-.1.3.4.6c1.8 0 2.5-.3 4-.4h.3l-.1-.1H434v-.2h.3c1-.1 1.1-.3 1.5-.6h.1c.7-.1 1-.2 1.8-.1.3.3 1.1.6 1.2.9v.1h2.7q-.4-.4-1.1-.3l.2-.1h1l-.9-.4h-.3l.5-.2.7.1h.5V93h-1.6v-.1l2-.1.8-.1.2-.3.2.2h.9l.4-.3h1.3l.1-.1q-.7-.2-1.7-.2c-.5 0-1.5 0-1.8.2q-.3 0-.5.3h-.5l-.6-.2q-1 0-1.7.3l-.4-.1-.1-.3q-.8.3-.8.5h-.2c-.6-.4-.9-.3-1.8-.5h-.2q.8-.4 2.3-.6c-2.3 0-2.4.7-5.5.4 2-.3 1.9 0 3.7-.5h1.3l.7-.3c1.5 0 1.9-.2 3.4.1v.1h-.6l-.6.2h2.2l-1.3.3h1c2.3-.2 1.5-.5 4.6-.4q2.5 0 4.4.3.5.2-.2.4t-1.7.3q-.6-.1-.6-.4h-.4l-1.3.1.1.6h1.3q-.3 0-.3.3l1.1.3 1.2-.2h.5q-.1.2.4.4h.7l-.3-.3h1.4l.4-.1c-.4-.3-1.8-.5-2.4-.8l1.1-.2 2.3.2q-.4-.3.2-.6a9 9 0 0 1 3.4.2l-.7.4.7.4h.4c.8-.3.3-.6 1-.9.8 0 1 0 1.7.2l-1 .3q-.3 0 0 .2l1.3.2.5.1h.5q-.5-.2-.4-.5h.7l.9.2q.2-.4 1.5-.6c1.4 0 2.1.3 3.3.3l-.7-.1 1.7-.4c.9 0 1.2.1 1.8.3q1 .2 1.4.6l-.7.1v.1h.6l-.1.2h-1.6q.2.3.6.4h.5l.7-.1 2.4.8q.2 0-.1.3h.4l.8-.1-.4-.4q0-.3.6-.4h2.3l-.3-.2c.5-.3 2.1-.5 3-.7q0-.2.4-.3l.9.2c1-.1 1-.6 2-.9h2.7q.4 0 .4.2-.8.1-1.2.4l1.3.2-.4.2h1.2c1.8.4 2.5.2 4.5.1l.6.2c.5 0 .5 0 .8-.2q.9-.4 2.2-.6h.4c-.1.3-1.2.4-1.5.7 1.6-.3 2 .1 3.4 0q.5-.3.2-.6-.6-.2-1.6-.2l.9-.3 1.8-.7.1-.1c.8 0 .9 0 1.4.2q.2.3-.6.5l.4.1h.7l.7-.3h.3q1.4-.3 2.8-.3v.2l-2.4.4h-.4l.2.1h1c1.8-.1 1.3-.5 2.6-.7l1.3.1h.2q-.9-.3-2.2-.4l-.1-.1.8-.1q0-.2.4-.5l1.7-.2c1.2.2 1 .7 2.3 1h1.5l.6-.2c.8-.3 1.3-.3 2.6-.4q-.5.2-.5.5h.5l.4-.2c.6 0 .3.1.8.3.3-.2 0-.5 0-.7h2.1l1.6-.2-.5.3.3.2c1.6 0 2.2-.4 3.6-.6l-.8.4h.3c.7 0 .8-.2 1.2-.4h.5q-.1.2.2.3h2q.7 0 1-.4h.3l1.4.9 1 .1q1.6 0 2.5-.4c1-.3 1.4-.4 2.9-.4h.5l-.5-.2.2-.1c1 0 1.1 0 1.9.2q2.7 0 5.2-.3h1.2q.7.3.6.5v.2q.1.2 1 .4c2.7.1 6-.2 8.5-.5l-4.4-.1-.1-.2h.4q1.5 0 2.7-.3.8 0 .6-.4l-.6-.2 1.1-.2-1-.3h-.2c.9-.2 1.8 0 2.7-.2l-.4-.2c.1-.3 2-.5 2.8-.7l-.7-.1h-1.5c-2.6-.2-6.2-.4-8.8-.3h-.7c1.7-.4 5.3-.4 7.7-.5l.9.3c1.3 0 1.9-.5 3.3-.6v.1l-.7.1q-.7.1-.8.4l2-.3 2.4-.2.4-.1H562q.4-.3 1.2-.3l.6.1h.6q1.1 0 2-.2l1.4-.2.4.2 1.2-.3-1.3-.2q.6 0 1.1-.3l-1.1-.1c.5-.2 4.2-.3 5.4-.4 1.6 0 5.4-.3 6.3-.7h-.2c-2.6 0-6.8-.5-7.9-.4h-1.9l-.3-.3 1-.1-1.2-.3c-1.4-.3-3-.1-4.5-.4q1.3 0 2.3-.2l-2-.3q.1-.1 0-.4c-1.3-.2-3.3-.1-4.9-.2l-3.2-.4 1.5-.5h1.4c-.3-.3-1.8-.4-2.6-.5l.1-.1c2.6-.5 4.6 0 7.3-.3l-.2-.3h1l.5.2c.6 0 .6-.2 1-.3l-.3-.1h-14.9l.4-.2 6.5-.2h4.5l4.5-.2h1.2l.3-.2c-2-.3-4.3.3-6.4-.4h-3c.8-.3 1.8 0 1.6-.5h1.4l-.5.2h1.2l1.2-.1q.8 0 1.4.3l.9-.1q1.7 0 3.2-.3-.1-.2-.8-.4h-.5l-1.2.3c-.5-.2.2-.3-.6-.3l-.6.2-1.6-.1h-2.2l-.8-.1c.3-.2 1-.2 1-.3 4.1-.1 9.6.3 12.7-.3h-2.2q-.3-.2-1-.3l-.5.2h-.4l-.5-.3h-.2l-1 .4q-.9 0-1.6-.2l.4-.2h-2.8l.3.2 1-.1h.4l-.2.2H565l-.4-.2h.4l.2-.2-1-.5c1.3 0 3.2 0 4.3-.3l-1.6-.1-1.7-.5q-1-.2-2 0l-2.7-.1 1.8-.2c2.2-.2 5 0 7.3-.3v-.4l.4-.1 1-.3h-3.8l.4-.2-.6-.2h-.5l-1.2-.1c.7-.2 2.4-.1 3.4-.2q1.2 0 2-.2l-.6-.1c-1.8-.4-5.6-.1-7.6 0h-1.7l-.5-.1.3-.1 1-.1c.7-.2.6-.3.7-.6 1-.2 2.7-.1 4-.2l-.4-.2 1.5-.2c1.8-.2 2.5.2 4 .3 1.8 0 3.8-.5 5.7-.2l-.2.2h.3l.7-.2 1.5.2q1 0 1.8-.2h-1l.1-.2h1.2q1 0 1.9-.2l1.2-.2.8.1c.7-.2 2.8-.8 2.5-1l-.6-.4.6-.2h-.8v-.2h4.2l-.5-.2h.2c2.9.3 1.2.6 1.7 1l2-.1v-.2h-1.6l.3-.3-1.1-.5h.3q1.7 0 3-.3v-.1q-2.1-.2-4.6-.2l-.2-.2-.5.2-1.5.1-.4-.1.3-.4q0-.3-.9-.5l-1 .3h-.4l.4-.4h-.4c-1.4 0-3.3 0-4.5.3l-1 .1-.4.1h-.6l-1.8-.5c-1.3-.1-5.6.2-8-.2q-.7-.1-.7-.3c1.4-.6 5.1-.3 6.9-.6l-2.9-.7.2-.1 1.6-.1h1.6l-1.6-.2c1.4-.2 3.5 0 4.7-.3-1-.2-3 0-4.1 0s-1.3-.1-1.9-.3h-.1l-1.1.2q-1.7 0-3.2-.3h2.1l1.7-.1h.3q-.8-.4-1.9-.6l.8-.1 2.5-.3h-4.3l-.2-.1H567l-.3-.2-.7.1q-.7.2-1.6.1l-.1-.1.3-.1 2-.4h-2.2l-.3-.6c0-.2-.5-.2-.5-.4l1.5-.3c-.2-.3-.2-.2-1-.4h-.5q-.3-.4-1.2-.7l-.3.1q.5.3.3.5h-1.2v-.6h-.6V59l9.2-.1h3.1l.8-.1q1.4 0 2.4-.2-.5-.3-1.2-.2h-5.1l-.2-.1 12.7-.5-12.9-.3-7.4-.2h.4l-.6-.2 1.2-.2h.7q-.6 0-.7.3l2-.3 2.4-.2h.3l4.6-.5h.2c.8 0 .7-.1 1.2-.3l-1.3-.2q.6 0 1.1-.3l-1.1-.1c.5-.2 4.2-.3 5.4-.4 1.6 0 5.5-.3 6.3-.7h-.2c-2.6 0-6.8-.5-7.9-.4h-1.9l-.3-.2 1-.2-1.2-.2-4.5-.5q1.3 0 2.3-.2-1.1 0-2-.3l.1-.4-5-.2-3.2-.4 1.5-.5h1.4q-.6-.3-1.9-.4l-.6-.1v-.1c2.6-.5 4.6 0 7.3-.3l-.2-.3h1l.5.2q.7 0 1-.3l-.3-.1h-7.8q0-.2-.6-.3h-.5l-1.2.2c-.5-.1.2-.2-.6-.2l-.6.1h-1.5l4.9-.2h4.4l4.5-.2h1.2l.3-.2-5-.1h.3l-.2-.1h-.7l-.8-.2h-2.7c.7-.2 1.5 0 1.3-.5h1.4l-.5.2h1.2l1.2-.1q1 0 1.4.3h.9l3.2-.4q-.1-.2-.8-.4h-.5l-1.2.3c-.5-.2.2-.3-.6-.3l-.6.2-1.5-.1H567l-.7-.1.8-.3c4.2-.1 9.7.3 12.8-.3h-2.1l-1-.3-.5.2h-.5l-.5-.3h-.2l-1 .4q-.9 0-1.6-.2l.4-.2h-2.8l.3.2 1-.1h.4l-.2.3h-2.3q-.1-.2-.4-.3h.4l.2-.2-1-.5c1.3 0 3.2 0 4.3-.3l-1.6-.1-1.7-.5q-1-.2-2 0l-2.7-.1 1.8-.2c2.2-.2 5 0 7.3-.3v-.4l.4-.1 1-.3h-3.8l.4-.2-.6-.2h-.9l.7-.2 1.5.1h1.8l-.8-.2 1.3-.1 1.6-.2 1.3-.2.8.1c.7-.2 2.8-.8 2.5-1.1l-.6-.3.9.1-.2.2h.3l.7-.2 1.6.2 1.7-.1-1-.2h.1l1.2-.1h.1q-.2.1 0 .4h2V41l-.6-.1-.5.1h-.5l.3-.3 1-.1 1.3-.2.8.2c.7-.2 2.8-.9 2.5-1.2l-.6-.3.6-.2h-.8v-.2h4.2l-.5-.2h.2c2.9.3 1.2.6 1.8 1l2-.1v-.2h-1.7l.3-.3-1.1-.5h.3q1.6 0 3-.3m-73.5-22 1.8.3 1-.1V16l.5-.1h.9l.3.3h.7q-.3 0-.4-.3h1.8c.6.2.8.2 1.4.1q2.2-.2 4.4 0l.4.2q1.9-.3 4-.4c2.4.1 14 0 19-.1l-7 .7h-7c-.8 0-.5-.4-1.5-.3l-.7.1h-4l-.6.5h-3v.1l-1.5-.1-.6-.1h-2.2l-1 .2H532l-.3-.3h-.6v.2l-1-.2-.6.2-.6-.1q-.5 0-.9.3h-.2l-.1-.3-.9.2-.3-.1V16M59.1 33.4h-.4zl1-.2-.1-.2h-2l1.5-.1q.8 0 1 .2l.2.2zm-.6 2.9h-.3l-.4-.1zm39.3 27q-.6 0-.6-.2l1-.1.4.1h-.3q-.5 0-.5.2m2.2 0-.5-.2H99h1l.3.2h.3v.1zm2.3.2h-.3v-.2h1l-.1.2zm1.8-.1-.2-.1h.7-.5m2.5-.2h-.4l2.7-.4q.5 0 .8.4zm7.2 0h-.5v-.3h.1l.9.1.7.1zM564.5 73l-6.9.7h-7c-.8 0-.5-.3-1.5-.3l-.8.2h-.5q-1.8-.2-3.4 0l-.6.4-.5.1-2.2-.1h-.3v.1l-1.5-.1-.6-.1h-2.2q-.6 0-1 .3h-1.2l-.3-.4h-.6v.2l-1-.1h-1.2q-.5 0-1 .3h-.1l-.1-.3-.9.2-.3-.1v-.6q.8.3 1.8.3l1-.1v-.3l.5-.1h.9l.3.3h.7l-.4-.2.2-.1h1.6q.6.3 1.4.2l4.4-.2q.1.2.4.3 1.9-.3 4-.4c2.4.1 14 0 19-.1m-1.4-29c-2-.3-5.5 0-7.3 0h-1.2l-.5-.1.8-.2.5-.1 13.5-.2zm7.3-1.3-.2.2h.2l-.7-.1z"/><path fill="#fc6b7e" d="m631 47.2-4.7-.3-.2-.1-.5.2h-1.5l-.3-.1.2-.4q0-.2-.9-.5l-1 .3h-.4l.4-.4h-.4c-1.4 0-3.3 0-4.5.3l-.9.2h-1.1l-1.8-.5c-1.3-.1-5.5.2-8-.2q-.6 0-.7-.3c1.4-.5 5.1-.3 6.9-.6l-2.9-.7.2-.1h3.2l-1.6-.3c1.4-.2 3.5 0 4.7-.3h-4.1c-1 0-1.3 0-1.8-.3h-.2l-1 .2-3.3-.2.3-.1h3.8v-.1l-1.8-.6.7-.1 2.5-.2h-3l-1.3-.1h-3.5l-.4-.3-.7.2h-1.7l.4-.2 1.9-.4h-2.2l-.3-.6c0-.2-.5-.2-.5-.4l1.3-.2h.2q0-.3-.9-.4h-.6v-.1l7.7-.3-8.6-.2-.3-.1h-.3.1-1l-.5-.1-.1-.1c3-.2 6.2 0 9.2-.2h.3l2.8.1.9-.2q1.2 0 2.3-.2l-1.2-.2H605c.6-.2 10.7-.5 12.8-.6l-13-.2-7.4-.2.4-.1-1.1-.2c.5-.2 4.2-.3 5.4-.3 1.6-.2 5.5-.4 6.3-.8h-.1c-2.7 0-7-.5-8-.4h-1.8l-.4-.2 1.1-.2-1.3-.2-4.4-.5q1.2 0 2.2-.2-1.1 0-2-.3.2-.2.1-.3c-1.4-.2-3.4-.2-5-.3l-3.2-.4 1.6-.5h1.3c-.3-.3-1.8-.4-2.5-.5v-.1c2.6-.5 4.6 0 7.3-.3l-.2-.3h1l.5.2q.7 0 1-.3l-.3-.1h-14.9l.4-.2 6.6-.2h4.4l4.5-.2h1.2l.3-.2c-2-.3-4.2.3-6.4-.4h-3c.8-.2 1.8 0 1.6-.5h1.4q-.1.2-.5.2h2.3c.8 0 1 0 1.5.2h.9l3.2-.4q-.1-.2-.8-.4h-.5l-1.2.3c-.4-.2.2-.3-.5-.3l-.7.2-1.5-.1h-2.2l-.8-.1c.2-.1.8-.1.8-.3 4.2-.1 9.7.3 12.8-.3H602l-1-.3-.5.2h-.4l-.6-.3h-.1l-1 .4-1.7-.1.4-.3h-2.8l.3.2 1-.1h.4l-.2.3h-2.3q-.1-.2-.4-.3h.4l.2-.2-1-.5c1.3 0 3.2 0 4.3-.3h-1.6q-.7-.4-1.7-.6h-2L589 26l1.8-.2c2.3-.2 5 0 7.3-.3v-.4l.4-.1q.7 0 1-.3h-3.8l.4-.2-.6-.2h-.5l-1.2-.1c.7-.2 2.4-.1 3.5-.2l1.9-.1-.6-.2c-1.8-.3-5.6-.1-7.6 0h-2.2l.3-.2 1-.1c.8-.2.6-.3.7-.5 1-.2 2.7-.2 4-.3l-.4-.2 1.6-.2c1.7-.2 2.5.2 4 .3 1.8 0 3.7-.5 5.6-.2l-.2.2h.3l.8-.2 1.5.2 1.8-.1-1-.2 1.3-.1c.8 0 1.1 0 1.8-.2l1.2-.2.8.2c.7-.2 2.8-.9 2.5-1.2l-.6-.2.6-.3h-.8V20h4.2l-.5-.2h.2c3 .3 1.2.6 1.8 1l2-.1v-.1l-.6-.2-.6.1h-.4l.2-.3-1.1-.5h.3c1.3 0 2-.1 3-.3l.1-.1-4.7-.2-.2-.1-.5.1-1.5.1-.3-.1.2-.4q0-.2-.9-.5l-1 .3h-.4l.4-.4h-.4c-1.4 0-3.3 0-4.5.3l-.9.2h-1.1l-1.8-.5c-1.3-.1-5.5.2-8-.2q-.6 0-.7-.3c1.4-.6 5.1-.3 6.9-.6l-2.9-.7.2-.1 1.7-.1h1.5q-1 0-1.6-.2c1.4-.2 3.5 0 4.7-.3-1-.2-3 0-4.1 0s-1.3-.1-1.8-.3h-.2l-1.1.2-3.2-.2.3-.2 1.8.1 1.8-.1h.2q-.8-.4-1.8-.6l.7-.1 2.5-.2c-.7-.2-2.2-.1-3-.1h-4.8l-.4-.3-.7.1q-.7.2-1.6.1l-.1-.1.4-.1 1.9-.4H593l-.3-.6c0-.2-.5-.2-.5-.4l1.5-.3q0-.2-.9-.4h-.6q-.3-.3-1.2-.6h-.3q.5.3.3.5h-1q-.3-.3-.1-.4V11l-.5-.2h-.1l9.2-.2h3.1l.9-.1q1.2 0 2.3-.2-.4-.2-1.2-.2h-5.3c.6-.2 10.7-.5 12.8-.6l-13-.3L590 9l-9.3.5c-3.8.1-20.6 0-22.3.3l-1.7.2-1.8-.2c-1.7 0-3 .6-5 .4q0-.3.6-.4l.4-.1h-2.4c-2.4 0-2.9.4-5.4 0v-.1l1.2-.2h.1l-.4-.1-1.5.3c-1.6.2-4 .4-5.8.3l-1-.1.8-.2h-.1c-2.6-.1-5.5.6-7 .4l-.4-.2-3.1.3-.2-.3-3 .1-.6-.4h-.8c-1 .2-2.3.8-3.2.8l-.2-.7h-3.6q-.7.3-1.8.3c-1.2-.1-3.1-.4-4.4-.3l-.9.3q-.7-.2-1-.5l-1 .1-.9.3-1.4.3h-.5V10q-.3-.3-1.2-.5h-2l-4 .7.2-.4-.3-.1q-1.1 0-2.1.2l-.8-.3h-13l-5.4-.1q-1.1 0-2.1.2h-.7c-1.1-.2-1.8-.2-3.3-.2q-5.7 0-11.2.5a93 93 0 0 0-8.7-.5q-1 .8-3.5 1h-2c-1.2-.2-2-.7-3.4-.8-1.7.4-1.7 1-4 .9l-.6-.2.5-.2h-.4c-.7.2-1 .4-2 .4h-.1c.3-.3 1-.5 1-.7l-1.2.3h-.5l.2-.3h-.5l-.1.3h-.6l-.6-.3c-2.5 0-3.6 1-6.3.5l.7-.3s-1-.6-1.1-.8q-1.4-.2-2.8 0a13 13 0 0 0-3.5.5l-.2.2-1 .3-.2.2c-.3-.2-.3-.4-1-.5h-.8l-.2.2q.9 0 1 .3l-.3.1-1.1-.3q-.4.1-.3.3h-.4l-1.5-.3h-.3q.1.1-.4.3-1.7-.8-4.5-1-1.4 0-2.7.2c-.5.4 1 .6-.9.9-.6-.1-.3-.4-.9-.4q.1.3-.3.5-.8 0-1.1-.3l-.4.4h-.4v-.2l-.2-.4q-1 .6-2 .8-.7 0-.7-.3-.2-.2-.2-.5h-.3l-.3.4h-.3l-.5-.3c-.7.1-.4.5-1.1.6h-.1v-.3l-1 .4-1.3-.5h-.3l-.3.2c-1.5-.1-2.5-.5-4.1-.4-.6.3-.5.7-1.4.8h-6.4l-3.7-.2q-1.4 0-2.5.3c0-.5 1.3-.4 0-.9h-1.3c-.8.4-.2.9-1 1.3h-.7v-.1l-.4-.3q-.8-.2-1.5-.1l-1 .1h-.6V11c-.9-.2-20 .3-23.4.3l-7-.2h-10q-15.5 0-30.9.3h-25.5l-26.2.2c-4.2 0-23.8-.6-26.5-.3q-.8 0-1.4.3h-.6v-.3c-2.7-.2-5.6.3-8.5 0-1.3 0-2 0-3.1.2-1.5.1-3.2-.4-5.2-.2q0 .2.6.2c-2.6 0-4.8-.5-6.7-.4q.6.3 1.8.4l-4.2-.1c.8-.2 1.2 0 2-.3h-2.2l-.7.4c-1.3 0-4 0-4.7.3h-.2l.2.2c-.6 0-.6 0-1-.2.3-.3 1-.2 1-.5l-.4-.2h-.3l-.8.5-.8-.2h-1.3q-.3-.3-1-.6-1 0-1.6.2l-.3.1.7.2-.4.1h-.5v-.2h-.3l-.5.3h-.3l-.1-.1-.4-.3h-.7l-.5.3-1.3-.1c0-.4-1.2-.7-1.9-1h-.3q0 .3.7.6h-.6q-.8-.3-2-.3h.4l.6.3-.3.1h-.4l-.6-.3h-1.2c.5.2.2.2.8.2l-.2.2q-.2 0 0 .1l-.7.1h1.5l-1.5.1c-.8 0-2.2-.2-3-.1l-.8.1h-1.9l-.3-.4h-.4l-.4.1.2.3h-.5l-.4-.2q-1 0-1.4.2h-.4l-.1-.2q0-.5-1-.8l-.7-.1c-.8-.2-1.2-.4-2-.4l-.3.2c1.1.3 1.4 0 2.7.6l-.2.2h-.5c-.3-.2-.3-.2-1-.3h-.5v.3l-.2.1-.7-.3h-1.9a138 138 0 0 0-15.8-.2l-1-.2h-.1l-1.7.3-5.2-.1c-.7.2-.7.2-1 .5H125l-1.3.2-.2-.2h-3l-2.9-.2c-1.5 0-4.7 0-6-.2-.4 0-.2 0-.3-.1l3.4-.1h-1l-2.3-.1-5-.1h-.6l-.4.2c-.3-.2-.2-.2-.8-.3h-.9l-1.2.5c-.7 0-.7 0-1-.2l.5-.2-.1-.1h-1.3v.4h-2l1-.4-2-.2v.4h-1l.2-.3h-.4l-1.5.3h-.1l.6-.3h-.1c-1.9-.1-4.5.2-6.3.3l-.5-.1-1.5.4v.1l1.6.1q.2.2-.1.3h.4l.8-.3h3.2l.6.1-.6.4h1q-1.1.3-2.2.1H91v-.2l-.1-.1q-.6 0-.9.3c-1.5 0-1.6-.1-2.7-.4l.1.2a19 19 0 0 1-4.4 0l-.5.2.2.2q1.8 0 3.5.2c2.5.3 7 0 9.3.3l.4.7-1.5.1H94h.3l1-.2-.1-.2h-.5c-1.4.2-1.6-.1-3.4.2q-1 .3-2.3.2l-.4.1.3.1h.5l4.3.3-.2.2h8.7q7.6 0 15.2.3l5.5.1 2.8.1q8 0 15.8.3l7.2.1q0 .2-.4.4c-1.2 0-1.2-.2-2.1-.3l-3.8.3h-7.1l-1-.1h-.7l-.6.3h-.3l-.4-.2h-.5l-.3.3h-.9l.1-.3h-1.3l-.3.2h-.5l-.5-.3h-1.2q-.5 0-.5.3c-.8-.1-.3-.3-1.2-.3l-.4.2q-.5 0-.6-.3l-.5.5h-.8l.3-.4h-.7q-.6.3-1.6.4h-.5l-.5-.4h-.5q-.3.1-.1.4l-1.6-.4h-.3v.3h-2.6c-.8 0-1 0-1.5-.2l-.1-.1h-.8l-.4.3h-.6c-.2-.2-.1-.2-.5-.3q-.2.2-.8.3h-1.6v-.3a54 54 0 0 0-9 0q-.8-.2-1.9-.2-1.9-.2-3.8 0l-.3.1.9.4h-.1c-1.2.2-2 0-3.2.2l-.1.1c.8.3 2.5.3 3.7.5-1.5 0-.9-.1-2.5.1h-.1q1.5.3 2.9.1l.2-.3c1.6.1 1.6.5 3.5.4h1.5v.2H98c.5.3 2.6.5 2.7.7-1.1.2-2.7.2-3.9.1h-1v.1l.3.2c-.4.2-.5.1-1.2.2H94q.3-.2 1-.3-.6-.3-1.5-.3l-2.4.1-.2.1-4.7-.1H83v.1h-.5l.1.1q.1.3-.2.5h-1.1l1-.3-.5-.1h-2.2l-1.6.3 1.5.1q-.2.3-1 .4a10 10 0 0 1-3.8 0q.1.3 1.3.5l.4.1q.5 0 .8-.2c.9.3.8.4 2.1.4-1 .2-2.8.4-3.2.7 1.2.3 3.7.5 5.2.4h1.1l.3-.1h.4q-.7.4-2 .5h.2q2.7 0 5.2-.2h.5l-.1.2c-1.2.2-3 0-4.3 0l-.4.2h2.1c1.5 0 3.5.1 4.9.3-3.2.4-8-.6-10.6 0l.7.2c1.7 0 3.9-.2 5.5 0h.3l-.3.1-.6.2h.5l.3.1h-4.4H82v-.2l-2.6.2h.3c2.3.5 4.5.3 6.9.5l2.1.4h1.7q0 .4-.7.4h-.3l-.8-.1h-.4l-1.3.1-1.2.4q-1 0-1.8-.2c-.8 0-1.1 0-1.8.2h-.3c1.6.3 3.8 0 5.5.4-1.5.4-5 0-5.6.7 2 .5 13.5-.4 15.2.7h-4.6l-11.3.1c-2.8 0-5.9-.8-8.5-.7.6.4 3.5.7 4.8.8l1 .5h-1.7l1.7.5 1 .2c-.2.3-.7.6-.6.9l2.5.5v.2c-3.4.7-13.4.2-15.4.7 3.6.5 9.3-.2 13.3.8 3 0 8 0 10.5.4l.4.3h2l-.2.1h-2.1c-1.9 0-3 .3-4.6.3-1.7.1-2.5-.3-4.5-.1 1.7.3 4.3.2 5.5.6h-1c-.1.4 1.5.7 1.6 1-1.4.3-3.2 0-4.7.2v.1q.2.4-.7.6h-2.1c-1.7 0-2.6-.3-4.6-.4h-8.8l-.6.2.6.3h-.1c.7.1 2.1.2 2.3.4.2.4 1.4.6 2.3.8l.1.1-1.6.3h1.9q-.5.2-.2.4h-.3l-1 .2.7.1c1.1.2 1 .7 2.9.7h.8q1 0 1.8.2l-2.5.2q.6.3 1.6.3h1l1.3-.2q1.4 0 2 .4h.4l.2.1.7-.2h.4l2.9.1h-.1.6l-.3.2h-2.2l.5.1h-.1l.6.1c-1 .3-3 .2-4.3.5l3.4.1H81l-.6.2.7.3H81q-2.3.4-4.8.3l-.6-.2-.1-.2H75c-.4.2.2.3-.3.5H74q-.3 0 0-.2h-.7v.3c-2 .1-3-.4-4.7.3l1.2.1v.1c-2.3.2-9.8-.5-10.8-.3 2 .4 11 .6 12 .8 1.1.3 4 0 4.2.4H74l.3.2h.8l2.1-.3h.2q.2-.2.7-.3 1.8 0 3.3.3l1.5.4a22 22 0 0 1-4.2 0l-.5.1.2.2q1.8 0 3.5.2l2.2.1q-.2 0-.1.2c1.9.2 2.4.1 3.8.5l-.8.1q-1 .3-2.3.2l-.4.1.3.1h.5l4.3.3-.2.2h8.7-.1c.8.3 2.5.4 3.7.5-1.5 0-.9-.1-2.5.1h-.1q1.5.3 2.9.1l.2-.3c1.6.2 1.6.6 3.5.4h1.5v.2q-.9.2-2.2.1l1.4.3-.5.1h-1.5v-.3a54 54 0 0 0-9 0q-.9-.2-1.9-.2h-3.8l-.3.1q.2.2.9.4H90c-1.2.2-2 0-3.3.2v.1l1.8.3h-2l-1.6.3-.1.1h1.5q-.2.3-1 .4a10 10 0 0 1-3.8 0q.1.3 1.3.6h.4l.8-.1c.7.2.8.3 1.6.3l-3.8-.1h-3v.1h-.5v.1q.2.3-.1.4l-.5.1-.6-.1 1-.2-.6-.1h-2.1l-1.6.3h-.2 1.6q-.2.4-1 .5a10 10 0 0 1-3.8 0q.1.3 1.3.5l.4.1q.5 0 .8-.2c.8.3.8.3 2.1.4-1 .2-2.8.4-3.2.7 1.2.3 3.7.5 5.1.4H78l.3-.1h.4l-2 .5h.2l5.2-.2h.4v.2c-1.2.2-3 0-4.4 0l-.3.2H80c1.5 0 3.5.1 4.9.3-3.2.4-8-.6-10.6 0l.7.2c1.7 0 3.9-.2 5.5 0h.2l-.2.1-.6.2h.4l.4.1h-4.4l1.4-.1v-.1l-2.6.2h.3c2.3.4 4.5.3 6.9.5l2.1.4H86q0 .4-.7.4H85l-.8-.1h-.4l-1.2.1-3.4-.1 2.1.4h-3.9v.1c1.6.3 3.8 0 5.5.3-1.6.4-5 .1-5.6.8 1 .3 4.4.2 7.7.1l1 .3-.4.4h-9c-2.8 0-5.9-.8-8.5-.7.6.4 3.5.7 4.8.8l1 .5h-1.7l1.7.5 1 .2-.3.3-2.1.2 1.8.2v.2l2.5.5v.2c-3.4.7-13.4.2-15.4.7 3.6.5 9.3-.2 13.3.8 3 0 8 0 10.5.4l.4.3h2-.2q-1 .2-2.1.1c-1.9 0-3 .3-4.6.3-1.7 0-2.6-.3-4.5-.1 1.2.2 2.9.2 4.2.3l-8 .1-.5.1q0 .2.6.3h-.1c.7.1 2.1.2 2.3.4v.1c.2.3 1.4.5 2.3.7l.1.2-1.6.2H77l-2.1.2c-1.7-.1-2.6-.4-4.6-.5h-8.8l-.6.2.6.3h-.1c.7 0 2.1.2 2.3.4.2.4 1.4.6 2.3.8l.1.1-1.6.3h1.9q-.6.2-.2.4h-.3l-1 .2.7.1c1.1.2 1 .7 2.8.7h1q1 0 1.7.2l-2.5.2q.6.3 1.6.3h1l1.3-.2q1.4 0 2 .4h.6l.7-.1h.4l2.9.1h-.2.7l-.3.2h-1.5q-1.1 0-2.4.3l1 .1-1.8.2c-3.1-.1-8-.5-8.8-.3 1.7.2 8.1.4 10.8.6l-.5.1.8.3h-.2q-2.3.4-4.8.3l-.6-.2-.2-.2h-.4c-.4.1.2.3-.4.5h-.6q-.3 0 0-.2H69v.3c-2 .1-3-.4-4.7.3l1.2.1v.1c-2.3.2-9.8-.5-10.8-.3 2 .4 11 .6 11.9.8 1.2.3 4.1 0 4.3.4h-1.3l.2.2h1l2-.3h.2q.2-.2.7-.3 1.8 0 3.3.3c1.4.3 1.8.6 3.7.7-.3.3-1.2.2-1.2.5 2.1.2 2.6 0 4.3.6h.2c.7-.2 1.1-.3 2-.3s.8 0 1.3.3c.1.2 0 .3.6.4h1c.2.2-.9.4-.5.6l1-.1q.5-.2.6-.5c1.6-.4 3.7-.2 6.2-1 1.7-.2 3 .1 4.6 0q1 0 1.4-.3h2.1-.1l1.6.2.4-.1-.1-.1h1v.1l2.9.3.8-.1h.2c-.3.4-1 .2-.5.5l.8.3h.4c.9-.3 1.5-.7 2.8-1l2.3.2h.3l.7.7h.5l.5-.3c1.3 0 3.5-.2 4.7 0q.7.1 1 .4l1.8-.2h.7l.1.2.4.1-.3.2q-.4 0-.6-.2l-.5.4h-.8l.2-.3-.3-.1h-.3q-.6.3-1.6.5h-.5l-.5-.4-.5-.1q-.3.2-.2.4l-1.5-.4h-.3v.3q-1.2.2-2.7 0-1 0-1.4-.2l-.1-.1h-.9l-.3.3h-.6c-.3-.2-.1-.2-.5-.3q-.1.2-.9.3h-1.5v-.3c-2.2-.2-6.8-.2-9 0L100 72h-3.8l-.3.1q.2.3.9.4l-.1.1-3.3.1v.1c.8.3 2.5.4 3.7.5-1.6 0-.9-.1-2.5.1h-.1q1.4.3 2.9.1l.2-.3c1.6.2 1.6.5 3.5.4h1.5v.2h-2.3c.6.3 2.7.5 2.8.8H98l-.1.2.4.1c-.4.2-.5.2-1.2.2h-.9q.3-.2 1-.3-.7-.3-1.6-.3l-2.3.2h-.2l-4.7-.1h-3.1v.1H85v.1q.2.3-.1.5h-1.1q.4-.2 1-.2 0-.2-.6-.2H82l-1.6.3-.2.1h1.6q-.2.3-1 .4a10 10 0 0 1-3.8 0q.1.3 1.3.6h.4l.8-.1c.8.2.8.3 2.1.3-1 .3-2.8.4-3.2.8 1.2.2 3.7.4 5.1.4l.8-.1h.4l.3-.1h.4q-.8.4-2 .5h.2l5.2-.2h.4v.2c-1.2.2-3 .1-4.4 0l-.3.2h2.1c1.5 0 3.5.1 4.9.3-3.2.5-8-.6-10.6 0l.7.2H87l.2.1H87l-.6.2h.5l.3.2H83q.6-.2 1.4-.2-1.5-.1-2.6.1h.3c2.3.5 4.5.3 6.9.5l2.1.4h1.7q0 .3-.7.5h-.3l-.8-.2h-.4l-1.3.1-1.2.4-1.8-.1h-1.8l-.3.1c1.6.3 3.8 0 5.5.4-1.5.4-5 0-5.6.7 2 .5 13.5-.4 15.2.7H99l-.1.1H83.3c-2.8 0-5.9-.8-8.5-.7.6.4 3.5.7 4.8.9q.8.1 1 .5l-1.7-.1 1.7.5 1 .2c-.2.3-.7.6-.6.9l2.5.5v.2c-3.4.7-13.4.2-15.4.7 3.6.5 9.3-.2 13.3.8 3 0 8 0 10.5.4l.4.3h2l-.2.1H92c-1.9 0-3 .3-4.6.3-1.7.1-2.6-.2-4.5 0 1.6.2 4.3.1 5.5.5l-1 .1c-.1.3 1.5.6 1.6 1l-4.7.1v.1q.2.4-.7.6h-2.1c-1.7 0-2.6-.3-4.6-.3q-4.5-.2-8.8 0l-.6.1q0 .2.6.3H68c.7.1 2.1.2 2.3.4.2.4 1.4.6 2.3.8l.1.2c-.4 0-1.4 0-1.6.2H73q-.6.3-.2.5h-1.3l.7.2c1.1.3 1 .7 2.8.7h1q1 0 1.7.2c-.6.2-1.7.2-2.5.2q.6.3 1.6.4l1-.1 1.3-.2q1.4 0 2 .4h.4l.2.1.7-.2h.4l2.9.2h-.2.7H84l-.2.2h.5l-.1.1h.6c-1.1.3-3 .3-4.3.5l3.4.1-.4.1-.6.1.7.3-.2.1q-2.3.3-4.8.2l-.6-.1-.2-.3h-.4c-.4.2.2.3-.4.5h-.6q-.3 0 0-.2h-.7v.3c-2 .1-3-.4-4.7.3l1.2.1v.2c-2.3.1-9.8-.6-10.8-.3 2 .3 11 .5 11.9.7 1.2.3 4.1 0 4.3.4h-1.3l.2.2h1l2-.2.2-.1q.2-.2.7-.3 1.8 0 3.3.3c1.4.3 1.9.6 3.7.8-.3.2-1.2.1-1.1.4 2 .2 2.5.1 4.2.6h.2c.7-.2 1.1-.3 2-.3s.8.1 1.3.3c.1.2 0 .3.6.4h1c.2.2-.8.4-.5.6h1l.6-.5c1.6-.5 3.7-.3 6.2-1.1 1.7-.2 3 .2 4.6 0 1.5-.1 1.3-.6 2.7-.6l.8.1q.3.1-.1.3h2l-.6-.2.3-.1h1.2v.3l2.9.3h1c-.3.3-1 .1-.5.5l.8.2h.4c1-.3 1.8-1 3.8-1 .8 0 1 .1 1.6.3l.7.6h.5l.5-.2c1.3-.1 3.5-.3 4.8 0q.6 0 1 .3l1.7-.2h.7l.1.2c.3.2.2 0 .7.2.7 0 .8 0 1.4-.2.5.1.4.1.6.3l.4-.2h.8l.3.3c1.4 0 7-.1 7.6-.3l1-.3c1.2.3 1.3 1.4 1.6 1.8h.3q1.5-.4 2.1-.9h.2q.3-.4.1-.7h1.1q.8.3 1.8.2l-.3.3 1.3.1h.3l.6-.3 1.5.3.5-.1.1-.4h.4l.2.5h.3l1.5-.4q1.2 0 2 .4l.1-.4q1.5 0 2.5.3h.4q.8 0 1.2-.2h.5l1.6.2.9-.2h.7q.6 0 1.1-.4l1.8.1 1.2.1h.3l-.2-.3 1.2.3h.3q1-.4 2.7-.4l1 .1q-.7.3-1 .7h.8v-.2h.3l.4.2.8-.3 1.5.3h.8c.4-.3.1-.6 0-.9l1.2.3h.7l.6-.3c.2.3.2.4.9.5h.4l.2-.2h.6l.3.4 1.7.2q1 0 1.6-.3c1.3 0 3.4.2 4.5 0h.3q.1-.4-.2-.5l-.6.2q-.5 0-.3-.3h2.8l.6.1q-.5.3-1.3.4h1c1-.1 1.3-.2 2.3-.1l.8.2h.6l-1.5-.4c.4-.2.5-.2 1.2-.2h1.8l.1.2-1.2.1q0 .2.5.3c1.1.1 1.3.1 2 .4h.1l.4-.2.6-.2 5.4.1 3-.1 1.6.4q.4 0 .7-.2l.4.1-.7.4q-1 .4-.5.8h1.1l1 .5-.3.2-.3.1.7.2 1-.4.8-.3c-.4-.2-.3-.4-.6-.6-.5.1-.2.4-.3.6h-.3q-.6-.3-.2-.7l.7-.5-1.3-.4.2-.1h1.5l2-.1 1.2-.1h2.3q1.2.3 1.4.6 0 .4-.2.7l1 .1c.4-.3-.8-.4.6-.7q2.3.5 5 .5c1.4-.4 2-.9 3.4-1.2q.9 0 1.7.3h.3l2.4-.3c1.3.4.6 1.4 2 1.9 1.2-.5-.3-1.4 1.5-1.8h.6q.7.3 1 .6c.5-.2.4-.4 1.2-.6q1.3 0 2.2.2c.9.2 1.1.5 1.5.7l.6.2.7-.4 3.8.3-.1.1-.2.3h2l2.4.4c.6-.2.5-.4 1.2-.4l.2.3.7-.1.8-.4h.5c.6.2-.3.3.4.5q.7 0 1-.2l-.5-.3h.4l1.5.4c.3-.4-.6-.8.3-1.1h1l.8.1h4q1.4 0 1.7.6l.5.4h.3q.8-.5 2.3-1.1h.9q.1.5 1 .7l.3.1q.7-.3 2-.4h4.5l.8.4h.3c.3-.2.2-.1.7-.2.4.4-.1 1.1 1.4 1.4h.2l-.4-.3.3-.1c.7 0 .6 0 1 .3-.3.2-.4.2-1.1.3H287h.1l2.1.1c.4.1.4.2 1 .2q.5-.1.5-.4l.7.3 1-.3q2-.7 5.2-.9 1.4 0 2.4.3l.4-.3q1.2.5 1 1l-.3.2h-1.7q1.1.3 2.7.3l1-.1q.2-.4 0-.8h1q1-.4 2.6-.6l.5.1v.6l.4.2h.6q.1-.3.5-.2l1.6.1q.8.3 2 .4 1.1 0 1.6-.3.3 0 .4-.3l.4-.1.5.2c1 0 .7-.4 1.8-.3l1.1.4h.3l-.5-.5h.2l2 .8 2.5.1-1-.2h1.9q.6 0 1-.2-.1-.2-1-.4l.8-.1v-.3h.4c.7.2.7.4 1 .7l.3.1h.3l.8-.2q.2.4-.2.7l.2.1h1.5v-.2l-.3-.1h-.6l.8-.3.5.1 1.7.2 1.7-.6.5-.1.2.3h.2l1.3-.2q-.2 0-.2.3c.6 0 .7-.4 1.6-.5l.7.2q.6.2.5.5v.1h.3l.5-.1h.9l2.5-.5q-.5.3-.5.5 1-.2 1.2-.5l.1-.2h.3c.7.3.3.6.3.9l.6-.3.6.2h.5v-.2h.2l.2.1h.3c.9-.1 1-.1 1.5-.4h2.3l1.7-.5 5.4 1 1.6-.4q-.5 0-.8-.2h.6c.8 0 3.2 0 3.8.2l.2.4h.6q.6-.5.5-1h.4q.7.4 1.8.6.6.3 1.6.2 1.4 0 2.2-.4l1-.2q1.1 0 2.1.3l1.3.2q-.1-.3.5-.6h1.3v.5h.4q.3-.3 1.1-.4h.4c1.1.1.4-.1 1.2-.3l.9.3.7-.2h1l.6-.5q1.5 0 2.7.3c1.2-.1.6.1 1.6.1l.4-.2h.4l1.7.4c1.2-.1 0-.5.7-.7q1.4.4 3 .6h.2l-.4-.3 1.4-.1 1.3.2c1.9 0 2.7 0 4.4-.2h2.4l.7-.2 8.2.5h.2l-1-.3h.3l3.2.1h.4l.5.3h1.6c2.3.3 4.2.9 7 .6l1-.2q-.2-.2-1-.2l-2-.5h-.2q-.8-.2-1-.5l1.4-.4c2.9.2 1.7 1.2 4 1.5h.5l-.3-.2c.6-.3.7-.3 1.6-.4 1.2 0 1.4.1 2.4.3q.4 0 .5-.2c.4-.3.7-.5 2-.7v.1c-.3.2-.8.3-.7.6l1-.1.5.1q.1.2-.2.3l-1-.1-2.2.2 3.1.2h1l.3.2h.5l.7-.3 2.5-.1q.8-.1 1-.4l.8-.4h.5l.3.2-.4.7 10.5.2q1.8 0 3.2.4c.8.1.7.2.8.4h1.2q1.5-.4 1.4-1c-.6 0-.7.3-1.4.4-1.3-.6-1.6-.2-3.3-.4v-.1h.7q2 0 3.5-.3l.4-.2 1.6.2v-.1l.2.1h.3q.3 0 .3-.3h.5v.4q1.1.1 1.8.4-.1.3-.7.4l-2.2.2 1.4.1-.6.5h.4c2.4 0 1.4-.2 2.8-.5q-.1.3.4.6c1.8.1 2.5-.2 4-.4h.4-.2l-1.1-.2.3-.1c1-.1 1.1-.3 1.5-.6h.1c.7-.1 1-.2 1.8-.1.3.3 1.2.6 1.3 1h2.6q-.3-.2-1.1-.3l.2-.1h1q-.4-.3-.9-.3l-.3-.1.5-.1h1.2v-.2h-1.6l2-.2h.8l.2-.4.2.2h.9l.4-.2h1.3l.2-.2q-.8-.2-1.8-.2c-.5 0-1.4 0-1.7.2q-.5 0-.6.3h-.5l-.6-.1q-1 0-1.6.2h-.5l-.1-.4c-.7.2-.6.3-.8.5h-.2q-.6-.3-1.8-.5h-.2q1-.4 2.3-.5c-2.3 0-2.3.6-5.4.4v-.1c2-.2 1.8 0 3.6-.5h1.4l.6-.3c1.5 0 1.9-.2 3.5.1v.2h-.6l-.6.1h2.1l-1.3.4h1c2.3-.2 1.5-.5 4.6-.5q2.5 0 4.5.3.4.2-.3.4t-1.7.3q-.5-.1-.6-.4h-.4q-.7 0-1.3.2l.1.5h1.4q-.4 0-.4.4c.5.1.4.2 1.1.2l1.2-.2h.5q-.1.3.4.4h.8l-.3-.2.3-.1h1.5c-.5-.4-1.8-.5-2.5-.8.4-.2.5-.2 1.2-.2l2.2.1q-.4-.3.3-.6a9 9 0 0 1 3.3.3q-.5 0-.7.3l.7.4h.5c.7-.3.2-.6 1-.9q.9 0 1.6.2l-1 .3q-.2.1 0 .2l1.3.3h1q-.5-.3-.4-.4h.8l.8.1q.2-.4 1.5-.6c1.4 0 2.1.4 3.3.3l-.7-.1 1.7-.4c.9 0 1.2.2 1.8.3l1.4.6-.7.1v.1l.6.1-.1.1h-1.6l.6.5h.5l.7-.2 2.4.8q.2.2-.1.3h.4l.8-.1-.4-.3q0-.3.6-.5h2.4l-.4-.2c.5-.3 2.1-.5 3-.7q0-.2.4-.3l.9.3c1-.2 1-.7 2-1h2.7c.5.1.3 0 .4.2l-1.2.5h1.3l-.4.3h1.2c1.8.4 2.6.2 4.5.2l.6.1.8-.1q.9-.4 2.2-.7h.5c-.2.4-1.3.4-1.5.7 1.5-.2 2 .1 3.3 0q.5-.2.2-.5-.6-.3-1.6-.2v-.1l.9-.3q1.3-.2 1.8-.7h.1c.8 0 1 0 1.5.2q0 .2-.6.4l.3.1h.7q.4 0 .7-.3h.3l2.8-.2v.1l-2.4.4h-.4l.2.2 1-.1c1.8-.1 1.3-.5 2.6-.7l1.4.2.1-.1-2.2-.4-.1-.1.8-.1.4-.5 1.7-.2c1.2.3 1 .8 2.3 1l1.5.1.7-.2c.7-.3 1.2-.4 2.5-.5q-.5.3-.5.5h.5l.4-.2c.6 0 .3.2.8.3.3-.2 0-.4 0-.7h2.1l1.7-.2q-.5.2-.6.4l.3.1c1.6 0 2.2-.4 3.6-.6l-.8.4h.3c.7 0 .8-.1 1.2-.3h.5l.2.3 1.2-.2.8.2 1-.4h.3l1.4.8 1 .2q1.7-.1 2.6-.5c.9-.2 1.4-.3 2.8-.3h.3l.2-.1-.5-.2h.3l1.8.1q2.7 0 5.2-.3l1.2.1q.7.1.6.4l.1.2q0 .3.9.4c2.7.1 6-.2 8.5-.4l-4.4-.2v-.1l.3-.1q1.5 0 2.7-.2.8-.2.6-.4l-.6-.3q.8 0 1.1-.2l-.9-.2-.3-.1q1.5 0 2.7-.2l-.4-.1c.1-.3 2-.6 2.8-.8h-2.2a100 100 0 0 0-9.1-.4h-.4c1.7-.4 5.3-.4 7.7-.4l1 .2c1.2 0 1.8-.5 3.2-.5h.1l-.8.1-.8.4 2.1-.3 2.3-.1.4-.2H593l1.2-.3.6.2h.7l1.9-.3 1.4-.2.4.2c.8 0 .7 0 1.2-.3l-1.3-.2 1.1-.2-1.1-.2c.5-.2 4.2-.3 5.4-.3 1.6-.1 5.5-.4 6.3-.7l-.1-.2c-2.7 0-7-.3-8-.3h-1.9l-.3-.2 1.1-.2-1.3-.2-4.5-.5q1.3 0 2.3-.2-1.1 0-2-.3.2-.2.1-.3c-1.4-.2-3.4-.2-5-.3q-1.6 0-3.2-.4l1.5-.5h1.4c-.3-.3-1.8-.3-2.5-.5 2.6-.6 4.6-.1 7.3-.4l-.2-.2h1l.5.2q.7-.1 1-.4l-.3-.1h-14.9l.4-.2 6.6-.2h4.4l4.5-.2h1.2l.3-.2c-2-.3-4.3.3-6.4-.4h-3c.8-.2 1.8 0 1.6-.5h1.4l-.5.3h1.2l1.2-.2q1 0 1.4.3h.9l3.2-.4q-.1-.2-.8-.4h-.5l-1.2.3c-.5-.2.2-.2-.6-.3l-.6.2-1.5-.1h-3c.2-.2.8-.2.8-.3 4.2-.2 9.7.2 12.8-.4h-2.1l-1-.3-.5.2h-.4l-.6-.3h-.1l-1 .4-1.7-.1.4-.3h-2.8l.3.2h1l.4-.1-.2.3H596l-.4-.2h.4l.2-.2-1-.6c1.3 0 3.2 0 4.3-.2l-1.6-.2-1.7-.5h-4.7l1.8-.2c2.2-.3 5 0 7.3-.3v-.5h.4l1-.3-.3-.2h-.4q-.9.1-1.6 0h-1.5l.4-.1-.6-.2h-1.7c.7-.3 2.4-.2 3.5-.3l1.8-.1-.5-.2c-1.8-.3-5.6-.1-7.6 0h-2.2l.3-.2 1-.1c.8-.2.6-.3.7-.5 1-.2 2.7-.2 4-.3l-.4-.2 1.6-.2c1.7-.1 2.5.2 4 .3 1.8 0 3.7-.4 5.6-.2l-.2.2h.3l.7-.2 1.6.2 1.7-.1-1-.2h.1l1.3-.1c.8 0 1.1 0 1.8-.2l1.2-.2.8.2c.7-.2 2.8-.9 2.5-1.1l-.6-.3.6-.3h-.8v-.1c1.1-.2 3-.1 4.2 0l-.5-.3h.2c3 .3 1.2.6 1.8 1l2-.1V78l-.6-.2-.6.2-.5-.1.3-.2-1.1-.5.3-.1q1.7 0 3-.3-2.1-.3-4.6-.3l-.2-.1-.5.1q-.6.2-1.5.1l-.4-.1.3-.4q0-.2-.9-.5l-1 .3h-.4l.4-.4h-.4c-1.4 0-3.3 0-4.5.3l-.9.2h-1.1l-1.8-.5c-1.3-.1-5.5.2-8-.2q-.6 0-.7-.3c1.4-.5 5.1-.3 6.9-.6l-2.9-.7.2-.1h3.2l-1.6-.3c1.4-.2 3.5 0 4.7-.3h-4.1c-1 0-1.3 0-1.9-.3h-.1l-1.1.2-3.2-.2.3-.1h3.8v-.2l-1.8-.5.7-.1 2.5-.2-3-.1h-5l-.4-.3-.7.2h-1.7l.3-.2 2-.4h-2.2l-.3-.6c0-.2-.5-.2-.5-.4q.8 0 1.5-.3 0-.2-1-.3h-.5q-.3-.4-1.2-.7h-.3q.5.2.3.6h-.5l-.6-.1-.2-.4.1-.1-.5-.1-.1-.1 9.2-.2h4l2.3-.3q-.4-.2-1.2-.2h-5.3c.6-.2 10.7-.5 12.8-.6l-13-.2-7.4-.2.4-.2h-.6l1.3-.3h.6q-.6 0-.7.3l2.1-.3 2.3-.1.3-.1 4.7-.5c.9 0 .8 0 1.3-.3l-1.3-.2 1.1-.2-1.1-.2c.5-.2 4.3-.2 5.4-.3 1.6-.1 5.5-.4 6.3-.7l-.1-.2c-2.7 0-7-.3-8-.3h-1.8l-.4-.2 1.1-.2-1.3-.2-4.4-.5q1.2 0 2.2-.2-1.1 0-2-.3.2-.2.1-.3c-1.4-.2-3.4-.2-5-.3q-1.6 0-3.2-.4l1.6-.5h1.3q-.5-.3-1.9-.4h-.6v-.2c2.6-.5 4.6 0 7.3-.3l-.2-.2h1l.5.2q.7-.1 1-.4l-.3-.1h-7.7l-.7-.3h-.5l-1.2.3c-.5-.2.2-.3-.6-.3l-.6.2-1.5-.1 4.9-.2h4.4l4.5-.2h1.2l.3-.2c-1.6-.2-3.3.1-5 0l.3-.1h-.9l-.8-.3h-1.7l-.8.1-.2-.1c.7-.2 1.5 0 1.3-.5h1.4q-.1.2-.5.3h1.3l1-.2c.8 0 1 .2 1.5.3h.9l3.2-.4q-.1-.2-.8-.4h-.5l-1.2.3c-.4-.2.2-.2-.5-.3l-.7.2-1.5-.1h-3c.2-.2.8-.2.8-.3 4.2-.2 9.7.2 12.8-.4h-2.1l-1-.3-.5.2h-.4l-.6-.3h-.1l-1 .4-1.7-.1.4-.3H601l.3.2h1l.4-.1-.2.3h-2.3l-.4-.2h.4l.2-.2-1-.6c1.4 0 3.2 0 4.3-.2l-1.6-.2-1.7-.5h-4.7l1.8-.2c2.3-.3 5 0 7.3-.3v-.5h.4l1-.3-.3-.1h-3.5l.4-.2-.6-.2h-.9l.7-.2 1.6.2 1.7-.1-.8-.2 1.4-.1h-.1c.7 0 1 0 1.7-.2l1.2-.2.8.2c.7-.2 2.8-.9 2.5-1.2l-.5-.2h.8l-.2.3h.3l.8-.3 1.5.2 1.8-.1-1-.2 1.3-.1q-.2.2 0 .4h2V50h-1.6l.3-.2 1-.2 1.3-.2.8.2c.7-.2 2.8-.9 2.5-1.1l-.6-.3.6-.3h-.8v-.1c1.1-.2 3 0 4.2 0l-.5-.2.2-.1c3 .3 1.2.6 1.8 1h2v-.2l-.6-.1h-1l.2-.2-1.1-.5.3-.1c1.3 0 2-.1 3-.3m-73.5-22q.7.3 1.7.3h1V25l.5-.1h.9l.3.3h.7l-.4-.2.3-.1 1.5.1h5.8l.4.3q1.9-.4 4-.4c2.4 0 14 0 19-.2l-7 .7h-2.7l-1.3.1h-2.9c-1-.1-.6-.4-1.6-.3H573l-.6.5-.5.1-2.2-.1h-.3v.1l-1.5-.1H565l-1 .2h-1l-.4-.4h-.4l-.2.1v.1l-1-.1-.6.1-.6-.1q-.5 0-.9.3h-.2v-.3l-1 .2h-.3v-.7M90 42.5h-.4l1.3-.2-.1-.2h-2l1.5-.1c.7 0 .8 0 1.1.2l.1.2zm-.6 2.9h-.6zm39.3 27-.6-.1 1-.2.4.1h-.3q-.6 0-.5.3m2.2.1-.5-.2h-.4l.1-.1h.8l.3.3h.3zm2.3.1h-.3v-.2h1l-.1.2zm1.8-.1-.2-.1h.7zm2.5-.2h-.4l2.7-.4q.5 0 .8.4zm7.2 0h-.5v-.2l.2-.1.8.1.7.1zm450.8 9.9-7 .7H586l-.1.1h-4.3c-.8 0-.5-.4-1.5-.3h-4.7l-.6.5-.5.1-2.2-.1-.3.1h-1.5l-.6-.2h-2.2l-1 .3h-1.2l-.3-.3h-.6v.1l-1-.1-.6.1-.6-.1-.9.3h-.2l-.1-.3-.9.2h-.3v-.6l1.8.2h1v-.4h1.4l.3.2h.7l-.4-.2.3-.1 1.5.1h5.8l.4.3q1.9-.4 4-.4c2.4 0 14 0 19-.2m-1.5-29c-2-.2-5.4 0-7.3 0h-1.2l-.5-.1.8-.1q.4 0 .5-.2l13.6-.2zm7.3-1.3-.2.2h.2-.7z"/></svg>