<svg xmlns="http://www.w3.org/2000/svg" width="133" height="117" fill="none" viewBox="0 0 133 117"><path fill="#fc5b70" d="M111.494 81.527c.679-1.27-.495-.93-.999-1.174l-1.997-2.01c-.593-.554-.937-2.192-2.062-.442-1.619-1.77-3.435-3.262-5.749-4.048.043-.153.166-.405.116-.446-2.565-2.123-4.897-4.591-8.205-5.634a4 4 0 0 0-.291-.359c.485-1.06.122-1.41-.953-1.159-1.82-.197-2.328-2.196-3.85-2.802-1.976-.907-3.228-2.63-4.676-4.14-.176-.185-.598-.131-.906-.188-.38-.467-.715-.98-1.15-1.39-.834-.79-.386.405-.678.481l-2.256-1.668c.082-1.507-.924-1.84-2.11-1.98-.905-.768-1.978-1.395-2.225-2.715.62-.53 1.387-.042 2.042-.338l1.6-.758c.386-.618.855-.565 1.364-.197.996-.658 2.584.512 3.26-1.134q.377.21.757.416c.567.754 1.155-.26 1.728-.015.55 1.153 1.112 1.392 1.699-.01q-.401-.212-.803-.422-.269.08-.538.156l.538-.156.803.422c.91-.47.87.424 1.178.82.491.548.944.532 1.355-.12.443-.224.958.037 1.302-.054 1.276-.336.023-.603-.081-.919.562-.646 1.535.961 1.966-.402.271.083.553.253.76-.122.48.546.902.298 1.311-.126.884.75 1.772 1.336 2.704.008l.774-.079c-.414.464-.64.937-.1 1.451.851-.198.965-1.861 2.255-1.19l.32.355c.537 1.33 1.155.053 1.734.02.547-.674 1.877.033 2.088-1.231.605.22.956 1.556 1.874.395l.77-.134c.414.447.838.247 1.263-.007 1.332.59 2.524-.326 3.792-.433l2.359-.194.021.022c1.46 1.423 2.47 1.244 4.019-.711q.4.226.799.453c.775.837 1.303-.37 1.987-.285.555.588 1.142.402 1.736.036.809.324 1.647 1.187 2.363-.179a.68.68 0 0 0 .297-.336c.77-.26 1.585.8 2.332-.127l1.047-.437c1.3.118 2.569-1.478 4.238.68l-.764-2.405c.217-.659 1.206-1 .806-1.911.917-1.189-.226-1.071-.803-1.312-.874-1.048-1.739-.947-2.593.078-1.254-1.143-2.501.163-3.769.16-3.148-.009-6.308.432-9.463.691-1.4-.137-2.808-.691-4.194.15-1.673-.939-3.503.71-5.176-.212-1.037-.754-1.894-.367-2.678.483-.453-.256-.904-.472-1.28.142-.813.075-1.739-.863-2.426.326-.775-.611-1.439.339-2.211.19-2.477-.475-4.953.073-7.43.236-.981-.628-1.741-.389-2.296.643-.75-.21-1.533-.69-2.245-.587-3.724.537-7.47.469-11.2.795q-.195-.901-.393-1.802c.618-.453 1.91-.23 1.598-1.617 1.402-.98 2.598-2.109 2.834-3.93.73.259 1.36.26 1.616-.686l4.323-5.173c.768-.144 1.176-.504.802-1.331.733-1.71 2.84-2.305 3.375-4.176 1.087-.141.614-1.447.89-1.579 2.715-1.294 2.85-4.507 4.835-6.295.426-.295 1.233-.308.874-1.183l.022-1.155c.917-.77 1.513-1.41.579-2.746-.647-.924-1.608-.453-1.716-.344-1.189 1.194-3.133 1.431-3.891 3.136-.058.733-.221 1.393-1.087 1.565-.424.71-1.433.995-1.447 2l-2.099 2.73c-1.296.656-2.665 1.264-2.17 3.152-2.437.856-3.263 3.24-4.713 5.032-.573-.19-.619.352-.853.632l-.719.563c-1.334-.047-.693 1.193-1.131 1.73-1.686.662-2.196 2.335-3.116 3.656-1.301 1.055-2.617 2.098-3.082 3.83-1.442.77-2.272.735-1.741-1.263.061-.233-.219-.552-.347-.833.881-.792.356-1.423-.188-2.053.186-.468.67-.85.437-1.438-.499.255-1.077.427-1.372.9.295-.473.872-.645 1.371-.903-.703-.326-1.37-.42-1.94.116.57-.535 1.237-.442 1.94-.119q-.022-.885-.04-1.77c1.374-2.893-.436-5.858.378-8.762-.652-1.244.5-2.444.162-3.68l.151-1.856c.2-.228.188-.445-.022-.652.07-.33.348-.665.008-.99q.033-.25-.198-.342c.126-.729 1.231-1.348.29-2.198 1.17-1.048.4-2.425.483-3.575.198-2.772 1.243-5.56.334-8.353.127-.674.07-1.271-.618-1.614.013-1.077-.849-1.384-1.26-.694-.418.704-1.514.896-1.412 1.916-1.663.767-1.625 2.19-1.457 3.665-1.797.872-.712 2.786-1.504 4.02l.793.338a5 5 0 0 1-.116.369c-.502.805-1.416 1.522-.604 2.61-.34.77-.424 1.546-.121 2.336-.294.33-.452.683-.21 1.105l-.131.152-.063.19-.591.117c-.351.713-.132 1.238.5 1.628-1.9 1.164-.76 2.593-.42 3.951.315 1.227-.89 2.6.282 3.743l-.156.954c-1.164.327-1.472.92-.61 1.877-.436 1.215 1.05 2.117.47 3.355-.494-.118-.917.308-.844.573.49 1.774-.372 3.777.808 5.419-.452.525-1.302.881-.792 1.816-.708.627.246 1.172.141 1.79-.871.111-1.383-.455-2.006-.733.003-.892-.037-1.743-1.318-1.435-.561-.307-.727-1.136-1.511-1.148-.11-1.15-1.034-.78-1.696-.901-.82-.567-.872-2.05-2.274-1.923l-.956-.086q.084-.154.157-.316c-.016-1.947-1.805-1.931-2.919-2.662l-6.22-4.98c-.46-1.294-1.855-1.358-2.745-2.089l-.474-.763c-1.414-1.512-2.89-2.953-4.643-4.075-.038-1.176-1.377-.919-1.809-1.661-.541-.258-.607-.83-.826-1.3.041-.387-.806-.941-1.043-1.138a29 29 0 0 0-2.407-1.764c-1.2-.802-3.887-2.86-5.184-.988a.6.6 0 0 0-.12.28c-.007.08.011.158.032.234.05.187.754 1.394.748 1.417q-.207.761.559.886c.656.449.163 1.535 1.001 1.883.34.684 1.345.093 1.65.847-.19.633.335.617.682.763.4.523.493 1.288 1.206 1.564.05.213.028.506.16.626 4.383 3.984 8.779 7.953 13.175 11.923.733 1.213 1.786 1.938 3.212 2.09 2.153 2.128 4.25 4.327 7.09 5.579.031 1.151 1.245 1.063 1.762 1.706l.365.346c.306.956 1.7.29 1.962 1.313l.661.584c-.308.535-.78.686-1.37.798-3.056.576-6.225.56-9.132 1.917-1.8-.66-3.282.848-5.1.883-1.524.03-3.334.577-4.983 1.055-4.045 1.173-8.216 1.67-12.324 2.509l-2.363.15-.05.016c-1.38.712-3.081-.244-4.37.941-1.748.12-3.56-.022-5.228.423-2.172.578-4.304 1.069-6.54.947A10.8 10.8 0 0 0 .97 57.398c-1.632 1.918-1.297 2.858 1.732 4.85-.466.64-.482.934.468.97 1.377.052 2.458-.928 3.775-.996.603.518 1.024.34 1.31-.368l1.33-.191c1.494.622 2.885-.78 4.37-.314.984.277 2.108.987 2.41-.837q.194.143.395.005c1.547.36 3.103.761 4.208-.981.71.444 1.37.302 2-.212.928.496 1.868.15 2.805-.02.308.173.551.976.966.08l.878-.145c1.128.462 2.179.104 3.218-.374l1.009.049c.892.955 1.482.21 2.094-.417l.157-.47c.686-.269 1.562 1.257 2.113-.272.526.034.431 1.048 1.075.74.2-.095.184-.666.267-1.02l1.383.092c-.405-2.18 1.01-.022 1.29-.571.603.163 1.055.92 1.823.437l-.444-.69c.537-.974 1.713.165 2.27-.741.78.2.792-.665 1.243-.922 1.023-.013 1.911 1.275 3.04.261l.773.061.66-.132q.218-.75.438-1.498l.066-.122-.066.122-.439 1.498c1.315.933.718-.773 1.245-.927.68.27 1.3.931 2.12.283l3.235-1.279c.433.962 2.67-.512 2.218 1.646l-.36.788c-.147.945-2.469.207-1.535 1.99l-1.34 1.988c-.814.969-1.702 1.889-2.417 2.926-.483.7-1.243 1.541-.189 2.4q-.475.273-.952.544c-.98-.067-1.43.662-1.892 1.334-1.043 1.52-2.06 3.056-3.089 4.586-.465-.031-.502.402-.701.66-.425.613-1.866-.102-1.676 1.314-.45 1.053-.693 2.206-1.508 3.084-.506.17-1.463.405-1.452.5.26 2.088-2.058 2.307-2.645 3.739-1.1.027-.585 1.196-1.139 1.61-1.472 1.492-2.942 2.985-4.13 4.727-2.284-.25-2.248 1.98-3.253 3.096l-1.59 2.5c-.506.649-1.505 1.184-.935 2.169.616 1.067 1.635.427 2.51.292l.021-.05 1.899.953c.88.183.88.183 1.362-1.157.61-.967 1.242-1.913 2.197-2.583.424-.269 1.481.397 1.234-.86l.002-.026c.196-.703.145-1.615 1.38-1.261.26.073.298-.442.042-.706 1.273-1.937 3.589-2.923 4.598-5.1 1.124-.36 1.267-1.5 1.824-2.312-.16-1.208 2.616-.223 1.564-2.097l1.308-1.77q.079.202.297.195c1.477-.233 1.434-1.846 2.336-2.601l.347-.323c.596-.168 1.038-.455.893-1.184l.407-.88c.557-.54.87-1.267 1.738-1.563 1.33-.452.48-.989-.063-1.445 1.265-.317 2.144-1.08 2.606-2.318 1.086-1.018 1.904-2.227 2.53-3.572 1.178-.493 1.255-1.223.493-2.134.34-.587 1.515.879 1.478-.636.401-.522.826-.85 1.365-.189-.056.517-.824.803-.486 1.447.27.607-1.933.596-.4 1.517l.46.886c-.289 1.056-1.412 2-.488 3.218-1.838 1.189-.05 2.33-.025 3.494-.138.615-1.078.938-.658 1.755.523.43.97.913 1.076 1.626-.36.688-.44 1.4-.226 2.138l-1 3.384c-.605 1.167-.107 2.228.244 3.304.29.726-.84 1.863.78 2.27.8.202.238 1.072-.02 1.64-.847.075-1.31.624-.531 1.11 1 .622.442 1.124.193 1.735-.698.893-.94 1.743.183 2.46.146.856-1.603.863-.9 1.968-.042.634.194 1.143.66 1.55-.106.629-1.368.798-.718 1.713.202.284.489.335.696-.06.073-.033.145-.083.22-.091.06-.008.125.036.187.056-.862 1.486.898 3.557-1.15 4.791-.232.139.04.295.074.436.505 2.083-.023 4.309.727 6.367-1.6 1.093-1.9 3.037-.931 4.882.763 1.456 1.419 1.095 2.195.051q.197.107.411.176c2.077 1.072 2.69-.388 3.243-1.947 1.624-1.889.283-3.993.549-5.981.596-2.072-.329-4.217.429-6.281.48-.583.327-1.167.04-1.752.314-2.013-.125-4.011.101-6.077.175-1.61.706-3.423.218-5.104-.922-3.173-.597-6.532-.4-9.665.327-5.2-.164-10.417.66-15.594-.202-1.622.856-3.273-.012-4.88l.202-2.178c1.369-1.687 1.291.55 1.981.705l.768.551q3.101 2.223 6.204 4.444c.165 1.226 1.464 1.264 2.085 2.014 3.152 2.239 6.514 4.235 9.4 6.779 3.2 2.82 6.801 5.026 10.18 7.562.59.622 1.277 1.049 2.172 1.053 1.71 2.808 4.651 4.004 7.338 5.48 1.85 1.02 4-.796 3.794-3.046m15.449-36.197q-.002 0 0 0m-12.438 2.04c.017.212-.025.314-.098.359.073-.045.115-.149.098-.359m-8.002-1.967c-.506.24-.957.7-1.37 1.307.414-.607.864-1.067 1.37-1.307M89.579 48.08l-.062.09zm-11.922 1.31-.427-.264zM65.489 19.405l.403.28q-.201-.139-.403-.28m-1.798 18.989.04-2.39q-.02 1.195-.04 2.39M32.112 20.919c.259-.093.456-.451.334-.997.123.546-.074.903-.334.997M12.194 60.483c.353-.005.582-.178.776-.395-.194.217-.422.39-.776.395m2.081.12.528-.687q-.262.343-.528.687m6.473-2.462c-.269-.369-.544-.735-1.317-.812l-.056.03.052-.03h.004q.06-.03.116-.069c.043-.027.286-.115.304-.228q.038-.014.073-.024zm8.444-1.177q-.814.316-1.627.633zm30.675-6.407c.307-.17.56-.258.772-.215-.212-.041-.465.047-.772.215M61.9 92.42l.544.988c.255.375.074.713-.105 1.052.213.367.78.22 1.063.409-.284-.187-.85-.042-1.065-.41.18-.338.362-.676.106-1.05q-.27-.494-.543-.989m-.26-3.752c.572.383.344 1.068.56 1.583-.217-.517.013-1.2-.56-1.583m.944-8.822c.202.088.486.093.74.127-.254-.034-.54-.038-.74-.127m-.777-7.92c-.08.353.523.775.67 1.15-.147-.377-.75-.798-.67-1.15m8.54-20.506q-.002 0 0 0M50.32 75.403q.02.082.071.117a.18.18 0 0 1-.071-.117m34.754-50.552c.437-.75.855-1.513 1.315-2.249-.46.736-.878 1.498-1.315 2.25q.745.524 1.488 1.05-.744-.528-1.488-1.05m-14.1 26.351q.114-.49.226-.98zm4.84 4.395c.276.19.506.445.742.692-.235-.247-.466-.5-.742-.692m.86.808c.24.246.492.476.809.615-.318-.139-.569-.37-.81-.615"/></svg>