<svg width="133" height="117" viewBox="0 0 133 117" fill="none" xmlns="http://www.w3.org/2000/svg">
<path d="M111.494 81.5274C112.173 80.2566 110.999 80.5965 110.495 80.3533C109.829 79.6835 109.164 79.0134 108.498 78.3435C107.905 77.7892 107.561 76.1513 106.436 77.9011C104.817 76.1312 103.001 74.6386 100.687 73.8534C100.73 73.6999 100.853 73.4484 100.803 73.4074C98.2381 71.284 95.9061 68.8155 92.5982 67.7732C92.5078 67.648 92.4106 67.529 92.3069 67.4141C92.7916 66.3534 92.429 66.0046 91.3539 66.2552C89.5344 66.0583 89.0256 64.0592 87.5039 63.453C85.5281 62.5458 84.2762 60.8226 82.8283 59.3128C82.6518 59.1282 82.2304 59.1818 81.9218 59.1249C81.5422 58.658 81.2065 58.1443 80.7725 57.7341C79.9377 56.9456 80.3856 58.1398 80.0944 58.216C79.3423 57.6595 78.5905 57.1045 77.8384 56.5481C77.9197 55.0407 76.9139 54.7077 75.7274 54.5679C74.823 53.7995 73.7501 53.1726 73.5026 51.853C74.1235 51.3222 74.8903 51.8114 75.5451 51.5152C76.0777 51.2625 76.6116 51.0095 77.1442 50.7568C77.5309 50.1388 78.0003 50.1918 78.5087 50.5595C79.5048 49.9019 81.0932 51.0716 81.7685 49.4264C82.0205 49.5655 82.273 49.7038 82.5256 49.8421C83.0926 50.5962 83.6807 49.5824 84.2541 49.827C84.8046 50.9801 85.3664 51.2189 85.9527 49.8167C85.6854 49.6754 85.4183 49.5355 85.1505 49.3951C84.9711 49.4476 84.791 49.4996 84.6122 49.5513C84.7915 49.4988 84.9697 49.4479 85.1505 49.3951C85.417 49.5358 85.6862 49.676 85.9527 49.8167C86.8636 49.347 86.8233 50.2408 87.1307 50.6371C87.622 51.1851 88.0746 51.1695 88.4856 50.5169C88.9293 50.2928 89.444 50.554 89.7878 50.4631C91.0641 50.1273 89.8105 49.8602 89.7069 49.5444C90.2691 48.8983 91.2421 50.5052 91.6732 49.1418C91.944 49.2251 92.226 49.3953 92.4335 49.0198C92.9139 49.5663 93.335 49.3177 93.744 48.8942C94.6282 49.6435 95.5159 50.23 96.4485 48.9015C96.7057 48.8754 96.9643 48.849 97.2216 48.823C96.8083 49.2867 96.5811 49.7604 97.1219 50.2742C97.9733 50.0758 98.0871 48.4125 99.3772 49.0838C99.4836 49.2018 99.5902 49.3212 99.6965 49.4392C100.234 50.769 100.852 49.4915 101.431 49.4581C101.978 48.7853 103.308 49.4917 103.519 48.2277C104.124 48.4472 104.475 49.7841 105.393 48.6226C105.65 48.5779 105.906 48.534 106.163 48.4893C106.577 48.9362 107.001 48.7359 107.426 48.4816C108.758 49.0727 109.95 48.1564 111.218 48.0488C112.004 47.9843 112.791 47.9191 113.577 47.8547L113.598 47.8772C115.058 49.3002 116.068 49.1211 117.617 47.1659C117.884 47.3166 118.15 47.4681 118.416 47.6188C119.191 48.4565 119.719 47.2481 120.403 47.3338C120.958 47.9217 121.545 47.7362 122.139 47.3702C122.948 47.6939 123.786 48.5572 124.502 47.1912C124.639 47.1136 124.738 47.0006 124.799 46.8552C125.569 46.5958 126.384 47.6548 127.131 46.7284C127.48 46.5821 127.83 46.4363 128.178 46.2908C129.478 46.4089 130.747 44.813 132.416 46.9703C131.98 45.5981 131.816 45.082 131.652 44.5659C131.869 43.907 132.858 43.5668 132.458 42.6549C133.375 41.4661 132.232 41.5837 131.655 41.3427C130.781 40.2947 129.916 40.3965 129.062 41.421C127.808 40.2775 126.561 41.5841 125.293 41.5812C122.145 41.5721 118.985 42.0127 115.83 42.2724C114.43 42.135 113.022 41.5808 111.636 42.4216C109.963 41.4834 108.133 43.1322 106.46 42.2098C105.423 41.456 104.566 41.8432 103.782 42.6932C103.329 42.4372 102.878 42.2209 102.502 42.8354C101.689 42.9105 100.763 41.9718 100.076 43.161C99.3009 42.55 98.6374 43.4996 97.8646 43.3515C95.3882 42.876 92.9119 43.4239 90.4352 43.5868C89.4536 42.9588 88.6938 43.1983 88.1387 44.2304C87.3886 44.0193 86.6062 43.5402 85.8943 43.6432C82.1696 44.1804 78.4236 44.112 74.6945 44.4378C74.5632 43.8374 74.4326 43.2363 74.3013 42.636C74.9192 42.1832 76.2106 42.4053 75.8987 41.0195C77.3008 40.0386 78.4967 38.9102 78.7327 37.0888C79.4635 37.348 80.0932 37.3498 80.3493 36.4032C81.7897 34.6788 83.2316 32.9541 84.6721 31.2297C85.4403 31.0861 85.8482 30.7259 85.4736 29.8988C86.2069 28.1884 88.3142 27.5941 88.8492 25.7231C89.9357 25.5816 89.4625 24.2758 89.7383 24.1444C92.454 22.8502 92.5885 19.6371 94.5744 17.849C95.0001 17.5544 95.8067 17.5414 95.4479 16.6662C95.4552 16.2805 95.4626 15.8962 95.4699 15.5105C96.387 14.7406 96.9831 14.101 96.0485 12.7652C95.4023 11.8407 94.4409 12.3119 94.3329 12.4208C93.144 13.6146 91.1995 13.8525 90.4416 15.5567C90.3837 16.2903 90.221 16.95 89.3554 17.1224C88.9313 17.8312 87.9219 18.1169 87.9076 19.1228C87.2083 20.0324 86.5084 20.9429 85.8091 21.8525C84.5127 22.5083 83.1442 23.1158 83.6393 25.0041C81.2017 25.8603 80.3765 28.2446 78.9262 30.0361C78.3531 29.846 78.307 30.3881 78.0725 30.6681C77.833 30.8559 77.5935 31.0436 77.354 31.2313C76.0203 31.1841 76.6607 32.4238 76.2228 32.9602C74.5368 33.6229 74.0266 35.2956 73.1072 36.6174C71.8056 37.6715 70.49 38.7145 70.0246 40.4471C68.5831 41.2165 67.7531 41.1822 68.2838 39.1837C68.3452 38.9507 68.0654 38.6318 67.9375 38.3506C68.8181 37.5588 68.2933 36.928 67.7486 36.2981C67.9354 35.8304 68.4191 35.4483 68.1855 34.8598C67.687 35.1155 67.1091 35.287 66.8137 35.7597C67.1091 35.287 67.6862 35.115 68.185 34.857C67.4819 34.531 66.8152 34.4378 66.2456 34.9728C66.8152 34.4378 67.4819 34.531 68.1846 34.8542C68.1715 34.2643 68.1575 33.6738 68.145 33.0831C69.5192 30.1913 67.7094 27.2261 68.5229 24.3219C67.8711 23.0778 69.0233 21.8779 68.6849 20.6411C68.7351 20.023 68.7853 19.4049 68.836 18.7859C69.0354 18.5576 69.0237 18.341 68.8144 18.1345C68.8834 17.8033 69.1619 17.4693 68.8217 17.1435C68.8439 16.9767 68.7782 16.8626 68.6241 16.8022C68.7498 16.0733 69.855 15.4543 68.9138 14.6044C70.0834 13.5562 69.3143 12.1789 69.3965 11.0285C69.5951 8.25747 70.6403 5.46956 69.7315 2.67608C69.8584 2.0022 69.8012 1.40467 69.1132 1.06227C69.1258 -0.0150126 68.2644 -0.321725 67.8537 0.368118C67.4353 1.07229 66.3385 1.26448 66.4414 2.2838C64.7781 3.05125 64.8161 4.47485 64.9838 5.94903C63.1867 6.82082 64.2718 8.73479 63.4797 9.96993C63.7445 10.0823 64.0078 10.1949 64.2726 10.3073C64.2384 10.4312 64.1999 10.5545 64.1568 10.6758C63.6549 11.4814 62.7406 12.1978 63.5527 13.2859C63.2128 14.0552 63.1291 14.8322 63.432 15.6224C63.1384 15.9521 62.9802 16.3055 63.2224 16.7275L63.0906 16.8788L63.0279 17.069C62.8306 17.1076 62.6341 17.1469 62.4368 17.1855C62.0856 17.8988 62.3046 18.424 62.9361 18.8142C61.0372 19.9781 62.1777 21.407 62.5173 22.7655C62.8318 23.9916 61.6278 25.3647 62.799 26.5083C62.747 26.8256 62.6958 27.1434 62.6433 27.4615C61.4792 27.7887 61.1713 28.3821 62.0336 29.3391C61.5969 30.5544 63.0831 31.4561 62.5037 32.6942C62.0087 32.5764 61.5864 33.0016 61.6589 33.2672C62.1497 35.0415 61.2868 37.0442 62.4669 38.686C62.0151 39.2113 61.165 39.5673 61.675 40.502C60.9669 41.1292 61.9213 41.674 61.8161 42.2916C60.9448 42.4033 60.4334 41.8375 59.8102 41.5591C59.813 40.6672 59.773 39.8155 58.4916 40.1244C57.9308 39.8172 57.7652 38.9881 56.981 38.9761C56.8718 37.8267 55.9466 38.1951 55.2847 38.0745C54.4653 37.5076 54.4134 36.0249 53.011 36.1524C52.692 36.124 52.3737 36.0947 52.0547 36.0662C52.1115 35.9632 52.1637 35.8582 52.2119 35.7503C52.1965 33.8026 50.4067 33.819 49.2934 33.0884C47.2202 31.4283 45.1464 29.769 43.0731 28.1089C42.6125 26.8144 41.2175 26.7499 40.3285 26.0194C40.1699 25.7648 40.0122 25.5107 39.8536 25.2561C38.4402 23.7435 36.9641 22.3028 35.2114 21.1814C35.173 20.0053 33.8339 20.2624 33.4023 19.5197C32.861 19.2621 32.7951 18.6905 32.5758 18.2205C32.617 17.8328 31.7704 17.2789 31.5326 17.0819C30.7684 16.4467 29.9523 15.8698 29.1259 15.3178C27.9267 14.5157 25.2386 12.4574 23.9423 14.3301C23.8839 14.4147 23.8326 14.5081 23.8227 14.6097C23.8149 14.6893 23.8334 14.7676 23.8544 14.844C23.9041 15.0306 24.6084 16.2377 24.6015 16.2612C24.464 16.7685 24.6498 17.0633 25.1606 17.1466C25.8167 17.596 25.3239 18.6818 26.1621 19.0301C26.5026 19.7136 27.5068 19.1234 27.8115 19.8766C27.6224 20.5104 28.1469 20.4936 28.4943 20.6395C28.8945 21.1628 28.9868 21.928 29.6997 22.2042C29.7493 22.4166 29.7276 22.7096 29.8601 22.8299C34.2425 26.8143 38.6387 30.7825 43.0345 34.7529C43.7684 35.966 44.8207 36.6906 46.2471 36.8425C48.3995 38.9714 50.4975 41.1705 53.3373 42.422C53.3681 43.573 54.5819 43.4853 55.0986 44.1276C55.2202 44.2428 55.3426 44.3585 55.4642 44.4737C55.7698 45.4297 57.1638 44.7638 57.426 45.7866C57.6462 45.9811 57.8673 46.1761 58.0875 46.3705C57.7795 46.9058 57.3076 47.057 56.7163 47.1686C53.6611 47.7454 50.4922 47.7294 47.5845 49.0856C45.7855 48.4261 44.3033 49.9337 42.4859 49.9689C40.9605 49.9987 39.1514 50.5464 37.5024 51.0244C33.4568 52.1975 29.2861 52.6932 25.1784 53.5329C24.3906 53.5826 23.6023 53.6331 22.8153 53.6833L22.7643 53.6992C21.3849 54.4113 19.684 53.4546 18.3959 54.6402C16.6471 54.7594 14.8359 54.6177 13.1666 55.0628C10.9946 55.6412 8.86262 56.1318 6.62739 56.0097C4.62597 55.9548 2.73854 56.4116 0.969398 57.398C-0.663115 59.3164 -0.328057 60.2562 2.70083 62.2487C2.23459 62.8871 2.21896 63.1819 3.16933 63.2183C4.54579 63.2698 5.62655 62.2896 6.94438 62.2221C7.54651 62.7396 7.96779 62.5627 8.25324 61.8537C8.69726 61.7902 9.14049 61.7261 9.58452 61.6626C11.0781 62.2848 12.4689 60.8829 13.9542 61.3488C14.938 61.6257 16.0622 62.3356 16.3649 60.5119C16.4933 60.6072 16.625 60.6087 16.7594 60.5171C18.3061 60.877 19.8623 61.2782 20.9669 59.5356C21.6772 59.98 22.3378 59.8384 22.9664 59.3241C23.8951 59.8199 24.8352 59.4731 25.7722 59.304C26.0797 59.4773 26.3231 60.2799 26.7381 59.3834C27.0303 59.3351 27.3233 59.2873 27.6155 59.239C28.7438 59.7014 29.7949 59.3427 30.8345 58.8649C31.1707 58.8809 31.5063 58.8977 31.8426 58.9136C32.7346 59.8694 33.325 59.1248 33.9372 58.4966C33.9896 58.3399 34.042 58.1832 34.0944 58.0265C34.7801 57.7583 35.6562 59.2836 36.207 57.7553C36.7333 57.7892 36.6383 58.8035 37.282 58.4959C37.4821 58.4 37.4656 57.8287 37.5489 57.4755C38.0097 57.5064 38.4711 57.5365 38.9319 57.5674C38.5273 55.3877 39.942 57.5447 40.222 56.9959C40.8251 57.159 41.2769 57.9158 42.0449 57.4331C41.8967 57.203 41.7486 56.973 41.601 56.7422C42.1378 55.7687 43.3141 56.9085 43.8702 56.0017C44.6514 56.2014 44.6629 55.3366 45.114 55.0796C46.1372 55.0674 47.0253 56.3545 48.1535 55.3411C48.4119 55.3614 48.6688 55.382 48.9272 55.4023C49.1465 55.3581 49.3671 55.3137 49.5864 55.2696C49.7324 54.7707 49.879 54.271 50.025 53.7721L50.0908 53.6495C50.0634 53.7005 50.025 53.7721 50.025 53.7721C49.879 54.271 49.7324 54.7707 49.5864 55.2696C50.9006 56.2031 50.3037 54.4972 50.8309 54.343C51.5107 54.613 52.1311 55.2741 52.9502 54.6263C54.0288 54.1994 55.1076 53.7739 56.1862 53.347C56.6192 54.3088 58.8569 52.8349 58.4044 54.9932C58.2849 55.2555 58.164 55.5181 58.0445 55.7805C57.8968 56.7257 55.575 55.9879 56.5087 57.7707C56.0628 58.4333 55.6156 59.0962 55.1697 59.7588C54.355 60.7278 53.4674 61.6479 52.7517 62.6853C52.269 63.3849 51.5093 64.2261 52.5635 65.0852C52.2465 65.2664 51.9289 65.4486 51.6111 65.6293C50.6315 65.5624 50.1814 66.2911 49.7192 66.9632C48.6762 68.4829 47.6588 70.0193 46.6303 71.5492C46.1651 71.5176 46.1278 71.9512 45.9288 72.2082C45.5043 72.8217 44.0635 72.1073 44.2531 73.5229C43.8037 74.5764 43.5596 75.7287 42.7451 76.6066C42.2392 76.7769 41.2823 77.0121 41.2933 77.1061C41.5523 79.1945 39.2348 79.4139 38.6482 80.8455C37.5482 80.8727 38.0628 82.0424 37.5094 82.4567C36.0367 83.9476 34.5671 85.4408 33.3796 87.1829C31.0949 86.9324 31.1312 89.1623 30.1255 90.2792C29.5954 91.113 29.0658 91.9461 28.5356 92.7799C28.0302 93.4278 27.0313 93.9626 27.6009 94.9479C28.2168 96.015 29.2364 95.3752 30.111 95.2399L30.1323 95.1908L32.031 96.1425C32.9117 96.3259 32.9117 96.3259 33.393 94.9855C34.0031 94.0192 34.6351 93.0733 35.5905 92.4031C36.0139 92.134 37.0711 92.8004 36.8236 91.5425L36.8259 91.5169C37.0223 90.8144 36.971 89.9017 38.2059 90.2555C38.4651 90.3294 38.5042 89.8145 38.2476 89.55C39.5206 87.6128 41.837 86.6269 42.8459 84.4496C43.9704 84.0895 44.1128 82.9495 44.6703 82.1385C44.5109 80.9303 47.2859 81.9155 46.2344 80.0413C46.6706 79.4507 47.1061 78.8609 47.5423 78.2704C47.5949 78.4048 47.6934 78.4704 47.8391 78.4657C49.3158 78.2326 49.2734 76.6198 50.1751 75.8649C50.291 75.7567 50.4064 75.6493 50.5219 75.5419C51.1181 75.3735 51.5595 75.0874 51.4152 74.3583C51.5504 74.0651 51.687 73.7716 51.8222 73.4784C52.3786 72.938 52.6925 72.2108 53.5604 71.9154C54.8906 71.4635 54.0395 70.9261 53.4967 70.4701C54.7624 70.1527 55.6406 69.39 56.1029 68.152C57.1889 67.1336 58.0068 65.9252 58.6324 64.5803C59.8109 64.0869 59.8879 63.3569 59.126 62.4459C59.4656 61.8589 60.6406 63.3245 60.6036 61.8104C61.0051 61.2879 61.4298 60.9605 61.9695 61.6215C61.9127 62.1375 61.145 62.4244 61.4833 63.0682C61.7527 63.6745 59.5499 63.664 61.0821 64.5845C61.2359 64.8802 61.3889 65.1753 61.5428 65.471C61.2544 66.5268 60.1314 67.4711 61.0553 68.6885C59.217 69.8777 61.0051 71.019 61.0302 72.1833C60.8922 72.7976 59.9518 73.1207 60.3719 73.9379C60.8947 74.3675 61.3413 74.8507 61.4481 75.5645C61.0871 76.2524 61.0079 76.9648 61.2222 77.7024C60.8892 78.8304 60.5562 79.9584 60.2224 81.0858C59.6171 82.2526 60.1149 83.3143 60.4663 84.3902C60.7552 85.1163 59.6257 86.2532 61.2451 86.6606C62.0466 86.8623 61.4837 87.7323 61.2261 88.3006C60.3787 88.3749 59.9159 88.9245 60.695 89.41C61.695 90.0324 61.1372 90.5336 60.8879 91.1448C60.1895 92.0378 59.9484 92.8877 61.071 93.605C61.2167 94.4608 59.4683 94.4681 60.171 95.5729C60.1291 96.2067 60.3655 96.7159 60.831 97.1224C60.7247 97.7516 59.4628 97.9213 60.1132 98.8364C60.3151 99.1203 60.6019 99.1705 60.8091 98.7751C60.8824 98.7428 60.9536 98.6931 61.0294 98.6848C61.0889 98.6774 61.1538 98.7206 61.2157 98.7407C60.3544 100.227 62.1138 102.298 60.0656 103.532C59.8339 103.671 60.1064 103.827 60.1401 103.968C60.6454 106.051 60.1174 108.277 60.8672 110.335C59.2668 111.428 58.9673 113.372 59.9355 115.217C60.6988 116.673 61.3545 116.312 62.1313 115.268C62.2622 115.34 62.3996 115.398 62.5421 115.444C64.619 116.516 65.2316 115.056 65.7852 113.497C67.4089 111.608 66.0679 109.504 66.3339 107.516C66.9298 105.444 66.005 103.299 66.763 101.235C67.2432 100.652 67.0897 100.068 66.8024 99.4832C67.1165 97.4703 66.6784 95.4717 66.904 93.4063C67.0792 91.7962 67.6101 89.9827 67.1223 88.3017C66.1996 85.1286 66.5255 81.7703 66.7223 78.6367C67.0487 73.4368 66.5579 68.2203 67.3824 63.043C67.18 61.421 68.238 59.7702 67.3701 58.1632C67.437 57.4373 67.5045 56.7105 67.5723 55.9852C68.9409 54.2977 68.8634 56.5351 69.553 56.69C69.8086 56.8736 70.0642 57.0573 70.3206 57.2414C72.3883 58.7226 74.4568 60.2043 76.5251 61.6846C76.6897 62.9113 77.9889 62.9491 78.6096 63.6991C81.7621 65.9375 85.1245 67.9342 88.0094 70.4775C91.2095 73.2981 94.811 75.5037 98.1905 78.04C98.7804 78.6623 99.4671 79.0889 100.362 79.0933C102.072 81.9012 105.013 83.0968 107.7 84.5723C109.55 85.5938 111.7 83.7768 111.494 81.5274ZM126.943 45.3298C126.942 45.3306 126.942 45.3306 126.943 45.3298V45.3298ZM114.505 47.3702C114.522 47.5815 114.48 47.684 114.407 47.729C114.48 47.684 114.522 47.5801 114.505 47.3702ZM106.503 45.4032C105.997 45.643 105.546 46.103 105.133 46.7101C105.547 46.1028 105.997 45.643 106.503 45.4032ZM89.5786 48.0794C89.5481 48.1245 89.5168 48.1691 89.5168 48.1691L89.5786 48.0794ZM77.6568 49.3891C77.5152 49.3006 77.3723 49.2123 77.2301 49.1246C77.3723 49.2123 77.5138 49.3008 77.6568 49.3891ZM65.4891 19.4053C65.6228 19.4981 65.7573 19.5916 65.8918 19.685C65.7575 19.593 65.6236 19.4987 65.4891 19.4053ZM63.6909 38.3935C63.7041 37.5965 63.7174 36.7995 63.7308 36.0039C63.7176 36.8009 63.7027 37.5968 63.6909 38.3935ZM32.1125 20.9187C32.371 20.8257 32.5685 20.4679 32.4461 19.9219C32.5693 20.4684 32.3723 20.8254 32.1125 20.9187ZM12.1945 60.4826C12.5466 60.4777 12.7756 60.3048 12.9704 60.0881C12.7756 60.3048 12.548 60.4775 12.1945 60.4826ZM14.2751 60.6032C14.4508 60.3742 14.6278 60.1449 14.8034 59.916C14.627 60.1444 14.4522 60.3739 14.2751 60.6032ZM20.7479 58.1412C20.4793 57.7721 20.2039 57.4057 19.4313 57.3292C19.4122 57.3392 19.3926 57.35 19.3746 57.3584C19.3931 57.3492 19.4092 57.3383 19.4269 57.3286C19.4283 57.3283 19.4291 57.3289 19.4313 57.3292C19.4701 57.3084 19.5086 57.2862 19.5473 57.2604C19.5899 57.2325 19.8328 57.1445 19.8508 57.0315C19.8759 57.0232 19.9002 57.0144 19.9241 57.0078C20.1985 57.3859 20.4729 57.764 20.7479 58.1412ZM29.1922 56.9644C28.6493 57.1753 28.1069 57.3854 27.5648 57.5969C28.1077 57.386 28.6507 57.1751 29.1922 56.9644ZM62.7441 44.8212C62.8457 44.7077 62.9505 44.5965 63.0579 44.4885C62.9513 44.5971 62.8471 44.7075 62.7441 44.8212ZM59.8666 50.557C60.1741 50.3875 60.4269 50.2991 60.639 50.3423C60.4271 50.3005 60.1743 50.3889 59.8666 50.557ZM38.994 81.0827C38.9954 81.0824 38.9948 81.0833 38.994 81.0827V81.0827ZM45.0649 78.8952C45.3666 78.7956 45.6515 78.6582 45.9154 78.4667C45.6515 78.6582 45.3653 78.7958 45.0649 78.8952ZM61.9013 92.4202C62.0826 92.7488 62.2642 93.0787 62.4449 93.4081C62.7002 93.7826 62.5188 94.1209 62.3395 94.4596C62.5528 94.8267 63.1199 94.6809 63.4027 94.8688C63.1194 94.6817 62.5528 94.8267 62.3381 94.4598C62.5187 94.1209 62.7002 93.7826 62.4436 93.4084C62.2636 93.0796 62.0829 92.7502 61.9013 92.4202ZM61.6417 88.6683C62.2133 89.0509 61.9847 89.7357 62.2007 90.2515C61.9844 89.7343 62.2141 89.0514 61.6417 88.6683ZM62.5847 79.8462C62.7869 79.9343 63.0706 79.9391 63.3255 79.973C63.0706 79.9391 62.7856 79.9345 62.5847 79.8462ZM61.8076 71.9254C61.7279 72.2786 62.331 72.7006 62.4778 73.0764C62.3308 72.6992 61.7271 72.2781 61.8076 71.9254ZM70.3473 51.42C70.3465 51.4195 70.3465 51.4195 70.3473 51.42V51.42ZM50.32 75.4035C50.3338 75.4576 50.3567 75.4972 50.3912 75.5202C50.3567 75.4972 50.3324 75.4579 50.32 75.4035ZM85.0739 24.8512C85.5113 24.1012 85.9287 23.3384 86.389 22.6021C85.9293 23.3376 85.5111 24.0998 85.0739 24.8512C85.5703 25.2018 86.0665 25.551 86.5621 25.9011C86.0657 25.5505 85.5701 25.2004 85.0739 24.8512ZM70.9748 51.2021C71.0503 50.8755 71.1257 50.5489 71.1998 50.2225C71.1244 50.5491 71.0503 50.8755 70.9748 51.2021ZM72.4516 49.2924C72.5598 49.3649 72.6634 49.4439 72.7633 49.5266C72.6648 49.4437 72.5606 49.3654 72.4516 49.2924ZM75.8141 55.5967C76.0901 55.7873 76.3201 56.0416 76.5561 56.2891C76.3209 56.0422 76.0903 55.7887 75.8141 55.5967ZM76.6735 56.4051C76.9143 56.6509 77.1661 56.8812 77.483 57.0204C77.1647 56.8814 76.9143 56.6509 76.6735 56.4051Z" fill="#FC5B70"/>
</svg>
