<svg width="203" height="142" viewBox="0 0 203 142" fill="none" xmlns="http://www.w3.org/2000/svg">
<path d="M2.25781 9.07617H201.258V140.076H2.25781V9.07617Z" fill="#F6F6F1"/>
<path d="M0.00423598 41.4382C-0.0228333 40.6516 0.123533 39.5413 0.131243 38.6134C0.16509 34.7261 0.26655 33.2857 0.324095 29.7687C0.409568 24.5537 0.217195 9.07656 1.23405 9.07617C1.23407 9.07617 1.2341 9.07617 1.23412 9.07617C1.24409 9.07615 1.25418 9.07768 1.26438 9.08067C1.4581 9.13491 1.66959 10.4513 1.88867 10.6467C2.10784 10.8417 3.52276 10.6955 3.6023 12.5652C3.70712 15.2761 3.34433 21.7793 3.36041 23.2251C3.37149 24.2136 3.50012 25.4306 3.52295 26.6945C3.59656 30.7699 3.5025 32.9023 3.8519 36.574C3.66778 38.0427 3.48365 39.5113 3.29952 40.98C3.38489 42.8962 3.14206 45.8004 3.15543 46.9646C3.16644 47.9196 3.31204 48.4793 3.31881 49.4747C3.32722 50.5911 3.17006 52.3057 3.19373 54.3364C3.23181 57.6656 3.61165 58.258 3.65988 60.2555C3.70979 62.3269 3.50335 65.5483 3.63701 68.1913C3.6788 68.5229 3.72058 68.8543 3.76237 69.1858C3.85686 68.9483 3.95136 68.7108 4.04586 68.4733C4.08985 69.8046 3.89619 70.3771 3.89268 71.6003C3.88845 73.0396 4.07205 73.7739 4.0712 74.7424C4.07035 75.5358 3.92313 76.6115 3.93235 77.6403C3.94504 79.1401 4.15761 78.8121 4.19739 79.6192C4.21283 79.9412 4.33014 85.8948 4.33183 86.2307C4.34021 88.7852 4.04926 89.0076 4.02382 91.0446C3.95443 96.6941 4.18953 102.493 4.27838 107.719C4.31813 110.053 4.30122 112.487 4.25469 114.814C3.51005 111.149 2.93053 119.26 4.09572 116.227C3.92996 118.815 4.24451 120.651 4.19132 123.105C4.15663 124.692 3.99507 125.791 3.9993 128.057C4.00784 132.079 4.46708 136.478 3.63701 137.635C3.66295 138.472 3.67483 139.289 3.6809 140.076L2.25781 138.653C5.91211 138.625 8.9279 138.722 10.3277 138.119C11.5452 138.074 14.665 138.511 16.0304 138.57C17.3217 138.626 27.2296 138.823 28.8505 138.834C30.4714 138.845 33.3088 138.857 34.6739 138.793C36.389 138.713 37.5875 137.953 40.6409 138.842C44.1911 138.77 45.4561 138.795 48.758 138.898C49.3558 138.917 49.4234 139.049 49.7726 139.049C50.492 139.049 51.7161 138.952 53.0003 138.94C55.1121 138.92 56.3174 139.198 56.082 138.774C57.4743 138.703 58.8666 138.632 60.2589 138.561C60.7473 138.642 61.2357 138.724 61.7242 138.806C62.4686 138.717 63.213 138.628 63.9574 138.539C63.083 139.152 68.3223 138.79 66.6211 138.438C69.3201 138.565 72.0191 138.692 74.718 138.819C74.3414 139.516 80.6441 138.899 80.1135 138.52C80.4223 138.521 80.7312 138.521 81.04 138.522C83.7437 138.707 86.2266 138.555 89.5222 138.68C92.8174 138.804 92.5081 138.872 93.5102 139.193C94.2857 139.175 95.0611 139.156 95.8366 139.138C99.9056 138.259 99.1863 139.781 106.154 139.106C108.38 139.659 113.868 139.369 117.506 139.201C117.93 139.182 117.937 139.074 118.501 139.041C119.88 138.962 123.397 139.1 123.277 138.754C124.495 138.854 125.712 138.954 126.93 139.054C127.926 138.991 128.921 138.928 129.916 138.865C129.911 138.757 129.906 138.649 129.901 138.541C131.905 138.909 135.055 138.768 136.608 138.856C136.917 138.874 136.984 139.023 137.945 139.063C139.068 139.112 141.161 139.068 142.5 139.114C143.02 138.949 143.54 138.784 144.061 138.619C146.454 138.529 147.295 138.965 148.701 138.999C148.954 139.005 153.571 138.974 153.819 138.964C155.856 138.891 155.279 138.519 161.168 138.599C162.217 138.613 163.066 138.742 164.013 138.747C165.688 138.756 170.734 138.465 171.131 138.196C173.162 138.533 178.597 138.395 180.197 138.492C180.68 138.522 180.789 138.737 182.274 138.782C183.478 138.82 186.579 138.648 188.105 138.677C189.726 138.708 190.305 138.888 191.031 138.901C191.717 138.913 192.349 138.767 193.284 138.768C196.203 138.773 198.846 139.007 201.152 139.012C201.187 139.012 201.223 139.012 201.258 139.012L200.193 140.076C200.191 136.784 199.767 133.87 199.578 131.108C199.606 130.415 199.698 129.735 199.699 129.008C199.713 120.023 199.792 109.887 199.884 100.875C199.927 96.6918 200.511 86.2881 199.536 89.0649C199.365 87.611 199.758 77.0395 199.764 75.0287C199.77 73.0184 199.595 71.4248 199.593 69.8447C199.585 65.0763 199.711 61.7185 199.559 55.9143C199.519 54.4152 199.312 52.8089 199.314 51.9212C199.317 50.8519 199.518 49.7011 199.531 48.3158C199.559 45.0138 199.493 38.86 199.528 35.6921C199.535 35.1137 199.711 34.9105 199.766 34.0832C199.981 30.8617 199.962 27.2508 199.4 27.8897C199.719 23.7606 199.428 19.9409 199.411 16.1144C199.401 14.1051 199.403 11.6858 199.406 9.07617L201.258 10.9278C193.359 10.9173 183.716 10.8873 178.418 11.0648C173.974 11.2137 174.088 11.4657 167.544 11.2483C166.092 11.2 164.646 11.135 162.884 11.0775C158.755 10.9421 154.966 10.4765 151.819 11.0375C147.233 10.892 143.58 10.9952 140.177 10.5154C139.776 10.6305 139.375 10.7456 138.974 10.8606C138.411 10.8635 137.849 10.8663 137.287 10.8692C137.111 10.7594 136.936 10.6497 136.76 10.54C132.732 10.5104 127.622 10.9615 124.212 10.9582C118.495 10.9531 103.771 10.7779 98.3504 10.6298C95.4725 10.5511 95.3176 10.7862 93.6699 10.303C93.0262 10.3366 92.3826 10.3702 91.7389 10.4039C91.336 10.5096 90.9332 10.6154 90.5304 10.7212C86.8381 10.7255 82.4588 10.5611 78.9414 10.5628C72.5319 10.5662 62.9073 10.8574 56.4709 10.6661C54.857 10.6179 52.8396 10.3997 51.2592 10.4022C48.959 10.4056 48.4 10.7676 45.4811 10.7744C40.4503 10.7854 31.0814 10.3648 26.3264 10.397C24.9141 10.4063 24.2551 10.541 23.28 10.5554C19.1908 10.6172 15.8335 10.6062 11.9125 10.8144C7.70234 10.4674 8.06605 10.0196 6.76129 9.5677C5.77247 9.22665 2.7404 8.43627 2.30999 8.13757C2.00764 7.92772 3.13649 7.65777 2.71282 7.42677C7.75697 7.2423 9.87612 7.44538 13.972 7.77032C21.536 7.75738 29.1 7.74443 36.6641 7.73148C37.3522 7.85757 38.0404 7.98365 38.7286 8.10974C38.7286 8.11002 38.7286 8.11029 38.7286 8.11057C41.6334 8.25608 42.8646 7.93137 44.4312 7.85766C59.4293 7.15192 88.949 7.70428 105.46 7.78382C109.018 7.80074 120.593 7.63084 123.034 7.83562C123.666 7.88895 123.842 8.08337 124.514 8.09184C130.522 7.97622 136.531 7.8606 142.539 7.74498C154.894 8.04707 167.666 7.79758 180.115 7.75104C187.177 7.7246 194.224 7.69697 201.258 7.67024L202.654 7.66069L202.664 9.07617C202.765 35.5886 202.853 61.9068 202.816 88.0905C202.806 94.4933 202.952 102.618 202.858 108.887C202.819 111.503 202.507 112.593 202.74 116.03C202.656 116.066 202.571 116.102 202.487 116.138C202.589 119.137 202.78 121.053 202.8 124.416C202.816 127.248 202.828 134.739 202.796 137.241C202.78 138.539 202.623 138.055 202.624 139.265C202.624 139.506 202.627 139.778 202.633 140.076L202.642 141.442L201.258 141.451C198.99 141.492 195.239 141.662 192.713 141.662C190.123 141.662 185.758 141.481 183.767 141.507C176.598 141.6 168.789 141.869 161.148 141.797C159.038 141.776 156.323 141.572 155.662 141.578C154.371 141.59 153.987 141.788 153.119 141.813C148.714 141.942 141.848 141.707 137.53 141.697C123.46 141.667 108.554 141.753 94.545 141.717C85.6942 141.694 70.9859 141.729 62.8143 141.58C61.0522 141.548 61.522 141.331 60.0423 141.331C58.4018 141.331 57.5133 141.478 56.7467 141.489C51.4397 141.572 39.7245 141.721 34.7142 141.571C33.7599 141.542 33.0676 141.372 32.4961 141.373C32.2069 141.373 31.5536 141.489 30.6456 141.5C22.6287 141.605 16.7834 141.538 8.9279 141.498C6.75052 141.487 4.52304 141.482 2.25781 141.482L0.861953 141.491L0.852275 140.076C0.855794 126.69 0.712419 111.982 0.812285 98.4642C0.837672 95.0207 1.17382 92.6592 1.17044 92.175C1.16366 91.1124 0.93756 90.4322 0.881712 88.2801C0.698141 81.1245 0.939407 71.4876 0.82606 64.6817C0.770216 61.3192 0.483203 56.6987 0.419694 53.3898C0.368927 50.7469 0.481514 44.5054 0.355502 43.334C0.279371 42.6214 0.0348473 42.2917 0.00423598 41.4382ZM3.81058 130.472C3.41963 130.001 3.74453 134.949 3.95439 133.093C4.00164 132.675 3.91206 130.593 3.81058 130.472ZM200.384 116.984C200.272 117.029 200.161 117.074 200.049 117.12C200.095 117.769 200.142 118.419 200.188 119.068C200.255 118.703 200.323 118.338 200.39 117.973C200.388 117.643 200.386 117.314 200.384 116.984Z" fill="#0BA6E2"/>
<path d="M35.8344 89.7173C37.6147 89.7173 38.9327 90.2894 39.7885 91.4335C40.4567 92.3259 40.7908 93.4677 40.7908 94.859C40.7908 96.3646 40.4086 97.6163 39.6444 98.614C38.7474 99.7856 37.4682 100.371 35.807 100.371C34.2555 100.371 33.0359 99.8588 32.1481 98.8337C31.3564 97.8451 30.9605 96.5958 30.9605 95.0855C30.9605 93.7217 31.2991 92.5547 31.9765 91.5845C32.846 90.3397 34.132 89.7173 35.8344 89.7173ZM35.9717 99.1494C37.1753 99.1494 38.0449 98.7192 38.5803 97.8589C39.1203 96.9939 39.3904 96.0008 39.3904 94.8796C39.3904 93.6943 39.0792 92.7401 38.4568 92.017C37.8389 91.2939 36.9923 90.9324 35.9168 90.9324C34.8734 90.9324 34.0221 91.2916 33.3631 92.0101C32.7041 92.7241 32.3746 93.7789 32.3746 95.1748C32.3746 96.2914 32.6561 97.2342 33.219 98.003C33.7865 98.7673 34.704 99.1494 35.9717 99.1494ZM48.3785 94.6119C49.0192 94.6119 49.5249 94.4837 49.8956 94.2274C50.2708 93.9712 50.4585 93.5089 50.4585 92.8408C50.4585 92.1223 50.1976 91.6326 49.6759 91.3717C49.3967 91.2344 49.0238 91.1658 48.557 91.1658H45.2207V94.6119H48.3785ZM43.8546 89.9919H48.5226C49.2915 89.9919 49.9253 90.104 50.4242 90.3283C51.3715 90.7585 51.8452 91.5525 51.8452 92.7103C51.8452 93.3144 51.7193 93.8087 51.4676 94.1931C51.2205 94.5775 50.8727 94.8864 50.4242 95.1198C50.8177 95.28 51.1129 95.4905 51.3097 95.7514C51.5111 96.0123 51.6232 96.4356 51.6461 97.0214L51.6941 98.3737C51.7079 98.7581 51.7399 99.0442 51.7902 99.2318C51.8726 99.5522 52.0191 99.7581 52.2296 99.8496V100.076H50.5546C50.5088 99.9892 50.4722 99.8771 50.4447 99.7398C50.4173 99.6025 50.3944 99.3371 50.3761 98.9435L50.2937 97.2616C50.2617 96.6026 50.0168 96.161 49.5592 95.9367C49.2983 95.8132 48.8887 95.7514 48.3304 95.7514H45.2207V100.076H43.8546V89.9919ZM59.474 89.731C60.4214 89.731 61.2406 89.9141 61.9316 90.2802C62.9339 90.8065 63.5471 91.7287 63.7714 93.0467H62.419C62.2543 92.3099 61.9133 91.7744 61.3962 91.4404C60.879 91.1017 60.2269 90.9324 59.4397 90.9324C58.5061 90.9324 57.719 91.2825 57.0783 91.9827C56.4421 92.6829 56.1241 93.7263 56.1241 95.113C56.1241 96.312 56.3872 97.2891 56.9135 98.0442C57.4398 98.7948 58.2979 99.17 59.4878 99.17C60.3985 99.17 61.1513 98.9069 61.7463 98.3806C62.3458 97.8497 62.6524 96.9939 62.6661 95.8132H59.5084V94.6805H63.9361V100.076H63.0574L62.7279 98.7787C62.2657 99.2867 61.8561 99.6391 61.4991 99.8359C60.8996 100.175 60.1376 100.344 59.2132 100.344C58.0187 100.344 56.9913 99.9572 56.1309 99.1838C55.1928 98.2135 54.7237 96.8818 54.7237 95.1885C54.7237 93.4998 55.1813 92.1566 56.0966 91.1589C56.9661 90.207 58.092 89.731 59.474 89.731ZM72.4986 95.9436L70.9678 91.4884L69.3408 95.9436H72.4986ZM70.2539 89.9919H71.7984L75.4573 100.076H73.9608L72.938 97.0557H68.9496L67.8581 100.076H66.4577L70.2539 89.9919ZM77.9651 89.9919H79.5783L84.672 98.1609V89.9919H85.9694V100.076H84.4385L79.2694 91.914V100.076H77.9651V89.9919ZM89.6991 89.9919H91.0789V100.076H89.6991V89.9919ZM98.8177 89.7173C100.094 89.7173 101.085 90.0537 101.79 90.7264C102.495 91.3992 102.886 92.1634 102.964 93.0192H101.632C101.481 92.3694 101.179 91.8545 100.726 91.4747C100.278 91.0948 99.646 90.9049 98.8314 90.9049C97.8383 90.9049 97.0351 91.255 96.4219 91.9552C95.8132 92.6508 95.5089 93.7194 95.5089 95.161C95.5089 96.3418 95.7835 97.3005 96.3326 98.0374C96.8864 98.7696 97.7102 99.1357 98.8039 99.1357C99.8108 99.1357 100.577 98.749 101.104 97.9756C101.383 97.5683 101.591 97.0328 101.728 96.3692H103.06C102.941 97.431 102.547 98.3211 101.879 99.0396C101.078 99.9046 99.9984 100.337 98.6392 100.337C97.4676 100.337 96.4837 99.9824 95.6873 99.273C94.6393 98.3348 94.1153 96.8864 94.1153 94.9276C94.1153 93.4403 94.5089 92.2206 95.2961 91.2687C96.1473 90.2345 97.3212 89.7173 98.8177 89.7173ZM118.263 89.9919V91.1932H114.865V100.076H113.478V91.1932H110.08V89.9919H118.263ZM125.473 94.6119C126.114 94.6119 126.619 94.4837 126.99 94.2274C127.365 93.9712 127.553 93.5089 127.553 92.8408C127.553 92.1223 127.292 91.6326 126.771 91.3717C126.491 91.2344 126.118 91.1658 125.652 91.1658H122.315V94.6119H125.473ZM120.949 89.9919H125.617C126.386 89.9919 127.02 90.104 127.519 90.3283C128.466 90.7585 128.94 91.5525 128.94 92.7103C128.94 93.3144 128.814 93.8087 128.562 94.1931C128.315 94.5775 127.967 94.8864 127.519 95.1198C127.912 95.28 128.208 95.4905 128.404 95.7514C128.606 96.0123 128.718 96.4356 128.741 97.0214L128.789 98.3737C128.802 98.7581 128.835 99.0442 128.885 99.2318C128.967 99.5522 129.114 99.7581 129.324 99.8496V100.076H127.649C127.603 99.9892 127.567 99.8771 127.539 99.7398C127.512 99.6025 127.489 99.3371 127.471 98.9435L127.388 97.2616C127.356 96.6026 127.111 96.161 126.654 95.9367C126.393 95.8132 125.983 95.7514 125.425 95.7514H122.315V100.076H120.949V89.9919ZM137.386 95.9436L135.855 91.4884L134.228 95.9436H137.386ZM135.141 89.9919H136.685L140.344 100.076H138.848L137.825 97.0557H133.837L132.745 100.076H131.345L135.141 89.9919ZM142.982 89.9919H149.978V91.2276H144.349V94.2892H149.298V95.4905H144.349V100.076H142.982V89.9919ZM152.842 89.9919H159.838V91.2276H154.209V94.2892H159.158V95.4905H154.209V100.076H152.842V89.9919ZM162.881 89.9919H164.261V100.076H162.881V89.9919ZM171.999 89.7173C173.276 89.7173 174.267 90.0537 174.972 90.7264C175.677 91.3992 176.068 92.1634 176.146 93.0192H174.814C174.663 92.3694 174.361 91.8545 173.908 91.4747C173.459 91.0948 172.828 90.9049 172.013 90.9049C171.02 90.9049 170.217 91.255 169.604 91.9552C168.995 92.6508 168.691 93.7194 168.691 95.161C168.691 96.3418 168.965 97.3005 169.514 98.0374C170.068 98.7696 170.892 99.1357 171.986 99.1357C172.992 99.1357 173.759 98.749 174.285 97.9756C174.565 97.5683 174.773 97.0328 174.91 96.3692H176.242C176.123 97.431 175.729 98.3211 175.061 99.0396C174.26 99.9046 173.18 100.337 171.821 100.337C170.649 100.337 169.665 99.9824 168.869 99.273C167.821 98.3348 167.297 96.8864 167.297 94.9276C167.297 93.4403 167.691 92.2206 168.478 91.2687C169.329 90.2345 170.503 89.7173 171.999 89.7173ZM65.2585 110.992H66.6383V121.076H65.2585V110.992ZM70.1278 110.992H71.741L76.8346 119.161V110.992H78.1321V121.076H76.6012L71.4321 112.914V121.076H70.1278V110.992ZM85.8022 110.717C87.079 110.717 88.0698 111.054 88.7746 111.726C89.4794 112.399 89.8707 113.163 89.9485 114.019H88.6167C88.4657 113.369 88.1636 112.855 87.7106 112.475C87.2621 112.095 86.6305 111.905 85.8159 111.905C84.8228 111.905 84.0196 112.255 83.4064 112.955C82.7977 113.651 82.4934 114.719 82.4934 116.161C82.4934 117.342 82.768 118.301 83.3171 119.037C83.8709 119.77 84.6947 120.136 85.7884 120.136C86.7953 120.136 87.5618 119.749 88.0881 118.976C88.3673 118.568 88.5755 118.033 88.7128 117.369H90.0446C89.9256 118.431 89.532 119.321 88.8638 120.04C88.0629 120.905 86.9829 121.337 85.6237 121.337C84.4521 121.337 83.4682 120.982 82.6719 120.273C81.6238 119.335 81.0998 117.886 81.0998 115.928C81.0998 114.44 81.4934 113.221 82.2806 112.269C83.1318 111.234 84.3057 110.717 85.8022 110.717ZM97.6666 115.612C98.3073 115.612 98.813 115.484 99.1837 115.227C99.559 114.971 99.7466 114.509 99.7466 113.841C99.7466 113.122 99.4857 112.633 98.964 112.372C98.6849 112.234 98.3119 112.166 97.8451 112.166H94.5088V115.612H97.6666ZM93.1427 110.992H97.8107C98.5796 110.992 99.2134 111.104 99.7123 111.328C100.66 111.758 101.133 112.552 101.133 113.71C101.133 114.314 101.007 114.809 100.756 115.193C100.509 115.578 100.161 115.886 99.7123 116.12C100.106 116.28 100.401 116.491 100.598 116.751C100.799 117.012 100.911 117.436 100.934 118.021L100.982 119.374C100.996 119.758 101.028 120.044 101.078 120.232C101.161 120.552 101.307 120.758 101.518 120.85V121.076H99.8427C99.7969 120.989 99.7603 120.877 99.7329 120.74C99.7054 120.603 99.6825 120.337 99.6642 119.943L99.5818 118.262C99.5498 117.603 99.305 117.161 98.8473 116.937C98.5865 116.813 98.1769 116.751 97.6185 116.751H94.5088V121.076H93.1427V110.992ZM104.534 110.992H111.886V112.228H105.865V115.289H111.433V116.456H105.865V119.875H111.989V121.076H104.534V110.992ZM120.222 116.944L118.691 112.488L117.064 116.944H120.222ZM117.977 110.992H119.521L123.18 121.076H121.684L120.661 118.056H116.673L115.581 121.076H114.181L117.977 110.992ZM126.58 117.822C126.613 118.394 126.748 118.859 126.986 119.216C127.439 119.884 128.237 120.218 129.381 120.218C129.894 120.218 130.361 120.145 130.782 119.998C131.596 119.715 132.004 119.207 132.004 118.474C132.004 117.925 131.832 117.534 131.489 117.301C131.141 117.072 130.596 116.873 129.855 116.703L128.489 116.394C127.596 116.193 126.965 115.971 126.594 115.729C125.954 115.308 125.633 114.678 125.633 113.841C125.633 112.935 125.947 112.191 126.574 111.61C127.201 111.029 128.088 110.738 129.237 110.738C130.294 110.738 131.191 110.994 131.928 111.507C132.67 112.015 133.04 112.829 133.04 113.951H131.756C131.688 113.411 131.541 112.996 131.317 112.708C130.901 112.182 130.194 111.919 129.196 111.919C128.39 111.919 127.812 112.088 127.459 112.427C127.107 112.765 126.931 113.159 126.931 113.607C126.931 114.102 127.137 114.463 127.548 114.692C127.818 114.838 128.429 115.021 129.381 115.241L130.795 115.564C131.477 115.719 132.004 115.932 132.374 116.202C133.015 116.674 133.335 117.358 133.335 118.255C133.335 119.371 132.928 120.17 132.113 120.651C131.303 121.131 130.361 121.371 129.285 121.371C128.031 121.371 127.05 121.051 126.34 120.41C125.631 119.774 125.283 118.911 125.297 117.822H126.58ZM136.461 110.992H143.813V112.228H137.793V115.289H143.36V116.456H137.793V119.875H143.916V121.076H136.461V110.992Z" fill="black"/>
<path d="M65.6137 59.3338H66.2101L63.4266 69.0762H41.7052V68.5791L47.3219 62.3659C53.0381 56.0532 56.8654 49.84 56.8654 44.3724C56.8654 39.203 54.2807 36.5685 50.5031 36.5685C47.1231 36.5685 44.6378 39.0538 43.6934 43.6268H42.5999C42.9975 36.3697 47.819 32.2938 53.734 32.2938C59.4999 32.2938 63.6254 36.0218 63.6254 41.4894C63.6254 48.5974 56.5672 55.3574 48.4155 63.2606H57.4619C61.4881 63.2606 63.9237 62.7138 65.6137 59.3338ZM77.9407 32.2938C84.4522 32.2938 89.721 36.8668 89.721 46.7582C89.721 58.3894 82.3148 67.2868 71.4293 69.6726L71.0813 68.6785C77.891 66.1435 81.1716 60.4274 82.2154 52.375C80.6248 53.8165 78.1395 55.3077 75.2566 55.3077C70.1369 55.3077 65.9616 50.9832 65.9616 44.5712C65.9616 37.5627 70.9322 32.2938 77.9407 32.2938ZM78.6366 52.3253C80.1775 52.3253 81.4698 51.5797 82.3645 50.7347C82.5137 49.2932 82.5634 47.7524 82.5634 46.2115C82.5634 38.9544 80.9231 33.5862 77.4934 33.5862C74.6104 33.5862 73.169 37.0656 73.169 42.8812C73.169 49.2435 75.1572 52.3253 78.6366 52.3253ZM103.704 32.1944V63.7079C103.704 67.1873 104.897 68.4797 108.277 68.4797V69.0762H91.8743V68.4797C95.2543 68.4797 96.7455 67.1873 96.7455 63.7079V40.2965C95.1549 40.9924 92.769 41.5391 90.8305 41.738V41.0421C96.8946 39.203 100.175 36.1709 102.611 32.1944H103.704ZM115.911 50.188C110.941 50.188 107.859 46.808 107.859 41.4397C107.859 36.2206 110.99 32.5921 115.961 32.5921C120.932 32.5921 124.013 36.0218 124.013 41.3403C124.013 46.6091 120.882 50.188 115.911 50.188ZM113.824 69.0762H112.283L134.153 32.8903H135.694L113.824 69.0762ZM115.961 49.0944C118.645 49.0944 119.689 46.1618 119.689 41.3403C119.689 36.7674 118.595 33.6856 115.911 33.6856C113.227 33.6856 112.183 36.6183 112.183 41.3403C112.183 46.0127 113.277 49.0944 115.961 49.0944ZM132.066 69.3744C127.095 69.3744 124.013 65.9447 124.013 60.6262C124.013 55.3574 127.145 51.7785 132.115 51.7785C137.086 51.7785 140.168 55.1585 140.168 60.5268C140.168 65.7459 137.036 69.3744 132.066 69.3744ZM132.115 68.2809C134.8 68.2809 135.843 65.3482 135.843 60.6262C135.843 55.9538 134.75 52.8721 132.066 52.8721C129.382 52.8721 128.338 55.8047 128.338 60.6262C128.338 65.1991 129.431 68.2809 132.115 68.2809ZM153.707 50.2377H163.002V51.7288H153.707V61.4215H152.017V51.7288H142.722V50.2377H152.017V40.545H153.707V50.2377Z" fill="black"/>
<path d="M90.2812 17.449L89.2575 4.35121L118.364 2.07618L119.387 15.1739L90.2812 17.449Z" fill="#82C6DD"/>
<path d="M84.4564 17.0954C84.2678 16.6342 84.3814 16.0015 84.5672 15.5129C84.6247 15.3598 84.9391 15.4105 84.9927 15.3037C85.0971 15.095 84.9312 14.9211 85.0587 14.7129C85.1025 14.6438 85.5976 14.6868 85.6323 14.6152C85.819 14.2231 85.6668 13.8779 85.741 13.4897C86.1073 11.5775 86.1469 9.7229 86.2215 7.81044C86.2457 7.17989 86.6299 6.38564 86.3854 5.7554C86.3565 5.68186 85.931 5.76031 85.8945 5.74874C85.3356 5.56622 86.2075 5.57328 86.3111 5.41749C86.4992 5.13305 86.5984 4.84165 86.6303 4.55656L86.15 2.35801L89.0521 1.72405C89.3866 1.76144 89.7124 1.70619 90.0081 1.59314C90.2411 1.5028 89.9353 0.669338 90.2128 1.12887C90.2321 1.15988 90.2071 1.62021 90.2764 1.66368C90.4333 1.76138 90.7084 1.65794 90.8262 1.68505C91.0534 1.73961 91.0897 1.73216 91.2997 1.72097C91.5871 1.70963 91.9456 1.90947 92.2449 1.78221C92.3087 1.75369 92.1853 1.29344 92.2838 1.20579C92.3823 1.11825 92.6625 1.1362 92.7645 1.23899C92.8666 1.34184 92.8555 1.71203 92.8786 1.79488C93.0701 2.49441 93.3138 1.48577 93.3531 1.45823C94.0727 0.984987 94.7613 1.4949 95.467 1.43813C96.0026 1.39385 96.5611 1.16408 97.073 1.1496C97.6829 1.13415 98.2175 1.34699 98.8042 1.25736C98.8662 1.24844 98.7503 0.705015 98.8259 0.693009C99.629 0.565942 100.436 0.563075 101.27 0.870892C101.353 0.902246 101.287 1.3925 101.373 1.45266C101.897 1.81029 102.753 2.70107 102.882 0.579012C103.223 0.634846 103.635 0.687807 103.967 1.08757C104.182 1.34483 104.035 1.8847 104.255 1.64207C104.304 1.58796 104.199 1.13342 104.276 1.08705C104.6 0.892296 104.98 1.013 105.295 0.749263C105.36 0.694536 105.309 0.283833 105.322 0.208112C105.437 -0.405583 105.784 0.566974 105.848 0.634587C106.337 1.13806 106.646 0.90069 107.064 0.881308C107.16 0.877041 107.003 0.332353 107.095 0.308362C107.57 0.191347 108.073 0.199904 108.564 0.408669C108.674 0.456438 108.614 0.935559 108.668 0.982515C108.907 1.18381 108.886 0.289295 109.113 0.46516C109.161 0.501092 109.167 0.906765 109.179 0.950465C109.361 1.63648 109.395 0.641635 109.426 0.617297C109.818 0.287334 110.164 1.2961 110.554 1.11895C110.601 1.09672 110.452 0.594371 110.586 0.563109C111.474 0.351824 112.436 0.417825 113.357 0.756838C113.501 0.80886 113.432 1.20031 113.444 1.24693C113.644 1.97495 113.658 0.97745 113.701 0.93663C114.036 0.640347 114.433 1.44485 114.583 0.246411C115.818 0.480328 116.995 0.0245679 118.226 0.320886L119.695 -3.67027e-07L120.119 1.93898C120.046 2.24233 119.927 2.54901 119.742 2.86072C119.731 2.88068 119.241 2.88474 119.221 2.9244C118.983 3.40241 119.734 3.25547 120.685 3.48512C120.924 3.54303 119.822 3.86204 119.742 3.88894C119.445 3.9872 118.714 3.96651 118.657 3.99608C118.214 4.23882 120.611 4.01755 120.633 4.29647C120.63 4.30551 120.185 4.30339 120.143 4.33023C120.011 4.41375 120.192 4.47216 120.046 4.55523C119.707 4.74564 118.545 4.89481 119.243 5.09061C119.334 5.11522 120.691 4.96073 120.646 5.21483C120.627 5.31622 120.685 5.75393 120.606 5.88401C120.528 6.01393 120.083 5.96374 120.064 5.974C119.51 6.35085 119.26 6.24393 118.414 6.47715C117.572 6.71009 119.609 6.50455 119.842 6.55445C120.074 6.60452 119.614 6.88498 119.453 6.95772C119.291 7.03042 119.006 6.97775 118.916 7.03819C118.329 7.43827 119.941 7.11353 120.274 7.20419C121.062 7.41768 119.566 7.74892 119.437 8.01083C119.402 8.08169 119.743 7.99949 119.78 8.05728C119.921 8.28652 119.46 8.46709 119.915 8.70501C119.989 8.74395 120.916 8.89253 120.259 9.08692C120.164 9.11459 119.783 9.08683 119.706 9.19524C119.591 9.35722 119.53 9.63768 119.669 9.79131C119.772 9.90471 120.382 9.7178 120.201 9.88481C120.12 9.95906 119.747 9.86234 119.625 9.99947C119.504 10.1359 119.545 10.4573 119.567 10.5791C119.589 10.7006 120.056 10.5967 120.088 10.6041C120.275 10.6498 120.52 10.8672 120.521 10.888C120.661 11.9318 119.942 12.9605 120.285 13.9605C120.311 14.039 120.804 13.9468 120.813 13.9584C121.043 14.2163 119.704 14.1034 119.277 14.3295C120.283 14.223 120.109 14.3504 120.235 14.5348C120.297 14.6237 120.683 14.5425 120.724 14.5478C121.328 14.6395 120.569 14.7955 120.414 14.8325C119.845 14.969 120.534 15.0152 120.153 15.1075C120.138 15.1112 120.123 15.1146 120.107 15.1177L120.239 15.72L119.444 15.8937C119.409 15.7194 119.409 15.5118 119.4 15.3412L119.585 15.3008L119.555 15.1609C119.499 15.1636 119.447 15.1671 119.401 15.1729L119.404 15.1845L119.388 15.1878C119.374 15.072 119.344 14.9978 119.276 15.0059C119.252 15.371 119.463 16.3037 119.335 16.4676C118.849 17.0875 117.801 16.4246 117.368 16.3811C116.937 16.3375 116.804 16.4149 116.546 16.3038C116.079 16.1029 116.298 16.7901 116.045 17.1323C115.791 17.4744 115.792 15.7415 115.723 15.3744C115.655 15.0074 115.641 15.3917 115.577 15.1921C115.512 14.9925 115.598 14.7325 115.477 14.6651C115.356 14.5978 115.093 15.2807 115.083 15.671C115.061 16.498 115.27 17.3477 114.942 17.069C114.923 17.0524 114.945 16.5951 114.874 16.5546C114.315 16.2475 113.761 16.2691 113.206 16.0022C113.129 15.9648 113.155 15.4559 113.11 15.4285C112.642 15.1408 112.867 15.9779 112.698 16.9406C112.654 15.6805 112.46 14.9226 112.124 14.9415C111.921 14.9524 111.999 15.4981 111.899 15.8949C111.868 16.0145 111.696 15.6491 111.69 15.9091C111.671 16.7589 111.879 17.6923 111.503 17.3435C111.487 17.3269 111.499 16.8615 111.444 16.8377C111.091 16.6813 111.119 17.5664 110.76 17.7019C110.479 17.8082 109.926 17.3103 109.591 17.2485C109.488 15.836 109.204 16.1835 109.155 17.1668C108.939 17.1436 108.714 17.2165 108.498 17.098C108.423 17.0577 108.438 16.6453 108.426 16.6018C108.235 15.9196 108.216 16.8739 108.173 16.9146C107.704 17.3144 107.243 16.6283 106.823 17.3669C106.809 17.3935 106.858 18.3764 106.675 17.6702C106.663 17.6215 106.785 17.163 106.559 17.1459C106.333 17.1288 105.871 16.6359 105.597 17.1146C105.53 17.2299 105.403 18.0409 105.202 17.4307C105.175 17.3478 105.175 17.0648 105.134 16.9106C105 16.4192 105.026 17.4146 104.849 16.5811C104.672 15.7476 104.391 15.135 104.124 15.7405C104.115 15.7582 104.103 16.5497 104.003 16.5449C103.845 16.5367 103.609 16.3904 103.446 16.4084C103.368 16.4172 103.456 16.9012 103.443 16.9112C102.937 17.2258 102.527 16.8202 101.948 16.6756C101.841 16.6481 101.596 17.3367 101.354 16.8264C101.089 16.2678 101.128 13.8549 100.666 14.4651C100.48 14.7093 100.459 17.7683 99.9691 16.2225C99.2881 16.6683 98.5671 15.9139 97.8972 16.5268C97.867 16.5539 97.8319 17.41 97.7555 17.4043C97.6421 17.3943 97.5496 17.0027 97.4676 16.9829C97.1233 16.8897 96.8432 17.2528 96.516 17.2253C96.3919 17.2157 96.4027 16.8025 96.2546 16.791C96.1067 16.7799 96.0514 17.3272 95.8329 17.082C95.6678 16.895 95.432 15.8036 95.2233 15.6905C95.3008 16.7793 95.1627 16.7675 94.9427 17.0737C94.9004 17.1331 94.98 17.5079 94.9615 17.5555C94.8871 17.7577 94.7795 17.4503 94.711 17.6695C94.6942 17.7221 94.7223 18.0938 94.7103 18.1578C94.609 18.7164 94.3063 17.899 94.2542 17.7567C94.0548 17.2161 94.0196 17.7052 93.8827 17.4969C93.7461 17.2886 93.9037 17.0025 93.7536 16.8814C93.4426 16.6308 93.0751 16.7199 92.7796 16.7259C92.6619 16.7305 92.7808 17.2203 92.7648 17.2325C92.5319 17.3773 92.2452 16.8688 92.1879 17.8674C91.8199 15.3258 92.0609 18.1266 91.674 17.6423C91.6434 17.6031 91.5142 16.3977 91.6053 16.2121C91.6964 16.0267 91.885 16.3919 92.0089 16.1041C92.0383 16.0365 92.1473 14.8889 92.1689 14.8182C92.338 14.2658 92.5091 16.0689 92.528 16.1671C92.7382 17.2274 92.8842 15.9889 92.9412 15.8996C93.2017 15.4908 93.4685 15.7254 93.6901 15.4307C93.8352 15.2402 93.7583 14.0563 93.886 14.0828C94.3105 14.17 94.5843 15.8084 94.8637 14.3474C94.9237 14.0357 94.7393 12.7497 95.1193 13.7426C95.1432 13.8052 95.439 14.7175 95.522 14.1193C95.5324 14.0439 95.5024 13.6673 95.5213 13.6339C95.6484 13.4181 95.7673 13.7107 95.912 13.5548C96.0566 13.3989 96.2273 13.17 96.4153 13.2838C96.5285 13.3518 96.721 14.0429 96.7858 14.2107C96.9694 14.6944 97.0614 13.8707 97.1981 14.463C97.3358 15.0584 97.2302 15.9871 97.4981 16.3578C97.4304 15.3784 97.3721 14.3723 97.3093 13.3869C97.8326 13.3807 98.3694 13.6572 98.8883 13.5731C98.9525 13.5617 98.8452 13.0407 98.913 13.0149C99.1993 12.9085 99.4844 13.2635 99.7764 13.0904C100.002 12.9544 100.217 12.3772 100.451 12.2176C100.689 13.3258 101.024 12.9171 101.297 12.9987C101.393 13.0269 101.41 13.3264 101.483 13.4189C101.761 13.7603 101.567 12.7798 101.623 12.6187C101.864 11.9311 102.064 14.1691 102.405 14.0868C102.423 14.0832 102.553 12.8717 102.578 12.7949C102.736 12.2948 102.643 13.208 102.773 13.2866C103.009 13.4304 103.186 13.7034 103.421 13.3332C103.49 13.2236 103.615 12.465 103.809 13.0291C103.834 13.1029 103.854 13.4984 103.872 13.5203C104.187 13.8833 104.097 12.6426 104.227 12.2099C104.357 11.7773 104.675 12.6137 104.746 12.8564C104.93 13.4842 104.665 13.1372 104.662 13.2004C104.635 13.9525 104.809 13.8098 104.954 13.8618C105.069 15.0762 105.259 14.9879 105.104 13.9109C105.086 13.7933 104.986 13.9152 104.954 13.8618C104.983 12.6592 105.187 12.4896 105.512 13.5859C105.664 14.0997 105.606 14.7171 105.927 14.4678C106.072 14.3552 105.948 13.5226 106.065 13.2838C106.334 12.7388 106.797 13.4884 107.106 13.3404C107.219 13.2867 107.07 12.8372 107.146 12.7847C107.346 12.6439 107.558 12.9733 107.755 12.7807C107.773 12.7626 107.689 12.2865 107.754 12.2753C108.246 12.1807 108.703 12.4542 109.223 12.4221C109.474 12.4064 109.902 12.1068 110.166 12.1397C110.623 12.1939 111.231 12.8482 111.603 12.6486C111.845 12.5206 111.752 12.045 111.834 11.7097C111.992 11.0597 112.448 12.1662 112.511 12.3381C112.513 12.3438 112.306 12.4738 112.441 12.7111C112.548 13.2191 112.509 12.3405 112.511 12.3381C112.553 12.4491 112.992 12.5243 113.071 12.4259C113.114 12.3722 113.052 11.9196 113.075 11.9001C113.62 11.4482 114.188 11.2875 114.79 11.4544C114.801 11.4628 114.825 11.9725 114.85 11.9859C115.207 12.1855 115.375 11.5465 115.625 11.1553C115.875 10.7643 116.107 10.8706 116.34 11.7307C116.542 11.6043 116.875 11.9667 117.067 12.1872C117.259 12.4078 117.206 11.4161 117.22 11.3953C117.648 10.7316 117.968 11.2767 118.47 11.3261C118.621 11.3421 118.859 11.2758 119.076 11.1926L115.406 15.4851C115.358 15.3593 115.304 15.2406 115.257 15.1501C115.154 14.9555 115.376 14.816 115.213 14.642C115.191 14.6184 114.753 14.6782 114.735 14.6719C114.192 14.5059 115.277 14.5213 115.466 14.4635C116.154 14.2537 116.519 14.1288 116.169 13.8892C116.089 13.8339 114.523 13.777 114.424 13.6725C114.298 13.5365 114.858 13.5477 114.711 13.4064C114.699 13.3943 114.356 13.4238 114.364 13.3289C114.396 12.8888 114.558 12.3989 114.489 11.9495C114.481 11.888 113.943 12.0097 113.922 11.9216C113.825 11.508 113.809 11.0475 114.032 10.6197C114.088 10.5143 114.474 10.5475 114.586 10.5168C115.26 10.3295 114.25 10.2175 114.229 10.1877C113.693 9.4783 114.548 8.83643 114.06 8.1088C114.031 8.06933 112.94 7.83375 113.844 7.62C113.904 7.6055 114.828 7.39161 114.179 7.31714C114.138 7.31253 113.663 7.4379 113.701 7.28098C113.738 7.12408 113.397 6.90286 113.909 6.65108C114.071 6.57143 114.992 6.34104 114.232 6.20048C114.179 6.19159 112.473 6.0163 113.625 5.81609C113.815 5.78341 115.045 5.70599 114.396 5.51804C114.271 5.48227 114.003 5.58594 113.823 5.47993C113.545 5.31763 113.855 5.04957 113.29 4.86749C113.19 4.83585 112.344 4.73409 112.966 4.55074C113.063 4.52203 113.477 4.52982 113.517 4.45552C113.711 4.10207 113.409 3.77143 113.666 3.40785C113.756 3.27914 114.424 3.28916 114.592 3.14923C114.759 3.00927 114.91 2.74194 114.597 2.63371C114.284 2.52545 113.239 2.75215 113.139 2.5611C113.126 2.53659 113.114 2.51202 113.103 2.48739L118.775 7.33705C117.965 7.70325 117.093 7.18158 116.253 7.15869C116.125 7.1551 116.26 7.52486 116.073 7.54669C115.384 7.62886 114.218 8.07658 113.555 7.32026C113.024 6.71451 113.591 6.17745 113.203 5.94436C113.016 5.83333 112.92 7.07647 112.88 7.11848C112.493 7.54392 112.16 7.02258 111.797 7.21891C111.722 7.25962 111.837 7.75144 111.773 7.78059C111.553 7.88457 111.299 7.68094 111.086 7.73845C110.991 7.76539 111.038 8.14419 110.947 8.12181C110.729 8.07264 110.528 7.92756 110.292 7.58747C110.27 7.55648 110.361 7.07356 110.202 7.0683C109.945 7.06113 109.6 6.73437 109.335 7.12034C109.256 7.23635 109.321 8.10553 109.087 7.5201C109.038 7.39784 109.006 6.35055 108.858 7.26912C108.833 7.4218 108.562 8.66643 108.321 7.89668C108.257 7.6941 108.069 6.84977 107.975 6.99214C107.962 7.01466 108.056 7.47693 107.973 7.52924C107.679 7.70549 107.354 7.68076 107.051 7.85152C106.97 7.89804 107.133 8.37123 107.011 8.42514C106.677 8.57412 106.237 8.48472 105.889 8.35986C105.761 8.3129 105.815 7.90613 105.803 7.86329C105.602 7.16649 105.591 8.12904 105.547 8.18854C105.274 8.54569 105.01 8.11453 104.743 8.25494C104.67 8.29247 104.759 8.74401 104.747 8.78583C104.621 9.1952 104.674 8.36756 104.568 8.28512C104.269 8.05147 103.96 8.11241 103.683 8.19271C103.581 8.22287 103.739 8.74223 103.647 8.76319C103.103 8.89728 102.527 8.89145 101.967 8.64211C101.861 8.59421 101.893 8.1823 101.865 8.09101C101.669 7.45211 101.525 8.35571 101.483 8.44403C101.29 8.84723 101.175 8.49414 100.984 8.57669C100.049 8.98625 98.843 8.84068 97.9241 8.76437C96.7268 8.66729 95.779 8.35189 94.6593 8.54055C94.588 8.55203 94.7026 9.08772 94.6418 9.10457C93.8544 9.29742 93.0526 9.14726 92.2656 9.36609C92.2009 9.38308 92.3356 9.88889 92.2332 9.93342C92.0233 10.0284 91.7476 10.0218 91.5165 9.87505C91.4039 9.80441 91.5123 9.35288 91.3996 9.29079C91.1371 9.14519 90.8668 9.12955 90.6168 9.23186C90.5106 9.27652 90.7162 9.78852 90.5749 9.80566C90.2797 9.84481 89.9865 9.88744 89.692 9.91029L94.8166 3.9167C94.8682 4.58176 94.8189 5.25299 94.4007 5.96633C94.3592 6.03689 93.2971 6.17899 93.5127 6.30527C93.8096 6.29285 94.1578 6.26504 94.4746 6.24499C94.755 7.63773 94.494 9.05834 94.547 10.4728C94.5494 10.5324 95.1065 10.3855 95.114 10.5007C95.1577 11.1675 95.3648 11.8022 94.8563 12.5275C94.8066 12.5994 93.8096 12.6424 93.9755 12.8299C94.0057 12.8629 94.1618 13.1526 94.3837 13.2133C94.4171 13.2213 94.8769 13.1303 94.898 13.2259C95.0124 13.7823 94.9525 14.3794 94.7128 14.9625C94.6732 15.0567 94.1714 14.999 94.1389 15.0664C93.9123 15.5443 94.3269 16.0124 93.9123 16.4845C93.633 16.8007 92.7702 16.7592 91.9414 16.9804C91.8244 17.0116 91.8198 17.1943 91.3312 17.2419C90.1027 17.3621 88.7486 17.3797 87.44 17.5182C87.1581 17.5479 87.4813 17.7667 86.7875 17.6764C86.741 17.6699 86.5007 17.5118 86.2657 17.4865C86.1033 17.4689 85.6099 17.5621 85.4001 17.5166C85.1906 17.4711 85.6024 17.3708 85.3536 17.2876C85.1019 17.2047 84.5393 17.2938 84.4564 17.0954ZM117.932 13.1727C118.13 13.6355 118.018 11.8926 117.876 12.3227C117.869 12.3456 117.922 13.1501 117.932 13.1727ZM98.4692 14.9707C98.7397 15.7222 98.7955 14.5817 98.6006 14.0002C98.4058 13.4194 98.3868 14.7429 98.4692 14.9707ZM96.3299 15.702C96.6233 16.2882 96.469 13.8163 96.2445 14.336C96.2314 14.3654 96.3127 15.6679 96.3299 15.702ZM91.6456 16.2782C91.6226 16.2822 91.6103 16.4142 91.6334 16.4155C92.1918 16.4416 92.2161 16.1777 91.6456 16.2782ZM94.2112 16.4817C94.3141 16.8097 94.5052 16.4069 94.3773 15.999C94.2743 15.6709 94.0831 16.0737 94.2112 16.4817ZM118.588 8.08402C118.614 8.07945 118.63 7.98427 118.483 7.99761C118.011 8.04087 118.155 8.16038 118.588 8.08402ZM90.5315 16.7979C91.0827 16.8483 91.572 18.862 90.9616 18.6782C90.8511 18.6449 91.142 18.0097 90.9911 17.8366C90.715 17.5211 90.6492 18.8146 90.3406 18.1483C90.2847 18.0264 90.4997 16.7905 90.5322 16.795C90.532 16.796 90.5317 16.7969 90.5315 16.7979ZM118.188 15.2568C118.193 15.2795 118.324 15.2913 118.325 15.2682C118.352 14.71 118.088 14.686 118.188 15.2568ZM119.239 2.55211C119.287 2.54114 119.309 2.23763 119.264 2.23139C118.347 2.14558 118.299 2.75941 119.239 2.55211ZM109.583 17.2112C109.486 17.7783 109.322 17.857 109.155 17.1675C109.298 17.1936 109.44 17.188 109.583 17.2112Z" fill="#82C6DD"/>
</svg>
