<svg xmlns="http://www.w3.org/2000/svg" width="47" height="53" fill="none" viewBox="0 0 47 53"><path fill="#a9a9a6" d="M46.598 16.765c0-1.865-1.36-3.379-3.033-3.379H3.858c-1.674 0-3.033 1.514-3.033 3.379 0 1.721 1.166 3.124 2.654 3.339l14.654 22.032v6.318c0 .359.222.678.544.757l9.769 2.47c.05.016.1.016.15.016a.66.66 0 0 0 .436-.167.8.8 0 0 0 .258-.606v-8.788l14.654-22.04c1.488-.207 2.654-1.61 2.654-3.331m-9.655 11.267c-.036-.008-.072-.024-.108-.024H10.466l-5.228-7.865h36.954zm-8.905 13.394a.86.86 0 0 0-.136.462v8.072l-8.382-2.12v-5.952a.86.86 0 0 0-.136-.462l-7.888-11.872h24.438zm15.527-22.828H3.858c-.909 0-1.645-.821-1.645-1.833s.736-1.833 1.645-1.833h39.707c.909 0 1.645.821 1.645 1.833s-.736 1.833-1.645 1.833"/><path fill="#a9a9a6" d="M45.721 16.76a3.57 3.57 0 0 0-.838-1.828c-.1-.11-.038-.16-.078-.213-.077-.097-.288-.127-.31-.137-.14-.078-.022-.174-.038-.19-.213-.162-.21.016-.432-.034a3 3 0 0 0-.46-.055c-.28-.006-.575-.016-.86-.02-.19-.004-.105-.113-.513-.104-.289.006-1.174.131-1.582-.002-.003-.05.049-.106.07-.158-.584.21-.794.2-1.623.15-.13-.009-.255.078-.486.046s-.24-.165-.705-.163c-.165 0-.265.094-.517.098-.718.012-2.087-.105-2.676-.109-1.161-.008-1.793.152-2.824.097-.08-.004.095-.107-.05-.11-.148-.001-.3.135-.337.138-.39.035-1.213-.147-1.43-.125-.527.054-.008.114-.738.14-.695.024-1.656-.153-2.345-.188-.799-.04-1.057.218-1.658-.051-2.113.015-4.234.025-6.35.039l.02-.161-.5.11q.036-.059.074-.118a9.4 9.4 0 0 1-2.404.19c-.018 0 .03-.107.014-.11-.207-.02-.438.062-.62.043-.439-.046-1.185-.28-.856.005-1.024-.058-2.227.038-3.203-.017-.422-.024-.549-.193-.75-.203-.203-.01-.1.136-.172.141-.43.033-1.14.027-1.214-.136l-.266.196c.051-.18-1.28-.106-1.629-.11-.064 0-.073-.08-.12-.079-.537.01-.668.134-1.128.175-.161.015.089-.125-.325-.065-.036.006-.017.13-.511.13-.38 0-.925.01-1.493.016-.485 0-.964.188-1.301.396-.054.035.023-.197-.195.012-.075.08.021.113-.157.292-.503.518-.869 1.28-.86 2.077.002.283.05.563.145.82-.113-.005-.336-.355-.114.192.04.084.111-.012.128.025.133.294.204.582.448.84.073.075.148.046.244.124.143.11.13.248.33.34.32.128.376.055.686.38q.17.052.345.075l.235.03.143.21c1.513 2.246 3.046 4.466 4.471 6.761.505.653.98 1.25 1.473 1.952.145.207.056.324.318.634.058.07.539.523.357.756.12.136.183.23.28.35-.03-.12-.062-.243-.089-.36.323.566.699.953 1.056 1.406.263.334-.003.15.15.36.154.21.242.293.302.643.28.12.277.326.534.72.027.043.243.25.367.46.09.152.032.253.2.476.028.037.461.457.575.607.177.233.324.694.354.741.435.698.72.889.864 1.494.172.027.504.391.711.726.262.422.596 1.397.902 1.357.216.547.244.453.624 1.02.267.398.82 1.34 1.19 1.938l.087.126.002.167c-.006.207-.009.38-.005.495.014.503.169.258.19.457.033.327-.08.15-.079.374.005.633.027 1.183.076 1.787l-.24.101.08.094c0 .13.001.276-.001.396.35-1.015-.026.98-.035 1.58-.004.278.044.658.095 1.035.041.099.136.105.116.072-.008-.014-.03.07-.032.068l.003-.005c.268.04.35.009.74.115.223.061.425.224.643.28 1.598.42 3.17.705 4.765 1.096.27.067.472.254.698.314.325.086.557.033.863.109.305.075.712.312.923.344.211.034-.111-.177.258-.048.17.06-.16.072.054.13.241.063.522.121.815.182l.035.01c-.058-.02-.081-.015-.029-.018.017-.008.012-.01.038-.033a.34.34 0 0 0 .066-.146q.01-.132.03-.258c-.028.033-.053.077-.08.117.01-.783.078-1.475.088-2.284.003-.283-.079-.793-.078-1.07 0-.278.089-.405.091-.627.002-.092-.078-.056-.076-.117.02-.768.162-1.19.146-1.993l-.049-2.556-.002-.15.089-.137c1.145-1.794 2.307-3.609 3.456-5.404.065-.102.023-.226.108-.381.13-.238.213-.199.236-.227.147-.185.023-.152.199-.415.386-.58 1.07-1.475 1.45-2.057.873-1.34 1.55-2.505 2.385-3.835.06-.096.12.036.23-.126.776-1.144.84-1.453 1.82-2.867.98-1.415 2.84-4.078 3.97-5.746.097-.388.314-.776.583-1.127l.184-.285.357-.055q.325-.012.662-.057c-.186.137-.399.242-.627.307l-.242.037-.124.193c-1.659 3.238-3.777 6.042-5.91 9.287-2.422 3.683-4.686 7.822-7.205 11.512-.237.346-.438.416-.611.725-.03.052.139-.022.045.137q-.216.366-.445.73l.018-.06c.055 2.273-.117 4.645-.062 6.848.017.669.128.774.157 1.362-.052-.103-.107-.171-.16-.261q-.026.42-.044.84a.8.8 0 0 1-.274.586.63.63 0 0 1-.556.13c-1.904-.528-3.831-.98-5.762-1.486-.118-.031-.107-.14-.23-.176-.248-.07-.517-.016-.736-.067-.286-.067-.314-.163-.578-.224-.128-.03-.11.06-.386-.023-.023-.007-.017-.096-.204-.131-.473-.09-1.4-.26-1.879-.352a.6.6 0 0 1-.11-.032c-.328-.134-.395-.5-.35-.695.023-.135.042-.245.046-.323.023-.565-.112-.553-.112-1.032 0-1.676.037-3.315.074-4.963v-.032l-.017-.023c-.911-1.44-1.827-2.889-2.81-4.364-.121-.183-.694-.775-.914-1.116-.073-.114-.434-.728-.49-.818-.23-.367-.36-.728-.477-.937-.225-.405-.628-.757-.78-.958-.264-.354-.683-1.017-.783-1.174-.24-.377-.013-.35-.225-.596-.063-.072-.12.085-.304-.194-.155-.233-.134-.383-.225-.553-.09-.169-.415-.375-.478-.476-.327-.531-.394-.817-.766-1.385-.309-.472-1.81-2.601-1.961-2.761-.674-.717.282.588.328.666.246.428.153.403.525.745-.065.57 1.263 1.526 1.114 2.096.469.175.535.54.722.929.26.537.152.068.392.426.094.14.256.624.413.826s.3.235.495.517c.346.502.578.937.76 1.431.098.048.191.091.287.139l.444.98.025-.22.188.248.394.971c.76.65.408.548.674 1.012.267.465.57.635.799.978.309.462.466.663.767 1.136.175.275.353.818.304.307.453.654 1.057 1.482 1.5 2.2a9 9 0 0 1-.043.648c-.028.268-.104-.09-.114-.044-.044.228.079.42.061.654-.03.39-.125 1.149-.148 1.456-.032.441.127 1.136.139 1.207.065.396-.068.503-.059.63.054.726.11.886-.17 1.114.066.103.157.387.192.653.027.257.127.463.117.605.091-.06.264.154.556.204.187.033.393.08.56.102l.18.21c.893-.114 2.454.527 3.514.836.027.008.108-.114.262-.043.01.005-.023.06.084.096.349.115 1.669.608 1.825.649.573.15.699.076 1.051.155.464.104.508.21.95.309.207.046.423-.025.742.073.189.058.184.156.334.202q.114.034.22.063l-.013-.004c.094.03.175.028.223.029a.94.94 0 0 0 .598-.224 1.34 1.34 0 0 0 .418-.683.4.4 0 0 1-.114-.109c-.112-.134.042-.328.061-.528.094-.992-.035-2.227-.007-3.078.06-1.81.166-3.48.241-5.182l-.084.278c.469-.641.935-1.292 1.403-1.971.239-.347.168-.517.42-.879.114-.163.32-.272.5-.541.147-.217.307-.56.487-.83.048-.073.14-.022.21-.127.541-.803 1.003-1.63 1.501-2.472.185-.312.424-.422.19-.504.126-.082.243-.166.363-.242.15-.498.506-.75.847-1.333.037-.063.18-.578.44-.752-.06-.065-.145-.067-.205-.117.13-.256.455-.566.57-.72s.094-.324.125-.373c.12-.185.213-.061.224-.074.685-.777.56-.73.721-1.367.04-.16.757-.948.73-1.222.065.031.084.115.13.166l.574-.763c-.093.018-.195.048-.285.062.408-.508.573-1.045.871-1.484.17-.25.275-.137.346-.304.014-.032-.102-.04-.052-.13.412-.739.706-.987 1.19-1.68.227-.324.266-.714.681-1.12.038-.037.483-.41.479-.826.122-.05.208-.11.305-.143.096-.773.273-.424.862-1.164.17-.215.516-.75.832-1.26l-.187.118c.512-.082.947-.32 1.15-.465.275-.202.176-.316.22-.353.242-.241.333-.149.534-.407.198-.265.276-.684.407-.967.098-.223.192.018.25-.355.007-.077-.177.095-.034-.262.032-.048.257-.649.276-.788.122.332.027 1.367-.146 1.733-.33.93-1.207 1.983-2.603 2.249l.457-.287c-3.26 5.588-8.597 13.605-11.69 18.137-.336.494-.672.74-.898 1.058-.227.318.065.116-.14.405-.205.288-.425.451-.615.722l-1.238 1.767.125-.413a369 369 0 0 0-.085 4.534c-.007.574.1 1.033.1 1.555 0 .203-.138.21-.137.354.006.803.044 1.574.077 2.345a1.5 1.5 0 0 1-.48 1.155c-.226.21-.574.362-.915.361-.047 0-.191.01-.376-.047l.043.012a29 29 0 0 1-.863-.213c-.622-.164-1.266-.447-1.88-.613-.507-.138-1.053-.194-1.511-.308-.249-.062-.354-.197-.442-.227-.305-.106-.228.046-.387.006-.441-.112-.622-.318-1.038-.41-.164-.037-.167.064-.406.02-.303-.057-.17-.117-.383-.175-.013-.003.012.076-.102.05-.733-.166-1.655-.342-2.356-.524l-.394-.106c-.715-.19-1.072-.869-1.05-1.45.045-1.013.114-2.007.133-2.962.006-.353-.086-.26-.09-.371-.021-.54.089-.732.05-1.296-.007-.094-.135-.472-.102-.833.017-.195.096-.416.115-.582.014-.127-.05-.172-.082-.276l.11.365a.4.4 0 0 1-.078-.088c-.202-.302-.076-.26-.376-.684-.12-.171-.6-.692-.891-1.145-.477-.741-.997-1.706-1.57-2.572-.197-.297-.55-.611-.858-1.07-.375-.562-1.04-1.612-1.423-2.19-.195-.294-.104-.385-.123-.423-.12-.245-.177-.076-.273-.23-.132-.212-.174-.463-.294-.655-.076-.122-.175-.084-.193-.11-.67-.944-1.228-1.801-1.874-2.753-2.265-3.334-4.57-6.672-6.832-10.025l.562.356c-2.056-.28-3.405-2.276-3.36-4.146a4.44 4.44 0 0 1 .523-2.09c.324-.553.45-.49.806-.907.354-.396.731-.962 1.298-.841-.009-.065-.026-.106-.031-.165.411-.12.836-.188 1.26-.19.607-.004 1.212-.045 1.808-.052.679-.009 1.28.001 1.907.008.556.007.508.116.99-.027 2.39.09 4.807.068 7.177.217.556-.235 1.089-.087 1.858-.052.094.004-.007-.081.274-.074.354.009.537.14 1.132.132.157-.002 1.325-.147 1.757-.072.432.074 1.058.117 1.506.188-.063-.056-.144-.11-.215-.165l.672-.028q.05.1.097.202l.39-.192c.284.346-.006.233.623.145.315-.043.566.017.89-.018.116-.013.19-.115.319-.128.315-.031.131.11.326.108.196 0 .478-.155.83-.086-.368.274.693.185.743-.029.126 0 .232.009.372.003-.13.539.532.156.794.083.262-.074.252.07.313.065.177-.016.048-.076.172-.078.82-.012 1.593.076 2.403.085.116 0 .013-.081.149-.073s.266.09.467.084c.054-.002.07-.074.155-.074 1.76.004 3.432.065 5.227.074.162 0 .29-.127.604-.123s.79.12 1.18.13c.104.002.132-.105.269-.102.467.01.869.096 1.354.11.819.024 1.677-.04 2.508.022.158.012.132.1.36.126.307.033.283-.039.296-.08.005-.011.012-.02.033-.024.314-.047.391.137.68.153.046.003.006-.11.046-.103.629.164.553.39 1.16.637.37.453-.41-.082-.536-.031-.27.06.134.495.3.749.155.215.226.14.3.218.398.4.755 1.196.76 1.631.013.257-.114-.187-.127-.051-.01.13.084.2.008.338-.074.143-.34.39-.468.342m-44.588.427a1.3 1.3 0 0 1-.18-.422c-.414-1.107.833-3.133 2.055-3.314.296-.084.595-.09.85-.057.668.083 1.112.162.95-.19-.33-.001-.644.002-.95.007-.83.016-1.601.368-2.238 1.042-.108.083-.605.727-.7 1-.064.145-.143.121-.21.333-.017.047.018.328 0 .419-.036.154-.12.46-.159.76a3 3 0 0 0-.022.685c.087.382.183.204.244.357.233.488.088.624.427 1.066.065.079.372.246.638.524.106.116.273.35.383.415.366.226.82.35 1.245.378l-.06-.038c.149.193.289.383.404.569.254.41.078.372.205.594s.42.397.523.537c.166.225.285.554.334.625.965 1.407 1.886 2.617 2.826 3.968-.571-.962-1.145-1.921-1.71-2.879-.459-.453-.183-.26-.379-.627-.155-.291-.383-.235-.602-.608-.112-.192-.251-.678-.567-1.038-.012-.012-.13.016-.33-.277-.18-.263-.403-.578-.636-.91a2.74 2.74 0 0 1-1.607-.776c-.182-.193-.06-.234-.235-.477-.121-.179-.36-.339-.479-.676-.14-.43.016-.655-.294-.913.092-.037.185-.037.274-.076m21.885-3.75c.063.01.903.308.654-.01-1.129-.138-2.35-.07-3.537-.147.406.314 1.092.19 1.924.167h.001c.04 0-.125.081.099.066.108-.007.524-.133.86-.077m13.717 15.446c-.13-.034-.129.002.1.021-.51.092-1.02.13-1.545.086-.128-.01-.116-.093-.168-.106-.097-.025-.26.064-.282.064-.141.001-.086-.143-.105-.148-.212-.059-.15.105-.353.12-.264.021-.602-.008-.92-.016-.11-.003-.061-.113-.302-.104-.17.007-.693.132-.934-.002-.001-.05.03-.106.042-.158-.345.21-.469.201-.958.15-.078-.008-.151.078-.287.046-.137-.032-.142-.165-.417-.163-.097 0-.156.095-.305.099-.424.011-1.232-.105-1.58-.11-.685-.007-1.058.153-1.667.097-.047-.004.056-.107-.03-.109-.087-.002-.177.135-.198.138-.23.035-.717-.148-.845-.125-.31.053-.004.114-.435.14-.411.024-.978-.153-1.385-.188-.472-.04-.624.217-.979-.052-1.247.016-2.5.026-3.748.04l.012-.162-.297.111.044-.119c-.463.154-.877.233-1.419.191-.01 0 .018-.108.009-.11-.122-.02-.259.062-.366.042-.26-.046-.7-.28-.506.006-.604-.059-1.315.038-1.89-.018-.25-.024-.325-.192-.444-.202-.12-.01-.059.135-.1.14-.255.033-.674.027-.718-.135q-.077.097-.157.196c.03-.18-.755-.106-.961-.11-.038-.001-.043-.08-.072-.08-.316.01-.394.134-.665.176-.095.014.052-.125-.192-.065-.021.005-.01.13-.302.13-.238-.001-.586.011-.944.016l-.308.007-.193-.276a9 9 0 0 1-.512-.823c-.02-.04.17 0 .028-.156-.051-.056-.112.027-.214-.124-.395-.587-.72-1.277-1.196-1.827.106-.039.35.108.079-.176-.044-.045-.1.047-.118.026-.148-.171-.197-.372-.363-.553-.049-.054-.123-.026-.187-.09-.096-.096-.037-.205-.16-.307-.195-.16-.301-.133-.297-.494-.757-1.12-1.536-2.222-2.256-3.362l-.593-.854 1.062-.021q.498.012.996.037c.486-.058.935-.123 1.441-.145.15-.006.178.132.416.086.053-.01.433-.159.489.122.105-.024.172-.025.263-.04q-.105-.062-.206-.125c.384.045.697-.053 1.036-.1.25-.034.073.086.226.074s.224-.04.415.105c.15-.166.251-.05.529-.045.03 0 .202-.064.346-.052.104.01.135.113.3.097.026-.002.374-.13.485-.142.173-.019.447.114.48.116.486.023.673-.108 1.017.108.07-.128.357-.204.59-.191.293.016.881.278.962 0 .339.124.302.048.705.046.366-.003 1.337.103 1.634.088s.152-.17.27-.19c.193-.034.089.08.22.078a8 8 0 0 0 1.056-.076l.06.24.055-.08c.076 0 .162 0 .233.002-.6-.35.58.026.933.034.298.008.795-.159 1.122-.194.08-.01.025.077.042.075.191-.025.22-.084.478-.075.137.004.276.112.409.114.975.015 1.916-.094 2.885-.106.165-.002.307.13.446.133.198.004.323-.104.509-.106.185-.001.453.128.578.108.126-.02-.09-.144.141-.11.106.016-.08.109.05.112.407.009.983-.107 1.417.005q-.032-.04-.069-.08c.463.011.871.078 1.348.088.167.004.468-.078.632-.078.165 0 .24.09.37.092.055.001.033-.079.07-.077.453.021.701.163 1.176.146 1.738-.058 3.53-.11 5.296-.162.07-.003.119-.106.222-.122.16-.023.168.068.189.072.14.02.082-.065.27-.065.41 0 1.074.075 1.484.069.945-.015 1.739-.096 2.665-.137.067-.003.022.12.138.121l.135.001 1.278-.026-.702 1.102c-.388.586-.419.817-.975 1.596-.59.827-1.714 2.382-2.387 3.363-.02.437-.335.809-.7 1.048.82-2.24 2.255-3.949 3.609-6.022l.13-.2.306-.483-.559.012c-2.533.044-5.22.424-7.776.37-.248-.005-.348-.134-.557-.107-.035.005.056.104-.052.114-1.492.136-3.082-.091-4.547-.028-.395.017-.457.128-.804.156.06-.052.1-.107.154-.16-1.586-.163-3.174-.09-4.78-.114-.072-.001-.081-.11-.157-.114-.152-.008-.298.111-.43.115-.174.006-.204-.08-.364-.075-.078.003-.055.086-.224.072-.014-.001-.024-.088-.137-.077-.309.03-.94.104-1.196.126-.326.027-.589-.104-.712-.112-.334-.023-.327.111-.61.111-2.012 0-3.935-.152-5.994-.15-.13 0-.608.149-.847.143-.08-.003-.5-.042-.563-.045-.255-.013-.475-.103-.616-.122-.273-.037-.578.104-.726.118-.26.025-.724.006-.833.003-.264-.009-.177-.184-.367-.143-.056.012.003.146-.195.146-.165 0-.232-.101-.345-.12-.113-.017-.32.139-.39.135-.368-.022-.531-.124-.932-.13-.332-.003-1.87.068-1.998.105-.573.164.38.09.435.096.29.032.248.094.538-.026.259.37 1.162-.206 1.394.233.24-.292.44-.145.693-.086.348.082.083-.09.337-.09.1 0 .39.132.541.114.15-.019.214-.12.416-.127.36-.01.65.038.953.16l.161-.162.628.173-.1-.142.183-.02.606.21c.567-.272.403-.036.718 0s.498-.123.742-.124c.328-.001.478-.021.81-.01.191.007.516.16.25-.082.598-.02 1.418-.087 1.954.01.158.03-.053.106-.026.115.134.045.247-.079.386-.06.23.029.678.125.86.147.26.033.67-.127.712-.139.234-.065.297.068.372.059.428-.053.523-.109.658.17.11-.12.575-.324.688-.12.002-.184.388-.153.625-.199q.067.08.133.16c.495-.33 1.481-.09 2.133-.051.016 0 .045-.137.143-.106.006.002-.004.064.062.072.217.026 1.043.181 1.139.182.35.006.411-.097.624-.107.28-.013.321.08.588.067.125-.006.239-.128.436-.111.116.01.128.106.22.114.328.027.57-.033.86.092.076-.305.216-.08.36-.057.585.093 1.315-.035 1.817-.008 1.567.088 2.956.276 4.487.319.249.006.309-.147.57-.137.117.004.237.115.43.117.153.001.374-.055.567-.055.05 0 .055.104.13.105.572.006 1.13-.068 1.706-.118.214-.02.346.119.31-.121.082.058.16.11.238.168.294-.151.534.006.932-.032.043-.005.343-.171.513-.051.012-.086-.014-.158-.01-.236.17-.033.428.066.542.076.113.01.19-.1.223-.102.13-.003.1.143.11.146.606.14.542.062.908-.157.036-.022.155-.01.293.002l-.154-.288c-.132.166-.29.372-.245.493-.062-.034-.094-.098-.145-.143l-.357.438c.078.004.161.002.238.01-.261.286-.305.639-.483.897-.101.147-.214.046-.245.152-.006.02.098.047.07.103-.22.45-.43.573-.724.977-.137.19-.097.461-.384.674-.026.019-.344.202-.262.5-.097.014-.161.04-.24.046.062.534-.159.251-.534.67-.194.216-.68 1.056-.823 1.337-.084.168.031.24.017.271-.084.183-.194.11-.278.275s-.088.442-.204.592c-.089.114-.162-.072-.233.138-.014.044.172.016.001.173-.026.025-.352.241-.42.285.033-.207.242-.728.327-.92.853-1.926 2.558-4.761 4.261-7.409l.817 1.524a174 174 0 0 1-6.002-.014c-.353-.007-.584-.151-.814-.163s-.035.119-.244.108c-.21-.012-.361-.104-.557-.113-1.317-.054-2.644-.112-3.95-.138-.339-.006-.61.1-.918.1-.12 0-.123-.137-.209-.136-.918.01-1.768.143-2.681.127-.38-.006-.79-.123-1.165-.134-.31-.009-.63.07-.91.072-.15.001-.23-.104-.285-.112-.19-.027-.124.101-.221.101-.268 0-.402-.155-.654-.143-.098.005-.085.103-.229.119-.182.019-.114-.072-.244-.075-.008 0 .017.07-.052.073-.443.018-.996.074-1.424.07-.884-.01-1.757-.147-2.581-.173-.208-.007-.153.085-.22.09-.317.02-.431-.09-.764-.05-.056.007-.279.134-.492.102-.115-.018-.245-.097-.343-.116-.099-.018-.114.099-.232.099-.215 0-.152-.08-.459-.066-.124.005-.536.116-.855.108-.52-.014-1.164-.115-1.777-.117-.21 0-.48.12-.806.12-.399.003-1.133-.025-1.542-.026-.208-.001-.223-.127-.248-.133-.16-.035-.096.106-.203.1-.147-.007-.284-.11-.418-.118-.085-.004-.098.1-.117.1-.683.035-1.287.025-1.966.036q-1.682.03-3.372.069l.622-1.161c1.447 2.077 2.893 4.16 4.251 6.278.165.257.062.338.228.55.165.212.543.271.405.627.057-.029.094-.054.145-.08q.111.238.255.452l-.678-.363c.38 0 .758-.045 1.13-.053.401-.008.756.002 1.126.009.328.006.3.116.584-.027 1.412.09 2.838.067 4.238.216.328-.234.642-.086 1.096-.052.056.005-.004-.08.162-.074.21.01.317.14.669.133.093-.002.782-.147 1.037-.073s.624.118.89.189c-.038-.056-.086-.11-.128-.165l.397-.029q.03.1.057.203l.23-.193c.168.346-.003.234.368.146.186-.044.334.017.525-.018.069-.013.113-.115.189-.128.186-.031.077.109.192.108.116-.001.282-.155.49-.087-.217.275.41.185.44-.028.074 0 .136.008.218.002-.076.54.314.157.47.083.154-.074.148.071.184.066.104-.016.028-.076.102-.078.484-.013.94.076 1.418.084.07.001.008-.08.088-.073s.157.09.276.084c.032-.001.042-.073.091-.073 1.04.003 2.027.064 3.086.074.096 0 .172-.127.357-.123s.467.12.697.129c.06.002.077-.104.158-.102.276.01.513.097.8.11.483.025.99-.04 1.48.023.094.011.079.1.213.125.232.043.144-.086.191-.104.154-.056.202.117.35.072.023-.006-.01-.109.01-.11.316-.018.333.221.668.093.298.137-.2.184-.25.257-.126.178.204.386.399.453.168.058.166-.053.233-.053.353 0 .879-.021 1.147.031.163.032-.13.078-.047.114.082.036.136-.047.22.044.032.034.077.094.118.162-.27.072.004.264-.1.322M8.47 25.513c.662.21 1.419 1.431 1.81 2.096.079.132.139.269.19.396.425.084.72.19.62-.18a19 19 0 0 0-.624.009l.145.078c-.252-.357-.501-.696-.77-1.119-.04-.064-.254-.466-.334-.602-.046-.077.02-.123-.048-.223-.015-.022-.183-.085-.21-.131-.093-.157-.26-.699-.306-.76-.127-.167-.187-.03-.256-.093-.231-.213-.093-.344-.311-.562-.04-.04-.274-.098-.38-.296-.043-.08-.059-.256-.1-.312-.229-.304-.556-.594-.733-.894-.145-.246.002-.252-.067-.387-.07-.134-.292-.205-.356-.286-.102-.13-.144-.342-.173-.384-.436-.622-.87-1.169-1.3-1.738l-.03.052q.35-.021.708-.035l-.707-.06-.116.002.065.094q.307.558.61 1.116c.315.237.11.15.212.378.08.179.29.095.411.321.062.116.092.438.3.636.008.007.117-.036.237.136.268.388.716.956.99 1.41.08.134-.039.175.05.336.066.118.245.186.34.375.12.237.03.448.352.451-.07.066-.152.11-.22.177m13.37 2.545c.038.01.533.308.386-.01-.666-.138-1.386-.07-2.087-.147.239.315.644.19 1.135.168h.001c.023-.001-.074.08.058.066.064-.007.31-.133.508-.077m6.939 13.837a.06.06 0 0 0 .082-.007c.044.347.055.696.023 1.052-.01.12-.092.108-.106.157-.024.09.065.24.065.262 0 .13-.143.08-.149.097-.058.197.106.14.121.329.021.245-.008.56-.016.855-.004.103-.113.057-.104.28.006.16.131.646-.002.87-.05.001-.106-.027-.158-.039.21.321.2.436.15.891-.009.072.078.14.046.267s-.165.133-.164.388c.001.09.095.145.1.284.011.394-.106 1.145-.11 1.469-.004.367.047.638.08.91l.024.925-.939-.212a2.8 2.8 0 0 1-.625-.141c-.04-.015.077-.091 0-.113-.077-.021-.192.09-.212.088-.216-.018-.61-.306-.731-.314-.294-.018-.032.11-.427.037-.376-.07-.844-.372-1.203-.498-.415-.147-.615.069-.87-.273-1.128-.27-2.26-.546-3.39-.817l.05-.153-.293.04q.034-.054.069-.106c-.25.024-.481.03-.718.003l-.442-.1-.013-.485a3 3 0 0 1-.013-.626c.001-.01.108.016.11.008.02-.114-.061-.24-.042-.34.046-.241.28-.651-.006-.47.06-.563-.037-1.224.018-1.76.024-.231.193-.3.203-.412.01-.11-.136-.054-.142-.093-.032-.237-.026-.626.137-.667l-.196-.146c.18.028.105-.703.11-.895 0-.035.08-.04.079-.066-.008-.236-.089-.329-.142-.486l-.037-.05c-.022-.032.132-.003.042-.091-.008-.005-.09.024-.142-.011l.007.01a1 1 0 0 1-.064-.083c-.239-.361-.74-1.025-.973-1.488-.02-.038.165-.007.032-.15-.049-.052-.11.03-.205-.112-.368-.545-.663-1.192-1.112-1.7.105-.04.34.092.083-.17-.041-.041-.099.048-.116.029-.139-.158-.181-.348-.337-.515-.047-.05-.12-.02-.18-.08-.091-.087-.03-.193-.148-.286-.184-.146-.29-.117-.273-.46-.88-1.3-1.791-2.568-2.581-3.92-.299-.344-.584-.655-.863-1.036-.082-.112.019-.21-.142-.37-.036-.035-.355-.247-.15-.445-.075-.069-.11-.12-.17-.182q.004.115.003.228c-.16-.322-.404-.51-.617-.747-.158-.175.034-.104-.055-.216-.037-.047-.07-.081-.092-.122l-.7-1.004 1.253-.027c.064.005.13.03.233.114.14-.166.234-.05.492-.045.028 0 .188-.064.322-.051.097.01.125.113.278.097.025-.003.35-.131.452-.143.16-.018.416.114.447.116.451.023.625-.108.946.108.064-.128.332-.203.548-.19.273.015.82.277.894 0 .316.123.282.047.657.045.34-.002 1.243.104 1.52.088.275-.015.14-.169.25-.19.18-.034.083.08.206.079.347-.005.65-.027.981-.077l.056.24.051-.08c.071.001.151 0 .217.002-.557-.35.539.026.868.035.277.007.74-.16 1.044-.195.074-.009.023.077.038.075.179-.024.206-.083.446-.075.126.004.256.112.38.114.907.015 1.782-.094 2.683-.105.154-.002.286.13.415.132.184.004.3-.104.473-.105s.421.127.538.107c.117-.019-.083-.144.131-.11.098.016-.075.11.046.112.38.009.915-.106 1.318.005-.017-.027-.042-.053-.064-.08.43.012.81.079 1.254.088.156.004.436-.078.588-.077.153 0 .222.089.345.091.05.001.03-.078.064-.076.421.02.652.162 1.094.146 1.388-.05 2.813-.095 4.227-.14l1.124-.025-.616.971-.368.594c-.035.056.026.15-.014.24-.063.136-.143.092-.157.106-.088.097.012.1-.085.245-.211.318-.616.79-.821 1.112-.475.74-.816 1.4-1.26 2.14-.031.053-.11-.05-.171.039-.431.625-.422.823-.973 1.592-.55.768-1.6 2.212-2.227 3.124v-.001c-.005.415-.301.76-.65.976.728-2.105 2.078-3.686 3.335-5.616 1.003-1.54 1.874-3.28 2.85-4.91l.033.061c-.6.029-1.198.042-1.788.029-.23-.006-.323-.135-.517-.108-.033.005.052.105-.049.115-1.387.135-2.867-.092-4.23-.029-.367.017-.424.128-.747.157.057-.053.094-.108.143-.16-1.474-.164-2.951-.091-4.445-.114-.068-.002-.076-.11-.147-.114-.141-.009-.277.11-.4.115-.161.005-.19-.081-.338-.076-.073.003-.05.086-.209.072-.013-.001-.021-.088-.126-.077-.288.031-.875.104-1.113.126-.304.028-.548-.103-.663-.112-.31-.023-.304.111-.567.111-1.87.001-3.66-.151-5.575-.15-.12 0-.565.15-.788.143-.075-.002-.465-.042-.523-.045-.238-.012-.443-.103-.573-.122-.254-.037-.538.104-.676.118-.242.025-.673.007-.774.003-.242-.009-.168-.178-.333-.144l-.42.009.234.337.006.006c.04.037.12-.083.222.07.085.129.035.236.078.334.043.097.28.172.313.228.171.297.17.48.372.793.168.26 1.019 1.412 1.115 1.49.431.354-.12-.344-.144-.39-.123-.242-.048-.244-.298-.402.176-.406-.77-.786-.523-1.209-.367-.024-.348-.261-.429-.489-.111-.315-.117-.015-.249-.211-.044-.067-.08-.298-.148-.429l-.13.24a.3.3 0 0 0 .065.001c.14-.018.2-.12.387-.126.335-.01.604.037.886.16l.15-.163.584.174-.094-.142.171-.02.564.21c.528-.273.374-.037.668-.001.293.035.463-.123.69-.124.305 0 .445-.02.753-.01.178.007.48.16.232-.082.557-.02 1.32-.087 1.818.011.147.029-.05.105-.024.114.125.045.23-.078.359-.06.214.029.63.125.8.148.242.032.623-.128.662-.14.218-.064.276.069.346.06.399-.054.486-.11.612.17.103-.12.535-.324.64-.12.002-.185.361-.154.582-.2q.06.08.123.16c.46-.329 1.378-.09 1.984-.05.015 0 .042-.138.133-.107.006.003-.003.065.058.073.201.026.97.18 1.059.182.326.005.382-.098.58-.108.262-.012.3.08.548.067.116-.006.222-.128.405-.11.108.01.119.105.204.113.306.028.53-.033.8.092.071-.305.2-.08.335-.057.544.094 1.223-.035 1.69-.007 1.458.087 2.75.276 4.174.318.231.007.287-.147.53-.137.108.005.22.116.399.117.143.002.349-.055.528-.054q.023.002.038.029l-.445-.831c-.037 0-.084-.01-.11.027-.299.439-.524.912-.78 1.387-.094.176-.276.202-.058.306-.091.031-.175.064-.263.091-.025.312-.28.41-.453.74-.018.036-.035.36-.222.426.065.057.139.077.2.123-.059.149-.274.294-.341.377-.067.082-.014.203-.03.23-.065.102-.17-.003-.178.004-.428.392-.33.385-.337.79-.001.102-.455.494-.376.688-.062-.035-.095-.096-.146-.141l-.336.405c.077.007.158.007.233.017-.246.264-.277.599-.442.838-.095.137-.209.037-.236.137-.005.02.097.049.073.1-.202.422-.403.532-.677.907-.129.176-.08.436-.354.629-.025.017-.33.181-.24.468-.095.01-.157.032-.233.035.077.511-.148.235-.502.62-.183.2-.63.984-.761 1.247-.078.157.038.23.025.259-.076.171-.186.098-.263.253-.076.154-.072.417-.18.556-.084.106-.162-.073-.224.124-.013.041.169.02.007.165a10 10 0 0 1-.402.257c.025-.195.213-.684.29-.864 1.306-3.057 4.917-8.511 6.954-11.442l.807 1.506-.137-.003c-.329-.007-.543-.15-.758-.163s-.032.119-.227.108c-.194-.011-.336-.104-.517-.112-1.225-.055-2.46-.113-3.674-.139-.316-.006-.567.101-.854.101-.112 0-.115-.138-.194-.137-.855.011-1.645.144-2.495.128-.352-.007-.734-.123-1.083-.134-.288-.01-.587.07-.846.072-.14 0-.214-.104-.265-.113-.177-.027-.116.101-.206.101-.25 0-.374-.155-.608-.143-.092.005-.08.104-.213.119-.17.02-.107-.072-.227-.075-.008 0 .016.07-.048.073-.412.019-.927.074-1.325.07-.822-.01-1.634-.146-2.4-.173-.194-.006-.143.086-.204.09-.296.021-.402-.089-.712-.05-.051.007-.259.134-.457.102-.107-.017-.229-.097-.32-.115s-.106.098-.215.098c-.2 0-.142-.08-.427-.066-.115.006-.499.117-.795.108-.483-.014-1.083-.115-1.653-.116-.196-.001-.447.119-.75.12-.37.002-1.054-.026-1.434-.027-.194 0-.208-.127-.231-.132-.149-.035-.089.106-.188.1-.137-.008-.265-.111-.389-.118-.08-.005-.092.099-.109.1q-.244.013-.477.019l.551-1.029c.26.37.496.73.762 1.117 1.925 2.788 3.928 5.563 5.75 8.412.152.24.05.32.204.516.155.197.523.24.377.584.056-.03.093-.055.144-.08.201.455.54.82.82 1.212l.011.016q.037.056.07.115c.137.252.206.533.205.81-.002.212-.007.417-.011.627-.007.305-.116.279.027.543-.09 1.313-.068 2.64-.217 3.942.2.26.122.51.073.84l-.56-.72q.08.035.17.065c.049.017.016-.08.164-.035.186.057.251.208.57.281.084.02.741.036.953.166s.534.257.756.386c-.02-.063-.05-.126-.075-.189l.366.063.001.209.256-.134c.065.374-.061.225.295.225.178 0 .297.093.478.102.065.003.13-.085.201-.08.176.011.044.122.148.148s.292-.086.462.027c-.262.217.324.273.403.073.067.017.122.04.197.053-.2.505.245.223.403.187s.117.102.15.105c.098.009.045-.067.111-.052.44.099.83.288 1.259.405.061.017.027-.076.097-.05s.12.122.228.144c.029.006.056-.062.1-.05q.335.086.662.178l-.786.612c.019-.723.056-1.434.063-2.185 0-.089-.127-.159-.122-.331.004-.173.12-.434.128-.648.003-.057-.104-.073-.101-.148.01-.256.096-.477.11-.743.024-.45-.04-.921.022-1.378.012-.086.1-.072.126-.197.043-.216-.087-.134-.104-.178-.056-.143.116-.188.072-.326-.007-.02-.11.01-.11-.01-.018-.293.22-.308.093-.62.137-.277.184.186.257.233.177.116.386-.19.453-.372.057-.156-.053-.154-.053-.217 0-.283-.016-.686.013-.952a.3.3 0 0 1 .024-.082c.047-.098.066.09.11.04.039-.036-.035-.087.066-.104.105-.026.36.074.46.153m-11.811-3.597c.641.179 1.342 1.316 1.704 1.936.3.515.305 1.127.642.756-.353-.537-.681-.943-1.045-1.518-.038-.06-.234-.436-.308-.562-.042-.072.023-.118-.04-.211-.014-.02-.176-.075-.201-.118-.086-.147-.231-.656-.274-.713-.12-.155-.182-.023-.248-.08-.22-.195-.08-.325-.287-.525-.036-.036-.265-.084-.362-.27-.04-.075-.049-.242-.088-.293-.213-.282-.524-.548-.688-.828-.134-.229.01-.24-.053-.365-.063-.126-.279-.186-.339-.261-.096-.12-.13-.322-.157-.36-.539-.767-1.08-1.408-1.61-2.142.292.544.587 1.084.875 1.624.3.217.103.14.195.353.073.168.282.082.393.293.056.109.075.414.273.595.007.007.115-.037.227.123.25.36.67.886.922 1.31.074.125-.043.167.04.318.06.11.233.168.32.345.11.222.014.426.33.419-.072.064-.153.11-.221.174m5.6 10.365c.031.019.405.42.35.078-.566-.285-1.233-.383-1.846-.618.139.36.534.332.983.421.022.005-.086.062.037.078.06.007.311-.059.476.04m20.993-29.19a7.2 7.2 0 0 1-1.812.107c-.14-.01-.127-.093-.185-.106-.106-.025-.284.064-.309.064-.154 0-.094-.143-.115-.149-.232-.058-.165.106-.387.122-.29.02-.66-.01-1.008-.017-.123-.003-.068-.113-.332-.104-.187.006-.761.131-1.025-.002-.002-.05.031-.106.045-.158-.378.21-.514.2-1.05.15-.086-.008-.166.078-.316.046s-.156-.165-.456-.163c-.107 0-.172.094-.335.098-.466.012-1.352-.105-1.734-.108-.752-.009-1.16.152-1.829.096-.051-.004.062-.107-.032-.109-.096-.002-.195.134-.218.138-.252.035-.786-.148-.926-.126-.342.054-.005.114-.479.14-.45.025-1.072-.153-1.518-.187-.518-.04-.685.217-1.074-.052-1.369.016-2.743.025-4.113.039l.013-.16-.325.11.049-.12c-.51.155-.963.234-1.557.192-.012-.001.019-.108.01-.11-.135-.02-.285.061-.402.042-.285-.046-.768-.28-.555.006-.663-.06-1.443.037-2.075-.018-.273-.024-.355-.193-.486-.203-.13-.01-.064.136-.11.142-.28.032-.739.026-.787-.137l-.172.196c.033-.18-.83-.105-1.055-.11-.042 0-.047-.08-.079-.079-.347.01-.432.134-.73.175-.104.015.058-.124-.21-.064-.024.005-.011.13-.332.13-.51-.002-1.489.048-2.097-.014-.05-.005.102-.141-.127-.11-.082.012-.043.109-.243.11-.776.003-1.604-.108-2.395-.016.028-.109.31-.231-.114-.163-.067.012-.017.11-.047.113-.246.028-.46-.042-.726-.004-.079.011-.099.088-.197.106-.145.027-.209-.082-.377-.036-.263.073-.304.176-.63-.027-1.584.011-3.161.055-4.74.011a2 2 0 0 1-1.024-.308 2.29 2.29 0 0 1-1.25-1.61c-.036-.185.057-.252.054-.471q0-.056-.006-.128c-.023-.066-.066-.66.24-.642.022-.144.058-.23.1-.35a3 3 0 0 0-.23.22c.235-.498.443-.93.867-1.278.324-.237.139.01.346-.11.21-.105.329-.176.639-.077a.36.36 0 0 1 .265-.106c.095 0 .206.04.385.043.033 0 .222-.063.38-.05.114.009.148.112.329.096.03-.002.411-.13.533-.142.19-.019.49.114.527.116.532.023.737-.108 1.115.108.076-.129.392-.204.647-.191.321.016.967.278 1.055 0 .372.124.332.048.774.045.402-.002 1.466.104 1.792.089s.167-.17.297-.19c.211-.034.097.08.242.078a10 10 0 0 0 1.157-.076l.066.24.06-.08c.085 0 .179-.001.257.001-.658-.35.635.026 1.023.035.327.008.872-.159 1.232-.195.087-.008.027.078.045.076.21-.025.242-.084.525-.076.15.005.302.113.448.115 1.07.014 2.103-.094 3.166-.106.18-.002.336.13.488.133.218.004.355-.104.559-.106.203-.001.496.128.634.108s-.098-.145.155-.11c.116.016-.089.109.054.111.448.01 1.079-.106 1.555.006-.021-.028-.05-.053-.075-.08.507.011.955.078 1.479.088.183.003.513-.078.693-.078s.262.09.406.092c.06 0 .036-.079.076-.077.497.021.77.162 1.29.146 1.907-.059 3.874-.11 5.81-.163.078-.002.13-.105.245-.12.175-.024.183.067.207.07.153.02.09-.064.295-.064.451 0 1.18.075 1.629.069 1.037-.016 1.908-.096 2.924-.137.073-.003.024.12.15.121.896.013 1.085-.104 2.2-.071.711.02 1.826.059 2.878.088.892.008 1.593.599 1.902 1.137.388.273.574.874.474 1.372a1.6 1.6 0 0 1-.12.384 3 3 0 0 0-.033-.384c-.165-1.163-1.097-2.155-2.223-2.119-1.51.051-3.038-.033-4.667-.02-2.855.023-5.9.43-8.793.374-.272-.005-.381-.134-.61-.107-.04.005.061.104-.058.114-1.637.136-3.382-.091-4.988-.028-.434.017-.502.128-.883.156.067-.052.111-.107.17-.16-1.74-.164-3.482-.09-5.244-.114-.08-.001-.09-.11-.173-.114-.167-.008-.327.111-.472.115-.19.005-.223-.08-.399-.075-.085.003-.06.086-.246.072-.015-.002-.026-.089-.15-.077-.338.03-1.031.104-1.312.125-.358.028-.646-.103-.781-.111-.367-.023-.36.11-.67.11-2.206.002-4.316-.151-6.575-.15-.142 0-.667.15-.93.144-.088-.003-.548-.042-.617-.045-.28-.013-.522-.103-.676-.122-.3-.037-.634.104-.797.118a9 9 0 0 1-.836.005h-.082c-.3.021-.24-.16-.46-.057-.06.036.044.13-.16.224-.168.085-.287.05-.408.125-.126.076-.172.366-.216.425-.247.329-.425.483-.497.962a2 2 0 0 0-.01.23c-.002.315.124.826.396 1.178.26.36.613.531.675.545.332.068.232-.003.068-.085a2 2 0 0 1-.4-.284c-.19-.259-.102-.245-.362-.464.116-.236-.095-.532-.131-.89-.033-.257.033-.508.242-.541-.205-.323.051-.495.256-.64.302-.196-.012-.13.195-.306.088-.075.412-.098.545-.144.123-.048.177-.144.349-.168l.062-.005c.395-.01.713.037 1.045.16l.177-.162.689.173-.11-.142.201-.02.665.21c.622-.273.442-.036.788 0s.546-.123.813-.124c.36-.001.526-.021.889-.01.21.007.567.159.274-.082.657-.02 1.556-.087 2.144.01.174.03-.058.105-.028.115.147.045.271-.079.423-.061.253.03.744.125.943.148.286.033.736-.127.782-.139.257-.065.326.068.408.059.47-.053.574-.11.722.17.122-.12.631-.324.754-.12.003-.184.427-.153.687-.2l.146.16c.543-.328 1.624-.09 2.34-.05.017 0 .05-.137.157-.106.006.002-.005.064.067.072.238.026 1.145.18 1.25.182.384.005.45-.097.685-.107.308-.013.352.08.645.067.137-.006.262-.129.478-.111.127.01.14.106.241.113.36.028.625-.032.944.093.084-.306.236-.08.395-.058.642.094 1.442-.035 1.993-.007 1.72.088 3.244.276 4.923.318.273.007.338-.146.625-.136.128.004.26.115.471.117.17.001.411-.055.622-.055.056 0 .062.104.144.105.627.006 1.239-.068 1.871-.119.235-.018.38.12.34-.12.09.058.177.11.261.168.323-.152.586.006 1.023-.033.047-.004.376-.17.563-.05.013-.086-.016-.159-.01-.236.184-.033.468.066.593.076s.208-.1.245-.102c.143-.003.11.143.12.146.665.14.595.062.997-.157.1-.055.782.105.92-.068.007.07-.031.133-.042.2l.617.055c-.044-.068-.096-.136-.136-.204.42.06.77-.1 1.113-.095.197.003.173.153.288.12.022-.007-.016-.108.051-.116.547-.065.786.041 1.333.062.256.01.48-.175.849-.054.017.006.126.054.257.064a.52.52 0 0 0 .35-.08c.05.088.092.143.113.217.512-.135.324.117.585.541.098.158.331.604.343 1.007.013.172 0 .324-.011.417-.023.18.1.224.094.26-.05.21-.172.152-.248.321-.077.165-.142.458-.33.571-.14.08-.119-.12-.285.032-.039.03.15.106-.104.149-.045.02-.445-.056-.507-.104.2-.064.603-.338.694-.488.246-.295.382-.725.32-1.158-.06-.587-.585-1.083-1.014-1.004-3.905.204-8.607.191-11.513.137-.388-.007-.64-.15-.893-.163-.253-.012-.04.12-.268.109-.23-.012-.397-.105-.61-.113-1.446-.054-2.901-.113-4.335-.138-.371-.007-.668.1-1.007.1-.131 0-.135-.137-.229-.136-1.008.01-1.94.143-2.942.127-.416-.007-.866-.123-1.278-.134-.34-.009-.692.07-.997.072-.166.001-.253-.104-.313-.112-.21-.027-.136.1-.243.1-.295 0-.441-.154-.717-.142-.108.005-.094.103-.252.118-.2.02-.125-.071-.268-.074-.008 0 .02.07-.056.073-.486.018-1.093.074-1.563.069-.97-.01-1.928-.146-2.832-.172-.228-.007-.167.085-.24.09-.349.02-.474-.09-.839-.05-.06.007-.306.134-.54.102-.126-.018-.269-.097-.377-.116-.107-.018-.124.099-.254.099-.235 0-.166-.08-.503-.066-.136.005-.588.116-.937.108-.571-.014-1.278-.115-1.95-.117-.231 0-.528.12-.885.12-.437.002-1.243-.025-1.691-.027-.23 0-.246-.126-.273-.132-.175-.035-.105.106-.222.1-.161-.007-.312-.11-.458-.118-.094-.004-.109.1-.129.1l-.093.004c-.393.029-.747.302-.894.75a1.3 1.3 0 0 0-.062.436c0 .616.502 1.133.956 1.091 2.874-.057 5.756-.113 8.614-.07.334.005.347.136.64.115.295-.02.579-.302.82.01.008-.064.007-.109.015-.166.607.089 1.214-.003 1.808-.014.44-.009.83.001 1.235.008.36.007.329.116.64-.027 1.55.09 3.114.068 4.65.217.36-.234.705-.087 1.203-.052.061.004-.005-.081.178-.074.229.009.347.14.733.132.102-.002.858-.146 1.138-.072s.685.117.975.188c-.04-.056-.093-.11-.14-.164l.436-.03.063.203.253-.192c.183.346-.005.233.403.146.204-.044.366.017.576-.019.076-.012.124-.114.207-.127.204-.032.085.108.211.108.127-.002.31-.156.537-.087-.237.274.45.185.482-.028.082 0 .15.008.24.002-.083.539.345.157.515.083s.163.07.203.065c.114-.016.031-.076.111-.078.532-.012 1.032.076 1.557.085.075 0 .008-.081.096-.073s.173.09.303.084c.035-.002.046-.073.1-.073 1.14.003 2.223.064 3.386.073.105.001.188-.127.39-.122.204.004.513.12.765.128.067.003.085-.104.174-.1.303.009.563.096.877.11.53.023 1.086-.042 1.625.021.102.012.086.1.233.126.254.043.158-.087.21-.104.168-.056.22.116.384.072.024-.007-.011-.109.011-.11.346-.018.365.22.732.093.328.137-.219.184-.275.257-.137.177.225.386.439.453.184.057.182-.053.256-.053.387 0 .964-.021 1.258.031.179.031-.143.078-.052.114.09.036.149-.047.242.044.093.09.282.357.246.485m-32.537-.593c.593-.436 2.168-.39 3.014-.35.701.036 1.306.371 1.161-.115-.758-.003-1.371.045-2.173.03-.084-.001-.581-.046-.754-.054-.098-.005-.1-.085-.233-.084-.029 0-.189.105-.247.102-.2-.01-.796-.17-.88-.166-.23.014-.141.139-.24.162-.335.075-.372-.113-.703-.052-.06.011-.256.174-.501.153-.1-.009-.27-.093-.346-.09-.416.023-.881.134-1.262.116-.312-.016-.228-.142-.394-.159-.165-.016-.364.13-.477.139-.181.013-.4-.07-.457-.069-.938.02-1.787.093-2.674.136a1.4 1.4 0 0 1-.472-.057q.223.095.472.114.845.065 1.687.133c.408-.13.205-.008.473.033.213.032.265-.19.544-.165.144.013.456.166.763.102.011-.002.039-.117.269-.121.516-.01 1.308-.068 1.89-.043.17.007.135.127.337.142.147.011.318-.1.548-.075.29.031.428.223.627-.043.016.095.008.188.027.28m15.97-.232c.04.01.584.308.423-.01-.731-.138-1.521-.07-2.29-.147.262.314.706.19 1.246.167.026 0-.08.081.064.066.07-.007.34-.133.557-.076M11.338 11.403c2.654 0 4.807-2.399 4.807-5.355 0-2.948-2.153-5.347-4.807-5.347-2.646 0-4.806 2.399-4.806 5.347 0 2.956 2.16 5.355 4.806 5.355m0-9.156c1.889 0 3.419 1.705 3.419 3.801 0 2.104-1.53 3.809-3.419 3.809-1.888 0-3.418-1.705-3.418-3.809 0-2.096 1.537-3.8 3.418-3.8"/><path fill="#a9a9a6" d="M11.34 10.526c.17-.107.32-.163.494-.142.04.005.049.087.067.097.034.02.068-.077.074-.078.042-.01.053.135.06.14.078.043.025-.113.082-.142.074-.038.18-.037.277-.06.034-.007.053.103.123.069.051-.024.155-.198.277-.108.021.046.035.1.052.15.019-.239.052-.243.216-.272.026-.005.004-.091.058-.085.053.006.122.12.2.07.027-.017-.007-.107.031-.136.108-.082.39-.15.483-.227.181-.147.155-.347.331-.456.014-.01.067.085.088.065s-.061-.133-.06-.14c.024-.079.267-.09.277-.14.02-.116-.089-.07-.025-.2.058-.122.31-.184.41-.29.118-.125-.09-.286.206-.276.177-.397.309-.817.382-1.246l.157.036-.089-.125.115.038c-.122-.192-.18-.34-.12-.523 0-.004.106.016.11.013.023-.042-.055-.096-.033-.132.053-.087.291-.238.004-.179a.6.6 0 0 0 .023-.199c-.005-.161-.048-.323-.022-.468.016-.089.18-.134.186-.178.004-.045-.137-.006-.145-.02-.042-.086-.06-.232.098-.276l-.203-.021c.18-.021.052-.286.036-.358-.003-.013.074-.034.07-.044-.038-.11-.166-.103-.232-.183-.024-.028.125-.018.042-.084-.008-.006-.125.036-.157-.06-.05-.157-.21-.422-.241-.62-.003-.017.141-.033.08-.085-.023-.019-.103.036-.133-.02-.116-.213-.164-.501-.39-.65.094-.058.248-.056.11-.127-.022-.01-.09.062-.1.056-.07-.045-.057-.142-.14-.184-.026-.012-.088.033-.122.021-.05-.016.02-.103-.051-.112-.11-.012-.19.053-.117-.162-.424-.408-.926-.68-1.422-.973-.176-.007-.337.008-.503-.012-.049-.005-.026-.143-.115-.116-.02.006-.169.128-.14-.15-.04.017-.063.014-.096.025q.027.066.05.133c-.12-.065-.237.021-.35.06-.082.029-.017-.088-.068-.079-.052.01-.073.036-.135-.11-.023.07-.04.09-.062.089-.028-.001-.062-.041-.116-.042-.01 0-.065.066-.113.056-.034-.007-.052-.11-.107-.089-.01.003-.111.143-.145.16-.052.025-.162-.091-.174-.09-.168.007-.193.149-.362-.03.01.13-.06.228-.136.24-.093.012-.38-.156-.297.111-.153-.068-.113-.003-.233.058-.108.052-.447.13-.523.205-.076.07.054.168.033.208-.031.065-.07-.047-.105-.02a.8.8 0 0 0-.226.281l-.174-.166.038.072c-.02.017-.04.039-.06.053.386.121-.16.111-.254.204-.078.072-.064.311-.102.418-.01.027-.066-.04-.068-.035-.02.067.02.11-.037.175-.03.034-.146.01-.174.047-.203.272-.262.61-.377.916-.02.052-.16.048-.18.093-.029.064.058.14.039.201-.02.06-.17.109-.164.157s.147.012.092.078c-.025.031-.097-.057-.112-.014-.049.136.018.354-.119.481q.042-.003.083-.009c-.04.154-.127.286-.154.453-.01.058.064.169.06.225-.003.057-.093.08-.097.126-.002.019.078.014.076.026a.5.5 0 0 1-.064.159c-.045.078-.093.154-.079.258a5.4 5.4 0 0 0 .562 1.768c.011.022.113-.004.14.022.044.04-.038.08-.038.087.002.052.07-.001.097.055.058.124.1.358.18.473.182.266.409.43.643.625.017.014-.083.086-.058.116.183.205.302.16.539.392.234.237.756.614 1.133.74v.001c.186-.178.305-.088.403.106-.904.389-1.642-.272-2.261-.876C7.673 9.19 6.78 8.4 6.606 7.35c-.016-.096.103-.16.062-.233-.007-.013-.098.04-.116 0-.142-.332-.128-.71-.088-1.068.026-.242.061-.475.063-.707.002-.154-.103-.195-.109-.337.048.033.1.057.148.086.26-.578.38-1.17.69-1.71.014-.023.11.025.128.002.034-.046-.043-.153-.02-.199.029-.06.109-.025.135-.08.014-.026-.062-.062-.015-.11.004-.004.08.04.093-.001.036-.115.118-.353.164-.444.056-.117.223-.109.26-.138.1-.078 0-.167.075-.246.544-.564 1.258-.849 1.978-1.084.043-.015.176-.21.269-.225.031-.006.196 0 .22-.001.099-.006.194.071.248.083.104.023.202-.127.259-.144a.9.9 0 0 1 .288-.016l.029.003c.101.01.063.184.134.146.021-.011.005-.146.08-.143.063.005.08.107.12.129.04.021.133-.125.16-.118.138.04.182.15.326.184.12.018.688.124.747.118.267-.068-.104-.14-.122-.149-.096-.067-.063-.122-.206-.041 0-.391-.477.088-.484-.355-.144.272-.193.116-.289.046-.13-.095-.042.085-.14.077-.039-.003-.147-.143-.209-.126-.055.016-.082.1-.146.12l-.02.004c-.141.012-.253-.03-.386-.14q-.025.082-.048.167a4 4 0 0 0-.27-.14l.061.135-.068.03a5 5 0 0 0-.278-.158c-.16.318-.149.074-.285.075-.135.003-.156.177-.246.21-.122.047-.17.088-.294.131-.072.025-.255-.055-.055.116-.206.117-.44.334-.666.373-.067.012-.043-.098-.057-.1-.07-.006-.035.121-.09.139-.09.029-.29.066-.361.098-.104.044-.118.275-.12.294-.022.11-.132.033-.148.061-.082.16-.062.224-.308.077.057.116.095.385-.09.292.141.117.023.215.005.317l-.16-.052c.15.348-.246.53-.4.75-.004.005.113.078.068.098-.003.001-.057-.03-.075-.01-.063.061-.338.303-.352.34-.058.132.03.19.011.274-.024.11-.117.096-.137.203-.009.05.095.129.058.198-.022.042-.116.022-.133.056-.06.122-.022.228-.168.32.293.09.062.1.03.154-.136.221-.04.533-.077.732l-.064.336c-.094.505-.171 1.012-.078 1.543.019.105.173.09.193.197.01.048-.083.129-.06.207.018.063.102.134.129.21.007.02-.09.058-.08.089.08.233.245.424.4.617.058.071-.036.186.168.058-.036.058-.065.112-.1.169.193.034.107.2.233.322.014.014.22.025.163.151.073-.045.126-.096.19-.138.066.036.048.178.07.222.02.043.126-.001.136.009.034.039-.087.12-.087.126.051.282.1.216.36.177.064-.01.126.283.284.192-.047.052-.1.088-.15.133q.065.1.134.198.047-.093.098-.185c.076.147.278.105.371.183.054.044-.042.16.012.159.01 0 .059-.09.083-.083.197.06.208.194.37.314.078.056.233-.068.296.098.004.015.056.222.225.04-.007.078 0 .122-.007.187.284-.26.108.04.3.192.099.082.504.126.635.108.08-.009.1-.144.114-.147.082-.019.062.112.138.1.078-.011.182-.151.253-.132.055.014 0 .176.088.124.018-.012-.024-.153.06-.095.012.01.15.164.182.196-.075.09-.31.194-.402.22-.774.263-2.1.023-3.1-.755-1.022-.755-1.65-1.916-1.886-2.738-.047-.155.06-.296.044-.397s-.12.018-.134-.075c-.014-.094.06-.182.048-.268a8 8 0 0 1-.034-1.72c.011-.145-.088-.27-.077-.404.005-.052.143-.04.145-.077.03-.39-.03-.78.096-1.164.053-.16.22-.292.286-.438.056-.121.035-.279.084-.391.026-.06.136-.048.154-.065.06-.061-.068-.092-.05-.13.053-.105.217-.084.257-.183.016-.039-.073-.082-.055-.144.023-.078.087-.007.118-.053.002-.003-.064-.03-.051-.057.082-.174.172-.407.29-.555.243-.308.603-.498.883-.713.071-.055-.007-.108.012-.13.092-.108.2-.054.29-.173.014-.02.016-.181.113-.21.052-.016.144.018.19.01.045-.009-.013-.11.03-.139.081-.05.1.032.208-.049.042-.032.148-.22.282-.275.216-.092.52-.108.776-.187.088-.026.17-.176.315-.211.174-.046.507-.074.69-.087.093-.008.11.118.12.122.072.03.035-.108.083-.105.067.004.13.105.189.111.037.004.042-.1.05-.1l.036-.004c.29-.03.552 0 .841.038 1.626.197 3.17 1.235 3.917 2.68.063.121-.05.188.023.281.07.092.377.078.134.297l.153-.063c.02.26.193.452.28.68.062.168.095.324.128.486.027.145-.084.153.082.248.026.454.063.904.01 1.346a2.7 2.7 0 0 1-.113.516c.223.16.062.29-.001.477-.008.024.08.01.062.082-.024.09-.16.112-.183.262-.004.038.068.367-.035.455-.102.088-.19.226-.295.31.058.003.116 0 .174.001l-.03.173q-.1-.022-.2-.047l.145.162c-.349-.06-.215-.088-.194.093.01.09-.072.124-.074.213 0 .032.083.093.08.128-.006.087-.112-.017-.133.028-.02.045.083.18-.02.229-.198-.21-.245.063-.07.182-.016.029-.037.048-.05.082-.446-.304-.202.032-.179.13.025.097-.095.015-.098.031-.012.046.056.053.04.08-.11.183-.3.288-.437.44-.02.022.06.055.03.076-.028.022-.112-.006-.141.036-.008.01.043.062.028.078-.307.335-.671.577-1.055.827-.035.023.008.148-.064.189s-.238.006-.329.047c-.024.01.021.107-.012.122-.113.05-.245.02-.364.058-.2.065-.385.206-.609.209-.042 0-.062-.086-.123-.094-.106-.015-.036.1-.051.122-.05.07-.113-.09-.164-.033-.008.009.03.105.021.108-.132.049-.184-.185-.301-.033-.147-.115.052-.196.056-.272.013-.184-.153-.363-.23-.419-.07-.047-.053.061-.078.065-.129.02-.323.056-.423.006-.06-.03.044-.08.013-.115-.03-.035-.048.049-.08-.041a1.6 1.6 0 0 1-.08-.485m3.547-7.618c.476-.093.74.442.817.735.073.247-.176.558.265.345-.093-.262-.227-.446-.348-.71-.012-.028-.06-.209-.086-.267-.015-.033.054-.076.027-.117-.006-.01-.126-.004-.135-.024-.03-.066-.022-.34-.045-.363-.062-.062-.143.039-.183.023-.133-.052.006-.178-.119-.236-.023-.01-.193.04-.235-.04-.016-.033.005-.135-.017-.153-.12-.099-.317-.136-.405-.24-.073-.087.033-.162-.002-.214-.036-.053-.186.013-.222-.005-.059-.03-.072-.144-.089-.156-.34-.222-.698-.316-1.056-.432q.321.229.584.501c.189-.033.064.032.116.117.04.067.183-.103.248-.024.034.041.023.226.143.245.005 0 .086-.082.15-.032.143.112.385.269.502.442.035.05-.065.12-.031.183.024.046.148.021.178.1.038.102-.091.25.166.152-.074.06-.151.112-.223.17m.833 5.207c-.015.012-.36.072-.046.142.226-.188.252-.48.394-.727-.328.013-.246.189-.285.377-.002.009-.068-.052-.07 0 0 .024.087.156.007.208M11.34 1.37c.193-.107.402-.138.597-.062.045.018.027.098.043.114.03.03.102-.047.11-.045.05.008.003.146.009.152.06.072.072-.093.146-.092.097.001.207.061.311.103.037.015-.013.114.068.132.056.012.276-.037.298.12-.02.046-.052.093-.076.14.19-.146.232-.117.354.006.02.02.084-.044.11.007.024.052-.041.167.037.213.027.016.094-.053.139-.029.13.069.274.325.355.402.163.151.364.126.461.314.008.014-.091.058-.074.08s.139-.046.146-.042c.08.036.039.276.08.294.104.048.092-.069.197.031.102.099.056.353.089.48.038.149.29.077.1.299.187.345.324.719.415 1.102l-.158.028q.064.033.126.07l-.12.007c.178.11.276.235.25.41 0 .003-.108.004-.11.007-.017.04.068.075.051.11-.04.086-.269.225.014.157a.6.6 0 0 0-.017.169c.004.142.035.294-.016.418-.03.075-.201.08-.215.114s.133.033.137.047c.023.08-.004.21-.166.194l.184.081c-.174-.04-.148.206-.17.267-.003.01-.08-.007-.081.001-.014.094.099.15.114.242.005.033-.114-.051-.08.038.004.008.125.042.095.13-.046.138-.108.422-.243.552-.01.01-.114-.088-.114-.017 0 .026.091.06.066.111-.102.203-.319.341-.379.577-.082-.072-.135-.207-.15-.072-.002.022.084.07.082.078-.02.074-.113.078-.132.16-.006.024.049.078.044.112-.008.05-.102-.009-.1.059.003.105.067.188-.145.114-.363.387-.802.755-1.343.872-.123.112-.245.22-.405.284-.047.019-.088-.114-.154-.052-.013.014-.112.185-.178-.089-.029.03-.05.034-.076.053l.085.112c-.131-.024-.22.086-.334.141-.082.04-.03-.084-.08-.068-.05.014-.075.042-.14-.101-.02.07-.038.09-.059.09-.028-.002-.062-.042-.114-.046-.01 0-.07.062-.117.046-.034-.012-.037-.116-.091-.104-.008.002-.136.118-.175.124-.062.01-.13-.136-.14-.139-.15-.051-.245.06-.297-.177-.054.119-.168.164-.238.128-.093-.046-.169-.358-.3-.113-.054-.158-.072-.082-.193-.138-.112-.05-.327-.301-.41-.343-.087-.042-.137.11-.181.105-.072-.01.023-.082-.013-.106a1.2 1.2 0 0 0-.318-.16l.144-.192-.066.048c-.018-.017-.039-.034-.054-.051-.093.39-.124-.148-.184-.233-.058-.072-.288-.084-.383-.148-.023-.015.056-.054.051-.057-.057-.033-.11-.006-.154-.079-.023-.039.04-.137.018-.173-.162-.263-.4-.477-.534-.764-.022-.05.083-.14.07-.182-.018-.06-.133-.06-.154-.116s.076-.176.046-.208c-.03-.033-.13.069-.118-.012.006-.037.112-.005.103-.046-.026-.123-.181-.277-.096-.433q-.04.017-.074.036c-.017-.147.03-.284.025-.433-.002-.052-.09-.139-.093-.191-.003-.053.085-.08.086-.12 0-.017-.079-.008-.077-.02a.35.35 0 0 1 .064-.151c.043-.067.09-.127.085-.213a4.5 4.5 0 0 1 .204-1.643c.007-.021-.082-.076-.082-.114 0-.057.084-.022.09-.027.037-.032-.048-.051-.022-.106.058-.123.228-.277.292-.392.148-.267.241-.524.423-.783.013-.018.093.076.12.05.195-.182.156-.311.445-.5.287-.193.887-.442 1.271-.534.05-.254.242-.247.406-.104-.603.697-1.218.77-1.763 1.324-.555.59-.559 1.49-.755 2.149-.02.063-.151.066-.136.128.003.01.105.004.11.035.037.248-.031.482-.07.73-.026.17-.038.34.007.5.03.105.142.106.186.19-.055-.006-.11-.008-.165-.014-.091.46.121.882.31 1.285.008.019-.087.072-.08.093.014.043.138.021.16.051.03.04-.04.09-.011.127.014.017.08-.032.094.016.001.004-.07.053-.043.074.074.058.237.16.298.2.077.054.025.194.043.227.046.087.144-.005.198.051.38.395.765.837 1.345 1.027.038.012.21-.093.272-.073.02.008.127.071.145.077.068.026.116.124.155.149.077.047.178-.086.22-.097.064-.017.166-.004.215.002l.021.002c.075.008.055.183.11.14.015-.012-.007-.145.049-.148.046-.002.073.097.107.112.036.015.078-.146.098-.145.105.009.168.102.284.084.101-.008.506-.212.52-.265.086-.212-.13-.045-.147-.047-.086-.004-.092-.068-.133.07-.163-.334-.27.284-.415-.14-.013.3-.096.163-.167.111-.099-.071-.012.092-.081.099-.028.003-.113-.126-.15-.106-.036.018-.051.103-.096.124l-.014.004c-.1.01-.179-.043-.246-.171q-.029.079-.059.157a3 3 0 0 1-.142-.194q0 .072.004.145l-.052.011a3 3 0 0 1-.116-.237c-.206.232-.111.011-.177-.044-.065-.056-.159.079-.22.057-.083-.029-.128-.026-.204-.072-.044-.026-.055-.202-.095.047-.155-.05-.39-.11-.456-.276-.018-.048.072-.078.07-.09-.002-.056-.098.027-.118-.01-.033-.06-.065-.208-.085-.256-.029-.066-.215-.02-.232-.02-.09.002-.01-.105-.03-.112-.116-.042-.176-.027.008-.24-.107.063-.345.097-.206-.055-.143.116-.184.015-.26-.01q.054-.063.109-.123c-.348.084-.3-.288-.339-.455 0-.005-.127.051-.112.013.002-.003.058-.028.058-.048-.006-.065.049-.325.043-.347-.028-.086-.13-.065-.157-.115-.037-.066.048-.105.015-.167-.016-.03-.142-.024-.14-.08.002-.032.094-.06.096-.085.006-.089-.068-.138.04-.236-.303.04-.09-.041-.073-.08.066-.162-.081-.332-.06-.466q.019-.114.051-.221c.096-.317.26-.578.363-.855.02-.055-.124-.108-.097-.168.012-.027.127-.023.142-.065.012-.034-.025-.103-.008-.147.004-.011.102.023.109.007.052-.122.036-.27.054-.418.007-.055.144-.017-.072-.124.062.01.116.018.176.03-.097-.136.069-.107.087-.206.001-.01-.095-.166.028-.131-.069-.052-.132-.089-.194-.134-.002-.055.118-.05.143-.067.026-.017-.05-.1-.045-.108.02-.029.128.07.132.069.204-.028.13-.06.033-.279-.024-.057.202-.059.107-.205.05.05.086.1.13.151q.071-.03.141-.054-.079-.066-.159-.132c.113-.022.076-.197.148-.245.04-.027.125.097.127.055.001-.009-.066-.085-.057-.101.072-.133.182-.077.305-.126.056-.021.02-.211.156-.144.014.005.158.117.113-.119.046.061.075.09.11.143-.031-.362.074-.039.23-.008.08.014.297-.105.372-.154.042-.031.02-.165.027-.172.049-.04.068.091.113.063s.092-.183.147-.174c.041.008.02.174.074.113.012-.013-.03-.15.035-.099.01.008.111.157.13.19-.052.086-.18.206-.226.246-.812.605-1.74 1.515-2.049 2.31-.03.067-.182.071-.209.118-.026.045.112.04.09.08s-.12.05-.139.09a2.6 2.6 0 0 0-.224.88c-.004.08.107.137.113.205.002.027-.135.041-.132.061.034.217.202.382.242.581.017.083-.064.209-.043.296.017.071.119.11.146.166.015.031-.072.092-.074.107-.005.053.104-.017.113.003.027.054-.096.154-.056.2.015.02.1-.031.13-.01.037.026-.05.058-.037.086.001.002.059-.039.07-.027.068.079.183.15.236.229.109.161.142.399.27.55.031.036.082-.041.096-.035.068.03.018.132.103.148.015.003.13-.069.15-.016.01.029-.011.11-.002.139.008.027.075-.068.097-.055.04.025-.015.087.053.11.027.01.16-.043.216-.006.092.061.185.21.317.253.046.015.135-.085.2-.07.082.019.232.071.32.08.043.005.038.13.043.136.034.037.028-.104.051-.097.031.01.058.114.089.121.02.005.023-.099.027-.1l.018-.003c.142-.03.267-.032.404-.066.777-.195 1.337-.803 1.775-1.452.037-.055.153.005.163-.058.012-.066-.22-.235.083-.15l-.149-.07c.131-.074.091-.225.116-.339.018-.085.049-.156.075-.233.022-.068.128-.04 0-.13.108-.205.138-.434.193-.664q.029-.134.08-.273c-.24-.056-.099-.136-.08-.245.003-.013-.08.013-.079-.025.002-.047.127-.094.103-.173-.006-.023-.182-.14-.126-.214.056-.076.072-.17.118-.253q-.074.041-.146.081l-.057-.075.185-.083-.198.019c.307-.162.217-.086.103-.133-.057-.023-.016-.08-.066-.106-.019-.01-.115.025-.135.015-.046-.023.09-.063.079-.086-.014-.025-.168.013-.129-.06.267-.085.115-.176-.073-.073-.008-.014-.008-.03-.023-.043.472-.261.094-.147.014-.134-.08.011.041-.067.032-.071-.027-.012-.067.036-.078.024-.071-.084-.063-.22-.13-.312-.009-.013-.062.05-.068.032-.005-.02.045-.086.022-.103-.006-.005-.061.041-.069.033-.155-.176-.284-.373-.48-.518-.018-.013-.103.084-.135.058-.03-.025-.025-.156-.067-.19-.011-.009-.066.082-.08.072-.049-.037-.057-.139-.111-.179-.092-.068-.222-.048-.309-.14-.017-.018.012-.102-.011-.135-.043-.057-.057.074-.072.088-.048.045-.016-.125-.061-.09-.007.006-.023.107-.028.107-.072.002-.03-.234-.133-.122-.048-.148.08-.174.108-.242a.6.6 0 0 0-.03-.465c-.04-.065-.057.045-.076.042-.104-.015-.258-.006-.335-.06-.047-.033.042-.076.019-.113s-.043.045-.067-.046c-.023-.092-.08-.359-.07-.486m2.915 7.195c-.259-.38-.038-.667.084-.848.1-.14.468-.175-.002-.305-.065.169-.08.325-.183.49-.01.018-.108.1-.136.131-.016.018-.085-.023-.1.004-.003.006.066.093.056.104-.034.037-.246.06-.252.077-.02.05.092.108.097.14.01.11-.143.002-.143.1 0 .017.095.159.038.19-.022.013-.113-.013-.122.003-.05.087-.053.247-.136.298-.067.04-.135-.069-.176-.056-.04.012.017.155 0 .18-.026.038-.12.005-.13.013-.196.177-.356.382-.59.52.19-.017.38-.058.572-.11.018-.168.04-.036.123-.043.065-.006-.053-.194.018-.216.036-.01.197.059.218-.043 0-.004-.068-.096-.027-.137.094-.093.192-.273.305-.366.033-.027.119.058.164.027.033-.023-.026-.126.03-.157.069-.038.247.043.06-.153.08.052.154.107.232.157m.28-4.012c.008-.012.23-.257-.048-.097-.058.222.068.383.04.588.288-.14.137-.225.072-.346-.003-.006.084-.006.057-.037-.013-.015-.154-.038-.12-.108M36.077 11.403c2.653 0 4.806-2.399 4.806-5.355 0-2.948-2.153-5.347-4.806-5.347S31.27 3.1 31.27 6.048c0 2.956 2.16 5.355 4.806 5.355m0-9.156c1.888 0 3.418 1.705 3.418 3.801 0 2.104-1.53 3.809-3.418 3.809s-3.419-1.705-3.419-3.809c0-2.096 1.538-3.8 3.419-3.8"/><path fill="#a9a9a6" d="M36.078 10.526c.17-.107.32-.163.494-.142.04.005.05.087.067.097.034.02.068-.077.074-.078.042-.01.054.135.06.14.078.043.026-.113.082-.142.074-.039.181-.037.277-.06.034-.007.053.103.123.069.052-.024.155-.198.278-.108.02.046.034.1.051.15.02-.239.052-.243.216-.272.026-.005.005-.091.058-.085s.123.12.2.07c.027-.017-.007-.107.031-.136.109-.083.391-.15.483-.227.182-.147.156-.347.331-.457.014-.009.067.086.088.066.022-.02-.06-.134-.059-.14.023-.079.267-.09.276-.14.02-.116-.088-.07-.025-.2.058-.122.31-.184.41-.29.118-.125-.09-.286.206-.276.178-.397.31-.818.382-1.246q.08.017.157.036l-.089-.125.115.037c-.121-.192-.18-.339-.12-.523.001-.003.106.016.11.013.024-.041-.054-.096-.033-.132.053-.086.291-.238.004-.178a.6.6 0 0 0 .023-.199c-.004-.161-.048-.324-.022-.468.016-.089.181-.134.186-.179.004-.044-.137-.005-.145-.02-.042-.085-.06-.231.098-.275q-.1-.011-.203-.021c.18-.022.052-.286.036-.358-.002-.013.074-.034.07-.044-.038-.11-.165-.104-.232-.183-.024-.028.125-.019.042-.084-.008-.006-.125.035-.156-.061-.05-.156-.21-.421-.242-.62-.003-.016.141-.032.08-.084-.023-.02-.103.036-.133-.02-.115-.214-.164-.502-.39-.65.094-.058.248-.056.11-.127-.023-.011-.09.061-.1.055-.07-.045-.057-.141-.14-.183-.026-.012-.088.032-.122.021-.05-.016.02-.104-.051-.112-.11-.013-.19.053-.117-.162-.424-.409-.926-.68-1.422-.974-.176-.007-.338.009-.504-.011-.048-.006-.026-.143-.114-.116-.021.005-.169.128-.14-.15-.04.017-.063.014-.096.024q.026.068.049.134c-.12-.065-.237.021-.348.06-.083.029-.018-.088-.07-.079-.05.01-.072.036-.134-.11-.023.07-.04.09-.061.09-.029-.002-.063-.042-.118-.043-.01 0-.064.066-.112.056-.035-.007-.053-.11-.108-.089-.01.003-.111.143-.144.16-.053.025-.163-.091-.175-.09-.168.006-.193.148-.362-.03.01.13-.06.228-.136.24-.093.012-.38-.156-.298.11-.152-.068-.112-.003-.232.058-.108.053-.447.13-.524.205-.076.07.054.168.034.208-.032.065-.07-.048-.105-.02a.8.8 0 0 0-.226.28l-.175-.165.04.072c-.021.017-.042.038-.062.053.387.121-.16.11-.253.204-.078.072-.064.31-.102.418-.01.026-.066-.041-.068-.036-.02.067.02.11-.037.175-.03.034-.146.01-.174.048-.203.272-.262.61-.377.916-.019.052-.16.048-.18.093-.028.064.059.14.04.201-.02.06-.17.109-.164.158.006.047.147.011.092.077-.025.031-.097-.057-.112-.014-.049.136.018.354-.119.482q.043-.003.083-.01c-.04.155-.127.286-.154.453-.01.059.064.17.06.226-.003.057-.093.079-.097.125-.002.02.078.014.076.027a.5.5 0 0 1-.064.159c-.045.078-.093.154-.079.257.087.618.276 1.23.562 1.77.011.02.113-.005.141.02.043.04-.039.08-.039.088.002.052.07-.001.097.055.059.124.1.357.18.473.182.266.41.43.643.625.017.014-.083.086-.058.116.183.205.302.16.54.392.233.237.755.614 1.132.74v.001c.187-.178.305-.088.403.106-.903.389-1.642-.272-2.261-.876-.674-.626-1.566-1.415-1.74-2.466-.017-.097.103-.16.061-.234-.007-.012-.098.04-.115 0-.143-.331-.128-.71-.09-1.067.027-.242.063-.475.065-.707.002-.155-.104-.196-.11-.338.048.033.1.058.148.087.26-.579.379-1.171.689-1.71.014-.024.111.024.128 0 .034-.045-.043-.151-.02-.198.029-.06.109-.025.135-.08.014-.026-.062-.062-.015-.11.004-.004.08.04.093-.001.036-.115.118-.353.164-.444.056-.117.223-.11.26-.138.1-.078 0-.167.074-.247.545-.564 1.259-.848 1.979-1.082.044-.015.176-.21.27-.225.03-.006.195 0 .22-.001.098-.006.193.071.247.083.104.023.202-.127.26-.144a.9.9 0 0 1 .289-.016l.027.003c.102.01.063.184.135.146.02-.011.004-.146.08-.143.063.005.08.107.12.129.04.021.133-.126.16-.118.138.04.181.15.325.184.12.018.689.124.748.118.266-.068-.104-.14-.123-.15-.095-.066-.062-.122-.206-.04 0-.392-.476.088-.484-.355-.143.272-.192.116-.288.046-.13-.095-.042.085-.141.077-.039-.003-.146-.143-.208-.126-.055.016-.083.1-.145.12l-.022.004c-.141.012-.252-.03-.386-.14q-.025.082-.048.167a4 4 0 0 0-.27-.14l.062.135-.068.03a5 5 0 0 0-.279-.159c-.16.319-.148.074-.284.075-.136.003-.156.178-.246.211-.123.047-.17.087-.295.13-.072.025-.255-.055-.055.116-.206.117-.44.333-.666.373-.068.012-.043-.098-.057-.1-.07-.006-.035.12-.09.139-.09.029-.29.066-.362.097-.103.045-.117.275-.12.294-.022.11-.132.034-.147.062-.083.16-.063.223-.308.077.057.116.095.385-.09.291.14.118.023.216.005.318l-.16-.052c.15.348-.246.53-.4.75-.004.006.113.078.069.098-.004.001-.057-.03-.076-.01-.063.061-.338.303-.352.341-.058.132.031.19.012.273-.024.11-.118.097-.137.204-.01.05.095.128.058.198-.022.041-.116.021-.133.055-.06.123-.022.229-.168.32.293.09.062.1.03.155-.136.22-.04.533-.076.732l-.065.336c-.094.505-.171 1.011-.078 1.542.019.106.173.09.193.197.01.049-.083.13-.06.208.019.063.102.134.13.21.006.02-.09.058-.08.089.08.233.244.424.4.617.057.071-.037.185.167.058-.036.058-.065.112-.1.169.193.033.108.2.233.322.014.014.22.025.164.151.072-.045.125-.096.19-.139.065.037.047.179.068.223.02.043.127-.001.137.009.034.039-.087.12-.086.125.05.283.1.217.36.178.063-.01.125.283.283.192-.047.052-.1.088-.15.133q.065.1.135.198.046-.093.097-.185c.076.147.278.105.371.183.054.044-.041.16.012.159.01 0 .059-.09.083-.083.197.06.208.194.37.314.078.055.234-.068.296.098.004.015.057.222.225.04-.006.078 0 .122-.007.187.285-.26.108.04.3.192.099.082.504.126.636.108.079-.009.1-.144.114-.147.081-.019.061.112.138.1s.182-.151.252-.132c.055.014 0 .176.088.124.018-.012-.024-.153.06-.095.013.01.151.164.183.196-.076.09-.31.194-.403.22-.774.263-2.1.023-3.1-.755-1.022-.755-1.65-1.916-1.886-2.738-.047-.155.06-.296.044-.397s-.12.017-.134-.076.06-.182.048-.267a8 8 0 0 1-.033-1.721c.01-.144-.09-.269-.077-.403.004-.053.142-.041.144-.077.03-.39-.03-.78.096-1.164.053-.16.22-.292.286-.438.055-.121.035-.28.083-.391.027-.061.136-.048.154-.065.06-.062-.068-.092-.05-.13.053-.106.217-.084.257-.183.016-.04-.073-.083-.055-.145.023-.078.087-.007.118-.053.002-.003-.064-.03-.052-.056.083-.175.172-.408.29-.556.243-.308.604-.498.884-.713.07-.055-.008-.108.011-.13.093-.108.2-.054.29-.174.015-.019.017-.18.114-.21.052-.015.144.018.19.01.045-.008-.013-.11.03-.138.081-.051.1.032.208-.05.043-.031.149-.218.282-.274.217-.092.52-.108.776-.186.088-.027.171-.176.316-.212.174-.045.506-.073.689-.086.094-.008.11.118.12.122.073.03.036-.108.084-.105.066.004.13.105.188.111.037.004.042-.1.05-.1l.038-.005c.29-.028.55.002.84.039 1.626.196 3.17 1.234 3.917 2.68.063.12-.05.187.023.28.07.093.377.078.134.297.059-.023.1-.042.153-.063.02.26.193.453.28.681.062.167.096.324.128.485.027.145-.083.153.083.248.026.455.062.904.008 1.347a2.7 2.7 0 0 1-.111.515c.222.16.061.29-.002.478-.008.023.08.01.062.081-.024.09-.16.113-.182.263-.005.038.068.367-.036.455-.102.088-.19.226-.294.31.058.003.115 0 .173 0q-.014.088-.03.174-.099-.022-.199-.047l.145.161c-.35-.058-.215-.087-.195.093.01.09-.071.125-.074.214 0 .032.084.092.081.128-.007.087-.112-.017-.134.028-.02.045.084.18-.02.229-.198-.21-.245.063-.07.182-.015.029-.037.048-.05.082-.446-.304-.202.032-.179.13.026.097-.094.015-.098.031-.012.046.056.052.04.08-.109.183-.299.288-.437.44-.02.022.06.055.031.076-.029.022-.112-.006-.142.035-.008.011.043.063.029.079-.307.335-.672.577-1.056.827-.035.023.009.148-.063.189-.073.041-.238.006-.33.047-.024.01.021.107-.012.122-.112.05-.245.02-.363.058-.2.065-.386.206-.61.209-.042 0-.061-.086-.123-.094-.105-.015-.036.1-.05.121-.051.072-.114-.09-.164-.032-.008.009.029.105.02.108-.131.049-.183-.185-.3-.033-.148-.115.05-.196.056-.272.013-.184-.153-.363-.232-.419-.068-.047-.052.061-.076.065-.13.02-.324.056-.424.006-.06-.03.045-.08.013-.115-.03-.035-.047.049-.08-.041a1.6 1.6 0 0 1-.08-.485m3.547-7.618c.476-.094.74.442.817.734.073.247-.176.559.265.345-.093-.261-.227-.446-.348-.71-.012-.027-.06-.208-.086-.267-.015-.033.054-.075.027-.117-.006-.01-.126-.004-.135-.023-.03-.066-.022-.34-.045-.363-.062-.063-.144.038-.183.022-.134-.052.006-.177-.119-.235-.023-.01-.193.039-.235-.04-.017-.033.005-.136-.017-.154-.12-.098-.318-.136-.405-.24-.073-.086.032-.161-.002-.214-.036-.053-.186.014-.223-.005-.058-.03-.07-.144-.088-.155-.34-.222-.698-.316-1.056-.432q.321.229.584.501c.188-.033.064.032.116.116.04.067.183-.102.248-.024.033.042.023.227.143.245.005 0 .086-.082.15-.031.143.111.385.268.502.442.035.05-.065.12-.031.182.024.046.148.022.178.101.038.101-.091.25.166.152-.074.06-.151.111-.223.17m.833 5.207c-.015.012-.36.072-.045.141.226-.187.251-.48.393-.726-.327.013-.246.189-.285.376-.002.01-.068-.052-.07 0 0 .025.087.157.007.209m-4.38-6.744c.193-.107.402-.138.598-.062.044.018.027.098.043.114.029.03.102-.047.11-.045.05.008.002.146.008.152.06.072.073-.093.147-.092.097.001.206.061.31.103.037.015-.013.114.068.132.056.012.276-.037.299.12-.02.046-.052.093-.077.14.19-.146.232-.117.355.006.019.02.083-.044.108.007.025.052-.04.167.038.213.027.016.094-.053.14-.029.129.069.273.325.354.402.163.151.364.126.462.314.007.014-.092.058-.074.08.017.022.138-.046.145-.042.08.036.039.276.08.294.104.048.092-.069.198.031.102.099.055.353.088.48.038.149.29.077.1.299.187.345.324.719.416 1.102l-.159.028q.064.033.127.07l-.12.007c.177.11.276.235.25.41-.001.003-.108.004-.11.007-.018.04.068.075.05.11-.04.086-.269.225.014.157a.6.6 0 0 0-.016.169c.003.142.034.294-.017.418-.03.075-.2.08-.215.114-.013.034.133.033.137.047.023.08-.004.21-.166.194l.184.081c-.174-.04-.148.206-.17.267-.003.01-.08-.007-.081.001-.014.094.099.15.114.242.006.033-.114-.051-.079.038.003.008.124.042.094.13-.046.138-.107.422-.242.552-.011.01-.114-.088-.114-.017 0 .026.09.06.065.111-.102.203-.318.341-.378.577-.083-.072-.136-.207-.15-.072-.003.022.084.07.081.078-.02.074-.112.078-.132.16-.006.024.049.078.044.112-.008.05-.102-.009-.1.059.003.105.067.188-.145.114-.362.387-.802.755-1.343.872-.123.112-.245.22-.404.284-.048.019-.089-.114-.154-.052-.013.014-.113.185-.178-.089-.03.03-.05.034-.077.053l.086.112c-.132-.024-.221.086-.334.141-.083.04-.03-.084-.08-.068-.05.014-.076.042-.14-.101-.02.07-.039.09-.06.09-.028-.002-.061-.042-.114-.046-.01 0-.07.062-.117.046-.034-.012-.036-.116-.09-.104-.009.002-.136.118-.176.124-.062.01-.13-.136-.14-.139-.15-.051-.244.06-.296-.177-.054.119-.169.164-.239.128-.093-.046-.169-.358-.3-.113-.053-.158-.072-.082-.192-.138-.113-.05-.328-.301-.411-.343-.086-.042-.137.11-.18.105-.073-.01.022-.082-.014-.106a1.2 1.2 0 0 0-.318-.16l.145-.192-.067.048c-.017-.017-.039-.034-.054-.051-.093.39-.124-.148-.184-.233-.058-.072-.287-.084-.383-.148-.023-.015.056-.054.052-.057-.058-.033-.111-.006-.154-.079-.023-.039.04-.137.017-.173-.162-.263-.4-.477-.533-.764-.023-.05.083-.14.07-.182-.018-.06-.133-.06-.155-.116s.077-.176.047-.208c-.03-.033-.13.069-.118-.012.005-.037.111-.005.103-.046-.027-.123-.182-.277-.097-.433q-.038.017-.074.036c-.017-.147.03-.284.026-.433-.002-.052-.091-.139-.094-.191-.002-.053.085-.08.086-.12.001-.017-.078-.008-.077-.02a.35.35 0 0 1 .064-.151c.044-.067.09-.127.085-.213a4.5 4.5 0 0 1 .204-1.643c.007-.021-.082-.076-.082-.114 0-.057.084-.022.09-.027.037-.032-.048-.051-.021-.106.058-.123.227-.277.291-.392.149-.267.241-.524.423-.783.013-.018.093.076.12.05.195-.182.156-.311.445-.5.287-.193.887-.442 1.271-.534.05-.254.243-.247.406-.104-.603.697-1.217.77-1.763 1.324-.555.59-.559 1.49-.755 2.149-.02.063-.151.066-.135.128.002.01.105.004.11.035.036.248-.032.482-.07.73-.027.17-.039.34.006.5.03.105.143.106.186.19-.055-.006-.11-.008-.165-.014-.091.46.122.882.31 1.285.008.019-.087.072-.08.093.014.043.139.021.16.051.03.04-.04.09-.011.127.014.017.081-.032.095.016 0 .004-.071.053-.044.074.074.058.237.16.299.2.077.054.024.194.042.227.046.087.144-.005.198.051.38.395.766.837 1.346 1.027.037.012.21-.093.271-.073.02.008.127.071.145.077.068.026.117.124.156.149.076.047.178-.086.22-.097.063-.017.165-.004.215.002l.02.002c.075.008.055.183.11.14.016-.012-.006-.145.049-.148.046-.002.073.097.108.112s.078-.146.097-.145c.105.009.168.102.285.084.1-.008.505-.212.52-.265.085-.212-.13-.045-.148-.047-.086-.004-.092-.068-.133.07-.163-.334-.269.284-.415-.14-.013.3-.096.163-.166.111-.1-.071-.013.092-.082.099-.028.003-.113-.126-.15-.106-.035.018-.051.103-.095.124l-.015.004c-.099.01-.178-.043-.246-.171l-.058.157a3 3 0 0 1-.143-.194l.004.145-.052.011a3 3 0 0 1-.116-.237c-.206.232-.111.011-.176-.044-.066-.056-.16.079-.222.057-.081-.029-.126-.026-.202-.072-.045-.026-.056-.202-.096.047-.155-.05-.39-.11-.455-.276-.02-.048.07-.078.07-.09-.003-.056-.099.027-.119-.01-.033-.06-.065-.208-.085-.256-.028-.066-.214-.02-.231-.02-.091.002-.01-.105-.03-.112-.117-.042-.177-.027.008-.24-.107.063-.346.097-.206-.055-.143.116-.185.015-.26-.01q.053-.063.108-.123c-.348.084-.3-.288-.338-.455-.002-.005-.128.051-.112.013.001-.003.058-.028.057-.048-.005-.065.05-.325.044-.347-.029-.086-.13-.065-.158-.115-.037-.066.048-.105.015-.167-.015-.03-.141-.024-.139-.08.002-.032.094-.06.095-.085.006-.089-.067-.138.04-.236-.303.04-.09-.041-.073-.08.067-.162-.081-.332-.06-.466q.019-.114.051-.221c.096-.317.26-.578.363-.855.02-.055-.124-.108-.097-.168.012-.027.127-.023.142-.065.012-.034-.024-.103-.008-.147.004-.011.102.023.11.007.051-.122.035-.27.053-.418.007-.055.144-.017-.071-.124.061.01.115.018.175.03-.097-.136.07-.107.087-.206.001-.01-.095-.166.028-.131-.068-.052-.131-.089-.194-.134-.001-.055.118-.05.144-.067s-.05-.1-.046-.108c.02-.029.128.07.132.069.204-.028.13-.06.033-.279-.024-.057.203-.059.107-.205.05.05.086.1.131.151l.14-.054q-.079-.066-.158-.132c.112-.022.075-.197.147-.245.04-.027.125.097.128.055 0-.009-.067-.085-.058-.101.072-.133.182-.077.305-.126.057-.021.02-.211.156-.144.014.005.158.117.113-.119.046.061.075.09.11.143-.03-.362.075-.039.23-.008.08.014.297-.105.372-.154.043-.031.02-.165.027-.172.049-.04.069.091.113.063.045-.028.093-.183.147-.174.041.008.021.174.075.113.011-.013-.031-.15.034-.099.01.008.112.157.13.19-.052.086-.18.206-.225.246-.813.605-1.74 1.515-2.05 2.31-.03.067-.182.071-.208.118-.026.045.112.04.09.08s-.121.05-.14.09a2.6 2.6 0 0 0-.224.88c-.004.08.107.137.113.205.003.027-.135.041-.131.061.034.217.201.382.241.581.017.083-.064.209-.043.296.017.071.12.11.147.166.015.031-.072.092-.075.107-.005.053.104-.017.114.003.026.054-.097.154-.057.2.016.02.1-.031.13-.01.038.026-.049.058-.036.086 0 .002.058-.039.069-.027.068.079.183.15.236.229.11.161.143.399.27.55.032.036.083-.041.097-.035.067.03.018.132.103.148.014.003.13-.069.149-.016.01.029-.01.11-.002.139.008.027.075-.068.097-.055.04.025-.014.087.053.11.027.01.16-.043.216-.006.092.061.185.21.317.253.046.015.135-.085.201-.07.082.019.231.071.319.08.044.005.038.13.043.136.034.037.029-.104.052-.097.03.01.057.114.088.121.02.005.023-.099.028-.1l.018-.003c.142-.03.267-.032.404-.066.776-.195 1.337-.803 1.774-1.452.037-.055.153.005.164-.058.011-.066-.221-.235.082-.15l-.149-.07c.132-.074.091-.225.116-.339.019-.085.05-.156.075-.233.023-.068.129-.04.001-.13.108-.205.137-.434.192-.664q.03-.134.08-.273c-.24-.056-.099-.136-.08-.245.003-.013-.08.013-.078-.025.001-.047.126-.094.103-.173-.006-.023-.182-.14-.127-.214.056-.076.072-.17.119-.253l-.147.081-.057-.075.186-.083-.2.019c.309-.162.218-.086.104-.133-.057-.023-.015-.08-.066-.106-.019-.01-.115.025-.134.015-.047-.023.09-.063.078-.086-.014-.025-.167.013-.129-.06.267-.085.115-.176-.072-.073-.01-.014-.009-.03-.023-.043.472-.261.094-.147.014-.134-.081.011.04-.067.031-.071-.026-.012-.067.036-.078.024-.07-.084-.063-.22-.129-.312-.01-.013-.063.05-.069.032-.005-.02.045-.086.022-.103-.006-.005-.06.041-.069.033-.154-.176-.283-.373-.48-.518-.018-.013-.103.084-.134.058-.031-.025-.026-.156-.068-.19-.011-.009-.066.082-.08.072-.048-.037-.057-.139-.111-.179-.092-.068-.221-.048-.308-.14-.017-.018.012-.102-.012-.135-.042-.057-.056.074-.071.088-.048.045-.017-.125-.062-.09-.007.006-.023.107-.028.107-.072.002-.03-.234-.132-.122-.048-.148.08-.174.107-.242a.6.6 0 0 0-.03-.465c-.04-.065-.057.045-.076.042-.103-.015-.257-.006-.334-.06-.048-.033.042-.076.018-.113s-.042.045-.066-.046c-.023-.092-.08-.359-.07-.486m2.916 7.195c-.26-.38-.039-.667.083-.848.101-.14.468-.175-.002-.305-.065.169-.08.325-.183.49-.01.018-.108.1-.136.131-.016.018-.085-.023-.1.004-.003.006.066.093.056.104-.034.037-.245.06-.252.077-.02.05.093.108.097.14.011.11-.142.002-.143.1 0 .017.095.159.039.19-.023.013-.113-.013-.123.003-.05.087-.052.247-.135.298-.068.04-.136-.069-.176-.056-.04.012.017.155 0 .18-.027.038-.12.005-.13.013-.196.177-.357.382-.591.52.19-.017.38-.058.572-.11.019-.168.04-.036.123-.043.066-.006-.052-.194.019-.216.035-.01.196.059.217-.043 0-.004-.068-.096-.027-.137.094-.093.192-.273.305-.366.033-.027.119.058.164.027.034-.023-.026-.126.03-.157.069-.038.247.043.06-.153.08.052.154.107.233.157m.28-4.012c.007-.012.23-.257-.049-.097-.058.222.068.383.04.588.288-.14.137-.225.072-.346-.003-.006.084-.006.058-.037-.013-.015-.154-.038-.121-.108M23.583 11.18a.657.657 0 0 0 .987 0l4.112-4.582a.83.83 0 0 0 .2-.55.84.84 0 0 0-.2-.55L24.57.924a.642.642 0 0 0-.98 0l-4.112 4.574a.83.83 0 0 0-.2.55c0 .207.07.398.2.55zm.493-8.614 3.133 3.482-3.133 3.49-3.132-3.49z"/><path fill="#a9a9a6" d="M24.235 10.594c.057-.1-.066-.222-.159-.18l-.014.007c-.021.012-.01.094-.014.108-.006.025-.046-.057-.052-.055-.023.006.035.14.034.145.008.06-.052-.094-.087-.092-.027 0-.045.025-.05.045l.09-.08c.029-.028.099.059.149-.011.035-.05.066-.271.223-.245.038.033.072.078.108.116-.075-.231-.039-.258.115-.353.025-.015-.022-.092.034-.107s.156.073.22 0c.023-.027-.033-.105 0-.147.091-.12.37-.256.455-.345.168-.175.137-.381.323-.505.014-.01.067.087.088.065.022-.021-.058-.136-.055-.144.029-.084.28-.09.293-.14.034-.118-.083-.077 0-.208.079-.125.345-.156.468-.24.141-.098-.014-.31.27-.224.284-.34.574-.678.86-1.017l.117.111-.013-.152.079.091c-.005-.225.034-.388.194-.502.003-.003.076.076.08.076.044-.02.015-.11.055-.126.096-.037.374.002.116-.137a.6.6 0 0 0 .123-.107c.03-.033.013-.104.06-.157.012-.015.052-.025.094-.036.05-.014.104-.028.108-.043.007-.027-.136.002-.142-.005-.036-.038-.047-.084.095-.163a2 2 0 0 0-.188.062c.097-.045.09-.098.055-.133l.008.008c-.045-.046-.096-.086-.114-.11-.009-.01.049-.064.041-.071-.082-.077-.193-.015-.287-.059-.034-.015.105-.07.002-.094-.009-.002-.1.085-.168.007-.11-.124-.358-.326-.444-.513-.007-.016.127-.07.054-.104-.026-.012-.09.062-.133.014-.171-.184-.268-.457-.508-.586.088-.066.24-.08.097-.136-.023-.01-.084.068-.094.063-.074-.04-.068-.138-.154-.177-.025-.011-.086.035-.121.024-.052-.017.016-.106-.055-.115-.111-.015-.197.045-.117-.17-.41-.436-.85-.84-1.182-1.344-.159-.09-.314-.165-.45-.283-.04-.035.056-.136-.035-.168-.02-.007-.22-.008-.026-.21-.043-.012-.06-.029-.092-.043l-.043.138c-.058-.132-.206-.148-.321-.206-.085-.044.046-.077.001-.11-.045-.032-.082-.032-.02-.18-.07.032-.097.03-.11.01-.002-.006.02-.037.015-.045-.003-.002-.044.047-.037.036.005-.007.046-.103.03-.091-.007 0-.04.125-.028.138.013.018 0-.115-.006-.115-.034-.01.052.085-.117-.053q.049.06.078.099c.007.065-.013.124-.052.156-.081.067-.415.047-.229.254-.172.007-.107.048-.2.156-.085.098-.395.283-.454.372-.059.088.09.153.077.198-.02.074-.08-.03-.11.006a1.1 1.1 0 0 0-.194.33l-.192-.145.046.068c-.019.02-.038.043-.057.06.403.077-.156.136-.247.224-.076.073-.07.316-.122.426-.012.027-.063-.045-.065-.04-.027.068.01.115-.058.177-.035.033-.149-.002-.182.032-.242.247-.385.568-.606.832-.038.045-.17-.006-.204.029-.05.05 0 .154-.043.205s-.202.034-.217.08.128.073.048.111c-.036.017-.061-.094-.095-.062-.103.102-.154.331-.34.371.026.014.05.023.076.035-.118.115-.265.178-.385.297-.043.042-.053.176-.092.22-.04.042-.123.003-.156.036-.014.013.05.06.04.07a.4.4 0 0 1-.114.064c-.045-.021-.126-.028-.134.027a.4.4 0 0 0 .005.139c.018.089.063.15.121.194l-.009-.011.713.673c.019.017.107-.04.143-.022.056.026-.01.09-.008.097.018.05.068-.021.112.028.097.109.198.334.3.439.235.24.484.395.733.613.018.016-.084.085-.057.117.183.224.312.192.528.482s.614.847.884 1.173h-.001c.257-.052.33.114.298.335-.966-.24-1.306-.993-1.91-1.633-.633-.672-1.592-1.135-2.176-1.869a.1.1 0 0 1-.014-.025c-.029-.076.035-.158-.016-.2-.01-.008-.08.07-.11.038a.65.65 0 0 1-.147-.43.82.82 0 0 1 .27-.592 2.6 2.6 0 0 0 .42-.438c.08-.116.012-.207.074-.317.024.05.055.098.082.147.498-.309.82-.777 1.22-1.185.017-.018.1.052.121.035.043-.035-.012-.153.017-.19.037-.05.108 0 .142-.046.016-.023-.05-.072 0-.107.004-.003.071.052.09.015.05-.102.145-.318.19-.4.057-.105.216-.086.252-.113.096-.073-.005-.16.062-.235.477-.532 1.047-.937 1.535-1.482.014-.016.023-.078.034-.144.006-.064.03-.135.068-.156a.6.6 0 0 1 .183-.04c.084-.012.153.078.183.098.054.038.167-.072.221-.06.072.008.16.09.19.138l.018.024c.056.075-.095.169-.02.192.023.006.109-.099.155-.046.04.043-.02.129-.006.17.013.042.178-.007.192.014.071.112.034.223.125.332.076.09.494.449.552.458.257.041-.024-.161-.032-.179-.046-.098.011-.129-.147-.125.214-.316-.43-.169-.157-.524-.275.133-.213-.019-.229-.125-.022-.146-.086.038-.147-.029-.024-.026.006-.191-.044-.219-.045-.025-.126.017-.18-.015l-.013-.01c-.1-.089-.15-.18-.242-.342a1 1 0 0 0-.108.137.7.7 0 0 0-.253-.184q.032.067.057.137l-.067.028a.7.7 0 0 0-.316-.107c-.065.342-.11.16-.237.204l-.022.009c-.1.06-.027.213-.084.278-.077.088-.098.14-.185.22-.05.047-.24.03.002.122-.128.17-.272.432-.472.508-.059.023-.065-.084-.079-.083-.065.005 0 .118-.046.142-.076.041-.254.095-.314.128-.086.047-.065.262-.066.281-.007.105-.12.033-.132.06-.062.148-.043.21-.283.058.064.11.105.37-.073.263.136.124.021.205 0 .298l-.151-.072c.127.35-.285.451-.468.597-.005.004.09.104.044.109-.003 0-.047-.044-.068-.032-.07.04-.382.154-.406.179-.087.089-.025.173-.068.236-.057.083-.136.031-.19.11-.025.038.04.15-.02.19-.035.024-.11-.037-.137-.018-.099.068-.11.172-.273.165.21.225.009.11-.042.134-.21.091-.287.37-.426.484a5 5 0 0 1-.207.16 1.24 1.24 0 0 0-.422.756c-.05.295.018.643.22.916l.01.011q.04.058.083.114c.054.07.182-.016.237.06.024.033-.03.14.014.191.036.042.13.063.175.114.012.013-.064.084-.047.104.131.155.318.253.492.372.065.044-.006.17.164.001-.024.061-.044.116-.069.175.182-.023.122.146.245.225.013.008.208-.023.16.102.066-.054.114-.11.172-.16.065.023.053.157.072.194.02.037.12-.017.129-.009.033.033-.083.122-.083.126.04.254.082.185.332.136.063-.013.09.258.25.176-.052.049-.106.081-.159.123l.093.186q.06-.085.122-.169c.047.14.241.118.312.204.04.05-.077.144-.028.15.01.001.077-.076.097-.065.167.088.14.217.242.362.049.068.234 0 .223.17 0 .015-.044.21.178.108-.04.067-.055.108-.09.162.356-.123.076.074.147.275.037.104.312.32.414.377.06.034.162-.058.174-.053.07.032-.028.12.031.154.06.035.227-.004.261.055.027.046-.123.125-.03.143.02.004.094-.123.107-.026.002.014-.025.21-.032.252-.11.008-.325-.061-.4-.092-1.3-.532-3.004-2.423-3.847-3.48-.078-.097-.026-.254-.071-.323-.045-.07-.097.07-.139.007-.04-.063-.007-.165-.048-.222l-.049-.07-.014-.015a1.62 1.62 0 0 1-.32-1.061 1.57 1.57 0 0 1 .511-1.082c.085-.085.07-.228.143-.31.029-.03.132.06.152.037.21-.25.313-.563.541-.793.095-.095.28-.126.376-.218.08-.075.098-.213.163-.288.035-.04.132.009.15 0 .066-.032-.045-.1-.022-.126.064-.07.211-.002.262-.077.02-.03-.057-.092-.034-.14.029-.06.08.018.114-.014.002-.002-.057-.042-.043-.063.092-.129.182-.312.287-.422.217-.227.525-.366.74-.566.055-.05-.027-.098-.014-.118.06-.098.168-.054.218-.169.008-.019-.033-.163.041-.197.04-.02.13 0 .168-.014.037-.013-.047-.096-.019-.127.05-.057.096.014.158-.077.026-.036.041-.22.123-.298.133-.128.362-.23.508-.39.02-.022.028-.058.035-.1a.64.64 0 0 1 .228-.3c.234-.187.827-.256 1.113-.137.15.049.104.174.117.184.079.077.105-.067.17-.024.087.06.096.2.15.26.035.038.114-.028.123-.02l.036.033c.177.152.31.313.473.478.909.921 1.88 1.803 2.698 2.802.069.084-.026.175.053.231.079.058.35-.063.17.204.049-.04.082-.07.126-.107.066.205.265.29.402.425.102.1.178.2.261.303.046.058.028.105.052.127l.015.017c.025.027.067.047.153.079.18.307.267.665.25.997-.02.38-.16.763-.46 1.054a3 3 0 0 1-.322.23c.096.243-.088.228-.221.324-.017.012.06.053.016.092-.056.05-.179-.01-.257.089-.02.026-.076.304-.192.322-.115.018-.235.086-.351.109q.076.039.153.076l-.073.125-.164-.12q.044.093.088.189c-.297-.187-.172-.157-.195 0-.012.078-.092.076-.111.15-.007.027.059.107.05.136-.02.07-.1-.053-.126-.022-.026.032.049.178-.051.187-.153-.24-.235-.015-.083.135-.018.02-.04.03-.054.057-.383-.38-.191-.022-.173.068s-.088-.008-.092.005c-.013.039.05.059.034.08-.106.135-.28.197-.4.318-.017.017.059.056.034.071-.025.016-.104-.018-.128.017-.007.01.044.06.033.073-.25.273-.529.492-.787.766-.023.025.054.13.007.176s-.2.044-.261.098c-.016.015.059.09.038.11-.073.066-.194.071-.272.137-.132.112-.204.29-.367.377-.031.017-.094-.047-.144-.028h-.002c-.114.063.006.12-.002.152-.036.107-.165-.011-.21.071-.009.013.063.09.052.098-.179.12-.265-.102-.421.067-.189-.107.074-.2.063-.283-.017-.181-.194-.341-.231-.41-.035-.046-.034.029-.046.05q-.002.006-.006.006c-.085.005-.225-.029-.244-.113-.009-.046.068-.047.074-.087.011-.036-.05.022 0-.056.045-.082.238-.268.335-.35m2.86-6.439c.453-.148.76.26.912.492.126.192.007.562.337.202-.161-.185-.33-.3-.493-.503-.017-.02-.09-.17-.122-.217-.018-.027.041-.081.012-.113-.006-.006-.119.025-.13.01-.036-.055-.045-.306-.066-.323-.06-.046-.134.059-.173.05-.128-.03.004-.165-.113-.204-.021-.007-.185.055-.222-.018-.015-.03.01-.127-.009-.143-.106-.085-.29-.122-.358-.227-.056-.085.056-.15.032-.2-.023-.05-.175-.001-.206-.023-.049-.034-.034-.143-.047-.155-.258-.25-.542-.422-.798-.655.113.213.23.422.342.635.185.01.05.044.078.136.022.073.198-.063.24.02.021.044-.025.221.089.252.004.001.096-.069.148-.016.119.118.334.27.441.426.032.045-.066.118-.033.176.024.043.144.01.175.082.039.09-.074.252.167.122-.067.067-.138.127-.202.194m.273 3.832c-.016.003-.355-.065-.084.108.26-.084.38-.32.604-.453-.29-.147-.294.043-.394.188-.005.007-.043-.073-.063-.029-.01.022.026.171-.063.186m-2.64-6.007c.163.022.28.083.33.21.012.028-.051.08-.053.099-.003.032.087 0 .09.004.023.024-.092.11-.094.117-.01.075.102-.045.144-.021.056.03.085.108.128.167.014.02-.075.086-.031.12.03.025.203.03.14.16-.037.034-.083.066-.123.099.208-.083.22-.055.257.062.006.018.08-.027.078.017-.003.045-.101.135-.058.18.015.016.094-.037.12-.015.073.064.11.28.16.34.098.122.274.078.325.218.004.011-.088.062-.077.078.012.016.127-.06.133-.058.06.015 0 .22.035.227.088.016.086-.076.17-.02.081.053.036.267.072.36.042.106.256-.04.11.2.202.2.4.406.6.608l-.121.106.128-.025-.096.073c.185-.025.307-.008.358.112.001.002-.082.07-.083.073.003.034.085.002.087.033.005.075-.101.305.081.082q.023.06.068.104l.313.282-.312.433c-.068.08-.113.187-.204.23-.056.026-.193-.074-.218-.06-.026.013.092.1.09.111-.015.065-.083.132-.211.03l.122.158c-.13-.126-.194.057-.228.09-.007.005-.066-.047-.07-.041-.04.06.04.156.03.23-.005.025-.086-.093-.078-.011 0 .007.095.088.05.137-.071.078-.17.263-.3.315-.01.005-.091-.11-.1-.053-.002.02.075.079.048.11-.104.123-.302.176-.343.36-.077-.077-.13-.203-.137-.092-.001.018.079.076.077.083-.013.057-.095.043-.104.11-.002.02.052.073.052.1 0 .041-.09-.022-.079.035.018.09.09.165-.107.08-.247.294-.46.616-.782.841-.03.121-.05.24-.11.341-.019.03-.126-.058-.128.013 0 .016.052.18-.165.002.002.034-.008.046-.01.071l.123.048c-.091.035-.065.154-.082.243-.012.065-.075-.045-.09-.01-.014.033-.004.063-.14 0 .04.055.048.078.039.088l-.375.52-.576-.52c-.013-.014.002-.059-.02-.088-.005-.006-.08.008-.092-.025-.008-.024.064-.098.027-.115-.006-.003-.154.024-.18.013-.04-.017.017-.152.013-.16-.056-.097-.182-.041-.074-.244-.106.074-.205.076-.231.028-.033-.06.072-.335-.146-.163.04-.14-.011-.083-.074-.15-.058-.06-.126-.295-.183-.336-.056-.04-.149.088-.182.081-.055-.01.046-.068.024-.09a.5.5 0 0 0-.217-.127l.17-.17-.068.044c-.011-.014-.025-.027-.034-.041-.17.336-.07-.115-.116-.181-.04-.056-.24-.029-.316-.06-.019-.008.054-.056.05-.058-.048-.016-.096.019-.13-.03-.017-.026.043-.122.024-.146-.137-.175-.361-.262-.517-.418-.027-.027.05-.139.03-.164-.027-.037-.126.014-.155-.016-.03-.03.026-.162-.008-.17s-.094.112-.104.05c-.004-.029.094-.06.076-.083-.055-.075-.229-.096-.212-.244l-.048.065c-.062-.086-.075-.2-.14-.287-.023-.03-.13-.027-.154-.055-.025-.028.03-.1.012-.124-.008-.01-.064.047-.068.04a.24.24 0 0 1-.023-.125l-.322-.29.322-.445c.065-.007.13-.01.167-.064.22-.334.456-.671.685-1.006.01-.013-.06-.09-.056-.118.006-.043.076.017.081.015.037-.01-.035-.057-.007-.088.063-.07.22-.132.277-.206.133-.17.194-.358.305-.542.008-.013.092.076.11.058.134-.13.073-.238.253-.387.179-.15.526-.425.72-.615-.111-.214.005-.258.193-.212.063.766-.46.975-.82 1.41-.38.455-.5 1.196-.943 1.606-.041.038-.153-.031-.164.022-.002.01.086.06.077.085-.075.204-.25.328-.418.456v-.093c.075.123.152.243.262.326.073.056.165-.008.239.032-.049.025-.095.055-.143.08.12.379.415.599.642.887.01.013-.07.087-.06.102.016.032.127-.023.15-.003.03.025-.03.088 0 .111.013.012.072-.048.087-.01.001.004-.062.063-.037.075.07.032.22.09.276.119.07.036.012.168.025.195.034.072.133-.019.175.029.307.34.486.768.8 1.116.02.022.203.003.235.048.01.015.045.112.052.125.03.052-.004.15.003.186.014.071.166.028.199.044a.4.4 0 0 1 .12.126l.068.062.045-.062.012-.01c.047-.04.164.092.162.033 0-.018-.109-.097-.079-.13.026-.029.111.027.142.02s-.054-.146-.04-.155c.072-.048.172-.007.237-.072.054-.053.234-.362.227-.408-.035-.206-.126.004-.138.01-.068.028-.108-.022-.063.108-.315-.204-.023.335-.385.08.181.236.04.172-.041.175-.114.005.053.074.015.118-.014.017-.158-.023-.167.015-.008.034.045.102.036.143h.05l-.012-.007c-.062-.054-.07-.135-.026-.268l-.145.08.034-.221-.09.112-.043-.018c.021-.082.04-.159.064-.243-.29.086-.089-.044-.11-.121s-.167-.003-.205-.043c-.05-.055-.088-.067-.13-.131-.025-.037.04-.194-.1.013-.105-.089-.28-.183-.289-.339-.002-.046.086-.06.09-.072.012-.052-.097.01-.105-.024-.013-.059-.01-.199-.02-.245-.016-.066-.197-.029-.212-.028-.084.004.005-.095-.013-.102-.105-.037-.16-.016.027-.226-.107.062-.329.12-.194-.035-.138.122-.173.036-.244.026l.1-.129c-.321.136-.293-.19-.363-.327-.002-.003-.109.084-.1.046 0-.002.048-.042.044-.058-.014-.054-.024-.298-.038-.315-.05-.063-.135-.004-.175-.034-.052-.039.011-.108-.04-.144-.023-.017-.131.045-.148 0-.01-.026.06-.092.05-.113-.028-.074-.11-.075-.061-.207-.239.19-.093.017-.098-.023-.019-.162-.226-.2-.281-.303q-.047-.09-.087-.182v.426c.258-.145.532-.253.748-.44.043-.038-.062-.151-.015-.189.021-.016.122.037.152.006.025-.025.017-.1.046-.132.008-.01.086.06.098.047.091-.092.121-.236.171-.368.019-.048.142.021-.042-.133l.161.072c-.068-.15.086-.086.118-.179.003-.01-.075-.172.04-.12-.061-.06-.12-.104-.176-.157.001-.05.114-.028.139-.04s-.046-.1-.042-.106c.018-.024.122.078.125.078.196-.009.129-.05.021-.258-.027-.053.187-.05.078-.188.053.047.094.094.143.14l.126-.058-.17-.115c.102-.025.032-.186.083-.236.03-.028.138.076.13.036-.002-.007-.083-.07-.08-.085.028-.128.14-.094.231-.164.043-.034-.063-.191.078-.167.014.002.185.056.042-.135.065.039.102.055.156.088-.196-.302.04-.055.184-.095.076-.02.178-.225.198-.303.011-.047-.09-.137-.09-.147.007-.054.106.034.117-.012.012-.045-.064-.185-.025-.208.03-.017.135.112.125.038-.002-.016-.125-.088-.05-.09.011 0 .178.04.214.05.036.09.037.26.032.318-.086 1.013-1.173 2.23-1.809 2.822-.059.055-.2-.002-.245.029-.044.03.083.086.043.114-.04.027-.132-.009-.168.019-.213.164-.428.328-.625.504V5.6l.063.086c.047.061.168.036.215.088.018.02-.084.113-.07.127.148.148.376.203.503.369.052.069.028.216.077.287.04.058.148.06.192.106.024.025-.042.108-.04.123.008.05.094-.046.108-.03.04.046-.054.172-.007.207.019.013.09-.055.123-.041.043.018-.035.067-.018.091 0 .002.05-.05.062-.04.081.063.207.12.268.195.127.157.159.395.264.553.027.04.087-.032.1-.023.065.04 0 .132.08.162.013.005.142-.042.15.016.005.03-.034.106-.033.135s.09-.046.108-.026c.033.036-.037.08.021.121.023.018.168.014.21.073.07.097.092.274.184.38.031.035.162 0 .212.055.062.067.153.21.214.28.031.035-.06.122-.06.13-.002.05.093-.055.105-.033.017.03-.04.123-.024.15.01.017.088-.05.092-.047l.016.012h-.963c.077-.13.171-.223.262-.34.51-.657.97-1.369 1.567-1.945.05-.048.149.037.174-.022.026-.059-.145-.291.12-.12l-.12-.113c.15-.034.166-.19.24-.288.054-.074.116-.127.177-.185.055-.052.132.026.07-.117.202-.13.363-.3.559-.435v1.015a1.4 1.4 0 0 1-.11-.26c-.225.102-.163-.05-.207-.15-.005-.013-.06.055-.08.022-.024-.042.056-.147-.003-.202-.015-.014-.228-.034-.211-.127.016-.093-.008-.184.005-.277q-.054.066-.104.132l-.082-.048.142-.145-.178.09c.232-.26.174-.155.053-.16-.061-.002-.039-.068-.094-.076-.02-.003-.102.057-.124.053-.051-.01.07-.086.051-.105-.018-.019-.158.056-.139-.025.238-.147.076-.193-.088-.055-.011-.012-.014-.029-.031-.039.412-.347.068-.158-.01-.134-.079.023.03-.073.02-.075-.027-.008-.06.046-.073.034-.083-.073-.086-.21-.153-.296-.01-.012-.061.053-.068.034-.006-.02.043-.087.02-.103-.005-.005-.06.042-.068.033-.156-.178-.26-.385-.415-.571-.014-.017-.12.056-.145.022-.025-.035.018-.16-.01-.204-.008-.012-.09.056-.1.04-.035-.053-.006-.15-.04-.209-.056-.097-.18-.14-.209-.265-.005-.023.063-.08.061-.12-.003-.068-.086.034-.106.037-.065.012.055-.112 0-.107-.008 0-.08.074-.084.072-.06-.041.114-.204-.032-.175.057-.143.167-.09.23-.13a.77.77 0 0 0 .275-.37c.018-.067-.064.007-.075-.004-.054-.06-.15-.135-.151-.215-.002-.049.077-.03.092-.068s-.056.008-.001-.067c.054-.075.227-.283.326-.363m1.309 5.795c-.242-.382.01-.595.158-.698.123-.085.457.046.075-.257-.108.115-.156.243-.279.356-.012.012-.115.059-.145.08-.017.012-.077-.04-.095-.02-.003.005.053.1.042.107-.034.024-.237.009-.245.025-.021.044.084.114.087.145.01.101-.135-.018-.136.074 0 .016.094.156.044.18-.02.009-.106-.021-.114-.007-.041.079-.023.225-.09.272-.054.038-.136-.06-.172-.045s.046.143.037.166c-.015.037-.108.015-.114.025-.135.187-.2.403-.322.59.144-.073.283-.15.427-.22-.04-.15.023-.037.09-.052.054-.011-.104-.167-.047-.194.03-.013.187.041.182-.05 0-.003-.082-.084-.053-.122.065-.085.13-.247.23-.32.029-.022.113.064.153.043.028-.016-.031-.116.02-.135.063-.024.225.083.054-.126.073.061.141.125.213.183m.376-2.686c.002-.014.148-.296-.066-.06 0 .206.16.282.209.452.197-.25.043-.236-.049-.304-.004-.003.072-.042.04-.054-.015-.006-.145.037-.134-.034"/></svg>