<svg width="49" height="49" viewBox="0 0 49 49" fill="none" xmlns="http://www.w3.org/2000/svg">
<path d="M47.2451 42.0125L34.7313 29.4987C36.7699 26.428 37.8438 22.8721 37.8438 19.1638C37.8438 8.82507 29.4325 0.413818 19.0938 0.413818C8.755 0.413818 0.34375 8.82507 0.34375 19.1638C0.34375 29.5026 8.755 37.9138 19.0938 37.9138C22.8021 37.9138 26.3581 36.8399 29.4287 34.8015L32.8876 38.2604C32.888 38.2609 32.8885 38.2614 32.8891 38.2619L41.9423 47.3152C42.6509 48.0236 43.5924 48.4138 44.5938 48.4138C45.5951 48.4138 46.5366 48.0236 47.2448 47.3154C47.9535 46.6073 48.3438 45.6657 48.3438 44.6638C48.3438 43.6619 47.9535 42.7203 47.2451 42.0125ZM28.9878 32.8257L28.9876 32.8259C26.0938 34.9278 22.6727 36.0388 19.0938 36.0388C9.78888 36.0388 2.21875 28.4687 2.21875 19.1638C2.21875 9.85894 9.78888 2.28882 19.0938 2.28882C28.3986 2.28882 35.9688 9.85894 35.9688 19.1638C35.9688 22.7427 34.8577 26.1638 32.7557 29.0577C31.7042 30.5064 30.4365 31.7742 28.9878 32.8257ZM30.9546 33.6757C31.9249 32.8819 32.8119 31.9949 33.6056 31.0247L36.2654 33.6845C35.4565 34.6391 34.5691 35.5267 33.6144 36.3354L30.9546 33.6757ZM45.9193 45.9894C45.5649 46.3437 45.0942 46.5388 44.5938 46.5388C44.0933 46.5388 43.6226 46.3437 43.2682 45.9894L34.9437 37.6648C35.8931 36.85 36.78 35.9633 37.5947 35.0138L45.9195 43.3387C46.2737 43.6925 46.4688 44.163 46.4688 44.6638C46.4688 45.1646 46.2737 45.6352 45.9193 45.9894Z" fill="#AA99AA" fill-opacity="0.588235"/>
<path d="M46.9298 42.3168C46.1548 41.6171 45.4023 40.8968 44.6602 40.1219C44.4911 39.9454 44.5365 39.9326 44.4701 39.8568C44.3482 39.7175 44.0977 39.5298 44.067 39.4991C43.8759 39.3088 44.0013 39.3324 43.9776 39.3047C43.7122 38.998 43.7365 39.1383 43.4574 38.8704C43.094 38.5214 42.6473 38.054 42.221 37.622C42.0714 37.4701 42.1772 37.4985 41.8487 37.1764C41.616 36.9483 40.8649 36.2856 40.5866 35.9129C40.6025 35.8931 40.6633 35.9146 40.699 35.9135C40.1581 35.5211 39.9944 35.3509 39.351 34.6713C39.2492 34.5638 39.1196 34.4952 38.9465 34.2996C38.7735 34.104 38.8127 34.0492 38.4416 33.6792C38.3098 33.5481 38.1969 33.5015 37.9939 33.3014C37.4166 32.7323 36.3661 31.5994 35.897 31.1275C35.3314 30.5583 34.9018 30.1699 34.4693 29.7608L34.2552 29.5494L34.4226 29.2938C34.618 28.9801 34.8129 28.6594 35.0428 28.2818C35.0883 28.2066 35.0367 28.3998 35.1178 28.2603C35.1997 28.1194 35.2214 27.9378 35.2389 27.9022C35.4347 27.5198 35.9095 26.7365 35.9912 26.5085C36.1941 25.9603 35.9503 26.4809 36.2366 25.7266C36.5052 25.0086 36.8991 24.0174 37.0813 23.2721C37.2914 22.408 37.2034 22.1066 37.4247 21.463C37.5166 20.701 37.5613 19.9329 37.5592 19.1638C37.5553 17.5773 37.3485 15.9939 36.9407 14.4656C36.9683 14.4653 36.9962 14.466 37.0242 14.467C36.9589 14.2908 36.8909 14.1162 36.8208 13.9432C36.8478 13.9644 36.8745 13.9844 36.9013 14.006C36.5803 13.1869 36.283 12.4707 35.8824 11.5338C35.8745 11.5155 35.9449 11.541 35.9393 11.5254C35.8531 11.3113 35.7047 11.0974 35.6226 10.9125C35.4298 10.4642 35.1131 9.68481 35.1714 10.0735C34.6386 9.0644 33.8224 7.99573 33.1341 7.15798C32.8366 6.79476 32.801 6.63585 32.6507 6.46665C32.4992 6.29895 32.5254 6.43269 32.4683 6.37666C32.1282 6.03738 31.5538 5.49744 31.544 5.38294C31.4504 5.34204 31.3522 5.29861 31.2572 5.25882C31.3677 5.22043 30.1955 4.30249 29.8702 4.08821C29.8126 4.04649 29.8273 4.00858 29.7831 3.97782C29.2874 3.63864 29.1301 3.61249 28.6841 3.36093C28.5266 3.27473 28.8023 3.35676 28.3897 3.14794C28.3529 3.13121 28.3431 3.19029 27.8617 2.92535C27.0978 2.49164 25.5473 1.84547 24.5533 1.52365C24.4722 1.49641 24.7419 1.50681 24.3623 1.40847C24.2243 1.37415 24.2767 1.43768 23.9453 1.34629C22.6626 0.9961 21.2539 0.718933 19.8922 0.709275C19.9434 0.657178 20.4311 0.616532 19.7014 0.62039C19.5847 0.622453 19.6702 0.673888 19.618 0.674175C19.4372 0.675166 19.2665 0.66999 19.0938 0.666122C18.8621 0.661025 18.6286 0.658096 18.3674 0.678907C18.2325 0.690053 18.2022 0.729594 18.0334 0.747987C17.7856 0.776297 17.6716 0.729382 17.3864 0.778186C16.941 0.85894 16.878 0.916066 16.3114 0.895656C13.1659 1.37673 10.1963 2.70437 7.68239 4.62881C6.98158 5.21925 6.37755 5.81068 5.73045 6.50728C5.54144 6.71363 5.45177 6.70474 5.17318 7.05651C5.10772 7.13388 4.71064 7.72971 4.53872 7.72737C4.42483 7.89188 4.34866 7.99257 4.25203 8.13443C4.34615 8.04251 4.44393 7.94851 4.5366 7.86327C4.07662 8.42003 3.78276 8.93556 3.46597 9.48744C3.23575 9.89609 3.35749 9.58056 3.21485 9.83078C3.07427 10.0825 3.02103 10.202 2.78662 10.4855C2.72794 10.7746 2.58681 10.9133 2.36199 11.385C2.33773 11.4357 2.23141 11.7433 2.12023 11.9907C2.0407 12.1681 1.96963 12.2013 1.86383 12.4933C1.84377 12.541 1.67792 13.177 1.62141 13.3768C1.52599 13.6869 1.31954 14.1615 1.30286 14.2231C1.05297 15.1029 1.05346 15.4605 0.834243 16.0809C0.874243 16.2227 0.828442 16.7585 0.777642 17.1934C0.701727 17.7357 0.529373 18.8422 0.673344 18.9961C0.666811 19.0581 0.661574 19.1136 0.657343 19.1638C0.622037 19.6323 0.64793 19.6404 0.686215 20.3233C0.70496 21.011 0.930045 22.8289 1.08855 23.3695C1.22691 23.9113 1.2381 23.6267 1.30275 23.8391C1.41327 24.1847 1.30718 24.0107 1.37531 24.2495C1.57229 24.9223 1.78503 25.4966 2.06023 26.1064C2.03688 26.1548 2.01459 26.2059 1.99214 26.2558C2.01779 26.2828 2.04345 26.3096 2.06921 26.3363C2.12512 26.4698 2.19095 26.618 2.24495 26.7404C1.9488 25.6391 2.66545 27.7435 3.02791 28.3132C3.30018 28.8063 3.87798 29.5484 4.25928 30.0287C4.35125 30.146 4.25581 30.0893 4.27477 30.1133C4.50092 30.3943 4.55582 30.421 4.85693 30.7991C5.01704 30.9983 5.14602 31.2323 5.31159 31.4197C6.5291 32.7953 7.93655 33.9019 9.48549 34.8493C9.74908 35.0101 9.94692 35.2007 10.1748 35.3288C10.501 35.5108 10.7343 35.5707 11.0483 35.7239C11.3598 35.8768 11.7936 36.1396 12.0168 36.2204C12.2389 36.3014 11.8889 36.0909 12.2823 36.2693C12.4639 36.3499 12.1205 36.2636 12.3484 36.3556C13.061 36.6464 14.1096 36.917 14.8923 37.1516C14.8603 37.1298 14.8153 37.1063 14.7756 37.0831C15.6209 37.2903 16.3712 37.4527 17.2678 37.5481C17.5783 37.5826 18.1508 37.5793 18.4561 37.5878C18.7383 37.5971 18.8799 37.6358 19.0938 37.6434C19.1129 37.644 19.1326 37.6444 19.153 37.6444C19.2549 37.6445 19.2148 37.605 19.2829 37.6052C20.1341 37.6013 20.6089 37.6419 21.4974 37.525C24.2321 37.152 26.9404 36.1232 29.2609 34.5488L29.4652 34.4113L29.6431 34.587C30.027 34.9649 30.4103 35.3423 30.7927 35.7187C30.8894 35.8139 30.9906 35.8419 31.1361 35.9766C31.3603 36.184 31.3385 36.227 31.3662 36.2569C31.5472 36.4521 31.5004 36.3455 31.7529 36.598C32.1327 36.9777 32.6591 37.5289 33.132 38.016C33.133 38.0171 33.1333 38.0174 33.1334 38.0175C33.3522 38.2429 33.5595 38.4545 33.7354 38.629C35.0177 39.9007 36.1197 40.9456 37.3861 42.1832C37.4775 42.2724 37.3729 42.2545 37.5289 42.4116C38.6274 43.5192 38.9024 43.7112 40.2636 45.0958C40.7756 45.6166 41.4579 46.3118 42.1951 47.0623C42.7986 47.692 43.7111 48.0836 44.5938 48.0808C45.3177 48.0899 45.9887 47.8547 46.4747 47.5329C46.4748 47.533 46.4749 47.5332 46.475 47.5333C46.6355 47.3826 46.8048 47.2191 46.9698 47.0405C47.3043 46.6827 47.6092 46.2575 47.8209 45.8338C47.683 46.3183 47.4267 46.7725 47.0803 47.1508C46.4588 47.8393 45.5383 48.2535 44.5938 48.2624C43.6539 48.2818 42.7094 47.9003 42.0378 47.2197C40.694 45.8723 39.3367 44.4865 37.8977 43.0542C36.2954 41.4593 34.6172 39.8444 32.9303 38.2207C32.9298 38.2203 32.9293 38.2198 32.9287 38.2192C31.7536 37.0881 30.5742 35.9528 29.4133 34.8169L29.4407 34.8196C28.4681 35.4809 27.4341 36.0419 26.3662 36.4855C25.9266 36.666 25.7254 36.6728 25.3552 36.8207C25.2923 36.8454 25.4739 36.834 25.2796 36.9079C23.3531 37.638 21.1822 37.9599 19.0938 37.9375C18.2763 37.9308 17.4771 37.8758 16.6946 37.7845C15.9474 37.6908 15.8176 37.7218 15.1618 37.6028C15.2825 37.6017 15.3628 37.59 15.4676 37.5838C12.5098 36.9214 9.68081 35.6355 7.30651 33.6895C7.19981 33.6016 7.2207 33.5485 7.11115 33.4542C6.89265 33.2653 6.64539 33.1266 6.45701 32.9566C6.21219 32.734 6.20081 32.663 5.98147 32.4522C5.87524 32.3484 5.87611 32.4103 5.6551 32.1737C5.63683 32.1536 5.65511 32.1114 5.50346 31.9592C5.0815 31.5488 4.28619 30.6417 3.99489 30.2482C3.61303 29.7533 3.39729 29.2951 3.27565 29.0941C2.95084 28.5474 2.90209 28.5922 2.63878 28.1199C1.13072 25.354 0.409239 22.3088 0.425484 19.1638C0.429553 18.4664 0.470132 17.7682 0.549158 17.0641C0.571426 16.8193 0.628576 15.9047 0.728066 15.4582C0.755028 15.3066 0.95618 14.5313 0.992469 14.4172C1.12228 13.9465 1.29107 13.561 1.38452 13.3095C1.56327 12.8237 1.70909 12.2578 1.81259 11.9941C1.987 11.5272 2.38222 10.7364 2.48417 10.5541C2.72376 10.1109 2.72236 10.2998 2.88059 9.97523C2.92862 9.87996 2.81281 9.94247 3.00405 9.61807C3.16624 9.34758 3.27788 9.26617 3.40117 9.09046C3.52378 8.91467 3.68089 8.54463 3.76077 8.43587C4.17716 7.87008 4.4059 7.65397 4.89817 7.07295C5.26319 6.54886 7.38942 4.53157 7.60706 4.40807C8.42511 3.67673 7.00154 4.81655 6.93355 4.89589C6.50376 5.24768 6.54183 5.17105 6.17863 5.59365C5.67118 5.79122 4.72084 7.2671 4.29302 7.48853C4.12369 7.94006 3.83844 8.20214 3.54 8.58586C3.13451 9.11909 3.48617 8.74158 3.22275 9.15075C3.11873 9.31168 2.77447 9.75421 2.64316 10.013C2.51104 10.2709 2.4978 10.4006 2.32545 10.7459C2.02095 11.364 1.77911 11.8624 1.51156 12.3817C1.49832 12.4908 1.48856 12.5932 1.47769 12.7009C1.31286 13.0646 1.15806 13.4393 1.01675 13.8147C1.05758 13.7599 1.09887 13.7055 1.14018 13.6515C1.10914 13.764 1.07885 13.8772 1.0497 13.9905C0.90832 14.3549 0.78474 14.7069 0.662015 15.0917C0.575441 16.1865 0.528445 15.8539 0.414696 16.4512C0.312309 17.0494 0.358728 17.4083 0.325808 17.8733C0.291727 18.4107 0.291575 18.6951 0.288412 19.1638C0.28818 19.2457 0.288196 19.3329 0.288662 19.4276C0.288401 19.7965 0.245701 20.4197 0.342611 19.9052C0.385022 21.0526 0.646725 22.5989 0.85287 23.6034C0.911369 23.9003 0.77785 23.518 0.785803 23.5689C0.824439 23.8242 0.939111 24.0195 1.0026 24.2771C1.10313 24.7056 1.33296 25.5375 1.45137 25.8664C1.61081 26.344 2.0076 27.0309 2.04889 27.099C2.2693 27.4905 2.2679 27.6262 2.33729 27.7531C2.7418 28.4693 2.86794 28.6037 2.87921 28.8998C3.03767 29.0565 3.60731 29.7446 3.65252 29.9762C3.72947 29.9293 4.14687 30.5385 4.45226 30.8759C4.48416 30.9582 4.51775 31.0415 4.55082 31.1238C5.26545 31.7631 6.50078 33.1853 7.48978 33.9606C7.51432 33.9802 7.60026 33.9609 7.73966 34.0871C7.7484 34.0952 7.71401 34.1084 7.81223 34.1875C8.12335 34.462 9.4138 35.3948 9.58089 35.4745C10.1642 35.8141 10.2952 35.8185 10.6614 36.0007C11.1476 36.234 11.1977 36.3079 11.6719 36.508C11.8946 36.5999 12.1182 36.6273 12.468 36.7693C12.6758 36.8526 12.6799 36.9047 12.8458 36.9677C13.4382 37.1892 13.8896 37.2913 14.4183 37.4922C14.5971 37.3805 14.8282 37.5531 15.0986 37.6231C16.1911 37.9161 17.6026 38.0051 18.5664 38.0375C18.7427 38.0449 18.9184 38.0501 19.0938 38.0529C21.8948 38.0892 24.4685 37.6184 27.0242 36.475C27.4632 36.2734 27.5336 36.1535 27.9817 35.9232C28.1823 35.8183 28.4148 35.7548 28.736 35.5664C28.9713 35.4286 29.2819 35.2086 29.5689 35.0127L29.2494 34.9808C29.2731 35.004 29.2966 35.0271 29.3195 35.0501C29.3887 35.1192 29.358 35.1622 29.4595 35.2643C30.2293 36.0383 31.0092 36.7659 31.8067 37.5276C32.1023 37.8098 32.2323 38.0373 32.2682 37.9035C32.3578 38.0347 32.447 38.1602 32.5301 38.2844C32.5946 38.3335 32.6553 38.3834 32.7136 38.4344C32.7138 38.4344 32.7144 38.435 32.7152 38.4358C33.0645 38.7411 33.3295 39.0843 33.8014 39.5328C33.861 39.5891 34.3256 39.9365 34.5136 40.2091C34.5602 40.1952 34.5501 40.1338 34.5841 40.1131C34.8232 40.3291 35.1379 40.7136 35.288 40.8708C35.4379 41.0278 35.5798 41.0913 35.6264 41.137C35.8031 41.3118 35.7105 41.3224 35.7231 41.3367C36.4925 42.2051 36.4338 42.0914 37.0057 42.5084C37.1491 42.6128 37.9331 43.5101 38.1642 43.619C38.147 43.6516 38.0782 43.6267 38.0409 43.6371C38.287 43.896 38.5349 44.1571 38.782 44.417C38.7522 44.3393 38.7116 44.2507 38.6867 44.1777C39.1833 44.7159 39.6701 45.0898 40.0916 45.515C40.3324 45.7581 40.25 45.7815 40.4036 45.912C40.4338 45.9376 40.4225 45.8548 40.5078 45.9344C41.1179 46.5038 41.3909 46.8297 41.8977 47.3598C41.9705 47.4359 42.0512 47.5134 42.1424 47.5917C42.4953 47.884 42.8704 48.0281 43.4622 48.2849C43.508 48.3156 44.1332 48.5521 44.533 48.4257C44.5535 48.4322 44.5738 48.438 44.5938 48.4433C44.6935 48.4699 44.7843 48.4838 44.8648 48.5042C45.6308 48.2181 45.4556 48.4962 46.477 48.0653C46.6701 47.9686 47.0225 47.7458 47.345 47.4156C47.8942 46.8885 48.2473 46.0501 48.3187 45.6765C48.3973 45.317 48.3152 45.3109 48.3254 45.2476C48.3561 44.9306 48.3968 44.88 48.4093 44.6638C48.411 44.6205 48.4107 44.5709 48.4066 44.5113C48.3848 44.1509 48.2267 43.7239 48.1079 43.387C48.0114 43.129 48.1787 43.2952 47.9743 42.9337C47.9273 42.8623 47.9873 43.1036 47.7973 42.7173C47.7804 42.6511 47.4177 42.0516 47.311 41.9465C47.6335 42.1487 48.273 43.0649 48.3766 43.4806C48.5056 43.8393 48.5874 44.2399 48.6018 44.6638C48.6429 45.6207 48.2944 46.7275 47.4887 47.5595C46.7908 48.3001 45.7291 48.8072 44.5938 48.8172C43.5388 48.8407 42.4261 48.4205 41.6286 47.629C38.573 44.6417 35.3101 41.3955 32.5362 38.6147C32.5352 38.6137 32.5344 38.6129 32.5347 38.6132C31.2594 37.3347 30.0875 36.1547 29.0867 35.1434L29.6961 35.2044C29.666 35.2242 29.6359 35.2438 29.6059 35.2632C29.0239 35.639 28.5947 35.801 28.1981 36.0109C27.7989 36.2175 28.1659 36.098 27.8007 36.2817C27.4335 36.4624 27.1444 36.5479 26.7944 36.6987C24.431 37.7162 21.8451 38.232 19.3058 38.243C19.2337 38.2435 19.1631 38.2441 19.0938 38.245C18.5277 38.2512 18.0523 38.2731 17.5168 38.23C17.2838 38.2103 17.2837 38.1404 17.1191 38.1245C15.3438 37.9425 13.7059 37.6084 12.0489 36.9456C11.3623 36.67 10.6624 36.2773 10.0253 35.9239C9.49841 35.6331 8.9449 35.3414 8.49419 35.0398C8.24941 34.8762 8.15336 34.7428 8.0693 34.6781C7.77753 34.4513 7.84473 34.5781 7.69249 34.4656C7.27466 34.1505 7.12152 33.9275 6.74615 33.617C6.59964 33.4939 6.58531 33.548 6.37203 33.3684C6.10338 33.1383 6.23092 33.1925 6.04777 33.0195C6.0369 33.0088 6.04857 33.0687 5.95044 32.9776C5.31709 32.3932 4.57109 31.6112 4.06114 30.9517C2.9977 29.5926 2.1968 28.0779 1.58398 26.6031C1.4305 26.2302 1.4307 26.3457 1.38014 26.2277C1.14386 25.6544 1.12133 25.4298 0.905807 24.8185C0.870511 24.7177 0.682934 24.3208 0.595802 23.9128C0.548415 23.6943 0.528836 23.4381 0.497252 23.25C0.465997 23.062 0.402032 23.0435 0.357737 22.8193C0.281228 22.4096 0.33832 22.5218 0.240415 21.9339C0.20033 21.6987 0.0459259 20.9075 0.0181443 20.2862C0.000149459 19.9365 -0.00450632 19.5608 0.00444427 19.1638C0.0208674 18.412 0.0893895 17.6107 0.185381 16.8356C0.235351 16.4317 0.252374 15.9003 0.380434 15.279C0.525343 14.5143 0.938144 13.1418 1.23306 12.4032C1.37941 12.0232 1.45192 12.0215 1.4719 11.9775C1.60645 11.6984 1.49364 11.7867 1.5784 11.596C1.69604 11.3344 1.85483 11.1145 1.97083 10.8833C2.04522 10.7356 2.01104 10.6893 2.02665 10.6569C2.60945 9.46231 3.24658 8.46656 4.05326 7.42057C7.55595 2.84415 13.281 -0.0428698 19.0938 0.000430733C20.4309 -6.49393e-05 21.7672 0.141026 23.0696 0.423002C23.6524 0.553468 23.6549 0.623188 24.1629 0.748362C24.6662 0.876232 25.1953 0.899892 25.5468 1.19241C25.5704 1.16749 25.5768 1.14594 25.5995 1.12372C26.6011 1.53287 27.602 1.94577 28.5267 2.46379C29.2095 2.84709 29.7904 3.23204 30.3733 3.66046C30.8866 4.0455 30.807 4.05566 31.2833 4.34941C33.3861 6.13541 35.1551 8.37283 36.2757 10.8609C36.6583 11.3858 36.8422 11.9825 37.1219 12.8203C37.1557 12.9241 37.1589 12.7986 37.2596 13.1072C37.3823 13.4973 37.3873 13.7138 37.5664 14.3749C37.623 14.5449 37.9813 15.844 38.0041 16.3463C38.0425 16.842 38.0948 17.5589 38.0861 18.0755C38.1099 18.0007 38.1309 17.9063 38.1527 17.8228C38.1755 18.0802 38.1929 18.3379 38.2053 18.5946C38.1727 18.633 38.14 18.6712 38.107 18.7078C38.1426 18.8558 38.1761 19.005 38.2086 19.1567C38.2073 19.1591 38.206 19.1615 38.2048 19.1638C38.0334 19.4761 38.0992 19.1526 38.123 19.8693C38.1311 20.2315 38.0832 20.516 38.0681 20.8869C38.0625 21.0206 38.1048 21.111 38.0954 21.2587C38.07 21.621 38.0247 21.4028 37.9976 21.6245C37.9694 21.8473 38.0006 22.1797 37.8951 22.5721C37.8372 22.1355 37.6568 23.3338 37.7383 23.4135C37.7062 23.5552 37.6737 23.6726 37.6376 23.829C37.4137 23.6212 37.4112 24.3982 37.3539 24.698C37.3008 24.9969 37.2338 24.963 37.2152 25.0308C37.1596 25.2258 37.2343 25.095 37.1904 25.2303C36.8947 26.1263 36.5084 26.9292 36.0852 27.7542C36.0239 27.8728 36.1145 27.7862 36.0393 27.9228C35.9635 28.0594 35.8577 28.1723 35.7485 28.3748C35.719 28.4291 35.7409 28.4637 35.6934 28.5476C35.4726 28.9351 35.2396 29.3098 34.9949 29.6737L34.955 29.275C36.0253 30.3582 37.0679 31.4283 38.1817 32.5472C38.3111 32.6771 38.458 32.7337 38.707 32.9858C38.956 33.2379 39.2954 33.6589 39.6033 33.9731C39.685 34.0565 39.7451 34.0413 39.8535 34.1517C40.2226 34.5276 40.5128 34.8791 40.8947 35.271C41.5401 35.9332 42.2475 36.5948 42.8887 37.2804C43.0103 37.4103 42.9588 37.4216 43.1314 37.6118C43.4291 37.94 43.3571 37.7765 43.4266 37.8337C43.6537 38.0212 43.658 38.1472 43.8742 38.3321C43.9073 38.3604 43.8997 38.2806 43.9277 38.3075C44.3603 38.7276 44.2982 38.8345 44.7967 39.2423C45.1511 39.694 44.4614 39.0374 44.3664 38.994C44.1349 38.8879 44.5075 39.408 44.7469 39.6947C44.953 39.9416 44.9904 39.9009 45.0806 39.9911C45.5579 40.4681 46.2759 41.1713 46.6204 41.5528C46.8291 41.7838 46.4165 41.4037 46.516 41.5289C46.6146 41.653 46.716 41.6958 46.7982 41.8421C46.8803 41.9884 47.019 42.3159 46.9298 42.3168ZM20.4787 0.605733C21.5236 0.416142 24.2564 0.961931 25.615 1.54778C26.7618 1.98874 27.6138 2.63803 27.4992 2.30326C26.3092 1.71397 25.294 1.34668 23.9431 0.970815C23.8035 0.927639 22.9611 0.704639 22.6633 0.649293C22.4964 0.615418 22.4984 0.574394 22.2688 0.535157C22.2189 0.526365 21.9323 0.533503 21.8324 0.518098C21.4894 0.454582 20.4559 0.275426 20.3078 0.275228C19.9008 0.258255 20.0545 0.330407 19.88 0.333542C19.4891 0.343536 19.3309 0.309597 19.0938 0.29289C18.9763 0.285066 18.8396 0.282245 18.6473 0.296741C18.5424 0.304739 18.2053 0.394394 17.775 0.413784C17.6007 0.420879 17.3016 0.404905 17.1694 0.420937C16.4421 0.504369 15.6524 0.69256 15.0015 0.829893C14.4683 0.944779 14.5972 0.851975 14.3143 0.915036C14.0306 0.980249 13.7159 1.14867 13.5299 1.21142C13.2296 1.31063 12.8537 1.39781 12.7617 1.43199C10.9464 2.10208 9.44375 2.97386 7.95921 4.08718C8.99004 3.35957 10.0897 2.7366 11.2332 2.23657C11.8511 1.88402 11.5559 2.08404 11.9919 1.92086C12.3383 1.79728 12.3819 1.65924 12.844 1.5056C12.8437 1.50573 12.8433 1.50587 12.8429 1.506C13.0815 1.42726 13.6197 1.3269 14.1239 1.15564C14.1419 1.15021 14.1723 1.07852 14.5596 0.978415C15.4297 0.747467 16.7907 0.493429 17.8044 0.446081C18.1021 0.430887 18.0462 0.493629 18.3952 0.48655C18.5929 0.483525 18.8148 0.445365 19.0938 0.436225C19.1745 0.433609 19.2598 0.433477 19.3501 0.437495C19.855 0.461866 20.0856 0.571833 20.4411 0.462247C20.4662 0.51176 20.4485 0.557006 20.4787 0.605733ZM37.8175 18.9376C37.8162 18.9578 37.8042 19.0496 37.7898 19.1638C37.755 19.4491 37.6974 19.8719 37.8168 19.6752C37.8305 19.5066 37.8401 19.3363 37.846 19.1638C37.8859 18.035 37.7587 16.8443 37.5761 15.6935C37.506 16.1722 37.6924 16.9227 37.7683 17.8581C37.7684 17.8585 37.7684 17.8589 37.7684 17.8593C37.7719 17.9034 37.7186 17.7215 37.7427 17.9722C37.755 18.0947 37.8423 18.5567 37.8175 18.9376ZM29.2409 33.1834C28.6893 33.6495 28.0893 34.0595 27.4266 34.3979C27.2755 34.4747 27.2699 34.4303 27.2056 34.4573C27.0875 34.5069 26.9174 34.644 26.8902 34.6575C26.7236 34.742 26.7567 34.6444 26.7331 34.6532C26.47 34.7497 26.578 34.7887 26.339 34.9094C26.0271 35.0656 25.6095 35.2281 25.2155 35.3725C25.0769 35.4226 25.1198 35.35 24.8227 35.461C24.6139 35.5418 23.973 35.8114 23.6474 35.8272C23.639 35.8033 23.6702 35.7659 23.6794 35.7364C23.2695 35.9553 23.1078 35.9953 22.4713 36.0997C22.3706 36.1155 22.2837 36.1765 22.1036 36.1921C21.9236 36.2066 21.9055 36.1445 21.5498 36.1976C21.4234 36.2158 21.3531 36.2731 21.1582 36.2986C20.6082 36.3782 19.5548 36.3767 19.0938 36.3663C19.0904 36.3663 19.087 36.3663 19.0837 36.3663C18.1834 36.3558 17.6895 36.3988 16.8948 36.275C16.834 36.2651 16.9746 36.2314 16.8629 36.216C16.7505 36.2004 16.6238 36.251 16.5958 36.2485C16.2915 36.2254 15.6795 36.0182 15.5141 35.9915C15.1088 35.9294 15.4949 36.0502 14.9398 35.9311C14.4096 35.8152 13.7202 35.5116 13.2279 35.3108C12.656 35.0771 12.4222 35.1153 12.0504 34.803C10.56 34.1383 9.16065 33.2513 7.91598 32.1901C7.93698 32.1728 7.95854 32.156 7.98022 32.1392C7.87042 32.0695 7.76121 31.9984 7.65286 31.9258C7.6807 31.924 7.70779 31.9214 7.73545 31.9196C7.23408 31.5739 6.81474 31.2213 6.3525 30.6814C6.34349 30.6708 6.40758 30.662 6.40089 30.6525C6.30126 30.5277 6.1526 30.4207 6.0686 30.3077C5.8627 30.0358 5.60109 29.512 5.64566 29.7989C5.17598 29.1635 4.61391 28.4199 4.2609 27.7521C4.10802 27.4637 4.13663 27.3363 4.06727 27.1981C3.99862 27.0593 3.97163 27.1627 3.94334 27.1153C3.77205 26.8304 3.54028 26.3335 3.59189 26.2474C3.53468 26.2006 3.47569 26.1498 3.41831 26.101C3.5109 26.1025 3.08277 25.1731 3.00234 24.9152C2.98621 24.8689 3.02116 24.8492 3.0085 24.8146C2.86896 24.4279 2.77968 24.3489 2.65803 24.0162C2.61633 23.8989 2.73591 24.0648 2.61976 23.7664C2.61045 23.7402 2.55093 23.7723 2.45518 23.4014C2.29686 22.8131 2.05836 21.6658 2.02355 20.9368C2.02009 20.8775 2.10543 21.0496 2.06326 20.7823C2.04882 20.6852 2.00381 20.7367 1.98428 20.4986C1.94965 20.0629 1.94371 19.6175 1.95167 19.1638C1.96063 18.6522 1.98749 18.1434 2.00722 17.6422C2.05882 17.6816 2.0905 18.0189 2.10087 17.5161C2.103 17.4358 2.04862 17.4906 2.05034 17.4546C2.06577 17.1605 2.13145 16.9118 2.15973 16.5967C2.16823 16.5035 2.13395 16.474 2.14398 16.3566C2.1593 16.1831 2.22623 16.1172 2.24091 15.9161C2.26561 15.6028 2.22478 15.5395 2.41223 15.1837C2.91609 13.0377 3.82591 10.9838 5.14186 9.22104C5.48802 8.68816 5.82987 8.2068 6.26421 7.70316C6.39302 7.55546 6.46827 7.57391 6.66549 7.33199C6.70808 7.27722 7.00675 6.86905 7.15776 6.9202C7.24826 6.81522 7.31126 6.75469 7.39273 6.66799C7.31297 6.71452 7.23123 6.76365 7.15452 6.80892C7.53182 6.47625 7.80594 6.16797 8.13543 5.86483C8.37905 5.64358 8.236 5.83752 8.38905 5.70666C8.54298 5.57713 8.60761 5.50927 8.8517 5.41608C8.96048 5.2321 9.10042 5.19974 9.40086 4.99505C9.43308 4.97296 9.60194 4.81902 9.76447 4.72177C9.88139 4.65194 9.94269 4.67353 10.1216 4.55327C10.1503 4.53259 10.5084 4.24349 10.6337 4.16785C10.8267 4.04668 11.1759 3.93714 11.215 3.91845C11.7853 3.63951 11.9836 3.48105 12.4406 3.40156C12.4985 3.30676 12.833 3.12783 13.1222 3.02819C13.4856 2.89618 14.2583 2.79194 14.3209 2.63342C14.7664 2.57249 14.7091 2.54626 15.2217 2.42235C15.6901 2.29943 16.95 2.15082 17.3385 2.11573C17.7228 2.07104 17.5285 2.01275 17.6816 1.98904C17.9332 1.95235 17.8008 2.01939 17.9738 2.00673C18.3715 1.97936 18.7217 1.96148 19.0938 1.94527C19.1812 1.94152 19.2693 1.93795 19.3589 1.93458C19.3836 1.97487 19.4099 2.01545 19.4351 2.05586C19.4595 2.04304 19.4838 2.03025 19.5083 2.01753C19.6086 2.02029 19.7209 2.0232 19.8134 2.02828C19.0347 1.82473 20.5743 2.06436 21.0278 2.13926C21.4147 2.18404 22.0707 2.20085 22.4958 2.27066C22.5987 2.287 22.5199 2.31505 22.5411 2.31832C22.7903 2.35784 22.8348 2.33624 23.1634 2.41884C23.3367 2.46323 23.5003 2.5616 23.6678 2.60901C24.8959 2.95722 26.0682 3.3692 27.1952 3.96443C27.3866 4.06576 27.5176 4.2149 27.6734 4.30682C27.8963 4.43886 28.0643 4.47784 28.2717 4.60761C28.4788 4.7367 28.7333 4.98536 28.8735 5.07177C29.014 5.15839 28.819 4.9447 29.0561 5.13299C29.1644 5.21999 28.9382 5.11563 29.0765 5.21626C29.508 5.52803 30.1355 5.9553 30.5206 6.37842C30.5112 6.35132 30.4939 6.31916 30.4797 6.28882C30.9297 6.6959 31.2896 7.09436 31.7096 7.55612C31.8568 7.71709 32.1475 7.9865 32.2848 8.15264C32.4225 8.3182 32.4491 8.42223 32.5548 8.55754C32.598 8.61337 32.6122 8.56714 32.6409 8.60503C32.9961 9.08198 33.1279 9.38727 33.473 9.90033C34.7328 11.7874 35.6348 14.0046 36.0435 16.2844C36.06 16.3761 36.1215 16.4301 36.1497 16.564C36.1924 16.7695 36.1475 16.7863 36.1499 16.8141C36.164 16.9964 36.1971 16.9168 36.2264 17.1612C36.2936 17.6996 36.3073 18.571 36.3076 19.1108C36.3077 19.1285 36.3079 19.1462 36.308 19.1638C36.312 20.3803 36.2485 21.4161 36.0341 22.6016C36.018 22.6882 35.9703 22.6176 35.9381 22.7662C35.6911 23.808 35.699 24.0507 35.2256 25.3026C34.8348 26.3389 33.9373 28.0463 33.0202 29.2498C32.8327 29.5032 32.649 29.7375 32.4789 29.9461C32.4788 29.946 32.4787 29.9459 32.4785 29.9458C32.2596 30.4003 31.8111 30.8655 31.3803 31.181C31.92 30.5171 32.4228 29.847 32.8913 29.1561C34.0896 27.3855 35.0957 25.4566 35.6407 23.1997C35.952 21.9045 36.0837 20.5335 36.0448 19.1638C35.9888 17.0512 35.518 14.9548 34.7823 13.0395C34.6678 12.7425 34.6773 12.6 34.5566 12.3581C34.5361 12.3175 34.5383 12.445 34.477 12.3195C33.6429 10.6007 32.5748 8.82834 31.2377 7.49158C30.8773 7.13361 30.7805 7.11876 30.4459 6.82609C30.5211 6.85978 30.5772 6.8747 30.6452 6.90243C29.2156 5.44193 27.4446 4.32923 25.5369 3.52857C25.4509 3.49247 25.4603 3.43769 25.3697 3.39919C25.1885 3.32223 24.9905 3.31121 24.8292 3.25507C24.6183 3.18227 24.5957 3.12899 24.3986 3.06619C24.3021 3.03622 24.3183 3.08418 24.1113 3.01172C24.094 3.00582 24.0957 2.96023 23.9545 2.92354C23.5683 2.8185 22.7683 2.65952 22.4416 2.60966C22.0286 2.54031 21.7022 2.42451 21.5456 2.3974C21.1206 2.32655 21.1201 2.39538 20.758 2.3575C20.202 2.30298 19.6486 2.27277 19.0938 2.26721C17.0894 2.24877 15.098 2.54463 13.1398 3.27912C12.9809 3.3361 12.437 3.63638 12.1562 3.76363C12.0607 3.80291 11.5646 4.01903 11.4921 4.05636C11.1957 4.19899 10.9249 4.29662 10.7613 4.37834C10.4438 4.53577 10.1449 4.80378 9.9882 4.91341C9.71036 5.10283 9.21661 5.43912 9.10302 5.52306C8.82683 5.72253 8.8642 5.58599 8.68184 5.75203C8.62854 5.80167 8.72863 5.80678 8.52948 5.96542C8.36323 6.09892 8.2649 6.11568 8.14714 6.20304C8.02899 6.29042 7.87901 6.52572 7.81076 6.58502C7.45227 6.89562 7.26403 7.00416 6.89951 7.37349C6.57329 7.66077 5.34798 9.23096 5.29069 9.39169C4.93429 10.0428 5.60923 9.0166 5.66118 8.9687C5.9022 8.68197 5.89212 8.74531 6.08159 8.41846C6.42536 8.27612 7.00211 7.22698 7.37874 7.18078C7.4962 6.86167 7.73838 6.73704 7.99966 6.5458C8.36376 6.28363 8.04997 6.44117 8.29906 6.22936C8.39764 6.14548 8.72905 5.96313 8.87678 5.83931C9.02437 5.71484 9.05861 5.62465 9.26721 5.47025C9.64053 5.19578 9.96647 5.01046 10.3285 4.85899C10.3748 4.79878 10.4175 4.7413 10.4639 4.68204C10.7091 4.5692 10.9579 4.46149 11.207 4.36096C11.1582 4.3603 11.1093 4.35968 11.0603 4.35949C11.1276 4.31894 11.1954 4.27895 11.2634 4.2395C11.5107 4.1494 11.749 4.06738 12.0056 3.9875C12.6095 3.56179 12.4691 3.75845 12.8464 3.62041C13.2265 3.48727 13.4191 3.33426 13.7148 3.23278C14.1145 3.09875 14.2957 3.03321 14.7073 2.92587C14.9469 2.8633 15.3687 2.84137 15.0078 2.805C15.7512 2.60286 16.7904 2.3972 17.4835 2.38631C17.6865 2.3818 17.4212 2.44465 17.4562 2.44627C17.6286 2.45211 17.7677 2.37867 17.9462 2.37534C18.2449 2.36736 18.8159 2.39773 19.0497 2.41073C19.064 2.41139 19.0787 2.41189 19.0938 2.41225C19.4288 2.41836 19.912 2.36543 19.9638 2.36349C20.2676 2.34729 20.3429 2.42133 20.4393 2.42394C20.9858 2.44333 21.114 2.43726 21.2662 2.59661C21.4126 2.55176 22.0201 2.54418 22.1428 2.67328C22.1629 2.58245 22.6467 2.69099 22.9489 2.74054C22.9979 2.7794 23.0476 2.81854 23.0959 2.85801C23.7564 2.84032 24.9403 3.34362 25.6927 3.69978C25.7117 3.70846 25.7737 3.6597 25.8831 3.72484C25.8899 3.72926 25.8656 3.75222 25.9411 3.79028C26.1951 3.90746 27.1024 4.45741 27.2035 4.52373C27.5921 4.74527 27.6835 4.74352 27.9193 4.88221C28.2276 5.06788 28.2453 5.13527 28.5316 5.32099C28.665 5.40885 28.82 5.44204 29.0187 5.5981C29.136 5.69074 29.1189 5.73814 29.2106 5.81238C29.5356 6.07759 29.7937 6.25025 30.0341 6.54075C30.2077 6.4892 30.2679 6.69203 30.3954 6.82463C30.9165 7.36044 31.5994 7.99605 31.996 8.50295C33.2334 10.0799 34.0356 11.6837 34.6847 13.5053C34.7875 13.8017 34.8848 13.8488 34.9813 14.1666C35.0239 14.3096 35.0156 14.4713 35.0803 14.7052C35.1324 14.8935 35.23 15.157 35.2848 15.3947C35.2994 15.4579 35.2501 15.4751 35.2705 15.5681C35.4236 16.2729 35.5682 16.9645 35.6581 17.6917C35.6912 17.9608 35.6312 18.1334 35.7484 18.0797C35.7257 18.1853 35.7057 18.2889 35.6811 18.3864C35.746 18.6446 35.7288 18.8748 35.7174 19.1638C35.7124 19.2858 35.7082 19.4177 35.7104 19.5679C35.7123 19.6218 35.7823 20.0075 35.7077 20.2203C35.7494 20.2383 35.7878 20.2069 35.826 20.2156C35.8298 20.4319 35.7519 20.7573 35.7314 20.9008C35.7115 21.0442 35.755 21.1468 35.7504 21.1905C35.7315 21.3559 35.6635 21.308 35.6608 21.3204C35.4851 22.0751 35.5292 21.996 35.5502 22.4771C35.5588 22.5997 35.3012 23.3557 35.3378 23.5321C35.3019 23.5299 35.2834 23.479 35.2541 23.4581C35.1842 23.686 35.1087 23.9139 35.0288 24.1391C35.0762 24.1009 35.1265 24.0525 35.1726 24.0179C35.0024 24.4777 34.9414 24.8881 34.7928 25.263C34.707 25.4765 34.6475 25.4219 34.6116 25.5526C34.6045 25.5782 34.6684 25.5564 34.642 25.6303C34.4215 26.232 34.2522 26.4642 33.9468 27.0252C33.8015 27.2861 33.7535 27.5628 33.4778 27.9C33.4527 27.9318 33.1621 28.2441 33.1128 28.5249C33.0358 28.5733 32.9786 28.6227 32.9179 28.656C32.8522 28.879 32.8012 28.9701 32.7334 29.0415C32.6385 29.1398 32.5132 29.2023 32.2404 29.5126C32.006 29.7958 31.2094 30.7405 30.9292 31.0286C30.7679 31.2047 30.8174 31.2498 30.7887 31.2817C30.6149 31.4701 30.5693 31.4218 30.403 31.5891C30.2365 31.7559 30.0599 32.0088 29.8676 32.159C29.7202 32.2735 29.7824 32.1174 29.5867 32.3119C29.546 32.352 29.7174 32.3059 29.4724 32.4642C29.4343 32.4906 29.0197 32.7097 28.933 32.7503C29.1067 32.5749 29.624 32.099 29.8108 31.9135C30.6214 31.1341 31.5743 30.1004 32.4418 28.8298C34.312 26.1988 35.5225 22.4163 35.4689 19.1638C35.4715 17.7138 35.2813 16.3907 35.0301 15.3173C34.9296 14.8894 34.917 14.5902 34.8385 14.3126C34.7577 14.0347 34.7692 14.2875 34.6936 14.0367C34.6168 13.7864 34.597 13.5922 34.514 13.3601C33.9561 11.8018 33.15 10.314 32.1446 9.00622C31.8834 8.66705 31.622 8.44027 31.3634 8.15166C31.2624 8.03962 31.3098 7.98974 31.2363 7.91098C30.4403 7.06397 29.5881 6.4034 28.6596 5.72802C28.2736 5.44759 27.8713 5.11734 27.4641 4.87209C27.1288 4.66927 26.7528 4.51212 26.4382 4.35668C26.2672 4.27235 26.1989 4.18232 26.1381 4.14898C25.9257 4.0347 25.975 4.12875 25.8633 4.0779C25.5543 3.93957 25.4287 3.80323 25.1299 3.69166C25.0123 3.64862 25.0098 3.70004 24.8374 3.64376C24.6187 3.57374 24.7141 3.5602 24.5599 3.50383C24.5506 3.50041 24.5693 3.54419 24.4868 3.51706C23.9547 3.34077 23.2752 3.17708 22.7513 3.05775C21.6675 2.80606 20.5763 2.60915 19.5321 2.56921C19.2684 2.56003 19.3376 2.60826 19.2539 2.60925C19.1957 2.61021 19.1429 2.61015 19.0938 2.60936C18.8029 2.60562 18.6439 2.57006 18.2857 2.60315C18.216 2.60952 17.9368 2.68805 17.6689 2.69533C17.524 2.69894 17.3566 2.67586 17.2315 2.68066C17.1069 2.68557 17.094 2.74586 16.9467 2.76479C16.6785 2.80159 16.7522 2.74814 16.3688 2.81694C16.2138 2.8442 15.7133 2.99192 15.3221 3.08139C14.684 3.2223 13.8867 3.40614 13.163 3.68536C12.9141 3.78069 12.6215 3.96405 12.2483 4.13533C11.7902 4.33907 10.9644 4.761 10.5273 5.03316C10.3024 5.17035 10.2535 5.12882 10.2253 5.14318C10.0454 5.23736 10.1523 5.25246 10.0376 5.32394C9.88067 5.42242 9.70798 5.47737 9.56742 5.57197C9.47786 5.63238 9.49425 5.68472 9.47551 5.69857C8.78528 6.21636 8.19653 6.70273 7.58417 7.30242C4.42481 10.3821 2.62207 14.7847 2.62786 19.1638C2.62692 19.3589 2.62923 19.5532 2.63471 19.7465C2.64761 20.1269 2.58414 20.1479 2.61923 20.4837C2.65591 20.8197 2.83264 21.1257 2.71577 21.42C2.74815 21.4246 2.77025 21.4207 2.79983 21.4256C2.85086 22.1204 3.03593 22.796 3.21823 23.4483C3.35372 23.9321 3.48547 24.3584 3.64096 24.7949C3.78166 25.1817 3.71912 25.1695 3.92019 25.4716C4.56054 27.1252 5.52992 28.6563 6.63531 30.0326C6.99598 30.2658 7.20756 30.6051 7.60613 31.0173C7.65547 31.0679 7.63019 30.9852 7.77903 31.1318C7.96733 31.3143 8.02189 31.4567 8.3607 31.7438C8.4482 31.8241 9.16868 32.3122 9.40988 32.525C9.64723 32.7448 10.0213 33.0248 10.2873 33.2324C10.2618 33.1833 10.2253 33.1284 10.1957 33.0766C10.3384 33.1624 10.4834 33.2469 10.6284 33.3283C10.6318 33.3696 10.6353 33.4109 10.6381 33.452C10.738 33.474 10.8377 33.4954 10.9385 33.5156C11.0369 33.7691 10.8755 33.6178 11.3092 33.8034C11.5269 33.8947 11.6797 34.0064 11.9052 34.0962C11.9864 34.1283 12.0584 34.1061 12.1476 34.1405C12.3668 34.2243 12.2136 34.2311 12.3461 34.2906C12.4803 34.35 12.7027 34.3633 12.9313 34.4925C12.6247 34.5184 13.3804 34.7697 13.4531 34.6777C13.5411 34.7095 13.6136 34.7401 13.7125 34.7711C13.5326 34.9949 14.0654 34.9745 14.2621 34.9936C14.4592 35.0149 14.4314 35.0812 14.4761 35.0915C14.6051 35.1205 14.521 35.0651 14.6101 35.0894C15.2004 35.249 15.7529 35.4175 16.3492 35.5218C16.4351 35.5366 16.3655 35.4838 16.465 35.504C16.565 35.524 16.6543 35.579 16.8033 35.5969C16.8432 35.6017 16.8606 35.5678 16.9226 35.576C17.6551 35.673 18.3664 35.7284 19.0938 35.7382C19.6597 35.7455 20.2303 35.7247 20.8159 35.6665C20.9368 35.6542 21.0242 35.5811 21.2562 35.5534C21.4879 35.526 21.848 35.5292 22.1355 35.4798C22.2118 35.4668 22.2225 35.4107 22.3229 35.3924C22.6646 35.3292 22.9668 35.3046 23.3194 35.2196C23.9155 35.0756 24.5153 34.8469 25.1051 34.6503C25.217 34.6127 25.2159 34.6613 25.3787 34.6086C25.6592 34.516 25.5314 34.4981 25.5829 34.4672C25.7503 34.3649 25.8409 34.4189 26.0035 34.3204C26.0283 34.3053 25.9697 34.276 25.9928 34.2645C26.3501 34.0878 26.4231 34.1858 26.7727 33.9335C27.1405 33.8173 26.5905 34.1339 26.5463 34.1937C26.4419 34.3447 26.8696 34.2496 27.108 34.1576C27.313 34.0795 27.2846 34.031 27.36 33.989C27.7604 33.7676 28.3304 33.396 28.6311 33.2194C28.8142 33.1134 28.5128 33.3467 28.6121 33.3011C28.711 33.256 28.7446 33.1824 28.8606 33.1567C28.9644 33.1339 29.1849 33.1123 29.2321 33.1626L29.2818 33.1201C29.2841 33.122 29.2862 33.1241 29.288 33.1263L29.2372 33.1696C29.2395 33.1738 29.2408 33.1784 29.2409 33.1834ZM2.11385 18.0507C2.17531 18.3103 2.20309 18.7064 2.23068 19.1638C2.27478 19.9757 2.34361 20.9544 2.42557 21.5846C2.52378 22.399 2.53456 23.1286 2.73118 22.9083C2.53911 22.0454 2.40481 21.3378 2.3401 20.4037C2.33131 20.3059 2.32336 19.7255 2.32604 19.5237C2.3261 19.4099 2.36595 19.4058 2.36445 19.2511C2.36431 19.2385 2.35683 19.2048 2.34776 19.1638C2.33238 19.0946 2.31271 19.0046 2.31415 18.9616C2.31745 18.7259 2.43194 18.0393 2.44 17.9429C2.45355 17.6755 2.3838 17.7728 2.38233 17.6564C2.38177 17.2658 2.48021 17.2307 2.50082 16.8458C2.50489 16.7773 2.45568 16.5382 2.51598 16.2559C2.54023 16.1413 2.61855 15.9544 2.63422 15.8671C2.71797 15.3883 2.79554 14.8475 2.93134 14.4212C3.04348 14.0735 3.07628 14.1866 3.14274 14.0054C3.20965 13.8248 3.21694 13.5812 3.25818 13.4554C3.32347 13.2539 3.45609 13.0289 3.47991 12.9682C3.94862 11.7666 4.45413 10.7246 5.14242 9.67888C4.63991 10.3644 4.19068 11.0899 3.79621 11.842C3.65025 12.3047 3.69645 12.0615 3.54768 12.3429C3.4323 12.5674 3.50988 12.6655 3.37665 12.9654C3.37675 12.9652 3.37685 12.9649 3.37695 12.9647C3.30842 13.1191 3.10499 13.4371 3.02083 13.7911C3.01825 13.8039 3.0608 13.852 2.981 14.1103C2.7992 14.6881 2.6028 15.5996 2.47912 16.2679C2.442 16.4647 2.38858 16.4151 2.34521 16.6489C2.31442 16.8192 2.34206 17.0248 2.29967 17.2931C2.24726 17.6292 2.13938 17.7844 2.25607 18.0274C2.2073 18.0435 2.16163 18.0307 2.11385 18.0507ZM10.6176 33.7805C10.6535 33.8111 11.1443 34.2518 11.0536 34.0203C10.3326 33.5512 9.53562 33.0767 8.84563 32.4951C8.99361 32.8075 9.45325 33.0729 9.99205 33.4044C9.99228 33.4046 9.99251 33.4047 9.99273 33.4049C10.0183 33.4206 9.89047 33.3877 10.0382 33.4731C10.11 33.5149 10.4111 33.6287 10.6176 33.7805ZM30.6777 33.3361C30.7193 33.2333 30.7789 33.1542 30.8701 33.1075C30.8908 33.0968 30.9158 33.1296 30.9272 33.1286C30.9483 33.1268 30.9416 33.0743 30.9446 33.0717C30.9633 33.0549 31.0027 33.1161 31.007 33.116C31.0548 33.1136 30.9932 33.0584 31.0154 33.0289C31.0442 32.9905 31.0993 32.9622 31.1445 32.9279C31.1605 32.916 31.1901 32.9631 31.2193 32.9312C31.2401 32.9086 31.2682 32.8001 31.3447 32.8211C31.3618 32.8396 31.3763 32.864 31.3919 32.8849C31.3678 32.7653 31.387 32.7543 31.469 32.7143C31.4819 32.7079 31.4624 32.6672 31.4911 32.6625C31.5198 32.6578 31.5657 32.706 31.6012 32.672C31.6137 32.6599 31.5896 32.6183 31.6077 32.5987C31.6592 32.5429 31.8042 32.4857 31.8506 32.4438C31.9421 32.3613 31.9338 32.2574 32.0306 32.2006C32.038 32.1962 32.0611 32.2457 32.0727 32.2355C32.0845 32.2253 32.0479 32.1656 32.0494 32.1618C32.0661 32.1204 32.1922 32.123 32.2005 32.0988C32.2204 32.0401 32.1605 32.0582 32.2053 31.9941C32.2478 31.9333 32.3819 31.922 32.445 31.8809C32.5181 31.8332 32.4428 31.7252 32.5845 31.7706C32.7319 31.6014 32.8791 31.431 33.021 31.2571C33.0408 31.2752 33.0606 31.2933 33.0803 31.3115C33.078 31.2859 33.0756 31.2603 33.0733 31.2348C33.0867 31.2499 33.1001 31.2649 33.1133 31.2798C33.1098 31.1661 33.1275 31.0843 33.2063 31.0235C33.2079 31.0223 33.2456 31.0605 33.2476 31.0602C33.2695 31.0498 33.2538 31.0046 33.2736 30.996C33.3212 30.9752 33.4617 30.9881 33.3295 30.9242C33.3559 30.9056 33.3782 30.8817 33.3988 30.8555L33.5595 30.63L33.7946 30.8357C33.8552 30.894 33.9305 30.9425 33.9696 31.0095C33.9934 31.0501 33.9433 31.1195 33.9552 31.1383C33.9672 31.1571 34.0107 31.0979 34.0182 31.1014C34.0624 31.1228 34.1143 31.179 34.0625 31.2421C34.0921 31.2258 34.1223 31.2095 34.1521 31.1931C34.0844 31.2529 34.2122 31.328 34.2372 31.3562C34.2418 31.3613 34.2146 31.3899 34.2185 31.3933C34.263 31.4306 34.3167 31.3968 34.3663 31.4173C34.3837 31.4244 34.3154 31.4546 34.3682 31.4649C34.3728 31.4658 34.4156 31.4201 34.453 31.458C34.5127 31.5186 34.6453 31.6161 34.6951 31.7096C34.6992 31.7171 34.6332 31.7475 34.6713 31.7631C34.685 31.7688 34.7145 31.7299 34.7384 31.7532C34.8311 31.8431 34.8891 31.9798 35.0149 32.0403C34.9729 32.0755 34.8964 32.0857 34.9705 32.1113C34.9825 32.1153 35.011 32.0749 35.0159 32.0771C35.0548 32.0961 35.0553 32.1459 35.0999 32.164C35.1132 32.1693 35.1425 32.1445 35.1605 32.1496C35.1871 32.1571 35.156 32.2033 35.1922 32.2067C35.249 32.2119 35.2904 32.18 35.257 32.2903C35.4792 32.5033 35.7161 32.6998 35.9013 32.9483C35.9846 32.9905 36.0654 33.0254 36.1386 33.083C36.1601 33.0999 36.1148 33.1527 36.1617 33.1671C36.1722 33.1704 36.2738 33.1669 36.1819 33.2731C36.2041 33.2782 36.213 33.2866 36.23 33.293C36.2357 33.2696 36.2412 33.2457 36.2474 33.2225C36.2811 33.2878 36.3564 33.2933 36.4168 33.3206C36.4612 33.3407 36.3958 33.3603 36.4198 33.3759C36.4438 33.3915 36.4623 33.391 36.4362 33.4666C36.4694 33.4499 36.4834 33.4501 36.4911 33.4587L36.6959 33.6379L36.509 33.8909C36.4981 33.9024 36.4709 33.9039 36.4508 33.9255C36.4471 33.9296 36.4509 33.9748 36.4286 33.9909C36.4126 34.0024 36.3696 33.973 36.3559 34.0013C36.3536 34.0058 36.3601 34.0965 36.351 34.1159C36.337 34.1462 36.2536 34.1408 36.2489 34.1449C36.1811 34.2045 36.2071 34.274 36.0842 34.2499C36.1237 34.3021 36.1162 34.3668 36.0828 34.3947C36.0406 34.43 35.8707 34.4222 35.963 34.5265C35.8751 34.5313 35.9079 34.5519 35.8583 34.6075C35.8133 34.6584 35.6521 34.7532 35.6199 34.798C35.5876 34.843 35.6619 34.8766 35.6543 34.8995C35.642 34.9373 35.6142 34.8841 35.5979 34.9023C35.5519 34.954 35.5181 35.0048 35.4898 35.0695C35.4587 35.0443 35.4273 35.0191 35.3961 34.9939C35.4033 35.0056 35.4104 35.0173 35.4176 35.029C35.4074 35.0389 35.3969 35.0509 35.3869 35.0594C35.5898 35.1022 35.3028 35.1273 35.2537 35.17C35.2125 35.2066 35.2064 35.3302 35.1759 35.3858C35.1685 35.3993 35.1453 35.3615 35.1439 35.3643C35.1273 35.398 35.1442 35.4228 35.1073 35.4535C35.0877 35.4696 35.0315 35.4491 35.0132 35.4655C34.8792 35.5862 34.7907 35.7457 34.6633 35.8726C34.6416 35.8942 34.5775 35.8638 34.5577 35.8801C34.5295 35.9035 34.5491 35.9588 34.5243 35.9828C34.4995 36.0066 34.4195 35.9923 34.4089 36.0152C34.3983 36.038 34.4698 36.0575 34.4267 36.0735C34.4069 36.0808 34.4012 36.0231 34.3824 36.0383C34.3237 36.0856 34.2828 36.1997 34.1857 36.2112C34.1975 36.2192 34.2095 36.2254 34.2215 36.2325C34.1539 36.2852 34.075 36.3099 34.0053 36.3641C33.9809 36.3829 33.9655 36.4502 33.9423 36.4699C33.9191 36.4895 33.8798 36.4648 33.8605 36.4797C33.8526 36.4857 33.8813 36.5134 33.8757 36.5171C33.8495 36.5344 33.8218 36.5419 33.7942 36.5476L33.6239 36.7125L33.4178 36.5321C33.4046 36.4868 33.396 36.4415 33.354 36.4066C33.1088 36.2031 32.8595 35.9897 32.6128 35.7807C32.6029 35.7723 32.5601 35.8027 32.5413 35.7948C32.5124 35.7825 32.5437 35.7492 32.5421 35.7453C32.5313 35.7202 32.5086 35.7575 32.4845 35.7334C32.4314 35.6803 32.3723 35.5681 32.3172 35.5175C32.1899 35.4008 32.0589 35.3269 31.925 35.2217C31.9152 35.2142 31.9644 35.1767 31.95 35.1612C31.8492 35.0513 31.7854 35.0705 31.666 34.9277C31.5466 34.7849 31.3254 34.5112 31.1779 34.3518C31.178 34.3517 31.1781 34.3516 31.1782 34.3515C31.0498 34.3833 31.0072 34.3008 31.0159 34.1884C31.5128 34.29 31.7112 34.6643 32.0386 34.976C32.3827 35.3038 32.8844 35.5183 33.2053 35.8783C33.2354 35.9121 33.2026 35.9706 33.2391 35.988C33.2453 35.991 33.2687 35.944 33.2863 35.9544C33.4307 36.0413 33.5336 36.1791 33.6385 36.3114L33.5924 36.3095C33.6856 36.2474 33.7762 36.1833 33.8482 36.1038C33.8969 36.05 33.8688 36.0009 33.9066 35.9484C33.9157 35.9754 33.9283 36.0007 33.9385 36.027C34.2098 35.8969 34.4 35.6733 34.6204 35.4795C34.6304 35.4708 34.6691 35.5089 34.6806 35.5008C34.7037 35.4846 34.6816 35.423 34.6977 35.4048C34.7187 35.3809 34.7526 35.4082 34.7717 35.3858C34.781 35.3748 34.7491 35.348 34.7762 35.3315C34.7785 35.3301 34.81 35.3602 34.8209 35.3417C34.8508 35.2912 34.9075 35.1842 34.933 35.1435C34.9655 35.0917 35.0457 35.1042 35.0647 35.0911C35.116 35.0559 35.0674 35.0095 35.1037 34.9728C35.3611 34.7114 35.6581 34.5076 35.91 34.2261C35.9259 34.2084 35.9284 34.0933 35.9595 34.0626C35.9702 34.0524 36.0356 34.0079 36.0444 34.0004C36.0798 33.9694 36.1404 33.9687 36.1645 33.9554C36.2113 33.9297 36.1943 33.8413 36.2066 33.8162C36.2247 33.7788 36.2715 33.7315 36.2944 33.709L36.3166 33.6789L36.2922 33.6576C36.2884 33.653 36.2854 33.6493 36.2834 33.6469C36.2524 33.6097 36.3254 33.5592 36.2865 33.5491C36.275 33.5462 36.2352 33.6011 36.2098 33.5756C36.1886 33.5541 36.2156 33.5098 36.2074 33.4889C36.1992 33.4679 36.1174 33.4963 36.1097 33.4858C36.0699 33.4306 36.085 33.3735 36.0351 33.3199C35.9936 33.2756 35.7698 33.1023 35.7404 33.0988C35.6085 33.0829 35.7576 33.18 35.7626 33.1889C35.7888 33.2376 35.7611 33.2544 35.841 33.2493C35.7434 33.4138 36.064 33.3264 35.9385 33.5117C36.0729 33.4391 36.0467 33.5172 36.0584 33.5706C36.0746 33.6444 36.1007 33.5498 36.1339 33.5822C36.147 33.595 36.1375 33.6795 36.1635 33.6924C36.1871 33.7041 36.2259 33.6821 36.2538 33.6961L36.2528 33.6739C36.2517 33.6767 36.2502 33.6795 36.2482 33.6822C36.2097 33.7357 36.1571 33.7605 36.075 33.7623C36.0889 33.7876 36.1032 33.8124 36.1171 33.8376C36.0702 33.8474 36.0234 33.8573 35.9767 33.867C35.9985 33.8779 36.0205 33.889 36.0422 33.8999C36.0375 33.9105 36.0326 33.9211 36.0277 33.9316C35.9766 33.9361 35.9286 33.941 35.876 33.9452C35.91 34.1128 35.8412 34.0122 35.79 34.0431C35.7386 34.0739 35.7753 34.1514 35.7458 34.1846C35.7062 34.2293 35.6951 34.2563 35.6502 34.2969C35.6243 34.3206 35.528 34.3125 35.6499 34.3585C35.5833 34.4454 35.5055 34.578 35.4026 34.6152C35.3724 34.6263 35.3712 34.5722 35.3644 34.5725C35.3314 34.5748 35.3619 34.6322 35.3381 34.6444C35.2985 34.6646 35.2074 34.6901 35.1764 34.7059C35.1319 34.7285 35.1371 34.8376 35.1359 34.8471C35.1292 34.9004 35.0738 34.862 35.0675 34.875C35.0319 34.9492 35.0393 34.9811 34.9228 34.8998C34.9517 34.9566 34.9637 35.0886 34.8774 35.0308C34.9419 35.0964 34.8811 35.1349 34.8664 35.1816C34.8419 35.1683 34.8176 35.1552 34.7931 35.1417C34.8441 35.3224 34.631 35.3625 34.5317 35.4295C34.5293 35.4313 34.5729 35.4849 34.5492 35.486C34.5475 35.4858 34.5276 35.4621 34.5161 35.4674C34.4785 35.4854 34.316 35.5316 34.3029 35.5427C34.2546 35.584 34.2813 35.6292 34.2561 35.6591C34.2228 35.6984 34.1861 35.6691 34.1547 35.7067C34.14 35.7242 34.1658 35.7833 34.1334 35.801C34.1143 35.8115 34.0806 35.7773 34.0656 35.7856C34.0121 35.8151 33.9995 35.867 33.9185 35.8554C34.0096 35.9786 33.9159 35.9114 33.8888 35.92C33.7783 35.9551 33.7209 36.0905 33.6425 36.1393C33.5993 36.1662 33.5558 36.1911 33.5121 36.2147L33.7263 36.2236C33.599 36.0291 33.496 35.8316 33.3457 35.6566C33.3161 35.6221 33.2542 35.6686 33.2239 35.6315C33.2104 35.6148 33.234 35.56 33.2099 35.5346C33.1905 35.5142 33.1421 35.5056 33.1174 35.4807C33.1108 35.4741 33.147 35.4367 33.1375 35.4267C33.066 35.3508 32.9679 35.305 32.8755 35.2485C32.8412 35.2276 32.8729 35.1618 32.7927 35.2513C32.803 35.2199 32.8109 35.1916 32.8215 35.1611C32.7301 35.1767 32.7548 35.0899 32.6898 35.0523C32.6826 35.0484 32.5852 35.0683 32.6055 35.0039C32.5737 35.0326 32.5515 35.0617 32.5235 35.0884C32.4902 35.0782 32.4917 35.0099 32.4806 34.9917C32.4695 34.9735 32.4205 35.0029 32.4157 34.9989C32.3979 34.9831 32.4534 34.9354 32.453 34.9333C32.4243 34.8056 32.405 34.8413 32.2804 34.8716C32.249 34.8793 32.2255 34.7423 32.1481 34.7872C32.1723 34.7615 32.1987 34.744 32.2238 34.7215C32.2061 34.691 32.1884 34.6601 32.1706 34.6295C32.1518 34.6586 32.134 34.6887 32.1145 34.7175C32.086 34.6472 31.9884 34.6626 31.9498 34.6203C31.9279 34.5961 31.9836 34.546 31.9585 34.544C31.9535 34.5436 31.9223 34.5839 31.9115 34.5788C31.824 34.5378 31.8336 34.4719 31.7764 34.4004C31.7497 34.3668 31.6583 34.4054 31.6578 34.3194C31.6578 34.3114 31.6731 34.2113 31.5642 34.2677C31.5819 34.2333 31.5883 34.2122 31.604 34.184C31.4281 34.2537 31.5631 34.1481 31.5199 34.0478C31.4975 33.9958 31.3511 33.8924 31.2975 33.8651C31.2655 33.849 31.2176 33.8977 31.2114 33.8953C31.1746 33.8807 31.2214 33.834 31.1899 33.8179C31.1585 33.8019 31.0756 33.8248 31.0561 33.7955C31.0411 33.7731 31.1139 33.7297 31.0661 33.7224C31.056 33.7211 31.023 33.7867 31.0133 33.7382C31.0117 33.7307 31.0185 33.6308 31.0205 33.6097C31.076 33.6033 31.1873 33.6339 31.2265 33.648C31.9027 33.8907 32.8304 34.8139 33.2938 35.3317C33.3369 35.3797 33.3159 35.4603 33.3412 35.4944C33.3665 35.5285 33.3879 35.4569 33.411 35.4877C33.434 35.5187 33.4208 35.5711 33.4431 35.5992C33.5771 35.7676 33.7111 35.9379 33.8514 36.0985L33.3978 36.0797C33.4188 36.0642 33.4397 36.0486 33.4604 36.0328C33.5089 35.9956 33.5109 35.9233 33.5527 35.8872C33.569 35.8731 33.6147 35.9247 33.6259 35.9142C33.7472 35.8015 33.8173 35.6505 33.944 35.5465C33.9967 35.5033 34.0902 35.4963 34.1436 35.4544C34.1878 35.4199 34.2029 35.3514 34.2389 35.3166C34.2582 35.2976 34.3047 35.326 34.3147 35.3222C34.3491 35.3087 34.2963 35.2703 34.309 35.2582C34.3442 35.2252 34.415 35.2648 34.4436 35.229C34.4548 35.215 34.4191 35.1809 34.4323 35.1575C34.4492 35.1279 34.472 35.1691 34.49 35.154C34.4912 35.1532 34.4634 35.131 34.4713 35.1213C34.5224 35.0593 34.5741 34.97 34.6305 34.9178C34.7469 34.8098 34.9057 34.7461 35.0189 34.6488C35.0474 34.6241 35.0074 34.5992 35.0141 34.5891C35.0464 34.5407 35.1002 34.5642 35.1275 34.5071C35.1321 34.4977 35.1138 34.4247 35.1518 34.4081C35.1724 34.3991 35.2174 34.4093 35.2363 34.4028C35.2551 34.3963 35.2145 34.3541 35.229 34.3387C35.2553 34.3105 35.2772 34.3464 35.3096 34.3011C35.3228 34.2829 35.3328 34.1908 35.3746 34.1517C35.4429 34.0877 35.5584 34.036 35.6327 33.9542C35.6583 33.9262 35.6458 33.85 35.6841 33.8057C35.731 33.7516 35.828 33.6612 35.8765 33.6061C35.9013 33.5779 35.9508 33.6169 35.9557 33.6152C35.9878 33.6047 35.9268 33.5678 35.9415 33.5549C35.9616 33.5374 36.0171 33.5522 36.0353 33.5361C36.0469 33.5258 36.009 33.4904 36.0108 33.4876C36.0134 33.4835 36.016 33.4794 36.0186 33.4754L36.0367 33.9132C35.9422 33.8397 35.8699 33.7614 35.7819 33.681C35.2907 33.2321 34.7691 32.8046 34.3212 32.3142C34.2836 32.2731 34.3283 32.2254 34.2865 32.1981C34.2448 32.1707 34.1116 32.2371 34.1934 32.0985C34.1702 32.1198 34.1544 32.1358 34.1333 32.1551C34.0932 32.0523 33.9893 32.0133 33.9155 31.9475C33.8608 31.8988 33.8185 31.8494 33.7731 31.7992C33.7331 31.7546 33.7755 31.7194 33.6883 31.7334C33.5796 31.579 33.4493 31.444 33.3371 31.2932L33.8995 31.2651C33.8451 31.3149 33.7878 31.362 33.7256 31.4041C33.7762 31.5262 33.6817 31.5237 33.6138 31.5765C33.6053 31.583 33.6451 31.6023 33.6222 31.6235C33.5934 31.6501 33.5309 31.6227 33.4908 31.6743C33.4804 31.688 33.4503 31.8323 33.3909 31.8432C33.3316 31.8541 33.2697 31.8907 33.2105 31.9033C33.2359 31.9169 33.2618 31.9283 33.2875 31.941C33.2747 31.9625 33.2616 31.9839 33.2486 32.0054C33.2213 31.9854 33.1939 31.9654 33.1665 31.9451C33.1807 31.9772 33.1945 32.0091 33.2088 32.0416C33.0601 31.9478 33.1234 31.9624 33.1091 32.0427C33.1017 32.0829 33.0609 32.0825 33.0497 32.1204C33.0457 32.1341 33.0775 32.1748 33.0726 32.1896C33.0605 32.2256 33.023 32.163 33.0087 32.1788C32.9945 32.1949 33.0294 32.2702 32.978 32.2748C32.9057 32.1514 32.8588 32.2662 32.932 32.3438C32.9226 32.354 32.9114 32.3593 32.903 32.3725C32.718 32.1761 32.8064 32.3603 32.8128 32.4067C32.8193 32.453 32.7681 32.4018 32.7654 32.4086C32.7576 32.428 32.789 32.4388 32.7803 32.4492C32.7219 32.5181 32.631 32.5474 32.5656 32.6072C32.5562 32.6159 32.5931 32.6368 32.5797 32.6445C32.5663 32.6521 32.5275 32.6334 32.5139 32.6509C32.5102 32.6556 32.5342 32.6824 32.5277 32.6889C32.3896 32.8237 32.2366 32.9288 32.0901 33.0595C32.0769 33.0713 32.1103 33.1276 32.0835 33.1495C32.0567 33.1713 31.9793 33.1644 31.9448 33.1899C31.9357 33.1966 31.9694 33.238 31.9573 33.2471C31.9162 33.278 31.8545 33.2755 31.8104 33.3057C31.7359 33.3567 31.6872 33.4433 31.598 33.4795C31.5812 33.4864 31.5541 33.4512 31.5272 33.458C31.4808 33.4697 31.5354 33.508 31.5345 33.5203C31.5314 33.5601 31.4684 33.5008 31.4621 33.5354C31.4611 33.5407 31.499 33.5755 31.4966 33.5786C31.458 33.6234 31.3781 33.5345 31.3726 33.6234C31.2862 33.6066 31.341 33.5293 31.3243 33.4955C31.284 33.4132 31.1705 33.3731 31.122 33.3702C31.0802 33.3679 31.1161 33.4099 31.1068 33.4177C31.058 33.4592 30.9913 33.5284 30.937 33.5392C30.9042 33.5458 30.9306 33.4942 30.9074 33.4898C30.8844 33.4853 30.9033 33.5235 30.8627 33.4982C30.8221 33.4728 30.7135 33.3891 30.6777 33.3361ZM34.8782 32.098C34.6543 32.1821 34.4851 31.9808 34.4003 31.8666C34.3301 31.7718 34.3776 31.582 34.2227 31.7711C34.3108 31.8614 34.4002 31.9163 34.4892 32.0159C34.4985 32.0263 34.541 32.1007 34.5585 32.124C34.5684 32.137 34.5404 32.1658 34.5562 32.1811C34.5598 32.1843 34.6157 32.166 34.6216 32.1739C34.6418 32.2007 34.6549 32.3277 34.6663 32.3359C34.6983 32.3582 34.732 32.3036 34.7518 32.3073C34.8176 32.3201 34.7556 32.3907 34.8161 32.4082C34.827 32.4113 34.9079 32.3766 34.9292 32.4131C34.9378 32.4279 34.9279 32.4777 34.9383 32.4853C34.995 32.5266 35.0892 32.5417 35.1274 32.5931C35.1588 32.6353 35.1043 32.67 35.1177 32.6954C35.1313 32.7207 35.2065 32.6924 35.2228 32.7027C35.2488 32.7193 35.2453 32.7745 35.2523 32.7807C35.391 32.902 35.5407 32.9835 35.6783 33.0967C35.6136 32.9911 35.5472 32.8873 35.4837 32.7816C35.3894 32.7798 35.4567 32.7604 35.4395 32.7143C35.4258 32.6779 35.3415 32.7501 35.3173 32.7085C35.3173 32.7086 35.3173 32.7086 35.3174 32.7086C35.305 32.6871 35.3224 32.5961 35.2636 32.5827C35.2615 32.5823 35.2176 32.6197 35.1892 32.5941C35.1252 32.5364 35.0113 32.4641 34.9516 32.387C34.9341 32.3644 34.9808 32.3258 34.9623 32.2968C34.9488 32.2756 34.8893 32.295 34.871 32.2591C34.8483 32.2138 34.8998 32.1296 34.7822 32.2005C34.8139 32.1649 34.8477 32.1331 34.8782 32.098ZM32.935 31.7634C32.9264 31.765 32.7559 31.7309 32.8911 31.8186C33.0242 31.7755 33.0869 31.6546 33.2007 31.584C33.0539 31.513 33.0517 31.6089 33.0002 31.6833C33.0002 31.6833 33.0001 31.6834 33.0001 31.6834C32.9977 31.6869 32.979 31.6463 32.9684 31.6691C32.9634 31.6801 32.9801 31.7555 32.935 31.7634ZM46.2277 46.3006C46.075 46.5288 45.8503 46.717 45.5799 46.8153C45.5182 46.8375 45.5075 46.7966 45.4808 46.8007C45.4323 46.8081 45.3715 46.8773 45.3602 46.8809C45.2927 46.9043 45.2971 46.8266 45.2873 46.827C45.1801 46.8291 45.232 46.8998 45.135 46.9323C45.0084 46.9734 44.8369 46.9843 44.6792 46.9853C44.6372 46.9854 44.6403 46.9537 44.5938 46.9406C44.5788 46.9363 44.5587 46.9338 44.5302 46.9342C44.4498 46.939 44.1803 46.9716 44.0792 46.8755C44.0842 46.8509 44.1047 46.827 44.1162 46.8029C43.9338 46.8666 43.8653 46.8463 43.6572 46.7281C43.6249 46.7088 43.5731 46.7323 43.5207 46.6866C43.4692 46.6401 43.4986 46.5829 43.3889 46.5139C43.3504 46.4889 43.3001 46.5119 43.2407 46.4701C43.171 46.421 43.0862 46.339 43.0103 46.2472C42.9217 46.1365 42.8331 46.019 42.7758 45.96C42.5834 45.7619 42.4204 45.7122 42.2666 45.519C42.2547 45.5042 42.3204 45.4972 42.2966 45.472C42.2726 45.4466 42.1988 45.4691 42.1915 45.4641C42.1136 45.411 42.0395 45.2078 41.9952 45.1792C41.8875 45.1096 41.9536 45.2182 41.8216 45.1045C41.6959 44.9961 41.5971 44.7719 41.4934 44.6436C41.3732 44.495 41.2388 44.5427 41.2326 44.3464C40.8716 43.9965 40.5113 43.643 40.1506 43.292C40.1706 43.2741 40.1907 43.2563 40.2109 43.2385C40.1697 43.2235 40.1284 43.2085 40.0872 43.1933C40.1056 43.1835 40.1238 43.1734 40.142 43.1637C39.9554 43.0859 39.8095 42.9962 39.67 42.8269C39.6673 42.8236 39.713 42.7937 39.7115 42.7902C39.6838 42.7483 39.6158 42.7384 39.5921 42.701C39.5346 42.6107 39.4915 42.4028 39.446 42.5589C39.2945 42.3658 39.058 42.1975 38.9134 42.0138C38.8508 41.9343 38.8892 41.8533 38.8587 41.8158C38.8281 41.7785 38.7941 41.8471 38.78 41.837C38.6962 41.7759 38.579 41.6546 38.6239 41.5845C38.5864 41.5929 38.5477 41.6007 38.5099 41.609C38.5822 41.554 38.332 41.3564 38.2748 41.2961C38.2643 41.2851 38.2907 41.2556 38.2824 41.2478C38.1885 41.1612 38.1227 41.1829 38.0309 41.1201C37.9986 41.0981 38.0899 41.091 37.999 41.0426C37.9911 41.0384 37.9501 41.0858 37.8672 41.0023C37.7348 40.8691 37.4632 40.6326 37.3269 40.4527C37.3157 40.438 37.4033 40.4293 37.3328 40.3813C37.3074 40.3638 37.2834 40.4083 37.2311 40.3565C37.0281 40.1563 36.8524 39.902 36.6141 39.729C36.6602 39.6978 36.7768 39.7278 36.6425 39.6419C36.6209 39.6283 36.5995 39.6759 36.5903 39.6693C36.5164 39.6153 36.4856 39.5352 36.4031 39.4793C36.3787 39.4628 36.3465 39.4848 36.3146 39.4657C36.2674 39.4376 36.2894 39.3823 36.2293 39.355C36.1351 39.3124 36.0879 39.3385 36.0749 39.1819C35.6282 38.7435 35.1701 38.3204 34.7511 37.8574L34.5431 37.6616L34.7663 37.4581C34.8083 37.4256 34.8504 37.3933 34.8927 37.3611C35.0199 37.2121 35.1315 37.0693 35.2728 36.9255C35.3144 36.8832 35.3697 36.9267 35.4238 36.8455C35.4362 36.8273 35.4958 36.67 35.6078 36.757C35.6303 36.7192 35.6494 36.7006 35.6706 36.6703C35.6365 36.6743 35.6016 36.6786 35.5682 36.6815C35.6948 36.5931 35.7507 36.4709 35.8309 36.3602C35.89 36.2786 35.8816 36.3709 35.9209 36.3239C35.9604 36.2769 35.9705 36.248 36.0755 36.2452C36.0594 36.1441 36.1287 36.1574 36.2081 36.0803C36.2166 36.0719 36.2419 36.0005 36.2865 35.964C36.3186 35.9377 36.3643 35.9651 36.4042 35.9124C36.411 35.9038 36.4608 35.7595 36.4868 35.7236C36.5274 35.6676 36.6504 35.6337 36.6602 35.6245C36.8009 35.4912 36.8024 35.3922 36.9747 35.3631C36.9459 35.2994 36.9946 35.1895 37.0606 35.1247C37.144 35.0433 37.3971 34.9521 37.3129 34.8372C37.332 34.8284 37.3477 34.8205 37.3608 34.8132L37.5638 34.5617L37.8126 34.7959C37.8515 34.8787 37.8777 34.865 37.9769 34.9627C38.0822 35.0663 38.3213 35.3803 38.4113 35.4595C38.5012 35.5389 38.5145 35.4432 38.5553 35.4695C38.6224 35.5124 38.5525 35.5229 38.5907 35.56C38.6989 35.6647 38.7991 35.7496 38.9183 35.8337C38.8955 35.8674 38.873 35.9016 38.8505 35.9355C38.8652 35.9313 38.8798 35.9272 38.8945 35.923C38.916 35.9452 38.9411 35.9691 38.9605 35.9902C38.9136 35.6955 39.1163 36.1643 39.214 36.2683C39.2965 36.3559 39.4968 36.4386 39.6028 36.5193C39.6285 36.5388 39.5825 36.5537 39.5878 36.5577C39.6512 36.6036 39.6803 36.5911 39.7509 36.6674C39.7882 36.7079 39.7897 36.7857 39.8268 36.8243C40.0996 37.1074 40.4062 37.3372 40.6865 37.6092C40.7342 37.6555 40.7281 37.7426 40.7665 37.7831C40.8216 37.841 40.8954 37.8384 40.949 37.8909C41.0024 37.9431 41.0329 38.0649 41.0757 38.0938C41.1184 38.1227 41.1013 38.0172 41.1548 38.0949C41.1793 38.1306 41.0932 38.1103 41.1294 38.1486C41.2425 38.2679 41.4472 38.3911 41.5314 38.5543C41.5358 38.539 41.5372 38.5227 41.5399 38.5066C41.6678 38.6422 41.7606 38.7823 41.8932 38.9218C41.9395 38.9706 42.0542 39.0275 42.1008 39.0744C42.1474 39.1213 42.1374 39.1739 42.1739 39.2122C42.1889 39.228 42.211 39.1939 42.2207 39.2048C42.3424 39.3414 42.3633 39.4622 42.5042 39.5917C43.0203 40.0663 43.5491 40.5591 44.071 41.0433C44.092 41.0628 44.1422 41.0398 44.1771 41.0639C44.231 41.1011 44.2009 41.1357 44.2058 41.1429C44.2384 41.1897 44.2521 41.1435 44.3054 41.1968C44.4226 41.314 44.5851 41.5296 44.7042 41.6441C44.9787 41.9081 45.2336 42.1059 45.512 42.3554C45.5321 42.3733 45.4759 42.4038 45.5083 42.4373C45.7363 42.6745 45.827 42.6822 46.1048 42.9833C46.1301 43.0107 46.1573 43.0404 46.1863 43.0718C46.5405 43.4124 46.8274 44.1516 46.7903 44.6638C46.7898 44.6913 46.7888 44.7179 46.7875 44.744C46.7874 44.744 46.7872 44.7439 46.7871 44.7439C46.8962 44.9248 46.8268 45.1748 46.6859 45.3281C46.6991 45.0942 46.6894 44.8744 46.6615 44.6638C46.5908 44.1321 46.3959 43.6304 46.0207 43.2373C45.8458 43.0538 45.6679 42.8665 45.478 42.6809C44.7282 41.9473 43.7939 41.3002 43.0618 40.529C42.993 40.4565 43.0102 40.3825 42.9412 40.3325C42.9295 40.3241 42.9204 40.3853 42.8859 40.3579C42.4128 39.9807 42.0397 39.4473 41.6001 39.0521C41.4815 38.9456 41.4247 38.9671 41.3156 38.8783C41.3515 38.8771 41.3823 38.8691 41.4161 38.8656C41.0222 38.3559 40.5439 37.9292 40.0944 37.4632C40.0742 37.4422 40.1099 37.4012 40.0897 37.3781C40.0494 37.3318 39.9657 37.3325 39.9264 37.2961C39.8752 37.2485 39.8971 37.2095 39.8496 37.1659C39.8263 37.1447 39.8036 37.1807 39.7603 37.1274C39.7567 37.1229 39.7848 37.0895 39.7487 37.0613C39.6496 36.9842 39.4439 36.8301 39.3633 36.7649C39.2603 36.6816 39.232 36.5605 39.1997 36.5223C39.1127 36.419 39.0673 36.4685 38.9867 36.388C38.5202 35.922 38.1064 35.4367 37.6522 34.9563L37.5865 34.8945L37.5329 34.9609C37.4312 35.0729 37.3289 35.186 37.2262 35.3014C37.1919 35.3402 37.1187 35.5333 37.051 35.6023C37.0284 35.6255 36.8992 35.736 36.8807 35.7533C36.806 35.8241 36.7123 35.8573 36.6665 35.8916C36.5777 35.9581 36.5433 36.0949 36.5066 36.1427C36.4424 36.2267 36.3044 36.3523 36.2719 36.382C36.1934 36.4539 36.1569 36.3671 36.1171 36.4351C36.1053 36.4552 36.1691 36.4864 36.1124 36.542C36.0646 36.5884 36.0102 36.5711 35.9713 36.5961C35.9326 36.6211 35.9266 36.735 35.9047 36.7532C35.7899 36.8476 35.7074 36.8553 35.5878 36.9629C35.4902 37.0537 35.0532 37.4917 35.0249 37.538C34.9043 37.751 35.1707 37.4716 35.1883 37.4589C35.2866 37.3933 35.2949 37.428 35.3419 37.3054C35.5448 37.3733 35.6182 36.9142 35.8356 37.0105C35.8059 36.8376 35.9151 36.8358 36.0091 36.7863C36.1388 36.7179 36.0024 36.731 36.0757 36.6592C36.1045 36.631 36.235 36.5965 36.2717 36.547C36.3085 36.4976 36.2907 36.4434 36.3462 36.3839C36.445 36.2774 36.5436 36.2108 36.6727 36.1653C36.6688 36.1304 36.6639 36.0966 36.6597 36.062C36.739 36.0215 36.8183 35.98 36.8973 35.9383C36.8709 35.932 36.8443 35.9255 36.8179 35.919C36.8323 35.8988 36.8469 35.8786 36.8615 35.8584C36.9434 35.823 37.0209 35.788 37.1052 35.7507C37.1599 35.4893 37.2017 35.6183 37.3007 35.5353C37.3993 35.4521 37.3893 35.3442 37.4539 35.2701C37.5315 35.1809 37.5656 35.1295 37.6368 35.05L37.5553 35.0532C37.5643 35.0625 37.5736 35.0724 37.5834 35.083C37.6357 35.14 37.6745 35.2866 37.6838 35.1251C37.8613 35.2889 38.1188 35.4987 38.2368 35.686C38.2718 35.7412 38.1848 35.708 38.1891 35.719C38.2115 35.7731 38.2874 35.7617 38.3206 35.8074C38.3757 35.8834 38.4695 36.0451 38.5132 36.1047C38.5759 36.1905 38.7492 36.2508 38.7653 36.2587C38.855 36.3025 38.826 36.3672 38.8507 36.3855C38.9915 36.4887 39.0382 36.4959 38.9777 36.6333C39.0521 36.6222 39.2564 36.6826 39.2164 36.7865C39.2823 36.7224 39.3812 36.8432 39.4651 36.8946C39.4588 36.9259 39.4529 36.9574 39.4464 36.9889C39.7039 37.0137 39.9003 37.3792 40.0721 37.5786C40.0765 37.5836 40.1336 37.5432 40.1505 37.5821C40.1514 37.5848 40.1266 37.6038 40.1425 37.6254C40.1951 37.6962 40.376 37.9865 40.4026 38.0141C40.5006 38.1158 40.5544 38.0968 40.6186 38.1541C40.7031 38.2295 40.6818 38.2739 40.7626 38.3453C40.8003 38.3788 40.876 38.368 40.9259 38.4302C40.9555 38.4669 40.9249 38.5041 40.9484 38.5331C41.0321 38.6365 41.1222 38.6838 41.161 38.811C41.2906 38.7247 41.2507 38.8439 41.2837 38.8932C41.4173 39.0932 41.6707 39.2555 41.804 39.4084C42.2197 39.8859 42.5491 40.3485 42.9703 40.7997C43.0388 40.8729 43.11 40.8358 43.1809 40.9136C43.2127 40.9485 43.2079 41.0222 43.262 41.0774C43.3053 41.1219 43.3882 41.1649 43.4429 41.2198C43.4575 41.2344 43.422 41.2725 43.4432 41.2943C43.6038 41.4591 43.7888 41.5919 43.9712 41.7383C44.0388 41.7926 44.0277 41.879 44.1022 41.7838C44.1047 41.8279 44.1092 41.8687 44.1105 41.9111C44.2478 41.9414 44.2605 42.0656 44.3876 42.1653C44.4014 42.1759 44.5457 42.2028 44.5519 42.2937C44.5855 42.2669 44.6037 42.2337 44.6325 42.2077C44.692 42.2442 44.7308 42.3528 44.7596 42.3887C44.7884 42.4247 44.8493 42.4071 44.8594 42.4164C44.8975 42.4525 44.8372 42.4954 44.8392 42.4991C44.9623 42.7213 44.9717 42.6756 45.1534 42.7024C45.199 42.709 45.3195 42.943 45.4165 42.9177C45.3932 42.9442 45.3614 42.9563 45.3347 42.9773C45.3815 43.0369 45.4286 43.0972 45.4756 43.157C45.4883 43.1217 45.4986 43.0841 45.5124 43.0497C45.6007 43.1796 45.7478 43.2139 45.8353 43.305C45.8739 43.3454 45.8471 43.3825 45.8524 43.4057C45.8538 43.4124 45.8577 43.4177 45.8667 43.4216C45.8746 43.4251 45.9013 43.3799 45.9209 43.3944C46.0796 43.5175 46.0912 43.6233 46.1778 43.7943C46.2158 43.8741 46.3369 43.912 46.3251 44.0593C46.3252 44.0747 46.2844 44.2135 46.4141 44.2663C46.3835 44.2993 46.3686 44.3247 46.3413 44.3483C46.5335 44.4772 46.3722 44.4677 46.334 44.6638C46.3334 44.6667 46.3328 44.6696 46.3322 44.6726C46.3206 44.78 46.2916 45.1392 46.2586 45.257C46.2451 45.327 46.3076 45.3516 46.3054 45.3649C46.2889 45.4443 46.2285 45.4167 46.2066 45.4851C46.1847 45.5527 46.2011 45.6716 46.151 45.7318C46.1128 45.7767 46.0734 45.6919 46.046 45.776C46.0399 45.7936 46.127 45.7967 46.0485 45.8509C46.0363 45.8612 45.885 45.9171 45.8534 45.9234C45.8776 45.8417 45.9613 45.6497 45.9837 45.5778C46.0799 45.3158 46.1409 44.9976 46.0994 44.6638C46.0572 44.2952 45.8831 43.9279 45.5907 43.6678C44.7111 42.8554 43.8308 41.963 43.2499 41.3522C43.1517 41.2491 43.1367 41.1326 43.0756 41.0626C43.0144 40.9926 43.0233 41.0945 42.9677 41.0312C42.9121 40.9677 42.9016 40.8915 42.8488 40.833C42.4929 40.4383 42.1353 40.0396 41.772 39.6584C41.6777 39.5595 41.5627 39.5202 41.4749 39.4323C41.4407 39.3981 41.4884 39.3483 41.4637 39.3244C41.1981 39.0665 40.909 38.8713 40.6544 38.6053C40.5488 38.4948 40.473 38.3369 40.3698 38.226C40.2849 38.1345 40.1653 38.071 40.0854 37.9923C40.0419 37.9496 40.0563 37.8898 40.0436 37.8713C39.999 37.8073 39.9727 37.8716 39.9449 37.8439C39.8686 37.7673 39.8853 37.6744 39.8093 37.6071C39.7795 37.5807 39.7482 37.6192 39.7019 37.5838C39.6433 37.5388 39.6946 37.5258 39.6588 37.4876C39.6567 37.4852 39.639 37.5174 39.6184 37.4988C39.4855 37.3791 39.3081 37.241 39.188 37.1174C38.9394 36.862 38.7386 36.5651 38.5132 36.3209C38.4562 36.2593 38.4394 36.3076 38.419 36.2903C38.321 36.207 38.3275 36.1358 38.2186 36.0548C38.2005 36.0413 38.0919 36.0227 38.0425 35.9506C38.0159 35.9117 38.0068 35.8464 37.9854 35.8119C37.964 35.7774 37.9182 35.8143 37.8846 35.7807C37.8233 35.7197 37.8697 35.7088 37.7772 35.6265C37.74 35.5933 37.5832 35.5149 37.4955 35.4212C37.4489 35.3715 37.4019 35.3148 37.3536 35.2549L37.8533 35.2358C37.7353 35.347 37.6028 35.4632 37.4898 35.5887C37.4324 35.6523 37.4032 35.7745 37.3134 35.8732C37.2041 35.9941 36.9884 36.2034 36.8716 36.3226C36.8119 36.3837 36.7624 36.3441 36.7535 36.3496C36.6956 36.3839 36.7642 36.4143 36.7316 36.4436C36.6868 36.4838 36.6106 36.4872 36.5698 36.5234C36.5438 36.5464 36.5766 36.5869 36.5716 36.5926C36.3866 36.8022 36.2061 36.9706 36.008 37.1649C35.7384 37.4287 35.4637 37.6889 35.1827 37.9434L35.2032 37.4053C36.0018 38.1618 36.804 38.9195 37.5615 39.7087C37.6466 39.7973 37.6037 39.8468 37.6873 39.9158C37.7707 39.985 37.9442 39.9589 37.8968 40.1319C37.921 40.1117 37.9367 40.0956 37.959 40.0774C38.0853 40.2665 38.2755 40.3917 38.4337 40.542C38.5509 40.6531 38.6486 40.7579 38.7516 40.8658C38.8428 40.9616 38.796 40.9922 38.9275 41.0226C39.2981 41.4565 39.7123 41.8553 40.0585 42.3068C40.2349 42.3174 40.2723 42.4593 40.3894 42.6009C40.4039 42.6184 40.417 42.5711 40.4617 42.621C40.5181 42.6836 40.5027 42.7606 40.6054 42.8582C40.6326 42.884 40.8802 43.0292 40.9267 43.1281C40.9731 43.227 41.063 43.3477 41.1134 43.4483C41.1225 43.4178 41.1279 43.3852 41.1354 43.3537C41.1765 43.388 41.2177 43.4225 41.2587 43.4567C41.2404 43.486 41.222 43.5153 41.2033 43.5446C41.2479 43.5437 41.2921 43.5432 41.3372 43.5423C41.2624 43.7122 41.2535 43.6236 41.3903 43.6985C41.4588 43.7361 41.4795 43.7996 41.5464 43.8416C41.5705 43.8567 41.6191 43.8332 41.6454 43.8503C41.7095 43.8922 41.629 43.9108 41.662 43.9433C41.6955 43.9759 41.7973 43.9688 41.8322 44.0522C41.6734 44.0876 41.8834 44.2342 41.9673 44.1673C41.9887 44.1884 42.0034 44.2093 42.029 44.2307C41.8168 44.3995 42.0632 44.3755 42.1334 44.3936C42.2036 44.4116 42.1506 44.461 42.1629 44.4693C42.1982 44.4935 42.1978 44.4506 42.2194 44.4707C42.3617 44.6045 42.4604 44.7657 42.5938 44.9048C42.613 44.9248 42.6246 44.8785 42.6446 44.9042C42.6646 44.9299 42.6577 44.9807 42.6935 45.0125C42.7031 45.021 42.7314 44.9985 42.7455 45.0126C42.9979 45.2669 43.2244 45.5254 43.4716 45.7859C43.507 45.8235 43.5447 45.8595 43.5847 45.8934C43.6103 45.9147 43.6691 45.8805 43.717 45.9172C43.7644 45.9539 43.8148 46.0527 43.8845 46.0919C43.9028 46.1023 43.9309 46.0569 43.9544 46.0693C44.0348 46.1109 44.0955 46.179 44.1894 46.211C44.3167 46.254 44.4575 46.253 44.5938 46.2612C44.6276 46.2632 44.6613 46.2659 44.6952 46.27C44.7278 46.2737 44.7259 46.3186 44.7752 46.3262C44.8609 46.3378 44.8208 46.2769 44.8358 46.2663C44.8835 46.2305 44.9159 46.3119 44.9635 46.2788C44.9705 46.2737 44.9481 46.2265 44.9548 46.2241C45.0558 46.19 45.0998 46.3021 45.1906 46.2003C45.3161 46.2242 45.1567 46.3132 45.147 46.3525C45.1265 46.4523 45.2862 46.5114 45.3786 46.5071C45.4568 46.5046 45.433 46.4537 45.4583 46.4416C45.5953 46.3777 45.7728 46.2437 45.8755 46.1879C45.9392 46.1545 45.8572 46.2539 45.8962 46.2448C45.936 46.2353 45.9261 46.1889 45.9842 46.1976C46.0416 46.2073 46.1933 46.2451 46.2277 46.3006ZM36.7986 39.719C37.1069 39.7193 37.4999 40.1445 37.7048 40.3788C37.8748 40.5733 37.9132 40.849 38.0475 40.6394C37.8517 40.4413 37.6751 40.2992 37.4721 40.0857C37.451 40.0634 37.3378 39.9183 37.2957 39.8705C37.272 39.8436 37.2996 39.8144 37.2649 39.7803C37.2572 39.7729 37.1786 39.7685 37.1644 39.7523C37.1157 39.697 37.018 39.4854 36.9948 39.4654C36.93 39.4104 36.9089 39.4775 36.875 39.4597C36.7616 39.3994 36.8184 39.3235 36.7108 39.259C36.6916 39.2475 36.5827 39.2542 36.5265 39.1829C36.5038 39.1538 36.4895 39.0799 36.4682 39.0615C36.3524 38.9611 36.1922 38.8799 36.0998 38.7744C36.0241 38.6878 36.0905 38.665 36.0536 38.6161C36.0165 38.5674 35.9129 38.5673 35.8806 38.5409C35.8289 38.4987 35.8012 38.4122 35.7862 38.3981C35.5017 38.1302 35.2231 37.9153 34.9448 37.6637C34.9554 37.6558 34.9662 37.6457 34.977 37.6355C34.9647 37.6439 34.9525 37.6524 34.9402 37.6608C35.0984 37.8653 35.258 38.0604 35.4145 38.2568C35.5668 38.3167 35.4707 38.3072 35.5261 38.3914C35.5699 38.4581 35.6616 38.3932 35.7255 38.4745C35.7255 38.4744 35.7254 38.4744 35.7254 38.4743C35.7582 38.5163 35.7852 38.6517 35.8877 38.7088C35.8914 38.7108 35.9391 38.6773 36.0002 38.7355C36.1376 38.8666 36.364 39.0514 36.5064 39.2111C36.5481 39.258 36.4964 39.2917 36.5436 39.3494C36.578 39.3914 36.6618 39.3963 36.7128 39.465C36.7767 39.5514 36.7449 39.6552 36.8907 39.6126C36.8613 39.6505 36.8264 39.6812 36.7986 39.719ZM41.029 43.7854C41.0358 43.7996 41.0719 44.0461 41.1423 43.8919C41.0012 43.6532 40.7717 43.4722 40.5992 43.245C40.5564 43.4243 40.7156 43.4959 40.8638 43.6279C40.8639 43.6279 40.8639 43.628 40.864 43.6281C40.871 43.6343 40.8143 43.6357 40.8571 43.668C40.8779 43.6837 40.9923 43.7091 41.029 43.7854Z" fill="#AA99AA" fill-opacity="0.588235"/>
<path d="M19.3437 5.41382C11.6241 5.41382 5.34375 11.6941 5.34375 19.4138C5.34375 27.1335 11.6241 33.4138 19.3437 33.4138C27.0634 33.4138 33.3437 27.1335 33.3437 19.4138C33.3437 11.6941 27.0634 5.41382 19.3437 5.41382ZM19.3437 31.6638C12.5891 31.6638 7.09375 26.1685 7.09375 19.4138C7.09375 12.6592 12.5891 7.16382 19.3437 7.16382C26.0984 7.16382 31.5937 12.6592 31.5937 19.4138C31.5937 26.1685 26.0984 31.6638 19.3437 31.6638Z" fill="#AA99AA" fill-opacity="0.588235"/>
<path d="M19.3395 5.85198C18.7725 5.90564 18.2186 5.96219 17.6409 6.01153C17.5096 6.02309 17.5165 5.98107 17.4618 5.98182C17.3612 5.98313 17.2024 6.05284 17.1792 6.05679C17.0353 6.08095 17.0796 6.00089 17.0597 6.00134C16.838 6.01033 16.9145 6.07977 16.7114 6.12701C16.4462 6.18953 16.1032 6.2529 15.7849 6.33585C15.6734 6.36517 15.7077 6.29723 15.4695 6.37187C15.2999 6.42291 14.8064 6.6521 14.5509 6.68048C14.5406 6.65743 14.5604 6.62022 14.5638 6.59117C14.2643 6.81824 14.1462 6.85724 13.672 7.04367C13.5972 7.07377 13.547 7.14461 13.413 7.19204C13.2793 7.24031 13.2432 7.18193 12.9901 7.31497C12.9007 7.36283 12.8688 7.43282 12.7343 7.50984C12.3498 7.7232 11.6124 8.1316 11.3201 8.34928C10.7412 8.77124 10.4966 9.08416 10.0148 9.49328C9.97787 9.52529 10.0208 9.41424 9.95481 9.475C9.88821 9.53648 9.8681 9.65094 9.85348 9.66747C9.69336 9.84415 9.27902 10.1483 9.19869 10.257C9.00346 10.5173 9.23521 10.2965 8.95299 10.6444C8.68635 10.9755 8.25949 11.3912 8.00697 11.7357C7.71491 12.1349 7.7448 12.3374 7.44182 12.5893C6.79663 13.7249 6.31136 14.9559 6.01508 16.2265C5.98986 16.2166 5.96478 16.2062 5.93976 16.1956C5.93359 16.3007 5.92865 16.406 5.92471 16.5111C5.90851 16.4916 5.89215 16.4728 5.87623 16.4532C5.84806 16.9466 5.81419 17.375 5.73104 17.9358C5.72944 17.9469 5.67944 17.912 5.67708 17.921C5.65304 18.0485 5.68093 18.1932 5.66236 18.3044C5.61534 18.5725 5.4825 19.0311 5.63288 18.8334C5.61649 19.0181 5.61016 19.2139 5.61104 19.4138C5.61257 19.8942 5.65855 20.388 5.68258 20.8123C5.6979 21.0739 5.62541 21.1622 5.63707 21.2877C5.64947 21.4127 5.71265 21.3392 5.72162 21.3828C5.77351 21.6447 5.85175 22.0765 5.78238 22.1376C5.82474 22.1838 5.86848 22.2331 5.91177 22.2795C5.81223 22.2683 6.03941 23.0651 6.10514 23.2716C6.11585 23.3096 6.07956 23.3261 6.08847 23.3547C6.18997 23.6723 6.27558 23.7317 6.38839 23.9925C6.42896 24.0839 6.3102 23.9619 6.42667 24.1927C6.43747 24.2125 6.48954 24.181 6.60073 24.465C6.77412 24.9211 7.19672 25.7516 7.46723 26.2654C7.48918 26.3078 7.35678 26.2166 7.48087 26.397C7.52622 26.462 7.54766 26.4052 7.64743 26.568C8.03471 27.1969 8.46021 27.872 8.9929 28.4122C8.93393 28.4274 8.70941 28.263 9.00287 28.5474C9.05023 28.5923 9.05453 28.5236 9.0752 28.5441C9.24217 28.7101 9.35604 28.8835 9.54815 29.0524C9.60505 29.102 9.64532 29.0882 9.7181 29.1476C9.8258 29.2348 9.83178 29.3168 9.96467 29.4101C10.1738 29.5547 10.2347 29.5413 10.4031 29.8221C11.748 30.9704 13.3085 31.8294 14.9605 32.4339C15.4531 32.5687 15.9123 32.6633 16.4301 32.7655C16.583 32.7949 16.598 32.87 16.8467 32.8934C16.9023 32.9001 17.306 32.8915 17.3424 33.0369C17.4537 33.0409 17.5232 33.0498 17.6188 33.0544C17.5496 33.0249 17.4787 32.9944 17.4135 32.9642C17.8072 33.0421 18.1388 33.0243 18.4928 33.0232C18.7542 33.021 18.5665 33.0708 18.726 33.0726C18.8858 33.0735 18.9578 33.0626 19.1577 33.1378C19.2235 33.1043 19.2796 33.0945 19.3438 33.0945C19.4347 33.0944 19.5418 33.1146 19.7123 33.1115C19.7437 33.111 19.922 33.0734 20.0721 33.0717C20.1807 33.0703 20.2163 33.1206 20.3879 33.0999C20.4169 33.0976 20.7715 33.0017 20.8862 32.9815C21.064 32.9529 21.3557 32.9785 21.3904 32.9736C21.896 32.9066 22.0703 32.8014 22.4473 32.8272C22.5046 32.7486 22.7859 32.6424 23.021 32.5823C23.3165 32.5123 23.9452 32.4387 23.9759 32.2772C24.3295 32.2121 24.2822 32.1913 24.6691 32.0295C25.0253 31.8886 25.9551 31.4774 26.2172 31.3052C26.4817 31.1411 26.3113 31.1516 26.4112 31.0796C26.5736 30.96 26.511 31.0653 26.6275 30.9914C26.9556 30.7809 27.2289 30.5785 27.5111 30.3364C27.5511 30.3564 27.5924 30.3754 27.6332 30.3946C27.6406 30.3723 27.6479 30.3501 27.6552 30.3278C27.7193 30.2794 27.7899 30.2234 27.8489 30.1782C27.2483 30.426 28.3342 29.8192 28.6043 29.5582C28.8397 29.3507 29.1509 28.9258 29.3669 28.6624C29.4197 28.5985 29.4129 28.6695 29.4237 28.6563C29.5494 28.4999 29.5481 28.4585 29.7262 28.2576C29.8199 28.1512 29.9541 28.0736 30.0417 27.9657C30.6851 27.1728 31.1692 26.3081 31.608 25.4014C31.6826 25.2469 31.8047 25.1408 31.8655 25.0088C31.952 24.82 31.9533 24.6785 32.025 24.4989C32.0968 24.3203 32.2546 24.0803 32.2883 23.9529C32.3224 23.8257 32.19 24.0171 32.2843 23.7961C32.327 23.6941 32.3087 23.8938 32.3537 23.7648C32.4962 23.3606 32.6013 22.7682 32.7502 22.3367C32.7323 22.3534 32.7142 22.3775 32.6959 22.3985C32.8056 21.9286 32.9108 21.5129 32.9744 21.0171C32.9975 20.8422 32.9855 20.527 32.9966 20.3557C33.0082 20.1846 33.0563 20.1083 33.0632 19.9716C33.0661 19.9152 33.0255 19.9358 33.0276 19.8981C33.0381 19.7139 33.0534 19.5614 33.0676 19.4138C33.0895 19.1833 33.1099 18.967 33.0891 18.6646C32.9652 16.8432 32.4594 14.9973 31.614 13.359C31.58 13.293 31.5115 13.2717 31.4554 13.1796C31.3684 13.0379 31.4043 13.0097 31.3954 12.9893C31.3354 12.8571 31.3268 12.9288 31.2323 12.7591C31.0263 12.3851 30.6856 11.7822 30.4295 11.4391C29.8441 10.6467 29.26 10.0528 28.5424 9.41494C28.4903 9.36932 28.5665 9.35569 28.4777 9.27412C27.8409 8.71028 27.6695 8.63484 26.8072 8.02838C25.9521 7.40766 24.1462 6.51567 22.9378 6.21291C22.9378 6.21277 22.9378 6.21264 22.9379 6.2125C22.5318 6.21811 22.0538 6.08215 21.6542 5.92813C24.0988 6.06935 26.3211 7.19579 28.3101 8.86984C30.4125 10.6196 32.2518 13.1159 32.9272 15.8801C32.9907 16.1377 32.9516 16.2557 33.0124 16.4706C33.0225 16.5071 33.0507 16.4007 33.0799 16.5136C33.3171 17.4385 33.3985 18.4376 33.3782 19.4138C33.3652 20.0771 33.3079 20.7255 33.2331 21.3548C33.1808 21.7728 33.2226 21.8497 33.1652 22.2179C33.1525 22.1485 33.1338 22.1013 33.1185 22.0405C32.7221 23.6877 32.1365 25.295 31.2238 26.7468C31.1825 26.8121 31.1313 26.7916 31.0864 26.8586C30.9964 26.9923 30.9609 27.1539 30.8826 27.2722C30.78 27.426 30.7262 27.4271 30.6294 27.5665C30.5817 27.6343 30.6304 27.6392 30.5167 27.7798C30.507 27.7915 30.4666 27.7735 30.3983 27.8721C30.2144 28.1443 29.8068 28.681 29.6266 28.8867C29.4001 29.153 29.1542 29.3032 29.0575 29.3915C28.7941 29.629 28.8444 29.6724 28.6201 29.8742C27.0091 31.2974 25.1316 32.2465 23.03 32.8301C22.898 32.8687 22.4235 33.0641 22.17 33.1106C22.0866 33.1285 21.6434 33.1893 21.5764 33.1966C21.3066 33.2339 21.0695 33.2179 20.9197 33.2253C20.63 33.2401 20.3152 33.334 20.156 33.3498C19.9205 33.3754 19.5287 33.3798 19.3438 33.3757C19.3116 33.3752 19.2858 33.3747 19.2684 33.3743C18.986 33.367 19.0812 33.2807 18.8799 33.2955C18.8204 33.2994 18.8801 33.3695 18.6708 33.3602C18.4947 33.3512 18.4261 33.2959 18.3075 33.2783C18.1889 33.2609 17.9636 33.3184 17.8888 33.3082C17.4981 33.2545 17.3364 33.1814 16.9167 33.1068C16.565 33.0705 14.9791 32.6782 14.8493 32.6286C14.2454 32.5055 15.2196 32.805 15.2761 32.8167C15.5684 32.9202 15.5173 32.9385 15.8325 32.9602C16.0564 33.2191 17.062 33.1271 17.2734 33.3713C17.5477 33.2635 17.7506 33.3626 18.0174 33.4176C18.3859 33.4905 18.1096 33.382 18.381 33.4017C18.4881 33.4097 18.7954 33.4921 18.9575 33.4863C19.1032 33.4815 19.1735 33.4407 19.3438 33.4306C19.3628 33.4294 19.3831 33.4286 19.4048 33.4282C19.7916 33.4209 20.0985 33.4302 20.4288 33.4667C20.4861 33.4352 20.5391 33.4037 20.5948 33.3716C20.818 33.381 21.0473 33.3841 21.2729 33.3822C21.2342 33.3637 21.1955 33.3449 21.1571 33.3261C21.2215 33.3143 21.2859 33.3022 21.3499 33.2897C21.569 33.294 21.7817 33.2918 22.0089 33.2857C22.5793 33.031 22.4291 33.1798 22.7641 33.1185C23.0983 33.0525 23.2664 32.9211 23.5147 32.8442C23.8512 32.7372 23.9995 32.6756 24.3342 32.5557C24.5279 32.4864 24.8787 32.4229 24.5685 32.4195C25.1619 32.1752 25.9278 31.754 26.4436 31.5012C26.5964 31.4272 26.4217 31.575 26.4488 31.5644C26.5845 31.5105 26.6564 31.3948 26.7867 31.3236C27.0043 31.2071 27.4298 30.9761 27.5938 30.8691C27.8328 30.7192 28.1301 30.3824 28.16 30.3492C28.3342 30.166 28.4271 30.1722 28.4859 30.1164C28.8169 29.7953 28.8671 29.7033 29.0699 29.706C29.118 29.5804 29.3976 29.1583 29.5526 29.1399C29.489 29.0746 29.7829 28.7845 29.9303 28.5765C29.9813 28.5584 30.0326 28.5392 30.0837 28.5205C30.3072 28.0156 31.0256 27.2457 31.3979 26.6485C31.4073 26.6337 31.3645 26.5717 31.4309 26.4894C31.4354 26.4843 31.4567 26.5094 31.4956 26.4506C31.63 26.2614 32.1059 25.5057 32.1444 25.4094C32.3058 25.0681 32.2829 24.985 32.3667 24.7728C32.4742 24.4918 32.5332 24.4671 32.626 24.1948C32.6687 24.0671 32.6516 23.9322 32.725 23.7342C32.7681 23.6167 32.8175 23.6189 32.8503 23.5254C32.966 23.1914 33.0031 22.9321 33.1359 22.6415C33.006 22.5272 33.1486 22.407 33.1912 22.2559C33.3676 21.6472 33.4017 20.8529 33.4462 20.3157C33.4735 20.0091 33.4922 19.7123 33.5027 19.4138C33.5473 18.0751 33.4417 16.8059 33.0845 15.4844C33.012 15.2231 32.9198 15.1837 32.8358 14.9134C32.7974 14.7922 32.8075 14.65 32.7356 14.4536C32.6779 14.2954 32.5639 14.0819 32.4827 13.8897C32.461 13.8385 32.507 13.8134 32.4747 13.7377C32.229 13.1645 31.9172 12.6382 31.5737 12.1138C31.4464 11.9199 31.4263 11.7621 31.3462 11.8594C31.3238 11.7689 31.2987 11.6826 31.2771 11.5969C31.038 11.3725 30.9551 11.1128 30.6775 10.7793C30.6475 10.7427 30.3826 10.5378 30.3105 10.3584C30.2693 10.3756 30.2595 10.4208 30.2263 10.4413C30.099 10.3117 29.9537 10.0694 29.8749 9.97483C29.7968 9.88021 29.7001 9.85774 29.6748 9.83124C29.5785 9.72999 29.6536 9.70387 29.6472 9.69518C29.2432 9.17479 29.2569 9.2528 28.8965 9.06279C28.8089 9.01389 28.3558 8.51336 28.1933 8.49833C28.2108 8.4671 28.2593 8.46653 28.2889 8.44729C28.1385 8.31263 27.9839 8.17984 27.8268 8.05092C27.841 8.10385 27.8616 8.16197 27.8719 8.21269C27.5619 7.93952 27.2339 7.80975 26.955 7.62564C26.7949 7.52063 26.854 7.47024 26.7494 7.42415C26.7289 7.41527 26.7341 7.47783 26.6763 7.44697C26.2039 7.19919 26.0262 7.03975 25.5518 6.79029C25.3277 6.67503 25.0932 6.6654 24.7865 6.4695C24.7598 6.45123 24.4621 6.2404 24.2161 6.27503C24.1639 6.21625 24.1133 6.17729 24.0749 6.13058C23.6011 6.15095 23.7745 6.02388 23.2107 5.81483C22.9185 5.69903 21.8929 5.50214 21.5544 5.47824C21.3539 5.45854 21.3485 5.52784 21.3128 5.5253C21.1004 5.51201 21.1084 5.44654 20.9105 5.43468C20.7115 5.42322 20.4599 5.4761 20.2586 5.45644C20.1046 5.44181 20.2306 5.36612 20.0006 5.38318C19.9531 5.38744 20.0846 5.46228 19.846 5.42549C19.8091 5.41865 19.4245 5.33546 19.3438 5.32059C19.5493 5.2736 20.1426 5.23682 20.3695 5.23863C24.434 4.66348 31.6205 9.6417 32.7399 13.9087C32.8849 14.271 32.9035 14.5362 32.9794 14.7765C33.054 15.0184 33.0491 14.7943 33.1153 15.0153C33.18 15.2371 33.1826 15.41 33.2356 15.6182C33.5508 16.8603 33.6941 18.145 33.6791 19.4138C33.6773 19.5806 33.6727 19.7463 33.6656 19.9111C33.6493 20.2785 33.6809 20.5814 33.6464 20.9164C33.6324 21.0479 33.5632 21.044 33.5529 21.1366C33.4369 22.1308 33.2945 23.0589 32.9672 24.0076C32.8311 24.4007 32.6139 24.7986 32.4432 25.171C32.3028 25.4782 32.1847 25.811 32.0431 26.081C31.9664 26.2276 31.8778 26.2785 31.8454 26.3286C31.732 26.503 31.8231 26.4713 31.7702 26.5637C31.6222 26.8176 31.4798 26.9013 31.3374 27.1346C31.2809 27.2259 31.3301 27.2416 31.2495 27.3761C31.1463 27.5461 31.1498 27.4597 31.0679 27.5751C31.0628 27.582 31.1078 27.5794 31.0657 27.6418C30.7962 28.0439 30.4416 28.5373 30.1289 28.8866C29.4849 29.6123 28.7339 30.2123 28.0148 30.7463C27.8325 30.8811 27.9075 30.881 27.8511 30.926C27.577 31.1401 27.4436 31.1664 27.1522 31.3829C27.1039 31.4186 26.9331 31.6052 26.7244 31.7116C26.6121 31.7692 26.4688 31.8066 26.3714 31.8512C26.2738 31.8956 26.2874 31.9551 26.1741 32.0171C25.9676 32.1281 26.0098 32.0618 25.7144 32.2195C25.5955 32.2834 25.2128 32.5284 24.8879 32.6585C24.3604 32.8741 23.6777 33.0615 23.0319 33.2316C22.81 33.2904 22.5386 33.4197 22.1871 33.4913C21.7612 33.5834 20.9601 33.683 20.5155 33.7129C20.2876 33.7304 20.2668 33.6672 20.2396 33.6666C20.0646 33.6594 20.138 33.7255 20.0216 33.7286C19.8614 33.7322 19.7103 33.6848 19.5648 33.6836C19.4719 33.6827 19.4574 33.7344 19.4372 33.735C19.4059 33.7359 19.3748 33.7367 19.3438 33.7374C18.6328 33.7507 17.999 33.7017 17.2926 33.607C13.3386 33.0942 9.58669 30.794 7.38917 27.4445C7.20554 27.1644 7.25451 27.1184 7.09153 26.8746C6.93089 26.6314 6.66632 26.4504 6.68951 26.1633C6.65811 26.1713 6.63869 26.1825 6.60975 26.1891C6.36238 25.6321 6.06937 25.0978 5.85151 24.5422C5.69073 24.1315 5.57293 23.7567 5.46448 23.3649C5.37061 23.0155 5.4326 23.0326 5.28912 22.7463C5.06226 21.6519 4.93628 20.5277 4.96369 19.4138C4.97428 18.9764 5.00801 18.5448 5.06744 18.118C4.9839 17.7493 5.09723 17.4118 5.19929 16.9248C5.2123 16.8647 5.15796 16.922 5.19477 16.7433C5.2426 16.5196 5.32813 16.4153 5.41338 16.0413C5.43136 15.943 5.56083 15.1931 5.68947 14.9394C5.81103 14.685 5.97018 14.3134 6.11256 14.0598C6.07118 14.0872 6.02692 14.1256 5.98438 14.1581C6.03306 14.0216 6.084 13.8859 6.13695 13.7506C6.17621 13.7446 6.21549 13.7387 6.25459 13.7338C6.25859 13.6443 6.26383 13.5548 6.26955 13.4642C6.50379 13.371 6.37047 13.5166 6.5072 13.1327C6.57753 12.9407 6.67828 12.8112 6.76177 12.62C6.79191 12.5509 6.77056 12.484 6.80557 12.4082C6.89234 12.2228 6.8946 12.3609 6.95689 12.252C7.01964 12.1427 7.04637 11.9463 7.19699 11.7718C7.1864 12.0436 7.51473 11.4473 7.44866 11.3617C7.49444 11.294 7.53696 11.2402 7.58638 11.1647C7.75878 11.3866 7.84709 10.932 7.92246 10.7747C7.99578 10.6176 8.04948 10.6677 8.07136 10.6348C8.13536 10.5404 8.06052 10.587 8.10924 10.5236C8.43416 10.1048 8.79833 9.76033 9.16615 9.39211C9.21925 9.33919 9.14331 9.35766 9.20794 9.29838C9.27286 9.23913 9.361 9.2091 9.4521 9.11753C9.47661 9.09301 9.45963 9.05947 9.49891 9.02214C10.3257 8.24339 11.2112 7.6164 12.2114 7.04086C12.302 6.98917 12.3417 6.89225 12.5212 6.79691C12.7003 6.70164 13.0002 6.61224 13.2283 6.50923C13.2889 6.48186 13.2826 6.42592 13.3635 6.39003C13.6396 6.26851 13.8951 6.20681 14.1879 6.10025C14.6828 5.92034 15.1982 5.71858 15.7244 5.61325C15.8243 5.59335 15.8192 5.64016 15.9632 5.61741C16.2117 5.57975 16.1055 5.53927 16.1531 5.51908C16.3099 5.45476 16.3799 5.52775 16.5327 5.47403C16.5561 5.46584 16.5117 5.42273 16.5332 5.4176C16.8685 5.34355 16.9064 5.45784 17.2558 5.33915C17.5843 5.36116 17.0557 5.46107 17.0076 5.50849C16.8904 5.61822 17.2565 5.66138 17.4633 5.66837C17.6426 5.6735 17.6345 5.61962 17.7049 5.61104C18.0764 5.56439 18.6343 5.51701 18.9179 5.53693C19.0903 5.54765 18.7813 5.57993 18.8697 5.5954C18.9569 5.61065 19.0122 5.56769 19.1023 5.61144C19.1928 5.6549 19.374 5.78814 19.3395 5.85198ZM8.67936 28.2558C8.13071 27.9673 7.25964 26.6754 6.91471 25.9256C6.60866 25.3094 6.54542 24.6999 6.37491 24.9252C6.66799 25.6086 6.96466 26.1333 7.36857 26.8054C7.40917 26.8763 7.65499 27.297 7.75078 27.4377C7.80359 27.5173 7.77233 27.5431 7.8485 27.6489C7.86513 27.672 7.99989 27.7679 8.03305 27.8143C8.14322 27.976 8.44733 28.4826 8.50474 28.5426C8.65719 28.7114 8.64816 28.6039 8.72057 28.6703C8.96507 28.8908 8.92037 28.9807 9.16693 29.1958C9.2114 29.2342 9.403 29.3154 9.56729 29.4897C9.63383 29.5608 9.72574 29.7056 9.78229 29.7549C10.0889 30.0247 10.4721 30.2742 10.7602 30.5085C10.9974 30.7001 10.895 30.7003 11.02 30.8036C11.146 30.9064 11.3483 30.9588 11.4417 31.0172C11.5908 31.1116 11.7483 31.2628 11.7953 31.2918C12.716 31.8611 13.606 32.2414 14.5855 32.5808C13.9324 32.3134 13.3021 31.9994 12.7055 31.6402C12.3277 31.5053 12.5292 31.5476 12.3148 31.4C12.1468 31.2814 12.0459 31.3506 11.8226 31.1941C11.8228 31.1943 11.8229 31.1944 11.8231 31.1945C11.7079 31.1134 11.4981 30.8836 11.2386 30.7362C11.2295 30.7308 11.1736 30.7632 10.9928 30.6315C10.5854 30.3376 9.97567 29.8617 9.5803 29.4546C9.46404 29.3356 9.53026 29.3167 9.39808 29.1724C9.30224 29.0669 9.1469 28.9859 9.00498 28.8116C8.82769 28.592 8.81476 28.4284 8.58854 28.3661C8.61491 28.3234 8.65571 28.2999 8.67936 28.2558ZM6.57392 13.7372C6.59312 13.7009 6.95255 13.2904 6.74259 13.3623C6.37053 13.9734 6.11968 14.7072 5.8697 15.4155C6.09305 15.2154 6.16248 14.7886 6.34508 14.2955C6.34517 14.2953 6.34525 14.2951 6.34533 14.2948C6.35395 14.2717 6.35404 14.3826 6.39893 14.2496C6.42034 14.1854 6.46132 13.9193 6.57392 13.7372ZM19.3398 32.102C18.8101 32.1549 18.278 32.1455 17.7384 32.0541C17.6158 32.0331 17.6331 31.9935 17.5836 31.98C17.4932 31.9553 17.3314 31.975 17.3093 31.9712C17.1737 31.9496 17.2387 31.8871 17.221 31.8814C17.0248 31.8175 17.0683 31.9088 16.8744 31.8794C16.6213 31.8402 16.305 31.7528 16.009 31.6676C15.9052 31.6371 15.9657 31.5984 15.7419 31.5376C15.5841 31.4967 15.0816 31.3961 14.8882 31.2487C14.8958 31.2246 14.9331 31.2089 14.9537 31.1888C14.6067 31.1686 14.4939 31.1216 14.0744 30.9036C14.0084 30.8687 13.926 30.878 13.8142 30.806C13.7029 30.7332 13.7269 30.6727 13.4935 30.5518C13.4109 30.5085 13.3387 30.5234 13.2118 30.4552C12.8479 30.266 12.2267 29.7939 11.962 29.5918C11.4363 29.1992 11.1098 29.027 10.6983 28.6072C10.6668 28.5749 10.7741 28.6052 10.7147 28.548C10.6551 28.4903 10.5456 28.4789 10.5297 28.4656C10.356 28.3244 10.0999 27.9218 10.0116 27.8374C9.79298 27.6321 9.96399 27.8746 9.6831 27.5679C9.41572 27.2736 9.15593 26.7843 8.95348 26.4519C8.71969 26.0675 8.53394 26.0065 8.47843 25.645C7.87632 24.6156 7.42339 23.493 7.13926 22.3323C7.16613 22.3294 7.19313 22.327 7.22015 22.3246C7.1802 22.2377 7.14114 22.15 7.10323 22.0615C7.12576 22.0712 7.14816 22.0802 7.1705 22.0898C7.00176 21.6754 6.89419 21.2882 6.85829 20.769C6.85759 20.7588 6.91361 20.7796 6.91408 20.7711C6.91139 20.6535 6.85856 20.529 6.86003 20.4257C6.86126 20.1757 6.96307 19.7536 6.82777 19.9433C6.82934 19.7741 6.82731 19.5959 6.82646 19.4138C6.82386 18.9769 6.83091 18.523 6.88998 18.1393C6.92663 17.9026 7.02072 17.8432 7.0403 17.732C7.06052 17.6211 6.98081 17.6677 6.98367 17.6276C7.00027 17.3855 7.07744 16.9919 7.16621 16.9681C7.14385 16.9145 7.12215 16.8572 7.10056 16.8019C7.17849 16.8472 7.31416 16.1136 7.37792 15.9268C7.38836 15.8926 7.42766 15.899 7.43493 15.8731C7.51683 15.5853 7.48204 15.4953 7.54782 15.2444C7.57168 15.1565 7.58885 15.3121 7.64052 15.0835C7.64562 15.0638 7.58092 15.0512 7.68356 14.7911C7.84269 14.3754 8.18858 13.591 8.4876 13.1498C8.51154 13.1136 8.50388 13.2615 8.59018 13.0828C8.62204 13.0183 8.56211 13.0228 8.65271 12.8735C9.00526 12.2941 9.47551 11.7462 9.89303 11.1975C9.91766 11.2526 9.80411 11.4764 10.0191 11.1776C10.0538 11.1299 9.98825 11.1303 10.0044 11.1094C10.1365 10.9401 10.2885 10.8281 10.4372 10.65C10.4812 10.5974 10.466 10.5582 10.5204 10.4914C10.6012 10.3929 10.6792 10.3933 10.7699 10.276C10.9127 10.0934 10.9056 10.0287 11.1871 9.91884C12.4016 8.86428 13.8135 8.02485 15.3507 7.55389C15.7815 7.37846 16.1873 7.23124 16.6602 7.11613C16.8002 7.0829 16.8403 7.14443 17.0591 7.07982C17.1069 7.06442 17.4578 6.93088 17.5297 7.06346C17.6273 7.03703 17.6904 7.02817 17.7755 7.00989C17.7077 6.99767 17.6376 6.98608 17.5722 6.97439C17.9387 6.94553 18.2315 6.86776 18.557 6.82371C18.797 6.79288 18.6296 6.86228 18.7758 6.84904C18.9219 6.83703 18.9893 6.82102 19.1741 6.89012C19.2332 6.85503 19.2849 6.8445 19.3438 6.8445C19.4274 6.8446 19.5252 6.86556 19.681 6.87088C19.7095 6.8717 19.8753 6.84448 20.0129 6.85843C20.1124 6.86858 20.1387 6.92159 20.2962 6.92509C20.3221 6.92485 20.6581 6.89021 20.7661 6.89782C20.9331 6.90655 21.184 7.00933 21.2148 7.01526C21.6716 7.09821 21.8602 7.07234 22.1581 7.24986C22.2371 7.20187 22.5139 7.22983 22.7276 7.29682C22.9994 7.3771 23.4888 7.68046 23.6064 7.57843C23.8904 7.74936 23.8711 7.69957 24.2276 7.84612C24.5572 7.97412 25.3606 8.44025 25.6049 8.58353C25.8529 8.72059 25.7734 8.58476 25.8757 8.63417C26.043 8.71676 25.9277 8.7125 26.0355 8.77904C26.3394 8.96854 26.6016 9.13678 26.8909 9.32213C26.8817 9.36513 26.8733 9.40905 26.8643 9.45231C26.8864 9.45232 26.9084 9.45233 26.9305 9.45246C26.9886 9.49725 27.0539 9.54707 27.1063 9.59017C26.7617 9.09765 27.5388 9.9413 27.773 10.1803C27.9813 10.3731 28.3774 10.648 28.6036 10.8692C28.6586 10.9224 28.5913 10.913 28.6026 10.9238C28.7353 11.0515 28.7767 11.0523 28.9354 11.243C29.0189 11.3443 29.0623 11.4817 29.1409 11.5814C29.7172 12.3136 30.2492 13.0501 30.666 13.885C30.7368 14.0273 30.7344 14.1784 30.7873 14.2997C30.8627 14.4734 30.9591 14.5628 31.0269 14.7281C31.0948 14.893 31.1236 15.1562 31.172 15.2657C31.2207 15.3761 31.2123 15.1606 31.2681 15.3751C31.2931 15.4737 31.1917 15.3191 31.2304 15.4381C31.3519 15.808 31.5557 16.3253 31.5878 16.7444C31.5975 16.7235 31.6043 16.6963 31.6124 16.6715C31.7032 17.1063 31.7362 17.4979 31.785 17.9508C31.8026 18.1103 31.8696 18.3916 31.8794 18.5494C31.8897 18.7067 31.8489 18.781 31.8529 18.9055C31.8543 18.9569 31.8932 18.9353 31.8937 18.97C31.8954 19.1391 31.884 19.2792 31.8699 19.4138C31.8474 19.6242 31.8195 19.8186 31.81 20.093C31.7537 21.7477 31.3417 23.4476 30.611 24.9748C30.5817 25.0362 30.6074 25.1005 30.5684 25.1929C30.508 25.3349 30.4634 25.3196 30.4525 25.337C30.3802 25.4496 30.4439 25.4223 30.3562 25.5795C30.1648 25.9271 29.7893 26.4447 29.5591 26.7635C29.0321 27.5009 28.5515 28.1009 27.9096 28.7243C27.8631 28.7691 27.8541 28.6946 27.7711 28.7687C27.177 29.2782 27.0875 29.4377 26.2682 29.9749C25.4552 30.5252 23.759 31.2821 22.6464 31.5438C22.6463 31.5437 22.6463 31.5435 22.6463 31.5434C22.3296 31.7484 21.86 31.8247 21.4662 31.8037C23.588 31.1491 25.5763 30.3855 27.3753 28.8582C29.2634 27.2501 30.5413 24.8536 31.1676 22.4898C31.2275 22.2674 31.3112 22.1914 31.3399 21.9969C31.3446 21.9641 31.2781 22.0372 31.2943 21.937C31.4262 21.1184 31.5405 20.2653 31.5593 19.4138C31.5724 18.8368 31.5426 18.2672 31.4538 17.7214C31.3925 17.3589 31.3266 17.3098 31.251 16.998C31.2879 17.0481 31.3219 17.0792 31.3571 17.123C31.1609 15.6508 30.5774 14.2444 29.7955 12.9623C29.7602 12.9043 29.8016 12.8681 29.7649 12.8065C29.6915 12.6832 29.5662 12.6022 29.4944 12.5008C29.4002 12.3684 29.4192 12.3206 29.3291 12.2002C29.2847 12.1419 29.2647 12.1837 29.1753 12.0522C29.1677 12.0412 29.1975 12.0078 29.1286 11.9269C28.942 11.7031 28.5308 11.2751 28.3584 11.1093C28.1414 10.8944 28.0131 10.676 27.9326 10.5916C27.7144 10.3657 27.6727 10.4198 27.4763 10.2433C26.0701 9.00079 24.4852 8.03509 22.613 7.51537C22.4945 7.48084 22.0425 7.44521 21.8229 7.39929C21.7505 7.38136 21.3677 7.29143 21.3089 7.28196C21.0738 7.23761 20.8752 7.16731 20.7438 7.14291C20.4891 7.0948 20.1987 7.14424 20.0589 7.14369C19.8504 7.14116 19.5067 7.12757 19.3438 7.12574C19.3154 7.12524 19.2928 7.1249 19.2774 7.12471C19.029 7.12285 19.1091 7.03468 18.931 7.05998C18.8786 7.06806 18.9356 7.1321 18.7516 7.14027C18.5969 7.14768 18.5304 7.10183 18.4236 7.10043C18.3162 7.09892 18.1303 7.19436 18.0648 7.19956C17.7196 7.22636 17.5632 7.19566 17.1891 7.25711C16.8743 7.28612 15.4859 7.69913 15.3851 7.77475C14.9065 8.02799 15.7361 7.70077 15.7873 7.69547C16.0519 7.63343 16.021 7.67479 16.2678 7.54697C16.5409 7.65904 17.3109 7.21031 17.562 7.40319C17.76 7.22622 17.96 7.27607 18.1948 7.28336C18.5202 7.29592 18.2674 7.23122 18.504 7.21293C18.5982 7.20565 18.8709 7.25822 19.0097 7.246C19.1352 7.23449 19.195 7.1913 19.3438 7.18059C19.3604 7.17942 19.3781 7.17869 19.3971 7.17848C19.7348 7.17509 20.0034 7.21165 20.2797 7.29369C20.333 7.27068 20.3831 7.2477 20.4362 7.2253C20.6264 7.27133 20.8192 7.32217 21.0063 7.37701C20.9789 7.34943 20.9513 7.32173 20.9234 7.29434C20.9803 7.29826 21.0373 7.30278 21.0941 7.30769C21.2757 7.36973 21.4497 7.43213 21.6319 7.50438C22.1744 7.47495 22.0023 7.56249 22.2805 7.64677C22.5582 7.7351 22.7426 7.70657 22.9589 7.77279C23.2507 7.86436 23.3857 7.90052 23.6724 8.01437C23.8388 8.08037 24.0885 8.26695 23.9044 8.06096C24.4275 8.25648 25.1314 8.5713 25.5359 8.87164C25.6553 8.95905 25.4671 8.89168 25.4863 8.90868C25.5821 8.99096 25.7038 8.99259 25.8087 9.06871C25.9838 9.19371 26.3008 9.46719 26.4288 9.57568C26.615 9.72814 26.9623 9.90083 26.9961 9.92189C27.1861 10.0343 27.1874 10.1241 27.2435 10.1656C27.5616 10.4052 27.6435 10.4496 27.6387 10.636C27.755 10.6599 28.1347 10.8942 28.1316 11.0416C28.2004 10.9794 28.4355 11.2522 28.5967 11.4054C28.6035 11.454 28.6106 11.5028 28.6166 11.5514C29.0466 11.7924 29.5052 12.6129 29.792 13.1432C29.7994 13.1564 29.8727 13.1441 29.9059 13.231C29.9077 13.2366 29.8763 13.2442 29.9037 13.2991C30.0008 13.478 30.2827 14.195 30.3136 14.2762C30.4473 14.5702 30.5153 14.6034 30.5962 14.7837C30.7004 15.0223 30.6706 15.0746 30.7618 15.3041C30.8036 15.4115 30.8965 15.4911 30.945 15.6682C30.9734 15.773 30.9308 15.7978 30.952 15.8802C31.0265 16.1737 31.1132 16.3839 31.114 16.6593C31.2787 16.6931 31.1978 16.845 31.2131 16.9777C31.2782 17.5138 31.4257 18.1747 31.4384 18.6402C31.4471 18.9041 31.4452 19.1588 31.4348 19.4138C31.3846 20.5595 31.1729 21.6075 30.8441 22.7023C30.7776 22.9187 30.8348 22.9936 30.7551 23.2199C30.7187 23.3213 30.6306 23.4074 30.5691 23.571C30.5196 23.7028 30.4721 23.9011 30.4033 24.063C30.3851 24.1061 30.3356 24.0897 30.308 24.1525C30.0981 24.6281 29.8988 25.0976 29.6492 25.5642C29.5565 25.7371 29.4323 25.802 29.5517 25.8381C29.4866 25.886 29.4256 25.9333 29.3628 25.9759C29.2772 26.2423 29.0871 26.3798 28.883 26.6805C28.8619 26.713 28.7569 26.9825 28.6101 27.0647C28.6359 27.1005 28.6794 27.1048 28.7063 27.133C28.6198 27.2643 28.4253 27.4128 28.3513 27.487C28.2777 27.5615 28.2707 27.6506 28.2495 27.6743C28.1683 27.7634 28.1342 27.6926 28.1271 27.6985C27.6895 28.0519 27.7574 28.0313 27.5856 28.3445C27.5434 28.4257 27.0567 28.7429 27.0186 28.8805C26.9923 28.8564 26.9976 28.8121 26.9834 28.7802C26.8442 28.8822 26.7018 28.9818 26.5581 29.078C26.6077 29.0832 26.6634 29.0836 26.7108 29.0903C26.4112 29.2816 26.2139 29.5151 25.9672 29.6722C25.8259 29.7612 25.803 29.6865 25.729 29.752C25.7145 29.7648 25.7687 29.7908 25.7224 29.8241C25.3424 30.0928 25.1369 30.1454 24.7188 30.344C24.5222 30.4351 24.388 30.6006 24.0755 30.6675C24.0466 30.6742 23.7359 30.714 23.5989 30.8885C23.5293 30.8751 23.4732 30.8748 23.4206 30.8606C23.1172 31.1488 23.1591 30.9601 22.6572 31.0667C22.397 31.1282 21.5336 31.3514 21.2463 31.4064C21.0772 31.4441 21.0901 31.5102 21.0598 31.5175C20.8783 31.5583 20.8698 31.4925 20.701 31.5229C20.5317 31.5529 20.3239 31.6465 20.1458 31.6509C20.0101 31.6539 20.1115 31.5662 19.9145 31.6048C19.8736 31.6127 19.9946 31.6779 19.7834 31.6588C19.7499 31.6569 19.4124 31.5882 19.3438 31.5706C19.5224 31.5296 20.024 31.4551 20.2129 31.421C23.6027 31.3028 29.218 27.3215 30.2281 23.8855C30.3512 23.5946 30.4889 23.4231 30.5624 23.2285C30.6345 23.0332 30.5168 23.1793 30.5802 23.0021C30.6427 22.8247 30.7258 22.707 30.7766 22.5373C31.0784 21.5278 31.2445 20.4697 31.2584 19.4138C31.2602 19.2751 31.2595 19.1371 31.2563 18.9999C31.2486 18.6931 31.1772 18.4488 31.1488 18.1731C31.1373 18.0648 31.2052 18.0536 31.1955 17.9765C31.0883 17.1454 30.8518 16.405 30.5965 15.62C30.4904 15.2945 30.4094 14.926 30.2757 14.6102C30.1661 14.3498 30.0022 14.1044 29.8836 13.8815C29.8191 13.7607 29.8298 13.6721 29.8092 13.6263C29.7362 13.4678 29.7099 13.5526 29.666 13.4759C29.5439 13.2654 29.546 13.121 29.4165 12.9305C29.3654 12.8561 29.3306 12.8926 29.2519 12.7886C29.1514 12.6571 29.2232 12.682 29.1571 12.5836C29.1531 12.5777 29.1376 12.6168 29.1004 12.5663C28.8617 12.2409 28.528 11.8637 28.2727 11.5719C27.7478 10.9669 27.208 10.3759 26.6174 9.90658C26.4679 9.78872 26.4803 9.85655 26.4309 9.82229C26.1917 9.65982 26.1377 9.55474 25.8733 9.40355C25.8291 9.37829 25.6246 9.32165 25.4674 9.20851C25.3826 9.1472 25.2998 9.05306 25.2265 9.00086C25.1531 8.94876 25.1121 8.99275 25.0181 8.94143C24.8464 8.84963 24.9161 8.83902 24.6632 8.71904C24.5608 8.66998 24.1997 8.55823 23.9348 8.44392C23.5043 8.25435 22.9663 8.01054 22.4257 7.86654C22.2398 7.81654 21.9884 7.81604 21.6981 7.75808C21.3458 7.68335 20.6857 7.57607 20.3165 7.5497C20.1277 7.53446 20.1175 7.47196 20.095 7.46767C19.95 7.44155 20.0044 7.5152 19.9079 7.50759C19.7752 7.49756 19.6519 7.442 19.5294 7.43669C19.4513 7.43338 19.4385 7.48532 19.4216 7.48557C19.3956 7.48612 19.3696 7.48672 19.3438 7.48736C18.7518 7.50322 18.2253 7.53625 17.6396 7.62479C14.3543 8.11227 11.3605 10.0991 9.51449 12.8122C9.36007 13.0397 9.29973 13.0138 9.18032 13.2262C9.06143 13.44 9.07045 13.7108 8.83936 13.8123C8.86406 13.8328 8.88413 13.8428 8.90637 13.8619C8.63156 14.2821 8.46522 14.7594 8.29732 15.216C8.17299 15.5548 8.0681 15.8581 7.97327 16.1772C7.89093 16.461 7.84461 16.4243 7.85356 16.6894C7.61106 17.5714 7.5004 18.4949 7.47381 19.4138C7.46326 19.7753 7.4652 20.1332 7.47642 20.4915C7.62052 20.7767 7.57941 21.0642 7.6329 21.4749C7.63971 21.5253 7.67172 21.4645 7.69549 21.6127C7.72676 21.7977 7.68069 21.9086 7.75815 22.2186C7.77544 22.302 8.00948 22.8849 8.05085 23.1139C8.08697 23.3454 8.18196 23.6686 8.24092 23.9059C8.25395 23.8635 8.26269 23.8133 8.27443 23.7677C8.32298 23.8775 8.37301 23.9866 8.42489 24.0949C8.40084 24.1242 8.37687 24.1537 8.35256 24.1827C8.40998 24.2342 8.46738 24.2852 8.52607 24.3355C8.43294 24.5453 8.41656 24.3823 8.60323 24.6683C8.69777 24.8109 8.73262 24.9445 8.8309 25.0894C8.86654 25.1415 8.93051 25.1521 8.9698 25.2089C9.06655 25.348 8.95709 25.2972 9.00963 25.3877C9.06332 25.4789 9.20585 25.5686 9.27716 25.7458C9.05437 25.6521 9.40157 26.1115 9.50719 26.0712C9.54534 26.127 9.57388 26.1762 9.61928 26.2355C9.3583 26.3338 9.72224 26.516 9.83716 26.6038C9.9517 26.6933 9.89139 26.7327 9.91387 26.7571C9.97878 26.8272 9.9596 26.7541 10.0016 26.8057C10.2799 27.1464 10.5224 27.4869 10.8258 27.8012C10.8695 27.8463 10.8594 27.778 10.908 27.8326C10.9567 27.887 10.978 27.9654 11.0581 28.0386C11.0796 28.0582 11.111 28.0385 11.1437 28.0696C11.8295 28.7197 12.5351 29.2886 13.3698 29.7789C13.4456 29.823 13.5364 29.8018 13.6831 29.8843C13.8292 29.9666 14.0309 30.1352 14.2193 30.2293C14.2691 30.2543 14.3054 30.2126 14.3715 30.2447C14.5969 30.3536 14.779 30.4783 15.0201 30.5799C15.4286 30.7516 15.8774 30.8635 16.3033 31.0075C16.3845 31.0346 16.3597 31.0744 16.4763 31.1161C16.678 31.1869 16.6151 31.1048 16.6588 31.1062C16.8015 31.1099 16.8271 31.2033 16.9651 31.2089C16.9861 31.2096 16.9672 31.1538 16.9855 31.1566C17.2685 31.2025 17.2647 31.3236 17.5791 31.3071C17.84 31.4143 17.384 31.3722 17.3303 31.3982C17.2001 31.4662 17.4883 31.6213 17.6661 31.6782C17.8191 31.7277 17.8252 31.6721 17.8876 31.6796C18.2182 31.7207 18.7137 31.743 18.9646 31.7748C19.1175 31.795 18.8402 31.8097 18.918 31.8302C18.9954 31.8509 19.0468 31.8107 19.1262 31.8575C19.2051 31.9046 19.3711 32.0384 19.3398 32.102ZM9.80919 11.5083C9.63635 12.0308 8.8616 13.1066 8.5237 13.7451C8.23048 14.2621 7.88281 14.6781 8.15366 14.6586C8.40886 14.0711 8.62508 13.5962 8.98675 13.0214C9.02334 12.9605 9.27087 12.6202 9.35931 12.5036C9.40823 12.4373 9.44244 12.4582 9.50696 12.3673C9.52072 12.3475 9.55769 12.2076 9.58859 12.1689C9.69167 12.0332 10.0688 11.693 10.1135 11.6403C10.2336 11.4883 10.1384 11.5043 10.1848 11.4333C10.3439 11.1962 10.4343 11.2365 10.6043 11.0135C10.6348 10.974 10.6918 10.7969 10.8492 10.6591C10.913 10.6031 11.0466 10.535 11.0926 10.4899C11.3426 10.2429 11.6087 9.94574 11.871 9.75481C12.0863 9.59923 12.0678 9.69367 12.1848 9.61743C12.3017 9.54173 12.3977 9.38508 12.4749 9.32741C12.5979 9.23493 12.7771 9.16862 12.8168 9.14282C13.5992 8.63197 14.3324 8.21998 15.18 7.89181C14.5899 8.07499 14.0142 8.30573 13.4584 8.57476C13.1839 8.80176 13.3066 8.66309 13.0964 8.76119C12.931 8.84075 12.9504 8.9576 12.7428 9.07499C12.743 9.07488 12.7431 9.07478 12.7433 9.07467C12.6366 9.13499 12.3699 9.21873 12.1745 9.39904C12.1677 9.4057 12.1814 9.46503 12.0255 9.5833C11.6725 9.84823 11.1765 10.3054 10.8159 10.6437C10.7096 10.7428 10.688 10.6788 10.5612 10.7965C10.469 10.8829 10.4084 11.0263 10.2669 11.1631C10.09 11.3347 9.93911 11.3643 9.93221 11.58C9.88671 11.5602 9.85558 11.5251 9.80919 11.5083ZM8.12746 24.3999C8.13427 24.4336 8.19983 24.919 8.28377 24.7252C8.07518 24.1355 7.79852 23.5222 7.64978 22.8839C7.56267 23.1423 7.73707 23.4899 7.91697 23.9133C7.91704 23.9135 7.91711 23.9137 7.91719 23.9138C7.92574 23.9339 7.8539 23.8643 7.90659 23.9767C7.93214 24.0316 8.07701 24.2193 8.12746 24.3999Z" fill="#AA99AA" fill-opacity="0.588235"/>
</svg>
