<svg xmlns="http://www.w3.org/2000/svg" width="41" height="43" fill="none" viewBox="0 0 41 43"><path fill="#a9a9a6" d="M38.14 21.792a1.2 1.2 0 0 1 0-1.062l1.53-3.128a3.56 3.56 0 0 0-1.536-4.727l-3.076-1.632a1.2 1.2 0 0 1-.624-.859l-.602-3.43a3.56 3.56 0 0 0-4.02-2.92l-3.448.487a1.2 1.2 0 0 1-1.01-.328l-2.502-2.421a3.56 3.56 0 0 0-4.97 0l-2.503 2.42c-.27.262-.638.382-1.01.33l-3.447-.489a3.56 3.56 0 0 0-4.02 2.922l-.602 3.43c-.065.369-.293.682-.625.858L2.6 12.875a3.56 3.56 0 0 0-1.536 4.727l1.53 3.128c.164.337.164.724 0 1.062l-1.53 3.128A3.56 3.56 0 0 0 2.6 29.646l3.075 1.633c.332.175.56.489.625.859l.601 3.43a3.557 3.557 0 0 0 4.02 2.92l3.448-.487c.372-.053.74.067 1.01.328l2.503 2.42a3.56 3.56 0 0 0 4.97 0l2.502-2.42c.27-.261.638-.38 1.01-.328l3.448.487a3.56 3.56 0 0 0 4.02-2.92l.602-3.43c.065-.37.292-.683.624-.86l3.076-1.631a3.56 3.56 0 0 0 1.535-4.727zm-1.115 5.765L33.95 29.19a3.55 3.55 0 0 0-1.845 2.539l-.602 3.43a1.204 1.204 0 0 1-1.36.988l-3.448-.488a3.55 3.55 0 0 0-2.985.97l-2.503 2.421a1.204 1.204 0 0 1-1.681 0l-2.503-2.42a3.55 3.55 0 0 0-2.985-.97l-3.447.487a1.205 1.205 0 0 1-1.36-.989l-.602-3.43a3.55 3.55 0 0 0-1.845-2.539l-3.076-1.632a1.204 1.204 0 0 1-.52-1.599l1.53-3.128a3.55 3.55 0 0 0 0-3.139l-1.53-3.128a1.204 1.204 0 0 1 .52-1.599l3.076-1.632a3.55 3.55 0 0 0 1.845-2.54l.601-3.429c.114-.646.71-1.08 1.36-.988l3.448.487a3.55 3.55 0 0 0 2.985-.97l2.503-2.42a1.204 1.204 0 0 1 1.681 0l2.503 2.42a3.55 3.55 0 0 0 2.985.97l3.448-.487a1.204 1.204 0 0 1 1.36.988l.602 3.43a3.55 3.55 0 0 0 1.845 2.54l3.075 1.631c.58.307.808 1.01.52 1.6l-1.53 3.127a3.55 3.55 0 0 0 0 3.14l1.53 3.127c.288.59.06 1.292-.52 1.6"/><path fill="#a9a9a6" d="M37.348 22.166a2.07 2.07 0 0 1-.082-1.864c.208-.496.44-.983.707-1.465.102-.185.167-.13.217-.203.092-.132.13-.41.146-.444.1-.21.19-.065.209-.09.206-.288.014-.27.146-.576q.068-.156.152-.327c.12-.243.23-.528.274-.816.017-.135.13-.062.128-.372.01-.23-.232-.836-.26-1.158.045-.023.112-.01.167-.016-.396-.322-.439-.448-.867-.917-.072-.071-.195-.062-.321-.183-.08-.074-.088-.147-.162-.234a1.2 1.2 0 0 0-.297-.207c-.142-.074-.272-.037-.49-.148-.623-.317-1.744-1.044-2.248-1.316l-.016-.008a1.99 1.99 0 0 1-1.005-1.317c-.132-.522-.26-.978-.334-1.595-.009-.077.122.073.1-.067-.023-.141-.183-.264-.193-.298-.1-.367-.058-1.188-.116-1.392l-.026-.084c-.114-.279-.077.036-.254-.453-.18-.482-.505-1.19-.973-1.525-.549-.377-.81-.169-1.236-.513a3 3 0 0 0-.824.012l-3.444.509a1.8 1.8 0 0 1-1.502-.482l-.445-.425.126-.102-.428-.26q.067-.016.135-.035a9 9 0 0 1-1.813-1.487c-.012-.013.096-.058.087-.07a1 1 0 0 0-.106-.103c-.109-.086-.242-.14-.324-.22-.243-.266-.758-.721-.61-.35-.76-.416-1.83-.277-2.552.052-.317.139-.499.074-.649.175-.144.104.02.159-.023.202l-.122.127c-.283.296-.666.632-.806.575l-.05.32c-.09-.164-.968.79-1.215 1.023-.045.042-.106-.008-.14.025a2.4 2.4 0 0 0-.342.426c-.133.178-.278.35-.598.481-.213.066.09-.114-.448.016-.037.001-.024.095-.33.097a2 2 0 0 1-.268-.02c-.76-.11-2.22-.266-3.116-.455-.062-.013.101-.087-.05-.12a.5.5 0 0 0-.108-.01c-.108.002-.066.096-.319.09-.965-.027-2.088.449-2.552 1.373-.074-.086.03-.477-.216.042-.034.084.084.073.068.109-.124.29-.287.528-.321.877a.2.2 0 0 0 .009.075c.016.065.051.117.046.223-.011.219-.136.295-.134.552.004.402.096.48-.19.927l-.29 1.733a1.78 1.78 0 0 1-.909 1.264c-1.022.552-2.044 1.1-3.075 1.633-.496.254-.92.636-1.223 1.108-.293.62-.357 1.26-.25 1.925.038.193-.098.266.046.569.018.038.127.194.193.345.062.14.087.285-.005.374.098.146.147.244.227.372-.013-.12-.027-.243-.038-.36.237.588.553 1.008.84 1.49.212.355-.024.145.097.367.122.222.197.313.206.66a.5.5 0 0 1 .208.222c.091.196.152.454.144.856.003.064.028.46-.136.771q-.011.023-.024.044c-.083.15-.198.15-.303.4-.017.042-.154.613-.223.782-.109.264-.426.611-.452.66-.295.56-.367.887-.604 1.205-.056.07-.12.14-.199.22.08.142.033.53-.002.837-.09.369-.16 1.264.163 1.27.063.469.105.412.429.848.16.204.49.569.903.81.44.26.863.506 1.073.61.439.216.3-.032.482.04.297.12.092.14.285.24.452.235.86.434 1.296.627q.208.1.397.25a2 2 0 0 1-.062.274q.073.02.145.046c.117.143.22.326.277.486-.058-.38-.116-.482-.042-.406.063.074.206.346.238.704.023.435.038 1.038.082 1.315.078.485.383 1.262.511 1.787.032.128-.069.054-.062.08.027.105.052.179.077.247.044.106.082.193.146.408.051.17.028.386.116.549.508.949 1.574 1.476 2.588 1.43q.208-.006.414-.04l.452-.07c.269-.04.519.058.745.029.324-.042.513-.178.816-.222s.756.021.958-.027c.203-.048-.166-.123.214-.142.175-.008-.117.127.097.1l.184-.027c.476-.083 1.095.054 1.51.454.27.247.528.504.722.76-.003-.041-.016-.09-.026-.135.54.537.977 1.053 1.536 1.607.064.063.151.137.247.214.168.132.377.244.503.324.187.118.239.242.407.319.07.03.072-.055.117-.035.397.164.686.28 1.06.323.162.016.34.014.54-.027.6-.12 1.16-.424 1.59-.861q1.224-1.23 2.458-2.468a1.8 1.8 0 0 1 1.493-.504l2.002.246c.116.015.208-.077.38-.068.263.013.263.106.297.114.224.052.144-.045.448-.002q.159.023.341.053c.521.107 1.24.031 1.651-.188.884-.442 1.384-1.257 1.496-2.134q.066-.479.14-.98c.015-.11.123-.014.157-.202.184-.99.193-1.407.32-2.245a1.92 1.92 0 0 1 1.021-1.4c.797-.404 1.948-.982 3.11-1.57.86-.411 1.421-1.292 1.542-2.03-.13-.532-.13-1.092-.194-1.67.885 1.258.344 3.314-1.153 4.07-1.006.547-2.034 1.074-3.084 1.616-.401.203-.707.61-.785 1.064q-.147.801-.289 1.625-.151.895-.286 1.81c-.192 1.676-1.893 3.132-3.741 2.912-1.16-.115-2.318-.235-3.464-.375a1.16 1.16 0 0 0-.952.323q-.462.453-.928.892c-.297.28-.505.302-.733.56-.039.044.139.011.017.143q-.403.434-.829.857a3.52 3.52 0 0 1-2.564 1.012 3.77 3.77 0 0 1-2.51-1.069 34 34 0 0 0-.58-.546c-.48-.44-.63-.431-1.06-.808.108.032.193.038.293.061q-.545-.597-1.109-1.175a1.23 1.23 0 0 0-1.04-.362c-1.148.145-2.295.314-3.448.478a3.413 3.413 0 0 1-1.622-.153c-.11-.04-.086-.146-.194-.195-.212-.099-.472-.107-.654-.226-.232-.158-.214-.257-.402-.424-.088-.085-.127.004-.297-.212-.013-.02.042-.084-.074-.219-.266-.29-.627-.945-.727-1.434l-.07-.299c-.12-.525-.066-.973-.093-1.175-.072-.545-.202-.511-.283-.97a117 117 0 0 1-.168-.983c-.06-.373-.3-.712-.634-.892-1.019-.562-2.026-1.129-3.04-1.697C1.45 28.887.717 27.48.896 26.094c.01-.17.03-.771.201-1.157q.04-.096.078-.172c.06-.117.399-.72.447-.812.196-.372.437-.659.555-.858.231-.388.325-.9.42-1.127l.062-.143c.184-.35.132-.9.002-1.128l-.05-.106c-.182-.395.038-.342-.136-.605-.052-.077-.13.068-.272-.224-.12-.245-.077-.388-.143-.563s-.355-.413-.402-.52c-.205-.46-.258-.735-.433-1.156q-.051-.122-.107-.27c-.1-.235-.323-.951-.243-1.651.055-.702.382-1.304.421-1.397.188-.43.087-.321-.076-.08-.161.24-.304.634-.318.675-.177.443-.227.378-.173.866-.377.34.078 1.431.273 1.965a.5.5 0 0 1-.002.339c.436.225.45.588.579.987.179.551.14.084.325.46.073.148.164.636.29.85.112.193.235.253.368.478a.977.977 0 0 1-.043 1.012q-.159.236-.343.458c.008.105.02.206.028.31l-.61.853.2-.087q-.056.141-.114.28l-.627.805a4 4 0 0 1-.108.487c-.105.367-.217.245-.366.646-.172.537-.023.878.005 1.284.06.556.148.805.372 1.32.129.297.337.833.278.325.304.462.81.915 1.369 1.2.448.235.872.472 1.199.695.216.147-.126.052-.091.08.174.144.396.122.59.245.32.203.928.634 1.18.794l.077.045c.315.132.63.572.635.645l.005.013c.122.358.013.48.043.6.174.685.256.83.019 1.096.15.16.483.878.315 1.095.131-.02.209.305.285.628.029.126.065.25.106.35q-.047.128-.085.263c.506.705 1.457 2.072 2.614 2.346.027.008.106-.112.258-.051.01.004-.019.063.09.089a3.871 3.871 0 0 0 1.106.112c.384-.015.735-.029.809-.038.572-.076.657-.192 1.003-.25.456-.078.535.004.969-.07.194-.034.357-.17.655-.207l.036-.003c.175-.003.186.099.303.125q.3.079.485.264c.17.168.324.338.46.56.302-.133.31.188.465.37.44.518 1.042 1.039 1.56 1.509.235.215.48.389.702.532a3.96 3.96 0 0 0 4.793-.376 87 87 0 0 0 2.014-1.818c.256-.24.267-.405.462-.63a.4.4 0 0 1 .078-.073c.108-.07.26-.022.42-.028q.055-.004.123-.003c.22.015.48.021.71.054.084.012.076.116.2.134.846.126 1.685.183 2.544.255q.143.013.288.016c.396.008.656.111.57-.12.153.048.306.08.46.112.505-.255.99-.245 1.6-.703.074-.049.394-.515.68-.677-.05-.073-.136-.085-.187-.143.173-.235.501-.562.6-.744.102-.177.048-.346.069-.4.076-.212.194-.119.203-.134.11-.23.17-.414.206-.56.11-.435.034-.495-.052-.98-.028-.158.307-1.14.172-1.373.072.003.123.07.186.098l.215-.904c-.079.053-.159.119-.236.166q.064-.245.09-.476c.035-.332.194-.661.487-.826q.037-.021.076-.04c.262-.136.3.013.438-.097.027-.022-.071-.084.014-.138.693-.443 1.06-.517 1.796-.884.256-.128.438-.337.738-.499.105-.057.222-.112.36-.168.044-.006.62-.239.664-.664.127-.032.218-.085.317-.115.09-.784.32-.389.702-1.317.243-.456.068-2.084-.327-2.598l-.043-.074c-.155-.266-.276-.201-.304-.248-.173-.28-.054-.34-.206-.602-.153-.262-.456-.54-.58-.826-.095-.219.135-.122-.071-.413-.043-.06-.077.188-.191-.17a26 26 0 0 1-.167-.78c.216.243.716 1.007.897 1.297q.47.752.994 1.655c1.016 1.587.592 4.523-1.665 5.74-.984.562-2.004 1.134-3.036 1.706a.26.26 0 0 0-.122.196 391 391 0 0 1-.567 3.436c-.369 2.525-3.02 4.136-5.136 3.732-1.06-.156-2.042-.304-2.914-.439a4 4 0 0 1-.524-.119c-.069-.056-.164-.103-.243-.068-.098.053.014.094-.007.137a1 1 0 0 1-.075.077c-.255.23-.5.338-.736.556l-1.81 1.665a4.32 4.32 0 0 1-2.997 1.16 4.3 4.3 0 0 1-1.506-.296c-.586-.236-1.078-.449-1.508-.847l-.043-.042c-.142-.137-.05-.24-.153-.337-.764-.73-1.53-1.377-2.287-2.062a.5.5 0 0 0-.395-.11l-.237.033c-.62.08-1.304.06-1.918.136-.444.054-.893.178-1.302.252a3 3 0 0 1-.203.028.9.9 0 0 1-.405-.05q-.091-.035-.15-.046c-.361-.047-.246.086-.436.064-.524-.083-.728-.312-1.163-.494-.17-.078-.195.024-.444-.104-.31-.175-.149-.18-.346-.33-.012-.01-.016.077-.123-.005-.695-.513-1.34-1.463-1.508-2.297a4 4 0 0 1-.047-.241c-.188-1.172-.299-2.342-.45-3.457a.6.6 0 0 0-.104-.283c-.117-.147-.15-.033-.192-.064l-.072-.043c-.35-.192-.491-.358-.934-.554-.084-.037-.468-.097-.763-.29-.16-.104-.312-.275-.446-.367s-.211 0-.383-.092c-.286-.15-.202-.183-.534-.36l-.119-.063c-.208-.098-.947-.481-1.32-1.005-.64-.819-.938-2.136-.723-3.296.054-.325.082-.75.273-1.21q.05-.125.113-.255c.287-.59.843-1.665 1.14-2.268.151-.309.275-.276.298-.31.117-.176.031-.19.033-.268a.05.05 0 0 1 .004-.039c.048-.093.164-.198.15-.325-.012-.078-.118-.056-.123-.069l-.03-.06c-.495-.947-.908-1.811-1.388-2.77l-.172-.342c-1.042-1.947-.212-4.663 1.797-5.69q1.526-.837 3.055-1.67a.4.4 0 0 0 .204-.297q.285-1.719.58-3.433c.266-1.665 1.6-3.107 3.239-3.49.605-.129.644.008 1.166-.02.18-.004.359-.027.538-.036.287-.025.558-.04.766.197.02-.06.025-.105.045-.16.877.212 1.778.25 2.65.36l.011.001a.36.36 0 0 0 .274-.094l.578-.547c.393-.37.435-.26.672-.687a106 106 0 0 0 1.275-1.164c1.56-1.54 4.31-1.56 5.8-.076q.145.053.273.136c.405.24.665.645 1.1 1.106.063.068.051-.063.243.133.24.245.278.463.699.86.045.043.221.18.432.35.14.094.304.091.412.104h.055c.426.015 1.035-.027 1.477-.018-.07-.046-.155-.089-.231-.134l.643-.12.122.188.35-.244c.32.304.025.232.619.06.152-.045.292-.06.433-.074.157-.017.314-.025.492-.047.131-.015.22-.116.371-.12.37-.001.143.119.363.147.217.031.583-.051.945.166-.475.094.626.478.784.376.124.081.22.161.35.26-.444.324.344.493.59.712.243.196.112.275.156.328.122.16.094.004.17.125.28.453.433.956.496 1.457.04.337.08.675.135 1.016.019.112.082-.001.097.13.015.132-.044.27-.004.462.01.052.084.055.098.136q.147.85.277 1.685c.025.181.128.34.292.435.653.364 1.31.729 1.994 1.096.139.075.308.02.576.167.15.083.328.22.513.356.172.121.337.255.49.371.092.072.183.006.303.11.403.362.632.779.88 1.26.42.81.643 1.818.398 2.728-.047.17-.125.125-.215.354-.171.389-.006.28-.018.37a.52.52 0 0 1-.162.288c-.063.061-.128.12-.162.24-.01.036.105.033.092.064-.213.474-.44.394-.567.946-.339.381-.02-.376-.05-.484-.068-.263-.495.134-.695.393-.173.222-.073.27-.121.368-.186.38-.429.902-.64 1.302-.091.174-.14.347-.167.489-.055.324-.048-.273-.1-.11-.062.172.02.282-.047.472-.083.182-.151.691-.294.675M7.922 5.422c.086-.756 1.683-1.774 3.012-1.477.345.053.663.108.932.155 1.038.182 1.89.641 1.742.129-.94-.136-1.736-.215-2.665-.343a4 4 0 0 0-.598-.04c-.129-.02-.915.046-1.175.153-.146.049-.181-.026-.378.062-.045.02-.224.23-.302.276-.29.119-1.102.674-1.167.812-.216.314-.023.268-.092.412-.197.489-.393.47-.493 1.002-.008.054.015.193.028.368.01.123.009.267-.027.418-.035.146-.162.383-.178.496-.086.62-.096 1.326-.214 1.886-.096.46-.198.313-.258.555l-.011.06c-.02.183-.024.449-.121.567a.7.7 0 0 1-.338.224c-.108.037-.196.065-.23.083-.993.546-1.894 1.081-2.811 1.614-.431.25-.813.586-1.119.992.33-.376.735-.676 1.178-.881q.798-.374 1.595-.742c.48-.403.269-.152.644-.305.297-.12.262-.353.644-.528a2 2 0 0 1 .188-.066c.245-.067.627-.328.692-.732 0-.012-.037-.052-.049-.179a1 1 0 0 1 .012-.253c.125-.766.273-1.947.448-2.802.043-.214.13-.193.195-.365a1 1 0 0 0 .034-.106c.054-.204.013-.482.18-.786.218-.381.485-.415.462-.81.088.042.152.111.24.15m20.676-1.167c.062.002.912.182.628-.098-.93.014-1.901.182-2.873.285a1.04 1.04 0 0 1-.503-.07c.09.155.29.25.527.239.364-.013.801-.13 1.3-.214.038-.007-.109.097.104.052.104-.022.486-.203.817-.194m8.833 24.08c-.657.468-1.341.883-2.09 1.228-.17.078-.193-.003-.268.022-.136.044-.305.234-.334.25-.182.098-.178-.067-.206-.06-.129.041-.174.083-.204.13-.026.056-.029.12-.131.195-.233.17-.531.391-.741.67-.072.1-.139-.013-.269.23-.083.148-.166.589-.261.873a1 1 0 0 1-.076.177c-.05-.006-.097-.06-.145-.087.12.534.079.711-.096 1.41-.027.11.04.23-.027.422-.066.191-.198.177-.266.573-.024.14.054.242.02.458-.02.133-.052.292-.09.463a1.93 1.93 0 0 1-.917 1.274c-.46.268-.958.28-1.255.235l-.024-.003c-.984-.145-1.547-.065-2.418-.244-.068-.014.096-.095-.028-.114-.126-.02-.276.096-.307.095-.18-.007-.455-.088-.703-.165-.176-.062-.344-.1-.416-.09-.367.072-.009.094-.493.186-.446.092-1.125.233-1.516.566l-.04.034c-.478.431-.477.756-1.02.92l-1.505 1.478c-.643.663-1.83.67-2.485.008q-.552-.527-1.105-1.053l.125-.104-.39-.222.13-.041a7.3 7.3 0 0 1-1.293-.97 7 7 0 0 0-.294-.264c-.01-.008.08-.073.074-.082-.113-.11-.302-.13-.409-.21-.247-.202-.745-.57-.58-.229a2.3 2.3 0 0 0-.831-.134q-.218.004-.432.04c-.436.07-.864.138-1.255.167-.365.028-.497-.124-.672-.11-.174.016-.066.147-.126.161-.365.084-.973.165-1.06.013-.065.075-.135.15-.2.226.004-.043-.054-.063-.149-.068-.21.003-.566-.012-.877-.149a1.6 1.6 0 0 1-.648-.49c-.044-.06.015-.113-.015-.158a3 3 0 0 1-.29-.562c-.064-.139-.132-.26-.19-.467-.039-.135.136.055.014-.288-.01-.03-.13.008-.204-.414-.093-.538-.288-1.464-.403-2.229a5 5 0 0 0-.086-.444c-.015-.055.175.067.054-.173-.047-.084-.115-.008-.211-.21-.266-.537-.686-1.053-1.257-1.356a11 11 0 0 0-.886-.429c.085-.078.476-.01-.057-.215-.085-.032-.071.086-.109.07-.304-.13-.523-.325-.855-.459-.099-.039-.158.017-.282-.029-.184-.067-.208-.203-.429-.268-.246-.072-.366-.059-.52-.185a1.1 1.1 0 0 1-.3-.338c-.58-.499-.758-1.4-.415-2.083.5-1.048 1-2.096 1.515-3.135.297-.592.401-1.271.291-1.931a3 3 0 0 0-.316-.692c-.2-.34-.398-.684-.596-1.06-.102-.193.005-.291-.19-.585-.043-.065-.422-.5-.206-.697-.09-.129-.133-.216-.205-.33q.012.166.02.327a4.4 4.4 0 0 0-.397-.76 1.86 1.86 0 0 1-.26-.996c.065-.587.1-.153.19-.49.12-.316.202-.506.607-.676a.56.56 0 0 1 .269-.288c.112-.06.263-.093.475-.203.04-.02.233-.196.425-.283.139-.063.227.007.433-.12.034-.021.425-.374.563-.46.215-.135.632-.207.676-.228.219-.107.384-.206.528-.291.233-.145.378-.254.687-.338-.015-.155.172-.447.332-.671.224-.25.709-.895.44-1.056l.034-.067c.161-.383.093-.383.186-.928.09-.53.441-1.913.501-2.344q.012-.085.012-.14c.04-.354-.124-.192-.064-.42.163-.423.154-.154.316-.4a1.94 1.94 0 0 1 1.734-.759q.132.009.266.014l.053.25.092-.067c.111.016.236.032.339.05-.821-.471.837.144 1.35.225.346.055.894.026 1.346.028q.136-.003.252-.01c.094-.003.026.08.045.079.233-.021.264-.076.564-.109.156-.02.344.045.5-.006a2.66 2.66 0 0 0 1.098-.7c.614-.634 1.212-1.275 1.848-1.9.172-.17.413-.22.561-.36q.07-.065.121-.132c.188-.216.369-.41.687-.515.42-.152 1.015.062 1.253.166.256.103-.116-.236.328.05.187.146-.206-.01.026.154q.095.07.185.156c.424.397 1.025.857 1.37 1.333 0-.04-.01-.084-.017-.127.409.408.747.805 1.145 1.219q.088.093.19.178c.157.14.516.266.695.342.18.08.237.192.394.24.065.019.06-.065.102-.053.43.117.722.223 1.149.196q.161-.014.348-.044l3.09-.506c.89-.166 1.854.504 2.003 1.42l.535 2.723c.02.102.134.153.175.3.064.227-.024.254-.022.286q.006.07.019.103c.026.061.072.053.111.214.096.467.455 1.187.853 1.488q.252.207.533.343c.95.47 1.834.873 2.817 1.357.088.043-.028.12.12.201l.139.074c1.025.64 1.294 1.498.883 2.547-.106.23-.234.496-.406.828l-1.178 2.274c-.443.803-.404 1.854-.056 2.547l.1.211c.445.394.706 1.057.81 1.662a26 26 0 0 1-1.14-1.76c-.513-.83-.556-1.944-.105-2.851.498-1.025 1.027-2.05 1.559-3.114a1.51 1.51 0 0 0-.259-1.708 1.5 1.5 0 0 0-.391-.291 102 102 0 0 0-3.13-1.53 3.45 3.45 0 0 1-1.903-2.38 93 93 0 0 1-.702-3.412 1.17 1.17 0 0 0-.622-.832c-.269-.125-.42-.233-.673-.21a1 1 0 0 0-.1.017c-.05.012.097.091-.06.124-1.059.217-2.166.352-3.27.477-1.128.135-2.253-.3-3.027-1.027l-.083-.076c-.428-.39-.57-.374-.956-.708.1.025.18.026.273.043-.539-.6-1.098-1.18-1.668-1.752-.453-.478-1.3-.486-1.767-.008-.652.63-1.302 1.267-1.965 1.896-.078.073-.163.004-.246.079-.135.121-.207.298-.302.435a.5.5 0 0 1-.07.084c-.185.17-.273.127-.454.26-.09.06-.015.118-.235.226-.019.008-.07-.06-.207.019-.365.242-1.259.474-1.638.447q-.17-.001-.32-.035c-.32-.07-.562-.182-.698-.208-.482-.091-.49.043-.9-.015a106 106 0 0 1-1.848-.279c-.642-.119-1.332.353-1.449 1.016-.228 1.13-.46 2.26-.68 3.416-.093.49-.29.961-.582 1.374-.086.15-.444.76-.753.944-.05.033-.21.127-.374.201-.162.074-.32.146-.36.166-.336.164-.664.236-.855.316-.371.154-.7.488-.885.603-.278.171-.76.415-.986.529q-.063.032-.096.053c-.328.239-.358.04-.52.33-.033.09.107.066-.004.35-.073.243-.171.348-.175.544-.002.136.123.323.227.43a.5.5 0 0 1 .093.115c.217.495.23.754.484 1.284.127.266.562 1.098.912 1.75.224.41.315.793.343.86.292.8-.001-.572-.081-.631-.046-.151-.071-.24-.095-.311-.04-.12-.076-.186-.262-.393.166-.505-.934-1.442-.688-1.94-.4-.179-.414-.489-.51-.83l-.011-.04c-.058-.453-.143-.073-.184-.427-.017-.158.216-.502.328-.646.094-.142.102-.27.29-.401l.072-.043a4.7 4.7 0 0 1 1.309-.514q.067-.128.133-.255l.894-.278-.196-.056.228-.144c.242-.062.475-.124.718-.188q.086-.023.174-.051c.576-.712.484-.384.871-.706.36-.35.376-.688.533-1.015.166-.372.214-.597.278-.932q.02-.109.046-.239c.055-.276.287-.72-.018-.375.132-.869.274-2.064.506-2.821l.002-.007c.047-.132.067-.043.084.015.008.034.014.061.02.049l.015-.043c.045-.142-.001-.313.112-.453a1.01 1.01 0 0 1 .989-.329l.063.011c.376.061.917-.003.976-.006.349-.016.421.128.532.134.63.036.774 0 .931.305.177-.097.874-.203 1.013.018l.003.003c.03-.175.601-.085.946-.185q.106.069.22.13c.477-.3 1.261-.56 1.883-1.089.273-.226.54-.441.761-.638.018-.016-.047-.145.078-.222.008-.005.04.05.116-.011.246-.203 1.225-.934 1.326-1.03.18-.17.271-.29.342-.395a.6.6 0 0 1 .237-.239c.33-.141.405-.045.708.002.13.033.318-.014.497.16l.024.025c.116.126.061.207.153.307.326.354.623.557.843.943.292-.142.282.162.418.326.268.322.607.64.944.944.386.352.834.592 1.203.761.643.298 1.35.414 2.035.352 1.17-.098 2.307-.182 3.474-.3a.67.67 0 0 1 .559.231c.094.123.22.131.283.294q.019.065.031.148c.026.17-.053.363-.006.64.037.223.149.533.197.81.013.074-.088.099-.07.208.093.555.22 1.096.354 1.64q.109.46.317.887c.157.318.163.574.337.4.016.145.045.283.074.422.413.298.573.703 1.162 1.038.029.015.146.048.284.092.156.045.34.118.432.242.056-.067.056-.15.098-.214.234.086.522.351.665.438.142.087.293.042.337.064.17.087.062.195.074.204.72.54.673.428 1.25.486.053.005.185.085.343.18.245.14.4.435.533.495-.063.032-.136.017-.202.036.07.191.067.4.001.58.076-.021.153-.063.225-.102a2 2 0 0 1-.11.352c-.145.35-.219.694-.37.994-.118.235-.239.14-.277.293-.008.03.106.029.074.113-.262.685-.498.925-.838 1.573q-.044.087-.073.177c-.089.273-.093.554-.27.93-.024.032-.26.538-.005.838-.07.099-.1.189-.154.27.446.558.04.444.298 1.275l.007.017c.147.398.825 1.647 1.06 2.043.14.236.261.171.288.213.156.248.037.306.175.54.045.075.106.153.172.231.13.145.24.359.22.551-.034.215-.158.029-.18.32-.014.06.2-.056.004.223-.02.072-.48.326-.58.306.086-.092.233-.267.291-.466a.9.9 0 0 0 .015-.486.8.8 0 0 0-.127-.274 71 71 0 0 1-1.764-3.013c-.605-1.075-.72-2.571-.122-3.846.466-1.037.957-2.102 1.455-3.165a.24.24 0 0 0-.12-.312 355 355 0 0 1-3.085-1.616c-1.308-.678-2.154-1.993-2.35-3.252-.12-.717-.23-1.388-.328-1.999-.083-.51 0-.869-.046-1.204-.04-.288-.105-.102-.149-.24a.1.1 0 0 1-.008-.025c-.007-.072.035-.182-.04-.253a.42.42 0 0 0-.31-.103q-1.733.193-3.46.4a4.3 4.3 0 0 1-1.603-.1c-.565-.148-1.049-.262-1.501-.579-.173-.126-.091-.24-.204-.332a5 5 0 0 1-.209-.185c-.867-.808-1.741-1.508-2.59-2.33a1 1 0 0 0-.063-.053c-.144-.12-.444-.23-.663-.043l-.044.04c-.333.31-.616.694-.909.979-.158.155-.315.16-.379.21-.22.175-.06.2-.163.298-.283.274-.531.299-.788.564-.1.104-.018.162-.159.319l-.035.037c-.172.167-.161.051-.32.181-.01.008.069.036-.023.112-.58.5-1.507.915-2.266.95a3.9 3.9 0 0 1-.931-.05c-1.013-.184-2.001-.415-2.954-.572-.301-.049-.234.054-.33.045a3 3 0 0 1-.155-.02c-.16-.022-.291-.088-.46.07-.037.035-.049.22-.111.328q-.021.031-.052.069c-.05.11-.109.218-.138.31-.043.139.069.181.039.352-.054.31-.118.205-.182.651-.025.18-.02.795-.11 1.253-.052.27-.12.562-.193.866a4.7 4.7 0 0 1-.873 1.809c-.217.281-.458.716-.94 1.037a4 4 0 0 1-.36.212c-.533.276-1.264.643-1.7.873-.272.143-.35.042-.385.054-.223.08-.074.16-.215.228-.194.094-.42.097-.597.183-.112.054-.08.155-.104.168l-.109.063a.56.56 0 0 0-.219.732q.194.392.4.803.581 1.153 1.165 2.307a4.32 4.32 0 0 1 .043 3.786q-.74 1.576-1.489 3.148a.395.395 0 0 0 .181.52q1.546.809 3.077 1.63c.505.27.959.642 1.32 1.088.336.438.23.53.465.934.196.361.54.716.43 1.112a.6.6 0 0 1-.06.115c.063 0 .107-.01.165-.01.053.815.284 1.599.432 2.378.062.325.114.63.164.93a.35.35 0 0 0 .081.184c.087.09.076.196.218.079q.039.01.084.01c1.153-.118 2.308-.267 3.46-.397q.31-.037.619-.028c.782.02 1.552.27 2.176.702.338.053.61.242.85.502.159.176.317.382.52.6.056.06.053-.062.223.113.213.219.236.423.612.776.095.09.861.645 1.114.966l.01.02c.056.164.315.288.54.27a1 1 0 0 1-.13-.135.5.5 0 0 0 .197-.123q.076.069.163.127v-.023l.1-.342c.417.079.158.172.489-.27.165-.22.363-.327.54-.547.064-.08.04-.198.11-.285.174-.212.158 0 .278-.118.122-.12.19-.4.456-.562-.033.364.416-.12.455-.374q.016-.063-.003-.101c.095-.09.184-.156.294-.25.232.497.506-.188.735-.373.21-.186.263-.044.317-.074.16-.082.016-.09.134-.137.673-.259 1.382-.262 2.05-.142q.155.027.311.052c.1.015.023-.078.138-.054.115.025.216.121.389.14.046.005.07-.064.143-.054.838.12 1.65.255 2.47.39a.614.614 0 0 0 .714-.49l.03-.163c.025-.138-.082-.269-.03-.536.05-.267.235-.653.302-.984.018-.088-.082-.13-.059-.246.08-.397.225-.725.311-1.136q.037-.179.07-.362c.113-.67.384-1.361.86-1.864.109-.113.159-.04.327-.182.297-.235.112-.227.157-.294.16-.212.33-.124.504-.296.028-.026-.073-.082-.045-.102a1 1 0 0 1 .341-.157c.198-.041.342-.018.602-.257.45-.083-.173.3-.205.4-.078.243.447.2.73.125.244-.064.191-.16.278-.207.457-.242 1.128-.622 1.5-.76.226-.085-.133.158-.008.133.124-.025.154-.135.306-.113s.5.14.518.274m-31.251.853c.16-.002.35.028.56.083.919.17 1.896 1.468 1.963 2.445l.033.241c.128.93-.063 1.784.383 1.509-.108-.63-.224-1.179-.337-1.764a4.1 4.1 0 0 0-.373-1.09c-.038-.11-.393-.716-.574-.888-.093-.1-.04-.163-.183-.29-.032-.03-.275-.09-.34-.138-.088-.069-.239-.202-.41-.329-.242-.182-.494-.381-.555-.41-.279-.133-.233.033-.36-.01-.43-.142-.386-.331-.806-.485-.075-.027-.383-.006-.663-.178-.114-.07-.275-.252-.367-.296a8 8 0 0 0-.371-.166c-.364-.133-.665-.528-.65-.904.038-.395.17-.256.241-.42l.02-.04c.085-.192.077-.459.131-.587.094-.223.298-.45.33-.518.337-.72.635-1.408.931-2.09.26-.597.358-1.251.286-1.904a3.5 3.5 0 0 1-.453 1.822l-.477.843c-.123.548-.114.25-.308.555-.154.241.015.4-.171.725-.096.167-.417.475-.54.872-.003.01.036.05.021.16a2 2 0 0 1-.052.226c-.143.439.096 1.128.63 1.374.279.141.55.283.785.418.198.113.1.198.332.337.169.102.422.11.683.277.326.21.4.466.76.355-.026.094-.079.17-.1.265m15.164 9.8c.046-.03.775-.322.4-.4q-.284.207-.556.442c-.442.404-1.202.407-1.607-.037q-.171-.18-.336-.363c.013.177.094.333.218.485.22.275.697.427 1.156.312h.001c.036-.01-.1.107.105.043.087-.027.323-.212.507-.394a1 1 0 0 1 .112-.089"/><path fill="#a9a9a6" d="M29.005 12.621a1.18 1.18 0 0 0-1.672 0L11.727 28.228A1.182 1.182 0 1 0 13.4 29.9l15.606-15.606a1.18 1.18 0 0 0 0-1.673"/><path fill="#a9a9a6" d="M28.385 13.24c-.144.015-.17.064-.234.018-.015-.01-.027-.09-.038-.102-.022-.021-.022.072-.023.072-.015.007-.063-.129-.068-.133-.065-.035.016.108.002.135a.1.1 0 0 1-.043.04c-.078.07-.164.141-.243.214-.052.047-.107-.053-.207.06-.071.08-.214.4-.415.413-.037-.035-.062-.088-.094-.13-.004.3-.065.35-.318.53-.04.028-.011.122-.094.16-.083.037-.18-.054-.3.068-.043.044-.002.136-.066.205-.179.197-.62.472-.776.623-.31.298-.361.576-.67.806-.024.018-.05-.1-.09-.063s.016.173.01.185c-.078.126-.422.213-.463.285-.1.176.078.083-.095.292-.164.199-.54.325-.745.48-.238.18-.123.43-.47.397-.541.564-1.089 1.125-1.632 1.688l-.109-.12-.053.21-.064-.104c-.097.314-.224.554-.494.764-.005.004-.068-.084-.074-.082-.068.04-.07.158-.132.192-.147.082-.507.112-.22.228-.31.226-.555.609-.85.825-.127.093-.28.007-.34.053-.059.046.07.122.056.144-.09.136-.28.317-.414.221l.07.209c-.115-.141-.41.26-.504.348-.018.016-.076-.038-.088-.025-.133.148-.08.27-.17.419-.032.052-.066-.112-.131.039-.006.013.087.097-.042.225-.208.206-.567.636-.857.838-.023.016-.058-.141-.128-.027-.025.041.06.094-.021.175-.31.316-.723.572-.978.957-.065-.09-.038-.29-.16-.07-.02.035.07.084.06.099-.08.119-.215.156-.296.29-.024.04.022.102-.004.154-.04.078-.143.026-.178.127-.055.158.002.248-.273.236-.738.756-1.44 1.54-2.248 2.22-.157.23-.296.452-.475.669l-.022.036c-.019.033-.14-.04-.14.052-.005.028.104.159-.171.117.015.044.012.068.024.102a.7.7 0 0 1 .132-.05c-.066.11.047.213.118.267.054.041-.073.05-.044.083.032.034.056.024-.018.163.067-.028.09-.032.104-.019.018.018.012.07.053.101.009.007.084-.02.114.006.022.019-.004.121.056.121.014.004.139-.106.161-.121.04-.017.138.1.153.096.167-.03.121-.157.346-.088h.013c-.06-.122.014-.302.126-.396.14-.119.587-.194.426-.425.238-.064.168-.101.344-.281.16-.164.665-.519.786-.661s-.052-.187-.014-.254c.061-.11.095.017.153-.043.162-.168.29-.328.413-.52l.196.143-.032-.081c.034-.034.071-.073.104-.103-.513.018.275-.238.438-.388.137-.127.24-.464.36-.635.028-.041.065.044.071.035.067-.102.039-.157.159-.265.063-.057.201-.043.261-.1.442-.421.783-.915 1.203-1.352.072-.075.228-.044.291-.104.091-.085.07-.216.151-.3s.29-.11.332-.18-.141-.062-.015-.14c.058-.036.041.113.1.057.188-.174.361-.51.632-.624q-.042-.015-.086-.026c.212-.197.44-.33.658-.535.077-.071.152-.262.225-.335.073-.072.169-.042.229-.099.025-.023-.04-.07-.024-.085.216-.185.426-.195.625-.417.728-.811 1.485-1.64 2.23-2.46.03-.033-.023-.127.012-.184.054-.088.123-.026.134-.034.076-.047-.009-.082.074-.164.182-.183.529-.423.706-.61.407-.428.702-.837 1.083-1.276.028-.032.094.075.147.025.37-.352.364-.512.837-.938.473-.427 1.375-1.223 1.913-1.738a.5.5 0 0 1 .125-.334c.03-.045.106-.046.224-.07a.44.44 0 0 1-.01.284c-.658 1.162-1.685 1.911-2.65 2.904-1.136 1.169-2.077 2.685-3.284 3.813-.114.106-.25.06-.323.17-.012.02.099.05.058.105-.565.756-1.43 1.3-2.034 1.993-.162.187-.111.293-.245.467-.01-.064-.031-.12-.045-.181-.818.586-1.47 1.34-2.197 2.035-.033.031-.114-.041-.15-.01-.074.06-.054.21-.11.271-.072.08-.147.033-.214.108-.032.037.037.085-.048.15-.007.005-.073-.052-.115.006-.115.159-.343.49-.44.619-.126.164-.335.187-.395.236-.164.131-.066.223-.191.349-.89.891-1.85 1.634-2.761 2.547-.039.038-.098.192-.166.32a.4.4 0 0 1-.114.143c-.039.034-.28.113-.317.114-.15.038-.285-.044-.355-.062l-.003-.001c-.133-.031-.319.063-.41.04-.131-.024-.309-.162-.372-.24l-.027-.031c-.096-.125.079-.19-.008-.246-.025-.019-.126.081-.18-.023-.041-.09.043-.16.045-.22 0-.056-.17-.147-.167-.194.016-.222.133-.297.218-.484.026-.054.082-.179.186-.299.232-.264.51-.596.53-.65.137-.37-.233.105-.261.125-.151.106-.177.042-.22.256-.11-.043-.187-.005-.252.066-.193.204-.121.552-.443.59.248.228.097.305.058.498-.037.255.094.043.137.202.015.057-.024.297.059.378.069.07.162.052.247.11q.015.009.03.022c.177.148.31.27.49.446q.077-.064.141-.136a1.2 1.2 0 0 0 .429.17 2 2 0 0 1-.089-.13q.06-.017.115-.039c.143.042.297.056.47.04.12-.256.141-.29.212-.295.048-.002.107.016.179-.034.165-.114.134-.307.241-.416.145-.146.197-.226.352-.365.09-.08.341-.117.052-.17.252-.278.567-.689.873-.857.09-.05.051.098.07.093.09-.028.054-.166.127-.214.123-.081.39-.212.486-.276.138-.093.207-.387.217-.414.058-.15.18-.083.206-.123.152-.227.155-.309.413-.17-.037-.135.025-.485.219-.39-.13-.132.063-.28.136-.418l.172.054c-.014-.452.592-.72.908-.98.008-.007-.077-.118-.011-.139.004-.001.044.047.078.024.115-.078.59-.335.633-.376.159-.151.113-.25.2-.352.116-.133.2-.086.308-.213.051-.06.015-.197.115-.272.058-.044.131.019.178-.017.165-.125.229-.275.446-.315-.182-.25.038-.152.119-.2.325-.193.557-.607.799-.81.756-.632 1.504-1.114 2.212-1.762.115-.105.033-.24.155-.349.055-.048.187-.023.273-.107.07-.067.128-.205.213-.29.023-.022.098.05.132.016.258-.248.452-.547.672-.839.08-.108.237-.069.051-.222.078.005.15.006.224.013.024-.237.242-.232.39-.435.016-.023.032-.273.192-.264-.055-.066-.118-.105-.17-.162.05-.098.235-.142.293-.186.057-.043.012-.155.026-.17.056-.06.146.056.152.054.367-.17.284-.197.291-.513.002-.08.39-.242.324-.42.052.048.08.107.124.159l.288-.21c-.066-.03-.135-.058-.199-.09.211-.128.24-.382.382-.517.081-.077.177.039.2-.03.005-.014-.082-.07-.06-.103.174-.267.346-.288.58-.495.111-.097.072-.317.306-.38.021-.005.282-.036.207-.291.08.024.133.026.199.048-.064-.427.127-.136.43-.326.07-.043.183-.16.299-.29.188-.2.286-.482.3-.611.019-.14-.121-.164-.121-.187-.01-.13.121-.119.101-.25-.022-.134-.196-.254-.22-.362-.021-.086.16-.082.048-.19-.025-.02-.11.112-.13-.035a2 2 0 0 0-.044-.366c.166.016.505.343.574.517.243.44.26 1.187-.225 1.767-1.434 1.94-3.886 4.382-5.338 5.743-.16.151-.365.152-.475.245-.111.093.068.1-.032.185s-.233.086-.326.167c-.622.544-1.25 1.09-1.847 1.651-.154.145-.199.341-.335.477-.053.054-.152-.042-.19-.004-.398.415-.68.885-1.097 1.278-.172.163-.436.262-.61.421-.144.13-.23.329-.352.453-.066.068-.175.03-.206.047-.103.065.017.127-.026.17-.12.118-.288.068-.39.188-.041.047.034.111-.018.185-.067.095-.102 0-.162.056-.003.003.058.041.03.074-.184.21-.39.494-.582.68-.399.384-.881.675-1.265 1.02-.097.088-.007.13-.033.162-.127.155-.255.128-.374.303-.02.03-.029.218-.146.29-.063.038-.177.04-.234.07-.056.03.02.12-.033.172-.094.096-.124.01-.25.157-.05.059-.155.32-.302.455-.24.22-.597.434-.87.704-.056.057-.092.156-.143.257a.9.9 0 0 1-.245.256c-.232.171-.685.328-1.072.31a2 2 0 0 1-.405-.051c-.204-.05-.172-.182-.192-.193-.124-.086-.123.066-.216.016-.129-.071-.181-.23-.27-.311-.056-.052-.134.015-.148.004l-.062-.054c-.466-.426-.647-1.057-.527-1.682.067-.35.241-.684.49-.941 1.41-1.501 2.802-3.039 4.29-4.45.139-.132.236-.044.34-.177s.02-.447.337-.325c-.041-.047-.073-.079-.11-.122.307-.183.488-.492.72-.74.17-.184.335-.334.504-.493.15-.14.215-.05.24-.277.687-.562 1.304-1.21 2.029-1.724-.02-.31.223-.345.448-.522.028-.022-.059-.055.02-.124.099-.086.239-.042.39-.202.04-.043.242-.45.407-.511.166-.06.36-.193.528-.26-.057-.023-.116-.04-.173-.06l.155-.197.169.118-.034-.238c.318.17.163.167.265-.06.052-.113.16-.136.22-.245.021-.04-.031-.131-.007-.174.06-.105.111.043.162-.009.05-.052.015-.234.155-.278.099.29.312-.05.175-.214.032-.034.066-.055.099-.096.347.415.25-.028.266-.149.016-.12.116-.015.128-.035.035-.058-.041-.067-.01-.1.206-.223.47-.363.688-.569.03-.03-.054-.06-.013-.09s.133-.007.181-.063c.014-.015-.033-.07-.01-.093.462-.457.942-.851 1.418-1.314.043-.042-.014-.165.07-.244.086-.08.292-.122.4-.218.03-.025-.039-.108 0-.142.128-.115.294-.159.431-.275.231-.198.41-.468.671-.64.05-.034.106.036.183-.006.124-.068.019-.118.011-.152q0-.003.002-.008c.063-.137.206-.032.281-.14.013-.016-.068-.084-.053-.096.246-.17.345.046.58-.154.27.081-.118.214-.116.305-.008.193.26.311.353.37.087.047.076-.06.112-.063.182-.017.467.056.549.182.048.07-.094.031-.08.084.01.049.08-.004.053.09-.022.098-.173.325-.272.407M15.712 24.643c-.069-.548.6-1.151.97-1.463.308-.259.789-.266.386-.551-.308.304-.52.586-.855.899-.035.032-.268.201-.343.265-.042.036-.1-.02-.153.035-.012.012-.002.15-.028.172-.087.074-.441.2-.472.238-.083.102.041.155.017.211-.082.188-.23.07-.32.247-.016.032.02.227-.094.31-.047.035-.175.043-.203.077-.153.183-.261.45-.428.59-.137.116-.192-.007-.27.047-.08.055-.056.24-.096.291-.064.082-.21.112-.233.136-.428.463-.757.928-1.163 1.383.333-.252.663-.506.995-.754.073-.257.077-.089.214-.168.11-.063-.026-.24.104-.336.067-.049.301-.067.38-.236.003-.006-.068-.098.022-.194.203-.215.48-.576.732-.793.074-.064.146.035.238-.036.067-.051.057-.2.167-.274.14-.095.331-.015.223-.284.074.061.136.13.21.188m6.281-6.61c.024-.009.454-.018.164-.178-.392.198-.663.565-1.028.82.328.117.42-.15.621-.384.01-.011.025.09.073.021.023-.033.043-.231.17-.28M15.637 10.62a4.34 4.34 0 0 0-4.335 4.335 4.34 4.34 0 0 0 4.335 4.335 4.34 4.34 0 0 0 4.335-4.335 4.34 4.34 0 0 0-4.335-4.335m0 6.306a1.973 1.973 0 0 1-1.97-1.971c0-1.087.883-1.97 1.97-1.97s1.97.883 1.97 1.97-.883 1.97-1.97 1.97"/><path fill="#a9a9a6" d="M15.636 11.496c-.145.107-.274.16-.422.132-.034-.006-.042-.088-.058-.1-.028-.02-.057.074-.063.075-.035.007-.045-.137-.051-.142-.067-.048-.022.111-.07.136-.064.034-.155.025-.238.039-.029.005-.046-.105-.106-.078-.044.02-.133.18-.24.079-.017-.047-.03-.102-.044-.152-.016.23-.044.231-.187.24-.023.001-.003.088-.05.075-.046-.013-.108-.132-.175-.095-.024.014.006.104-.027.127-.095.064-.345.087-.427.144-.162.11-.136.298-.295.37-.012.005-.061-.09-.08-.074-.02.015.057.13.055.137-.02.067-.243.038-.252.081-.017.101.083.077.026.183-.052.098-.286.114-.381.193-.11.091.09.259-.193.21-.166.32-.29.66-.36 1.009l-.155-.041.088.11-.113-.039c.12.168.18.29.122.438-.002.003-.107-.017-.11-.014-.024.034.054.08.032.11-.052.069-.29.192-.003.146a.4.4 0 0 0-.023.16c.004.134.048.267.022.387-.017.074-.181.117-.186.155-.004.037.137-.001.144.01.042.07.058.19-.098.235l.202.006c-.18.029-.053.243-.038.301.002.01-.073.035-.07.043.038.09.163.073.228.134.023.021-.123.027-.042.075.008.004.123-.042.153.035.047.126.2.332.227.498.002.014-.136.047-.078.084.021.014.099-.045.127 0 .107.168.151.416.36.514-.087.067-.232.088-.103.13.02.007.085-.068.093-.064.064.03.052.12.13.144.022.007.08-.043.11-.038.046.007-.018.097.047.094.1-.006.174-.079.105.13.383.311.824.498 1.253.737.153-.01.291-.039.434-.03.041.002.022.14.098.108.018-.007.145-.137.12.143.034-.02.054-.018.082-.03l-.042-.13c.102.06.202-.03.298-.072.07-.03.015.088.058.078s.063-.037.116.108c.019-.068.034-.088.051-.088.025 0 .054.04.1.042.01 0 .056-.066.097-.055.03.008.045.11.091.091.009-.003.095-.14.124-.154.045-.024.14.097.15.097.143 0 .164-.138.31.05-.008-.13.051-.22.117-.226.08-.005.329.188.257-.081.132.082.097.014.201-.031.094-.04.391-.071.459-.131.067-.057-.049-.168-.031-.202.027-.057.063.055.093.033a.6.6 0 0 0 .2-.23l.158.182-.036-.074c.019-.012.037-.029.055-.04-.35-.171.143-.077.229-.149.07-.054.055-.273.088-.363.009-.022.062.047.064.043.018-.057-.02-.102.032-.15.028-.026.136.013.161-.016.188-.21.24-.497.346-.74.018-.042.154-.022.174-.057.027-.051-.059-.126-.041-.174s.165-.074.158-.116c-.006-.04-.144-.024-.09-.073.023-.023.095.057.11.022.046-.11-.022-.295.113-.39q-.043-.001-.082.001c.038-.124.124-.228.15-.364.01-.048-.064-.14-.06-.187.003-.046.093-.063.097-.1.001-.016-.078-.013-.076-.023a.4.4 0 0 1 .065-.132c.044-.064.092-.126.078-.21a3.9 3.9 0 0 0-.54-1.428c-.01-.017-.11.018-.136 0-.04-.028.039-.073.039-.08 0-.043-.068.01-.092-.034-.054-.097-.09-.293-.164-.382-.168-.206-.376-.317-.586-.456-.015-.01.077-.092.054-.115-.164-.16-.271-.099-.48-.28-.206-.187-.661-.484-.985-.58v-.002c-.16.191-.262.11-.346-.077.772-.435 1.42.114 1.984.576.607.472 1.476 1.054 1.653 1.96.016.082-.103.143-.062.204.007.01.098-.04.116-.007.141.278.128.606.088.91-.026.21-.062.408-.064.607-.002.133.103.173.108.296q-.072-.043-.147-.082c-.258.482-.376.98-.673 1.419-.014.02-.107-.036-.124-.018-.032.036.042.14.02.179-.027.05-.104.008-.129.052-.012.022.06.065.015.101-.004.003-.075-.047-.088-.011-.034.097-.11.3-.153.377-.053.099-.208.067-.242.088-.092.057 0 .154-.069.216-.502.443-1.135.615-1.756.788-.038.011-.152.194-.232.203-.027.004-.168-.01-.189-.01-.084 0-.166-.08-.212-.095-.089-.027-.173.12-.221.138a.7.7 0 0 1-.248.012l-.023-.002c-.086-.01-.054-.184-.114-.145-.018.011-.004.146-.068.143-.054-.003-.07-.105-.104-.126-.033-.02-.113.129-.136.122-.118-.034-.155-.142-.279-.169-.102-.014-.593-.072-.644-.058-.232.093.09.127.106.134.083.058.054.116.178.024 0 .386.41-.12.416.322.123-.278.165-.124.247-.057.111.091.036-.086.12-.08.033.001.125.14.178.122.047-.016.07-.1.123-.12l.02-.005c.12-.01.214.032.328.146q.022-.082.041-.166.112.077.231.149l-.052-.137.058-.027c.077.06.154.114.239.172.137-.306.128-.064.245-.055.116.007.135-.163.213-.187.106-.035.148-.07.257-.1.063-.016.223.082.048-.107.18-.092.387-.271.589-.278.06-.003.038.099.05.103.063.015.032-.111.08-.12.082-.016.263-.023.328-.043.095-.027.108-.241.11-.259.02-.1.122-.012.136-.036.077-.137.058-.198.285-.027-.052-.116-.087-.368.086-.256-.132-.128-.021-.2-.004-.29l.15.07c-.142-.338.234-.444.384-.622.004-.004-.11-.083-.066-.095.003-.001.055.033.073.018.06-.046.328-.23.343-.263.057-.11-.03-.17-.01-.241.024-.094.115-.074.135-.166.01-.044-.094-.12-.056-.178.021-.034.114-.01.13-.038.06-.102.023-.198.169-.269-.292-.095-.062-.09-.03-.136.136-.186.04-.462.078-.633l.065-.293c.095-.438.17-.887.073-1.352-.02-.092-.172-.068-.193-.16-.009-.042.081-.12.058-.189-.019-.055-.101-.11-.128-.176-.008-.017.087-.06.077-.086-.08-.201-.244-.356-.396-.511-.056-.057.034-.172-.162-.033.034-.056.061-.108.094-.164-.185-.006-.105-.168-.226-.263-.014-.01-.21.007-.157-.116-.068.051-.118.105-.18.153-.061-.024-.045-.157-.065-.194-.02-.036-.12.02-.128.011-.033-.03.08-.123.08-.127-.05-.253-.096-.186-.336-.112-.059.02-.118-.245-.262-.137.043-.056.092-.097.137-.147a5 5 0 0 0-.124-.167q-.043.095-.088.19c-.07-.129-.253-.06-.337-.121-.049-.035.037-.158-.011-.15-.01.002-.053.094-.075.09-.176-.03-.186-.157-.33-.252-.07-.045-.206.094-.26-.06-.004-.015-.051-.21-.198-.015.006-.077 0-.12.006-.184-.247.282-.095-.028-.261-.161-.087-.072-.435-.087-.548-.064-.068.013-.085.148-.097.152-.07.022-.053-.109-.119-.095-.066.015-.155.157-.215.14-.047-.014 0-.176-.075-.122-.015.012.02.152-.052.095-.01-.01-.128-.163-.155-.195.065-.088.264-.196.343-.225.66-.272 1.8-.153 2.729.443.944.576 1.588 1.562 1.831 2.288.048.136-.055.272-.038.36.017.09.117-.024.133.06.015.083-.057.167-.045.242a6 6 0 0 1 .04 1.527c-.01.127.088.24.076.359-.005.047-.142.033-.145.065-.03.343.026.695-.103 1.029-.054.138-.22.243-.287.367-.055.103-.037.248-.086.343-.026.052-.133.028-.15.042-.058.049.065.09.047.123-.053.089-.211.05-.25.135-.017.034.069.084.051.138-.023.068-.084-.005-.114.033-.002.003.061.035.049.058-.081.148-.17.35-.283.471-.234.252-.573.378-.83.542-.066.041.005.103-.012.121-.085.089-.183.023-.265.124-.013.017-.016.17-.104.186-.047.008-.13-.036-.17-.034s.01.107-.03.128c-.072.04-.088-.043-.184.022-.039.026-.134.195-.252.235-.191.066-.456.052-.678.109-.076.019-.148.16-.272.187-.15.034-.435.047-.59.056-.08.005-.094-.12-.104-.125-.062-.032-.03.107-.07.104-.057-.005-.112-.107-.162-.113-.031-.004-.035.1-.043.1l-.032.004c-.247.03-.469.005-.717-.019-1.381-.124-2.804-.86-3.554-2.093-.062-.102.046-.177-.025-.253-.07-.074-.368-.029-.135-.253-.056.027-.096.049-.148.073-.024-.233-.195-.39-.284-.588a2.3 2.3 0 0 1-.132-.427c-.03-.128.08-.142-.085-.217-.03-.408-.07-.81-.015-1.205q.03-.233.111-.452c-.221-.148-.06-.26.004-.424.008-.02-.08-.013-.061-.075.024-.08.16-.094.183-.225.005-.033-.064-.331.04-.403.1-.071.19-.188.293-.253q-.086-.01-.17-.016.014-.076.031-.153l.194.06-.14-.158c.342.087.21.1.192-.064-.008-.082.071-.104.074-.184.001-.028-.08-.092-.077-.124.008-.079.11.027.13-.01.021-.039-.078-.173.023-.205.19.214.237-.027.07-.157.015-.024.036-.04.05-.069.424.333.193-.002.172-.096-.022-.092.09-.002.095-.016.011-.04-.053-.055-.038-.078.106-.153.288-.224.418-.345.02-.018-.055-.06-.028-.075.027-.016.105.022.133-.013.007-.01-.04-.064-.026-.077.29-.27.627-.445.973-.635.031-.017-.007-.143.058-.173s.212.023.293-.005c.022-.008-.018-.107.011-.117.1-.036.217.009.321-.017.176-.042.337-.163.531-.149.037.003.054.09.107.103.09.022.03-.097.044-.117.043-.068.097.097.14.043.007-.009-.024-.106-.017-.11.113-.04.158.195.258.05.126.12-.044.193-.048.268-.011.182.131.37.198.428.059.05.045-.059.066-.062.11-.014.276-.046.361.005.052.03-.038.079-.01.114.025.036.04-.048.067.042s.078.357.068.485m-3.118 6.045c-.447.154-.705-.295-.78-.543-.072-.211.173-.506-.259-.276.092.221.223.37.34.59.012.023.059.178.084.227.014.028-.05.075-.025.11.006.007.12-.014.129.002.028.056.022.305.045.324.059.048.135-.055.173-.047.125.029-.006.164.112.2.021.006.18-.065.219.003.015.027-.004.125.016.138.112.074.293.08.373.166.066.07-.03.155.002.2.034.044.17-.04.202-.027.053.02.065.127.08.135.306.165.623.212.935.288a4 4 0 0 1-.513-.417c-.168.056-.057-.022-.103-.096-.036-.059-.164.123-.222.057-.03-.035-.02-.212-.13-.211-.003 0-.077.09-.135.051-.13-.084-.352-.195-.46-.337-.033-.041.06-.12.028-.172-.022-.038-.138.002-.166-.066-.035-.086.087-.24-.156-.113.07-.065.143-.123.21-.186m-.797-4.327c.015-.01.35-.023.045-.118-.221.14-.247.393-.388.595.324.013.243-.142.282-.302.001-.008.066.051.068.007 0-.021-.085-.145-.007-.182m3.915 4.588c-.118.106-.25.144-.37.082-.028-.014-.014-.095-.023-.11-.017-.027-.066.055-.071.054-.031-.004.005-.144.002-.15-.034-.065-.05.099-.097.106-.061.009-.128-.037-.193-.063-.023-.01.017-.112-.034-.117-.035-.003-.185.079-.186-.065.017-.048.043-.098.063-.145-.139.171-.166.151-.238.062-.012-.014-.062.058-.075.016-.012-.041.046-.16-.003-.184-.018-.009-.073.068-.102.056-.086-.032-.162-.22-.214-.265-.103-.086-.266-.014-.322-.142-.004-.01.081-.07.07-.084s-.119.073-.124.072c-.061-.01.002-.209-.03-.212-.082-.01-.085.077-.164.025-.076-.052-.007-.253-.021-.337-.016-.097-.254.008-.057-.189a2.5 2.5 0 0 1-.305-.66l.157-.036-.12-.03.118-.017c-.168-.05-.262-.124-.232-.235 0-.003.108-.009.11-.01.018-.026-.066-.043-.049-.066.042-.055.272-.144-.011-.097a.2.2 0 0 0 .017-.106c-.004-.087-.036-.181.011-.255.029-.046.198-.038.21-.057.013-.02-.132-.03-.136-.038-.026-.051-.005-.13.156-.105l-.186-.068c.174.042.134-.111.15-.148.003-.006.08.016.08.01.006-.055-.107-.107-.129-.17-.007-.022.114.051.073-.012-.003-.005-.122-.047-.1-.1.033-.083.065-.266.174-.328.009-.005.114.085.106.036-.003-.018-.09-.062-.072-.092.07-.122.242-.168.262-.331.078.076.141.19.135.093-.001-.016-.08-.074-.079-.08.008-.051.083-.03.088-.089.002-.017-.05-.074-.05-.099 0-.038.083.033.073-.02-.017-.085-.077-.17.1-.055.232-.218.505-.44.842-.458.07-.085.138-.172.234-.216.028-.012.061.122.098.069.007-.012.06-.172.112.104.016-.026.028-.029.043-.046l-.056-.118c.08.034.13-.07.198-.121.05-.037.02.085.05.071.03-.013.045-.04.084.103.011-.069.022-.09.034-.09.018 0 .037.042.069.045.005 0 .042-.062.07-.048.02.01.02.114.052.1.005-.002.084-.124.11-.133.037-.014.073.125.079.128.087.037.153-.083.17.142.04-.122.115-.181.157-.157.057.032.076.315.184.06.021.14.04.065.115.093.07.026.19.205.243.22.057.016.112-.13.143-.135.052-.009-.026.077-.003.09.065.035.13.053.218.057l-.135.199.057-.057c.011.01.025.018.034.028.122-.35.078.093.113.142.036.042.221-.009.294.018.017.006-.054.056-.05.057.044.011.092-.023.12.022.015.025-.05.115-.036.136.106.156.298.254.397.43.017.03-.09.11-.082.136.012.036.12.017.136.051.016.035-.086.13-.06.146.026.017.13-.065.113-.01-.008.025-.108.02-.102.045.016.075.159.158.067.266l.075-.03c.01.093-.043.183-.042.275 0 .032.087.082.089.115s-.086.053-.088.077c0 .01.079.004.077.01-.007.036-.033.065-.061.092-.044.042-.094.079-.087.132a2.4 2.4 0 0 1-.103 1.02c-.004.014.084.07.088.095.005.041-.076 0-.081.002-.031.015.049.045.03.079-.042.076-.178.15-.221.219-.1.162-.147.337-.264.501-.008.012-.084-.084-.102-.07-.132.098-.087.215-.283.308-.194.096-.58.194-.814.233-.013.238-.139.209-.246.053.325-.627.688-.532 1.034-.839.352-.334.232-.928.368-1.254.014-.033.143-.018.123-.056-.003-.006-.103-.014-.11-.031-.053-.141.008-.258.047-.392.026-.09.041-.184.004-.267-.025-.055-.136-.045-.173-.085q.08-.004.16-.01c.117-.266-.047-.493-.156-.71-.005-.01.086-.07.083-.082-.006-.026-.12.02-.134.005-.02-.019.049-.072.029-.09-.01-.008-.075.043-.08.014 0-.003.07-.056.05-.064-.056-.022-.176-.05-.218-.062-.053-.017.011-.138.002-.158-.023-.054-.114.045-.145.016-.223-.197-.421-.485-.755-.577-.022-.007-.13.12-.164.108-.011-.005-.068-.056-.077-.06-.037-.019-.06-.113-.082-.134-.042-.042-.103.095-.127.107-.035.02-.092.008-.119.002l-.01-.002c-.042-.009-.032-.183-.063-.142-.009.013.005.146-.025.147-.026.001-.043-.099-.063-.115-.02-.017-.04.141-.05.139-.06-.016-.099-.114-.166-.108-.057.002-.281.137-.285.18-.028.184.083.068.093.072.05.018.06.08.07-.047.12.35.136-.24.242.19-.01-.295.045-.153.084-.098.055.077.003-.09.04-.094.016-.002.064.13.083.11.018-.017.026-.101.05-.122l.009-.005c.053-.01.096.04.128.165l.037-.16q.038.09.069.183l.004-.143.03-.016c.019.075.035.144.048.221.13-.252.062-.024.093.02.03.043.096-.102.13-.092.044.012.071 0 .111.028.024.016.008.174.064-.064.088.014.234.012.253.138.006.036-.06.086-.06.096-.008.048.07-.05.077-.024.014.043.01.157.016.189.007.045.148-.047.162-.051.067-.029-.011.079.002.078.08-.002.13-.03-.05.185.092-.08.285-.175.149-.023.133-.127.149-.064.206-.068l-.108.119c.299-.158.206.118.214.21 0 .003.12-.064.101-.035-.002.002-.055.032-.058.044-.004.042-.09.212-.088.222.014.043.11.01.131.033.027.031-.058.07-.033.098.011.013.132-.012.124.02-.004.02-.096.05-.1.063-.014.049.053.066-.06.131.3-.06.085.01.066.033-.077.09.062.162.038.233a.6.6 0 0 1-.052.109c-.096.159-.247.266-.316.382-.013.023.131.074.112.1-.009.013-.118-.011-.126.007-.007.015.036.058.027.078-.002.005-.098-.035-.101-.028-.03.05.01.135.02.218.004.03-.12-.03.085.094-.055-.023-.104-.043-.157-.068.108.112-.038.046-.033.103.002.006.11.137.003.077.065.056.123.1.183.15.01.038-.087 0-.104.003-.017.004.058.086.055.09-.01.016-.113-.088-.116-.088-.153-.043-.087 0 .026.194.027.051-.14-.016-.043.128-.046-.054-.081-.105-.123-.158h-.089l.136.152c-.076-.016-.02.14-.062.16-.024.012-.1-.116-.096-.08.001.006.059.09.055.101-.028.094-.11.017-.18.03-.032.005.016.186-.078.094-.01-.008-.11-.143-.054.085-.035-.065-.056-.1-.083-.155.06.346-.04.022-.13-.036-.046-.03-.151.057-.19.099-.02.026 0 .161-.005.167-.024.035-.041-.096-.064-.072s-.044.177-.074.165c-.023-.009-.016-.174-.043-.115-.006.012.02.151-.017.098a2 2 0 0 1-.07-.191c.027-.087.09-.204.111-.241.382-.629.625-.902.818-1.163.016-.02.157.011.176-.005.018-.015-.112-.04-.096-.053.015-.012.108.002.12-.013a.8.8 0 0 0 .18-.355c.004-.035-.104-.054-.107-.081-.001-.01.136-.027.134-.036-.023-.095-.171-.144-.182-.226-.004-.034.09-.114.084-.155-.005-.033-.09-.028-.105-.05-.007-.013.08-.07.085-.08.014-.03-.094.04-.099.03-.012-.022.112-.115.087-.132-.01-.006-.092.049-.113.045-.026-.004.053-.05.048-.063 0 0-.057.042-.063.038-.041-.027-.118-.034-.14-.067-.047-.068-.02-.228-.076-.306-.015-.019-.065.059-.073.058-.038-.001.015-.099-.037-.086-.009.002-.096.098-.096.06 0-.02.028-.096.028-.117s-.058.08-.069.074c-.018-.01.025-.079-.01-.08-.015-.001-.099.082-.122.063-.04-.032-.067-.15-.13-.168-.022-.006-.076.104-.106.1-.037-.007-.103-.044-.143-.048-.02-.003-.014-.128-.016-.134-.015-.036-.016.105-.027.099-.014-.008-.025-.113-.04-.12-.01-.004-.011.1-.013.1l-.009.004c-.066.03-.123.026-.185.045-.357.117-.556.411-.777.634-.019.02-.13-.05-.126-.017.002.036.24.19-.044.06l.144.078c-.101.002-.04.088-.044.133-.004.034-.023.059-.038.087-.013.024-.12-.004.014.053-.082.068-.1.158-.154.25a.7.7 0 0 1-.086.12c.236.008.092.047.065.098-.003.006.08-.014.075.001-.005.02-.131.057-.116.09.005.01.16.032.098.076-.064.046-.092.096-.147.15l.149-.074.04.024-.183.086q.092-.027.185-.057c-.307.16-.211.098-.116.095.048-.002.001.04.042.041.015 0 .106-.045.12-.045.037 0-.09.06-.084.07.008.01.148-.056.1-.003-.246.126-.13.139.046.02.005.005 0 .015.01.018-.446.302-.106.12-.04.085.068-.032-.047.056-.04.055.02 0 .062-.044.068-.04.039.03.003.123.034.166.004.006.058-.056.058-.045s-.052.075-.038.08c.003.002.053-.05.057-.046.074.074.12.185.214.25.009.007.078-.1.092-.088s-.014.128.005.147c.005.005.052-.09.058-.085.02.02.009.11.033.134.041.042.111-.004.146.07.007.014-.017.1-.007.128.017.048.036-.08.045-.096.028-.05-.003.118.024.079.004-.006.02-.107.023-.108.035-.012-.002.225.057.104.016.141-.05.18-.07.25a.96.96 0 0 0-.008.456c.02.061.034-.049.045-.047.059.007.146-.009.189.045.026.032-.025.076-.012.113s.024-.046.038.045c.012.091.046.358.04.486m-1.732-4.284c.274.348.137.468.047.553-.072.062-.415.014.04.185.04-.084.033-.176.099-.256.007-.008.079-.036.097-.048.01-.008.077.038.085.025.001-.002-.072-.08-.065-.084.023-.016.192.03.194.021.007-.028-.094-.102-.104-.126-.028-.082.114.041.096-.029-.003-.012-.102-.144-.064-.152.016-.003.09.044.094.034.022-.05-.003-.175.05-.192.041-.013.108.095.134.096s-.038-.132-.03-.147c.012-.025.082.03.087.024.103-.094.176-.238.303-.322a2 2 0 0 0-.352-.027c.01.143-.022.021-.078.007-.045-.011.064.181.019.181-.023 0-.148-.102-.148-.023 0 .003.064.099.04.12-.053.05-.096.164-.168.201-.021.011-.103-.078-.134-.067-.023.008.04.102.001.108-.05.008-.21-.099-.025.094q-.11-.091-.218-.176m-.113 2.258c-.009.007-.242.209.034.05.08-.15-.02-.22.025-.34-.291.122-.152.153-.103.213.002.003-.08.02-.058.033.01.008.14-.006.102.044M25.096 23.231a4.34 4.34 0 0 0-4.335 4.336 4.34 4.34 0 0 0 4.335 4.335 4.34 4.34 0 0 0 4.335-4.335 4.34 4.34 0 0 0-4.335-4.336m0 6.306a1.973 1.973 0 0 1-1.97-1.97c0-1.087.883-1.971 1.97-1.971s1.97.884 1.97 1.97c0 1.087-.883 1.971-1.97 1.971"/><path fill="#a9a9a6" d="M25.095 24.108c-.145.106-.274.16-.422.132-.034-.007-.042-.088-.057-.1-.03-.02-.058.074-.064.075-.035.007-.045-.138-.051-.142-.067-.048-.022.11-.07.136-.064.033-.155.024-.238.038-.029.005-.046-.104-.106-.077-.044.019-.133.18-.24.078-.017-.047-.03-.102-.044-.152-.016.232-.044.232-.187.24-.023.002-.003.088-.05.075-.046-.012-.108-.131-.175-.094-.024.014.006.104-.027.127-.095.064-.345.087-.427.144-.162.11-.136.298-.295.369-.012.006-.061-.089-.08-.074-.02.016.057.131.055.138-.02.066-.244.037-.252.08-.017.102.083.078.026.183-.052.099-.286.114-.381.193-.11.092.09.26-.193.21-.166.32-.29.66-.36 1.01l-.155-.041.088.109-.114-.038c.122.168.181.29.122.438 0 .003-.106-.017-.11-.015-.023.034.055.081.033.11-.052.07-.29.192-.003.146a.4.4 0 0 0-.023.16c.004.134.048.268.022.388-.017.074-.181.117-.186.155s.137-.002.144.01c.042.07.059.189-.098.235l.202.006c-.18.028-.053.242-.038.3.002.012-.073.035-.07.043.038.09.163.074.228.134.023.021-.123.028-.042.075.008.004.123-.042.153.036.047.126.2.331.227.498.002.014-.136.047-.078.084.021.013.099-.045.127-.001.108.169.151.416.36.515-.087.066-.231.087-.103.13.02.007.085-.068.093-.065.064.03.052.12.13.145.022.007.08-.044.11-.039.046.007-.017.098.047.094.1-.005.174-.078.105.131.383.31.824.497 1.253.737.153-.01.291-.039.434-.03.041.002.022.14.098.107.018-.006.145-.136.12.143.034-.02.054-.017.082-.029l-.042-.13c.102.059.202-.031.298-.072.07-.03.015.087.059.077.043-.01.062-.036.115.109.019-.069.034-.089.051-.089.025 0 .054.041.1.043.01 0 .056-.066.097-.055.03.007.045.11.091.09.009-.002.096-.139.124-.154.045-.023.14.097.15.097.143.001.165-.137.31.051-.008-.13.051-.221.117-.227.08-.004.329.188.257-.081.132.083.097.015.201-.03.094-.04.391-.072.459-.132.067-.056-.049-.167-.031-.202.027-.057.063.055.093.034a.6.6 0 0 0 .2-.23l.158.181-.035-.073c.018-.013.036-.03.054-.04-.35-.172.143-.078.229-.15.07-.053.055-.272.088-.362.009-.022.062.047.064.042.018-.056-.02-.101.032-.15.028-.025.136.013.161-.015.188-.211.24-.497.346-.74.018-.042.154-.022.174-.058.027-.05-.059-.126-.041-.174s.165-.074.158-.115c-.006-.04-.144-.024-.09-.074.023-.023.095.057.11.023.046-.11-.022-.295.113-.391l-.082.002c.038-.124.124-.228.15-.364.01-.049-.064-.141-.06-.187.003-.046.093-.063.097-.101.001-.016-.078-.012-.076-.023a.4.4 0 0 1 .065-.131c.044-.064.092-.126.078-.211a3.9 3.9 0 0 0-.54-1.427c-.01-.017-.11.017-.136 0-.04-.028.039-.073.039-.08 0-.044-.068.01-.093-.034-.053-.098-.089-.293-.163-.383-.168-.205-.376-.317-.586-.455-.015-.01.077-.092.054-.115-.164-.16-.271-.1-.48-.281-.206-.186-.661-.483-.985-.58V24c-.16.19-.262.11-.346-.078.772-.435 1.42.114 1.984.576.607.473 1.476 1.054 1.653 1.96.016.082-.103.143-.062.204.007.01.098-.04.116-.007.141.278.128.607.088.912-.026.208-.062.407-.064.606-.002.132.103.172.108.296-.047-.031-.098-.055-.147-.082-.258.482-.376.98-.673 1.418-.014.02-.107-.035-.124-.017-.032.036.042.14.02.178-.027.05-.104.008-.129.053-.012.022.06.065.015.1-.004.004-.075-.046-.088-.01-.034.096-.11.3-.153.377-.053.098-.208.066-.242.087-.092.058 0 .154-.069.217-.502.443-1.135.615-1.756.788-.038.01-.152.193-.232.203-.027.004-.169-.01-.19-.011-.084 0-.165-.08-.21-.094-.09-.027-.174.12-.222.137a.7.7 0 0 1-.248.013l-.023-.003c-.086-.01-.054-.184-.114-.145-.018.012-.004.146-.068.144-.054-.003-.07-.106-.104-.126s-.113.128-.136.122c-.118-.035-.155-.143-.279-.17-.102-.013-.593-.072-.644-.058-.232.093.09.127.106.135.082.058.054.115.178.024 0 .385.41-.12.416.322.123-.278.165-.124.247-.057.111.091.036-.086.12-.081.033.002.125.14.178.123.047-.016.07-.1.123-.12l.02-.005c.12-.011.214.032.328.146q.022-.082.041-.166.112.077.231.148l-.052-.136.058-.028c.077.06.153.115.239.173.137-.306.128-.064.245-.055.117.007.135-.163.213-.188.106-.035.148-.07.257-.099.063-.017.223.082.048-.108.18-.092.387-.27.589-.278.06-.002.038.1.05.103.063.015.032-.11.08-.12.082-.015.263-.023.328-.042.095-.027.108-.242.11-.26.02-.1.122-.011.136-.035.077-.137.058-.198.285-.027-.052-.116-.087-.369.086-.256-.132-.128-.021-.2-.004-.291l.15.07c-.142-.337.234-.443.384-.621.004-.005-.11-.084-.066-.096.003 0 .055.034.073.019.06-.047.328-.23.343-.263.057-.11-.03-.171-.01-.242.024-.093.115-.073.135-.166.01-.043-.094-.12-.056-.177.021-.035.114-.01.13-.039.06-.102.023-.197.169-.268-.292-.095-.062-.09-.03-.137.136-.185.04-.462.078-.632l.065-.293c.095-.438.17-.888.073-1.352-.02-.092-.172-.068-.193-.16-.009-.043.081-.121.058-.19-.019-.054-.101-.11-.128-.175-.008-.018.087-.06.077-.087-.08-.2-.244-.355-.396-.51-.056-.058.034-.173-.162-.033.034-.057.061-.109.094-.165-.185-.006-.105-.167-.226-.262-.014-.011-.21.007-.157-.116-.069.05-.118.104-.18.152-.061-.024-.045-.156-.065-.193s-.12.019-.128.011c-.033-.03.08-.123.08-.127-.05-.253-.096-.186-.336-.113-.059.02-.118-.244-.262-.137.043-.056.092-.096.137-.146a4 4 0 0 0-.124-.167q-.043.095-.088.189c-.07-.128-.253-.06-.337-.12-.049-.036.037-.158-.011-.15-.01.002-.053.094-.075.09-.176-.03-.186-.158-.33-.253-.07-.044-.206.095-.26-.06-.004-.014-.051-.21-.198-.015.006-.076 0-.12.006-.184-.247.283-.095-.027-.261-.16-.087-.072-.435-.087-.548-.064-.068.012-.085.148-.097.152-.07.022-.053-.11-.119-.095s-.155.157-.215.14c-.047-.014 0-.176-.075-.123-.015.012.02.153-.052.096-.01-.01-.128-.163-.155-.195.065-.089.264-.196.343-.225.66-.273 1.8-.154 2.729.443.944.575 1.588 1.561 1.831 2.287.048.136-.055.273-.038.361.017.09.117-.024.133.059.015.083-.057.167-.045.243a6 6 0 0 1 .04 1.527c-.01.127.088.24.076.359-.005.046-.142.032-.145.064-.03.343.026.695-.103 1.03-.054.138-.22.243-.287.367-.055.103-.037.247-.086.343-.026.052-.133.028-.15.042-.058.049.065.09.047.122-.053.09-.211.051-.25.136-.017.033.069.083.051.137-.023.068-.084-.004-.114.034-.002.002.061.035.049.058-.081.148-.17.35-.283.47-.234.252-.573.379-.83.542-.066.042.006.103-.012.122-.085.088-.183.023-.265.124-.013.016-.017.17-.104.185-.047.008-.13-.035-.17-.034-.042.002.01.107-.03.129-.072.04-.088-.043-.184.022-.039.026-.134.194-.252.234-.191.066-.456.052-.678.11-.076.019-.148.16-.272.187-.15.033-.435.046-.59.055-.08.006-.095-.12-.104-.125-.062-.031-.03.108-.07.104-.057-.005-.112-.107-.161-.113-.032-.004-.037.1-.044.1l-.032.005c-.247.029-.469.005-.717-.02-1.382-.123-2.804-.859-3.554-2.092-.062-.103.046-.177-.025-.253-.07-.075-.368-.03-.135-.253-.056.027-.096.049-.148.073-.024-.233-.195-.39-.284-.588a2.3 2.3 0 0 1-.133-.427c-.028-.128.081-.143-.084-.218-.03-.407-.07-.81-.015-1.204q.03-.233.111-.453c-.221-.147-.06-.259.004-.424.008-.02-.08-.012-.061-.075.024-.079.16-.093.183-.224.004-.033-.064-.332.04-.404.1-.07.19-.187.293-.252q-.086-.01-.17-.017.014-.075.031-.152l.195.06-.14-.158c.34.087.21.1.191-.064-.008-.083.071-.104.074-.184.001-.029-.08-.093-.077-.125.008-.078.11.028.13-.01s-.078-.173.023-.205c.19.214.237-.026.07-.157.015-.024.036-.039.05-.068.424.332.193-.003.172-.097-.023-.091.09 0 .095-.015.011-.04-.053-.055-.038-.078.106-.153.288-.225.418-.346.02-.017-.055-.059-.028-.075.027-.015.105.022.133-.012.007-.01-.04-.064-.026-.077.29-.27.627-.446.973-.636.031-.017-.007-.142.058-.173.065-.03.212.024.293-.005.022-.007-.018-.106.011-.117.1-.035.217.01.321-.016.176-.043.337-.163.531-.15.037.003.053.09.107.103.09.023.03-.096.044-.117.043-.067.097.097.14.043.007-.008-.024-.106-.017-.109.113-.04.158.195.258.05.126.12-.044.192-.048.268-.011.182.13.369.198.428.059.05.044-.06.066-.062.11-.014.276-.046.361.005.052.03-.038.078-.01.114.025.035.04-.048.067.042s.078.357.068.485m-3.118 6.044c-.447.154-.705-.295-.78-.543-.072-.21.172-.505-.259-.275.092.22.223.369.34.59.012.022.059.178.084.227.014.028-.05.075-.025.11.006.007.12-.014.129.002.028.055.022.305.045.323.059.049.135-.055.173-.046.125.029-.006.164.112.199.021.006.18-.064.219.003.015.028-.004.125.016.139.112.074.293.08.373.165.066.07-.03.156.003.2.032.045.168-.038.201-.026.053.02.064.126.08.135.306.165.623.211.935.288a4 4 0 0 1-.513-.418c-.168.057-.057-.022-.103-.095-.036-.059-.164.122-.222.056-.03-.034-.02-.211-.13-.21-.003 0-.077.089-.135.05-.13-.083-.352-.194-.461-.336-.032-.042.06-.12.03-.173-.023-.037-.139.003-.167-.065-.035-.087.087-.24-.156-.114.07-.065.143-.122.21-.186m-.797-4.326c.015-.01.35-.023.045-.119-.221.14-.247.393-.388.596.324.013.243-.143.282-.303.001-.007.066.052.068.007 0-.02-.085-.144-.007-.181m3.915 4.587c-.118.107-.25.145-.37.083-.028-.014-.014-.096-.023-.11-.017-.027-.066.055-.071.054-.031-.004.005-.144.002-.15-.034-.066-.05.098-.097.105-.061.01-.128-.036-.193-.062-.023-.01.017-.112-.034-.118-.035-.003-.185.08-.187-.065.018-.047.044-.097.064-.145-.139.172-.166.152-.238.063-.012-.014-.062.057-.075.016-.012-.042.046-.161-.003-.185-.018-.008-.073.069-.102.057-.086-.033-.162-.221-.214-.265-.103-.086-.266-.014-.322-.142-.004-.01.081-.07.07-.084s-.119.072-.124.071c-.061-.01.002-.208-.03-.211-.082-.01-.085.076-.164.025-.076-.052-.007-.254-.021-.338-.016-.096-.254.008-.057-.188a2.5 2.5 0 0 1-.305-.66l.157-.036-.12-.03.118-.017c-.168-.05-.262-.124-.232-.236 0-.002.108-.008.11-.01.018-.025-.067-.043-.049-.065.042-.056.272-.144-.011-.097a.2.2 0 0 0 .017-.106c-.004-.087-.036-.181.011-.255.029-.046.198-.038.21-.057.013-.02-.132-.03-.137-.038-.025-.051-.004-.13.157-.105l-.186-.068c.174.042.134-.112.15-.148.003-.006.08.015.08.01.006-.056-.107-.107-.129-.17-.007-.022.114.05.073-.012-.003-.006-.122-.047-.1-.1.033-.083.065-.266.174-.329.009-.005.114.086.106.037-.003-.018-.09-.062-.072-.093.07-.121.242-.168.261-.33.08.076.142.19.136.093-.001-.016-.08-.075-.079-.08.008-.052.083-.03.088-.09.002-.017-.05-.073-.05-.098 0-.038.083.033.073-.021-.017-.085-.077-.17.1-.054.232-.219.505-.44.842-.459.069-.084.138-.171.234-.215.028-.013.061.122.098.068.006-.011.06-.171.111.105.016-.027.029-.03.044-.046l-.056-.118c.08.034.13-.07.198-.122.05-.037.02.085.05.072s.044-.04.084.103c.011-.07.022-.09.034-.09.017 0 .037.042.069.045.005 0 .042-.063.07-.048.02.01.02.114.052.1.005-.002.084-.124.11-.133.037-.014.073.125.079.128.087.037.153-.083.17.142.04-.122.115-.182.157-.157.057.032.076.315.184.06.02.14.04.064.115.093.07.025.19.204.243.22.056.016.112-.13.143-.136.052-.008-.026.077-.003.09.065.036.13.054.218.058l-.135.198.057-.057c.01.01.025.019.034.03.122-.35.077.092.113.14.036.043.221-.008.294.018.017.006-.054.057-.05.058.044.011.092-.024.12.022.015.024-.05.114-.036.136.106.155.298.254.397.429.017.03-.09.111-.082.136.011.037.12.017.136.052s-.086.13-.06.145c.026.017.13-.065.113-.01-.008.025-.108.02-.103.046.017.075.16.157.068.265l.075-.03c.01.093-.043.183-.042.275 0 .032.087.083.089.116s-.086.052-.088.077c0 .01.079.003.077.01-.007.035-.033.064-.061.091-.045.043-.094.08-.087.133.042.326.006.682-.103 1.02-.004.014.084.069.088.095.005.04-.076-.001-.081.001-.031.015.049.046.03.08-.042.075-.178.149-.221.218-.1.162-.147.338-.264.502-.008.012-.084-.085-.102-.07-.132.097-.087.215-.283.308-.194.095-.58.194-.814.233v-.001c-.013.239-.139.21-.246.053.325-.626.688-.531 1.034-.838.352-.334.232-.928.368-1.255.014-.032.143-.018.123-.055-.003-.006-.103-.014-.11-.032-.053-.14.008-.257.047-.391.026-.09.041-.184.004-.267-.025-.055-.136-.045-.173-.085q.08-.004.16-.01c.117-.267-.047-.493-.156-.71-.005-.011.086-.07.083-.083-.007-.026-.12.02-.134.006-.02-.019.048-.073.029-.09-.01-.009-.075.043-.08.014 0-.003.07-.056.049-.064-.055-.022-.175-.05-.217-.063-.053-.017.011-.137.002-.158-.023-.054-.114.045-.145.017-.223-.197-.421-.485-.755-.578-.022-.006-.13.121-.164.109-.011-.006-.068-.056-.078-.06-.036-.02-.06-.113-.081-.135-.042-.042-.104.095-.127.108-.035.02-.092.007-.119.002l-.011-.003c-.041-.008-.032-.183-.062-.141-.009.012.005.146-.026.147-.025 0-.042-.099-.062-.116-.021-.016-.04.142-.05.14-.06-.016-.1-.114-.166-.108-.058.002-.282.137-.285.18-.029.184.083.067.093.071.05.018.06.081.07-.046.12.35.136-.241.242.189-.01-.295.045-.153.084-.097.055.077.003-.09.04-.094.016-.002.064.129.083.11.018-.017.026-.102.05-.123l.008-.004c.054-.01.097.04.13.165q.017-.08.036-.16.038.09.068.182l.005-.142.03-.016c.019.074.035.144.048.22.13-.251.062-.024.092.02s.097-.101.13-.092c.045.013.072.001.112.029.024.015.008.174.064-.064.088.013.234.011.253.137.006.037-.06.087-.06.097-.008.047.07-.05.077-.024.013.043.01.157.016.189.007.045.148-.047.161-.051.068-.03-.01.079.003.078.08-.002.13-.03-.05.185.092-.08.285-.175.149-.023.133-.127.149-.064.206-.068l-.109.119c.3-.159.207.117.215.21 0 .003.12-.064.101-.036-.002.002-.056.032-.058.044-.004.042-.09.212-.089.222.014.043.112.01.132.033.027.032-.058.07-.033.099.01.013.132-.012.124.02-.005.019-.096.049-.1.063-.014.048.053.066-.06.13.3-.059.085.012.066.033-.077.09.062.163.038.233a.6.6 0 0 1-.052.11c-.096.159-.247.266-.316.382-.014.022.131.074.112.1-.009.012-.118-.011-.126.007-.007.014.036.058.027.078-.002.005-.098-.036-.102-.029-.028.051.012.136.022.218.003.031-.122-.03.084.095l-.157-.068c.108.111-.038.045-.033.102.002.006.11.138.003.078.065.055.123.1.183.149.01.039-.087 0-.104.004s.058.086.055.09c-.01.015-.113-.088-.116-.089-.153-.043-.087 0 .026.195.027.05-.14-.017-.044.128-.045-.055-.08-.106-.122-.159h-.089l.136.153c-.076-.016-.02.14-.062.16-.024.012-.101-.117-.096-.081.001.007.059.09.055.102-.028.094-.11.017-.18.03-.032.005.016.185-.078.094-.01-.008-.11-.144-.054.085-.035-.066-.056-.1-.083-.156.06.347-.04.022-.13-.036-.046-.029-.151.057-.19.1-.02.026 0 .16-.005.167-.025.035-.041-.096-.064-.072-.022.025-.044.177-.074.165-.023-.01-.016-.174-.043-.116-.006.013.02.152-.017.098a2 2 0 0 1-.071-.19 1.6 1.6 0 0 1 .112-.242c.382-.628.625-.901.818-1.162.016-.021.157.01.176-.005s-.112-.041-.097-.054c.016-.012.109.002.121-.013a.8.8 0 0 0 .18-.354c.004-.035-.104-.054-.107-.082-.001-.01.136-.026.133-.035-.022-.096-.17-.144-.18-.226-.005-.035.089-.114.083-.155-.005-.034-.09-.028-.105-.05-.007-.013.08-.07.085-.08.014-.03-.094.039-.099.03-.012-.022.112-.115.087-.132-.01-.007-.092.048-.113.045-.026-.004.053-.05.048-.063 0-.001-.057.041-.063.037-.041-.026-.118-.034-.141-.067-.046-.068-.018-.227-.075-.305-.015-.019-.065.059-.073.058-.038-.002.015-.1-.037-.086-.009.002-.096.097-.096.06 0-.021.028-.096.028-.118s-.059.08-.069.075c-.018-.01.025-.079-.01-.08-.015-.002-.099.081-.123.062-.038-.031-.067-.149-.13-.167-.021-.007-.076.104-.105.099-.037-.006-.103-.043-.143-.048-.02-.002-.014-.128-.016-.133-.015-.036-.016.105-.027.099-.014-.009-.025-.113-.04-.12-.01-.005-.011.1-.013.1l-.009.004c-.066.03-.123.025-.185.045-.358.116-.556.41-.777.634-.019.019-.13-.05-.126-.017.002.036.24.19-.045.059l.145.079c-.101.001-.04.088-.044.132-.004.034-.023.06-.038.087-.014.024-.12-.003.014.054-.082.068-.1.157-.154.25a.7.7 0 0 1-.087.119c.237.009.093.048.066.099-.003.006.08-.015.075.001-.005.02-.131.056-.116.09.004.01.16.032.098.076-.064.046-.092.096-.147.15q.075-.038.149-.074l.04.023-.183.086.185-.057c-.307.16-.212.099-.116.096.048-.002.001.04.042.04.015 0 .106-.044.12-.045.037 0-.09.06-.084.07.008.01.148-.055.1-.003-.246.126-.13.14.046.02.005.005 0 .015.01.018-.446.303-.106.12-.04.086.068-.033-.047.055-.04.055.02-.001.062-.045.068-.04.039.03.003.123.034.165.004.006.058-.056.058-.044 0 .011-.052.075-.038.08.003.001.053-.05.057-.047.074.074.12.186.214.251.009.006.078-.101.092-.089s-.014.128.005.147c.005.005.052-.09.058-.084.02.02.009.11.033.134.041.041.111-.004.146.07.007.014-.017.1-.007.128.017.048.036-.08.045-.096.028-.051-.002.118.024.078.004-.006.02-.107.023-.108.035-.011-.002.225.057.105.016.141-.05.179-.07.249a.96.96 0 0 0-.009.457c.021.06.035-.049.046-.048.059.007.146-.008.189.045.026.033-.025.077-.012.114s.024-.046.038.045c.012.09.046.358.04.485m-1.732-4.284c.273.35.137.469.047.554-.072.062-.415.014.04.184.04-.084.033-.176.099-.255.007-.009.078-.036.097-.048.01-.008.077.038.085.025.001-.003-.072-.08-.065-.084.023-.017.192.03.194.021.006-.029-.095-.102-.104-.127-.028-.081.114.042.096-.028-.003-.012-.102-.145-.064-.152.016-.003.09.043.094.034.022-.05-.003-.175.049-.192.042-.014.11.094.135.096s-.038-.132-.03-.148c.012-.024.081.03.086.025.104-.094.177-.238.304-.322a2 2 0 0 0-.352-.027c.01.143-.022.021-.078.006-.045-.01.064.182.019.182-.023 0-.148-.102-.148-.023 0 .003.063.098.04.12-.053.05-.096.164-.168.201-.021.01-.103-.078-.134-.068-.023.008.04.102.001.11-.05.007-.211-.1-.025.093q-.11-.09-.218-.177m-.113 2.258c-.009.008-.242.21.034.05.08-.149-.02-.22.025-.34-.291.123-.152.154-.103.214.002.003-.08.019-.058.033.01.008.14-.007.102.043"/></svg>