<svg width="55" height="55" viewBox="0 0 55 55" fill="none" xmlns="http://www.w3.org/2000/svg">
<path d="M52.2468 11.6805C51.6904 11.6805 51.2397 12.1318 51.2397 12.6876V27.6168C51.2397 29.6762 49.5639 31.3521 47.5044 31.3521H41.7641C41.4969 31.3521 41.241 31.4578 41.0519 31.6467L34.0926 38.6062V32.3592C34.0926 31.8027 33.6416 31.3521 33.0856 31.3521H18.6667C16.6072 31.3521 14.9314 29.6765 14.9314 27.6168V12.3825C14.9314 10.323 16.6072 8.64746 18.6667 8.64746H47.5044C49.5639 8.64746 51.2397 10.323 51.2397 12.3825V15.9711C51.2397 16.5275 51.6904 16.9782 52.2468 16.9782C52.8026 16.9782 53.2539 16.5275 53.2539 15.9711V12.3825C53.2539 9.21237 50.6748 6.6333 47.5044 6.6333H18.6667C15.4963 6.6333 12.9172 9.21237 12.9172 12.3825V25.3206H5.58723C3.43932 25.3206 1.69141 27.0679 1.69141 29.2164V38.4967C1.69141 40.6452 3.43932 42.3925 5.58723 42.3925H8.66732L13.6587 47.3842C13.8516 47.5771 14.1093 47.6794 14.3712 47.6794C14.5008 47.6794 14.6321 47.6542 14.7564 47.6026C15.1328 47.4468 15.3783 47.0798 15.3783 46.6723V42.3925H23.1548C25.303 42.3925 27.0506 40.6452 27.0506 38.4967V33.3662H32.0785V41.0374C32.0785 41.4449 32.3239 41.8119 32.7003 41.9676C32.8247 42.0193 32.9556 42.0444 33.0856 42.0444C33.3477 42.0444 33.6051 41.9422 33.7977 41.7492L42.1811 33.3662H47.5044C50.6748 33.3662 53.2539 30.7872 53.2539 27.6168V12.6876C53.2539 12.1318 52.8026 11.6805 52.2468 11.6805ZM25.0368 38.4967C25.0368 39.5346 24.1927 40.3783 23.1548 40.3783H14.3712C13.8148 40.3783 13.3641 40.8296 13.3641 41.3854V44.2411L9.79651 40.6735C9.60768 40.4847 9.35151 40.3783 9.08432 40.3783H5.58723C4.54963 40.3783 3.70557 39.5346 3.70557 38.4967V29.2164C3.70557 28.1788 4.54963 27.3348 5.58723 27.3348H12.9172V27.6168C12.9172 30.7872 15.4963 33.3662 18.6667 33.3662H25.0368V38.4967Z" fill="#A9A9A6"/>
<path d="M52.2379 12.1187C51.9386 12.1302 51.6948 12.4071 51.7119 12.6876C51.7396 14.2563 51.7481 15.8326 51.7307 17.4442C51.7255 17.9337 51.6843 17.8876 51.6777 18.0889C51.6654 18.4588 51.7098 19.0795 51.7098 19.1666C51.7103 19.7066 51.6383 19.4956 51.6355 19.5683C51.6063 20.3787 51.6883 20.1454 51.6962 20.9202C51.7065 21.9292 51.6918 23.2239 51.6878 24.4395C51.6862 24.8664 51.6314 24.6764 51.636 25.5978C51.6378 25.9757 51.6596 26.8058 51.6646 27.6168C51.6738 28.2758 51.4845 28.913 51.2803 29.2908C51.2553 29.2859 51.2806 29.1575 51.2752 29.0986C50.7516 30.3876 50.3625 31.0734 48.3812 31.6493C48.1281 31.6991 47.8844 31.7638 47.5044 31.7695C47.4136 31.7703 47.3145 31.7696 47.2047 31.7663C46.6827 31.7503 46.6606 31.6838 45.611 31.6846C45.2387 31.685 45.0128 31.7319 44.4419 31.734C43.7377 31.7365 42.7573 31.727 41.7641 31.7152C41.5944 31.7113 41.4237 31.7784 41.3016 31.8968C40.5712 32.6092 39.8846 33.2783 39.4591 33.7026C37.6005 35.5556 36.6474 36.6219 34.9797 38.2504C34.8514 38.3759 35.0938 38.0607 34.8604 38.2927C34.6251 38.5266 34.4289 38.8191 34.3724 38.8779C34.3711 38.8793 34.3698 38.8806 34.3684 38.882L33.7045 39.5487L33.7026 38.6062C33.6855 37.7229 33.7764 35.8678 33.7654 35.3788C33.7384 34.1875 33.7083 35.3614 33.6954 33.7105C33.6922 33.2945 33.696 32.8366 33.7037 32.3592C33.7231 32.0404 33.438 31.7118 33.0856 31.7066C32.246 31.6856 31.4201 31.6633 30.7183 31.6555C28.9126 31.6354 28.3303 31.7642 26.9705 31.6297C24.2068 31.6343 21.4368 31.6378 18.6667 31.6413C16.5219 31.6936 14.5873 29.7632 14.6345 27.6168C14.6344 27.5563 14.6343 27.4958 14.6342 27.4353C14.661 27.4489 14.6878 27.4647 14.7146 27.481C14.6961 27.1029 14.6775 26.7248 14.6592 26.3468C14.6791 26.4039 14.6991 26.458 14.7189 26.5151C14.6418 24.7395 14.6021 23.1569 14.6233 21.0822C14.6237 21.0416 14.6771 21.1483 14.6785 21.1147C14.6886 20.6469 14.6475 20.1241 14.6571 19.7135C14.6803 18.7208 14.7969 17.0345 14.6543 17.777C14.676 16.0761 14.6557 14.1563 14.6544 12.3825C14.6523 11.6946 14.8369 11.0307 15.1426 10.4842C15.6751 9.60375 16.0239 9.50186 16.3929 9.21306C16.79 8.95029 16.5522 9.02597 16.6968 8.93361C17.2103 8.61079 18.0407 8.38227 18.6667 8.41306C19.0849 8.42403 19.4034 8.44429 19.4736 8.47811C19.6694 8.44565 19.8766 8.4128 20.075 8.38014C19.9587 8.47023 22.9674 8.433 23.7567 8.4352C23.9009 8.4356 23.921 8.47509 24.0298 8.47469C25.2422 8.46963 25.5386 8.40773 26.5772 8.38716C26.9417 8.3799 26.3765 8.4495 27.3121 8.41945C27.3937 8.41681 27.3503 8.35429 28.468 8.35469C30.2521 8.35529 33.6652 8.3305 35.7893 8.36134C35.9633 8.36376 35.4334 8.43192 36.2295 8.41603C36.5178 8.41039 36.3797 8.36199 37.0787 8.36159C39.7875 8.35957 42.6759 8.41521 45.4391 8.36903C45.3384 8.42368 44.3542 8.48498 45.8336 8.4507C46.0701 8.44504 45.8936 8.39624 45.9996 8.39443C46.521 8.38587 47.0003 8.39534 47.5044 8.39992C47.853 8.40322 48.2113 8.44746 48.5896 8.54656C48.8712 8.62641 48.9557 8.61148 49.295 8.76233C49.7854 9.00743 49.9606 9.18817 50.4211 9.61668C51.0713 10.3392 51.2733 10.4909 51.4553 11.7053C51.4937 11.9288 51.513 12.1556 51.5133 12.3825C51.5147 13.5796 51.5168 14.7757 51.519 15.9711C51.5102 16.359 51.8609 16.7069 52.2468 16.6962C52.6328 16.7049 52.9799 16.3554 52.9693 15.9711C52.9676 14.7745 52.9663 13.5783 52.9662 12.3825C53.0177 9.70785 50.8265 7.22677 48.1588 6.93519C47.9393 6.91265 47.7218 6.90369 47.5044 6.90733C45.9014 6.93317 44.3737 6.95926 42.6753 6.96898C42.1042 6.97221 41.995 6.90285 41.084 6.92583C40.88 6.93087 39.4247 7.00531 39.2125 6.86516C38.8074 6.87725 38.5514 6.87766 38.2034 6.88512C38.4672 6.90568 38.7395 6.92648 38.9924 6.94725C37.5237 6.92487 36.3245 6.97428 35.0244 6.99767C34.0674 7.0148 34.7469 6.9547 34.1597 6.96074C33.5722 6.96659 33.3051 6.98011 32.5708 6.90813C31.9943 6.99117 31.611 6.93293 30.5477 6.93071C30.4335 6.93051 29.7731 6.96271 29.2211 6.95628C28.8241 6.95165 28.7065 6.89986 28.076 6.90788C27.9727 6.90909 26.6397 6.97326 26.2153 6.97911C25.5544 6.98839 24.5041 6.92199 24.3763 6.92119C22.519 6.9095 21.8031 6.97505 20.4841 6.86717C20.2603 6.92102 19.4479 6.95611 18.6667 6.96227C18.5252 6.96345 18.3872 6.96901 18.2526 6.97821C17.1659 6.92413 15.1792 7.93141 15.1063 8.29865C14.2002 9.11708 14.2497 9.03809 13.6196 10.3441C13.4363 10.7879 13.2129 11.5386 13.209 12.3825C13.1944 13.9353 13.1746 15.7064 13.1795 16.431C13.187 17.5678 13.264 17.0139 13.2743 17.4654C13.2914 18.2043 13.2346 17.8052 13.2354 18.3109C13.2378 19.7414 13.2486 20.9846 13.2734 22.3498C13.2335 22.4232 13.1934 22.5022 13.1535 22.5784C13.1668 22.649 13.1801 22.7194 13.1934 22.7901C13.193 23.0838 13.1938 23.413 13.1926 23.6849C13.312 22.1217 13.2627 23.7166 13.2178 25.3206L13.2187 25.6202L12.9172 25.6212C12.1664 25.6002 11.4137 25.5801 10.9819 25.5787C9.83957 25.575 7.93815 25.6581 6.68435 25.6761C6.38007 25.6805 6.58922 25.6374 6.52679 25.6383C6.10181 25.6455 5.88546 25.6583 5.58723 25.6671C5.38923 25.6754 5.15128 25.6864 4.78207 25.7684C4.32208 25.8721 3.84795 26.033 3.46657 26.312C2.54031 26.9801 1.98284 28.097 1.99856 29.2164C2.01288 31.6784 2.03855 34.1167 2.04247 36.6027C2.04348 37.2336 1.97754 37.7779 1.97612 38.3082C1.97595 38.373 1.97618 38.4357 1.97676 38.4967C1.99284 39.1045 2.13497 39.5149 2.38643 40.0506C2.64549 40.6473 3.29659 41.3683 3.69985 41.5754C4.09163 41.7848 3.45416 41.3788 4.16411 41.7566C4.50354 41.9066 3.87763 41.6976 4.3047 41.8745C4.6768 42.0184 5.11989 42.1081 5.58723 42.1028C6.58408 42.0938 7.67502 42.0808 8.66732 42.0922L8.79075 42.0918L8.87966 42.1802C9.10558 42.4114 9.32227 42.6371 9.52429 42.8532C9.48221 42.7914 9.42018 42.7117 9.36614 42.6388C10.6142 43.8946 11.6965 45.0244 12.9854 46.3202C13.2131 46.5492 13.5413 46.8633 13.8675 47.1753C14.0093 47.3104 14.204 47.3733 14.3712 47.3679C14.4714 47.3657 14.5621 47.3422 14.6356 47.3116C14.6369 47.311 14.6379 47.3106 14.6389 47.3101C14.963 47.1568 15.0832 46.9377 15.1051 46.6723C15.1073 46.5982 15.1087 46.5206 15.1089 46.4371C15.1095 46.2304 15.0698 46.3112 15.0706 46.1725C15.0796 44.6829 15.133 43.7705 15.1429 42.3925L15.1421 42.1579L15.3783 42.1571C15.6052 42.1587 15.8447 42.1592 16.1015 42.158C18.4316 42.1477 20.7872 42.1379 23.1548 42.1284C25.082 42.1669 26.817 40.42 26.7623 38.4967C26.7557 36.7852 26.7491 35.0734 26.7424 33.3662L26.7414 33.059L27.0506 33.058C27.7095 33.0554 28.3676 33.0529 29.0248 33.0503C29.2966 33.0492 29.4795 32.9974 29.8764 32.9898C30.4878 32.9779 30.5177 33.0237 30.5993 33.0253C31.1321 33.0354 30.9148 32.993 31.63 32.993C31.7721 32.993 31.9221 32.9933 32.0785 32.9939L32.4496 32.9927L32.4508 33.3662C32.4452 34.9431 32.4144 37.1744 32.4174 38.6021C32.4191 39.4403 32.4226 40.2476 32.4272 41.0374C32.4268 41.3003 32.5993 41.5464 32.8367 41.6383C32.9162 41.6703 33.001 41.6861 33.0856 41.685C33.2562 41.6835 33.4224 41.6118 33.539 41.491C34.7767 40.2332 35.9985 38.9882 37.3256 37.6458C37.5052 37.4639 37.426 37.6298 37.74 37.3169C39.5752 35.4894 40.182 34.8268 41.9089 33.0941L42.0204 32.9819L42.1811 32.9813C42.6859 32.9805 43.2568 32.9811 43.9221 32.9839C44.9231 32.9882 46.1526 32.9938 47.5044 32.9999C50.1931 33.1636 53.0543 30.4454 52.9251 27.6168C52.9289 26.4756 52.932 25.3995 52.9337 24.4457C52.9339 24.4457 52.934 24.4457 52.9342 24.4457C52.8208 23.0126 52.849 21.1583 52.9347 19.619C53.0193 22.3074 53.0669 24.9606 53.0925 27.6168C53.1937 30.566 50.5354 33.3004 47.5044 33.2286C45.7525 33.2253 43.9815 33.2198 42.1811 33.2162L42.1184 33.2164L42.0749 33.2601C41.0272 34.3036 39.9663 35.362 38.8899 36.4409C37.1818 38.1528 35.4544 39.9002 33.7151 41.6666C33.5524 41.8339 33.321 41.9326 33.0856 41.934C32.9683 41.9351 32.8507 41.9129 32.7415 41.8686C32.4106 41.7398 32.1749 41.3974 32.1754 41.0374C32.1529 38.4915 32.1269 35.9284 32.1039 33.3662L32.1038 33.3408L32.0785 33.3409C30.4005 33.3559 28.7228 33.3698 27.0506 33.3805L27.0649 33.3662C27.0759 35.084 27.0837 36.7959 27.0862 38.4967C27.0936 39.5563 26.641 40.6019 25.8816 41.3241C25.1648 41.9618 24.7591 42.0647 24.0024 42.2795C23.8701 42.3094 24.2263 42.2887 23.8159 42.3743C23.5987 42.4139 23.3773 42.4348 23.1548 42.4369C20.6056 42.461 17.9883 42.4519 15.3783 42.4381L15.4238 42.3925C15.4162 43.8254 15.4072 45.2562 15.4015 46.6723C15.4044 47.0807 15.1391 47.4713 14.7638 47.6204C14.6395 47.6718 14.5052 47.6981 14.3712 47.6979C14.1014 47.6983 13.8349 47.5869 13.6462 47.3966C13.0939 46.8438 12.545 46.2972 12.0006 45.7588C10.9254 44.6955 10.7185 44.5671 9.76805 43.6368C9.95189 43.7836 10.0794 43.8723 10.2422 43.9978C9.71946 43.4608 9.19534 42.9249 8.66999 42.3898C7.64119 42.3794 6.61459 42.3729 5.58723 42.3683C3.53129 42.4072 1.67881 40.5577 1.72541 38.4967C1.72501 36.2204 1.72267 33.9375 1.72703 31.6448C1.72765 31.3675 1.7819 31.332 1.78391 31.041C1.78814 30.4591 1.72845 29.9017 1.72642 29.3932C1.72617 29.3296 1.72634 29.2709 1.72685 29.2164C1.74629 28.7076 1.79875 28.5646 1.9478 28.0445C2.0487 27.7709 1.94836 27.8219 2.26223 27.2594C2.2936 27.2156 2.33338 27.1973 2.58445 26.8569C3.05424 26.1469 4.42587 25.3013 5.58723 25.3466C6.00918 25.3408 6.37884 25.336 6.64346 25.333C7.89427 25.3191 8.89798 25.3847 9.37135 25.389C10.6494 25.4004 10.6228 25.3333 11.7047 25.3333C12.1098 25.3333 12.5139 25.3335 12.9172 25.3338L12.9305 25.3338L12.9304 25.3206C12.9345 20.9657 12.9608 16.7055 12.9811 12.3825C12.9298 9.49025 15.4444 6.79141 18.4402 6.72582C18.498 6.72354 18.5746 6.72029 18.6667 6.71843C19.3552 6.70464 20.8734 6.64693 21.6809 6.64957C21.9881 6.65078 23.5944 6.67053 23.835 6.67216C24.8114 6.67841 25.6552 6.72359 26.1937 6.73307C27.238 6.75161 28.4049 6.68105 28.9733 6.67399C29.9713 6.66149 31.7439 6.67077 32.163 6.67259C33.1748 6.67702 32.8405 6.7643 33.5667 6.74394C33.7812 6.73785 33.5565 6.67094 34.3124 6.67094C34.9457 6.67117 35.2019 6.72156 35.6343 6.73063C36.0666 6.73965 36.8598 6.66172 37.1293 6.66367C38.5381 6.67456 39.1616 6.72563 40.6955 6.72825C41.7182 6.72986 45.7151 6.70715 47.5044 6.68864C47.9398 6.68452 48.2428 6.72745 48.3374 6.73681C49.8611 7.02685 48.5275 6.60451 47.5044 6.6245C47.0914 6.62649 46.7415 6.62901 46.6817 6.62821C45.5694 6.61228 45.7321 6.58082 44.6226 6.64091C43.6299 6.45559 40.1701 6.74413 39.2835 6.52433C38.3669 6.67073 37.5969 6.59692 36.6314 6.56748C35.2968 6.52679 36.3131 6.6121 35.3396 6.61271C34.9557 6.61287 33.8436 6.54637 33.2672 6.55564C32.6909 6.56493 32.4482 6.61593 31.6759 6.61875C30.2973 6.62398 29.1875 6.60018 28.0291 6.5391C27.817 6.56611 27.6191 6.59314 27.4097 6.62015C26.6101 6.59112 25.8074 6.56226 25.0078 6.53342C25.1356 6.55701 25.2636 6.58081 25.3914 6.60441C25.1575 6.60784 24.9229 6.61107 24.689 6.61429C23.9112 6.57881 23.1684 6.54595 22.3689 6.50925C20.1963 6.64573 20.8268 6.52761 19.6193 6.50986C19.264 6.50464 18.9528 6.50781 18.6667 6.51488C17.965 6.53724 17.4241 6.67118 16.7941 6.88103C15.612 7.33328 15.1027 7.6919 14.2399 8.62918C13.7329 9.17699 13.1223 10.2904 13.7132 9.43569C13.2328 10.2364 12.9075 11.2978 12.9182 12.3825C12.925 13.962 12.9251 15.5626 12.896 16.7798C12.8817 17.3853 12.8437 16.5779 12.8389 16.6812C12.8166 17.1951 12.8782 17.628 12.8694 18.1582C12.8547 19.0392 12.8067 20.7552 12.7953 21.449C12.779 22.4471 12.8589 24.0164 12.8647 24.1768C12.8869 24.79 12.863 25.0962 12.847 25.3206L12.9172 25.2504C12.8133 25.2431 12.7269 25.2374 12.6357 25.2389C10.9958 25.2655 10.6338 25.2933 10.1171 25.1534C9.69256 25.2139 7.91396 25.3157 7.4842 25.2139C7.47503 25.2903 6.45349 25.2925 5.58723 25.3043C5.40981 25.3066 5.24082 25.3216 5.08842 25.345C4.91774 25.34 4.74146 25.3473 4.56816 25.3655C3.39864 25.6956 1.64863 27.1954 1.67189 29.2164C1.65684 30.3022 1.63674 31.3697 1.62967 32.2703C1.62927 32.3328 1.69818 32.4446 1.68265 32.8199C1.68138 32.8437 1.65041 32.8051 1.6464 33.0569C1.63349 33.8864 1.55613 37.0516 1.55545 37.4157C1.55453 37.8893 1.56034 38.2248 1.56847 38.4967C1.59295 39.01 1.66016 39.2996 1.83174 39.8098C2.25974 40.8098 2.34805 40.9886 3.14022 41.6735C3.53759 41.9642 3.95387 42.1578 4.69152 42.3504C5.13312 42.4469 5.17582 42.4917 5.53929 42.5093C5.5553 42.5096 5.57128 42.5099 5.58723 42.51C6.75698 42.5221 7.63944 42.4968 8.66732 42.5469L8.55816 42.5017C8.59551 42.5429 8.63301 42.5845 8.67069 42.6266C8.98438 42.7245 9.28164 43.1809 9.66386 43.5794C10.8597 44.8266 12.3344 46.2589 13.5657 47.4771C13.7846 47.6955 14.0848 47.8097 14.3712 47.8083C14.5235 47.8083 14.6719 47.7775 14.8061 47.7222C14.8963 47.6853 14.9803 47.6373 15.056 47.5811C15.3411 47.3716 15.5161 47.0241 15.5164 46.6723C15.5284 45.2145 15.543 43.794 15.5584 42.3925L15.3783 42.5727C17.9977 42.6015 20.5505 42.6333 23.1548 42.6559C24.6297 42.6834 26.1116 41.8366 26.8388 40.4829C27.2505 39.6484 27.2461 39.3264 27.2728 38.4967C27.2721 38.4177 27.2718 38.3335 27.2723 38.243C27.2745 37.7944 27.33 37.3318 27.3308 36.5976C27.3316 36.0076 27.3034 35.1622 27.3036 34.4254C27.3036 34.2296 27.3556 34.2122 27.356 33.9239C27.3563 33.7376 27.3562 33.5518 27.3559 33.3662L27.0506 33.6716C28.7318 33.6689 30.3887 33.6451 32.0785 33.6238L31.8209 33.3662C31.8249 33.6798 31.8288 33.9944 31.8324 34.3106C31.8419 35.129 31.7729 35.6352 31.8929 35.4966C31.8635 35.8093 31.8378 36.1133 31.8088 36.4071C31.8844 37.533 31.8056 38.4526 31.825 39.9757C31.8264 40.0757 31.8577 40.5412 31.8684 41.0374C31.8695 41.4274 32.0827 41.7968 32.3164 42.0038C32.3858 42.0044 32.3156 41.9013 32.3588 41.8862C32.4437 41.9556 32.5451 42.0192 32.6594 42.0666C32.7889 42.1208 32.9356 42.1536 33.0856 42.156C33.3869 42.1642 33.6932 42.0364 33.8921 41.8435C34.0572 41.6886 34.2021 41.5525 34.3028 41.4542C34.6137 41.1504 34.7802 40.9054 34.8723 40.8125C35.2232 40.4596 35.1928 40.5933 35.2206 40.5672C36.9103 38.9765 36.7101 39.1217 37.6231 38.0539C37.8517 37.7862 39.5922 36.1592 39.8717 35.7575C39.912 35.7671 39.8401 35.8829 39.8369 35.9336C40.3491 35.4343 40.8655 34.9311 41.3796 34.4298C41.248 34.5136 41.0947 34.6189 40.9725 34.6929C41.4328 34.2508 41.8453 33.8271 42.2346 33.4197L42.1811 33.4419C42.9116 33.4253 43.595 33.4005 44.2721 33.402C44.9575 33.4036 44.8739 33.4784 45.2764 33.4621C45.3552 33.4589 45.2221 33.4083 45.4557 33.4042C46.2814 33.39 46.9063 33.3919 47.5044 33.3996C48.2873 33.3996 49.0547 33.3133 50.0489 32.8485C50.8568 32.4379 51.4744 31.9102 52.2734 30.8997C52.3604 30.8278 53.0909 29.7316 53.1176 28.9204C53.2097 28.6865 53.263 28.4713 53.3153 28.288C53.3167 28.009 53.3035 27.7947 53.2919 27.6168C53.235 26.7768 53.3571 26.7694 53.3905 25.0086C53.4114 23.9067 53.381 20.2001 53.3624 19.0008C53.3512 18.2865 53.2829 18.2995 53.2802 18.1721C53.2644 17.4106 53.3306 17.41 53.3197 16.7059C53.3088 16.0015 53.234 15.1116 53.2409 14.3881C53.2461 13.834 53.3283 14.2708 53.2997 13.4524C53.2935 13.2829 53.2238 13.7672 53.2511 12.9039C53.252 12.8764 53.2558 12.7978 53.2614 12.6876C53.2814 12.4714 53.1858 12.1078 52.9365 11.8818C52.6965 11.6459 52.3666 11.5889 52.2468 11.5873C52.5846 11.5229 53.3972 11.8868 53.4098 12.6876C53.4345 13.467 53.456 14.2949 53.4657 14.7285C53.545 18.2538 53.604 22.704 53.6472 27.6168C53.7723 30.7311 50.9426 33.8748 47.5044 33.8203C45.7454 33.829 43.9653 33.8363 42.1811 33.8423L42.5177 33.7029C39.7026 36.5368 36.8683 39.3809 34.1506 42.1021C33.8723 42.3833 33.4787 42.5453 33.0856 42.5438C32.8881 42.544 32.6905 42.5046 32.5088 42.429C31.9536 42.2066 31.5717 41.629 31.5785 41.0374C31.5781 38.3511 31.5797 35.7711 31.5828 33.3662L32.0785 33.8619C30.2971 33.8596 28.6118 33.8565 27.0506 33.8529L27.5373 33.3662C27.5361 33.8684 27.5349 34.3577 27.5336 34.8332C27.5302 36.1847 27.4584 37.0685 27.4521 37.9496C27.4478 38.5656 27.4786 38.3869 27.4957 38.4967C27.5019 38.5496 27.5114 38.6623 27.4848 38.9298C27.3768 39.8188 27.0691 40.426 26.5817 41.0841C25.7849 42.139 24.4766 42.7887 23.1548 42.7724C20.5601 42.7585 17.9626 42.7452 15.3783 42.7351L15.7209 42.3925C15.7159 43.6454 15.7118 44.8951 15.7086 46.14C15.7082 46.3222 15.7088 46.4992 15.7103 46.6723C15.7174 47.2263 15.3678 47.7271 14.8911 47.9282C14.7273 47.9995 14.5498 48.0378 14.3712 48.0407C14.0134 48.0477 13.653 47.9072 13.3926 47.6502C13.2492 47.5107 13.1051 47.3688 12.9589 47.2226C12.6342 46.8978 12.6728 46.839 12.4417 46.6087C11.0714 45.2426 9.74447 43.9459 8.41701 42.6428L8.66732 42.7465C7.64675 42.756 6.62471 42.7643 5.58723 42.7676C5.03098 42.7697 4.46801 42.6605 3.94514 42.4403C2.44592 41.8421 1.38853 40.1877 1.38445 38.6283C1.38326 38.5847 1.38268 38.5408 1.38274 38.4967C1.38438 37.349 1.34732 36.1672 1.34652 35.1377C1.34592 34.559 1.39842 34.2538 1.40256 34.0444C1.41627 33.3155 1.35214 33.5702 1.35214 33.1976C1.35236 32.1698 1.42978 31.6585 1.42374 30.6958C1.42132 30.318 1.37198 30.3666 1.36429 29.8178C1.3583 29.3873 1.37343 29.3216 1.38623 29.2164C1.39484 29.146 1.40005 29.0612 1.41701 28.8576C1.42135 28.8253 1.3711 28.9278 1.40403 28.6433C1.5419 26.7536 3.597 24.9101 5.44016 24.9623C5.48901 24.9607 5.53804 24.9599 5.58723 24.96C8.07415 24.9648 10.5365 25.0028 12.9172 25.0273L12.6239 25.3206C12.6323 24.504 12.6392 23.697 12.6425 22.9019C12.6457 22.105 12.5997 22.3165 12.5975 22.0636C12.5871 20.8454 12.6421 20.4102 12.6223 19.1348C12.6191 18.9226 12.5554 18.0683 12.5715 17.2525C12.5802 16.812 12.6199 16.3119 12.6292 15.9366C12.6385 15.5615 12.58 15.5013 12.5799 15.0502C12.5797 14.2289 12.6203 14.4677 12.613 13.2929C12.612 13.1171 12.6037 12.7885 12.5939 12.3825C12.5668 11.6578 12.7279 10.6865 13.0672 9.94361C13.8472 8.01329 16.199 6.26926 18.6667 6.3333C18.7124 6.33335 18.7582 6.33339 18.8038 6.3334C19.6089 6.33381 20.643 6.2737 21.8914 6.2731C23.4171 6.2723 26.2284 6.28596 27.7922 6.28677C28.5918 6.28717 28.6496 6.35013 28.7448 6.35275C29.3562 6.37026 29.1093 6.29993 29.5194 6.3027C30.0823 6.30653 30.6077 6.35842 31.119 6.36185C31.4452 6.36404 31.497 6.3122 31.5677 6.3118C34.184 6.29466 36.4958 6.2995 39.0958 6.29385C41.8941 6.28786 44.6978 6.28039 47.5044 6.27253C50.7553 6.18714 53.7073 9.11128 53.64 12.3825C53.6432 13.5787 53.6463 14.775 53.6491 15.9711C53.668 16.7185 52.9962 17.3933 52.2468 17.377C51.4977 17.3962 50.8208 16.722 50.8376 15.9711C50.8352 14.7746 50.8332 13.5783 50.8314 12.3825C50.8708 10.611 49.2695 9.01765 47.5044 9.06078C44.7352 9.06137 41.97 9.05921 39.2112 9.05326C38.0444 9.05084 38.0005 8.98548 36.9752 8.99576C35.9499 9.00584 34.9593 9.147 34.1162 8.99112C34.089 9.02258 34.0917 9.04501 34.0645 9.07364C31.9459 9.02929 29.8271 9.0752 27.7548 9.08085C26.221 9.08508 24.8608 9.08006 23.444 9.07663C22.1881 9.0734 22.2966 9.01859 21.2093 9.09012C20.3629 9.08311 19.5152 9.07747 18.6667 9.07265C16.9073 9.01779 15.2957 10.6075 15.3297 12.3825C15.3177 14.9998 15.3017 17.6112 15.2657 20.1982C15.3829 21.4547 15.3091 22.6591 15.2917 24.3971C15.2896 24.6116 15.3323 24.3814 15.3287 25.0177C15.3242 25.8168 15.2589 26.2304 15.2625 27.576C15.2625 27.5873 15.2626 27.6009 15.2628 27.6168C15.2604 27.8335 15.3179 28.5326 15.6767 29.1714C16.016 29.8212 16.6352 30.3265 16.9994 30.5421C17.4205 30.813 18.0365 31.0269 18.6667 31.0384C19.1862 31.0509 19.6985 31.0637 20.1363 31.079C19.9922 31.051 19.8096 31.0241 19.6492 30.9965C20.1551 30.9917 20.6636 30.987 21.1695 30.9822C21.2429 31.0159 21.3165 31.0496 21.3872 31.0834C21.6809 31.0514 21.9748 31.0197 22.2712 30.9872C22.9103 31.1602 22.2551 31.1038 23.6773 31.0601C24.3898 31.0383 24.9555 31.0685 25.6871 31.051C25.9507 31.0445 26.1194 30.9936 26.41 30.9871C27.1224 30.9713 26.7072 31.0414 27.1473 31.0411C27.5906 31.0405 28.227 30.9635 29.0212 30.9977C28.1921 31.135 30.5885 31.0902 30.7027 30.9836C30.988 30.9834 31.2271 30.9878 31.5422 30.9848C31.2867 31.2213 32.4071 31.1028 33.0856 31.0454C33.2082 31.0373 33.322 31.048 33.416 31.0675C33.8036 31.1577 33.9395 31.3253 34.0117 31.4054C34.0822 31.4944 34.0913 31.5345 34.1454 31.6055C34.4057 32.0502 34.269 31.7019 34.3892 32.0511C34.4133 32.1524 34.4253 32.2562 34.4253 32.3592C34.4272 34.1275 34.3865 35.8037 34.3826 37.557C34.3821 37.8203 34.423 37.5868 34.419 37.8938C34.416 38.1162 34.3939 38.3319 34.383 38.6062L33.8873 38.4009C33.9644 38.3298 34.0463 38.2514 34.1345 38.1621C34.2202 38.0754 34.2218 38.023 34.3561 37.8887C36.5458 35.7006 38.662 33.6109 40.8464 31.4412C41.0861 31.2014 41.4238 31.062 41.7641 31.064C42.3837 31.0658 43.0083 31.0671 43.6396 31.0679C44.0068 31.0683 44.2951 31.0044 45.0048 31.0066C45.67 31.0087 46.6577 31.0594 47.5044 31.0695C47.5572 31.0702 47.6092 31.0695 47.6601 31.0675C47.8769 31.0553 47.9296 30.9999 48.2062 30.9476C49.1386 30.7458 49.9183 30.2647 50.4639 29.4052C50.7897 28.8789 50.9675 28.2513 50.9639 27.6168C50.96 26.4048 50.954 25.179 50.9741 23.9777C50.9799 23.6214 51.0243 23.6784 51.0368 23.1646C51.0584 22.2779 50.9937 22.6116 50.985 22.4321C50.957 21.8448 51.043 21.6603 51.0209 21.0922C51.0175 21.0053 50.9665 21.1292 50.9657 21.0513C50.9568 19.8437 51.0764 19.7803 51.0122 18.4966C51.081 17.355 51.1044 19.2618 51.1409 19.4576C51.2296 19.9359 51.3339 18.6717 51.3673 17.9265C51.3962 17.2848 51.3409 17.2895 51.3409 17.034C51.3407 15.7023 51.3305 13.7288 51.3553 12.6876C51.3557 12.6737 51.3564 12.6601 51.3573 12.6467C51.4105 12.3376 51.3804 12.5267 51.3882 12.6876C51.3968 12.8303 51.4055 12.96 51.4133 12.8231C51.416 12.7757 51.4174 12.7308 51.4179 12.6876C51.4236 12.4909 51.4553 12.3142 51.6274 12.1632C51.7272 12.0739 51.9184 12.0016 52.0575 12.0164C52.1981 12.0273 52.2743 12.0892 52.2379 12.1187ZM44.2664 8.50655C42.194 8.72433 36.6979 8.70158 33.747 8.68081C31.2992 8.66347 29.189 8.49567 29.6948 8.73886C32.3409 8.74047 34.4812 8.71608 37.2795 8.72354C37.5705 8.72434 39.3062 8.74691 39.91 8.75094C40.2499 8.75317 40.2607 8.79334 40.7231 8.79294C40.8237 8.79273 41.3815 8.74025 41.5854 8.74166C42.2842 8.74631 44.3624 8.82688 44.6525 8.82455C45.4572 8.8177 45.1484 8.75526 45.4957 8.74392C46.494 8.71183 46.7323 8.77586 47.5044 8.77593C47.6308 8.77602 47.7709 8.78034 47.9318 8.79486C48.121 8.81182 48.8368 8.82313 49.5464 9.31119C49.8392 9.49828 50.2291 9.93788 50.3814 10.1472C50.8678 10.7537 51.18 11.5679 51.1897 12.3825C51.2019 13.059 51.211 13.7186 51.2068 14.3188C51.1991 15.409 51.1361 15.1158 51.1276 15.6924C51.1263 15.7829 51.127 15.8764 51.1292 15.9711C51.1245 16.5737 51.711 16.9744 52.046 17.002C52.1111 17.014 52.1786 17.0204 52.2468 17.0206C52.909 17.0554 53.3263 16.3488 53.3137 16.1661C53.3252 16.1016 53.3308 16.0363 53.3306 15.9711C53.3263 14.7401 53.3184 13.5518 53.3092 12.3825C53.3097 9.9214 51.6373 7.65207 49.269 6.91076C51.5862 7.66023 53.2368 9.99586 53.1721 12.3825C53.1708 12.4908 53.1695 12.599 53.1682 12.7072C53.2336 14.1323 53.1723 13.4229 53.1519 14.3611C53.1375 15.0239 53.2242 15.2381 53.2342 15.9711C53.2354 16.0575 53.2245 16.1516 53.1944 16.2497C53.1946 16.2489 53.1948 16.2482 53.195 16.2474C53.1318 16.508 52.7784 16.9346 52.2468 16.9129C51.8454 16.9104 51.4305 16.5992 51.3312 16.168C51.3284 16.1491 51.296 16.1209 51.277 15.9711C51.2634 15.8381 51.2507 15.6185 51.2498 15.2485C51.2478 14.4363 51.2407 13.4294 51.2347 12.3825C51.2513 11.0902 50.4631 9.84032 49.5203 9.25309C49.01 8.95429 49.148 8.93357 48.4678 8.71149C48.1865 8.63483 47.8678 8.60097 47.5044 8.61323C47.2196 8.62321 46.9049 8.63102 46.5493 8.62551C45.5403 8.60958 45.0562 8.51364 44.3627 8.64693C44.3055 8.59934 44.3344 8.55293 44.2664 8.50655ZM21.8334 31.377C21.9752 31.3823 23.8733 31.5311 23.3104 31.3722C21.8148 31.3318 20.248 31.3268 18.6667 31.3218C17.5563 31.3273 16.458 30.7845 15.7904 29.9131C16.1294 30.5637 17.195 31.4158 18.6667 31.3922C18.9874 31.3884 19.3212 31.3846 19.666 31.3825C19.6668 31.3825 19.6676 31.3825 19.6684 31.3825C19.7573 31.3819 19.3859 31.423 19.8909 31.4155C20.1357 31.4119 21.0746 31.349 21.8334 31.377ZM25.4749 38.5009C25.5312 39.062 25.3305 39.6673 24.9135 40.0885C24.818 40.1838 24.7964 40.1437 24.7532 40.1768C24.6747 40.2371 24.571 40.3751 24.5506 40.3888C24.431 40.4753 24.4372 40.381 24.4197 40.3902C24.2239 40.4793 24.3196 40.5192 24.134 40.62C23.8902 40.747 23.5372 40.8252 23.2095 40.8258C23.1854 40.826 23.1686 40.8234 23.1548 40.8195C23.1125 40.8045 23.1053 40.7709 22.9461 40.7746C22.8035 40.7778 22.3663 40.8403 22.165 40.7735C22.1639 40.7483 22.1893 40.7205 22.2 40.6945C21.9114 40.7995 21.8081 40.7949 21.399 40.7693C21.3343 40.7653 21.273 40.8085 21.159 40.7925C21.045 40.7766 21.0402 40.71 20.811 40.7109C20.7297 40.7113 20.6804 40.7582 20.5557 40.7602C20.2012 40.7661 19.526 40.7078 19.235 40.7058C18.662 40.7018 18.3502 40.7818 17.8414 40.754C17.8022 40.752 17.8882 40.7006 17.8164 40.6996C17.744 40.6986 17.6685 40.7667 17.6507 40.7683C17.4583 40.7858 17.0518 40.6946 16.9448 40.7056C16.6847 40.7326 16.941 40.7626 16.5805 40.7756C16.2373 40.7878 15.7634 40.6991 15.4232 40.6818C15.0289 40.6617 14.9018 40.7905 14.6049 40.656C14.527 40.6566 14.4491 40.6571 14.3712 40.6577C13.9842 40.6519 13.6404 41.0034 13.6533 41.3854C13.6559 41.8249 13.6584 42.2644 13.6613 42.7033C13.6344 42.7003 13.6076 42.6969 13.5808 42.6933C13.5994 42.7759 13.6179 42.8584 13.6363 42.941C13.6163 42.9285 13.5964 42.9167 13.5766 42.9042C13.6536 43.2919 13.6933 43.6374 13.6722 44.0904C13.6718 44.0993 13.6183 44.076 13.6169 44.0833C13.6119 44.1344 13.6197 44.1886 13.6275 44.2411L13.6334 44.8745L13.1778 44.4274C13.1352 44.3958 13.0937 44.3654 13.0654 44.3303C12.9286 44.1606 12.7507 43.8178 12.7645 44.0333C12.428 43.6552 11.974 43.2694 11.653 42.9093C11.5141 42.7536 11.5297 42.6497 11.4626 42.5757C11.3956 42.5018 11.3801 42.589 11.3531 42.566C11.1914 42.4271 10.9461 42.1776 10.9775 42.0941C10.9243 42.0868 10.8691 42.078 10.8154 42.0705C10.8971 42.0247 10.4062 41.5866 10.2859 41.4631C10.2639 41.4406 10.2888 41.4096 10.2717 41.3931C10.0809 41.2094 9.99138 41.2074 9.81649 41.0616C9.75509 41.0105 9.89155 41.0486 9.72586 40.9254C9.71449 40.9169 9.68884 40.9466 9.59454 40.8755C9.57529 40.8626 9.55247 40.845 9.52344 40.8222C9.42916 40.7462 9.26448 40.6739 9.08432 40.6782C8.76006 40.6816 8.41223 40.6817 8.15261 40.6645C8.11461 40.662 8.2303 40.5939 8.05649 40.6098C7.99354 40.6154 8.0237 40.6638 7.87108 40.6642C7.27963 40.6662 6.64898 40.6106 6.04565 40.6568C6.06764 40.6021 6.28254 40.5408 5.95951 40.5751C5.90789 40.5808 5.94643 40.6296 5.92327 40.6314C5.80686 40.6401 5.70005 40.63 5.58723 40.6256C5.50895 40.6228 5.42914 40.6182 5.34158 40.6153C5.27356 40.6126 5.25096 40.6485 5.16366 40.6412C5.03407 40.6278 4.9941 40.5614 4.84796 40.5347C4.62254 40.4848 4.54981 40.512 4.36506 40.2703C3.78837 39.8809 3.41755 39.1974 3.41971 38.4967C3.41527 37.6971 3.417 36.8984 3.44246 36.0992C3.41342 35.693 3.38098 35.3182 3.36989 34.8948C3.36666 34.7701 3.43602 34.7463 3.41304 34.5474C3.408 34.5028 3.33356 34.1851 3.47371 34.1388C3.46162 34.0503 3.46121 33.9944 3.45375 33.9184C3.43318 33.976 3.41239 34.0355 3.39162 34.0907C3.414 33.77 3.36459 33.5082 3.3412 33.2243C3.32407 33.0154 3.38417 33.1637 3.37813 33.0355C3.37228 32.9072 3.35876 32.8489 3.43074 32.6886C3.34769 32.5627 3.40594 32.479 3.40816 32.2469C3.40836 32.2219 3.37615 32.0777 3.38258 31.9572C3.38722 31.8705 3.43901 31.8449 3.43098 31.7072C3.42977 31.6846 3.36561 31.3936 3.35975 31.3009C3.35048 31.1566 3.41687 30.9273 3.41768 30.8994C3.42936 30.4939 3.36382 30.3376 3.4717 30.0496C3.40758 29.9914 3.37006 29.7511 3.3763 29.5569C3.37921 29.4659 3.39909 29.341 3.41587 29.2164C3.44215 28.9714 3.51474 28.747 3.44329 28.6771C3.59799 28.3773 3.54071 28.3967 3.73374 28.0544C3.88705 27.7079 4.69714 27.1953 4.98442 27.1587C5.25644 27.0805 5.10769 27.0409 5.21989 27.0078C5.40787 26.9637 5.31234 27.0337 5.4406 27.0215C5.49052 27.0178 5.53873 27.0158 5.58723 27.0151C5.84846 27.011 6.08604 26.9999 6.3435 26.9785C6.35953 27.0184 6.37677 27.0585 6.3934 27.0985C6.40883 27.0852 6.42419 27.0718 6.43962 27.0585C6.50374 27.0589 6.57562 27.0581 6.635 27.0593C6.13393 26.8841 7.11898 27.0723 7.4147 27.0767C7.66411 27.0804 8.07927 26.9973 8.35303 26.9793C8.41946 26.9749 8.3738 27.018 8.38743 27.017C8.54776 27.0047 8.57209 26.9753 8.78765 26.9793C8.90165 26.9815 9.01802 27.0355 9.12905 27.0366C9.94436 27.0438 10.7312 26.9896 11.5412 26.9837C11.6789 26.9827 11.7978 27.0486 11.9136 27.0501C12.0792 27.0521 12.1837 26.9981 12.3393 26.9973C12.4942 26.9965 12.7176 27.061 12.8227 27.0511C12.9232 27.0418 12.7632 26.9843 12.9172 26.9942L13.2527 26.9894L13.2577 27.3348C13.2573 27.3418 13.2567 27.3495 13.2559 27.358C13.2481 27.4463 13.2015 27.2902 13.2001 27.3994C13.1992 27.467 13.2008 27.5401 13.2034 27.6168C13.2128 27.9128 13.271 28.254 13.2742 28.5331C13.2854 28.5158 13.2943 28.4932 13.3046 28.4728C13.3575 28.8332 13.4063 29.1567 13.533 29.5155C13.5766 29.6418 13.7077 29.8456 13.7645 29.9614C13.8208 30.078 13.809 30.1507 13.858 30.2434C13.8783 30.2814 13.9049 30.2474 13.9182 30.2728C14.087 30.5877 14.1401 30.7942 14.3841 31.0879C15.2811 32.1575 16.6277 32.8812 18.0187 33.0119C18.0748 33.0174 18.1179 32.9702 18.1988 32.9696C18.3237 32.968 18.3272 33.0129 18.3439 33.0158C18.4532 33.0316 18.41 32.9879 18.5561 32.9919C18.5907 32.9926 18.6277 32.9935 18.6667 32.9942C19.0096 33.0006 19.4842 33.0302 19.79 33.0273C20.5798 33.0199 21.2437 32.9795 22.018 32.9591C22.0739 32.9575 22.036 33.0188 22.1328 33.0196C22.815 33.0261 22.9594 32.9674 23.8085 32.9839C24.1332 32.9902 24.568 32.9996 25.0368 33.0092L25.3886 33.0041L25.3938 33.3662C25.3784 34.1237 25.3622 34.97 25.357 35.584C25.3568 35.584 25.3567 35.584 25.3565 35.584C25.4698 35.8969 25.4417 36.3018 25.356 36.6379C25.1975 35.5386 25.1689 34.4663 25.1718 33.3662L25.1698 33.2293L25.0368 33.2312C24.1973 33.229 23.3416 33.2084 22.4456 33.2132C21.2163 33.2197 19.9411 33.2874 18.6667 33.34C17.6896 33.3836 16.6896 33.1529 15.8532 32.6687C15.6726 32.5633 15.6365 32.464 15.4844 32.3796C15.4586 32.365 15.4945 32.4492 15.4161 32.4023C14.3232 31.7495 13.5668 30.5466 13.1736 29.3933C13.0674 29.0798 13.0022 29.0422 12.927 28.7556C12.9628 28.8011 12.9966 28.8288 13.0321 28.8668C12.9665 28.4516 12.9356 28.0339 12.9431 27.6168C12.9448 27.5228 12.9462 27.4288 12.9472 27.3348L12.9468 27.3043L12.9172 27.3047C12.1014 27.2953 11.2829 27.3063 10.4587 27.2992C10.3981 27.2985 10.3904 27.2443 10.3268 27.2423C10.1998 27.238 10.0781 27.2977 9.96706 27.2998C9.82216 27.3024 9.79709 27.2592 9.66347 27.262C9.59826 27.2635 9.61776 27.305 9.47597 27.2979C9.4641 27.2973 9.45633 27.2538 9.36199 27.2594C9.1037 27.2749 8.57578 27.3115 8.36196 27.3223C8.08885 27.3363 7.8697 27.2707 7.76635 27.2664C7.48729 27.2549 7.49309 27.3221 7.25687 27.3221C6.69439 27.3222 6.14018 27.3138 5.58723 27.3025C4.58499 27.2565 3.60678 28.1385 3.61862 29.2164C3.61786 29.3446 3.61747 29.4733 3.61751 29.6026C3.61754 29.7108 3.69229 30.1108 3.68929 30.3109C3.68808 30.378 3.66834 30.7287 3.66671 30.7812C3.66046 30.9944 3.61527 31.1786 3.60579 31.2962C3.58726 31.5242 3.65782 31.779 3.66488 31.9031C3.67737 32.121 3.6681 32.508 3.66628 32.5996C3.66185 32.8205 3.57456 32.7475 3.59493 32.906C3.60101 32.9529 3.66793 32.9038 3.66793 33.0689C3.6677 33.2071 3.61731 33.2631 3.60824 33.3575C3.59922 33.4519 3.67715 33.6251 3.67519 33.6839C3.6643 33.9915 3.61324 34.1276 3.61062 34.4626C3.60861 34.7407 3.64433 36.0262 3.66268 36.133C3.74467 36.6117 3.70789 35.8145 3.71066 35.7696C3.72659 35.5267 3.75805 35.5623 3.69796 35.32C3.88328 35.1032 3.59474 34.3478 3.81454 34.1542C3.66814 33.9541 3.74195 33.786 3.77139 33.5752C3.81208 33.2838 3.72676 33.5057 3.72616 33.2931C3.726 33.2093 3.7925 32.9665 3.78323 32.8406C3.77393 32.7148 3.72294 32.6618 3.72012 32.4932C3.71488 32.1922 3.73868 31.9499 3.79977 31.697C3.77276 31.6507 3.74573 31.6074 3.71871 31.5617C3.74775 31.3871 3.77661 31.2119 3.80545 31.0373C3.78185 31.0652 3.75805 31.0931 3.73446 31.1211C3.73103 31.07 3.7278 31.0188 3.72457 30.9677C3.76006 30.7979 3.79292 30.6357 3.82962 30.4611C3.69314 29.9867 3.81126 30.1244 3.82901 29.8608C3.84673 29.5972 3.76772 29.4446 3.7673 29.241C3.76728 29.2327 3.76725 29.2245 3.76722 29.2164C3.77161 28.9679 3.78256 28.8412 3.87095 28.5963C3.92417 28.4478 4.12319 28.2565 3.91349 28.3916C4.1019 27.9285 4.68082 27.4487 5.13692 27.4111C5.26656 27.3952 5.10744 27.4717 5.13076 27.4715C5.23888 27.4667 5.31759 27.3903 5.43235 27.3891C5.47624 27.3888 5.52942 27.3912 5.58723 27.3974C5.78307 27.4177 6.03061 27.448 6.1468 27.4566C6.36474 27.473 6.70738 27.3931 6.74241 27.3872C6.93829 27.3548 6.9907 27.4211 7.05361 27.4165C7.41167 27.3899 7.49071 27.3621 7.60352 27.502C7.69621 27.4415 8.08455 27.3397 8.17839 27.4415C8.1808 27.3496 8.50319 27.365 8.70152 27.3421C8.73834 27.3687 8.77578 27.3951 8.8126 27.422C9.22649 27.2574 10.0507 27.3769 10.5952 27.3965C10.6089 27.3969 10.6333 27.328 10.7152 27.3435C10.7204 27.3448 10.712 27.3758 10.767 27.3798C10.9481 27.3927 11.6392 27.47 11.7187 27.4707C12.0115 27.4733 12.0626 27.4219 12.2408 27.4171C12.4753 27.4106 12.5092 27.457 12.7324 27.4504C12.7922 27.4487 12.8488 27.4279 12.9172 27.4121L12.8398 27.3348C12.8517 27.3859 12.8608 27.4436 12.8571 27.5139C12.8544 27.5648 12.8401 27.5917 12.8264 27.6168C12.814 27.6402 12.8021 27.6623 12.8008 27.7C12.7918 27.9807 12.8392 28.1819 12.8108 28.4377C12.9707 28.4801 12.8772 28.6129 12.8896 28.737C12.9341 29.2423 13.2062 29.8184 13.3869 30.2048C13.9441 31.4183 14.7807 32.391 15.9723 33.0214C16.1674 33.1208 16.2467 33.0728 16.4536 33.1628C16.547 33.2024 16.6261 33.2924 16.7859 33.3462C16.9145 33.3897 17.108 33.4167 17.2709 33.4554C17.3142 33.4656 17.3063 33.5173 17.3712 33.5321C17.799 33.6282 18.2321 33.6465 18.6667 33.6226C18.7286 33.6191 18.7906 33.6156 18.853 33.6123C19.0317 33.6028 19.1422 33.6718 19.1119 33.5518C19.1802 33.5813 19.2466 33.6069 19.3107 33.6359C19.5566 33.5603 19.7574 33.6391 20.0899 33.6197C20.1258 33.6174 20.3769 33.5345 20.5193 33.5944C20.5294 33.5516 20.5073 33.5153 20.5114 33.4766C20.6521 33.4603 20.8683 33.5097 20.9634 33.5147C21.0583 33.5197 21.1218 33.4642 21.1504 33.4637C21.259 33.4623 21.2337 33.5353 21.242 33.5365C21.7485 33.6065 21.6952 33.5676 22.001 33.4581C22.0776 33.4304 22.5975 33.5107 22.7027 33.4242C22.7074 33.4595 22.6784 33.4905 22.6701 33.5242C22.8263 33.5332 22.9837 33.5426 23.1404 33.5516C23.1072 33.5178 23.0673 33.4838 23.037 33.4498C23.357 33.4792 23.6231 33.3994 23.885 33.402C24.0346 33.4036 24.0164 33.4784 24.1042 33.4621C24.1214 33.4589 24.0924 33.4083 24.1434 33.4042C24.5167 33.3748 24.7019 33.4147 25.0368 33.4305L24.9725 33.3662C24.9707 33.4048 24.9692 33.4453 24.9682 33.4884C24.9633 33.6837 25.0553 33.8547 24.9948 34.1349C24.9891 34.1605 24.9075 34.4354 25.0244 34.6053C24.9875 34.6593 24.9681 34.707 24.9371 34.7473C25.1107 35.0912 24.9405 34.9962 24.9002 35.4611C24.8793 35.7017 24.9097 36.511 24.9282 36.7729C24.9395 36.9288 25.0078 36.926 25.0105 36.9538C25.0262 37.1201 24.9601 37.1202 24.971 37.274C24.9818 37.4278 25.0567 37.6221 25.0498 37.78C25.0445 37.901 24.9624 37.8056 24.991 37.9843C24.9972 38.0213 25.0669 37.9156 25.0396 38.1041C25.0353 38.1338 24.9599 38.4349 24.9436 38.4967C24.8998 38.3381 24.8427 37.8785 24.825 37.7057C24.7094 36.584 24.637 35.0333 24.5936 33.3662L25.0368 33.8094C22.8829 33.8654 20.5349 33.8729 18.6667 33.862C18.0997 33.8592 17.5762 33.7773 17.1238 33.656C16.8133 33.5719 16.64 33.4341 16.4506 33.3549C16.2615 33.2729 16.3985 33.3997 16.2269 33.3221C16.0555 33.2419 15.9526 33.1406 15.8002 33.0559C14.77 32.4819 13.9193 31.6048 13.3656 30.5918C13.2225 30.3297 13.0717 30.1345 12.969 29.8788C12.9298 29.7791 12.9934 29.7514 12.9669 29.6812C12.7175 29.0048 12.5483 28.3353 12.5411 27.6168C12.5404 27.5359 12.5404 27.4546 12.5413 27.3727C12.5414 27.3601 12.5416 27.3474 12.5419 27.3348L12.9172 27.7101C12.6109 27.7028 12.2829 27.649 11.9813 27.6438C11.7224 27.6391 11.4541 27.6788 11.2213 27.6797C11.095 27.6803 11.0283 27.6278 10.9826 27.6236C10.8234 27.6099 10.8791 27.674 10.7977 27.674C10.5733 27.6738 10.4617 27.5964 10.2515 27.6024C10.169 27.6049 10.1796 27.6542 10.0598 27.6619C9.90778 27.6716 9.96399 27.6261 9.85544 27.6244C9.84891 27.6242 9.8702 27.6595 9.81264 27.6609C9.44208 27.6702 8.97943 27.698 8.62194 27.6956C7.88265 27.6907 7.15286 27.6228 6.46404 27.6095C6.29005 27.6062 6.33623 27.6522 6.281 27.6544C6.01502 27.6649 5.92001 27.6099 5.64153 27.6297C5.63059 27.6304 5.61184 27.6346 5.58723 27.6402C5.51923 27.6581 5.4078 27.6986 5.29756 27.7078C5.21947 27.7136 5.12148 27.6999 5.05255 27.715C4.98391 27.7305 4.99538 27.7885 4.92276 27.8224C4.79312 27.8905 4.80614 27.8292 4.63439 27.9601C4.56257 28.0129 4.39036 28.2474 4.28207 28.4314C4.15016 28.6376 4.03164 28.9122 4.01718 29.2164C4.01046 29.3719 4.00571 29.5285 4.00546 29.6827C4.00506 29.8585 4.06516 30.0843 4.06577 30.3568C4.06657 30.69 4.05291 31.3038 4.0521 31.6452C4.05169 31.8198 3.98874 31.8324 3.98612 31.8532C3.9686 31.9867 4.03894 31.9328 4.03617 32.0223C4.03233 32.1453 3.98045 32.26 3.97702 32.3716C3.97483 32.4428 4.02667 32.4541 4.02707 32.4696C4.04421 33.0408 4.03937 33.5456 4.04502 34.1133C4.0593 35.5701 4.08198 37.0336 4.09846 38.4967C4.09158 39.2894 4.80964 39.9854 5.58723 39.965C6.19436 39.9644 6.80061 39.9666 7.40547 39.9726C7.66022 39.975 7.6698 40.0403 7.89367 40.0301C8.11754 40.02 8.33382 39.8788 8.5179 40.0347C8.52384 40.0032 8.52326 39.9808 8.5292 39.9522C8.71445 39.9699 8.89971 39.9732 9.08432 39.9704C9.45723 39.9647 9.83551 40.1046 10.1026 40.3674C10.1102 40.3747 10.1177 40.382 10.1252 40.3893C10.365 40.6231 10.5714 40.8367 10.7878 41.0579C10.9794 41.254 10.9239 41.2761 11.1423 41.3933C11.945 42.2593 12.796 43.0949 13.5706 43.9748C13.5849 43.9805 13.5988 43.9865 13.6123 43.9929L13.0131 44.2411C12.92 43.9817 12.9873 43.7266 13.0037 43.3667C13.0059 43.3198 12.9632 43.3701 12.9668 43.2311C12.9712 43.0567 13.0366 42.9664 13.0329 42.6726C13.0319 42.5948 12.9595 42.0186 12.9966 41.8054C13.0176 41.6849 13.0337 41.534 13.0501 41.3854C13.0623 41.2358 13.1025 41.0925 13.1562 40.9812C13.1169 41.0103 13.0768 41.0535 13.0398 41.0941C13.0669 40.9468 13.1196 40.8024 13.1939 40.671C13.2341 40.6697 13.2739 40.6702 13.3129 40.6729C13.3317 40.5877 13.3607 40.5019 13.3998 40.4167C13.6593 40.4221 13.4516 40.4839 13.7688 40.2342C13.9398 40.1227 14.108 40.1072 14.311 40.0786C14.3326 40.0757 14.3521 40.0696 14.3712 40.0623C14.4061 40.0447 14.4377 40.0179 14.4825 40.0133C14.6381 39.9976 14.5474 40.0677 14.6435 40.0673C14.7403 40.0667 14.8792 39.9897 15.0526 40.024C14.8716 40.1613 15.3948 40.1165 15.4198 40.0098C15.4821 40.0097 15.5343 40.0141 15.6031 40.0111C15.5395 40.2805 15.8657 40.0893 15.9952 40.0524C16.1245 40.0155 16.1193 40.0879 16.1496 40.0851C16.2368 40.0772 16.1733 40.0472 16.2344 40.0462C16.6394 40.0401 17.0207 40.0843 17.4204 40.0883C17.4779 40.0889 17.4269 40.048 17.4939 40.052C17.561 40.0561 17.6253 40.0968 17.7245 40.094C17.7511 40.0932 17.7595 40.0573 17.8009 40.0573C18.6697 40.0589 19.4946 40.0895 20.3806 40.0941C20.4607 40.0945 20.5237 40.0307 20.6786 40.0329C20.8336 40.0351 21.0687 40.0927 21.2611 40.0972C21.3122 40.0984 21.326 40.0452 21.3937 40.0466C21.6241 40.0514 21.8225 40.0948 22.0618 40.1018C22.4187 40.1123 22.7904 40.0883 23.1548 40.1041C23.1966 40.1062 23.2378 40.1074 23.2795 40.1079C23.3463 40.1077 23.3405 40.1543 23.4414 40.151C23.6158 40.1387 23.5363 40.0863 23.5675 40.0707C23.665 40.0147 23.7265 40.0842 23.8203 40.0206C23.8342 40.0108 23.792 39.9736 23.8051 39.967C23.9994 39.8625 24.0819 39.9542 24.2365 39.7474C24.4492 39.6486 24.1849 39.9185 24.1635 39.9663C24.1267 40.0982 24.4185 40.0321 24.5665 39.9257C24.6926 39.8386 24.6484 39.7995 24.6863 39.7554C24.8955 39.5199 25.0654 39.083 25.122 38.851C25.1623 38.7101 25.1389 38.9734 25.1699 38.9036C25.2023 38.8325 25.1685 38.7792 25.2218 38.7069C25.2765 38.6374 25.4119 38.4699 25.4749 38.5009ZM6.3017 40.5193C6.7542 40.3015 7.95421 40.3242 8.59853 40.345C8.77433 40.3507 8.94217 40.3727 9.08432 40.391C9.37087 40.4324 9.50819 40.5579 9.5082 40.3721C9.36927 40.3136 9.22462 40.2877 9.08432 40.2895C8.67384 40.2952 8.29213 40.3079 7.82723 40.3023C7.76369 40.3015 7.38472 40.2789 7.25289 40.2749C7.17868 40.2726 7.1763 40.2325 7.07536 40.2329C7.05339 40.2331 6.9316 40.2856 6.88707 40.2841C6.7345 40.2795 6.28075 40.1989 6.2174 40.2013C6.04171 40.2081 6.10914 40.2705 6.03331 40.2819C5.81213 40.3145 5.76182 40.2481 5.58723 40.2499C5.56236 40.2502 5.53494 40.2516 5.50381 40.2541C5.46334 40.2576 5.30969 40.332 5.13242 40.2756C5.06034 40.2536 4.95641 40.1731 4.90555 40.1532C4.62362 40.053 4.3076 39.8774 4.13777 39.6432C4.0038 39.4508 4.09703 39.4654 4.04285 39.36C3.99205 39.2551 3.86961 39.1494 3.8396 39.0688C3.78924 38.9418 3.80303 38.7728 3.79829 38.7333C3.78666 38.6541 3.78009 38.5755 3.77822 38.4967C3.76133 37.7532 3.72067 37.0728 3.70504 36.3408C3.6762 36.8924 3.64974 37.4435 3.61989 37.9916C3.68523 38.3027 3.62397 38.1478 3.6036 38.3527C3.59765 38.4124 3.60893 38.4555 3.62494 38.4967C3.6531 38.571 3.69464 38.6338 3.70531 38.7691C3.70529 38.7689 3.70526 38.7687 3.70524 38.7685C3.71206 38.8756 3.69202 39.1429 3.83163 39.3507C3.83779 39.3573 3.8931 39.355 3.98614 39.5035C4.18972 39.8496 4.70474 40.211 5.13529 40.3116C5.26029 40.3435 5.22264 40.3996 5.3794 40.4272C5.44128 40.4367 5.51029 40.4262 5.58723 40.4138C5.65139 40.4033 5.72249 40.3946 5.80326 40.4003C6.02357 40.4162 6.12926 40.5122 6.28069 40.3789C6.29316 40.4265 6.28685 40.4729 6.3017 40.5193ZM13.6132 40.7609C13.6331 40.7169 14.0224 40.6171 13.8457 40.5499C13.5484 40.6841 13.3334 41.0276 13.3338 41.3854C13.3303 41.6282 13.3267 41.8726 13.3108 42.1143C13.4387 41.9513 13.4214 41.6964 13.4043 41.3854C13.4004 41.3174 13.4037 41.2456 13.4177 41.1729C13.4177 41.1727 13.4177 41.1726 13.4178 41.1724C13.4216 41.1546 13.4436 41.2374 13.461 41.1354C13.466 41.0899 13.481 40.8703 13.6132 40.7609Z" fill="#A9A9A6"/>
<path d="M42.9049 13.2329H23.2668C22.7107 13.2329 22.2598 13.6839 22.2598 14.24C22.2598 14.7964 22.7107 15.2471 23.2668 15.2471H42.9049C43.461 15.2471 43.912 14.7964 43.912 14.24C43.912 13.6839 43.461 13.2329 42.9049 13.2329Z" fill="#A9A9A6"/>
<path d="M42.9027 13.6711C42.6006 13.7243 42.2989 13.7471 41.9881 13.7239C41.9173 13.7186 41.924 13.6775 41.8949 13.6708C41.8414 13.6585 41.7516 13.7029 41.739 13.7029C41.6609 13.7035 41.6914 13.6315 41.6809 13.6287C41.5637 13.5995 41.5974 13.6815 41.4854 13.6894C41.3394 13.6997 41.1522 13.685 40.9763 13.681C40.9146 13.6793 40.9421 13.6245 40.8088 13.6291C40.7144 13.6324 40.4248 13.6948 40.2914 13.6281C40.2906 13.6029 40.3075 13.5751 40.3146 13.5491C40.1234 13.6541 40.055 13.6495 39.784 13.6239C39.7411 13.6199 39.7005 13.663 39.625 13.6471C39.5495 13.6311 39.5463 13.5646 39.3945 13.5654C39.3406 13.5659 39.3079 13.6128 39.2254 13.6148C38.9905 13.6206 38.5433 13.5624 38.3505 13.5603C37.9709 13.5563 37.7644 13.6364 37.4273 13.6086C37.4013 13.6066 37.4583 13.5551 37.4107 13.5541C37.3627 13.5531 37.3128 13.6212 37.301 13.6229C37.1735 13.6404 36.9042 13.5491 36.8333 13.5602C36.661 13.5872 36.8308 13.6172 36.5921 13.6301C36.3647 13.6424 36.0508 13.5537 35.8254 13.5364C35.5642 13.5162 35.48 13.645 35.2833 13.5105C34.5926 13.5184 33.8991 13.5232 33.2076 13.5301C33.2095 13.5033 33.2118 13.4764 33.2142 13.4496C33.1595 13.4682 33.1048 13.4868 33.0501 13.5051C33.0584 13.4852 33.0662 13.4652 33.0745 13.4454C32.8176 13.5224 32.5887 13.5622 32.2887 13.541C32.2828 13.5406 32.2982 13.4871 32.2934 13.4858C32.2257 13.4757 32.1501 13.5168 32.0907 13.5071C31.9471 13.4839 31.7032 13.3674 31.8106 13.5099C31.4759 13.4805 31.0825 13.5287 30.7635 13.5011C30.6255 13.4892 30.5841 13.4047 30.518 13.3998C30.452 13.395 30.4856 13.4676 30.4622 13.4704C30.3214 13.4865 30.0896 13.4835 30.0652 13.4023C30.0369 13.4347 30.0069 13.4676 29.9782 13.5002C29.9951 13.4101 29.5599 13.4474 29.4457 13.4452C29.4249 13.4448 29.422 13.4053 29.4062 13.4057C29.2309 13.4107 29.188 13.4726 29.0378 13.4932C28.9851 13.5005 29.0668 13.4309 28.9315 13.4609C28.9197 13.4636 28.926 13.5261 28.7643 13.5257C28.5062 13.5251 28.0126 13.5499 27.7054 13.519C27.6802 13.5166 27.7568 13.4485 27.6417 13.4643C27.6 13.47 27.62 13.5184 27.5189 13.5188C27.1271 13.5208 26.7093 13.4652 26.3096 13.5113C26.3242 13.4567 26.4666 13.3954 26.2526 13.4297C26.2184 13.4353 26.2439 13.4841 26.2286 13.4859C26.1043 13.5 25.9965 13.4652 25.862 13.4839C25.8223 13.4896 25.8124 13.5279 25.7629 13.537C25.6897 13.5505 25.6573 13.4958 25.5724 13.519C25.4395 13.5555 25.419 13.6073 25.2542 13.5057C24.5902 13.5103 23.9284 13.5261 23.2668 13.5187C23.0731 13.5152 22.8808 13.5876 22.7326 13.7223C22.6184 13.8832 22.5836 14.059 22.5945 14.24C22.5948 14.2451 22.5952 14.2502 22.5956 14.2552C22.6016 14.3088 22.5309 14.33 22.5745 14.4177C22.5828 14.443 22.7003 14.5369 22.5937 14.6249C22.6267 14.6577 22.643 14.6803 22.6722 14.7057C22.6706 14.6705 22.6716 14.6352 22.6761 14.6029C22.7368 14.7419 22.8728 14.7897 22.9876 14.8192C23.0747 14.8388 22.9941 14.87 23.0494 14.8842C23.1071 14.8961 23.1279 14.8887 23.1954 14.9688C23.2235 14.937 23.2433 14.9277 23.2668 14.9277C23.3149 14.9278 23.3713 14.9484 23.4615 14.9497C23.478 14.9499 23.5736 14.9177 23.6534 14.9241C23.7108 14.9287 23.7278 14.9805 23.819 14.9725C23.834 14.9713 24.0268 14.9071 24.0881 14.9013C24.1837 14.892 24.3356 14.9584 24.3541 14.9592C24.6228 14.9709 24.7263 14.9053 24.9171 15.0132C24.9556 14.9491 25.1148 14.9116 25.2434 14.9178C25.4059 14.9257 25.7317 15.0568 25.7761 14.9182C25.9641 14.9799 25.9437 14.9418 26.1667 14.9406C26.3696 14.9394 26.907 14.9924 27.0715 14.9848C27.2359 14.9773 27.1558 14.9003 27.2211 14.89C27.328 14.8729 27.2702 14.9297 27.3434 14.9289C27.5503 14.9265 27.7301 14.9156 27.9276 14.8908C27.9382 14.9307 27.9496 14.9708 27.9606 15.0108C27.9708 14.9975 27.981 14.9841 27.9912 14.9708C28.0337 14.9712 28.0813 14.9704 28.1207 14.9716C27.7887 14.7964 28.4413 14.9846 28.6372 14.989C28.8024 14.9927 29.0774 14.9096 29.2587 14.8916C29.3027 14.8872 29.2725 14.9303 29.2815 14.9293C29.3877 14.917 29.4039 14.8876 29.5466 14.8916C29.6222 14.8938 29.6993 14.9478 29.7728 14.9489C30.3129 14.9561 30.8341 14.9019 31.3707 14.896C31.4619 14.895 31.5407 14.9609 31.6174 14.9624C31.7271 14.9644 31.7963 14.9104 31.8994 14.9096C32.002 14.9088 32.15 14.9733 32.2196 14.9634C32.2893 14.9537 32.1701 14.8912 32.2976 14.9083C32.3561 14.9162 32.2527 14.9628 32.3251 14.9642C32.5508 14.9686 32.8695 14.911 33.1098 14.9668C33.0992 14.9529 33.0847 14.9404 33.0717 14.9271C33.3278 14.9325 33.554 14.966 33.8184 14.9708C33.9108 14.9726 34.0775 14.9318 34.1684 14.932C34.2592 14.9322 34.3006 14.9765 34.3733 14.9777C34.4032 14.9783 34.3915 14.9386 34.4116 14.9394C34.6625 14.9499 34.8002 15.0206 35.0629 15.0126C36.0255 14.9831 37.0181 14.9577 37.9956 14.9311C38.0349 14.9301 38.0614 14.8783 38.1188 14.8706C38.2072 14.8588 38.2116 14.9045 38.2234 14.9061C38.3004 14.9162 38.269 14.8739 38.3724 14.8739C38.6002 14.8739 38.9676 14.9114 39.1946 14.9082C39.7178 14.9007 40.1576 14.8603 40.6705 14.84C40.7075 14.8384 40.6824 14.8997 40.7465 14.9005C41.1985 14.9069 41.2941 14.8482 41.8566 14.8648C42.1251 14.8726 42.5072 14.8852 42.9049 14.8971C43.1964 14.92 43.4778 14.6957 43.5516 14.4724C43.5517 14.4725 43.5519 14.4725 43.552 14.4726C43.5221 14.386 43.5137 14.3156 43.518 14.24C43.5221 14.1666 43.5376 14.0905 43.5518 14.0053C43.6031 14.0716 43.6405 14.1519 43.6597 14.24C43.766 14.6476 43.376 15.1248 42.9049 15.1118C42.2734 15.1162 41.631 15.0886 40.9537 15.0941C39.5124 15.1056 37.9759 15.3087 36.5154 15.281C36.3781 15.2784 36.3229 15.2139 36.2073 15.2274C36.1877 15.2297 36.2383 15.2794 36.1782 15.2844C35.3521 15.3522 34.4714 15.2388 33.6602 15.2703C33.4415 15.2788 33.4072 15.3342 33.2149 15.3485C33.2487 15.3223 33.2708 15.2949 33.3003 15.2685C32.4223 15.1866 31.543 15.2231 30.6536 15.2114C30.6135 15.2108 30.6083 15.1566 30.5663 15.1546C30.4821 15.1503 30.4015 15.21 30.3279 15.2121C30.2319 15.2147 30.2153 15.1715 30.1268 15.1743C30.0836 15.1758 30.0965 15.2173 30.0026 15.2102C29.9947 15.2096 29.9896 15.1661 29.9271 15.1717C29.756 15.1872 29.4063 15.2237 29.2647 15.2346C29.0837 15.2486 28.9386 15.183 28.8701 15.1787C28.6852 15.1672 28.6891 15.2344 28.5326 15.2344C27.4186 15.2348 26.3536 15.1584 25.2132 15.159C25.1415 15.159 24.8765 15.2338 24.744 15.2308C24.6996 15.2296 24.4672 15.2098 24.4324 15.2082C24.2912 15.202 24.1692 15.1568 24.0913 15.1473C23.9402 15.1288 23.7714 15.1993 23.6892 15.2064C23.5663 15.217 23.3622 15.2119 23.2668 15.209C23.2507 15.2085 23.2379 15.2077 23.2293 15.2071C23.0884 15.1921 23.1486 15.1093 23.0533 15.1109C23.025 15.1091 23.037 15.1854 22.9367 15.1518C22.8533 15.1201 22.8449 15.0574 22.8013 15.0218C22.7588 14.988 22.627 14.9834 22.5997 14.9534C22.4673 14.8045 22.461 14.7028 22.397 14.5155C22.3824 14.4677 22.3521 14.3659 22.3478 14.24C22.314 13.9387 22.5558 13.5851 22.5896 13.5537C22.7673 13.282 22.4002 13.6659 22.4054 13.7083C22.3134 13.8396 22.29 13.815 22.3 13.9856C22.2224 14.0177 22.1947 14.1241 22.2056 14.24C22.2202 14.4561 22.3689 14.6408 22.2924 14.7845C22.4901 14.8344 22.4922 14.9516 22.5918 15.074C22.7347 15.2287 22.6554 15.0707 22.7787 15.1446C22.8243 15.1729 22.9599 15.2982 23.0543 15.3039C23.1357 15.3104 23.1781 15.2731 23.2668 15.2638C23.2767 15.2627 23.2871 15.2619 23.2983 15.2616C23.4977 15.2564 23.6582 15.2802 23.8258 15.3413C23.8565 15.3143 23.8851 15.2872 23.9154 15.2602C24.031 15.2893 24.1471 15.3181 24.2628 15.347C24.2443 15.3234 24.2258 15.2996 24.2073 15.276C24.2411 15.2725 24.2751 15.2693 24.3089 15.2661C24.4214 15.3016 24.5288 15.3344 24.6445 15.3711C24.9587 15.2346 24.8675 15.3528 25.0422 15.3705C25.2168 15.3882 25.3178 15.3092 25.4527 15.3088C25.6344 15.3082 25.7179 15.2983 25.9012 15.304C26.0074 15.3072 26.1876 15.3834 26.0397 15.2627C26.3713 15.253 26.8253 15.2193 27.1219 15.2683C27.2095 15.2826 27.0927 15.3206 27.1077 15.3253C27.182 15.3477 27.2446 15.286 27.3213 15.2949C27.4487 15.3096 27.6969 15.3576 27.7973 15.3689C27.9416 15.3853 28.1686 15.3054 28.1918 15.2995C28.3216 15.2671 28.3563 15.3334 28.398 15.3288C28.6351 15.3022 28.6875 15.2744 28.7622 15.4143C28.8236 15.3538 29.0809 15.252 29.143 15.3538C29.1446 15.2618 29.3582 15.2773 29.4896 15.2544C29.514 15.281 29.5388 15.3074 29.5632 15.3343C29.8373 15.1697 30.3833 15.2892 30.7441 15.3088C30.7531 15.3092 30.7693 15.2403 30.8236 15.2558C30.827 15.2571 30.8214 15.2881 30.8578 15.2921C30.9778 15.305 31.4356 15.3823 31.4883 15.383C31.6822 15.3856 31.7161 15.3342 31.8341 15.3294C31.9895 15.3229 32.0119 15.3693 32.1598 15.3627C32.229 15.3597 32.292 15.2986 32.4009 15.3072C32.4654 15.3123 32.4718 15.3602 32.5229 15.3641C32.7046 15.378 32.8381 15.3477 32.9993 15.4102C33.0414 15.2576 33.1185 15.3701 33.1984 15.3816C33.5225 15.4286 33.9265 15.3641 34.2046 15.378C35.0723 15.4218 35.8418 15.5159 36.6895 15.5371C36.8272 15.5405 36.8604 15.4639 37.0047 15.4687C37.0696 15.471 37.1365 15.5264 37.2427 15.5273C37.328 15.528 37.4503 15.4998 37.5569 15.5C37.5852 15.5 37.5877 15.5521 37.6294 15.5525C37.9457 15.5555 38.2545 15.5185 38.5739 15.4931C38.6923 15.4837 38.7655 15.5526 38.7454 15.4326C38.7907 15.4621 38.8346 15.4877 38.8771 15.5168C39.04 15.4411 39.173 15.5199 39.3933 15.5006C39.417 15.4983 39.5833 15.4153 39.6777 15.4752C39.6844 15.4324 39.6697 15.3962 39.6725 15.3574C39.7657 15.3411 39.9089 15.3905 39.9719 15.3955C40.0347 15.4006 40.0768 15.3451 40.0957 15.3445C40.1677 15.3431 40.1509 15.4161 40.1565 15.4173C40.492 15.4873 40.4566 15.4484 40.6592 15.3389C40.71 15.3113 41.0544 15.3915 41.1241 15.305C41.1272 15.3403 41.108 15.3713 41.1025 15.405C41.2059 15.4141 41.3102 15.4234 41.4141 15.4325C41.392 15.3986 41.3656 15.3647 41.3455 15.3306C41.5575 15.36 41.7338 15.2802 41.9072 15.2828C42.0064 15.2844 41.9943 15.3593 42.0525 15.3429C42.0639 15.3397 42.0446 15.2891 42.0784 15.2851C42.3542 15.2522 42.475 15.3056 42.7512 15.3157C42.8031 15.3176 42.8524 15.304 42.9049 15.2909C42.9875 15.2707 43.0672 15.246 43.1875 15.2506C43.2008 15.2568 43.4315 15.2603 43.4653 15.0917C43.5161 15.1025 43.5548 15.0979 43.597 15.1038C43.6564 14.8083 43.7375 15.0061 43.9466 14.7127C43.9951 14.6361 44.0594 14.4405 44.0494 14.24C44.0447 14.0388 43.9664 13.8491 43.9159 13.7677C43.8548 13.6692 43.7942 13.7099 43.7827 13.6946C43.7081 13.6102 43.7596 13.5695 43.6777 13.4958C43.5928 13.4223 43.443 13.4047 43.3564 13.3542C43.2873 13.3158 43.3797 13.2642 43.2532 13.2461C43.2272 13.2446 43.2722 13.33 43.1615 13.2688C43.1482 13.2555 42.9542 13.1505 42.9049 13.1397C43.016 13.0811 43.3838 13.1128 43.5111 13.1824C43.8573 13.3189 44.2146 13.7095 44.2465 14.24C44.3176 14.8863 43.7359 15.6692 42.9049 15.6805C41.0218 15.7625 38.8659 15.7551 37.4979 15.7301C37.3024 15.7266 37.1746 15.6548 37.0472 15.6486C36.9197 15.6423 37.0275 15.7081 36.9118 15.7027C36.7962 15.697 36.7119 15.6506 36.6037 15.6466C35.8745 15.6192 35.1397 15.5901 34.4163 15.5774C34.2287 15.5742 34.0787 15.6277 33.908 15.6277C33.8415 15.6276 33.8395 15.5587 33.7923 15.5593C33.2837 15.5647 32.8132 15.6311 32.3073 15.623C32.0973 15.6196 31.8703 15.5615 31.6622 15.5561C31.4908 15.5514 31.313 15.5911 31.1588 15.592C31.0751 15.5926 31.0309 15.5401 31.0007 15.5359C30.8952 15.5222 30.9321 15.5863 30.8782 15.5863C30.7295 15.5861 30.6556 15.5087 30.5163 15.5147C30.4617 15.5172 30.4687 15.5665 30.3893 15.5742C30.2887 15.5839 30.3259 15.5384 30.254 15.5367C30.2497 15.5365 30.2638 15.5718 30.2256 15.5732C29.9802 15.5825 29.6737 15.6103 29.4369 15.6079C28.9471 15.603 28.4637 15.5351 28.0074 15.5218C27.8921 15.5185 27.9227 15.5645 27.8861 15.5667C27.71 15.5772 27.647 15.5222 27.4625 15.542C27.4318 15.5452 27.3083 15.6089 27.1903 15.5927C27.1266 15.5841 27.0542 15.5443 27 15.5351C26.9457 15.5258 26.937 15.5843 26.8718 15.5843C26.753 15.5845 26.7875 15.544 26.6176 15.5512C26.5492 15.5541 26.3206 15.6095 26.1444 15.6053C25.8565 15.5984 25.4996 15.5478 25.1601 15.547C25.0437 15.5466 24.8941 15.6067 24.7135 15.6073C24.4929 15.6081 24.0862 15.5944 23.8601 15.5936C23.7444 15.5932 23.736 15.5302 23.7223 15.5276C23.6338 15.5101 23.6696 15.5804 23.6102 15.5777C23.5288 15.5738 23.4528 15.522 23.3789 15.5185C23.3317 15.5163 23.3242 15.5682 23.314 15.5686C23.2982 15.5693 23.2825 15.57 23.2668 15.5706C22.7908 15.5837 22.361 15.3368 22.1095 14.9286C21.9836 14.7234 21.9142 14.4816 21.9115 14.24C21.8843 13.5199 22.5264 12.8483 23.2668 12.8544C24.5834 12.8289 25.9018 12.8076 27.2104 12.8271C27.3792 12.8295 27.3855 12.8949 27.5338 12.8846C27.6821 12.8745 27.8254 12.7334 27.9474 12.8892C27.9513 12.8578 27.9509 12.8354 27.9548 12.8067C28.2613 12.8511 28.5677 12.8052 28.8675 12.7995C29.0893 12.7953 29.286 12.8003 29.491 12.8037C29.6726 12.807 29.6569 12.8618 29.8142 12.7902C30.5958 12.835 31.3859 12.8241 32.1608 12.8985C32.3425 12.7814 32.5168 12.8552 32.7681 12.8725C32.7992 12.8747 32.7659 12.832 32.8579 12.8356C32.9735 12.8401 33.0333 12.9054 33.2279 12.9018C33.2794 12.9008 33.6611 12.8283 33.8023 12.8654C33.9436 12.9025 34.1481 12.9243 34.2948 12.9598C34.274 12.9318 34.2476 12.905 34.2244 12.8773C34.2976 12.8725 34.3711 12.8678 34.4443 12.863C34.4549 12.8967 34.4655 12.9304 34.4758 12.9643C34.5182 12.9322 34.5608 12.9005 34.6036 12.8681C34.6961 13.0411 34.6013 12.9846 34.807 12.9409C34.9101 12.9191 34.9919 12.9493 35.0977 12.9318C35.1358 12.9253 35.1602 12.8744 35.2022 12.8679C35.3053 12.8522 35.2452 12.9223 35.3089 12.9219C35.373 12.9213 35.4651 12.8443 35.5799 12.8786C35.46 13.0159 35.8066 12.9711 35.8231 12.8644C35.8644 12.8642 35.899 12.8686 35.9446 12.8656C35.9025 13.135 36.1185 12.9439 36.2043 12.9069C36.29 12.8701 36.2865 12.9425 36.3066 12.9397C36.3644 12.9318 36.3223 12.9017 36.3628 12.9007C36.6311 12.8947 36.8837 12.9389 37.1484 12.9429C37.1865 12.9435 37.1527 12.9026 37.1971 12.9066C37.2416 12.9106 37.2842 12.9513 37.3498 12.9485C37.3675 12.9478 37.373 12.9119 37.4005 12.9118C37.976 12.9134 38.5224 12.9441 39.1093 12.9487C39.1624 12.9491 39.2041 12.8852 39.3068 12.8874C39.4094 12.8896 39.5652 12.9473 39.6926 12.9518C39.7265 12.953 39.7357 12.8997 39.7805 12.9012C39.9331 12.906 40.0646 12.9493 40.2231 12.9564C40.4909 12.9683 40.7714 12.9358 41.0431 12.9673C41.0947 12.9731 41.0864 13.0175 41.1607 13.03C41.289 13.0516 41.2407 12.9869 41.2667 12.9782C41.3516 12.9502 41.3783 13.0362 41.4605 13.0141C41.473 13.0106 41.4551 12.9596 41.4664 12.9588C41.6411 12.95 41.6502 13.0695 41.8359 13.0054C42.001 13.0742 41.7252 13.0976 41.6969 13.1341C41.6277 13.2228 41.8106 13.327 41.9184 13.3605C42.0112 13.3893 42.0105 13.3341 42.0474 13.3341C42.2429 13.3339 42.5341 13.3234 42.6828 13.3496C42.7728 13.3653 42.6105 13.3883 42.6565 13.4065C42.7021 13.4246 42.7316 13.3831 42.7784 13.4284C42.8253 13.4738 42.9208 13.6073 42.9027 13.6711ZM26.4793 13.3738C26.779 13.156 27.574 13.1788 28.0008 13.1996C28.3548 13.2169 28.66 13.3847 28.5869 13.1415C28.2041 13.1399 27.8946 13.1643 27.4898 13.1568C27.4477 13.156 27.1967 13.1335 27.1094 13.1294C27.0602 13.1272 27.0586 13.087 26.9918 13.0874C26.9772 13.0876 26.8965 13.1401 26.867 13.1387C26.766 13.1341 26.4654 13.0535 26.4234 13.0558C26.307 13.0627 26.3517 13.1251 26.3015 13.1364C26.1327 13.174 26.1141 13.0802 25.9469 13.1106C25.917 13.1161 25.8179 13.1978 25.694 13.1871C25.6436 13.1827 25.5579 13.1405 25.5193 13.1425C25.3093 13.1534 25.0748 13.2093 24.8824 13.2C24.7248 13.1923 24.7672 13.1292 24.6838 13.1208C24.6004 13.1125 24.4997 13.1857 24.4427 13.1899C24.3514 13.1966 24.2405 13.155 24.2121 13.1556C23.8826 13.1629 23.5747 13.1827 23.2668 13.2012C23.0467 13.2138 22.8358 13.2961 22.664 13.4339C22.8468 13.3176 23.0622 13.266 23.2668 13.2832C23.4161 13.2947 23.5651 13.3064 23.7137 13.3186C23.9199 13.2532 23.8173 13.3145 23.9529 13.3349C24.0603 13.351 24.0863 13.2403 24.2275 13.2526C24.2273 13.2526 24.2272 13.2526 24.2271 13.2526C24.2999 13.2591 24.4576 13.3357 24.6126 13.3036C24.6181 13.3024 24.6319 13.245 24.748 13.243C25.0087 13.2385 25.4084 13.2091 25.7018 13.2214C25.788 13.225 25.7704 13.2853 25.8723 13.2928C25.9466 13.2982 26.0327 13.2424 26.1491 13.2549C26.295 13.2708 26.365 13.3667 26.4653 13.2334C26.4736 13.281 26.4694 13.3274 26.4793 13.3738ZM34.5403 13.2579C34.5608 13.2631 34.8353 13.4119 34.7539 13.253C34.385 13.1841 33.986 13.2183 33.5978 13.1796C33.7303 13.3367 33.9546 13.2748 34.2268 13.2633C34.2269 13.2633 34.2271 13.2633 34.2272 13.2633C34.24 13.2627 34.1863 13.3038 34.2594 13.2964C34.2948 13.2927 34.4306 13.2298 34.5403 13.2579Z" fill="#A9A9A6"/>
<path d="M43.912 19.6785C43.912 19.1224 43.461 18.6714 42.9049 18.6714H23.2668C22.7107 18.6714 22.2598 19.1224 22.2598 19.6785C22.2598 20.2349 22.7107 20.6855 23.2668 20.6855H42.9049C43.461 20.6855 43.912 20.2349 43.912 19.6785Z" fill="#A9A9A6"/>
<path d="M43.4738 19.6772C43.4178 19.5047 43.3313 19.3886 43.2212 19.2707C43.1956 19.2447 43.2208 19.213 43.2107 19.1983C43.1909 19.1704 43.1256 19.1881 43.1203 19.1863C43.0823 19.1709 43.122 19.11 43.1176 19.1051C43.0589 19.0546 43.0542 19.1387 42.9939 19.1349C42.9664 19.1341 42.9368 19.132 42.9049 19.1311C42.7944 19.1293 42.6739 19.1221 42.5583 19.1194C42.4965 19.1178 42.524 19.063 42.3907 19.0676C42.2963 19.0708 42.0067 19.1333 41.8734 19.0666C41.8726 19.0414 41.8894 19.0135 41.8965 18.9875C41.7053 19.0926 41.6369 19.088 41.3659 19.0624C41.323 19.0583 41.2824 19.1015 41.2069 19.0856C41.1314 19.0696 41.1282 19.0031 40.9764 19.0039C40.9226 19.0043 40.8899 19.0513 40.8073 19.0533C40.5725 19.0591 40.1252 19.0008 39.9324 18.9988C39.5528 18.9948 39.3463 19.0749 39.0092 19.047C38.9832 19.045 39.0403 18.9936 38.9927 18.9926C38.9447 18.9916 38.8947 19.0597 38.8829 19.0613C38.7555 19.0789 38.4862 18.9876 38.4153 18.9986C38.243 19.0257 38.4128 19.0557 38.174 19.0686C37.9466 19.0809 37.6327 18.9922 37.4073 18.9748C37.1462 18.9547 37.0619 19.0835 36.8653 18.949C36.1745 18.9569 35.481 18.9617 34.7895 18.9686C34.7915 18.9417 34.7937 18.9149 34.7961 18.8881C34.7414 18.9067 34.6867 18.9252 34.6321 18.9436C34.6403 18.9236 34.6482 18.9037 34.6564 18.8839C34.3996 18.9609 34.1707 19.0006 33.8706 18.9795C33.8647 18.9791 33.8802 18.9256 33.8753 18.9242C33.8076 18.9142 33.732 18.9553 33.6726 18.9456C33.5291 18.9224 33.2852 18.8058 33.3926 18.9484C33.0578 18.919 32.6645 18.9672 32.3455 18.9396C32.2074 18.9277 32.166 18.8432 32.1 18.8383C32.034 18.8335 32.0676 18.9061 32.0441 18.9089C31.9033 18.925 31.6716 18.922 31.6472 18.8407C31.6188 18.8732 31.5889 18.906 31.5602 18.9387C31.577 18.8486 31.1418 18.8859 31.0277 18.8836C31.0068 18.8832 31.0039 18.8438 30.9882 18.8442C30.8128 18.8492 30.7699 18.9111 30.6197 18.9317C30.567 18.9389 30.6487 18.8694 30.5134 18.8994C30.5016 18.902 30.5079 18.9646 30.3462 18.9642C30.0882 18.9636 29.5945 18.9884 29.2873 18.9575C29.2621 18.9551 29.3388 18.8869 29.2236 18.9028C29.1819 18.9085 29.2019 18.9569 29.1008 18.9573C28.709 18.9593 28.2913 18.9036 27.8916 18.9498C27.9062 18.8952 28.0485 18.8339 27.8345 18.8681C27.8003 18.8738 27.8259 18.9226 27.8105 18.9244C27.6862 18.9385 27.5785 18.9037 27.444 18.9224C27.4042 18.9281 27.3944 18.9664 27.3448 18.9754C27.2717 18.989 27.2393 18.9343 27.1543 18.9575C27.0214 18.994 27.0009 19.0458 26.8361 18.9442C25.9023 18.9507 24.9728 18.9793 24.0421 18.9345C23.7803 18.9627 23.5381 18.9942 23.2668 19.0061C23.2618 19.0065 23.2567 19.0068 23.2516 19.0072C23.198 19.0132 23.1769 18.9425 23.0892 18.9861C23.0639 18.9944 22.97 19.112 22.882 19.0054C22.8492 19.0384 22.8266 19.0547 22.8012 19.0839C22.8364 19.0823 22.8717 19.0833 22.904 19.0878C22.765 19.1485 22.7171 19.2846 22.6877 19.3993C22.668 19.4864 22.6368 19.4058 22.6226 19.4611C22.6107 19.5188 22.6182 19.5396 22.538 19.6071C22.5698 19.6352 22.5791 19.655 22.5791 19.6785C22.5794 19.7113 22.5597 19.7521 22.5703 19.8152C22.5721 19.8276 22.6176 19.8835 22.6322 19.9347C22.643 19.9716 22.6004 20.0063 22.6414 20.0601C22.6472 20.0728 22.7796 20.1416 22.8136 20.16C22.8618 20.1962 22.9137 20.306 22.9278 20.3129C23.0778 20.3984 23.1605 20.3557 23.2668 20.4187C23.2886 20.4273 23.3112 20.4381 23.3351 20.4517C23.3737 20.3876 23.5329 20.35 23.6615 20.3563C23.824 20.3641 24.1497 20.4952 24.1942 20.3567C24.3822 20.4184 24.3618 20.3803 24.5847 20.3791C24.7877 20.3779 25.325 20.4309 25.4895 20.4232C25.654 20.4158 25.5738 20.3387 25.6391 20.3284C25.746 20.3113 25.6883 20.3682 25.7614 20.3674C25.9683 20.365 26.1481 20.3541 26.3456 20.3293C26.3562 20.3692 26.3677 20.4093 26.3787 20.4492C26.3889 20.4359 26.3991 20.4226 26.4093 20.4093C26.4518 20.4097 26.4994 20.4089 26.5387 20.4101C26.2068 20.2349 26.8593 20.4231 27.0552 20.4275C27.2204 20.4311 27.4955 20.348 27.6768 20.3301C27.7208 20.3257 27.6906 20.3688 27.6996 20.3678C27.8058 20.3555 27.8219 20.3261 27.9647 20.3301C28.0402 20.3323 28.1173 20.3863 28.1909 20.3873C28.731 20.3946 29.2522 20.3403 29.7887 20.3345C29.88 20.3335 29.9587 20.3994 30.0354 20.4008C30.1451 20.4028 30.2144 20.3489 30.3174 20.348C30.4201 20.3472 30.5681 20.4117 30.6377 20.4019C30.7073 20.3922 30.5882 20.3297 30.7156 20.3468C30.7742 20.3547 30.6708 20.4012 30.7431 20.4027C30.9689 20.4071 31.2875 20.3494 31.5279 20.4053C31.5173 20.3914 31.5028 20.3789 31.4898 20.3656C31.7459 20.371 31.9721 20.4045 32.2364 20.4093C32.3289 20.4111 32.4956 20.3702 32.5865 20.3704C32.6773 20.3706 32.7186 20.415 32.7914 20.4162C32.8213 20.4168 32.8096 20.3771 32.8297 20.3779C33.0806 20.3884 33.2183 20.4591 33.481 20.4511C34.4436 20.4216 35.4362 20.3962 36.4137 20.3696C36.453 20.3685 36.4795 20.3168 36.5369 20.3091C36.6253 20.2972 36.6296 20.343 36.6414 20.3446C36.7185 20.3547 36.6871 20.3123 36.7905 20.3123C37.0183 20.3123 37.3857 20.3499 37.6127 20.3466C38.1359 20.3392 38.5756 20.2988 39.0886 20.2785C39.1256 20.2768 39.1005 20.3381 39.1646 20.3389C39.6165 20.3454 39.7122 20.2867 40.2747 20.3032C40.8372 20.3198 41.899 20.3569 42.5575 20.3654C42.5575 20.3655 42.5575 20.3657 42.5575 20.3658C42.6623 20.3085 42.7827 20.2874 42.9049 20.2916C42.9784 20.2957 43.0545 20.3112 43.1397 20.3253C43.0734 20.3766 42.993 20.4141 42.9049 20.4333C41.7459 20.6242 40.6178 20.5225 39.3718 20.5326C37.9305 20.544 36.394 20.7471 34.9334 20.7195C34.7961 20.7169 34.741 20.6523 34.6253 20.6659C34.6058 20.6681 34.6564 20.7179 34.5963 20.7229C33.7702 20.7907 32.8894 20.6773 32.0783 20.7088C31.8596 20.7172 31.8253 20.7727 31.6329 20.787C31.6668 20.7608 31.6889 20.7334 31.7184 20.707C30.8404 20.6251 29.9611 20.6616 29.0717 20.6499C29.0315 20.6493 29.0264 20.5951 28.9843 20.593C28.9002 20.5888 28.8195 20.6485 28.746 20.6505C28.65 20.6532 28.6334 20.61 28.5449 20.6128C28.5017 20.6143 28.5146 20.6557 28.4207 20.6487C28.4128 20.6481 28.4077 20.6046 28.3452 20.6102C28.1741 20.6257 27.8244 20.6622 27.6827 20.6731C27.5018 20.687 27.3566 20.6215 27.2882 20.6172C27.1033 20.6057 27.1071 20.6729 26.9507 20.6729C25.8366 20.6733 24.7716 20.5969 23.6312 20.5975C23.5756 20.5975 23.4032 20.6427 23.2668 20.6614C23.2285 20.6668 23.1927 20.6676 23.1639 20.664C23.1179 20.6651 22.9044 20.5864 22.8778 20.5654C22.7539 20.5041 22.6903 20.3949 22.647 20.341C22.5612 20.2392 22.4227 20.1453 22.384 20.0722C22.3211 19.9697 22.2903 19.7701 22.2978 19.6785C22.2983 19.6624 22.2992 19.6496 22.2998 19.641C22.3148 19.5001 22.3975 19.5603 22.396 19.465C22.3977 19.4367 22.3215 19.4487 22.355 19.3484C22.3867 19.265 22.4494 19.2566 22.4851 19.213C22.5188 19.1705 22.5235 19.0387 22.5535 19.0114C22.7024 18.879 22.804 18.8727 22.9913 18.8087C23.0392 18.794 23.141 18.7637 23.2668 18.7594C23.5847 18.7484 24.0151 18.7271 24.0645 18.7143C24.3816 18.6323 23.8535 18.6691 23.8237 18.6663C23.6629 18.6504 23.6864 18.6189 23.5259 18.679C23.4743 18.6124 23.3767 18.607 23.2668 18.6172C23.0508 18.6319 22.8661 18.7806 22.7223 18.7041C22.6725 18.9018 22.5552 18.9039 22.4329 19.0035C22.2781 19.1464 22.4362 19.0671 22.3623 19.1904C22.3339 19.236 22.2087 19.3716 22.2029 19.4659C22.1964 19.5474 22.2337 19.5898 22.243 19.6785C22.2442 19.6885 22.2451 19.6991 22.2457 19.7105C22.2593 19.9125 22.2881 20.0708 22.3308 20.259C22.3715 20.2732 22.4109 20.2828 22.4509 20.2911C22.4981 20.4022 22.568 20.5093 22.6584 20.6033C22.6544 20.5725 22.6519 20.5416 22.6506 20.5114C22.6806 20.5293 22.7114 20.5459 22.7427 20.5608C22.8233 20.6497 22.9192 20.7244 23.039 20.7866C23.1633 20.7645 23.2245 20.7461 23.2668 20.7448C23.3455 20.7409 23.344 20.7972 23.4602 20.809C23.6348 20.8267 23.7359 20.7477 23.8708 20.7473C24.0525 20.7467 24.136 20.7368 24.3193 20.7425C24.4255 20.7457 24.6056 20.8219 24.4577 20.7011C24.7894 20.6915 25.2434 20.6577 25.54 20.7068C25.6276 20.721 25.5108 20.7591 25.5257 20.7638C25.6 20.7862 25.6627 20.7245 25.7393 20.7334C25.8668 20.7481 26.115 20.7961 26.2153 20.8074C26.3597 20.8237 26.5867 20.7438 26.6099 20.738C26.7396 20.7056 26.7743 20.7719 26.816 20.7673C27.0532 20.7407 27.1056 20.7128 27.1803 20.8528C27.2417 20.7923 27.499 20.6905 27.5611 20.7923C27.5627 20.7003 27.7763 20.7158 27.9076 20.6928C27.932 20.7195 27.9568 20.7459 27.9812 20.7727C28.2554 20.6082 28.8014 20.7277 29.1621 20.7473C29.1712 20.7477 29.1873 20.6788 29.2416 20.6943C29.2451 20.6956 29.2395 20.7265 29.2759 20.7306C29.3959 20.7435 29.8537 20.8208 29.9063 20.8215C30.1003 20.8241 30.1342 20.7727 30.2522 20.7678C30.4075 20.7614 30.43 20.8078 30.5778 20.8012C30.6471 20.7982 30.71 20.7371 30.819 20.7457C30.8834 20.7507 30.8898 20.7987 30.9409 20.8026C31.1227 20.8165 31.2561 20.7862 31.4174 20.8487C31.4595 20.6961 31.5366 20.8086 31.6164 20.8201C31.9406 20.8671 32.3445 20.8026 32.6226 20.8165C33.4904 20.8603 34.2599 20.9544 35.1076 20.9756C35.2452 20.979 35.2784 20.9024 35.4228 20.9072C35.4877 20.9094 35.5546 20.9649 35.6608 20.9657C35.7461 20.9665 35.8684 20.9383 35.975 20.9385C36.0033 20.9385 36.0058 20.9905 36.0475 20.9909C36.3637 20.994 36.6726 20.957 36.992 20.9316C37.1103 20.9222 37.1835 20.9911 37.1635 20.8711C37.2087 20.9006 37.2527 20.9262 37.2952 20.9552C37.458 20.8796 37.591 20.9584 37.8113 20.9391C37.8351 20.9367 38.0014 20.8538 38.0958 20.9137C38.1024 20.8709 38.0878 20.8346 38.0905 20.7959C38.1838 20.7796 38.327 20.829 38.3899 20.834C38.4528 20.839 38.4949 20.7835 38.5138 20.783C38.5858 20.7816 38.569 20.8546 38.5745 20.8558C38.91 20.9258 38.8747 20.8869 39.0773 20.7774C39.128 20.7498 39.4725 20.83 39.5421 20.7435C39.5453 20.7788 39.5261 20.8098 39.5205 20.8435C39.624 20.8525 39.7283 20.8619 39.8321 20.8709C39.8101 20.8371 39.7836 20.8031 39.7636 20.7691C39.9756 20.7985 40.1519 20.7187 40.3253 20.7213C40.4244 20.7229 40.4124 20.7977 40.4706 20.7814C40.482 20.7782 40.4627 20.7276 40.4965 20.7235C40.7722 20.6907 40.8931 20.7441 41.1692 20.7542C41.2986 20.759 41.4119 20.6671 41.5975 20.7276C41.6145 20.7332 41.7966 20.8148 41.9091 20.6979C41.9449 20.7348 41.9765 20.7542 42.0032 20.7852C42.231 20.6116 42.168 20.7818 42.476 20.8221C42.5557 20.8326 42.7294 20.8302 42.9049 20.8229C43.1061 20.8182 43.2958 20.74 43.3772 20.6895C43.4757 20.6284 43.4351 20.5678 43.4504 20.5563C43.5348 20.4817 43.5755 20.5332 43.6492 20.4513C43.7227 20.3664 43.7403 20.2166 43.7908 20.13C43.8292 20.0609 43.8808 20.1532 43.8988 20.0267C43.9003 20.0008 43.815 20.0458 43.8761 19.935C43.8894 19.9217 43.9944 19.7277 44.0052 19.6785C44.0638 19.7896 44.0322 20.1574 43.9626 20.2847C43.8262 20.6309 43.4353 20.9882 42.9049 21.02C40.7941 21.2039 37.6914 21.201 35.916 21.1686C35.7205 21.1651 35.5927 21.0933 35.4652 21.0871C35.3378 21.0808 35.4455 21.1466 35.3299 21.1411C35.2142 21.1355 35.13 21.0891 35.0218 21.0851C34.2925 21.0576 33.5577 21.0286 32.8344 21.0159C32.6467 21.0127 32.4968 21.0661 32.326 21.0661C32.2596 21.0661 32.2575 20.9972 32.2103 20.9978C31.7017 21.0032 31.2312 21.0696 30.7254 21.0615C30.5153 21.0581 30.2884 21 30.0803 20.9945C29.9088 20.9899 29.731 21.0296 29.5768 21.0304C29.4932 21.031 29.449 20.9785 29.4187 20.9744C29.3133 20.9607 29.3501 21.0248 29.2962 21.0248C29.1476 21.0246 29.0736 20.9472 28.9344 20.9532C28.8797 20.9556 28.8868 21.005 28.8074 21.0127C28.7067 21.0223 28.744 20.9768 28.6721 20.9752C28.6677 20.975 28.6818 21.0103 28.6437 21.0117C28.3982 21.021 28.0918 21.0488 27.8549 21.0464C27.3652 21.0415 26.8818 20.9735 26.4255 20.9602C26.3102 20.957 26.3408 21.003 26.3042 21.0052C26.128 21.0157 26.0651 20.9607 25.8806 20.9804C25.8499 20.9837 25.7264 21.0474 25.6083 21.0312C25.5446 21.0225 25.4723 20.9828 25.418 20.9735C25.3638 20.9643 25.3551 21.0228 25.2898 21.0228C25.171 21.023 25.2056 20.9825 25.0357 20.9897C24.9672 20.9925 24.7387 21.048 24.5625 21.0437C24.2745 21.0369 23.9177 20.9863 23.5782 20.9854C23.4922 20.9851 23.3881 21.0178 23.2668 21.0352C23.2091 21.0414 23.1479 21.042 23.0841 21.0336C22.7753 21.0198 22.2898 20.702 22.1414 20.4308C22.0572 20.2987 22.1152 20.2576 22.1085 20.2415C22.0775 20.1318 22.0315 20.2009 22.0059 20.126C21.973 20.0212 22.0028 19.9125 21.9961 19.8202C21.9922 19.761 21.941 19.754 21.9397 19.7405C21.938 19.7199 21.9369 19.6992 21.9362 19.6785C21.9231 19.2023 22.1702 18.7727 22.5783 18.5212C22.7834 18.3953 23.0252 18.3258 23.2668 18.3232C25.1065 18.291 26.9591 18.2382 28.7924 18.2656C28.9611 18.268 28.9675 18.3334 29.1158 18.3231C29.2641 18.313 29.4073 18.1718 29.5293 18.3277C29.5332 18.2963 29.5328 18.2738 29.5368 18.2452C29.8432 18.2896 30.1497 18.2436 30.4494 18.238C30.6712 18.2338 30.868 18.2388 31.0729 18.2422C31.2545 18.2455 31.2389 18.3003 31.3961 18.2287C32.1778 18.2735 32.9678 18.2626 33.7427 18.337C33.9245 18.2198 34.0987 18.2937 34.3501 18.311C34.3811 18.3132 34.3478 18.2704 34.4398 18.2741C34.5554 18.2785 34.6152 18.3439 34.8098 18.3402C34.8614 18.3392 35.2431 18.2668 35.3843 18.3039C35.5255 18.341 35.7301 18.3628 35.8768 18.3983C35.8559 18.3703 35.8295 18.3434 35.8063 18.3158C35.8795 18.311 35.953 18.3063 36.0262 18.3015C36.0368 18.3352 36.0475 18.3689 36.0577 18.4027C36.1002 18.3707 36.1427 18.339 36.1856 18.3065C36.278 18.4795 36.1832 18.4231 36.3889 18.3794C36.492 18.3576 36.5738 18.3878 36.6796 18.3703C36.7178 18.3638 36.7421 18.3129 36.7842 18.3064C36.8872 18.2906 36.8272 18.3608 36.8908 18.3604C36.9549 18.3598 37.047 18.2828 37.1619 18.317C37.0419 18.4543 37.3885 18.4096 37.4051 18.3029C37.4463 18.3027 37.4809 18.3071 37.5265 18.3041C37.4844 18.5735 37.7005 18.3823 37.7862 18.3454C37.8719 18.3086 37.8685 18.381 37.8885 18.3781C37.9463 18.3703 37.9042 18.3402 37.9447 18.3392C38.213 18.3332 38.4656 18.3773 38.7303 18.3814C38.7684 18.382 38.7346 18.341 38.779 18.3451C38.8235 18.3491 38.8661 18.3898 38.9318 18.387C38.9494 18.3863 38.955 18.3503 38.9824 18.3503C39.5579 18.3519 40.1044 18.3825 40.6913 18.3872C40.7444 18.3876 40.7861 18.3237 40.8887 18.3259C40.9914 18.3281 41.1471 18.3858 41.2746 18.3902C41.3084 18.3914 41.3176 18.3382 41.3624 18.3396C41.515 18.3445 41.6465 18.3878 41.805 18.3949C42.0729 18.4068 42.3533 18.3743 42.6251 18.4057C42.6766 18.4116 42.6684 18.456 42.7427 18.4685C42.8709 18.4901 42.8227 18.4253 42.8486 18.4167C42.8706 18.4094 42.8887 18.4098 42.9049 18.414C42.9635 18.4265 42.9966 18.4707 43.0716 18.4638C43.0873 18.4625 43.0724 18.4089 43.0865 18.4101C43.311 18.4438 43.2798 18.5579 43.5071 18.6006C43.6414 18.7596 43.349 18.6142 43.3063 18.6477C43.2097 18.7055 43.3437 18.8665 43.395 18.9481C43.444 19.0175 43.4757 18.9754 43.5018 18.997C43.6409 19.1063 43.7787 19.3463 43.7739 19.4835C43.7749 19.5632 43.7223 19.4316 43.7134 19.4748C43.7045 19.5146 43.7501 19.5324 43.7101 19.5765C43.671 19.6235 43.5378 19.6907 43.4738 19.6772ZM28.0612 18.8123C28.361 18.5945 29.1559 18.6173 29.5827 18.638C29.9367 18.6554 30.242 18.8232 30.1688 18.58C29.7861 18.5784 29.4765 18.6028 29.0718 18.5953C29.0297 18.5945 28.7786 18.5719 28.6913 18.5679C28.6421 18.5657 28.6406 18.5255 28.5737 18.5259C28.5591 18.5261 28.4785 18.5786 28.449 18.5772C28.3479 18.5725 28.0473 18.492 28.0054 18.4943C27.889 18.5011 27.9336 18.5636 27.8834 18.5749C27.7147 18.6124 27.6961 18.5187 27.5289 18.5491C27.499 18.5546 27.3998 18.6363 27.2759 18.6256C27.2256 18.6211 27.1398 18.579 27.1013 18.581C26.8912 18.5919 26.6567 18.6477 26.4644 18.6385C26.3067 18.6308 26.3491 18.5677 26.2657 18.5592C26.1823 18.551 26.0816 18.6242 26.0246 18.6284C25.9333 18.635 25.8224 18.5935 25.7941 18.5941C25.2363 18.6064 24.7402 18.6546 24.2021 18.6719C24.5676 18.7007 24.9326 18.7272 25.2957 18.7571C25.5018 18.6917 25.3992 18.753 25.5349 18.7734C25.6423 18.7895 25.6682 18.6788 25.8094 18.6911C25.8093 18.6911 25.8092 18.6911 25.809 18.6911C25.8818 18.6975 26.0396 18.7742 26.1946 18.7421C26.2001 18.7409 26.2139 18.6835 26.3299 18.6814C26.5907 18.677 26.9903 18.6475 27.2838 18.6598C27.3699 18.6635 27.3524 18.7238 27.4542 18.7312C27.5286 18.7366 27.6146 18.6809 27.731 18.6933C27.877 18.7093 27.947 18.8052 28.0473 18.6719C28.0555 18.7195 28.0514 18.7659 28.0612 18.8123ZM36.1222 18.6963C36.1427 18.7016 36.4173 18.8504 36.3359 18.6915C35.9669 18.6225 35.568 18.6568 35.1797 18.6181C35.3123 18.7752 35.5365 18.7133 35.8088 18.7018C35.8089 18.7018 35.809 18.7018 35.8091 18.7018C35.822 18.7012 35.7682 18.7423 35.8413 18.7348C35.8767 18.7312 36.0125 18.6683 36.1222 18.6963Z" fill="#A9A9A6"/>
<path d="M23.2668 24.1096C22.7107 24.1096 22.2598 24.5606 22.2598 25.1167C22.2598 25.6731 22.7107 26.1238 23.2668 26.1238H34.5965C35.1526 26.1238 35.6036 25.6731 35.6036 25.1167C35.6036 24.5606 35.1526 24.1096 34.5965 24.1096H23.2668Z" fill="#A9A9A6"/>
<path d="M23.266 24.5478C23.1556 24.6025 23.0826 24.6495 22.985 24.6843C22.963 24.6926 22.9408 24.6583 22.9284 24.6591C22.9047 24.661 22.909 24.716 22.9065 24.7185C22.8875 24.7369 22.8449 24.6784 22.8403 24.6789C22.7871 24.6912 22.8553 24.7384 22.8367 24.7729C22.8131 24.8184 22.7673 24.8659 22.7421 24.9231C22.7337 24.943 22.6836 24.9155 22.6745 24.9665C22.6693 24.9946 22.6931 25.0649 22.6838 25.1167C22.6804 25.1346 22.6726 25.151 22.6568 25.1653C22.6317 25.1676 22.6035 25.1629 22.5773 25.1613C22.6901 25.2346 22.6849 25.2473 22.6988 25.356C22.7019 25.3734 22.7469 25.3686 22.746 25.4004C22.7461 25.4323 22.6883 25.4693 22.7275 25.522C22.7421 25.5403 22.7867 25.5213 22.81 25.5435C22.87 25.6097 23.0014 25.7529 23.0872 25.7724C23.1554 25.7927 23.215 25.7837 23.2668 25.7695C23.3695 25.751 23.4639 25.7324 23.5846 25.7481C23.6011 25.7501 23.5649 25.8016 23.5952 25.8026C23.6257 25.8036 23.6574 25.7355 23.6649 25.7338C23.7459 25.7163 23.9171 25.8076 23.9622 25.7965C24.0717 25.7695 23.9638 25.7395 24.1155 25.7266C24.26 25.7143 24.4596 25.803 24.6028 25.8203C24.7689 25.8405 24.8224 25.7116 24.9474 25.8461C25.3865 25.8383 25.8273 25.8335 26.2668 25.8266C26.2656 25.8534 26.2641 25.8802 26.2626 25.9071C26.2974 25.8885 26.3321 25.8699 26.3669 25.8516C26.3616 25.8715 26.3567 25.8915 26.3514 25.9113C26.5146 25.8343 26.6601 25.7945 26.8509 25.8157C26.8546 25.8161 26.8448 25.8695 26.8479 25.8709C26.8909 25.881 26.939 25.8399 26.9767 25.8496C27.068 25.8728 27.223 25.9893 27.1547 25.8468C27.3675 25.8762 27.6175 25.828 27.8203 25.8556C27.9081 25.8675 27.9343 25.952 27.9763 25.9569C28.0183 25.9617 27.9969 25.8891 28.0118 25.8863C28.1013 25.8702 28.2487 25.8732 28.2642 25.9544C28.2822 25.922 28.3012 25.8891 28.3195 25.8565C28.3088 25.9466 28.5854 25.9093 28.6579 25.9115C28.6712 25.9119 28.673 25.9514 28.683 25.951C28.7945 25.9459 28.8218 25.8841 28.9172 25.8635C28.9507 25.8562 28.8988 25.9258 28.9848 25.8958C28.9923 25.8931 28.9883 25.8306 29.0911 25.831C29.2551 25.8316 29.5689 25.8068 29.7642 25.8377C29.7802 25.8401 29.7314 25.9082 29.8046 25.8924C29.8311 25.8867 29.8184 25.8383 29.8827 25.8379C30.1317 25.8359 30.3973 25.8915 30.6513 25.8454C30.6421 25.9 30.5516 25.9613 30.6876 25.927C30.7093 25.9214 30.6931 25.8726 30.7028 25.8707C30.7818 25.8566 30.8503 25.8915 30.9358 25.8728C30.9611 25.8671 30.9674 25.8288 30.9989 25.8197C31.0454 25.8062 31.0659 25.8609 31.1199 25.8377C31.2044 25.8012 31.2175 25.7494 31.3222 25.851C31.9158 25.8445 32.5066 25.8159 33.0982 25.8607C33.2692 25.8316 33.427 25.7992 33.6053 25.7881C33.6578 25.7849 33.6678 25.8542 33.7516 25.8313C33.7703 25.8262 33.9041 25.7518 33.9236 25.8919C33.9609 25.8798 33.9844 25.8794 34.0164 25.872C33.9922 25.8514 33.9671 25.8306 33.9439 25.8098C34.0789 25.8322 34.1891 25.7828 34.3087 25.7594C34.3966 25.7423 34.3342 25.8024 34.3882 25.7963C34.4422 25.7905 34.4667 25.777 34.5342 25.849C34.5561 25.8146 34.575 25.8044 34.5965 25.8045C34.6174 25.8044 34.6432 25.8246 34.6839 25.8211C34.6918 25.8205 34.728 25.7829 34.7621 25.7807C34.7867 25.7791 34.8092 25.8271 34.8467 25.8054C34.855 25.8024 34.9073 25.7096 34.9239 25.6914C34.9526 25.6655 35.0442 25.6794 35.0521 25.6733C35.1556 25.5984 35.125 25.5263 35.2642 25.507C35.2196 25.4572 35.2172 25.3816 35.2394 25.3322C35.2679 25.2827 35.3917 25.1599 35.3077 25.1167C35.299 25.1125 35.2881 25.1095 35.2747 25.1079C35.3324 25.0232 35.2967 25.0305 35.2739 24.9368C35.2627 24.8509 35.1728 24.6101 35.0988 24.5669C35.0354 24.5216 35.0154 24.6067 34.9875 24.5975C34.9422 24.5856 34.9943 24.553 34.9673 24.536C34.8901 24.4898 34.8105 24.4707 34.7262 24.4787C34.7299 24.4388 34.7324 24.3984 34.7342 24.3582C34.727 24.3704 34.72 24.3827 34.7132 24.3951C34.694 24.3916 34.6719 24.3898 34.654 24.3873C34.7263 24.4962 34.6741 24.4676 34.5965 24.432C34.5083 24.4057 34.4006 24.3696 34.3469 24.3677C34.2419 24.364 34.0671 24.4471 33.9518 24.4651C33.9239 24.4695 33.9431 24.4264 33.9373 24.4274C33.8698 24.4397 33.8596 24.4691 33.7688 24.4651C33.7208 24.4629 33.6718 24.4088 33.6251 24.4078C33.2818 24.4006 32.9505 24.4548 32.6094 24.4607C32.5514 24.4617 32.5014 24.3958 32.4526 24.3943C32.3829 24.3923 32.3389 24.4463 32.2734 24.4471C32.2081 24.4479 32.1141 24.3834 32.0698 24.3933C32.0255 24.403 32.1013 24.4655 32.0203 24.4484C31.9831 24.4405 32.0488 24.3939 32.0028 24.3925C31.8593 24.3881 31.6567 24.4457 31.504 24.3899C31.5107 24.4038 31.5199 24.4163 31.5282 24.4296C31.3654 24.4242 31.2216 24.3907 31.0536 24.3858C30.9948 24.384 30.8889 24.4249 30.8311 24.4247C30.7734 24.4245 30.7471 24.3802 30.7009 24.379C30.6818 24.3783 30.6893 24.4181 30.6765 24.4173C30.517 24.4068 30.4295 24.336 30.2625 24.3441C29.6507 24.3735 29.0198 24.399 28.3984 24.4256C28.3734 24.4266 28.3566 24.4784 28.3201 24.4861C28.2639 24.4979 28.2612 24.4522 28.2537 24.4505C28.2047 24.4405 28.2247 24.4828 28.1589 24.4828C28.0141 24.4828 27.7806 24.4453 27.6363 24.4485C27.3038 24.456 27.0242 24.4963 26.6982 24.5167C26.6747 24.5183 26.6906 24.457 26.6499 24.4562C26.3626 24.4498 26.3018 24.5085 25.9443 24.4919C25.5867 24.4754 24.9118 24.4383 24.4933 24.4298C24.4933 24.4297 24.4933 24.4295 24.4933 24.4294C24.3615 24.5427 24.191 24.5145 24.0495 24.4288C24.8656 24.1493 25.6465 24.2737 26.5182 24.2626C27.4343 24.2511 28.4109 24.048 29.3393 24.0757C29.4266 24.0783 29.4616 24.1428 29.5351 24.1293C29.5476 24.127 29.5154 24.0773 29.5536 24.0722C30.0787 24.0045 30.6385 24.1179 31.1541 24.0864C31.2931 24.0779 31.3149 24.0225 31.4372 24.0082C31.4157 24.0344 31.4016 24.0618 31.3829 24.0882C31.941 24.17 32.4999 24.1335 33.0652 24.1452C33.0907 24.1459 33.094 24.2001 33.1207 24.2021C33.1742 24.2064 33.2255 24.1467 33.2722 24.1446C33.3332 24.142 33.3438 24.1852 33.4 24.1824C33.4275 24.1809 33.4193 24.1394 33.479 24.1465C33.484 24.1471 33.4873 24.1906 33.527 24.185C33.6357 24.1695 33.858 24.1329 33.9481 24.122C34.0631 24.1081 34.1553 24.1737 34.1989 24.178C34.3164 24.1894 34.3139 24.1223 34.4134 24.1223C34.4746 24.1223 34.5357 24.1228 34.5965 24.1238C35.1339 24.1258 35.5495 24.6242 35.5205 25.1167C35.5173 25.2216 35.4979 25.3256 35.4624 25.4254C35.4527 25.4625 35.4494 25.6411 35.3922 25.7073C35.3763 25.7313 35.2645 25.824 35.2462 25.8346C35.1771 25.8888 35.0901 25.8907 35.0476 25.9041C34.9663 25.9307 34.9003 26.0291 34.8512 26.0492C34.7817 26.0812 34.6546 26.0904 34.5965 26.0857C34.5859 26.0852 34.5775 26.0848 34.5717 26.0845C34.4787 26.0801 34.5094 25.9928 34.4427 26.0131C34.423 26.0192 34.4436 26.0861 34.3741 26.0861C34.3159 26.0859 34.2923 26.0355 34.2526 26.0264C34.2128 26.0174 34.1399 26.0954 34.1152 26.0934C33.9856 26.0825 33.9283 26.0315 33.7873 26.0288C33.6702 26.0268 33.1289 26.0625 33.0839 26.0809C32.8824 26.1629 33.218 26.1261 33.2369 26.1289C33.3392 26.1448 33.3242 26.1763 33.4263 26.1162C33.5175 26.3015 33.8356 26.0129 33.9171 26.2328C34.0014 26.0864 34.0722 26.1602 34.1609 26.1896C34.2836 26.2303 34.1902 26.145 34.2797 26.1444C34.315 26.1442 34.4172 26.2107 34.4702 26.2014C34.5179 26.1931 34.5407 26.151 34.5965 26.1405C34.6029 26.1394 34.6096 26.1386 34.6169 26.1381C34.7452 26.1295 34.8467 26.1324 34.9771 26.1504C34.9878 26.1177 34.9955 26.0854 35.0026 26.0529C35.0825 26.0499 35.1652 26.0364 35.2475 26.0121C35.2232 26.0006 35.1992 25.9884 35.176 25.9756C35.1924 25.9603 35.2084 25.9448 35.2238 25.9288C35.3031 25.9122 35.3794 25.8858 35.4607 25.8466C35.4853 25.5907 35.5366 25.7131 35.6145 25.609C35.6847 25.5012 35.6288 25.4065 35.646 25.3199C35.6611 25.2359 35.6595 25.1822 35.6589 25.1167C35.6585 25.0878 35.6577 25.0567 35.6561 25.0192C35.6545 24.9488 35.7013 24.8137 35.6029 24.9343C35.5603 24.718 35.3823 24.491 35.2656 24.3359C35.2308 24.288 35.3143 24.3085 35.3101 24.299C35.2855 24.248 35.2137 24.2707 35.177 24.2358C35.1179 24.1747 34.9796 24.0605 34.911 24.0322C34.8131 23.9838 34.6443 24.0504 34.6318 24.0577C34.6185 24.0622 34.6069 24.0647 34.5965 24.0657C34.5407 24.0712 34.5214 24.024 34.499 24.0279C34.3482 24.0545 34.3149 24.0823 34.2674 23.9424C34.2284 24.0029 34.0649 24.1047 34.0254 24.0029C34.0243 24.0948 33.8886 24.0793 33.8051 24.1023C33.7896 24.0757 33.7738 24.0493 33.7583 24.0224C33.584 24.187 33.237 24.0675 33.0077 24.0479C33.002 24.0475 32.9917 24.1164 32.9572 24.1009C32.955 24.0996 32.9585 24.0686 32.9354 24.0646C32.8591 24.0517 32.5682 23.9743 32.5347 23.9737C32.4114 23.971 32.3899 24.0225 32.3148 24.0273C32.2161 24.0338 32.2018 23.9874 32.1078 23.994C32.0638 23.997 32.0238 24.0581 31.9546 24.0495C31.9136 24.0444 31.9095 23.9965 31.8771 23.9926C31.7615 23.9787 31.6767 24.009 31.5742 23.9464C31.5474 24.0991 31.4984 23.9866 31.4477 23.9751C31.2417 23.9281 30.9849 23.9926 30.8081 23.9787C30.2565 23.9349 29.7674 23.8408 29.2286 23.8196C29.1411 23.8162 29.12 23.8928 29.0283 23.888C28.987 23.8857 28.9445 23.8302 28.877 23.8294C28.8227 23.8286 28.745 23.8568 28.6773 23.8567C28.6593 23.8567 28.6577 23.8046 28.6312 23.8042C28.4302 23.8012 28.2339 23.8381 28.0309 23.8636C27.9556 23.873 27.9091 23.8041 27.9218 23.924C27.8931 23.8946 27.8651 23.869 27.8381 23.8399C27.7346 23.9156 27.6501 23.8368 27.51 23.8561C27.4949 23.8584 27.3892 23.9414 27.3292 23.8815C27.325 23.9242 27.3343 23.9605 27.3326 23.9992C27.2733 24.0156 27.1823 23.9662 27.1423 23.9612C27.1023 23.9561 27.0755 24.0116 27.0635 24.0122C27.0178 24.0136 27.0284 23.9406 27.0249 23.9394C26.8117 23.8694 26.8341 23.9083 26.7054 24.0178C26.6731 24.0454 26.4542 23.9652 26.4099 24.0517C26.4079 24.0164 26.4201 23.9854 26.4236 23.9517C26.3578 23.9426 26.2916 23.9333 26.2256 23.9242C26.2396 23.9581 26.2564 23.992 26.2691 24.0261C26.1344 23.9967 26.0223 24.0765 25.9121 24.0739C25.8491 24.0723 25.8568 23.9974 25.8197 24.0138C25.8125 24.017 25.8247 24.0676 25.8033 24.0716C25.628 24.1045 25.5512 24.0511 25.3757 24.041C25.2934 24.0362 25.2214 24.1281 25.1034 24.0676C25.0927 24.0619 24.9769 23.9803 24.9054 24.0973C24.8826 24.0604 24.8626 24.041 24.8456 24.0099C24.7008 24.1835 24.7408 24.0134 24.545 23.9731C24.4437 23.9521 24.1029 23.9825 23.9927 24.0011C23.927 24.0124 23.9282 24.0806 23.9165 24.0833C23.8465 24.0991 23.8464 24.0329 23.7817 24.0438C23.7169 24.0547 23.6351 24.1295 23.5686 24.1227C23.5177 24.1174 23.5578 24.0352 23.4826 24.0638C23.467 24.07 23.5115 24.1398 23.4322 24.1124C23.4197 24.1082 23.2928 24.0327 23.2668 24.0164C23.3336 23.9726 23.5271 23.9155 23.5999 23.8978C24.8529 23.5913 27.3768 23.5881 28.7148 23.6266C28.839 23.63 28.9203 23.7018 29.0013 23.7081C29.0823 23.7143 29.0138 23.6486 29.0873 23.654C29.1608 23.6597 29.2144 23.7061 29.2831 23.7101C29.7467 23.7375 30.2137 23.7666 30.6735 23.7793C30.7928 23.7825 30.8881 23.729 30.9966 23.729C31.0389 23.7291 31.0402 23.798 31.0702 23.7974C31.3935 23.7919 31.6925 23.7256 32.0141 23.7337C32.1476 23.7371 32.2918 23.7952 32.4241 23.8006C32.5331 23.8053 32.6461 23.7656 32.7441 23.7647C32.7973 23.7641 32.8254 23.8166 32.8446 23.8208C32.9116 23.8345 32.8882 23.7704 32.9225 23.7704C33.017 23.7706 33.064 23.848 33.1525 23.8419C33.1872 23.8395 33.1827 23.7902 33.2332 23.7825C33.2972 23.7728 33.2735 23.8183 33.3192 23.82C33.322 23.8202 33.313 23.7849 33.3372 23.7835C33.4933 23.7742 33.6881 23.7464 33.8386 23.7488C34.0965 23.7528 34.3516 23.8002 34.5965 23.8238C34.6615 23.8288 34.725 23.8375 34.7873 23.8491C34.8786 23.8675 34.8634 23.8195 34.8939 23.8235C35.0413 23.8501 35.0715 23.9195 35.2136 23.9701C35.2362 23.9781 35.3613 23.9758 35.4318 24.0527C35.4697 24.0933 35.488 24.1634 35.5123 24.2011C35.5365 24.2389 35.5842 24.2039 35.6208 24.2461C35.6842 24.3245 35.6367 24.3239 35.7184 24.4378C35.751 24.4814 35.8905 24.6323 35.9212 24.7853C35.9436 24.8863 35.9486 25.001 35.9372 25.1167C35.9218 25.2798 35.8733 25.445 35.8124 25.5967C35.7775 25.6841 35.7745 25.8271 35.6784 25.9528C35.5694 26.112 35.2766 26.3164 35.0917 26.3768C34.9982 26.4117 34.9727 26.3505 34.9615 26.3518C34.8878 26.3542 34.9336 26.4146 34.8839 26.4234C34.815 26.4345 34.7453 26.3914 34.6866 26.3921C34.6487 26.3924 34.6446 26.4439 34.6359 26.4447C34.6228 26.4458 34.6096 26.4467 34.5965 26.4473C34.3681 26.462 34.1634 26.4578 33.9344 26.4632C32.6524 26.4931 31.3582 26.5596 30.0787 26.5296C29.9715 26.5272 29.9674 26.4618 29.8732 26.4721C29.7789 26.4822 29.6879 26.6233 29.6103 26.4674C29.6078 26.4989 29.6081 26.5213 29.6056 26.55C29.4108 26.5056 29.216 26.5515 29.0255 26.5572C28.8845 26.5614 28.7594 26.5564 28.6292 26.553C28.5137 26.5497 28.5237 26.4949 28.4237 26.5664C27.9269 26.5217 27.4247 26.5326 26.9322 26.4582C26.8166 26.5753 26.7059 26.5015 26.5461 26.4842C26.5264 26.482 26.5476 26.5247 26.4891 26.5211C26.4156 26.5166 26.3776 26.4513 26.2539 26.4549C26.2211 26.4559 25.9785 26.5283 25.8887 26.4912C25.799 26.4541 25.669 26.4324 25.5757 26.3969C25.589 26.4249 25.6057 26.4517 25.6205 26.4793C25.574 26.4842 25.5272 26.4888 25.4807 26.4937C25.474 26.46 25.4672 26.4263 25.4607 26.3924C25.4337 26.4245 25.4067 26.4562 25.3794 26.4886C25.3207 26.3156 25.3809 26.372 25.2502 26.4158C25.1847 26.4376 25.1326 26.4074 25.0654 26.4249C25.0412 26.4313 25.0256 26.4823 24.9989 26.4888C24.9334 26.5045 24.9716 26.4344 24.9311 26.4348C24.8904 26.4354 24.8319 26.5124 24.7589 26.4781C24.8351 26.3408 24.6148 26.3856 24.6043 26.4923C24.5781 26.4925 24.5561 26.488 24.5271 26.4911C24.5539 26.2216 24.4165 26.4128 24.362 26.4497C24.3075 26.4866 24.3097 26.4142 24.297 26.417C24.2603 26.4249 24.287 26.455 24.2613 26.456C24.0907 26.462 23.9302 26.4178 23.7619 26.4138C23.7377 26.4132 23.7592 26.4541 23.7309 26.4501C23.7027 26.4461 23.6756 26.4054 23.6339 26.4082C23.6226 26.4089 23.6191 26.4448 23.6017 26.4449C23.4887 26.4444 23.3776 26.4411 23.2668 26.4367C22.9421 26.4273 22.6297 26.2913 22.3903 26.065C22.3597 26.0355 22.2885 26.057 22.2325 25.9883C22.176 25.9192 22.1504 25.779 22.1104 25.685C22.0996 25.6599 22.048 25.6755 22.0341 25.6397C21.9883 25.5177 22.0015 25.3994 21.9926 25.2725C21.9892 25.2208 21.9864 25.1691 21.9857 25.1167C21.9826 24.9505 22.005 24.7713 22.0923 24.6259C22.1141 24.5901 22.1516 24.6138 22.188 24.5685C22.2527 24.4928 22.1801 24.4935 22.1826 24.4711C22.1946 24.3977 22.2778 24.4287 22.2978 24.3658C22.3012 24.3559 22.2522 24.3357 22.2571 24.3281C22.3424 24.2116 22.4292 24.293 22.4955 24.1527C22.6362 24.1304 22.4874 24.2758 22.503 24.317C22.5327 24.4115 22.6879 24.4057 22.754 24.4022C22.8121 24.3966 22.7819 24.3515 22.8002 24.3401C22.8934 24.2792 23.0546 24.2174 23.1422 24.2349C23.1936 24.2439 23.1086 24.2789 23.1365 24.2933C23.1622 24.3077 23.1737 24.2645 23.2019 24.3077C23.232 24.3506 23.2746 24.484 23.266 24.5478ZM30.5435 25.9829C30.353 26.2006 29.8477 26.1779 29.5764 26.1571C29.3514 26.1398 29.1574 25.972 29.2039 26.2152C29.4471 26.2168 29.6439 26.1924 29.9012 26.1999C29.9279 26.2007 30.0875 26.2232 30.143 26.2273C30.1742 26.2295 30.1752 26.2697 30.2177 26.2693C30.227 26.269 30.2783 26.2166 30.297 26.218C30.3613 26.2226 30.5523 26.3032 30.579 26.3009C30.653 26.294 30.6246 26.2316 30.6565 26.2202C30.7638 26.1827 30.7756 26.2765 30.8819 26.2461C30.9009 26.2406 30.9639 26.1589 31.0426 26.1696C31.0747 26.174 31.1292 26.2162 31.1537 26.2142C31.2872 26.2033 31.4362 26.1474 31.5585 26.1567C31.6587 26.1644 31.6318 26.2275 31.6848 26.2359C31.7378 26.2442 31.8018 26.171 31.838 26.1668C31.896 26.1601 31.9665 26.2017 31.9845 26.2011C32.3391 26.1888 32.6544 26.1406 32.9964 26.1233C32.7642 26.0944 32.5321 26.068 32.3013 26.0381C32.1703 26.1034 32.2356 26.0422 32.1493 26.0218C32.0811 26.0057 32.0645 26.1163 31.9748 26.1041C31.9749 26.1041 31.975 26.1041 31.975 26.1041C31.9288 26.0976 31.8285 26.021 31.73 26.0531C31.7265 26.0543 31.7177 26.1117 31.644 26.1137C31.4782 26.1182 31.2242 26.1476 31.0377 26.1353C30.9829 26.1317 30.9941 26.0714 30.9293 26.0639C30.8821 26.0585 30.8273 26.1143 30.7534 26.1018C30.6606 26.0859 30.6161 25.99 30.5523 26.1233C30.5471 26.0757 30.5498 26.0292 30.5435 25.9829ZM25.4197 26.0988C25.4066 26.0936 25.2321 25.9448 25.2839 26.1037C25.5184 26.1726 25.772 26.1384 26.0188 26.1771C25.9345 26.02 25.792 26.0819 25.6189 26.0934C25.6189 26.0934 25.6188 26.0934 25.6187 26.0934C25.6105 26.0939 25.6447 26.0529 25.5983 26.0603C25.5758 26.064 25.4894 26.1269 25.4197 26.0988Z" fill="#A9A9A6"/>
</svg>
