<svg xmlns="http://www.w3.org/2000/svg" width="55" height="55" fill="none" viewBox="0 0 55 55"><path fill="#a9a9a6" d="M52.247 11.68c-.557 0-1.007.452-1.007 1.008v14.929a3.74 3.74 0 0 1-3.736 3.735h-5.74c-.267 0-.523.106-.712.295l-6.96 6.96v-6.248c0-.556-.45-1.007-1.006-1.007h-14.42a3.74 3.74 0 0 1-3.735-3.735V12.383a3.74 3.74 0 0 1 3.736-3.736h28.837a3.74 3.74 0 0 1 3.736 3.736v3.588a1.007 1.007 0 1 0 2.014 0v-3.588c0-3.17-2.58-5.75-5.75-5.75H18.667c-3.17 0-5.75 2.58-5.75 5.75V25.32h-7.33a3.9 3.9 0 0 0-3.896 3.895v9.28a3.9 3.9 0 0 0 3.896 3.896h3.08l4.992 4.992a1.007 1.007 0 0 0 1.72-.712v-4.28h7.776a3.9 3.9 0 0 0 3.896-3.895v-5.13h5.028v7.67a1.006 1.006 0 0 0 1.719.712l8.383-8.383h5.323c3.17 0 5.75-2.579 5.75-5.75V12.689c0-.556-.451-1.008-1.007-1.008m-27.21 26.817a1.884 1.884 0 0 1-1.882 1.881H14.37c-.556 0-1.007.452-1.007 1.007v2.856l-3.567-3.568a1 1 0 0 0-.713-.295H5.587a1.883 1.883 0 0 1-1.881-1.881v-9.28c0-1.038.844-1.882 1.881-1.882h7.33v.282c0 3.17 2.58 5.75 5.75 5.75h6.37z"/><path fill="#a9a9a6" d="M52.238 12.119a.56.56 0 0 0-.526.569c.028 1.568.036 3.145.019 4.756-.006.49-.047.444-.053.645-.013.37.032.99.032 1.078 0 .54-.072.329-.075.401-.029.81.053.577.061 1.352.01 1.01-.004 2.304-.008 3.52-.002.426-.057.236-.052 1.158.002.378.024 1.208.029 2.019.009.659-.18 1.296-.385 1.674-.025-.005 0-.134-.005-.192-.523 1.289-.913 1.974-2.894 2.55-.253.05-.497.115-.877.12q-.135.002-.3-.003c-.521-.016-.543-.082-1.593-.081-.372 0-.598.047-1.17.049-.703.002-1.684-.007-2.677-.019a.65.65 0 0 0-.462.182c-.73.712-1.417 1.381-1.843 1.806-1.859 1.853-2.812 2.919-4.48 4.547-.128.126.115-.19-.119.043-.235.234-.431.526-.488.585l-.004.004-.663.667-.002-.943c-.018-.883.073-2.738.062-3.227-.027-1.191-.057-.018-.07-1.668-.003-.416.001-.874.009-1.352.02-.319-.266-.647-.618-.652-.84-.021-1.666-.044-2.368-.052-1.805-.02-2.388.11-3.747-.025l-8.304.011c-2.145.053-4.08-1.878-4.033-4.024v-.182q.04.022.08.046l-.055-1.134.06.168a95 95 0 0 1-.096-5.433c0-.04.054.066.056.033.01-.468-.031-.99-.022-1.401.023-.993.14-2.68-.003-1.937.022-1.7.002-3.62 0-5.395a3.9 3.9 0 0 1 .489-1.898c.532-.88.88-.982 1.25-1.27.397-.264.16-.188.304-.28.513-.323 1.344-.552 1.97-.52.418.01.736.03.807.064l.601-.098c-.116.09 2.892.053 3.682.055.144 0 .164.04.273.04 1.212-.005 1.509-.067 2.547-.088.365-.007-.2.063.735.032.082-.002.038-.065 1.156-.064 1.784 0 5.197-.024 7.321.006.174.003-.356.07.44.055.289-.006.15-.054.85-.054 2.709-.002 5.597.053 8.36.007-.1.055-1.085.116.395.082.236-.006.06-.055.166-.057.521-.008 1 .001 1.504.006.349.003.707.047 1.086.147.281.08.366.064.705.215.49.245.666.426 1.126.855.65.722.852.874 1.034 2.088q.058.336.058.678l.006 3.588a.73.73 0 0 0 .728.725.73.73 0 0 0 .722-.725l-.003-3.588c.052-2.675-2.14-5.156-4.807-5.448a6 6 0 0 0-.655-.028c-1.603.026-3.13.052-4.829.062-.57.003-.68-.066-1.591-.043-.204.005-1.66.08-1.872-.06-.405.011-.66.012-1.009.02.264.02.536.04.79.061-1.47-.022-2.669.027-3.969.05-.957.018-.277-.042-.864-.036-.588.006-.855.02-1.59-.053-.576.083-.959.025-2.022.023-.114 0-.775.032-1.327.025-.397-.004-.515-.056-1.145-.048-.103.001-1.436.065-1.86.071-.662.01-1.712-.057-1.84-.058-1.857-.011-2.573.054-3.892-.054-.224.054-1.036.09-1.817.095q-.213.002-.414.016c-1.087-.054-3.074.953-3.147 1.32-.906.82-.856.74-1.486 2.046a5.6 5.6 0 0 0-.411 2.039c-.015 1.552-.034 3.323-.03 4.048.008 1.137.085.583.095 1.034.017.74-.04.34-.039.846.003 1.43.014 2.674.038 4.039-.04.073-.08.152-.12.228l.04.212v.895c.119-1.563.07.032.025 1.636v.3h-.3a98 98 0 0 0-1.936-.042c-1.142-.004-3.044.08-4.298.097-.304.005-.095-.039-.157-.038-.425.007-.642.02-.94.03-.198.007-.436.018-.805.1-.46.104-.934.265-1.315.544a3.58 3.58 0 0 0-1.468 2.904c.014 2.462.04 4.9.043 7.387.001.63-.064 1.175-.066 1.705v.189c.017.608.159 1.018.41 1.554.26.596.91 1.317 1.314 1.524.392.21-.246-.196.464.182.34.15-.286-.06.14.117.373.144.816.234 1.283.229.997-.01 2.088-.022 3.08-.01l.124-.001.089.088q.34.348.644.673c-.042-.062-.104-.141-.158-.214 1.248 1.256 2.33 2.385 3.62 3.681.227.23.555.543.881.855a.72.72 0 0 0 .769.137l.003-.002c.324-.153.444-.372.466-.638q.004-.11.004-.235c0-.207-.04-.126-.038-.264.009-1.49.062-2.403.072-3.78v-.235h.959l7.053-.03c1.927.039 3.662-1.708 3.607-3.631l-.02-5.13v-.308l.309-.001 1.974-.008c.272 0 .455-.053.851-.06.612-.012.642.034.723.035.533.01.316-.032 1.031-.032h.82v.373c-.005 1.577-.036 3.808-.033 5.236.002.838.006 1.646.01 2.435a.657.657 0 0 0 .659.648.64.64 0 0 0 .453-.194c1.238-1.258 2.46-2.503 3.787-3.845.18-.182.1-.016.414-.33 1.835-1.827 2.442-2.49 4.169-4.222l.111-.112h.161c.505-.002 1.076 0 1.741.002l3.582.016c2.69.164 5.55-2.555 5.421-5.383l.009-3.171c-.113-1.433-.085-3.288 0-4.827.085 2.688.133 5.342.159 7.998.1 2.949-2.558 5.683-5.589 5.612q-2.625-.007-5.323-.013h-.063l-.043.044a1114.308 1114.308 0 0 0-8.36 8.407.895.895 0 0 1-.974.202.91.91 0 0 1-.566-.832c-.022-2.545-.048-5.109-.071-7.67v-.026h-.026q-2.518.023-5.027.04l.014-.015q.017 2.578.021 5.13a3.92 3.92 0 0 1-1.204 2.828c-.717.638-1.123.74-1.88.956-.132.03.224.009-.186.094q-.327.06-.661.063c-2.55.024-5.167.015-7.777.001l.046-.046c-.008 1.433-.017 2.864-.022 4.28a1.035 1.035 0 0 1-1.03 1.026 1.03 1.03 0 0 1-.726-.301q-.828-.83-1.645-1.638c-1.076-1.063-1.282-1.192-2.233-2.122.184.147.311.235.474.36A528 528 0 0 0 8.67 42.39q-1.542-.015-3.083-.022c-2.056.04-3.908-1.81-3.862-3.871 0-2.277-.002-4.56.002-6.852 0-.277.055-.313.057-.604.004-.582-.056-1.14-.058-1.648v-.177c.02-.508.073-.651.222-1.172.1-.273 0-.222.314-.785.032-.043.071-.062.322-.402.47-.71 1.842-1.556 3.003-1.51l1.056-.014c1.251-.014 2.255.052 2.728.056 1.278.011 1.252-.056 2.334-.056h1.226v-.012c.004-4.355.03-8.615.05-12.939-.051-2.892 2.463-5.59 5.46-5.656q.087-.004.226-.008c.688-.013 2.206-.071 3.014-.068.307 0 1.913.02 2.154.022.976.006 1.82.052 2.359.061 1.044.019 2.21-.052 2.78-.059.997-.013 2.77-.003 3.189-.001 1.012.004.678.091 1.404.07.214-.005-.01-.072.745-.072.634 0 .89.05 1.322.06s1.226-.07 1.495-.067c1.41.01 2.033.062 3.567.064 1.022.002 5.02-.02 6.808-.04.436-.003.739.04.833.049 1.524.29.19-.132-.833-.112-.413.001-.762.004-.822.003-1.113-.016-.95-.047-2.06.013-.992-.185-4.452.103-5.339-.117-.916.147-1.686.073-2.652.043-1.334-.04-.318.045-1.291.046-.384 0-1.496-.067-2.073-.057-.576.009-.819.06-1.591.063a62 62 0 0 1-3.647-.08l-.62.081-2.401-.087.383.071-.702.01-2.32-.105c-2.173.137-1.542.019-2.75 0a24 24 0 0 0-.952.006c-.702.022-1.243.156-1.873.366-1.182.452-1.691.81-2.554 1.748-.507.548-1.118 1.661-.527.807-.48.8-.805 1.862-.795 2.947.007 1.579.007 3.18-.022 4.397-.014.605-.052-.202-.057-.099-.022.514.04.947.03 1.477-.014.881-.062 2.597-.074 3.291-.016.998.064 2.567.07 2.728.022.613-.002.92-.018 1.144l.07-.07a3 3 0 0 0-.281-.012c-1.64.026-2.002.054-2.519-.086-.424.06-2.203.163-2.633.06-.009.077-1.03.08-1.897.091a4 4 0 0 0-.499.041 4 4 0 0 0-.52.02c-1.17.33-2.92 1.83-2.896 3.851-.015 1.086-.035 2.154-.042 3.054 0 .063.068.175.053.55-.002.024-.033-.015-.037.237-.013.83-.09 3.995-.09 4.359-.001.473.004.809.012 1.08.025.514.092.804.264 1.314.428 1 .516 1.179 1.308 1.863.398.291.814.485 1.552.677.441.097.484.142.847.16h.048c1.17.012 2.052-.013 3.08.037l-.109-.045q.056.06.113.125c.313.097.61.554.993.952 1.196 1.248 2.67 2.68 3.902 3.898a1.147 1.147 0 0 0 1.95-.805c.012-1.457.027-2.878.042-4.28l-.18.18c2.62.03 5.172.061 7.777.084 1.475.027 2.957-.82 3.684-2.173.412-.835.407-1.157.434-1.986v-.254c.002-.449.057-.911.058-1.645 0-.59-.028-1.436-.027-2.173 0-.195.052-.213.052-.501v-.558l-.305.306c1.68-.003 3.338-.027 5.028-.048l-.258-.258.011.945c.01.818-.06 1.324.06 1.186-.029.312-.054.616-.083.91.075 1.126-.003 2.046.016 3.569.001.1.033.565.043 1.061.002.39.215.76.448.967.07 0 0-.103.043-.118a1.161 1.161 0 0 0 .727.27c.3.008.607-.12.806-.313.165-.154.31-.29.41-.389.312-.304.478-.549.57-.642.351-.352.32-.219.349-.245 1.69-1.59 1.49-1.445 2.402-2.513.229-.268 1.97-1.895 2.249-2.297.04.01-.032.126-.035.177l1.543-1.504c-.132.084-.285.189-.408.263.46-.442.873-.866 1.263-1.273l-.054.022c.73-.017 1.414-.041 2.091-.04.686.002.602.076 1.004.06.08-.003-.054-.054.18-.058a65 65 0 0 1 2.048-.004c.783 0 1.55-.087 2.545-.551.808-.411 1.425-.939 2.224-1.95.087-.071.818-1.167.845-1.979.092-.234.145-.449.197-.632a9 9 0 0 0-.023-.671c-.057-.84.065-.848.099-2.608.02-1.102-.01-4.809-.029-6.008-.01-.715-.08-.702-.082-.829-.016-.761.05-.762.04-1.466s-.086-1.594-.08-2.318c.006-.554.088-.117.06-.936-.006-.17-.076.315-.049-.548l.01-.216a1.06 1.06 0 0 0-.325-.806 1.1 1.1 0 0 0-.69-.295c.339-.064 1.151.3 1.164 1.1.025.78.046 1.608.056 2.042.079 3.525.138 7.975.181 12.888.125 3.114-2.704 6.258-6.143 6.203-1.759.009-3.539.016-5.323.022l.337-.14c-2.815 2.835-5.65 5.679-8.367 8.4a1.51 1.51 0 0 1-1.642.327 1.52 1.52 0 0 1-.93-1.392c0-2.686 0-5.266.004-7.67l.495.495c-1.78-.002-3.466-.006-5.027-.01l.486-.486q0 .754-.003 1.467c-.004 1.352-.076 2.236-.082 3.117-.004.616.027.437.044.547.006.053.015.165-.011.433-.108.889-.416 1.496-.903 2.154a4.3 4.3 0 0 1-3.427 1.688c-2.595-.014-5.192-.027-7.777-.037l.343-.343q-.008 1.88-.012 3.748l.001.532a1.365 1.365 0 0 1-1.339 1.369 1.37 1.37 0 0 1-.978-.39q-.216-.21-.434-.428c-.325-.325-.286-.384-.517-.614-1.37-1.366-2.698-2.663-4.025-3.966l.25.103c-1.02.01-2.042.018-3.08.022a4.2 4.2 0 0 1-1.642-.328c-1.5-.598-2.556-2.252-2.56-3.812l-.002-.131c.001-1.148-.036-2.33-.036-3.36-.001-.578.051-.883.056-1.093.013-.728-.05-.474-.05-.846 0-1.028.077-1.54.07-2.502-.002-.378-.051-.33-.059-.878-.006-.43.01-.496.022-.602.009-.07.014-.155.031-.358.004-.033-.046.07-.013-.215.138-1.89 2.193-3.733 4.036-3.68l.147-.003c2.487.005 4.95.043 7.33.067l-.293.294q.013-1.226.018-2.42c.004-.796-.042-.584-.044-.837-.01-1.219.044-1.654.024-2.93-.003-.211-.067-1.066-.05-1.881.008-.441.048-.941.057-1.316s-.049-.436-.05-.887c0-.821.041-.582.034-1.757-.001-.176-.01-.504-.02-.91-.026-.725.135-1.696.474-2.44.78-1.93 3.132-3.674 5.6-3.61h.137c.805 0 1.839-.06 3.087-.06 1.526 0 4.337.013 5.901.014.8 0 .858.063.953.066.611.017.364-.053.774-.05.563.004 1.089.055 1.6.059.326.002.378-.05.449-.05 2.616-.017 4.928-.013 7.528-.018l8.408-.021c3.251-.086 6.203 2.838 6.136 6.11l.01 3.588c.018.747-.654 1.422-1.403 1.406-.75.02-1.426-.655-1.41-1.406l-.006-3.588c.04-1.772-1.562-3.365-3.327-3.322q-4.154 0-8.293-.008c-1.167-.002-1.21-.068-2.236-.057-1.025.01-2.016.151-2.859-.005-.027.032-.024.054-.051.083-2.12-.045-4.238.001-6.31.007-1.534.004-2.894 0-4.311-.004-1.256-.004-1.147-.058-2.235.013q-1.27-.01-2.542-.017c-1.76-.055-3.371 1.534-3.337 3.31a840 840 0 0 1-.064 7.815c.117 1.257.043 2.461.026 4.2-.002.214.04-.017.037.62-.005.799-.07 1.212-.067 2.558v.04c-.002.218.056.917.415 1.555.339.65.958 1.156 1.322 1.371a3.3 3.3 0 0 0 1.668.496c.52.013 1.031.026 1.47.041-.145-.028-.327-.055-.488-.082l1.52-.015.218.101.884-.096c.64.173-.016.117 1.406.073.713-.022 1.279.009 2.01-.009.264-.006.432-.057.723-.064.712-.016.297.054.737.054.444 0 1.08-.078 1.874-.043-.829.137 1.567.092 1.682-.014.285 0 .524.004.84 0-.256.237.864.119 1.543.061.122-.008.236.003.33.022.388.09.524.258.596.338.07.09.08.13.133.2.26.445.124.097.244.446q.036.152.036.308c.002 1.768-.038 3.445-.042 5.198 0 .263.04.03.036.337-.003.222-.025.438-.036.712l-.496-.205q.116-.106.248-.239c.085-.087.087-.139.221-.273 2.19-2.188 4.306-4.278 6.49-6.448.24-.24.578-.379.918-.377l1.876.004c.367 0 .655-.064 1.365-.061.665.002 1.653.052 2.5.063q.078 0 .155-.003c.217-.012.27-.067.546-.12.933-.201 1.712-.682 2.258-1.542a3.4 3.4 0 0 0 .5-1.788c-.004-1.212-.01-2.438.01-3.64.006-.356.05-.299.063-.812.021-.887-.043-.553-.052-.733-.028-.587.058-.772.036-1.34-.004-.087-.054.037-.055-.04-.01-1.208.11-1.272.046-2.555.069-1.142.092.765.129.96.089.479.193-.785.226-1.53.03-.642-.026-.637-.026-.893 0-1.332-.01-3.305.014-4.346l.002-.041c.053-.31.023-.12.031.04.009.143.018.273.025.136q.004-.07.005-.135c.006-.197.037-.374.21-.525a.64.64 0 0 1 .43-.147c.14.011.216.073.18.103m-7.972-3.612c-2.072.217-7.568.195-10.519.174-2.448-.018-4.558-.185-4.052.058 2.646.001 4.786-.023 7.584-.015.291 0 2.027.023 2.631.027.34.002.35.042.813.042.1 0 .659-.053.862-.051.7.004 2.777.085 3.068.083.804-.007.495-.07.843-.081.998-.032 1.236.032 2.008.032.127 0 .267.004.428.019.189.017.905.028 1.614.516.293.187.683.627.835.836.487.607.799 1.42.809 2.236.012.676.021 1.336.017 1.936-.008 1.09-.07.797-.08 1.373q0 .136.002.28c-.005.602.582 1.002.917 1.03q.099.018.2.019c.663.034 1.08-.672 1.068-.855q.017-.097.017-.195c-.005-1.23-.013-2.42-.022-3.588 0-2.462-1.672-4.73-4.04-5.472 2.317.75 3.968 3.085 3.903 5.472l-.004.324c.066 1.425.004.716-.016 1.654-.014.663.072.877.082 1.61a.9.9 0 0 1-.04.279l.001-.003c-.063.261-.417.688-.948.666a.985.985 0 0 1-.916-.745c-.003-.019-.035-.047-.054-.197a8 8 0 0 1-.027-.723c-.002-.812-.01-1.819-.015-2.865.016-1.293-.772-2.543-1.715-3.13-.51-.299-.372-.32-1.052-.542-.282-.076-.6-.11-.964-.098-.284.01-.6.018-.955.013-1.009-.016-1.493-.112-2.186.02-.057-.047-.029-.093-.097-.14m-22.433 22.87c.142.005 2.04.154 1.477-.005-1.495-.04-3.062-.045-4.643-.05a3.67 3.67 0 0 1-2.877-1.409c.34.65 1.405 1.503 2.877 1.48q.48-.007.999-.01h.002c.09-.001-.282.04.223.033.245-.004 1.184-.067 1.942-.039m3.642 7.124a2.01 2.01 0 0 1-.562 1.588c-.095.095-.117.055-.16.088-.078.06-.182.198-.202.212-.12.086-.114-.008-.131.001-.196.09-.1.13-.286.23a2.1 2.1 0 0 1-.925.206.2.2 0 0 1-.054-.007c-.043-.015-.05-.048-.209-.044-.143.003-.58.065-.781-.002-.001-.025.024-.053.035-.079-.289.105-.392.1-.801.075-.065-.004-.126.04-.24.023-.114-.015-.119-.082-.348-.081-.081 0-.13.047-.255.05-.355.005-1.03-.053-1.321-.055-.573-.004-.885.076-1.394.048-.039-.002.047-.053-.025-.054s-.147.067-.165.068c-.193.018-.6-.073-.706-.062-.26.027-.004.057-.364.07-.344.012-.818-.077-1.158-.094-.394-.02-.521.108-.818-.026l-.234.002a.73.73 0 0 0-.718.727l.008 1.318-.08-.01.055.248-.06-.037c.078.388.117.733.096 1.186 0 .01-.054-.014-.055-.007a.7.7 0 0 0 .01.158l.006.633-.455-.447c-.043-.031-.084-.062-.113-.097-.136-.17-.314-.512-.3-.297-.337-.378-.791-.764-1.112-1.124-.139-.155-.123-.26-.19-.333s-.083.013-.11-.01c-.162-.139-.407-.388-.376-.472l-.162-.023c.082-.046-.409-.484-.53-.608-.021-.022.004-.053-.013-.07-.191-.184-.28-.186-.456-.331-.06-.051.076-.013-.09-.137-.012-.008-.037.022-.131-.05l-.072-.053a.7.7 0 0 0-.439-.144 13 13 0 0 1-.931-.014c-.038-.002.077-.07-.097-.054-.062.005-.032.054-.185.054-.591.002-1.222-.053-1.825-.007.022-.055.237-.116-.086-.082-.052.006-.014.055-.037.056-.116.01-.223-.001-.336-.005q-.116-.006-.245-.01c-.068-.003-.091.032-.178.025-.13-.013-.17-.08-.316-.106-.225-.05-.298-.023-.483-.265a2.17 2.17 0 0 1-.945-1.773c-.005-.8-.003-1.599.022-2.398-.029-.406-.061-.78-.072-1.204-.003-.125.066-.149.043-.348-.005-.044-.08-.362.06-.408-.011-.089-.012-.145-.02-.22q-.03.087-.061.172c.022-.321-.027-.583-.05-.867-.018-.209.042-.06.036-.188-.006-.129-.02-.187.053-.347-.083-.126-.025-.21-.023-.442 0-.025-.032-.17-.025-.29.004-.087.056-.112.048-.25-.001-.022-.065-.313-.071-.406-.01-.144.057-.374.058-.402.011-.405-.054-.561.054-.85-.064-.058-.102-.298-.096-.492.003-.091.023-.216.04-.34.026-.246.099-.47.027-.54.155-.3.098-.28.29-.623.154-.346.964-.859 1.251-.895.272-.078.124-.118.236-.151.188-.044.092.026.22.014q.075-.006.147-.007c.261-.004.499-.015.757-.037l.05.12.046-.04.195.001c-.501-.175.484.013.78.018.25.003.664-.08.938-.098.066-.004.02.039.034.038.16-.012.185-.042.4-.038.115.003.231.056.342.058.815.007 1.602-.047 2.412-.053.138-.001.257.065.373.066.165.002.27-.052.425-.053.155 0 .379.064.484.054.1-.01-.06-.067.094-.057l.336-.005.005.346-.002.023c-.008.088-.055-.068-.056.041q0 .102.003.218c.01.296.068.637.071.916.011-.017.02-.04.03-.06.053.36.102.684.229 1.043.044.126.175.33.232.445.056.117.044.19.093.282.02.038.047.004.06.03.169.315.222.521.466.815.897 1.07 2.244 1.793 3.635 1.924.056.005.099-.042.18-.042.125-.002.128.043.145.046.11.016.066-.028.212-.024l.11.002c.344.007.818.036 1.124.033.79-.007 1.454-.047 2.228-.068.056-.002.018.06.115.06.682.007.826-.052 1.675-.035l1.229.025.352-.005.005.362c-.016.758-.032 1.604-.037 2.218.113.313.085.718-.001 1.054-.159-1.1-.187-2.172-.184-3.272l-.002-.137-.133.002c-.84-.002-1.695-.023-2.591-.018-1.23.007-2.505.074-3.78.127a5.2 5.2 0 0 1-2.813-.671c-.18-.106-.216-.205-.369-.29-.025-.014.01.07-.068.023-1.093-.652-1.85-1.855-2.242-3.009-.107-.313-.172-.35-.247-.637.036.045.07.073.105.11a7 7 0 0 1-.089-1.25l.004-.281v-.03h-.03c-.816-.01-1.634.001-2.458-.006-.06 0-.069-.055-.132-.057-.127-.004-.249.056-.36.058-.145.002-.17-.04-.304-.038-.065.002-.045.043-.187.036-.012 0-.02-.044-.114-.039-.258.016-.786.052-1 .063-.273.014-.492-.051-.596-.056-.279-.011-.273.056-.51.056q-.841-.001-1.669-.02c-1.002-.046-1.98.837-1.968 1.914q-.002.193-.001.387c0 .108.074.508.071.708 0 .067-.02.418-.022.47-.007.213-.052.398-.061.515-.019.228.052.483.059.607.012.218.003.605.001.697-.004.22-.091.148-.071.306.006.047.073-.002.073.163 0 .138-.05.194-.06.288-.009.095.07.268.067.327-.01.308-.062.444-.064.779-.002.278.033 1.563.052 1.67.082.479.045-.319.048-.363.016-.243.047-.208-.013-.45.185-.217-.103-.972.117-1.166-.147-.2-.073-.368-.044-.579.041-.291-.044-.07-.045-.282 0-.084.067-.326.057-.452s-.06-.18-.063-.348a3 3 0 0 1 .08-.796l-.081-.135.086-.525-.07.084-.01-.153.105-.507c-.137-.474-.019-.337-.001-.6.018-.264-.061-.416-.062-.62v-.025c.005-.248.016-.375.104-.62.053-.148.252-.34.042-.204.189-.463.768-.943 1.224-.98.13-.017-.03.06-.006.06.108-.005.187-.082.301-.083q.067 0 .155.008c.196.02.444.051.56.06.218.016.56-.064.595-.07.196-.032.249.034.312.03.358-.027.437-.055.55.085.092-.06.48-.162.574-.06.003-.092.325-.077.524-.1l.11.08c.414-.165 1.239-.045 1.783-.026.014 0 .038-.068.12-.053.005.002-.003.033.052.037.181.013.872.09.952.09.293.003.344-.048.522-.053.234-.006.268.04.491.033.06-.001.117-.022.185-.038l-.077-.077a.6.6 0 0 1 .017.179.2.2 0 0 1-.03.103c-.013.023-.025.045-.026.083-.01.28.038.482.01.738.16.042.066.175.079.299.044.505.316 1.081.497 1.468.557 1.213 1.394 2.186 2.585 2.816.195.1.275.052.482.142.093.04.172.13.332.183.128.044.322.07.485.11.043.01.035.061.1.076a4.7 4.7 0 0 0 1.296.09l.186-.01c.179-.01.29.06.259-.06.068.03.135.055.199.084.246-.076.446.003.779-.016.036-.003.287-.085.43-.026.01-.042-.013-.079-.009-.117.141-.017.357.033.452.038s.159-.05.187-.051c.109-.002.084.071.092.072.506.07.453.032.759-.078.077-.028.596.053.702-.034.004.035-.025.066-.033.1l.47.028c-.033-.034-.073-.068-.103-.102.32.03.586-.05.848-.048.15.002.131.076.22.06.016-.003-.013-.054.038-.058.374-.03.559.01.894.026l-.064-.064-.005.122c-.005.196.087.367.027.647-.006.026-.088.3.03.47-.037.054-.057.102-.088.142.174.344.003.25-.037.714-.02.24.01 1.05.028 1.312.011.156.08.153.082.18.016.167-.05.167-.039.321.01.154.086.348.079.506-.006.121-.088.026-.059.204.006.037.076-.068.049.12-.005.03-.08.33-.096.393a8 8 0 0 1-.119-.791c-.116-1.122-.188-2.673-.231-4.34l.443.443c-2.154.056-4.502.064-6.37.053a6 6 0 0 1-1.543-.206c-.31-.084-.484-.222-.673-.301-.19-.082-.053.045-.224-.033-.172-.08-.274-.181-.427-.266a6.3 6.3 0 0 1-2.434-2.464c-.143-.262-.294-.457-.397-.713-.04-.1.024-.128-.002-.198-.25-.676-.419-1.346-.426-2.064v-.282l.376.375c-.306-.007-.634-.061-.936-.066-.259-.005-.527.035-.76.036-.126 0-.193-.052-.238-.056-.16-.014-.104.05-.185.05-.225 0-.336-.078-.546-.072-.083.003-.072.052-.192.06-.152.01-.096-.036-.205-.038-.006 0 .015.036-.042.037-.37.01-.834.037-1.191.035-.74-.005-1.47-.073-2.158-.087-.174-.003-.128.043-.183.045-.266.01-.361-.044-.64-.024q-.017.001-.054.01c-.068.018-.18.059-.29.068-.078.006-.176-.008-.244.007-.07.015-.058.073-.13.107-.13.069-.117.007-.289.138-.071.053-.244.287-.352.471-.132.207-.25.481-.265.785a11 11 0 0 0-.012.467c0 .175.06.401.06.674.002.333-.012.947-.013 1.288 0 .175-.063.187-.066.208-.017.134.053.08.05.17-.004.122-.056.237-.059.349-.002.07.05.082.05.098.017.57.012 1.076.018 1.643.014 1.457.037 2.92.053 4.384-.006.792.712 1.488 1.49 1.468q.91 0 1.817.008c.255.002.265.067.489.057s.44-.151.624.005c.006-.032.005-.054.011-.083.185.018.37.021.555.018.373-.005.752.135 1.019.397l.022.022c.24.234.446.448.663.669.191.196.136.218.354.335.803.866 1.654 1.702 2.429 2.582l.041.018-.599.248c-.093-.26-.026-.514-.01-.874.003-.047-.04.003-.036-.136.004-.174.07-.265.066-.558-.001-.078-.073-.654-.036-.868.02-.12.037-.271.053-.42.012-.15.052-.292.106-.404a1 1 0 0 0-.116.113c.027-.147.08-.292.154-.423q.06-.001.119.002.028-.128.087-.256c.26.005.052.067.369-.183.17-.111.339-.127.542-.155a.3.3 0 0 0 .06-.017c.035-.017.067-.044.111-.049.156-.015.065.055.162.054.096 0 .235-.077.409-.043-.181.137.342.093.367-.014.062 0 .114.004.183.001-.063.27.263.078.392.041.13-.036.124.036.155.033.087-.008.023-.038.084-.039.405-.006.787.038 1.186.042.058 0 .007-.04.074-.036s.131.045.23.042c.027 0 .035-.037.077-.037.869.002 1.694.032 2.58.037.08 0 .143-.063.298-.061s.39.06.582.064c.051.001.065-.052.133-.05.23.004.429.048.668.055.357.01.728-.014 1.093.002l.124.004c.067 0 .061.046.162.043.175-.012.095-.065.127-.08.097-.056.159.013.252-.05.014-.01-.028-.047-.015-.054.194-.105.277-.013.431-.22.213-.098-.051.172-.073.22-.036.131.256.065.404-.041.126-.087.081-.127.12-.17.208-.236.378-.673.435-.905.04-.14.017.122.048.053.032-.072-.002-.125.052-.197.054-.07.19-.237.253-.206M6.302 40.519c.452-.218 1.652-.195 2.297-.174.175.006.343.028.485.046.287.041.424.167.424-.019a1.1 1.1 0 0 0-.424-.083c-.41.006-.792.019-1.257.013-.063 0-.442-.023-.574-.027-.074-.002-.077-.042-.178-.042-.022 0-.143.053-.188.051-.152-.005-.606-.085-.67-.083-.175.007-.108.07-.184.08-.22.034-.271-.033-.446-.031q-.037 0-.083.004c-.04.004-.194.078-.372.022-.072-.022-.176-.103-.226-.123-.282-.1-.598-.276-.768-.51-.134-.192-.041-.178-.095-.283-.051-.105-.173-.21-.203-.291-.05-.127-.037-.296-.042-.336a2 2 0 0 1-.02-.236c-.017-.744-.057-1.424-.073-2.156q-.042.827-.085 1.65c.065.312.004.157-.016.362a.3.3 0 0 0 .02.144c.03.074.07.137.081.272.007.107-.013.374.127.582.006.006.061.004.154.153.204.346.719.707 1.15.808.124.032.087.088.243.115.062.01.131 0 .208-.013a1 1 0 0 1 .216-.014c.22.016.326.112.478-.021.012.047.006.094.02.14m7.311.242c.02-.044.41-.144.233-.211-.298.134-.513.478-.512.835-.004.243-.007.488-.023.73.128-.164.11-.419.093-.73a1 1 0 0 1 .014-.213c.004-.017.026.065.043-.037.005-.045.02-.265.152-.374"/><path fill="#a9a9a6" d="M42.905 13.233H23.267a1.007 1.007 0 0 0 0 2.014h19.638a1.007 1.007 0 1 0 0-2.014"/><path fill="#a9a9a6" d="M42.903 13.671a3.7 3.7 0 0 1-.915.053c-.07-.005-.064-.046-.093-.053-.054-.012-.143.032-.156.032-.078 0-.048-.071-.058-.074-.117-.03-.084.053-.196.06-.146.01-.333-.004-.509-.008-.061-.002-.034-.056-.167-.052-.095.003-.384.066-.518 0 0-.026.017-.054.024-.08-.192.105-.26.1-.531.075-.043-.004-.084.039-.159.023s-.079-.082-.23-.082c-.054 0-.087.048-.17.05-.235.006-.682-.053-.875-.055-.38-.004-.586.076-.923.049-.026-.002.031-.054-.016-.055-.048 0-.098.067-.11.069-.128.017-.397-.074-.468-.063-.172.027-.002.057-.24.07-.228.012-.542-.076-.768-.094-.26-.02-.345.109-.542-.025q-1.037.01-2.075.02l.006-.081-.164.055.025-.06a2.1 2.1 0 0 1-.786.096c-.006 0 .01-.054.004-.055-.067-.01-.143.03-.202.021-.144-.023-.388-.14-.28.003-.335-.03-.729.019-1.047-.009-.139-.012-.18-.096-.246-.101s-.032.068-.056.07c-.14.016-.372.013-.397-.068l-.087.098c.017-.09-.418-.053-.532-.055-.021 0-.024-.04-.04-.04-.175.006-.218.068-.368.088-.053.008.029-.062-.107-.032-.011.003-.005.065-.167.065-.258 0-.751.024-1.059-.007-.025-.002.052-.07-.063-.055-.042.006-.022.054-.123.055-.392.002-.81-.054-1.21-.008.015-.054.158-.116-.056-.081-.035.005-.01.054-.024.056-.125.014-.232-.02-.367-.002-.04.006-.05.044-.1.053-.072.013-.105-.041-.19-.018-.133.037-.153.088-.318-.013-.664.004-1.326.02-1.987.013a.78.78 0 0 0-.534.203.78.78 0 0 0-.137.533c.006.054-.065.075-.021.163.008.025.125.119.019.207.033.033.049.055.078.08a1 1 0 0 1 .004-.102c.06.139.197.187.312.216.087.02.006.051.061.065.058.012.079.005.146.085.029-.032.048-.041.072-.041.048 0 .104.02.195.022.016 0 .112-.032.191-.026.058.005.075.056.166.049.015-.002.208-.066.27-.072.095-.009.247.057.265.058.269.012.372-.054.563.054.039-.064.198-.101.326-.095.163.008.489.139.533 0 .188.062.168.024.39.023.204-.002.741.051.906.044.164-.008.084-.085.15-.095.106-.017.048.04.121.039.207-.002.387-.013.585-.038l.033.12.03-.04h.13c-.332-.175.32.014.516.018.165.004.44-.08.622-.097.044-.005.014.038.023.037.106-.012.122-.041.265-.037.075.002.152.056.226.057.54.007 1.061-.047 1.598-.053.09-.001.17.065.246.066.11.002.18-.052.282-.052.103-.001.251.063.32.053.07-.01-.049-.072.079-.055.058.008-.045.055.027.056.226.005.544-.053.785.003q-.017-.02-.038-.04c.256.005.482.039.746.044.093.002.26-.04.35-.039.091 0 .133.044.205.046.03 0 .019-.04.039-.039.25.01.388.082.65.074.964-.03 1.956-.055 2.934-.082.039 0 .065-.053.123-.06.088-.012.093.034.104.035.077.01.046-.032.15-.032.227 0 .595.037.822.034.523-.007.963-.048 1.475-.068.038-.002.012.06.076.06.453.007.548-.052 1.11-.035l1.049.032a.67.67 0 0 0 .647-.425.6.6 0 0 1-.034-.232c.004-.073.02-.15.034-.235a.6.6 0 0 1 .108.235c.106.408-.284.885-.755.872-.632.004-1.274-.023-1.951-.018-1.442.012-2.978.215-4.439.187-.137-.003-.192-.067-.308-.054-.02.003.031.052-.029.057-.826.068-1.707-.045-2.518-.014-.218.009-.253.064-.445.079.034-.027.056-.054.085-.08-.878-.082-1.757-.046-2.646-.058-.04 0-.046-.054-.088-.056-.084-.005-.165.055-.238.057-.096.003-.113-.04-.201-.038-.043.002-.03.043-.124.036-.008 0-.013-.044-.076-.038-.171.015-.52.052-.662.063-.181.014-.326-.052-.395-.056-.185-.012-.18.055-.337.055-1.114 0-2.18-.076-3.32-.075-.072 0-.337.075-.469.072-.044-.001-.277-.021-.312-.023-.14-.006-.263-.051-.34-.06-.152-.02-.32.051-.403.058a5 5 0 0 1-.46.001c-.14-.015-.08-.098-.176-.096-.028-.002-.016.074-.116.04-.084-.03-.092-.094-.136-.13-.042-.033-.174-.038-.201-.068-.133-.148-.139-.25-.203-.437a1 1 0 0 1-.05-.276c-.033-.301.209-.655.243-.686.177-.272-.19.112-.185.154-.092.132-.115.107-.105.278-.078.032-.105.138-.094.254.014.216.163.4.086.544.198.05.2.168.3.29.143.155.063-.003.187.07.045.029.18.154.275.16.082.006.124-.03.213-.04l.031-.002c.2-.006.36.018.528.08l.09-.082q.173.044.347.087l-.056-.071.102-.01.335.105c.315-.136.224-.018.398 0s.276-.062.41-.062c.182 0 .266-.01.45-.005.105.003.286.08.138-.041.331-.01.785-.044 1.082.005.087.015-.03.053-.014.057.074.023.137-.039.213-.03.128.015.376.063.476.074.145.016.372-.064.395-.07.13-.032.164.034.206.03.237-.027.29-.055.364.085.062-.06.319-.162.381-.06.002-.092.215-.077.347-.1l.073.08c.274-.164.82-.045 1.181-.025.01 0 .025-.069.08-.053.003.001-.003.032.034.036.12.013.578.09.63.091.194.003.228-.049.346-.054.155-.006.178.04.326.034.069-.003.132-.064.24-.056.065.005.072.053.123.057.182.014.315-.016.476.046.042-.152.12-.04.2-.028.324.047.727-.018 1.006-.004.867.044 1.637.138 2.485.16.137.002.17-.074.315-.07.065.003.131.058.238.06.085 0 .207-.028.314-.028.028 0 .03.052.072.053.317.002.626-.035.945-.06.118-.01.192.06.171-.06.046.03.09.055.132.084.163-.076.296.003.516-.016.024-.003.19-.086.285-.026.006-.043-.008-.079-.005-.118.093-.016.236.034.299.039s.105-.05.124-.052c.072 0 .055.072.06.073.336.07.3.031.503-.078.051-.028.395.053.465-.034.003.035-.016.066-.022.1l.312.027c-.022-.033-.048-.067-.069-.101.212.029.389-.05.562-.048.1.001.087.076.146.06.01-.003-.008-.054.025-.058.276-.033.397.02.673.03.052.003.101-.011.154-.024.082-.02.162-.045.282-.04.014.006.245.01.278-.16.051.011.09.007.132.013.06-.296.14-.098.35-.391a.9.9 0 0 0 .102-.473 1.04 1.04 0 0 0-.133-.472c-.061-.099-.122-.058-.133-.073-.075-.085-.023-.126-.105-.2-.085-.073-.235-.09-.322-.14-.069-.04.024-.09-.103-.109-.026-.001.02.084-.092.023a1.5 1.5 0 0 0-.256-.13c.111-.058.479-.026.606.043.346.137.704.527.735 1.058.072.646-.51 1.43-1.341 1.44a95 95 0 0 1-5.407.05c-.196-.003-.323-.075-.45-.081-.128-.007-.02.06-.136.054s-.2-.052-.308-.056c-.73-.028-1.464-.057-2.188-.07-.187-.003-.337.05-.508.05-.066 0-.069-.068-.116-.068-.508.006-.979.072-1.485.064-.21-.003-.437-.061-.645-.067-.171-.005-.349.035-.503.036-.084 0-.128-.052-.158-.056-.106-.014-.069.05-.123.05-.148 0-.222-.077-.362-.071-.054.002-.047.051-.127.06-.1.009-.063-.037-.135-.038-.004 0 .01.035-.028.036-.246.01-.552.037-.79.035-.489-.005-.972-.073-1.429-.086-.115-.004-.084.043-.12.045-.177.01-.24-.045-.425-.025-.03.003-.154.067-.272.05-.063-.008-.136-.048-.19-.057s-.063.05-.128.05c-.119 0-.084-.041-.254-.034-.069.003-.297.059-.474.054-.287-.007-.644-.057-.984-.058-.116 0-.266.06-.447.06-.22.001-.627-.013-.853-.013-.116 0-.124-.064-.138-.066-.088-.018-.052.052-.112.05-.081-.004-.157-.056-.231-.06-.047-.002-.055.05-.065.05l-.047.003a1.31 1.31 0 0 1-1.157-.642 1.36 1.36 0 0 1-.198-.689c-.028-.72.614-1.392 1.355-1.386 1.316-.025 2.635-.046 3.943-.027.17.002.175.068.324.058.148-.01.291-.152.413.004.004-.031.004-.054.008-.082.306.044.613-.002.913-.008.221-.004.418.001.623.005.182.003.166.058.323-.014.782.045 1.572.034 2.347.109.181-.118.356-.044.607-.026.031.002-.002-.041.09-.037.116.004.175.07.37.066.051-.001.433-.074.574-.037.142.037.346.06.493.095q-.033-.042-.07-.083l.22-.014.03.101.129-.096c.092.173-.003.117.203.073.103-.022.185.008.29-.01.039-.006.063-.057.105-.063.103-.016.043.054.107.054s.156-.078.27-.043c-.119.137.228.092.244-.015.041 0 .076.005.122.002-.042.269.173.078.26.04.085-.036.081.037.102.034.057-.008.015-.038.056-.04.268-.005.52.039.785.043.038 0 .005-.04.05-.036.044.004.086.044.152.041.017 0 .023-.036.05-.036.576.001 1.122.032 1.71.037.052 0 .094-.064.197-.062.102.003.258.06.386.065.034.001.043-.052.088-.05.152.004.284.047.442.054.268.012.548-.02.82.011.052.006.043.05.118.063.128.022.08-.043.106-.052.085-.028.111.058.194.036.012-.003-.006-.054.005-.055.175-.009.184.11.37.046.165.07-.11.093-.14.13-.068.088.115.192.222.226.093.028.093-.027.13-.027.195 0 .486-.01.635.016.09.015-.072.038-.026.056.045.019.075-.023.121.022.047.046.143.18.125.243m-16.424-.297c.3-.218 1.095-.195 1.522-.174.354.017.659.185.586-.058-.383-.002-.692.022-1.097.015-.042-.001-.293-.024-.38-.028-.05-.002-.051-.042-.118-.042-.015 0-.096.053-.125.052-.101-.005-.402-.085-.444-.083-.116.007-.071.07-.121.08-.17.038-.188-.056-.355-.025-.03.005-.13.087-.253.076-.05-.004-.136-.046-.175-.044-.21.01-.444.066-.637.057-.157-.008-.115-.07-.198-.08-.084-.007-.184.066-.241.07-.092.007-.203-.035-.23-.034-.33.007-.638.027-.946.045-.22.013-.431.095-.603.233a.98.98 0 0 1 .603-.15q.224.015.447.035c.206-.066.103-.005.239.016.107.016.133-.095.274-.082.073.006.23.083.386.05.005 0 .019-.058.135-.06.26-.005.66-.034.954-.022.086.004.068.064.17.072.075.005.16-.05.277-.038.146.016.216.112.316-.022.009.048.004.094.014.14m8.061-.116c.02.005.295.154.214-.005-.369-.069-.768-.035-1.156-.073.132.157.357.095.629.083.013 0-.04.04.032.033.036-.003.172-.066.281-.038M43.912 19.679c0-.557-.451-1.008-1.007-1.008H23.267a1.007 1.007 0 0 0 0 2.015h19.638c.556 0 1.007-.451 1.007-1.008"/><path fill="#a9a9a6" d="M43.474 19.677a1 1 0 0 0-.253-.406c-.025-.026 0-.058-.01-.073-.02-.028-.085-.01-.09-.012-.039-.015.001-.076-.003-.08-.06-.051-.064.033-.124.029q-.041-.001-.09-.004c-.11-.002-.23-.009-.346-.012-.062-.001-.034-.056-.167-.051-.095.003-.384.065-.518-.001 0-.026.016-.053.024-.08-.192.106-.26.101-.531.075-.043-.004-.084.04-.16.024-.075-.016-.078-.083-.23-.082-.053 0-.086.047-.169.05-.235.005-.682-.053-.875-.055-.38-.004-.586.076-.923.048-.026-.002.031-.053-.016-.054-.048-.001-.098.067-.11.068-.128.018-.397-.073-.468-.062-.172.027-.002.057-.241.07-.227.012-.541-.077-.767-.094-.26-.02-.345.108-.542-.026q-1.036.01-2.076.02l.007-.08-.164.055.024-.06a2.1 2.1 0 0 1-.785.096c-.006 0 .01-.054.004-.056-.067-.01-.143.031-.202.022-.144-.024-.388-.14-.28.002-.335-.029-.729.02-1.047-.008-.139-.012-.18-.097-.246-.102s-.032.068-.056.07c-.14.017-.372.014-.397-.067l-.087.098c.017-.09-.418-.053-.532-.055-.021 0-.024-.04-.04-.04-.175.005-.218.067-.368.088-.053.007.029-.063-.107-.033-.011.003-.005.066-.167.065-.258 0-.751.024-1.059-.006-.025-.003.052-.071-.063-.055-.042.006-.022.054-.123.054-.392.002-.81-.053-1.21-.007.015-.055.158-.116-.056-.082-.035.006-.01.055-.024.056-.125.015-.233-.02-.367-.002-.04.006-.05.044-.1.053-.072.014-.105-.04-.19-.018-.133.037-.153.089-.318-.013-.934.007-1.863.035-2.794-.01-.262.029-.504.06-.775.072l-.015.001c-.054.006-.075-.065-.163-.02-.025.007-.119.125-.207.018-.033.033-.055.05-.08.079a1 1 0 0 1 .102.004c-.139.06-.187.197-.216.311-.02.087-.051.007-.065.062-.012.058-.005.079-.085.146.032.028.041.048.041.072 0 .032-.02.073-.009.136.002.013.048.069.062.12.011.037-.032.071.01.125.005.013.138.082.172.1.048.036.1.146.114.153.15.085.232.043.339.106q.032.013.068.033c.039-.064.198-.102.326-.096.163.008.489.14.533 0 .188.062.168.024.39.023.204-.001.741.052.906.044.164-.007.084-.084.15-.095.106-.017.048.04.121.04.207-.003.387-.014.585-.039l.033.12.03-.04.13.001c-.332-.175.32.013.516.017.165.004.44-.079.622-.097.044-.004.014.039.023.038.106-.012.122-.042.265-.038.075.002.152.056.226.057.54.008 1.061-.047 1.598-.053.091 0 .17.065.246.067.11.002.18-.052.282-.053.103 0 .251.064.32.054.07-.01-.049-.072.079-.055.058.008-.045.054.027.056.226.004.545-.054.785.002q-.017-.02-.038-.04c.256.006.482.04.746.044.093.002.26-.039.35-.039.091 0 .133.045.205.046.03 0 .019-.039.039-.038.25.01.388.081.651.073.963-.03 1.955-.055 2.933-.081.039-.002.066-.053.123-.06.088-.013.093.033.104.035.078.01.046-.033.15-.033.227 0 .595.038.822.035.523-.008.963-.048 1.476-.069.037-.001.011.06.076.06.452.007.547-.051 1.11-.035.562.017 1.624.054 2.282.062a.67.67 0 0 1 .348-.073c.073.004.15.02.235.033a.6.6 0 0 1-.235.108c-1.16.191-2.287.09-3.533.1-1.441.011-2.978.214-4.439.186-.137-.002-.192-.067-.308-.053-.02.002.031.052-.029.057-.826.068-1.707-.046-2.518-.014-.218.008-.253.064-.445.078.034-.026.056-.054.085-.08-.878-.082-1.757-.045-2.646-.057-.04 0-.046-.055-.088-.057-.084-.004-.165.055-.238.058-.096.002-.113-.041-.201-.038-.043.001-.03.043-.124.036-.008 0-.013-.044-.076-.039-.17.016-.52.052-.662.063-.181.014-.326-.051-.395-.056-.185-.011-.18.056-.337.056-1.114 0-2.18-.076-3.32-.075-.055 0-.228.045-.364.063a.4.4 0 0 1-.103.003 1.1 1.1 0 0 1-.286-.099c-.124-.06-.188-.17-.231-.224-.086-.102-.224-.196-.263-.269a.8.8 0 0 1-.086-.393l.002-.038c.015-.14.098-.08.096-.176.002-.028-.075-.016-.041-.117.032-.083.094-.091.13-.135.034-.043.038-.174.069-.202.148-.132.25-.138.437-.202a1 1 0 0 1 .276-.05c.318-.01.748-.032.797-.045.318-.082-.21-.045-.24-.048-.161-.016-.138-.047-.298.013-.052-.067-.15-.072-.26-.062-.215.015-.4.164-.544.087-.05.198-.167.2-.29.3-.154.142.004.063-.07.186-.028.046-.153.182-.16.276-.006.081.032.124.041.212l.003.032c.013.203.042.36.085.549q.06.02.12.032c.047.111.117.218.207.312l-.007-.092q.045.027.092.05c.08.089.176.163.296.226.124-.022.185-.04.228-.042.079-.004.077.052.193.064.175.018.276-.061.41-.062.182 0 .266-.01.45-.005.105.004.286.08.138-.04.331-.01.785-.044 1.082.005.088.014-.03.052-.014.057.074.022.137-.04.213-.03.128.014.376.062.476.073.145.017.372-.063.395-.069.13-.032.164.034.206.03.237-.027.29-.055.364.085.062-.06.319-.163.381-.06.002-.093.215-.077.347-.1l.073.08c.274-.165.82-.045 1.181-.026.01 0 .025-.068.08-.053.003.002-.003.033.034.037.12.012.578.09.63.09.194.003.228-.048.346-.053.155-.007.178.04.326.033.07-.003.132-.064.241-.055.064.005.07.053.122.057.182.014.315-.017.476.046.042-.153.12-.04.2-.029.324.047.727-.017 1.006-.003.867.043 1.637.137 2.485.159.137.003.17-.074.315-.069.065.002.132.058.238.059.085 0 .207-.028.314-.027.028 0 .03.052.072.052.317.003.626-.034.945-.06.118-.009.192.06.172-.06.045.03.089.055.131.084.163-.075.296.003.516-.016.024-.002.19-.085.285-.025.006-.043-.008-.08-.005-.118.093-.016.236.033.299.038s.105-.05.124-.051c.072-.001.055.072.06.073.336.07.3.03.503-.079.051-.027.395.053.465-.034.003.036-.016.067-.022.1l.312.028c-.022-.034-.048-.068-.068-.102.212.03.388-.05.561-.048.1.002.087.077.146.06.011-.003-.008-.053.026-.057.275-.033.396.02.672.03.13.005.243-.087.428-.026.017.005.2.087.312-.03.036.037.068.056.094.087.228-.173.165-.003.473.037.08.01.253.008.429 0 .201-.004.39-.082.472-.133.099-.06.058-.121.073-.133.085-.074.125-.023.2-.105.073-.085.09-.234.14-.321.04-.07.09.023.109-.103.001-.026-.084.019-.023-.092a1.5 1.5 0 0 0 .13-.256c.058.11.026.478-.043.606a1.23 1.23 0 0 1-1.058.735c-2.11.184-5.214.181-6.989.149-.195-.004-.323-.076-.45-.082-.128-.006-.02.06-.136.054s-.2-.052-.308-.056c-.73-.027-1.464-.056-2.188-.07-.187-.002-.337.051-.508.051-.066 0-.069-.069-.116-.068-.508.005-.979.072-1.485.063-.21-.003-.437-.061-.645-.067-.171-.004-.349.036-.503.036-.084.001-.128-.052-.158-.056-.106-.013-.069.05-.123.05-.148 0-.222-.077-.362-.07-.054.002-.047.051-.127.059-.1.01-.063-.036-.135-.038-.004 0 .01.035-.028.037-.246.009-.552.037-.79.034-.489-.005-.972-.072-1.428-.086-.116-.003-.085.043-.122.045-.176.01-.239-.044-.423-.025-.031.004-.155.067-.273.051-.063-.008-.136-.048-.19-.057s-.063.049-.128.049c-.119 0-.084-.04-.254-.033-.069.003-.297.058-.474.054-.288-.007-.644-.058-.984-.059-.086 0-.19.033-.311.05a.8.8 0 0 1-.183-.001c-.309-.014-.794-.332-.943-.603-.084-.132-.026-.173-.032-.19-.032-.11-.078-.04-.103-.115-.033-.105-.003-.213-.01-.306-.004-.059-.055-.066-.056-.08l-.004-.061a1.31 1.31 0 0 1 .642-1.158c.205-.126.447-.195.689-.198 1.84-.032 3.692-.085 5.525-.057.17.002.175.067.324.057.148-.01.291-.151.413.005.004-.032.004-.054.008-.083.306.045.613-.001.912-.007.222-.004.419 0 .624.004.181.003.166.058.323-.013.782.044 1.572.034 2.347.108.181-.117.356-.043.607-.026.031.002-.002-.04.09-.037.115.005.175.07.37.066.051 0 .433-.073.574-.036.142.037.346.059.493.094q-.034-.042-.07-.082l.22-.014.03.1.129-.096c.092.174-.003.117.203.073.103-.021.185.009.29-.009.039-.006.063-.057.105-.064.103-.015.043.055.107.054.064 0 .156-.077.27-.043-.12.137.227.093.244-.014.041 0 .076.004.121.001-.042.27.174.078.26.041.086-.036.082.036.102.033.058-.008.016-.038.057-.039.268-.006.52.038.785.042.038.001.005-.04.049-.036s.087.045.153.042c.017 0 .023-.037.05-.037.576.002 1.122.032 1.71.037.052 0 .094-.063.197-.061.102.002.258.06.386.064.033.001.043-.052.087-.05.153.005.285.048.443.055.268.012.548-.02.82.01.052.007.043.051.118.063.128.022.08-.043.106-.051a.1.1 0 0 1 .056-.003c.059.012.092.057.167.05.015-.002 0-.055.014-.054.225.034.194.148.421.19.134.16-.158.014-.2.048-.097.058.037.218.088.3.049.07.08.027.107.049.139.11.277.35.272.486 0 .08-.052-.051-.06-.008-.01.04.036.057-.004.101-.039.047-.172.115-.236.101m-15.413-.865c.3-.218 1.095-.195 1.522-.174.354.017.659.185.586-.058-.383-.002-.692.023-1.097.015-.042 0-.293-.023-.38-.027-.05-.002-.051-.043-.118-.042-.015 0-.096.053-.125.051-.101-.005-.402-.085-.444-.083-.116.007-.071.07-.122.08-.168.038-.187-.055-.354-.025-.03.006-.13.087-.253.077-.05-.005-.136-.047-.175-.045-.21.01-.444.067-.637.058-.157-.008-.115-.071-.198-.08-.084-.008-.184.065-.241.07-.092.006-.203-.036-.23-.035-.559.012-1.055.06-1.593.078q.548.042 1.094.085c.206-.065.103-.004.239.016.107.017.133-.094.274-.082.073.007.23.083.386.051.005-.001.019-.059.135-.06.26-.005.66-.034.954-.022.086.003.068.064.17.071.075.006.16-.05.277-.038.146.016.216.112.316-.021.008.047.004.094.014.14m8.061-.116c.02.006.295.154.214-.005-.37-.069-.768-.034-1.156-.073.132.157.356.095.629.084.013 0-.04.04.032.033.036-.004.172-.067.281-.039M23.267 24.11a1.007 1.007 0 0 0 0 2.014h11.33a1.007 1.007 0 1 0 0-2.014z"/><path fill="#a9a9a6" d="M23.266 24.548c-.11.055-.183.102-.281.136-.022.009-.044-.026-.057-.025-.023.002-.019.057-.021.06-.02.018-.062-.04-.067-.04-.053.012.015.06-.003.094-.024.045-.07.093-.095.15-.008.02-.058-.007-.068.044-.005.028.02.098.01.15a.1.1 0 0 1-.027.048c-.025.003-.053-.002-.08-.004.113.074.108.086.122.195.003.017.048.013.047.044 0 .032-.058.07-.018.122.014.018.059 0 .082.022.06.066.191.209.277.228.068.02.128.012.18-.002.102-.019.197-.038.318-.022.016.002-.02.054.01.055.03 0 .062-.068.07-.07.08-.017.252.075.297.064.11-.027.002-.058.154-.07.144-.013.344.076.487.093.166.02.22-.108.344.026q.66-.01 1.32-.02l-.004.081.104-.055-.016.06a.87.87 0 0 1 .5-.096c.004 0-.006.053-.003.055.043.01.091-.031.129-.021.091.023.246.14.178-.003.212.03.462-.019.665.009.088.011.114.096.156.1.042.006.02-.067.036-.07.09-.016.237-.013.252.068l.056-.098c-.011.09.265.053.338.055.013 0 .015.04.025.04.111-.005.139-.067.234-.088.034-.007-.018.063.068.033.007-.003.003-.065.106-.065.164 0 .478-.024.673.007.016.002-.033.07.04.054.027-.005.014-.054.079-.054.249-.002.514.053.768.007-.009.055-.1.116.037.082.021-.006.005-.054.015-.056.079-.014.147.02.233.002.025-.006.031-.044.063-.053.046-.014.067.04.12.018.085-.037.099-.089.203.013.594-.006 1.185-.035 1.776.01.171-.03.329-.062.507-.073.053-.003.063.066.147.043.018-.005.152-.08.172.06.037-.011.06-.012.092-.019l-.072-.062c.135.022.245-.027.365-.05.088-.018.025.042.08.036.053-.005.078-.019.145.053.022-.034.041-.045.063-.044.02 0 .046.02.087.016.008 0 .044-.038.078-.04.025-.002.047.046.085.024.008-.003.06-.095.077-.114.029-.025.12-.012.128-.018.104-.075.073-.147.212-.166a.17.17 0 0 1-.025-.175c.029-.05.153-.172.069-.215a.1.1 0 0 0-.033-.01c.057-.084.022-.076-.001-.17-.011-.086-.101-.327-.175-.37-.064-.045-.084.04-.111.03-.046-.011.006-.044-.02-.061a.4.4 0 0 0-.242-.057q.005-.06.008-.12l-.02.036-.06-.008c.072.11.02.08-.058.045-.088-.026-.195-.062-.25-.064-.104-.004-.279.08-.394.097-.028.005-.009-.039-.015-.038-.067.013-.077.042-.168.038-.048-.002-.097-.056-.144-.057-.343-.007-.675.047-1.016.053-.058 0-.108-.065-.156-.067-.07-.002-.114.052-.18.053-.065 0-.159-.064-.203-.054s.031.072-.05.055c-.037-.008.029-.054-.017-.056-.144-.004-.346.054-.499-.002q.011.02.024.04c-.163-.006-.306-.04-.474-.044-.06-.002-.165.039-.223.039s-.084-.045-.13-.046c-.02 0-.012.04-.024.038-.16-.01-.247-.081-.415-.073-.611.03-1.242.055-1.864.082-.025 0-.041.052-.078.06-.056.012-.059-.034-.066-.035-.05-.01-.03.032-.095.032-.145 0-.378-.038-.523-.035-.332.008-.612.048-.938.069-.023.001-.007-.06-.048-.06-.287-.007-.348.052-.706.035-.357-.017-1.032-.054-1.45-.062-.133.113-.303.085-.445-.001.817-.28 1.598-.155 2.47-.166.915-.012 1.892-.215 2.82-.187.088.002.123.067.196.053.013-.002-.02-.052.019-.057.525-.067 1.085.046 1.6.014.14-.008.16-.063.283-.078-.021.026-.035.054-.054.08.558.082 1.117.046 1.682.057.026 0 .029.055.056.057.053.004.104-.055.151-.057.061-.003.072.04.128.037.028-.001.02-.043.079-.035.005 0 .008.044.048.038.109-.015.331-.052.421-.063.115-.014.207.052.25.056.118.011.116-.056.215-.056q.093 0 .184.002c.537.002.953.5.923.993a1 1 0 0 1-.058.308c-.01.037-.013.216-.07.282a1 1 0 0 1-.146.128c-.069.054-.156.056-.198.07-.082.026-.148.124-.197.144a.64.64 0 0 1-.28.035c-.092-.004-.062-.091-.128-.07-.02.005 0 .072-.069.072-.058 0-.082-.05-.121-.06-.04-.009-.113.07-.138.067-.13-.01-.187-.061-.328-.064-.117-.002-.658.034-.703.052-.202.082.134.045.153.048.102.016.087.047.19-.013.09.186.409-.103.49.117.084-.147.155-.073.244-.043.123.04.03-.045.119-.046.035 0 .137.067.19.057.048-.008.07-.05.127-.06l.02-.003c.128-.009.23-.006.36.012a1 1 0 0 0 .026-.097 1 1 0 0 0 .245-.04l-.072-.037.048-.047c.08-.017.155-.043.237-.082.024-.256.076-.134.154-.238.07-.108.014-.203.031-.29.015-.083.014-.137.013-.202l-.003-.098c-.002-.07.045-.205-.053-.085-.043-.216-.22-.443-.337-.598-.035-.048.048-.027.044-.037-.025-.051-.096-.028-.133-.063a1.2 1.2 0 0 0-.266-.204c-.098-.048-.267.018-.28.026a.2.2 0 0 1-.035.008c-.055.005-.075-.042-.097-.038-.15.027-.184.054-.232-.086-.039.06-.202.163-.242.06 0 .093-.136.077-.22.1l-.047-.08c-.174.165-.521.046-.75.026-.006 0-.016.068-.05.053-.003-.001 0-.032-.023-.036-.076-.013-.367-.09-.4-.091-.124-.003-.145.049-.22.053-.099.007-.113-.04-.207-.033-.044.003-.084.064-.153.055-.041-.005-.045-.052-.078-.056-.115-.014-.2.016-.303-.047-.027.153-.076.04-.126.03-.206-.048-.463.017-.64.003-.552-.044-1.04-.138-1.58-.16-.087-.003-.108.074-.2.069-.041-.002-.083-.058-.151-.059-.054 0-.132.028-.2.028-.018 0-.02-.052-.046-.053-.2-.003-.397.034-.6.06-.075.009-.122-.06-.11.06-.028-.03-.056-.055-.083-.084-.103.076-.188-.003-.328.016-.015.002-.12.085-.18.025-.005.043.004.08.003.118-.06.017-.15-.033-.19-.038s-.067.05-.08.051c-.045.002-.035-.071-.038-.073-.213-.07-.19-.03-.32.079-.032.027-.25-.053-.295.034-.002-.036.01-.067.014-.1l-.198-.028q.022.051.043.102c-.135-.03-.247.05-.357.048-.063-.002-.055-.077-.092-.06-.008.003.005.054-.017.058-.175.033-.252-.02-.427-.031-.083-.005-.155.087-.273.027-.01-.006-.126-.088-.198.03-.022-.038-.042-.057-.06-.088-.144.173-.104.003-.3-.037-.101-.02-.442.01-.552.028-.066.011-.065.08-.076.082-.07.016-.07-.05-.135-.04-.065.012-.147.087-.213.08-.051-.006-.011-.088-.086-.06-.016.007.029.077-.05.05a3 3 0 0 1-.166-.097c.067-.043.26-.1.333-.118 1.253-.307 3.777-.31 5.115-.271.124.003.205.075.286.081s.013-.06.086-.054c.074.006.127.052.196.056.464.027.93.057 1.39.07.12.002.215-.051.324-.051.042 0 .043.069.073.068.323-.005.622-.071.944-.063.134.003.278.061.41.067.11.004.222-.035.32-.036.053 0 .081.052.1.056.068.013.044-.05.078-.05.095 0 .142.077.23.07.035-.002.03-.05.081-.059.064-.01.04.036.086.038.003 0-.006-.035.018-.037.156-.009.351-.037.502-.034.258.004.513.051.758.075q.096.007.19.025c.092.018.076-.03.107-.026.147.027.178.096.32.147.022.008.147.006.218.083.038.04.056.11.08.148s.072.003.109.045c.063.079.016.078.097.192.033.043.172.194.203.347.023.101.028.216.016.332a1.8 1.8 0 0 1-.125.48c-.034.087-.037.23-.134.356-.109.159-.401.363-.586.424-.094.035-.12-.026-.13-.025-.074.002-.028.063-.078.071-.069.012-.139-.032-.197-.03-.038 0-.042.05-.051.052l-.04.002c-.228.015-.433.01-.662.016-1.282.03-2.576.097-3.855.067-.108-.003-.112-.068-.206-.058s-.185.151-.263-.005l-.004.083c-.195-.044-.39.002-.58.007-.142.004-.267 0-.397-.004-.115-.003-.105-.058-.205.013-.497-.044-1-.033-1.492-.108-.115.117-.226.044-.386.026-.02-.002.002.04-.057.037-.073-.004-.111-.07-.235-.066-.033 0-.276.073-.365.036-.09-.037-.22-.059-.313-.094q.021.042.044.082l-.14.015-.02-.102-.08.097c-.06-.173 0-.117-.13-.073-.065.022-.117-.009-.185.009-.024.006-.04.057-.066.064-.066.015-.027-.055-.068-.054-.04 0-.1.077-.172.043.076-.137-.144-.092-.155.014-.026 0-.048-.004-.077 0 .027-.27-.11-.08-.165-.042-.054.037-.052-.036-.065-.033-.037.008-.01.038-.036.039-.17.006-.33-.038-.5-.042-.023 0-.002.04-.03.036s-.055-.045-.097-.042c-.011 0-.015.037-.032.037q-.169-.001-.335-.008a1.34 1.34 0 0 1-.877-.372c-.03-.03-.102-.008-.157-.077-.057-.069-.083-.209-.123-.303-.01-.025-.062-.01-.076-.045-.046-.122-.032-.24-.041-.367a3 3 0 0 1-.007-.156.9.9 0 0 1 .106-.491c.022-.036.06-.012.096-.058.065-.075-.008-.075-.005-.097.012-.073.095-.042.115-.105.003-.01-.046-.03-.04-.038.084-.116.171-.035.238-.175.14-.023-.009.123.007.164.03.095.185.089.251.085.058-.005.028-.05.046-.062.093-.06.255-.123.342-.105.052.009-.033.044-.005.058.025.015.037-.028.065.015.03.043.073.176.064.24m7.278 1.435c-.191.218-.696.195-.968.174-.225-.017-.419-.185-.372.058.243.002.44-.023.697-.015.027 0 .186.023.242.027.031.003.032.043.075.042.009 0 .06-.052.079-.051.064.005.255.085.282.083.074-.007.046-.07.078-.08.107-.038.119.055.225.025.019-.005.082-.087.16-.076.033.004.087.046.112.044.133-.01.282-.067.404-.057.1.007.074.07.127.079s.117-.065.153-.07c.058-.006.128.036.146.035.355-.012.67-.06 1.012-.078q-.348-.042-.695-.085c-.13.065-.065.004-.152-.016-.068-.016-.084.094-.174.082-.046-.006-.147-.083-.245-.05-.003 0-.012.058-.086.06-.166.004-.42.034-.606.021-.055-.003-.044-.064-.109-.071-.047-.006-.102.05-.176.038-.092-.016-.137-.112-.2.021-.006-.047-.003-.094-.01-.14m-5.124.116c-.013-.005-.188-.154-.136.005.234.069.488.034.735.073-.084-.157-.227-.095-.4-.084-.009 0 .026-.04-.02-.033-.023.004-.11.067-.18.039"/></svg>