<svg xmlns="http://www.w3.org/2000/svg" width="49" height="49" fill="none" viewBox="0 0 49 49"><path fill="#a9a9a6" d="M46.215 24.565v-6.747c0-2.287-1.774-4.148-4.016-4.328L35.934 2.547a4.3 4.3 0 0 0-2.64-2.036 4.29 4.29 0 0 0-3.284.44L8.533 13.455H4.761a4.37 4.37 0 0 0-4.364 4.364v26.18a4.37 4.37 0 0 0 4.364 4.365h37.09A4.37 4.37 0 0 0 46.215 44v-6.746a3.27 3.27 0 0 0 2.182-3.072v-6.545c0-1.42-.915-2.62-2.182-3.072m-6.552-11.11h-9.508l3.566-2.076 3.566-2.076zm-3.46-6.045-10.384 6.045h-4.307l13.614-7.926zm-5.094-4.573a2.1 2.1 0 0 1 1.62-.219c.557.15 1.022.51 1.31 1.014l.003.004-16.866 9.819H12.87zM44.033 44a2.185 2.185 0 0 1-2.182 2.182H4.761A2.185 2.185 0 0 1 2.58 44V17.819c0-1.203.98-2.182 2.182-2.182h37.09c1.203 0 2.182.979 2.182 2.182v6.545h-6.545a6.55 6.55 0 0 0-6.546 6.545 6.55 6.55 0 0 0 6.546 6.546h6.545zm2.182-9.818c0 .602-.489 1.09-1.09 1.09h-7.637a4.37 4.37 0 0 1-4.364-4.363 4.37 4.37 0 0 1 4.364-4.363h7.636c.602 0 1.091.489 1.091 1.09z"/><path fill="#a9a9a6" d="M45.777 24.557a48 48 0 0 1-.053-3.338c.005-.259.046-.234.053-.34.012-.196-.032-.524-.032-.57 0-.285.071-.173.074-.212.03-.427-.053-.304-.06-.713-.01-.453 0-1.014.005-1.565a4 4 0 0 0-.006-.263c-.018-.2.061-.12-.024-.553-.042-.32-.466-1.174-.705-1.548.018-.018.074.01.11.015-.483-.438-.614-.626-1.374-1.113-.124-.07-.262-.095-.487-.2-.23-.097-.215-.184-.718-.286-.135-.023-.234-.01-.391-.009l-.194-.014-.1-.172a3 3 0 0 1-.104-.165c-.431-.74-1.192-2.187-1.54-2.798-.684-1.204-1.129-1.819-1.716-2.9-.045-.084.103.071.018-.08-.087-.152-.236-.277-.26-.313-.245-.395-.655-1.294-.793-1.513-.336-.532-.054.02-.498-.73-.423-.713-.915-1.752-1.309-2.474q0-.002-.003-.005c-.456-.769-.768-.859-1.22-1.358a4 4 0 0 0-1.23-.556 4.02 4.02 0 0 0-3.064.418L27.805 2.58l-.02-.081-.49.349.047-.096a27 27 0 0 1-2.43 1.525c-.019.01.003-.064-.013-.056-.219.115-.437.29-.629.39-.464.244-1.292.591-.882.517-1.07.59-2.287 1.353-3.307 1.915-.441.244-.614.246-.825.364s-.068.118-.14.163c-.437.273-1.17.696-1.287.67l-.225.245c.007-.11-1.346.722-1.708.93-.066.038-.095.009-.144.038-.55.327-.655.459-1.118.752-.163.104.06-.107-.352.168-.036.024.015.066-.495.363-.814.473-2.359 1.401-3.343 1.939-.08.044.127-.156-.228.07-.129.08-.042.086-.36.272q-.58.337-1.184.677l-.063.037h-.076c-1.013-.012-2.047-.028-3.05.003.054-.054.573-.116-.208-.081-.125.005-.031.054-.087.056a9 9 0 0 1-.427.002 3.2 3.2 0 0 0-.853.085c-.132.035-.156.08-.315.135-.231.087-.356.074-.61.219-.385.244-.412.31-.91.588A4.09 4.09 0 0 0 .682 17.82c.006 2.16.007 4.316-.021 6.474.029.982.061 1.888.072 2.912.003.301-.066.359-.043.84.005.107.08.876-.06.988.011.214.012.349.02.532.02-.139.04-.283.061-.416-.022.775.027 1.408.05 2.095.018.505-.042.146-.036.456s.02.451-.053.839c.083.304.025.506.023 1.068 0 .06.032.409.025.7-.004.21-.056.272-.048.605.001.054.065.758.071.982.01.349-.057.903-.058.97-.011.981.054 1.36-.054 2.055.064.141.102.722.096 1.192-.008.593-.14 1.782 0 1.944-.062.686-.024.611-.023 1.425 0 .137-.002.316-.004.52-.068.852.449 2.1.767 2.44.357.438.246.17.4.327.265.241.087.147.272.311.537.45 1.11.715 1.76.836q.04.07.086.14l.11-.02c.143.023.305.04.44.048-.561-.146-.277-.088.226-.052.533.026 1.291.073 1.644.075.603.004 1.607-.079 2.269-.097.16-.004.05.039.083.038.387-.013.446-.042.967-.038.276.002.557.056.826.057 1.971.008 3.874-.047 5.832-.052.333-.002.62.064.9.066.4.002.653-.052 1.03-.053.374 0 .914.064 1.168.054s-.18-.072.285-.055c.213.008-.164.054.1.056.824.004 1.987-.054 2.864.002-.038-.014-.091-.026-.139-.04.935.006 1.76.04 2.725.044.338.002.946-.039 1.278-.039.331 0 .482.045.748.046.109 0 .066-.039.14-.038.915.01 1.418.081 2.377.073 3.513-.03 7.136-.055 10.704-.081.143-.002.24-.053.45-.06.322-.013.338.033.38.035.258.009.184-.026.46-.032q.035 0 .078-.002c.765.029 1.974-.393 2.535-.931A3.93 3.93 0 0 0 45.83 44c-.008-.526-.016-1.061-.022-1.62-.002-.135.06-.043.06-.278.007-1.649-.052-1.998-.035-4.051l.006-.797-.001-.263.25-.091c.962-.292 1.986-1.407 1.967-2.718.01-1.27.018-2.521.022-3.519-.113-.756-.085-1.735 0-2.548.122 2.04.167 4.043.18 6.067.028 1.277-.85 2.517-2.09 2.938l-.095.034v.1c-.006 1.334-.013 2.693-.01 4.092q.004 1.315.02 2.654c.089 2.217-1.895 4.356-4.23 4.344a309 309 0 0 1-6.693.053c-.501-.002-.703-.067-1.125-.053-.071.002.114.052-.106.057-3.015.068-6.23-.046-9.19-.014-.798.008-.923.064-1.625.078.123-.026.204-.054.311-.08-3.204-.082-6.413-.045-9.66-.057-.146 0-.165-.055-.318-.057-.307-.004-.602.056-.87.057-.35.003-.411-.04-.734-.037-.158.001-.11.043-.453.036-.03 0-.048-.044-.276-.039-.624.016-1.9.052-2.418.063-.66.014-1.19-.052-1.44-.056-.675-.011-.66.056-1.232.056q-.633 0-1.262-.002c-2.332.038-4.364-2.056-4.294-4.35.01-1.314.019-2.642.019-3.999 0-.261-.075-1.228-.072-1.712 0-.162.02-1.01.022-1.138.007-.515.052-.96.061-1.245.019-.551-.052-1.167-.059-1.467-.012-.527-.003-1.463-.001-1.684.004-.534.091-.357.071-.74-.006-.114-.073.005-.073-.395 0-.334.05-.47.06-.697.009-.229-.07-.647-.067-.79.01-.743.062-1.072.064-1.882.002-.672-.033-3.78-.052-4.039-.082-1.157-.045.77-.048.879-.016.587-.047.501.013 1.087-.185.524.103 2.35-.117 2.818.147.484.073.89.044 1.4-.041.705.044.168.045.682 0 .203-.066.79-.057 1.094s.06.433.063.84c.005.728-.019 1.314-.08 1.925l.081.327-.086 1.268.07-.202.01.37-.105 1.225c.137 1.147.019.815.001 1.452s.061 1.006.062 1.498c0 .664.01.968.005 1.637-.004.388-.08 1.045.04.506L.393 44c-.008 1.037.464 2.114.96 2.756.196.257-.109-.05-.077-.005.156.23.361.359.565.553.326.341 1.12.835 1.485.946.484.2 1.29.193 1.436.167l.019-.001c.473-.032.6.034.752.03.866-.027 1.057-.055 1.33.085.224-.06 1.162-.163 1.39-.06.005-.093.785-.077 1.264-.1l.269.08c1-.165 2.993-.045 4.31-.026.033 0 .092-.068.29-.053.013.002-.008.032.125.036.438.013 2.109.09 2.301.091.708.003.831-.048 1.262-.053.567-.007.65.04 1.189.033.253-.003.482-.064.88-.055.235.005.259.053.445.057.663.014 1.15-.017 1.74.046.153-.153.434-.04.725-.029 1.183.047 2.658-.017 3.673-.003 3.167.043 5.976.137 9.07.159.502.003.623-.074 1.15-.069.237.002.481.058.869.059.311 0 .757-.028 1.146-.027.104 0 .113.052.265.052.882.002 1.747-.019 2.626-.04a4.7 4.7 0 0 0 .863-.1c.444-.096.73-.143.619-.227.172-.029.338-.07.5-.114.524-.345 1.009-.565 1.557-1.224.066-.07.375-.627.577-.929-.027-.041-.084-.008-.114-.034.148-.315.36-.812.409-1.046.055-.232.017-.398.024-.467.024-.267.088-.202.091-.222q.016-.143.022-.266c.05-.954.009-.895-.092-1.579-.028-.185.052-1.442-.034-1.696.035-.012.066.058.1.078l.027-1.137c-.033.08-.067.177-.102.25.03-.773-.05-1.417-.047-2.05.001-.362.076-.318.06-.53-.003-.04-.05.024-.057-.082l-.026.036.011-.005c.915-.418 1.327-.701 1.856-1.582.218-.43.275-.852.342-1.521l.002-.015c.005-.062.087-.727-.03-1.137.037-.131.056-.246.087-.344-.173-.831-.003-.602.037-1.726.021-.581-.01-2.538-.028-3.171a2 2 0 0 0-.009-.152c-.025-.232-.08-.23-.086-.288-.062-.398 0-.414-.122-.774-.13-.361-.43-.74-.673-1.028-.192-.219.033-.116-.307-.394-.075-.052.083.157-.258-.144-.042-.06-.65-.484-.804-.532.406.042 1.41.687 1.66 1.073.438.527.758 1.264.778 2.087.058 1.921.102 4.16.134 6.545.044 1.483-.968 2.989-2.447 3.508l.308-.436c.018 2.246.028 4.536.033 6.746.057 2.806-2.535 4.96-4.86 4.858l-3.107-.011c-.713-.004-1.18-.076-1.645-.082s-.072.06-.494.054-.73-.052-1.125-.056c-2.661-.027-5.343-.056-7.983-.07-.685-.002-1.233.051-1.856.051-.242 0-.25-.069-.422-.068-1.856.005-3.573.072-5.42.063-.766-.003-1.595-.061-2.354-.066-.626-.005-1.275.035-1.838.035-.305.001-.466-.051-.577-.056-.385-.013-.25.05-.447.05-.542 0-.812-.077-1.32-.07-.2.002-.174.05-.464.059-.367.01-.232-.036-.494-.038-.016 0 .036.035-.103.037-.896.009-2.015.037-2.88.034-1.554-.004-3.092-.056-4.562-.078a5 5 0 0 1-.693-.06c-.44-.078-.332-.02-.472-.05-.668-.181-.878-.333-1.487-.708-.1-.062-.533-.303-.833-.664-.164-.19-.303-.441-.41-.623-.105-.183-.175-.181-.294-.409-.197-.423-.126-.308-.325-.94A4.8 4.8 0 0 1 .048 44c-.006-.204-.01-.41-.009-.601.007-1.051.058-2.354.059-3.593 0-.425-.06-.97-.06-1.63-.002-.805.012-2.289.013-3.114 0-.423.063-.453.066-.503.017-.323-.053-.193-.05-.41.004-.297.056-.574.059-.844.002-.172-.05-.2-.05-.237-.017-1.38-.012-2.601-.018-3.974-.015-3.747-.04-7.512-.057-11.276-.07-2.538 2.218-4.837 4.76-4.777q1.89 0 3.772.007l-.205.055.207-.119c.533-.307.586-.262 1.049-.544.463-.28.843-.666 1.306-.755-.003-.035-.016-.053-.018-.085.99-.524 1.933-1.127 2.876-1.682.697-.411 1.32-.768 1.968-1.142.575-.33.553-.254 1.013-.605 2.488-1.396 4.974-2.857 7.456-4.215.514-.435 1.101-.691 1.903-1.138.099-.055-.028-.03.264-.197.367-.208.589-.262 1.2-.622.163-.096 1.33-.86 1.794-1.086.15-.073.319-.16.496-.252.399-.211.87-.374 1.252-.44-.086-.008-.193-.006-.289-.006q.414-.136.849-.192.068.043.133.089.242-.07.497-.112c.356.198-.014.08.785.16q.16.023.302.061c.262.07.496.166.775.282.137.058.246.057.394.134.357.2.117.134.324.273.202.143.541.315.818.68-.21-.127-.07.047.111.266.185.218.397.502.459.505l.001.003c.075.13.133.241.218.383-.31 0 .248.59.435.843.188.253.119.278.157.34.112.18.062.031.136.16.492.846.912 1.668 1.388 2.509.069.12.043-.007.12.136s.12.298.24.504c.033.056.075.056.124.143 1.043 1.823 2.007 3.57 3.067 5.43.087.153.202.25.36.507l-.272-.172.11.009c.405.038.99.24 1.435.454.118.056.175.023.33.107.522.295.903.656 1.298 1.126.667.792 1.108 1.865 1.081 2.924l-.002.052c-.011.136-.049.135-.06.38-.022.468.043.292.052.387.028.31-.058.407-.036.707.003.046.054-.02.055.021.009.638-.11.671-.046 1.35-.07.602-.093-.405-.13-.508-.088-.253-.192.415-.226.808-.028.339.027.336.027.471 0 .714.01 1.776-.016 2.32-.015.328-.038-.265-.057-.097-.018.167.024.274-.021.445-.046.171-.18.52-.243.454M6.103 13.596c.517-.103 1.438-.152 2.43-.173l-.016.004a94 94 0 0 1 2.698-1.572c1.125-.635 2.173-1.05 1.82-1.126-1.209.701-2.173 1.29-3.453 2.027-.118.068-.762.422-1.1.611l.051-.014-.13-.002c-.18-.002-.186-.042-.43-.042-.053 0-.347.053-.455.052-.369-.005-1.466-.086-1.62-.083-.424.007-.261.07-.444.08-.334.02-.507.002-.693-.014a2.1 2.1 0 0 0-.616.03c-.112.022-.463.154-.894.301-.176.057-.483.153-.608.226-.691.379-1.282 1.046-1.647 1.649-.29.5-.265.342-.398.624-.126.289-.148.673-.177.88a8 8 0 0 0-.098.765l-.003.08c.012 2.035.06 3.846.078 5.81q.042-2.002.085-3.991c-.065-.753-.004-.378.016-.873.017-.392-.094-.487-.082-1.002v-.024c.008-.278.12-.82.264-1.337.009-.018-.047-.09.123-.478.351-.886 1.439-1.993 2.486-2.306.3-.097.256-.024.615-.098.233-.041.499-.123.856-.125q.066 0 .136.002c.533.016.789.112 1.155-.021.03.047.015.094.05.14M32.045.39c.084-.025 1.04.232.774.042-.916-.194-1.96-.012-2.825.49q-.567.326-1.135.638c.319-.07.711-.285 1.176-.566.258-.155.556-.304.893-.413h.002c.044-.014-.13.08.12 0 .118-.042.592-.213.995-.19m-1.889 12.627a.9.9 0 0 1 .453-.053c.034.005.031.046.046.053.026.012.07-.032.077-.032.038 0 .023.071.028.074.058.03.042-.053.097-.06.072-.01.165.004.252.008.03.002.017.056.082.052.047-.003.19-.066.256 0 0 .026-.008.054-.011.08.094-.105.128-.1.262-.075.021.004.041-.04.079-.023.037.016.039.082.114.081.026 0 .042-.047.083-.049.116-.006.337.053.433.054.187.005.29-.076.456-.048.013.002-.015.054.008.055.024 0 .049-.067.055-.069.063-.018.196.074.23.063.086-.027.002-.057.12-.07.112-.013.268.076.379.094.13.02.17-.11.268.025q.512-.01 1.026-.02l-.003.081.08-.055-.011.06a.55.55 0 0 1 .388-.096c.003 0-.004.054-.002.055.033.01.07-.031.1-.021.071.023.192.14.139-.003.165.03.36-.019.517.009.069.012.089.096.122.101.032.005.016-.068.027-.07.07-.017.184-.014.197.068l.042-.098c-.008.09.207.053.264.055.01 0 .012.04.02.04.086-.006.107-.068.181-.088.026-.008-.014.062.053.032.006-.003.003-.065.083-.065.127 0 .371-.024.523.007.013.002-.025.07.032.054.02-.005.01-.054.06-.054.194-.002.4.054.598.008-.007.054-.078.116.028.081.017-.005.005-.054.012-.056.062-.014.115.02.181.002.02-.006.025-.044.05-.053.035-.014.051.041.093.018.066-.037.076-.088.158.013.261-.004.522-.014.782-.015l-.25.43a6 6 0 0 1-.275-.53c-.091-.102-.18-.192-.26-.307-.022-.034.034-.075-.018-.12-.012-.01-.128-.064-.014-.146-.025-.02-.034-.035-.053-.053l-.026.08c-.033-.103-.118-.152-.185-.222-.049-.05.028-.038.002-.072s-.048-.043-.011-.124c-.093.005-.056-.047-.092-.114-.004-.008-.055-.033-.07-.07-.01-.027.032-.06.002-.095-.005-.006-.107-.057-.128-.08-.031-.037-.01-.135-.015-.143-.056-.121-.138-.133-.091-.269-.065.016-.137-.034-.163-.092-.033-.074 0-.279-.13-.229.007-.111-.021-.083-.077-.179-.05-.086-.137-.343-.184-.41s-.094.006-.119-.017c-.041-.037.022-.04.004-.072a1.2 1.2 0 0 0-.177-.231l.096-.074-.042.007-.031-.056c-.07.23-.068-.144-.112-.23-.037-.073-.177-.15-.237-.219-.015-.016.03-.025.027-.028q-.02-.021-.04-.032l.462.124a.14.14 0 0 1-.063.059c-.034.017-.094-.011-.126.006-.234.128-.43.305-.656.443-.038.024-.105-.013-.139.005-.047.025-.05.089-.093.115-.044.027-.14.008-.164.034-.025.025.057.05-.006.066-.029.008-.008-.058-.04-.041-.098.052-.206.181-.336.193q.017.014.036.025c-.112.059-.226.086-.341.148-.04.021-.091.098-.13.12-.039.023-.079-.005-.11.012-.014.007.011.038.002.042-.112.054-.207.027-.315.1-.36.24-.731.483-1.099.725l-.113.074c-.016.01-.001.062-.022.083-.032.032-.057-.006-.062-.005-.038.01-.004.04-.048.065-.097.057-.273.116-.368.175-.22.137-.388.28-.597.426-.015.01-.035-.049-.063-.033-.196.107-.207.181-.456.307-.248.125-.72.357-1.006.514-.032.149-.16.191-.3.172.409-.56.996-.758 1.576-1.11.444-.267.859-.635 1.297-.947.164-.116.332-.225.506-.318.06-.031.116.01.158-.03.007-.007-.04-.037-.016-.056.319-.264.752-.385 1.083-.614.089-.062.076-.119.15-.179q.002.046.004.09c.417-.147.774-.397 1.16-.608.017-.01.047.036.066.027.038-.017.042-.089.073-.109.04-.026.068.007.105-.017.017-.012-.01-.045.035-.062.003-.002.027.035.051.014.052-.044.145-.128.209-.183l-.03-.008.035.043c.057.071.036.166.049.197.035.085.092.05.13.117.275.478.47.973.75 1.462.018.03.148.107.178.166.01.02.05.129.057.145.03.063.02.138.031.176.021.074.124.112.15.143.046.056.101.17.115.197.032.065-.056.088-.012.123.013.01.063-.037.09.01.022.04-.013.08-.005.112.007.031.103.041.11.06.041.092.02.156.071.253.044.08.284.427.317.448.15.096-.012-.112-.017-.127-.026-.077.007-.082-.084-.121.125-.154-.248-.225-.089-.39-.16.017-.123-.068-.131-.143-.012-.103-.05.003-.086-.057-.013-.024.005-.126-.024-.157-.028-.031-.081-.021-.111-.068a.38.38 0 0 1-.06-.265l-.093.002-.01-.193-.048.06-.033-.04.008-.195c-.195-.067-.07-.087-.098-.17-.027-.085-.12-.089-.154-.146-.045-.078-.074-.109-.114-.19-.024-.047-.002-.163-.07-.04-.09-.137-.231-.315-.261-.466-.01-.045.052-.014.053-.022 0-.043-.068-.04-.08-.077-.018-.062-.037-.192-.052-.24-.021-.071-.146-.129-.157-.136-.06-.04-.011-.087-.025-.103-.081-.088-.119-.097-.015-.198-.068.003-.22-.056-.146-.134-.06.034-.097-.012-.133-.057l-.009-.017-.019.01a.4.4 0 0 0-.042.039l-.071-.05c-.034.21-.328.242-.492.315-.004.002.024.065-.007.066-.002 0-.015-.029-.033-.023-.058.018-.292.065-.315.078-.084.046-.073.099-.12.132-.064.044-.097.01-.157.052-.028.02-.024.089-.075.108-.03.012-.057-.028-.08-.018-.085.033-.127.092-.227.078.059.143-.031.064-.07.074-.163.04-.303.197-.429.254-.393.178-.769.288-1.142.48-.06.032-.036.106-.1.138-.029.014-.085-.017-.131.008-.037.021-.075.076-.12.102-.013.007-.04-.037-.058-.027l-.04.023c-.119.074-.222.172-.334.263-.045.038-.111-.004-.042.095q-.051-.02-.099-.04c-.032.106-.128.07-.212.143-.01.007-.039.12-.11.092.02.039.044.067.062.1-.031.038-.117.03-.147.042-.03.011-.02.07-.027.075-.03.02-.06-.048-.062-.048-.18.023-.144.048-.176.193-.008.037-.195.053-.181.145-.02-.03-.027-.061-.041-.092l-.147.054.08.07c-.105.028-.14.141-.216.182-.043.023-.075-.044-.092-.016-.003.006.03.045.018.057-.101.097-.18.08-.303.14-.058.028-.06.136-.17.13-.01 0-.128-.026-.118.103-.034-.023-.057-.032-.084-.052-.01.207-.069.044-.22.086-.079.021-.293.18-.358.24-.038.036-.003.094-.01.101-.038.041-.072-.016-.11.019-.038.034-.055.131-.103.151-.037.015-.052-.071-.088-.017-.007.011.058.054-.01.062a3 3 0 0 1-.159-.019c.023-.064.125-.189.165-.232.664-.73 2.266-1.678 3.203-2.184l.098-.052c.085-.046.176-.016.233-.042s-.021-.056.031-.08.112-.005.16-.029c.325-.157.654-.315.97-.484.081-.044.118-.127.191-.17.029-.016.064.043.084.03.215-.13.382-.305.602-.424.092-.05.218-.055.31-.102.075-.039.131-.118.197-.157.035-.021.08.013.095.01.052-.015.004-.061.027-.075.064-.036.134.012.19-.028.023-.015-.005-.056.025-.083.038-.033.045.016.077 0 .002-.002-.022-.029-.006-.04.1-.069.217-.169.32-.226l.025-.014.335-.175.159.307c.107.206.166.436.262.63.026.051.058.015.069.03.052.07.02.124.083.194.01.011.096.033.11.091.009.032-.008.083-.003.11.006.028.058.003.074.031.03.051-.014.056.034.126.02.028.124.098.163.176.065.127.109.305.191.451.029.05.117.085.162.162.055.094.143.275.198.373.028.05-.024.084-.023.091.006.047.059-.003.07.024.017.037-.009.095.006.128.01.022.057 0 .06.003.107.154.185.3.283.459.217.354.44.706.66 1.06l.316.603-.65-.025a26 26 0 0 1-1.75.02c-.084-.003-.087-.068-.16-.058s-.144.151-.204-.004l-.004.082c-.152-.044-.303.002-.451.007-.11.005-.207 0-.309-.004-.09-.003-.082-.058-.16.014-.386-.045-.776-.034-1.16-.109-.09.117-.175.044-.3.026-.015-.002.002.04-.044.037-.057-.004-.087-.07-.183-.066-.025.001-.214.074-.284.036-.07-.037-.17-.058-.243-.094q.016.042.034.082l-.108.015-.016-.101-.063.096c-.046-.173.001-.117-.1-.073-.051.022-.092-.008-.144.01-.02.005-.031.056-.052.063-.05.016-.021-.054-.053-.054-.031 0-.077.078-.134.043.06-.137-.112-.092-.12.014-.02 0-.037-.004-.06 0 .02-.27-.086-.079-.128-.042s-.041-.036-.05-.033c-.03.008-.009.038-.029.04-.132.005-.257-.039-.388-.043-.019 0-.002.04-.024.036s-.043-.045-.076-.042c-.008.001-.011.037-.025.037-.284-.002-.554-.032-.844-.037-.027 0-.047.064-.098.061-.05-.002-.128-.06-.19-.064-.017-.001-.022.052-.044.05-.076-.004-.14-.047-.219-.054-.132-.012-.271.02-.405-.011-.026-.006-.022-.05-.059-.063-.063-.022-.039.043-.052.052-.042.028-.055-.058-.096-.036-.006.003.003.054-.003.055-.086.009-.09-.11-.182-.047-.082-.068.054-.092.068-.128.035-.089-.056-.193-.109-.227-.046-.028-.046.027-.064.027-.096 0-.24.01-.314-.016-.044-.015.036-.038.013-.057-.022-.018-.037.024-.06-.022a.6.6 0 0 1-.062-.242m8.12.297c-.149.218-.542.195-.753.174-.175-.017-.326-.185-.29.058.19.002.343-.022.543-.015.02 0 .145.023.188.027.024.003.025.043.058.042.007 0 .047-.052.062-.05.05.004.198.084.219.082.057-.007.035-.07.06-.08.084-.038.093.056.175.025.015-.005.064-.087.125-.076.025.004.068.046.087.044.104-.01.22-.066.315-.057.078.008.057.07.098.08.041.007.09-.066.119-.07.045-.007.1.035.114.034q.137-.006.267-.022l.094.004-.045-.087c-.104-.141-.209-.274-.307-.423q.094.247.187.492l.072-.123-.022-.004c-.102.066-.05.004-.118-.016-.053-.016-.066.095-.136.082-.035-.006-.113-.083-.19-.05-.003 0-.01.058-.067.06-.129.004-.326.034-.471.021-.043-.003-.034-.063-.085-.07-.037-.006-.079.05-.137.037-.072-.016-.106-.112-.156.021-.004-.047-.002-.094-.007-.14m-3.986.116c-.01-.005-.146-.154-.105.005.182.069.38.034.571.073-.065-.157-.176-.095-.31-.083-.007 0 .02-.041-.017-.034-.017.004-.085.067-.139.039m2.132-5.64c-.17.16-.354.293-.567.39-.049.023-.065-.015-.087-.01-.041.01-.077.082-.086.086-.05.03-.066-.043-.075-.042-.09.02-.027.077-.096.127-.09.064-.218.122-.335.185-.04.022-.05-.036-.134.018-.06.039-.216.202-.337.195-.013-.022-.016-.052-.024-.077-.071.163-.118.184-.307.265-.03.012-.034.065-.091.08s-.093-.042-.191.016c-.035.021-.032.074-.085.107-.15.094-.469.212-.595.283-.248.14-.342.287-.575.39-.018.009-.007-.057-.038-.04-.032.017-.03.095-.037.1-.074.064-.294.087-.335.123-.098.089.028.05-.121.152-.141.096-.39.138-.545.209-.18.08-.17.224-.364.182q-.669.401-1.337.801l-.037-.072-.078.11-.015-.06a1.2 1.2 0 0 1-.461.379c-.004.002-.021-.05-.025-.05-.049.017-.077.081-.12.095-.106.034-.323.026-.181.108-.232.101-.463.292-.684.388-.096.042-.165-.015-.21.005-.046.021.013.071-.001.083-.083.067-.235.152-.292.09l-.007.118c-.034-.084-.298.113-.373.154-.014.007-.036-.026-.046-.02-.111.071-.108.14-.195.216-.03.026-.012-.065-.085.012-.006.007.03.058-.076.119-.168.097-.476.305-.69.394-.018.008-.003-.08-.07-.023-.024.02.014.055-.052.093-.13.077-.27.143-.41.215l-.054.034-.079.002c-.15-.008-.299-.01-.446.013.011-.054.118-.116-.042-.081-.026.005-.007.054-.018.056-.094.014-.175-.02-.276-.002-.03.006-.037.044-.074.053-.055.014-.08-.041-.143-.018-.1.037-.115.088-.24-.013-.7.006-1.398.035-2.097-.01-.202.03-.388.062-.599.073-.062.003-.074-.066-.173-.043-.02.004-.165.072-.199-.042l-.926.01.8-.478.013.014c.032-.032.056-.046.085-.072l-.106-.01c.15-.061.237-.17.348-.26.08-.068.047.021.1-.016.052-.037.07-.064.175-.042.012-.103.077-.074.178-.13.011-.006.057-.07.112-.094.04-.018.077.02.132-.021.009-.007.102-.135.139-.163.057-.044.189-.044.201-.05.18-.092.215-.188.393-.167-.007-.07.077-.162.164-.205.109-.055.386-.065.346-.201.152-.018.12-.043.264-.128.131-.078.507-.235.61-.304s.012-.105.049-.139c.06-.055.052.016.099-.012.133-.08.244-.158.36-.254l.082.091v-.046l.084-.048c-.304-.026.214-.11.344-.18.109-.06.245-.235.354-.319.026-.02.028.028.034.024.062-.05.058-.082.153-.133.05-.026.127-.009.175-.036.354-.197.665-.441 1.01-.65.06-.034.143-.007.194-.035.072-.04.09-.112.156-.152.067-.04.195-.04.235-.075s-.068-.043.023-.077c.042-.015-.002.064.046.038.149-.081.327-.251.51-.294q-.02-.01-.044-.02c.169-.092.332-.148.506-.244.061-.034.149-.132.208-.166.06-.034.108-.011.156-.038.02-.01-.008-.04.006-.047.168-.086.293-.077.46-.183.609-.39 1.24-.786 1.861-1.179.025-.015.016-.07.05-.098.051-.044.077-.006.085-.01.055-.02.014-.044.08-.083.149-.087.406-.193.552-.281.335-.205.6-.406.923-.617.023-.015.038.047.08.024.296-.166.329-.252.702-.45l.88-.466.284-.177.185.302c.12.23.24.456.339.634.175.08.25.268.26.456a5 5 0 0 1-.774-.99l-.076-.123-.115.072c-.46.288-.953.532-1.453.83-.93.555-1.825 1.311-2.786 1.839-.09.05-.16.015-.227.07-.012.01.046.033.01.06-.502.371-1.131.606-1.642.94-.137.09-.131.15-.25.235.01-.035.01-.067.016-.101-.61.26-1.163.625-1.746.95-.026.015-.057-.03-.085-.016-.057.028-.08.11-.126.14-.061.038-.093.008-.15.043-.027.018.002.049-.062.078-.006.003-.03-.033-.068-.005-.104.079-.312.242-.399.305-.11.08-.237.079-.284.1-.125.06-.09.117-.19.177-.724.42-1.453.757-2.193 1.188-.046.028-.18.192-.268.24-.03.015-.19.086-.213.098-.095.048-.197.055-.253.076-.107.041-.18.166-.23.203-.088.066-.26.154-.3.176-.096.051-.11-.043-.167.015-.017.017.038.062-.033.104-.06.034-.11.004-.154.02-.046.016-.08.127-.107.14-.086.042-.15.054-.222.076l-.242.145.28-.003c.045.01.094.018.157.019.138.002.778-.034.83-.052.239-.082-.158-.045-.18-.048-.12-.016-.103-.047-.224.013-.107-.186-.483.103-.58-.117q0 .003-.003.005l.052.194c.015-.17.123-.15.227-.176.146-.038.008-.056.099-.11.036-.021.173-.024.223-.064s.046-.097.117-.141a.8.8 0 0 1 .383-.13l.017-.105.27-.056-.072-.04.06-.047.271-.036c.135-.237.136-.1.258-.151s.148-.157.235-.209c.118-.069.167-.109.289-.173.07-.037.226-.04.069-.088.21-.134.488-.335.705-.404.064-.021.007.056.02.054.059-.008.068-.085.123-.107.09-.035.275-.087.346-.115.102-.04.209-.196.22-.21.069-.076.125-.032.15-.052.14-.113.16-.156.279-.064.01-.075.125-.26.216-.196-.045-.08.102-.147.175-.217l.088.041c.095-.245.51-.348.754-.468.006-.003-.018-.068.025-.075.002 0 .014.028.04.018.084-.034.42-.14.455-.16.127-.07.123-.128.197-.177.098-.064.136-.032.228-.094.044-.029.054-.105.129-.139.044-.02.073.02.108.003.125-.056.196-.133.332-.14-.05-.148.057-.08.115-.1.234-.082.463-.29.651-.383.585-.29 1.132-.5 1.692-.801.091-.05.075-.128.17-.179.044-.022.115 0 .184-.039.056-.032.121-.102.19-.142.019-.01.047.033.074.018.207-.117.389-.266.583-.408.072-.053.154-.021.08-.117q.067.01.129.022c.067-.126.193-.109.326-.209.015-.01.081-.145.172-.129-.017-.04-.045-.065-.062-.1.052-.049.17-.06.213-.08s.043-.083.055-.09c.046-.03.072.04.076.04.253-.067.21-.087.287-.259.019-.043.283-.103.284-.204.02.029.023.063.036.094l.217-.094q-.05-.03-.096-.062c.152-.055.226-.19.34-.253.065-.037.095.033.125-.003.005-.007-.032-.044-.013-.06.163-.133.268-.132.452-.228.087-.045.114-.167.265-.185h.002l-.059-.016c.002.025.005.172.142.186-.019.042-.024.072-.04.105.235.062.064.106.144.326.041.115.267.449.348.553.049.061.107.026.116.037.055.064-.002.097.045.158.048.06.16.107.194.179.025.055-.07.054 0 .117.014.013.048-.067.07.028.005.015.014.182.015.217a2 2 0 0 1-.299-.282c-.318-.36-.685-.867-1.062-1.436l.576.154c-1.214.818-2.712 1.682-3.657 2.202-.128.07-.247.057-.333.1-.086.042.017.059-.061.098-.078.038-.156.03-.228.068-.487.251-.979.504-1.454.766-.124.068-.194.171-.305.236-.043.025-.08-.034-.11-.016-.327.197-.599.432-.93.616-.139.077-.315.112-.453.186-.114.061-.21.162-.309.221-.054.033-.109.004-.13.012-.076.028-.02.07-.055.09-.096.056-.183.017-.27.074-.035.023-.005.063-.053.1-.06.046-.06-.007-.107.019-.003 0 .024.026 0 .042-.154.1-.34.24-.494.328-.32.18-.668.304-.971.465-.076.041-.033.07-.056.085-.11.076-.178.052-.287.139-.019.014-.067.116-.152.146-.045.017-.112.01-.152.022-.04.013-.016.067-.058.091-.077.046-.075-.003-.182.068-.043.028-.163.162-.28.225-.19.103-.447.194-.668.322-.076.043-.143.152-.26.22-.142.085-.413.226-.56.311-.075.044-.112-.008-.123-.005-.066.019-.007.066-.047.086-.055.027-.13.011-.18.036-.032.016-.01.064-.017.068-.237.158-.456.28-.697.427l-.015.009-.17-.634c1.43-.028 2.876-.09 4.306-.07l-.206.056.201-.113c.111-.061.148-.007.24-.072.09-.065.112-.241.27-.152-.014-.03-.025-.048-.037-.075.221-.077.397-.233.589-.35.141-.088.272-.158.406-.233.12-.065.137-.012.203-.133.53-.257 1.037-.565 1.578-.793.059-.17.209-.172.38-.252.022-.01-.021-.034.04-.066.077-.04.15-.006.274-.083.032-.02.244-.227.354-.248s.254-.08.367-.104q-.042-.024-.087-.045l.135-.096.072.076.034-.132c.147.115.057.102.169-.013.056-.058.124-.063.184-.118.021-.02.012-.073.036-.095.059-.052.055.031.096.007.041-.025.062-.126.154-.14-.009.164.194-.006.15-.104.027-.016.052-.025.08-.045.108.249.152.002.19-.063.037-.064.07 0 .082-.01.034-.029-.008-.039.017-.055.171-.106.357-.164.531-.26.025-.014-.017-.037.014-.05.03-.013.079.006.12-.021.01-.008-.004-.04.014-.051.374-.216.744-.396 1.128-.614.034-.02.03-.09.097-.127.068-.037.198-.046.283-.09.022-.012.001-.062.031-.078.102-.053.209-.065.315-.119.18-.09.346-.225.538-.3.036-.015.053.027.108.01.094-.03.03-.068.042-.085.041-.057.102.007.144-.043.007-.007-.03-.045-.024-.05.11-.073.175.027.263-.099.142-.003-.025.121-.025.164 0 .103.17.124.258.112.074-.01.046-.058.07-.072.127-.074.31-.193.42-.226.067-.02-.027.06.012.059.038-.002.037-.049.09-.027.053.021.182.1.203.162M25.5 13.595a.66.66 0 0 1 .318-.145c.2-.185.502-.343.696-.44.238-.118.52-.089.35-.271-.248.143-.437.281-.703.428-.028.015-.203.09-.261.12-.033.016-.054-.018-.098.008-.006.004-.021.043-.036.069l.052-.014q-.016.01-.027.01c-.076-.005-.302-.086-.333-.083-.087.007-.054.07-.092.08-.126.038-.14-.056-.266-.025-.022.005-.097.087-.19.076-.038-.004-.102-.046-.131-.045-.158.011-.334.067-.478.058-.119-.008-.087-.07-.15-.08-.062-.008-.138.066-.18.07-.069.007-.152-.035-.174-.034-.418.012-.79.06-1.195.078q.413.041.821.085c.155-.066.078-.005.18.016.08.016.1-.095.206-.082.054.006.173.083.29.05.003 0 .014-.058.1-.06.197-.005.497-.034.717-.022.065.004.051.064.128.072.056.005.12-.05.208-.038.11.016.162.112.237-.021.007.047.003.094.01.14m5.286-3.005c.016-.003.27.022.137-.084-.275.08-.516.26-.788.373.165.085.28-.053.45-.166.009-.005-.005.05.038.017.022-.017.078-.122.163-.14m.103-8.134c.304-.24.695-.391 1.103-.396.093 0 .086.042.123.047.068.01.184-.03.201-.029.101.006.056.076.069.08.143.043.11-.044.254-.028q.098.013.208.043c.135.038.278.097.41.16.07.036.017.067.166.143.106.048.448.218.518.39-.017.018-.05.024-.075.037.238.09.307.163.468.46.012.024.035.041.058.065l.005.006.201.34-.351.214a.2.2 0 0 1-.076.05c-.077.027-.114-.03-.252.052-.05.03-.056.087-.13.133-.212.13-.651.318-.829.42-.35.198-.498.378-.82.533-.025.012 0-.062-.043-.038-.045.025-.056.11-.066.118-.108.083-.4.148-.46.195-.144.115.027.05-.185.189-.202.132-.534.223-.75.328-.249.121-.261.278-.509.266q-.944.563-1.89 1.124l-.035-.073-.122.135-.008-.065c-.196.204-.386.36-.671.502-.006.003-.018-.052-.024-.05-.067.027-.115.103-.174.126-.143.057-.425.086-.255.152-.322.153-.658.404-.963.55-.133.064-.213.013-.276.044-.063.03.004.075-.016.09-.12.09-.334.21-.397.153l-.03.131c-.03-.087-.41.177-.516.236-.02.011-.042-.021-.056-.013-.158.098-.166.174-.293.272-.045.035-.005-.069-.114.03-.01.008.028.058-.12.144-.237.137-.676.422-.973.559-.024.011.011-.089-.086-.014-.035.028.007.059-.085.113-.358.21-.768.385-1.11.638-.015-.055.084-.184-.094-.04-.029.023.02.052.006.061-.107.079-.223.106-.336.194-.034.026-.024.065-.064.099-.06.05-.118.02-.184.086-.103.102-.096.158-.298.158-.852.503-1.688 1.023-2.563 1.48-.231.17-.442.33-.694.489-.074.046-.123-.005-.232.085-.013.01-.062.064-.12.098l-.067.04-.092.003c-.06 0-.119-.019-.134-.085-.062.012-.102.012-.155.02l.121.062c-.225-.023-.409.027-.608.05-.147.017-.042-.043-.133-.037-.09.006-.13.02-.243-.052-.088.083-.147.025-.31.022-.017 0-.119.032-.203.026-.061-.005-.08-.056-.176-.049-.016.002-.22.066-.285.072-.101.009-.262-.057-.282-.058-.284-.012-.394.054-.596-.054-.04.064-.21.101-.346.095-.172-.008-.517-.139-.564 0-.193-.06-.179-.026-.393-.023l-1.132.009.978-.58.018-.01c.186-.11.704-.35.851-.445.147-.094.035-.118.09-.161.089-.072.064.008.13-.032a6 6 0 0 0 .517-.344l.09.086.008-.05c.04-.023.082-.05.119-.07-.392.026.3-.159.482-.26.153-.084.363-.303.52-.415.038-.027.032.026.04.02.09-.067.09-.1.223-.173.07-.039.168-.033.236-.071.498-.282.948-.607 1.436-.898.083-.05.189-.034.26-.074.101-.057.137-.14.231-.196s.262-.078.32-.124c.06-.045-.081-.036.044-.09.058-.023-.013.072.054.035.208-.117.471-.337.72-.416q-.026-.01-.056-.014c.238-.132.462-.224.706-.36.086-.048.218-.173.3-.22.084-.049.144-.033.212-.07.027-.016-.003-.044.015-.054.235-.125.397-.137.633-.284.867-.538 1.763-1.09 2.644-1.633.036-.022.034-.081.083-.118.075-.058.102-.02.113-.025.076-.033.026-.053.12-.108.21-.121.564-.284.77-.408.476-.286.858-.555 1.318-.846.033-.02.04.045.1.012.416-.235.475-.337.998-.623.523-.285 1.514-.819 2.121-1.163.133-.208.393-.326.64-.37-1.035.925-2.222 1.472-3.472 2.213-1.314.778-2.619 1.772-3.97 2.527-.127.07-.21.045-.309.118-.017.012.055.028.002.065-.722.498-1.585.87-2.312 1.33-.196.123-.2.19-.369.304.018-.04.025-.076.039-.114-.846.397-1.632.897-2.452 1.361-.037.02-.07-.023-.109-.002-.08.04-.123.135-.19.176-.086.054-.123.025-.202.075-.04.024-.006.053-.096.097-.008.004-.034-.031-.088.007-.15.105-.451.322-.575.407-.159.109-.325.13-.39.162-.175.089-.137.145-.28.228-.738.43-1.472.81-2.216 1.219l-.237.14.274-.002q.488.013.99.014c.075 0 .356-.075.496-.072.047.001.294.021.33.023.15.006.28.051.362.06.16.02.339-.051.426-.058.153-.013.424-.004.489-.002.155.005.103.092.215.072.032-.007-.002-.073.114-.073.097 0 .136.05.202.06.067.008.188-.07.23-.068.185.01.281.049.453.061h.027l.019-.012q.039-.019.082-.044c.17-.096.931-.58.987-.635.249-.24-.216.074-.245.087-.155.072-.15.033-.266.17-.18-.067-.415.25-.619.317l.015-.004a.18.18 0 0 1-.123-.079c-.14.146-.259.073-.407.043-.204-.04-.049.045-.198.045-.058 0-.229-.066-.317-.057-.089.01-.126.06-.244.063a1.5 1.5 0 0 1-.559-.08l-.095.082q-.183-.044-.368-.087l.059.071-.108.01-.355-.105c-.333.136-.236.018-.421 0s-.292.062-.435.062c-.193 0-.281.01-.476.005-.112-.003-.303-.08-.146.041l-.114.004.006.022c.285-.18.633-.408.898-.511.087-.035 0 .06.016.056.079-.02.105-.107.18-.14.124-.055.375-.146.473-.19.14-.062.308-.252.326-.27.103-.097.168-.058.204-.084.203-.15.237-.202.376-.12.026-.086.21-.31.318-.256-.045-.08.159-.18.268-.27l.107.03c.168-.289.728-.477 1.068-.652.009-.005-.01-.073.047-.088.003 0 .014.029.05.013.116-.053.574-.23.622-.258.179-.1.184-.163.29-.23.139-.089.183-.06.315-.145.061-.04.088-.126.192-.176.062-.03.092.008.14-.016.174-.085.281-.182.46-.214-.038-.155.09-.099.168-.131.32-.132.658-.403.92-.54.816-.424 1.568-.753 2.355-1.187.127-.07.12-.154.254-.227.06-.032.15-.02.247-.076.079-.045.176-.134.274-.19.026-.016.054.028.093.006.29-.166.555-.363.835-.555.103-.071.205-.05.126-.144.056.002.11 0 .163.003.111-.152.273-.155.465-.29.02-.014.13-.174.247-.173-.015-.04-.047-.064-.064-.099.077-.063.233-.097.293-.126.06-.03.071-.1.088-.11.065-.04.087.032.092.03.343-.118.29-.133.421-.336.033-.05.388-.165.409-.277.02.03.018.066.03.098l.3-.142c-.038-.018-.08-.033-.115-.052.21-.087.33-.25.49-.34.092-.052.119.02.164-.026.009-.009-.035-.042-.006-.064.236-.175.374-.193.632-.332.12-.064.178-.204.378-.25.019-.005.227-.032.27-.193.052.013.09.013.13.026.122-.272.15-.091.452-.22.157-.067.632-.38.782-.488.089-.065.053-.123.068-.135.093-.072.126-.015.214-.079.088-.063.168-.197.267-.246.076-.039.06.066.154-.022.02-.018-.08-.041.048-.084.02-.007.24-.048.287-.056a4 4 0 0 1-.42.382c-1.651 1.316-5.285 3.435-7.231 4.523-.181.102-.334.108-.454.17s.012.062-.097.12c-.108.056-.209.06-.31.115-.681.365-1.369.731-2.037 1.106-.174.097-.284.223-.44.314-.061.036-.098-.023-.14.003-.464.276-.861.584-1.328.846-.194.11-.431.18-.625.286-.159.088-.302.217-.442.3-.077.045-.144.023-.173.035-.104.045-.038.08-.087.11-.136.078-.243.05-.367.13-.05.032-.018.07-.087.12-.087.061-.076.002-.143.04-.004.001.027.024-.007.046-.22.139-.487.326-.705.45-.45.257-.927.456-1.352.688-.107.058-.056.082-.088.103-.156.103-.242.09-.4.204-.027.02-.108.14-.224.19-.063.026-.15.03-.203.051-.055.021-.033.076-.093.111-.109.064-.098.01-.25.107-.06.039-.24.207-.403.297l-.18-.667h.002c.305.007.683.057 1.043.058.123 0 .281-.06.473-.06.233-.001.664.013.904.013.122 0 .131.064.146.066.093.018.056-.052.118-.05.087.004.167.056.246.06.05.002.058-.05.068-.05.401-.018.755-.013 1.154-.018l.152-.003-.172.047c1.788-1.077 3.576-2.19 5.39-3.212.155-.088.194-.035.325-.123.13-.088.19-.286.38-.216-.012-.03-.023-.049-.034-.076.303-.125.56-.328.832-.492.2-.122.383-.223.573-.33.168-.093.18-.037.289-.183.738-.378 1.456-.808 2.203-1.157.107-.198.304-.227.543-.346.03-.015-.023-.034.063-.08.108-.058.196-.033.372-.14.047-.029.36-.295.508-.338s.346-.133.498-.18q-.05-.02-.106-.034l.194-.13.08.07.069-.15c.171.1.056.101.223-.046.083-.074.173-.091.261-.163.032-.026.028-.083.064-.11.086-.07.066.023.124-.011.059-.035.104-.15.227-.182-.04.183.254-.04.215-.142.038-.022.072-.037.112-.064.097.256.199-.025.259-.102.06-.078.093-.013.11-.026.049-.038-.005-.042.032-.064.242-.148.496-.245.74-.382.035-.02-.016-.038.026-.058.043-.02.103-.007.161-.045.016-.01.003-.044.028-.059.528-.305 1.044-.57 1.583-.879.05-.028.055-.105.15-.158s.267-.086.386-.15a.03.03 0 0 0 .014-.014l-.106.388-.004-.002c-.02-.006-.052-.002-.067-.028-.068-.12-.106-.241-.202-.353-.165-.189-.397-.31-.615-.435-.042-.023-.018-.062-.081-.098-.11-.06-.086.017-.112.018a.1.1 0 0 1-.049-.01c-.04-.022-.058-.073-.12-.068-.012.001-.005.054-.016.053-.158-.018-.159-.139-.338-.08-.16-.068.107-.093.14-.123.08-.082-.105-.204-.23-.23-.107-.025-.102.032-.143.036-.218.017-.525.119-.685.167-.099.027.06-.069.005-.064-.056.004-.069.056-.137.04-.067-.019-.235-.076-.248-.142M22 10.81c.164-.348.903-.752 1.305-.962.332-.173.696-.191.507-.362-.351.202-.622.388-.997.598-.039.021-.28.136-.362.179-.046.024-.068-.01-.129.026-.013.008-.06.097-.088.111-.095.05-.41.14-.448.165-.103.068-.03.098-.07.135-.137.122-.2.05-.338.166-.025.02-.075.144-.194.201-.048.023-.148.032-.182.055-.187.121-.373.294-.554.389-.148.077-.141 0-.222.037-.08.037-.136.154-.186.188-.08.055-.202.078-.228.094-.505.308-.934.614-1.418.915q.523-.256 1.044-.509c.155-.166.092-.059.227-.113.106-.043.074-.153.21-.218.07-.033.252-.05.378-.16.005-.005-.012-.062.093-.125.237-.143.588-.382.863-.527.08-.043.095.018.192-.03.07-.035.121-.129.234-.18.142-.064.254-.018.279-.187.031.037.051.079.083.114m7.32-4.397c.022-.006.349-.024.194-.118-.372.137-.72.38-1.095.553.2.065.374-.108.618-.263.011-.008-.017.056.046.011.03-.022.123-.149.238-.183M44.472 44.01c.08 1.295-1.013 2.578-2.383 2.652a1 1 0 0 1-.237-.008c-.057-.014-.073-.03-.135-.034-.189-.013-.505.032-.55.032-.275 0-.167-.072-.204-.075-.414-.029-.295.053-.69.061-.514.01-1.175-.004-1.795-.008-.218-.002-.12-.057-.59-.052-.334.003-1.355.066-1.825-.001-.003-.025.057-.053.082-.08-.674.106-.916.101-1.871.076-.152-.004-.295.039-.561.023s-.277-.083-.813-.082c-.19 0-.305.047-.596.05-.828.005-2.405-.053-3.085-.055-1.338-.004-2.067.076-3.255.048-.092-.002.11-.053-.059-.054s-.345.067-.387.069c-.45.017-1.399-.074-1.649-.063-.607.027-.008.057-.85.07-.802.012-1.91-.077-2.704-.094-.92-.02-1.218.109-1.911-.026-2.436.008-4.881.013-7.32.02q.01-.04.024-.08l-.579.055.086-.06c-.906.077-1.713.117-2.771.096-.02 0 .034-.054.017-.056-.239-.01-.506.032-.715.022-.506-.023-1.366-.14-.988.003a46 46 0 0 0-1.396-.009c-.898.02-1.764-.536-2.128-1.237-.247-.492-.167-.685-.203-.929-.02-.25-.079-.118-.087-.209L2.34 44c-.014-.5-.008-1.25.07-1.332-.033-.1-.065-.206-.098-.307.09.06.053-1.475.055-1.877 0-.074.04-.084.04-.14-.006-.618-.067-.77-.088-1.299-.007-.186.062.102.032-.375-.002-.041-.065-.02-.064-.59 0-.91-.025-2.65.006-3.733.003-.09.07.181.055-.225-.006-.147-.054-.076-.055-.433-.002-1.382.054-2.855.008-4.264.055.052.116.553.082-.201-.006-.12-.055-.03-.057-.085-.014-.438.021-.818.002-1.292-.005-.14-.044-.175-.053-.35-.013-.258.041-.372.018-.672-.036-.468-.088-.54.014-1.122-.006-2.634-.025-5.26-.01-7.884a2.45 2.45 0 0 1 .949-1.918 2.45 2.45 0 0 1 1.515-.572c.44-.013.884-.023 1.354-.028.292-.003.347.066.812.043.104-.005.846-.08.954.06.207-.011.338-.012.515-.019-.134-.02-.273-.041-.402-.062.749.022 1.36-.027 2.023-.05.489-.018.142.042.442.036.3-.005.435-.019.81.053.294-.083.49-.025 1.032-.023.058 0 .395-.032.676-.025.203.004.263.056.584.048.053-.001.733-.065.95-.071.336-.01.872.057.937.058.947.012 1.313-.054 1.985.054.136-.064.698-.102 1.151-.096.573.008 1.722.14 1.878 0 .663.063.591.025 1.378.023.715 0 2.61.052 3.19.044.58-.007.297-.084.527-.094.377-.017.174.04.432.039a62 62 0 0 0 2.06-.039q.056.06.116.12l.108-.04.457.001c-1.17-.175 1.13.013 1.82.018.583.003 1.553-.08 2.193-.098.155-.004.048.039.08.038.374-.012.431-.042.935-.038.266.002.538.057.797.058 1.905.007 3.743-.047 5.635-.053.321-.001.6.065.87.066.31.002.529-.033.791-.047a2 2 0 0 1 .234.005c.427.023.96.329 1.18.49.228.16-.11-.19.279.152.167.168-.167-.083.042.117.4.385.758 1.053.752 1.75.001.365-.004.724-.025 1.044.014-.037.027-.088.04-.134-.005.903-.039 1.7-.044 2.633-.001.326.04.913.04 1.234s-.045.466-.046.722c-.001.106.039.065.038.135-.004.349-.018.635-.032.91l.002.275-.278.002c-.425-.022-.824-.047-1.386-.042-1.7.015-3.426.029-5.16.042a6.26 6.26 0 0 0-4.43 1.895c-.092.095-.116.195-.235.343-.181.232-.222.218-.248.248-.163.2-.07.138-.262.424-.436.62-.905 1.775-.976 2.536q-.053.419-.049.823c.023 1.404.48 2.657 1.362 3.773.078.095-.024.07.113.234 1.035 1.083 1.336 1.32 3.086 1.935.447.128 1.01.231 1.64.237 2 .017 4.544.04 6.287.046q.125-.018.258-.033l.351-.002.002.356c.073.686.042 1.508-.034 2.203a86 86 0 0 1-.106-2.203l-.002-.214-.21.001c-2.175.079-4.33.083-6.546.075a6.44 6.44 0 0 1-4.382-1.758c-1.25-1.161-2.05-2.867-2.073-4.65-.169-3.44 2.991-6.697 6.455-6.58h.038c.484.003.678.068 1.086.055.069-.003-.11-.053.102-.058 1.736-.04 3.54-.016 5.32.003l-.035.035c.013-1.208.024-2.404.01-3.56-.008-.771-.063-.892-.077-1.57.026.119.053.197.08.3a140 140 0 0 0 .034-1.715c.045-1.168-1.011-2.244-2.195-2.216-1.391-.001-2.787.003-4.19-.002-.141 0-.16-.055-.308-.057-.297-.004-.58.056-.84.058-.339.002-.397-.04-.71-.038-.152.002-.106.043-.437.036-.028 0-.046-.044-.267-.039-.603.016-1.836.053-2.335.063-.639.014-1.15-.051-1.392-.056-.652-.011-.638.056-1.19.056-3.928 0-7.683-.076-11.705-.075-.252 0-1.187.075-1.654.072-.157-.002-.976-.021-1.099-.023-.498-.006-.928-.052-1.203-.061-.532-.019-1.128.052-1.417.06-.51.012-1.413.002-1.627 0-.516-.004-.346-.091-.716-.07-.11.005.005.072-.38.072-.323 0-.454-.05-.675-.06-.22-.009-.625.07-.762.067-.719-.01-1.037-.062-1.819-.064-.358-.001-1.431.01-2.364.022-.806 0-1.372.487-1.441.561-.378.427-.233.294.01.063.246-.235.703-.432.755-.439.389-.102.468-.068.676-.088a7 7 0 0 0 .361-.032c.507.186 2.271-.103 2.723.117.468-.147.86-.073 1.353-.043.68.04.162-.045.659-.046.196 0 .763.067 1.057.057.294-.009.417-.06.811-.063.703-.005 1.27.019 1.86.08l.316-.081 1.225.087-.196-.071.359-.01 1.183.105c1.108-.137.786-.018 1.402 0s.972-.062 1.448-.062c.64-.001.935-.011 1.581-.005.375.003 1.01.08.489-.042 1.169-.01 2.77-.043 3.816.006.309.014-.103.052-.05.057.262.022.482-.04.753-.03.45.014 1.324.062 1.678.074.51.016 1.31-.064 1.391-.07.458-.032.58.034.727.03.837-.027 1.021-.055 1.285.085.216-.06 1.123-.162 1.343-.06.005-.092.758-.077 1.222-.1l.26.08c.966-.165 2.891-.045 4.163-.026.032 0 .089-.068.28-.053.013.002-.007.033.121.037.423.013 2.038.09 2.223.09.684.003.804-.048 1.22-.053h.027c.503.022.583.092 1.015.3.198.113.42.19.651.488.13.18.098.226.175.377.156.327.222.633.217.934a7 7 0 0 1-.039.656c.153.148.04.42.029.701-.047 1.143.017 2.568.003 3.548q-.012.835-.028 1.64l.16-.158c-2.226-.044-4.32-.103-6.546-.126q-.3-.003-.602.021c-.505.05-.613.144-1.124.265-.229.06-.481.075-.845.221-.292.117-.684.34-1.013.548-.088.055-.124.016-.253.102a6.55 6.55 0 0 0-2.226 2.614c-.186.39-.337.62-.2.594a7 7 0 0 0-.24.425c-.1.59-.284 1.054-.294 1.864 0 .024.005.088.014.176.02.23.073.609.064.861.045.019.075-.038.114-.033.053.329.118.84.182 1.06.06.22.165.344.188.407.093.24.006.21.012.23.438 1.134.464.998.966 1.524.108.143.917 1.086 1.189 1.15-.013.034-.086.016-.123.03q.43.362.919.652c-.054-.069-.119-.146-.162-.212.636.418 1.264.57 1.856.721.342.082.287.143.495.163.04.003-.019-.057.1-.043.392.045.695.06.983.067.424.01.81.031 1.392.037.456.005.855-.087 1.51-.026.06.005.702.087 1.099-.03.126.037.237.056.332.087.803-.173.58-.003 1.667.037.125.005.317.007.545.007l-.144-.143c0 .796.021 2.043.036 2.518.01.365.08.358.082.423.016.388-.05.389-.04.748s.086.813.08 1.182c-.006.282-.088.06-.06.477.006.087.076-.16.049.28-.004.07-.08.773-.096.917-.044-.37-.1-1.444-.119-1.848a218 218 0 0 1-.145-4.697l.357.357c-2.016.043-4.246.075-6.545.097-3.774.158-7.19-3.425-7.046-7-.023-2.813 1.742-5.105 3.531-6.085.648-.365 1.133-.46 1.59-.59.463-.118.053-.083.48-.176.43-.082.75-.073 1.154-.088q.145-.004.29-.003c2.182.024 4.376.048 6.546.061l-.335.336.005-.894c.003-.662-.05-1.19-.05-1.793 0-.234.069-.241.068-.407-.004-1.184-.034-2.31-.052-3.451a1.86 1.86 0 0 0-.584-1.318 1.92 1.92 0 0 0-1.234-.54 23 23 0 0 0-.633-.015c-.605-.005-1.232.035-1.776.036-.295 0-.45-.052-.557-.056-.372-.014-.242.05-.432.05-.524 0-.785-.078-1.276-.072-.193.003-.168.052-.448.06-.355.01-.223-.036-.477-.038-.015 0 .034.035-.1.037-.866.01-1.946.037-2.781.035-1.727-.005-3.432-.073-5.04-.086-.407-.004-.3.042-.428.044-.622.01-.844-.044-1.494-.024-.108.003-.544.067-.96.05-.225-.008-.48-.048-.671-.057s-.222.049-.452.049c-.42 0-.297-.04-.896-.033-.242.003-1.048.058-1.669.054-1.015-.007-2.274-.057-3.47-.058-.411 0-.939.06-1.576.06-.778 0-2.211-.013-3.009-.014-.408 0-.437-.063-.486-.066-.312-.017-.186.053-.395.05-.287-.004-.555-.055-.816-.059-.166-.002-.193.05-.229.05-1.334.017-2.513.013-3.839.018l-3.18.016c-.97-.018-1.838.865-1.808 1.826.028 4.934.053 9.878.032 14.784-.002.595-.068.617-.057 1.14.01.523.15 1.028-.005 1.458.031.014.054.012.082.026-.044 1.08.002 2.162.008 3.218.004.783-.001 1.476-.005 2.199-.003.64-.058.585.014 1.14Q3.005 42.889 2.995 44c-.034.94.813 1.806 1.766 1.797q1.321.017 2.631.05c.641-.117 1.255-.043 2.142-.026.11.003-.008-.04.316-.037.408.005.619.07 1.305.066.182 0 1.527-.073 2.026-.036s1.219.06 1.736.095c-.073-.029-.166-.055-.248-.083l.775-.014.111.101.451-.096c.326.173-.008.116.717.073.364-.022.652.008 1.025-.01.135-.006.22-.057.369-.063.363-.016.151.054.376.054.226 0 .55-.078.956-.044-.423.138.799.093.857-.014.146 0 .268.004.428.001-.148.27.614.079.916.042s.29.035.36.032c.205-.007.056-.038.199-.038.946-.007 1.837.038 2.77.042.134 0 .015-.04.172-.037s.307.045.539.042c.062 0 .081-.036.178-.036 2.03.001 3.956.032 6.026.037.187 0 .334-.064.696-.062s.911.06 1.36.065c.12 0 .152-.053.31-.051.539.005 1.002.048 1.561.055.945.012 1.933-.02 2.892.011.181.006.152.05.414.063.453.021.282-.043.374-.052.3-.028.394.058.683.036.045-.004-.018-.055.021-.055.616-.01.648.11 1.303.046.582.069-.39.092-.49.129-.244.089.4.193.78.226l.053.004c.294.012.293-.05.42-.069.746-.083 1.563-.904 1.732-1.436.13-.312-.062.267.016.113.084-.155.078-.274.16-.438.09-.16.232-.545.292-.473M2.438 30.023c.218 1.057.195 3.86.175 5.365-.018 1.249-.185 2.325.058 2.067.001-1.35-.023-2.441-.016-3.868.001-.149.024-1.034.028-1.342.002-.173.042-.179.042-.415 0-.05-.053-.335-.051-.44.004-.356.085-1.416.082-1.564-.006-.41-.069-.253-.08-.43-.038-.595.056-.66.026-1.25-.006-.105-.088-.455-.077-.892.005-.177.047-.48.045-.616-.011-.74-.067-1.567-.058-2.246.008-.555.071-.406.08-.7.008-.294-.065-.65-.07-.85-.006-.322.035-.713.035-.813-.01-1.474-.039-2.826-.06-4.21a2.15 2.15 0 0 1 .419-1.309 2.2 2.2 0 0 0-.468 1.308q-.026 1.23-.054 2.453c.065.727.004.366-.017.844-.016.379.095.47.083.968v-.001c-.007.256-.083.813-.051 1.36 0 .018.058.067.06.476.005.92.034 2.33.022 3.364-.004.304-.064.242-.072.601-.005.262.05.566.038.976-.016.515-.112.761.022 1.115-.048.03-.094.014-.14.05m13.345 16.184c.072.005 1.04.154.753-.005-1.301-.07-2.708-.035-4.077-.074.468.157 1.258.096 2.218.084h.002c.045 0-.145.04.113.033.125-.003.604-.066.99-.038m30.87-12.022c.056.36-.065.764-.338 1.037-.062.062-.087.026-.116.047-.053.036-.107.138-.12.148-.076.058-.088-.024-.1-.019-.13.05-.051.1-.169.17-.153.09-.382.143-.593.15-.049.002-.052-.023-.093-.038a.16.16 0 0 0-.077-.01c-.08.002-.328.065-.442-.002 0-.025.014-.053.02-.079-.163.105-.222.1-.453.075-.037-.004-.071.039-.136.023-.064-.016-.067-.082-.197-.082-.046 0-.074.048-.144.05-.2.006-.583-.053-.748-.055-.324-.004-.5.076-.788.048-.022-.002.026-.053-.014-.054-.041-.001-.084.067-.094.069-.109.017-.339-.074-.4-.063-.147.027-.001.057-.205.07-.195.012-.463-.076-.655-.094-.223-.02-.295.109-.463-.026q-.886.01-1.773.02l.005-.08-.14.055.021-.06c-.22.077-.415.117-.671.096-.005 0 .008-.054.004-.055-.058-.01-.122.03-.173.021a1 1 0 0 1-.113-.033c-.108-.035-.2-.072-.135.034-.3-.036-.662-.037-.939-.133-.119-.04-.132-.133-.187-.154s-.047.057-.068.054c-.126-.02-.323-.096-.313-.18l-.109.062c.047-.075-.323-.2-.41-.255-.016-.009 0-.045-.012-.051-.139-.072-.203-.038-.329-.094-.044-.02.056-.038-.062-.08-.01-.004-.041.053-.161-.034-.192-.133-.55-.414-.713-.646-.014-.018.083-.013.002-.08-.029-.024-.054.022-.114-.047-.233-.273-.396-.617-.6-.92.056-.012.167.073.051-.082-.018-.025-.052.017-.06.006-.061-.096-.07-.199-.131-.304-.019-.032-.058-.026-.082-.065-.036-.059.005-.104-.041-.17-.072-.103-.129-.11-.07-.281a4.6 4.6 0 0 1-.168-1.185 3.8 3.8 0 0 1 .215-1.317c.042-.242.093-.467.194-.705.03-.07.098-.052.134-.169.006-.025.039-.232.174-.183.017-.05.034-.08.053-.122l-.108.055c.12-.153.17-.31.26-.462.065-.111.056-.003.1-.067s.059-.101.177-.125c-.011-.112.066-.111.167-.209.01-.01.05-.095.109-.14.042-.032.088-.004.145-.064.008-.01.102-.172.145-.211.064-.062.216-.09.23-.098.207-.128.258-.233.462-.222-.002-.073.111-.175.221-.219.14-.06.461-.04.454-.182.184.004.152-.027.35-.082.18-.055.671-.079.818-.09.148-.018.072-.09.131-.103.098-.021.047.037.114.035l.106-.004c.137-.005.264-.016.4-.036l.028.12q.014-.02.027-.04l.11.001c-.283-.175.274.013.441.018.141.003.376-.08.531-.098.038-.004.012.039.02.038.09-.012.104-.042.226-.038.065.002.13.056.193.057.462.008.907-.047 1.365-.052.078-.001.145.064.21.066.094.002.154-.052.242-.053.087 0 .214.064.273.054s-.042-.072.067-.055c.05.008-.039.054.023.056.193.004.465-.054.67.002q-.014-.02-.032-.04c.219.006.412.04.638.044.078.002.22-.039.298-.038.078 0 .113.044.175.045.026 0 .016-.039.033-.038.215.01.332.081.556.073l1.142-.038a1.395 1.395 0 0 1 1.335.92c.015.04.073.054.096.117.033.098-.014.11-.014.123 0 .087.041.047.047.166v.038c-.003.195-.037.489-.034.674.007.446.048.822.068 1.26.002.032-.06.01-.06.065-.007.386.052.468.035.948s-.053 1.387-.062 1.95c.113.177.085.406 0 .596-.28-1.097-.156-2.146-.167-3.317-.007-.708-.077-1.443-.13-2.176a1.15 1.15 0 0 0-1.018-1.053.4.4 0 0 1-.096-.023c-.056-.019-.099-.044-.164-.035-.017.002.026.052-.025.057-.705.068-1.458-.046-2.15-.014-.187.008-.217.064-.38.078.028-.026.047-.053.072-.08-.75-.082-1.5-.045-2.26-.057-.035 0-.04-.055-.075-.057-.072-.004-.14.056-.204.058-.082.002-.096-.04-.172-.038-.036.001-.025.043-.106.036-.006 0-.01-.044-.064-.039-.146.016-.445.052-.566.063-.154.014-.278-.052-.337-.056-.158-.011-.154.056-.288.056q-.463-.001-.917-.019a4.1 4.1 0 0 0-1.895.367c-.058.026-.227.197-.325.253a7 7 0 0 0-.238.124c-.104.063-.215.09-.275.124-.117.067-.182.217-.23.27-.084.092-.244.243-.28.281-.088.09-.125.003-.17.085-.013.025.056.046-.004.12-.05.06-.109.055-.149.093s-.035.165-.055.191c-.107.139-.193.178-.29.346-.096.134-.335.838-.32.905.006.284.093-.16.109-.182.06-.124.083-.093.078-.242.21-.038.145-.548.397-.53-.068-.17.048-.214.14-.292.128-.107-.014-.058.057-.154.029-.038.165-.102.204-.16s.02-.116.084-.187a.8.8 0 0 1 .376-.25l.005-.11q.142-.062.285-.112l-.08-.03.064-.058c.099-.027.192-.05.293-.068.156-.252.152-.111.287-.163.137-.05.18-.156.286-.2.14-.059.204-.092.353-.134.086-.025.253.01.1-.074.267-.09.65-.186.906-.15.075.009-.021.053-.008.057.064.018.113-.046.178-.039q.05.006.117.018c.105.02.228.047.289.055.123.016.317-.064.337-.07.11-.032.14.034.176.03.203-.027.247-.055.311.085.053-.06.272-.163.325-.06.002-.093.184-.077.296-.1l.063.08c.234-.165.7-.045 1.009-.026.008 0 .021-.068.068-.053.003.002-.002.033.029.037.102.012.493.09.538.09.166.003.195-.048.296-.053.133-.006.152.04.278.033.059-.003.113-.064.206-.055.055.005.06.053.104.057.155.014.27-.017.407.046.036-.153.102-.04.17-.029.277.047.622-.017.86-.003.655.038 1.245.116 1.874.149a1 1 0 0 1 .18.03c.081.024.129-.041.216.007.04.023.049.092.101.133.042.033.12.068.163.124.011.015-.03.047-.015.069a1.05 1.05 0 0 1 .2.591c.01.101-.06.164.06.147q-.042.058-.084.112c.076.14-.003.253.017.441.002.02.085.162.025.243.043.006.079-.007.118-.004.016.08-.033.202-.038.255-.005.054.05.09.05.106.002.062-.071.047-.072.052-.07.287-.031.256.078.43.028.043-.052.337.034.396-.035.003-.066-.013-.1-.018l-.027.266c.033-.019.067-.041.102-.058-.03.18.05.331.047.48-.001.084-.076.074-.06.123.003.01.054-.006.058.023.033.235-.02.338-.03.574-.005.11.087.207.026.366-.006.015-.087.17.03.266-.037.03-.057.058-.088.08.174.195.004.141-.037.404-.02.136.01.594.028.743.012.088.08.086.083.102.016.094-.05.094-.04.181s.086.197.079.286c-.005.069-.087.015-.059.116.006.02.076-.039.049.068-.005.017-.08.187-.096.222-.044-.09-.101-.35-.119-.448-.267-1.464-.304-4.221-.283-6.097a.6.6 0 0 0-.135-.397c-.057-.07-.068-.166-.127-.206-.057-.038-.036.046-.086.017-.05-.026-.08-.083-.137-.097a1 1 0 0 0-.11-.017 72 72 0 0 0-1.695-.061c-.16-.003-.288.05-.434.05-.057 0-.058-.069-.099-.068-.434.005-.836.072-1.268.064-.18-.004-.373-.062-.551-.067-.147-.005-.298.035-.43.035-.072.001-.11-.051-.135-.056-.09-.013-.059.05-.105.05-.127 0-.19-.077-.309-.07-.046.002-.04.051-.108.059-.086.01-.054-.036-.116-.038-.004 0 .008.035-.024.037-.21.009-.471.037-.674.034-.418-.004-.831-.072-1.22-.086-.1-.003-.073.043-.104.045-.15.01-.205-.044-.362-.024h-.003c-.03.007-.122.066-.212.056-.05-.006-.11-.042-.154-.047s-.045.053-.096.06c-.093.01-.072-.034-.204-.006-.054.012-.22.1-.354.131-.219.05-.503.097-.747.215-.084.04-.161.148-.282.22-.15.087-.417.262-.552.38-.069.058-.115.017-.125.022-.065.035.004.067-.032.097-.05.041-.129.046-.173.087-.028.025.006.066 0 .072-.193.229-.357.436-.508.692a3.96 3.96 0 0 0-.534 2.09c.017.853.309 1.682.802 2.366.077.105.03.15.113.233.084.084.26.065.217.242.025-.02.04-.036.063-.054.137.2.352.318.544.444.142.094.27.176.407.253.123.066.09.11.23.096.485.263 1.041.377 1.597.43l.173.018c.155-.117.304-.043.518-.026.027.003-.001-.04.077-.036.099.004.15.07.316.066.044-.001.37-.074.49-.037.122.038.296.06.422.095q-.028-.041-.06-.083l.187-.014.027.101.11-.096c.078.173-.003.117.173.073.088-.022.158.008.248-.01.033-.006.054-.057.09-.063.088-.016.036.054.09.054.055 0 .134-.078.232-.044-.102.138.194.093.208-.014.035 0 .065.005.104.002-.036.269.148.078.221.04.074-.036.07.036.088.034.05-.008.013-.038.048-.04.229-.005.445.039.67.043.033 0 .005-.04.042-.036.038.003.075.044.13.041.016 0 .02-.036.044-.036.492.001.958.032 1.46.037.045 0 .08-.064.168-.062s.221.06.33.065c.029 0 .037-.052.075-.05.13.004.242.047.378.054.188.01.384-.01.577 0l.093.006c.034.002.035.047.088.05.093 0 .042-.056.057-.068.043-.043.09.031.133-.013.006-.006-.026-.047-.02-.051.091-.058.17.035.227-.097.132-.03.005.123.002.163.004.107.195.102.292.046.083-.045.04-.082.061-.109.12-.14.213-.397.257-.532.03-.083.025.075.05.035.027-.041-.01-.076.04-.117.051-.04.186-.143.25-.124M33.531 33.06c.308.135.672.679.929.941.199.221.311.511.41.281-.25-.199-.457-.361-.671-.626a5 5 0 0 1-.174-.268c-.022-.035.01-.059-.021-.104-.007-.01-.088-.036-.1-.058-.045-.073-.1-.33-.115-.358-.05-.081-.09-.02-.118-.053-.096-.11-.018-.164-.1-.279-.014-.02-.122-.067-.148-.17-.01-.041.007-.123-.005-.153-.064-.163-.166-.343-.187-.506-.016-.132.053-.108.05-.177-.001-.07-.084-.145-.093-.193-.014-.076.021-.172.02-.196l-.015-.233a4.1 4.1 0 0 1 .074-1.11c-.108.294-.181.603-.224.918.056.172.006.098-.017.192l-.004.016c-.015.095.096.115.09.235-.004.063-.07.206-.02.336.002.005.06.01.077.107.038.22.149.544.224.782.022.07-.04.077-.014.162.019.062.099.109.129.204.038.12-.017.22.14.233-.038.029-.08.047-.117.077m6.162 2.237c.018.005.252.154.183-.005-.316-.069-.656-.035-.988-.074.113.158.305.096.537.084.012 0-.034.04.028.033.03-.003.146-.066.24-.038"/><path fill="#a9a9a6" d="M39.58 28.364c-1.203 0-2.182.979-2.182 2.181 0 1.203.978 2.182 2.181 2.182a2.185 2.185 0 0 0 2.182-2.182 2.185 2.185 0 0 0-2.182-2.182"/><path fill="#a9a9a6" d="M39.579 29.24c-.056.107-.095.155-.152.115-.012-.009-.023-.09-.03-.103-.013-.023-.015.067-.017.067-.013.004-.032-.14-.035-.144-.032-.054.003.106-.013.125-.02.026-.058.004-.09.004-.011 0-.036-.107-.058-.09-.017.01-.025.145-.094.029-.018-.047-.035-.1-.051-.15.036.211.027.204-.042.18-.011-.004.019.077-.007.054-.027-.022-.087-.141-.115-.125-.01.006.03.092.017.103-.033.031-.171-.018-.208.004-.071.043.001.192-.084.195-.006 0-.068-.082-.077-.077s.078.11.08.115c.007.04-.162-.046-.157-.019.017.063.084.077.073.129-.008.047-.186-.012-.244.011-.066.028.147.174-.107.074a1.7 1.7 0 0 0-.133.44l-.156-.04q.05.032.1.062l-.116-.03c.138.093.209.148.16.207-.001.001-.107-.014-.11-.013-.022.014.059.038.038.05-.049.026-.284.078.002.063a.1.1 0 0 0-.021.07c.004.058.044.113.01.167-.02.033-.186.064-.194.083-.007.018.136-.011.142-.006.036.028.04.08-.118.118l.196-.019c-.178.033-.08.122-.076.148 0 .005-.075.028-.073.031.023.04.144.012.194.03.018.007-.12.036-.052.046.005 0 .122-.044.134-.011.02.055.11.127.09.215-.001.008-.128.06-.087.068.015.003.096-.05.108-.032.047.07.017.217.147.226-.084.07-.2.123-.113.118.014-.001.082-.07.088-.07.04.002.006.068.055.064.014 0 .07-.053.09-.059.03-.008-.04.076.006.055.072-.032.14-.11.035.068.173.13.37.177.537.328.077-.035.145-.084.206-.093.018-.003-.006.134.031.094.01-.008.075-.148.041.13.017-.022.026-.021.04-.035l-.01-.126c.04.05.09-.044.13-.089.029-.032.003.087.02.076.02-.011.027-.038.048.106.009-.068.015-.089.022-.089.01 0 .023.041.043.044.004 0 .022-.065.04-.053.012.008.022.112.042.094.004-.002.034-.134.044-.147.017-.02.066.107.071.107.065.014.056-.119.147.082-.02-.127-.006-.207.023-.202.033.007.19.231.106-.033.08.101.05.031.093.01.038-.016.193.024.22-.01.024-.032-.07-.155-.07-.18 0-.04.05.063.063.053q.052-.039.057-.131l.15.187-.043-.068q.012-.01.024-.017c-.271-.232.068-.02.112-.05.035-.02-.039-.182-.041-.232 0-.013.058.05.058.047-.003-.033-.045-.074-.02-.091.014-.009.107.048.12.036.086-.086.055-.24.091-.34.006-.018.133.023.142.008.014-.02-.08-.077-.073-.097.006-.02.138-.004.125-.026-.013-.02-.14-.038-.099-.052.02-.007.1.044.108.03.025-.047-.068-.14.051-.166l-.079-.01c.022-.05.097-.087.113-.145.007-.021-.072-.065-.07-.084s.09-.023.094-.04c.001-.006-.078-.007-.076-.011.009-.02.035-.038.064-.056.044-.027.092-.056.08-.093a1.7 1.7 0 0 0-.32-.592c-.005-.006-.1.035-.12.033-.028-.005.052-.048.054-.052.01-.024-.061.022-.071.005-.021-.039.002-.143-.032-.178-.077-.08-.198-.093-.296-.129-.007-.002.08-.089.07-.1-.062-.071-.149.01-.22-.079-.069-.09-.236-.252-.37-.302v-.001c-.101.207-.125.144-.144-.033.398-.5.701-.106.953.093.28.197.893.377.964.862.005.043-.117.088-.083.115.005.005.1-.031.113-.015.112.135.082.311.043.466-.026.107-.055.206-.044.309.007.068.115.098.13.165q-.075-.03-.151-.057c-.21.226-.232.477-.39.691-.008.01-.1-.047-.11-.04-.02.015.068.1.059.12-.012.026-.085-.02-.095.004-.005.011.065.058.037.071-.002.001-.073-.05-.074-.03a1.5 1.5 0 0 1-.027.228c-.017.06-.14-.003-.16.004-.053.019.04.116.004.148-.254.224-.604.24-.898.321-.018.006-.056.17-.097.171-.014.001-.088-.026-.098-.028-.043-.005-.089-.09-.112-.107-.044-.032-.078.112-.102.127-.035.024-.095.015-.123.009l-.011-.003c-.043-.009-.025-.183-.054-.143-.01.011-.005.146-.036.144-.027-.002-.032-.103-.047-.122s-.061.133-.073.128c-.057-.028-.068-.133-.127-.148-.047-.009-.294-.001-.327.023-.143.124.032.106.039.113.037.044.015.103.093 0-.041.373.223-.162.191.276.084-.283.094-.134.134-.07.055.086.023-.088.066-.086.016 0 .06.136.088.119.025-.017.038-.1.064-.121l.01-.005c.06-.01.109.035.173.152l.014-.163q.06.082.129.16l-.036-.139.028-.024c.044.066.089.125.14.19.047-.288.063-.05.13-.03s.056-.142.096-.155c.055-.019.073-.046.131-.056.034-.005.145.114.01-.092.089-.056.175-.175.301-.136.038.01.046.094.055.1.043.026-.003-.09.026-.087.049.004.17.038.21.037.06-.003.02-.175.018-.188-.01-.076.083.018.088.003.023-.091-.006-.14.205.045-.066-.104-.155-.303.005-.176-.132-.128-.064-.155-.073-.215q.067.045.136.086c-.195-.276.084-.251.18-.337.002-.002-.113-.077-.078-.075.002 0 .055.033.068.027.04-.016.247-.079.256-.097.032-.057-.058-.11-.052-.148.007-.05.096-.024.1-.075.003-.024-.106-.083-.079-.11.016-.017.108.01.12-.004.045-.05-.003-.108.132-.132-.294-.083-.07-.056-.042-.079.116-.091.005-.249.038-.337l.06-.156c.096-.234.196-.493.157-.76-.009-.052-.159-.019-.166-.07-.003-.024.094-.084.081-.123-.01-.03-.079-.053-.093-.089-.005-.01.09-.051.085-.067-.043-.114-.164-.187-.268-.262-.038-.027.064-.123-.135.011.041-.045.076-.086.115-.131-.158.034-.056-.095-.137-.138-.01-.005-.176.052-.105-.05-.067.053-.12.103-.18.151-.044-.002 0-.102-.008-.125-.007-.023-.098.041-.103.038-.018-.015.092-.112.092-.115.02-.181-.033-.122-.23-.007-.048.03-.03-.167-.157-.047.043-.055.087-.1.131-.15l-.051-.11q-.05.089-.104.176c-.02-.09-.16.009-.2-.024-.025-.02.058-.144.024-.126-.006.003-.054.092-.068.094-.106.012-.084-.098-.155-.156-.035-.028-.141.125-.145-.008 0-.012.004-.187-.112.02.016-.074.02-.113.032-.175-.183.304-.048-.01-.127-.118-.041-.057-.235-.038-.296-.008-.038.017-.056.152-.062.157-.038.027-.021-.105-.056-.087s-.087.164-.117.148c-.023-.012.005-.175-.035-.12-.008.012.007.153-.028.096-.004-.008-.063-.16-.078-.193a.7.7 0 0 1 .188-.23c.369-.29 1.066-.284 1.633.047.578.319.961.917 1.09 1.354.026.082-.09.183-.085.236s.116-.03.12.02c.005.05-.074.11-.07.155a4 4 0 0 1-.035.885c-.009.071.093.139.086.208-.003.027-.14.012-.14.03-.013.194.075.409-.007.601-.034.08-.175.122-.217.19-.035.056.006.153-.021.208-.015.03-.115-.006-.128 0-.043.022.075.073.064.091-.03.051-.177-.006-.194.044-.007.02.077.072.072.106-.006.044-.073-.02-.09 0-.002.002.059.038.053.052-.04.088-.072.219-.139.287-.138.142-.37.17-.52.252-.038.021.026.088.017.1-.044.058-.126-.019-.162.052-.006.012.022.146-.036.143-.03-.002-.095-.057-.122-.063s.028.098.005.11c-.041.023-.067-.055-.118-.012-.02.016-.054.155-.124.175-.113.033-.277-.016-.402.015-.043.01-.071.141-.143.157-.087.02-.252.016-.34.02-.046.003-.057-.122-.063-.127-.035-.033-.014.106-.038.102-.032-.006-.064-.109-.092-.115-.017-.005-.02.1-.023.1l-.019.004c-.14.03-.267.012-.409.003-.788-.042-1.656-.426-2.074-1.162-.035-.061.074-.133.026-.172-.046-.037-.324.045-.073-.147l-.147.075c.018-.152-.116-.226-.172-.342-.041-.084-.058-.167-.075-.25-.014-.077.094-.096-.06-.126.008-.245-.012-.48.042-.708a.9.9 0 0 1 .103-.257c-.226-.094-.07-.154-.02-.245.007-.012-.08-.014-.066-.05.018-.045.15-.042.16-.117.002-.018-.096-.207-.006-.24.088-.03.156-.09.243-.115l-.163-.036q.002-.045.007-.092l.19.07-.155-.125c.33.112.21.1.166-.009-.022-.055.046-.055.034-.107-.004-.019-.089-.077-.092-.098-.007-.051.103.039.115.017.01-.021-.102-.132-.02-.135.21.183.201.03.03-.097.01-.014.025-.02.03-.039.432.322.164.04.128-.034-.039-.072.075.018.075.009.002-.028-.056-.052-.047-.066.056-.09.188-.105.263-.17.011-.01-.056-.059-.038-.065s.087.04.1.019c.004-.006-.044-.06-.036-.067.166-.152.372-.23.567-.332.018-.01-.031-.129.007-.145s.145.06.191.047c.013-.003-.03-.101-.012-.106.06-.016.14.044.2.035.101-.014.184-.109.3-.074.022.006.04.093.072.11.054.032.008-.09.014-.109.019-.062.065.104.085.055.003-.007-.024-.106-.02-.108.062-.03.105.205.15.068.078.128-.011.188-.007.261.009.179.098.375.133.438.032.054.018-.055.028-.056.052-.007.132-.034.173.018.025.03-.016.078-.003.114s.018-.048.032.043c.014.09.035.357.03.485m-1.462 2.517c-.387.22-.51-.034-.529-.168-.023-.118.255-.329-.185-.119.047.117.136.183.19.301.006.012.013.105.023.133.005.016-.06.063-.046.081.003.004.104-.036.107-.027.011.031-.05.211-.036.22.036.023.12-.071.149-.073.092-.01-.042.122.04.12.016.001.155-.09.167-.049.005.017-.033.097-.021.103.066.031.194-.007.229.043.029.042-.057.135-.045.165s.124-.07.143-.068c.03.005.015.093.023.097.167.077.35.058.512.08a1.8 1.8 0 0 1-.218-.284c-.113.086-.03-.007-.04-.061-.009-.042-.13.143-.153.1-.012-.024.037-.175-.035-.147-.002 0-.073.092-.103.075-.067-.039-.199-.073-.246-.154-.014-.023.075-.105.065-.136-.006-.023-.105.036-.11-.006-.006-.055.13-.192-.094-.043q.109-.093.213-.183m-.486-2.078c.013-.003.314.057.018-.06-.173.04-.156.183-.264.275.313.051.212-.04.22-.126.001-.004.072.04.066.016-.004-.011-.105-.097-.04-.104"/></svg>