<svg width="646" height="442" viewBox="0 0 646 442" fill="none" xmlns="http://www.w3.org/2000/svg">
<g clip-path="url(#clip0_1571_93)">
<rect width="645.424" height="441.867" fill="#F1F1F1"/>
<path d="M556.016 79.9932C559.778 77.0623 559.778 77.0622 563.092 64.9343C559.499 69.3024 555.074 73.2765 556.016 79.9932Z" fill="#FC5B70"/>
<path d="M493.075 -30.9631C492.015 -31.4601 489.854 -30.5699 489.344 -28.4279C488.941 -26.7366 486.887 -25.7573 487.092 -23.7177C485.76 -20.9024 484.004 -18.2668 483.447 -15.1238C483.18 -14.9438 483.087 -14.6976 483.169 -14.3852C479.783 -8.0823 476.049 -1.94892 473.797 4.90559C473.663 6.32901 471.844 7.41706 472.964 9.08908C472.894 9.80585 470.837 9.58859 472.099 10.9302C467.373 17.6983 465.391 25.6653 462.373 33.1799C460.154 36.012 458.53 39.0679 458.752 42.8181C456.509 45.1725 455.264 47.8956 455.657 51.2212C454.99 51.6782 453.928 51.6014 453.708 52.6636C453.041 55.7091 450.377 58.0221 450.507 61.3628C449.779 63.3178 447.052 64.7723 448.998 67.3965C448.612 68.4972 446.514 69.8634 448.062 70.5653C449.959 71.4253 449.581 68.8666 450.172 67.7753C452.147 66.0944 451.379 63.8082 451.508 61.719C452.058 60.0974 455.606 60.481 454.265 57.5944C457.474 54.4793 458.401 50.3045 459.544 46.231C459.889 45.3025 460.234 44.373 460.58 43.4434C462.297 41.2298 462.917 38.5639 463.67 35.9522C467.528 34.8986 466.349 31.1016 467.489 28.6303C470.459 22.1952 474.653 16.3057 476.292 9.27051C479.174 8.14907 476.773 6.43255 476.776 4.98613C478.047 4.65028 478.846 3.9257 478.819 2.51608C480.596 1.04857 481.835 -0.638063 481.123 -3.12155C481.353 -5.23466 484.518 -6.20299 483.379 -8.85072C484.987 -9.74064 485.396 -11.0315 484.669 -12.7031C485.156 -13.5665 485.643 -14.4288 486.13 -15.2911C488.672 -15.9223 487.717 -18.3711 488.526 -19.9025C488.844 -20.4958 489.162 -21.0888 489.48 -21.6821C491.521 -23.0161 491.664 -25.3945 492.505 -27.3603C492.998 -28.5101 495.195 -29.9687 493.075 -30.9631Z" fill="#FC5B70"/>
<path d="M605.187 106.28C602.552 109.793 599.553 113.169 600.401 117.97C602.926 114.417 605.219 110.779 605.187 106.28Z" fill="#FC5B70"/>
<path d="M612 92.1572C612.31 91.493 612.951 90.1945 611.317 89.8159C610.006 89.5121 609.448 90.2835 609.17 91.3278C608.358 94.3765 607.603 97.4398 606.827 100.497C606.06 101.864 605.205 103.209 605.315 105.021C608.191 104.5 606.951 102.17 607.814 100.941C610.384 98.5815 610.629 95.0945 612 92.1572Z" fill="#FC5B70"/>
<path d="M481.583 -41.9049C480.879 -43.1115 481.144 -45.2933 479.387 -45.362C477.245 -45.445 478.128 -43.2389 477.691 -42.0272C477.183 -40.6212 476.663 -39.2196 476.147 -37.8153C475.291 -35.9294 474.436 -34.0435 473.581 -32.1572C473.633 -31.4988 473.684 -30.8404 473.736 -30.182C470.659 -26.423 470.269 -21.4445 467.908 -17.3605C465.019 -16.3891 468.153 -13.4606 466.223 -12.1779C463.477 -8.16195 461.044 -4.04182 461.791 1.13761C461.793 1.13738 461.796 1.13716 461.798 1.13693C461.811 1.13934 461.891 1.17414 461.891 1.17414C457.976 2.39989 459.156 6.86107 456.853 9.1123C456.286 11.681 452.611 13.2223 454.318 16.5128C456.563 15.4018 456.901 12.0773 459.962 11.8888C460.595 11.8504 461.246 11.0374 460.611 10.4404C460.138 9.99642 459.203 10.0455 458.473 9.87506C459.198 7.48071 463.078 7.06044 462.315 3.73527C463.791 3.39217 463.857 2.13248 464.101 0.988825C463.849 -1.09007 468.17 -2.0359 465.513 -4.71032C466.968 -5.51157 468.43 -6.31036 467.743 -8.40458C467.99 -9.02547 468.236 -9.64678 468.483 -10.2677C469.861 -11.9037 469.208 -14.9886 472.198 -15.4767C471.962 -16.0358 471.726 -16.595 471.489 -17.1546C472.346 -17.6468 473.687 -17.7794 473.106 -19.337C473.924 -22.297 476.256 -24.8596 475.44 -28.2469C475.583 -28.5648 475.726 -28.8826 475.869 -29.2009C476.469 -30.7821 477.071 -32.3628 477.672 -33.944C479.049 -35.1934 479.055 -37.027 479.659 -38.6059C481.272 -39.1283 483.015 -39.4522 481.583 -41.9049Z" fill="#FC5B70"/>
<path d="M508.251 31.4296C509.08 30.5687 509.304 29.5468 509.062 28.3992C509.578 27.1209 511.261 26.0407 509.935 24.445C509.426 23.8314 508.716 24.3832 508.15 24.744C506.333 25.902 507.706 27.0343 508.169 28.1747C507.151 29.1926 502.548 27.5215 505.602 31.5958C502.833 33.4371 505.278 37.2081 502.801 39.1585C501.692 40.9322 500.558 42.7036 502.418 45.0513C502.463 42.616 504.245 41.088 504.894 39.0084C505.637 36.3143 508.337 34.49 508.251 31.4296Z" fill="#FC5B70"/>
<path d="M595.463 130.933C595.224 130.227 594.424 130.399 593.747 130.72C590.45 132.278 593.214 134.93 592.587 136.962C592.537 137.123 592.503 137.289 592.461 137.453C590.398 137.626 589.326 141.252 590.471 144.33C591.903 142.314 593.591 140.461 593.177 137.731C594.794 135.748 596.406 133.721 595.463 130.933Z" fill="#FC5B70"/>
<path d="M598.48 121.416C596.836 121.839 595.934 122.996 595.407 124.523C596.108 124.312 596.807 124.102 597.507 123.892C597.143 125.627 596.781 127.363 596.417 129.099C598.281 126.973 599.411 124.62 600.102 122.144C600.734 119.881 599.548 120.514 598.48 121.416Z" fill="#FC5B70"/>
<path d="M616.27 78.247C615.033 81.6477 613.649 84.9684 612.112 88.4013C614.94 85.7533 616.278 82.2835 616.27 78.247Z" fill="#FC5B70"/>
<path d="M499.687 47.8956C496.563 47.2973 497.248 51.802 495.919 53.9381C495.031 55.2955 494.558 56.679 495.523 58.4678C497.278 57.5781 497.526 56.1107 497.864 54.7014C498.417 52.263 501.238 48.192 499.687 47.8956Z" fill="#FC5B70"/>
<path d="M586.331 153.828C589.523 151.537 588.987 148.182 589.547 145.306C587.856 147.763 586.065 150.191 586.331 153.828Z" fill="#FC5B70"/>
<path d="M447.881 71.5357C444.676 73.8284 445.221 77.2712 443.374 79.3433C442.736 80.9599 441.486 82.5547 443.389 84.4729C444.336 83.0411 445.249 81.7491 444.622 79.9453C446.448 77.7146 447.853 75.3303 447.881 71.5357Z" fill="#FC5B70"/>
<path d="M611.887 28.2147L611.892 28.2123L611.894 28.203L611.889 28.2066L611.887 28.2147Z" fill="#FC5B70"/>
<path d="M608.94 35.7814C612.181 34.1388 611.088 30.8065 611.89 28.2126C608.074 29.6309 609.298 33.0146 608.94 35.7814Z" fill="#FC5B70"/>
<path d="M572.156 39.3359C574.165 37.5067 575.502 35.6459 576.009 33.2661C576.221 32.2758 575.789 31.6001 574.843 31.4389C574.503 31.3814 574.074 31.8428 573.685 32.0675C575.375 34.861 571.52 36.3285 572.156 39.3359Z" fill="#FC5B70"/>
<path d="M422.48 93.6028C423.963 90.5999 424.111 89.6931 423.742 87.8113C423.105 89.8614 421.941 91.5249 422.48 93.6028Z" fill="#FC5B70"/>
<path d="M451.455 23.7963C451.305 23.5704 449.773 23.9268 449.58 24.8819C449.375 25.9026 449.212 27.1617 450.17 27.8122C450.47 28.0151 451.505 27.1327 452.339 26.6726C452.048 25.5833 451.958 24.5532 451.455 23.7963Z" fill="#FC5B70"/>
<path d="M615.739 21.0613C612.605 23.322 612.35 25.8087 611.895 28.2026C614.442 26.7544 614.356 24.1128 615.739 21.0613Z" fill="#FC5B70"/>
<path d="M490.671 63.3125C490.891 65.0221 491.72 65.7846 492.844 66.098C492.985 66.1369 493.959 64.6239 493.768 64.1317C493.26 62.8208 491.888 63.4644 490.671 63.3125Z" fill="#FC5B70"/>
<path d="M439.867 44.8838C440.914 47.8634 438.36 48.9801 439.847 51.3343C440.8 49.4378 442.267 48.1181 439.867 44.8838Z" fill="#FC5B70"/>
<path d="M511.687 19.5144C514.651 19.2018 514.718 17.2743 515.368 15.8287C514.744 15.51 514.12 15.1927 513.496 14.8754C512.937 16.309 512.378 17.7427 511.687 19.5144Z" fill="#FC5B70"/>
<path d="M519.517 2.09687C519.517 2.08249 519.518 2.06808 519.52 2.05411C519.519 2.05116 519.518 2.0497 519.518 2.04611C519.48 2.07266 519.447 2.10128 519.407 2.12743C519.443 2.1159 519.48 2.10692 519.517 2.09687Z" fill="#FC5B70"/>
<path d="M517.786 6.83626C514.542 6.99988 517.472 9.55833 516.347 10.5444C515.397 11.9881 514.447 13.4319 513.497 14.8746C514.121 15.1919 514.744 15.5102 515.369 15.8279C516.553 13.28 518.729 11.1735 518.809 8.13225C519.549 6.51796 520.418 4.94769 520.992 3.27607C521.533 1.69942 520.518 1.81218 519.514 2.09658C519.383 3.83805 519.356 5.6162 517.786 6.83626Z" fill="#FC5B70"/>
<path d="M446.31 34.7854C445.468 34.2932 444.747 34.5413 444.312 35.4563C444.082 36.1812 444.268 36.8786 445.015 36.9804C445.833 37.0919 446.714 36.7792 446.953 35.8468C447.027 35.5566 446.637 34.9761 446.31 34.7854Z" fill="#FC5B70"/>
<path d="M530.937 -21.944C527.549 -21.6147 529.477 -18.7513 528.667 -17.1935C524.617 -15.908 527.148 -11.387 524.779 -9.27586C522.906 -8.38595 523.7 -6.52191 523.257 -5.10862C520.911 -3.29771 518.65 -1.44175 519.515 2.04567C522.285 0.138271 524.171 -2.39552 524.952 -5.71207C527.527 -8.69926 528.215 -12.5206 529.527 -16.0658C530.366 -17.872 531.205 -19.6782 532.044 -21.4844C532.696 -23.156 533.349 -24.8288 534 -26.5005C532.17 -25.4108 530.859 -24.0847 530.937 -21.944Z" fill="#FC5B70"/>
<path d="M608.937 35.7938L608.941 35.7919L608.942 35.7812L608.935 35.7848L608.937 35.7938Z" fill="#FC5B70"/>
<path d="M606.999 39.5664C609.012 38.8296 609.191 37.4117 608.936 35.7926C607.156 36.4699 606.752 37.7856 606.999 39.5664Z" fill="#FC5B70"/>
<path d="M490.937 68.6973C489.553 68.8653 488.632 69.3214 488.648 70.7574C487.5 72.0376 485.263 73.5587 487.124 75.0852C488.412 76.1406 489.151 73.587 489.983 72.4806C491.728 71.541 490.015 69.8719 490.937 68.6973Z" fill="#FC5B70"/>
<path d="M484.276 81.0329C481.124 82.0316 481.882 85.214 480.751 87.3421C479.764 89.7012 477.739 91.8979 479.696 95.5843C480.736 92.9151 481.496 90.9675 482.255 89.0198C483.121 86.809 483.986 84.5993 484.853 82.3889C485.48 80.6296 486.913 79.0952 486.577 76.8961C484.335 77.6662 485.014 79.7139 484.276 81.0329Z" fill="#FC5B70"/>
<path d="M588.375 85.6429C588.37 85.6567 588.367 85.6727 588.362 85.6878C588.376 85.6835 588.384 85.6782 588.398 85.6739L588.375 85.6429Z" fill="#FC5B70"/>
<path d="M586.458 89.8553C588.896 89.1326 587.903 87.096 588.365 85.6866C586.192 86.3473 586.17 87.9518 586.458 89.8553Z" fill="#FC5B70"/>
<path d="M624.48 57.365C621.175 58.4763 623.707 60.8169 623.573 62.6323C623.987 61.5716 624.4 60.5109 624.814 59.4501C625.927 59.275 626.544 58.5921 626.216 57.5251C625.875 56.41 625.128 56.7474 624.48 57.365Z" fill="#FC5B70"/>
<path d="M565.933 54.2099C565.671 54.7423 565.389 55.5172 566.274 55.7759C566.604 55.8719 567.068 55.5068 567.362 55.3944C567.625 54.5664 567.721 53.8756 566.951 53.6165C566.693 53.5295 566.085 53.9014 565.933 54.2099Z" fill="#FC5B70"/>
<path d="M431.959 68.9783C431.363 68.4716 430.528 68.7963 430.317 69.3692C430.12 69.9042 430.472 70.6396 430.582 71.287C431.108 71.0406 431.635 70.7935 432.25 70.5053C433.084 69.906 432.374 69.3291 431.959 68.9783Z" fill="#FC5B70"/>
<path d="M588.377 85.6415L588.399 85.6719C588.414 85.6527 588.425 85.6325 588.439 85.6126C588.416 85.6218 588.399 85.6324 588.377 85.6415Z" fill="#FC5B70"/>
<path d="M589.707 81.8646C588.113 82.9772 589.201 84.5735 588.441 85.6133C590.257 84.9006 590.439 83.6825 589.707 81.8646Z" fill="#FC5B70"/>
<path d="M547.865 101.691C547.282 101.367 546.531 101.368 546.442 102.251C546.409 102.582 546.924 102.967 547.282 103.456C547.74 103.202 548.345 103.057 548.413 102.778C548.489 102.465 548.177 101.865 547.865 101.691Z" fill="#FC5B70"/>
<path d="M432.842 65.5687C433.684 65.8135 433.738 64.985 434.085 64.33C434.019 64.0593 433.927 63.6764 433.834 63.293C433.366 63.6651 432.79 63.9674 432.475 64.4413C432.33 64.6602 432.611 65.5016 432.842 65.5687Z" fill="#FC5B70"/>
<path d="M577.719 28.5944C577.681 28.1196 577.648 27.6977 577.615 27.2757C577.074 27.4992 576.358 27.5865 576.047 27.9873C575.788 28.3208 576.006 29.0233 576.014 29.5628C576.55 29.2586 577.085 28.9539 577.719 28.5944Z" fill="#FC5B70"/>
<path d="M620.032 68.5555C619.092 68.3623 618.424 68.8422 618.283 69.758C618.221 70.1633 618.576 70.6343 618.741 71.075C619.368 70.6182 619.997 70.1617 620.453 69.8298C620.875 69.0226 620.526 68.6572 620.032 68.5555Z" fill="#FC5B70"/>
<path d="M438.185 52.2518C437.704 52.915 437.267 53.2568 437.231 53.637C437.193 54.036 437.426 54.6208 437.742 54.8557C438.182 55.1828 438.768 54.8978 438.763 54.3463C438.76 53.7515 438.453 53.1598 438.185 52.2518Z" fill="#FC5B70"/>
<path d="M547.411 -24.2123C549.62 -25.2637 549.542 -27.1749 549.273 -29.1583C549.295 -29.4604 549.281 -29.7618 549.232 -30.0614C550.363 -31.8895 551.769 -33.6834 550.45 -35.9757C550.287 -36.2578 549.353 -36.48 549.181 -36.3128C547.41 -34.5955 547.225 -32.5682 548.254 -30.381C547.499 -29.5565 546.001 -28.9915 547.235 -27.4712C546.394 -26.7824 544.446 -26.8732 545.425 -24.9018C545.372 -24.578 545.318 -24.2542 545.265 -23.9304C544.502 -20.4779 541.05 -18.4687 540.441 -14.9344C540.121 -13.9685 539.801 -13.0033 539.48 -12.0375C539.14 -11.4334 538.8 -10.8298 538.46 -10.2257C536.798 -7.82173 536.027 -5.18448 536.377 -2.25443C535.497 -0.0901085 533.083 1.44382 533.531 4.75933C536.677 2.94021 536.101 -0.857083 538.517 -2.53276C537.584 -4.73234 540.777 -5.23964 540.431 -7.19973C542.241 -8.67592 543.707 -10.3018 542.925 -12.9102C543.092 -13.5562 543.259 -14.2033 543.425 -14.8497C544.358 -17.0149 545.29 -19.1805 546.221 -21.3451C546.619 -22.3003 547.015 -23.2563 547.411 -24.2123Z" fill="#FC5B70"/>
<path d="M624.944 0.350595C624.528 0.358408 624.017 0.753777 623.742 1.11981C623.503 1.43788 623.536 1.96039 623.349 2.88856C624.244 2.16377 624.807 1.80216 625.244 1.32323C625.59 0.944617 625.67 0.337564 624.944 0.350595Z" fill="#FC5B70"/>
<path d="M65.496 362.695C65.3628 361.355 64.6269 362.229 64.1095 362.302C63.2436 362.127 62.3787 361.952 61.5128 361.778C60.7638 361.656 59.6448 360.562 59.6807 362.506C57.5022 361.972 55.3152 361.756 53.109 362.348C53.0625 362.207 53.0271 361.948 52.9673 361.942C49.8703 361.625 46.7751 360.918 43.6627 361.828C43.5273 361.777 43.3899 361.735 43.2496 361.7C43.075 360.624 42.612 360.541 41.9067 361.295C40.3904 362.087 38.956 360.798 37.4584 361.118C35.4514 361.44 33.5829 360.752 31.6729 360.331C31.4398 360.279 31.1402 360.54 30.8708 360.656C30.3332 360.49 29.8053 360.266 29.2548 360.173C28.1962 359.994 29.165 360.689 28.9783 360.9C28.1046 360.858 27.2319 360.817 26.3582 360.776C25.6379 359.562 24.6832 359.826 23.6885 360.334C22.5863 360.207 21.4267 360.278 20.5485 359.381C20.7551 358.646 21.6053 358.627 21.9602 358.057C22.2427 357.584 22.5262 357.109 22.8087 356.636C22.788 355.955 23.1803 355.752 23.7666 355.774C24.1988 354.745 26.0411 354.828 25.7109 353.199C25.979 353.176 26.2471 353.152 26.5152 353.128C27.3479 353.42 27.2779 352.326 27.8507 352.218C28.8778 352.828 29.4385 352.722 29.1654 351.327C28.8842 351.357 28.6039 351.387 28.3227 351.417C28.2107 351.551 28.0977 351.685 27.9857 351.818C28.0977 351.684 28.2097 351.552 28.3227 351.417C28.603 351.388 28.8851 351.357 29.1654 351.327C29.6291 350.489 30.0623 351.204 30.5072 351.353C31.1738 351.523 31.5174 351.276 31.4977 350.555C31.7259 350.15 32.2617 350.086 32.4816 349.836C33.2989 348.912 32.1858 349.356 31.9413 349.164C32.0423 348.37 33.6337 349.113 33.2601 347.83C33.5138 347.754 33.8213 347.739 33.7875 347.34C34.4448 347.515 34.6428 347.103 34.7406 346.561C35.8171 346.684 36.8119 346.678 36.8461 345.161C37.0324 345.007 37.2197 344.852 37.4061 344.698C37.326 345.273 37.3956 345.759 38.0829 345.878C38.6414 345.281 37.8654 343.929 39.2168 343.78C39.3608 343.817 39.5057 343.854 39.6497 343.891C40.7583 344.645 40.5745 343.331 41.0077 343.004C41.0831 342.196 42.4834 342.054 41.9908 340.962C42.5746 340.819 43.5423 341.675 43.6517 340.295C43.8282 340.127 44.0048 339.96 44.1813 339.791C44.7354 339.923 44.9602 339.548 45.1584 339.129C46.5008 338.896 46.9514 337.564 47.8806 336.822C48.458 336.363 49.0354 335.903 49.6128 335.445L49.6412 335.451C51.5151 335.798 52.2072 335.134 52.3944 332.81C52.68 332.788 52.9656 332.768 53.2511 332.746C54.2887 332.994 54.0703 331.781 54.6465 331.492C55.3833 331.661 55.7437 331.211 56.0152 330.618C56.8117 330.449 57.9114 330.685 57.7582 329.251C57.8241 329.119 57.8422 328.98 57.8143 328.835C58.2779 328.233 59.4613 328.633 59.5606 327.525C59.7558 327.23 59.9519 326.934 60.1472 326.64C61.2184 326.057 61.3752 324.157 63.7935 324.966C62.7414 324.126 62.3457 323.81 61.95 323.494C61.7758 322.87 62.3682 322.091 61.5829 321.59C61.6781 320.19 60.8508 320.875 60.277 320.988C59.0529 320.628 58.4342 321.156 58.3023 322.397C56.734 322.16 56.4434 323.823 55.4572 324.48C53.0058 326.109 50.7794 328.094 48.4623 329.936C47.3026 330.557 45.9207 330.858 45.2809 332.231C43.4933 332.372 42.9281 334.604 41.1484 334.757C39.9502 334.711 39.4859 335.457 39.3184 336.525C38.8331 336.561 38.3702 336.627 38.3976 337.3C37.8049 337.781 36.5976 337.533 36.6815 338.814C35.7615 338.743 35.7395 339.825 35.0619 340.112C32.8904 341.029 31.2508 342.742 29.4107 344.156C28.3214 344.178 27.8555 344.759 27.9606 345.85C27.2679 346.076 26.4109 346.11 25.9112 346.56C23.2959 348.914 20.3492 350.807 17.6206 352.999C17.2066 352.601 16.7926 352.201 16.3786 351.803C16.6234 351.13 17.7424 350.631 16.7797 349.717C17.3595 348.226 17.7024 346.727 16.9391 345.189C17.6417 345.011 18.132 344.685 17.839 343.816C18.0621 341.727 18.2862 339.637 18.5094 337.549C19.0317 337.038 19.1615 336.546 18.4405 336.098C18.1214 334.387 19.4501 332.83 18.8934 331.098C19.6642 330.424 18.6178 329.655 18.7638 329.409C20.2016 326.992 18.636 324.425 19.25 322.003C19.4277 321.553 20.0477 321.124 19.314 320.63C19.1192 320.327 18.9252 320.024 18.7304 319.721C19.0429 318.646 19.1737 317.839 17.7531 317.287C16.7704 316.904 16.2682 317.77 16.2409 317.911C15.9375 319.456 14.55 320.652 14.8468 322.37C15.1832 322.97 15.3996 323.568 14.8165 324.151C14.8553 324.923 14.2194 325.669 14.7311 326.458C14.6605 327.529 14.5898 328.6 14.5191 329.67C13.8525 330.854 13.1048 332.037 14.471 333.247C13.0217 335.18 13.6197 337.462 13.4238 339.608C12.8796 339.758 13.1255 340.203 13.0888 340.542C13.0003 340.813 12.9117 341.083 12.8232 341.354C11.7623 342.01 12.9042 342.641 12.8428 343.285C11.8769 344.676 12.3499 346.241 12.3224 347.747C11.8587 349.242 11.3785 350.736 11.9173 352.325C11.197 353.672 10.5342 354.077 9.90787 352.248C9.83451 352.035 9.45129 351.932 9.2058 351.78C9.47858 350.707 8.7429 350.49 7.99218 350.284C7.89427 349.823 8.07153 349.275 7.58408 348.939C7.32962 349.397 6.96964 349.83 6.98585 350.351C6.96964 349.83 7.3287 349.397 7.58228 348.937C6.86643 349.049 6.29988 349.323 6.13534 350.035C6.29988 349.323 6.86643 349.049 7.58048 348.935C7.2637 348.483 6.94599 348.032 6.62922 347.579C6.19407 344.618 3.24646 343.254 2.36913 340.574C1.21604 339.946 1.48773 338.415 0.581941 337.63C0.299675 337.123 0.0174022 336.617 -0.264845 336.109C-0.228633 335.828 -0.350253 335.666 -0.620272 335.614C-0.738776 335.321 -0.69594 334.917 -1.1296 334.84C-1.19913 334.699 -1.30947 334.645 -1.46064 334.678C-1.74178 334.046 -1.20462 332.991 -2.3778 332.819C-2.01367 331.397 -3.32722 330.726 -3.86128 329.79C-5.14724 327.533 -5.78397 324.823 -7.94216 323.125C-8.19385 322.535 -8.54887 322.1 -9.26146 322.192C-9.81157 321.348 -10.6404 321.557 -10.6011 322.307C-10.5602 323.072 -11.3126 323.791 -10.7028 324.53C-11.5965 325.991 -10.8271 327.077 -9.93057 328.136C-10.874 329.747 -9.03595 330.671 -9.00953 332.042C-8.74539 331.992 -8.48219 331.943 -8.21805 331.892C-8.18017 332.006 -8.14602 332.122 -8.1165 332.239C-8.08778 333.126 -8.42601 334.158 -7.2293 334.581C-7.09364 335.356 -6.75476 336.003 -6.10872 336.46C-6.1655 336.868 -6.10479 337.225 -5.69719 337.427L-5.72099 337.613L-5.67084 337.794C-5.80408 337.926 -5.9364 338.059 -6.06964 338.192C-5.97184 338.928 -5.52861 339.223 -4.83513 339.198C-5.70586 341.089 -4.07684 341.607 -3.10686 342.486C-2.22517 343.276 -2.44718 344.968 -0.9426 345.248C-0.818091 345.522 -0.692664 345.795 -0.568182 346.07C-1.30273 346.929 -1.23354 347.55 -0.0660855 347.846C0.226201 349.017 1.84986 348.946 2.04309 350.209C1.59721 350.375 1.49003 350.925 1.68438 351.093C2.98806 352.217 3.35832 354.222 5.12875 354.884C5.05071 355.527 4.57509 356.246 5.4572 356.707C5.23296 357.563 6.25786 357.49 6.49702 358.025C5.87803 358.564 5.18652 358.39 4.5575 358.498C4.09611 357.803 3.62237 357.162 2.78708 358.068C2.19165 358.121 1.63198 357.563 1.01635 357.961C0.334139 357.125 -0.193392 357.892 -0.770445 358.142C-1.70194 358.128 -2.5129 357.002 -3.5364 357.83C-3.79907 357.974 -4.06173 358.117 -4.3244 358.26C-4.33379 358.151 -4.34781 358.042 -4.36644 357.933C-5.39071 356.428 -6.77308 357.371 -8.01794 357.381C-10.492 357.169 -12.966 356.957 -15.44 356.745C-16.4708 355.978 -17.5884 356.653 -18.6589 356.548C-18.9145 356.432 -19.1692 356.317 -19.4248 356.201C-21.3093 355.76 -23.2052 355.408 -25.1501 355.447C-25.7913 354.553 -26.6983 355.449 -27.4197 355.097C-27.9743 355.178 -28.3225 354.768 -28.7372 354.516C-28.9067 354.194 -29.8526 354.203 -30.1398 354.174C-31.0638 354.077 -31.9978 354.053 -32.9269 354.054C-34.2758 354.054 -37.4346 353.851 -37.4686 355.98C-37.47 356.077 -37.4613 356.176 -37.4162 356.26C-37.3809 356.326 -37.3258 356.377 -37.2698 356.425C-37.1342 356.545 -35.9595 357.117 -35.9526 357.138C-35.7958 357.604 -35.4982 357.737 -35.0579 357.536C-34.3145 357.544 -34.1331 358.644 -33.3006 358.479C-32.6808 358.833 -32.2072 357.853 -31.5789 358.28C-31.3964 358.87 -30.9975 358.585 -30.6518 358.518C-30.0688 358.716 -29.5993 359.263 -28.9018 359.107C-28.7529 359.246 -28.6174 359.485 -28.4519 359.51C-22.9754 360.329 -17.4965 361.127 -12.0167 361.928C-10.8159 362.489 -9.62154 362.505 -8.43407 361.882C-5.65497 362.418 -2.88154 363.036 -0.0242185 362.533C0.597949 363.411 1.49567 362.712 2.23104 362.943C2.38541 362.969 2.54072 362.996 2.69509 363.022C3.42944 363.606 4.16662 362.364 4.90196 363.022C5.17419 363.059 5.44733 363.096 5.71956 363.132C5.75845 363.709 5.47027 364.071 5.06879 364.465C2.99429 366.502 0.523393 368.136 -1.03133 370.701C-2.77221 371.124 -3.14039 373.066 -4.53451 374.038C-5.70442 374.854 -6.8256 376.22 -7.85862 377.448C-10.3928 380.463 -13.3763 383.016 -16.1321 385.803C-16.7184 386.251 -17.3048 386.7 -17.8903 387.148L-17.9216 387.187C-18.6235 388.457 -20.4426 388.598 -20.8273 390.189C-22.1243 391.191 -23.6055 392.022 -24.6714 393.235C-26.0588 394.814 -27.4606 396.303 -29.2611 397.37C-30.8449 398.368 -32.0743 399.704 -32.9364 401.39C-33.2079 403.729 -32.4591 404.285 -29.0697 404.259C-29.1002 404.998 -28.9591 405.235 -28.2017 404.769C-27.1052 404.094 -26.7748 402.77 -25.7858 402.033C-25.0489 402.122 -24.8134 401.766 -24.9601 401.066C-24.6481 400.786 -24.3369 400.506 -24.0249 400.226C-22.5408 399.933 -22.1886 398.121 -20.7922 397.711C-19.8837 397.415 -18.6411 397.382 -19.3538 395.808C-19.2045 395.815 -19.1014 395.748 -19.0445 395.607C-17.6555 395.082 -16.2376 394.585 -16.2849 392.657C-15.502 392.633 -15.0622 392.18 -14.841 391.453C-13.8617 391.356 -13.3113 390.598 -12.671 389.979C-12.342 389.954 -11.7357 390.451 -11.8791 389.539C-11.6772 389.35 -11.4743 389.16 -11.2723 388.971C-10.1552 388.744 -9.5248 387.919 -8.96523 387.007C-8.69566 386.845 -8.4261 386.683 -8.15652 386.521C-6.96653 386.8 -6.89473 385.914 -6.74546 385.108C-6.7862 384.959 -6.82694 384.81 -6.86768 384.661C-6.47413 384.096 -5.00055 384.826 -5.36683 383.352C-4.94024 383.105 -4.48686 383.943 -4.1466 383.369C-4.04087 383.191 -4.35066 382.755 -4.4695 382.437C-4.09533 382.222 -3.72114 382.005 -3.34697 381.79C-4.79432 380.306 -2.57383 381.247 -2.64141 380.675C-2.08802 380.489 -1.34357 380.842 -0.997623 380.068C-1.23232 379.966 -1.467 379.864 -1.70167 379.761C-1.79052 378.726 -0.283963 379 -0.323065 378.007C0.387778 377.756 -0.0527864 377.078 0.164207 376.643C0.953001 376.102 2.31212 376.641 2.66217 375.267C2.8735 375.148 3.08389 375.031 3.29522 374.912C3.44268 374.764 3.59107 374.615 3.73852 374.467C3.5927 374.003 3.44691 373.538 3.3011 373.075L3.28849 372.945C3.29367 372.999 3.3011 373.075 3.3011 373.075C3.44691 373.538 3.5927 374.003 3.73852 374.467C5.24507 374.509 3.89453 373.493 4.22404 373.1C4.89266 372.956 5.71846 373.147 6.01826 372.218C6.63458 371.326 7.2518 370.435 7.86811 369.542C8.70449 370.065 9.67739 367.756 10.4475 369.669C10.491 369.935 10.5335 370.201 10.577 370.467C10.9535 371.279 8.76572 371.912 10.4179 372.812C10.4159 373.559 10.4128 374.307 10.4108 375.053C10.2813 376.23 10.0697 377.406 10.0528 378.584C10.0412 379.379 9.88806 380.427 11.1538 380.547C11.0017 380.853 10.8495 381.159 10.6965 381.465C9.90048 381.922 9.92943 382.722 9.91959 383.485C9.89891 385.208 9.90683 386.931 9.90274 388.654C9.52484 388.871 9.72118 389.228 9.70014 389.531C9.68908 390.228 8.19814 390.422 9.08125 391.424C9.2795 392.476 9.68881 393.498 9.51212 394.604C9.20748 394.999 8.58608 395.679 8.64352 395.747C9.93023 397.235 8.24328 398.61 8.53156 400.027C7.6908 400.62 8.69871 401.262 8.484 401.871C8.1144 403.795 7.74849 405.72 7.73113 407.691C5.82539 408.683 7.01262 410.397 6.81163 411.788C6.83302 412.712 6.85444 413.634 6.87584 414.558C6.81979 415.324 6.32148 416.259 7.27629 416.728C8.3095 417.238 8.76941 416.21 9.37873 415.651L9.36975 415.602L11.3399 415.354C12.1196 415.039 12.1196 415.039 11.797 413.747C11.7689 412.679 11.7683 411.616 12.1625 410.598C12.3517 410.169 13.5195 410.137 12.6734 409.288L12.6619 409.267C12.4494 408.619 11.9352 407.937 13.0787 407.57C13.3186 407.493 13.0813 407.072 12.7444 407C12.7268 404.833 14.0146 402.863 13.6669 400.646C14.3536 399.782 13.8717 398.822 13.8835 397.902C13.1316 397.046 15.8002 396.369 14.0089 395.459C14.0409 394.774 14.0729 394.089 14.1049 393.403C14.2156 393.48 14.3263 393.48 14.4371 393.401C15.4634 392.452 14.5922 391.221 14.9006 390.166C14.9345 390.021 14.9683 389.878 15.0022 389.734C15.378 389.294 15.5724 388.842 15.0812 388.35C15.0339 388.052 14.9875 387.753 14.9401 387.455C15.0917 386.746 14.9577 386.018 15.4786 385.337C16.2775 384.294 15.3367 384.319 14.6778 384.247C15.4965 383.342 15.7826 382.293 15.4984 381.091C15.813 379.735 15.8205 378.371 15.6077 377C16.267 376.004 15.9475 375.397 14.8819 375.085C14.8407 374.452 16.5156 374.981 15.6998 373.823C15.7403 373.209 15.9001 372.733 16.6631 372.967C16.8872 373.397 16.4397 374.019 17.0373 374.343C17.5617 374.675 15.8445 375.811 17.5136 375.73C17.7868 375.88 18.0591 376.03 18.3323 376.18C18.657 377.15 18.2751 378.468 19.6258 378.934C18.8153 380.813 20.7981 380.771 21.4227 381.663C21.6348 382.212 21.0719 382.952 21.8232 383.368C22.4528 383.43 23.0509 383.574 23.505 384.073C23.5819 384.795 23.8906 385.39 24.4406 385.852C24.7681 386.901 25.0956 387.951 25.4221 389.001C25.5582 390.222 26.4969 390.788 27.3292 391.442C27.9311 391.856 27.6442 393.327 29.1144 392.801C29.8421 392.542 29.8569 393.51 29.9521 394.086C29.3322 394.584 29.2582 395.252 30.116 395.224C31.2166 395.188 31.0436 395.867 31.1676 396.472C31.0889 397.529 31.3434 398.315 32.5886 398.289C33.1466 398.878 31.7917 399.792 32.912 400.286C33.2088 400.8 33.6572 401.073 34.2302 401.147C34.4747 401.691 33.5822 402.479 34.5633 402.852C34.8678 402.967 35.1167 402.857 35.0722 402.442C35.1124 402.379 35.1419 402.304 35.1965 402.258C35.2389 402.221 35.3118 402.221 35.3703 402.204C35.4734 403.807 37.9174 404.502 36.967 406.526C36.8591 406.754 37.1521 406.734 37.2514 406.826C38.7267 408.182 39.4734 410.186 41.1256 411.396C40.45 413.077 41.2278 414.743 42.9392 415.674C44.2891 416.409 44.6111 415.787 44.6723 414.572C44.8109 414.56 44.9481 414.534 45.0828 414.495C47.254 414.249 46.9712 412.796 46.5908 411.296C46.8709 408.985 44.7352 408.047 43.9089 406.364C43.2949 404.444 41.4613 403.257 40.9774 401.259C41.0476 400.557 40.6247 400.182 40.0978 399.878C39.2956 398.15 37.9164 396.825 37.0182 395.102C36.3175 393.76 35.7875 392.075 34.5347 391.022C32.1684 389.036 30.6762 386.257 29.2004 383.719C26.7513 379.509 23.6587 375.71 21.6084 371.258C20.6081 370.103 20.5723 368.27 19.0625 367.472C18.7373 366.873 18.412 366.273 18.0876 365.674C18.2741 363.652 19.3768 365.431 19.9932 365.193C20.2873 365.202 20.5814 365.212 20.8764 365.222C23.2531 365.298 25.6307 365.375 28.0074 365.45C28.7728 366.318 29.8021 365.672 30.6743 365.932C34.2876 366.033 37.9385 365.837 41.5022 366.314C45.4551 366.843 49.4002 366.685 53.3448 366.9C54.1267 367.077 54.882 367.051 55.5794 366.59C58.3682 367.883 61.2748 367.283 64.1298 367.034C66.099 366.865 66.8252 364.336 65.496 362.695ZM58.6873 326.536C58.6873 326.537 58.6873 326.537 58.6873 326.536V326.536ZM50.0825 334.586C50.2052 334.741 50.2259 334.843 50.1928 334.915C50.2259 334.843 50.2043 334.74 50.0825 334.586ZM42.8411 337.217C42.573 337.666 42.4611 338.258 42.4559 338.944C42.462 338.257 42.573 337.666 42.8411 337.217ZM31.0801 348.093C31.0798 348.144 31.0786 348.195 31.0786 348.195L31.0801 348.093ZM22.4962 355.307C22.3401 355.312 22.1831 355.317 22.0271 355.323C22.1831 355.317 22.3392 355.313 22.4962 355.307ZM-2.54394 338.33C-2.39177 338.333 -2.23868 338.336 -2.08559 338.338C-2.23778 338.337 -2.39085 338.333 -2.54394 338.33ZM5.92797 354.021C5.524 353.395 5.12002 352.768 4.71695 352.143C5.12092 352.769 5.52305 353.396 5.92797 354.021ZM-27.6949 356.854C-27.5424 356.647 -27.5749 356.267 -27.9538 355.906C-27.5739 356.267 -27.5414 356.646 -27.6949 356.854ZM-22.6099 397.952C-22.3389 397.766 -22.2507 397.512 -22.212 397.243C-22.2507 397.512 -22.3379 397.765 -22.6099 397.952ZM-20.9304 396.965C-20.9129 396.695 -20.8945 396.425 -20.877 396.156C-20.8954 396.425 -20.9119 396.695 -20.9304 396.965ZM-17.1799 391.687C-17.5805 391.54 -17.9849 391.398 -18.625 391.74C-18.6347 391.758 -18.6444 391.777 -18.654 391.793C-18.6443 391.776 -18.6375 391.759 -18.6288 391.742C-18.6278 391.741 -18.6269 391.741 -18.625 391.74C-18.6057 391.704 -18.5873 391.667 -18.5707 391.627C-18.5521 391.583 -18.4091 391.388 -18.4538 391.291C-18.4386 391.272 -18.4243 391.252 -18.4091 391.235C-17.9994 391.386 -17.5896 391.537 -17.1799 391.687ZM-11.2293 386.384C-11.5416 386.83 -11.8539 387.275 -12.1652 387.721C-11.8529 387.275 -11.5406 386.829 -11.2293 386.384ZM8.53301 359.508C8.55297 359.367 8.57662 359.226 8.60393 359.086C8.57754 359.226 8.55392 359.366 8.53301 359.508ZM9.27805 365.461C9.42892 365.17 9.57945 364.969 9.76671 364.893C9.58035 364.97 9.42981 365.171 9.27805 365.461ZM8.92356 400.032C8.9245 400.031 8.92448 400.032 8.92356 400.032V400.032ZM12.5044 395.177C12.6871 394.942 12.8371 394.688 12.9426 394.402C12.8371 394.688 12.6862 394.943 12.5044 395.177ZM32.618 396.936C32.9297 397.097 33.2423 397.259 33.554 397.421C33.9469 397.58 33.9818 397.937 34.0185 398.293C34.3751 398.468 34.74 398.06 35.0574 398.059C34.74 398.061 34.3751 398.468 34.0176 398.294C33.9818 397.937 33.9469 397.58 33.553 397.422C33.2422 397.26 32.9306 397.098 32.618 396.936ZM30.4661 394.156C31.1092 394.156 31.2875 394.807 31.7235 395.095C31.2866 394.806 31.1101 394.156 30.4661 394.156ZM26.6137 386.81C26.8166 386.773 27.0396 386.629 27.2552 386.523C27.0396 386.629 26.8156 386.774 26.6137 386.81ZM21.8929 381.058C22.0145 381.374 22.7025 381.388 23.012 381.604C22.7016 381.387 22.0136 381.374 21.8929 381.058ZM17.8714 360.684C17.8705 360.684 17.8705 360.684 17.8714 360.684V360.684ZM14.7734 389.732C14.8123 389.767 14.8506 389.785 14.8893 389.785C14.8506 389.785 14.8113 389.768 14.7734 389.732ZM15.5064 332.383C15.4565 331.573 15.3844 330.763 15.3594 329.952C15.3844 330.762 15.4556 331.572 15.5064 332.383C16.0744 332.397 16.6415 332.411 17.2085 332.425C16.6406 332.411 16.0735 332.396 15.5064 332.383ZM18.2458 360.189C18.1347 359.896 18.0235 359.603 17.9115 359.311C18.0226 359.604 18.1347 359.896 18.2458 360.189ZM18.4008 357.937C18.5226 357.937 18.6442 357.945 18.7648 357.957C18.6452 357.944 18.5235 357.937 18.4008 357.937ZM24.2906 361.089C24.6042 361.093 24.9151 361.172 25.2271 361.241C24.916 361.172 24.6051 361.094 24.2906 361.089ZM25.3786 361.27C25.6935 361.336 26.0088 361.384 26.3276 361.328C26.0079 361.385 25.6935 361.336 25.3786 361.27Z" fill="#82C6DD"/>
<path d="M383.661 185.207C395.426 185.207 407.023 184.552 418.511 185.4C428.841 186.155 435.545 194.437 435.931 204.658C436.317 214.887 430.141 222.926 420.038 225.351C418.838 225.637 417.63 225.922 415.951 226.316C423.118 235.438 430.041 244.249 437.551 253.815C432.281 253.815 427.884 253.975 423.52 253.698C422.438 253.631 421.246 252.313 420.449 251.298C414.693 243.938 408.945 236.571 403.364 229.077C401.56 226.66 399.664 225.41 396.307 226.677V253.505H383.67V185.207H383.661ZM396.206 215.29C402.282 215.29 407.82 215.399 413.358 215.256C418.956 215.122 422.623 211.539 422.899 206.244C423.218 200.202 420.122 196.158 414.156 195.688C409.037 195.285 403.859 195.428 398.715 195.621C397.851 195.654 396.349 197.106 396.315 197.953C396.097 203.492 396.206 209.047 396.206 215.29Z" fill="black"/>
<path d="M213.21 253.68V185.273C213.655 185.097 214.242 184.652 214.821 184.66C224.446 184.736 234.096 184.425 243.688 185.08C259.354 186.154 269.34 194.982 272.252 210.288C274.367 221.398 273.519 232.349 266.512 241.856C260.739 249.686 252.364 253.143 242.958 253.579C233.232 254.032 223.464 253.68 213.21 253.68ZM226.091 242.847C231.436 242.847 236.337 243.14 241.187 242.779C248.538 242.226 254.89 239.54 257.836 232.114C261.217 223.605 261.209 214.928 257.878 206.394C255.998 201.586 252.415 197.885 247.355 197.013C240.449 195.813 233.375 195.611 226.091 194.957V242.855V242.847Z" fill="black"/>
<path d="M489.596 232.523H450.996C450.5 237.398 453.127 241.938 457.532 244.254C462.399 246.805 474.223 244.934 477.11 240.998C479.149 238.959 477.714 238.959 483.672 238.959C485.207 238.959 486.735 238.959 488.27 238.959C488.304 246.503 477.059 256.338 462.592 255.222C446.212 253.955 436.126 241.796 437.628 225.315C439.088 209.329 451.298 199.57 467.829 201.181C482.254 202.582 491.476 215.556 489.596 232.531V232.523ZM477.11 222.932C475.91 214.456 470.833 209.992 463.331 210.361C456.4 210.697 451.239 215.774 450.752 222.932H477.11Z" fill="black"/>
<path d="M327.135 238.95C325.734 248.474 313.188 257.663 297.01 254.709C283.399 252.225 274.185 238.807 276.333 224.391C278.708 208.481 290.934 199.233 306.979 201.214C321.244 202.976 330.08 215.521 328.503 232.489H289.525C289.499 238.564 292.428 242.793 297.689 244.908C302.59 246.872 309.798 245.898 312.358 242.088C314.38 239.084 316.721 238.774 319.742 238.933C322.1 239.059 324.475 238.958 327.135 238.958V238.95ZM315.446 222.939C315.412 215.404 310.025 210.243 302.59 210.335C295.348 210.428 289.592 215.941 289.659 222.939H315.446Z" fill="black"/>
<path d="M540.28 202.53C535.22 215.621 530.411 228.074 525.595 240.527C524.286 243.908 522.784 247.215 521.701 250.664C520.879 253.273 519.435 253.928 516.817 253.894C508.082 253.802 508.124 253.894 504.952 245.629C500.102 233.016 495.176 220.421 490.292 207.817C489.696 206.281 489.176 204.72 488.396 202.547C492.507 202.547 496.107 202.329 499.648 202.69C500.672 202.79 501.964 204.418 502.384 205.618C506.101 216.124 509.643 226.689 513.243 237.237C513.494 237.967 513.83 238.664 514.174 239.503C518.034 228.477 521.936 217.803 525.452 207.003C526.602 203.479 528.255 201.993 531.972 202.48C534.431 202.799 536.974 202.539 540.28 202.539V202.53Z" fill="black"/>
<path d="M352.969 239.272C356.737 228.498 360.706 217.538 364.356 206.47C365.355 203.441 366.739 202.149 369.97 202.484C372.689 202.761 375.466 202.543 378.965 202.543C376.7 208.358 374.677 213.502 372.689 218.655C368.577 229.295 364.398 239.91 360.446 250.609C359.514 253.118 358.264 253.941 355.604 253.915C346.843 253.823 346.86 253.932 343.713 245.784C338.703 232.803 333.66 219.829 328.642 206.856C328.155 205.597 327.711 204.33 327.064 202.56C331.05 202.56 334.558 202.249 337.965 202.719C339.232 202.895 340.784 204.691 341.288 206.076C345.333 217.169 349.159 228.347 352.977 239.281L352.969 239.272Z" fill="black"/>
<path d="M146.062 200.408C142.58 200.408 139.391 200.408 136.211 200.408C133.03 200.408 130.127 200.408 126.535 200.408V219.213C116.935 220.438 107.478 212.299 106.606 202.64C105.582 191.161 113.915 181.578 125.411 181.024C136.639 180.487 146.112 189.105 146.062 200.416V200.408Z" fill="black"/>
<path d="M182.549 242.001H163.031V260.906C152.911 262.006 143.496 253.27 142.891 242.689C142.279 231.914 151.744 222.516 163.081 222.641C174.175 222.767 183.162 231.528 182.549 241.992V242.001Z" fill="black"/>
<path d="M126.425 260.862C119.519 248.182 112.898 236.023 106 223.36H146.782C140.01 235.822 133.373 248.065 126.416 260.862H126.425Z" fill="black"/>
<path d="M142.481 181.739H183.373C176.542 194.326 169.955 206.452 162.973 219.307C156.05 206.611 149.43 194.477 142.481 181.739Z" fill="black"/>
</g>
<defs>
<clipPath id="clip0_1571_93">
<rect width="645.424" height="441.867" rx="6.20094" fill="white"/>
</clipPath>
</defs>
</svg>
