<svg width="646" height="442" viewBox="0 0 646 442" fill="none" xmlns="http://www.w3.org/2000/svg">
<g clip-path="url(#clip0_1571_93)">
<rect width="645.424" height="441.867" fill="#F1F1F1"/>
<path d="M556.016 79.9932C559.778 77.0623 559.778 77.0622 563.092 64.9343C559.499 69.3024 555.074 73.2765 556.016 79.9932Z" fill="#FC5B70"/>
<path d="M493.075 -30.9631C492.015 -31.4601 489.854 -30.5699 489.344 -28.4279C488.941 -26.7366 486.887 -25.7573 487.092 -23.7177C485.76 -20.9024 484.004 -18.2668 483.447 -15.1238C483.18 -14.9438 483.087 -14.6976 483.169 -14.3852C479.783 -8.0823 476.049 -1.94892 473.797 4.90559C473.663 6.32901 471.844 7.41706 472.964 9.08908C472.894 9.80585 470.837 9.58859 472.099 10.9302C467.373 17.6983 465.391 25.6653 462.373 33.1799C460.154 36.012 458.53 39.0679 458.752 42.8181C456.509 45.1725 455.264 47.8956 455.657 51.2212C454.99 51.6782 453.928 51.6014 453.708 52.6636C453.041 55.7091 450.377 58.0221 450.507 61.3628C449.779 63.3178 447.052 64.7723 448.998 67.3965C448.612 68.4972 446.514 69.8634 448.062 70.5653C449.959 71.4253 449.581 68.8666 450.172 67.7753C452.147 66.0944 451.379 63.8082 451.508 61.719C452.058 60.0974 455.606 60.481 454.265 57.5944C457.474 54.4793 458.401 50.3045 459.544 46.231C459.889 45.3025 460.234 44.373 460.58 43.4434C462.297 41.2298 462.917 38.5639 463.67 35.9522C467.528 34.8986 466.349 31.1016 467.489 28.6303C470.459 22.1952 474.653 16.3057 476.292 9.27051C479.174 8.14907 476.773 6.43255 476.776 4.98613C478.047 4.65028 478.846 3.9257 478.819 2.51608C480.596 1.04857 481.835 -0.638063 481.123 -3.12155C481.353 -5.23466 484.518 -6.20299 483.379 -8.85072C484.987 -9.74064 485.396 -11.0315 484.669 -12.7031C485.156 -13.5665 485.643 -14.4288 486.13 -15.2911C488.672 -15.9223 487.717 -18.3711 488.526 -19.9025C488.844 -20.4958 489.162 -21.0888 489.48 -21.6821C491.521 -23.0161 491.664 -25.3945 492.505 -27.3603C492.998 -28.5101 495.195 -29.9687 493.075 -30.9631Z" fill="#FC5B70"/>
<path d="M605.187 106.28C602.552 109.793 599.553 113.169 600.401 117.97C602.926 114.417 605.219 110.779 605.187 106.28Z" fill="#FC5B70"/>
<path d="M612 92.1572C612.31 91.493 612.951 90.1945 611.317 89.8159C610.006 89.5121 609.448 90.2835 609.17 91.3278C608.358 94.3765 607.603 97.4398 606.827 100.497C606.06 101.864 605.205 103.209 605.315 105.021C608.191 104.5 606.951 102.17 607.814 100.941C610.384 98.5815 610.629 95.0945 612 92.1572Z" fill="#FC5B70"/>
<path d="M481.583 -41.9049C480.879 -43.1115 481.144 -45.2933 479.387 -45.362C477.245 -45.445 478.128 -43.2389 477.691 -42.0272C477.183 -40.6212 476.663 -39.2196 476.147 -37.8153C475.291 -35.9294 474.436 -34.0435 473.581 -32.1572C473.633 -31.4988 473.684 -30.8404 473.736 -30.182C470.659 -26.423 470.269 -21.4445 467.908 -17.3605C465.019 -16.3891 468.153 -13.4606 466.223 -12.1779C463.477 -8.16195 461.044 -4.04182 461.791 1.13761C461.793 1.13738 461.796 1.13716 461.798 1.13693C461.811 1.13934 461.891 1.17414 461.891 1.17414C457.976 2.39989 459.156 6.86107 456.853 9.1123C456.286 11.681 452.611 13.2223 454.318 16.5128C456.563 15.4018 456.901 12.0773 459.962 11.8888C460.595 11.8504 461.246 11.0374 460.611 10.4404C460.138 9.99642 459.203 10.0455 458.473 9.87506C459.198 7.48071 463.078 7.06044 462.315 3.73527C463.791 3.39217 463.857 2.13248 464.101 0.988825C463.849 -1.09007 468.17 -2.0359 465.513 -4.71032C466.968 -5.51157 468.43 -6.31036 467.743 -8.40458C467.99 -9.02547 468.236 -9.64678 468.483 -10.2677C469.861 -11.9037 469.208 -14.9886 472.198 -15.4767C471.962 -16.0358 471.726 -16.595 471.489 -17.1546C472.346 -17.6468 473.687 -17.7794 473.106 -19.337C473.924 -22.297 476.256 -24.8596 475.44 -28.2469C475.583 -28.5648 475.726 -28.8826 475.869 -29.2009C476.469 -30.7821 477.071 -32.3628 477.672 -33.944C479.049 -35.1934 479.055 -37.027 479.659 -38.6059C481.272 -39.1283 483.015 -39.4522 481.583 -41.9049Z" fill="#FC5B70"/>
<path d="M508.251 31.4296C509.08 30.5687 509.304 29.5468 509.062 28.3992C509.578 27.1209 511.261 26.0407 509.935 24.445C509.426 23.8314 508.716 24.3832 508.15 24.744C506.333 25.902 507.706 27.0343 508.169 28.1747C507.151 29.1926 502.548 27.5215 505.602 31.5958C502.833 33.4371 505.278 37.2081 502.801 39.1585C501.692 40.9322 500.558 42.7036 502.418 45.0513C502.463 42.616 504.245 41.088 504.894 39.0084C505.637 36.3143 508.337 34.49 508.251 31.4296Z" fill="#FC5B70"/>
<path d="M595.463 130.933C595.224 130.227 594.424 130.399 593.747 130.72C590.45 132.278 593.214 134.93 592.587 136.962C592.537 137.123 592.503 137.289 592.461 137.453C590.398 137.626 589.326 141.252 590.471 144.33C591.903 142.314 593.591 140.461 593.177 137.731C594.794 135.748 596.406 133.721 595.463 130.933Z" fill="#FC5B70"/>
<path d="M598.48 121.416C596.836 121.839 595.934 122.996 595.407 124.523C596.108 124.312 596.807 124.102 597.507 123.892C597.143 125.627 596.781 127.363 596.417 129.099C598.281 126.973 599.411 124.62 600.102 122.144C600.734 119.881 599.548 120.514 598.48 121.416Z" fill="#FC5B70"/>
<path d="M616.27 78.247C615.033 81.6477 613.649 84.9684 612.112 88.4013C614.94 85.7533 616.278 82.2835 616.27 78.247Z" fill="#FC5B70"/>
<path d="M499.687 47.8956C496.563 47.2973 497.248 51.802 495.919 53.9381C495.031 55.2955 494.558 56.679 495.523 58.4678C497.278 57.5781 497.526 56.1107 497.864 54.7014C498.417 52.263 501.238 48.192 499.687 47.8956Z" fill="#FC5B70"/>
<path d="M586.331 153.828C589.523 151.537 588.987 148.182 589.547 145.306C587.856 147.763 586.065 150.191 586.331 153.828Z" fill="#FC5B70"/>
<path d="M447.881 71.5357C444.676 73.8284 445.221 77.2712 443.374 79.3433C442.736 80.9599 441.486 82.5547 443.389 84.4729C444.336 83.0411 445.249 81.7491 444.622 79.9453C446.448 77.7146 447.853 75.3303 447.881 71.5357Z" fill="#FC5B70"/>
<path d="M611.887 28.2147L611.892 28.2123L611.894 28.203L611.889 28.2066L611.887 28.2147Z" fill="#FC5B70"/>
<path d="M608.94 35.7814C612.181 34.1388 611.088 30.8065 611.89 28.2126C608.074 29.6309 609.298 33.0146 608.94 35.7814Z" fill="#FC5B70"/>
<path d="M572.156 39.3359C574.165 37.5067 575.502 35.6459 576.009 33.2661C576.221 32.2758 575.789 31.6001 574.843 31.4389C574.503 31.3814 574.074 31.8428 573.685 32.0675C575.375 34.861 571.52 36.3285 572.156 39.3359Z" fill="#FC5B70"/>
<path d="M422.48 93.6028C423.963 90.5999 424.111 89.6931 423.742 87.8113C423.105 89.8614 421.941 91.5249 422.48 93.6028Z" fill="#FC5B70"/>
<path d="M451.455 23.7963C451.305 23.5704 449.773 23.9268 449.58 24.8819C449.375 25.9026 449.212 27.1617 450.17 27.8122C450.47 28.0151 451.505 27.1327 452.339 26.6726C452.048 25.5833 451.958 24.5532 451.455 23.7963Z" fill="#FC5B70"/>
<path d="M615.739 21.0613C612.605 23.322 612.35 25.8087 611.895 28.2026C614.442 26.7544 614.356 24.1128 615.739 21.0613Z" fill="#FC5B70"/>
<path d="M490.671 63.3125C490.891 65.0221 491.72 65.7846 492.844 66.098C492.985 66.1369 493.959 64.6239 493.768 64.1317C493.26 62.8208 491.888 63.4644 490.671 63.3125Z" fill="#FC5B70"/>
<path d="M439.867 44.8838C440.914 47.8634 438.36 48.9801 439.847 51.3343C440.8 49.4378 442.267 48.1181 439.867 44.8838Z" fill="#FC5B70"/>
<path d="M511.687 19.5144C514.651 19.2018 514.718 17.2743 515.368 15.8287C514.744 15.51 514.12 15.1927 513.496 14.8754C512.937 16.309 512.378 17.7427 511.687 19.5144Z" fill="#FC5B70"/>
<path d="M519.517 2.09687C519.517 2.08249 519.518 2.06808 519.52 2.05411C519.519 2.05116 519.518 2.0497 519.518 2.04611C519.48 2.07266 519.447 2.10128 519.407 2.12743C519.443 2.1159 519.48 2.10692 519.517 2.09687Z" fill="#FC5B70"/>
<path d="M517.786 6.83626C514.542 6.99988 517.472 9.55833 516.347 10.5444C515.397 11.9881 514.447 13.4319 513.497 14.8746C514.121 15.1919 514.744 15.5102 515.369 15.8279C516.553 13.28 518.729 11.1735 518.809 8.13225C519.549 6.51796 520.418 4.94769 520.992 3.27607C521.533 1.69942 520.518 1.81218 519.514 2.09658C519.383 3.83805 519.356 5.6162 517.786 6.83626Z" fill="#FC5B70"/>
<path d="M446.31 34.7854C445.468 34.2932 444.747 34.5413 444.312 35.4563C444.082 36.1812 444.268 36.8786 445.015 36.9804C445.833 37.0919 446.714 36.7792 446.953 35.8468C447.027 35.5566 446.637 34.9761 446.31 34.7854Z" fill="#FC5B70"/>
<path d="M530.937 -21.944C527.549 -21.6147 529.477 -18.7513 528.667 -17.1935C524.617 -15.908 527.148 -11.387 524.779 -9.27586C522.906 -8.38595 523.7 -6.52191 523.257 -5.10862C520.911 -3.29771 518.65 -1.44175 519.515 2.04567C522.285 0.138271 524.171 -2.39552 524.952 -5.71207C527.527 -8.69926 528.215 -12.5206 529.527 -16.0658C530.366 -17.872 531.205 -19.6782 532.044 -21.4844C532.696 -23.156 533.349 -24.8288 534 -26.5005C532.17 -25.4108 530.859 -24.0847 530.937 -21.944Z" fill="#FC5B70"/>
<path d="M608.937 35.7938L608.941 35.7919L608.942 35.7812L608.935 35.7848L608.937 35.7938Z" fill="#FC5B70"/>
<path d="M606.999 39.5664C609.012 38.8296 609.191 37.4117 608.936 35.7926C607.156 36.4699 606.752 37.7856 606.999 39.5664Z" fill="#FC5B70"/>
<path d="M490.937 68.6973C489.553 68.8653 488.632 69.3214 488.648 70.7574C487.5 72.0376 485.263 73.5587 487.124 75.0852C488.412 76.1406 489.151 73.587 489.983 72.4806C491.728 71.541 490.015 69.8719 490.937 68.6973Z" fill="#FC5B70"/>
<path d="M484.276 81.0329C481.124 82.0316 481.882 85.214 480.751 87.3421C479.764 89.7012 477.739 91.8979 479.696 95.5843C480.736 92.9151 481.496 90.9675 482.255 89.0198C483.121 86.809 483.986 84.5993 484.853 82.3889C485.48 80.6296 486.913 79.0952 486.577 76.8961C484.335 77.6662 485.014 79.7139 484.276 81.0329Z" fill="#FC5B70"/>
<path d="M588.375 85.6429C588.37 85.6567 588.367 85.6727 588.362 85.6878C588.376 85.6835 588.384 85.6782 588.398 85.6739L588.375 85.6429Z" fill="#FC5B70"/>
<path d="M586.458 89.8553C588.896 89.1326 587.903 87.096 588.365 85.6866C586.192 86.3473 586.17 87.9518 586.458 89.8553Z" fill="#FC5B70"/>
<path d="M624.48 57.365C621.175 58.4763 623.707 60.8169 623.573 62.6323C623.987 61.5716 624.4 60.5109 624.814 59.4501C625.927 59.275 626.544 58.5921 626.216 57.5251C625.875 56.41 625.128 56.7474 624.48 57.365Z" fill="#FC5B70"/>
<path d="M565.933 54.2099C565.671 54.7423 565.389 55.5172 566.274 55.7759C566.604 55.8719 567.068 55.5068 567.362 55.3944C567.625 54.5664 567.721 53.8756 566.951 53.6165C566.693 53.5295 566.085 53.9014 565.933 54.2099Z" fill="#FC5B70"/>
<path d="M431.959 68.9783C431.363 68.4716 430.528 68.7963 430.317 69.3692C430.12 69.9042 430.472 70.6396 430.582 71.287C431.108 71.0406 431.635 70.7935 432.25 70.5053C433.084 69.906 432.374 69.3291 431.959 68.9783Z" fill="#FC5B70"/>
<path d="M588.377 85.6415L588.399 85.6719C588.414 85.6527 588.425 85.6325 588.439 85.6126C588.416 85.6218 588.399 85.6324 588.377 85.6415Z" fill="#FC5B70"/>
<path d="M589.707 81.8646C588.113 82.9772 589.201 84.5735 588.441 85.6133C590.257 84.9006 590.439 83.6825 589.707 81.8646Z" fill="#FC5B70"/>
<path d="M547.865 101.691C547.282 101.367 546.531 101.368 546.442 102.251C546.409 102.582 546.924 102.967 547.282 103.456C547.74 103.202 548.345 103.057 548.413 102.778C548.489 102.465 548.177 101.865 547.865 101.691Z" fill="#FC5B70"/>
<path d="M432.842 65.5687C433.684 65.8135 433.738 64.985 434.085 64.33C434.019 64.0593 433.927 63.6764 433.834 63.293C433.366 63.6651 432.79 63.9674 432.475 64.4413C432.33 64.6602 432.611 65.5016 432.842 65.5687Z" fill="#FC5B70"/>
<path d="M577.719 28.5944C577.681 28.1196 577.648 27.6977 577.615 27.2757C577.074 27.4992 576.358 27.5865 576.047 27.9873C575.788 28.3208 576.006 29.0233 576.014 29.5628C576.55 29.2586 577.085 28.9539 577.719 28.5944Z" fill="#FC5B70"/>
<path d="M620.032 68.5555C619.092 68.3623 618.424 68.8422 618.283 69.758C618.221 70.1633 618.576 70.6343 618.741 71.075C619.368 70.6182 619.997 70.1617 620.453 69.8298C620.875 69.0226 620.526 68.6572 620.032 68.5555Z" fill="#FC5B70"/>
<path d="M438.185 52.2518C437.704 52.915 437.267 53.2568 437.231 53.637C437.193 54.036 437.426 54.6208 437.742 54.8557C438.182 55.1828 438.768 54.8978 438.763 54.3463C438.76 53.7515 438.453 53.1598 438.185 52.2518Z" fill="#FC5B70"/>
<path d="M547.411 -24.2123C549.62 -25.2637 549.542 -27.1749 549.273 -29.1583C549.295 -29.4604 549.281 -29.7618 549.232 -30.0614C550.363 -31.8895 551.769 -33.6834 550.45 -35.9757C550.287 -36.2578 549.353 -36.48 549.181 -36.3128C547.41 -34.5955 547.225 -32.5682 548.254 -30.381C547.499 -29.5565 546.001 -28.9915 547.235 -27.4712C546.394 -26.7824 544.446 -26.8732 545.425 -24.9018C545.372 -24.578 545.318 -24.2542 545.265 -23.9304C544.502 -20.4779 541.05 -18.4687 540.441 -14.9344C540.121 -13.9685 539.801 -13.0033 539.48 -12.0375C539.14 -11.4334 538.8 -10.8298 538.46 -10.2257C536.798 -7.82173 536.027 -5.18448 536.377 -2.25443C535.497 -0.0901085 533.083 1.44382 533.531 4.75933C536.677 2.94021 536.101 -0.857083 538.517 -2.53276C537.584 -4.73234 540.777 -5.23964 540.431 -7.19973C542.241 -8.67592 543.707 -10.3018 542.925 -12.9102C543.092 -13.5562 543.259 -14.2033 543.425 -14.8497C544.358 -17.0149 545.29 -19.1805 546.221 -21.3451C546.619 -22.3003 547.015 -23.2563 547.411 -24.2123Z" fill="#FC5B70"/>
<path d="M624.944 0.350595C624.528 0.358408 624.017 0.753777 623.742 1.11981C623.503 1.43788 623.536 1.96039 623.349 2.88856C624.244 2.16377 624.807 1.80216 625.244 1.32323C625.59 0.944617 625.67 0.337564 624.944 0.350595Z" fill="#FC5B70"/>
<path d="M65.496 362.695C65.3628 361.355 64.6269 362.229 64.1095 362.302C63.2436 362.127 62.3787 361.952 61.5128 361.778C60.7638 361.656 59.6448 360.562 59.6807 362.506C57.5022 361.972 55.3152 361.756 53.109 362.348C53.0625 362.207 53.0271 361.948 52.9673 361.942C49.8703 361.625 46.7751 360.918 43.6627 361.828C43.5273 361.777 43.3899 361.735 43.2496 361.7C43.075 360.624 42.612 360.541 41.9067 361.295C40.3904 362.087 38.956 360.798 37.4584 361.118C35.4514 361.44 33.5829 360.752 31.6729 360.331C31.4398 360.279 31.1402 360.54 30.8708 360.656C30.3332 360.49 29.8053 360.266 29.2548 360.173C28.1962 359.994 29.165 360.689 28.9783 360.9C28.1046 360.858 27.2319 360.817 26.3582 360.776C25.6379 359.562 24.6832 359.826 23.6885 360.334C22.5863 360.207 21.4267 360.278 20.5485 359.381C20.7551 358.646 21.6053 358.627 21.9602 358.057C22.2427 357.584 22.5262 357.109 22.8087 356.636C22.788 355.955 23.1803 355.752 23.7666 355.774C24.1988 354.745 26.0411 354.828 25.7109 353.199C25.979 353.176 26.2471 353.152 26.5152 353.128C27.3479 353.42 27.2779 352.326 27.8507 352.218C28.8778 352.828 29.4385 352.722 29.1654 351.327C28.8842 351.357 28.6039 351.387 28.3227 351.417C28.2107 351.551 28.0977 351.685 27.9857 351.818C28.0977 351.684 28.2097 351.552 28.3227 351.417C28.603 351.388 28.8851 351.357 29.1654 351.327C29.6291 350.489 30.0623 351.204 30.5072 351.353C31.1738 351.523 31.5174 351.276 31.4977 350.555C31.7259 350.15 32.2617 350.086 32.4816 349.836C33.2989 348.912 32.1858 349.356 31.9413 349.164C32.0423 348.37 33.6337 349.113 33.2601 347.83C33.5138 347.754 33.8213 347.739 33.7875 347.34C34.4448 347.515 34.6428 347.103 34.7406 346.561C35.8171 346.684 36.8119 346.678 36.8461 345.161C37.0324 345.007 37.2197 344.852 37.4061 344.698C37.326 345.273 37.3956 345.759 38.0829 345.878C38.6414 345.281 37.8654 343.929 39.2168 343.78C39.3608 343.817 39.5057 343.854 39.6497 343.891C40.7583 344.645 40.5745 343.331 41.0077 343.004C41.0831 342.196 42.4834 342.054 41.9908 340.962C42.5746 340.819 43.5423 341.675 43.6517 340.295C43.8282 340.127 44.0048 339.96 44.1813 339.791C44.7354 339.923 44.9602 339.548 45.1584 339.129C46.5008 338.896 46.9514 337.564 47.8806 336.822C48.458 336.363 49.0354 335.903 49.6128 335.445L49.6412 335.451C51.5151 335.798 52.2072 335.134 52.3944 332.81C52.68 332.788 52.9656 332.768 53.2511 332.746C54.2887 332.994 54.0703 331.781 54.6465 331.492C55.3833 331.661 55.7437 331.211 56.0152 330.618C56.8117 330.449 57.9114 330.685 57.7582 329.251C57.8241 329.119 57.8422 328.98 57.8143 328.835C58.2779 328.233 59.4613 328.633 59.5606 327.525C59.7558 327.23 59.9519 326.934 60.1472 326.64C61.2184 326.057 61.3752 324.157 63.7935 324.966C62.7414 324.126 62.3457 323.81 61.95 323.494C61.7758 322.87 62.3682 322.091 61.5829 321.59C61.6781 320.19 60.8508 320.875 60.277 320.988C59.0529 320.628 58.4342 321.156 58.3023 322.397C56.734 322.16 56.4434 323.823 55.4572 324.48C53.0058 326.109 50.7794 328.094 48.4623 329.936C47.3026 330.557 45.9207 330.858 45.2809 332.231C43.4933 332.372 42.9281 334.604 41.1484 334.757C39.9502 334.711 39.4859 335.457 39.3184 336.525C38.8331 336.561 38.3702 336.627 38.3976 337.3C37.8049 337.781 36.5976 337.533 36.6815 338.814C35.7615 338.743 35.7395 339.825 35.0619 340.112C32.8904 341.029 31.2508 342.742 29.4107 344.156C28.3214 344.178 27.8555 344.759 27.9606 345.85C27.2679 346.076 26.4109 346.11 25.9112 346.56C23.2959 348.914 20.3492 350.807 17.6206 352.999C17.2066 352.601 16.7926 352.201 16.3786 351.803C16.6234 351.13 17.7424 350.631 16.7797 349.717C17.3595 348.226 17.7024 346.727 16.9391 345.189C17.6417 345.011 18.132 344.685 17.839 343.816C18.0621 341.727 18.2862 339.637 18.5094 337.549C19.0317 337.038 19.1615 336.546 18.4405 336.098C18.1214 334.387 19.4501 332.83 18.8934 331.098C19.6642 330.424 18.6178 329.655 18.7638 329.409C20.2016 326.992 18.636 324.425 19.25 322.003C19.4277 321.553 20.0477 321.124 19.314 320.63C19.1192 320.327 18.9252 320.024 18.7304 319.721C19.0429 318.646 19.1737 317.839 17.7531 317.287C16.7704 316.904 16.2682 317.77 16.2409 317.911C15.9375 319.456 14.55 320.652 14.8468 322.37C15.1832 322.97 15.3996 323.568 14.8165 324.151C14.8553 324.923 14.2194 325.669 14.7311 326.458C14.6605 327.529 14.5898 328.6 14.5191 329.67C13.8525 330.854 13.1048 332.037 14.471 333.247C13.0217 335.18 13.6197 337.462 13.4238 339.608C12.8796 339.758 13.1255 340.203 13.0888 340.542C13.0003 340.813 12.9117 341.083 12.8232 341.354C11.7623 342.01 12.9042 342.641 12.8428 343.285C11.8769 344.676 12.3499 346.241 12.3224 347.747C11.8587 349.242 11.3785 350.736 11.9173 352.325C11.197 353.672 10.5342 354.077 9.90787 352.248C9.83451 352.035 9.45129 351.932 9.2058 351.78C9.47858 350.707 8.7429 350.49 7.99218 350.284C7.89427 349.823 8.07153 349.275 7.58408 348.939C7.32962 349.397 6.96964 349.83 6.98585 350.351C6.96964 349.83 7.3287 349.397 7.58228 348.937C6.86643 349.049 6.29988 349.323 6.13534 350.035C6.29988 349.323 6.86643 349.049 7.58048 348.935C7.2637 348.483 6.94599 348.032 6.62922 347.579C6.19407 344.618 3.24646 343.254 2.36913 340.574C1.21604 339.946 1.48773 338.415 0.581941 337.63C0.299675 337.123 0.0174022 336.617 -0.264845 336.109C-0.228633 335.828 -0.350253 335.666 -0.620272 335.614C-0.738776 335.321 -0.69594 334.917 -1.1296 334.84C-1.19913 334.699 -1.30947 334.645 -1.46064 334.678C-1.74178 334.046 -1.20462 332.991 -2.3778 332.819C-2.01367 331.397 -3.32722 330.726 -3.86128 329.79C-5.14724 327.533 -5.78397 324.823 -7.94216 323.125C-8.19385 322.535 -8.54887 322.1 -9.26146 322.192C-9.81157 321.348 -10.6404 321.557 -10.6011 322.307C-10.5602 323.072 -11.3126 323.791 -10.7028 324.53C-11.5965 325.991 -10.8271 327.077 -9.93057 328.136C-10.874 329.747 -9.03595 330.671 -9.00953 332.042C-8.74539 331.992 -8.48219 331.943 -8.21805 331.892C-8.18017 332.006 -8.14602 332.122 -8.1165 332.239C-8.08778 333.126 -8.42601 334.158 -7.2293 334.581C-7.09364 335.356 -6.75476 336.003 -6.10872 336.46C-6.1655 336.868 -6.10479 337.225 -5.69719 337.427L-5.72099 337.613L-5.67084 337.794C-5.80408 337.926 -5.9364 338.059 -6.06964 338.192C-5.97184 338.928 -5.52861 339.223 -4.83513 339.198C-5.70586 341.089 -4.07684 341.607 -3.10686 342.486C-2.22517 343.276 -2.44718 344.968 -0.9426 345.248C-0.818091 345.522 -0.692664 345.795 -0.568182 346.07C-1.30273 346.929 -1.23354 347.55 -0.0660855 347.846C0.226201 349.017 1.84986 348.946 2.04309 350.209C1.59721 350.375 1.49003 350.925 1.68438 351.093C2.98806 352.217 3.35832 354.222 5.12875 354.884C5.05071 355.527 4.57509 356.246 5.4572 356.707C5.23296 357.563 6.25786 357.49 6.49702 358.025C5.87803 358.564 5.18652 358.39 4.5575 358.498C4.09611 357.803 3.62237 357.162 2.78708 358.068C2.19165 358.121 1.63198 357.563 1.01635 357.961C0.334139 357.125 -0.193392 357.892 -0.770445 358.142C-1.70194 358.128 -2.5129 357.002 -3.5364 357.83C-3.79907 357.974 -4.06173 358.117 -4.3244 358.26C-4.33379 358.151 -4.34781 358.042 -4.36644 357.933C-5.39071 356.428 -6.77308 357.371 -8.01794 357.381C-10.492 357.169 -12.966 356.957 -15.44 356.745C-16.4708 355.978 -17.5884 356.653 -18.6589 356.548C-18.9145 356.432 -19.1692 356.317 -19.4248 356.201C-21.3093 355.76 -23.2052 355.408 -25.1501 355.447C-25.7913 354.553 -26.6983 355.449 -27.4197 355.097C-27.9743 355.178 -28.3225 354.768 -28.7372 354.516C-28.9067 354.194 -29.8526 354.203 -30.1398 354.174C-31.0638 354.077 -31.9978 354.053 -32.9269 354.054C-34.2758 354.054 -37.4346 353.851 -37.4686 355.98C-37.47 356.077 -37.4613 356.176 -37.4162 356.26C-37.3809 356.326 -37.3258 356.377 -37.2698 356.425C-37.1342 356.545 -35.9595 357.117 -35.9526 357.138C-35.7958 357.604 -35.4982 357.737 -35.0579 357.536C-34.3145 357.544 -34.1331 358.644 -33.3006 358.479C-32.6808 358.833 -32.2072 357.853 -31.5789 358.28C-31.3964 358.87 -30.9975 358.585 -30.6518 358.518C-30.0688 358.716 -29.5993 359.263 -28.9018 359.107C-28.7529 359.246 -28.6174 359.485 -28.4519 359.51C-22.9754 360.329 -17.4965 361.127 -12.0167 361.928C-10.8159 362.489 -9.62154 362.505 -8.43407 361.882C-5.65497 362.418 -2.88154 363.036 -0.0242185 362.533C0.597949 363.411 1.49567 362.712 2.23104 362.943C2.38541 362.969 2.54072 362.996 2.69509 363.022C3.42944 363.606 4.16662 362.364 4.90196 363.022C5.17419 363.059 5.44733 363.096 5.71956 363.132C5.75845 363.709 5.47027 364.071 5.06879 364.465C2.99429 366.502 0.523393 368.136 -1.03133 370.701C-2.77221 371.124 -3.14039 373.066 -4.53451 374.038C-5.70442 374.854 -6.8256 376.22 -7.85862 377.448C-10.3928 380.463 -13.3763 383.016 -16.1321 385.803C-16.7184 386.251 -17.3048 386.7 -17.8903 387.148L-17.9216 387.187C-18.6235 388.457 -20.4426 388.598 -20.8273 390.189C-22.1243 391.191 -23.6055 392.022 -24.6714 393.235C-26.0588 394.814 -27.4606 396.303 -29.2611 397.37C-30.8449 398.368 -32.0743 399.704 -32.9364 401.39C-33.2079 403.729 -32.4591 404.285 -29.0697 404.259C-29.1002 404.998 -28.9591 405.235 -28.2017 404.769C-27.1052 404.094 -26.7748 402.77 -25.7858 402.033C-25.0489 402.122 -24.8134 401.766 -24.9601 401.066C-24.6481 400.786 -24.3369 400.506 -24.0249 400.226C-22.5408 399.933 -22.1886 398.121 -20.7922 397.711C-19.8837 397.415 -18.6411 397.382 -19.3538 395.808C-19.2045 395.815 -19.1014 395.748 -19.0445 395.607C-17.6555 395.082 -16.2376 394.585 -16.2849 392.657C-15.502 392.633 -15.0622 392.18 -14.841 391.453C-13.8617 391.356 -13.3113 390.598 -12.671 389.979C-12.342 389.954 -11.7357 390.451 -11.8791 389.539C-11.6772 389.35 -11.4743 389.16 -11.2723 388.971C-10.1552 388.744 -9.5248 387.919 -8.96523 387.007C-8.69566 386.845 -8.4261 386.683 -8.15652 386.521C-6.96653 386.8 -6.89473 385.914 -6.74546 385.108C-6.7862 384.959 -6.82694 384.81 -6.86768 384.661C-6.47413 384.096 -5.00055 384.826 -5.36683 383.352C-4.94024 383.105 -4.48686 383.943 -4.1466 383.369C-4.04087 383.191 -4.35066 382.755 -4.4695 382.437C-4.09533 382.222 -3.72114 382.005 -3.34697 381.79C-4.79432 380.306 -2.57383 381.247 -2.64141 380.675C-2.08802 380.489 -1.34357 380.842 -0.997623 380.068C-1.23232 379.966 -1.467 379.864 -1.70167 379.761C-1.79052 378.726 -0.283963 379 -0.323065 378.007C0.387778 377.756 -0.0527864 377.078 0.164207 376.643C0.953001 376.102 2.31212 376.641 2.66217 375.267C2.8735 375.148 3.08389 375.031 3.29522 374.912C3.44268 374.764 3.59107 374.615 3.73852 374.467C3.5927 374.003 3.44691 373.538 3.3011 373.075L3.28849 372.945C3.29367 372.999 3.3011 373.075 3.3011 373.075C3.44691 373.538 3.5927 374.003 3.73852 374.467C5.24507 374.509 3.89453 373.493 4.22404 373.1C4.89266 372.956 5.71846 373.147 6.01826 372.218C6.63458 371.326 7.2518 370.435 7.86811 369.542C8.70449 370.065 9.67739 367.756 10.4475 369.669C10.491 369.935 10.5335 370.201 10.577 370.467C10.9535 371.279 8.76572 371.912 10.4179 372.812C10.4159 373.559 10.4128 374.307 10.4108 375.053C10.2813 376.23 10.0697 377.406 10.0528 378.584C10.0412 379.379 9.88806 380.427 11.1538 380.547C11.0017 380.853 10.8495 381.159 10.6965 381.465C9.90048 381.922 9.92943 382.722 9.91959 383.485C9.89891 385.208 9.90683 386.931 9.90274 388.654C9.52484 388.871 9.72118 389.228 9.70014 389.531C9.68908 390.228 8.19814 390.422 9.08125 391.424C9.2795 392.476 9.68881 393.498 9.51212 394.604C9.20748 394.999 8.58608 395.679 8.64352 395.747C9.93023 397.235 8.24328 398.61 8.53156 400.027C7.6908 400.62 8.69871 401.262 8.484 401.871C8.1144 403.795 7.74849 405.72 7.73113 407.691C5.82539 408.683 7.01262 410.397 6.81163 411.788C6.83302 412.712 6.85444 413.634 6.87584 414.558C6.81979 415.324 6.32148 416.259 7.27629 416.728C8.3095 417.238 8.76941 416.21 9.37873 415.651L9.36975 415.602L11.3399 415.354C12.1196 415.039 12.1196 415.039 11.797 413.747C11.7689 412.679 11.7683 411.616 12.1625 410.598C12.3517 410.169 13.5195 410.137 12.6734 409.288L12.6619 409.267C12.4494 408.619 11.9352 407.937 13.0787 407.57C13.3186 407.493 13.0813 407.072 12.7444 407C12.7268 404.833 14.0146 402.863 13.6669 400.646C14.3536 399.782 13.8717 398.822 13.8835 397.902C13.1316 397.046 15.8002 396.369 14.0089 395.459C14.0409 394.774 14.0729 394.089 14.1049 393.403C14.2156 393.48 14.3263 393.48 14.4371 393.401C15.4634 392.452 14.5922 391.221 14.9006 390.166C14.9345 390.021 14.9683 389.878 15.0022 389.734C15.378 389.294 15.5724 388.842 15.0812 388.35C15.0339 388.052 14.9875 387.753 14.9401 387.455C15.0917 386.746 14.9577 386.018 15.4786 385.337C16.2775 384.294 15.3367 384.319 14.6778 384.247C15.4965 383.342 15.7826 382.293 15.4984 381.091C15.813 379.735 15.8205 378.371 15.6077 377C16.267 376.004 15.9475 375.397 14.8819 375.085C14.8407 374.452 16.5156 374.981 15.6998 373.823C15.7403 373.209 15.9001 372.733 16.6631 372.967C16.8872 373.397 16.4397 374.019 17.0373 374.343C17.5617 374.675 15.8445 375.811 17.5136 375.73C17.7868 375.88 18.0591 376.03 18.3323 376.18C18.657 377.15 18.2751 378.468 19.6258 378.934C18.8153 380.813 20.7981 380.771 21.4227 381.663C21.6348 382.212 21.0719 382.952 21.8232 383.368C22.4528 383.43 23.0509 383.574 23.505 384.073C23.5819 384.795 23.8906 385.39 24.4406 385.852C24.7681 386.901 25.0956 387.951 25.4221 389.001C25.5582 390.222 26.4969 390.788 27.3292 391.442C27.9311 391.856 27.6442 393.327 29.1144 392.801C29.8421 392.542 29.8569 393.51 29.9521 394.086C29.3322 394.584 29.2582 395.252 30.116 395.224C31.2166 395.188 31.0436 395.867 31.1676 396.472C31.0889 397.529 31.3434 398.315 32.5886 398.289C33.1466 398.878 31.7917 399.792 32.912 400.286C33.2088 400.8 33.6572 401.073 34.2302 401.147C34.4747 401.691 33.5822 402.479 34.5633 402.852C34.8678 402.967 35.1167 402.857 35.0722 402.442C35.1124 402.379 35.1419 402.304 35.1965 402.258C35.2389 402.221 35.3118 402.221 35.3703 402.204C35.4734 403.807 37.9174 404.502 36.967 406.526C36.8591 406.754 37.1521 406.734 37.2514 406.826C38.7267 408.182 39.4734 410.186 41.1256 411.396C40.45 413.077 41.2278 414.743 42.9392 415.674C44.2891 416.409 44.6111 415.787 44.6723 414.572C44.8109 414.56 44.9481 414.534 45.0828 414.495C47.254 414.249 46.9712 412.796 46.5908 411.296C46.8709 408.985 44.7352 408.047 43.9089 406.364C43.2949 404.444 41.4613 403.257 40.9774 401.259C41.0476 400.557 40.6247 400.182 40.0978 399.878C39.2956 398.15 37.9164 396.825 37.0182 395.102C36.3175 393.76 35.7875 392.075 34.5347 391.022C32.1684 389.036 30.6762 386.257 29.2004 383.719C26.7513 379.509 23.6587 375.71 21.6084 371.258C20.6081 370.103 20.5723 368.27 19.0625 367.472C18.7373 366.873 18.412 366.273 18.0876 365.674C18.2741 363.652 19.3768 365.431 19.9932 365.193C20.2873 365.202 20.5814 365.212 20.8764 365.222C23.2531 365.298 25.6307 365.375 28.0074 365.45C28.7728 366.318 29.8021 365.672 30.6743 365.932C34.2876 366.033 37.9385 365.837 41.5022 366.314C45.4551 366.843 49.4002 366.685 53.3448 366.9C54.1267 367.077 54.882 367.051 55.5794 366.59C58.3682 367.883 61.2748 367.283 64.1298 367.034C66.099 366.865 66.8252 364.336 65.496 362.695ZM58.6873 326.536C58.6873 326.537 58.6873 326.537 58.6873 326.536V326.536ZM50.0825 334.586C50.2052 334.741 50.2259 334.843 50.1928 334.915C50.2259 334.843 50.2043 334.74 50.0825 334.586ZM42.8411 337.217C42.573 337.666 42.4611 338.258 42.4559 338.944C42.462 338.257 42.573 337.666 42.8411 337.217ZM31.0801 348.093C31.0798 348.144 31.0786 348.195 31.0786 348.195L31.0801 348.093ZM22.4962 355.307C22.3401 355.312 22.1831 355.317 22.0271 355.323C22.1831 355.317 22.3392 355.313 22.4962 355.307ZM-2.54394 338.33C-2.39177 338.333 -2.23868 338.336 -2.08559 338.338C-2.23778 338.337 -2.39085 338.333 -2.54394 338.33ZM5.92797 354.021C5.524 353.395 5.12002 352.768 4.71695 352.143C5.12092 352.769 5.52305 353.396 5.92797 354.021ZM-27.6949 356.854C-27.5424 356.647 -27.5749 356.267 -27.9538 355.906C-27.5739 356.267 -27.5414 356.646 -27.6949 356.854ZM-22.6099 397.952C-22.3389 397.766 -22.2507 397.512 -22.212 397.243C-22.2507 397.512 -22.3379 397.765 -22.6099 397.952ZM-20.9304 396.965C-20.9129 396.695 -20.8945 396.425 -20.877 396.156C-20.8954 396.425 -20.9119 396.695 -20.9304 396.965ZM-17.1799 391.687C-17.5805 391.54 -17.9849 391.398 -18.625 391.74C-18.6347 391.758 -18.6444 391.777 -18.654 391.793C-18.6443 391.776 -18.6375 391.759 -18.6288 391.742C-18.6278 391.741 -18.6269 391.741 -18.625 391.74C-18.6057 391.704 -18.5873 391.667 -18.5707 391.627C-18.5521 391.583 -18.4091 391.388 -18.4538 391.291C-18.4386 391.272 -18.4243 391.252 -18.4091 391.235C-17.9994 391.386 -17.5896 391.537 -17.1799 391.687ZM-11.2293 386.384C-11.5416 386.83 -11.8539 387.275 -12.1652 387.721C-11.8529 387.275 -11.5406 386.829 -11.2293 386.384ZM8.53301 359.508C8.55297 359.367 8.57662 359.226 8.60393 359.086C8.57754 359.226 8.55392 359.366 8.53301 359.508ZM9.27805 365.461C9.42892 365.17 9.57945 364.969 9.76671 364.893C9.58035 364.97 9.42981 365.171 9.27805 365.461ZM8.92356 400.032C8.9245 400.031 8.92448 400.032 8.92356 400.032V400.032ZM12.5044 395.177C12.6871 394.942 12.8371 394.688 12.9426 394.402C12.8371 394.688 12.6862 394.943 12.5044 395.177ZM32.618 396.936C32.9297 397.097 33.2423 397.259 33.554 397.421C33.9469 397.58 33.9818 397.937 34.0185 398.293C34.3751 398.468 34.74 398.06 35.0574 398.059C34.74 398.061 34.3751 398.468 34.0176 398.294C33.9818 397.937 33.9469 397.58 33.553 397.422C33.2422 397.26 32.9306 397.098 32.618 396.936ZM30.4661 394.156C31.1092 394.156 31.2875 394.807 31.7235 395.095C31.2866 394.806 31.1101 394.156 30.4661 394.156ZM26.6137 386.81C26.8166 386.773 27.0396 386.629 27.2552 386.523C27.0396 386.629 26.8156 386.774 26.6137 386.81ZM21.8929 381.058C22.0145 381.374 22.7025 381.388 23.012 381.604C22.7016 381.387 22.0136 381.374 21.8929 381.058ZM17.8714 360.684C17.8705 360.684 17.8705 360.684 17.8714 360.684V360.684ZM14.7734 389.732C14.8123 389.767 14.8506 389.785 14.8893 389.785C14.8506 389.785 14.8113 389.768 14.7734 389.732ZM15.5064 332.383C15.4565 331.573 15.3844 330.763 15.3594 329.952C15.3844 330.762 15.4556 331.572 15.5064 332.383C16.0744 332.397 16.6415 332.411 17.2085 332.425C16.6406 332.411 16.0735 332.396 15.5064 332.383ZM18.2458 360.189C18.1347 359.896 18.0235 359.603 17.9115 359.311C18.0226 359.604 18.1347 359.896 18.2458 360.189ZM18.4008 357.937C18.5226 357.937 18.6442 357.945 18.7648 357.957C18.6452 357.944 18.5235 357.937 18.4008 357.937ZM24.2906 361.089C24.6042 361.093 24.9151 361.172 25.2271 361.241C24.916 361.172 24.6051 361.094 24.2906 361.089ZM25.3786 361.27C25.6935 361.336 26.0088 361.384 26.3276 361.328C26.0079 361.385 25.6935 361.336 25.3786 361.27Z" fill="#82C6DD"/>
<g clip-path="url(#clip1_1571_93)">
<path d="M384.457 199.415C383.861 198.818 383.544 198.035 383.544 197.196C383.544 196.356 383.861 195.573 384.457 194.976L421.339 158.065C422.364 157.039 422.923 155.677 422.923 154.223C422.923 152.768 422.364 151.406 421.339 150.38C420.317 149.368 418.938 148.799 417.5 148.799C416.062 148.799 414.682 149.368 413.661 150.38L376.798 187.31C375.586 188.523 373.592 188.523 372.381 187.31L335.5 150.399C334.478 149.386 333.098 148.818 331.661 148.818C330.223 148.818 328.843 149.386 327.821 150.399C326.796 151.425 326.237 152.786 326.237 154.241C326.237 155.696 326.796 157.058 327.821 158.083L364.703 194.995C365.299 195.592 365.616 196.375 365.616 197.214C365.616 198.054 365.299 198.837 364.703 199.434L327.84 236.308C326.815 237.334 326.256 238.695 326.256 240.15C326.256 241.605 326.815 242.966 327.84 243.992C328.865 245.018 330.226 245.577 331.679 245.577C333.133 245.577 334.493 245.018 335.518 243.992L372.4 207.081C372.996 206.484 373.779 206.167 374.617 206.167C375.456 206.167 376.239 206.484 376.835 207.081L413.717 243.992C414.742 245.018 416.102 245.577 417.556 245.577C419.009 245.577 420.37 245.018 421.395 243.992C422.42 242.966 422.979 241.605 422.979 240.15C422.979 238.695 422.42 237.334 421.395 236.308L384.457 199.415Z" fill="black"/>
<mask id="mask0_1571_93" style="mask-type:luminance" maskUnits="userSpaceOnUse" x="326" y="148" width="97" height="98">
<path d="M384.457 199.415C383.861 198.818 383.544 198.035 383.544 197.196C383.544 196.356 383.861 195.573 384.457 194.976L421.339 158.065C422.364 157.039 422.923 155.677 422.923 154.223C422.923 152.768 422.364 151.406 421.339 150.38C420.317 149.368 418.938 148.799 417.5 148.799C416.062 148.799 414.682 149.368 413.661 150.38L376.798 187.31C375.586 188.523 373.592 188.523 372.381 187.31L335.5 150.399C334.478 149.386 333.098 148.818 331.661 148.818C330.223 148.818 328.843 149.386 327.821 150.399C326.796 151.425 326.237 152.786 326.237 154.241C326.237 155.696 326.796 157.058 327.821 158.083L364.703 194.995C365.299 195.592 365.616 196.375 365.616 197.214C365.616 198.054 365.299 198.837 364.703 199.434L327.84 236.308C326.815 237.334 326.256 238.695 326.256 240.15C326.256 241.605 326.815 242.966 327.84 243.992C328.865 245.018 330.226 245.577 331.679 245.577C333.133 245.577 334.493 245.018 335.518 243.992L372.4 207.081C372.996 206.484 373.779 206.167 374.617 206.167C375.456 206.167 376.239 206.484 376.835 207.081L413.717 243.992C414.742 245.018 416.102 245.577 417.556 245.577C419.009 245.577 420.37 245.018 421.395 243.992C422.42 242.966 422.979 241.605 422.979 240.15C422.979 238.695 422.42 237.334 421.395 236.308L384.457 199.415Z" fill="white"/>
</mask>
<g mask="url(#mask0_1571_93)">
<path d="M432.949 266.225H214.288C202.473 266.225 192.912 256.638 192.912 244.831V147.377C192.894 135.571 202.473 125.984 214.288 125.984H432.968C444.783 125.984 454.344 135.571 454.344 147.377V244.813C454.344 256.638 444.764 266.225 432.949 266.225Z" fill="black"/>
</g>
<path d="M225.563 246.38H243.454C255.419 246.38 268.819 239.796 276.329 235.562H230.428C228.937 235.562 227.725 234.349 227.725 232.857V160.993C227.725 159.501 228.937 158.289 230.428 158.289H302.383C303.874 158.289 305.085 159.501 305.085 160.993V210.401C309.278 205.477 315.931 192.178 315.931 186.546V156.162C315.931 151.369 312.036 147.471 307.247 147.471H225.563C220.774 147.471 216.879 151.369 216.879 156.162V237.688C216.879 242.481 220.774 246.38 225.563 246.38Z" fill="black"/>
<path d="M305.494 229.91L268.221 195.573C266.078 193.596 262.929 193.913 261.177 196.244C260.32 197.382 259.928 198.818 260.059 200.292C260.189 201.765 260.841 203.108 261.866 204.059L299.139 238.397" fill="black"/>
<path d="M269.824 211.408L307.097 245.745C309.24 247.722 312.39 247.405 314.142 245.074C314.999 243.936 315.39 242.5 315.26 241.027C315.129 239.553 314.477 238.21 313.452 237.259L276.179 202.922" fill="black"/>
<path d="M221.575 265.236C225.246 265.236 227.222 266.467 227.222 266.467C227.184 267.791 226.756 269.041 225.973 269.899C225.973 269.899 224.128 269.153 222.078 269.153C219.04 269.153 216.953 270.832 216.953 276.707C216.953 282.563 218.928 284.149 221.966 284.149C222.637 284.149 223.327 284.055 223.327 284.055V278.609H220.289C220.289 278.609 220.009 277.956 220.009 276.744C220.009 275.513 220.289 274.823 220.289 274.823H227.501V286.909C227.501 286.909 225.377 288.14 221.575 288.14C215.592 288.14 212.331 284.149 212.331 276.688C212.331 269.246 215.574 265.236 221.575 265.236ZM232.607 265.833C232.607 265.833 233.446 265.553 234.807 265.553C236.204 265.553 237.062 265.833 237.062 265.833V283.832H244.852C245.038 284.447 245.131 285.156 245.131 285.846C245.131 286.536 245.019 287.208 244.852 287.86H232.607V265.833ZM256.294 265.18C261.419 265.18 264.699 268.649 264.699 276.707C264.699 284.764 261.475 288.233 256.294 288.233C251.095 288.233 247.852 284.764 247.852 276.707C247.871 268.743 251.151 265.18 256.294 265.18ZM256.294 269.041C254.002 269.041 252.586 270.533 252.586 276.688C252.586 282.824 254.002 284.298 256.294 284.298C258.605 284.298 260.003 282.806 260.003 276.688C260.003 270.533 258.605 269.041 256.294 269.041ZM277.726 265.553C281.342 265.553 283.522 267.903 283.522 271.783C283.522 273.853 282.721 275.401 281.342 276.334C283.038 277.266 284.1 278.964 284.1 281.407C284.1 285.548 281.696 287.842 277.838 287.842H269.545V265.553H277.726ZM276.832 274.748C278.341 274.748 279.087 273.629 279.087 271.932C279.087 270.16 278.341 269.116 276.832 269.116H273.962V274.748H276.832ZM276.962 284.261C278.695 284.261 279.571 283.272 279.571 281.295C279.571 279.225 278.677 278.329 276.962 278.329H273.962V284.279H276.962V284.261ZM295.934 265.553C297.779 265.553 298.748 265.833 298.748 265.833L305.103 287.581C305.103 287.581 304.32 287.86 302.774 287.86C301.32 287.86 300.63 287.581 300.63 287.581L299.326 283.067H292.337L291.033 287.581C291.033 287.581 290.231 287.86 288.852 287.86C287.548 287.86 286.783 287.581 286.783 287.581L293.138 265.833C293.12 265.833 294.182 265.553 295.934 265.553ZM295.748 270.197C295.748 270.197 295.561 271.876 295.002 273.816L293.362 279.43H298.282L296.661 273.816C296.083 271.839 295.859 270.197 295.859 270.197H295.748ZM308.979 265.833C308.979 265.833 309.818 265.553 311.179 265.553C312.576 265.553 313.434 265.833 313.434 265.833V283.832H321.224C321.41 284.447 321.503 285.156 321.503 285.846C321.503 286.536 321.391 287.208 321.224 287.86H308.979V265.833ZM340.605 265.236C344.277 265.236 346.252 266.467 346.252 266.467C346.215 267.791 345.786 269.041 345.004 269.899C345.004 269.899 343.159 269.153 341.109 269.153C338.071 269.153 335.984 270.832 335.984 276.707C335.984 282.563 337.959 284.149 340.997 284.149C341.668 284.149 342.357 284.055 342.357 284.055V278.609H339.319C339.319 278.609 339.04 277.956 339.04 276.744C339.04 275.513 339.319 274.823 339.319 274.823H346.532V286.909C346.532 286.909 344.407 288.14 340.605 288.14C334.623 288.14 331.362 284.149 331.362 276.688C331.362 269.246 334.623 265.236 340.605 265.236ZM359.298 265.553C363.565 265.553 365.876 268.314 365.876 272.398C365.876 275.308 364.628 277.602 362.391 278.591L366.939 287.581C366.939 287.581 366.025 287.86 364.404 287.86C362.839 287.86 361.963 287.581 361.963 287.581L357.844 279.225H356.111V287.581C356.111 287.581 355.272 287.86 353.912 287.86C352.402 287.86 351.657 287.581 351.657 287.581V265.553H359.298ZM356.092 275.364H358.645C360.341 275.364 361.199 274.282 361.199 272.398C361.199 270.477 360.341 269.395 358.645 269.395H356.092V275.364ZM378.493 265.18C383.618 265.18 386.898 268.649 386.898 276.707C386.898 284.764 383.674 288.233 378.493 288.233C373.294 288.233 370.051 284.764 370.051 276.707C370.051 268.743 373.331 265.18 378.493 265.18ZM378.493 269.041C376.201 269.041 374.785 270.533 374.785 276.688C374.785 282.824 376.201 284.298 378.493 284.298C380.804 284.298 382.202 282.806 382.202 276.688C382.183 270.533 380.804 269.041 378.493 269.041ZM406.783 280.083C406.783 285.286 403.746 288.233 399.161 288.233C394.576 288.233 391.595 285.231 391.595 280.083V265.833C391.595 265.833 392.377 265.553 393.794 265.553C395.21 265.553 396.011 265.833 396.011 265.833V280.456C396.011 282.787 397.148 284.055 399.217 284.055C401.304 284.055 402.385 282.787 402.385 280.456V265.833C402.385 265.833 403.13 265.553 404.565 265.553C405.982 265.553 406.783 265.833 406.783 265.833V280.083ZM416.679 287.581C416.679 287.581 415.878 287.86 414.443 287.86C412.933 287.86 412.225 287.581 412.225 287.581V265.553H419.941C423.985 265.553 426.482 268.239 426.482 272.678C426.482 277.08 423.985 279.766 419.941 279.766H416.679V287.581ZM419.288 275.923C420.928 275.923 421.879 274.786 421.879 272.678C421.879 270.533 420.928 269.433 419.288 269.433H416.679V275.942H419.288V275.923Z" fill="#999999"/>
<path d="M216.413 127.197H423.593C431.328 127.197 437.981 131.897 440.851 138.593C439.173 129.715 431.383 123 422.028 123H217.978C208.623 123 200.833 129.715 199.155 138.574C202.025 131.878 208.66 127.197 216.413 127.197Z" fill="#333333"/>
<path d="M423.593 309.048H216.413C208.678 309.048 202.025 304.348 199.155 297.652C200.833 306.531 208.623 313.245 217.978 313.245H422.028C431.383 313.245 439.173 306.531 440.851 297.671C437.981 304.367 431.346 309.048 423.593 309.048Z" fill="#333333"/>
<path d="M210.375 340.532C210.393 340.793 210.449 341.092 210.375 341.39C210.281 341.745 210.151 342.08 209.983 342.36H203.237L202.156 347.489H207.784C207.803 347.75 207.859 348.067 207.784 348.366C207.71 348.683 207.56 349 207.411 349.298H201.783L200.646 354.614H207.598C207.616 354.894 207.635 355.192 207.579 355.509C207.505 355.845 207.374 356.143 207.206 356.461H198L201.392 340.514H210.375V340.532ZM219.152 356.311C219.152 356.311 218.761 356.461 218.015 356.461C217.27 356.461 216.935 356.311 216.935 356.311L218.63 348.347C218.891 347.116 218.407 346.407 216.99 346.407C216.021 346.407 214.959 346.93 214.176 347.825L212.369 356.33C212.369 356.33 211.94 356.479 211.232 356.479C210.449 356.479 210.151 356.33 210.151 356.33L212.555 344.99C212.555 344.99 212.928 344.841 213.71 344.841C214.419 344.841 214.773 344.99 214.773 344.99L214.549 346.016C215.537 345.102 216.655 344.617 217.978 344.617C220.196 344.617 221.37 345.904 220.83 348.422L219.152 356.311ZM233.018 344.822C233.745 344.822 233.987 344.971 233.987 344.971L231.583 356.311C231.583 356.311 231.191 356.461 230.632 356.461C230.073 356.461 229.663 356.311 229.663 356.311L229.775 355.118C228.936 356.088 227.781 356.684 226.122 356.684C223.606 356.684 222.432 354.633 223.383 350.287C224.371 345.773 226.365 344.598 228.694 344.598C230.241 344.598 231.154 345.064 231.583 346.128L231.974 344.971C231.974 344.99 232.254 344.822 233.018 344.822ZM228.955 346.426C227.39 346.426 226.253 347.359 225.507 350.66C224.799 353.775 225.302 354.894 227.073 354.894C228.62 354.894 229.943 353.588 230.26 352.059L230.875 349.205C231.173 347.713 230.483 346.426 228.955 346.426ZM239.503 346.053C240.323 345.139 241.423 344.617 243.007 344.617C245.523 344.617 246.753 346.351 245.802 350.865C244.852 355.379 242.97 356.703 240.454 356.703C238.888 356.703 238.068 355.994 237.64 355.08L237.211 356.311C237.211 356.311 236.931 356.461 236.167 356.461C235.441 356.461 235.105 356.311 235.105 356.311L238.571 340.01C238.571 340.01 238.944 339.861 239.671 339.861C240.416 339.861 240.771 340.01 240.771 340.01L239.503 346.053ZM241.814 346.426C240.267 346.426 239.131 347.713 238.832 349.224L238.217 352.059C237.901 353.588 238.478 354.894 240.025 354.894C241.796 354.894 242.876 353.961 243.585 350.66C244.293 347.359 243.585 346.426 241.814 346.426ZM249.921 356.311C249.921 356.311 249.53 356.461 248.784 356.461C248.001 356.461 247.703 356.311 247.703 356.311L251.17 340.01C251.17 340.01 251.524 339.861 252.306 339.861C253.033 339.861 253.387 340.01 253.387 340.01L249.921 356.311ZM255.736 356.311C255.736 356.311 255.344 356.461 254.599 356.461C253.816 356.461 253.518 356.311 253.518 356.311L255.922 344.971C255.922 344.971 256.295 344.822 257.077 344.822C257.804 344.822 258.14 344.971 258.14 344.971L255.736 356.311ZM258.717 342.584C258.717 342.584 258.289 342.733 257.543 342.733C256.742 342.733 256.406 342.584 256.406 342.584L256.854 340.495C256.854 340.495 257.245 340.346 258.046 340.346C258.792 340.346 259.146 340.495 259.146 340.495L258.717 342.584ZM268.259 356.311C268.259 356.311 267.868 356.461 267.122 356.461C266.377 356.461 266.041 356.311 266.041 356.311L267.737 348.347C267.998 347.116 267.514 346.407 266.097 346.407C265.128 346.407 264.066 346.93 263.283 347.825L261.476 356.33C261.476 356.33 261.047 356.479 260.339 356.479C259.556 356.479 259.258 356.33 259.258 356.33L261.662 344.99C261.662 344.99 262.035 344.841 262.817 344.841C263.526 344.841 263.88 344.99 263.88 344.99L263.656 346.016C264.644 345.102 265.762 344.617 267.085 344.617C269.303 344.617 270.477 345.904 269.936 348.422L268.259 356.311ZM278.789 355.397C277.969 356.274 276.962 356.703 275.565 356.703C273.049 356.703 271.539 354.894 272.49 350.362C273.44 345.848 275.341 344.598 277.857 344.598C279.311 344.598 280.317 345.214 280.727 346.109L281.062 344.953C281.062 344.953 281.379 344.822 282.125 344.822C282.852 344.822 283.168 344.971 283.168 344.971L280.839 355.882C279.944 360.116 278.267 362 274.428 362C272.154 362 271.129 361.198 271.129 361.198C271.278 360.62 271.632 360.042 272.08 359.706C272.08 359.706 273.105 360.191 274.521 360.191C276.608 360.191 277.801 359.575 278.64 356.013L278.789 355.397ZM276.366 354.875C277.95 354.875 279.106 353.495 279.422 352.152L280.037 349.41C280.354 347.993 279.851 346.426 278.23 346.426C276.459 346.426 275.397 347.359 274.689 350.66C273.981 353.943 274.596 354.875 276.366 354.875ZM302.01 340.532C302.01 340.532 302.103 340.924 301.991 341.483C301.861 342.062 301.6 342.472 301.6 342.472H297.481L294.537 356.311C294.537 356.311 294.127 356.461 293.381 356.461C292.58 356.461 292.282 356.311 292.282 356.311L295.226 342.472H290.996C290.996 342.472 290.902 342.099 291.033 341.502C291.145 340.943 291.406 340.532 291.406 340.532H302.01ZM307.228 344.636C308.048 344.636 308.607 344.878 309.017 345.195C308.756 345.978 308.327 346.501 307.694 347.004C307.321 346.687 306.892 346.594 306.389 346.594C305.532 346.594 304.544 347.265 303.762 348.273L302.028 356.33C302.028 356.33 301.637 356.479 300.892 356.479C300.127 356.479 299.811 356.33 299.811 356.33L302.215 344.99C302.215 344.99 302.587 344.841 303.37 344.841C304.097 344.841 304.339 344.99 304.339 344.99L304.116 346.295C305.252 344.822 306.333 344.636 307.228 344.636ZM319.043 344.822C319.77 344.822 320.013 344.971 320.013 344.971L317.608 356.311C317.608 356.311 317.217 356.461 316.658 356.461C316.099 356.461 315.689 356.311 315.689 356.311L315.801 355.118C314.962 356.088 313.807 356.684 312.148 356.684C309.632 356.684 308.458 354.633 309.408 350.287C310.396 345.773 312.39 344.598 314.72 344.598C316.267 344.598 317.18 345.064 317.608 346.128L318 344.971C318 344.99 318.279 344.822 319.043 344.822ZM314.999 346.426C313.434 346.426 312.297 347.359 311.552 350.66C310.843 353.775 311.347 354.894 313.117 354.894C314.664 354.894 315.987 353.588 316.304 352.059L316.919 349.205C317.198 347.713 316.527 346.426 314.999 346.426ZM330.076 356.311C330.076 356.311 329.685 356.461 328.939 356.461C328.194 356.461 327.858 356.311 327.858 356.311L329.554 348.347C329.815 347.116 329.331 346.407 327.914 346.407C326.945 346.407 325.883 346.93 325.1 347.825L323.293 356.33C323.293 356.33 322.864 356.479 322.156 356.479C321.392 356.479 321.075 356.33 321.075 356.33L323.479 344.99C323.479 344.99 323.852 344.841 324.634 344.841C325.343 344.841 325.697 344.99 325.697 344.99L325.473 346.016C326.479 345.102 327.579 344.617 328.902 344.617C331.12 344.617 332.294 345.904 331.753 348.422L330.076 356.311ZM339.618 344.617C341.78 344.617 342.6 345.214 342.6 345.214C342.488 345.792 342.134 346.426 341.687 346.78C341.687 346.78 340.699 346.426 339.432 346.426C337.922 346.426 337.065 346.986 336.841 348.011C336.618 349.093 337.903 349.504 339.208 349.951C340.531 350.417 341.836 351.238 341.37 353.402C340.885 355.64 339.338 356.684 336.524 356.684C334.195 356.684 332.983 355.882 332.983 355.882C333.133 355.248 333.468 354.614 333.934 354.241C333.934 354.241 335.257 354.801 336.804 354.801C338.146 354.801 339.04 354.297 339.264 353.215C339.525 352.003 338.425 351.686 337.214 351.313C335.798 350.865 334.344 349.914 334.847 347.788C335.332 345.829 336.823 344.617 339.618 344.617ZM351.415 339.879C352.906 339.879 353.763 340.346 353.763 340.346C353.614 340.961 353.316 341.446 352.85 341.894C352.85 341.894 352.216 341.651 351.191 341.651C349.924 341.651 349.439 342.229 349.197 343.405L348.88 344.841H351.638C351.638 345.083 351.638 345.382 351.545 345.699C351.508 345.978 351.396 346.258 351.284 346.501H348.526L346.42 356.33C346.42 356.33 346.029 356.479 345.283 356.479C344.501 356.479 344.203 356.33 344.203 356.33L346.308 346.501H344.855C344.855 346.258 344.855 345.978 344.929 345.661C345.004 345.326 345.116 345.064 345.209 344.841H346.663L346.942 343.516C347.408 341.353 348.619 339.879 351.415 339.879ZM358.31 344.617C361.367 344.617 362.839 346.445 361.907 350.846C360.975 355.23 358.963 356.722 355.943 356.722C352.906 356.722 351.359 354.801 352.291 350.417C353.223 345.997 355.273 344.617 358.31 344.617ZM358.049 346.333C356.428 346.333 355.198 347.247 354.471 350.641C353.744 354.055 354.583 354.95 356.204 354.95C357.826 354.95 359.037 354.036 359.764 350.641C360.472 347.247 359.652 346.333 358.049 346.333ZM371.114 344.636C371.934 344.636 372.493 344.878 372.903 345.195C372.642 345.978 372.213 346.501 371.579 347.004C371.207 346.687 370.778 346.594 370.275 346.594C369.418 346.594 368.43 347.265 367.647 348.273L365.914 356.33C365.914 356.33 365.523 356.479 364.777 356.479C363.994 356.479 363.696 356.33 363.696 356.33L366.1 344.99C366.1 344.99 366.473 344.841 367.256 344.841C367.983 344.841 368.225 344.99 368.225 344.99L368.001 346.295C369.157 344.822 370.238 344.636 371.114 344.636ZM386.824 344.617C389.042 344.617 390.011 346.184 389.545 348.328L387.849 356.33C387.849 356.33 387.458 356.479 386.712 356.479C385.929 356.479 385.631 356.33 385.631 356.33L387.327 348.366C387.588 347.135 387.178 346.426 385.818 346.426C384.904 346.426 383.917 346.911 383.134 347.844L381.326 356.349C381.326 356.349 380.935 356.498 380.227 356.498C379.463 356.498 379.146 356.349 379.146 356.349L380.842 348.384C381.103 347.153 380.693 346.445 379.332 346.445C378.419 346.445 377.431 346.967 376.649 347.844L374.841 356.367C374.841 356.367 374.449 356.516 373.741 356.516C372.959 356.516 372.66 356.367 372.66 356.367L375.064 345.027C375.064 345.027 375.437 344.878 376.22 344.878C376.928 344.878 377.264 345.027 377.264 345.027L377.059 346.016C378.009 345.139 379.034 344.636 380.32 344.636C381.606 344.636 382.705 345.102 383.059 346.258C384.215 345.139 385.296 344.617 386.824 344.617ZM401.677 344.822C402.404 344.822 402.646 344.971 402.646 344.971L400.242 356.311C400.242 356.311 399.851 356.461 399.292 356.461C398.733 356.461 398.323 356.311 398.323 356.311L398.434 355.118C397.596 356.088 396.44 356.684 394.782 356.684C392.266 356.684 391.092 354.633 392.042 350.287C393.049 345.773 395.024 344.598 397.354 344.598C398.9 344.598 399.814 345.064 400.242 346.128L400.634 344.971C400.652 344.99 400.932 344.822 401.677 344.822ZM397.633 346.426C396.068 346.426 394.931 347.359 394.185 350.66C393.477 353.775 393.98 354.894 395.751 354.894C397.298 354.894 398.621 353.588 398.938 352.059L399.553 349.205C399.851 347.713 399.161 346.426 397.633 346.426ZM407.454 352.283C407.026 354.297 407.324 354.894 408.889 354.894C409.337 354.894 410.064 354.801 410.064 354.801C410.064 354.801 410.138 355.174 410.026 355.696C409.933 356.199 409.765 356.498 409.765 356.498C409.337 356.61 408.722 356.703 408.125 356.703C405.404 356.703 404.622 355.211 405.218 352.413L406.485 346.501H404.789C404.789 346.501 404.715 346.184 404.827 345.68C404.939 345.12 405.144 344.841 405.144 344.841H406.839L407.249 342.826C407.92 342.472 408.759 342.323 409.56 342.379L409.057 344.841H411.927C411.927 344.841 412.002 345.12 411.89 345.661C411.778 346.165 411.573 346.501 411.573 346.501H408.703L407.454 352.283ZM414.48 356.311C414.48 356.311 414.089 356.461 413.344 356.461C412.561 356.461 412.263 356.311 412.263 356.311L414.667 344.971C414.667 344.971 415.039 344.822 415.822 344.822C416.549 344.822 416.884 344.971 416.884 344.971L414.48 356.311ZM417.444 342.584C417.444 342.584 417.015 342.733 416.27 342.733C415.468 342.733 415.133 342.584 415.133 342.584L415.58 340.495C415.58 340.495 415.971 340.346 416.773 340.346C417.518 340.346 417.872 340.495 417.872 340.495L417.444 342.584ZM424.786 344.617C427.843 344.617 429.315 346.445 428.383 350.846C427.451 355.23 425.439 356.722 422.42 356.722C419.382 356.722 417.835 354.801 418.767 350.417C419.699 345.997 421.767 344.617 424.786 344.617ZM424.525 346.333C422.904 346.333 421.674 347.247 420.947 350.641C420.22 354.055 421.059 354.95 422.68 354.95C424.302 354.95 425.513 354.036 426.24 350.641C426.967 347.247 426.147 346.333 424.525 346.333ZM439.174 356.311C439.174 356.311 438.782 356.461 438.037 356.461C437.291 356.461 436.956 356.311 436.956 356.311L438.652 348.347C438.913 347.116 438.428 346.407 437.012 346.407C436.043 346.407 434.98 346.93 434.198 347.825L432.39 356.33C432.39 356.33 431.961 356.479 431.253 356.479C430.47 356.479 430.172 356.33 430.172 356.33L432.576 344.99C432.576 344.99 432.949 344.841 433.732 344.841C434.44 344.841 434.794 344.99 434.794 344.99L434.57 346.016C435.558 345.102 436.676 344.617 438 344.617C440.217 344.617 441.391 345.904 440.851 348.422L439.174 356.311Z" fill="black"/>
</g>
</g>
<defs>
<clipPath id="clip0_1571_93">
<rect width="645.424" height="441.867" rx="6.20094" fill="white"/>
</clipPath>
<clipPath id="clip1_1571_93">
<rect width="243" height="239" fill="white" transform="translate(198 123)"/>
</clipPath>
</defs>
</svg>
