<svg xmlns="http://www.w3.org/2000/svg" width="159" height="113" fill="none" viewBox="0 0 159 113"><path fill="#f6f6f1" d="m151.161 101.976-144.99-1.539L7.295 11.61l144.211.222z"/><path fill="#fc6b7e" d="M8.116 77.503c.013.558-.104 1.345-.118 2.003-.06 2.757-.148 3.778-.221 6.272-.11 3.698-.108 14.678-.854 14.669l-.022-.004c-.142-.04-.286-.976-.445-1.116s-1.2-.05-1.24-1.377c-.054-1.924.271-6.533.272-7.559.001-.701-.082-1.566-.088-2.462-.017-2.892.07-4.404-.153-7.011l.445-3.12c-.045-1.36.16-3.418.16-4.244 0-.678-.101-1.076-.097-1.782.003-.792.134-2.007.135-3.447.002-2.362-.272-2.786-.29-4.203-.017-1.47.163-3.753.089-5.629l-.083-.707-.215.503c-.02-.945.127-1.349.14-2.216.017-1.021-.111-1.544-.102-2.23.008-.564.125-1.325.128-2.055.004-1.064-.155-.833-.177-1.406-.008-.229-.041-4.453-.04-4.691.017-1.812.233-1.967.27-3.412.102-4.007-.019-8.122-.037-11.83-.009-1.655.026-3.382.08-5.032.515 2.606 1.013-3.141.13-1 .145-1.835-.07-3.14-.008-4.88.04-1.126.168-1.904.185-3.511.016-1.533-.062-3.145-.042-4.434l.027-1.371 1.352.011c1.11.005 1.982.086 2.361.369 3.35-.103 6.25.123 7.458-.413.863-.032 3.076.292 4.044.337.916.043 7.945.198 9.094.208 1.15.01 3.163.022 4.131-.024 1.217-.056 2.068-.613 4.233.043 2.519-.05 3.416-.03 5.758.05.424.014.472.111.72.112.51 0 1.379-.07 2.29-.077 1.498-.012 2.352.193 2.186-.118l2.963-.152 1.04.181 1.584-.193c-.621.45 3.096.189 1.89-.071l5.743.288c-.268.512 4.203.066 3.827-.213l.658.002c1.917.139 3.679.03 6.016.125s2.118.145 2.829.381l1.65-.038c2.888-.64 2.376.476 7.32-.011 1.578.408 5.471.2 8.052.082.3-.014.306-.093.706-.117.978-.056 3.473.049 3.388-.206l2.591.225 2.119-.135-.01-.238c1.421.272 3.655.172 4.757.238.219.013.267.123.948.154.797.036 2.282.006 3.231.042l1.108-.362c1.698-.063 2.294.258 3.291.284.18.005 3.455-.013 3.631-.02 1.445-.051 1.036-.325 5.214-.26.744.012 1.345.107 2.018.112 1.188.009 4.768-.2 5.049-.397 1.441.25 5.296.154 6.431.228.343.022.42.18 1.474.215.854.029 3.053-.094 4.136-.071 1.15.024 1.56.157 2.075.168.487.009.936-.097 1.599-.096 1.671.006 3.214.121 4.607.168l.808.007-.009.796q-.019.5-.022.974c-.014 2.366.294 4.458.427 6.438-.022.491-.092.974-.095 1.49a2297 2297 0 0 1-.212 19.956c-.042 2.967-.5 10.346.224 8.379.121 1.031-.196 8.53-.206 9.956s.114 2.557.112 3.678c-.007 3.382-.109 5.764-.013 9.882.025 1.063.173 2.203.169 2.833-.006.758-.156 1.574-.169 2.557-.03 2.342.002 6.708-.032 8.955-.007.41-.137.554-.179 1.14-.167 2.285-.163 4.847.251 4.395-.245 2.928-.042 5.638-.039 8.353l-.001 1.161-.015 1.379-1.36-.024c-5.898-.051-15.353-.226-20.033-.113-3.154.076-3.075.262-7.715.053-1.03-.046-2.055-.105-3.304-.161-2.928-.13-5.612-.501-7.849-.112-3.252-.142-5.844-.093-8.254-.471l-.856.244-1.197-.006-.371-.246c-2.857-.052-6.485.241-8.904.213-4.055-.047-14.498-.287-18.342-.436-2.04-.08-2.153.092-3.317-.275l-1.371.059-.86.224c-2.619-.025-5.724-.178-8.22-.204-4.546-.045-11.375.096-15.939-.093-1.144-.047-2.574-.223-3.695-.233-1.631-.015-2.03.247-4.101.23-3.569-.03-10.211-.409-13.584-.422-1.002-.003-1.47.091-2.163.094-2.9.014-5.282-.019-8.065.104-2.984-.286-2.722-.612-3.644-.954-.699-.258-2.844-.86-3.147-1.083-.212-.157.59-.346.292-.52 3.58-.097 5.08.068 7.984.338l16.096.142 1.462.293v.001c2.059.129 2.935-.1 4.047-.143 10.644-.405 31.579.223 43.29.406 2.524.039 10.736.001 12.466.17.448.044.57.188 1.048.199l12.788-.119c8.761.315 17.823.228 26.654.288l18.83.125-1.058 1.043c-.001-17.512.011-34.907.103-52.218.024-4.542-.061-10.307.025-14.753.036-1.856.268-2.628.106-5.066l.186-.076c-.066-2.128-.202-3.488-.207-5.874-.004-2.008.007-7.323.038-9.097.015-.921.129-.578.132-1.436.001-.424-.011-.988-.027-1.624l1.034 1.04c-1.566.046-3.571.123-5.013.12-1.837-.002-4.933-.14-6.345-.123-5.086.061-10.626.25-16.046.188-1.497-.017-3.423-.17-3.892-.166-.915.007-1.188.152-1.804.17-3.125.09-7.995-.09-11.058-.102-9.981-.038-20.555.01-30.493-.033-6.278-.026-16.712-.017-22.509-.135-1.25-.026-.916-.185-1.966-.186-1.164-.002-1.794.105-2.338.113-3.765.055-12.075.15-15.63.035-.676-.022-1.167-.148-1.572-.148-.206 0-.67.084-1.313.092-5.687.068-9.834.012-15.406-.025-2.84-.02-5.8-.024-8.826-.021l1.039-1.024c-.087 8.346-.13 17.196-.297 25.423-.05 2.442-.318 4.114-.32 4.458-.004.754.156 1.238.177 2.765.07 5.078-.193 11.91-.17 16.74.01 2.385.18 5.665.196 8.013.014 1.875-.125 6.301-.043 7.133.05.507.226.743.241 1.348M6.12 14.315c.283.337.09-3.175-.082-1.86-.038.295.009 1.772.082 1.86m145.961 14.95.246-.096-.097-1.383-.151.776z"/><path fill="#fc6b7e" d="M61.873 37.223h2.04v-4.147h4.145v-2.039h-6.185z"/><path fill="#fc6b7e" d="M61.874 36.86c.164-.045.328-.063.496-.044.039.004.035.038.051.044.029.01.078-.027.085-.027.042 0 .025.06.031.062.064.024.045-.044.106-.05.08-.01.181.003.276.006.034.002.019.047.091.043.051-.002.209-.054.28.001.001.021-.008.044-.012.066.104-.087.141-.084.288-.062.023.003.045-.033.087-.02.04.014.042.069.125.068.029 0 .047-.04.091-.04h.043l-.316.316c.004-.133.043-.338.045-.432.003-.206-.063-.318-.04-.501.002-.014.044.017.045-.009 0-.026-.056-.053-.057-.06-.014-.069.061-.215.052-.253-.022-.094-.047-.002-.058-.131-.01-.123.063-.294.078-.416.016-.142-.09-.187.021-.294L63.666 34l.067.003-.046-.089.05.014a.76.76 0 0 1-.08-.427c0-.003.045.005.046.003.008-.037-.026-.078-.018-.11.02-.078.116-.21-.002-.152q.01-.08.008-.167l-.008-.213.23-.008c.136-.002.279-.017.4 0 .076.01.098.08.134.083s.018-.056.03-.058c.077-.014.202-.011.216.056l.047-.081c-.01.075.227.044.289.046.011 0 .013.033.021.032.095-.004.119-.055.2-.072.029-.006-.016.051.058.027.006-.003.003-.054.09-.054.14 0 .408-.02.575.005.014.002-.028.059.034.046.023-.005.012-.045.067-.045.213-.002.44.044.656.006-.008.045-.085.096.031.067.019-.004.005-.045.013-.046.068-.012.126.017.199.001.022-.004.027-.036.054-.044.04-.01.057.035.103.015.072-.03.083-.073.173.011.252-.002.504-.01.755-.011l-.238.237a9 9 0 0 1 .02-.76c-.024-.146-.05-.28-.06-.433-.002-.044.055-.053.036-.124-.004-.017-.066-.13.05-.147-.01-.032-.01-.052-.016-.08l-.052.062c.019-.115-.022-.209-.042-.311-.014-.075.036-.022.031-.068s-.016-.067.044-.125c-.029-.018-.037-.034-.037-.053l.264.265c-.026 0-.056-.017-.105-.018-.01 0-.061.026-.104.021-.032-.004-.04-.047-.09-.04-.008 0-.113.054-.146.059-.052.008-.135-.047-.144-.048-.146-.01-.202.044-.306-.045-.02.053-.107.084-.177.08-.088-.007-.265-.116-.289-.001-.102-.051-.09-.02-.212-.019-.11.001-.401-.043-.49-.036-.09.006-.047.07-.082.078-.058.014-.027-.033-.066-.032a2 2 0 0 0-.317.032l-.018-.1-.017.033h-.07c.18.145-.174-.011-.28-.015-.09-.003-.239.066-.337.08-.024.005-.008-.031-.013-.03-.057.01-.066.034-.144.03-.04-.001-.082-.046-.122-.047-.293-.006-.576.04-.867.044-.05.001-.092-.054-.134-.055-.06-.001-.097.043-.153.044-.056 0-.136-.053-.174-.045s.027.06-.042.046c-.032-.007.024-.045-.015-.046-.122-.004-.295.044-.426-.002l.021.032c-.139-.004-.262-.032-.405-.036-.05-.001-.14.033-.19.032-.05 0-.072-.036-.111-.037-.016-.001-.01.032-.02.031a.7.7 0 0 1-.14-.026l.229-.229c-.018.066-.039.128-.035.215.025.522.046 1.06.068 1.59 0 .022.044.036.05.068.01.048-.028.05-.03.056-.008.042.027.025.027.081 0 .124-.03.323-.028.446.006.284.04.523.056.8.002.021-.05.007-.05.042-.005.245.044.297.03.602-.014.306-.045.882-.052 1.239.094.112.07.258 0 .379-.232-.697-.129-1.364-.138-2.107-.01-.782-.178-1.616-.155-2.408.002-.075.056-.105.044-.168-.002-.01-.043.017-.047-.015-.033-.268-.014-.546.002-.82l.002-.03.027.002c.186.01.37.02.547.01.118-.008.137-.054.241-.066-.018.022-.03.045-.046.067.476.067.953.037 1.436.047.022 0 .024.045.047.047.046.003.09-.046.13-.048.052-.002.06.034.109.032.023-.002.016-.036.067-.03.004 0 .007.036.041.032.093-.013.283-.043.36-.052.098-.012.176.042.213.046.1.01.099-.046.184-.046.604 0 1.182.063 1.8.062.04 0 .183-.062.255-.06l.169.02c.077.005.143.042.185.05.082.015.174-.043.218-.049.067-.009.178-.005.23-.002l-.032-.032-.001.021c-.004.08-.076.054-.06.11.006.017.061 0 .061.06 0 .049-.042.069-.05.103-.007.034.058.096.056.117-.009.11-.051.16-.053.28-.002.1.028.562.043.6.068.172.037-.114.04-.13.013-.088.039-.075-.01-.162.153-.078-.087-.35.096-.419-.122-.072-.06-.132-.036-.208.034-.105-.037-.025-.038-.101 0-.03.055-.118.048-.163-.007-.04-.042-.06-.05-.108v-.013h-.015l-.017.001a.5.5 0 0 1-.286-.066l-.048.067-.189-.071.03.058-.055.009-.182-.087c-.17.113-.121.015-.216 0-.094-.015-.15.05-.222.051-.1 0-.144.009-.244.004-.058-.002-.155-.066-.075.034-.18.008-.426.036-.587-.004-.048-.012.016-.044.008-.047-.04-.02-.075.032-.116.025-.07-.013-.204-.052-.258-.062-.079-.013-.202.053-.215.058-.07.027-.089-.028-.111-.024-.13.022-.157.045-.198-.071-.033.05-.173.134-.207.05 0 .076-.116.063-.188.082l-.04-.066c-.148.136-.444.037-.64.021-.005 0-.014.057-.043.044-.002-.001 0-.027-.019-.03-.065-.01-.313-.075-.342-.075-.105-.003-.124.04-.188.044-.084.005-.096-.033-.176-.027-.038.002-.072.053-.131.046-.035-.005-.038-.044-.066-.048-.099-.011-.171.014-.259-.038-.023.127-.064.033-.108.024-.176-.04-.395.014-.546.003l-.251-.023-.127-.005-.005.136c-.039.373-.094.72-.108 1.097-.003.075.06.093.056.171-.002.035-.047.072-.048.13 0 .045.023.112.022.17 0 .015-.043.016-.043.04-.002.17.028.338.05.511.007.065-.05.104.05.093l-.07.072c.062.088-.003.16.013.28.002.013.07.103.021.154.035.004.066-.004.098-.003.013.051-.028.129-.032.163s.042.057.042.067c.002.04-.059.03-.06.033-.058.182-.026.163.065.273.023.027-.044.214.028.252-.03.002-.055-.009-.083-.012l-.023.17.085-.038c-.025.115.042.21.04.305-.002.054-.064.047-.05.079.002.006.044-.005.048.014.027.15-.017.215-.026.365-.004.07.072.131.022.232-.005.01-.072.108.025.17-.03.018-.047.036-.073.05.144.124.003.09-.03.257-.017.086.008.377.023.471.01.056.066.055.068.065.013.06-.041.06-.032.115.008.056.07.125.065.182-.005.044-.073.01-.049.073.005.014.063-.024.04.044a3 3 0 0 1-.08.14 1.4 1.4 0 0 1-.098-.284c-.254-1.07-.256-3.223-.224-4.365.003-.106.062-.176.067-.245s-.049-.01-.044-.073c.004-.063.043-.109.046-.167.02-.35.041-.703.053-1.05l.01-.288.268.01.137.004c.101.002.183-.042.275-.042.036 0 .038.057.063.057.276-.005.531-.06.806-.053.114.003.237.05.35.055.093.004.19-.029.273-.03.045 0 .07.043.086.047.057.011.037-.042.066-.042.08 0 .12.064.196.06.03-.002.026-.043.07-.05.054-.008.034.03.073.031.002 0-.006-.029.015-.03.133-.008.3-.03.428-.029.266.004.528.06.776.072.062.002.045-.036.065-.038.096-.008.13.037.23.021.017-.003.084-.055.148-.042.034.007.074.04.103.048.03.007.034-.041.07-.041.064 0 .045.033.138.027.037-.002.16-.048.256-.044.156.005.35.047.534.048.063 0 .144-.05.242-.05.12 0 .34.01.464.011.062 0 .067.053.074.055.048.014.029-.044.061-.042.044.003.085.046.126.05.025.001.03-.042.035-.042l.025-.002.277.01-.008.258c.012.195.008.37.013.566.01.49.028.981.041 1.473l-.01.334-.313-.01a36 36 0 0 1-1.817.013c-.091-.002-.094-.056-.175-.048s-.158.125-.224-.004l-.004.069c-.167-.037-.333 0-.495.006-.12.003-.228-.001-.339-.004-.098-.003-.09-.048-.175.011-.305-.026-.612-.03-.917-.052l.315-.315q-.012.18-.038.357c.097.098.036.193.022.33-.002.016.033-.002.03.048-.003.063-.057.095-.054.2 0 .029.06.236.03.312-.031.077-.05.188-.079.268l.069-.039.012.12-.084.017.08.07c-.144.05-.097-.002-.06.11.017.055-.008.1.007.157.005.02.047.034.053.057.013.056-.045.023-.045.058s.064.084.036.147c-.114-.065-.077.123.011.132 0 .022-.003.04 0 .066-.224-.023-.065.094-.035.14s-.03.045-.027.056c.007.031.032.008.032.03.005.146-.031.283-.034.427-.001.02.033.002.03.026s-.038.047-.035.083c0 .01.03.013.03.028-.001.312-.026.608-.03.927q0 .01.007.02l-.008.25-.235-.008c-.021.015-.044.045-.087.044-.056-.002-.14-.05-.21-.053-.018-.001-.023.043-.047.041-.083-.004-.154-.04-.24-.045-.145-.01-.297.017-.445-.01-.028-.004-.023-.04-.064-.051-.07-.018-.043.035-.057.043-.046.023-.06-.048-.105-.03-.007.003.003.045-.003.046-.095.007-.1-.092-.201-.039-.09-.057.06-.076.075-.107.038-.073-.061-.16-.12-.187-.05-.024-.05.022-.07.022-.106 0-.264.009-.344-.013-.05-.013.039-.032.014-.047s-.041.02-.066-.018-.078-.149-.068-.202m4.764-3.9c-.163.18-.594.161-.825.144-.192-.014-.358-.153-.318.048.207.002.375-.019.595-.013.023.001.159.02.206.023.027.002.028.035.064.035.008 0 .052-.044.068-.043.055.004.218.071.24.07.064-.006.04-.058.067-.068.091-.03.101.047.192.022.016-.005.07-.072.137-.064.028.004.074.039.095.037.114-.009.241-.055.345-.047.086.006.063.058.108.065.046.007.1-.053.131-.057.05-.005.11.029.125.029l.19-.01.052.001.002-.056c-.016-.228-.043-.444-.054-.673l-.07.593c.027.058.027.071.018.08l.052-.051c-.008-.009-.014-.025-.05-.033-.057-.013-.072.078-.148.068-.04-.005-.125-.069-.21-.042-.002 0-.01.048-.073.05-.141.004-.358.028-.517.018-.047-.003-.037-.053-.093-.06-.04-.004-.087.043-.15.032-.079-.013-.117-.093-.171.018-.005-.04-.002-.078-.008-.116m-2.747 1.764c-.004.01-.127.16.005.116.057-.2.028-.417.06-.628-.13.072-.079.194-.069.342 0 .007-.034-.022-.027.017.003.02.055.093.032.153m32.781 2.501v-6.186h-6.186v2.04h4.147v4.145z"/><path fill="#fc6b7e" d="M96.31 37.221a1.3 1.3 0 0 1-.044-.496c.004-.038.038-.035.044-.05.01-.03-.027-.078-.027-.085 0-.042.06-.026.062-.032.024-.063-.044-.045-.05-.106-.01-.079.003-.18.006-.276.002-.033.047-.018.043-.09-.002-.052-.054-.209.001-.281.021 0 .044.008.066.012-.087-.103-.084-.14-.062-.288.003-.023-.033-.045-.02-.086s.069-.043.068-.125c0-.03-.04-.047-.04-.092-.006-.127.043-.37.044-.474.004-.206-.063-.318-.04-.501.002-.014.045.017.045-.01.001-.025-.055-.052-.056-.059-.015-.069.06-.215.051-.254-.022-.093-.047 0-.057-.13-.01-.124.063-.294.077-.416.017-.142-.09-.188.021-.294l-.016-1.126q.034 0 .067.003l-.046-.089.05.013a.76.76 0 0 1-.08-.426c0-.003.045.005.046.002.008-.036-.026-.077-.018-.11.02-.077.116-.21-.002-.151q.01-.081.008-.167l.222.222c-.138.001-.28.017-.402 0-.075-.01-.097-.08-.133-.084-.036-.003-.018.057-.03.059-.077.013-.203.01-.216-.057l-.047.082c.009-.075-.227-.044-.289-.046-.011 0-.013-.033-.021-.033-.096.005-.119.056-.2.073-.029.006.015-.052-.058-.027-.006.002-.003.054-.09.054-.14 0-.409.02-.575-.006-.014-.002.028-.058-.035-.045-.022.005-.011.045-.066.045-.213.002-.44-.044-.656-.006.007-.045.085-.096-.031-.068-.019.005-.005.045-.013.047-.068.012-.126-.017-.2-.002-.02.005-.026.037-.053.044-.04.011-.057-.034-.103-.015-.073.03-.084.073-.173-.01-.507.005-1.01.028-1.516-.009-.146.024-.28.051-.433.06-.044.003-.053-.054-.124-.035-.017.004-.13.066-.147-.05-.032.01-.052.01-.08.016l.062.051c-.115-.018-.209.023-.311.042-.075.014-.022-.035-.068-.03-.046.004-.067.016-.125-.044-.018.028-.034.037-.053.037l.265-.265c0 .026-.017.057-.018.106 0 .009.026.06.02.104-.003.031-.046.04-.04.09.002.008.055.113.06.146.008.052-.047.134-.048.144-.01.146.044.202-.045.306.053.02.084.107.08.176-.007.089-.116.265-.001.29-.051.102-.02.09-.019.211.001.102-.036.357-.037.466l-.217-.216.025-.001c.09-.006.046-.07.082-.079.057-.014.026.033.066.033a2 2 0 0 0 .317-.032l.018.1.016-.034.07.001c-.18-.145.174.01.28.014.09.003.24-.065.338-.08.024-.004.007.032.012.031.058-.01.067-.035.144-.031.041.002.083.046.123.047.293.006.576-.039.867-.044.05 0 .092.054.133.055.06.002.098-.043.154-.043.055-.001.135.052.173.044s-.027-.06.043-.045c.031.006-.025.045.014.046.123.004.296-.044.426.002q-.009-.017-.02-.033c.138.005.261.032.405.036.05.002.14-.032.19-.032s.071.037.11.038c.017 0 .01-.032.022-.032a.7.7 0 0 1 .138.026l.221-.007.008.236c-.018.066-.038.128-.034.215.024.522.045 1.06.067 1.59.001.022.044.036.05.068.01.047-.028.05-.029.056-.008.042.027.025.027.081 0 .124-.031.323-.029.446.007.284.04.523.057.8.001.021-.05.007-.05.042-.006.245.043.297.03.602l-.012.246-.305-.305c.31.015.716.035.992.04.112-.093.258-.07.379.001-.46.153-.907.16-1.371.15l.114.114c.006-.239.015-.483.012-.735-.01-.782-.178-1.616-.155-2.408.002-.075.056-.105.045-.168-.002-.01-.043.017-.047-.015-.034-.268-.014-.546.002-.82l.028.029a5 5 0 0 0-.546-.01c-.119.008-.137.053-.242.065.019-.021.03-.044.047-.066-.477-.068-.954-.038-1.436-.047-.022 0-.025-.046-.048-.047-.045-.004-.09.046-.129.047-.052.003-.061-.033-.11-.031-.022.001-.016.036-.066.03-.005 0-.008-.037-.041-.032-.093.013-.283.043-.36.052-.098.011-.177-.043-.214-.046-.1-.01-.098.046-.183.046-.276 0-.546-.013-.818-.027l.038.037c.017-.323.035-.647.035-.983 0-.039-.062-.183-.06-.254l.02-.17c.005-.076.042-.142.05-.184.015-.082-.043-.174-.049-.219a2 2 0 0 1-.002-.229l-.032.032h.021c.08.004.054.077.11.06.017-.005 0-.06.06-.06.049 0 .069.041.103.049.034.007.096-.057.117-.056.11.01.16.052.28.054.1.002.562-.028.6-.043.172-.068-.114-.038-.13-.04-.088-.013-.075-.04-.162.01-.078-.153-.35.086-.419-.096-.072.121-.132.06-.208.036-.105-.034-.025.037-.101.037-.03 0-.118-.055-.163-.047-.04.007-.06.042-.108.05h-.013v.014l.001.017a.5.5 0 0 1-.066.286l.067.049-.072.189.06-.03.008.055-.087.182c.113.17.015.12 0 .215s.05.15.051.223c0 .099.009.144.004.243-.002.058-.066.156.034.075.008.162.03.377.006.535v.007h.007l.053.01c.047.013-.016.044-.008.048.04.019.074-.032.116-.025.069.012.204.052.258.061.078.014.201-.052.214-.057.07-.027.09.028.112.024.129-.022.157-.045.198.07.033-.05.172-.134.206-.05.001-.075.117-.063.188-.082l.04.067c.149-.137.445-.038.64-.022.006 0 .014-.056.044-.043.002 0-.001.026.019.03.065.01.313.074.342.075.105.002.123-.04.187-.044.084-.006.097.033.177.027.037-.002.072-.053.13-.046.036.004.04.044.067.047.098.012.17-.013.258.038.023-.126.065-.033.108-.023.176.039.395-.015.546-.003q.129.01.251.023l-.131-.132c-.04.373-.094.72-.109 1.097-.003.075.06.093.057.171-.002.035-.048.072-.049.13 0 .046.023.112.023.17 0 .015-.043.016-.044.039-.002.172.029.34.05.512.007.065-.05.104.05.093l-.07.072c.063.088-.003.16.013.28.002.013.071.103.022.154.035.004.065-.004.097-.003.014.051-.027.129-.032.163-.004.034.042.057.043.067 0 .04-.06.03-.06.033-.059.182-.026.163.064.273.023.027-.043.214.028.252-.029.002-.054-.009-.082-.012l-.023.17.084-.038c-.024.115.042.21.04.305-.001.054-.064.047-.05.079.003.006.045-.005.048.014q.013.072.007.125v.024h.025c.075.006.138.028.239.033.07.004.131-.072.232-.022.01.005.108.073.17-.024.018.03.036.046.05.072.124-.144.09-.003.257.03.086.018.377-.007.471-.023.056-.009.055-.066.065-.068.06-.013.06.042.115.033s.125-.071.182-.065c.043.004.01.072.073.048.014-.005-.024-.062.043-.04.011.004.12.066.142.08a1.4 1.4 0 0 1-.285.098c-.446.106-1.082.168-1.755.202l-.39-.013.013-.365a35 35 0 0 1-.023-2.61c.003-.106.063-.176.068-.245s-.05-.01-.045-.073.043-.109.046-.167c.02-.35.042-.703.054-1.05l.278.277-.137-.004c-.102-.003-.183.042-.276.042-.036 0-.037-.058-.062-.057-.276.005-.532.06-.806.053-.114-.003-.237-.051-.35-.056-.093-.004-.19.03-.273.03-.046 0-.07-.043-.086-.046-.057-.012-.037.041-.067.041-.08 0-.12-.064-.196-.059-.03.002-.026.043-.069.05-.054.007-.034-.03-.073-.032-.002 0 .005.03-.016.03-.133.008-.299.031-.427.03-.266-.005-.528-.061-.776-.072-.062-.003-.046.035-.066.037-.095.009-.13-.037-.23-.02-.016.002-.083.055-.147.042-.03-.006-.062-.031-.09-.043l-.251-.008.008-.236.005-.014c.007-.029-.041-.034-.041-.07 0-.063.033-.045.027-.137-.002-.037-.048-.161-.044-.257.005-.156.047-.35.048-.534 0-.063-.05-.144-.05-.242 0-.12.01-.34.011-.463 0-.063.053-.067.055-.075.014-.048-.044-.028-.042-.06.004-.045.047-.086.05-.126.001-.026-.042-.03-.042-.035l-.002-.026.01-.277.258.01c.195-.013.37-.01.566-.014 1.094-.025 2.198-.08 3.29-.055.092.002.095.056.176.048s.158-.126.224.003l.004-.068c.166.037.333-.001.495-.006.12-.003.227 0 .338.004.1.002.09.048.176-.012.305.027.612.03.917.052l.325.011-.01.304q-.014.18-.038.357c.097.098.036.193.021.33-.002.016.034-.002.03.048-.003.063-.057.095-.054.2 0 .029.06.236.03.312s-.049.188-.078.267q.034-.017.068-.038l.012.12-.084.017.08.069c-.143.05-.097-.001-.06.11.018.056-.007.1.007.158.005.02.048.034.053.057.013.056-.045.023-.045.058 0 .034.065.084.036.147-.113-.066-.076.122.012.131 0 .023-.003.042-.001.066-.223-.023-.065.095-.034.141.03.047-.03.045-.027.056.006.031.031.008.032.03.005.146-.032.283-.035.426 0 .021.033.003.03.027s-.037.047-.035.083c0 .01.03.012.03.027 0 .313-.026.609-.03.927 0 .03.053.052.05.107 0 .056-.049.14-.052.21-.001.018.043.023.041.047-.004.083-.04.155-.045.24-.01.146.017.298-.01.445-.004.028-.04.024-.051.064-.018.07.035.044.043.058.023.046-.048.06-.03.105.003.007.045-.003.046.003.007.095-.092.1-.039.2-.057.09-.076-.06-.107-.075-.073-.037-.16.062-.187.12-.024.05.022.05.022.07 0 .106.009.264-.013.345-.013.049-.032-.04-.047-.014-.015.024.02.04-.018.066-.038.025-.149.077-.201.067m-2.363-6.067c.162-.18.593-.162.825-.144.192.014.358.153.318-.049-.208 0-.376.02-.595.013-.023 0-.16-.02-.207-.023-.026-.001-.027-.035-.063-.034-.008 0-.052.043-.068.042-.055-.004-.218-.07-.24-.069-.064.006-.04.058-.067.067-.091.031-.101-.046-.192-.021-.016.004-.07.072-.137.063-.028-.003-.074-.038-.095-.037-.114.01-.241.056-.346.048-.085-.006-.062-.059-.108-.066-.045-.007-.1.054-.13.058-.05.005-.11-.03-.125-.029-.303.01-.572.05-.864.065l.593.07c.112-.054.056-.003.13.014.058.013.072-.079.149-.069.04.006.125.07.209.043.003-.001.01-.049.073-.05.142-.004.359-.029.518-.018.047.003.037.053.092.059.04.004.087-.042.15-.032.08.014.118.093.172-.017.005.04.002.078.008.116m2.705 1.53c-.004.012-.128.16.004.116.057-.2.029-.416.06-.627-.13.072-.078.194-.069.341 0 .008-.033-.022-.027.018.003.02.055.093.032.153m-34.78 26.968v6.185h6.185V63.8h-4.146v-4.146z"/><path fill="#fc6b7e" d="M62.235 59.654c.044.164.063.328.044.496-.004.039-.039.035-.044.05-.01.03.027.078.027.085 0 .043-.06.026-.062.032-.024.063.044.045.05.106.009.08-.003.18-.007.276-.001.034-.046.019-.043.091.003.051.055.208 0 .28-.021.001-.044-.008-.066-.012.087.104.083.141.062.288-.003.023.032.045.02.086-.014.041-.07.043-.068.125 0 .03.039.047.04.092.005.127-.043.37-.045.475-.003.206.063.318.04.5-.001.015-.044-.016-.045.01 0 .026.056.053.057.06.015.068-.06.214-.052.253.023.093.047.001.058.13.01.124-.063.294-.078.417-.016.141.09.187-.02.294l.015 1.126-.066-.004.046.09-.05-.014a.76.76 0 0 1 .08.426c-.001.004-.045-.005-.046-.002-.009.037.025.078.017.11-.019.078-.115.21.003.152q-.011.08-.008.166l-.222-.221c.137-.002.28-.017.402-.001.075.01.097.08.133.084s.018-.056.03-.059c.077-.013.202-.01.216.057l.047-.081c-.01.074.227.043.289.045.011 0 .013.033.021.033.095-.004.119-.055.2-.073.029-.006-.016.052.058.027.006-.002.003-.054.09-.053.14 0 .408-.02.575.005.014.002-.028.058.034.045.023-.004.012-.044.067-.045.213-.001.44.045.656.006-.008.046-.085.097.031.068.019-.005.005-.045.013-.046.068-.012.126.017.199.001.021-.005.027-.036.054-.044.04-.011.057.034.103.015.072-.03.083-.073.173.011.506-.005 1.01-.029 1.515.008.146-.024.281-.05.433-.06.045-.003.054.055.125.036.016-.004.13-.066.147.05.032-.01.052-.01.08-.017l-.063-.051c.116.019.21-.022.312-.042.075-.014.022.036.068.03.046-.004.067-.015.124.044.019-.028.035-.037.053-.037l-.264.265c0-.026.017-.056.018-.105 0-.01-.027-.061-.021-.105.004-.03.046-.04.04-.09-.001-.007-.054-.112-.06-.145-.007-.052.048-.135.049-.145.01-.145-.045-.202.045-.305-.053-.021-.085-.107-.08-.177.007-.088.116-.265 0-.29.052-.101.02-.09.02-.211-.002-.101.036-.356.037-.466l.216.217h-.025c-.089.007-.045.07-.08.079-.059.014-.027-.033-.067-.032-.112.002-.21.01-.317.031l-.018-.1-.017.034h-.07c.18.144-.174-.012-.28-.015-.09-.003-.239.066-.337.08-.024.004-.008-.032-.013-.03-.057.01-.066.034-.143.03-.041-.001-.083-.046-.123-.047-.293-.006-.576.04-.867.044-.05 0-.092-.054-.134-.055-.06-.002-.097.043-.153.044-.055 0-.136-.053-.174-.045s.027.06-.042.046c-.032-.007.025-.045-.015-.047-.122-.003-.295.044-.425-.002q.008.017.02.033c-.139-.004-.261-.032-.405-.036-.05-.002-.14.032-.19.032s-.072-.037-.111-.038c-.016 0-.01.033-.02.032a.7.7 0 0 1-.14-.026l-.22.007-.009-.236c.019-.066.039-.127.035-.214-.024-.523-.046-1.061-.068-1.591 0-.022-.043-.036-.05-.067-.01-.048.028-.05.03-.057.008-.042-.027-.025-.027-.08 0-.124.031-.324.028-.447-.006-.284-.04-.522-.056-.8-.002-.02.05-.007.05-.042.005-.245-.043-.297-.03-.602l.012-.246.305.305a44 44 0 0 0-.992-.04c-.113.094-.258.07-.379 0 .46-.154.907-.16 1.371-.15l-.115-.115c-.005.239-.015.483-.012.736.01.782.178 1.615.155 2.408-.002.074-.055.104-.044.167.002.01.043-.017.047.016.034.267.014.545-.002.819l-.029-.029c.186.011.37.02.547.01.118-.007.137-.053.241-.065-.018.022-.03.044-.046.066.476.068.953.038 1.436.047.022.001.025.046.047.048.046.003.09-.046.13-.048.052-.002.06.034.109.031.023 0 .016-.035.067-.03.004.001.007.037.041.032.093-.012.283-.043.36-.052.098-.011.176.043.214.047.1.01.098-.047.183-.047.276 0 .546.014.817.028l-.037-.038c-.017.323-.036.647-.036.983 0 .04.062.183.06.255-.001.024-.017.15-.019.169-.005.076-.042.143-.05.185-.016.082.043.173.049.218.008.067.004.177.002.23l.031-.032-.02-.001c-.08-.004-.054-.076-.11-.06-.018.005 0 .061-.06.061-.05 0-.07-.042-.103-.05-.034-.007-.096.058-.117.056-.111-.01-.16-.051-.28-.053-.1-.002-.562.027-.6.043-.173.068.114.037.13.04.087.013.075.039.161-.011.078.153.35-.086.42.096.071-.12.132-.06.208-.035.104.033.025-.037.101-.038.03 0 .117.055.163.047.04-.006.06-.041.107-.05h.014v-.014l-.002-.017a.5.5 0 0 1 .066-.286l-.067-.049.072-.188-.059.03-.008-.055.087-.182c-.113-.17-.015-.121 0-.216s-.051-.15-.051-.223c-.001-.098-.01-.144-.004-.243.002-.058.065-.155-.035-.075-.007-.162-.03-.376-.005-.535v-.007h-.008l-.052-.01c-.047-.012.016-.044.008-.048-.04-.018-.075.033-.116.025-.07-.012-.204-.052-.258-.06-.079-.014-.202.052-.214.057-.07.026-.09-.029-.112-.025-.129.022-.157.045-.198-.07-.033.05-.173.134-.206.05-.001.076-.117.063-.189.082l-.04-.066c-.148.136-.444.037-.64.02-.005 0-.014.058-.043.045-.002-.001.001-.027-.019-.03-.065-.011-.313-.075-.342-.076-.105-.002-.123.04-.187.045-.085.005-.097-.033-.177-.028-.038.003-.072.053-.13.046-.036-.004-.04-.044-.067-.047-.099-.011-.171.014-.259-.038-.022.126-.064.033-.108.023-.175-.038-.395.015-.546.004l-.25-.024.13.132c.04-.372.095-.72.11-1.097.002-.075-.061-.093-.057-.17.002-.036.048-.072.048-.13.001-.046-.022-.113-.022-.17 0-.016.043-.017.043-.04.003-.171-.028-.339-.049-.512-.008-.064.05-.104-.05-.093q.035-.038.07-.072c-.063-.088.002-.16-.014-.28-.002-.013-.07-.103-.02-.154-.036-.004-.066.004-.098.003-.014-.05.027-.128.031-.163.004-.034-.042-.056-.042-.067-.001-.039.06-.03.06-.033.058-.182.026-.163-.065-.272-.023-.028.044-.215-.028-.253.03-.001.055.01.083.012l.023-.169q-.042.02-.085.037c.025-.115-.041-.21-.04-.305.002-.053.064-.047.05-.078-.002-.007-.044.004-.047-.014a.5.5 0 0 1-.008-.126v-.023l-.024-.001c-.076-.005-.138-.027-.239-.033-.07-.004-.132.072-.232.022-.01-.005-.108-.072-.17.025-.019-.031-.036-.047-.05-.073-.124.144-.09.003-.257-.03-.087-.018-.377.008-.471.023-.056.01-.055.066-.065.068-.06.013-.06-.042-.115-.033s-.126.071-.182.066c-.044-.005-.01-.073-.074-.05-.013.006.025.064-.043.041a3 3 0 0 1-.14-.08 1.4 1.4 0 0 1 .283-.098c.447-.106 1.083-.168 1.755-.202l.39.013-.012.365c.048.937.041 1.946.022 2.61-.002.107-.062.176-.067.245-.005.07.05.01.045.074-.005.062-.043.108-.047.167-.02.35-.041.702-.053 1.05l-.278-.278.137.004c.102.003.183-.041.275-.041.037 0 .038.057.063.056.276-.004.531-.06.806-.053.114.003.237.051.35.056.093.004.19-.03.273-.03.045 0 .07.043.086.047.057.011.037-.042.066-.042.08 0 .12.064.197.06.03-.003.025-.044.068-.05.055-.008.035.03.074.031.002 0-.005-.03.015-.03.133-.008.3-.031.428-.029.266.004.528.06.776.071.062.003.046-.035.065-.037.096-.009.13.037.23.02.017-.002.084-.055.148-.041.03.006.062.03.09.042l.25.009-.007.235-.005.014c-.008.03.04.034.04.07.001.064-.033.045-.027.137.003.037.049.161.045.257-.005.156-.047.35-.048.534 0 .063.05.144.05.242 0 .12-.01.34-.011.463 0 .063-.053.068-.055.075-.015.048.044.029.041.06-.003.045-.046.086-.049.126-.001.026.041.03.042.036l.002.025-.01.277-.259-.009c-.195.012-.37.009-.565.013-1.094.025-2.199.08-3.29.055-.092-.002-.096-.056-.176-.047-.08.008-.158.125-.224-.004-.003.026-.002.045-.005.068-.166-.037-.332.002-.495.006-.12.004-.227 0-.338-.003-.098-.003-.09-.048-.175.011-.305-.027-.612-.03-.917-.052l-.325-.01.01-.305q.012-.18.038-.356c-.097-.099-.036-.193-.022-.33.002-.017-.033.001-.03-.048.004-.063.058-.096.055-.201-.001-.028-.061-.235-.03-.312.03-.076.048-.187.078-.267q-.035.018-.069.038l-.011-.12.084-.016-.08-.07c.143-.05.096.002.06-.11-.018-.056.007-.1-.008-.158-.005-.02-.047-.033-.052-.056-.013-.056.045-.024.044-.058 0-.035-.064-.085-.036-.147.114.065.077-.123-.011-.132 0-.023.003-.041 0-.066.224.023.066-.094.035-.14-.03-.047.03-.046.027-.056-.006-.032-.031-.009-.032-.03-.005-.147.031-.284.035-.427 0-.02-.034-.003-.03-.027.003-.024.037-.047.034-.082 0-.01-.03-.013-.03-.028.001-.312.027-.609.03-.927 0-.029-.052-.051-.05-.107s.05-.14.053-.21c.001-.018-.043-.023-.042-.047.004-.083.04-.154.046-.24.01-.145-.017-.298.009-.445.005-.028.042-.024.052-.064.018-.07-.036-.043-.043-.057-.023-.047.048-.061.03-.105-.003-.007-.045.002-.046-.004-.007-.094.092-.1.038-.2.057-.09.077.06.107.075.074.038.16-.062.188-.12.024-.05-.022-.05-.022-.07 0-.106-.009-.264.013-.345.013-.049.032.04.047.015s-.02-.041.018-.067c.038-.025.148-.077.201-.067m2.363 6.067c-.163.18-.594.162-.825.145-.193-.015-.358-.154-.318.048.207.001.375-.019.595-.013.023 0 .159.02.206.023.027.002.028.035.064.035.008 0 .052-.044.068-.043.054.004.218.07.24.069.064-.006.04-.058.067-.067.091-.031.101.047.192.021.016-.004.07-.072.137-.063.027.004.074.039.095.037.114-.009.241-.055.345-.048.086.007.063.06.108.066s.1-.054.131-.057c.05-.006.11.029.125.028.303-.01.572-.05.864-.064l-.594-.07c-.111.053-.056.002-.13-.014-.058-.014-.072.078-.148.068-.04-.005-.125-.069-.21-.043-.002.002-.01.05-.073.05-.141.005-.358.029-.517.019-.047-.003-.037-.053-.093-.06-.04-.004-.087.042-.15.032-.079-.013-.117-.093-.171.018-.005-.04-.003-.078-.008-.117m-2.705-1.53c.004-.011.127-.16-.004-.116-.057.2-.029.416-.061.627.13-.072.079-.193.07-.341-.001-.007.033.022.027-.018-.003-.019-.055-.093-.032-.152m32.741-.391h-4.147v2.038h6.186v-6.185h-2.04z"/><path fill="#fc6b7e" d="M94.632 64.162a1.3 1.3 0 0 1-.496.044c-.038-.004-.035-.038-.05-.044-.03-.01-.078.027-.085.027-.042 0-.026-.06-.032-.062-.063-.024-.045.044-.106.05-.079.009-.18-.003-.276-.007-.033 0-.018-.046-.09-.043-.052.003-.209.055-.281 0 0-.021.008-.044.012-.066-.103.087-.14.083-.288.062-.023-.003-.045.032-.086.02-.04-.014-.043-.069-.125-.068-.03 0-.047.039-.092.04-.127.005-.37-.043-.474-.044-.206-.004-.318.063-.501.04-.014-.002.017-.045-.01-.046-.025 0-.052.056-.059.057-.069.015-.215-.06-.254-.052-.093.023 0 .048-.13.058-.124.01-.294-.063-.416-.077-.142-.017-.188.09-.294-.022h-.012l.23-.23.017 1.115-.067-.004.046.09-.05-.014a.76.76 0 0 1 .08.426c0 .004-.045-.005-.046-.002-.008.037.026.078.017.11-.019.078-.115.21.003.152q-.01.08-.008.166l-.222-.221c.137-.002.28-.017.402-.001.075.01.097.08.133.084s.018-.056.03-.059c.077-.013.203-.01.216.057l.047-.081c-.01.074.227.043.289.045.011 0 .013.033.021.033.096-.004.119-.055.2-.072.029-.007-.016.051.058.026.006-.002.003-.054.09-.053.14 0 .408-.02.575.005.014.002-.028.059.035.046.022-.005.011-.045.066-.046.213-.001.44.045.656.007-.008.045-.085.096.031.067.019-.004.005-.045.013-.046.068-.012.126.017.2.001.02-.004.026-.036.053-.044.04-.01.057.034.103.015.072-.03.084-.073.173.011.507-.005 1.01-.029 1.516.008.146-.024.28-.05.433-.06.044-.003.053.055.124.036.017-.004.13-.066.147.05.032-.01.052-.01.08-.016l-.062-.052c.115.019.209-.022.31-.042.076-.014.023.036.069.03.046-.004.067-.015.124.044.02-.028.035-.036.054-.036l-.265.264c0-.026.017-.056.018-.105 0-.01-.026-.061-.021-.105.004-.03.047-.04.04-.09 0-.007-.054-.112-.059-.145-.008-.052.047-.135.048-.145.01-.145-.045-.202.045-.305-.053-.021-.084-.107-.08-.177.007-.088.116-.265.001-.29.051-.101.02-.09.019-.211-.001-.11.043-.402.036-.49-.006-.09-.07-.047-.078-.082-.014-.058.033-.027.032-.066a2 2 0 0 0-.032-.317l.1-.018-.033-.017v-.07c-.145.18.011-.174.015-.28.003-.09-.066-.24-.08-.337-.005-.024.031-.008.03-.013-.01-.058-.034-.066-.03-.144 0-.04.046-.082.046-.122.007-.293-.038-.576-.043-.867-.001-.05.053-.093.055-.134.001-.06-.043-.097-.044-.153 0-.056.053-.136.044-.174-.007-.038-.06.027-.045-.042.006-.032.045.024.046-.015.004-.123-.044-.295.002-.426l-.033.02c.005-.138.033-.26.037-.404.001-.05-.033-.14-.032-.19 0-.05.036-.072.037-.111 0-.017-.032-.01-.031-.021a.7.7 0 0 1 .026-.14l.229.23c-.066-.019-.128-.039-.215-.035-.522.025-1.06.046-1.59.068-.022 0-.036.044-.068.05-.048.01-.05-.028-.056-.03-.042-.008-.025.027-.081.027h-.03l.31-.31c-.005.125-.031.304-.029.418.007.283.04.522.057.8.001.02-.05.007-.05.042-.006.245.043.297.03.602-.014.305-.045.881-.052 1.238.093.113.07.258-.001.38-.232-.697-.129-1.364-.138-2.108-.005-.446-.062-.909-.106-1.371l-.02.02a9 9 0 0 1 1.036-.048c.075.002.105.055.167.044.011-.002-.016-.043.016-.047.268-.033.546-.014.82.002l.03.001-.002.028c-.01.185-.02.369-.01.547.008.118.054.137.066.241-.022-.018-.045-.03-.067-.046-.067.476-.037.953-.047 1.436 0 .021-.045.024-.047.047-.004.046.046.09.048.13.002.051-.034.06-.032.108.002.024.036.017.03.068 0 .004-.036.007-.032.04.013.094.043.283.052.36.012.098-.043.177-.046.214-.01.1.046.099.046.183 0 .605-.063 1.183-.062 1.801 0 .04.062.183.06.255l-.02.169c-.005.076-.042.143-.05.185-.015.082.043.173.049.218.009.067.004.178.002.23l.032-.032-.022-.001c-.079-.004-.053-.076-.11-.06-.016.006.001.061-.058.061-.05 0-.07-.042-.104-.05-.034-.007-.096.058-.117.056-.11-.009-.16-.051-.28-.053-.1-.002-.562.027-.6.043-.172.068.114.037.13.04.088.013.075.039.162-.011.078.154.35-.086.419.097.072-.122.132-.06.208-.036.105.034.025-.037.101-.038.03 0 .118.055.163.048.04-.007.06-.042.108-.05h.013v-.015l-.001-.017a.5.5 0 0 1 .066-.286l-.068-.049q.037-.093.072-.188l-.058.03-.009-.055.087-.182c-.113-.17-.015-.121 0-.216s-.05-.15-.051-.223c0-.098-.009-.144-.004-.243.002-.058.066-.155-.034-.075-.009-.18-.036-.426.004-.587.012-.048.044.016.047.008.019-.04-.032-.075-.025-.116.012-.07.052-.204.062-.259.013-.078-.053-.201-.058-.214-.027-.07.028-.089.024-.111-.022-.13-.045-.158.071-.198-.05-.033-.134-.173-.05-.207-.076 0-.063-.117-.082-.188l.066-.04c-.136-.148-.037-.445-.021-.64 0-.005-.057-.014-.044-.043 0-.002.027 0 .03-.02.01-.064.075-.312.075-.341.002-.105-.04-.124-.044-.188-.005-.084.033-.096.027-.176-.002-.038-.053-.072-.046-.131.005-.035.044-.039.048-.066.011-.099-.014-.171.038-.259-.127-.023-.033-.065-.024-.108.039-.176-.014-.395-.003-.546l.023-.251.005-.127-.136-.005c-.373-.04-.72-.094-1.097-.108-.075-.003-.093.06-.171.056-.035-.002-.072-.048-.13-.048-.046 0-.112.023-.17.022-.015 0-.017-.043-.04-.043-.144-.002-.286.02-.431.039l-.207-.007-.008.22.01.08c.008.065-.049.105.05.094l-.069.071c.063.089-.003.16.013.28.002.013.071.104.022.155.035.003.065-.005.097-.003.014.05-.027.128-.032.162-.004.035.042.057.043.068 0 .039-.06.03-.06.033-.059.181-.026.162.064.272.023.028-.043.215.028.253-.029.001-.054-.01-.082-.012l-.023.169q.042-.02.084-.037c-.024.115.042.21.04.304-.001.054-.064.048-.05.08.003.005.045-.005.048.013.027.15-.017.215-.025.365-.004.07.072.132.022.233-.005.009-.073.108.024.169-.03.019-.046.036-.072.05.144.124.003.09-.03.257-.018.087.007.378.023.472.009.056.066.055.068.065.013.06-.042.06-.033.115s.071.125.065.182c-.004.043-.072.009-.049.073.006.013.064-.025.04.043-.003.01-.065.119-.079.141a1.4 1.4 0 0 1-.098-.284c-.22-.928-.251-2.67-.235-3.862l.014-.424.397.013.503.01c.106.003.176.063.245.068s.01-.05.073-.045.109.044.167.047c.35.02.702.041 1.05.053l.288.01-.01.268-.004.136c-.002.102.042.184.042.276 0 .036-.057.037-.057.063.005.276.06.531.053.806-.003.114-.05.237-.055.35-.004.093.029.189.03.273 0 .045-.044.069-.047.085-.011.058.042.038.042.067 0 .08-.065.12-.06.196.002.03.043.026.05.07.008.054-.03.033-.031.072 0 .003.029-.005.03.016.008.133.03.3.029.428-.004.266-.06.528-.072.775-.002.063.036.046.037.066.01.096-.036.13-.02.23.003.017.055.084.042.148-.007.034-.04.073-.048.103-.007.03.041.034.041.07 0 .064-.033.045-.027.137.002.038.048.162.044.257-.005.156-.047.35-.048.534 0 .063.05.144.05.242 0 .12-.01.34-.011.463 0 .063-.053.068-.055.075-.014.048.044.029.042.06-.004.045-.047.086-.05.127-.001.025.042.03.042.035l.002.025-.01.277-.258-.009c-.195.013-.37.009-.566.014-1.094.024-2.198.08-3.29.054-.092-.002-.095-.056-.176-.047-.08.008-.158.125-.224-.004l-.004.068c-.166-.036-.333.002-.495.006-.12.004-.227 0-.339-.003-.098-.003-.09-.048-.175.011-.305-.027-.612-.03-.917-.052l-.325-.01.01-.305c.01-.119.02-.238.038-.356-.097-.099-.036-.193-.021-.33.002-.017-.034.002-.03-.048.003-.063.057-.096.054-.201 0-.028-.06-.235-.03-.312.03-.076.049-.187.078-.267l-.068.038-.012-.119.084-.017-.08-.07c.143-.05.097.002.06-.11-.018-.056.007-.1-.007-.158-.006-.02-.048-.033-.053-.056-.005-.02 0-.028.007-.033l.01-.305.285.01c.009.013.003.038.026.037.034 0 .084-.064.146-.035-.065.113.123.076.132-.012.023 0 .042.003.066 0-.022.224.095.066.141.035.047-.03.045.03.056.027.031-.006.008-.031.03-.032.146-.005.283.032.426.035.021 0 .003-.034.027-.03.024.003.047.037.083.034.01 0 .012-.03.027-.03.312.001.609.027.927.03.03 0 .052-.052.107-.05.056.002.14.05.21.053.018.001.023-.043.047-.042.083.004.154.04.24.046.146.01.298-.017.445.009.028.005.024.042.064.052.07.018.044-.036.058-.043.046-.023.06.048.105.03.007-.003-.003-.045.003-.046.095-.007.1.092.2.039.09.057-.06.076-.075.106-.037.074.062.16.12.188.05.024.05-.022.07-.022.106 0 .264-.009.345.013.049.013-.04.032-.014.047.025.015.04-.02.066.018.025.038.077.148.067.201m-1.419 1.56c-.162.18-.594.161-.825.144-.192-.014-.358-.154-.318.048.208.001.375-.019.595-.013.023 0 .16.02.206.023.027.002.028.035.064.035.008 0 .052-.044.068-.043.055.004.218.07.24.069.064-.006.04-.057.067-.067.091-.03.101.047.192.022.016-.005.07-.073.137-.064.028.004.074.039.095.037.114-.009.241-.055.346-.047.085.006.062.058.107.065.046.007.1-.054.131-.057.05-.006.11.029.125.028.303-.01.572-.05.864-.064l-.593-.07c-.112.053-.056.003-.13-.014-.058-.014-.073.078-.15.068h.001c-.04-.005-.125-.069-.209-.042-.003 0-.01.048-.073.05-.142.004-.359.028-.518.018-.047-.003-.037-.053-.092-.06-.04-.004-.087.042-.15.032-.08-.013-.118-.093-.172.018-.005-.04-.002-.078-.008-.116m-2.705-1.531c.004-.011.128-.16-.004-.116-.057.2-.029.417-.06.627.13-.072.078-.193.069-.341-.001-.007.033.022.027-.018-.003-.019-.055-.093-.032-.152m.759-10.842c2.394-1.691 3.959-3.243 5.408-4.911-1.398-1.61-2.956-3.18-5.408-4.911-3.951-2.79-8.099-4.265-11.994-4.265-3.896 0-8.043 1.474-11.994 4.265-2.394 1.69-3.959 3.242-5.408 4.91 1.398 1.61 2.956 3.18 5.408 4.912 3.951 2.79 8.099 4.265 11.994 4.265s8.043-1.475 11.994-4.265m-26.648-4.911a29 29 0 0 1 3.879-3.275C71.002 43.4 74.904 41.3 79.273 41.3c4.368 0 8.27 2.1 10.775 3.862a29 29 0 0 1 3.88 3.275 29 29 0 0 1-3.88 3.275c-2.504 1.761-6.407 3.862-10.775 3.862s-8.271-2.1-10.775-3.862a29 29 0 0 1-3.88-3.275"/><path fill="#fc6b7e" d="M91.06 53.05c.41-.343.823-.672 1.263-.993.1-.074.112-.04.156-.067.08-.05.18-.178.196-.192.107-.087.102-.006.118-.016.174-.111.086-.127.233-.257.19-.17.447-.375.68-.578.08-.07.076-.005.246-.165.122-.113.456-.498.661-.623.016.014.01.051.016.076.18-.298.267-.378.614-.706.055-.052.078-.128.179-.216.1-.087.145-.053.326-.25.064-.07.074-.14.17-.248.134-.152.336-.363.533-.572v.39a17 17 0 0 0-.486-.588c-.447-.498-.746-.715-1.147-1.15-.031-.034.07.007.011-.053s-.161-.081-.177-.095c-.169-.146-.461-.526-.56-.603-.239-.188-.034.03-.353-.242-.303-.259-.676-.672-.977-.932-.348-.301-.531-.307-.739-.606q-.44-.33-.892-.645-1.05-.736-2.159-1.37l.044-.051q-.137-.053-.274-.103l.061-.022a11 11 0 0 1-1.26-.576c-.01-.005.034-.033.027-.038-.103-.06-.238-.087-.329-.139-.218-.126-.573-.39-.448-.204-.528-.265-1.185-.484-1.707-.69-.226-.09-.272-.178-.382-.218s-.072.036-.112.025c-.24-.064-.63-.18-.653-.256l-.17.037c.05-.067-.7-.23-.897-.27-.035-.008-.033-.041-.06-.047-.303-.06-.388-.024-.65-.055-.093-.01.06-.043-.18-.059-.02 0-.018.05-.298.007-.447-.073-1.308-.14-1.844-.18-.044-.004.092-.056-.11-.05-.073.003-.04.043-.216.04l-.241-.002c-.613-.008-1.26 0-1.872.107.02-.048.263-.128-.107-.055-.06.012-.01.046-.036.051-.215.04-.406.038-.637.092-.068.016-.08.05-.164.073-.125.033-.188-.001-.33.046-.224.075-.248.124-.55.105-1.597.37-3.127.966-4.611 1.657-.414.231-.788.46-1.212.71-.126.074-.178.037-.369.17-.044.03-.328.273-.435.203-.083.062-.138.097-.21.149l.198-.062c-.328.18-.564.38-.828.579-.194.147-.078.01-.2.097-.121.088-.17.135-.358.193a.4.4 0 0 1-.12.13c-.07.05-.16.092-.29.185-.025.017-.145.137-.262.216-.083.057-.133.04-.258.142-.02.016-.259.264-.34.335-.129.108-.373.232-.398.252-.375.29-.479.449-.793.6-.016.084-.208.291-.379.438-.218.185-.71.5-.686.638-.273.194-.226.191-.502.47-.253.252-.93.916-1.117 1.14-.189.22-.047.157-.117.249-.114.15-.082.043-.166.141l-.053.062v-.346c.22.248.422.463.653.688l-.034.11.06.017.156.169c-.292-.528.374.422.62.667.203.21.597.498.841.704.06.05-.004.04.008.05.144.119.181.12.365.29.098.09.17.214.267.3.714.63 1.465 1.159 2.236 1.706.072.051.13.112.186.17q.066.072.138.127c.158.111.284.143.434.244.15.1.34.287.447.346.107.06-.041-.097.14.036.084.06-.091-.005.016.065.334.216.84.464 1.186.71-.011-.019-.028-.04-.043-.061.39.225.728.438 1.143.649.144.074.424.171.568.238s.196.131.312.184c.048.022.042-.016.074-.001.4.185.601.332 1.036.493 1.59.585 3.3.996 5.006 1.124.068.005.118-.034.218-.033.154.002.16.04.18.042.134.017.081-.02.26-.012.202.01.466.026.729.033.255.008.51.007.705-.003.912-.051 1.671-.184 2.544-.376.063-.015.03.044.14.022.773-.167.925-.25 1.868-.527.946-.27 2.68-.966 3.698-1.52.279-.253.697-.462 1.07-.602-1.829 1.35-3.898 2.166-6.246 2.727-1.21.286-2.484.494-3.779.533a14.6 14.6 0 0 1-4.009-.428c-.237-.06-.318-.137-.519-.18-.034-.007.042.056-.062.032-1.437-.336-2.864-1.015-4.155-1.65-.349-.173-.423-.162-.73-.316.063.01.108.009.165.015a45 45 0 0 1-2.668-1.721 28 28 0 0 1-1.224-.91c-.056-.043-.035-.084-.093-.132-.115-.094-.258-.146-.36-.226-.134-.107-.133-.152-.256-.25-.06-.05-.063-.007-.188-.12-.01-.009.006-.042-.08-.11a27 27 0 0 1-.913-.743c-.243-.21-.39-.43-.474-.517-.227-.237-.261-.194-.456-.392a28 28 0 0 1-1.359-1.506v.036a34 34 0 0 1 2.726-2.73c.094-.084.407-.44.59-.59.06-.05.389-.3.439-.337.197-.153.392-.258.505-.336.22-.152.424-.378.539-.47.17-.137.465-.344.606-.44l.058-.04c.215-.146.185-.037.329-.156.042-.035-.037-.049.124-.158.135-.09.213-.092.31-.146.096-.055.232-.22.291-.255.311-.187.47-.235.807-.434a64 64 0 0 1 1.705-.971c.476-.308-.354.13-.4.156-.26.12-.236.077-.463.256-.302-.017-.954.635-1.24.601-.138.227-.337.28-.56.393-.306.16-.048.075-.257.214-.082.053-.351.168-.469.259-.105.081-.138.146-.261.243l-.045.034a6 6 0 0 1-.797.5l-.087.15q-.267.158-.532.322l.114-.015-.136.118c-.176.102-.34.201-.519.31-.356.446-.294.267-.54.46-.243.195-.332.364-.509.527-.237.22-.339.329-.575.553-.137.13-.408.313-.152.198-.413.42-.942 1.029-1.321 1.397-.112.108.002-.068-.019-.05-.101.086-.137.203-.232.301l-.086.087-.026.03.026.032c.144.19.345.462.44.579.162.2.486.452.518.478.178.15.181.232.235.283.31.289.392.336.405.513.113.042.5.3.523.437.054-.054.322.216.508.358l.053.136c.452.227 1.13.923 1.632 1.326.013.01.07-.017.138.051.005.005-.019.02.03.061.162.14.784.672.862.725l.035.025c.254.177.328.18.497.29.233.15.244.204.469.343.104.065.226.083.386.192.096.064.084.104.16.154.27.18.488.28.712.467.127-.072.2.077.32.154.488.317 1.157.594 1.602.811 1.391.68 2.675 1.214 4.16 1.572.241.056.312.006.566.06.113.024.223.091.412.124.15.027.372.037.562.063.05.007.05.05.124.06.565.075 1.124.088 1.699.082.213-.003.345.054.309-.046l.081.024.156.045c.292-.066.532-.007.928-.05.043-.004.335-.095.508-.063.008-.036-.02-.063-.02-.096.165-.03.424-.019.536-.03s.18-.066.214-.071c.127-.02.106.044.116.044.603-.037.536-.062.874-.22.084-.038.699-.107.802-.21.013.027-.014.06-.017.09q.272-.056.544-.119c-.045-.017-.098-.031-.14-.05.371-.075.655-.23.948-.323.168-.053.167.012.26-.034.02-.009-.027-.038.03-.06.454-.186.67-.22 1.13-.395.215-.083.37-.23.693-.319.029-.007.355-.08.493-.253.07 0 .129-.01.183-.007.3-.307.263-.129.767-.352.262-.112 1.084-.605 1.338-.781.153-.104.12-.15.147-.17.16-.113.188-.067.337-.171s.307-.281.465-.38c.12-.075.065.044.227-.093.033-.029-.103-.006.094-.112.03-.017.358-.167.425-.2a9 9 0 0 1-.716.61c-2.228 1.83-7.287 4.152-11.322 4.006a16 16 0 0 1-2.345-.182c-.352-.053-.57-.153-.795-.2-.226-.049-.045.042-.25-.003-.204-.047-.346-.117-.535-.165a22 22 0 0 1-3.71-1.318c-.307-.139-.57-.213-.847-.349-.107-.052-.085-.105-.16-.143-.818-.405-1.58-.776-2.346-1.269-.317-.204-.63-.47-.933-.686a7 7 0 0 0-.223-.15c-.185-.121-.37-.234-.53-.35-.12-.089-.157-.17-.2-.206-.144-.123-.122-.04-.2-.099-.212-.161-.276-.292-.476-.444-.077-.059-.093-.019-.208-.103-.145-.107-.07-.094-.169-.177-.006-.005-.005.034-.058-.009a20 20 0 0 1-1.09-.904c-.649-.595-1.22-1.251-1.764-1.86-.137-.153-.128-.087-.174-.134-.218-.229-.258-.343-.488-.58-.015-.015-.052-.045-.1-.085l-.15-.177.15-.17c.052-.081.127-.192.218-.282.08-.081.191-.156.262-.223.07-.067.045-.11.124-.197.143-.157.125-.09.328-.316.082-.091.33-.42.556-.642.368-.364.86-.777 1.315-1.18.156-.138.326-.353.574-.561.302-.257.88-.702 1.206-.944.165-.124.209-.091.23-.104.135-.082.05-.091.136-.153.12-.084.256-.129.365-.203.07-.047.055-.09.07-.101l.068-.05c.52-.382 1.004-.697 1.553-1.04 3.06-1.906 6.612-3.293 10.286-3.34.155-.001.235.013.31.026.074.012.143.023.276.021.268-.003.535-.108.747.035.009-.026.01-.044.018-.068.552.073 1.108.1 1.645.182.398.061.747.134 1.108.219.32.076.282.114.572.127 1.36.39 2.703.889 3.932 1.549.337.054.592.25.983.475.048.028.012-.032.156.05.182.103.25.201.554.373.08.043.702.344.898.507.2.16.497.376.698.547-.018-.04-.045-.085-.067-.127q.168.105.334.212l-.001.1.233.066c.025.096.015.121.027.136.014.019.062.024.236.124.16.094.264.2.425.3.057.037.118.03.182.07.155.101.034.082.125.151.092.07.262.12.407.269-.24-.044.27.312.348.263.058.046.104.088.169.138-.2.125.198.247.336.325.136.076.093.118.121.14.083.063.042-.006.098.041.367.312.677.645 1.017.975.049.048.029-.018.084.04s.086.135.171.216c.023.022.051.007.086.042a30 30 0 0 1 1.665 1.829l.136.16-.136.154-.39.436c-.063.07-.074.162-.199.296-.125.135-.35.307-.51.47-.042.043-.021.085-.078.142-.192.195-.383.337-.59.533-.348.33-.697.692-1.08.996-.072.057-.085.02-.192.1-.184.136-.084.12-.115.156-.1.117-.182.093-.283.202-.016.016.036.028.02.042-.235.205-.31.14-.535.388-.267.14.106-.182.126-.239.049-.134-.257.004-.424.1-.144.083-.115.119-.166.159-.273.213-.682.529-.908.665-.137.083.085-.101.01-.066-.074.035-.097.094-.186.112-.089.017-.291.025-.295-.037M77.686 39.459c.309-.143.957-.228 1.588-.234.407-.005.805.02 1.102.048.629.057 1.145.276 1.044.057a17 17 0 0 0-1.952-.13c-.027 0-.102-.004-.194-.008a12 12 0 0 0-.485-.008c-.088 0-.092-.033-.212-.027-.026 0-.167.051-.22.053-.18.004-.722-.015-.796-.003-.208.029-.122.071-.21.091-.294.068-.338-.005-.63.066-.053.013-.215.107-.434.138-.089.012-.246.007-.313.022-.365.082-.762.224-1.094.304-.272.067-.213-.003-.359.03-.145.035-.299.144-.395.178-.154.053-.352.08-.4.097-.94.323-1.744.697-2.6 1.121q.894-.39 1.81-.698c.324-.178.171-.068.403-.133.184-.05.196-.153.438-.222.124-.035.41-.06.665-.162.009-.003.019-.057.217-.114.444-.13 1.13-.317 1.647-.398.151-.024.13.03.308.007.13-.017.275-.087.48-.104.26-.022.39.044.556-.084.019.038.015.077.036.113m13.397 3.963c.011.01.08.087.149.156.093.091.187.168.164.06l-.13-.108c-.474-.384-1.026-.724-1.55-1.078.133.234.496.4.904.66.02.013-.078-.012.033.055.054.032.283.125.43.255m-26.72 4.758c.285-.35.596-.675.95-.973.08-.068.096-.036.132-.061.065-.045.14-.162.154-.174.087-.078.093-.003.106-.012.145-.096.063-.115.184-.23.158-.148.377-.32.58-.483.071-.057.07.003.22-.124.105-.091.41-.4.6-.476.014.016.009.05.014.073.17-.241.254-.301.59-.522.053-.035.081-.1.18-.154.09-.05.126-.02.266-.108l.051-.034c.065-.046.083-.106.183-.177.284-.203.866-.522 1.111-.669.48-.29.715-.5 1.165-.72.035-.017-.02.06.043.028.063-.033.102-.118.117-.127.16-.103.55-.217.641-.271.22-.133-.018-.045.298-.209.3-.154.758-.277 1.073-.39.364-.13.444-.273.757-.27.96-.357 1.956-.637 2.97-.82l.001.068.233-.085-.028.054c.366-.123.702-.2 1.15-.22.009 0-.01.046-.003.046.1 0 .21-.042.3-.04.214.005.58.092.416-.021q.221.002.457 0c.377-.002.767 0 1.101.043.204.026.26.102.356.116s.053-.05.088-.05c.21.009.55.06.576.132l.14-.061c-.035.067.604.147.77.187.03.006.027.04.05.044.254.05.328.015.548.051.077.013-.054.04.147.065.017.002.021-.052.253.011.37.098 1.077.3 1.496.483.034.015-.092.029.073.075.06.018.046-.03.186.022.544.206 1.093.494 1.642.717-.04.032-.25-.014.046.098.047.018.031-.035.052-.026.172.07.3.167.484.245.054.023.082.002.15.03.102.04.123.103.242.146.187.067.236.045.406.238.724.407 1.43.846 2.107 1.323q.672.472 1.302.999c.326.227.627.44.947.704.095.078.075.136.234.25.036.026.309.186.265.303.07.05.112.088.17.133l-.09-.152c.22.226.436.37.65.55.158.132.018.066.112.15.093.085.142.117.211.27a.3.3 0 0 1 .128.077l.184.181-.184.19c-.049.05-.12.099-.216.191-.018.018-.099.135-.188.214-.064.056-.111.043-.205.14-.014.017-.186.25-.25.316-.098.102-.302.212-.322.23-.302.257-.383.398-.655.514-.009.077-.169.253-.319.37-.19.149-.633.362-.615.492-.25.13-.207.137-.47.336-.142.108-.436.305-.695.473-.175.114-.335.216-.415.273-.199.142-.064.128-.14.189-.124.099-.079.012-.17.073-.253.168-.476.32-.714.488l-.094-.06-.022.052c-.054.032-.113.069-.164.097.496-.126-.414.236-.67.367-.215.115-.544.367-.778.5-.057.032-.033-.02-.044-.013-.137.08-.148.112-.34.2-.103.047-.225.055-.324.1-.73.328-1.435.653-2.194.904-.13.042-.257.024-.367.056-.157.045-.243.116-.39.158s-.374.044-.473.076c-.099.033.085.041-.102.072-.087.014.054-.06-.05-.036-.328.075-.784.215-1.146.225q.028.012.062.023c-.378.057-.716.072-1.108.104-.137.011-.383.062-.518.069-.136.007-.199-.028-.307-.025-.045 0-.027.033-.056.033-.146 0-.267-.009-.383-.02-.182-.02-.349-.042-.587-.047-1.43-.034-2.898-.301-4.285-.73-.056-.017-.107.011-.19-.01-.128-.033-.122-.071-.138-.078-.106-.045-.073.003-.218-.048-.32-.113-.818-.342-1.128-.474a26 26 0 0 1-1.995-.91c-.049-.026.008-.052-.075-.1-.58-.333-.73-.36-1.427-.82a27 27 0 0 1-.904-.63 34 34 0 0 1-1.79-1.41h.001c-.296-.122-.585-.4-.783-.672.92.636 1.774 1.288 2.679 1.93.64.454 1.307.9 2.036 1.313 1.851 1.05 4.026 1.76 6.118 2.172.196.039.267.105.437.12.028.003-.039-.049.049-.04.717.078 1.46.16 2.2.176.5.011.997-.008 1.472-.069.317-.042.361-.094.637-.146-.046.028-.074.056-.114.083 1.285-.113 2.536-.486 3.755-.945.055-.02.078.019.137-.002.117-.042.207-.132.307-.175.13-.056.165-.032.284-.086.058-.026.027-.05.156-.1.01-.004.032.026.114-.016.226-.113.675-.36.857-.463.231-.128.445-.18.536-.224.244-.12.212-.166.413-.278a32 32 0 0 0 2.248-1.374c.608-.411 1.204-.85 1.792-1.336.082-.067.34-.364.488-.49.05-.042.316-.254.355-.288.158-.134.316-.228.405-.3.174-.139.313-.353.395-.44.124-.131.34-.34.44-.437l.022-.023-.022-.021-.04-.041c-.149-.155-.047-.156-.17-.253-.035-.028-.04.044-.155-.067-.096-.094-.106-.161-.168-.23-.06-.07-.229-.138-.27-.178-.212-.21-.282-.33-.524-.548-.197-.187-1.18-.962-1.274-1.01-.407-.234.22.221.25.252.175.16.132.157.344.27.064.249.773.55.79.813.226.04.305.196.438.354.182.218.074.018.224.16.059.056.19.26.281.34.083.072.145.085.241.17v-.02l-.03.034c-.203.21-.386.36-.599.492l-.048.14q-.21.148-.422.291l.1-.01-.105.105c-.143.09-.278.173-.425.262-.273.387-.237.225-.44.378-.205.153-.278.297-.431.421-.207.167-.298.25-.513.41-.125.092-.373.2-.14.15-.239.187-.531.418-.813.615a5 5 0 0 1-.48.303c-.112.062.012-.06-.008-.05-.1.045-.147.137-.246.193-.162.092-.49.253-.62.322-.185.1-.437.325-.464.347-.15.119-.222.096-.273.13-.29.19-.35.246-.5.196-.053.087-.348.337-.468.302.033.07-.252.2-.417.3l-.126-.014c-.302.298-1.08.53-1.578.696-.013.004-.015.066-.094.082-.005 0-.006-.026-.058-.011-.167.054-.822.205-.895.224-.27.081-.306.135-.471.186-.218.066-.259.037-.466.095-.098.027-.175.098-.332.127-.093.017-.11-.02-.184-.008-.26.045-.447.106-.687.095-.04.135-.166.061-.282.069-.471.034-1.05.143-1.455.15q-.344.006-.674-.007c-.997-.041-1.916-.197-2.894-.41-.194-.043-.254.009-.458-.043-.09-.023-.174-.09-.322-.129-.12-.031-.297-.054-.445-.097-.04-.011-.031-.054-.088-.07-.438-.131-.871-.244-1.313-.387-.163-.053-.241-.146-.25-.042q-.08-.069-.152-.135c-.243-.03-.397-.165-.695-.28-.031-.01-.282-.048-.384-.151-.024.028-.018.064-.035.091-.13-.045-.3-.173-.38-.217s-.156-.031-.18-.043c-.095-.046-.046-.09-.052-.094-.409-.274-.376-.224-.68-.284-.077-.015-.482-.32-.604-.31.01-.028.048-.036.069-.056l-.38-.252c.014.04.032.085.043.124-.254-.181-.504-.261-.718-.402-.12-.08-.072-.122-.15-.158-.016-.007-.016.044-.059.02-.28-.16-.415-.282-.62-.445l-.176-.134c-.151-.114-.33-.15-.518-.353-.018-.019-.189-.232-.378-.257-.023-.056-.05-.097-.064-.142-.35-.093-.193-.146-.52-.455-.171-.16-.78-.649-.979-.809-.118-.094-.154-.05-.175-.067-.129-.099-.092-.14-.207-.233-.115-.095-.295-.18-.402-.29-.082-.084.032-.069-.11-.172-.028-.022.005.091-.11-.053a10 10 0 0 1-.213-.325c.132.084.482.362.613.465.866.693 2.064 1.652 3.423 2.563 2.156 1.478 4.789 2.702 6.578 3.193.269.078.431.18.608.227s.039-.04.2 0c.16.041.27.104.422.137a13.7 13.7 0 0 0 3.116.328c.27-.005.483-.061.727-.08.094-.008.102.048.17.042.73-.073 1.388-.24 2.097-.4.294-.066.623-.104.913-.186.239-.066.473-.176.683-.248.114-.04.189-.02.231-.032.148-.04.08-.072.153-.099.202-.074.324-.052.51-.13.073-.032.048-.066.152-.115.132-.063.097-.007.193-.046.006-.002-.024-.021.026-.044.325-.144.718-.348 1.027-.497.638-.305 1.28-.594 1.854-.926.145-.084.087-.094.131-.123.212-.14.315-.15.532-.31.036-.026.158-.167.307-.251.08-.044.187-.077.256-.115s.051-.085.13-.139c.093-.064.115-.063.175-.094.032-.017.074-.044.142-.095.08-.06.322-.29.528-.442.337-.245.77-.532 1.15-.848.131-.108.266-.286.462-.458.243-.21.688-.597.926-.823.121-.115.166-.086.182-.099.103-.08.024-.083.088-.143.087-.08.196-.127.274-.2.05-.047.026-.086.037-.096l.047-.05v.377c-.375-.36-.711-.686-1.102-1.034a28 28 0 0 0-2.77-2.169 25.7 25.7 0 0 0-4.6-2.527c-.224-.093-.213-.147-.416-.216-.203-.068-.436-.027-.56-.207-.014.023-.019.04-.032.061-.405-.178-.84-.27-1.256-.374a26 26 0 0 0-.87-.207c-.255-.054-.224-.094-.457-.075a13.7 13.7 0 0 0-2.401-.262q-.474-.013-.943-.005c-.253.115-.505.076-.866.108-.044.004.008.033-.123.048-.165.02-.258-.022-.534.029-.074.011-.6.176-.804.194-.205.015-.495.07-.708.1.036.013.078.025.117.038l-.302.097-.067-.068-.155.13c-.169-.098-.025-.095-.298.03-.136.063-.255.076-.396.14-.05.024-.07.075-.125.1-.135.063-.073-.02-.16.011-.087.033-.188.138-.353.172.12-.17-.334.05-.322.141-.055.023-.103.039-.162.067-.03-.23-.258.038-.359.117-.1.078-.12.022-.146.036-.073.04-.007.038-.06.063-.351.165-.696.293-1.039.467-.049.025.01.032-.048.06-.058.026-.13.025-.212.072-.023.013-.016.043-.05.062-.735.395-1.426.786-2.135 1.26-.064.044-.082.12-.207.205a2 2 0 0 1-.163.094c-.107.057-.228.118-.325.185-.04.028-.025.072-.078.11-.181.127-.355.212-.542.348-.316.23-.617.505-.937.738-.061.044-.075.008-.165.07-.154.107-.066.103-.09.133-.079.097-.155.07-.233.16-.012.015.036.03.024.041-.186.172-.263.108-.429.328-.216.118.069-.165.08-.215.028-.122-.231-.009-.367.078-.116.074-.085.108-.125.144-.212.195-.515.497-.685.635-.104.084.053-.097-.006-.06-.057.035-.065.091-.14.113s-.254.044-.272-.012m22.061-5.27c-.473-.032-1.533-.496-2.124-.705-.484-.181-.88-.434-.831-.211.535.157.971.282 1.521.498.058.023.391.175.508.228.065.03.055.061.144.099.02.008.145.015.184.033.135.062.504.305.56.33.156.068.12-.006.19.017.235.08.224.162.453.25.041.016.2.022.357.115.064.038.157.128.207.154.274.14.594.27.832.421.194.124.115.138.215.207.098.069.258.097.33.138.114.066.233.184.267.206q.41.258.789.506c.388.255.763.51 1.143.796a29 29 0 0 0-1.25-1.007c-.28-.127-.126-.083-.283-.21-.123-.098-.206-.043-.374-.165-.085-.062-.245-.24-.455-.339-.007-.003-.048.027-.195-.06-.328-.197-.848-.468-1.223-.677-.11-.062-.064-.094-.193-.169-.096-.054-.229-.07-.377-.156-.187-.107-.244-.222-.425-.186.005-.04.027-.073.03-.114m-11.54-.96c-.03.004-.452.007-.298.097.533-.11 1.089-.29 1.651-.375-.216-.087-.53.035-.911.148-.019.006.049-.048-.054-.014-.05.017-.227.12-.388.145"/><path fill="#fc6b7e" d="M84.37 48.438a5.104 5.104 0 0 0-5.097-5.098 5.104 5.104 0 0 0-5.098 5.098 5.104 5.104 0 0 0 5.098 5.097 5.104 5.104 0 0 0 5.097-5.097m-8.156 0a3.06 3.06 0 0 1 3.059-3.059 3.06 3.06 0 0 1 3.058 3.059 3.06 3.06 0 0 1-3.058 3.058 3.06 3.06 0 0 1-3.06-3.058"/><path fill="#fc6b7e" d="M84.007 48.436a3 3 0 0 1-.08-.59c-.002-.046.032-.046.035-.065.005-.037-.04-.089-.041-.097-.009-.05.053-.04.054-.047.01-.08-.052-.047-.072-.117-.027-.091-.042-.212-.07-.324-.009-.039.04-.034.012-.117-.02-.059-.128-.221-.108-.322.02-.008.045-.005.067-.008-.127-.088-.138-.13-.192-.3-.009-.028-.052-.036-.062-.087s.039-.077-.008-.166c-.018-.031-.062-.032-.09-.079-.077-.133-.197-.407-.273-.511-.148-.207-.288-.268-.421-.446-.01-.013.046-.015.025-.039s-.085-.008-.091-.013c-.068-.05-.145-.227-.187-.252-.1-.059-.032.033-.158-.061-.12-.089-.24-.272-.358-.369-.136-.111-.239-.048-.296-.21a5 5 0 0 0-1.292-.497l.02-.064-.118.02.026-.045a1.5 1.5 0 0 1-.534-.007c-.004 0 .012-.043.008-.045-.044-.013-.098.016-.137.005-.093-.028-.255-.13-.187-.01a1.3 1.3 0 0 0-.206-.012c-.171.002-.346.027-.497.026-.093 0-.13-.065-.175-.064-.045.003-.014.06-.03.064-.092.026-.245.052-.275-.01l-.041.091c-.005-.077-.286.021-.36.044-.013.003-.024-.027-.034-.024-.114.039-.126.097-.215.146-.032.018 0-.055-.077 0-.006.005.015.05-.085.09-.162.061-.45.221-.64.304-.015.007.001-.068-.06-.017-.021.018.01.045-.047.08-.222.139-.478.27-.656.475-.023-.04.018-.142-.074-.025-.014.019.026.037.02.045-.055.065-.128.093-.182.168-.016.022.002.05-.016.078-.026.043-.074.027-.1.082-.038.086-.014.123-.15.15-.406.481-.697 1.038-.932 1.617-.034.18-.053.345-.084.529-.009.054-.067.053-.065.143 0 .02.038.168-.08.172.005.04.002.065.004.1l.06-.07c-.037.138-.008.258.004.383.009.093-.037.025-.035.081.003.057.013.082-.048.153.028.023.036.043.036.066 0 .032-.016.07-.016.13 0 .011.029.074.026.127-.001.038-.044.053-.033.113.002.01.066.133.076.173.014.062-.026.17-.025.182.019.18.086.235.027.38.058.014.113.109.13.193.022.104-.01.348.108.337-.004.135.02.112.078.248.05.125.174.467.238.558.061.093.089.013.118.046.05.053-.01.045.016.086.075.115.151.21.246.301l-.066.078.038-.004q.029.036.053.07c-.022-.264.122.174.214.273.073.085.252.168.35.237.024.017-.015.03-.01.033.06.04.083.03.152.093.037.034.048.102.086.133.28.23.6.38.92.532.054.026.078.097.124.12.067.031.127.008.19.033s.138.11.184.117c.047.008-.01-.067.065-.026.034.018-.043.033.002.05.143.052.36.063.506.141l-.018-.038c.165.042.31.095.486.12.062.009.175-.015.236-.011.06.004.086.042.135.045.02.002.013-.032.026-.03q.096.01.172.029c.081.018.159.037.267.027a4.9 4.9 0 0 0 1.872-.56c.023-.012.02-.059.05-.081.047-.036.068-.004.075-.007.05-.017.014-.037.074-.07.131-.073.353-.178.473-.27.278-.209.474-.43.69-.687.016-.019.042.028.071-.003.201-.223.206-.3.425-.598.224-.296.555-.925.666-1.35-.054-.158.006-.32.1-.454.081.894-.384 1.693-.978 2.402-.618.754-1.475 1.506-2.495 1.743-.094.022-.144-.021-.22.007-.014.005.03.037-.01.05-.335.105-.704.124-1.06.108-.243-.01-.478-.037-.709-.058-.153-.015-.185.025-.322.01.028-.016.048-.035.072-.053-.592-.181-1.177-.377-1.703-.714-.023-.015-.002-.055-.026-.072-.047-.034-.121-.023-.165-.051-.056-.036-.045-.072-.096-.106-.025-.017-.038.016-.087-.028-.004-.003.014-.034-.023-.057a5 5 0 0 1-.387-.257c-.101-.078-.134-.19-.165-.225-.082-.1-.12-.06-.194-.142-.519-.587-.831-1.285-1.041-2.042-.014-.047-.119-.21-.134-.304a5 5 0 0 1-.021-.217c-.01-.099.016-.187.017-.242.004-.105-.063-.216-.072-.274a2 2 0 0 1-.01-.294v-.028c.005-.102.077-.067.062-.14-.004-.021-.06 0-.057-.077.003-.063.047-.087.057-.13.01-.042-.046-.126-.042-.154.025-.141.075-.196.103-.347.014-.127.14-.704.15-.755.008-.232-.085.129-.09.149-.045.104-.066.082-.047.204-.178.062-.013.456-.203.516.107.11.037.179.003.276-.046.133.034.035.027.134-.003.04-.064.15-.058.21.006.054.04.08.049.142l.002.022a1 1 0 0 1-.051.376l.072.058a5 5 0 0 0-.044.252l.053-.046.018.07a5 5 0 0 0-.046.249c.155.197.047.152.062.278.016.125.1.177.128.268.04.123.066.176.108.3.024.07.014.212.067.078.094.215.26.485.333.685.021.06-.048.004-.046.015.01.055.078.067.1.117.037.083.103.251.138.315.05.093.203.18.217.188.078.054.052.108.075.128.127.114.17.123.122.242.067-.001.254.067.228.158.053-.054.154.058.237.104l-.004.084c.234.024.478.327.693.473.006.003.045-.04.071-.01.002.003-.015.023.006.039.065.053.327.26.363.275.125.06.165.03.244.059.104.037.105.078.206.11.048.014.107-.019.178.012.042.018.035.057.069.07.12.05.22.05.32.127.058-.117.09-.014.145.007.221.086.519.07.715.093q.168.02.333.033c.493.038.971.03 1.468-.096.098-.026.102-.094.203-.123.045-.013.106.014.18-.012.06-.021.134-.076.206-.106.019-.008.038.031.066.02a3 3 0 0 0 .593-.361c.07-.051.146-.032.08-.108l.119.007c.064-.118.18-.12.3-.23.013-.012.066-.14.15-.145-.02-.03-.047-.047-.066-.073.043-.053.147-.089.184-.116.036-.027.027-.082.037-.091.036-.036.07.016.073.014.214-.126.174-.135.207-.302.008-.04.22-.183.195-.268.024.017.035.044.055.064q.08-.08.156-.163-.05-.005-.097-.012c.111-.105.129-.247.197-.348.039-.058.087-.018.097-.06.002-.009-.04-.019-.03-.041.076-.18.156-.233.252-.405.044-.081.009-.184.106-.285.009-.008.121-.104.058-.213.038-.013.06-.029.091-.038-.083-.2.037-.11.132-.313.052-.105.112-.487.112-.612.002-.075-.055-.081-.055-.095-.002-.078.052-.071.051-.145 0-.073-.055-.168-.044-.24.008-.056.073-.008.054-.093-.005-.018-.064.029-.038-.057.004-.014.07-.153.083-.183.037.075.077.295.084.38.089.719-.136 1.869-.79 2.809-.632.954-1.635 1.62-2.38 1.896-.138.054-.25.03-.34.056-.093.026.001.052-.083.075-.085.022-.156.003-.235.021a5.8 5.8 0 0 1-1.618.131c-.137-.008-.253.029-.379.016-.05-.006-.044-.063-.08-.066-.37-.041-.726-.065-1.083-.192-.148-.053-.288-.16-.426-.225-.114-.054-.246-.082-.348-.136-.055-.028-.063-.082-.08-.096-.062-.048-.065.012-.1-.008-.095-.056-.108-.139-.196-.19-.035-.02-.053.017-.105-.01-.067-.035-.023-.05-.065-.082-.003-.002-.01.028-.035.013a4 4 0 0 1-.476-.34c-.272-.243-.474-.546-.668-.817-.05-.07-.066-.029-.084-.05-.084-.1-.073-.163-.161-.267-.015-.017-.11-.066-.143-.148-.018-.044-.017-.107-.03-.145-.012-.039-.058-.02-.081-.063-.042-.078 0-.07-.063-.18-.025-.043-.14-.176-.187-.3-.078-.199-.126-.462-.19-.703-.021-.083-.096-.179-.123-.31a5 5 0 0 1-.078-.63c-.006-.085.046-.095.048-.105.01-.066-.046-.037-.046-.08 0-.06.041-.118.044-.172 0-.035-.042-.04-.042-.047l-.002-.035a4.4 4.4 0 0 1 .041-.77c.178-1.483 1.022-2.92 2.295-3.74.106-.068.14-.025.229-.09.088-.064.126-.22.268-.149-.01-.024-.02-.04-.028-.063.22-.075.412-.204.621-.29a4 4 0 0 1 .446-.144c.133-.034.132.014.233-.072a5.7 5.7 0 0 1 1.26-.095q.248.013.486.06c.144-.085.269-.009.45.037.022.006.004-.033.071-.018.084.02.117.081.258.112.036.006.328.023.418.088.09.061.226.13.315.198q-.01-.04-.023-.083l.156.052-.012.086.118-.034c.003.159-.042.086.11.119.077.017.119.067.194.091.027.009.063-.02.093-.009.074.027.006.055.047.078.04.023.133.004.19.074-.135.049.098.153.158.089.025.017.044.034.073.052-.153.165.066.126.136.141.069.014.03.06.043.068.038.02.029-.018.053 0 .159.12.274.271.41.41.02.02.026-.022.047.004.02.025.019.071.054.104.01.01.034-.008.048.006.291.31.514.65.727 1.024.02.034.08.035.116.103.035.068.045.192.081.278.01.023.053.01.066.04.043.105.048.208.085.319.062.186.152.374.177.574.005.038-.032.041-.03.096.005.095.049.049.06.065.037.056-.029.09.001.145.005.008.044-.013.046-.005.031.125-.065.148.008.273-.04.126-.087-.068-.12-.083-.081-.035-.145.106-.163.182-.015.066.03.06.033.085.017.134.039.336.02.438-.012.063-.034-.048-.048-.016-.014.031.02.05-.016.083s-.148.097-.2.085m-7.912-3.831c.038-.276.522-.59.8-.707.23-.105.48-.056.354-.222-.251.107-.438.226-.686.371-.027.015-.187.096-.24.13-.03.018-.05-.008-.088.02-.009.006-.03.075-.047.087-.06.038-.27.122-.293.144-.06.059-.001.077-.022.108-.07.102-.132.054-.202.155-.012.018-.016.115-.083.172-.027.023-.094.043-.112.065-.095.116-.167.272-.255.375-.073.084-.097.03-.138.073-.04.044-.032.138-.052.173-.032.056-.103.103-.114.12-.204.342-.323.677-.439 1.036q.165-.351.378-.666c.022-.15.032-.064.093-.137.05-.056-.02-.12.042-.198.032-.04.144-.096.186-.199.001-.003-.033-.039.015-.105.105-.15.268-.38.42-.521.045-.041.072.002.127-.043.04-.033.051-.108.118-.155.085-.06.173-.03.156-.16.03.027.052.059.082.084m5.24-.807c.013.01.13.202.137.06-.209-.165-.483-.242-.736-.35.052.151.213.148.395.21.009.003-.038.02.011.033.024.007.132-.005.193.047m-5.484 4.639a.8.8 0 0 1-.016-.436c.008-.033.041-.025.049-.038.013-.023-.016-.07-.016-.077.006-.037.063-.012.066-.017.033-.05-.037-.046-.033-.1.005-.069.037-.153.062-.232.009-.028.049-.004.063-.064.009-.042.003-.19.078-.229.02.007.038.023.057.033-.05-.113-.034-.144.037-.25.012-.016-.013-.049.015-.075s.077-.003.108-.065c.011-.022-.016-.054.002-.088.048-.1.2-.247.255-.316.105-.137.117-.253.24-.353.01-.008.023.04.039.025.015-.015-.01-.07-.006-.076.03-.053.174-.084.191-.112.045-.07-.031-.036.046-.117.075-.077.236-.107.329-.152.106-.052.086-.163.22-.113.268-.162.562-.283.867-.362l.012.066.062-.062v.051a.47.47 0 0 1 .337-.135c.003 0 0 .045.003.046.031.005.062-.032.09-.027.066.014.178.107.126-.01q.066.008.139.005c.114-.001.234-.01.334.017.061.016.07.088.099.096s.022-.054.032-.055c.065-.004.168.018.165.086l.054-.072c-.022.07.172.085.22.103.01.003.001.035.008.036.075.019.11-.024.179-.018.024.003-.03.044.036.042.005 0 .021-.05.09-.023.108.042.322.12.43.215.008.007-.05.039.001.053.019.006.032-.034.071-.01.154.092.277.24.438.33-.035.029-.116.026-.026.067.015.007.033-.031.04-.028.05.029.065.083.119.114.016.01.041-.01.063 0 .031.017.009.059.049.074.063.023.103.002.088.114.279.315.515.682.615 1.094.062.107.118.21.155.334.01.037-.044.055-.014.11.007.012.084.099-.03.13.014.024.016.04.025.062l.044-.058c-.004.098.044.172.069.258.018.064-.035.02-.028.06.007.038.019.056-.04.105.028.015.037.03.037.045 0 .022-.017.047-.02.088 0 .008.026.052.018.089-.005.026-.048.03-.045.072.001.007.046.099.048.128.003.046-.062.107-.064.115-.028.118.015.176-.091.24.048.03.06.108.04.164-.026.072-.176.175-.075.233-.078.063-.045.065-.083.16-.033.087-.182.285-.216.35-.032.067.04.069.033.099-.014.05-.04.002-.057.03a2 2 0 0 0-.127.24l-.088-.048.018.031-.037.046c.209-.03-.099.11-.162.168-.051.053-.09.19-.142.258-.013.016-.027-.02-.03-.016-.028.04-.017.064-.07.104-.028.022-.083.01-.11.03-.195.148-.372.314-.593.428-.038.02-.094-.015-.126-.002-.046.02-.058.073-.102.091s-.126-.008-.152.01c-.028.018.041.049-.019.055-.027.002.005-.05-.027-.04-.097.03-.226.115-.343.092l.024.029c-.116.02-.223.01-.342.02-.041.005-.113.045-.155.048-.042.002-.063-.033-.095-.033-.014 0-.007.033-.016.032a.4.4 0 0 1-.117-.024c-.056-.018-.106-.04-.177-.04a3.2 3.2 0 0 1-1.293-.27c-.017-.007-.047.026-.073.019-.041-.01-.025-.045-.03-.049-.027-.024-.03.014-.073-.01-.093-.05-.219-.168-.304-.228-.198-.136-.373-.246-.548-.41-.013-.013.032-.038.013-.06-.132-.16-.201-.164-.337-.389a3.8 3.8 0 0 1-.386-.977c-.116-.067-.121-.2-.068-.312.327.524.45 1.034.85 1.502.425.486 1.09.703 1.663.87.054.016.065.073.115.073.009 0-.003-.045.022-.044.207.01.414.052.626.068.143.01.285.01.42-.02.09-.02.097-.068.171-.095-.01.024-.014.048-.022.072.377-.002.728-.17 1.052-.36.015-.009.04.028.057.02.033-.017.034-.077.06-.096.032-.025.058 0 .087-.024.015-.012-.01-.036.026-.056.002-.001.026.026.044.006.052-.054.146-.174.183-.221.048-.06.13-.065.153-.084.062-.05.02-.088.064-.137.31-.35.592-.728.725-1.206.008-.03-.024-.154-.011-.208.005-.018.039-.112.042-.127.015-.059.058-.105.07-.138.023-.064-.03-.141-.034-.176-.006-.053 0-.14.003-.18v-.017c.004-.062.076-.043.058-.088-.005-.014-.06.002-.062-.044-.002-.04.039-.058.044-.085.006-.028-.063-.071-.063-.087 0-.088.036-.131.022-.227-.006-.08-.13-.428-.16-.449-.108-.104-.006.096-.006.11.006.068-.022.065.044.117-.133.093.143.25-.03.334.127.036.072.093.053.152-.026.082.04.016.044.075.002.023-.05.093-.041.127.007.03.043.045.051.082l.002.013a.3.3 0 0 1-.075.216l.064.043a3 3 0 0 1-.087.135l.061-.015.002.043q-.052.062-.108.123c.085.148-.004.093-.035.158-.031.064.02.122.004.176-.022.072-.026.107-.057.177-.018.04-.105.085.01.066-.042.132-.104.318-.204.404-.029.026-.03-.032-.038-.029-.03.017 0 .066-.024.09-.038.038-.128.1-.16.127-.045.04-.05.154-.053.164-.013.06-.065.035-.073.05-.047.089-.047.12-.152.063.02.052.004.189-.074.145.053.056-.021.108-.05.158l-.067-.03c.002.18-.248.241-.383.3-.003.002.02.055-.006.056-.002 0-.013-.024-.028-.02-.049.019-.245.048-.264.054-.072.032-.068.076-.112.098-.057.03-.08-.003-.134.023-.025.011-.033.068-.079.075-.027.004-.041-.033-.062-.03-.074.01-.12.049-.196.014.012.127-.04.043-.074.04-.135-.011-.29.062-.404.057a2 2 0 0 1-.188-.017c-.278-.04-.52-.13-.775-.217-.05-.018-.082.039-.135.017-.024-.01-.034-.062-.072-.077-.03-.012-.084-.007-.122-.024-.01-.004.005-.044-.01-.05-.11-.052-.23-.079-.349-.125-.044-.018-.038-.082-.084.007l-.006-.087c-.088.017-.095-.067-.173-.106-.008-.004-.103.01-.1-.053-.025.025-.04.052-.061.076-.038-.014-.056-.083-.072-.103s-.06.002-.066-.003c-.022-.02.025-.059.024-.061-.057-.135-.067-.1-.19-.1-.032 0-.074-.149-.147-.126.022-.02.047-.03.07-.046l-.06-.112-.05.073c-.033-.084-.129-.105-.166-.168-.022-.035.034-.064.01-.077-.005-.003-.037.026-.047.016-.083-.085-.07-.151-.113-.257-.02-.05-.11-.06-.094-.152.001-.01.036-.102-.07-.112.023-.025.033-.043.054-.062-.167-.041-.027-.065-.03-.193a2 2 0 0 0-.099-.34c-.016-.04-.071-.032-.075-.039-.019-.044.036-.05.022-.092-.014-.04-.08-.088-.077-.134.002-.034.071-.011.045-.06-.005-.01-.062.023-.041-.03a1 1 0 0 1 .077-.11c.036.044.087.164.106.208.221.795 1.1 1.99 1.866 2.25.064.03.088.102.132.123.044.02.023-.044.062-.027.04.017.058.063.097.077a2.4 2.4 0 0 0 .815.152c.072 0 .127-.048.19-.055.026-.003.033.054.05.051.196-.028.36-.122.541-.176.076-.022.174-.009.25-.037.062-.024.11-.083.16-.111.029-.016.064.014.076.011.042-.01.003-.049.021-.06.049-.027.107.012.15-.022.017-.013-.008-.046.014-.068.028-.028.037.011.061-.004.001 0-.02-.021-.008-.03.073-.061.15-.152.219-.21.141-.119.31-.218.427-.353.03-.034-.008-.048-.001-.06.033-.06.084-.054.11-.123.005-.011-.014-.08.02-.11.019-.018.061-.025.079-.04.017-.014-.024-.041-.012-.063.021-.04.045-.012.07-.074.01-.025.006-.123.034-.183.048-.098.134-.214.168-.342.012-.044-.023-.11-.01-.178.017-.081.05-.234.057-.32.004-.044.056-.044.058-.049.017-.034-.042-.023-.039-.045.005-.031.049-.06.052-.088.002-.019-.04-.022-.041-.026l-.002-.018c-.012-.139-.017-.262-.041-.398-.134-.766-.622-1.425-1.232-1.862-.052-.036-.025-.083-.078-.106s-.156.054-.135-.082l-.034.06c-.085-.087-.207-.101-.312-.136-.078-.026-.146-.053-.218-.076-.065-.021-.049-.064-.12-.02a2.5 2.5 0 0 0-.62-.124l-.252-.027c-.06.103-.13.05-.227.052-.012 0 .007.033-.028.036-.043.005-.077-.044-.149-.024-.02.005-.142.1-.202.09-.06-.014-.14-.003-.205-.01q.025.028.051.054l-.073.043-.044-.072-.013.093c-.091-.116-.04-.089-.096-.021-.028.033-.067.026-.096.058-.01.012.001.053-.01.066-.028.03-.037-.031-.058-.019s-.018.086-.07.085c-.021-.122-.116-.017-.07.06-.014.009-.027.014-.04.026-.114-.193-.093-.014-.1.03s-.043-.004-.047.003c-.014.019.014.028.002.039-.077.067-.174.104-.25.175-.01.01.022.024.008.034s-.05-.002-.066.018c-.004.005.016.027.008.035-.152.16-.3.315-.419.51-.01.018.027.058.007.092s-.09.065-.115.108c-.006.012.032.033.024.049-.028.05-.081.084-.11.14-.046.093-.054.205-.106.3-.01.019-.045.006-.062.033-.03.045.027.039.032.05.015.038-.057.033-.045.069.002.005.044.007.044.011-.005.067-.104.055-.063.136-.066.057-.069-.055-.096-.072-.068-.04-.166.021-.2.065-.029.037.017.042.015.058-.01.084-.01.21-.033.274-.014.039-.031-.033-.047-.013s.018.033-.02.053a.5.5 0 0 1-.201.056m5.448-2.443c-.214.052-.466-.145-.62-.24-.122-.082-.19-.259-.24-.062.144.064.267.104.407.197.014.01.09.081.118.105.015.013-.003.04.019.056.005.003.057-.013.066-.004.032.028.085.156.098.165.04.026.06-.024.081-.018.073.023.026.085.093.114.012.005.089-.015.118.028.013.018.012.068.023.078.065.057.164.102.207.17.035.057-.017.074-.003.105.015.032.088.03.105.049.026.028.022.085.028.095.132.188.26.357.35.566a3 3 0 0 0-.127-.454c-.09-.05-.024-.037-.039-.096-.012-.047-.096-.01-.12-.065-.011-.028.004-.12-.057-.16-.002 0-.044.022-.074-.016-.069-.087-.195-.2-.274-.294-.024-.028.017-.058-.01-.093-.02-.026-.077-.017-.107-.058-.036-.051-.009-.132-.112-.075.022-.032.048-.06.07-.093m-3.277-.37c-.01-.002-.17-.062-.08.042.164-.016.308-.103.473-.119-.09-.109-.17-.03-.272.021-.005.003.004-.037-.023-.02-.014.008-.047.078-.098.076"/><path fill="#000" d="m18.33 78.442 7.011.083-.014 1.196-5.591-.067-.04 3.394 4.903.058-.014 1.196-4.904-.058-.058 4.889-1.42-.017zm14.348 10.846-1.196-.014.014-1.226h-.03q-.412.711-1.044 1.049-.632.322-1.484.31-.762-.008-1.268-.209a2.1 2.1 0 0 1-.816-.592 2.24 2.24 0 0 1-.438-.888 5.2 5.2 0 0 1-.106-1.152l.06-5.083 1.272.015-.063 5.232q-.008.718.406 1.141.412.424 1.146.433.582.006 1.003-.168a1.9 1.9 0 0 0 .724-.5q.288-.326.428-.757.155-.447.16-.97l.053-4.366 1.27.016zm1.81-10.654 1.272.015-.127 10.674-1.271-.015zm3.016.035 1.27.015-.126 10.675-1.271-.015zm2.66 5.953 4.321.051-.014 1.196-4.32-.051zm6.001-5.85 7.012.084-.015 1.196-5.59-.067-.041 3.394 4.903.058-.014 1.196-4.903-.058-.059 4.888-1.42-.016zm14.348 10.846-1.196-.014.015-1.226h-.03q-.412.713-1.044 1.05-.632.32-1.484.31-.763-.008-1.269-.209a2.1 2.1 0 0 1-.815-.593 2.24 2.24 0 0 1-.438-.887 5.2 5.2 0 0 1-.106-1.153l.06-5.083 1.271.015-.062 5.233q-.008.717.405 1.141t1.146.432q.584.008 1.004-.167.435-.174.724-.5.288-.326.427-.757.155-.448.161-.97l.052-4.366 1.27.015zm1.702-7.71 1.195.015-.014 1.225h.03q.81-1.395 2.528-1.375.762.01 1.268.225.507.215.816.593.309.377.423.902.128.51.12 1.138l-.06 5.083-1.27-.016.062-5.232q.007-.717-.405-1.141-.414-.424-1.147-.432a2.6 2.6 0 0 0-1.018.167q-.42.174-.709.5-.288.325-.443.772a3.2 3.2 0 0 0-.146.955l-.052 4.366-1.27-.015zm8.008.096 1.196.014-.015 1.226h.03q.81-1.395 2.528-1.375.763.008 1.269.224.506.215.815.593.309.377.423.902.128.51.12 1.138l-.06 5.083-1.27-.015.062-5.233q.007-.717-.405-1.141-.414-.424-1.146-.432a2.7 2.7 0 0 0-1.02.167q-.42.174-.708.5-.288.325-.443.772a3.2 3.2 0 0 0-.145.955l-.052 4.366-1.271-.015zm13.338 3.283a2.5 2.5 0 0 0-.2-.855 1.95 1.95 0 0 0-.455-.693 1.95 1.95 0 0 0-.682-.471 2 2 0 0 0-.865-.19 2.2 2.2 0 0 0-.899.169q-.39.16-.678.455t-.457.697q-.169.388-.204.835zm1.2 2.167q-.27 1.299-1.144 1.946-.876.647-2.191.631-.927-.01-1.611-.318a3.2 3.2 0 0 1-1.126-.85A3.65 3.65 0 0 1 78 87.568a6.4 6.4 0 0 1-.234-1.632 4.7 4.7 0 0 1 .288-1.612q.278-.729.762-1.261.5-.533 1.162-.824.675-.291 1.468-.282 1.032.013 1.7.454.681.427 1.078 1.09.41.662.551 1.442.154.78.117 1.481l-5.786-.069q-.021.51.108.974.13.45.424.812.296.348.756.562.461.216 1.089.223.807.01 1.32-.359.528-.366.701-1.127zm1.31-8.208 1.271.015-.127 10.675-1.27-.015zm11.086 10.808-1.615-.02-3.625-10.718 1.525.018 2.94 9.29h.03l3.189-9.217 1.48.018zM102.778 81l-1.271-.015.019-1.555 1.271.015zm-1.287 1.375 1.271.015-.092 7.73-1.271-.016zm3.655 5.337q.009.418.186.72.176.285.458.468.297.168.654.247.373.08.762.084.299.004.628-.037.33-.041.6-.158.286-.116.468-.338a.97.97 0 0 0 .186-.596q.006-.494-.364-.752a3 3 0 0 0-.937-.414q-.551-.172-1.208-.299a7.3 7.3 0 0 1-1.222-.373 2.6 2.6 0 0 1-.919-.67q-.369-.422-.36-1.17.008-.582.266-.998.275-.416.681-.665a3 3 0 0 1 .932-.378q.525-.128 1.033-.122.658.008 1.209.134.552.111.967.4.431.275.679.756.249.465.285 1.17l-1.27-.016a1.25 1.25 0 0 0-.601-1.023 1.8 1.8 0 0 0-.566-.216 2.5 2.5 0 0 0-.612-.083 4 4 0 0 0-.583.038q-.285.041-.526.159a1 1 0 0 0-.392.294q-.152.177-.155.477a.75.75 0 0 0 .218.555q.236.213.593.366.358.14.805.25.447.094.894.204.478.11.924.265.462.155.803.413.356.245.561.62.219.377.213.93-.009.702-.313 1.162-.29.46-.771.739a3 3 0 0 1-1.066.376 6 6 0 0 1-1.168.106 5.4 5.4 0 0 1-1.224-.15 3.1 3.1 0 0 1-1.027-.445 2.35 2.35 0 0 1-.708-.816q-.263-.511-.284-1.23zm7.823-6.591-1.271-.015.019-1.555 1.271.015zm-1.287 1.375 1.271.015-.092 7.73-1.271-.016zm3.02-2.91 1.271.016-.048 3.991h.03q.322-.637.998-.915a3.6 3.6 0 0 1 1.484-.281q.897.01 1.551.347.668.337 1.095.91.442.56.658 1.294.215.736.205 1.558a5.3 5.3 0 0 1-.242 1.552q-.219.729-.673 1.278a3.06 3.06 0 0 1-1.117.839q-.661.306-1.543.295a4 4 0 0 1-.642-.067 3.6 3.6 0 0 1-.686-.203 3 3 0 0 1-.653-.366 2.2 2.2 0 0 1-.502-.59h-.03l-.012 1.032-1.271-.015zm5.9 6.814a3.7 3.7 0 0 0-.137-1.048 2.6 2.6 0 0 0-.423-.932 2.04 2.04 0 0 0-.739-.652q-.446-.244-1.059-.252-.643-.008-1.094.241a2.16 2.16 0 0 0-.741.664 2.8 2.8 0 0 0-.43.922 4.8 4.8 0 0 0-.132 1.06 4.5 4.5 0 0 0 .122 1.108q.128.524.407.932.294.408.755.667.46.245 1.118.252t1.095-.24q.452-.25.725-.665.274-.415.4-.952.127-.537.133-1.105m3.945-5.142-1.27-.015.018-1.554 1.271.015zm-1.287 1.376 1.271.015-.092 7.729-1.271-.015zm3.05-2.91 1.271.015-.127 10.675-1.271-.015zm4.267 1.606-1.27-.015.018-1.555 1.271.015zm-1.287 1.375 1.271.015-.092 7.73-1.271-.016zm4.705.056 1.539.019-.013 1.12-1.54-.018-.057 4.8q-.002.224.026.358.043.135.147.212.103.075.283.108.194.017.493.02l.583.007-.013 1.122-.972-.012a5 5 0 0 1-.852-.07 1.36 1.36 0 0 1-.565-.26 1.1 1.1 0 0 1-.308-.513q-.1-.33-.094-.868l.059-4.919-1.316-.015.013-1.121 1.316.015.027-2.317 1.271.015zm5.583 8.828a7 7 0 0 1-.46.952 2.3 2.3 0 0 1-.486.622 1.4 1.4 0 0 1-.587.352q-.315.116-.734.11a3 3 0 0 1-.448-.034 2 2 0 0 1-.432-.11l.013-1.166q.164.076.373.124.223.063.373.064.388.004.645-.187.271-.176.41-.518l.538-1.294-2.973-7.721 1.435.017 2.183 6.35h.029l2.243-6.297 1.346.016z"/><path fill="#fc6b7e" d="M73.701 17.531 73 8.56 92.939 7l.701 8.973z"/><path fill="#fc6b7e" d="M69.71 17.289c-.128-.316-.05-.75.077-1.084.04-.105.254-.07.291-.143.072-.143-.042-.263.046-.405.03-.048.369-.018.392-.067.128-.269.024-.505.075-.771.25-1.31.278-2.58.329-3.89.017-.433.28-.977.112-1.409-.02-.05-.311.004-.336-.004-.383-.125.215-.12.285-.227a1.3 1.3 0 0 0 .22-.59l-.33-1.506 1.988-.434c.23.025.453-.012.655-.09.16-.062-.05-.633.14-.318.014.021-.004.337.044.366.107.067.296-.003.377.015.155.037.18.032.324.025.197-.008.442.129.647.042.044-.02-.04-.335.027-.395.068-.06.26-.048.33.022s.062.325.078.381c.13.48.298-.211.325-.23.493-.325.964.025 1.448-.014.367-.03.75-.188 1.1-.198.418-.01.784.135 1.186.074.042-.006-.037-.378.015-.387.55-.087 1.103-.089 1.674.122.057.022.012.358.07.399.36.245.946.855 1.034-.599.234.039.516.075.744.349.147.176.046.546.197.38.034-.037-.039-.349.014-.38.222-.134.483-.051.699-.232.044-.037.009-.319.018-.37.079-.421.316.245.36.291.335.345.547.183.833.17.066-.003-.042-.377.021-.393a1.57 1.57 0 0 1 1.007.069c.075.032.034.36.071.393.163.138.15-.475.305-.355.033.025.037.303.045.333.125.47.148-.212.17-.228.268-.226.505.465.772.343.032-.015-.07-.36.022-.38a3.3 3.3 0 0 1 1.898.132c.099.036.052.304.06.336.137.499.147-.185.176-.213.23-.203.501.349.604-.472.846.16 1.652-.152 2.496.05l1.006-.22.29 1.329c-.05.208-.13.418-.258.631-.007.014-.343.017-.356.044-.164.328.35.227 1.002.384.164.04-.59.258-.646.277-.203.067-.704.053-.743.073-.304.167 1.338.015 1.354.206-.002.006-.307.005-.336.023-.09.057.034.097-.067.154-.232.13-1.028.233-.55.367.063.017.993-.089.962.085-.013.07.026.37-.028.459-.053.089-.358.054-.37.061-.38.258-.552.185-1.131.345-.577.16.818.019.977.053s-.155.226-.266.276c-.11.05-.306.014-.367.055-.403.274.702.052.93.114.54.146-.485.373-.574.553-.023.048.21-.008.235.031.097.157-.219.281.092.444.051.027.686.129.236.262-.064.019-.326 0-.378.074-.079.11-.12.303-.026.408.07.078.489-.05.365.064-.055.051-.311-.015-.395.079-.083.093-.055.313-.04.397.016.083.335.012.357.017.128.031.296.18.297.195.096.715-.397 1.42-.162 2.104.018.054.356-.009.362-.001.157.177-.76.1-1.052.254.69-.073.57.014.656.14.042.062.307.006.335.01.414.063-.106.17-.212.195-.39.093.082.125-.179.188l-.032.007.09.413-.544.119c-.024-.12-.024-.262-.03-.379l.127-.027-.021-.096a1 1 0 0 0-.105.008l.002.008-.01.002c-.011-.08-.031-.13-.078-.124-.016.25.128.889.04 1-.332.425-1.05-.029-1.347-.058s-.386.023-.563-.053c-.32-.138-.17.333-.343.567-.174.235-.174-.953-.221-1.204-.047-.252-.056.012-.1-.125s.014-.315-.068-.361c-.083-.046-.263.422-.27.69-.015.566.128 1.148-.097.957-.013-.012.002-.325-.046-.352-.383-.21-.763-.196-1.144-.379-.052-.025-.034-.374-.065-.393-.32-.197-.166.376-.282 1.036-.03-.863-.163-1.383-.394-1.37-.138.008-.085.382-.154.654-.02.082-.139-.169-.142.01-.014.581.129 1.22-.128.982-.012-.011-.003-.33-.04-.347-.243-.107-.224.5-.47.592-.192.073-.571-.268-.8-.31-.071-.968-.266-.73-.3-.056-.147-.016-.302.034-.45-.047-.05-.028-.04-.31-.05-.34-.13-.468-.142.186-.172.214-.321.274-.637-.196-.925.31-.01.018.024.691-.101.208-.008-.034.075-.348-.08-.36-.155-.011-.471-.349-.659-.02-.046.078-.133.634-.27.216-.019-.057-.019-.251-.047-.357-.092-.336-.074.346-.195-.225s-.314-.991-.497-.576c-.006.012-.014.554-.082.55-.11-.005-.27-.105-.383-.093-.053.006.008.338-.001.345-.347.215-.628-.063-1.025-.162-.073-.018-.24.453-.406.104-.182-.383-.155-2.036-.472-1.618-.127.167-.141 2.263-.477 1.204-.467.305-.96-.211-1.42.208-.02.019-.044.605-.097.602-.077-.007-.14-.276-.197-.29-.236-.063-.428.186-.652.167-.085-.007-.077-.29-.179-.298-.101-.007-.139.368-.289.2-.113-.128-.274-.876-.417-.954.053.746-.042.738-.193.948-.028.04.026.297.013.33-.05.139-.124-.072-.171.078-.012.036.007.29 0 .335-.07.382-.277-.177-.313-.275-.137-.37-.16-.035-.255-.178-.093-.143.015-.339-.088-.422-.213-.171-.465-.11-.667-.106-.081.003 0 .338-.01.347-.16.099-.356-.25-.396.435-.252-1.741-.087.177-.352-.154-.02-.027-.11-.853-.047-.98s.192.123.277-.074c.02-.046.094-.833.11-.881.115-.378.232.857.245.924.144.726.244-.122.283-.183.179-.28.362-.12.513-.321.1-.131.047-.942.135-.924.29.06.478 1.182.67.181.04-.213-.086-1.094.175-.414.016.043.218.668.275.258.008-.052-.013-.31 0-.332.087-.148.168.052.267-.055.1-.106.216-.263.345-.185.078.046.21.52.254.635.126.331.189-.233.283.173s.022 1.044.205 1.298c-.046-.671-.086-1.36-.13-2.035.36-.005.727.185 1.082.127.044-.008-.03-.365.017-.382.197-.073.392.17.592.051.155-.093.301-.488.462-.598.163.76.393.48.58.536.065.019.077.224.127.287.19.234.057-.437.096-.548.165-.47.302 1.062.535 1.006.013-.003.102-.832.12-.885.107-.343.044.283.132.337.162.098.284.285.445.032.047-.075.133-.595.265-.209.018.05.031.322.043.337.216.248.155-.601.244-.898.089-.296.307.277.355.443.126.43-.055.192-.057.236-.019.515.1.417.2.453.079.832.209.771.102.033-.012-.08-.08.003-.103-.033.02-.824.16-.94.383-.19.104.353.064.776.284.605.1-.077.014-.648.095-.811.184-.373.501.14.713.039.077-.037-.025-.345.027-.381.137-.097.282.13.418-.003.012-.012-.046-.338-.001-.346.337-.065.65.123 1.006.1.172-.01.465-.216.646-.193.313.037.73.485.984.349.166-.088.103-.414.16-.643.107-.446.42.312.463.43.001.004-.14.093-.048.256.073.348.046-.254.048-.256.028.076.33.128.383.06.03-.037-.013-.347.003-.36.373-.31.763-.42 1.175-.305.007.005.024.354.041.364.244.136.36-.301.531-.57.171-.267.33-.194.49.395.138-.087.366.161.498.313.131.15.095-.529.104-.543.294-.455.513-.081.857-.047.104.01.267-.035.415-.092l-2.514 2.94a2 2 0 0 0-.102-.229c-.071-.133.081-.229-.03-.348-.015-.016-.316.025-.328.02-.372-.113.371-.103.501-.142.471-.144.721-.23.482-.393-.055-.038-1.128-.077-1.196-.149-.087-.093.297-.085.197-.182-.008-.008-.243.012-.238-.053.022-.302.133-.637.086-.945-.006-.042-.375.041-.389-.02-.067-.283-.077-.598.075-.891.04-.072.303-.05.38-.07.462-.129-.23-.206-.245-.226-.367-.486.22-.926-.115-1.424-.02-.027-.767-.189-.148-.335.04-.01.674-.157.23-.208-.029-.003-.354.083-.328-.024s-.209-.26.143-.432c.11-.055.741-.212.221-.309-.036-.006-1.205-.126-.416-.263.13-.022.972-.075.528-.204-.086-.025-.269.046-.393-.026-.19-.111.022-.295-.364-.42-.069-.021-.649-.091-.223-.217.067-.02.35-.014.378-.065.133-.242-.074-.469.102-.718.062-.088.52-.081.634-.177.115-.096.218-.279.004-.353-.215-.074-.93.081-1-.05l-.024-.05 3.886 3.322c-.555.25-1.153-.106-1.728-.122-.088-.003.005.25-.123.266-.472.056-1.271.363-1.725-.155-.364-.415.024-.783-.241-.943-.129-.076-.194.775-.221.804-.266.292-.494-.066-.743.069-.051.028.028.365-.016.385-.15.071-.325-.068-.47-.029-.066.018-.033.278-.096.263-.15-.034-.287-.133-.449-.367-.014-.02.048-.351-.061-.355-.176-.005-.412-.229-.594.036-.054.079-.01.674-.17.273-.034-.083-.055-.8-.157-.172-.017.105-.203.958-.368.43-.043-.138-.172-.717-.237-.62-.008.016.056.333-.001.369-.202.12-.424.103-.632.22-.055.032.056.356-.027.393-.23.102-.53.041-.769-.044-.088-.032-.05-.311-.059-.34-.137-.478-.145.181-.175.222-.187.245-.368-.05-.55.046-.051.025.01.335.002.364-.086.28-.05-.287-.123-.343-.205-.16-.416-.119-.606-.064-.07.02.038.377-.025.391a1.75 1.75 0 0 1-1.15-.083c-.073-.033-.051-.315-.07-.377-.135-.438-.233.18-.262.241-.132.277-.21.035-.342.091-.64.28-1.467.181-2.096.129-.82-.067-1.47-.283-2.237-.154-.049.008.03.375-.012.387-.54.132-1.088.03-1.627.179-.045.012.047.358-.023.389a.52.52 0 0 1-.49-.04c-.078-.049-.004-.358-.08-.4a.6.6 0 0 0-.537-.041c-.073.03.068.381-.029.393-.202.027-.403.056-.605.072l3.511-4.106c.035.455.002.915-.285 1.404-.028.048-.756.146-.608.232.203-.008.442-.027.659-.041.192.954.013 1.927.05 2.896.001.041.383-.06.388.02.03.456.172.89-.177 1.388-.034.049-.717.078-.603.207.02.022.127.22.28.262.022.006.338-.056.352.01.078.38.037.79-.127 1.189-.027.064-.37.025-.393.07-.155.328.129.649-.155.973-.192.216-.783.188-1.35.34-.08.02-.084.146-.418.178-.842.083-1.77.095-2.666.19-.193.02.028.17-.447.108-.032-.005-.197-.113-.358-.13-.111-.012-.449.052-.593.02-.143-.03.139-.1-.031-.156-.173-.057-.558.004-.615-.132m22.933-2.687c.136.317.059-.877-.038-.583-.005.016.031.567.038.583M79.31 15.833c.186.515.224-.266.09-.664-.133-.398-.146.508-.09.664m-1.465.501c.2.402.095-1.291-.059-.935-.009.02.047.912.059.935m-3.21.395c-.015.003-.023.093-.008.094.383.018.4-.163.009-.094m1.758.14c.07.224.202-.052.114-.331-.07-.225-.201.051-.114.33m16.7-5.753c.017-.003.028-.069-.072-.06-.323.03-.225.112.072.06m-19.22 5.97c.377.034.712 1.413.294 1.287-.076-.023.124-.458.02-.576-.189-.216-.234.67-.445.213-.038-.083.109-.93.131-.927zm18.946-1.057c.003.016.093.024.094.008.018-.382-.163-.399-.094-.008m.72-8.703c.033-.007.048-.215.016-.22-.627-.058-.66.362-.017.22m-6.615 10.042c-.067.389-.179.443-.293-.03.098.018.195.014.293.03"/></svg>