<svg xmlns="http://www.w3.org/2000/svg" width="190" height="38" fill="none" viewBox="0 0 190 38"><path fill="#ed2f24" d="m18.975 27.32 9.776 5.9-2.594-11.12 8.637-7.483-11.374-.98-4.445-10.473-4.445 10.472-11.374.98 8.622 7.483-2.579 11.12zM56.944 27.32l9.776 5.9-2.594-11.12 8.637-7.483-11.374-.98-4.445-10.473-4.445 10.472-11.374.98 8.621 7.483-2.578 11.12zM94.909 27.32l9.776 5.9-2.595-11.12 8.638-7.483-11.374-.98-4.445-10.473-4.445 10.472-11.374.98L87.71 22.1l-2.578 11.12zM132.877 27.32l9.777 5.9-2.595-11.12 8.637-7.483-11.373-.98-4.446-10.473-4.445 10.472-11.373.98 8.621 7.483-2.579 11.12zM170.842 27.32l9.776 5.9-2.594-11.12 8.637-7.483-11.374-.98-4.445-10.473-4.445 10.472-11.374.98 8.622 7.483-2.579 11.12z"/></svg>