<svg xmlns="http://www.w3.org/2000/svg" width="278" height="268" fill="none" viewBox="0 0 278 268"><path fill="#0ba6e2" d="M136.352 14.19c-.12.128-.622.624-.835.843.212-.277 1.268-1.305.835-.843m-19.735 24.551.51-.565c-.51.51-1.183 1.205-1.66 1.675-.077.076.099-.148-.083.036-.183.183-.117.178-.378.45-.293.304-1.669 1.661-2.138 2.139-1.754 1.787-3.508 3.605-5.28 5.381 1.794-1.869-.059-.03-.558.497-.11.117-.036.153-1.873 1.992-1.167 1.169-.178.002-2.07 2.007 1.542-1.456.077.026-1.086 1.212-.201.205-1.831 1.846-2.545 2.576-.244.25-.588.66-.913.99-.223.228-.408.385-.74.723a1480 1480 0 0 1-4.624 4.7c.83-.995-.744.693-.82.763-.39.356 1.275-1.35.601-.69l-2.765 2.825c.768-.762-.94 1.084-1.29 1.389.21-.08-4.269 4.225-4.91 4.92-.133.145.804-.74-1.308 1.376-.228.229-.162.121-.28.244-.07.074-.437.576-.933 1.008-.18.159.852-.975-1.49 1.44 1.004-.891-3.236 3.36-4.027 4.132l.49-.446c-.79.755-.905.918-1.08 1.092-.7.702-1.677 1.652-2.323 2.312-.756.773-.718.816-1.617 1.698l.656-.613-1.837 1.855c1.36-1.49-.308.308-.42.424-.178.185.06-.1-.24.21-.03.032.035.006-.428.482-.967.993-.84.81-1.248 1.226-.037.038.113-.077-.588.645-2.227 2.291-.003-.026.08-.116.11-.118-.736.587 1.195-1.321-.648.64-.747.672-.82.744-.064.065-1.167 1.195-1.227 1.258-.532.565-.03.102-.132.213-.083.092-1.448 1.418-1.69 1.806-.703.584.308-.432 1.369-1.53.143-.172-1.046 1.01-1.108 1.073-1.516 1.542-.623.741-.92 1.112-.156.195-.81.787-.192.254-1.37 1.404-.564.528-.657.615-.14.13-.608.633-.67.693-.091.087.2-.242-.155.107-.06.058-.592.657.146-.066-.972.98-.868.924-1.246 1.209-.573.77-.539.438-.807.7-.712.696-.436.562-.47.603-.23.28-2.189 2.221-2.657 2.718.136-.244 1.532-1.558 1.822-1.874.968-1.052-1.438 1.41-.777.605l-.86.984c-.602.526.173-.299-1.317 1.247-.209.286 1.059-1.088.825-.792-.138.174-1.007 1.065-1.015 1.091-.007.028.77-.786.661-.643-.235.31-3.146 3.202-.976.956-.61.622-.996.872-1.503 1.432-.328.362 1.697-1.5-1.212 1.422-.095.029 1.146-1.185 1.175-1.22.04-.049-.255.1-.297.136-.147.124-3.059 3.166-3.72 3.762.29-.207-2.224 2.276-2.48 2.563-.068.077.227-.169.153-.089-.462.504-1.806 1.774-2.408 2.384-.674.683-.566.619-.604.657-.297.3-.076.044-.257.228-.273.278-2.155 2.185-2.246 2.284-.027.029.306-.256-.098.165-.07.073-.057-.004-1.256 1.243-1.444 1.501 1.054-.993.48-.344-.986.908-.909.923-1.167 1.178q-.02.021-.082.077c-.178.159-.636.602-.931 1.192a5 5 0 0 1 .878-1.243l.155-.161-.158.157c-.445.415-.924 1.205-1.073 1.586-.084.205-.074.013-.22.475-.014.05-.019.179.013.143.038-.035.075-.244.312-.825.075-.074-.194.457-.248.729-.008.042.004.212-.093.547-.013.041-.027-.173-.072-.103-.021.067-.217.447.015 1.646.016.076 0-.195.016-.12 0 .052.12.656.152.719.022.066-.032-.227-.005-.149.136.397.236.963-.039.122q.104.432.281.846c-.065-.322.212.416.469.742.812 1.036 1.093 1.048 1.04 1.022-.033-.046-.265-.266-.088-.135.592.381.05.228 1 .691.045.021-.212-.122-.202-.131.02-.033.239.226 1.466.491a5 5 0 0 1-1.062-.296c.155.186 1.286.362 1.373.339.323.029.47.026.577.028.273.002.293.006 1.574-.02.17-.004.538.015.9.005 1.498-.038-1.978-.023-2.074-.054-.045-.015 3.694-.011 3.823-.004.545.032-1.695.014-1.268.053.156.015 5.485-.014 6.554.001 1.234.018 1.789.122 1.797.005.348.114.656.036.813.037 1.908.011 1.912.012 3.548.001.361-.002.666.032.794.026.074-.003-.065-.04.3-.052.506-.015 3.547.023 3.773.043.226.021-1.284.009-1.013.043 1.093.003 2.142-.005 3.242-.001.457.001.222.025.42.025.084.001 1.662-.02 1.596-.029-.157-.02-5.032-.007-3.748-.048.248-.008 1.123.047.983-.02l13.065.045c-2.502.05-5.318.006-7.939.01-.359.001-1.573-.006-1.425.028 2.228.009 4.999-.009 7.139.013.068.001-.183.031.073.035.48.009 2.041-.039 2.304-.027.045.003-.844.043-.574.068.694.064.87-.078 1.466-.077.461.002 3.56.071 4.332.027.82-.046-2.284-.027-2.054-.065 2.1-.038 4.227.003 6.212-.002.035 0-.269-.03.174-.034.77-.008.973.035 1.348.042.405.007 1.835.001 2.026.016a3 3 0 0 1-.309.045c-.623.018-.844-.037-.901-.038-.213-.002-.422.019-.617.018-.32-.002-.496-.021-.918-.023-.292-.001-.01.036-.291.034-.103-.001-1.216-.085-1.32.001-.031.027 9.063.062 9.971.04l-2.339-.031c1.584.026 3.486-.043 3.62.059l17.615.025c1.048.008.473.074 2.198.055l-1.337-.063c.884.015 4.801.043 5.435.03.082-.002.196-.061 1.175-.066.869-.005 1.008.04 1.473.048.389.007.827-.004.943-.002.089.002.124.029.337.034.675.015.128-.062.798.026l-.489.01c.814.013 1.926.053.727.072-.206.004-.029-.023-.183-.023-6.02.005-1.213.057.897.016.542.039 3.578.015 3.679.023.141.011-.379.042.302.069.144.005 4.204-.016 2.742.035-.302.011-2.249 0-2.718.001 1.104.083 3.693-.035 3.984-.032 1.174.013-2.256.071.389.081 2.034.007.124-.048.907-.071.439-.014 2.741.047 2.678-.032.79-.008.328.034.426.037.095.002 1.648-.021 2.153-.005.061.002-.132.043-.069.047.123.005 1.621-.003 1.682-.006.038-.003-.319-.039-.172-.047.171-.01 1.612-.002 1.692-.012.112-.016-1.668-.005-1.371-.045.82.01 2.157-.017 2.698-.049-.133.009-.928.01-1.204.007.13-.059 1.838-.058 1.254-.011.371-.025.118-.039.327-.062.054-.006.582-.007.683-.017.014-.002-.53-.025-.422-.037.198-.021 1.796-.016 1.927-.011.369.016-.935.036-1.044.061-.015.003 1.094.052 1.11.056.065.046-1.169.013-1.027.054l.915.027c-1.177.041-3.354.02-3.916.068 1.745-.015 3.571-.013 3.567.094-.001.046-.754.072-.724.084.111.041 1.156-.004 1.194-.002q.047.004.046.008c0 .024-1.489.041-1.564.052-.125.02.538.1.537.118-.023.003-1.084.022-.726.053.362.032 1.29.032 1.323.036.177.018-1.447.035-1.495.047-.026.005.846.04.872.049.021.01-.641.032-.903.063-.194.024.373.041.273.045-.071.002-1.606.002-1.681.006-.113.006.247.034.195.041-.075.01-.57 0-.506.01.049.008 1.97.104 1.957.129-.022.044-2.056-.056-.163.116.013.001.474-.011.487-.01.284.032-1.193.08.613.072-3.36.055-.418.065-.915.139-.192.028-1.494.04-1.5.044.126.036.541.008.682.026.078.01-1.088.048-.825.072.135.013 1.372.008 1.423.011.49.023-.11.048-.003.065.072.011.818.012.838.014.031.004-.983.049-1.194.065-.16.012.442.031.33.036-.675.032-2.11-.049-.727.064.085.007.608.004.623.006.324.032-.64.035-.812.061-.296.045 1.089.02-.063.052.864.029 1.346.028 2.356.02-2.799.023-3.787.14-.679.137-.989-.002-.879.064-1.174.066-.183 0-1.617-.066-.959.082.082.018.953-.005.68.033-2.09-.01-.044.024-.042.029-.027.087-5.134.015-6.011.025-1.018.012-1.923.08-2.144.08-.729 0-.124-.034-.287-.047-.165-.013-2.236.054-2.339.05-.401-.015.006-.056-.036-.058-.496-.025-3.277.007-4.056-.002.024.026 1.587.028.611.071-1.136.05-1.201-.067-1.231-.073l-15.62.004c.065.062 3.469.015 3.546.023.455.049-5.295.048-6.001.026l1.608.041c-.915.072-2.94-.022-4.264.01-.427.01.394.038.377.04-.481.028-1.252.006-.675-.031-1.174.036-1.002-.004-1.902-.007-.047 0 .34.029-.373.041-.333.006-2.113.006-2.352.031-.098.011.805.124.917.027 1.936.047.618-.044 1.371-.042.115 0-.15.054 1.744.029-.361.098-2.542.025-2.916.036-.771.025 2.406.075 2.989-.001-.272.076.225.01.934.013.775.004.437.027.857.027 1.147 0 .671-.054 1.617-.005-.922-.15 1.619-.02 2.36.019l-3.615.023.207.024-.952-.003.152-.023c-1.636.049-2.036-.006-2.169-.007-1.718-.006-3.702-.006-5.439-.006-.26 0-.081.049-1.981.011-.605-.012-.033-.051-.72-.045-.859.104-.843.021-1.098.021-.733 0-1.181.026-1.249.026-.905.004-2.231 0-3.226.004-.019 0 .499.032-.147.022-.227-.003-2.262-.139-4.04-.095l1.387.028c-.544-.013-4.356.021-3.424.058.571.022 1.966-.066 2.12.019-1.27-.026-8.276.012-8.821-.007-.076-.003.389-.031.284-.034-.08-.003-1.685.004-1.898-.007-.127-.006.582-.023.524-.033-.05-.007-2.054-.019-2.169.016.492-.014 1.876-.002 1.15.027-.093.004-.577-.019-.69-.014-1.052.042 2.092.032 2.578.032-1.975.044-5.029-.007-7.317.021-.924-.029 1.37-.044.325-.067-2.17-.049-.578.039-.645.043-.539.029-2.375-.126-2.376-.008-.787-.018-.532-.033-1.642-.017l.438.024c-1.233.068-3.841-.104-3.646-.117.526-.035 1.885.02 2 .018.172-.002.647-.121 2.527-.014.77-.08-2.98-.054-1.274-.109-1.152.009-5.89-.047-6.573-.011-.082.004.298.084-.873.043-.556-.019.784-.02.53-.038-.783-.056-11.427-.02-13.45-.017-.13 0-.082-.025-.211-.025-.396.001-1.84.038-2.55.027 1.47.045-1.383.049-2.109.044-1.101-.008-1.033-.051-1.509-.061a54 54 0 0 0-.725-.007c-2.112.118-4.762-1.251-5.603-2.473-.087.196-1.727-2.368-1.805-3.756-.218-1.033-.14-2.6-.223-1.153-.073-1.856.69-3.82 1.843-5.097.19-.211-.055.095.275-.261.012-.013.022-.03.047-.063.034-.046.098-.128.25-.285 2.04-2.107 1.081-1.049 1.478-1.428.222-.212.385-.37.502-.487l-2.187 2.242a8 8 0 0 0-.801.961c.108-.119.39-.503.822-.941.84-.854 2.09-2.169 2.574-2.645.024-.024-.035.084-.01.06l.001-.002c.259-.259 1.887-1.932 1.52-1.618-.097.085-.85.851-1.742 1.762.237-.252.03-.095.07-.139.505-.539 1.8-1.802 2.252-2.256.104-.104.08-.113.096-.131.413-.412.295-.192.663-.669.803-.692-1.379 1.42-1.189 1.307.146-.087 4.858-4.91 4.796-4.944.021-.011.093-.071.233-.199.312-.285 1.623-1.628 1.842-1.868.036-.04-.026-.071.02-.12.119-.122 1.764-1.721 2.337-2.359l-.993.97c1.959-1.993 1.642-1.699.975-1.049l-.098.095c-.516.505-1.175 1.154-1.188 1.161-.052.023 3.265-3.364 2.67-2.671-.084.097-1.642 1.641-.849.897.139-.13 1.118-1.143 1.173-1.192.37-.33-1.757 1.892-1.46 1.656.492-.562 1.18-1.23 1.773-1.848.27-.281.313-.372.346-.407.498-.518.24-.206.407-.378.09-.092 1.03-1.153.915-.891 3.217-3.378.851-.972-1.15 1.071.607-.67 1.862-1.921 2.414-2.494.198-.206.055-.11.388-.458.686-.717 4.035-4.066 4.907-4.94-.523.549-.34.417.068-.002s.028-.103.104-.188c.082-.091 2.023-2.031 2.339-2.362-1.436 1.486-1.083 1.18.15-.068l-.51.565c.71-.744 2.265-2.245 2.67-2.68.063-.069-.194.148-.158.11.356-.38 1.622-1.623 1.672-1.689.043-.056-.506.465-.318.256.039-.044.58-.534 1.076-1.054.184-.192.051-.099.097-.147.382-.41.186-.14.897-.874.521-.538.878-.97 1.615-1.696-2.427 2.38-.405.36.578-.666.158-.164-.017-.062.956-1.014-1.962 2.132.615-.553 1.15-1.096.03-.03.064-.015.327-.28.022-.023-.027-.007.215-.256 2.296-2.359.84-.84 1.294-1.269.194-.182 1.293-1.347 1.594-1.655.07-.07.056-.021.324-.295.474-.485.882-.937 1.194-1.258.037-.037.066-.011.653-.625.164-.173.343-.374.097-.14-.815.776-2.265 2.341-3.182 3.221-.837.803 1.723-1.805 1.857-1.94.048-.05-.438.472.073-.042.436-.439 1.182-1.293 1.84-1.94.05-.05.607-.535.585-.509-.02.024-.805.84-.677.734.015-.013.519-.526.594-.584.09-.072.413-.19.523-.297.284-.274.08-.115.26-.295.387-.386 1.748-1.709 1.755-1.788l-.665.664c1.219-1.247.682-.732.848-.915.18-.197.159-.112.574-.528.09-.091 1.808-1.85 1.764-1.832-.933.99-.619.592-.663.636-.17.168-.361.406-.586.634-1.58 1.6-.025-.052-.406.318-.131.127-.368.405-.423.46-.18.176-.207.155-.323.277-.27.284.085-.008.066.016-.224.271-1.214 1.223-.653.576-.374.353-.37.441-.673.713-.604.54.255-.314.48-.554.803-.862 1.066-1.093 2.23-2.288.418-.43.894-.96 1.089-1.16.122-.125 1.362-1.23 1.274-1.385.463-.447 1.253-1.089 1.715-1.565.414-.428.238-.336.275-.377.057-.064.566-.574.73-.754.194-.21.077-.125.388-.455.774-.82.798-.755.882-.835.977-.927.5-.569.705-.786.063-.068.415-.422.875-.885.914-.92 2.257-2.271 2.629-2.67l-.675.739c.446-.398.845-.894.902-.853.005-.165.922-.991 1.18-1.257.101-.105.08-.11.207-.24.498-.511 1.636-1.647 1.9-1.93 1.144-1.222-1.905 1.78-2.144 2.017.473-.48 3.13-3.217 1.862-2.005-.196.188-.497.565-.602.675-.713.744-.177.135-.237.19-.1.092-.546.606-.675.73-.043.041.198-.261-.492.439.311-.373 2.27-2.319 2.518-2.584.088-.094-.54.424 1.176-1.204l-.074.042 2.761-2.82c-.087.114-.579.666.068-.003.372-.385.066-.13.099-.166.329-.35 6.306-6.408 7.459-7.587.393-.4 1.466-1.538 1.549-1.624.498-.51 2.283-2.295 2.633-2.657.218-.227-.015-.037.183-.236.184-.185.018.03.073-.024.459-.45 3.851-3.96 4.685-4.764-.503.499-2.935 3.064-2.869 3.03.013-.01.633-.605.749-.74.225-.188.869-.965 1.264-1.343.045-.043-.092.165.599-.525.237-.238.828-.891 1.479-1.493.885-.929 5.657-5.692 5.945-6.058.008-.012-.671.653-.236.18.578-.627.108-.015.811-.717.106-.106 2.038-2.085 2.098-2.153.549-.634-1.161 1.073-1.141 1.045.048-.071 1.449-1.51 1.509-1.565.057-.053-1.041 1.164.319-.257l-.492.464c.637-.671.734-.7.893-.858.496-.49.972-1.08 1.82-1.811.224-.194-.1.175-.072.15.272-.229.527-.613.948-.947.031-.026-.811.887.71-.66l-.328.306c.205-.227 1.739-1.8 1.949-2.008.612-.608.116-.04.721-.662-.434.353 1.41-1.533 1.341-1.388.211-.31 1.819-1.871 2.559-2.621.467-.474 1.397-1.46 1.548-1.609.183-.18.161-.093.494-.417.095-.092 1.041-1.102 1.926-1.934.171-.162.572-.46.279-.135-.501.557-1.538 1.523-1.493 1.542.049.019 1.366-1.361 1.731-1.723 1.683-1.669.76-.657.814-.69.138-.085 1.045-1.01 1.085-1.046.168-.149-.454.527-.447.553.01.033.924-.819.732-.61-.275.3-1.111 1.086-1.161 1.14-.643.695.317-.181.592-.412.084-.07-.207.25-.142.188.996-.945.133-.275.78-.919.577-.574-.125.205-.101.185.03-.027.715-.72.833-.817.059-.048-1.653 1.819-1.55 1.772l1.68-1.746c.081-.008-.76.793-.841.882-.162.18.33-.282.321-.25-.003.018-.531.609-.019.11.164-.16.466-.511 1.035-1.053q.067-.065.142-.131l-.136.138c-1.964 2.063-.489.604-.413.553.076-.052-.936 1.039.325-.253.127.015-.005.05-.352.428-.425.463.617-.548-1.011 1.07.125-.059 1.417-1.377 1.488-1.444.062-.058-.209.251-.101.152l.301-.274c.877-.733.153-.109.534-.373.018-.057 1.406-.935.368-.24a6.6 6.6 0 0 0-.814.7c-1.062 1.074-1.571 1.556-1.707 1.864a46 46 0 0 0 1.777-1.795 6.2 6.2 0 0 1 1.299-1.055c.68-.373-.014.034.076-.003.026-.022.621-.317.634-.311.33-.052-1.071.433-1.989 1.39-.457.452-.89.881-1.136 1.14l.652-.592-.835.852c1.352-1.328.056-.04-.212.36-.061.09.788-.822-.168.23.743-.738.522-.487 1.169-1.181.008.042-1.459 1.592-2.037 2.205 2.114-2.092.832-.975 2.684-2.759a1 1 0 0 0 .061-.081q.01-.017-.006-.006c-.079.053-.593.58-.542.52.105-.123.289-.307.518-.544a9.5 9.5 0 0 1 1.047-.923c.131-.092-.482.206.39-.292.095-.06.696-.278.691-.265-.071.051-.644.302-.658.333-.02.014.61-.285.617-.274.032.022-.525.246-.44.223.088-.037.717-.269.954-.307.249-.011.002-.11-1.412.655 2.409-1.16.205-.33-.588.376-.204.17-.244.228-.506.496l-.035.037c-.348.366-.757.767-.935.954-.198.208.987-.919-.682.755a55 55 0 0 0 1.666-1.66 5.4 5.4 0 0 1 1.619-1.149c1.03-.398.674-.233.042.065-.639.3-1.413.967-1.534 1.115-.071.072.195-.142.148-.093-.014.014-.078.073-.169.165-.447.453-1.547 1.562-1.661 1.709-.14.179.589-.6.658-.632.047-.022-1.873 1.976-.813.915.532-.531 1.356-1.421 1.874-1.934.173-.171.318-.282.391-.316a5 5 0 0 0-.364.342l-2.789 2.86 1.815-1.717c-1.19 1.223-2.248 2.25-3.354 3.436 2.799-2.71-.832.955-.864 1.003-.008.019 1.122-1.02 1.305-1.185-.931.989-3.814 3.941-2.053 2.287-.322.297-1.028 1.092-1.016 1.084.125-.066 1.729-1.735 1.491-1.44-.275.344-.748.738-1.216 1.222-2.404 2.48-1.582 1.96-4.035 4.403l.162-.13-7.945 8.023c-.985 1.098-3.703 3.92-5.059 5.288-.273.275-1.632 1.607-1.737 1.705-.195.181.827-.865.347-.41-.101.097-2.371 2.384-2.182 2.246.256-.255 1.035-1.073 1.171-1.199.956-.881-6.045 6.164-6.372 6.533l.489-.445zm18.029-22.664c.237-.295.918-.947 1.301-1.352.53-.559 1.343-1.594 1.052-1.09zm-11.623 11.737c.546-.526.192-.05-.268.37-.051.046-.471.341.268-.37m5.599-5.637-.499.504c-.436.395.954-1.008.499-.505M101.737 49.57c.583-.598.106-.22-.236.172-.022.025.198-.133.236-.172m.418-.422c.502-.416 1.322-1.442.604-.692-.07.073-.627.71-.604.692M124.94 25.91c-.041.078-.598.627-.837.86-.01-.022.61-.625.837-.86m-13.894 14.136c-.009.038 1.896-1.9 2.007-2.051-.293.314-1.998 2.016-2.007 2.05m-4.866 4.988c.05-.047.705-.72.673-.713-.338.31-.902.923-.673.712m-9.714 9.873c-.032.04.541-.383-.68.753-.179.167.412-.477.349-.418-.134.124-.237.224-.319.306.538-.56 1.1-1.137 1.16-1.188.279-.238-.495.53-.51.547m-5.039 5.243c-.099.127-.821.848-.99 1.008-.029.027.059-.13-.261.2-.257.265.165-.093-.344.413-.516.513.14-.204.094-.16-.062.058-.835.875-.83.83.002-.034.857-.882 1.063-1.098.263-.275-.087.03.365-.42.284-.282.173-.08.235-.138.051-.048 1.007-1.071.667-.634zm4.244-4.45q.059-.064.145-.152zm37.459-38.044c-.29.268.513-.583.841-.881.02.009-.795.839-.841.881M95.203 56.25c-.82.81-.24.19.468-.549-.22.24-.193.276-.468.549m22.926-23.345c-.038.031-.065.048-.076.042.099-.082.112-.085.076-.042m-1.901 1.901c-.62.683.692-.653.665-.663-.011-.003-.64.636-.665.663m-15.244 15.525c.061-.058-.779.953.496-.46-.721.714.021-.058.003-.053-.049.01-1.225 1.244-1.498 1.505-.172.245.795-.802.997-.99zM82.219 69.475c.141-.185.662-.7 1.01-1.052-.142.185-.662.7-1.01 1.052m12.99 58.11c-3.388.026-3.827-.092-.727-.045.061.001.933.033.727.045m-29.08-.031c-.32-.051.737-.06 1.43-.038.158.004.738.057.075.067.022-.063-1.004-.086-1.506-.029m28.64-70.817c-.21.263-.952.983-1.337 1.367.213-.257.993-1.031 1.338-1.367m-10.694 70.786c-.358-.004-.599.041-.537.045.276.017.944-.019.537-.045m13.037-73.16c.047-.019-.898.97-1 1.003.207-.206.967-.987 1-1.002M82.884 68.822c.156-.144-.602.653-.843.883.004-.034.74-.788.843-.883m-4.56 58.717c-.32-.004-1.118-.005-1.207.013-.11.023 1.062.015 1.207-.013m59.511-.039c.04.008-1.197.067-1.748.052-1.044-.028 1.704-.057 1.748-.052m-50.38.001c1.01.043-.11.001-.067.046.68.002 2.368.004 1.207-.04-.226-.009-.823-.003-1.14-.006m-.93-.015c-.108.015-.835.06-.207.057.291-.002.76-.052.207-.057m43.642.034c-.904-.039 3.241-.018 3.36-.011q.094.005.127.01c.152-.013.935-.015 1.026.017-.235-.003-.876 0-.95-.004l-.072-.004c-.277.028-3.317 0-3.491-.008m-6.866-.041c1.034-.058 1.217.041 1.128.045-1.126.04-.392-.033-.426-.037-.079-.005-.879.029-.699-.008zm5.459.025c.042-.001.911.002.946.003.712.034-1.745.025-.946-.003M87.634 64.107c-.443.436-.042-.024.257-.31.025-.023.133-.075-.257.31m-1.605 63.388c-.145-.007-3.832-.033-3.61.022.313-.006 4.504.022 3.61-.022m-27.56-.013c.651 0-.058.052-.405.033-.129-.008.242-.034.406-.033m39.97-74.4c.453-.502.424-.335-.01.06-.017.015-.008-.04.01-.06m-34.774 74.43c-2.243.031-1.712-.134 1.204-.078l-.274.022c3.366.025.23.011-.594.021-.313.003-.05.031-.334.035zm-8.615-.034c-2.16-.117 1.963-.041 3.146-.056-1.147.049-2.64.041-.61.091-2.968.009-1.732-.037-1.85-.041-.14-.004-.594.011-.686.006m5.697 0c.125-.004 1.066.02 1.404.016-.474.04-2.233.007-1.404-.016m55.355.028c.078-.032.271-.055 1.013-.043-.229.016-.703.029-1.013.043m19.163-111.822c.36-.363 1.082-1.08.84-.881-.026.022-.852.867-.84.88M75.318 127.47c-.109-.004-2.92-.007-1.95.028.293.01 2.852.006 1.95-.028m14.562.003c-.235 0-1.191.006-1.212.013-.064.026 1.11.012 1.212-.013m47.216-113.605c.05-.046 1.141-1.164 1.01-1.052-.249.212-1.179 1.208-1.01 1.052M86.1 65.772c-.091.093-.236.192-.268.224-.075.076-1.741 1.789-1.132 1.107.101-.114 2.524-2.553 2.84-2.869.155-.09-.906.926-1.154 1.184-.043.045-.043.101-.286.353m33.87 61.7c.105-.029 2.914-.049 2.882-.013zm-1.427-.004c-.6-.021.804-.028 1.218-.019.004.02-1.131.022-1.218.019m-33.991-.106c-.283.008.586.051.391.059-.124.006-.755-.011-.956.003a10 10 0 0 0 .773.043c.264-.002.007-.034.296-.034.958-.001 1.807.022 2.705.021.08 0-.548-.022.144-.022.106 0 .748.034 1.576.029 1.827-.105 3.169-.002 5.487-.04a133 133 0 0 0-1.923-.037c-1.939-.017-5.41-.019-7.44-.02-.521 0-.269.023-.493.023-.177.001.034-.04-.56-.025M135.09 15.893c.2-.145.781-.772 1.165-1.16-.161.111-.785.786-1.165 1.16M105.93 127.436c-.274.001-1.122-.011-1.192.001-.091.016 1.134.027 1.192-.001M76.643 75.369c-.018.02-.48.488-.5.505-.435.396.954-1.007.5-.505m-11.05 11.223c-.346.36-.69.727-.831.823.227-.223.856-.881.832-.823m-15.235 15.491c.104-.043-.97 1.008-1.172 1.208.06-.089 1.097-1.177 1.172-1.208m65.636 25.286c.918.003.724-.063 1.308-.034.095.006.402.143-.607.091-.182-.009.529-.042-.701-.057m-50.65.066c.234-.029.964-.02 1.457-.018-.11.021-1.106.016-1.457.018M139.098 11.88c.331-.279 1.705-1.72 1.341-1.387-.052.048-1.144 1.189-1.341 1.387M93.225 58.494c-.248.274-.141.18.084-.044.273-.272.721-.734.915-.956-.143.149-.737.738-.935.936zm-39.19 39.884c-.027.03-.638.646-.666.673-.523.484 1.206-1.262.666-.673m15.228-15.442c-.2.242-1.658 1.694-2 2.004.283-.343 2.249-2.303 2-2.004m42.95 44.452c.656-.002 1.278.006 1.88.018-.127.022-1.81-.002-1.88-.018m-60.412-26.735-.098.095zm45.743 26.719c-.55-.009-.435.032-.401.033.413.013 1.023-.023.401-.033m38.03-111.884c.159-.11.787-.788 1.166-1.161-.129.09-.869.854-1.166 1.161M52.737 127.403c-.69-.039 2.117-.086 2.709-.06.044.025-2.608.066-2.71.06M95.048 56.72c.06-.02.861-.884.676-.715-.117.107-.712.725-.676.715m-38.19 70.64c.263-.009.878.019.662.037-.278.022-.73-.035-.662-.037m23.666-.023c-.115-.005-1.666.025-1.026.054.445.02.516-.021.62-.021.117 0 2.607.051.406-.033m-43.403-3.755c.352.596.864 1.27 1.401 1.765-.266-.157-1.314-1.472-1.401-1.765m54.745-63.616c.062-.054.998-.998 1.473-1.486.307-.316.422-.44-.014-.014l-.2.194c-.09.09-1.587 1.59-1.26 1.306m24.128 67.403q-.173 0-.405-.005zm-10.434-.004c.211-.021-.854-.027-1.169-.016-.096.026 1.14.019 1.169.016m-66.978-2.002c.31.28.911.75 1.37 1-.105.002-1.274-.836-1.37-1m9.89-21.218c-.5.491-1.1 1.11-1.093 1.136a1 1 0 0 0-.082.067c-.043.038-.561.581-.796.807-1.404 1.359 5.267-5.395 1.457-1.426zm22.783-23.154c.3-.263 1.055-1.083.844-.885-.147.138-1.144 1.148-.844.885m-10.72 10.923c.087-.081.836-.87.844-.901-.45.434-1.24 1.27-.844.901m12.888-13.079a3 3 0 0 0 .346-.415c-.19.169-.658.696-.346.415m40.668 48.408a24 24 0 0 0-1.814.051 8 8 0 0 0-.414-.023h.002c-.32-.012-9.889-.026-3.471.034.201.002-.073-.026.745-.021.054 0 .081.023.247.024.385.002 2.43.016 2.842-.002q.003.006.086.012c.504.033 2.065-.064 1.777-.075M59.026 93.454c.16-.15.64-.65.676-.715-.248.239-1.046 1.064-.676.715m32.982-33.516c.325-.307 1.095-1.134.844-.902-.154.142-1.218 1.255-.844.902M63.885 88.499c-1.81 1.807-.427.437-.68.737zm62.039 38.82c-.407-.007.072-.065.521-.033.14.01-.293.036-.521.033m18.411-.018c-.348-.051 1.351-.021.689.014-.031.001-.664-.012-.689-.014m-12.865-.021c-.277.035-.457.039-1.237.03 1.155-.01.084-.04 1.237-.03m-84.083-22.002q-.008.004-.008.003.006-.004.008-.003m27.715-28.163c.246-.207.873-.849.665-.679-.02.017-.588.57-.665.679m37.175 50.179c.043.006.021.009-.049.012q-.005-.005.049-.012M71.742 80.566c.007-.039-.957.929-.993.97-.522.585.599-.567.993-.97m26.619-27.042c.047-.052-.312.232-.49.446-.14.166.311-.252.49-.446m35.756 73.742c.433 0 1.041 0 1.154.027-.29-.004-1.163-.008-1.154-.027m9.552-.002c-.511.031-1.678.031-2.423.026-.014-.042 1.944-.016 2.423-.026m-28.406-.005c-.035-.002-1.119-.014-.971.014.216.041 1.277.001.971-.014m-18.4-72.255c-.326.359.498-.395.824-.792.168-.204-.77.73-.824.791M77.094 75.145c.437-.467-.695.643-.83.821.209-.208.675-.655.83-.82M61.85 90.685c1.474-1.378.594-.703.353-.438-.034.037-.389.472-.353.438m80.876-82.253c.192-.212-.585.517-.661.634-.048.073.538-.5.661-.634M40.523 112.29l.176-.181q-.062.067-.176.181m40.724-41.207c-1.08.928-.91.886-.997.974-.188.189-.645.608-.993.97l1.181-1.259c-.325.318-3.124 3.102-3.168 3.174-.064.104.801-.788.828-.812.04-.034.23-.12.313-.2.136-.131 2.452-2.483 2.836-2.847M64.797 87.67c-.233.225-.32.27-.42.382-.034.038-.02.064-.137.195zm18.156-18.473c.307-.262-.966 1.013-1.01 1.052-.232.203.76-.838 1.01-1.052m-10.715 10.9c.048-.045 1.026-1.023 1.004-1.029-.267.25-1.567 1.566-1.004 1.03m-8.148 8.305c-.344.344-1.009.979-.904.934l.002-.001zm31.675-32.15c.68-.594.319-.352-.256.201-.147.194.144-.105.256-.202m2.057-2.02c.185-.17 1.986-2.02 1.683-1.764-.107.09-1.125 1.172-1.174 1.219-.076.071.227-.295-.322.275.042-.023-.25.329-.187.27m-1.503 1.519c.665-.601.737-.813.265-.333-.185.187-.36.418-.265.333m-2.57 2.6c.233-.223.844-.825 1.236-1.27l-1.67 1.687c-.03.045.051-.035.165-.15.084-.083.184-.185.271-.268zm55.298 68.664c-.711-.028.928-.038.997-.032.206.023-.679.044-.997.032M147.25 5.091c.147-.133.263-.2.554-.523l-.977.879c-.195.285.263-.21.423-.356m1.331-1.035c-.042.046.261-.13-.343.396-.246.213.39-.47 1.023-1.123.417-.437.911-.773 1.098-.87a7.4 7.4 0 0 0-1.082.886c-.277.28-.538.544-.696.711m4.379-2.142c.028-.016-.983.228-1.092.286-.612.175.903-.35 1.092-.286m-3.001 1.333c.289-.216-.1.092-.386.389-.11.112-.213.215-.278.277-.017.006.113-.134.263-.291.163-.173.368-.35.401-.375m-8.113 122.406c-.565-.064-1.071.074-.201.046.042-.001.225-.043.201-.046M152 2.241c-.464.135.548-.218.872-.236.029 0-.806.2-.872.236m-10.552 123.26c-.751-.046-.486.108-.393.115.387.024 1.713-.036 1.984-.052-1.985.024-1.237-.041-1.591-.063m-3.464.093c-.697.016 1.084.048 1.424.005-.347.002-1.226-.01-1.424-.005m-4.229-.05c-.375-.005-1.489-.019-1.676.006.409-.005 1.518.019 1.676-.006m-.848-.073c-.586-.033-.726.064-.051.035.026-.001.072-.033.051-.035m-3.292-.034c-.385-.039-.823.055-.201.057.185.001.241-.053.201-.057m10.893-.102c-.55-.016-1.259.05-.084.058l-1.238.03c1.539.037 1.426-.055 1.867-.051.618.005.569.082.445.106.506-.047 2.656-.048 3.899-.057-1.092-.019-2.865-.053-3.942-.066-.308-.004-.607.017-.869.015-.421-.004-.047-.034-.076-.035zm-15.221.1c-1.129-.043-.415.051.223.034a2 2 0 0 0-.223-.034m28.086-123.19c-.66.054-.753.077-1.02.134-.25.086-.76.126-1.876.949.936-.693.026-.076.203-.219.138-.126.758-.436.386-.278.239-.115.886-.412 1.528-.547a5.8 5.8 0 0 1 1.293-.142h-.003c.061.007-.091.08-.511.103M133.749 125.3c-.376-.114-.524.066-1.264-.028-.986.137 2.723 0 3.172.116-4.028-.014 2.661.114-.151-.059 2.317.063.759-.021 1.117-.043.382-.024 1.693.002 1.626-.04h-.002l-2.404.009c.784.091-.853.063-1.409-.011zm4.536.085c-.079-.002-1.822.011-1.71.029.233.012 2.707-.002 1.71-.029m7.67-.02c-.625 0-1.593-.018-1.934.017.626 0 1.594.018 1.934-.017m-32.224-.006c-.797.028 1.659.036.948.003a99 99 0 0 0-.948-.003m18.204-.042c-.811-.035-.428.076.173.047.035-.002-.135-.046-.173-.047M152.323 2.454c-.019.019-.494.15-.965.385-.476.225-.929.56-1.057.668.064-.072.523-.443 1.028-.689.499-.255 1.017-.386.994-.364m-5.266 122.81c-1.245-.097-2.935.015-3.12.013-.185-.003.104-.045.062-.046-.095-.003-2.058.001-2.153.004-.068.002.287.062-.118.081.79-.034 4.378-.013 4.564-.02.144-.005-.943-.068.763-.032zm-3.584 0c.491.025-.884.028-1.217.019-.739-.021 1.155-.022 1.217-.019m-3.306-.023c-.157-.006-1.574-.011-1.694.017.671.036 2.05-.004 1.694-.017m-15.765.003c-.368.004-1.38-.017-1.438.007.368-.004 1.38.018 1.438-.007M147.097 7.008c.443-.421-.544.594-.841.882-.027.005.803-.846.841-.882m-15.299 118.076c-.218-.007-4.663.011-5.286.022.61.019 5.015.02 5.214.011.059-.002.1-.032.072-.033m9.612-.011c.408-.036.674.007.725.007.504.006 1.549-.002 1.32.032-.889-.014-2.856.032-2.045-.039m-17.324.009c-1.509.014 1.39.051 1.009.014a70 70 0 0 0-1.009-.014m8.208-.008c.333-.029 4.779-.004 5.493-.004-.639.053-1.155.012-2.013.015-.232.001-.17.023-.195.023-.401.001-.101-.024-.348-.025-.157 0-3.405.031-2.937-.009m9.349-.026c.249-.021 3.025-.029 3.136-.024.836.041-2.92.031-3.136.024m-9.757-.022c.479-.062 2.687-.02 1.175.01-.144.003-.755-.024-1.175-.01m-7.639-.003c-.074-.002-1.647-.014-1.676.006.228.007 2.521.014 1.676-.006m.816-.067c-.038.001.331.039-.407.034-.061 0-.176-.043-1.103-.028-.188.004-.48.032-.459.034.966.067 3.874-.062 1.969-.04m16.631.057c-.15-.018.211-.072.536-.044.14.011-.12.044-.536.044m-22.436-.007c.914-.033-1.957-.039-2.104-.031.093.021 2.012.034 2.104.031M146.272 8.205l.002-.002c-.545.544-.23.185-.256.21-1.178 1.14-.829.874-1.004 1.061-.374.403-.365.288-.993.97 1.042-1.124.077-.116.028-.104-.198.047 1.467-1.419 1.986-1.98.073-.078-.503.458-.319.257.599-.654 2.647-2.497.556-.412m-3.791 116.759c.357-.032 3.065-.001 2.347.025-.115.004-2.871.021-2.347-.025m-93.563-17.835c-.436.483.644-.569.825-.783.09-.107-.633.571-.825.783m7.5-7.456c.538-.555 1.027-1.217.365-.519-.07.075-.44.571-.366.519m-.22 25.185c-.807-.041-.759.035-.166.034.21 0 .192-.032.167-.034m-13.825-11.004c.058-.056.71-.725.673-.713-.25.239-1.053 1.073-.673.713m14.082 10.993c-.479.014.345.069.93.015-.297.005-.88-.016-.93-.015m73.763.011c-.401.031-1.535.022-2.186.027-.071-.041 1.721-.02 2.186-.027m-76.135-22.877c.493-.542-.624.56-.496.483.015-.012.476-.462.496-.483m28.165 22.862c-.532.024 1.158.057.693.014zm7.378.014c-.404-.008-2.125-.005-1.455.018.104.004 1.424.004 1.455-.018m55.377-115.33c.182-.126-.71.768-.842.891-.052.049.605-.726.842-.89M50.955 124.852c-.418.005-1.501-.005-1.692.017.51-.005 1.83.026 1.692-.017m.787-20.492c.48-.422 1.24-1.202 1.01-1.051-.842.86.141-.069-1.01 1.051m7.404 20.439c-.335-.004-.592.053-.554.056.363.025.887-.034.554-.056m-20.53-4.761c.005-.018.017-.861.005-.75-.022.035-.036.763-.006.75m77.538 4.806c-.492-.022 1.01-.044 1.455-.018.216.037-1.393.02-1.455.018m-47.718-.031c.05-.036-1.629-.016-.967.014.165.008.95-.002.967-.014m16.07-.043c-1.127.043 3.601.073 2.359.02-.089-.004-2.262-.024-2.36-.02m7.72.027c-.194-.005-.097-.126.707-.08.106.007-.388.039-.302.046.051.004 1.799.021 1.88.018.086-.003-.016-.042.072-.046.099-.005 1.175.029 1.739.029 1.062.001 1.176-.031 1.263-.031.254-.001.68.022 1.195.022 2.592 0 6.557-.027 8.611.041-1.828-.027-3.571.002-5.391.011.533-.068-2.677.052-.799-.026-.865.017-8.338.03-8.972.016zM58.583 97.521c-.304.368 1.399-1.377 1.51-1.558-.23.225-1.472 1.513-1.51 1.558m-7.814 8.088c-.154.166-.247.376-1.108 1.193l-.003.003c-.251.239.012-.057-.038-.017-.018.015-.806.758-.18.113.954-.984.133-.05.647-.571.062-.063 1.001-1.08.938-1.03-.007.006-.292.309-.343.355-.193.175-.122.067-.149.092-.086.083-1.59 1.673-1.84 1.874-.08.065 2.418-2.515 2.52-2.61.066-.06.09.015.158-.045.036-.031 1.03-1.08 1.166-1.209l.093-.086c-.169.14.75-.791.739-.745-.01.023-.645.661-.668.682l-.029.026c.15-.115-1.989 2.058-1.5 1.616-.603.645.048-.13-.403.359m-2.948 3.058.176-.211c-1.072 1.116-2.349 2.364-3.598 3.634-.317.323.08-.017-.345.397-.34.332-.738.677-.563.487.042-.047.74-.717 1.077-1.064.995-1.024.715-.794.773-.854.064-.067.713-.689 1.057-1.039.863-.883 1.242-1.301 2.446-2.482-.664.712-.25.371-1.023 1.132m27.706 16.037c.058-.025 1.07-.003 1.439-.007-.058.025-1.071.003-1.44.007m37.608-82.512c.19-.25-1.452 1.405-.997.99.1-.092.792-.782.997-.99m-7.359 7.447c-.21.23.69-.645.667-.665-.009-.006-.64.635-.667.665m-65.94 73.122c.02.043.453.538.474.547.145.164-.182-.123-.406-.411s-.375-.537-.068-.136m57.05-64.014c.744-.793-1.558 1.53-.833.841.036-.034.798-.803.833-.841m-3.182 3.246c.181-.187 1.002-1.002 1.004-1.022.002-.03-.936.905-1.004 1.022m-34.331 62.655c-.126-.045 1.4-.011 1.93-.016.126.044-1.4.01-1.93.016m-9.628-.033c6.43-.035 5.013.061-.383.022-.008-.029-.023-.02.383-.022m8.234.005c-.233.029-.963.021-1.457.018.089-.02 1.102-.013 1.457-.018m57.146-84.363c-.257.313-1.541 1.554-1.329 1.317.049-.054 1.419-1.437 1.329-1.317m-74.996 82.795c-.02-.057.206.195.484.427.276.237.607.444.653.475.187.124-.114-.023-.439-.267-.33-.239-.656-.592-.698-.635m28.37 1.558c.342-.035 1.31-.017 1.933-.017-.284.03-1.404.017-1.932.017m-4.496-.027c.04-.001.908.002.947.003.712.034-1.745.025-.947-.003M147.254 7.675a60 60 0 0 1-.499.504c-.435.396.954-1.007.499-.504"/><path fill="#fc5b70" d="M148.497 51.195c.004.388-.006 1.946-.004 2.62-.044-.765-.011-4.017.004-2.62m3.146 69.181-.032-1.679c-.007 1.591.001 3.728-.009 5.204-.002.241-.033-.385-.034.186s.041.461.045 1.292c.005.932-.024 5.199-.024 6.677.003 5.527.027 11.102.01 16.64-.032-5.718-.063.044-.05 1.645.003.355.082.298.062 6.035-.012 3.645-.125.278-.069 6.361.079-4.677.074-.077.076 3.59.001.632-.011 5.737-.008 7.992.002.772.043 1.948.044 2.971.001.704-.022 1.237-.021 2.283.005 4.876.007 9.671 0 14.555-.107-2.854-.046 2.24-.051 2.469-.029 1.164-.037-4.099-.055-2.018l.01 8.726c.013-2.387.089 3.16.055 4.182.065-.313 0 6.215-.035 10.926-.031 1.65.785 2.782 1.104 3.135.109.126-.174-.24-.084-.146.132.001.343 1.009 2.831 1.79.543.119.333.1.623.139.173.022 1.242.04 2.282-.321.173-.056-.216.107-.218.117-.031-.039.511.106 1.955-1.163l1.391-1.349c-2.192 1.987 7.377-7.184 9.148-8.86l-1.077.988c1.758-1.65 2.049-1.974 2.442-2.35 1.579-1.514 3.767-3.58 5.232-4.997 1.715-1.659 1.681-1.705 3.698-3.62l-1.451 1.347 4.154-3.994c-3.149 3.142.693-.663.949-.912.407-.396-.16.193.522-.47.07-.068-.052.009 1-1.01 2.198-2.129 1.875-1.767 2.799-2.659.085-.082-.23.185 1.363-1.36 5.063-4.91-.011.039-.203.229-.253.251 1.564-1.35-2.776 2.782 1.457-1.388 1.636-1.494 1.8-1.65.145-.139 2.649-2.563 2.786-2.698 1.222-1.201.114-.178.35-.414.193-.193 3.246-3.077 3.885-3.832 1.51-1.329-.774.862-3.189 3.211-.341.355 2.335-2.2 2.475-2.335 3.435-3.314 1.481-1.533 2.198-2.293.377-.398 1.812-1.711.473-.513 3.113-3.013 1.25-1.161 1.455-1.351.31-.287 1.387-1.353 1.526-1.483.203-.19-.478.498.318-.258.132-.126 1.378-1.383-.277.187 2.197-2.112 1.993-1.962 2.785-2.63 1.42-1.551 1.15-1.002 1.75-1.57 1.596-1.512 1.065-1.143 1.145-1.228.554-.578 4.958-4.777 6.032-5.833-.376.466-3.471 3.349-4.142 4.016-2.236 2.223 3.224-3.059 1.641-1.402l2.019-2.054c1.309-1.179-.47.573 2.924-2.731.522-.575-2.405 2.331-1.838 1.727.335-.356 2.308-2.266 2.338-2.313.029-.048-1.746 1.688-1.48 1.4.58-.63 7.13-6.881 2.188-2.076 1.383-1.335 2.166-1.951 3.344-3.131.762-.763-3.7 3.348 2.867-2.95.173-.101-2.608 2.535-2.677 2.607-.097.101.476-.304.566-.383.317-.282 6.966-6.774 8.416-8.099-.602.496 5.046-4.882 5.645-5.485.159-.161-.476.399-.305.228 1.069-1.064 4.052-3.847 5.415-5.16 1.526-1.468 1.31-1.305 1.395-1.388.672-.645.152-.112.562-.508.619-.597 4.879-4.699 5.089-4.909.062-.061-.659.582.264-.318.16-.156.089-.026 2.824-2.69 3.293-3.208-2.337 2.177-.994.818 2.172-2.003 2.058-1.984 2.638-2.536.2-.191 1.724-1.584 3.335-3.143l-3.455 3.37c1.145-1.091 3.348-3.231 4.293-4.128.461-.437.116-.041 1.109-1 .211-.204.97-1.091-1.599 1.456-.235.172 1.022-1.005 1.589-1.567.085-.085.382-.463 1.145-1.141.183-.163-1.602 1.826 3.249-3.047.156-.157-.414.36-.262.207.104-.106 1.374-1.317 1.511-1.454.14-.14-.488.429-.322.262.853-.86 2.069-1.888.267-.161l1.828-1.709c-.697.563.928-.926 1.757-1.729 5.314-5.146 1.713-1.744 2.61-2.646 1.443-1.451.412-.269 2.569-2.407.19-.188-2.225 2.069 1.99-1.964.168-.161.338-.345.502-.559q-.225.3-.497.562l-1.575 1.526c.248-.186.943-.859 1.595-1.503a4.8 4.8 0 0 0 .85-1.156c.399-.767.425-1.064.489-1.29.045-.231.111-.416.116-1.1l-.016-1.847c-.003-.373.015-1.186.006-1.984-.032-2.707-.027 1.938-.042 3.831a3.3 3.3 0 0 1-.044.567c-.007.014.025-.202.025-.567-.007-2.019-.003-7.464.002-7.693.032-1.203.015 3.741.054 2.799.014-.344-.015-12.107.001-14.467.018-2.723.121-3.949.005-3.966.114-.769.036-1.448.037-1.796.01-4.211.012-4.219.001-7.83-.003-.798.032-1.471.026-1.753-.003-.164-.041.143-.052-.662-.016-1.117.023-7.83.043-8.329.021-.499.009 2.835.043 2.238.003-2.414-.005-4.728-.002-7.157.002-1.01.025-.49.026-.927 0-.185-.021-3.67-.029-3.522-.021.346-.007 11.105-.048 8.272-.008-.547.046-2.478-.02-2.17l.045-28.839c.049 5.523.005 11.739.01 17.524 0 .793-.006 3.473.027 3.147.009-4.92-.008-11.035.013-15.758.001-.152.031.403.036-.163.009-1.058-.04-4.504-.027-5.084.003-.099.042 1.862.068 1.266.064-1.531-.079-1.92-.077-3.236.001-1.018.07-7.858.027-9.562-.047-1.811-.027 5.041-.065 4.535-.039-4.636.002-9.33-.003-13.712 0-.077-.029.593-.034-.384-.004-1.131.013-1.708.027-2.21a6 6 0 0 0-.013-.64 7.1 7.1 0 0 0-.456-1.95c-.286-.743-.713-1.366-.81-1.512-.022-.04.313.382.351.455.594.999.603 1.44.646 1.533.115.375.218.748.268 1.105.05.38.059.651.054 1.008a79 79 0 0 0-.007.823c-.001.644.036.023.035.643-.001.227-.086 2.682.001 2.91.008.022.017-1.785.025-4.376.368-3.462-3.816-7.57-7.282-7.219-2.099 0-3.676.001-4.167.007l4.167.025v.001c-3.25-.009-6.725.039-6.995-.053l-38.879-.026c-2.314-.008-1.045-.074-4.853-.055l2.952.063c-1.951-.015-10.598-.043-11.998-.03-.181.002-.432.061-2.593.066-1.917.005-2.225-.04-3.25-.048-.861-.007-1.827.005-2.082.002-.196-.002-.274-.03-.745-.034-1.489-.014-.283.062-1.76-.026l1.079-.01c-1.797-.013-4.251-.053-1.605-.072.455-.004.064.023.404.023 13.289-.005 2.677-.056-1.98-.016-1.196-.039-7.899-.015-8.122-.022-.309-.012.838-.043-.666-.07-.316-.005-9.278.017-6.051-.035.666-.011 4.963 0 5.999-.001-2.438-.083-8.151.035-8.793.032-2.592-.012 4.978-.071-.86-.08-4.489-.008-.274.047-2.001.07-.97.014-6.051-.047-5.913.032-1.744.008-.723-.034-.938-.037-.211-.002-3.639.021-4.752.005-.135-.002.29-.043.15-.047-.271-.005-3.578.003-3.711.006-.084.003.704.039.38.047-.378.01-3.56.002-3.735.012-.248.016 3.68.005 3.026.045-1.526-.008-3.86.01-5.272.035a5 5 0 0 0-.568.044c.081-.011.301-.035.568-.036.652-.003 1.567-.003 1.974 0-.144.028-1.157.043-1.974.044-.672.006-1.191.112-.659.006-.672.124-.211.065-.578.161-.108.008-.972.31-1.083.418-.039-.007.816-.327.653-.244-.155.056-.897.339-1.257.786-.382.417-.436 1.041-.442 1.147-.012.284-.045-.1.054-.488.086-.392.384-.745.437-.807.006-.008-.277.241-.425.585-.161.336-.186.795-.187.806-.024.054-.028-.432.121-.796.135-.371.417-.645.331-.587-.297.32-.468.712-.522 1.199.037-.613.313-1.237 1.019-1.677.693-.443 1.717-.648 2.538-.651a94 94 0 0 0 2.399-.03l-2.399.006c-1.271-.002-2.417.433-2.93.9-.532.46-.627.902-.678.882-.022-.007.05-.3.204-.548.147-.252.372-.458.35-.446-.085.044-.434.383-.591.81-.171.42-.166.913-.168.944a.3.3 0 0 1-.008.084c-.01.001-.045-.691.25-1.24.268-.563.879-.941.933-.976.094-.065-.135.029-.359.175-.227.143-.43.349-.435.343.007-.019.318-.382.676-.604.35-.226.674-.357.348-.232-.324.13-.853.46-1.153.868-.313.4-.412.838-.422.865-.041.164.051-.528.541-1.061.467-.552 1.274-.862 1.312-.88.024-.012-.382.123-.742.345-.367.215-.655.528-.672.544a2.4 2.4 0 0 1 .468-.464c.297-.238.717-.448.963-.553.361-.172-.716.259-.526.184.058-.091 1.613-.655 2.639-.597l.813-.003c.248-.006-.545-.034-.43-.04.164-.01 1.258 0 1.116-.011-.042-.003-.705-.02-1.499-.04-1.225-.079-2.687.487-2.66.492-.052-.265 4.316-1.015.274-.25-.04-.014-.915.48-.921.521-.257.174.249-.238.461-.351.102-.061.11-.078-.123.048-.214.14-.765.38-1.278 1.253 1.027-1.61 2.276-1.662 2.651-1.825.442-.109.361-.097.082-.048-.572.055-1.817.68-1.331.39.262-.231 1.985-.731 2.845-.675l.443-.005a5 5 0 0 0-.443-.019c-.39-.007-.881.056-1.094.08-.088.01.523-.109 1.094-.117.549-.014 1.048-.03.758-.042a34 34 0 0 0-.758-.007c-.962-.044-2.374.381-2.445.439-1.061.444.219-.155-.016-.064-.08.025-.535.2-.936.47a4 4 0 0 0-.741.634c-.03.03.364-.455.944-.798.57-.357 1.272-.568 1.513-.63.364-.12-1.019.267-.763.195.682-.29 1.766-.448 2.444-.432.629.003.872.001 0-.035a7 7 0 0 0-.772.014c-.203-.015-1.428.265-1.459.303-.376.119-.016-.042.504-.177.518-.14 1.194-.208 1.402-.226.707-.129-2.615.253.15-.057-1.046.022-1.856.197-2.676.554-.79.364-1.735.968-2.226 2.276.586-1.598 1.996-2.263 2.925-2.562a8 8 0 0 1 2.152-.356c.484-.017.517-.035 0-.048-.615.057-2.122-.209-4.144 1.361 1.045-.865 1.623-.945 1.928-1.087.318-.112.428-.157.79-.23.173-.034.8-.128 1.426-.12.885.005 1.743-.005.849-.096-.078-.008-.47-.008-.849-.009-.59-.001-1.138.082-.749.013q.413-.038.749-.035c2.643.003.975-.013 0-.023-.365-.004-.645.022-.645.02.007-.01.239-.046.645-.054 2.305-.043 11.026.01 12.708 0 2.247-.01 4.244-.08 4.733-.08 1.607 0 .273.036.633.048.364.013 4.934-.054 5.163-.05.885.015-.014.056.079.058 1.096.025 7.234-.007 8.952.003-.053-.027-3.503-.03-1.349-.072 2.508-.05 2.652.068 2.718.073l34.478-.004c-.143-.062-7.657-.015-7.828-.023-1.004-.05 11.689-.048 13.246-.026l-3.548-.04c2.019-.073 6.489.02 9.411-.01.944-.011-.869-.04-.831-.041 1.061-.028 2.763-.006 1.49.031 2.589-.036 2.211.004 4.198.007.102 0-.751-.03.822-.041.736-.006 4.665-.006 5.191-.031.217-.011-1.777-.124-2.023-.027-4.273-.047-1.365.045-3.025.042-.255 0 .331-.054-3.85-.029.797-.098 5.611-.025 6.436-.036 1.702-.025-5.311-.075-6.598.001.601-.076-.497-.01-2.061-.013-1.711-.004-.965-.026-1.891-.027-2.533 0-1.483.054-3.57.005 2.035.15-3.574.02-5.209-.02l7.979-.022-.456-.024 2.101.003-.337.023c3.613-.049 4.494.006 4.788.007 3.792.006 8.171.006 12.005.006.575 0 .18-.05 4.372-.01 1.338.012.075.05 1.591.044 1.896-.104 1.86-.021 2.424-.02 1.617 0 2.606-.027 2.756-.027 1.998-.004 4.925 0 7.121-.003.041 0-1.102-.033.324-.023.069 0 .213.003.421.008 1.469-.14 6.155 1.06 8.293 4.516a10 10 0 0 0-2.419-2.555c.58.357 2.712 2.29 3.472 4.53.83 2.19.617 4.1.652 2.891.131-1.535-1.464-4.814-1.739-5.1.542.771 1.779 2.856 1.764 5.648.001 5.587.016 13.474.002 14.32-.003.167-.03-.858-.034-.628-.002.178.004 3.72-.006 4.191-.006.28-.023-1.285-.033-1.158-.007.111-.019 4.535.015 4.788-.013-1.086-.001-4.14.028-2.538.003.206-.019 1.273-.014 1.523.042 2.322.032-4.617.032-5.69.044 4.358-.008 11.1.021 16.15-.029 2.04-.044-3.026-.068-.717-.049 4.79.04 1.275.043 1.424.029 1.19-.125 5.241-.008 5.244-.017 1.736-.032 1.174-.017 3.625l.025-.968c.068 2.721-.104 8.48-.117 8.048-.035-1.16.019-4.16.018-4.415-.002-.38-.121-1.427-.015-5.576-.08-1.7-.054 6.575-.108 2.81.009 2.543-.047 13.004-.012 14.51.005.18.085-.657.044 1.927-.019 1.227-.02-1.731-.038-1.17-.056 1.727-.021 25.222-.018 29.685 0 .29-.024.184-.024.469.001.874.038 4.06.026 5.626.046-3.243.05 3.055.044 4.656-.007 2.41-.05 2.284-.06 3.304v.032c.005 1.733-.714 3.883-2.285 5.376-2.25 2.188-4.571 4.454-6.047 5.792.191-.051-3.948 3.742-5.786 5.514-1.439 1.388-3.484 3.447-1.514 1.601-2.488 2.394-5.09 4.929-7.417 7.181-.385.372.126-.16-.53.476-.059.058-.122.157-.684.704-4.643 4.511-2.417 2.282-3.301 3.11-.494.464-.858.808-1.123 1.061 2.712-2.623 5.837-5.652 6.674-6.461-.757.645-6.011 5.814-7.576 7.301-.054.052.11-.154.055-.101l-.004.003c-.584.56-4.283 4.145-3.492 3.438.213-.19 1.919-1.836 3.941-3.791-.542.534-.107.166-.202.261-1.16 1.144-4.058 3.888-5.08 4.867-.234.224-.2.225-.239.262-.93.89-.598.473-1.499 1.442-1.738 1.556 3.136-3.043 2.757-2.756-.291.221-10.988 10.57-10.908 10.589-.042.03-.196.165-.505.45-.686.629-3.663 3.51-4.169 4.016-.085.085-.005.099-.112.204-.268.261-3.949 3.738-5.283 5.079l2.225-2.107c-4.439 4.282-3.739 3.635-2.246 2.222l.218-.206c1.157-1.095 2.636-2.503 2.662-2.521.098-.066-7.426 7.206-6.02 5.764.196-.201 3.7-3.542 1.944-1.909-.307.285-2.536 2.453-2.657 2.563-.809.735 4.048-4.009 3.419-3.465-1.155 1.175-2.693 2.626-4.046 3.946-.615.601-.744.772-.82.846-1.136 1.107-.519.464-.9.832-.204.198-2.401 2.42-2.047 1.936-7.358 7.201-1.998 2.031 2.544-2.357-1.411 1.412-4.239 4.115-5.497 5.34-.451.44-.158.205-.92.948-1.566 1.531-9.119 8.761-11.086 10.645 1.196-1.17.818-.857-.109.041-.928.899-.113.181-.291.36-.19.191-4.567 4.38-5.288 5.084 3.27-3.179 2.504-2.491-.285.194l1.186-1.189c-1.622 1.586-5.095 4.857-6.027 5.78-.147.144.407-.346.325-.265-.819.808-3.658 3.502-3.782 3.636-.105.114 1.115-1.026.678-.587-.091.092-1.279 1.179-2.413 2.287-.421.411-.145.186-.251.29-.879.868-.389.326-2.007 1.899-1.186 1.152-2.039 2.041-3.695 3.616 5.443-5.164.885-.804-1.36 1.387-.36.351-.012.091-2.192 2.157 4.534-4.507-1.348 1.229-2.558 2.395-.067.064-.114.06-.708.632-.05.048.039-.004-.511.529-5.218 5.056-1.893 1.812-2.902 2.753-.43.401-2.95 2.878-3.634 3.539-.158.152-.102.064-.711.653-.42.406-.821.798-1.195 1.166a7.6 7.6 0 0 1-2.08 1.466c-.141.002-.089.228-2.283.629-.621.078-1.325.082-.436.068 1.373-.038 3.38-.7 4.819-2.142 1.397-1.357 2.853-2.774 3.941-3.796 1.639-1.54-2.648 2.603-3.913 3.825-.208.201-.355.323-.4.362-.069.059.249-.218.393-.37.069-.07.095-.1-.006-.006-.089.083-.255.243-.566.493-1.179 1.103-4.264 2.223-6.654 1.489-.203.011-1.967-.786-1.864-.79.035.02.709.377 1.377.577.663.21 1.295.282 1.083.243-.062.04-1.861-.493-2.055-.665-.272-.134-.888-.662-1.192-.904-.783-.632-.298-.192-.781-.632a7.4 7.4 0 0 1-1.617-2.364c-.47-1.077-.593-2.282-.591-2.935a4 4 0 0 0-.02-.462l-.002.462a7.6 7.6 0 0 0 .219 1.856 7.6 7.6 0 0 1-.23-1.856c-.009-1.706-.025-.695-.033-1.14-.01-.587.035-.422.039-1.72.001-.282-.008-5.71-.027-5.612.03 3.002-.026 1.889-.027 2.028-.003.526.028 1.198.027 1.903-.005 4.963-.054-.042-.066 1.13-.004.403.022 1.206.021 1.378-.005.556-.039.565-.037.936.007.865.056-.145.059-.077.009.243.012.708.01 1.174-.003 1.184.276 2.373-.023.873.176 1.324.323 1.465.727 2.443 1.001 1.881-.637-.889-.655-1.797a7.6 7.6 0 0 1-.159-1.519c-.011-1.695.004-2.764-.003-5.759-.003-1.325-.034-2.895-.036-3.51-.001-.388.109-4.045-.063-4.153.017-1.422.13-3.653.125-5.117-.005-1.316-.066-.897-.068-1.02-.004-.188.001-1.779-.008-2.317-.01-.63-.033-.315-.043-1.315-.023-2.489.039-2.424.043-2.68.047-2.969-.042-1.669-.049-2.328-.006-.613.028-9.209.005-11.018l.038 2.209c.038-1.318-.025-2.715.045-2.74-.112-.267-.037-2.987-.04-3.804-.002-.322-.021-.296-.021-.699-.004-1.575.011-5.124.002-5.978-.042-3.692-.111 5.75-.115 6.493.001-1.488-.024-9.906-.078-6.036-.008.598.042 1.658.044 1.994.013 2.273-.032.485-.037.663-.006.304.037 1.8.032 2.195-.002.132-.043-.717-.043 1.452-.04-1.067-.008-7.162-.017-7.962-.003-.285-.088 1.501-.006-3.715l-.023.181-.01-8.714c.018.316.054 1.947.047-.107-.005-1.183-.045-.308-.046-.416-.011-1.061.002-19.844-.002-23.484-.002-1.238-.034-4.689-.034-4.952-.004-1.574.017-7.147.013-8.258-.003-.694-.037-.034-.035-.655.001-.576.034.021.035-.15.012-1.418-.031-12.19 0-14.748-.009 1.563.056 9.365.078 9.208.004-.034.028-1.93.016-2.321.028-.647-.057-2.865-.04-4.072.001-.136.049.401.058-1.753.003-.742-.034-2.684.008-4.64-.021-2.83.042-17.713-.01-18.734-.003-.03-.02 2.066-.041.65-.029-1.882.066-.192.074-2.386.001-.33-.008-6.434-.014-6.634-.053-1.848-.075 3.485-.081 3.41-.015-.186-.025-4.617-.021-4.797.004-.172.074 3.442.047-.9l-.025 1.492c-.016-2.042.033-2.237.035-2.732.01-1.538-.064-3.202.027-5.667.025-.651.051.43.055.349.033-.783-.055-1.782.011-2.959.004-.088.043 2.651.044-2.137l-.019.989a751 751 0 0 1-.019-6.176c.01-1.905.054-.244.049-2.159-.061 1.229-.069-4.595-.017-4.26-.066-.813-.015-5.76-.013-8.086.001-1.467-.028-4.46-.025-4.926.004-.568.05-.396.06-1.421.003-.293-.031-3.345.016-6.025.009-.52.086-1.61.105-.645.033 1.652-.029 4.778.017 4.738.048-.047.019-4.257.026-5.39.029-5.231.081-2.21.096-2.345.038-.349.037-3.207.041-3.326.015-.495.045 1.53.068 1.562.03.036.085-2.719.095-2.092.014.896-.031 3.428-.029 3.589.029 2.09.099-.775.133-1.564.011-.24.028.714.031.515.047-3.029-.098-.638-.088-2.653.009-1.797.054.515.057.447.003-.089.005-2.238.021-2.574.008-.166.098 5.42.138 5.186l-.027-5.346c.052-.14.014 2.423.019 2.688.011.534.037-.954.054-.89.01.034.048 1.78.063.203.006-.543-.031-1.68.006-3.656.048 6.874.077 2.11.096 1.908.018-.199.062 3.083.054-.9.101-.173.032.085.05 1.217.022 1.387.055-1.818.03 3.25.047-.288.044-4.362.048-4.577.003-.187.026.719.034.396.092-3.82.05-1.196.109-2.302.005-.098.027-3.708.035-.96.016 5.006-.051 7.099.092 7.94.063-3.703-.03-8.19-.032-9.315-.002-1.724.028.061.036-.151.002-.074 0-1.559.002-1.578.11-1.06.002 6.61.021 9.024l.049-1.942.002 2.634c.033-4.182.013-.147.102.896.02.234-.014-2.514.041.62.013-2.311.031-1.574.006-3.667.036.054.076 4.764.094 6.622.04-6.563-.091-2.82-.022-8.494-.044-1.053-.035 1.656-.042 1.435-.026-.793.015-2.65-.077-4.89-.015-.366-.061 1.178-.059-1.107.001-.252.04-1.708.043-1.688.031.193.019 1.634.032 1.693.013.056.005-1.551.009-1.557.038-.05.014 1.341.027 1.14.026-.437.11-6.218.085 1.327-.044-6.267-.043-.802-.026 1.638.004.623.028.78.036 1.667.01 1.14-.001 2.476.003 3.066.005.635.06-2.972.043 2.245.055-2.655-.003-7.345.035-9.953.078-5.262.094 3.669.102 4.6.002.247.033-.584.035-.419.003.27-.012 5.34.014 5.839.026.498-.001-1.857.026-2.013.018-.106.051 6.008.063 2.698.009-2.281-.065-6.486.014-7.195l.02 10.066.089-5.51c.01 3.766-.024 7.022.019 10.599.096-8.595.076 2.79.088 2.915.007.042.085-3.34.099-3.885.03 2.998.044 12.106.14 6.777-.021.967.032 3.31.036 3.279.043-.297.015-5.406.054-4.573.044.965-.016 2.319-.011 3.804.025 7.623.246 5.532.211 13.175l.024-.456-.038 24.924c.068 3.25.109 11.9.101 16.15-.001.855-.037 5.056-.043 5.373-.012.587-.016-2.64-.039-1.182-.004.308-.019 7.419.019 6.911.004-.797-.015-3.291-.006-3.7.064-2.867.013 19.057.038 20.144l.037-1.457zm-3.039-63.571c-.038-.83-.009-2.912-.02-4.141-.015-1.699-.161-4.587-.015-3.343zm-.056 36.46c.02-1.673.102-.375.068.996-.004.152-.096 1.267-.068-.996m.038-17.538c.001.07-.001 1.516-.002 1.567-.033 1.296-.026-3.062.002-1.567m.042 84.72c-.003-1.843-.078-.508-.047.638.002.072.048-.517.047-.638m.002-1.311c.067-1.431-.068-4.315-.054-2.022.001.222.051 2.088.054 2.022m-.05-71.834c.026.188.013 1.914.007 2.65-.023-.02-.004-1.927-.007-2.65m.007 43.751c.02.073.019-5.924-.007-6.333.011.947-.011 6.264.007 6.333m.028 15.381c.004-.152-.001-2.224-.019-2.163-.023 1.011.004 2.848.019 2.163m-.001 30.572c.005.112.117-1.439.043 2.237-.011.54-.04-1.388-.044-1.196-.008.402-.012.719-.012.974a287 287 0 0 1-.007-3.663c.032-.808.018 1.598.02 1.648m.084 16.05c.019.353.009 2.606.001 3.118-.001.089-.05-.295-.046.719.003.815.052-.402.045 1.185-.008 1.603-.044-.539-.046-.399-.003.188.019 2.668-.01 2.591-.021-.058-.007-2.715-.011-3.372-.006-.841-.042.179-.034-1.227.005-.884.067-.394.07-.581.003-.156-.033-3.245.031-2.029zm-.095-13.571q-.003-.191-.002-.464zm.029-117.847c-.02.87-.044-1.712-.019-2.689.02-.017.022 2.55.019 2.689m.022 119.435c-.015 2.543-.037.672-.051-1.588.012.717.056.733.051 1.588m-.026-72.221c-.005.107-.012.175-.024.183.013-.281.02-.307.024-.183m-.021 5.934c.036 2.034.035-2.099.009-2.073-.01.012-.011 1.991-.009 2.073m.018 48.025c.003-.186.113 2.705.031-1.492-.013 2.24-.025-.123-.035-.088-.027.091-.001 3.854-.013 4.687.05.653.005-2.492.017-3.102zm1.227 59.747c-.407-.484-1.191-2.38-1.188-3.72.01.609.403 2.601 1.188 3.72M268.54.055c4.411.593 6.021 3.023 6.259 3.19.178.408-.66-1.434-4.445-2.772-.134-.108-2.334-.496-1.814-.418m8.883 61.577c-.052.704-.06-1.628-.039-3.16.005-.346.057-1.628.067-.165-.062-.046-.086 2.217-.028 3.325M148.687 182.51c.034.741.01 3.021.005 4.222-.028-.733-.016-3.16-.005-4.222M277.392 22.019c-.004.788.041 1.32.044 1.184.017-.609-.019-2.082-.044-1.184m-128.7 153.131c.021-.104.041 2.916-.01 3.126.004-.645-.002-3.051.01-3.126m.202 45.08c-.051-.282.05.311.342 1.041.28.736.812 1.553 1.092 1.902-.03-.02-.495-.591-.838-1.285a7.4 7.4 0 0 1-.596-1.658M277.407 34.711c-.004.706-.005 2.47.013 2.665.023.243.015-2.343-.013-2.665M174.3.08a115 115 0 0 1 3.856-.052c2.306.028-3.76.058-3.856.052m103.069 14.477c.042-2.226.001.246.046.149.001-1.499.004-5.225-.04-2.663-.009.499-.003 1.816-.006 2.514m-.015 2.054c.014.239.06 1.843.057.456-.002-.641-.053-1.675-.057-.456M191.224.06c1.995.04-7.152.018-7.415.011-.139-.003-.23-.007-.282-.01-.336.013-2.064.015-2.264-.017.518.003 1.933 0 2.097.004l.16.004c.61-.028 7.321 0 7.704.008m15.156.04c-2.283.06-2.687-.04-2.49-.043 2.485-.041.864.032.941.036.173.005 1.939-.029 1.542.008zM194.33.076c-.093.002-2.01-.002-2.089-.003-1.571-.034 3.853-.025 2.089.003m-45.562 205.078c-.01 1.373-.047.027-.034-.886.002-.074.042-.324.034.886M277.364 17.706c-.007.318-.033 8.458.022 7.969-.007-.691.022-9.943-.022-7.969m-.014 60.83c.001-1.435.053.13.033.896-.007.284-.033-.534-.033-.896M148.74 171.08c-.029-1.491.067-1.182.034.11-.001.05-.033-.052-.034-.11m128.64-104.01c.032 4.95-.134 3.778-.078-2.658l.022.604c.025-7.428.012-.508.021 1.311.004.692.031.112.035.738zm-.033 19.016c-.117 4.767-.041-4.334-.056-6.944.048 2.53.041 5.825.091 1.344.009 6.552-.038 3.824-.042 4.086-.004.31.012 1.31.007 1.514m-.001-12.575c-.003-.276.021-2.352.017-3.1.04 1.046.006 4.93-.017 3.1M222.27.072c-.172.032-.598.055-2.237.043.506-.015 1.553-.03 2.237-.043m-73.501 55.156c.003-1.128.014-3.375-.019-2.686-.002.075.001 2.683.019 2.686m128.569-13.88c-.004.24-.006 6.447.028 4.303.011-.647.006-6.294-.028-4.303m-.032-32.255c.014.168.037.481.037.848.002.809.007 1.906.012 1.938.018.1.017-1.108.006-1.938a7 7 0 0 0-.055-.848M148.801 49.535c.004-.148-.002-3.595-.017-3.216-.029.72.006 3.726.017 3.216m.04 160.612c.001.288-.033.669-.033.769-.001.234.013 5.509-.031 3.493-.008-.336.009-7.925.014-8.912.046-.381.002 2.86.007 3.649.001.139.04.228.043.998zM213.733.106c-.233.03-6.433.05-6.362.013zm3.15.005c1.323.02-1.776.028-2.689.018-.01-.02 2.496-.022 2.689-.018m60.348 20.855c.007.623.051-1.293.059-.865.005.275-.011 1.667.003 2.111.004.126.045-1.294.043-1.705-.002-.583-.035-.017-.035-.654 0-2.114.022-3.988.022-5.97 0-.179-.023 1.209-.023-.318 0-.236.034-1.653.029-3.479l-.003-.145c-.238-4.404-2.487-8.384-8.201-9.638.106.02 1.25.231 2.3.718a10.3 10.3 0 0 1 2.078 1.263c1.848 1.377 3.789 4.328 3.734 7.657-.003 3.145-.004 6.358-.004 8.701 0 1.15.022.592.023 1.087.001.391-.04-.074-.025 1.237M148.792 55.828c.041-.538.015-2.425.017-3.63-.037.424-.008 2.452-.017 3.63M244.723.142c.604-.001 2.476.011 2.631-.001.2-.016-2.504-.027-2.631.001m-78.204 219.333a281 281 0 0 1 1.129-1.086c.957-.878-2.185 2.143-1.129 1.086m25.026-24.127c.79-.769 1.581-1.55 1.871-1.783-.509.484-1.947 1.889-1.871 1.783m34.519-33.294c-.194.126 2.213-2.156 2.667-2.588-.154.175-2.525 2.495-2.667 2.588M222.509.209c-2.028-.002-1.6.063-2.887.034-.21-.005-.889-.143 1.34-.091.401.009-1.168.042 1.547.057m54.795 63.154c-.029-.516-.021-2.128-.018-3.217.021.244.016 2.442.018 3.217M148.834 43.31c.041-.951.011-5.345-.016-4.258-.003.155.018 3.642.016 4.258m-.016 144.356c.032 1.808.042-1.937.011-3.119.002.535-.013 2.997-.011 3.119m68.938-17.632c.062-.061 1.444-1.39 1.506-1.448 1.154-1.067-2.756 2.693-1.506 1.448m-34.475 33.212c.479-.499 3.762-3.636 4.513-4.323-.679.707-5.107 4.941-4.513 4.323M230.853.19c-1.447.002-2.819-.006-4.148-.018.279-.022 3.995.002 4.148.018m-8.033 164.956.218-.206zM263.232.206c1.212.009.961-.032.886-.033-.912-.013-2.258.023-.886.033m-114.38 54.237c.037-.42.009-2.46.017-3.632-.029.34-.021 2.687-.017 3.632m128.42 36.748c-.04 1.523-.086-4.674-.06-5.98.024-.097.065 5.757.06 5.98m-128.399 90.861c.029-.122-.006-2.724-.019-2.171-.009.35.002 2.243.019 2.171m128.355-99.957c-.008-.583.02-1.94.037-1.462.022.613-.034 1.612-.037 1.462m-.023-52.238c-.004.254.025 3.678.055 2.263.02-.981-.022-1.137-.022-1.368.001-.258.051-5.754-.033-.895m-10.469 92.899c.922-.905 2.055-1.98 3.027-2.919-.384.395-2.615 2.554-3.027 2.919m-117.855 69.33c.012-.314.019-8.859-.017-4.005-.002.284-.018 4.958.017 4.005M222.509.209q.382 0 .893.005zm23.03.004c-.467.021 1.885.027 2.579.016.214-.026-2.515-.018-2.579-.016m24.278 119.532c.552-.55 1.579-1.522 2.272-2.192-.104.127-2.016 1.972-2.272 2.192m-39.385 37.956c1.121-1.066 2.488-2.391 2.492-2.428q.038-.028.175-.153c.093-.084 1.278-1.243 1.802-1.736 3.136-2.958-11.96 11.574-3.265 3.095zm-51.613 49.77c-.652.588-2.396 2.321-1.929 1.887.325-.303 2.582-2.476 1.929-1.887m24.303-23.464c-.192.179-1.906 1.86-1.94 1.914 1.004-.947 2.817-2.726 1.94-1.914m-29.184 28.124c-.399.38-.873.901-.825.858.415-.377 1.509-1.481.825-.858M226.71.335c.819.013 3.433-.02 4.002-.051.106.006.391.013.915.023h-.005c.706.012 21.829.026 7.661-.034-.444-.002.162.026-1.643.021-.12 0-.179-.023-.547-.024-.848-.002-5.364-.016-6.271.002a1 1 0 0 0-.191-.012c-1.113-.033-4.557.065-3.921.075M206.545 180.7c-.354.33-1.449 1.397-1.549 1.521.553-.519 2.369-2.285 1.549-1.521m-57.582 11.121c.016-.984-.014-3.478-.031-2.725-.01.463.012 3.86.031 2.725m46.565-.48c4.078-3.901.968-.936 1.57-1.557zM200.589.259c.9.007-.157.065-1.148.034-.311-.01.645-.037 1.148-.034m-40.637.018c.769.052-2.983.021-1.521-.014.068 0 1.466.012 1.521.014m28.396.021c.611-.035 1.009-.039 2.73-.03-2.548.01-.185.04-2.73.03m44.562 154.984q.013-.01.014-.009zm-62.785 60.539c-.529.47-1.952 1.846-1.507 1.458.043-.038 1.314-1.241 1.507-1.458M230.712.284c-.094-.006-.046-.01.11-.012.007.004-.033.007-.11.012m-52.951 208.14c-.036.065 2.139-2.021 2.225-2.107 1.218-1.228-1.33 1.242-2.225 2.107m-28.767-36.529c-.002-.155-.059.847-.037 1.462.017.476.046-.879.037-1.462M182.505.312c-.954 0-2.298 0-2.546-.027.64.005 2.566.008 2.546.027m-21.084.002c1.128-.031 3.704-.031 5.349-.026.031.042-4.29.017-5.349.026m62.7.005c.078.002 2.471.014 2.144-.013-.477-.041-2.819-.002-2.144.013m-75.157 176.224c.019 1.07.078-1.393.032-2.522-.023-.58-.036 2.341-.032 2.522m16.684 43.543c-1.005.992 1.534-1.417 1.866-1.778-.47.45-1.508 1.425-1.866 1.778m34.565-33.378c-3.262 3.029-1.411 1.457-.852.899.079-.079.931-.973.852-.899m-51.21-154.44c-.012-.63-.054 1.718-.026 2.022.017.188.033-1.62.026-2.022m4.737 192.972c1.664.699 2.538.606 2.924.619.399-.015.38-.044.538-.054.675-.023 2.275-.36 3.35-1.096a7.4 7.4 0 0 1-4.214 1.184c.523.089 3.557-.109 5.479-2.098 1.707-1.633 3.358-3.217 3.418-3.288.169-.201-1.798 1.708-1.857 1.762-.085.077-.447.319-.632.494l-1 .96c-.908.926-2.661 1.92-4.382 2.054-1.715.186-3.173-.341-3.624-.537m39.783-32.062c.522-.49.689-.61.923-.846.08-.08.073-.113.346-.387zm-44.173 27.529c-.12-.508.073.389.593 1.314.496.938 1.373 1.779 1.429 1.823.294.268-.296-.17-.874-.914-.595-.734-1.047-1.808-1.148-2.223m27.31-11.257c-.106.099-2.311 2.211-2.28 2.208.592-.55 3.533-3.381 2.28-2.208m18.475-17.838c.774-.743 2.254-2.129 2.057-1.999l-.004.003zm-46.079-11.406c.069-1.988-.019-1.046-.041.714.031.533.029-.388.041-.714m.051-6.362c.013-.553-.001-6.252-.038-5.383-.013.31.02 3.587.018 3.738-.004.229-.045-.817-.037.931.014-.102.053.903.057.714m-.007 4.716c.053-1.975-.045-2.419-.045-.933 0 .58.037 1.215.045.933m-.008 8.07c.009-.711.022-2.605-.01-3.91l-.008 5.24c.018.201.01-.709.018-1.335zm.211-184.271c.713-.692.189-.297-.316.486-.528.801-.587 1.994-.581 2.069-.006.272-.057-.174.061-.809.103-.645.529-1.422.836-1.746m.583 17.649c.011-.436.047-.722.028-1.682l-.08 2.897c.061.75.04-.739.052-1.215m.223-3.687c.002.136.096-.61.033 1.153-.042 1.19-.084-5.284-.042-6.453.019 1.292-.003 4.125.009 5.3m.407-11.341c.008-.075.019 2.385.013 2.67-.028 1.495-.053-2.266-.013-2.67m-.018 7.847c.018-1.154.03 1.402.02 2.163-.018.074-.023-1.985-.02-2.163m14.947-10.902c1.248.064 2.365-.074.444-.046-.092.001-.497.043-.444.046m-14.834 5.46c-.018 1.153-.03-1.402-.02-2.164.018-.07.023 1.988.02 2.163m15.713-5.308c1.658.046 1.074-.108.867-.114-.854-.025-3.78.036-4.378.05 4.38-.023 2.73.042 3.511.064m7.646-.093c1.538-.016-2.392-.047-3.142-.004.764-.003 2.705.01 3.142.004m9.335.05c.827.005 3.286.019 3.699-.006-.903.005-3.35-.019-3.699.006m1.872.073c1.293.033 1.603-.063.112-.035-.058.001-.159.033-.112.035m7.267.034c.848.039 1.816-.054.442-.057-.409 0-.532.053-.442.057m-24.045.102c1.214.017 2.779-.05.186-.057l2.732-.031c-3.396-.037-3.147.055-4.122.051-1.362-.005-1.255-.081-.981-.105-1.117.046-5.864.047-8.607.056 2.411.02 6.323.054 8.702.066.68.004 1.339-.017 1.918-.015.928.004.104.034.167.035zm33.597-.1c2.492.043.916-.05-.492-.034-.06.002.43.033.492.034m-51.101 1.936c-.039 3.33-.091.91-.012 7.876-.056-2.927-.04-.162-.063-.733-.017-.458-.003-2.175-.039-1.177.039-1.312.029-7.008.035-7.262v.007c.004-.153.091.227.079 1.29m32.422-1.8c.831.113 1.157-.067 2.791.027 2.176-.137-6.01 0-7.001-.116 8.89.014-5.874-.114.332.059-5.113-.063-1.676.021-2.465.043-.844.024-3.736-.002-3.589.04h.005l5.306-.008c-1.731-.092 1.883-.064 3.109.01zm-10.011-.086c.175.002 4.022-.01 3.773-.03-.513-.01-5.973.003-3.773.03m-16.931.02c1.381 0 3.517.018 4.27-.017-1.382 0-3.518-.018-4.27.017m71.127.006c1.761-.028-3.66-.036-2.091-.003.077.002 2.005.005 2.091.003m-40.18.042c1.79.035.944-.075-.382-.047-.077.002.299.046.382.047m-36.414 4.517c.027.12.008 4.951.009 5.808-.025-.487-.04-5.945-.009-5.808m3.036-4.464c2.749.097 6.478-.015 6.887-.013.407.003-.231.045-.138.046.211.003 4.542 0 4.752-.004.15-.002-.634-.062.26-.08-1.744.033-9.662.012-10.072.019-.319.005 2.081.068-1.684.032zm7.909 0c-1.082-.025 1.953-.028 2.687-.019 1.631.021-2.548.022-2.687.02m7.298.023c.347.006 3.474.011 3.74-.017-1.481-.036-4.526.004-3.74.017m34.798-.003c.813-.004 3.046.017 3.174-.007-.813.004-3.046-.018-3.174.007m-52.828 20.929c.02-1.35.029 1.776.019 2.688-.016.05-.021-2.574-.019-2.689m36.504-20.769c.481.008 10.292-.011 11.668-.022-1.346-.019-11.069-.02-11.511-.011-.128.002-.218.032-.157.033m-21.218.011c-.899.036-1.486-.007-1.6-.007-1.112-.006-3.419.002-2.913-.032 1.963.014 6.304-.032 4.513.04m38.24-.01c3.331-.012-3.068-.05-2.228-.013.054.003 1.883.015 2.228.014m-18.118.01c-.735.029-10.549.004-12.124.004 1.411-.054 2.548-.013 4.444-.016.511 0 .375-.023.43-.023.885-.001.223.024.769.025.345 0 7.515-.031 6.481.01m-20.635.025c-.549.02-6.676.03-6.923.024-1.844-.04 6.447-.031 6.923-.024m21.535.022c-1.055.062-5.929.02-2.593-.01.318-.003 1.667.024 2.593.01m16.862.003c.164.002 3.637.014 3.699-.005-.502-.008-5.564-.015-3.699.005m-1.801.067c.084 0-.73-.039.898-.034.136 0 .389.043 2.436.028a22 22 0 0 0 1.013-.034c-2.132-.067-8.552.062-4.347.04m-36.708-.057c.33.018-.467.072-1.185.044-.308-.011.267-.043 1.185-.044m49.522.007c-2.018.033 4.32.04 4.643.03-.204-.02-4.441-.033-4.643-.03m-63.932 23.85v-.005c-.007 1.698-.034.646-.035.726-.04 3.618.021 2.658.029 3.224.015 1.213-.059 1.017-.028 3.064-.046-3.383-.027-.304-.053-.208-.109.379.05-4.503.028-6.19-.004-.235-.038 1.5-.048.898-.032-1.957.135-8.026.107-1.51m12.671-23.808c-.788.032-6.764.001-5.179-.025.254-.004 6.337-.021 5.179.025m67.598 150.571c1.014-1.017-1.404 1.271-1.834 1.715-.213.22 1.388-1.268 1.834-1.715m-16.882 16.119c-1.225 1.188-2.44 2.52-.924 1.033.161-.158 1.076-1.158.924-1.033m59.968-85.755c-.041 1.782.035 1.676.034.368 0-.462-.033-.424-.034-.368m-28.211 55.221c-.13.122-1.61 1.556-1.544 1.516.556-.521 2.387-2.303 1.544-1.516m28.2-55.787c.014 1.057.069-.762.015-2.054.004.656-.016 1.945-.015 2.054M191.111 2.72c.885-.03 3.389-.021 4.827-.027.155.04-3.799.02-4.827.027m28.895 161.587c-1.143 1.142 1.365-1.244 1.11-1.051-.033.029-1.065 1.006-1.11 1.051M274.712 26.05c.024 1.174.057-2.555.014-1.528-.002.05-.015 1.464-.014 1.528m.012-16.258.001.15c-.007 1.124-.003 4.432.019 3.036.003-.198.004-2.393-.01-3.037a1 1 0 0 0-.01-.149M151.395 30.467c.041-.48.031 2.307.024 2.706-.003.157-.078-2.08-.024-2.706M274.72 95.124c.006.922-.004 3.313.018 3.734-.005-1.128.026-4.038-.018-3.734m-49.412 64.069c-1.044.944-2.771 2.616-2.302 2.246 1.908-1.846-.273.189 2.302-2.246m49.359-82.15c-.003.74.054 1.307.056 1.223.026-.8-.034-1.957-.056-1.222m-14.466 48.497c-.048.012-1.746 1.665-1.508 1.457.079-.068 1.546-1.467 1.508-1.457M222.156 2.734c1.086.022-2.231.044-3.212.018-.477-.037 3.074-.02 3.212-.018m52.526 53.804c-.036-.11-.016 3.595.014 2.135a71 71 0 0 0-.014-2.135m-.044-35.47c.043 2.486.074-7.95.02-5.208-.004.196-.023 4.992-.02 5.209m-1.637-15.692c.204.3.09.15-.98-.863-.14-.135.56.446.445.338a7.3 7.3 0 0 0-1.357-1.048 7.3 7.3 0 0 0-1.609-.706c-.154-.041.016.048-.141.008-.116-.033-1.015-.284-1.938-.282-.541-.005-1.078-.01-1.49-.01-2.344 0-2.598.032-2.79.032-.56 0-1.501-.022-2.636-.022-5.722 0-14.473.027-19.009-.041 4.037.027 7.883-.002 11.9-.01-1.176.067 5.909-.053 1.765.025 1.107-.01 7.128-.018 12.26-.021 3.253-.044 5.335 2.249 5.578 2.596zm-63.114 168.58c.726-.758-3.14 2.984-3.436 3.335.516-.488 3.345-3.242 3.436-3.335m17.795-17.304c.355-.352.64-.739 2.555-2.529l.005-.005c.559-.523-.055.097.051.005.038-.033 1.786-1.663.362-.281-2.171 2.108-.247.155-1.409 1.274-.142.137-2.309 2.288-2.175 2.172.014-.012.669-.656.781-.759.423-.387.24-.175.299-.23.192-.182 3.638-3.565 4.17-4.026.172-.149-5.513 5.373-5.74 5.583-.143.133-.133.026-.283.161-.077.07-2.354 2.302-2.656 2.585l-.205.19c.362-.32-1.717 1.684-1.671 1.605a127 127 0 0 1 1.517-1.466l.061-.056c-.314.266 4.53-4.404 3.457-3.424 1.389-1.369-.159.234.881-.799m6.718-6.539-.419.435c2.445-2.383 5.306-5.093 8.137-7.824.718-.693-.14.072.811-.828.761-.72 1.625-1.495 1.221-1.093-.098.098-1.653 1.56-2.42 2.303-2.264 2.195-1.663 1.67-1.795 1.799-.146.142-1.593 1.5-2.373 2.253-1.958 1.894-2.838 2.775-5.539 5.337 1.529-1.51.643-.733 2.377-2.382m40.172-109.224c-.024-.13-.002-2.364-.006-3.176.024.128.003 2.364.006 3.176M151.58 131.196c-.04-.686-.05 4.458-.017 3.102.008-.3.017-2.455.017-3.102m-.024 23.109c.011.688.039-2.082.009-2.077-.01.004-.011 1.989-.009 2.077M266.197 119.5c.093-.091 1.461-1.399 1.505-1.439.933-.84-3.569 3.468-1.505 1.439m-114.592 62.898c-.026-2.398-.038 4.821-.004 2.615.001-.11.005-2.5.004-2.615m.007 10.034c-.001-.575.012-3.128-.001-3.161-.019-.051-.033 2.871.001 3.161M274.517 76.545c-.045.277-.011-3.09-.017-4.26.045-.278.011 3.09.017 4.26m-.033 21.25c-.036-14.193.06-11.064.021.846-.028.017-.019.05-.021-.845m.005-18.174c.029.515.02 2.127.018 3.216-.02-.196-.013-2.43-.018-3.216m-122.847 45.45c.036.89-.009 4.832-.024 4.131-.003-.163.004-4.458.024-4.131m115.384-6.424c-.268.198 2.812-2.748 3.054-2.968.974-.885-2.812 2.721-3.054 2.968m7.452-62.248c-.034-.752-.016-2.89-.016-4.265.029.626.017 3.099.016 4.265m-.027 9.925c-.001-.086.002-2.004.004-2.09.033-1.57.025 3.854-.004 2.09m-122.75-42.257c.001.064-.001 1.516-.003 1.567-.032 1.296-.026-3.062.003-1.567"/><path fill="#fff" d="M108.164 215.031c-.22.21-.487.506-.684.736-.061.073-.009.056-.051.107-.082.099-.174.176-.253.276-.026.033.04.024.012.058-.155.186-.321.342-.484.524-.804.895-1.614 1.757-2.446 2.646-.275.293-.587.67-.887.957-.035.033-.041-.013-.049-.008-.133.072-.047.088-.106.163a9 9 0 0 1-.779.847c-.111.106-.056-.054-.134.085-.006.009.049.008.023.041-.06.075-.19.2-.24.255-.094.107-.111.124-.204.221-.127.133-.265.304-.409.44-.031.029-.02-.039-.072.005a2 2 0 0 0-.207.224c-.035.049.005.053.002.065-.017.104-.22.195-.24.213-.36.323-.614.654-.929.98-.24.248-.506.502-.732.739-.27.282-.484.535-.75.805-.028.029-.029-.037-.063-.002-.364.37-.719.744-1.055 1.138-.034.039.042.019.01.06-.197.252-.487.668-.745.681-.145.159-.32.352-.428.515-.07.105.045.049-.074.145-.027.022-.024-.037-.062-.002-.16.146-.316.325-.48.465-.032.029-.05-.004-.062.001-.109.039-.169.222-.19.253-.167.238-.326.377-.51.57-.043.045-.026-.041-.069.001-.22.219-.44.452-.635.685-.043.051.028.034.009.06-.085.115-.161.086-.244.195-.018.023.018.035.017.042-.015.099-.124.093-.14.107-.204.174-.26.357-.448.534-.022.021-.005-.058-.066.003-.41.407-.826.855-1.198 1.29-.058.067.01.044.008.051-.018.109-.12.093-.142.112-.175.149-.273.351-.452.394-.648.721-1.357 1.375-1.96 2.128-.008.01.037.022.02.041-.186.227-.193.142-.384.228-.048.021-.084.194-.088.208-.015.052.064.059.056.074-.064.122-.195-.034-.319.095-.004.005.04.014.032.027-.024.042-.067.065-.09.106-.051.096-.007.191-.159.267-.02.009-.08-.093-.187.026-.043.048-.24.249-.29.311-.05.063.015.049.012.054-.113.187-.042.143-.064.27-.023.127-.126-.013-.17.004-.044.019-.123.159-.14.196-.016.038.034.019.016.049-.12.199-.13.013-.202.047-.168.082-.172.269-.274.393-.028.034-.024-.012-.053.014-.114.103-.15.197-.297.298-.024.016-.177.064-.2.169-.004.015.045.011.004.063-.06.077-.177.209-.258.277-.06.05-.035-.05-.091.032-.025.036.053-.001.004.066a4 4 0 0 1-.249.27c-.055.056-.054-.003-.06 0a1.2 1.2 0 0 0-.166.122c-.47.481-.854.974-1.325 1.431-.037.035-.044-.018-.05-.013-.135.114.042.092-.017.206-.049-.072-.088-.009-.18.074-.046.04-.047-.006-.053-.005-.097.029-.094.119-.095.139-.006.076-.092.082-.096.134-.005.051.093.018.01.103-.045.003-.04-.116-.113-.06-.271.212-.668.713-.854.914s-.251.261-.354.384c-.186.221-.155.104-.298.214-.144.11.02.148.025.188s-.037.037-.047.072.053 0 .007.058c-.047.057-.227.164-.269.16-.088-.008-.077-.124-.194.035-.007.009.046.009.019.043-.216.266-.461.522-.68.786-.03.036.03.036.013.057-.178.223-.16.101-.325.158.1.048.087.155-.062.31-.09.094-.108.046-.19.084-.024.011-.065.099-.092.096-.09-.01-.086-.127-.218.055-.006.008.044.013.022.039-.14.167-.212.134-.382.298-.133.128-.33.396-.47.552.089.079-.069.203-.184.205-.092.1-.198.203-.282.306-.028.035.017.038.016.044-.02.104-.118.091-.14.11-.244.209-.382.438-.636.617-.009.006-.08-.039-.093.062-.001.006.096-.04-.002.065-.097.105-.253.331-.42.447-.04.029-.172.07-.202.177-.004.014.023.02.02.043-.013.073-.096.039-.095.139.002.101-.063.245-.238.355-.005.004-.086-.008-.13.038-.068.074-.157.186-.23.262-.036.036-.043-.016-.05-.01-.252.228-.393.427-.634.699-.044.05-.217.149-.274.272-.064.136.182.171-.078.372-.105.081-.404.022-.473.284-.34.306-.586.657-.938.954-.016.014-.112.011-.145.047-.049.053-.052.104-.087.143-.142.161-.3.283-.44.436-.054.058-.01.062-.074.131-.063.069-.14.082-.212.189-.055.081-.055.214-.136.314-.069-.061-.129.004-.254.099-.024.018-.025-.027-.038-.019-.051.03-.07.086-.12.113-.013.007-.035-.014-.047-.01-.097.034-.152.193-.162.22-.036.105-.098.11-.138.178s.056.002.002.074c-.113.15-.283.318-.413.455-.052.055-.047-.011-.055-.004-.116.105-.193.249-.313.253.08.228-.08.054-.204.244-.01.015.048.102.105.063.058-.038.106-.133.188-.184.019-.013.176-.038.192-.046.126-.066.03-.186.03-.197-.009-.121.173-.161.206-.185.153-.112.248-.241.373-.337.082-.064.16-.002.214-.061.178-.199.143-.363.404-.46.056-.021.097.093.17-.105.004-.013.047-.17.14-.195.012-.003.035.019.046.011.076-.054.1-.116.179-.18s.175-.137.246-.227c.044-.054.063-.159.075-.193.035-.095.153-.12.157-.196.004-.078-.13-.049-.048-.182.063.053.133.103.2.154.23-.243.439-.498.674-.737.03-.029.032.032.064.001.136-.13.227-.271.372-.402.112-.102.26-.189.379-.294-.001-.135.185-.281.297-.41.039-.045.018-.059.042-.095.089-.137.097-.025.137-.047.17-.097.046-.239.203-.396.009-.008.18-.042.2-.051.116-.063-.012-.04.038-.101.09-.113.142-.202.28-.303.04-.029.168-.07.199-.173.004-.013-.025-.031-.019-.04.104-.154.182-.085.28-.135s.159-.217.166-.255c.022-.1-.062.031-.069.031-.083-.004.007-.082.065-.15-.064-.081.028-.167.061-.071.004.011-.052.055-.06.071.126.013.232-.078.27-.253.018-.082-.066-.069.099-.212.074-.065.099.011.173-.038.17-.113.302-.344.451-.484.055-.051.032.028.07-.006.101-.09.163-.196.268-.283.01-.008.018.042.047.012.225-.226.4-.444.631-.685.112-.116.328-.308.44-.431.196-.213.401-.51.583-.678.118-.11.123-.056.19-.087.132-.058.227-.294.238-.328 0-.001-.103.092-.066.025-.002-.061.065-.024.066-.025.008-.021.193-.227.237-.261.024-.019.04.02.052.01q.423-.363.794-.786c.005-.005-.033-.028-.023-.04.137-.17.272-.233.419-.341.146-.107.238-.217.259-.344.1-.091.212-.254.275-.348s.134-.047.142-.053c.251-.184.34-.345.556-.579.102-.111.32-.318.44-.43.095-.088.135-.158.227-.235.012-.01.027.027.032.025.124-.065.014-.082.022-.113a.4.4 0 0 1 .185-.282c.032-.024.206-.016.26-.062.072-.06.014-.068.09-.13.007-.005.026.016.067-.028.19-.205.39-.436.594-.643.027-.028.025.04.066 0 .19-.19.394-.403.56-.607.041-.05-.01-.043-.007-.06.018-.101.163-.131.178-.144.362-.318.563-.634.929-.961.02-.018.226-.103.234-.222.001-.008.007-.128.102-.148.005-.001-.005.067.06-.006.066-.074.196-.169.257-.297.02-.041.034-.168.168-.216.008-.003.247-.047.226-.165-.004-.02-.087-.083.057-.156.028-.013.008.041.072-.004.097-.07.185-.201.319-.273.023-.012.148-.041.17-.14.003-.015-.04-.021-.01-.056.136-.168.31-.315.445-.489.048-.062-.02-.072.025-.141a.9.9 0 0 1 .226-.239c.077-.043.077.085.17-.001.406-.376.748-.806 1.126-1.208.055-.059.031.012.115-.075.31-.318.865-.849 1.084-1.173.175-.26-.124-.009.024-.194.071-.089.231-.106.253-.123.21-.171.307-.337.485-.501.036-.034.033.031.064.001.105-.099.198-.222.297-.319.044-.044.06-.013.097-.056.091-.102.166-.199.237-.316.006-.01-.08.021-.01-.053.112-.12.233-.287.386-.401.045-.034.1.015.146-.106.01-.026-.075-.064.077-.112.025-.008.262-.106.295-.235.009-.034.011-.14.066-.181.008-.005.01.048.052.011.146-.133.286-.284.435-.421.04-.036.013.05.072-.005.16-.152.345-.358.486-.522.052-.061-.01-.045-.01-.051.023-.109.119-.093.144-.112.154-.119.228-.25.359-.371.036-.033.04.018.048.014.095-.05-.007-.044.032-.095.109-.144.25-.286.38-.413.047-.046.027.039.07-.004.25-.249.503-.516.725-.782.042-.05-.011-.044-.008-.059.026-.105.175-.152.202-.17.122-.08.14-.141.231-.228.45-.425.964-.987 1.36-1.416.517-.557.902-1.004 1.412-1.519.032-.033.033.032.061.004.364-.361.701-.736 1.067-1.096.03-.03.019.044.068-.003.101-.095.222-.223.309-.334.043-.053-.047-.013-.004-.067.102-.125.219-.251.338-.364.051-.049.009.058.073-.007.434-.443.863-.876 1.257-1.367.027-.034-.011-.123.065-.177.022.012.043.033.064.049.638-.64 1.237-1.305 1.862-1.96.027-.027.015.053.066 0 .297-.309.595-.598.865-.946.027-.035-.049-.077.049-.16.018-.015.16-.146.207-.169.007-.003.011.05.055.006.255-.256.511-.534.744-.81.038-.045-.035-.029-.009-.061.188-.227.433-.435.601-.663.112-.153.012-.153.031-.274.002-.017.082-.102.057-.135-.064-.083-.185-.121-.248-.214-.014-.02.113-.114.007-.088-.007.002-.099.07-.132.077-.024.004-.029-.05-.069-.034-.04.017-.045.073-.105.106-.06.032-.075-.021-.17.069m-24.417 26.245c.043-.102.16-.011.056.045-.005.003-.058-.04-.056-.045m-8.71 8.99c.047-.143.18-.143.15-.04s-.165.083-.15.04m-1.008.976c.073-.149.24-.023.092.07-.009.005-.097-.061-.092-.07m34.459-35.672a1 1 0 0 1 .059-.064c.064 0-.049.123-.059.064m-35.463 36.637c.014-.055.136-.134.119-.066-.014.055-.136.135-.119.066m14.358-14.922c0-.003.04-.047.048-.038.026.031-.04.083-.048.038m-16.002 16.623c.237-.257.26-.529.01-.242-.045.052.142-.068.093.005-.091.135-.243.137-.315.295-.013.029.198-.043.212-.059zm12.281-12.797a1 1 0 0 1 .06-.064c.064 0-.05.123-.06.064m6.087-6.407c0-.006.13-.147.138-.149.124-.02-.14.266-.138.149M79.7 245.06c-.096.032-.176.106-.184.199q.091-.1.184-.199M89.563 176.455c-.22.21-.487.506-.684.737-.062.072-.01.055-.052.106-.081.099-.173.176-.252.276-.027.033.04.024.011.058-.154.186-.32.342-.483.524-.805.896-1.615 1.757-2.447 2.646-.274.293-.586.67-.886.957-.035.033-.041-.013-.05-.008-.133.072-.047.088-.105.163-.233.296-.52.597-.78.847-.11.106-.055-.054-.134.085-.005.009.05.008.023.041-.06.075-.19.2-.24.256-.094.106-.11.123-.203.22-.128.133-.266.304-.41.44-.03.029-.02-.039-.071.005a2 2 0 0 0-.208.224c-.035.05.005.053.003.065-.018.105-.22.195-.24.213-.361.323-.615.654-.93.98-.24.248-.506.502-.732.739-.269.282-.483.535-.75.805-.027.029-.028-.037-.062-.002-.365.37-.72.744-1.056 1.138-.034.039.042.019.01.06-.196.252-.487.668-.745.681-.144.159-.32.352-.428.515-.07.105.046.049-.074.146-.026.021-.023-.038-.061-.003-.161.146-.317.325-.48.466-.033.028-.05-.005-.063 0-.108.04-.168.222-.19.253-.167.238-.325.377-.51.57-.043.045-.026-.041-.068.001-.22.219-.44.452-.635.685-.044.051.028.034.008.061-.085.115-.16.085-.244.194-.017.023.018.035.017.042-.015.099-.124.093-.14.107-.203.175-.26.357-.447.534-.023.021-.005-.058-.067.003-.41.407-.825.855-1.198 1.29-.058.068.01.044.009.051-.019.109-.12.093-.142.112-.175.149-.273.351-.453.394-.647.721-1.357 1.375-1.96 2.128-.008.01.037.022.021.041-.187.227-.194.142-.385.228-.047.021-.083.194-.087.208-.015.052.063.059.056.074-.065.122-.195-.033-.32.095-.003.005.04.014.032.027-.024.042-.067.065-.09.107-.05.095-.006.19-.158.266-.02.009-.08-.093-.188.026-.043.048-.24.249-.29.312-.05.062.015.048.012.053-.112.187-.042.143-.064.27s-.125-.013-.17.005c-.043.018-.123.158-.14.195-.016.038.034.019.016.05-.12.198-.13.012-.201.046-.169.082-.172.269-.275.393-.028.034-.024-.012-.053.014-.114.103-.15.197-.297.298-.024.016-.177.064-.2.169-.003.015.045.011.005.063-.06.077-.178.209-.258.277-.06.05-.036-.05-.092.032-.025.036.053-.001.005.066a4 4 0 0 1-.25.27c-.055.056-.053-.003-.06 0a1.2 1.2 0 0 0-.165.122c-.471.481-.855.974-1.326 1.431-.037.036-.043-.018-.05-.013-.134.115.042.092-.016.206-.05-.072-.088-.009-.181.074-.045.04-.046-.006-.052-.005-.098.03-.094.119-.096.139-.006.076-.091.082-.096.134-.005.051.094.018.01.103-.044.003-.04-.116-.112-.06-.272.212-.67.713-.855.914s-.25.261-.353.384c-.186.221-.155.104-.299.214s.021.148.026.188-.038.038-.047.072c-.01.035.053 0 .006.058s-.227.164-.268.16c-.088-.008-.077-.123-.195.035-.006.009.046.009.02.043-.217.266-.462.523-.68.786-.03.036.03.036.012.057-.178.223-.159.101-.324.158.1.048.087.155-.063.311-.09.093-.107.045-.189.083-.024.011-.065.099-.093.096-.089-.01-.086-.127-.218.055-.005.008.044.013.023.039-.14.167-.212.134-.383.298-.133.128-.329.396-.47.552.09.079-.068.204-.183.205-.093.1-.199.203-.282.306-.029.035.017.038.015.044-.019.104-.117.091-.14.11-.244.209-.381.438-.635.617-.01.006-.08-.039-.094.062 0 .006.096-.04-.001.065-.098.106-.254.331-.42.447-.04.029-.173.07-.203.177-.004.014.023.02.02.043-.013.073-.096.039-.094.139.001.101-.064.245-.239.355-.005.004-.086-.008-.129.038-.069.074-.158.187-.231.262-.036.036-.043-.016-.05-.01-.251.228-.392.427-.633.699-.044.05-.217.149-.275.272-.063.136.183.171-.078.372-.105.081-.404.022-.472.284-.341.306-.586.657-.938.955-.016.013-.113.01-.146.046-.048.053-.052.104-.086.143-.142.162-.3.283-.44.436-.054.058-.01.062-.074.131s-.14.082-.213.189c-.055.081-.055.214-.135.314-.07-.061-.129.004-.255.099-.024.018-.024-.027-.037-.019-.052.03-.07.086-.12.113-.013.007-.036-.014-.047-.01-.098.034-.153.193-.163.22-.036.105-.097.11-.138.178-.04.068.056.002.002.074-.113.15-.282.318-.413.455-.052.055-.046-.011-.054-.004-.116.105-.194.249-.314.254.08.227-.08.053-.204.243-.01.015.048.102.106.064.057-.039.105-.134.187-.185.02-.012.176-.038.192-.046.127-.066.03-.186.03-.197-.009-.121.173-.161.206-.185.154-.112.248-.241.374-.337.081-.063.16-.002.213-.061.178-.199.143-.363.404-.46.056-.021.097.093.17-.105.004-.012.048-.17.14-.195.012-.003.035.019.047.011.076-.054.1-.116.178-.18.079-.063.175-.137.247-.227.043-.054.062-.159.075-.192.034-.096.153-.121.157-.197s-.13-.049-.048-.182c.063.054.133.103.199.154.23-.243.439-.498.675-.737.029-.029.031.032.063.001.136-.13.228-.27.372-.402.112-.102.26-.188.38-.294-.002-.135.184-.281.296-.41.04-.044.019-.059.042-.095.09-.136.097-.025.137-.047.171-.097.047-.239.204-.396.008-.008.18-.041.199-.051.116-.062-.011-.04.038-.101.09-.113.142-.202.28-.303.04-.029.168-.07.2-.172.004-.014-.025-.032-.02-.041.104-.154.183-.085.28-.135.099-.051.159-.217.167-.255.02-.099-.062.031-.07.031-.083-.004.007-.082.066-.15-.065-.081.027-.167.06-.071.004.011-.051.055-.06.071.127.013.232-.078.27-.253.019-.082-.065-.069.1-.212.074-.065.098.011.172-.038.17-.113.302-.344.452-.484.054-.051.032.028.07-.006.1-.09.163-.196.267-.283.01-.008.018.042.048.012.225-.226.4-.444.63-.685.112-.116.328-.308.441-.431.196-.213.4-.51.582-.678.119-.109.123-.056.191-.087.13-.058.226-.294.237-.328 0-.001-.102.093-.066.025-.001-.061.065-.024.066-.025.008-.021.194-.227.238-.261.023-.019.04.02.051.01q.423-.363.795-.786c.004-.005-.034-.028-.024-.04.138-.17.272-.233.419-.341.147-.107.238-.217.26-.344.1-.091.211-.254.275-.348.063-.094.134-.047.142-.053.25-.184.34-.345.555-.579.102-.111.32-.318.44-.43.095-.088.135-.158.227-.235.012-.01.028.027.032.025.124-.065.015-.082.022-.113a.4.4 0 0 1 .186-.282c.031-.024.205-.016.26-.062.072-.06.014-.067.09-.13.006-.005.026.016.067-.028.19-.205.39-.436.593-.643.028-.028.025.04.066 0 .19-.19.394-.403.56-.606.042-.051-.01-.044-.006-.061.018-.101.163-.131.178-.144.362-.318.562-.634.928-.961.02-.018.227-.103.235-.222 0-.008.007-.128.101-.148.006-.001-.004.068.061-.006.066-.074.195-.169.257-.297.02-.041.033-.168.167-.216.009-.003.248-.047.226-.165-.003-.019-.086-.083.058-.155.027-.014.007.04.071-.005.098-.07.186-.201.32-.273.023-.012.148-.041.169-.139.003-.016-.04-.021-.01-.057.136-.168.31-.315.445-.489.048-.062-.02-.072.026-.141a.9.9 0 0 1 .226-.239c.077-.043.076.085.17-.001.405-.376.748-.806 1.125-1.208.056-.059.032.012.116-.075.31-.318.864-.849 1.083-1.173.176-.26-.124-.009.024-.194.072-.089.232-.106.253-.123.21-.171.307-.337.485-.501.037-.034.033.031.064.001.106-.099.198-.222.297-.319.045-.044.06-.013.098-.056.09-.102.165-.199.236-.316.007-.01-.079.021-.01-.053.113-.119.233-.286.386-.401.045-.034.1.015.147-.106.01-.026-.076-.064.076-.112.026-.008.263-.106.296-.235.008-.034.01-.14.066-.181.007-.005.01.048.052.011.145-.133.285-.284.434-.42.04-.037.014.049.072-.006a7 7 0 0 0 .486-.522c.052-.061-.01-.045-.009-.051.022-.109.118-.093.143-.112.154-.119.229-.25.36-.371.035-.033.039.018.048.014.094-.05-.008-.044.031-.095.11-.144.25-.285.38-.412.047-.047.027.038.07-.005.25-.249.503-.516.725-.782.042-.05-.011-.044-.007-.059.025-.105.174-.152.201-.17.123-.08.14-.141.231-.228.45-.425.965-.987 1.36-1.415.517-.558.903-1.005 1.412-1.52.032-.033.033.032.061.004.364-.361.702-.736 1.068-1.096.03-.03.019.044.068-.003.1-.095.221-.223.309-.333.042-.054-.048-.014-.004-.068a4 4 0 0 1 .338-.364c.05-.048.009.058.072-.007.434-.443.863-.876 1.258-1.367.027-.034-.012-.123.064-.177.023.012.044.033.065.049.638-.64 1.236-1.305 1.862-1.96.026-.027.015.053.066 0 .297-.308.595-.598.865-.946.027-.035-.05-.077.049-.16.017-.015.16-.146.207-.169.007-.003.01.05.054.006.255-.256.511-.534.745-.81.037-.045-.036-.029-.01-.061.189-.227.434-.435.602-.663.112-.153.012-.153.03-.274.003-.017.083-.102.057-.134-.064-.084-.184-.122-.248-.215-.014-.02.113-.114.008-.088-.008.002-.1.07-.133.077-.023.004-.029-.05-.069-.034-.04.017-.045.073-.105.106s-.074-.021-.17.069M65.146 202.7c.043-.102.159-.011.056.045-.005.003-.059-.04-.056-.045m-8.71 8.99c.047-.142.18-.143.149-.04-.03.103-.164.083-.15.04m-1.009.976c.073-.149.24-.023.092.07-.008.005-.096-.061-.092-.07m34.459-35.672c0-.003.056-.064.06-.064.064 0-.05.123-.06.064m-35.462 36.638c.014-.055.136-.135.118-.067-.014.055-.136.135-.118.067m14.357-14.923c0-.003.04-.047.048-.038.026.031-.04.083-.048.038M52.78 215.332c.237-.257.26-.529.01-.242-.045.052.143-.068.093.005-.091.136-.243.137-.315.295-.013.029.199-.043.213-.059zm12.281-12.797c0-.003.057-.064.06-.064.064 0-.05.123-.06.064m6.087-6.407c0-.006.131-.147.138-.149.125-.02-.14.266-.138.149M61.1 206.484c-.096.032-.175.107-.183.199q.091-.1.184-.199M36.996 171.674c-.22.209-.487.506-.684.736-.061.073-.01.056-.05.107-.083.099-.175.176-.254.275-.026.033.04.024.012.058-.155.186-.32.343-.484.525-.804.895-1.614 1.757-2.446 2.645-.275.294-.587.671-.887.957-.035.034-.04-.012-.049-.007-.133.072-.047.088-.106.163-.232.295-.519.597-.78.847-.11.106-.055-.055-.133.084-.006.01.049.009.023.042-.06.075-.19.2-.24.255-.094.107-.11.124-.204.221-.127.133-.265.304-.409.44-.03.029-.02-.039-.072.005a2 2 0 0 0-.207.224c-.035.049.005.052.002.065-.017.104-.22.195-.24.213-.36.323-.614.654-.93.98-.239.247-.505.501-.731.739-.27.282-.484.535-.75.805-.028.029-.028-.037-.063-.002a22 22 0 0 0-1.055 1.137c-.034.04.042.02.01.061-.197.251-.487.668-.745.681-.145.159-.32.352-.428.515-.07.105.045.049-.074.145-.027.022-.024-.037-.062-.002-.16.146-.316.325-.48.465-.032.029-.05-.004-.062.001-.109.039-.169.222-.19.253-.167.238-.326.376-.51.57-.043.044-.026-.041-.069.001-.22.218-.44.452-.635.684-.043.052.028.035.009.061-.085.115-.161.086-.244.195-.018.023.018.035.017.041-.015.1-.124.094-.14.108-.203.174-.26.357-.448.534-.022.021-.005-.059-.066.003-.41.407-.826.854-1.198 1.29-.058.067.01.044.008.051-.018.109-.12.093-.142.112-.175.149-.273.351-.452.394-.648.72-1.357 1.375-1.96 2.128-.008.009.037.022.021.041-.187.227-.194.142-.385.228-.048.021-.083.194-.088.208-.015.052.064.059.056.074-.064.122-.194-.034-.319.095-.004.004.04.013.032.027-.024.041-.067.064-.09.106-.051.096-.006.191-.159.266-.019.01-.08-.092-.187.027-.043.047-.24.249-.29.311s.015.049.012.054c-.113.187-.042.143-.064.27-.023.127-.126-.014-.17.004s-.123.159-.14.196c-.016.037.034.019.016.049-.12.199-.13.012-.202.047-.168.082-.172.269-.274.393-.028.034-.024-.012-.053.014-.114.103-.15.197-.297.297-.024.017-.178.065-.2.17-.004.015.045.01.004.062-.06.078-.177.21-.258.278-.06.05-.035-.05-.091.031-.025.037.053 0 .004.066a4 4 0 0 1-.249.271c-.055.055-.054-.003-.06 0a1.2 1.2 0 0 0-.166.122c-.47.481-.854.974-1.325 1.43-.037.036-.044-.017-.05-.012-.135.114.042.092-.017.206-.049-.072-.088-.009-.18.074-.046.04-.047-.006-.053-.005-.097.029-.094.118-.095.139-.006.076-.092.082-.096.133s.093.019.01.104c-.045.003-.04-.116-.113-.06-.271.211-.668.713-.854.914s-.25.261-.354.383c-.185.221-.154.105-.298.214-.144.111.02.149.025.189s-.037.037-.047.072.053 0 .007.058c-.047.057-.227.164-.269.16-.088-.008-.077-.124-.194.035-.007.009.046.009.019.042-.216.267-.461.523-.68.787-.03.036.03.035.013.057-.178.223-.16.1-.324.157.1.049.086.156-.063.311-.09.094-.107.046-.19.084-.024.011-.065.099-.092.096-.089-.01-.086-.127-.218.055-.006.008.044.012.022.038-.14.168-.212.135-.382.299-.133.128-.329.395-.47.552.089.079-.069.203-.184.204-.092.101-.198.204-.282.307-.028.035.017.037.016.044-.02.104-.118.091-.14.11-.244.209-.381.438-.636.616-.009.007-.08-.038-.094.063 0 .006.097-.04 0 .065-.098.105-.254.331-.42.447-.04.028-.173.07-.203.176-.004.015.023.021.02.044-.013.072-.096.038-.095.139s-.063.245-.238.355c-.005.004-.086-.008-.13.038-.068.074-.157.186-.23.262-.036.036-.043-.016-.05-.01-.252.228-.393.427-.634.699-.044.05-.217.149-.274.272-.064.135.182.171-.078.371-.105.081-.404.023-.473.285-.34.306-.586.657-.938.954-.016.014-.112.011-.145.047-.049.052-.052.104-.086.142-.143.162-.3.284-.441.437-.054.057-.01.061-.074.13-.063.069-.14.083-.212.19-.055.08-.055.214-.136.313-.069-.06-.128.005-.254.1-.024.018-.025-.027-.037-.02-.052.03-.07.087-.121.114-.013.007-.035-.015-.047-.01-.097.034-.153.193-.162.22-.036.105-.098.11-.138.178s.056.001.001.074c-.112.15-.282.318-.412.455-.052.055-.047-.011-.055-.004-.116.105-.193.249-.313.253.08.227-.08.053-.204.244-.01.015.048.101.105.063.058-.038.106-.133.188-.185.019-.012.176-.037.192-.045.126-.066.03-.186.03-.197-.009-.121.173-.161.206-.186.153-.111.248-.24.373-.337.082-.063.16-.001.214-.061.178-.198.143-.362.404-.459.056-.021.097.093.17-.105.004-.013.047-.17.14-.195.012-.004.035.019.046.011.076-.054.1-.116.179-.18s.175-.138.247-.227c.043-.054.062-.159.074-.193.035-.096.153-.12.157-.197s-.13-.048-.048-.181c.063.053.133.103.2.154.23-.243.439-.498.674-.737.03-.03.032.032.064.001.136-.131.227-.271.372-.402.112-.102.26-.189.379-.294-.001-.135.185-.281.297-.41.039-.045.018-.059.042-.096.089-.136.097-.024.137-.046.17-.097.046-.239.204-.396.008-.008.18-.042.198-.052.117-.062-.01-.039.039-.101.09-.112.142-.201.28-.302.04-.029.167-.07.199-.173.004-.013-.025-.031-.019-.04.104-.154.182-.085.28-.136.098-.05.159-.217.166-.255.022-.099-.062.032-.069.032-.083-.005.007-.082.065-.15-.064-.081.028-.167.061-.071.004.011-.052.054-.06.071.126.013.232-.078.27-.253.018-.082-.065-.069.099-.212.074-.065.099.011.173-.038.17-.113.302-.344.451-.484.055-.051.032.028.07-.006.101-.09.163-.196.268-.283.01-.008.018.042.047.012.226-.227.4-.445.631-.685.112-.116.328-.308.44-.431.196-.213.401-.51.583-.678.118-.11.123-.056.19-.087.132-.059.227-.295.238-.328 0-.001-.103.092-.066.025-.002-.061.065-.024.066-.025.008-.021.194-.227.237-.261.024-.019.04.02.052.01q.423-.363.795-.786c.004-.005-.034-.028-.024-.04.137-.17.272-.234.418-.341.147-.108.239-.217.26-.345.1-.091.212-.253.275-.347s.134-.047.142-.053c.251-.184.34-.345.556-.579.102-.111.32-.319.44-.43.095-.088.135-.158.227-.235.012-.01.027.027.032.025.124-.065.014-.082.022-.113a.4.4 0 0 1 .185-.282c.032-.024.205-.016.26-.062.072-.06.014-.068.09-.13.007-.005.026.016.067-.028.19-.205.39-.436.594-.643.027-.028.025.04.066 0 .19-.19.394-.403.56-.607.041-.05-.01-.043-.007-.06.018-.102.163-.131.178-.145.362-.317.563-.634.929-.96.02-.018.226-.103.235-.222 0-.008.006-.128.1-.148.006-.001-.003.067.062-.006s.195-.169.257-.297c.02-.041.033-.168.167-.216.009-.003.247-.047.226-.165-.004-.02-.087-.083.057-.156.028-.014.008.041.072-.005.097-.069.185-.2.319-.272.023-.012.148-.041.17-.14.003-.015-.04-.021-.01-.056.136-.168.31-.315.445-.489.048-.062-.02-.072.025-.141a.9.9 0 0 1 .226-.239c.077-.044.077.085.17-.002.406-.375.748-.805 1.125-1.207.056-.059.032.011.116-.075.31-.318.865-.849 1.084-1.173.175-.26-.124-.009.024-.194.071-.089.231-.106.253-.124.21-.17.307-.336.485-.5.037-.034.033.03.064.001.106-.099.198-.222.297-.319.044-.044.06-.013.097-.056.091-.103.166-.199.237-.316.006-.011-.08.021-.01-.053.112-.12.233-.287.386-.401.045-.034.1.015.146-.107.01-.025-.075-.063.077-.111.025-.008.262-.107.295-.236.009-.034.011-.139.066-.18.008-.005.01.048.052.011.146-.133.286-.284.435-.421.04-.036.013.05.072-.005a7 7 0 0 0 .486-.522c.052-.061-.01-.045-.01-.052.023-.108.119-.092.144-.111.154-.119.228-.251.359-.371.036-.034.04.018.049.013.094-.049-.008-.043.03-.094.11-.144.25-.286.38-.413.048-.046.028.038.07-.004.251-.249.504-.516.726-.782.042-.05-.011-.044-.008-.059.026-.106.175-.152.202-.17.122-.08.14-.141.231-.228.45-.425.964-.988 1.36-1.416.516-.557.902-1.004 1.412-1.519.032-.033.033.032.06.004.365-.361.702-.736 1.068-1.097.03-.029.02.045.068-.002.102-.095.222-.223.31-.334.042-.054-.048-.013-.005-.067.102-.125.219-.251.338-.364.05-.049.01.058.073-.007.434-.444.863-.877 1.257-1.368.027-.033-.011-.123.065-.176.022.012.043.033.064.049.638-.64 1.237-1.305 1.862-1.96.027-.028.015.053.066 0 .297-.309.595-.599.865-.946.027-.035-.049-.077.05-.16.017-.015.159-.146.206-.169.007-.003.01.049.055.006.255-.256.511-.534.744-.81.038-.045-.035-.029-.009-.061.188-.227.433-.435.601-.663.112-.153.012-.153.03-.274.003-.017.083-.102.058-.135-.064-.083-.185-.121-.248-.214-.014-.02.113-.115.007-.088-.007.002-.1.07-.132.076-.024.005-.03-.049-.07-.033-.04.017-.044.072-.104.105s-.075-.021-.17.07M12.58 197.919c.043-.102.16-.011.056.045-.005.002-.058-.04-.056-.045m-8.71 8.989c.047-.142.18-.142.15-.039s-.165.083-.15.039m-1.008.977c.073-.149.24-.023.092.07-.009.005-.097-.062-.092-.07m34.459-35.673c0-.002.056-.064.059-.064.064.001-.05.124-.06.064M1.857 208.85c.014-.055.136-.134.119-.066-.014.055-.136.135-.119.066m14.358-14.922c0-.003.04-.047.048-.038.026.031-.04.083-.048.038M.213 210.55c.237-.256.26-.528.01-.241-.045.052.143-.069.093.005-.091.135-.243.137-.315.295-.013.029.198-.044.212-.059m12.281-12.796c0-.003.056-.064.06-.064.064 0-.05.123-.06.064m6.087-6.407c0-.006.13-.148.138-.149.125-.02-.14.266-.138.149M8.533 201.702c-.096.033-.176.107-.184.2q.091-.1.184-.2"/></svg>