<svg xmlns="http://www.w3.org/2000/svg" width="120" height="175" fill="none" viewBox="0 0 120 175"><path fill="#0ba6e2" d="M36.76 103.883c.061.931-.552 2.091.023 2.896 1.704 1.576 2.541 4.638 5.225 4.494 1.772 1.644 2.789 4.943 5.551 4.883l2.223 2.73 1.802.32c.991 1.086.816 1.621 2.773 1.892.885.519 1.4 1.265 2.558 1.131 1.627 1.21 1.394 2.207 3.924 2.102 1.383-.276 1.44.894 2.56 1.128.929-.159 1.447.418 1.963 1.028 1.118.262 2.503.018 3.497.553.628 1.069 1.722.826 2.664.927.813.087 1.58.153 2.016.969 2.436 1.049 2.447 1.04 3.284 2.119 1.756.339 3.575.187 5.29.752.983 1.428 2.575.692 3.852 1.07 1.198 1.862 4.026.345 5.132 2.234 2.368.641 5.63-.375 7.404 1.504 5.987 1.932 6.741-3.646 5.595 4.181-1.054 1.228-2.584.323-3.963.389-1.564 1.037-3.343.507-5.136.319-.612-.077-.787-.855-1.365-.974-1.23-.342-4.8-.068-5.177-.954-.54-.854-1.51-.333-2.14-.734-.592-.852-1.524-.978-2.54-1.161-.897-1.79-5.362-.529-6.035-1.696-.99-1.188-2.207-.067-2.979-1.716-1.498-.114-3.287.091-4.302-1.214-1.447.113-1.892-1.021-3.15-1.217-.803-.031-1.626-.059-2.393-.262-.52-.137-.672-.941-1.369-.971-.601-.026-1.2-.107-1.8-.177-1.27.25-1.44-1.025-2.562-1.133-.373.019-.755-.145-1.133-.227-.493-1.131-1.8-.599-2.502-1.209-.604-.986-1.894-.475-2.537-1.166-.503-.838-1.382-.587-2.101-.818-.727-.722-1.425-1.142-2.585-1.091-2.19-3.436-2.466-.512-4.826-3.92-3.32.301-3.602-4.999-6.801-4.989-2.46-1.608-2.156-3.833-5.596-4.86-1.09-.392-1.287-2.32-2.7-1.884-.59.705-1.347.711-2.166.558-.605-.19-.953.671-1.534.683-3.472-.635-7.494.08-10.364-1.901-1.1-.248-2.605.203-3.353-.819-.548-.916-1.923-.109-2.536-1.175-2.187-3.587-6.828-6.381-7.107-10.658-.847-1.303-2.545-2.297-1.946-4.07-.54-.871-.843-1.669-.59-2.734-.924-1.63-1.73-1.494-1.348-3.66-.167-.525-.883-.804-.684-1.546.1-.374.193-.842.053-1.166-.731-.747-.633-1.7-.618-2.725-.714-.597-.647-1.37-.518-2.175-1.307-2.449-.016-5.412-.01-8.133.068-.756.39-1.545-.305-2.24-.624-1.175.44-5.325.427-7.106-.67-.578-.962-1.26-.627-2.119.23-.864-.93-1.21-.681-2.145.894-7.353 1.52-14.81 2.34-22.181 2.166-1.608.31-5.184 2.424-6.938.557-1.911-.342-4.46 1.536-5.688.427-1.885-.382-4.7 1.584-5.954.792-.523.75-.59.832-1.443-.015-1.766.446-3.086 2.034-3.973l.28-1.769 6.551-5.333 1.762.106c.892-1.092 2.152-.501 3.437-.466.481.778 2.217 1.88 1.223 2.877-2.33 1.923-4.654 3.853-7.034 5.713-.84.656-1.432 1.34-1.346 2.453-.678.769-1.183 1.457-1.139 2.56-.082.347-.66.549-.807.822-.17 1.015-.138 2-1.21 2.521l-.256 1.764c-1.723 1.128-.864 3.795-1.417 5.579-2.473 2.613-.339 7.335-2.486 10.067-.534.903-.799 2.446-.107 3.315.546.663.49.914-.131 1.509C.815 45.232 1.529 50.318.713 54.476c1.288 2.23.12 5.016.054 7.532-.105.682.577.992.683 1.539.073.378-.089.795-.096 1.196-.015.775-.382 1.55-.01 2.326 1.042.961-.123 2.305 1.017 3.182.23 2.358-.744 4.752-.437 7.107.723.607.562 1.398.472 2.188-.003.587.775.936.687 1.532.003 1.537-.026 1.562.908 2.628 1.075 1.667-.271 3.908.02 5.793 1.34 2.212 3.635 2.997 3.595 5.917.867 2.116 2.975 3.757 4.29 5.688.476.588.473.589 2.426 1.368 1.547.778 2.424 4.407 4.42 2.158l6.601.667c3.64-2.188-3.74-4.74-2.52-7.708.561-1.992-.435-2.873-1.597-4.16-.938-.978.194-2.367-1.018-3.19.11-1.031.277-1.976-.629-2.688.098-1.617.659-3.216-.384-4.565l1.301-12.506c1.122-1.027 1.843-.986 2.004-2.82.101-.643.805-.83.99-1.367.182-2.835 3.782-3.922 5.55-5.89.291-.24.377-.641.34-1.078.236-1.72 2.52-2.558 3.681-3.706 2.404.27 3.7-1.595 5.515-2.966l1.824.069c.934-.686 1.712-1.903 3.024-1.377 1.424.24 2.235-2.573 3.5-1.042.628 1.07 1.81.263 2.552 1.162.715.968 1.464 1.92 2.285 2.796.866 1.15-.304 2.168.99 3.21.16 3.029-1.764 6.775-.121 9.418-.241 2.32-.514 4.711-.725 7.108-1.559 2.044-1.373 4.794-1.604 7.36.048.963-1.08 1.091-1.116 1.963-.042.991-.233 1.977-.36 2.965-.99.504-.923 1.554-1.193 2.526-1.323.619-.425 2.275-1.66 2.908-.98.542-1.331 1.379-1.345 2.447-.177.544-.886.724-.991 1.366-.108 2.75-3.474 2.498-3.119 5.288-1.248 1.021-2.498 2.038-3.757 3.063M25.823 77.038c.047 1.434-.785 3.274-.139 4.6.868 1.062.029 2.741.107 4.033-.033.756-.411 1.547.296 2.236.692.83-.358 1.937.645 2.706 1.328.895.982 3.668 1.791 4.098 1.007 1.763 3.595 3.198 3.482 5.329-.15.541-.072.785.355.822 1.488-.294 2.535-1.946 3.837-2.735.782-.657.094-1.98 1.178-2.536 1.68-.575.86-2.407 2.123-3.285.132-.077.195-.318.235-.496-.02-2.04 2.136-2.042 2.115-3.914-.142-.77.612-.947.951-1.385.39-1.496-.053-3.348 1.374-4.326.084-.799.265-1.603.223-2.394-.048-.935.983-1.23 1.066-1.962.214-5.296 2.12-10.849.789-15.906.064-1.664 1.112-3.854-.254-5.13-1.39-.16-2.78-.32-4.149-.476-1.046.618-1.89 1.483-2.853 2.215l-1.832-.064-2.75 2.238-.256 1.785-4.639 3.776c.026 1.144-.285 1.862-1.113 2.582-.143.753-.053 1.52-.807 2.116-1.304 1.67.297 4.809-1.775 6.073"/><path fill="#0ba6e2" d="m95.664 150.603 6.227-22.579 15.02 18.703z"/><path fill="#0ba6e2" d="M102.842 131.6c-.066-.053-.063-.204-.119-.283-.237-.331-.279-.491-.48-.801-.297-.461-1.41-1.643-.883-2.066l.016-.012c.104-.076.3-.057.426-.132.127-.076.85-.676 1.014-.557.232.177.469.858.572.97.071.076.217.121.312.215.305.301.396.514.817.668l.002.589c.17.121.234.459.317.548.069.073.181.058.249.137.078.087.109.292.254.448.238.256.473.146.629.289.161.148.265.496.508.656l.13.029.1-.176c.11.09.047.217.125.319.092.119.236.102.299.181.051.065.045.214.117.294.105.117.194.002.267.052.029.019.48.456.503.483.171.204.035.343.155.52.334.49.836.864 1.224 1.254.173.173.324.379.452.588-.626.011-.395.913.01.181.084.28.367.299.5.521.086.144.074.301.225.484.268.324.793.491.439.931.385.324.497.783.988.617.103.08.081.516.139.652.056.129.603 1.018.703 1.155s.28.373.403.458c.153.106.625-.112.365.506.27.26.339.374.502.686.029.056-.035.117-.012.145.047.059.178.118.268.218.149.164.084.378.288.182l.384.252-.031.221.284.071c-.375.184.156.461.227.175l.333.819c-.386.259.346.516.508.315l.06.077c.081.297.322.436.473.757.151.32.096.323-.005.539l.181.166c.433-.02.306.178.308.403l.626.843-.993.142c-.133-.07-.303-.094-.557.135-.295-.32-.825-.027-1.179.151-.041.02-.029.09-.083.123-.133.078-.511.053-.457.277l-.412-.127-.285.179.041.212c-.25-.204-.557-.052-.728-.08-.034-.006-.058-.102-.162-.111-.121-.01-.331.058-.475.052l-.101.353c-.236.104-.374-.165-.523-.161a9 9 0 0 0-.522.119c-.201.086-.097.318-.712.377-.11.01-.213-.058-.311-.044-.173.026-.657.311-.666.494-.249-.182-.792.01-.968-.024-.053-.01-.09-.148-.248-.15-.128-.002-.427.168-.587.178-.171.01-.252-.097-.328-.092-.072.006-.12.113-.216.13-.301.051-.6-.053-.838-.012-.344.058-.596.395-.86.572-.075-.005-.156-.052-.231-.039-.925.159-1.977.298-2.915.406-.436.051-1.576-.136-1.174.45-.129.139-1.263.08-1.471.114-.207.034-.35.178-.512.209-.49.095-.85.075-1.43.284-.149.054-.29.22-.38.235-.111.018-.253-.092-.397-.074-.343.043-.969.202-1.299.238-.06.007-.102-.104-.193-.125l-1.602.227.468-1.466c.228-.287.316-.654-.062-.689.32-.36.24-.796.334-1.185.202-.822.695-2.285.74-3.037.028-.474-.137-.507.185-1.128.07-.138.153-.272.239-.44.201-.392.605-.692.333-1.108.22-.436.256-.823.658-1.081l-.188-.182.042-.172.225.005c.131-.401-.016-.995.081-1.338.162-.576.684-2.029.93-2.549.13-.276-.017-.333.339-.414l-.011-.213-.17-.177c.1-.373.327-.786.424-1.141.176-.646.257-1.668.558-2.283.076-.154.272-.319.314-.478.062-.233-.155-.353-.078-.648.133-.509.663-1.379.774-1.864.034-.144-.034-.235-.016-.335.074-.424.174-.76.15-1.192.339-.363.616-.247.942-.299.246-.039.836-.205 1.04-.196.142.007.284.168.444.166-.022.541-.211.719-.533 1.074l-.606 2.294-.3.142c-.174.267-.001.448.003.619.035 1.636-1.139 4.514-1.649 6.164-.11.356-.322 1.553-.522 1.763-.051.054-.18.037-.205.104l-.279 1.878c-.537 1.191-.732 2.523-1.048 3.786-.393 1.567-.78 3.129-1.175 4.682l-1.135-1.241c1.853-.376 3.7-.735 5.547-1.055.66-.114 1.478-.362 2.134-.418.274-.024.423.16.749-.057l.041.163c.296-.123.471-.284.814-.359.29-.064 1.059-.213 1.32-.239.135-.014.104.098.229.075.212-.041.642-.266.936-.319.266-.049.737-.012.938-.067.727-.195 1.498-.517 2.292-.614.22-.026.523.056.591.04.131-.032.147-.168.233-.201.438-.167 1.172-.142 1.618-.217 1.24-.209 2.534-.485 3.786-.71l-.658 1.765a44 44 0 0 1-.397-.504c-.568-.731-1.549-1.915-2.007-2.643-.098-.157.045-.209-.052-.33-.107-.134-.241-.145-.298-.203-.39-.398-1.234-1.291-1.484-1.762-.048-.09-.005-.217-.043-.263-.019-.024-.122-.029-.187-.098-.58-.61-.927-1.114-1.421-1.771-.946-1.258-2.199-2.589-3.173-3.926-.212-.292-.193-.624-.226-.662-.073-.084-.235-.045-.405-.198-.564-.507-1.069-1.393-1.574-1.9-.249-.251-.7-.508-.95-.752-.199-.194-.549-.75-.691-.793-.086-.026-.235.049-.306-.008m7.801 5.674c-.233.124.259.392.246.154-.003-.054-.185-.186-.246-.154m-6.348 12.345.054.216.184-.128-.137-.111z"/></svg>