<svg xmlns="http://www.w3.org/2000/svg" width="122" height="118" fill="none" viewBox="0 0 122 118"><path fill="#0ba6e2" d="M58.729 6.343c-.051.057-.273.27-.365.365.074-.138.547-.572.365-.365m-7.323 11.931.21-.258c-.225.218-.515.524-.727.725-.034.032.03-.077-.05.002-.08.08-.034.094-.146.213-.125.135-.736.714-.94.922-.762.78-1.516 1.58-2.294 2.346.768-.826-.051-.038-.263.197-.047.052.017.099-.79.891-.513.504-.128-.048-.929.846.703-.602.063.04-.442.558-.087.09-.801.799-1.11 1.118-.106.11-.24.304-.38.448-.097.1-.187.159-.33.307a276 276 0 0 1-2.014 2.045c.32-.475-.342.284-.377.312-.181.143.54-.602.24-.322l-1.2 1.234c.34-.327-.373.506-.539.625.13.003-1.891 1.807-2.157 2.122-.056.066.37-.301-.557.611-.1.099-.083.041-.133.096-.03.032-.154.286-.39.455-.085.062.34-.455-.67.605.475-.351-1.388 1.483-1.741 1.81l.228-.18c-.357.315-.395.398-.471.473-.308.303-.746.704-1.026.993-.327.337-.288.378-.688.754l.3-.252-.803.804c.561-.678-.135.132-.183.183-.077.082.014-.054-.115.082-.013.014.028.015-.173.223-.418.435-.377.341-.554.522-.017.017.06-.023-.243.293-.962 1.006-.01-.019.025-.06.046-.053-.366.21.49-.604-.287.274-.35.269-.382.3-.029.027-.506.522-.531.55-.225.252.007.064-.035.115-.034.041-.646.602-.711.81-.343.218.1-.221.556-.705.055-.082-.47.425-.497.453-.66.67-.24.352-.35.532-.058.095-.364.332-.067.127-.594.614-.259.218-.302.253-.064.053-.26.28-.288.305-.041.036.076-.116-.081.032-.027.025-.242.302.087-.005-.426.424-.367.413-.559.51-.197.387-.266.16-.385.27-.318.296-.157.279-.169.298-.088.136-.954.966-1.152 1.188.03-.135.667-.678.787-.821.402-.477-.64.598-.39.211l-.344.459c-.286.205.04-.164-.599.517-.07.145.457-.476.372-.332-.05.086-.427.475-.425.492s.334-.343.296-.272c-.082.155-1.368 1.394-.435.406-.265.271-.473.34-.681.596-.135.166.802-.59-.474.672-.06-.006.493-.521.504-.538.016-.023-.156 0-.177.013-.07.047-1.315 1.394-1.624 1.632.151-.066-.963.995-1.067 1.127-.028.036.116-.057.085-.02-.191.229-.803.755-1.066 1.02-.294.296-.234.281-.25.298-.13.13-.043.01-.122.09-.12.12-.94.949-.978.993-.01.014.15-.096-.024.09-.03.033-.042-.018-.556.532-.62.662.48-.41.25-.11-.456.37-.396.402-.51.51l-.038.033a.8.8 0 0 0-.28.298 1.4 1.4 0 0 1 .227-.35l.066-.071-.069.067a1.6 1.6 0 0 0-.3.432c-.025.052-.054-.011-.092.114-.002.03.054.152.128-.165.046-.007-.04.123-.047.195 0 .012.05.065-.004.144.006.023-.234-.257-.06.408.007.02.02-.056.028-.037.002.014.028.18.039.196.008.017.012-.068.023-.047.055.098.012.283-.06.046q.016.125.054.248c.033-.114.073.11.148.201.497.52.205.124.306.194.17.072-.027.115.24.212.032-.008-.276-.138.343.075q-.15-.022-.284-.073c.02.101.346.093.369.085.09.006.132.005.162.007.12.002.128.006.686-.02.073-.004.234.015.391.005.652-.038-.86-.023-.902-.054-.02-.015 1.608-.012 1.663-.004.238.032-.737.014-.552.053.068.014 2.388-.015 2.853 0 .537.019.779.122.782.006.152.114.286.036.354.037.83.01.832.012 1.544 0 .157-.001.29.033.346.027.032-.003-.028-.04.13-.052.22-.015 1.544.023 1.642.043.099.02-.558.01-.44.043.475.003.931-.005 1.41-.002.2.002.097.026.183.026.037 0 .724-.02.695-.03-.069-.02-2.19-.006-1.631-.047.107-.008.488.046.428-.02l5.686.045c-1.09.05-2.315.005-3.455.01-.157 0-.685-.006-.621.028.97.008 2.176-.009 3.107.013.03 0-.08.03.032.035.209.01.889-.04 1.003-.027.02.003-.367.043-.25.068.302.064.379-.079.638-.077.2.002 1.55.07 1.886.027.357-.047-.994-.027-.895-.065.915-.038 1.84.003 2.704-.002.015 0-.117-.03.076-.034.335-.008.423.035.587.041.176.008.798.002.882.017a.7.7 0 0 1-.135.045c-.271.017-.368-.037-.392-.038-.093-.002-.184.02-.269.018-.14-.002-.216-.022-.4-.023-.126-.002-.004.035-.126.034-.045 0-.53-.085-.574 0-.014.028 3.944.063 4.34.041l-1.019-.03c.69.024 1.517-.045 1.576.057l7.666.026c.456.008.206.074.957.055l-.582-.063c.384.015 2.09.043 2.365.03.036-.002.086-.061.512-.067.378-.004.438.04.64.049.17.007.36-.005.411-.002.039.002.054.029.147.034.293.014.056-.062.347.026l-.213.01c.354.013.838.053.317.072-.09.004-.013-.023-.08-.023-2.62.005-.528.056.39.016.236.038 1.558.015 1.602.022.06.012-.165.043.131.07.063.005 1.83-.016 1.193.035-.131.011-.978 0-1.182.001.48.083 1.607-.035 1.733-.032.511.012-.982.071.17.08.885.008.054-.047.394-.07.192-.014 1.193.047 1.166-.032.344-.008.143.033.185.036s.718-.02.937-.004c.027.002-.057.043-.03.047.054.005.706-.003.732-.006.017-.003-.139-.039-.075-.047.075-.01.702-.002.737-.012.049-.016-.726-.005-.597-.045.357.01.939-.017 1.175-.05-.058.01-.404.011-.525.008.057-.059.8-.058.546-.012.162-.025.052-.038.142-.061.024-.006.254-.007.298-.018.006-.002-.231-.024-.184-.036.086-.021.782-.016.839-.01.16.015-.407.035-.454.06-.007.003.475.052.483.056.028.046-.509.013-.448.054l.399.026c-.512.042-1.46.02-1.704.069.76-.015 1.554-.013 1.552.094 0 .046-.328.072-.315.084.048.04.503-.004.52-.002q.02.004.02.007c0 .024-.649.042-.681.053-.055.02.234.1.233.117-.01.004-.471.023-.316.054.158.032.562.032.576.035.078.02-.63.036-.65.047-.011.006.368.04.38.05.009.01-.28.032-.394.063-.084.023.162.041.12.045-.032.002-.7.002-.733.006-.049.006.108.034.085.04-.032.01-.248 0-.22.011.021.008.857.104.852.13-.01.043-.895-.058-.071.115.006 0 .206-.011.212-.01.124.031-.52.08.267.072-1.463.055-.182.065-.399.139-.083.028-.65.04-.653.044.055.036.236.008.297.026.034.01-.473.047-.359.072.06.013.598.008.62.01.213.024-.048.05-.002.066.031.01.356.012.365.014.014.004-.428.049-.52.065-.07.012.193.03.144.036-.294.032-.918-.05-.316.064.036.007.264.004.27.006.142.032-.278.035-.353.06-.128.046.474.02-.027.053.376.03.586.028 1.026.02-1.219.023-1.649.14-.296.137-.43-.002-.383.064-.511.065-.08.001-.704-.065-.418.083.036.018.415-.005.297.032-.91-.01-.02.024-.019.03-.012.086-2.234.015-2.616.025-.443.012-.837.08-.933.08-.317 0-.054-.035-.125-.047-.072-.013-.973.054-1.018.05-.175-.015.003-.056-.016-.058-.216-.025-1.426.007-1.765-.003.01.027.69.03.266.072-.494.05-.523-.068-.536-.073l-6.798.004c.028.062 1.51.015 1.544.023.197.05-2.305.048-2.612.026l.7.04c-.399.073-1.28-.02-1.856.01-.186.011.171.039.164.04-.21.029-.545.007-.294-.03-.51.036-.436-.004-.828-.007-.02 0 .148.029-.162.041-.145.006-.92.006-1.024.031-.042.01.35.124.4.027.842.047.268-.045.596-.042.05 0-.066.054.759.029-.157.098-1.106.025-1.27.036-.335.025 1.048.075 1.302-.001-.119.076.098.01.406.013.337.004.19.026.373.027.5 0 .292-.054.704-.005-.401-.15.705-.02 1.027.02l-1.573.022.09.024-.415-.004.067-.022c-.713.049-.886-.006-.944-.007-.748-.006-1.611-.006-2.367-.006-.114 0-.036.05-.863.01-.263-.012-.014-.05-.313-.044-.374.104-.367.021-.478.02-.319 0-.514.027-.543.027-.394.004-.972 0-1.404.003-.009 0 .217.033-.064.023-.1-.003-.985-.14-1.76-.095l.605.028c-.237-.013-1.896.021-1.49.058.248.022.855-.066.922.019-.552-.026-3.602.012-3.839-.008-.033-.002.17-.03.124-.033-.035-.003-.734.004-.826-.007-.056-.006.253-.023.228-.033-.022-.007-.894-.019-.944.016.214-.014.816-.002.5.027-.04.004-.25-.019-.3-.014-.458.042.91.032 1.122.032-.86.044-2.189-.008-3.184.02-.403-.028.596-.043.14-.066-.944-.05-.25.039-.28.043-.234.029-1.033-.126-1.034-.008-.342-.018-.231-.033-.714-.018l.19.025c-.536.068-1.672-.104-1.587-.117.23-.035.82.02.871.018.075-.002.281-.121 1.1-.014.334-.08-1.297-.054-.555-.109-.501.009-2.564-.047-2.86-.012-.036.005.129.085-.38.044-.243-.02.34-.02.23-.038-.34-.056-4.973-.02-5.853-.017-.057 0-.036-.025-.093-.025-.172 0-.8.038-1.109.026.64.046-.602.05-.918.045-.48-.008-.45-.051-.657-.06a9 9 0 0 0-.316-.008c-1.076.063-2.496-.63-2.901-1.294-.082.13-.874-1.239-.91-1.946-.112-.528-.103-1.348-.165-.592-.037-.97.36-2.012.957-2.676.098-.11-.018.058.151-.127.006-.006.01-.017.021-.036a.5.5 0 0 1 .1-.132c.878-.927.485-.442.664-.6.101-.09.174-.156.226-.207l-.947.982a4 4 0 0 0-.411.495c.063-.056.212-.252.432-.475.365-.372.896-.957 1.111-1.16.011-.01 0 .05.01.04.114-.112.818-.845.642-.724-.047.032-.375.365-.76.763.1-.112-.007-.059.01-.079.213-.242.79-.777.99-.972.046-.045.025-.059.032-.066.182-.177.159-.055.29-.29.384-.267-.595.623-.49.596.082-.02 2.123-2.13 2.068-2.17a.5.5 0 0 0 .113-.077c.145-.115.713-.702.803-.812.014-.018-.04-.058-.02-.08.052-.053.789-.728 1.022-1.022l-.443.412c.852-.868.706-.748.408-.473q-.022.022-.044.04c-.23.214-.523.491-.53.492-.031.002 1.408-1.476 1.173-1.15-.032.045-.721.707-.359.4.064-.053.485-.5.51-.519.175-.13-.734.853-.586.769.197-.262.505-.544.758-.817.116-.125.121-.178.136-.193.213-.229.114-.08.187-.154.039-.04.418-.532.41-.377 1.369-1.5.34-.453-.53.439.25-.307.803-.844 1.04-1.097.085-.09.01-.062.151-.217.293-.317 1.767-1.76 2.15-2.136-.223.243-.129.2.048.017s-.009-.065.022-.104c.034-.042.888-.877 1.023-1.023-.618.653-.45.535.089-.007l-.21.258c.303-.329 1.003-.96 1.172-1.156.027-.031-.097.051-.082.034.15-.171.713-.7.73-.732.016-.028-.234.188-.157.092.016-.02.268-.217.48-.447.079-.085.009-.056.028-.078.16-.183.095-.046.402-.369.224-.237.36-.444.687-.754-1.081 1.012-.19.143.23-.31.067-.074-.03-.05.403-.455-.815.967.289-.22.522-.456.013-.012.042.008.157-.107.01-.01-.022-.013.083-.122.992-1.033.37-.361.577-.539.088-.075.553-.596.684-.73.03-.03.033 0 .15-.119.206-.212.372-.419.508-.56.015-.016.044.011.294-.261.07-.077.142-.17.03-.072-.369.323-.974 1.03-1.388 1.398-.378.336.735-.8.793-.86.021-.021-.183.214.041-.008.192-.19.489-.589.781-.865.022-.02.288-.21.28-.197s-.344.372-.282.332c.007-.004.226-.228.264-.248.045-.026.245-.019.294-.064.127-.116.025-.06.104-.137.17-.166.78-.725.763-.78l-.293.286c.528-.545.286-.33.355-.413.074-.09.083-.035.265-.214.04-.04.784-.809.757-.808-.394.443-.28.247-.3.266-.075.072-.146.188-.244.287-.69.694-.032-.044-.203.112-.06.053-.151.185-.176.208-.08.075-.106.052-.155.106-.115.126.06.019.052.03-.085.13-.532.53-.309.227-.17.146-.142.21-.285.318-.283.215.096-.152.19-.26.338-.387.462-.478.965-1.001.181-.189.376-.431.46-.519.052-.055.636-.492.529-.628.208-.188.597-.422.796-.632.178-.188.077-.172.093-.19.023-.03.246-.25.315-.332.08-.096.02-.068.151-.215.327-.366.363-.313.4-.347.445-.384.202-.263.288-.361.027-.03.18-.183.382-.384.4-.398.99-.982 1.145-1.161l-.279.336c.21-.158.358-.398.411-.353-.043-.116.387-.446.497-.563.044-.046.027-.056.082-.113.215-.224.717-.712.828-.839.481-.548-.874.73-.98.832.207-.208 1.353-1.41.78-.903-.089.078-.2.262-.245.311-.305.329-.09.046-.117.068-.047.038-.223.279-.282.33-.019.018.07-.13-.231.174.12-.177.985-1.012 1.089-1.13.037-.043-.27.15.51-.527l-.042.01 1.198-1.233c-.031.058-.23.312.048.018.16-.17.01-.075.025-.09.139-.157 2.745-2.788 3.245-3.303.17-.175.624-.683.66-.72.216-.224 1.001-.993 1.152-1.152.094-.1-.022-.03.065-.117.081-.08.022.027.046.004.205-.191 1.664-1.735 2.04-2.073-.223.213-1.256 1.355-1.218 1.35.007-.003.287-.253.332-.316.11-.071.355-.443.534-.6.02-.019-.02.09.284-.206.105-.102.347-.402.647-.647.377-.412 2.48-2.46 2.584-2.64.002-.006-.3.276-.12.062.24-.284.074.02.383-.283.047-.046.884-.91.908-.943.217-.297-.535.438-.53.423.015-.037.621-.667.649-.69.026-.02-.423.537.158-.093l-.224.193c.27-.299.332-.292.403-.36.219-.21.396-.495.802-.778.108-.074-.023.097-.009.088.132-.087.207-.289.417-.409.015-.009-.336.404.327-.27l-.15.127c.083-.105.747-.792.84-.882.27-.26.072.004.333-.269-.213.13.586-.695.578-.61.065-.161.785-.82 1.108-1.147.203-.205.596-.646.663-.71.082-.076.09-.02.24-.157.042-.04.44-.492.844-.836.078-.066.284-.166.164-.017-.205.256-.681.652-.643.678.04.027.602-.585.764-.74.744-.714.363-.253.393-.261.075-.023.47-.425.488-.44.08-.059-.18.247-.167.268.017.026.436-.323.357-.228-.114.136-.496.46-.517.484-.268.315.178-.039.312-.126.04-.026-.08.12-.05.094.453-.393.019-.158.304-.435.255-.246-.032.111-.021.103.014-.01.313-.31.371-.347.029-.017-.68.83-.62.826l.721-.77c.057.016-.325.35-.358.39-.066.083.159-.107.162-.087.002.012-.212.284.017.073.073-.067.192-.233.45-.458q.033-.03.07-.06l-.064.067c-.836.916-.183.292-.142.277.04-.015-.383.477.163-.089.096.047.01.035-.133.206-.176.21.29-.217-.428.478.074-.007.635-.582.667-.61.028-.023-.08.12-.03.08q.081-.065.14-.11c.415-.302.081-.036.27-.13.01-.024.624-.398.173-.09a3 3 0 0 0-.355.307c-.463.466-.695.666-.707.846.276-.236.551-.525.777-.777.223-.25.45-.416.544-.472.293-.161.002.029.043.017.011-.008.266-.136.272-.132.156.017-.44.208-.839.607-.202.193-.394.377-.498.492l.303-.238-.362.372c.602-.565.029-.012-.052.196-.018.047.338-.363-.056.117.329-.316.24-.2.511-.512.018.033-.605.723-.849.997.937-.895.326-.46 1.16-1.21a.2.2 0 0 0 .021-.04q.002-.009-.006-.006c-.042.016-.264.247-.244.219.04-.059.121-.138.22-.242.106-.113.245-.247.404-.406.05-.046-.22.055.144-.151.04-.025.3-.095.298-.088-.023.038-.261.135-.264.155-.004.012.252-.114.256-.108.021.03-.212.108-.174.106.04-.009.301-.087.4-.09.103.007.007-.023-.56.275.954-.489.07-.155-.243.137-.08.07-.087.104-.188.213l-.013.015c-.148.163-.33.333-.406.416-.085.093.453-.376-.28.346.21-.173.475-.445.735-.713.197-.208.44-.37.634-.441.411-.134.274-.055.037.067-.24.123-.53.378-.573.435-.025.028.088-.038.07-.02-.004.006-.028.028-.062.062-.195.197-.676.678-.718.75-.05.088.256-.262.297-.265.028-.002-.794.88-.328.424.234-.23.578-.631.807-.85.064-.062.122-.097.157-.099q-.069.06-.13.124l-1.207 1.252.826-.712c-.514.536-.988.97-1.452 1.503 1.256-1.141-.332.446-.34.472-.002.01.522-.41.607-.477-.393.442-1.642 1.733-.837 1.051-.149.12-.435.488-.428.486.072-.012.759-.75.67-.605-.101.167-.331.314-.533.527-1.036 1.089-.59.95-1.671 2l.08-.048-3.473 3.478c-.401.504-1.568 1.749-2.16 2.341-.12.12-.726.685-.775.725-.09.074.354-.383.136-.193-.046.04-1.04 1.029-.942.984.113-.109.444-.473.507-.524.442-.358-2.626 2.688-2.758 2.859l.228-.18zM58.03 7.207c.087-.144.395-.416.558-.596.224-.25.519-.758.452-.48zm-5.082 5.085c.246-.22.125.02-.09.188-.023.019-.243.111.09-.188M55.4 9.854c-.01.011-.21.213-.219.219-.203.159.405-.449.218-.219m-11.685 11.94c.253-.262.015-.127-.122.055-.008.012.106-.039.122-.056m.183-.184c.245-.154.548-.654.24-.323-.03.033-.251.33-.24.323m9.897-10.133c-.008.044-.256.278-.362.378-.014-.02.264-.274.362-.378m-6.045 6.155c.005.024.833-.82.87-.895-.122.14-.873.873-.87.895m-2.106 2.182c.023-.019.306-.314.285-.318-.157.126-.391.403-.285.318m-4.228 4.297c-.013.019.282-.12-.279.345-.082.068.163-.224.134-.2q-.09.076-.144.129c.23-.248.473-.5.502-.52.135-.091-.208.238-.213.246m-2.16 2.315c-.035.062-.354.372-.43.439-.013.011.005-.076-.132.069-.11.116.093-.02-.132.197-.228.22.043-.106.022-.088-.028.024-.355.389-.365.358-.007-.023.37-.387.458-.482.112-.123-.054-.004.146-.197.125-.12.102-.008.13-.032.023-.02.425-.48.303-.264m1.81-1.974a1 1 0 0 1 .061-.067zM57.38 7.905c-.134.11.205-.271.358-.39.017.011-.337.373-.358.39M40.883 24.711c-.363.346-.12.068.183-.26-.09.11-.061.143-.183.26M50.85 14.54q-.027.019-.042.01c.048-.031.057-.03.042-.01m-.835.82c-.256.31.315-.271.292-.286a5 5 0 0 0-.292.285m-6.628 6.763c.028-.024-.293.46.228-.188-.319.306 0-.035-.012-.037-.032-.006-.534.541-.657.65-.055.126.348-.347.44-.424zm-8.148 8.35c.05-.091.28-.312.432-.465-.05.092-.28.313-.432.465m6.223 26.653c-1.474.026-1.665-.092-.316-.045.026.001.406.033.316.044m-12.656-.031c-.14-.051.32-.06.622-.038.069.004.322.056.033.067.01-.063-.437-.087-.655-.029m11.902-32.16c-.078.129-.41.432-.58.598.08-.123.425-.456.58-.597m-4.092 32.129c-.155-.004-.26.04-.233.045.12.017.41-.02.233-.045m5.113-33.16c.03 0-.374.439-.44.433.092-.088.42-.43.44-.432m-6.194 6.29c.072-.058-.25.297-.36.393-.007-.024.312-.354.36-.392M34.114 57.08c-.14-.004-.487-.005-.526.013-.048.023.462.015.526-.013m25.9-.039c.017.008-.521.067-.76.052-.455-.028.74-.058.76-.052m-21.926.001c.439.043-.049.001-.03.046.296.002 1.03.004.526-.04-.099-.009-.359-.003-.496-.006m-.405-.015c-.047.014-.364.06-.09.057.126-.002.33-.052.09-.057m18.994.034c-.394-.04 1.41-.018 1.462-.011l.055.01c.067-.013.407-.015.447.017-.102-.003-.381 0-.414-.004l-.031-.004c-.12.028-1.444 0-1.52-.008m-2.989-.04c.45-.06.53.04.491.043-.49.041-.17-.032-.185-.036-.034-.005-.383.029-.304-.008zm2.376.024c.019-.002.397.002.412.003.31.034-.76.025-.412-.003m-18.43-28.869c-.196.186-.036-.029.1-.148.01-.01.074-.016-.1.148m-.167 28.86c-.063-.006-1.668-.032-1.572.023.137-.006 1.96.022 1.572-.022m-11.995-.013c.283 0-.025.053-.176.034-.056-.008.105-.034.176-.034m16.854-33.656c.185-.23.211-.12.01.04-.009.006-.017-.031-.01-.04M27.733 57.052c-.976.032-.745-.133.524-.078l-.119.023c1.465.024.1.011-.258.02-.136.004-.022.032-.146.036m-3.749-.033c-.94-.117.854-.04 1.37-.056-.5.048-1.15.041-.266.09-1.292.01-.754-.036-.806-.04-.06-.005-.258.011-.298.006m2.48 0c.054-.004.463.02.61.016-.206.04-.971.007-.61-.016m24.091.028c.034-.032.118-.055.441-.043-.1.016-.306.029-.44.043M58.365 7.1c.158-.157.477-.465.358-.39-.012.008-.37.377-.358.39m-25.56 49.91c-.047-.005-1.271-.007-.848.028.127.01 1.24.006.848-.029m6.338.003c-.102 0-.519.006-.528.013-.028.026.483.012.528-.013m20.032-50.69c.023-.02.496-.508.432-.465-.12.08-.51.528-.432.464M36.996 28.928c-.039.041-.116.07-.13.085-.032.032-.752.783-.505.469a96 96 0 0 1 1.242-1.243c.086-.021-.394.403-.5.518-.018.02-.002.06-.106.17M52.24 57.013c.045-.03 1.268-.05 1.254-.013zm-.621-.005c-.261-.02.35-.028.53-.018.002.02-.493.021-.53.018m-14.794-.105c-.123.007.255.05.17.06-.054.005-.328-.012-.416.002-.025.004.255.045.336.043.115-.002.004-.034.13-.035.416 0 .786.023 1.177.022.035 0-.239-.023.062-.022.047 0 .326.034.686.029.795-.105 1.38-.002 2.388-.04-.038-.01-.792-.036-.837-.037-.843-.018-2.355-.02-3.238-.02-.227 0-.117.022-.214.023-.077 0 .014-.04-.244-.025M58.299 7.201c.103-.047.346-.33.514-.498-.085.034-.345.339-.515.498m-12.17 49.776c-.12.001-.49-.011-.52.001-.04.016.494.026.52-.001M32.875 33.1c-.007.01-.21.212-.218.219-.203.16.404-.449.218-.219m-4.812 4.882c-.149.158-.294.323-.368.352.1-.095.37-.387.368-.352m-6.63 6.742c.062-.002-.417.445-.506.53.018-.046.46-.529.505-.53M50.508 56.91c.4.002.316-.063.57-.034.04.005.175.143-.265.091-.079-.009.23-.042-.305-.057m-22.044.066c.102-.029.42-.02.635-.018-.049.021-.482.016-.635.018M60.06 5.47c.16-.105.746-.744.577-.61-.024.02-.491.525-.578.61M40.088 25.753c-.103.124-.052.087.047-.009.12-.116.314-.32.391-.422-.061.065-.324.317-.411.403zm-17.046 17.37c-.01.012-.278.28-.291.29-.241.198.515-.559.291-.29m6.64-6.71c-.078.115-.72.739-.88.863.108-.165.974-1.007.88-.863m19.18 20.516q.426-.002.818.018c-.055.022-.788-.002-.818-.018M22.072 44.113q-.022.022-.044.04zm20.406 12.8c-.239-.009-.189.032-.174.033.18.013.445-.023.174-.033M58.534 7.049c.084-.034.346-.34.514-.499-.067.028-.386.363-.514.499M22.977 56.944c-.3-.04.922-.086 1.18-.06.018.024-1.136.066-1.18.06m17.927-31.942c.037.003.372-.387.286-.319-.054.043-.309.317-.286.319M24.77 56.9c.115-.01.382.02.288.036-.121.023-.318-.034-.288-.036m10.3-.024c-.05-.004-.725.026-.447.055.194.02.225-.021.27-.021.051 0 1.135.05.177-.034m-19.482-1.951c.188.308.45.665.734.925-.146-.077-.7-.767-.735-.925m23.933-28.508c.03-.02.44-.43.644-.644.133-.138.18-.195-.014-.014l-.089.083c-.04.038-.698.684-.541.575M50.508 56.91l-.176-.005zm-4.54-.004c.091-.021-.373-.027-.51-.016-.042.026.496.018.51.016m-29.604-1.057c.166.142.477.394.718.525-.059.009-.675-.432-.718-.525m4.289-10.186c-.222.209-.481.48-.469.5a.2.2 0 0 0-.04.025c-.02.015-.241.256-.347.351-.63.572 2.281-2.359.65-.605zm9.919-10.075c.142-.103.456-.474.36-.392-.068.057-.503.495-.36.392m-4.659 4.76c.04-.032.357-.384.355-.404-.202.183-.537.556-.355.405m5.616-5.685a.6.6 0 0 0 .133-.198c-.09.067-.28.31-.133.198m18.15 22.121a4.4 4.4 0 0 0-.788.051 1.4 1.4 0 0 0-.18-.023c-.139-.012-4.304-.026-1.51.034.087.002-.032-.026.324-.021.023 0 .035.023.108.024.167.002 1.057.016 1.236-.002q.002.006.038.012c.22.033.898-.065.773-.075M25.259 41.021c.073-.062.279-.283.286-.32-.112.1-.455.464-.286.32m14.359-14.583c.148-.127.47-.499.355-.404-.071.058-.525.55-.355.404M27.368 38.86c-.797.777-.185.19-.283.333zm27.462 18c-.177-.007.031-.065.227-.033.06.01-.128.036-.227.033m8.013-.018c-.152-.051.588-.021.3.014a9 9 0 0 1-.3-.014m-5.6-.021c-.12.035-.198.039-.537.03.502-.01.036-.04.538-.03M20.19 46.164h-.005zm12.067-12.253c.119-.079.391-.358.288-.297-.01.007-.263.24-.288.297m16.635 22.924q.026.008-.022.012-.001-.006.022-.012M30.803 35.422c-.006-.025-.428.393-.443.411-.212.27.272-.235.443-.41M42.394 23.66c.02-.024-.16.077-.228.18-.054.078.154-.092.228-.18m16.002 33.148c.188 0 .453 0 .502.026-.126-.004-.506-.007-.502-.026m4.157-.002c-.222.031-.73.031-1.054.026-.007-.042.845-.017 1.054-.026M50.19 56.8c-.015-.002-.487-.014-.423.013.095.041.556.002.423-.013m-8.46-32.51c-.134.165.248-.14.372-.33.064-.099-.35.303-.372.33M33.14 33.07c.183-.21-.321.262-.368.351.092-.09.302-.276.367-.351m-6.623 6.775c.675-.566.23-.334.131-.213a2 2 0 0 0-.131.213m35.19-35.807c.08-.097-.276.204-.298.266-.013.039.248-.204.298-.266M34.993 31.346c-.519.357-.408.375-.446.413-.082.082-.294.251-.443.411l.498-.564c-.145.135-1.381 1.33-1.393 1.368-.016.057.357-.335.37-.344.018-.014.132-.02.169-.054.061-.056 1.07-1.079 1.245-1.23m-7.199 7.18c-.105.095-.155.102-.196.154-.014.018.005.04-.044.1zm7.898-8.044c.148-.1-.412.45-.432.465-.111.08.311-.383.432-.464m-4.662 4.747c.022-.02.452-.44.435-.45-.123.102-.69.673-.434.45m-3.54 3.62c-.151.148-.452.413-.389.41zm13.8-13.979c.324-.23.132-.16-.128.072-.051.097.075-.034.128-.072m.916-.858c.086-.069.864-.88.718-.783-.052.034-.482.518-.505.537-.034.03.082-.145-.154.106.024-.005-.088.164-.059.14m-.657.658c.31-.24.303-.371.097-.163-.08.082-.141.197-.097.163m-1.121 1.128c.104-.093.376-.35.533-.556l-.662.662-.068.069c-.009.024.028-.01.077-.06.037-.036.081-.08.12-.115m24.467 30.758c-.31-.028.403-.039.433-.032.09.023-.295.044-.433.032M64.03 2.933c.068-.054.133-.069.253-.217l-.458.351c-.06.149.13-.076.205-.134m.67-.362c-.019.02.151-.018-.137.185-.117.083.15-.224.422-.511.18-.192.397-.338.483-.372-.116.086-.31.228-.467.387a9 9 0 0 0-.302.311m1.933-.701c.011-.002-.386.1-.43.12-.25.054.35-.17.43-.12m-1.194.518c.12-.08-.03.047-.142.163a3 3 0 0 1-.123.12c-.01-.001.044-.064.108-.134.063-.07.144-.14.157-.15m-3.68 52.806c-.246-.064-.466.074-.088.046.018-.001.098-.043.088-.046m4.511-53.14c-.183.041.208-.103.335-.104.013.01-.309.091-.335.104m-4.684 52.988c-.327-.046-.212.108-.171.114.168.025.745-.036.863-.05-.864.023-.539-.043-.693-.064m-1.508.093c-.303.016.472.047.62.004-.151.002-.534-.01-.62-.005m-1.84-.05c-.164-.005-.649-.019-.73.005.178-.004.66.02.73-.005m-.37-.073c-.255-.033-.316.063-.022.035.011-.001.032-.033.022-.035m-1.433-.034c-.167-.039-.358.054-.087.057.08 0 .105-.053.087-.057m4.741-.102c-.24-.017-.547.05-.036.057l-.539.031c.67.037.62-.055.813-.051.268.005.247.081.193.105.22-.046 1.156-.047 1.697-.056-.475-.02-1.246-.054-1.716-.066-.134-.004-.264.017-.378.015-.183-.004-.02-.034-.033-.035m-6.624.1c-.492-.043-.18.05.097.034a.4.4 0 0 0-.097-.034M66.818 2.23c-.237.006-.274 0-.372.016-.09.025-.28.048-.662.362.313-.277-.006-.049.05-.112.043-.054.274-.16.127-.122.094-.031.332-.136.567-.183.234-.052.455-.052.473-.049H67c.022.005-.033.088-.182.088M58.236 54.84c-.164-.114-.228.066-.55-.028-.43.137 1.185 0 1.38.115-1.753-.013 1.158.115-.065-.058 1.008.063.33-.021.486-.043.166-.024.736.002.707-.04l-1.047.008c.341.091-.371.064-.613-.01zm1.974.085c-.035-.002-.793.01-.744.03.101.01 1.178-.003.744-.03m3.338-.02c-.272 0-.693-.018-.842.017.273 0 .694.018.842-.017M49.523 54.9c-.347.028.722.036.413.003a20 20 0 0 0-.413-.003m7.923-.042c-.353-.035-.186.075.076.047.015-.002-.06-.046-.076-.047m9-52.547c-.019.007-.636.275-.71.376.016-.031.174-.167.353-.256.177-.093.363-.137.357-.12m-2.418 52.494c-.542-.097-1.278.015-1.359.013-.08-.003.046-.045.028-.046-.042-.003-.896 0-.937.004-.03.002.125.062-.051.08.343-.033 1.905-.012 1.986-.019.062-.005-.41-.068.332-.032m-1.56 0c.213.025-.385.028-.53.019-.321-.021.503-.022.53-.02m-1.439-.023c-.068-.006-.685-.011-.737.017.291.036.892-.004.737-.017m-6.861.003c-.16.004-.6-.017-.626.007.16-.004.6.018.626-.007M64.462 4.256c.2-.175-.226.27-.359.392-.018-.005.342-.377.359-.392m-7.076 50.369c-.094-.008-2.029.01-2.3.022.265.019 2.182.02 2.27.011.025-.002.042-.032.03-.033m4.184-.011c.177-.036.293.007.316.007.219.006.674-.002.574.032-.387-.014-1.243.032-.89-.04m-7.54.01c-.657.012.605.05.44.013-.011-.003-.372-.015-.44-.014m3.573-.01c.145-.029 2.08-.004 2.39-.003-.278.053-.502.012-.876.015-.101 0-.074.023-.085.023-.174.001-.044-.025-.151-.025-.069 0-1.482.031-1.278-.01m4.068-.025c.108-.02 1.317-.03 1.365-.024.364.04-1.27.03-1.365.024m-4.246-.022c.208-.062 1.17-.02.511.01-.062.003-.328-.024-.51-.01m-3.325-.003c-.032-.002-.717-.014-.73.005.1.008 1.098.015.73-.005m.355-.067c-.016 0 .144.039-.177.034-.026 0-.076-.044-.48-.028a1 1 0 0 0-.2.033c.42.068 1.687-.061.857-.039m7.238.057c-.065-.018.092-.072.234-.044.06.011-.053.044-.234.044m-9.764-.007c.398-.033-.852-.04-.916-.03.04.02.876.033.916.03m12.275-49.67c-.24.233-.113.066-.125.076-.529.481-.352.39-.425.474-.157.181-.183.101-.444.41.435-.507.023-.06-.009-.066-.13-.022.659-.597.876-.85.03-.035-.234.184-.158.093.248-.298 1.206-1.034.285-.137m-2.168 49.628c.155-.032 1.334-.001 1.021.025-.05.004-1.25.021-1.02-.025m-40.218-6.589c-.179.222.305-.224.375-.326.034-.05-.296.23-.375.326m3.311-3.198c.232-.244.4-.578.118-.267-.03.034-.156.283-.118.267m-.645 9.681c-.351-.04-.33.035-.073.034.092 0 .084-.033.073-.034m-5.495-3.537c.027-.023.308-.316.285-.318-.113.1-.457.468-.285.318m5.607 3.526c-.209.014.15.07.405.015-.13.005-.384-.016-.405-.015m32.103.01c-.174.032-.668.022-.952.028-.03-.04.75-.02.952-.028m-32.604-8.694c.203-.247-.293.223-.222.205a9 9 0 0 0 .222-.205m11.726 8.68c-.231.024.504.057.302.014a10 10 0 0 0-.302-.014m3.211.014c-.175-.008-.925-.006-.633.018.045.004.62.004.633-.018M63.661 5.461c.096-.038-.297.347-.357.398-.024.02.231-.348.357-.398M22.2 54.393c-.181.005-.653-.005-.736.017.223-.005.797.026.737-.017m.875-7.653c.227-.166.556-.508.432-.465-.364.376.083-.01-.432.465m2.69 7.6c-.145-.004-.257.053-.24.056.158.025.386-.034.24-.056m-8.19-1.349c.018-.007.014-.243 0-.213-.01.008-.023.218 0 .213m33.002 1.394c-.214-.022.44-.044.633-.018.094.037-.606.02-.633.018m-20.768-.031c.022-.036-.709-.016-.421.014a3 3 0 0 0 .42-.014m6.994-.043c-.49.042 1.567.073 1.027.02a47 47 0 0 0-1.027-.02m3.36.026c-.084-.004-.042-.125.308-.079.046.006-.17.038-.132.046.022.004.783.02.818.018.038-.003-.007-.042.032-.046.043-.005.511.029.756.03.463 0 .513-.032.55-.032.11 0 .296.022.52.022 1.128 0 2.854-.027 3.748.041-.796-.028-1.554.002-2.346.01.232-.067-1.165.053-.348-.025-.376.017-3.629.03-3.905.015M26.085 43.794c-.116.177.622-.586.65-.684-.102.096-.635.663-.65.684m-3.36 3.56c-.064.076-.072.199-.463.538l-.002.002c-.114.099-.007-.038-.032-.023-.009.005-.368.313-.098.03.411-.433.082.002.306-.225.027-.027.418-.487.387-.469-.003.002-.124.137-.148.156-.09.07-.07.013-.081.024-.039.035-.676.744-.8.816-.04.024 1.036-1.11 1.083-1.15.03-.024.069.037.102.013.016-.012.439-.479.5-.532l.043-.036c-.082.053.318-.352.323-.322 0 .014-.279.289-.29.298l-.013.01c.076-.04-.855.905-.626.729-.255.29-.003-.08-.191.141m-1.266 1.349.068-.1c-.46.492-1.03 1.02-1.573 1.574-.138.14.053.01-.137.186-.152.14-.342.274-.27.187.018-.02.332-.302.478-.454.43-.449.293-.364.317-.39.028-.03.321-.29.47-.443.375-.385.53-.577 1.067-1.078-.28.32-.077.193-.42.518m11.436 5.542c.026-.025.467-.003.627-.007-.025.025-.466.003-.626.007m16.97-34.494c.067-.125-.652.592-.44.424.046-.037.35-.333.44-.424m-3.212 3.231c-.088.105.316-.264.293-.285a5 5 0 0 0-.293.285M18.036 53.707c.006.01.116.146.12.15.042.124-.309-.349-.12-.15m24.767-26.741c.313-.356-.693.651-.364.365.016-.015.35-.348.364-.365m-1.382 1.416c.079-.082.44-.432.437-.445-.007-.021-.42.38-.437.445M25.865 54.189c-.055-.045.61-.01.84-.017.055.045-.61.011-.84.017m-4.19-.033c2.799-.036 2.182.06-.167.022-.003-.03-.01-.02.167-.022m3.584.005c-.102.029-.42.02-.635.018.039-.02.48-.013.635-.018m25.497-35.228c-.097.15-.674.674-.588.564.02-.025.619-.624.588-.564M18.135 53.765c.007-.04.266.207.293.218.072.1-.279-.185-.293-.218m11.702.386c.149-.035.57-.017.841-.017-.123.03-.61.017-.84.017m-1.957-.027c.017-.002.395.002.412.003.31.033-.76.025-.412-.003M64.764 4.776c-.008.01-.21.213-.219.219-.202.159.405-.449.219-.219"/><path fill="#fc5b70" d="M63.758 23.078c.004.168-.006.846-.004 1.14-.044-.333-.011-1.748.004-1.14m3.146 30.11-.032-.732c-.007.692 0 1.623-.01 2.265-.001.105-.032-.167-.033.081-.002.249.04.2.045.562.005.406-.024 2.263-.024 2.906.003 2.406.027 4.832.01 7.242-.032-2.488-.064.02-.05.716.003.155.082.13.062 2.627-.013 1.587-.125.121-.069 2.769.08-2.036.074-.034.076 1.562 0 .275-.011 2.497-.008 3.478.002.336.043.848.044 1.293 0 .307-.022.539-.02.994.004 2.122.006 4.209-.002 6.335-.106-1.243-.045.975-.05 1.074-.029.507-.037-1.784-.055-.878l.01 3.798c.013-1.04.09 1.375.055 1.82.065-.136 0 2.705-.035 4.755-.017.46.187.74.278.835.03.032-.036-.071-.007-.05.043-.005.087.253.77.478.148.034.088.05.168.058.053.006.33-.057.6-.113.047-.009-.05.045-.047.057-.003-.004.13.055.537-.306q.255-.247.604-.589c-.99.828 3.192-3.147 3.971-3.867l-.483.415c.778-.704.893-.858 1.064-1.021.69-.656 1.655-1.543 2.291-2.16.745-.724.708-.767 1.595-1.592l-.646.571 1.811-1.734c-1.341 1.398.303-.288.414-.396.176-.174-.059.095.236-.195.03-.03-.034-.008.423-.453.954-.93.828-.757 1.23-1.146.037-.035-.11.07.58-.605 2.196-2.145.003.025-.08.11-.107.11.726-.541-1.177 1.241.638-.599.735-.625.807-.693l1.21-1.177c.525-.53.03-.098.13-.203.083-.086 1.428-1.324 1.667-1.692.693-.542-.304.409-1.35 1.437-.14.162 1.031-.943 1.092-1.002 1.495-1.442.615-.698.908-1.048.154-.183.8-.734.19-.24 1.352-1.314.556-.492.648-.572.138-.122.6-.594.66-.65.09-.08-.197.229.153-.097.058-.054.584-.618-.144.057.96-.916.857-.865 1.228-1.128.567-.728.531-.404.796-.648.702-.65.43-.532.463-.57.228-.266 2.16-2.079 2.62-2.544-.134.232-1.51 1.457-1.796 1.754-.954.987 1.418-1.316.765-.558l.85-.925c.592-.489-.172.285 1.297-1.162.206-.272-1.044 1.017-.813.738.136-.164.993-.998 1.001-1.023.007-.028-.758.735-.652.6.233-.294 3.102-2.995.962-.893.602-.581.982-.809 1.482-1.335.324-.34-1.672 1.393 1.196-1.338.093-.024-1.13 1.11-1.159 1.142-.04.046.251-.087.293-.12.145-.115 3.016-2.964 3.668-3.518-.286.19 2.192-2.13 2.445-2.4.067-.072-.224.156-.151.08.456-.472 1.781-1.656 2.375-2.227.664-.638.558-.58.595-.616.293-.28.075-.04.254-.212.269-.26 2.125-2.043 2.215-2.136.026-.028-.302.237.096-.157.07-.069.056.006 1.239-1.161 1.424-1.406-1.039.925-.472.314.971-.845.895-.863 1.15-1.1.088-.083.773-.667 1.473-1.347l-1.493 1.478c.502-.471 1.455-1.408 1.871-1.793.203-.188.071.003.502-.416.092-.089.379-.52-.72.609-.118.059.439-.443.682-.692.036-.038.14-.23.488-.508.083-.066-.618.878 1.439-1.3.066-.07-.192.145-.128.076.044-.047.601-.57.659-.63.06-.064-.224.174-.154.099.361-.385.931-.79.144-.042l.811-.728c-.335.213.395-.412.755-.762 2.306-2.247.719-.787 1.099-1.19.611-.649.216-.08 1.139-1.026.081-.084-.991.877.853-.869q.068-.063.134-.145a1.3 1.3 0 0 1-.129.149l-.684.666c.123-.065.425-.359.704-.644.13-.138.196-.298.206-.32.173-.414.136-.27.155-.633l-.016-.804c-.003-.163.015-.516.006-.864-.032-1.178-.027.844-.041 1.668a.4.4 0 0 1-.022.147c-.003.003.003-.052.002-.147-.007-.879-.003-3.249.002-3.348.032-.524.015 1.628.054 1.218.014-.15-.015-5.27.001-6.297.018-1.185.121-1.718.005-1.726.114-.334.036-.63.037-.781.01-1.833.012-1.837.001-3.408-.003-.347.032-.64.026-.763-.003-.072-.041.062-.052-.288-.016-.486.023-3.408.043-3.625.021-.217.009 1.234.043.974.003-1.05-.005-2.058-.002-3.115.002-.44.025-.214.026-.403 0-.081-.021-1.598-.029-1.533-.021.15-.007 4.833-.048 3.6-.008-.238.046-1.079-.02-.945l.045-12.55c.049 2.403.005 5.108.01 7.626 0 .345-.006 1.511.027 1.37.009-2.142-.008-4.803.013-6.859.001-.066.031.176.036-.07.009-.461-.04-1.961-.027-2.213.003-.043.042.81.068.55.064-.666-.079-.835-.077-1.408.001-.443.07-3.42.027-4.161-.047-.789-.027 2.194-.065 1.973-.039-2.017.002-4.06-.003-5.967 0-.034-.029.258-.034-.168-.004-.492.013-.743.027-.962.007-.069.01-.132.006-.207a2.2 2.2 0 0 0-.143-.628c-.091-.24-.228-.442-.256-.493a1 1 0 0 1 .141.132c.205.324.174.48.187.51.036.122.083.24.098.356.016.124.013.213.007.33-.003.101-.006.215-.006.358-.002.28.035.01.034.28-.001.099-.086 1.167.001 1.267.008.01.017-.777.025-1.905.133-1.137-1.253-2.518-2.417-2.402-.914 0-1.6.001-1.814.007l1.814.025v.001c-1.415-.009-2.927.04-3.045-.053l-16.92-.026c-1.008-.008-.456-.074-2.113-.055l1.285.063c-.85-.015-4.613-.043-5.222-.03-.079.002-.188.061-1.128.066-.835.005-.969-.04-1.415-.048-.374-.007-.795.005-.906.002-.085-.002-.12-.029-.324-.034-.648-.014-.123.062-.766-.026l.47-.01c-.782-.013-1.85-.053-.699-.072.198-.004.028.023.176.023 5.783-.005 1.165-.056-.862-.016-.52-.039-3.438-.015-3.535-.022-.135-.012.365-.043-.29-.07-.137-.005-4.038.017-2.633-.035.29-.011 2.16 0 2.61-.001-1.06-.083-3.547.035-3.826.032-1.128-.012 2.166-.071-.374-.08-1.954-.008-.12.047-.871.07-.423.014-2.634-.047-2.574.032-.759.008-.315-.034-.408-.037s-1.584.021-2.068.005c-.06-.002.126-.043.065-.047a92 92 0 0 0-1.615.006c-.037.003.306.039.165.047-.164.01-1.55.002-1.625.012-.108.016 1.601.005 1.316.045-.663-.008-1.68.01-2.294.035a1.4 1.4 0 0 0-.183.024c.026-.006.1-.015.183-.016.284-.003.682-.003.86 0-.063.028-.504.043-.86.044-.21.003-.383.03-.212-.02-.215.056-.065.046-.176.092-.038.008-.278.095-.287.121-.016.003.21-.063.172-.034-.044.019-.228.118-.227.138-.004-.002-.019.045-.023.077-.01.056-.018-.033-.016-.067a.4.4 0 0 1-.001-.062.14.14 0 0 0-.052.026c-.025.016-.048.114-.048.118-.025.011-.021-.101-.006-.136.01-.037.039-.068.016-.074-.041.037-.067.057-.088.166.011-.142-.004-.167.155-.286.159-.113.523-.2.793-.201.468-.005.853-.014 1.044-.03l-1.044.006c-.435-.002-.81.158-.904.24-.107.077-.136.134-.18.126-.06-.02.059-.245.065-.247-.033.001-.114.082-.145.18-.036.096-.03.24-.031.251q-.005.025-.008.025c-.013-.001-.023-.209.04-.332.05-.13.218-.249.237-.263.041-.06-.287.088-.287.088a.9.9 0 0 1 .201-.193c.113-.08.228-.137.108-.101a.9.9 0 0 0-.392.267c-.097.12-.13.256-.134.265-.019.05.003-.169.153-.34.142-.181.44-.307.454-.316.008-.006-.147.04-.279.113-.134.07-.235.17-.243.174-.036-.002.293-.315.503-.401.137-.08-.288.077-.215.046.017-.034.64-.261 1.057-.24.191 0 .333 0 .354-.002.108-.006-.237-.034-.187-.04.071-.01.547 0 .485-.011-.018-.003-.306-.02-.652-.04-.506-.051-1.124.16-1.116.154-.04-.132 1.836-.398.088-.167a2.5 2.5 0 0 0-.391.229c-.116.067.094-.119.183-.176.042-.03.044-.04-.059.012-.094.059-.336.164-.56.547.443-.71.99-.74 1.154-.817.193-.053.157-.053.033-.037-.253.014-.819.284-.61.136.116-.116.89-.348 1.278-.326.116-.002.192-.004.193-.005a1 1 0 0 0-.193-.019c-.177-.005-.398.028-.495.033-.04.001.234-.059.495-.07.24-.014.456-.03.33-.042a7 7 0 0 0-.33-.007c-.441-.022-1.091.174-1.126.2-.504.198.093-.096-.02-.061a1.94 1.94 0 0 0-.817.53c-.016.015.177-.231.456-.403.274-.18.604-.286.716-.32.173-.064-.49.112-.37.075.329-.147.84-.216 1.16-.207.275.003.38.001 0-.035a3 3 0 0 0-.367-.007c-.097-.011-.684.124-.701.142-.186.05-.01-.032.24-.102.249-.072.571-.108.672-.123.341-.086-1.266.112.072-.055-.509.004-.9.083-1.317.262-.396.182-.908.504-1.172 1.214.319-.87 1.066-1.215 1.52-1.367.482-.156.838-.179 1.054-.195.21-.017.225-.035 0-.048-.315.03-1.016-.145-2.115.698.57-.47.853-.506 1.007-.588.16-.065.213-.096.394-.132.088-.018.4-.06.714-.055.385.006.759-.004.37-.095-.034-.008-.205-.008-.37-.009-.3 0-.576.04-.38-.005q.208-.019.38-.017c1.15.003.424-.013 0-.023-.188-.004-.33.008-.33.006.004-.01.12-.033.33-.04 1.004-.043 4.799.01 5.53 0 .979-.01 1.848-.08 2.06-.08.7 0 .12.036.276.048.159.013 2.148-.054 2.247-.05.386.015-.005.056.034.058.478.025 3.15-.007 3.897.003-.023-.027-1.525-.03-.587-.072 1.091-.05 1.154.068 1.183.073L96.633.326c-.062-.062-3.332-.015-3.407-.023-.436-.05 5.088-.048 5.766-.026l-1.545-.04c.88-.073 2.825.02 4.096-.01.411-.011-.378-.039-.362-.04.462-.029 1.203-.007.649.03 1.127-.036.962.004 1.827.007.045 0-.327-.029.358-.041.32-.006 2.03-.006 2.259-.031.094-.01-.773-.124-.88-.027-1.86-.047-.595.045-1.317.042-.111 0 .144-.054-1.676-.029.347-.098 2.442-.024 2.801-.036.741-.025-2.311-.075-2.871.001.262-.076-.217-.01-.897-.013-.745-.004-.42-.026-.823-.027-1.102 0-.645.054-1.554.005.886.15-1.556.02-2.267-.02l3.473-.022-.199-.024.915.003-.147.023c1.572-.049 1.956.006 2.084.007 1.65.006 3.556.006 5.225.006.25 0 .078-.05 1.903-.01.582.012.032.05.692.044.825-.104.809-.021 1.055-.02.704 0 1.134-.027 1.199-.027.87-.004 2.144 0 3.099-.003.018 0-.479-.033.142-.023q.046 0 .183.008c.76-.056 3.127.6 4.227 2.346a5.1 5.1 0 0 0-1.226-1.315c.295.186 1.385 1.17 1.782 2.318.431 1.122.331 2.104.358 1.482.076-.795-.783-2.466-.889-2.635.276.4.914 1.48.906 2.917.001 2.432.016 5.864.002 6.233-.003.072-.03-.374-.034-.274-.002.078.004 1.62-.006 1.824-.006.122-.023-.56-.033-.504-.007.049-.019 1.974.015 2.084-.013-.473-.001-1.802.028-1.105.003.09-.019.554-.014.663.042 1.01.032-2.009.032-2.476.044 1.897-.008 4.83.021 7.029-.029.888-.044-1.317-.068-.312-.049 2.084.04.555.043.62.029.517-.125 2.28-.008 2.282-.017.755-.032.51-.017 1.577l.025-.42c.068 1.183-.104 3.69-.117 3.502-.035-.505.019-1.81.018-1.922-.002-.165-.121-.62-.015-2.427-.08-.739-.054 2.862-.108 1.224.009 1.106-.047 5.66-.012 6.315.005.078.085-.287.044.838-.019.534-.02-.753-.038-.509-.056.752-.021 10.977-.018 12.92 0 .126-.024.08-.024.204.001.38.038 1.767.026 2.448.046-1.411.05 1.33.045 2.027-.008 1.049-.051.994-.061 1.438v.017c-.003.896-.375 2.017-1.191 2.798-.973.958-1.976 1.951-2.643 2.509.121.017-1.736 1.61-2.537 2.38-.626.604-1.491 1.526-.619.739-1.084 1.04-2.21 2.15-3.22 3.133-.167.162.044-.081-.241.197-.025.025-.042.08-.285.319-2.011 1.973-1.066.979-1.457 1.332-.219.198-.379.346-.495.455 1.178-1.144 2.534-2.466 2.898-2.819-.354.256-2.612 2.536-3.3 3.176-.024.022.035-.081.011-.058l-.002.001c-.255.243-1.86 1.808-1.5 1.517.097-.078.84-.795 1.718-1.647-.233.235-.029.09-.07.133-.497.505-1.773 1.684-2.22 2.108-.102.097-.078.108-.094.124-.407.385-.29.175-.654.626-.791.642 1.36-1.33 1.173-1.227-.144.078-4.79 4.592-4.729 4.627-.021.01-.092.066-.23.186-.308.264-1.601 1.521-1.816 1.746-.036.038.025.071-.021.117-.117.114-1.739 1.607-2.304 2.206l.98-.905c-1.933 1.863-1.62 1.59-.963.983q.05-.046.097-.089c.509-.47 1.158-1.077 1.171-1.083.05-.02-3.22 3.148-2.632 2.496.082-.09 1.618-1.534.837-.84-.137.12-1.102 1.069-1.157 1.115-.364.307 1.733-1.775 1.441-1.557-.486.529-1.164 1.151-1.748 1.73-.266.264-.31.351-.342.384-.49.485-.236.191-.401.352-.089.086-1.016 1.083-.902.831-3.173 3.165-.84.915 1.134-.997-.6.63-1.837 1.798-2.381 2.335-.195.193-.055.104-.383.43-.677.672-3.98 3.803-4.839 4.62.516-.514.337-.393-.066-.001s-.028.1-.104.18c-.08.085-1.994 1.898-2.306 2.208 1.417-1.391 1.069-1.107-.147.06l.504-.53c-.7.696-2.234 2.097-2.633 2.505-.063.064.19-.137.155-.1-.35.356-1.599 1.516-1.649 1.579-.042.053.5-.433.314-.237-.039.041-.572.497-1.062.984-.181.18-.05.094-.095.14-.377.384-.183.128-.885.815-.513.504-.866.911-1.593 1.59 2.394-2.222.4-.335-.57.626-.155.154.017.062-.942.951 1.935-2-.607.514-1.134 1.021-.029.028-.063.012-.322.26-.022.022.026.008-.212.241-2.264 2.208-.828.785-1.276 1.185-.191.17-1.275 1.262-1.572 1.55-.069.066-.055.018-.32.274q-.273.267-.515.513c-.352.352-.74.612-1.083.773-.074.001-.055.103-1.205.32-.325.042-.695.05-.227.049.72-.01 1.79-.37 2.535-1.122.605-.594 1.235-1.214 1.716-1.65.725-.659-1.138 1.147-1.688 1.679-.109.105-.186.169-.21.189-.035.031.13-.116.203-.196.029-.032.039-.046-.006-.007-.047.042-.134.125-.297.256-.612.576-2.253 1.204-3.512.808-.108.005-1.023-.438-.967-.44.018.01.372.195.721.296.347.107.677.142.568.117-.033.02-.97-.258-1.068-.352-.14-.078-.421-.41-.574-.535-.398-.326-.16-.089-.407-.315a3.8 3.8 0 0 1-.828-1.225c-.24-.558-.3-1.175-.303-1.506a.7.7 0 0 0-.02-.201l-.002.2c-.003.317.032.639.11.954a4 4 0 0 1-.122-.953c-.008-.743-.024-.303-.032-.496-.01-.256.035-.184.039-.749 0-.123-.009-2.485-.027-2.442.03 1.306-.026.822-.027.882-.003.23.028.522.027.829-.005 2.16-.054-.019-.066.491-.005.176.022.525.02.6-.004.242-.038.246-.036.407.007.377.056-.063.059-.033.01.106.012.308.01.51-.005.606.127 1.234-.046.453.083.694.19.76.39 1.276.504 1-.352-.46-.365-.936a4 4 0 0 1-.09-.792c-.01-.738.005-1.203-.002-2.506-.003-.577-.034-1.26-.036-1.528-.001-.169.109-1.76-.063-1.808.016-.618.13-1.59.124-2.227-.004-.572-.065-.39-.067-.444-.004-.082 0-.774-.008-1.008-.01-.274-.033-.137-.043-.573-.023-1.083.039-1.054.043-1.166.046-1.292-.042-.726-.049-1.013-.006-.267.028-4.008.005-4.795l.038.961c.038-.574-.025-1.181.044-1.192-.111-.117-.037-1.3-.04-1.656 0-.14-.02-.129-.02-.304-.004-.685.011-2.23.002-2.602-.042-1.607-.111 2.503-.115 2.826 0-.647-.024-4.311-.078-2.627-.009.26.042.721.043.868.013.99-.032.211-.036.289-.007.132.037.783.032.955-.002.057-.043-.312-.044.632-.039-.465-.007-3.117-.016-3.465-.003-.124-.088.653-.006-1.618l-.023.08-.01-3.793c.018.137.054.847.047-.047-.005-.515-.045-.134-.046-.18-.011-.463.002-8.637-.002-10.221-.002-.54-.034-2.041-.035-2.156-.003-.685.018-3.11.014-3.594-.003-.302-.037-.015-.035-.285.001-.25.034.01.035-.065.012-.618-.03-5.306 0-6.42-.01.681.055 4.077.078 4.008.003-.014.028-.84.016-1.01.028-.28-.057-1.247-.04-1.772.001-.06.05.175.058-.763.003-.323-.034-1.168.007-2.019-.02-1.232.042-7.71-.009-8.153-.003-.014-.02.898-.042.282-.028-.819.067-.083.075-1.038.001-.144-.008-2.8-.014-2.887-.053-.805-.075 1.516-.08 1.484-.017-.081-.026-2.01-.022-2.088.004-.075.074 1.498.047-.392l-.025.65c-.016-.89.032-.974.035-1.19.01-.669-.064-1.393.027-2.466.024-.283.051.188.055.152.033-.34-.055-.775.01-1.288.005-.038.044 1.154.044-.93l-.018.43c-.014-.293-.023-2.404-.02-2.687.01-.83.055-.106.05-.94-.062.535-.07-2-.017-1.854-.066-.354-.015-2.507-.013-3.52 0-.638-.028-1.94-.025-2.143.004-.248.05-.172.06-.619.002-.127-.03-1.456.016-2.622.01-.226.086-.7.105-.28.033.719-.029 2.079.016 2.061.05-.02.02-1.852.027-2.345.029-2.277.08-.962.096-1.02.038-.153.037-1.397.04-1.449.016-.215.046.667.069.68.03.016.085-1.183.095-.91.014.39-.031 1.492-.03 1.562.03.91.1-.337.134-.681.01-.104.028.31.031.224.047-1.318-.098-.277-.088-1.154.008-.783.054.224.057.194.003-.038.005-.974.021-1.12.008-.072.098 2.359.137 2.257l-.026-2.327c.052-.06.014 1.055.02 1.17.01.233.036-.415.053-.387.01.015.048.775.063.088.005-.236-.031-.731.006-1.591.048 2.992.077.918.096.83.018-.086.061 1.342.054-.392.101-.075.032.038.05.53.022.604.055-.79.03 1.415.047-.125.044-1.899.048-1.992.003-.081.026.313.034.172.092-1.662.05-.52.109-1.002.005-.043.027-1.614.035-.418.016 2.18-.052 3.09.092 3.456.063-1.611-.03-3.564-.032-4.054-.002-.75.027.027.036-.066.002-.032 0-.678.002-.687.11-.46.002 2.877.021 3.928l.05-.845.001 1.146c.033-1.82.013-.064.102.39.02.102-.015-1.094.04.27.014-1.006.032-.685.007-1.596.035.023.076 2.073.094 2.882.04-2.856-.09-1.228-.022-3.697-.044-.458-.035.72-.043.625-.026-.345.016-1.154-.076-2.129-.015-.159-.061.513-.059-.481 0-.11.04-.744.043-.735.03.084.02.711.032.737.013.024.005-.675.008-.678.04-.021.015.584.027.496.027-.19.11-2.706.086.578-.044-2.728-.043-.35-.026.713.004.27.028.34.036.725.01.497-.001 1.078.003 1.335.005.276.06-1.294.043.977.055-1.156-.003-3.197.035-4.332.077-2.29.094 1.597.102 2.002.001.108.033-.254.035-.182.003.117-.012 2.323.014 2.541s-.001-.808.026-.876c.018-.046.05 2.615.063 1.174.008-.993-.065-2.823.014-3.131l.02 4.38.09-2.397c.009 1.639-.025 3.056.018 4.612.095-3.74.076 1.215.088 1.27.007.018.085-1.455.099-1.692.03 1.305.044 5.27.14 2.95-.021.421.032 1.44.036 1.427.043-.13.015-2.353.053-1.99.045.42-.015 1.009-.01 1.655.025 3.318.246 2.408.21 5.734l.025-.198-.038 10.847c.068 1.415.109 5.18.101 7.03-.001.371-.037 2.2-.043 2.338-.012.255-.016-1.15-.039-.515-.004.134-.02 3.23.019 3.008.004-.347-.015-1.432-.006-1.61.064-1.248.013 8.294.038 8.767l.037-.634zm-3.04-27.669c-.037-.361-.008-1.267-.02-1.802-.014-.74-.16-1.996-.014-1.455zm-.056 15.869c.02-.728.103-.164.069.433-.004.066-.096.552-.069-.433m.04-7.633-.003.682c-.033.564-.026-1.333.002-.682m.041 36.872c-.003-.802-.078-.221-.047.277.002.032.047-.224.047-.277m.002-.57c.067-.624-.068-1.879-.055-.881.002.097.052.91.055.88m-.05-31.265c.025.082.013.833.007 1.154-.023-.009-.004-.839-.007-1.154m.007 19.042c.02.032.019-2.579-.008-2.756.012.412-.01 2.726.008 2.756m.028 6.694c.004-.066-.002-.968-.02-.942-.023.44.005 1.24.02.942m-.001 13.306c.004.048.117-.627.043.973-.01.235-.04-.604-.044-.52-.008.175-.012.313-.013.424a58 58 0 0 1-.006-1.595c.032-.351.018.696.02.718m.084 6.985c.018.153.008 1.134.001 1.357-.002.039-.05-.129-.046.313.003.355.052-.175.044.516-.008.698-.043-.235-.045-.174-.004.082.019 1.161-.01 1.128-.021-.025-.007-1.182-.012-1.468-.005-.366-.041.078-.033-.534.004-.385.067-.171.07-.253.003-.068-.033-1.412.03-.883zm-.067-57.197c-.019.38-.044-.744-.018-1.17.02-.007.021 1.11.018 1.17m.023 51.982c-.016 1.107-.037.292-.05-.692.01.313.055.32.05.691m-.026-31.433c-.005.047-.012.077-.024.08.013-.122.02-.133.024-.08m-.021 2.583c.036.885.035-.913.009-.902-.01.005-.01.867-.01.902m.018 20.902c.003-.081.113 1.177.03-.65-.012.975-.024-.053-.034-.038-.027.04-.001 1.677-.013 2.04.05.284.005-1.085.017-1.35zm.684 26.43c-.231-.254-.654-1.29-.65-2.005.019.323.225 1.398.65 2.005M116.989.024c2.274.3 3.098 1.56 3.212 1.652.083.216-.349-.72-2.285-1.416-.067-.056-1.195-.27-.927-.236m4.562 27.596c-.052.307-.06-.708-.039-1.375.005-.15.057-.709.067-.072-.062-.02-.086.965-.028 1.447M63.948 80.23c.034.322.01 1.314.005 1.837-.029-.32-.016-1.375-.005-1.838m57.572-69.85c-.004.343.041.574.044.515.017-.265-.019-.906-.044-.515M63.953 77.026c.02-.045.04 1.269-.01 1.36.004-.28-.003-1.327.01-1.36m.106 19.8c-.026-.152.032.165.192.558.152.396.44.836.588 1.024-.02-.007-.272-.313-.459-.687a3.9 3.9 0 0 1-.321-.895m57.476-80.922c-.004.307-.005 1.075.013 1.16.023.105.015-1.02-.013-1.16M75.885.078a22 22 0 0 1 1.679-.052c1.003.028-1.637.058-1.679.052m45.612 7.054c.042-.97.001.107.046.064.001-.652.004-2.274-.04-1.159-.009.218-.003.79-.006 1.095m-.015.894c.014.104.06.802.057.198-.002-.279-.053-.729-.057-.198M83.251.058c.868.04-3.113.018-3.227.011q-.09-.005-.123-.01c-.146.013-.898.015-.985-.017.225.003.841 0 .912.004l.07.004c.265-.028 3.187 0 3.353.008m6.596.04c-.993.06-1.17-.04-1.084-.043 1.082-.041.377.032.41.036.076.005.844-.029.671.008zM84.604.075c-.04.002-.875-.001-.91-.003-.683-.033 1.678-.025.91.003M64.03 90.084c-.01.597-.047.011-.034-.386.002-.032.042-.14.034.386m57.463-81.581c-.007.138-.033 3.68.022 3.468-.007-.3.022-4.328-.022-3.468m-.014 26.474c.001-.624.053.057.033.39-.007.124-.033-.232-.033-.39M64.001 75.254c-.03-.649.067-.514.034.048-.001.022-.033-.023-.034-.048m57.507-45.267c.032 2.154-.134 1.644-.078-1.157l.022.263c.025-3.233.012-.221.021.57.004.301.031.049.035.322zm-.033 8.276c-.117 2.075-.041-1.886-.056-3.023.048 1.102.041 2.536.091.585.009 2.852-.038 1.665-.041 1.779-.005.135.011.57.006.659m-.001-5.473c-.003-.12.021-1.024.017-1.35.04.456.007 2.146-.017 1.35M96.764.072c-.076.03-.261.054-.975.042.22-.015.676-.029.974-.042M64.03 24.833c.002-.49.014-1.469-.019-1.169-.003.033 0 1.168.02 1.17m57.436-6.041c-.004.104-.006 2.806.028 1.873.011-.281.006-2.74-.028-1.873m-.014-14.101c.007.086.019.245.019.432.002.352.007.83.012.844.018.043.017-.483.006-.844a3 3 0 0 0-.037-.432m-57.39 17.665c.004-.065-.002-1.565-.017-1.4-.03.313.006 1.621.017 1.4m.04 69.901c.001.126-.033.292-.033.335 0 .102.012 2.398-.031 1.52-.008-.146.01-3.449.014-3.878.046-.166.002 1.245.006 1.588.001.06.04.1.044.434zM93.048.105c-.102.03-2.8.05-2.77.013zm1.37.005c.576.02-.772.028-1.17.018-.004-.02 1.087-.022 1.17-.018M121.36 9.92c.007.272.051-.562.059-.376.005.12-.011.726.003.919.004.055.045-.563.043-.742-.002-.254-.034-.008-.035-.285 0-.92.023-1.736.022-2.598 0-.078-.023.526-.023-.138 0-.103.034-.72.029-1.515l-.003-.063c-.168-2.234-1.268-4.267-4.178-4.893.053.013.632.124 1.162.374.535.238.997.604 1.046.645.93.697 1.91 2.193 1.881 3.874-.003 1.369-.004 2.767-.004 3.787 0 .5.022.258.023.473.001.17-.04-.032-.025.538M64.053 25.094c.04-.234.015-1.055.017-1.58-.037.185-.008 1.068-.017 1.58M106.535.141c.263-.001 1.078.011 1.145-.001.087-.016-1.09-.027-1.145.001M72.992 96.828c.017-.019.474-.456.492-.472.43-.368-.94.944-.492.472M83.887 86.33c.341-.336.68-.681.82-.77-.224.21-.845.826-.82.77M98.91 71.84c-.102.037.957-.945 1.156-1.131-.06.084-1.082 1.103-1.156 1.13M96.867.208c-.882-.002-.696.064-1.256.034-.092-.005-.387-.143.583-.091.174.009-.509.042.673.057m24.565 28.166c-.029-.225-.021-.926-.018-1.4.021.106.016 1.062.018 1.4m-57.337-8.728c.04-.414.01-2.326-.016-1.853-.004.067.018 1.585.016 1.853m-.016 62.827c.032.787.042-.843.01-1.357.003.233-.012 1.304-.01 1.357m31.206-7.17c.026-.027.628-.604.656-.629.516-.45-1.19 1.182-.657.63M80.268 89.746c.198-.227 1.635-1.584 1.972-1.873-.28.324-2.218 2.156-1.972 1.873M100.498.19c-.63.002-1.227-.006-1.805-.018.122-.022 1.739.002 1.805.018m-3.01 72.986q.047-.046.096-.089zM114.59.205c.527.009.418-.032.385-.033-.397-.013-.983.023-.385.033M64.113 24.491c.037-.183.008-1.07.017-1.58-.029.148-.02 1.17-.017 1.58M121.4 40.485c-.04.663-.086-2.034-.06-2.603.024-.042.065 2.506.06 2.603M64.134 80.03c.029-.053-.006-1.186-.02-.945-.008.152.002.976.02.945m57.222-43.504c-.008-.253.02-.844.037-.636.022.267-.034.702-.037.636m-.023-22.735c-.004.11.025 1.6.055.985.02-.427-.021-.495-.022-.595.001-.113.051-2.505-.033-.39m-4.742 40.925c.397-.399.895-.861 1.318-1.27-.16.179-1.13 1.12-1.318 1.27m-52.45 29.68c.013-.136.02-3.855-.016-1.742-.002.123-.018 2.158.017 1.743M96.868.209q.166 0 .389.005zm10.023.004c-.203.021.821.027 1.123.016.093-.026-1.095-.018-1.123-.016m11.031 53.182c.236-.244.687-.662.988-.955-.037.064-.869.867-.988.955m-17.15 16.51c.493-.459 1.085-1.038 1.078-1.064a1 1 0 0 0 .08-.062c.042-.035.554-.543.785-.755 1.384-1.267-5.194 5.049-1.436 1.331zM78.305 91.562c-.295.245-1.04 1.014-.832.83.145-.13 1.128-1.074.832-.83m10.57-10.218c-.085.075-.823.815-.832.845.444-.406 1.224-1.19.833-.845M76.169 93.577a2.6 2.6 0 0 0-.342.391c.187-.157.65-.652.342-.391M98.695.334c.357.013 1.495-.02 1.742-.051.046.006.171.013.398.023h-.002c.308.012 9.501.026 3.334-.034-.193-.001.071.026-.715.021-.052 0-.077-.023-.238-.024-.369-.002-2.334-.016-2.729.002q-.003-.006-.083-.012c-.485-.033-1.984.065-1.707.075m-8.331 79.569c-.157.14-.63.607-.667.67.245-.223 1.031-.995.667-.67m-26.14 4.378c.016-.428-.014-1.513-.03-1.185-.01.2.01 1.68.03 1.185m21.349.257c1.784-1.688.42-.408.671-.69zM87.327.258c.392.007-.069.065-.5.034-.135-.01.281-.037.5-.034M69.641.276c.334.052-1.298.021-.662-.014.03 0 .638.012.662.014M82 .297c.265-.035.439-.039 1.188-.03-1.11.01-.08.04-1.188.03m19.841 68.545q.006-.002.008-.002-.007.003-.008.002m-27.33 26.345c-.241.192-.86.792-.654.635.02-.015.58-.532.655-.635M100.438.283c-.041-.006-.02-.009.048-.012q.004.006-.048.012M77.826 91.957c-.007.037.943-.867.979-.905.515-.55-.59.528-.98.905M64.255 75.61c-.003-.067-.06.369-.037.637.017.207.045-.383.037-.637M79.456.311c-.415 0-1 0-1.108-.027.279.005 1.117.008 1.108.027M70.28.313c.491-.031 1.612-.031 2.328-.026.013.042-1.867.017-2.328.026M97.57.318c.034.002 1.075.015.933-.013-.208-.041-1.227-.002-.933.013M64.225 77.632c.019.466.078-.606.032-1.098-.023-.252-.036 1.02-.032 1.098m8.323 19.395c-.431.438.685-.599.818-.767-.205.194-.665.611-.818.767M87.58 82.488c-1.453 1.284-.587.662-.349.414.034-.035.384-.445.349-.414M64.264 14.84c-.012-.274-.054.748-.026.88.017.082.033-.705.026-.88m44.346 47.441-.175.17q.062-.063.175-.17M66.73 99.34c.833.382 1.288.34 1.485.343.204-.012.194-.038.275-.043.344-.01 1.174-.17 1.726-.55-.63.42-1.407.644-2.17.628.266.05 1.85-.052 2.838-1.072.747-.706 1.469-1.393 1.49-1.428.064-.099-.79.736-.816.758-.038.032-.226.107-.307.181-.034.03-.2.19-.437.417-.458.467-1.361.979-2.242 1.046a3.8 3.8 0 0 1-1.842-.28m17.944-14.03c.23-.21.315-.249.414-.355.034-.036.02-.062.135-.184zM64.442 97.04c-.054-.266.049.199.318.678.258.487.71.921.737.945.148.142-.16-.08-.462-.464-.312-.38-.548-.942-.593-1.159m12.894-4.646c-.046.043-1.01.957-.99.964.264-.233 1.546-1.464.99-.964m8.035-7.769c.339-.322.994-.913.891-.874l-.001.001zm-21.055-5.398c.07-.865-.018-.455-.04.311.03.232.03-.169.04-.31m.052-2.769c.013-.24-.001-2.72-.038-2.342-.013.134.02 1.56.018 1.626-.004.1-.045-.355-.037.406.014-.045.053.393.057.31m-.007 2.053c.052-.86-.045-1.053-.045-.406 0 .252.037.529.045.406m-.008 3.512c.009-.31.022-1.133-.01-1.701l-.008 2.28c.018.088.01-.308.018-.581zm.287-80.508c.398-.378.114-.16-.166.279-.294.453-.321 1.094-.32 1.13-.008.143-.041-.087.02-.435.052-.353.293-.796.466-.974m.507 7.99c.01-.19.047-.314.028-.731l-.08 1.26c.06.327.04-.321.052-.529M65.37 7.9c.001.059.096-.265.033.502-.043.518-.084-2.3-.042-2.809.02.562-.003 1.796.009 2.307m.407-4.936a31 31 0 0 1 .013 1.162c-.028.65-.053-.986-.013-1.162m-.018 3.415c.018-.502.03.61.02.942-.018.032-.023-.864-.02-.942m6.272-4.455c.544.064 1.03-.074.194-.046-.04.001-.217.043-.194.046m-6.16 2.086c-.017.503-.03-.61-.019-.941.018-.031.022.865.02.941m6.543-1.934c.721.046.467-.108.377-.114-.371-.025-1.645.036-1.905.05 1.906-.022 1.188.042 1.528.064m3.328-.093c.67-.016-1.041-.047-1.368-.004.333-.002 1.177.01 1.368.004m4.063.05c.36.006 1.43.019 1.61-.006-.394.005-1.459-.019-1.61.006m.814.073c.563.033.698-.063.05-.035-.026.001-.07.033-.05.035m3.163.034c.37.039.79-.054.192-.057-.177 0-.231.053-.192.057m-10.465.102c.529.017 1.21-.05.081-.057l1.19-.031c-1.479-.037-1.37.055-1.795.051-.593-.005-.546-.081-.427-.105-.486.046-2.552.047-3.746.056 1.05.02 2.752.054 3.788.066.295.004.582-.017.834-.015.404.004.045.034.073.035zm14.622-.1c1.085.043.4-.05-.214-.034-.026.002.187.033.214.034m-21.783.43c-.04 1.45-.091.396-.012 3.428-.056-1.274-.04-.07-.063-.32-.018-.199-.003-.946-.039-.512.04-.57.028-3.05.035-3.16v.003c.004-.067.091.099.079.561m13.654-.295c.361.114.503-.066 1.215.028.947-.137-2.616 0-3.048-.115 3.87.013-2.556-.115.145.058-2.225-.063-.73.021-1.073.043-.367.024-1.626-.002-1.562.04h.002l2.31-.008c-.754-.092.82-.064 1.353.01zm-4.357-.085c.076.002 1.75-.01 1.642-.03-.224-.01-2.6.003-1.642.03m-7.369.02c.601 0 1.53.018 1.858-.017-.6 0-1.53-.018-1.858.017m30.956.006c.767-.028-1.593-.036-.91-.003.034.002.873.005.91.003m-17.487.042c.779.035.41-.075-.167-.047-.033.002.13.046.167.047M66.169 3.746c.027.053.008 2.155.008 2.528-.025-.212-.039-2.587-.008-2.528m.857-1.433c1.196.097 2.82-.015 2.998-.013.176.003-.101.045-.06.046.091.003 1.976 0 2.067-.004.066-.002-.275-.062.114-.08-.76.033-4.205.012-4.384.019-.139.005.906.068-.733.032zm3.442 0c-.47-.025.85-.028 1.17-.019.71.021-1.11.022-1.17.02m3.176.023c.151.006 1.512.011 1.628-.017-.644-.036-1.97.004-1.628.017m15.145-.003c.354-.004 1.326.017 1.382-.007-.354.004-1.326-.018-1.382.007M66.383 10.92c.02-.587.028.773.019 1.17-.016.022-.021-1.12-.02-1.17m15.303-8.428c.209.008 4.479-.01 5.078-.022-.586-.019-4.818-.02-5.01-.011-.056.002-.095.032-.068.033m-9.235.011c-.391.036-.647-.007-.696-.007-.484-.006-1.488.002-1.268-.032.854.014 2.744-.032 1.964.04m16.643-.01c1.45-.012-1.335-.05-.97-.013.024.003.82.015.97.014m-7.885.01c-.32.029-4.591.004-5.277.004.614-.054 1.11-.013 1.934-.016.223 0 .163-.023.187-.023.386-.001.097.025.335.025.15 0 3.27-.031 2.82.01m-8.981.025c-.239.02-2.906.03-3.013.024-.803-.04 2.806-.03 3.013-.024m9.372.022c-.459.062-2.58.02-1.128-.01.138-.003.725.024 1.128.01m7.34.003c.07.002 1.582.014 1.609-.005-.218-.008-2.422-.015-1.61.005m-.785.067c.037 0-.317-.039.391-.034.06 0 .17.043 1.06.028.181-.003.461-.032.441-.034-.928-.067-3.722.062-1.892.04m-15.976-.057c.144.018-.203.072-.516.044-.134-.011.116-.043.516-.044m21.554.007c-.88.033 1.88.04 2.02.03-.089-.02-1.933-.033-2.02-.03m-27.1 9.725v-.002c-.006.739-.034.281-.034.316-.04 1.574.021 1.157.028 1.403.016.528-.059.443-.028 1.333-.045-1.472-.026-.132-.053-.09-.108.165.051-1.96.028-2.694-.003-.102-.037.653-.047.39-.032-.851.135-3.492.107-.656m4.79-9.683c-.343.032-2.945.001-2.255-.025.111-.004 2.758-.021 2.254.025m28.93 64.346c.43-.454-.635.528-.813.73-.089.1.623-.531.813-.73m-7.394 6.967c-.53.52-1.015 1.146-.362.491.07-.07.435-.539.362-.491m25.897-36.767c-.041.776.035.73.034.16 0-.201-.033-.184-.034-.16m-12.048 23.506c-.058.052-.7.678-.665.668.246-.223 1.039-1.003.665-.668m12.037-23.752c.014.46.069-.332.015-.894.004.285-.016.846-.015.894M83.202 2.719c.385-.03 1.475-.021 2.1-.027.068.04-1.653.02-2.1.027M95.26 71.77c-.486.51.614-.52.489-.45-.016.011-.47.43-.49.45m23.58-59.635c.024.511.057-1.112.014-.665a47 47 0 0 0-.014.665m.013-7.06v.05c-.007.489-.003 1.928.019 1.32.003-.085.004-1.04-.01-1.32q-.004-.046-.009-.05m-52.197 8.983c.041-.21.031 1.003.024 1.177-.003.068-.079-.905-.024-1.177m52.192 28.14c.006.4-.004 1.442.018 1.625-.005-.49.026-1.758-.018-1.626m-21.28 27.347c-.473.392-1.223 1.122-.995.985.829-.805-.14.06.995-.985m21.227-35.216c-.003.322.054.568.056.532.026-.349-.034-.852-.056-.532m-6.041 20.57c-.031-.005-.765.719-.655.635.036-.028.679-.632.655-.636M96.714 2.733c.472.022-.972.044-1.399.018-.207-.037 1.338-.02 1.398-.018m22.096 22.67c-.036-.048-.016 1.565.014.93.007-.16-.002-.913-.014-.93m-.044-15.437c.043 1.082.074-3.46.02-2.267-.004.086-.023 2.173-.02 2.267m-.516-6.333c.064.1-.036.104-.356-.242-.043-.047.198.125.164.086a2.263 2.263 0 0 0-.962-.583c-.051-.011-.003.043-.054.033-.038-.008-.325-.1-.628-.105a35 35 0 0 0-.649-.01c-1.02 0-1.13.032-1.214.032-.244 0-.653-.022-1.147-.022-2.491 0-6.299.027-8.273-.041 1.757.027 3.431-.002 5.179-.01-.512.067 2.571-.053.768.025.482-.01 3.102-.018 5.336-.02 1.075-.017 1.758.74 1.835.856zM90.824 75.937c.3-.347-1.379 1.285-1.489 1.458.228-.21 1.452-1.416 1.49-1.458m7.706-7.572c.151-.156.244-.358 1.093-1.12l.002-.002c.249-.223-.011.055.038.018.018-.014.794-.706.177-.102-.941.921-.131.042-.637.53-.062.059-.988 1.013-.926.966.007-.005.288-.289.338-.332.19-.162.12-.06.147-.083.085-.078 1.568-1.568 1.814-1.753.079-.06-2.384 2.355-2.485 2.444-.064.056-.087-.02-.155.037-.035.028-1.016 1.01-1.15 1.131l-.091.08c.166-.13-.74.742-.729.697.01-.022.636-.618.659-.639l.028-.023c-.147.105 1.961-1.927 1.479-1.516.596-.605-.047.125.398-.333m2.907-2.864-.174.199c1.057-1.045 2.316-2.21 3.548-3.399.313-.301-.078.013.34-.373.335-.31.728-.63.556-.451-.042.044-.73.669-1.062.993-.982.959-.706.746-.763.803-.063.062-.703.642-1.042.97-.851.826-1.225 1.219-2.413 2.321.656-.667.249-.352 1.01-1.063M118.7 18.593c-.024-.057-.002-1.03-.006-1.383.024.056.003 1.029.006 1.383M66.84 57.896c-.04-.299-.049 1.94-.016 1.35.008-.13.017-1.069.017-1.35m-.023 10.058c.01.3.04-.907.008-.904-.01.001-.01.865-.008.904m48.474-15.76c.04-.04.639-.606.659-.622.422-.349-1.547 1.516-.659.622M66.866 80.18c-.027-1.044-.038 2.098-.005 1.138.002-.047.006-1.087.005-1.138m.007 4.368c-.002-.25.011-1.362 0-1.377-.02-.022-.034 1.25 0 1.377m51.772-50.437c-.045.12-.011-1.345-.017-1.855.045-.12.011 1.345.017 1.855m-.033 9.249c-.036-6.178.06-4.816.021.367-.028.008-.019.022-.021-.367m.005-7.91c.029.224.02.925.018 1.4-.02-.086-.013-1.059-.018-1.4M66.903 55.23c.036.388-.009 2.103-.024 1.798-.003-.07.003-1.94.023-1.798m48.734-3.423c-.134.068 1.213-1.207 1.322-1.298.439-.37-1.221 1.187-1.322 1.298m2.969-26.464c-.034-.328-.016-1.258-.016-1.856.029.272.017 1.348.016 1.856m-.027 4.32c-.001-.038.002-.873.004-.91.033-.684.025 1.677-.004.91M66.962 11.27l-.003.682c-.033.564-.026-1.333.003-.682"/><path fill="#000" d="M46.9 94.193c-.1.086-.211.22-.29.328-.024.034.01.037-.007.061-.031.047-.076.076-.106.124-.01.016.036.028.025.044-.06.088-.136.152-.204.235-.332.406-.679.787-1.033 1.181-.117.13-.238.31-.375.428-.016.013-.033-.02-.038-.02-.077.014-.01.05-.031.085a1.6 1.6 0 0 1-.328.38c-.05.044-.056-.054-.073.022-.002.005.038.02.028.036-.022.036-.082.088-.102.113-.039.049-.046.056-.087.099-.055.058-.107.14-.173.195-.014.012-.026-.032-.05-.016a.4.4 0 0 0-.089.1c-.011.025.019.038.02.047.017.068-.105.075-.114.082-.171.127-.262.29-.4.432-.104.107-.226.212-.324.316-.116.124-.2.242-.318.358-.012.013-.031-.034-.046-.02a4 4 0 0 0-.447.508c-.014.019.036.026.024.046-.072.122-.166.335-.35.271-.06.073-.133.16-.166.244-.02.055.047.048-.012.082-.014.008-.028-.033-.046-.019-.076.058-.138.141-.217.194-.017.011-.038-.017-.046-.017-.068-.003-.06.109-.067.125-.054.122-.13.175-.21.259-.019.02-.03-.035-.05-.018a2 2 0 0 0-.269.305c-.017.025.03.033.024.046-.03.057-.093.015-.123.069-.006.011.023.03.024.034.018.066-.063.031-.071.036-.099.066-.088.18-.175.252-.01.009-.02-.043-.048-.017-.183.173-.359.372-.507.575-.023.031.02.034.02.039.018.071-.06.032-.071.039-.086.056-.1.171-.218.151-.268.327-.6.59-.826.953-.003.004.033.026.027.035-.072.108-.1.046-.215.052-.03.002-.007.114-.006.123.004.032.063.059.062.068-.012.068-.151-.079-.205-.023-.002.002.032.021.03.028-.006.023-.03.027-.035.05-.01.053.05.133-.04.144-.012.001-.085-.088-.13-.034-.017.021-.104.108-.122.138s.024.039.023.041c-.029.101.01.09.03.173.02.084-.095-.045-.122-.044-.027 0-.045.077-.047.099-.001.021.03.023.026.039-.032.107-.092-.028-.134-.024-.1.01-.05.142-.089.201-.01.016-.02-.016-.034-.005-.054.04-.053.097-.133.126-.012.005-.11-.004-.097.064.002.009.035.02.02.045a.4.4 0 0 1-.109.124c-.029.019-.04-.046-.057-.004-.008.019.038.015.022.048a.7.7 0 0 1-.105.121c-.025.024-.04-.017-.044-.017a.3.3 0 0 0-.086.04c-.207.207-.347.448-.561.638-.017.015-.036-.025-.04-.023-.065.043.057.077.046.141-.055-.064-.066-.031-.11.002-.022.015-.036-.018-.04-.018-.062-.007-.035.057-.03.071.017.052-.043.032-.032.067s.073.04.037.076c-.032-.01-.063-.093-.1-.074-.137.073-.285.316-.363.406s-.109.114-.15.171c-.072.104-.082.03-.156.068-.073.037.057.11.072.14s-.017.016-.014.038.039.015.02.043c-.017.027-.118.052-.149.037-.066-.03-.091-.109-.132-.03-.002.004.036.019.026.036-.082.127-.188.239-.272.364-.012.017.031.034.025.044-.067.108-.087.027-.192.02.087.063.107.135.043.203-.04.04-.066.001-.114.005-.015.001-.02.052-.04.042-.068-.032-.1-.114-.144-.023-.002.004.035.022.027.034-.055.079-.116.036-.194.103-.06.053-.127.187-.186.258.087.082.007.125-.076.093-.039.045-.087.088-.118.137-.011.017.022.032.023.036.016.068-.06.031-.07.039-.12.078-.154.202-.289.256-.005.002-.07-.05-.05.018 0 .004.058-.001.017.046s-.091.162-.179.198c-.021.009-.106 0-.098.067.001.009.022.021.026.036.012.048-.058.001-.029.072.03.072.023.156-.073.184-.003.001-.065-.03-.083-.009-.03.033-.063.087-.095.12-.015.015-.035-.023-.038-.021-.12.09-.166.191-.264.316-.018.023-.116.044-.123.115-.008.078.18.172.048.241-.054.027-.288-.098-.264.068-.161.12-.24.299-.413.41-.008.005-.079-.024-.093-.008-.02.024-.008.059-.022.077-.058.074-.138.116-.197.184-.023.026.01.041-.017.072s-.079.019-.101.074c-.017.041.02.136-.01.184-.068-.063-.093-.034-.157-.002-.013.006-.026-.026-.033-.024-.03.006-.026.042-.056.046-.007.001-.03-.02-.037-.02-.06-.003-.056.093-.055.11.003.064-.04.05-.05.087s.04.017.021.052c-.04.075-.115.146-.171.206-.023.024-.037-.021-.041-.018-.055.041-.07.121-.157.091.122.183-.043.015-.08.114-.002.008.064.086.095.075s.04-.065.084-.078c.01-.003.118.024.127.022.074-.011-.03-.123-.034-.131-.04-.088.08-.065.098-.073.08-.036.113-.1.177-.133.041-.022.116.044.138.017.073-.09.002-.216.164-.211.035.001.097.093.094-.027 0-.007-.014-.106.047-.098.008.001.03.023.037.021.04-.017.04-.054.08-.077.038-.023.087-.048.114-.091.017-.026 0-.095 0-.115-.002-.058.078-.042.059-.095-.019-.054-.109-.071-.086-.142.06.055.126.11.188.165.099-.107.18-.228.283-.331.013-.013.032.031.047.019.062-.054.089-.128.157-.18.053-.041.136-.06.193-.101-.04-.096.055-.147.1-.206.016-.021-.003-.037.003-.056.027-.071.064.01.087.005.097-.02-.034-.156.037-.222.003-.003.12.021.13.02.067-.011-.02-.031 0-.061.033-.054.046-.102.118-.135.021-.009.102-.002.096-.066-.001-.008-.027-.029-.025-.034.032-.08.108-.009.165-.017s.054-.109.05-.133c-.014-.065-.037.004-.042.002-.062-.026-.019-.056.005-.087-.07-.076-.027-.111.024-.033.006.008-.022.024-.024.033.096.045.147.01.126-.103-.01-.053-.068-.067.011-.122.036-.025.075.036.116.022.091-.032.122-.159.191-.216.026-.02.031.029.05.016.048-.035.063-.092.115-.124.004-.003.024.034.037.021.1-.096.166-.201.266-.306.048-.051.151-.126.199-.181.082-.096.147-.248.232-.316.055-.044.074-.005.114-.007.079-.005.082-.145.08-.165 0-.001-.048.036-.04-.002-.019-.043.04.002.04.002 0-.013.077-.106.1-.118.011-.007.034.025.04.021q.204-.137.356-.332c.002-.002-.032-.029-.028-.034.052-.082.131-.089.208-.124.077-.034.112-.086.091-.17a.4.4 0 0 0 .103-.168c.02-.049.084.004.088.002.13-.059.15-.148.24-.253.044-.05.143-.135.2-.18.044-.035.053-.073.098-.102.006-.004.028.027.03.026.073-.011-.012-.053-.015-.073-.012-.072-.016-.113.055-.148.017-.008.145.047.172.03.035-.022-.009-.044.029-.066.003-.002.023.018.04-.002.081-.091.161-.198.25-.287.013-.012.03.036.049.018a1.6 1.6 0 0 0 .237-.27c.015-.024-.02-.034-.023-.045-.015-.067.082-.047.09-.052.173-.122.23-.29.403-.418.01-.007.136-.009.109-.091-.002-.005-.031-.088.032-.076.004.001.016.047.042.013s.094-.064.103-.138c.003-.023-.023-.109.06-.106.006.001.168.037.119-.052-.008-.015-.086-.083-.002-.094.016-.002.017.03.05.016.052-.021.079-.089.156-.102.013-.002.096.013.084-.051-.002-.01-.035-.026-.024-.043.052-.08.137-.135.186-.221.018-.03-.034-.056-.02-.092.013-.035.052-.097.096-.105.044-.009.08.082.123.047.19-.152.317-.359.478-.537.024-.026.027.017.064-.02.136-.138.389-.357.457-.525.054-.134-.093-.041-.038-.13.027-.043.139-.01.15-.016.105-.062.128-.152.211-.218.017-.013.033.031.047.019.05-.04.082-.101.126-.142.02-.018.04.007.055-.012a.4.4 0 0 0 .083-.157c.002-.006-.051-.007-.022-.04.048-.053.088-.137.167-.175.024-.011.077.039.077-.034 0-.015-.073-.066.024-.057.017.001.161-.002.149-.084-.003-.021-.032-.096-.003-.109.004-.001.021.037.04.022.07-.052.129-.12.199-.174.018-.015.023.039.05.016.074-.062.15-.156.207-.232.02-.029-.02-.035-.021-.039-.015-.071.06-.032.072-.038.078-.041.096-.113.157-.162.016-.013.033.024.039.023.054-.008-.018-.032-.004-.058a.8.8 0 0 1 .16-.185c.021-.019.03.035.05.017.112-.105.22-.223.306-.348.017-.024-.02-.035-.022-.045-.011-.067.084-.058.099-.063.066-.022.061-.06.104-.096.207-.174.423-.427.59-.618.218-.249.373-.456.598-.677.014-.014.033.032.046.02.162-.152.302-.323.467-.474.013-.013.026.036.049.017a.7.7 0 0 0 .13-.149c.016-.026-.038-.023-.022-.049a.8.8 0 0 1 .143-.162c.024-.02.023.044.051.016.191-.192.38-.377.53-.613.01-.016-.044-.09-.004-.107q.03.024.061.053c.284-.273.531-.575.802-.861.011-.013.025.041.048.018.129-.135.264-.255.362-.425.01-.017-.057-.068-.01-.1.01-.005.075-.058.104-.06.004-.001.021.037.04.018.114-.108.222-.233.314-.363.014-.02-.034-.03-.024-.045.073-.107.192-.186.25-.3.039-.076-.034-.104-.055-.185-.003-.011.031-.049.004-.08-.07-.076-.169-.137-.241-.22-.016-.019.05-.05-.02-.06-.004-.002-.052.02-.075.016-.015-.004-.035-.044-.06-.043-.023 0-.011.038-.046.045-.034.006-.06-.036-.103 0m-10.358 11.682c.003-.06.113.037.054.048a.4.4 0 0 1-.053-.048m-3.8 3.903c-.005-.087.09-.05.098.015.007.064-.096.012-.098-.015m-.458.407c.011-.085.168.051.087.075a.5.5 0 0 1-.087-.075m15.004-15.52c-.001-.002.023-.029.025-.028.046.018-.001.073-.025.028m-15.461 15.92c-.006-.035.06-.057.067-.014.005.035-.06.057-.067.014m6.234-6.508c0-.002.016-.023.025-.014.027.029-.006.048-.025.014m-6.951 7.247c.1-.115.04-.301-.06-.168-.019.024.084-.008.068.03-.028.07-.138.028-.146.12-.001.016.132.025.138.018m5.324-5.59c0-.002.023-.029.025-.028.047.018-.001.073-.025.028m2.62-2.816a.4.4 0 0 1 .059-.067c.085.022-.027.149-.059.067m-4.388 4.493c-.06-.005-.097.026-.077.089zM38.807 77.404c-.101.086-.212.22-.29.328-.024.034.009.037-.007.06-.032.048-.077.076-.107.124-.01.016.036.029.025.045-.06.088-.136.152-.204.234-.332.407-.678.788-1.033 1.182-.117.13-.238.309-.375.427-.016.014-.033-.02-.038-.02-.076.014-.01.05-.03.086a1.6 1.6 0 0 1-.329.38c-.05.044-.056-.054-.073.022-.002.005.038.02.028.036-.022.036-.082.088-.102.113-.039.049-.046.056-.086.098-.055.059-.108.14-.174.196-.014.012-.025-.033-.05-.016a.4.4 0 0 0-.089.1c-.011.025.019.038.02.046.017.07-.104.076-.114.083-.171.127-.262.29-.4.431-.104.108-.226.213-.324.317-.116.124-.2.242-.318.358-.012.012-.03-.034-.046-.02-.16.16-.313.324-.447.508-.013.018.036.026.025.046-.072.122-.166.335-.35.271-.06.072-.134.159-.167.244-.02.054.048.047-.012.082-.013.008-.028-.033-.046-.02-.075.059-.138.142-.217.195-.016.01-.038-.017-.046-.018-.068-.002-.06.11-.067.126-.054.121-.13.175-.21.26-.019.019-.03-.037-.05-.019a2 2 0 0 0-.268.305c-.017.024.03.032.023.046-.03.057-.093.015-.122.069-.007.01.023.03.024.034.017.066-.064.03-.072.036-.099.066-.088.18-.175.252-.01.008-.02-.043-.047-.017a4.3 4.3 0 0 0-.508.575c-.023.031.02.034.02.038.018.072-.06.033-.07.04-.086.055-.1.17-.219.15-.268.328-.6.59-.826.953-.003.005.034.026.027.035-.072.108-.1.046-.215.053-.03.002-.006.114-.005.123.003.032.063.06.061.067-.012.069-.15-.078-.205-.022-.002.002.032.02.03.028-.005.022-.03.027-.035.05-.01.053.05.133-.04.143-.011.002-.085-.088-.129-.034-.018.022-.105.109-.123.139s.024.038.024.041c-.03.1.01.09.03.173.019.084-.096-.045-.123-.045s-.045.078-.046.1c-.002.021.03.022.025.039-.031.106-.091-.029-.134-.024-.1.01-.049.141-.089.2-.01.016-.02-.015-.034-.005-.054.041-.053.098-.132.127-.013.005-.11-.004-.098.063.002.01.036.02.021.046a.4.4 0 0 1-.11.124c-.028.018-.04-.046-.057-.004-.008.019.038.015.022.048a.7.7 0 0 1-.105.121c-.025.024-.04-.017-.044-.017a.3.3 0 0 0-.086.04c-.207.207-.347.448-.56.638-.018.015-.037-.025-.04-.023-.066.043.056.077.046.141-.056-.064-.067-.03-.111.002-.021.015-.035-.018-.04-.019-.062-.007-.034.058-.03.072.017.052-.043.032-.032.067s.073.04.037.076c-.032-.01-.062-.093-.099-.074-.138.073-.286.315-.364.406-.078.09-.109.114-.149.171-.073.104-.083.03-.157.067-.073.038.057.111.072.14s-.017.017-.014.039.039.015.021.042-.118.053-.15.038c-.066-.03-.09-.11-.131-.03-.003.004.036.02.025.035-.082.128-.188.24-.272.365-.012.017.031.034.025.044-.066.108-.087.026-.191.02.086.062.107.134.042.202-.039.041-.066.002-.114.006-.015 0-.02.052-.04.042-.068-.032-.1-.114-.144-.023-.002.004.036.022.027.034-.055.079-.116.035-.194.103-.06.053-.127.187-.186.258.087.081.008.125-.076.093-.039.045-.087.088-.118.137-.011.017.023.032.024.036.015.068-.06.031-.072.038-.118.08-.153.203-.288.257-.005.002-.07-.05-.05.017 0 .005.058 0 .017.047s-.091.162-.179.198c-.021.008-.106 0-.098.067.001.009.023.021.026.036.012.048-.058 0-.029.072s.023.155-.073.184c-.003.001-.065-.03-.083-.01-.03.033-.063.088-.095.12-.015.016-.035-.022-.038-.02-.119.09-.166.19-.264.316-.018.022-.116.043-.123.114-.008.078.181.173.048.241-.053.028-.288-.098-.263.068-.162.12-.241.3-.413.411-.008.005-.08-.024-.093-.008-.02.023-.009.059-.023.077-.058.074-.138.116-.197.184-.023.026.01.04-.017.072-.027.03-.078.018-.101.074-.017.041.02.136-.01.183-.067-.062-.093-.033-.157-.001-.012.006-.026-.026-.033-.024-.029.006-.026.041-.055.046-.008.001-.03-.02-.037-.02-.061-.004-.057.093-.056.11.003.063-.04.05-.05.087s.04.016.021.052c-.04.074-.115.146-.171.206-.023.024-.037-.021-.041-.019-.055.042-.07.122-.157.091.122.184-.043.015-.08.115-.002.008.064.086.095.075s.04-.065.084-.078c.011-.003.118.023.127.022.074-.011-.03-.123-.034-.13-.04-.089.081-.066.098-.074.08-.036.113-.1.177-.133.041-.022.116.044.138.017.073-.09.002-.216.164-.211.035 0 .097.093.094-.027 0-.007-.013-.106.047-.098.008.001.03.023.037.02.04-.016.04-.053.08-.076.038-.023.088-.048.114-.091.017-.026.001-.095 0-.115-.001-.058.078-.042.06-.095-.02-.054-.11-.072-.087-.142q.093.083.188.164c.1-.106.18-.228.284-.33.012-.013.031.031.046.018.062-.054.089-.127.157-.18.053-.04.137-.059.193-.1-.039-.096.055-.147.1-.206.016-.021-.003-.037.004-.056.026-.071.064.01.086.005.097-.02-.033-.156.037-.222.004-.004.12.021.13.02.067-.012-.019-.032 0-.061.033-.055.046-.103.118-.135.021-.01.102-.003.096-.066 0-.009-.027-.03-.025-.034.032-.08.108-.009.165-.017s.054-.109.05-.133c-.013-.065-.037.004-.042.002-.062-.026-.018-.056.005-.088-.07-.075-.027-.11.024-.032.006.008-.022.023-.024.032.096.045.147.01.126-.102-.01-.053-.068-.068.012-.123.035-.025.075.036.115.022.091-.031.122-.158.192-.215.025-.02.03.029.049.016.048-.035.063-.093.115-.125.005-.003.024.035.038.022.1-.097.165-.202.265-.307.049-.05.152-.125.199-.18.082-.096.147-.248.232-.316.056-.044.074-.005.115-.007.078-.005.08-.145.08-.165 0-.001-.049.036-.041-.002-.019-.043.04.002.04.002 0-.014.077-.107.1-.119.012-.006.034.026.04.022q.206-.137.356-.332c.002-.002-.032-.029-.028-.035.052-.081.132-.088.208-.123.077-.034.112-.086.091-.17a.4.4 0 0 0 .103-.168c.02-.05.084.004.088.002.131-.06.15-.148.241-.253.043-.05.143-.135.199-.18.044-.036.054-.074.099-.102.006-.004.027.027.03.026.072-.01-.012-.054-.016-.074-.012-.072-.016-.113.055-.147.017-.008.145.047.172.03.036-.022-.009-.044.029-.067.003-.002.023.019.04 0 .081-.092.161-.2.251-.288.012-.012.03.035.048.018.085-.08.173-.174.237-.27.016-.025-.02-.034-.022-.045-.016-.067.081-.047.088-.052.174-.123.23-.29.405-.418.01-.007.136-.009.108-.091-.002-.006-.031-.089.032-.076.004 0 .016.046.043.013.026-.034.094-.065.103-.138.002-.023-.024-.11.06-.106.006 0 .167.037.118-.053-.008-.014-.086-.082-.002-.093.016-.002.017.03.05.016.052-.021.08-.09.156-.102.013-.003.096.013.084-.051-.002-.01-.034-.026-.024-.043.052-.08.137-.135.187-.22.017-.03-.035-.057-.021-.093.013-.036.052-.097.096-.106s.08.082.124.047c.189-.15.317-.358.478-.536.024-.027.026.017.063-.02.136-.138.39-.358.457-.525.054-.135-.093-.041-.037-.13.027-.044.138-.01.149-.017.105-.06.128-.151.212-.217.017-.014.032.03.046.019.05-.04.082-.101.126-.142.02-.019.04.007.056-.012a.4.4 0 0 0 .083-.157c.001-.006-.052-.008-.023-.04.048-.053.089-.138.168-.175.023-.012.077.038.077-.034 0-.016-.073-.067.024-.058.016.002.16-.001.148-.083-.003-.022-.031-.096-.003-.11.004 0 .021.038.041.023.069-.052.128-.12.198-.174.019-.015.024.038.05.016.075-.062.15-.156.207-.233.02-.028-.02-.034-.021-.038-.015-.07.06-.032.072-.039.079-.04.096-.113.157-.161.016-.014.033.024.039.023.054-.008-.018-.033-.004-.058a.8.8 0 0 1 .16-.185c.021-.02.03.035.05.017.112-.105.22-.223.307-.349.016-.023-.021-.034-.023-.044-.01-.067.084-.058.099-.063.067-.022.062-.06.104-.096.207-.174.423-.427.59-.618.218-.249.373-.456.598-.677.014-.014.033.032.046.02.163-.153.302-.323.467-.475.014-.012.026.037.049.018a.7.7 0 0 0 .13-.15c.016-.025-.038-.022-.022-.048a.8.8 0 0 1 .144-.162c.023-.02.023.044.05.015.191-.19.381-.376.53-.612.01-.017-.044-.09-.004-.107q.03.024.061.053c.284-.273.532-.575.802-.862.011-.012.026.042.048.019.129-.135.264-.256.362-.426.01-.016-.057-.068-.01-.099.01-.005.076-.058.104-.061.004 0 .021.038.04.02a2.6 2.6 0 0 0 .314-.364c.015-.02-.034-.03-.024-.045.073-.108.193-.186.25-.3.039-.076-.034-.105-.055-.185-.002-.011.032-.049.004-.08-.07-.076-.169-.137-.241-.221-.016-.018.05-.05-.02-.06-.004 0-.052.021-.074.016-.016-.003-.036-.043-.06-.042s-.012.038-.047.044c-.034.007-.06-.035-.103.002M28.449 89.086c.002-.06.112.037.053.047a.4.4 0 0 1-.053-.047m-3.8 3.903c-.006-.087.09-.05.097.014.007.065-.096.013-.098-.014m-.459.406c.012-.084.169.052.087.076a.5.5 0 0 1-.087-.076m15.004-15.519a.1.1 0 0 1 .025-.029c.047.019-.001.074-.025.029m-15.461 15.92c-.006-.035.06-.057.067-.014.006.035-.06.057-.067.014m6.235-6.509c-.002-.002.015-.022.024-.013.027.029-.006.047-.024.013m-6.952 7.248c.1-.115.04-.3-.06-.168-.019.024.084-.009.068.03-.028.07-.138.028-.146.12 0 .016.133.024.138.018m5.324-5.59c0-.002.023-.03.025-.029.047.019 0 .074-.025.029m2.62-2.816a.3.3 0 0 1 .059-.067c.085.021-.027.149-.059.067m-4.387 4.492c-.061-.004-.098.026-.078.09zM15.928 75.323c-.101.086-.212.22-.29.328-.024.034.009.037-.007.06-.032.048-.077.076-.107.124-.01.016.036.029.025.045-.06.088-.136.152-.203.235-.333.406-.68.787-1.034 1.181-.117.13-.237.309-.374.427-.017.014-.034-.02-.039-.02-.076.014-.01.05-.03.086-.086.144-.21.277-.329.38-.05.044-.055-.054-.073.022-.002.005.038.02.028.036-.022.036-.082.088-.102.113-.039.049-.046.056-.086.098-.055.059-.108.14-.174.196-.014.012-.025-.033-.05-.016a.4.4 0 0 0-.088.1c-.012.025.018.038.02.046.016.07-.105.076-.115.083-.17.127-.262.29-.4.431-.104.108-.226.213-.323.317-.117.124-.201.242-.318.358-.013.013-.032-.034-.047-.02-.16.16-.313.324-.447.508-.013.018.036.026.025.046-.072.122-.166.335-.35.271-.06.072-.134.159-.166.244-.022.055.047.047-.013.082-.013.008-.028-.033-.046-.02-.075.059-.138.142-.217.195-.016.01-.038-.017-.046-.018-.068-.002-.06.11-.067.126-.054.121-.13.175-.21.26-.019.019-.03-.037-.049-.019a2 2 0 0 0-.27.305c-.016.024.031.032.024.046-.03.057-.093.015-.122.069-.007.01.023.03.024.034.017.066-.064.03-.072.036-.098.066-.088.18-.174.252-.01.009-.02-.043-.048-.017a4.2 4.2 0 0 0-.508.575c-.023.031.02.034.02.038.018.072-.06.033-.07.04-.086.055-.1.17-.219.15-.268.328-.6.59-.826.953-.003.005.034.027.028.035-.072.108-.101.046-.216.053-.029.002-.006.114-.005.123.004.032.063.06.061.068-.012.068-.15-.079-.205-.023-.001.002.032.02.03.028-.005.022-.03.027-.035.05-.01.053.05.133-.04.144-.011 0-.084-.088-.129-.035-.018.022-.104.109-.123.139s.024.038.024.041c-.03.1.01.09.03.173.019.084-.096-.045-.123-.045s-.045.078-.046.1c-.002.021.03.022.025.039-.031.106-.091-.028-.134-.024-.1.01-.049.141-.088.2-.011.016-.021-.015-.035-.005-.054.041-.053.098-.132.127-.013.005-.11-.004-.098.064.002.01.036.02.021.045a.4.4 0 0 1-.11.124c-.028.018-.04-.046-.057-.004-.008.019.039.015.022.048a.7.7 0 0 1-.105.121c-.024.024-.04-.017-.044-.017a.3.3 0 0 0-.086.04c-.207.207-.347.448-.56.638-.017.015-.037-.025-.04-.023-.066.043.056.077.046.141-.056-.064-.067-.03-.111.002-.021.015-.035-.018-.04-.019-.062-.007-.034.058-.03.072.018.052-.043.032-.032.067s.073.04.037.076c-.032-.01-.062-.093-.099-.074-.138.073-.286.316-.364.406s-.109.114-.149.171c-.073.104-.083.03-.156.067-.074.038.057.111.071.141.015.03-.016.016-.014.038.003.021.039.015.021.042s-.118.053-.15.038c-.066-.03-.09-.11-.131-.03-.003.004.036.02.026.036-.083.127-.189.24-.273.364-.012.017.032.034.025.044-.066.108-.087.026-.191.02.086.063.107.134.042.202-.039.041-.065.002-.114.006-.015.001-.02.052-.04.042-.068-.032-.1-.115-.144-.023-.001.004.036.022.027.034-.054.079-.116.035-.193.103-.061.053-.128.187-.187.258.087.081.008.125-.076.093-.038.045-.086.088-.118.137-.011.017.023.032.024.036.015.068-.06.031-.071.038-.119.08-.154.203-.289.257-.004.002-.07-.05-.05.018.001.004.058-.001.017.046-.041.046-.091.162-.179.198-.02.008-.106 0-.098.067.001.01.023.021.026.036.012.048-.058 0-.028.072.029.072.022.155-.074.184-.003.001-.065-.03-.083-.01-.03.034-.062.088-.095.12-.015.016-.035-.022-.038-.02-.119.09-.166.19-.264.316-.018.022-.116.043-.123.115-.008.078.181.172.048.24-.053.028-.287-.098-.263.068-.162.12-.241.3-.413.411-.008.005-.08-.024-.093-.008-.02.023-.009.059-.023.077-.057.074-.138.116-.197.184-.023.026.01.04-.017.072-.027.03-.078.018-.1.074-.018.041.02.136-.011.183-.067-.062-.092-.033-.157-.001-.012.006-.026-.026-.033-.024-.029.006-.026.041-.055.046-.008.001-.03-.02-.037-.02-.061-.004-.057.093-.056.11.003.064-.04.05-.05.087s.04.016.022.052c-.04.075-.116.146-.172.206-.023.024-.037-.021-.041-.018-.055.041-.07.121-.156.09.122.184-.044.016-.08.115-.003.008.063.086.094.075.032-.01.04-.065.085-.078.01-.003.117.023.126.022.074-.011-.03-.123-.033-.13-.04-.089.08-.066.098-.074.08-.036.112-.1.176-.133.042-.022.116.044.138.017.074-.09.002-.216.164-.211.035 0 .097.093.094-.027 0-.007-.013-.106.048-.098.007.001.03.023.036.02.04-.016.04-.053.08-.076.038-.023.088-.048.115-.091.016-.026 0-.095 0-.115-.002-.058.077-.042.058-.095-.019-.054-.108-.072-.086-.142q.093.082.188.165c.1-.107.18-.229.284-.331.013-.013.032.031.046.018.062-.053.09-.127.157-.18.053-.04.137-.059.193-.1-.039-.096.055-.147.1-.206.016-.021-.003-.037.004-.056.026-.072.064.01.086.005.097-.02-.033-.156.037-.222.004-.004.12.021.13.02.067-.012-.019-.031 0-.061.033-.055.046-.103.118-.135.021-.01.102-.003.096-.066 0-.008-.027-.03-.025-.034.032-.08.109-.009.166-.017s.054-.109.049-.133c-.013-.065-.037.004-.042.002-.062-.026-.018-.056.005-.088-.07-.075-.027-.11.025-.032.005.008-.023.023-.025.032.096.045.147.011.126-.102-.01-.053-.067-.067.012-.122.036-.025.075.035.115.022.091-.032.122-.159.192-.216.025-.02.03.03.049.016.048-.035.063-.092.115-.125.005-.002.025.035.038.022.1-.097.165-.202.265-.306.049-.051.152-.126.2-.181.081-.096.146-.248.231-.316.056-.044.074-.005.115-.007.078-.005.081-.145.08-.165 0-.001-.049.036-.041-.002-.019-.043.04.002.04.002 0-.014.078-.107.1-.118.012-.007.034.025.04.021q.206-.138.356-.332c.002-.002-.032-.029-.028-.035.052-.081.132-.088.208-.123.077-.034.112-.086.092-.17a.4.4 0 0 0 .102-.168c.02-.05.084.004.089.002.13-.06.15-.148.24-.253.043-.05.143-.135.199-.18.044-.036.054-.074.099-.102.006-.004.028.027.03.026.072-.01-.012-.054-.016-.073-.012-.073-.016-.114.056-.148.016-.008.144.047.172.03.035-.022-.01-.044.028-.067.003-.002.024.019.04 0 .081-.092.161-.2.251-.288.012-.012.03.035.048.018.085-.08.173-.174.237-.27.016-.025-.02-.034-.022-.045-.016-.067.081-.047.089-.052.174-.123.23-.29.404-.418.01-.007.136-.009.108-.091-.002-.005-.031-.088.032-.076.004 0 .016.046.043.013.026-.034.094-.065.103-.138.002-.023-.023-.11.06-.106.006 0 .167.037.118-.053-.008-.014-.086-.082-.002-.093.017-.002.017.03.05.016.052-.021.08-.09.156-.102.014-.002.096.013.084-.051-.002-.01-.034-.026-.023-.043.052-.08.137-.136.186-.22.017-.03-.035-.057-.021-.093.013-.036.052-.097.096-.106s.08.082.124.047c.189-.15.317-.358.478-.536.024-.027.026.017.063-.02.136-.138.39-.358.457-.525.055-.134-.093-.041-.037-.13.027-.043.138-.01.149-.017.105-.06.128-.151.212-.217.017-.013.032.03.046.019.05-.04.082-.101.127-.142.02-.018.04.007.055-.012a.4.4 0 0 0 .083-.157c.001-.006-.052-.008-.022-.04.047-.053.088-.138.167-.175.023-.012.077.038.077-.034 0-.016-.073-.066.024-.058.016.002.16 0 .148-.083-.003-.022-.031-.096-.003-.109.004-.002.021.037.041.022.069-.052.128-.12.198-.174.019-.015.024.038.05.016.075-.062.15-.156.207-.233.02-.028-.02-.034-.021-.038-.015-.07.06-.032.072-.039.079-.04.096-.113.157-.161.017-.014.034.024.039.023.055-.008-.018-.032-.004-.058a.8.8 0 0 1 .16-.185c.021-.02.03.035.05.017.112-.105.22-.223.307-.349.016-.023-.02-.034-.023-.044-.01-.067.084-.058.1-.063.066-.022.06-.06.103-.096.207-.174.423-.427.59-.618.218-.249.373-.456.598-.677.015-.014.033.032.046.02.163-.153.303-.323.467-.474.014-.013.026.036.049.017a.7.7 0 0 0 .13-.149c.016-.026-.038-.023-.021-.049a.8.8 0 0 1 .143-.162c.023-.02.023.044.05.016.191-.192.381-.377.53-.613.01-.017-.043-.09-.003-.107q.03.024.06.053c.284-.273.532-.575.802-.862.011-.012.026.042.048.019.129-.135.264-.256.362-.426.01-.016-.057-.068-.009-.099.009-.005.075-.058.103-.06.004-.001.021.037.041.018a2.6 2.6 0 0 0 .313-.363c.015-.02-.034-.03-.024-.045.073-.108.193-.186.25-.3.039-.076-.034-.105-.055-.185-.002-.011.032-.049.004-.08-.07-.076-.169-.137-.241-.221-.016-.018.05-.05-.02-.06-.004 0-.052.021-.074.017-.016-.004-.036-.044-.06-.043-.024 0-.012.038-.046.044-.035.007-.06-.035-.104.002M5.57 87.005c.002-.06.112.037.053.047a.4.4 0 0 1-.053-.047m-3.8 3.903c-.006-.087.09-.05.097.014.007.065-.096.013-.098-.014m-.458.407c.01-.085.168.051.086.075a.5.5 0 0 1-.086-.075m15.003-15.52a.1.1 0 0 1 .025-.029c.047.019-.001.074-.025.03M.854 91.715c-.005-.035.06-.057.067-.014.006.035-.06.057-.067.014m6.235-6.509c-.001-.002.015-.022.024-.013.027.03-.006.047-.024.013M.137 92.454c.1-.115.04-.3-.06-.168-.019.024.084-.009.069.03-.029.07-.138.028-.146.12-.002.016.132.024.137.018m5.324-5.59c0-.002.023-.03.025-.029.047.019 0 .074-.025.029m2.62-2.816a.3.3 0 0 1 .059-.067c.085.021-.027.149-.059.067M3.694 88.54c-.061-.004-.098.026-.078.09z"/></svg>