<svg xmlns="http://www.w3.org/2000/svg" width="272" height="306" fill="none" viewBox="0 0 272 306"><path fill="#82c6dd" d="M122.591 128.551c-1.204-5.827-1.204-5.827-11.433-15.398 2.657 6.295 4.579 13.395 11.433 15.398M-21.69 164.167c-.912.99-.956 3.883.876 5.453 1.447 1.24 1.532 4.051 3.561 4.752 2.134 2.825 3.922 6.054 6.689 8.138q.092.585.59.659c4.61 6.788 8.917 13.897 14.522 19.634 1.302.808 1.588 3.398 3.645 2.879.655.41-.402 2.674 1.399 1.84 4.5 8.542 11.279 14.48 17.197 21.4 1.784 3.853 4.027 7.123 7.695 8.591 1.318 3.66 3.4 6.342 6.734 7.417.16.977-.352 2.163.57 2.903 2.629 2.166 3.734 6.291 6.973 7.675 1.563 1.736 1.824 5.539 5.13 4.507.89.949 1.326 3.988 2.635 2.532 1.603-1.786-.993-2.527-1.79-3.707-.786-3.043-3.283-3.21-5.222-4.318-1.32-1.377.512-5.279-2.794-5.065-1.645-5.119-5.243-8.101-8.655-11.287l-2.23-2.471c-1.401-2.991-3.687-4.928-5.867-6.993.59-4.919-3.518-5.308-5.403-7.754-4.91-6.369-8.793-13.896-14.824-19.012.12-3.827-2.508-1.856-3.885-2.524.204-1.615-.157-2.867-1.512-3.484-.665-2.715-1.762-4.914-4.424-5.238-1.92-1.234-1.536-5.317-4.53-5.225-.185-2.257-1.247-3.319-3.141-3.252l-1.864-2.868c.448-3.212-2.282-3.239-3.408-4.873l-1.303-1.914c-.429-2.958-2.637-4.216-4.164-6.085-.893-1.095-1.376-4.291-3.2-2.31M174.693 75.913c2.246 4.75 4.206 9.866 9.175 11.091-2.332-4.637-4.845-9.04-9.175-11.091M164.057 61.764c-.505-.675-1.478-2.034-2.537-.28-.849 1.408-.347 2.426.536 3.24 2.579 2.372 5.195 4.685 7.797 7.02.985 1.541 1.911 3.175 3.695 3.885.725-3.639-2.038-3.256-2.849-4.845-1.168-4.131-4.409-6.038-6.642-9.02M-38.61 174.579c-1.444.259-3.417-1.052-4.214.95-.971 2.442 1.503 2.435 2.478 3.499 1.13 1.235 2.252 2.482 3.378 3.726l4.334 5.575 1.95.73c2.309 5.291 6.9 8.036 9.816 12.648-.276 3.792 3.825 1.512 4.246 4.336 2.691 5.029 5.612 9.742 10.868 11.262l.002-.01c.008-.013.074-.089.074-.089-.459 5.095 4.292 5.783 5.483 9.485 2.216 1.839 2.158 6.802 6.01 6.341-.126-3.11-3.16-5.031-2.066-8.661.227-.75-.278-1.878-1.113-1.418-.62.343-.963 1.448-1.429 2.214-1.984-1.942-.77-6.625-4.263-7.274.287-1.866-.888-2.521-1.878-3.331-2.09-.665-1.195-6.102-4.854-4.258-.159-2.054-.313-4.113-2.598-4.283l-1.471-1.714c-.989-2.348-4.206-3.012-3.427-6.697l-1.897.048c-.113-1.219.318-2.831-1.41-2.877-2.486-2.309-3.962-6.188-7.536-6.803l-.732-.936-3.778-4.271c-.62-2.168-2.368-3.02-3.624-4.445.173-2.109.59-4.275-2.348-3.747M-22.477 80.216c-.406-1.154-1.021-2.406-2.164-1.792-1.383.744-.373 2.244-.122 3.15.506 1.837 1.134-.004 1.719-.25q.779.777 1.559 1.552c-.682.756-1.935 1.358-1.462 2.64.422 1.142 1.414-.19 2.154-.054 2.466.928 1.05 5.572 3.964 6.073 2.698 1.187 3.763 5.085 6.779 5.747l3.636 8.141 5.349 3.533c-.87-2.656-1.698-3.892-3.045-4.62-1.258-3.163-2.653-6.174-5.648-7.418-1.162-1.972-1.916-4.369-3.921-5.459-1.808-5.019-5.32-8.11-8.798-11.243M4.644-16.721c-1.492-1.505-4.19-1.212-4.734-4.35-.577-.77-1.275-1.703-1.96-.294-.318.653-1.722 2.249.398 2.494L6.874-9.84c1.43 3.782 4.365 5.497 8.045 8.856-2.11-5.275-3.381-9.056-7.443-9.61.03-2.713-1.432-4.715-2.832-6.128M48.705 170.008c-.472-1.383-1.358-2.123-2.562-2.37-1.007-1.205-1.325-3.701-3.423-2.872-.807.319-.581 1.417-.476 2.255.335 2.692 2.009 1.591 3.301 1.571.542 1.68-3.03 6.36 2.187 4.632.585 4.137 5.25 2.992 6.063 6.833 1.23 2.139 2.445 4.305 5.494 3.191-2.32-1.183-3.024-4.006-4.743-5.741-2.269-2.132-2.866-6.181-5.841-7.499M194.143 98.049c-.782-.044-.962.993-.945 1.952.077 4.666 3.821 2.598 5.506 4.295.134.135.279.254.418.38-.722 2.546 2.304 5.518 5.76 5.584-1.323-2.651-2.377-5.533-5.184-6.31-1.21-2.858-2.465-5.73-5.555-5.901M186.305 90.456c-.313 2.198.411 3.838 1.658 5.198l.312-2.851 4.564 3.773c-1.24-3.266-3.022-5.746-5.115-7.75-1.915-1.832-1.822-.093-1.419 1.63M152.621 50.672c2.732 3.007 5.327 6.147 7.964 9.518-1.347-4.51-4.104-7.665-7.964-9.518M60.803 187.196c-1.916 3.44 2.707 4.721 4.19 7.296.923 1.689 2.05 2.895 4.184 2.579-.102-2.502-1.406-3.481-2.615-4.539-2.106-1.793-4.808-7.044-5.759-5.336M212.287 119.077c-.835-4.853-4.285-5.777-6.808-7.778 1.636 3.149 3.201 6.403 6.808 7.778M57.135 262.59c.838 4.831 4.368 5.784 5.57 8.916 1.279 1.499 2.277 3.709 4.921 2.358-.97-1.777-1.821-3.449-3.815-3.547-1.363-3.181-3.053-5.937-6.676-7.727M100.285 36.583v-.005l-.005-.004v.006z"/><path fill="#82c6dd" d="M106.287 43.536c-.173-4.68-3.866-4.922-6.021-7.103-.294 5.268 3.506 5.375 6.021 7.103M90.487 91.785c-.89-3.28-2.104-5.765-4.18-7.491-.865-.719-1.705-.514-2.273.551-.204.384.055 1.117.103 1.691 3.433-.73 3.17 4.608 6.35 5.249M65.774 303.983c-2.25-3.14-3.055-3.735-5.016-4.172 1.695 1.701 2.794 3.845 5.016 4.172M11.36 239.108c-.29.08-.633 2.166.219 2.863.91.745 2.075 1.552 3.148.664.335-.277-.064-1.994-.139-3.256-1.203-.157-2.256-.538-3.228-.271"/><path fill="#82c6dd" d="M95.102 28.798c.833 4.756 3.11 6.212 5.213 7.861-.303-3.685-2.875-4.81-5.213-7.861M71.578 204.854c1.812.552 2.956-.133 3.788-1.411.103-.16-.96-2.137-1.54-2.132-1.546.009-1.534 2.067-2.248 3.543M26.426 262.142c3.352.125 3.308 3.769 6.247 3.062-1.418-2.056-2.051-4.468-6.247-3.062M38.923 160.857c1.004-3.762-.835-4.752-1.95-6.225q-.877.917-1.75 1.835zM25.543 143.944q-.021-.011-.04-.024-.005 0-.009-.002c.009.06.022.114.03.175q.008-.075.018-.149"/><path fill="#82c6dd" d="M29.404 147.93c-1.227 3.916 2.478 1.636 2.945 3.425l2.939 5.385 1.714-1.774c-1.94-2.585-3.033-6.139-5.917-7.646-1.234-1.626-2.37-3.383-3.73-4.839-1.282-1.372-1.606-.118-1.762 1.203 1.616.963 3.31 1.821 3.81 4.246M19.59 250.094c-.873.826-.957 1.856-.248 2.848.614.64 1.39.742 1.833-.152.485-.98.578-2.245-.238-2.996-.253-.234-1.008-.022-1.347.3M73.31.168l-4.126-4.144c-.026 3.36.962 4.592 4.126 4.144M1.838 83.586c-.36-.052-1.202.691-1.175.873.299 1.989 1.422 2.913 3.243 3.334.318-2.425-.148-3.93-2.068-4.207M7.46 119.739c-1.108 4.105 2.44 3.177 3.59 4.842-.472 5.32 4.914 4.453 5.938 8.192.065 2.596 2.18 2.531 3.346 3.7.747 3.573 1.572 7.068 5.27 7.67-.66-4.113-2.291-7.484-5.135-9.926-1.775-4.384-5.14-6.951-7.98-10.119l-4.124-5.438-3.976-4.599c.274 2.639.991 4.78 3.071 5.678M48.438 41.324c-.302 1.149 0 2.134.853 2.61.35.196.875-.038 1.338-.078.253-1.48-.246-2.253-.968-2.822-.402-.315-.976-.657-1.223.29M106.301 43.359l.001-.006-.009-.005v.01z"/><path fill="#82c6dd" d="M109.082 47.405c.173-2.802-1.122-3.688-2.805-4.138-.128 2.49.97 3.601 2.805 4.138M76.923 206.619c-.449 1.771-.414 3.114.988 3.771.735 2.008 1.222 5.461 3.528 3.905 1.594-1.077-.558-3.187-1.264-4.726-.14-2.578-2.52-1.269-3.252-2.95M85.813 220.021c-.37 4.141 2.993 4.726 4.553 7.029 1.841 2.241 3.091 5.619 7.44 5.037l-5.204-6.019q-2.625-3.046-5.25-6.094c-1.419-1.543-2.284-3.925-4.529-4.547-.205 2.972 2.039 3.124 2.99 4.594M30.313 16.902c-.67.83-.433 1.674.163 2.276.503.506 1.058 1.183 1.822.34.486-.906.374-1.733-.14-2.435-.518-.707-1.18-1.006-1.845-.181M145.262 89.307q.017.018.036.035l.003-.05z"/><path fill="#82c6dd" d="M148.467 93.535c.373-3.311-2.038-3.059-3.201-4.285-.317 2.96 1.229 3.74 3.201 4.285M136.063 31.952c-.388 4.587 3.015 2.582 4.722 3.604l-2.545-3.029c.324-1.45-.066-2.531-1.25-2.633-1.237-.107-1.24.97-.927 2.058M102.106 105.393c.405.583 1.04 1.307 1.695.324.245-.368.095-1.123.118-1.544-.696-.727-1.332-1.177-1.936-.337-.202.28-.112 1.22.123 1.557M46.187 281.938c-.772.506-.831 1.712-.362 2.253.44.504 1.326.416 2.015.588l-.013-2.472c-.212-1.337-1.105-.721-1.64-.369"/><path fill="#82c6dd" d="m145.264 89.309.039-.013c-.012-.029-.027-.051-.04-.078-.001.033.002.058.001.09"/><path fill="#82c6dd" d="M142.216 85.994c.377 2.46 2.4 1.888 3.073 3.3.108-2.542-.992-3.334-3.073-3.3M139.92 147.221c-.59.581-.934 1.535-.096 2.074.314.202.934-.264 1.585-.48-.043-.705.09-1.542-.156-1.762-.277-.248-1.017-.143-1.333.168M38.37 28.109c-.628.844-.21 1.634.406 2.06.346.241.873.11 1.214.137.625-1.196.343-1.963-.299-2.36-.341-.212-1.088-.149-1.32.162M43.289 279.616c.616-.926-.17-1.386-.654-2.125-.294-.048-.709-.116-1.125-.182.154.755.192 1.611.513 2.226.149.283 1.097.335 1.265.081M82.598 80.32l-1.339-.498c-.024.779-.261 1.71-.008 2.287.21.48.996.545 1.528.792zM22.528 6.7c-.66-1.736-1.555-2.719-3.48-3.674.641 2.76 1.033 4.397 3.48 3.674M144.837 42.118c-.615 1.082-.445 2.145.391 2.759.37.271.994.053 1.501.057l-.449-2.732c-.602-.914-1.119-.653-1.443-.084M32.82 267.334c.434.914.572 1.62.928 1.847.374.237 1.052.226 1.425-.055.518-.392.503-1.256-.04-1.513-.584-.279-1.302-.18-2.313-.279M13.82 97.954c-.084-3.044-1.941-3.835-3.947-4.437a3.5 3.5 0 0 0-.88-.368c-1.274-2.154-2.401-4.61-5.14-4.136-.338.059-.94 1.04-.852 1.315.902 2.844 2.761 3.992 5.279 3.808.472 1.255.387 3.252 2.354 2.52.307 1.293-.592 3.509 1.7 3.283l.86.633c2.98 2.475 3.459 7.402 6.58 9.736l2.366 2.449 1.305 2.018c1.602 3.034 3.8 5.143 6.744 6.087 1.7 2.016 2.158 5.522 5.512 6.529-.426-4.485-4.292-5.566-4.886-9.138-2.489.067-1.642-3.868-3.658-4.37-.655-2.778-1.597-5.227-4.414-5.521q-.821-.738-1.644-1.474l-5.037-6.234q-1.12-1.35-2.242-2.7M79.325 8.833c-.177.515-.02 1.331.214 1.843.204.445.727.652 1.548 1.321-.307-1.445-.409-2.31-.68-3.074-.216-.604-.771-.99-1.082-.09"/></svg>