<svg xmlns="http://www.w3.org/2000/svg" width="115" height="139" fill="none" viewBox="0 0 115 139"><path fill="#82c6dd" d="M86.722 107.073c-2.19 1.02-3.944-.732-5.999-.814-.807.927-1.357.138-2.025.128-1.707 1.527-2.822-1.27-4.453.232-1.022.046-1.956-1.16-3.044-.055-.533.182-.549-1.583-1.248-.74-.79.825-1.533 1.588-1.96.046-.076-.277-.535-.459-.722-.284-.895.839-1.504.124-2.24.12-.536-.003-.935-.666-1.622.002-.529.514-.967-.341-1.395-.016-.433.328-.839.299-1.292.675-1.113 3.536-1.613 7.463-3.131 10.776-.71.989-.745 2.421-1.158 3.625-.607.393-.778 1.221-.982 2.015-1.78 2.028-1.401 6.505-3.071 8.671-.489.986-.754 2.504-1.138 3.631-1.007.862-.661 2.659-1.802 3.353-.525-.648-1.363-1.264-.873-2.799.55-1.671.692-3.38 1.691-4.846.54-.758.381-2.27 1.227-3.096.625-1.584 1.07-3.715 1.518-5.444.21-.987.95-1.32 1.107-2.371.944-4.972 3.513-9.465 4.128-14.5-.772.921-1.447.144-2.174.128-.61.772-1.155.552-1.612.272-.539-.329-1.116.583-1.645.359-1.717-.771-3.593-.804-5.43-.622-.893.817-.477-.432-1.072-.382-1.781 1.469-2.896-1.514-4.678.953-1.78-.123-3.521-1.856-5.428-.588-1.206.885-2.145-.226-3.246-.24-.322-.063-.693.786-1.012.439-.697-1.932-2.346-1.018-3.707-.249-.273.059-.64-.38-.778.097-.223.772-.776.96-.939 1.629-.185.759-.626 1.552-.353 2.309-.59 5.465-3.984 10.606-4.26 16.015.096.793-.264 1.519-.783 2.026-.484.474-.96.515-1.256-.176-2.364-2.051 2.328-9.422 1.708-13.01.412-1.038.301-2.37 1.177-3.172.683-1.583 1.091-3.957 1.554-5.415l-.235-1.445c-.66.874-1.239.286-1.891.36-.543.783-.971.374-1.42.268-.742-.176-1.537-.225-2.193-.632-.661-.41-1.399.479-2.05.268-.493-.16-.985-.667-1.618.24-2.142-.471-4.305-1.165-6.415-1.664-.824 1.284-1.441-.349-2.258.633-1.139 1.129-.963-1.991-2.072-.449-1.08-.241-2.8 1.238-3.325-.707-.026-.188-.36-.173-.563-.204-1.668 1.057-3.117-.953-4.846.487-.173 1.403-1.493 2.221-1.299 3.654.363 1.169-.465 1.998-.943 2.964-.442 1.278-.487 2.8-1.444 3.751-.98 3.021-1.255 6.21-2.8 8.985-.652.993-.397 2.821-1.442 3.736-.632 2.295-1.264 4.589-1.873 6.89-1.56 2.259-1.904-.379-2.361-2.343.307-.804.25-2.224 1.198-3.058.426-1.308.744-2.765 1.131-4.119 1.658-1.874 1.378-5.897 2.952-7.863.898-2.372.894-5.244 2.377-7.205l1.654-6.173c-.885-.522-.883-.534-1.736-.242-.747.351-1.481-.297-2.215-.337-1.73 1.61-3.016-1.437-4.855.151l-2.01-.419c-1.41 1.51-4.807-1.955-6.264-.383-.96.172-1.789-1.04-2.824-.234-.462.52-.81.007-1.201-.056-.416-.066-.8.758-1.24.464-1.145-.212-2.357-1.221-3.626-.482-1.14.55-2.277-1.306-3.423-.095-.531.017-1.062-.468-1.618.095-.438.437-.672.262-.812-.299-.23-.925-.676-.222-1.075.141l-1.205-.323-1.453 1.449c-.619 3.353-1.86 2.099-.91 4.96-.423 1.211-.554 3.071-1.419 3.997-.21.247-.35.854-.413 1.291-.076.529.28.887.004 1.555-.183.445-.184.846-.09 1.281.136.629-.056 1.408-.48 1.835-.685.69-.621 1.688-.928 2.523.412.779-.004 1.778-.309 2.579-.382 1.004.13 1.633-.214 2.615-.286.818-.735 1.792-.348 2.598-.481 1.585-.538 3.848-1.859 4.382-.33.173-.416-.344-.504-.729-.31-.637.372-1.696-.408-1.73-.081-.013-.163-.337-.126-.499.228-1 .67-2.016.351-2.942.551-2.236 1.364-4.543 1.382-6.727.394-2.546 2.014-5.464 1.667-7.786l.898-3.447c-.427-1.936.914-4.262 1.283-6.394-.2-.807-.828-.443-1.231-.695-1.301 1.182-2.259-.259-3.437-.141-1.357.987-2.556-.245-3.882-.338-.893.972-1.248 1.59-1.858.404-.753.667-1.493.236-2.215.148-.56.793-.963.239-1.418.191-.468-.049-.96.782-1.44.399-.333-.266-.795-.228-1.19-.358-.402-.134-.834.841-1.226.421-.425-.456-.955.817-1.439.393-.305-.268-.726-.125-1.21.152-.512.293-1.052-.282-1.608-.151-1.6.815-2.795-.28-4.353-.481l-.992 1.215-2.14-.574-1.161 1.174c-1.724-1.076-4.036 1.071-5.034-2.048-.5-1.73 2.498-3.223 3.234-2.9.794.813 1.74-.278 2.628-.037.374.189.797.232 1.2.34.783-.861 1.368-.275 2.03-.217.599-.26 1.228-.57 1.847-.912 1.12-.256 2.242 1.252 3.408.523.503-.56.808.078 1.223-.196.934-.976 1.733.221 2.635.039.592-.017 1.264-.608 1.82-.217.382.268.802-.733 1.233-.434.348.24.792.242 1.194.35.856-1.282 1.574.421 2.464-.79.13-.176.673-.01.728.256.366 1.684 1.115.203 1.803-.352.623.068 1.516.667 2.149.32.956-.677 1.593.141 2.441.146.418-.308.809-.872 1.08-.136.275 1.056 1.286-1.295 1.712.803.85-.275 1.487-2.147 2.394-1.478.811-3.029 1.521-5.794 2.302-8.537.337-1.184.363-2.617 1.316-3.43.313-1.147.638-2.291.928-3.443-.207-.822-.164-1.972.597-2.669.402-.493.482-1.618-.128-.862-2.235 1.444-3.809.791-5.67.25-.443-.095-.854-.579-1.424.199-.81.148-1.617-.388-2.406-.497-.78.83-1.383.356-2.025.192-.462-.118-.953.758-1.44.4-.398-.294-.922-.286-1.39-.411-.579 1.106-1.074.086-1.634.556-.194.163-.49.395-.599.294-.46-.43-1 .585-1.434.378-.694-.328-1.44-.214-2.231.156-.642-.629-1.566.639-2.228.144-.506.542-.978.621-1.424.36-1.065 1.175-2.026-.083-3.025-.07-1.055 1.343-2.155.998-3.695 1.953-.106.043-.313-.156-.298-.248.237-1.407-.322-2.178-.514-3.234.573-.754.947-1.676 1.58-2.151.546.486 1.246-.474 1.828-.32 1.04.568 2.093.138 3.26-.54.346-.263.821.065 1.187.271.469.264.957-.805 1.448-.416.79.445 1.891.456 2.71.768l1.173-1.168c.847.063 1.61.924 2.596.021.319-.32.702.381 1.21-.233.462-.556.894.47 1.427-.41.436.4.719 1.363 1.459.541.568-.54 1.072.375 1.636-.598.843-.037 1.509.867 2.427.14.913-.52 1.734.383 2.612.414.813-1.068 1.353-.142 2.029-.211.91-.65 1.908-.206 2.672-.012l1.605-1.596c.792-2.267 1.01-5.304 2.261-7.252.21-.22.475-.975.422-1.238-.272-1.355.378-2.669.662-3.995 1.303-2.037 1.545-4.563 2.266-6.867.241-.77.885-1.056.998-2.028.273-1.29 1.28-4.162-.459-2.371-.354-1.786-.667-2.123-1.94-.606-.655.042-1.298-.471-1.954-.389-.463.074-.98.663-1.419.314-1.06 1.314-1.847-.648-2.848.686-.256-1.336-1.218-.848-1.847-1.204l-1.175 1.169c-1.128-.758-2.489.95-3.742.527-.55-.194-1.062-.657-1.81-.108-.675.497-1.203-.114-1.81-.169-1.085 1.281-1.704-.252-2.929.354l-.142.141c-.684-1.186-.926-.606-1.861.33-.575.209-.971-.666-1.63.096-.495.573-.904-.437-1.425.408-1.243-.071-2.488 1.345-3.659.748-.334-.017-.79.897-.993.423-.36-.658-.908-.965-1.014-1.965.85-1.537 2.046-1.41 2.976-2.591.359-.16.832.499 1.205-.222.738-1.293 1.53-.11 2.26-1.137 1.26.698 2.49-.493 3.803.277l.926-1.234 2.153.577c1.087-1.268 1.704.267 2.626-.138.67-.52 1.26-.436 1.825-.139.957-.054 1.953-1.326 2.86-.746.414.3.944-.743 1.431-.378.759.203 2.467 1.254 3.216.194.531.598 1.257-.547 1.827-.296 1.68-1.262 3.385.624 4.995.606.65-.611 1.246-1.53 1.888-.976 1.846-1.224 1.858-5.43 2.867-7.867.248-.85-.266-1.34.135-2.262 1.06-2.68 1.163-5.418 1.765-8.103-.494-1.235.725-2.706.163-3.817l1.477-5.512-.437-1.587c.363-1.117.921-3.497.202-4.037-.26-.008-.314-.294-.223-.676.179-.88 1.491-1.929 1.49-.825-.31 1.46.33 2.614-.223 4.144.52 2.929.34 6.07-.39 9.473.404 3.534-.996 5.064-.977 8.159.143.785-.71 1.96-.314 2.924-.64 2.88-1.629 6.01-2.398 9.079.07.344.433 1.206.673 1.159 1.196-1.32 2.161.697 3.229-.114.641-.714 1.081.376 1.659-.544 1.558-.545 2.744 1.553 4.433.22.883.292 1.928.143 2.394 1.492.67-.725 1.27-1.376 1.728-1.87 1.078.043 1.584 1.035 2.63.188.416-.526.745.367 1.213-.21.188-.232.308-.31.46.023.405 1.032 1.248.687 2.025.225.677.092 1.345.223 2.016.34.829-.913 1.379-.116 2.01.031.552.129 1.117-.74 1.65-.38.406.275.924.272 1.392.394.897-1.061 1.496-.158 2.226-.124 1.857-.59 3.377.705 5.348-.26l.815-3.042c.376-.907.888-.845.69-1.516-.192-.644.024-1.502.369-1.865.837-.881.78-2.135 1.181-3.176-.28-1.182.215-3.472 1.144-4.268.175-1.11.77-2.12.63-3.36-.116-1.043.325-1.95 1.08-3.426.194-.38.47-.986.424-1.262-.233-1.504 1.55-9.217 2.19-4.873-.213 1.168-1.007 2.625-.529 3.575-.297.655.037 1.042-.008 1.555-.443 1.595-.638 3.62-1.686 4.806-.314 2.999-1.245 6.306-2.111 9.48.398 2.12-.708 2.218-1.153 4.27.859 1.97-1.652 2.975-.664 3.933.392.099.782.498 1.144-.427 2.334.84 4.657.112 6.926 1.101 1.17-.716 2.215-1.212 3.25-.613.588.06 1.086.712 1.83-.125 1.407-.3 2.777 1.567 4.239.353.08-.102.438.092.466.297.113.81.625.58.978.76 1.302-1.232 2.597.25 3.827.309.533.203 1.112-.915 1.653-.37 4.472 1.63 5.676 1.467 7.795-6.923-.54-2.634 2.582-8.203 2.043-10.72.36-1.18.35-2.584 1.3-3.42.094-.083.218-.6.181-.642-.592-.7.466-2.09.008-2.822-.167-4.099-.035-9.421-1.787-12.009-.284-.382-.678-.488-.358-1.399.024-.068-.036-.274-.07-.266-.728.162-.834-1.068-1.427-1.196-.263-.056-.585-.043-.466-.694.644-1.95 1.82-1.152 2.596-.958.167 2.249 2.322 2.185 2.116 4.12-.353 1.853 1.142 1.576.556 2.86.222 1.06.666 1.908.52 3.232-.024 1.13.933 1.89.32 3.306-.22 1.146.674 1.749.021 3.094a53.6 53.6 0 0 1-2.378 13.628c-.325.8.121 1.221-.063 1.907-.857 2.302-.929 5.537-2.362 7.212-.57 1.36-.076 2.265.155 3.396.472-.868 1.036-.272 1.477-.996.79.134 1.63.024 2.066.988.46-.689.9-.494 1.202-.228.486.427.976-.786 1.454-.425.465.225 1.054.607 1.606-.024 1.15-.494.398 1.992 2.283.357 1.64-.359 3.082-.019 4.641.346.56-.799.968-.26 1.414-.179.363.143.56 1.44 1.055.72.867-.58 1.608-.851 2.453-.554.4.018.735.524 1.21-.014.966-.65 1.872.322 2.74.337 1.18-.877 1.546-2.926 1.482-4.61-.095-.689.633-1.718.317-2.612-.085-.241.158-.873.27-1.322.275-.927.076-1.936.044-2.807-.18-.665.463-1.396.227-1.955-.218-.515.121-1.115.116-1.604.18-1.105-.314-2.359.144-3.374.855-.821.232-.728-.001-1.12-.784-1.176.168-3.474-.238-4.856-.183-.956-.073-2.08-.011-3.11.739-5.121-2.728-3.966-1.254-7.708.876-.28 1.74.41 2.577.487-.046 2.264.785 3.872 1.202 5.84-.19.781-.48 1.575-.148 2.236.245 2.215.141 4.729.26 7.053.027.831.172 1.648-.253 2.588-.215 1.733.082 3.504-.052 5.303.448.604-.322 1.62-.12 2.207.234.677-.025 1.331-.234 1.958-.312.94.164 1.632-.234 2.604-.255.624.246 1.099-.078 1.895-.257.633-.381 1.358-.549 1.985.63 2.777.465-.116 3.32 1.26.83-.95.844-.574 1.302.202 1.12-1.235 1.882.923 3.052-.478 1.49.08 2.865 1.347 4.43.669 1.214-.714 1.485 1.137 2.467 1.09 1.011-1.414 1.9-1.029 2.845-.66.464.164.941-.724 1.445-.417.441.268.976.677 1.606-.226.454.286 1.139-.135 1.394.805.158.58.64.724 1.064.26.516-.565.813-.03 1.247-.197.7-1.175.86-2.908 1.323-4.297-.404-1.04.251-2.18.437-3.279.021-2.245-.296-3.88.414-6.337l-.5-1.058c.187-1.343.83-2.404.377-3.287.657-1.637-.006-2.868.306-4.492.31-4.17.377-8.683-.378-12.277-.566-2.639-.247-6.215-1.766-8.038-.339-.316-.256-1.273-.788-1.525-.52-.247-1.006.928-1.444.46-1.088 1.212-2.008-.533-3.193.442-.036-.806.33-1.565.513-2.32l1.467-1.46c.58.09 1.116.596 1.818-.253l2.383.693c.176 1.151 1.175.9 1.378 2.162.492 2.441 1.217 4.801 1.892 7.066.515 2.233-.276 5.26.446 7.338.09.15.054.697-.057.916-.456.892.09 1.394-.105 2.264-.173.767.585 1.276.166 2.402-.334.9.319 1.63-.265 2.585l.347 1.92c-.346.919-.508 2.127-.394 3.076.09 1.578-.454 3.164-.065 4.692.012.296-.064.687-.176.99-.461 1.25-.03 2.362-.432 3.592.449.602-.34 1.63-.119 2.203.22.566-.179 1.354.079 1.875-.12 1.352-.591 2.821-.332 4.148.153 1.318.861 1.098 1.227-.161 2.372.05 4.673 1.235 7.056 1.682 3.261-3.695 2.747.226 3.695-.75.686-.7 1.079.004 1.62-.034.299 1.515 1.497.866 2.304 1.343-.399 1.797.68 2.209-1.024 3.431-1.171-.12-2.25-1.112-3.566-.528-.674.495-1.203-.114-1.81-.171-.573 1.105-1.07.098-1.634.578-1.325 1.334-1.749-1.661-2.879-.659-1.665 1.524-2.886-.693-4.264.678-.291-.17-.717.067-.895-.46-.063-.189-.01-.781-.362-.302-.487.85.175 1.544-.295 2.539-.76 1.524-.07 2.525-.634 3.963.355.646.09 1.49-.192 2.235-.297.786.174 1.165-.047 1.91-.188.635-.523 1.307-.35 1.992.195.909-.482 2.058-.548 3.002-.052.627.196 1.166-.103 1.905-.285.703.253 1.109-.067 1.904-.51 1.552-.845 3.239-1.311 4.83.391 1.605.391 1.605.07 3.084.829.95 2.22.714 3.267 1.184.517-.67.974-.246 1.425-.44.59-.252.3 1.668 1.068.54 1.074-.19 1.918 1.013 3.038.044.022-.027.141.194.211.308.85 1.612 2.392-.07 3.468.537.595.034 1.092.659 1.841-.217.168-.195.711-.042.751.208.141.876.647.835 1.067 1.035.296 1.825 2.582-.093-.493 3.964-1.009 1.04-.964-1.237-1.681-.368-1.57.511-2.739-1.548-4.437-.238-.639-.17-1.417-.186-1.988-.575-.553-.397-1.129.468-1.642.344-1.431-.061-2.7-1.417-4.246-.521-.328.273-.753.034-1.007-.55-.86-1.704-2.467 1.12-1.984 2.784-.172.888-.652 1.818-.25 2.589-.327.826-.328 1.755-.953 2.531-.576.716-.637 1.939-.922 2.922l.406 1.5-1.332 4.969.86 1.752c.133-.017.469-.637.918-.98 1.723.196 3.318 1.517 5.183.954.668-.492 1.194.173 1.814.15.246-.009.614-.822.8-.468.829 1.582 2.335 1.062 3.48 1.644.395 1.191 1.317 1.004 2.053 1.307 1.098 1.132 1.896 2.568 2.301 4.666l-.554 2.068c-2.087 2.296-1.423-.715-2.517-1.03-.123-1.824-1.179-1.723-2.064-2.125-.131-.527-.339-1.573-.738-1.558-.798.809-1.366.151-2.04.206-1.16.651-2.159.056-3.218-.162-.288-1.903-.875-.071-1.684-.447-1.015-.082-1.94-.977-3.024-.468-1.152 1.146-.948-.934-1.936-.793-1.355 4.787-1.845 9.284-3.32 14.037-.411 2.013-1.472 3.986-1.2 6.043l-1.814 6.772c-.505.311-.992.225-1.052-.104-.16-.866-.716-.701-1.088-1.037-.138-.548.169-1.119.319-1.653.287-1.02-.165-1.843.322-2.958 1.753-5.221 2.377-10.52 3.8-15.708.171-.765.627-1.588.258-2.271.225-1.013.453-2.029.728-3.247m-110.16-34.606c1.419-.159 2.482 1.258 4.069.28.672-.126 1.537.385 2.191.566.425.339.832-.564 1.234-.443 1.202.114 2.352 1.16 3.61.677 1.092-.702 1.855.449 2.824.218.585-.041 1.612-1.436 1.737-.274.842.128 1.515 1.164 2.581.092.469.109.935.226 1.406.324.456.095.95-.75 1.437-.392.398.294.984.14 1.373.447.495.39 1.008-.936 1.44-.429 1.556-2.317 2.121-5.57 2.859-8.408.324-1.42 1.217-2.88.745-4.308L5.92 53.91c.695-.24 1.521-3.538 1.427-4.41-.881.041-.266-1.422-.041-2.377.102-.42-.247-.982-.403-.717-.616 1.05-1.103.002-1.645.563-1.16.748-2.126-.344-3.183-.394-.584.88-.712-.04-1.117-.285-.325-.253-.883.062-1.004-.688-.078-.482-.278-.082-.454-.032-.581.166-1.115.564-1.65 1.135-1.213.55-.286-2.157-2.282.259l-1.336-.358.086-1.409c-.251.234-.546.641-.635.57-1.658-.301-3.67 1.93-5.283.834-1.083-.577-2.364 1.275-3.458.592-.78-.58-2.154.094-2.475-1.398-.212-.716-1.209 1.052-1.373 1.04-1.612-.257-2.856-1.295-4.492.23-.615.09-1.208-.177-1.81-.22-1.168 1.24-1.701-.906-2.937.884-.359 1.575-1.046 3.433-1.323 5.034-.103 1.122-.88 1.46-1.094 2.374-.615 1.98-.862 4.243-1.972 5.844-.242 3.917-2.074 7.92-2.611 11.938.232.062.548.35.74.162.72-.705 1.247-.325 1.835-.22.328.06.776.307.987.04.665-.842 1.245.458 1.857-.754l3.612.968c.32-.368.586-.758.781.002.088.346.556.326.796.445zm65.805-22.879-1.998 7.456c-1.402 1.417-.968 4.077-2.283 5.473-.21.288-.448 1.081-.37 1.295.316 2.198-1.07 4.745-1.497 7.114.069.262.17.513.186.823-.66.759-.668.756-1.21 3.135l.416 2.17c1.261-1.177 2.321.206 3.513.184.483.101.432 1.227 1.048.876.284-.175.55-.548.832-.79.399-.344.842-.082 1.226-.718.042 1.05.999.966 1.516 1.161.787-.056.765-.933 1.285.306.705-.137 1.441-1.012 1.78.258.078.209.408.393.469.305.41-.597.84-.322 1.244-.685 1.156-1.134.953.897 1.672.382.71-.256 1.251-.306 1.48.314.31.838.924.58 1.383.858.846-1.061 1.489-.19 2.22-.14.275.158.538-.147.82-.288.616-.298 1.191.425 1.826-.31.16-.123.472-.084.534.09.47 1.309 1.495.897 2.323 1.092.974-1.02 1.7.12 2.643.11.532-1.367.548-2.925 1.492-3.86.146-.144.307-.754.266-.99-.218-1.248.563-3.038-.237-3.855l1.879-7.01-.416-1.672c.163-.92.734-1.831.378-2.665.18-.791.338-1.588.542-2.373.234-.898-.239-1.592.239-2.6.664-1.36.611-2.844.447-4.133-.812-.217-1.642-.342-2.404-.679-.491-.217-.958.821-1.448.43-.388-.31-.92-.288-1.387-.414-1.655.987-2.998-.171-4.357-.57-.148-.221-.113-.884-.527-.305-.324.451-.621-.066-.997.532-.944 1.848-.99.025-1.123-.793-.264-.07-.336-.14-.396-.098-1.49 1.183-2.853.858-4.13.368l-1.173 1.167c-.635-.328-1.632-.099-2.076-.79l.311-2.018c-.709.845-1.255 1.181-1.94 1.458-.618.588-1.027-.37-1.64.572-.312-1.003-.982-.915-1.535-.997-.33.332-.538.538-.826.824m-7.911-1.708c-.39.489-.846.292-1.195.669-.514.555-.832-.042-1.223.204-.359.225-.672.578-1.028.4-.804-.012-.892-1.365-1.858-1.1-1.156 1.02-1.977-.662-3.243.435-1.91-.123-3.798-1.757-5.826-.817-.553-.054-1.121-.142-1.596-.441-.536-.339-1.11.582-1.643.364-.55-.225-1.113-.566-1.826.196-1.139-.641.074-3.027-2.882-.012-.666-.124-1.222-.415-1.89-.384-1.488 5.556-2.927 10.958-4.39 16.352-.233.86-.279 1.926-1.03 2.404l.156.893c-.418 2.07-1.49 4.513-1.571 6.505l4.493 1.204c1.422-2.107 1.996.11 3.314-1.244.078-.1.364-.025.378.092.076 1.173 2.244 1.67 2.892.759.65.104 1.343.504 2 .45 1.326-1.088 2.407.303 3.634.316 1.126.12 3.07-1.883 3.734-.098-.748.795-.388.882-.162 1.763l.846-.842-.214-.932c1.064-.545.712 1.865 1.92.27.386.417.829-.641 1.223-.415.404.23.995-.047 1.145.873.17 1.011 1.268-1.012 1.437-.007.123.786.574.678.58.68l1.736-1.109c.524-1.248.495-2.353 1.254-2.817l1.13-4.119c-.456-1.33.551-3.117.818-4.656.701-1.935.731-4.425 1.981-5.869.176-.145.414-1.069.331-1.291-.376-.944 1.049-6.086 1.762-6.826.805-1.788-.255-1.143-1.011-.794-.478-.065-.934-.23-1.686-.43l-.777 1.21-1.31-.351zm34.166 31.37.473 1.588c.875.186.875.186 1.429-.964.666-.07 1.275.108 1.641.922.523-.895 1.01.069 1.405-.44.59-.759.97.115 1.435-.379 1.59-.845 2.927.587 4.426.666l1.216-1.156c1.903.197 3.61 1.699 5.653.773.23-.289 1.23.574 1.663.42 1.316-1.19 2.035.456 3.34-.1.441-2.203 1.537-4.375 1.377-6.627-.067-.509.387-1.354.5-2.042.102-.632.021-1.256.103-1.893.124-.979.802-2.02.372-2.936.206-.801.418-1.602.616-2.405.192-.775-.266-1.375.162-2.244.145-.292.324-.919.266-.99-.586-.72.43-2.035.034-2.854-.232-.48.45-1.314.203-1.922-.251-.943.453-2.21.622-3.211-.373-1.187-.373-1.187-1.52-1.468-.846.855-1.852 1.801-2.21.235-.057-.27-.46-.288-.729-.31-.668-.051-1.199-.685-2.014-.15-.844.554-1.452-.263-2.213-.227-1.083 1.053-1.043.374-1.1-1.026-.383-.545-1.1.197-1.597.246-.75-.065-1.456-.416-2.21-.503-.564.969-1.058.126-1.635.578-.668.521-1.273.351-1.601-.448-.156-.378-.295-.19-.466.011-.34.404-.66-.018-1.035.479-.283.374-.626.896-1.167.7.234-1.108-.792-.545-.833-1.556-.685-.616-1.566 1.379-2.022-.626-.096-.346-.58-.19-.713.273-.403 1.324-.935.3-1.744 1.618-.716 1.513-.233 2.732-.69 4.203-.258.78-.409 1.489-.216 2.274.106.436-.39 1.217-.202 1.933.018 1.518-.899 3.441-1.192 5.084.47.88-.437 2.093-.288 2.883.225 1.193-.347 2.226-.54 3.325.288 2.106-.914 4.404-1.315 6.514.654 2.033.344 4.137 2.316 1.752M-.227 76.845c-.968 1.13-1.194.395-1.917.513-1.534.894-2.68-.237-4.034-.384-2.218-1.048-2.735 1.471-5.45.022-1.4 1.527-2.293-.981-3.659.475-.068.082-.308-.226-.448-.392-.085-.102-.17-.419-.187-.401-.988 1.004-1.624.005-2.425-.021-1.428-.67-2.975.235-4.437-.278-.65.857-1.088.166-1.752.157l-.992 1.195c-.671-.255-1.37-.111-1.583-1.162-.023-.113-.303-.15-.38-.046-.999 1.064-1.895-.103-2.832-.09-.852.792-1.51.282-2.225.15-.549.412-1.002.821-1.405.32-.483-.421-.995.797-1.442.402-.424-.375-.823.312-1.306.742-.255 2.15-5.991 19.519-4.3 18.451 1.407-1.59 1.549 1.123 2.865.737.772-.864 1.65-1.66 2.033-.38.091.24.1.306.29.117.808-.857 1.39.42 2.243-.628.39-.136.541 1.389 1.037.86 1.01-.878 1.908.073 2.825.163 1.847-.738 4.127-1.367 5.412.453.068.286.105.32.302.059.446-.59.965-.224 1.442-.913 1.15-1.706.85 1.731 2.103-.098 4.318 1.198 8.948.341 13.234 2.064.718-1.063 1.412-2.144 1.588-3.585.105-.86.716-.98.894-1.678.295-.816.359-2.073.852-2.622.436-.289.32-.592.237-1.008-.02-1.257 1.006-1.245 1.22-3.66-.235-2.395 1.591-6.373 2.197-9.534m19.137 1.663c-.846-.778-1.747.435-2.6.053-1.718-.256-3.406-1.558-5.226-.674-.752-.063-1.378-.695-2.226-.095-.668.418-1.58-.532-2.192-.224-1.495 1.003-2.498-.75-4.063.43-2.07 3.663-2.74 8.707-4.004 12.95-.154 1.056-.928 1.36-1.106 2.37-.162.92-.483 1.838-.719 2.761-.225.883.23 1.605-.246 2.6-.174.365.172.839.48.578 1.193-1.245 1.999.799 3.251-.538.048-.049.142.005.197.05.778 1.967.707.009 2.077.534 1.128-.988 2.362-.004 3.41.225.44.296.83-.588 1.237-.454.59.195 1.197.33 1.784.487.279 1.65.664.482 1.478.431.55 1.411 1.614-.45 2.51-.126 1.248.189 2.457 1.184 3.813.6 2.049-1.032.924 2.586 3.196-.182.904.411 1.96.086 2.514 1.082.184.574.481.594.855.117.573-.729 1.105-.948 1.634-.599l.8-.797.974-2.997c.704-.568.68-1.629.98-2.47-.46-1.165.33-2.406.545-3.611 1.56-2.035 2.131-7.388 3.17-10.255l-.32-1.188-1.266-.339c-1.687 1.971-1.256 1.087-2.045-.439-.922.8-1.806.122-2.555-.252-.168-1.006-.877-.65-1.344-.915l-1.216 1.16c-.423-.114-.862-.123-1.215-.354-.502-.245-1.26 1.166-1.45.013-.014-.331.375-.87-.04-1zm15.814 2.014c-1.245.655-.92 2.544-2 3.566-.177.137-.436 1.075-.356 1.29.321.858-.026 1.76-.306 2.616-.419 1.28-.416 2.841-1.424 3.76-.485 2.342-1.618 4.93-1.725 7.171.394.909-.414 1.267-.623 1.875.887.841 2.241.653 3.528 1.179.484-1.581.415 1.122 1.278-.056 1.158-1.783 1.888.391 3.057-1.006 1.772.28.072 1.927 2.688.359 1.027-1.029 1.313 1.609 2.255.737.672-.81 1.244.449 1.857-.756.448.224.91.269 1.424-.36.929.437 2.19.151 2.88 1.118-.12.531-.702 2.022.007 1.517.954-3.101 2.32-.069 3.658-1.598l.272.826c.202-.407.39-.787.58-1.166.852-.386 1.783.65 2.605.402 1.7-1.222 2.874 1.14 4.655-.57 1.71-5.614 2.277-11.03 4.03-16.65-.407-2.298-1.51-.808-2.736-.47-.525-1.854-2.61-.215-3.07-2.336l-1.333 1.269c-1.569-.364-2.958-1.188-4.65-.475-.73-.379-1.61-.386-2.4-.601l-1.037 1.032c-.51-.429-.162-1.505-.337-2.255-.666 1.044-1.446 1.127-2.188 1.557l-.382-1.413c-1.217 1.322-1.253-.35-2.04-.533-.541.751-.967.226-1.44.405-.797.4-1.737 1.417-2.339.523-.336-.814-2.017-1.537-2.783-.526zm54.607 4.256c-.731-.265-2-.382-2.77-.778-.487-.3-.982.422-1.43.373-.551-.06-1.072-.266-1.606-.41-.601-.16-1.226-.25-1.796-.503-.529-.236-1.12.742-1.636.344-.659-.507-1.47-.044-2.219.48-1.304 1.205-1.146-1.83-2.284-.303l-1.605-.35c-1.314 1.415-2.367-.76-3.623.039-.935.776-1.467-.487-2.23.124-.914.687-1.496.352-1.878-.734-.62-.585-1.25 1.807-.782 2.37-.247.92-.47 1.848-.746 2.757-.307 1.015.11 1.814-.316 2.947-.578 1.687-1.091 3.766-1.472 5.472.705 1.268-2.364 7.058.185 4.867.453.121.974.115 1.374.405.485.354.977-.459 1.434-.391.653.096 1.24.659 2.023-.202.287.172.723-.049.847.556.378 1.515 1.763-1.42 2.116.956l1.21-1.151 1.591.426c1.351-1.218 2.394.243 3.625.246 1.913-1.462 3.173 1.377 5.046-.13.734.197 1.46.429 2.21.563 2.015-1.82 1.215 2.239 3.009-.388.425-2.199 1.588-4.27 1.307-6.447.247-.92.536-1.835.727-2.76.178-.862-.171-1.597.255-2.595.312-.73.455-1.594.665-2.4.202-.78-.206-1.342.145-2.252.355-1.474-.41-1.892-1.376-1.13"/></svg>