<svg width="115" height="139" viewBox="0 0 115 139" fill="none" xmlns="http://www.w3.org/2000/svg">
<path d="M86.7215 107.073C84.5316 108.093 82.7776 106.341 80.7232 106.259C79.9159 107.186 79.3656 106.397 78.6985 106.387C76.9914 107.914 75.8759 105.117 74.2454 106.619C73.2234 106.665 72.2895 105.459 71.2009 106.564C70.6683 106.746 70.6521 104.981 69.9526 105.824C69.1632 106.649 68.4198 107.412 67.9937 105.87C67.9172 105.593 67.4575 105.411 67.2706 105.586C66.3756 106.425 65.7674 105.71 65.0308 105.706C64.495 105.703 64.0962 105.04 63.4094 105.708C62.8803 106.222 62.442 105.367 62.0137 105.692C61.5812 106.02 61.1754 105.991 60.7219 106.367C59.6093 109.903 59.109 113.83 57.5907 117.143C56.8811 118.132 56.8458 119.564 56.4328 120.768C55.8258 121.161 55.655 121.989 55.4507 122.783C53.6707 124.811 54.0495 129.288 52.38 131.454C51.8913 132.44 51.6261 133.958 51.2417 135.085C50.2349 135.947 50.5806 137.744 49.4396 138.438C48.9151 137.79 48.0768 137.174 48.5665 135.639C49.1174 133.968 49.2593 132.259 50.2581 130.793C50.7973 130.035 50.6395 128.523 51.4854 127.697C52.1096 126.113 52.5556 123.982 53.0028 122.253C53.2135 121.266 53.9526 120.933 54.1102 119.882C55.0543 114.91 57.623 110.417 58.2382 105.382C57.4657 106.303 56.791 105.526 56.0638 105.51C55.4541 106.282 54.9088 106.062 54.4515 105.782C53.9134 105.453 53.3355 106.365 52.8075 106.141C51.0904 105.37 49.2136 105.337 47.3777 105.519C46.4841 106.336 46.8999 105.087 46.3051 105.137C44.5237 106.606 43.4087 103.623 41.6272 106.09C39.8473 105.967 38.1059 104.234 36.199 105.502C34.9927 106.387 34.0538 105.276 32.9533 105.262C32.6306 105.199 32.2596 106.048 31.9415 105.701C31.2441 103.769 29.5953 104.683 28.2335 105.452C27.9612 105.511 27.5943 105.072 27.4565 105.549C27.2334 106.321 26.6804 106.509 26.5175 107.178C26.3322 107.937 25.8906 108.73 26.1643 109.487C25.5744 114.952 22.1796 120.093 21.9039 125.502C21.9996 126.295 21.6405 127.021 21.1212 127.528C20.6369 128.002 20.1619 128.043 19.8647 127.352C17.5009 125.301 22.1931 117.93 21.5731 114.342C21.9853 113.304 21.8744 111.972 22.7498 111.17C23.433 109.587 23.8411 107.213 24.3044 105.755C24.1976 105.1 24.1332 104.705 24.0689 104.31C23.4091 105.184 22.8301 104.596 22.1779 104.67C21.6348 105.453 21.2066 105.044 20.7575 104.938C20.0157 104.762 19.2214 104.713 18.565 104.306C17.9039 103.896 17.1663 104.785 16.5143 104.574C16.0218 104.414 15.5301 103.907 14.8973 104.814C12.7549 104.343 10.5919 103.649 8.48179 103.15C7.65796 104.434 7.04085 102.801 6.22361 103.783C5.08509 104.912 5.26052 101.792 4.15214 103.334C3.07139 103.093 1.35277 104.572 0.826724 102.627C0.800951 102.439 0.467149 102.454 0.264031 102.423C-1.40368 103.48 -2.85257 101.47 -4.58192 102.91C-4.75508 104.313 -6.07491 105.131 -5.8806 106.564C-5.51838 107.733 -6.34574 108.562 -6.82385 109.528C-7.26569 110.806 -7.31129 112.328 -8.26818 113.279C-9.24875 116.3 -9.52271 119.489 -11.0682 122.264C-11.7195 123.257 -11.4654 125.085 -12.51 126C-13.1418 128.295 -13.7739 130.589 -14.3835 132.89C-15.9425 135.149 -16.287 132.511 -16.7442 130.547C-16.437 129.743 -16.4935 128.323 -15.5456 127.489C-15.1196 126.181 -14.802 124.724 -14.4145 123.37C-12.7565 121.496 -13.037 117.473 -11.4633 115.507C-10.565 113.135 -10.5688 110.263 -9.08594 108.302C-8.5332 106.239 -7.98045 104.176 -7.43197 102.129C-8.31672 101.607 -8.31462 101.595 -9.16793 101.887C-9.91541 102.238 -10.6494 101.59 -11.3829 101.55C-13.1131 103.16 -14.3994 100.113 -16.2383 101.701C-16.9082 101.561 -17.5784 101.422 -18.2488 101.282C-19.6583 102.792 -23.055 99.3269 -24.5116 100.899C-25.4714 101.071 -26.3008 99.8599 -27.3359 100.665C-27.7981 101.185 -28.1455 100.672 -28.5371 100.609C-28.9528 100.543 -29.3377 101.367 -29.7775 101.073C-30.9225 100.861 -32.1339 99.8517 -33.4034 100.591C-34.5431 101.141 -35.6802 99.2846 -36.8262 100.496C-37.357 100.513 -37.888 100.028 -38.4443 100.591C-38.8823 101.028 -39.1158 100.853 -39.2558 100.292C-39.4865 99.3665 -39.9324 100.07 -40.3306 100.433C-40.7324 100.326 -41.1337 100.218 -41.5365 100.11C-42.0192 100.592 -42.5032 101.075 -42.9891 101.559C-43.6078 104.912 -44.8491 103.658 -43.8991 106.519C-44.3223 107.73 -44.4534 109.59 -45.3179 110.516C-45.5288 110.763 -45.6684 111.37 -45.7313 111.807C-45.8075 112.336 -45.4516 112.694 -45.7267 113.362C-45.9103 113.807 -45.9111 114.208 -45.8168 114.643C-45.6808 115.272 -45.8725 116.051 -46.2964 116.478C-46.9819 117.168 -46.9183 118.166 -47.2252 119.001C-46.8127 119.78 -47.2291 120.779 -47.534 121.58C-47.9159 122.584 -47.4033 123.213 -47.7476 124.195C-48.0341 125.013 -48.4834 125.987 -48.0959 126.793C-48.5772 128.378 -48.6344 130.641 -49.9547 131.175C-50.285 131.348 -50.3712 130.831 -50.4591 130.446C-50.7689 129.809 -50.087 128.75 -50.8668 128.716C-50.9483 128.703 -51.0295 128.379 -50.9925 128.217C-50.7649 127.217 -50.3237 126.201 -50.6417 125.275C-50.0907 123.039 -49.2784 120.732 -49.2602 118.548C-48.8656 116.002 -47.2465 113.084 -47.5929 110.762C-47.2936 109.613 -46.994 108.464 -46.6947 107.315C-47.1221 105.379 -45.7813 103.053 -45.4119 100.921C-45.6127 100.114 -46.2401 100.478 -46.6432 100.226C-47.9441 101.408 -48.9017 99.9674 -50.0804 100.085C-51.4367 101.072 -52.6364 99.8397 -53.9618 99.7474C-54.8551 100.719 -55.2104 101.337 -55.8197 100.151C-56.573 100.818 -57.3135 100.387 -58.035 100.299C-58.5959 101.092 -58.9975 100.538 -59.4532 100.49C-59.9206 100.441 -60.4133 101.272 -60.8926 100.889C-61.2256 100.623 -61.6877 100.661 -62.0824 100.531C-62.4848 100.397 -62.9171 101.372 -63.3089 100.952C-63.7341 100.496 -64.2636 101.769 -64.7479 101.345C-65.053 101.077 -65.4738 101.22 -65.9571 101.497C-66.4698 101.79 -67.0104 101.215 -67.5656 101.346C-69.1668 102.161 -70.3614 101.066 -71.9191 100.865C-72.2223 101.237 -72.6106 101.713 -72.9105 102.08C-73.7082 101.866 -74.3771 101.687 -75.0515 101.506C-75.3924 101.851 -75.7368 102.199 -76.2123 102.68C-77.9358 101.604 -80.248 103.751 -81.2459 100.632C-81.7468 98.9018 -78.7482 97.4087 -78.0124 97.7318C-77.2179 98.5447 -76.2722 97.4539 -75.3837 97.6954C-75.0099 97.8836 -74.5865 97.9272 -74.1848 98.0348C-73.4007 97.1738 -72.8162 97.7601 -72.1546 97.8176C-71.5555 97.5586 -70.9261 97.2488 -70.3065 96.9062C-69.1872 96.6504 -68.0654 98.1583 -66.8991 97.4286C-66.3962 96.8692 -66.0908 97.5067 -65.6763 97.2329C-64.7418 96.2572 -63.9426 97.454 -63.0415 97.272C-62.4488 97.2548 -61.7772 96.6645 -61.2205 97.0555C-60.8392 97.3228 -60.4188 96.3223 -59.9881 96.6205C-59.6403 96.8613 -59.1961 96.8628 -58.7945 96.9704C-57.9375 95.6889 -57.2202 97.3922 -56.3296 96.1805C-56.2 96.0047 -55.6573 96.1711 -55.602 96.4374C-55.236 98.1209 -54.4872 96.6402 -53.7992 96.0849C-53.1757 96.1532 -52.2833 96.7521 -51.65 96.4059C-50.6941 95.7282 -50.0566 96.5462 -49.2088 96.5508C-48.7907 96.2428 -48.4002 95.6787 -48.1294 96.4149C-47.854 97.4707 -46.8425 95.1198 -46.4166 97.2184C-45.5666 96.9432 -44.9302 95.0713 -44.0232 95.7395C-43.2117 92.7112 -42.502 89.9457 -41.7214 87.2031C-41.3842 86.0185 -41.3575 84.5856 -40.4052 83.7724C-40.0917 82.6258 -39.7667 81.4817 -39.4765 80.3299C-39.6838 79.5081 -39.6409 78.3576 -38.8801 77.6612C-38.4785 77.1676 -38.3983 76.0431 -39.008 76.7993C-41.243 78.2428 -42.817 77.59 -44.6773 77.0495C-45.1212 76.9544 -45.532 76.4703 -46.102 77.2479C-46.912 77.3959 -47.7195 76.8605 -48.5076 76.7509C-49.2875 77.5802 -49.8915 77.1073 -50.5328 76.9434C-50.9949 76.8252 -51.4858 77.7013 -51.9724 77.3427C-52.3714 77.049 -52.8951 77.0574 -53.3638 76.9318C-53.9416 78.0377 -54.437 77.0178 -54.9971 77.4881C-55.191 77.6508 -55.4876 77.8829 -55.5957 77.7819C-56.0568 77.3512 -56.5958 78.3665 -57.0303 78.1603C-57.7242 77.8319 -58.4708 77.9463 -59.2613 78.3158C-59.9027 77.687 -60.8271 78.9549 -61.4886 78.4604C-61.9954 79.0023 -62.4673 79.0813 -62.9131 78.82C-63.9782 79.9951 -64.9386 78.7365 -65.9382 78.7508C-66.9932 80.0927 -68.0927 79.7476 -69.633 80.7034C-69.7393 80.7459 -69.9463 80.5468 -69.9306 80.4551C-69.6944 79.0482 -70.2531 78.2769 -70.4448 77.2208C-69.872 76.4672 -69.498 75.5451 -68.8651 75.0698C-68.3192 75.5555 -67.6187 74.596 -67.0373 74.7501C-65.9975 75.3177 -64.944 74.8881 -63.7764 74.2099C-63.4312 73.9465 -62.9558 74.2754 -62.59 74.4812C-62.1211 74.7448 -61.6329 73.6762 -61.1425 74.0653C-60.3513 74.51 -59.251 74.5205 -58.4325 74.8329C-57.9993 74.4018 -57.6534 74.0573 -57.2589 73.6652C-56.4116 73.7282 -55.6493 74.5893 -54.6627 73.686C-54.3445 73.3659 -53.9607 74.0671 -53.4522 73.4535C-52.9908 72.8965 -52.5593 73.9221 -52.0257 73.0427C-51.5897 73.4439 -51.3074 74.4057 -50.5671 73.584C-49.9993 73.0442 -49.4955 73.9591 -48.9311 72.9858C-48.0881 72.9494 -47.4221 73.8528 -46.504 73.1253C-45.5908 72.6059 -44.7699 73.5088 -43.8916 73.5403C-43.0791 72.4723 -42.5391 73.3981 -41.8632 73.3288C-40.9539 72.6796 -39.955 73.1232 -39.1905 73.3173C-38.5789 72.7086 -38.0992 72.2315 -37.5859 71.7208C-36.7937 69.4542 -36.5752 66.4168 -35.325 64.4687C-35.1146 64.2481 -34.8505 63.4935 -34.9032 63.2313C-35.1754 61.8755 -34.5254 60.5625 -34.2413 59.2365C-32.9378 57.1988 -32.696 54.673 -31.9747 52.3686C-31.7338 51.5987 -31.0899 51.3126 -30.9772 50.3409C-30.7038 49.0512 -29.6978 46.1795 -31.4359 47.9696C-31.7898 46.1843 -32.1031 45.8466 -33.3762 47.364C-34.0313 47.4064 -34.6743 46.8929 -35.3299 46.9755C-35.7933 47.0489 -36.3099 47.6376 -36.749 47.2895C-37.8098 48.6026 -38.596 46.6408 -39.5966 47.9751C-39.8531 46.6394 -40.8155 47.1274 -41.4441 46.7706C-41.8 47.1248 -42.146 47.4691 -42.6188 47.9396C-43.7467 47.1816 -45.108 48.8898 -46.3613 48.4671C-46.9102 48.273 -47.4226 47.8104 -48.1703 48.3594C-48.8465 48.8559 -49.3736 48.2453 -49.9806 48.1905C-51.0661 49.4714 -51.6853 47.9375 -52.9099 48.5442C-52.7481 48.3832 -52.8862 48.5205 -53.0516 48.6851C-53.7362 47.4992 -53.9777 48.0793 -54.9132 49.0156C-55.4884 49.2236 -55.8841 48.349 -56.5433 49.1113C-57.0381 49.6837 -57.4474 48.6743 -57.9675 49.5192C-59.2114 49.4476 -60.4559 50.8642 -61.6269 50.2672C-61.9605 50.2499 -62.4164 51.1642 -62.6199 50.6897C-62.9793 50.032 -63.5277 49.7255 -63.6339 48.7247C-62.7838 47.1882 -61.5876 47.3146 -60.6578 46.1338C-60.2994 45.9733 -59.8257 46.6327 -59.4526 45.9118C-58.7153 44.6193 -57.9234 45.8011 -57.1935 44.7745C-55.9332 45.4727 -54.7032 44.2821 -53.3904 45.0522C-53.129 44.7039 -52.7514 44.2005 -52.4644 43.8182C-51.643 44.0383 -50.9769 44.2168 -50.3108 44.3953C-49.2236 43.1267 -48.6071 44.6616 -47.6854 44.2575C-47.0148 43.7379 -46.4255 43.8208 -45.8598 44.1183C-44.9025 44.0637 -43.907 42.7916 -43.0009 43.3722C-42.5864 43.6728 -42.0563 42.6285 -41.5685 42.9937C-40.8101 43.1969 -39.1016 44.2478 -38.3529 43.1882C-37.8217 43.7864 -37.0958 42.6413 -36.5258 42.8916C-34.8452 41.63 -33.1414 43.5158 -31.5314 43.4982C-30.8804 42.8865 -30.285 41.9686 -29.6432 42.522C-27.7975 41.2984 -27.7855 37.0919 -26.7757 34.6554C-26.5282 33.8044 -27.0418 33.3143 -26.6409 32.3926C-25.5816 29.7122 -25.4776 26.9746 -24.8758 24.2896C-25.3698 23.0555 -24.1515 21.5836 -24.7133 20.4732C-24.2259 18.654 -23.7319 16.8104 -23.2362 14.9605C-23.3645 14.4947 -23.4936 14.0258 -23.6727 13.3744C-23.31 12.2569 -22.7518 9.87704 -23.4706 9.33701C-23.7312 9.32907 -23.7846 9.04344 -23.6936 8.66082C-23.5151 7.78056 -22.2028 6.73237 -22.2048 7.8359C-22.5135 9.29662 -21.8738 10.4495 -22.427 11.9803C-21.9078 14.9088 -22.0871 18.0509 -22.8177 21.4529C-22.4129 24.987 -23.813 26.5169 -23.7942 29.6116C-23.6512 30.3969 -24.5039 31.5711 -24.1077 32.5355C-24.7489 35.4159 -25.7366 38.5458 -26.5056 41.615C-26.4356 41.959 -26.0732 42.8213 -25.833 42.7738C-24.6365 41.4539 -23.6719 43.4715 -22.604 42.6598C-21.9629 41.9461 -21.5227 43.0359 -20.945 42.1161C-19.3871 41.5708 -18.2013 43.6687 -16.5117 42.3351C-15.6286 42.6279 -14.5843 42.4786 -14.1178 43.8279C-13.4483 43.1031 -12.8472 42.4525 -12.3899 41.9574C-11.3119 42.001 -10.8061 42.9925 -9.7593 42.1462C-9.34362 41.6196 -9.01504 42.5126 -8.54656 41.9354C-8.35856 41.7036 -8.23949 41.626 -8.08776 41.959C-7.68236 42.9911 -6.83932 42.646 -6.06157 42.184C-5.38502 42.2756 -4.71724 42.4068 -4.04642 42.5247C-3.21719 41.6111 -2.66743 42.4083 -2.03575 42.5554C-1.48443 42.6839 -0.918709 41.8142 -0.386904 42.1741C0.0202132 42.4495 0.538018 42.447 1.00647 42.5685C1.90282 41.5077 2.50246 42.4114 3.23179 42.445C5.08887 41.8545 6.60948 43.1497 8.57959 42.1853C8.89492 41.0085 9.22642 39.7713 9.39487 39.1426C9.77117 38.2365 10.2834 38.2977 10.0843 37.6273C9.8928 36.9828 10.1091 36.1251 10.454 35.7617C11.2906 34.8807 11.2341 33.6275 11.6353 32.5856C11.3549 31.4041 11.85 29.1135 12.7788 28.3179C12.9538 27.2073 13.5483 26.1979 13.4099 24.958C13.2931 23.9151 13.7341 23.0082 14.4887 21.5318C14.6832 21.1514 14.9589 20.5458 14.9132 20.2702C14.6801 18.7659 16.4639 11.0534 17.1021 15.3966C16.89 16.5647 16.0963 18.022 16.5745 18.9721C16.277 19.6269 16.6115 20.014 16.566 20.5268C16.1233 22.1225 15.9282 24.1472 14.8801 25.3326C14.5663 28.3319 13.6347 31.6386 12.7688 34.8136C13.1671 36.9337 12.061 37.0307 11.6159 39.0832C12.4746 41.0537 9.96403 42.0584 10.9523 43.0163C11.3441 43.115 11.7341 43.5136 12.0958 42.5893C14.4302 43.4294 16.753 42.7008 19.0223 43.6903C20.1923 42.9735 21.2369 42.478 22.2723 43.0767C22.8595 43.1376 23.3583 43.7889 24.1017 42.9522C25.5093 42.6527 26.8788 44.5188 28.341 43.3047C28.4208 43.2035 28.7786 43.3965 28.8072 43.6022C28.92 44.4124 29.4321 44.1817 29.7852 44.3621C31.0866 43.1305 32.382 44.6112 33.6124 44.6706C34.1452 44.8742 34.724 43.756 35.265 44.3006C39.7367 45.9313 40.941 45.7681 43.0599 37.378C42.5191 34.744 45.6416 29.1753 45.1032 26.6589C45.4634 25.4782 45.4524 24.0738 46.4035 23.2382C46.4972 23.1554 46.6205 22.6385 46.5841 22.5958C45.9917 21.8961 47.0505 20.5058 46.5917 19.7738C46.4249 15.675 46.5565 10.3529 44.8049 7.76511C44.5214 7.38262 44.1267 7.27687 44.4473 6.36598C44.4711 6.298 44.4107 6.09222 44.3763 6.10003C43.6493 6.26172 43.5433 5.03218 42.9499 4.90441C42.6868 4.84811 42.365 4.86065 42.4845 4.21037C43.1278 2.26092 44.3036 3.05844 45.0804 3.25183C45.2471 5.50066 47.4016 5.4365 47.1963 7.37109C46.8432 9.22519 48.3384 8.94804 47.7516 10.2315C47.9741 11.2918 48.4176 12.1401 48.2714 13.4644C48.2478 14.5945 49.2054 15.3534 48.5917 16.7704C48.3729 17.9164 49.2664 18.5185 48.6134 19.8642C48.439 24.2315 47.6373 29.0363 46.235 33.4923C45.9096 34.2912 46.3561 34.7134 46.1724 35.3987C45.3152 37.7013 45.2433 40.9357 43.8096 42.611C43.2392 43.9709 43.7343 44.8761 43.9646 46.0067C44.4372 45.1388 45.0012 45.735 45.442 45.0113C46.2315 45.1451 47.0723 45.0349 47.5075 45.999C47.968 45.3101 48.4081 45.5052 48.7104 45.7707C49.1956 46.1976 49.6859 44.9853 50.1636 45.3455C50.6287 45.5706 51.2183 45.9534 51.7699 45.3218C52.9204 44.828 52.1681 47.3142 54.0533 45.6788C55.6937 45.3202 57.1347 45.6603 58.694 46.0248C59.2544 45.2264 59.6616 45.7641 60.108 45.8462C60.4709 45.9889 60.6677 47.2853 61.1629 46.5666C62.03 45.9866 62.7713 45.7147 63.6162 46.012C64.0166 46.0296 64.3506 46.5357 64.8251 45.9976C65.7924 45.3486 66.6977 46.32 67.5661 46.3353C68.7458 45.4582 69.1123 43.409 69.0477 41.7251C68.9528 41.0361 69.6814 40.0069 69.3654 39.1134C69.2801 38.872 69.5233 38.2401 69.6357 37.7911C69.9105 36.864 69.7111 35.8546 69.6786 34.9843C69.4998 34.3193 70.1422 33.5878 69.906 33.0289C69.6884 32.5137 70.0272 31.9136 70.0223 31.4253C70.2024 30.3201 69.7076 29.0664 70.1664 28.0507C71.0208 27.23 70.3983 27.3227 70.165 26.9315C69.3809 25.7553 70.3335 23.4572 69.9275 22.0752C69.7444 21.1191 69.8545 19.9946 69.9157 18.9643C70.6545 13.844 67.1882 14.999 68.6619 11.2569C69.5379 10.9779 70.4025 11.6671 71.2393 11.7438C71.1932 14.0082 72.0236 15.6157 72.4413 17.5838C72.2503 18.3654 71.9617 19.1594 72.2928 19.8203C72.5379 22.0351 72.4341 24.5486 72.5537 26.8728C72.5798 27.704 72.7248 28.5211 72.2996 29.4607C72.085 31.1941 72.3818 32.9646 72.2481 34.764C72.6958 35.3676 71.9257 36.3845 72.1282 36.9706C72.3623 37.6481 72.1029 38.3023 71.8944 38.9293C71.5815 39.8684 72.058 40.5609 71.66 41.5333C71.4045 42.1573 71.9063 42.6318 71.5825 43.4283C71.3254 44.0605 71.2009 44.786 71.0331 45.4126C71.6636 48.1904 71.4984 45.2966 74.3535 46.6724C75.1835 45.7238 75.1969 46.0986 75.6552 46.8753C76.7744 45.6397 77.5369 47.7978 78.7072 46.3972C80.1965 46.4767 81.5715 47.7437 83.1375 47.066C84.3511 46.3524 84.6221 48.2034 85.6041 48.1561C86.6153 46.7417 87.5045 47.1275 88.4489 47.4952C88.9126 47.6604 89.3901 46.7723 89.8938 47.0786C90.3353 47.3474 90.8698 47.7562 91.5 46.8534C91.9541 47.1391 92.6389 46.7181 92.8945 47.6585C93.052 48.2371 93.5347 48.3817 93.9577 47.9189C94.4742 47.3529 94.7713 47.8889 95.2047 47.7206C95.9043 46.5463 96.0646 44.8126 96.5277 43.4239C96.1245 42.3849 96.7794 41.244 96.965 40.1454C96.9861 37.9004 96.6693 36.2647 97.3788 33.8085C97.2269 33.4873 97.0023 33.0116 96.8787 32.7498C97.0661 31.407 97.7084 30.3462 97.2564 29.4633C97.9126 27.8261 97.2503 26.5951 97.562 24.9705C97.8711 20.8018 97.9385 16.2878 97.1844 12.6941C96.6183 10.055 96.937 6.47908 95.4185 4.65592C95.079 4.33962 95.1619 3.38323 94.6298 3.1305C94.1105 2.88353 93.6235 4.05916 93.1862 3.59119C92.0985 4.80286 91.1778 3.05757 89.9934 4.0333C89.9568 3.22652 90.3239 2.46775 90.5055 1.71377C91.0003 1.22138 91.4835 0.740647 91.9731 0.253107C92.5524 0.342461 93.0894 0.849073 93.7909 -3.62691e-05C94.5853 0.230998 95.3797 0.462029 96.1742 0.693064C96.3496 1.84413 97.3487 1.59302 97.5517 2.85535C98.044 5.29643 98.7694 7.65632 99.444 9.92147C99.9592 12.1541 99.1683 15.1806 99.8896 17.259C99.9798 17.4097 99.9444 17.9565 99.8327 18.1753C99.3772 19.067 99.9232 19.5687 99.7276 20.4387C99.5549 21.2064 100.313 21.7149 99.8945 22.8408C99.5598 23.7405 100.213 24.4708 99.6292 25.4263C99.7353 26.0144 99.8416 26.6026 99.9756 27.3452C99.6297 28.2646 99.4684 29.4731 99.5817 30.4218C99.6717 32.0002 99.1277 33.5863 99.5173 35.1143C99.5291 35.4098 99.4533 35.801 99.3414 36.1042C98.88 37.3549 99.3118 38.4656 98.9085 39.6955C99.358 40.2984 98.5685 41.3261 98.7902 41.8986C99.0095 42.4654 98.611 43.2532 98.8688 43.7736C98.7496 45.1261 98.2779 46.5954 98.5365 47.922C98.69 49.2398 99.3983 49.0197 99.764 47.7605C102.136 47.8112 104.437 48.9962 106.82 49.4428C110.081 45.7483 109.567 49.6685 110.515 48.6925C111.201 47.9931 111.594 48.6967 112.135 48.6587C112.434 50.1739 113.632 49.5248 114.439 50.0016C114.04 51.7992 115.119 52.2108 113.415 53.4334C112.244 53.3126 111.165 52.3213 109.849 52.9047C109.175 53.4002 108.646 52.7912 108.039 52.7336C107.466 53.8392 106.969 52.8317 106.405 53.3125C105.08 54.6457 104.656 51.6507 103.526 52.6534C101.861 54.1769 100.64 51.9596 99.2618 53.3312C98.9707 53.1618 98.5452 53.3981 98.3672 52.8702C98.3041 52.6824 98.3563 52.0896 98.0049 52.5693C97.5175 53.419 98.1799 54.1131 97.7101 55.1077C96.9499 56.6319 97.6408 57.6333 97.0756 59.0707C97.4311 59.7171 97.1653 60.5615 96.8838 61.3057C96.5865 62.0917 97.0582 62.4707 96.8371 63.2158C96.6489 63.8506 96.3135 64.523 96.4875 65.2082C96.6824 66.117 96.0047 67.266 95.9388 68.2105C95.8866 68.8373 96.1346 69.3755 95.8355 70.1151C95.5513 70.8177 96.0889 71.224 95.7695 72.0188C95.259 73.5708 94.9243 75.2578 94.4577 76.8488C94.8492 78.4545 94.8493 78.4545 94.5281 79.9335C95.3569 80.8827 96.7487 80.6471 97.7954 81.1166C98.3118 80.4466 98.7689 80.8711 99.2199 80.6775C99.8098 80.4246 99.5205 82.3446 100.288 81.2169C101.362 81.0277 102.206 82.2296 103.326 81.2606C103.348 81.2341 103.467 81.4551 103.537 81.5685C104.387 83.1814 105.929 81.4989 107.005 82.1056C107.6 82.1396 108.097 82.7648 108.846 81.8893C109.014 81.6936 109.557 81.8465 109.597 82.0969C109.738 82.9729 110.244 82.932 110.664 83.1321C110.96 84.9575 113.246 83.0394 110.171 87.096C109.162 88.1369 109.207 85.8589 108.49 86.7284C106.92 87.2393 105.751 85.1799 104.053 86.4897C103.414 86.3196 102.636 86.3042 102.065 85.9151C101.512 85.5179 100.936 86.3834 100.423 86.2586C98.9919 86.198 97.7222 84.8417 96.1768 85.7377C95.8492 86.011 95.4239 85.7721 95.1701 85.1876C94.3099 83.4835 92.7028 86.3077 93.1856 87.9725C93.0136 88.8602 92.5337 89.7903 92.9362 90.5606C92.6094 91.3875 92.6084 92.3164 91.9832 93.0923C91.4069 93.8075 91.3458 95.0309 91.0609 96.0143C91.1934 96.5039 91.3206 96.9746 91.4666 97.5138C91.055 99.0497 90.6267 100.648 90.135 102.483C90.3618 102.946 90.6321 103.496 90.9951 104.235C91.1276 104.218 91.464 103.598 91.9126 103.255C93.6357 103.451 95.2311 104.772 97.0964 104.209C97.764 103.717 98.2899 104.382 98.9101 104.359C99.1558 104.35 99.5244 103.537 99.7098 103.891C100.539 105.473 102.045 104.953 103.19 105.535C103.585 106.726 104.507 106.539 105.243 106.842C106.341 107.974 107.139 109.41 107.544 111.508C107.362 112.186 107.178 112.874 106.99 113.576C104.903 115.872 105.567 112.861 104.473 112.546C104.35 110.722 103.294 110.823 102.409 110.421C102.278 109.894 102.07 108.848 101.671 108.863C100.873 109.672 100.305 109.014 99.6305 109.069C98.4714 109.72 97.4721 109.125 96.4131 108.907C96.1248 107.004 95.538 108.836 94.7288 108.46C93.714 108.378 92.7897 107.483 91.7052 107.992C90.5531 109.138 90.7572 107.058 89.7692 107.199C88.4143 111.986 87.9245 116.483 86.4495 121.236C86.0379 123.249 84.9773 125.222 85.2494 127.279C84.6373 129.564 84.0253 131.848 83.4349 134.051C82.93 134.362 82.4433 134.276 82.3826 133.947C82.2226 133.081 81.6671 133.246 81.2946 132.91C81.1571 132.362 81.4639 131.791 81.614 131.257C81.9011 130.237 81.449 129.414 81.9358 128.299C83.6888 123.078 84.3132 117.779 85.7364 112.591C85.9072 111.826 86.3631 111.003 85.9943 110.32C86.2185 109.307 86.4474 108.291 86.7215 107.073ZM-23.4384 72.4667C-22.0191 72.3083 -20.9565 73.7255 -19.3693 72.747C-18.6973 72.6206 -17.8316 73.1324 -17.1778 73.3127C-16.7529 73.6519 -16.3463 72.7493 -15.9436 72.8703C-14.7423 72.9838 -13.5925 74.0293 -12.3338 73.5474C-11.2421 72.8449 -10.4791 73.9956 -9.51032 73.7653C-8.92537 73.7239 -7.89762 72.3288 -7.77331 73.4911C-6.93072 73.6187 -6.25772 74.655 -5.19156 73.5829C-4.72337 73.6919 -4.25675 73.8089 -3.78589 73.9067C-3.32977 74.0017 -2.83643 73.157 -2.34931 73.5151C-1.95099 73.8086 -1.36524 73.6545 -0.975656 73.9621C-0.480986 74.3523 0.0318713 73.0264 0.464282 73.5334C2.02003 71.2159 2.58503 67.9631 3.32275 65.1251C3.64693 63.7049 4.5401 62.2441 4.06809 60.8172C4.68512 58.5144 5.30201 56.2121 5.91903 53.9094C6.61409 53.6699 7.44013 50.3707 7.34619 49.4997C6.46457 49.54 7.07974 48.0768 7.30472 47.1216C7.40672 46.7027 7.05779 46.1398 6.90213 46.4046C6.2857 47.4553 5.79869 46.407 5.25697 46.9685C4.09615 47.7161 3.13135 46.6238 2.07401 46.5743C1.48967 47.4548 1.36227 46.534 0.956998 46.2886C0.632018 46.0364 0.0744571 46.3507 -0.0470799 45.6012C-0.125456 45.1187 -0.325342 45.5193 -0.501227 45.5692C-1.08221 45.7349 -1.61586 46.1334 -2.15113 46.7041C-3.36421 47.2543 -2.4372 44.547 -4.43267 46.9629C-4.88905 46.8406 -5.33736 46.7205 -5.76852 46.605C-5.73758 46.0922 -5.71188 45.6699 -5.68318 45.1963C-5.93414 45.4304 -6.22872 45.8374 -6.31826 45.7668C-7.97569 45.4647 -9.98786 47.6967 -11.6005 46.5999C-12.684 46.0235 -13.9648 47.8748 -15.0589 47.1923C-15.8398 46.6129 -17.2133 47.2859 -17.5341 45.7939C-17.7457 45.0782 -18.7425 46.8461 -18.9065 46.8333C-20.5186 46.5774 -21.7633 45.5388 -23.3993 47.0645C-24.0137 47.1542 -24.6074 46.8867 -25.2097 46.8439C-26.377 48.0831 -26.9104 45.9381 -28.1457 47.7278C-28.5046 49.3033 -29.192 51.1615 -29.4686 52.7619C-29.5716 53.8844 -30.3493 54.2221 -30.5634 55.1365C-31.1781 57.1158 -31.4251 59.3786 -32.5353 60.9805C-32.7771 64.8966 -34.6091 68.8997 -35.1461 72.9177C-34.9142 72.9799 -34.598 73.2672 -34.4064 73.0796C-33.6861 72.3746 -33.1586 72.7549 -32.571 72.8602C-32.243 72.9191 -31.7951 73.1668 -31.5841 72.8998C-30.9188 72.058 -30.3392 73.3577 -29.7268 72.1458C-28.5212 72.4689 -27.3226 72.79 -26.1152 73.1136C-25.7943 72.7465 -25.5286 72.3563 -25.334 73.1162C-25.2455 73.4624 -24.778 73.4423 -24.5385 73.561C-24.0964 73.1215 -23.7507 72.7776 -23.4384 72.4667ZM42.3671 49.5884C41.7262 51.9802 41.0276 54.5875 40.3693 57.0444C38.9665 58.4611 39.4015 61.1213 38.0858 62.5171C37.8758 62.8048 37.6382 63.5983 37.7165 63.8117C38.0322 66.0102 36.6452 68.5573 36.2192 70.926C36.2875 71.1878 36.3881 71.439 36.4052 71.749C35.7454 72.5077 35.7368 72.5054 35.1944 74.8838C35.3582 75.7377 35.4888 76.4164 35.611 77.0537C36.8721 75.8766 37.9321 77.2595 39.1235 77.2382C39.6072 77.3394 39.556 78.465 40.172 78.1135C40.456 77.9392 40.7213 77.5659 41.0036 77.3231C41.4027 76.9799 41.8463 77.2418 42.2299 76.606C42.2718 77.6566 43.2286 77.5718 43.7459 77.7672C44.5328 77.7113 44.511 76.8341 45.0311 78.073C45.7361 77.9355 46.4722 77.061 46.8106 78.3312C46.8885 78.54 47.2195 78.724 47.2796 78.6363C47.6903 78.0385 48.1195 78.3136 48.5239 77.9508C49.6797 76.817 49.4769 78.8476 50.1956 78.3329C50.9056 78.0769 51.4473 78.0274 51.6765 78.6468C51.9865 79.4854 52.6003 79.2275 53.0587 79.5047C53.9053 78.4436 54.5475 79.3156 55.2796 79.3647C55.554 79.5228 55.8166 79.218 56.0984 79.0767C56.7145 78.7786 57.2901 79.5016 57.9249 78.7674C58.0857 78.6436 58.3965 78.6826 58.459 78.8566C58.9297 80.1657 59.9539 79.7544 60.7821 79.9491C61.7564 78.9296 62.4822 80.0697 63.4249 80.0589C63.9574 78.6917 63.9734 77.1338 64.9168 76.1997C65.0631 76.055 65.224 75.4447 65.1825 75.2082C64.9647 73.9607 65.7465 72.1709 64.9463 71.3537C65.5934 68.9386 66.2089 66.6417 66.8247 64.3431C66.6826 63.7726 66.5423 63.2082 66.4091 62.6719C66.5717 61.7527 67.1434 60.8405 66.7869 60.007C66.9661 59.2155 67.1253 58.4192 67.3295 57.6338C67.5628 56.7358 67.0901 56.0421 67.5676 55.0337C68.2324 53.6746 68.1791 52.1895 68.0153 50.9014C67.2034 50.6838 66.3728 50.5589 65.611 50.222C65.1198 50.0046 64.6528 51.0432 64.1628 50.6514C63.7752 50.3414 63.2438 50.3637 62.7764 50.2384C61.1208 51.2247 59.7785 50.0669 58.419 49.6674C58.2706 49.4466 58.3063 48.7841 57.8918 49.3627C57.5682 49.8141 57.2708 49.2968 56.8954 49.8955C55.9512 51.7428 55.9048 49.9202 55.7725 49.1025C55.5084 49.0317 55.4356 48.9617 55.3756 49.0035C53.8851 50.1868 52.5225 49.8619 51.2467 49.3719C50.7802 49.8361 50.4349 50.1796 50.0728 50.5395C49.4378 50.2115 48.4412 50.44 47.9968 49.7488C48.0957 49.1077 48.1946 48.4672 48.308 47.7313C47.5992 48.5757 47.0528 48.9123 46.3678 49.1891C45.7501 49.7774 45.3406 48.8185 44.7288 49.7609C44.4162 48.7576 43.7456 48.8464 43.1928 48.7641C42.8624 49.0956 42.6552 49.3018 42.3671 49.5884ZM34.456 47.8796C34.0661 48.3689 33.6099 48.1723 33.2611 48.5489C32.7471 49.1042 32.4286 48.5069 32.0376 48.753C31.6793 48.9782 31.3657 49.3307 31.0097 49.1524C30.2059 49.1408 30.1179 47.7878 29.1519 48.0529C27.9957 49.0737 27.1746 47.3908 25.9088 48.4884C23.9992 48.3655 22.111 46.7306 20.0833 47.6711C19.53 47.6165 18.9616 47.5294 18.4869 47.2297C17.9506 46.8913 17.3763 47.8119 16.8435 47.5937C16.2946 47.3688 15.7308 47.0276 15.0178 47.7902C13.8791 47.149 15.0923 44.763 12.1361 47.7775C11.4704 47.6542 10.9143 47.3628 10.2467 47.3939C8.75795 52.9501 7.3189 58.3516 5.85658 63.7463C5.62337 64.6068 5.57704 65.6724 4.82607 66.15C4.87487 66.4305 4.92405 66.711 4.98186 67.0426C4.5637 69.1137 3.49251 71.5565 3.41079 73.548C4.89773 73.9465 6.41599 74.3533 7.90354 74.7519C9.3265 72.6446 9.9001 74.8623 11.2179 73.5079C11.2963 73.4086 11.5818 73.4834 11.5959 73.5995C11.6719 74.7734 13.8402 75.2692 14.4879 74.3585C15.1386 74.4631 15.8312 74.8627 16.4887 74.8089C17.8142 73.7211 18.895 75.112 20.1221 75.1246C21.2476 75.2445 23.1917 73.2417 23.8556 75.0266C23.1081 75.822 23.468 75.9093 23.6937 76.7895C23.9938 76.4912 24.2701 76.2168 24.5401 75.9485C24.4767 75.6721 24.4133 75.3969 24.3261 75.0159C25.3905 74.4707 25.0384 76.8807 26.2468 75.2853C26.6316 75.7029 27.075 74.645 27.4694 74.8705C27.873 75.1012 28.4639 74.8236 28.6145 75.7438C28.7842 76.7554 29.8818 74.7318 30.0506 75.7369C30.1738 76.5232 30.6251 76.4148 30.6305 76.4168C31.4893 75.8687 32.0663 75.4999 32.3672 75.3081C32.8908 74.0599 32.8615 72.9554 33.6207 72.4913C33.9979 71.1182 34.3749 69.7456 34.7517 68.3724C34.295 67.0421 35.3023 65.2548 35.5688 63.7164C36.2702 61.7814 36.3004 59.2913 37.5505 57.8473C37.7258 57.7024 37.9639 56.7785 37.8811 56.5559C37.5052 55.6117 38.9299 50.4703 39.6429 49.7298C40.4478 47.9423 39.3878 48.587 38.6319 48.9356C38.1537 48.871 37.6976 48.7068 36.9463 48.5055C36.7558 48.8018 36.3951 49.3631 36.1685 49.7156C35.6051 49.5647 35.2143 49.4599 34.8585 49.3646C34.7123 48.8265 34.585 48.3564 34.456 47.8796ZM68.6219 79.2501C68.78 79.7818 68.9388 80.3148 69.0947 80.8379C69.97 81.0242 69.9699 81.0242 70.5237 79.8738C71.19 79.8043 71.7993 79.9823 72.1651 80.7956C72.6878 79.9014 73.1751 80.8647 73.5705 80.3559C74.1598 79.597 74.5396 80.4714 75.0049 79.9773C76.5952 79.1325 77.9315 80.5639 79.4313 80.6434C79.8428 80.2519 80.254 79.8602 80.6474 79.4866C82.5499 79.6836 84.2561 81.1858 86.3001 80.2604C86.5293 79.971 87.5305 80.8336 87.9625 80.6792C89.2789 79.4897 89.9978 81.136 91.3033 80.5793C91.7444 78.377 92.8401 76.2048 92.6798 73.9531C92.6131 73.4442 93.0671 72.5992 93.1793 71.9112C93.2825 71.2786 93.2013 70.6552 93.2827 70.018C93.4075 69.0393 94.0852 67.9971 93.655 67.082C93.8611 66.2807 94.0733 65.4803 94.2713 64.6774C94.4627 63.9016 94.0049 63.3022 94.4335 62.4333C94.5778 62.141 94.7567 61.514 94.6988 61.4434C94.113 60.7228 95.1284 59.4083 94.7328 58.5894C94.5008 58.1094 95.1831 57.275 94.9358 56.6667C94.6847 55.7241 95.3889 54.4579 95.5582 53.456C95.1854 52.2691 95.1853 52.269 94.0377 51.9882C93.1916 52.8429 92.1863 53.7894 91.8283 52.2233C91.771 51.9525 91.3676 51.9346 91.0993 51.9138C90.4309 51.8619 89.9005 51.2276 89.0852 51.763C88.2409 52.3173 87.6333 51.4999 86.8716 51.5365C85.789 52.5889 85.8286 51.9099 85.772 50.5097C85.3888 49.9654 84.6729 50.7067 84.1746 50.756C83.4249 50.6913 82.7191 50.3405 81.9642 50.2534C81.4009 51.2219 80.9071 50.3794 80.3301 50.8305C79.6615 51.3524 79.0573 51.1825 78.7289 50.3833C78.5735 50.005 78.4337 50.1924 78.2633 50.3942C77.9224 50.7978 77.6032 50.3763 77.2279 50.8729C76.945 51.2472 76.6021 51.7689 76.0612 51.5735C76.2949 50.4651 75.2686 51.0279 75.2285 50.0175C74.5429 49.4013 73.6624 51.3956 73.2064 49.3911C73.1105 49.0453 72.6264 49.2011 72.4928 49.6643C72.09 50.9879 71.5581 49.9639 70.7486 51.2824C70.0326 52.7946 70.5158 54.014 70.0586 55.4854C69.8008 56.2655 69.6501 56.9739 69.8425 57.7594C69.9492 58.195 69.4532 58.976 69.641 59.6921C69.6588 61.2102 68.7421 63.133 68.4493 64.7756C68.9184 65.6551 68.0118 66.8693 68.1608 67.6591C68.3858 68.8518 67.8145 69.8851 67.621 70.9839C67.9091 73.0898 66.7066 75.3879 66.3061 77.4977C66.9603 79.5315 66.6502 81.635 68.6219 79.2501ZM-0.226841 76.8449C-1.19484 77.9751 -1.42142 77.24 -2.14361 77.3581C-3.67831 78.2525 -4.82334 77.1214 -6.17814 76.9741C-8.39649 75.9262 -8.9133 78.4454 -11.6289 76.9957C-13.0279 78.523 -13.9206 76.015 -15.287 77.471C-15.3552 77.5532 -15.5952 77.2448 -15.7346 77.0786C-15.8197 76.9769 -15.9043 76.6602 -15.9222 76.678C-16.9102 77.682 -17.5459 76.6829 -18.3471 76.6567C-19.7746 75.987 -21.3219 76.8916 -22.784 76.3795C-23.4336 77.2357 -23.8717 76.5455 -24.5363 76.536C-24.826 76.8853 -25.216 77.3552 -25.5276 77.7309C-26.199 77.4761 -26.8986 77.6196 -27.1113 76.5692C-27.1344 76.4563 -27.4137 76.4195 -27.4906 76.5232C-28.4899 77.5872 -29.3856 76.4202 -30.3228 76.433C-31.1749 77.2253 -31.8328 76.7147 -32.5481 76.5832C-33.0969 76.9953 -33.5502 77.404 -33.9531 76.9027C-34.4363 76.482 -34.9477 77.7005 -35.3946 77.3054C-35.8188 76.9301 -36.2176 77.6173 -36.7006 78.0471C-36.9558 80.1976 -42.6923 97.5658 -41.0014 96.4981C-39.5936 94.9085 -39.4522 97.6211 -38.136 97.2347C-37.3642 96.3715 -36.4854 95.5744 -36.1033 96.8547C-36.0116 97.0955 -36.0037 97.1607 -35.8138 96.9725C-35.0048 96.1148 -34.4225 97.3919 -33.5701 96.3437C-33.1807 96.2079 -33.0289 97.733 -32.5335 97.2038C-31.5238 96.3255 -30.6248 97.2765 -29.7082 97.3665C-27.8609 96.6292 -25.5815 96.0002 -24.2962 97.8205C-24.2284 98.106 -24.1909 98.1399 -23.994 97.8788C-23.5483 97.2881 -23.0292 97.6548 -22.5515 96.9665C-21.4012 95.2596 -21.7021 98.6972 -20.4489 96.868C-16.1313 98.0663 -11.5012 97.209 -7.21472 98.932C-6.49685 97.8693 -5.80251 96.7884 -5.62693 95.3471C-5.52218 94.4862 -4.91112 94.3672 -4.73251 93.6687C-4.43768 92.8525 -4.37414 91.5957 -3.88093 91.0467C-3.44531 90.7581 -3.56188 90.455 -3.64409 90.0385C-3.66345 88.7822 -2.63778 88.7937 -2.424 86.3794C-2.65894 83.984 -0.832605 80.0061 -0.226841 76.8449ZM18.9095 78.5081C18.064 77.7298 17.163 78.9433 16.3109 78.5611C14.5923 78.305 12.9037 77.0027 11.0842 77.8872C10.3321 77.8241 9.70589 77.1915 8.85763 77.7924C8.18967 78.21 7.27767 77.26 6.66632 77.5685C5.17117 78.5711 4.16772 76.8172 2.60349 77.9977C0.53361 81.6607 -0.137817 86.7054 -1.40082 90.9478C-1.55488 92.0038 -2.32893 92.3084 -2.50661 93.3171C-2.66868 94.2381 -2.99045 95.1561 -3.22602 96.0795C-3.45127 96.962 -2.99676 97.6838 -3.47181 98.6793C-3.64605 99.0441 -3.29988 99.5178 -2.99182 99.2575C-1.79945 98.012 -0.993405 100.056 0.259309 98.7192C0.30707 98.6701 0.400617 98.7235 0.455522 98.7683C1.23434 100.736 1.1632 98.778 2.53257 99.3027C3.66149 98.315 4.89521 99.2995 5.94374 99.5282C6.38324 99.8242 6.77278 98.9398 7.18047 99.074C7.77033 99.2689 8.37719 99.4043 8.96397 99.5615C9.24258 101.211 9.62811 100.043 10.4416 99.9921C10.9918 101.403 12.0558 99.5414 12.9513 99.8664C14.2001 100.055 15.4093 101.05 16.7655 100.466C18.814 99.4341 17.6886 103.052 19.961 100.284C20.8651 100.695 21.9205 100.37 22.4748 101.366C22.6592 101.94 22.9561 101.96 23.3305 101.483C23.9025 100.754 24.4352 100.535 24.9641 100.884C25.2405 100.609 25.5165 100.334 25.7646 100.087C26.0966 99.065 26.4176 98.0776 26.7382 97.0901C27.4425 96.5221 27.4181 95.4615 27.7184 94.6201C27.2585 93.4553 28.0488 92.2144 28.2627 91.0087C29.8221 88.9744 30.3942 83.6215 31.4339 80.7537C31.3193 80.3302 31.2176 79.9544 31.1126 79.5664C30.7192 79.461 30.32 79.354 29.8467 79.2272C28.1603 81.198 28.5906 80.3143 27.8023 78.7884C26.8795 79.5873 25.9957 78.91 25.2471 78.5362C25.0792 77.5303 24.3696 77.8862 23.9026 77.6214C23.4931 78.0118 23.0818 78.4039 22.687 78.7801C22.2641 78.6667 21.8247 78.658 21.472 78.4267C20.97 78.1821 20.2127 79.593 20.0214 78.4405C20.0084 78.1089 20.3969 77.5693 19.9827 77.4396C19.6288 77.7921 19.2835 78.136 18.9095 78.5081ZM34.7238 80.5221C33.4794 81.1769 33.8045 83.0663 32.7238 84.088C32.5467 84.225 32.2881 85.1627 32.3681 85.3771C32.6893 86.2363 32.3422 87.1384 32.0621 87.9943C31.6433 89.2745 31.6457 90.835 30.6383 91.7543C30.1526 94.0956 29.02 96.6832 28.913 98.9251C29.307 99.8338 28.4988 100.192 28.2903 100.8C29.177 101.641 30.531 101.453 31.8182 101.979C32.3017 100.398 32.2331 103.101 33.0964 101.923C34.2541 100.14 34.9839 102.314 36.1534 100.917C37.9252 101.197 36.2248 102.844 38.8408 101.276C39.8681 100.247 40.1535 102.885 41.0955 102.013C41.7682 101.203 42.3402 102.462 42.9528 101.257C43.4013 101.481 43.8638 101.526 44.377 100.897C45.3059 101.334 46.5671 101.048 47.2563 102.015C47.1376 102.546 46.5546 104.037 47.2637 103.532C48.2179 100.431 49.5838 103.463 50.9219 101.934C51.0056 102.188 51.0892 102.443 51.1938 102.76C51.3962 102.353 51.5847 101.973 51.7734 101.594C52.6259 101.208 53.5575 102.244 54.379 101.996C56.079 100.774 57.2531 103.136 59.0339 101.426C60.7438 95.8124 61.3111 90.3958 63.0649 84.7755C62.6565 82.4778 61.5542 83.9677 60.3281 84.3067C59.803 82.4517 57.7175 84.0908 57.2583 81.9702C56.7469 82.4565 56.335 82.8485 55.9246 83.2386C54.3564 82.8752 52.9673 82.0506 51.2756 82.7643C50.5449 82.3852 49.6652 82.3777 48.8757 82.1627C48.5301 82.5066 48.1844 82.8505 47.8383 83.1949C47.3279 82.7663 47.6757 81.6896 47.5013 80.9396C46.8352 81.9838 46.0547 82.067 45.313 82.4966C45.1856 82.026 45.0579 81.5553 44.931 81.0842C43.7144 82.4055 43.6779 80.7331 42.8909 80.5506C42.3496 81.3024 41.9242 80.7774 41.4514 80.9562C40.6535 81.3554 39.7137 82.3728 39.1125 81.4795C38.7764 80.6646 37.0947 79.942 36.3294 80.9529C35.7947 80.809 35.2593 80.6656 34.7238 80.5221ZM89.331 84.7781C88.5996 84.5135 87.3315 84.3956 86.5607 84.0001C86.0737 83.7004 85.579 84.4216 85.1314 84.3732C84.5796 84.3133 84.059 84.1068 83.5246 83.9636C82.9236 83.8026 82.2991 83.7136 81.7287 83.4597C81.2001 83.2244 80.6098 84.2021 80.0931 83.8042C79.4345 83.2974 78.6221 83.7598 77.8743 84.2848C76.5697 85.4889 76.7276 82.454 75.5895 83.9814C75.0545 83.8648 74.5197 83.7475 73.985 83.631C72.671 85.046 71.618 82.8707 70.3624 83.6696C69.4265 84.4462 68.8947 83.1832 68.1312 83.7938C67.2184 84.4807 66.6362 84.1464 66.2538 83.0603C65.6342 82.4747 65.0033 84.8669 65.4719 85.4295C65.2254 86.3495 65.0014 87.2777 64.7261 88.1871C64.4192 89.2021 64.8355 90.0005 64.4101 91.1342C63.8319 92.8207 63.3188 94.9004 62.9379 96.6063C63.6434 97.8738 60.5745 103.664 63.1234 101.473C63.5761 101.594 64.0973 101.588 64.4967 101.878C64.9822 102.232 65.4735 101.419 65.9314 101.487C66.5843 101.583 67.1716 102.146 67.9541 101.285C68.241 101.457 68.6765 101.236 68.8007 101.841C69.179 103.356 70.5642 100.421 70.9171 102.797C71.3167 102.417 71.7159 102.037 72.1274 101.646C72.6527 101.786 73.1853 101.929 73.7182 102.072C75.069 100.854 76.1115 102.315 77.3427 102.318C79.2561 100.856 80.5164 103.695 82.3887 102.188C83.1231 102.385 83.8494 102.617 84.5987 102.751C86.6139 100.931 85.8144 104.99 87.6077 102.363C88.033 100.164 89.1964 98.0935 88.9155 95.9163C89.162 94.9964 89.4512 94.0805 89.6424 93.1554C89.8204 92.2943 89.471 91.5587 89.8973 90.5609C90.2092 89.831 90.3521 88.9668 90.5618 88.1607C90.7644 87.3811 90.3565 86.8189 90.7073 85.9093C91.0619 84.4348 90.2967 84.0168 89.331 84.7781Z" fill="#82C6DD"/>
</svg>
