<svg xmlns="http://www.w3.org/2000/svg" width="52" height="209" fill="none" viewBox="0 0 52 209"><g fill="#fc6b7e" opacity=".9"><path d="M9.334 137.733v.004c-4.058-4.06-4.91-.16-6.243 2.543-4.319 2.764-3.147 6.676-2.183 10.544-1.65 2.373.02 4.753-.015 7.129.854 2.713 1.546 5.643 5.546 4.152l2.884 1.635c.33 2.067 1.103 2.204 2.688.858 7.697-6.533 6.506-18.78-2.677-26.865M24.253 10.645c-3.752-.788-9.288 1.316-9.352 4.782 1.494 2.763-5.66 5.853.32 8.446 1.221 2.488-.749 6.683 5.526 6.256 3.08-.209 3.256 2.396 5.761-.502 1.47-4.193 3.038-8.375 1.518-12.918-1.289-1.946.307-5.209-3.773-6.064m-2.425 15.758c.348.7.56 1.535.979 2.162-.42-.626-.63-1.463-.98-2.162m.3-11.424c-1.614.78-3.361-.573-5.027-.62 1.666.045 3.412 1.398 5.026.617 1.039-1.015 1.7-1.223 2.15-.975-.448-.247-1.11-.038-2.15.978M45.33 137.584c7.777 2.903 9.164 2.259 8.782-4.079q-4.365 1.289-8.731 2.584v-.004l8.73-2.581c-1.1-5.624-1.222-11.598-5.737-15.996.273-3.925-2.602-2.494-4.535-2.665l-.089-.026c-4.56-2.566-4.988-2.318-7.19 4.136-.782.24-1.547.494-1.2 1.587l-.333-.224c-3.675.079-2.697 3.189-2.995 5.139-.092.602.559 4.047 3.258 1.877 1.852.685 1.582 2.067 1.019 3.416-1.318 3.151 1.888-.035 1.818 1.324l1.2 1.497c.797 3.139 2.088 5.539 6.003 4.015m.093-2.651c.035-2.299-.237-4.536-1.077-6.691.84 2.155 1.113 4.392 1.077 6.691M52.332 33.702c.879 1.88 2.993-.234 4.562-.036 4.162 1.425 6.805-.59 8.868-3.916 5.761.37 5.305-3.66 5.245-7.411-1.452-3.768-1.279-8.123-4.123-11.387-.2-1.884.867-4.227-1.842-5.135-.098-.033-.68 1.381-1.035 2.122-2.269.034-3.274-3.853-5.901-2.03-.475.33.23 2.357.389 3.602l-.252-.138c-1.052-.373-2.462-1.364-3.09-1-1.762 1.018-.049 2.465.09 3.752-3.15 4.303-3.185 11.851-.06 13.282q.045.701.46 1.27c-1.475 2.204-4.8 3.838-3.31 7.025m7.36-2.909c.182-2.333 1.61-3.363 3.224-4.198-1.614.835-3.042 1.865-3.224 4.2q-1.227.804-2.454 1.61zM56.642 186.769c-1.49-5.053-5.028-3.6-8.41-2.647q-.654-.459-1.373-.109c-1.715-.638-3.581-1.028-5.115-1.963-3.513-2.142-1.814.869-2.076 1.956-1.166 2.549 2.03 4.485.988 7.018-3.427 4.501-2.284 8.321 1.745 11.71-.53 1.601-2.096 2.998-.096 4.868 2.988 2.791 1.835-3.815 4.306-1.742 1.163 4.14 4.855 1.685 5.335.876 1.756-2.962 4.88-5.692 3.543-9.828l.161-1.409c1.485-1.124.788-2.891 1.266-4.311.989.338 2.514 1.242 2.867.908 1.05-.996-.3-2.016-.785-2.882-.532-.957-1.55-1.641-2.356-2.445M19.66 78.563a2.5 2.5 0 0 1 .21-1.211l-6.158-.038q-.675.21-1.382.177l-1.136 2.692 1.135-2.694q.707.037 1.382-.175l6.158.038c1.89-.572.981-1.877.785-2.995.131-1.013-.322-1.432-1.32-1.298l.123-.391c-1.973-.563-3.984-5.023-5.903.054l.175.448c-1.605 2.587-8.057-3.008-6.969 4.127a2.5 2.5 0 0 0-.395 1.359c-1.544.453-1.377 1.687-1.314 2.873-.962 5.24-1.645 10.34 5.76 11.33 3.004.805 5.805 1.073 7.116-2.656q.614-.73 1.232-1.46c.52-1.45 1.913-2.607 1.458-4.381 1.633-2.256 2.731-4.423-.957-5.8m-6.286 11.52q-.358.036-.717.075.358-.039.718-.075m4.735-5.392c.03-1.215-.275-2.514-.102-3.694-.173 1.178.13 2.478.102 3.694"/></g></svg>