<svg xmlns="http://www.w3.org/2000/svg" width="77" height="24" fill="none" id="svg1791209580_4318"><path d="m8.136 19.592 1.77 1.013a1.733 1.733 0 0 0 1.717 0l1.778-1.013 1.384 2.38-3.156 1.8a1.732 1.732 0 0 1-1.717 0L6.75 21.975l1.386-2.382Z" fill="url(#svg1791209580_4318_a)"/><path d="m16.08 18.07 1.817-1.035a1.72 1.72 0 0 0 .628-.62c.15-.257.23-.549.23-.846V13.52h2.784v3.631a1.68 1.68 0 0 1-.86 1.467l-3.218 1.833-1.38-2.381Z" fill="url(#svg1791209580_4318_b)"/><path d="M2.784 13.52v2.049c0 .297.079.589.23.846.15.257.367.471.628.62l1.82 1.036-1.384 2.38-3.219-1.833a1.709 1.709 0 0 1-.629-.62c-.15-.258-.23-.55-.23-.847v-3.63h2.784Z" fill="url(#svg1791209580_4318_c)"/><path d="M18.76 10.478V8.43c0-.298-.08-.59-.23-.847a1.703 1.703 0 0 0-.628-.62L16.08 5.929l1.386-2.38 3.218 1.832c.261.149.478.363.629.62.15.257.23.549.23.846v3.632H18.76Z" fill="url(#svg1791209580_4318_d)"/><path d="m5.461 5.928-1.82 1.036a1.703 1.703 0 0 0-.628.62c-.15.257-.23.548-.23.846v2.048H0V6.845a1.68 1.68 0 0 1 .86-1.467l3.218-1.832L5.46 5.928Z" fill="url(#svg1791209580_4318_e)"/><path d="M13.407 4.406 11.63 3.394a1.733 1.733 0 0 0-1.717 0l-1.77 1.012-1.385-2.38L9.919.227a1.733 1.733 0 0 1 1.717 0l3.162 1.8-1.39 2.38Z" fill="url(#svg1791209580_4318_f)"/><path d="M15.021 9.58v4.839l-4.25 2.42-4.25-2.42v-4.84l4.25-2.419 4.25 2.42Zm-5.756 3.276 1.507.858 1.506-.858v-1.707l-1.506-.858-1.507.858v1.707Z" fill="url(#svg1791209580_4318_g)"/><path d="M27.014 18.237h2.07c.14 0 .245-.052.298-.209l.596-1.789h4.631l.597 1.79c.053.156.158.208.298.208h2.07c.193 0 .298-.122.228-.295L33.697 6.284c-.052-.139-.193-.208-.333-.208h-2.122c-.14 0-.281.07-.334.208l-4.105 11.658c-.07.173.018.295.21.295Zm3.684-4.204 1.596-4.83 1.596 4.83h-3.192Zm9.021 4.204h1.895c.157 0 .263-.104.263-.26V13.51c0-1.163.526-1.789 1.438-1.789.93 0 1.368.626 1.368 1.79v4.464c0 .157.106.26.281.26h1.877c.158 0 .263-.103.263-.26V13.51c0-1.163.526-1.789 1.439-1.789.947 0 1.368.626 1.368 1.79v4.464c0 .157.105.26.263.26h1.895c.157 0 .263-.103.263-.26V12.99c0-2.223-1.123-3.474-2.965-3.474-1.333 0-2.175.643-2.649 1.511-.473-.99-1.333-1.511-2.438-1.511-1.175 0-1.947.59-2.42 1.39l-.053-.904c0-.208-.106-.278-.264-.278H39.72c-.158 0-.263.104-.263.26v7.992c0 .157.105.26.263.26Zm14.938 0h1.895c.158 0 .263-.104.263-.26v-4.413c0-1.2.666-1.842 1.684-1.842 1.035 0 1.596.643 1.596 1.842v4.412c0 .157.105.26.263.26h1.877c.158 0 .281-.103.281-.26v-4.951c0-2.224-1.316-3.51-3.105-3.51-1.28 0-2.105.626-2.596 1.495l-.07-1.008c0-.208-.106-.278-.264-.278h-1.824c-.158 0-.263.104-.263.26v7.992c0 .157.105.26.263.26ZM65.832 8.213c.772 0 1.334-.59 1.334-1.338 0-.73-.562-1.32-1.334-1.32-.771 0-1.35.59-1.35 1.32 0 .747.579 1.338 1.35 1.338Zm-1.227 9.763c0 .157.105.26.263.26h1.912c.158 0 .263-.103.263-.26V9.985c0-.157-.105-.26-.263-.26h-1.912c-.158 0-.263.103-.263.26v7.991Zm8.644.469c1.386 0 2.56-.59 3.298-1.529.105-.121.07-.26-.035-.364l-1.053-1.025a.315.315 0 0 0-.456 0c-.474.469-.983.712-1.65.712-1.42 0-2.315-1.042-2.315-2.293 0-1.251.895-2.224 2.263-2.224.702 0 1.21.243 1.684.712a.315.315 0 0 0 .456 0l1.053-1.025c.105-.104.14-.243.035-.365-.737-.938-1.912-1.528-3.333-1.528-2.579 0-4.49 1.91-4.49 4.43 0 2.554 1.929 4.5 4.543 4.5Z" fill="#000"/><defs><linearGradient id="svg1791209580_4318_a" x1="0" y1="5.517" x2="46.675" y2="33.843" gradientUnits="userSpaceOnUse"><stop stop-color="#A826B3"/><stop offset="1" stop-color="#FFA420"/></linearGradient><linearGradient id="svg1791209580_4318_b" x1="0" y1="5.517" x2="46.675" y2="33.843" gradientUnits="userSpaceOnUse"><stop stop-color="#A826B3"/><stop offset="1" stop-color="#FFA420"/></linearGradient><linearGradient id="svg1791209580_4318_c" x1="0" y1="5.517" x2="46.675" y2="33.843" gradientUnits="userSpaceOnUse"><stop stop-color="#A826B3"/><stop offset="1" stop-color="#FFA420"/></linearGradient><linearGradient id="svg1791209580_4318_d" x1="0" y1="5.517" x2="46.675" y2="33.843" gradientUnits="userSpaceOnUse"><stop stop-color="#A826B3"/><stop offset="1" stop-color="#FFA420"/></linearGradient><linearGradient id="svg1791209580_4318_e" x1="0" y1="5.517" x2="46.675" y2="33.843" gradientUnits="userSpaceOnUse"><stop stop-color="#A826B3"/><stop offset="1" stop-color="#FFA420"/></linearGradient><linearGradient id="svg1791209580_4318_f" x1="0" y1="5.517" x2="46.675" y2="33.843" gradientUnits="userSpaceOnUse"><stop stop-color="#A826B3"/><stop offset="1" stop-color="#FFA420"/></linearGradient><linearGradient id="svg1791209580_4318_g" x1="0" y1="5.517" x2="46.675" y2="33.843" gradientUnits="userSpaceOnUse"><stop stop-color="#A826B3"/><stop offset="1" stop-color="#FFA420"/></linearGradient></defs></svg>