<svg xmlns="http://www.w3.org/2000/svg" width="88" height="22" fill="none" viewBox="0 0 88 22"><g clip-path="url(#a)"><path fill="#231f20" d="M42.502 17.814h-6.817L34.34 21.75h-3.075L37.411 3.84h3.362L46.92 21.75h-3.071zm-1.008-2.953-2.4-6.985-2.4 6.985zM55.155 11.908h-2.688v9.838h-2.953v-9.838h-1.897V8.983h1.897V5.2h2.953v3.783h2.688zM60.005 21.746h-2.953V5.2h2.953zM68.07 8.73c2.09 0 3.723 1.16 4.345 2.623l.169-2.372h2.81v12.766h-2.81l-.169-2.373c-.625 1.463-2.258 2.623-4.344 2.623-3.481 0-6.027-2.977-6.027-6.635S64.59 8.73 68.07 8.73m.507 10.346c2.063 0 3.527-1.692 3.527-3.707s-1.464-3.707-3.527-3.707c-2.09 0-3.578 1.692-3.578 3.707s1.488 3.707 3.578 3.707M80.558 17.887c.169.907 1.104 1.515 2.546 1.515 1.008 0 1.92-.379 1.92-1.16 0-1.008-.958-1.213-3.408-2.043-2.063-.657-3.627-1.716-3.627-3.783 0-2.296 2.186-3.683 4.49-3.683 3.002 0 4.8 1.765 4.873 3.912H84.4c-.073-.934-1.032-1.338-1.825-1.338-.744 0-1.633.38-1.633 1.109 0 .806.863.983 3.431 1.917 2.688.96 3.627 2.345 3.627 3.985C88 20.69 85.792 22 83.031 22c-3.071 0-5.257-1.362-5.425-4.113z"/><path fill="url(#b)" d="M13.803.007 13.799 0 0 14.5l4.764 5.006s1.273 1.348 2.754 1.32l4.754-.247 1.527 1.171 1.528-1.17 4.754.246c1.48.031 2.754-1.32 2.754-1.32l4.754-4.996.013-.014zm-.004 19.947c-3.28 0-5.934-2.793-5.934-6.236s2.658-6.235 5.934-6.235 5.935 2.793 5.935 6.235-2.658 6.236-5.935 6.236"/><path fill="#36b7ff" d="M18.563 19.506 13.8 14.5l-4.767 5.006a2.92 2.92 0 0 1-4.268 0c1.365 1.435 3.22 2.24 5.15 2.24h7.763c1.931 0 3.786-.805 5.151-2.24a2.915 2.915 0 0 1-4.265 0"/></g><defs><linearGradient id="b" x1="13.798" x2="13.798" y1="21.617" y2="-.358" gradientUnits="userSpaceOnUse"><stop stop-color="#2942ee"/><stop offset="1" stop-color="#928bff"/></linearGradient><clipPath id="a"><path fill="#fff" d="M0 0h88v22H0z"/></clipPath></defs></svg>