<svg xmlns="http://www.w3.org/2000/svg" width="110" height="88" fill="none" viewBox="0 0 110 88"><path fill="#fff" d="M54.233 43.205H28.267v-26.91c0-.435-.347-.795-.767-.795s-.767.36-.767.795v26.91H.767c-.42 0-.767.36-.767.795s.347.795.767.795h25.966v26.91c0 .435.347.795.767.795s.767-.36.767-.795v-26.91h25.966c.42 0 .767-.36.767-.795s-.333-.795-.767-.795"/><path fill="#ef373e" d="m23.679 29.36-7.642-7.92-2.663 2.775-2.678-2.775-7.642 7.92 7.642 7.92 2.678-2.775 2.677 2.775zm-12.983 5.295L5.572 29.36l5.124-5.31 1.418 1.47-3.705 3.84 3.705 3.84zm2.678-7.83 2.446 2.535-2.446 2.535-2.446-2.535zm4.964 2.535-3.705-3.84 1.418-1.47 5.124 5.31-5.124 5.31-1.418-1.455z"/><path fill="#00aae7" d="M46.229 64.985c-1.375 0-2.721-1.05-4.01-3.135-.216-.36-.419-.72-.593-1.05-.173.33-.376.69-.593 1.05-1.274 2.085-2.62 3.135-3.995 3.135-1.288 0-2.46-.705-3.329-1.98-.796-1.17-1.245-2.715-1.245-4.35s.435-3.18 1.245-4.35c.869-1.275 2.055-1.98 3.33-1.98 1.374 0 2.72 1.05 3.994 3.135.217.36.42.72.593 1.05.174-.33.377-.69.594-1.05 1.273-2.085 2.62-3.135 4.009-3.135 1.288 0 2.46.705 3.329 1.98.796 1.17 1.245 2.73 1.245 4.35s-.435 3.18-1.245 4.35c-.868 1.275-2.04 1.98-3.33 1.98m-3.633-6.345c.333.765.71 1.515 1.144 2.235.882 1.44 1.794 2.25 2.489 2.25 1.505 0 2.779-2.055 2.779-4.485s-1.274-4.485-2.78-4.485c-.694 0-1.606.825-2.503 2.28q-.63 1.057-1.129 2.205m-5.558-4.485c-1.505 0-2.793 2.055-2.793 4.485s1.273 4.485 2.793 4.485c.695 0 1.607-.825 2.49-2.25.434-.72.825-1.47 1.143-2.235a19 19 0 0 0-1.143-2.235c-.898-1.425-1.795-2.25-2.49-2.25"/><path fill="#62bb46" d="M46.243 26.21 45.1 27.635l1.853 1.605h-.724c-1.36 0-2.692.525-3.69 1.485v-6.87l1.533 1.92 1.375-1.185-3.82-4.74-3.807 4.725 1.375 1.185 1.534-1.92v6.87a5.36 5.36 0 0 0-3.69-1.485h-.724l1.852-1.605-1.143-1.425-4.574 3.945 4.56 3.945 1.143-1.425-1.853-1.605h.724c2.04 0 3.69 1.71 3.69 3.825v3.03c-.014.51.362.945.854.96a.904.904 0 0 0 .927-.885V34.88c0-2.115 1.65-3.825 3.69-3.825h.724l-1.852 1.605 1.143 1.425 4.603-3.945z"/><path fill="#faa41a" d="M13.374 49.01c-3.025 0-5.471 2.535-5.471 5.67 0 1.5.579 2.955 1.606 4.005a3.87 3.87 0 0 1 1.086 2.7l-.03 2.805c0 .51.392.93.884.93a.8.8 0 0 0 .26-.045l3.792-1.185a.93.93 0 0 0 .637-.885l.015-1.59c0-1.02.39-1.98 1.085-2.7 2.142-2.22 2.142-5.805 0-8.025a5.45 5.45 0 0 0-3.864-1.68m2.605 8.385a5.7 5.7 0 0 0-1.592 4.005v.915l-2.012.63V61.4c0-1.5-.579-2.94-1.607-4.005a3.92 3.92 0 0 1 0-5.415 3.596 3.596 0 0 1 5.225 0c1.448 1.5 1.433 3.915-.014 5.415M14.995 65.015 11.203 66.2c-.478.15-.739.66-.594 1.155s.637.765 1.115.615l.84-.255a.9.9 0 0 0 .824.57c.492 0 .883-.42.898-.93v-.18l1.259-.39a.937.937 0 0 0 .564-1.17c-.174-.45-.651-.72-1.114-.6"/><path fill="#fff" d="M87.84 34.88h-3.893l-6.773 18.165h2.504l1.954-5.25h8.496l1.954 5.25h2.504zm-5.456 10.71 2.142-5.7 1.158-3.195h.42l1.187 3.21 2.127 5.685zM104.182 53.255c-2.707 0-4.762-.78-6.137-2.34s-2.07-3.87-2.07-6.915c0-3.09.695-5.445 2.055-7.02s3.431-2.37 6.108-2.37c.579 0 1.317.06 2.012.135q1.954.203 3.821.765v2.175c-.42-.225-2.88-.675-3.937-.765a19 19 0 0 0-1.708-.105c-1.997 0-3.502.585-4.457 1.755s-1.448 2.985-1.448 5.415.478 4.215 1.404 5.37 2.374 1.725 4.313 1.725c.275 0 .608-.015.984-.045.377-.03.768-.075 1.158-.12.391-.045.782-.105 1.129-.165.348-.06.666-.135.912-.195 0 0 1.115-.285 1.621-.465v2.16c-.333.135-1.563.45-1.563.45q-.456.113-.999.225c-.362.075-.738.12-1.129.165-.39.045-.752.09-1.129.12-.376.03-.636.045-.94.045M73.483 36.905c-1.534-1.485-3.966-2.25-7.223-2.25-1.389 0-5.123.225-5.775.285v18.015c.652.06 4.372.285 5.775.285 3.257 0 5.674-.75 7.223-2.25s2.316-3.87 2.316-7.05-.782-5.535-2.316-7.035m-1.78 12.48c-1.071 1.125-2.823 1.695-5.21 1.695-.811 0-3.011-.12-3.503-.15V36.995c.506-.045 2.692-.165 3.502-.165 2.374 0 4.125.57 5.21 1.695 1.086 1.125 1.622 2.94 1.622 5.43s-.536 4.305-1.621 5.43"/></svg>