<svg width="103" height="22" viewBox="0 0 103 22" fill="none" xmlns="http://www.w3.org/2000/svg">
<path d="M26.5347 17.1251C26.4758 17.1252 26.4175 17.1137 26.363 17.0912C26.3086 17.0687 26.2591 17.0357 26.2174 16.9941C26.1757 16.9525 26.1427 16.903 26.1201 16.8486C26.0976 16.7942 26.0859 16.7359 26.0859 16.677V3.44767C26.0859 3.2002 26.2866 2.99956 26.5341 2.99956H30.3998C31.7366 2.99956 32.9113 3.30231 33.9239 3.90782C34.9499 4.49995 35.7531 5.32706 36.3336 6.38915C36.9142 7.45214 37.2045 8.67653 37.2045 10.0623C37.2045 11.4348 36.9142 12.6522 36.3336 13.7148C35.7757 14.7546 34.9419 15.6206 33.9239 16.2175C32.9117 16.8226 31.7368 17.1251 30.3992 17.1251H26.5347ZM27.8075 15.1026C27.8075 15.35 28.0081 15.5514 28.2556 15.5514H30.3998C31.1155 15.5514 31.777 15.4169 32.3842 15.1481C32.9928 14.8639 33.5371 14.4588 33.9841 13.9576C34.4569 13.4468 34.8283 12.8508 35.0783 12.2012C35.3497 11.521 35.4871 10.7947 35.4829 10.0623C35.4879 9.33639 35.3504 8.61652 35.0783 7.9435C34.8303 7.28699 34.4586 6.68418 33.9834 6.16777C33.5398 5.66791 32.9943 5.26882 32.3836 4.99733C31.7763 4.71464 31.1148 4.5733 30.3992 4.5733H28.2549C28.0075 4.5733 27.8068 4.77395 27.8068 5.02141L27.8075 15.1026ZM39.3032 17.1251C39.2444 17.1251 39.1861 17.1135 39.1317 17.091C39.0774 17.0685 39.028 17.0355 38.9864 16.9939C38.9447 16.9522 38.9117 16.9028 38.8892 16.8485C38.8667 16.7941 38.8551 16.7358 38.8551 16.677V7.48402C38.8551 7.23655 39.0558 7.03591 39.3032 7.03591H40.0262C40.2737 7.03591 40.4743 7.23655 40.4743 7.48402V16.677C40.4743 16.9245 40.2737 17.1251 40.0262 17.1251H39.3032ZM39.6845 4.69436C39.4151 4.69436 39.1788 4.59359 38.9755 4.39205C38.8795 4.30118 38.8032 4.19165 38.7511 4.0702C38.699 3.94875 38.6722 3.81793 38.6725 3.68577C38.6725 3.40263 38.7737 3.16721 38.9762 2.97949C39.0676 2.88352 39.1776 2.80716 39.2995 2.75507C39.4214 2.70298 39.5526 2.67626 39.6851 2.67652C39.9687 2.67652 40.205 2.77751 40.3941 2.97949C40.5961 3.16721 40.6973 3.40263 40.6977 3.68577C40.6977 3.95464 40.5965 4.19006 40.3941 4.39205C40.3041 4.48986 40.1944 4.5674 40.0721 4.61953C39.9499 4.67165 39.8173 4.69716 39.6845 4.69436ZM46.7011 21.4036C46.0523 21.4036 45.4582 21.3362 44.9187 21.2016C44.4547 21.1009 44.0006 20.9592 43.5616 20.7782C43.3877 20.7073 43.2368 20.6411 43.1088 20.5796C42.9095 20.4839 42.8406 20.2465 42.9336 20.0452L43.1797 19.5141C43.2345 19.4021 43.3309 19.3159 43.4483 19.2738C43.5657 19.2317 43.6949 19.237 43.8084 19.2887C43.9056 19.3316 44.0124 19.3773 44.1288 19.4259C44.4525 19.5739 44.8306 19.6949 45.2631 19.789C45.7081 19.8969 46.1807 19.9509 46.681 19.9509C47.3284 19.9509 47.9088 19.8162 48.422 19.5469C48.9485 19.291 49.3536 18.8808 49.6372 18.3163C49.9342 17.7647 50.0826 17.0515 50.0826 16.1767V7.48402C50.0826 7.23655 50.2833 7.03591 50.5314 7.03591H51.2544C51.5019 7.03591 51.7025 7.23655 51.7025 7.48402V16.1566C51.7025 17.3137 51.4867 18.2824 51.0551 19.0627C50.6231 19.843 50.0289 20.4282 49.2727 20.8183C48.5169 21.2085 47.6597 21.4036 46.7011 21.4036ZM46.6402 17.0448C45.7351 17.0448 44.9385 16.8295 44.2505 16.3988C43.5621 15.9685 43.0219 15.3699 42.63 14.603C42.2518 13.8227 42.0628 12.9347 42.0628 11.939C42.0628 10.9166 42.2518 10.022 42.63 9.25506C43.0219 8.47477 43.5621 7.86948 44.2505 7.43921C44.939 7.00848 45.7355 6.79312 46.6402 6.79312C47.491 6.79312 48.2334 7.00848 48.8674 7.43921C49.5023 7.86948 49.9953 8.47477 50.3462 9.25506C50.7109 10.022 50.8933 10.9166 50.8933 11.939C50.8933 12.9481 50.7109 13.8361 50.3462 14.603C49.9948 15.3699 49.5021 15.9685 48.8681 16.3988C48.2327 16.8295 47.4901 17.0448 46.6402 17.0448ZM47.0248 15.6524C47.6191 15.6524 48.1457 15.4909 48.6045 15.1681C49.0634 14.8449 49.4212 14.4075 49.678 13.8559C49.9344 13.291 50.0626 12.6386 50.0626 11.8989C50.0626 11.1855 49.9277 10.5532 49.6579 10.0021C49.4011 9.43676 49.0433 8.99935 48.5845 8.68991C48.1386 8.36753 47.612 8.20612 47.0047 8.20568C46.3698 8.20568 45.8026 8.36709 45.3032 8.68991C44.8172 8.99935 44.4324 9.43676 44.1489 10.0021C43.8791 10.5532 43.7442 11.1855 43.7442 11.8989C43.7442 12.6391 43.886 13.2914 44.1696 13.8559C44.4527 14.4075 44.8373 14.8449 45.3233 15.1681C45.8227 15.4909 46.3899 15.6524 47.0248 15.6524ZM53.9391 17.1251C53.8802 17.1251 53.822 17.1135 53.7676 17.091C53.7132 17.0685 53.6638 17.0355 53.6222 16.9939C53.5806 16.9522 53.5476 16.9028 53.5251 16.8485C53.5026 16.7941 53.491 16.7358 53.491 16.677V7.48402C53.491 7.23655 53.6916 7.03591 53.9391 7.03591H54.6614C54.9095 7.03591 55.1102 7.23655 55.1102 7.48402V16.677C55.1102 16.9245 54.9095 17.1251 54.6621 17.1251H53.9391ZM54.3203 4.69436C54.0506 4.69436 53.8142 4.59359 53.6114 4.39205C53.5154 4.30118 53.439 4.19165 53.3869 4.0702C53.3348 3.94875 53.3081 3.81793 53.3084 3.68577C53.3079 3.40263 53.4092 3.16721 53.612 2.97949C53.7034 2.88352 53.8135 2.80716 53.9353 2.75507C54.0572 2.70298 54.1884 2.67626 54.321 2.67652C54.6041 2.67652 54.8404 2.77751 55.0299 2.97949C55.2319 3.16721 55.3331 3.40263 55.3336 3.68577C55.3336 3.95464 55.2321 4.19006 55.0293 4.39205C54.9393 4.48986 54.8296 4.5674 54.7073 4.61953C54.5851 4.67165 54.4532 4.69716 54.3203 4.69436ZM61.0935 17.3679C60.1081 17.3679 59.3452 17.1122 58.8048 16.6007C58.2653 16.0898 57.9955 15.3699 57.9955 14.4411V4.33587C57.9955 4.0884 58.1961 3.88775 58.4436 3.88775H59.1659C59.4141 3.88775 59.6154 4.0884 59.6154 4.33587V14.2799C59.6154 14.7909 59.7503 15.1877 60.02 15.4704C60.3036 15.7397 60.6953 15.8744 61.1951 15.8744C61.357 15.8744 61.5122 15.8543 61.6607 15.8142C61.7133 15.7964 61.7703 15.7719 61.8319 15.7406C62.0833 15.6136 62.4004 15.6851 62.5221 15.9386L62.7462 16.4068C62.7954 16.5034 62.8056 16.6153 62.7744 16.7192C62.7433 16.8231 62.6733 16.911 62.5789 16.9646C62.3591 17.085 62.1542 17.1721 61.9643 17.2261C61.6807 17.3202 61.3904 17.3679 61.0935 17.3679ZM56.6813 8.46719C56.6224 8.46719 56.5641 8.4556 56.5098 8.43308C56.4554 8.41056 56.406 8.37755 56.3644 8.33594C56.3228 8.29433 56.2898 8.24493 56.2673 8.19056C56.2447 8.13619 56.2332 8.07792 56.2332 8.01908V7.48335C56.2332 7.23588 56.4338 7.03524 56.6813 7.03524H62.2044C62.4519 7.03524 62.6525 7.23588 62.6525 7.48335V8.01841C62.6525 8.26654 62.4519 8.46786 62.2044 8.46786L56.6813 8.46719ZM70.7352 17.1251C70.6202 17.1251 70.5097 17.0808 70.4264 17.0015C70.3431 16.9222 70.2935 16.8139 70.2878 16.6991L70.2276 15.4704V11.7979C70.2276 11.0043 70.1398 10.3517 69.9641 9.84028C69.7889 9.31592 69.512 8.91909 69.1334 8.64978C68.7553 8.38091 68.2626 8.24648 67.6553 8.24648C67.1015 8.24648 66.6222 8.36084 66.2173 8.58958C65.9244 8.7501 65.6694 8.98642 65.4522 9.29853C65.3218 9.48447 65.0857 9.57677 64.8737 9.4945L64.263 9.25774C64.0109 9.16009 63.9005 8.86179 64.053 8.63774C64.2501 8.34881 64.4719 8.09042 64.7185 7.86257C65.0829 7.51242 65.518 7.24425 65.9946 7.07604C66.4806 6.88743 67.0342 6.79312 67.6553 6.79312C68.6006 6.79312 69.3769 6.98151 69.9842 7.35828C70.6053 7.72167 71.0712 8.26654 71.382 8.99288C71.6923 9.70629 71.8408 10.5943 71.8274 11.6568L71.8087 16.6783C71.8083 16.7971 71.7609 16.9108 71.6767 16.9946C71.5926 17.0783 71.4787 17.1253 71.3599 17.1251H70.7352ZM67.2707 17.3672C66.0825 17.3672 65.1506 17.0984 64.4751 16.5606C63.8143 16.0086 63.4836 15.2484 63.4832 14.2799C63.4832 13.2575 63.8207 12.4772 64.4958 11.939C65.1847 11.3875 66.1433 11.1117 67.3717 11.1117H70.2677V12.4641H67.7362C66.791 12.4636 66.1159 12.6183 65.711 12.9282C65.3196 13.2372 65.1238 13.6811 65.1238 14.2599C65.1238 14.7847 65.3196 15.2016 65.711 15.5106C66.1025 15.8066 66.6494 15.9547 67.3517 15.9547C67.9322 15.9547 68.4385 15.8336 68.8706 15.5915C69.2988 15.3397 69.6439 14.9679 69.8631 14.522C70.0606 14.1386 70.1779 13.7016 70.2149 13.2112C70.2201 13.1195 70.2597 13.0332 70.3258 12.9694C70.3919 12.9057 70.4796 12.8692 70.5714 12.8674C70.6164 12.8669 70.6611 12.8755 70.7028 12.8928C70.7444 12.91 70.7821 12.9355 70.8136 12.9676C70.8452 12.9998 70.8699 13.038 70.8863 13.08C70.9027 13.1219 70.9105 13.1668 70.9091 13.2118C70.861 14.4242 70.5527 15.4058 69.9842 16.1566C69.3635 16.9637 68.459 17.3672 67.2707 17.3672ZM74.0332 17.1251C73.9743 17.1252 73.916 17.1137 73.8615 17.0912C73.8071 17.0687 73.7576 17.0357 73.7159 16.9941C73.6742 16.9525 73.6412 16.903 73.6186 16.8486C73.596 16.7942 73.5844 16.7359 73.5844 16.677V3.44767C73.5844 3.2002 73.7851 2.99956 74.0332 2.99956H74.7562C75.0037 2.99956 75.205 3.2002 75.205 3.44767V16.677C75.205 16.9245 75.0037 17.1251 74.7562 17.1251H74.0332Z" fill="black"/>
<path d="M87.8106 17.1228C87.7211 17.1229 87.6337 17.0961 87.5595 17.0461C87.4854 16.996 87.4279 16.9249 87.3945 16.8419L82.0647 3.61257C82.0373 3.54454 82.0271 3.47084 82.0349 3.39793C82.0426 3.32502 82.0681 3.25512 82.1092 3.19438C82.1503 3.13364 82.2056 3.0839 82.2704 3.04953C82.3352 3.01516 82.4074 2.99721 82.4807 2.99725H83.2365C83.3255 2.99712 83.4126 3.02351 83.4866 3.07307C83.5605 3.12262 83.6181 3.19309 83.6518 3.27548L89.0572 16.5048C89.0852 16.5729 89.0958 16.6468 89.0884 16.7201C89.0809 16.7933 89.0556 16.8636 89.0145 16.9246C88.9735 16.9857 88.918 17.0358 88.853 17.0703C88.788 17.1049 88.7155 17.1229 88.6419 17.1228H87.8106ZM76.6519 17.1228C76.5783 17.1229 76.5058 17.1049 76.4408 17.0703C76.3758 17.0358 76.3204 16.9857 76.2793 16.9246C76.2383 16.8636 76.2129 16.7933 76.2054 16.7201C76.198 16.6468 76.2087 16.5729 76.2366 16.5048L81.642 3.27548C81.6757 3.19296 81.7331 3.12235 81.8071 3.07267C81.8811 3.02299 81.9682 2.9965 82.0573 2.99658H82.8332C83.1509 2.99658 83.3682 3.31762 83.2492 3.61324L77.92 16.8426C77.8866 16.9256 77.8292 16.9967 77.755 17.0467C77.6809 17.0968 77.5935 17.1235 77.504 17.1235L76.6519 17.1228ZM79.1667 13.1072C79.1078 13.1073 79.0494 13.0957 78.995 13.0733C78.9406 13.0508 78.8911 13.0178 78.8494 12.9762C78.8077 12.9346 78.7746 12.8851 78.7521 12.8307C78.7295 12.7763 78.7179 12.718 78.7179 12.6591V12.0217C78.7179 11.7742 78.9186 11.5736 79.1667 11.5736H86.1479C86.3953 11.5736 86.596 11.7742 86.596 12.0217V12.6584C86.596 12.9059 86.3953 13.1065 86.1479 13.1065L79.1667 13.1072Z" fill="black"/>
<path d="M90.9136 17.1258C90.8547 17.1259 90.7964 17.1144 90.7419 17.0919C90.6875 17.0694 90.638 17.0364 90.5963 16.9948C90.5546 16.9532 90.5216 16.9037 90.499 16.8493C90.4765 16.7949 90.4648 16.7366 90.4648 16.6777V3.44836C90.4648 3.20089 90.6655 3.00024 90.9136 3.00024H95.0824C96.0009 3.00024 96.8111 3.18841 97.5129 3.56473C98.2281 3.9415 98.7817 4.46631 99.1736 5.13914C99.5785 5.81153 99.7809 6.59183 99.7809 7.48002C99.7809 8.34058 99.5987 9.10749 99.2345 9.78078C98.8857 10.4361 98.3683 10.9863 97.7356 11.3746C97.1011 11.7514 96.3652 11.9397 95.5278 11.9397H92.6352C92.5763 11.9396 92.5179 11.9512 92.4635 11.9737C92.409 11.9961 92.3596 12.0291 92.3179 12.0707C92.2762 12.1124 92.2431 12.1618 92.2206 12.2162C92.198 12.2706 92.1864 12.3289 92.1864 12.3878V16.6777C92.1864 16.9251 91.9857 17.1258 91.7376 17.1258H90.9136ZM92.1864 9.93728C92.1864 10.1847 92.387 10.3854 92.6352 10.3854H95.5278C96.2707 10.3854 96.8782 10.1165 97.3504 9.57879C97.8364 9.02679 98.0796 8.3272 98.0801 7.48002C98.0801 6.6052 97.7965 5.89892 97.2293 5.36119C96.6622 4.82346 95.9398 4.55437 95.0623 4.55392H92.6352C92.5763 4.55383 92.5179 4.56536 92.4635 4.58784C92.409 4.61032 92.3596 4.64331 92.3179 4.68493C92.2762 4.72655 92.2431 4.77598 92.2206 4.83039C92.198 4.8848 92.1864 4.94313 92.1864 5.00203V9.93728Z" fill="black"/>
<path d="M101.726 17.1258C101.667 17.1259 101.609 17.1144 101.554 17.0919C101.5 17.0694 101.451 17.0364 101.409 16.9948C101.367 16.9532 101.334 16.9037 101.312 16.8493C101.289 16.7949 101.277 16.7366 101.277 16.6777V3.44836C101.277 3.20089 101.478 3.00024 101.726 3.00024H102.55C102.798 3.00024 102.999 3.20089 102.999 3.44836V16.6777C102.999 16.9251 102.798 17.1258 102.55 17.1258H101.726Z" fill="black"/>
<path d="M13.0354 0C15.5401 0 17.6208 1.79178 18.0482 4.15272H13.0487L13.0354 4.15205H4.18817V15.9126H11.9505L11.9659 15.912V15.9133H17.8001C17.378 17.1278 16.5877 18.1804 15.5392 18.9245C14.4907 19.6686 13.2362 20.0672 11.9505 20.0647H3.98351V15.9889H0V2.27868C0 1.02062 1.02932 0 2.29875 0H13.0354Z" fill="black"/>
<mask id="mask0_1056_4865" style="mask-type:alpha" maskUnits="userSpaceOnUse" x="13" y="5" width="10" height="10">
<path d="M18.0517 5.36719C18.0544 7.94216 20.1518 10.0289 22.7402 10.0289C20.1505 10.0289 18.0517 12.1176 18.0517 14.6946C18.0517 12.1176 15.953 10.0289 13.3633 10.0289C15.9516 10.0289 18.0491 7.94216 18.0517 5.36719Z" fill="black"/>
</mask>
<g mask="url(#mask0_1056_4865)">
<path d="M18.0517 5.36719C18.0544 7.94216 20.1518 10.0289 22.7402 10.0289C20.1505 10.0289 18.0517 12.1176 18.0517 14.6946C18.0517 12.1176 15.953 10.0289 13.3633 10.0289C15.9516 10.0289 18.0491 7.94216 18.0517 5.36719Z" fill="black"/>
<path d="M18.0517 5.36719C18.0544 7.94216 20.1518 10.0289 22.7402 10.0289C20.1505 10.0289 18.0517 12.1176 18.0517 14.6946C18.0517 12.1176 15.953 10.0289 13.3633 10.0289C15.9516 10.0289 18.0491 7.94216 18.0517 5.36719Z" fill="black"/>
</g>
</svg>
