<svg xmlns="http://www.w3.org/2000/svg" width="176" height="38" fill="none" viewBox="0 0 176 38"><path fill="#494949" d="M51.107 27.812q-2.228 0-3.914-1.207-1.687-1.208-2.64-3.22-.956-2.047-.956-4.462 0-2.55.987-4.596.986-2.08 2.736-3.287 1.75-1.208 4.042-1.208 1.941 0 3.405.94 1.463.905 2.418 2.448v-3.086h3.723v16.74q0 2.616-1.209 4.46-1.177 1.88-3.277 2.852-2.1 1.006-4.774 1.006-2.736 0-4.614-.972-1.845-.94-3.182-2.684l2.323-2.382a6.7 6.7 0 0 0 2.387 1.946 7 7 0 0 0 3.086.704q1.337 0 2.45-.536 1.147-.504 1.846-1.61.7-1.074.7-2.785V24.66a5.83 5.83 0 0 1-2.355 2.348 6.6 6.6 0 0 1-3.182.805m1.432-3.589q1.401 0 2.514-.872 1.146-.872 1.591-2.08v-4.193q-.573-1.543-1.813-2.482-1.21-.94-2.546-.94-1.305 0-2.291.772-.956.771-1.496 2.012a6.3 6.3 0 0 0-.541 2.617q0 1.443.605 2.617a5.04 5.04 0 0 0 1.623 1.878q1.05.67 2.354.671M63.606 22.512q0-1.71.891-2.985.923-1.309 2.546-2.013t3.723-.704q1.05 0 2.132.2 1.082.169 1.878.504v-.94q0-1.677-.955-2.582-.923-.906-2.768-.906a6.9 6.9 0 0 0-2.61.503q-1.24.504-2.609 1.476l-1.368-2.952q1.654-1.14 3.373-1.71 1.749-.57 3.66-.571 3.562 0 5.536 1.879 2.005 1.878 2.005 5.367v5.602q0 .738.223 1.04.222.268.795.335v3.657q-.573.134-1.05.168a5 5 0 0 1-.764.067q-1.272 0-1.94-.604a2.4 2.4 0 0 1-.796-1.476l-.096-.906a7.5 7.5 0 0 1-2.736 2.315 7.4 7.4 0 0 1-3.278.771q-1.686 0-2.991-.704a5.65 5.65 0 0 1-2.069-1.98q-.732-1.275-.732-2.85m10.374.906q.796-.805.796-1.543v-1.778q-1.655-.705-3.341-.705t-2.737.772q-1.05.738-1.05 1.98 0 1.006.764 1.81.763.806 2.195.806.955 0 1.846-.37.922-.368 1.527-.972M82.992 3.224h4.264v18.853q0 1.24.382 1.643.383.403 1.05.403.51 0 1.05-.134.542-.135.955-.336l.573 3.422q-.86.436-2.005.67t-2.068.235q-2.005 0-3.119-1.107-1.082-1.14-1.082-3.22zM93.092 3.224h4.264v18.853q0 1.24.382 1.643t1.05.403q.51 0 1.05-.134.541-.135.955-.336l.573 3.422q-.86.436-2.005.67t-2.068.235q-2.005 0-3.119-1.107-1.082-1.14-1.082-3.22zM102.078 22.512q0-1.71.891-2.985.923-1.309 2.546-2.013t3.723-.704q1.05 0 2.132.2 1.082.169 1.878.504v-.94q0-1.677-.955-2.582-.922-.906-2.769-.906-1.368 0-2.609.503-1.24.504-2.609 1.476l-1.369-2.952q1.656-1.14 3.373-1.71a11.7 11.7 0 0 1 3.66-.571q3.564 0 5.537 1.879 2.004 1.878 2.005 5.367v5.602q0 .738.222 1.04.223.268.796.335v3.657q-.573.134-1.05.168a5 5 0 0 1-.764.067q-1.273 0-1.941-.604a2.4 2.4 0 0 1-.796-1.476l-.095-.906a7.5 7.5 0 0 1-2.737 2.315 7.4 7.4 0 0 1-3.277.771q-1.687 0-2.992-.704a5.65 5.65 0 0 1-2.068-1.98q-.732-1.275-.732-2.85m10.374.906q.796-.805.796-1.543v-1.778q-1.655-.705-3.342-.705-1.686 0-2.736.772-1.05.738-1.051 1.98 0 1.006.764 1.81.763.806 2.196.806.954 0 1.846-.37.922-.368 1.527-.972M130.98 28.048q-1.91 0-3.405-.906a6.46 6.46 0 0 1-2.355-2.482v3.052h-3.723V3.224h4.264v9.996q.891-1.575 2.323-2.482 1.464-.906 3.405-.906 2.164 0 3.787 1.275 1.654 1.242 2.577 3.321t.923 4.562q0 2.55-1.018 4.596t-2.8 3.254q-1.75 1.208-3.978 1.208m-1.177-3.825q1.368 0 2.386-.704a4.7 4.7 0 0 0 1.623-1.879 5.76 5.76 0 0 0 .605-2.616q0-1.443-.573-2.65-.541-1.241-1.528-1.98a3.67 3.67 0 0 0-2.259-.738q-1.4 0-2.577 1.007a6.04 6.04 0 0 0-1.719 2.415v4.193q.414 1.309 1.623 2.147 1.209.805 2.419.805M149.365 28.047q-2.736 0-4.709-1.24a8.56 8.56 0 0 1-2.991-3.355q-1.05-2.08-1.05-4.496 0-2.449 1.05-4.528a8.55 8.55 0 0 1 3.023-3.321q1.972-1.275 4.677-1.275 2.706 0 4.646 1.275a8.25 8.25 0 0 1 3.024 3.32q1.05 2.08 1.05 4.53 0 2.415-1.05 4.494a8.5 8.5 0 0 1-3.024 3.355q-1.94 1.241-4.646 1.241m-4.359-9.09q0 1.542.573 2.75.572 1.175 1.559 1.845a3.87 3.87 0 0 0 2.227.671q1.21 0 2.196-.67.987-.705 1.559-1.88.605-1.206.605-2.75 0-1.51-.605-2.684-.572-1.208-1.559-1.878a3.7 3.7 0 0 0-2.196-.705 3.74 3.74 0 0 0-2.227.705q-.987.67-1.559 1.878-.573 1.175-.573 2.717M162.923 10.134l3.5 5.502.255.604.318-.604 3.468-5.502h4.487l-5.791 8.756 5.887 8.822h-4.487l-3.596-5.468-.286-.57-.255.57-3.564 5.468h-4.487l5.887-8.722-5.791-8.856z"/><path fill="#3364fa" d="M29.382 7.99 18.183 1.108a4.46 4.46 0 0 0-2.328-.661c-.817 0-1.62.228-2.328.661L2.328 7.991A4.83 4.83 0 0 0 .626 9.807 5.2 5.2 0 0 0 0 12.284V26.05c.001.87.217 1.724.626 2.477.408.754.995 1.38 1.702 1.816l11.199 6.886a4.46 4.46 0 0 0 2.328.662c.817 0 1.62-.229 2.328-.662l11.2-6.882a4.83 4.83 0 0 0 1.7-1.816 5.2 5.2 0 0 0 .626-2.478V12.284a5.2 5.2 0 0 0-.625-2.477 4.83 4.83 0 0 0-1.702-1.816m-.016 18.06c0 .432-.107.856-.31 1.23a2.4 2.4 0 0 1-.846.903l-11.185 6.874V20.979a4.6 4.6 0 0 0-.56-2.195 4.23 4.23 0 0 0-1.523-1.596L3.387 10.224l.113-.074L14.7 3.268a2.2 2.2 0 0 1 1.156-.33c.406 0 .805.114 1.157.33L28.21 10.15c.351.217.643.528.846.903.203.374.31.8.31 1.231z"/></svg>