<svg xmlns="http://www.w3.org/2000/svg" width="538" height="75" fill="none" viewBox="0 0 538 75"><g clip-path="url(#a)"><path fill="#00000f" d="M74.938 26.08h9.756l-20.17 29.688h-3.177L40.706 26.08h9.86l12.41 18.66zM126.581 41.666l-32.985.026c0 2.63 2.193 5.183 5.069 6.394 4.057 1.718 6.447 1.862 11.122 1.862 6.145 0 11.121-1.16 16.098-3.633v6.12c-3.243 2.161-9.415 3.932-17.595 3.932-5.489 0-10.295-.573-13.683-2.135-3.322-1.537-5.016-2.735-6.762-5.287-1.654-2.422-2.718-5.234-2.718-8.308 0-4.596 1.89-8.086 5.357-11.146 3.874-3.411 9.599-4.4 16.48-4.4 6.88 0 11.581 1.887 15.139 5.142 3.677 3.36 4.465 7.227 4.465 10.678zM94.345 36.25l23.517-.026c-.486-1.81-1.838-3.255-3.729-4.323-1.891-1.067-4.268-1.81-7.458-1.81s-5.66.521-7.944 1.667c-2.062 1.042-3.65 2.656-4.386 4.492M142.154 26.08v3.724c4.202-2.917 9.363-4.388 14.523-4.388 2.863 0 5.528.481 7.997 1.432 2.468.964 4.005 2.2 5.2 3.932 1.26 1.85 1.93 4.31 1.93 7.917v16.967h-8.562v-15.56c0-3.034-1.181-5.209-2.613-6.498-1.431-1.302-3.807-2.136-7.182-2.136-4.307 0-8.181 1.602-11.293 4.389v19.818h-8.732V26.08zM175.362 30.806l14.864-14.089h.512v8.49h11.648v6.667h-11.648v12.019c0 3.737 2.285 5.599 5.922 5.599 2.613 0 4.675-.612 7.196-2.292v6.888c-3.02 1.485-5.252 2.084-9.126 2.084-3.519 0-5.291-.573-7.891-2.292-.815-.52-1.497-1.29-2.036-1.94-.538-.651-1.05-1.615-1.405-2.657-.354-1.041-.538-3.046-.538-6.002V31.887h-7.511z"/><path fill="#4291e9" d="M37.764 47.708v7.084c-4.806 1.106-9.507 1.666-14.09 1.666-7.576 0-13.156-1.393-17.437-4.18C1.957 49.492 0 45.755 0 41.068s1.825-8.673 5.988-11.577c4.162-2.904 9.546-4.219 16.702-4.219 2.495 0 4.727.144 6.71.443s4.425.846 7.34 1.654v7.227c-4.858-1.928-8.81-2.67-13.498-2.67-4.005 0-8.286.977-10.741 2.526-2.732 1.732-3.664 4.193-3.664 6.42 0 2.604 1.536 4.83 4.044 6.406 2.679 1.667 7.721 2.448 12.173 2.448 3.703-.013 7.93-.677 12.71-2.018"/></g><path stroke="#00000f" stroke-linecap="round" stroke-width="2.178" d="M232 1.089v71.89"/><path fill="#ff4200" d="M276.901 36.76c0-9.256-7.641-16.899-16.901-16.899v-7.058c13.158 0 23.96 10.802 23.96 23.956S273.158 60.716 260 60.716v-7.059c9.26 0 16.901-7.642 16.901-16.898"/><path fill="#ff4200" d="M289.833 37.034c0-16.35-13.477-29.826-29.833-29.826v-6.12c19.735 0 35.952 16.214 35.952 35.946S279.735 72.979 260 72.979v-6.12c16.356 0 29.833-13.474 29.833-29.825"/><path fill="#020617" d="M329.152 60.783q-6.077-.001-10.842-3.038c-3.177-2.027-5.676-4.828-7.507-8.408q-2.746-5.367-2.746-12.377c0-4.672.921-8.921 2.761-12.5 1.838-3.578 4.369-6.37 7.584-8.375q4.825-3.009 11.029-3.01 5.024-.001 9.198 2.014 4.17 2.015 6.917 5.583c1.831 2.38 2.981 5.14 3.458 8.283h-6.98q-.965-4.28-4.342-6.931-3.381-2.652-8.16-2.651-4.372 0-7.648 2.203c-2.181 1.468-3.879 3.522-5.086 6.158q-1.812 3.954-1.814 9.23c0 3.516.604 6.56 1.814 9.197q1.815 3.953 5.086 6.14t7.676 2.189q3.535 0 6.451-1.49a12 12 0 0 0 4.702-4.25c1.189-1.838 1.824-4.033 1.909-6.574h-11.541v-5.739h18.271v24.38h-5.057l-.744-7.041q-2.139 3.135-5.801 5.071-3.658 1.938-8.594 1.938l.008-.004zM368.058 60.782q-4.684 0-8.219-2.17-3.537-2.173-5.505-6.019-1.97-3.843-1.97-8.872c0-3.353.656-6.373 1.97-8.95 1.312-2.573 3.147-4.592 5.505-6.049q3.535-2.187 8.219-2.188 4.685 0 8.205 2.188c2.347 1.457 4.175 3.473 5.492 6.049q1.969 3.86 1.969 8.95c0 3.392-.656 6.307-1.969 8.873q-1.971 3.847-5.492 6.018t-8.205 2.17m0-5.643q4.218 0 6.638-3.102t2.421-8.315c0-3.475-.813-6.317-2.436-8.407q-2.433-3.134-6.62-3.133-4.19 0-6.621 3.116-2.435 3.117-2.435 8.42c0 3.535.808 6.271 2.421 8.33q2.418 3.087 6.638 3.088l-.008.003zM393.495 13.823v46.991h-6.542v-46.99zM446.103 60.783q-4.685-.001-8.205-2.171-3.52-2.172-5.474-6.031-1.954-3.861-1.956-8.856c0-3.328.658-6.349 1.97-8.931q1.97-3.876 5.473-6.063 3.505-2.187 8.189-2.188 3.908 0 6.995 1.535 3.085 1.535 5.008 4.234 1.922 2.7 2.325 6.173h-6.515q-.496-2.758-2.481-4.528t-5.304-1.767q-4.252 0-6.638 3.133-2.389 3.135-2.389 8.407c0 3.515.793 6.246 2.389 8.314q2.386 3.103 6.638 3.102 3.382 0 5.213-1.723 1.83-1.72 2.481-4.606h6.606q-.372 3.412-2.293 6.127-1.924 2.715-5.027 4.28-3.101 1.567-7.008 1.567l.003-.01zM474.728 60.814q-4.902 0-8.128-2.499c-2.149-1.666-3.128-4.376-3.128-7.644q-.001-3.722 1.846-5.724 1.849-2.001 4.807-2.87a39 39 0 0 1 6.282-1.27q3.07-.371 4.871-.62 1.798-.25 2.558-.745c.509-.331.759-.9.759-1.704v-.28q0-2.387-1.736-3.923Q481.122 32 477.988 32q-3.132 0-5.117 1.503-1.986 1.504-2.171 3.77h-6.418q.216-4.684 3.938-7.662 3.72-2.98 9.864-2.979c4.094 0 7.206.992 9.521 2.98q3.473 2.974 3.473 7.971v23.254h-6.452V55.39h-.122c-.683 1.324-1.86 2.763-3.339 3.828q-2.218 1.6-6.437 1.599zm1.429-5.52q4.34.001 6.406-2.248 2.062-2.248 2.061-5.258v-3.847q-.65.527-2.947.945c-1.532.279-3.163.543-4.903.79q-2.698.405-4.746 1.521-2.048 1.117-2.048 3.6.001 2.112 1.659 3.304c1.105.798 2.612 1.192 4.514 1.192zM507.548 60.814q-3.755.001-6.762-1.21c-2.005-.809-3.624-2.005-4.852-3.601-1.231-1.591-1.921-3.568-2.061-5.926h6.452q.555 5.522 7.103 5.52 3.101 0 4.917-1.27 1.814-1.272 1.814-3.226 0-1.675-1.302-2.683c-.869-.67-2.005-1.165-3.414-1.471l-5.427-1.211q-9.398-2.047-9.399-9.367 0-4.34 3.459-7.073 3.457-2.73 9.073-2.729c3.745 0 6.748.957 9.134 2.87q3.584 2.87 3.706 7.831h-6.265q-.03-2.388-1.8-3.956-1.767-1.566-4.682-1.566c-1.944 0-3.339.433-4.437 1.302q-1.645 1.303-1.645 3.194.001 1.673 1.257 2.7 1.256 1.026 3.459 1.52l5.583 1.243q4.774 1.054 7.04 3.258 2.267 2.202 2.266 5.77 0 3.134-1.723 5.383-1.72 2.25-4.7 3.473-2.976 1.223-6.794 1.224zM537.489 27.284v5.397h-6.67v19.502q.001 1.83.759 2.545.762.714 2.714.713h3.194v5.396h-4.126q-9.089.001-9.088-7.817V18.348h6.543v8.932h6.671zM410.839 60.97c-8.654 0-14.412-6.986-14.412-17.276s5.789-17.277 14.38-17.277c4.311 0 8.056 1.794 10.196 5.476h.064V13.421h6.639V60.31h-6.513v-5.067h-.064c-2.234 3.87-5.947 5.727-10.29 5.727m1.353-5.727c5.665 0 9.314-4.563 9.314-11.55 0-6.986-3.649-11.58-9.314-11.58-5.349 0-9.032 4.06-9.032 11.58 0 7.522 3.683 11.55 9.032 11.55"/><defs><clipPath id="a"><path fill="#fff" d="M0 16.634h204v40.8H0z"/></clipPath></defs></svg>