<svg xmlns="http://www.w3.org/2000/svg" width="532" height="135" fill="none" viewBox="0 0 532 135"><path fill="#03008f" d="m11.01 41.888-9.956 8.496a3.01 3.01 0 0 0 0 4.577l9.955 8.448"/><path fill="#004ce6" d="m89.573 76.784 9.955-8.496a3.01 3.01 0 0 0 0-4.577l-9.955-8.448"/><path fill="#004ce6" d="M63.378 28.835c-1.05 0-2.036.193-3.055.305 1.891 3.598 3.055 7.613 3.055 11.949v31.286c0 13.33-10.133 24.202-23.142 25.712 4.363 8.335 13.041 14.085 23.142 14.085 14.463 0 26.196-11.66 26.196-26.018V54.87c0-14.374-11.733-26.034-26.196-26.034"/><path fill="#03008f" d="M37.208 86.16V54.876c0-13.33 10.133-24.203 23.142-25.713-4.363-8.335-13.042-14.084-23.142-14.084-14.464 0-26.196 11.66-26.196 26.017v31.286c0 14.374 11.732 26.018 26.196 26.018 1.034 0 2.036-.193 3.038-.306-1.874-3.581-3.038-7.596-3.038-11.932"/><path fill="#000" d="M135.312 114.24c-6.2 0-12.175-1.127-15.332-3.044l5.975-12.963c1.578 1.127 4.171 1.803 7.215 1.803 5.298 0 9.244-2.367 9.244-8.567v-57.38h15.782v57.943c0 15.332-9.695 22.208-22.884 22.208m58.703.113c-12.626 0-22.321-9.357-22.321-24.124V54.38h15.219v32.128c0 10.145 4.171 14.542 11.723 14.542 6.426 0 12.175-4.397 12.175-14.542V54.38h15.219V113h-14.768v-8.793c-2.818 6.764-8.116 10.146-17.247 10.146m65.568.112c-9.921 0-17.924-3.381-24.35-10.258l10.258-9.356c4.284 4.847 8.793 7.214 13.753 7.214 5.186 0 8.117-2.593 8.117-6.087 0-3.044-1.466-4.735-10.709-6.877-15.67-3.72-18.037-10.822-18.037-18.262 0-10.258 8.116-17.924 21.869-17.924 9.47 0 15.782 2.368 21.757 10.146l-11.047 8.455c-2.819-4.51-6.426-6.313-10.371-6.313-4.171 0-7.328 1.578-7.328 5.185 0 2.03.902 3.833 7.891 5.637 17.022 4.396 20.968 10.71 20.968 19.502 0 10.822-9.808 18.938-22.771 18.938M314.011 113c-11.611 0-17.924-5.411-17.924-18.15V67.346h-8.229V54.38h8.229V42.544l15.219-1.578V54.38h12.4v12.964h-12.4V94.06c0 3.72 1.804 5.411 4.735 5.411h6.312V113zm58.747 1.465c-23.448 0-41.147-18.262-41.147-40.808 0-22.658 16.797-41.033 41.147-41.033 12.851 0 21.756 3.945 28.858 12.4l-11.16 9.695c-4.735-4.96-10.597-7.44-17.698-7.44-15.219 0-24.801 11.95-24.801 26.378 0 14.43 9.582 26.154 25.139 26.154 7.665 0 13.415-2.593 18.036-7.666l11.499 9.808c-5.975 7.214-16.12 12.512-29.873 12.512m63.107 0c-16.12 0-28.972-13.64-28.972-30.55 0-16.909 12.852-30.774 28.972-30.774 10.145 0 15.444 4.17 18.6 10.484V54.38h15.106V113h-14.768v-9.582c-3.156 6.651-8.454 11.047-18.938 11.047m-13.753-30.662c0 8.906 6.538 16.909 16.233 16.909 10.033 0 16.458-7.665 16.458-16.796s-6.425-17.022-16.458-17.022c-9.695 0-16.233 7.778-16.233 16.91M483.122 113V30.708h15.219V113zm28.729 0V30.708h15.218V113z"/></svg>