<svg xmlns="http://www.w3.org/2000/svg" width="89" height="36" fill="none" viewBox="0 0 89 36"><path fill="#7c46f1" d="M29.177 22.254c-1.25.744-2.846 1.265-4.02 1.581-.024-1.879.563-3.613 1.584-4.666.679-.7 1.52-1.07 2.435-1.07 1.402 0 1.94.75 1.978 1.454.067.973-.598 1.881-1.976 2.7m7.779 8.135c.443-.46.539-1.154.261-1.73l-.364-.755c-.547-1.134-1.96-1.52-3.023-.842-1.3.829-2.45 1.18-3.954 1.404-1.356.202-3.275.108-4.005-1.24 1.609-.35 4.14-1.122 6.58-2.527 2.707-1.558 4.014-3.41 3.887-5.506-.096-1.43-.782-2.743-1.932-3.698-1.423-1.182-3.102-1.781-5.69-1.781s-4.45 1.035-6.037 2.735c-2.218 2.373-3.118 5.631-2.95 8.05.36 5.562 4.299 8.503 9.213 8.503 3.645 0 6.624-1.165 8.014-2.611M63.548 28.613c-.192 0-.401-.106-.602-.308-.5-.5-1.002-1.65-1-3.095-.009-2.803.579-4.818 1.748-5.99.742-.743 1.69-1.12 2.822-1.12.733 0 1.384.247 1.832.697.523.524.785 1.307.78 2.327v.002c.026 2.342-2.362 4.94-3.095 5.68-1.162 1.173-2.147 1.807-2.485 1.807m10.986.37.023-8.373c.004-1.838-.642-3.458-1.868-4.684-1.446-1.448-3.573-2.213-6.151-2.213-2.794 0-5.332 1.001-7.146 2.82-2.046 2.05-3.121 5.051-3.108 8.676-.009 1.313.47 3.974 2.344 5.858 1.064 1.07 2.4 1.612 3.97 1.612 2.225 0 4.895-2.123 6.564-4.519l-.02 1.745c.03 1.924.647 2.775 2.633 2.775h1.557c.675 0 1.222-.549 1.217-1.224l-.015-2.472zM84.243 9.98a.69.69 0 0 0-.193-.619l-4.31-4.305a.7.7 0 0 0-.62-.193.69.69 0 0 0-.512.4l-3.524 7.825a.68.68 0 0 0 .144.78.69.69 0 0 0 .78.143l7.834-3.519a.69.69 0 0 0 .401-.51M72.447 11.735a.69.69 0 0 0 .747.266.68.68 0 0 0 .514-.597l1.11-7.634a.69.69 0 0 0-.242-.603.7.7 0 0 0-.634-.143L68.055 4.6a.69.69 0 0 0-.477.44.7.7 0 0 0 .096.649zM85.678 14.589a.7.7 0 0 0-.61-.242l-7.627 1.108a.68.68 0 0 0-.605.514.68.68 0 0 0 .262.743l6.062 4.777a.69.69 0 0 0 .643.091.69.69 0 0 0 .44-.477l1.578-5.88a.69.69 0 0 0-.143-.634M16.537 32.587h2.306a.846.846 0 0 0 .702-1.319l-5.883-8.696 5.096-6.714a.983.983 0 0 0-.785-1.577h-.218s-1.64.02-2.264.087c-1.064.117-2.079.508-2.72 1.364l-4.405 5.89V8.297c0-.858-.697-1.553-1.556-1.553H5.286a2.11 2.11 0 0 0-2.108 2.103L3 31.032c0 .858.698 1.555 1.557 1.555h1.718a2.09 2.09 0 0 0 2.091-2.088v-6.956l4.804 7.24a4.04 4.04 0 0 0 3.366 1.805M52.952 32.587h2.306a.846.846 0 0 0 .701-1.319l-5.883-8.696 5.097-6.714a.983.983 0 0 0-.786-1.577h-.217s-1.64.02-2.265.087c-1.063.117-2.077.508-2.72 1.364l-4.404 5.89V8.297c0-.858-.697-1.553-1.556-1.553H41.7a2.11 2.11 0 0 0-2.107 2.103l-.178 22.186c0 .858.698 1.555 1.556 1.555h1.719a2.09 2.09 0 0 0 2.09-2.088v-6.956l4.805 7.24a4.04 4.04 0 0 0 3.366 1.805"/></svg>