<svg xmlns="http://www.w3.org/2000/svg" width="217" height="50" fill="none" viewBox="0 0 217 50"><path fill="#0d0d0d" d="M7.979 31.632V12.69l14.455 5.484v19.44zM29.893 24.905v-2.742l14.455-5.732v2.741zM23.418 37.866v-2.991l14.705-5.637v2.742z" opacity=".4"/><path fill="#0d0d0d" d="M1.494 35.622V9.952l5.483 2.242v20.188L22.43 39.11v5.234zM23.428 44.345V39.11l15.452-6.48v-4.736l-15.452 5.733V18.176L44.363 10.2v5.234l-15.452 5.982V26.4l15.452-5.981V35.87z"/><path fill="#0d0d0d" d="M22.927 17.178 2.49 9.203l20.935-4.486 20.437 4.486z" opacity=".2"/><path fill="#0d0d0d" d="M62.64 29.73V31h-5.895v-1.27zm-5.587-10.52V31H55.49V19.21zm11.903 1.045-3.903 10.746h-1.595l4.494-11.79h1.029zm3.272 10.746-3.911-10.746-.025-1.044h1.029L73.83 31zm-.203-4.365v1.28h-6.624v-1.28zm6.689-7.425V31h-1.539V19.21zm3.79 0v1.28h-9.11v-1.28zm9.238 10.518v1.272H85.5v-1.272zm-5.927-10.518V31h-1.563V19.21zm5.101 5.069v1.271H85.5V24.28zm.745-5.07v1.28H85.5v-1.28zm7.839 8.706q0-.316-.097-.567a1.07 1.07 0 0 0-.34-.47 3 3 0 0 0-.705-.43 10 10 0 0 0-1.174-.436 15 15 0 0 1-1.522-.583 6.3 6.3 0 0 1-1.264-.753 3.4 3.4 0 0 1-.858-1.013q-.308-.574-.308-1.336 0-.736.324-1.336.324-.607.907-1.036a4.3 4.3 0 0 1 1.377-.672 6.2 6.2 0 0 1 1.757-.235q1.303 0 2.275.47t1.506 1.287q.543.818.543 1.87h-2.413q0-.517-.219-.906a1.48 1.48 0 0 0-.648-.624q-.43-.227-1.085-.227-.631 0-1.052.195-.422.186-.632.51-.21.316-.21.712 0 .3.145.543.154.243.454.453t.737.397q.436.186 1.012.364.963.292 1.692.656.737.365 1.231.818.493.453.745 1.029.25.574.251 1.303 0 .77-.3 1.377t-.866 1.028a4.1 4.1 0 0 1-1.352.64 6.6 6.6 0 0 1-1.758.219 6.7 6.7 0 0 1-1.724-.227 5.2 5.2 0 0 1-1.547-.705 3.55 3.55 0 0 1-1.101-1.198q-.413-.728-.413-1.725h2.437q0 .551.17.931.17.382.478.616.315.234.745.34.438.105.956.105.63 0 1.036-.178.413-.178.607-.494.203-.316.203-.712m11.943-3.904v1.895h-6.154v-1.895zm-5.433-4.801V31h-2.429V19.21zm7.166 0V31h-2.421V19.21zm4.697 0V31h-2.422V19.21zm6.866 7.587h-3.004v-1.895h3.004q.696 0 1.134-.226.437-.235.639-.648t.202-.931q0-.527-.202-.98a1.64 1.64 0 0 0-.639-.729q-.438-.275-1.134-.275h-2.162V31h-2.429V19.21h4.591q1.385 0 2.373.502.996.494 1.522 1.368t.527 2q-.001 1.143-.527 1.976-.526.834-1.522 1.288-.988.453-2.373.453m7.207-7.587h2.057l3.028 8.656 3.028-8.656h2.057L137.857 31h-1.651zm-1.109 0h2.049l.372 8.437v3.353h-2.421zm10.34 0h2.056V31h-2.429v-3.353zm12.097 9.895V31h-6.275v-1.895zm-5.482-9.895V31h-2.429V19.21zm4.665 4.802v1.846h-5.458v-1.847zm.809-4.802v1.903h-6.267V19.21zm11.021 0V31h-2.429l-4.737-7.904v7.904h-2.429V19.21h2.429l4.745 7.911v-7.911zm7.141 0V31h-2.42V19.21zm3.629 0v1.903h-9.62V19.21zm1.497 10.996a.92.92 0 0 1 .235-.64q.243-.267.697-.267t.688.267a.9.9 0 0 1 .243.64.9.9 0 0 1-.243.632q-.235.259-.688.259-.454 0-.697-.26a.9.9 0 0 1-.235-.631m11.693-2.956h1.555a5 5 0 0 1-.64 2 3.74 3.74 0 0 1-1.465 1.401q-.948.51-2.365.51-1.037 0-1.886-.388a4.2 4.2 0 0 1-1.45-1.101 5.15 5.15 0 0 1-.939-1.725q-.324-1.012-.324-2.251v-1.174q0-1.24.324-2.243a5 5 0 0 1 .947-1.733 4.2 4.2 0 0 1 1.498-1.11q.874-.388 1.967-.388 1.337 0 2.259.502a3.6 3.6 0 0 1 1.434 1.393q.518.881.64 2.048h-1.555q-.113-.825-.421-1.417a2.2 2.2 0 0 0-.874-.923q-.568-.324-1.483-.324-.785 0-1.385.3-.59.3-.995.85a4 4 0 0 0-.6 1.32 6.7 6.7 0 0 0-.202 1.709v1.19q0 .866.179 1.627.185.762.558 1.336.372.576.948.907.574.324 1.36.324.995 0 1.587-.315.59-.316.89-.907.308-.592.438-1.418m12.761-2.518v.745q0 1.328-.331 2.38-.332 1.055-.956 1.79a4.14 4.14 0 0 1-1.498 1.126q-.865.389-1.944.389-1.044 0-1.918-.39a4.3 4.3 0 0 1-1.507-1.125q-.631-.735-.98-1.79-.348-1.052-.347-2.38v-.745q-.001-1.328.34-2.372.348-1.053.98-1.79a4.2 4.2 0 0 1 1.497-1.134 4.7 4.7 0 0 1 1.919-.388q1.078 0 1.944.389.874.389 1.497 1.133.633.737.964 1.79.341 1.044.34 2.372m-1.546.745v-.761q0-1.052-.219-1.862-.21-.81-.624-1.36a2.7 2.7 0 0 0-1.011-.835 3.1 3.1 0 0 0-1.345-.283q-.728 0-1.32.283a2.8 2.8 0 0 0-1.004.834q-.412.55-.64 1.36-.226.81-.226 1.863v.761q0 1.06.226 1.879.228.81.649 1.368.428.55 1.011.834.592.285 1.32.284.762 0 1.353-.284t.996-.834q.413-.558.624-1.368.21-.819.21-1.879m4.381-6.267h1.514l3.862 9.611 3.854-9.611h1.523L209.802 31h-1.181zm-.495 0h1.336l.219 7.19v4.6h-1.555zm10.398 0h1.336V31h-1.555v-4.6z"/></svg>