<svg xmlns="http://www.w3.org/2000/svg" width="1111" height="252" fill="none" viewBox="0 0 1111 252"><path fill="#1c57ab" d="M788.805 124.901c-.8 0-1.5-.7-1.5-1.5 0-35.5 29.7-64.4 66.1-64.4s28.1 4.4 39.6 12.8c.7.5.8 1.4.3 2.1s-1.4.8-2.1.3c-11-8-24.1-12.3-37.9-12.3-34.8 0-63.2 27.6-63.2 61.4s-.7 1.5-1.5 1.5zM853.504 187.801c-.8 0-1.5-.7-1.5-1.5s.7-1.5 1.5-1.5c34.8 0 63.2-27.6 63.2-61.4s-2.4-19.4-7-28.1c-.4-.7-.1-1.6.6-2s1.6-.1 2 .6c4.8 9 7.3 19.3 7.3 29.5 0 35.5-29.7 64.4-66.1 64.4"/><path fill="#1c57ab" d="M866.404 199.401c-.7 0-1.4-.6-1.5-1.3 0-.8.5-1.5 1.3-1.6 25.4-3 41.3-18.5 50.3-31 11.4-16 18-36.6 18-56.5s-6.9-36.5-19.3-50.6c-12-13.6-28.2-22.3-44.5-23.7-.8 0-1.4-.8-1.3-1.6 0-.8.8-1.4 1.6-1.3 17 1.5 34 10.5 46.5 24.7 12.9 14.7 20.1 33.4 20.1 52.6s-6.8 41.7-18.6 58.2c-9.3 12.9-25.8 29-52.3 32.2h-.2z"/><path fill="#1c57ab" d="M836.804 168.801h-.5c-25-8.2-41.8-31.7-41.8-58.4s27.1-61.3 60.4-61.3 27.6 5 38.3 14c.6.5.7 1.5.2 2.1s-1.5.7-2.1.2c-10.2-8.6-23.2-13.3-36.4-13.3-31.7 0-57.4 26.2-57.4 58.4s16 47.8 39.8 55.6c.8.3 1.2 1.1.9 1.9-.2.6-.8 1-1.4 1z"/><path fill="#1c57ab" d="M859.604 178.501c-.8 0-1.5-.7-1.5-1.5s.7-1.5 1.5-1.5c32.4 0 58.7-26.8 58.7-59.7s-26.3-59.7-58.7-59.7-1.5-.7-1.5-1.5.7-1.5 1.5-1.5c34 0 61.7 28.1 61.7 62.6s-27.7 62.6-61.7 62.6zM833.704 189.301c-42.7-12.6-52.3-46.8-52.4-47.1-.2-.8-1-1.3-1.8-1-.8.2-1.3 1-1 1.8 0 .4 2.5 9.2 10.4 19.7 2 2.7 4.6 5.7 7.7 8.7v.2c.9 1.7 2.2 4.7 2 5.9-.1.8.4 1.6 1.2 1.7h.2c.7 0 1.3-.5 1.5-1.2.1-.7 0-1.4-.1-2.2 7.6 6.3 17.9 12.4 31.5 16.4h.4c.6 0 1.2-.4 1.4-1.1.2-.8-.2-1.6-1-1.8"/><path fill="#1c57ab" d="M955.304 91.2c-.3-.8-1.1-1.1-1.9-.9 0 0-6.2 2.5-9.3 8.5-1.101-4.5-2.7-9-4.8-13.3-.4-.7-1.3-1-2-.7s-1.001 1.3-.7 2c16.5 33-1.5 75.7-40.2 95-28.7 14.3-61.5 12.5-83.7-4.8-.6-.5-1.601-.4-2.101.3-.5.6-.399 1.6.301 2.1 12.8 9.9 28.9 15 45.9 15s27.7-3.3 41-9.9c11.7-5.9 21.6-13.8 29.3-23 0 0 .1 0 .2-.1 7.4-6.4 18.3-9.4 18.4-9.4.8-.2 1.3-1 1-1.8-.2-.8-1-1.3-1.8-1-.3 0-6.101 1.7-12.3 5.1 9.8-14.5 14.5-31.3 12.8-47.5v-.2c-.4-9.8 8.6-13.4 9-13.6.8-.3 1.1-1.1.9-1.9zM812.303 106.701s-4.3-7.7-5.1-15.2v-.2c.7-5 1.2-9.7 1-13.8 0-.8-.8-1.4-1.6-1.4s-1.4.8-1.4 1.6c.3 4.1-.4 9.1-1.1 14.5-.1 1-.3 2-.4 3.1-1.3 10.4-2.4 22.3 2.5 33.5.2.6.8.9 1.4.9s.4 0 .6-.1c.7-.3 1.1-1.2.8-1.9-4-9.1-3.8-18.9-2.8-27.9 1.6 4.7 3.5 8.2 3.6 8.4.3.5.8.8 1.3.8s.5 0 .7-.2c.7-.4 1-1.3.6-2zM898.203 30.6s-5.7-1.7-14.1-3.2c1.3-.5 2.2-1 2.3-1 .7-.4 1-1.2.7-2-.4-.7-1.2-1-2-.7 0 0-4.8 2.3-7.9 2.6-3.5-.4-7.4-.8-11.4-1-23.6-1-42.2 5-53.8 17.3-.6.6-.5 1.5 0 2.1.3.3.6.4 1 .4s.8-.2 1.1-.5c26.7-28.3 82.6-11.6 83.2-11.4.8.2 1.6-.2 1.8-1s-.2-1.6-1-1.8z"/><path fill="#1c57ab" d="M914.003 160.801c-.3 0-.6 0-.8-.2-.7-.5-.9-1.4-.4-2 .1-.2 11.4-17.4 13.7-44.9 0-.8.8-1.4 1.6-1.3.8 0 1.4.8 1.3 1.6-2.4 28.3-13.7 45.6-14.2 46.3-.3.4-.8.7-1.2.7zM868.503 166.501c-.4-.7-1.3-.9-2-.5-8.1 5.1-17.7 7.6-26 8.9 2.5-2.4 4-5.1 4.1-5.2.4-.7.2-1.6-.6-2-.7-.4-1.6-.2-2 .6 0 0-3.3 5.8-7.8 7.5-7.8.7-13.4.3-13.5.3-.8 0-1.5.6-1.6 1.4s.6 1.5 1.4 1.6c.3 0 2 .1 4.8.1 8.8 0 27.9-1.2 42.8-10.6.7-.4.9-1.3.5-2zM788.803 122.901c-.8 0-1.5-.6-1.5-1.4-.7-28.4 8.6-46.8 9-47.6.4-.7 1.3-1 2-.6s1 1.3.6 2c0 .2-9.4 18.6-8.7 46.2 0 .8-.6 1.5-1.4 1.5zM783.604 112.8h-24.2v9.2h24.2z"/><path fill="#1c57ab" d="M857.205 36.2c-19.5 0-37.2 7.5-50.5 19.8-.8-4.9-2.4-9.3-4.7-13.4-3.5-6.1-8.5-10.9-14.6-14.3s-13.1-5.1-20.7-5.1-15.6 1.6-21.9 4.8c-6.4 3.3-11.5 8-15.1 14s-5.4 13.1-5.4 21.1h9.2c0-6.4 1.4-11.9 4.1-16.4 2.8-4.6 6.5-8 11.4-10.5 5-2.5 11-3.8 17.7-3.8s11.6 1.3 16.3 3.9c4.8 2.6 8.4 6.2 11.1 10.9 2.7 4.6 4.1 10.2 4.1 16.4v2.8h11.2c11.9-12.9 28.9-21 47.8-21 32.7 0 59.8 24.2 64.4 55.6h9.4c-4.7-36.5-36-64.9-73.7-64.9z"/><path fill="#1c57ab" d="M795.205 131.001h-61.9v-10.7l42.8-38c3.8-3.3 6.4-6.5 8.1-9.6 1.7-3.2 2.6-6.4 2.6-9.4s-.8-7.6-2.5-10.7c-1.7-3.3-4.2-5.9-7.3-7.7-3.1-1.9-6.7-2.8-10.8-2.8s-8 1-11.3 3c-3.2 1.9-5.8 4.6-7.6 7.8-1.8 3.3-2.7 6.8-2.6 10.6l9.2-.3c0-2.1.4-4 1.4-5.8s2.5-3.3 4.3-4.4c1.9-1.1 4-1.7 6.6-1.7s4.4.5 6.1 1.5 3 2.4 3.9 4.1c1 1.9 1.5 4 1.5 6.5s-.5 3.2-1.5 5.1c-1.1 2.1-3.1 4.4-6 7l-45.9 40.7v24h64.6c5.9 13.7 15.8 25.3 28.2 33.3 3.5 0 10.3 0 18.1-1.3-18.9-6.8-33.7-22.1-39.9-41.2z"/><path fill="#35c8a3" d="M954.405 101.8c1 1.2 2.8 1.4 4.1.4l3.4-2.6-3.6-4.6c-1-1.2-2.8-1.4-4.1-.4l-3.4 2.6zM950.605 85.7c-.7-.9-.5-2.1.4-2.8l2.3-1.8 2.5 3.2c.7.9.5 2.1-.4 2.8l-2.3 1.8zM943.304 160.6c.5 1.5 2.1 2.3 3.7 1.8l4-1.3-1.8-5.5c-.5-1.5-2.1-2.3-3.7-1.8l-4 1.3zM944.504 144.501c-.3-1 .2-2.2 1.3-2.5l2.8-.9 1.3 3.8c.3 1-.2 2.2-1.3 2.5l-2.8.9zM846.904 13.5c-.2-2.8 1.9-5.2 4.8-5.5l7.5-.6.9 10.3c.2 2.8-1.9 5.2-4.8 5.5l-7.5.6zM872.506 169.7c.7 1.3 2.4 1.8 3.8 1.1l3.6-1.9-2.6-5c-.7-1.3-2.4-1.8-3.8-1.1l-3.6 1.9zM858.006 159.6c-.9-1.9 0-4.3 2-5.2l5.2-2.5 3.4 7.2c.9 1.9 0 4.3-2 5.2l-5.2 2.5zM777.605 163.1c-1.7 1.2-2.1 3.6-.8 5.4l3.2 4.6 6.4-4.4c1.7-1.2 2.1-3.6.8-5.4l-3.2-4.6zM820.505 82.8c1.1 1.7 3.5 2.1 5.3.9l4.6-3.1-4.3-6.3c-1.1-1.7-3.5-2.1-5.3-.9l-4.6 3.1z"/><path fill="#0f2359" d="M1014.71 68.4c.9-.5 1.5-1.1 2-2 .5-.8.7-1.8.7-3s-.3-2.2-1-3.1c-.5-.7-1.2-1.2-2-1.5.5-.3.9-.7 1.3-1.2.5-.8.8-1.7.8-2.8s-.2-1.7-.6-2.5-1.1-1.4-1.9-2-1.9-.8-3.1-.8h-7.7V69h8.4c1.2 0 2.3-.2 3.2-.7zm-8.7-16.1h4.7c.8 0 1.5.2 2 .7s.8 1.1.8 1.9-.1 1.1-.4 1.5c-.2.4-.6.7-1 .9s-.9.3-1.4.3h-4.7zm0 14.1v-6.2h5.3c.6 0 1.2.1 1.7.4s.9.6 1.1 1.1c.3.5.4 1 .4 1.6s-.1 1.2-.4 1.6c-.3.5-.7.8-1.2 1s-1.1.4-1.7.4h-5.1zM1020.41 66c.2.6.6 1.2 1 1.7s1 1 1.7 1.3 1.5.5 2.5.5 2.4-.3 3.4-.9c.6-.4 1.1-.8 1.5-1.3v1.8h2.5V54.5h-2.9v7.6c0 .9 0 1.6-.3 2.2-.2.6-.5 1.1-.8 1.5s-.7.6-1.2.8-.9.3-1.4.3c-.8 0-1.4-.2-1.9-.5s-.9-.7-1.1-1.2-.4-1.1-.5-1.7c0-.6-.1-1.2-.1-1.8v-7.2h-2.9v8.1c0 .5 0 1 .1 1.6 0 .6.2 1.2.5 1.8zM1039.81 49.3h-2.8V52h2.8zM1039.81 54.5h-2.8v14.6h2.8zM1047.1 49.2h-2.8v19.9h2.8zM1053.5 68.5c1 .7 2.2 1 3.5 1s2.6-.3 3.5-1c.3-.2.6-.5.8-.7v1.4h2.5V49.7h-2.8v5.9c-.2-.1-.3-.3-.5-.4-.9-.7-2.1-1-3.5-1s-2.6.3-3.6 1-1.8 1.6-2.3 2.7c-.5 1.2-.8 2.5-.8 3.9s.3 2.8.8 3.9c.5 1.2 1.3 2.1 2.3 2.8zm.3-9.3c.3-.8.7-1.4 1.3-1.9s1.4-.7 2.3-.7 1.6.2 2.2.6 1 1 1.3 1.8.4 1.7.4 2.7-.1 1.9-.4 2.7-.7 1.4-1.3 1.8-1.3.7-2.3.7-1.6-.2-2.2-.7-1-1.1-1.3-1.9-.4-1.7-.4-2.6.1-1.8.4-2.6zM1070.81 49.3h-2.8V52h2.8zM1070.81 54.5h-2.8v14.6h2.8zM1077.8 61.5c0-.9 0-1.6.3-2.2.2-.6.5-1.1.8-1.5s.7-.6 1.2-.8.9-.3 1.4-.3c.8 0 1.4.2 1.9.5s.9.7 1.1 1.2c.3.5.4 1.1.5 1.7 0 .6.1 1.2.1 1.8v7.2h2.9V61c0-.5 0-1-.1-1.6 0-.6-.2-1.2-.5-1.8s-.6-1.2-1-1.7-1-1-1.7-1.3-1.5-.5-2.5-.5-2.4.3-3.4.9c-.6.4-1.1.8-1.5 1.3v-1.8h-2.5v14.6h2.9v-7.6zM1101.8 54.5v1.3c-.3-.3-.5-.5-.8-.7-.9-.7-2.1-1-3.5-1s-2.6.3-3.6 1-1.8 1.6-2.3 2.7c-.5 1.2-.8 2.5-.8 3.9s.3 2.8.8 3.9c.5 1.2 1.3 2.1 2.3 2.8s2.2 1 3.5 1 2.6-.3 3.5-1c.2-.1.3-.3.5-.4v1.4c0 .8-.1 1.5-.4 2.1s-.7 1-1.3 1.3-1.3.4-2.1.4-1.3-.1-1.9-.4-1-.7-1.4-1.4l-2.6 1.3q.6 1.05 1.5 1.8c.6.5 1.3.8 2 1.1.7.2 1.5.4 2.3.4 1.1 0 2.2-.2 3.1-.5s1.6-.8 2.2-1.4 1-1.5 1.2-2.4c0-.4.1-.7.1-1.1V54.5h-2.5zm-1.7 11.8c-.6.4-1.3.7-2.3.7s-1.6-.2-2.2-.7-1-1.1-1.3-1.9-.4-1.7-.4-2.6.1-1.8.4-2.6.7-1.4 1.3-1.9 1.4-.7 2.3-.7 1.6.2 2.2.6 1 1 1.3 1.8.4 1.7.4 2.7-.1 1.9-.4 2.7-.7 1.4-1.3 1.8zM1023.91 85.1l-4.1 14.7-4.1-14.7h-2.9l-4.1 14.7-4.1-14.7h-3l5.6 19.501h2.9l4.1-14.6 4.2 14.6h2.8l5.7-19.5zM1038.81 94c.3.5.4 1.1.5 1.7 0 .6.1 1.2.1 1.8v7.2h2.9v-8.1c0-.5 0-1-.1-1.6 0-.6-.2-1.2-.5-1.8s-.6-1.2-1-1.7-1-1-1.7-1.3-1.5-.5-2.5-.5-2.4.3-3.4.9c-.6.4-1.1.8-1.5 1.3v-6.6h-2.5v19.5h2.9v-7.6c0-.9 0-1.6.3-2.2.2-.6.5-1.1.8-1.5s.7-.6 1.2-.8.9-.3 1.4-.3c.8 0 1.4.2 1.9.5s.9.7 1.1 1.2zM1045.61 93.6l2.6.8c.3-.8.7-1.4 1.3-1.8s1.3-.5 2.1-.5c1.2 0 2.1.3 2.6.8.4.5.7 1.2.7 2.1-.5 0-1.1.2-1.7.2-.9.1-1.8.3-2.6.4s-1.6.3-2.2.5c-.7.2-1.4.6-1.9 1s-.9.9-1.2 1.4c-.3.6-.4 1.2-.4 1.9s.2 1.5.6 2.2.9 1.2 1.7 1.6q1.05.6 2.7.6c1.1 0 2.5-.3 3.4-.8.7-.4 1.3-1 1.8-1.7v2.1h2.5V93.7c0-.5-.2-1-.4-1.5q-.75-1.5-2.1-2.1c-1-.4-2.1-.7-3.4-.7s-3 .4-4.1 1.1-1.7 1.7-2.1 3zm9.1 6.2c-.1.5-.3.9-.7 1.4-.4.4-.8.8-1.4 1.1s-1.3.4-2.1.4-1.1 0-1.5-.3c-.4-.2-.7-.4-.9-.8-.2-.3-.3-.7-.3-1s0-.7.3-1c.2-.3.4-.5.7-.7s.6-.4 1-.5c.5-.1 1-.3 1.6-.4s1.3-.2 2-.3c.5 0 1-.1 1.5-.2v.8q0 .75-.3 1.5zM1065.4 85.9h-2.8V90h-2.8v2.3h2.8v8.7c0 .6.2 1.2.5 1.8.4.7.9 1.2 1.6 1.5s1.5.5 2.4.5 1.8 0 2.7-.2v-2.4c-1 .1-1.8.2-2.5 0-.7 0-1.2-.4-1.5-1-.2-.3-.3-.7-.3-1.1v-8h4.3v-2.3h-4.3v-4.1zM1073.11 88.3h1.6v1c0 .3-.2.5-.4.7s-.5.2-.9.2l-.2 1.3c1 .2 1.7 0 2.2-.6.5-.5.8-1.3.8-2.4V85h-3v3.3zM1087.41 97.1c-.7-.4-1.7-.7-2.9-1-1.1-.3-2-.5-2.6-.7q-.9-.3-1.2-.6c-.2-.2-.3-.5-.3-.8 0-.6.3-1 .8-1.3s1.2-.5 2.1-.4c.9 0 1.6.3 2.2.7s.9 1 1 1.7l2.9-.5c-.1-.9-.4-1.6-1-2.3q-.75-.9-2.1-1.5c-.9-.4-1.9-.5-3-.5s-2.1.2-3 .5-1.5.9-2 1.5c-.5.7-.7 1.4-.7 2.3s.2 1.3.5 1.8.8.9 1.6 1.3c.7.4 1.7.7 3 1 1.1.3 2 .6 2.6.8s.9.4 1.1.7q.3.3.3.9c0 .6-.3 1.1-.8 1.5s-1.2.5-2.1.5-1.8-.2-2.4-.7-1.1-1-1.3-1.8l-2.9.4c.3 1.4.9 2.5 2.1 3.3 1.1.8 2.6 1.2 4.3 1.2s3.3-.4 4.3-1.2c1.1-.8 1.6-2 1.6-3.4s-.2-1.4-.5-1.9-.8-1-1.5-1.4zM1015.61 135.001l-9.6-14.4h-2.9v19.4h2.9v-14.5l9.6 14.5h2.8v-19.4h-2.8zM1032.41 126.101c-1-.7-2.3-1-3.8-1s-2.7.3-3.7 1c-1.1.6-1.9 1.5-2.5 2.7q-.9 1.8-.9 4.2c0 1.6.3 2.8.9 4 .6 1.1 1.5 2 2.6 2.7 1.1.6 2.4 1 3.8 1s2.7-.4 3.9-1.1 2-1.7 2.6-3l-2.8-.9c-.4.7-.9 1.3-1.5 1.7s-1.4.6-2.3.6c-1.3 0-2.4-.4-3.1-1.3-.6-.7-.9-1.7-1-2.9h10.9c.1-1.7 0-3.3-.6-4.5-.5-1.3-1.3-2.3-2.3-2.9zm-6.9 2.8c.7-.9 1.8-1.3 3.2-1.3s2.2.4 2.9 1.2c.5.6.8 1.5.9 2.6h-7.9c.2-1 .5-1.8 1-2.5zM1050.4 125.4h-3.4l-3.6 5-3.6-5h-3.4l5.4 7.2-5.5 7.4h3.4l3.7-5.1 3.7 5.1h3.4l-5.5-7.4zM1056.81 121.4h-2.8v4.1h-2.8v2.3h2.8v8.7c0 .6.2 1.2.5 1.8.4.7.9 1.2 1.6 1.5s1.5.5 2.4.5 1.8 0 2.7-.2v-2.4c-1 .1-1.8.2-2.5 0-.7 0-1.2-.4-1.5-1-.2-.3-.3-.7-.3-1.1v-8h4.3v-2.3h-4.3v-4.1z"/><path fill="#1c57ab" d="m814.005 230.6-7.5-18.7h-3.2l9.2 22.7-3.7 10.2h3l12.2-32.9h-3.1zM846.205 224.2h1.7c0-2.7-.3-5-1.1-6.9s-2-3.4-3.6-4.4q-2.4-1.5-5.7-1.5t-5.7 1.5c-1.6 1-2.9 2.4-3.7 4.2-.9 1.8-1.3 4-1.3 6.4s.4 4.5 1.3 6.3 2.2 3.2 3.8 4.1 3.5 1.5 5.8 1.5 4.2-.5 5.9-1.6 3.1-2.6 4-4.6l-2.9-1.1c-.7 1.4-1.7 2.5-2.9 3.3s-2.6 1.1-4.3 1.1c-2.4 0-4.2-.8-5.5-2.4-1.2-1.4-1.8-3.3-1.9-5.8h16.2zm-14.3-7.7c1.3-1.6 3.2-2.4 5.6-2.4s4.1.8 5.3 2.3c1 1.2 1.6 3 1.8 5.2h-14.6c.2-2.1.8-3.8 1.9-5.1M870.406 215.901c-.6-1.5-1.601-2.6-3.101-3.4s-3.2-1.2-5.3-1.2-4.599.6-6.099 1.7c-1.6 1.1-2.601 2.7-3.101 4.7l3 .9c.4-1.5 1.2-2.6 2.3-3.3s2.4-1.1 3.9-1.1c2.3 0 3.8.5 4.8 1.6.8 1 1.3 2.5 1.3 4.5q-1.05.15-2.399.3c-1.3.2-2.701.4-4.101.6s-2.7.5-3.8.7c-1.1.3-2.1.7-3 1.3s-1.5 1.3-2 2.2-.7 1.9-.7 3.2.3 2.3.9 3.3 1.4 1.8 2.6 2.5c1.2.6 2.601.9 4.301.9s4.2-.5 5.8-1.5c1.2-.7 2.099-1.7 2.799-2.9v3.8h2.8v-14.1c0-.8.001-1.7-.099-2.5 0-.8-.3-1.6-.5-2.2zm-2.7 10.7c-.2 1.1-.6 2.2-1.3 3.1s-1.501 1.6-2.601 2.1-2.3.8-3.8.8-2.2-.2-2.9-.6-1.3-.9-1.6-1.5-.5-1.3-.5-1.9.2-1.5.6-2 .9-1 1.5-1.3 1.2-.6 1.9-.8c1-.3 2.001-.5 3.201-.7s2.399-.3 3.599-.5c.8 0 1.5-.2 2.2-.3v1.2q0 1.35-.299 2.4M884.206 212.201q-1.2.45-2.101 1.2c-.5.4-.9.8-1.3 1.4-.2.2-.299.5-.399.7v-3.6h-2.801v22.7h3.101v-11.3c0-.9 0-1.8.2-2.7.1-.9.4-1.8.8-2.6s.9-1.5 1.7-2.1q1.2-1.05 2.699-1.2c1-.1 1.9 0 2.7.1v-2.9c-.7-.2-1.4-.2-2.2-.2s-1.599.2-2.399.5M909.605 225.4c-.5-.8-1.4-1.5-2.5-2.1-1.2-.6-2.799-1.1-4.899-1.7-1.8-.4-3.201-.9-4.101-1.2s-1.6-.8-2-1.2-.5-.9-.5-1.5c0-1.1.5-1.9 1.5-2.6q1.5-1.05 3.9-.9 2.55 0 4.201 1.2c1.1.8 1.8 1.8 2 3.2l3.2-.6c-.2-1.3-.6-2.5-1.5-3.5-.8-1-1.901-1.8-3.301-2.3-1.4-.6-2.9-.8-4.6-.8s-3.2.3-4.5.8-2.3 1.3-3 2.3-1.099 2.1-1.099 3.4.199 2 .699 2.7 1.3 1.4 2.5 1.9c1.2.6 2.801 1.1 4.801 1.7 1.9.5 3.4 1 4.3 1.3s1.599.8 1.899 1.2.5 1 .5 1.7q0 1.8-1.5 3c-1 .7-2.4 1.1-4.1 1.1s-3.3-.4-4.4-1.1c-1.2-.8-2-1.8-2.3-3.1l-3.2.5c.4 2 1.4 3.6 3.2 4.8 1.7 1.1 3.901 1.7 6.601 1.7s4.999-.6 6.599-1.8q2.4-1.8 2.401-5.1c0-2.2-.301-2.2-.801-3"/><path fill="#58595b" d="M978.905 140.401c-.3 0-.6-.3-.6-.6v-90.6c0-.3.3-.6.6-.6s.6.3.6.6v90.6c0 .3-.3.6-.6.6"/><path fill="#0f0f0f" d="M201.404 126.2c0 8.7 1.2 14.6 3.5 17.6 1.7 2.2 5.1 4 10 5.4l-4.2 5.9c-7.5-2-12.5-5.6-14.8-10.7-1.5-3.3-2.3-9.1-2.3-17.2V71.9h7.8v54.4zM237.903 88.9h.6c1.3 0 2.7.2 4.1.7-.5-3.6-1.9-6.3-4.1-8.1-1.7-1.3-4.8-2.6-9.4-3.9l4.2-6c8.5 2.4 13.5 5.9 15 10.4q2.4 7.5 2.4 17.1v46.601c-.1 1.4.1 3.1.8 5.2q1.2 3.75 3 4.2h-8.1c-.8-.5-1.3-1-1.5-1.6-2.1 1.1-4.3 1.6-6.4 1.6h-.6c-3 0-5.8-.9-8.2-2.7-2.6-1.9-4-4.1-4-6.6v-47.6c0-2.5 1.3-4.7 4-6.6 2.5-1.8 5.2-2.7 8.2-2.7m.4 7.2c-3.2 0-4.7 1.4-4.7 4.201v44c0 2.8 1.6 4.2 4.7 4.2s4.7-1.4 4.7-4.2v-44c0-2.8-1.6-4.2-4.7-4.2M276.803 71.7v31.5h12v6.7h-12v21.7c0 1.3.1 3 .3 5 .5 3.8 1.8 6.5 4 8.3 1.8 1.5 5 2.8 9.5 4.1l-4.2 6c-7.5-2.1-12.4-5.5-14.8-10.3-1.6-3.3-2.4-8.9-2.4-16.9V110h-4.9v-6.7h4.9V71.8h7.7zM313.504 71.7h.7c3 0 5.8.9 8.2 2.6q3.9 2.85 3.9 6.6v46.7q0 3.75-3.9 6.6c-2.5 1.7-5.2 2.6-8.2 2.6h-.7c-1.4 0-2.8-.2-4.1-.7q.75 5.7 4.2 8.7c2 1.7 5.2 3.1 9.7 4.4l-4.2 5.9c-7.6-2-12.6-5.5-15.1-10.6-1.8-3.5-2.6-9.3-2.6-17.2V81c0-2.5 1.3-4.7 4-6.5 2.5-1.8 5.2-2.6 8.2-2.6zm.4 7.2c-3.2 0-4.7 1.4-4.7 4.1v43.2c0 2.8 1.6 4.1 4.7 4.1s4.7-1.4 4.7-4.1V83c0-2.8-1.6-4.1-4.7-4.1M351.104 71.7c3.2 0 6.1.8 8.6 2.5 2.8 1.8 4.2 4 4.2 6.7V155h-7.8V83c0-2.8-1.6-4.1-4.7-4.1s-4.7 1.4-4.7 4.1v72h-7.8V80.9c0-2.5 1.3-4.7 4-6.5 2.5-1.8 5.2-2.6 8.2-2.6zM389.604 71.7v31.5h12v6.7h-12v21.7c0 1.3.1 3 .3 5 .5 3.8 1.8 6.5 4 8.3 1.8 1.5 5 2.8 9.5 4.1l-4.2 6c-7.5-2.1-12.4-5.5-14.8-10.3-1.6-3.3-2.4-8.9-2.4-16.9V110h-4.9v-6.7h4.9V71.8h7.7z"/><path fill="#1c57ab" d="M421.903 127.3c0 7.1.5 12.2 1.6 15.2.6 1.7 1.6 3.2 3.2 4.4 2.5-2.1 4-5.4 4.5-9.7.3-2.4.4-5.7.4-9.9V71.7h7.8v56.5c0 5.1-.2 9-.6 11.5-1.3 7.5-5.3 12.6-12 15.2q-10.05-3.6-12-15.3-.6-3.3-.6-11.4V71.7h7.8v55.6zM453.004 155V88.1h7.799V155zm-.4-79c0 2.4 1.9 4.3 4.3 4.3s4.3-1.9 4.3-4.3-1.9-4.3-4.3-4.3-4.3 1.9-4.3 4.3M486.104 71.7h.7c3 0 5.8.9 8.2 2.6q3.9 2.85 3.9 6.6v46.8q0 3.75-3.9 6.6c-2.5 1.7-5.2 2.6-8.2 2.6h-.7c-1.4 0-2.8-.2-4.1-.7.5 3.8 1.9 6.7 4.2 8.6 2 1.7 5.2 3.1 9.7 4.4l-4.2 5.8c-7.6-2-12.6-5.5-15.1-10.6-1.8-3.5-2.6-9.3-2.6-17.2V80.8c0-2.5 1.3-4.7 4-6.5 2.5-1.7 5.2-2.6 8.2-2.6zm.4 7.1c-3.2 0-4.7 1.4-4.7 4.1v43.3c0 2.7 1.6 4.1 4.7 4.1s4.7-1.4 4.7-4.1V82.9c0-2.7-1.6-4.1-4.7-4.1M519.304 127.3c0 7.1.5 12.2 1.6 15.2.6 1.7 1.7 3.2 3.2 4.4 2.5-2.1 4-5.3 4.6-9.7.2-1.9.3-4.3.3-7.3V71.7h7.8v58.2c0 5.4.5 9.6 1.6 12.6.6 1.7 1.6 3.2 3.2 4.4 2.5-2.1 4-5.4 4.5-9.7.3-2.4.4-5.7.4-9.9V71.7h7.8v56.5c0 5.1-.2 9-.6 11.5-1.3 7.5-5.2 12.6-12 15.2-3.7-1.2-6.6-3.5-8.8-6.7-.2.4-.7 1-1.5 1.9-1.9 2.1-4.4 3.7-7.3 4.8q-10.05-3.6-12-15.3-.6-3.3-.6-11.4V71.7h7.8z"/><path fill="#558cc9" d="m153.104 116.701-71-23.1v25.3l64.5 21z"/><path fill="#98c7ed" d="M82.104 151.6v24.3l64.6-31.8 6.4-27.4z"/><path fill="#558cc9" d="m162.204 76.5-10 26.701-27-8.6-43.1-14.2V50.6z"/><path fill="#98c7ed" d="m162.204 76.501-6.4 27.1-73.7 36.3v-24.2l43.1-21.1z"/><path fill="#1c57ab" d="m11.104 116.701 71-23.1v25.3l-64.6 21z"/><path fill="#558cc9" d="M82.104 151.6v24.3l-64.7-31.8-6.3-27.4z"/><path fill="#1c57ab" d="m2.004 76.5 9.9 26.701 27.1-8.6 43.1-14.2V50.6z"/><path fill="#558cc9" d="m2.004 76.501 6.3 27.1 73.8 36.3v-24.2l-43.1-21.1z"/><path stroke="#58595b" stroke-miterlimit="10" stroke-width=".8" d="M639.305 21.3v178.001"/></svg>