<?xml version="1.0" encoding="UTF-8"?> <svg xmlns="http://www.w3.org/2000/svg" width="1111" height="252" viewBox="0 0 1111 252" fill="none"><path d="M788.805 124.901C788.005 124.901 787.305 124.201 787.305 123.401C787.305 87.901 817.005 59.001 853.405 59.001C889.805 59.001 881.505 63.401 893.005 71.801C893.705 72.301 893.805 73.201 893.305 73.901C892.805 74.601 891.905 74.701 891.205 74.201C880.205 66.201 867.105 61.901 853.305 61.901C818.505 61.901 790.105 89.501 790.105 123.301C790.105 157.101 789.405 124.801 788.605 124.801L788.805 124.901Z" fill="#1C57AB"></path><path d="M853.504 187.801C852.704 187.801 852.004 187.101 852.004 186.301C852.004 185.501 852.704 184.801 853.504 184.801C888.304 184.801 916.704 157.201 916.704 123.401C916.704 89.6012 914.304 104.001 909.704 95.3012C909.304 94.6012 909.604 93.7012 910.304 93.3012C911.004 92.9012 911.904 93.2012 912.304 93.9012C917.104 102.901 919.604 113.201 919.604 123.401C919.604 158.901 889.904 187.801 853.504 187.801Z" fill="#1C57AB"></path><path d="M866.404 199.401C865.704 199.401 865.004 198.801 864.904 198.101C864.904 197.301 865.404 196.601 866.204 196.501C891.604 193.501 907.504 178.001 916.504 165.501C927.904 149.501 934.504 128.901 934.504 109.001C934.504 89.1009 927.604 72.5009 915.204 58.4009C903.204 44.8009 887.004 36.1009 870.704 34.7009C869.904 34.7009 869.304 33.9009 869.404 33.1009C869.404 32.3009 870.204 31.7009 871.004 31.8009C888.004 33.3009 905.004 42.3009 917.504 56.5009C930.404 71.2009 937.604 89.901 937.604 109.101C937.604 128.301 930.804 150.801 919.004 167.301C909.704 180.201 893.204 196.301 866.704 199.501C866.704 199.501 866.604 199.501 866.504 199.501L866.404 199.401Z" fill="#1C57AB"></path><path d="M836.804 168.801C836.604 168.801 836.504 168.801 836.304 168.801C811.304 160.601 794.504 137.101 794.504 110.401C794.504 83.7006 821.604 49.1006 854.904 49.1006C888.204 49.1006 882.504 54.1006 893.204 63.1006C893.804 63.6006 893.904 64.6006 893.404 65.2006C892.904 65.8006 891.904 65.9006 891.304 65.4006C881.104 56.8006 868.104 52.1006 854.904 52.1006C823.204 52.1006 797.504 78.3006 797.504 110.501C797.504 142.701 813.504 158.301 837.304 166.101C838.104 166.401 838.504 167.201 838.204 168.001C838.004 168.601 837.404 169.001 836.804 169.001V168.801Z" fill="#1C57AB"></path><path d="M859.604 178.501C858.804 178.501 858.104 177.801 858.104 177.001C858.104 176.201 858.804 175.501 859.604 175.501C892.004 175.501 918.304 148.701 918.304 115.801C918.304 82.9006 892.004 56.1006 859.604 56.1006C827.204 56.1006 858.104 55.4006 858.104 54.6006C858.104 53.8006 858.804 53.1006 859.604 53.1006C893.604 53.1006 921.304 81.2006 921.304 115.701C921.304 150.201 893.604 178.301 859.604 178.301V178.501Z" fill="#1C57AB"></path><path d="M833.704 189.301C791.004 176.701 781.404 142.501 781.304 142.201C781.104 141.401 780.304 140.901 779.504 141.201C778.704 141.401 778.204 142.201 778.504 143.001C778.504 143.401 781.004 152.201 788.904 162.701C790.904 165.401 793.504 168.401 796.604 171.401C796.604 171.401 796.604 171.501 796.604 171.601C797.504 173.301 798.804 176.301 798.604 177.501C798.504 178.301 799.004 179.101 799.804 179.201H800.004C800.704 179.201 801.304 178.701 801.504 178.001C801.604 177.301 801.504 176.601 801.404 175.801C809.004 182.101 819.304 188.201 832.904 192.201C833.004 192.201 833.204 192.201 833.304 192.201C833.904 192.201 834.504 191.801 834.704 191.101C834.904 190.301 834.504 189.501 833.704 189.301Z" fill="#1C57AB"></path><path d="M955.304 91.2004C955.004 90.4004 954.204 90.1004 953.404 90.3004C953.404 90.3004 947.204 92.8004 944.104 98.8004C943.003 94.3004 941.404 89.8004 939.304 85.5004C938.904 84.8004 938.004 84.5004 937.304 84.8004C936.604 85.1004 936.303 86.1004 936.604 86.8004C953.104 119.8 935.104 162.5 896.404 181.8C867.704 196.1 834.904 194.3 812.704 177C812.104 176.5 811.103 176.6 810.603 177.3C810.103 177.9 810.204 178.9 810.904 179.4C823.704 189.3 839.804 194.4 856.804 194.4C873.804 194.4 884.504 191.1 897.804 184.5C909.504 178.6 919.404 170.7 927.104 161.5C927.104 161.5 927.204 161.5 927.304 161.4C934.704 155 945.604 152 945.704 152C946.504 151.8 947.004 151 946.704 150.2C946.504 149.4 945.704 148.9 944.904 149.2C944.604 149.2 938.803 150.9 932.604 154.3C942.404 139.8 947.104 123 945.404 106.8C945.404 106.8 945.404 106.7 945.404 106.6C945.004 96.8004 954.004 93.2004 954.404 93.0004C955.204 92.7004 955.504 91.9004 955.304 91.1004V91.2004Z" fill="#1C57AB"></path><path d="M812.303 106.701C812.303 106.701 808.003 99.0006 807.203 91.5006C807.203 91.5006 807.203 91.4006 807.203 91.3006C807.903 86.3006 808.403 81.6006 808.203 77.5006C808.203 76.7006 807.403 76.1006 806.603 76.1006C805.803 76.1006 805.203 76.9006 805.203 77.7006C805.503 81.8006 804.803 86.8006 804.103 92.2006C804.003 93.2006 803.803 94.2006 803.703 95.3006C802.403 105.701 801.303 117.601 806.203 128.801C806.403 129.401 807.003 129.701 807.603 129.701C808.203 129.701 808.003 129.701 808.203 129.601C808.903 129.301 809.303 128.401 809.003 127.701C805.003 118.601 805.203 108.801 806.203 99.8006C807.803 104.501 809.703 108.001 809.803 108.201C810.103 108.701 810.603 109.001 811.103 109.001C811.603 109.001 811.603 109.001 811.803 108.801C812.503 108.401 812.803 107.501 812.403 106.801L812.303 106.701Z" fill="#1C57AB"></path><path d="M898.203 30.6008C898.203 30.6008 892.503 28.9008 884.103 27.4008C885.403 26.9008 886.303 26.4008 886.403 26.4008C887.103 26.0008 887.403 25.2008 887.103 24.4008C886.703 23.7008 885.903 23.4008 885.103 23.7008C885.103 23.7008 880.303 26.0008 877.203 26.3008C873.703 25.9008 869.803 25.5008 865.803 25.3008C842.203 24.3008 823.603 30.3008 812.003 42.6008C811.403 43.2008 811.503 44.1008 812.003 44.7008C812.303 45.0008 812.603 45.1008 813.003 45.1008C813.403 45.1008 813.803 44.9008 814.103 44.6008C840.803 16.3008 896.703 33.0008 897.303 33.2008C898.103 33.4008 898.903 33.0008 899.103 32.2008C899.303 31.4008 898.903 30.6008 898.103 30.4008L898.203 30.6008Z" fill="#1C57AB"></path><path d="M914.003 160.801C913.703 160.801 913.403 160.801 913.203 160.601C912.503 160.101 912.303 159.201 912.803 158.601C912.903 158.401 924.203 141.201 926.503 113.701C926.503 112.901 927.303 112.301 928.103 112.401C928.903 112.401 929.503 113.201 929.403 114.001C927.003 142.301 915.703 159.601 915.203 160.301C914.903 160.701 914.403 161.001 914.003 161.001V160.801Z" fill="#1C57AB"></path><path d="M868.503 166.501C868.103 165.801 867.203 165.601 866.503 166.001C858.403 171.101 848.803 173.601 840.503 174.901C843.003 172.501 844.503 169.801 844.603 169.701C845.003 169.001 844.803 168.101 844.003 167.701C843.303 167.301 842.403 167.501 842.003 168.301C842.003 168.301 838.703 174.101 834.203 175.801C826.403 176.501 820.803 176.101 820.703 176.101C819.903 176.101 819.203 176.701 819.103 177.501C819.003 178.301 819.703 179.001 820.503 179.101C820.803 179.101 822.503 179.201 825.303 179.201C834.103 179.201 853.203 178.001 868.103 168.601C868.803 168.201 869.003 167.301 868.603 166.601L868.503 166.501Z" fill="#1C57AB"></path><path d="M788.803 122.901C788.003 122.901 787.303 122.301 787.303 121.501C786.603 93.1012 795.903 74.7012 796.303 73.9012C796.703 73.2012 797.603 72.9012 798.303 73.3012C799.003 73.7012 799.303 74.6012 798.903 75.3012C798.903 75.5012 789.503 93.9012 790.203 121.501C790.203 122.301 789.603 123.001 788.803 123.001V122.901Z" fill="#1C57AB"></path><path d="M783.604 112.8H759.404V122H783.604V112.8Z" fill="#1C57AB"></path><path d="M857.205 36.2002C837.705 36.2002 820.005 43.7002 806.705 56.0002C805.905 51.1002 804.305 46.7002 802.005 42.6002C798.505 36.5002 793.505 31.7002 787.405 28.3002C781.305 24.9002 774.305 23.2002 766.705 23.2002C759.105 23.2002 751.105 24.8002 744.805 28.0002C738.405 31.3002 733.305 36.0002 729.705 42.0002C726.105 48.0002 724.305 55.1002 724.305 63.1002H733.505C733.505 56.7002 734.905 51.2002 737.605 46.7002C740.405 42.1002 744.105 38.7002 749.005 36.2002C754.005 33.7002 760.005 32.4002 766.705 32.4002C773.405 32.4002 778.305 33.7002 783.005 36.3002C787.805 38.9002 791.405 42.5002 794.105 47.2002C796.805 51.8002 798.205 57.4002 798.205 63.6002V66.4002H809.405C821.305 53.5002 838.305 45.4002 857.205 45.4002C889.905 45.4002 917.005 69.6002 921.605 101H931.005C926.305 64.5002 895.005 36.1002 857.305 36.1002L857.205 36.2002Z" fill="#1C57AB"></path><path d="M795.205 131.001H786.605H733.305V120.301L776.105 82.3006C779.905 79.0006 782.505 75.8006 784.205 72.7006C785.905 69.5006 786.805 66.3006 786.805 63.3006C786.805 60.3006 786.005 55.7006 784.305 52.6006C782.605 49.3006 780.105 46.7006 777.005 44.9006C773.905 43.0006 770.305 42.1006 766.205 42.1006C762.105 42.1006 758.205 43.1006 754.905 45.1006C751.705 47.0006 749.105 49.7006 747.305 52.9006C745.505 56.2006 744.605 59.7006 744.705 63.5006L753.905 63.2006C753.905 61.1006 754.305 59.2006 755.305 57.4006C756.305 55.6006 757.805 54.1006 759.605 53.0006C761.505 51.9006 763.605 51.3006 766.205 51.3006C768.805 51.3006 770.605 51.8006 772.305 52.8006C774.005 53.8006 775.305 55.2006 776.205 56.9006C777.205 58.8006 777.705 60.9006 777.705 63.4006C777.705 65.9006 777.205 66.6006 776.205 68.5006C775.105 70.6006 773.105 72.9006 770.205 75.5006L724.305 116.201V140.201H788.905C794.805 153.901 804.705 165.501 817.105 173.501C820.605 173.501 827.405 173.501 835.205 172.201C816.305 165.401 801.505 150.101 795.305 131.001H795.205Z" fill="#1C57AB"></path><path d="M954.405 101.8C955.405 103 957.205 103.2 958.505 102.2L961.905 99.6002L958.305 95.0002C957.305 93.8002 955.505 93.6002 954.205 94.6002L950.805 97.2002L954.405 101.8Z" fill="#35C8A3"></path><path d="M950.605 85.7006C949.905 84.8006 950.105 83.6006 951.005 82.9006L953.305 81.1006L955.805 84.3006C956.505 85.2006 956.305 86.4006 955.405 87.1006L953.105 88.9006L950.605 85.7006Z" fill="#35C8A3"></path><path d="M943.304 160.6C943.804 162.1 945.404 162.9 947.004 162.4L951.004 161.1L949.204 155.6C948.704 154.1 947.104 153.3 945.504 153.8L941.504 155.1L943.304 160.6Z" fill="#35C8A3"></path><path d="M944.504 144.501C944.204 143.501 944.704 142.301 945.804 142.001L948.604 141.101L949.904 144.901C950.204 145.901 949.704 147.101 948.604 147.401L945.804 148.301L944.504 144.501Z" fill="#35C8A3"></path><path d="M846.904 13.5004C846.704 10.7004 848.804 8.30039 851.704 8.00039L859.204 7.40039L860.104 17.7004C860.304 20.5004 858.204 22.9004 855.304 23.2004L847.804 23.8004L846.904 13.5004Z" fill="#35C8A3"></path><path d="M872.506 169.7C873.206 171 874.906 171.5 876.306 170.8L879.906 168.9L877.306 163.9C876.606 162.6 874.906 162.1 873.506 162.8L869.906 164.7L872.506 169.7Z" fill="#35C8A3"></path><path d="M858.006 159.6C857.106 157.7 858.006 155.3 860.006 154.4L865.206 151.9L868.606 159.1C869.506 161 868.606 163.4 866.606 164.3L861.406 166.8L858.006 159.6Z" fill="#35C8A3"></path><path d="M777.605 163.1C775.905 164.3 775.505 166.7 776.805 168.5L780.005 173.1L786.405 168.7C788.105 167.5 788.505 165.1 787.205 163.3L784.005 158.7L777.605 163.1Z" fill="#35C8A3"></path><path d="M820.505 82.8007C821.605 84.5007 824.005 84.9007 825.805 83.7007L830.405 80.6007L826.105 74.3007C825.005 72.6007 822.605 72.2007 820.805 73.4007L816.205 76.5007L820.505 82.8007Z" fill="#35C8A3"></path><path d="M1014.71 68.4C1015.61 67.9 1016.21 67.3 1016.71 66.4C1017.21 65.6 1017.41 64.6 1017.41 63.4C1017.41 62.2 1017.11 61.2 1016.41 60.3C1015.91 59.6 1015.21 59.1 1014.41 58.8C1014.91 58.5 1015.31 58.1 1015.71 57.6C1016.21 56.8 1016.51 55.9 1016.51 54.8C1016.51 53.7 1016.31 53.1 1015.91 52.3C1015.51 51.5 1014.81 50.9 1014.01 50.3C1013.21 49.7 1012.11 49.5 1010.91 49.5H1003.21V69H1011.61C1012.81 69 1013.91 68.8 1014.81 68.3L1014.71 68.4ZM1006.01 52.3H1010.71C1011.51 52.3 1012.21 52.5 1012.71 53C1013.21 53.5 1013.51 54.1 1013.51 54.9C1013.51 55.7 1013.41 56 1013.11 56.4C1012.91 56.8 1012.51 57.1 1012.11 57.3C1011.71 57.5 1011.21 57.6 1010.71 57.6H1006.01V52.3ZM1006.01 66.4V60.2H1011.31C1011.91 60.2 1012.51 60.3 1013.01 60.6C1013.51 60.9 1013.91 61.2 1014.11 61.7C1014.41 62.2 1014.51 62.7 1014.51 63.3C1014.51 63.9 1014.41 64.5 1014.11 64.9C1013.81 65.4 1013.41 65.7 1012.91 65.9C1012.41 66.1 1011.81 66.3 1011.21 66.3H1006.11L1006.01 66.4Z" fill="#0F2359"></path><path d="M1020.41 66C1020.61 66.6 1021.01 67.2 1021.41 67.7C1021.81 68.2 1022.41 68.7 1023.11 69C1023.81 69.3 1024.61 69.5 1025.61 69.5C1026.61 69.5 1028.01 69.2 1029.01 68.6C1029.61 68.2 1030.11 67.8 1030.51 67.3V69.1H1033.01V54.5H1030.11V62.1C1030.11 63 1030.11 63.7 1029.81 64.3C1029.61 64.9 1029.31 65.4 1029.01 65.8C1028.71 66.2 1028.31 66.4 1027.81 66.6C1027.31 66.8 1026.91 66.9 1026.41 66.9C1025.61 66.9 1025.01 66.7 1024.51 66.4C1024.01 66.1 1023.61 65.7 1023.41 65.2C1023.21 64.7 1023.01 64.1 1022.91 63.5C1022.91 62.9 1022.81 62.3 1022.81 61.7V54.5H1019.91V62.6C1019.91 63.1 1019.91 63.6 1020.01 64.2C1020.01 64.8 1020.21 65.4 1020.51 66H1020.41Z" fill="#0F2359"></path><path d="M1039.81 49.2998H1037.01V51.9998H1039.81V49.2998Z" fill="#0F2359"></path><path d="M1039.81 54.5H1037.01V69.1H1039.81V54.5Z" fill="#0F2359"></path><path d="M1047.1 49.2002H1044.3V69.1002H1047.1V49.2002Z" fill="#0F2359"></path><path d="M1053.5 68.5002C1054.5 69.2002 1055.7 69.5002 1057 69.5002C1058.3 69.5002 1059.6 69.2002 1060.5 68.5002C1060.8 68.3002 1061.1 68.0002 1061.3 67.8002V69.2002H1063.8V49.7002H1061V55.6002C1060.8 55.5002 1060.7 55.3002 1060.5 55.2002C1059.6 54.5002 1058.4 54.2002 1057 54.2002C1055.6 54.2002 1054.4 54.5002 1053.4 55.2002C1052.4 55.9002 1051.6 56.8002 1051.1 57.9002C1050.6 59.1002 1050.3 60.4002 1050.3 61.8002C1050.3 63.2002 1050.6 64.6002 1051.1 65.7002C1051.6 66.9002 1052.4 67.8002 1053.4 68.5002H1053.5ZM1053.8 59.2002C1054.1 58.4002 1054.5 57.8002 1055.1 57.3002C1055.7 56.8002 1056.5 56.6002 1057.4 56.6002C1058.3 56.6002 1059 56.8002 1059.6 57.2002C1060.2 57.6002 1060.6 58.2002 1060.9 59.0002C1061.2 59.8002 1061.3 60.7002 1061.3 61.7002C1061.3 62.7002 1061.2 63.6002 1060.9 64.4002C1060.6 65.2002 1060.2 65.8002 1059.6 66.2002C1059 66.6002 1058.3 66.9002 1057.3 66.9002C1056.3 66.9002 1055.7 66.7002 1055.1 66.2002C1054.5 65.7002 1054.1 65.1002 1053.8 64.3002C1053.5 63.5002 1053.4 62.6002 1053.4 61.7002C1053.4 60.8002 1053.5 59.9002 1053.8 59.1002V59.2002Z" fill="#0F2359"></path><path d="M1070.81 49.2998H1068.01V51.9998H1070.81V49.2998Z" fill="#0F2359"></path><path d="M1070.81 54.5H1068.01V69.1H1070.81V54.5Z" fill="#0F2359"></path><path d="M1077.8 61.5006C1077.8 60.6006 1077.8 59.9006 1078.1 59.3006C1078.3 58.7006 1078.6 58.2006 1078.9 57.8006C1079.2 57.4006 1079.6 57.2006 1080.1 57.0006C1080.6 56.8006 1081 56.7006 1081.5 56.7006C1082.3 56.7006 1082.9 56.9006 1083.4 57.2006C1083.9 57.5006 1084.3 57.9006 1084.5 58.4006C1084.8 58.9006 1084.9 59.5006 1085 60.1006C1085 60.7006 1085.1 61.3006 1085.1 61.9006V69.1006H1088V61.0006C1088 60.5006 1088 60.0006 1087.9 59.4006C1087.9 58.8006 1087.7 58.2006 1087.4 57.6006C1087.1 57.0006 1086.8 56.4006 1086.4 55.9006C1086 55.4006 1085.4 54.9006 1084.7 54.6006C1084 54.3006 1083.2 54.1006 1082.2 54.1006C1081.2 54.1006 1079.8 54.4006 1078.8 55.0006C1078.2 55.4006 1077.7 55.8006 1077.3 56.3006V54.5006H1074.8V69.1006H1077.7V61.5006H1077.8Z" fill="#0F2359"></path><path d="M1101.8 54.5006V55.8006C1101.5 55.5006 1101.3 55.3006 1101 55.1006C1100.1 54.4006 1098.9 54.1006 1097.5 54.1006C1096.1 54.1006 1094.9 54.4006 1093.9 55.1006C1092.9 55.8006 1092.1 56.7006 1091.6 57.8006C1091.1 59.0006 1090.8 60.3006 1090.8 61.7006C1090.8 63.1006 1091.1 64.5006 1091.6 65.6006C1092.1 66.8006 1092.9 67.7006 1093.9 68.4006C1094.9 69.1006 1096.1 69.4006 1097.4 69.4006C1098.7 69.4006 1100 69.1006 1100.9 68.4006C1101.1 68.3006 1101.2 68.1006 1101.4 68.0006V69.4006C1101.4 70.2006 1101.3 70.9006 1101 71.5006C1100.7 72.1006 1100.3 72.5006 1099.7 72.8006C1099.1 73.1006 1098.4 73.2006 1097.6 73.2006C1096.8 73.2006 1096.3 73.1006 1095.7 72.8006C1095.1 72.5006 1094.7 72.1006 1094.3 71.4006L1091.7 72.7006C1092.1 73.4006 1092.6 74.0006 1093.2 74.5006C1093.8 75.0006 1094.5 75.3006 1095.2 75.6006C1095.9 75.8006 1096.7 76.0006 1097.5 76.0006C1098.6 76.0006 1099.7 75.8006 1100.6 75.5006C1101.5 75.2006 1102.2 74.7006 1102.8 74.1006C1103.4 73.5006 1103.8 72.6006 1104 71.7006C1104 71.3006 1104.1 71.0006 1104.1 70.6006C1104.1 70.2006 1104.1 69.9006 1104.1 69.5006V54.5006H1101.6H1101.8ZM1100.1 66.3006C1099.5 66.7006 1098.8 67.0006 1097.8 67.0006C1096.8 67.0006 1096.2 66.8006 1095.6 66.3006C1095 65.8006 1094.6 65.2006 1094.3 64.4006C1094 63.6006 1093.9 62.7006 1093.9 61.8006C1093.9 60.9006 1094 60.0006 1094.3 59.2006C1094.6 58.4006 1095 57.8006 1095.6 57.3006C1096.2 56.8006 1097 56.6006 1097.9 56.6006C1098.8 56.6006 1099.5 56.8006 1100.1 57.2006C1100.7 57.6006 1101.1 58.2006 1101.4 59.0006C1101.7 59.8006 1101.8 60.7006 1101.8 61.7006C1101.8 62.7006 1101.7 63.6006 1101.4 64.4006C1101.1 65.2006 1100.7 65.8006 1100.1 66.2006V66.3006Z" fill="#0F2359"></path><path d="M1023.91 85.1006L1019.81 99.8006L1015.71 85.1006H1012.81L1008.71 99.8006L1004.61 85.1006H1001.61L1007.21 104.601H1010.11L1014.21 90.0006L1018.41 104.601H1021.21L1026.91 85.1006H1023.91Z" fill="#0F2359"></path><path d="M1038.81 93.9998C1039.11 94.4998 1039.21 95.0998 1039.31 95.6998C1039.31 96.2998 1039.41 96.8998 1039.41 97.4998V104.7H1042.31V96.5998C1042.31 96.0998 1042.31 95.5998 1042.21 94.9998C1042.21 94.3998 1042.01 93.7998 1041.71 93.1998C1041.41 92.5998 1041.11 91.9998 1040.71 91.4998C1040.31 90.9998 1039.71 90.4998 1039.01 90.1998C1038.31 89.8998 1037.51 89.6998 1036.51 89.6998C1035.51 89.6998 1034.11 89.9998 1033.11 90.5998C1032.51 90.9998 1032.01 91.3998 1031.61 91.8998V85.2998H1029.11V104.8H1032.01V97.1998C1032.01 96.2998 1032.01 95.5998 1032.31 94.9998C1032.51 94.3998 1032.81 93.8998 1033.11 93.4998C1033.41 93.0998 1033.81 92.8998 1034.31 92.6998C1034.81 92.4998 1035.21 92.3998 1035.71 92.3998C1036.51 92.3998 1037.11 92.5998 1037.61 92.8998C1038.11 93.1998 1038.51 93.5998 1038.71 94.0998L1038.81 93.9998Z" fill="#0F2359"></path><path d="M1045.61 93.6004L1048.21 94.4004C1048.51 93.6004 1048.91 93.0004 1049.51 92.6004C1050.11 92.2004 1050.81 92.1004 1051.61 92.1004C1052.81 92.1004 1053.71 92.4004 1054.21 92.9004C1054.61 93.4004 1054.91 94.1004 1054.91 95.0004C1054.41 95.0004 1053.81 95.2004 1053.21 95.2004C1052.31 95.3004 1051.41 95.5004 1050.61 95.6004C1049.81 95.7004 1049.01 95.9004 1048.41 96.1004C1047.71 96.3004 1047.01 96.7004 1046.51 97.1004C1046.01 97.5004 1045.61 98.0004 1045.31 98.5004C1045.01 99.1004 1044.91 99.7004 1044.91 100.4C1044.91 101.1 1045.11 101.9 1045.51 102.6C1045.91 103.3 1046.41 103.8 1047.21 104.2C1047.91 104.6 1048.81 104.8 1049.91 104.8C1051.01 104.8 1052.41 104.5 1053.31 104C1054.01 103.6 1054.61 103 1055.11 102.3V104.4H1057.61V95.4004C1057.61 94.8004 1057.61 94.2004 1057.61 93.7004C1057.61 93.2004 1057.41 92.7004 1057.21 92.2004C1056.71 91.2004 1056.01 90.5004 1055.11 90.1004C1054.11 89.7004 1053.01 89.4004 1051.71 89.4004C1050.41 89.4004 1048.71 89.8004 1047.61 90.5004C1046.51 91.2004 1045.91 92.2004 1045.51 93.5004L1045.61 93.6004ZM1054.71 99.8004C1054.61 100.3 1054.41 100.7 1054.01 101.2C1053.61 101.6 1053.21 102 1052.61 102.3C1052.01 102.6 1051.31 102.7 1050.51 102.7C1049.71 102.7 1049.41 102.7 1049.01 102.4C1048.61 102.2 1048.31 102 1048.11 101.6C1047.91 101.3 1047.81 100.9 1047.81 100.6C1047.81 100.3 1047.81 99.9004 1048.11 99.6004C1048.31 99.3004 1048.51 99.1004 1048.81 98.9004C1049.11 98.7004 1049.41 98.5004 1049.81 98.4004C1050.31 98.3004 1050.81 98.1004 1051.41 98.0004C1052.01 97.9004 1052.71 97.8004 1053.41 97.7004C1053.91 97.7004 1054.41 97.6004 1054.91 97.5004C1054.91 97.7004 1054.91 98.0004 1054.91 98.3004C1054.91 98.8004 1054.81 99.3004 1054.61 99.8004H1054.71Z" fill="#0F2359"></path><path d="M1065.4 85.9002H1062.6V90.0002H1059.8V92.3002H1062.6V98.9002C1062.6 99.7002 1062.6 100.4 1062.6 101C1062.6 101.6 1062.8 102.2 1063.1 102.8C1063.5 103.5 1064 104 1064.7 104.3C1065.4 104.6 1066.2 104.8 1067.1 104.8C1068 104.8 1068.9 104.8 1069.8 104.6V102.2C1068.8 102.3 1068 102.4 1067.3 102.2C1066.6 102.2 1066.1 101.8 1065.8 101.2C1065.6 100.9 1065.5 100.5 1065.5 100.1C1065.5 99.7002 1065.5 99.2002 1065.5 98.6002V92.1002H1069.8V89.8002H1065.5V85.7002L1065.4 85.9002Z" fill="#0F2359"></path><path d="M1073.11 88.3H1074.71C1074.71 88.7 1074.71 89 1074.71 89.3C1074.71 89.6 1074.51 89.8 1074.31 90C1074.11 90.2 1073.81 90.2 1073.41 90.2L1073.21 91.5C1074.21 91.7 1074.91 91.5 1075.41 90.9C1075.91 90.4 1076.21 89.6 1076.21 88.5V85H1073.21V88.3H1073.11Z" fill="#0F2359"></path><path d="M1087.41 97.1004C1086.71 96.7004 1085.71 96.4004 1084.51 96.1004C1083.41 95.8004 1082.51 95.6004 1081.91 95.4004C1081.31 95.2004 1080.91 95.0004 1080.71 94.8004C1080.51 94.6004 1080.41 94.3004 1080.41 94.0004C1080.41 93.4004 1080.71 93.0004 1081.21 92.7004C1081.71 92.4004 1082.41 92.2004 1083.31 92.3004C1084.21 92.3004 1084.91 92.6004 1085.51 93.0004C1086.11 93.4004 1086.41 94.0004 1086.51 94.7004L1089.41 94.2004C1089.31 93.3004 1089.01 92.6004 1088.41 91.9004C1087.91 91.3004 1087.21 90.8004 1086.31 90.4004C1085.41 90.0004 1084.41 89.9004 1083.31 89.9004C1082.21 89.9004 1081.21 90.1004 1080.31 90.4004C1079.41 90.7004 1078.81 91.3004 1078.31 91.9004C1077.81 92.6004 1077.61 93.3004 1077.61 94.2004C1077.61 95.1004 1077.81 95.5004 1078.11 96.0004C1078.41 96.5004 1078.91 96.9004 1079.71 97.3004C1080.41 97.7004 1081.41 98.0004 1082.71 98.3004C1083.81 98.6004 1084.71 98.9004 1085.31 99.1004C1085.91 99.3004 1086.21 99.5004 1086.41 99.8004C1086.61 100 1086.71 100.3 1086.71 100.7C1086.71 101.3 1086.41 101.8 1085.91 102.2C1085.41 102.6 1084.71 102.7 1083.81 102.7C1082.91 102.7 1082.01 102.5 1081.41 102C1080.81 101.5 1080.31 101 1080.11 100.2L1077.21 100.6C1077.51 102 1078.11 103.1 1079.31 103.9C1080.41 104.7 1081.91 105.1 1083.61 105.1C1085.31 105.1 1086.91 104.7 1087.91 103.9C1089.01 103.1 1089.51 101.9 1089.51 100.5C1089.51 99.1004 1089.31 99.1004 1089.01 98.6004C1088.71 98.1004 1088.21 97.6004 1087.51 97.2004L1087.41 97.1004Z" fill="#0F2359"></path><path d="M1015.61 135.001L1006.01 120.601H1003.11V140.001H1006.01V125.501L1015.61 140.001H1018.41V120.601H1015.61V135.001Z" fill="#0F2359"></path><path d="M1032.41 126.101C1031.41 125.401 1030.11 125.101 1028.61 125.101C1027.11 125.101 1025.91 125.401 1024.91 126.101C1023.81 126.701 1023.01 127.601 1022.41 128.801C1021.81 130.001 1021.51 131.401 1021.51 133.001C1021.51 134.601 1021.81 135.801 1022.41 137.001C1023.01 138.101 1023.91 139.001 1025.01 139.701C1026.11 140.301 1027.41 140.701 1028.81 140.701C1030.21 140.701 1031.51 140.301 1032.71 139.601C1033.91 138.901 1034.71 137.901 1035.31 136.601L1032.51 135.701C1032.11 136.401 1031.61 137.001 1031.01 137.401C1030.41 137.801 1029.61 138.001 1028.71 138.001C1027.41 138.001 1026.31 137.601 1025.61 136.701C1025.01 136.001 1024.71 135.001 1024.61 133.801H1035.51C1035.61 132.101 1035.51 130.501 1034.91 129.301C1034.41 128.001 1033.61 127.001 1032.61 126.401L1032.41 126.101ZM1025.51 128.901C1026.21 128.001 1027.31 127.601 1028.71 127.601C1030.11 127.601 1030.91 128.001 1031.61 128.801C1032.11 129.401 1032.41 130.301 1032.51 131.401H1024.61C1024.81 130.401 1025.11 129.601 1025.61 128.901H1025.51Z" fill="#0F2359"></path><path d="M1050.4 125.4H1047L1043.4 130.4L1039.8 125.4H1036.4L1041.8 132.6L1036.3 140H1039.7L1043.4 134.9L1047.1 140H1050.5L1045 132.6L1050.4 125.4Z" fill="#0F2359"></path><path d="M1056.81 121.4H1054.01V125.5H1051.21V127.8H1054.01V134.4C1054.01 135.2 1054.01 135.9 1054.01 136.5C1054.01 137.1 1054.21 137.7 1054.51 138.3C1054.91 139 1055.41 139.5 1056.11 139.8C1056.81 140.1 1057.61 140.3 1058.51 140.3C1059.41 140.3 1060.31 140.3 1061.21 140.1V137.7C1060.21 137.8 1059.41 137.9 1058.71 137.7C1058.01 137.7 1057.51 137.3 1057.21 136.7C1057.01 136.4 1056.91 136 1056.91 135.6C1056.91 135.2 1056.91 134.7 1056.91 134.1V127.6H1061.21V125.3H1056.91V121.2L1056.81 121.4Z" fill="#0F2359"></path><path d="M814.005 230.6L806.505 211.9H803.305L812.505 234.6L808.805 244.8H811.805L824.005 211.9H820.905L814.005 230.6Z" fill="#1C57AB"></path><path d="M846.205 224.2H847.905C847.905 221.5 847.605 219.2 846.805 217.3C846.005 215.4 844.805 213.9 843.205 212.9C841.605 211.9 839.705 211.4 837.505 211.4C835.305 211.4 833.405 211.9 831.805 212.9C830.205 213.9 828.905 215.3 828.105 217.1C827.205 218.9 826.805 221.1 826.805 223.5C826.805 225.9 827.205 228 828.105 229.8C829.005 231.6 830.305 233 831.905 233.9C833.505 234.8 835.405 235.4 837.705 235.4C840.005 235.4 841.905 234.9 843.605 233.8C845.305 232.7 846.705 231.2 847.605 229.2L844.705 228.1C844.005 229.5 843.005 230.6 841.805 231.4C840.605 232.2 839.205 232.5 837.505 232.5C835.105 232.5 833.305 231.7 832.005 230.1C830.805 228.7 830.205 226.8 830.105 224.3H846.305L846.205 224.2ZM831.905 216.5C833.205 214.9 835.105 214.1 837.505 214.1C839.905 214.1 841.605 214.9 842.805 216.4C843.805 217.6 844.405 219.4 844.605 221.6H830.005C830.205 219.5 830.805 217.8 831.905 216.5Z" fill="#1C57AB"></path><path d="M870.406 215.901C869.806 214.401 868.805 213.301 867.305 212.501C865.805 211.701 864.105 211.301 862.005 211.301C859.905 211.301 857.406 211.901 855.906 213.001C854.306 214.101 853.305 215.701 852.805 217.701L855.805 218.601C856.205 217.101 857.005 216.001 858.105 215.301C859.205 214.601 860.505 214.201 862.005 214.201C864.305 214.201 865.805 214.701 866.805 215.801C867.605 216.801 868.105 218.301 868.105 220.301C867.405 220.401 866.606 220.501 865.706 220.601C864.406 220.801 863.005 221.001 861.605 221.201C860.205 221.401 858.905 221.701 857.805 221.901C856.705 222.201 855.705 222.601 854.805 223.201C853.905 223.801 853.305 224.501 852.805 225.401C852.305 226.301 852.105 227.301 852.105 228.601C852.105 229.901 852.405 230.901 853.005 231.901C853.605 232.901 854.405 233.701 855.605 234.401C856.805 235.001 858.206 235.301 859.906 235.301C861.606 235.301 864.106 234.801 865.706 233.801C866.906 233.101 867.805 232.101 868.505 230.901V234.701H871.305V220.601C871.305 219.801 871.306 218.901 871.206 218.101C871.206 217.301 870.906 216.501 870.706 215.901H870.406ZM867.706 226.601C867.506 227.701 867.106 228.801 866.406 229.701C865.706 230.601 864.905 231.301 863.805 231.801C862.705 232.301 861.505 232.601 860.005 232.601C858.505 232.601 857.805 232.401 857.105 232.001C856.405 231.601 855.805 231.101 855.505 230.501C855.205 229.901 855.005 229.201 855.005 228.601C855.005 228.001 855.205 227.101 855.605 226.601C856.005 226.101 856.505 225.601 857.105 225.301C857.705 225.001 858.305 224.701 859.005 224.501C860.005 224.201 861.006 224.001 862.206 223.801C863.406 223.601 864.605 223.501 865.805 223.301C866.605 223.301 867.305 223.101 868.005 223.001C868.005 223.301 868.005 223.701 868.005 224.201C868.005 225.101 867.906 225.901 867.706 226.601Z" fill="#1C57AB"></path><path d="M884.206 212.201C883.406 212.501 882.705 212.901 882.105 213.401C881.605 213.801 881.205 214.201 880.805 214.801C880.605 215.001 880.506 215.301 880.406 215.501V211.901H877.605V234.601H880.706V223.301C880.706 222.401 880.706 221.501 880.906 220.601C881.006 219.701 881.306 218.801 881.706 218.001C882.106 217.201 882.606 216.501 883.406 215.901C884.206 215.201 885.105 214.801 886.105 214.701C887.105 214.601 888.005 214.701 888.805 214.801V211.901C888.105 211.701 887.405 211.701 886.605 211.701C885.805 211.701 885.006 211.901 884.206 212.201Z" fill="#1C57AB"></path><path d="M909.605 225.4C909.105 224.6 908.205 223.9 907.105 223.3C905.905 222.7 904.306 222.2 902.206 221.6C900.406 221.2 899.005 220.7 898.105 220.4C897.205 220.1 896.505 219.6 896.105 219.2C895.705 218.8 895.605 218.3 895.605 217.7C895.605 216.6 896.105 215.8 897.105 215.1C898.105 214.4 899.405 214.1 901.005 214.2C902.705 214.2 904.106 214.6 905.206 215.4C906.306 216.2 907.006 217.2 907.206 218.6L910.406 218C910.206 216.7 909.806 215.5 908.906 214.5C908.106 213.5 907.005 212.7 905.605 212.2C904.205 211.6 902.705 211.4 901.005 211.4C899.305 211.4 897.805 211.7 896.505 212.2C895.205 212.7 894.205 213.5 893.505 214.5C892.805 215.5 892.406 216.6 892.406 217.9C892.406 219.2 892.605 219.9 893.105 220.6C893.605 221.3 894.405 222 895.605 222.5C896.805 223.1 898.406 223.6 900.406 224.2C902.306 224.7 903.806 225.2 904.706 225.5C905.606 225.8 906.305 226.3 906.605 226.7C906.905 227.1 907.105 227.7 907.105 228.4C907.105 229.6 906.605 230.6 905.605 231.4C904.605 232.1 903.205 232.5 901.505 232.5C899.805 232.5 898.205 232.1 897.105 231.4C895.905 230.6 895.105 229.6 894.805 228.3L891.605 228.8C892.005 230.8 893.005 232.4 894.805 233.6C896.505 234.7 898.706 235.3 901.406 235.3C904.106 235.3 906.405 234.7 908.005 233.5C909.605 232.3 910.406 230.6 910.406 228.4C910.406 226.2 910.105 226.2 909.605 225.4Z" fill="#1C57AB"></path><path d="M978.905 140.401C978.605 140.401 978.305 140.101 978.305 139.801V49.2006C978.305 48.9006 978.605 48.6006 978.905 48.6006C979.205 48.6006 979.505 48.9006 979.505 49.2006V139.801C979.505 140.101 979.205 140.401 978.905 140.401Z" fill="#58595B"></path><path d="M201.404 126.2C201.404 134.9 202.604 140.8 204.904 143.8C206.604 146 210.004 147.8 214.904 149.2L210.704 155.1C203.204 153.1 198.204 149.5 195.904 144.4C194.404 141.1 193.604 135.3 193.604 127.2V71.9004H201.404V126.3V126.2Z" fill="#0F0F0F"></path><path d="M237.903 88.9006H238.503C239.803 88.9006 241.203 89.1006 242.603 89.6006C242.103 86.0006 240.703 83.3006 238.503 81.5006C236.803 80.2006 233.703 78.9006 229.103 77.6006L233.303 71.6006C241.803 74.0006 246.803 77.5006 248.303 82.0006C249.903 87.0006 250.703 92.7006 250.703 99.1006V145.701C250.603 147.101 250.803 148.801 251.503 150.901C252.303 153.401 253.303 154.801 254.503 155.101H246.403C245.603 154.601 245.103 154.101 244.903 153.501C242.803 154.601 240.603 155.101 238.503 155.101H237.903C234.903 155.101 232.103 154.201 229.703 152.401C227.103 150.501 225.703 148.301 225.703 145.801V98.2006C225.703 95.7006 227.003 93.5006 229.703 91.6006C232.203 89.8006 234.903 88.9006 237.903 88.9006ZM238.303 96.1006C235.103 96.1006 233.603 97.5006 233.603 100.301V144.301C233.603 147.101 235.203 148.501 238.303 148.501C241.403 148.501 243.003 147.101 243.003 144.301V100.301C243.003 97.5006 241.403 96.1006 238.303 96.1006Z" fill="#0F0F0F"></path><path d="M276.803 71.7002V103.2H288.803V109.9H276.803V131.6C276.803 132.9 276.903 134.6 277.103 136.6C277.603 140.4 278.903 143.1 281.103 144.9C282.903 146.4 286.103 147.7 290.603 149L286.403 155C278.903 152.9 274.003 149.5 271.603 144.7C270.003 141.4 269.203 135.8 269.203 127.8C269.203 127.8 269.203 127.6 269.203 127.5V110H264.303V103.3H269.203V71.8002H276.903L276.803 71.7002Z" fill="#0F0F0F"></path><path d="M313.504 71.7002H314.204C317.204 71.7002 320.004 72.6002 322.404 74.3002C325.004 76.2002 326.304 78.4002 326.304 80.9002V127.6C326.304 130.1 325.004 132.3 322.404 134.2C319.904 135.9 317.204 136.8 314.204 136.8H313.504C312.104 136.8 310.704 136.6 309.404 136.1C309.904 139.9 311.304 142.8 313.604 144.8C315.604 146.5 318.804 147.9 323.304 149.2L319.104 155.1C311.504 153.1 306.504 149.6 304.004 144.5C302.204 141 301.404 135.2 301.404 127.3V81.0002C301.404 78.5002 302.704 76.3002 305.404 74.5002C307.904 72.7002 310.604 71.9002 313.604 71.9002L313.504 71.7002ZM313.904 78.9002C310.704 78.9002 309.204 80.3002 309.204 83.0002V126.2C309.204 129 310.804 130.3 313.904 130.3C317.004 130.3 318.604 128.9 318.604 126.2V83.0002C318.604 80.2002 317.004 78.9002 313.904 78.9002Z" fill="#0F0F0F"></path><path d="M351.104 71.7002C354.304 71.7002 357.204 72.5002 359.704 74.2002C362.504 76.0002 363.904 78.2002 363.904 80.9002V155H356.104V83.0002C356.104 80.2002 354.504 78.9002 351.404 78.9002C348.304 78.9002 346.704 80.3002 346.704 83.0002V155H338.904V80.9002C338.904 78.4002 340.204 76.2002 342.904 74.4002C345.404 72.6002 348.104 71.8002 351.104 71.8002V71.7002Z" fill="#0F0F0F"></path><path d="M389.604 71.7002V103.2H401.604V109.9H389.604V131.6C389.604 132.9 389.704 134.6 389.904 136.6C390.404 140.4 391.704 143.1 393.904 144.9C395.704 146.4 398.904 147.7 403.404 149L399.204 155C391.704 152.9 386.804 149.5 384.404 144.7C382.804 141.4 382.004 135.8 382.004 127.8C382.004 127.8 382.004 127.6 382.004 127.5V110H377.104V103.3H382.004V71.8002H389.704L389.604 71.7002Z" fill="#0F0F0F"></path><path d="M421.903 127.3C421.903 134.4 422.403 139.5 423.503 142.5C424.103 144.2 425.103 145.7 426.703 146.9C429.203 144.8 430.703 141.5 431.203 137.2C431.503 134.8 431.603 131.5 431.603 127.3V71.7002H439.403V128.2C439.403 133.3 439.203 137.2 438.803 139.7C437.503 147.2 433.503 152.3 426.803 154.9C420.103 152.5 416.103 147.4 414.803 139.6C414.403 137.4 414.203 133.6 414.203 128.2V71.7002H422.003V127.3H421.903Z" fill="#1C57AB"></path><path d="M453.004 155V88.1002H460.803V155H453.004ZM452.604 76.0002C452.604 78.4002 454.504 80.3002 456.904 80.3002C459.304 80.3002 461.204 78.4002 461.204 76.0002C461.204 73.6002 459.304 71.7002 456.904 71.7002C454.504 71.7002 452.604 73.6002 452.604 76.0002Z" fill="#1C57AB"></path><path d="M486.104 71.7002H486.804C489.804 71.7002 492.604 72.6002 495.004 74.3002C497.604 76.2002 498.904 78.4002 498.904 80.9002V127.7C498.904 130.2 497.604 132.4 495.004 134.3C492.504 136 489.804 136.9 486.804 136.9H486.104C484.704 136.9 483.304 136.7 482.004 136.2C482.504 140 483.904 142.9 486.204 144.8C488.204 146.5 491.404 147.9 495.904 149.2L491.704 155C484.104 153 479.104 149.5 476.604 144.4C474.804 140.9 474.004 135.1 474.004 127.2V80.8002C474.004 78.3002 475.304 76.1002 478.004 74.3002C480.504 72.6002 483.204 71.7002 486.204 71.7002H486.104ZM486.504 78.8002C483.304 78.8002 481.804 80.2002 481.804 82.9002V126.2C481.804 128.9 483.404 130.3 486.504 130.3C489.604 130.3 491.204 128.9 491.204 126.2V82.9002C491.204 80.2002 489.604 78.8002 486.504 78.8002Z" fill="#1C57AB"></path><path d="M519.304 127.3C519.304 134.4 519.804 139.5 520.904 142.5C521.504 144.2 522.604 145.7 524.104 146.9C526.604 144.8 528.104 141.6 528.704 137.2C528.904 135.3 529.004 132.9 529.004 129.9V71.7002H536.804V129.9C536.804 135.3 537.304 139.5 538.404 142.5C539.004 144.2 540.004 145.7 541.604 146.9C544.104 144.8 545.604 141.5 546.104 137.2C546.404 134.8 546.504 131.5 546.504 127.3V71.7002H554.304V128.2C554.304 133.3 554.104 137.2 553.704 139.7C552.404 147.2 548.504 152.3 541.704 154.9C538.004 153.7 535.104 151.4 532.904 148.2C532.704 148.6 532.204 149.2 531.404 150.1C529.504 152.2 527.004 153.8 524.104 154.9C517.404 152.5 513.404 147.4 512.104 139.6C511.704 137.4 511.504 133.6 511.504 128.2V71.7002H519.304V127.3Z" fill="#1C57AB"></path><path d="M153.104 116.701L82.1035 93.6006V118.901L146.604 139.901L153.104 116.701Z" fill="#558CC9"></path><path d="M82.1035 151.6V175.9L146.704 144.1L153.104 116.7L82.1035 151.6Z" fill="#98C7ED"></path><path d="M162.204 76.5006L152.204 103.201L125.204 94.6006L82.1035 80.4006V50.6006L162.204 76.5006Z" fill="#558CC9"></path><path d="M162.204 76.501L155.804 103.601L82.1035 139.901V115.701L125.204 94.601L162.204 76.501Z" fill="#98C7ED"></path><path d="M11.1035 116.701L82.1035 93.6006V118.901L17.5035 139.901L11.1035 116.701Z" fill="#1C57AB"></path><path d="M82.1035 151.6V175.9L17.4035 144.1L11.1035 116.7L82.1035 151.6Z" fill="#558CC9"></path><path d="M2.00391 76.5006L11.9039 103.201L39.0039 94.6006L82.1039 80.4006V50.6006L2.00391 76.5006Z" fill="#1C57AB"></path><path d="M2.00391 76.501L8.30391 103.601L82.1039 139.901V115.701L39.0039 94.601L2.00391 76.501Z" fill="#558CC9"></path><path d="M639.305 21.3008V199.301" stroke="#58595B" stroke-width="0.8" stroke-miterlimit="10"></path></svg> 