<svg xmlns="http://www.w3.org/2000/svg" fill="none" aria-hidden="true" viewBox="0 0 560 192"><g clip-path="url(#a)"><mask id="b" width="144" height="144" x="24" y="24" maskUnits="userSpaceOnUse" style="mask-type:luminance"><path fill="#fff" d="M168 24H24v144h144z"/></mask><g mask="url(#b)"><mask id="c" width="192" height="192" x="0" y="0" maskUnits="userSpaceOnUse" style="mask-type:luminance"><path fill="#fff" d="M47.295.7.7 47.296l144.017 144.018 46.597-46.597z"/></mask><g mask="url(#c)"><path fill="url(#d)" d="M168 163.681a4.32 4.32 0 0 1-4.32 4.32H96l-34.2-34.2-37.8-37.8v-67.68a4.32 4.32 0 0 1 4.32-4.32H96l38.16 38.16L168 96.001z"/></g><path fill="url(#e)" fill-rule="evenodd" d="M26.34 92.832c-.943-.754-2.34-.083-2.34 1.125v69.724a4.32 4.32 0 0 0 4.32 4.32H42v-.003h56.043c1.207 0 1.879-1.397 1.125-2.34L88.8 152.7a7.2 7.2 0 0 0-5.622-2.702h-41.18v-41.177a7.2 7.2 0 0 0-2.701-5.622z" clip-rule="evenodd"/><path fill="url(#f)" fill-rule="evenodd" d="M165.66 99.169c.944.754 2.34.083 2.34-1.125V28.321a4.32 4.32 0 0 0-4.32-4.32H93.957c-1.208 0-1.879 1.397-1.125 2.34L103.2 39.298A7.2 7.2 0 0 0 108.821 42H150V83.18a7.2 7.2 0 0 0 2.702 5.622z" clip-rule="evenodd"/></g></g><path fill="currentColor" d="M300.638 97.903q0 14.65-5.604 24.929-5.56 10.278-15.18 15.701-9.576 5.38-21.535 5.38-12.047 0-21.623-5.424-9.576-5.423-15.136-15.701T216 97.903q0-14.652 5.56-24.93 5.56-10.277 15.136-15.657 9.576-5.424 21.623-5.424 11.96 0 21.535 5.424 9.62 5.379 15.18 15.657 5.604 10.278 5.604 24.93m-19.372 0q0-9.491-2.869-16.008-2.824-6.516-7.987-9.884t-12.091-3.368-12.091 3.368q-5.163 3.368-8.031 9.884-2.825 6.517-2.825 16.008t2.825 16.007q2.868 6.516 8.031 9.884t12.091 3.368 12.091-3.368 7.987-9.884q2.87-6.517 2.869-16.007M370.835 94.666l-17.21 1.05a8.8 8.8 0 0 0-1.897-3.936q-1.457-1.794-3.839-2.843-2.34-1.095-5.605-1.094-4.369 0-7.369 1.837-3.001 1.794-3.001 4.811 0 2.406 1.942 4.067 1.941 1.663 6.663 2.668l12.268 2.45q9.885 2.011 14.739 6.473t4.854 11.721q0 6.603-3.928 11.59-3.883 4.986-10.679 7.785Q351.022 144 342.196 144q-13.46 0-21.446-5.554-7.943-5.6-9.311-15.22l18.489-.963q.839 4.068 4.06 6.211 3.222 2.099 8.252 2.099 4.943 0 7.943-1.881 3.045-1.924 3.089-4.942-.044-2.536-2.162-4.155-2.118-1.662-6.531-2.536l-11.738-2.318q-9.929-1.968-14.783-6.823-4.81-4.854-4.81-12.377 0-6.473 3.53-11.153 3.574-4.68 10.017-7.216 6.488-2.537 15.18-2.537 12.841 0 20.211 5.38 7.414 5.38 8.649 14.651M420.667 75.51v13.995h-41.834V75.51zm-32.258 67.178V70.655q0-7.304 2.869-12.115 2.912-4.81 7.943-7.216t11.429-2.406q4.325 0 7.899.657 3.618.655 5.384 1.18l-3.354 13.996q-1.104-.35-2.736-.656a17.2 17.2 0 0 0-3.266-.306q-4.148 0-5.78 1.924-1.633 1.881-1.633 5.292v71.683zM432.152 142.688V75.51h18.798v67.178zm9.443-75.838q-4.192 0-7.193-2.755-2.957-2.8-2.957-6.692 0-3.849 2.957-6.604Q437.403 48 441.595 48t7.149 2.8q3 2.754 3.001 6.603 0 3.893-3.001 6.692-2.957 2.755-7.149 2.755M484.808 103.851v38.837h-18.799V75.51h17.916v11.852h.794q2.251-5.86 7.546-9.272 5.296-3.455 12.842-3.455 7.06 0 12.311 3.062 5.252 3.06 8.164 8.747 2.913 5.642 2.913 13.47v42.774h-18.799v-39.45q.043-6.165-3.177-9.622-3.221-3.498-8.87-3.498-3.795 0-6.708 1.618-2.868 1.618-4.501 4.723-1.589 3.061-1.632 7.392"/><defs><linearGradient id="d" x1="168" x2="24" y1="168.001" y2="24.001" gradientUnits="userSpaceOnUse"><stop stop-color="#6631d6"/><stop offset="1" stop-color="#9867ff"/></linearGradient><linearGradient id="e" x1="24" x2="99.006" y1="92.995" y2="168.001" gradientUnits="userSpaceOnUse"><stop stop-color="#9867ff"/><stop offset="1" stop-color="#6833d7"/></linearGradient><linearGradient id="f" x1="168" x2="92.994" y1="99.008" y2="24.002" gradientUnits="userSpaceOnUse"><stop stop-color="#6733d7"/><stop offset="1" stop-color="#9867ff"/></linearGradient><clipPath id="a"><path fill="#fff" d="M24 24h144v144H24z"/></clipPath></defs></svg>