<?xml version="1.0" encoding="UTF-8"?> <svg xmlns="http://www.w3.org/2000/svg" xmlns:xlink="http://www.w3.org/1999/xlink" version="1.1" id="Layer_1" x="0px" y="0px" viewBox="0 0 130.39 128.14" style="enable-background:new 0 0 130.39 128.14;" xml:space="preserve"> <style type="text/css"> .st0{clip-path:url(#SVGID_2_);fill:#2A2559;} .st1{fill:#2A2559;} .st2{fill:#B17F4A;} .st3{fill:url(#SVGID_3_);} .st4{fill:url(#SVGID_4_);} .st5{fill:#29235C;} </style> <g> <g> <defs> <path id="SVGID_1_" d="M100.05,40.97c-0.32-0.32-0.49-0.74-0.49-1.19s0.17-0.87,0.49-1.19l19.79-19.79 c0.55-0.55,0.85-1.28,0.85-2.06c0-0.78-0.3-1.51-0.85-2.06c-1.13-1.13-2.98-1.13-4.12,0L95.94,34.48c-0.65,0.65-1.72,0.65-2.37,0 L73.78,14.69c-1.13-1.13-2.98-1.13-4.12,0c-0.55,0.55-0.85,1.28-0.85,2.06c0,0.78,0.3,1.51,0.85,2.06l19.79,19.79 c0.32,0.32,0.49,0.74,0.49,1.19s-0.17,0.87-0.49,1.19L69.67,60.75c-0.55,0.55-0.85,1.28-0.85,2.06s0.3,1.51,0.85,2.06 c0.55,0.55,1.28,0.85,2.06,0.85c0.78,0,1.51-0.3,2.06-0.85l19.79-19.79c0.32-0.32,0.74-0.49,1.19-0.49 c0.45,0,0.87,0.17,1.19,0.49l19.79,19.79c0.55,0.55,1.28,0.85,2.06,0.85c0.78,0,1.51-0.3,2.06-0.85 c0.55-0.55,0.85-1.28,0.85-2.06s-0.3-1.51-0.85-2.06L100.05,40.97z"></path> </defs> <use xlink:href="#SVGID_1_" style="overflow:visible;fill:#2A2559;"></use> <clipPath id="SVGID_2_"> <use xlink:href="#SVGID_1_" style="overflow:visible;"></use> </clipPath> <path class="st0" d="M126.07,76.79H8.74c-6.34,0-11.47-5.14-11.47-11.47V13.07C-2.74,6.74,2.4,1.6,8.74,1.6h117.34 c6.34,0,11.47,5.14,11.47,11.47v52.24C137.55,71.65,132.41,76.79,126.07,76.79z"></path> </g> <path class="st1" d="M14.79,66.15h9.6c6.42,0,13.61-3.53,17.64-5.8H17.4c-0.8,0-1.45-0.65-1.45-1.45V20.37 c0-0.8,0.65-1.45,1.45-1.45h38.61c0.8,0,1.45,0.65,1.45,1.45v26.49c2.25-2.64,5.82-9.77,5.82-12.79V17.78 c0-2.57-2.09-4.66-4.66-4.66H14.79c-2.57,0-4.66,2.09-4.66,4.66v43.71C10.13,64.06,12.22,66.15,14.79,66.15z"></path> <g> <path class="st1" d="M57.68,57.32l-20-18.41c-1.15-1.06-2.84-0.89-3.78,0.36c-0.46,0.61-0.67,1.38-0.6,2.17 c0.07,0.79,0.42,1.51,0.97,2.02l20,18.41"></path> <path class="st1" d="M38.54,47.4l20,18.41c1.15,1.06,2.84,0.89,3.78-0.36c0.46-0.61,0.67-1.38,0.6-2.17 c-0.07-0.79-0.42-1.51-0.97-2.02l-20-18.41"></path> </g> <g> <path class="st2" d="M12.65,76.26c1.97,0,3.03,0.66,3.03,0.66c-0.02,0.71-0.25,1.38-0.67,1.84c0,0-0.99-0.4-2.09-0.4 c-1.63,0-2.75,0.9-2.75,4.05c0,3.14,1.06,3.99,2.69,3.99c0.36,0,0.73-0.05,0.73-0.05v-2.92h-1.63c0,0-0.15-0.35-0.15-1 c0-0.66,0.15-1.03,0.15-1.03h3.87v6.48c0,0-1.14,0.66-3.18,0.66c-3.21,0-4.96-2.14-4.96-6.14C7.69,78.41,9.43,76.26,12.65,76.26z"></path> <path class="st2" d="M18.57,76.58c0,0,0.45-0.15,1.18-0.15c0.75,0,1.21,0.15,1.21,0.15v9.65h4.18c0.1,0.33,0.15,0.71,0.15,1.08 c0,0.37-0.06,0.73-0.15,1.08h-6.57V76.58z"></path> <path class="st2" d="M31.28,76.23c2.75,0,4.51,1.86,4.51,6.18c0,4.32-1.73,6.18-4.51,6.18c-2.79,0-4.53-1.86-4.53-6.18 C26.76,78.14,28.52,76.23,31.28,76.23z M31.28,78.3c-1.23,0-1.99,0.8-1.99,4.1c0,3.29,0.76,4.08,1.99,4.08 c1.24,0,1.99-0.8,1.99-4.08C33.27,79.1,32.52,78.3,31.28,78.3z"></path> <path class="st2" d="M42.78,76.43c1.94,0,3.11,1.26,3.11,3.34c0,1.11-0.43,1.94-1.17,2.44c0.91,0.5,1.48,1.41,1.48,2.72 c0,2.22-1.29,3.45-3.36,3.45h-4.45V76.43H42.78z M42.3,81.36c0.81,0,1.21-0.6,1.21-1.51c0-0.95-0.4-1.51-1.21-1.51h-1.54v3.02 H42.3z M42.37,86.46c0.93,0,1.4-0.53,1.4-1.59c0-1.11-0.48-1.59-1.4-1.59h-1.61v3.19H42.37z"></path> <path class="st2" d="M52.55,76.43c0.99,0,1.51,0.15,1.51,0.15l3.41,11.66c0,0-0.42,0.15-1.25,0.15c-0.78,0-1.15-0.15-1.15-0.15 l-0.7-2.42h-3.75l-0.7,2.42c0,0-0.43,0.15-1.17,0.15c-0.7,0-1.11-0.15-1.11-0.15l3.41-11.66C51.04,76.58,51.61,76.43,52.55,76.43z M52.45,78.92c0,0-0.1,0.9-0.4,1.94l-0.88,3.01h2.64l-0.87-3.01c-0.31-1.06-0.43-1.94-0.43-1.94H52.45z"></path> <path class="st2" d="M59.55,76.58c0,0,0.45-0.15,1.18-0.15c0.75,0,1.21,0.15,1.21,0.15v9.65h4.18c0.1,0.33,0.15,0.71,0.15,1.08 c0,0.37-0.06,0.73-0.15,1.08h-6.57V76.58z"></path> <path class="st2" d="M76.52,76.26c1.97,0,3.03,0.66,3.03,0.66c-0.02,0.71-0.25,1.38-0.67,1.84c0,0-0.99-0.4-2.09-0.4 c-1.63,0-2.75,0.9-2.75,4.05c0,3.14,1.06,3.99,2.69,3.99c0.36,0,0.73-0.05,0.73-0.05v-2.92h-1.63c0,0-0.15-0.35-0.15-1 c0-0.66,0.15-1.03,0.15-1.03h3.87v6.48c0,0-1.14,0.66-3.18,0.66c-3.21,0-4.96-2.14-4.96-6.14C71.56,78.41,73.31,76.26,76.52,76.26 z"></path> <path class="st2" d="M86.55,76.43c2.29,0,3.53,1.48,3.53,3.67c0,1.56-0.67,2.79-1.87,3.32l2.44,4.82c0,0-0.49,0.15-1.36,0.15 c-0.84,0-1.31-0.15-1.31-0.15l-2.21-4.48h-0.93v4.48c0,0-0.45,0.15-1.18,0.15c-0.81,0-1.21-0.15-1.21-0.15V76.43H86.55z M84.83,81.69h1.37c0.91,0,1.37-0.58,1.37-1.59c0-1.03-0.46-1.61-1.37-1.61h-1.37V81.69z"></path> <path class="st2" d="M96.85,76.23c2.75,0,4.51,1.86,4.51,6.18c0,4.32-1.73,6.18-4.51,6.18c-2.79,0-4.53-1.86-4.53-6.18 C92.32,78.14,94.08,76.23,96.85,76.23z M96.85,78.3c-1.23,0-1.99,0.8-1.99,4.1c0,3.29,0.76,4.08,1.99,4.08 c1.24,0,1.99-0.8,1.99-4.08C98.83,79.1,98.09,78.3,96.85,78.3z"></path> <path class="st2" d="M112.03,84.22c0,2.79-1.63,4.37-4.09,4.37c-2.46,0-4.06-1.61-4.06-4.37v-7.64c0,0,0.42-0.15,1.18-0.15 s1.19,0.15,1.19,0.15v7.84c0,1.25,0.61,1.93,1.72,1.93c1.12,0,1.7-0.68,1.7-1.93v-7.84c0,0,0.4-0.15,1.17-0.15 c0.76,0,1.19,0.15,1.19,0.15V84.22z"></path> <path class="st2" d="M117.34,88.24c0,0-0.43,0.15-1.2,0.15c-0.81,0-1.19-0.15-1.19-0.15V76.43h4.14c2.17,0,3.51,1.44,3.51,3.82 c0,2.36-1.34,3.8-3.51,3.8h-1.75V88.24z M118.74,81.99c0.88,0,1.39-0.61,1.39-1.74c0-1.15-0.51-1.74-1.39-1.74h-1.4v3.49H118.74z"></path> </g> <linearGradient id="SVGID_3_" gradientUnits="userSpaceOnUse" x1="130.3122" y1="4.1768" x2="0.618" y2="4.1768"> <stop offset="0" style="stop-color:#009640"></stop> <stop offset="0.0284" style="stop-color:#009A3F"></stop> <stop offset="0.08" style="stop-color:#00A43B"></stop> <stop offset="0.1491" style="stop-color:#70B631"></stop> <stop offset="0.2319" style="stop-color:#BFD014"></stop> <stop offset="0.2943" style="stop-color:#F1E500"></stop> <stop offset="0.327" style="stop-color:#F1DD1D"></stop> <stop offset="0.3903" style="stop-color:#EFC654"></stop> <stop offset="0.4777" style="stop-color:#EB9C7C"></stop> <stop offset="0.5848" style="stop-color:#E74D84"></stop> <stop offset="0.6387" style="stop-color:#E6007E"></stop> <stop offset="0.8127" style="stop-color:#8F86BF"></stop> <stop offset="0.942" style="stop-color:#009DDD"></stop> <stop offset="1" style="stop-color:#009FE3"></stop> </linearGradient> <path class="st3" d="M9.88,2.25h111.17c4.15,0,7.72,2.52,9.26,6.11C129.41,3.6,125.23,0,120.21,0H10.72C5.7,0,1.52,3.6,0.62,8.35 C2.16,4.76,5.72,2.25,9.88,2.25z"></path> <linearGradient id="SVGID_4_" gradientUnits="userSpaceOnUse" x1="129.7757" y1="-65.3827" x2="0.0815" y2="-65.3827" gradientTransform="matrix(-1 0 0 -1 130.3937 32.4398)"> <stop offset="0" style="stop-color:#009640"></stop> <stop offset="0.0284" style="stop-color:#009A3F"></stop> <stop offset="0.08" style="stop-color:#00A43B"></stop> <stop offset="0.1491" style="stop-color:#70B631"></stop> <stop offset="0.2319" style="stop-color:#BFD014"></stop> <stop offset="0.2943" style="stop-color:#F1E500"></stop> <stop offset="0.327" style="stop-color:#F1DD1D"></stop> <stop offset="0.3903" style="stop-color:#EFC654"></stop> <stop offset="0.4777" style="stop-color:#EB9C7C"></stop> <stop offset="0.5848" style="stop-color:#E74D84"></stop> <stop offset="0.6387" style="stop-color:#E6007E"></stop> <stop offset="0.8127" style="stop-color:#8F86BF"></stop> <stop offset="0.942" style="stop-color:#009DDD"></stop> <stop offset="1" style="stop-color:#009FE3"></stop> </linearGradient> <path class="st4" d="M121.05,99.75H9.88c-4.15,0-7.72-2.52-9.26-6.11C1.52,98.4,5.7,102,10.72,102h109.49c5.02,0,9.2-3.6,10.1-8.35 C128.77,97.24,125.21,99.75,121.05,99.75z"></path> <g> <path class="st5" d="M6.64,116.63c0.01,0.14,0.04,0.3,0,0.46c-0.05,0.19-0.12,0.37-0.21,0.52H2.81l-0.58,2.75h3.02 c0.01,0.14,0.04,0.31,0,0.47c-0.04,0.17-0.12,0.34-0.2,0.5H2.03l-0.61,2.85h3.73c0.01,0.15,0.02,0.31-0.01,0.48 c-0.04,0.18-0.11,0.34-0.2,0.51H0l1.82-8.55H6.64z"></path> <path class="st5" d="M11.35,125.09c0,0-0.21,0.08-0.61,0.08c-0.4,0-0.58-0.08-0.58-0.08l0.91-4.27c0.14-0.66-0.12-1.04-0.88-1.04 c-0.52,0-1.09,0.28-1.51,0.76l-0.97,4.56c0,0-0.23,0.08-0.61,0.08c-0.42,0-0.58-0.08-0.58-0.08l1.29-6.08c0,0,0.2-0.08,0.62-0.08 c0.38,0,0.57,0.08,0.57,0.08l-0.12,0.55c0.53-0.49,1.13-0.75,1.84-0.75c1.19,0,1.82,0.69,1.53,2.04L11.35,125.09z"></path> <path class="st5" d="M18.79,118.93c0.39,0,0.52,0.08,0.52,0.08l-1.29,6.08c0,0-0.21,0.08-0.51,0.08s-0.52-0.08-0.52-0.08 l0.06-0.64c-0.45,0.52-1.07,0.84-1.96,0.84c-1.35,0-1.98-1.1-1.47-3.43c0.53-2.42,1.6-3.05,2.85-3.05c0.83,0,1.32,0.25,1.55,0.82 l0.21-0.62C18.23,119.02,18.38,118.93,18.79,118.93z M16.61,119.79c-0.84,0-1.45,0.5-1.85,2.27c-0.38,1.67-0.11,2.27,0.84,2.27 c0.83,0,1.54-0.7,1.71-1.52l0.33-1.53C17.8,120.48,17.43,119.79,16.61,119.79z"></path> <path class="st5" d="M22.27,119.59c0.44-0.49,1.03-0.77,1.88-0.77c1.35,0,2.01,0.93,1.5,3.35c-0.51,2.42-1.52,3.13-2.87,3.13 c-0.84,0-1.28-0.38-1.51-0.87l-0.23,0.66c0,0-0.15,0.08-0.56,0.08c-0.39,0-0.57-0.08-0.57-0.08l1.86-8.74c0,0,0.2-0.08,0.59-0.08 c0.4,0,0.59,0.08,0.59,0.08L22.27,119.59z M23.51,119.79c-0.83,0-1.44,0.69-1.6,1.5l-0.33,1.52c-0.17,0.82,0.14,1.52,0.97,1.52 c0.95,0,1.53-0.5,1.91-2.27C24.84,120.29,24.46,119.79,23.51,119.79z"></path> <path class="st5" d="M27.86,125.09c0,0-0.21,0.08-0.61,0.08c-0.42,0-0.58-0.08-0.58-0.08l1.86-8.74c0,0,0.19-0.08,0.61-0.08 c0.39,0,0.58,0.08,0.58,0.08L27.86,125.09z"></path> <path class="st5" d="M30.98,125.09c0,0-0.21,0.08-0.61,0.08c-0.42,0-0.58-0.08-0.58-0.08l1.29-6.08c0,0,0.2-0.08,0.62-0.08 c0.39,0,0.57,0.08,0.57,0.08L30.98,125.09z M32.58,117.73c0,0-0.23,0.08-0.63,0.08c-0.43,0-0.61-0.08-0.61-0.08l0.24-1.12 c0,0,0.21-0.08,0.64-0.08c0.4,0,0.59,0.08,0.59,0.08L32.58,117.73z"></path> <path class="st5" d="M37.7,125.09c0,0-0.21,0.08-0.61,0.08c-0.4,0-0.58-0.08-0.58-0.08l0.91-4.27c0.14-0.66-0.12-1.04-0.88-1.04 c-0.52,0-1.09,0.28-1.51,0.76l-0.97,4.56c0,0-0.23,0.08-0.61,0.08c-0.42,0-0.58-0.08-0.58-0.08l1.29-6.08c0,0,0.2-0.08,0.62-0.08 c0.38,0,0.57,0.08,0.57,0.08l-0.12,0.55c0.53-0.49,1.13-0.75,1.84-0.75c1.19,0,1.82,0.69,1.53,2.04L37.7,125.09z"></path> <path class="st5" d="M43.35,124.6c-0.44,0.47-0.98,0.7-1.73,0.7c-1.35,0-2.16-0.97-1.65-3.4c0.51-2.42,1.53-3.09,2.88-3.09 c0.78,0,1.32,0.33,1.54,0.81l0.18-0.62c0,0,0.17-0.07,0.57-0.07c0.39,0,0.56,0.08,0.56,0.08l-1.25,5.85 c-0.48,2.27-1.38,3.28-3.44,3.28c-1.22,0-1.77-0.43-1.77-0.43c0.08-0.31,0.27-0.62,0.51-0.8c0,0,0.55,0.26,1.31,0.26 c1.12,0,1.76-0.33,2.21-2.24L43.35,124.6z M42.05,124.32c0.85,0,1.47-0.74,1.64-1.46l0.33-1.47c0.17-0.76-0.1-1.6-0.97-1.6 c-0.95,0-1.52,0.5-1.9,2.27C40.77,123.82,41.1,124.32,42.05,124.32z"></path> <path class="st5" d="M55.81,116.63c0,0,0.05,0.21-0.01,0.51c-0.07,0.31-0.21,0.53-0.21,0.53h-2.21l-1.58,7.42 c0,0-0.22,0.08-0.62,0.08c-0.43,0-0.59-0.08-0.59-0.08l1.58-7.42H49.9c0,0-0.05-0.2,0.02-0.52c0.06-0.3,0.2-0.52,0.2-0.52H55.81z"></path> <path class="st5" d="M58.61,118.83c0.44,0,0.74,0.13,0.96,0.3c-0.14,0.42-0.37,0.7-0.71,0.97c-0.2-0.17-0.43-0.22-0.7-0.22 c-0.46,0-0.99,0.36-1.41,0.9l-0.93,4.32c0,0-0.21,0.08-0.61,0.08c-0.41,0-0.58-0.08-0.58-0.08l1.29-6.08c0,0,0.2-0.08,0.62-0.08 c0.39,0,0.52,0.08,0.52,0.08l-0.12,0.7C57.55,118.93,58.13,118.83,58.61,118.83z"></path> <path class="st5" d="M64.95,118.93c0.39,0,0.52,0.08,0.52,0.08l-1.29,6.08c0,0-0.21,0.08-0.51,0.08c-0.3,0-0.52-0.08-0.52-0.08 l0.06-0.64c-0.45,0.52-1.07,0.84-1.96,0.84c-1.35,0-1.98-1.1-1.47-3.43c0.53-2.42,1.6-3.05,2.85-3.05c0.83,0,1.32,0.25,1.55,0.82 l0.21-0.62C64.39,119.02,64.54,118.93,64.95,118.93z M62.78,119.79c-0.84,0-1.45,0.5-1.85,2.27c-0.38,1.67-0.11,2.27,0.84,2.27 c0.83,0,1.54-0.7,1.71-1.52l0.33-1.53C63.96,120.48,63.6,119.79,62.78,119.79z"></path> <path class="st5" d="M70.87,125.09c0,0-0.21,0.08-0.61,0.08c-0.4,0-0.58-0.08-0.58-0.08l0.91-4.27c0.14-0.66-0.12-1.04-0.88-1.04 c-0.52,0-1.09,0.28-1.51,0.76l-0.97,4.56c0,0-0.23,0.08-0.61,0.08c-0.41,0-0.58-0.08-0.58-0.08l1.29-6.08c0,0,0.2-0.08,0.62-0.08 c0.38,0,0.57,0.08,0.57,0.08l-0.12,0.55c0.54-0.49,1.13-0.75,1.84-0.75c1.19,0,1.82,0.69,1.53,2.04L70.87,125.09z"></path> <path class="st5" d="M75.99,118.82c1.16,0,1.6,0.32,1.6,0.32c-0.06,0.31-0.25,0.65-0.49,0.84c0,0-0.53-0.19-1.21-0.19 c-0.81,0-1.27,0.3-1.39,0.85c-0.12,0.58,0.57,0.8,1.27,1.04c0.71,0.25,1.41,0.69,1.16,1.85c-0.26,1.2-1.09,1.76-2.6,1.76 c-1.25,0-1.9-0.43-1.9-0.43c0.08-0.34,0.26-0.68,0.51-0.88c0,0,0.71,0.3,1.54,0.3c0.72,0,1.2-0.27,1.32-0.85 c0.14-0.65-0.45-0.82-1.1-1.02c-0.76-0.24-1.54-0.75-1.27-1.89C73.69,119.47,74.49,118.82,75.99,118.82z"></path> <path class="st5" d="M82.32,116.28c0.8,0,1.26,0.25,1.26,0.25c-0.08,0.33-0.24,0.59-0.49,0.83c0,0-0.34-0.13-0.89-0.13 c-0.68,0-0.94,0.31-1.07,0.94l-0.17,0.77h1.48c0,0.13,0,0.29-0.05,0.46c-0.02,0.15-0.08,0.3-0.14,0.43h-1.48l-1.13,5.27 c0,0-0.21,0.08-0.61,0.08c-0.42,0-0.58-0.08-0.58-0.08l1.13-5.27h-0.78c0-0.13,0-0.28,0.04-0.45c0.04-0.18,0.1-0.32,0.15-0.44 h0.78l0.15-0.71C80.17,117.07,80.82,116.28,82.32,116.28z"></path> <path class="st5" d="M86.02,118.82c1.64,0,2.43,0.98,1.93,3.34c-0.5,2.35-1.58,3.15-3.2,3.15c-1.63,0-2.46-1.03-1.96-3.38 C83.29,119.56,84.39,118.82,86.02,118.82z M85.88,119.74c-0.87,0-1.53,0.49-1.92,2.31c-0.39,1.83,0.06,2.31,0.93,2.31 c0.87,0,1.52-0.49,1.91-2.31C87.18,120.23,86.74,119.74,85.88,119.74z"></path> <path class="st5" d="M92.89,118.83c0.44,0,0.74,0.13,0.96,0.3c-0.14,0.42-0.37,0.7-0.71,0.97c-0.2-0.17-0.43-0.22-0.7-0.22 c-0.46,0-0.99,0.36-1.41,0.9l-0.93,4.32c0,0-0.21,0.08-0.61,0.08c-0.42,0-0.58-0.08-0.58-0.08l1.29-6.08c0,0,0.2-0.08,0.62-0.08 c0.39,0,0.52,0.08,0.52,0.08l-0.12,0.7C91.84,118.93,92.42,118.83,92.89,118.83z"></path> <path class="st5" d="M101.32,118.82c1.19,0,1.71,0.84,1.46,1.99l-0.91,4.29c0,0-0.21,0.08-0.61,0.08c-0.42,0-0.58-0.08-0.58-0.08 l0.91-4.27c0.14-0.66-0.08-1.04-0.81-1.04c-0.49,0-1.02,0.26-1.44,0.76l-0.97,4.56c0,0-0.21,0.08-0.59,0.08 c-0.41,0-0.58-0.08-0.58-0.08l0.91-4.27c0.14-0.66-0.08-1.04-0.81-1.04c-0.49,0-1.02,0.28-1.44,0.75l-0.97,4.57 c0,0-0.21,0.08-0.59,0.08c-0.42,0-0.58-0.08-0.58-0.08l1.29-6.08c0,0,0.2-0.08,0.62-0.08c0.38,0,0.56,0.08,0.56,0.08l-0.11,0.53 c0.51-0.47,1.06-0.74,1.75-0.74c0.69,0,1.28,0.25,1.47,0.87C99.92,119.1,100.5,118.82,101.32,118.82z"></path> <path class="st5" d="M109.29,118.93c0.39,0,0.52,0.08,0.52,0.08l-1.29,6.08c0,0-0.21,0.08-0.51,0.08c-0.3,0-0.52-0.08-0.52-0.08 l0.06-0.64c-0.45,0.52-1.07,0.84-1.96,0.84c-1.35,0-1.98-1.1-1.47-3.43c0.54-2.42,1.6-3.05,2.85-3.05c0.83,0,1.32,0.25,1.55,0.82 l0.21-0.62C108.74,119.02,108.89,118.93,109.29,118.93z M107.12,119.79c-0.84,0-1.45,0.5-1.85,2.27 c-0.38,1.67-0.11,2.27,0.84,2.27c0.83,0,1.54-0.7,1.71-1.52l0.33-1.53C108.31,120.48,107.94,119.79,107.12,119.79z"></path> <path class="st5" d="M112.39,122.93c-0.23,1.08-0.07,1.4,0.77,1.4c0.24,0,0.63-0.05,0.63-0.05s0.04,0.2-0.02,0.48 c-0.05,0.27-0.14,0.43-0.14,0.43c-0.23,0.06-0.56,0.11-0.88,0.11c-1.46,0-1.88-0.8-1.56-2.3l0.68-3.17h-0.91 c0,0-0.04-0.17,0.02-0.44c0.06-0.3,0.17-0.45,0.17-0.45h0.91l0.22-1.08c0.36-0.19,0.81-0.27,1.24-0.24l-0.27,1.32h1.54 c0,0,0.04,0.15-0.02,0.44c-0.06,0.27-0.17,0.45-0.17,0.45h-1.54L112.39,122.93z"></path> <path class="st5" d="M116.16,125.09c0,0-0.21,0.08-0.61,0.08c-0.42,0-0.58-0.08-0.58-0.08l1.29-6.08c0,0,0.2-0.08,0.62-0.08 c0.39,0,0.57,0.08,0.57,0.08L116.16,125.09z M117.75,117.73c0,0-0.23,0.08-0.63,0.08c-0.43,0-0.61-0.08-0.61-0.08l0.24-1.12 c0,0,0.21-0.08,0.64-0.08c0.4,0,0.59,0.08,0.59,0.08L117.75,117.73z"></path> <path class="st5" d="M121.69,118.82c1.64,0,2.43,0.98,1.93,3.34c-0.5,2.35-1.58,3.15-3.2,3.15c-1.63,0-2.46-1.03-1.96-3.38 C118.96,119.56,120.07,118.82,121.69,118.82z M121.55,119.74c-0.87,0-1.53,0.49-1.92,2.31c-0.39,1.83,0.06,2.31,0.93,2.31 c0.87,0,1.52-0.49,1.91-2.31C122.86,120.23,122.42,119.74,121.55,119.74z"></path> <path class="st5" d="M129.41,125.09c0,0-0.21,0.08-0.61,0.08c-0.4,0-0.58-0.08-0.58-0.08l0.91-4.27c0.14-0.66-0.12-1.04-0.88-1.04 c-0.52,0-1.09,0.28-1.51,0.76l-0.97,4.56c0,0-0.23,0.08-0.61,0.08c-0.42,0-0.58-0.08-0.58-0.08l1.29-6.08c0,0,0.2-0.08,0.62-0.08 c0.38,0,0.57,0.08,0.57,0.08l-0.12,0.55c0.53-0.49,1.13-0.75,1.84-0.75c1.19,0,1.82,0.69,1.53,2.04L129.41,125.09z"></path> </g> </g> </svg> 