<svg xmlns="http://www.w3.org/2000/svg" xmlns:xlink="http://www.w3.org/1999/xlink" xml:space="preserve" id="Layer_1" x="0" y="0" viewBox="0 0 130.39 128.14"><style>.st1{fill:#2a2559}.st2{fill:#b17f4a}.st5{fill:#29235c}</style><defs><path id="SVGID_1_" d="M100.05 40.97c-.32-.32-.49-.74-.49-1.19s.17-.87.49-1.19l19.79-19.79c.55-.55.85-1.28.85-2.06s-.3-1.51-.85-2.06a2.927 2.927 0 0 0-4.12 0l-19.78 19.8c-.65.65-1.72.65-2.37 0L73.78 14.69a2.927 2.927 0 0 0-4.12 0c-.55.55-.85 1.28-.85 2.06s.3 1.51.85 2.06L89.45 38.6c.32.32.49.74.49 1.19s-.17.87-.49 1.19L69.67 60.75c-.55.55-.85 1.28-.85 2.06s.3 1.51.85 2.06 1.28.85 2.06.85 1.51-.3 2.06-.85l19.79-19.79c.32-.32.74-.49 1.19-.49s.87.17 1.19.49l19.79 19.79c.55.55 1.28.85 2.06.85s1.51-.3 2.06-.85.85-1.28.85-2.06-.3-1.51-.85-2.06z"/></defs><use xlink:href="#SVGID_1_" style="overflow:visible;fill:#2a2559"/><clipPath id="SVGID_2_"><use xlink:href="#SVGID_1_" style="overflow:visible"/></clipPath><path d="M126.07 76.79H8.74c-6.34 0-11.47-5.14-11.47-11.47V13.07C-2.74 6.74 2.4 1.6 8.74 1.6h117.34c6.34 0 11.47 5.14 11.47 11.47v52.24c0 6.34-5.14 11.48-11.48 11.48" style="clip-path:url(#SVGID_2_);fill:#2a2559"/><path d="M14.79 66.15h9.6c6.42 0 13.61-3.53 17.64-5.8H17.4c-.8 0-1.45-.65-1.45-1.45V20.37c0-.8.65-1.45 1.45-1.45h38.61c.8 0 1.45.65 1.45 1.45v26.49c2.25-2.64 5.82-9.77 5.82-12.79V17.78c0-2.57-2.09-4.66-4.66-4.66H14.79c-2.57 0-4.66 2.09-4.66 4.66v43.71c0 2.57 2.09 4.66 4.66 4.66" class="st1"/><path d="m57.68 57.32-20-18.41c-1.15-1.06-2.84-.89-3.78.36-.46.61-.67 1.38-.6 2.17s.42 1.51.97 2.02l20 18.41" class="st1"/><path d="m38.54 47.4 20 18.41c1.15 1.06 2.84.89 3.78-.36.46-.61.67-1.38.6-2.17s-.42-1.51-.97-2.02l-20-18.41" class="st1"/><path d="M12.65 76.26c1.97 0 3.03.66 3.03.66-.02.71-.25 1.38-.67 1.84 0 0-.99-.4-2.09-.4-1.63 0-2.75.9-2.75 4.05 0 3.14 1.06 3.99 2.69 3.99.36 0 .73-.05.73-.05v-2.92h-1.63s-.15-.35-.15-1c0-.66.15-1.03.15-1.03h3.87v6.48s-1.14.66-3.18.66c-3.21 0-4.96-2.14-4.96-6.14 0-3.99 1.74-6.14 4.96-6.14M18.57 76.58s.45-.15 1.18-.15c.75 0 1.21.15 1.21.15v9.65h4.18c.1.33.15.71.15 1.08s-.06.73-.15 1.08h-6.57zM31.28 76.23c2.75 0 4.51 1.86 4.51 6.18s-1.73 6.18-4.51 6.18c-2.79 0-4.53-1.86-4.53-6.18.01-4.27 1.77-6.18 4.53-6.18m0 2.07c-1.23 0-1.99.8-1.99 4.1 0 3.29.76 4.08 1.99 4.08 1.24 0 1.99-.8 1.99-4.08 0-3.3-.75-4.1-1.99-4.1M42.78 76.43c1.94 0 3.11 1.26 3.11 3.34 0 1.11-.43 1.94-1.17 2.44.91.5 1.48 1.41 1.48 2.72 0 2.22-1.29 3.45-3.36 3.45h-4.45V76.43zm-.48 4.93c.81 0 1.21-.6 1.21-1.51 0-.95-.4-1.51-1.21-1.51h-1.54v3.02zm.07 5.1c.93 0 1.4-.53 1.4-1.59 0-1.11-.48-1.59-1.4-1.59h-1.61v3.19h1.61zM52.55 76.43c.99 0 1.51.15 1.51.15l3.41 11.66s-.42.15-1.25.15c-.78 0-1.15-.15-1.15-.15l-.7-2.42h-3.75l-.7 2.42s-.43.15-1.17.15c-.7 0-1.11-.15-1.11-.15l3.41-11.66c-.01 0 .56-.15 1.5-.15m-.1 2.49s-.1.9-.4 1.94l-.88 3.01h2.64l-.87-3.01c-.31-1.06-.43-1.94-.43-1.94zM59.55 76.58s.45-.15 1.18-.15c.75 0 1.21.15 1.21.15v9.65h4.18c.1.33.15.71.15 1.08s-.06.73-.15 1.08h-6.57zM76.52 76.26c1.97 0 3.03.66 3.03.66-.02.71-.25 1.38-.67 1.84 0 0-.99-.4-2.09-.4-1.63 0-2.75.9-2.75 4.05 0 3.14 1.06 3.99 2.69 3.99.36 0 .73-.05.73-.05v-2.92h-1.63s-.15-.35-.15-1c0-.66.15-1.03.15-1.03h3.87v6.48s-1.14.66-3.18.66c-3.21 0-4.96-2.14-4.96-6.14 0-3.99 1.75-6.14 4.96-6.14M86.55 76.43c2.29 0 3.53 1.48 3.53 3.67 0 1.56-.67 2.79-1.87 3.32l2.44 4.82s-.49.15-1.36.15c-.84 0-1.31-.15-1.31-.15l-2.21-4.48h-.93v4.48s-.45.15-1.18.15c-.81 0-1.21-.15-1.21-.15V76.43zm-1.72 5.26h1.37c.91 0 1.37-.58 1.37-1.59 0-1.03-.46-1.61-1.37-1.61h-1.37zM96.85 76.23c2.75 0 4.51 1.86 4.51 6.18s-1.73 6.18-4.51 6.18c-2.79 0-4.53-1.86-4.53-6.18 0-4.27 1.76-6.18 4.53-6.18m0 2.07c-1.23 0-1.99.8-1.99 4.1 0 3.29.76 4.08 1.99 4.08 1.24 0 1.99-.8 1.99-4.08-.01-3.3-.75-4.1-1.99-4.1M112.03 84.22c0 2.79-1.63 4.37-4.09 4.37s-4.06-1.61-4.06-4.37v-7.64s.42-.15 1.18-.15 1.19.15 1.19.15v7.84c0 1.25.61 1.93 1.72 1.93 1.12 0 1.7-.68 1.7-1.93v-7.84s.4-.15 1.17-.15c.76 0 1.19.15 1.19.15zM117.34 88.24s-.43.15-1.2.15c-.81 0-1.19-.15-1.19-.15V76.43h4.14c2.17 0 3.51 1.44 3.51 3.82 0 2.36-1.34 3.8-3.51 3.8h-1.75zm1.4-6.25c.88 0 1.39-.61 1.39-1.74 0-1.15-.51-1.74-1.39-1.74h-1.4V82h1.4z" class="st2"/><linearGradient id="SVGID_3_" x1="130.312" x2=".618" y1="4.177" y2="4.177" gradientUnits="userSpaceOnUse"><stop offset="0" style="stop-color:#009640"/><stop offset=".028" style="stop-color:#009a3f"/><stop offset=".08" style="stop-color:#00a43b"/><stop offset=".149" style="stop-color:#70b631"/><stop offset=".232" style="stop-color:#bfd014"/><stop offset=".294" style="stop-color:#f1e500"/><stop offset=".327" style="stop-color:#f1dd1d"/><stop offset=".39" style="stop-color:#efc654"/><stop offset=".478" style="stop-color:#eb9c7c"/><stop offset=".585" style="stop-color:#e74d84"/><stop offset=".639" style="stop-color:#e6007e"/><stop offset=".813" style="stop-color:#8f86bf"/><stop offset=".942" style="stop-color:#009ddd"/><stop offset="1" style="stop-color:#009fe3"/></linearGradient><path d="M9.88 2.25h111.17c4.15 0 7.72 2.52 9.26 6.11-.9-4.76-5.08-8.36-10.1-8.36H10.72C5.7 0 1.52 3.6.62 8.35c1.54-3.59 5.1-6.1 9.26-6.1" style="fill:url(#SVGID_3_)"/><linearGradient id="SVGID_4_" x1="129.776" x2=".082" y1="-65.383" y2="-65.383" gradientTransform="matrix(-1 0 0 -1 130.394 32.44)" gradientUnits="userSpaceOnUse"><stop offset="0" style="stop-color:#009640"/><stop offset=".028" style="stop-color:#009a3f"/><stop offset=".08" style="stop-color:#00a43b"/><stop offset=".149" style="stop-color:#70b631"/><stop offset=".232" style="stop-color:#bfd014"/><stop offset=".294" style="stop-color:#f1e500"/><stop offset=".327" style="stop-color:#f1dd1d"/><stop offset=".39" style="stop-color:#efc654"/><stop offset=".478" style="stop-color:#eb9c7c"/><stop offset=".585" style="stop-color:#e74d84"/><stop offset=".639" style="stop-color:#e6007e"/><stop offset=".813" style="stop-color:#8f86bf"/><stop offset=".942" style="stop-color:#009ddd"/><stop offset="1" style="stop-color:#009fe3"/></linearGradient><path d="M121.05 99.75H9.88c-4.15 0-7.72-2.52-9.26-6.11.9 4.76 5.08 8.36 10.1 8.36h109.49c5.02 0 9.2-3.6 10.1-8.35-1.54 3.59-5.1 6.1-9.26 6.1" style="fill:url(#SVGID_4_)"/><path d="M6.64 116.63c.01.14.04.3 0 .46-.05.19-.12.37-.21.52H2.81l-.58 2.75h3.02c.01.14.04.31 0 .47-.04.17-.12.34-.2.5H2.03l-.61 2.85h3.73c.01.15.02.31-.01.48-.04.18-.11.34-.2.51H0l1.82-8.55h4.82zM11.35 125.09s-.21.08-.61.08-.58-.08-.58-.08l.91-4.27c.14-.66-.12-1.04-.88-1.04-.52 0-1.09.28-1.51.76l-.97 4.56s-.23.08-.61.08c-.42 0-.58-.08-.58-.08l1.29-6.08s.2-.08.62-.08c.38 0 .57.08.57.08l-.12.55c.53-.49 1.13-.75 1.84-.75 1.19 0 1.82.69 1.53 2.04zM18.79 118.93c.39 0 .52.08.52.08l-1.29 6.08s-.21.08-.51.08-.52-.08-.52-.08l.06-.64c-.45.52-1.07.84-1.96.84-1.35 0-1.98-1.1-1.47-3.43.53-2.42 1.6-3.05 2.85-3.05.83 0 1.32.25 1.55.82l.21-.62c0 .01.15-.08.56-.08m-2.18.86c-.84 0-1.45.5-1.85 2.27-.38 1.67-.11 2.27.84 2.27.83 0 1.54-.7 1.71-1.52l.33-1.53c.16-.8-.21-1.49-1.03-1.49M22.27 119.59c.44-.49 1.03-.77 1.88-.77 1.35 0 2.01.93 1.5 3.35s-1.52 3.13-2.87 3.13c-.84 0-1.28-.38-1.51-.87l-.23.66s-.15.08-.56.08c-.39 0-.57-.08-.57-.08l1.86-8.74s.2-.08.59-.08c.4 0 .59.08.59.08zm1.24.2c-.83 0-1.44.69-1.6 1.5l-.33 1.52c-.17.82.14 1.52.97 1.52.95 0 1.53-.5 1.91-2.27s0-2.27-.95-2.27M27.86 125.09s-.21.08-.61.08c-.42 0-.58-.08-.58-.08l1.86-8.74s.19-.08.61-.08c.39 0 .58.08.58.08zM30.98 125.09s-.21.08-.61.08c-.42 0-.58-.08-.58-.08l1.29-6.08s.2-.08.62-.08c.39 0 .57.08.57.08zm1.6-7.36s-.23.08-.63.08c-.43 0-.61-.08-.61-.08l.24-1.12s.21-.08.64-.08c.4 0 .59.08.59.08zM37.7 125.09s-.21.08-.61.08-.58-.08-.58-.08l.91-4.27c.14-.66-.12-1.04-.88-1.04-.52 0-1.09.28-1.51.76l-.97 4.56s-.23.08-.61.08c-.42 0-.58-.08-.58-.08l1.29-6.08s.2-.08.62-.08c.38 0 .57.08.57.08l-.12.55c.53-.49 1.13-.75 1.84-.75 1.19 0 1.82.69 1.53 2.04zM43.35 124.6c-.44.47-.98.7-1.73.7-1.35 0-2.16-.97-1.65-3.4.51-2.42 1.53-3.09 2.88-3.09.78 0 1.32.33 1.54.81l.18-.62s.17-.07.57-.07c.39 0 .56.08.56.08l-1.25 5.85c-.48 2.27-1.38 3.28-3.44 3.28-1.22 0-1.77-.43-1.77-.43.08-.31.27-.62.51-.8 0 0 .55.26 1.31.26 1.12 0 1.76-.33 2.21-2.24zm-1.3-.28c.85 0 1.47-.74 1.64-1.46l.33-1.47c.17-.76-.1-1.6-.97-1.6-.95 0-1.52.5-1.9 2.27-.38 1.76-.05 2.26.9 2.26M55.81 116.63s.05.21-.01.51c-.07.31-.21.53-.21.53h-2.21l-1.58 7.42s-.22.08-.62.08c-.43 0-.59-.08-.59-.08l1.58-7.42H49.9s-.05-.2.02-.52c.06-.3.2-.52.2-.52zM58.61 118.83c.44 0 .74.13.96.3-.14.42-.37.7-.71.97-.2-.17-.43-.22-.7-.22-.46 0-.99.36-1.41.9l-.93 4.32s-.21.08-.61.08c-.41 0-.58-.08-.58-.08l1.29-6.08s.2-.08.62-.08c.39 0 .52.08.52.08l-.12.7c.61-.79 1.19-.89 1.67-.89M64.95 118.93c.39 0 .52.08.52.08l-1.29 6.08s-.21.08-.51.08-.52-.08-.52-.08l.06-.64c-.45.52-1.07.84-1.96.84-1.35 0-1.98-1.1-1.47-3.43.53-2.42 1.6-3.05 2.85-3.05.83 0 1.32.25 1.55.82l.21-.62c0 .01.15-.08.56-.08m-2.17.86c-.84 0-1.45.5-1.85 2.27-.38 1.67-.11 2.27.84 2.27.83 0 1.54-.7 1.71-1.52l.33-1.53c.15-.8-.21-1.49-1.03-1.49M70.87 125.09s-.21.08-.61.08-.58-.08-.58-.08l.91-4.27c.14-.66-.12-1.04-.88-1.04-.52 0-1.09.28-1.51.76l-.97 4.56s-.23.08-.61.08c-.41 0-.58-.08-.58-.08l1.29-6.08s.2-.08.62-.08c.38 0 .57.08.57.08l-.12.55c.54-.49 1.13-.75 1.84-.75 1.19 0 1.82.69 1.53 2.04zM75.99 118.82c1.16 0 1.6.32 1.6.32-.06.31-.25.65-.49.84 0 0-.53-.19-1.21-.19-.81 0-1.27.3-1.39.85-.12.58.57.8 1.27 1.04.71.25 1.41.69 1.16 1.85-.26 1.2-1.09 1.76-2.6 1.76-1.25 0-1.9-.43-1.9-.43.08-.34.26-.68.51-.88 0 0 .71.3 1.54.3.72 0 1.2-.27 1.32-.85.14-.65-.45-.82-1.1-1.02-.76-.24-1.54-.75-1.27-1.89.26-1.05 1.06-1.7 2.56-1.7M82.32 116.28c.8 0 1.26.25 1.26.25-.08.33-.24.59-.49.83 0 0-.34-.13-.89-.13-.68 0-.94.31-1.07.94l-.17.77h1.48c0 .13 0 .29-.05.46-.02.15-.08.3-.14.43h-1.48l-1.13 5.27s-.21.08-.61.08c-.42 0-.58-.08-.58-.08l1.13-5.27h-.78c0-.13 0-.28.04-.45.04-.18.1-.32.15-.44h.78l.15-.71c.25-1.16.9-1.95 2.4-1.95M86.02 118.82c1.64 0 2.43.98 1.93 3.34-.5 2.35-1.58 3.15-3.2 3.15-1.63 0-2.46-1.03-1.96-3.38.5-2.37 1.6-3.11 3.23-3.11m-.14.92c-.87 0-1.53.49-1.92 2.31-.39 1.83.06 2.31.93 2.31s1.52-.49 1.91-2.31c.38-1.82-.06-2.31-.92-2.31M92.89 118.83c.44 0 .74.13.96.3-.14.42-.37.7-.71.97-.2-.17-.43-.22-.7-.22-.46 0-.99.36-1.41.9l-.93 4.32s-.21.08-.61.08c-.42 0-.58-.08-.58-.08l1.29-6.08s.2-.08.62-.08c.39 0 .52.08.52.08l-.12.7c.62-.79 1.2-.89 1.67-.89M101.32 118.82c1.19 0 1.71.84 1.46 1.99l-.91 4.29s-.21.08-.61.08c-.42 0-.58-.08-.58-.08l.91-4.27c.14-.66-.08-1.04-.81-1.04-.49 0-1.02.26-1.44.76l-.97 4.56s-.21.08-.59.08c-.41 0-.58-.08-.58-.08l.91-4.27c.14-.66-.08-1.04-.81-1.04-.49 0-1.02.28-1.44.75l-.97 4.57s-.21.08-.59.08c-.42 0-.58-.08-.58-.08l1.29-6.08s.2-.08.62-.08c.38 0 .56.08.56.08l-.11.53c.51-.47 1.06-.74 1.75-.74s1.28.25 1.47.87c.62-.6 1.2-.88 2.02-.88M109.29 118.93c.39 0 .52.08.52.08l-1.29 6.08s-.21.08-.51.08-.52-.08-.52-.08l.06-.64c-.45.52-1.07.84-1.96.84-1.35 0-1.98-1.1-1.47-3.43.54-2.42 1.6-3.05 2.85-3.05.83 0 1.32.25 1.55.82l.21-.62c.01.01.16-.08.56-.08m-2.17.86c-.84 0-1.45.5-1.85 2.27-.38 1.67-.11 2.27.84 2.27.83 0 1.54-.7 1.71-1.52l.33-1.53c.16-.8-.21-1.49-1.03-1.49M112.39 122.93c-.23 1.08-.07 1.4.77 1.4.24 0 .63-.05.63-.05s.04.2-.02.48c-.05.27-.14.43-.14.43-.23.06-.56.11-.88.11-1.46 0-1.88-.8-1.56-2.3l.68-3.17h-.91s-.04-.17.02-.44c.06-.3.17-.45.17-.45h.91l.22-1.08c.36-.19.81-.27 1.24-.24l-.27 1.32h1.54s.04.15-.02.44c-.06.27-.17.45-.17.45h-1.54zM116.16 125.09s-.21.08-.61.08c-.42 0-.58-.08-.58-.08l1.29-6.08s.2-.08.62-.08c.39 0 .57.08.57.08zm1.59-7.36s-.23.08-.63.08c-.43 0-.61-.08-.61-.08l.24-1.12s.21-.08.64-.08c.4 0 .59.08.59.08zM121.69 118.82c1.64 0 2.43.98 1.93 3.34-.5 2.35-1.58 3.15-3.2 3.15-1.63 0-2.46-1.03-1.96-3.38.5-2.37 1.61-3.11 3.23-3.11m-.14.92c-.87 0-1.53.49-1.92 2.31-.39 1.83.06 2.31.93 2.31s1.52-.49 1.91-2.31-.05-2.31-.92-2.31M129.41 125.09s-.21.08-.61.08-.58-.08-.58-.08l.91-4.27c.14-.66-.12-1.04-.88-1.04-.52 0-1.09.28-1.51.76l-.97 4.56s-.23.08-.61.08c-.42 0-.58-.08-.58-.08l1.29-6.08s.2-.08.62-.08c.38 0 .57.08.57.08l-.12.55c.53-.49 1.13-.75 1.84-.75 1.19 0 1.82.69 1.53 2.04z" class="st5"/></svg>