<svg xmlns="http://www.w3.org/2000/svg" width="151" height="37" fill="none" viewBox="0 0 151 37"><path fill="#000" d="M.375 8.28q0-2.429 1.254-4.288c.837-1.238 1.995-2.212 3.473-2.904C6.581.396 8.292.045 10.238.045s3.492.331 4.874.984c1.381.663 2.451 1.598 3.22 2.807.768 1.208 1.177 2.66 1.235 4.327h-4.854c-.049-1.19-.477-2.125-1.284-2.787-.808-.673-1.897-1.004-3.259-1.004-1.488 0-2.685.331-3.58 1.004-.894.672-1.342 1.588-1.342 2.758q0 1.476.817 2.338.82.85 2.558 1.277l4.358.984q3.56.76 5.312 2.602c1.157 1.228 1.74 2.885 1.74 4.96 0 1.696-.418 3.187-1.254 4.483-.837 1.287-2.014 2.28-3.54 2.983-1.528.692-3.318 1.042-5.36 1.042S6.23 28.472 4.761 27.8c-1.47-.672-2.607-1.617-3.434-2.826C.51 23.755.073 22.333.024 20.686h4.854c.03 1.169.487 2.085 1.382 2.757s2.12 1.004 3.657 1.004 2.899-.331 3.852-1.004c.944-.672 1.42-1.559 1.42-2.68 0-.964-.252-1.725-.758-2.3-.506-.565-1.323-.964-2.461-1.198l-4.397-.984c-2.354-.507-4.134-1.423-5.34-2.758Q.41 11.532.413 8.299zM23.72 37V9.546H28l.302 2.845c.555-1.091 1.41-1.93 2.578-2.524 1.158-.594 2.442-.896 3.833-.896 1.79 0 3.346.409 4.64 1.218 1.303.809 2.315 1.94 3.054 3.382.74 1.442 1.1 3.147 1.1 5.126 0 1.978-.341 3.683-1.022 5.203s-1.673 2.72-2.977 3.587c-1.303.877-2.889 1.306-4.756 1.306-1.391 0-2.656-.264-3.814-.8-1.147-.535-2.013-1.266-2.597-2.202V37zm4.66-18.078c0 1.11.214 2.105.642 2.962a4.88 4.88 0 0 0 1.839 2.027c.797.497 1.721.74 2.782.74s2.023-.243 2.801-.74a4.74 4.74 0 0 0 1.78-2.027c.409-.857.603-1.851.603-2.962s-.204-2.105-.603-2.963c-.408-.857-1.002-1.54-1.78-2.027-.788-.497-1.722-.74-2.801-.74s-1.994.243-2.782.72a4.74 4.74 0 0 0-1.839 2.018c-.428.857-.642 1.861-.642 3.001zM55.559 28.794c-1.849 0-3.483-.43-4.913-1.277a9 9 0 0 1-3.356-3.499c-.807-1.48-1.216-3.186-1.216-5.106s.39-3.674 1.177-5.165a8.74 8.74 0 0 1 3.298-3.508c1.41-.848 3.035-1.277 4.854-1.277s3.521.4 4.893 1.199a8.2 8.2 0 0 1 3.161 3.323c.75 1.422 1.119 3.118 1.119 5.087v1.403l-16.07.04.078-2.963h11.41c0-1.287-.408-2.33-1.235-3.119-.817-.79-1.926-1.18-3.317-1.18-1.09 0-2.004.225-2.753.683s-1.304 1.14-1.683 2.047c-.38.906-.564 2.027-.564 3.342 0 2.027.438 3.557 1.303 4.6.876 1.043 2.17 1.56 3.882 1.56 1.264 0 2.305-.245 3.132-.722.817-.477 1.362-1.16 1.615-2.047h4.28c-.409 2.047-1.41 3.655-3.016 4.824-1.605 1.17-3.638 1.745-6.09 1.745zM72.922 28.297h-4.62V9.537h4.28l.379 2.426c.583-.935 1.41-1.666 2.48-2.202s2.247-.8 3.502-.8c2.354 0 4.124.693 5.321 2.086 1.197 1.394 1.8 3.294 1.8 5.701v11.549h-4.62V17.85c0-1.57-.351-2.739-1.061-3.509s-1.664-1.16-2.88-1.16c-1.44 0-2.568.459-3.375 1.365s-1.216 2.124-1.216 3.645v10.106zM98.32 28.794c-1.819 0-3.375-.41-4.678-1.238-1.304-.819-2.316-1.969-3.035-3.44-.72-1.472-1.08-3.177-1.08-5.126s.36-3.674 1.08-5.185 1.76-2.69 3.132-3.547c1.362-.858 2.986-1.296 4.854-1.296 1.313 0 2.51.263 3.599.78 1.089.516 1.916 1.247 2.5 2.182V.044h4.591v28.253h-4.241l-.301-2.924c-.555 1.062-1.411 1.9-2.559 2.505-1.148.604-2.432.916-3.852.916zm1.022-4.26q1.634 0 2.801-.7c.779-.469 1.401-1.141 1.839-2.018q.659-1.315.661-2.982c0-1.111-.223-2.134-.661-2.982a5.25 5.25 0 0 0-1.839-2.017c-.788-.498-1.721-.741-2.801-.741s-1.984.244-2.763.74a4.84 4.84 0 0 0-1.8 2.027c-.418.858-.622 1.852-.622 2.963s.204 2.105.623 2.963a4.83 4.83 0 0 0 1.8 2.017c.778.478 1.702.721 2.762.721z"/><path fill="#e92589" d="M125.382 9.761h-8.025v-3.79c0-1.092.185-1.901.545-2.398.34-.468 1.031-.712 2.062-.712h1.858V.747l-.243-.049a5 5 0 0 0-.944-.097c-.34-.01-.671-.02-.973-.02-.797 0-1.566.175-2.256.526-.71.36-1.294.946-1.742 1.735-.437.79-.661 1.842-.661 3.128v3.791h-2.84v2.134h2.84V28.61h2.354V11.895h8.025V28.61h2.354V.57h-2.354zM149.117 14.117c-.807-1.471-1.916-2.65-3.307-3.508-1.391-.857-3.016-1.296-4.806-1.296-1.789 0-3.375.439-4.786 1.296a9.25 9.25 0 0 0-3.326 3.518c-.808 1.472-1.216 3.177-1.216 5.068s.408 3.567 1.216 5.048a9.3 9.3 0 0 0 3.336 3.537c1.411.858 3.016 1.296 4.786 1.296 1.771 0 3.414-.438 4.805-1.296a9.2 9.2 0 0 0 3.308-3.527c.807-1.482 1.216-3.177 1.216-5.049 0-1.87-.409-3.596-1.216-5.067zm-8.113 12.738c-1.352 0-2.558-.332-3.589-.975-1.031-.653-1.858-1.56-2.451-2.71-.594-1.15-.895-2.494-.895-3.975 0-1.482.301-2.856.895-3.996.593-1.13 1.41-2.037 2.451-2.69 1.031-.652 2.237-.974 3.589-.974 1.353 0 2.559.331 3.59.974 1.031.653 1.858 1.56 2.451 2.69.594 1.14.895 2.485.895 3.996 0 1.51-.301 2.826-.895 3.976-.593 1.15-1.41 2.056-2.451 2.709-1.031.653-2.237.975-3.59.975"/></svg>