<svg width="36" height="36" viewBox="0 0 36 36" fill="none" xmlns="http://www.w3.org/2000/svg">
<path d="M17.37 0.256538L0.221926 18.6332C0.0768204 18.7786 0 18.9839 0 19.189V20.8395C0 21.2841 0.358496 21.6518 0.810883 21.6518H35.124C35.5679 21.6518 35.9349 21.2927 35.9349 20.8395V19.189C35.9349 18.9839 35.8581 18.7871 35.7129 18.6332L18.5564 0.256538C18.2406 -0.0855127 17.6943 -0.0855127 17.3785 0.256538H17.37Z" fill="#E6188C"/>
<path d="M17.7199 15.4435L0.56335 25.5084C0.230461 25.6109 0 25.9273 0 26.278V27.6547C0 28.0994 0.358496 28.4671 0.810883 28.4671H35.124C35.5679 28.4671 35.9349 28.108 35.9349 27.6547V26.278C35.9349 25.9273 35.7044 25.6109 35.3715 25.5084L18.215 15.4349C18.0529 15.3837 17.8821 15.3837 17.7284 15.4349L17.7199 15.4435Z" fill="#F060A8"/>
<path d="M17.7199 27.218L0.56335 32.6566C0.230461 32.7592 0 33.0756 0 33.4261V34.8029C0 35.2476 0.358496 35.6152 0.810883 35.6152H35.124C35.5679 35.6152 35.9349 35.2561 35.9349 34.8029V33.4261C35.9349 33.0756 35.7044 32.7592 35.3715 32.6566L18.215 27.2265C18.0529 27.1752 17.8821 27.1752 17.7284 27.2265L17.7199 27.218Z" fill="#F7AED2"/>
</svg>
