<svg xmlns="http://www.w3.org/2000/svg" viewBox="0 0 428.78 111.58"><defs><style>.cls-1{fill:#333}.cls-2{fill:#ec008c}</style></defs><g id="Layer_2" data-name="Layer 2"><g id="Layer_1-2" data-name="Layer 1"><path d="M100.23 53.31a9.92 9.92 0 0 1 4-8Q108.33 42 115 42t10.75 3.22a11.26 11.26 0 0 1 4.36 8.78h-9.56c-.26-3.1-2.17-4.65-5.71-4.65a6.92 6.92 0 0 0-4.12 1.07 3.41 3.41 0 0 0-1.46 2.91 3.24 3.24 0 0 0 2.19 2.92 21.4 21.4 0 0 0 5.32 1.66c2.07.4 4.15.89 6.2 1.49a11.74 11.74 0 0 1 5.28 3.18 8.42 8.42 0 0 1 2.19 6.07 9.62 9.62 0 0 1-4.21 8.09 17.62 17.62 0 0 1-10.76 3.12 17.55 17.55 0 0 1-10.72-3.09 11.37 11.37 0 0 1-4.59-8.85h9.57c.35 3.1 2.32 4.64 5.9 4.64a6.9 6.9 0 0 0 4.19-1.16 3.6 3.6 0 0 0 1.59-3 3.32 3.32 0 0 0-2.19-3 20.2 20.2 0 0 0-5.31-1.69q-3.12-.6-6.21-1.46a11.67 11.67 0 0 1-5.28-3.09 7.9 7.9 0 0 1-2.19-5.85M154 71.48h4.45v7.83h-5.91c-3.77 0-6.67-.87-8.7-2.59s-3.06-4.58-3.06-8.55v-18h-3.91v-7.6h3.91v-9.08h9.37v9.08h8.23v7.63h-8.23v18a3.24 3.24 0 0 0 .86 2.55 4.52 4.52 0 0 0 2.99.73M170 74.6q-5.37-5.23-5.38-13.73T170 47.21a20.24 20.24 0 0 1 27 0q5.46 5.17 5.45 13.66T197 74.6a18.9 18.9 0 0 1-13.58 5.24A18.56 18.56 0 0 1 170 74.6m13.43-2.6a9.08 9.08 0 0 0 6.74-2.89q2.83-2.93 2.83-8.2t-2.79-8.13a9.05 9.05 0 0 0-6.73-2.85 8.88 8.88 0 0 0-6.68 2.85q-2.72 2.85-2.72 8.16t2.72 8.16a8.84 8.84 0 0 0 6.63 2.9M220.62 42.57v6.5q3.7-7 10.75-7v9.55h-2.32c-2.79 0-4.89.69-6.31 2.09s-2.12 3.79-2.12 7.19v18.41h-9.37V42.57ZM249.23 78.64l-14.4-36.07h10.49l9.36 26.13 9.89-26.13h9.76l-23 54.11h-9.73ZM281.11 79.31V30.24h9.36v49.07ZM304.11 74.5q-5-5.34-4.94-13.63t4.91-13.56A16.33 16.33 0 0 1 316.56 42a12.9 12.9 0 0 1 11.56 6.23v-5.7h9.29v36.78h-9.29v-6.17q-4.19 6.7-11.62 6.7a16.2 16.2 0 0 1-12.39-5.34m21.09-5.64a10.65 10.65 0 0 0 2.92-7.92A10.65 10.65 0 0 0 325.2 53a9.55 9.55 0 0 0-13.65 0q-2.9 2.85-2.89 7.89a10.77 10.77 0 0 0 2.92 8 9.43 9.43 0 0 0 13.62 0ZM358.06 42.57v5.5q3.53-6 11.43-6a13.66 13.66 0 0 1 10.29 4.14q4 4.16 4 11.51v21.59h-9.29V59q0-4.32-2.2-6.6a7.86 7.86 0 0 0-6-2.29 8 8 0 0 0-6 2.29c-1.48 1.52-2.23 3.72-2.23 6.6v20.31h-9.36V42.57ZM410.26 79.84a17.4 17.4 0 0 1-13.08-5.21q-5.06-5.2-5.05-13.76t5.08-13.69A17.67 17.67 0 0 1 410.36 42a18.26 18.26 0 0 1 13.24 5q5.19 5 5.18 13.36a23.6 23.6 0 0 1-.26 3.58h-26.83a8.72 8.72 0 0 0 2.66 5.77 8.28 8.28 0 0 0 5.91 2.29 7.74 7.74 0 0 0 7.17-4h10.09a16.13 16.13 0 0 1-6.17 8.55 18.42 18.42 0 0 1-11.09 3.29m6.14-27.72a8.78 8.78 0 0 0-6-2.19 8.3 8.3 0 0 0-5.88 2.19 9.3 9.3 0 0 0-2.83 5.88h17.4a8 8 0 0 0-2.69-5.88" class="cls-1"/><path d="M3.48 40.5 44.7 9.42a5.22 5.22 0 0 0 1-7.33 5.24 5.24 0 0 0-7.34-1L2.82 27.87a7.09 7.09 0 0 0-1.39 9.93ZM30.31 43.23l26.33-19.85a5.28 5.28 0 0 0 1-7.41 5.28 5.28 0 0 0-7.4-1L23.93 34.79a.63.63 0 0 0-.12.87l5.63 7.45a.63.63 0 0 0 .87.12M28.31 110.53l33.43-25.2a10.43 10.43 0 0 0 2-14.61L22 102.2a5.22 5.22 0 0 0-1 7.31 5.23 5.23 0 0 0 7.31 1.02M17.42 95.56l27.4-20.65a.32.32 0 0 0 .06-.45l-5.94-7.86a.32.32 0 0 0-.45-.07L11.1 87.18a5.25 5.25 0 0 0-1 7.36 5.25 5.25 0 0 0 7.32 1.02M59.22 64.73 42.95 43.21l-8.37 6.31 16.27 21.52zM32.33 62.13 15.95 40.45l-8.37 6.32 16.38 21.67z" class="cls-2"/></g></g></svg>