<svg xmlns="http://www.w3.org/2000/svg" xml:space="preserve" width="715.578" height="150.777" viewBox="0 0 189.33 39.893"><g stroke-width=".789"><g fill="#fe5000"><path d="M83.037 0h-9.73v20.648h9.73c6.232 0 10.083-4.85 10.083-10.34 0-5.556-3.854-10.309-10.083-10.309m0 17.597-6.39.222V3.05h6.39c4.175 0 6.548 3.532 6.548 7.29 0 3.724-2.376 7.257-6.548 7.257" data-name="Path 5367"/><path d="M0 3.05h8.06v17.597h3.34V3.05h6.27L19.427.003v-.005H0z" data-name="Path 5368"/><path d="M173.653 11.85h11.658V8.767h-11.658V3.052h13.918L189.325 0h-19.011v20.648h19.01v-3.05h-15.67z" data-name="Path 5369"/><path d="M38.822 11.81c3.471-.289 4.977-2.954 4.977-5.876 0-3.18-1.927-5.942-5.652-5.942h-14.16V20.64h3.34v-8.799h7.385l5.073 8.8h3.725l-5.105-8.831zm-.674-3.05H27.326V3.044h10.822c1.605 0 2.312 1.412 2.312 2.918 0 1.573-.643 2.794-2.312 2.794" data-name="Path 5370"/><path d="M150.483 10.34c0-3.757 2.376-7.29 6.548-7.29h6.433l1.76-3.05h-8.19c-6.232 0-10.083 4.752-10.083 10.308 0 5.49 3.853 10.34 10.083 10.34h8.19v-3.052h-8.19c-4.175 0-6.548-3.532-6.548-7.257" data-name="Path 5371"/><path d="M138.553 0v15.35L125.613 0h-3.147v20.648h3.338V5.266l12.937 15.383h3.155V0h-3.339z" data-name="Path 5372"/><path d="m115.363 3.05 1.749-3.051H98.1v20.648h19.01v-3.05h-15.67v-5.75h11.657V8.767H101.44V3.05z" data-name="Path 5373"/><path d="m66.194 3.05 1.752-3.051H48.935v20.648h19.011v-3.05H52.275v-5.75h11.657V8.767H52.275V3.05z" data-name="Path 5374"/><path d="M83.037 0h-9.73v20.648h9.73c6.232 0 10.083-4.85 10.083-10.34 0-5.556-3.854-10.309-10.083-10.309m0 17.597-6.39.222V3.05h6.39c4.175 0 6.548 3.532 6.548 7.29 0 3.724-2.376 7.257-6.548 7.257" data-name="Path 5375"/><path d="M0 3.05h8.06v17.597h3.34V3.05h6.27L19.427.003v-.005H0z" data-name="Path 5376"/><path d="M173.653 11.85h11.658V8.767h-11.658V3.052h13.918L189.325 0h-19.011v20.648h19.01v-3.05h-15.67z" data-name="Path 5377"/><path d="M38.822 11.81c3.471-.289 4.977-2.954 4.977-5.876 0-3.18-1.927-5.942-5.652-5.942h-14.16V20.64h3.34v-8.799h7.385l5.073 8.8h3.725l-5.105-8.831zm-.674-3.05H27.326V3.044h10.822c1.605 0 2.312 1.412 2.312 2.918 0 1.573-.643 2.794-2.312 2.794" data-name="Path 5378"/><path d="M150.483 10.34c0-3.757 2.376-7.29 6.548-7.29h6.433l1.76-3.05h-8.19c-6.232 0-10.083 4.752-10.083 10.308 0 5.49 3.853 10.34 10.083 10.34h8.19v-3.052h-8.19c-4.175 0-6.548-3.532-6.548-7.257" data-name="Path 5379"/><path d="M138.553 0v15.35L125.613 0h-3.147v20.648h3.338V5.266l12.937 15.383h3.155V0h-3.339z" data-name="Path 5380"/><path d="m115.363 3.05 1.749-3.051H98.1v20.648h19.01v-3.05h-15.67v-5.75h11.657V8.767H101.44V3.05z" data-name="Path 5381"/><path d="m66.194 3.05 1.752-3.051H48.935v20.648h19.011v-3.05H52.275v-5.75h11.657V8.767H52.275V3.05z" data-name="Path 5382"/></g><g fill="#404041"><path d="M53.943 33.49a2.05 2.05 0 0 1 .132 2.37 2.14 2.14 0 0 1-.913.77 3.2 3.2 0 0 1-1.39.28h-3.19v-7.977h3.042a3.3 3.3 0 0 1 1.4.275 2.06 2.06 0 0 1 .885.74 1.9 1.9 0 0 1 .298 1.04 1.78 1.78 0 0 1-.367 1.147 2.14 2.14 0 0 1-.988.678 1.77 1.77 0 0 1 1.09.678m-4.052-1.206h1.619a1.56 1.56 0 0 0 1.005-.293 1.03 1.03 0 0 0 .362-.843 1.04 1.04 0 0 0-.362-.844A1.52 1.52 0 0 0 51.51 30h-1.618zm2.813 3.235a1.11 1.11 0 0 0 .379-.896 1.16 1.16 0 0 0-.402-.93 1.58 1.58 0 0 0-1.067-.344H49.89v2.49h1.767a1.56 1.56 0 0 0 1.045-.32" data-name="Path 5383"/><path d="M61.565 34.24h-4.833a1.76 1.76 0 0 0 .562 1.216 1.78 1.78 0 0 0 1.24.46 1.53 1.53 0 0 0 1.493-.885h1.412a2.85 2.85 0 0 1-1.04 1.43 3.05 3.05 0 0 1-1.865.557 3.23 3.23 0 0 1-1.624-.408 2.9 2.9 0 0 1-1.126-1.148 3.5 3.5 0 0 1-.407-1.717 3.6 3.6 0 0 1 .395-1.716 2.8 2.8 0 0 1 1.114-1.143 3.3 3.3 0 0 1 1.647-.401 3.2 3.2 0 0 1 1.596.39 2.76 2.76 0 0 1 1.09 1.097 3.3 3.3 0 0 1 .394 1.624 4 4 0 0 1-.046.643m-1.32-1.056a1.49 1.49 0 0 0-.517-1.16 1.85 1.85 0 0 0-1.251-.436 1.68 1.68 0 0 0-1.16.43 1.8 1.8 0 0 0-.573 1.166z" data-name="Path 5384"/><path d="m68.591 30.59-3.88 9.299h-1.355l1.286-3.076-2.491-6.223h1.458l1.778 4.822 1.849-4.822z" data-name="Path 5385"/><path d="M70.703 36.61a2.93 2.93 0 0 1-1.137-1.148 3.46 3.46 0 0 1-.413-1.716 3.4 3.4 0 0 1 .425-1.711 2.93 2.93 0 0 1 1.159-1.148 3.55 3.55 0 0 1 3.283 0 2.94 2.94 0 0 1 1.16 1.148 3.4 3.4 0 0 1 .424 1.71 3.3 3.3 0 0 1-.436 1.71 3 3 0 0 1-1.188 1.155 3.4 3.4 0 0 1-1.657.407 3.24 3.24 0 0 1-1.618-.407m2.566-.97a1.84 1.84 0 0 0 .717-.724 2.3 2.3 0 0 0 .276-1.17A2.4 2.4 0 0 0 74 32.58a1.8 1.8 0 0 0-.7-.717 1.9 1.9 0 0 0-.942-.241 1.9 1.9 0 0 0-.936.241 1.7 1.7 0 0 0-.683.717 2.5 2.5 0 0 0-.252 1.166 2.22 2.22 0 0 0 .522 1.577 1.73 1.73 0 0 0 1.314.557 1.95 1.95 0 0 0 .947-.241" data-name="Path 5386"/><path d="M81.436 30.8a2.2 2.2 0 0 1 .925.918 3 3 0 0 1 .332 1.47v3.731h-1.297v-3.535a1.84 1.84 0 0 0-.425-1.304 1.51 1.51 0 0 0-1.16-.453 1.53 1.53 0 0 0-1.164.453 1.82 1.82 0 0 0-.431 1.304v3.535h-1.309v-6.326h1.309v.724a2.16 2.16 0 0 1 .82-.61 2.6 2.6 0 0 1 1.062-.217 2.84 2.84 0 0 1 1.341.31" data-name="Path 5387"/><path d="M84.314 32.04a2.89 2.89 0 0 1 2.603-1.55 3 3 0 0 1 1.223.27 2.5 2.5 0 0 1 .958.717v-3.053h1.32v8.495h-1.32v-.952a2.45 2.45 0 0 1-.89.757 2.76 2.76 0 0 1-1.303.298 2.83 2.83 0 0 1-1.51-.418 2.96 2.96 0 0 1-1.079-1.171 3.6 3.6 0 0 1-.394-1.705 3.5 3.5 0 0 1 .394-1.687m4.513.573a1.9 1.9 0 0 0-.706-.734 1.85 1.85 0 0 0-.942-.253 1.86 1.86 0 0 0-1.647.97 2.26 2.26 0 0 0-.27 1.131 2.36 2.36 0 0 0 .27 1.148 1.9 1.9 0 0 0 .71.752 1.8 1.8 0 0 0 .935.258 1.85 1.85 0 0 0 .942-.253 1.9 1.9 0 0 0 .706-.74 2.3 2.3 0 0 0 .27-1.143 2.3 2.3 0 0 0-.27-1.137" data-name="Path 5388"/><path d="M100.413 32.46a2.15 2.15 0 0 1-.918.878 3.4 3.4 0 0 1-1.619.338h-1.444v3.235h-1.309v-7.976h2.755a3.5 3.5 0 0 1 1.556.316 2.2 2.2 0 0 1 .953.855 2.35 2.35 0 0 1 .316 1.205 2.4 2.4 0 0 1-.288 1.148m-1.42-.19a1.24 1.24 0 0 0 .368-.958q0-1.308-1.481-1.308h-1.45v2.603h1.446a1.6 1.6 0 0 0 1.114-.338" data-name="Path 5389"/><path d="M103.083 36.61a2.93 2.93 0 0 1-1.137-1.148 3.47 3.47 0 0 1-.413-1.716 3.4 3.4 0 0 1 .424-1.711 2.94 2.94 0 0 1 1.16-1.148 3.55 3.55 0 0 1 3.283 0 2.94 2.94 0 0 1 1.16 1.148 3.4 3.4 0 0 1 .424 1.71 3.3 3.3 0 0 1-.436 1.71 3 3 0 0 1-1.188 1.155 3.4 3.4 0 0 1-1.657.407 3.24 3.24 0 0 1-1.618-.407m2.566-.97a1.84 1.84 0 0 0 .718-.724 2.3 2.3 0 0 0 .275-1.17 2.4 2.4 0 0 0-.264-1.166 1.8 1.8 0 0 0-.7-.717 1.9 1.9 0 0 0-.943-.241 1.9 1.9 0 0 0-.935.241 1.7 1.7 0 0 0-.684.717 2.46 2.46 0 0 0-.252 1.166 2.22 2.22 0 0 0 .522 1.577 1.73 1.73 0 0 0 1.314.557 1.95 1.95 0 0 0 .947-.241" data-name="Path 5390"/><path d="M110.233 36.75a2.35 2.35 0 0 1-.936-.734 1.83 1.83 0 0 1-.367-1.04h1.354a.92.92 0 0 0 .385.672 1.4 1.4 0 0 0 .88.27 1.5 1.5 0 0 0 .854-.212.64.64 0 0 0 .304-.546.56.56 0 0 0-.339-.528 6.4 6.4 0 0 0-1.073-.379 10 10 0 0 1-1.16-.378 2 2 0 0 1-.774-.563 1.47 1.47 0 0 1-.328-.999 1.56 1.56 0 0 1 .298-.924 2 2 0 0 1 .856-.66 3.2 3.2 0 0 1 1.28-.242 2.64 2.64 0 0 1 1.735.546 1.96 1.96 0 0 1 .71 1.486h-1.308a.93.93 0 0 0-.345-.676 1.3 1.3 0 0 0-.838-.253 1.36 1.36 0 0 0-.789.195.6.6 0 0 0-.275.517.56.56 0 0 0 .184.424 1.3 1.3 0 0 0 .448.27q.263.098.78.247a8.5 8.5 0 0 1 1.131.373 2.1 2.1 0 0 1 .764.557 1.47 1.47 0 0 1 .333.976 1.64 1.64 0 0 1-.299.964 2 2 0 0 1-.844.666 3.15 3.15 0 0 1-1.28.242 3.2 3.2 0 0 1-1.341-.27" data-name="Path 5391"/><path d="M116.363 36.75a2.35 2.35 0 0 1-.936-.734 1.83 1.83 0 0 1-.367-1.04h1.354a.92.92 0 0 0 .385.672 1.4 1.4 0 0 0 .878.27 1.5 1.5 0 0 0 .855-.212.64.64 0 0 0 .305-.546.56.56 0 0 0-.339-.528 6.4 6.4 0 0 0-1.073-.379 10 10 0 0 1-1.16-.378 2 2 0 0 1-.774-.563 1.47 1.47 0 0 1-.328-.999 1.56 1.56 0 0 1 .298-.924 2 2 0 0 1 .856-.66 3.2 3.2 0 0 1 1.28-.242 2.64 2.64 0 0 1 1.735.546 1.96 1.96 0 0 1 .71 1.486h-1.308a.93.93 0 0 0-.345-.676 1.3 1.3 0 0 0-.839-.253 1.36 1.36 0 0 0-.789.195.6.6 0 0 0-.275.517.56.56 0 0 0 .184.424 1.3 1.3 0 0 0 .448.27q.264.098.781.247a8.5 8.5 0 0 1 1.13.373 2.1 2.1 0 0 1 .764.557 1.48 1.48 0 0 1 .333.976 1.64 1.64 0 0 1-.298.964 2 2 0 0 1-.844.666 3.15 3.15 0 0 1-1.28.242 3.2 3.2 0 0 1-1.34-.27" data-name="Path 5392"/><path d="M121.603 29.51a.839.839 0 0 1 .597-1.435.8.8 0 0 1 .585.241.86.86 0 0 1 0 1.195.8.8 0 0 1-.585.241.81.81 0 0 1-.597-.241m1.24 7.405h-1.309v-6.33h1.31z" data-name="Path 5393"/><path d="M126.793 30.78a2.8 2.8 0 0 1 1.291-.293 2.9 2.9 0 0 1 1.516.402 2.83 2.83 0 0 1 1.067 1.142 3.6 3.6 0 0 1 .39 1.693 3.65 3.65 0 0 1-.39 1.705 2.9 2.9 0 0 1-1.074 1.17 3 3 0 0 1-2.812.133 2.5 2.5 0 0 1-.901-.735v.918h-1.31v-8.494h1.31v3.11a2.5 2.5 0 0 1 .912-.751m2.663 1.814a1.85 1.85 0 0 0-.71-.723 1.9 1.9 0 0 0-.946-.247 1.86 1.86 0 0 0-.936.253 1.9 1.9 0 0 0-.71.734 2.3 2.3 0 0 0-.27 1.137 2.3 2.3 0 0 0 .27 1.142 1.87 1.87 0 0 0 1.648.993 1.85 1.85 0 0 0 .947-.258 1.9 1.9 0 0 0 .71-.752 2.36 2.36 0 0 0 .27-1.147 2.26 2.26 0 0 0-.27-1.13" data-name="Path 5394"/><path d="M132.353 28.42h1.309v8.495h-1.309z" data-name="Rectangle 286"/><path d="M141.133 34.24H136.3a1.76 1.76 0 0 0 .562 1.216 1.78 1.78 0 0 0 1.24.46 1.53 1.53 0 0 0 1.493-.885h1.412a2.85 2.85 0 0 1-1.04 1.43 3.05 3.05 0 0 1-1.865.557 3.23 3.23 0 0 1-1.624-.408 2.9 2.9 0 0 1-1.125-1.148 3.5 3.5 0 0 1-.408-1.717 3.6 3.6 0 0 1 .395-1.716 2.8 2.8 0 0 1 1.113-1.143 3.3 3.3 0 0 1 1.648-.401 3.2 3.2 0 0 1 1.596.39 2.76 2.76 0 0 1 1.09 1.097 3.3 3.3 0 0 1 .395 1.624 4 4 0 0 1-.047.643m-1.32-1.056a1.49 1.49 0 0 0-.517-1.16 1.85 1.85 0 0 0-1.25-.436 1.68 1.68 0 0 0-1.16.43 1.8 1.8 0 0 0-.574 1.166z" data-name="Path 5395"/><path d="M147.483 33.35h41.846v.844h-41.846z" data-name="Rectangle 287"/><path d="M0 33.35h41.846v.844H0z" data-name="Rectangle 288"/></g></g></svg>