<svg xmlns="http://www.w3.org/2000/svg" width="390" height="270" viewBox="0 0 390 270"><rect width="390" height="270" fill="#fff" stroke="#d9d5c9" rx="6" ry="6"/><path fill="#fc6b7e" d="m26.096 346.375.604.483c-1.532-.82-1.068-.646-.604-.483m53.06-33.984c.139-.378.08-.377-.04-.249-.046.289-.449 1.087-.933 1.982.212-.208.506-.636.974-1.733m-1.952 3.474a1 1 0 0 0-.026.09c-1 1.64-.64 1.062.026-.09m-53.1-72.619c.241-.653.751-1.545 1.32-2.41.205.125.424.258.646.395l-.613-.292a33 33 0 0 1-1.353 2.307m60.32 26.035c.795.312 2.424.861 2.885 1.332-1.057-.06-1.64-.575-2.886-1.332m28.404 25.144 1.99-2.22c-1.728 3.175-3.394 5.167-1.414 3.164-.187-.304.441-1.379 1.362-2.727.23-.337.476-.693.734-1.056.378-.523.765-1.064 1.156-1.605.968-1.342 1.945-2.698 2.841-3.938-1.56-.753-2.97-1.41-4.018-1.842a12 12 0 0 0-1.28-.466 2.3 2.3 0 0 0-.402-.082.26.26 0 0 0-.164.059l-1.64-1.06c.491.256.598.241 1.088.497-3.16-2.128-2.844-.587-7.133-2.892-1.483-.828-2.473-1.49-1.385-1.082l-3.494-1.46c-.975-.508-.654-.548.316-.042l-5.193-2.5.051-.008c-.807-.222-2.586-.831-3.448-1.143-1.244-.785.706.23.428-.051l-2.966-1.202c-1.044-.819 1.437.13 3.394 1.149-2.208-2.25-2.486-.95-7.974-4.36l2.756 1.229c-1.475-1.39-3.674-2.25-6.56-4.098.637.531 5.692 3.867 2.478 2.549-.839-.505-1.973-1.113-3.738-1.762.147-.335-1.524-1.07-3.576-2.07l.357-.363c-2.271-.977-2.208-.67-3.606-1.123-2.439-1.271-2.781-1.862-3.218-2.434-3.906-2.035 2.452 1.897-2.254-.35-3.195-1.801-5.585-2.773-9.635-4.47-2.22-1.294.533-.065-.23-.6l-2.205-.669c-.494-.257-.28-.283-.171-.295-1.781-.722-.357.363-3.112-.864-.964.115-5.181-3.459-8.787-4.58-.76-.534.53-.067.362-.362-4.752-1.926-4.05-1.697-8.047-3.094l-3.058-1.882c2.19 1.5-1.007.387-3.798-.612.757.575 1.399 1.068 1.845 1.372l-2.157-.932-1.08-.466-.482-.204-.43-.178c-.39-.283-.083-.317.65-.177-.288-.099-.55-.186-.747-.243-.674-.436-.9-.677-.773-.755.121-.08.603.006 1.263.184l.417.29c.136.096.274.192.383.274l.682.51c1.167.253 2.284.446 2.195.084-.298-.086-.844-.304-1.435-.57.308.065.512.088.409-.019-.119-.116-.606-.239-1.347-.47l-.18-.242c-.031-.04-.052-.075-.094-.122l-.141-.146a22 22 0 0 0-.616-.61 9 9 0 0 0-.384.049L25.165 240l-1.607 2.719-.415.703-.105.177-.07.117-.141.229-.566.919c-1.633 4.148-2.77 7.91-5.92 14.193.483-1.72-.39-.637-.752-.94 1.347-1.45 2.408-4.884 4.231-8.037-.952 1.644-.948 1.172-.786.71l-2.699 5.923c-.266-.31-.908 1.077-1.856 2.492 1.275-.768-1.865 4.494-2.921 6.926-.3.024-.226-.656 1.364-3.46-2.194 2.856-1.412 4.46-3.498 7.3.37-.694.606-1.048.64-1.384-.679 1.723-2.977 5.59-2.667 4.555l.37-.692C5.198 277 .184 286.43.376 287.421c-.099.006-.353-.97-.316-1.308l-2.55 9.221c-.092-.984-2.745 1.165-.953-2.793-.662 1.056-1.476 2.366-2.554 4.765.473-.709 1.707-1.481 1.197-.439-1.028 1.254-1.361 1.702-1.733 2.234-.183.268-.38.554-.669.98-.15.208-.32.453-.526.745-.027.043-.043.06-.085.123q-.056.088-.116.175-.117.181-.247.378l-.573.873c.473-.765.674-.702.671-.266a3.6 3.6 0 0 1-.14.87c-.092.35-.228.74-.43 1.17q.293.165.58.346c-.23-.069-.446.049-.705.133-.262.082-.579.124-1.104-.15l.003-.005-.003.005q1.863.919 3.421 1.642l.193.092.097.044.075.031.291.121.582.237 1.164.48c-1.131-.527-.57.497.243 1.29-.348-.414 3.631 2.297 4.797 2.926l-1.68-1.284c4.683 3.089 5.33 1.928 10.019 4.921-.664-.209-1.984.035.356 1.63 1.33.318 5.978 1.271 10.326 3.6l.668.713 3.35 1.767c-2.343-.693-8.665-3.027-12.003-4.488 1.671 1.284.337.56 3.011 2.212.818.787-1.639-.61-2.428-1.09l6.116 4.016c-.004-.604 5.014 2.541 5.001 2.031l-7.012-3.773c-.002-.603 4.661 1.215 9.005 4.047 1.009.871-1.318.242-1.316.445.664.208 4.346 2.33 4.684 2.69l-2.01-.939c2.344 1.697 4.35 1.93 7.029 4.187.998.663 2.68 2.454 3.015 2.31-1.345-1.533-.712-3.26.62-2.936.337.255 5.032 3.809 6.037 4.78 1.428 1.434-3.084-.651-1.87.571.136-.079 1.148.354 1.562.55 1.002.767-.67.088 1.679 1.485.66-.194 4.682 2.99 1.326.317 2.341 1.296 2.349 1.599 5.019 3.248-.67-.816 2.99.533 5.336 1.831-.205.029.214.492.42.713 1.05.671 1.974 1.274 2.851 1.856.922.611 1.773 1.178 2.603 1.73l1.745-3.199c.56-1.035 1.142-2.132 1.782-3.381.327-.365 1.592-2.507 1.306-1.466.257-.7.412-1.384 1.124-2.802 1.793-2.534-1.55 3.181-.01 1.339-.174-.314 1.504-3.842 2.367-5.939-.726.41-2.456 4.61-3.324 6.71-.569-.28.633-4.09 2.823-9.012 1.807-3.877 1.21-1.463 1.467-2.165 3.756-7.097 2.128-6.593 5.573-12.32 1.566-2.17.77.26 1.297-.13-1.448 3.17-2.663 4.642-3.724 6.75l1.495-2.498c-.385 1.047-1.354 3.162-2.035 4.237 1.334-1.809 6.241-12.044 9.361-17.407.38-1.04 1.121-2.796.566-2.07l-.842 1.77c-1.11 1.457 1.279-3.488.014-1.348.993-2.446 2.013-5.233 3.864-8.444l.729-.409c-.158.009-1.348 2.029-1.697 3.018.52-1.466 3.142-4.767 3.373-6.548l-1.467 2.164c.411-1.008.828-2.132 1.293-3.302l.347-.867q.068-.212.137-.428c.091-.272.182-.52.3-.768a5 5 0 0 1-.652-.337c.067.214.086.268.15.307.057.036.144.051.213.128a2.5 2.5 0 0 1-.502.437c.258-.14.329-.103.262.12a4 4 0 0 1-.17.403c-.202.394-.42.825-.635 1.247-.89 1.73-1.704 3.325-.653 2.038-1.64 1.848-2.12 3.566-4.014 6.11.18-.017.763-.855-.558 1.563a5 5 0 0 1-.155.6c-.042.072-.06.097-.095.16.031-.046.055-.08.085-.128-.033.118-.035.13.032-.046.358-.554.67-.991.844-1.146-.311 1.377-2.316 5.27-2.83 6.67-.808 1.422.157-.687-.394.033l-.768 2.092c-.4.04-2.475 3.61-.899.093l-1.592 3.078c-1.097 1.73-2.443 4.193-3.104 5.798-.81 1.421-1.548 3.844-1.135 2.456l-2.288 4.932-.098.008c-2.48 4.752-4.53 10.078-7.864 15.257-.35.771-.703 1.56-1.13 2.454q-.071.142-.142.295l-.062.139q-.068.139-.143.29c-.1.2-.215.41-.343.62l-.166-.123a4 4 0 0 1-.205-.477 2.5 2.5 0 0 1-.484-.3c-.636-.428-1.314-.884-1.962-1.316-1.298-.872-2.47-1.634-2.97-1.768-1.683-1.99-9.367-6.078-12.72-8.346l-.332.245c-2.346-1.497-4.667-2.826-7.678-4.531v.402c-2.672-1.346-6.36-4.276-10.372-6.75.34.06 1.334.723 2.009 1.239-4.363-3.642-10.362-5.839-14.39-9.029a15 15 0 0 1-2.613-1.642c.1.06.194.115.276.153-.108-.074-.271-.177-.439-.282-.445-.348-.9-.713-1.402-1.093.406.355.804.683 1.162.946a79 79 0 0 0-3.4-1.975l-.332-.638c-.103-.063-.185-.11-.292-.172-1.14-.874-1.067-.464-.565.172a25 25 0 0 0-1.751-.838c-.672-1.118-3.348-1.866-4.36-3.241-.4-.105-1.5-.723-2.732-1.414-.31-.17-.627-.347-.942-.524-.19-.106-.235-.124-.333-.17q-.137-.066-.268-.127c-.362-.171-.74-.337-1.112-.472.057-.268.058-.48-.032-.576.114-.036.295-.29.046.18l.447-.718.208-.344.126-.219.146-.262c.383-.7.73-1.396 1-2.085l.736-.392 1.162-3.44c1.283-1.778 1.856-2.493 1.14-.426 2.003-4.843 1.833-3.817 3.47-7.972l.161.333c.744-1.398 1.6-3.815 2.273-4.538 2.185-2.847 8.426-15.382 13.224-23.13-1.613 1.133 2.36-3.532 1.936-4.17.435-.369 1.142-1.428.597-.047 2.033-4.18 3.616-5.976 4.639-9.067.435-.369-.206 1.018.127.66.138-.348.544-1.382.883-1.748.333-.357-.17.68-.44 1.37a39 39 0 0 0 .794-1.569l.037-.076.005-.027.016-.051.028-.103q.025-.104.043-.211a6.4 6.4 0 0 0 .09-.923c.135-.184.195-.458.247-.728.384.272.68.477.946.643.07.044.121.076.2.121l.293.159q.285.15.56.278c.738.34 1.439.568 2.297.775.656.549 1.802 1.352-.847.109 1.46.76 8.866 4.749 9.233 4.39.406.34 2.043 1.06 2.456 1.203 3.291 1.676 3.562 1.86 6.826 3.437l-.863-.52c1.542.117 2.755 1.23 5.403 2.472l-.103.017c5.81 3.37 2.68 1.11 8.382 4.494l-.159-.486c.902-.423 5.038 3.03 8.605 4.476l-1.146-.804c1.995.696 4.765 3.567 6.606 4.595.38.266-.697-.227-1.294-.467 4.726 2.873.853-.108 4.577 1.627.564.568-1.165.148 1.287 1.426 1.14.8 7.546 2.834 10.7 4.959-.654-.548-1.305-1.094.468-.375 2.648 1.242 6.74 4.2 9.381 4.82.309.215.41.323.402.374 2.072.854 6.619 3.004 7.975 3.303.317.504 1.25 1.103 2.462 1.734.303.157.625.317.958.478l.17.08.141.062.296.13c.407.173.855.354 1.334.547-.222.376-.461.776-.709 1.165a20 20 0 0 1-.918 1.34c-.698.943-1.224 1.498-1.452 1.314l-4.045 5.623.012-.216c-2.679 3.525-3.38 4.951-4.078 6.37-.669.779-.314.113-.311.01-4.012 5.08-4.354 5.626-7.096 10.34l-.635.234c-.692 1.315-6 7.197-9.398 12.572.003-.075.022-.224.278-.662-3.868 6.017-10.935 13.171-11.386 16.085l-2.516 3.998c3.687-4.854-.061 1.082 1.603-.807-1.353 1.978-3.993 4.754-2.308 2.337l.327-.33c.07-1.295-4.68 5.965-4.968 5.535-.879 1.197-1.773 2.353-2.723 3.428-.952 1.067-1.956 2.068-3.052 2.883-1.092.82-2.265 1.47-3.493 1.872-1.235.384-2.52.529-3.81.435-2.588-.181-5.122-1.224-7.523-2.506a63 63 0 0 1-3.568-2.09c-1.193-.744-2.38-1.48-3.558-2.217l.803 1.146-3.295-2.066c-.804-.644-.942-1.086 1.41.387-1.078-1.032-4.102-2.214-4.233-2.153-4.509-3.037 2.147.56.734-.324l-1.948-1.15.4.324c-1.68-.768-1.944-.65-4.773-2.42-1.739-1.2-.74-.856-1.437-1.311.023-.03-.204-.193-1.078-.681l-4.149-2.608 1.44 1.4c-1.963-.956-3.913-2.435-2.246-.827-2.428-2.39-15.426-9.807-17.037-11.079-2.758-1.32-5.313-2.899-8.461-4.88.739.562.954 1.273-1.749-.46 1.531-.25-4.771-3.452-6.598-5.434 1.718 1.628-7.831-4.676-5.095-2.184-2.231-1.471.048-.412-1.53-1.674-1.372-.747-2.74-1.619-3.945-2.694-1.213-1.065-2.225-2.365-2.742-3.827a6.8 6.8 0 0 1-.399-2.284 9 9 0 0 1 .365-2.406c.46-1.627 1.327-3.251 2.313-4.87-.046-.175-.91.809-.191-.69.927-1.02 1.914-2.008 2.901-3.027.854-1.317.212-1.62 2.239-3.69-.324.264-.808.661-.237-.223 9.505-12.314 17.913-26.232 28.017-38.417-1.443 1.598-.641.42.293-.919-.662.832-.252-.209-.52-.142l4.225-5.105c.288-1.272 4.064-5.805 4.073-6.644l-1.137 1.76c1.15-2.598-3.269 2.455-3.621 1.706-1.28 2.913-5.517 6.16-7.725 10.862-.77.838.37-.919-.117-.524-.497 1.238-1.35 2.552-3.136 4.84l.128-.311c-4.645 6.695-6.912 9.37-12.364 16.725l.68-.348c-1.174 1.579-1.503 1.852-2.107 2.553-.864 2.154 3.214-4.494 2.512-2.47-2.097 1.71-8.02 11.318-9.71 12.28-1.75 2.468.85-.485-.9 1.981l-.646.526-.207.79c-1.185 1.592-1.991 2.25-2.188 2.2.297-.38.746-1.147 1.032-1.577-.85.976-1.876 2.458-2.772 3.808-.91 1.36-1.635 2.642-1.902 3.03.566-.86 1.158-1.68 1.761-2.47-1.152 1.771-2.395 3.717-3.282 6.031-.435 1.156-.769 2.416-.867 3.748a9.9 9.9 0 0 0 .51 3.998c.44 1.285 1.139 2.435 1.94 3.414.806.982 1.712 1.805 2.632 2.523 1.845 1.433 3.758 2.474 5.487 3.41l-.423-.46c5.314 2.902 4.029 2.697 9.76 6.052l-.226-.092c1.219.552 2.776 1.41 4.314 2.377-1.532-.71 2.486 1.98.497 1.016 5.762 3.149 2.901 1.474 6.919 3.207l.704.762c1.391.559 1.565.508 4.43 2.182-2.444-1.22 1.578 1.474-1.185.15 5.605 4.17 9.127 4.885 11.376 7.324 3.13 1.01-4.904-3.523-3.292-2.729-1.144-1.002 2.551.887 4.372 2.097 1.885 1.179 2.697 2.827 7.469 5.746-.472-.297-.536-.267-1.007-.56 1.679 1.265 3.632 1.92 5.651 3.538 1.472.354 2.826 1.771 3.491 1.477l-4.44-2.571c2.56 1.39 5.25 2.223 9.152 5.021-.384-.093-1.68-.704-2.56-1.142 1.1.886 2.359 1.315 3.502 2.229-.67.297-5.38-3.153-8.274-4.395 1.15 1.003 5.248 2.715 3.575 2.449 1.174.238 2.334.983 3.644 1.847.657.433 1.348.896 2.099 1.34.755.448 1.58.88 2.494 1.227l-.402.186c.564.256 1.744.75 2.765 1.27a59 59 0 0 1-2.045-.568c1.478.605 2.809 1.384 4.22 2.085 1.405.695 2.917 1.317 4.598 1.48a15 15 0 0 1-2.009-.464 8 8 0 0 1-1.061-.378c-.462-.203-.503-.282-.428-.332s.267-.07.277-.15c.011-.077-.162-.21-.775-.526 1.912.62 3.202.887 4.156 1.11.481.1.872.212 1.237.28.365.077.687.18 1.03.233.682.128 1.426.263 2.621.133a9.2 9.2 0 0 0 2.142-.484q.313-.113.651-.24l.684-.317c.242-.107.477-.243.722-.388.248-.142.508-.288.755-.465-.261.201-.696.424-1.141.654-.229.109-.471.203-.701.295q-.174.07-.337.132c-.11.036-.22.065-.321.095-.406.113-.71.182-.794.156-.083-.021.059-.117.529-.344.45-.14.904-.347 1.38-.545.232-.105.458-.222.689-.335.23-.109.449-.231.661-.353.868-.47 1.593-.97 2.08-1.256.593-.52.996-.923 1.267-1.217.275-.294.428-.476.493-.578.13-.206-.055-.07-.33.13-.552.404-1.44 1.07-.587.095.89-.568 1.346-1.163 1.786-1.84.425-.688.835-1.471 1.543-2.522l.3.208c1.043-1.285 1.554-2.034 1.839-2.514.284-.481.324-.691.354-.887.059-.39.073-.71 1.907-2.975l-1.049 2.284 1.69-2.525-.04.75c1.707-2.845 2.378-3.627 4.384-6.169-.65.455-.281-.731 1.404-3.048 1.327-1.448-.37 1.087 1.988-2.22-.357.875-.723 1.854-2.036 3.08-.012.217-.351.864-.366 1.085 1.443-1.55 3.17-4.231 4.036-5.419-.347.448-.762.982-1.007 1.232l3.073-5.046c.658-.665.312-.008-.033.642.673-.985 1.027-1.748 2.037-3.182-.03.542.279.634-1.075 2.718l3.051-4.717c.325-.226 1.984-2.112 1.642-1.46 1.977-2.406 4.047-6.492 6.667-9.68.08-.207.292-.585.774-1.317 2.343-3.086 4.663-5.64 7.052-9.582l1.966-1.788c2.03-2.97-2.62 2.45.758-2.497 2.371-3.52 1.298-1.01 2.296-2.121 1.032-1.858 2.76-5.137 5.41-8.022-.681 1.097-1.342 1.866-2.02 2.861"/><g fill="#82c6dd"><path d="M351.38 43.491c2.548-1.985 2.548-1.985 4.793-10.198-2.433 2.958-5.43 5.65-4.792 10.198M308.758-31.65c-.718-.336-2.181.267-2.527 1.717-.272 1.146-1.663 1.809-1.525 3.19-.902 1.907-2.09 3.692-2.468 5.82a.424.424 0 0 0-.188.5c-2.293 4.269-4.822 8.422-6.347 13.064-.09.964-1.322 1.7-.564 2.833-.047.486-1.44.339-.586 1.247-3.2 4.583-4.542 9.979-6.586 15.068-1.503 1.918-2.603 3.987-2.452 6.527-1.52 1.594-2.363 3.438-2.096 5.69-.452.31-1.172.258-1.32.977-.452 2.063-2.256 3.629-2.168 5.891-.493 1.324-2.34 2.31-1.022 4.086-.261.746-1.682 1.671-.634 2.146 1.285.583 1.029-1.15 1.429-1.889 1.338-1.138.817-2.687.905-4.101.372-1.099 2.775-.839 1.867-2.794 2.173-2.11 2.8-4.936 3.575-7.695l.701-1.888c1.163-1.499 1.583-3.304 2.093-5.073 2.613-.713 1.814-3.285 2.587-4.958 2.01-4.358 4.851-8.347 5.961-13.11 1.951-.76.325-1.923.328-2.902.86-.228 1.401-.718 1.383-1.673 1.203-.994 2.042-2.136 1.56-3.818.156-1.43 2.3-2.087 1.528-3.88 1.09-.602 1.366-1.477.874-2.609l.989-1.752c1.721-.428 1.075-2.086 1.623-3.123l.646-1.205c1.382-.904 1.479-2.514 2.048-3.846.334-.778 1.822-1.766.386-2.44M384.683 61.293c-1.785 2.378-3.815 4.665-3.242 7.916 1.71-2.406 3.263-4.87 3.242-7.916M389.298 51.729c.21-.45.643-1.33-.463-1.586-.888-.206-1.266.317-1.454 1.024-.55 2.064-1.061 4.139-1.587 6.21-.52.925-1.098 1.836-1.024 3.063 1.947-.353 1.108-1.931 1.692-2.763 1.742-1.598 1.906-3.96 2.836-5.948M300.976-39.06c-.477-.816-.297-2.294-1.487-2.34-1.451-.057-.853 1.437-1.149 2.258-.344.952-.696 1.901-1.046 2.852l-1.737 3.832.105 1.338c-2.084 2.545-2.348 5.917-3.947 8.682-1.957.658.166 2.641-1.14 3.51-1.86 2.72-3.509 5.51-3.003 9.017h.006l.062.025c-2.65.83-1.852 3.851-3.411 5.376-.384 1.74-2.873 2.783-1.717 5.012 1.52-.753 1.75-3.004 3.822-3.132.429-.026.87-.576.44-.98-.32-.301-.954-.268-1.448-.383.49-1.622 3.118-1.907 2.602-4.158 1-.233 1.043-1.086 1.21-1.86-.172-1.408 2.755-2.049.955-3.86.986-.542 1.976-1.083 1.51-2.502l.502-1.261c.933-1.108.49-3.197 2.515-3.528l-.48-1.136c.58-.333 1.488-.423 1.095-1.478.554-2.005 2.133-3.74 1.58-6.034q.147-.322.291-.646.611-1.605 1.221-3.212c.933-.846.937-2.088 1.346-3.157 1.093-.354 2.273-.573 1.303-2.234M319.032 10.603c.562-.583.714-1.275.55-2.052.35-.865 1.49-1.597.591-2.678-.345-.415-.826-.041-1.208.203-1.23.784-.301 1.55.012 2.323-.69.69-3.806-.442-1.738 2.317-1.875 1.247-.22 3.8-1.897 5.121-.751 1.202-1.519 2.401-.26 3.991.03-1.65 1.238-2.684 1.677-4.092.504-1.825 2.332-3.06 2.273-5.133M378.093 77.988c-.162-.478-.703-.362-1.162-.144-2.233 1.054-.36 2.85-.786 4.226-.033.11-.056.222-.085.333-1.397.117-2.123 2.573-1.348 4.657.97-1.365 2.113-2.62 1.833-4.469 1.095-1.343 2.187-2.715 1.548-4.603M380.138 71.542c-1.114.287-1.724 1.07-2.082 2.105l1.423-.428q-.368 1.764-.738 3.526c1.262-1.44 2.028-3.033 2.495-4.71.428-1.532-.374-1.103-1.098-.493M392.186 42.308c-.837 2.303-1.774 4.552-2.816 6.877 1.916-1.793 2.82-4.143 2.816-6.877M313.24 21.754c-2.115-.405-1.652 2.646-2.55 4.092-.603.92-.923 1.856-.27 3.068 1.189-.603 1.357-1.596 1.586-2.55.375-1.652 2.285-4.409 1.235-4.61M371.916 93.493c2.161-1.552 1.8-3.824 2.177-5.772-1.144 1.664-2.358 3.308-2.177 5.772M278.153 37.764c-2.17 1.552-1.801 3.884-3.052 5.287-.431 1.095-1.278 2.175.01 3.474.642-.97 1.26-1.845.836-3.066 1.236-1.511 2.187-3.126 2.206-5.695M389.221 8.426l.003-.002.002-.006-.004.003zM387.22 13.55c2.196-1.112 1.456-3.369 2-5.125-2.585.96-1.757 3.252-2 5.125M362.316 15.958c1.361-1.24 2.267-2.5 2.61-4.11.144-.672-.15-1.13-.79-1.238-.23-.04-.52.273-.783.425 1.143 1.892-1.467 2.886-1.037 4.923M260.948 52.707c1.005-2.033 1.105-2.647.855-3.922-.431 1.389-1.22 2.515-.855 3.922M280.574 5.434c-.101-.153-1.14.088-1.27.735-.139.691-.25 1.544.4 1.985.203.137.904-.46 1.469-.772-.197-.738-.258-1.435-.599-1.948M391.829 3.582c-2.122 1.53-2.294 3.215-2.603 4.836 1.725-.98 1.667-2.77 2.603-4.836M307.13 32.195c.149 1.157.71 1.674 1.471 1.886.095.026.755-.998.625-1.332-.344-.887-1.272-.451-2.097-.554M272.724 19.715c.71 2.017-1.02 2.774-.013 4.368.645-1.284 1.639-2.178.013-4.368M321.365 2.534c2.007-.211 2.052-1.517 2.492-2.496q-.634-.323-1.267-.645zM325.494-6.051c-2.196.11-.212 1.843-.974 2.51l-1.93 2.933 1.268.646c.801-1.726 2.275-3.152 2.33-5.212.5-1.093 1.089-2.156 1.477-3.288.367-1.068-.32-.992-1-.8-.09 1.18-.107 2.384-1.17 3.21M277.092 12.876c-.57-.333-1.058-.165-1.353.454-.156.491-.03.963.476 1.032.554.076 1.151-.136 1.312-.767.05-.197-.213-.59-.435-.72M387.218 13.559l.003-.001v-.008l-.004.003z"/><path d="M385.906 16.114c1.363-.5 1.485-1.46 1.312-2.556-1.206.459-1.478 1.35-1.312 2.556M307.309 35.841c-.937.114-1.561.423-1.55 1.395-.778.867-2.292 1.897-1.032 2.931.872.715 1.373-1.014 1.936-1.764 1.182-.636.022-1.766.646-2.562M302.8 44.195c-2.134.676-1.621 2.832-2.387 4.273-.668 1.597-2.04 3.085-.715 5.581l1.734-4.445q.878-2.246 1.76-4.49c.424-1.192 1.394-2.231 1.166-3.72-1.518.521-1.058 1.908-1.557 2.801M373.296 47.317l-.009.03q.013-.004.026-.009zM371.996 50.17c1.651-.49.979-1.869 1.291-2.823-1.471.447-1.486 1.534-1.29 2.823M358.1 26.03c-.178.36-.37.886.23 1.06.223.066.538-.181.737-.258.178-.56.243-1.028-.279-1.204-.173-.058-.586.193-.689.402M267.367 36.032a.71.71 0 0 0-1.112.264c-.133.363.105.86.18 1.3.355-.168.712-.335 1.129-.53.565-.406.084-.797-.197-1.034M373.299 47.316l.015.02q.015-.019.028-.04zM374.196 44.758c-1.08.754-.342 1.835-.857 2.539 1.23-.483 1.353-1.308.857-2.539M345.863 58.185c-.394-.22-.903-.219-.963.38-.023.223.326.484.568.815.31-.172.72-.27.766-.459.052-.212-.16-.618-.37-.736M267.968 33.723c.57.165.607-.396.841-.84l-.17-.702c-.317.252-.706.457-.92.778-.098.148.092.718.249.764M366.081 8.683l-.07-.893c-.367.152-.851.21-1.062.482-.175.226-.028.702-.022 1.067zM271.59 24.704c-.325.45-.62.68-.645.938-.026.27.132.667.346.826.298.221.695.028.692-.345-.003-.403-.21-.804-.392-1.419"/></g><path d="M169.748 122.696c.958.03 2.055-.005 3.024-.013-.053.793-.053 7.76.128 8.259.654.17.787-.49 1.188-.881 3.752-3.68 10.563-.705 11.012 4.394.28 3.17.268 5.002-1.686 7.615-1.268 1.505-3.508 2.387-5.45 2.295-1.565-.075-2.492-.656-3.832-1.327-.248-.5-.472-1.1-1.06-1.25-.535.37-.056 1.558-.43 2.033-.61.176-2.213.132-2.933.148.093-1.079.098-2.384.072-3.47-.143-5.875.217-11.948-.033-17.803m7.774 19.048c3.865-.511 5.027-3.177 4.534-6.714-.172-1.233-.822-2.24-1.822-2.956a5.36 5.36 0 0 0-2.96-.989c-3.638.698-5.083 3.19-4.444 6.777.456 2.568 2.274 3.577 4.692 3.882"/><path fill-opacity=".988" d="M225.088 122.311q.284-.023.567-.034c2.235-.089 4.918.314 6.595 1.912 1.834 1.746 1.781 3.558 1.874 5.842-1.013-.079-2.279-.078-3.31-.105q-.034-1.335-.085-2.669c-.308-.493-.78-1-1.168-1.446-2.576-.836-3.658-1.13-6.336.063-1.009 1.586-1.584 3.634.54 4.69 2.8 1.395 6.296 1.283 8.893 3.257 2.584 1.965 2.647 5.49.65 7.88-1.638 1.977-3.707 2.416-6.116 2.705h-.158c-2.97-.059-6.19-1.16-7.651-3.9-.833-1.56-.84-2.505-.803-4.187a89 89 0 0 1 3.141-.038c-.086 5.35 4.887 6.467 8.834 4.099.996-1.677 1.444-3.807-.74-4.821-2.657-1.234-5.708-1.162-8.275-2.794-2.732-1.739-3.247-5.056-1.513-7.689 1.286-1.918 2.928-2.342 5.061-2.765"/><path d="M285.634 128.506c.388-.02.78-.041 1.168-.03 9.447.3 4.605 10.844 6.419 12.69.294.301 1.327.22 1.739.226-.036.942-.032 1.564.028 2.504-.95.012-3.395.17-4.086-.664-.339-.408-.25-1.356-1.185-1.354-.313.208-.477.706-.639 1.071-1.685 1.092-2.738 1.627-4.882 1.382-1.264-.144-2.958-.872-3.74-1.908-.834-1.068-.972-2.553-.76-3.81.59-3.458 4.385-3.82 7.224-3.684 1.028.049 1.914-.021 2.958.154-.075-.812.005-1.841-.447-2.532-1.91-2.925-5.63-1.685-6.515 1.376-.523-.211-2.564-.894-2.814-1.222.535-.828.622-1.476 1.363-2.225 1.181-1.195 2.58-1.682 4.17-1.974m1.49 13.163c.637-.292 1.542-.915 2.073-1.383.403-1.2.529-1.66.77-2.87-1.549.04-3.09-.026-4.627.02-5.179.446-2.432 5.632 1.785 4.233"/><path fill-opacity=".988" d="M249.272 128.506c2.99-.19 5.773.868 7.205 3.663.855 1.671.849 3.31.975 5.114-3.382-.015-8.43.154-11.634-.078.055.465.12 1.262.295 1.677 1.489 3.565 6.72 4.06 8.25.196.604.18 1.943.966 2.56 1.307q-.175.312-.364.613c-1.087 1.692-2.623 2.775-4.587 3.204a8.05 8.05 0 0 1-6.032-1.105c-1.355-.877-2.7-2.559-2.943-4.174-.811-5.403.596-9.268 6.275-10.417m-3.488 6.409 4.543.011c1.233.003 2.809-.032 4.014.029-.064-.315-.123-.638-.197-.95-.495-2.093-2.54-3.003-4.503-2.915-2.233.478-3.352 1.643-3.857 3.825M193.711 128.516q.335-.021.671-.033c1.91-.064 3.981.586 5.367 1.928 1.975 1.913 2.21 4.278 2.287 6.833-3.734-.094-8.145.158-11.764-.076q.06.436.142.869c.733 3.726 5.849 5.208 8.113 1.694.754-1.11 2.053.113 2.888.715-.855 1.885-2.79 3.29-4.79 3.743a8.13 8.13 0 0 1-6.1-1.085c-1.334-.86-2.734-2.623-2.976-4.235-.777-5.188.585-9.206 6.162-10.353m-3.48 6.432q2.384-.024 4.768-.025c1.23.003 2.725-.03 3.93.03-.23-.909-.446-1.413-.723-2.265-1.328-1.058-2.085-1.687-3.912-1.592-2.382.425-3.245 1.686-4.063 3.852M140.274 122.306c3.575-.274 6.888.49 8.51 3.98.692 1.49.67 2.414.785 4.025-1.052-.046-2.064-.013-3.114.013-.116-1.65-.606-3.953-2.224-4.604-4.852-1.952-8.212 1.02-7.899 6.044.132 1.63-.205 3.609.078 5.192.825 4.616 5.028 5.576 8.67 3.346 1.077-1.76 1.263-2.21 1.401-4.246.802-.071 2.16-.042 3.003-.05.021 1.968-.026 3.358-1.14 5.046-3.507 5.478-13.966 3.892-14.97-2.8-.3-2-.356-8.121.06-10.02a8.3 8.3 0 0 1 1.234-2.846c1.458-2.139 3.236-2.625 5.606-3.08"/><path d="M163.09 128.91c.985.038 2.09.016 3.086.019-.32 5.97.326 12.872-.144 18.918-.012.155-.174.64-.226.8-1.053 1.462-2.458 1.38-4.087 1.397-2.621.026-5.265-.09-7.881.02.038-.956.073-1.645-.016-2.592 3.063-.102 6.172.062 9.206-.075q.081-2.97.047-5.942c-.62.487-1.072 1.266-1.6 1.655-3.084 2.267-8.484.775-9.16-3.233-.371-2.198-.125-4.826-.185-7.092-.026-1.003-.071-2.897.075-3.84h2.834a258 258 0 0 0-.04 5.72c-.001 1.337-.057 2.698.146 4.02.472 3.078 4.536 3.78 6.567 1.797a4.55 4.55 0 0 0 1.229-2.195c.268-1.125.148-7.787.148-9.377M106.677 118.952c.174.027.177.05.333.137.068.477-.242 1.842-.299 2.428-.336 3.478-.765 7.15-.587 10.641-2.062-1.6-4.471-3.733-6.542-5.429.986 1.69 2.708 3.532 3.955 5.077.363.449 1.154 1.082 1.378 1.427l-.171.155c-1.387.025-2.869.186-4.26.302-1.833.154-3.706.176-5.484.648.148-.962.081-2.843.075-3.877l-.042-6.643c3.62-1.68 7.859-3.086 11.644-4.866M107.814 118.93c.723.092 6.4 2.617 7.453 3.041 1.113.448 3.363 1.326 4.536 1.804.023 1.482.144 9.303-.136 10.315-.896.16-7.05-.562-8.432-.644-.376-.005-.91.034-1.199-.17.05-.26 1.005-1.04 1.33-1.431 1.333-1.603 2.862-3.291 3.926-5.083-.518.372-1.208 1.029-1.76 1.466-1.652 1.311-3.286 2.58-4.769 4.084.11-3.43-.243-9.989-.949-13.382M119.387 135.214l.254.01.136.223c-.03 2.779-.174 4.094-1.506 6.619-2.051 3.889-6.393 7.183-10.56 8.455.604-2.019.833-6.006 1.022-8.206.034-1.574.105-3.337.05-4.893.812.497 1.43 1.148 2.154 1.738 1.392 1.135 3 2.548 4.547 3.435-1.647-1.72-3.825-5.193-5.757-6.384 2.58.071 7.047-.658 9.66-.997M95.135 135.147c3.38.476 6.44.933 9.87 1.107-1.45 1.001-4.268 4.845-5.567 6.397 1.699-1.063 3.295-2.462 4.805-3.772.634-.55 1.099-.993 1.86-1.374-.061 1.392.015 2.75.085 4.138.123 2.108.313 7.12 1.08 8.868-4.694-1.25-9.503-5.418-11.326-9.9-.788-1.94-.864-3.403-.807-5.464M266.35 128.87l2.107-.014c-.026.996-.055 1.79.038 2.779-2.405-.068-2.699-.08-4.832 1.025-1.035 2.801-.63 8.2-.627 11.318-1.048-.054-2.034-.025-3.08-.002-.117-.443-.05-3.105-.064-3.72-.086-3.703.148-7.646.008-11.329l3.13.018c-.017.477-.118 1.245.095 1.622.747-.105.947-1.36 3.226-1.697M211.064 128.872l2.075-.029c.012.73.022 1.466.03 2.194.027.055-.033.416-.102.432-1.748.42-4.78-.097-5.174 2.374-.221 1.39-.155 2.936-.155 4.359l-.027 5.784a28 28 0 0 0-2.853-.011c-.344-.45-.205-3.774-.205-4.555l.03-10.479c.887-.046 2.097-.008 3.007-.007-.022.484-.14 1.254.135 1.624.838-.114.827-1.318 3.24-1.686M276.781 128.866c.675-.018 1.415-.003 2.094-.004-.004.943-.024 1.819.084 2.76-2.156-.031-2.724-.167-4.602.975-.952 1.576-.866 2.637-.874 4.417-.01 2.324 0 4.65-.006 6.975-.951-.066-1.858-.046-2.811-.034q-.042-.03-.082-.063c-.32-.287-.16-13.396-.138-15 .937.051 1.999.03 2.947.032 0 .623-.075 1.205.183 1.749l.217.06c.363-.162.483-.538.668-.908.858-.496 1.36-.763 2.32-.959M239.607 128.893c.106-.009.23.053.34.092.152.293.094 13.756.094 14.97a68 68 0 0 0-2.74.002c-.06 0-.246-.044-.315-.059-.184-.4-.094-13.537-.098-15.02.771.06 1.918.02 2.72.015"/><path fill-opacity=".988" d="M237.615 122.774c1.744-.182 3.391.225 2.94 2.577-.15.784-.8 1.184-1.479 1.54-2.916.001-3.89-2.819-1.46-4.117"/></svg>