<svg xmlns="http://www.w3.org/2000/svg" viewBox="0 0 390 270" width="390" height="270" preserveAspectRatio="xMidYMid meet">
  <rect x="0" y="0" width="390" height="270" rx="6" ry="6" fill="#ffffff" stroke="#D9D5C9" stroke-width="1"/>
  <g transform="translate(0.00 240.00) scale(0.8276 0.8276)"><path d="M31.5324 128.534L32.2625 129.118C30.4104 128.126 30.9712 128.337 31.5324 128.534ZM95.6463 87.4716C95.8128 87.0143 95.7416 87.0158 95.5958 87.1707C95.5412 87.5191 95.0547 88.4836 94.4692 89.5651C94.7263 89.3131 95.081 88.7963 95.6463 87.4716ZM93.2868 91.6682C93.2723 91.7102 93.2629 91.7404 93.2557 91.7771C92.0471 93.7601 92.483 93.0604 93.2868 91.6682ZM29.1254 3.92255C29.4167 3.13331 30.0329 2.05511 30.72 1.00977C30.9684 1.16129 31.2322 1.32243 31.5013 1.48727C31.2686 1.37584 31.0289 1.26251 30.7599 1.13467C30.2984 2.00008 29.7713 2.91295 29.1254 3.92255ZM102.01 35.3811C102.971 35.7582 104.94 36.421 105.497 36.9896C104.219 36.9178 103.514 36.2957 102.01 35.3811ZM136.331 65.7627L138.736 63.0809C136.648 66.9163 134.635 69.3228 137.027 66.9028C136.801 66.5354 137.561 65.2374 138.673 63.6083C138.951 63.2007 139.248 62.7709 139.56 62.3322C140.017 61.6995 140.484 61.0466 140.957 60.3922C142.127 58.7711 143.307 57.1331 144.39 55.6341C142.505 54.7243 140.801 53.9302 139.535 53.4082C138.902 53.1473 138.377 52.9539 137.988 52.8456C137.792 52.7909 137.63 52.7573 137.503 52.7462C137.409 52.7506 137.352 52.7785 137.304 52.8174L135.323 51.5361C135.916 51.8461 136.045 51.8285 136.637 52.1371C132.82 49.5668 133.201 51.4281 128.018 48.643C126.227 47.6431 125.03 46.8435 126.345 47.3352L122.123 45.5715C120.945 44.9573 121.333 44.9088 122.505 45.5212L116.23 42.5007L116.292 42.4908C115.317 42.2225 113.167 41.4861 112.125 41.1094C110.622 40.1605 112.978 41.388 112.643 41.0473L109.059 39.5955C107.797 38.6056 110.795 39.7519 113.16 40.9832C110.492 38.2644 110.156 39.8347 103.525 35.7147L106.855 37.2C105.072 35.5208 102.415 34.4811 98.9276 32.2489C99.6981 32.8904 105.806 36.9209 101.922 35.3285C100.909 34.7186 99.5386 33.9842 97.4061 33.2002C97.5839 32.7946 95.5637 31.9071 93.0845 30.6981L93.5163 30.2593C90.7719 29.0789 90.8487 29.45 89.1596 28.9027C86.212 27.3665 85.7983 26.6529 85.2701 25.962C80.5504 23.5028 88.2335 28.2538 82.5472 25.5394C78.686 23.3623 75.7982 22.1885 70.9047 20.1384C68.2219 18.5743 71.5488 20.0594 70.6276 19.4123L67.9627 18.6044C67.3655 18.2942 67.6242 18.263 67.7561 18.2479C65.6039 17.3755 67.3243 18.6867 63.9956 17.2034C62.831 17.3431 57.7351 13.0245 53.3782 11.6695C52.4593 11.0244 54.0192 11.5887 53.8157 11.2329C48.0739 8.90559 48.9229 9.18145 44.0924 7.49414L40.3979 5.22045C43.0434 7.03197 39.181 5.68711 35.8078 4.48087C36.7231 5.17464 37.4984 5.77033 38.0383 6.13876L35.4312 5.01252L34.1257 4.44916L33.5438 4.20272L33.0248 3.9873C32.5538 3.6456 32.9238 3.60469 33.8092 3.77327C33.4622 3.65436 33.1449 3.54903 32.9077 3.48049C32.0928 2.95328 31.8199 2.66177 31.9726 2.56766C32.1196 2.46996 32.7021 2.57539 33.4988 2.78998C33.6691 2.90769 33.8358 3.0237 34.0035 3.13989C34.1678 3.25589 34.3347 3.37274 34.466 3.47142C34.7419 3.67831 35.0186 3.88427 35.2899 4.08774C36.7007 4.39401 38.0503 4.62647 37.9421 4.18967C37.5821 4.08544 36.9227 3.82175 36.2085 3.50141C36.5801 3.57953 36.8274 3.60631 36.7021 3.47793C36.5587 3.33772 35.9697 3.18905 35.075 2.90866L34.8578 2.61761C34.8196 2.56805 34.7944 2.52633 34.744 2.46939L34.573 2.29348C34.3453 2.05767 34.0952 1.81143 33.8291 1.55664C33.6691 1.57319 33.5147 1.59292 33.3655 1.615L30.407 -1.07946e-06L28.4655 3.28526L27.9637 4.13445L27.837 4.34896L27.7523 4.48968L27.5819 4.7667L26.8988 5.87713C24.9251 10.8894 23.5522 15.436 19.744 23.0265C20.3286 20.948 19.2744 22.2577 18.836 21.8904C20.4639 20.1379 21.7459 15.9899 23.9492 12.1797C22.7984 14.1668 22.8029 13.5955 22.9993 13.0378L19.738 20.1943C19.4165 19.819 18.6411 21.4955 17.4954 23.206C19.036 22.278 15.2419 28.6362 13.9655 31.5748C13.6025 31.6035 13.6921 30.7817 15.6134 27.3928C12.963 30.8447 13.9074 32.7837 11.3874 36.2152C11.8344 35.3756 12.1192 34.9478 12.1614 34.5425C11.3402 36.6243 8.56287 41.2959 8.93821 40.0459L9.38591 39.2099C6.28075 44.7082 0.220725 56.1031 0.45274 57.2998C0.333441 57.3071 0.0265927 56.1285 0.0716077 55.7184L-3.00933 66.8608C-3.12081 65.6716 -6.32729 68.2681 -4.16158 63.4862C-4.96157 64.7622 -5.9449 66.3454 -7.24729 69.2435C-6.67538 68.3869 -5.18533 67.4537 -5.80115 68.7136C-7.04316 70.2285 -7.44582 70.7691 -7.89471 71.4127C-8.11596 71.7365 -8.3545 72.0824 -8.7034 72.5958C-8.88381 72.8477 -9.08958 73.1441 -9.33891 73.4972C-9.37221 73.5488 -9.39137 73.5698 -9.44225 73.6458C-9.48624 73.716 -9.53409 73.7867 -9.58192 73.8574C-9.67679 74.0036 -9.77487 74.1553 -9.88 74.3131C-10.0921 74.638 -10.3227 74.9885 -10.5733 75.369C-10.0014 74.444 -9.75804 74.5207 -9.76175 75.0476C-9.76354 75.3113 -9.81791 75.6775 -9.93124 76.0993C-10.0422 76.5217 -10.2064 76.9933 -10.4501 77.5125C-10.2153 77.6445 -9.98068 77.7835 -9.75089 77.9303C-10.0283 77.8473 -10.2887 77.9892 -10.602 78.0906C-10.9184 78.1896 -11.3012 78.2407 -11.9355 77.9098C-11.9355 77.9098 -11.934 77.9071 -11.9321 77.9039L-11.9355 77.9098C-10.4344 78.6488 -9.05671 79.3106 -7.80174 79.8942L-7.56828 80.0043L-7.45195 80.0574L-7.36135 80.0956L-7.00907 80.2422L-6.30657 80.5283L-4.89936 81.1088C-6.2665 80.4711 -5.58834 81.7082 -4.60599 82.667C-5.02708 82.1662 -0.218444 85.4427 1.18966 86.2028L-0.839201 84.6514C4.81886 88.3831 5.60089 86.9801 11.266 90.597C10.4634 90.3444 8.86857 90.6397 11.6969 92.5656C13.304 92.9506 18.9193 94.1023 24.1733 96.9168L24.9809 97.7779L29.0278 99.9134C26.198 99.0759 18.5584 96.255 14.525 94.4906C16.5448 96.0413 14.9326 95.1669 18.1639 97.1626C19.1513 98.1137 16.1831 96.4247 15.23 95.8462L22.6202 100.698C22.6147 99.9691 28.6783 103.769 28.6625 103.153L20.1897 98.593C20.1872 97.8654 25.8217 100.062 31.0709 103.484C32.2897 104.536 29.4781 103.776 29.4802 104.021C30.2833 104.273 34.732 106.837 35.1402 107.271L32.7117 106.137C35.5443 108.188 37.9675 108.47 41.2046 111.196C42.4103 111.997 44.443 114.162 44.8482 113.987C43.2229 112.135 43.9871 110.048 45.5975 110.44C46.0041 110.748 51.6771 115.042 52.8918 116.216C54.6169 117.948 49.1656 115.429 50.6322 116.906C50.7957 116.81 52.0192 117.333 52.5196 117.57C53.73 118.497 51.7093 117.676 54.5479 119.365C55.3446 119.13 60.2058 122.977 56.1504 119.747C58.9791 121.313 58.9885 121.679 62.2148 123.672C61.4053 122.686 65.8278 124.316 68.6623 125.885C68.4151 125.919 68.9209 126.479 69.1692 126.746C70.4396 127.557 71.555 128.285 72.6149 128.989C73.7284 129.727 74.7566 130.412 75.7603 131.08C76.4626 129.79 77.1466 128.538 77.8689 127.214C78.5463 125.963 79.2485 124.637 80.0222 123.128C80.4164 122.687 81.9451 120.099 81.6001 121.357C81.91 120.512 82.0974 119.685 82.9579 117.971C85.1239 114.909 81.0846 121.815 82.9463 119.589C82.7354 119.21 84.7629 114.947 85.8057 112.413C84.9282 112.908 82.8382 117.984 81.7899 120.52C81.1023 120.183 82.5548 115.578 85.2008 109.632C87.384 104.947 86.6617 107.864 86.9732 107.016C91.511 98.4405 89.544 99.049 93.7071 92.1291C95.5997 89.5061 94.6381 92.4424 95.2739 91.9719C93.5245 95.8031 92.0562 97.5815 90.7745 100.129L92.5811 97.1094C92.116 98.3749 90.9449 100.93 90.1221 102.229C91.7337 100.044 97.6631 87.6768 101.433 81.1966C101.893 79.939 102.788 77.8183 102.117 78.6957L101.1 80.8344C99.7587 82.594 102.645 76.6194 101.117 79.2047C102.316 76.2497 103.549 72.8819 105.786 69.0018L106.666 68.5081C106.475 68.5183 105.038 70.9593 104.616 72.155C105.245 70.3826 108.412 66.3938 108.691 64.2418L106.919 66.8572C107.416 65.6392 107.919 64.2815 108.481 62.8674C108.62 62.5226 108.76 62.1728 108.901 61.8192C108.954 61.6479 109.012 61.4767 109.066 61.3028C109.176 60.9736 109.286 60.6747 109.428 60.3742C109.143 60.2496 108.891 60.1219 108.641 59.967C108.722 60.2261 108.744 60.2906 108.822 60.338C108.891 60.3823 108.996 60.4004 109.079 60.4928C108.977 60.6096 108.781 60.8156 108.473 61.0209C108.785 60.851 108.87 60.8965 108.789 61.1652C108.75 61.2938 108.672 61.4641 108.584 61.6534C108.34 62.1294 108.076 62.6494 107.816 63.1595C106.742 65.2494 105.758 67.1774 107.027 65.6228C105.045 67.8558 104.466 69.9313 102.177 73.0045C102.395 72.9843 103.099 71.9724 101.503 74.8933C101.482 75.052 101.382 75.3993 101.316 75.6179C101.265 75.7062 101.244 75.7359 101.201 75.8118C101.239 75.7564 101.267 75.7145 101.304 75.6576C101.264 75.7997 101.262 75.8133 101.343 75.6014C101.775 74.9318 102.153 74.4039 102.362 74.2174C101.986 75.8807 99.5638 80.5846 98.9435 82.277C97.966 83.995 99.1329 81.4466 98.4662 82.3166L97.539 84.8437C97.0546 84.8936 94.5484 89.2061 96.4525 84.956L94.5293 88.6755C93.2032 90.7651 91.5764 93.7418 90.7782 95.6811C89.8004 97.399 88.9076 100.326 89.4073 98.6494L86.6416 104.609L86.5241 104.618C83.5277 110.36 81.0507 116.796 77.0215 123.053C76.5982 123.985 76.1716 124.938 75.6556 126.019C75.5995 126.134 75.5417 126.252 75.485 126.375C75.4611 126.428 75.436 126.484 75.4091 126.543C75.3545 126.655 75.2985 126.771 75.2369 126.894C75.1157 127.134 74.9769 127.389 74.8228 127.642C74.767 127.599 74.6952 127.547 74.6213 127.494C74.5199 127.288 74.4343 127.096 74.3742 126.918C74.2124 126.852 73.9964 126.71 73.7889 126.555C73.0205 126.038 72.2017 125.487 71.4183 124.965C69.8503 123.911 68.4333 122.991 67.8295 122.829C65.7962 120.425 56.5117 115.484 52.4608 112.744L52.0584 113.04C49.2237 111.231 46.4199 109.626 42.7821 107.565L42.7811 108.051C39.5535 106.424 35.0963 102.884 30.2484 99.8952C30.6592 99.9667 31.8605 100.769 32.6763 101.392C27.4047 96.9914 20.1561 94.3366 15.2888 90.4824C13.9055 89.7934 12.989 89.1581 12.1311 88.4982C12.2532 88.5715 12.366 88.6367 12.465 88.6828C12.3344 88.5933 12.1371 88.4696 11.9347 88.3421C11.3969 87.9217 10.8461 87.4806 10.2399 87.0217C10.7312 87.4499 11.2121 87.8471 11.6451 88.1644C10.6377 87.5404 9.08682 86.6271 7.5365 85.7782L7.13502 85.0071C7.01059 84.9317 6.91114 84.8743 6.78257 84.8C5.40471 83.7433 5.49328 84.239 6.09915 85.0075C5.31058 84.5984 4.57243 84.2396 3.98363 83.9941C3.1713 82.6439 -0.0616248 81.74 -1.28494 80.0781C-1.76836 79.9513 -3.09711 79.2046 -4.58511 78.3702C-4.95967 78.1645 -5.34293 77.9503 -5.72383 77.7374C-5.95339 77.6084 -6.00808 77.5874 -6.12564 77.5304C-6.23492 77.4779 -6.34598 77.4279 -6.45001 77.3784C-6.88702 77.1712 -7.34499 76.9706 -7.79322 76.8077C-7.72451 76.4833 -7.72413 76.2269 -7.83176 76.1115C-7.69478 76.0676 -7.47542 75.761 -7.77671 76.3301C-7.59511 76.0398 -7.41398 75.7503 -7.23642 75.4615C-7.1529 75.3229 -7.06921 75.184 -6.98585 75.0457L-6.83321 74.7813L-6.65713 74.4642C-6.19405 73.6191 -5.77434 72.7782 -5.44814 71.9454L-4.55837 71.4714L-3.15486 67.314C-1.60418 65.1668 -0.912708 64.3031 -1.77767 66.7999C0.642672 60.9486 0.437402 62.1882 2.41555 57.1676L2.61019 57.5704C3.50861 55.8804 4.54384 52.9602 5.35614 52.0865C7.99692 48.6469 15.5376 33.5004 21.3349 24.1378C19.3862 25.5078 24.1871 19.8708 23.6746 19.0987C24.2002 18.6544 25.0543 17.3745 24.396 19.0431C26.8529 13.9926 28.7645 11.822 30.0008 8.08687C30.527 7.64158 29.7521 9.31696 30.1551 8.88554C30.3217 8.46427 30.8124 7.21451 31.2212 6.77236C31.6244 6.34068 31.0153 7.59501 30.6888 8.42839C31.0679 7.71734 31.3848 7.0889 31.6497 6.53259L31.6936 6.4402L31.7007 6.40798L31.719 6.34594C31.7308 6.30237 31.7411 6.26037 31.7531 6.22146C31.7732 6.13822 31.7903 6.05332 31.8055 5.96653C31.8677 5.62245 31.9005 5.24447 31.9134 4.85185C32.0772 4.62921 32.1495 4.29799 32.2121 3.9721C32.6767 4.3006 33.0339 4.54774 33.3553 4.74916C33.4404 4.8018 33.5021 4.84096 33.5966 4.89482C33.7165 4.95982 33.8358 5.0252 33.9507 5.08691C34.1817 5.20794 34.4073 5.31952 34.6281 5.42236C35.5199 5.83461 36.366 6.1095 37.4037 6.35967C38.1961 7.02268 39.5813 7.99338 36.3795 6.49094C38.1437 7.41047 47.0933 12.2293 47.536 11.7957C48.0265 12.2065 50.0054 13.0762 50.5034 13.2492C54.4807 15.2737 54.8082 15.4955 58.7524 17.4023L57.7085 16.7738C59.5723 16.9154 61.0385 18.2596 64.2374 19.7611L64.1134 19.7808C71.1326 23.8527 67.3513 21.1232 74.2415 25.212L74.049 24.6243C75.1388 24.1128 80.1363 28.2857 84.446 30.0327L83.0613 29.0612C85.472 29.9027 88.8199 33.3708 91.0444 34.6128C91.5029 34.9343 90.2019 34.3396 89.4809 34.0485C95.1913 37.5206 90.5112 33.919 95.0108 36.0152C95.692 36.7018 93.6028 36.1942 96.5664 37.7378C97.9426 38.7058 105.684 41.1623 109.496 43.7298C108.705 43.0679 107.918 42.4079 110.061 43.277C113.26 44.7773 118.204 48.3514 121.396 49.1011C121.769 49.3606 121.891 49.4917 121.881 49.5529C124.385 50.5851 129.879 53.1832 131.518 53.5442C131.901 54.1528 133.027 54.8765 134.493 55.639C134.859 55.829 135.248 56.0224 135.65 56.2165C135.719 56.2487 135.788 56.2809 135.856 56.3125L136.026 56.3887C136.146 56.441 136.264 56.4924 136.384 56.5447C136.875 56.7547 137.417 56.9728 137.996 57.2069C137.727 57.6602 137.438 58.1442 137.139 58.6143C136.991 58.8499 136.841 59.0811 136.693 59.2999C136.468 59.6295 136.238 59.9491 136.029 60.2327C135.186 61.3727 134.55 62.0428 134.275 61.8214L129.387 68.6152L129.402 68.3541C126.165 72.6138 125.317 74.3372 124.474 76.0514C123.666 76.992 124.095 76.1877 124.098 76.0624C119.251 82.2009 118.838 82.8617 115.525 88.5583L114.757 88.8405C113.921 90.4292 107.508 97.5359 103.401 104.031C103.405 103.94 103.428 103.76 103.737 103.231C99.0639 110.501 90.5248 119.146 89.9789 122.667L86.9395 127.497C91.3946 121.632 86.8652 128.805 88.8766 126.522C87.2409 128.912 84.0512 132.267 86.0874 129.346L86.4823 128.947C86.5673 127.383 80.8274 136.155 80.4794 135.636C79.4176 137.082 78.3375 138.479 77.1891 139.778C76.0389 141.067 74.8259 142.277 73.5018 143.261C72.1822 144.251 70.7654 145.037 69.2813 145.523C67.7889 145.987 66.2355 146.162 64.678 146.049C61.5502 145.83 58.4887 144.57 55.5871 143.021C54.1299 142.242 52.7015 141.384 51.2755 140.496C49.835 139.597 48.4006 138.706 46.9766 137.817L47.9468 139.201L43.9656 136.705C42.9946 135.927 42.8274 135.393 45.6689 137.172C44.3665 135.926 40.7132 134.497 40.5543 134.571C35.1063 130.901 43.1488 135.247 41.4412 134.18L39.0878 132.79L39.5717 133.182C37.5402 132.253 37.2225 132.397 33.8043 130.258C31.7028 128.808 32.9085 129.223 32.0678 128.673C32.0956 128.636 31.8213 128.44 30.7653 127.85L25.7516 124.699L27.4925 126.391C25.1197 125.236 22.764 123.449 24.7775 125.392C21.8441 122.503 6.13816 113.541 4.19153 112.005C0.858533 110.409 -2.22868 108.502 -6.03197 106.109C-5.13922 106.787 -4.87974 107.646 -8.14521 105.552C-6.29483 105.249 -13.9101 101.381 -16.1178 98.9859C-14.0413 100.953 -25.5803 93.3358 -22.274 96.3473C-24.9698 94.5696 -22.2165 95.849 -24.1226 94.3251C-25.7802 93.4214 -27.4324 92.3684 -28.8896 91.0692C-30.3549 89.7822 -31.5784 88.2122 -32.203 86.4452C-32.513 85.5647 -32.6886 84.6388 -32.6843 83.6853C-32.6803 82.7331 -32.5243 81.7586 -32.2441 80.7776C-31.687 78.8122 -30.641 76.8496 -29.4492 74.8939C-29.5047 74.6822 -30.5477 75.8707 -29.6803 74.0591C-28.5602 72.8269 -27.3672 71.6331 -26.1739 70.402C-25.1428 68.8111 -25.9181 68.4452 -23.4691 65.9426C-23.8608 66.2628 -24.4454 66.7427 -23.7549 65.6746C-12.2709 50.7952 -2.11084 33.978 10.0984 19.255C8.35428 21.1858 9.32298 19.7619 10.4522 18.1441C9.65201 19.1496 10.1469 17.8918 9.82452 17.9721L14.9288 11.8035C15.2771 10.2671 19.8387 4.79017 19.8498 3.77647L18.4759 5.90158C19.8648 2.76394 14.5269 8.86923 14.1008 7.96441C12.5552 11.4839 7.43528 15.4076 4.76702 21.089C3.83693 22.1012 5.2128 19.9787 4.62509 20.4561C4.02478 21.951 2.99533 23.5389 0.836096 26.3044L0.990225 25.9277C-4.62123 34.0176 -7.36161 37.2491 -13.9488 46.1369L-13.1261 45.7166C-14.5456 47.6239 -14.9431 47.9549 -15.6728 48.8012C-16.7175 51.404 -11.7898 43.3713 -12.6379 45.8165C-15.1713 47.8841 -22.3277 59.4921 -24.3712 60.6549C-26.4843 63.6374 -23.3439 60.0693 -25.4588 63.049L-26.2385 63.6838L-26.4887 64.6395C-27.9205 66.5626 -28.8947 67.3573 -29.1328 67.2977C-28.7735 66.8383 -28.2309 65.9107 -27.8852 65.3913C-28.9127 66.5711 -30.1528 68.3614 -31.2346 69.9927C-32.3335 71.6354 -33.2103 73.185 -33.5336 73.6536C-32.8497 72.6138 -32.1341 71.624 -31.405 70.6702C-32.7974 72.8093 -34.2992 75.1609 -35.3712 77.9573C-35.897 79.3535 -36.3002 80.8761 -36.418 82.4853C-36.5414 84.088 -36.346 85.773 -35.8029 87.3168C-35.2712 88.8688 -34.4262 90.2583 -33.4579 91.442C-32.4844 92.6276 -31.3897 93.6227 -30.2781 94.4904C-28.0481 96.2217 -25.7365 97.4791 -23.6479 98.6106L-24.1596 98.0547C-17.7377 101.561 -19.291 101.313 -12.367 105.367L-12.6385 105.256C-11.1665 105.923 -9.28426 106.96 -7.42581 108.128C-9.27783 107.27 -4.42296 110.521 -6.82577 109.356C0.136399 113.161 -3.32042 111.137 1.5343 113.231L2.3847 114.152C4.06617 114.827 4.27675 114.765 7.73736 116.788C4.78464 115.315 9.64429 118.569 6.30672 116.969C13.079 122.008 17.3347 122.872 20.0522 125.819C23.833 127.039 14.1266 121.562 16.0746 122.522C14.6921 121.311 19.1571 123.593 21.3566 125.056C23.6343 126.48 24.6156 128.471 30.3815 131.998C29.8111 131.64 29.7347 131.676 29.1646 131.323C31.1934 132.851 33.5534 133.642 35.9938 135.597C37.772 136.025 39.4079 137.737 40.2118 137.381L34.8466 134.275C37.9389 135.955 41.1892 136.961 45.9047 140.342C45.4414 140.23 43.8745 139.491 42.8117 138.962C44.1416 140.033 45.6621 140.551 47.0433 141.655C46.2348 142.014 40.5415 137.846 37.0456 136.345C38.4344 137.557 43.3868 139.626 41.3651 139.304C42.7843 139.591 44.185 140.492 45.7684 141.536C46.5624 142.059 47.3972 142.618 48.3043 143.156C49.2166 143.696 50.2134 144.219 51.3179 144.638L50.8322 144.862C51.5145 145.171 52.9401 145.768 54.1732 146.396C53.3434 146.184 52.5233 145.951 51.7031 145.71C53.4885 146.441 55.0965 147.383 56.8017 148.23C58.4997 149.07 60.3261 149.821 62.3578 150.018C61.3146 149.842 60.5229 149.645 59.9302 149.458C59.3296 149.288 58.9281 149.123 58.6479 149.001C58.0897 148.755 58.0401 148.66 58.1313 148.6C58.2223 148.54 58.4531 148.514 58.4658 148.419C58.4789 148.325 58.2702 148.165 57.5284 147.783C59.8391 148.532 61.3985 148.855 62.5512 149.125C63.1321 149.245 63.6039 149.38 64.0458 149.463C64.486 149.555 64.8755 149.68 65.29 149.744C66.1141 149.899 67.0132 150.062 68.4574 149.905C69.1798 149.836 70.043 149.668 71.0452 149.32C71.2975 149.229 71.5603 149.131 71.832 149.03C72.0958 148.907 72.3708 148.78 72.6581 148.647C72.9506 148.517 73.2343 148.353 73.5311 148.178C73.8302 148.006 74.144 147.83 74.4428 147.616C74.1272 147.859 73.6022 148.128 73.0637 148.406C72.7876 148.538 72.4948 148.651 72.2167 148.763C72.0762 148.819 71.9413 148.871 71.8101 148.922C71.6768 148.966 71.5437 149.001 71.4217 149.037C70.9313 149.173 70.5638 149.257 70.4623 149.226C70.3623 149.2 70.5338 149.084 71.102 148.81C71.6467 148.641 72.1944 148.39 72.7693 148.151C73.0494 148.024 73.3233 147.883 73.6014 147.746C73.8802 147.615 74.144 147.467 74.4007 147.32C75.4496 146.752 76.326 146.147 76.9136 145.802C77.6303 145.173 78.118 144.687 78.4451 144.332C78.7766 143.977 78.9623 143.757 79.0409 143.633C79.1979 143.385 78.9745 143.548 78.6426 143.79C77.9752 144.279 76.9025 145.084 77.9327 143.905C79.0078 143.219 79.5587 142.5 80.0904 141.683C80.6047 140.851 81.1001 139.904 81.9549 138.635L82.317 138.886C83.5775 137.333 84.1953 136.428 84.5395 135.848C84.883 135.267 84.931 135.013 84.9668 134.776C85.0385 134.306 85.0561 133.918 87.2718 131.182L86.0041 133.941L88.0462 130.89L87.9986 131.796C90.0604 128.359 90.8716 127.414 93.295 124.343C92.5091 124.892 92.955 123.459 94.991 120.66C96.5955 118.91 94.5445 121.973 97.3931 117.978C96.9617 119.035 96.5206 120.217 94.9336 121.7C94.9191 121.961 94.5094 122.743 94.4915 123.01C96.2346 121.136 98.3218 117.897 99.3676 116.462C98.9493 117.003 98.4475 117.649 98.1511 117.951L101.864 111.854C102.66 111.05 102.241 111.844 101.825 112.629C102.638 111.439 103.065 110.517 104.286 108.785C104.25 109.439 104.623 109.551 102.987 112.069L106.674 106.369C107.066 106.096 109.071 103.817 108.658 104.605C111.047 101.698 113.548 96.7611 116.713 92.908C116.811 92.6584 117.066 92.2012 117.649 91.3168C120.48 87.5884 123.283 84.503 126.17 79.7388L128.545 77.5783C130.998 73.9891 125.38 80.5399 129.461 74.5609C132.326 70.309 131.03 73.341 132.235 71.9983C133.482 69.7531 135.57 65.7913 138.772 62.3055C137.949 63.6308 137.151 64.5597 136.331 65.7627Z" fill="#FC6B7E"/></g>
  <g transform="translate(260.00 0.00) scale(0.9701 0.9701)"><path d="M94.1974 44.8315C96.8234 42.7854 96.8234 42.7854 99.137 34.3191C96.629 37.3684 93.5394 40.1427 94.1974 44.8315Z" fill="#82C6DD"/>
<path d="M50.2609 -32.6248C49.5211 -32.9717 48.0124 -32.3504 47.6563 -30.8551C47.3755 -29.6744 45.9416 -28.9908 46.0844 -27.567C45.1545 -25.6016 43.9288 -23.7618 43.54 -21.5677C43.3538 -21.4421 43.2884 -21.2702 43.3457 -21.0522C40.9819 -16.6522 38.3754 -12.3706 36.8034 -7.58564C36.7099 -6.59199 35.4403 -5.83244 36.222 -4.66524C36.1734 -4.16488 34.7374 -4.31654 35.6184 -3.38002C32.3189 1.34466 30.9355 6.90629 28.8289 12.152C27.2794 14.1291 26.1459 16.2624 26.3009 18.8803C24.7349 20.5239 23.8658 22.4248 24.1405 24.7464C23.6747 25.0654 22.9332 25.0117 22.7796 25.7532C22.314 27.8793 20.4543 29.4939 20.5454 31.826C20.037 33.1907 18.1331 34.2061 19.4917 36.0379C19.2225 36.8064 17.7578 37.7601 18.8383 38.25C20.163 38.8504 19.8989 37.0642 20.3111 36.3024C21.6904 35.129 21.1538 33.533 21.2439 32.0746C21.6277 30.9426 24.1045 31.2104 23.1689 29.1953C25.4088 27.0207 26.0556 24.1064 26.8535 21.2628C27.0944 20.6146 27.3356 19.9657 27.5768 19.3168C28.7757 17.7716 29.2083 15.9105 29.7337 14.0873C32.4273 13.3519 31.6039 10.7012 32.4003 8.9761C34.4731 4.48384 37.4013 0.372547 38.5455 -4.53858C40.5569 -5.32144 38.8809 -6.5197 38.8832 -7.52942C39.7701 -7.76387 40.3282 -8.26968 40.3096 -9.25371C41.5494 -10.2781 42.4144 -11.4556 41.918 -13.1892C42.0781 -14.6643 44.2876 -15.3403 43.4928 -17.1886C44.6152 -17.8099 44.9005 -18.711 44.3932 -19.8779C44.7332 -20.4806 45.073 -21.0826 45.4128 -21.6846C47.1874 -22.1252 46.5207 -23.8346 47.0858 -24.9036C47.3074 -25.3178 47.5298 -25.7318 47.7515 -26.146C49.1761 -27.0772 49.2762 -28.7375 49.863 -30.1098C50.2074 -30.9124 51.7413 -31.9306 50.2609 -32.6248Z" fill="#82C6DD"/>
<path d="M128.526 63.1819C126.686 65.6337 124.593 67.9908 125.184 71.3423C126.947 68.8622 128.548 66.3225 128.526 63.1819Z" fill="#82C6DD"/>
<path d="M133.283 53.3229C133.499 52.8592 133.946 51.9527 132.806 51.6884C131.891 51.4764 131.501 52.0149 131.307 52.7438C130.74 54.8721 130.213 57.0105 129.671 59.145C129.136 60.0992 128.539 61.0382 128.616 62.3025C130.623 61.939 129.758 60.3123 130.36 59.4544C132.155 57.8075 132.325 55.3733 133.283 53.3229Z" fill="#82C6DD"/>
<path d="M42.2392 -40.2631C41.7476 -41.1054 41.9324 -42.6285 40.7058 -42.6764C39.2103 -42.7344 39.8271 -41.1943 39.5219 -40.3485C39.1671 -39.3669 38.8042 -38.3885 38.4439 -37.4082C37.8467 -36.0917 37.2494 -34.7752 36.6529 -33.4584C36.6889 -32.9988 36.7248 -32.5392 36.7608 -32.0795C34.6134 -29.4555 34.3408 -25.9801 32.6928 -23.1291C30.6757 -22.451 32.8638 -20.4067 31.5167 -19.5113C29.5992 -16.7078 27.9007 -13.8317 28.4223 -10.216C28.424 -10.2162 28.4258 -10.2163 28.4276 -10.2165C28.4363 -10.2148 28.492 -10.1905 28.492 -10.1905C25.7593 -9.33483 26.583 -6.22058 24.9757 -4.64904C24.5797 -2.85588 22.0143 -1.77991 23.206 0.517122C24.7732 -0.258502 25.0089 -2.57923 27.1459 -2.71082C27.5875 -2.73767 28.0418 -3.30516 27.5986 -3.72195C27.2688 -4.03186 26.6159 -3.9976 26.1065 -4.11657C26.6126 -5.78802 29.321 -6.0814 28.7885 -8.40264C29.8188 -8.64214 29.8644 -9.52151 30.0351 -10.3199C29.8589 -11.7711 32.8755 -12.4314 31.0206 -14.2983C32.0367 -14.8577 33.0573 -15.4153 32.5778 -16.8772C32.7502 -17.3106 32.9218 -17.7444 33.0942 -18.1778C34.0563 -19.3199 33.5999 -21.4734 35.6871 -21.8141C35.5225 -22.2044 35.3579 -22.5948 35.1926 -22.9854C35.7908 -23.329 36.7266 -23.4216 36.3212 -24.5089C36.8923 -26.5752 38.5201 -28.3641 37.9503 -30.7287C38.0504 -30.9506 38.1505 -31.1725 38.2498 -31.3947C38.6692 -32.4985 39.0894 -33.602 39.5088 -34.7057C40.4698 -35.5779 40.4742 -36.858 40.8956 -37.9601C42.0221 -38.3248 43.2387 -38.5509 42.2392 -40.2631Z" fill="#82C6DD"/>
<path d="M60.8519 10.9302C61.4311 10.3292 61.5873 9.61587 61.4185 8.81473C61.7783 7.92239 62.9534 7.16835 62.0281 6.05443C61.6724 5.62603 61.1766 6.01126 60.7819 6.26312C59.5136 7.07147 60.4719 7.86192 60.7951 8.65804C60.0842 9.36862 56.871 8.20204 59.0031 11.0462C57.0702 12.3316 58.7766 14.964 57.0478 16.3256C56.2736 17.5637 55.4821 18.8003 56.7805 20.4392C56.8114 18.7392 58.0559 17.6725 58.5085 16.2208C59.0275 14.3401 60.9126 13.0666 60.8519 10.9302Z" fill="#82C6DD"/>
<path d="M121.733 80.3916C121.566 79.8986 121.008 80.0188 120.535 80.2428C118.233 81.3302 120.163 83.1815 119.725 84.5999C119.691 84.7127 119.667 84.8286 119.637 84.9426C118.197 85.0639 117.449 87.5946 118.248 89.7438C119.248 88.336 120.426 87.0428 120.137 85.1366C121.266 83.7523 122.391 82.3375 121.733 80.3916Z" fill="#82C6DD"/>
<path d="M123.841 73.7475C122.693 74.0429 122.064 74.8505 121.695 75.9166C122.185 75.7695 122.673 75.6228 123.162 75.476C122.908 76.6876 122.655 77.8994 122.401 79.1109C123.702 77.6267 124.491 75.9842 124.973 74.2561C125.414 72.6761 124.587 73.1184 123.841 73.7475Z" fill="#82C6DD"/>
<path d="M136.26 43.6125C135.397 45.9864 134.431 48.3046 133.357 50.701C135.332 48.8525 136.265 46.4303 136.26 43.6125Z" fill="#82C6DD"/>
<path d="M54.8815 22.4248C52.7004 22.0071 53.1785 25.1518 52.2514 26.6429C51.6312 27.5905 51.3012 28.5563 51.9748 29.805C53.1997 29.1839 53.373 28.1595 53.6092 27.1758C53.9951 25.4736 55.964 22.6317 54.8815 22.4248Z" fill="#82C6DD"/>
<path d="M115.365 96.3741C117.593 94.7744 117.22 92.4329 117.61 90.4251C116.43 92.1402 115.179 93.8348 115.365 96.3741Z" fill="#82C6DD"/>
<path d="M18.7129 38.9275C16.4758 40.528 16.856 42.9313 15.5668 44.3778C15.1217 45.5063 14.2487 46.6196 15.5775 47.9586C16.2383 46.9592 16.8756 46.0572 16.4381 44.7981C17.7129 43.2408 18.6931 41.5764 18.7129 38.9275Z" fill="#82C6DD"/>
<path d="M133.204 8.68527L133.207 8.68376L133.209 8.67771L133.205 8.68004L133.204 8.68527Z" fill="#82C6DD"/>
<path d="M131.142 13.968C133.405 12.8214 132.642 10.4952 133.202 8.68446C130.538 9.67452 131.392 12.0366 131.142 13.968Z" fill="#82C6DD"/>
<path d="M105.47 16.4494C106.873 15.1724 107.806 13.8735 108.16 12.2122C108.308 11.5209 108.006 11.0492 107.346 10.9367C107.108 10.8965 106.809 11.2186 106.538 11.3755C107.717 13.3255 105.026 14.35 105.47 16.4494Z" fill="#82C6DD"/>
<path d="M0.977578 54.332C2.01272 52.2357 2.11643 51.6027 1.85863 50.2891C1.41408 51.7202 0.601188 52.8815 0.977578 54.332Z" fill="#82C6DD"/>
<path d="M21.2081 5.60153C21.1035 5.44385 20.0339 5.69263 19.8993 6.35936C19.7562 7.07189 19.6422 7.95083 20.3114 8.40494C20.5205 8.54661 21.2435 7.93058 21.8254 7.60938C21.6221 6.849 21.5594 6.12992 21.2081 5.60153Z" fill="#82C6DD"/>
<path d="M135.892 3.69231C133.705 5.27051 133.527 7.00636 133.209 8.67749C134.987 7.66655 134.927 5.82255 135.892 3.69231Z" fill="#82C6DD"/>
<path d="M48.582 33.1869C48.7359 34.3804 49.3145 34.9127 50.0992 35.1314C50.197 35.1586 50.8775 34.1024 50.7437 33.7588C50.389 32.8437 49.4319 33.293 48.582 33.1869Z" fill="#82C6DD"/>
<path d="M13.1164 20.3223C13.8471 22.4023 12.0641 23.1818 13.1023 24.8252C13.7676 23.5013 14.7918 22.5801 13.1164 20.3223Z" fill="#82C6DD"/>
<path d="M63.256 2.6124C65.3251 2.3942 65.372 1.0486 65.8256 0.0395083C65.3897 -0.183 64.9543 -0.40449 64.5188 -0.625977C64.1285 0.374801 63.7383 1.37558 63.256 2.6124Z" fill="#82C6DD"/>
<path d="M67.5127 -6.23792C65.2487 -6.1237 67.2936 -4.3377 66.5084 -3.64934C65.8452 -2.6415 65.1819 -1.63364 64.519 -0.626536C64.9544 -0.40505 65.3896 -0.182836 65.8258 0.0389373C66.6524 -1.73965 68.1712 -3.21016 68.2274 -5.33322C68.7439 -6.46012 69.3501 -7.55629 69.7509 -8.72322C70.1284 -9.82385 69.42 -9.74513 68.7191 -9.54659C68.6279 -8.33091 68.609 -7.08962 67.5127 -6.23792Z" fill="#82C6DD"/>
<path d="M17.6188 13.2728C17.031 12.9292 16.528 13.1024 16.2239 13.7412C16.0638 14.2472 16.1934 14.734 16.7146 14.8051C17.2858 14.8829 17.9012 14.6646 18.0677 14.0137C18.1196 13.8112 17.8473 13.4059 17.6188 13.2728Z" fill="#82C6DD"/>
<path d="M131.139 13.9768L131.142 13.9754L131.143 13.9679L131.138 13.9705L131.139 13.9768Z" fill="#82C6DD"/>
<path d="M129.787 16.6104C131.192 16.096 131.317 15.1062 131.139 13.9759C129.896 14.4487 129.615 15.3672 129.787 16.6104Z" fill="#82C6DD"/>
<path d="M48.767 36.946C47.8013 37.0633 47.1578 37.3817 47.1693 38.3841C46.3676 39.2778 44.8065 40.3396 46.1056 41.4053C47.0043 42.142 47.5207 40.3594 48.1014 39.587C49.3195 38.9311 48.1237 37.7659 48.767 36.946Z" fill="#82C6DD"/>
<path d="M44.1197 45.5572C41.919 46.2544 42.4479 48.476 41.6585 49.9616C40.9697 51.6084 39.556 53.1418 40.9219 55.7153C41.6485 53.8519 42.1787 52.4923 42.7089 51.1327C43.3132 49.5894 43.9173 48.0468 44.5224 46.5038C44.9598 45.2757 45.9603 44.2046 45.7254 42.6694C44.1603 43.207 44.6347 44.6364 44.1197 45.5572Z" fill="#82C6DD"/>
<path d="M116.788 48.7754C116.785 48.785 116.783 48.7963 116.779 48.807C116.789 48.8039 116.795 48.8002 116.805 48.7971L116.788 48.7754Z" fill="#82C6DD"/>
<path d="M115.448 51.7159C117.15 51.2115 116.457 49.7898 116.779 48.8059C115.262 49.2671 115.247 50.3871 115.448 51.7159Z" fill="#82C6DD"/>
<path d="M101.123 26.8326C100.94 27.2043 100.743 27.7452 101.361 27.9258C101.591 27.9928 101.915 27.7379 102.12 27.6595C102.304 27.0814 102.371 26.5993 101.833 26.4184C101.654 26.3576 101.229 26.6172 101.123 26.8326Z" fill="#82C6DD"/>
<path d="M7.59416 37.1422C7.17806 36.7884 6.59492 37.0151 6.44744 37.415C6.31027 37.7885 6.5557 38.3019 6.63277 38.7538C6.99974 38.5818 7.36773 38.4093 7.79689 38.2081C8.37937 37.7897 7.88327 37.387 7.59416 37.1422Z" fill="#82C6DD"/>
<path d="M116.791 48.7745L116.807 48.7958C116.818 48.7824 116.825 48.7682 116.835 48.7542C116.819 48.7607 116.807 48.7681 116.791 48.7745Z" fill="#82C6DD"/>
<path d="M117.716 46.1378C116.603 46.9145 117.363 48.0288 116.832 48.7547C118.1 48.2572 118.227 47.4069 117.716 46.1378Z" fill="#82C6DD"/>
<path d="M88.5095 59.9781C88.103 59.7518 87.5781 59.753 87.5165 60.3694C87.4935 60.6002 87.8528 60.8691 88.1026 61.2105C88.4226 61.0328 88.845 60.9315 88.892 60.7372C88.9452 60.5182 88.7273 60.0995 88.5095 59.9781Z" fill="#82C6DD"/>
<path d="M8.21319 34.762C8.80138 34.9329 8.83884 34.3545 9.08066 33.8973C9.0349 33.7083 8.97059 33.441 8.90553 33.1733C8.5789 33.4331 8.17721 33.6441 7.95672 33.9749C7.85559 34.1278 8.05185 34.7152 8.21319 34.762Z" fill="#82C6DD"/>
<path d="M109.351 8.95103C109.325 8.61958 109.301 8.32504 109.278 8.0305C108.9 8.1865 108.401 8.24743 108.184 8.5272C108.003 8.76005 108.155 9.25046 108.161 9.62708C108.535 9.41468 108.909 9.20199 109.351 8.95103Z" fill="#82C6DD"/>
<path d="M11.9481 25.4657C11.6125 25.9287 11.3077 26.1673 11.2821 26.4327C11.2557 26.7113 11.4184 27.1195 11.6391 27.2835C11.9465 27.5118 12.3553 27.3129 12.3521 26.9279C12.3497 26.5127 12.1355 26.0996 11.9481 25.4657Z" fill="#82C6DD"/></g>
  <g transform="translate(95.00 118.93) scale(0.6557 0.6557)"><path d="M113.997 5.74314C115.459 5.78859 117.131 5.73616 118.609 5.72363C118.528 6.93342 118.528 17.5596 118.804 18.3186C119.801 18.5797 120.004 17.5725 120.616 16.9757C126.338 11.3646 136.725 15.9008 137.41 23.6767C137.836 28.5109 137.819 31.305 134.839 35.2904C132.906 37.5853 129.489 38.9304 126.528 38.7899C124.14 38.6767 122.727 37.7897 120.683 36.7667C120.305 36.0048 119.964 35.0891 119.066 34.8614C118.25 35.425 118.981 37.2373 118.412 37.9611C117.481 38.2288 115.036 38.1626 113.938 38.1867C114.08 36.5416 114.087 34.5502 114.047 32.8941C113.83 23.9346 114.379 14.6726 113.997 5.74314ZM125.854 34.7939C131.748 34.0139 133.52 29.9483 132.768 24.5532C132.506 22.6729 131.515 21.1365 129.99 20.0457C128.668 19.1067 127.097 18.5817 125.476 18.5378C119.927 19.6025 117.723 23.4012 118.697 28.8727C119.393 32.7887 122.166 34.3287 125.854 34.7939Z" fill="black"/>
<path d="M198.396 5.15658C198.684 5.13278 198.972 5.11543 199.26 5.10451C202.669 4.96923 206.76 5.58317 209.319 8.01993C212.115 10.6834 212.035 13.4474 212.176 16.9303C210.632 16.8102 208.701 16.8115 207.127 16.7699C207.093 15.4129 207.05 14.056 206.998 12.6995C206.529 11.9469 205.808 11.1733 205.217 10.4944C201.288 9.21898 199.638 8.77074 195.555 10.59C194.016 13.0096 193.139 16.1319 196.378 17.7443C200.649 19.8706 205.98 19.6995 209.941 22.7108C213.881 25.7062 213.978 31.0826 210.933 34.7277C208.433 37.7433 205.278 38.412 201.605 38.8532C201.524 38.8541 201.444 38.8538 201.363 38.852C196.834 38.7636 191.924 37.0836 189.695 32.9061C188.424 30.5254 188.413 29.0856 188.471 26.519C190.067 26.4719 191.665 26.4529 193.261 26.4621C193.13 34.6207 200.713 36.3243 206.733 32.7129C208.252 30.1551 208.936 26.9065 205.606 25.3603C201.553 23.479 196.899 23.588 192.985 21.099C188.818 18.4478 188.032 13.3895 190.677 9.37341C192.638 6.44797 195.143 5.802 198.396 5.15658Z" fill="black" fill-opacity="0.988235"/>
<path d="M290.734 14.6039C291.325 14.5728 291.922 14.5411 292.515 14.5597C306.923 15.0148 299.538 31.096 302.304 33.9123C302.753 34.3713 304.328 34.2467 304.956 34.2559C304.902 35.6931 304.908 36.6413 304.999 38.0754C303.551 38.0933 299.821 38.3353 298.767 37.0628C298.251 36.4409 298.387 34.9945 296.961 34.997C296.483 35.3144 296.233 36.0744 295.986 36.6316C293.416 38.2963 291.811 39.1131 288.54 38.7391C286.613 38.5185 284.029 37.4087 282.838 35.8287C281.564 34.2006 281.354 31.9358 281.678 30.0188C282.578 24.7441 288.365 24.1935 292.695 24.3997C294.263 24.4745 295.614 24.3673 297.206 24.6351C297.092 23.3969 297.214 21.8269 296.525 20.7728C293.61 16.3126 287.937 18.204 286.588 22.8721C285.79 22.5496 282.678 21.5082 282.297 21.0079C283.113 19.7448 283.246 18.7578 284.375 17.6153C286.177 15.7923 288.311 15.0497 290.734 14.6039ZM293.007 34.6794C293.978 34.2338 295.358 33.2833 296.167 32.5694C296.782 30.7399 296.974 30.0369 297.342 28.1924C294.98 28.2534 292.629 28.1529 290.285 28.223C282.387 28.904 286.576 36.8125 293.007 34.6794Z" fill="black"/>
<path d="M235.279 14.6044C239.838 14.3156 244.083 15.9276 246.266 20.1902C247.57 22.7396 247.561 25.2395 247.753 27.9903C242.596 27.9667 234.896 28.2241 230.011 27.8707C230.095 28.5809 230.195 29.7956 230.46 30.4285C232.731 35.8651 240.71 36.6191 243.043 30.7273C243.964 31.002 246.006 32.2012 246.946 32.7203C246.77 33.0377 246.584 33.3498 246.391 33.6561C244.734 36.2359 242.392 37.8882 239.396 38.542C236.227 39.2168 232.92 38.6111 230.197 36.8571C228.13 35.5198 226.08 32.9547 225.709 30.4904C224.471 22.2509 226.618 16.3565 235.279 14.6044ZM229.959 24.3779L236.888 24.3958C238.768 24.3999 241.171 24.3464 243.009 24.4389C242.912 23.9585 242.821 23.4671 242.708 22.9906C241.953 19.7994 238.834 18.4107 235.841 18.5449C232.436 19.2748 230.729 21.0511 229.959 24.3779Z" fill="black" fill-opacity="0.988235"/>
<path d="M150.543 14.6194C150.885 14.5985 151.225 14.5818 151.567 14.5697C154.48 14.4712 157.638 15.4634 159.751 17.5099C162.764 20.4275 163.121 24.0342 163.24 27.9305C157.545 27.7868 150.817 28.171 145.298 27.8153C145.359 28.2585 145.431 28.6999 145.514 29.1394C146.632 34.8226 154.435 37.0831 157.888 31.724C159.037 30.0318 161.018 31.8963 162.292 32.8132C160.989 35.689 158.037 37.8323 154.988 38.5223C151.79 39.2218 148.444 38.6268 145.683 36.8679C143.649 35.5561 141.514 32.8674 141.146 30.4084C139.961 22.4962 142.038 16.3685 150.543 14.6194ZM145.236 24.4285C147.66 24.404 150.083 24.3915 152.508 24.3911C154.383 24.3953 156.663 24.3455 158.5 24.4364C158.151 23.0504 157.82 22.2808 157.398 20.982C155.373 19.3682 154.218 18.4096 151.432 18.5548C147.799 19.2023 146.483 21.1248 145.236 24.4285Z" fill="black" fill-opacity="0.988235"/>
<path d="M69.0465 5.14816C74.4996 4.73124 79.5516 5.89468 82.0256 11.2198C83.0813 13.4918 83.0469 14.9002 83.2219 17.3576C81.6177 17.2876 80.0748 17.3379 78.4728 17.3771C78.2961 14.861 77.5491 11.3485 75.0812 10.3556C67.6814 7.37789 62.5583 11.9118 63.035 19.573C63.2359 22.0597 62.7226 25.0769 63.154 27.4915C64.4117 34.5317 70.8225 35.9953 76.3754 32.5946C78.0184 29.9114 78.3031 29.2232 78.513 26.118C79.7364 26.0097 81.8069 26.0541 83.0934 26.0424C83.1253 29.0443 83.0539 31.1636 81.3544 33.7378C76.0056 42.0929 60.0551 39.673 58.5238 29.4691C58.0661 26.4182 57.9813 17.0825 58.6154 14.1859C58.9642 12.6336 59.6024 11.1612 60.4966 9.84525C62.7206 6.58431 65.4318 5.84333 69.0465 5.14816Z" fill="black" fill-opacity="0.988235"/>
<path d="M103.842 15.2207C105.345 15.2776 107.032 15.2454 108.55 15.2493C108.063 24.3535 109.047 34.88 108.33 44.1004C108.312 44.3366 108.064 45.076 107.986 45.3209C106.379 47.5512 104.236 47.4267 101.752 47.4515C97.755 47.4916 93.7225 47.315 89.7325 47.4807C89.7907 46.0238 89.8444 44.9731 89.7089 43.5285C94.3808 43.3739 99.121 43.623 103.749 43.4149C103.831 40.395 103.854 37.3738 103.82 34.353C102.875 35.0958 102.186 36.2835 101.38 36.876C96.6769 40.3347 88.4411 38.0586 87.4099 31.9457C86.8445 28.5943 87.2194 24.5852 87.1283 21.1303C87.088 19.5998 87.0197 16.7123 87.2424 15.273L91.5654 15.2749C91.5128 18.1825 91.4922 21.0907 91.504 23.9986C91.502 26.0356 91.4165 28.1122 91.7262 30.1295C92.447 34.8225 98.6447 35.8926 101.741 32.8694C102.668 31.9515 103.318 30.7911 103.616 29.5208C104.024 27.8057 103.841 17.6449 103.842 15.2207Z" fill="black"/>
<path d="M17.8087 0.0341797C18.0741 0.0742615 18.0787 0.108436 18.3165 0.242102C18.4199 0.969659 17.947 3.05123 17.8606 3.9461C17.3479 9.24907 16.6941 14.8496 16.9645 20.1742C13.82 17.7351 10.1457 14.4814 6.98784 11.8947C8.49163 14.4703 11.1181 17.281 13.0202 19.6367C13.5729 20.3213 14.7789 21.2878 15.1214 21.8135L14.86 22.049C12.7457 22.0878 10.4853 22.3337 8.36476 22.511C5.56798 22.7447 2.71089 22.7787 0 23.498C0.22546 22.0307 0.124003 19.1631 0.114519 17.5863L0.0502823 7.45505C5.57192 4.89178 12.0353 2.74847 17.8087 0.0341797Z" fill="black"/>
<path d="M19.543 0C20.645 0.141002 29.3034 3.99154 30.9092 4.63786C32.6066 5.32104 36.0375 6.66021 37.8262 7.38848C37.8623 9.64899 38.0459 21.5767 37.6199 23.121C36.2526 23.364 26.8677 22.2635 24.7592 22.1382C24.1867 22.1298 23.3713 22.1901 22.9319 21.88C23.0074 21.4832 24.4646 20.2925 24.9608 19.6958C26.9926 17.2518 29.3247 14.6769 30.9472 11.9442C30.157 12.5111 29.1045 13.5133 28.2638 14.1802C25.7431 16.1796 23.252 18.1138 20.9904 20.4083C21.1561 15.178 20.6186 5.17467 19.543 0Z" fill="black"/>
<path d="M37.1925 24.834L37.5799 24.8492L37.7873 25.1906C37.7424 29.428 37.5223 31.433 35.4907 35.2839C32.3616 41.2153 25.7406 46.2389 19.3867 48.1793C20.3059 45.1 20.6565 39.0187 20.9445 35.6645C20.9964 33.2632 21.1042 30.5755 21.0193 28.2018C22.2585 28.9601 23.2009 29.9525 24.3057 30.8531C26.4282 32.5832 28.8799 34.7383 31.2399 36.0914C28.7279 33.468 25.407 28.1717 22.4601 26.3555C26.3948 26.4637 33.2071 25.3518 37.1925 24.834Z" fill="black"/>
<path d="M0.205892 24.7329C5.35981 25.4587 10.0265 26.1556 15.2593 26.4206C13.0462 27.9475 8.74941 33.8095 6.76858 36.177C9.35905 34.5553 11.793 32.4215 14.0969 30.4235C15.0632 29.5857 15.7718 28.9088 16.9343 28.3285C16.8393 30.4519 16.9553 32.522 17.0632 34.6392C17.25 37.8545 17.5395 45.4967 18.7108 48.1631C11.5516 46.2579 4.21676 39.9007 1.43734 33.0649C0.234881 30.108 0.119645 27.8752 0.205892 24.7329Z" fill="black"/>
<path d="M261.325 15.1594L264.537 15.1387C264.498 16.6564 264.453 17.8683 264.595 19.3755C260.928 19.2728 260.479 19.2542 257.226 20.9396C255.648 25.2117 256.265 33.4446 256.27 38.2004C254.671 38.1176 253.168 38.1618 251.572 38.1975C251.394 37.521 251.496 33.4623 251.475 32.5238C251.344 26.8771 251.7 20.8638 251.487 15.2469L256.26 15.2745C256.235 16.0013 256.081 17.173 256.405 17.7469C257.544 17.5871 257.849 15.6733 261.325 15.1594Z" fill="black"/>
<path d="M177.008 15.162L180.172 15.1187C180.19 16.2329 180.206 17.3536 180.219 18.4646C180.26 18.5482 180.167 19.0982 180.063 19.1234C177.397 19.7635 172.773 18.9758 172.172 22.7441C171.834 24.863 171.936 27.2211 171.936 29.3914L171.894 38.2126C170.3 38.123 169.144 38.1367 167.543 38.1951C167.018 37.5087 167.23 32.4399 167.23 31.2489L167.276 15.2679C168.629 15.1979 170.474 15.2554 171.862 15.2566C171.828 15.9951 171.649 17.1698 172.068 17.7335C173.346 17.5597 173.329 15.7233 177.008 15.162Z" fill="black"/>
<path d="M277.232 15.1534C278.261 15.126 279.39 15.1482 280.426 15.1466C280.419 16.5856 280.389 17.9209 280.553 19.3566C277.266 19.3087 276.4 19.1015 273.535 20.8441C272.084 23.2467 272.215 24.8652 272.202 27.579C272.186 31.1239 272.202 34.6724 272.193 38.2175C270.742 38.1158 269.359 38.147 267.906 38.1647C267.865 38.1328 267.82 38.104 267.781 38.069C267.294 37.6315 267.537 17.6388 267.57 15.1935C268.999 15.2708 270.619 15.2389 272.065 15.2413C272.066 16.1914 271.95 17.079 272.344 17.909L272.675 18.0017C273.228 17.7535 273.412 17.1802 273.693 16.616C275.003 15.859 275.767 15.4526 277.232 15.1534Z" fill="black"/>
<path d="M220.539 15.1947C220.7 15.1813 220.889 15.2753 221.056 15.3345C221.288 15.7822 221.201 36.3134 221.201 38.1663C219.809 38.1387 218.415 38.1393 217.022 38.1677C216.931 38.1688 216.647 38.1012 216.541 38.079C216.26 37.4683 216.398 17.4332 216.391 15.1704C217.568 15.2635 219.316 15.2033 220.539 15.1947Z" fill="black"/>
<path d="M217.501 5.86275C220.16 5.58415 222.672 6.20542 221.985 9.79185C221.756 10.988 220.765 11.5977 219.729 12.1425C215.282 12.1429 213.795 7.84233 217.501 5.86275Z" fill="black" fill-opacity="0.988235"/></g>
</svg>