<svg xmlns="http://www.w3.org/2000/svg" width="390" height="270" viewBox="0 0 390 270"><rect width="390" height="270" fill="#fff" stroke="#d9d5c9" rx="6" ry="6"/><path fill="#fc6b7e" d="M8.446 258.958v1.065c.76.61 1.065 1.75 2.054 1.75.685.61 1.066 1.827 2.13 1.827l.914 1.065.685.076c.38.456.304.609 1.065.76q.38.381.99.381c.608.457.532.837 1.521.761.457 0 .533.38.913.457q.533 0 .761.38c.457.152.99 0 1.37.228q.456.457.989.305.532 0 .76.38c.99.38.99.38 1.294.761l2.055.305c.38.608.989.304 1.521.456.457.685 1.522.076 1.903.76.913.305 2.206-.075 2.891.61 2.283.76 2.587-1.446 2.13 1.521-.38.533-.988.229-1.521.229-.609.38-1.294.228-1.978.152-.229 0-.305-.38-.533-.38-.457-.153-1.826 0-1.978-.381s-.533-.076-.761-.228q-.457-.457-.99-.457c-.38-.76-2.054-.228-2.282-.609-.457-.456-.913 0-1.218-.684q-.989.152-1.674-.457c-.532 0-.76-.38-1.217-.456l-.913-.077c-.152 0-.228-.38-.533-.38h-.685c-.456 0-.532-.456-.989-.456l-.38-.077c-.228-.456-.761-.228-.99-.456-.228-.38-.76-.228-.989-.457q-.304-.304-.76-.304-.457-.457-1.066-.457c-.76-1.293-.913-.152-1.826-1.521-1.293.228-1.37-1.827-2.663-1.827-.913-.608-.76-1.521-2.13-1.826-.381-.152-.457-.913-1.066-.76q-.304.38-.76.228l-.61.304c-1.369-.228-2.89 0-3.956-.76-.457 0-1.065.151-1.294-.23s-.76 0-.989-.456c-.837-1.37-2.663-2.435-2.739-4.109-.38-.456-.99-.837-.76-1.521q-.381-.38-.305-1.066c-.305-.608-.609-.532-.457-1.37-.076-.227-.38-.304-.304-.608v-.456q-.305-.457-.228-.99-.305-.38-.229-.837c-.456-.989 0-2.13 0-3.12q.152-.456-.152-.912c-.228-.457.152-2.055.152-2.664q-.38-.38-.228-.837c.076-.38-.38-.456-.304-.76l.837-8.599c.837-.608.152-1.978.913-2.663.228-.76-.152-1.674.608-2.206.153-.761-.152-1.75.533-2.283q.38-.152.38-.533-.076-.989.761-1.521l.076-.685 2.511-2.055h.685c.305-.38.761-.152 1.294-.152.152.304.837.761.456 1.065l-2.663 2.283q-.532.304-.532.913-.457.38-.38.99l-.305.304c-.076.38 0 .76-.457.989l-.152.685c-.609.38-.304 1.445-.457 2.13-.989.99-.152 2.815-.989 3.805q-.304.76 0 1.293.38.38 0 .609c-.76 1.446-.38 3.348-.76 4.946.532.837.076 1.902.076 2.891q.076.38.304.609v.456c0 .305-.228.61 0 .914.38.304-.076.837.38 1.217 0 .837-.304 1.826-.152 2.663q.305.38.152.837l.305.609c0 .609 0 .609.304.989.457.685 0 1.522 0 2.283.609.76 1.522 1.065 1.522 2.282.304.761 1.065 1.37 1.522 2.13.228.23.228.23.989.457.609.305.989 1.674 1.75.837l2.51.229c1.37-.837-1.52-1.826-.988-2.968q.228-.989-.609-1.522c-.38-.38 0-.913-.457-1.217 0-.457.153-.76-.228-1.065 0-.609.228-1.218-.152-1.75l.457-4.794c.456-.38.76-.38.76-1.065q.153-.38.38-.533c0-1.141 1.447-1.522 2.131-2.283l.076-.456c.077-.609.99-.99 1.446-1.37.913 0 1.37-.685 2.055-1.217h.76c.305-.228.61-.685 1.142-.457.532 0 .76-.989 1.293-.456.305.456.761.076.99.456l.913 1.065c.304.457-.153.761.38 1.218 0 1.141-.685 2.587 0 3.652l-.304 2.663c-.533.761-.457 1.903-.533 2.892 0 .304-.456.38-.456.76l-.153 1.066c-.38.228-.304.609-.456.99-.457.227-.152.912-.609 1.14q-.533.381-.456.914l-.38.532c0 1.065-1.37.99-1.218 2.055zm-4.261-10.272c0 .533-.304 1.217 0 1.75.304.38 0 1.065 0 1.522q-.152.456.152.913c.228.304-.152.76.228.99.533.38.38 1.445.761 1.52.38.762 1.37 1.294 1.294 2.055q0 .305.152.38c.609-.151.99-.76 1.522-1.065.228-.304 0-.76.38-.989.685-.228.305-.913.761-1.293l.152-.152c0-.761.761-.761.761-1.522q.076-.38.38-.533c.153-.609 0-1.293.533-1.674v-.913c0-.38.457-.456.457-.76 0-2.055.76-4.186.228-6.088 0-.685.457-1.522-.076-1.978l-1.598-.153-1.065.837h-.761l-.99.837-.151.761-1.75 1.37q0 .685-.38.99.075.456-.305.836c-.533.685.076 1.826-.685 2.283"/><path fill="#82c6dd" d="M388.537 50.23q4.616-2.539 1.539-6.77c0-2.846-2.077-1.615-3.462-1.692 0-.461 0-1.077-.538-1.154q-.923 0-1.23 1-.924.385-.462 1.231c.077 1.154-.539 2.461.461 3.461.308.923.308 2 .77 2.77.692.923 1.538 1.923 2.922 1.153m-24.691 20.692c-1.692-1.615-2.077 0-2.615 1.077-1.693 1.077-1.231 2.692-.846 4.23-.693 1 0 2 0 2.923.307 1.077.615 2.308 2.23 1.693l1.154.692q.23 1.154 1.077.307c3.154-2.615 2.692-7.615-1-10.922m6-51.613c-1.539-.308-3.77.538-3.846 1.923.692 1.153-2.308 2.384.154 3.46.538 1-.308 2.693 2.307 2.54 1.23-.078 1.308 1 2.308-.231.615-1.693 1.23-3.385.615-5.231-.538-.77.154-2.077-1.538-2.461m-1 6.46.384.924zm.154-4.614c-.693.307-1.385-.231-2.077-.231.769 0 1.384.538 2.077.23q.615-.538.846-.384-.231-.154-.846.385m9.46 49.767c3.078 1.154 3.693.846 3.54-1.692l-3.54 1.076L382 69.23c-.462-2.308-.54-4.693-2.308-6.462 0-1.615-1.077-1.077-1.923-1.153-1.847-1-2-.924-2.923 1.692q-.539 0-.462.692l-.154-.154c-1.538 0-1.077 1.308-1.23 2.154 0 .23.23 1.538 1.307.77.77.23.692.768.462 1.307-.539 1.307.769 0 .769.538l.461.616c.308 1.307.77 2.307 2.385 1.692m14.153 8.769-.23 1.23zc-.461-2.308-2.769-3.923-5-3.077-1.923.77-1.923 3-1.384 4.923v.538c.615 2-.77 4.77 2.23 5.923l.077 1.077c.77.846 1.539 1.615 2.308 0l.615-.462c2.462-.384 3.385-1.538 1.693-3.846-.154-1.692 1-3.538-.539-5.076M381.23 28.692c.385.769 1.23-.077 1.846 0 1.692.538 2.77-.231 3.615-1.539 2.308.077 2.154-1.538 2.154-3.076-.615-1.539-.538-3.308-1.692-4.616 0-.769.384-1.692-.77-2.076l-.384.769c-.923.077-1.308-1.539-2.385-.77-.23.154.077 1 .154 1.539l-.077-.154c-.461-.077-1-.538-1.307-.385-.693.462 0 1 0 1.539-1.231 1.769-1.231 4.846 0 5.384q0 .308.23.539c-.615.923-1.923 1.538-1.384 2.846m3.077-1.154c0-1 .615-1.385 1.23-1.77-.615.385-1.23.77-1.307 1.77l-1 .615zm-1.231 63.305c-.692-2-2.077-1.461-3.461-1.077h-.616l-2.077-.769c-1.384-.923-.769.308-.769.77-.538 1 .77 1.768.385 2.845-1.385 1.846-.923 3.385.692 4.77-.23.615-.846 1.153 0 1.922 1.154 1.154.77-1.538 1.692-.692.462 1.692 2 .692 2.154.385.77-1.231 2-2.308 1.462-4v-.616c.692-.461.384-1.153.615-1.692.385.077 1 .462 1.154.308.384-.385-.154-.77-.308-1.154l-1-1m-15-43.921v-.539h-2.384l-.538.077-.462 1.077.462-1.077h3.077c.769-.307.384-.769.307-1.23q0-.693-.538-.539v-.154c-.77-.23-1.539-2.077-2.308 0v.154c-.615 1.077-3.307-1.154-2.769 1.692l-.154.539c-.692.23-.615.769-.538 1.23-.385 2.077-.693 4.154 2.307 4.616 1.231.307 2.308.384 2.923-1.154l.462-.539c.23-.615.769-1.076.615-1.769.692-.923 1.077-1.846-.384-2.384m-2.693 4.692h-.23zm2-2.23v-1.54z" opacity=".9"/><path d="M220.039 120.18c4.94 0 9.744-.271 14.481.067 4.264.338 7.038 3.722 7.241 7.985s-2.436 7.58-6.564 8.594l-1.76.406 9 11.369h-5.819c-.474-.068-.947-.677-1.286-1.015l-7.105-9.271c-.677-.947-1.489-1.489-2.91-.947v11.097h-5.21zm5.278 12.45h7.106c2.3-.067 3.79-1.556 3.924-3.721.136-2.504-1.15-4.196-3.654-4.399q-3.113-.203-6.36 0c-.339 0-1.016.61-1.016.948zm-75.858 15.903V120.18l.677-.27q6.023-.136 11.91.203c6.496.473 10.624 4.06 11.842 10.42.88 4.602.541 9.204-2.368 13.129a12.18 12.18 0 0 1-9.745 4.872zm5.346-4.466h6.226c3.045-.27 5.684-1.353 6.902-4.466q2.03-5.279 0-10.624c-.744-2.03-2.233-3.587-4.33-3.925q-4.264-.61-8.798-.88z"/><path d="M264.025 139.804h-16.038c-.203 2.03.88 3.857 2.707 4.804 2.03 1.083 6.97.339 8.12-1.353.88-.812.27-.812 2.707-.812h1.962c0 3.113-4.737 7.173-10.692 6.767-6.767-.542-10.962-5.617-10.353-12.451.676-6.564 5.684-10.625 12.519-9.948 6.022.541 9.812 5.955 9.067 12.993m-5.21-4.06c-.474-3.452-2.572-5.279-5.684-5.143a5.414 5.414 0 0 0-5.211 5.21zm-62.189 6.699c-.541 3.925-5.752 7.782-12.451 6.496-5.617-1.015-9.474-6.564-8.594-12.519 1.015-6.631 6.09-10.421 12.722-9.609 5.887.677 9.609 5.887 8.932 12.925h-16.173q.068 3.857 3.384 5.143c2.03.812 5.007.474 6.09-1.15.812-1.218 1.827-1.354 3.045-1.354q1.556.136 3.045.068m-4.804-6.632c0-3.113-2.234-5.278-5.346-5.21-2.978 0-5.414 2.3-5.414 5.21zm93.181-8.459-6.09 15.768q-.88 2.03-1.624 4.195-.474 1.489-2.03 1.353c-3.587-.067-3.587 0-4.873-3.45l-6.09-15.7-.812-2.166h4.737c.338.068.88.745 1.083 1.286q2.3 6.496 4.466 13.06l.406.948q2.504-6.767 4.737-13.466c.406-1.422 1.083-2.03 2.707-1.828q1.353.136 3.383 0m-77.617 15.226 4.737-13.601c.406-1.286.947-1.76 2.3-1.625h3.722l-2.571 6.7-5.075 13.195c-.406 1.083-.948 1.354-2.03 1.354-3.655 0-3.655 0-4.94-3.384l-6.226-16.105-.677-1.76q2.436-.135 4.534.068c.541.068 1.15.812 1.353 1.354zm-85.806-16.105h-8.12v7.782c-3.857.541-7.782-2.842-8.12-6.835a8.12 8.12 0 0 1 7.714-9c4.669-.203 8.594 3.383 8.526 8.12m15.158 17.189h-8.12v7.782c-4.196.473-8.12-3.113-8.324-7.512s3.655-8.39 8.392-8.323c4.601 0 8.323 3.654 8.052 8.053m-23.278 7.85L105 136.013h16.918zm6.631-32.82h16.918c-2.707 5.21-5.481 10.15-8.391 15.563z"/></svg>