<svg xmlns="http://www.w3.org/2000/svg" viewBox="0 0 390 270" width="390" height="270" preserveAspectRatio="xMidYMid meet">
  <rect x="0" y="0" width="390" height="270" rx="6" ry="6" fill="#ffffff" stroke="#D9D5C9" stroke-width="1"/>
  <g transform="translate(0.00 220.00) scale(0.7609 0.7609)"><path fill="#fc6b7e" d="M11.1 51.2v1.4c1 .8 1.4 2.3 2.7 2.3.9.8 1.4 2.4 2.8 2.4l1.2 1.4.9.1c.5.6.4.8 1.4 1q.5.5 1.3.5c.8.6.7 1.1 2 1 .6 0 .7.5 1.2.6q.7 0 1 .5c.6.2 1.3 0 1.8.3q.6.6 1.3.4.7 0 1 .5c1.3.5 1.3.5 1.7 1l2.7.4c.5.8 1.3.4 2 .6.6.9 2 .1 2.5 1 1.2.4 2.9-.1 3.8.8 3 1 3.4-1.9 2.8 2-.5.7-1.3.3-2 .3-.8.5-1.7.3-2.6.2-.3 0-.4-.5-.7-.5-.6-.2-2.4 0-2.6-.5s-.7-.1-1-.3q-.6-.6-1.3-.6c-.5-1-2.7-.3-3-.8-.6-.6-1.2 0-1.6-.9q-1.3.2-2.2-.6c-.7 0-1-.5-1.6-.6l-1.2-.1c-.2 0-.3-.5-.7-.5h-.9c-.6 0-.7-.6-1.3-.6l-.5-.1c-.3-.6-1-.3-1.3-.6-.3-.5-1-.3-1.3-.6q-.4-.4-1-.4-.6-.6-1.4-.6c-1-1.7-1.2-.2-2.4-2-1.7.3-1.8-2.4-3.5-2.4-1.2-.8-1-2-2.8-2.4-.5-.2-.6-1.2-1.4-1q-.4.5-1 .3l-.8.4c-1.8-.3-3.8 0-5.2-1-.6 0-1.4.2-1.7-.3s-1 0-1.3-.6c-1.1-1.8-3.5-3.2-3.6-5.4-.5-.6-1.3-1.1-1-2q-.5-.5-.4-1.4c-.4-.8-.8-.7-.6-1.8-.1-.3-.5-.4-.4-.8v-.6q-.4-.6-.3-1.3-.4-.5-.3-1.1c-.6-1.3 0-2.8 0-4.1q.2-.6-.2-1.2c-.3-.6.2-2.7.2-3.5q-.5-.5-.3-1.1c.1-.5-.5-.6-.4-1L-9.3 16c1.1-.8.2-2.6 1.2-3.5.3-1-.2-2.2.8-2.9.2-1-.2-2.3.7-3q.5-.2.5-.7-.1-1.3 1-2L-5 3-1.7.3h.9C-.4-.2.2.1.9.1c.2.4 1.1 1 .6 1.4l-3.5 3q-.7.4-.7 1.2-.6.5-.5 1.3l-.4.4c-.1.5 0 1-.6 1.3l-.2.9c-.8.5-.4 1.9-.6 2.8-1.3 1.3-.2 3.7-1.3 5q-.4 1 0 1.7.5.5 0 .8c-1 1.9-.5 4.4-1 6.5.7 1.1.1 2.5.1 3.8q.1.5.4.8v.6c0 .4-.3.8 0 1.2.5.4-.1 1.1.5 1.6 0 1.1-.4 2.4-.2 3.5q.4.5.2 1.1l.4.8c0 .8 0 .8.4 1.3.6.9 0 2 0 3 .8 1 2 1.4 2 3 .4 1 1.4 1.8 2 2.8.3.3.3.3 1.3.6.8.4 1.3 2.2 2.3 1.1l3.3.3c1.8-1.1-2-2.4-1.3-3.9q.3-1.3-.8-2c-.5-.5 0-1.2-.6-1.6 0-.6.2-1-.3-1.4 0-.8.3-1.6-.2-2.3l.6-6.3c.6-.5 1-.5 1-1.4q.2-.5.5-.7c0-1.5 1.9-2 2.8-3l.1-.6c.1-.8 1.3-1.3 1.9-1.8 1.2 0 1.8-.9 2.7-1.6h1c.4-.3.8-.9 1.5-.6.7 0 1-1.3 1.7-.6.4.6 1 .1 1.3.6l1.2 1.4c.4.6-.2 1 .5 1.6 0 1.5-.9 3.4 0 4.8l-.4 3.5c-.7 1-.6 2.5-.7 3.8 0 .4-.6.5-.6 1l-.2 1.4c-.5.3-.4.8-.6 1.3-.6.3-.2 1.2-.8 1.5q-.7.5-.6 1.2l-.5.7c0 1.4-1.8 1.3-1.6 2.7zM5.5 37.7c0 .7-.4 1.6 0 2.3.4.5 0 1.4 0 2q-.2.6.2 1.2c.3.4-.2 1 .3 1.3.7.5.5 1.9 1 2 .5 1 1.8 1.7 1.7 2.7q0 .4.2.5c.8-.2 1.3-1 2-1.4.3-.4 0-1 .5-1.3.9-.3.4-1.2 1-1.7l.2-.2c0-1 1-1 1-2q.1-.5.5-.7c.2-.8 0-1.7.7-2.2V39c0-.5.6-.6.6-1 0-2.7 1-5.5.3-8 0-.9.6-2-.1-2.6l-2.1-.2-1.4 1.1h-1l-1.3 1.1-.2 1-2.3 1.8q0 .9-.5 1.3.1.6-.4 1.1c-.7.9.1 2.4-.9 3"/></g>
  <g transform="translate(360.00 15.00) scale(0.7692 0.7692)"><path fill="#82c6dd" d="M37.1 45.8q6-3.3 2-8.8c0-3.7-2.7-2.1-4.5-2.2 0-.6 0-1.4-.7-1.5q-1.2 0-1.6 1.3-1.2.5-.6 1.6c.1 1.5-.7 3.2.6 4.5.4 1.2.4 2.6 1 3.6.9 1.2 2 2.5 3.8 1.5M5 72.7c-2.2-2.1-2.7 0-3.4 1.4C-.6 75.5 0 77.6.5 79.6c-.9 1.3 0 2.6 0 3.8.4 1.4.8 3 2.9 2.2l1.5.9q.3 1.5 1.4.4C10.4 83.5 9.8 77 5 72.7m7.8-67.1c-2-.4-4.9.7-5 2.5.9 1.5-3 3.1.2 4.5.7 1.3-.4 3.5 3 3.3 1.6-.1 1.7 1.3 3-.3.8-2.2 1.6-4.4.8-6.8-.7-1 .2-2.7-2-3.2M11.5 14l.5 1.2zm.2-6c-.9.4-1.8-.3-2.7-.3 1 0 1.8.7 2.7.3q.8-.7 1.1-.5-.3-.2-1.1.5M24 72.7c4 1.5 4.8 1.1 4.6-2.2L24 71.9l4.6-1.4c-.6-3-.7-6.1-3-8.4 0-2.1-1.4-1.4-2.5-1.5-2.4-1.3-2.6-1.2-3.8 2.2q-.7 0-.6.9l-.2-.2c-2 0-1.4 1.7-1.6 2.8 0 .3.3 2 1.7 1 1 .3.9 1 .6 1.7-.7 1.7 1 0 1 .7l.6.8c.4 1.7 1 3 3.1 2.2m18.4 11.4-.3 1.6zc-.6-3-3.6-5.1-6.5-4-2.5 1-2.5 3.9-1.8 6.4v.7c.8 2.6-1 6.2 2.9 7.7l.1 1.4c1 1.1 2 2.1 3 0l.8-.6c3.2-.5 4.4-2 2.2-5-.2-2.2 1.3-4.6-.7-6.6M27.6 17.8c.5 1 1.6-.1 2.4 0 2.2.7 3.6-.3 4.7-2 3 .1 2.8-2 2.8-4-.8-2-.7-4.3-2.2-6 0-1 .5-2.2-1-2.7l-.5 1c-1.2.1-1.7-2-3.1-1-.3.2.1 1.3.2 2l-.1-.2c-.6-.1-1.3-.7-1.7-.5-.9.6 0 1.3 0 2-1.6 2.3-1.6 6.3 0 7q0 .4.3.7c-.8 1.2-2.5 2-1.8 3.7m4-1.5c0-1.3.8-1.8 1.6-2.3-.8.5-1.6 1-1.7 2.3l-1.3.8zM30 98.6c-.9-2.6-2.7-1.9-4.5-1.4h-.8l-2.7-1c-1.8-1.2-1 .4-1 1-.7 1.3 1 2.3.5 3.7-1.8 2.4-1.2 4.4.9 6.2-.3.8-1.1 1.5 0 2.5 1.5 1.5 1-2 2.2-.9.6 2.2 2.6.9 2.8.5 1-1.6 2.6-3 1.9-5.2v-.8c.9-.6.5-1.5.8-2.2.5.1 1.3.6 1.5.4.5-.5-.2-1-.4-1.5l-1.3-1.3M10.4 41.5v-.7H7.3l-.7.1-.6 1.4.6-1.4h4c1-.4.5-1 .4-1.6q0-.9-.7-.7v-.2c-1-.3-2-2.7-3 0v.2C6.5 40 3 37.1 3.7 40.8l-.2.7c-.9.3-.8 1-.7 1.6-.5 2.7-.9 5.4 3 6 1.6.4 3 .5 3.8-1.5l.6-.7c.3-.8 1-1.4.8-2.3.9-1.2 1.4-2.4-.5-3.1M7 47.6h-.3zm2.6-2.9v-2z" opacity=".9"/></g>
  <g transform="translate(105.00 118.42) scale(0.6767 0.6767)"><path fill="#000" d="M170 2.6c7.3 0 14.4-.4 21.4.1 6.3.5 10.4 5.5 10.7 11.8s-3.6 11.2-9.7 12.7l-2.6.6 13.3 16.8h-8.6c-.7-.1-1.4-1-1.9-1.5l-10.5-13.7c-1-1.4-2.2-2.2-4.3-1.4v16.4h-7.7zm7.8 18.4h10.5c3.4-.1 5.6-2.3 5.8-5.5.2-3.7-1.7-6.2-5.4-6.5q-4.6-.3-9.4 0c-.5 0-1.5.9-1.5 1.4zM65.7 44.5V2.6l1-.4q8.9-.2 17.6.3c9.6.7 15.7 6 17.5 15.4 1.3 6.8.8 13.6-3.5 19.4a18 18 0 0 1-14.4 7.2zm7.9-6.6h9.2c4.5-.4 8.4-2 10.2-6.6q3-7.8 0-15.7c-1.1-3-3.3-5.3-6.4-5.8q-6.3-.9-13-1.3z"/><path fill="#000" d="M235 31.6h-23.7c-.3 3 1.3 5.7 4 7.1 3 1.6 10.3.5 12-2 1.3-1.2.4-1.2 4-1.2h2.9c0 4.6-7 10.6-15.8 10-10-.8-16.2-8.3-15.3-18.4 1-9.7 8.4-15.7 18.5-14.7 8.9.8 14.5 8.8 13.4 19.2m-7.7-6c-.7-5.1-3.8-7.8-8.4-7.6a8 8 0 0 0-7.7 7.7zm-91.9 9.9c-.8 5.8-8.5 11.5-18.4 9.6-8.3-1.5-14-9.7-12.7-18.5 1.5-9.8 9-15.4 18.8-14.2 8.7 1 14.2 8.7 13.2 19.1h-23.9q.1 5.7 5 7.6c3 1.2 7.4.7 9-1.7 1.2-1.8 2.7-2 4.5-2q2.3.2 4.5.1m-7.1-9.8c0-4.6-3.3-7.8-7.9-7.7-4.4 0-8 3.4-8 7.7zM266 13.2l-9 23.3q-1.3 3-2.4 6.2-.7 2.2-3 2c-5.3-.1-5.3 0-7.2-5.1l-9-23.2-1.2-3.2h7c.5.1 1.3 1.1 1.6 1.9q3.4 9.6 6.6 19.3l.6 1.4q3.7-10 7-19.9c.6-2.1 1.6-3 4-2.7q2 .2 5 0M151.3 35.7l7-20.1c.6-1.9 1.4-2.6 3.4-2.4h5.5l-3.8 9.9-7.5 19.5c-.6 1.6-1.4 2-3 2-5.4 0-5.4 0-7.3-5l-9.2-23.8-1-2.6q3.6-.2 6.7.1c.8.1 1.7 1.2 2 2zM24.5 11.9h-12v11.5C6.8 24.2 1 19.2.5 13.3A12 12 0 0 1 11.9 0c6.9-.3 12.7 5 12.6 12m22.4 25.4h-12v11.5c-6.2.7-12-4.6-12.3-11.1S28 25.4 35 25.5c6.8 0 12.3 5.4 11.9 11.9M12.5 49 0 26h25zM22.3.5h25c-4 7.7-8.1 15-12.4 23z"/></g>
</svg>