<svg xmlns="http://www.w3.org/2000/svg" viewBox="0 0 390 270" width="390" height="270" preserveAspectRatio="xMidYMid meet">
  <rect x="0" y="0" width="390" height="270" rx="6" ry="6" fill="#ffffff" stroke="#D9D5C9" stroke-width="1"/>
  <g transform="translate(350.00 20.00) scale(0.7547 0.7547)"><path d="M35.0331 65.2373C35.0423 65.8068 35.425 66.388 35.151 66.9774C34.304 68.2396 33.9908 70.2313 32.5383 70.6448C31.6574 71.9606 31.2578 74.1274 29.7666 74.6064C29.4047 75.2969 29.038 75.9966 28.692 76.6569C28.3524 76.8443 28.0437 77.0147 27.7353 77.1847C27.2501 78.0203 27.3684 78.3086 26.3263 78.8361C25.8727 79.3121 25.6285 79.8551 24.9988 79.9906C24.177 81.0191 24.347 81.5732 22.9795 81.9814C22.2216 82.0744 22.244 82.7859 21.6506 83.1352C21.1431 83.2131 20.8897 83.6552 20.6394 84.117C20.0483 84.4828 19.2915 84.5943 18.78 85.1005C18.4892 85.858 17.8892 85.9165 17.3859 86.1528C16.952 86.3563 16.5417 86.539 16.3433 87.1091C15.0777 88.192 15.0715 88.1888 14.6691 88.9914C13.7382 89.522 12.7512 89.7701 11.8525 90.428C11.3871 91.4674 10.4967 91.3225 9.82519 91.7871C9.26358 93.1266 7.67136 92.7447 7.1607 94.0831C5.91379 94.9086 4.10983 94.9077 3.23889 96.3643C0.0996856 98.6381 -0.55732 95.4351 0.412109 99.9137C1.03545 100.453 1.81924 99.6254 2.565 99.408C3.45448 99.7377 4.38915 99.0888 5.34713 98.6415C5.67309 98.4815 5.73248 97.9825 6.0384 97.8035C6.68612 97.3691 8.62196 96.8683 8.78499 96.267C9.03803 95.6545 9.58342 95.7859 9.90514 95.428C10.1859 94.8066 10.6825 94.5574 11.2211 94.2589C11.6241 93.0185 14.0869 92.9423 14.3971 92.1174C14.8773 91.2209 15.5829 91.6656 15.9247 90.5336C16.727 90.1861 17.7001 89.9752 18.1882 89.0042C18.9733 88.8021 19.1618 88.0395 19.831 87.6873C20.262 87.5191 20.7042 87.3491 21.1085 87.0843C21.382 86.9053 21.4281 86.3949 21.8021 86.2471C22.1252 86.1197 22.4446 85.959 22.7645 85.8052C23.4598 85.7185 23.4942 84.9228 24.0939 84.6491C24.2958 84.591 24.4941 84.4212 24.6939 84.3019C24.909 83.5321 25.6369 83.6075 25.988 83.1106C26.269 82.4072 26.9871 82.4729 27.302 81.9391C27.5358 81.343 28.0203 81.3293 28.3977 81.0572C28.757 80.4887 29.1137 80.1069 29.7413 79.9215C30.7668 77.4533 31.0472 79.1546 32.1653 76.6722C33.9679 76.2335 33.8812 73.0044 35.6052 72.4141C36.8586 70.9918 36.5946 69.7147 38.4018 68.4578C38.9714 68.0198 38.9912 66.8277 39.7715 66.8254C40.1213 67.1385 40.5295 67.0005 40.9638 66.7563C41.2815 66.5296 41.5074 66.9811 41.8212 66.8798C43.6636 65.8519 45.8629 65.5309 47.32 63.8087C47.9013 63.4549 48.7331 63.4446 49.0897 62.693C49.3438 62.0415 50.1212 62.2694 50.4033 61.5159C51.4202 58.958 53.7954 56.4184 53.7534 53.8029C54.1512 52.8641 55.0213 51.9515 54.6188 51.0005C54.8708 50.3775 54.998 49.8431 54.8132 49.2521C55.2379 48.1021 55.6782 48.0339 55.3753 46.8073C55.4413 46.4608 55.8147 46.1605 55.6741 45.7529C55.6031 45.5473 55.5326 45.2837 55.5933 45.0633C55.9536 44.4796 55.8577 43.9262 55.8036 43.3148C56.1613 42.8244 56.0907 42.3727 55.9848 41.9146C56.5788 40.2034 55.7499 38.6675 55.6246 37.0375C55.5536 36.5972 55.3445 36.1847 55.6877 35.6379C55.9714 34.8175 55.211 32.5284 55.138 31.4587C55.4731 30.987 55.5996 30.5246 55.3806 30.0718C55.2172 29.5971 55.8268 29.1736 55.6511 28.6587C54.8382 24.4183 54.1656 20.0656 53.3916 15.7999C52.1526 15.2394 52.9912 12.7501 51.7739 12.0929C51.3876 11.0511 51.7575 9.35619 50.6899 8.96952C50.375 7.91932 50.6848 6.08161 49.5685 5.69637C49.1186 5.53017 49.1386 5.48227 49.0556 4.98636C48.9843 3.92469 48.6765 3.21939 47.781 2.9835C47.7049 2.65096 47.6285 2.31829 47.5504 1.97573C46.2995 1.3202 45.0426 0.661534 43.7804 4.71926e-05C43.4718 0.128276 43.154 0.260205 42.8362 0.392144C42.3063 -0.09652 41.654 0.492589 40.9628 0.753358C40.7388 1.30923 39.8533 2.29276 40.4336 2.70554C41.7752 3.42429 43.1144 4.14812 44.4804 4.81906C44.9623 5.05587 45.3128 5.35579 45.3161 6.03846C45.7164 6.37302 46.0194 6.69115 46.045 7.36034C46.1052 7.55347 46.4252 7.56676 46.5168 7.70321C46.6541 8.27967 46.6815 8.8762 47.2827 8.98878C47.355 9.32519 47.4274 9.66162 47.4998 9.99803C48.4786 10.3534 48.136 12.1121 48.5145 13.0779C49.9643 14.1838 49.0269 17.4118 50.3068 18.649C50.6348 19.0906 50.8471 19.9663 50.5133 20.6163C50.2493 21.1154 50.2906 21.2551 50.652 21.4961C51.7622 23.3823 51.606 26.5636 52.233 28.9039C51.6392 30.4811 52.3944 31.9326 52.5426 33.4286C52.6301 33.8178 52.2764 34.1307 52.2438 34.4786C52.2215 34.7187 52.3276 34.9386 52.3498 35.1773C52.3926 35.6392 52.6255 36.0359 52.4596 36.5697C51.9417 37.3401 52.6299 37.9288 52.0549 38.6666C52.0369 40.1231 52.6698 41.3763 52.6102 42.8451C52.2476 43.3441 52.37 43.7884 52.4541 44.2445C52.4824 44.596 52.0789 44.9501 52.1533 45.2912C52.2205 46.2133 52.2373 46.2226 51.7819 47.0356C51.2775 48.235 52.1039 49.3275 52.0316 50.5118C51.4091 52.0874 50.208 52.9854 50.3609 54.7285C49.9889 56.1584 48.9269 57.5347 48.3057 58.9372C48.0755 59.3785 48.0769 59.3784 47.0596 60.2093C46.2614 60.9639 45.9523 63.303 44.7757 62.3268C43.5999 62.8705 42.4241 63.4137 41.2485 63.957C39.1891 63.3239 43.0506 60.4187 42.2601 58.867C41.8674 57.7774 42.3648 57.064 42.9329 56.0754C43.3942 55.3148 42.7217 54.6935 43.3382 53.9739C43.2319 53.3764 43.0998 52.8413 43.5559 52.2454C43.4302 51.2948 43.0564 50.4405 43.5574 49.4377C43.1337 47.0069 42.7103 44.5762 42.2937 42.184C41.6431 41.7775 41.2562 41.9366 41.087 40.8676C41.0034 40.5007 40.6161 40.5203 40.4925 40.2324C40.2665 38.5668 38.2779 38.5866 37.2368 37.7367C37.069 37.647 37.0047 37.4221 37.0048 37.1533C36.8005 36.1665 35.532 36.0901 34.8547 35.6181C33.5716 36.2285 32.7891 35.3516 31.7499 34.868C31.4319 34.9918 31.1139 35.1156 30.7699 35.2495C30.2361 35.0124 29.7621 34.4282 29.0788 34.9876C28.3223 35.3973 27.7586 33.8622 27.1459 35.0156C26.8558 35.7738 26.1825 35.5108 25.8232 36.1879C25.4815 36.9011 25.1209 37.6116 24.7175 38.2899C24.3026 39.1403 24.9789 39.5324 24.3287 40.3987C24.379 42.2434 25.5842 44.1299 24.8177 46.021C25.052 47.366 25.3064 48.7489 25.5282 50.1462C26.4599 51.0811 26.4837 52.7637 26.7237 54.2585C26.7413 54.8449 27.3542 54.7119 27.4135 55.2273C27.4807 55.8137 27.6278 56.3688 27.7406 56.9374C28.2971 57.0549 28.3077 57.6973 28.497 58.2292C29.2376 58.3539 28.8287 59.514 29.5224 59.663C30.0751 59.805 30.3016 60.2415 30.3573 60.8789C30.477 61.1723 30.8674 61.148 30.9526 61.5131C31.1343 63.1421 32.9369 62.3631 32.8712 64.1016C33.5895 64.4808 34.3087 64.8577 35.0331 65.2373ZM39.7183 47.1076C39.7577 47.9762 40.2889 48.9237 40.0004 49.8395C39.5803 50.6378 40.1082 51.4877 40.1239 52.2764C40.1762 52.7235 40.4152 53.1275 40.065 53.6721C39.7298 54.298 40.3454 54.766 39.8396 55.4139C39.1643 56.1984 39.4755 57.7955 39.0588 58.2042C38.5955 59.4489 37.2655 60.7911 37.4222 62.0479C37.5281 62.3435 37.4964 62.5046 37.268 62.6067C36.453 62.7075 35.8147 61.9124 35.0778 61.6824C34.6267 61.4343 34.9379 60.5126 34.3289 60.3815C33.3981 60.3498 33.7576 59.0991 33.0369 58.808C32.9624 58.787 32.9176 58.6539 32.8881 58.555C32.8067 57.3282 31.6451 57.729 31.5727 56.603C31.6144 56.1154 31.2 56.1492 30.9976 55.9498C30.7199 55.126 30.8758 53.9334 30.0626 53.6128C29.9818 53.1498 29.8479 52.7017 29.8347 52.2195C29.8189 51.6501 29.2499 51.6657 29.172 51.2424C28.8184 48.1081 27.5416 45.1346 28.0314 41.8552C27.9219 40.8696 27.2587 39.7522 27.9376 38.7331C28.6792 38.3781 29.421 38.0235 30.1514 37.6742C30.743 37.8496 31.2367 38.2106 31.7885 38.4701C32.1057 38.3478 32.4227 38.2253 32.7725 38.0903C33.2893 38.3611 33.8342 38.6467 34.3548 38.9195C34.4266 39.2557 34.4984 39.5918 34.5736 39.9413C35.4605 40.4061 36.3553 40.8751 37.2428 41.3402C37.2806 42.031 37.4804 42.4032 37.959 42.6805C38.0696 43.1052 38.056 43.5819 38.4886 43.7988C39.2668 44.5567 38.545 46.7365 39.7183 47.1076Z" fill="#FC6B7E"/></g>
  <g transform="translate(13.00 220.00) scale(0.7831 0.7831)"><path d="M11.3464 127.685C10.4007 126.605 10.412 124.776 9.62321 123.513C9.54825 123.36 9.93223 123.459 9.74355 123.119C8.89373 121.922 8.46524 119.742 8.26372 118.016L8.37871 118.087C8.33919 117.758 7.94078 117.47 7.87349 117.13C7.92814 117.11 7.98629 117.21 8.03742 117.109C7.84371 117.081 7.76891 116.542 7.59935 116.443C7.62294 116.293 7.75954 116.263 7.77866 116.072L7.52759 115.946C6.90647 115.571 7.15016 114.67 6.6863 114.035C6.74164 114.055 6.79863 114.114 6.82314 114.043C6.17905 112.991 5.76856 111.546 5.25463 110.303C5.33824 110.332 5.47638 110.339 5.5275 110.24C5.30681 110.242 5.12835 109.864 4.97851 109.535C5.13505 109.314 4.60047 109.009 4.58476 108.571L4.64175 108.59C4.32996 108.363 4.62371 108.11 4.28718 107.953L4.38849 107.713C4.05581 107.676 4.40019 107.235 4.17365 107.038L4.11635 107.065C3.97083 106.856 4.07738 106.689 3.95965 106.491L3.9871 106.459C3.74801 105.982 3.81532 105.638 3.59318 105.724C3.71714 105.489 3.8329 106.183 4.00764 105.822C3.24039 104.246 2.73529 102.529 2.19394 100.869C2.22389 100.651 2.21258 100.521 2.28449 100.451C2.18527 100.3 2.04085 99.8392 1.87636 99.7259C1.89858 99.7801 1.95741 99.5812 1.94035 99.4898C1.92814 99.1595 1.58442 99.2402 1.57864 98.8754C1.68184 98.9878 1.76929 99.0092 1.83956 98.9376C1.57129 98.7112 1.4769 98.3238 1.3113 98.0076C1.36634 98.0472 1.4152 98.121 1.48221 98.0852C1.16356 97.7841 1.30872 97.4037 1.07821 97.1236L1.24807 97.2016C1.23987 96.6335 0.925171 97.1376 0.874519 96.6606C0.950605 96.7544 0.989672 96.7 1.04905 96.7023C0.676163 96.3627 0.536816 95.6635 0.321885 95.2733C0.347944 95.2922 0.381277 95.2744 0.381277 95.2744C0.20505 94.831 0.125997 94.3339 -0.138846 93.8691C-0.139049 93.6691 0.19996 93.8253 -0.0032531 93.3613C-0.260486 93.464 -0.374674 92.5827 -0.580158 92.9615C-0.669402 92.538 -0.780456 91.8586 -0.957884 91.6145C-0.798212 91.7662 -0.70144 91.3111 -0.568801 91.6439L-0.4931 91.3352C-0.373152 91.3387 -0.443944 91.6117 -0.33472 91.4865C-0.400264 91.3189 -0.66536 90.8558 -0.671865 90.6894C-0.935339 90.4259 -1.3293 90.2327 -1.52806 89.7317C-1.3476 89.9392 -1.28286 89.5011 -1.18457 89.6504L-1.91868 89.0993C-1.98612 88.933 -1.7233 88.995 -1.8715 88.7713C-1.93699 88.8069 -2.01414 88.7134 -2.09467 88.6566C-2.08555 88.5833 -2.38893 87.9703 -2.1545 87.8128C-2.07672 87.7051 -2.00992 88.0725 -1.97926 87.8542C-2.08384 87.5405 -2.17631 87.5556 -2.28195 87.2422L-2.24921 87.225C-2.27817 87.0049 -2.55752 86.6488 -2.62712 86.9207C-2.58892 87.0678 -2.48949 86.8156 -2.49539 87.0536C-2.69307 86.9561 -2.85295 86.6044 -2.95742 86.291C-2.88062 86.3846 -2.8162 86.3493 -2.72898 86.3688C-3.06913 86.0121 -3.27797 85.5851 -3.51547 85.1408C-3.64103 85.1732 -3.23492 85.2443 -3.2776 85.3348C-3.30297 84.6749 -3.9231 84.1644 -3.8367 83.5805C-3.78809 83.6559 -3.99676 83.6815 -3.96426 83.6648C-4.04288 83.3685 -3.86063 83.324 -3.98816 83.1557C-3.88947 83.1031 -4.09856 82.9279 -4.19359 82.7429C-4.3023 82.6666 -4.15911 82.6754 -4.09238 82.8419C-4.26958 82.5986 -4.78254 81.5612 -4.83338 80.883C-4.89886 80.9174 -5.21258 80.5783 -5.25138 80.4318L-5.07097 80.436C-5.01705 80.2727 -5.24182 79.9561 -5.11087 79.8871C-5.4072 79.6417 -4.55845 81.0224 -4.84615 80.6537C-4.74586 80.5021 -5.29195 80.1552 -5.04228 80.1742C-5.14202 79.8851 -5.41527 79.6627 -5.35353 79.3362C-5.35362 79.4254 -5.05328 79.4995 -5.14013 79.2684C-5.3026 78.8651 -5.25528 79.1758 -5.4177 78.8585L-5.55175 78.6701C-5.71382 78.7069 -5.64989 78.2941 -5.77646 78.5047C-5.66259 78.4119 -6.05056 77.9303 -5.77528 77.8882L-5.55112 77.879C-5.62402 77.7056 -5.86261 77.6569 -5.99924 77.5463C-5.98733 77.5166 -5.96149 77.4563 -5.9249 77.4546C-6.24915 77.5278 -6.03651 77.02 -6.34855 76.8868C-6.36028 76.477 -6.64664 75.9324 -6.5071 75.6918C-6.6957 75.4349 -6.89423 75.2091 -6.93249 74.8587C-6.88194 74.9147 -6.84367 75.0016 -6.76976 74.998C-6.74365 74.762 -6.8433 74.738 -6.95515 74.5662C-6.89446 74.5931 -6.90446 74.0944 -6.86667 73.8292C-7.05329 73.5737 -7.19146 73.7267 -7.30478 73.7316C-7.07863 73.3696 -7.76616 72.9892 -7.59043 72.5703C-7.5152 72.6555 -7.30295 72.9383 -7.30165 72.6752C-7.07621 72.3134 -7.70187 72.2221 -7.68883 71.7523L-7.91329 71.9394C-7.81399 71.7001 -8.26328 71.3673 -7.98648 71.3251C-8.12522 71.214 -8.06223 70.8008 -8.29839 70.9287C-8.30968 70.1674 -8.97107 69.2863 -8.65823 68.7148C-8.73239 68.6294 -8.76933 68.3677 -8.88249 68.4602C-8.9693 68.6704 -8.70747 68.658 -8.78358 68.7503C-8.8201 68.664 -8.89505 68.6667 -8.93282 68.6684C-8.94483 68.4342 -8.98149 68.2592 -8.70653 68.395C-8.70566 67.8658 -9.29382 68.0392 -9.39276 67.3985C-9.27978 67.3924 -9.25514 67.3332 -9.32946 67.1602L-9.61724 66.8796C-9.70333 66.4719 -9.45281 66.5793 -9.27942 66.5123C-9.37795 66.3116 -9.45253 66.0507 -9.61544 65.9979L-9.47629 65.6702C-9.57677 65.9083 -9.63855 65.5312 -9.71412 65.4461L-9.63855 65.5312C-9.57682 65.4682 -9.70156 65.2396 -9.76322 65.1239C-9.86331 65.1879 -9.82709 65.451 -9.81464 65.5971C-9.92705 65.5142 -9.96302 65.3413 -10.1005 65.2282C-9.91217 65.2193 -10.0883 64.8451 -10.1244 64.6719C-10.149 64.4676 -10.3497 64.5059 -10.3615 64.4476C-10.2732 64.4135 -10.4481 64.1292 -10.274 64.2383C-10.2242 64.2945 -10.313 64.4162 -10.1991 64.499C-10.1732 64.3507 -10.0123 64.3151 -10.2108 64.0892C-10.3604 63.9191 -10.536 64.2503 -10.5479 63.8397C-10.4728 63.9245 -10.398 63.9203 -10.3113 63.9767L-10.3351 63.5962L-10.4974 63.6322C-10.4727 63.5719 -10.4487 63.6001 -10.4346 63.5713C-10.6343 63.5206 -10.6591 63.0512 -10.8713 63.0319C-10.9451 62.8595 -10.8831 62.6233 -10.9198 62.4479L-10.8955 62.476C-10.8697 62.239 -11.0199 61.9838 -11.1824 61.844L-11.1451 61.8421C-11.1692 61.7252 -11.2804 61.4661 -11.4189 61.3545C-11.3924 61.0301 -10.8551 61.0658 -11.1554 60.8142C-11.2544 60.5261 -11.5911 60.4532 -11.6542 60.6026C-11.7162 60.0472 -12.1647 59.539 -12.0763 58.9772C-12.1641 58.9231 -12.1889 58.9831 -12.2759 58.8408C-12.4611 58.0556 -12.985 57.2864 -12.8722 56.5775C-12.7343 56.778 -12.7099 56.5415 -12.6215 56.5078C-12.8216 56.3704 -12.5461 56.2406 -12.8094 56.2531C-12.9458 56.3175 -13.0211 56.3215 -13.0091 56.5557C-13.233 56.1243 -13.4572 55.4309 -13.4062 55.1342C-13.4314 55.2823 -13.5067 55.1983 -13.5814 55.1122C-13.3438 55.0721 -13.418 54.7244 -13.5802 54.4958L-13.7307 54.5045L-13.6418 54.2932C-13.7178 54.2095 -13.9669 54.2792 -13.9156 53.9834C-13.8664 53.9531 -13.8166 53.9209 -13.7923 53.8618C-13.9904 53.6347 -14.3022 53.3258 -14.2779 53.0021L-14.1515 52.7028C-14.2133 52.5879 -14.401 52.4219 -14.3899 52.6556C-14.4258 52.1289 -14.5123 51.8094 -14.3879 51.5983C-15.0856 50.8963 -15.4967 49.6829 -15.7818 48.6962L-15.6689 48.6913C-15.6567 48.3977 -15.894 48.614 -15.8814 48.4074C-15.7552 48.4604 -15.7316 48.1381 -15.5435 48.3052C-15.5555 47.8947 -15.8793 47.8798 -16.0053 47.6508C-16.1531 47.6579 -15.8549 47.8187 -16.0428 47.8275C-16.1051 47.8015 -16.1045 47.274 -16.3294 47.2822C-16.2791 47.162 -16.1036 47.1861 -16.0041 47.2098L-16.1781 47.0128C-16.028 46.6546 -15.5418 47.5126 -15.3407 47.1227L-15.4414 46.9215C-15.291 46.6504 -15.017 47.4019 -15.115 46.8476C-15.2911 46.6501 -15.6531 46.5498 -15.6776 46.7845C-15.8895 46.3241 -16.2403 46.7213 -16.3899 46.2005C-16.3144 46.0205 -16.2276 46.6035 -16.0897 46.4494C-16.0023 46.153 -16.34 45.9921 -16.3517 45.7578C-16.3521 46.0226 -16.6256 45.8874 -16.7133 45.7445C-16.7011 45.4509 -16.4634 45.8513 -16.5624 45.4737C-16.7011 45.4509 -16.9003 45.1385 -16.8878 45.4601C-17.2005 45.413 -16.9381 45.0495 -17.2121 44.9153C-17.0619 44.733 -16.65 45.1557 -16.6874 44.7174C-16.8498 44.8415 -17.0986 44.2945 -17.3 44.5977C-17.299 44.4207 -17.1606 44.3576 -17.0108 44.4377C-16.9726 44.1728 -17.5233 43.9917 -17.1853 43.7991L-17.3974 43.7813C-17.3597 43.6901 -17.3471 43.5731 -17.284 43.4237C-17.3459 43.2213 -17.7464 42.857 -17.4587 42.7843C-17.5087 42.729 -17.6444 42.2658 -17.7824 42.5063C-17.809 42.8304 -17.5337 42.7883 -17.7458 43.0328C-17.5958 42.7618 -17.9069 42.6302 -18.0322 42.4882L-17.9319 42.426C-18.0062 42.3414 -18.0556 42.1076 -18.1932 42.0845C-18.1063 42.1392 -18.045 42.0764 -18.0438 41.9892L-18.2431 41.9399C-18.4551 41.5671 -17.9818 41.7518 -18.1557 41.3784L-17.9315 41.6319C-17.98 41.5761 -17.8682 41.3937 -17.9796 41.2245C-18.1547 41.2014 -18.3799 41.1241 -18.5178 41.1003C-18.6548 40.9026 -18.3789 40.9471 -18.604 40.7818L-18.3304 41.0053C-18.2667 41.0316 -18.1417 40.734 -18.2403 40.4426C-18.3531 40.2726 -18.6656 40.0532 -18.653 40.3751C-18.7026 40.2289 -18.6771 39.9935 -18.529 40.0743C-18.6886 39.7584 -18.6778 40.1704 -18.8647 39.9139C-18.8018 39.7637 -18.7763 39.352 -18.7007 39.0841L-18.3508 39.3016L-18.4131 39.1017C-18.1266 39.294 -18.2999 38.9212 -18.0392 38.9972C-18.0492 38.8503 -18.1757 38.7094 -18.2737 38.5961C-18.4876 39.1047 -18.8864 38.3021 -19.1619 38.5186C-19.423 38.0014 -18.5115 37.9322 -19.1847 37.5221C-19.236 37.6415 -19.5606 37.4502 -19.3597 37.7644C-19.4345 37.4145 -19.7478 37.6354 -19.7474 37.1939C-19.5232 37.4486 -19.533 36.7739 -19.2086 37.1412C-19.3216 37.1461 -19.2104 37.4053 -19.1594 37.4615C-19.0849 37.283 -18.8358 37.3885 -18.948 37.0417C-19.0464 36.8402 -19.1463 36.5519 -19.2955 36.6463C-19.4716 36.7134 -19.1718 36.9636 -19.3965 36.8865C-19.5952 36.4848 -19.3457 36.3267 -19.7194 36.2545C-19.6088 36.5131 -19.7716 36.6392 -19.8956 36.6742L-20.0705 36.3883L-19.9321 36.41C-20.0071 35.8858 -20.1954 36.3333 -20.3193 35.8414L-20.1572 35.5399C-19.9181 35.5893 -20.0207 36.269 -19.719 36.0768C-19.8063 35.7595 -20.0076 35.7101 -20.0178 35.3873C-19.9682 35.444 -19.9311 35.5309 -19.8808 35.5862C-19.9061 35.4704 -19.5054 35.2177 -19.9056 34.8542C-20.0796 34.656 -20.0428 34.8313 -20.1678 34.8655C-20.3677 34.3754 -20.5417 34.2664 -20.6656 33.9487C-20.403 33.9373 -20.8274 33.3697 -20.4656 33.6471C-20.5532 33.8573 -20.3049 34.5791 -20.0173 34.6828C-19.7916 34.4077 -19.9298 35.0899 -19.606 35.1048C-19.73 34.6997 -19.4427 34.6283 -19.2796 34.504C-19.303 34.388 -19.4156 34.3048 -19.4661 34.2477C-19.6547 34.2567 -19.6048 34.4016 -19.7804 34.4677C-19.8787 34.0031 -20.1156 33.6016 -20.3638 33.4082C-20.3267 33.2305 -20.1387 33.222 -20.0646 33.3943C-20.2888 32.8762 -20.45 32.2969 -20.5617 31.7725C-20.738 32.1919 -20.8115 31.2274 -20.9737 31.5273C-20.949 31.8199 -21.0747 32.119 -21.25 32.0099C-21.2866 31.8337 -21.1244 31.9752 -21.0871 31.8849C-21.3114 31.7182 -20.9487 31.468 -21.2608 31.3344C-21.0116 31.7933 -20.8857 31.3182 -20.6352 31.3361C-20.874 31.0244 -20.4729 31.3001 -20.5854 30.9522C-20.8222 30.6406 -21.0586 30.2409 -21.2326 29.866C-21.1811 29.3083 -21.6301 28.6235 -21.7802 28.1885C-21.7424 27.9234 -21.4417 27.9973 -21.4788 27.7349C-21.578 27.4453 -21.6792 28.039 -21.7039 27.5696L-21.6406 27.5949C-21.7411 27.4836 -21.7267 26.7486 -22.1277 26.7368L-21.8131 26.7824C-21.8146 26.6942 -21.9008 26.6392 -21.951 26.5819C-21.8639 26.5503 -21.8139 26.4305 -21.7139 26.5428C-21.6132 26.2159 -21.9249 25.993 -22.026 25.7059L-22.126 25.9443C-22.4121 25.4887 -22.3609 25.1055 -22.5717 24.6443L-22.41 24.6077L-22.5961 24.3528C-22.4218 24.373 -22.408 24.0797 -22.5842 23.9701L-21.9599 24.5876C-21.986 24.8236 -22.2224 24.4239 -22.3353 24.6031C-22.4347 24.7564 -22.2489 25.1869 -22.0745 25.2099C-22.1121 25.0344 -22.1492 25.037 -22.2484 24.9237C-22.0479 24.7967 -21.9733 25.0575 -21.7862 25.1381C-21.8238 25.0522 -21.7982 24.904 -21.8734 24.9072C-21.7101 25.0471 -21.6363 25.2183 -21.5372 25.508C-21.686 25.3379 -21.6377 25.6589 -21.7245 25.6045C-21.5244 25.5656 -21.3757 25.8248 -21.3129 26.2016C-21.4519 26.5308 -20.9516 26.8315 -20.8776 27.2684C-21.1269 27.1622 -21.3528 26.9968 -21.5138 26.7685C-21.5273 27.0618 -21.4143 27.0581 -21.4278 27.3525C-21.2413 27.4322 -20.9894 27.4508 -20.7905 27.7637L-20.9282 27.8286C-20.7551 28.115 -20.542 28.0461 -20.4546 28.4529C-20.3067 29.151 -20.0821 29.8453 -19.9335 30.3665L-20.0706 30.4323C-19.671 30.6197 -19.6483 31.3512 -19.3871 31.6924C-19.3127 32.3939 -18.7889 33.0744 -18.9271 33.4909C-18.4423 34.614 -18.0068 35.5919 -17.6713 36.8094L-17.9453 36.6752C-17.7222 36.8408 -18.0201 36.8538 -17.9216 37.0546C-17.8328 36.7585 -17.6104 37.2769 -17.4345 37.3845C-17.4238 37.9714 -17.0252 38.6005 -16.7255 39.027L-16.8632 39.0918C-16.4387 39.4835 -16.4901 40.1318 -16.3412 40.7424C-16.3784 40.8303 -16.4787 40.9819 -16.405 41.1543C-16.0681 41.4031 -16.03 41.5776 -15.7314 42.0053C-15.6194 42.3518 -15.4951 42.9331 -15.4715 43.3144C-14.7238 44.5132 -14.5012 45.9122 -13.8669 47.204L-14.004 47.3566C-13.2184 48.554 -13.0231 50.2762 -12.4755 51.3383L-12.799 51.3233C-12.7741 51.7035 -12.464 52.1004 -12.2884 51.9447C-12.2625 52.3257 -11.8637 52.7792 -12.0285 53.0796C-11.965 53.4574 -11.7527 53.4779 -11.617 53.7647C-11.4929 54.5217 -11.3812 54.7815 -11.1075 55.4439L-11.144 55.2696C-11.2315 55.2154 -11.3564 55.2484 -11.32 55.4239C-11.1581 55.6514 -11.0957 56.3822 -10.8334 56.0183C-10.7978 56.8089 -10.1236 57.6597 -10.1638 58.4529C-10.0887 58.3622 -10.0133 58.5349 -9.92573 58.5894C-9.71582 59.2252 -9.69063 59.957 -9.36655 60.414C-9.38077 60.5308 -9.57835 60.3042 -9.50472 60.567C-9.4193 60.709 -9.38077 60.5308 -9.26692 60.7027C-8.75753 61.6783 -8.77217 62.8515 -8.42288 63.7757C-7.70169 65.3856 -7.23048 67.1558 -6.68295 68.7449L-6.75791 68.7488C-6.32073 69.1989 -6.62247 70.0924 -6.08653 70.3909C-6.11185 70.5387 -5.96133 70.8844 -6.12485 70.8333C-5.80042 71.1995 -5.91458 72.0843 -5.47856 72.6239C-5.49015 72.5651 -5.51471 72.5375 -5.56597 72.4817C-5.51695 73.1531 -5.1304 73.6352 -5.056 74.3367C-5.10724 74.2798 -5.16845 74.1655 -5.24328 74.1686C-5.2937 74.4648 -4.75686 74.6754 -5.0455 74.9228C-4.99527 75.0672 -4.84456 74.9724 -4.88343 74.886C-4.5476 76.3669 -3.83841 77.8334 -3.27831 79.3054C-3.13054 80.4429 -3.81808 79.5523 -3.29587 80.3185C-3.33796 80.4084 -3.15232 80.3272 -3.21709 80.3615C-3.01814 80.6587 -3.42459 80.9915 -3.17617 81.1625C-3.00194 81.0026 -3.01299 81.2767 -2.88648 81.2436C-2.80711 81.9423 -2.94928 82.1337 -2.62647 82.6012L-2.74665 82.5971C-2.24636 83.1057 -2.18185 83.8612 -1.66517 84.2598C-0.519209 87.5857 0.713062 90.7301 1.80854 93.9798C2.78464 97.2266 3.96362 100.333 4.8366 103.668C4.80125 104.527 4.82769 104.582 5.21521 105.388C5.15822 105.369 5.13079 105.319 5.10628 105.39C5.35147 105.357 5.3198 105.976 5.5678 105.985C5.91592 107.21 6.33991 108.305 6.74455 109.55C6.65602 109.361 6.43439 109.324 6.52526 109.553L6.75251 109.75L6.70092 109.81C6.78698 109.959 6.95783 110.097 6.9787 109.908C8.19146 112.973 8.72145 116.202 9.76969 119.249C9.90814 120.008 10.3323 121.015 10.6355 121.791C11.084 124.235 11.5174 126.429 12.5045 128.74C12.5031 128.74 11.8027 128.623 11.3464 127.685Z" fill="#82C6DD"/>
<path d="M13.02 11.576C12.8465 11.2017 12.9063 11.8446 12.857 11.3477C12.9572 11.3735 13.0452 11.4279 13.02 11.576Z" fill="#82C6DD"/>
<path d="M46.7409 116.238C45.7953 115.159 45.8065 113.329 45.0177 112.067C44.9428 111.913 45.3268 112.013 45.1381 111.672C44.2883 110.476 43.8598 108.296 43.6583 106.569L43.7732 106.641C43.7337 106.312 43.3353 106.024 43.268 105.684C43.3227 105.663 43.3808 105.763 43.4319 105.663C43.2382 105.634 43.1634 105.096 42.9939 104.997C43.0175 104.846 43.1541 104.817 43.1732 104.626L42.9221 104.5C42.301 104.125 42.5447 103.224 42.0808 102.588C42.1362 102.608 42.1932 102.667 42.2177 102.597C41.5736 101.545 41.1631 100.1 40.6492 98.8565C40.7328 98.8853 40.8709 98.8931 40.922 98.7937C40.7014 98.7954 40.5229 98.4177 40.373 98.0885C40.5296 97.8678 39.995 97.5626 39.9793 97.1248L40.0363 97.1439C39.7245 96.9171 40.0182 96.6638 39.6817 96.5068L39.783 96.2664C39.4503 96.2302 39.7947 95.7889 39.5682 95.5912L39.5109 95.6183C39.3654 95.4101 39.4719 95.2428 39.3542 95.0443L39.3816 95.0132C39.1425 94.5362 39.2099 94.1919 38.9877 94.2774C39.1117 94.043 39.2274 94.737 39.4022 94.3756C38.6349 92.7997 38.1298 91.0831 37.5885 89.4224C37.6184 89.2043 37.6071 89.0751 37.679 89.0049C37.5798 88.854 37.4354 88.3929 37.2709 88.2796C37.2931 88.3338 37.3519 88.1349 37.3349 88.0435C37.3227 87.7132 36.979 87.7939 36.9732 87.4291C37.0764 87.5415 37.1638 87.5629 37.2341 87.4913C36.9658 87.2649 36.8714 86.8776 36.7058 86.5613C36.7609 86.601 36.8097 86.6747 36.8768 86.6389C36.5581 86.3378 36.7032 85.9574 36.4727 85.6774L36.6426 85.7553C36.6344 85.1872 36.3197 85.6913 36.2691 85.2143C36.3451 85.3081 36.3842 85.2537 36.4436 85.256C36.0707 84.9165 35.9313 84.2172 35.7164 83.827C35.7425 83.8459 35.7758 83.8281 35.7758 83.8281C35.5996 83.3847 35.5205 82.8876 35.2557 82.4229C35.2555 82.2228 35.5945 82.379 35.3913 81.915C35.134 82.0177 35.0199 81.1364 34.8144 81.5152C34.7251 81.0917 34.6141 80.4123 34.4366 80.1682C34.5963 80.3199 34.6931 79.8648 34.8257 80.1976L34.9014 79.8889C35.0214 79.8924 34.9506 80.1654 35.0598 80.0402C34.9943 79.8726 34.7292 79.4095 34.7227 79.2431C34.4592 78.9796 34.0652 78.7864 33.8665 78.2854C34.0469 78.4929 34.1117 78.0549 34.21 78.2041L33.4759 77.653C33.4084 77.4868 33.6712 77.5488 33.523 77.325C33.4575 77.3606 33.3804 77.2671 33.2999 77.2103C33.309 77.137 33.0056 76.524 33.24 76.3665C33.3178 76.2589 33.3846 76.6262 33.4153 76.4079C33.3107 76.0942 33.2182 76.1093 33.1126 75.7959L33.1453 75.7787C33.1164 75.5586 32.837 75.2025 32.7674 75.4744C32.8056 75.6215 32.905 75.3693 32.8991 75.6073C32.7015 75.5098 32.5416 75.1581 32.4371 74.8447C32.5139 74.9383 32.5783 74.903 32.6656 74.9225C32.3254 74.5658 32.1166 74.1388 31.8791 73.6945C31.7535 73.7269 32.1596 73.7981 32.1169 73.8885C32.0916 73.2286 31.4714 72.7181 31.5578 72.1342C31.6064 72.2096 31.3978 72.2353 31.4303 72.2185C31.3516 71.9222 31.5339 71.8777 31.4064 71.7094C31.5051 71.6568 31.296 71.4816 31.2009 71.2966C31.0922 71.2203 31.2354 71.2291 31.3021 71.3956C31.1249 71.1523 30.612 70.1149 30.5611 69.4367C30.4957 69.4712 30.182 69.132 30.1432 68.9855L30.3236 68.9897C30.3775 68.8264 30.1527 68.5098 30.2837 68.4408C29.9873 68.1954 30.8361 69.5761 30.5484 69.2074C30.6487 69.0558 30.1026 68.7089 30.3523 68.7279C30.2525 68.4388 29.9793 68.2164 30.041 67.8899C30.0409 67.9791 30.3412 68.0532 30.2544 67.8221C30.0919 67.4188 30.1392 67.7295 29.9768 67.4123L29.8428 67.2238C29.6807 67.2606 29.7446 66.8478 29.6181 67.0584C29.7319 66.9657 29.344 66.484 29.6192 66.4419L29.8434 66.4328C29.7705 66.2593 29.5319 66.2106 29.3953 66.1C29.4072 66.0703 29.433 66.01 29.4696 66.0083C29.1454 66.0815 29.358 65.5737 29.046 65.4405C29.0342 65.0307 28.7479 64.4861 28.8874 64.2455C28.6988 63.9887 28.5003 63.7628 28.462 63.4124C28.5126 63.4684 28.5509 63.5553 28.6248 63.5517C28.6509 63.3158 28.5512 63.2917 28.4394 63.1199C28.5001 63.1468 28.4901 62.6481 28.5279 62.3829C28.3412 62.1274 28.2031 62.2804 28.0897 62.2854C28.3159 61.9233 27.6284 61.5429 27.8041 61.1241C27.8793 61.2092 28.0916 61.492 28.0929 61.2289C28.3183 60.8671 27.6927 60.7758 27.7057 60.306L27.4812 60.4932C27.5805 60.2538 27.1313 59.921 27.4081 59.8788C27.2693 59.7677 27.3323 59.3545 27.0961 59.4825C27.0849 58.7211 26.4235 57.84 26.7363 57.2685C26.6621 57.1831 26.6252 56.9214 26.512 57.0139C26.4252 57.2241 26.6871 57.2118 26.6109 57.304C26.5744 57.2177 26.4995 57.2204 26.4617 57.2221C26.4497 56.9879 26.413 56.8129 26.688 56.9487C26.6889 56.4196 26.1007 56.5929 26.0018 55.9522C26.1147 55.9461 26.1394 55.8869 26.0651 55.7139L25.7773 55.4333C25.6912 55.0257 25.9417 55.1331 26.1151 55.066C26.0166 54.8653 25.942 54.6044 25.7791 54.5516L25.9182 54.2239C25.8178 54.4621 25.756 54.0849 25.6804 53.9999L25.756 54.0849C25.8177 54.0219 25.693 53.7933 25.6313 53.6776C25.5312 53.7416 25.5674 54.0047 25.5799 54.1508C25.4675 54.0679 25.4315 53.895 25.2941 53.782C25.4824 53.7731 25.3062 53.3988 25.2701 53.2256C25.2455 53.0213 25.0448 53.0596 25.033 53.0013C25.1213 52.9672 24.9465 52.6829 25.1205 52.792C25.1704 52.8482 25.0815 52.9699 25.1955 53.0527C25.2214 52.9044 25.3823 52.8688 25.1837 52.6429C25.0341 52.4728 24.8586 52.804 24.8466 52.3935C24.9217 52.4782 24.9966 52.474 25.0832 52.5304L25.0595 52.1499L24.8972 52.1859C24.9218 52.1256 24.9458 52.1538 24.9599 52.125C24.7602 52.0743 24.7355 51.6049 24.5232 51.5856C24.4495 51.4132 24.5115 51.177 24.4747 51.0017L24.499 51.0297C24.5248 50.7927 24.3746 50.5375 24.2122 50.3978L24.2495 50.3959C24.2253 50.2789 24.1142 50.0198 23.9757 49.9082C24.0021 49.5838 24.5394 49.6195 24.2392 49.3679C24.1401 49.0798 23.8034 49.0069 23.7403 49.1563C23.6784 48.6009 23.2298 48.0927 23.3183 47.5309C23.2304 47.4768 23.2057 47.5368 23.1186 47.3946C22.9334 46.6093 22.4095 45.8401 22.5223 45.1312C22.6602 45.3317 22.6846 45.0952 22.773 45.0615C22.573 44.9241 22.8485 44.7943 22.5851 44.8068C22.4488 44.8712 22.3734 44.8752 22.3855 45.1094C22.1615 44.678 21.9373 43.9847 21.9883 43.6879C21.9631 43.836 21.8879 43.752 21.8131 43.6659C22.0507 43.6259 21.9766 43.2781 21.8143 43.0495L21.6639 43.0582L21.7527 42.847C21.6768 42.7632 21.4276 42.8329 21.4789 42.5371C21.5281 42.5068 21.578 42.4746 21.6022 42.4156C21.4041 42.1884 21.0923 41.8795 21.1166 41.5558L21.2431 41.2565C21.1813 41.1416 20.9935 40.9756 21.0046 41.2093C20.9687 40.6826 20.8822 40.3631 21.0067 40.152C20.309 39.45 19.8978 38.2366 19.6127 37.2499L19.7257 37.245C19.7378 36.9514 19.5005 37.1677 19.5131 36.9611C19.6393 37.0142 19.6629 36.6918 19.851 36.8589C19.839 36.4484 19.5152 36.4335 19.3892 36.2045C19.2414 36.2117 19.5397 36.3724 19.3517 36.3812C19.2894 36.3552 19.29 35.8277 19.0651 35.8359C19.1154 35.7157 19.2909 35.7398 19.3904 35.7635L19.2165 35.5665C19.3665 35.2084 19.8527 36.0663 20.0538 35.6764L19.9532 35.4752C20.1036 35.2042 20.3775 35.9557 20.2795 35.4013C20.1035 35.2038 19.7415 35.1035 19.7169 35.3382C19.5051 34.8778 19.1543 35.275 19.0046 34.7542C19.0801 34.5742 19.167 35.1572 19.3048 35.0031C19.3923 34.7067 19.0545 34.5458 19.0428 34.3115C19.0425 34.5763 18.7689 34.4411 18.6812 34.2982C18.6934 34.0046 18.9312 34.4051 18.8321 34.0274C18.6934 34.0046 18.4942 33.6922 18.5068 34.0138C18.1941 33.9667 18.4565 33.6032 18.1824 33.469C18.3326 33.2867 18.7445 33.7094 18.7072 33.2711C18.5448 33.3952 18.296 32.8482 18.0946 33.1514C18.0956 32.9744 18.2339 32.9113 18.3837 32.9914C18.422 32.7265 17.8712 32.5454 18.2092 32.3528L17.9971 32.335C18.0349 32.2439 18.0474 32.1268 18.1105 31.9774C18.0486 31.775 17.6482 31.4108 17.9358 31.3381C17.8859 31.2827 17.7502 30.8195 17.6121 31.06C17.5856 31.3841 17.8609 31.342 17.6487 31.5865C17.7987 31.3155 17.4876 31.1839 17.3623 31.0419L17.4626 30.9797C17.3884 30.8951 17.3389 30.6613 17.2013 30.6382C17.2882 30.6929 17.3496 30.6301 17.3507 30.5429L17.1514 30.4936C16.9394 30.1209 17.4127 30.3055 17.2388 29.9322L17.4631 30.1857C17.4145 30.1298 17.5264 29.9474 17.415 29.7782C17.2398 29.7551 17.0146 29.6778 16.8768 29.654C16.7397 29.4563 17.0156 29.5008 16.7906 29.3355L17.0642 29.559C17.1278 29.5853 17.2528 29.2877 17.1543 28.9963C17.0415 28.8263 16.7289 28.6069 16.7415 28.9288C16.6919 28.7826 16.7174 28.5472 16.8655 28.628C16.7059 28.3121 16.7168 28.7241 16.5298 28.4676C16.5927 28.3175 16.6183 27.9058 16.6938 27.6378L17.0437 27.8553L16.9814 27.6554C17.268 27.8477 17.0946 27.4749 17.3553 27.5509C17.3454 27.404 17.2189 27.2631 17.1208 27.1498C16.9069 27.6584 16.5082 26.8558 16.2326 27.0723C15.9715 26.5551 16.8831 26.4859 16.2098 26.0758C16.1585 26.1952 15.8339 26.0039 16.0348 26.3181C15.96 25.9682 15.6468 26.1891 15.6471 25.7476C15.8713 26.0023 15.8615 25.3276 16.1859 25.695C16.073 25.6998 16.1842 25.959 16.2352 26.0152C16.3096 25.8367 16.5587 25.9423 16.4466 25.5954C16.3481 25.3939 16.2483 25.1056 16.099 25.2C15.9229 25.2671 16.2227 25.5173 15.998 25.4403C15.7993 25.0385 16.0488 24.8805 15.6752 24.8082C15.7858 25.0668 15.6229 25.1929 15.4989 25.2279L15.324 24.9421L15.4624 24.9638C15.3875 24.4395 15.1991 24.8871 15.0752 24.3951L15.2373 24.0937C15.4765 24.143 15.3738 24.8228 15.6756 24.6306C15.5882 24.3132 15.3869 24.2638 15.3768 23.941C15.4264 23.9977 15.4635 24.0846 15.5138 24.1399C15.4885 24.0242 15.8891 23.7714 15.4889 23.4079C15.315 23.2097 15.3518 23.385 15.2268 23.4192C15.0268 22.9291 14.8528 22.8201 14.729 22.5024C14.9915 22.491 14.5671 21.9234 14.9289 22.2008C14.8413 22.411 15.0896 23.1328 15.3772 23.2365C15.6029 22.9614 15.4647 23.6437 15.7885 23.6586C15.6645 23.2534 15.9518 23.182 16.1149 23.0577C16.0915 22.9418 15.979 22.8585 15.9284 22.8014C15.7398 22.8104 15.7898 22.9553 15.6142 23.0214C15.5159 22.5568 15.2789 22.1553 15.0307 21.9619C15.0678 21.7842 15.2559 21.7757 15.3299 21.948C15.1057 21.4299 14.9446 20.8506 14.8328 20.3262C14.6565 20.7456 14.583 19.7811 14.4209 20.081C14.4455 20.3736 14.3198 20.6727 14.1446 20.5636C14.1079 20.3874 14.2702 20.5289 14.3074 20.4386C14.0831 20.2719 14.4459 20.0217 14.1337 19.8881C14.383 20.347 14.5088 19.8719 14.7593 19.8898C14.5205 19.5781 14.9216 19.8538 14.8091 19.5059C14.5723 19.1943 14.3359 18.7946 14.1619 18.4197C14.2134 17.862 13.7644 17.1772 13.6144 16.7422C13.6522 16.4771 13.9529 16.551 13.9157 16.2886C13.8165 15.999 13.7153 16.5927 13.6906 16.1234L13.7539 16.1486C13.6534 16.0373 13.6679 15.3023 13.2669 15.2905L13.5815 15.3362C13.5799 15.2479 13.4937 15.1929 13.4435 15.1357C13.5306 15.104 13.5806 14.9842 13.6807 15.0965C13.7813 14.7696 13.4696 14.5467 13.3686 14.2596L13.2686 14.498C12.9825 14.0424 13.0337 13.6592 12.8228 13.1981L12.9845 13.1614L12.7985 12.9065C12.9727 12.9267 12.9865 12.6334 12.8104 12.5238L13.4346 13.1413C13.4085 13.3773 13.1721 12.9776 13.0592 13.1568C12.9599 13.3101 13.1456 13.7406 13.32 13.7636C13.2824 13.5881 13.2453 13.5907 13.1461 13.4774C13.3466 13.3504 13.4212 13.6112 13.6083 13.6919C13.5708 13.6059 13.5963 13.4577 13.5211 13.4609C13.6844 13.6008 13.7582 13.772 13.8573 14.0617C13.7085 13.8917 13.7568 14.2126 13.67 14.1582C13.8701 14.1193 14.0188 14.3785 14.0817 14.7553C13.9426 15.0845 14.4429 15.3852 14.5169 15.8221C14.2676 15.7159 14.0417 15.5505 13.8807 15.3223C13.8673 15.6155 13.9802 15.6118 13.9668 15.9062C14.1532 15.9859 14.4051 16.0045 14.604 16.3174L14.4663 16.3823C14.6395 16.6687 14.8525 16.5998 14.9399 17.0067C15.0878 17.7047 15.3124 18.3991 15.461 18.9202L15.3239 18.986C15.7235 19.1734 15.7462 19.9049 16.0075 20.2462C16.0819 20.9476 16.6057 21.6281 16.4675 22.0446C16.9523 23.1677 17.3878 24.1457 17.7232 25.3632L17.4492 25.229C17.6724 25.3945 17.3744 25.4076 17.473 25.6083C17.5617 25.3122 17.7841 25.8306 17.96 25.9383C17.9708 26.5251 18.3693 27.1542 18.6691 27.5807L18.5313 27.6456C18.9559 28.0372 18.9044 28.6856 19.0534 29.2961C19.0161 29.384 18.9158 29.5356 18.9896 29.708C19.3265 29.9568 19.3645 30.1313 19.6631 30.559C19.7752 30.9055 19.8994 31.4868 19.9231 31.8682C20.6708 33.0669 20.8934 34.466 21.5277 35.7577L21.3905 35.9103C22.1761 37.1077 22.3715 38.8299 22.919 39.892L22.5956 39.877C22.6204 40.2572 22.9305 40.6541 23.1061 40.4984C23.132 40.8794 23.5308 41.3329 23.366 41.6333C23.4296 42.0111 23.6418 42.0316 23.7776 42.3184C23.9016 43.0754 24.0133 43.3352 24.287 43.9976L24.2506 43.8233C24.1631 43.7691 24.0381 43.8021 24.0745 43.9776C24.2364 44.2051 24.2988 44.9359 24.5611 44.572C24.5967 45.3626 25.271 46.2134 25.2308 47.0066C25.3058 46.9159 25.3812 47.0886 25.4688 47.1431C25.6787 47.7789 25.7039 48.5108 26.028 48.9677C26.0138 49.0845 25.8162 48.8579 25.8898 49.1207C25.9752 49.2627 26.0138 49.0845 26.1276 49.2564C26.637 50.232 26.6224 51.4052 26.9717 52.3294C27.6928 53.9393 28.1641 55.7095 28.7116 57.2986L28.6366 57.3025C29.0738 57.7526 28.7721 58.6461 29.308 58.9446C29.2827 59.0924 29.4332 59.4381 29.2697 59.387C29.5941 59.7532 29.48 60.638 29.916 61.1776C29.9044 61.1188 29.8798 61.0912 29.8286 61.0354C29.8776 61.7068 30.2641 62.1889 30.3385 62.8904C30.2873 62.8335 30.2261 62.7192 30.1513 62.7223C30.1008 63.0185 30.6377 63.2291 30.349 63.4765C30.3993 63.6209 30.55 63.5261 30.5111 63.4397C30.8469 64.9206 31.5561 66.3871 32.1162 67.8592C32.264 68.9966 31.5764 68.106 32.0987 68.8722C32.0566 68.9621 32.2422 68.8809 32.1774 68.9152C32.3764 69.2124 31.9699 69.5452 32.2184 69.7162C32.3926 69.5563 32.3815 69.8304 32.5081 69.7973C32.5874 70.496 32.4453 70.6874 32.7681 71.1549L32.6479 71.1508C33.1482 71.6594 33.2127 72.4149 33.7294 72.8135C34.8753 76.1395 36.1076 79.2839 37.2031 82.5335C38.1792 85.7803 39.3581 88.8868 40.2311 92.2221C40.1958 93.081 40.2222 93.1362 40.6097 93.9417C40.5528 93.9226 40.5253 93.8728 40.5008 93.9433C40.746 93.9109 40.7143 94.5298 40.9623 94.5387C41.3104 95.7639 41.7344 96.8586 42.1391 98.1038C42.0506 97.9146 41.8289 97.8772 41.9198 98.1063L42.147 98.3037L42.0955 98.3641C42.1815 98.513 42.3524 98.6509 42.3732 98.4615C43.586 101.526 44.116 104.756 45.1642 107.803C45.3027 108.562 45.7269 109.569 46.0301 110.345C46.4785 112.789 46.912 114.983 47.899 117.294C47.8976 117.293 47.1973 117.177 46.7409 116.238Z" fill="#82C6DD"/>
<path d="M13.1993 12.0373C13.1103 12.1584 13.135 12.4514 12.9094 12.2843C13.0097 12.2222 13.0864 12.0422 13.1993 12.0373Z" fill="#82C6DD"/>
<path d="M14.3578 19.703C14.3952 19.7011 14.3443 19.8219 14.3323 19.8512C14.2947 19.764 14.1696 19.7119 14.2073 19.6207C14.2456 19.7088 14.2956 19.6773 14.3578 19.703Z" fill="#82C6DD"/>
<path d="M14.8882 21.5855C14.7755 21.5911 14.5653 21.2193 14.4766 20.9884L14.8882 21.5855Z" fill="#82C6DD"/>
<path d="M15.0217 23.4577C14.9831 23.6349 14.9222 23.6088 14.8601 23.4074C14.91 23.3753 14.9588 23.4326 15.0217 23.4577Z" fill="#82C6DD"/>
<path d="M15.2987 23.505C15.3475 23.6487 15.3097 23.7395 15.2737 23.8289C15.3603 23.7947 15.1099 23.5133 15.2987 23.505Z" fill="#82C6DD"/>
<path d="M16.2157 27.3661C16.2532 27.454 16.4025 27.6219 16.3148 27.7437C16.3646 27.6232 16.0414 27.3455 16.2157 27.3661Z" fill="#82C6DD"/>
<path d="M16.9373 29.0659C16.9488 29.1244 16.9372 29.1534 16.9872 29.2095C16.9738 29.3277 16.8634 29.2433 16.8253 29.1593L16.9373 29.0659Z" fill="#82C6DD"/>
<path d="M27.6501 60.7781L27.5391 60.6066L27.6493 60.6016L27.6501 60.7781Z" fill="#82C6DD"/>
<path d="M32.1707 74.7334C32.2961 74.9003 32.1166 74.8954 32.1115 74.9313C32.0461 74.7652 32.2584 74.9529 32.1707 74.7334Z" fill="#82C6DD"/>
<path d="M35.1184 82.0911L35.0977 82.0353L35.3135 81.9868L35.1184 82.0911Z" fill="#82C6DD"/>
<path d="M59.2606 35.8568C59.6346 35.6834 58.992 35.7431 59.489 35.6938C59.4631 35.794 59.4087 35.882 59.2606 35.8568Z" fill="#82C6DD"/>
<path d="M-45.3994 69.5733C-44.3198 68.6276 -42.4906 68.6388 -41.2277 67.8501C-41.0745 67.7751 -41.1739 68.1591 -40.8334 67.9704C-39.6368 67.1206 -37.4572 66.6921 -35.7304 66.4906L-35.8019 66.6056C-35.473 66.5661 -35.1852 66.1677 -34.8453 66.1004C-34.8245 66.155 -34.9245 66.2132 -34.824 66.2643C-34.7955 66.0706 -34.2572 65.9958 -34.1584 65.8262C-34.0077 65.8498 -33.978 65.9864 -33.7869 66.0055L-33.6609 65.7545C-33.2863 65.1333 -32.3854 65.3772 -31.7497 64.9132C-31.7697 64.9685 -31.8286 65.0255 -31.7585 65.0501C-30.7061 64.406 -29.2615 63.9955 -28.018 63.4816C-28.0469 63.5652 -28.0546 63.7034 -27.9552 63.7545C-27.957 63.5338 -27.5792 63.3553 -27.25 63.2055C-27.0294 63.362 -26.7241 62.8275 -26.2863 62.8117L-26.3054 62.8687C-26.0786 62.5569 -25.8253 62.8507 -25.6683 62.5142L-25.428 62.6155C-25.3917 62.2828 -24.9504 62.6272 -24.7531 62.4007L-24.7802 62.3435C-24.572 62.1979 -24.4047 62.3045 -24.2062 62.1867L-24.1751 62.2142C-23.6981 61.9751 -23.3538 62.0424 -23.4393 61.8203C-23.2049 61.9442 -23.8989 62.06 -23.5375 62.2347C-21.9619 61.4676 -20.245 60.9624 -18.5843 60.421C-18.3662 60.451 -18.237 60.4397 -18.1668 60.5116C-18.0159 60.4124 -17.5548 60.2679 -17.4415 60.1035C-17.4957 60.1257 -17.2968 60.1845 -17.2054 60.1675C-16.8751 60.1552 -16.9558 59.8115 -16.591 59.8057C-16.7034 59.9089 -16.7248 59.9964 -16.6532 60.0667C-16.4268 59.7984 -16.0394 59.704 -15.7232 59.5384C-15.7629 59.5934 -15.8366 59.6423 -15.8008 59.7093C-15.4997 59.3907 -15.1193 59.5358 -14.8392 59.3053L-14.9172 59.4752C-14.3491 59.467 -14.8532 59.1523 -14.3762 59.1016C-14.47 59.1777 -14.4156 59.2168 -14.4179 59.2762C-14.0784 58.9033 -13.3791 58.7639 -12.9889 58.549C-13.0078 58.575 -12.99 58.6084 -12.99 58.6084C-12.5466 58.4321 -12.0495 58.3531 -11.5848 58.0883C-11.3847 58.088 -11.5409 58.4271 -11.0769 58.2238C-11.1796 57.9666 -10.2983 57.8524 -10.6771 57.6469C-10.2536 57.5577 -9.57416 57.4466 -9.33014 57.2692C-9.48178 57.4289 -9.02673 57.5257 -9.35951 57.6583L-9.05118 57.7341C-9.05461 57.8541 -9.32769 57.7833 -9.20211 57.8924C-9.03449 57.8268 -8.57136 57.5617 -8.40533 57.5553C-8.14184 57.2919 -7.94868 56.8979 -7.44769 56.6991C-7.65516 56.8796 -7.21711 56.9444 -7.36632 57.0426L-6.81524 56.3085C-6.64901 56.2411 -6.71136 56.504 -6.48724 56.3557C-6.52289 56.2902 -6.42939 56.2131 -6.37221 56.1324C-6.29889 56.1416 -5.68591 55.8382 -5.5284 56.0726C-5.42076 56.1504 -5.78812 56.2172 -5.56985 56.2478C-5.25614 56.1433 -5.27119 56.0508 -4.95782 55.9452L-4.94059 55.9779C-4.72048 55.9489 -4.36439 55.6696 -4.6363 55.6C-4.78345 55.6382 -4.53121 55.7376 -4.76923 55.7317C-4.67171 55.534 -4.31998 55.3741 -4.00663 55.2697C-4.10024 55.3465 -4.06494 55.4109 -4.08443 55.4981C-3.72767 55.158 -3.30069 54.9491 -2.8564 54.7116C-2.88879 54.5861 -2.95996 54.9922 -3.05038 54.9495C-2.3905 54.9241 -1.87996 54.304 -1.29613 54.3904C-1.37149 54.439 -1.39715 54.2303 -1.38039 54.2628C-1.08408 54.1842 -1.03961 54.3665 -0.871322 54.2389C-0.818687 54.3376 -0.643538 54.1285 -0.458481 54.0335C-0.382225 53.9248 -0.39104 54.068 -0.557492 54.1347C-0.314178 53.9575 0.723185 53.4446 1.40141 53.3937C1.36695 53.3282 1.70606 53.0145 1.85262 52.9757L1.84842 53.1561C2.01167 53.21 2.32833 52.9853 2.39726 53.1162C2.64271 52.8199 1.26203 53.6687 1.63067 53.381C1.78233 53.4812 2.12918 52.9351 2.11023 53.1848C2.39931 53.0851 2.62173 52.8118 2.94818 52.8736C2.85902 52.8735 2.78492 53.1738 3.01601 53.087C3.41928 52.9245 3.10856 52.9718 3.42585 52.8094L3.61431 52.6754C3.57754 52.5133 3.99031 52.5772 3.77971 52.4506C3.87244 52.5645 4.35407 52.1765 4.39618 52.4518L4.40535 52.676C4.5788 52.6031 4.62751 52.3645 4.73813 52.2279C4.76779 52.2398 4.82813 52.2656 4.8298 52.3022C4.75661 51.978 5.26438 52.1906 5.39763 51.8785C5.80743 51.8668 6.35238 51.5803 6.59261 51.72C6.84944 51.5314 7.0753 51.3329 7.4257 51.2946C7.36973 51.3452 7.28281 51.3834 7.28638 51.4573C7.52235 51.4835 7.54641 51.3838 7.71821 51.2719C7.69132 51.3326 8.19003 51.3226 8.45518 51.3604C8.71069 51.1738 8.55772 51.0356 8.55274 50.9223C8.91477 51.1485 9.29523 50.4609 9.71405 50.6367C9.62891 50.7119 9.34612 50.9241 9.60924 50.9254C9.97104 51.1509 10.0623 50.5252 10.5321 50.5383L10.345 50.3138C10.5843 50.4131 10.9171 49.9638 10.9593 50.2406C11.0704 50.1019 11.4836 50.1649 11.3557 49.9287C12.117 49.9174 12.9981 49.256 13.5696 49.5689C13.655 49.4947 13.9167 49.4578 13.8242 49.3446C13.614 49.2578 13.6264 49.5196 13.5341 49.4435C13.6204 49.407 13.6177 49.3321 13.6157 49.2944C13.8499 49.2824 14.0249 49.2457 13.889 49.5207C14.4182 49.5216 14.2448 48.9334 14.8856 48.8345C14.8916 48.9474 14.9508 48.9721 15.1238 48.8978L15.4044 48.61C15.8121 48.5239 15.7047 48.7744 15.7717 48.9478C15.9724 48.8493 16.2333 48.7747 16.2862 48.6118L16.6138 48.7509C16.3757 48.6504 16.7529 48.5887 16.8379 48.5131L16.7529 48.5887C16.8158 48.6504 17.0445 48.5256 17.1602 48.464C17.0961 48.3639 16.833 48.4001 16.6869 48.4126C16.7698 48.3002 16.9427 48.2642 17.0558 48.1268C17.0647 48.315 17.4389 48.1389 17.6122 48.1028C17.8165 48.0782 17.7785 47.8774 17.8365 47.8657C17.8705 47.954 18.1549 47.7791 18.0458 47.9532C17.9896 48.003 17.8678 47.9142 17.785 48.0281C17.9334 48.0541 17.969 48.2149 18.1948 48.0164C18.365 47.8668 18.0338 47.6913 18.4443 47.6793C18.3595 47.7544 18.3638 47.8293 18.3074 47.9159L18.6879 47.8922L18.6518 47.7299C18.7122 47.7545 18.6839 47.7785 18.7128 47.7926C18.7635 47.5929 19.2328 47.5682 19.2521 47.3559C19.4245 47.2822 19.6607 47.3442 19.8361 47.3074L19.808 47.3317C20.045 47.3575 20.3002 47.2073 20.44 47.0448L20.4419 47.0821C20.5588 47.058 20.818 46.9468 20.9296 46.8083C21.254 46.8348 21.2182 47.3721 21.4698 47.0718C21.7579 46.9728 21.8308 46.6361 21.6814 46.573C22.2368 46.5111 22.745 46.0625 23.3068 46.151C23.3609 46.0631 23.3009 46.0383 23.4432 45.9513C24.2285 45.7661 24.9976 45.2422 25.7065 45.355C25.506 45.4929 25.7426 45.5173 25.7762 45.6057C25.9137 45.4057 26.0434 45.6811 26.0309 45.4178C25.9665 45.2814 25.9625 45.2061 25.7283 45.2181C26.1598 44.9942 26.8531 44.77 27.1499 44.821C27.0018 44.7958 27.0857 44.7205 27.1718 44.6458C27.2119 44.8834 27.56 44.8091 27.7883 44.647L27.7795 44.4966L27.9908 44.5854C28.0745 44.5094 28.0049 44.2603 28.3006 44.3116C28.331 44.3608 28.3631 44.4106 28.4222 44.4349C28.6493 44.2368 28.9582 43.925 29.2819 43.9493L29.5812 44.0757C29.6961 44.014 29.8621 43.8262 29.6284 43.8373C30.1551 43.8014 30.4747 43.7149 30.6857 43.8393C31.3878 43.1416 32.6011 42.7305 33.5879 42.4454L33.5928 42.5584C33.8864 42.5705 33.67 42.3332 33.8766 42.3458C33.8236 42.472 34.1459 42.4956 33.9788 42.6837C34.3894 42.6717 34.4043 42.3479 34.6332 42.2219C34.6261 42.0741 34.4653 42.3723 34.4565 42.1844C34.4825 42.1221 35.0101 42.1227 35.0018 41.8978C35.1221 41.9481 35.0979 42.1236 35.0742 42.2231L35.2713 42.0492C35.6294 42.1992 34.7714 42.6854 35.1613 42.8865L35.3625 42.7858C35.6336 42.9363 34.8821 43.2102 35.4364 43.1122C35.634 42.9361 35.7342 42.5742 35.4999 42.5495C35.9603 42.3376 35.5631 41.9868 36.0839 41.8372C36.2639 41.9127 35.6809 41.9995 35.835 42.1374C36.1314 42.2248 36.2923 41.8871 36.5266 41.8754C36.2618 41.875 36.3973 41.6013 36.5399 41.5138C36.8335 41.526 36.433 41.7637 36.8107 41.6647C36.8335 41.526 37.1459 41.3268 36.8243 41.3393C36.8714 41.0266 37.2349 41.289 37.3691 41.015C37.5514 41.1652 37.1287 41.5771 37.567 41.5397C37.4429 41.3774 37.9899 41.1285 37.6867 40.9271C37.8637 40.9281 37.9268 41.0665 37.8467 41.2163C38.1116 41.2545 38.2927 40.7038 38.4853 41.0418L38.5031 40.8297C38.5943 40.8674 38.7113 40.88 38.8607 40.9431C39.0631 40.8812 39.4273 40.4807 39.5 40.7684C39.5554 40.7184 40.0186 40.5827 39.7781 40.4447C39.454 40.4181 39.4961 40.6934 39.2516 40.4813C39.5226 40.6313 39.6542 40.3202 39.7962 40.1949L39.8584 40.2952C39.943 40.2209 40.1768 40.1715 40.1999 40.0338C40.1452 40.1208 40.208 40.1821 40.2952 40.1833L40.3445 39.984C40.7172 39.772 40.5329 40.2452 40.9059 40.0714L40.6525 40.2956C40.7083 40.2471 40.8907 40.3589 41.0599 40.2475C41.083 40.0724 41.1603 39.8472 41.1841 39.7093C41.3818 39.5723 41.3373 39.8482 41.5026 39.6231L41.2791 39.8967C41.2528 39.9604 41.5504 40.0854 41.8418 39.9868C42.0118 39.874 42.2316 39.5613 41.9093 39.5741C42.0558 39.5244 42.2909 39.55 42.2101 39.6981C42.526 39.5385 42.114 39.5493 42.3705 39.3624C42.5207 39.4253 42.9324 39.4508 43.2003 39.5264L42.9828 39.8763L43.1827 39.814C42.9904 40.1005 43.3635 39.9271 43.2876 40.1878C43.4341 40.1779 43.5753 40.0513 43.6887 39.9533C43.1801 39.7394 43.9827 39.3406 43.7661 39.0651C44.2833 38.804 44.3526 39.7155 44.7626 39.0423C44.6432 38.991 44.8346 38.6664 44.5204 38.8673C44.8703 38.7924 44.6494 38.4792 45.0908 38.4795C44.8361 38.7038 45.5108 38.694 45.1435 39.0184C45.1386 38.9054 44.8794 39.0166 44.8232 39.0676C45.0017 39.142 44.8962 39.3912 45.243 39.279C45.4446 39.1806 45.7328 39.0807 45.6384 38.9314C45.5713 38.7553 45.3211 39.0552 45.3982 38.8305C45.7999 38.6318 45.958 38.8813 46.0303 38.5076C45.7717 38.6182 45.6455 38.4553 45.6105 38.3314L45.8964 38.1565L45.8747 38.2948C46.3989 38.2199 45.9514 38.0316 46.4434 37.9077L46.7448 38.0697C46.6955 38.3089 46.0157 38.2062 46.2079 38.508C46.5252 38.4207 46.5747 38.2194 46.8974 38.2092C46.8407 38.2588 46.7538 38.2959 46.6986 38.3462C46.8143 38.3209 47.067 38.7216 47.4305 38.3214C47.6288 38.1474 47.4534 38.1842 47.4193 38.0592C47.9093 37.8593 48.0184 37.6852 48.336 37.5614C48.3475 37.8239 48.915 37.3996 48.6376 37.7614C48.4275 37.6737 47.7056 37.922 47.602 38.2097C47.8771 38.4354 47.1948 38.2972 47.1799 38.621C47.5851 38.497 47.6565 38.7843 47.7808 38.9474C47.8967 38.9239 47.9799 38.8114 48.0371 38.7609C48.0281 38.5722 47.8832 38.6222 47.817 38.4466C48.2817 38.3483 48.6832 38.1114 48.8765 37.8632C49.0543 37.9003 49.0627 38.0883 48.8904 38.1624C49.4086 37.9381 49.9878 37.777 50.5123 37.6653C50.0929 37.489 51.0574 37.4155 50.7575 37.2533C50.4648 37.278 50.1658 37.1523 50.2748 36.977C50.451 36.9404 50.3096 37.1026 50.3998 37.1399C50.5665 36.9155 50.8168 37.2783 50.9503 36.9662C50.4915 37.2154 50.9665 37.3413 50.9486 37.5918C51.2604 37.353 50.9847 37.7541 51.3326 37.6416C51.6442 37.4048 52.0439 37.1684 52.4188 36.9944C52.9765 37.0458 53.6612 36.5969 54.0962 36.4468C54.3614 36.4846 54.2874 36.7853 54.5498 36.7481C54.8395 36.649 54.2458 36.5478 54.7151 36.5231L54.6898 36.5864C54.8012 36.4859 55.5361 36.5003 55.5479 36.0993L55.5023 36.4139C55.5905 36.4124 55.6455 36.3262 55.7028 36.276C55.7345 36.3631 55.8542 36.4131 55.742 36.5131C56.0689 36.6138 56.2918 36.3021 56.5789 36.201L56.3405 36.101C56.796 35.8149 57.1793 35.8661 57.6404 35.6552L57.6771 35.817L57.932 35.6309C57.9117 35.8052 58.2051 35.819 58.3146 35.6428L57.6972 36.2674C57.4613 36.2413 57.861 36.0049 57.6818 35.892C57.5285 35.7927 57.0979 35.9784 57.075 36.1528C57.2504 36.1152 57.2478 36.0781 57.3612 35.9789C57.4882 36.1794 57.2273 36.254 57.1467 36.4411C57.2327 36.4036 57.3809 36.4291 57.3777 36.3539C57.2378 36.5172 57.0666 36.591 56.7769 36.6901C56.9469 36.5413 56.626 36.5896 56.6804 36.5028C56.7193 36.7029 56.4601 36.8516 56.0832 36.9145C55.7541 36.7754 55.4534 37.2757 55.0165 37.3498C55.1227 37.1004 55.2884 36.8744 55.5167 36.7134C55.2234 36.7 55.2271 36.8129 54.9327 36.7995C54.8531 36.9859 54.8344 37.2378 54.5215 37.4367L54.4567 37.299C54.1702 37.4721 54.2391 37.6852 53.8323 37.7726C53.1342 37.9205 52.4395 38.1452 51.9187 38.2937L51.8529 38.1566C51.6658 38.5561 50.934 38.5789 50.5928 38.8402C49.8913 38.9146 49.2108 39.4384 48.7944 39.3002C47.6713 39.7849 46.6933 40.2205 45.4758 40.5559L45.61 40.2819C45.4445 40.5051 45.4314 40.2071 45.2303 40.3058C45.5264 40.3945 45.008 40.6169 44.9003 40.7929C44.3135 40.8036 43.6844 41.2021 43.2579 41.5019L43.193 41.3641C42.8014 41.7887 42.153 41.7372 41.5425 41.8862C41.4546 41.8489 41.3029 41.7486 41.1305 41.8224C40.8818 42.1593 40.7073 42.1973 40.2796 42.4959C39.9331 42.608 39.3517 42.7323 38.9704 42.7559C37.7717 43.5036 36.3726 43.7262 35.0809 44.3605L34.9283 44.2234C33.7308 45.0089 32.009 45.2042 30.9469 45.7517L30.9619 45.4283C30.5818 45.4531 30.1848 45.7632 30.3405 45.9388C29.9595 45.9647 29.506 46.3635 29.2056 46.1987C28.8278 46.2623 28.8073 46.4745 28.5205 46.6103C27.7635 46.7343 27.5038 46.846 26.8413 47.1197L27.0156 47.0833C27.0698 46.9958 27.0368 46.8708 26.8613 46.9072C26.6338 47.0691 25.903 47.1315 26.2669 47.3938C25.4763 47.4294 24.6256 48.1036 23.8323 48.0635C23.923 48.1385 23.7504 48.2139 23.6958 48.3015C23.06 48.5114 22.3282 48.5366 21.8712 48.8607C21.7544 48.8465 21.981 48.6489 21.7183 48.7225C21.5762 48.8079 21.7544 48.8465 21.5825 48.9603C20.6073 49.4696 19.4337 49.4551 18.5099 49.8042C16.8999 50.5254 15.1294 50.9967 13.5407 51.5442L13.5367 51.4692C13.0867 51.9064 12.1932 51.6046 11.8947 52.1406C11.7469 52.1153 11.4011 52.2658 11.4522 52.1023C11.0861 52.4267 10.2013 52.3125 9.6617 52.7485C9.72049 52.737 9.74812 52.7124 9.80386 52.6611C9.13212 52.7103 8.65038 53.0967 7.94889 53.1711C8.00617 53.1197 8.12011 53.0587 8.11701 52.9838C7.82081 52.9334 7.61015 53.4703 7.36278 53.1816C7.21835 53.2318 7.31322 53.3825 7.39955 53.3437C5.91867 53.6795 4.4522 54.3887 2.98013 54.9488C1.843 55.0964 2.73326 54.409 1.96705 54.9312C1.87721 54.8891 1.95834 55.0748 1.92411 55.01C1.62684 55.209 1.29409 54.8025 1.12306 55.0509C1.283 55.2252 1.0089 55.2141 1.042 55.3406C0.343287 55.42 0.151894 55.2778 -0.31563 55.6006L-0.3115 55.4805C-0.820138 55.9808 -1.57564 56.0453 -1.97421 56.5619C-5.29982 57.7078 -8.44458 58.9402 -11.6942 60.0356C-14.941 61.0117 -18.0475 62.1907 -21.3828 63.0637C-22.2418 63.0284 -22.2969 63.0548 -23.1024 63.4423C-23.0833 63.3853 -23.0335 63.3579 -23.104 63.3334C-23.0716 63.5786 -23.6905 63.5469 -23.6991 63.7948C-24.9242 64.1429 -26.0189 64.5669 -27.2641 64.9715C-27.075 64.883 -27.0376 64.6614 -27.2666 64.7523L-27.464 64.9795L-27.5245 64.9279C-27.6734 65.014 -27.8112 65.1848 -27.6219 65.2057C-30.6866 66.4185 -33.9163 66.9484 -36.963 67.9967C-37.7224 68.1351 -38.7294 68.5593 -39.5051 68.8625C-41.9495 69.311 -44.1432 69.7444 -46.4544 70.7315C-46.4545 70.73 -46.3378 70.0296 -45.3994 69.5733Z" fill="#82C6DD"/>
<path d="M58.798 36.031C58.677 35.942 58.384 35.9668 58.551 35.7411C58.6132 35.8414 58.7931 35.9181 58.798 36.031Z" fill="#82C6DD"/>
<path d="M51.1342 37.191C51.1358 37.2284 51.0153 37.1775 50.986 37.1655C51.0728 37.128 51.1253 37.0027 51.2165 37.0405C51.1284 37.0788 51.1598 37.1288 51.1342 37.191Z" fill="#82C6DD"/>
<path d="M49.2554 37.7234C49.2498 37.6106 49.6216 37.4005 49.8525 37.3117L49.2554 37.7234Z" fill="#82C6DD"/>
<path d="M47.3822 37.8577C47.2049 37.8191 47.2307 37.7583 47.4325 37.6961C47.4645 37.746 47.4073 37.7948 47.3822 37.8577Z" fill="#82C6DD"/>
<path d="M47.3357 38.1336C47.192 38.1824 47.1011 38.1445 47.0117 38.1085C47.046 38.1952 47.3274 37.9447 47.3357 38.1336Z" fill="#82C6DD"/>
<path d="M43.4712 39.051C43.3832 39.0884 43.215 39.2378 43.0936 39.15C43.214 39.1998 43.4918 38.8766 43.4712 39.051Z" fill="#82C6DD"/>
<path d="M41.775 39.7717C41.7166 39.7832 41.6876 39.7716 41.6315 39.8216C41.5133 39.8082 41.5976 39.6977 41.6817 39.6597L41.775 39.7717Z" fill="#82C6DD"/>
<path d="M10.0592 50.4862L10.2308 50.3752L10.2358 50.4855L10.0592 50.4862Z" fill="#82C6DD"/>
<path d="M70.7059 71.2474C71.0802 71.0739 70.4373 71.1337 70.9343 71.0844C70.9085 71.1846 70.854 71.2726 70.7059 71.2474Z" fill="#82C6DD"/>
<path d="M-33.9541 104.964C-32.8745 104.018 -31.0453 104.029 -29.7824 103.241C-29.6292 103.166 -29.7286 103.55 -29.3881 103.361C-28.1915 102.511 -26.0119 102.083 -24.2851 101.881L-24.3566 101.996C-24.0277 101.957 -23.7398 101.558 -23.4 101.491C-23.3792 101.546 -23.4792 101.604 -23.3787 101.655C-23.3502 101.461 -22.8119 101.386 -22.7131 101.217C-22.5624 101.24 -22.5327 101.377 -22.3416 101.396L-22.2156 101.145C-21.841 100.524 -20.9399 100.768 -20.3047 100.304C-20.3247 100.359 -20.3837 100.416 -20.3136 100.441C-19.2611 99.7968 -17.8165 99.3863 -16.5727 98.8722C-16.6016 98.9559 -16.6093 99.094 -16.5099 99.1451C-16.5117 98.9244 -16.1339 98.746 -15.8047 98.5961C-15.584 98.7527 -15.2788 98.2181 -14.841 98.2024L-14.8601 98.2594C-14.6333 97.9476 -14.38 98.2413 -14.223 97.9048L-13.9827 98.0061C-13.9464 97.6734 -13.5051 98.0178 -13.3078 97.7914L-13.3349 97.7341C-13.1267 97.5886 -12.9594 97.6951 -12.7609 97.5774L-12.7298 97.6048C-12.2527 97.3657 -11.9085 97.4331 -11.994 97.2109C-11.7596 97.3349 -12.4536 97.4506 -12.0922 97.6254C-10.5162 96.8581 -8.79965 96.353 -7.13896 95.8117C-6.92091 95.8416 -6.79166 95.8303 -6.72149 95.9022C-6.57063 95.803 -6.10952 95.6586 -5.99618 95.4941C-6.05037 95.5163 -5.85152 95.5751 -5.76009 95.5581C-5.4298 95.5459 -5.51047 95.2021 -5.14566 95.1964C-5.2581 95.2996 -5.27947 95.387 -5.20787 95.4573C-4.9815 95.189 -4.59413 95.0946 -4.27787 94.929C-4.31754 94.9841 -4.39125 95.0329 -4.35551 95.0999C-4.05435 94.7813 -3.67396 94.9264 -3.39393 94.6959L-3.47191 94.8658C-2.90382 94.8576 -3.40785 94.5429 -2.93089 94.4922C-3.02473 94.5683 -2.97027 94.6074 -2.97257 94.6668C-2.63304 94.2939 -1.93379 94.1545 -1.54358 93.9396C-1.56251 93.9657 -1.5447 93.999 -1.5447 93.999C-1.10131 93.8228 -0.604215 93.7437 -0.139446 93.4789C0.0606395 93.4787 -0.0955538 93.8177 0.368426 93.6145C0.265694 93.3572 1.14704 93.2431 0.768245 93.0376C1.19168 92.9483 1.87115 92.8373 2.11518 92.6598C1.96353 92.8195 2.41859 92.9163 2.08581 93.0489L2.39413 93.1247C2.3907 93.2447 2.11762 93.1739 2.24321 93.283C2.41082 93.2175 2.87395 92.9524 3.03998 92.946C3.30348 92.6825 3.49663 92.2885 3.99762 92.0898C3.79015 92.2702 4.2282 92.335 4.07899 92.4333L4.63008 91.6992C4.7963 91.6317 4.7343 91.8945 4.95807 91.7463C4.92243 91.6808 5.01592 91.6037 5.07311 91.5231C5.14643 91.5322 5.7594 91.2288 5.91691 91.4632C6.02455 91.541 5.65719 91.6078 5.87547 91.6385C6.18917 91.5339 6.17448 91.4413 6.48749 91.3358L6.50473 91.3685C6.72483 91.3396 7.08093 91.0602 6.80901 90.9906C6.66187 91.0288 6.91411 91.1282 6.67608 91.1223C6.77361 90.9247 7.12533 90.7648 7.43869 90.6603C7.34507 90.7371 7.38037 90.8015 7.36088 90.8887C7.71764 90.5486 8.14462 90.3398 8.58891 90.1023C8.55652 89.9767 8.48536 90.3828 8.39493 90.3401C9.05481 90.3148 9.56535 89.6946 10.1492 89.781C10.0738 89.8296 10.0482 89.621 10.0649 89.6535C10.3612 89.5748 10.4057 89.7571 10.574 89.6296C10.6266 89.7283 10.8018 89.5192 10.9868 89.4241C11.0631 89.3154 11.0543 89.4586 10.8878 89.5253C11.1311 89.3481 12.1685 88.8352 12.8467 88.7843C12.8123 88.7189 13.1514 88.4051 13.2979 88.3664L13.2937 88.5467C13.457 88.6007 13.7736 88.3759 13.8426 88.5069C14.088 88.2105 12.7073 89.0593 13.076 88.7716C13.2276 88.8719 13.5745 88.3258 13.5555 88.5754C13.8446 88.4757 14.067 88.2025 14.3935 88.2642C14.3043 88.2641 14.2302 88.5644 14.4613 88.4776C14.8646 88.3151 14.5539 88.3624 14.8712 88.2L15.06 88.0659C15.0232 87.9038 15.436 87.9677 15.2254 87.8411C15.3181 87.955 15.7997 87.567 15.8419 87.8423L15.851 88.0665C16.0245 87.9936 16.0732 87.755 16.1838 87.6184C16.2135 87.6303 16.2738 87.6561 16.2755 87.6927C16.2023 87.3685 16.7104 87.581 16.8433 87.2691C17.2531 87.2573 17.798 86.9709 18.0383 87.1105C18.2951 86.9219 18.521 86.7234 18.8714 86.6851C18.8154 86.7357 18.7285 86.7739 18.7321 86.8478C18.968 86.874 18.9921 86.7743 19.1639 86.6625C19.137 86.7231 19.6357 86.7132 19.9008 86.7509C20.1564 86.5643 20.0034 86.4261 19.9984 86.3128C20.3604 86.539 20.7409 85.8515 21.1597 86.0272C21.0746 86.1024 20.7918 86.3147 21.0549 86.316C21.4167 86.5414 21.508 85.9157 21.9778 85.9288L21.7906 85.7043C22.0299 85.8036 22.3631 85.3542 22.4049 85.6311C22.516 85.4924 22.9293 85.5554 22.8013 85.3192C23.5627 85.3079 24.4438 84.6465 25.0152 84.9594C25.1007 84.8852 25.3624 84.8483 25.2699 84.7351C25.0597 84.6483 25.072 84.9101 24.9798 84.834C25.0661 84.7975 25.0634 84.7226 25.0613 84.6849C25.2955 84.6729 25.4705 84.6362 25.3347 84.9112C25.8639 84.9121 25.6905 84.3239 26.3316 84.2248C26.3376 84.3378 26.3968 84.3625 26.5698 84.2882L26.8505 84.0004C27.2581 83.9143 27.1507 84.1648 27.2174 84.3383C27.4181 84.2398 27.679 84.1652 27.7318 84.0023L28.0595 84.1414C27.8214 84.041 28.1986 83.9792 28.2836 83.9036L28.1986 83.9792C28.2615 84.0409 28.4901 83.9162 28.6058 83.8545C28.5418 83.7544 28.2787 83.7906 28.1326 83.8031C28.2155 83.6907 28.3884 83.6547 28.5015 83.5173C28.5104 83.7055 28.8846 83.5294 29.0578 83.4933C29.2621 83.4687 29.2242 83.2679 29.2822 83.2562C29.3162 83.3445 29.6005 83.1697 29.4914 83.3437C29.4352 83.3935 29.3135 83.3047 29.2307 83.4187C29.379 83.4446 29.415 83.6053 29.6405 83.4069C29.8106 83.2573 29.4794 83.0818 29.89 83.0698C29.8052 83.1449 29.8095 83.2198 29.753 83.3064L30.1335 83.2827L30.0975 83.1204C30.1578 83.145 30.1296 83.169 30.1581 83.1833C30.2088 82.9835 30.6785 82.9587 30.6974 82.7465C30.8698 82.6728 31.106 82.7348 31.2814 82.698L31.2533 82.7223C31.4903 82.7481 31.7455 82.598 31.8853 82.4355L31.8869 82.4729C32.0038 82.4488 32.263 82.3376 32.3745 82.1991C32.6989 82.2255 32.6632 82.7629 32.9148 82.4626C33.2029 82.3635 33.2758 82.0268 33.1264 81.9637C33.6818 81.9018 34.19 81.4533 34.7518 81.5417C34.8059 81.4538 34.7459 81.4291 34.8881 81.342C35.6734 81.1569 36.4426 80.6329 37.1515 80.7457C36.951 80.8837 37.1875 80.908 37.2212 80.9964C37.3586 80.7964 37.4884 81.0719 37.4759 80.8085C37.4115 80.6722 37.4075 80.5969 37.1733 80.6089C37.6048 80.3849 38.2981 80.1607 38.5948 80.2117C38.4467 80.1865 38.5307 80.1113 38.6168 80.0365C38.6569 80.2741 39.005 80.1999 39.2332 80.0377L39.2245 79.8873L39.4358 79.9761C39.5195 79.9002 39.4498 79.651 39.7456 79.7024C39.7759 79.7516 39.8081 79.8014 39.8671 79.8257C40.0943 79.6275 40.4032 79.3157 40.7269 79.3401L41.0262 79.4665C41.1411 79.4047 41.3071 79.2169 41.0734 79.228C41.6001 79.1921 41.9196 79.1056 42.1307 79.2301C42.8327 78.5324 44.0461 78.1212 45.0328 77.8361L45.0377 77.9491C45.3313 77.9613 45.115 77.7239 45.3216 77.7365C45.2686 77.8627 45.5909 77.8863 45.4238 78.0744C45.8343 78.0625 45.8492 77.7386 46.0782 77.6126C46.0714 77.4647 45.9103 77.7631 45.9015 77.5751C45.9275 77.5128 46.455 77.5134 46.4468 77.2886C46.567 77.3388 46.5429 77.5143 46.5192 77.6139L46.7162 77.4399C47.0743 77.5899 46.2164 78.0761 46.6063 78.2772L46.8075 78.1766C47.0786 78.327 46.327 78.6009 46.8814 78.503C47.0789 78.3269 47.1792 77.9649 46.9449 77.9402C47.4053 77.7284 47.008 77.3776 47.5288 77.2279C47.7088 77.3034 47.1259 77.3903 47.2799 77.5281C47.5764 77.6156 47.7373 77.2778 47.9716 77.2661C47.7068 77.2658 47.8419 76.9922 47.9848 76.9046C48.2784 76.9167 47.878 77.1545 48.2556 77.0554C48.2784 76.9167 48.5909 76.7176 48.2693 76.7301C48.3163 76.4174 48.6799 76.6798 48.8141 76.4057C48.9964 76.5559 48.5737 76.9678 49.0119 76.9305C48.8879 76.7681 49.4349 76.5193 49.1317 76.3179C49.3087 76.3189 49.3718 76.4572 49.2916 76.607C49.5565 76.6453 49.7377 76.0945 49.9303 76.4326L49.948 76.2204C50.0392 76.2582 50.1562 76.2707 50.3057 76.3338C50.5081 76.2719 50.8723 75.8715 50.945 76.1591C51.0004 76.1092 51.4635 75.9735 51.223 75.8354C50.899 75.8089 50.9411 76.0842 50.6966 75.872C50.9675 76.0221 51.0991 75.7109 51.2412 75.5856L51.3033 75.686C51.388 75.6117 51.6218 75.5622 51.6449 75.4246C51.5901 75.5115 51.653 75.5729 51.7401 75.574L51.7894 75.3747C52.1622 75.1627 51.9779 75.6359 52.3509 75.4621L52.0974 75.6864C52.1532 75.6378 52.3356 75.7497 52.5048 75.6383C52.5279 75.4631 52.6052 75.2379 52.6294 75.1C52.8271 74.9629 52.7826 75.2388 52.9479 75.0138L52.7244 75.2874C52.6981 75.351 52.9957 75.476 53.2871 75.3775C53.4571 75.2646 53.6769 74.952 53.3546 74.9647C53.5008 74.9151 53.7362 74.9406 53.6554 75.0887C53.9713 74.9291 53.5593 74.94 53.8158 74.753C53.966 74.8159 54.3777 74.8415 54.6456 74.917L54.4281 75.2669L54.628 75.2046C54.4357 75.4912 54.8088 75.3177 54.7329 75.5784C54.8794 75.5685 55.0206 75.4419 55.134 75.3439C54.6254 75.13 55.428 74.7313 55.2114 74.4557C55.7286 74.1946 55.7979 75.1061 56.208 74.4329C56.0886 74.3816 56.2799 74.057 55.9657 74.2579C56.3156 74.1831 56.0947 73.8698 56.5361 73.8702C56.2815 74.0944 56.9561 74.0846 56.5888 74.409C56.5839 74.296 56.3248 74.4072 56.2685 74.4583C56.447 74.5327 56.3415 74.7818 56.6883 74.6696C56.8899 74.5712 57.1782 74.4714 57.0838 74.3221C57.0166 74.146 56.7665 74.4458 56.8435 74.2211C57.2452 74.0224 57.4033 74.2719 57.4756 73.8982C57.217 74.0088 57.0908 73.846 57.0558 73.722L57.3417 73.5471L57.32 73.6855C57.8442 73.6105 57.3967 73.4222 57.8887 73.2983L58.1901 73.4604C58.1408 73.6995 57.461 73.5969 57.6532 73.8987C57.9705 73.8113 58.02 73.61 58.3427 73.5998C58.2861 73.6494 58.1991 73.6865 58.1439 73.7369C58.2596 73.7115 58.5123 74.1122 58.876 73.7124C59.0742 73.5384 58.8988 73.5752 58.8647 73.4502C59.3547 73.2503 59.4638 73.0762 59.7815 72.9524C59.7929 73.2149 60.3605 72.7905 60.083 73.1524C59.8729 73.0647 59.151 73.313 59.0474 73.6006C59.3225 73.8264 58.6402 73.6881 58.6253 74.012C59.0305 73.888 59.1019 74.1753 59.2262 74.3383C59.3421 74.3149 59.4254 74.2024 59.4825 74.1519C59.4735 73.9632 59.3286 74.0132 59.2624 73.8376C59.7271 73.7393 60.1286 73.5023 60.322 73.2541C60.4997 73.2912 60.5081 73.4793 60.3359 73.5534C60.854 73.3291 61.4332 73.168 61.9577 73.0563C61.5383 72.8799 62.5028 72.8065 62.2029 72.6443C61.9102 72.669 61.6112 72.5432 61.7199 72.3681C61.8961 72.3315 61.7547 72.4937 61.8453 72.5309C62.0119 72.3065 62.2622 72.6693 62.3958 72.3571C61.9373 72.6063 62.4123 72.7322 62.394 72.9828C62.7058 72.744 62.4301 73.1451 62.778 73.0326C63.0896 72.7957 63.4893 72.5594 63.8641 72.385C64.4219 72.4368 65.1066 71.9879 65.5416 71.8374C65.8067 71.8752 65.7327 72.1759 65.9951 72.1388C66.2848 72.0396 65.6911 71.9384 66.1604 71.9137L66.1351 71.977C66.2465 71.8765 66.9814 71.891 66.9933 71.49L66.9476 71.8045C67.0359 71.803 67.0908 71.7168 67.1481 71.6666C67.1798 71.7537 67.2996 71.8037 67.1873 71.9037C67.5142 72.0044 67.7371 71.6927 68.0242 71.5917L67.7858 71.4917C68.2414 71.2056 68.6246 71.2568 69.0857 71.0459L69.1224 71.2076L69.3773 71.0215C69.357 71.1958 69.6504 71.2096 69.7599 71.0334L69.1424 71.6577C68.9065 71.6316 69.3062 71.3952 69.127 71.2823C68.9737 71.183 68.5431 71.3687 68.5202 71.5431C68.6956 71.5055 68.693 71.4684 68.8064 71.3692C68.9334 71.5697 68.6725 71.6443 68.5919 71.8314C68.6779 71.7938 68.8261 71.8194 68.8229 71.7442C68.683 71.9075 68.5118 71.9813 68.2221 72.0804C68.3921 71.9316 68.0712 71.9799 68.1257 71.8935C68.1646 72.0935 67.9054 72.2423 67.5281 72.3049C67.1989 72.1658 66.8984 72.6664 66.4613 72.7401C66.5675 72.4908 66.7329 72.2649 66.9615 72.1038C66.6683 72.0903 66.672 72.2033 66.3775 72.1898C66.2979 72.3763 66.2793 72.6282 65.9664 72.8271L65.9015 72.6894C65.615 72.8625 65.684 73.0756 65.2771 73.163C64.5794 73.3108 63.8847 73.5355 63.3636 73.6841L63.2978 73.547C63.1107 73.9465 62.3788 73.9693 62.0376 74.2305C61.3361 74.3049 60.6557 74.8287 60.2392 74.6906C59.1161 75.1753 58.1381 75.6108 56.9206 75.9463L57.0548 75.6723C56.8893 75.8955 56.8762 75.5975 56.6751 75.6962C56.9712 75.7849 56.4528 76.0073 56.3452 76.1832C55.7583 76.194 55.1292 76.5925 54.7027 76.8923L54.6379 76.7545C54.2462 77.1791 53.5979 77.1276 52.9873 77.2766C52.8995 77.2393 52.7478 77.139 52.5754 77.2128C52.3266 77.5496 52.1521 77.5877 51.7244 77.8863C51.3779 77.9983 50.7966 78.1226 50.4153 78.1463C49.2165 78.894 47.8175 79.1165 46.5257 79.7508L46.3731 79.6137C45.1757 80.3993 43.4539 80.5946 42.3917 81.1421L42.4067 80.8186C42.0266 80.8435 41.6296 81.1536 41.7853 81.3292C41.4043 81.3551 40.9508 81.7539 40.6505 81.5891C40.2727 81.6526 40.2522 81.8649 39.9654 82.0006C39.2084 82.1247 38.9486 82.2364 38.2861 82.5101L38.4604 82.4736C38.5146 82.3861 38.4816 82.2612 38.3062 82.2976C38.0786 82.4595 37.3478 82.5219 37.7118 82.7842C36.9211 82.8198 36.0704 83.494 35.2771 83.4539C35.3679 83.5289 35.1952 83.6043 35.1407 83.6919C34.5049 83.9018 33.773 83.927 33.3161 84.2511C33.1993 84.2368 33.4258 84.0393 33.1631 84.1129C33.0211 84.1983 33.1993 84.2368 33.0273 84.3507C32.0521 84.86 30.8786 84.8454 29.9548 85.1946C28.3448 85.9158 26.5743 86.3871 24.9855 86.9345L24.9816 86.8596C24.5315 87.2968 23.638 86.995 23.3395 87.531C23.1917 87.5056 22.846 87.6562 22.8971 87.4926C22.5309 87.8171 21.6461 87.7029 21.1065 88.1389C21.1653 88.1274 21.193 88.1028 21.2491 88.0514C20.5773 88.1006 20.0956 88.487 19.3941 88.5614C19.451 88.5101 19.565 88.4491 19.5622 88.3741C19.266 88.3237 19.0553 88.8605 18.808 88.5719C18.6636 88.6221 18.7584 88.7728 18.8448 88.734C17.3639 89.0698 15.8974 89.779 14.4253 90.3391C13.2882 90.4867 14.1785 89.7993 13.4122 90.3215C13.3224 90.2794 13.4035 90.4651 13.3693 90.4003C13.072 90.5992 12.7393 90.1928 12.5683 90.4412C12.7282 90.6154 12.4541 90.6044 12.4872 90.7309C11.7888 90.8102 11.5971 90.6681 11.1296 90.9909L11.1337 90.8707C10.6251 91.371 9.86955 91.4355 9.47098 91.9522C6.14538 93.0981 3.00062 94.3304 -0.249014 95.4259C-3.49582 96.402 -6.60234 97.581 -9.93761 98.454C-10.7969 98.4187 -10.8517 98.4451 -11.6572 98.8326C-11.6381 98.7756 -11.5883 98.7482 -11.6588 98.7237C-11.6264 98.9689 -12.2453 98.9372 -12.2539 99.1851C-13.479 99.5332 -14.5737 99.9572 -15.8189 100.362C-15.6298 100.273 -15.5924 100.052 -15.8214 100.143L-16.0188 100.37L-16.0793 100.318C-16.2282 100.404 -16.366 100.575 -16.1767 100.596C-19.2414 101.809 -22.4711 102.339 -25.5178 103.387C-26.2772 103.525 -27.2842 103.95 -28.0599 104.253C-30.5043 104.701 -32.698 105.135 -35.0092 106.122C-35.0092 106.121 -34.8925 105.42 -33.9541 104.964Z" fill="#82C6DD"/>
<path d="M70.2472 71.4217C70.1262 71.3326 69.8332 71.3574 70.0002 71.1317C70.0624 71.232 70.2424 71.3087 70.2472 71.4217Z" fill="#82C6DD"/>
<path d="M62.5835 72.5816C62.5854 72.6189 62.4646 72.568 62.4353 72.556C62.5221 72.5186 62.5746 72.3933 62.6657 72.4307C62.5777 72.4693 62.6091 72.5193 62.5835 72.5816Z" fill="#82C6DD"/>
<path d="M60.7007 73.114C60.6951 73.0012 61.0669 72.7911 61.2982 72.7022L60.7007 73.114Z" fill="#82C6DD"/>
<path d="M58.8274 73.2484C58.6502 73.2097 58.6763 73.1488 58.8777 73.0868C58.9098 73.1366 58.8525 73.1855 58.8274 73.2484Z" fill="#82C6DD"/>
<path d="M58.781 73.5244C58.6373 73.5732 58.5465 73.5354 58.457 73.4994C58.4913 73.5861 58.7727 73.3356 58.781 73.5244Z" fill="#82C6DD"/>
<path d="M54.9165 74.4416C54.8285 74.479 54.6603 74.6284 54.5389 74.5406C54.6593 74.5904 54.9371 74.2672 54.9165 74.4416Z" fill="#82C6DD"/>
<path d="M53.2203 75.1623C53.1619 75.1738 53.1329 75.1622 53.0768 75.2122C52.9586 75.1988 53.0429 75.0884 53.127 75.0503L53.2203 75.1623Z" fill="#82C6DD"/>
<path d="M21.5045 85.8766L21.6761 85.7656L21.6811 85.8759L21.5045 85.8766Z" fill="#82C6DD"/>
<path d="M7.55352 90.3958C7.38662 90.5213 7.3915 90.3418 7.35566 90.3367C7.52178 90.2713 7.334 90.4835 7.55352 90.3958Z" fill="#82C6DD"/>
<path d="M0.196107 93.3454L0.251946 93.3246L0.30039 93.5405L0.196107 93.3454Z" fill="#82C6DD"/></g>
  <g transform="translate(95.00 116.76) scale(0.6757 0.6757)"><path d="M6.50415 0C7.16521 0.411658 7.4761 0.80204 7.95434 1.40396C8.19972 9.15173 7.97465 18.324 7.97969 26.167L39.1098 26.1673L39.1344 2.13142C39.5247 1.64481 40.075 1.14049 40.53 0.699557C41.1066 1.20831 41.3743 1.54768 41.8592 2.15005C42.1148 11.5794 41.882 22.2772 41.883 31.8009L41.884 44.6327C41.884 46.0276 42.1358 51.5252 41.4709 52.3638C41.1135 52.6931 40.9644 52.8733 40.4799 52.976C39.975 52.9179 39.5141 52.3521 39.1335 51.9731C38.8916 44.796 39.1104 36.1987 39.1268 28.9088C35.108 28.7804 30.6748 28.8621 26.6255 28.8615L7.96854 28.8955L7.95449 51.8871C7.57596 52.3328 7.0684 52.808 6.64439 53.2246C6.24346 52.8739 5.71654 52.3082 5.32931 51.9163C5.19022 49.2069 5.27373 45.8726 5.2755 43.1246L5.2777 27.9457L5.26959 11.0071C5.26873 7.892 5.19002 4.31976 5.3256 1.23946C5.60858 0.897193 6.17824 0.340179 6.50415 0Z" fill="black"/>
<path d="M155.795 15.4792C159.855 15.5894 166.174 14.7642 169.278 17.1177C170.678 18.1669 171.588 19.742 171.797 21.4784C172.307 25.3828 169.785 28.497 165.914 28.9952C167.504 31.0962 171.866 35.9381 172.95 37.8135C172.126 37.8297 171.199 38.0264 170.677 37.3681C168.663 35.1936 166.053 31.6858 164.109 29.2859C161.932 29.25 159.753 29.2349 157.575 29.2402C157.496 32.0218 157.56 34.9974 157.517 37.8127C156.92 37.8077 156.591 37.7946 156 37.7098C155.604 37.2609 155.787 17.9252 155.795 15.4792ZM157.504 27.8444C161.159 27.8447 165.818 28.4653 168.621 26.2071C169.669 24.8793 170.307 23.6029 170.093 21.8572C169.324 15.6017 161.987 17.3006 157.484 17.1223C157.492 20.5011 157.606 24.5179 157.504 27.8444Z" fill="black"/>
<path d="M228.139 15.479C231.834 15.5854 238.734 14.7732 241.601 17.1321C246.029 20.7765 244.514 28.1736 238.183 28.9835C239.141 30.2923 244.879 36.7615 244.871 37.5947C244.134 38.1242 243.358 37.8285 242.824 37.2167C241.422 35.6376 237.62 30.9635 236.452 29.2609L229.871 29.236C229.869 30.2929 229.951 37.2513 229.73 37.6947C229.246 37.7833 228.814 37.7456 228.325 37.7263C227.997 37.2724 228.052 36.2121 228.069 35.6299C228.255 28.9398 227.924 22.1584 228.139 15.479ZM229.825 27.8435C233.047 27.8486 238.663 28.4222 240.921 26.1706L240.944 26.1459C243.416 23.045 242.84 18.7314 238.733 17.4309C236.504 16.7251 232.288 17.2089 229.808 17.1256L229.825 27.8435Z" fill="black"/>
<path d="M108.629 15.4842C112.346 15.5721 120.151 14.6206 122.84 17.5824C127.298 22.4906 124.701 29.9605 117.493 30.1599L110.401 30.1709C110.416 31.6359 110.54 36.4993 110.338 37.6197C109.972 37.8268 109.147 37.7952 108.684 37.8065C108.496 30.6828 108.962 22.4411 108.629 15.4842ZM110.412 28.624C114.083 28.6467 119.186 29.3634 121.794 26.8211C122.605 25.8518 123.405 24.2317 123.356 22.9601C123.07 15.4655 115.037 17.2833 110.408 17.1314L110.412 28.624Z" fill="black"/>
<path d="M10.4548 3.95386C10.7882 4.1185 12.7404 6.09867 13.1432 6.49577C13.2418 11.3093 13.158 16.4201 13.1618 21.2579C19.3778 21.0164 27.5929 21.169 33.9044 21.2504L33.9348 7.33427C34.7867 6.37114 35.7088 5.47247 36.6935 4.64589C36.6609 5.44391 36.6712 6.38122 36.6618 7.18994L36.6529 24.0526C28.0964 23.8803 19.0298 24.0314 10.4336 24.0324L10.4548 3.95386Z" fill="black"/>
<path d="M10.4112 31.1033C19.136 31.1068 27.9602 31.1728 36.6766 31.0752C36.654 31.7872 36.6559 32.5408 36.6653 33.2544C36.737 38.6215 36.5432 44.0482 36.6992 49.4097C35.7104 48.5204 34.86 47.6435 33.9324 46.6894C33.8698 43.3078 33.9222 39.7183 33.92 36.3232L33.9167 33.8621C27.1706 33.7368 19.9181 33.8157 13.1534 33.8693L13.1478 46.7861C12.4054 47.575 11.2745 48.5996 10.4669 49.4084C10.3205 43.3866 10.4785 37.1606 10.4112 31.1033Z" fill="black"/>
<path d="M44.2969 4.53662C45.0684 4.97191 46.6325 7.04967 47.06 7.86266C47.2894 20.5368 47.077 33.9396 47.0805 46.6874C46.6149 47.0585 46.0962 47.6181 45.6699 48.0533C45.1488 48.6245 44.9393 48.778 44.3033 49.2255L44.2969 4.53662Z" fill="black"/>
<path d="M262.152 15.2218C267.385 14.7468 270.673 17.0745 272.968 21.6691C271.768 21.6531 271.259 21.7864 270.551 20.6812C269.131 18.4897 268.088 17.6006 265.495 17.0618C255.68 15.021 250.61 25.7443 255.913 33.1141C259.911 38.67 270.448 36.8635 271.731 29.7355C271.842 29.1192 271.965 28.4988 272.065 27.8709C270.575 27.6573 264.147 28.1084 263.49 27.5826C263.447 27.2446 263.35 26.6877 263.418 26.3748C264.011 26.1191 272.423 26.2081 273.834 26.2036C273.696 29.2367 273.371 31.7578 271.445 34.2085C267.817 38.8274 260.679 39.2366 256.179 35.7212C251.307 31.9128 250.807 24.0186 254.449 19.2442C256.345 16.7577 259.137 15.5876 262.152 15.2218Z" fill="black"/>
<path d="M2.50725 3.99463C2.58611 4.07695 2.66498 4.15943 2.74383 4.24175C2.7127 19.2942 2.78582 34.3482 2.72986 49.4006C2.4021 48.9951 1.98943 48.5821 1.62594 48.2008C1.13498 47.7677 0.60539 47.2134 0.135565 46.7447C0.00765258 44.6422 0.0359469 42.2636 0.0730363 40.153C0.269661 28.9644 -0.207372 17.6052 0.115745 6.43467C0.732051 5.72493 1.78062 4.78547 2.50725 3.99463Z" fill="black"/>
<path d="M57.5817 15.4693C58.1167 15.4854 58.7393 15.4661 59.2822 15.4634C59.3076 18.7207 59.3103 21.9782 59.2906 25.2355C63.572 25.1623 68.0648 25.233 72.3636 25.2335L72.3753 15.5129L74.1168 15.4703C74.2465 20.1874 74.1057 25.1484 74.1602 29.8868C74.177 31.346 74.2477 36.4492 74.0505 37.6399C73.6928 37.8539 72.8478 37.7853 72.3892 37.7796L72.3871 26.8506C68.7817 27.0513 63.0795 26.8634 59.2833 26.8529C59.3572 29.9709 59.2512 33.1801 59.34 36.3065C59.3557 36.8565 59.1239 37.5322 58.6986 37.9032C58.214 38.0461 58.398 38.066 57.9627 37.834C57.2855 36.9405 57.5449 31.42 57.545 30.0403L57.5817 15.4693Z" fill="black"/>
<path d="M205.794 15.48C209.976 15.608 214.311 15.401 218.523 15.5437C218.735 15.7744 218.703 16.7145 218.714 17.0892C215.205 16.9713 211.091 17.0663 207.538 17.0661L207.524 25.5178C208.694 25.4445 217.643 25.3246 218.025 25.6533C218.043 26.0673 218.084 26.4472 217.967 26.8461C217.188 27.0457 208.862 26.9411 207.538 26.9373L207.521 36.0774L218.791 36.084L218.73 37.7651C214.424 37.7419 210.118 37.7463 205.812 37.7782C205.568 30.881 205.75 22.4756 205.794 15.48Z" fill="black"/>
<path d="M282.543 15.4687C286.565 15.5942 290.842 15.3159 294.869 15.5918C295.275 15.6197 295.299 15.7497 295.504 16.0547C295.424 17.5741 292.435 17.0717 291.283 17.0685L284.145 17.0618C284.183 19.8574 284.151 22.7301 284.156 25.5323C285.38 25.4622 294.429 25.3003 294.852 25.6366C294.843 26.1385 294.934 26.5387 294.676 26.8618C293.586 27.0363 291.58 26.9535 290.418 26.9451L284.217 26.9474C283.998 27.6768 284.153 34.9855 284.156 36.079L295.403 36.0765C295.4 36.7399 295.405 37.0365 295.263 37.6815C294.191 38.0404 284.632 37.6743 282.548 37.8326C282.377 30.6398 282.536 22.7158 282.543 15.4687Z" fill="black"/>
<path d="M133.612 15.4802C136.989 15.5775 140.432 15.4871 143.814 15.5097C144.645 15.5153 145.408 15.3797 146.234 15.559C146.389 16.1217 146.436 16.2622 146.329 16.8472C146.26 16.9197 146.179 17.0046 146.088 17.1018C143.295 17.052 137.733 17.0213 135.215 17.1337C135.149 19.8386 135.192 22.7253 135.186 25.4446C138.22 25.601 142.88 25.2179 145.697 25.5385C145.976 25.9915 145.926 26.4735 145.692 26.92C144.926 27.0015 142.99 26.9409 142.157 26.9381L135.17 26.9319C135.238 29.9143 135.187 33.0703 135.187 36.0657C138.913 36.1221 142.749 36.0834 146.482 36.0849C146.485 36.6366 146.537 37.1652 146.308 37.6634C145.666 37.897 135.08 37.7636 133.599 37.7819C133.438 30.707 133.521 22.5883 133.612 15.4802Z" fill="black"/>
<path d="M195.702 15.4546C196.281 15.4882 196.977 15.4764 197.566 15.4816C197.23 16.1727 196.867 17.2277 196.586 17.969C196.475 18.1957 196.354 18.4364 196.256 18.6684C193.48 25.2264 190.938 31.922 188.023 38.4175C187.2 37.0121 186.472 35.0904 185.826 33.5487L182.587 25.756C181.646 23.4895 178.976 17.4523 178.477 15.5018C178.86 15.4916 180.144 15.3929 180.32 15.7596C181.275 17.7477 182.069 19.9018 182.888 21.9497C184.577 26.1988 186.299 30.4342 188.055 34.6556C189.072 31.5838 190.706 27.7335 191.92 24.6975C193.077 21.8037 194.421 18.1999 195.702 15.4546Z" fill="black"/>
<path d="M98.6316 15.4962L100.601 15.4617C99.36 17.6534 97.6933 20.118 96.3114 22.2625C95.0633 24.2902 93.6999 26.3521 92.4066 28.3576C92.1994 31.3672 92.3846 34.8021 92.2792 37.9003C91.7317 37.7753 91.1536 37.7973 90.5909 37.795C90.5378 34.6865 90.5921 31.5798 90.5274 28.4506C88.7512 25.6452 86.9533 22.8537 85.1339 20.0763C84.3584 18.8775 82.882 16.7188 82.3086 15.5037L84.142 15.5208C86.2327 18.206 89.4585 23.6017 91.3857 26.6273C92.1159 25.7672 93.4084 23.6322 94.0723 22.591C95.5779 20.217 97.0978 17.8521 98.6316 15.4962Z" fill="black"/></g>
</svg>