<svg xmlns="http://www.w3.org/2000/svg" width="390" height="270" viewBox="0 0 390 270"><rect width="390" height="270" fill="#fff" stroke="#d9d5c9" rx="6" ry="6"/><path fill="#fc6b7e" d="M376.44 69.235c.006.43.295.868.088 1.313-.639.952-.875 2.456-1.971 2.768-.665.993-.967 2.628-2.092 2.99l-.811 1.547-.722.398c-.366.63-.277.849-1.064 1.247-.342.359-.526.769-1.001.87-.62.777-.492 1.195-1.524 1.503-.572.07-.555.608-1.003.871-.383.059-.575.393-.763.741-.447.276-1.018.36-1.404.742-.22.572-.672.616-1.052.795-.327.153-.637.291-.787.721-.955.818-.96.815-1.263 1.42-.703.401-1.448.588-2.126 1.085-.351.784-1.023.675-1.53 1.026-.424 1.01-1.625.722-2.01 1.733-.942.623-2.303.622-2.96 1.721-2.37 1.716-2.866-.701-2.134 2.679.47.407 1.062-.218 1.625-.382.671.249 1.376-.24 2.1-.578.245-.121.29-.498.521-.633.489-.328 1.95-.705 2.073-1.16.191-.462.603-.362.845-.632.212-.47.587-.658.994-.883.304-.936 2.162-.993 2.396-1.616.363-.677.895-.341 1.153-1.195.606-.263 1.34-.422 1.709-1.155.592-.152.734-.728 1.24-.993.325-.127.658-.256.964-.455.206-.136.24-.52.523-.632.244-.096.485-.218.726-.334.525-.065.551-.666 1.004-.872.152-.044.302-.172.452-.262.163-.581.712-.524.977-.9.212-.53.754-.48.992-.884.176-.45.542-.46.827-.665.27-.43.54-.717 1.014-.857.774-1.863.985-.579 1.83-2.452 1.36-.332 1.294-2.769 2.595-3.214.946-1.073.747-2.037 2.11-2.986.43-.33.446-1.23 1.035-1.232.264.236.572.132.9-.052.24-.171.41.17.646.093 1.39-.776 3.05-1.018 4.15-2.318.44-.267 1.067-.274 1.336-.842.192-.491.778-.32.991-.888.768-1.93 2.56-3.847 2.529-5.821.3-.708.957-1.397.653-2.115.19-.47.286-.873.147-1.32.32-.867.652-.919.424-1.845.05-.261.331-.488.225-.795-.053-.155-.107-.354-.06-.52.271-.441.199-.859.158-1.32.27-.37.217-.711.137-1.057.448-1.291-.178-2.45-.272-3.68-.054-.333-.212-.644.048-1.057.214-.62-.36-2.347-.415-3.154.253-.356.348-.705.183-1.047-.124-.358.336-.678.204-1.066-.614-3.2-1.121-6.485-1.705-9.705-.935-.423-.303-2.301-1.221-2.797-.292-.787-.013-2.066-.818-2.358-.238-.792-.004-2.18-.847-2.47-.34-.125-.324-.162-.387-.536-.054-.801-.286-1.333-.962-1.511l-.174-.76L383.041 20l-.713.296c-.4-.369-.892.076-1.413.273-.17.42-.838 1.161-.4 1.473 1.013.542 2.023 1.089 3.054 1.595.364.179.629.405.631.92.302.253.53.493.55.998.046.146.287.156.356.259.104.435.125.885.578.97l.164.762c.739.268.48 1.595.766 2.324 1.094.835.387 3.27 1.353 4.204.247.334.407.995.155 1.485-.199.377-.168.482.105.664.838 1.424.72 3.825 1.193 5.59-.448 1.191.122 2.287.234 3.416.066.293-.201.53-.226.792-.016.181.064.347.08.527.033.349.208.648.083 1.051-.39.582.129 1.026-.305 1.583-.014 1.099.464 2.045.419 3.153-.274.377-.181.712-.118 1.056.021.266-.283.533-.227.79.05.696.063.703-.28 1.317-.38.905.243 1.73.188 2.623-.47 1.19-1.376 1.867-1.26 3.183-.281 1.079-1.083 2.117-1.552 3.176-.173.333-.172.333-.94.96-.603.57-.836 2.335-1.724 1.598l-2.662 1.23c-1.554-.477 1.36-2.67.764-3.841-.297-.822.079-1.36.507-2.107.349-.574-.159-1.043.306-1.586-.08-.45-.18-.855.165-1.304-.095-.718-.377-1.363 0-2.12l-.953-5.474c-.491-.307-.783-.186-.91-.993-.064-.277-.356-.262-.45-.48-.17-1.257-1.67-1.242-2.456-1.883-.127-.068-.176-.238-.175-.44-.155-.745-1.112-.803-1.623-1.159-.969.46-1.56-.201-2.343-.566l-.74.288c-.403-.18-.76-.62-1.276-.198-.571.31-.997-.85-1.459.021-.219.572-.727.374-.998.885-.258.538-.53 1.074-.835 1.586-.313.642.198.938-.293 1.592.038 1.392.947 2.816.369 4.243.177 1.015.369 2.059.536 3.113.703.706.721 1.976.902 3.104.014.442.476.342.521.731.05.443.162.862.247 1.29.42.09.428.574.57.976.56.094.251.97.775 1.082.417.107.588.436.63.917.09.222.385.203.449.479.137 1.23 1.497.641 1.448 1.953q.812.429 1.631.858m3.535-13.683c.03.656.431 1.37.213 2.062-.317.602.082 1.244.094 1.839.039.337.22.642-.045 1.053-.253.473.212.826-.17 1.315-.51.592-.275 1.797-.59 2.106-.349.94-1.353 1.952-1.234 2.9.08.224.056.345-.117.422-.615.076-1.097-.524-1.653-.697-.34-.188-.105-.883-.565-.982-.702-.024-.431-.968-.975-1.188-.056-.015-.09-.116-.112-.19-.062-.926-.938-.624-.993-1.474.031-.368-.281-.342-.434-.493-.21-.621-.092-1.521-.706-1.763-.06-.35-.162-.688-.172-1.052-.012-.43-.441-.418-.5-.737-.267-2.366-1.23-4.61-.86-7.085-.083-.744-.584-1.587-.071-2.356l1.67-.8c.447.133.82.406 1.236.601l.742-.286 1.195.626.165.77 2.014 1.056c.029.522.18.803.54 1.012.084.32.074.68.4.844.588.572.043 2.217.928 2.497"/><g fill="#82c6dd"><path d="M21.885 319.99c-.74-.846-.731-2.278-1.35-3.267-.058-.12.243-.042.095-.309-.665-.937-1-2.644-1.159-3.996l.09.056c-.03-.258-.343-.483-.395-.75.043-.015.088.063.128-.016-.152-.022-.21-.444-.343-.521.019-.118.125-.141.14-.291l-.196-.099c-.487-.293-.296-.999-.659-1.496.043.015.088.062.107.006-.504-.824-.826-1.955-1.228-2.929.065.023.174.028.214-.05-.173.003-.313-.294-.43-.551.122-.173-.296-.412-.309-.755l.045.015c-.244-.178-.014-.376-.278-.499l.08-.188c-.26-.029.009-.374-.169-.529l-.044.022c-.114-.164-.031-.295-.123-.45l.021-.025c-.187-.373-.134-.643-.308-.576.097-.184.188.36.324.077-.6-1.234-.996-2.579-1.42-3.878.024-.171.015-.273.071-.328-.078-.118-.19-.479-.32-.568.018.043.064-.113.05-.185-.01-.258-.278-.195-.283-.48q.122.131.205.048c-.21-.177-.284-.48-.414-.728.043.03.081.089.134.06-.25-.235-.136-.533-.317-.753l.133.062c-.006-.445-.252-.05-.292-.424.06.073.09.03.137.033-.292-.266-.402-.814-.57-1.12.02.015.047.001.047.001-.138-.347-.2-.736-.408-1.1 0-.157.266-.034.106-.398-.201.08-.29-.61-.451-.313-.07-.331-.157-.864-.296-1.055.125.12.2-.237.305.023l.059-.241c.094.002.038.216.124.118-.051-.131-.259-.494-.264-.624-.206-.206-.515-.358-.67-.75.14.162.191-.18.268-.064l-.575-.431c-.052-.13.153-.082.037-.257-.05.028-.111-.046-.174-.09.007-.057-.23-.537-.047-.66.06-.085.113.203.137.032-.082-.246-.154-.234-.237-.48l.026-.013c-.023-.172-.242-.451-.296-.238.03.115.107-.083.103.104-.155-.077-.28-.352-.362-.598.06.074.11.046.179.061-.266-.279-.43-.613-.616-.961-.098.025.22.08.186.152-.02-.517-.505-.917-.438-1.374.039.059-.125.079-.1.066-.061-.232.082-.267-.018-.399.077-.041-.087-.178-.161-.323-.085-.06.027-.053.08.077-.14-.19-.541-1.002-.581-1.534-.051.027-.297-.238-.327-.353l.14.003c.043-.127-.133-.375-.03-.43-.232-.192.432.89.207.6.079-.118-.35-.39-.154-.375-.078-.226-.292-.4-.243-.656 0 .07.235.128.167-.053-.127-.316-.09-.072-.218-.32l-.105-.148c-.126.028-.076-.295-.176-.13.09-.073-.214-.45.001-.483l.176-.007c-.057-.136-.244-.174-.351-.26.01-.024.03-.071.058-.072-.254.057-.087-.34-.332-.445-.009-.32-.233-.747-.124-.936-.147-.2-.303-.378-.333-.652.04.044.07.112.128.109.02-.185-.058-.204-.146-.338.048.02.04-.37.07-.577-.146-.2-.255-.08-.343-.077.177-.283-.362-.581-.224-.91.059.068.225.289.226.083.177-.283-.313-.355-.303-.723l-.176.147c.078-.188-.274-.448-.057-.481-.109-.087-.06-.41-.244-.31-.01-.597-.527-1.287-.282-1.734-.058-.067-.087-.272-.176-.2-.068.165.137.155.078.227-.029-.067-.088-.065-.117-.064-.01-.183-.038-.32.177-.214 0-.414-.46-.279-.537-.78.088-.005.107-.051.05-.187l-.226-.22c-.068-.319.129-.235.264-.287-.077-.157-.135-.362-.263-.403l.11-.257c-.08.187-.128-.109-.187-.175l.06.066c.047-.049-.05-.228-.099-.318-.078.05-.05.256-.04.37-.088-.065-.116-.2-.224-.289.148-.007.01-.3-.018-.435-.02-.16-.177-.13-.186-.176.07-.027-.068-.25.068-.164.04.044-.03.14.06.204.02-.116.145-.144-.01-.32-.117-.134-.255.125-.264-.196.059.066.117.063.185.107l-.018-.298-.128.028c.02-.047.039-.025.05-.047-.157-.04-.176-.408-.342-.423-.058-.135-.01-.32-.038-.457l.019.022c.02-.186-.098-.385-.225-.495l.03-.001c-.02-.092-.107-.295-.215-.382.02-.254.441-.226.206-.423-.077-.226-.341-.283-.39-.166-.049-.435-.4-.833-.331-1.273-.069-.042-.088.005-.156-.107-.145-.615-.556-1.217-.467-1.772.108.157.127-.028.196-.055-.157-.107.06-.209-.147-.2-.107.051-.166.054-.156.238-.176-.338-.351-.881-.311-1.113-.02.116-.08.05-.138-.018.186-.031.128-.303.001-.482l-.118.006.07-.165c-.06-.066-.254-.011-.214-.243.038-.023.077-.049.096-.095-.155-.178-.4-.42-.38-.673l.099-.234c-.048-.09-.195-.22-.187-.037-.028-.413-.096-.663.002-.828-.547-.55-.868-1.5-1.092-2.273l.089-.004c.01-.23-.177-.06-.167-.222.1.041.118-.211.265-.08-.01-.322-.263-.333-.362-.513-.115.006.118.132-.03.139-.048-.02-.047-.434-.224-.427.04-.094.177-.076.255-.057l-.136-.154c.117-.28.498.391.656.086l-.08-.158c.119-.212.333.376.256-.058-.137-.154-.42-.233-.44-.05-.166-.36-.44-.049-.558-.456.06-.141.127.315.235.195.069-.233-.196-.359-.205-.542 0 .207-.215.101-.283-.01.01-.23.196.083.118-.213-.109-.017-.265-.262-.255-.01-.245-.037-.04-.322-.254-.427.118-.143.44.188.411-.155-.127.097-.322-.331-.48-.094.001-.138.11-.188.227-.125.03-.207-.401-.35-.137-.5l-.166-.014c.03-.071.04-.163.089-.28-.049-.158-.362-.444-.137-.5-.04-.044-.145-.407-.253-.218-.021.253.194.22.028.412.118-.212-.126-.315-.224-.426l.079-.05c-.059-.065-.097-.249-.205-.267.068.043.116-.006.117-.074l-.156-.039c-.166-.292.204-.147.068-.44l.176.199c-.038-.044.05-.187-.038-.32-.137-.017-.313-.078-.421-.096-.108-.155.108-.12-.068-.25l.214.175c.05.02.148-.212.071-.44-.088-.134-.333-.305-.323-.053-.039-.115-.019-.3.097-.236-.125-.247-.117.075-.263-.125.05-.118.07-.44.128-.65l.274.17-.048-.156c.224.15.088-.142.293-.082-.008-.115-.107-.226-.184-.314-.168.398-.48-.23-.696-.061-.204-.405.51-.46-.018-.78-.04.093-.294-.057-.137.19-.058-.275-.304-.102-.303-.447.175.199.168-.33.422-.042-.089.004-.002.207.038.251.059-.14.254-.057.166-.329-.077-.157-.155-.383-.272-.31-.138.053.097.25-.08.189-.155-.315.04-.439-.252-.495.086.202-.041.301-.138.329l-.137-.224.108.017c-.059-.41-.206-.06-.303-.446l.127-.236c.187.039.107.571.343.42-.068-.248-.226-.286-.234-.54.039.045.068.113.107.157-.02-.091.294-.289-.02-.574-.135-.155-.107-.018-.204.01-.157-.385-.293-.47-.39-.719.205-.009-.127-.453.156-.236-.068.165.126.73.351.811.177-.215.069.319.323.33-.098-.317.127-.373.255-.47-.018-.09-.106-.156-.146-.2-.148.006-.109.12-.246.172-.077-.364-.263-.679-.457-.83.03-.14.176-.146.234-.01a7 7 0 0 1-.389-1.271c-.138.328-.195-.427-.323-.192.02.23-.079.463-.216.378-.029-.138.098-.027.128-.098-.176-.13.108-.326-.136-.431.195.36.293-.013.49.001-.187-.244.127-.028.039-.3a5 5 0 0 1-.507-.85c.04-.438-.312-.974-.43-1.315.03-.207.266-.15.237-.355-.078-.227-.157.238-.176-.13l.05.02c-.08-.087-.068-.662-.382-.671l.246.035c-.001-.069-.069-.112-.108-.157.068-.024.108-.118.186-.03.079-.256-.165-.43-.245-.656l-.078.187c-.224-.357-.184-.657-.349-1.018l.127-.029-.146-.2c.136.016.147-.213.01-.299l.488.484c-.02.184-.205-.129-.294.012-.078.12.068.457.204.475-.029-.138-.058-.136-.136-.224.157-.1.216.105.362.168-.03-.068-.01-.184-.068-.181.128.11.186.243.263.47-.116-.133-.078.118-.146.076.156-.03.273.172.322.467-.109.258.283.494.34.836a1.16 1.16 0 0 1-.497-.392c-.011.23.077.227.067.458.146.062.343.077.499.322l-.108.05c.136.225.303.17.371.49.116.546.292 1.09.408 1.498l-.107.052c.313.146.33.72.535.986.058.55.468 1.083.36 1.409.38.88.72 1.645.984 2.598l-.215-.105c.175.13-.059.14.019.297.07-.231.243.175.381.259.008.46.32.952.555 1.286l-.108.05c.333.308.293.815.41 1.293-.03.07-.108.188-.05.323.263.195.293.331.527.666.087.272.185.727.203 1.026.586.938.76 2.034 1.257 3.045l-.108.12c.616.938.769 2.286 1.197 3.118l-.253-.012c.02.298.262.609.4.487.02.298.333.653.203.889.05.295.216.312.323.536.097.593.184.796.399 1.315l-.029-.136c-.068-.043-.166-.017-.138.12.127.179.176.75.381.466.028.619.556 1.285.525 1.906.059-.07.118.065.186.107.165.498.184 1.071.438 1.43-.011.09-.166-.087-.108.119.067.111.097-.028.186.106.399.764.388 1.683.661 2.407.565 1.26.934 2.647 1.363 3.891l-.06.003c.343.353.107 1.052.527 1.286-.02.116.098.387-.03.347.254.286.164.98.506 1.402-.01-.046-.029-.068-.069-.112.039.526.341.904.4 1.453-.04-.044-.088-.134-.147-.132-.04.232.38.397.155.591.04.113.157.039.127-.029.263 1.16.818 2.308 1.257 3.461.115.89-.423.193-.014.793-.033.07.112.007.062.034.155.233-.163.493.032.627.136-.125.128.09.227.064.062.547-.05.697.203 1.063l-.094-.003c.392.398.442.99.847 1.302.897 2.604 1.862 5.067 2.72 7.612.765 2.542 1.688 4.975 2.372 7.586-.028.673-.007.716.296 1.347-.045-.015-.066-.054-.085.002.192-.026.167.459.361.466.273.96.605 1.817.922 2.792-.07-.148-.243-.177-.172.002l.178.154-.04.047c.067.117.2.225.217.077.95 2.4 1.365 4.929 2.186 7.315.108.594.44 1.383.678 1.99.35 1.914.69 3.633 1.463 5.442 0 0-.55-.091-.907-.826M23.196 229.065c-.136-.293-.09.21-.128-.179.079.02.148.063.128.18M49.603 311.026c-.74-.845-.732-2.278-1.35-3.266-.058-.12.242-.043.095-.31-.666-.936-1.001-2.643-1.16-3.996l.09.057c-.03-.258-.342-.484-.395-.75.043-.016.089.062.129-.016-.152-.023-.21-.444-.343-.522.018-.118.125-.14.14-.29l-.197-.099c-.486-.294-.295-1-.659-1.497.044.015.088.062.108.007-.505-.824-.826-1.956-1.229-2.93.066.023.174.03.214-.049-.173.002-.313-.294-.43-.552.123-.173-.296-.412-.308-.755l.044.015c-.244-.177-.014-.376-.277-.499l.08-.188c-.261-.028.008-.374-.17-.529l-.044.022c-.114-.163-.03-.294-.123-.45l.022-.024c-.188-.374-.135-.643-.309-.576.097-.184.188.36.325.077-.601-1.235-.997-2.579-1.42-3.88.023-.17.014-.271.07-.326-.077-.118-.19-.48-.32-.568.018.042.064-.114.051-.185-.01-.259-.279-.196-.283-.481q.12.133.204.048c-.21-.177-.284-.48-.414-.728.043.031.082.089.134.06-.25-.235-.136-.533-.316-.752l.133.061c-.007-.445-.253-.05-.293-.424.06.074.09.031.137.033-.292-.266-.401-.814-.57-1.12.021.016.047.002.047.002-.138-.347-.2-.737-.407-1.1 0-.157.265-.035.106-.398-.202.08-.29-.61-.452-.313-.07-.332-.157-.864-.296-1.055.125.119.201-.238.305.023l.06-.242c.093.003.038.217.123.118-.051-.13-.259-.493-.264-.624-.206-.206-.515-.357-.67-.75.141.163.192-.18.269-.063l-.575-.432c-.053-.13.153-.082.037-.257-.051.028-.112-.045-.175-.09.007-.057-.23-.537-.047-.66.061-.085.113.203.138.032-.082-.246-.155-.234-.238-.48l.026-.013c-.023-.172-.241-.45-.296-.238.03.115.108-.082.103.104-.154-.076-.28-.352-.362-.597.06.073.111.046.18.06-.267-.279-.43-.613-.616-.96-.099.025.22.08.186.151-.02-.517-.506-.916-.438-1.374.038.06-.125.08-.1.066-.062-.232.081-.267-.019-.398.078-.042-.086-.179-.16-.324-.086-.06.026-.052.079.078-.14-.19-.54-1.003-.58-1.534-.052.027-.297-.239-.328-.353l.141.003c.043-.128-.133-.376-.03-.43-.233-.192.432.889.206.6.079-.118-.349-.39-.153-.375-.078-.227-.292-.4-.244-.656 0 .07.235.127.167-.054-.127-.315-.09-.072-.217-.32l-.105-.148c-.127.029-.077-.294-.176-.13.09-.072-.215-.45 0-.482l.176-.007c-.057-.136-.244-.174-.35-.261.009-.023.029-.07.058-.072-.254.057-.088-.34-.332-.445-.01-.32-.234-.747-.124-.935-.148-.201-.303-.378-.333-.653.04.044.07.112.127.11.02-.185-.058-.204-.145-.339.047.021.04-.37.07-.577-.147-.2-.255-.08-.344-.076.177-.284-.361-.582-.224-.91.06.067.226.288.227.082.176-.283-.314-.354-.304-.722l-.175.146c.077-.187-.274-.448-.058-.48-.108-.088-.06-.411-.244-.311-.009-.597-.527-1.286-.282-1.734-.058-.067-.087-.272-.175-.2-.068.165.137.156.077.228-.029-.068-.087-.066-.117-.064-.01-.184-.038-.32.177-.214.001-.415-.46-.28-.537-.78.088-.006.108-.052.05-.187l-.226-.22c-.067-.32.129-.235.265-.288-.077-.157-.136-.361-.263-.403l.109-.256c-.08.186-.127-.11-.187-.176l.06.067c.048-.05-.05-.228-.098-.32-.079.051-.05.257-.04.371-.088-.064-.117-.2-.224-.288.147-.007.01-.3-.019-.436-.02-.16-.176-.13-.186-.176.07-.026-.067-.249.069-.164.039.044-.03.14.059.205.02-.117.146-.144-.01-.321-.117-.134-.254.126-.264-.196.06.067.118.063.186.108l-.019-.298-.127.028c.02-.047.038-.025.05-.048-.157-.04-.177-.407-.343-.422-.058-.135-.009-.32-.038-.458l.02.022c.02-.185-.098-.385-.225-.494l.029-.002c-.02-.092-.106-.294-.215-.382.021-.254.442-.226.207-.423-.078-.226-.342-.283-.391-.166-.048-.435-.4-.833-.33-1.273-.07-.042-.089.005-.157-.106-.145-.615-.555-1.218-.467-1.773.108.157.127-.028.197-.054-.157-.108.059-.21-.148-.2-.106.05-.165.054-.156.237-.175-.338-.35-.88-.311-1.113-.02.116-.079.05-.137-.017.186-.032.128-.304 0-.483l-.117.007.07-.166c-.06-.065-.255-.01-.215-.242.039-.024.078-.05.097-.095-.155-.178-.4-.42-.38-.674l.098-.234c-.048-.09-.195-.22-.186-.037-.028-.412-.096-.663.001-.828-.546-.55-.868-1.5-1.091-2.273l.088-.003c.01-.23-.176-.061-.166-.223.099.042.117-.21.264-.08-.01-.321-.263-.333-.361-.512-.116.005.118.131-.03.138-.048-.02-.048-.433-.224-.427.04-.094.177-.075.255-.057l-.137-.154c.118-.28.499.392.656.086l-.079-.157c.118-.213.333.376.256-.058-.138-.155-.421-.233-.44-.05-.167-.36-.441-.05-.558-.457.059-.14.127.316.235.195.068-.232-.196-.358-.206-.542 0 .208-.214.102-.283-.01.01-.23.196.084.118-.212-.108-.018-.264-.263-.254-.01-.245-.038-.04-.322-.254-.427.117-.143.44.188.41-.155-.127.097-.321-.332-.48-.094.002-.139.11-.188.227-.125.03-.208-.401-.35-.136-.5l-.166-.014c.03-.072.039-.164.088-.28-.048-.159-.362-.444-.136-.501-.04-.044-.146-.406-.254-.218-.02.254.195.22.029.412.117-.212-.126-.315-.225-.426l.079-.049c-.058-.066-.097-.25-.205-.267.068.043.116-.007.117-.075l-.156-.038c-.166-.292.205-.148.069-.44l.175.198c-.038-.043.05-.186-.037-.319-.138-.018-.314-.078-.422-.097-.107-.155.109-.12-.067-.25l.214.176c.05.02.148-.213.07-.441-.088-.133-.333-.305-.323-.053-.039-.114-.019-.299.097-.235-.125-.248-.116.075-.263-.126.05-.118.07-.44.129-.65l.274.17-.049-.156c.225.15.089-.141.293-.082-.008-.115-.107-.225-.184-.314-.167.398-.48-.23-.695-.06-.205-.406.51-.46-.018-.781-.04.093-.294-.056-.137.19-.059-.274-.304-.101-.304-.447.176.2.168-.329.422-.041-.088.004-.001.206.039.25.058-.14.253-.057.165-.328-.077-.158-.155-.384-.272-.31-.138.053.097.249-.079.188-.156-.314.04-.438-.253-.495.087.203-.04.302-.138.329l-.137-.224.109.017c-.059-.41-.207-.06-.304-.445l.127-.236c.188.038.107.57.344.42-.069-.248-.227-.287-.234-.54.038.045.067.113.107.156-.02-.09.294-.289-.02-.573-.136-.155-.107-.018-.205.009-.157-.384-.293-.47-.39-.718.206-.01-.127-.454.157-.237-.069.165.126.73.35.812.178-.216.07.318.323.33-.097-.317.128-.373.256-.47-.019-.091-.107-.157-.146-.201-.148.007-.109.12-.247.172-.076-.364-.262-.678-.456-.83.029-.139.176-.145.234-.01a7 7 0 0 1-.39-1.27c-.137.328-.195-.427-.322-.193.02.23-.08.464-.216.378-.03-.138.098-.027.127-.098-.176-.13.109-.326-.136-.43.195.359.294-.013.49 0-.187-.243.127-.027.039-.3a5 5 0 0 1-.507-.85c.04-.437-.311-.974-.429-1.314.03-.208.266-.15.236-.355-.077-.227-.157.238-.176-.13l.05.02c-.079-.087-.068-.663-.382-.672l.247.036c-.002-.07-.07-.112-.108-.157.068-.025.107-.119.185-.03.08-.257-.165-.431-.244-.656l-.078.186c-.224-.356-.184-.656-.35-1.018l.127-.028-.145-.2c.136.016.147-.214.009-.3l.489.484c-.02.185-.206-.128-.294.012-.078.12.067.457.204.475-.03-.137-.059-.135-.136-.224.157-.1.215.105.362.168-.03-.067-.01-.183-.069-.18.128.109.186.243.264.47-.117-.133-.079.118-.147.075.157-.03.273.173.322.468-.109.258.283.493.341.835a1.16 1.16 0 0 1-.498-.391c-.01.23.078.227.067.457.146.063.344.077.5.322l-.108.051c.135.224.302.17.37.489.116.547.292 1.09.409 1.498l-.108.052c.313.147.33.72.535.987.059.55.469 1.082.36 1.408.38.88.721 1.645.984 2.599l-.215-.105c.175.13-.058.14.02.297.069-.232.243.174.38.258.009.46.321.952.556 1.286l-.108.051c.332.307.292.815.409 1.293-.03.069-.108.187-.05.322.264.195.293.332.527.667.088.271.185.726.204 1.025.585.939.76 2.034 1.256 3.046l-.107.12c.615.937.768 2.286 1.197 3.117l-.253-.011c.019.297.262.608.4.486.02.299.332.654.203.889.05.296.216.312.322.537.097.592.185.796.4 1.315l-.03-.137c-.068-.042-.166-.017-.137.12.127.179.175.751.38.466.029.62.557 1.286.525 1.907.059-.071.118.064.187.107.164.498.184 1.07.438 1.429-.012.091-.166-.086-.109.12.067.11.097-.029.187.106.398.764.387 1.682.66 2.406.565 1.26.934 2.647 1.363 3.892l-.059.003c.343.352.106 1.052.526 1.286-.02.115.098.386-.03.346.254.287.165.98.506 1.402-.009-.046-.028-.067-.068-.111.038.526.34.903.4 1.452-.041-.044-.089-.134-.148-.131-.04.232.381.397.155.59.04.114.158.04.127-.028.263 1.16.819 2.308 1.257 3.46.116.891-.423.194-.014.794-.032.07.113.007.062.033.156.233-.162.494.032.628.137-.125.128.09.227.063.062.547-.05.697.204 1.063l-.094-.003c.391.398.442.99.846 1.302.898 2.605 1.863 5.067 2.72 7.612.765 2.543 1.688 4.975 2.372 7.587-.028.673-.007.716.296 1.347-.044-.015-.066-.054-.085.001.192-.025.167.46.362.466.272.96.604 1.817.921 2.792-.07-.148-.243-.177-.172.002l.178.155-.04.047c.067.117.201.225.217.076.95 2.4 1.365 4.93 2.186 7.316.109.594.44 1.382.678 1.99.351 1.914.69 3.632 1.464 5.442-.001 0-.55-.092-.907-.827M23.336 229.426c-.07.095-.05.325-.227.194.079-.049.139-.19.227-.194"/><path d="M24.244 235.43c.029-.002-.011.093-.02.115-.03-.068-.128-.109-.098-.18.03.069.069.044.118.064M24.659 236.904c-.088.004-.253-.287-.322-.468zM24.763 238.37c-.03.138-.077.118-.126-.04.039-.025.077.02.126.04M24.98 238.407c.039.112.009.183-.02.253.069-.026-.127-.247.02-.253M25.699 241.43c.029.07.146.2.077.296.04-.094-.214-.312-.077-.296M26.264 242.762c.009.045 0 .068.039.112-.01.093-.097.026-.127-.04zM34.653 267.595l-.087-.134.086-.004zM38.193 278.524c.098.13-.042.127-.046.155-.052-.13.115.017.046-.155M40.501 284.286l-.016-.044.169-.038zM59.407 248.08c.293-.136-.21-.09.179-.128-.02.078-.063.147-.179.127M-22.552 274.483c.845-.74 2.278-.732 3.267-1.35.12-.058.042.242.308.095.937-.666 2.644-1.001 3.997-1.16l-.056.09c.257-.03.482-.342.749-.395.016.043-.062.089.016.129.023-.152.444-.21.522-.344.118.019.14.126.29.14l.1-.196c.292-.486.998-.295 1.496-.658-.016.043-.062.087-.007.107.824-.505 1.955-.826 2.93-1.229-.024.066-.03.174.048.214-.001-.173.295-.312.553-.43.172.123.411-.296.754-.308l-.015.044c.178-.244.376-.014.5-.277l.187.08c.029-.261.374.008.529-.169l-.021-.045c.163-.114.294-.03.45-.123l.023.022c.374-.187.644-.135.577-.309.183.098-.36.188-.077.325 1.234-.6 2.578-.996 3.879-1.42.17.023.272.014.327.07.118-.077.479-.19.568-.319-.043.017.113.063.184.05.26-.01.196-.279.482-.283q-.132.121-.05.204c.178-.21.482-.284.73-.413-.032.043-.09.08-.062.133.236-.25.534-.136.753-.316l-.06.133c.444-.006.05-.253.423-.293-.073.06-.03.09-.033.137.266-.292.814-.401 1.12-.57-.015.021-.001.047-.001.047.347-.138.736-.2 1.1-.407.157 0 .034.265.398.106-.08-.201.61-.29.313-.452.331-.07.863-.157 1.055-.295-.12.125.237.2-.023.304l.241.06c-.003.094-.217.038-.118.124.131-.052.494-.26.624-.264.206-.207.357-.515.75-.67-.163.14.18.191.063.268l.432-.575c.13-.053.081.153.257.037-.028-.051.045-.112.09-.175.057.007.537-.23.66-.047.085.061-.203.114-.032.138.246-.082.234-.155.48-.237l.013.025c.172-.022.451-.241.238-.296-.115.03.083.108-.104.103.077-.154.352-.28.597-.361-.073.06-.045.11-.06.179.279-.267.613-.43.961-.616-.025-.099-.08.22-.152.186.517-.02.917-.506 1.374-.438-.059.038-.08-.125-.066-.1.232-.061.267.081.399-.019.04.078.178-.086.323-.16.06-.085.053.027-.078.079.191-.139 1.003-.54 1.534-.58-.027-.052.239-.297.354-.328l-.004.142c.128.042.376-.134.43-.032.193-.232-.889.433-.6.208.119.078.39-.35.376-.154.226-.078.4-.292.656-.244-.07 0-.128.235.053.167.316-.127.072-.09.32-.217l.148-.105c-.028-.127.295-.077.13-.176.073.09.45-.215.483.001l.007.176c.136-.058.174-.244.26-.351.024.009.07.03.072.058-.057-.254.34-.088.445-.332.32-.01.748-.233.936-.124.2-.148.378-.303.652-.333-.044.04-.112.07-.109.127.185.02.204-.057.338-.145-.02.048.37.04.577.07.2-.147.08-.255.077-.344.283.177.581-.361.91-.223-.068.058-.29.225-.083.226.283.176.355-.314.723-.303l-.147-.176c.188.077.448-.274.481-.058.087-.108.41-.059.31-.244.597-.009 1.287-.527 1.734-.282.067-.058.272-.087.2-.175-.165-.068-.155.137-.227.077.067-.028.065-.087.063-.117.184-.009.32-.038.214.178.415 0 .28-.46.78-.538.006.089.052.108.187.05l.22-.226c.32-.067.235.13.288.265.157-.077.361-.136.403-.263l.256.109c-.186-.079.11-.127.176-.186l-.067.059c.05.048.229-.05.32-.098-.051-.078-.257-.05-.371-.04.064-.088.2-.116.288-.224.007.147.3.01.436-.019.16-.019.13-.176.176-.185.026.069.25-.068.164.068-.044.04-.14-.03-.205.059.117.02.145.146.321-.01.134-.117-.126-.254.196-.263-.067.058-.063.117-.107.185l.297-.019-.028-.127c.048.02.025.038.048.05.04-.157.407-.176.422-.343.135-.057.32-.009.458-.038l-.022.02c.185.02.385-.098.495-.225l.001.029c.092-.019.295-.106.382-.214.254.02.226.441.423.206.226-.078.283-.341.166-.39.435-.05.833-.4 1.273-.331.042-.069-.005-.088.106-.157.615-.145 1.218-.555 1.773-.466-.157.107.028.127.054.196.108-.157.21.059.2-.147-.05-.107-.054-.166-.237-.157.338-.175.88-.35 1.113-.31-.116-.02-.05-.08.017-.138.032.186.304.128.483.001l-.007-.118.166.07c.065-.06.01-.255.242-.215.024.039.05.078.095.097.178-.155.42-.4.674-.38l.234.099c.09-.049.22-.196.037-.187.412-.028.663-.096.828.002.55-.547 1.5-.869 2.273-1.092l.004.088c.23.01.06-.176.222-.166-.042.099.21.117.08.265.321-.01.333-.263.512-.362-.005-.116-.131.118-.138-.03.02-.048.433-.048.427-.224.094.04.075.177.057.255l.154-.136c.28.117-.392.498-.086.655l.157-.078c.213.117-.376.332.058.255.155-.138.233-.421.05-.44.36-.166.05-.441.457-.558.141.059-.315.127-.195.235.232.068.359-.196.542-.205-.207 0-.101-.215.01-.284.23.01-.083.196.212.119.018-.109.263-.265.011-.255.037-.245.322-.04.427-.254.143.117-.189.44.155.41-.097-.126.33-.321.093-.479.14 0 .188.11.126.226.207.03.349-.4.5-.136l.014-.166c.071.03.163.04.28.089.158-.049.444-.363.5-.137.044-.04.407-.146.218-.254-.254-.02-.22.195-.412.029.212.117.315-.126.426-.224l.05.078c.065-.058.248-.097.267-.205-.043.069.006.117.074.118l.039-.157c.292-.166.147.205.44.069l-.199.175c.044-.037.187.05.319-.037.018-.137.079-.314.097-.422.155-.107.12.11.25-.067l-.175.214c-.02.05.212.148.44.07.133-.088.306-.333.053-.323.115-.038.299-.018.236.098.247-.125-.076-.117.125-.263.118.049.44.069.65.128l-.17.274.156-.049c-.15.225.142.089.083.293.114-.008.225-.107.314-.184-.399-.167.23-.48.06-.695.405-.205.46.51.78-.018-.093-.04.057-.294-.19-.137.275-.059.102-.304.448-.304-.2.176.329.168.04.422-.003-.088-.206-.001-.25.039.14.058.057.253.329.165.158-.077.383-.155.31-.272-.053-.138-.249.097-.189-.079.315-.155.439.04.495-.253-.202.087-.301-.04-.328-.138l.223-.137-.017.109c.411-.059.06-.206.446-.303l.236.126c-.039.188-.571.107-.42.344.248-.069.287-.226.54-.234-.045.038-.113.068-.156.107.09-.02.288.294.573-.02.155-.136.018-.107-.009-.205.384-.156.47-.293.718-.39.009.206.453-.126.236.157-.164-.069-.73.126-.81.351.215.177-.32.069-.331.322.317-.097.373.128.47.256.09-.019.156-.107.2-.146-.006-.148-.12-.109-.172-.246.364-.077.679-.263.83-.457.14.029.146.176.011.234.406-.176.86-.302 1.27-.39-.328-.137.427-.195.192-.322-.229.02-.463-.079-.378-.216.138-.029.027.098.098.127.13-.175.327.109.431-.136-.36.195.013.294-.001.49.244-.187.028.127.3.04.245-.186.558-.371.851-.508.437.04.973-.311 1.314-.429.207.03.15.266.355.236.227-.077-.238-.156.13-.176l-.02.05c.087-.079.662-.068.672-.382l-.036.247c.069-.001.112-.069.157-.108.025.068.118.107.03.185.257.08.431-.165.656-.244l-.187-.078c.357-.224.657-.184 1.018-.35l.029.127.2-.145c-.016.136.213.147.3.009l-.484.489c-.185-.02.128-.206-.012-.294-.12-.078-.458.068-.476.204.138-.03.136-.058.225-.136.099.157-.105.216-.168.362.067-.03.183-.01.18-.068-.11.128-.243.185-.47.263.133-.117-.118-.079-.076-.147.03.157-.172.273-.467.323-.258-.11-.493.283-.836.34.084-.195.213-.372.392-.498-.23-.01-.227.078-.457.068-.063.146-.077.343-.322.499l-.051-.108c-.224.135-.17.302-.489.37-.547.117-1.09.293-1.498.409l-.052-.108c-.147.313-.72.331-.987.536-.55.058-1.082.468-1.408.36-.88.38-1.645.72-2.599.983l.105-.214c-.13.175-.14-.059-.297.018.232.07-.174.244-.259.382-.46.008-.952.32-1.286.555l-.05-.108c-.307.333-.815.292-1.293.41-.069-.03-.188-.109-.323-.05-.194.263-.331.293-.666.527a5 5 0 0 1-1.025.203c-.939.586-2.035.76-3.046 1.257l-.12-.108c-.937.615-2.286.768-3.117 1.197l.011-.253c-.297.02-.608.262-.486.4-.299.02-.654.332-.89.203-.295.05-.311.216-.536.323-.592.097-.796.184-1.315.398l.137-.028c.042-.069.017-.166-.12-.138-.18.127-.751.176-.466.381-.62.028-1.286.556-1.907.525.071.058-.064.117-.107.186-.498.164-1.07.184-1.429.438-.091-.011.086-.166-.12-.108-.11.066.029.097-.106.186-.763.399-1.682.387-2.406.66-1.26.565-2.647.935-3.891 1.363l-.003-.058c-.353.342-1.053.106-1.286.525-.116-.02-.387.098-.347-.03-.286.254-.98.165-1.402.506.046-.009.068-.028.111-.068-.526.038-.903.341-1.452.4.045-.041.134-.089.131-.147-.232-.04-.396.38-.59.155-.113.039-.039.157.029.126-1.16.263-2.308.819-3.461 1.257-.89.116-.194-.422-.794-.013-.07-.033-.006.112-.033.061-.233.156-.494-.162-.628.032.126.137-.089.128-.063.227-.547.062-.697-.049-1.063.204l.003-.094c-.398.392-.99.442-1.302.847-2.604.897-5.067 1.862-7.612 2.72-2.542.764-4.975 1.688-7.587 2.371-.673-.027-.716-.007-1.346.297.014-.045.053-.066-.002-.086.026.192-.459.168-.466.362-.96.272-1.816.604-2.792.921.149-.07.178-.243-.001-.171l-.155.177-.047-.04c-.117.067-.225.201-.077.218-2.4.95-4.929 1.364-7.315 2.185-.594.109-1.383.44-1.99.678-1.915.351-3.633.69-5.442 1.464 0-.001.09-.55.826-.907M59.045 248.216c-.095-.07-.324-.05-.194-.227.049.078.19.138.194.227"/><path d="M53.043 249.124c.001.03-.093-.01-.116-.02.068-.03.11-.127.18-.098-.068.03-.044.07-.064.118M51.572 249.541c-.004-.088.287-.253.467-.322zM50.105 249.646c-.139-.03-.119-.077.04-.126.024.039-.02.077-.04.126M50.069 249.862c-.113.039-.184.009-.254-.02.027.069.247-.128.254.02M47.042 250.58c-.069.03-.2.147-.295.078.094.04.311-.214.295-.077M45.714 251.145c-.046.01-.068 0-.112.04-.093-.011-.027-.098.039-.127zM20.877 259.536l.135-.087.004.086zM68.37 275.794c.293-.136-.21-.09.179-.128-.02.079-.063.148-.18.128M-13.59 302.197c.846-.74 2.278-.732 3.267-1.349.12-.059.043.242.31.094.936-.666 2.643-1 3.995-1.159l-.056.09c.258-.03.483-.343.75-.395.016.043-.063.088.016.128.022-.152.444-.21.521-.343.118.018.142.125.291.14l.099-.196c.293-.487.999-.296 1.496-.659-.015.043-.061.088-.007.107.825-.504 1.956-.826 2.93-1.228-.023.065-.029.174.05.214-.002-.173.294-.313.551-.43.173.122.412-.296.755-.309l-.015.045c.178-.244.376-.014.499-.278l.188.08c.029-.261.374.009.529-.169l-.022-.044c.163-.114.294-.031.45-.123l.024.021c.374-.187.643-.134.576-.308.184.097-.36.188-.076.324 1.234-.6 2.578-.996 3.878-1.42.171.024.272.015.327.071.119-.078.48-.19.568-.32-.042.018.114.064.185.05.259-.009.196-.278.481-.283q-.132.122-.048.205c.177-.21.48-.284.728-.414-.031.043-.089.081-.06.134.235-.25.533-.136.752-.317l-.06.133c.444-.006.05-.252.423-.292-.074.06-.031.09-.033.137.266-.292.814-.402 1.12-.57-.016.02-.002.047-.002.047.348-.138.737-.2 1.1-.408.157 0 .035.266.399.107-.08-.202.61-.291.313-.452.331-.07.863-.157 1.054-.296-.118.125.238.2-.023.305l.242.059c-.003.094-.217.038-.118.124.13-.051.494-.259.624-.264.206-.206.357-.515.75-.67-.163.14.18.192.063.269l.432-.575c.13-.053.081.153.257.037-.028-.052.045-.112.09-.175.057.007.537-.23.66-.047.085.06-.203.113-.032.137.246-.082.234-.154.48-.237l.013.026c.172-.023.451-.242.238-.296-.115.03.082.107-.104.103.076-.155.352-.28.597-.362-.073.06-.045.11-.06.179.279-.266.613-.43.961-.616-.025-.098-.081.22-.152.186.517-.02.917-.505 1.374-.437-.06.038-.08-.126-.066-.1.232-.062.267.08.398-.02.042.078.179-.086.324-.16.06-.085.053.027-.078.08.19-.14 1.003-.541 1.534-.581-.027-.051.239-.297.354-.327l-.004.14c.128.043.376-.133.43-.03.192-.232-.889.432-.6.207.119.079.39-.35.375-.154.227-.078.4-.292.657-.243-.07 0-.128.235.053.167.315-.127.072-.09.32-.218l.148-.105c-.028-.127.295-.076.13-.176.073.09.45-.214.483.001l.007.176c.136-.057.174-.244.26-.351.024.01.071.03.072.058-.057-.254.34-.087.445-.332.32-.009.748-.233.936-.124.2-.147.378-.303.652-.333-.044.04-.112.07-.109.128.185.02.204-.058.338-.146-.02.048.37.04.577.07.2-.146.08-.255.077-.343.283.177.581-.362.91-.224-.067.059-.289.225-.083.226.283.177.355-.313.723-.303l-.147-.176c.188.078.449-.274.481-.057.087-.109.41-.06.31-.245.597-.008 1.287-.526 1.734-.281.067-.058.272-.087.2-.176-.165-.068-.155.137-.227.078.067-.03.065-.088.064-.117.183-.01.32-.038.214.177.414 0 .278-.46.78-.538.005.089.051.108.187.05l.22-.225c.319-.068.235.128.287.264.157-.077.361-.135.403-.263l.256.11c-.186-.08.11-.128.176-.187l-.067.06c.05.047.229-.05.32-.099-.05-.078-.257-.05-.371-.04.065-.088.2-.116.289-.224.006.148.3.01.435-.018.16-.02.13-.177.176-.186.027.07.25-.068.164.068-.044.04-.14-.03-.204.06.116.02.144.145.32-.01.134-.117-.126-.255.196-.264-.067.059-.063.117-.107.185l.298-.018-.029-.127c.048.019.025.038.048.049.04-.157.407-.176.422-.342.135-.058.32-.01.457-.038l-.022.019c.186.02.386-.098.495-.225l.002.03c.091-.02.294-.106.381-.215.255.02.227.442.424.206.225-.077.282-.34.165-.39.435-.049.833-.4 1.273-.33.043-.07-.004-.089.107-.157.615-.145 1.217-.555 1.772-.467-.157.108.029.127.055.196.108-.156.21.06.2-.147-.051-.107-.054-.166-.238-.156.338-.176.881-.351 1.114-.311-.116-.02-.05-.079.017-.137.031.186.304.128.483 0l-.007-.117.165.07c.066-.06.011-.255.243-.215.024.038.049.077.095.097.178-.156.42-.4.673-.38l.235.098c.09-.048.22-.195.037-.187.412-.028.662-.095.828.002.55-.546 1.5-.868 2.272-1.092l.004.089c.23.01.06-.176.222-.167-.041.1.211.118.08.265.322-.01.334-.263.513-.362-.005-.115-.132.118-.139-.029.02-.049.434-.048.427-.224.095.039.076.176.057.254l.154-.136c.28.118-.39.498-.086.656l.158-.079c.212.118-.376.332.058.256.154-.138.233-.422.05-.441.36-.166.049-.44.457-.558.14.06-.316.127-.195.235.232.069.358-.196.542-.205-.208 0-.102-.214.01-.283.23.01-.084.196.212.118.018-.109.263-.264.01-.255.037-.245.322-.039.427-.254.143.118-.188.44.155.411-.097-.127.331-.322.094-.48.139.001.188.11.125.227.208.03.35-.401.5-.137l.014-.166c.072.03.163.04.28.089.159-.048.444-.362.501-.137.043-.039.406-.145.218-.253-.254-.021-.221.195-.412.028.212.118.315-.126.426-.224l.049.079c.066-.058.249-.097.267-.205-.043.068.006.116.075.117l.038-.156c.292-.166.148.204.44.068l-.199.176c.044-.038.187.05.32-.038.018-.137.078-.313.097-.421.155-.108.12.109.25-.068l-.176.215c-.02.05.213.147.441.07.133-.088.305-.333.053-.323.114-.039.299-.019.236.097.247-.125-.076-.116.125-.263.118.05.44.07.65.129l-.17.274.156-.05c-.15.225.142.09.082.293.115-.007.226-.106.314-.183-.398-.168.23-.48.061-.696.405-.204.46.51.78-.018-.093-.04.057-.294-.19-.137.275-.058.102-.304.447-.303-.199.175.33.168.042.422-.004-.089-.207-.002-.251.038.14.059.057.254.329.166.157-.077.383-.155.31-.272-.053-.138-.25.097-.189-.08.315-.155.439.04.495-.252-.202.086-.301-.041-.329-.138l.224-.137-.017.108c.41-.059.06-.206.446-.303l.236.127c-.039.187-.571.107-.42.343.248-.068.286-.226.54-.234-.045.039-.113.068-.157.107.091-.02.289.294.574-.019.155-.136.018-.107-.01-.205.385-.157.47-.293.719-.39.009.206.453-.127.236.157-.165-.069-.73.125-.811.35.215.177-.319.07-.33.323.317-.097.373.128.47.255.09-.018.156-.106.2-.146-.006-.147-.12-.108-.172-.246.364-.077.679-.262.83-.457.14.03.146.177.011.235.406-.176.86-.302 1.27-.39-.328-.138.427-.195.192-.322-.23.02-.463-.08-.378-.217.138-.028.027.099.098.128.13-.176.327.108.431-.136-.359.195.013.294-.001.49.244-.187.028.127.3.039.244-.186.557-.37.851-.507.437.04.973-.311 1.314-.43.207.03.15.266.355.237.227-.078-.238-.157.13-.176l-.02.05c.087-.08.662-.068.671-.382l-.035.246c.069-.001.112-.069.157-.108.025.068.118.107.03.186.256.079.43-.165.656-.245l-.187-.078c.357-.224.657-.184 1.018-.349l.029.127.2-.146c-.017.136.213.147.299.01l-.484.488c-.184-.02.129-.205-.012-.294-.12-.078-.457.068-.475.204.138-.029.135-.058.224-.136.1.157-.105.216-.168.362.068-.03.184-.01.181-.068-.11.128-.243.186-.47.263.133-.116-.118-.079-.076-.146.03.156-.172.273-.468.322-.258-.109-.493.283-.835.34.083-.194.213-.371.392-.498-.23-.01-.227.078-.458.068-.062.146-.077.343-.322.499l-.05-.108c-.225.136-.17.303-.49.37-.546.117-1.09.293-1.498.409l-.051-.107c-.147.313-.72.33-.987.535-.55.058-1.083.468-1.409.36-.88.38-1.645.72-2.598.984l.105-.215c-.13.175-.14-.059-.298.019.232.07-.174.243-.258.381-.46.009-.952.32-1.286.555l-.051-.108c-.307.333-.814.293-1.293.41-.068-.03-.187-.108-.322-.05-.195.263-.332.293-.667.527a5 5 0 0 1-1.025.203c-.939.586-2.034.76-3.046 1.257l-.12-.108c-.937.616-2.285.769-3.117 1.197l.012-.253c-.298.02-.609.262-.487.4-.298.02-.653.332-.889.203-.295.05-.312.216-.536.323-.593.097-.796.184-1.315.399l.136-.029c.043-.068.017-.166-.12-.138-.179.127-.75.176-.466.381-.62.028-1.285.556-1.907.525.072.058-.064.118-.106.186-.498.164-1.071.184-1.43.438-.09-.011.087-.166-.119-.108-.111.067.028.097-.106.186-.764.399-1.683.387-2.406.66-1.261.566-2.648.935-3.892 1.363l-.003-.058c-.352.342-1.052.106-1.286.526-.116-.02-.386.098-.346-.03-.287.254-.98.164-1.402.506.046-.01.067-.029.111-.069-.526.039-.903.341-1.452.4.044-.04.133-.089.131-.147-.232-.04-.397.38-.59.155-.114.039-.04.157.028.127-1.16.263-2.308.818-3.46 1.257-.891.115-.194-.423-.794-.014-.07-.033-.007.112-.034.061-.232.156-.493-.162-.627.033.125.136-.09.127-.063.226-.547.062-.697-.049-1.063.204l.003-.094c-.398.392-.99.442-1.302.847-2.605.897-5.067 1.862-7.612 2.72-2.543.764-4.975 1.688-7.587 2.371-.673-.027-.716-.007-1.347.297.015-.045.054-.066-.001-.085.025.192-.46.167-.466.36-.96.273-1.817.605-2.792.922.148-.07.178-.242-.002-.171l-.154.178-.048-.041c-.116.067-.224.201-.076.218-2.4.95-4.93 1.365-7.315 2.185-.595.108-1.383.441-1.99.679-1.915.35-3.633.69-5.443 1.463 0 0 .092-.55.827-.907M68.01 275.93c-.094-.07-.324-.05-.193-.227.049.079.19.139.194.227"/><path d="M62.01 276.839c0 .029-.094-.011-.117-.02.068-.03.11-.128.18-.099-.068.03-.044.07-.064.119M60.535 277.256c-.005-.089.286-.253.468-.323zM59.068 277.36c-.139-.03-.119-.077.04-.126.024.04-.02.078-.04.127M59.031 277.577c-.112.038-.183.009-.253-.02.027.068.247-.128.253.02M56.005 278.295c-.069.03-.2.147-.296.078.095.039.312-.214.296-.078M54.677 278.86c-.046.009-.069 0-.113.039-.092-.01-.026-.097.04-.127zM29.84 287.25l.135-.087.003.086zM18.915 290.789c-.13.098-.127-.042-.155-.046.13-.052-.017.115.155.046M13.154 293.099l.043-.017.038.17z"/></g><path d="M99.395 116.76c.447.278.657.542.98.949.166 5.235.013 11.433.017 16.732h21.034l.017-16.24c.264-.33.636-.67.943-.968.39.343.57.573.898.98.173 6.371.016 13.6.016 20.035l.001 8.67c0 .943.17 4.658-.28 5.224-.24.223-.341.344-.669.414-.34-.04-.652-.422-.91-.678-.163-4.85-.015-10.659-.004-15.584-2.716-.087-5.711-.032-8.447-.032l-12.607.023-.01 15.535c-.255.301-.598.622-.884.904-.271-.237-.627-.62-.889-.884-.094-1.83-.038-4.084-.036-5.94l.001-10.257-.005-11.446c0-2.104-.054-4.518.038-6.6.19-.23.576-.607.796-.837M200.27 127.22c2.744.074 7.014-.484 9.111 1.106a4.33 4.33 0 0 1 1.702 2.947c.345 2.638-1.36 4.742-3.975 5.08 1.074 1.419 4.022 4.69 4.754 5.958-.556.01-1.183.143-1.536-.301-1.36-1.47-3.124-3.84-4.438-5.462a233 233 0 0 0-4.415-.03c-.053 1.88-.01 3.89-.039 5.792a6.5 6.5 0 0 1-1.025-.07c-.267-.303-.144-13.368-.138-15.02m1.155 8.354c2.47 0 5.618.42 7.512-1.106.708-.897 1.14-1.76.995-2.94-.52-4.226-5.477-3.078-8.52-3.198.005 2.283.082 4.997.013 7.244M249.154 127.22c2.496.071 7.159-.478 9.096 1.116 2.992 2.463 1.968 7.46-2.31 8.008.648.885 4.525 5.256 4.52 5.819-.499.358-1.023.158-1.384-.256-.947-1.067-3.516-4.225-4.305-5.375l-4.447-.017c-.002.714.054 5.416-.095 5.715-.327.06-.62.035-.95.022-.221-.307-.184-1.023-.173-1.417.126-4.52-.098-9.103.048-13.616m1.139 8.354c2.177.003 5.972.39 7.497-1.13l.016-.017c1.67-2.095 1.281-5.01-1.494-5.889-1.506-.477-4.355-.15-6.03-.206zM168.4 127.223c2.512.06 7.786-.584 9.603 1.417 3.012 3.317 1.257 8.364-3.613 8.499l-4.792.007c.01.99.094 4.277-.043 5.034-.247.14-.804.118-1.117.126-.127-4.814.188-10.383-.037-15.083m1.205 8.878c2.48.016 5.929.5 7.691-1.218.548-.655 1.089-1.75 1.056-2.609-.194-5.064-5.621-3.836-8.75-3.938z"/><path d="M102.064 119.432c.226.11 1.545 1.449 1.817 1.717.066 3.253.01 6.706.012 9.975 4.2-.163 9.752-.06 14.016-.005l.02-9.403a17.6 17.6 0 0 1 1.865-1.817c-.022.54-.015 1.173-.022 1.72l-.006 11.393c-5.781-.116-11.908-.014-17.716-.013zM102.035 137.776c5.895.003 11.858.047 17.747-.018-.015.48-.014.99-.007 1.472.048 3.627-.083 7.293.023 10.916-.668-.6-1.243-1.193-1.87-1.838-.042-2.285-.007-4.71-.008-7.004l-.002-1.663c-4.559-.085-9.46-.032-14.03.004l-.004 8.728c-.502.533-1.266 1.226-1.812 1.772-.098-4.069.008-8.276-.037-12.369M124.931 119.825c.522.295 1.579 1.698 1.867 2.248.155 8.564.012 17.62.014 26.234-.314.25-.665.629-.953.923-.352.386-.494.49-.923.792zM272.136 127.045c3.536-.32 5.758 1.252 7.308 4.357-.81-.011-1.154.08-1.633-.668-.96-1.48-1.664-2.081-3.416-2.445-6.632-1.38-10.058 5.866-6.475 10.846 2.702 3.754 9.822 2.534 10.689-2.283.075-.416.158-.835.225-1.26-1.006-.144-5.35.16-5.794-.194-.029-.229-.094-.605-.048-.817.4-.172 6.084-.112 7.038-.115-.094 2.05-.313 3.753-1.615 5.409-2.451 3.12-7.274 3.397-10.315 1.022-3.292-2.574-3.63-7.908-1.169-11.134 1.281-1.68 3.168-2.47 5.205-2.718M96.694 119.46l.16.166c-.021 10.171.028 20.343-.01 30.514-.22-.274-.5-.553-.745-.81-.332-.293-.69-.668-1.007-.985-.087-1.42-.068-3.027-.043-4.454.133-7.56-.19-15.235.03-22.783.416-.48 1.124-1.114 1.615-1.649M133.908 127.213c.361.01.782-.003 1.149-.004q.025 3.3.006 6.603c2.893-.05 5.928-.002 8.833-.002l.008-6.568 1.177-.029c.087 3.188-.008 6.54.029 9.742.011.985.06 4.434-.074 5.238-.242.145-.813.099-1.123.095l-.001-7.385c-2.436.136-6.29.009-8.854.002.05 2.106-.022 4.275.038 6.387.01.372-.146.829-.433 1.08-.328.096-.203.11-.498-.048-.457-.603-.282-4.334-.282-5.266zM234.055 127.22c2.826.086 5.755-.054 8.601.043.143.156.122.791.129 1.044-2.371-.08-5.15-.015-7.552-.015l-.009 5.71c.79-.05 6.837-.13 7.095.092.013.28.04.536-.039.806-.526.135-6.152.064-7.047.062l-.011 6.175 7.615.005-.041 1.136q-4.365-.024-8.729.009c-.165-4.66-.042-10.34-.012-15.067M285.914 127.212c2.718.085 5.608-.103 8.329.083.274.02.29.107.43.313-.055 1.027-2.075.687-2.853.685l-4.823-.004c.025 1.889.004 3.83.007 5.723.827-.047 6.942-.157 7.227.07-.006.34.056.61-.118.829-.737.117-2.092.061-2.878.056l-4.19.001c-.148.493-.043 5.432-.04 6.17l7.599-.001c-.002.448.001.649-.095 1.084-.724.243-7.183-.004-8.591.102-.116-4.86-.008-10.214-.004-15.11M185.282 127.22c2.281.066 4.608.005 6.893.02.562.004 1.077-.088 1.635.033.105.38.137.475.065.87l-.163.173c-1.888-.034-5.646-.055-7.347.021-.045 1.828-.016 3.778-.02 5.616 2.05.106 5.199-.153 7.102.063.189.306.155.632-.003.934-.518.055-1.826.014-2.389.012l-4.72-.004c.045 2.015.01 4.148.01 6.172 2.519.038 5.11.012 7.633.013.002.372.037.73-.118 1.066-.433.158-7.586.068-8.587.08-.109-4.78-.053-10.266.009-15.069M227.236 127.203c.391.022.861.014 1.26.018-.228.467-.473 1.18-.663 1.68-.075.154-.157.316-.223.473-1.876 4.431-3.593 8.956-5.563 13.345-.556-.95-1.048-2.248-1.484-3.29l-2.189-5.266c-.636-1.531-2.44-5.61-2.777-6.928.259-.007 1.126-.074 1.245.174.646 1.343 1.182 2.799 1.735 4.182a585 585 0 0 0 3.492 8.586c.687-2.076 1.791-4.677 2.611-6.729.782-1.955 1.69-4.39 2.556-6.245M161.645 127.23l1.331-.023c-.838 1.481-1.965 3.147-2.898 4.596-.844 1.37-1.765 2.763-2.639 4.118-.14 2.034-.015 4.355-.086 6.448-.37-.084-.76-.07-1.14-.07-.037-2.101 0-4.2-.044-6.315a434 434 0 0 0-3.644-5.658c-.524-.81-1.522-2.27-1.91-3.09l1.24.011c1.412 1.815 3.592 5.46 4.894 7.505.494-.581 1.367-2.024 1.816-2.727a478 478 0 0 1 3.08-4.794"/></svg>