<svg xmlns="http://www.w3.org/2000/svg" width="390" height="270" viewBox="0 0 390 270"><rect width="390" height="270" fill="#fff" stroke="#d9d5c9" rx="6" ry="6"/><path fill="#fc6b7e" d="M404.544 61.896c-.064-.645-.418-.224-.667-.189l-1.25-.252c-.36-.059-.899-.585-.881.35-1.049-.257-2.1-.36-3.162-.075-.023-.069-.04-.193-.069-.196-1.49-.153-2.98-.493-4.477-.055a2 2 0 0 0-.199-.061c-.084-.518-.306-.558-.646-.195-.73.381-1.42-.24-2.14-.085-.966.154-1.865-.177-2.784-.38-.112-.024-.256.101-.386.157-.259-.08-.513-.188-.778-.232-.509-.087-.043.248-.133.35l-1.26-.06c-.347-.584-.806-.457-1.285-.213-.53-.06-1.088-.027-1.511-.458.1-.354.509-.363.68-.637l.408-.684c-.01-.328.178-.425.46-.415.209-.495 1.095-.455.936-1.239l.387-.034c.4.14.367-.386.643-.438.494.294.764.242.632-.429l-.405.043-.162.193.162-.193.405-.043c.224-.403.432-.059.646.013.32.082.486-.037.477-.384.11-.195.367-.226.473-.346.393-.445-.142-.231-.26-.323.049-.383.814-.025.635-.643.122-.036.27-.043.253-.235.317.084.412-.114.46-.375.517.059.996.056 1.012-.674l.27-.222c-.039.276-.005.51.325.567.269-.287-.104-.937.546-1.01l.208.054c.534.363.445-.27.654-.427.036-.388.71-.457.473-.982.28-.07.746.343.799-.32l.255-.243c.266.063.375-.118.47-.32.646-.111.863-.752 1.31-1.11l.833-.662.014.003c.902.167 1.235-.152 1.325-1.27l.412-.032c.5.12.394-.464.671-.603.355.081.528-.135.659-.42.383-.082.912.032.839-.658a.3.3 0 0 0 .027-.2c.223-.29.792-.098.84-.63l.282-.427c.516-.28.591-1.195 1.755-.805l-.887-.708c-.084-.3.2-.676-.177-.916.046-.674-.352-.345-.628-.29-.59-.174-.887.08-.95.678-.755-.115-.895.686-1.37 1.002-1.18.784-2.25 1.739-3.365 2.625-.558.299-1.223.444-1.531 1.105-.86.067-1.132 1.142-1.989 1.215-.576-.022-.8.337-.88.85-.234.018-.456.05-.443.374-.285.231-.866.112-.826.728-.443-.034-.453.487-.78.625-1.044.441-1.833 1.265-2.719 1.946-.524.01-.748.29-.697.815-.334.108-.746.125-.986.342-1.259 1.132-2.677 2.043-3.99 3.098l-.597-.576c.117-.324.656-.563.193-1.004.279-.717.444-1.438.076-2.178.338-.086.574-.243.433-.661l.323-3.016c.251-.245.314-.482-.033-.698-.154-.823.486-1.572.218-2.405.37-.325-.133-.695-.063-.813.692-1.163-.061-2.398.234-3.564.086-.216.384-.423.031-.66l-.28-.438c.15-.517.213-.906-.471-1.171a.547.547 0 0 0-.728.3c-.146.744-.813 1.319-.67 2.146.161.289.266.576-.015.857.019.371-.287.73-.041 1.11l-.102 1.546c-.32.569-.68 1.138-.023 1.72-.698.93-.41 2.028-.504 3.061-.262.072-.144.287-.161.45l-.128.39c-.51.316.039.62.01.93-.466.67-.238 1.422-.251 2.146-.223.72-.454 1.44-.195 2.203-.347.649-.666.843-.967-.037-.035-.102-.22-.151-.338-.225.131-.516-.223-.62-.584-.72-.047-.221.038-.485-.196-.647-.123.22-.296.429-.288.68-.008-.251.165-.46.287-.68-.345.053-.617.185-.696.527.079-.342.351-.474.695-.529l-.458-.652c-.209-1.425-1.627-2.081-2.05-3.37-.554-.303-.424-1.04-.86-1.418l-.407-.731q.025-.201-.17-.238c-.058-.141-.037-.336-.246-.373q-.05-.102-.16-.078c-.135-.304.124-.812-.44-.894.175-.685-.458-1.007-.714-1.458-.62-1.086-.926-2.39-1.964-3.207-.121-.284-.292-.493-.635-.449-.265-.406-.663-.305-.645.055.02.368-.342.715-.048 1.07-.43.703-.06 1.226.371 1.735-.454.775.43 1.22.443 1.88l.381-.072q.028.082.049.166c.014.427-.149.924.427 1.127.065.373.228.685.54.904-.028.197.001.369.197.466l-.011.09.024.086-.192.192c.047.354.26.496.594.484-.42.91.365 1.16.832 1.582.424.38.317 1.195 1.041 1.33l.18.395c-.353.413-.32.712.242.854.14.564.922.53 1.015 1.137-.215.08-.266.345-.173.426.627.54.806 1.505 1.657 1.824-.037.31-.266.655.158.877-.108.412.386.377.5.634-.297.26-.63.176-.933.228-.222-.334-.45-.643-.851-.207-.287.025-.556-.243-.852-.051-.329-.403-.583-.034-.86.087-.448-.007-.839-.549-1.331-.15l-.38.206a2 2 0 0 0-.02-.157c-.492-.724-1.158-.27-1.757-.265l-3.57-.307c-.497-.369-1.035-.044-1.55-.095l-.368-.166c-.907-.212-1.82-.382-2.755-.363-.309-.43-.745 0-1.092-.169-.267.04-.435-.158-.634-.279-.082-.155-.537-.15-.675-.165a13 13 0 0 0-1.341-.058c-.65 0-2.17-.097-2.186.927 0 .047.004.094.026.135a.3.3 0 0 0 .07.08c.065.057.63.332.634.343q.112.336.43.19c.358.005.445.534.846.455.298.17.526-.302.828-.096.088.284.28.147.446.114.281.096.507.359.843.284.071.067.136.182.216.194 2.635.394 5.272.778 7.908 1.163.578.27 1.153.278 1.724-.022 1.337.258 2.672.556 4.047.313.3.423.731.087 1.085.198l.223.038c.354.28.708-.317 1.062 0l.394.053c.018.277-.12.452-.313.641-.999.98-2.188 1.767-2.936 3-.837.204-1.015 1.139-1.685 1.606-.563.393-1.103 1.05-1.6 1.641-1.22 1.45-2.655 2.68-3.98 4.02l-.847.648-.015.019c-.338.61-1.213.678-1.398 1.444-.624.482-1.337.882-1.85 1.466-.667.76-1.342 1.476-2.208 1.99a4.86 4.86 0 0 0-1.769 1.933c-.13 1.126.23 1.394 1.86 1.381-.014.356.054.47.418.246.528-.325.687-.962 1.163-1.317.354.043.468-.129.397-.465l.45-.404c.714-.141.884-1.013 1.556-1.21.437-.143 1.035-.159.692-.916q.107.004.149-.097c.668-.252 1.35-.492 1.328-1.42.376-.011.588-.23.694-.579.472-.047.736-.411 1.044-.709.159-.012.45.227.381-.212q.147-.136.292-.273c.538-.11.841-.506 1.11-.945l.39-.234c.572.134.607-.292.679-.68l-.059-.215c.19-.272.898.08.722-.63.205-.119.423.284.587.008.051-.086-.098-.295-.155-.448l.54-.312c-.696-.713.372-.26.34-.536.266-.09.624.08.79-.292l-.338-.148c-.043-.498.682-.366.663-.844.342-.12.13-.447.235-.656.38-.26 1.033-.001 1.202-.662l.304-.17.213-.215-.21-.67-.006-.062.006.062.21.67c.725.02.075-.469.234-.658.322-.07.72.023.863-.424l.89-1.288c.403.251.871-.86 1.242.06l.062.385c.181.39-.872.695-.077 1.129l-.003 1.078c-.062.566-.164 1.132-.172 1.699-.006.382-.08.887.53.944l-.22.442c-.384.22-.37.605-.374.972-.01.83-.006 1.658-.008 2.487-.182.105-.088.276-.098.422-.005.336-.723.43-.298.911.096.506.293.998.208 1.53-.147.19-.446.518-.418.55.619.716-.193 1.378-.054 2.06-.405.285.08.594-.023.887-.178.926-.354 1.852-.362 2.8-.917.478-.346 1.303-.443 1.972l.031 1.333c-.027.368-.267.818.193 1.044.497.245.718-.249 1.011-.518l-.004-.024.948-.119c.375-.152.375-.152.22-.773-.014-.514-.014-1.026.176-1.516.09-.206.653-.221.246-.63l-.006-.01c-.102-.312-.35-.64.2-.817.116-.037.002-.24-.16-.274-.009-1.043.611-1.99.444-3.057.33-.416.098-.878.104-1.32-.362-.413.922-.738.06-1.176l.047-.99a.13.13 0 0 0 .16 0c.493-.457.074-1.05.222-1.557l.05-.208c.18-.212.274-.43.037-.666l-.068-.43c.073-.342.009-.692.26-1.02.384-.501-.069-.49-.386-.524.394-.436.532-.94.395-1.519a5.1 5.1 0 0 0 .053-1.968c.317-.48.163-.772-.35-.922-.02-.304.787-.05.394-.607.02-.296.096-.524.464-.412.107.207-.108.506.18.662.252.16-.574.707.229.668l.394.216c.156.467-.028 1.1.622 1.325-.39.905.564.884.865 1.313.102.264-.169.62.192.82.303.03.591.1.81.34q.054.523.45.856l.472 1.515c.066.588.517.86.918 1.175.29.199.151.907.859.654.35-.125.357.341.403.618-.298.24-.334.56.079.548.53-.018.446.31.506.6-.038.509.084.887.684.874.268.284-.384.724.155.961a.81.81 0 0 0 .634.415c.118.261-.311.64.16.82.147.056.267.003.246-.197.019-.03.033-.067.06-.089.02-.017.055-.018.083-.025.05.77 1.226 1.105.768 2.079-.052.11.09.1.137.144.71.653 1.07 1.617 1.864 2.2-.325.808.05 1.61.873 2.058.65.353.805.054.834-.53q.1-.01.198-.037c1.044-.119.908-.818.725-1.54.135-1.112-.893-1.563-1.29-2.373-.296-.924-1.178-1.495-1.41-2.456.033-.338-.17-.518-.424-.665-.386-.831-1.05-1.47-1.482-2.298-.337-.646-.592-1.457-1.195-1.963-1.139-.956-1.857-2.293-2.567-3.514-1.178-2.026-2.666-3.854-3.653-5.996-.481-.556-.498-1.438-1.225-1.822l-.47-.865c.09-.973.621-.117.918-.232l.425.014 3.431.11c.368.418.864.107 1.283.232 1.74.049 3.496-.046 5.21.184 1.903.254 3.801.178 5.7.281.375.086.739.073 1.074-.149 1.342.623 2.74.334 4.115.214.947-.081 1.297-1.298.657-2.088m-7.416-13.525c.058.075.068.123.052.158.016-.035.006-.084-.053-.158m-3.485 1.266c-.13.216-.183.5-.185.83.002-.33.056-.614.185-.83m-5.66 5.233v.049zm-4.13 3.471-.225.008zm-12.049-8.169.221.004q-.11 0-.22-.004m4.077 7.55-.583-.903zm-16.179 1.364c.074-.1.058-.283-.124-.456.182.173.198.356.124.456m2.447 19.776c.13-.09.173-.212.192-.342-.02.13-.061.251-.192.342m.808-.476.026-.389zm1.805-2.54c-.193-.07-.387-.138-.696.026l-.013.026.012-.025h.001l.027-.055c.009-.021.077-.115.056-.162l.021-.027zm2.863-2.551-.45.643zm9.868-10.068c.073-.14.145-.236.235-.273-.09.037-.162.133-.235.273m11.231 15.146.45.233c.19.076.206.248.224.42.171.084.347-.113.5-.113-.153 0-.329.197-.5.113-.018-.172-.035-.344-.224-.42zm-1.036-1.338c.31 0 .395.313.605.452-.21-.14-.295-.452-.605-.452m-1.854-3.535c.098-.018.205-.087.31-.138-.105.051-.212.12-.31.138m-2.271-2.768c.059.152.39.16.538.263-.149-.104-.48-.11-.538-.263m-3.425 4.174q.027.026.055.026a.08.08 0 0 1-.056-.026m.352-27.595c-.024-.39-.059-.78-.07-1.17.011.39.045.78.07 1.17l.819.02zm1.318 13.38-.16-.423zm2.909.432c.15.003.3.04.45.074-.15-.034-.299-.07-.45-.074m.523.088"/><g fill="#82c6dd" opacity=".9"><path d="M17.755 234.952c.166.543-1.374 1.968.71 1.687l.962 1.127.302-1.113 1.204-.106c.98.268.416-1.298 1.324-1.115.319.414.991 1.44 1.048.94.205-1.787 2.376-3.538.358-5.44 1.224-2.175.105-4.169-.492-6.196-.383-1.302-.89-2.8-2.487-2.634-1.34.139-2.43 1.15-2.817 2.62-.94 1.12-3.57 1.916-.72 3.76-1.102 2.272-.03 4.376.608 6.47M2.584 213.835c.5 1.092.76 2.519 2.542 1.816 3.47 1.204 2.748-1.166 2.604-3.042 3.138-1.062 1.268-2.18.03-3.291.188-1.178.092-2.247-1.418-3.083 1.246 1.544-.195 1.752-.74 2.385-1.048-.043-1.04-.835-1.117-1.57-.754 1.09-2.02.334-2.942.815 1.066 1.864-1.106 4.294 1.041 5.97m4.416-.02c.024-.219.048-.437.114-.63-.066.193-.09.411-.114.63l-.605.009zM3.83 241.107l-.602-.604zc.79-1.812 1.57-3.626 1.257-5.682-.123-1.248.893-2.685-.617-3.702a1.1 1.1 0 0 0-.607-.104c-.625-.867-1.274-.682-1.934-.045-.512 1.073-2.721-.114-2.53 1.898-2.902 1.811-1.623 4.396-1.751 6.973-.099 1.986 1.01 1.943 1.747 2.71 1.216-1.249 4.134 1.184 4.435-2.048M-4.321 199.536c-.06.485.43.97 1.021.374.13-.131.14-.382.204-.578 1.2-.53 1.033 1.14 1.883 1.172 1.406-.862.542-2.335.936-3.47l-.858.235-.068-1.2c2.049-2.106-2.131-3.422.223-6.069-1.91.833-2.845 1.603-3.758 1.578-4.35-.12-2.615 2.405-2.068 4.45-1.775 2.974 2.733 1.518 2.485 3.508M22.912 251.874c-.68-.454 1.698-1.977-.647-1.85-2.092.563-3.574 2.12-5.31 3.263-.234 1.188-.03 2.265.81 3.18-.39 1.605.94 1.883 1.892 2.452 2.35 1.485 3.58 1.024 3.369-1.94v-1.036c.807-.191 1.011-.815 1.091-1.526 1.37-1.688-.506-1.836-1.205-2.543M10.337 256.887c1.364-1.057.314-3.111.07-2.932-2.096 1.536-2.465-1.89-4.047-1.208-.756-.075-1.43-.529-1.752.867-.697 3.02-2.025 5.934-.636 9.082-.32.614-.013 1.303-.467 1.989-.831 1.258-.897 2.555.878 3.183-.179.376-.723.596-.489 1.15.787 2.585 2.956.736 4.355 1.356 1.858.088 1.369-1.666 1.997-2.543.772-.638.47-1.31.065-1.985-.243-2.102 2.031-4.276-.184-6.32l.208-.62c.636-.68 2.069-1.368.002-2.019"/></g><path fill="#141314" d="M181.827 128.615c1.182.032 2.143.109 3.224.643 1.697.839 3.207 2.413 3.775 4.252 1.388 4.498.462 10.75-4.635 12.4-2.215.718-4.538.487-6.422-.95-.299-.23-.423-.542-.784-.723-.316.373-.129 3.822-.112 4.604-.002.918.11 2.197-.07 3.062-.079.377-3.286.213-3.668.039-.58-.667-.002-19.767-.238-22.973 1.198-.072 2.52-.064 3.729-.078.016.486.035 1.768.296 2.155.196-.067.973-1.183 1.259-1.402 1.079-.827 2.363-.897 3.646-1.03m.408 14.187c4.142-.875 4.383-8.122 1.248-10.237-1.042-.704-2.265-.674-3.464-.56-1.295.563-2.376 1.307-2.88 2.72-1.233 3.462-.086 8.604 4.485 8.24.172-.013.444-.104.611-.163M228.084 122.934c4.914-.397 9.61 1.98 9.52 7.433-1.069.011-2.862.07-3.86-.06-.39-1.038-.653-1.843-1.429-2.687-1.362-1.48-5.505-1.483-6.748.128-3.437 4.568 5.124 4.956 7.602 5.902 2.9 1.043 5.014 2.478 5.041 5.808.041 5.135-3.927 7.075-8.493 7.158-5.494.118-9.368-1.867-9.594-7.772 1.023-.052 3.103-.048 4.09.059.18 1 .517 2.281 1.322 2.947 1.773 1.466 4.798 1.607 6.792.522.67-.365 1.054-.805 1.542-1.364.056-.624.028-1.35.017-1.986-1.496-2.063-3.648-2.155-5.957-2.718-2.043-.5-3.707-.969-5.455-2.2-2.402-1.69-2.532-5.735-.842-7.95 1.77-2.352 3.658-2.818 6.452-3.22M149.271 122.929c1.44-.153 2.823-.178 4.26.017-.255 1.655-.163 4.942-.162 6.737l-.005 11.326c-.002 1.045.118 3.868-.04 4.664-.18.255-.322.28-.616.377-1.064-.005-2.297.02-3.344-.083-.054-1.117.128-9.62-.09-10.033-.558-.244-2.832-.19-3.196-.14-1.108.15-6.863-.417-7.347.375-.357.586.357 8.7-.213 9.683-.38.265-3.004.202-3.751.251-.171-1.253-.117-2.764-.115-4.05l.008-5.824-.001-8.727c-.002-1.398-.063-3.173.002-4.538l.173-.115c1.115-.033 2.906-.104 3.973.074-.193 2.742-.12 6.245-.165 9.063 2.382.538 6.16-.002 8.692.204.551.045 1.628.002 1.998-.425.118-.638.032-8.043-.06-8.836M257.939 128.701c1.134-.254 2.833.032 3.958.35 4.786 1.346 4.068 6.224 4.029 10.12-.018 1.845.294 5.414-.249 7.05-1.084-.184-2.26-.047-3.41-.187-.044-.505.098-1.575-.21-1.913-.483.174-1.356 1.245-1.864 1.478-2.93 1.338-6.378.91-8.204-1.829-.603-1.095-.784-2.814-.485-4.023 1.008-4.086 5.708-3.778 9.006-3.909.53-.02 1.05.005 1.518-.298.15-.255.137-.425.107-.712-.248-2.441-1.85-3.339-4.159-3.089-1.776.192-1.94 1.09-2.898 2.32-2.541-.271-4.447.172-1.963-3.036 1.321-1.706 2.73-2.154 4.824-2.322m-1.555 14.058c2.813 1.007 6.256-.609 5.665-3.935-.038-.215-.43-.247-.597-.263-1.515.13-4.752-.039-5.805 1.149-.69.777-.51 2.068.337 2.769q.188.158.4.28M198.56 128.604q.124-.017.246-.025c1.933-.11 4.025.528 5.451 1.849 2.4 2.225 2.407 4.648 2.564 7.642-1.901.189-3.908-.013-5.812.06-2.05.077-4.604-.204-6.591.143.584 2.934 1.905 4.959 5.241 4.599 1.8-.194 2.246-.984 3.287-2.325l1.637.417c.602.122 1.207.174 1.818.239-.311.852-.76 1.937-1.348 2.653-2.431 2.964-8.2 3.242-11.104.903-1.878-1.513-3.055-3.21-3.235-5.622-.203-2.71-.073-5.398 1.787-7.56 1.78-2.116 3.466-2.706 6.06-2.973m-3.821 6.702c1.628.24 3.54.155 5.21.13.635.029 2.234.215 2.674-.158.481-.839-.665-2.544-1.47-2.936-1.184-.577-2.033-.546-3.3-.44-1.748.331-2.765 1.748-3.114 3.404"/><path d="M116.47 137.44c-1.045 1.666-1.526 8.465-3.31 8.669-1.709-.375-2.1-7.538-3.032-8.404-1.297-1.204-6.873-1.432-8.296-2.75a1.13 1.13 0 0 1-.262-.87c.078-.776.847-.593 1.354-.836 1.05-.504 6.352-1.399 6.937-1.96 1.316-1.266 1.505-6.72 2.707-8.36.127-.211 1.307-.208 1.435.055 1.217 2.505 1.225 5.653 2.42 8.164.201.422 1.64.661 2.09.72l2.123.594c1.27.312 2.645.582 3.858 1.064.758.302.41 1.584-.237 1.849-.808.33-1.707.45-2.548.689-1.74.467-3.51.87-5.239 1.376"/><path fill="#141314" d="M156.443 128.901c.897-.02 1.709.002 2.603.03 1.176 3.204 3.388 7.968 4.164 11.044 1.045-1.446 1.61-3.337 2.258-5.038a217 217 0 0 0 2.218-5.97c.838-.058 3.335-.14 4.065.048.15.353-4.948 12.96-5.503 14.34-.906 2.226-1.589 4.498-2.83 6.567-1.423 2.374-5.732 3.264-7.988 1.77-.04-.854.048-2.331.075-3.228 1.484.234 2.207.278 3.703.204 1.02-.598 2.41-2.182 2.09-3.501-.18-.742-.68-1.796-.977-2.523a240 240 0 0 0-2.165-5.166c-1.196-2.796-2.293-5.772-3.644-8.504zM284.744 124.123a19 19 0 0 1 1.832.02c.05.94-.002 2.728-.079 3.661-.336.282-.646.46-.662.912.408.263 4.505.176 5.172.17l-.003 3.07c-1.343-.021-3.107-.073-4.426.098-.088.787-.014 2.497-.025 3.37.054 1.535-.093 3.11.03 4.636.256 3.165 2.387 2.67 4.56 2.457.074.772.22 2.796-.184 3.455-1.71.581-4.562.536-6.088-.554-2.566-1.835-2.129-5.576-2.122-8.32a517 517 0 0 0-.01-5.105c-1.004-.021-1.993-.032-2.995-.118a40 40 0 0 0-.07-2.912c1.313-.059 2.27.105 3.04-1.105.086-1.19-.02-2.453.048-3.682.621-.039 1.351-.038 1.982-.053M242.458 124.122c1.026-.074 2.497.026 3.544.07-.053.907.06 1.953-.054 2.828-.031.24-.658 1.138-.81 1.53.495.51 4.09.348 5.173.42-.064 1.103-.048 1.81.011 2.894-1.019.102-3.578-.035-4.255.24-.315.55-.076 6.611-.11 7.747-.098 3.35 2.236 2.839 4.604 2.742-.077.672-.05 1.101-.018 1.78l-.087 1.554c-3.126 1.044-7.243.362-8.13-3.344-.28-1.168-.146-3.273-.141-4.515q.012-3.009-.01-6.018c-.726-.104-2.218-.103-3.028-.147a38 38 0 0 0-.103-2.943c.663-.032 1.376-.097 2.043-.144.271-.274.698-.798.962-1.105.2-1.226.02-2.235.183-3.41.012-.088.125-.122.226-.179M217.306 128.604c2.642-.175 1.659 1.575 1.834 3.39-.83.026-2.363-.18-3.06-.06-3.792.658-3.427 4.712-3.423 7.334q-.005 2.199.037 4.397c.015.643.169 1.794-.212 2.262-.604.296-2.98.106-3.675-.063-.14-1.115-.071-4.177-.072-5.448q.021-5.723-.033-11.444c1.287-.066 2.5-.063 3.79-.06.004.531-.042 1.58.295 1.946.291-.095.584-.613.823-.875 1.048-1.154 2.274-1.26 3.696-1.38M272.626 128.983c-.109.636-.216 1.213-.26 1.858.544.277 1.23-.767 1.612-1.034 1.42-.997 2.929-.927 4.575-.85-.057.975-.042 1.953.045 2.925-1.823.102-3.43-.054-4.836 1.354-1.37 1.374-1.168 3.726-1.154 5.551.002 1.526.105 5.932-.09 7.277-.814.097-2.685.082-3.571.1-.178-1.008-.077-4.051-.09-5.262-.04-3.963.082-7.984-.032-11.946l1.094-.054c.945 0 1.765.03 2.707.08"/><path d="M95 122.802c1.51-.008 3.105-.043 4.605.032l.015 14.643c0 .614.215 8.202-.375 8.645-.136.103-3.05-.006-3.64-.044a10 10 0 0 1-.605-.063z"/></svg>