<svg xmlns="http://www.w3.org/2000/svg" viewBox="0 0 390 270" width="390" height="270" preserveAspectRatio="xMidYMid meet">
  <rect x="0" y="0" width="390" height="270" rx="6" ry="6" fill="#ffffff" stroke="#D9D5C9" stroke-width="1"/>
  <g transform="translate(260.00 0.00) scale(0.8176 0.8176)"><path fill="#fc5b70" d="M94.2 44.5c2.6-2 2.6-2 5-10.5-2.6 3-5.7 5.8-5 10.5M50.3-33c-.8-.3-2.3.3-2.6 1.8-.3 1.2-1.8 1.9-1.6 3.3-1 2-2.2 3.8-2.6 6l-.2.5c-2.3 4.4-5 8.7-6.5 13.5 0 1-1.4 1.7-.6 2.9 0 .5-1.5.3-.6 1.3C32.3 1 31 6.6 28.8 11.8a10 10 0 0 0-2.5 6.7 7 7 0 0 0-2.2 6c-.4.2-1.2.2-1.3 1-.5 2-2.3 3.7-2.3 6-.5 1.4-2.4 2.4-1 4.2-.3.8-1.7 1.7-.7 2.2 1.4.6 1.1-1.2 1.5-2 1.4-1.1.9-2.7 1-4.2.3-1 2.8-.8 1.9-2.8 2.2-2.2 2.9-5.1 3.7-8l.7-2c1.2-1.5 1.6-3.3 2.1-5.1 2.7-.8 1.9-3.4 2.7-5.2 2-4.5 5-8.6 6.1-13.5 2-.8.4-2 .4-3q1.4-.3 1.4-1.7 2.1-1.4 1.6-4c.2-1.4 2.4-2 1.6-4q1.7-.8.9-2.6l1-1.8c1.8-.5 1.1-2.2 1.7-3.2l.7-1.3c1.4-1 1.5-2.6 2-4 .4-.7 2-1.8.5-2.5m78.2 95.8c-1.8 2.5-4 4.9-3.3 8.2 1.7-2.5 3.3-5 3.3-8.2m4.8-9.8c.2-.5.6-1.4-.5-1.6q-1.4-.2-1.5 1l-1.6 6.4q-1.1 1.4-1 3.2c2-.4 1-2 1.7-2.9 1.8-1.6 2-4 2.9-6.1M42.2-40.6c-.5-.8-.3-2.4-1.5-2.4-1.5 0-.9 1.5-1.2 2.3l-1 3-1.8 4v1.3c-2 2.6-2.4 6-4 9-2 .6.2 2.7-1.2 3.6-1.9 2.8-3.6 5.6-3 9.2-2.7 1-2 4-3.5 5.6-.4 1.8-3 2.9-1.8 5.2C24.8-.6 25-3 27.2-3c.4 0 .8-.6.4-1-.3-.4-1-.3-1.5-.5.5-1.6 3.2-2 2.7-4.2 1-.3 1-1.2 1.2-2-.1-1.4 2.9-2 1-4 1-.5 2-1 1.6-2.5l.5-1.3c1-1.2.5-3.3 2.6-3.6l-.5-1.2c.6-.4 1.5-.5 1.1-1.5.6-2.1 2.2-3.9 1.7-6.3l.3-.6 1.2-3.3c1-1 1-2.2 1.4-3.3 1.1-.4 2.3-.6 1.3-2.3m18.7 51.2q.8-.9.5-2.1c.4-1 1.6-1.7.6-2.8-.3-.4-.8 0-1.2.2-1.3.8-.3 1.6 0 2.4-.7.7-4-.4-1.8 2.4-2 1.3-.2 4-2 5.3-.7 1.2-1.5 2.5-.2 4.1 0-1.7 1.3-2.8 1.7-4.2.5-1.9 2.4-3.2 2.4-5.3M121.7 80q-.3-.5-1.2 0c-2.3 1-.3 2.8-.8 4.3v.3c-1.5.1-2.3 2.7-1.5 4.8 1-1.4 2.2-2.7 2-4.6 1-1.4 2.2-2.8 1.5-4.7m2.1-6.7q-1.6.5-2.1 2.2l1.5-.5-.8 3.7q1.8-2.3 2.6-4.9c.4-1.6-.4-1.1-1.2-.5m12.5-30.1q-1.3 3.6-3 7 3-2.7 3-7M54.9 22c-2.2-.3-1.7 2.8-2.6 4.3q-1.2 1.4-.3 3.2c1.2-.7 1.4-1.7 1.6-2.7.4-1.7 2.4-4.5 1.3-4.7M115.4 96c2.2-1.6 1.8-3.9 2.2-6-1.2 1.8-2.4 3.5-2.2 6M18.7 38.6c-2.2 1.6-1.8 4-3.1 5.4-.5 1.2-1.4 2.3 0 3.6.6-1 1.3-1.9.8-3.1a9 9 0 0 0 2.3-6m112.4-24.9c2.3-1.1 1.5-3.4 2.1-5.3-2.7 1-1.8 3.4-2 5.3m-25.7 2.5a8 8 0 0 0 2.7-4.2q.1-1.1-.9-1.3l-.8.4c1.2 2-1.5 3-1 5.1M1 54c1-2.1 1.1-2.7.9-4-.5 1.4-1.3 2.5-1 4M21.2 5.3c-.1-.2-1.2 0-1.3.7s-.3 1.6.4 2c.2.2 1-.4 1.5-.7q-.1-1.2-.6-2m114.7-1.9c-2.2 1.5-2.4 3.3-2.7 5 1.8-1 1.7-3 2.7-5M48.6 32.9q.2 1.6 1.5 1.9c.1 0 .8-1 .6-1.4-.3-.9-1.3-.4-2.1-.5M13.1 20c.7 2-1 2.8 0 4.5.7-1.3 1.7-2.3 0-4.5M63.3 2.3c2-.2 2-1.6 2.5-2.6L64.5-1z"/><path fill="#fc5b70" d="M67.5-6.6c-2.3.1-.2 2-1 2.6l-2 3 1.3.7c.9-1.8 2.4-3.2 2.4-5.4L69.7-9c.4-1-.3-1-1-.8 0 1.2 0 2.5-1.2 3.3M17.6 13q-.9-.6-1.4.4-.2.9.5 1 1 .3 1.4-.7-.1-.4-.5-.8m112.2 3.4c1.4-.5 1.5-1.5 1.3-2.7q-1.7.8-1.3 2.7m-81 20.3q-1.5 0-1.6 1.4c-.8 1-2.4 2-1 3 .8.8 1.3-1 1.9-1.7 1.2-.7 0-1.9.7-2.7m-4.7 8.6c-2.2.7-1.7 3-2.4 4.4-.7 1.7-2.1 3.2-.8 5.8l1.8-4.6 1.8-4.6c.5-1.3 1.5-2.3 1.2-3.9-1.5.6-1 2-1.6 3m71.3 6.1c1.8-.5 1-2 1.4-3-1.5.5-1.6 1.7-1.4 3M142 28.7c-2.3.8-.5 2.4-.6 3.7l.8-2.2q1.3-.2 1-1.4c-.2-.8-.8-.5-1.2-.1m-40.9-2.2c-.2.4-.4 1 .3 1q.4.1.7-.2.4-.9-.3-1.2-.3 0-.7.4M7.6 36.8a.7.7 0 0 0-1.2.3l.2 1.3 1.2-.5c.6-.4 0-.8-.2-1m110.1 8.9c-1.1.8-.3 1.9-.9 2.6q1.8-.7 1-2.6M88.5 59.6q-.8-.4-1 .4l.6.9.8-.5zM8.2 34.4c.6.2.6-.4.9-.8l-.2-.8-1 .8zM109.4 8.6l-.1-1-1.1.6v1zm29.5 27.9q-1-.1-1.2.9l.3.9 1.2-.9q.3-.8-.3-.9M12 25.1q-.6.6-.7 1 0 .6.3.8.6.3.8-.3z"/></g>
  <g transform="translate(0.00 181.00) scale(0.8065 0.8065)"><path fill="#82c6dd" d="M30.6 26.9c0-.8-.5-.3-.8-.2l-1.6-.3c-.4-.1-1-.8-1 .4a8 8 0 0 0-4-.1v-.2c-1.8-.2-3.7-.7-5.5-.1h-.2q-.2-1-.8-.3c-1 .4-1.8-.3-2.7-.1q-1.8.1-3.4-.5l-.5.2-1-.3c-.5-.1 0 .3 0 .4H7.4c-.5-.8-1-.6-1.6-.3q-1 .2-1.9-.6l.9-.7.5-.9q0-.6.5-.5c.3-.6 1.4-.6 1.2-1.5h.5c.5.1.4-.5.7-.6q1 .6.8-.5h-.5l-.2.3.2-.3H9c.3-.5.6 0 .8 0q.6.2.6-.5l.6-.4c.5-.5-.2-.3-.3-.4 0-.5 1 0 .7-.8q.3 0 .4-.3.5.1.5-.4c.7 0 1.2 0 1.3-.9l.3-.2q-.1.5.4.7c.3-.4-.1-1.2.7-1.3h.2c.7.5.6-.2.8-.4 0-.5.9-.6.6-1.2.4-.1 1 .4 1-.4l.3-.3q.4 0 .6-.4c.8-.2 1-1 1.6-1.4l1-.8q1.5.4 1.7-1.6h.5c.6.1.4-.6.8-.7q.6 0 .8-.6 1 .2 1-.8V7c.3-.4 1-.1 1-.8l.4-.5c.7-.4.8-1.5 2.2-1l-1-.9c-.2-.3.2-.8-.3-1.1 0-.8-.4-.4-.8-.4q-1-.3-1.1.9c-1-.2-1.1.8-1.7 1.2q-2.2 1.5-4.2 3.2-1.2.4-1.8 1.4c-1.1 0-1.4 1.4-2.5 1.5q-1 0-1 1-.6-.1-.6.5c-.4.3-1 .1-1 .9-.6 0-.6.6-1 .7q-1.8 1-3.3 2.4-1 0-.9 1l-1.2.5q-2.4 2-4.9 3.8l-.7-.7c.1-.4.8-.7.2-1.3q.6-1.3.1-2.6.7-.2.5-.9l.4-3.7q.5-.5 0-.8c-.2-1 .6-2 .3-3 .4-.4-.2-.8-.1-1 .8-1.4-.1-3 .3-4.4 0-.2.4-.5 0-.8L3 1.5C3 .9 3.2.4 2.4.1a1 1 0 0 0-1 .3c0 1-1 1.6-.7 2.7q.4.5 0 1c0 .5-.4 1-.1 1.4L.5 7.4c-.4.7-.9 1.4 0 2-1 1.2-.6 2.6-.7 3.9q-.3.1-.2.5l-.1.5c-.7.4 0 .7 0 1.1-.6.8-.3 1.8-.3 2.7q-.6 1.2-.3 2.7-.6 1.3-1.2 0 0-.3-.4-.4.2-.8-.7-.8 0-.5-.2-.8-.3.3-.4.8 0-.5.4-.8-.7 0-.9.6.2-.6.9-.6l-.6-.8c-.3-1.8-2-2.6-2.5-4.2-.7-.3-.5-1.3-1-1.7l-.6-1-.2-.2q0-.3-.3-.5H-9c-.1-.4.2-1-.5-1.2.2-.8-.6-1.2-.9-1.8-.8-1.3-1.1-2.9-2.4-3.9q-.2-.6-.8-.5-.6-.7-.8 0c0 .5-.4.9 0 1.3-.6.9-.1 1.5.4 2.2-.5 1 .5 1.5.6 2.3l.4-.1v.2c.1.5 0 1.1.6 1.4q0 .7.7 1 0 .4.2.7v.2l-.2.2q0 .6.7.6c-.5 1.1.5 1.4 1 2 .6.4.4 1.4 1.3 1.6l.3.5q-.7.7.2 1c.2.7 1.2.7 1.3 1.4q-.4.3-.2.5c.8.7 1 1.9 2 2.3 0 .4-.3.8.2 1-.1.6.5.5.6.8q-.5.4-1.1.3c-.3-.4-.6-.8-1-.2-.4 0-.7-.3-1.1-.1-.4-.5-.7 0-1 .1-.6 0-1.1-.7-1.7-.2l-.5.3V24c-.6-1-1.4-.3-2.2-.3l-4.3-.4c-.7-.5-1.3 0-2-.1l-.4-.2q-1.6-.5-3.4-.5c-.4-.5-.9 0-1.3-.2q-.6 0-.8-.3c-.1-.2-.7-.2-.8-.2l-1.7-.1c-.8 0-2.6-.1-2.7 1.1v.2h.2c0 .2.7.5.7.5q.2.5.6.2c.4 0 .5.7 1 .6.4.2.6-.4 1-.1q.2.3.6.1.4.4 1 .4l.3.2 9.7 1.4q1 .6 2.1 0 2.4.6 5 .4c.3.5.9.1 1.3.2h.3c.4.4.8-.3 1.3 0l.5.2q0 .4-.4.7C-6.3 29-7.8 30-8.7 31.5c-1 .3-1.3 1.4-2 2q-1.2.9-2 2-2.4 2.6-5 5l-1 .8c-.4.7-1.5.8-1.7 1.8q-1.3.7-2.3 1.8-1.1 1.4-2.7 2.4a6 6 0 0 0-2.2 2.4c-.1 1.4.3 1.7 2.3 1.7q-.1.6.5.3l1.4-1.6q.7 0 .5-.6l.6-.5c.9-.2 1-1.3 1.9-1.5.5-.2 1.3-.2.8-1.1l.2-.1c.8-.4 1.7-.6 1.7-1.8q.6 0 .8-.7.9-.2 1.3-.9c.2 0 .5.3.5-.2l.3-.4q1-.2 1.4-1.1l.5-.3q.8 0 .8-.9c.2-.3 1 0 .8-.8.3-.1.5.4.7 0q.1-.1-.2-.5l.7-.4c-.8-.9.5-.3.4-.7q.7.1 1-.3l-.4-.2c0-.6.8-.5.8-1 .4-.2.2-.6.3-.9.4-.3 1.3 0 1.5-.8l.3-.2.3-.2-.3-.9.3.9c.9 0 0-.6.3-.9q.7.1 1-.5l1.1-1.6c.5.4 1.1-1 1.6.1v.5c.3.5-1 .8 0 1.4v1.3l-.3 2q-.2 1 .7 1.3l-.3.5q-.6.4-.4 1.2v3q-.3.3-.2.6c0 .4-.9.5-.3 1l.2 2-.5.6c.8 1-.2 1.7 0 2.6-.6.3 0 .7-.1 1l-.4 3.5c-1.2.6-.5 1.6-.6 2.4v1.7c0 .4-.3 1 .3 1.2.6.3.9-.3 1.2-.6l1.2-.2c.5-.2.5-.2.3-1l.2-1.8c0-.2.8-.3.3-.8-.2-.4-.5-.8.2-1q.2-.1-.2-.3c0-1.3.8-2.5.6-3.8.4-.5 0-1 0-1.6-.4-.5 1.2-.9.2-1.4V45h.2c.6-.6.1-1.3.3-2l.1-1v-.6l.2-1.2c.5-.6 0-.6-.4-.7a2 2 0 0 0 .4-1.8q.3-1.2.1-2.4.5-.9-.4-1.2c0-.4 1 0 .5-.7q-.1-.7.5-.5c.2.2-.1.6.3.8.3.2-.7.9.2.8q.3 0 .5.3c.2.5 0 1.3.8 1.6-.5 1.1.7 1 1 1.6.2.3-.2.8.3 1q.6 0 1 .4 0 .7.5 1l.6 2q.2 1 1.1 1.4c.4.2.2 1.1 1.1.8.4-.2.4.4.5.8q-.6.5 0 .6c.7 0 .6.4.7.8q-.2 1 .9 1c.3.4-.5 1 .1 1.2q.3.5.8.5c.2.4-.4.8.2 1q.3.1.3-.2v-.1h.2c0 .9 1.5 1.3 1 2.5q-.1.1.1.2c.9.8 1.3 2 2.3 2.7q-.6 1.6 1 2.5c.9.5 1 0 1-.6h.3c1.3-.2 1.2-1 1-2 0-1.3-1.2-1.9-1.7-2.9-.3-1.1-1.4-1.8-1.7-3q0-.5-.5-.8L13.8 46q-.5-1.3-1.5-2.5-2-1.8-3.2-4.3-2.3-3.5-4.4-7.2c-.6-.7-.7-1.8-1.5-2.3l-.6-1c0-1.2.7-.2 1.1-.3h.5l4.2.1c.5.5 1.1.2 1.6.3q3.3 0 6.4.2 3.6.4 7 .4.8 0 1.3-.2c1.7.8 3.4.4 5.1.3 1.2-.1 1.6-1.6.8-2.6m-9.1-16.6v.2zM5.2 22.5h-.3zm-14.8-10h.3zm5 9.3-.7-1.1zm-19.9 1.6-.1-.5q.3.3.1.5m3 24.3q.2 0 .3-.4 0 .3-.3.4m1-.5v-.5zm2.2-3.2h-.8v.1-.3h.1zm3.5-3.1-.5.8zm12.2-12.4q0-.2.3-.3-.2 0-.3.3m13.8 18.6.5.3q.4.2.3.5l.6-.1-.6.1q0-.3-.3-.5-.2 0-.5-.3m-1.3-1.6q.5.1.7.6-.2-.5-.7-.6m-2.3-4.3L8 41zm-2.8-3.4q.3 0 .7.3zm-4.2 5v.1M1.1 9 1 7.5zh1zm1.6 16.4-.2-.5zm3.5.5.6.1zm.7.2"/></g>
  <g transform="translate(95.00 109.01) scale(0.7220 0.7220)"><path fill="#000" d="M64.7 34.4c0-2 1-4 2.5-5.2q2.7-2.1 7-2.1 4.4 0 7 2a7 7 0 0 1 2.7 5.7h-6.1q-.3-3-3.7-3-1.5 0-2.7.7-1 .7-1 2a2 2 0 0 0 1.5 1.8q1.7.8 3.4 1l4 1q2 .6 3.4 2 1.5 1.7 1.5 4 0 3.2-2.7 5.2-3.1 2.1-7 2-3.9.1-7-2a7 7 0 0 1-2.9-5.7h6.2q.3 3 3.8 3 1.6 0 2.7-.7 1-.7 1-2T77 42.2q-1.5-.8-3.4-1.1l-4-1a8 8 0 0 1-3.4-2q-1.5-1.6-1.4-3.7M99.4 46h2.9v5h-3.9q-3.6 0-5.6-1.6t-2-5.5V32.3h-2.5v-4.9h2.5v-5.8h6v5.8h5.4v5H97V44q0 1 .6 1.7a3 3 0 0 0 1.9.4m10.3 2a12 12 0 0 1-3.4-8.8q0-5.5 3.4-8.9c5-4.4 12.5-4.4 17.5 0q3.5 3.4 3.5 8.9t-3.5 8.8a12 12 0 0 1-8.8 3.4c-3.2 0-6.4-1.1-8.7-3.4m8.7-1.7q2.6 0 4.3-1.8 1.8-1.8 1.9-5.3 0-3.4-1.8-5.3a6 6 0 0 0-4.3-1.8q-2.6 0-4.3 1.8a8 8 0 0 0-1.8 5.3q0 3.4 1.8 5.3 1.6 1.8 4.2 1.8m24-19v4.2q2.5-4.5 7-4.5v6.2h-1.6q-2.6 0-4 1.3-1.4 1.5-1.4 4.7v11.9h-6V27.5zM161 50.7l-9.3-23.3h6.8l6 17 6.4-17h6.3l-14.9 35H156zm20.6.5V19.5h6v31.7zm14.8-3.1a12 12 0 0 1-3.2-8.8q0-5.5 3.2-8.8c2-2.3 5-3.5 8-3.4a8 8 0 0 1 7.5 4v-3.7h6v23.8h-6v-4a8 8 0 0 1-7.5 4.3c-3 0-6-1.2-8-3.4m13.6-3.7a7 7 0 0 0 1.9-5.1q0-3-1.9-5.1a6 6 0 0 0-8.7-.1h-.1a7 7 0 0 0-1.9 5.2 7 7 0 0 0 2 5.1 6 6 0 0 0 8.6.2zm21.2-17V31q2.3-3.9 7.4-3.9 3.9 0 6.7 2.7 2.5 2.7 2.5 7.4v14h-6V38q0-2.8-1.4-4.3a5 5 0 0 0-3.9-1.5 5 5 0 0 0-3.8 1.5q-1.5 1.5-1.5 4.3v13h-6V27.5zm33.8 24q-5 .2-8.5-3.3a12 12 0 0 1-3.3-8.9q0-5.5 3.3-8.9Q260 27 265 27q5-.2 8.5 3.3 3.3 3.2 3.4 8.6 0 1.2-.2 2.3h-17.3q.1 2.1 1.7 3.7 1.6 1.5 3.8 1.5a5 5 0 0 0 4.6-2.6h6.5q-1 3.4-4 5.6-3.1 2.2-7 2m4-17.8a6 6 0 0 0-4-1.4q-2 0-3.7 1.4a6 6 0 0 0-1.9 3.8h11.2a5 5 0 0 0-1.7-3.8M2.2 26.1l26.6-20a3.3 3.3 0 0 0 .7-4.8 3.4 3.4 0 0 0-4.8-.6L1.8 18a4.6 4.6 0 0 0-.9 6.4zm17.3 1.8 17-12.9a3.4 3.4 0 0 0 .7-4.8 3.4 3.4 0 0 0-4.8-.6l-17 12.8q-.3.2-.1.5l3.6 4.8q.3.3.6.2m-1.3 43.4L39.8 55c3-2.2 3.6-6.4 1.3-9.4L14.1 66a3.4 3.4 0 0 0-.6 4.7 3.4 3.4 0 0 0 4.7.6m-7-9.7L29 48.3V48l-3.8-5q0-.3-.3-.1L7.2 56.2a3.4 3.4 0 0 0-.7 4.8 3.3 3.3 0 0 0 4.7.6m27-19.9L27.7 28l-5.4 4 10.5 13.9zm-17.4-1.6L10.3 26l-5.4 4 10.5 14z"/></g>
</svg>