<svg xmlns="http://www.w3.org/2000/svg" width="390" height="270" viewBox="0 0 390 270"><rect width="390" height="270" fill="#fff" stroke="#d9d5c9" rx="6" ry="6"/><g fill="#fc5b70"><path d="M337.018 36.383c2.126-1.635 2.126-1.635 4.088-8.585-2.126 2.453-4.66 4.742-4.088 8.585M301.125-26.98c-.654-.245-1.88.245-2.125 1.472-.246.981-1.472 1.553-1.309 2.698-.817 1.635-1.798 3.107-2.125 4.906l-.164.408c-1.88 3.598-4.088 7.113-5.314 11.038 0 .818-1.145 1.39-.49 2.371 0 .409-1.227.245-.491 1.063-2.699 3.843-3.761 8.421-5.56 12.673a8.18 8.18 0 0 0-2.044 5.478 5.72 5.72 0 0 0-1.799 4.905c-.327.164-.981.164-1.063.818-.409 1.635-1.88 3.025-1.88 4.905-.409 1.145-1.962 1.963-.818 3.434-.245.654-1.39 1.39-.572 1.799 1.145.49.9-.981 1.226-1.635 1.145-.9.736-2.208.818-3.434.245-.818 2.29-.654 1.553-2.29 1.799-1.798 2.371-4.17 3.025-6.54l.573-1.635c.98-1.227 1.308-2.698 1.717-4.17 2.207-.654 1.553-2.78 2.207-4.252 1.635-3.679 4.088-7.031 4.988-11.037 1.635-.654.327-1.635.327-2.453q1.144-.245 1.144-1.39 1.717-1.145 1.308-3.27c.164-1.145 1.963-1.636 1.309-3.27q1.39-.655.735-2.127l.818-1.471c1.472-.409.9-1.799 1.39-2.617l.572-1.062c1.145-.818 1.227-2.126 1.635-3.27.328-.573 1.636-1.472.41-2.045m63.936 78.326c-1.472 2.044-3.27 4.007-2.698 6.705 1.39-2.044 2.698-4.088 2.698-6.705m3.924-8.012c.164-.409.49-1.145-.409-1.308q-1.144-.164-1.226.817l-1.308 5.233q-.9 1.145-.818 2.616c1.635-.327.818-1.635 1.39-2.37 1.472-1.309 1.635-3.271 2.371-4.988m-74.483-76.528c-.41-.654-.246-1.962-1.227-1.962-1.226 0-.736 1.227-.98 1.88l-.818 2.453-1.472 3.27v1.064c-1.635 2.126-1.962 4.905-3.27 7.358-1.636.49.163 2.208-.982 2.944-1.553 2.289-2.943 4.578-2.452 7.521-2.208.818-1.636 3.27-2.862 4.579-.327 1.472-2.453 2.371-1.472 4.252 1.308-.655 1.472-2.617 3.27-2.617.328 0 .655-.49.328-.817-.246-.327-.818-.246-1.227-.41.41-1.307 2.617-1.634 2.208-3.433.817-.245.817-.981.981-1.635-.082-1.145 2.371-1.636.818-3.27.817-.41 1.635-.818 1.308-2.045l.409-1.063c.817-.98.408-2.698 2.125-2.943l-.408-.981c.49-.327 1.226-.409.899-1.226.49-1.717 1.799-3.19 1.39-5.151l.245-.49.981-2.699c.818-.818.818-1.799 1.145-2.698.9-.327 1.88-.49 1.063-1.88m15.289 41.86q.654-.735.409-1.716c.327-.818 1.308-1.39.49-2.29-.245-.327-.654 0-.98.164-1.064.654-.246 1.308 0 1.962-.573.572-3.271-.327-1.473 1.962-1.635 1.063-.163 3.27-1.635 4.334-.572.98-1.226 2.044-.163 3.352 0-1.39 1.063-2.29 1.39-3.434.408-1.554 1.962-2.616 1.962-4.333m49.71 56.741q-.245-.409-.981 0c-1.88.818-.245 2.29-.654 3.516v.245c-1.227.082-1.88 2.207-1.227 3.924.818-1.144 1.799-2.207 1.636-3.76.817-1.145 1.798-2.29 1.226-3.843m1.717-5.478q-1.308.409-1.717 1.799l1.226-.41-.654 3.026q1.472-1.88 2.126-4.006c.327-1.309-.327-.9-.981-.41m10.22-24.609q-1.063 2.943-2.453 5.723 2.453-2.207 2.453-5.723m-66.553-17.415c-1.798-.245-1.39 2.29-2.126 3.516q-.98 1.145-.245 2.616c.981-.572 1.145-1.39 1.308-2.207.327-1.39 1.963-3.68 1.063-3.843m49.465 60.42c1.799-1.308 1.472-3.188 1.799-4.905-.981 1.472-1.962 2.862-1.799 4.906m-79.062-46.93c-1.799 1.308-1.472 3.27-2.534 4.414-.41.982-1.145 1.88 0 2.944.49-.818 1.062-1.554.654-2.535a7.36 7.36 0 0 0 1.88-4.905m91.898-20.359c1.88-.899 1.227-2.78 1.717-4.333-2.207.818-1.471 2.78-1.635 4.333m-21.012 2.044a6.54 6.54 0 0 0 2.207-3.434q.082-.899-.736-1.062l-.654.327c.982 1.635-1.226 2.452-.817 4.17m-85.44 30.986c.818-1.717.9-2.207.736-3.27-.408 1.145-1.062 2.044-.817 3.27m16.597-39.817c-.082-.163-.981 0-1.063.573s-.245 1.308.327 1.635c.164.163.818-.327 1.227-.573q-.082-.98-.49-1.635m93.778-1.553c-1.799 1.226-1.962 2.698-2.208 4.088 1.472-.818 1.39-2.453 2.208-4.088m-71.377 24.119q.164 1.308 1.227 1.553c.082 0 .654-.817.49-1.144-.245-.736-1.063-.327-1.717-.409m-29.024-10.547c.572 1.635-.818 2.29 0 3.68.572-1.064 1.39-1.881 0-3.68M311.754 1.88c1.635-.163 1.635-1.308 2.044-2.125l-1.063-.573z"/><path d="M315.188-5.396c-1.88.082-.164 1.635-.818 2.126l-1.635 2.452 1.063.573c.736-1.472 1.962-2.617 1.962-4.415l1.227-2.698c.327-.818-.246-.818-.818-.654 0 .98 0 2.044-.981 2.698M274.39 10.629q-.736-.49-1.145.327-.163.736.409.817.818.246 1.145-.572-.082-.327-.41-.654m91.735 2.78c1.145-.409 1.227-1.227 1.063-2.208q-1.39.654-1.063 2.208M299.9 29.924q-1.227 0-1.308 1.145c-.654.817-1.963 1.635-.818 2.453.654.654 1.063-.818 1.554-1.39.98-.573 0-1.554.572-2.208m-3.843 7.032c-1.799.572-1.39 2.452-1.962 3.597-.572 1.39-1.717 2.616-.654 4.742l1.472-3.76 1.471-3.762c.409-1.063 1.227-1.88.981-3.189-1.226.491-.817 1.636-1.308 2.453m58.295 4.988c1.472-.41.818-1.636 1.145-2.453-1.227.409-1.308 1.39-1.145 2.453m21.748-18.56c-1.88.654-.409 1.962-.49 3.025l.654-1.798q1.063-.164.817-1.145c-.163-.654-.654-.409-.98-.082m-33.44-1.799c-.164.327-.328.818.245.818q.327.082.572-.164.327-.735-.245-.98-.246 0-.573.326m-76.445 8.422a.572.572 0 0 0-.981.245l.163 1.063.981-.409c.49-.327 0-.654-.163-.818m90.018 7.277c-.9.654-.246 1.554-.736 2.126q1.471-.572.817-2.126M332.358 48.73q-.654-.327-.818.327l.49.736.655-.409zm-65.654-20.604c.49.164.49-.327.736-.654l-.163-.654-.818.654zm82.741-21.094-.081-.817-.9.49v.818zm24.12 22.811q-.818-.081-.981.736l.245.736.98-.736q.246-.654-.244-.736m-103.754-9.32q-.49.49-.572.817 0 .49.245.654.49.246.654-.245z"/></g><path fill="#82c6dd" d="M24.679 202.695c0-.645-.403-.242-.645-.161l-1.29-.242c-.323-.081-.807-.646-.807.322a6.45 6.45 0 0 0-3.226-.08v-.162c-1.452-.161-2.984-.564-4.436-.08h-.161q-.162-.807-.645-.242c-.807.322-1.452-.242-2.178-.081q-1.452.08-2.742-.403l-.403.161-.807-.242c-.403-.08 0 .242 0 .323H5.97c-.404-.646-.807-.484-1.291-.242q-.807.161-1.533-.484l.726-.565.403-.726q0-.483.404-.403c.242-.484 1.129-.484.968-1.21h.403c.403.081.322-.403.564-.483q.807.483.645-.404h-.403l-.161.242.161-.242h.403c.242-.403.484 0 .646 0q.484.162.484-.403l.483-.323c.404-.403-.16-.242-.241-.322 0-.403.806 0 .564-.645q.242 0 .323-.242.403.08.403-.323c.565 0 .968 0 1.048-.726l.242-.161q-.08.403.323.564c.242-.322-.08-.967.565-1.048h.16c.565.403.485-.161.646-.323 0-.403.726-.483.484-.967.323-.081.806.322.806-.323l.242-.242q.323 0 .484-.323c.645-.16.807-.806 1.29-1.129l.807-.645q1.21.323 1.371-1.29h.403c.484.08.323-.484.646-.565q.484 0 .645-.484.806.162.806-.645v-.08c.242-.323.807-.081.807-.646l.322-.403c.565-.323.646-1.21 1.775-.806l-.807-.726c-.161-.242.162-.646-.242-.887 0-.646-.322-.323-.645-.323q-.806-.242-.887.726c-.807-.161-.887.645-1.371.968q-1.774 1.21-3.387 2.58-.968.323-1.452 1.13c-.887 0-1.13 1.129-2.016 1.21q-.807 0-.807.806-.484-.08-.484.403c-.322.242-.806.08-.806.726-.484 0-.484.484-.807.564q-1.451.807-2.661 1.936-.807 0-.726.807l-.968.403q-1.935 1.613-3.952 3.064l-.564-.564c.08-.323.645-.565.161-1.049q.484-1.048.08-2.096.565-.162.404-.726l.323-2.984q.403-.404 0-.646c-.162-.806.483-1.613.242-2.419.322-.323-.162-.645-.081-.807.645-1.129-.08-2.419.242-3.548 0-.161.322-.403 0-.645l-.161-.484c0-.484.16-.887-.484-1.13a.81.81 0 0 0-.807.243c0 .806-.806 1.29-.564 2.177q.322.403 0 .807c0 .403-.323.806-.081 1.129l-.08 1.532c-.323.565-.727 1.13 0 1.613-.807.968-.485 2.097-.565 3.145q-.242.081-.162.404l-.08.403c-.565.323 0 .565 0 .887-.484.645-.242 1.452-.242 2.178q-.484.967-.242 2.177-.484 1.049-.968 0 0-.242-.323-.322.162-.646-.564-.646 0-.403-.161-.645-.242.242-.323.645 0-.403.323-.645-.565 0-.726.484.161-.484.726-.484l-.484-.645c-.242-1.452-1.613-2.097-2.017-3.387-.564-.242-.403-1.049-.806-1.371l-.484-.807-.161-.161q0-.242-.242-.403h-.161c-.081-.323.16-.807-.404-.968.162-.645-.484-.968-.726-1.452-.645-1.048-.887-2.339-1.935-3.145q-.161-.484-.645-.404-.484-.564-.646 0c0 .404-.322.726 0 1.049-.483.726-.08 1.21.323 1.774-.403.807.403 1.21.484 1.855l.323-.08v.16c.08.404 0 .888.483 1.13q0 .565.565.806 0 .323.161.565v.161l-.161.162q0 .484.565.484c-.404.887.403 1.129.806 1.613.484.322.323 1.129 1.048 1.29l.242.403q-.564.565.162.807c.161.564.968.564 1.048 1.129q-.322.242-.161.403c.645.565.806 1.532 1.613 1.855 0 .323-.242.645.161.806-.08.484.403.404.484.646q-.403.322-.887.242c-.242-.323-.484-.646-.807-.162-.322 0-.564-.242-.887-.08-.322-.404-.564 0-.806.08-.484 0-.887-.564-1.371-.161l-.404.242v-.242c-.483-.806-1.129-.242-1.774-.242l-3.468-.323c-.564-.403-1.048 0-1.613-.08l-.322-.162q-1.29-.403-2.743-.403c-.322-.403-.725 0-1.048-.161q-.484 0-.645-.242c-.08-.161-.565-.161-.645-.161l-1.371-.081c-.646 0-2.097-.08-2.178.887v.161h.161c0 .162.565.404.565.404q.161.403.484.161c.322 0 .403.565.806.484.323.161.484-.323.807-.08q.161.241.484.08.322.323.806.323l.242.16 7.823 1.13q.807.484 1.694 0 1.935.484 4.032.323c.242.403.726.08 1.049.16h.242c.322.323.645-.241 1.048 0l.403.162q0 .323-.322.565c-.968.968-2.178 1.774-2.904 2.984-.806.242-1.048 1.129-1.613 1.613q-.967.726-1.613 1.613-1.935 2.097-4.032 4.032l-.807.645c-.322.565-1.21.646-1.37 1.452q-1.049.565-1.856 1.452-.887 1.129-2.177 1.935a4.84 4.84 0 0 0-1.774 1.936c-.081 1.13.242 1.371 1.855 1.371q-.081.484.403.242l1.129-1.29q.564 0 .403-.484l.484-.404c.726-.16.807-1.048 1.532-1.21.404-.16 1.049-.16.646-.886l.16-.081c.646-.323 1.372-.484 1.372-1.452q.484 0 .645-.564.726-.162 1.049-.726c.16 0 .403.242.403-.161l.242-.323q.806-.161 1.129-.887l.403-.242q.645 0 .645-.726c.162-.242.807 0 .646-.645.241-.08.403.322.564 0q.08-.08-.161-.403l.564-.323c-.645-.726.404-.242.323-.565q.564.081.806-.242l-.322-.16c0-.485.645-.404.645-.807.323-.162.161-.484.242-.726.323-.242 1.048 0 1.21-.645l.242-.162.242-.161-.242-.726.242.726c.725 0 0-.484.242-.726q.564.08.806-.403l.887-1.29c.403.322.887-.807 1.29.08v.403c.243.404-.806.646 0 1.13v1.048l-.241 1.613q-.162.806.564 1.048l-.242.404q-.484.322-.322.967v2.42q-.242.242-.162.484c0 .322-.725.403-.242.806l.162 1.613-.404.484c.646.807-.16 1.371 0 2.097-.483.242 0 .565-.08.807l-.323 2.822c-.968.484-.403 1.29-.484 1.936v1.371c0 .323-.242.807.242.968.484.242.726-.242.968-.484l.968-.161c.403-.162.403-.162.242-.807l.161-1.452c0-.16.645-.242.242-.645-.161-.322-.403-.645.161-.806q.162-.08-.16-.242c0-1.049.644-2.016.483-3.065.323-.403 0-.806 0-1.29-.323-.404.968-.726.161-1.13v-1.129h.162c.484-.483.08-1.048.242-1.613l.08-.806v-.484l.162-.968c.403-.484 0-.484-.323-.564a1.61 1.61 0 0 0 .323-1.452q.241-.968.08-1.936.403-.725-.322-.967c0-.323.806 0 .403-.565q-.08-.564.403-.403c.161.161-.08.484.242.645.242.161-.565.726.161.645q.242 0 .404.242c.16.403 0 1.049.645 1.29-.403.888.564.807.806 1.291.162.242-.161.645.242.806q.484 0 .807.323 0 .565.403.807l.484 1.613q.161.806.887 1.129c.323.161.161.887.887.645.323-.161.323.322.403.645q-.483.403 0 .484c.565 0 .484.323.565.645q-.161.807.726.807c.242.322-.403.806.08.967q.242.404.646.404c.161.322-.323.645.161.806q.242.08.242-.161v-.08h.161c0 .725 1.21 1.048.807 2.016q-.08.08.08.16c.726.646 1.049 1.614 1.855 2.178q-.484 1.29.807 2.017c.726.403.806 0 .806-.484h.242c1.049-.162.968-.807.807-1.613 0-1.049-.968-1.533-1.371-2.34-.242-.886-1.13-1.45-1.371-2.419q0-.403-.404-.645L11.13 218.1q-.404-1.048-1.21-2.016-1.613-1.452-2.58-3.468-1.856-2.823-3.55-5.807c-.483-.565-.564-1.452-1.21-1.855l-.483-.806c0-.968.564-.162.887-.242h.403l3.388.08c.403.403.887.162 1.29.242q2.661 0 5.162.161 2.903.323 5.645.323.645 0 1.049-.161c1.37.645 2.742.322 4.113.242.968-.08 1.29-1.29.645-2.097m-7.34-13.388v.161zm-13.145 9.84h-.242zm-11.936-8.066h.242zm4.032 7.5-.564-.886zm-16.05 1.291-.08-.403q.242.242.08.403m2.42 19.598q.162 0 .242-.323 0 .242-.242.323m.807-.403v-.403zm1.774-2.581h-.645v.08-.241h.08zm2.823-2.5-.403.645zm9.84-10q0-.162.241-.243-.161 0-.242.242m11.13 15.001.403.242q.323.161.242.403l.484-.08-.484.08q0-.242-.242-.403-.161 0-.403-.242m-1.049-1.29q.404.08.565.484-.161-.404-.565-.484m-1.855-3.468.323-.162zm-2.258-2.742q.242 0 .565.242zm-3.387 4.032v.08m.403-27.34-.08-1.21zh.807zm1.29 13.227-.16-.403zm2.823.403.484.081zm.565.162"/><path d="M141.713 133.847c0-1.444.722-2.888 1.805-3.755q1.95-1.516 5.054-1.516 3.177 0 5.054 1.444a5.05 5.05 0 0 1 1.95 4.116h-4.404q-.217-2.166-2.672-2.166-1.083 0-1.95.505-.721.505-.721 1.444a1.44 1.44 0 0 0 1.083 1.3q1.227.577 2.455.722l2.888.722q1.444.433 2.454 1.444 1.083 1.227 1.083 2.888 0 2.31-1.949 3.754-2.238 1.516-5.054 1.444-2.816.072-5.054-1.444a5.05 5.05 0 0 1-2.094-4.115h4.477q.216 2.166 2.743 2.166 1.155 0 1.95-.506.722-.505.722-1.444t-.939-1.372q-1.083-.577-2.455-.794l-2.888-.722a5.8 5.8 0 0 1-2.455-1.444q-1.083-1.155-1.01-2.671m24.98 8.375h2.095v3.61h-2.816q-2.6 0-4.043-1.155t-1.444-3.971v-8.375h-1.805v-3.538h1.805v-4.188h4.332v4.188h3.898v3.61h-3.754v8.375q0 .722.433 1.227a2.17 2.17 0 0 0 1.372.29m7.437 1.443a8.66 8.66 0 0 1-2.455-6.353q0-3.971 2.455-6.426a9.57 9.57 0 0 1 12.635 0q2.527 2.455 2.527 6.426t-2.527 6.353a8.66 8.66 0 0 1-6.354 2.455c-2.31 0-4.62-.794-6.281-2.455m6.281-1.227q1.877 0 3.105-1.3 1.3-1.3 1.371-3.826 0-2.455-1.3-3.827a4.33 4.33 0 0 0-3.104-1.3q-1.877 0-3.104 1.3a5.78 5.78 0 0 0-1.3 3.827q0 2.454 1.3 3.826 1.155 1.3 3.032 1.3m17.328-13.718v3.032q1.805-3.249 5.054-3.249v4.477h-1.155q-1.877 0-2.888.938-1.011 1.083-1.011 3.394v8.591h-4.332v-17.111zm13.357 16.822-6.715-16.822h4.91l4.332 12.274 4.62-12.274h4.55l-10.758 25.27h-4.549zm14.873.361V123.09h4.332v22.887zm10.686-2.238a8.66 8.66 0 0 1-2.31-6.353q0-3.971 2.31-6.354c1.444-1.66 3.61-2.527 5.776-2.455a5.78 5.78 0 0 1 5.415 2.888v-2.671h4.332v17.183h-4.332v-2.888a5.78 5.78 0 0 1-5.415 3.105c-2.166 0-4.332-.866-5.776-2.455m9.819-2.671a5.05 5.05 0 0 0 1.372-3.682q0-2.166-1.372-3.683a4.33 4.33 0 0 0-6.281-.072h-.073a5.05 5.05 0 0 0-1.371 3.755 5.05 5.05 0 0 0 1.444 3.682 4.33 4.33 0 0 0 6.209.144zm15.306-12.274v2.599q1.661-2.816 5.343-2.816 2.816 0 4.838 1.95 1.805 1.949 1.805 5.342v10.108h-4.332v-9.53q0-2.022-1.011-3.105a3.61 3.61 0 0 0-2.816-1.083 3.6 3.6 0 0 0-2.744 1.083q-1.083 1.083-1.083 3.105v9.386h-4.332v-16.967zm24.404 17.328q-3.61.144-6.137-2.383a8.66 8.66 0 0 1-2.383-6.426q0-3.97 2.383-6.425 2.527-2.383 6.137-2.383 3.61-.144 6.137 2.383 2.383 2.31 2.455 6.209 0 .866-.145 1.66h-12.49q.072 1.517 1.227 2.672 1.155 1.083 2.744 1.083a3.61 3.61 0 0 0 3.321-1.877h4.693q-.722 2.454-2.888 4.043-2.238 1.588-5.054 1.444m2.888-12.852a4.33 4.33 0 0 0-2.888-1.01q-1.444 0-2.671 1.01a4.33 4.33 0 0 0-1.372 2.744h8.086a3.61 3.61 0 0 0-1.227-2.744m-192.558-5.415 19.206-14.44a2.383 2.383 0 0 0 .505-3.465 2.455 2.455 0 0 0-3.466-.434L96.3 122.006a3.32 3.32 0 0 0-.65 4.62zm12.491 1.3 12.274-9.314a2.455 2.455 0 0 0 .505-3.466 2.455 2.455 0 0 0-3.465-.433l-12.274 9.242q-.217.144-.072.36l2.599 3.466q.216.217.433.145m-.939 31.335 15.596-11.769c2.166-1.588 2.599-4.62.938-6.787l-19.494 14.729a2.455 2.455 0 0 0-.433 3.393 2.455 2.455 0 0 0 3.393.434m-5.054-7.004 12.852-9.602v-.217l-2.744-3.61q0-.217-.216-.072l-12.78 9.602a2.455 2.455 0 0 0-.505 3.466 2.383 2.383 0 0 0 3.393.433m19.494-14.368-7.58-9.891-3.9 2.888 7.582 10.036zm-12.562-1.155-7.581-10.18-3.9 2.888 7.582 10.108z"/></svg>