<svg xmlns="http://www.w3.org/2000/svg" viewBox="0 0 48 48" width="48" height="48" fill="none">
  <!-- 48x48 canvas with the 34x32 PipeRocket mark scaled to 0.75 and centered.
       Leaves enough padding for Google's circular favicon mask not to clip the
       corners of the design. -->
  <g transform="translate(11.25 12) scale(0.75)">
    <path fill="#0ba6e2" d="M32.6 0h-16l-.7.3-15.6 16A1 1 0 0 0 .9 18H16v13a1 1 0 0 0 1.6.6l16-15.6q.3-.2.3-.6V1.2Q33.8.1 32.6 0"/>
    <path fill="#ff0025" d="M16 17.9V31a1 1 0 0 0 1.6.6l16-15.6q.3-.2.3-.6V1.2Q33.8.1 32.6 0h-16q-.6 0-.7.5"/>
  </g>
</svg>
