<svg xmlns="http://www.w3.org/2000/svg" aria-labelledby="title-ai5 desc-ai5" font-family="Inter, -apple-system, BlinkMacSystemFont, 'Segoe UI', Arial, sans-serif" viewBox="0 0 1200 760"><title>AI Platform Performance Compared: ChatGPT, Perplexity, Copilot, Gemini, Claude — PipeRocket Digital</title><desc>Five AI search engines compared across three metrics: share of AI referral traffic, on-site engagement rate, and Lead-to-SQL conversion rate. ChatGPT dominates volume at 65.8% share but Microsoft Copilot delivers the highest engagement (73.4%) and the highest Lead-to-SQL rate (35%) despite only 3.1% of AI traffic.</desc><path fill="#f6f6f1" d="M0 0h1200v760H0z"/><path fill="#e8e4da" d="M0 0h1200v110H0z"/><text x="50" y="48" fill="#0d0d0d" font-size="12" font-weight="700" letter-spacing="2.4">PIPEROCKET DIGITAL · STATE OF SEO IN THE AI WORLD 2026</text><text x="50" y="85" fill="#0d0d0d" font-size="26" font-weight="700">AI Platform Performance: 5 Engines Compared</text><path fill="#0cc6f1" d="M0 110h1200v4H0z"/><text x="50" y="148" fill="#282828" font-size="14">Three metrics. Five engines. Volume ≠ quality — Copilot wins on engagement and Lead-to-SQL despite only 3.1% traffic share.</text><text x="180" fill="#6b6b6b" font-size="10" font-weight="700" letter-spacing="1.5" text-anchor="middle" transform="translate(50 195)">SHARE OF AI TRAFFIC</text><text x="510" fill="#6b6b6b" font-size="10" font-weight="700" letter-spacing="1.5" text-anchor="middle" transform="translate(50 195)">ENGAGEMENT RATE</text><text x="840" fill="#6b6b6b" font-size="10" font-weight="700" letter-spacing="1.5" text-anchor="middle" transform="translate(50 195)">LEAD-TO-SQL RATE</text><g transform="translate(50 225)"><rect width="1100" height="86" fill="#e8e4da" stroke="#0cc6f1" stroke-width="1.5" rx="10"/><text x="22" y="38" fill="#0d0d0d" font-size="15" font-weight="700">Microsoft Copilot</text><text x="22" y="58" fill="#0cc6f1" font-size="10" font-weight="700" letter-spacing="1.5">2× WINNER</text><text x="22" y="76" fill="rgba(13, 13, 13, 0.7)" font-size="11">Highest engagement &amp; L2S</text><text x="180" y="38" fill="#0d0d0d" font-size="26" font-weight="700" text-anchor="middle">3.1%</text><rect width="120" height="14" x="120" y="50" fill="rgba(255,255,255,0.12)" rx="3"/><rect width="4" height="14" x="120" y="50" fill="#ff6b5c" rx="2"/><text x="510" y="38" fill="#0cc6f1" font-size="26" font-weight="700" text-anchor="middle">73.4%</text><rect width="120" height="14" x="450" y="50" fill="rgba(255,255,255,0.12)" rx="3"/><rect width="88" height="14" x="450" y="50" fill="#0cc6f1" rx="3"/><text x="840" y="38" fill="#0cc6f1" font-size="26" font-weight="700" text-anchor="middle">35%</text><rect width="120" height="14" x="780" y="50" fill="rgba(255,255,255,0.12)" rx="3"/><rect width="120" height="14" x="780" y="50" fill="#0cc6f1" rx="3"/></g><g transform="translate(50 325)"><rect width="1100" height="86" fill="#fff" stroke="#d9d5c9" rx="10"/><text x="22" y="38" fill="#282828" font-size="15" font-weight="700">ChatGPT</text><text x="22" y="58" fill="#0cc6f1" font-size="10" font-weight="700" letter-spacing="1.5">VOLUME WINNER</text><text x="22" y="76" fill="#3f3f3f" font-size="11">2.6x Perplexity&apos;s share</text><text x="180" y="38" fill="#0cc6f1" font-size="26" font-weight="700" text-anchor="middle">65.8%</text><rect width="120" height="14" x="120" y="50" fill="#e8e4da" rx="3"/><rect width="79" height="14" x="120" y="50" fill="#0cc6f1" rx="3"/><text x="510" y="38" fill="#282828" font-size="26" font-weight="700" text-anchor="middle">69.1%</text><rect width="120" height="14" x="450" y="50" fill="#e8e4da" rx="3"/><rect width="83" height="14" x="450" y="50" fill="#0cc6f1" opacity=".85" rx="3"/><text x="840" y="38" fill="#282828" font-size="26" font-weight="700" text-anchor="middle">30%</text><rect width="120" height="14" x="780" y="50" fill="#e8e4da" rx="3"/><rect width="103" height="14" x="780" y="50" fill="#0cc6f1" opacity=".85" rx="3"/></g><g transform="translate(50 425)"><rect width="1100" height="76" fill="#fff" stroke="#d9d5c9" rx="10"/><text x="22" y="34" fill="#282828" font-size="15" font-weight="700">Perplexity</text><text x="22" y="58" fill="#3f3f3f" font-size="11">#2 by volume</text><text x="180" y="32" fill="#282828" font-size="22" font-weight="700" text-anchor="middle">24.6%</text><rect width="120" height="14" x="120" y="44" fill="#e8e4da" rx="3"/><rect width="30" height="14" x="120" y="44" fill="#0cc6f1" opacity=".7" rx="3"/><text x="510" y="32" fill="#282828" font-size="22" font-weight="700" text-anchor="middle">61.8%</text><rect width="120" height="14" x="450" y="44" fill="#e8e4da" rx="3"/><rect width="74" height="14" x="450" y="44" fill="#0cc6f1" opacity=".7" rx="3"/><text x="840" y="32" fill="#282828" font-size="22" font-weight="700" text-anchor="middle">25%</text><rect width="120" height="14" x="780" y="44" fill="#e8e4da" rx="3"/><rect width="86" height="14" x="780" y="44" fill="#0cc6f1" opacity=".7" rx="3"/></g><g transform="translate(50 515)"><rect width="1100" height="76" fill="#fff" stroke="#d9d5c9" rx="10"/><text x="22" y="34" fill="#282828" font-size="15" font-weight="700">Google Gemini</text><text x="22" y="58" fill="#3f3f3f" font-size="11">Early-research users</text><text x="180" y="32" fill="#282828" font-size="22" font-weight="700" text-anchor="middle">5.4%</text><rect width="120" height="14" x="120" y="44" fill="#e8e4da" rx="3"/><rect width="7" height="14" x="120" y="44" fill="#0cc6f1" opacity=".55" rx="3"/><text x="510" y="32" fill="#282828" font-size="22" font-weight="700" text-anchor="middle">58.0%</text><rect width="120" height="14" x="450" y="44" fill="#e8e4da" rx="3"/><rect width="70" height="14" x="450" y="44" fill="#0cc6f1" opacity=".55" rx="3"/><text x="840" y="32" fill="#282828" font-size="22" font-weight="700" text-anchor="middle">20%</text><rect width="120" height="14" x="780" y="44" fill="#e8e4da" rx="3"/><rect width="69" height="14" x="780" y="44" fill="#0cc6f1" opacity=".55" rx="3"/></g><g transform="translate(50 605)"><rect width="1100" height="76" fill="#fff" stroke="#d9d5c9" rx="10"/><text x="22" y="34" fill="#282828" font-size="15" font-weight="700">Claude</text><text x="22" y="58" fill="#ff6b5c" font-size="11">Bottom of every metric</text><text x="180" y="32" fill="#282828" font-size="22" font-weight="700" text-anchor="middle">1.1%</text><rect width="120" height="14" x="120" y="44" fill="#e8e4da" rx="3"/><rect width="2" height="14" x="120" y="44" fill="#ff6b5c" rx="2"/><text x="510" y="32" fill="#282828" font-size="22" font-weight="700" text-anchor="middle">43.9%</text><rect width="120" height="14" x="450" y="44" fill="#e8e4da" rx="3"/><rect width="53" height="14" x="450" y="44" fill="#ff6b5c" rx="3"/><text x="840" y="32" fill="#282828" font-size="22" font-weight="700" text-anchor="middle">15%</text><rect width="120" height="14" x="780" y="44" fill="#e8e4da" rx="3"/><rect width="51" height="14" x="780" y="44" fill="#ff6b5c" rx="3"/></g><g transform="translate(50 680)"><rect width="1100" height="48" fill="rgba(12, 198, 241,0.12)" rx="10"/><text x="22" y="20" fill="#0cc6f1" font-size="11" font-weight="700" letter-spacing="2">TAKE-AWAY</text><text x="22" y="38" fill="#282828" font-size="13" font-weight="600">Optimize content for ChatGPT (volume) and Copilot (quality). The other three engines move 7% of AI traffic combined.</text></g><text x="1150" y="748" fill="rgba(40,40,40,0.5)" font-size="11" text-anchor="end">piperocket.digital · AI Platform Performance</text></svg>