<svg xmlns="http://www.w3.org/2000/svg" aria-labelledby="title-tv desc-tv" font-family="Inter, -apple-system, BlinkMacSystemFont, 'Segoe UI', Arial, sans-serif" viewBox="0 0 1200 720"><title>AI vs Organic Traffic Volume — PipeRocket Digital</title><desc>Of all traffic across 53 B2B SaaS brands analyzed over 8 months, 91.3% came from organic search and 8.7% came from AI engines combined. Within AI referral traffic, ChatGPT dominates with 65.8%, followed by Perplexity 24.6%, Gemini 5.4%, Copilot 3.1%, and Claude 1.1%.</desc><path fill="#f6f6f1" d="M0 0h1200v720H0z"/><path fill="#e8e4da" d="M0 0h1200v110H0z"/><text x="50" y="48" fill="#0d0d0d" font-size="12" font-weight="700" letter-spacing="2.4">PIPEROCKET DIGITAL · STATE OF SEO IN THE AI WORLD 2026</text><text x="50" y="85" fill="#0d0d0d" font-size="26" font-weight="700">AI vs Organic Traffic Volume — B2B SaaS</text><path fill="#0cc6f1" d="M0 110h1200v4H0z"/><text x="50" y="148" fill="#282828" font-size="14">Analysis of 53 B2B SaaS brands over 8 months. AI is rising — but organic is still where the buyers actually arrive.</text><text fill="#6b6b6b" font-size="11" font-weight="700" letter-spacing="2" transform="translate(80 195)">TOTAL TRAFFIC SOURCE</text><text y="22" fill="#282828" font-size="20" font-weight="700" transform="translate(80 195)">Organic still drives 91.3%</text><g transform="translate(300 555)"><circle r="150" fill="none" stroke="#f6f6f1" stroke-width="60"/><circle r="120" fill="none" stroke="#0cc6f1" stroke-dasharray="688.6 65.4" stroke-width="60" transform="rotate(-90)"/><circle r="120" fill="none" stroke="#ff6b5c" stroke-dasharray="65.4 688.6" stroke-dashoffset="-688.6" stroke-width="60" transform="rotate(-90)"/><text y="-6" fill="#0cc6f1" font-size="38" font-weight="700" text-anchor="middle">91.3%</text><text y="20" fill="#282828" font-size="13" font-weight="600" text-anchor="middle">Organic search</text></g><path fill="#0cc6f1" d="M80 735h14v14H80z"/><text x="22" y="12" fill="#282828" font-size="13" font-weight="600" transform="translate(80 735)">Organic search · 91.3%</text><path fill="#ff6b5c" d="M80 763h14v14H80z"/><text x="22" y="40" fill="#282828" font-size="13" font-weight="600" transform="translate(80 735)">AI engines · 8.7%</text><text y="600" fill="#6b6b6b" font-size="11" font-style="italic" transform="translate(80 195)">11x more traffic from organic vs all AI engines combined.</text><g transform="translate(560 195)"><rect width="580" height="430" fill="#fff" stroke="#d9d5c9" rx="12"/><text x="30" y="40" fill="#6b6b6b" font-size="11" font-weight="700" letter-spacing="2">WITHIN AI REFERRAL TRAFFIC</text><text x="30" y="64" fill="#282828" font-size="18" font-weight="700">ChatGPT &amp; Perplexity own 90.4%</text><g transform="translate(30 90)"><text y="22" fill="#282828" font-size="13" font-weight="600">ChatGPT</text><rect width="380" height="22" x="120" y="6" fill="#0cc6f1" rx="4"/><text x="510" y="22" fill="#282828" font-size="13" font-weight="700">65.8%</text><text y="62" fill="#282828" font-size="13" font-weight="600">Perplexity</text><rect width="142" height="22" x="120" y="46" fill="#0cc6f1" opacity=".78" rx="4"/><text x="272" y="62" fill="#282828" font-size="13" font-weight="700">24.6%</text><text y="102" fill="#282828" font-size="13" font-weight="600">Google Gemini</text><rect width="32" height="22" x="120" y="86" fill="#0cc6f1" opacity=".55" rx="4"/><text x="162" y="102" fill="#282828" font-size="13" font-weight="700">5.4%</text><text y="142" fill="#282828" font-size="13" font-weight="600">Microsoft Copilot</text><rect width="18" height="22" x="120" y="126" fill="#0cc6f1" opacity=".45" rx="4"/><text x="148" y="142" fill="#282828" font-size="13" font-weight="700">3.1%</text><text y="182" fill="#282828" font-size="13" font-weight="600">Claude</text><rect width="6" height="22" x="120" y="166" fill="#0cc6f1" opacity=".4" rx="4"/><text x="136" y="182" fill="#282828" font-size="13" font-weight="700">1.1%</text></g><g transform="translate(30 320)"><rect width="520" height="86" fill="#e8e4da" stroke="#0cc6f1" stroke-width="1.5" rx="10"/><text x="22" y="30" fill="#0cc6f1" font-size="11" font-weight="700" letter-spacing="2">TAKE-AWAY</text><text x="22" y="56" fill="#0d0d0d" font-size="14" font-weight="700">Two engines decide 9 of every 10 AI mentions.</text><text x="22" y="75" fill="rgba(13, 13, 13, 0.75)" font-size="12">Optimise content for ChatGPT &amp; Perplexity first; the rest later.</text></g></g><g transform="translate(50 645)"><rect width="1100" height="50" fill="#fff" stroke="#d9d5c9" rx="10"/><text x="30" y="32" fill="#6b6b6b" font-size="12">TOFU traffic share — Organic: <tspan fill="#282828" font-weight="700">83.4%</tspan>  ·  AI: <tspan fill="#ff6b5c" font-weight="700">16.6%</tspan></text><text x="480" y="32" fill="#6b6b6b" font-size="12">BOFU traffic share — Organic: <tspan fill="#282828" font-weight="700">81.5%</tspan>  ·  AI: <tspan fill="#ff6b5c" font-weight="700">18.5%</tspan></text><text x="930" y="32" fill="#6b6b6b" font-size="11">n=53 B2B SaaS brands · 8 mo.</text></g><text x="1150" y="708" fill="rgba(40,40,40,0.5)" font-size="11" text-anchor="end">piperocket.digital · AI vs Organic Traffic Volume</text></svg>