<svg xmlns="http://www.w3.org/2000/svg" viewBox="0 0 1200 720" role="img" aria-labelledby="title-eng desc-eng" font-family="Inter, -apple-system, BlinkMacSystemFont, 'Segoe UI', Arial, sans-serif">
  <title id="title-eng">On-site Engagement: Organic Search vs AI Referral Traffic — PipeRocket Digital</title>
  <desc id="desc-eng">Organic search visitors spend 4 minutes 40 seconds on page versus AI-referred visitors at 3 minutes 25 seconds, with bounce rates of 36.7% vs 43.6%. Within AI traffic, engagement rates vary widely: Microsoft Copilot 73.4%, ChatGPT 69.1%, Perplexity 61.8%, Gemini 58.0%, Claude 43.9%.</desc>

  <rect width="1200" height="720" fill="#F6F6F1"/>

  <rect x="0" y="0" width="1200" height="110" fill="#282828"/>
  <text x="50" y="48" fill="#ffffff" font-size="12" font-weight="700" letter-spacing="2.4">PIPEROCKET DIGITAL · STATE OF SEO IN THE AI WORLD 2026</text>
  <text x="50" y="85" fill="#ffffff" font-size="26" font-weight="700">On-site Engagement: Organic vs AI Referral</text>
  <rect x="0" y="110" width="1200" height="4" fill="#0BA6E2"/>
  <text x="50" y="148" fill="#282828" font-size="14">Organic readers stay longer and bounce less. Within AI traffic, engagement varies 30 points across the 5 engines.</text>

  <!-- LEFT: Time on page + bounce rate comparison -->
  <g transform="translate(50, 195)">
    <text x="0" y="0" fill="#888" font-size="11" font-weight="700" letter-spacing="2">SEGMENT-LEVEL ENGAGEMENT</text>
    <text x="0" y="22" fill="#282828" font-size="20" font-weight="700">Organic vs AI on-site behaviour</text>

    <!-- Time on page card -->
    <g transform="translate(0, 50)">
      <rect width="540" height="180" rx="12" fill="#ffffff" stroke="#E8E8E8"/>
      <text x="22" y="32" fill="#888" font-size="10" font-weight="700" letter-spacing="1.5">AVG TIME ON PAGE</text>
      <text x="22" y="74" fill="#0BA6E2" font-size="36" font-weight="700">4m 40s</text>
      <text x="22" y="92" fill="#282828" font-size="13" font-weight="600">Organic search</text>
      <rect x="22" y="100" width="490" height="10" rx="5" fill="#F0F0EB"/>
      <rect x="22" y="100" width="490" height="10" rx="5" fill="#0BA6E2"/>

      <text x="22" y="134" fill="#FF6B5C" font-size="22" font-weight="700">3m 25s</text>
      <text x="86" y="134" fill="#282828" font-size="13">AI referral</text>
      <rect x="22" y="146" width="490" height="10" rx="5" fill="#F0F0EB"/>
      <rect x="22" y="146" width="358" height="10" rx="5" fill="#FF6B5C"/>
      <text x="22" y="172" fill="#888" font-size="11" font-style="italic">75 seconds longer for organic</text>
    </g>

    <!-- Bounce rate card -->
    <g transform="translate(0, 250)">
      <rect width="540" height="180" rx="12" fill="#ffffff" stroke="#E8E8E8"/>
      <text x="22" y="32" fill="#888" font-size="10" font-weight="700" letter-spacing="1.5">BOUNCE RATE</text>
      <text x="22" y="74" fill="#0BA6E2" font-size="36" font-weight="700">36.7%</text>
      <text x="22" y="92" fill="#282828" font-size="13" font-weight="600">Organic search</text>
      <rect x="22" y="100" width="490" height="10" rx="5" fill="#F0F0EB"/>
      <rect x="22" y="100" width="180" height="10" rx="5" fill="#0BA6E2"/>

      <text x="22" y="134" fill="#FF6B5C" font-size="22" font-weight="700">43.6%</text>
      <text x="80" y="134" fill="#282828" font-size="13">AI referral</text>
      <rect x="22" y="146" width="490" height="10" rx="5" fill="#F0F0EB"/>
      <rect x="22" y="146" width="214" height="10" rx="5" fill="#FF6B5C"/>
      <text x="22" y="172" fill="#888" font-size="11" font-style="italic">6.9-point gap in favor of organic</text>
    </g>
  </g>

  <!-- RIGHT: Engagement rate by AI platform -->
  <g transform="translate(620, 195)">
    <rect width="530" height="435" rx="12" fill="#282828"/>
    <text x="22" y="34" fill="#0BA6E2" font-size="11" font-weight="700" letter-spacing="2">WITHIN AI TRAFFIC</text>
    <text x="22" y="62" fill="#ffffff" font-size="20" font-weight="700">Engagement rate by AI platform</text>
    <text x="22" y="84" fill="rgba(255,255,255,0.7)" font-size="12">A 30-point spread across the 5 engines tracked.</text>

    <!-- Bar chart -->
    <g transform="translate(22, 120)">
      <!-- Copilot -->
      <text x="0" y="22" fill="#ffffff" font-size="13" font-weight="600">Microsoft Copilot</text>
      <rect x="146" y="6" width="350" height="22" rx="4" fill="#0BA6E2"/>
      <text x="500" y="22" fill="#ffffff" font-size="13" font-weight="700" text-anchor="end">73.4%</text>

      <!-- ChatGPT -->
      <text x="0" y="62" fill="#ffffff" font-size="13" font-weight="600">ChatGPT</text>
      <rect x="146" y="46" width="329" height="22" rx="4" fill="#0BA6E2" opacity="0.85"/>
      <text x="479" y="62" fill="#ffffff" font-size="13" font-weight="700" text-anchor="end">69.1%</text>

      <!-- Perplexity -->
      <text x="0" y="102" fill="#ffffff" font-size="13" font-weight="600">Perplexity</text>
      <rect x="146" y="86" width="294" height="22" rx="4" fill="#0BA6E2" opacity="0.72"/>
      <text x="444" y="102" fill="#ffffff" font-size="13" font-weight="700" text-anchor="end">61.8%</text>

      <!-- Gemini -->
      <text x="0" y="142" fill="#ffffff" font-size="13" font-weight="600">Google Gemini</text>
      <rect x="146" y="126" width="276" height="22" rx="4" fill="#0BA6E2" opacity="0.6"/>
      <text x="426" y="142" fill="#ffffff" font-size="13" font-weight="700" text-anchor="end">58.0%</text>

      <!-- Claude -->
      <text x="0" y="182" fill="#ffffff" font-size="13" font-weight="600">Claude</text>
      <rect x="146" y="166" width="209" height="22" rx="4" fill="#FF6B5C"/>
      <text x="359" y="182" fill="#ffffff" font-size="13" font-weight="700" text-anchor="end">43.9%</text>
    </g>

    <!-- Take-away -->
    <g transform="translate(22, 330)">
      <rect width="486" height="86" rx="10" fill="rgba(255,255,255,0.06)"/>
      <text x="22" y="30" fill="#0BA6E2" font-size="11" font-weight="700" letter-spacing="2">TAKE-AWAY</text>
      <text x="22" y="56" fill="#ffffff" font-size="14" font-weight="700">Copilot users arrive in "work mode"</text>
      <text x="22" y="75" fill="rgba(255,255,255,0.75)" font-size="12">Embedded inside enterprise productivity tools → highest engagement of any AI engine.</text>
    </g>
  </g>

  <text x="1150" y="708" fill="rgba(40,40,40,0.5)" font-size="11" text-anchor="end">piperocket.digital · Organic vs AI on-site engagement</text>
</svg>
