<svg xmlns="http://www.w3.org/2000/svg" aria-labelledby="title-a desc-a" font-family="Inter, -apple-system, BlinkMacSystemFont, 'Segoe UI', Arial, sans-serif" viewBox="0 0 1200 720"><title>Anatomy of a SaaS SEO Program — PipeRocket Digital</title><desc>The four pillars of a SaaS SEO program: Content (BOFU/MOFU/TOFU + hub-and-spoke), Technical (crawl, index, speed, schema), Authority (digital PR, data studies, directories, integrations), and Measurement (organic SQLs, CAC, pipeline contribution). All four feed a single outcome: pipeline, not sessions.</desc><path fill="#f6f6f1" d="M0 0h1200v720H0z"/><path fill="#e8e4da" d="M0 0h1200v110H0z"/><text x="50" y="48" fill="#0d0d0d" font-size="12" font-weight="700" letter-spacing="2.4">PIPEROCKET DIGITAL · SaaS SEO ANATOMY</text><text x="50" y="85" fill="#0d0d0d" font-size="26" font-weight="700">Anatomy of a SaaS SEO Program</text><path fill="#0cc6f1" d="M0 110h1200v4H0z"/><text x="50" y="148" fill="#282828" font-size="14">Four pillars. One outcome: pipeline.</text><g transform="translate(50 180)"><rect width="260" height="380" fill="#fff" stroke="#d9d5c9" rx="14"/><rect width="260" height="62" fill="#0cc6f1" rx="14"/><path fill="#0cc6f1" d="M0 48h260v14H0z"/><text x="22" y="38" fill="#0d0d0d" font-size="20" font-weight="700">Content</text><text x="22" y="56" fill="rgba(13, 13, 13, 0.85)" font-size="11" letter-spacing="1.2">PILLAR 1</text><text x="22" y="95" fill="#282828" font-size="12" font-weight="700" letter-spacing=".8">CONTENT TYPES</text><text x="22" y="118" fill="#1a1a1a" font-size="13">· Comparison pages</text><text x="22" y="138" fill="#1a1a1a" font-size="13">· Alternative pages</text><text x="22" y="158" fill="#1a1a1a" font-size="13">· Pricing &amp; product</text><text x="22" y="178" fill="#1a1a1a" font-size="13">· How-to guides</text><text x="22" y="198" fill="#1a1a1a" font-size="13">· Glossary &amp; definitions</text><text x="22" y="218" fill="#1a1a1a" font-size="13">· Pillar &amp; cluster posts</text><text x="22" y="250" fill="#282828" font-size="12" font-weight="700" letter-spacing=".8">ARCHITECTURE</text><text x="22" y="273" fill="#1a1a1a" font-size="13">· Hub-and-spoke topics</text><text x="22" y="293" fill="#1a1a1a" font-size="13">· BOFU built before TOFU</text><text x="22" y="313" fill="#1a1a1a" font-size="13">· ICP-first keywords</text><text x="22" y="354" fill="#0cc6f1" font-size="12" font-weight="700" letter-spacing="1.2">DRIVES INTENT MATCH</text></g><g transform="translate(330 180)"><rect width="260" height="380" fill="#fff" stroke="#d9d5c9" rx="14"/><rect width="260" height="62" fill="#0cc6f1" rx="14"/><path fill="#0cc6f1" d="M0 48h260v14H0z"/><text x="22" y="38" fill="#0d0d0d" font-size="20" font-weight="700">Technical</text><text x="22" y="56" fill="rgba(13, 13, 13, 0.85)" font-size="11" letter-spacing="1.2">PILLAR 2</text><text x="22" y="95" fill="#282828" font-size="12" font-weight="700" letter-spacing=".8">FOUNDATIONS</text><text x="22" y="118" fill="#1a1a1a" font-size="13">· Crawlability &amp; index</text><text x="22" y="138" fill="#1a1a1a" font-size="13">· Core Web Vitals</text><text x="22" y="158" fill="#1a1a1a" font-size="13">· Schema markup</text><text x="22" y="178" fill="#1a1a1a" font-size="13">· Internal link graph</text><text x="22" y="198" fill="#1a1a1a" font-size="13">· Sitemap hygiene</text><text x="22" y="218" fill="#1a1a1a" font-size="13">· Render path (JS)</text><text x="22" y="250" fill="#282828" font-size="12" font-weight="700" letter-spacing=".8">FOR AI SEARCH</text><text x="22" y="273" fill="#1a1a1a" font-size="13">· Clean HTML structure</text><text x="22" y="293" fill="#1a1a1a" font-size="13">· Answer-first formatting</text><text x="22" y="313" fill="#1a1a1a" font-size="13">· Entity consistency</text><text x="22" y="354" fill="#0cc6f1" font-size="12" font-weight="700" letter-spacing="1.2">UNBLOCKS RANKING</text></g><g transform="translate(610 180)"><rect width="260" height="380" fill="#fff" stroke="#d9d5c9" rx="14"/><rect width="260" height="62" fill="#0cc6f1" rx="14"/><path fill="#0cc6f1" d="M0 48h260v14H0z"/><text x="22" y="38" fill="#0d0d0d" font-size="20" font-weight="700">Authority</text><text x="22" y="56" fill="rgba(13, 13, 13, 0.85)" font-size="11" letter-spacing="1.2">PILLAR 3</text><text x="22" y="95" fill="#282828" font-size="12" font-weight="700" letter-spacing=".8">LINK ACQUISITION</text><text x="22" y="118" fill="#1a1a1a" font-size="13">· Digital PR &amp; outreach</text><text x="22" y="138" fill="#1a1a1a" font-size="13">· Original data studies</text><text x="22" y="158" fill="#1a1a1a" font-size="13">· Free tools / calculators</text><text x="22" y="178" fill="#1a1a1a" font-size="13">· G2 &amp; Capterra listings</text><text x="22" y="198" fill="#1a1a1a" font-size="13">· Integration pages</text><text x="22" y="218" fill="#1a1a1a" font-size="13">· Unlinked mentions</text><text x="22" y="250" fill="#282828" font-size="12" font-weight="700" letter-spacing=".8">BRAND SIGNALS</text><text x="22" y="273" fill="#1a1a1a" font-size="13">· Entity consistency</text><text x="22" y="293" fill="#1a1a1a" font-size="13">· LinkedIn + press</text><text x="22" y="313" fill="#1a1a1a" font-size="13">· Founder visibility</text><text x="22" y="354" fill="#0cc6f1" font-size="12" font-weight="700" letter-spacing="1.2">COMPOUNDS TRUST</text></g><g transform="translate(890 180)"><rect width="260" height="380" fill="#e8e4da" stroke="#282828" rx="14"/><rect width="260" height="62" fill="#0cc6f1" rx="14"/><path fill="#0cc6f1" d="M0 48h260v14H0z"/><text x="22" y="38" fill="#0d0d0d" font-size="20" font-weight="700">Measurement</text><text x="22" y="56" fill="rgba(13, 13, 13, 0.85)" font-size="11" letter-spacing="1.2">PILLAR 4</text><text x="22" y="95" fill="#0d0d0d" font-size="12" font-weight="700" letter-spacing=".8">KEEP</text><text x="22" y="118" fill="rgba(13, 13, 13, 0.85)" font-size="13">· Organic SQLs / month</text><text x="22" y="138" fill="rgba(13, 13, 13, 0.85)" font-size="13">· Organic-to-trial CVR</text><text x="22" y="158" fill="rgba(13, 13, 13, 0.85)" font-size="13">· Organic CAC vs paid</text><text x="22" y="178" fill="rgba(13, 13, 13, 0.85)" font-size="13">· Pipeline-contribution %</text><text x="22" y="198" fill="rgba(13, 13, 13, 0.85)" font-size="13">· Referring domains</text><text x="22" y="218" fill="rgba(13, 13, 13, 0.85)" font-size="13">· AI Overview citations</text><text x="22" y="250" fill="#0d0d0d" font-size="12" font-weight="700" letter-spacing=".8">DROP</text><text x="22" y="273" fill="rgba(13, 13, 13, 0.65)" font-size="13" text-decoration="line-through">· Raw sessions</text><text x="22" y="293" fill="rgba(13, 13, 13, 0.65)" font-size="13" text-decoration="line-through">· Bounce rate</text><text x="22" y="313" fill="rgba(13, 13, 13, 0.65)" font-size="13" text-decoration="line-through">· DA / DR score</text><text x="22" y="354" fill="#0cc6f1" font-size="12" font-weight="700" letter-spacing="1.2">REPORTS PIPELINE</text></g><rect width="1100" height="78" x="50" y="595" fill="#e8e4da" stroke="#0cc6f1" stroke-width="1.5" rx="12"/><text x="600" y="630" fill="#fff" font-size="14" font-weight="700" letter-spacing="2" text-anchor="middle">OUTCOME</text><text x="600" y="660" fill="#0cc6f1" font-size="22" font-weight="700" text-anchor="middle">Qualified pipeline that compounds, not vanity sessions.</text><text x="1150" y="708" fill="rgba(40,40,40,0.5)" font-size="11" text-anchor="end">piperocket.digital · Anatomy of a SaaS SEO Program</text></svg>