<svg xmlns="http://www.w3.org/2000/svg" aria-labelledby="title-ppc desc-ppc" font-family="Inter, -apple-system, BlinkMacSystemFont, 'Segoe UI', Arial, sans-serif" viewBox="0 0 1200 680"><title>The 6-Step B2B PPC Flow — PipeRocket Digital</title><desc>Six sequential steps for B2B PPC campaigns that generate pipeline: 1) Understand and map your ICP, 2) Map keywords to buyer intent, 3) Structure campaigns around the sales cycle, 4) Write ad copy for the right stakeholder, 5) Build landing pages that convert, 6) Track pipeline, not just leads.</desc><path fill="#f6f6f1" d="M0 0h1200v680H0z"/><path fill="#e8e4da" d="M0 0h1200v110H0z"/><text x="50" y="48" fill="#0d0d0d" font-size="12" font-weight="700" letter-spacing="2.4">PIPEROCKET DIGITAL · B2B PPC FRAMEWORK</text><text x="50" y="85" fill="#0d0d0d" font-size="26" font-weight="700">The 6-Step B2B PPC Flow</text><path fill="#0cc6f1" d="M0 110h1200v4H0z"/><text x="50" y="148" fill="#282828" font-size="14">Foundation → intent → structure → copy → conversion → revenue. Skip a step, the system breaks.</text><g transform="translate(50 200)"><rect width="340" height="170" fill="#fff" stroke="#d9d5c9" rx="12"/><circle cx="32" cy="32" r="22" fill="#0cc6f1"/><text x="32" y="38" fill="#0d0d0d" font-size="18" font-weight="700" text-anchor="middle">1</text><text x="64" y="38" fill="#282828" font-size="15" font-weight="700">ICP Mapping</text><text x="22" y="78" fill="#3f3f3f" font-size="13">Pull last 20-30 closed-won deals.</text><text x="22" y="97" fill="#3f3f3f" font-size="13">Look for patterns: company size,</text><text x="22" y="116" fill="#3f3f3f" font-size="13">industry, champion title, deal size,</text><text x="22" y="135" fill="#3f3f3f" font-size="13">time to close.</text><text x="22" y="160" fill="#0cc6f1" font-size="11" font-weight="700" letter-spacing="1.2">FOUNDATION</text></g><path stroke="#282828" stroke-width="2.5" d="M390 280h40"/><path fill="#282828" d="m424 274 8 6-8 6z"/><g transform="translate(440 200)"><rect width="340" height="170" fill="#fff" stroke="#d9d5c9" rx="12"/><circle cx="32" cy="32" r="22" fill="#0cc6f1"/><text x="32" y="38" fill="#0d0d0d" font-size="18" font-weight="700" text-anchor="middle">2</text><text x="64" y="38" fill="#282828" font-size="15" font-weight="700">Map Keywords to Intent</text><text x="22" y="78" fill="#3f3f3f" font-size="13">Awareness · Consideration · Decision.</text><text x="22" y="97" fill="#3f3f3f" font-size="13">Don&apos;t bid on problem-stage keywords</text><text x="22" y="116" fill="#3f3f3f" font-size="13">if your goal is demo requests today.</text><text x="22" y="135" fill="#3f3f3f" font-size="13">Each stage needs its own campaign.</text><text x="22" y="160" fill="#0cc6f1" font-size="11" font-weight="700" letter-spacing="1.2">INTENT FILTER</text></g><path stroke="#282828" stroke-width="2.5" d="M780 280h40"/><path fill="#282828" d="m814 274 8 6-8 6z"/><g transform="translate(830 200)"><rect width="320" height="170" fill="#e8e4da" stroke="#0cc6f1" stroke-width="1.5" rx="12"/><circle cx="32" cy="32" r="22" fill="#0cc6f1"/><text x="32" y="38" fill="#0d0d0d" font-size="18" font-weight="700" text-anchor="middle">3</text><text x="64" y="38" fill="#0d0d0d" font-size="15" font-weight="700">Campaign Structure</text><text x="22" y="78" fill="rgba(13, 13, 13, 0.85)" font-size="13">Separate brand, competitor, and</text><text x="22" y="97" fill="rgba(13, 13, 13, 0.85)" font-size="13">non-brand campaigns. One ad group</text><text x="22" y="116" fill="rgba(13, 13, 13, 0.85)" font-size="13">per tightly-themed keyword cluster.</text><text x="22" y="135" fill="rgba(13, 13, 13, 0.85)" font-size="13">Layer audience + intent signals.</text><text x="22" y="160" fill="#0cc6f1" font-size="11" font-weight="700" letter-spacing="1.2">SALES-CYCLE FIT</text></g><path fill="none" stroke="#0cc6f1" stroke-dasharray="6,5" stroke-width="2.5" d="M990 395v25q0 30-30 30H240q-30 0-30 30v15"/><path fill="#0cc6f1" d="m204 490 6 10 6-10z"/><g transform="translate(50 500)"><rect width="340" height="170" fill="#fff" stroke="#d9d5c9" rx="12"/><circle cx="32" cy="32" r="22" fill="#0cc6f1"/><text x="32" y="38" fill="#0d0d0d" font-size="18" font-weight="700" text-anchor="middle">4</text><text x="64" y="38" fill="#282828" font-size="15" font-weight="700">Ad Copy by Stakeholder</text><text x="22" y="78" fill="#3f3f3f" font-size="13">Headline 1: pain. Headline 2: outcome.</text><text x="22" y="97" fill="#3f3f3f" font-size="13">Headline 3: proof. The CFO ad reads</text><text x="22" y="116" fill="#3f3f3f" font-size="13">differently than the dev-lead ad.</text><text x="22" y="135" fill="#3f3f3f" font-size="13">Match copy to keyword intent.</text><text x="22" y="160" fill="#0cc6f1" font-size="11" font-weight="700" letter-spacing="1.2">MESSAGING FIT</text></g><path stroke="#282828" stroke-width="2.5" d="M390 580h40"/><path fill="#282828" d="m424 574 8 6-8 6z"/><g transform="translate(440 500)"><rect width="340" height="170" fill="#fff" stroke="#d9d5c9" rx="12"/><circle cx="32" cy="32" r="22" fill="#0cc6f1"/><text x="32" y="38" fill="#0d0d0d" font-size="18" font-weight="700" text-anchor="middle">5</text><text x="64" y="38" fill="#282828" font-size="15" font-weight="700">Conversion-First LP</text><text x="22" y="78" fill="#3f3f3f" font-size="13">One offer per landing page. Match</text><text x="22" y="97" fill="#3f3f3f" font-size="13">the ad headline word-for-word.</text><text x="22" y="116" fill="#3f3f3f" font-size="13">Form short, social proof high,</text><text x="22" y="135" fill="#3f3f3f" font-size="13">friction minimal.</text><text x="22" y="160" fill="#0cc6f1" font-size="11" font-weight="700" letter-spacing="1.2">CONVERSION</text></g><path stroke="#282828" stroke-width="2.5" d="M780 580h40"/><path fill="#282828" d="m814 574 8 6-8 6z"/><g transform="translate(830 500)"><rect width="320" height="170" fill="#e8e4da" stroke="#0cc6f1" stroke-width="1.5" rx="12"/><circle cx="32" cy="32" r="22" fill="#0cc6f1"/><text x="32" y="38" fill="#0d0d0d" font-size="18" font-weight="700" text-anchor="middle">6</text><text x="64" y="38" fill="#0d0d0d" font-size="15" font-weight="700">Track Pipeline</text><text x="22" y="78" fill="rgba(13, 13, 13, 0.85)" font-size="13">CPL is the wrong KPI. Track CAC,</text><text x="22" y="97" fill="rgba(13, 13, 13, 0.85)" font-size="13">SQL rate, and pipeline contribution.</text><text x="22" y="116" fill="rgba(13, 13, 13, 0.85)" font-size="13">Offline conversions imported from</text><text x="22" y="135" fill="rgba(13, 13, 13, 0.85)" font-size="13">CRM. Optimise to deals, not leads.</text><text x="22" y="160" fill="#0cc6f1" font-size="11" font-weight="700" letter-spacing="1.2">REVENUE</text></g><text x="1150" y="658" fill="rgba(40,40,40,0.5)" font-size="11" text-anchor="end">piperocket.digital · The 6-Step B2B PPC Flow</text></svg>