<svg xmlns="http://www.w3.org/2000/svg" viewBox="0 0 1200 720" role="img" aria-labelledby="title-cm desc-cm" font-family="Inter, -apple-system, BlinkMacSystemFont, 'Segoe UI', Arial, sans-serif">
  <title id="title-cm">The B2B Marketing Channel Mix — PipeRocket Digital</title>
  <desc id="desc-cm">Seven core B2B marketing strategies arranged in a wheel around the buyer: content marketing, account-based marketing, email nurturing &amp; automation, thought leadership and social, events and webinars, paid media, and sales-marketing alignment.</desc>

  <rect width="1200" height="720" fill="#F6F6F1" />

  
  <rect x="0" y="0" width="1200" height="110" fill="#E8E4DA" />
  <text x="50" y="48" fill="#0D0D0D" font-size="12" font-weight="700" letter-spacing="2.4">PIPEROCKET DIGITAL · B2B MARKETING</text>
  <text x="50" y="85" fill="#0D0D0D" font-size="26" font-weight="700">The B2B Marketing Channel Mix</text>
  <rect x="0" y="110" width="1200" height="4" fill="#0CC6F1" />
  <text x="50" y="148" fill="#282828" font-size="14">Seven channels that surround the buyer. Each plays a different role across the funnel.</text>

  
  <g transform="translate(600, 440)">
    <circle cx="0" cy="0" r="100" fill="#282828" />
    <text x="0" y="-12" fill="#0CC6F1" font-size="11" font-weight="700" text-anchor="middle" letter-spacing="2">CENTER OF GRAVITY</text>
    <text x="0" y="14" fill="#0D0D0D" font-size="22" font-weight="700" text-anchor="middle">B2B Buyer</text>
    <text x="0" y="36" fill="rgba(13, 13, 13, 0.75)" font-size="12" text-anchor="middle">CMO · Dev lead · CFO</text>
  </g>

  
  <g stroke="#282828" stroke-width="1.5" stroke-dasharray="4,4" opacity="0.4">
    <line x1="600" y1="440" x2="600" y2="240" />
    <line x1="600" y1="440" x2="820" y2="295" />
    <line x1="600" y1="440" x2="930" y2="445" />
    <line x1="600" y1="440" x2="820" y2="595" />
    <line x1="600" y1="440" x2="380" y2="595" />
    <line x1="600" y1="440" x2="270" y2="445" />
    <line x1="600" y1="440" x2="380" y2="295" />
  </g>

  
  
  <g transform="translate(478, 195)">
    <rect width="244" height="90" rx="10" fill="#ffffff" stroke="#0CC6F1" stroke-width="2" />
    <circle cx="28" cy="28" r="16" fill="#0CC6F1" />
    <text x="28" y="34" fill="#0D0D0D" font-size="13" font-weight="700" text-anchor="middle">1</text>
    <text x="56" y="32" fill="#282828" font-size="14" font-weight="700">Content Marketing</text>
    <text x="56" y="52" fill="#3F3F3F" font-size="11">SEO, blog, pillar pages, glossary</text>
    <text x="56" y="69" fill="#3F3F3F" font-size="11">Funnel: TOFU → BOFU</text>
  </g>

  
  <g transform="translate(770, 250)">
    <rect width="244" height="90" rx="10" fill="#ffffff" stroke="#D9D5C9" />
    <circle cx="28" cy="28" r="16" fill="#0CC6F1" />
    <text x="28" y="34" fill="#0D0D0D" font-size="13" font-weight="700" text-anchor="middle">2</text>
    <text x="56" y="32" fill="#282828" font-size="14" font-weight="700">Account-Based Marketing</text>
    <text x="56" y="52" fill="#3F3F3F" font-size="11">Target accounts, multi-thread</text>
    <text x="56" y="69" fill="#3F3F3F" font-size="11">Funnel: Mid → BOFU</text>
  </g>

  
  <g transform="translate(890, 400)">
    <rect width="244" height="90" rx="10" fill="#ffffff" stroke="#D9D5C9" />
    <circle cx="28" cy="28" r="16" fill="#0CC6F1" />
    <text x="28" y="34" fill="#0D0D0D" font-size="13" font-weight="700" text-anchor="middle">3</text>
    <text x="56" y="32" fill="#282828" font-size="14" font-weight="700">Email &amp; Automation</text>
    <text x="56" y="52" fill="#3F3F3F" font-size="11">Drip nurture, lifecycle, retention</text>
    <text x="56" y="69" fill="#3F3F3F" font-size="11">Funnel: MOFU → Retention</text>
  </g>

  
  <g transform="translate(770, 555)">
    <rect width="244" height="90" rx="10" fill="#ffffff" stroke="#D9D5C9" />
    <circle cx="28" cy="28" r="16" fill="#0CC6F1" />
    <text x="28" y="34" fill="#0D0D0D" font-size="13" font-weight="700" text-anchor="middle">4</text>
    <text x="56" y="32" fill="#282828" font-size="14" font-weight="700">Thought Leadership</text>
    <text x="56" y="52" fill="#3F3F3F" font-size="11">Founder LinkedIn, podcasts, PR</text>
    <text x="56" y="69" fill="#3F3F3F" font-size="11">Funnel: TOFU brand lift</text>
  </g>

  
  <g transform="translate(186, 555)">
    <rect width="244" height="90" rx="10" fill="#ffffff" stroke="#D9D5C9" />
    <circle cx="28" cy="28" r="16" fill="#0CC6F1" />
    <text x="28" y="34" fill="#0D0D0D" font-size="13" font-weight="700" text-anchor="middle">5</text>
    <text x="56" y="32" fill="#282828" font-size="14" font-weight="700">Events &amp; Webinars</text>
    <text x="56" y="52" fill="#3F3F3F" font-size="11">Booths, dinners, live demos</text>
    <text x="56" y="69" fill="#3F3F3F" font-size="11">Funnel: MOFU → BOFU</text>
  </g>

  
  <g transform="translate(66, 400)">
    <rect width="244" height="90" rx="10" fill="#ffffff" stroke="#D9D5C9" />
    <circle cx="28" cy="28" r="16" fill="#0CC6F1" />
    <text x="28" y="34" fill="#0D0D0D" font-size="13" font-weight="700" text-anchor="middle">6</text>
    <text x="56" y="32" fill="#282828" font-size="14" font-weight="700">Paid Media for B2B</text>
    <text x="56" y="52" fill="#3F3F3F" font-size="11">Google Ads, LinkedIn, retargeting</text>
    <text x="56" y="69" fill="#3F3F3F" font-size="11">Funnel: TOFU + BOFU</text>
  </g>

  
  <g transform="translate(186, 250)">
    <rect width="244" height="90" rx="10" fill="#ffffff" stroke="#D9D5C9" />
    <circle cx="28" cy="28" r="16" fill="#0CC6F1" />
    <text x="28" y="34" fill="#0D0D0D" font-size="13" font-weight="700" text-anchor="middle">7</text>
    <text x="56" y="32" fill="#282828" font-size="14" font-weight="700">Sales-Marketing Alignment</text>
    <text x="56" y="52" fill="#3F3F3F" font-size="11">SLA, MQL → SQL handoff, CRM</text>
    <text x="56" y="69" fill="#3F3F3F" font-size="11">Funnel: BOFU → Close</text>
  </g>

  <text x="1150" y="698" fill="rgba(40,40,40,0.5)" font-size="11" text-anchor="end">piperocket.digital · B2B Marketing Channel Mix</text>
</svg>