<svg xmlns="http://www.w3.org/2000/svg" aria-labelledby="title-fn desc-fn" font-family="Inter, -apple-system, BlinkMacSystemFont, 'Segoe UI', Arial, sans-serif" viewBox="0 0 1200 720"><title>Funnel Stage and Brand Intent: AI vs Organic — PipeRocket Digital</title><desc>AI traffic skews harder toward bottom-of-funnel sessions (44% BoFu vs 41% for organic), but only 11.8% of AI-referred sessions carry brand-name intent compared to 28.1% for organic — a 16.3-point gap. Of all top-of-funnel traffic, 83.4% comes from organic; of all bottom-of-funnel traffic, 81.5% comes from organic.</desc><path fill="#f6f6f1" d="M0 0h1200v720H0z"/><path fill="#e8e4da" d="M0 0h1200v110H0z"/><text x="50" y="48" fill="#0d0d0d" font-size="12" font-weight="700" letter-spacing="2.4">PIPEROCKET DIGITAL · STATE OF SEO IN THE AI WORLD 2026</text><text x="50" y="85" fill="#0d0d0d" font-size="26" font-weight="700">Funnel Stage &amp; Brand Intent: AI vs Organic</text><path fill="#0cc6f1" d="M0 110h1200v4H0z"/><text x="50" y="148" fill="#282828" font-size="14">AI sessions skew BoFu, but carry less than half the brand intent of organic. Pattern means AI feeds discovery, organic closes.</text><text fill="#6b6b6b" font-size="11" font-weight="700" letter-spacing="2" transform="translate(50 195)">FUNNEL COMPOSITION</text><text y="22" fill="#282828" font-size="20" font-weight="700" transform="translate(50 195)">% of sessions by funnel stage</text><g transform="translate(50 255)"><text y="22" fill="#282828" font-size="13" font-weight="600">Organic search</text><rect width="380" height="28" x="160" y="6" fill="#e8e4da" rx="4"/><rect width="224" height="28" x="160" y="6" fill="#0cc6f1" rx="4"/><text x="170" y="25" fill="#0d0d0d" font-size="12" font-weight="700">59% ToFu</text><text x="395" y="25" fill="#6b6b6b" font-size="12" font-weight="700">41% BoFu</text></g><g transform="translate(50 305)"><text y="22" fill="#282828" font-size="13" font-weight="600">AI referral</text><rect width="380" height="28" x="160" y="6" fill="#e8e4da" rx="4"/><rect width="213" height="28" x="160" y="6" fill="#ff6b5c" rx="4"/><text x="170" y="25" fill="#0d0d0d" font-size="12" font-weight="700">56% ToFu</text><text x="385" y="25" fill="#6b6b6b" font-size="12" font-weight="700">44% BoFu</text></g><text y="180" fill="#6b6b6b" font-size="11" font-style="italic" transform="translate(50 195)">AI sessions skew 3 points more BoFu than organic — but organic still drives 4.4x more BoFu in absolute volume.</text><g transform="translate(50 415)"><text fill="#6b6b6b" font-size="11" font-weight="700" letter-spacing="1.5">SHARE OF EACH STAGE BY SOURCE</text><text y="30" fill="#282828" font-size="13" font-weight="600">Of all ToFu traffic</text><rect width="380" height="22" x="160" y="14" fill="#e8e4da" rx="4"/><rect width="317" height="22" x="160" y="14" fill="#0cc6f1" rx="4"/><text x="170" y="30" fill="#0d0d0d" font-size="12" font-weight="700">Organic 83.4%</text><text x="488" y="30" fill="#6b6b6b" font-size="11">AI 16.6%</text><text y="70" fill="#282828" font-size="13" font-weight="600">Of all BoFu traffic</text><rect width="380" height="22" x="160" y="54" fill="#e8e4da" rx="4"/><rect width="310" height="22" x="160" y="54" fill="#0cc6f1" rx="4"/><text x="170" y="70" fill="#0d0d0d" font-size="12" font-weight="700">Organic 81.5%</text><text x="480" y="70" fill="#6b6b6b" font-size="11">AI 18.5%</text></g><g transform="translate(620 195)"><rect width="530" height="435" fill="#e8e4da" stroke="#0cc6f1" stroke-width="1.5" rx="12"/><text x="22" y="34" fill="#0cc6f1" font-size="11" font-weight="700" letter-spacing="2">BRAND-NAME SEARCH INTENT</text><text x="22" y="62" fill="#0d0d0d" font-size="20" font-weight="700">% of sessions with brand intent</text><text x="22" y="84" fill="rgba(13, 13, 13, 0.7)" font-size="12">How often the session included a brand-name in the query.</text><g transform="translate(22 120)"><rect width="225" height="200" fill="rgba(12, 198, 241,0.15)" rx="10"/><text x="22" y="36" fill="#0cc6f1" font-size="11" font-weight="700" letter-spacing="2">ORGANIC</text><text x="22" y="100" fill="#0d0d0d" font-size="56" font-weight="700">28.1%</text><text x="22" y="138" fill="rgba(13, 13, 13, 0.85)" font-size="13">Sessions included a brand-name query</text><text x="22" y="174" fill="rgba(13, 13, 13, 0.7)" font-size="11" font-style="italic">In HRTech: 64%</text></g><g transform="translate(260 120)"><rect width="225" height="200" fill="rgba(255,107,92,0.2)" rx="10"/><text x="22" y="36" fill="#ff6b5c" font-size="11" font-weight="700" letter-spacing="2">AI REFERRAL</text><text x="22" y="100" fill="#0d0d0d" font-size="56" font-weight="700">11.8%</text><text x="22" y="138" fill="rgba(13, 13, 13, 0.85)" font-size="13">Sessions included a brand-name query</text><text x="22" y="174" fill="rgba(13, 13, 13, 0.7)" font-size="11" font-style="italic">In HRTech: 4%</text></g><text fill="#0cc6f1" font-size="11" font-weight="700" letter-spacing="2" transform="translate(22 345)">TAKE-AWAY</text><text y="28" fill="#0d0d0d" font-size="14" font-weight="700" transform="translate(22 345)">AI surfaces categories before brands</text><text y="48" fill="rgba(13, 13, 13, 0.75)" font-size="12" transform="translate(22 345)">16.3-point brand-intent gap means AI is a discovery channel —</text><text y="64" fill="rgba(13, 13, 13, 0.75)" font-size="12" transform="translate(22 345)">build category-level content for AI, branded content for organic.</text></g><text x="1150" y="708" fill="rgba(40,40,40,0.5)" font-size="11" text-anchor="end">piperocket.digital · Funnel Stage &amp; Brand Intent</text></svg>