<svg xmlns="http://www.w3.org/2000/svg" aria-labelledby="title-ai desc-ai" font-family="Inter, -apple-system, BlinkMacSystemFont, 'Segoe UI', Arial, sans-serif" viewBox="0 0 1200 700"><title>How AI Search Engines Actually Work — PipeRocket Digital</title><desc>A diagram of the Retrieval-Augmented Generation (RAG) pipeline used by AI search engines like ChatGPT, Perplexity, and Gemini. A user prompt enters, the engine retrieves live web content via Google or Bing index rankings, ranks sources by authority and freshness, then the LLM generates an answer with citations.</desc><path fill="#f6f6f1" d="M0 0h1200v700H0z"/><path fill="#e8e4da" d="M0 0h1200v110H0z"/><text x="50" y="48" fill="#0d0d0d" font-size="12" font-weight="700" letter-spacing="2.4">PIPEROCKET DIGITAL · AI SEARCH MECHANICS</text><text x="50" y="85" fill="#0d0d0d" font-size="26" font-weight="700">How AI Search Engines Actually Work</text><path fill="#0cc6f1" d="M0 110h1200v4H0z"/><text x="50" y="148" fill="#282828" font-size="14">The RAG pipeline behind ChatGPT, Perplexity, Gemini, Copilot, and Claude. Where you can intervene.</text><g transform="translate(50 220)"><rect width="200" height="160" fill="#fff" stroke="#d9d5c9" rx="12"/><circle cx="32" cy="32" r="22" fill="#0cc6f1"/><text x="32" y="38" fill="#0d0d0d" font-size="18" font-weight="700" text-anchor="middle">1</text><text x="22" y="80" fill="#282828" font-size="14" font-weight="700">User Prompt</text><text x="22" y="105" fill="#3f3f3f" font-size="12">9-15 word conversational</text><text x="22" y="122" fill="#3f3f3f" font-size="12">question (not 3-keyword</text><text x="22" y="139" fill="#3f3f3f" font-size="12">search query)</text></g><path stroke="#282828" stroke-width="2.5" d="M258 300h20"/><path fill="#282828" d="m272 294 8 6-8 6z"/><g transform="translate(285 220)"><rect width="200" height="160" fill="#e8e4da" stroke="#0cc6f1" stroke-width="1.5" rx="12"/><circle cx="32" cy="32" r="22" fill="#0cc6f1"/><text x="32" y="38" fill="#0d0d0d" font-size="18" font-weight="700" text-anchor="middle">2</text><text x="22" y="80" fill="#0d0d0d" font-size="14" font-weight="700">Retrieval (live)</text><text x="22" y="105" fill="rgba(13, 13, 13, 0.85)" font-size="12">Engine queries Google /</text><text x="22" y="122" fill="rgba(13, 13, 13, 0.85)" font-size="12">Bing index. Pulls top 5-20</text><text x="22" y="139" fill="rgba(13, 13, 13, 0.85)" font-size="12">authoritative sources.</text></g><path stroke="#282828" stroke-width="2.5" d="M493 300h20"/><path fill="#282828" d="m507 294 8 6-8 6z"/><g transform="translate(520 220)"><rect width="200" height="160" fill="#fff" stroke="#0cc6f1" stroke-width="2" rx="12"/><circle cx="32" cy="32" r="22" fill="#0cc6f1"/><text x="32" y="38" fill="#0d0d0d" font-size="18" font-weight="700" text-anchor="middle">3</text><text x="22" y="80" fill="#282828" font-size="14" font-weight="700">Ranking &amp; Filtering</text><text x="22" y="105" fill="#3f3f3f" font-size="12">Sources scored on entity</text><text x="22" y="122" fill="#3f3f3f" font-size="12">strength, freshness, and</text><text x="22" y="139" fill="#3f3f3f" font-size="12">topical authority.</text></g><path stroke="#282828" stroke-width="2.5" d="M728 300h20"/><path fill="#282828" d="m742 294 8 6-8 6z"/><g transform="translate(755 220)"><rect width="200" height="160" fill="#e8e4da" stroke="#0cc6f1" stroke-width="1.5" rx="12"/><circle cx="32" cy="32" r="22" fill="#0cc6f1"/><text x="32" y="38" fill="#0d0d0d" font-size="18" font-weight="700" text-anchor="middle">4</text><text x="22" y="80" fill="#0d0d0d" font-size="14" font-weight="700">LLM Generation</text><text x="22" y="105" fill="rgba(13, 13, 13, 0.85)" font-size="12">Synthesises a direct</text><text x="22" y="122" fill="rgba(13, 13, 13, 0.85)" font-size="12">answer in 100-300 words</text><text x="22" y="139" fill="rgba(13, 13, 13, 0.85)" font-size="12">with inline citations.</text></g><path stroke="#282828" stroke-width="2.5" d="M963 300h20"/><path fill="#282828" d="m977 294 8 6-8 6z"/><g transform="translate(990 220)"><rect width="160" height="160" fill="#fff" stroke="#d9d5c9" rx="12"/><circle cx="32" cy="32" r="22" fill="#0cc6f1"/><text x="32" y="38" fill="#0d0d0d" font-size="18" font-weight="700" text-anchor="middle">5</text><text x="22" y="80" fill="#282828" font-size="14" font-weight="700">Answer + Cite</text><text x="22" y="105" fill="#3f3f3f" font-size="12">User reads answer.</text><text x="22" y="122" fill="#3f3f3f" font-size="12">~30% click a citation</text><text x="22" y="139" fill="#3f3f3f" font-size="12">to your site.</text></g><g transform="translate(50 430)"><rect width="1100" height="220" fill="#fff" stroke="#d9d5c9" rx="12"/><text x="22" y="36" fill="#0cc6f1" font-size="12" font-weight="700" letter-spacing="2">YOUR INTERVENTION POINTS</text><text x="22" y="64" fill="#282828" font-size="18" font-weight="700">Three places you actually control. Optimise these.</text><text y="14" fill="#0cc6f1" font-size="11" font-weight="700" transform="translate(22 90)">STAGE 2 · RETRIEVAL</text><text y="38" fill="#282828" font-size="14" font-weight="700" transform="translate(22 90)">Win Google &amp; Bing first</text><text y="58" fill="#3f3f3f" font-size="12" transform="translate(22 90)">If you don&apos;t rank top-20 in</text><text y="74" fill="#3f3f3f" font-size="12" transform="translate(22 90)">traditional search, AI doesn&apos;t</text><text y="90" fill="#3f3f3f" font-size="12" transform="translate(22 90)">see you at all. Cover BOFU</text><text y="106" fill="#3f3f3f" font-size="12" transform="translate(22 90)">queries first.</text><path stroke="#d9d5c9" d="M370 80v120"/><text y="14" fill="#0cc6f1" font-size="11" font-weight="700" transform="translate(390 90)">STAGE 3 · RANKING</text><text y="38" fill="#282828" font-size="14" font-weight="700" transform="translate(390 90)">Build entity consensus</text><text y="58" fill="#3f3f3f" font-size="12" transform="translate(390 90)">Same brand name across G2,</text><text y="74" fill="#3f3f3f" font-size="12" transform="translate(390 90)">Capterra, LinkedIn, press,</text><text y="90" fill="#3f3f3f" font-size="12" transform="translate(390 90)">podcasts. AI resolves you</text><text y="106" fill="#3f3f3f" font-size="12" transform="translate(390 90)">as ONE entity, not three.</text><path stroke="#d9d5c9" d="M730 80v120"/><text y="14" fill="#0cc6f1" font-size="11" font-weight="700" transform="translate(750 90)">STAGE 4 · GENERATION</text><text y="38" fill="#282828" font-size="14" font-weight="700" transform="translate(750 90)">Be the most-citable source</text><text y="58" fill="#3f3f3f" font-size="12" transform="translate(750 90)">Answer first. Original data,</text><text y="74" fill="#3f3f3f" font-size="12" transform="translate(750 90)">specific numbers, clean</text><text y="90" fill="#3f3f3f" font-size="12" transform="translate(750 90)">structure. AI prefers</text><text y="106" fill="#3f3f3f" font-size="12" transform="translate(750 90)">direct, fact-dense pages.</text></g><text x="1150" y="678" fill="rgba(40,40,40,0.5)" font-size="11" text-anchor="end">piperocket.digital · How AI Search Works</text></svg>