<svg xmlns="http://www.w3.org/2000/svg" aria-labelledby="title-vert desc-vert" font-family="Inter, -apple-system, BlinkMacSystemFont, 'Segoe UI', Arial, sans-serif" viewBox="0 0 1200 720"><title>Lead-to-SQL Conversion by SaaS Vertical: Organic vs AI Referral — PipeRocket Digital</title><desc>Lead-to-SQL conversion rates differ sharply by SaaS vertical. In cybersecurity, organic leads convert at 81% versus AI-referred leads at 20% — a 61-point gap. In procurement, organic 75% vs AI 54%. In fintech, both channels underperform at 25% organic and 20% AI.</desc><path fill="#f6f6f1" d="M0 0h1200v720H0z"/><path fill="#e8e4da" d="M0 0h1200v110H0z"/><text x="50" y="48" fill="#0d0d0d" font-size="12" font-weight="700" letter-spacing="2.4">PIPEROCKET DIGITAL · STATE OF SEO IN THE AI WORLD 2026</text><text x="50" y="85" fill="#0d0d0d" font-size="26" font-weight="700">Lead-to-SQL Conversion by SaaS Vertical</text><path fill="#0cc6f1" d="M0 110h1200v4H0z"/><text x="50" y="148" fill="#282828" font-size="14">In trust-heavy verticals, organic leads convert 4x better than AI-referred leads. Pattern is consistent across the dataset.</text><text fill="#6b6b6b" font-size="11" font-weight="700" letter-spacing="1.5" transform="translate(50 200)">LEAD-TO-SQL %</text><path stroke="#282828" stroke-width="2" d="M50 220v350M50 570h1100"/><g fill="#6b6b6b" font-size="11" text-anchor="end"><text x="-8" y="24" transform="translate(50 200)">100%</text><text x="-8" y="111" transform="translate(50 200)">75%</text><text x="-8" y="199" transform="translate(50 200)">50%</text><text x="-8" y="286" transform="translate(50 200)">25%</text><text x="-8" y="373" transform="translate(50 200)">0%</text></g><g stroke="#d9d5c9"><path d="M50 307h1100M50 395h1100M50 482h1100"/></g><path fill="#0cc6f1" d="M110 286h100v284H110z"/><text x="50" y="76" fill="#282828" font-size="20" font-weight="700" text-anchor="middle" transform="translate(110 200)">81%</text><text x="50" y="62" fill="#0cc6f1" font-size="10" font-weight="700" letter-spacing="1.2" text-anchor="middle" transform="translate(110 200)">ORGANIC</text><path fill="#ff6b5c" d="M220 500h100v70H220z"/><text x="160" y="290" fill="#282828" font-size="20" font-weight="700" text-anchor="middle" transform="translate(110 200)">20%</text><text x="160" y="276" fill="#ff6b5c" font-size="10" font-weight="700" letter-spacing="1.2" text-anchor="middle" transform="translate(110 200)">AI</text><text x="105" y="395" fill="#282828" font-size="14" font-weight="700" text-anchor="middle" transform="translate(110 200)">Cybersecurity</text><text x="105" y="412" fill="#6b6b6b" font-size="11" text-anchor="middle" transform="translate(110 200)">61-point gap · trust-heavy</text><path fill="#0cc6f1" d="M470 308h100v262H470z"/><text x="50" y="98" fill="#282828" font-size="20" font-weight="700" text-anchor="middle" transform="translate(470 200)">75%</text><text x="50" y="84" fill="#0cc6f1" font-size="10" font-weight="700" letter-spacing="1.2" text-anchor="middle" transform="translate(470 200)">ORGANIC</text><path fill="#ff6b5c" d="M580 381h100v189H580z"/><text x="160" y="171" fill="#282828" font-size="20" font-weight="700" text-anchor="middle" transform="translate(470 200)">54%</text><text x="160" y="157" fill="#ff6b5c" font-size="10" font-weight="700" letter-spacing="1.2" text-anchor="middle" transform="translate(470 200)">AI</text><text x="105" y="395" fill="#282828" font-size="14" font-weight="700" text-anchor="middle" transform="translate(470 200)">Procurement</text><text x="105" y="412" fill="#6b6b6b" font-size="11" text-anchor="middle" transform="translate(470 200)">21-point gap · highest AI rate</text><path fill="#0cc6f1" d="M830 482h100v88H830z"/><text x="50" y="272" fill="#282828" font-size="20" font-weight="700" text-anchor="middle" transform="translate(830 200)">25%</text><text x="50" y="258" fill="#0cc6f1" font-size="10" font-weight="700" letter-spacing="1.2" text-anchor="middle" transform="translate(830 200)">ORGANIC</text><path fill="#ff6b5c" d="M940 500h100v70H940z"/><text x="160" y="290" fill="#282828" font-size="20" font-weight="700" text-anchor="middle" transform="translate(830 200)">20%</text><text x="160" y="276" fill="#ff6b5c" font-size="10" font-weight="700" letter-spacing="1.2" text-anchor="middle" transform="translate(830 200)">AI</text><text x="105" y="395" fill="#282828" font-size="14" font-weight="700" text-anchor="middle" transform="translate(830 200)">Fintech</text><text x="105" y="412" fill="#6b6b6b" font-size="11" text-anchor="middle" transform="translate(830 200)">5-point gap · both underperform</text><g transform="translate(50 632)"><rect width="1100" height="76" fill="#e8e4da" stroke="#0cc6f1" stroke-width="1.5" rx="10"/><text x="30" y="28" fill="#0cc6f1" font-size="11" font-weight="700" letter-spacing="2">TAKE-AWAY</text><text x="30" y="50" fill="#0d0d0d" font-size="13">Trust-heavy verticals reward branded organic searches over AI discovery.</text><text x="30" y="68" fill="rgba(13, 13, 13, 0.85)" font-size="13">In Fintech, buyers use AI to shortlist — then switch to organic for due diligence.</text></g><text x="1150" y="708" fill="rgba(40,40,40,0.5)" font-size="11" text-anchor="end">piperocket.digital · L2S by Vertical</text></svg>