<svg xmlns="http://www.w3.org/2000/svg" viewBox="0 0 1200 720" role="img" aria-labelledby="title-pd desc-pd" font-family="Inter, -apple-system, BlinkMacSystemFont, 'Segoe UI', Arial, sans-serif">
  <title id="title-pd">Pipeline-Attributed B2B Marketing Dashboard — PipeRocket Digital</title>
  <desc id="desc-pd">A mock B2B marketing dashboard showing the five metrics that matter for pipeline accountability: pipeline contribution, lead quality (MQL to SQL conversion), win rate, sales cycle duration, and customer retention. Designed to replace the vanity-metrics dashboard most B2B SaaS teams report on.</desc>

  <rect width="1200" height="720" fill="#F6F6F1"/>

  <!-- Header -->
  <rect x="0" y="0" width="1200" height="110" fill="#282828"/>
  <text x="50" y="48" fill="#ffffff" font-size="12" font-weight="700" letter-spacing="2.4">PIPEROCKET DIGITAL · B2B MARKETING DASHBOARD</text>
  <text x="50" y="85" fill="#ffffff" font-size="26" font-weight="700">The 5 Metrics That Actually Move Pipeline</text>
  <rect x="0" y="110" width="1200" height="4" fill="#0CC6F1"/>
  <text x="50" y="148" fill="#282828" font-size="14">Replace sessions, MQLs, and bounce rate with five numbers a CFO can defend at the board level.</text>

  <!-- Dashboard frame -->
  <rect x="40" y="180" width="1120" height="500" rx="14" fill="#ffffff" stroke="#D9D5C9" stroke-width="1.5"/>

  <!-- Dashboard top strip (mock browser chrome look) -->
  <rect x="40" y="180" width="1120" height="44" rx="14" fill="#F4F4EE"/>
  <rect x="40" y="216" width="1120" height="8" fill="#F4F4EE"/>
  <circle cx="64" cy="202" r="6" fill="#FF6B5C"/>
  <circle cx="84" cy="202" r="6" fill="#FFC857"/>
  <circle cx="104" cy="202" r="6" fill="#5CD18B"/>
  <text x="600" y="207" fill="#6B6B6B" font-size="12" font-weight="600" text-anchor="middle">marketing-pipeline.dashboard · Q3 2026</text>

  <!-- Tile 1: Pipeline Contribution (large, top-left) -->
  <g transform="translate(70, 250)">
    <rect width="540" height="190" rx="12" fill="#282828"/>
    <text x="22" y="36" fill="#0CC6F1" font-size="11" font-weight="700" letter-spacing="2.2">METRIC 01 · PIPELINE CONTRIBUTION</text>
    <text x="22" y="80" fill="#ffffff" font-size="42" font-weight="700">$2.4M</text>
    <text x="180" y="80" fill="#0CC6F1" font-size="16" font-weight="600">▲ 38% QoQ</text>
    <text x="22" y="110" fill="rgba(255,255,255,0.65)" font-size="13">Marketing-sourced pipeline this quarter</text>

    <!-- Mini bar chart -->
    <g transform="translate(22, 130)">
      <rect x="0" y="20" width="70" height="32" fill="rgba(255,255,255,0.18)"/>
      <rect x="80" y="14" width="70" height="38" fill="rgba(255,255,255,0.25)"/>
      <rect x="160" y="8" width="70" height="44" fill="rgba(255,255,255,0.35)"/>
      <rect x="240" y="0" width="70" height="52" fill="#0CC6F1"/>
      <text x="35" y="42" fill="rgba(255,255,255,0.7)" font-size="10" text-anchor="middle">Q4-25</text>
      <text x="115" y="42" fill="rgba(255,255,255,0.7)" font-size="10" text-anchor="middle">Q1-26</text>
      <text x="195" y="42" fill="rgba(255,255,255,0.7)" font-size="10" text-anchor="middle">Q2-26</text>
      <text x="275" y="42" fill="#ffffff" font-size="10" font-weight="700" text-anchor="middle">Q3-26</text>
    </g>
  </g>

  <!-- Tile 2: Lead Quality (top-right) -->
  <g transform="translate(630, 250)">
    <rect width="260" height="190" rx="12" fill="#ffffff" stroke="#D9D5C9"/>
    <text x="22" y="36" fill="#6B6B6B" font-size="10" font-weight="700" letter-spacing="2">METRIC 02 · LEAD QUALITY</text>
    <text x="22" y="78" fill="#282828" font-size="36" font-weight="700">42%</text>
    <text x="22" y="100" fill="#3F3F3F" font-size="12">MQL → SQL conversion</text>

    <!-- Bar -->
    <rect x="22" y="120" width="216" height="14" rx="7" fill="#E8E4DA"/>
    <rect x="22" y="120" width="91" height="14" rx="7" fill="#0CC6F1"/>
    <text x="22" y="155" fill="#0CC6F1" font-size="11" font-weight="700">▲ from 28% prior quarter</text>
    <text x="22" y="174" fill="#6B6B6B" font-size="11">Target: 50% by Q4</text>
  </g>

  <!-- Tile 3: Win Rate (top-far-right) -->
  <g transform="translate(910, 250)">
    <rect width="220" height="190" rx="12" fill="#ffffff" stroke="#D9D5C9"/>
    <text x="22" y="36" fill="#6B6B6B" font-size="10" font-weight="700" letter-spacing="2">METRIC 03 · WIN RATE</text>
    <text x="22" y="78" fill="#282828" font-size="36" font-weight="700">31%</text>
    <text x="22" y="100" fill="#3F3F3F" font-size="12">SQL → closed-won</text>

    <!-- Donut -->
    <g transform="translate(110, 138)">
      <circle r="34" fill="none" stroke="#E8E4DA" stroke-width="12"/>
      <circle r="34" fill="none" stroke="#0CC6F1" stroke-width="12"
              stroke-dasharray="66 214" stroke-dashoffset="0" transform="rotate(-90)"/>
      <text x="0" y="5" fill="#282828" font-size="14" font-weight="700" text-anchor="middle">31%</text>
    </g>
  </g>

  <!-- Tile 4: Sales Cycle (bottom-left) -->
  <g transform="translate(70, 460)">
    <rect width="540" height="190" rx="12" fill="#ffffff" stroke="#D9D5C9"/>
    <text x="22" y="36" fill="#6B6B6B" font-size="10" font-weight="700" letter-spacing="2">METRIC 04 · SALES CYCLE DURATION</text>
    <text x="22" y="78" fill="#282828" font-size="36" font-weight="700">54 days</text>
    <text x="200" y="78" fill="#0CC6F1" font-size="14" font-weight="600">▼ 14 days shorter</text>
    <text x="22" y="100" fill="#3F3F3F" font-size="13">Average SQL → closed-won, organic vs paid sources</text>

    <!-- Two-bar comparison -->
    <g transform="translate(22, 120)">
      <text x="0" y="14" fill="#3F3F3F" font-size="11">Organic</text>
      <rect x="80" y="4" width="220" height="14" rx="7" fill="#0CC6F1"/>
      <text x="310" y="15" fill="#282828" font-size="11" font-weight="700">42 days</text>

      <text x="0" y="40" fill="#3F3F3F" font-size="11">Paid</text>
      <rect x="80" y="30" width="310" height="14" rx="7" fill="#6B6B6B"/>
      <text x="400" y="41" fill="#282828" font-size="11" font-weight="700">68 days</text>
    </g>
  </g>

  <!-- Tile 5: Retention (bottom-right) -->
  <g transform="translate(630, 460)">
    <rect width="500" height="190" rx="12" fill="#ffffff" stroke="#D9D5C9"/>
    <text x="22" y="36" fill="#6B6B6B" font-size="10" font-weight="700" letter-spacing="2">METRIC 05 · CUSTOMER RETENTION</text>
    <text x="22" y="78" fill="#282828" font-size="36" font-weight="700">94%</text>
    <text x="180" y="78" fill="#0CC6F1" font-size="14" font-weight="600">Gross retention</text>
    <text x="22" y="100" fill="#3F3F3F" font-size="13">Net Revenue Retention 118% via expansion</text>

    <!-- Trend line -->
    <g transform="translate(22, 118)">
      <polyline points="0,40 60,38 120,32 180,28 240,22 300,18 360,12 420,10"
                fill="none" stroke="#0CC6F1" stroke-width="2.5"/>
      <circle cx="420" cy="10" r="4" fill="#0CC6F1"/>
      <text x="0" y="62" fill="#6B6B6B" font-size="10">M1</text>
      <text x="420" y="62" fill="#0CC6F1" font-size="10" font-weight="700">M8</text>
    </g>
  </g>

  <text x="1150" y="708" fill="rgba(40,40,40,0.5)" font-size="11" text-anchor="end">piperocket.digital · The 5 Metrics That Matter</text>
</svg>
