<svg xmlns="http://www.w3.org/2000/svg" aria-labelledby="title-pd desc-pd" font-family="Inter, -apple-system, BlinkMacSystemFont, 'Segoe UI', Arial, sans-serif" viewBox="0 0 1200 720"><title>Pipeline-Attributed B2B Marketing Dashboard — PipeRocket Digital</title><desc>A mock B2B marketing dashboard showing the five metrics that matter for pipeline accountability: pipeline contribution, lead quality (MQL to SQL conversion), win rate, sales cycle duration, and customer retention. Designed to replace the vanity-metrics dashboard most B2B SaaS teams report on.</desc><path fill="#f6f6f1" d="M0 0h1200v720H0z"/><path fill="#e8e4da" d="M0 0h1200v110H0z"/><text x="50" y="48" fill="#0d0d0d" font-size="12" font-weight="700" letter-spacing="2.4">PIPEROCKET DIGITAL · B2B MARKETING DASHBOARD</text><text x="50" y="85" fill="#0d0d0d" font-size="26" font-weight="700">The 5 Metrics That Actually Move Pipeline</text><path fill="#0cc6f1" d="M0 110h1200v4H0z"/><text x="50" y="148" fill="#282828" font-size="14">Replace sessions, MQLs, and bounce rate with five numbers a CFO can defend at the board level.</text><rect width="1120" height="500" x="40" y="180" fill="#fff" stroke="#d9d5c9" stroke-width="1.5" rx="14"/><rect width="1120" height="44" x="40" y="180" fill="#f4f4ee" rx="14"/><path fill="#f4f4ee" d="M40 216h1120v8H40z"/><circle cx="64" cy="202" r="6" fill="#ff6b5c"/><circle cx="84" cy="202" r="6" fill="#ffc857"/><circle cx="104" cy="202" r="6" fill="#5cd18b"/><text x="600" y="207" fill="#6b6b6b" font-size="12" font-weight="600" text-anchor="middle">marketing-pipeline.dashboard · Q3 2026</text><g transform="translate(70 250)"><rect width="540" height="190" fill="#e8e4da" stroke="#0cc6f1" stroke-width="1.5" rx="12"/><text x="22" y="36" fill="#0cc6f1" font-size="11" font-weight="700" letter-spacing="2.2">METRIC 01 · PIPELINE CONTRIBUTION</text><text x="22" y="80" fill="#0d0d0d" font-size="42" font-weight="700">$2.4M</text><text x="180" y="80" fill="#0cc6f1" font-size="16" font-weight="600">▲ 38% QoQ</text><text x="22" y="110" fill="rgba(13, 13, 13, 0.65)" font-size="13">Marketing-sourced pipeline this quarter</text><path fill="rgba(255,255,255,0.18)" d="M22 150h70v32H22z"/><path fill="rgba(255,255,255,0.25)" d="M102 144h70v38h-70z"/><path fill="rgba(255,255,255,0.35)" d="M182 138h70v44h-70z"/><path fill="#0cc6f1" d="M262 130h70v52h-70z"/><text x="35" y="42" fill="rgba(13, 13, 13, 0.7)" font-size="10" text-anchor="middle" transform="translate(22 130)">Q4-25</text><text x="115" y="42" fill="rgba(13, 13, 13, 0.7)" font-size="10" text-anchor="middle" transform="translate(22 130)">Q1-26</text><text x="195" y="42" fill="rgba(13, 13, 13, 0.7)" font-size="10" text-anchor="middle" transform="translate(22 130)">Q2-26</text><text x="275" y="42" fill="#0d0d0d" font-size="10" font-weight="700" text-anchor="middle" transform="translate(22 130)">Q3-26</text></g><g transform="translate(630 250)"><rect width="260" height="190" fill="#fff" stroke="#d9d5c9" rx="12"/><text x="22" y="36" fill="#6b6b6b" font-size="10" font-weight="700" letter-spacing="2">METRIC 02 · LEAD QUALITY</text><text x="22" y="78" fill="#282828" font-size="36" font-weight="700">42%</text><text x="22" y="100" fill="#3f3f3f" font-size="12">MQL → SQL conversion</text><rect width="216" height="14" x="22" y="120" fill="#e8e4da" rx="7"/><rect width="91" height="14" x="22" y="120" fill="#0cc6f1" rx="7"/><text x="22" y="155" fill="#0cc6f1" font-size="11" font-weight="700">▲ from 28% prior quarter</text><text x="22" y="174" fill="#6b6b6b" font-size="11">Target: 50% by Q4</text></g><g transform="translate(910 250)"><rect width="220" height="190" fill="#fff" stroke="#d9d5c9" rx="12"/><text x="22" y="36" fill="#6b6b6b" font-size="10" font-weight="700" letter-spacing="2">METRIC 03 · WIN RATE</text><text x="22" y="78" fill="#282828" font-size="36" font-weight="700">31%</text><text x="22" y="100" fill="#3f3f3f" font-size="12">SQL → closed-won</text><g transform="translate(110 138)"><circle r="34" fill="none" stroke="#e8e4da" stroke-width="12"/><circle r="34" fill="none" stroke="#0cc6f1" stroke-dasharray="66 214" stroke-width="12" transform="rotate(-90)"/><text y="5" fill="#282828" font-size="14" font-weight="700" text-anchor="middle">31%</text></g></g><g transform="translate(70 460)"><rect width="540" height="190" fill="#fff" stroke="#d9d5c9" rx="12"/><text x="22" y="36" fill="#6b6b6b" font-size="10" font-weight="700" letter-spacing="2">METRIC 04 · SALES CYCLE DURATION</text><text x="22" y="78" fill="#282828" font-size="36" font-weight="700">54 days</text><text x="200" y="78" fill="#0cc6f1" font-size="14" font-weight="600">▼ 14 days shorter</text><text x="22" y="100" fill="#3f3f3f" font-size="13">Average SQL → closed-won, organic vs paid sources</text><g transform="translate(22 120)"><text y="14" fill="#3f3f3f" font-size="11">Organic</text><rect width="220" height="14" x="80" y="4" fill="#0cc6f1" rx="7"/><text x="310" y="15" fill="#282828" font-size="11" font-weight="700">42 days</text><text y="40" fill="#3f3f3f" font-size="11">Paid</text><rect width="310" height="14" x="80" y="30" fill="#6b6b6b" rx="7"/><text x="400" y="41" fill="#282828" font-size="11" font-weight="700">68 days</text></g></g><g transform="translate(630 460)"><rect width="500" height="190" fill="#fff" stroke="#d9d5c9" rx="12"/><text x="22" y="36" fill="#6b6b6b" font-size="10" font-weight="700" letter-spacing="2">METRIC 05 · CUSTOMER RETENTION</text><text x="22" y="78" fill="#282828" font-size="36" font-weight="700">94%</text><text x="180" y="78" fill="#0cc6f1" font-size="14" font-weight="600">Gross retention</text><text x="22" y="100" fill="#3f3f3f" font-size="13">Net Revenue Retention 118% via expansion</text><g transform="translate(22 118)"><path fill="none" stroke="#0cc6f1" stroke-width="2.5" d="m0 40 60-2 60-6 60-4 60-6 60-4 60-6 60-2"/><circle cx="420" cy="10" r="4" fill="#0cc6f1"/><text y="62" fill="#6b6b6b" font-size="10">M1</text><text x="420" y="62" fill="#0cc6f1" font-size="10" font-weight="700">M8</text></g></g><text x="1150" y="708" fill="rgba(40,40,40,0.5)" font-size="11" text-anchor="end">piperocket.digital · The 5 Metrics That Matter</text></svg>