<svg xmlns="http://www.w3.org/2000/svg" aria-labelledby="title-p desc-p" font-family="Inter, -apple-system, BlinkMacSystemFont, 'Segoe UI', Arial, sans-serif" viewBox="0 0 1200 760"><title>Pipeline Program vs Traffic Program — PipeRocket Digital</title><desc>Comparison of two SaaS SEO operating models. The Traffic Program optimizes for volume, vanity metrics and TOFU-first publishing. The Pipeline Program optimizes for ICP match, BOFU-first publishing and organic SQLs reported to the CRM.</desc><path fill="#f6f6f1" d="M0 0h1200v760H0z"/><path fill="#e8e4da" d="M0 0h1200v110H0z"/><text x="50" y="48" fill="#0d0d0d" font-size="12" font-weight="700" letter-spacing="2.4">PIPEROCKET DIGITAL · OPERATING MODEL COMPARISON</text><text x="50" y="85" fill="#0d0d0d" font-size="26" font-weight="700">Pipeline Program vs Traffic Program</text><path fill="#0cc6f1" d="M0 110h1200v4H0z"/><text x="50" y="148" fill="#282828" font-size="14">Same activities. Different sequence, different KPIs, completely different business outcome.</text><g transform="translate(50 180)"><rect width="540" height="64" fill="#ff6b5c" rx="12"/><text x="270" y="32" fill="#0d0d0d" font-size="11" font-weight="700" letter-spacing="2" text-anchor="middle">TYPICAL APPROACH</text><text x="270" y="54" fill="#0d0d0d" font-size="22" font-weight="700" text-anchor="middle">Traffic Program</text></g><g transform="translate(610 180)"><rect width="540" height="64" fill="#0cc6f1" rx="12"/><text x="270" y="32" fill="#0d0d0d" font-size="11" font-weight="700" letter-spacing="2" text-anchor="middle">PIPEROCKET&apos;S APPROACH</text><text x="270" y="54" fill="#0d0d0d" font-size="22" font-weight="700" text-anchor="middle">Pipeline Program</text></g><g transform="translate(50 264)"><rect width="540" height="68" fill="#fff" stroke="#d9d5c9" rx="10"/><text x="22" y="28" fill="#6b6b6b" font-size="10" font-weight="700" letter-spacing="1.5">STARTS WITH</text><text x="22" y="52" fill="#282828" font-size="15" font-weight="600">Keyword volume tools</text></g><g transform="translate(610 264)"><rect width="540" height="68" fill="#fff" stroke="#0cc6f1" stroke-width="1.5" rx="10"/><text x="22" y="28" fill="#0cc6f1" font-size="10" font-weight="700" letter-spacing="1.5">STARTS WITH</text><text x="22" y="52" fill="#282828" font-size="15" font-weight="600">CRM pipeline target</text></g><g transform="translate(50 344)"><rect width="540" height="68" fill="#fff" stroke="#d9d5c9" rx="10"/><text x="22" y="28" fill="#6b6b6b" font-size="10" font-weight="700" letter-spacing="1.5">PUBLISHES</text><text x="22" y="52" fill="#282828" font-size="15" font-weight="600">TOFU thought leadership first</text></g><g transform="translate(610 344)"><rect width="540" height="68" fill="#fff" stroke="#0cc6f1" stroke-width="1.5" rx="10"/><text x="22" y="28" fill="#0cc6f1" font-size="10" font-weight="700" letter-spacing="1.5">PUBLISHES</text><text x="22" y="52" fill="#282828" font-size="15" font-weight="600">BOFU comparison / alt / pricing first</text></g><g transform="translate(50 424)"><rect width="540" height="68" fill="#fff" stroke="#d9d5c9" rx="10"/><text x="22" y="28" fill="#6b6b6b" font-size="10" font-weight="700" letter-spacing="1.5">FILTERS KEYWORDS BY</text><text x="22" y="52" fill="#282828" font-size="15" font-weight="600">Volume &amp; difficulty</text></g><g transform="translate(610 424)"><rect width="540" height="68" fill="#fff" stroke="#0cc6f1" stroke-width="1.5" rx="10"/><text x="22" y="28" fill="#0cc6f1" font-size="10" font-weight="700" letter-spacing="1.5">FILTERS KEYWORDS BY</text><text x="22" y="52" fill="#282828" font-size="15" font-weight="600">ICP pain → intent → volume</text></g><g transform="translate(50 504)"><rect width="540" height="68" fill="#fff" stroke="#d9d5c9" rx="10"/><text x="22" y="28" fill="#6b6b6b" font-size="10" font-weight="700" letter-spacing="1.5">REPORTS ON</text><text x="22" y="52" fill="#282828" font-size="15" font-weight="600">Sessions · rankings · DA</text></g><g transform="translate(610 504)"><rect width="540" height="68" fill="#fff" stroke="#0cc6f1" stroke-width="1.5" rx="10"/><text x="22" y="28" fill="#0cc6f1" font-size="10" font-weight="700" letter-spacing="1.5">REPORTS ON</text><text x="22" y="52" fill="#282828" font-size="15" font-weight="600">Organic SQLs · CAC · pipeline %</text></g><g transform="translate(50 600)"><rect width="540" height="92" fill="#ff6b5c" opacity=".92" rx="12"/><text x="22" y="32" fill="#0d0d0d" font-size="11" font-weight="700" letter-spacing="2">TYPICAL RESULT</text><text x="22" y="62" fill="#0d0d0d" font-size="18" font-weight="700">10K sessions · 20 leads · 0 SQLs</text><text x="22" y="82" fill="rgba(13, 13, 13, 0.85)" font-size="12">&quot;Traffic is up, board is still asking where pipeline is.&quot;</text></g><g transform="translate(610 600)"><rect width="540" height="92" fill="#e8e4da" stroke="#0cc6f1" stroke-width="1.5" rx="12"/><text x="22" y="32" fill="#0cc6f1" font-size="11" font-weight="700" letter-spacing="2">TYPICAL RESULT</text><text x="22" y="62" fill="#0d0d0d" font-size="18" font-weight="700">3K sessions · 90 SQLs · &gt;15% CVR</text><text x="22" y="82" fill="rgba(13, 13, 13, 0.85)" font-size="12">Lower traffic, higher revenue. Reported quarterly to the CFO.</text></g><text x="1150" y="738" fill="rgba(40,40,40,0.5)" font-size="11" text-anchor="end">piperocket.digital · Pipeline vs Traffic Program</text></svg>