<svg xmlns="http://www.w3.org/2000/svg" aria-labelledby="title-1 desc-1" font-family="Inter, -apple-system, BlinkMacSystemFont, 'Segoe UI', Arial, sans-serif" viewBox="0 0 1200 760"><title>The 8-Step SaaS SEO Framework — PipeRocket Digital</title><desc>A sequential 8-step framework for B2B SaaS SEO: 1) Set pipeline-tied goals, 2) Audit technical foundation, 3) Research keywords around ICP pain, 4) Build BOFU content first, 5) Build hub-and-spoke architecture, 6) Optimize for AI Overviews, 7) Build a link acquisition system, 8) Measure by pipeline contribution.</desc><path fill="#f6f6f1" d="M0 0h1200v760H0z"/><path fill="#e8e4da" stroke="#0cc6f1" stroke-width="1.5" d="M0 0h1200v118H0z"/><text x="60" y="55" fill="#0d0d0d" font-size="13" font-weight="700" letter-spacing="2.4">PIPEROCKET DIGITAL · B2B SaaS SEO FRAMEWORK</text><text x="60" y="93" fill="#0d0d0d" font-size="28" font-weight="700">The 8-Step SaaS SEO Framework</text><text x="60" y="113" fill="rgba(13, 13, 13, 0.7)" font-size="14">Sequenced deliberately. Each step makes the next one more effective.</text><path fill="#0cc6f1" d="M0 118h1200v4H0z"/><g transform="translate(50 160)"><rect width="260" height="230" fill="#fff" stroke="#d9d5c9" rx="12"/><circle cx="36" cy="36" r="22" fill="#0cc6f1"/><text x="36" y="43" fill="#0d0d0d" font-size="20" font-weight="700" text-anchor="middle">1</text><text x="22" y="90" fill="#282828" font-size="17" font-weight="700">Set Pipeline Goals</text><text x="22" y="125" fill="#1a1a1a" font-size="13">Define organic SQLs, demo</text><text x="22" y="143" fill="#1a1a1a" font-size="13">requests, and CAC targets</text><text x="22" y="161" fill="#1a1a1a" font-size="13">in the CRM <tspan font-style="italic">before</tspan> you open</text><text x="22" y="179" fill="#1a1a1a" font-size="13">a keyword tool.</text><text x="22" y="210" fill="#0cc6f1" font-size="11" font-weight="700" letter-spacing="1.2">FOUNDATION</text></g><g fill="none" stroke="#282828" stroke-width="2"><path d="M310 275h28"/><path stroke-linecap="round" stroke-linejoin="round" d="m332 270 8 5-8 5"/></g><g transform="translate(340 160)"><rect width="260" height="230" fill="#fff" stroke="#d9d5c9" rx="12"/><circle cx="36" cy="36" r="22" fill="#0cc6f1"/><text x="36" y="43" fill="#0d0d0d" font-size="20" font-weight="700" text-anchor="middle">2</text><text x="22" y="90" fill="#282828" font-size="17" font-weight="700">Audit Technical SEO</text><text x="22" y="125" fill="#1a1a1a" font-size="13">Fix crawl, render, speed,</text><text x="22" y="143" fill="#1a1a1a" font-size="13">and indexation gaps before</text><text x="22" y="161" fill="#1a1a1a" font-size="13">publishing a single new</text><text x="22" y="179" fill="#1a1a1a" font-size="13">piece of content.</text><text x="22" y="210" fill="#0cc6f1" font-size="11" font-weight="700" letter-spacing="1.2">TECH HEALTH</text></g><g fill="none" stroke="#282828" stroke-width="2"><path d="M600 275h28"/><path stroke-linecap="round" stroke-linejoin="round" d="m622 270 8 5-8 5"/></g><g transform="translate(630 160)"><rect width="260" height="230" fill="#fff" stroke="#d9d5c9" rx="12"/><circle cx="36" cy="36" r="22" fill="#0cc6f1"/><text x="36" y="43" fill="#0d0d0d" font-size="20" font-weight="700" text-anchor="middle">3</text><text x="22" y="90" fill="#282828" font-size="17" font-weight="700">Keyword Research</text><text x="22" y="125" fill="#1a1a1a" font-size="13">Map every keyword to an</text><text x="22" y="143" fill="#1a1a1a" font-size="13">ICP pain and a buying-</text><text x="22" y="161" fill="#1a1a1a" font-size="13">stage intent. Volume is the</text><text x="22" y="179" fill="#1a1a1a" font-size="13">last filter, not the first.</text><text x="22" y="210" fill="#0cc6f1" font-size="11" font-weight="700" letter-spacing="1.2">ICP &amp; INTENT</text></g><g fill="none" stroke="#282828" stroke-width="2"><path d="M890 275h28"/><path stroke-linecap="round" stroke-linejoin="round" d="m912 270 8 5-8 5"/></g><g transform="translate(920 160)"><rect width="260" height="230" fill="#e8e4da" stroke="#282828" rx="12"/><circle cx="36" cy="36" r="22" fill="#0cc6f1"/><text x="36" y="43" fill="#0d0d0d" font-size="20" font-weight="700" text-anchor="middle">4</text><text x="22" y="90" fill="#0d0d0d" font-size="17" font-weight="700">Build BOFU First</text><text x="22" y="125" fill="rgba(13, 13, 13, 0.85)" font-size="13">Comparison, alternative,</text><text x="22" y="143" fill="rgba(13, 13, 13, 0.85)" font-size="13">and pricing pages convert</text><text x="22" y="161" fill="rgba(13, 13, 13, 0.85)" font-size="13">today. Build them <tspan font-weight="700">before</tspan></text><text x="22" y="179" fill="rgba(13, 13, 13, 0.85)" font-size="13">a single TOFU piece.</text><text x="22" y="210" fill="#0cc6f1" font-size="11" font-weight="700" letter-spacing="1.2">PIPELINE NOW</text></g><path fill="none" stroke="#0cc6f1" stroke-dasharray="6,5" stroke-width="2.5" d="M1050 395q0 30-30 30H175q-30 0-30 30v35"/><path fill="none" stroke="#0cc6f1" stroke-linecap="round" stroke-linejoin="round" stroke-width="2.5" d="m140 485 5 10 5-10"/><g transform="translate(50 500)"><rect width="260" height="230" fill="#fff" stroke="#d9d5c9" rx="12"/><circle cx="36" cy="36" r="22" fill="#0cc6f1"/><text x="36" y="43" fill="#0d0d0d" font-size="20" font-weight="700" text-anchor="middle">5</text><text x="22" y="90" fill="#282828" font-size="17" font-weight="700">Hub &amp; Spoke</text><text x="22" y="125" fill="#1a1a1a" font-size="13">One pillar page + 10-15</text><text x="22" y="143" fill="#1a1a1a" font-size="13">supporting spokes. Internal</text><text x="22" y="161" fill="#1a1a1a" font-size="13">links compound topical</text><text x="22" y="179" fill="#1a1a1a" font-size="13">authority across the cluster.</text><text x="22" y="210" fill="#0cc6f1" font-size="11" font-weight="700" letter-spacing="1.2">ARCHITECTURE</text></g><g fill="none" stroke="#282828" stroke-width="2"><path d="M310 615h28"/><path stroke-linecap="round" stroke-linejoin="round" d="m332 610 8 5-8 5"/></g><g transform="translate(340 500)"><rect width="260" height="230" fill="#fff" stroke="#d9d5c9" rx="12"/><circle cx="36" cy="36" r="22" fill="#0cc6f1"/><text x="36" y="43" fill="#0d0d0d" font-size="20" font-weight="700" text-anchor="middle">6</text><text x="22" y="90" fill="#282828" font-size="17" font-weight="700">Optimize for AI</text><text x="22" y="125" fill="#1a1a1a" font-size="13">Write to win both blue-link</text><text x="22" y="143" fill="#1a1a1a" font-size="13">SERPs and AI Overviews:</text><text x="22" y="161" fill="#1a1a1a" font-size="13">cite-able claims, clean</text><text x="22" y="179" fill="#1a1a1a" font-size="13">structure, primary sources.</text><text x="22" y="210" fill="#0cc6f1" font-size="11" font-weight="700" letter-spacing="1.2">AI + SEARCH</text></g><g fill="none" stroke="#282828" stroke-width="2"><path d="M600 615h28"/><path stroke-linecap="round" stroke-linejoin="round" d="m622 610 8 5-8 5"/></g><g transform="translate(630 500)"><rect width="260" height="230" fill="#fff" stroke="#d9d5c9" rx="12"/><circle cx="36" cy="36" r="22" fill="#0cc6f1"/><text x="36" y="43" fill="#0d0d0d" font-size="20" font-weight="700" text-anchor="middle">7</text><text x="22" y="90" fill="#282828" font-size="17" font-weight="700">Earn Links at Scale</text><text x="22" y="125" fill="#1a1a1a" font-size="13">Build a link acquisition</text><text x="22" y="143" fill="#1a1a1a" font-size="13"><tspan font-style="italic">system</tspan> (digital PR, data,</text><text x="22" y="161" fill="#1a1a1a" font-size="13">guest posts) — not</text><text x="22" y="179" fill="#1a1a1a" font-size="13">one-off campaigns.</text><text x="22" y="210" fill="#0cc6f1" font-size="11" font-weight="700" letter-spacing="1.2">AUTHORITY</text></g><g fill="none" stroke="#282828" stroke-width="2"><path d="M890 615h28"/><path stroke-linecap="round" stroke-linejoin="round" d="m912 610 8 5-8 5"/></g><g transform="translate(920 500)"><rect width="260" height="230" fill="#e8e4da" stroke="#282828" rx="12"/><circle cx="36" cy="36" r="22" fill="#0cc6f1"/><text x="36" y="43" fill="#0d0d0d" font-size="20" font-weight="700" text-anchor="middle">8</text><text x="22" y="90" fill="#0d0d0d" font-size="17" font-weight="700">Measure Pipeline</text><text x="22" y="125" fill="rgba(13, 13, 13, 0.85)" font-size="13">Report on organic-sourced</text><text x="22" y="143" fill="rgba(13, 13, 13, 0.85)" font-size="13">SQLs and CAC. Sessions</text><text x="22" y="161" fill="rgba(13, 13, 13, 0.85)" font-size="13">and rankings are signals,</text><text x="22" y="179" fill="rgba(13, 13, 13, 0.85)" font-size="13">not goals.</text><text x="22" y="210" fill="#0cc6f1" font-size="11" font-weight="700" letter-spacing="1.2">REVENUE</text></g><text x="1140" y="748" fill="rgba(40,40,40,0.5)" font-size="11" text-anchor="end">piperocket.digital · The 8-Step SaaS SEO Framework</text></svg>