<svg xmlns="http://www.w3.org/2000/svg" aria-labelledby="title-wl desc-wl" font-family="Inter, -apple-system, BlinkMacSystemFont, 'Segoe UI', Arial, sans-serif" viewBox="0 0 1200 700"><title>Where to Point Your SaaS Links — PipeRocket Digital</title><desc>Most SaaS teams build links to blog posts. The pages that actually drive revenue — product, pricing, comparison, alternatives, integration — almost never get linked despite being where pipeline flows. This diagram shows the typical link distribution versus the link distribution that compounds pipeline.</desc><path fill="#f6f6f1" d="M0 0h1200v700H0z"/><path fill="#e8e4da" d="M0 0h1200v110H0z"/><text x="50" y="48" fill="#0d0d0d" font-size="12" font-weight="700" letter-spacing="2.4">PIPEROCKET DIGITAL · LINK DESTINATION FIX</text><text x="50" y="85" fill="#0d0d0d" font-size="26" font-weight="700">Where to Point Your SaaS Links</text><path fill="#0cc6f1" d="M0 110h1200v4H0z"/><text x="50" y="148" fill="#282828" font-size="14">Strategy 1: stop pointing every backlink at your blog. Move authority to the pages that actually convert.</text><g transform="translate(50 195)"><rect width="540" height="450" fill="#fff" stroke="#d9d5c9" rx="14"/><rect width="540" height="60" fill="#ff6b5c" rx="14"/><path fill="#ff6b5c" d="M0 46h540v14H0z"/><text x="20" y="38" fill="#0d0d0d" font-size="18" font-weight="700">TYPICAL SaaS LINK DISTRIBUTION</text><text x="20" y="55" fill="rgba(13, 13, 13, 0.85)" font-size="11" letter-spacing="1.2">WHAT MOST TEAMS DO</text><text x="20" y="100" fill="#6b6b6b" font-size="11" font-weight="700" letter-spacing="1.5">LINK SHARE</text><g transform="translate(20 120)"><text y="14" fill="#282828" font-size="13" font-weight="600">Blog posts</text><rect width="320" height="18" x="180" y="2" fill="#ff6b5c" rx="3"/><text x="510" y="16" fill="#282828" font-size="12" font-weight="700">78%</text><text y="46" fill="#282828" font-size="13" font-weight="600">Homepage</text><rect width="60" height="18" x="180" y="34" fill="#ff6b5c" opacity=".7" rx="3"/><text x="250" y="48" fill="#282828" font-size="12" font-weight="700">15%</text><text y="78" fill="#282828" font-size="13" font-weight="600">Product page</text><rect width="14" height="18" x="180" y="66" fill="#ff6b5c" opacity=".5" rx="3"/><text x="204" y="80" fill="#282828" font-size="12" font-weight="700">3%</text><text y="110" fill="#282828" font-size="13" font-weight="600">Pricing page</text><rect width="8" height="18" x="180" y="98" fill="#ff6b5c" opacity=".4" rx="3"/><text x="198" y="112" fill="#282828" font-size="12" font-weight="700">2%</text><text y="142" fill="#282828" font-size="13" font-weight="600">Comparison pages</text><rect width="6" height="18" x="180" y="130" fill="#ff6b5c" opacity=".4" rx="3"/><text x="196" y="144" fill="#282828" font-size="12" font-weight="700">1%</text><text y="174" fill="#282828" font-size="13" font-weight="600">Alternatives pages</text><rect width="4" height="18" x="180" y="162" fill="#ff6b5c" opacity=".4" rx="3"/><text x="194" y="176" fill="#282828" font-size="12" font-weight="700">1%</text></g><text fill="#6b6b6b" font-size="10" font-weight="700" letter-spacing="1.5" transform="translate(20 360)">RESULT</text><text y="22" fill="#282828" font-size="14" font-weight="700" transform="translate(20 360)">Authority flows to articles</text><text y="42" fill="#282828" font-size="14" font-weight="700" transform="translate(20 360)">that don&apos;t convert.</text><text y="66" fill="#3f3f3f" font-size="12" font-style="italic" transform="translate(20 360)">Pipeline pages stuck on page 2 forever.</text></g><g transform="translate(610 195)"><rect width="540" height="450" fill="#fff" stroke="#0cc6f1" stroke-width="2" rx="14"/><rect width="540" height="60" fill="#0cc6f1" rx="14"/><path fill="#0cc6f1" d="M0 46h540v14H0z"/><text x="20" y="38" fill="#0d0d0d" font-size="18" font-weight="700">PIPEROCKET&apos;S LINK DISTRIBUTION</text><text x="20" y="55" fill="rgba(13, 13, 13, 0.85)" font-size="11" letter-spacing="1.2">WHAT TO DO INSTEAD</text><text x="20" y="100" fill="#0cc6f1" font-size="11" font-weight="700" letter-spacing="1.5">LINK SHARE</text><g transform="translate(20 120)"><text y="14" fill="#282828" font-size="13" font-weight="600">Comparison pages</text><rect width="120" height="18" x="180" y="2" fill="#0cc6f1" rx="3"/><text x="310" y="16" fill="#282828" font-size="12" font-weight="700">25%</text><text y="46" fill="#282828" font-size="13" font-weight="600">Pillar pages (hubs)</text><rect width="100" height="18" x="180" y="34" fill="#0cc6f1" rx="3"/><text x="290" y="48" fill="#282828" font-size="12" font-weight="700">22%</text><text y="78" fill="#282828" font-size="13" font-weight="600">Alternatives pages</text><rect width="80" height="18" x="180" y="66" fill="#0cc6f1" rx="3"/><text x="270" y="80" fill="#282828" font-size="12" font-weight="700">18%</text><text y="110" fill="#282828" font-size="13" font-weight="600">Free tools / calculators</text><rect width="68" height="18" x="180" y="98" fill="#0cc6f1" opacity=".85" rx="3"/><text x="258" y="112" fill="#282828" font-size="12" font-weight="700">15%</text><text y="142" fill="#282828" font-size="13" font-weight="600">Blog (high-intent only)</text><rect width="48" height="18" x="180" y="130" fill="#0cc6f1" opacity=".7" rx="3"/><text x="238" y="144" fill="#282828" font-size="12" font-weight="700">12%</text><text y="174" fill="#282828" font-size="13" font-weight="600">Product · pricing · home</text><rect width="36" height="18" x="180" y="162" fill="#0cc6f1" opacity=".55" rx="3"/><text x="226" y="176" fill="#282828" font-size="12" font-weight="700">8%</text></g><text fill="#0cc6f1" font-size="10" font-weight="700" letter-spacing="1.5" transform="translate(20 360)">RESULT</text><text y="22" fill="#282828" font-size="14" font-weight="700" transform="translate(20 360)">Authority flows to revenue</text><text y="42" fill="#282828" font-size="14" font-weight="700" transform="translate(20 360)">pages that already convert.</text><text y="66" fill="#3f3f3f" font-size="12" font-style="italic" transform="translate(20 360)">BOFU pages move to page 1. Pipeline lifts.</text></g><text x="1150" y="678" fill="rgba(40,40,40,0.5)" font-size="11" text-anchor="end">piperocket.digital · Where to Point Your Links</text></svg>