<svg xmlns="http://www.w3.org/2000/svg" width="92" height="92" fill="none" viewBox="0 0 92 92"><path fill="currentColor" d="M46.557 29.512a5.22 5.22 0 1 1 5.219-5.219 5.225 5.225 0 0 1-5.22 5.219m0-8.617a3.398 3.398 0 1 0 .003 6.796 3.398 3.398 0 0 0-.003-6.796"/><path fill="currentColor" d="M46.555 30.388a1.13 1.13 0 0 1-.78.056c-.058-.018-.041-.099-.064-.116-.04-.03-.129.046-.14.044-.065-.01-.015-.147-.023-.154-.086-.074-.087.092-.183.09-.125-.004-.274-.068-.414-.115-.05-.017.002-.116-.106-.138-.076-.014-.348.027-.406-.138.017-.048.05-.095.074-.142-.22.142-.275.11-.458-.028-.029-.022-.096.042-.139-.014-.043-.057.014-.176-.095-.231-.04-.02-.107.05-.169.02-.114-.053-.261-.195-.379-.316-.064-.066-.121-.125-.165-.158-.24-.187-.474-.175-.641-.406-.013-.017.091-.06.065-.088-.027-.028-.15.041-.16.037-.103-.05-.123-.336-.175-.363-.134-.068-.087.076-.236-.056-.142-.13-.157-.444-.228-.612-.08-.193-.338-.122-.185-.394a6 6 0 0 1-.343-.657 6 6 0 0 1-.302-.864l.157-.032-.137-.101.121-.007c-.193-.162-.304-.337-.289-.582 0-.005.108-.004.11-.008.015-.055-.073-.107-.057-.156.036-.12.262-.317-.02-.222.047-.266-.039-.581.043-.83.035-.107.207-.117.224-.166.016-.049-.131-.043-.134-.062-.015-.104.016-.262.144-.28a.2.2 0 0 1 .042 0q-.089-.051-.178-.107c.172.05.177-.293.209-.378.005-.015.082.005.084-.007.03-.131-.078-.2-.077-.327 0-.044.11.063.089-.056-.002-.01-.122-.05-.074-.17.074-.191.2-.574.38-.755.014-.015.102.105.12.011.007-.034-.085-.07-.044-.139.162-.272.444-.47.58-.768.076.081.097.244.153.074.01-.027-.077-.077-.072-.088.045-.093.154-.107.2-.209.01-.02-.009-.053-.017-.085a.1.1 0 0 1-.002-.045c.023-.061.118 0 .135-.08.027-.125-.026-.217.206-.15.55-.491 1.192-.92 1.923-1.072.183-.123.36-.24.577-.31.045-.015.078.045.126.061.02.007.044.006.073-.014.02-.014.166-.19.231.085.042-.03.071-.035.108-.055l-.106-.111c.175.02.301-.091.453-.148.112-.04.038.084.106.068.068-.014.1-.043.187.1.065-.167.112-.051.234-.044.013.001.092-.061.156-.045.046.012.053.116.127.106.01-.003.177-.117.228-.122.08-.01.184.14.198.143.206.056.317-.054.417.19a.244.244 0 0 1 .299-.121c.127.05.284.38.41.132.093.155.108.1.242.143l.036.013c.155.058.49.345.606.4.12.053.144-.112.2-.102.093.016-.007.089.044.118.144.085.275.15.434.206l-.123.208.067-.05c.027.022.058.044.08.065.005-.441.192.18.29.291.09.092.364.128.492.214.03.02-.05.061-.044.065.076.047.13.018.2.111.036.05-.007.167.028.214.1.135.208.26.316.389.17.2.338.407.462.644.035.067-.057.18-.035.237.031.08.152.09.185.167.034.078-.046.234-.01.28.037.046.124-.086.125.023 0 .05-.115 0-.099.056.05.171.23.39.161.604.026-.014.047-.03.071-.047.035.205 0 .395.014.604.006.073.1.198.104.272.005.073-.082.111-.082.169 0 .023.078.011.077.027a.6.6 0 0 1-.06.21c-.045.095-.094.182-.09.306a5.7 5.7 0 0 1-.435 2.28c-.012.029.071.095.063.144-.012.075-.095.036-.102.043-.048.045.04.063-.002.137-.091.166-.316.378-.419.53-.189.282-.342.543-.541.803q-.075.098-.16.193c-.02.023-.088-.081-.128-.047-.284.23-.272.377-.676.611-.401.24-1.22.541-1.74.65h-.001c-.102.263-.345.26-.55.12.888-.726 1.773-.862 2.59-1.565q.163-.148.306-.321c.624-.76.835-1.75 1.1-2.59.028-.093.163-.103.155-.19-.002-.015-.107-.001-.108-.045-.007-.356.078-.7.118-1.06.026-.243.03-.49-.028-.718-.04-.153-.153-.157-.207-.282.056.012.113.017.169.028.042-.653-.265-1.253-.584-1.81-.014-.025.076-.085.063-.114-.019-.04-.09-.045-.142-.058q-.034-.008-.05-.026c-.045-.054.019-.114-.024-.164-.021-.024-.082.032-.112-.03-.002-.006.065-.061.028-.091-.1-.084-.322-.231-.408-.29-.108-.076-.09-.242-.12-.284-.083-.112-.173-.011-.257-.087-.439-.387-.884-.763-1.423-1.035a3.4 3.4 0 0 0-.627-.243c-.053-.015-.277.084-.368.06-.03-.01-.19-.079-.215-.086-.099-.028-.177-.13-.233-.155-.109-.05-.246.082-.305.093-.107.018-.293-.004-.337-.006-.107-.008-.075-.183-.153-.14-.023.013.006.145-.074.15-.066.002-.1-.097-.148-.111-.049-.015-.119.148-.147.147-.149-.005-.23-.098-.394-.075a1 1 0 0 0-.108.025c-.225.055-.627.234-.656.28-.162.23.172.035.195.037.12-.002.12.064.2-.082.102.175.201.08.31.015.096-.06.198-.095.27.104.049-.303.152-.167.254-.117.141.069.024-.093.124-.101.04-.004.16.123.217.103s.08-.122.16-.128c.143-.01.259.044.365.174q.038-.078.077-.156.115.098.223.2l-.02-.146.075-.01c.069.082.132.16.196.246.268-.224.16-.004.266.058.107.063.216-.07.308-.043.122.038.184.038.3.094.07.033.128.222.122-.041l.056.016c.22.065.51.156.632.334.04.056-.07.08-.066.093.022.065.123-.018.16.026.062.072.15.248.192.307.06.083.282.054.302.056.113.008.046.126.074.137.16.067.227.056.072.294.111-.062.386-.076.269.097.133-.126.215.006.31.047l-.087.143c.267-.048.38.182.445.397.028.088.049.175.077.243.002.006.127-.055.12-.005-.001.003-.057.031-.05.057.023.088.03.44.041.472.05.122.153.103.194.175.053.096-.028.144.02.234.02.043.15.044.158.123.005.046-.086.079-.083.115.01.126.092.201-.005.337.304-.042.097.062.085.12-.047.231.115.484.099.678q-.014.165-.047.319c-.096.464-.287.858-.44 1.272-.032.082.108.148.07.236-.019.04-.138.044-.163.107-.02.05.004.145-.024.209-.007.017-.103-.022-.114.002-.085.18-.108.388-.172.594-.023.076-.166.043.044.16-.066-.006-.124-.01-.188-.019.068.172-.112.156-.166.291-.005.015.057.205-.076.178.063.057.125.096.184.147-.016.07-.155.08-.191.105s.026.121.018.132c-.032.038-.13-.07-.134-.07a.5.5 0 0 0-.15.055c-.066.047-.017.117.016.298.01.067-.272.101-.201.264-.047-.053-.075-.11-.115-.164q-.099.045-.199.085.08.067.16.135c-.151.041-.16.241-.268.305-.06.035-.133-.097-.15-.048-.003.01.061.089.045.108-.134.158-.263.108-.444.176-.084.03-.082.233-.252.173-.017-.005-.192-.11-.184.137-.05-.06-.084-.09-.123-.142-.036.38-.11.048-.331.03-.114-.008-.454.13-.569.183-.067.033-.046.168-.058.175-.074.042-.091-.09-.159-.06s-.146.188-.223.179c-.059-.007-.023-.174-.104-.112-.017.013.04.15-.052.1a2 2 0 0 1-.188-.189c.075-.086.274-.208.346-.25.8-.427 1.902-.977 2.642-1.795.434-.458.75-.966.946-1.374.049-.102.21-.124.247-.194.036-.07-.11-.05-.077-.111.031-.062.134-.084.16-.146a3.8 3.8 0 0 0 .292-1.322c.002-.12-.111-.205-.122-.308-.004-.04.133-.058.128-.087-.051-.322-.246-.578-.329-.875-.034-.123.023-.297-.02-.424-.036-.104-.157-.17-.203-.254-.025-.045.054-.12.051-.14-.009-.073-.109.01-.125-.019-.046-.08.061-.2.002-.27-.023-.027-.099.027-.14 0l-.004-.003c-.051-.041.037-.073.014-.113-.001-.002-.054.045-.07.027-.104-.116-.266-.231-.36-.344-.19-.232-.322-.539-.54-.74-.056-.05-.095.036-.117.025-.101-.048-.071-.162-.192-.194-.02-.005-.154.06-.2-.005-.024-.035-.024-.127-.045-.16-.022-.033-.083.067-.119.047-.066-.034-.009-.097-.112-.133-.042-.015-.218.024-.315-.025l-.013-.007c-.154-.084-.33-.247-.534-.302-.072-.02-.192.074-.3.053-.135-.027-.381-.09-.522-.1-.072-.007-.069-.133-.078-.139-.054-.038-.04.104-.076.096-.05-.01-.096-.115-.143-.122-.03-.005-.036.098-.043.1-.238.033-.447.037-.679.082a4 4 0 0 0-.232.052c-.865.22-1.626.719-2.224 1.334a6.4 6.4 0 0 0-.553.65c-.06.082-.172.016-.203.106-.033.092.173.301-.136.22l.143.08c-.166.124-.16.335-.213.506-.04.127-.085.235-.126.352-.035.103-.14.069-.023.194a2 2 0 0 0-.059.149c-.141.4-.163.824-.255 1.262.244.09.108.207.101.368 0 .02.08-.015.083.041.004.07-.117.134-.081.252.008.034.21.22.167.324-.043.106-.04.243-.07.357q.069-.052.137-.103l.078.115-.178.099q.104 0 .209-.005c-.29.197-.213.098-.078.178.068.04.038.113.101.157.023.015.12-.02.144-.005.059.04-.082.077-.061.112s.183.005.162.1c-.274.081-.076.225.106.111.015.021.02.044.04.063-.457.287-.06.184.03.18.09-.002-.026.084-.013.091.035.02.066-.039.083-.02.113.124.153.301.266.428.017.019.06-.054.074-.029.014.026-.024.103.01.128.01.007.061-.043.074-.03.189.18.366.364.573.529q.12.095.252.177c.03.017.115-.08.169-.046.053.034.089.181.16.225.018.011.068-.083.093-.069.082.049.125.161.216.212.153.085.343.078.495.183.03.02.002.104.044.14.073.062.071-.071.092-.084.065-.043.046.129.108.097.01-.006.019-.108.026-.108.112.004.08.24.22.133.09.152-.1.172-.132.24-.079.166.016.394.09.471.062.067.075-.043.103-.04.145.018.362.011.472.066.067.034-.057.076-.024.113.034.038.059-.045.093.047.033.091.11.358.096.486m-4.234-9.606c.185.449-.155.862-.329 1.12-.146.201-.539.281-.07.421.107-.242.162-.457.323-.692.016-.024.148-.146.19-.19.023-.026.09.02.115-.018.005-.008-.047-.115-.033-.13.05-.053.304-.111.318-.134.04-.068-.074-.127-.069-.168.022-.138.17-.021.203-.145.005-.016-.027-.097-.021-.163.003-.03.013-.056.037-.07.032-.019.134.002.15-.02.092-.114.147-.306.267-.376.099-.056.15.064.206.043.056-.02.029-.18.058-.21.046-.047.157-.02.173-.032.314-.227.589-.469.942-.635a5.5 5.5 0 0 0-.798.173c-.07.188-.062.043-.171.059-.086.014.012.212-.086.246-.05.016-.234-.047-.29.073-.003.005.056.104-.01.156-.147.12-.327.349-.492.478-.033.025-.077-.008-.122-.021-.023-.006-.046-.008-.067.007-.046.032-.009.154-.084.199-.093.056-.275-.027-.117.2-.077-.056-.147-.118-.223-.171m-.579 5.651c-.005.016-.187.329.074.137a1 1 0 0 0-.04-.297c-.047-.173-.118-.341-.12-.526-.275.18-.105.307-.012.48.005.01-.086.002-.053.047.008.01.041.024.075.044.043.026.087.062.076.115m4.814-4.662c-.105.107-.195.158-.303.125-.025-.007-.034-.09-.046-.1-.022-.023-.04.07-.043.07-.026.006-.04-.138-.044-.142-.052-.05-.011.108-.046.131-.044.03-.113.016-.174.024-.021.002-.041-.106-.085-.084-.033.016-.086.166-.177.058-.018-.047-.032-.102-.047-.151.006.222-.014.22-.124.213-.018 0 .006.084-.032.067s-.099-.136-.149-.108c-.017.01.016.099-.008.117-.044.033-.142.038-.225.052a.3.3 0 0 0-.106.03c-.123.08-.077.252-.203.293-.01.003-.065-.086-.079-.075-.015.011.066.122.066.127-.007.055-.208.001-.21.038-.003.084.083.076.047.159-.033.076-.243.059-.321.114-.091.064.115.221-.155.15q-.081.164-.143.334-.076.21-.118.43l-.156-.04.094.088-.115-.035c.129.136.193.229.139.338-.002.002-.107-.015-.11-.014-.023.025.056.063.035.084-.051.05-.288.143-.001.11-.065.132.036.284-.005.412-.018.056-.184.094-.19.123-.005.03.137-.005.144.003.035.047.047.123-.063.17l-.044.015.2-.005c-.18.03-.065.19-.055.234.002.009-.074.032-.071.038.031.069.154.047.213.09.02.014-.122.03-.046.061.006.003.122-.042.144.016.035.095.16.243.167.375.001.012-.132.053-.081.078.018.008.097-.048.118-.015.081.126.092.33.267.39-.086.067-.218.102-.108.124.018.003.084-.07.091-.067.054.017.032.097.097.11.012.001.04-.019.065-.033q.022-.014.038-.015c.038 0-.028.088.028.077.088-.018.16-.093.075.103.29.231.626.356.942.557.12-.02.228-.058.335-.058.022 0 .018.064.033.093q.009.023.036.01c.015-.008.115-.142.086.137.027-.02.042-.02.064-.032l-.028-.13c.075.057.153-.035.224-.078.053-.03.01.087.043.077s.046-.037.085.107c.034-.165.053-.048.114-.045.007 0 .04-.066.071-.055.022.008.035.111.07.093.007-.003.069-.137.09-.152.032-.022.107.102.115.102.109.006.118-.13.24.064-.014-.129.026-.215.076-.216.059 0 .268.207.191-.06.1.083.082.031.138-.004l.017-.01c.07-.029.305-.029.355-.078.049-.045-.058-.162-.048-.192.016-.05.058.058.08.042a.37.37 0 0 0 .138-.187q.076.093.154.184l-.038-.07c.014-.01.027-.023.04-.03-.314-.199.111-.053.179-.106.054-.04.014-.234.031-.306.005-.018.06.048.062.045.009-.047-.031-.09.009-.125.021-.018.123.028.143.007a.6.6 0 0 0 .12-.207c.044-.12.067-.247.114-.36.013-.03.145-.002.16-.029.02-.037-.068-.104-.056-.14.013-.035.154-.044.144-.077-.01-.032-.142-.03-.094-.064.022-.016.097.051.11.026.037-.083-.043-.228.085-.294l-.08-.003c.031-.092.112-.167.134-.27.008-.036-.067-.107-.065-.141.003-.035.092-.046.096-.075.002-.012-.078-.01-.076-.018a.24.24 0 0 1 .064-.097c.044-.047.093-.095.08-.16a2.95 2.95 0 0 0-.446-1.064c-.009-.013-.106.024-.129.013-.035-.017.044-.062.045-.067.004-.035-.065.015-.083-.018-.04-.071-.05-.227-.106-.293-.101-.12-.232-.188-.36-.258l-.099-.055c-.011-.006.078-.09.061-.108-.12-.121-.218-.052-.366-.192-.147-.144-.478-.382-.72-.459-.135.197-.203.124-.259-.06.611-.462 1.11.018 1.538.365q.098.076.203.15c.445.3 1.04.717 1.15 1.332.01.066-.11.12-.071.166.006.008.098-.036.114-.01.129.215.109.478.07.718-.026.163-.06.32-.056.476.002.105.108.14.118.24-.048-.028-.1-.049-.149-.072-.237.37-.312.761-.549 1.103-.01.015-.104-.04-.117-.027-.02.02.017.074.032.115q.01.025.005.038c-.02.04-.096-.004-.114.031-.01.018.062.062.024.088-.003.002-.074-.048-.082-.02a3 3 0 0 1-.098.313c-.037.082-.178.037-.205.051-.076.041.017.138-.038.187-.285.253-.645.38-.995.478l-.389.106c-.029.008-.11.183-.173.19-.02.001-.133-.018-.15-.02-.066-.001-.132-.084-.168-.099-.069-.03-.131.117-.17.133-.064.03-.183.013-.21.009-.067-.01-.041-.184-.088-.145-.014.012-.004.146-.054.144-.042-.002-.053-.104-.079-.124-.025-.02-.09.13-.109.125-.091-.032-.117-.139-.212-.16a1 1 0 0 0-.068-.009c-.136-.007-.404-.032-.439-.014-.193.106.065.118.077.125.063.052.038.11.14.013-.014.197.087.154.173.126.079-.024.147-.035.146.176.107-.28.134-.128.198-.063.087.09.03-.086.097-.082.025.001.096.138.139.12.041-.017.06-.119.112-.125.094-.01.169.034.26.149q.017-.082.03-.165.09.08.187.153l-.046-.137.045-.026c.063.062.126.119.197.18.098-.299.1-.058.195-.045s.1-.153.162-.173c.083-.028.115-.06.202-.08.05-.012.188.096.031-.101l.032-.018c.133-.08.276-.21.432-.198.05.003.041.097.052.102.055.02.017-.102.057-.106.068-.006.223.005.277-.007.08-.017.07-.213.07-.229.008-.089.105.002.115-.018.054-.117.03-.173.25.004-.057-.11-.116-.34.051-.221-.132-.128-.04-.18-.034-.258l.144.077c-.116-.223.014-.304.148-.39.055-.036.11-.07.147-.108.003-.004-.112-.081-.072-.087.003 0 .055.033.07.022.053-.033.294-.165.306-.191.046-.087-.042-.144-.03-.201.017-.075.108-.052.121-.127.006-.035-.1-.103-.067-.148.02-.026.112 0 .127-.023.053-.08.011-.158.152-.21-.293-.09-.066-.074-.035-.11.127-.145.025-.37.06-.505l.064-.232c.094-.35.179-.717.108-1.095-.015-.075-.167-.047-.181-.122-.007-.033.086-.104.067-.16-.014-.044-.091-.085-.113-.137-.006-.014.09-.056.081-.078-.064-.163-.209-.283-.34-.403-.048-.044.047-.15-.15-.014.037-.05.068-.098.104-.15-.174.012-.084-.135-.188-.208-.012-.009-.195.026-.134-.088-.068.052-.12.104-.18.152-.054-.014-.026-.133-.04-.164-.015-.03-.111.03-.118.023-.026-.024.085-.118.085-.122a.3.3 0 0 0-.027-.126c-.035-.057-.104-.006-.263.06-.054.024-.08-.21-.216-.098.043-.055.09-.098.134-.148a4 4 0 0 0-.093-.142q-.045.092-.095.183c-.049-.11-.212-.03-.277-.078-.038-.028.046-.152.004-.14-.008.003-.053.094-.071.093-.146-.011-.143-.132-.255-.21-.054-.037-.177.108-.21-.038-.002-.013-.027-.2-.16 0 .01-.074.008-.116.017-.179-.22.292-.074-.02-.203-.142-.066-.066-.348-.066-.438-.04-.054.015-.073.15-.082.154-.056.024-.04-.107-.091-.09-.053.015-.126.159-.173.142-.037-.013.003-.175-.057-.121-.012.012.014.152-.042.096-.008-.01-.1-.162-.121-.195.05-.088.212-.197.275-.227.677-.37 2.013-.103 2.829.708.48.448.786 1.006.933 1.444.038.112-.071.233-.06.306.013.074.118-.027.129.041.01.07-.065.143-.057.205a5 5 0 0 1 .01 1.248c-.01.103.09.195.08.294-.005.038-.142.023-.144.049-.023.278.048.57-.06.842-.045.113-.2.19-.256.29-.046.082-.018.206-.057.284-.021.043-.125.014-.14.024-.053.037.069.083.054.11-.043.072-.196.026-.226.095-.012.028.072.078.061.123-.015.058-.08-.01-.104.02-.002.002.06.036.05.055-.062.123-.126.294-.219.392-.193.205-.485.289-.696.416-.054.033.014.097 0 .112-.067.076-.158.005-.22.093-.01.015 0 .16-.075.167-.04.004-.114-.045-.149-.046s.018.102-.014.12c-.06.032-.08-.049-.156.007-.03.021-.1.177-.196.208l-.016.005c-.156.045-.368.018-.542.063-.061.015-.114.152-.215.174-.123.028-.355.033-.482.04-.065.005-.078-.12-.086-.126-.05-.032-.022.108-.056.104-.046-.006-.091-.108-.131-.114-.026-.004-.029.1-.035.1-.21.035-.399.013-.609-.006a5 5 0 0 1-.215-.024c-.793-.106-1.594-.441-2.19-1.023a3.2 3.2 0 0 1-.507-.639c-.05-.084.058-.158-.003-.218-.06-.058-.349.003-.107-.206l-.148.073c-.005-.198-.16-.318-.235-.48a1.7 1.7 0 0 1-.107-.35c-.022-.106.087-.122-.074-.178l-.007-.158c-.021-.408-.043-.823.124-1.198-.224-.124-.065-.214-.007-.346.008-.016-.08-.013-.063-.064.022-.064.156-.07.173-.177.004-.027-.079-.277.02-.332.094-.053.174-.145.27-.193q-.083-.014-.167-.024l.02-.127q.098.03.194.064l-.148-.143c.337.097.21.1.18-.04-.013-.07.061-.084.058-.151-.002-.025-.085-.085-.084-.113.001-.066.106.032.123.001.016-.03-.089-.155.004-.174.198.2.221-.003.052-.131.013-.02.031-.031.041-.056.429.327.18.015.153-.07-.03-.083.084.007.087-.005.007-.035-.055-.053-.043-.072.085-.127.245-.174.351-.27.016-.015-.055-.06-.032-.071.023-.012.097.03.119 0 .006-.007-.042-.061-.03-.072.17-.158.365-.272.564-.38l.233-.123c.025-.014-.018-.137.035-.161s.183.04.25.018c.017-.006-.023-.104 0-.112.083-.027.184.024.269.006.143-.03.27-.14.43-.117.03.005.047.092.091.107.075.026.021-.094.03-.114.034-.065.084.1.117.048.005-.008-.024-.106-.019-.109.092-.036.135.2.212.058.105.123-.03.19-.03.265-.002.18.116.372.17.432.047.052.033-.057.05-.06.084-.01.212-.04.279.01.04.03-.029.079-.008.115.02.035.031-.048.052.042.023.09.06.357.052.485m-2.396 4.512c-.42.183-.62-.182-.67-.38-.05-.17.209-.428-.227-.208.073.176.185.289.275.464.01.019.038.147.057.187.01.023-.055.07-.035.097.005.006.114-.023.12-.01.02.045-.01.264.01.279.049.037.129-.063.162-.058.11.012-.021.145.081.165.013.002.087-.033.14-.04q.04-.005.056.02c.011.023-.016.113 0 .123.093.055.25.042.31.112.051.058-.04.146-.017.185.025.038.15-.053.176-.045.044.013.043.112.056.118.246.126.504.144.751.196a3 3 0 0 1-.385-.358c-.144.07-.045-.016-.076-.08-.024-.052-.149.13-.192.075-.022-.03.004-.195-.088-.183-.004 0-.076.09-.122.062-.102-.064-.285-.142-.368-.257-.016-.023.021-.068.04-.107q.014-.029.005-.05c-.015-.03-.123.018-.142-.04-.022-.072.105-.218-.128-.082.07-.064.143-.122.211-.185m-.662-3.349c.014-.007.335.011.033-.093a.37.37 0 0 0-.153.136c-.068.101-.098.219-.18.32.32.03.23-.098.255-.225 0-.006.068.046.066.01 0-.008-.019-.032-.033-.06-.017-.035-.028-.075.012-.088"/><path fill="currentColor" d="M51.81 42.38H41.303a4.354 4.354 0 0 1-4.35-4.35v-2.27a8.08 8.08 0 0 1 8.07-8.068h3.064a8.08 8.08 0 0 1 8.07 8.069v2.27a4.354 4.354 0 0 1-4.347 4.349M45.025 29.51a6.26 6.26 0 0 0-6.25 6.25v2.27a2.53 2.53 0 0 0 2.528 2.528H51.81a2.53 2.53 0 0 0 2.529-2.529v-2.27a6.253 6.253 0 0 0-6.25-6.249z"/><path fill="currentColor" d="M51.807 43.256a2.9 2.9 0 0 1-1.145.106c-.089-.01-.08-.093-.117-.106-.067-.025-.18.064-.195.064-.098.001-.06-.143-.073-.148-.147-.059-.105.105-.245.12-.183.021-.417-.008-.637-.016-.078-.003-.043-.113-.21-.104-.118.007-.481.132-.648-.002-.001-.05.02-.106.029-.158-.24.21-.325.201-.664.15-.054-.008-.105.078-.2.046-.094-.032-.098-.165-.288-.163-.068 0-.108.095-.212.099-.294.011-.854-.105-1.096-.11-.475-.007-.733.153-1.156.097-.032-.004.04-.107-.02-.109s-.123.135-.138.138c-.16.035-.497-.148-.585-.126-.216.055-.004.114-.303.14-.284.025-.677-.152-.96-.187-.327-.04-.432.217-.678-.052l-.963.016a5 5 0 0 1-1.817-.324l.068-.147a4 4 0 0 1-.254.014l.08-.095c-.384-.003-.725-.1-1.046-.39-.006-.006.076-.079.072-.085-.063-.072-.198-.074-.25-.143-.098-.127-.164-.39-.23-.373q-.018.004-.036.035a.4.4 0 0 0-.03.076l-.02-.025c-.292-.359-.686-.745-.845-1.163-.07-.184.06-.308.033-.393s-.142.014-.16-.013c-.11-.166-.206-.48-.057-.557a5 5 0 0 1-.221-.062c.172-.024-.028-.586-.031-.747-.002-.028.076-.04.073-.062-.03-.222-.143-.28-.192-.466l-.007-.029c-.014-.066.125.036.065-.133-.006-.015-.13-.007-.13-.21.001-.323-.048-.94.013-1.325.005-.032.142.064.11-.08-.011-.052-.108-.027-.11-.154a5 5 0 0 1 .012-.34c.025-.417.107-.834.097-1.251.105.035.199.237.172-.05-.004-.047-.105-.03-.106-.05-.001-.168.094-.296.095-.478 0-.054-.071-.084-.074-.153-.003-.102.113-.118.098-.24-.024-.19-.115-.25.145-.4.366-1.19.968-2.334 1.878-3.19q.101-.157.208-.304a4 4 0 0 1 .465-.544c.082-.078.185.015.295-.13.022-.033.163-.325.36-.121.05-.065.09-.094.136-.145l-.197-.013c.259-.13.4-.338.598-.51.147-.124.09.047.185-.02.094-.067.129-.117.322-.055.023-.198.144-.13.332-.213.02-.008.111-.12.216-.151.076-.022.136.065.243.005.017-.01.214-.222.29-.26.118-.061.354.004.378 0 .35-.08.46-.239.754-.082.023-.136.22-.252.395-.266.224-.022.678.197.717-.081.261.106.228.03.529.022q.041 0 .098.002c.297.015.858.099 1.043.085.205-.015.105-.169.187-.19.134-.034.061.08.153.079.259-.005.484-.027.731-.077l.042.24.038-.08c.053.001.113 0 .162.002-.415-.35.402.026.647.035q.03 0 .062-.002c.222-.022.552-.146.78-.158.06-.003.01.08.023.078.145-.01.174-.067.366-.034.102.019.189.141.285.16.71.137 1.419.237 2.095.523.115.049.155.214.246.261.13.069.262.016.386.081s.231.278.32.31c.09.032.018-.16.147-.039.059.056-.109.06-.028.114.25.167.67.327.848.62q.009-.046.01-.094c.239.206.41.436.618.669l.066.072c.084.09.296.198.377.292.08.093.048.193.108.269.024.032.076-.03.092-.009.196.278.19.509.395.789a8.56 8.56 0 0 1 1.497 3.592c.009.053.116.076.14.153.036.118-.055.132-.056.149-.011.105.07.056.08.197.011.163 0 .379-.019.59a5 5 0 0 0-.029.49c.014.632.09 1.167.132 1.781l.004.08c.002.056-.12.016-.124.109-.06.647.048.82-.25 1.598a5.22 5.22 0 0 1-2.155 2.449c-.133.352-.541.492-.9.44a11 11 0 0 0 1.545-1.399c.683-.76 1.254-1.7 1.354-2.826q.02-.225.01-.45c-.031-.745-.116-1.506-.196-2.27-.102-.976-.37-1.902-.668-2.783-.055-.16.038-.273-.044-.397-.013-.021-.08.076-.119.011-.503-.845-.928-1.832-1.662-2.505l-.08-.07c-.208-.177-.315-.123-.511-.254.065-.014.122-.037.184-.053-.723-.848-1.764-1.354-2.82-1.71-.049-.017-.023-.122-.073-.142-.102-.04-.233.048-.323.029-.119-.026-.119-.114-.23-.134-.055-.01-.056.075-.17.036-.009-.003.002-.09-.078-.094a10 10 0 0 0-.848.005c-.227.008-.403-.13-.491-.141a.32.32 0 0 0-.234.046c-.05.03-.098.061-.193.062-.97 0-1.91-.074-2.871-.118a6.4 6.4 0 0 0-1.308.073c-.093.013-.394.223-.556.257-.055.009-.348.045-.391.056-.175.037-.35 0-.451.016-.197.028-.347.24-.436.293-.16.092-.459.214-.529.247-.168.076-.195-.106-.295-.006-.03.03.071.127-.05.194-.1.057-.191-.005-.27.02-.079.027-.118.237-.16.26-.227.124-.38.107-.61.276-.125.09-.508.448-.74.73-.125.148-.213.27-.224.301-.145.406.243-.135.278-.154l.056-.037c.116-.07.137-.044.194-.24.37.152.487-.689.885-.427-.04-.332.165-.293.34-.335.244-.058 0-.107.15-.2.059-.036.297-.02.378-.083.081-.064.073-.175.196-.242a.98.98 0 0 1 .66-.118l.045-.191q.233.004.462.023l-.109-.114.115-.058c.154.027.3.054.454.09.31-.355.258-.098.47-.105.214-.004.312-.177.478-.2.222-.027.324-.056.55-.058.132-.001.358.147.168-.09l.25-.019c.373-.024.804-.053 1.105.026.11.029-.037.105-.018.114.093.045.171-.078.267-.06.16.029.47.125.596.148.181.032.465-.128.494-.14.163-.064.206.069.258.06.198-.036.293-.073.362-.01.034.03.062.087.09.18.073-.12.404-.31.466-.1.014-.184.277-.132.445-.156l.07.17c.384-.285 1.024.098 1.423.28.01.004.073-.12.127-.07.003.005-.023.06.017.083.136.07.593.428.646.46.21.104.291.032.424.091.175.08.153.174.314.254.075.038.206-.026.31.062.06.052.014.137.06.178.167.146.335.196.41.415.23-.208.165.028.223.107.125.17.303.317.474.462.155.13.303.258.398.388.621.86.91 1.758 1.19 2.697.044.153.202.145.241.312.017.075-.069.18-.04.3.022.097.108.224.132.347.007.033-.095.055-.087.103.06.36.174.707.239 1.081.024.14-.114.226.126.2l-.075.071q-.044.045-.093.09c.151.204-.007.371.032.647.005.03.17.238.05.356.086.008.159-.01.236-.007.033.117-.066.297-.076.375-.01.08.101.132.102.155.003.09-.143.07-.145.076-.13.389-.073.38.11.577l.046.05c.06.067-.13.46.023.566-.07-.007-.129-.038-.195-.054a4 4 0 0 1-.12.343c.072-.01.145-.025.217-.034-.11.233-.022.481-.105.682-.049.113-.182.04-.18.117.001.015.103.034.094.075-.084.338-.255.42-.46.683-.096.12-.04.35-.285.44-.014.006-.12.027-.185.1-.04.046-.066.112-.045.216-.082-.025-.137-.028-.202-.054.012.442-.15.144-.49.279-.172.078-.704.41-.896.5-.108.06-.067.19-.087.202-.123.069-.158-.06-.272-.009-.113.05-.244.228-.378.232-.102.003-.043-.17-.181-.097-.03.015.072.147-.09.106a3 3 0 0 1-.326-.18c.13-.083.47-.224.59-.282.63-.278 1.357-.717 1.9-1.39.562-.683.898-1.605.87-2.492a83 83 0 0 1-.01-2.268 8 8 0 0 0-.116-1.43c-.037-.21.066-.384.04-.527-.028-.141-.12.012-.147-.115-.026-.125.032-.244-.002-.362a6.7 6.7 0 0 0-1.095-2.23c-.132-.171-.326-.229-.459-.369-.052-.054.045-.152.006-.19l-.039-.037c-.416-.39-.903-.62-1.363-.929-.197-.132-.366-.36-.578-.479-.174-.097-.394-.108-.558-.172-.089-.035-.099-.15-.129-.17-.106-.07-.11.066-.168.045-.16-.056-.194-.23-.354-.265-.063-.013-.082.084-.174.075-.117-.012-.053-.089-.133-.112-.005-.002-.006.07-.05.063-.279-.05-.633-.057-.9-.093-.285-.038-.569-.094-.853-.134-.29-.037-.574-.076-.85-.089-.145-.006-.107.086-.152.09-.221.021-.3-.089-.53-.05-.04.007-.194.135-.342.102-.08-.017-.17-.097-.238-.115s-.079.098-.16.098c-.15 0-.106-.08-.319-.066-.07.005-.279.081-.474.103a1 1 0 0 1-.107.006c-.327-.01-.747-.077-1.137-.011-.134.022-.28.172-.478.221-.245.058-.697.17-.938.266-.124.047-.18-.064-.197-.063-.11.007-.016.12-.08.142-.09.03-.212-.027-.294.004-.052.02-.014.117-.024.123-.376.223-.71.412-1.055.672q-.477.363-.886.8c-1.315 1.401-2.004 3.287-2.06 5.156l-.004.043c-.022.165-.13.186-.112.357.02.185.303.365-.01.517.064.005.109.005.166.01-.089.384.003.767.014 1.143q.004.124.004.241c0 .147.002.287.015.431.019.18-.09.189.082.314.069.662.403 1.277.823 1.815q.12.154.252.306c.294-.066.342.151.56.312.026.02.036-.071.116-.021.1.06.1.209.297.28.054.023.473.006.599.102.128.103.34.177.495.257-.019-.058-.043-.113-.063-.17q.116-.005.23-.017l.031.203.043-.058.11-.134c.116.346-.002.233.255.146.13-.044.232.017.364-.018.048-.013.078-.115.131-.128.13-.032.054.109.134.108s.195-.155.34-.087c-.151.275.283.185.304-.028.051 0 .095.008.152.002-.053.54.218.157.325.083s.103.071.128.065c.072-.015.02-.075.07-.078.336-.012.653.077.984.085.048.001.006-.08.061-.073.056.008.11.09.191.084.023-.001.03-.073.064-.073.72.003 1.405.064 2.14.074.066 0 .118-.127.247-.123s.324.12.483.129c.043.002.054-.104.11-.102.191.01.356.097.554.11.336.025.687-.04 1.027.023.065.011.055.1.148.125.16.043.1-.086.132-.104.107-.056.14.117.243.072.016-.007-.007-.109.007-.11.22-.018.23.221.463.093.207.137-.138.184-.174.257-.087.178.142.386.277.453.117.058.116-.053.162-.053.245 0 .61-.021.796.031.112.032-.091.078-.033.114s.094-.047.152.044c.059.09.179.358.156.485m-15.075-8.49c.205.234.267.61.3.995a6 6 0 0 1-.012.942c-.034.444-.37.826.116.734.004-.479-.045-.867-.03-1.373 0-.034.02-.177.035-.303.01-.068.018-.131.022-.17.006-.059.086-.059.088-.14 0-.016-.1-.12-.095-.156.015-.125.212-.47.216-.518.005-.14-.126-.105-.14-.169-.041-.216.147-.206.127-.416-.004-.037-.139-.191-.08-.336.023-.059.131-.14.14-.186.047-.252.033-.564.137-.781.086-.177.184-.08.238-.168.054-.086-.029-.258-.006-.326.036-.109.172-.195.186-.226.29-.619.56-1.184.977-1.717a8.4 8.4 0 0 0-.956 1.013c-.023.293-.06.117-.183.248-.096.105.083.24-.02.385-.052.074-.279.19-.3.398 0 .008.098.07.046.205-.119.307-.22.798-.328 1.148-.033.103-.145.054-.188.177-.03.09.057.218.007.358-.062.174-.264.24-.016.399-.096-.001-.187-.018-.28-.017m4.603 7.664c.026.01.37.308.268-.01a2 2 0 0 0-.3-.063c-.37-.052-.76-.074-1.107-.232.077.347.4.295.742.3.017 0-.059.077.036.07.044-.004.199-.102.33-.075q.015.003.031.01m3.689-12.042c-.26.107-.504.17-.77.163-.06-.002-.068-.083-.095-.093-.05-.016-.11.085-.12.087-.065.014-.068-.132-.078-.136-.112-.037-.05.118-.14.154-.116.048-.278.061-.424.1-.051.013-.063-.1-.17-.052-.08.033-.263.238-.422.165-.021-.046-.03-.103-.045-.153-.071.263-.123.275-.357.343-.037.01-.026.103-.098.108s-.144-.108-.259-.034c-.04.027-.014.121-.072.165-.165.12-.548.273-.68.39a1 1 0 0 0-.198.238c-.093.151-.149.294-.301.42-.018.014-.065-.09-.093-.059-.03.032.049.153.045.162-.042.107-.329.192-.347.26-.04.158.092.065 0 .255-.084.179-.371.337-.49.51-.136.202.079.363-.235.435a5.7 5.7 0 0 0-.305 1.855l-.161-.009.071.1.039.056-.12-.024c.154.257.234.487.192.787-.001.006-.108-.01-.11-.005-.021.068.061.144.042.203-.047.144-.28.389.005.281-.054.308.023.666-.007.97q-.003.03-.01.062c-.019.108-.182.16-.184.219s.138.008.146.026c.047.11.09.285-.056.356q.105.006.209.006c-.181.047.035.36.088.436.008.015-.057.06-.05.07.093.123.216.077.324.14.039.023-.11.066.01.108.007.002.057-.045.117-.035a.13.13 0 0 1 .068.036c.144.145.485.301.691.428.018.01-.085.12.014.12.036-.001.049-.098.124-.078.157.038.32.091.492.107.19.013.381.014.569-.029-.015.11-.158.232.057.163.034-.01.008-.108.024-.112.124-.028.232.041.367.004.04-.011.05-.088.1-.106.072-.027.105.082.19.036.133-.073.154-.177.319.026.935-.012 1.866-.07 2.798.02.27-.058.519-.123.8-.145.082-.007.098.132.23.086.03-.01.24-.159.271.121.059-.024.096-.025.146-.04q-.058-.06-.114-.124c.213.045.387-.054.575-.1.139-.035.04.085.125.073s.124-.039.23.105c.084-.166.14-.05.294-.045.016 0 .112-.064.192-.05.057.008.074.112.166.096.014-.003.208-.13.27-.143.095-.018.247.115.266.116.269.024.372-.107.563.108.04-.128.199-.203.327-.19.163.015.49.277.534 0 .188.124.168.048.391.045.175-.002.596.076.816.088a.3.3 0 0 0 .07-.001c.13-.022.055-.172.101-.197.073-.042.045.076.099.067a.8.8 0 0 0 .394-.183l.113.213-.008-.084c.031-.012.064-.029.093-.04-.373-.213.225-.07.365-.185.058-.04.102-.137.132-.235.026-.087.042-.175.067-.233.012-.03.067.04.07.033.028-.079-.013-.121.049-.203.032-.043.154-.04.182-.091.147-.269.16-.582.125-.866a6 6 0 0 1-.026-.425c-.002-.091.13-.17.133-.247.004-.11-.104-.18-.105-.283s.127-.25.107-.32-.144.05-.11-.078c.016-.06.109.044.112-.028.009-.226-.107-.545.005-.786q-.04.017-.08.038.005-.07.012-.14c.022-.18.06-.356.049-.553-.004-.085-.105-.225-.117-.305s.068-.133.058-.199c-.003-.027-.08-.001-.081-.02-.024-.224.083-.383-.003-.613a5.8 5.8 0 0 0-1.484-2.207c-.024-.023-.107.026-.155.01l-.008-.003c-.072-.038-.011-.106-.016-.116-.036-.062-.074.018-.14-.044-.146-.136-.354-.4-.526-.51-.393-.255-.78-.369-1.208-.496-.032-.009.034-.115-.02-.137-.375-.148-.488-.065-.963-.197a5.5 5.5 0 0 0-1.007-.165 37 37 0 0 0-1.132-.053v-.001c-.208.227-.476.17-.7-.001.617-.268 1.22-.35 1.832-.366.64-.016 1.278.146 1.923.354.831.267 1.73.607 2.487 1.213.421.336.79.75 1.04 1.218.066.124-.021.234.056.323.013.015.078-.076.115-.027.514.696.543 1.646.658 2.443.032.218.143.25.174.448-.053-.035-.108-.057-.161-.086l-.015.09c-.127.754-.089 1.509-.094 2.27q0 .143-.021.283c-.006.04-.114.03-.124.067-.02.075.082.173.068.245-.019.093-.106.083-.127.164-.01.04.073.056.027.136-.004.007-.086-.02-.099.038-.028.16-.142.49-.218.613-.06.106-.17.149-.25.172-.04.013-.073.021-.091.034-.145.099-.058.2-.184.292a2.23 2.23 0 0 1-1.443.39c-.582-.04-1.166-.082-1.771-.081-.072 0-.337.15-.47.143-.044-.002-.277-.041-.312-.045-.142-.012-.264-.103-.342-.122-.151-.037-.32.105-.402.119-.145.025-.402.006-.462.002-.147-.008-.099-.183-.204-.142-.031.012.002.146-.108.146-.092 0-.129-.102-.191-.12-.063-.018-.178.138-.217.134-.204-.021-.295-.124-.517-.129-.184-.004-1.037.068-1.108.104-.318.164.211.09.241.096.161.032.138.095.298-.025.144.37.645-.207.774.233.133-.293.244-.145.384-.086.193.081.046-.09.187-.09.056-.001.217.132.3.113.084-.018.12-.12.231-.126.2-.01.36.037.528.16l.09-.163.348.174-.056-.142.102-.02.336.21c.315-.273.224-.037.399-.001s.276-.123.411-.123c.182-.002.266-.021.45-.01.106.006.286.159.138-.083.283-.016.655-.068.943-.022q.075.011.143.03c.092.022-.024.106-.008.114.083.04.138-.089.218-.082.133.015.415.045.528.028.166-.018.322-.271.334-.292.087-.12.183-.026.218-.058.184-.183.177-.26.423-.1a.6.6 0 0 1 .035-.287c.032-.081.085-.135.18-.096-.136-.122.027-.27.06-.409q.087.013.176.02c-.126-.402.272-.794.336-1.195.002-.01-.134-.036-.1-.088.003-.004.064.005.074-.032l.025-.09c.05-.178.157-.501.159-.545.005-.194-.098-.228-.108-.346-.013-.156.08-.178.067-.326-.006-.07-.128-.133-.111-.242.01-.065.106-.071.114-.122.027-.182-.033-.316.092-.477-.305-.043-.08-.12-.057-.2l.003-.012c.09-.341-.073-.75-.093-1.033-.06-.902-.181-1.764-.635-2.58-.075-.132-.223-.078-.303-.21-.035-.06.013-.184-.056-.278-.055-.075-.181-.145-.255-.233-.02-.023.058-.093.029-.128a2.3 2.3 0 0 0-.387-.36 7 7 0 0 0-.423-.285c-.109-.069-.084-.225-.219-.025 0-.076-.005-.146-.005-.22-.232.012-.252-.2-.475-.3-.025-.011-.262.034-.287-.119-.05.07-.073.14-.115.206-.1-.022-.181-.18-.236-.22-.053-.04-.143.04-.16.032-.068-.03.011-.154.007-.159-.26-.279-.268-.193-.543-.069-.066.03-.35-.241-.472-.095.018-.068.056-.122.082-.184q-.149-.076-.301-.144c.005.071.014.144.016.215-.197-.115-.41.003-.58-.033-.098-.02-.062-.166-.127-.143-.013.005-.008.107-.044.11-.284.026-.393-.092-.676-.126-.086-.01-.167.064-.264.084a.22.22 0 0 1-.17-.037c-.017-.01-.2-.174-.312.06-.036-.074-.068-.113-.095-.175-.228.347-.165.007-.473-.074-.16-.042-.697.02-.87.056-.104.023-.102.16-.12.165-.111.031-.111-.101-.213-.08-.102.023-.231.172-.336.159-.08-.011-.017-.175-.136-.118-.024.012.046.152-.079.097-.02-.008-.22-.16-.26-.192.105-.088.41-.202.524-.237.668-.207 1.565-.345 2.54-.434 1.902-.198 4.047.805 5.114 1.993q.262.274.462.537c.139.18.11.385.183.509.072.125.111-.05.177.065.065.117.038.248.094.356.38.734.622 1.53.751 2.32.033.204.164.353.186.545.008.074-.13.09-.123.142.025.217.057.427.082.64.04.3.085.595.075.905-.006.21-.123.438-.133.646-.01.172.07.35.071.504.002.084-.103.128-.112.159q-.009.038.004.055c.024.047.097.035.096.086-.008.191-.172.266-.187.433-.007.066.093.076.086.177-.01.128-.088.06-.114.145-.002.005.071.007.06.054-.065.301-.186.684-.365.934a2.2 2.2 0 0 1-.418.44c-.327.262-.7.426-1.05.557-.132.048-.065.119-.106.14-.203.095-.308.01-.52.096-.034.013-.17.167-.325.147-.083-.01-.177-.086-.243-.104a.1.1 0 0 0-.024 0c-.039.01-.053.099-.11.099-.119 0-.084-.081-.254-.067-.069.006-.298.117-.474.108-.289-.013-.646-.115-.986-.116-.117-.001-.267.12-.447.12-.221.002-.629-.025-.855-.027-.116 0-.124-.127-.138-.132-.089-.035-.053.106-.112.1-.082-.007-.158-.111-.232-.118-.047-.005-.055.1-.065.1-.38.034-.714.025-1.09.036-1.91.056-3.836.178-5.744.14a3 3 0 0 1-.44-.037c-.22-.038-.201-.169-.389-.195-.18-.026-.473.166-.493-.185-.03.055-.049.096-.077.146-.329-.246-.705-.4-1-.677l-.008-.007a2.8 2.8 0 0 1-.505-.665c-.116-.217-.004-.242-.221-.375a3.8 3.8 0 0 1-.204-1.352c.026-.443.056-.885.14-1.322-.235-.182-.087-.356-.052-.608.004-.031-.081.002-.074-.09.007-.088.083-.144.117-.25a.5.5 0 0 0 .017-.134c-.004-.055-.126-.492-.03-.643.09-.149.168-.366.268-.509q-.088.02-.176.046a7 7 0 0 1 .02-.247l.205.01-.155-.181c.361-.016.224.06.198-.18-.01-.122.073-.19.076-.311.001-.044-.087-.102-.084-.15.01-.12.119-.01.142-.076s-.084-.218.03-.31c.202.225.266-.153.084-.26.019-.043.044-.074.06-.122.464.277.223-.098.206-.22-.019-.118.107-.044.112-.066.018-.063-.057-.053-.037-.093.139-.264.368-.449.548-.674.026-.032-.062-.052-.025-.086.036-.035.129-.021.17-.08.01-.016-.041-.066-.022-.09q.217-.26.464-.48c.297-.27.618-.504.96-.736.048-.032.014-.164.112-.223.1-.06.306-.051.43-.111.034-.016-.01-.114.036-.136.153-.072.322-.06.484-.12.273-.099.538-.27.84-.297.058-.005.075.082.158.084.143.004.06-.106.082-.13.075-.079.145.081.22.018.011-.01-.03-.105-.02-.11.184-.06.24.173.411.012.196.106-.084.201-.097.28-.034.187.186.355.297.406.097.044.08-.065.115-.07.187-.028.469-.072.614-.023.088.028-.066.08-.02.114.044.035.07-.049.116.04.047.09.134.357.118.485m-3.321 9.89a.78.78 0 0 1-.4.281c-.367.135-.864-.024-1.116-.187-.328-.196-.33-.655-.582-.23.323.258.646.368 1.055.49.04.015.297.11.393.122.052.01.048.09.123.093.015 0 .09-.081.127-.097l.011-.003c.101.01.403.17.444.166.117-.013.072-.138.123-.161.169-.075.187.112.355.052.03-.011.129-.175.253-.153.05.008.137.093.175.089.21-.022.445-.134.638-.115.158.015.115.141.199.158s.184-.13.242-.138c.091-.013.202.07.23.069.56-.025 1.056-.121 1.595-.156-.366-.058-.732-.11-1.095-.17-.207.13-.104.008-.24-.033-.107-.032-.133.19-.275.165-.072-.013-.23-.167-.386-.102-.005.002-.019.117-.135.12-.261.01-.662.069-.956.044-.086-.007-.068-.128-.17-.143-.075-.01-.161.101-.278.076-.146-.032-.216-.224-.316.043-.009-.095-.005-.188-.014-.28m-2.714-5.928c.014-.02.37-.202.042-.208-.23.322-.235.736-.343 1.12.324-.108.221-.333.248-.605.001-.013.072.053.07-.02 0-.034-.097-.193-.017-.287M53.132 57.094h-7.747a.91.91 0 1 1 0-1.821h7.747a1.975 1.975 0 1 0 0-3.95l-8.963.003a.91.91 0 0 1-.895-.743c-.164-.88-.92-1.564-2.25-2.03-2.31-.81-4.879-.384-6.874 1.143l-6.038 4.618a.91.91 0 0 1-1.106-1.447l6.038-4.618c2.484-1.899 5.693-2.426 8.583-1.412 1.941.681 2.827 1.73 3.217 2.67l8.288-.003a3.796 3.796 0 0 1 0 7.592z"/><path fill="currentColor" d="M53.128 57.97a8.2 8.2 0 0 1-1.943.105c-.15-.01-.136-.092-.198-.106-.114-.024-.304.064-.331.064-.166.002-.101-.142-.123-.148-.25-.058-.178.106-.416.121-.31.021-.707-.008-1.08-.016-.132-.004-.074-.113-.357-.104-.2.006-.815.131-1.099-.002-.001-.05.034-.106.05-.158-.407.21-.552.2-1.127.15-.092-.009-.178.078-.338.046s-.167-.165-.49-.163c-.098 0-.163.07-.291.092a1 1 0 0 1-.125.002 1.58 1.58 0 0 1-1.042-.504 1.63 1.63 0 0 1-.172-1.977q.105-.167.23-.297c.324-.331.72-.49 1.109-.515.33-.035.637-.069 1.027-.039.055.004-.066.107.035.11.102.001.208-.135.233-.138.27-.035.843.147.993.125.366-.054.006-.114.513-.14.483-.024 1.15.153 1.628.188.555.04.734-.218 1.152.051l2.166-.02a1.4 1.4 0 0 0 1.252-.817l.141.078q.008-.147-.012-.284l.104.07a2.4 2.4 0 0 0-.07-.446 3.7 3.7 0 0 0-.258-.714c-.004-.008.099-.044.097-.052-.04-.104-.178-.146-.226-.223l-.014-.024c-.102-.204-.352-.552-.328-.232-.186-.133-.44-.199-.686-.19-.426.01-.852.027-1.229-.003-.293-.024-.38-.193-.521-.203-.14-.01-.069.136-.119.142-.299.032-.791.026-.843-.136l-.185.196c.036-.18-.888-.106-1.13-.11-.045 0-.051-.08-.085-.079-.372.01-.463.134-.782.175-.112.015.061-.124-.226-.064-.025.005-.012.13-.355.13-.548-.002-1.597.048-2.25-.013-.053-.005.11-.141-.135-.11-.088.012-.046.109-.26.11-.276.001-.559-.01-.843-.022a1.47 1.47 0 0 1-.918-.356 1.52 1.52 0 0 1-.493-.841 1 1 0 0 0-.13-.307c.105-.029.322.15.106-.154-.038-.046-.103.04-.118.02-.12-.154-.183-.339-.386-.47-.06-.038-.122.01-.2-.027-.117-.054-.103-.178-.26-.22-.252-.062-.318.018-.523-.296a6 6 0 0 0-.405-.153c-1.603-.547-3.362-.422-4.935.189-.462.27-.848.57-1.272.91a.3.3 0 0 1-.086.046c-.1.035-.2.02-.348.177-.044.046-.309.436-.53.253-.085.095-.147.143-.222.22q.135-.025.268-.048c-.386.238-.619.54-.908.82-.212.206-.12-.016-.255.103-.137.119-.186.19-.452.213-.04.24-.204.218-.466.413-.028.021-.15.196-.293.288-.103.067-.194.007-.338.137-.024.021-.271.372-.368.46-.15.139-.487.23-.519.252-.467.328-.562.566-1.015.64.012.152-.21.417-.435.573a2 2 0 0 1-.17.1c-.345.22-.826.24-1.13.198-.176-.017-.31-.034-.389.025-.375-.261-.433-.357-.61-.54a1.3 1.3 0 0 1-.27-.498 1.4 1.4 0 0 1-.034-.61c.052-.354.274-.74.598-.966.296-.199.569-.384.692-.487.269-.224.04-.243.137-.344.16-.165.132 0 .254-.096.346-.27.637-.52.94-.814q.1.075.201.148l.003-.103c.072-.054.152-.117.22-.166-.773.15.556-.393.892-.639.283-.207.646-.694.93-.956.07-.064.07.043.085.03.164-.157.155-.224.401-.402.13-.094.326-.108.451-.2q.413-.31.804-.634c.651-.532 1.352-1.008 2.14-1.351.192-.084.407-.025.57-.08.234-.08.35-.23.576-.297.226-.068.582-.02.73-.07.151-.05-.14-.12.153-.143.134-.009-.08.126.082.099.497-.087 1.215-.27 1.761-.152-.024-.028-.057-.053-.086-.08.583.01 1.09.118 1.676.227.204.037.59.037.79.091.2.053.266.165.421.215.064.022.063-.062.106-.047q.125.046.233.097c.385.185.622.385 1.074.604.993.483 1.965 1.286 2.457 2.418l-.513-.342 3.068-.079c.083-.002.14-.105.261-.12.188-.025.198.067.223.07.163.02.096-.064.316-.065.484 0 1.264.075 1.747.068.951-.013 1.773-.074 2.674-.117q.274-.012.558.014c.095.009.016.12.174.147 1.083.265 1.435.227 2.492 1.203l.001.001c.631.62 1.306 1.915 1.25 3.225a4.6 4.6 0 0 1-.565 2.093c-.03.423-.322.852-.7 1.116q-.19.132-.392.215.142-.166.268-.339c.684-.94 1.02-2.016.993-3.085-.025-1.05-.423-2.104-1.188-2.89a3.93 3.93 0 0 0-1.758-1.052 3.8 3.8 0 0 0-1.133-.138c-2.72.089-5.565.397-8.288.357l-.048-.001-.016-.042-.029-.07c-.112-.26-.06-.427-.218-.622-.027-.032-.05.111-.129.013-.706-.878-1.708-1.54-2.796-1.963a6.7 6.7 0 0 0-1.765-.436c-.462-.04-.543.068-.942.08.071-.05.12-.102.185-.152-1.86-.257-3.776.324-5.384 1.32-.073.046-.141-.04-.22.007-.157.094-.231.292-.355.388a.6.6 0 0 1-.136.08c-.083.035-.152.04-.25.12-.072.058 0 .107-.166.217-.015.01-.076-.053-.175.036-.27.246-.815.755-1.04.955-.29.256-.614.339-.735.42-.325.22-.237.322-.501.524-1.058.81-2.12 1.56-3.188 2.325-.216.157-.369.405-.41.676a1.053 1.053 0 0 0 .892 1.204c.277.042.572-.03.8-.202l.208-.158c.12-.093.477-.553.704-.72.077-.055.493-.324.553-.366.246-.172.507-.258.65-.343.277-.166.476-.495.607-.613.228-.206.672-.522.776-.597.252-.182.277.019.43-.149.044-.05-.092-.114.093-.255.155-.118.278-.086.395-.152s.215-.338.283-.385c.357-.246.572-.281.95-.563.076-.058.22-.172.393-.313.505-.438 1.415-.941 1.512-1 .556-.412-.45.091-.5.131-.316.133-.308.056-.536.337-.199-.067-.429.106-.642.315-.272.267-.548.573-.82.47-.046.403-.324.43-.595.563-.375.184-.023.13-.26.313-.094.072-.446.174-.575.296-.13.122-.127.248-.312.397-.33.266-.63.435-.987.554-.019.083-.034.163-.053.244l-.691.31.18.042-.16.147-.693.266c-.365.622-.354.317-.67.514-.22.137-.323.302-.442.45a.4.4 0 0 1-.165.13.8.8 0 0 1-.395.056.7.7 0 0 1-.389-.166.5.5 0 0 1-.11-.157c-.056-.13-.08-.25-.13.011a.9.9 0 0 1-.157-.592.88.88 0 0 1 .33-.61c.274-.213.545-.405.785-.536.165-.09.014.121.045.11.153-.061.183-.24.324-.325.232-.14.71-.385.893-.496.263-.16.549-.58.58-.62.18-.219.32-.158.384-.22.368-.348.423-.46.719-.333.03-.176.34-.67.569-.588-.11-.148.27-.399.463-.605q.111.015.222.032c.158-.37.608-.705 1.079-1.007.31-.199.639-.362.904-.503.017-.01-.025-.145.09-.177.008-.001.029.058.1.027.229-.117 1.158-.377 1.261-.402.374-.138.41-.254.642-.337.308-.104.377-.026.671-.107.138-.037.244-.184.472-.205.136-.011.163.082.268.075.375-.021.65-.101.985.015.08-.307.247-.084.409-.057.66.104 1.498.106 2.049.289q.315.102.614.228c1.315.554 2.361 1.44 2.787 2.607l.135.345.394.008.293.008c.293.007.363-.146.67-.137.137.005.28.116.505.117.181.002.441-.055.668-.054.06 0 .065.104.154.104.671.006 1.327-.068 2.006-.12.251-.018.407.12.364-.12.096.058.19.11.28.168.346-.152.628.006 1.096-.033.05-.005.404-.17.604-.051.014-.085-.017-.158-.011-.236.198-.032.502.066.636.076.133.01.223-.1.263-.102.153-.003.117.143.129.146.348.068.509.084.632.058.115-.027.194-.103.414-.191.12-.059.747.256.933.164-.02.068-.078.111-.112.17q.274.135.517.312c-.001-.08-.013-.165-.016-.244.311.23.644.335.895.554a1 1 0 0 1 .074.073c.139.155.006.234.105.303.02.014.074-.08.124-.03.396.426.425.718.576 1.256.061.25.297.461.197.86-.004.015-.028.082-.046.17-.027.139-.044.323.078.484-.083.065-.132.123-.202.165.236.526-.05.355-.36.87-.11.181-.373.657-.675.983a5 5 0 0 1-.37.371c-.153.14-.08.25-.108.275-.18.15-.247.034-.422.147-.174.11-.378.348-.601.393-.169.032-.077-.157-.304-.05-.049.02.124.134-.148.123a3.3 3.3 0 0 1-.55-.151l.186.186v-.002l.002.002-.188-.188c.22-.074.785-.272.973-.38.449-.219.9-.547 1.261-.995a3.26 3.26 0 0 0 .729-2.233 3.02 3.02 0 0 0-.943-2.02 2.91 2.91 0 0 0-2.02-.786c-2.361.023-4.599.007-6.278-.021-.415-.007-.686-.15-.957-.163-.27-.012-.042.12-.288.108-.245-.01-.424-.104-.654-.112l-.111-.003-.548-.012-.187-.48c-.372-1.075-1.464-1.895-2.702-2.346l-.197-.071c-.352-.12-.663-.087-.988-.151-.126-.024-.106-.16-.198-.175-1-.152-1.931-.006-2.898.156-.401.068-.863.07-1.258.196-.326.103-.62.313-.89.446-.148.072-.273.02-.33.04-.2.076-.073.154-.166.206-.253.144-.46.09-.687.256-.087.066-.02.139-.14.242-.148.132-.143.017-.259.1-.008.005.058.043-.004.095-.403.331-.886.77-1.289 1.073-.832.624-1.73 1.14-2.516 1.707-.199.144-.091.178-.15.228-.285.244-.458.238-.745.508-.048.044-.179.305-.398.431-.118.069-.288.1-.39.154-.104.056-.047.16-.157.244-.174.133-.19.07-.372.2a.1.1 0 0 0-.026.025c-.022.025-.028.119-.002.183.012.036.028.064.034.091q.006.03.02.063c.02.047.062.1.129.129a.25.25 0 0 0 .216-.013 9 9 0 0 0 .298-.217c.197-.15.376-.438.68-.672.372-.286 1.074-.79 1.457-1.08.195-.148.286-.059.313-.073.17-.086.024-.151.128-.224.142-.099.333-.114.462-.204.082-.057.032-.15.049-.163.617-.516 1.187-.94 1.815-1.434l.78-.616c2.05-1.651 5.001-2.257 7.565-1.36 1.047.366 2.47 1.043 2.792 2.647a.1.1 0 0 0 .026.053.1.1 0 0 0 .058.027l.187.003c.358.004.372.135.687.114.315-.02.62-.302.878.01.009-.064.008-.108.016-.166.65.089 1.302-.003 1.939-.015.47-.008.889.001 1.324.008.386.006.352.116.686-.027 1.08.058 2.166.068 3.246.11a2.61 2.61 0 0 1 2.038 1.065c.514.263.661.868.656 1.583-.001.063.038.034.061.1.01.03.017.08.01.165-.042.344-.179.5-.398 1-.034.074-.175.45-.448.754-.2.231-.459.411-.63.465-.366.13-.896.224-1.289.152l-.067-.014q.031.039.067.076.056.044.113.086l-.113.008-.384.023-.067-.202-.272.192c-.196-.346.005-.233-.432-.145-.218.043-.392-.017-.617.018-.081.013-.133.115-.222.128-.219.031-.091-.11-.227-.108-.136 0-.331.155-.575.086.254-.274-.482-.185-.517.029-.088 0-.161-.009-.258-.003.09-.539-.37-.156-.551-.082-.182.073-.175-.072-.218-.066-.123.016-.033.076-.12.078-.569.012-1.105-.076-1.668-.084-.08-.002-.009.08-.103.072-.095-.008-.185-.09-.325-.084-.037.002-.049.074-.107.074a52 52 0 0 1-1.084-.016.3.3 0 0 0-.214.07.3.3 0 0 0-.108.214.32.32 0 0 0 .206.322c.035.013.082-.066.116-.094a.5.5 0 0 1 .105-.008c.218.004.549.12.82.128.071.003.09-.104.186-.101.324.01.603.096.94.11.569.024 1.165-.04 1.742.022.11.012.092.1.25.126.272.043.17-.087.225-.104.18-.056.237.116.411.072.027-.007-.011-.11.013-.11.37-.018.39.22.785.093.35.137-.235.184-.295.257-.147.177.241.386.47.453.197.057.196-.053.274-.053.415 0 1.034-.022 1.35.03.19.032-.154.078-.056.115.097.036.16-.047.259.044.1.09.302.357.264.485m-10.15-7.422a.6.6 0 0 1 .08.075c.123.189.292.384.516.508.178.1.388.152.595.134.657-.052 1.376-.028 1.866-.006.752.034 1.4.37 1.245-.117-.813-.003-1.47.046-2.33.032-.086-.002-.576-.043-.782-.053l-.02-.002c-.082-.01-.073-.088-.165-.112-.016-.002-.176.043-.219.007a.3.3 0 0 1-.051-.05.6.6 0 0 1-.127-.44 1 1 0 0 0-.027-.261c-.108-.274-.19-.119-.257-.219-.242-.306-.122-.451-.435-.701-.059-.045-.327-.078-.533-.247-.083-.07-.2-.241-.277-.28-.313-.159-.684-.244-1.01-.331q-.161-.044-.307-.093c-.32-.11-.201-.205-.374-.266-.175-.059-.42.044-.54.033-.195-.02-.423-.128-.485-.132-1.212-.083-2.283.183-3.332.623a7.2 7.2 0 0 1 2.27-.319c.423-.147.215-.017.494.024.22.038.285-.183.582-.131.154.027.456.22.782.225.011.001.064-.109.304-.052.172.041.372.092.582.157.45.135.946.344 1.285.608.145.115.044.187.19.333.103.107.314.157.433.375.145.283 0 .458.313.583-.088.04-.18.055-.266.095m9.566 4.675c-.044-.01-.627-.308-.454.01.338.059.688.08 1.042.09.483.016.967-.163 1.366-.455-.418-.053-.708.287-1.29.342h-.001c-.026.002.078-.083-.067-.064h-.008c-.086.015-.363.13-.588.077"/><path fill="currentColor" d="M55.887 64.38h-21.53a.911.911 0 1 1 0-1.82h21.53c.662-.001 1.303-.23 1.816-.65l14.713-12.059a2.37 2.37 0 0 0-2.682-3.89L56.47 53.559a.911.911 0 1 1-.905-1.58l13.264-7.598a4.192 4.192 0 0 1 4.741 6.879L58.86 63.317a4.7 4.7 0 0 1-2.972 1.063"/><path fill="currentColor" d="M55.88 65.256a17.7 17.7 0 0 1-2.85.106c-.222-.01-.2-.093-.292-.106-.166-.025-.446.064-.486.064-.243 0-.148-.143-.18-.149-.366-.058-.26.106-.61.122-.455.02-1.039-.01-1.587-.017-.193-.003-.107-.113-.522-.104-.295.007-1.198.132-1.613-.002-.003-.05.05-.106.072-.158-.596.21-.81.2-1.654.15-.134-.008-.26.078-.496.046-.235-.032-.245-.165-.719-.163-.167 0-.27.094-.527.099-.732.011-2.126-.105-2.727-.11-1.184-.008-1.828.153-2.879.097-.08-.004.097-.107-.051-.109-.15-.002-.305.134-.342.138-.398.035-1.237-.148-1.458-.126-.537.054-.008.114-.752.14-.54.019-1.237-.08-1.85-.143h.018a1.6 1.6 0 0 1-.857-.282 1.8 1.8 0 0 1-.598-.683 1.6 1.6 0 0 1-.164-.596 1.2 1.2 0 0 1 .12-.616 1.08 1.08 0 0 1 .492-.488A1.47 1.47 0 0 1 34.373 62h-.015c1.928-.014 3.863-.023 5.792-.035l-.02.161.51-.11-.075.119a9.8 9.8 0 0 1 2.45-.192c.018.001-.03.108-.015.11.21.021.447-.061.632-.042.447.046 1.208.28.873-.006 1.043.06 2.27-.037 3.264.018.43.024.56.193.766.203s.1-.136.174-.141c.439-.033 1.161-.027 1.237.136l.272-.196c-.053.18 1.304.106 1.66.11.065 0 .074.08.123.079.546-.01.68-.134 1.148-.175.165-.015-.09.125.332.064.036-.005.017-.13.52-.129.468 0 1.182-.016 1.886-.018.404 0 .794-.113 1.088-.244.058-.028-.049.193.195.012.082-.067 0-.113.17-.256l.024-.02c.942-.777 2.02-1.517 2.925-2.378.035.113-.231.49.242.014.075-.077-.049-.102-.014-.135.282-.267.586-.426.886-.721.089-.087.064-.166.172-.278.16-.166.307-.145.482-.349.274-.319.258-.44.784-.608 2.244-1.856 4.449-3.737 6.75-5.507.611-.576 1.169-1.117 1.831-1.689.195-.168.321-.092.61-.388l.011-.012c.085-.08.254-.472.51-.407.052-.139.088-.223.117-.344-.07.074-.147.143-.223.197.122-.184.175-.389.181-.583a1.65 1.65 0 0 0-.13-.667c-.123-.273.058-.112-.024-.284-.058-.108-.11-.167-.144-.268a2 2 0 0 1-.06-.235c-.256-.027-.251-.204-.574-.381-.033-.018-.235-.048-.402-.087l-.031-.008c-.125-.032-.154-.147-.375-.133-.044-.01-.469.18-.578.254-.069.033-.157.06-.245.087-.21.081-.417.136-.45.154-.738.396-.953.67-1.576.779-.04.17-.434.482-.788.67-.447.239-1.459.516-1.441.826-.57.184-.477.218-1.079.566-.548.316-2.054 1.057-2.491 1.325s-.145.278-.31.397c-.273.195-.173.007-.37.122-.558.324-1.033.622-1.543.971q-.103-.08-.209-.157l-.043.117c-.115.065-.243.14-.35.199 1.072-.21-.88.474-1.415.77-.338.187-.793.554-1.2.858a1.5 1.5 0 0 1-.766.26c-.245.005-.073-.078-.122-.078a2 2 0 0 1-.305-.03 1.4 1.4 0 0 1-.582-.231 1.4 1.4 0 0 1-.42-.477 1.34 1.34 0 0 1-.13-.612 2.6 2.6 0 0 1 .082-.595 1.53 1.53 0 0 1 .716-.915c1.2-.706 2.35-1.455 3.563-2.161.246-.143.525-.15.733-.267.3-.167.433-.368.71-.529.278-.16.742-.278.92-.403.18-.124-.205-.048.157-.216.166-.077-.068.164.13.054.615-.342 1.42-.936 2.125-1.211-.042-.008-.094-.007-.142-.01.698-.387 1.343-.68 2.063-1.081.252-.14.662-.47.908-.61s.402-.127.6-.238c.081-.045.01-.096.065-.126.57-.306.97-.42 1.489-.689q.18-.095.395-.197a4.7 4.7 0 0 1 2.968-.349 4.75 4.75 0 0 1 2.88 1.89 4.8 4.8 0 0 1 .816 3.592c-.025.138.057.255.015.463-.07.32-.17.302-.186.341-.12.252.007.181-.157.524-.245.507-.752 1.136-1.316 1.561-.235.18-.456.353-.635.502-1.252 1.045-2.261 1.977-3.472 3.022-.087.075-.104-.069-.26.056-1.098.884-1.254 1.163-2.631 2.25-1.378 1.086-3.985 3.126-5.583 4.414-.357.585-1.04 1.071-1.685 1.379 2.742-2.97 5.862-5.205 9.154-7.932 1.58-1.31 3.16-2.72 4.746-4.137a4.3 4.3 0 0 0 1.413-2.745 4.31 4.31 0 0 0-1.633-3.856c-.331-.253-.421-.45-.764-.583-.057-.02.044.133-.128.069a5 5 0 0 0-.713-.2 4.4 4.4 0 0 0-2.944.425c-1.186.642-2.372 1.272-3.472 1.939-.583.353-.621.503-1.127.826.065-.098.098-.18.151-.272-2.456 1.219-4.799 2.645-7.216 4.003-.11.06-.177-.026-.293.036-.232.123-.39.352-.587.47-.258.153-.345.103-.582.245-.101.061-.055.11-.22.21q-.035.022-.084.052c-.019.017-.099-.057-.246.121l-.023.03a1.04 1.04 0 0 0-.174.782 1 1 0 0 0 .417.642.97.97 0 0 0 .717.154q.194-.03.354-.107c.303-.139.562-.213.692-.281.512-.267.435-.377.858-.62 3.013-1.727 5.97-3.245 9.054-5.013.194-.11.837-.651 1.198-.851.121-.067.77-.393.865-.444.233-.125.46-.214.654-.289.121-.045.23-.072.315-.097.403-.13.892-.27 1.147-.237q.069.006.15.022c.45.064.975.459 1.076.584.241.256.128.32.183.435a.5.5 0 0 0 .075.116c.052.072.134-.086.272.215.103.26.025.395.036.572.015.172.162.512.135.635v.004c-.137.602-.355.822-.794 1.267q-.043.041-.11.097c-.609.507-2.343 2.01-2.48 2.166-.66.754.567-.347.642-.401.408-.294.391-.198.702-.609.368.002.84-.573 1.287-.973.265-.236.454-.467.675-.52-.02-.436.117-.663.231-1.006q.037-.111.06-.234c.066-.64-.075-.152-.138-.593-.02-.168-.083-.715-.272-.935l-.012-.014c-.173-.202-.318-.231-.584-.446a3.5 3.5 0 0 0-.95-.513 4 4 0 0 0-.6-.167c-.102.056-.19.118-.278.184a2.4 2.4 0 0 0-.929.168l-.172.065.221.038-.265.174-1.012.338c-.715.724-.585.377-1.075.617s-.685.534-1.05.744c-.49.282-.707.429-1.208.703-.29.159-.854.306-.334.286-.887.53-2.082 1.293-2.933 1.667-.25.111.027-.136-.018-.12-.223.076-.331.28-.547.383-.36.172-1.079.474-1.362.61-.406.195-.941.685-.998.731-.319.258-.479.196-.587.269-.615.413-.729.543-1.07.416-.092.173-.548.626-.844.694a.15.15 0 0 1-.108-.014c.029.064-.034.142-.166.185a.7.7 0 0 1-.334.012.9.9 0 0 1-.406-.195.7.7 0 0 1-.003-.26l-.016-.01a.53.53 0 0 1-.186-.266.7.7 0 0 1-.021-.341.8.8 0 0 1 .142-.323.8.8 0 0 1 .27-.232c.657-.365 1.418-.7 1.984-1 .025-.013 0-.158.163-.215.01-.003.026.06.129.01.337-.163 1.652-.739 1.795-.819.528-.296.568-.438.883-.629.413-.252.52-.206.914-.447.184-.112.294-.316.597-.47.18-.09.244-.018.386-.09.506-.258.837-.517 1.335-.658-.038-.33.283-.255.51-.358.923-.421 1.952-1.159 2.718-1.566.69-.366 1.363-.712 2.025-1.05a3.8 3.8 0 0 1 2.723-.264 3.85 3.85 0 0 1 1.734 1.035c.206.22.355.246.528.435a1 1 0 0 1 .113.156c.09.159.083.371.187.636.084.213.23.52.27.81.01.078-.092.097-.082.207q.034.409-.006.815a3.8 3.8 0 0 1-.54 1.633c-.176.28-.423.325-.207.449-.13.054-.253.103-.378.137a1 1 0 0 1-.093.135c-.287.33-.665.489-1.11.898-.055.05-.351.507-.654.601.038.08.119.107.161.172-.204.21-.612.416-.77.533-.158.116-.189.285-.234.324-.171.144-.224-.002-.238.007-.898.555-.764.545-1.113 1.115-.088.143-1.02.7-1.078.97-.052-.048-.045-.134-.075-.197l-.786.574c.096.009.203.009.294.022-.548.373-.872.845-1.293 1.184-.241.193-.307.054-.427.194-.023.027.087.068.011.14-.623.596-.982.752-1.66 1.283-.319.248-.475.614-1 .887-.048.025-.59.259-.713.662-.133.014-.234.046-.338.05-.33.72-.393.332-1.187.878-.41.283-1.665 1.39-2.06 1.76-.184.175-.167.276-.172.33q0 .022-.012.035c-.25.234-.328.125-.577.305-.248.177-.552.482-.873.57-.244.063-.1-.145-.435-.001-.072.027.173.122-.221.144-.065.013-.69-.078-.808-.122.323-.064 1.174-.328 1.456-.494a4.6 4.6 0 0 0 1.161-.814c3.71-3.526 9.734-8.567 14.434-12.397a3.25 3.25 0 0 0 1.144-3.063c-.082-.456-.083-.801-.23-1.091-.143-.26-.129-.026-.24-.177l-.032-.047c-.156-.233-.23-.452-.43-.64a3.4 3.4 0 0 0-1.475-.808 3.45 3.45 0 0 0-2.506.313q-.712.39-1.417.784c-.51.285-.863.61-1.325.875-.18.103-.254-.014-.38.06-1.371.798-2.578 1.642-3.954 2.412-.572.32-1.244.57-1.812.884-.468.257-.91.602-1.326.842-.226.13-.398.108-.484.148-.299.14-.135.194-.28.277-.403.23-.68.21-1.051.437-.145.089-.077.163-.284.3-.263.172-.208.036-.404.144-.012.007.062.046-.04.108l-.514.316a.22.22 0 0 0-.094.156.22.22 0 0 0 .038.152q.023.032.051.054l.01.007a.22.22 0 0 0 .132.042.2.2 0 0 0 .08-.016c1.048-.551 2.092-1.05 3.059-1.58.315-.173.186-.206.283-.266.466-.291.691-.293 1.17-.614.08-.053.351-.355.687-.51.18-.083.416-.127.572-.195s.121-.183.298-.284c.32-.184.268-.06.72-.336.182-.111.746-.561 1.226-.827.786-.434 1.802-.9 2.721-1.424.316-.18.66-.516 1.148-.797.352-.202.883-.496 1.385-.775a3.15 3.15 0 0 1 1.323-.388c.47-.018.488.14.54.145.253.06.246-.01.334-.028a.25.25 0 0 1 .115.012c.316.093.546.313.778.47.148.1.231.038.265.062.262.19.487.421.668.677.441.623.623 1.392.519 2.144a3.08 3.08 0 0 1-1.074 1.94c-4.6 3.852-9.204 7.777-13.867 11.525-.405.326-.506.244-.841.54l-.015.013c-.412.37-.877.884-1.428.69 0 .066.01.109.008.168a5 5 0 0 1-.82.058c-.744-.017-1.482.04-2.209.05-.691.008-1.305-.002-1.943-.01-.567-.006-.518-.115-1.008.028-2.437-.09-4.9-.068-7.316-.217-.566.235-1.11.087-1.893.052-.097-.004.007.081-.28.074-.36-.009-.547-.14-1.154-.132-.16.002-1.35.147-1.79.072-.44-.074-1.078-.117-1.536-.188.065.056.148.11.22.165l-.686.028-.098-.202-.398.192c-.288-.346.007-.233-.634-.145-.288.039-.523-.006-.806.01h-.017a.1.1 0 0 0-.034.008c-.034.014-.038.09-.045.127l-.006.017c-.035.054-.08-.06-.123-.042l-.008.006c-.02.022-.015.072 0 .112.012.035.028.061.023.088a.1.1 0 0 1-.014.032c-.139-.035-.193.021-.143.112.026.043.08.075.131.072.047-.002.087-.03.117-.07q.014.01.03.018.015.01.036.01c-.056.217-.035.292.04.284h.013c.192-.01.484-.157.64-.2.267-.074.256.07.319.065.18-.015.049-.076.175-.078.836-.012 1.624.077 2.45.085.118 0 .013-.081.151-.073.139.008.271.09.476.084.055-.002.072-.073.158-.074 1.794.004 3.498.065 5.327.074.166.001.296-.127.616-.122.32.004.806.12 1.203.128.105.003.134-.104.274-.1.476.009.885.096 1.38.11.835.023 1.709-.041 2.556.021.16.012.135.1.367.126.4.043.25-.086.33-.104.265-.056.348.116.604.072.04-.007-.017-.109.019-.11.544-.018.573.22 1.152.093.514.137-.346.184-.434.257-.215.177.355.386.69.453.29.058.288-.053.403-.053.61 0 1.517-.021 1.98.031.282.031-.225.078-.081.114.142.036.234-.047.38.044.146.09.444.358.387.485m4.175-5.638c-.31.644-1.34 1.58-2.294 2.363a2.8 2.8 0 0 1-1.37.601 2.1 2.1 0 0 1-.504.01c-.873-.084-1.525-.261-1.332.15.469.002.902-.005 1.332-.013a3.14 3.14 0 0 0 1.911-.702l.095-.076c.103-.082.737-.544.952-.71.122-.094.176-.035.337-.167.035-.03.163-.27.236-.326.25-.193 1.076-.662 1.175-.749.271-.24.085-.248.191-.365.36-.392.523-.284.888-.661.065-.068.2-.39.513-.618.127-.093.387-.197.478-.276.492-.432.987-.982 1.462-1.348.39-.3.368-.118.58-.27s.361-.464.493-.584c.212-.19.532-.345.6-.402 1.33-1.121 2.464-2.176 3.74-3.266-.918.677-1.832 1.358-2.745 2.029-.414.508-.245.21-.598.447-.279.188-.201.41-.557.67-.183.133-.66.327-.994.683-.011.012.028.128-.249.36-.623.523-1.55 1.358-2.272 1.92-.213.164-.247.036-.502.226-.186.138-.323.395-.62.605-.371.264-.662.254-.735.658-.08-.057-.129-.137-.211-.19m-24.06 2.892c-.064-.01-.92-.308-.666.01 1.15.137 2.394.069 3.605.146-.414-.314-1.113-.19-1.962-.167-.04 0 .127-.081-.101-.066-.11.007-.534.133-.876.077"/><path fill="currentColor" d="M29.876 71.888a2.21 2.21 0 0 1-1.825-.957l-9.711-14.12a2.215 2.215 0 0 1 .568-3.075l4.87-3.347a2.215 2.215 0 0 1 3.074.568l9.712 14.12a2.215 2.215 0 0 1-.569 3.076l-4.87 3.35a2.2 2.2 0 0 1-1.25.385M25.027 51.82a.4.4 0 0 0-.217.067l-4.87 3.35a.393.393 0 0 0-.1.542L29.55 69.9a.395.395 0 0 0 .543.1l4.869-3.35a.395.395 0 0 0 .1-.543l-9.71-14.12a.39.39 0 0 0-.326-.166"/><path fill="currentColor" d="M29.873 72.764a2.16 2.16 0 0 1-1.653-.355c-.11-.08-.052-.142-.089-.183-.067-.073-.25-.106-.27-.122-.112-.094.028-.166.017-.182-.114-.184-.184-.023-.338-.166a1.7 1.7 0 0 1-.245-.304c-.068-.11-.135-.227-.206-.337-.043-.069.068-.101-.039-.24-.076-.099-.395-.342-.384-.562.041-.03.1-.043.148-.065-.316-.088-.36-.167-.52-.49-.024-.051-.126-.046-.156-.146s.077-.179-.037-.342c-.04-.058-.143-.04-.207-.128-.185-.248-.422-.798-.563-1.01-.276-.415-.562-.548-.767-.945-.016-.03.11-.027.077-.08-.034-.053-.183-.03-.195-.041-.124-.118-.174-.514-.245-.578-.173-.156-.096.062-.295-.182-.19-.233-.278-.673-.417-.937-.162-.306-.437-.251-.362-.617-.527-.74-1.052-1.485-1.579-2.227l.138-.084-.214-.115.116-.041c-.318-.191-.554-.394-.743-.744-.003-.006.096-.05.095-.057-.034-.085-.158-.12-.186-.196-.07-.181-.059-.578-.214-.3-.2-.396-.573-.768-.765-1.145-.084-.163.025-.303-.017-.38-.04-.077-.135.041-.157.019-.132-.134-.3-.389-.184-.507l-.226.016c.16-.084-.225-.513-.306-.64-.015-.022.047-.07.035-.087-.139-.184-.273-.16-.419-.3-.051-.049.125-.039-.026-.151-.013-.01-.111.067-.231-.108-.097-.142-.25-.343-.4-.553a2.05 2.05 0 0 1-.356-.823c-.006-.04.157.04.08-.128-.027-.062-.117-.008-.148-.173a2.4 2.4 0 0 1 .045-.969c.078-.328.203-.638.337-.946.08.08.072.326.186.01.02-.05-.083-.071-.072-.094.092-.183.256-.272.386-.447.039-.052 0-.12.051-.187.067-.086.158-.058.236-.12a.1.1 0 0 0 .031-.036c.103-.16.067-.26.36-.215 1.005-.706 1.98-1.446 3.04-2.065.259-.249.491-.487.782-.714.086-.067.182.035.299-.1.026-.031.17-.31.362-.102l.043-.05c.04-.039.077-.067.12-.105a3 3 0 0 0-.193-.002l-.029-.002.02-.01c.304-.162.523-.363.822-.495.226-.093.088.065.227.022.138-.038.209-.076.394.055.13-.171.234-.062.485-.03.018.002.102-.019.196-.017q.068.002.13.021c.094.032.094.138.24.169.022 0 .371.003.472.049.16.06.298.319.317.338.318.276.527.352.55.692l-.003.038c.134-.031.315.099.4.245.109.185.135.687.397.578.038.274.086.209.254.449.153.218.466.86.602 1.03.134.17.202-.004.267.055.108.096-.029.098.027.177.159.221.31.404.498.59l-.173.171.089-.012c.031.047.068.097.095.141.041-.558.218.363.357.58.117.183.459.387.623.563.04.043-.053.059-.045.067.1.102.16.086.26.245.052.084.02.23.074.31.39.593.869 1.097 1.278 1.672.07.098.02.258.075.342.078.121.219.135.297.246s.082.344.15.408c.068.065.082-.135.149.022.03.072-.123.013-.072.093.161.25.493.53.58.854.016-.028.025-.058.038-.087.182.284.295.567.484.86.066.101.258.236.325.334s.025.194.077.274c.022.033.078-.024.092-.002.17.284.156.514.365.79.748.985 1.51 2.006 2.264 3.01l.07.099c.036.055.148.04.21.124.093.128.01.175.016.194.034.13.094.046.156.217.148.38.13 1.035.063 1.415l-.013.087c-.134.784-.489 1.456-1.13 1.959l-.11.086c-.039.03-.081-.09-.152-.043-.497.326-.534.494-1.162.886s-1.82 1.123-2.544 1.6v-.001c-.097.341-.42.495-.758.52 1.075-1.418 2.547-2.129 4.02-3.17q.208-.146.413-.301a2.3 2.3 0 0 0 .908-1.632 2.34 2.34 0 0 0-.51-1.679 18 18 0 0 1-1.101-1.494c-.098-.151-.033-.284-.141-.394-.019-.019-.063.092-.116.033-.727-.819-1.197-1.902-1.853-2.745-.177-.227-.294-.202-.461-.394.068.007.13 0 .195.002-.52-1.044-1.235-1.956-1.878-2.933-.03-.044.056-.111.029-.159-.056-.096-.215-.116-.273-.193-.076-.101-.017-.168-.088-.26-.034-.046-.093.015-.151-.095-.005-.009.063-.064.007-.125-.153-.168-.474-.506-.598-.647-.157-.18-.158-.412-.202-.49-.118-.214-.226-.134-.343-.303-.83-1.207-1.499-2.448-2.35-3.683-.037-.054-.201-.167-.33-.28-.06-.053-.113-.1-.147-.144a3 3 0 0 0-.265-.328c-.139-.131-.237-.296-.328-.365-.179-.14-.458-.083-.566-.094q-.069-.009-.153-.022a4 4 0 0 0-.47-.046c-.198 0-.15-.177-.296-.118-.042.02.022.142-.123.17-.12.026-.197-.055-.289-.045-.094.011-.182.218-.228.237-.13.051-.232.077-.336.113a1.2 1.2 0 0 0-.317.148c-.202.134-1.085.827-1.141.91-.25.372.28-.082.315-.1.193-.094.203-.024.309-.243.365.199.58-.65.969-.383a.6.6 0 0 1 .004-.129c.032-.2.21-.169.362-.18.25-.011.019-.107.19-.166.072-.024.296.061.392.034.098-.029.137-.136.283-.14a.8.8 0 0 1 .352.066.7.7 0 0 1 .268.203q.077-.06.162-.113.176.166.301.356.012-.078.02-.157.06.026.12.056a2 2 0 0 1 .172.429c.226.044.277.108.28.161.005.058-.036.12.014.224.101.21.307.23.408.375.136.197.215.276.342.48.074.12.083.401.172.104.263.348.657.802.797 1.18.042.11-.108.027-.105.048.019.106.167.104.21.198.07.154.176.478.232.6.081.174.382.33.409.348.15.104.067.217.105.257.22.227.306.252.13.491.146-.002.506.162.384.344.153-.102.287.147.423.263l-.077.17c.475.111.685.838.922 1.252.006.01.131-.05.146.026 0 .005-.054.034-.034.078.068.145.282.728.32.786.14.213.25.192.346.314.127.161.067.238.188.39.057.072.204.071.271.2.04.075-.034.136-.003.196.113.212.262.323.28.569.282-.128.154.083.195.183.164.404.572.769.756 1.086.575.99.993 1.93 1.59 2.873.097.153.248.102.348.264.044.073.003.209.08.325.063.093.2.194.28.31.02.03-.063.092-.033.137q.108.162.233.313c.135.156.264.333.347.545.044.118-.088.207.149.16-.053.055-.1.105-.157.15.118.12.05.237.004.37a.6.6 0 0 0-.033.146c.001.02.1.249-.055.291.075.044.147.06.216.095-.017.117-.19.213-.24.263-.048.051.008.158-.006.176-.054.07-.15-.044-.157-.04-.288.14-.288.156-.312.34q-.014.065-.04.16c-.024.083-.488.207-.465.402-.044-.056-.058-.121-.09-.18l-.369.186c.062.04.13.076.19.117-.263.11-.364.372-.555.497-.109.072-.18-.06-.225.01-.009.013.07.082.037.114-.261.26-.453.262-.764.451-.145.089-.164.325-.433.363-.025.004-.315.005-.304.281-.081-.034-.137-.042-.201-.073-.05.456-.175.128-.555.291-.196.085-.742.534-.91.694-.098.096-.02.207-.036.225l-.012.012c-.095.086-.162-.016-.258.06-.097.076-.198.28-.34.305-.106.017-.066-.16-.198-.073-.029.018.089.14-.084.114-.03 0-.297-.13-.34-.166.133-.08.45-.245.547-.322q.21-.14.388-.334c1.149-1.13 2.92-2.492 4.623-3.707.267-.195.442-.489.497-.788a1.28 1.28 0 0 0-.176-.92l-.307-.469c-.14-.216-.117-.436-.201-.58-.085-.146-.113.045-.19-.086-.077-.132-.063-.276-.138-.398-.498-.821-.998-1.65-1.516-2.448-.134-.207-.334-.31-.462-.494-.049-.072.063-.153.027-.203-.388-.545-.848-.98-1.212-1.537-.15-.232-.224-.544-.37-.775-.12-.191-.318-.339-.435-.505-.063-.09-.01-.198-.025-.235-.056-.13-.134-.017-.175-.076-.11-.161-.037-.329-.151-.473-.045-.056-.121.007-.193-.07-.09-.098.012-.11-.039-.19-.003-.004-.05.051-.081.011-.198-.255-.473-.556-.645-.815-.357-.536-.606-1.137-.924-1.647-.08-.128-.133-.043-.164-.08-.149-.18-.105-.31-.275-.487-.028-.03-.225-.092-.287-.238-.033-.079-.021-.202-.047-.271-.025-.07-.128-.013-.176-.084-.09-.128.003-.137-.135-.312-.056-.072-.318-.256-.442-.452-.203-.32-.386-.764-.638-1.133-.055-.081-.161-.149-.267-.239a.6.6 0 0 1-.127-.106c-.12-.153-.409-.388-.607-.451-.097-.036-.072-.156-.083-.166-.076-.056-.076.09-.128.072a.1.1 0 0 1-.03-.014c-.056-.038-.11-.122-.173-.132-.047-.007-.058.096-.067.097-.342.026-.641.11-.912.303l-.033.024c-1.581 1.14-3.152 2.321-4.754 3.442a1.47 1.47 0 0 0-.61 1.125c-.004.138-.133.158-.092.289.048.14.346.14.102.359.059-.023.1-.042.153-.063.007.083.039.16.084.226.155.226.347.426.506.643.173.236.311.455.458.681.13.2.028.246.263.335.51.898 1.116 1.742 1.57 2.666.33.064.337.336.496.628.02.037.065-.048.128.056.079.13.016.269.167.476.04.054.444.386.488.581s.16.442.211.64c.03-.053.055-.112.084-.169l.187.222-.143.149.254.03c-.217.296-.194.13.031.302.113.087.124.21.232.305.039.034.141.003.183.041.103.094-.058.108-.01.177.05.069.245.081.274.244-.316.026.016.35.204.248.032.044.05.087.089.133-.475.26 0 .277.125.328s.003.13.023.148c.056.054.074-.026.106.017.21.284.325.608.516.9.027.041.07-.042.096.01.027.053-.009.146.045.214.014.018.077-.017.098.013.426.626.783 1.253 1.213 1.894.039.058.175.03.248.144s.094.348.181.491c.024.038.118-.012.15.038.105.171.132.363.238.543.18.303.443.57.593.9.03.063-.05.104-.015.199.06.163.13.038.164.056l.01.007c.077.04-.032.16.056.197.014.006.08-.075.088-.068.125.11-.023.301.213.322.067.217-.208.079-.282.104-.185.073-.143.393-.04.538.085.123.143.026.188.052q.025.015.054.029c.246.133.61.217.803.287.127.047-.117.062-.055.107.065.046.117-.032.181.064.061.097.222.365.193.492M17.916 54.477c.068.202.076.436.088.682.01.47.09 1.01.233 1.345.041.102.073.207.106.304.104.304.14.538.402.269a10 10 0 0 0-.262-.365 1.75 1.75 0 0 1-.355-.84 2.3 2.3 0 0 1 .036-.462c.01-.058.089-.052.098-.127.002-.01-.026-.047-.048-.086-.017-.03-.03-.061-.026-.076.029-.128.308-.39.329-.424.05-.119-.082-.139-.07-.202.05-.214.213-.118.297-.3.014-.03-.014-.237.126-.319a.3.3 0 0 1 .117-.026c.049-.007.097-.013.117-.03.216-.174.407-.441.626-.57.18-.104.205.032.305-.017.1-.048.126-.244.183-.293.091-.079.258-.093.288-.115.591-.436 1.074-.885 1.638-1.314-.429.224-.855.453-1.282.674-.15.261-.107.084-.278.151-.134.054-.037.255-.204.34-.086.044-.344.035-.475.203-.005.006.045.111-.078.2-.249.181-.595.478-.903.68q-.054.035-.103.07c-.092.064-.153-.044-.267.041-.083.065-.082.225-.194.332-.138.133-.36.14-.183.38-.09-.032-.171-.078-.26-.105m5.074 9.184c.007.028-.034.494.167.226-.161-.478-.515-.872-.74-1.337-.16.322.109.495.33.777.011.014-.096.002-.03.073.033.034.238.11.273.26m2.034-10.964c.101.026.218.015.322-.035a2 2 0 0 1-.593.457c-.068.034-.109-.038-.142-.031-.06.012-.09.139-.1.146-.068.048-.123-.089-.135-.087-.136.023-.014.138-.103.218-.116.105-.297.194-.456.293-.056.035-.094-.072-.206.016-.079.062-.262.34-.455.31-.029-.04-.046-.097-.069-.144-.049.288-.114.322-.38.443-.043.02-.03.115-.114.135-.084.019-.162-.089-.294.004-.047.033-.023.13-.093.184-.199.15-.657.325-.829.438-.337.222-.427.478-.755.636-.025.012-.033-.107-.076-.08s-.01.17-.018.18a.35.35 0 0 1-.16.08c.079-.102.048-.22.052-.254l.004-.009c.048-.13.153.01.091-.234l-.016-.03c.138.188.182.54.284.747.124.252.387.18.284.505.43.597.856 1.2 1.285 1.798l-.137.085.19.081-.113.047c.282.138.486.294.632.58.003.006-.095.053-.094.06.024.07.138.09.158.153.048.152.003.498.173.242.153.327.47.617.617.928.064.135-.05.267-.019.33.032.064.131-.048.15-.03.112.105.247.311.127.425l.214-.035c-.158.087.166.427.23.53.013.018-.05.066-.04.079.114.148.241.115.366.224.044.038-.12.045.01.13.012.007.112-.07.209.073.154.227.493.632.627.936.011.025-.147.035-.052.118.035.03.103-.042.164.046.24.341.4.77.717 1.069-.098.05-.285-.006-.1.143.03.023.095-.055.107-.043.099.093.106.227.218.323.034.029.103-.006.148.027.066.05-.005.14.085.188.14.075.238.034.17.294.574.812 1.181 1.594 1.67 2.461.21.203.412.384.6.618.055.069-.05.161.068.25.026.02.275.12.063.307.055.037.078.07.12.105l.034-.17c.092.211.278.307.43.446.093.085-.003.086 0 .124a.1.1 0 0 1-.02-.02c-.023-.049-.068-.107-.16.016a.2.2 0 0 0-.003-.05c-.028-.097-.086-.01-.137.027h-.015c.016-.032.058-.105.117-.134.056-.027.13.048.2-.02.012-.01.108-.233.155-.28.074-.073.282-.055.3-.065.248-.142.265-.313.554-.25-.039-.13.058-.287.178-.355.152-.085.586-.065.468-.32.235-.012.173-.062.368-.199.176-.124.708-.361.843-.473.136-.112-.022-.19.024-.247.074-.092.088.036.151-.01.179-.128.324-.255.47-.415l.164.178-.018-.084c.037-.025.078-.055.114-.077-.49-.088.296-.172.473-.283.095-.06.19-.206.282-.34a.23.23 0 0 0-.162.09c-.021.033.07.034.066.04l-.02.025c-.033.041-.084.077-.04.173a.08.08 0 0 0 .046.035c0-.059.013-.139-.017-.186-.314-.482-.718-.877-1.051-1.341-.057-.079.004-.223-.04-.292-.062-.098-.193-.098-.257-.187-.063-.09-.046-.292-.104-.342s-.09.125-.138-.006c-.022-.06.117-.022.076-.087-.13-.204-.416-.418-.47-.692q-.023.039-.042.079c-.145-.23-.227-.467-.378-.705-.053-.083-.22-.183-.275-.262s-.007-.167-.049-.232c-.017-.027-.075.028-.086.01-.134-.232-.1-.433-.272-.654-.63-.811-1.27-1.653-1.903-2.48-.026-.033-.127.002-.174-.04-.073-.064 0-.12-.005-.132-.03-.078-.08-.003-.143-.094-.137-.2-.297-.564-.44-.76-.327-.45-.659-.79-1.002-1.217-.025-.03.091-.078.054-.135-.262-.404-.416-.42-.729-.933-.312-.512-.89-1.485-1.274-2.072-.311-.054-.426-.321-.42-.614 1.235.81 1.772 2.028 2.617 3.218.888 1.251 2.15 2.368 2.985 3.68.079.124.006.245.098.332.015.014.067-.087.111-.04.61.648.954 1.549 1.496 2.225.146.182.258.15.397.302-.063 0-.122.011-.183.015.395.863.985 1.593 1.502 2.386.023.036-.063.102-.04.141.043.079.19.082.238.144.062.081 0 .145.059.22.028.035.089-.023.134.067.004.008-.065.062-.018.11.06.062.15.153.241.243a.32.32 0 0 1 .094.294.19.19 0 0 1-.157.147c-.081.018-.154.02-.188.039-.175.093-.096.2-.233.295-.976.673-1.997 1.19-2.996 1.88-.063.043-.21.325-.33.4-.04.025-.266.133-.299.151-.13.075-.289.075-.368.106-.153.06-.221.279-.285.34-.045.042-.109.09-.173.134a.3.3 0 0 1-.213.043l-.024-.008c-.085-.053.008-.178-.049-.168-.019-.003-.09.125-.153.05l-.003-.004c-.048-.079.01-.165-.013-.229-.023-.065-.22-.077-.24-.114-.105-.19-.076-.328-.205-.525-.108-.164-.68-.87-.753-.912-.327-.185.052.237.066.266.07.159.005.174.2.247-.218.335.559.447.274.809.321-.05.267.132.302.287.05.216.102-.01.188.113.017.025.022.093.032.162.019.081.073.164.132.186.073.028.134.002.194-.02a.5.5 0 0 1 .122-.032.7.7 0 0 0 .203-.063.9.9 0 0 1 .385-.082q-.006-.094-.013-.188l.403-.067-.13-.083.079-.078.413-.03c.12-.414.175-.164.348-.24s.172-.267.29-.35c.159-.11.22-.177.388-.278.097-.059.341-.042.074-.152.28-.216.64-.545.956-.644.093-.029.034.104.052.103.09-.008.075-.147.153-.179.128-.053.4-.123.501-.165.145-.06.254-.329.267-.353.077-.131.183-.043.214-.076.178-.187.192-.264.417-.079-.01-.093.038-.273.123-.337.054-.04.106-.063.177-.049-.087-.076-.04-.18-.04-.297a.34.34 0 0 0-.041-.187.6.6 0 0 0 .114-.147l-.077-.036c-.383-.108-.51-.675-.686-.994-.005-.009-.128.055-.135-.01 0-.005.054-.035.039-.071-.051-.12-.2-.61-.23-.656-.113-.173-.218-.145-.298-.243-.104-.129-.041-.201-.141-.323-.047-.057-.185-.043-.237-.149-.03-.062.045-.122.02-.171-.086-.175-.217-.258-.211-.47-.277.136-.138-.06-.167-.142-.118-.338-.468-.62-.613-.879-.452-.81-.76-1.592-1.237-2.36-.077-.124-.224-.066-.303-.198-.035-.06.016-.181-.047-.275-.05-.076-.17-.151-.234-.245-.017-.025.067-.086.043-.123-.186-.28-.433-.51-.668-.761-.087-.093-.017-.236-.203-.082.021-.073.037-.14.06-.21-.224-.058-.174-.264-.339-.435-.018-.018-.255-.07-.213-.22-.075.042-.126.096-.191.137-.083-.063-.088-.245-.118-.306-.03-.06-.146-.034-.159-.05-.046-.062.085-.13.084-.136-.088-.374-.13-.299-.433-.352-.076-.013-.152-.406-.336-.37.056-.042.119-.06.178-.094l-.143-.304c-.043.057-.082.12-.127.175-.079-.219-.317-.283-.417-.438-.057-.089.073-.163.011-.196-.012-.006-.084.068-.11.043-.221-.205-.206-.371-.356-.625-.07-.119-.29-.114-.302-.345-.001-.021.024-.274-.237-.24.04-.073.052-.123.087-.181-.423-.003-.105-.14-.224-.457-.062-.163-.435-.599-.57-.73-.081-.078-.193.001-.208-.012-.093-.079.016-.154-.063-.23-.08-.078-.28-.106-.332-.205-.038-.072.115-.11.032-.174l-.02-.015c-.03-.014-.084.126-.135-.001a.5.5 0 0 0-.154-.22 1 1 0 0 0-.102-.06.4.4 0 0 1 .113-.04.64.64 0 0 1 .515.184c.064.045.118.087.15.114 1.695 1.381 4.095 4.86 5.302 6.75.112.175.07.369.137.488.067.118.11-.05.17.057s.036.234.094.334c.395.67.79 1.348 1.206 1.997.108.168.286.239.39.388.04.059-.073.139-.044.18.316.44.71.777 1 1.23.122.188.163.452.28.641.096.156.268.267.363.4.051.074-.009.172.003.203.04.108.124.003.157.05.089.131.006.284.1.399.037.045.114-.017.174.044.077.077-.02.096.02.161.003.004.052-.048.078-.016.125.157.29.334.423.502a1.064 1.064 0 0 1-.293 1.513c-.34.18-.688.326-.99.51-.104.064-.025.121-.055.147-.142.124-.26.071-.4.215-.022.024-.059.203-.18.248-.066.024-.175.002-.233.02-.058.017 0 .119-.056.158-.104.072-.12-.016-.26.099-.057.046-.195.275-.354.374-.26.163-.63.295-.93.498-.102.07-.165.26-.323.37-.192.134-.564.357-.764.492-.101.069-.18-.03-.195-.026-.098.025.014.119-.042.15-.04.023-.094.022-.147.023-.1.036-.191.051-.275.075-.113.029-.118.128-.147.134a1.04 1.04 0 0 1-1.003-.416c-.147-.202-.279-.397-.428-.601-1.266-1.735-2.604-3.445-3.768-5.245-.098-.15.006-.23-.1-.348-.107-.12-.426-.085-.242-.368-.055.032-.091.058-.141.087-.112-.32-.372-.536-.562-.793-.141-.19-.252-.368-.37-.551-.104-.163-.004-.212-.217-.268-.397-.737-.892-1.417-1.237-2.181-.302-.027-.286-.263-.409-.503-.015-.03-.065.048-.115-.037-.062-.106.01-.233-.114-.4-.033-.044-.382-.296-.406-.462s-.112-.37-.142-.54c-.034.05-.062.104-.093.156l-.157-.177.148-.142-.235-.003c.229-.277.193-.13-.003-.26-.098-.066-.098-.172-.19-.245-.034-.027-.133.01-.169-.02-.088-.072.064-.1.025-.154-.04-.056-.222-.05-.235-.19.299-.05.016-.303-.17-.196-.025-.036-.039-.072-.071-.108.47-.269.024-.241-.089-.275-.112-.033.01-.112-.008-.127-.047-.041-.072.03-.098-.005a2 2 0 0 1-.113-.176 1 1 0 0 1-.124-.777 1.05 1.05 0 0 1 .45-.625c.033-.022-.043-.069 0-.09.044-.02.128.022.182-.022.015-.012-.02-.075.003-.091.507-.345 1.02-.624 1.54-.97.048-.032.012-.162.104-.22.093-.058.295-.057.412-.127.03-.018-.022-.112.02-.136.139-.084.303-.092.45-.176.248-.142.458-.365.732-.477.051-.022.095.057.174.032.137-.041.021-.119.034-.149.043-.097.164.028.21-.058.008-.013-.066-.086-.057-.094.143-.12.287.071.377-.146.223.013.008.218.024.295.04.188.318.25.45.24.115-.008.052-.099.084-.121.171-.119.415-.312.575-.358l.005-.001c.022.003.024.024.03.042-.01.032-.025.067.006.069a.04.04 0 0 0 .033-.011c-.002-.004-.007-.035.017.029.053.085-.01.36-.005.486m1.128 11.764c-.54-.016-.981-.739-1.204-1.137-.185-.33-.093-.788-.45-.448.229.337.455.581.687.945.024.038.139.283.185.364.026.046-.04.093.001.151.01.013.145.024.16.051.053.094.102.45.131.483.082.095.158-.015.207.016.163.105.02.228.17.34.028.02.222.014.28.135.023.05.005.172.031.204.145.172.378.314.48.493.082.147-.048.182-.011.264.036.083.218.088.259.133.066.073.064.217.082.242.357.475.736.855 1.089 1.307-.173-.353-.35-.703-.52-1.055-.231-.107-.069-.086-.117-.228-.038-.113-.236-.01-.301-.148-.033-.07-.002-.296-.148-.395-.006-.004-.109.05-.182-.05-.165-.224-.454-.541-.61-.812-.047-.08.063-.133.014-.23-.036-.072-.18-.084-.23-.2-.061-.147.055-.317-.226-.254.074-.06.153-.11.224-.171M21.1 57.523c-.003-.024.076-.434-.137-.182.11.402.406.713.577 1.097.179-.294-.059-.42-.242-.646-.009-.011.091-.01.035-.066-.027-.027-.213-.075-.233-.203"/></svg>