<svg xmlns="http://www.w3.org/2000/svg" width="5" height="1027" fill="none" viewBox="0 0 5 1027"><path fill="#000" d="M4.996 976.643c.03 1.224-.132 2.951-.14 4.395-.038 6.049-.15 8.291-.214 13.763-.095 8.119.118 32.199-1.008 32.199-.011 0-.022 0-.034-.01-.214-.08-.448-2.13-.691-2.43-.243-.31-1.81-.08-1.898-2.99-.116-4.22.286-14.34.268-16.59-.013-1.53-.155-3.43-.18-5.395-.082-6.342.022-9.66-.365-15.373l.612-6.856c-.094-2.982.175-7.501.16-9.313-.012-1.486-.174-2.357-.181-3.906-.01-1.737.165-4.405.138-7.565-.042-5.18-.463-6.102-.516-9.21-.055-3.223.173-8.236.025-12.349l-.139-1.547-.314 1.108c-.048-2.071.166-2.962.17-4.865.005-2.24-.199-3.383-.198-4.89.001-1.234.164-2.908.154-4.509-.014-2.333-.25-1.823-.293-3.079-.018-.501-.147-9.765-.15-10.288-.009-3.975.314-4.321.342-7.491.077-8.791-.184-17.815-.282-25.947-.044-3.631-.025-7.419.026-11.04.825 5.703 1.467-6.917.176-2.198.184-4.028-.165-6.884-.106-10.703.039-2.47.218-4.179.213-7.706-.01-6.258-.518-13.103.401-14.903-.162-7.346.172-13.709-.64-16.356-.05-1.895.434-6.749.5-8.874.061-2.009.28-17.426.292-19.949.012-2.522.025-6.937-.046-9.061-.088-2.669-.93-4.534.054-9.285-.08-5.525-.051-7.493.063-12.631.021-.93.167-1.035.167-1.579 0-1.119-.108-3.024-.12-5.022-.022-3.287.285-5.162-.185-4.796l-.236-6.499.272-2.28-.296-3.475c.68 1.36.278-6.792-.112-4.145l.422-12.599c.773.586.09-9.222-.33-8.396l.001-1.442c.205-4.207.038-8.07.175-13.199.138-5.127.213-4.646.569-6.205l-.061-3.62c-.974-6.332.712-5.213-.035-16.055.612-3.464.29-12.003.105-17.665-.022-.658-.14-.67-.177-1.547-.088-2.145.064-7.619-.319-7.432l.333-5.685-.21-4.646-.358.023c.408-3.118.25-8.019.348-10.436.02-.481.185-.585.23-2.081.054-1.747.005-5.004.056-7.087l-.548-2.429c-.1-3.724.383-5.033.42-7.22.007-.394-.027-7.578-.038-7.965-.081-3.169-.492-2.271-.404-11.436.016-1.631.158-2.951.164-4.427.01-2.605-.313-10.457-.61-11.075.372-3.16.22-11.617.328-14.108.033-.751.27-.921.32-3.232.042-1.873-.148-6.697-.116-9.073.034-2.522.234-3.422.248-4.552.013-1.068-.148-2.052-.147-3.507.006-4.541.265-8.653.27-12.243.007-5.19-.47-9.776-.682-14.119.031-1.078.134-2.137.135-3.267.015-13.982.103-29.754.205-43.777.047-6.51.694-22.699-.386-18.378-.19-2.262.246-18.712.253-21.841.006-3.128-.188-5.608-.19-8.066-.009-7.42.13-12.645-.038-21.677-.044-2.333-.274-4.832-.271-6.213.004-1.664.226-3.455.24-5.611.032-5.138-.041-14.713-.003-19.643.008-.9.203-1.216.263-2.503.239-5.013.218-10.632-.405-9.638.354-6.425.032-12.369.012-18.323-.04-12.59.105-35.524-.157-46.491-.165-6.916-.444-6.739-.203-16.921.053-2.26.125-4.51.19-7.252.15-6.425.665-12.32.043-17.218.162-7.137.047-12.82.579-18.115l-.383-1.873-.01-2.625.366-.819c.032-6.268-.467-14.22-.464-19.526.006-8.895.2-31.807.364-40.242.087-4.478-.173-4.719.362-7.283l-.112-3.005-.351-1.881c-.005-5.745.177-12.559.175-18.033C.85 109.351.527 94.374.74 84.359c.053-2.511.295-5.65.292-8.11C1.027 72.67.626 71.8.62 67.258c-.012-7.828.454-22.407.418-29.806-.01-2.197-.16-3.223-.176-4.74C.793 26.349.805 21.125.575 15.023c.384-6.551.88-5.985 1.38-8.015C2.334 5.469 3.21.75 3.54.08c.232-.47.531 1.286.787.627.204 7.849-.02 11.147-.38 17.52l.043 35.31-.42 3.213c-.162 4.52.198 6.436.28 8.873.782 23.338.17 69.273.082 94.965-.02 5.537.169 23.547-.058 27.346-.059.984-.274 1.257-.284 2.304l.385 28.046c-.335 19.225-.059 39.101-.007 58.472.14 52.411.31 104.298.258 155.85-.01 9.963.15 22.607.047 32.36-.043 4.071-.39 5.767-.131 11.115l-.28.168c.112 4.667.324 7.65.346 12.882.018 4.406.032 16.063-.004 19.957-.018 2.019-.192 1.267-.19 3.149.002 3.224.243 10.111.243 14.559 0 4.029-.201 10.821-.172 13.919.103 11.156.4 23.308.32 35.197-.022 3.284-.247 7.508-.241 8.536.013 2.009.232 2.608.26 3.957.143 6.855-.118 17.54-.128 24.259-.034 21.893.062 45.087.022 66.887-.026 13.772.013 36.659-.152 49.375-.036 2.741-.276 2.01-.276 4.313 0 2.553.162 3.935.176 5.128.091 8.258.255 26.488.09 34.284-.032 1.485-.22 2.562-.22 3.451 0 .45.129 1.467.142 2.88.116 12.475.041 21.57-.003 33.794-.083 23.411.156 50.537.026 75.13-.028 5.358-.4 9.033-.396 9.786.007 1.654.257 2.712.32 6.061.203 11.134-.065 26.13.061 36.721.062 5.232.38 12.422.45 17.57.056 4.113-.068 13.825.071 15.648.085 1.109.355 1.622.39 2.95M.78 838.101c.433.733.073-6.967-.16-4.078-.052.65.048 3.889.16 4.078m.752-360.534-.371.211.154 3.033.223-1.705z"/></svg>