<svg xmlns="http://www.w3.org/2000/svg" width="58" height="57" fill="none" viewBox="0 0 58 57"><path fill="#0ba6e2" d="m28.475 55.92 14.258-13.615c.217-.208.347-.498.35-.799l.271-27.4c.01-.99-1.18-1.506-1.896-.822l-13.35 12.748L16.94 14.336c-.684-.716-1.897-.256-1.932.733l-.993 27.375c-.012.302.1.593.312.815l12.039 12.607c.572.6 1.518.617 2.114.049z"/><path fill="url(#a)" d="M28.108 26.031 16.941 14.336c-1.59-1.336-2.578-.074-2.613.915l-.313 27.193c-.011.301.101.592.313.814l12.038 12.607c.572.6 1.52.617 2.114.05L42.738 42.3c.217-.207.495-.647.142-1.016"/><defs><linearGradient id="a" x1="29.797" x2="13.871" y1="27.582" y2="42.789" gradientUnits="userSpaceOnUse"><stop stop-color="#ff0025"/><stop offset="1" stop-color="#ff0025"/></linearGradient></defs></svg>