<svg xmlns="http://www.w3.org/2000/svg" width="5" height="1289" fill="none" viewBox="0 0 5 1289"><path fill="#000" d="M4.996 1225.8c.03 1.53-.132 3.7-.14 5.51-.038 7.59-.15 10.41-.214 17.28-.095 10.18.118 40.41-1.008 40.41-.011 0-.022 0-.034-.01-.214-.1-.448-2.68-.691-3.06s-1.81-.09-1.898-3.74c-.116-5.3.286-18 .268-20.82-.013-1.93-.155-4.31-.18-6.78-.082-7.96.022-12.12-.365-19.29l.612-8.61c-.094-3.74.175-9.41.16-11.69-.012-1.86-.174-2.96-.181-4.9-.01-2.18.165-5.53.138-9.49-.042-6.51-.463-7.66-.516-11.56-.055-4.05.173-10.34.025-15.5l-.139-1.95c-.104.47-.209.93-.314 1.4-.048-2.6.166-3.72.17-6.11.005-2.81-.199-4.25-.198-6.14.001-1.55.164-3.65.154-5.66-.014-2.93-.25-2.29-.293-3.86-.018-.63-.147-12.26-.15-12.92-.009-4.98.314-5.42.342-9.4.077-11.03-.184-22.36-.282-32.56-.044-4.56-.025-9.32.026-13.86.825 7.16 1.467-8.68.176-2.76.184-5.05-.165-8.64-.106-13.43.039-3.1.218-5.25.213-9.67-.01-7.86-.518-16.45.401-18.71-.162-9.22.172-17.2-.64-20.53-.05-2.38.434-8.47.5-11.14.061-2.52.28-21.868.292-25.033s.025-8.707-.046-11.374c-.088-3.349-.93-5.69.055-11.653-.08-6.934-.052-9.404.062-15.853.021-1.168.167-1.3.167-1.982 0-1.405-.108-3.796-.12-6.304-.022-4.124.285-6.478-.185-6.018l-.236-8.158.272-2.862-.296-4.361c.68 1.708.278-8.525-.112-5.202l.422-15.814c.773.736.09-11.574-.33-10.537l.001-1.81c.205-5.28.038-10.13.175-16.566.138-6.436.213-5.832.569-7.789l-.061-4.543c-.974-7.947.712-6.542-.035-20.151.612-4.347.29-15.065.105-22.171-.022-.827-.14-.841-.177-1.942-.088-2.693.064-9.563-.319-9.328l.333-7.135-.21-5.832-.358.03c.408-3.915.25-10.065.348-13.099.02-.604.185-.735.23-2.611.054-2.194.005-6.282.056-8.896l-.548-3.048c-.1-4.675.383-6.318.42-9.062.007-.495-.027-9.511-.038-9.997-.081-3.977-.492-2.85-.404-14.353.016-2.049.158-3.705.164-5.557.01-3.27-.313-13.126-.61-13.9.372-3.967.22-14.581.328-17.707.033-.944.27-1.157.32-4.057.042-2.351-.148-8.406-.116-11.388.034-3.165.234-4.295.248-5.714.013-1.339-.148-2.575-.147-4.401.006-5.699.265-10.861.27-15.366.007-6.515-.47-12.27-.682-17.721.031-1.353.134-2.682.135-4.101.015-17.548.103-37.344.205-54.944.047-8.171.694-28.49-.386-23.067-.19-2.839.246-23.486.253-27.413.006-3.926-.188-7.038-.19-10.124-.009-9.313.13-15.871-.038-27.207-.044-2.927-.274-6.064-.271-7.798.004-2.089.226-4.336.24-7.042.032-6.449-.041-18.467-.003-24.654.008-1.13.203-1.527.263-3.142.239-6.292.218-13.344-.405-12.097.354-8.064.032-15.524.012-22.997-.04-15.802.105-44.586-.157-58.352-.165-8.68-.444-8.458-.203-21.237.053-2.837.125-5.661.19-9.102.15-8.065.665-15.463.043-21.611.162-8.957.047-16.091.579-22.737l-.383-2.35-.01-3.295.366-1.027c.032-7.867-.467-17.848-.464-24.507.006-11.165.2-39.922.364-50.509.087-5.621-.173-5.923.362-9.141l-.112-3.772-.351-2.36c-.005-7.211.177-15.764.175-22.634C.85 137.247.527 118.45.74 105.88c.053-3.152.295-7.092.292-10.179C1.027 91.21.626 90.117.62 84.416c-.012-9.825.454-28.123.418-37.41-.01-2.758-.16-4.045-.176-5.95-.068-7.985-.056-14.542-.286-22.2.384-8.223.88-7.512 1.38-10.06C2.334 6.863 3.21.942 3.54.101c.232-.59.531 1.614.787.787.204 9.851-.02 13.99-.38 21.99l.043 44.317-.42 4.032c-.162 5.674.198 8.078.28 11.138.782 29.292.17 86.944.082 119.192-.02 6.949.169 29.553-.058 34.321-.059 1.235-.274 1.578-.284 2.892l.385 35.202c-.335 24.129-.059 49.075-.007 73.388.14 65.781.31 130.905.258 195.609-.01 12.505.15 28.374.047 40.616-.043 5.109-.39 7.238-.131 13.95l-.28.212c.112 5.857.324 9.6.346 16.167.018 5.53.032 20.161-.004 25.048-.018 2.535-.192 1.591-.19 3.954.002 4.045.243 12.689.243 18.272 0 5.057-.201 13.582-.172 17.47.103 14.003.4 29.254.32 44.176-.022 4.122-.247 9.424-.241 10.714.013 2.522.232 3.273.26 4.967.143 8.603-.118 22.014-.128 30.447-.034 27.479.062 56.589.022 83.95-.026 17.286.013 46.012-.152 61.971-.036 3.442-.276 2.524-.276 5.414 0 3.204.162 4.94.176 6.437.091 10.364.255 33.244.09 43.03-.032 1.864-.22 3.216-.22 4.332 0 .564.129 1.841.142 3.614.116 15.657.041 27.069-.003 42.419-.083 29.38.156 63.43.026 94.29-.028 6.73-.4 11.34-.396 12.29.007 2.07.257 3.4.32 7.6.203 13.98-.065 32.8.061 46.09.062 6.57.38 15.59.45 22.05.056 5.17-.068 17.36.071 19.64.085 1.4.355 2.04.39 3.71M.78 1051.91c.433.92.073-8.74-.16-5.12-.052.82.048 4.88.16 5.12m.752-452.51-.371.265.154 3.806.223-2.139z" opacity=".23"/></svg>